<?xml version="1.0" encoding="UTF-8" standalone="no"?>
<!DOCTYPE svg PUBLIC "-//W3C//DTD SVG 1.1//EN"
 "http://www.w3.org/Graphics/SVG/1.1/DTD/svg11.dtd">
<!-- Generated by graphviz version 2.43.0 (0)
 -->
<!-- Title: afsk.hpp Pages: 1 -->
<svg width="831pt" height="252pt"
 viewBox="0.00 0.00 831.00 252.00" xmlns="http://www.w3.org/2000/svg" xmlns:xlink="http://www.w3.org/1999/xlink">
<g id="graph0" class="graph" transform="scale(1 1) rotate(0) translate(4 248)">
<title>afsk.hpp</title>
<!-- Node1 -->
<g id="node1" class="node">
<title>Node1</title>
<g id="a_node1"><a xlink:title="AFSK related modulation/demodulation.">
<polygon fill="#bfbfbf" stroke="black" points="263.5,-224.5 263.5,-243.5 322.5,-243.5 322.5,-224.5 263.5,-224.5"/>
<text text-anchor="middle" x="293" y="-231.5" font-family="Helvetica,sans-Serif" font-size="10.00">afsk.hpp</text>
</a>
</g>
</g>
<!-- Node2 -->
<g id="node2" class="node">
<title>Node2</title>
<g id="a_node2"><a xlink:title=" ">
<polygon fill="none" stroke="#bfbfbf" points="231.5,-112.5 231.5,-131.5 278.5,-131.5 278.5,-112.5 231.5,-112.5"/>
<text text-anchor="middle" x="255" y="-119.5" font-family="Helvetica,sans-Serif" font-size="10.00">vector</text>
</a>
</g>
</g>
<!-- Node1&#45;&gt;Node2 -->
<g id="edge1" class="edge">
<title>Node1&#45;&gt;Node2</title>
<path fill="none" stroke="midnightblue" d="M285.14,-224.44C277.8,-215.9 267.21,-202.05 262,-188 256.5,-173.19 254.92,-155.26 254.61,-141.99"/>
<polygon fill="midnightblue" stroke="midnightblue" points="258.11,-141.72 254.61,-131.72 251.11,-141.72 258.11,-141.72"/>
</g>
<!-- Node3 -->
<g id="node3" class="node">
<title>Node3</title>
<g id="a_node3"><a xlink:href="constants_8hpp.html" target="_top" xlink:title="Common constants used throughout the library.">
<polygon fill="none" stroke="black" points="0,-56.5 0,-75.5 144,-75.5 144,-56.5 0,-56.5"/>
<text text-anchor="middle" x="72" y="-63.5" font-family="Helvetica,sans-Serif" font-size="10.00">SignalEasel/constants.hpp</text>
</a>
</g>
</g>
<!-- Node1&#45;&gt;Node3 -->
<g id="edge2" class="edge">
<title>Node1&#45;&gt;Node3</title>
<path fill="none" stroke="midnightblue" d="M263.16,-231.87C205.65,-228.99 82.86,-219.25 57,-188 32.58,-158.48 50.18,-110.23 62.6,-84.48"/>
<polygon fill="midnightblue" stroke="midnightblue" points="65.75,-86.01 67.16,-75.51 59.51,-82.84 65.75,-86.01"/>
</g>
<!-- Node5 -->
<g id="node5" class="node">
<title>Node5</title>
<g id="a_node5"><a xlink:href="bit__stream_8hpp.html" target="_top" xlink:title="The bit stream class.">
<polygon fill="none" stroke="black" points="66.5,-168.5 66.5,-187.5 215.5,-187.5 215.5,-168.5 66.5,-168.5"/>
<text text-anchor="middle" x="141" y="-175.5" font-family="Helvetica,sans-Serif" font-size="10.00">SignalEasel/bit_stream.hpp</text>
</a>
</g>
</g>
<!-- Node1&#45;&gt;Node5 -->
<g id="edge4" class="edge">
<title>Node1&#45;&gt;Node5</title>
<path fill="none" stroke="midnightblue" d="M268.92,-224.44C243.46,-215.4 203.11,-201.06 174.54,-190.92"/>
<polygon fill="midnightblue" stroke="midnightblue" points="175.57,-187.57 164.97,-187.52 173.22,-194.16 175.57,-187.57"/>
</g>
<!-- Node6 -->
<g id="node6" class="node">
<title>Node6</title>
<g id="a_node6"><a xlink:href="demodulator_8hpp.html" target="_top" xlink:title="Base class for demodulators.">
<polygon fill="none" stroke="black" points="435,-168.5 435,-187.5 593,-187.5 593,-168.5 435,-168.5"/>
<text text-anchor="middle" x="514" y="-175.5" font-family="Helvetica,sans-Serif" font-size="10.00">SignalEasel/demodulator.hpp</text>
</a>
</g>
</g>
<!-- Node1&#45;&gt;Node6 -->
<g id="edge7" class="edge">
<title>Node1&#45;&gt;Node6</title>
<path fill="none" stroke="midnightblue" d="M322.81,-225.72C360.41,-216.53 425.42,-200.64 469.06,-189.98"/>
<polygon fill="midnightblue" stroke="midnightblue" points="469.96,-193.36 478.84,-187.59 468.3,-186.56 469.96,-193.36"/>
</g>
<!-- Node9 -->
<g id="node9" class="node">
<title>Node9</title>
<g id="a_node9"><a xlink:href="modulator_8hpp.html" target="_top" xlink:title="Modulator base class.">
<polygon fill="none" stroke="black" points="271,-168.5 271,-187.5 417,-187.5 417,-168.5 271,-168.5"/>
<text text-anchor="middle" x="344" y="-175.5" font-family="Helvetica,sans-Serif" font-size="10.00">SignalEasel/modulator.hpp</text>
</a>
</g>
</g>
<!-- Node1&#45;&gt;Node9 -->
<g id="edge12" class="edge">
<title>Node1&#45;&gt;Node9</title>
<path fill="none" stroke="midnightblue" d="M301.42,-224.08C308.85,-216.22 319.85,-204.57 328.81,-195.08"/>
<polygon fill="midnightblue" stroke="midnightblue" points="331.41,-197.42 335.74,-187.75 326.32,-192.62 331.41,-197.42"/>
</g>
<!-- Node10 -->
<g id="node10" class="node">
<title>Node10</title>
<g id="a_node10"><a xlink:href="receiver_8hpp.html" target="_top" xlink:title="Base class for receivers. Demodulators that use pulse audio.">
<polygon fill="none" stroke="black" points="611,-168.5 611,-187.5 747,-187.5 747,-168.5 611,-168.5"/>
<text text-anchor="middle" x="679" y="-175.5" font-family="Helvetica,sans-Serif" font-size="10.00">SignalEasel/receiver.hpp</text>
</a>
</g>
</g>
<!-- Node1&#45;&gt;Node10 -->
<g id="edge16" class="edge">
<title>Node1&#45;&gt;Node10</title>
<path fill="none" stroke="midnightblue" d="M322.65,-228.85C383.21,-220.38 522.6,-200.88 607.99,-188.93"/>
<polygon fill="midnightblue" stroke="midnightblue" points="608.71,-192.37 618.12,-187.52 607.74,-185.44 608.71,-192.37"/>
</g>
<!-- Node4 -->
<g id="node4" class="node">
<title>Node4</title>
<g id="a_node4"><a xlink:title=" ">
<polygon fill="none" stroke="#bfbfbf" points="147,-0.5 147,-19.5 197,-19.5 197,-0.5 147,-0.5"/>
<text text-anchor="middle" x="172" y="-7.5" font-family="Helvetica,sans-Serif" font-size="10.00">cstdint</text>
</a>
</g>
</g>
<!-- Node3&#45;&gt;Node4 -->
<g id="edge3" class="edge">
<title>Node3&#45;&gt;Node4</title>
<path fill="none" stroke="midnightblue" d="M88.07,-56.32C103.96,-47.74 128.51,-34.49 146.96,-24.52"/>
<polygon fill="midnightblue" stroke="midnightblue" points="148.84,-27.49 155.97,-19.65 145.51,-21.33 148.84,-27.49"/>
</g>
<!-- Node5&#45;&gt;Node2 -->
<g id="edge6" class="edge">
<title>Node5&#45;&gt;Node2</title>
<path fill="none" stroke="midnightblue" d="M159.06,-168.44C177.57,-159.68 206.58,-145.94 227.86,-135.86"/>
<polygon fill="midnightblue" stroke="midnightblue" points="229.48,-138.96 237.02,-131.52 226.49,-132.63 229.48,-138.96"/>
</g>
<!-- Node5&#45;&gt;Node4 -->
<g id="edge5" class="edge">
<title>Node5&#45;&gt;Node4</title>
<path fill="none" stroke="midnightblue" d="M142.67,-168.08C147.55,-141.95 161.88,-65.21 168.53,-29.58"/>
<polygon fill="midnightblue" stroke="midnightblue" points="172,-30.04 170.4,-19.57 165.12,-28.76 172,-30.04"/>
</g>
<!-- Node6&#45;&gt;Node2 -->
<g id="edge9" class="edge">
<title>Node6&#45;&gt;Node2</title>
<path fill="none" stroke="midnightblue" d="M472.96,-168.44C422.04,-157.83 336.16,-139.92 288.83,-130.05"/>
<polygon fill="midnightblue" stroke="midnightblue" points="289.29,-126.57 278.79,-127.96 287.86,-133.43 289.29,-126.57"/>
</g>
<!-- Node7 -->
<g id="node7" class="node">
<title>Node7</title>
<g id="a_node7"><a xlink:title=" ">
<polygon fill="none" stroke="#bfbfbf" points="492,-56.5 492,-75.5 536,-75.5 536,-56.5 492,-56.5"/>
<text text-anchor="middle" x="514" y="-63.5" font-family="Helvetica,sans-Serif" font-size="10.00">string</text>
</a>
</g>
</g>
<!-- Node6&#45;&gt;Node7 -->
<g id="edge8" class="edge">
<title>Node6&#45;&gt;Node7</title>
<path fill="none" stroke="midnightblue" d="M485.63,-168.49C468.25,-161.65 447.4,-150.13 437,-132 423.35,-108.22 455.29,-89.19 482.1,-78.01"/>
<polygon fill="midnightblue" stroke="midnightblue" points="483.63,-81.17 491.65,-74.25 481.06,-74.66 483.63,-81.17"/>
</g>
<!-- Node8 -->
<g id="node8" class="node">
<title>Node8</title>
<g id="a_node8"><a xlink:href="settings_8hpp.html" target="_top" xlink:title="Settings structures for SignalEasel.">
<polygon fill="none" stroke="black" points="446,-112.5 446,-131.5 582,-131.5 582,-112.5 446,-112.5"/>
<text text-anchor="middle" x="514" y="-119.5" font-family="Helvetica,sans-Serif" font-size="10.00">SignalEasel/settings.hpp</text>
</a>
</g>
</g>
<!-- Node6&#45;&gt;Node8 -->
<g id="edge10" class="edge">
<title>Node6&#45;&gt;Node8</title>
<path fill="none" stroke="midnightblue" d="M514,-168.08C514,-161.01 514,-150.86 514,-141.99"/>
<polygon fill="midnightblue" stroke="midnightblue" points="517.5,-141.75 514,-131.75 510.5,-141.75 517.5,-141.75"/>
</g>
<!-- Node8&#45;&gt;Node7 -->
<g id="edge11" class="edge">
<title>Node8&#45;&gt;Node7</title>
<path fill="none" stroke="midnightblue" d="M514,-112.08C514,-105.01 514,-94.86 514,-85.99"/>
<polygon fill="midnightblue" stroke="midnightblue" points="517.5,-85.75 514,-75.75 510.5,-85.75 517.5,-85.75"/>
</g>
<!-- Node9&#45;&gt;Node2 -->
<g id="edge14" class="edge">
<title>Node9&#45;&gt;Node2</title>
<path fill="none" stroke="midnightblue" d="M329.7,-168.32C315.82,-159.9 294.51,-146.97 278.2,-137.07"/>
<polygon fill="midnightblue" stroke="midnightblue" points="279.63,-133.85 269.26,-131.65 276,-139.83 279.63,-133.85"/>
</g>
<!-- Node9&#45;&gt;Node4 -->
<g id="edge13" class="edge">
<title>Node9&#45;&gt;Node4</title>
<path fill="none" stroke="midnightblue" d="M336.96,-168.27C326.52,-155.48 306.1,-131.11 287,-112 254.72,-79.69 213.94,-45.23 190.63,-26.08"/>
<polygon fill="midnightblue" stroke="midnightblue" points="192.84,-23.37 182.88,-19.75 188.41,-28.79 192.84,-23.37"/>
</g>
<!-- Node9&#45;&gt;Node8 -->
<g id="edge15" class="edge">
<title>Node9&#45;&gt;Node8</title>
<path fill="none" stroke="midnightblue" d="M370.94,-168.44C399.66,-159.32 445.33,-144.81 477.32,-134.65"/>
<polygon fill="midnightblue" stroke="midnightblue" points="478.72,-137.88 487.19,-131.52 476.6,-131.21 478.72,-137.88"/>
</g>
<!-- Node10&#45;&gt;Node8 -->
<g id="edge23" class="edge">
<title>Node10&#45;&gt;Node8</title>
<path fill="none" stroke="midnightblue" d="M652.86,-168.44C624.98,-159.32 580.65,-144.81 549.6,-134.65"/>
<polygon fill="midnightblue" stroke="midnightblue" points="550.62,-131.3 540.02,-131.52 548.44,-137.95 550.62,-131.3"/>
</g>
<!-- Node11 -->
<g id="node11" class="node">
<title>Node11</title>
<g id="a_node11"><a xlink:href="pulse__audio_8hpp.html" target="_top" xlink:title="Reads audio from pulse audio.">
<polygon fill="none" stroke="black" points="600.5,-112.5 600.5,-131.5 755.5,-131.5 755.5,-112.5 600.5,-112.5"/>
<text text-anchor="middle" x="678" y="-119.5" font-family="Helvetica,sans-Serif" font-size="10.00">SignalEasel/pulse_audio.hpp</text>
</a>
</g>
</g>
<!-- Node10&#45;&gt;Node11 -->
<g id="edge17" class="edge">
<title>Node10&#45;&gt;Node11</title>
<path fill="none" stroke="midnightblue" d="M678.83,-168.08C678.7,-161.01 678.52,-150.86 678.35,-141.99"/>
<polygon fill="midnightblue" stroke="midnightblue" points="681.85,-141.68 678.16,-131.75 674.85,-141.81 681.85,-141.68"/>
</g>
<!-- Node11&#45;&gt;Node3 -->
<g id="edge20" class="edge">
<title>Node11&#45;&gt;Node3</title>
<path fill="none" stroke="midnightblue" d="M600.22,-112.89C597.11,-112.58 594.02,-112.29 591,-112 436.93,-97.35 256.93,-82.18 154.51,-73.73"/>
<polygon fill="midnightblue" stroke="midnightblue" points="154.49,-70.22 144.24,-72.88 153.92,-77.19 154.49,-70.22"/>
</g>
<!-- Node11&#45;&gt;Node7 -->
<g id="edge19" class="edge">
<title>Node11&#45;&gt;Node7</title>
<path fill="none" stroke="midnightblue" d="M652.01,-112.44C623.29,-102.99 576.99,-87.74 546.04,-77.55"/>
<polygon fill="midnightblue" stroke="midnightblue" points="546.78,-74.11 536.18,-74.3 544.59,-80.76 546.78,-74.11"/>
</g>
<!-- Node12 -->
<g id="node12" class="node">
<title>Node12</title>
<g id="a_node12"><a xlink:title=" ">
<polygon fill="none" stroke="#bfbfbf" points="579,-56.5 579,-75.5 621,-75.5 621,-56.5 579,-56.5"/>
<text text-anchor="middle" x="600" y="-63.5" font-family="Helvetica,sans-Serif" font-size="10.00">array</text>
</a>
</g>
</g>
<!-- Node11&#45;&gt;Node12 -->
<g id="edge18" class="edge">
<title>Node11&#45;&gt;Node12</title>
<path fill="none" stroke="midnightblue" d="M665.47,-112.32C653.41,-103.98 634.97,-91.21 620.73,-81.35"/>
<polygon fill="midnightblue" stroke="midnightblue" points="622.72,-78.47 612.5,-75.65 618.73,-84.22 622.72,-78.47"/>
</g>
<!-- Node13 -->
<g id="node13" class="node">
<title>Node13</title>
<g id="a_node13"><a xlink:title=" ">
<polygon fill="none" stroke="#bfbfbf" points="639.5,-56.5 639.5,-75.5 716.5,-75.5 716.5,-56.5 639.5,-56.5"/>
<text text-anchor="middle" x="678" y="-63.5" font-family="Helvetica,sans-Serif" font-size="10.00">pulse/error.h</text>
</a>
</g>
</g>
<!-- Node11&#45;&gt;Node13 -->
<g id="edge21" class="edge">
<title>Node11&#45;&gt;Node13</title>
<path fill="none" stroke="midnightblue" d="M678,-112.08C678,-105.01 678,-94.86 678,-85.99"/>
<polygon fill="midnightblue" stroke="midnightblue" points="681.5,-85.75 678,-75.75 674.5,-85.75 681.5,-85.75"/>
</g>
<!-- Node14 -->
<g id="node14" class="node">
<title>Node14</title>
<g id="a_node14"><a xlink:title=" ">
<polygon fill="none" stroke="#bfbfbf" points="735,-56.5 735,-75.5 823,-75.5 823,-56.5 735,-56.5"/>
<text text-anchor="middle" x="779" y="-63.5" font-family="Helvetica,sans-Serif" font-size="10.00">pulse/simple.h</text>
</a>
</g>
</g>
<!-- Node11&#45;&gt;Node14 -->
<g id="edge22" class="edge">
<title>Node11&#45;&gt;Node14</title>
<path fill="none" stroke="midnightblue" d="M694.23,-112.32C710.35,-103.7 735.3,-90.36 753.96,-80.39"/>
<polygon fill="midnightblue" stroke="midnightblue" points="755.64,-83.46 762.81,-75.65 752.34,-77.28 755.64,-83.46"/>
</g>
</g>
</svg>
