<?xml version="1.0" encoding="UTF-8" standalone="no"?>
<!DOCTYPE svg PUBLIC "-//W3C//DTD SVG 1.1//EN"
 "http://www.w3.org/Graphics/SVG/1.1/DTD/svg11.dtd">
<!-- Generated by graphviz version 2.43.0 (0)
 -->
<!-- Title: afsk_modulator.cpp Pages: 1 -->
<svg width="959pt" height="308pt"
 viewBox="0.00 0.00 958.50 308.00" xmlns="http://www.w3.org/2000/svg" xmlns:xlink="http://www.w3.org/1999/xlink">
<g id="graph0" class="graph" transform="scale(1 1) rotate(0) translate(4 304)">
<title>afsk_modulator.cpp</title>
<!-- Node1 -->
<g id="node1" class="node">
<title>Node1</title>
<g id="a_node1"><a xlink:title="The AFSK modulator class implementation.">
<polygon fill="#bfbfbf" stroke="black" points="152,-280.5 152,-299.5 265,-299.5 265,-280.5 152,-280.5"/>
<text text-anchor="middle" x="208.5" y="-287.5" font-family="Helvetica,sans-Serif" font-size="10.00">afsk_modulator.cpp</text>
</a>
</g>
</g>
<!-- Node2 -->
<g id="node2" class="node">
<title>Node2</title>
<g id="a_node2"><a xlink:title=" ">
<polygon fill="none" stroke="#bfbfbf" points="39,-224.5 39,-243.5 86,-243.5 86,-224.5 39,-224.5"/>
<text text-anchor="middle" x="62.5" y="-231.5" font-family="Helvetica,sans-Serif" font-size="10.00">cmath</text>
</a>
</g>
</g>
<!-- Node1&#45;&gt;Node2 -->
<g id="edge1" class="edge">
<title>Node1&#45;&gt;Node2</title>
<path fill="none" stroke="midnightblue" d="M185.37,-280.44C161.02,-271.44 122.49,-257.19 95.08,-247.05"/>
<polygon fill="midnightblue" stroke="midnightblue" points="96.12,-243.7 85.53,-243.52 93.69,-250.27 96.12,-243.7"/>
</g>
<!-- Node3 -->
<g id="node3" class="node">
<title>Node3</title>
<g id="a_node3"><a xlink:title=" ">
<polygon fill="none" stroke="#bfbfbf" points="104.5,-224.5 104.5,-243.5 160.5,-243.5 160.5,-224.5 104.5,-224.5"/>
<text text-anchor="middle" x="132.5" y="-231.5" font-family="Helvetica,sans-Serif" font-size="10.00">iomanip</text>
</a>
</g>
</g>
<!-- Node1&#45;&gt;Node3 -->
<g id="edge2" class="edge">
<title>Node1&#45;&gt;Node3</title>
<path fill="none" stroke="midnightblue" d="M196.29,-280.32C184.72,-272.11 167.12,-259.6 153.34,-249.81"/>
<polygon fill="midnightblue" stroke="midnightblue" points="155.11,-246.77 144.93,-243.83 151.06,-252.48 155.11,-246.77"/>
</g>
<!-- Node4 -->
<g id="node4" class="node">
<title>Node4</title>
<g id="a_node4"><a xlink:title=" ">
<polygon fill="none" stroke="#bfbfbf" points="178.5,-224.5 178.5,-243.5 238.5,-243.5 238.5,-224.5 178.5,-224.5"/>
<text text-anchor="middle" x="208.5" y="-231.5" font-family="Helvetica,sans-Serif" font-size="10.00">iostream</text>
</a>
</g>
</g>
<!-- Node1&#45;&gt;Node4 -->
<g id="edge3" class="edge">
<title>Node1&#45;&gt;Node4</title>
<path fill="none" stroke="midnightblue" d="M208.5,-280.08C208.5,-273.01 208.5,-262.86 208.5,-253.99"/>
<polygon fill="midnightblue" stroke="midnightblue" points="212,-253.75 208.5,-243.75 205,-253.75 212,-253.75"/>
</g>
<!-- Node5 -->
<g id="node5" class="node">
<title>Node5</title>
<g id="a_node5"><a xlink:href="afsk_8hpp.html" target="_top" xlink:title="AFSK related modulation/demodulation.">
<polygon fill="none" stroke="black" points="256.5,-224.5 256.5,-243.5 374.5,-243.5 374.5,-224.5 256.5,-224.5"/>
<text text-anchor="middle" x="315.5" y="-231.5" font-family="Helvetica,sans-Serif" font-size="10.00">SignalEasel/afsk.hpp</text>
</a>
</g>
</g>
<!-- Node1&#45;&gt;Node5 -->
<g id="edge4" class="edge">
<title>Node1&#45;&gt;Node5</title>
<path fill="none" stroke="midnightblue" d="M225.69,-280.32C242.85,-271.66 269.45,-258.24 289.25,-248.25"/>
<polygon fill="midnightblue" stroke="midnightblue" points="291,-251.28 298.35,-243.65 287.85,-245.04 291,-251.28"/>
</g>
<!-- Node19 -->
<g id="node19" class="node">
<title>Node19</title>
<g id="a_node19"><a xlink:href="exception_8hpp.html" target="_top" xlink:title="SignalEasel exceptions.">
<polygon fill="none" stroke="black" points="674,-224.5 674,-243.5 819,-243.5 819,-224.5 674,-224.5"/>
<text text-anchor="middle" x="746.5" y="-231.5" font-family="Helvetica,sans-Serif" font-size="10.00">SignalEasel/exception.hpp</text>
</a>
</g>
</g>
<!-- Node1&#45;&gt;Node19 -->
<g id="edge28" class="edge">
<title>Node1&#45;&gt;Node19</title>
<path fill="none" stroke="midnightblue" d="M265.06,-283.32C360.29,-273.76 553.04,-254.42 663.58,-243.32"/>
<polygon fill="midnightblue" stroke="midnightblue" points="664.09,-246.79 673.69,-242.31 663.39,-239.82 664.09,-246.79"/>
</g>
<!-- Node6 -->
<g id="node6" class="node">
<title>Node6</title>
<g id="a_node6"><a xlink:title=" ">
<polygon fill="none" stroke="#bfbfbf" points="222,-112.5 222,-131.5 269,-131.5 269,-112.5 222,-112.5"/>
<text text-anchor="middle" x="245.5" y="-119.5" font-family="Helvetica,sans-Serif" font-size="10.00">vector</text>
</a>
</g>
</g>
<!-- Node5&#45;&gt;Node6 -->
<g id="edge5" class="edge">
<title>Node5&#45;&gt;Node6</title>
<path fill="none" stroke="midnightblue" d="M283.69,-224.38C265.55,-217.66 244.34,-206.31 233.5,-188 225.02,-173.68 230,-154.72 235.91,-140.98"/>
<polygon fill="midnightblue" stroke="midnightblue" points="239.22,-142.18 240.4,-131.65 232.91,-139.14 239.22,-142.18"/>
</g>
<!-- Node7 -->
<g id="node7" class="node">
<title>Node7</title>
<g id="a_node7"><a xlink:href="constants_8hpp.html" target="_top" xlink:title="Common constants used throughout the library.">
<polygon fill="none" stroke="black" points="334.5,-56.5 334.5,-75.5 478.5,-75.5 478.5,-56.5 334.5,-56.5"/>
<text text-anchor="middle" x="406.5" y="-63.5" font-family="Helvetica,sans-Serif" font-size="10.00">SignalEasel/constants.hpp</text>
</a>
</g>
</g>
<!-- Node5&#45;&gt;Node7 -->
<g id="edge6" class="edge">
<title>Node5&#45;&gt;Node7</title>
<path fill="none" stroke="midnightblue" d="M283.1,-224.45C263.62,-217.68 239.88,-206.25 225.5,-188 204.28,-161.09 191.18,-138.83 212.5,-112 226.73,-94.09 278.06,-82.68 324.35,-75.82"/>
<polygon fill="midnightblue" stroke="midnightblue" points="325.03,-79.26 334.44,-74.39 324.04,-72.33 325.03,-79.26"/>
</g>
<!-- Node9 -->
<g id="node9" class="node">
<title>Node9</title>
<g id="a_node9"><a xlink:href="bit__stream_8hpp.html" target="_top" xlink:title="The bit stream class.">
<polygon fill="none" stroke="black" points="0,-168.5 0,-187.5 149,-187.5 149,-168.5 0,-168.5"/>
<text text-anchor="middle" x="74.5" y="-175.5" font-family="Helvetica,sans-Serif" font-size="10.00">SignalEasel/bit_stream.hpp</text>
</a>
</g>
</g>
<!-- Node5&#45;&gt;Node9 -->
<g id="edge8" class="edge">
<title>Node5&#45;&gt;Node9</title>
<path fill="none" stroke="midnightblue" d="M277.31,-224.44C235.36,-215.04 167.91,-199.93 122.43,-189.74"/>
<polygon fill="midnightblue" stroke="midnightblue" points="123.03,-186.29 112.51,-187.52 121.5,-193.12 123.03,-186.29"/>
</g>
<!-- Node10 -->
<g id="node10" class="node">
<title>Node10</title>
<g id="a_node10"><a xlink:href="demodulator_8hpp.html" target="_top" xlink:title="Base class for demodulators.">
<polygon fill="none" stroke="black" points="406.5,-168.5 406.5,-187.5 564.5,-187.5 564.5,-168.5 406.5,-168.5"/>
<text text-anchor="middle" x="485.5" y="-175.5" font-family="Helvetica,sans-Serif" font-size="10.00">SignalEasel/demodulator.hpp</text>
</a>
</g>
</g>
<!-- Node5&#45;&gt;Node10 -->
<g id="edge11" class="edge">
<title>Node5&#45;&gt;Node10</title>
<path fill="none" stroke="midnightblue" d="M342.44,-224.44C371.16,-215.32 416.83,-200.81 448.82,-190.65"/>
<polygon fill="midnightblue" stroke="midnightblue" points="450.22,-193.88 458.69,-187.52 448.1,-187.21 450.22,-193.88"/>
</g>
<!-- Node13 -->
<g id="node13" class="node">
<title>Node13</title>
<g id="a_node13"><a xlink:href="modulator_8hpp.html" target="_top" xlink:title="Modulator base class.">
<polygon fill="none" stroke="black" points="242.5,-168.5 242.5,-187.5 388.5,-187.5 388.5,-168.5 242.5,-168.5"/>
<text text-anchor="middle" x="315.5" y="-175.5" font-family="Helvetica,sans-Serif" font-size="10.00">SignalEasel/modulator.hpp</text>
</a>
</g>
</g>
<!-- Node5&#45;&gt;Node13 -->
<g id="edge16" class="edge">
<title>Node5&#45;&gt;Node13</title>
<path fill="none" stroke="midnightblue" d="M315.5,-224.08C315.5,-217.01 315.5,-206.86 315.5,-197.99"/>
<polygon fill="midnightblue" stroke="midnightblue" points="319,-197.75 315.5,-187.75 312,-197.75 319,-197.75"/>
</g>
<!-- Node14 -->
<g id="node14" class="node">
<title>Node14</title>
<g id="a_node14"><a xlink:href="receiver_8hpp.html" target="_top" xlink:title="Base class for receivers. Demodulators that use pulse audio.">
<polygon fill="none" stroke="black" points="582.5,-168.5 582.5,-187.5 718.5,-187.5 718.5,-168.5 582.5,-168.5"/>
<text text-anchor="middle" x="650.5" y="-175.5" font-family="Helvetica,sans-Serif" font-size="10.00">SignalEasel/receiver.hpp</text>
</a>
</g>
</g>
<!-- Node5&#45;&gt;Node14 -->
<g id="edge20" class="edge">
<title>Node5&#45;&gt;Node14</title>
<path fill="none" stroke="midnightblue" d="M368.58,-224.44C428,-214.87 524.22,-199.36 587.43,-189.17"/>
<polygon fill="midnightblue" stroke="midnightblue" points="588.35,-192.56 597.67,-187.52 587.24,-185.65 588.35,-192.56"/>
</g>
<!-- Node8 -->
<g id="node8" class="node">
<title>Node8</title>
<g id="a_node8"><a xlink:title=" ">
<polygon fill="none" stroke="#bfbfbf" points="281.5,-0.5 281.5,-19.5 331.5,-19.5 331.5,-0.5 281.5,-0.5"/>
<text text-anchor="middle" x="306.5" y="-7.5" font-family="Helvetica,sans-Serif" font-size="10.00">cstdint</text>
</a>
</g>
</g>
<!-- Node7&#45;&gt;Node8 -->
<g id="edge7" class="edge">
<title>Node7&#45;&gt;Node8</title>
<path fill="none" stroke="midnightblue" d="M390.43,-56.32C374.54,-47.74 349.99,-34.49 331.54,-24.52"/>
<polygon fill="midnightblue" stroke="midnightblue" points="332.99,-21.33 322.53,-19.65 329.66,-27.49 332.99,-21.33"/>
</g>
<!-- Node9&#45;&gt;Node6 -->
<g id="edge10" class="edge">
<title>Node9&#45;&gt;Node6</title>
<path fill="none" stroke="midnightblue" d="M101.6,-168.44C131.51,-159 179.69,-143.78 211.96,-133.59"/>
<polygon fill="midnightblue" stroke="midnightblue" points="213.35,-136.82 221.84,-130.47 211.25,-130.15 213.35,-136.82"/>
</g>
<!-- Node9&#45;&gt;Node8 -->
<g id="edge9" class="edge">
<title>Node9&#45;&gt;Node8</title>
<path fill="none" stroke="midnightblue" d="M86.65,-168.31C124.31,-141.36 239.4,-59.01 286.3,-25.46"/>
<polygon fill="midnightblue" stroke="midnightblue" points="288.38,-28.27 294.47,-19.61 284.3,-22.58 288.38,-28.27"/>
</g>
<!-- Node10&#45;&gt;Node6 -->
<g id="edge13" class="edge">
<title>Node10&#45;&gt;Node6</title>
<path fill="none" stroke="midnightblue" d="M447.47,-168.44C401.09,-158.01 323.43,-140.53 279.14,-130.57"/>
<polygon fill="midnightblue" stroke="midnightblue" points="279.69,-127.11 269.16,-128.32 278.15,-133.93 279.69,-127.11"/>
</g>
<!-- Node11 -->
<g id="node11" class="node">
<title>Node11</title>
<g id="a_node11"><a xlink:title=" ">
<polygon fill="none" stroke="#bfbfbf" points="621.5,-56.5 621.5,-75.5 665.5,-75.5 665.5,-56.5 621.5,-56.5"/>
<text text-anchor="middle" x="643.5" y="-63.5" font-family="Helvetica,sans-Serif" font-size="10.00">string</text>
</a>
</g>
</g>
<!-- Node10&#45;&gt;Node11 -->
<g id="edge12" class="edge">
<title>Node10&#45;&gt;Node11</title>
<path fill="none" stroke="midnightblue" d="M503.98,-168.43C521.25,-160.08 547.47,-146.55 568.5,-132 590.26,-116.94 612.9,-96.56 627.53,-82.66"/>
<polygon fill="midnightblue" stroke="midnightblue" points="630.01,-85.14 634.79,-75.68 625.15,-80.09 630.01,-85.14"/>
</g>
<!-- Node12 -->
<g id="node12" class="node">
<title>Node12</title>
<g id="a_node12"><a xlink:href="settings_8hpp.html" target="_top" xlink:title="Settings structures for SignalEasel.">
<polygon fill="none" stroke="black" points="423.5,-112.5 423.5,-131.5 559.5,-131.5 559.5,-112.5 423.5,-112.5"/>
<text text-anchor="middle" x="491.5" y="-119.5" font-family="Helvetica,sans-Serif" font-size="10.00">SignalEasel/settings.hpp</text>
</a>
</g>
</g>
<!-- Node10&#45;&gt;Node12 -->
<g id="edge14" class="edge">
<title>Node10&#45;&gt;Node12</title>
<path fill="none" stroke="midnightblue" d="M486.49,-168.08C487.29,-160.93 488.43,-150.64 489.42,-141.69"/>
<polygon fill="midnightblue" stroke="midnightblue" points="492.9,-142.08 490.53,-131.75 485.94,-141.3 492.9,-142.08"/>
</g>
<!-- Node12&#45;&gt;Node11 -->
<g id="edge15" class="edge">
<title>Node12&#45;&gt;Node11</title>
<path fill="none" stroke="midnightblue" d="M515.58,-112.44C541.49,-103.24 582.82,-88.56 611.46,-78.38"/>
<polygon fill="midnightblue" stroke="midnightblue" points="612.76,-81.63 621.01,-74.99 610.42,-75.04 612.76,-81.63"/>
</g>
<!-- Node13&#45;&gt;Node6 -->
<g id="edge18" class="edge">
<title>Node13&#45;&gt;Node6</title>
<path fill="none" stroke="midnightblue" d="M304.25,-168.32C293.7,-160.18 277.7,-147.84 265.06,-138.09"/>
<polygon fill="midnightblue" stroke="midnightblue" points="267.01,-135.17 256.95,-131.83 262.73,-140.71 267.01,-135.17"/>
</g>
<!-- Node13&#45;&gt;Node8 -->
<g id="edge17" class="edge">
<title>Node13&#45;&gt;Node8</title>
<path fill="none" stroke="midnightblue" d="M315.02,-168.08C313.6,-141.95 309.44,-65.21 307.51,-29.58"/>
<polygon fill="midnightblue" stroke="midnightblue" points="311,-29.36 306.96,-19.57 304.01,-29.74 311,-29.36"/>
</g>
<!-- Node13&#45;&gt;Node12 -->
<g id="edge19" class="edge">
<title>Node13&#45;&gt;Node12</title>
<path fill="none" stroke="midnightblue" d="M343.39,-168.44C373.25,-159.28 420.81,-144.69 453.96,-134.52"/>
<polygon fill="midnightblue" stroke="midnightblue" points="455.21,-137.8 463.74,-131.52 453.16,-131.1 455.21,-137.8"/>
</g>
<!-- Node14&#45;&gt;Node12 -->
<g id="edge27" class="edge">
<title>Node14&#45;&gt;Node12</title>
<path fill="none" stroke="midnightblue" d="M625.31,-168.44C598.56,-159.36 556.1,-144.94 526.19,-134.78"/>
<polygon fill="midnightblue" stroke="midnightblue" points="527.17,-131.42 516.58,-131.52 524.92,-138.05 527.17,-131.42"/>
</g>
<!-- Node15 -->
<g id="node15" class="node">
<title>Node15</title>
<g id="a_node15"><a xlink:href="pulse__audio_8hpp.html" target="_top" xlink:title="Reads audio from pulse audio.">
<polygon fill="none" stroke="black" points="769,-112.5 769,-131.5 924,-131.5 924,-112.5 769,-112.5"/>
<text text-anchor="middle" x="846.5" y="-119.5" font-family="Helvetica,sans-Serif" font-size="10.00">SignalEasel/pulse_audio.hpp</text>
</a>
</g>
</g>
<!-- Node14&#45;&gt;Node15 -->
<g id="edge21" class="edge">
<title>Node14&#45;&gt;Node15</title>
<path fill="none" stroke="midnightblue" d="M681.56,-168.44C715.1,-159.2 768.7,-144.44 805.64,-134.26"/>
<polygon fill="midnightblue" stroke="midnightblue" points="806.88,-137.55 815.59,-131.52 805.02,-130.8 806.88,-137.55"/>
</g>
<!-- Node15&#45;&gt;Node7 -->
<g id="edge24" class="edge">
<title>Node15&#45;&gt;Node7</title>
<path fill="none" stroke="midnightblue" d="M776.78,-112.44C697.69,-102.74 568.96,-86.94 486.03,-76.76"/>
<polygon fill="midnightblue" stroke="midnightblue" points="486.25,-73.26 475.89,-75.52 485.39,-80.21 486.25,-73.26"/>
</g>
<!-- Node15&#45;&gt;Node11 -->
<g id="edge23" class="edge">
<title>Node15&#45;&gt;Node11</title>
<path fill="none" stroke="midnightblue" d="M814.33,-112.44C776.32,-102.33 713.45,-85.61 675.51,-75.51"/>
<polygon fill="midnightblue" stroke="midnightblue" points="676.07,-72.04 665.51,-72.85 674.27,-78.81 676.07,-72.04"/>
</g>
<!-- Node16 -->
<g id="node16" class="node">
<title>Node16</title>
<g id="a_node16"><a xlink:title=" ">
<polygon fill="none" stroke="#bfbfbf" points="908.5,-56.5 908.5,-75.5 950.5,-75.5 950.5,-56.5 908.5,-56.5"/>
<text text-anchor="middle" x="929.5" y="-63.5" font-family="Helvetica,sans-Serif" font-size="10.00">array</text>
</a>
</g>
</g>
<!-- Node15&#45;&gt;Node16 -->
<g id="edge22" class="edge">
<title>Node15&#45;&gt;Node16</title>
<path fill="none" stroke="midnightblue" d="M859.84,-112.32C872.66,-103.98 892.28,-91.21 907.44,-81.35"/>
<polygon fill="midnightblue" stroke="midnightblue" points="909.72,-84.04 916.2,-75.65 905.91,-78.17 909.72,-84.04"/>
</g>
<!-- Node17 -->
<g id="node17" class="node">
<title>Node17</title>
<g id="a_node17"><a xlink:title=" ">
<polygon fill="none" stroke="#bfbfbf" points="707,-56.5 707,-75.5 784,-75.5 784,-56.5 707,-56.5"/>
<text text-anchor="middle" x="745.5" y="-63.5" font-family="Helvetica,sans-Serif" font-size="10.00">pulse/error.h</text>
</a>
</g>
</g>
<!-- Node15&#45;&gt;Node17 -->
<g id="edge25" class="edge">
<title>Node15&#45;&gt;Node17</title>
<path fill="none" stroke="midnightblue" d="M830.27,-112.32C814.15,-103.7 789.2,-90.36 770.54,-80.39"/>
<polygon fill="midnightblue" stroke="midnightblue" points="772.16,-77.28 761.69,-75.65 768.86,-83.46 772.16,-77.28"/>
</g>
<!-- Node18 -->
<g id="node18" class="node">
<title>Node18</title>
<g id="a_node18"><a xlink:title=" ">
<polygon fill="none" stroke="#bfbfbf" points="802.5,-56.5 802.5,-75.5 890.5,-75.5 890.5,-56.5 802.5,-56.5"/>
<text text-anchor="middle" x="846.5" y="-63.5" font-family="Helvetica,sans-Serif" font-size="10.00">pulse/simple.h</text>
</a>
</g>
</g>
<!-- Node15&#45;&gt;Node18 -->
<g id="edge26" class="edge">
<title>Node15&#45;&gt;Node18</title>
<path fill="none" stroke="midnightblue" d="M846.5,-112.08C846.5,-105.01 846.5,-94.86 846.5,-85.99"/>
<polygon fill="midnightblue" stroke="midnightblue" points="850,-85.75 846.5,-75.75 843,-85.75 850,-85.75"/>
</g>
<!-- Node19&#45;&gt;Node11 -->
<g id="edge30" class="edge">
<title>Node19&#45;&gt;Node11</title>
<path fill="none" stroke="midnightblue" d="M745.1,-224.15C742.8,-211.23 737.44,-186.68 727.5,-168 709.5,-134.18 678.95,-101.25 660.07,-82.61"/>
<polygon fill="midnightblue" stroke="midnightblue" points="662.39,-79.98 652.77,-75.53 657.52,-85 662.39,-79.98"/>
</g>
<!-- Node20 -->
<g id="node20" class="node">
<title>Node20</title>
<g id="a_node20"><a xlink:title=" ">
<polygon fill="none" stroke="#bfbfbf" points="775,-168.5 775,-187.5 840,-187.5 840,-168.5 775,-168.5"/>
<text text-anchor="middle" x="807.5" y="-175.5" font-family="Helvetica,sans-Serif" font-size="10.00">exception</text>
</a>
</g>
</g>
<!-- Node19&#45;&gt;Node20 -->
<g id="edge29" class="edge">
<title>Node19&#45;&gt;Node20</title>
<path fill="none" stroke="midnightblue" d="M756.3,-224.32C765.32,-216.34 778.91,-204.31 789.82,-194.65"/>
<polygon fill="midnightblue" stroke="midnightblue" points="792.35,-197.08 797.52,-187.83 787.71,-191.84 792.35,-197.08"/>
</g>
</g>
</svg>
