<?xml version="1.0" encoding="UTF-8" standalone="no"?>
<!DOCTYPE svg PUBLIC "-//W3C//DTD SVG 1.1//EN"
 "http://www.w3.org/Graphics/SVG/1.1/DTD/svg11.dtd">
<!-- Generated by graphviz version 2.43.0 (0)
 -->
<!-- Title: afsk_demodulator.cpp Pages: 1 -->
<svg width="1037pt" height="308pt"
 viewBox="0.00 0.00 1037.00 308.00" xmlns="http://www.w3.org/2000/svg" xmlns:xlink="http://www.w3.org/1999/xlink">
<g id="graph0" class="graph" transform="scale(1 1) rotate(0) translate(4 304)">
<title>afsk_demodulator.cpp</title>
<!-- Node1 -->
<g id="node1" class="node">
<title>Node1</title>
<g id="a_node1"><a xlink:title="The AFSK demodulator class implementation.">
<polygon fill="#bfbfbf" stroke="black" points="373.5,-280.5 373.5,-299.5 498.5,-299.5 498.5,-280.5 373.5,-280.5"/>
<text text-anchor="middle" x="436" y="-287.5" font-family="Helvetica,sans-Serif" font-size="10.00">afsk_demodulator.cpp</text>
</a>
</g>
</g>
<!-- Node2 -->
<g id="node2" class="node">
<title>Node2</title>
<g id="a_node2"><a xlink:title=" ">
<polygon fill="none" stroke="#bfbfbf" points="185,-224.5 185,-243.5 249,-243.5 249,-224.5 185,-224.5"/>
<text text-anchor="middle" x="217" y="-231.5" font-family="Helvetica,sans-Serif" font-size="10.00">algorithm</text>
</a>
</g>
</g>
<!-- Node1&#45;&gt;Node2 -->
<g id="edge1" class="edge">
<title>Node1&#45;&gt;Node2</title>
<path fill="none" stroke="midnightblue" d="M401.3,-280.44C362.64,-270.91 300.14,-255.5 258.81,-245.31"/>
<polygon fill="midnightblue" stroke="midnightblue" points="259.59,-241.9 249.05,-242.9 257.92,-248.69 259.59,-241.9"/>
</g>
<!-- Node3 -->
<g id="node3" class="node">
<title>Node3</title>
<g id="a_node3"><a xlink:title=" ">
<polygon fill="none" stroke="#bfbfbf" points="267.5,-224.5 267.5,-243.5 314.5,-243.5 314.5,-224.5 267.5,-224.5"/>
<text text-anchor="middle" x="291" y="-231.5" font-family="Helvetica,sans-Serif" font-size="10.00">cmath</text>
</a>
</g>
</g>
<!-- Node1&#45;&gt;Node3 -->
<g id="edge2" class="edge">
<title>Node1&#45;&gt;Node3</title>
<path fill="none" stroke="midnightblue" d="M413.02,-280.44C388.84,-271.44 350.58,-257.19 323.35,-247.05"/>
<polygon fill="midnightblue" stroke="midnightblue" points="324.46,-243.73 313.87,-243.52 322.02,-250.29 324.46,-243.73"/>
</g>
<!-- Node4 -->
<g id="node4" class="node">
<title>Node4</title>
<g id="a_node4"><a xlink:title=" ">
<polygon fill="none" stroke="#bfbfbf" points="332.5,-224.5 332.5,-243.5 387.5,-243.5 387.5,-224.5 332.5,-224.5"/>
<text text-anchor="middle" x="360" y="-231.5" font-family="Helvetica,sans-Serif" font-size="10.00">fstream</text>
</a>
</g>
</g>
<!-- Node1&#45;&gt;Node4 -->
<g id="edge3" class="edge">
<title>Node1&#45;&gt;Node4</title>
<path fill="none" stroke="midnightblue" d="M423.79,-280.32C412.22,-272.11 394.62,-259.6 380.84,-249.81"/>
<polygon fill="midnightblue" stroke="midnightblue" points="382.61,-246.77 372.43,-243.83 378.56,-252.48 382.61,-246.77"/>
</g>
<!-- Node5 -->
<g id="node5" class="node">
<title>Node5</title>
<g id="a_node5"><a xlink:title=" ">
<polygon fill="none" stroke="#bfbfbf" points="406,-224.5 406,-243.5 466,-243.5 466,-224.5 406,-224.5"/>
<text text-anchor="middle" x="436" y="-231.5" font-family="Helvetica,sans-Serif" font-size="10.00">iostream</text>
</a>
</g>
</g>
<!-- Node1&#45;&gt;Node5 -->
<g id="edge4" class="edge">
<title>Node1&#45;&gt;Node5</title>
<path fill="none" stroke="midnightblue" d="M436,-280.08C436,-273.01 436,-262.86 436,-253.99"/>
<polygon fill="midnightblue" stroke="midnightblue" points="439.5,-253.75 436,-243.75 432.5,-253.75 439.5,-253.75"/>
</g>
<!-- Node6 -->
<g id="node6" class="node">
<title>Node6</title>
<g id="a_node6"><a xlink:href="afsk_8hpp.html" target="_top" xlink:title="AFSK related modulation/demodulation.">
<polygon fill="none" stroke="black" points="484,-224.5 484,-243.5 602,-243.5 602,-224.5 484,-224.5"/>
<text text-anchor="middle" x="543" y="-231.5" font-family="Helvetica,sans-Serif" font-size="10.00">SignalEasel/afsk.hpp</text>
</a>
</g>
</g>
<!-- Node1&#45;&gt;Node6 -->
<g id="edge5" class="edge">
<title>Node1&#45;&gt;Node6</title>
<path fill="none" stroke="midnightblue" d="M453.19,-280.32C470.35,-271.66 496.95,-258.24 516.75,-248.25"/>
<polygon fill="midnightblue" stroke="midnightblue" points="518.5,-251.28 525.85,-243.65 515.35,-245.04 518.5,-251.28"/>
</g>
<!-- Node20 -->
<g id="node20" class="node">
<title>Node20</title>
<g id="a_node20"><a xlink:href="exception_8hpp.html" target="_top" xlink:title="SignalEasel exceptions.">
<polygon fill="none" stroke="black" points="728.5,-224.5 728.5,-243.5 873.5,-243.5 873.5,-224.5 728.5,-224.5"/>
<text text-anchor="middle" x="801" y="-231.5" font-family="Helvetica,sans-Serif" font-size="10.00">SignalEasel/exception.hpp</text>
</a>
</g>
</g>
<!-- Node1&#45;&gt;Node20 -->
<g id="edge29" class="edge">
<title>Node1&#45;&gt;Node20</title>
<path fill="none" stroke="midnightblue" d="M493.84,-280.44C558.84,-270.83 664.28,-255.23 733.13,-245.04"/>
<polygon fill="midnightblue" stroke="midnightblue" points="734.06,-248.44 743.44,-243.52 733.03,-241.52 734.06,-248.44"/>
</g>
<!-- Node22 -->
<g id="node22" class="node">
<title>Node22</title>
<g id="a_node22"><a xlink:href="band__pass__filter_8hpp.html" target="_top" xlink:title="Band&#45;pass filter implementation.">
<polygon fill="none" stroke="black" points="913,-168.5 913,-187.5 1029,-187.5 1029,-168.5 913,-168.5"/>
<text text-anchor="middle" x="971" y="-175.5" font-family="Helvetica,sans-Serif" font-size="10.00">band_pass_filter.hpp</text>
</a>
</g>
</g>
<!-- Node1&#45;&gt;Node22 -->
<g id="edge32" class="edge">
<title>Node1&#45;&gt;Node22</title>
<path fill="none" stroke="midnightblue" d="M498.8,-286.72C604.62,-282.2 813.59,-270.19 882,-244 910.61,-233.05 938.24,-210.37 954.93,-194.92"/>
<polygon fill="midnightblue" stroke="midnightblue" points="957.79,-197.03 962.61,-187.6 952.96,-191.97 957.79,-197.03"/>
</g>
<!-- Node7 -->
<g id="node7" class="node">
<title>Node7</title>
<g id="a_node7"><a xlink:title=" ">
<polygon fill="none" stroke="#bfbfbf" points="573.5,-112.5 573.5,-131.5 620.5,-131.5 620.5,-112.5 573.5,-112.5"/>
<text text-anchor="middle" x="597" y="-119.5" font-family="Helvetica,sans-Serif" font-size="10.00">vector</text>
</a>
</g>
</g>
<!-- Node6&#45;&gt;Node7 -->
<g id="edge6" class="edge">
<title>Node6&#45;&gt;Node7</title>
<path fill="none" stroke="midnightblue" d="M551.33,-224.39C559.22,-215.8 570.88,-201.92 578,-188 585.53,-173.28 590.52,-155.12 593.49,-141.74"/>
<polygon fill="midnightblue" stroke="midnightblue" points="596.94,-142.3 595.52,-131.8 590.09,-140.9 596.94,-142.3"/>
</g>
<!-- Node8 -->
<g id="node8" class="node">
<title>Node8</title>
<g id="a_node8"><a xlink:href="constants_8hpp.html" target="_top" xlink:title="Common constants used throughout the library.">
<polygon fill="none" stroke="black" points="0,-56.5 0,-75.5 144,-75.5 144,-56.5 0,-56.5"/>
<text text-anchor="middle" x="72" y="-63.5" font-family="Helvetica,sans-Serif" font-size="10.00">SignalEasel/constants.hpp</text>
</a>
</g>
</g>
<!-- Node6&#45;&gt;Node8 -->
<g id="edge7" class="edge">
<title>Node6&#45;&gt;Node8</title>
<path fill="none" stroke="midnightblue" d="M483.68,-225.01C480.75,-224.66 477.84,-224.32 475,-224 431.64,-219.14 114.96,-218.74 84,-188 57,-161.19 62.07,-112.15 67.44,-85.47"/>
<polygon fill="midnightblue" stroke="midnightblue" points="70.89,-86.06 69.66,-75.54 64.06,-84.53 70.89,-86.06"/>
</g>
<!-- Node10 -->
<g id="node10" class="node">
<title>Node10</title>
<g id="a_node10"><a xlink:href="bit__stream_8hpp.html" target="_top" xlink:title="The bit stream class.">
<polygon fill="none" stroke="black" points="624.5,-168.5 624.5,-187.5 773.5,-187.5 773.5,-168.5 624.5,-168.5"/>
<text text-anchor="middle" x="699" y="-175.5" font-family="Helvetica,sans-Serif" font-size="10.00">SignalEasel/bit_stream.hpp</text>
</a>
</g>
</g>
<!-- Node6&#45;&gt;Node10 -->
<g id="edge9" class="edge">
<title>Node6&#45;&gt;Node10</title>
<path fill="none" stroke="midnightblue" d="M567.72,-224.44C593.85,-215.4 635.26,-201.06 664.58,-190.92"/>
<polygon fill="midnightblue" stroke="midnightblue" points="666.09,-194.1 674.4,-187.52 663.8,-187.48 666.09,-194.1"/>
</g>
<!-- Node11 -->
<g id="node11" class="node">
<title>Node11</title>
<g id="a_node11"><a xlink:href="demodulator_8hpp.html" target="_top" xlink:title="Base class for demodulators.">
<polygon fill="none" stroke="black" points="411,-168.5 411,-187.5 569,-187.5 569,-168.5 411,-168.5"/>
<text text-anchor="middle" x="490" y="-175.5" font-family="Helvetica,sans-Serif" font-size="10.00">SignalEasel/demodulator.hpp</text>
</a>
</g>
</g>
<!-- Node6&#45;&gt;Node11 -->
<g id="edge12" class="edge">
<title>Node6&#45;&gt;Node11</title>
<path fill="none" stroke="midnightblue" d="M534.25,-224.08C526.53,-216.22 515.1,-204.57 505.78,-195.08"/>
<polygon fill="midnightblue" stroke="midnightblue" points="508.09,-192.44 498.59,-187.75 503.1,-197.34 508.09,-192.44"/>
</g>
<!-- Node14 -->
<g id="node14" class="node">
<title>Node14</title>
<g id="a_node14"><a xlink:href="modulator_8hpp.html" target="_top" xlink:title="Modulator base class.">
<polygon fill="none" stroke="black" points="247,-168.5 247,-187.5 393,-187.5 393,-168.5 247,-168.5"/>
<text text-anchor="middle" x="320" y="-175.5" font-family="Helvetica,sans-Serif" font-size="10.00">SignalEasel/modulator.hpp</text>
</a>
</g>
</g>
<!-- Node6&#45;&gt;Node14 -->
<g id="edge17" class="edge">
<title>Node6&#45;&gt;Node14</title>
<path fill="none" stroke="midnightblue" d="M507.66,-224.44C469.09,-215.1 407.22,-200.12 365.15,-189.93"/>
<polygon fill="midnightblue" stroke="midnightblue" points="365.71,-186.47 355.17,-187.52 364.07,-193.27 365.71,-186.47"/>
</g>
<!-- Node15 -->
<g id="node15" class="node">
<title>Node15</title>
<g id="a_node15"><a xlink:href="receiver_8hpp.html" target="_top" xlink:title="Base class for receivers. Demodulators that use pulse audio.">
<polygon fill="none" stroke="black" points="93,-168.5 93,-187.5 229,-187.5 229,-168.5 93,-168.5"/>
<text text-anchor="middle" x="161" y="-175.5" font-family="Helvetica,sans-Serif" font-size="10.00">SignalEasel/receiver.hpp</text>
</a>
</g>
</g>
<!-- Node6&#45;&gt;Node15 -->
<g id="edge21" class="edge">
<title>Node6&#45;&gt;Node15</title>
<path fill="none" stroke="midnightblue" d="M483.73,-224.62C415.58,-214.99 303.8,-199.19 231.31,-188.94"/>
<polygon fill="midnightblue" stroke="midnightblue" points="231.75,-185.47 221.35,-187.53 230.77,-192.4 231.75,-185.47"/>
</g>
<!-- Node9 -->
<g id="node9" class="node">
<title>Node9</title>
<g id="a_node9"><a xlink:title=" ">
<polygon fill="none" stroke="#bfbfbf" points="398,-0.5 398,-19.5 448,-19.5 448,-0.5 398,-0.5"/>
<text text-anchor="middle" x="423" y="-7.5" font-family="Helvetica,sans-Serif" font-size="10.00">cstdint</text>
</a>
</g>
</g>
<!-- Node8&#45;&gt;Node9 -->
<g id="edge8" class="edge">
<title>Node8&#45;&gt;Node9</title>
<path fill="none" stroke="midnightblue" d="M127.62,-56.44C200.71,-45.2 326.95,-25.78 387.97,-16.39"/>
<polygon fill="midnightblue" stroke="midnightblue" points="388.53,-19.84 397.88,-14.86 387.46,-12.93 388.53,-19.84"/>
</g>
<!-- Node10&#45;&gt;Node7 -->
<g id="edge11" class="edge">
<title>Node10&#45;&gt;Node7</title>
<path fill="none" stroke="midnightblue" d="M682.61,-168.32C666.33,-159.7 641.13,-146.36 622.28,-136.39"/>
<polygon fill="midnightblue" stroke="midnightblue" points="623.82,-133.24 613.35,-131.65 620.55,-139.43 623.82,-133.24"/>
</g>
<!-- Node10&#45;&gt;Node9 -->
<g id="edge10" class="edge">
<title>Node10&#45;&gt;Node9</title>
<path fill="none" stroke="midnightblue" d="M690.81,-168.49C678.16,-155.55 652.84,-130.51 629,-112 592.68,-83.8 583.07,-76.69 542,-56 514.73,-42.26 482.21,-30.24 458.06,-22.08"/>
<polygon fill="midnightblue" stroke="midnightblue" points="458.86,-18.66 448.26,-18.83 456.65,-25.3 458.86,-18.66"/>
</g>
<!-- Node11&#45;&gt;Node7 -->
<g id="edge14" class="edge">
<title>Node11&#45;&gt;Node7</title>
<path fill="none" stroke="midnightblue" d="M507.19,-168.32C524.35,-159.66 550.95,-146.24 570.75,-136.25"/>
<polygon fill="midnightblue" stroke="midnightblue" points="572.5,-139.28 579.85,-131.65 569.35,-133.04 572.5,-139.28"/>
</g>
<!-- Node12 -->
<g id="node12" class="node">
<title>Node12</title>
<g id="a_node12"><a xlink:title=" ">
<polygon fill="none" stroke="#bfbfbf" points="489,-56.5 489,-75.5 533,-75.5 533,-56.5 489,-56.5"/>
<text text-anchor="middle" x="511" y="-63.5" font-family="Helvetica,sans-Serif" font-size="10.00">string</text>
</a>
</g>
</g>
<!-- Node11&#45;&gt;Node12 -->
<g id="edge13" class="edge">
<title>Node11&#45;&gt;Node12</title>
<path fill="none" stroke="midnightblue" d="M497.67,-168.46C504.78,-159.93 514.85,-146.09 519,-132 523.51,-116.66 520.66,-98.56 517.16,-85.36"/>
<polygon fill="midnightblue" stroke="midnightblue" points="520.46,-84.16 514.22,-75.59 513.75,-86.18 520.46,-84.16"/>
</g>
<!-- Node13 -->
<g id="node13" class="node">
<title>Node13</title>
<g id="a_node13"><a xlink:href="settings_8hpp.html" target="_top" xlink:title="Settings structures for SignalEasel.">
<polygon fill="none" stroke="black" points="374,-112.5 374,-131.5 510,-131.5 510,-112.5 374,-112.5"/>
<text text-anchor="middle" x="442" y="-119.5" font-family="Helvetica,sans-Serif" font-size="10.00">SignalEasel/settings.hpp</text>
</a>
</g>
</g>
<!-- Node11&#45;&gt;Node13 -->
<g id="edge15" class="edge">
<title>Node11&#45;&gt;Node13</title>
<path fill="none" stroke="midnightblue" d="M482.07,-168.08C475.15,-160.3 464.93,-148.8 456.55,-139.37"/>
<polygon fill="midnightblue" stroke="midnightblue" points="459.04,-136.9 449.78,-131.75 453.81,-141.55 459.04,-136.9"/>
</g>
<!-- Node13&#45;&gt;Node12 -->
<g id="edge16" class="edge">
<title>Node13&#45;&gt;Node12</title>
<path fill="none" stroke="midnightblue" d="M453.09,-112.32C463.49,-104.18 479.26,-91.84 491.72,-82.09"/>
<polygon fill="midnightblue" stroke="midnightblue" points="493.99,-84.75 499.71,-75.83 489.68,-79.24 493.99,-84.75"/>
</g>
<!-- Node14&#45;&gt;Node7 -->
<g id="edge19" class="edge">
<title>Node14&#45;&gt;Node7</title>
<path fill="none" stroke="midnightblue" d="M363.89,-168.44C419.29,-157.64 513.38,-139.3 563.4,-129.55"/>
<polygon fill="midnightblue" stroke="midnightblue" points="564.23,-132.95 573.38,-127.6 562.89,-126.08 564.23,-132.95"/>
</g>
<!-- Node14&#45;&gt;Node9 -->
<g id="edge18" class="edge">
<title>Node14&#45;&gt;Node9</title>
<path fill="none" stroke="midnightblue" d="M248.96,-168.49C226.74,-162.1 204.53,-151.05 191,-132 171.44,-104.46 169.51,-82.06 191,-56 215.51,-26.28 328.93,-15.95 387.61,-12.55"/>
<polygon fill="midnightblue" stroke="midnightblue" points="388.09,-16.03 397.89,-11.99 387.72,-9.04 388.09,-16.03"/>
</g>
<!-- Node14&#45;&gt;Node13 -->
<g id="edge20" class="edge">
<title>Node14&#45;&gt;Node13</title>
<path fill="none" stroke="midnightblue" d="M339.33,-168.44C359.32,-159.6 390.74,-145.69 413.56,-135.59"/>
<polygon fill="midnightblue" stroke="midnightblue" points="415.03,-138.76 422.76,-131.52 412.2,-132.36 415.03,-138.76"/>
</g>
<!-- Node15&#45;&gt;Node13 -->
<g id="edge28" class="edge">
<title>Node15&#45;&gt;Node13</title>
<path fill="none" stroke="midnightblue" d="M205.53,-168.44C254.96,-158.94 334.75,-143.61 387.78,-133.42"/>
<polygon fill="midnightblue" stroke="midnightblue" points="388.52,-136.84 397.68,-131.52 387.2,-129.97 388.52,-136.84"/>
</g>
<!-- Node16 -->
<g id="node16" class="node">
<title>Node16</title>
<g id="a_node16"><a xlink:href="pulse__audio_8hpp.html" target="_top" xlink:title="Reads audio from pulse audio.">
<polygon fill="none" stroke="black" points="200.5,-112.5 200.5,-131.5 355.5,-131.5 355.5,-112.5 200.5,-112.5"/>
<text text-anchor="middle" x="278" y="-119.5" font-family="Helvetica,sans-Serif" font-size="10.00">SignalEasel/pulse_audio.hpp</text>
</a>
</g>
</g>
<!-- Node15&#45;&gt;Node16 -->
<g id="edge22" class="edge">
<title>Node15&#45;&gt;Node16</title>
<path fill="none" stroke="midnightblue" d="M179.54,-168.44C198.62,-159.64 228.57,-145.81 250.44,-135.72"/>
<polygon fill="midnightblue" stroke="midnightblue" points="251.93,-138.88 259.55,-131.52 249,-132.53 251.93,-138.88"/>
</g>
<!-- Node16&#45;&gt;Node8 -->
<g id="edge25" class="edge">
<title>Node16&#45;&gt;Node8</title>
<path fill="none" stroke="midnightblue" d="M245.36,-112.44C209.95,-103.16 153.29,-88.31 114.45,-78.13"/>
<polygon fill="midnightblue" stroke="midnightblue" points="115.05,-74.67 104.49,-75.52 113.27,-81.44 115.05,-74.67"/>
</g>
<!-- Node16&#45;&gt;Node12 -->
<g id="edge24" class="edge">
<title>Node16&#45;&gt;Node12</title>
<path fill="none" stroke="midnightblue" d="M314.92,-112.44C360.2,-101.95 436.22,-84.33 479.08,-74.4"/>
<polygon fill="midnightblue" stroke="midnightblue" points="480.03,-77.77 488.98,-72.1 478.44,-70.95 480.03,-77.77"/>
</g>
<!-- Node17 -->
<g id="node17" class="node">
<title>Node17</title>
<g id="a_node17"><a xlink:title=" ">
<polygon fill="none" stroke="#bfbfbf" points="200,-56.5 200,-75.5 242,-75.5 242,-56.5 200,-56.5"/>
<text text-anchor="middle" x="221" y="-63.5" font-family="Helvetica,sans-Serif" font-size="10.00">array</text>
</a>
</g>
</g>
<!-- Node16&#45;&gt;Node17 -->
<g id="edge23" class="edge">
<title>Node16&#45;&gt;Node17</title>
<path fill="none" stroke="midnightblue" d="M268.84,-112.32C260.5,-104.42 247.97,-92.55 237.82,-82.94"/>
<polygon fill="midnightblue" stroke="midnightblue" points="239.99,-80.17 230.32,-75.83 235.18,-85.25 239.99,-80.17"/>
</g>
<!-- Node18 -->
<g id="node18" class="node">
<title>Node18</title>
<g id="a_node18"><a xlink:title=" ">
<polygon fill="none" stroke="#bfbfbf" points="260.5,-56.5 260.5,-75.5 337.5,-75.5 337.5,-56.5 260.5,-56.5"/>
<text text-anchor="middle" x="299" y="-63.5" font-family="Helvetica,sans-Serif" font-size="10.00">pulse/error.h</text>
</a>
</g>
</g>
<!-- Node16&#45;&gt;Node18 -->
<g id="edge26" class="edge">
<title>Node16&#45;&gt;Node18</title>
<path fill="none" stroke="midnightblue" d="M281.47,-112.08C284.31,-104.77 288.43,-94.18 291.96,-85.1"/>
<polygon fill="midnightblue" stroke="midnightblue" points="295.23,-86.34 295.6,-75.75 288.71,-83.8 295.23,-86.34"/>
</g>
<!-- Node19 -->
<g id="node19" class="node">
<title>Node19</title>
<g id="a_node19"><a xlink:title=" ">
<polygon fill="none" stroke="#bfbfbf" points="356,-56.5 356,-75.5 444,-75.5 444,-56.5 356,-56.5"/>
<text text-anchor="middle" x="400" y="-63.5" font-family="Helvetica,sans-Serif" font-size="10.00">pulse/simple.h</text>
</a>
</g>
</g>
<!-- Node16&#45;&gt;Node19 -->
<g id="edge27" class="edge">
<title>Node16&#45;&gt;Node19</title>
<path fill="none" stroke="midnightblue" d="M297.33,-112.44C317.32,-103.6 348.74,-89.69 371.56,-79.59"/>
<polygon fill="midnightblue" stroke="midnightblue" points="373.03,-82.76 380.76,-75.52 370.2,-76.36 373.03,-82.76"/>
</g>
<!-- Node20&#45;&gt;Node12 -->
<g id="edge31" class="edge">
<title>Node20&#45;&gt;Node12</title>
<path fill="none" stroke="midnightblue" d="M800.83,-224.23C800.1,-210.49 796.73,-183.84 782,-168 717.27,-98.4 600.09,-76.51 543.42,-69.82"/>
<polygon fill="midnightblue" stroke="midnightblue" points="543.57,-66.32 533.25,-68.71 542.81,-73.28 543.57,-66.32"/>
</g>
<!-- Node21 -->
<g id="node21" class="node">
<title>Node21</title>
<g id="a_node21"><a xlink:title=" ">
<polygon fill="none" stroke="#bfbfbf" points="829.5,-168.5 829.5,-187.5 894.5,-187.5 894.5,-168.5 829.5,-168.5"/>
<text text-anchor="middle" x="862" y="-175.5" font-family="Helvetica,sans-Serif" font-size="10.00">exception</text>
</a>
</g>
</g>
<!-- Node20&#45;&gt;Node21 -->
<g id="edge30" class="edge">
<title>Node20&#45;&gt;Node21</title>
<path fill="none" stroke="midnightblue" d="M810.8,-224.32C819.82,-216.34 833.41,-204.31 844.32,-194.65"/>
<polygon fill="midnightblue" stroke="midnightblue" points="846.85,-197.08 852.02,-187.83 842.21,-191.84 846.85,-197.08"/>
</g>
<!-- Node22&#45;&gt;Node7 -->
<g id="edge34" class="edge">
<title>Node22&#45;&gt;Node7</title>
<path fill="none" stroke="midnightblue" d="M912.97,-168.62C833.87,-157.2 694.74,-137.11 630.83,-127.88"/>
<polygon fill="midnightblue" stroke="midnightblue" points="631.28,-124.41 620.88,-126.45 630.28,-131.34 631.28,-124.41"/>
</g>
<!-- Node22&#45;&gt;Node9 -->
<g id="edge33" class="edge">
<title>Node22&#45;&gt;Node9</title>
<path fill="none" stroke="midnightblue" d="M943.18,-168.41C878.58,-148.48 713.37,-97.62 575,-56 534.87,-43.93 488.69,-30.29 457.87,-21.23"/>
<polygon fill="midnightblue" stroke="midnightblue" points="458.62,-17.8 448.03,-18.34 456.64,-24.52 458.62,-17.8"/>
</g>
</g>
</svg>
