<?xml version="1.0" encoding="UTF-8" standalone="no"?>
<!DOCTYPE svg PUBLIC "-//W3C//DTD SVG 1.1//EN"
 "http://www.w3.org/Graphics/SVG/1.1/DTD/svg11.dtd">
<!-- Generated by graphviz version 2.43.0 (0)
 -->
<!-- Title: afsk_demodulator.cpp Pages: 1 -->
<svg width="1045pt" height="308pt"
 viewBox="0.00 0.00 1044.50 308.00" xmlns="http://www.w3.org/2000/svg" xmlns:xlink="http://www.w3.org/1999/xlink">
<g id="graph0" class="graph" transform="scale(1 1) rotate(0) translate(4 304)">
<title>afsk_demodulator.cpp</title>
<!-- Node1 -->
<g id="node1" class="node">
<title>Node1</title>
<g id="a_node1"><a xlink:title="The AFSK demodulator class implementation.">
<polygon fill="#bfbfbf" stroke="black" points="310.5,-280.5 310.5,-299.5 435.5,-299.5 435.5,-280.5 310.5,-280.5"/>
<text text-anchor="middle" x="373" y="-287.5" font-family="Helvetica,sans-Serif" font-size="10.00">afsk_demodulator.cpp</text>
</a>
</g>
</g>
<!-- Node2 -->
<g id="node2" class="node">
<title>Node2</title>
<g id="a_node2"><a xlink:title=" ">
<polygon fill="none" stroke="#bfbfbf" points="122,-224.5 122,-243.5 186,-243.5 186,-224.5 122,-224.5"/>
<text text-anchor="middle" x="154" y="-231.5" font-family="Helvetica,sans-Serif" font-size="10.00">algorithm</text>
</a>
</g>
</g>
<!-- Node1&#45;&gt;Node2 -->
<g id="edge1" class="edge">
<title>Node1&#45;&gt;Node2</title>
<path fill="none" stroke="midnightblue" d="M338.3,-280.44C299.64,-270.91 237.14,-255.5 195.81,-245.31"/>
<polygon fill="midnightblue" stroke="midnightblue" points="196.59,-241.9 186.05,-242.9 194.92,-248.69 196.59,-241.9"/>
</g>
<!-- Node3 -->
<g id="node3" class="node">
<title>Node3</title>
<g id="a_node3"><a xlink:title=" ">
<polygon fill="none" stroke="#bfbfbf" points="204.5,-224.5 204.5,-243.5 251.5,-243.5 251.5,-224.5 204.5,-224.5"/>
<text text-anchor="middle" x="228" y="-231.5" font-family="Helvetica,sans-Serif" font-size="10.00">cmath</text>
</a>
</g>
</g>
<!-- Node1&#45;&gt;Node3 -->
<g id="edge2" class="edge">
<title>Node1&#45;&gt;Node3</title>
<path fill="none" stroke="midnightblue" d="M350.02,-280.44C325.84,-271.44 287.58,-257.19 260.35,-247.05"/>
<polygon fill="midnightblue" stroke="midnightblue" points="261.46,-243.73 250.87,-243.52 259.02,-250.29 261.46,-243.73"/>
</g>
<!-- Node4 -->
<g id="node4" class="node">
<title>Node4</title>
<g id="a_node4"><a xlink:title=" ">
<polygon fill="none" stroke="#bfbfbf" points="269.5,-224.5 269.5,-243.5 324.5,-243.5 324.5,-224.5 269.5,-224.5"/>
<text text-anchor="middle" x="297" y="-231.5" font-family="Helvetica,sans-Serif" font-size="10.00">fstream</text>
</a>
</g>
</g>
<!-- Node1&#45;&gt;Node4 -->
<g id="edge3" class="edge">
<title>Node1&#45;&gt;Node4</title>
<path fill="none" stroke="midnightblue" d="M360.79,-280.32C349.22,-272.11 331.62,-259.6 317.84,-249.81"/>
<polygon fill="midnightblue" stroke="midnightblue" points="319.61,-246.77 309.43,-243.83 315.56,-252.48 319.61,-246.77"/>
</g>
<!-- Node5 -->
<g id="node5" class="node">
<title>Node5</title>
<g id="a_node5"><a xlink:title=" ">
<polygon fill="none" stroke="#bfbfbf" points="343,-224.5 343,-243.5 403,-243.5 403,-224.5 343,-224.5"/>
<text text-anchor="middle" x="373" y="-231.5" font-family="Helvetica,sans-Serif" font-size="10.00">iostream</text>
</a>
</g>
</g>
<!-- Node1&#45;&gt;Node5 -->
<g id="edge4" class="edge">
<title>Node1&#45;&gt;Node5</title>
<path fill="none" stroke="midnightblue" d="M373,-280.08C373,-273.01 373,-262.86 373,-253.99"/>
<polygon fill="midnightblue" stroke="midnightblue" points="376.5,-253.75 373,-243.75 369.5,-253.75 376.5,-253.75"/>
</g>
<!-- Node6 -->
<g id="node6" class="node">
<title>Node6</title>
<g id="a_node6"><a xlink:href="afsk_8hpp.html" target="_top" xlink:title="AFSK related modulation/demodulation.">
<polygon fill="none" stroke="black" points="421,-224.5 421,-243.5 539,-243.5 539,-224.5 421,-224.5"/>
<text text-anchor="middle" x="480" y="-231.5" font-family="Helvetica,sans-Serif" font-size="10.00">SignalEasel/afsk.hpp</text>
</a>
</g>
</g>
<!-- Node1&#45;&gt;Node6 -->
<g id="edge5" class="edge">
<title>Node1&#45;&gt;Node6</title>
<path fill="none" stroke="midnightblue" d="M390.19,-280.32C407.35,-271.66 433.95,-258.24 453.75,-248.25"/>
<polygon fill="midnightblue" stroke="midnightblue" points="455.5,-251.28 462.85,-243.65 452.35,-245.04 455.5,-251.28"/>
</g>
<!-- Node20 -->
<g id="node20" class="node">
<title>Node20</title>
<g id="a_node20"><a xlink:href="exception_8hpp.html" target="_top" xlink:title="SignalEasel exceptions.">
<polygon fill="none" stroke="black" points="891.5,-224.5 891.5,-243.5 1036.5,-243.5 1036.5,-224.5 891.5,-224.5"/>
<text text-anchor="middle" x="964" y="-231.5" font-family="Helvetica,sans-Serif" font-size="10.00">SignalEasel/exception.hpp</text>
</a>
</g>
</g>
<!-- Node1&#45;&gt;Node20 -->
<g id="edge28" class="edge">
<title>Node1&#45;&gt;Node20</title>
<path fill="none" stroke="midnightblue" d="M435.69,-283.27C542.92,-273.47 761.56,-253.5 881.21,-242.56"/>
<polygon fill="midnightblue" stroke="midnightblue" points="881.78,-246.03 891.42,-241.63 881.14,-239.06 881.78,-246.03"/>
</g>
<!-- Node22 -->
<g id="node22" class="node">
<title>Node22</title>
<g id="a_node22"><a xlink:href="band__pass__filter_8hpp.html" target="_top" xlink:title="Band&#45;pass filter implementation.">
<polygon fill="none" stroke="black" points="797,-168.5 797,-187.5 913,-187.5 913,-168.5 797,-168.5"/>
<text text-anchor="middle" x="855" y="-175.5" font-family="Helvetica,sans-Serif" font-size="10.00">band_pass_filter.hpp</text>
</a>
</g>
</g>
<!-- Node1&#45;&gt;Node22 -->
<g id="edge31" class="edge">
<title>Node1&#45;&gt;Node22</title>
<path fill="none" stroke="midnightblue" d="M410.42,-280.46C497.17,-260.66 711.9,-211.66 807.62,-189.81"/>
<polygon fill="midnightblue" stroke="midnightblue" points="808.63,-193.17 817.6,-187.53 807.08,-186.35 808.63,-193.17"/>
</g>
<!-- Node7 -->
<g id="node7" class="node">
<title>Node7</title>
<g id="a_node7"><a xlink:title=" ">
<polygon fill="none" stroke="#bfbfbf" points="458.5,-112.5 458.5,-131.5 505.5,-131.5 505.5,-112.5 458.5,-112.5"/>
<text text-anchor="middle" x="482" y="-119.5" font-family="Helvetica,sans-Serif" font-size="10.00">vector</text>
</a>
</g>
</g>
<!-- Node6&#45;&gt;Node7 -->
<g id="edge6" class="edge">
<title>Node6&#45;&gt;Node7</title>
<path fill="none" stroke="midnightblue" d="M469.94,-224.12C457.43,-211.94 438.58,-189.15 446,-168 449.79,-157.21 457.37,-147.08 464.6,-139.18"/>
<polygon fill="midnightblue" stroke="midnightblue" points="467.33,-141.4 471.84,-131.81 462.33,-136.49 467.33,-141.4"/>
</g>
<!-- Node8 -->
<g id="node8" class="node">
<title>Node8</title>
<g id="a_node8"><a xlink:href="constants_8hpp.html" target="_top" xlink:title="Common constants used throughout the library.">
<polygon fill="none" stroke="black" points="0,-56.5 0,-75.5 144,-75.5 144,-56.5 0,-56.5"/>
<text text-anchor="middle" x="72" y="-63.5" font-family="Helvetica,sans-Serif" font-size="10.00">SignalEasel/constants.hpp</text>
</a>
</g>
</g>
<!-- Node6&#45;&gt;Node8 -->
<g id="edge7" class="edge">
<title>Node6&#45;&gt;Node8</title>
<path fill="none" stroke="midnightblue" d="M420.67,-225.08C417.74,-224.71 414.84,-224.35 412,-224 340.53,-215.28 141.83,-237.98 90,-188 62.44,-161.43 64.77,-112.29 68.56,-85.53"/>
<polygon fill="midnightblue" stroke="midnightblue" points="72.03,-86 70.19,-75.57 65.12,-84.87 72.03,-86"/>
</g>
<!-- Node10 -->
<g id="node10" class="node">
<title>Node10</title>
<g id="a_node10"><a xlink:href="bit__stream_8hpp.html" target="_top" xlink:title="The bit stream class.">
<polygon fill="none" stroke="black" points="630.5,-168.5 630.5,-187.5 779.5,-187.5 779.5,-168.5 630.5,-168.5"/>
<text text-anchor="middle" x="705" y="-175.5" font-family="Helvetica,sans-Serif" font-size="10.00">SignalEasel/bit_stream.hpp</text>
</a>
</g>
</g>
<!-- Node6&#45;&gt;Node10 -->
<g id="edge9" class="edge">
<title>Node6&#45;&gt;Node10</title>
<path fill="none" stroke="midnightblue" d="M515.65,-224.44C554.66,-215.08 617.27,-200.06 659.72,-189.87"/>
<polygon fill="midnightblue" stroke="midnightblue" points="660.61,-193.25 669.51,-187.52 658.97,-186.45 660.61,-193.25"/>
</g>
<!-- Node11 -->
<g id="node11" class="node">
<title>Node11</title>
<g id="a_node11"><a xlink:href="demodulator_8hpp.html" target="_top" xlink:title="Base class for demodulators.">
<polygon fill="none" stroke="black" points="455,-168.5 455,-187.5 613,-187.5 613,-168.5 455,-168.5"/>
<text text-anchor="middle" x="534" y="-175.5" font-family="Helvetica,sans-Serif" font-size="10.00">SignalEasel/demodulator.hpp</text>
</a>
</g>
</g>
<!-- Node6&#45;&gt;Node11 -->
<g id="edge12" class="edge">
<title>Node6&#45;&gt;Node11</title>
<path fill="none" stroke="midnightblue" d="M488.92,-224.08C496.78,-216.22 508.43,-204.57 517.92,-195.08"/>
<polygon fill="midnightblue" stroke="midnightblue" points="520.65,-197.3 525.25,-187.75 515.7,-192.35 520.65,-197.3"/>
</g>
<!-- Node14 -->
<g id="node14" class="node">
<title>Node14</title>
<g id="a_node14"><a xlink:href="modulator_8hpp.html" target="_top" xlink:title="Modulator base class.">
<polygon fill="none" stroke="black" points="253,-168.5 253,-187.5 399,-187.5 399,-168.5 253,-168.5"/>
<text text-anchor="middle" x="326" y="-175.5" font-family="Helvetica,sans-Serif" font-size="10.00">SignalEasel/modulator.hpp</text>
</a>
</g>
</g>
<!-- Node6&#45;&gt;Node14 -->
<g id="edge17" class="edge">
<title>Node6&#45;&gt;Node14</title>
<path fill="none" stroke="midnightblue" d="M455.6,-224.44C429.8,-215.4 388.92,-201.06 359.98,-190.92"/>
<polygon fill="midnightblue" stroke="midnightblue" points="360.88,-187.52 350.29,-187.52 358.57,-194.13 360.88,-187.52"/>
</g>
<!-- Node15 -->
<g id="node15" class="node">
<title>Node15</title>
<g id="a_node15"><a xlink:href="receiver_8hpp.html" target="_top" xlink:title="Base class for receivers. Demodulators that use pulse audio.">
<polygon fill="none" stroke="black" points="99,-168.5 99,-187.5 235,-187.5 235,-168.5 99,-168.5"/>
<text text-anchor="middle" x="167" y="-175.5" font-family="Helvetica,sans-Serif" font-size="10.00">SignalEasel/receiver.hpp</text>
</a>
</g>
</g>
<!-- Node6&#45;&gt;Node15 -->
<g id="edge20" class="edge">
<title>Node6&#45;&gt;Node15</title>
<path fill="none" stroke="midnightblue" d="M430.4,-224.44C375,-214.89 285.36,-199.42 226.29,-189.23"/>
<polygon fill="midnightblue" stroke="midnightblue" points="226.81,-185.77 216.36,-187.52 225.62,-192.67 226.81,-185.77"/>
</g>
<!-- Node9 -->
<g id="node9" class="node">
<title>Node9</title>
<g id="a_node9"><a xlink:title=" ">
<polygon fill="none" stroke="#bfbfbf" points="680,-0.5 680,-19.5 730,-19.5 730,-0.5 680,-0.5"/>
<text text-anchor="middle" x="705" y="-7.5" font-family="Helvetica,sans-Serif" font-size="10.00">cstdint</text>
</a>
</g>
</g>
<!-- Node8&#45;&gt;Node9 -->
<g id="edge8" class="edge">
<title>Node8&#45;&gt;Node9</title>
<path fill="none" stroke="midnightblue" d="M144.41,-56.85C147.31,-56.56 150.18,-56.27 153,-56 348.01,-37.22 582.27,-19.83 669.77,-13.51"/>
<polygon fill="midnightblue" stroke="midnightblue" points="670.22,-16.99 679.94,-12.78 669.72,-10.01 670.22,-16.99"/>
</g>
<!-- Node10&#45;&gt;Node7 -->
<g id="edge11" class="edge">
<title>Node10&#45;&gt;Node7</title>
<path fill="none" stroke="midnightblue" d="M669.66,-168.44C627.32,-158.19 556.91,-141.14 515.43,-131.09"/>
<polygon fill="midnightblue" stroke="midnightblue" points="516.08,-127.65 505.54,-128.7 514.44,-134.46 516.08,-127.65"/>
</g>
<!-- Node10&#45;&gt;Node9 -->
<g id="edge10" class="edge">
<title>Node10&#45;&gt;Node9</title>
<path fill="none" stroke="midnightblue" d="M705,-168.08C705,-141.95 705,-65.21 705,-29.58"/>
<polygon fill="midnightblue" stroke="midnightblue" points="708.5,-29.57 705,-19.57 701.5,-29.57 708.5,-29.57"/>
</g>
<!-- Node11&#45;&gt;Node7 -->
<g id="edge14" class="edge">
<title>Node11&#45;&gt;Node7</title>
<path fill="none" stroke="midnightblue" d="M525.41,-168.08C517.84,-160.22 506.62,-148.57 497.49,-139.08"/>
<polygon fill="midnightblue" stroke="midnightblue" points="499.88,-136.53 490.43,-131.75 494.84,-141.38 499.88,-136.53"/>
</g>
<!-- Node12 -->
<g id="node12" class="node">
<title>Node12</title>
<g id="a_node12"><a xlink:title=" ">
<polygon fill="none" stroke="#bfbfbf" points="469,-56.5 469,-75.5 513,-75.5 513,-56.5 469,-56.5"/>
<text text-anchor="middle" x="491" y="-63.5" font-family="Helvetica,sans-Serif" font-size="10.00">string</text>
</a>
</g>
</g>
<!-- Node11&#45;&gt;Node12 -->
<g id="edge13" class="edge">
<title>Node11&#45;&gt;Node12</title>
<path fill="none" stroke="midnightblue" d="M531.87,-168.42C528.63,-155.83 521.99,-131.69 514,-112 510.25,-102.75 505.29,-92.84 500.94,-84.68"/>
<polygon fill="midnightblue" stroke="midnightblue" points="503.92,-82.84 496.05,-75.75 497.78,-86.2 503.92,-82.84"/>
</g>
<!-- Node13 -->
<g id="node13" class="node">
<title>Node13</title>
<g id="a_node13"><a xlink:href="settings_8hpp.html" target="_top" xlink:title="Settings structures for SignalEasel.">
<polygon fill="none" stroke="black" points="302,-112.5 302,-131.5 438,-131.5 438,-112.5 302,-112.5"/>
<text text-anchor="middle" x="370" y="-119.5" font-family="Helvetica,sans-Serif" font-size="10.00">SignalEasel/settings.hpp</text>
</a>
</g>
</g>
<!-- Node11&#45;&gt;Node13 -->
<g id="edge15" class="edge">
<title>Node11&#45;&gt;Node13</title>
<path fill="none" stroke="midnightblue" d="M508.01,-168.44C480.3,-159.32 436.25,-144.81 405.38,-134.65"/>
<polygon fill="midnightblue" stroke="midnightblue" points="406.46,-131.32 395.86,-131.52 404.27,-137.97 406.46,-131.32"/>
</g>
<!-- Node13&#45;&gt;Node12 -->
<g id="edge16" class="edge">
<title>Node13&#45;&gt;Node12</title>
<path fill="none" stroke="midnightblue" d="M389.17,-112.44C408.91,-103.64 439.89,-89.81 462.49,-79.72"/>
<polygon fill="midnightblue" stroke="midnightblue" points="464.21,-82.79 471.92,-75.52 461.36,-76.4 464.21,-82.79"/>
</g>
<!-- Node14&#45;&gt;Node7 -->
<g id="edge18" class="edge">
<title>Node14&#45;&gt;Node7</title>
<path fill="none" stroke="midnightblue" d="M350.72,-168.44C377.16,-159.29 419.24,-144.73 448.61,-134.56"/>
<polygon fill="midnightblue" stroke="midnightblue" points="450.11,-137.74 458.42,-131.16 447.82,-131.13 450.11,-137.74"/>
</g>
<!-- Node14&#45;&gt;Node13 -->
<g id="edge19" class="edge">
<title>Node14&#45;&gt;Node13</title>
<path fill="none" stroke="midnightblue" d="M333.27,-168.08C339.54,-160.38 348.79,-149.03 356.43,-139.65"/>
<polygon fill="midnightblue" stroke="midnightblue" points="359.27,-141.71 362.87,-131.75 353.84,-137.29 359.27,-141.71"/>
</g>
<!-- Node15&#45;&gt;Node13 -->
<g id="edge27" class="edge">
<title>Node15&#45;&gt;Node13</title>
<path fill="none" stroke="midnightblue" d="M199.17,-168.44C234.06,-159.16 289.89,-144.31 328.17,-134.13"/>
<polygon fill="midnightblue" stroke="midnightblue" points="329.22,-137.47 337.98,-131.52 327.42,-130.7 329.22,-137.47"/>
</g>
<!-- Node16 -->
<g id="node16" class="node">
<title>Node16</title>
<g id="a_node16"><a xlink:href="pulse__audio_8hpp.html" target="_top" xlink:title="Reads audio from pulse audio.">
<polygon fill="none" stroke="black" points="124.5,-112.5 124.5,-131.5 279.5,-131.5 279.5,-112.5 124.5,-112.5"/>
<text text-anchor="middle" x="202" y="-119.5" font-family="Helvetica,sans-Serif" font-size="10.00">SignalEasel/pulse_audio.hpp</text>
</a>
</g>
</g>
<!-- Node15&#45;&gt;Node16 -->
<g id="edge21" class="edge">
<title>Node15&#45;&gt;Node16</title>
<path fill="none" stroke="midnightblue" d="M172.78,-168.08C177.67,-160.53 184.83,-149.49 190.83,-140.23"/>
<polygon fill="midnightblue" stroke="midnightblue" points="193.83,-142.05 196.33,-131.75 187.95,-138.24 193.83,-142.05"/>
</g>
<!-- Node16&#45;&gt;Node8 -->
<g id="edge24" class="edge">
<title>Node16&#45;&gt;Node8</title>
<path fill="none" stroke="midnightblue" d="M181.4,-112.44C160.01,-103.56 126.32,-89.56 101.98,-79.45"/>
<polygon fill="midnightblue" stroke="midnightblue" points="103.08,-76.12 92.5,-75.52 100.39,-82.58 103.08,-76.12"/>
</g>
<!-- Node16&#45;&gt;Node12 -->
<g id="edge23" class="edge">
<title>Node16&#45;&gt;Node12</title>
<path fill="none" stroke="midnightblue" d="M247.79,-112.44C306.76,-101.43 407.73,-82.56 459.04,-72.97"/>
<polygon fill="midnightblue" stroke="midnightblue" points="459.72,-76.4 468.91,-71.13 458.44,-69.52 459.72,-76.4"/>
</g>
<!-- Node17 -->
<g id="node17" class="node">
<title>Node17</title>
<g id="a_node17"><a xlink:title=" ">
<polygon fill="none" stroke="#bfbfbf" points="364,-56.5 364,-75.5 406,-75.5 406,-56.5 364,-56.5"/>
<text text-anchor="middle" x="385" y="-63.5" font-family="Helvetica,sans-Serif" font-size="10.00">array</text>
</a>
</g>
</g>
<!-- Node16&#45;&gt;Node17 -->
<g id="edge22" class="edge">
<title>Node16&#45;&gt;Node17</title>
<path fill="none" stroke="midnightblue" d="M231.35,-112.42C260.23,-103.96 305.85,-90.58 354.03,-76.28"/>
<polygon fill="midnightblue" stroke="midnightblue" points="355.11,-79.61 363.7,-73.41 353.12,-72.9 355.11,-79.61"/>
</g>
<!-- Node18 -->
<g id="node18" class="node">
<title>Node18</title>
<g id="a_node18"><a xlink:title=" ">
<polygon fill="none" stroke="#bfbfbf" points="162.5,-56.5 162.5,-75.5 239.5,-75.5 239.5,-56.5 162.5,-56.5"/>
<text text-anchor="middle" x="201" y="-63.5" font-family="Helvetica,sans-Serif" font-size="10.00">pulse/error.h</text>
</a>
</g>
</g>
<!-- Node16&#45;&gt;Node18 -->
<g id="edge25" class="edge">
<title>Node16&#45;&gt;Node18</title>
<path fill="none" stroke="midnightblue" d="M201.83,-112.08C201.7,-105.01 201.52,-94.86 201.35,-85.99"/>
<polygon fill="midnightblue" stroke="midnightblue" points="204.85,-85.68 201.16,-75.75 197.85,-85.81 204.85,-85.68"/>
</g>
<!-- Node19 -->
<g id="node19" class="node">
<title>Node19</title>
<g id="a_node19"><a xlink:title=" ">
<polygon fill="none" stroke="#bfbfbf" points="258,-56.5 258,-75.5 346,-75.5 346,-56.5 258,-56.5"/>
<text text-anchor="middle" x="302" y="-63.5" font-family="Helvetica,sans-Serif" font-size="10.00">pulse/simple.h</text>
</a>
</g>
</g>
<!-- Node16&#45;&gt;Node19 -->
<g id="edge26" class="edge">
<title>Node16&#45;&gt;Node19</title>
<path fill="none" stroke="midnightblue" d="M218.07,-112.32C233.96,-103.74 258.51,-90.49 276.96,-80.52"/>
<polygon fill="midnightblue" stroke="midnightblue" points="278.84,-83.49 285.97,-75.65 275.51,-77.33 278.84,-83.49"/>
</g>
<!-- Node20&#45;&gt;Node12 -->
<g id="edge30" class="edge">
<title>Node20&#45;&gt;Node12</title>
<path fill="none" stroke="midnightblue" d="M976.45,-224.33C993.49,-211.42 1020.34,-186.65 1005,-168 943.2,-92.88 625.75,-72.78 523.08,-68.2"/>
<polygon fill="midnightblue" stroke="midnightblue" points="523.14,-64.7 513,-67.77 522.84,-71.69 523.14,-64.7"/>
</g>
<!-- Node21 -->
<g id="node21" class="node">
<title>Node21</title>
<g id="a_node21"><a xlink:title=" ">
<polygon fill="none" stroke="#bfbfbf" points="931.5,-168.5 931.5,-187.5 996.5,-187.5 996.5,-168.5 931.5,-168.5"/>
<text text-anchor="middle" x="964" y="-175.5" font-family="Helvetica,sans-Serif" font-size="10.00">exception</text>
</a>
</g>
</g>
<!-- Node20&#45;&gt;Node21 -->
<g id="edge29" class="edge">
<title>Node20&#45;&gt;Node21</title>
<path fill="none" stroke="midnightblue" d="M964,-224.08C964,-217.01 964,-206.86 964,-197.99"/>
<polygon fill="midnightblue" stroke="midnightblue" points="967.5,-197.75 964,-187.75 960.5,-197.75 967.5,-197.75"/>
</g>
<!-- Node22&#45;&gt;Node7 -->
<g id="edge33" class="edge">
<title>Node22&#45;&gt;Node7</title>
<path fill="none" stroke="midnightblue" d="M796.72,-168.56C717.72,-157.13 579.25,-137.08 515.66,-127.87"/>
<polygon fill="midnightblue" stroke="midnightblue" points="516.16,-124.41 505.76,-126.44 515.15,-131.34 516.16,-124.41"/>
</g>
<!-- Node22&#45;&gt;Node9 -->
<g id="edge32" class="edge">
<title>Node22&#45;&gt;Node9</title>
<path fill="none" stroke="midnightblue" d="M846.94,-168.08C822.81,-141.38 750.96,-61.87 719.75,-27.32"/>
<polygon fill="midnightblue" stroke="midnightblue" points="722.04,-24.64 712.74,-19.57 716.85,-29.33 722.04,-24.64"/>
</g>
</g>
</svg>
