<?xml version="1.0" encoding="UTF-8" standalone="no"?>
<!DOCTYPE svg PUBLIC "-//W3C//DTD SVG 1.1//EN"
 "http://www.w3.org/Graphics/SVG/1.1/DTD/svg11.dtd">
<!-- Generated by graphviz version 2.43.0 (0)
 -->
<!-- Title: afsk_modulator.cpp Pages: 1 -->
<svg width="1045pt" height="308pt"
 viewBox="0.00 0.00 1045.00 308.00" xmlns="http://www.w3.org/2000/svg" xmlns:xlink="http://www.w3.org/1999/xlink">
<g id="graph0" class="graph" transform="scale(1 1) rotate(0) translate(4 304)">
<title>afsk_modulator.cpp</title>
<!-- Node1 -->
<g id="node1" class="node">
<title>Node1</title>
<g id="a_node1"><a xlink:title="The AFSK modulator class implementation.">
<polygon fill="#bfbfbf" stroke="black" points="113,-280.5 113,-299.5 226,-299.5 226,-280.5 113,-280.5"/>
<text text-anchor="middle" x="169.5" y="-287.5" font-family="Helvetica,sans-Serif" font-size="10.00">afsk_modulator.cpp</text>
</a>
</g>
</g>
<!-- Node2 -->
<g id="node2" class="node">
<title>Node2</title>
<g id="a_node2"><a xlink:title=" ">
<polygon fill="none" stroke="#bfbfbf" points="0,-224.5 0,-243.5 47,-243.5 47,-224.5 0,-224.5"/>
<text text-anchor="middle" x="23.5" y="-231.5" font-family="Helvetica,sans-Serif" font-size="10.00">cmath</text>
</a>
</g>
</g>
<!-- Node1&#45;&gt;Node2 -->
<g id="edge1" class="edge">
<title>Node1&#45;&gt;Node2</title>
<path fill="none" stroke="midnightblue" d="M146.37,-280.44C122.02,-271.44 83.49,-257.19 56.08,-247.05"/>
<polygon fill="midnightblue" stroke="midnightblue" points="57.12,-243.7 46.53,-243.52 54.69,-250.27 57.12,-243.7"/>
</g>
<!-- Node3 -->
<g id="node3" class="node">
<title>Node3</title>
<g id="a_node3"><a xlink:title=" ">
<polygon fill="none" stroke="#bfbfbf" points="65.5,-224.5 65.5,-243.5 121.5,-243.5 121.5,-224.5 65.5,-224.5"/>
<text text-anchor="middle" x="93.5" y="-231.5" font-family="Helvetica,sans-Serif" font-size="10.00">iomanip</text>
</a>
</g>
</g>
<!-- Node1&#45;&gt;Node3 -->
<g id="edge2" class="edge">
<title>Node1&#45;&gt;Node3</title>
<path fill="none" stroke="midnightblue" d="M157.29,-280.32C145.72,-272.11 128.12,-259.6 114.34,-249.81"/>
<polygon fill="midnightblue" stroke="midnightblue" points="116.11,-246.77 105.93,-243.83 112.06,-252.48 116.11,-246.77"/>
</g>
<!-- Node4 -->
<g id="node4" class="node">
<title>Node4</title>
<g id="a_node4"><a xlink:title=" ">
<polygon fill="none" stroke="#bfbfbf" points="139.5,-224.5 139.5,-243.5 199.5,-243.5 199.5,-224.5 139.5,-224.5"/>
<text text-anchor="middle" x="169.5" y="-231.5" font-family="Helvetica,sans-Serif" font-size="10.00">iostream</text>
</a>
</g>
</g>
<!-- Node1&#45;&gt;Node4 -->
<g id="edge3" class="edge">
<title>Node1&#45;&gt;Node4</title>
<path fill="none" stroke="midnightblue" d="M169.5,-280.08C169.5,-273.01 169.5,-262.86 169.5,-253.99"/>
<polygon fill="midnightblue" stroke="midnightblue" points="173,-253.75 169.5,-243.75 166,-253.75 173,-253.75"/>
</g>
<!-- Node5 -->
<g id="node5" class="node">
<title>Node5</title>
<g id="a_node5"><a xlink:href="afsk_8hpp.html" target="_top" xlink:title="AFSK related modulation/demodulation.">
<polygon fill="none" stroke="black" points="524.5,-224.5 524.5,-243.5 642.5,-243.5 642.5,-224.5 524.5,-224.5"/>
<text text-anchor="middle" x="583.5" y="-231.5" font-family="Helvetica,sans-Serif" font-size="10.00">SignalEasel/afsk.hpp</text>
</a>
</g>
</g>
<!-- Node1&#45;&gt;Node5 -->
<g id="edge4" class="edge">
<title>Node1&#45;&gt;Node5</title>
<path fill="none" stroke="midnightblue" d="M226.2,-281.6C301.27,-271.81 433.57,-254.56 514.4,-244.01"/>
<polygon fill="midnightblue" stroke="midnightblue" points="515.02,-247.46 524.48,-242.7 514.11,-240.52 515.02,-247.46"/>
</g>
<!-- Node19 -->
<g id="node19" class="node">
<title>Node19</title>
<g id="a_node19"><a xlink:href="exception_8hpp.html" target="_top" xlink:title="SignalEasel exceptions.">
<polygon fill="none" stroke="black" points="218,-224.5 218,-243.5 363,-243.5 363,-224.5 218,-224.5"/>
<text text-anchor="middle" x="290.5" y="-231.5" font-family="Helvetica,sans-Serif" font-size="10.00">SignalEasel/exception.hpp</text>
</a>
</g>
</g>
<!-- Node1&#45;&gt;Node19 -->
<g id="edge27" class="edge">
<title>Node1&#45;&gt;Node19</title>
<path fill="none" stroke="midnightblue" d="M188.67,-280.44C208.41,-271.64 239.39,-257.81 261.99,-247.72"/>
<polygon fill="midnightblue" stroke="midnightblue" points="263.71,-250.79 271.42,-243.52 260.86,-244.4 263.71,-250.79"/>
</g>
<!-- Node6 -->
<g id="node6" class="node">
<title>Node6</title>
<g id="a_node6"><a xlink:title=" ">
<polygon fill="none" stroke="#bfbfbf" points="809,-112.5 809,-131.5 856,-131.5 856,-112.5 809,-112.5"/>
<text text-anchor="middle" x="832.5" y="-119.5" font-family="Helvetica,sans-Serif" font-size="10.00">vector</text>
</a>
</g>
</g>
<!-- Node5&#45;&gt;Node6 -->
<g id="edge5" class="edge">
<title>Node5&#45;&gt;Node6</title>
<path fill="none" stroke="midnightblue" d="M642.57,-231.21C710.71,-227.75 816.59,-217.63 841.5,-188 852.35,-175.09 847.64,-155.37 841.74,-141.04"/>
<polygon fill="midnightblue" stroke="midnightblue" points="844.81,-139.33 837.44,-131.73 838.45,-142.27 844.81,-139.33"/>
</g>
<!-- Node7 -->
<g id="node7" class="node">
<title>Node7</title>
<g id="a_node7"><a xlink:href="constants_8hpp.html" target="_top" xlink:title="Common constants used throughout the library.">
<polygon fill="none" stroke="black" points="211.5,-56.5 211.5,-75.5 355.5,-75.5 355.5,-56.5 211.5,-56.5"/>
<text text-anchor="middle" x="283.5" y="-63.5" font-family="Helvetica,sans-Serif" font-size="10.00">SignalEasel/constants.hpp</text>
</a>
</g>
</g>
<!-- Node5&#45;&gt;Node7 -->
<g id="edge6" class="edge">
<title>Node5&#45;&gt;Node7</title>
<path fill="none" stroke="midnightblue" d="M524.35,-227.59C463.85,-221.04 374.97,-208.29 347.5,-188 312.89,-162.43 295.23,-112.51 287.85,-85.46"/>
<polygon fill="midnightblue" stroke="midnightblue" points="291.22,-84.54 285.36,-75.72 284.44,-86.27 291.22,-84.54"/>
</g>
<!-- Node9 -->
<g id="node9" class="node">
<title>Node9</title>
<g id="a_node9"><a xlink:href="bit__stream_8hpp.html" target="_top" xlink:title="The bit stream class.">
<polygon fill="none" stroke="black" points="888,-168.5 888,-187.5 1037,-187.5 1037,-168.5 888,-168.5"/>
<text text-anchor="middle" x="962.5" y="-175.5" font-family="Helvetica,sans-Serif" font-size="10.00">SignalEasel/bit_stream.hpp</text>
</a>
</g>
</g>
<!-- Node5&#45;&gt;Node9 -->
<g id="edge8" class="edge">
<title>Node5&#45;&gt;Node9</title>
<path fill="none" stroke="midnightblue" d="M642.72,-224.56C710.28,-214.94 820.68,-199.21 892.46,-188.98"/>
<polygon fill="midnightblue" stroke="midnightblue" points="893.35,-192.39 902.76,-187.51 892.37,-185.46 893.35,-192.39"/>
</g>
<!-- Node10 -->
<g id="node10" class="node">
<title>Node10</title>
<g id="a_node10"><a xlink:href="demodulator_8hpp.html" target="_top" xlink:title="Base class for demodulators.">
<polygon fill="none" stroke="black" points="674.5,-168.5 674.5,-187.5 832.5,-187.5 832.5,-168.5 674.5,-168.5"/>
<text text-anchor="middle" x="753.5" y="-175.5" font-family="Helvetica,sans-Serif" font-size="10.00">SignalEasel/demodulator.hpp</text>
</a>
</g>
</g>
<!-- Node5&#45;&gt;Node10 -->
<g id="edge11" class="edge">
<title>Node5&#45;&gt;Node10</title>
<path fill="none" stroke="midnightblue" d="M610.44,-224.44C639.16,-215.32 684.83,-200.81 716.82,-190.65"/>
<polygon fill="midnightblue" stroke="midnightblue" points="718.22,-193.88 726.69,-187.52 716.1,-187.21 718.22,-193.88"/>
</g>
<!-- Node13 -->
<g id="node13" class="node">
<title>Node13</title>
<g id="a_node13"><a xlink:href="modulator_8hpp.html" target="_top" xlink:title="Modulator base class.">
<polygon fill="none" stroke="black" points="510.5,-168.5 510.5,-187.5 656.5,-187.5 656.5,-168.5 510.5,-168.5"/>
<text text-anchor="middle" x="583.5" y="-175.5" font-family="Helvetica,sans-Serif" font-size="10.00">SignalEasel/modulator.hpp</text>
</a>
</g>
</g>
<!-- Node5&#45;&gt;Node13 -->
<g id="edge16" class="edge">
<title>Node5&#45;&gt;Node13</title>
<path fill="none" stroke="midnightblue" d="M583.5,-224.08C583.5,-217.01 583.5,-206.86 583.5,-197.99"/>
<polygon fill="midnightblue" stroke="midnightblue" points="587,-197.75 583.5,-187.75 580,-197.75 587,-197.75"/>
</g>
<!-- Node14 -->
<g id="node14" class="node">
<title>Node14</title>
<g id="a_node14"><a xlink:href="receiver_8hpp.html" target="_top" xlink:title="Base class for receivers. Demodulators that use pulse audio.">
<polygon fill="none" stroke="black" points="356.5,-168.5 356.5,-187.5 492.5,-187.5 492.5,-168.5 356.5,-168.5"/>
<text text-anchor="middle" x="424.5" y="-175.5" font-family="Helvetica,sans-Serif" font-size="10.00">SignalEasel/receiver.hpp</text>
</a>
</g>
</g>
<!-- Node5&#45;&gt;Node14 -->
<g id="edge19" class="edge">
<title>Node5&#45;&gt;Node14</title>
<path fill="none" stroke="midnightblue" d="M558.31,-224.44C531.56,-215.36 489.1,-200.94 459.19,-190.78"/>
<polygon fill="midnightblue" stroke="midnightblue" points="460.17,-187.42 449.58,-187.52 457.92,-194.05 460.17,-187.42"/>
</g>
<!-- Node8 -->
<g id="node8" class="node">
<title>Node8</title>
<g id="a_node8"><a xlink:title=" ">
<polygon fill="none" stroke="#bfbfbf" points="526.5,-0.5 526.5,-19.5 576.5,-19.5 576.5,-0.5 526.5,-0.5"/>
<text text-anchor="middle" x="551.5" y="-7.5" font-family="Helvetica,sans-Serif" font-size="10.00">cstdint</text>
</a>
</g>
</g>
<!-- Node7&#45;&gt;Node8 -->
<g id="edge7" class="edge">
<title>Node7&#45;&gt;Node8</title>
<path fill="none" stroke="midnightblue" d="M325.97,-56.44C378.6,-45.84 467.34,-27.96 516.34,-18.08"/>
<polygon fill="midnightblue" stroke="midnightblue" points="517.06,-21.51 526.17,-16.1 515.67,-14.65 517.06,-21.51"/>
</g>
<!-- Node9&#45;&gt;Node6 -->
<g id="edge10" class="edge">
<title>Node9&#45;&gt;Node6</title>
<path fill="none" stroke="midnightblue" d="M941.9,-168.44C920.51,-159.56 886.82,-145.56 862.48,-135.45"/>
<polygon fill="midnightblue" stroke="midnightblue" points="863.58,-132.12 853,-131.52 860.89,-138.58 863.58,-132.12"/>
</g>
<!-- Node9&#45;&gt;Node8 -->
<g id="edge9" class="edge">
<title>Node9&#45;&gt;Node8</title>
<path fill="none" stroke="midnightblue" d="M951.76,-168.32C934.5,-154.72 899.07,-128.25 865.5,-112 769.22,-65.4 646.28,-33.03 586.84,-18.94"/>
<polygon fill="midnightblue" stroke="midnightblue" points="587.37,-15.47 576.83,-16.6 585.77,-22.28 587.37,-15.47"/>
</g>
<!-- Node10&#45;&gt;Node6 -->
<g id="edge13" class="edge">
<title>Node10&#45;&gt;Node6</title>
<path fill="none" stroke="midnightblue" d="M766.19,-168.32C778.4,-159.98 797.08,-147.21 811.5,-137.35"/>
<polygon fill="midnightblue" stroke="midnightblue" points="813.56,-140.19 819.84,-131.65 809.61,-134.41 813.56,-140.19"/>
</g>
<!-- Node11 -->
<g id="node11" class="node">
<title>Node11</title>
<g id="a_node11"><a xlink:title=" ">
<polygon fill="none" stroke="#bfbfbf" points="635.5,-56.5 635.5,-75.5 679.5,-75.5 679.5,-56.5 635.5,-56.5"/>
<text text-anchor="middle" x="657.5" y="-63.5" font-family="Helvetica,sans-Serif" font-size="10.00">string</text>
</a>
</g>
</g>
<!-- Node10&#45;&gt;Node11 -->
<g id="edge12" class="edge">
<title>Node10&#45;&gt;Node11</title>
<path fill="none" stroke="midnightblue" d="M750.92,-168.19C746.69,-154.87 737.25,-129.33 722.5,-112 711.69,-99.3 696.5,-88.52 683.52,-80.69"/>
<polygon fill="midnightblue" stroke="midnightblue" points="684.97,-77.49 674.56,-75.54 681.48,-83.56 684.97,-77.49"/>
</g>
<!-- Node12 -->
<g id="node12" class="node">
<title>Node12</title>
<g id="a_node12"><a xlink:href="settings_8hpp.html" target="_top" xlink:title="Settings structures for SignalEasel.">
<polygon fill="none" stroke="black" points="577.5,-112.5 577.5,-131.5 713.5,-131.5 713.5,-112.5 577.5,-112.5"/>
<text text-anchor="middle" x="645.5" y="-119.5" font-family="Helvetica,sans-Serif" font-size="10.00">SignalEasel/settings.hpp</text>
</a>
</g>
</g>
<!-- Node10&#45;&gt;Node12 -->
<g id="edge14" class="edge">
<title>Node10&#45;&gt;Node12</title>
<path fill="none" stroke="midnightblue" d="M736.15,-168.32C718.83,-159.66 691.98,-146.24 672,-136.25"/>
<polygon fill="midnightblue" stroke="midnightblue" points="673.32,-133 662.81,-131.65 670.19,-139.26 673.32,-133"/>
</g>
<!-- Node12&#45;&gt;Node11 -->
<g id="edge15" class="edge">
<title>Node12&#45;&gt;Node11</title>
<path fill="none" stroke="midnightblue" d="M647.48,-112.08C649.07,-104.93 651.36,-94.64 653.35,-85.69"/>
<polygon fill="midnightblue" stroke="midnightblue" points="656.8,-86.27 655.56,-75.75 649.97,-84.75 656.8,-86.27"/>
</g>
<!-- Node13&#45;&gt;Node6 -->
<g id="edge17" class="edge">
<title>Node13&#45;&gt;Node6</title>
<path fill="none" stroke="midnightblue" d="M622.95,-168.44C671.55,-157.9 753.27,-140.18 798.97,-130.27"/>
<polygon fill="midnightblue" stroke="midnightblue" points="799.93,-133.64 808.96,-128.1 798.45,-126.8 799.93,-133.64"/>
</g>
<!-- Node13&#45;&gt;Node12 -->
<g id="edge18" class="edge">
<title>Node13&#45;&gt;Node12</title>
<path fill="none" stroke="midnightblue" d="M593.46,-168.32C602.63,-160.34 616.44,-148.31 627.53,-138.65"/>
<polygon fill="midnightblue" stroke="midnightblue" points="630.12,-141.04 635.36,-131.83 625.52,-135.76 630.12,-141.04"/>
</g>
<!-- Node14&#45;&gt;Node12 -->
<g id="edge26" class="edge">
<title>Node14&#45;&gt;Node12</title>
<path fill="none" stroke="midnightblue" d="M459.52,-168.44C497.75,-159.1 559.07,-144.12 600.76,-133.93"/>
<polygon fill="midnightblue" stroke="midnightblue" points="601.76,-137.29 610.65,-131.52 600.1,-130.49 601.76,-137.29"/>
</g>
<!-- Node15 -->
<g id="node15" class="node">
<title>Node15</title>
<g id="a_node15"><a xlink:href="pulse__audio_8hpp.html" target="_top" xlink:title="Simple pulse audio interface.">
<polygon fill="none" stroke="black" points="351,-112.5 351,-131.5 506,-131.5 506,-112.5 351,-112.5"/>
<text text-anchor="middle" x="428.5" y="-119.5" font-family="Helvetica,sans-Serif" font-size="10.00">SignalEasel/pulse_audio.hpp</text>
</a>
</g>
</g>
<!-- Node14&#45;&gt;Node15 -->
<g id="edge20" class="edge">
<title>Node14&#45;&gt;Node15</title>
<path fill="none" stroke="midnightblue" d="M425.16,-168.08C425.68,-161.01 426.44,-150.86 427.09,-141.99"/>
<polygon fill="midnightblue" stroke="midnightblue" points="430.6,-141.98 427.85,-131.75 423.62,-141.47 430.6,-141.98"/>
</g>
<!-- Node15&#45;&gt;Node7 -->
<g id="edge23" class="edge">
<title>Node15&#45;&gt;Node7</title>
<path fill="none" stroke="midnightblue" d="M405.52,-112.44C381.34,-103.44 343.08,-89.19 315.85,-79.05"/>
<polygon fill="midnightblue" stroke="midnightblue" points="316.96,-75.73 306.37,-75.52 314.52,-82.29 316.96,-75.73"/>
</g>
<!-- Node15&#45;&gt;Node11 -->
<g id="edge22" class="edge">
<title>Node15&#45;&gt;Node11</title>
<path fill="none" stroke="midnightblue" d="M469.24,-112.48C507.28,-104.36 565.82,-91.44 625.26,-76.21"/>
<polygon fill="midnightblue" stroke="midnightblue" points="626.38,-79.54 635.19,-73.65 624.63,-72.76 626.38,-79.54"/>
</g>
<!-- Node16 -->
<g id="node16" class="node">
<title>Node16</title>
<g id="a_node16"><a xlink:title=" ">
<polygon fill="none" stroke="#bfbfbf" points="479.5,-56.5 479.5,-75.5 521.5,-75.5 521.5,-56.5 479.5,-56.5"/>
<text text-anchor="middle" x="500.5" y="-63.5" font-family="Helvetica,sans-Serif" font-size="10.00">array</text>
</a>
</g>
</g>
<!-- Node15&#45;&gt;Node16 -->
<g id="edge21" class="edge">
<title>Node15&#45;&gt;Node16</title>
<path fill="none" stroke="midnightblue" d="M440.07,-112.32C450.92,-104.18 467.38,-91.84 480.38,-82.09"/>
<polygon fill="midnightblue" stroke="midnightblue" points="482.82,-84.63 488.72,-75.83 478.62,-79.03 482.82,-84.63"/>
</g>
<!-- Node17 -->
<g id="node17" class="node">
<title>Node17</title>
<g id="a_node17"><a xlink:title=" ">
<polygon fill="none" stroke="#bfbfbf" points="540,-56.5 540,-75.5 617,-75.5 617,-56.5 540,-56.5"/>
<text text-anchor="middle" x="578.5" y="-63.5" font-family="Helvetica,sans-Serif" font-size="10.00">pulse/error.h</text>
</a>
</g>
</g>
<!-- Node15&#45;&gt;Node17 -->
<g id="edge24" class="edge">
<title>Node15&#45;&gt;Node17</title>
<path fill="none" stroke="midnightblue" d="M452.27,-112.44C477.39,-103.4 517.21,-89.06 545.4,-78.92"/>
<polygon fill="midnightblue" stroke="midnightblue" points="546.62,-82.2 554.84,-75.52 544.25,-75.61 546.62,-82.2"/>
</g>
<!-- Node18 -->
<g id="node18" class="node">
<title>Node18</title>
<g id="a_node18"><a xlink:title=" ">
<polygon fill="none" stroke="#bfbfbf" points="373.5,-56.5 373.5,-75.5 461.5,-75.5 461.5,-56.5 373.5,-56.5"/>
<text text-anchor="middle" x="417.5" y="-63.5" font-family="Helvetica,sans-Serif" font-size="10.00">pulse/simple.h</text>
</a>
</g>
</g>
<!-- Node15&#45;&gt;Node18 -->
<g id="edge25" class="edge">
<title>Node15&#45;&gt;Node18</title>
<path fill="none" stroke="midnightblue" d="M426.68,-112.08C425.23,-104.93 423.13,-94.64 421.31,-85.69"/>
<polygon fill="midnightblue" stroke="midnightblue" points="424.71,-84.85 419.28,-75.75 417.85,-86.25 424.71,-84.85"/>
</g>
<!-- Node19&#45;&gt;Node11 -->
<g id="edge29" class="edge">
<title>Node19&#45;&gt;Node11</title>
<path fill="none" stroke="midnightblue" d="M295.56,-224.25C304.25,-210.04 323.43,-182.14 347.5,-168 413.35,-129.33 443.02,-156.03 515.5,-132 558.09,-117.88 604.95,-94.85 632.77,-80.33"/>
<polygon fill="midnightblue" stroke="midnightblue" points="634.57,-83.34 641.78,-75.58 631.3,-77.15 634.57,-83.34"/>
</g>
<!-- Node20 -->
<g id="node20" class="node">
<title>Node20</title>
<g id="a_node20"><a xlink:title=" ">
<polygon fill="none" stroke="#bfbfbf" points="197,-168.5 197,-187.5 262,-187.5 262,-168.5 197,-168.5"/>
<text text-anchor="middle" x="229.5" y="-175.5" font-family="Helvetica,sans-Serif" font-size="10.00">exception</text>
</a>
</g>
</g>
<!-- Node19&#45;&gt;Node20 -->
<g id="edge28" class="edge">
<title>Node19&#45;&gt;Node20</title>
<path fill="none" stroke="midnightblue" d="M280.7,-224.32C271.68,-216.34 258.09,-204.31 247.18,-194.65"/>
<polygon fill="midnightblue" stroke="midnightblue" points="249.29,-191.84 239.48,-187.83 244.65,-197.08 249.29,-191.84"/>
</g>
</g>
</svg>
