<?xml version="1.0" encoding="UTF-8" standalone="no"?>
<!DOCTYPE svg PUBLIC "-//W3C//DTD SVG 1.1//EN"
 "http://www.w3.org/Graphics/SVG/1.1/DTD/svg11.dtd">
<!-- Generated by graphviz version 2.43.0 (0)
 -->
<!-- Title: afsk_demodulator.cpp Pages: 1 -->
<svg width="1162pt" height="308pt"
 viewBox="0.00 0.00 1162.00 308.00" xmlns="http://www.w3.org/2000/svg" xmlns:xlink="http://www.w3.org/1999/xlink">
<g id="graph0" class="graph" transform="scale(1 1) rotate(0) translate(4 304)">
<title>afsk_demodulator.cpp</title>
<!-- Node1 -->
<g id="node1" class="node">
<title>Node1</title>
<g id="a_node1"><a xlink:title="The AFSK demodulator class implementation.">
<polygon fill="#bfbfbf" stroke="black" points="188.5,-280.5 188.5,-299.5 313.5,-299.5 313.5,-280.5 188.5,-280.5"/>
<text text-anchor="middle" x="251" y="-287.5" font-family="Helvetica,sans-Serif" font-size="10.00">afsk_demodulator.cpp</text>
</a>
</g>
</g>
<!-- Node2 -->
<g id="node2" class="node">
<title>Node2</title>
<g id="a_node2"><a xlink:title=" ">
<polygon fill="none" stroke="#bfbfbf" points="0,-224.5 0,-243.5 64,-243.5 64,-224.5 0,-224.5"/>
<text text-anchor="middle" x="32" y="-231.5" font-family="Helvetica,sans-Serif" font-size="10.00">algorithm</text>
</a>
</g>
</g>
<!-- Node1&#45;&gt;Node2 -->
<g id="edge1" class="edge">
<title>Node1&#45;&gt;Node2</title>
<path fill="none" stroke="midnightblue" d="M216.3,-280.44C177.64,-270.91 115.14,-255.5 73.81,-245.31"/>
<polygon fill="midnightblue" stroke="midnightblue" points="74.59,-241.9 64.05,-242.9 72.92,-248.69 74.59,-241.9"/>
</g>
<!-- Node3 -->
<g id="node3" class="node">
<title>Node3</title>
<g id="a_node3"><a xlink:title=" ">
<polygon fill="none" stroke="#bfbfbf" points="82.5,-224.5 82.5,-243.5 129.5,-243.5 129.5,-224.5 82.5,-224.5"/>
<text text-anchor="middle" x="106" y="-231.5" font-family="Helvetica,sans-Serif" font-size="10.00">cmath</text>
</a>
</g>
</g>
<!-- Node1&#45;&gt;Node3 -->
<g id="edge2" class="edge">
<title>Node1&#45;&gt;Node3</title>
<path fill="none" stroke="midnightblue" d="M228.02,-280.44C203.84,-271.44 165.58,-257.19 138.35,-247.05"/>
<polygon fill="midnightblue" stroke="midnightblue" points="139.46,-243.73 128.87,-243.52 137.02,-250.29 139.46,-243.73"/>
</g>
<!-- Node4 -->
<g id="node4" class="node">
<title>Node4</title>
<g id="a_node4"><a xlink:title=" ">
<polygon fill="none" stroke="#bfbfbf" points="147.5,-224.5 147.5,-243.5 202.5,-243.5 202.5,-224.5 147.5,-224.5"/>
<text text-anchor="middle" x="175" y="-231.5" font-family="Helvetica,sans-Serif" font-size="10.00">fstream</text>
</a>
</g>
</g>
<!-- Node1&#45;&gt;Node4 -->
<g id="edge3" class="edge">
<title>Node1&#45;&gt;Node4</title>
<path fill="none" stroke="midnightblue" d="M238.79,-280.32C227.22,-272.11 209.62,-259.6 195.84,-249.81"/>
<polygon fill="midnightblue" stroke="midnightblue" points="197.61,-246.77 187.43,-243.83 193.56,-252.48 197.61,-246.77"/>
</g>
<!-- Node5 -->
<g id="node5" class="node">
<title>Node5</title>
<g id="a_node5"><a xlink:title=" ">
<polygon fill="none" stroke="#bfbfbf" points="221,-224.5 221,-243.5 281,-243.5 281,-224.5 221,-224.5"/>
<text text-anchor="middle" x="251" y="-231.5" font-family="Helvetica,sans-Serif" font-size="10.00">iostream</text>
</a>
</g>
</g>
<!-- Node1&#45;&gt;Node5 -->
<g id="edge4" class="edge">
<title>Node1&#45;&gt;Node5</title>
<path fill="none" stroke="midnightblue" d="M251,-280.08C251,-273.01 251,-262.86 251,-253.99"/>
<polygon fill="midnightblue" stroke="midnightblue" points="254.5,-253.75 251,-243.75 247.5,-253.75 254.5,-253.75"/>
</g>
<!-- Node6 -->
<g id="node6" class="node">
<title>Node6</title>
<g id="a_node6"><a xlink:href="afsk_8hpp.html" target="_top" xlink:title="AFSK related modulation/demodulation.">
<polygon fill="none" stroke="black" points="583,-224.5 583,-243.5 701,-243.5 701,-224.5 583,-224.5"/>
<text text-anchor="middle" x="642" y="-231.5" font-family="Helvetica,sans-Serif" font-size="10.00">SignalEasel/afsk.hpp</text>
</a>
</g>
</g>
<!-- Node1&#45;&gt;Node6 -->
<g id="edge5" class="edge">
<title>Node1&#45;&gt;Node6</title>
<path fill="none" stroke="midnightblue" d="M312.96,-280.44C383.7,-270.67 499.14,-254.73 572.79,-244.56"/>
<polygon fill="midnightblue" stroke="midnightblue" points="573.47,-248 582.89,-243.16 572.51,-241.06 573.47,-248"/>
</g>
<!-- Node21 -->
<g id="node21" class="node">
<title>Node21</title>
<g id="a_node21"><a xlink:href="exception_8hpp.html" target="_top" xlink:title="SignalEasel exceptions.">
<polygon fill="none" stroke="black" points="299.5,-224.5 299.5,-243.5 444.5,-243.5 444.5,-224.5 299.5,-224.5"/>
<text text-anchor="middle" x="372" y="-231.5" font-family="Helvetica,sans-Serif" font-size="10.00">SignalEasel/exception.hpp</text>
</a>
</g>
</g>
<!-- Node1&#45;&gt;Node21 -->
<g id="edge30" class="edge">
<title>Node1&#45;&gt;Node21</title>
<path fill="none" stroke="midnightblue" d="M270.17,-280.44C289.91,-271.64 320.89,-257.81 343.49,-247.72"/>
<polygon fill="midnightblue" stroke="midnightblue" points="345.21,-250.79 352.92,-243.52 342.36,-244.4 345.21,-250.79"/>
</g>
<!-- Node23 -->
<g id="node23" class="node">
<title>Node23</title>
<g id="a_node23"><a xlink:href="band__pass__filter_8hpp.html" target="_top" xlink:title="Band&#45;pass filter implementation.">
<polygon fill="none" stroke="black" points="1038,-168.5 1038,-187.5 1154,-187.5 1154,-168.5 1038,-168.5"/>
<text text-anchor="middle" x="1096" y="-175.5" font-family="Helvetica,sans-Serif" font-size="10.00">band_pass_filter.hpp</text>
</a>
</g>
</g>
<!-- Node1&#45;&gt;Node23 -->
<g id="edge33" class="edge">
<title>Node1&#45;&gt;Node23</title>
<path fill="none" stroke="midnightblue" d="M313.52,-284.25C402,-277.21 568.72,-262.8 710,-244 828.7,-228.21 966.88,-203.36 1041.48,-189.4"/>
<polygon fill="midnightblue" stroke="midnightblue" points="1042.39,-192.79 1051.57,-187.51 1041.1,-185.91 1042.39,-192.79"/>
</g>
<!-- Node7 -->
<g id="node7" class="node">
<title>Node7</title>
<g id="a_node7"><a xlink:title=" ">
<polygon fill="none" stroke="#bfbfbf" points="820.5,-112.5 820.5,-131.5 867.5,-131.5 867.5,-112.5 820.5,-112.5"/>
<text text-anchor="middle" x="844" y="-119.5" font-family="Helvetica,sans-Serif" font-size="10.00">vector</text>
</a>
</g>
</g>
<!-- Node6&#45;&gt;Node7 -->
<g id="edge6" class="edge">
<title>Node6&#45;&gt;Node7</title>
<path fill="none" stroke="midnightblue" d="M701.03,-224.97C747.5,-217.5 807.28,-204.97 825,-188 837.46,-176.07 841.88,-156.45 843.38,-141.89"/>
<polygon fill="midnightblue" stroke="midnightblue" points="846.9,-141.74 844.06,-131.53 839.91,-141.28 846.9,-141.74"/>
</g>
<!-- Node8 -->
<g id="node8" class="node">
<title>Node8</title>
<g id="a_node8"><a xlink:href="constants_8hpp.html" target="_top" xlink:title="Common constants used throughout the library.">
<polygon fill="none" stroke="black" points="600,-56.5 600,-75.5 744,-75.5 744,-56.5 600,-56.5"/>
<text text-anchor="middle" x="672" y="-63.5" font-family="Helvetica,sans-Serif" font-size="10.00">SignalEasel/constants.hpp</text>
</a>
</g>
</g>
<!-- Node6&#45;&gt;Node8 -->
<g id="edge7" class="edge">
<title>Node6&#45;&gt;Node8</title>
<path fill="none" stroke="midnightblue" d="M643.61,-224.08C648.34,-197.95 662.2,-121.21 668.64,-85.58"/>
<polygon fill="midnightblue" stroke="midnightblue" points="672.12,-86.03 670.45,-75.57 665.23,-84.79 672.12,-86.03"/>
</g>
<!-- Node10 -->
<g id="node10" class="node">
<title>Node10</title>
<g id="a_node10"><a xlink:href="bit__stream_8hpp.html" target="_top" xlink:title="The bit stream class.">
<polygon fill="none" stroke="black" points="871.5,-168.5 871.5,-187.5 1020.5,-187.5 1020.5,-168.5 871.5,-168.5"/>
<text text-anchor="middle" x="946" y="-175.5" font-family="Helvetica,sans-Serif" font-size="10.00">SignalEasel/bit_stream.hpp</text>
</a>
</g>
</g>
<!-- Node6&#45;&gt;Node10 -->
<g id="edge9" class="edge">
<title>Node6&#45;&gt;Node10</title>
<path fill="none" stroke="midnightblue" d="M690.17,-224.44C743.87,-214.9 830.69,-199.48 888.05,-189.29"/>
<polygon fill="midnightblue" stroke="midnightblue" points="888.82,-192.71 898.06,-187.52 887.6,-185.82 888.82,-192.71"/>
</g>
<!-- Node11 -->
<g id="node11" class="node">
<title>Node11</title>
<g id="a_node11"><a xlink:href="demodulator_8hpp.html" target="_top" xlink:title="Base class for demodulators.">
<polygon fill="none" stroke="black" points="456,-168.5 456,-187.5 614,-187.5 614,-168.5 456,-168.5"/>
<text text-anchor="middle" x="535" y="-175.5" font-family="Helvetica,sans-Serif" font-size="10.00">SignalEasel/demodulator.hpp</text>
</a>
</g>
</g>
<!-- Node6&#45;&gt;Node11 -->
<g id="edge12" class="edge">
<title>Node6&#45;&gt;Node11</title>
<path fill="none" stroke="midnightblue" d="M624.81,-224.32C607.65,-215.66 581.05,-202.24 561.25,-192.25"/>
<polygon fill="midnightblue" stroke="midnightblue" points="562.65,-189.04 552.15,-187.65 559.5,-195.28 562.65,-189.04"/>
</g>
<!-- Node14 -->
<g id="node14" class="node">
<title>Node14</title>
<g id="a_node14"><a xlink:href="modulator_8hpp.html" target="_top" xlink:title="Modulator base class.">
<polygon fill="none" stroke="black" points="670,-168.5 670,-187.5 816,-187.5 816,-168.5 670,-168.5"/>
<text text-anchor="middle" x="743" y="-175.5" font-family="Helvetica,sans-Serif" font-size="10.00">SignalEasel/modulator.hpp</text>
</a>
</g>
</g>
<!-- Node6&#45;&gt;Node14 -->
<g id="edge17" class="edge">
<title>Node6&#45;&gt;Node14</title>
<path fill="none" stroke="midnightblue" d="M658.23,-224.32C674.35,-215.7 699.3,-202.36 717.96,-192.39"/>
<polygon fill="midnightblue" stroke="midnightblue" points="719.64,-195.46 726.81,-187.65 716.34,-189.28 719.64,-195.46"/>
</g>
<!-- Node15 -->
<g id="node15" class="node">
<title>Node15</title>
<g id="a_node15"><a xlink:href="receiver_8hpp.html" target="_top" xlink:title="Base class for receivers. Demodulators that use pulse audio.">
<polygon fill="none" stroke="black" points="302,-168.5 302,-187.5 438,-187.5 438,-168.5 302,-168.5"/>
<text text-anchor="middle" x="370" y="-175.5" font-family="Helvetica,sans-Serif" font-size="10.00">SignalEasel/receiver.hpp</text>
</a>
</g>
</g>
<!-- Node6&#45;&gt;Node15 -->
<g id="edge21" class="edge">
<title>Node6&#45;&gt;Node15</title>
<path fill="none" stroke="midnightblue" d="M598.9,-224.44C551.15,-214.96 474.14,-199.67 422.81,-189.48"/>
<polygon fill="midnightblue" stroke="midnightblue" points="423.39,-186.03 412.9,-187.52 422.02,-192.9 423.39,-186.03"/>
</g>
<!-- Node9 -->
<g id="node9" class="node">
<title>Node9</title>
<g id="a_node9"><a xlink:title=" ">
<polygon fill="none" stroke="#bfbfbf" points="812,-0.5 812,-19.5 862,-19.5 862,-0.5 812,-0.5"/>
<text text-anchor="middle" x="837" y="-7.5" font-family="Helvetica,sans-Serif" font-size="10.00">cstdint</text>
</a>
</g>
</g>
<!-- Node8&#45;&gt;Node9 -->
<g id="edge8" class="edge">
<title>Node8&#45;&gt;Node9</title>
<path fill="none" stroke="midnightblue" d="M698.14,-56.44C726.27,-47.24 771.13,-32.56 802.22,-22.38"/>
<polygon fill="midnightblue" stroke="midnightblue" points="803.37,-25.69 811.79,-19.25 801.2,-19.03 803.37,-25.69"/>
</g>
<!-- Node10&#45;&gt;Node7 -->
<g id="edge11" class="edge">
<title>Node10&#45;&gt;Node7</title>
<path fill="none" stroke="midnightblue" d="M929.61,-168.32C913.33,-159.7 888.13,-146.36 869.28,-136.39"/>
<polygon fill="midnightblue" stroke="midnightblue" points="870.82,-133.24 860.35,-131.65 867.55,-139.43 870.82,-133.24"/>
</g>
<!-- Node10&#45;&gt;Node9 -->
<g id="edge10" class="edge">
<title>Node10&#45;&gt;Node9</title>
<path fill="none" stroke="midnightblue" d="M940.14,-168.08C922.76,-141.61 871.28,-63.21 848.3,-28.21"/>
<polygon fill="midnightblue" stroke="midnightblue" points="851.04,-26.01 842.63,-19.57 845.19,-29.85 851.04,-26.01"/>
</g>
<!-- Node11&#45;&gt;Node7 -->
<g id="edge14" class="edge">
<title>Node11&#45;&gt;Node7</title>
<path fill="none" stroke="midnightblue" d="M583.96,-168.44C647.27,-157.38 755.87,-138.4 810.51,-128.85"/>
<polygon fill="midnightblue" stroke="midnightblue" points="811.13,-132.3 820.38,-127.13 809.93,-125.4 811.13,-132.3"/>
</g>
<!-- Node12 -->
<g id="node12" class="node">
<title>Node12</title>
<g id="a_node12"><a xlink:title=" ">
<polygon fill="none" stroke="#bfbfbf" points="269,-56.5 269,-75.5 313,-75.5 313,-56.5 269,-56.5"/>
<text text-anchor="middle" x="291" y="-63.5" font-family="Helvetica,sans-Serif" font-size="10.00">string</text>
</a>
</g>
</g>
<!-- Node11&#45;&gt;Node12 -->
<g id="edge13" class="edge">
<title>Node11&#45;&gt;Node12</title>
<path fill="none" stroke="midnightblue" d="M469.39,-168.5C403.68,-159.35 310.65,-144.45 299,-132 287.72,-119.95 286.66,-100.66 287.86,-86.22"/>
<polygon fill="midnightblue" stroke="midnightblue" points="291.38,-86.27 289.15,-75.91 284.43,-85.4 291.38,-86.27"/>
</g>
<!-- Node13 -->
<g id="node13" class="node">
<title>Node13</title>
<g id="a_node13"><a xlink:href="settings_8hpp.html" target="_top" xlink:title="Settings structures for SignalEasel.">
<polygon fill="none" stroke="black" points="308,-112.5 308,-131.5 444,-131.5 444,-112.5 308,-112.5"/>
<text text-anchor="middle" x="376" y="-119.5" font-family="Helvetica,sans-Serif" font-size="10.00">SignalEasel/settings.hpp</text>
</a>
</g>
</g>
<!-- Node11&#45;&gt;Node13 -->
<g id="edge15" class="edge">
<title>Node11&#45;&gt;Node13</title>
<path fill="none" stroke="midnightblue" d="M509.81,-168.44C483.06,-159.36 440.6,-144.94 410.69,-134.78"/>
<polygon fill="midnightblue" stroke="midnightblue" points="411.67,-131.42 401.08,-131.52 409.42,-138.05 411.67,-131.42"/>
</g>
<!-- Node13&#45;&gt;Node12 -->
<g id="edge16" class="edge">
<title>Node13&#45;&gt;Node12</title>
<path fill="none" stroke="midnightblue" d="M362.34,-112.32C349.08,-103.9 328.73,-90.97 313.15,-81.07"/>
<polygon fill="midnightblue" stroke="midnightblue" points="314.94,-78.06 304.62,-75.65 311.19,-83.97 314.94,-78.06"/>
</g>
<!-- Node14&#45;&gt;Node7 -->
<g id="edge19" class="edge">
<title>Node14&#45;&gt;Node7</title>
<path fill="none" stroke="midnightblue" d="M759.23,-168.32C775.35,-159.7 800.3,-146.36 818.96,-136.39"/>
<polygon fill="midnightblue" stroke="midnightblue" points="820.64,-139.46 827.81,-131.65 817.34,-133.28 820.64,-139.46"/>
</g>
<!-- Node14&#45;&gt;Node9 -->
<g id="edge18" class="edge">
<title>Node14&#45;&gt;Node9</title>
<path fill="none" stroke="midnightblue" d="M748.05,-168.08C762.98,-141.72 807.06,-63.88 827,-28.66"/>
<polygon fill="midnightblue" stroke="midnightblue" points="830.27,-29.99 832.15,-19.57 824.18,-26.55 830.27,-29.99"/>
</g>
<!-- Node14&#45;&gt;Node13 -->
<g id="edge20" class="edge">
<title>Node14&#45;&gt;Node13</title>
<path fill="none" stroke="midnightblue" d="M684.85,-168.44C619.35,-158.81 513.04,-143.16 443.81,-132.98"/>
<polygon fill="midnightblue" stroke="midnightblue" points="444.28,-129.51 433.88,-131.52 443.26,-136.43 444.28,-129.51"/>
</g>
<!-- Node15&#45;&gt;Node13 -->
<g id="edge29" class="edge">
<title>Node15&#45;&gt;Node13</title>
<path fill="none" stroke="midnightblue" d="M370.99,-168.08C371.79,-160.93 372.93,-150.64 373.92,-141.69"/>
<polygon fill="midnightblue" stroke="midnightblue" points="377.4,-142.08 375.03,-131.75 370.44,-141.3 377.4,-142.08"/>
</g>
<!-- Node16 -->
<g id="node16" class="node">
<title>Node16</title>
<g id="a_node16"><a xlink:title=" ">
<polygon fill="none" stroke="#bfbfbf" points="194,-112.5 194,-131.5 252,-131.5 252,-112.5 194,-112.5"/>
<text text-anchor="middle" x="223" y="-119.5" font-family="Helvetica,sans-Serif" font-size="10.00">memory</text>
</a>
</g>
</g>
<!-- Node15&#45;&gt;Node16 -->
<g id="edge22" class="edge">
<title>Node15&#45;&gt;Node16</title>
<path fill="none" stroke="midnightblue" d="M346.71,-168.44C322.19,-159.44 283.4,-145.19 255.8,-135.05"/>
<polygon fill="midnightblue" stroke="midnightblue" points="256.78,-131.68 246.18,-131.52 254.36,-138.25 256.78,-131.68"/>
</g>
<!-- Node17 -->
<g id="node17" class="node">
<title>Node17</title>
<g id="a_node17"><a xlink:href="pulse__audio_8hpp.html" target="_top" xlink:title="Reads audio from pulse audio.">
<polygon fill="none" stroke="black" points="462.5,-112.5 462.5,-131.5 617.5,-131.5 617.5,-112.5 462.5,-112.5"/>
<text text-anchor="middle" x="540" y="-119.5" font-family="Helvetica,sans-Serif" font-size="10.00">SignalEasel/pulse_audio.hpp</text>
</a>
</g>
</g>
<!-- Node15&#45;&gt;Node17 -->
<g id="edge23" class="edge">
<title>Node15&#45;&gt;Node17</title>
<path fill="none" stroke="midnightblue" d="M396.94,-168.44C425.66,-159.32 471.33,-144.81 503.32,-134.65"/>
<polygon fill="midnightblue" stroke="midnightblue" points="504.72,-137.88 513.19,-131.52 502.6,-131.21 504.72,-137.88"/>
</g>
<!-- Node17&#45;&gt;Node8 -->
<g id="edge26" class="edge">
<title>Node17&#45;&gt;Node8</title>
<path fill="none" stroke="midnightblue" d="M560.92,-112.44C582.74,-103.52 617.15,-89.44 641.89,-79.32"/>
<polygon fill="midnightblue" stroke="midnightblue" points="643.25,-82.54 651.18,-75.52 640.6,-76.06 643.25,-82.54"/>
</g>
<!-- Node17&#45;&gt;Node12 -->
<g id="edge25" class="edge">
<title>Node17&#45;&gt;Node12</title>
<path fill="none" stroke="midnightblue" d="M498.7,-112.48C456.12,-103.62 387.83,-89.24 329,-76 327.07,-75.56 325.08,-75.11 323.07,-74.65"/>
<polygon fill="midnightblue" stroke="midnightblue" points="323.62,-71.18 313.08,-72.32 322.03,-78 323.62,-71.18"/>
</g>
<!-- Node18 -->
<g id="node18" class="node">
<title>Node18</title>
<g id="a_node18"><a xlink:title=" ">
<polygon fill="none" stroke="#bfbfbf" points="444,-56.5 444,-75.5 486,-75.5 486,-56.5 444,-56.5"/>
<text text-anchor="middle" x="465" y="-63.5" font-family="Helvetica,sans-Serif" font-size="10.00">array</text>
</a>
</g>
</g>
<!-- Node17&#45;&gt;Node18 -->
<g id="edge24" class="edge">
<title>Node17&#45;&gt;Node18</title>
<path fill="none" stroke="midnightblue" d="M527.95,-112.32C516.54,-104.11 499.17,-91.6 485.57,-81.81"/>
<polygon fill="midnightblue" stroke="midnightblue" points="487.43,-78.84 477.27,-75.83 483.34,-84.52 487.43,-78.84"/>
</g>
<!-- Node19 -->
<g id="node19" class="node">
<title>Node19</title>
<g id="a_node19"><a xlink:title=" ">
<polygon fill="none" stroke="#bfbfbf" points="504.5,-56.5 504.5,-75.5 581.5,-75.5 581.5,-56.5 504.5,-56.5"/>
<text text-anchor="middle" x="543" y="-63.5" font-family="Helvetica,sans-Serif" font-size="10.00">pulse/error.h</text>
</a>
</g>
</g>
<!-- Node17&#45;&gt;Node19 -->
<g id="edge27" class="edge">
<title>Node17&#45;&gt;Node19</title>
<path fill="none" stroke="midnightblue" d="M540.5,-112.08C540.89,-105.01 541.45,-94.86 541.95,-85.99"/>
<polygon fill="midnightblue" stroke="midnightblue" points="545.45,-85.93 542.51,-75.75 538.46,-85.54 545.45,-85.93"/>
</g>
<!-- Node20 -->
<g id="node20" class="node">
<title>Node20</title>
<g id="a_node20"><a xlink:title=" ">
<polygon fill="none" stroke="#bfbfbf" points="338,-56.5 338,-75.5 426,-75.5 426,-56.5 338,-56.5"/>
<text text-anchor="middle" x="382" y="-63.5" font-family="Helvetica,sans-Serif" font-size="10.00">pulse/simple.h</text>
</a>
</g>
</g>
<!-- Node17&#45;&gt;Node20 -->
<g id="edge28" class="edge">
<title>Node17&#45;&gt;Node20</title>
<path fill="none" stroke="midnightblue" d="M514.96,-112.44C488.38,-103.36 446.19,-88.94 416.48,-78.78"/>
<polygon fill="midnightblue" stroke="midnightblue" points="417.51,-75.44 406.92,-75.52 415.25,-82.06 417.51,-75.44"/>
</g>
<!-- Node21&#45;&gt;Node12 -->
<g id="edge32" class="edge">
<title>Node21&#45;&gt;Node12</title>
<path fill="none" stroke="midnightblue" d="M323.51,-224.42C281.92,-216.22 226.09,-202.91 209,-188 188.6,-170.19 190.44,-158.53 185,-132 183.21,-123.29 180.09,-119.41 185,-112 201.22,-87.49 233.76,-76.29 258.54,-71.2"/>
<polygon fill="midnightblue" stroke="midnightblue" points="259.39,-74.6 268.61,-69.37 258.14,-67.71 259.39,-74.6"/>
</g>
<!-- Node22 -->
<g id="node22" class="node">
<title>Node22</title>
<g id="a_node22"><a xlink:title=" ">
<polygon fill="none" stroke="#bfbfbf" points="218.5,-168.5 218.5,-187.5 283.5,-187.5 283.5,-168.5 218.5,-168.5"/>
<text text-anchor="middle" x="251" y="-175.5" font-family="Helvetica,sans-Serif" font-size="10.00">exception</text>
</a>
</g>
</g>
<!-- Node21&#45;&gt;Node22 -->
<g id="edge31" class="edge">
<title>Node21&#45;&gt;Node22</title>
<path fill="none" stroke="midnightblue" d="M352.83,-224.44C333.09,-215.64 302.11,-201.81 279.51,-191.72"/>
<polygon fill="midnightblue" stroke="midnightblue" points="280.64,-188.4 270.08,-187.52 277.79,-194.79 280.64,-188.4"/>
</g>
<!-- Node23&#45;&gt;Node7 -->
<g id="edge35" class="edge">
<title>Node23&#45;&gt;Node7</title>
<path fill="none" stroke="midnightblue" d="M1056.07,-168.44C1006.78,-157.88 923.84,-140.11 877.64,-130.21"/>
<polygon fill="midnightblue" stroke="midnightblue" points="878.33,-126.78 867.82,-128.1 876.86,-133.62 878.33,-126.78"/>
</g>
<!-- Node23&#45;&gt;Node9 -->
<g id="edge34" class="edge">
<title>Node23&#45;&gt;Node9</title>
<path fill="none" stroke="midnightblue" d="M1082.44,-168.31C1040.22,-141.25 910.84,-58.32 858.91,-25.04"/>
<polygon fill="midnightblue" stroke="midnightblue" points="860.73,-22.05 850.43,-19.61 856.96,-27.95 860.73,-22.05"/>
</g>
</g>
</svg>
