<?xml version="1.0" encoding="UTF-8" standalone="no"?>
<!DOCTYPE svg PUBLIC "-//W3C//DTD SVG 1.1//EN"
 "http://www.w3.org/Graphics/SVG/1.1/DTD/svg11.dtd">
<!-- Generated by graphviz version 2.43.0 (0)
 -->
<!-- Title: afsk_test.cpp Pages: 1 -->
<svg width="891pt" height="308pt"
 viewBox="0.00 0.00 890.50 308.00" xmlns="http://www.w3.org/2000/svg" xmlns:xlink="http://www.w3.org/1999/xlink">
<g id="graph0" class="graph" transform="scale(1 1) rotate(0) translate(4 304)">
<title>afsk_test.cpp</title>
<!-- Node1 -->
<g id="node1" class="node">
<title>Node1</title>
<g id="a_node1"><a xlink:title=" ">
<polygon fill="#bfbfbf" stroke="black" points="95,-280.5 95,-299.5 177,-299.5 177,-280.5 95,-280.5"/>
<text text-anchor="middle" x="136" y="-287.5" font-family="Helvetica,sans-Serif" font-size="10.00">afsk_test.cpp</text>
</a>
</g>
</g>
<!-- Node2 -->
<g id="node2" class="node">
<title>Node2</title>
<g id="a_node2"><a xlink:title=" ">
<polygon fill="none" stroke="#bfbfbf" points="30,-224.5 30,-243.5 108,-243.5 108,-224.5 30,-224.5"/>
<text text-anchor="middle" x="69" y="-231.5" font-family="Helvetica,sans-Serif" font-size="10.00">gtest/gtest.h</text>
</a>
</g>
</g>
<!-- Node1&#45;&gt;Node2 -->
<g id="edge1" class="edge">
<title>Node1&#45;&gt;Node2</title>
<path fill="none" stroke="midnightblue" d="M125.24,-280.32C115.23,-272.26 100.11,-260.08 88.07,-250.37"/>
<polygon fill="midnightblue" stroke="midnightblue" points="89.94,-247.38 79.96,-243.83 85.55,-252.83 89.94,-247.38"/>
</g>
<!-- Node3 -->
<g id="node3" class="node">
<title>Node3</title>
<g id="a_node3"><a xlink:title=" ">
<polygon fill="none" stroke="#bfbfbf" points="424,-56.5 424,-75.5 468,-75.5 468,-56.5 424,-56.5"/>
<text text-anchor="middle" x="446" y="-63.5" font-family="Helvetica,sans-Serif" font-size="10.00">string</text>
</a>
</g>
</g>
<!-- Node1&#45;&gt;Node3 -->
<g id="edge2" class="edge">
<title>Node1&#45;&gt;Node3</title>
<path fill="none" stroke="midnightblue" d="M137.7,-280.33C142.46,-258.4 157.89,-200.14 193,-168 227.23,-136.67 248.6,-150.85 291,-132 308.44,-124.25 311.62,-119.88 329,-112 357.27,-99.18 390.35,-86.68 414.12,-78.12"/>
<polygon fill="midnightblue" stroke="midnightblue" points="415.45,-81.36 423.69,-74.7 413.09,-74.77 415.45,-81.36"/>
</g>
<!-- Node4 -->
<g id="node4" class="node">
<title>Node4</title>
<g id="a_node4"><a xlink:href="afsk_8hpp.html" target="_top" xlink:title="AFSK related modulation/demodulation.">
<polygon fill="none" stroke="black" points="376,-224.5 376,-243.5 494,-243.5 494,-224.5 376,-224.5"/>
<text text-anchor="middle" x="435" y="-231.5" font-family="Helvetica,sans-Serif" font-size="10.00">SignalEasel/afsk.hpp</text>
</a>
</g>
</g>
<!-- Node1&#45;&gt;Node4 -->
<g id="edge3" class="edge">
<title>Node1&#45;&gt;Node4</title>
<path fill="none" stroke="midnightblue" d="M177.26,-281.55C229.36,-272.14 319.25,-255.91 377.91,-245.31"/>
<polygon fill="midnightblue" stroke="midnightblue" points="378.54,-248.75 387.76,-243.53 377.3,-241.86 378.54,-248.75"/>
</g>
<!-- Node5 -->
<g id="node5" class="node">
<title>Node5</title>
<g id="a_node5"><a xlink:title=" ">
<polygon fill="none" stroke="#bfbfbf" points="663.5,-112.5 663.5,-131.5 710.5,-131.5 710.5,-112.5 663.5,-112.5"/>
<text text-anchor="middle" x="687" y="-119.5" font-family="Helvetica,sans-Serif" font-size="10.00">vector</text>
</a>
</g>
</g>
<!-- Node4&#45;&gt;Node5 -->
<g id="edge4" class="edge">
<title>Node4&#45;&gt;Node5</title>
<path fill="none" stroke="midnightblue" d="M494.18,-230.92C560.79,-227.18 662.89,-216.79 687,-188 697.62,-175.31 696.08,-155.84 692.82,-141.51"/>
<polygon fill="midnightblue" stroke="midnightblue" points="696.17,-140.49 690.16,-131.75 689.41,-142.32 696.17,-140.49"/>
</g>
<!-- Node6 -->
<g id="node6" class="node">
<title>Node6</title>
<g id="a_node6"><a xlink:href="constants_8hpp.html" target="_top" xlink:title="Common constants used throughout the library.">
<polygon fill="none" stroke="black" points="0,-56.5 0,-75.5 144,-75.5 144,-56.5 0,-56.5"/>
<text text-anchor="middle" x="72" y="-63.5" font-family="Helvetica,sans-Serif" font-size="10.00">SignalEasel/constants.hpp</text>
</a>
</g>
</g>
<!-- Node4&#45;&gt;Node6 -->
<g id="edge5" class="edge">
<title>Node4&#45;&gt;Node6</title>
<path fill="none" stroke="midnightblue" d="M375.89,-229.44C325.51,-224.69 252.1,-213.65 193,-188 154.51,-171.3 146.23,-162.1 117,-132 103,-117.58 90.29,-98.38 81.98,-84.6"/>
<polygon fill="midnightblue" stroke="midnightblue" points="84.82,-82.52 76.74,-75.66 78.78,-86.06 84.82,-82.52"/>
</g>
<!-- Node8 -->
<g id="node8" class="node">
<title>Node8</title>
<g id="a_node8"><a xlink:href="bit__stream_8hpp.html" target="_top" xlink:title="The bit stream class.">
<polygon fill="none" stroke="black" points="733.5,-168.5 733.5,-187.5 882.5,-187.5 882.5,-168.5 733.5,-168.5"/>
<text text-anchor="middle" x="808" y="-175.5" font-family="Helvetica,sans-Serif" font-size="10.00">SignalEasel/bit_stream.hpp</text>
</a>
</g>
</g>
<!-- Node4&#45;&gt;Node8 -->
<g id="edge7" class="edge">
<title>Node4&#45;&gt;Node8</title>
<path fill="none" stroke="midnightblue" d="M494.1,-224.44C560.67,-214.81 668.72,-199.16 739.08,-188.98"/>
<polygon fill="midnightblue" stroke="midnightblue" points="739.78,-192.41 749.17,-187.52 738.78,-185.49 739.78,-192.41"/>
</g>
<!-- Node9 -->
<g id="node9" class="node">
<title>Node9</title>
<g id="a_node9"><a xlink:href="demodulator_8hpp.html" target="_top" xlink:title="Base class for demodulators.">
<polygon fill="none" stroke="black" points="356,-168.5 356,-187.5 514,-187.5 514,-168.5 356,-168.5"/>
<text text-anchor="middle" x="435" y="-175.5" font-family="Helvetica,sans-Serif" font-size="10.00">SignalEasel/demodulator.hpp</text>
</a>
</g>
</g>
<!-- Node4&#45;&gt;Node9 -->
<g id="edge10" class="edge">
<title>Node4&#45;&gt;Node9</title>
<path fill="none" stroke="midnightblue" d="M435,-224.08C435,-217.01 435,-206.86 435,-197.99"/>
<polygon fill="midnightblue" stroke="midnightblue" points="438.5,-197.75 435,-187.75 431.5,-197.75 438.5,-197.75"/>
</g>
<!-- Node11 -->
<g id="node11" class="node">
<title>Node11</title>
<g id="a_node11"><a xlink:href="modulator_8hpp.html" target="_top" xlink:title="Modulator base class.">
<polygon fill="none" stroke="black" points="532,-168.5 532,-187.5 678,-187.5 678,-168.5 532,-168.5"/>
<text text-anchor="middle" x="605" y="-175.5" font-family="Helvetica,sans-Serif" font-size="10.00">SignalEasel/modulator.hpp</text>
</a>
</g>
</g>
<!-- Node4&#45;&gt;Node11 -->
<g id="edge15" class="edge">
<title>Node4&#45;&gt;Node11</title>
<path fill="none" stroke="midnightblue" d="M461.94,-224.44C490.66,-215.32 536.33,-200.81 568.32,-190.65"/>
<polygon fill="midnightblue" stroke="midnightblue" points="569.72,-193.88 578.19,-187.52 567.6,-187.21 569.72,-193.88"/>
</g>
<!-- Node12 -->
<g id="node12" class="node">
<title>Node12</title>
<g id="a_node12"><a xlink:href="receiver_8hpp.html" target="_top" xlink:title="Base class for receivers. Demodulators that use pulse audio.">
<polygon fill="none" stroke="black" points="202,-168.5 202,-187.5 338,-187.5 338,-168.5 202,-168.5"/>
<text text-anchor="middle" x="270" y="-175.5" font-family="Helvetica,sans-Serif" font-size="10.00">SignalEasel/receiver.hpp</text>
</a>
</g>
</g>
<!-- Node4&#45;&gt;Node12 -->
<g id="edge19" class="edge">
<title>Node4&#45;&gt;Node12</title>
<path fill="none" stroke="midnightblue" d="M408.86,-224.44C380.98,-215.32 336.65,-200.81 305.6,-190.65"/>
<polygon fill="midnightblue" stroke="midnightblue" points="306.62,-187.3 296.02,-187.52 304.44,-193.95 306.62,-187.3"/>
</g>
<!-- Node7 -->
<g id="node7" class="node">
<title>Node7</title>
<g id="a_node7"><a xlink:title=" ">
<polygon fill="none" stroke="#bfbfbf" points="591,-0.5 591,-19.5 641,-19.5 641,-0.5 591,-0.5"/>
<text text-anchor="middle" x="616" y="-7.5" font-family="Helvetica,sans-Serif" font-size="10.00">cstdint</text>
</a>
</g>
</g>
<!-- Node6&#45;&gt;Node7 -->
<g id="edge6" class="edge">
<title>Node6&#45;&gt;Node7</title>
<path fill="none" stroke="midnightblue" d="M144.42,-56.9C147.32,-56.6 150.19,-56.29 153,-56 312.57,-39.38 503.3,-21.46 580.73,-14.26"/>
<polygon fill="midnightblue" stroke="midnightblue" points="581.26,-17.73 590.89,-13.32 580.61,-10.76 581.26,-17.73"/>
</g>
<!-- Node8&#45;&gt;Node5 -->
<g id="edge9" class="edge">
<title>Node8&#45;&gt;Node5</title>
<path fill="none" stroke="midnightblue" d="M788.83,-168.44C769.09,-159.64 738.11,-145.81 715.51,-135.72"/>
<polygon fill="midnightblue" stroke="midnightblue" points="716.64,-132.4 706.08,-131.52 713.79,-138.79 716.64,-132.4"/>
</g>
<!-- Node8&#45;&gt;Node7 -->
<g id="edge8" class="edge">
<title>Node8&#45;&gt;Node7</title>
<path fill="none" stroke="midnightblue" d="M797.95,-168.31C767.1,-141.64 673.5,-60.72 633.95,-26.52"/>
<polygon fill="midnightblue" stroke="midnightblue" points="635.81,-23.5 625.95,-19.61 631.23,-28.79 635.81,-23.5"/>
</g>
<!-- Node9&#45;&gt;Node3 -->
<g id="edge11" class="edge">
<title>Node9&#45;&gt;Node3</title>
<path fill="none" stroke="midnightblue" d="M435.86,-168.37C437.64,-150.62 441.73,-109.67 444.14,-85.6"/>
<polygon fill="midnightblue" stroke="midnightblue" points="447.63,-85.89 445.14,-75.59 440.66,-85.19 447.63,-85.89"/>
</g>
<!-- Node9&#45;&gt;Node5 -->
<g id="edge12" class="edge">
<title>Node9&#45;&gt;Node5</title>
<path fill="none" stroke="midnightblue" d="M474.93,-168.44C524.22,-157.88 607.16,-140.11 653.36,-130.21"/>
<polygon fill="midnightblue" stroke="midnightblue" points="654.14,-133.62 663.18,-128.1 652.67,-126.78 654.14,-133.62"/>
</g>
<!-- Node10 -->
<g id="node10" class="node">
<title>Node10</title>
<g id="a_node10"><a xlink:href="settings_8hpp.html" target="_top" xlink:title="Settings structures for SignalEasel.">
<polygon fill="none" stroke="black" points="452,-112.5 452,-131.5 588,-131.5 588,-112.5 452,-112.5"/>
<text text-anchor="middle" x="520" y="-119.5" font-family="Helvetica,sans-Serif" font-size="10.00">SignalEasel/settings.hpp</text>
</a>
</g>
</g>
<!-- Node9&#45;&gt;Node10 -->
<g id="edge13" class="edge">
<title>Node9&#45;&gt;Node10</title>
<path fill="none" stroke="midnightblue" d="M448.66,-168.32C461.92,-159.9 482.27,-146.97 497.85,-137.07"/>
<polygon fill="midnightblue" stroke="midnightblue" points="499.81,-139.97 506.38,-131.65 496.06,-134.06 499.81,-139.97"/>
</g>
<!-- Node10&#45;&gt;Node3 -->
<g id="edge14" class="edge">
<title>Node10&#45;&gt;Node3</title>
<path fill="none" stroke="midnightblue" d="M508.11,-112.32C496.85,-104.11 479.71,-91.6 466.29,-81.81"/>
<polygon fill="midnightblue" stroke="midnightblue" points="468.25,-78.9 458.11,-75.83 464.12,-84.56 468.25,-78.9"/>
</g>
<!-- Node11&#45;&gt;Node5 -->
<g id="edge17" class="edge">
<title>Node11&#45;&gt;Node5</title>
<path fill="none" stroke="midnightblue" d="M618.17,-168.32C630.85,-159.98 650.23,-147.21 665.21,-137.35"/>
<polygon fill="midnightblue" stroke="midnightblue" points="667.43,-140.08 673.86,-131.65 663.58,-134.23 667.43,-140.08"/>
</g>
<!-- Node11&#45;&gt;Node7 -->
<g id="edge16" class="edge">
<title>Node11&#45;&gt;Node7</title>
<path fill="none" stroke="midnightblue" d="M605.59,-168.08C607.32,-141.95 612.41,-65.21 614.77,-29.58"/>
<polygon fill="midnightblue" stroke="midnightblue" points="618.26,-29.78 615.43,-19.57 611.28,-29.31 618.26,-29.78"/>
</g>
<!-- Node11&#45;&gt;Node10 -->
<g id="edge18" class="edge">
<title>Node11&#45;&gt;Node10</title>
<path fill="none" stroke="midnightblue" d="M591.34,-168.32C578.08,-159.9 557.73,-146.97 542.15,-137.07"/>
<polygon fill="midnightblue" stroke="midnightblue" points="543.94,-134.06 533.62,-131.65 540.19,-139.97 543.94,-134.06"/>
</g>
<!-- Node12&#45;&gt;Node10 -->
<g id="edge27" class="edge">
<title>Node12&#45;&gt;Node10</title>
<path fill="none" stroke="midnightblue" d="M309.61,-168.44C353.23,-159.02 423.4,-143.87 470.58,-133.68"/>
<polygon fill="midnightblue" stroke="midnightblue" points="471.54,-137.05 480.57,-131.52 470.06,-130.21 471.54,-137.05"/>
</g>
<!-- Node13 -->
<g id="node13" class="node">
<title>Node13</title>
<g id="a_node13"><a xlink:title=" ">
<polygon fill="none" stroke="#bfbfbf" points="338,-112.5 338,-131.5 396,-131.5 396,-112.5 338,-112.5"/>
<text text-anchor="middle" x="367" y="-119.5" font-family="Helvetica,sans-Serif" font-size="10.00">memory</text>
</a>
</g>
</g>
<!-- Node12&#45;&gt;Node13 -->
<g id="edge20" class="edge">
<title>Node12&#45;&gt;Node13</title>
<path fill="none" stroke="midnightblue" d="M285.58,-168.32C301,-159.74 324.81,-146.49 342.71,-136.52"/>
<polygon fill="midnightblue" stroke="midnightblue" points="344.42,-139.58 351.45,-131.65 341.01,-133.46 344.42,-139.58"/>
</g>
<!-- Node14 -->
<g id="node14" class="node">
<title>Node14</title>
<g id="a_node14"><a xlink:href="pulse__audio_8hpp.html" target="_top" xlink:title="Reads audio from pulse audio.">
<polygon fill="none" stroke="black" points="126.5,-112.5 126.5,-131.5 281.5,-131.5 281.5,-112.5 126.5,-112.5"/>
<text text-anchor="middle" x="204" y="-119.5" font-family="Helvetica,sans-Serif" font-size="10.00">SignalEasel/pulse_audio.hpp</text>
</a>
</g>
</g>
<!-- Node12&#45;&gt;Node14 -->
<g id="edge21" class="edge">
<title>Node12&#45;&gt;Node14</title>
<path fill="none" stroke="midnightblue" d="M259.4,-168.32C249.54,-160.26 234.65,-148.08 222.78,-138.37"/>
<polygon fill="midnightblue" stroke="midnightblue" points="224.75,-135.46 214.8,-131.83 220.32,-140.88 224.75,-135.46"/>
</g>
<!-- Node14&#45;&gt;Node3 -->
<g id="edge23" class="edge">
<title>Node14&#45;&gt;Node3</title>
<path fill="none" stroke="midnightblue" d="M248.67,-112.45C289.35,-104.44 351.28,-91.72 413.69,-76.2"/>
<polygon fill="midnightblue" stroke="midnightblue" points="414.85,-79.51 423.7,-73.68 413.15,-72.72 414.85,-79.51"/>
</g>
<!-- Node14&#45;&gt;Node6 -->
<g id="edge24" class="edge">
<title>Node14&#45;&gt;Node6</title>
<path fill="none" stroke="midnightblue" d="M183.08,-112.44C161.26,-103.52 126.85,-89.44 102.11,-79.32"/>
<polygon fill="midnightblue" stroke="midnightblue" points="103.4,-76.06 92.82,-75.52 100.75,-82.54 103.4,-76.06"/>
</g>
<!-- Node15 -->
<g id="node15" class="node">
<title>Node15</title>
<g id="a_node15"><a xlink:title=" ">
<polygon fill="none" stroke="#bfbfbf" points="162,-56.5 162,-75.5 204,-75.5 204,-56.5 162,-56.5"/>
<text text-anchor="middle" x="183" y="-63.5" font-family="Helvetica,sans-Serif" font-size="10.00">array</text>
</a>
</g>
</g>
<!-- Node14&#45;&gt;Node15 -->
<g id="edge22" class="edge">
<title>Node14&#45;&gt;Node15</title>
<path fill="none" stroke="midnightblue" d="M200.53,-112.08C197.69,-104.77 193.57,-94.18 190.04,-85.1"/>
<polygon fill="midnightblue" stroke="midnightblue" points="193.29,-83.8 186.4,-75.75 186.77,-86.34 193.29,-83.8"/>
</g>
<!-- Node16 -->
<g id="node16" class="node">
<title>Node16</title>
<g id="a_node16"><a xlink:title=" ">
<polygon fill="none" stroke="#bfbfbf" points="222.5,-56.5 222.5,-75.5 299.5,-75.5 299.5,-56.5 222.5,-56.5"/>
<text text-anchor="middle" x="261" y="-63.5" font-family="Helvetica,sans-Serif" font-size="10.00">pulse/error.h</text>
</a>
</g>
</g>
<!-- Node14&#45;&gt;Node16 -->
<g id="edge25" class="edge">
<title>Node14&#45;&gt;Node16</title>
<path fill="none" stroke="midnightblue" d="M213.16,-112.32C221.5,-104.42 234.03,-92.55 244.18,-82.94"/>
<polygon fill="midnightblue" stroke="midnightblue" points="246.82,-85.25 251.68,-75.83 242.01,-80.17 246.82,-85.25"/>
</g>
<!-- Node17 -->
<g id="node17" class="node">
<title>Node17</title>
<g id="a_node17"><a xlink:title=" ">
<polygon fill="none" stroke="#bfbfbf" points="318,-56.5 318,-75.5 406,-75.5 406,-56.5 318,-56.5"/>
<text text-anchor="middle" x="362" y="-63.5" font-family="Helvetica,sans-Serif" font-size="10.00">pulse/simple.h</text>
</a>
</g>
</g>
<!-- Node14&#45;&gt;Node17 -->
<g id="edge26" class="edge">
<title>Node14&#45;&gt;Node17</title>
<path fill="none" stroke="midnightblue" d="M229.04,-112.44C255.62,-103.36 297.81,-88.94 327.52,-78.78"/>
<polygon fill="midnightblue" stroke="midnightblue" points="328.75,-82.06 337.08,-75.52 326.49,-75.44 328.75,-82.06"/>
</g>
</g>
</svg>
