<?xml version="1.0" encoding="UTF-8" standalone="no"?>
<!DOCTYPE svg PUBLIC "-//W3C//DTD SVG 1.1//EN"
 "http://www.w3.org/Graphics/SVG/1.1/DTD/svg11.dtd">
<!-- Generated by graphviz version 2.43.0 (0)
 -->
<!-- Title: afsk.hpp Pages: 1 -->
<svg width="852pt" height="140pt"
 viewBox="0.00 0.00 852.00 140.00" xmlns="http://www.w3.org/2000/svg" xmlns:xlink="http://www.w3.org/1999/xlink">
<g id="graph0" class="graph" transform="scale(1 1) rotate(0) translate(4 136)">
<title>afsk.hpp</title>
<!-- Node1 -->
<g id="node1" class="node">
<title>Node1</title>
<g id="a_node1"><a xlink:title="AFSK related modulation/demodulation.">
<polygon fill="#bfbfbf" stroke="black" points="351,-112.5 351,-131.5 410,-131.5 410,-112.5 351,-112.5"/>
<text text-anchor="middle" x="380.5" y="-119.5" font-family="Helvetica,sans-Serif" font-size="10.00">afsk.hpp</text>
</a>
</g>
</g>
<!-- Node2 -->
<g id="node2" class="node">
<title>Node2</title>
<g id="a_node2"><a xlink:href="afsk__demodulator_8cpp.html" target="_top" xlink:title="The AFSK demodulator class implementation.">
<polygon fill="none" stroke="black" points="0,-56.5 0,-75.5 125,-75.5 125,-56.5 0,-56.5"/>
<text text-anchor="middle" x="62.5" y="-63.5" font-family="Helvetica,sans-Serif" font-size="10.00">afsk_demodulator.cpp</text>
</a>
</g>
</g>
<!-- Node1&#45;&gt;Node2 -->
<g id="edge1" class="edge">
<title>Node1&#45;&gt;Node2</title>
<path fill="none" stroke="midnightblue" d="M340.67,-114.24C282.86,-104.42 175.73,-86.23 112.63,-75.51"/>
<polygon fill="midnightblue" stroke="midnightblue" points="340.42,-117.74 350.87,-115.97 341.6,-110.84 340.42,-117.74"/>
</g>
<!-- Node3 -->
<g id="node3" class="node">
<title>Node3</title>
<g id="a_node3"><a xlink:href="afsk__modulator_8cpp.html" target="_top" xlink:title="The AFSK modulator class implementation.">
<polygon fill="none" stroke="black" points="143,-56.5 143,-75.5 256,-75.5 256,-56.5 143,-56.5"/>
<text text-anchor="middle" x="199.5" y="-63.5" font-family="Helvetica,sans-Serif" font-size="10.00">afsk_modulator.cpp</text>
</a>
</g>
</g>
<!-- Node1&#45;&gt;Node3 -->
<g id="edge2" class="edge">
<title>Node1&#45;&gt;Node3</title>
<path fill="none" stroke="midnightblue" d="M342.18,-109.57C308.04,-99.38 258.84,-84.7 228.05,-75.52"/>
<polygon fill="midnightblue" stroke="midnightblue" points="341.24,-112.94 351.82,-112.44 343.24,-106.23 341.24,-112.94"/>
</g>
<!-- Node4 -->
<g id="node4" class="node">
<title>Node4</title>
<g id="a_node4"><a xlink:href="afsk__receiver_8cpp.html" target="_top" xlink:title="Implementation of the AFSK receiver class.">
<polygon fill="none" stroke="black" points="274.5,-56.5 274.5,-75.5 376.5,-75.5 376.5,-56.5 274.5,-56.5"/>
<text text-anchor="middle" x="325.5" y="-63.5" font-family="Helvetica,sans-Serif" font-size="10.00">afsk_receiver.cpp</text>
</a>
</g>
</g>
<!-- Node1&#45;&gt;Node4 -->
<g id="edge3" class="edge">
<title>Node1&#45;&gt;Node4</title>
<path fill="none" stroke="midnightblue" d="M364.21,-105C354.46,-95.43 342.45,-83.64 334.41,-75.75"/>
<polygon fill="midnightblue" stroke="midnightblue" points="361.83,-107.57 371.42,-112.08 366.73,-102.58 361.83,-107.57"/>
</g>
<!-- Node5 -->
<g id="node5" class="node">
<title>Node5</title>
<g id="a_node5"><a xlink:href="afsk__test_8cpp.html" target="_top" xlink:title=" ">
<polygon fill="none" stroke="black" points="394.5,-56.5 394.5,-75.5 476.5,-75.5 476.5,-56.5 394.5,-56.5"/>
<text text-anchor="middle" x="435.5" y="-63.5" font-family="Helvetica,sans-Serif" font-size="10.00">afsk_test.cpp</text>
</a>
</g>
</g>
<!-- Node1&#45;&gt;Node5 -->
<g id="edge4" class="edge">
<title>Node1&#45;&gt;Node5</title>
<path fill="none" stroke="midnightblue" d="M396.79,-105C406.54,-95.43 418.55,-83.64 426.59,-75.75"/>
<polygon fill="midnightblue" stroke="midnightblue" points="394.27,-102.58 389.58,-112.08 399.17,-107.57 394.27,-102.58"/>
</g>
<!-- Node6 -->
<g id="node6" class="node">
<title>Node6</title>
<g id="a_node6"><a xlink:href="aprs_8hpp.html" target="_top" xlink:title=" ">
<polygon fill="none" stroke="black" points="495,-56.5 495,-75.5 554,-75.5 554,-56.5 495,-56.5"/>
<text text-anchor="middle" x="524.5" y="-63.5" font-family="Helvetica,sans-Serif" font-size="10.00">aprs.hpp</text>
</a>
</g>
</g>
<!-- Node1&#45;&gt;Node6 -->
<g id="edge5" class="edge">
<title>Node1&#45;&gt;Node6</title>
<path fill="none" stroke="midnightblue" d="M412.75,-108.91C439.82,-98.75 477.82,-84.51 501.79,-75.52"/>
<polygon fill="midnightblue" stroke="midnightblue" points="411.45,-105.66 403.32,-112.44 413.91,-112.21 411.45,-105.66"/>
</g>
<!-- Node13 -->
<g id="node13" class="node">
<title>Node13</title>
<g id="a_node13"><a xlink:href="pulse__test_8cpp.html" target="_top" xlink:title="PulseAudio output test. Does not use gtest.">
<polygon fill="none" stroke="black" points="757,-0.5 757,-19.5 844,-19.5 844,-0.5 757,-0.5"/>
<text text-anchor="middle" x="800.5" y="-7.5" font-family="Helvetica,sans-Serif" font-size="10.00">pulse_test.cpp</text>
</a>
</g>
</g>
<!-- Node1&#45;&gt;Node13 -->
<g id="edge13" class="edge">
<title>Node1&#45;&gt;Node13</title>
<path fill="none" stroke="midnightblue" d="M420.06,-111.51C456.97,-102.59 513.55,-88.73 562.5,-76 637.32,-56.54 724.95,-32.21 770.13,-19.55"/>
<polygon fill="midnightblue" stroke="midnightblue" points="419.09,-108.14 410.19,-113.89 420.73,-114.95 419.09,-108.14"/>
</g>
<!-- Node7 -->
<g id="node7" class="node">
<title>Node7</title>
<g id="a_node7"><a xlink:href="aprs_8cpp.html" target="_top" xlink:title="APRS implementation.">
<polygon fill="none" stroke="black" points="60.5,-0.5 60.5,-19.5 118.5,-19.5 118.5,-0.5 60.5,-0.5"/>
<text text-anchor="middle" x="89.5" y="-7.5" font-family="Helvetica,sans-Serif" font-size="10.00">aprs.cpp</text>
</a>
</g>
</g>
<!-- Node6&#45;&gt;Node7 -->
<g id="edge6" class="edge">
<title>Node6&#45;&gt;Node7</title>
<path fill="none" stroke="midnightblue" d="M484.64,-56.08C325.93,-30.63 281.97,-45.94 127.5,-20 124.69,-19.53 121.78,-18.97 118.88,-18.36"/>
<polygon fill="midnightblue" stroke="midnightblue" points="484.33,-59.57 494.77,-57.73 485.46,-52.66 484.33,-59.57"/>
</g>
<!-- Node8 -->
<g id="node8" class="node">
<title>Node8</title>
<g id="a_node8"><a xlink:href="aprs__demodulator_8cpp.html" target="_top" xlink:title="Implementation of the APRS demodulator class.">
<polygon fill="none" stroke="black" points="137,-0.5 137,-19.5 262,-19.5 262,-0.5 137,-0.5"/>
<text text-anchor="middle" x="199.5" y="-7.5" font-family="Helvetica,sans-Serif" font-size="10.00">aprs_demodulator.cpp</text>
</a>
</g>
</g>
<!-- Node6&#45;&gt;Node8 -->
<g id="edge7" class="edge">
<title>Node6&#45;&gt;Node8</title>
<path fill="none" stroke="midnightblue" d="M484.92,-56C402.17,-40.14 317.8,-27.45 261.93,-19.52"/>
<polygon fill="midnightblue" stroke="midnightblue" points="484.25,-59.44 494.74,-57.9 485.58,-52.57 484.25,-59.44"/>
</g>
<!-- Node9 -->
<g id="node9" class="node">
<title>Node9</title>
<g id="a_node9"><a xlink:href="aprs__encoders_8cpp.html" target="_top" xlink:title="Encoding functions for APRS packets.">
<polygon fill="none" stroke="black" points="280,-0.5 280,-19.5 387,-19.5 387,-0.5 280,-0.5"/>
<text text-anchor="middle" x="333.5" y="-7.5" font-family="Helvetica,sans-Serif" font-size="10.00">aprs_encoders.cpp</text>
</a>
</g>
</g>
<!-- Node6&#45;&gt;Node9 -->
<g id="edge8" class="edge">
<title>Node6&#45;&gt;Node9</title>
<path fill="none" stroke="midnightblue" d="M484.96,-53.82C448.95,-43.64 396.54,-28.82 363.76,-19.56"/>
<polygon fill="midnightblue" stroke="midnightblue" points="484.08,-57.21 494.66,-56.56 485.99,-50.47 484.08,-57.21"/>
</g>
<!-- Node10 -->
<g id="node10" class="node">
<title>Node10</title>
<g id="a_node10"><a xlink:href="aprs__modulator_8cpp.html" target="_top" xlink:title="Implementation of the APRS modulator class.">
<polygon fill="none" stroke="black" points="405,-0.5 405,-19.5 518,-19.5 518,-0.5 405,-0.5"/>
<text text-anchor="middle" x="461.5" y="-7.5" font-family="Helvetica,sans-Serif" font-size="10.00">aprs_modulator.cpp</text>
</a>
</g>
</g>
<!-- Node6&#45;&gt;Node10 -->
<g id="edge9" class="edge">
<title>Node6&#45;&gt;Node10</title>
<path fill="none" stroke="midnightblue" d="M506.46,-49.54C495.23,-39.91 481.18,-27.87 471.81,-19.83"/>
<polygon fill="midnightblue" stroke="midnightblue" points="504.51,-52.47 514.38,-56.32 509.06,-47.16 504.51,-52.47"/>
</g>
<!-- Node11 -->
<g id="node11" class="node">
<title>Node11</title>
<g id="a_node11"><a xlink:href="aprs__receiver_8cpp.html" target="_top" xlink:title="Implementation of the APRS receiver class.">
<polygon fill="none" stroke="black" points="536.5,-0.5 536.5,-19.5 638.5,-19.5 638.5,-0.5 536.5,-0.5"/>
<text text-anchor="middle" x="587.5" y="-7.5" font-family="Helvetica,sans-Serif" font-size="10.00">aprs_receiver.cpp</text>
</a>
</g>
</g>
<!-- Node6&#45;&gt;Node11 -->
<g id="edge10" class="edge">
<title>Node6&#45;&gt;Node11</title>
<path fill="none" stroke="midnightblue" d="M542.54,-49.54C553.77,-39.91 567.82,-27.87 577.19,-19.83"/>
<polygon fill="midnightblue" stroke="midnightblue" points="539.94,-47.16 534.62,-56.32 544.49,-52.47 539.94,-47.16"/>
</g>
<!-- Node12 -->
<g id="node12" class="node">
<title>Node12</title>
<g id="a_node12"><a xlink:href="aprs__test_8cpp.html" target="_top" xlink:title=" ">
<polygon fill="none" stroke="black" points="656.5,-0.5 656.5,-19.5 738.5,-19.5 738.5,-0.5 656.5,-0.5"/>
<text text-anchor="middle" x="697.5" y="-7.5" font-family="Helvetica,sans-Serif" font-size="10.00">aprs_test.cpp</text>
</a>
</g>
</g>
<!-- Node6&#45;&gt;Node12 -->
<g id="edge11" class="edge">
<title>Node6&#45;&gt;Node12</title>
<path fill="none" stroke="midnightblue" d="M561.55,-53.44C594.16,-43.26 640.91,-28.66 670.22,-19.52"/>
<polygon fill="midnightblue" stroke="midnightblue" points="560.42,-50.12 551.91,-56.44 562.5,-56.8 560.42,-50.12"/>
</g>
<!-- Node6&#45;&gt;Node13 -->
<g id="edge12" class="edge">
<title>Node6&#45;&gt;Node13</title>
<path fill="none" stroke="midnightblue" d="M564.03,-57.27C615.08,-47.28 703.66,-29.95 756.71,-19.57"/>
<polygon fill="midnightblue" stroke="midnightblue" points="563.18,-53.87 554.04,-59.22 564.52,-60.74 563.18,-53.87"/>
</g>
</g>
</svg>
