<?xml version="1.0" encoding="UTF-8" standalone="no"?>
<!DOCTYPE svg PUBLIC "-//W3C//DTD SVG 1.1//EN"
 "http://www.w3.org/Graphics/SVG/1.1/DTD/svg11.dtd">
<!-- Generated by graphviz version 2.43.0 (0)
 -->
<!-- Title: afsk_modulator.cpp Pages: 1 -->
<svg width="1231pt" height="308pt"
 viewBox="0.00 0.00 1230.50 308.00" xmlns="http://www.w3.org/2000/svg" xmlns:xlink="http://www.w3.org/1999/xlink">
<g id="graph0" class="graph" transform="scale(1 1) rotate(0) translate(4 304)">
<title>afsk_modulator.cpp</title>
<!-- Node1 -->
<g id="node1" class="node">
<title>Node1</title>
<g id="a_node1"><a xlink:title="The AFSK modulator class implementation.">
<polygon fill="#bfbfbf" stroke="black" points="113,-280.5 113,-299.5 226,-299.5 226,-280.5 113,-280.5"/>
<text text-anchor="middle" x="169.5" y="-287.5" font-family="Helvetica,sans-Serif" font-size="10.00">afsk_modulator.cpp</text>
</a>
</g>
</g>
<!-- Node2 -->
<g id="node2" class="node">
<title>Node2</title>
<g id="a_node2"><a xlink:title=" ">
<polygon fill="none" stroke="#bfbfbf" points="0,-224.5 0,-243.5 47,-243.5 47,-224.5 0,-224.5"/>
<text text-anchor="middle" x="23.5" y="-231.5" font-family="Helvetica,sans-Serif" font-size="10.00">cmath</text>
</a>
</g>
</g>
<!-- Node1&#45;&gt;Node2 -->
<g id="edge1" class="edge">
<title>Node1&#45;&gt;Node2</title>
<path fill="none" stroke="midnightblue" d="M146.37,-280.44C122.02,-271.44 83.49,-257.19 56.08,-247.05"/>
<polygon fill="midnightblue" stroke="midnightblue" points="57.12,-243.7 46.53,-243.52 54.69,-250.27 57.12,-243.7"/>
</g>
<!-- Node3 -->
<g id="node3" class="node">
<title>Node3</title>
<g id="a_node3"><a xlink:title=" ">
<polygon fill="none" stroke="#bfbfbf" points="65.5,-224.5 65.5,-243.5 121.5,-243.5 121.5,-224.5 65.5,-224.5"/>
<text text-anchor="middle" x="93.5" y="-231.5" font-family="Helvetica,sans-Serif" font-size="10.00">iomanip</text>
</a>
</g>
</g>
<!-- Node1&#45;&gt;Node3 -->
<g id="edge2" class="edge">
<title>Node1&#45;&gt;Node3</title>
<path fill="none" stroke="midnightblue" d="M157.29,-280.32C145.72,-272.11 128.12,-259.6 114.34,-249.81"/>
<polygon fill="midnightblue" stroke="midnightblue" points="116.11,-246.77 105.93,-243.83 112.06,-252.48 116.11,-246.77"/>
</g>
<!-- Node4 -->
<g id="node4" class="node">
<title>Node4</title>
<g id="a_node4"><a xlink:title=" ">
<polygon fill="none" stroke="#bfbfbf" points="139.5,-224.5 139.5,-243.5 199.5,-243.5 199.5,-224.5 139.5,-224.5"/>
<text text-anchor="middle" x="169.5" y="-231.5" font-family="Helvetica,sans-Serif" font-size="10.00">iostream</text>
</a>
</g>
</g>
<!-- Node1&#45;&gt;Node4 -->
<g id="edge3" class="edge">
<title>Node1&#45;&gt;Node4</title>
<path fill="none" stroke="midnightblue" d="M169.5,-280.08C169.5,-273.01 169.5,-262.86 169.5,-253.99"/>
<polygon fill="midnightblue" stroke="midnightblue" points="173,-253.75 169.5,-243.75 166,-253.75 173,-253.75"/>
</g>
<!-- Node5 -->
<g id="node5" class="node">
<title>Node5</title>
<g id="a_node5"><a xlink:href="afsk_8hpp.html" target="_top" xlink:title="AFSK related modulation/demodulation.">
<polygon fill="none" stroke="black" points="570.5,-224.5 570.5,-243.5 688.5,-243.5 688.5,-224.5 570.5,-224.5"/>
<text text-anchor="middle" x="629.5" y="-231.5" font-family="Helvetica,sans-Serif" font-size="10.00">SignalEasel/afsk.hpp</text>
</a>
</g>
</g>
<!-- Node1&#45;&gt;Node5 -->
<g id="edge4" class="edge">
<title>Node1&#45;&gt;Node5</title>
<path fill="none" stroke="midnightblue" d="M226.37,-282.32C310.82,-272.41 469.19,-253.82 560.27,-243.13"/>
<polygon fill="midnightblue" stroke="midnightblue" points="560.7,-246.6 570.22,-241.96 559.88,-239.65 560.7,-246.6"/>
</g>
<!-- Node20 -->
<g id="node20" class="node">
<title>Node20</title>
<g id="a_node20"><a xlink:href="exception_8hpp.html" target="_top" xlink:title="SignalEasel exceptions.">
<polygon fill="none" stroke="black" points="218,-224.5 218,-243.5 363,-243.5 363,-224.5 218,-224.5"/>
<text text-anchor="middle" x="290.5" y="-231.5" font-family="Helvetica,sans-Serif" font-size="10.00">SignalEasel/exception.hpp</text>
</a>
</g>
</g>
<!-- Node1&#45;&gt;Node20 -->
<g id="edge29" class="edge">
<title>Node1&#45;&gt;Node20</title>
<path fill="none" stroke="midnightblue" d="M188.67,-280.44C208.41,-271.64 239.39,-257.81 261.99,-247.72"/>
<polygon fill="midnightblue" stroke="midnightblue" points="263.71,-250.79 271.42,-243.52 260.86,-244.4 263.71,-250.79"/>
</g>
<!-- Node6 -->
<g id="node6" class="node">
<title>Node6</title>
<g id="a_node6"><a xlink:title=" ">
<polygon fill="none" stroke="#bfbfbf" points="514,-112.5 514,-131.5 561,-131.5 561,-112.5 514,-112.5"/>
<text text-anchor="middle" x="537.5" y="-119.5" font-family="Helvetica,sans-Serif" font-size="10.00">vector</text>
</a>
</g>
</g>
<!-- Node5&#45;&gt;Node6 -->
<g id="edge5" class="edge">
<title>Node5&#45;&gt;Node6</title>
<path fill="none" stroke="midnightblue" d="M599.44,-224.38C581.16,-217.54 559.01,-206.06 546.5,-188 537.28,-174.68 535.52,-156.11 535.79,-142.22"/>
<polygon fill="midnightblue" stroke="midnightblue" points="539.3,-142.06 536.36,-131.88 532.31,-141.67 539.3,-142.06"/>
</g>
<!-- Node7 -->
<g id="node7" class="node">
<title>Node7</title>
<g id="a_node7"><a xlink:href="constants_8hpp.html" target="_top" xlink:title="Common constants used throughout the library.">
<polygon fill="none" stroke="black" points="1078.5,-56.5 1078.5,-75.5 1222.5,-75.5 1222.5,-56.5 1078.5,-56.5"/>
<text text-anchor="middle" x="1150.5" y="-63.5" font-family="Helvetica,sans-Serif" font-size="10.00">SignalEasel/constants.hpp</text>
</a>
</g>
</g>
<!-- Node5&#45;&gt;Node7 -->
<g id="edge6" class="edge">
<title>Node5&#45;&gt;Node7</title>
<path fill="none" stroke="midnightblue" d="M688.89,-231.2C785.67,-227.46 972.53,-216.68 1031.5,-188 1080.56,-164.14 1120.91,-111.49 1139.48,-84.18"/>
<polygon fill="midnightblue" stroke="midnightblue" points="1142.51,-85.94 1145.12,-75.67 1136.68,-82.08 1142.51,-85.94"/>
</g>
<!-- Node9 -->
<g id="node9" class="node">
<title>Node9</title>
<g id="a_node9"><a xlink:href="bit__stream_8hpp.html" target="_top" xlink:title="The bit stream class.">
<polygon fill="none" stroke="black" points="555,-168.5 555,-187.5 704,-187.5 704,-168.5 555,-168.5"/>
<text text-anchor="middle" x="629.5" y="-175.5" font-family="Helvetica,sans-Serif" font-size="10.00">SignalEasel/bit_stream.hpp</text>
</a>
</g>
</g>
<!-- Node5&#45;&gt;Node9 -->
<g id="edge8" class="edge">
<title>Node5&#45;&gt;Node9</title>
<path fill="none" stroke="midnightblue" d="M629.5,-224.08C629.5,-217.01 629.5,-206.86 629.5,-197.99"/>
<polygon fill="midnightblue" stroke="midnightblue" points="633,-197.75 629.5,-187.75 626,-197.75 633,-197.75"/>
</g>
<!-- Node10 -->
<g id="node10" class="node">
<title>Node10</title>
<g id="a_node10"><a xlink:href="demodulator_8hpp.html" target="_top" xlink:title="Base class for demodulators.">
<polygon fill="none" stroke="black" points="341.5,-168.5 341.5,-187.5 499.5,-187.5 499.5,-168.5 341.5,-168.5"/>
<text text-anchor="middle" x="420.5" y="-175.5" font-family="Helvetica,sans-Serif" font-size="10.00">SignalEasel/demodulator.hpp</text>
</a>
</g>
</g>
<!-- Node5&#45;&gt;Node10 -->
<g id="edge11" class="edge">
<title>Node5&#45;&gt;Node10</title>
<path fill="none" stroke="midnightblue" d="M596.38,-224.44C560.38,-215.14 502.73,-200.25 463.31,-190.06"/>
<polygon fill="midnightblue" stroke="midnightblue" points="464.02,-186.63 453.46,-187.52 462.27,-193.41 464.02,-186.63"/>
</g>
<!-- Node13 -->
<g id="node13" class="node">
<title>Node13</title>
<g id="a_node13"><a xlink:href="modulator_8hpp.html" target="_top" xlink:title="Modulator base class.">
<polygon fill="none" stroke="black" points="722.5,-168.5 722.5,-187.5 868.5,-187.5 868.5,-168.5 722.5,-168.5"/>
<text text-anchor="middle" x="795.5" y="-175.5" font-family="Helvetica,sans-Serif" font-size="10.00">SignalEasel/modulator.hpp</text>
</a>
</g>
</g>
<!-- Node5&#45;&gt;Node13 -->
<g id="edge16" class="edge">
<title>Node5&#45;&gt;Node13</title>
<path fill="none" stroke="midnightblue" d="M655.8,-224.44C683.85,-215.32 728.44,-200.81 759.68,-190.65"/>
<polygon fill="midnightblue" stroke="midnightblue" points="760.89,-193.94 769.32,-187.52 758.73,-187.28 760.89,-193.94"/>
</g>
<!-- Node14 -->
<g id="node14" class="node">
<title>Node14</title>
<g id="a_node14"><a xlink:href="receiver_8hpp.html" target="_top" xlink:title="Base class for receivers. Demodulators that use pulse audio.">
<polygon fill="none" stroke="black" points="886.5,-168.5 886.5,-187.5 1022.5,-187.5 1022.5,-168.5 886.5,-168.5"/>
<text text-anchor="middle" x="954.5" y="-175.5" font-family="Helvetica,sans-Serif" font-size="10.00">SignalEasel/receiver.hpp</text>
</a>
</g>
</g>
<!-- Node5&#45;&gt;Node14 -->
<g id="edge20" class="edge">
<title>Node5&#45;&gt;Node14</title>
<path fill="none" stroke="midnightblue" d="M681,-224.44C738.64,-214.87 831.99,-199.36 893.31,-189.17"/>
<polygon fill="midnightblue" stroke="midnightblue" points="893.95,-192.61 903.24,-187.52 892.81,-185.7 893.95,-192.61"/>
</g>
<!-- Node8 -->
<g id="node8" class="node">
<title>Node8</title>
<g id="a_node8"><a xlink:title=" ">
<polygon fill="none" stroke="#bfbfbf" points="1025.5,-0.5 1025.5,-19.5 1075.5,-19.5 1075.5,-0.5 1025.5,-0.5"/>
<text text-anchor="middle" x="1050.5" y="-7.5" font-family="Helvetica,sans-Serif" font-size="10.00">cstdint</text>
</a>
</g>
</g>
<!-- Node7&#45;&gt;Node8 -->
<g id="edge7" class="edge">
<title>Node7&#45;&gt;Node8</title>
<path fill="none" stroke="midnightblue" d="M1134.43,-56.32C1118.54,-47.74 1093.99,-34.49 1075.54,-24.52"/>
<polygon fill="midnightblue" stroke="midnightblue" points="1076.99,-21.33 1066.53,-19.65 1073.66,-27.49 1076.99,-21.33"/>
</g>
<!-- Node9&#45;&gt;Node6 -->
<g id="edge10" class="edge">
<title>Node9&#45;&gt;Node6</title>
<path fill="none" stroke="midnightblue" d="M614.72,-168.32C600.23,-159.82 577.93,-146.73 561.01,-136.8"/>
<polygon fill="midnightblue" stroke="midnightblue" points="562.64,-133.7 552.24,-131.65 559.1,-139.74 562.64,-133.7"/>
</g>
<!-- Node9&#45;&gt;Node8 -->
<g id="edge9" class="edge">
<title>Node9&#45;&gt;Node8</title>
<path fill="none" stroke="midnightblue" d="M627.64,-168.32C623.28,-145.29 615.27,-82.59 650.5,-56 707.52,-12.96 928.64,-9.97 1015.34,-10.5"/>
<polygon fill="midnightblue" stroke="midnightblue" points="1015.43,-14 1025.46,-10.59 1015.49,-7.01 1015.43,-14"/>
</g>
<!-- Node10&#45;&gt;Node6 -->
<g id="edge13" class="edge">
<title>Node10&#45;&gt;Node6</title>
<path fill="none" stroke="midnightblue" d="M439.04,-168.44C458.12,-159.64 488.07,-145.81 509.94,-135.72"/>
<polygon fill="midnightblue" stroke="midnightblue" points="511.43,-138.88 519.05,-131.52 508.5,-132.53 511.43,-138.88"/>
</g>
<!-- Node11 -->
<g id="node11" class="node">
<title>Node11</title>
<g id="a_node11"><a xlink:title=" ">
<polygon fill="none" stroke="#bfbfbf" points="659.5,-56.5 659.5,-75.5 703.5,-75.5 703.5,-56.5 659.5,-56.5"/>
<text text-anchor="middle" x="681.5" y="-63.5" font-family="Helvetica,sans-Serif" font-size="10.00">string</text>
</a>
</g>
</g>
<!-- Node10&#45;&gt;Node11 -->
<g id="edge12" class="edge">
<title>Node10&#45;&gt;Node11</title>
<path fill="none" stroke="midnightblue" d="M429.12,-168.46C443.63,-154.56 474.41,-127.08 505.5,-112 552.76,-89.08 613.03,-76.93 649.37,-71.25"/>
<polygon fill="midnightblue" stroke="midnightblue" points="650.02,-74.69 659.4,-69.75 648.99,-67.76 650.02,-74.69"/>
</g>
<!-- Node12 -->
<g id="node12" class="node">
<title>Node12</title>
<g id="a_node12"><a xlink:href="settings_8hpp.html" target="_top" xlink:title="Settings structures for SignalEasel.">
<polygon fill="none" stroke="black" points="636.5,-112.5 636.5,-131.5 772.5,-131.5 772.5,-112.5 636.5,-112.5"/>
<text text-anchor="middle" x="704.5" y="-119.5" font-family="Helvetica,sans-Serif" font-size="10.00">SignalEasel/settings.hpp</text>
</a>
</g>
</g>
<!-- Node10&#45;&gt;Node12 -->
<g id="edge14" class="edge">
<title>Node10&#45;&gt;Node12</title>
<path fill="none" stroke="midnightblue" d="M465.5,-168.44C515.46,-158.94 596.1,-143.61 649.7,-133.42"/>
<polygon fill="midnightblue" stroke="midnightblue" points="650.54,-136.82 659.71,-131.52 649.23,-129.95 650.54,-136.82"/>
</g>
<!-- Node12&#45;&gt;Node11 -->
<g id="edge15" class="edge">
<title>Node12&#45;&gt;Node11</title>
<path fill="none" stroke="midnightblue" d="M700.7,-112.08C697.59,-104.77 693.08,-94.18 689.21,-85.1"/>
<polygon fill="midnightblue" stroke="midnightblue" points="692.37,-83.58 685.23,-75.75 685.93,-86.32 692.37,-83.58"/>
</g>
<!-- Node13&#45;&gt;Node6 -->
<g id="edge18" class="edge">
<title>Node13&#45;&gt;Node6</title>
<path fill="none" stroke="midnightblue" d="M754.62,-168.44C703.89,-157.83 618.35,-139.92 571.2,-130.05"/>
<polygon fill="midnightblue" stroke="midnightblue" points="571.7,-126.58 561.19,-127.96 570.27,-133.43 571.7,-126.58"/>
</g>
<!-- Node13&#45;&gt;Node8 -->
<g id="edge17" class="edge">
<title>Node13&#45;&gt;Node8</title>
<path fill="none" stroke="midnightblue" d="M860.72,-168.46C926.38,-159.25 1019.62,-144.27 1031.5,-132 1057.91,-104.71 1056.72,-56.62 1053.58,-30.02"/>
<polygon fill="midnightblue" stroke="midnightblue" points="1057,-29.18 1052.15,-19.76 1050.07,-30.15 1057,-29.18"/>
</g>
<!-- Node13&#45;&gt;Node12 -->
<g id="edge19" class="edge">
<title>Node13&#45;&gt;Node12</title>
<path fill="none" stroke="midnightblue" d="M780.88,-168.32C766.55,-159.82 744.49,-146.73 727.75,-136.8"/>
<polygon fill="midnightblue" stroke="midnightblue" points="729.47,-133.75 719.08,-131.65 725.9,-139.77 729.47,-133.75"/>
</g>
<!-- Node14&#45;&gt;Node12 -->
<g id="edge28" class="edge">
<title>Node14&#45;&gt;Node12</title>
<path fill="none" stroke="midnightblue" d="M914.89,-168.44C871.27,-159.02 801.1,-143.87 753.92,-133.68"/>
<polygon fill="midnightblue" stroke="midnightblue" points="754.44,-130.21 743.93,-131.52 752.96,-137.05 754.44,-130.21"/>
</g>
<!-- Node15 -->
<g id="node15" class="node">
<title>Node15</title>
<g id="a_node15"><a xlink:title=" ">
<polygon fill="none" stroke="#bfbfbf" points="790.5,-112.5 790.5,-131.5 848.5,-131.5 848.5,-112.5 790.5,-112.5"/>
<text text-anchor="middle" x="819.5" y="-119.5" font-family="Helvetica,sans-Serif" font-size="10.00">memory</text>
</a>
</g>
</g>
<!-- Node14&#45;&gt;Node15 -->
<g id="edge21" class="edge">
<title>Node14&#45;&gt;Node15</title>
<path fill="none" stroke="midnightblue" d="M933.11,-168.44C910.79,-159.52 875.6,-145.44 850.29,-135.32"/>
<polygon fill="midnightblue" stroke="midnightblue" points="851.38,-131.98 840.79,-131.52 848.78,-138.48 851.38,-131.98"/>
</g>
<!-- Node16 -->
<g id="node16" class="node">
<title>Node16</title>
<g id="a_node16"><a xlink:href="pulse__audio_8hpp.html" target="_top" xlink:title="Reads audio from pulse audio.">
<polygon fill="none" stroke="black" points="867,-112.5 867,-131.5 1022,-131.5 1022,-112.5 867,-112.5"/>
<text text-anchor="middle" x="944.5" y="-119.5" font-family="Helvetica,sans-Serif" font-size="10.00">SignalEasel/pulse_audio.hpp</text>
</a>
</g>
</g>
<!-- Node14&#45;&gt;Node16 -->
<g id="edge22" class="edge">
<title>Node14&#45;&gt;Node16</title>
<path fill="none" stroke="midnightblue" d="M952.85,-168.08C951.52,-160.93 949.62,-150.64 947.96,-141.69"/>
<polygon fill="midnightblue" stroke="midnightblue" points="951.38,-140.95 946.12,-131.75 944.5,-142.22 951.38,-140.95"/>
</g>
<!-- Node16&#45;&gt;Node7 -->
<g id="edge25" class="edge">
<title>Node16&#45;&gt;Node7</title>
<path fill="none" stroke="midnightblue" d="M977.14,-112.44C1012.55,-103.16 1069.21,-88.31 1108.05,-78.13"/>
<polygon fill="midnightblue" stroke="midnightblue" points="1109.23,-81.44 1118.01,-75.52 1107.45,-74.67 1109.23,-81.44"/>
</g>
<!-- Node16&#45;&gt;Node11 -->
<g id="edge24" class="edge">
<title>Node16&#45;&gt;Node11</title>
<path fill="none" stroke="midnightblue" d="M902.83,-112.44C850.31,-101.66 761.18,-83.36 713.63,-73.6"/>
<polygon fill="midnightblue" stroke="midnightblue" points="714.09,-70.12 703.59,-71.54 712.68,-76.98 714.09,-70.12"/>
</g>
<!-- Node17 -->
<g id="node17" class="node">
<title>Node17</title>
<g id="a_node17"><a xlink:title=" ">
<polygon fill="none" stroke="#bfbfbf" points="980.5,-56.5 980.5,-75.5 1022.5,-75.5 1022.5,-56.5 980.5,-56.5"/>
<text text-anchor="middle" x="1001.5" y="-63.5" font-family="Helvetica,sans-Serif" font-size="10.00">array</text>
</a>
</g>
</g>
<!-- Node16&#45;&gt;Node17 -->
<g id="edge23" class="edge">
<title>Node16&#45;&gt;Node17</title>
<path fill="none" stroke="midnightblue" d="M953.66,-112.32C962,-104.42 974.53,-92.55 984.68,-82.94"/>
<polygon fill="midnightblue" stroke="midnightblue" points="987.32,-85.25 992.18,-75.83 982.51,-80.17 987.32,-85.25"/>
</g>
<!-- Node18 -->
<g id="node18" class="node">
<title>Node18</title>
<g id="a_node18"><a xlink:title=" ">
<polygon fill="none" stroke="#bfbfbf" points="779,-56.5 779,-75.5 856,-75.5 856,-56.5 779,-56.5"/>
<text text-anchor="middle" x="817.5" y="-63.5" font-family="Helvetica,sans-Serif" font-size="10.00">pulse/error.h</text>
</a>
</g>
</g>
<!-- Node16&#45;&gt;Node18 -->
<g id="edge26" class="edge">
<title>Node16&#45;&gt;Node18</title>
<path fill="none" stroke="midnightblue" d="M924.38,-112.44C903.48,-103.56 870.57,-89.56 846.78,-79.45"/>
<polygon fill="midnightblue" stroke="midnightblue" points="848.1,-76.21 837.53,-75.52 845.36,-82.65 848.1,-76.21"/>
</g>
<!-- Node19 -->
<g id="node19" class="node">
<title>Node19</title>
<g id="a_node19"><a xlink:title=" ">
<polygon fill="none" stroke="#bfbfbf" points="874.5,-56.5 874.5,-75.5 962.5,-75.5 962.5,-56.5 874.5,-56.5"/>
<text text-anchor="middle" x="918.5" y="-63.5" font-family="Helvetica,sans-Serif" font-size="10.00">pulse/simple.h</text>
</a>
</g>
</g>
<!-- Node16&#45;&gt;Node19 -->
<g id="edge27" class="edge">
<title>Node16&#45;&gt;Node19</title>
<path fill="none" stroke="midnightblue" d="M940.21,-112.08C936.65,-104.69 931.48,-93.95 927.08,-84.81"/>
<polygon fill="midnightblue" stroke="midnightblue" points="930.21,-83.24 922.71,-75.75 923.9,-86.28 930.21,-83.24"/>
</g>
<!-- Node20&#45;&gt;Node11 -->
<g id="edge31" class="edge">
<title>Node20&#45;&gt;Node11</title>
<path fill="none" stroke="midnightblue" d="M278.19,-224.44C261.32,-211.67 234.69,-187.07 249.5,-168 299.08,-104.14 557.87,-77.1 649.39,-69.43"/>
<polygon fill="midnightblue" stroke="midnightblue" points="649.77,-72.91 659.45,-68.61 649.2,-65.93 649.77,-72.91"/>
</g>
<!-- Node21 -->
<g id="node21" class="node">
<title>Node21</title>
<g id="a_node21"><a xlink:title=" ">
<polygon fill="none" stroke="#bfbfbf" points="258,-168.5 258,-187.5 323,-187.5 323,-168.5 258,-168.5"/>
<text text-anchor="middle" x="290.5" y="-175.5" font-family="Helvetica,sans-Serif" font-size="10.00">exception</text>
</a>
</g>
</g>
<!-- Node20&#45;&gt;Node21 -->
<g id="edge30" class="edge">
<title>Node20&#45;&gt;Node21</title>
<path fill="none" stroke="midnightblue" d="M290.5,-224.08C290.5,-217.01 290.5,-206.86 290.5,-197.99"/>
<polygon fill="midnightblue" stroke="midnightblue" points="294,-197.75 290.5,-187.75 287,-197.75 294,-197.75"/>
</g>
</g>
</svg>
