<?xml version="1.0" encoding="UTF-8" standalone="no"?>
<!DOCTYPE svg PUBLIC "-//W3C//DTD SVG 1.1//EN"
 "http://www.w3.org/Graphics/SVG/1.1/DTD/svg11.dtd">
<!-- Generated by graphviz version 2.43.0 (0)
 -->
<!-- Title: afsk.hpp Pages: 1 -->
<svg width="789pt" height="252pt"
 viewBox="0.00 0.00 788.50 252.00" xmlns="http://www.w3.org/2000/svg" xmlns:xlink="http://www.w3.org/1999/xlink">
<g id="graph0" class="graph" transform="scale(1 1) rotate(0) translate(4 248)">
<title>afsk.hpp</title>
<!-- Node1 -->
<g id="node1" class="node">
<title>Node1</title>
<g id="a_node1"><a xlink:title="AFSK related modulation/demodulation.">
<polygon fill="#bfbfbf" stroke="black" points="339,-224.5 339,-243.5 398,-243.5 398,-224.5 339,-224.5"/>
<text text-anchor="middle" x="368.5" y="-231.5" font-family="Helvetica,sans-Serif" font-size="10.00">afsk.hpp</text>
</a>
</g>
</g>
<!-- Node2 -->
<g id="node2" class="node">
<title>Node2</title>
<g id="a_node2"><a xlink:title=" ">
<polygon fill="none" stroke="#bfbfbf" points="186,-112.5 186,-131.5 233,-131.5 233,-112.5 186,-112.5"/>
<text text-anchor="middle" x="209.5" y="-119.5" font-family="Helvetica,sans-Serif" font-size="10.00">vector</text>
</a>
</g>
</g>
<!-- Node1&#45;&gt;Node2 -->
<g id="edge1" class="edge">
<title>Node1&#45;&gt;Node2</title>
<path fill="none" stroke="midnightblue" d="M338.92,-229.64C294.25,-223.88 212.92,-210.53 195.5,-188 184.94,-174.35 191.49,-154.47 198.77,-140.3"/>
<polygon fill="midnightblue" stroke="midnightblue" points="201.84,-141.97 203.72,-131.55 195.75,-138.53 201.84,-141.97"/>
</g>
<!-- Node3 -->
<g id="node3" class="node">
<title>Node3</title>
<g id="a_node3"><a xlink:href="constants_8hpp.html" target="_top" xlink:title="Common constants used throughout the library.">
<polygon fill="none" stroke="black" points="636.5,-56.5 636.5,-75.5 780.5,-75.5 780.5,-56.5 636.5,-56.5"/>
<text text-anchor="middle" x="708.5" y="-63.5" font-family="Helvetica,sans-Serif" font-size="10.00">SignalEasel/constants.hpp</text>
</a>
</g>
</g>
<!-- Node1&#45;&gt;Node3 -->
<g id="edge2" class="edge">
<title>Node1&#45;&gt;Node3</title>
<path fill="none" stroke="midnightblue" d="M398.05,-233.17C469.48,-232.92 648.63,-228.2 689.5,-188 716.83,-161.12 715.09,-112.11 711.67,-85.45"/>
<polygon fill="midnightblue" stroke="midnightblue" points="715.13,-84.9 710.18,-75.53 708.2,-85.94 715.13,-84.9"/>
</g>
<!-- Node5 -->
<g id="node5" class="node">
<title>Node5</title>
<g id="a_node5"><a xlink:href="bit__stream_8hpp.html" target="_top" xlink:title="The bit stream class.">
<polygon fill="none" stroke="black" points="0,-168.5 0,-187.5 149,-187.5 149,-168.5 0,-168.5"/>
<text text-anchor="middle" x="74.5" y="-175.5" font-family="Helvetica,sans-Serif" font-size="10.00">SignalEasel/bit_stream.hpp</text>
</a>
</g>
</g>
<!-- Node1&#45;&gt;Node5 -->
<g id="edge4" class="edge">
<title>Node1&#45;&gt;Node5</title>
<path fill="none" stroke="midnightblue" d="M338.96,-227.58C290.41,-218.66 192.93,-200.75 130.85,-189.35"/>
<polygon fill="midnightblue" stroke="midnightblue" points="131.29,-185.87 120.82,-187.51 130.02,-192.76 131.29,-185.87"/>
</g>
<!-- Node6 -->
<g id="node6" class="node">
<title>Node6</title>
<g id="a_node6"><a xlink:href="demodulator_8hpp.html" target="_top" xlink:title="Base class for demodulators.">
<polygon fill="none" stroke="black" points="204.5,-168.5 204.5,-187.5 362.5,-187.5 362.5,-168.5 204.5,-168.5"/>
<text text-anchor="middle" x="283.5" y="-175.5" font-family="Helvetica,sans-Serif" font-size="10.00">SignalEasel/demodulator.hpp</text>
</a>
</g>
</g>
<!-- Node1&#45;&gt;Node6 -->
<g id="edge7" class="edge">
<title>Node1&#45;&gt;Node6</title>
<path fill="none" stroke="midnightblue" d="M354.84,-224.32C341.58,-215.9 321.23,-202.97 305.65,-193.07"/>
<polygon fill="midnightblue" stroke="midnightblue" points="307.44,-190.06 297.12,-187.65 303.69,-195.97 307.44,-190.06"/>
</g>
<!-- Node9 -->
<g id="node9" class="node">
<title>Node9</title>
<g id="a_node9"><a xlink:href="modulator_8hpp.html" target="_top" xlink:title="Modulator base class.">
<polygon fill="none" stroke="black" points="380.5,-168.5 380.5,-187.5 526.5,-187.5 526.5,-168.5 380.5,-168.5"/>
<text text-anchor="middle" x="453.5" y="-175.5" font-family="Helvetica,sans-Serif" font-size="10.00">SignalEasel/modulator.hpp</text>
</a>
</g>
</g>
<!-- Node1&#45;&gt;Node9 -->
<g id="edge12" class="edge">
<title>Node1&#45;&gt;Node9</title>
<path fill="none" stroke="midnightblue" d="M382.16,-224.32C395.42,-215.9 415.77,-202.97 431.35,-193.07"/>
<polygon fill="midnightblue" stroke="midnightblue" points="433.31,-195.97 439.88,-187.65 429.56,-190.06 433.31,-195.97"/>
</g>
<!-- Node10 -->
<g id="node10" class="node">
<title>Node10</title>
<g id="a_node10"><a xlink:href="receiver_8hpp.html" target="_top" xlink:title="Base class for receivers. Demodulators that use pulse audio.">
<polygon fill="none" stroke="black" points="544.5,-168.5 544.5,-187.5 680.5,-187.5 680.5,-168.5 544.5,-168.5"/>
<text text-anchor="middle" x="612.5" y="-175.5" font-family="Helvetica,sans-Serif" font-size="10.00">SignalEasel/receiver.hpp</text>
</a>
</g>
</g>
<!-- Node1&#45;&gt;Node10 -->
<g id="edge15" class="edge">
<title>Node1&#45;&gt;Node10</title>
<path fill="none" stroke="midnightblue" d="M398.42,-226.38C439.73,-217.24 514.72,-200.64 564.07,-189.72"/>
<polygon fill="midnightblue" stroke="midnightblue" points="564.88,-193.12 573.89,-187.55 563.37,-186.29 564.88,-193.12"/>
</g>
<!-- Node4 -->
<g id="node4" class="node">
<title>Node4</title>
<g id="a_node4"><a xlink:title=" ">
<polygon fill="none" stroke="#bfbfbf" points="344.5,-0.5 344.5,-19.5 394.5,-19.5 394.5,-0.5 344.5,-0.5"/>
<text text-anchor="middle" x="369.5" y="-7.5" font-family="Helvetica,sans-Serif" font-size="10.00">cstdint</text>
</a>
</g>
</g>
<!-- Node3&#45;&gt;Node4 -->
<g id="edge3" class="edge">
<title>Node3&#45;&gt;Node4</title>
<path fill="none" stroke="midnightblue" d="M654.78,-56.44C584.69,-45.28 463.99,-26.05 404.59,-16.59"/>
<polygon fill="midnightblue" stroke="midnightblue" points="405.01,-13.11 394.58,-15 403.91,-20.02 405.01,-13.11"/>
</g>
<!-- Node5&#45;&gt;Node2 -->
<g id="edge6" class="edge">
<title>Node5&#45;&gt;Node2</title>
<path fill="none" stroke="midnightblue" d="M95.89,-168.44C118.21,-159.52 153.4,-145.44 178.71,-135.32"/>
<polygon fill="midnightblue" stroke="midnightblue" points="180.22,-138.48 188.21,-131.52 177.62,-131.98 180.22,-138.48"/>
</g>
<!-- Node5&#45;&gt;Node4 -->
<g id="edge5" class="edge">
<title>Node5&#45;&gt;Node4</title>
<path fill="none" stroke="midnightblue" d="M87.16,-168.43C106.24,-155.65 143.61,-131.04 176.5,-112 234.64,-78.35 305.01,-42.77 342.66,-24.14"/>
<polygon fill="midnightblue" stroke="midnightblue" points="344.51,-27.13 351.93,-19.57 341.41,-20.85 344.51,-27.13"/>
</g>
<!-- Node6&#45;&gt;Node2 -->
<g id="edge9" class="edge">
<title>Node6&#45;&gt;Node2</title>
<path fill="none" stroke="midnightblue" d="M271.61,-168.32C260.35,-160.11 243.21,-147.6 229.79,-137.81"/>
<polygon fill="midnightblue" stroke="midnightblue" points="231.75,-134.9 221.61,-131.83 227.62,-140.56 231.75,-134.9"/>
</g>
<!-- Node7 -->
<g id="node7" class="node">
<title>Node7</title>
<g id="a_node7"><a xlink:title=" ">
<polygon fill="none" stroke="#bfbfbf" points="312.5,-56.5 312.5,-75.5 356.5,-75.5 356.5,-56.5 312.5,-56.5"/>
<text text-anchor="middle" x="334.5" y="-63.5" font-family="Helvetica,sans-Serif" font-size="10.00">string</text>
</a>
</g>
</g>
<!-- Node6&#45;&gt;Node7 -->
<g id="edge8" class="edge">
<title>Node6&#45;&gt;Node7</title>
<path fill="none" stroke="midnightblue" d="M286.74,-168.47C291.57,-155.94 301.1,-131.88 310.5,-112 314.86,-102.78 320.16,-92.75 324.66,-84.5"/>
<polygon fill="midnightblue" stroke="midnightblue" points="327.86,-85.94 329.65,-75.5 321.74,-82.55 327.86,-85.94"/>
</g>
<!-- Node8 -->
<g id="node8" class="node">
<title>Node8</title>
<g id="a_node8"><a xlink:href="settings_8hpp.html" target="_top" xlink:title="Settings structures for SignalEasel.">
<polygon fill="none" stroke="black" points="319.5,-112.5 319.5,-131.5 455.5,-131.5 455.5,-112.5 319.5,-112.5"/>
<text text-anchor="middle" x="387.5" y="-119.5" font-family="Helvetica,sans-Serif" font-size="10.00">SignalEasel/settings.hpp</text>
</a>
</g>
</g>
<!-- Node6&#45;&gt;Node8 -->
<g id="edge10" class="edge">
<title>Node6&#45;&gt;Node8</title>
<path fill="none" stroke="midnightblue" d="M300.21,-168.32C316.81,-159.7 342.5,-146.36 361.72,-136.39"/>
<polygon fill="midnightblue" stroke="midnightblue" points="363.57,-139.37 370.83,-131.65 360.34,-133.16 363.57,-139.37"/>
</g>
<!-- Node8&#45;&gt;Node7 -->
<g id="edge11" class="edge">
<title>Node8&#45;&gt;Node7</title>
<path fill="none" stroke="midnightblue" d="M378.75,-112.08C371.03,-104.22 359.6,-92.57 350.28,-83.08"/>
<polygon fill="midnightblue" stroke="midnightblue" points="352.59,-80.44 343.09,-75.75 347.6,-85.34 352.59,-80.44"/>
</g>
<!-- Node9&#45;&gt;Node2 -->
<g id="edge13" class="edge">
<title>Node9&#45;&gt;Node2</title>
<path fill="none" stroke="midnightblue" d="M414.84,-168.44C367.46,-157.96 287.98,-140.37 243.06,-130.43"/>
<polygon fill="midnightblue" stroke="midnightblue" points="243.75,-126.99 233.23,-128.25 242.23,-133.83 243.75,-126.99"/>
</g>
<!-- Node9&#45;&gt;Node8 -->
<g id="edge14" class="edge">
<title>Node9&#45;&gt;Node8</title>
<path fill="none" stroke="midnightblue" d="M442.9,-168.32C433.04,-160.26 418.15,-148.08 406.28,-138.37"/>
<polygon fill="midnightblue" stroke="midnightblue" points="408.25,-135.46 398.3,-131.83 403.82,-140.88 408.25,-135.46"/>
</g>
<!-- Node10&#45;&gt;Node8 -->
<g id="edge22" class="edge">
<title>Node10&#45;&gt;Node8</title>
<path fill="none" stroke="midnightblue" d="M576.85,-168.44C537.84,-159.08 475.23,-144.06 432.78,-133.87"/>
<polygon fill="midnightblue" stroke="midnightblue" points="433.53,-130.45 422.99,-131.52 431.89,-137.25 433.53,-130.45"/>
</g>
<!-- Node11 -->
<g id="node11" class="node">
<title>Node11</title>
<g id="a_node11"><a xlink:href="pulse__audio_8hpp.html" target="_top" xlink:title="Reads audio from pulse audio.">
<polygon fill="none" stroke="black" points="489,-112.5 489,-131.5 644,-131.5 644,-112.5 489,-112.5"/>
<text text-anchor="middle" x="566.5" y="-119.5" font-family="Helvetica,sans-Serif" font-size="10.00">SignalEasel/pulse_audio.hpp</text>
</a>
</g>
</g>
<!-- Node10&#45;&gt;Node11 -->
<g id="edge16" class="edge">
<title>Node10&#45;&gt;Node11</title>
<path fill="none" stroke="midnightblue" d="M604.9,-168.08C598.27,-160.3 588.48,-148.8 580.44,-139.37"/>
<polygon fill="midnightblue" stroke="midnightblue" points="583.1,-137.09 573.95,-131.75 577.77,-141.63 583.1,-137.09"/>
</g>
<!-- Node11&#45;&gt;Node3 -->
<g id="edge19" class="edge">
<title>Node11&#45;&gt;Node3</title>
<path fill="none" stroke="midnightblue" d="M589,-112.44C612.58,-103.48 649.82,-89.31 676.46,-79.18"/>
<polygon fill="midnightblue" stroke="midnightblue" points="678,-82.34 686.1,-75.52 675.51,-75.8 678,-82.34"/>
</g>
<!-- Node11&#45;&gt;Node7 -->
<g id="edge18" class="edge">
<title>Node11&#45;&gt;Node7</title>
<path fill="none" stroke="midnightblue" d="M524.74,-112.44C486.11,-104.35 426.88,-91.5 366.84,-76.23"/>
<polygon fill="midnightblue" stroke="midnightblue" points="367.36,-72.75 356.81,-73.66 365.62,-79.53 367.36,-72.75"/>
</g>
<!-- Node12 -->
<g id="node12" class="node">
<title>Node12</title>
<g id="a_node12"><a xlink:title=" ">
<polygon fill="none" stroke="#bfbfbf" points="374.5,-56.5 374.5,-75.5 416.5,-75.5 416.5,-56.5 374.5,-56.5"/>
<text text-anchor="middle" x="395.5" y="-63.5" font-family="Helvetica,sans-Serif" font-size="10.00">array</text>
</a>
</g>
</g>
<!-- Node11&#45;&gt;Node12 -->
<g id="edge17" class="edge">
<title>Node11&#45;&gt;Node12</title>
<path fill="none" stroke="midnightblue" d="M539.4,-112.44C508.64,-102.73 458.56,-86.91 426.33,-76.74"/>
<polygon fill="midnightblue" stroke="midnightblue" points="427.13,-73.32 416.54,-73.64 425.02,-79.99 427.13,-73.32"/>
</g>
<!-- Node13 -->
<g id="node13" class="node">
<title>Node13</title>
<g id="a_node13"><a xlink:title=" ">
<polygon fill="none" stroke="#bfbfbf" points="435,-56.5 435,-75.5 512,-75.5 512,-56.5 435,-56.5"/>
<text text-anchor="middle" x="473.5" y="-63.5" font-family="Helvetica,sans-Serif" font-size="10.00">pulse/error.h</text>
</a>
</g>
</g>
<!-- Node11&#45;&gt;Node13 -->
<g id="edge20" class="edge">
<title>Node11&#45;&gt;Node13</title>
<path fill="none" stroke="midnightblue" d="M551.56,-112.32C536.91,-103.82 514.37,-90.73 497.26,-80.8"/>
<polygon fill="midnightblue" stroke="midnightblue" points="498.81,-77.65 488.4,-75.65 495.3,-83.7 498.81,-77.65"/>
</g>
<!-- Node14 -->
<g id="node14" class="node">
<title>Node14</title>
<g id="a_node14"><a xlink:title=" ">
<polygon fill="none" stroke="#bfbfbf" points="530.5,-56.5 530.5,-75.5 618.5,-75.5 618.5,-56.5 530.5,-56.5"/>
<text text-anchor="middle" x="574.5" y="-63.5" font-family="Helvetica,sans-Serif" font-size="10.00">pulse/simple.h</text>
</a>
</g>
</g>
<!-- Node11&#45;&gt;Node14 -->
<g id="edge21" class="edge">
<title>Node11&#45;&gt;Node14</title>
<path fill="none" stroke="midnightblue" d="M567.82,-112.08C568.88,-104.93 570.41,-94.64 571.73,-85.69"/>
<polygon fill="midnightblue" stroke="midnightblue" points="575.2,-86.16 573.2,-75.75 568.28,-85.13 575.2,-86.16"/>
</g>
</g>
</svg>
