<?xml version="1.0" encoding="UTF-8" standalone="no"?>
<!DOCTYPE svg PUBLIC "-//W3C//DTD SVG 1.1//EN"
 "http://www.w3.org/Graphics/SVG/1.1/DTD/svg11.dtd">
<!-- Generated by graphviz version 2.43.0 (0)
 -->
<!-- Title: afsk_receiver.cpp Pages: 1 -->
<svg width="839pt" height="308pt"
 viewBox="0.00 0.00 838.50 308.00" xmlns="http://www.w3.org/2000/svg" xmlns:xlink="http://www.w3.org/1999/xlink">
<g id="graph0" class="graph" transform="scale(1 1) rotate(0) translate(4 304)">
<title>afsk_receiver.cpp</title>
<!-- Node1 -->
<g id="node1" class="node">
<title>Node1</title>
<g id="a_node1"><a xlink:title="Implementation of the AFSK receiver class.">
<polygon fill="#bfbfbf" stroke="black" points="381.5,-280.5 381.5,-299.5 483.5,-299.5 483.5,-280.5 381.5,-280.5"/>
<text text-anchor="middle" x="432.5" y="-287.5" font-family="Helvetica,sans-Serif" font-size="10.00">afsk_receiver.cpp</text>
</a>
</g>
</g>
<!-- Node2 -->
<g id="node2" class="node">
<title>Node2</title>
<g id="a_node2"><a xlink:href="afsk_8hpp.html" target="_top" xlink:title="AFSK related modulation/demodulation.">
<polygon fill="none" stroke="black" points="268.5,-224.5 268.5,-243.5 386.5,-243.5 386.5,-224.5 268.5,-224.5"/>
<text text-anchor="middle" x="327.5" y="-231.5" font-family="Helvetica,sans-Serif" font-size="10.00">SignalEasel/afsk.hpp</text>
</a>
</g>
</g>
<!-- Node1&#45;&gt;Node2 -->
<g id="edge1" class="edge">
<title>Node1&#45;&gt;Node2</title>
<path fill="none" stroke="midnightblue" d="M415.63,-280.32C398.79,-271.66 372.69,-258.24 353.26,-248.25"/>
<polygon fill="midnightblue" stroke="midnightblue" points="354.82,-245.12 344.33,-243.65 351.62,-251.34 354.82,-245.12"/>
</g>
<!-- Node17 -->
<g id="node17" class="node">
<title>Node17</title>
<g id="a_node17"><a xlink:title=" ">
<polygon fill="none" stroke="#bfbfbf" points="404.5,-224.5 404.5,-243.5 460.5,-243.5 460.5,-224.5 404.5,-224.5"/>
<text text-anchor="middle" x="432.5" y="-231.5" font-family="Helvetica,sans-Serif" font-size="10.00">iomanip</text>
</a>
</g>
</g>
<!-- Node1&#45;&gt;Node17 -->
<g id="edge26" class="edge">
<title>Node1&#45;&gt;Node17</title>
<path fill="none" stroke="midnightblue" d="M432.5,-280.08C432.5,-273.01 432.5,-262.86 432.5,-253.99"/>
<polygon fill="midnightblue" stroke="midnightblue" points="436,-253.75 432.5,-243.75 429,-253.75 436,-253.75"/>
</g>
<!-- Node18 -->
<g id="node18" class="node">
<title>Node18</title>
<g id="a_node18"><a xlink:title=" ">
<polygon fill="none" stroke="#bfbfbf" points="478.5,-224.5 478.5,-243.5 538.5,-243.5 538.5,-224.5 478.5,-224.5"/>
<text text-anchor="middle" x="508.5" y="-231.5" font-family="Helvetica,sans-Serif" font-size="10.00">iostream</text>
</a>
</g>
</g>
<!-- Node1&#45;&gt;Node18 -->
<g id="edge27" class="edge">
<title>Node1&#45;&gt;Node18</title>
<path fill="none" stroke="midnightblue" d="M444.71,-280.32C456.28,-272.11 473.88,-259.6 487.66,-249.81"/>
<polygon fill="midnightblue" stroke="midnightblue" points="489.94,-252.48 496.07,-243.83 485.89,-246.77 489.94,-252.48"/>
</g>
<!-- Node3 -->
<g id="node3" class="node">
<title>Node3</title>
<g id="a_node3"><a xlink:title=" ">
<polygon fill="none" stroke="#bfbfbf" points="178,-112.5 178,-131.5 225,-131.5 225,-112.5 178,-112.5"/>
<text text-anchor="middle" x="201.5" y="-119.5" font-family="Helvetica,sans-Serif" font-size="10.00">vector</text>
</a>
</g>
</g>
<!-- Node2&#45;&gt;Node3 -->
<g id="edge2" class="edge">
<title>Node2&#45;&gt;Node3</title>
<path fill="none" stroke="midnightblue" d="M268.28,-228.12C241.47,-222.61 212.13,-211.23 195.5,-188 185.83,-174.49 189.21,-155.13 193.85,-141.06"/>
<polygon fill="midnightblue" stroke="midnightblue" points="197.2,-142.1 197.46,-131.51 190.65,-139.63 197.2,-142.1"/>
</g>
<!-- Node4 -->
<g id="node4" class="node">
<title>Node4</title>
<g id="a_node4"><a xlink:href="constants_8hpp.html" target="_top" xlink:title="Common constants used throughout the library.">
<polygon fill="none" stroke="black" points="306.5,-56.5 306.5,-75.5 450.5,-75.5 450.5,-56.5 306.5,-56.5"/>
<text text-anchor="middle" x="378.5" y="-63.5" font-family="Helvetica,sans-Serif" font-size="10.00">SignalEasel/constants.hpp</text>
</a>
</g>
</g>
<!-- Node2&#45;&gt;Node4 -->
<g id="edge3" class="edge">
<title>Node2&#45;&gt;Node4</title>
<path fill="none" stroke="midnightblue" d="M335.47,-224.43C342.93,-215.88 353.78,-202.03 359.5,-188 373.49,-153.66 377.24,-109.96 378.2,-85.58"/>
<polygon fill="midnightblue" stroke="midnightblue" points="381.7,-85.66 378.48,-75.57 374.71,-85.47 381.7,-85.66"/>
</g>
<!-- Node6 -->
<g id="node6" class="node">
<title>Node6</title>
<g id="a_node6"><a xlink:href="bit__stream_8hpp.html" target="_top" xlink:title="The bit stream class.">
<polygon fill="none" stroke="black" points="0,-168.5 0,-187.5 149,-187.5 149,-168.5 0,-168.5"/>
<text text-anchor="middle" x="74.5" y="-175.5" font-family="Helvetica,sans-Serif" font-size="10.00">SignalEasel/bit_stream.hpp</text>
</a>
</g>
</g>
<!-- Node2&#45;&gt;Node6 -->
<g id="edge5" class="edge">
<title>Node2&#45;&gt;Node6</title>
<path fill="none" stroke="midnightblue" d="M287.41,-224.44C243.18,-215 171.96,-199.8 124.22,-189.61"/>
<polygon fill="midnightblue" stroke="midnightblue" points="124.91,-186.18 114.4,-187.52 123.45,-193.03 124.91,-186.18"/>
</g>
<!-- Node7 -->
<g id="node7" class="node">
<title>Node7</title>
<g id="a_node7"><a xlink:href="demodulator_8hpp.html" target="_top" xlink:title="Base class for demodulators.">
<polygon fill="none" stroke="black" points="406.5,-168.5 406.5,-187.5 564.5,-187.5 564.5,-168.5 406.5,-168.5"/>
<text text-anchor="middle" x="485.5" y="-175.5" font-family="Helvetica,sans-Serif" font-size="10.00">SignalEasel/demodulator.hpp</text>
</a>
</g>
</g>
<!-- Node2&#45;&gt;Node7 -->
<g id="edge8" class="edge">
<title>Node2&#45;&gt;Node7</title>
<path fill="none" stroke="midnightblue" d="M352.54,-224.44C379.12,-215.36 421.31,-200.94 451.02,-190.78"/>
<polygon fill="midnightblue" stroke="midnightblue" points="452.25,-194.06 460.58,-187.52 449.99,-187.44 452.25,-194.06"/>
</g>
<!-- Node10 -->
<g id="node10" class="node">
<title>Node10</title>
<g id="a_node10"><a xlink:href="modulator_8hpp.html" target="_top" xlink:title="Modulator base class.">
<polygon fill="none" stroke="black" points="204.5,-168.5 204.5,-187.5 350.5,-187.5 350.5,-168.5 204.5,-168.5"/>
<text text-anchor="middle" x="277.5" y="-175.5" font-family="Helvetica,sans-Serif" font-size="10.00">SignalEasel/modulator.hpp</text>
</a>
</g>
</g>
<!-- Node2&#45;&gt;Node10 -->
<g id="edge13" class="edge">
<title>Node2&#45;&gt;Node10</title>
<path fill="none" stroke="midnightblue" d="M319.24,-224.08C312.04,-216.3 301.39,-204.8 292.65,-195.37"/>
<polygon fill="midnightblue" stroke="midnightblue" points="294.97,-192.71 285.6,-187.75 289.83,-197.47 294.97,-192.71"/>
</g>
<!-- Node11 -->
<g id="node11" class="node">
<title>Node11</title>
<g id="a_node11"><a xlink:href="receiver_8hpp.html" target="_top" xlink:title="Base class for receivers. Demodulators that use pulse audio.">
<polygon fill="none" stroke="black" points="595.5,-168.5 595.5,-187.5 731.5,-187.5 731.5,-168.5 595.5,-168.5"/>
<text text-anchor="middle" x="663.5" y="-175.5" font-family="Helvetica,sans-Serif" font-size="10.00">SignalEasel/receiver.hpp</text>
</a>
</g>
</g>
<!-- Node2&#45;&gt;Node11 -->
<g id="edge17" class="edge">
<title>Node2&#45;&gt;Node11</title>
<path fill="none" stroke="midnightblue" d="M380.74,-224.44C440.46,-214.85 537.24,-199.29 600.63,-189.1"/>
<polygon fill="midnightblue" stroke="midnightblue" points="601.19,-192.56 610.51,-187.52 600.08,-185.65 601.19,-192.56"/>
</g>
<!-- Node5 -->
<g id="node5" class="node">
<title>Node5</title>
<g id="a_node5"><a xlink:title=" ">
<polygon fill="none" stroke="#bfbfbf" points="252.5,-0.5 252.5,-19.5 302.5,-19.5 302.5,-0.5 252.5,-0.5"/>
<text text-anchor="middle" x="277.5" y="-7.5" font-family="Helvetica,sans-Serif" font-size="10.00">cstdint</text>
</a>
</g>
</g>
<!-- Node4&#45;&gt;Node5 -->
<g id="edge4" class="edge">
<title>Node4&#45;&gt;Node5</title>
<path fill="none" stroke="midnightblue" d="M362.27,-56.32C346.15,-47.7 321.2,-34.36 302.54,-24.39"/>
<polygon fill="midnightblue" stroke="midnightblue" points="304.16,-21.28 293.69,-19.65 300.86,-27.46 304.16,-21.28"/>
</g>
<!-- Node6&#45;&gt;Node3 -->
<g id="edge7" class="edge">
<title>Node6&#45;&gt;Node3</title>
<path fill="none" stroke="midnightblue" d="M94.62,-168.44C115.52,-159.56 148.43,-145.56 172.22,-135.45"/>
<polygon fill="midnightblue" stroke="midnightblue" points="173.64,-138.65 181.47,-131.52 170.9,-132.21 173.64,-138.65"/>
</g>
<!-- Node6&#45;&gt;Node5 -->
<g id="edge6" class="edge">
<title>Node6&#45;&gt;Node5</title>
<path fill="none" stroke="midnightblue" d="M85.13,-168.31C117.88,-141.53 217.54,-60.03 259.05,-26.09"/>
<polygon fill="midnightblue" stroke="midnightblue" points="261.45,-28.64 266.98,-19.61 257.02,-23.23 261.45,-28.64"/>
</g>
<!-- Node7&#45;&gt;Node3 -->
<g id="edge10" class="edge">
<title>Node7&#45;&gt;Node3</title>
<path fill="none" stroke="midnightblue" d="M440.5,-168.44C383.43,-157.59 286.33,-139.13 235.23,-129.41"/>
<polygon fill="midnightblue" stroke="midnightblue" points="235.83,-125.96 225.35,-127.54 234.52,-132.84 235.83,-125.96"/>
</g>
<!-- Node8 -->
<g id="node8" class="node">
<title>Node8</title>
<g id="a_node8"><a xlink:title=" ">
<polygon fill="none" stroke="#bfbfbf" points="488.5,-56.5 488.5,-75.5 532.5,-75.5 532.5,-56.5 488.5,-56.5"/>
<text text-anchor="middle" x="510.5" y="-63.5" font-family="Helvetica,sans-Serif" font-size="10.00">string</text>
</a>
</g>
</g>
<!-- Node7&#45;&gt;Node8 -->
<g id="edge9" class="edge">
<title>Node7&#45;&gt;Node8</title>
<path fill="none" stroke="midnightblue" d="M470.29,-168.31C451.42,-156.35 423.15,-133.8 435.5,-112 444.79,-95.59 462.73,-84.51 478.73,-77.45"/>
<polygon fill="midnightblue" stroke="midnightblue" points="480.38,-80.55 488.34,-73.56 477.76,-74.06 480.38,-80.55"/>
</g>
<!-- Node9 -->
<g id="node9" class="node">
<title>Node9</title>
<g id="a_node9"><a xlink:href="settings_8hpp.html" target="_top" xlink:title="Settings structures for SignalEasel.">
<polygon fill="none" stroke="black" points="444.5,-112.5 444.5,-131.5 580.5,-131.5 580.5,-112.5 444.5,-112.5"/>
<text text-anchor="middle" x="512.5" y="-119.5" font-family="Helvetica,sans-Serif" font-size="10.00">SignalEasel/settings.hpp</text>
</a>
</g>
</g>
<!-- Node7&#45;&gt;Node9 -->
<g id="edge11" class="edge">
<title>Node7&#45;&gt;Node9</title>
<path fill="none" stroke="midnightblue" d="M489.96,-168.08C493.65,-160.69 499.02,-149.95 503.59,-140.81"/>
<polygon fill="midnightblue" stroke="midnightblue" points="506.78,-142.26 508.12,-131.75 500.52,-139.13 506.78,-142.26"/>
</g>
<!-- Node9&#45;&gt;Node8 -->
<g id="edge12" class="edge">
<title>Node9&#45;&gt;Node8</title>
<path fill="none" stroke="midnightblue" d="M512.17,-112.08C511.91,-105.01 511.53,-94.86 511.2,-85.99"/>
<polygon fill="midnightblue" stroke="midnightblue" points="514.69,-85.61 510.82,-75.75 507.7,-85.87 514.69,-85.61"/>
</g>
<!-- Node10&#45;&gt;Node3 -->
<g id="edge15" class="edge">
<title>Node10&#45;&gt;Node3</title>
<path fill="none" stroke="midnightblue" d="M265.29,-168.32C253.72,-160.11 236.12,-147.6 222.34,-137.81"/>
<polygon fill="midnightblue" stroke="midnightblue" points="224.11,-134.77 213.93,-131.83 220.06,-140.48 224.11,-134.77"/>
</g>
<!-- Node10&#45;&gt;Node5 -->
<g id="edge14" class="edge">
<title>Node10&#45;&gt;Node5</title>
<path fill="none" stroke="midnightblue" d="M277.5,-168.08C277.5,-141.95 277.5,-65.21 277.5,-29.58"/>
<polygon fill="midnightblue" stroke="midnightblue" points="281,-29.57 277.5,-19.57 274,-29.57 281,-29.57"/>
</g>
<!-- Node10&#45;&gt;Node9 -->
<g id="edge16" class="edge">
<title>Node10&#45;&gt;Node9</title>
<path fill="none" stroke="midnightblue" d="M314.74,-168.44C355.56,-159.06 421.14,-143.99 465.48,-133.8"/>
<polygon fill="midnightblue" stroke="midnightblue" points="466.48,-137.17 475.44,-131.52 464.91,-130.34 466.48,-137.17"/>
</g>
<!-- Node11&#45;&gt;Node9 -->
<g id="edge25" class="edge">
<title>Node11&#45;&gt;Node9</title>
<path fill="none" stroke="midnightblue" d="M639.57,-168.44C614.28,-159.4 574.2,-145.06 545.82,-134.92"/>
<polygon fill="midnightblue" stroke="midnightblue" points="546.91,-131.59 536.31,-131.52 544.55,-138.18 546.91,-131.59"/>
</g>
<!-- Node12 -->
<g id="node12" class="node">
<title>Node12</title>
<g id="a_node12"><a xlink:title=" ">
<polygon fill="none" stroke="#bfbfbf" points="772.5,-112.5 772.5,-131.5 830.5,-131.5 830.5,-112.5 772.5,-112.5"/>
<text text-anchor="middle" x="801.5" y="-119.5" font-family="Helvetica,sans-Serif" font-size="10.00">memory</text>
</a>
</g>
</g>
<!-- Node11&#45;&gt;Node12 -->
<g id="edge18" class="edge">
<title>Node11&#45;&gt;Node12</title>
<path fill="none" stroke="midnightblue" d="M685.37,-168.44C708.28,-159.48 744.48,-145.31 770.37,-135.18"/>
<polygon fill="midnightblue" stroke="midnightblue" points="771.7,-138.42 779.74,-131.52 769.15,-131.9 771.7,-138.42"/>
</g>
<!-- Node13 -->
<g id="node13" class="node">
<title>Node13</title>
<g id="a_node13"><a xlink:href="pulse__audio_8hpp.html" target="_top" xlink:title="Reads audio from pulse audio.">
<polygon fill="none" stroke="black" points="599,-112.5 599,-131.5 754,-131.5 754,-112.5 599,-112.5"/>
<text text-anchor="middle" x="676.5" y="-119.5" font-family="Helvetica,sans-Serif" font-size="10.00">SignalEasel/pulse_audio.hpp</text>
</a>
</g>
</g>
<!-- Node11&#45;&gt;Node13 -->
<g id="edge19" class="edge">
<title>Node11&#45;&gt;Node13</title>
<path fill="none" stroke="midnightblue" d="M665.65,-168.08C667.37,-160.93 669.85,-150.64 672,-141.69"/>
<polygon fill="midnightblue" stroke="midnightblue" points="675.46,-142.29 674.39,-131.75 668.65,-140.65 675.46,-142.29"/>
</g>
<!-- Node13&#45;&gt;Node4 -->
<g id="edge22" class="edge">
<title>Node13&#45;&gt;Node4</title>
<path fill="none" stroke="midnightblue" d="M629.28,-112.44C576.75,-102.92 491.89,-87.55 435.65,-77.36"/>
<polygon fill="midnightblue" stroke="midnightblue" points="435.96,-73.86 425.5,-75.52 434.71,-80.74 435.96,-73.86"/>
</g>
<!-- Node13&#45;&gt;Node8 -->
<g id="edge21" class="edge">
<title>Node13&#45;&gt;Node8</title>
<path fill="none" stroke="midnightblue" d="M650.2,-112.44C620.91,-102.92 573.59,-87.52 542.26,-77.33"/>
<polygon fill="midnightblue" stroke="midnightblue" points="543.29,-73.99 532.7,-74.22 541.12,-80.64 543.29,-73.99"/>
</g>
<!-- Node14 -->
<g id="node14" class="node">
<title>Node14</title>
<g id="a_node14"><a xlink:title=" ">
<polygon fill="none" stroke="#bfbfbf" points="656.5,-56.5 656.5,-75.5 698.5,-75.5 698.5,-56.5 656.5,-56.5"/>
<text text-anchor="middle" x="677.5" y="-63.5" font-family="Helvetica,sans-Serif" font-size="10.00">array</text>
</a>
</g>
</g>
<!-- Node13&#45;&gt;Node14 -->
<g id="edge20" class="edge">
<title>Node13&#45;&gt;Node14</title>
<path fill="none" stroke="midnightblue" d="M676.67,-112.08C676.8,-105.01 676.98,-94.86 677.15,-85.99"/>
<polygon fill="midnightblue" stroke="midnightblue" points="680.65,-85.81 677.34,-75.75 673.65,-85.68 680.65,-85.81"/>
</g>
<!-- Node15 -->
<g id="node15" class="node">
<title>Node15</title>
<g id="a_node15"><a xlink:title=" ">
<polygon fill="none" stroke="#bfbfbf" points="717,-56.5 717,-75.5 794,-75.5 794,-56.5 717,-56.5"/>
<text text-anchor="middle" x="755.5" y="-63.5" font-family="Helvetica,sans-Serif" font-size="10.00">pulse/error.h</text>
</a>
</g>
</g>
<!-- Node13&#45;&gt;Node15 -->
<g id="edge23" class="edge">
<title>Node13&#45;&gt;Node15</title>
<path fill="none" stroke="midnightblue" d="M689.19,-112.32C701.4,-103.98 720.08,-91.21 734.5,-81.35"/>
<polygon fill="midnightblue" stroke="midnightblue" points="736.56,-84.19 742.84,-75.65 732.61,-78.41 736.56,-84.19"/>
</g>
<!-- Node16 -->
<g id="node16" class="node">
<title>Node16</title>
<g id="a_node16"><a xlink:title=" ">
<polygon fill="none" stroke="#bfbfbf" points="550.5,-56.5 550.5,-75.5 638.5,-75.5 638.5,-56.5 550.5,-56.5"/>
<text text-anchor="middle" x="594.5" y="-63.5" font-family="Helvetica,sans-Serif" font-size="10.00">pulse/simple.h</text>
</a>
</g>
</g>
<!-- Node13&#45;&gt;Node16 -->
<g id="edge24" class="edge">
<title>Node13&#45;&gt;Node16</title>
<path fill="none" stroke="midnightblue" d="M663.33,-112.32C650.65,-103.98 631.27,-91.21 616.29,-81.35"/>
<polygon fill="midnightblue" stroke="midnightblue" points="617.92,-78.23 607.64,-75.65 614.07,-84.08 617.92,-78.23"/>
</g>
</g>
</svg>
