<?xml version="1.0" encoding="UTF-8" standalone="no"?>
<!DOCTYPE svg PUBLIC "-//W3C//DTD SVG 1.1//EN"
 "http://www.w3.org/Graphics/SVG/1.1/DTD/svg11.dtd">
<!-- Generated by graphviz version 2.43.0 (0)
 -->
<!-- Title: aprs.cpp Pages: 1 -->
<svg width="1210pt" height="364pt"
 viewBox="0.00 0.00 1209.95 364.00" xmlns="http://www.w3.org/2000/svg" xmlns:xlink="http://www.w3.org/1999/xlink">
<g id="graph0" class="graph" transform="scale(1 1) rotate(0) translate(4 360)">
<title>aprs.cpp</title>
<!-- Node1 -->
<g id="node1" class="node">
<title>Node1</title>
<g id="a_node1"><a xlink:title="APRS implementation.">
<polygon fill="#bfbfbf" stroke="black" points="531.45,-336.5 531.45,-355.5 589.45,-355.5 589.45,-336.5 531.45,-336.5"/>
<text text-anchor="middle" x="560.45" y="-343.5" font-family="Helvetica,sans-Serif" font-size="10.00">aprs.cpp</text>
</a>
</g>
</g>
<!-- Node2 -->
<g id="node2" class="node">
<title>Node2</title>
<g id="a_node2"><a xlink:title=" ">
<polygon fill="none" stroke="#bfbfbf" points="401.95,-280.5 401.95,-299.5 448.95,-299.5 448.95,-280.5 401.95,-280.5"/>
<text text-anchor="middle" x="425.45" y="-287.5" font-family="Helvetica,sans-Serif" font-size="10.00">cmath</text>
</a>
</g>
</g>
<!-- Node1&#45;&gt;Node2 -->
<g id="edge1" class="edge">
<title>Node1&#45;&gt;Node2</title>
<path fill="none" stroke="midnightblue" d="M539.05,-336.44C516.74,-327.52 481.54,-313.44 456.24,-303.32"/>
<polygon fill="midnightblue" stroke="midnightblue" points="457.32,-299.98 446.74,-299.52 454.72,-306.48 457.32,-299.98"/>
</g>
<!-- Node3 -->
<g id="node3" class="node">
<title>Node3</title>
<g id="a_node3"><a xlink:title=" ">
<polygon fill="none" stroke="#bfbfbf" points="466.95,-280.5 466.95,-299.5 531.95,-299.5 531.95,-280.5 466.95,-280.5"/>
<text text-anchor="middle" x="499.45" y="-287.5" font-family="Helvetica,sans-Serif" font-size="10.00">stdexcept</text>
</a>
</g>
</g>
<!-- Node1&#45;&gt;Node3 -->
<g id="edge2" class="edge">
<title>Node1&#45;&gt;Node3</title>
<path fill="none" stroke="midnightblue" d="M550.65,-336.32C541.63,-328.34 528.04,-316.31 517.13,-306.65"/>
<polygon fill="midnightblue" stroke="midnightblue" points="519.23,-303.84 509.42,-299.83 514.59,-309.08 519.23,-303.84"/>
</g>
<!-- Node4 -->
<g id="node4" class="node">
<title>Node4</title>
<g id="a_node4"><a xlink:title=" ">
<polygon fill="none" stroke="#bfbfbf" points="521.95,-112.5 521.95,-131.5 568.95,-131.5 568.95,-112.5 521.95,-112.5"/>
<text text-anchor="middle" x="545.45" y="-119.5" font-family="Helvetica,sans-Serif" font-size="10.00">vector</text>
</a>
</g>
</g>
<!-- Node1&#45;&gt;Node4 -->
<g id="edge3" class="edge">
<title>Node1&#45;&gt;Node4</title>
<path fill="none" stroke="midnightblue" d="M559.86,-336.3C557.65,-303.63 549.83,-187.87 546.73,-141.96"/>
<polygon fill="midnightblue" stroke="midnightblue" points="550.21,-141.63 546.05,-131.88 543.23,-142.1 550.21,-141.63"/>
</g>
<!-- Node5 -->
<g id="node5" class="node">
<title>Node5</title>
<g id="a_node5"><a xlink:href="aprs_8hpp.html" target="_top" xlink:title="APRS implementation.">
<polygon fill="none" stroke="black" points="788.45,-280.5 788.45,-299.5 906.45,-299.5 906.45,-280.5 788.45,-280.5"/>
<text text-anchor="middle" x="847.45" y="-287.5" font-family="Helvetica,sans-Serif" font-size="10.00">SignalEasel/aprs.hpp</text>
</a>
</g>
</g>
<!-- Node1&#45;&gt;Node5 -->
<g id="edge4" class="edge">
<title>Node1&#45;&gt;Node5</title>
<path fill="none" stroke="midnightblue" d="M589.54,-339.53C636.9,-330.62 731.41,-312.83 791.93,-301.45"/>
<polygon fill="midnightblue" stroke="midnightblue" points="792.89,-304.83 802.07,-299.54 791.6,-297.95 792.89,-304.83"/>
</g>
<!-- Node22 -->
<g id="node22" class="node">
<title>Node22</title>
<g id="a_node22"><a xlink:href="exception_8hpp.html" target="_top" xlink:title="SignalEasel exceptions.">
<polygon fill="none" stroke="black" points="1035.95,-280.5 1035.95,-299.5 1180.95,-299.5 1180.95,-280.5 1035.95,-280.5"/>
<text text-anchor="middle" x="1108.45" y="-287.5" font-family="Helvetica,sans-Serif" font-size="10.00">SignalEasel/exception.hpp</text>
</a>
</g>
</g>
<!-- Node1&#45;&gt;Node22 -->
<g id="edge38" class="edge">
<title>Node1&#45;&gt;Node22</title>
<path fill="none" stroke="midnightblue" d="M589.52,-342.13C670.45,-334.16 900.53,-311.49 1025.39,-299.18"/>
<polygon fill="midnightblue" stroke="midnightblue" points="1026.06,-302.64 1035.67,-298.17 1025.37,-295.67 1026.06,-302.64"/>
</g>
<!-- Node6 -->
<g id="node6" class="node">
<title>Node6</title>
<g id="a_node6"><a xlink:title=" ">
<polygon fill="none" stroke="#bfbfbf" points="892.45,-0.5 892.45,-19.5 942.45,-19.5 942.45,-0.5 892.45,-0.5"/>
<text text-anchor="middle" x="917.45" y="-7.5" font-family="Helvetica,sans-Serif" font-size="10.00">cstdint</text>
</a>
</g>
</g>
<!-- Node5&#45;&gt;Node6 -->
<g id="edge5" class="edge">
<title>Node5&#45;&gt;Node6</title>
<path fill="none" stroke="midnightblue" d="M906.55,-282.67C959.09,-275.88 1030.71,-263.38 1051.45,-244 1073.43,-223.45 1070.45,-209.1 1070.45,-179 1070.45,-179 1070.45,-179 1070.45,-121 1070.45,-63.21 997.6,-32.8 952.44,-19.5"/>
<polygon fill="midnightblue" stroke="midnightblue" points="953.28,-16.1 942.71,-16.77 951.39,-22.84 953.28,-16.1"/>
</g>
<!-- Node7 -->
<g id="node7" class="node">
<title>Node7</title>
<g id="a_node7"><a xlink:title=" ">
<polygon fill="none" stroke="#bfbfbf" points="702.45,-56.5 702.45,-75.5 746.45,-75.5 746.45,-56.5 702.45,-56.5"/>
<text text-anchor="middle" x="724.45" y="-63.5" font-family="Helvetica,sans-Serif" font-size="10.00">string</text>
</a>
</g>
</g>
<!-- Node5&#45;&gt;Node7 -->
<g id="edge6" class="edge">
<title>Node5&#45;&gt;Node7</title>
<path fill="none" stroke="midnightblue" d="M858.39,-280.42C881.34,-261.3 931.12,-213.32 915.45,-168 905.1,-138.09 897.55,-129.9 871.45,-112 836.44,-88 788.2,-76.45 756.68,-71.15"/>
<polygon fill="midnightblue" stroke="midnightblue" points="757.09,-67.67 746.67,-69.58 756.01,-74.59 757.09,-67.67"/>
</g>
<!-- Node8 -->
<g id="node8" class="node">
<title>Node8</title>
<g id="a_node8"><a xlink:title=" ">
<polygon fill="none" stroke="#bfbfbf" points="920.45,-224.5 920.45,-243.5 1042.45,-243.5 1042.45,-224.5 920.45,-224.5"/>
<text text-anchor="middle" x="981.45" y="-231.5" font-family="Helvetica,sans-Serif" font-size="10.00">BoosterSeat/time.hpp</text>
</a>
</g>
</g>
<!-- Node5&#45;&gt;Node8 -->
<g id="edge7" class="edge">
<title>Node5&#45;&gt;Node8</title>
<path fill="none" stroke="midnightblue" d="M868.68,-280.44C890.83,-271.52 925.76,-257.44 950.88,-247.32"/>
<polygon fill="midnightblue" stroke="midnightblue" points="952.35,-250.5 960.31,-243.52 949.73,-244.01 952.35,-250.5"/>
</g>
<!-- Node9 -->
<g id="node9" class="node">
<title>Node9</title>
<g id="a_node9"><a xlink:href="afsk_8hpp.html" target="_top" xlink:title="AFSK related modulation/demodulation.">
<polygon fill="none" stroke="black" points="362.45,-224.5 362.45,-243.5 480.45,-243.5 480.45,-224.5 362.45,-224.5"/>
<text text-anchor="middle" x="421.45" y="-231.5" font-family="Helvetica,sans-Serif" font-size="10.00">SignalEasel/afsk.hpp</text>
</a>
</g>
</g>
<!-- Node5&#45;&gt;Node9 -->
<g id="edge8" class="edge">
<title>Node5&#45;&gt;Node9</title>
<path fill="none" stroke="midnightblue" d="M788.21,-281.49C710.19,-271.6 573.24,-254.24 490.57,-243.76"/>
<polygon fill="midnightblue" stroke="midnightblue" points="490.88,-240.27 480.52,-242.49 490,-247.22 490.88,-240.27"/>
</g>
<!-- Node20 -->
<g id="node20" class="node">
<title>Node20</title>
<g id="a_node20"><a xlink:href="ax25_8hpp.html" target="_top" xlink:title="AX.25 tools.">
<polygon fill="none" stroke="black" points="742.95,-224.5 742.95,-243.5 863.95,-243.5 863.95,-224.5 742.95,-224.5"/>
<text text-anchor="middle" x="803.45" y="-231.5" font-family="Helvetica,sans-Serif" font-size="10.00">SignalEasel/ax25.hpp</text>
</a>
</g>
</g>
<!-- Node5&#45;&gt;Node20 -->
<g id="edge31" class="edge">
<title>Node5&#45;&gt;Node20</title>
<path fill="none" stroke="midnightblue" d="M840.18,-280.08C833.9,-272.38 824.66,-261.03 817.02,-251.65"/>
<polygon fill="midnightblue" stroke="midnightblue" points="819.61,-249.29 810.58,-243.75 814.18,-253.71 819.61,-249.29"/>
</g>
<!-- Node9&#45;&gt;Node4 -->
<g id="edge9" class="edge">
<title>Node9&#45;&gt;Node4</title>
<path fill="none" stroke="midnightblue" d="M443.52,-224.47C461.2,-216.86 485.85,-204.37 503.45,-188 518.01,-174.45 529.77,-154.83 537.11,-140.69"/>
<polygon fill="midnightblue" stroke="midnightblue" points="540.34,-142.05 541.64,-131.54 534.07,-138.95 540.34,-142.05"/>
</g>
<!-- Node10 -->
<g id="node10" class="node">
<title>Node10</title>
<g id="a_node10"><a xlink:href="constants_8hpp.html" target="_top" xlink:title="Common constants used throughout the library.">
<polygon fill="none" stroke="black" points="18.45,-56.5 18.45,-75.5 162.45,-75.5 162.45,-56.5 18.45,-56.5"/>
<text text-anchor="middle" x="90.45" y="-63.5" font-family="Helvetica,sans-Serif" font-size="10.00">SignalEasel/constants.hpp</text>
</a>
</g>
</g>
<!-- Node9&#45;&gt;Node10 -->
<g id="edge10" class="edge">
<title>Node9&#45;&gt;Node10</title>
<path fill="none" stroke="midnightblue" d="M362.24,-230.83C253.87,-226.23 32.56,-213.78 9.45,-188 -21.85,-153.1 34.69,-105.28 68.24,-81.56"/>
<polygon fill="midnightblue" stroke="midnightblue" points="70.35,-84.36 76.6,-75.81 66.38,-78.59 70.35,-84.36"/>
</g>
<!-- Node11 -->
<g id="node11" class="node">
<title>Node11</title>
<g id="a_node11"><a xlink:href="bit__stream_8hpp.html" target="_top" xlink:title="The bit stream class.">
<polygon fill="none" stroke="black" points="625.95,-168.5 625.95,-187.5 774.95,-187.5 774.95,-168.5 625.95,-168.5"/>
<text text-anchor="middle" x="700.45" y="-175.5" font-family="Helvetica,sans-Serif" font-size="10.00">SignalEasel/bit_stream.hpp</text>
</a>
</g>
</g>
<!-- Node9&#45;&gt;Node11 -->
<g id="edge12" class="edge">
<title>Node9&#45;&gt;Node11</title>
<path fill="none" stroke="midnightblue" d="M465.65,-224.44C514.73,-214.94 593.96,-199.61 646.61,-189.42"/>
<polygon fill="midnightblue" stroke="midnightblue" points="647.29,-192.85 656.44,-187.52 645.96,-185.98 647.29,-192.85"/>
</g>
<!-- Node12 -->
<g id="node12" class="node">
<title>Node12</title>
<g id="a_node12"><a xlink:href="demodulator_8hpp.html" target="_top" xlink:title="Base class for demodulators.">
<polygon fill="none" stroke="black" points="172.45,-168.5 172.45,-187.5 330.45,-187.5 330.45,-168.5 172.45,-168.5"/>
<text text-anchor="middle" x="251.45" y="-175.5" font-family="Helvetica,sans-Serif" font-size="10.00">SignalEasel/demodulator.hpp</text>
</a>
</g>
</g>
<!-- Node9&#45;&gt;Node12 -->
<g id="edge15" class="edge">
<title>Node9&#45;&gt;Node12</title>
<path fill="none" stroke="midnightblue" d="M394.51,-224.44C365.79,-215.32 320.12,-200.81 288.12,-190.65"/>
<polygon fill="midnightblue" stroke="midnightblue" points="288.85,-187.21 278.26,-187.52 286.73,-193.88 288.85,-187.21"/>
</g>
<!-- Node14 -->
<g id="node14" class="node">
<title>Node14</title>
<g id="a_node14"><a xlink:href="modulator_8hpp.html" target="_top" xlink:title="Modulator base class.">
<polygon fill="none" stroke="black" points="348.45,-168.5 348.45,-187.5 494.45,-187.5 494.45,-168.5 348.45,-168.5"/>
<text text-anchor="middle" x="421.45" y="-175.5" font-family="Helvetica,sans-Serif" font-size="10.00">SignalEasel/modulator.hpp</text>
</a>
</g>
</g>
<!-- Node9&#45;&gt;Node14 -->
<g id="edge20" class="edge">
<title>Node9&#45;&gt;Node14</title>
<path fill="none" stroke="midnightblue" d="M421.45,-224.08C421.45,-217.01 421.45,-206.86 421.45,-197.99"/>
<polygon fill="midnightblue" stroke="midnightblue" points="424.95,-197.75 421.45,-187.75 417.95,-197.75 424.95,-197.75"/>
</g>
<!-- Node15 -->
<g id="node15" class="node">
<title>Node15</title>
<g id="a_node15"><a xlink:href="receiver_8hpp.html" target="_top" xlink:title="Base class for receivers. Demodulators that use pulse audio.">
<polygon fill="none" stroke="black" points="18.45,-168.5 18.45,-187.5 154.45,-187.5 154.45,-168.5 18.45,-168.5"/>
<text text-anchor="middle" x="86.45" y="-175.5" font-family="Helvetica,sans-Serif" font-size="10.00">SignalEasel/receiver.hpp</text>
</a>
</g>
</g>
<!-- Node9&#45;&gt;Node15 -->
<g id="edge23" class="edge">
<title>Node9&#45;&gt;Node15</title>
<path fill="none" stroke="midnightblue" d="M368.36,-224.44C308.94,-214.87 212.73,-199.36 149.52,-189.17"/>
<polygon fill="midnightblue" stroke="midnightblue" points="149.71,-185.65 139.28,-187.52 148.59,-192.56 149.71,-185.65"/>
</g>
<!-- Node10&#45;&gt;Node6 -->
<g id="edge11" class="edge">
<title>Node10&#45;&gt;Node6</title>
<path fill="none" stroke="midnightblue" d="M162.85,-56.77C165.75,-56.5 168.63,-56.24 171.45,-56 444.53,-32.61 774.89,-17.18 882.06,-12.5"/>
<polygon fill="midnightblue" stroke="midnightblue" points="882.46,-15.99 892.3,-12.06 882.15,-8.99 882.46,-15.99"/>
</g>
<!-- Node11&#45;&gt;Node4 -->
<g id="edge14" class="edge">
<title>Node11&#45;&gt;Node4</title>
<path fill="none" stroke="midnightblue" d="M675.89,-168.44C649.69,-159.32 608.05,-144.81 578.88,-134.65"/>
<polygon fill="midnightblue" stroke="midnightblue" points="579.72,-131.24 569.13,-131.25 577.42,-137.85 579.72,-131.24"/>
</g>
<!-- Node11&#45;&gt;Node6 -->
<g id="edge13" class="edge">
<title>Node11&#45;&gt;Node6</title>
<path fill="none" stroke="midnightblue" d="M711.81,-168.31C746.89,-141.47 853.79,-59.69 898,-25.88"/>
<polygon fill="midnightblue" stroke="midnightblue" points="900.38,-28.46 906.2,-19.61 896.13,-22.9 900.38,-28.46"/>
</g>
<!-- Node12&#45;&gt;Node4 -->
<g id="edge17" class="edge">
<title>Node12&#45;&gt;Node4</title>
<path fill="none" stroke="midnightblue" d="M298.82,-168.5C348.56,-159.54 429.03,-144.97 498.45,-132 502.67,-131.21 507.11,-130.37 511.5,-129.54"/>
<polygon fill="midnightblue" stroke="midnightblue" points="512.38,-132.93 521.54,-127.62 511.06,-126.06 512.38,-132.93"/>
</g>
<!-- Node12&#45;&gt;Node7 -->
<g id="edge16" class="edge">
<title>Node12&#45;&gt;Node7</title>
<path fill="none" stroke="midnightblue" d="M260.32,-168.47C275.91,-154.06 309.84,-125.18 344.45,-112 407.82,-87.86 611.77,-73.61 691.79,-68.82"/>
<polygon fill="midnightblue" stroke="midnightblue" points="692.45,-72.29 702.23,-68.21 692.05,-65.3 692.45,-72.29"/>
</g>
<!-- Node13 -->
<g id="node13" class="node">
<title>Node13</title>
<g id="a_node13"><a xlink:href="settings_8hpp.html" target="_top" xlink:title="Settings structures for SignalEasel.">
<polygon fill="none" stroke="black" points="353.45,-112.5 353.45,-131.5 489.45,-131.5 489.45,-112.5 353.45,-112.5"/>
<text text-anchor="middle" x="421.45" y="-119.5" font-family="Helvetica,sans-Serif" font-size="10.00">SignalEasel/settings.hpp</text>
</a>
</g>
</g>
<!-- Node12&#45;&gt;Node13 -->
<g id="edge18" class="edge">
<title>Node12&#45;&gt;Node13</title>
<path fill="none" stroke="midnightblue" d="M278.38,-168.44C307.11,-159.32 352.77,-144.81 384.77,-134.65"/>
<polygon fill="midnightblue" stroke="midnightblue" points="386.16,-137.88 394.63,-131.52 384.04,-131.21 386.16,-137.88"/>
</g>
<!-- Node13&#45;&gt;Node7 -->
<g id="edge19" class="edge">
<title>Node13&#45;&gt;Node7</title>
<path fill="none" stroke="midnightblue" d="M469.46,-112.44C531.88,-101.32 639.19,-82.19 692.49,-72.7"/>
<polygon fill="midnightblue" stroke="midnightblue" points="693.17,-76.13 702.4,-70.93 691.94,-69.24 693.17,-76.13"/>
</g>
<!-- Node14&#45;&gt;Node4 -->
<g id="edge21" class="edge">
<title>Node14&#45;&gt;Node4</title>
<path fill="none" stroke="midnightblue" d="M441.09,-168.44C461.41,-159.6 493.35,-145.69 516.54,-135.59"/>
<polygon fill="midnightblue" stroke="midnightblue" points="518.12,-138.72 525.89,-131.52 515.32,-132.3 518.12,-138.72"/>
</g>
<!-- Node14&#45;&gt;Node13 -->
<g id="edge22" class="edge">
<title>Node14&#45;&gt;Node13</title>
<path fill="none" stroke="midnightblue" d="M421.45,-168.08C421.45,-161.01 421.45,-150.86 421.45,-141.99"/>
<polygon fill="midnightblue" stroke="midnightblue" points="424.95,-141.75 421.45,-131.75 417.95,-141.75 424.95,-141.75"/>
</g>
<!-- Node15&#45;&gt;Node13 -->
<g id="edge30" class="edge">
<title>Node15&#45;&gt;Node13</title>
<path fill="none" stroke="midnightblue" d="M139.53,-168.44C198.95,-158.87 295.17,-143.36 358.37,-133.17"/>
<polygon fill="midnightblue" stroke="midnightblue" points="359.3,-136.56 368.61,-131.52 358.18,-129.65 359.3,-136.56"/>
</g>
<!-- Node16 -->
<g id="node16" class="node">
<title>Node16</title>
<g id="a_node16"><a xlink:href="pulse__audio_8hpp.html" target="_top" xlink:title="Simple pulse audio interface.">
<polygon fill="none" stroke="black" points="141.95,-112.5 141.95,-131.5 296.95,-131.5 296.95,-112.5 141.95,-112.5"/>
<text text-anchor="middle" x="219.45" y="-119.5" font-family="Helvetica,sans-Serif" font-size="10.00">SignalEasel/pulse_audio.hpp</text>
</a>
</g>
</g>
<!-- Node15&#45;&gt;Node16 -->
<g id="edge24" class="edge">
<title>Node15&#45;&gt;Node16</title>
<path fill="none" stroke="midnightblue" d="M107.52,-168.44C129.51,-159.52 164.18,-145.44 189.11,-135.32"/>
<polygon fill="midnightblue" stroke="midnightblue" points="190.52,-138.52 198.47,-131.52 187.89,-132.04 190.52,-138.52"/>
</g>
<!-- Node16&#45;&gt;Node7 -->
<g id="edge26" class="edge">
<title>Node16&#45;&gt;Node7</title>
<path fill="none" stroke="midnightblue" d="M296.97,-112.71C409.46,-100.68 613.11,-78.91 692,-70.47"/>
<polygon fill="midnightblue" stroke="midnightblue" points="692.71,-73.91 702.28,-69.37 691.97,-66.95 692.71,-73.91"/>
</g>
<!-- Node16&#45;&gt;Node10 -->
<g id="edge27" class="edge">
<title>Node16&#45;&gt;Node10</title>
<path fill="none" stroke="midnightblue" d="M199.01,-112.44C177.78,-103.56 144.35,-89.56 120.19,-79.45"/>
<polygon fill="midnightblue" stroke="midnightblue" points="121.37,-76.15 110.79,-75.52 118.66,-82.61 121.37,-76.15"/>
</g>
<!-- Node17 -->
<g id="node17" class="node">
<title>Node17</title>
<g id="a_node17"><a xlink:title=" ">
<polygon fill="none" stroke="#bfbfbf" points="469.45,-56.5 469.45,-75.5 511.45,-75.5 511.45,-56.5 469.45,-56.5"/>
<text text-anchor="middle" x="490.45" y="-63.5" font-family="Helvetica,sans-Serif" font-size="10.00">array</text>
</a>
</g>
</g>
<!-- Node16&#45;&gt;Node17 -->
<g id="edge25" class="edge">
<title>Node16&#45;&gt;Node17</title>
<path fill="none" stroke="midnightblue" d="M262.39,-112.44C317.31,-101.5 411.1,-82.81 459.51,-73.17"/>
<polygon fill="midnightblue" stroke="midnightblue" points="460.27,-76.58 469.4,-71.19 458.91,-69.72 460.27,-76.58"/>
</g>
<!-- Node18 -->
<g id="node18" class="node">
<title>Node18</title>
<g id="a_node18"><a xlink:title=" ">
<polygon fill="none" stroke="#bfbfbf" points="180.95,-56.5 180.95,-75.5 257.95,-75.5 257.95,-56.5 180.95,-56.5"/>
<text text-anchor="middle" x="219.45" y="-63.5" font-family="Helvetica,sans-Serif" font-size="10.00">pulse/error.h</text>
</a>
</g>
</g>
<!-- Node16&#45;&gt;Node18 -->
<g id="edge28" class="edge">
<title>Node16&#45;&gt;Node18</title>
<path fill="none" stroke="midnightblue" d="M219.45,-112.08C219.45,-105.01 219.45,-94.86 219.45,-85.99"/>
<polygon fill="midnightblue" stroke="midnightblue" points="222.95,-85.75 219.45,-75.75 215.95,-85.75 222.95,-85.75"/>
</g>
<!-- Node19 -->
<g id="node19" class="node">
<title>Node19</title>
<g id="a_node19"><a xlink:title=" ">
<polygon fill="none" stroke="#bfbfbf" points="276.45,-56.5 276.45,-75.5 364.45,-75.5 364.45,-56.5 276.45,-56.5"/>
<text text-anchor="middle" x="320.45" y="-63.5" font-family="Helvetica,sans-Serif" font-size="10.00">pulse/simple.h</text>
</a>
</g>
</g>
<!-- Node16&#45;&gt;Node19 -->
<g id="edge29" class="edge">
<title>Node16&#45;&gt;Node19</title>
<path fill="none" stroke="midnightblue" d="M235.67,-112.32C251.8,-103.7 276.75,-90.36 295.41,-80.39"/>
<polygon fill="midnightblue" stroke="midnightblue" points="297.09,-83.46 304.26,-75.65 293.79,-77.28 297.09,-83.46"/>
</g>
<!-- Node20&#45;&gt;Node4 -->
<g id="edge36" class="edge">
<title>Node20&#45;&gt;Node4</title>
<path fill="none" stroke="midnightblue" d="M742.58,-226.26C704.6,-220.18 655.66,-208.85 616.45,-188 593.5,-175.8 572.24,-154.44 559.08,-139.55"/>
<polygon fill="midnightblue" stroke="midnightblue" points="561.47,-136.97 552.31,-131.65 556.16,-141.52 561.47,-136.97"/>
</g>
<!-- Node20&#45;&gt;Node6 -->
<g id="edge32" class="edge">
<title>Node20&#45;&gt;Node6</title>
<path fill="none" stroke="midnightblue" d="M858.19,-224.43C879.72,-218.11 902.37,-207.11 915.45,-188 948.8,-139.25 933.2,-63.93 923.35,-29.42"/>
<polygon fill="midnightblue" stroke="midnightblue" points="926.67,-28.29 920.42,-19.73 919.96,-30.32 926.67,-28.29"/>
</g>
<!-- Node20&#45;&gt;Node7 -->
<g id="edge35" class="edge">
<title>Node20&#45;&gt;Node7</title>
<path fill="none" stroke="midnightblue" d="M840.2,-224.43C873.28,-214.72 914.56,-196.44 899.45,-168 870.39,-113.35 798.25,-86.05 756.22,-74.36"/>
<polygon fill="midnightblue" stroke="midnightblue" points="757.04,-70.96 746.48,-71.79 755.25,-77.73 757.04,-70.96"/>
</g>
<!-- Node20&#45;&gt;Node11 -->
<g id="edge37" class="edge">
<title>Node20&#45;&gt;Node11</title>
<path fill="none" stroke="midnightblue" d="M786.9,-224.32C770.45,-215.7 745.01,-202.36 725.98,-192.39"/>
<polygon fill="midnightblue" stroke="midnightblue" points="727.44,-189.2 716.95,-187.65 724.19,-195.4 727.44,-189.2"/>
</g>
<!-- Node20&#45;&gt;Node17 -->
<g id="edge33" class="edge">
<title>Node20&#45;&gt;Node17</title>
<path fill="none" stroke="midnightblue" d="M803.17,-224.17C802.27,-210.36 798.55,-183.62 783.45,-168 711.26,-93.36 581.4,-73.86 521.84,-68.78"/>
<polygon fill="midnightblue" stroke="midnightblue" points="521.81,-65.27 511.57,-67.99 521.27,-72.24 521.81,-65.27"/>
</g>
<!-- Node21 -->
<g id="node21" class="node">
<title>Node21</title>
<g id="a_node21"><a xlink:title=" ">
<polygon fill="none" stroke="#bfbfbf" points="830.45,-168.5 830.45,-187.5 890.45,-187.5 890.45,-168.5 830.45,-168.5"/>
<text text-anchor="middle" x="860.45" y="-175.5" font-family="Helvetica,sans-Serif" font-size="10.00">iostream</text>
</a>
</g>
</g>
<!-- Node20&#45;&gt;Node21 -->
<g id="edge34" class="edge">
<title>Node20&#45;&gt;Node21</title>
<path fill="none" stroke="midnightblue" d="M812.6,-224.32C820.95,-216.42 833.48,-204.55 843.62,-194.94"/>
<polygon fill="midnightblue" stroke="midnightblue" points="846.27,-197.25 851.12,-187.83 841.45,-192.17 846.27,-197.25"/>
</g>
<!-- Node22&#45;&gt;Node7 -->
<g id="edge40" class="edge">
<title>Node22&#45;&gt;Node7</title>
<path fill="none" stroke="midnightblue" d="M1101.96,-280.47C1091.9,-267.52 1071.59,-242.45 1051.45,-224 989.29,-167.09 974.6,-148.08 898.45,-112 851.61,-89.81 792.3,-77.47 756.42,-71.54"/>
<polygon fill="midnightblue" stroke="midnightblue" points="756.94,-68.08 746.51,-69.97 755.84,-74.99 756.94,-68.08"/>
</g>
<!-- Node23 -->
<g id="node23" class="node">
<title>Node23</title>
<g id="a_node23"><a xlink:title=" ">
<polygon fill="none" stroke="#bfbfbf" points="1136.95,-224.5 1136.95,-243.5 1201.95,-243.5 1201.95,-224.5 1136.95,-224.5"/>
<text text-anchor="middle" x="1169.45" y="-231.5" font-family="Helvetica,sans-Serif" font-size="10.00">exception</text>
</a>
</g>
</g>
<!-- Node22&#45;&gt;Node23 -->
<g id="edge39" class="edge">
<title>Node22&#45;&gt;Node23</title>
<path fill="none" stroke="midnightblue" d="M1118.25,-280.32C1127.26,-272.34 1140.85,-260.31 1151.76,-250.65"/>
<polygon fill="midnightblue" stroke="midnightblue" points="1154.3,-253.08 1159.47,-243.83 1149.66,-247.84 1154.3,-253.08"/>
</g>
</g>
</svg>
