<?xml version="1.0" encoding="UTF-8" standalone="no"?>
<!DOCTYPE svg PUBLIC "-//W3C//DTD SVG 1.1//EN"
 "http://www.w3.org/Graphics/SVG/1.1/DTD/svg11.dtd">
<!-- Generated by graphviz version 2.43.0 (0)
 -->
<!-- Title: aprs_receiver.cpp Pages: 1 -->
<svg width="1597pt" height="397pt"
 viewBox="0.00 0.00 1596.50 397.00" xmlns="http://www.w3.org/2000/svg" xmlns:xlink="http://www.w3.org/1999/xlink">
<g id="graph0" class="graph" transform="scale(1 1) rotate(0) translate(4 393)">
<title>aprs_receiver.cpp</title>
<!-- Node1 -->
<g id="node1" class="node">
<title>Node1</title>
<g id="a_node1"><a xlink:title="Implementation of the APRS receiver class.">
<polygon fill="#bfbfbf" stroke="black" points="1289,-369.5 1289,-388.5 1391,-388.5 1391,-369.5 1289,-369.5"/>
<text text-anchor="middle" x="1340" y="-376.5" font-family="Helvetica,sans-Serif" font-size="10.00">aprs_receiver.cpp</text>
</a>
</g>
</g>
<!-- Node2 -->
<g id="node2" class="node">
<title>Node2</title>
<g id="a_node2"><a xlink:href="aprs_8hpp.html" target="_top" xlink:title=" ">
<polygon fill="none" stroke="black" points="1037,-313.5 1037,-332.5 1155,-332.5 1155,-313.5 1037,-313.5"/>
<text text-anchor="middle" x="1096" y="-320.5" font-family="Helvetica,sans-Serif" font-size="10.00">SignalEasel/aprs.hpp</text>
</a>
</g>
</g>
<!-- Node1&#45;&gt;Node2 -->
<g id="edge1" class="edge">
<title>Node1&#45;&gt;Node2</title>
<path fill="none" stroke="midnightblue" d="M1301.34,-369.44C1258.86,-360.04 1190.57,-344.93 1144.53,-334.74"/>
<polygon fill="midnightblue" stroke="midnightblue" points="1145,-331.26 1134.48,-332.52 1143.49,-338.09 1145,-331.26"/>
</g>
<!-- Node21 -->
<g id="node21" class="node">
<title>Node21</title>
<g id="a_node21"><a xlink:href="exception_8hpp.html" target="_top" xlink:title="SignalEasel exceptions.">
<polygon fill="none" stroke="black" points="1443.5,-56.5 1443.5,-75.5 1588.5,-75.5 1588.5,-56.5 1443.5,-56.5"/>
<text text-anchor="middle" x="1516" y="-63.5" font-family="Helvetica,sans-Serif" font-size="10.00">SignalEasel/exception.hpp</text>
</a>
</g>
</g>
<!-- Node1&#45;&gt;Node21 -->
<g id="edge51" class="edge">
<title>Node1&#45;&gt;Node21</title>
<path fill="none" stroke="midnightblue" d="M1375.11,-369.47C1422.21,-355.68 1500,-323.65 1500,-262.5 1500,-262.5 1500,-262.5 1500,-193.5 1500,-154.9 1507.42,-110.19 1512.16,-85.6"/>
<polygon fill="midnightblue" stroke="midnightblue" points="1515.64,-86.03 1514.16,-75.54 1508.78,-84.66 1515.64,-86.03"/>
</g>
<!-- Node25 -->
<g id="node25" class="node">
<title>Node25</title>
<g id="a_node25"><a xlink:title=" ">
<polygon fill="none" stroke="#bfbfbf" points="28,-185 28,-204 88,-204 88,-185 28,-185"/>
<text text-anchor="middle" x="58" y="-192" font-family="Helvetica,sans-Serif" font-size="10.00">iostream</text>
</a>
</g>
</g>
<!-- Node1&#45;&gt;Node25 -->
<g id="edge53" class="edge">
<title>Node1&#45;&gt;Node25</title>
<path fill="none" stroke="midnightblue" d="M1288.65,-376.13C1070.51,-367.87 227.1,-332.55 123,-277 96.35,-262.78 76.82,-232.46 66.45,-213.08"/>
<polygon fill="midnightblue" stroke="midnightblue" points="69.53,-211.41 61.88,-204.08 63.29,-214.58 69.53,-211.41"/>
</g>
<!-- Node26 -->
<g id="node26" class="node">
<title>Node26</title>
<g id="a_node26"><a xlink:title=" ">
<polygon fill="none" stroke="#bfbfbf" points="1528,-313.5 1528,-332.5 1584,-332.5 1584,-313.5 1528,-313.5"/>
<text text-anchor="middle" x="1556" y="-320.5" font-family="Helvetica,sans-Serif" font-size="10.00">iomanip</text>
</a>
</g>
</g>
<!-- Node1&#45;&gt;Node26 -->
<g id="edge52" class="edge">
<title>Node1&#45;&gt;Node26</title>
<path fill="none" stroke="midnightblue" d="M1374.23,-369.44C1413.38,-359.66 1477.3,-343.67 1517.97,-333.51"/>
<polygon fill="midnightblue" stroke="midnightblue" points="1518.93,-336.87 1527.79,-331.05 1517.23,-330.08 1518.93,-336.87"/>
</g>
<!-- Node3 -->
<g id="node3" class="node">
<title>Node3</title>
<g id="a_node3"><a xlink:title=" ">
<polygon fill="none" stroke="#bfbfbf" points="220,-0.5 220,-19.5 270,-19.5 270,-0.5 220,-0.5"/>
<text text-anchor="middle" x="245" y="-7.5" font-family="Helvetica,sans-Serif" font-size="10.00">cstdint</text>
</a>
</g>
</g>
<!-- Node2&#45;&gt;Node3 -->
<g id="edge2" class="edge">
<title>Node2&#45;&gt;Node3</title>
<path fill="none" stroke="midnightblue" d="M1036.82,-321.05C839.22,-317.65 209.73,-304.71 123,-277 60.53,-257.04 0,-261.08 0,-195.5 0,-195.5 0,-195.5 0,-126.5 0,-35 141.56,-15.87 209.47,-11.95"/>
<polygon fill="midnightblue" stroke="midnightblue" points="209.89,-15.44 219.7,-11.45 209.54,-8.45 209.89,-15.44"/>
</g>
<!-- Node4 -->
<g id="node4" class="node">
<title>Node4</title>
<g id="a_node4"><a xlink:title=" ">
<polygon fill="none" stroke="#bfbfbf" points="1128,-0.5 1128,-19.5 1172,-19.5 1172,-0.5 1128,-0.5"/>
<text text-anchor="middle" x="1150" y="-7.5" font-family="Helvetica,sans-Serif" font-size="10.00">string</text>
</a>
</g>
</g>
<!-- Node2&#45;&gt;Node4 -->
<g id="edge3" class="edge">
<title>Node2&#45;&gt;Node4</title>
<path fill="none" stroke="midnightblue" d="M1148,-313.49C1236.82,-297.71 1411.28,-260.82 1443,-210 1511.27,-100.61 1271.1,-36.91 1181.99,-17.44"/>
<polygon fill="midnightblue" stroke="midnightblue" points="1182.65,-14 1172.14,-15.34 1181.19,-20.85 1182.65,-14"/>
</g>
<!-- Node5 -->
<g id="node5" class="node">
<title>Node5</title>
<g id="a_node5"><a xlink:title=" ">
<polygon fill="none" stroke="#bfbfbf" points="1312,-185 1312,-204 1434,-204 1434,-185 1312,-185"/>
<text text-anchor="middle" x="1373" y="-192" font-family="Helvetica,sans-Serif" font-size="10.00">BoosterSeat/time.hpp</text>
</a>
</g>
</g>
<!-- Node2&#45;&gt;Node5 -->
<g id="edge4" class="edge">
<title>Node2&#45;&gt;Node5</title>
<path fill="none" stroke="midnightblue" d="M1152.96,-313.46C1188.01,-306.72 1233.12,-295.33 1270,-277 1304.66,-259.77 1338.64,-229.56 1357.61,-211.15"/>
<polygon fill="midnightblue" stroke="midnightblue" points="1360.13,-213.58 1364.77,-204.06 1355.2,-208.61 1360.13,-213.58"/>
</g>
<!-- Node6 -->
<g id="node6" class="node">
<title>Node6</title>
<g id="a_node6"><a xlink:href="afsk_8hpp.html" target="_top" xlink:title="AFSK related modulation/demodulation.">
<polygon fill="none" stroke="black" points="552,-252 552,-271 670,-271 670,-252 552,-252"/>
<text text-anchor="middle" x="611" y="-259" font-family="Helvetica,sans-Serif" font-size="10.00">SignalEasel/afsk.hpp</text>
</a>
</g>
</g>
<!-- Node2&#45;&gt;Node6 -->
<g id="edge5" class="edge">
<title>Node2&#45;&gt;Node6</title>
<path fill="none" stroke="midnightblue" d="M1036.53,-314.7C946.47,-303.66 775.9,-282.73 680.34,-271.01"/>
<polygon fill="midnightblue" stroke="midnightblue" points="680.55,-267.51 670.2,-269.76 679.7,-274.45 680.55,-267.51"/>
</g>
<!-- Node18 -->
<g id="node18" class="node">
<title>Node18</title>
<g id="a_node18"><a xlink:href="packets_8hpp.html" target="_top" xlink:title=" ">
<polygon fill="none" stroke="black" points="1103,-252 1103,-271 1261,-271 1261,-252 1103,-252"/>
<text text-anchor="middle" x="1182" y="-259" font-family="Helvetica,sans-Serif" font-size="10.00">SignalEasel/aprs/packets.hpp</text>
</a>
</g>
</g>
<!-- Node2&#45;&gt;Node18 -->
<g id="edge28" class="edge">
<title>Node2&#45;&gt;Node18</title>
<path fill="none" stroke="midnightblue" d="M1108.32,-313.48C1122.12,-303.93 1144.7,-288.31 1161.23,-276.87"/>
<polygon fill="midnightblue" stroke="midnightblue" points="1163.47,-279.58 1169.7,-271.01 1159.49,-273.82 1163.47,-279.58"/>
</g>
<!-- Node23 -->
<g id="node23" class="node">
<title>Node23</title>
<g id="a_node23"><a xlink:href="telemetry__transcoder_8hpp.html" target="_top" xlink:title=" ">
<polygon fill="none" stroke="black" points="937,-246.5 937,-276.5 1085,-276.5 1085,-246.5 937,-246.5"/>
<text text-anchor="start" x="945" y="-264.5" font-family="Helvetica,sans-Serif" font-size="10.00">SignalEasel/aprs/telemetry</text>
<text text-anchor="middle" x="1011" y="-253.5" font-family="Helvetica,sans-Serif" font-size="10.00">_transcoder.hpp</text>
</a>
</g>
</g>
<!-- Node2&#45;&gt;Node23 -->
<g id="edge41" class="edge">
<title>Node2&#45;&gt;Node23</title>
<path fill="none" stroke="midnightblue" d="M1083.82,-313.48C1072.31,-305.42 1054.6,-293.02 1039.53,-282.47"/>
<polygon fill="midnightblue" stroke="midnightblue" points="1041.23,-279.39 1031.03,-276.52 1037.22,-285.12 1041.23,-279.39"/>
</g>
<!-- Node24 -->
<g id="node24" class="node">
<title>Node24</title>
<g id="a_node24"><a xlink:href="ax25_8hpp.html" target="_top" xlink:title="AX.25 tools.">
<polygon fill="none" stroke="black" points="131.5,-252 131.5,-271 252.5,-271 252.5,-252 131.5,-252"/>
<text text-anchor="middle" x="192" y="-259" font-family="Helvetica,sans-Serif" font-size="10.00">SignalEasel/ax25.hpp</text>
</a>
</g>
</g>
<!-- Node2&#45;&gt;Node24 -->
<g id="edge44" class="edge">
<title>Node2&#45;&gt;Node24</title>
<path fill="none" stroke="midnightblue" d="M1036.69,-318.1C876.47,-307.55 435.47,-278.52 262.72,-267.15"/>
<polygon fill="midnightblue" stroke="midnightblue" points="262.93,-263.66 252.72,-266.5 262.47,-270.65 262.93,-263.66"/>
</g>
<!-- Node7 -->
<g id="node7" class="node">
<title>Node7</title>
<g id="a_node7"><a xlink:title=" ">
<polygon fill="none" stroke="#bfbfbf" points="500.5,-118 500.5,-137 547.5,-137 547.5,-118 500.5,-118"/>
<text text-anchor="middle" x="524" y="-125" font-family="Helvetica,sans-Serif" font-size="10.00">vector</text>
</a>
</g>
</g>
<!-- Node6&#45;&gt;Node7 -->
<g id="edge6" class="edge">
<title>Node6&#45;&gt;Node7</title>
<path fill="none" stroke="midnightblue" d="M562.01,-251.96C537.79,-244.99 510.66,-232.46 496,-210 482.76,-189.73 497.44,-162.53 510.04,-145.25"/>
<polygon fill="midnightblue" stroke="midnightblue" points="512.91,-147.26 516.28,-137.21 507.38,-142.97 512.91,-147.26"/>
</g>
<!-- Node8 -->
<g id="node8" class="node">
<title>Node8</title>
<g id="a_node8"><a xlink:href="constants_8hpp.html" target="_top" xlink:title="Common constants used throughout the library.">
<polygon fill="none" stroke="black" points="424,-56.5 424,-75.5 568,-75.5 568,-56.5 424,-56.5"/>
<text text-anchor="middle" x="496" y="-63.5" font-family="Helvetica,sans-Serif" font-size="10.00">SignalEasel/constants.hpp</text>
</a>
</g>
</g>
<!-- Node6&#45;&gt;Node8 -->
<g id="edge7" class="edge">
<title>Node6&#45;&gt;Node8</title>
<path fill="none" stroke="midnightblue" d="M553.68,-251.99C528.5,-245.09 501.25,-232.61 486,-210 460.22,-171.78 476.99,-113.99 488.22,-84.97"/>
<polygon fill="midnightblue" stroke="midnightblue" points="491.48,-86.25 492.02,-75.67 485,-83.6 491.48,-86.25"/>
</g>
<!-- Node9 -->
<g id="node9" class="node">
<title>Node9</title>
<g id="a_node9"><a xlink:href="bit__stream_8hpp.html" target="_top" xlink:title="The bit stream class.">
<polygon fill="none" stroke="black" points="219.5,-185 219.5,-204 368.5,-204 368.5,-185 219.5,-185"/>
<text text-anchor="middle" x="294" y="-192" font-family="Helvetica,sans-Serif" font-size="10.00">SignalEasel/bit_stream.hpp</text>
</a>
</g>
</g>
<!-- Node6&#45;&gt;Node9 -->
<g id="edge9" class="edge">
<title>Node6&#45;&gt;Node9</title>
<path fill="none" stroke="midnightblue" d="M569.23,-251.94C511.66,-240.13 407.98,-218.87 345.62,-206.09"/>
<polygon fill="midnightblue" stroke="midnightblue" points="346.11,-202.61 335.61,-204.03 344.7,-209.47 346.11,-202.61"/>
</g>
<!-- Node10 -->
<g id="node10" class="node">
<title>Node10</title>
<g id="a_node10"><a xlink:href="demodulator_8hpp.html" target="_top" xlink:title="Base class for demodulators.">
<polygon fill="none" stroke="black" points="740,-185 740,-204 898,-204 898,-185 740,-185"/>
<text text-anchor="middle" x="819" y="-192" font-family="Helvetica,sans-Serif" font-size="10.00">SignalEasel/demodulator.hpp</text>
</a>
</g>
</g>
<!-- Node6&#45;&gt;Node10 -->
<g id="edge12" class="edge">
<title>Node6&#45;&gt;Node10</title>
<path fill="none" stroke="midnightblue" d="M638.62,-251.87C675.48,-240.35 740.85,-219.92 781.95,-207.08"/>
<polygon fill="midnightblue" stroke="midnightblue" points="783.1,-210.39 791.6,-204.06 781.01,-203.71 783.1,-210.39"/>
</g>
<!-- Node12 -->
<g id="node12" class="node">
<title>Node12</title>
<g id="a_node12"><a xlink:href="modulator_8hpp.html" target="_top" xlink:title="Modulator base class.">
<polygon fill="none" stroke="black" points="538,-185 538,-204 684,-204 684,-185 538,-185"/>
<text text-anchor="middle" x="611" y="-192" font-family="Helvetica,sans-Serif" font-size="10.00">SignalEasel/modulator.hpp</text>
</a>
</g>
</g>
<!-- Node6&#45;&gt;Node12 -->
<g id="edge17" class="edge">
<title>Node6&#45;&gt;Node12</title>
<path fill="none" stroke="midnightblue" d="M611,-251.73C611,-242.18 611,-226.62 611,-214.28"/>
<polygon fill="midnightblue" stroke="midnightblue" points="614.5,-214.13 611,-204.13 607.5,-214.13 614.5,-214.13"/>
</g>
<!-- Node13 -->
<g id="node13" class="node">
<title>Node13</title>
<g id="a_node13"><a xlink:href="receiver_8hpp.html" target="_top" xlink:title="Base class for receivers. Demodulators that use pulse audio.">
<polygon fill="none" stroke="black" points="916,-185 916,-204 1052,-204 1052,-185 916,-185"/>
<text text-anchor="middle" x="984" y="-192" font-family="Helvetica,sans-Serif" font-size="10.00">SignalEasel/receiver.hpp</text>
</a>
</g>
</g>
<!-- Node6&#45;&gt;Node13 -->
<g id="edge20" class="edge">
<title>Node6&#45;&gt;Node13</title>
<path fill="none" stroke="midnightblue" d="M662.65,-251.96C721.75,-242.13 821.44,-225.35 907,-210 914.18,-208.71 921.73,-207.33 929.18,-205.94"/>
<polygon fill="midnightblue" stroke="midnightblue" points="930.05,-209.34 939.24,-204.06 928.76,-202.46 930.05,-209.34"/>
</g>
<!-- Node8&#45;&gt;Node3 -->
<g id="edge8" class="edge">
<title>Node8&#45;&gt;Node3</title>
<path fill="none" stroke="midnightblue" d="M456.23,-56.44C407.65,-45.99 326.25,-28.48 279.96,-18.52"/>
<polygon fill="midnightblue" stroke="midnightblue" points="280.61,-15.08 270.09,-16.4 279.13,-21.92 280.61,-15.08"/>
</g>
<!-- Node9&#45;&gt;Node3 -->
<g id="edge10" class="edge">
<title>Node9&#45;&gt;Node3</title>
<path fill="none" stroke="midnightblue" d="M291.64,-184.7C284.09,-156.57 260.43,-68.46 250.01,-29.66"/>
<polygon fill="midnightblue" stroke="midnightblue" points="253.31,-28.46 247.34,-19.71 246.55,-30.28 253.31,-28.46"/>
</g>
<!-- Node9&#45;&gt;Node7 -->
<g id="edge11" class="edge">
<title>Node9&#45;&gt;Node7</title>
<path fill="none" stroke="midnightblue" d="M331.15,-184.98C370.07,-175.77 432.84,-160.08 486,-143 488.41,-142.23 490.89,-141.38 493.38,-140.51"/>
<polygon fill="midnightblue" stroke="midnightblue" points="494.66,-143.77 502.84,-137.04 492.25,-137.19 494.66,-143.77"/>
</g>
<!-- Node10&#45;&gt;Node4 -->
<g id="edge13" class="edge">
<title>Node10&#45;&gt;Node4</title>
<path fill="none" stroke="midnightblue" d="M819.09,-184.73C819.86,-160.11 825.65,-89.94 866,-56 903.64,-24.34 1051.57,-14.76 1117.73,-12.02"/>
<polygon fill="midnightblue" stroke="midnightblue" points="1118.12,-15.51 1127.98,-11.63 1117.85,-8.52 1118.12,-15.51"/>
</g>
<!-- Node10&#45;&gt;Node7 -->
<g id="edge14" class="edge">
<title>Node10&#45;&gt;Node7</title>
<path fill="none" stroke="midnightblue" d="M780.13,-184.94C721.78,-172.08 612.53,-148.01 557.5,-135.88"/>
<polygon fill="midnightblue" stroke="midnightblue" points="558.08,-132.42 547.56,-133.69 556.57,-139.26 558.08,-132.42"/>
</g>
<!-- Node11 -->
<g id="node11" class="node">
<title>Node11</title>
<g id="a_node11"><a xlink:href="settings_8hpp.html" target="_top" xlink:title="Settings structures for SignalEasel.">
<polygon fill="none" stroke="black" points="639,-118 639,-137 775,-137 775,-118 639,-118"/>
<text text-anchor="middle" x="707" y="-125" font-family="Helvetica,sans-Serif" font-size="10.00">SignalEasel/settings.hpp</text>
</a>
</g>
</g>
<!-- Node10&#45;&gt;Node11 -->
<g id="edge15" class="edge">
<title>Node10&#45;&gt;Node11</title>
<path fill="none" stroke="midnightblue" d="M803.9,-184.73C785.09,-173.82 752.75,-155.05 730.64,-142.22"/>
<polygon fill="midnightblue" stroke="midnightblue" points="732.27,-139.12 721.87,-137.13 728.76,-145.17 732.27,-139.12"/>
</g>
<!-- Node11&#45;&gt;Node4 -->
<g id="edge16" class="edge">
<title>Node11&#45;&gt;Node4</title>
<path fill="none" stroke="midnightblue" d="M718.17,-117.87C738.54,-102.61 783.64,-71.08 827,-56 928.94,-20.53 1058.17,-12.94 1117.52,-11.37"/>
<polygon fill="midnightblue" stroke="midnightblue" points="1117.84,-14.86 1127.76,-11.14 1117.69,-7.86 1117.84,-14.86"/>
</g>
<!-- Node12&#45;&gt;Node7 -->
<g id="edge18" class="edge">
<title>Node12&#45;&gt;Node7</title>
<path fill="none" stroke="midnightblue" d="M599.27,-184.73C585.05,-174.11 560.87,-156.05 543.76,-143.26"/>
<polygon fill="midnightblue" stroke="midnightblue" points="545.65,-140.31 535.55,-137.13 541.46,-145.92 545.65,-140.31"/>
</g>
<!-- Node12&#45;&gt;Node11 -->
<g id="edge19" class="edge">
<title>Node12&#45;&gt;Node11</title>
<path fill="none" stroke="midnightblue" d="M623.95,-184.73C639.85,-173.96 667.05,-155.55 685.97,-142.74"/>
<polygon fill="midnightblue" stroke="midnightblue" points="687.94,-145.63 694.26,-137.13 684.02,-139.84 687.94,-145.63"/>
</g>
<!-- Node13&#45;&gt;Node11 -->
<g id="edge27" class="edge">
<title>Node13&#45;&gt;Node11</title>
<path fill="none" stroke="midnightblue" d="M947.5,-184.94C897.58,-173.22 807.97,-152.19 753.35,-139.38"/>
<polygon fill="midnightblue" stroke="midnightblue" points="754.11,-135.96 743.58,-137.08 752.51,-142.78 754.11,-135.96"/>
</g>
<!-- Node14 -->
<g id="node14" class="node">
<title>Node14</title>
<g id="a_node14"><a xlink:href="pulse__audio_8hpp.html" target="_top" xlink:title="Reads audio from pulse audio.">
<polygon fill="none" stroke="black" points="907.5,-118 907.5,-137 1062.5,-137 1062.5,-118 907.5,-118"/>
<text text-anchor="middle" x="985" y="-125" font-family="Helvetica,sans-Serif" font-size="10.00">SignalEasel/pulse_audio.hpp</text>
</a>
</g>
</g>
<!-- Node13&#45;&gt;Node14 -->
<g id="edge21" class="edge">
<title>Node13&#45;&gt;Node14</title>
<path fill="none" stroke="midnightblue" d="M984.13,-184.73C984.28,-175.18 984.52,-159.62 984.71,-147.28"/>
<polygon fill="midnightblue" stroke="midnightblue" points="988.21,-147.18 984.87,-137.13 981.21,-147.07 988.21,-147.18"/>
</g>
<!-- Node14&#45;&gt;Node4 -->
<g id="edge23" class="edge">
<title>Node14&#45;&gt;Node4</title>
<path fill="none" stroke="midnightblue" d="M1000.35,-117.92C1017.28,-108.29 1045.16,-91.91 1068,-76 1090.98,-60 1116.01,-39.7 1132.3,-26.08"/>
<polygon fill="midnightblue" stroke="midnightblue" points="1134.56,-28.75 1139.96,-19.63 1130.05,-23.39 1134.56,-28.75"/>
</g>
<!-- Node14&#45;&gt;Node8 -->
<g id="edge24" class="edge">
<title>Node14&#45;&gt;Node8</title>
<path fill="none" stroke="midnightblue" d="M933.48,-117.98C920.3,-115.91 906.14,-113.78 893,-112 784.4,-97.29 658.64,-83.6 578.26,-75.27"/>
<polygon fill="midnightblue" stroke="midnightblue" points="578.5,-71.78 568.2,-74.23 577.79,-78.74 578.5,-71.78"/>
</g>
<!-- Node15 -->
<g id="node15" class="node">
<title>Node15</title>
<g id="a_node15"><a xlink:title=" ">
<polygon fill="none" stroke="#bfbfbf" points="364,-56.5 364,-75.5 406,-75.5 406,-56.5 364,-56.5"/>
<text text-anchor="middle" x="385" y="-63.5" font-family="Helvetica,sans-Serif" font-size="10.00">array</text>
</a>
</g>
</g>
<!-- Node14&#45;&gt;Node15 -->
<g id="edge22" class="edge">
<title>Node14&#45;&gt;Node15</title>
<path fill="none" stroke="midnightblue" d="M935.45,-117.93C921.73,-115.77 906.81,-113.61 893,-112 684.69,-87.78 626.29,-113.99 416.28,-75.83"/>
<polygon fill="midnightblue" stroke="midnightblue" points="416.63,-72.34 406.17,-73.97 415.36,-79.22 416.63,-72.34"/>
</g>
<!-- Node16 -->
<g id="node16" class="node">
<title>Node16</title>
<g id="a_node16"><a xlink:title=" ">
<polygon fill="none" stroke="#bfbfbf" points="981.5,-56.5 981.5,-75.5 1058.5,-75.5 1058.5,-56.5 981.5,-56.5"/>
<text text-anchor="middle" x="1020" y="-63.5" font-family="Helvetica,sans-Serif" font-size="10.00">pulse/error.h</text>
</a>
</g>
</g>
<!-- Node14&#45;&gt;Node16 -->
<g id="edge25" class="edge">
<title>Node14&#45;&gt;Node16</title>
<path fill="none" stroke="midnightblue" d="M990.01,-117.98C995.16,-109.23 1003.31,-95.37 1009.82,-84.31"/>
<polygon fill="midnightblue" stroke="midnightblue" points="1012.94,-85.9 1014.99,-75.51 1006.91,-82.35 1012.94,-85.9"/>
</g>
<!-- Node17 -->
<g id="node17" class="node">
<title>Node17</title>
<g id="a_node17"><a xlink:title=" ">
<polygon fill="none" stroke="#bfbfbf" points="875,-56.5 875,-75.5 963,-75.5 963,-56.5 875,-56.5"/>
<text text-anchor="middle" x="919" y="-63.5" font-family="Helvetica,sans-Serif" font-size="10.00">pulse/simple.h</text>
</a>
</g>
</g>
<!-- Node14&#45;&gt;Node17 -->
<g id="edge26" class="edge">
<title>Node14&#45;&gt;Node17</title>
<path fill="none" stroke="midnightblue" d="M975.54,-117.98C965.25,-108.7 948.58,-93.67 936.01,-82.33"/>
<polygon fill="midnightblue" stroke="midnightblue" points="938.21,-79.61 928.44,-75.51 933.52,-84.8 938.21,-79.61"/>
</g>
<!-- Node18&#45;&gt;Node3 -->
<g id="edge29" class="edge">
<title>Node18&#45;&gt;Node3</title>
<path fill="none" stroke="midnightblue" d="M1166.61,-251.98C1149.64,-242.4 1121.72,-226.07 1099,-210 1081.2,-197.42 1080.94,-187.8 1061,-179 960.7,-134.76 915.69,-190.71 817,-143 798.88,-134.24 802.38,-120.19 784,-112 609.21,-34.17 537.29,-134.13 355,-76 320.24,-64.91 284.73,-41.24 263.79,-25.73"/>
<polygon fill="midnightblue" stroke="midnightblue" points="265.84,-22.89 255.75,-19.64 261.61,-28.47 265.84,-22.89"/>
</g>
<!-- Node18&#45;&gt;Node4 -->
<g id="edge30" class="edge">
<title>Node18&#45;&gt;Node4</title>
<path fill="none" stroke="midnightblue" d="M1209.33,-251.96C1228.67,-244.32 1253.18,-231.03 1265,-210 1271.75,-197.99 1266.32,-192.71 1265,-179 1262.1,-148.81 1266.3,-138.75 1252,-112 1232.31,-75.17 1194.69,-43.28 1171.05,-25.64"/>
<polygon fill="midnightblue" stroke="midnightblue" points="1172.89,-22.65 1162.74,-19.6 1168.77,-28.31 1172.89,-22.65"/>
</g>
<!-- Node18&#45;&gt;Node5 -->
<g id="edge32" class="edge">
<title>Node18&#45;&gt;Node5</title>
<path fill="none" stroke="midnightblue" d="M1207.36,-251.87C1240.99,-240.42 1300.48,-220.18 1338.26,-207.32"/>
<polygon fill="midnightblue" stroke="midnightblue" points="1339.5,-210.6 1347.84,-204.06 1337.24,-203.97 1339.5,-210.6"/>
</g>
<!-- Node18&#45;&gt;Node7 -->
<g id="edge31" class="edge">
<title>Node18&#45;&gt;Node7</title>
<path fill="none" stroke="midnightblue" d="M1133.67,-251.96C1120.8,-249.85 1106.89,-247.7 1094,-246 933.27,-224.81 880.85,-271.87 731,-210 710.85,-201.68 712.26,-189.21 693,-179 649.11,-155.74 592.98,-141.68 557.75,-134.5"/>
<polygon fill="midnightblue" stroke="midnightblue" points="558.01,-130.99 547.53,-132.49 556.66,-137.85 558.01,-130.99"/>
</g>
<!-- Node19 -->
<g id="node19" class="node">
<title>Node19</title>
<g id="a_node19"><a xlink:href="telemetry__data_8hpp.html" target="_top" xlink:title=" ">
<polygon fill="none" stroke="black" points="1108,-179.5 1108,-209.5 1256,-209.5 1256,-179.5 1108,-179.5"/>
<text text-anchor="start" x="1116" y="-197.5" font-family="Helvetica,sans-Serif" font-size="10.00">SignalEasel/aprs/telemetry</text>
<text text-anchor="middle" x="1182" y="-186.5" font-family="Helvetica,sans-Serif" font-size="10.00">_data.hpp</text>
</a>
</g>
</g>
<!-- Node18&#45;&gt;Node19 -->
<g id="edge33" class="edge">
<title>Node18&#45;&gt;Node19</title>
<path fill="none" stroke="midnightblue" d="M1182,-251.73C1182,-243.54 1182,-230.92 1182,-219.71"/>
<polygon fill="midnightblue" stroke="midnightblue" points="1185.5,-219.59 1182,-209.59 1178.5,-219.59 1185.5,-219.59"/>
</g>
<!-- Node19&#45;&gt;Node15 -->
<g id="edge34" class="edge">
<title>Node19&#45;&gt;Node15</title>
<path fill="none" stroke="midnightblue" d="M1107.67,-180.97C1030.67,-167.87 918.85,-148.47 899,-143 861.44,-132.64 854.98,-120.71 817,-112 645.31,-72.64 593.02,-108.6 416.07,-75.81"/>
<polygon fill="midnightblue" stroke="midnightblue" points="416.65,-72.36 406.17,-73.93 415.34,-79.24 416.65,-72.36"/>
</g>
<!-- Node20 -->
<g id="node20" class="node">
<title>Node20</title>
<g id="a_node20"><a xlink:href="telemetry__parameter_8hpp.html" target="_top" xlink:title=" ">
<polygon fill="none" stroke="black" points="1095,-112.5 1095,-142.5 1243,-142.5 1243,-112.5 1095,-112.5"/>
<text text-anchor="start" x="1103" y="-130.5" font-family="Helvetica,sans-Serif" font-size="10.00">SignalEasel/aprs/telemetry</text>
<text text-anchor="middle" x="1169" y="-119.5" font-family="Helvetica,sans-Serif" font-size="10.00">_parameter.hpp</text>
</a>
</g>
</g>
<!-- Node19&#45;&gt;Node20 -->
<g id="edge35" class="edge">
<title>Node19&#45;&gt;Node20</title>
<path fill="none" stroke="midnightblue" d="M1179.18,-179.4C1177.61,-171.56 1175.62,-161.6 1173.81,-152.57"/>
<polygon fill="midnightblue" stroke="midnightblue" points="1177.21,-151.7 1171.82,-142.58 1170.34,-153.07 1177.21,-151.7"/>
</g>
<!-- Node20&#45;&gt;Node3 -->
<g id="edge36" class="edge">
<title>Node20&#45;&gt;Node3</title>
<path fill="none" stroke="midnightblue" d="M1154.42,-112.29C1136.02,-95.37 1102.57,-67.92 1068,-56 992.85,-30.09 428.19,-15.26 280.34,-11.79"/>
<polygon fill="midnightblue" stroke="midnightblue" points="280.12,-8.29 270.04,-11.55 279.96,-15.28 280.12,-8.29"/>
</g>
<!-- Node20&#45;&gt;Node4 -->
<g id="edge37" class="edge">
<title>Node20&#45;&gt;Node4</title>
<path fill="none" stroke="midnightblue" d="M1166.67,-112.34C1163.25,-91.53 1156.85,-52.66 1153.06,-29.58"/>
<polygon fill="midnightblue" stroke="midnightblue" points="1156.5,-28.97 1151.43,-19.67 1149.6,-30.1 1156.5,-28.97"/>
</g>
<!-- Node20&#45;&gt;Node21 -->
<g id="edge38" class="edge">
<title>Node20&#45;&gt;Node21</title>
<path fill="none" stroke="midnightblue" d="M1243.01,-113.81C1306.71,-102.89 1397.41,-87.33 1456.49,-77.2"/>
<polygon fill="midnightblue" stroke="midnightblue" points="1457.15,-80.64 1466.41,-75.5 1455.97,-73.74 1457.15,-80.64"/>
</g>
<!-- Node21&#45;&gt;Node4 -->
<g id="edge40" class="edge">
<title>Node21&#45;&gt;Node4</title>
<path fill="none" stroke="midnightblue" d="M1458.01,-56.44C1380.07,-44.95 1244.2,-24.9 1182.34,-15.77"/>
<polygon fill="midnightblue" stroke="midnightblue" points="1182.77,-12.3 1172.37,-14.3 1181.75,-19.22 1182.77,-12.3"/>
</g>
<!-- Node22 -->
<g id="node22" class="node">
<title>Node22</title>
<g id="a_node22"><a xlink:title=" ">
<polygon fill="none" stroke="#bfbfbf" points="1483.5,-0.5 1483.5,-19.5 1548.5,-19.5 1548.5,-0.5 1483.5,-0.5"/>
<text text-anchor="middle" x="1516" y="-7.5" font-family="Helvetica,sans-Serif" font-size="10.00">exception</text>
</a>
</g>
</g>
<!-- Node21&#45;&gt;Node22 -->
<g id="edge39" class="edge">
<title>Node21&#45;&gt;Node22</title>
<path fill="none" stroke="midnightblue" d="M1516,-56.08C1516,-49.01 1516,-38.86 1516,-29.99"/>
<polygon fill="midnightblue" stroke="midnightblue" points="1519.5,-29.75 1516,-19.75 1512.5,-29.75 1519.5,-29.75"/>
</g>
<!-- Node23&#45;&gt;Node7 -->
<g id="edge42" class="edge">
<title>Node23&#45;&gt;Node7</title>
<path fill="none" stroke="midnightblue" d="M936.92,-257.92C808.76,-252.7 556.64,-238.86 529,-210 513.17,-193.48 515.32,-165.39 519.06,-146.89"/>
<polygon fill="midnightblue" stroke="midnightblue" points="522.5,-147.57 521.39,-137.03 515.68,-145.96 522.5,-147.57"/>
</g>
<!-- Node23&#45;&gt;Node19 -->
<g id="edge43" class="edge">
<title>Node23&#45;&gt;Node19</title>
<path fill="none" stroke="midnightblue" d="M1048.1,-246.4C1073.76,-236.64 1108.09,-223.59 1135.56,-213.15"/>
<polygon fill="midnightblue" stroke="midnightblue" points="1136.86,-216.4 1144.97,-209.58 1134.38,-209.86 1136.86,-216.4"/>
</g>
<!-- Node24&#45;&gt;Node3 -->
<g id="edge45" class="edge">
<title>Node24&#45;&gt;Node3</title>
<path fill="none" stroke="midnightblue" d="M186.5,-251.99C180.58,-242.29 171.55,-225.72 168,-210 164.97,-196.56 165.06,-192.46 168,-179 180.78,-120.42 215.94,-57.84 233.99,-28.32"/>
<polygon fill="midnightblue" stroke="midnightblue" points="237.08,-29.97 239.39,-19.63 231.14,-26.27 237.08,-29.97"/>
</g>
<!-- Node24&#45;&gt;Node4 -->
<g id="edge48" class="edge">
<title>Node24&#45;&gt;Node4</title>
<path fill="none" stroke="midnightblue" d="M191.31,-251.99C190.46,-235.48 191.12,-198.98 211,-179 302.4,-87.14 653,-76.18 781,-56 904.84,-36.47 1053.21,-20.67 1117.58,-14.18"/>
<polygon fill="midnightblue" stroke="midnightblue" points="1118.28,-17.63 1127.88,-13.15 1117.58,-10.66 1118.28,-17.63"/>
</g>
<!-- Node24&#45;&gt;Node7 -->
<g id="edge49" class="edge">
<title>Node24&#45;&gt;Node7</title>
<path fill="none" stroke="midnightblue" d="M235.08,-251.94C273.41,-243.59 330.59,-229.33 378,-210 424.61,-191 475.06,-160.35 502.77,-142.54"/>
<polygon fill="midnightblue" stroke="midnightblue" points="504.77,-145.42 511.25,-137.04 500.96,-139.55 504.77,-145.42"/>
</g>
<!-- Node24&#45;&gt;Node9 -->
<g id="edge50" class="edge">
<title>Node24&#45;&gt;Node9</title>
<path fill="none" stroke="midnightblue" d="M205.76,-251.73C222.73,-240.92 251.81,-222.38 271.93,-209.57"/>
<polygon fill="midnightblue" stroke="midnightblue" points="273.91,-212.45 280.46,-204.13 270.15,-206.55 273.91,-212.45"/>
</g>
<!-- Node24&#45;&gt;Node15 -->
<g id="edge46" class="edge">
<title>Node24&#45;&gt;Node15</title>
<path fill="none" stroke="midnightblue" d="M187.04,-251.96C178.66,-236.33 163.96,-202.56 178,-179 216.49,-114.42 306.59,-84.81 354.22,-73.27"/>
<polygon fill="midnightblue" stroke="midnightblue" points="355.03,-76.67 363.98,-71.01 353.45,-69.85 355.03,-76.67"/>
</g>
<!-- Node24&#45;&gt;Node25 -->
<g id="edge47" class="edge">
<title>Node24&#45;&gt;Node25</title>
<path fill="none" stroke="midnightblue" d="M174.21,-251.87C151.38,-240.8 111.57,-221.49 85,-208.6"/>
<polygon fill="midnightblue" stroke="midnightblue" points="86.39,-205.38 75.87,-204.17 83.34,-211.68 86.39,-205.38"/>
</g>
</g>
</svg>
