<?xml version="1.0" encoding="UTF-8" standalone="no"?>
<!DOCTYPE svg PUBLIC "-//W3C//DTD SVG 1.1//EN"
 "http://www.w3.org/Graphics/SVG/1.1/DTD/svg11.dtd">
<!-- Generated by graphviz version 2.43.0 (0)
 -->
<!-- Title: aprs.hpp Pages: 1 -->
<svg width="1514pt" height="341pt"
 viewBox="0.00 0.00 1513.80 341.00" xmlns="http://www.w3.org/2000/svg" xmlns:xlink="http://www.w3.org/1999/xlink">
<g id="graph0" class="graph" transform="scale(1 1) rotate(0) translate(4 337)">
<title>aprs.hpp</title>
<!-- Node1 -->
<g id="node1" class="node">
<title>Node1</title>
<g id="a_node1"><a xlink:title=" ">
<polygon fill="#bfbfbf" stroke="black" points="1061.92,-313.5 1061.92,-332.5 1120.92,-332.5 1120.92,-313.5 1061.92,-313.5"/>
<text text-anchor="middle" x="1091.42" y="-320.5" font-family="Helvetica,sans-Serif" font-size="10.00">aprs.hpp</text>
</a>
</g>
</g>
<!-- Node2 -->
<g id="node2" class="node">
<title>Node2</title>
<g id="a_node2"><a xlink:title=" ">
<polygon fill="none" stroke="#bfbfbf" points="416.42,-0.5 416.42,-19.5 466.42,-19.5 466.42,-0.5 416.42,-0.5"/>
<text text-anchor="middle" x="441.42" y="-7.5" font-family="Helvetica,sans-Serif" font-size="10.00">cstdint</text>
</a>
</g>
</g>
<!-- Node1&#45;&gt;Node2 -->
<g id="edge1" class="edge">
<title>Node1&#45;&gt;Node2</title>
<path fill="none" stroke="midnightblue" d="M1061.7,-321.76C887,-319.96 1.42,-305.4 1.42,-195.5 1.42,-195.5 1.42,-195.5 1.42,-126.5 1.42,-94.05 -4.25,-77.08 20.42,-56 49.54,-31.12 310.33,-16.92 406.24,-12.51"/>
<polygon fill="midnightblue" stroke="midnightblue" points="406.47,-16 416.3,-12.05 406.16,-9.01 406.47,-16"/>
</g>
<!-- Node3 -->
<g id="node3" class="node">
<title>Node3</title>
<g id="a_node3"><a xlink:title=" ">
<polygon fill="none" stroke="#bfbfbf" points="1090.42,-0.5 1090.42,-19.5 1134.42,-19.5 1134.42,-0.5 1090.42,-0.5"/>
<text text-anchor="middle" x="1112.42" y="-7.5" font-family="Helvetica,sans-Serif" font-size="10.00">string</text>
</a>
</g>
</g>
<!-- Node1&#45;&gt;Node3 -->
<g id="edge2" class="edge">
<title>Node1&#45;&gt;Node3</title>
<path fill="none" stroke="midnightblue" d="M1121.15,-322.07C1176.43,-321.22 1297.91,-314.79 1391.42,-277 1448.83,-253.8 1504.42,-257.42 1504.42,-195.5 1504.42,-195.5 1504.42,-195.5 1504.42,-126.5 1504.42,-94.05 1509.95,-77.25 1485.42,-56 1434.81,-12.17 1225.52,-9.7 1144.58,-10.44"/>
<polygon fill="midnightblue" stroke="midnightblue" points="1144.44,-6.94 1134.48,-10.55 1144.52,-13.94 1144.44,-6.94"/>
</g>
<!-- Node4 -->
<g id="node4" class="node">
<title>Node4</title>
<g id="a_node4"><a xlink:title=" ">
<polygon fill="none" stroke="#bfbfbf" points="1354.42,-185 1354.42,-204 1476.42,-204 1476.42,-185 1354.42,-185"/>
<text text-anchor="middle" x="1415.42" y="-192" font-family="Helvetica,sans-Serif" font-size="10.00">BoosterSeat/time.hpp</text>
</a>
</g>
</g>
<!-- Node1&#45;&gt;Node4 -->
<g id="edge3" class="edge">
<title>Node1&#45;&gt;Node4</title>
<path fill="none" stroke="midnightblue" d="M1121.36,-320.1C1183.5,-315.68 1323.97,-303.04 1363.42,-277 1386.36,-261.86 1401.23,-232.74 1408.97,-213.72"/>
<polygon fill="midnightblue" stroke="midnightblue" points="1412.34,-214.7 1412.62,-204.11 1405.79,-212.21 1412.34,-214.7"/>
</g>
<!-- Node5 -->
<g id="node5" class="node">
<title>Node5</title>
<g id="a_node5"><a xlink:href="afsk_8hpp.html" target="_top" xlink:title="AFSK related modulation/demodulation.">
<polygon fill="none" stroke="black" points="480.42,-252 480.42,-271 598.42,-271 598.42,-252 480.42,-252"/>
<text text-anchor="middle" x="539.42" y="-259" font-family="Helvetica,sans-Serif" font-size="10.00">SignalEasel/afsk.hpp</text>
</a>
</g>
</g>
<!-- Node1&#45;&gt;Node5 -->
<g id="edge4" class="edge">
<title>Node1&#45;&gt;Node5</title>
<path fill="none" stroke="midnightblue" d="M1061.74,-318.8C976.66,-309.63 730.24,-283.07 608.77,-269.98"/>
<polygon fill="midnightblue" stroke="midnightblue" points="608.79,-266.46 598.48,-268.87 608.04,-273.42 608.79,-266.46"/>
</g>
<!-- Node18 -->
<g id="node18" class="node">
<title>Node18</title>
<g id="a_node18"><a xlink:href="packets_8hpp.html" target="_top" xlink:title=" ">
<polygon fill="none" stroke="black" points="1196.42,-252 1196.42,-271 1354.42,-271 1354.42,-252 1196.42,-252"/>
<text text-anchor="middle" x="1275.42" y="-259" font-family="Helvetica,sans-Serif" font-size="10.00">SignalEasel/aprs/packets.hpp</text>
</a>
</g>
</g>
<!-- Node1&#45;&gt;Node18 -->
<g id="edge29" class="edge">
<title>Node1&#45;&gt;Node18</title>
<path fill="none" stroke="midnightblue" d="M1117.78,-313.48C1149.75,-303.14 1203.79,-285.66 1239.54,-274.1"/>
<polygon fill="midnightblue" stroke="midnightblue" points="1240.67,-277.42 1249.1,-271.01 1238.51,-270.76 1240.67,-277.42"/>
</g>
<!-- Node23 -->
<g id="node23" class="node">
<title>Node23</title>
<g id="a_node23"><a xlink:href="telemetry__transcoder_8hpp.html" target="_top" xlink:title=" ">
<polygon fill="none" stroke="black" points="1017.42,-246.5 1017.42,-276.5 1165.42,-276.5 1165.42,-246.5 1017.42,-246.5"/>
<text text-anchor="start" x="1025.42" y="-264.5" font-family="Helvetica,sans-Serif" font-size="10.00">SignalEasel/aprs/telemetry</text>
<text text-anchor="middle" x="1091.42" y="-253.5" font-family="Helvetica,sans-Serif" font-size="10.00">_transcoder.hpp</text>
</a>
</g>
</g>
<!-- Node1&#45;&gt;Node23 -->
<g id="edge42" class="edge">
<title>Node1&#45;&gt;Node23</title>
<path fill="none" stroke="midnightblue" d="M1091.42,-313.48C1091.42,-306.47 1091.42,-296.19 1091.42,-286.7"/>
<polygon fill="midnightblue" stroke="midnightblue" points="1094.92,-286.52 1091.42,-276.52 1087.92,-286.52 1094.92,-286.52"/>
</g>
<!-- Node24 -->
<g id="node24" class="node">
<title>Node24</title>
<g id="a_node24"><a xlink:href="ax25_8hpp.html" target="_top" xlink:title="AX.25 tools.">
<polygon fill="none" stroke="black" points="851.92,-252 851.92,-271 972.92,-271 972.92,-252 851.92,-252"/>
<text text-anchor="middle" x="912.42" y="-259" font-family="Helvetica,sans-Serif" font-size="10.00">SignalEasel/ax25.hpp</text>
</a>
</g>
</g>
<!-- Node1&#45;&gt;Node24 -->
<g id="edge45" class="edge">
<title>Node1&#45;&gt;Node24</title>
<path fill="none" stroke="midnightblue" d="M1065.77,-313.48C1034.8,-303.18 982.54,-285.81 947.77,-274.25"/>
<polygon fill="midnightblue" stroke="midnightblue" points="948.61,-270.84 938.02,-271.01 946.4,-277.48 948.61,-270.84"/>
</g>
<!-- Node6 -->
<g id="node6" class="node">
<title>Node6</title>
<g id="a_node6"><a xlink:title=" ">
<polygon fill="none" stroke="#bfbfbf" points="792.92,-118 792.92,-137 839.92,-137 839.92,-118 792.92,-118"/>
<text text-anchor="middle" x="816.42" y="-125" font-family="Helvetica,sans-Serif" font-size="10.00">vector</text>
</a>
</g>
</g>
<!-- Node5&#45;&gt;Node6 -->
<g id="edge5" class="edge">
<title>Node5&#45;&gt;Node6</title>
<path fill="none" stroke="midnightblue" d="M598.64,-256.27C665.81,-250.25 769.62,-236.82 797.42,-210 814.22,-193.79 817.41,-165.83 817.46,-147.25"/>
<polygon fill="midnightblue" stroke="midnightblue" points="820.96,-146.98 817.18,-137.08 813.96,-147.17 820.96,-146.98"/>
</g>
<!-- Node7 -->
<g id="node7" class="node">
<title>Node7</title>
<g id="a_node7"><a xlink:href="constants_8hpp.html" target="_top" xlink:title="Common constants used throughout the library.">
<polygon fill="none" stroke="black" points="29.42,-56.5 29.42,-75.5 173.42,-75.5 173.42,-56.5 29.42,-56.5"/>
<text text-anchor="middle" x="101.42" y="-63.5" font-family="Helvetica,sans-Serif" font-size="10.00">SignalEasel/constants.hpp</text>
</a>
</g>
</g>
<!-- Node5&#45;&gt;Node7 -->
<g id="edge6" class="edge">
<title>Node5&#45;&gt;Node7</title>
<path fill="none" stroke="midnightblue" d="M480.05,-258.02C365.59,-252.62 123.39,-238 98.42,-210 67.65,-175.51 83.21,-115.57 94,-85.43"/>
<polygon fill="midnightblue" stroke="midnightblue" points="97.38,-86.37 97.66,-75.77 90.84,-83.88 97.38,-86.37"/>
</g>
<!-- Node8 -->
<g id="node8" class="node">
<title>Node8</title>
<g id="a_node8"><a xlink:href="bit__stream_8hpp.html" target="_top" xlink:title="The bit stream class.">
<polygon fill="none" stroke="black" points="261.92,-185 261.92,-204 410.92,-204 410.92,-185 261.92,-185"/>
<text text-anchor="middle" x="336.42" y="-192" font-family="Helvetica,sans-Serif" font-size="10.00">SignalEasel/bit_stream.hpp</text>
</a>
</g>
</g>
<!-- Node5&#45;&gt;Node8 -->
<g id="edge8" class="edge">
<title>Node5&#45;&gt;Node8</title>
<path fill="none" stroke="midnightblue" d="M512.46,-251.87C476.57,-240.38 412.96,-220.01 372.83,-207.16"/>
<polygon fill="midnightblue" stroke="midnightblue" points="373.75,-203.78 363.16,-204.06 371.62,-210.45 373.75,-203.78"/>
</g>
<!-- Node9 -->
<g id="node9" class="node">
<title>Node9</title>
<g id="a_node9"><a xlink:href="demodulator_8hpp.html" target="_top" xlink:title="Base class for demodulators.">
<polygon fill="none" stroke="black" points="630.42,-185 630.42,-204 788.42,-204 788.42,-185 630.42,-185"/>
<text text-anchor="middle" x="709.42" y="-192" font-family="Helvetica,sans-Serif" font-size="10.00">SignalEasel/demodulator.hpp</text>
</a>
</g>
</g>
<!-- Node5&#45;&gt;Node9 -->
<g id="edge11" class="edge">
<title>Node5&#45;&gt;Node9</title>
<path fill="none" stroke="midnightblue" d="M561.99,-251.87C591.67,-240.52 643.97,-220.52 677.64,-207.65"/>
<polygon fill="midnightblue" stroke="midnightblue" points="678.93,-210.9 687.02,-204.06 676.43,-204.37 678.93,-210.9"/>
</g>
<!-- Node11 -->
<g id="node11" class="node">
<title>Node11</title>
<g id="a_node11"><a xlink:href="modulator_8hpp.html" target="_top" xlink:title="Modulator base class.">
<polygon fill="none" stroke="black" points="466.42,-185 466.42,-204 612.42,-204 612.42,-185 466.42,-185"/>
<text text-anchor="middle" x="539.42" y="-192" font-family="Helvetica,sans-Serif" font-size="10.00">SignalEasel/modulator.hpp</text>
</a>
</g>
</g>
<!-- Node5&#45;&gt;Node11 -->
<g id="edge16" class="edge">
<title>Node5&#45;&gt;Node11</title>
<path fill="none" stroke="midnightblue" d="M539.42,-251.73C539.42,-242.18 539.42,-226.62 539.42,-214.28"/>
<polygon fill="midnightblue" stroke="midnightblue" points="542.92,-214.13 539.42,-204.13 535.92,-214.13 542.92,-214.13"/>
</g>
<!-- Node12 -->
<g id="node12" class="node">
<title>Node12</title>
<g id="a_node12"><a xlink:href="receiver_8hpp.html" target="_top" xlink:title="Base class for receivers. Demodulators that use pulse audio.">
<polygon fill="none" stroke="black" points="107.42,-185 107.42,-204 243.42,-204 243.42,-185 107.42,-185"/>
<text text-anchor="middle" x="175.42" y="-192" font-family="Helvetica,sans-Serif" font-size="10.00">SignalEasel/receiver.hpp</text>
</a>
</g>
</g>
<!-- Node5&#45;&gt;Node12 -->
<g id="edge20" class="edge">
<title>Node5&#45;&gt;Node12</title>
<path fill="none" stroke="midnightblue" d="M489.87,-251.97C432.64,-242.07 335.66,-225.16 252.42,-210 245.24,-208.69 237.69,-207.3 230.24,-205.91"/>
<polygon fill="midnightblue" stroke="midnightblue" points="230.66,-202.43 220.19,-204.02 229.37,-209.31 230.66,-202.43"/>
</g>
<!-- Node7&#45;&gt;Node2 -->
<g id="edge7" class="edge">
<title>Node7&#45;&gt;Node2</title>
<path fill="none" stroke="midnightblue" d="M155.29,-56.44C225.6,-45.28 346.65,-26.05 406.22,-16.59"/>
<polygon fill="midnightblue" stroke="midnightblue" points="406.94,-20.02 416.26,-15 405.84,-13.11 406.94,-20.02"/>
</g>
<!-- Node8&#45;&gt;Node2 -->
<g id="edge9" class="edge">
<title>Node8&#45;&gt;Node2</title>
<path fill="none" stroke="midnightblue" d="M346.08,-184.98C356.37,-175.52 372.62,-159.41 383.42,-143 408.09,-105.49 426.66,-55.74 435.57,-29.32"/>
<polygon fill="midnightblue" stroke="midnightblue" points="438.99,-30.12 438.79,-19.52 432.34,-27.93 438.99,-30.12"/>
</g>
<!-- Node8&#45;&gt;Node6 -->
<g id="edge10" class="edge">
<title>Node8&#45;&gt;Node6</title>
<path fill="none" stroke="midnightblue" d="M399.66,-184.94C502.72,-170.98 703.35,-143.81 782.83,-133.05"/>
<polygon fill="midnightblue" stroke="midnightblue" points="783.34,-136.51 792.78,-131.7 782.4,-129.57 783.34,-136.51"/>
</g>
<!-- Node9&#45;&gt;Node3 -->
<g id="edge12" class="edge">
<title>Node9&#45;&gt;Node3</title>
<path fill="none" stroke="midnightblue" d="M715.26,-184.58C726.53,-168.02 752.89,-132.36 783.42,-112 879.52,-47.92 1018.09,-23.02 1080.19,-14.68"/>
<polygon fill="midnightblue" stroke="midnightblue" points="1080.7,-18.14 1090.17,-13.39 1079.81,-11.2 1080.7,-18.14"/>
</g>
<!-- Node9&#45;&gt;Node6 -->
<g id="edge13" class="edge">
<title>Node9&#45;&gt;Node6</title>
<path fill="none" stroke="midnightblue" d="M723.85,-184.73C741.74,-173.87 772.44,-155.22 793.55,-142.39"/>
<polygon fill="midnightblue" stroke="midnightblue" points="795.49,-145.31 802.22,-137.13 791.85,-139.33 795.49,-145.31"/>
</g>
<!-- Node10 -->
<g id="node10" class="node">
<title>Node10</title>
<g id="a_node10"><a xlink:href="settings_8hpp.html" target="_top" xlink:title="Settings structures for SignalEasel.">
<polygon fill="none" stroke="black" points="555.42,-118 555.42,-137 691.42,-137 691.42,-118 555.42,-118"/>
<text text-anchor="middle" x="623.42" y="-125" font-family="Helvetica,sans-Serif" font-size="10.00">SignalEasel/settings.hpp</text>
</a>
</g>
</g>
<!-- Node9&#45;&gt;Node10 -->
<g id="edge14" class="edge">
<title>Node9&#45;&gt;Node10</title>
<path fill="none" stroke="midnightblue" d="M697.82,-184.73C683.76,-174.11 659.87,-156.05 642.95,-143.26"/>
<polygon fill="midnightblue" stroke="midnightblue" points="644.92,-140.36 634.83,-137.13 640.7,-145.95 644.92,-140.36"/>
</g>
<!-- Node10&#45;&gt;Node3 -->
<g id="edge15" class="edge">
<title>Node10&#45;&gt;Node3</title>
<path fill="none" stroke="midnightblue" d="M634.46,-117.79C654.6,-102.41 699.22,-70.7 742.42,-56 861.96,-15.33 1014.24,-10.52 1079.89,-10.52"/>
<polygon fill="midnightblue" stroke="midnightblue" points="1080.02,-14.03 1090.03,-10.57 1080.05,-7.03 1080.02,-14.03"/>
</g>
<!-- Node11&#45;&gt;Node2 -->
<g id="edge17" class="edge">
<title>Node11&#45;&gt;Node2</title>
<path fill="none" stroke="midnightblue" d="M534.69,-184.7C519.46,-156.33 471.46,-66.94 450.91,-28.67"/>
<polygon fill="midnightblue" stroke="midnightblue" points="453.91,-26.87 446.1,-19.71 447.74,-30.18 453.91,-26.87"/>
</g>
<!-- Node11&#45;&gt;Node6 -->
<g id="edge18" class="edge">
<title>Node11&#45;&gt;Node6</title>
<path fill="none" stroke="midnightblue" d="M575.92,-184.94C630.04,-172.23 730.81,-148.59 783.06,-136.33"/>
<polygon fill="midnightblue" stroke="midnightblue" points="783.9,-139.73 792.84,-134.03 782.3,-132.91 783.9,-139.73"/>
</g>
<!-- Node11&#45;&gt;Node10 -->
<g id="edge19" class="edge">
<title>Node11&#45;&gt;Node10</title>
<path fill="none" stroke="midnightblue" d="M550.75,-184.73C564.48,-174.11 587.82,-156.05 604.34,-143.26"/>
<polygon fill="midnightblue" stroke="midnightblue" points="606.5,-146.02 612.27,-137.13 602.22,-140.48 606.5,-146.02"/>
</g>
<!-- Node12&#45;&gt;Node10 -->
<g id="edge28" class="edge">
<title>Node12&#45;&gt;Node10</title>
<path fill="none" stroke="midnightblue" d="M218.52,-184.98C229.55,-182.91 241.41,-180.78 252.42,-179 353.08,-162.68 469.68,-147.4 544.89,-138.01"/>
<polygon fill="midnightblue" stroke="midnightblue" points="545.73,-141.43 555.23,-136.73 544.87,-134.49 545.73,-141.43"/>
</g>
<!-- Node13 -->
<g id="node13" class="node">
<title>Node13</title>
<g id="a_node13"><a xlink:title=" ">
<polygon fill="none" stroke="#bfbfbf" points="143.42,-118 143.42,-137 201.42,-137 201.42,-118 143.42,-118"/>
<text text-anchor="middle" x="172.42" y="-125" font-family="Helvetica,sans-Serif" font-size="10.00">memory</text>
</a>
</g>
</g>
<!-- Node12&#45;&gt;Node13 -->
<g id="edge21" class="edge">
<title>Node12&#45;&gt;Node13</title>
<path fill="none" stroke="midnightblue" d="M175.01,-184.73C174.57,-175.18 173.85,-159.62 173.29,-147.28"/>
<polygon fill="midnightblue" stroke="midnightblue" points="176.77,-146.96 172.82,-137.13 169.78,-147.28 176.77,-146.96"/>
</g>
<!-- Node14 -->
<g id="node14" class="node">
<title>Node14</title>
<g id="a_node14"><a xlink:href="pulse__audio_8hpp.html" target="_top" xlink:title="Reads audio from pulse audio.">
<polygon fill="none" stroke="black" points="219.92,-118 219.92,-137 374.92,-137 374.92,-118 219.92,-118"/>
<text text-anchor="middle" x="297.42" y="-125" font-family="Helvetica,sans-Serif" font-size="10.00">SignalEasel/pulse_audio.hpp</text>
</a>
</g>
</g>
<!-- Node12&#45;&gt;Node14 -->
<g id="edge22" class="edge">
<title>Node12&#45;&gt;Node14</title>
<path fill="none" stroke="midnightblue" d="M191.62,-184.87C212.22,-173.89 248.01,-154.82 272.2,-141.94"/>
<polygon fill="midnightblue" stroke="midnightblue" points="273.97,-144.96 281.15,-137.17 270.68,-138.78 273.97,-144.96"/>
</g>
<!-- Node14&#45;&gt;Node3 -->
<g id="edge24" class="edge">
<title>Node14&#45;&gt;Node3</title>
<path fill="none" stroke="midnightblue" d="M340.19,-118C413.2,-103.7 566.69,-74.59 697.42,-56 839.42,-35.81 1009.89,-19.94 1079.95,-13.78"/>
<polygon fill="midnightblue" stroke="midnightblue" points="1080.65,-17.23 1090.31,-12.88 1080.04,-10.26 1080.65,-17.23"/>
</g>
<!-- Node14&#45;&gt;Node7 -->
<g id="edge25" class="edge">
<title>Node14&#45;&gt;Node7</title>
<path fill="none" stroke="midnightblue" d="M269.34,-117.98C235.13,-107.59 177.22,-90.01 139.15,-78.45"/>
<polygon fill="midnightblue" stroke="midnightblue" points="140.03,-75.06 129.45,-75.51 138,-81.76 140.03,-75.06"/>
</g>
<!-- Node15 -->
<g id="node15" class="node">
<title>Node15</title>
<g id="a_node15"><a xlink:title=" ">
<polygon fill="none" stroke="#bfbfbf" points="949.42,-56.5 949.42,-75.5 991.42,-75.5 991.42,-56.5 949.42,-56.5"/>
<text text-anchor="middle" x="970.42" y="-63.5" font-family="Helvetica,sans-Serif" font-size="10.00">array</text>
</a>
</g>
</g>
<!-- Node14&#45;&gt;Node15 -->
<g id="edge23" class="edge">
<title>Node14&#45;&gt;Node15</title>
<path fill="none" stroke="midnightblue" d="M374.95,-119.65C522.68,-106.58 838.75,-78.64 939.14,-69.77"/>
<polygon fill="midnightblue" stroke="midnightblue" points="939.58,-73.24 949.23,-68.87 938.96,-66.27 939.58,-73.24"/>
</g>
<!-- Node16 -->
<g id="node16" class="node">
<title>Node16</title>
<g id="a_node16"><a xlink:title=" ">
<polygon fill="none" stroke="#bfbfbf" points="297.92,-56.5 297.92,-75.5 374.92,-75.5 374.92,-56.5 297.92,-56.5"/>
<text text-anchor="middle" x="336.42" y="-63.5" font-family="Helvetica,sans-Serif" font-size="10.00">pulse/error.h</text>
</a>
</g>
</g>
<!-- Node14&#45;&gt;Node16 -->
<g id="edge26" class="edge">
<title>Node14&#45;&gt;Node16</title>
<path fill="none" stroke="midnightblue" d="M303.01,-117.98C308.8,-109.14 318.01,-95.09 325.29,-83.98"/>
<polygon fill="midnightblue" stroke="midnightblue" points="328.29,-85.79 330.84,-75.51 322.43,-81.95 328.29,-85.79"/>
</g>
<!-- Node17 -->
<g id="node17" class="node">
<title>Node17</title>
<g id="a_node17"><a xlink:title=" ">
<polygon fill="none" stroke="#bfbfbf" points="191.42,-56.5 191.42,-75.5 279.42,-75.5 279.42,-56.5 191.42,-56.5"/>
<text text-anchor="middle" x="235.42" y="-63.5" font-family="Helvetica,sans-Serif" font-size="10.00">pulse/simple.h</text>
</a>
</g>
</g>
<!-- Node14&#45;&gt;Node17 -->
<g id="edge27" class="edge">
<title>Node14&#45;&gt;Node17</title>
<path fill="none" stroke="midnightblue" d="M288.54,-117.98C278.96,-108.78 263.51,-93.96 251.73,-82.66"/>
<polygon fill="midnightblue" stroke="midnightblue" points="253.92,-79.91 244.28,-75.51 249.08,-84.96 253.92,-79.91"/>
</g>
<!-- Node18&#45;&gt;Node2 -->
<g id="edge30" class="edge">
<title>Node18&#45;&gt;Node2</title>
<path fill="none" stroke="midnightblue" d="M1277.83,-251.62C1281.73,-235.12 1287.28,-199.56 1269.42,-179 1219.9,-122.01 1171.15,-176.34 1103.42,-143 1049.66,-116.53 1055.82,-78.83 1000.42,-56 905.01,-16.69 584.35,-11.62 476.87,-11.05"/>
<polygon fill="midnightblue" stroke="midnightblue" points="476.58,-7.55 466.57,-11 476.55,-14.55 476.58,-7.55"/>
</g>
<!-- Node18&#45;&gt;Node3 -->
<g id="edge31" class="edge">
<title>Node18&#45;&gt;Node3</title>
<path fill="none" stroke="midnightblue" d="M1281.84,-251.75C1288.49,-242.09 1298.46,-225.82 1302.42,-210 1313.59,-165.42 1300.01,-146.3 1269.42,-112 1232.99,-71.17 1176.33,-40.26 1141.96,-23.95"/>
<polygon fill="midnightblue" stroke="midnightblue" points="1143.02,-20.59 1132.48,-19.55 1140.07,-26.94 1143.02,-20.59"/>
</g>
<!-- Node18&#45;&gt;Node4 -->
<g id="edge33" class="edge">
<title>Node18&#45;&gt;Node4</title>
<path fill="none" stroke="midnightblue" d="M1294.01,-251.87C1317.96,-240.75 1359.81,-221.32 1387.57,-208.43"/>
<polygon fill="midnightblue" stroke="midnightblue" points="1389.15,-211.55 1396.75,-204.17 1386.21,-205.2 1389.15,-211.55"/>
</g>
<!-- Node18&#45;&gt;Node6 -->
<g id="edge32" class="edge">
<title>Node18&#45;&gt;Node6</title>
<path fill="none" stroke="midnightblue" d="M1245.68,-251.92C1194.12,-237.06 1084.8,-205.56 992.42,-179 942.78,-164.73 885.26,-148.24 849.86,-138.08"/>
<polygon fill="midnightblue" stroke="midnightblue" points="850.63,-134.66 840.05,-135.27 848.7,-141.39 850.63,-134.66"/>
</g>
<!-- Node19 -->
<g id="node19" class="node">
<title>Node19</title>
<g id="a_node19"><a xlink:href="telemetry__data_8hpp.html" target="_top" xlink:title=" ">
<polygon fill="none" stroke="black" points="1112.42,-179.5 1112.42,-209.5 1260.42,-209.5 1260.42,-179.5 1112.42,-179.5"/>
<text text-anchor="start" x="1120.42" y="-197.5" font-family="Helvetica,sans-Serif" font-size="10.00">SignalEasel/aprs/telemetry</text>
<text text-anchor="middle" x="1186.42" y="-186.5" font-family="Helvetica,sans-Serif" font-size="10.00">_data.hpp</text>
</a>
</g>
</g>
<!-- Node18&#45;&gt;Node19 -->
<g id="edge34" class="edge">
<title>Node18&#45;&gt;Node19</title>
<path fill="none" stroke="midnightblue" d="M1263.42,-251.73C1250.81,-242.53 1230.55,-227.73 1213.98,-215.63"/>
<polygon fill="midnightblue" stroke="midnightblue" points="1215.85,-212.66 1205.71,-209.59 1211.72,-218.31 1215.85,-212.66"/>
</g>
<!-- Node19&#45;&gt;Node15 -->
<g id="edge35" class="edge">
<title>Node19&#45;&gt;Node15</title>
<path fill="none" stroke="midnightblue" d="M1147.95,-179.44C1124.81,-170.34 1095.15,-157.5 1070.42,-143 1039.45,-124.84 1006.95,-98.61 987.7,-82.19"/>
<polygon fill="midnightblue" stroke="midnightblue" points="989.93,-79.49 980.08,-75.61 985.36,-84.79 989.93,-79.49"/>
</g>
<!-- Node20 -->
<g id="node20" class="node">
<title>Node20</title>
<g id="a_node20"><a xlink:href="telemetry__parameter_8hpp.html" target="_top" xlink:title=" ">
<polygon fill="none" stroke="black" points="1112.42,-112.5 1112.42,-142.5 1260.42,-142.5 1260.42,-112.5 1112.42,-112.5"/>
<text text-anchor="start" x="1120.42" y="-130.5" font-family="Helvetica,sans-Serif" font-size="10.00">SignalEasel/aprs/telemetry</text>
<text text-anchor="middle" x="1186.42" y="-119.5" font-family="Helvetica,sans-Serif" font-size="10.00">_parameter.hpp</text>
</a>
</g>
</g>
<!-- Node19&#45;&gt;Node20 -->
<g id="edge36" class="edge">
<title>Node19&#45;&gt;Node20</title>
<path fill="none" stroke="midnightblue" d="M1186.42,-179.4C1186.42,-171.64 1186.42,-161.81 1186.42,-152.86"/>
<polygon fill="midnightblue" stroke="midnightblue" points="1189.92,-152.58 1186.42,-142.58 1182.92,-152.58 1189.92,-152.58"/>
</g>
<!-- Node20&#45;&gt;Node2 -->
<g id="edge37" class="edge">
<title>Node20&#45;&gt;Node2</title>
<path fill="none" stroke="midnightblue" d="M1164.19,-112.47C1136.43,-95.75 1086.9,-68.49 1040.42,-56 932.97,-27.14 588.53,-15.13 476.78,-11.93"/>
<polygon fill="midnightblue" stroke="midnightblue" points="476.81,-8.43 466.71,-11.64 476.61,-15.42 476.81,-8.43"/>
</g>
<!-- Node20&#45;&gt;Node3 -->
<g id="edge38" class="edge">
<title>Node20&#45;&gt;Node3</title>
<path fill="none" stroke="midnightblue" d="M1177.34,-112.34C1163.77,-91.15 1138.2,-51.24 1123.53,-28.34"/>
<polygon fill="midnightblue" stroke="midnightblue" points="1126.31,-26.2 1117.97,-19.67 1120.42,-29.98 1126.31,-26.2"/>
</g>
<!-- Node21 -->
<g id="node21" class="node">
<title>Node21</title>
<g id="a_node21"><a xlink:href="exception_8hpp.html" target="_top" xlink:title="SignalEasel exceptions.">
<polygon fill="none" stroke="black" points="1330.92,-56.5 1330.92,-75.5 1475.92,-75.5 1475.92,-56.5 1330.92,-56.5"/>
<text text-anchor="middle" x="1403.42" y="-63.5" font-family="Helvetica,sans-Serif" font-size="10.00">SignalEasel/exception.hpp</text>
</a>
</g>
</g>
<!-- Node20&#45;&gt;Node21 -->
<g id="edge39" class="edge">
<title>Node20&#45;&gt;Node21</title>
<path fill="none" stroke="midnightblue" d="M1237.57,-112.47C1275.66,-102.03 1326.98,-87.96 1362.4,-78.25"/>
<polygon fill="midnightblue" stroke="midnightblue" points="1363.68,-81.53 1372.39,-75.51 1361.83,-74.78 1363.68,-81.53"/>
</g>
<!-- Node21&#45;&gt;Node3 -->
<g id="edge41" class="edge">
<title>Node21&#45;&gt;Node3</title>
<path fill="none" stroke="midnightblue" d="M1357.31,-56.44C1297.94,-45.43 1196.27,-26.56 1144.6,-16.97"/>
<polygon fill="midnightblue" stroke="midnightblue" points="1145.13,-13.51 1134.66,-15.13 1143.85,-20.39 1145.13,-13.51"/>
</g>
<!-- Node22 -->
<g id="node22" class="node">
<title>Node22</title>
<g id="a_node22"><a xlink:title=" ">
<polygon fill="none" stroke="#bfbfbf" points="1370.92,-0.5 1370.92,-19.5 1435.92,-19.5 1435.92,-0.5 1370.92,-0.5"/>
<text text-anchor="middle" x="1403.42" y="-7.5" font-family="Helvetica,sans-Serif" font-size="10.00">exception</text>
</a>
</g>
</g>
<!-- Node21&#45;&gt;Node22 -->
<g id="edge40" class="edge">
<title>Node21&#45;&gt;Node22</title>
<path fill="none" stroke="midnightblue" d="M1403.42,-56.08C1403.42,-49.01 1403.42,-38.86 1403.42,-29.99"/>
<polygon fill="midnightblue" stroke="midnightblue" points="1406.92,-29.75 1403.42,-19.75 1399.92,-29.75 1406.92,-29.75"/>
</g>
<!-- Node23&#45;&gt;Node6 -->
<g id="edge43" class="edge">
<title>Node23&#45;&gt;Node6</title>
<path fill="none" stroke="midnightblue" d="M1069.74,-246.32C1042.74,-229.04 994.88,-199.6 951.42,-179 917.79,-163.06 877.66,-148.6 849.95,-139.27"/>
<polygon fill="midnightblue" stroke="midnightblue" points="850.92,-135.91 840.33,-136.08 848.72,-142.55 850.92,-135.91"/>
</g>
<!-- Node23&#45;&gt;Node19 -->
<g id="edge44" class="edge">
<title>Node23&#45;&gt;Node19</title>
<path fill="none" stroke="midnightblue" d="M1112.03,-246.4C1125.35,-237.28 1142.88,-225.29 1157.57,-215.24"/>
<polygon fill="midnightblue" stroke="midnightblue" points="1159.57,-218.11 1165.84,-209.58 1155.62,-212.33 1159.57,-218.11"/>
</g>
<!-- Node24&#45;&gt;Node2 -->
<g id="edge46" class="edge">
<title>Node24&#45;&gt;Node2</title>
<path fill="none" stroke="midnightblue" d="M851.82,-258C734.27,-252.55 484.4,-237.81 457.42,-210 432.89,-184.71 437.23,-74.08 440.05,-29.61"/>
<polygon fill="midnightblue" stroke="midnightblue" points="443.55,-29.82 440.74,-19.6 436.56,-29.34 443.55,-29.82"/>
</g>
<!-- Node24&#45;&gt;Node3 -->
<g id="edge49" class="edge">
<title>Node24&#45;&gt;Node3</title>
<path fill="none" stroke="midnightblue" d="M923.58,-251.86C935.58,-242.29 954.89,-226.09 969.42,-210 1025.19,-148.23 1079.22,-64.67 1101.61,-28.69"/>
<polygon fill="midnightblue" stroke="midnightblue" points="1104.79,-30.2 1107.06,-19.86 1098.83,-26.53 1104.79,-30.2"/>
</g>
<!-- Node24&#45;&gt;Node6 -->
<g id="edge50" class="edge">
<title>Node24&#45;&gt;Node6</title>
<path fill="none" stroke="midnightblue" d="M905.39,-251.66C897.48,-241.65 884.31,-224.82 873.42,-210 857.34,-188.14 839.52,-162.4 828.16,-145.79"/>
<polygon fill="midnightblue" stroke="midnightblue" points="830.8,-143.45 822.28,-137.16 825.02,-147.39 830.8,-143.45"/>
</g>
<!-- Node24&#45;&gt;Node8 -->
<g id="edge51" class="edge">
<title>Node24&#45;&gt;Node8</title>
<path fill="none" stroke="midnightblue" d="M851.8,-255.41C759.4,-247.38 577.85,-230.56 424.42,-210 414.85,-208.72 404.72,-207.2 394.88,-205.64"/>
<polygon fill="midnightblue" stroke="midnightblue" points="395.18,-202.14 384.75,-204 394.07,-209.05 395.18,-202.14"/>
</g>
<!-- Node24&#45;&gt;Node15 -->
<g id="edge47" class="edge">
<title>Node24&#45;&gt;Node15</title>
<path fill="none" stroke="midnightblue" d="M921.54,-251.77C930.73,-242.39 944.52,-226.56 951.42,-210 968.86,-168.14 971.13,-113.97 970.97,-85.83"/>
<polygon fill="midnightblue" stroke="midnightblue" points="974.47,-85.72 970.8,-75.78 967.47,-85.84 974.47,-85.72"/>
</g>
<!-- Node25 -->
<g id="node25" class="node">
<title>Node25</title>
<g id="a_node25"><a xlink:title=" ">
<polygon fill="none" stroke="#bfbfbf" points="882.42,-185 882.42,-204 942.42,-204 942.42,-185 882.42,-185"/>
<text text-anchor="middle" x="912.42" y="-192" font-family="Helvetica,sans-Serif" font-size="10.00">iostream</text>
</a>
</g>
</g>
<!-- Node24&#45;&gt;Node25 -->
<g id="edge48" class="edge">
<title>Node24&#45;&gt;Node25</title>
<path fill="none" stroke="midnightblue" d="M912.42,-251.73C912.42,-242.18 912.42,-226.62 912.42,-214.28"/>
<polygon fill="midnightblue" stroke="midnightblue" points="915.92,-214.13 912.42,-204.13 908.92,-214.13 915.92,-214.13"/>
</g>
</g>
</svg>
