<?xml version="1.0" encoding="UTF-8" standalone="no"?>
<!DOCTYPE svg PUBLIC "-//W3C//DTD SVG 1.1//EN"
 "http://www.w3.org/Graphics/SVG/1.1/DTD/svg11.dtd">
<!-- Generated by graphviz version 2.43.0 (0)
 -->
<!-- Title: aprs_receiver.cpp Pages: 1 -->
<svg width="1644pt" height="397pt"
 viewBox="0.00 0.00 1643.50 397.00" xmlns="http://www.w3.org/2000/svg" xmlns:xlink="http://www.w3.org/1999/xlink">
<g id="graph0" class="graph" transform="scale(1 1) rotate(0) translate(4 393)">
<title>aprs_receiver.cpp</title>
<!-- Node1 -->
<g id="node1" class="node">
<title>Node1</title>
<g id="a_node1"><a xlink:title="Implementation of the APRS receiver class.">
<polygon fill="#bfbfbf" stroke="black" points="1311,-369.5 1311,-388.5 1413,-388.5 1413,-369.5 1311,-369.5"/>
<text text-anchor="middle" x="1362" y="-376.5" font-family="Helvetica,sans-Serif" font-size="10.00">aprs_receiver.cpp</text>
</a>
</g>
</g>
<!-- Node2 -->
<g id="node2" class="node">
<title>Node2</title>
<g id="a_node2"><a xlink:href="aprs_8hpp.html" target="_top" xlink:title=" ">
<polygon fill="none" stroke="black" points="1106,-313.5 1106,-332.5 1224,-332.5 1224,-313.5 1106,-313.5"/>
<text text-anchor="middle" x="1165" y="-320.5" font-family="Helvetica,sans-Serif" font-size="10.00">SignalEasel/aprs.hpp</text>
</a>
</g>
</g>
<!-- Node1&#45;&gt;Node2 -->
<g id="edge1" class="edge">
<title>Node1&#45;&gt;Node2</title>
<path fill="none" stroke="midnightblue" d="M1330.78,-369.44C1297.07,-360.2 1243.2,-345.44 1206.07,-335.26"/>
<polygon fill="midnightblue" stroke="midnightblue" points="1206.64,-331.78 1196.07,-332.52 1204.79,-338.54 1206.64,-331.78"/>
</g>
<!-- Node21 -->
<g id="node21" class="node">
<title>Node21</title>
<g id="a_node21"><a xlink:href="exception_8hpp.html" target="_top" xlink:title="SignalEasel exceptions.">
<polygon fill="none" stroke="black" points="1490.5,-56.5 1490.5,-75.5 1635.5,-75.5 1635.5,-56.5 1490.5,-56.5"/>
<text text-anchor="middle" x="1563" y="-63.5" font-family="Helvetica,sans-Serif" font-size="10.00">SignalEasel/exception.hpp</text>
</a>
</g>
</g>
<!-- Node1&#45;&gt;Node21 -->
<g id="edge52" class="edge">
<title>Node1&#45;&gt;Node21</title>
<path fill="none" stroke="midnightblue" d="M1388.28,-369.49C1428.32,-354.69 1500,-320.14 1500,-262.5 1500,-262.5 1500,-262.5 1500,-193.5 1500,-150.21 1529.93,-106.49 1548.53,-83.51"/>
<polygon fill="midnightblue" stroke="midnightblue" points="1551.29,-85.67 1555.02,-75.76 1545.92,-81.18 1551.29,-85.67"/>
</g>
<!-- Node25 -->
<g id="node25" class="node">
<title>Node25</title>
<g id="a_node25"><a xlink:title=" ">
<polygon fill="none" stroke="#bfbfbf" points="180,-185 180,-204 240,-204 240,-185 180,-185"/>
<text text-anchor="middle" x="210" y="-192" font-family="Helvetica,sans-Serif" font-size="10.00">iostream</text>
</a>
</g>
</g>
<!-- Node1&#45;&gt;Node25 -->
<g id="edge54" class="edge">
<title>Node1&#45;&gt;Node25</title>
<path fill="none" stroke="midnightblue" d="M1310.94,-373.51C1181.74,-361.74 831.6,-327.44 543,-277 410.56,-253.85 376.68,-248.95 248,-210 245.43,-209.22 242.78,-208.35 240.14,-207.44"/>
<polygon fill="midnightblue" stroke="midnightblue" points="241.32,-204.15 230.72,-204.01 238.92,-210.72 241.32,-204.15"/>
</g>
<!-- Node26 -->
<g id="node26" class="node">
<title>Node26</title>
<g id="a_node26"><a xlink:title=" ">
<polygon fill="none" stroke="#bfbfbf" points="1528,-313.5 1528,-332.5 1584,-332.5 1584,-313.5 1528,-313.5"/>
<text text-anchor="middle" x="1556" y="-320.5" font-family="Helvetica,sans-Serif" font-size="10.00">iomanip</text>
</a>
</g>
</g>
<!-- Node1&#45;&gt;Node26 -->
<g id="edge53" class="edge">
<title>Node1&#45;&gt;Node26</title>
<path fill="none" stroke="midnightblue" d="M1392.74,-369.44C1426.73,-359.98 1481.5,-344.74 1518.11,-334.55"/>
<polygon fill="midnightblue" stroke="midnightblue" points="1519.23,-337.87 1527.92,-331.82 1517.35,-331.12 1519.23,-337.87"/>
</g>
<!-- Node3 -->
<g id="node3" class="node">
<title>Node3</title>
<g id="a_node3"><a xlink:title=" ">
<polygon fill="none" stroke="#bfbfbf" points="436,-0.5 436,-19.5 486,-19.5 486,-0.5 436,-0.5"/>
<text text-anchor="middle" x="461" y="-7.5" font-family="Helvetica,sans-Serif" font-size="10.00">cstdint</text>
</a>
</g>
</g>
<!-- Node2&#45;&gt;Node3 -->
<g id="edge2" class="edge">
<title>Node2&#45;&gt;Node3</title>
<path fill="none" stroke="midnightblue" d="M1105.98,-322.03C893.6,-321.81 175.87,-318.02 82,-277 34.91,-256.43 0,-246.88 0,-195.5 0,-195.5 0,-195.5 0,-126.5 0,-89.56 12.71,-75.62 44,-56 107.28,-16.31 336.95,-11.34 425.68,-10.92"/>
<polygon fill="midnightblue" stroke="midnightblue" points="425.79,-14.42 435.78,-10.89 425.77,-7.42 425.79,-14.42"/>
</g>
<!-- Node4 -->
<g id="node4" class="node">
<title>Node4</title>
<g id="a_node4"><a xlink:title=" ">
<polygon fill="none" stroke="#bfbfbf" points="1217,-0.5 1217,-19.5 1261,-19.5 1261,-0.5 1217,-0.5"/>
<text text-anchor="middle" x="1239" y="-7.5" font-family="Helvetica,sans-Serif" font-size="10.00">string</text>
</a>
</g>
</g>
<!-- Node2&#45;&gt;Node4 -->
<g id="edge3" class="edge">
<title>Node2&#45;&gt;Node4</title>
<path fill="none" stroke="midnightblue" d="M1224,-318.35C1291.38,-313.09 1396.28,-301.22 1427,-277 1457.96,-252.59 1462,-234.92 1462,-195.5 1462,-195.5 1462,-195.5 1462,-126.5 1462,-41.6 1332.96,-19.03 1271.2,-13.09"/>
<polygon fill="midnightblue" stroke="midnightblue" points="1271.46,-9.6 1261.2,-12.22 1270.86,-16.57 1271.46,-9.6"/>
</g>
<!-- Node5 -->
<g id="node5" class="node">
<title>Node5</title>
<g id="a_node5"><a xlink:title=" ">
<polygon fill="none" stroke="#bfbfbf" points="1198,-185 1198,-204 1320,-204 1320,-185 1198,-185"/>
<text text-anchor="middle" x="1259" y="-192" font-family="Helvetica,sans-Serif" font-size="10.00">BoosterSeat/time.hpp</text>
</a>
</g>
</g>
<!-- Node2&#45;&gt;Node5 -->
<g id="edge4" class="edge">
<title>Node2&#45;&gt;Node5</title>
<path fill="none" stroke="midnightblue" d="M1171.46,-313.31C1186.89,-292.54 1226.1,-239.77 1246.4,-212.46"/>
<polygon fill="midnightblue" stroke="midnightblue" points="1249.34,-214.37 1252.49,-204.26 1243.72,-210.19 1249.34,-214.37"/>
</g>
<!-- Node6 -->
<g id="node6" class="node">
<title>Node6</title>
<g id="a_node6"><a xlink:href="afsk_8hpp.html" target="_top" xlink:title="AFSK related modulation/demodulation.">
<polygon fill="none" stroke="black" points="552,-252 552,-271 670,-271 670,-252 552,-252"/>
<text text-anchor="middle" x="611" y="-259" font-family="Helvetica,sans-Serif" font-size="10.00">SignalEasel/afsk.hpp</text>
</a>
</g>
</g>
<!-- Node2&#45;&gt;Node6 -->
<g id="edge5" class="edge">
<title>Node2&#45;&gt;Node6</title>
<path fill="none" stroke="midnightblue" d="M1105.97,-315.66C1002.83,-304.58 790.32,-281.76 680.34,-269.95"/>
<polygon fill="midnightblue" stroke="midnightblue" points="680.66,-266.46 670.35,-268.87 679.92,-273.42 680.66,-266.46"/>
</g>
<!-- Node18 -->
<g id="node18" class="node">
<title>Node18</title>
<g id="a_node18"><a xlink:href="packets_8hpp.html" target="_top" xlink:title=" ">
<polygon fill="none" stroke="black" points="1260,-252 1260,-271 1418,-271 1418,-252 1260,-252"/>
<text text-anchor="middle" x="1339" y="-259" font-family="Helvetica,sans-Serif" font-size="10.00">SignalEasel/aprs/packets.hpp</text>
</a>
</g>
</g>
<!-- Node2&#45;&gt;Node18 -->
<g id="edge29" class="edge">
<title>Node2&#45;&gt;Node18</title>
<path fill="none" stroke="midnightblue" d="M1189.93,-313.48C1220.04,-303.18 1270.83,-285.81 1304.64,-274.25"/>
<polygon fill="midnightblue" stroke="midnightblue" points="1305.79,-277.56 1314.12,-271.01 1303.52,-270.93 1305.79,-277.56"/>
</g>
<!-- Node23 -->
<g id="node23" class="node">
<title>Node23</title>
<g id="a_node23"><a xlink:href="telemetry__transcoder_8hpp.html" target="_top" xlink:title=" ">
<polygon fill="none" stroke="black" points="1032,-246.5 1032,-276.5 1180,-276.5 1180,-246.5 1032,-246.5"/>
<text text-anchor="start" x="1040" y="-264.5" font-family="Helvetica,sans-Serif" font-size="10.00">SignalEasel/aprs/telemetry</text>
<text text-anchor="middle" x="1106" y="-253.5" font-family="Helvetica,sans-Serif" font-size="10.00">_transcoder.hpp</text>
</a>
</g>
</g>
<!-- Node2&#45;&gt;Node23 -->
<g id="edge42" class="edge">
<title>Node2&#45;&gt;Node23</title>
<path fill="none" stroke="midnightblue" d="M1156.55,-313.48C1148.85,-305.72 1137.18,-293.94 1126.99,-283.66"/>
<polygon fill="midnightblue" stroke="midnightblue" points="1129.43,-281.16 1119.91,-276.52 1124.46,-286.09 1129.43,-281.16"/>
</g>
<!-- Node24 -->
<g id="node24" class="node">
<title>Node24</title>
<g id="a_node24"><a xlink:href="ax25_8hpp.html" target="_top" xlink:title="AX.25 tools.">
<polygon fill="none" stroke="black" points="91.5,-252 91.5,-271 212.5,-271 212.5,-252 91.5,-252"/>
<text text-anchor="middle" x="152" y="-259" font-family="Helvetica,sans-Serif" font-size="10.00">SignalEasel/ax25.hpp</text>
</a>
</g>
</g>
<!-- Node2&#45;&gt;Node24 -->
<g id="edge45" class="edge">
<title>Node2&#45;&gt;Node24</title>
<path fill="none" stroke="midnightblue" d="M1105.79,-318.52C930.12,-308.2 412.34,-277.79 222.67,-266.65"/>
<polygon fill="midnightblue" stroke="midnightblue" points="222.72,-263.15 212.53,-266.06 222.31,-270.14 222.72,-263.15"/>
</g>
<!-- Node7 -->
<g id="node7" class="node">
<title>Node7</title>
<g id="a_node7"><a xlink:title=" ">
<polygon fill="none" stroke="#bfbfbf" points="486.5,-118 486.5,-137 533.5,-137 533.5,-118 486.5,-118"/>
<text text-anchor="middle" x="510" y="-125" font-family="Helvetica,sans-Serif" font-size="10.00">vector</text>
</a>
</g>
</g>
<!-- Node6&#45;&gt;Node7 -->
<g id="edge6" class="edge">
<title>Node6&#45;&gt;Node7</title>
<path fill="none" stroke="midnightblue" d="M562.01,-251.96C537.79,-244.99 510.66,-232.46 496,-210 483.47,-190.81 492.01,-163.85 500.22,-146.28"/>
<polygon fill="midnightblue" stroke="midnightblue" points="503.45,-147.66 504.85,-137.15 497.21,-144.49 503.45,-147.66"/>
</g>
<!-- Node8 -->
<g id="node8" class="node">
<title>Node8</title>
<g id="a_node8"><a xlink:href="constants_8hpp.html" target="_top" xlink:title="Common constants used throughout the library.">
<polygon fill="none" stroke="black" points="389,-56.5 389,-75.5 533,-75.5 533,-56.5 389,-56.5"/>
<text text-anchor="middle" x="461" y="-63.5" font-family="Helvetica,sans-Serif" font-size="10.00">SignalEasel/constants.hpp</text>
</a>
</g>
</g>
<!-- Node6&#45;&gt;Node8 -->
<g id="edge7" class="edge">
<title>Node6&#45;&gt;Node8</title>
<path fill="none" stroke="midnightblue" d="M559.81,-251.98C533.91,-245.02 504.17,-232.48 486,-210 456.76,-173.84 456.68,-115.52 458.92,-85.77"/>
<polygon fill="midnightblue" stroke="midnightblue" points="462.43,-85.83 459.87,-75.55 455.46,-85.18 462.43,-85.83"/>
</g>
<!-- Node9 -->
<g id="node9" class="node">
<title>Node9</title>
<g id="a_node9"><a xlink:href="bit__stream_8hpp.html" target="_top" xlink:title="The bit stream class.">
<polygon fill="none" stroke="black" points="257.5,-185 257.5,-204 406.5,-204 406.5,-185 257.5,-185"/>
<text text-anchor="middle" x="332" y="-192" font-family="Helvetica,sans-Serif" font-size="10.00">SignalEasel/bit_stream.hpp</text>
</a>
</g>
</g>
<!-- Node6&#45;&gt;Node9 -->
<g id="edge9" class="edge">
<title>Node6&#45;&gt;Node9</title>
<path fill="none" stroke="midnightblue" d="M574.24,-251.94C523.95,-240.22 433.7,-219.19 378.69,-206.38"/>
<polygon fill="midnightblue" stroke="midnightblue" points="379.38,-202.94 368.84,-204.08 377.79,-209.76 379.38,-202.94"/>
</g>
<!-- Node10 -->
<g id="node10" class="node">
<title>Node10</title>
<g id="a_node10"><a xlink:href="demodulator_8hpp.html" target="_top" xlink:title="Base class for demodulators.">
<polygon fill="none" stroke="black" points="856,-185 856,-204 1014,-204 1014,-185 856,-185"/>
<text text-anchor="middle" x="935" y="-192" font-family="Helvetica,sans-Serif" font-size="10.00">SignalEasel/demodulator.hpp</text>
</a>
</g>
</g>
<!-- Node6&#45;&gt;Node10 -->
<g id="edge12" class="edge">
<title>Node6&#45;&gt;Node10</title>
<path fill="none" stroke="midnightblue" d="M653.69,-251.94C712.65,-240.11 818.94,-218.78 882.63,-206.01"/>
<polygon fill="midnightblue" stroke="midnightblue" points="883.36,-209.43 892.47,-204.03 881.98,-202.57 883.36,-209.43"/>
</g>
<!-- Node12 -->
<g id="node12" class="node">
<title>Node12</title>
<g id="a_node12"><a xlink:href="modulator_8hpp.html" target="_top" xlink:title="Modulator base class.">
<polygon fill="none" stroke="black" points="538,-185 538,-204 684,-204 684,-185 538,-185"/>
<text text-anchor="middle" x="611" y="-192" font-family="Helvetica,sans-Serif" font-size="10.00">SignalEasel/modulator.hpp</text>
</a>
</g>
</g>
<!-- Node6&#45;&gt;Node12 -->
<g id="edge17" class="edge">
<title>Node6&#45;&gt;Node12</title>
<path fill="none" stroke="midnightblue" d="M611,-251.73C611,-242.18 611,-226.62 611,-214.28"/>
<polygon fill="midnightblue" stroke="midnightblue" points="614.5,-214.13 611,-204.13 607.5,-214.13 614.5,-214.13"/>
</g>
<!-- Node13 -->
<g id="node13" class="node">
<title>Node13</title>
<g id="a_node13"><a xlink:href="receiver_8hpp.html" target="_top" xlink:title="Base class for receivers. Demodulators that use pulse audio.">
<polygon fill="none" stroke="black" points="702,-185 702,-204 838,-204 838,-185 702,-185"/>
<text text-anchor="middle" x="770" y="-192" font-family="Helvetica,sans-Serif" font-size="10.00">SignalEasel/receiver.hpp</text>
</a>
</g>
</g>
<!-- Node6&#45;&gt;Node13 -->
<g id="edge21" class="edge">
<title>Node6&#45;&gt;Node13</title>
<path fill="none" stroke="midnightblue" d="M632.11,-251.87C659.63,-240.62 707.95,-220.87 739.46,-207.99"/>
<polygon fill="midnightblue" stroke="midnightblue" points="741.12,-211.09 749.05,-204.06 738.47,-204.61 741.12,-211.09"/>
</g>
<!-- Node8&#45;&gt;Node3 -->
<g id="edge8" class="edge">
<title>Node8&#45;&gt;Node3</title>
<path fill="none" stroke="midnightblue" d="M461,-56.08C461,-49.01 461,-38.86 461,-29.99"/>
<polygon fill="midnightblue" stroke="midnightblue" points="464.5,-29.75 461,-19.75 457.5,-29.75 464.5,-29.75"/>
</g>
<!-- Node9&#45;&gt;Node3 -->
<g id="edge10" class="edge">
<title>Node9&#45;&gt;Node3</title>
<path fill="none" stroke="midnightblue" d="M332.9,-184.72C335.71,-161.23 346.29,-96.04 380,-56 392.18,-41.53 410.27,-30.86 426.26,-23.55"/>
<polygon fill="midnightblue" stroke="midnightblue" points="428.06,-26.58 435.87,-19.43 425.3,-20.15 428.06,-26.58"/>
</g>
<!-- Node9&#45;&gt;Node7 -->
<g id="edge11" class="edge">
<title>Node9&#45;&gt;Node7</title>
<path fill="none" stroke="midnightblue" d="M355.64,-184.87C386.71,-173.52 441.47,-153.52 476.72,-140.65"/>
<polygon fill="midnightblue" stroke="midnightblue" points="478.36,-143.78 486.55,-137.06 475.95,-137.21 478.36,-143.78"/>
</g>
<!-- Node10&#45;&gt;Node4 -->
<g id="edge13" class="edge">
<title>Node10&#45;&gt;Node4</title>
<path fill="none" stroke="midnightblue" d="M949.25,-184.94C997.72,-155.84 1156.46,-60.55 1216.09,-24.75"/>
<polygon fill="midnightblue" stroke="midnightblue" points="1218,-27.69 1224.78,-19.54 1214.4,-21.69 1218,-27.69"/>
</g>
<!-- Node10&#45;&gt;Node7 -->
<g id="edge14" class="edge">
<title>Node10&#45;&gt;Node7</title>
<path fill="none" stroke="midnightblue" d="M883.83,-184.94C871.76,-182.96 858.93,-180.88 847,-179 736.19,-161.57 604.65,-142.25 543.88,-133.41"/>
<polygon fill="midnightblue" stroke="midnightblue" points="544.12,-129.91 533.72,-131.93 543.11,-136.84 544.12,-129.91"/>
</g>
<!-- Node11 -->
<g id="node11" class="node">
<title>Node11</title>
<g id="a_node11"><a xlink:href="settings_8hpp.html" target="_top" xlink:title="Settings structures for SignalEasel.">
<polygon fill="none" stroke="black" points="867,-118 867,-137 1003,-137 1003,-118 867,-118"/>
<text text-anchor="middle" x="935" y="-125" font-family="Helvetica,sans-Serif" font-size="10.00">SignalEasel/settings.hpp</text>
</a>
</g>
</g>
<!-- Node10&#45;&gt;Node11 -->
<g id="edge15" class="edge">
<title>Node10&#45;&gt;Node11</title>
<path fill="none" stroke="midnightblue" d="M935,-184.73C935,-175.18 935,-159.62 935,-147.28"/>
<polygon fill="midnightblue" stroke="midnightblue" points="938.5,-147.13 935,-137.13 931.5,-147.13 938.5,-147.13"/>
</g>
<!-- Node11&#45;&gt;Node4 -->
<g id="edge16" class="edge">
<title>Node11&#45;&gt;Node4</title>
<path fill="none" stroke="midnightblue" d="M957.85,-117.82C1011.48,-97.44 1145.52,-46.52 1207.12,-23.11"/>
<polygon fill="midnightblue" stroke="midnightblue" points="1208.61,-26.29 1216.71,-19.47 1206.12,-19.75 1208.61,-26.29"/>
</g>
<!-- Node12&#45;&gt;Node3 -->
<g id="edge18" class="edge">
<title>Node12&#45;&gt;Node3</title>
<path fill="none" stroke="midnightblue" d="M608.59,-184.7C601.76,-161.18 580.26,-95.91 542,-56 528.63,-42.06 509.98,-31.29 493.95,-23.79"/>
<polygon fill="midnightblue" stroke="midnightblue" points="494.93,-20.4 484.37,-19.55 492.1,-26.8 494.93,-20.4"/>
</g>
<!-- Node12&#45;&gt;Node7 -->
<g id="edge19" class="edge">
<title>Node12&#45;&gt;Node7</title>
<path fill="none" stroke="midnightblue" d="M597.38,-184.73C580.57,-173.92 551.77,-155.38 531.86,-142.57"/>
<polygon fill="midnightblue" stroke="midnightblue" points="533.71,-139.6 523.41,-137.13 529.92,-145.48 533.71,-139.6"/>
</g>
<!-- Node12&#45;&gt;Node11 -->
<g id="edge20" class="edge">
<title>Node12&#45;&gt;Node11</title>
<path fill="none" stroke="midnightblue" d="M653.69,-184.94C712.65,-173.11 818.94,-151.78 882.63,-139.01"/>
<polygon fill="midnightblue" stroke="midnightblue" points="883.36,-142.43 892.47,-137.03 881.98,-135.57 883.36,-142.43"/>
</g>
<!-- Node13&#45;&gt;Node11 -->
<g id="edge28" class="edge">
<title>Node13&#45;&gt;Node11</title>
<path fill="none" stroke="midnightblue" d="M791.91,-184.87C820.59,-173.57 871.04,-153.7 903.73,-140.82"/>
<polygon fill="midnightblue" stroke="midnightblue" points="905.24,-143.99 913.26,-137.06 902.67,-137.47 905.24,-143.99"/>
</g>
<!-- Node14 -->
<g id="node14" class="node">
<title>Node14</title>
<g id="a_node14"><a xlink:href="pulse__audio_8hpp.html" target="_top" xlink:title="Reads audio from pulse audio.">
<polygon fill="none" stroke="black" points="692.5,-118 692.5,-137 847.5,-137 847.5,-118 692.5,-118"/>
<text text-anchor="middle" x="770" y="-125" font-family="Helvetica,sans-Serif" font-size="10.00">SignalEasel/pulse_audio.hpp</text>
</a>
</g>
</g>
<!-- Node13&#45;&gt;Node14 -->
<g id="edge22" class="edge">
<title>Node13&#45;&gt;Node14</title>
<path fill="none" stroke="midnightblue" d="M770,-184.73C770,-175.18 770,-159.62 770,-147.28"/>
<polygon fill="midnightblue" stroke="midnightblue" points="773.5,-147.13 770,-137.13 766.5,-147.13 773.5,-147.13"/>
</g>
<!-- Node14&#45;&gt;Node4 -->
<g id="edge24" class="edge">
<title>Node14&#45;&gt;Node4</title>
<path fill="none" stroke="midnightblue" d="M760.75,-117.67C746.71,-103.2 723.31,-74.26 740,-56 771.52,-21.51 1101.67,-13.21 1206.94,-11.44"/>
<polygon fill="midnightblue" stroke="midnightblue" points="1207.03,-14.94 1216.97,-11.28 1206.91,-7.94 1207.03,-14.94"/>
</g>
<!-- Node14&#45;&gt;Node8 -->
<g id="edge25" class="edge">
<title>Node14&#45;&gt;Node8</title>
<path fill="none" stroke="midnightblue" d="M725.73,-117.98C670.2,-107.28 575.03,-88.96 515.2,-77.44"/>
<polygon fill="midnightblue" stroke="midnightblue" points="515.67,-73.96 505.19,-75.51 514.35,-80.84 515.67,-73.96"/>
</g>
<!-- Node15 -->
<g id="node15" class="node">
<title>Node15</title>
<g id="a_node15"><a xlink:title=" ">
<polygon fill="none" stroke="#bfbfbf" points="749,-56.5 749,-75.5 791,-75.5 791,-56.5 749,-56.5"/>
<text text-anchor="middle" x="770" y="-63.5" font-family="Helvetica,sans-Serif" font-size="10.00">array</text>
</a>
</g>
</g>
<!-- Node14&#45;&gt;Node15 -->
<g id="edge23" class="edge">
<title>Node14&#45;&gt;Node15</title>
<path fill="none" stroke="midnightblue" d="M770,-117.98C770,-109.58 770,-96.48 770,-85.66"/>
<polygon fill="midnightblue" stroke="midnightblue" points="773.5,-85.51 770,-75.51 766.5,-85.51 773.5,-85.51"/>
</g>
<!-- Node16 -->
<g id="node16" class="node">
<title>Node16</title>
<g id="a_node16"><a xlink:title=" ">
<polygon fill="none" stroke="#bfbfbf" points="809.5,-56.5 809.5,-75.5 886.5,-75.5 886.5,-56.5 809.5,-56.5"/>
<text text-anchor="middle" x="848" y="-63.5" font-family="Helvetica,sans-Serif" font-size="10.00">pulse/error.h</text>
</a>
</g>
</g>
<!-- Node14&#45;&gt;Node16 -->
<g id="edge26" class="edge">
<title>Node14&#45;&gt;Node16</title>
<path fill="none" stroke="midnightblue" d="M781.18,-117.98C793.57,-108.52 813.79,-93.1 828.75,-81.69"/>
<polygon fill="midnightblue" stroke="midnightblue" points="831.02,-84.36 836.85,-75.51 826.77,-78.79 831.02,-84.36"/>
</g>
<!-- Node17 -->
<g id="node17" class="node">
<title>Node17</title>
<g id="a_node17"><a xlink:title=" ">
<polygon fill="none" stroke="#bfbfbf" points="905,-56.5 905,-75.5 993,-75.5 993,-56.5 905,-56.5"/>
<text text-anchor="middle" x="949" y="-63.5" font-family="Helvetica,sans-Serif" font-size="10.00">pulse/simple.h</text>
</a>
</g>
</g>
<!-- Node14&#45;&gt;Node17 -->
<g id="edge27" class="edge">
<title>Node14&#45;&gt;Node17</title>
<path fill="none" stroke="midnightblue" d="M795.65,-117.98C826.62,-107.68 878.87,-90.31 913.65,-78.75"/>
<polygon fill="midnightblue" stroke="midnightblue" points="915.02,-81.98 923.4,-75.51 912.81,-75.34 915.02,-81.98"/>
</g>
<!-- Node18&#45;&gt;Node3 -->
<g id="edge30" class="edge">
<title>Node18&#45;&gt;Node3</title>
<path fill="none" stroke="midnightblue" d="M1343.74,-251.92C1351.87,-235.93 1366.12,-201.17 1350,-179 1319.5,-137.05 1288.02,-159.94 1239,-143 1132.95,-106.35 1111.56,-80.2 1002,-56 814.71,-14.63 583.3,-10.6 496.28,-10.68"/>
<polygon fill="midnightblue" stroke="midnightblue" points="496.15,-7.18 486.16,-10.71 496.17,-14.18 496.15,-7.18"/>
</g>
<!-- Node18&#45;&gt;Node4 -->
<g id="edge31" class="edge">
<title>Node18&#45;&gt;Node4</title>
<path fill="none" stroke="midnightblue" d="M1355.43,-251.96C1369.92,-243.45 1390.22,-228.93 1400,-210 1420.02,-171.25 1426.37,-150.02 1405,-112 1376.34,-61.01 1310.34,-32.75 1270.74,-19.83"/>
<polygon fill="midnightblue" stroke="midnightblue" points="1271.63,-16.44 1261.04,-16.8 1269.54,-23.12 1271.63,-16.44"/>
</g>
<!-- Node18&#45;&gt;Node5 -->
<g id="edge33" class="edge">
<title>Node18&#45;&gt;Node5</title>
<path fill="none" stroke="midnightblue" d="M1328.21,-251.73C1315.26,-241.21 1293.31,-223.38 1277.61,-210.62"/>
<polygon fill="midnightblue" stroke="midnightblue" points="1279.59,-207.72 1269.62,-204.13 1275.17,-213.15 1279.59,-207.72"/>
</g>
<!-- Node18&#45;&gt;Node7 -->
<g id="edge32" class="edge">
<title>Node18&#45;&gt;Node7</title>
<path fill="none" stroke="midnightblue" d="M1341.08,-251.8C1344.52,-234.96 1349.19,-197.9 1329,-179 1276.59,-129.96 755.61,-147.98 684,-143 635.22,-139.61 578.83,-134.73 543.78,-131.59"/>
<polygon fill="midnightblue" stroke="midnightblue" points="543.9,-128.09 533.63,-130.68 543.27,-135.06 543.9,-128.09"/>
</g>
<!-- Node19 -->
<g id="node19" class="node">
<title>Node19</title>
<g id="a_node19"><a xlink:href="telemetry__data_8hpp.html" target="_top" xlink:title=" ">
<polygon fill="none" stroke="black" points="1032,-179.5 1032,-209.5 1180,-209.5 1180,-179.5 1032,-179.5"/>
<text text-anchor="start" x="1040" y="-197.5" font-family="Helvetica,sans-Serif" font-size="10.00">SignalEasel/aprs/telemetry</text>
<text text-anchor="middle" x="1106" y="-186.5" font-family="Helvetica,sans-Serif" font-size="10.00">_data.hpp</text>
</a>
</g>
</g>
<!-- Node18&#45;&gt;Node19 -->
<g id="edge34" class="edge">
<title>Node18&#45;&gt;Node19</title>
<path fill="none" stroke="midnightblue" d="M1308.06,-251.87C1271.96,-241.8 1211.44,-224.91 1166.02,-212.24"/>
<polygon fill="midnightblue" stroke="midnightblue" points="1166.86,-208.84 1156.29,-209.53 1164.98,-215.59 1166.86,-208.84"/>
</g>
<!-- Node19&#45;&gt;Node15 -->
<g id="edge35" class="edge">
<title>Node19&#45;&gt;Node15</title>
<path fill="none" stroke="midnightblue" d="M1094.27,-179.36C1077.91,-160.68 1046.37,-128.25 1012,-112 925.99,-71.34 893.72,-97.3 801,-76 800.9,-75.98 800.8,-75.95 800.7,-75.93"/>
<polygon fill="midnightblue" stroke="midnightblue" points="801.82,-72.6 791.26,-73.52 800.08,-79.39 801.82,-72.6"/>
</g>
<!-- Node20 -->
<g id="node20" class="node">
<title>Node20</title>
<g id="a_node20"><a xlink:href="telemetry__parameter_8hpp.html" target="_top" xlink:title=" ">
<polygon fill="none" stroke="black" points="1248,-112.5 1248,-142.5 1396,-142.5 1396,-112.5 1248,-112.5"/>
<text text-anchor="start" x="1256" y="-130.5" font-family="Helvetica,sans-Serif" font-size="10.00">SignalEasel/aprs/telemetry</text>
<text text-anchor="middle" x="1322" y="-119.5" font-family="Helvetica,sans-Serif" font-size="10.00">_parameter.hpp</text>
</a>
</g>
</g>
<!-- Node19&#45;&gt;Node20 -->
<g id="edge36" class="edge">
<title>Node19&#45;&gt;Node20</title>
<path fill="none" stroke="midnightblue" d="M1152.6,-179.48C1185.7,-169.51 1230.33,-156.09 1265.47,-145.51"/>
<polygon fill="midnightblue" stroke="midnightblue" points="1266.54,-148.84 1275.11,-142.61 1264.52,-142.14 1266.54,-148.84"/>
</g>
<!-- Node20&#45;&gt;Node3 -->
<g id="edge37" class="edge">
<title>Node20&#45;&gt;Node3</title>
<path fill="none" stroke="midnightblue" d="M1288.23,-112.46C1246.64,-95.85 1173.45,-68.85 1108,-56 878.23,-10.9 594.82,-9.38 496.53,-10.39"/>
<polygon fill="midnightblue" stroke="midnightblue" points="496.23,-6.9 486.27,-10.52 496.32,-13.9 496.23,-6.9"/>
</g>
<!-- Node20&#45;&gt;Node4 -->
<g id="edge38" class="edge">
<title>Node20&#45;&gt;Node4</title>
<path fill="none" stroke="midnightblue" d="M1311.82,-112.34C1296.53,-91.05 1267.66,-50.89 1251.24,-28.03"/>
<polygon fill="midnightblue" stroke="midnightblue" points="1253.91,-25.75 1245.23,-19.67 1248.22,-29.83 1253.91,-25.75"/>
</g>
<!-- Node20&#45;&gt;Node21 -->
<g id="edge39" class="edge">
<title>Node20&#45;&gt;Node21</title>
<path fill="none" stroke="midnightblue" d="M1378.81,-112.47C1421.57,-101.92 1479.34,-87.66 1518.71,-77.94"/>
<polygon fill="midnightblue" stroke="midnightblue" points="1519.68,-81.3 1528.55,-75.51 1518,-74.51 1519.68,-81.3"/>
</g>
<!-- Node21&#45;&gt;Node4 -->
<g id="edge41" class="edge">
<title>Node21&#45;&gt;Node4</title>
<path fill="none" stroke="midnightblue" d="M1511.66,-56.44C1444.11,-45.18 1327.37,-25.73 1271.13,-16.35"/>
<polygon fill="midnightblue" stroke="midnightblue" points="1271.47,-12.86 1261.03,-14.67 1270.32,-19.77 1271.47,-12.86"/>
</g>
<!-- Node22 -->
<g id="node22" class="node">
<title>Node22</title>
<g id="a_node22"><a xlink:title=" ">
<polygon fill="none" stroke="#bfbfbf" points="1530.5,-0.5 1530.5,-19.5 1595.5,-19.5 1595.5,-0.5 1530.5,-0.5"/>
<text text-anchor="middle" x="1563" y="-7.5" font-family="Helvetica,sans-Serif" font-size="10.00">exception</text>
</a>
</g>
</g>
<!-- Node21&#45;&gt;Node22 -->
<g id="edge40" class="edge">
<title>Node21&#45;&gt;Node22</title>
<path fill="none" stroke="midnightblue" d="M1563,-56.08C1563,-49.01 1563,-38.86 1563,-29.99"/>
<polygon fill="midnightblue" stroke="midnightblue" points="1566.5,-29.75 1563,-19.75 1559.5,-29.75 1566.5,-29.75"/>
</g>
<!-- Node23&#45;&gt;Node7 -->
<g id="edge43" class="edge">
<title>Node23&#45;&gt;Node7</title>
<path fill="none" stroke="midnightblue" d="M1031.9,-258.8C884.67,-254.74 566.22,-242.29 529,-210 511.19,-194.55 508.33,-165.95 508.61,-147.07"/>
<polygon fill="midnightblue" stroke="midnightblue" points="512.11,-147.17 509.08,-137.01 505.12,-146.84 512.11,-147.17"/>
</g>
<!-- Node23&#45;&gt;Node19 -->
<g id="edge44" class="edge">
<title>Node23&#45;&gt;Node19</title>
<path fill="none" stroke="midnightblue" d="M1106,-246.4C1106,-238.64 1106,-228.81 1106,-219.86"/>
<polygon fill="midnightblue" stroke="midnightblue" points="1109.5,-219.58 1106,-209.58 1102.5,-219.58 1109.5,-219.58"/>
</g>
<!-- Node24&#45;&gt;Node3 -->
<g id="edge46" class="edge">
<title>Node24&#45;&gt;Node3</title>
<path fill="none" stroke="midnightblue" d="M120.67,-251.96C100.04,-244.53 74.58,-231.49 62,-210 27.41,-150.94 16.4,-107.04 62,-56 86.07,-29.07 332.7,-16.25 425.74,-12.34"/>
<polygon fill="midnightblue" stroke="midnightblue" points="425.94,-15.84 435.79,-11.93 425.65,-8.84 425.94,-15.84"/>
</g>
<!-- Node24&#45;&gt;Node4 -->
<g id="edge49" class="edge">
<title>Node24&#45;&gt;Node4</title>
<path fill="none" stroke="midnightblue" d="M147.46,-251.61C140.27,-236.28 128.06,-204.09 138,-179 153.06,-141 166.36,-133.7 201,-112 271.64,-67.74 297.96,-70.74 380,-56 543.32,-26.66 1070.42,-14.35 1206.63,-11.61"/>
<polygon fill="midnightblue" stroke="midnightblue" points="1206.89,-15.11 1216.82,-11.41 1206.75,-8.11 1206.89,-15.11"/>
</g>
<!-- Node24&#45;&gt;Node7 -->
<g id="edge50" class="edge">
<title>Node24&#45;&gt;Node7</title>
<path fill="none" stroke="midnightblue" d="M151.16,-251.84C150.05,-235.06 150.28,-198.11 171,-179 214.98,-138.46 398.96,-130.45 475.92,-128.88"/>
<polygon fill="midnightblue" stroke="midnightblue" points="476.11,-132.37 486.04,-128.7 475.98,-125.38 476.11,-132.37"/>
</g>
<!-- Node24&#45;&gt;Node9 -->
<g id="edge51" class="edge">
<title>Node24&#45;&gt;Node9</title>
<path fill="none" stroke="midnightblue" d="M175.9,-251.87C207.46,-240.47 263.18,-220.35 298.81,-207.49"/>
<polygon fill="midnightblue" stroke="midnightblue" points="300.07,-210.75 308.29,-204.06 297.69,-204.17 300.07,-210.75"/>
</g>
<!-- Node24&#45;&gt;Node15 -->
<g id="edge47" class="edge">
<title>Node24&#45;&gt;Node15</title>
<path fill="none" stroke="midnightblue" d="M148.62,-251.71C142.98,-235.37 133.83,-200.06 151,-179 226.3,-86.65 622.97,-70.36 738.44,-67.56"/>
<polygon fill="midnightblue" stroke="midnightblue" points="738.8,-71.06 748.72,-67.33 738.64,-64.06 738.8,-71.06"/>
</g>
<!-- Node24&#45;&gt;Node25 -->
<g id="edge48" class="edge">
<title>Node24&#45;&gt;Node25</title>
<path fill="none" stroke="midnightblue" d="M159.82,-251.73C168.95,-241.5 184.24,-224.36 195.55,-211.69"/>
<polygon fill="midnightblue" stroke="midnightblue" points="198.26,-213.92 202.3,-204.13 193.03,-209.26 198.26,-213.92"/>
</g>
</g>
</svg>
