<?xml version="1.0" encoding="UTF-8" standalone="no"?>
<!DOCTYPE svg PUBLIC "-//W3C//DTD SVG 1.1//EN"
 "http://www.w3.org/Graphics/SVG/1.1/DTD/svg11.dtd">
<!-- Generated by graphviz version 2.43.0 (0)
 -->
<!-- Title: aprs.cpp Pages: 1 -->
<svg width="1705pt" height="397pt"
 viewBox="0.00 0.00 1704.50 397.00" xmlns="http://www.w3.org/2000/svg" xmlns:xlink="http://www.w3.org/1999/xlink">
<g id="graph0" class="graph" transform="scale(1 1) rotate(0) translate(4 393)">
<title>aprs.cpp</title>
<!-- Node1 -->
<g id="node1" class="node">
<title>Node1</title>
<g id="a_node1"><a xlink:title="APRS implementation.">
<polygon fill="#bfbfbf" stroke="black" points="129.5,-369.5 129.5,-388.5 187.5,-388.5 187.5,-369.5 129.5,-369.5"/>
<text text-anchor="middle" x="158.5" y="-376.5" font-family="Helvetica,sans-Serif" font-size="10.00">aprs.cpp</text>
</a>
</g>
</g>
<!-- Node2 -->
<g id="node2" class="node">
<title>Node2</title>
<g id="a_node2"><a xlink:title=" ">
<polygon fill="none" stroke="#bfbfbf" points="0,-313.5 0,-332.5 47,-332.5 47,-313.5 0,-313.5"/>
<text text-anchor="middle" x="23.5" y="-320.5" font-family="Helvetica,sans-Serif" font-size="10.00">cmath</text>
</a>
</g>
</g>
<!-- Node1&#45;&gt;Node2 -->
<g id="edge1" class="edge">
<title>Node1&#45;&gt;Node2</title>
<path fill="none" stroke="midnightblue" d="M137.11,-369.44C114.79,-360.52 79.6,-346.44 54.29,-336.32"/>
<polygon fill="midnightblue" stroke="midnightblue" points="55.38,-332.98 44.79,-332.52 52.78,-339.48 55.38,-332.98"/>
</g>
<!-- Node3 -->
<g id="node3" class="node">
<title>Node3</title>
<g id="a_node3"><a xlink:title=" ">
<polygon fill="none" stroke="#bfbfbf" points="65,-313.5 65,-332.5 130,-332.5 130,-313.5 65,-313.5"/>
<text text-anchor="middle" x="97.5" y="-320.5" font-family="Helvetica,sans-Serif" font-size="10.00">stdexcept</text>
</a>
</g>
</g>
<!-- Node1&#45;&gt;Node3 -->
<g id="edge2" class="edge">
<title>Node1&#45;&gt;Node3</title>
<path fill="none" stroke="midnightblue" d="M148.7,-369.32C139.68,-361.34 126.09,-349.31 115.18,-339.65"/>
<polygon fill="midnightblue" stroke="midnightblue" points="117.29,-336.84 107.48,-332.83 112.65,-342.08 117.29,-336.84"/>
</g>
<!-- Node4 -->
<g id="node4" class="node">
<title>Node4</title>
<g id="a_node4"><a xlink:title=" ">
<polygon fill="none" stroke="#bfbfbf" points="1039,-118 1039,-137 1086,-137 1086,-118 1039,-118"/>
<text text-anchor="middle" x="1062.5" y="-125" font-family="Helvetica,sans-Serif" font-size="10.00">vector</text>
</a>
</g>
</g>
<!-- Node1&#45;&gt;Node4 -->
<g id="edge3" class="edge">
<title>Node1&#45;&gt;Node4</title>
<path fill="none" stroke="midnightblue" d="M187.68,-377.29C344.19,-373.18 1079.52,-350.07 1145.5,-277 1183.64,-234.76 1117.35,-171.99 1082.23,-143.51"/>
<polygon fill="midnightblue" stroke="midnightblue" points="1084.06,-140.5 1074.05,-137.05 1079.72,-145.99 1084.06,-140.5"/>
</g>
<!-- Node5 -->
<g id="node5" class="node">
<title>Node5</title>
<g id="a_node5"><a xlink:href="aprs_8hpp.html" target="_top" xlink:title=" ">
<polygon fill="none" stroke="black" points="438.5,-313.5 438.5,-332.5 556.5,-332.5 556.5,-313.5 438.5,-313.5"/>
<text text-anchor="middle" x="497.5" y="-320.5" font-family="Helvetica,sans-Serif" font-size="10.00">SignalEasel/aprs.hpp</text>
</a>
</g>
</g>
<!-- Node1&#45;&gt;Node5 -->
<g id="edge4" class="edge">
<title>Node1&#45;&gt;Node5</title>
<path fill="none" stroke="midnightblue" d="M187.7,-373.35C242.15,-364.68 360.34,-345.85 433.97,-334.12"/>
<polygon fill="midnightblue" stroke="midnightblue" points="434.73,-337.54 444.06,-332.51 433.63,-330.63 434.73,-337.54"/>
</g>
<!-- Node23 -->
<g id="node23" class="node">
<title>Node23</title>
<g id="a_node23"><a xlink:href="exception_8hpp.html" target="_top" xlink:title="SignalEasel exceptions.">
<polygon fill="none" stroke="black" points="55,-56.5 55,-75.5 200,-75.5 200,-56.5 55,-56.5"/>
<text text-anchor="middle" x="127.5" y="-63.5" font-family="Helvetica,sans-Serif" font-size="10.00">SignalEasel/exception.hpp</text>
</a>
</g>
</g>
<!-- Node1&#45;&gt;Node23 -->
<g id="edge54" class="edge">
<title>Node1&#45;&gt;Node23</title>
<path fill="none" stroke="midnightblue" d="M158.5,-369.31C158.5,-350.06 158.5,-302.4 158.5,-262.5 158.5,-262.5 158.5,-262.5 158.5,-193.5 158.5,-153.91 144,-109.3 134.83,-85.06"/>
<polygon fill="midnightblue" stroke="midnightblue" points="138.08,-83.75 131.18,-75.71 131.56,-86.3 138.08,-83.75"/>
</g>
<!-- Node6 -->
<g id="node6" class="node">
<title>Node6</title>
<g id="a_node6"><a xlink:title=" ">
<polygon fill="none" stroke="#bfbfbf" points="540.5,-0.5 540.5,-19.5 590.5,-19.5 590.5,-0.5 540.5,-0.5"/>
<text text-anchor="middle" x="565.5" y="-7.5" font-family="Helvetica,sans-Serif" font-size="10.00">cstdint</text>
</a>
</g>
</g>
<!-- Node5&#45;&gt;Node6 -->
<g id="edge5" class="edge">
<title>Node5&#45;&gt;Node6</title>
<path fill="none" stroke="midnightblue" d="M438.39,-316.2C341.51,-304.02 164.52,-269.04 215.5,-179 281.34,-62.72 455.1,-25.79 530.15,-15.04"/>
<polygon fill="midnightblue" stroke="midnightblue" points="531.05,-18.45 540.49,-13.64 530.11,-11.51 531.05,-18.45"/>
</g>
<!-- Node7 -->
<g id="node7" class="node">
<title>Node7</title>
<g id="a_node7"><a xlink:title=" ">
<polygon fill="none" stroke="#bfbfbf" points="1019.5,-0.5 1019.5,-19.5 1063.5,-19.5 1063.5,-0.5 1019.5,-0.5"/>
<text text-anchor="middle" x="1041.5" y="-7.5" font-family="Helvetica,sans-Serif" font-size="10.00">string</text>
</a>
</g>
</g>
<!-- Node5&#45;&gt;Node7 -->
<g id="edge6" class="edge">
<title>Node5&#45;&gt;Node7</title>
<path fill="none" stroke="midnightblue" d="M556.55,-322.04C797.88,-321.45 1696.5,-311.47 1696.5,-195.5 1696.5,-195.5 1696.5,-195.5 1696.5,-126.5 1696.5,-49.6 1612.91,-75.4 1538.5,-56 1367.95,-11.54 1154.61,-9.33 1074.19,-10.29"/>
<polygon fill="midnightblue" stroke="midnightblue" points="1073.69,-6.8 1063.74,-10.44 1073.79,-13.8 1073.69,-6.8"/>
</g>
<!-- Node8 -->
<g id="node8" class="node">
<title>Node8</title>
<g id="a_node8"><a xlink:title=" ">
<polygon fill="none" stroke="#bfbfbf" points="224.5,-185 224.5,-204 346.5,-204 346.5,-185 224.5,-185"/>
<text text-anchor="middle" x="285.5" y="-192" font-family="Helvetica,sans-Serif" font-size="10.00">BoosterSeat/time.hpp</text>
</a>
</g>
</g>
<!-- Node5&#45;&gt;Node8 -->
<g id="edge7" class="edge">
<title>Node5&#45;&gt;Node8</title>
<path fill="none" stroke="midnightblue" d="M438.12,-319C401.8,-314.38 356.35,-303.26 324.5,-277 304.96,-260.89 294.56,-232.7 289.54,-214.06"/>
<polygon fill="midnightblue" stroke="midnightblue" points="292.88,-213.01 287.12,-204.12 286.08,-214.66 292.88,-213.01"/>
</g>
<!-- Node9 -->
<g id="node9" class="node">
<title>Node9</title>
<g id="a_node9"><a xlink:href="afsk_8hpp.html" target="_top" xlink:title="AFSK related modulation/demodulation.">
<polygon fill="none" stroke="black" points="1018.5,-252 1018.5,-271 1136.5,-271 1136.5,-252 1018.5,-252"/>
<text text-anchor="middle" x="1077.5" y="-259" font-family="Helvetica,sans-Serif" font-size="10.00">SignalEasel/afsk.hpp</text>
</a>
</g>
</g>
<!-- Node5&#45;&gt;Node9 -->
<g id="edge8" class="edge">
<title>Node5&#45;&gt;Node9</title>
<path fill="none" stroke="midnightblue" d="M556.57,-315.94C664.48,-304.87 892.92,-281.44 1008.06,-269.62"/>
<polygon fill="midnightblue" stroke="midnightblue" points="1008.58,-273.09 1018.17,-268.59 1007.87,-266.13 1008.58,-273.09"/>
</g>
<!-- Node20 -->
<g id="node20" class="node">
<title>Node20</title>
<g id="a_node20"><a xlink:href="packets_8hpp.html" target="_top" xlink:title=" ">
<polygon fill="none" stroke="black" points="333.5,-252 333.5,-271 491.5,-271 491.5,-252 333.5,-252"/>
<text text-anchor="middle" x="412.5" y="-259" font-family="Helvetica,sans-Serif" font-size="10.00">SignalEasel/aprs/packets.hpp</text>
</a>
</g>
</g>
<!-- Node5&#45;&gt;Node20 -->
<g id="edge31" class="edge">
<title>Node5&#45;&gt;Node20</title>
<path fill="none" stroke="midnightblue" d="M485.32,-313.48C471.69,-303.93 449.37,-288.31 433.03,-276.87"/>
<polygon fill="midnightblue" stroke="midnightblue" points="434.86,-273.88 424.66,-271.01 430.84,-279.61 434.86,-273.88"/>
</g>
<!-- Node25 -->
<g id="node25" class="node">
<title>Node25</title>
<g id="a_node25"><a xlink:href="telemetry__transcoder_8hpp.html" target="_top" xlink:title=" ">
<polygon fill="none" stroke="black" points="509.5,-246.5 509.5,-276.5 657.5,-276.5 657.5,-246.5 509.5,-246.5"/>
<text text-anchor="start" x="517.5" y="-264.5" font-family="Helvetica,sans-Serif" font-size="10.00">SignalEasel/aprs/telemetry</text>
<text text-anchor="middle" x="583.5" y="-253.5" font-family="Helvetica,sans-Serif" font-size="10.00">_transcoder.hpp</text>
</a>
</g>
</g>
<!-- Node5&#45;&gt;Node25 -->
<g id="edge44" class="edge">
<title>Node5&#45;&gt;Node25</title>
<path fill="none" stroke="midnightblue" d="M509.82,-313.48C521.47,-305.42 539.38,-293.02 554.63,-282.47"/>
<polygon fill="midnightblue" stroke="midnightblue" points="557,-285.09 563.23,-276.52 553.02,-279.33 557,-285.09"/>
</g>
<!-- Node26 -->
<g id="node26" class="node">
<title>Node26</title>
<g id="a_node26"><a xlink:href="ax25_8hpp.html" target="_top" xlink:title="AX.25 tools.">
<polygon fill="none" stroke="black" points="748,-252 748,-271 869,-271 869,-252 748,-252"/>
<text text-anchor="middle" x="808.5" y="-259" font-family="Helvetica,sans-Serif" font-size="10.00">SignalEasel/ax25.hpp</text>
</a>
</g>
</g>
<!-- Node5&#45;&gt;Node26 -->
<g id="edge47" class="edge">
<title>Node5&#45;&gt;Node26</title>
<path fill="none" stroke="midnightblue" d="M542.06,-313.48C597.95,-302.78 693.73,-284.46 753.94,-272.94"/>
<polygon fill="midnightblue" stroke="midnightblue" points="754.86,-276.33 764.02,-271.01 753.54,-269.45 754.86,-276.33"/>
</g>
<!-- Node9&#45;&gt;Node4 -->
<g id="edge9" class="edge">
<title>Node9&#45;&gt;Node4</title>
<path fill="none" stroke="midnightblue" d="M1076.52,-251.84C1074.11,-230.67 1067.89,-175.95 1064.61,-147.03"/>
<polygon fill="midnightblue" stroke="midnightblue" points="1068.08,-146.56 1063.47,-137.02 1061.12,-147.35 1068.08,-146.56"/>
</g>
<!-- Node10 -->
<g id="node10" class="node">
<title>Node10</title>
<g id="a_node10"><a xlink:href="constants_8hpp.html" target="_top" xlink:title="Common constants used throughout the library.">
<polygon fill="none" stroke="black" points="1003.5,-56.5 1003.5,-75.5 1147.5,-75.5 1147.5,-56.5 1003.5,-56.5"/>
<text text-anchor="middle" x="1075.5" y="-63.5" font-family="Helvetica,sans-Serif" font-size="10.00">SignalEasel/constants.hpp</text>
</a>
</g>
</g>
<!-- Node9&#45;&gt;Node10 -->
<g id="edge10" class="edge">
<title>Node9&#45;&gt;Node10</title>
<path fill="none" stroke="midnightblue" d="M1080.56,-251.71C1088.18,-228.6 1106.61,-164.33 1095.5,-112 1093.5,-102.59 1089.4,-92.76 1085.43,-84.7"/>
<polygon fill="midnightblue" stroke="midnightblue" points="1088.39,-82.81 1080.63,-75.59 1082.19,-86.07 1088.39,-82.81"/>
</g>
<!-- Node11 -->
<g id="node11" class="node">
<title>Node11</title>
<g id="a_node11"><a xlink:href="bit__stream_8hpp.html" target="_top" xlink:title="The bit stream class.">
<polygon fill="none" stroke="black" points="874,-185 874,-204 1023,-204 1023,-185 874,-185"/>
<text text-anchor="middle" x="948.5" y="-192" font-family="Helvetica,sans-Serif" font-size="10.00">SignalEasel/bit_stream.hpp</text>
</a>
</g>
</g>
<!-- Node9&#45;&gt;Node11 -->
<g id="edge12" class="edge">
<title>Node9&#45;&gt;Node11</title>
<path fill="none" stroke="midnightblue" d="M1060.37,-251.87C1038.49,-240.84 1000.41,-221.66 974.83,-208.77"/>
<polygon fill="midnightblue" stroke="midnightblue" points="976.21,-205.54 965.7,-204.17 973.06,-211.79 976.21,-205.54"/>
</g>
<!-- Node12 -->
<g id="node12" class="node">
<title>Node12</title>
<g id="a_node12"><a xlink:href="demodulator_8hpp.html" target="_top" xlink:title="Base class for demodulators.">
<polygon fill="none" stroke="black" points="1192.5,-185 1192.5,-204 1350.5,-204 1350.5,-185 1192.5,-185"/>
<text text-anchor="middle" x="1271.5" y="-192" font-family="Helvetica,sans-Serif" font-size="10.00">SignalEasel/demodulator.hpp</text>
</a>
</g>
</g>
<!-- Node9&#45;&gt;Node12 -->
<g id="edge15" class="edge">
<title>Node9&#45;&gt;Node12</title>
<path fill="none" stroke="midnightblue" d="M1103.26,-251.87C1137.42,-240.42 1197.84,-220.18 1236.21,-207.32"/>
<polygon fill="midnightblue" stroke="midnightblue" points="1237.57,-210.56 1245.94,-204.06 1235.35,-203.92 1237.57,-210.56"/>
</g>
<!-- Node14 -->
<g id="node14" class="node">
<title>Node14</title>
<g id="a_node14"><a xlink:href="modulator_8hpp.html" target="_top" xlink:title="Modulator base class.">
<polygon fill="none" stroke="black" points="1368.5,-185 1368.5,-204 1514.5,-204 1514.5,-185 1368.5,-185"/>
<text text-anchor="middle" x="1441.5" y="-192" font-family="Helvetica,sans-Serif" font-size="10.00">SignalEasel/modulator.hpp</text>
</a>
</g>
</g>
<!-- Node9&#45;&gt;Node14 -->
<g id="edge20" class="edge">
<title>Node9&#45;&gt;Node14</title>
<path fill="none" stroke="midnightblue" d="M1125.46,-251.94C1191.98,-240.06 1312.09,-218.61 1383.55,-205.85"/>
<polygon fill="midnightblue" stroke="midnightblue" points="1384.49,-209.24 1393.72,-204.03 1383.26,-202.34 1384.49,-209.24"/>
</g>
<!-- Node15 -->
<g id="node15" class="node">
<title>Node15</title>
<g id="a_node15"><a xlink:href="receiver_8hpp.html" target="_top" xlink:title="Base class for receivers. Demodulators that use pulse audio.">
<polygon fill="none" stroke="black" points="1532.5,-185 1532.5,-204 1668.5,-204 1668.5,-185 1532.5,-185"/>
<text text-anchor="middle" x="1600.5" y="-192" font-family="Helvetica,sans-Serif" font-size="10.00">SignalEasel/receiver.hpp</text>
</a>
</g>
</g>
<!-- Node9&#45;&gt;Node15 -->
<g id="edge23" class="edge">
<title>Node9&#45;&gt;Node15</title>
<path fill="none" stroke="midnightblue" d="M1136.84,-255.18C1222.47,-247.18 1385.57,-230.77 1523.5,-210 1531.53,-208.79 1540.01,-207.36 1548.28,-205.87"/>
<polygon fill="midnightblue" stroke="midnightblue" points="1549.03,-209.29 1558.23,-204.04 1547.76,-202.4 1549.03,-209.29"/>
</g>
<!-- Node10&#45;&gt;Node6 -->
<g id="edge11" class="edge">
<title>Node10&#45;&gt;Node6</title>
<path fill="none" stroke="midnightblue" d="M1003.24,-57.35C892.15,-45.59 683.57,-23.5 600.72,-14.73"/>
<polygon fill="midnightblue" stroke="midnightblue" points="600.89,-11.23 590.57,-13.65 600.15,-18.19 600.89,-11.23"/>
</g>
<!-- Node11&#45;&gt;Node4 -->
<g id="edge14" class="edge">
<title>Node11&#45;&gt;Node4</title>
<path fill="none" stroke="midnightblue" d="M963.87,-184.73C983.02,-173.82 1015.94,-155.05 1038.44,-142.22"/>
<polygon fill="midnightblue" stroke="midnightblue" points="1040.42,-145.12 1047.37,-137.13 1036.95,-139.04 1040.42,-145.12"/>
</g>
<!-- Node11&#45;&gt;Node6 -->
<g id="edge13" class="edge">
<title>Node11&#45;&gt;Node6</title>
<path fill="none" stroke="midnightblue" d="M944.49,-184.92C932.43,-160.18 893.9,-88.44 838.5,-56 798.74,-32.72 665.29,-19.06 600.87,-13.68"/>
<polygon fill="midnightblue" stroke="midnightblue" points="601.04,-10.18 590.79,-12.85 600.47,-17.16 601.04,-10.18"/>
</g>
<!-- Node12&#45;&gt;Node4 -->
<g id="edge17" class="edge">
<title>Node12&#45;&gt;Node4</title>
<path fill="none" stroke="midnightblue" d="M1243.75,-184.87C1205.56,-172.99 1136.92,-151.64 1095.95,-138.9"/>
<polygon fill="midnightblue" stroke="midnightblue" points="1096.75,-135.49 1086.16,-135.86 1094.67,-142.17 1096.75,-135.49"/>
</g>
<!-- Node12&#45;&gt;Node7 -->
<g id="edge16" class="edge">
<title>Node12&#45;&gt;Node7</title>
<path fill="none" stroke="midnightblue" d="M1252.46,-184.96C1235.34,-176.45 1210.48,-161.94 1194.5,-143 1167.28,-110.76 1186.91,-85.25 1156.5,-56 1133.69,-34.05 1098.93,-22.45 1073.6,-16.57"/>
<polygon fill="midnightblue" stroke="midnightblue" points="1074.23,-13.12 1063.72,-14.44 1072.76,-19.97 1074.23,-13.12"/>
</g>
<!-- Node13 -->
<g id="node13" class="node">
<title>Node13</title>
<g id="a_node13"><a xlink:href="settings_8hpp.html" target="_top" xlink:title="Settings structures for SignalEasel.">
<polygon fill="none" stroke="black" points="1203.5,-118 1203.5,-137 1339.5,-137 1339.5,-118 1203.5,-118"/>
<text text-anchor="middle" x="1271.5" y="-125" font-family="Helvetica,sans-Serif" font-size="10.00">SignalEasel/settings.hpp</text>
</a>
</g>
</g>
<!-- Node12&#45;&gt;Node13 -->
<g id="edge18" class="edge">
<title>Node12&#45;&gt;Node13</title>
<path fill="none" stroke="midnightblue" d="M1271.5,-184.73C1271.5,-175.18 1271.5,-159.62 1271.5,-147.28"/>
<polygon fill="midnightblue" stroke="midnightblue" points="1275,-147.13 1271.5,-137.13 1268,-147.13 1275,-147.13"/>
</g>
<!-- Node13&#45;&gt;Node7 -->
<g id="edge19" class="edge">
<title>Node13&#45;&gt;Node7</title>
<path fill="none" stroke="midnightblue" d="M1263.76,-117.82C1250.15,-103.05 1220.43,-73 1189.5,-56 1152.29,-35.54 1104.58,-23.19 1073.54,-16.73"/>
<polygon fill="midnightblue" stroke="midnightblue" points="1074.18,-13.29 1063.69,-14.77 1072.81,-20.16 1074.18,-13.29"/>
</g>
<!-- Node14&#45;&gt;Node4 -->
<g id="edge21" class="edge">
<title>Node14&#45;&gt;Node4</title>
<path fill="none" stroke="midnightblue" d="M1393.38,-184.94C1382.26,-182.97 1370.47,-180.9 1359.5,-179 1264.13,-162.46 1151.43,-143.44 1096.3,-134.17"/>
<polygon fill="midnightblue" stroke="midnightblue" points="1096.82,-130.71 1086.38,-132.51 1095.66,-137.61 1096.82,-130.71"/>
</g>
<!-- Node14&#45;&gt;Node13 -->
<g id="edge22" class="edge">
<title>Node14&#45;&gt;Node13</title>
<path fill="none" stroke="midnightblue" d="M1418.93,-184.87C1389.25,-173.52 1336.95,-153.52 1303.28,-140.65"/>
<polygon fill="midnightblue" stroke="midnightblue" points="1304.49,-137.37 1293.9,-137.06 1301.99,-143.9 1304.49,-137.37"/>
</g>
<!-- Node15&#45;&gt;Node13 -->
<g id="edge30" class="edge">
<title>Node15&#45;&gt;Node13</title>
<path fill="none" stroke="midnightblue" d="M1557.15,-184.94C1497.28,-173.11 1389.35,-151.78 1324.68,-139.01"/>
<polygon fill="midnightblue" stroke="midnightblue" points="1325.17,-135.54 1314.68,-137.03 1323.82,-142.4 1325.17,-135.54"/>
</g>
<!-- Node16 -->
<g id="node16" class="node">
<title>Node16</title>
<g id="a_node16"><a xlink:href="pulse__audio_8hpp.html" target="_top" xlink:title="Reads audio from pulse audio.">
<polygon fill="none" stroke="black" points="1358,-118 1358,-137 1513,-137 1513,-118 1358,-118"/>
<text text-anchor="middle" x="1435.5" y="-125" font-family="Helvetica,sans-Serif" font-size="10.00">SignalEasel/pulse_audio.hpp</text>
</a>
</g>
</g>
<!-- Node15&#45;&gt;Node16 -->
<g id="edge24" class="edge">
<title>Node15&#45;&gt;Node16</title>
<path fill="none" stroke="midnightblue" d="M1578.59,-184.87C1549.91,-173.57 1499.46,-153.7 1466.77,-140.82"/>
<polygon fill="midnightblue" stroke="midnightblue" points="1467.83,-137.47 1457.24,-137.06 1465.26,-143.99 1467.83,-137.47"/>
</g>
<!-- Node16&#45;&gt;Node7 -->
<g id="edge26" class="edge">
<title>Node16&#45;&gt;Node7</title>
<path fill="none" stroke="midnightblue" d="M1410.81,-117.96C1370.56,-104.16 1288.19,-76.45 1217.5,-56 1167.45,-41.52 1108.71,-26.99 1073.33,-18.51"/>
<polygon fill="midnightblue" stroke="midnightblue" points="1074.11,-15.09 1063.57,-16.17 1072.48,-21.9 1074.11,-15.09"/>
</g>
<!-- Node16&#45;&gt;Node10 -->
<g id="edge27" class="edge">
<title>Node16&#45;&gt;Node10</title>
<path fill="none" stroke="midnightblue" d="M1384.44,-117.97C1372.64,-116.01 1360.13,-113.93 1348.5,-112 1276.01,-99.98 1192.67,-86.26 1137.33,-77.16"/>
<polygon fill="midnightblue" stroke="midnightblue" points="1137.77,-73.68 1127.33,-75.52 1136.63,-80.59 1137.77,-73.68"/>
</g>
<!-- Node17 -->
<g id="node17" class="node">
<title>Node17</title>
<g id="a_node17"><a xlink:title=" ">
<polygon fill="none" stroke="#bfbfbf" points="787.5,-56.5 787.5,-75.5 829.5,-75.5 829.5,-56.5 787.5,-56.5"/>
<text text-anchor="middle" x="808.5" y="-63.5" font-family="Helvetica,sans-Serif" font-size="10.00">array</text>
</a>
</g>
</g>
<!-- Node16&#45;&gt;Node17 -->
<g id="edge25" class="edge">
<title>Node16&#45;&gt;Node17</title>
<path fill="none" stroke="midnightblue" d="M1388.65,-117.97C1375.67,-115.8 1361.57,-113.63 1348.5,-112 1155.78,-87.95 922.7,-73.42 839.7,-68.7"/>
<polygon fill="midnightblue" stroke="midnightblue" points="839.85,-65.2 829.66,-68.14 839.45,-72.19 839.85,-65.2"/>
</g>
<!-- Node18 -->
<g id="node18" class="node">
<title>Node18</title>
<g id="a_node18"><a xlink:title=" ">
<polygon fill="none" stroke="#bfbfbf" points="1346,-56.5 1346,-75.5 1423,-75.5 1423,-56.5 1346,-56.5"/>
<text text-anchor="middle" x="1384.5" y="-63.5" font-family="Helvetica,sans-Serif" font-size="10.00">pulse/error.h</text>
</a>
</g>
</g>
<!-- Node16&#45;&gt;Node18 -->
<g id="edge28" class="edge">
<title>Node16&#45;&gt;Node18</title>
<path fill="none" stroke="midnightblue" d="M1428.19,-117.98C1420.47,-108.96 1408.09,-94.52 1398.48,-83.31"/>
<polygon fill="midnightblue" stroke="midnightblue" points="1400.96,-80.82 1391.79,-75.51 1395.64,-85.38 1400.96,-80.82"/>
</g>
<!-- Node19 -->
<g id="node19" class="node">
<title>Node19</title>
<g id="a_node19"><a xlink:title=" ">
<polygon fill="none" stroke="#bfbfbf" points="1441.5,-56.5 1441.5,-75.5 1529.5,-75.5 1529.5,-56.5 1441.5,-56.5"/>
<text text-anchor="middle" x="1485.5" y="-63.5" font-family="Helvetica,sans-Serif" font-size="10.00">pulse/simple.h</text>
</a>
</g>
</g>
<!-- Node16&#45;&gt;Node19 -->
<g id="edge29" class="edge">
<title>Node16&#45;&gt;Node19</title>
<path fill="none" stroke="midnightblue" d="M1442.66,-117.98C1450.24,-108.96 1462.37,-94.52 1471.79,-83.31"/>
<polygon fill="midnightblue" stroke="midnightblue" points="1474.6,-85.42 1478.35,-75.51 1469.24,-80.91 1474.6,-85.42"/>
</g>
<!-- Node20&#45;&gt;Node4 -->
<g id="edge34" class="edge">
<title>Node20&#45;&gt;Node4</title>
<path fill="none" stroke="midnightblue" d="M457.41,-251.93C495.63,-243.78 551.47,-229.8 597.5,-210 621.87,-199.52 623.44,-187.69 648.5,-179 783.52,-132.18 956.43,-127.54 1028.55,-127.87"/>
<polygon fill="midnightblue" stroke="midnightblue" points="1028.81,-131.37 1038.84,-127.95 1028.87,-124.37 1028.81,-131.37"/>
</g>
<!-- Node20&#45;&gt;Node6 -->
<g id="edge32" class="edge">
<title>Node20&#45;&gt;Node6</title>
<path fill="none" stroke="midnightblue" d="M407.91,-251.74C395.97,-227.63 366.64,-158.92 393.5,-112 422.9,-60.64 489.71,-32.84 530.87,-20.03"/>
<polygon fill="midnightblue" stroke="midnightblue" points="531.91,-23.38 540.49,-17.17 529.91,-16.67 531.91,-23.38"/>
</g>
<!-- Node20&#45;&gt;Node7 -->
<g id="edge33" class="edge">
<title>Node20&#45;&gt;Node7</title>
<path fill="none" stroke="midnightblue" d="M411.87,-251.8C411.16,-235.3 412.12,-199.27 431.5,-179 472.33,-136.28 503.79,-162.73 559.5,-143 592.34,-131.37 599.21,-125.09 631.5,-112 696.29,-85.73 711.06,-74.43 778.5,-56 860.1,-33.71 959.1,-20.32 1009.16,-14.48"/>
<polygon fill="midnightblue" stroke="midnightblue" points="1009.83,-17.93 1019.36,-13.31 1009.03,-10.97 1009.83,-17.93"/>
</g>
<!-- Node20&#45;&gt;Node8 -->
<g id="edge35" class="edge">
<title>Node20&#45;&gt;Node8</title>
<path fill="none" stroke="midnightblue" d="M395.64,-251.87C374.1,-240.84 336.6,-221.66 311.42,-208.77"/>
<polygon fill="midnightblue" stroke="midnightblue" points="312.93,-205.61 302.43,-204.17 309.74,-211.84 312.93,-205.61"/>
</g>
<!-- Node21 -->
<g id="node21" class="node">
<title>Node21</title>
<g id="a_node21"><a xlink:href="telemetry__data_8hpp.html" target="_top" xlink:title=" ">
<polygon fill="none" stroke="black" points="440.5,-179.5 440.5,-209.5 588.5,-209.5 588.5,-179.5 440.5,-179.5"/>
<text text-anchor="start" x="448.5" y="-197.5" font-family="Helvetica,sans-Serif" font-size="10.00">SignalEasel/aprs/telemetry</text>
<text text-anchor="middle" x="514.5" y="-186.5" font-family="Helvetica,sans-Serif" font-size="10.00">_data.hpp</text>
</a>
</g>
</g>
<!-- Node20&#45;&gt;Node21 -->
<g id="edge36" class="edge">
<title>Node20&#45;&gt;Node21</title>
<path fill="none" stroke="midnightblue" d="M426.26,-251.73C440.97,-242.36 464.77,-227.19 483.95,-214.97"/>
<polygon fill="midnightblue" stroke="midnightblue" points="485.84,-217.91 492.39,-209.59 482.08,-212.01 485.84,-217.91"/>
</g>
<!-- Node21&#45;&gt;Node17 -->
<g id="edge37" class="edge">
<title>Node21&#45;&gt;Node17</title>
<path fill="none" stroke="midnightblue" d="M547.09,-179.48C604.77,-154.66 723.97,-103.37 779.21,-79.6"/>
<polygon fill="midnightblue" stroke="midnightblue" points="780.64,-82.8 788.44,-75.63 777.87,-76.37 780.64,-82.8"/>
</g>
<!-- Node22 -->
<g id="node22" class="node">
<title>Node22</title>
<g id="a_node22"><a xlink:href="telemetry__parameter_8hpp.html" target="_top" xlink:title=" ">
<polygon fill="none" stroke="black" points="402.5,-112.5 402.5,-142.5 550.5,-142.5 550.5,-112.5 402.5,-112.5"/>
<text text-anchor="start" x="410.5" y="-130.5" font-family="Helvetica,sans-Serif" font-size="10.00">SignalEasel/aprs/telemetry</text>
<text text-anchor="middle" x="476.5" y="-119.5" font-family="Helvetica,sans-Serif" font-size="10.00">_parameter.hpp</text>
</a>
</g>
</g>
<!-- Node21&#45;&gt;Node22 -->
<g id="edge38" class="edge">
<title>Node21&#45;&gt;Node22</title>
<path fill="none" stroke="midnightblue" d="M506.25,-179.4C501.47,-171.22 495.34,-160.73 489.88,-151.39"/>
<polygon fill="midnightblue" stroke="midnightblue" points="492.8,-149.44 484.73,-142.58 486.75,-152.98 492.8,-149.44"/>
</g>
<!-- Node22&#45;&gt;Node6 -->
<g id="edge39" class="edge">
<title>Node22&#45;&gt;Node6</title>
<path fill="none" stroke="midnightblue" d="M487.41,-112.34C503.89,-90.96 535.04,-50.53 552.61,-27.73"/>
<polygon fill="midnightblue" stroke="midnightblue" points="555.49,-29.73 558.82,-19.67 549.94,-25.45 555.49,-29.73"/>
</g>
<!-- Node22&#45;&gt;Node7 -->
<g id="edge40" class="edge">
<title>Node22&#45;&gt;Node7</title>
<path fill="none" stroke="midnightblue" d="M507.22,-112.44C544.04,-96.21 607.98,-69.96 665.5,-56 790.17,-25.75 943.25,-15.47 1008.99,-12.29"/>
<polygon fill="midnightblue" stroke="midnightblue" points="1009.31,-15.78 1019.13,-11.82 1008.98,-8.79 1009.31,-15.78"/>
</g>
<!-- Node22&#45;&gt;Node23 -->
<g id="edge41" class="edge">
<title>Node22&#45;&gt;Node23</title>
<path fill="none" stroke="midnightblue" d="M402.49,-113.88C338.46,-102.97 247.05,-87.38 187.5,-77.23"/>
<polygon fill="midnightblue" stroke="midnightblue" points="187.94,-73.75 177.5,-75.52 186.77,-80.65 187.94,-73.75"/>
</g>
<!-- Node23&#45;&gt;Node7 -->
<g id="edge43" class="edge">
<title>Node23&#45;&gt;Node7</title>
<path fill="none" stroke="midnightblue" d="M200.37,-60.69C387.33,-49.65 878.5,-20.63 1009.18,-12.91"/>
<polygon fill="midnightblue" stroke="midnightblue" points="1009.55,-16.39 1019.33,-12.31 1009.14,-9.41 1009.55,-16.39"/>
</g>
<!-- Node24 -->
<g id="node24" class="node">
<title>Node24</title>
<g id="a_node24"><a xlink:title=" ">
<polygon fill="none" stroke="#bfbfbf" points="95,-0.5 95,-19.5 160,-19.5 160,-0.5 95,-0.5"/>
<text text-anchor="middle" x="127.5" y="-7.5" font-family="Helvetica,sans-Serif" font-size="10.00">exception</text>
</a>
</g>
</g>
<!-- Node23&#45;&gt;Node24 -->
<g id="edge42" class="edge">
<title>Node23&#45;&gt;Node24</title>
<path fill="none" stroke="midnightblue" d="M127.5,-56.08C127.5,-49.01 127.5,-38.86 127.5,-29.99"/>
<polygon fill="midnightblue" stroke="midnightblue" points="131,-29.75 127.5,-19.75 124,-29.75 131,-29.75"/>
</g>
<!-- Node25&#45;&gt;Node4 -->
<g id="edge45" class="edge">
<title>Node25&#45;&gt;Node4</title>
<path fill="none" stroke="midnightblue" d="M600.45,-246.32C623.83,-227.59 668.02,-195.11 711.5,-179 822.28,-137.94 964.21,-130.06 1028.34,-128.69"/>
<polygon fill="midnightblue" stroke="midnightblue" points="1028.73,-132.18 1038.66,-128.51 1028.61,-125.19 1028.73,-132.18"/>
</g>
<!-- Node25&#45;&gt;Node21 -->
<g id="edge46" class="edge">
<title>Node25&#45;&gt;Node21</title>
<path fill="none" stroke="midnightblue" d="M568.53,-246.4C559.31,-237.71 547.31,-226.4 536.96,-216.66"/>
<polygon fill="midnightblue" stroke="midnightblue" points="539.12,-213.89 529.44,-209.58 534.32,-218.98 539.12,-213.89"/>
</g>
<!-- Node26&#45;&gt;Node4 -->
<g id="edge52" class="edge">
<title>Node26&#45;&gt;Node4</title>
<path fill="none" stroke="midnightblue" d="M869.26,-253.39C927.02,-245.5 1008.52,-231.03 1032.5,-210 1050.8,-193.95 1057.95,-165.74 1060.73,-147.08"/>
<polygon fill="midnightblue" stroke="midnightblue" points="1064.21,-147.48 1061.94,-137.13 1057.26,-146.64 1064.21,-147.48"/>
</g>
<!-- Node26&#45;&gt;Node6 -->
<g id="edge48" class="edge">
<title>Node26&#45;&gt;Node6</title>
<path fill="none" stroke="midnightblue" d="M785.14,-251.9C764.29,-243.44 733.69,-229.03 711.5,-210 647.28,-154.92 595.28,-66.43 574.84,-28.83"/>
<polygon fill="midnightblue" stroke="midnightblue" points="577.73,-26.81 569.93,-19.64 571.56,-30.11 577.73,-26.81"/>
</g>
<!-- Node26&#45;&gt;Node7 -->
<g id="edge51" class="edge">
<title>Node26&#45;&gt;Node7</title>
<path fill="none" stroke="midnightblue" d="M813.95,-251.52C823.53,-236.04 844.35,-203.63 865.5,-179 917.79,-118.1 989.42,-55.05 1022.87,-26.59"/>
<polygon fill="midnightblue" stroke="midnightblue" points="1025.51,-28.95 1030.88,-19.82 1020.99,-23.6 1025.51,-28.95"/>
</g>
<!-- Node26&#45;&gt;Node11 -->
<g id="edge53" class="edge">
<title>Node26&#45;&gt;Node11</title>
<path fill="none" stroke="midnightblue" d="M827.09,-251.87C851.04,-240.75 892.89,-221.32 920.65,-208.43"/>
<polygon fill="midnightblue" stroke="midnightblue" points="922.24,-211.55 929.83,-204.17 919.29,-205.2 922.24,-211.55"/>
</g>
<!-- Node26&#45;&gt;Node17 -->
<g id="edge49" class="edge">
<title>Node26&#45;&gt;Node17</title>
<path fill="none" stroke="midnightblue" d="M808.5,-251.94C808.5,-222.79 808.5,-126.97 808.5,-85.93"/>
<polygon fill="midnightblue" stroke="midnightblue" points="812,-85.91 808.5,-75.91 805,-85.91 812,-85.91"/>
</g>
<!-- Node27 -->
<g id="node27" class="node">
<title>Node27</title>
<g id="a_node27"><a xlink:title=" ">
<polygon fill="none" stroke="#bfbfbf" points="720.5,-185 720.5,-204 780.5,-204 780.5,-185 720.5,-185"/>
<text text-anchor="middle" x="750.5" y="-192" font-family="Helvetica,sans-Serif" font-size="10.00">iostream</text>
</a>
</g>
</g>
<!-- Node26&#45;&gt;Node27 -->
<g id="edge50" class="edge">
<title>Node26&#45;&gt;Node27</title>
<path fill="none" stroke="midnightblue" d="M800.68,-251.73C791.55,-241.5 776.26,-224.36 764.95,-211.69"/>
<polygon fill="midnightblue" stroke="midnightblue" points="767.47,-209.26 758.2,-204.13 762.24,-213.92 767.47,-209.26"/>
</g>
</g>
</svg>
