<?xml version="1.0" encoding="UTF-8" standalone="no"?>
<!DOCTYPE svg PUBLIC "-//W3C//DTD SVG 1.1//EN"
 "http://www.w3.org/Graphics/SVG/1.1/DTD/svg11.dtd">
<!-- Generated by graphviz version 2.43.0 (0)
 -->
<!-- Title: aprs_encoders.cpp Pages: 1 -->
<svg width="1508pt" height="397pt"
 viewBox="0.00 0.00 1508.00 397.00" xmlns="http://www.w3.org/2000/svg" xmlns:xlink="http://www.w3.org/1999/xlink">
<g id="graph0" class="graph" transform="scale(1 1) rotate(0) translate(4 393)">
<title>aprs_encoders.cpp</title>
<!-- Node1 -->
<g id="node1" class="node">
<title>Node1</title>
<g id="a_node1"><a xlink:title="Encoding functions for APRS packets.">
<polygon fill="#bfbfbf" stroke="black" points="1106.5,-369.5 1106.5,-388.5 1213.5,-388.5 1213.5,-369.5 1106.5,-369.5"/>
<text text-anchor="middle" x="1160" y="-376.5" font-family="Helvetica,sans-Serif" font-size="10.00">aprs_encoders.cpp</text>
</a>
</g>
</g>
<!-- Node2 -->
<g id="node2" class="node">
<title>Node2</title>
<g id="a_node2"><a xlink:title=" ">
<polygon fill="none" stroke="#bfbfbf" points="1035.5,-313.5 1035.5,-332.5 1082.5,-332.5 1082.5,-313.5 1035.5,-313.5"/>
<text text-anchor="middle" x="1059" y="-320.5" font-family="Helvetica,sans-Serif" font-size="10.00">cmath</text>
</a>
</g>
</g>
<!-- Node1&#45;&gt;Node2 -->
<g id="edge1" class="edge">
<title>Node1&#45;&gt;Node2</title>
<path fill="none" stroke="midnightblue" d="M1143.77,-369.32C1127.65,-360.7 1102.7,-347.36 1084.04,-337.39"/>
<polygon fill="midnightblue" stroke="midnightblue" points="1085.66,-334.28 1075.19,-332.65 1082.36,-340.46 1085.66,-334.28"/>
</g>
<!-- Node3 -->
<g id="node3" class="node">
<title>Node3</title>
<g id="a_node3"><a xlink:href="aprs_8hpp.html" target="_top" xlink:title=" ">
<polygon fill="none" stroke="black" points="1101,-313.5 1101,-332.5 1219,-332.5 1219,-313.5 1101,-313.5"/>
<text text-anchor="middle" x="1160" y="-320.5" font-family="Helvetica,sans-Serif" font-size="10.00">SignalEasel/aprs.hpp</text>
</a>
</g>
</g>
<!-- Node1&#45;&gt;Node3 -->
<g id="edge2" class="edge">
<title>Node1&#45;&gt;Node3</title>
<path fill="none" stroke="midnightblue" d="M1160,-369.08C1160,-362.01 1160,-351.86 1160,-342.99"/>
<polygon fill="midnightblue" stroke="midnightblue" points="1163.5,-342.75 1160,-332.75 1156.5,-342.75 1163.5,-342.75"/>
</g>
<!-- Node22 -->
<g id="node22" class="node">
<title>Node22</title>
<g id="a_node22"><a xlink:href="exception_8hpp.html" target="_top" xlink:title="SignalEasel exceptions.">
<polygon fill="none" stroke="black" points="1312.5,-56.5 1312.5,-75.5 1457.5,-75.5 1457.5,-56.5 1312.5,-56.5"/>
<text text-anchor="middle" x="1385" y="-63.5" font-family="Helvetica,sans-Serif" font-size="10.00">SignalEasel/exception.hpp</text>
</a>
</g>
</g>
<!-- Node1&#45;&gt;Node22 -->
<g id="edge53" class="edge">
<title>Node1&#45;&gt;Node22</title>
<path fill="none" stroke="midnightblue" d="M1210.21,-369.5C1296.08,-353.52 1462,-315.76 1462,-262.5 1462,-262.5 1462,-262.5 1462,-193.5 1462,-147.96 1425.14,-104.88 1402.43,-82.66"/>
<polygon fill="midnightblue" stroke="midnightblue" points="1404.74,-80.03 1395.07,-75.7 1399.93,-85.11 1404.74,-80.03"/>
</g>
<!-- Node4 -->
<g id="node4" class="node">
<title>Node4</title>
<g id="a_node4"><a xlink:title=" ">
<polygon fill="none" stroke="#bfbfbf" points="739,-0.5 739,-19.5 789,-19.5 789,-0.5 739,-0.5"/>
<text text-anchor="middle" x="764" y="-7.5" font-family="Helvetica,sans-Serif" font-size="10.00">cstdint</text>
</a>
</g>
</g>
<!-- Node3&#45;&gt;Node4 -->
<g id="edge3" class="edge">
<title>Node3&#45;&gt;Node4</title>
<path fill="none" stroke="midnightblue" d="M1100.69,-313.87C1097.76,-313.55 1094.85,-313.26 1092,-313 783.11,-284.63 703.02,-313.61 395,-277 217,-255.84 0,-374.75 0,-195.5 0,-195.5 0,-195.5 0,-126.5 0,-51.83 577.94,-19.68 728.49,-12.57"/>
<polygon fill="midnightblue" stroke="midnightblue" points="728.75,-16.06 738.58,-12.1 728.43,-9.07 728.75,-16.06"/>
</g>
<!-- Node5 -->
<g id="node5" class="node">
<title>Node5</title>
<g id="a_node5"><a xlink:title=" ">
<polygon fill="none" stroke="#bfbfbf" points="1095,-0.5 1095,-19.5 1139,-19.5 1139,-0.5 1095,-0.5"/>
<text text-anchor="middle" x="1117" y="-7.5" font-family="Helvetica,sans-Serif" font-size="10.00">string</text>
</a>
</g>
</g>
<!-- Node3&#45;&gt;Node5 -->
<g id="edge4" class="edge">
<title>Node3&#45;&gt;Node5</title>
<path fill="none" stroke="midnightblue" d="M1213.87,-313.44C1309.74,-296.67 1500,-255.8 1500,-195.5 1500,-195.5 1500,-195.5 1500,-126.5 1500,-91.9 1494.95,-76.39 1467,-56 1416.78,-19.35 1226.21,-12.53 1149.39,-11.28"/>
<polygon fill="midnightblue" stroke="midnightblue" points="1149.38,-7.77 1139.33,-11.13 1149.28,-14.77 1149.38,-7.77"/>
</g>
<!-- Node6 -->
<g id="node6" class="node">
<title>Node6</title>
<g id="a_node6"><a xlink:title=" ">
<polygon fill="none" stroke="#bfbfbf" points="1312,-185 1312,-204 1434,-204 1434,-185 1312,-185"/>
<text text-anchor="middle" x="1373" y="-192" font-family="Helvetica,sans-Serif" font-size="10.00">BoosterSeat/time.hpp</text>
</a>
</g>
</g>
<!-- Node3&#45;&gt;Node6 -->
<g id="edge5" class="edge">
<title>Node3&#45;&gt;Node6</title>
<path fill="none" stroke="midnightblue" d="M1219.31,-319.14C1255.9,-314.58 1301.84,-303.48 1334,-277 1353.55,-260.91 1363.95,-232.71 1368.97,-214.07"/>
<polygon fill="midnightblue" stroke="midnightblue" points="1372.42,-214.67 1371.38,-204.12 1365.62,-213.02 1372.42,-214.67"/>
</g>
<!-- Node7 -->
<g id="node7" class="node">
<title>Node7</title>
<g id="a_node7"><a xlink:href="afsk_8hpp.html" target="_top" xlink:title="AFSK related modulation/demodulation.">
<polygon fill="none" stroke="black" points="404,-252 404,-271 522,-271 522,-252 404,-252"/>
<text text-anchor="middle" x="463" y="-259" font-family="Helvetica,sans-Serif" font-size="10.00">SignalEasel/afsk.hpp</text>
</a>
</g>
</g>
<!-- Node3&#45;&gt;Node7 -->
<g id="edge6" class="edge">
<title>Node3&#45;&gt;Node7</title>
<path fill="none" stroke="midnightblue" d="M1100.68,-313.97C1097.75,-313.63 1094.84,-313.3 1092,-313 888.96,-291.43 648.17,-274.5 532.22,-266.89"/>
<polygon fill="midnightblue" stroke="midnightblue" points="532.27,-263.38 522.06,-266.22 531.81,-270.37 532.27,-263.38"/>
</g>
<!-- Node19 -->
<g id="node19" class="node">
<title>Node19</title>
<g id="a_node19"><a xlink:href="packets_8hpp.html" target="_top" xlink:title=" ">
<polygon fill="none" stroke="black" points="1167,-252 1167,-271 1325,-271 1325,-252 1167,-252"/>
<text text-anchor="middle" x="1246" y="-259" font-family="Helvetica,sans-Serif" font-size="10.00">SignalEasel/aprs/packets.hpp</text>
</a>
</g>
</g>
<!-- Node3&#45;&gt;Node19 -->
<g id="edge30" class="edge">
<title>Node3&#45;&gt;Node19</title>
<path fill="none" stroke="midnightblue" d="M1172.32,-313.48C1186.12,-303.93 1208.7,-288.31 1225.23,-276.87"/>
<polygon fill="midnightblue" stroke="midnightblue" points="1227.47,-279.58 1233.7,-271.01 1223.49,-273.82 1227.47,-279.58"/>
</g>
<!-- Node24 -->
<g id="node24" class="node">
<title>Node24</title>
<g id="a_node24"><a xlink:href="telemetry__transcoder_8hpp.html" target="_top" xlink:title=" ">
<polygon fill="none" stroke="black" points="1001,-246.5 1001,-276.5 1149,-276.5 1149,-246.5 1001,-246.5"/>
<text text-anchor="start" x="1009" y="-264.5" font-family="Helvetica,sans-Serif" font-size="10.00">SignalEasel/aprs/telemetry</text>
<text text-anchor="middle" x="1075" y="-253.5" font-family="Helvetica,sans-Serif" font-size="10.00">_transcoder.hpp</text>
</a>
</g>
</g>
<!-- Node3&#45;&gt;Node24 -->
<g id="edge43" class="edge">
<title>Node3&#45;&gt;Node24</title>
<path fill="none" stroke="midnightblue" d="M1147.82,-313.48C1136.31,-305.42 1118.6,-293.02 1103.53,-282.47"/>
<polygon fill="midnightblue" stroke="midnightblue" points="1105.23,-279.39 1095.03,-276.52 1101.22,-285.12 1105.23,-279.39"/>
</g>
<!-- Node25 -->
<g id="node25" class="node">
<title>Node25</title>
<g id="a_node25"><a xlink:href="ax25_8hpp.html" target="_top" xlink:title="AX.25 tools.">
<polygon fill="none" stroke="black" points="789.5,-252 789.5,-271 910.5,-271 910.5,-252 789.5,-252"/>
<text text-anchor="middle" x="850" y="-259" font-family="Helvetica,sans-Serif" font-size="10.00">SignalEasel/ax25.hpp</text>
</a>
</g>
</g>
<!-- Node3&#45;&gt;Node25 -->
<g id="edge46" class="edge">
<title>Node3&#45;&gt;Node25</title>
<path fill="none" stroke="midnightblue" d="M1115.58,-313.48C1059.88,-302.78 964.4,-284.46 904.38,-272.94"/>
<polygon fill="midnightblue" stroke="midnightblue" points="904.81,-269.46 894.33,-271.01 903.49,-276.33 904.81,-269.46"/>
</g>
<!-- Node8 -->
<g id="node8" class="node">
<title>Node8</title>
<g id="a_node8"><a xlink:title=" ">
<polygon fill="none" stroke="#bfbfbf" points="688.5,-118 688.5,-137 735.5,-137 735.5,-118 688.5,-118"/>
<text text-anchor="middle" x="712" y="-125" font-family="Helvetica,sans-Serif" font-size="10.00">vector</text>
</a>
</g>
</g>
<!-- Node7&#45;&gt;Node8 -->
<g id="edge7" class="edge">
<title>Node7&#45;&gt;Node8</title>
<path fill="none" stroke="midnightblue" d="M480.08,-251.85C498.22,-242.41 527.45,-226.43 551,-210 568.59,-197.72 569.62,-190.07 588,-179 596.31,-173.99 646.56,-154.03 680.48,-140.75"/>
<polygon fill="midnightblue" stroke="midnightblue" points="681.95,-143.93 690,-137.03 679.41,-137.41 681.95,-143.93"/>
</g>
<!-- Node9 -->
<g id="node9" class="node">
<title>Node9</title>
<g id="a_node9"><a xlink:href="constants_8hpp.html" target="_top" xlink:title="Common constants used throughout the library.">
<polygon fill="none" stroke="black" points="321,-56.5 321,-75.5 465,-75.5 465,-56.5 321,-56.5"/>
<text text-anchor="middle" x="393" y="-63.5" font-family="Helvetica,sans-Serif" font-size="10.00">SignalEasel/constants.hpp</text>
</a>
</g>
</g>
<!-- Node7&#45;&gt;Node9 -->
<g id="edge8" class="edge">
<title>Node7&#45;&gt;Node9</title>
<path fill="none" stroke="midnightblue" d="M403.79,-257.4C296.66,-251.18 79.57,-235.55 57,-210 -20.36,-122.42 187.86,-86.83 310.53,-73.76"/>
<polygon fill="midnightblue" stroke="midnightblue" points="311.07,-77.22 320.66,-72.71 310.35,-70.26 311.07,-77.22"/>
</g>
<!-- Node10 -->
<g id="node10" class="node">
<title>Node10</title>
<g id="a_node10"><a xlink:href="bit__stream_8hpp.html" target="_top" xlink:title="The bit stream class.">
<polygon fill="none" stroke="black" points="597.5,-185 597.5,-204 746.5,-204 746.5,-185 597.5,-185"/>
<text text-anchor="middle" x="672" y="-192" font-family="Helvetica,sans-Serif" font-size="10.00">SignalEasel/bit_stream.hpp</text>
</a>
</g>
</g>
<!-- Node7&#45;&gt;Node10 -->
<g id="edge10" class="edge">
<title>Node7&#45;&gt;Node10</title>
<path fill="none" stroke="midnightblue" d="M490.75,-251.87C527.79,-240.35 593.47,-219.92 634.78,-207.08"/>
<polygon fill="midnightblue" stroke="midnightblue" points="635.96,-210.38 644.46,-204.06 633.88,-203.69 635.96,-210.38"/>
</g>
<!-- Node11 -->
<g id="node11" class="node">
<title>Node11</title>
<g id="a_node11"><a xlink:href="demodulator_8hpp.html" target="_top" xlink:title="Base class for demodulators.">
<polygon fill="none" stroke="black" points="384,-185 384,-204 542,-204 542,-185 384,-185"/>
<text text-anchor="middle" x="463" y="-192" font-family="Helvetica,sans-Serif" font-size="10.00">SignalEasel/demodulator.hpp</text>
</a>
</g>
</g>
<!-- Node7&#45;&gt;Node11 -->
<g id="edge13" class="edge">
<title>Node7&#45;&gt;Node11</title>
<path fill="none" stroke="midnightblue" d="M463,-251.73C463,-242.18 463,-226.62 463,-214.28"/>
<polygon fill="midnightblue" stroke="midnightblue" points="466.5,-214.13 463,-204.13 459.5,-214.13 466.5,-214.13"/>
</g>
<!-- Node13 -->
<g id="node13" class="node">
<title>Node13</title>
<g id="a_node13"><a xlink:href="modulator_8hpp.html" target="_top" xlink:title="Modulator base class.">
<polygon fill="none" stroke="black" points="220,-185 220,-204 366,-204 366,-185 220,-185"/>
<text text-anchor="middle" x="293" y="-192" font-family="Helvetica,sans-Serif" font-size="10.00">SignalEasel/modulator.hpp</text>
</a>
</g>
</g>
<!-- Node7&#45;&gt;Node13 -->
<g id="edge18" class="edge">
<title>Node7&#45;&gt;Node13</title>
<path fill="none" stroke="midnightblue" d="M440.43,-251.87C410.75,-240.52 358.45,-220.52 324.78,-207.65"/>
<polygon fill="midnightblue" stroke="midnightblue" points="325.99,-204.37 315.4,-204.06 323.49,-210.9 325.99,-204.37"/>
</g>
<!-- Node14 -->
<g id="node14" class="node">
<title>Node14</title>
<g id="a_node14"><a xlink:href="receiver_8hpp.html" target="_top" xlink:title="Base class for receivers. Demodulators that use pulse audio.">
<polygon fill="none" stroke="black" points="66,-185 66,-204 202,-204 202,-185 66,-185"/>
<text text-anchor="middle" x="134" y="-192" font-family="Helvetica,sans-Serif" font-size="10.00">SignalEasel/receiver.hpp</text>
</a>
</g>
</g>
<!-- Node7&#45;&gt;Node14 -->
<g id="edge22" class="edge">
<title>Node7&#45;&gt;Node14</title>
<path fill="none" stroke="midnightblue" d="M419.65,-251.94C359.78,-240.11 251.85,-218.78 187.18,-206.01"/>
<polygon fill="midnightblue" stroke="midnightblue" points="187.67,-202.54 177.18,-204.03 186.32,-209.4 187.67,-202.54"/>
</g>
<!-- Node9&#45;&gt;Node4 -->
<g id="edge9" class="edge">
<title>Node9&#45;&gt;Node4</title>
<path fill="none" stroke="midnightblue" d="M451.79,-56.44C529.78,-45.09 665.04,-25.4 728.81,-16.12"/>
<polygon fill="midnightblue" stroke="midnightblue" points="729.38,-19.58 738.77,-14.67 728.37,-12.65 729.38,-19.58"/>
</g>
<!-- Node10&#45;&gt;Node4 -->
<g id="edge11" class="edge">
<title>Node10&#45;&gt;Node4</title>
<path fill="none" stroke="midnightblue" d="M692.27,-184.87C708.99,-176.65 731.86,-162.6 744,-143 765.9,-107.66 766.93,-57.04 765.58,-29.9"/>
<polygon fill="midnightblue" stroke="midnightblue" points="769.07,-29.57 764.91,-19.82 762.08,-30.03 769.07,-29.57"/>
</g>
<!-- Node10&#45;&gt;Node8 -->
<g id="edge12" class="edge">
<title>Node10&#45;&gt;Node8</title>
<path fill="none" stroke="midnightblue" d="M677.39,-184.73C683.51,-174.79 693.64,-158.34 701.36,-145.79"/>
<polygon fill="midnightblue" stroke="midnightblue" points="704.43,-147.48 706.69,-137.13 698.47,-143.81 704.43,-147.48"/>
</g>
<!-- Node11&#45;&gt;Node5 -->
<g id="edge14" class="edge">
<title>Node11&#45;&gt;Node5</title>
<path fill="none" stroke="midnightblue" d="M513,-185C549.85,-177.4 600.41,-164.15 641,-143 660.33,-132.93 659.15,-121 679,-112 766.43,-72.34 800.32,-104.5 892,-76 912.13,-69.74 915.12,-63.01 935,-56 986.13,-37.98 1047.77,-24.36 1084.6,-17.04"/>
<polygon fill="midnightblue" stroke="midnightblue" points="1085.6,-20.41 1094.75,-15.06 1084.26,-13.54 1085.6,-20.41"/>
</g>
<!-- Node11&#45;&gt;Node8 -->
<g id="edge15" class="edge">
<title>Node11&#45;&gt;Node8</title>
<path fill="none" stroke="midnightblue" d="M505.87,-184.94C548.82,-175.98 616.6,-160.74 674,-143 676.42,-142.25 678.91,-141.43 681.4,-140.57"/>
<polygon fill="midnightblue" stroke="midnightblue" points="682.67,-143.83 690.87,-137.12 680.27,-137.25 682.67,-143.83"/>
</g>
<!-- Node12 -->
<g id="node12" class="node">
<title>Node12</title>
<g id="a_node12"><a xlink:href="settings_8hpp.html" target="_top" xlink:title="Settings structures for SignalEasel.">
<polygon fill="none" stroke="black" points="496,-118 496,-137 632,-137 632,-118 496,-118"/>
<text text-anchor="middle" x="564" y="-125" font-family="Helvetica,sans-Serif" font-size="10.00">SignalEasel/settings.hpp</text>
</a>
</g>
</g>
<!-- Node11&#45;&gt;Node12 -->
<g id="edge16" class="edge">
<title>Node11&#45;&gt;Node12</title>
<path fill="none" stroke="midnightblue" d="M476.62,-184.73C493.43,-173.92 522.23,-155.38 542.14,-142.57"/>
<polygon fill="midnightblue" stroke="midnightblue" points="544.08,-145.48 550.59,-137.13 540.29,-139.6 544.08,-145.48"/>
</g>
<!-- Node12&#45;&gt;Node5 -->
<g id="edge17" class="edge">
<title>Node12&#45;&gt;Node5</title>
<path fill="none" stroke="midnightblue" d="M612.12,-117.96C623.25,-115.99 635.03,-113.92 646,-112 738.42,-95.83 763.92,-102.21 854,-76 876.19,-69.54 879.92,-62.84 902,-56 965.63,-36.28 1042.54,-22.52 1084.97,-15.77"/>
<polygon fill="midnightblue" stroke="midnightblue" points="1085.65,-19.2 1094.99,-14.2 1084.57,-12.29 1085.65,-19.2"/>
</g>
<!-- Node13&#45;&gt;Node4 -->
<g id="edge19" class="edge">
<title>Node13&#45;&gt;Node4</title>
<path fill="none" stroke="midnightblue" d="M291.02,-184.83C286.01,-160.47 275.71,-90.93 312,-56 341.87,-27.25 627.71,-15.37 728.8,-12.04"/>
<polygon fill="midnightblue" stroke="midnightblue" points="728.93,-15.54 738.81,-11.72 728.71,-8.54 728.93,-15.54"/>
</g>
<!-- Node13&#45;&gt;Node8 -->
<g id="edge20" class="edge">
<title>Node13&#45;&gt;Node8</title>
<path fill="none" stroke="midnightblue" d="M339.35,-184.97C350.97,-182.92 363.43,-180.81 375,-179 492.87,-160.61 523.38,-162.95 641,-143 653.28,-140.92 666.68,-138.28 678.5,-135.82"/>
<polygon fill="midnightblue" stroke="midnightblue" points="679.35,-139.22 688.41,-133.73 677.9,-132.37 679.35,-139.22"/>
</g>
<!-- Node13&#45;&gt;Node12 -->
<g id="edge21" class="edge">
<title>Node13&#45;&gt;Node12</title>
<path fill="none" stroke="midnightblue" d="M328.71,-184.94C377.45,-173.24 464.86,-152.28 518.32,-139.46"/>
<polygon fill="midnightblue" stroke="midnightblue" points="519.31,-142.82 528.21,-137.08 517.67,-136.01 519.31,-142.82"/>
</g>
<!-- Node14&#45;&gt;Node12 -->
<g id="edge29" class="edge">
<title>Node14&#45;&gt;Node12</title>
<path fill="none" stroke="midnightblue" d="M177.09,-184.94C188.13,-182.88 199.98,-180.76 211,-179 332.73,-159.59 364.25,-162.27 486,-143 493.93,-141.74 502.29,-140.31 510.48,-138.84"/>
<polygon fill="midnightblue" stroke="midnightblue" points="511.13,-142.28 520.34,-137.04 509.88,-135.39 511.13,-142.28"/>
</g>
<!-- Node15 -->
<g id="node15" class="node">
<title>Node15</title>
<g id="a_node15"><a xlink:href="pulse__audio_8hpp.html" target="_top" xlink:title="Reads audio from pulse audio.">
<polygon fill="none" stroke="black" points="322.5,-118 322.5,-137 477.5,-137 477.5,-118 322.5,-118"/>
<text text-anchor="middle" x="400" y="-125" font-family="Helvetica,sans-Serif" font-size="10.00">SignalEasel/pulse_audio.hpp</text>
</a>
</g>
</g>
<!-- Node14&#45;&gt;Node15 -->
<g id="edge23" class="edge">
<title>Node14&#45;&gt;Node15</title>
<path fill="none" stroke="midnightblue" d="M169.05,-184.94C216.79,-173.27 302.33,-152.37 354.83,-139.54"/>
<polygon fill="midnightblue" stroke="midnightblue" points="355.99,-142.86 364.87,-137.08 354.33,-136.06 355.99,-142.86"/>
</g>
<!-- Node15&#45;&gt;Node5 -->
<g id="edge25" class="edge">
<title>Node15&#45;&gt;Node5</title>
<path fill="none" stroke="midnightblue" d="M451.06,-117.94C462.86,-115.97 475.36,-113.9 487,-112 715.98,-74.56 992.01,-30.77 1084.81,-16.09"/>
<polygon fill="midnightblue" stroke="midnightblue" points="1085.62,-19.5 1094.95,-14.48 1084.53,-12.59 1085.62,-19.5"/>
</g>
<!-- Node15&#45;&gt;Node9 -->
<g id="edge26" class="edge">
<title>Node15&#45;&gt;Node9</title>
<path fill="none" stroke="midnightblue" d="M399,-117.98C398.01,-109.58 396.47,-96.48 395.2,-85.66"/>
<polygon fill="midnightblue" stroke="midnightblue" points="398.65,-85.03 394,-75.51 391.69,-85.85 398.65,-85.03"/>
</g>
<!-- Node16 -->
<g id="node16" class="node">
<title>Node16</title>
<g id="a_node16"><a xlink:title=" ">
<polygon fill="none" stroke="#bfbfbf" points="944,-56.5 944,-75.5 986,-75.5 986,-56.5 944,-56.5"/>
<text text-anchor="middle" x="965" y="-63.5" font-family="Helvetica,sans-Serif" font-size="10.00">array</text>
</a>
</g>
</g>
<!-- Node15&#45;&gt;Node16 -->
<g id="edge24" class="edge">
<title>Node15&#45;&gt;Node16</title>
<path fill="none" stroke="midnightblue" d="M447.32,-117.98C460.17,-115.84 474.09,-113.68 487,-112 574.16,-100.65 842.12,-77.46 933.84,-69.64"/>
<polygon fill="midnightblue" stroke="midnightblue" points="934.21,-73.12 943.88,-68.79 933.62,-66.15 934.21,-73.12"/>
</g>
<!-- Node17 -->
<g id="node17" class="node">
<title>Node17</title>
<g id="a_node17"><a xlink:title=" ">
<polygon fill="none" stroke="#bfbfbf" points="589.5,-56.5 589.5,-75.5 666.5,-75.5 666.5,-56.5 589.5,-56.5"/>
<text text-anchor="middle" x="628" y="-63.5" font-family="Helvetica,sans-Serif" font-size="10.00">pulse/error.h</text>
</a>
</g>
</g>
<!-- Node15&#45;&gt;Node17 -->
<g id="edge27" class="edge">
<title>Node15&#45;&gt;Node17</title>
<path fill="none" stroke="midnightblue" d="M432.67,-117.98C472.88,-107.48 541.26,-89.64 585.52,-78.09"/>
<polygon fill="midnightblue" stroke="midnightblue" points="586.6,-81.42 595.39,-75.51 584.83,-74.65 586.6,-81.42"/>
</g>
<!-- Node18 -->
<g id="node18" class="node">
<title>Node18</title>
<g id="a_node18"><a xlink:title=" ">
<polygon fill="none" stroke="#bfbfbf" points="483,-56.5 483,-75.5 571,-75.5 571,-56.5 483,-56.5"/>
<text text-anchor="middle" x="527" y="-63.5" font-family="Helvetica,sans-Serif" font-size="10.00">pulse/simple.h</text>
</a>
</g>
</g>
<!-- Node15&#45;&gt;Node18 -->
<g id="edge28" class="edge">
<title>Node15&#45;&gt;Node18</title>
<path fill="none" stroke="midnightblue" d="M418.2,-117.98C439.51,-107.99 475.03,-91.35 499.66,-79.81"/>
<polygon fill="midnightblue" stroke="midnightblue" points="501.27,-82.92 508.84,-75.51 498.3,-76.58 501.27,-82.92"/>
</g>
<!-- Node19&#45;&gt;Node4 -->
<g id="edge31" class="edge">
<title>Node19&#45;&gt;Node4</title>
<path fill="none" stroke="midnightblue" d="M1246.73,-251.95C1247.64,-235.38 1247.08,-198.78 1227,-179 1173.21,-126.03 1124.65,-183.59 1061,-143 1020.08,-116.9 1036.2,-81.66 995,-56 933.74,-17.84 847.04,-10.92 799.17,-10.29"/>
<polygon fill="midnightblue" stroke="midnightblue" points="799.02,-6.79 789.01,-10.25 798.99,-13.79 799.02,-6.79"/>
</g>
<!-- Node19&#45;&gt;Node5 -->
<g id="edge32" class="edge">
<title>Node19&#45;&gt;Node5</title>
<path fill="none" stroke="midnightblue" d="M1249.73,-251.87C1255.7,-236.92 1266.12,-205.29 1260,-179 1243.66,-108.85 1174.16,-51.1 1138.42,-25.39"/>
<polygon fill="midnightblue" stroke="midnightblue" points="1140.3,-22.44 1130.11,-19.56 1136.28,-28.17 1140.3,-22.44"/>
</g>
<!-- Node19&#45;&gt;Node6 -->
<g id="edge34" class="edge">
<title>Node19&#45;&gt;Node6</title>
<path fill="none" stroke="midnightblue" d="M1262.86,-251.87C1284.4,-240.84 1321.9,-221.66 1347.08,-208.77"/>
<polygon fill="midnightblue" stroke="midnightblue" points="1348.76,-211.84 1356.07,-204.17 1345.57,-205.61 1348.76,-211.84"/>
</g>
<!-- Node19&#45;&gt;Node8 -->
<g id="edge33" class="edge">
<title>Node19&#45;&gt;Node8</title>
<path fill="none" stroke="midnightblue" d="M1196.85,-251.93C1158.59,-244.13 1104.83,-230.64 1061,-210 1039.36,-199.81 1039.14,-188.07 1017,-179 923.73,-140.78 803.15,-131.46 745.54,-129.2"/>
<polygon fill="midnightblue" stroke="midnightblue" points="745.65,-125.71 735.53,-128.86 745.41,-132.7 745.65,-125.71"/>
</g>
<!-- Node20 -->
<g id="node20" class="node">
<title>Node20</title>
<g id="a_node20"><a xlink:href="telemetry__data_8hpp.html" target="_top" xlink:title=" ">
<polygon fill="none" stroke="black" points="1070,-179.5 1070,-209.5 1218,-209.5 1218,-179.5 1070,-179.5"/>
<text text-anchor="start" x="1078" y="-197.5" font-family="Helvetica,sans-Serif" font-size="10.00">SignalEasel/aprs/telemetry</text>
<text text-anchor="middle" x="1144" y="-186.5" font-family="Helvetica,sans-Serif" font-size="10.00">_data.hpp</text>
</a>
</g>
</g>
<!-- Node19&#45;&gt;Node20 -->
<g id="edge35" class="edge">
<title>Node19&#45;&gt;Node20</title>
<path fill="none" stroke="midnightblue" d="M1232.24,-251.73C1217.53,-242.36 1193.73,-227.19 1174.55,-214.97"/>
<polygon fill="midnightblue" stroke="midnightblue" points="1176.42,-212.01 1166.11,-209.59 1172.66,-217.91 1176.42,-212.01"/>
</g>
<!-- Node20&#45;&gt;Node16 -->
<g id="edge36" class="edge">
<title>Node20&#45;&gt;Node16</title>
<path fill="none" stroke="midnightblue" d="M1098.69,-179.4C1076.1,-171.02 1049.16,-158.9 1028,-143 1006.24,-126.64 987.23,-101.33 975.94,-84.47"/>
<polygon fill="midnightblue" stroke="midnightblue" points="978.59,-82.13 970.21,-75.65 972.72,-85.94 978.59,-82.13"/>
</g>
<!-- Node21 -->
<g id="node21" class="node">
<title>Node21</title>
<g id="a_node21"><a xlink:href="telemetry__parameter_8hpp.html" target="_top" xlink:title=" ">
<polygon fill="none" stroke="black" points="1070,-112.5 1070,-142.5 1218,-142.5 1218,-112.5 1070,-112.5"/>
<text text-anchor="start" x="1078" y="-130.5" font-family="Helvetica,sans-Serif" font-size="10.00">SignalEasel/aprs/telemetry</text>
<text text-anchor="middle" x="1144" y="-119.5" font-family="Helvetica,sans-Serif" font-size="10.00">_parameter.hpp</text>
</a>
</g>
</g>
<!-- Node20&#45;&gt;Node21 -->
<g id="edge37" class="edge">
<title>Node20&#45;&gt;Node21</title>
<path fill="none" stroke="midnightblue" d="M1144,-179.4C1144,-171.64 1144,-161.81 1144,-152.86"/>
<polygon fill="midnightblue" stroke="midnightblue" points="1147.5,-152.58 1144,-142.58 1140.5,-152.58 1147.5,-152.58"/>
</g>
<!-- Node21&#45;&gt;Node4 -->
<g id="edge38" class="edge">
<title>Node21&#45;&gt;Node4</title>
<path fill="none" stroke="midnightblue" d="M1126.56,-112.4C1105.47,-96.12 1068.28,-69.83 1032,-56 952.4,-25.67 851.76,-15.74 799.36,-12.52"/>
<polygon fill="midnightblue" stroke="midnightblue" points="799.43,-9.02 789.24,-11.94 799.03,-16 799.43,-9.02"/>
</g>
<!-- Node21&#45;&gt;Node5 -->
<g id="edge39" class="edge">
<title>Node21&#45;&gt;Node5</title>
<path fill="none" stroke="midnightblue" d="M1140.69,-112.34C1135.82,-91.53 1126.74,-52.66 1121.34,-29.58"/>
<polygon fill="midnightblue" stroke="midnightblue" points="1124.71,-28.61 1119.03,-19.67 1117.89,-30.2 1124.71,-28.61"/>
</g>
<!-- Node21&#45;&gt;Node22 -->
<g id="edge40" class="edge">
<title>Node21&#45;&gt;Node22</title>
<path fill="none" stroke="midnightblue" d="M1200.81,-112.47C1243.57,-101.92 1301.34,-87.66 1340.71,-77.94"/>
<polygon fill="midnightblue" stroke="midnightblue" points="1341.68,-81.3 1350.55,-75.51 1340,-74.51 1341.68,-81.3"/>
</g>
<!-- Node22&#45;&gt;Node5 -->
<g id="edge42" class="edge">
<title>Node22&#45;&gt;Node5</title>
<path fill="none" stroke="midnightblue" d="M1342.53,-56.44C1288.77,-45.61 1197.35,-27.19 1149.07,-17.46"/>
<polygon fill="midnightblue" stroke="midnightblue" points="1149.66,-14.01 1139.17,-15.47 1148.28,-20.87 1149.66,-14.01"/>
</g>
<!-- Node23 -->
<g id="node23" class="node">
<title>Node23</title>
<g id="a_node23"><a xlink:title=" ">
<polygon fill="none" stroke="#bfbfbf" points="1352.5,-0.5 1352.5,-19.5 1417.5,-19.5 1417.5,-0.5 1352.5,-0.5"/>
<text text-anchor="middle" x="1385" y="-7.5" font-family="Helvetica,sans-Serif" font-size="10.00">exception</text>
</a>
</g>
</g>
<!-- Node22&#45;&gt;Node23 -->
<g id="edge41" class="edge">
<title>Node22&#45;&gt;Node23</title>
<path fill="none" stroke="midnightblue" d="M1385,-56.08C1385,-49.01 1385,-38.86 1385,-29.99"/>
<polygon fill="midnightblue" stroke="midnightblue" points="1388.5,-29.75 1385,-19.75 1381.5,-29.75 1388.5,-29.75"/>
</g>
<!-- Node24&#45;&gt;Node8 -->
<g id="edge44" class="edge">
<title>Node24&#45;&gt;Node8</title>
<path fill="none" stroke="midnightblue" d="M1061.44,-246.48C1040.85,-225.52 1002.29,-187.55 985,-179 905.58,-139.71 799.44,-130.81 745.92,-128.91"/>
<polygon fill="midnightblue" stroke="midnightblue" points="745.73,-125.4 735.63,-128.61 745.52,-132.4 745.73,-125.4"/>
</g>
<!-- Node24&#45;&gt;Node20 -->
<g id="edge45" class="edge">
<title>Node24&#45;&gt;Node20</title>
<path fill="none" stroke="midnightblue" d="M1089.97,-246.4C1099.19,-237.71 1111.19,-226.4 1121.54,-216.66"/>
<polygon fill="midnightblue" stroke="midnightblue" points="1124.18,-218.98 1129.06,-209.58 1119.38,-213.89 1124.18,-218.98"/>
</g>
<!-- Node25&#45;&gt;Node4 -->
<g id="edge47" class="edge">
<title>Node25&#45;&gt;Node4</title>
<path fill="none" stroke="midnightblue" d="M847.1,-251.92C837.6,-223.78 806.46,-131.82 780,-56 776.92,-47.18 773.46,-37.41 770.54,-29.23"/>
<polygon fill="midnightblue" stroke="midnightblue" points="773.76,-27.85 767.1,-19.62 767.17,-30.21 773.76,-27.85"/>
</g>
<!-- Node25&#45;&gt;Node5 -->
<g id="edge50" class="edge">
<title>Node25&#45;&gt;Node5</title>
<path fill="none" stroke="midnightblue" d="M854.94,-251.81C864.03,-236.23 884.56,-202.93 907,-179 968.18,-113.75 1055.4,-52.07 1095.42,-25.17"/>
<polygon fill="midnightblue" stroke="midnightblue" points="1097.5,-27.99 1103.88,-19.53 1093.62,-22.16 1097.5,-27.99"/>
</g>
<!-- Node25&#45;&gt;Node8 -->
<g id="edge51" class="edge">
<title>Node25&#45;&gt;Node8</title>
<path fill="none" stroke="midnightblue" d="M840.95,-251.84C818.03,-229.92 757.51,-172.03 728.27,-144.06"/>
<polygon fill="midnightblue" stroke="midnightblue" points="730.55,-141.4 720.91,-137.02 725.72,-146.46 730.55,-141.4"/>
</g>
<!-- Node25&#45;&gt;Node10 -->
<g id="edge52" class="edge">
<title>Node25&#45;&gt;Node10</title>
<path fill="none" stroke="midnightblue" d="M826.36,-251.87C795.29,-240.52 740.53,-220.52 705.28,-207.65"/>
<polygon fill="midnightblue" stroke="midnightblue" points="706.05,-204.21 695.45,-204.06 703.64,-210.78 706.05,-204.21"/>
</g>
<!-- Node25&#45;&gt;Node16 -->
<g id="edge48" class="edge">
<title>Node25&#45;&gt;Node16</title>
<path fill="none" stroke="midnightblue" d="M851.36,-251.99C854.05,-236.68 860.95,-203.8 874,-179 894.08,-140.83 928.31,-103.35 948.57,-82.89"/>
<polygon fill="midnightblue" stroke="midnightblue" points="951.2,-85.21 955.84,-75.68 946.27,-80.24 951.2,-85.21"/>
</g>
<!-- Node26 -->
<g id="node26" class="node">
<title>Node26</title>
<g id="a_node26"><a xlink:title=" ">
<polygon fill="none" stroke="#bfbfbf" points="916,-185 916,-204 976,-204 976,-185 916,-185"/>
<text text-anchor="middle" x="946" y="-192" font-family="Helvetica,sans-Serif" font-size="10.00">iostream</text>
</a>
</g>
</g>
<!-- Node25&#45;&gt;Node26 -->
<g id="edge49" class="edge">
<title>Node25&#45;&gt;Node26</title>
<path fill="none" stroke="midnightblue" d="M862.95,-251.73C878.85,-240.96 906.05,-222.55 924.97,-209.74"/>
<polygon fill="midnightblue" stroke="midnightblue" points="926.94,-212.63 933.26,-204.13 923.02,-206.84 926.94,-212.63"/>
</g>
</g>
</svg>
