<?xml version="1.0" encoding="UTF-8" standalone="no"?>
<!DOCTYPE svg PUBLIC "-//W3C//DTD SVG 1.1//EN"
 "http://www.w3.org/Graphics/SVG/1.1/DTD/svg11.dtd">
<!-- Generated by graphviz version 2.43.0 (0)
 -->
<!-- Title: aprs_receiver.cpp Pages: 1 -->
<svg width="1094pt" height="364pt"
 viewBox="0.00 0.00 1094.00 364.00" xmlns="http://www.w3.org/2000/svg" xmlns:xlink="http://www.w3.org/1999/xlink">
<g id="graph0" class="graph" transform="scale(1 1) rotate(0) translate(4 360)">
<title>aprs_receiver.cpp</title>
<!-- Node1 -->
<g id="node1" class="node">
<title>Node1</title>
<g id="a_node1"><a xlink:title="Implementation of the APRS receiver class.">
<polygon fill="#bfbfbf" stroke="black" points="290,-336.5 290,-355.5 392,-355.5 392,-336.5 290,-336.5"/>
<text text-anchor="middle" x="341" y="-343.5" font-family="Helvetica,sans-Serif" font-size="10.00">aprs_receiver.cpp</text>
</a>
</g>
</g>
<!-- Node2 -->
<g id="node2" class="node">
<title>Node2</title>
<g id="a_node2"><a xlink:href="aprs_8hpp.html" target="_top" xlink:title="APRS implementation.">
<polygon fill="none" stroke="black" points="207,-280.5 207,-299.5 325,-299.5 325,-280.5 207,-280.5"/>
<text text-anchor="middle" x="266" y="-287.5" font-family="Helvetica,sans-Serif" font-size="10.00">SignalEasel/aprs.hpp</text>
</a>
</g>
</g>
<!-- Node1&#45;&gt;Node2 -->
<g id="edge1" class="edge">
<title>Node1&#45;&gt;Node2</title>
<path fill="none" stroke="midnightblue" d="M328.95,-336.32C317.54,-328.11 300.17,-315.6 286.57,-305.81"/>
<polygon fill="midnightblue" stroke="midnightblue" points="288.43,-302.84 278.27,-299.83 284.34,-308.52 288.43,-302.84"/>
</g>
<!-- Node18 -->
<g id="node18" class="node">
<title>Node18</title>
<g id="a_node18"><a xlink:title=" ">
<polygon fill="none" stroke="#bfbfbf" points="0,-168.5 0,-187.5 60,-187.5 60,-168.5 0,-168.5"/>
<text text-anchor="middle" x="30" y="-175.5" font-family="Helvetica,sans-Serif" font-size="10.00">iostream</text>
</a>
</g>
</g>
<!-- Node1&#45;&gt;Node18 -->
<g id="edge38" class="edge">
<title>Node1&#45;&gt;Node18</title>
<path fill="none" stroke="midnightblue" d="M290.87,-336.47C233.05,-324.45 137.78,-297.72 74,-244 58.57,-231 46.27,-211.3 38.64,-196.99"/>
<polygon fill="midnightblue" stroke="midnightblue" points="41.57,-195.04 33.93,-187.7 35.33,-198.2 41.57,-195.04"/>
</g>
<!-- Node19 -->
<g id="node19" class="node">
<title>Node19</title>
<g id="a_node19"><a xlink:href="exception_8hpp.html" target="_top" xlink:title="SignalEasel exceptions.">
<polygon fill="none" stroke="black" points="431.5,-280.5 431.5,-299.5 576.5,-299.5 576.5,-280.5 431.5,-280.5"/>
<text text-anchor="middle" x="504" y="-287.5" font-family="Helvetica,sans-Serif" font-size="10.00">SignalEasel/exception.hpp</text>
</a>
</g>
</g>
<!-- Node1&#45;&gt;Node19 -->
<g id="edge34" class="edge">
<title>Node1&#45;&gt;Node19</title>
<path fill="none" stroke="midnightblue" d="M366.83,-336.44C394.25,-327.36 437.78,-312.94 468.43,-302.78"/>
<polygon fill="midnightblue" stroke="midnightblue" points="469.9,-305.98 478.29,-299.52 467.7,-299.34 469.9,-305.98"/>
</g>
<!-- Node21 -->
<g id="node21" class="node">
<title>Node21</title>
<g id="a_node21"><a xlink:title=" ">
<polygon fill="none" stroke="#bfbfbf" points="595,-280.5 595,-299.5 651,-299.5 651,-280.5 595,-280.5"/>
<text text-anchor="middle" x="623" y="-287.5" font-family="Helvetica,sans-Serif" font-size="10.00">iomanip</text>
</a>
</g>
</g>
<!-- Node1&#45;&gt;Node21 -->
<g id="edge37" class="edge">
<title>Node1&#45;&gt;Node21</title>
<path fill="none" stroke="midnightblue" d="M392.32,-336.45C439.77,-328.35 512.49,-315.43 584.59,-300.21"/>
<polygon fill="midnightblue" stroke="midnightblue" points="585.7,-303.55 594.76,-298.05 584.25,-296.7 585.7,-303.55"/>
</g>
<!-- Node3 -->
<g id="node3" class="node">
<title>Node3</title>
<g id="a_node3"><a xlink:title=" ">
<polygon fill="none" stroke="#bfbfbf" points="228,-0.5 228,-19.5 278,-19.5 278,-0.5 228,-0.5"/>
<text text-anchor="middle" x="253" y="-7.5" font-family="Helvetica,sans-Serif" font-size="10.00">cstdint</text>
</a>
</g>
</g>
<!-- Node2&#45;&gt;Node3 -->
<g id="edge2" class="edge">
<title>Node2&#45;&gt;Node3</title>
<path fill="none" stroke="midnightblue" d="M206.84,-286C173.45,-281.28 133.28,-270.06 107,-244 85.63,-222.81 88,-209.1 88,-179 88,-179 88,-179 88,-121 88,-58.97 169.74,-29.76 218.16,-17.91"/>
<polygon fill="midnightblue" stroke="midnightblue" points="218.99,-21.31 227.94,-15.63 217.41,-14.49 218.99,-21.31"/>
</g>
<!-- Node4 -->
<g id="node4" class="node">
<title>Node4</title>
<g id="a_node4"><a xlink:title=" ">
<polygon fill="none" stroke="#bfbfbf" points="625,-56.5 625,-75.5 669,-75.5 669,-56.5 625,-56.5"/>
<text text-anchor="middle" x="647" y="-63.5" font-family="Helvetica,sans-Serif" font-size="10.00">string</text>
</a>
</g>
</g>
<!-- Node2&#45;&gt;Node4 -->
<g id="edge3" class="edge">
<title>Node2&#45;&gt;Node4</title>
<path fill="none" stroke="midnightblue" d="M265.65,-280.43C265.24,-258.73 267.18,-200.97 297,-168 340.16,-120.29 535.74,-84.63 614.25,-71.99"/>
<polygon fill="midnightblue" stroke="midnightblue" points="615.19,-75.39 624.52,-70.36 614.09,-68.47 615.19,-75.39"/>
</g>
<!-- Node5 -->
<g id="node5" class="node">
<title>Node5</title>
<g id="a_node5"><a xlink:href="afsk_8hpp.html" target="_top" xlink:title="AFSK related modulation/demodulation.">
<polygon fill="none" stroke="black" points="476,-224.5 476,-243.5 594,-243.5 594,-224.5 476,-224.5"/>
<text text-anchor="middle" x="535" y="-231.5" font-family="Helvetica,sans-Serif" font-size="10.00">SignalEasel/afsk.hpp</text>
</a>
</g>
</g>
<!-- Node2&#45;&gt;Node5 -->
<g id="edge4" class="edge">
<title>Node2&#45;&gt;Node5</title>
<path fill="none" stroke="midnightblue" d="M308.62,-280.44C355.75,-270.98 431.69,-255.74 482.46,-245.55"/>
<polygon fill="midnightblue" stroke="midnightblue" points="483.46,-248.92 492.58,-243.52 482.08,-242.05 483.46,-248.92"/>
</g>
<!-- Node17 -->
<g id="node17" class="node">
<title>Node17</title>
<g id="a_node17"><a xlink:href="ax25_8hpp.html" target="_top" xlink:title="AX.25 tools.">
<polygon fill="none" stroke="black" points="116.5,-224.5 116.5,-243.5 237.5,-243.5 237.5,-224.5 116.5,-224.5"/>
<text text-anchor="middle" x="177" y="-231.5" font-family="Helvetica,sans-Serif" font-size="10.00">SignalEasel/ax25.hpp</text>
</a>
</g>
</g>
<!-- Node2&#45;&gt;Node17 -->
<g id="edge27" class="edge">
<title>Node2&#45;&gt;Node17</title>
<path fill="none" stroke="midnightblue" d="M251.7,-280.32C237.82,-271.9 216.51,-258.97 200.2,-249.07"/>
<polygon fill="midnightblue" stroke="midnightblue" points="201.63,-245.85 191.26,-243.65 198,-251.83 201.63,-245.85"/>
</g>
<!-- Node6 -->
<g id="node6" class="node">
<title>Node6</title>
<g id="a_node6"><a xlink:title=" ">
<polygon fill="none" stroke="#bfbfbf" points="458.5,-112.5 458.5,-131.5 505.5,-131.5 505.5,-112.5 458.5,-112.5"/>
<text text-anchor="middle" x="482" y="-119.5" font-family="Helvetica,sans-Serif" font-size="10.00">vector</text>
</a>
</g>
</g>
<!-- Node5&#45;&gt;Node6 -->
<g id="edge5" class="edge">
<title>Node5&#45;&gt;Node6</title>
<path fill="none" stroke="midnightblue" d="M526.92,-224.34C519.27,-215.72 507.95,-201.82 501,-188 493.58,-173.23 488.57,-155.07 485.57,-141.71"/>
<polygon fill="midnightblue" stroke="midnightblue" points="488.98,-140.87 483.52,-131.79 482.12,-142.29 488.98,-140.87"/>
</g>
<!-- Node7 -->
<g id="node7" class="node">
<title>Node7</title>
<g id="a_node7"><a xlink:href="constants_8hpp.html" target="_top" xlink:title="Common constants used throughout the library.">
<polygon fill="none" stroke="black" points="942,-56.5 942,-75.5 1086,-75.5 1086,-56.5 942,-56.5"/>
<text text-anchor="middle" x="1014" y="-63.5" font-family="Helvetica,sans-Serif" font-size="10.00">SignalEasel/constants.hpp</text>
</a>
</g>
</g>
<!-- Node5&#45;&gt;Node7 -->
<g id="edge6" class="edge">
<title>Node5&#45;&gt;Node7</title>
<path fill="none" stroke="midnightblue" d="M594.08,-225.14C597.43,-224.75 600.76,-224.36 604,-224 647.36,-219.18 963.18,-217.85 995,-188 1022.96,-161.78 1020.96,-112.49 1017.34,-85.63"/>
<polygon fill="midnightblue" stroke="midnightblue" points="1020.77,-84.95 1015.76,-75.61 1013.86,-86.04 1020.77,-84.95"/>
</g>
<!-- Node8 -->
<g id="node8" class="node">
<title>Node8</title>
<g id="a_node8"><a xlink:href="bit__stream_8hpp.html" target="_top" xlink:title="The bit stream class.">
<polygon fill="none" stroke="black" points="305.5,-168.5 305.5,-187.5 454.5,-187.5 454.5,-168.5 305.5,-168.5"/>
<text text-anchor="middle" x="380" y="-175.5" font-family="Helvetica,sans-Serif" font-size="10.00">SignalEasel/bit_stream.hpp</text>
</a>
</g>
</g>
<!-- Node5&#45;&gt;Node8 -->
<g id="edge8" class="edge">
<title>Node5&#45;&gt;Node8</title>
<path fill="none" stroke="midnightblue" d="M510.44,-224.44C484.48,-215.4 443.33,-201.06 414.2,-190.92"/>
<polygon fill="midnightblue" stroke="midnightblue" points="415.04,-187.5 404.45,-187.52 412.74,-194.11 415.04,-187.5"/>
</g>
<!-- Node9 -->
<g id="node9" class="node">
<title>Node9</title>
<g id="a_node9"><a xlink:href="demodulator_8hpp.html" target="_top" xlink:title="Base class for demodulators.">
<polygon fill="none" stroke="black" points="510,-168.5 510,-187.5 668,-187.5 668,-168.5 510,-168.5"/>
<text text-anchor="middle" x="589" y="-175.5" font-family="Helvetica,sans-Serif" font-size="10.00">SignalEasel/demodulator.hpp</text>
</a>
</g>
</g>
<!-- Node5&#45;&gt;Node9 -->
<g id="edge11" class="edge">
<title>Node5&#45;&gt;Node9</title>
<path fill="none" stroke="midnightblue" d="M543.92,-224.08C551.78,-216.22 563.43,-204.57 572.92,-195.08"/>
<polygon fill="midnightblue" stroke="midnightblue" points="575.65,-197.3 580.25,-187.75 570.7,-192.35 575.65,-197.3"/>
</g>
<!-- Node11 -->
<g id="node11" class="node">
<title>Node11</title>
<g id="a_node11"><a xlink:href="modulator_8hpp.html" target="_top" xlink:title="Modulator base class.">
<polygon fill="none" stroke="black" points="686,-168.5 686,-187.5 832,-187.5 832,-168.5 686,-168.5"/>
<text text-anchor="middle" x="759" y="-175.5" font-family="Helvetica,sans-Serif" font-size="10.00">SignalEasel/modulator.hpp</text>
</a>
</g>
</g>
<!-- Node5&#45;&gt;Node11 -->
<g id="edge16" class="edge">
<title>Node5&#45;&gt;Node11</title>
<path fill="none" stroke="midnightblue" d="M570.49,-224.44C609.32,-215.08 671.66,-200.06 713.92,-189.87"/>
<polygon fill="midnightblue" stroke="midnightblue" points="714.77,-193.26 723.67,-187.52 713.13,-186.46 714.77,-193.26"/>
</g>
<!-- Node12 -->
<g id="node12" class="node">
<title>Node12</title>
<g id="a_node12"><a xlink:href="receiver_8hpp.html" target="_top" xlink:title="Base class for receivers. Demodulators that use pulse audio.">
<polygon fill="none" stroke="black" points="850,-168.5 850,-187.5 986,-187.5 986,-168.5 850,-168.5"/>
<text text-anchor="middle" x="918" y="-175.5" font-family="Helvetica,sans-Serif" font-size="10.00">SignalEasel/receiver.hpp</text>
</a>
</g>
</g>
<!-- Node5&#45;&gt;Node12 -->
<g id="edge19" class="edge">
<title>Node5&#45;&gt;Node12</title>
<path fill="none" stroke="midnightblue" d="M594,-224.68C662.34,-215.05 774.84,-199.18 847.66,-188.92"/>
<polygon fill="midnightblue" stroke="midnightblue" points="848.25,-192.37 857.66,-187.51 847.27,-185.44 848.25,-192.37"/>
</g>
<!-- Node7&#45;&gt;Node3 -->
<g id="edge7" class="edge">
<title>Node7&#45;&gt;Node3</title>
<path fill="none" stroke="midnightblue" d="M941.59,-56.79C938.69,-56.52 935.82,-56.25 933,-56 686.54,-34.16 388.96,-17.97 288.25,-12.78"/>
<polygon fill="midnightblue" stroke="midnightblue" points="288.2,-9.27 278.04,-12.25 287.85,-16.26 288.2,-9.27"/>
</g>
<!-- Node8&#45;&gt;Node3 -->
<g id="edge9" class="edge">
<title>Node8&#45;&gt;Node3</title>
<path fill="none" stroke="midnightblue" d="M373.17,-168.08C352.83,-141.49 292.43,-62.54 265.82,-27.76"/>
<polygon fill="midnightblue" stroke="midnightblue" points="268.41,-25.38 259.56,-19.57 262.85,-29.64 268.41,-25.38"/>
</g>
<!-- Node8&#45;&gt;Node6 -->
<g id="edge10" class="edge">
<title>Node8&#45;&gt;Node6</title>
<path fill="none" stroke="midnightblue" d="M396.39,-168.32C412.67,-159.7 437.87,-146.36 456.72,-136.39"/>
<polygon fill="midnightblue" stroke="midnightblue" points="458.45,-139.43 465.65,-131.65 455.18,-133.24 458.45,-139.43"/>
</g>
<!-- Node9&#45;&gt;Node4 -->
<g id="edge12" class="edge">
<title>Node9&#45;&gt;Node4</title>
<path fill="none" stroke="midnightblue" d="M592.55,-168.42C597.86,-155.83 608.38,-131.69 619,-112 624.08,-102.58 630.32,-92.44 635.62,-84.17"/>
<polygon fill="midnightblue" stroke="midnightblue" points="638.56,-86.06 641.09,-75.77 632.7,-82.24 638.56,-86.06"/>
</g>
<!-- Node9&#45;&gt;Node6 -->
<g id="edge13" class="edge">
<title>Node9&#45;&gt;Node6</title>
<path fill="none" stroke="midnightblue" d="M571.81,-168.32C554.65,-159.66 528.05,-146.24 508.25,-136.25"/>
<polygon fill="midnightblue" stroke="midnightblue" points="509.65,-133.04 499.15,-131.65 506.5,-139.28 509.65,-133.04"/>
</g>
<!-- Node10 -->
<g id="node10" class="node">
<title>Node10</title>
<g id="a_node10"><a xlink:href="settings_8hpp.html" target="_top" xlink:title="Settings structures for SignalEasel.">
<polygon fill="none" stroke="black" points="628,-112.5 628,-131.5 764,-131.5 764,-112.5 628,-112.5"/>
<text text-anchor="middle" x="696" y="-119.5" font-family="Helvetica,sans-Serif" font-size="10.00">SignalEasel/settings.hpp</text>
</a>
</g>
</g>
<!-- Node9&#45;&gt;Node10 -->
<g id="edge14" class="edge">
<title>Node9&#45;&gt;Node10</title>
<path fill="none" stroke="midnightblue" d="M606.19,-168.32C623.35,-159.66 649.95,-146.24 669.75,-136.25"/>
<polygon fill="midnightblue" stroke="midnightblue" points="671.5,-139.28 678.85,-131.65 668.35,-133.04 671.5,-139.28"/>
</g>
<!-- Node10&#45;&gt;Node4 -->
<g id="edge15" class="edge">
<title>Node10&#45;&gt;Node4</title>
<path fill="none" stroke="midnightblue" d="M687.91,-112.08C680.84,-104.3 670.41,-92.8 661.85,-83.37"/>
<polygon fill="midnightblue" stroke="midnightblue" points="664.25,-80.8 654.94,-75.75 659.07,-85.51 664.25,-80.8"/>
</g>
<!-- Node11&#45;&gt;Node6 -->
<g id="edge17" class="edge">
<title>Node11&#45;&gt;Node6</title>
<path fill="none" stroke="midnightblue" d="M715.11,-168.44C659.71,-157.64 565.62,-139.3 515.6,-129.55"/>
<polygon fill="midnightblue" stroke="midnightblue" points="516.11,-126.08 505.62,-127.6 514.77,-132.95 516.11,-126.08"/>
</g>
<!-- Node11&#45;&gt;Node10 -->
<g id="edge18" class="edge">
<title>Node11&#45;&gt;Node10</title>
<path fill="none" stroke="midnightblue" d="M748.88,-168.32C739.47,-160.26 725.26,-148.08 713.93,-138.37"/>
<polygon fill="midnightblue" stroke="midnightblue" points="716.18,-135.68 706.31,-131.83 711.62,-141 716.18,-135.68"/>
</g>
<!-- Node12&#45;&gt;Node10 -->
<g id="edge26" class="edge">
<title>Node12&#45;&gt;Node10</title>
<path fill="none" stroke="midnightblue" d="M882.82,-168.44C844.42,-159.1 782.82,-144.12 740.94,-133.93"/>
<polygon fill="midnightblue" stroke="midnightblue" points="741.56,-130.48 731.01,-131.52 739.9,-137.28 741.56,-130.48"/>
</g>
<!-- Node13 -->
<g id="node13" class="node">
<title>Node13</title>
<g id="a_node13"><a xlink:href="pulse__audio_8hpp.html" target="_top" xlink:title="Simple pulse audio interface.">
<polygon fill="none" stroke="black" points="830.5,-112.5 830.5,-131.5 985.5,-131.5 985.5,-112.5 830.5,-112.5"/>
<text text-anchor="middle" x="908" y="-119.5" font-family="Helvetica,sans-Serif" font-size="10.00">SignalEasel/pulse_audio.hpp</text>
</a>
</g>
</g>
<!-- Node12&#45;&gt;Node13 -->
<g id="edge20" class="edge">
<title>Node12&#45;&gt;Node13</title>
<path fill="none" stroke="midnightblue" d="M916.35,-168.08C915.02,-160.93 913.12,-150.64 911.46,-141.69"/>
<polygon fill="midnightblue" stroke="midnightblue" points="914.88,-140.95 909.62,-131.75 908,-142.22 914.88,-140.95"/>
</g>
<!-- Node13&#45;&gt;Node4 -->
<g id="edge22" class="edge">
<title>Node13&#45;&gt;Node4</title>
<path fill="none" stroke="midnightblue" d="M866.64,-112.44C814.66,-101.69 726.53,-83.45 679.25,-73.67"/>
<polygon fill="midnightblue" stroke="midnightblue" points="679.76,-70.2 669.26,-71.6 678.34,-77.06 679.76,-70.2"/>
</g>
<!-- Node13&#45;&gt;Node7 -->
<g id="edge23" class="edge">
<title>Node13&#45;&gt;Node7</title>
<path fill="none" stroke="midnightblue" d="M925.03,-112.32C942.03,-103.66 968.38,-90.24 987.99,-80.25"/>
<polygon fill="midnightblue" stroke="midnightblue" points="989.69,-83.31 997.01,-75.65 986.51,-77.08 989.69,-83.31"/>
</g>
<!-- Node14 -->
<g id="node14" class="node">
<title>Node14</title>
<g id="a_node14"><a xlink:title=" ">
<polygon fill="none" stroke="#bfbfbf" points="516,-56.5 516,-75.5 558,-75.5 558,-56.5 516,-56.5"/>
<text text-anchor="middle" x="537" y="-63.5" font-family="Helvetica,sans-Serif" font-size="10.00">array</text>
</a>
</g>
</g>
<!-- Node13&#45;&gt;Node14 -->
<g id="edge21" class="edge">
<title>Node13&#45;&gt;Node14</title>
<path fill="none" stroke="midnightblue" d="M849.21,-112.44C769.44,-100.83 629.79,-80.51 567.96,-71.51"/>
<polygon fill="midnightblue" stroke="midnightblue" points="568.44,-68.04 558.04,-70.06 567.43,-74.97 568.44,-68.04"/>
</g>
<!-- Node15 -->
<g id="node15" class="node">
<title>Node15</title>
<g id="a_node15"><a xlink:title=" ">
<polygon fill="none" stroke="#bfbfbf" points="740.5,-56.5 740.5,-75.5 817.5,-75.5 817.5,-56.5 740.5,-56.5"/>
<text text-anchor="middle" x="779" y="-63.5" font-family="Helvetica,sans-Serif" font-size="10.00">pulse/error.h</text>
</a>
</g>
</g>
<!-- Node13&#45;&gt;Node15 -->
<g id="edge24" class="edge">
<title>Node13&#45;&gt;Node15</title>
<path fill="none" stroke="midnightblue" d="M887.56,-112.44C866.33,-103.56 832.9,-89.56 808.75,-79.45"/>
<polygon fill="midnightblue" stroke="midnightblue" points="809.92,-76.15 799.34,-75.52 807.22,-82.61 809.92,-76.15"/>
</g>
<!-- Node16 -->
<g id="node16" class="node">
<title>Node16</title>
<g id="a_node16"><a xlink:title=" ">
<polygon fill="none" stroke="#bfbfbf" points="836,-56.5 836,-75.5 924,-75.5 924,-56.5 836,-56.5"/>
<text text-anchor="middle" x="880" y="-63.5" font-family="Helvetica,sans-Serif" font-size="10.00">pulse/simple.h</text>
</a>
</g>
</g>
<!-- Node13&#45;&gt;Node16 -->
<g id="edge25" class="edge">
<title>Node13&#45;&gt;Node16</title>
<path fill="none" stroke="midnightblue" d="M903.38,-112.08C899.54,-104.69 893.98,-93.95 889.24,-84.81"/>
<polygon fill="midnightblue" stroke="midnightblue" points="892.25,-83.02 884.54,-75.75 886.03,-86.24 892.25,-83.02"/>
</g>
<!-- Node17&#45;&gt;Node3 -->
<g id="edge28" class="edge">
<title>Node17&#45;&gt;Node3</title>
<path fill="none" stroke="midnightblue" d="M173.66,-224.2C170.45,-215.24 165.82,-200.88 164,-188 159.24,-154.37 158.5,-143.16 172,-112 186.94,-77.53 216.89,-45.02 235.89,-26.6"/>
<polygon fill="midnightblue" stroke="midnightblue" points="238.43,-29.02 243.29,-19.61 233.62,-23.94 238.43,-29.02"/>
</g>
<!-- Node17&#45;&gt;Node4 -->
<g id="edge31" class="edge">
<title>Node17&#45;&gt;Node4</title>
<path fill="none" stroke="midnightblue" d="M177.61,-224.17C179.7,-201.32 188.71,-140.09 226,-112 286.86,-66.15 491.25,-84.26 567,-76 582.76,-74.28 600.27,-72.32 614.88,-70.66"/>
<polygon fill="midnightblue" stroke="midnightblue" points="615.39,-74.13 624.93,-69.52 614.6,-67.17 615.39,-74.13"/>
</g>
<!-- Node17&#45;&gt;Node6 -->
<g id="edge32" class="edge">
<title>Node17&#45;&gt;Node6</title>
<path fill="none" stroke="midnightblue" d="M190.13,-224.41C211.64,-210.68 256.09,-183.75 297,-168 348.18,-148.3 410.72,-135.23 448.4,-128.48"/>
<polygon fill="midnightblue" stroke="midnightblue" points="449.09,-131.91 458.34,-126.74 447.89,-125.01 449.09,-131.91"/>
</g>
<!-- Node17&#45;&gt;Node8 -->
<g id="edge33" class="edge">
<title>Node17&#45;&gt;Node8</title>
<path fill="none" stroke="midnightblue" d="M209.17,-224.44C244.06,-215.16 299.89,-200.31 338.17,-190.13"/>
<polygon fill="midnightblue" stroke="midnightblue" points="339.22,-193.47 347.98,-187.52 337.42,-186.7 339.22,-193.47"/>
</g>
<!-- Node17&#45;&gt;Node14 -->
<g id="edge29" class="edge">
<title>Node17&#45;&gt;Node14</title>
<path fill="none" stroke="midnightblue" d="M174.56,-224.21C168.99,-202 158,-143.15 188,-112 231.31,-67.03 427.92,-65.18 505.44,-66.27"/>
<polygon fill="midnightblue" stroke="midnightblue" points="505.51,-69.77 515.56,-66.43 505.62,-62.77 505.51,-69.77"/>
</g>
<!-- Node17&#45;&gt;Node18 -->
<g id="edge30" class="edge">
<title>Node17&#45;&gt;Node18</title>
<path fill="none" stroke="midnightblue" d="M153.71,-224.44C129.19,-215.44 90.4,-201.19 62.8,-191.05"/>
<polygon fill="midnightblue" stroke="midnightblue" points="63.78,-187.68 53.18,-187.52 61.36,-194.25 63.78,-187.68"/>
</g>
<!-- Node19&#45;&gt;Node4 -->
<g id="edge36" class="edge">
<title>Node19&#45;&gt;Node4</title>
<path fill="none" stroke="midnightblue" d="M567.35,-280.47C693.86,-262.8 968.02,-221.09 995,-188 1030.2,-144.83 1013.28,-190.4 822,-132 799.5,-125.13 794.97,-120.4 773,-112 741.21,-99.84 704.52,-86.86 678.97,-77.98"/>
<polygon fill="midnightblue" stroke="midnightblue" points="680.01,-74.63 669.42,-74.67 677.72,-81.25 680.01,-74.63"/>
</g>
<!-- Node20 -->
<g id="node20" class="node">
<title>Node20</title>
<g id="a_node20"><a xlink:title=" ">
<polygon fill="none" stroke="#bfbfbf" points="612.5,-224.5 612.5,-243.5 677.5,-243.5 677.5,-224.5 612.5,-224.5"/>
<text text-anchor="middle" x="645" y="-231.5" font-family="Helvetica,sans-Serif" font-size="10.00">exception</text>
</a>
</g>
</g>
<!-- Node19&#45;&gt;Node20 -->
<g id="edge35" class="edge">
<title>Node19&#45;&gt;Node20</title>
<path fill="none" stroke="midnightblue" d="M526.34,-280.44C549.75,-271.48 586.74,-257.31 613.19,-247.18"/>
<polygon fill="midnightblue" stroke="midnightblue" points="614.68,-250.36 622.76,-243.52 612.17,-243.82 614.68,-250.36"/>
</g>
</g>
</svg>
