<?xml version="1.0" encoding="UTF-8" standalone="no"?>
<!DOCTYPE svg PUBLIC "-//W3C//DTD SVG 1.1//EN"
 "http://www.w3.org/Graphics/SVG/1.1/DTD/svg11.dtd">
<!-- Generated by graphviz version 2.43.0 (0)
 -->
<!-- Title: TEST Pages: 1 -->
<svg width="381pt" height="100pt"
 viewBox="0.00 0.00 381.00 99.50" xmlns="http://www.w3.org/2000/svg" xmlns:xlink="http://www.w3.org/1999/xlink">
<g id="graph0" class="graph" transform="scale(1 1) rotate(0) translate(4 95.5)">
<title>TEST</title>
<!-- Node1 -->
<g id="node1" class="node">
<title>Node1</title>
<g id="a_node1"><a xlink:title="Test that the receiver properly decodes a real APRS packet from aprs_real.wav using the full aprs::Re...">
<polygon fill="#bfbfbf" stroke="black" points="0,-38.5 0,-57.5 41,-57.5 41,-38.5 0,-38.5"/>
<text text-anchor="middle" x="20.5" y="-45.5" font-family="Helvetica,sans-Serif" font-size="10.00">TEST</text>
</a>
</g>
</g>
<!-- Node2 -->
<g id="node2" class="node">
<title>Node2</title>
<g id="a_node2"><a xlink:href="classsignal__easel_1_1aprs_1_1Receiver.html#a8aa6795f2c030716f18264be70fc0f88" target="_top" xlink:title=" ">
<polygon fill="none" stroke="black" points="85,-61 85,-91 197,-91 197,-61 85,-61"/>
<text text-anchor="start" x="93" y="-79" font-family="Helvetica,sans-Serif" font-size="10.00">signal_easel::aprs</text>
<text text-anchor="middle" x="141" y="-68" font-family="Helvetica,sans-Serif" font-size="10.00">::Receiver::getStats</text>
</a>
</g>
</g>
<!-- Node1&#45;&gt;Node2 -->
<g id="edge1" class="edge">
<title>Node1&#45;&gt;Node2</title>
<path fill="none" stroke="midnightblue" d="M41.07,-52.62C50.56,-54.87 62.57,-57.7 74.92,-60.62"/>
<polygon fill="midnightblue" stroke="midnightblue" points="74.31,-64.08 84.85,-62.97 75.92,-57.26 74.31,-64.08"/>
</g>
<!-- Node3 -->
<g id="node3" class="node">
<title>Node3</title>
<g id="a_node3"><a xlink:href="classsignal__easel_1_1aprs_1_1TestableAprsReceiver.html#a22e1bb72a3eea1cf5b72ecb6c83185da" target="_top" xlink:title="Returns true if there was enough data to process.">
<polygon fill="none" stroke="black" points="77,-0.5 77,-41.5 205,-41.5 205,-0.5 77,-0.5"/>
<text text-anchor="start" x="85" y="-29.5" font-family="Helvetica,sans-Serif" font-size="10.00">signal_easel::aprs</text>
<text text-anchor="start" x="85" y="-18.5" font-family="Helvetica,sans-Serif" font-size="10.00">::TestableAprsReceiver</text>
<text text-anchor="middle" x="141" y="-7.5" font-family="Helvetica,sans-Serif" font-size="10.00">::process</text>
</a>
</g>
</g>
<!-- Node1&#45;&gt;Node3 -->
<g id="edge2" class="edge">
<title>Node1&#45;&gt;Node3</title>
<path fill="none" stroke="midnightblue" d="M41.07,-43.54C48.48,-41.85 57.43,-39.81 66.88,-37.66"/>
<polygon fill="midnightblue" stroke="midnightblue" points="67.9,-41.02 76.87,-35.38 66.34,-34.19 67.9,-41.02"/>
</g>
<!-- Node4 -->
<g id="node4" class="node">
<title>Node4</title>
<g id="a_node4"><a xlink:href="classsignal__easel_1_1afsk_1_1Receiver.html#a516bafcdb924ea09c44233dcca6069c3" target="_top" xlink:title=" ">
<polygon fill="none" stroke="black" points="241,-6 241,-36 373,-36 373,-6 241,-6"/>
<text text-anchor="start" x="249" y="-24" font-family="Helvetica,sans-Serif" font-size="10.00">signal_easel::afsk</text>
<text text-anchor="middle" x="307" y="-13" font-family="Helvetica,sans-Serif" font-size="10.00">::Receiver::detectSignal</text>
</a>
</g>
</g>
<!-- Node3&#45;&gt;Node4 -->
<g id="edge3" class="edge">
<title>Node3&#45;&gt;Node4</title>
<path fill="none" stroke="midnightblue" d="M205.41,-21C213.67,-21 222.21,-21 230.64,-21"/>
<polygon fill="midnightblue" stroke="midnightblue" points="230.87,-24.5 240.87,-21 230.87,-17.5 230.87,-24.5"/>
</g>
</g>
</svg>
