<?xml version="1.0" encoding="UTF-8" standalone="no"?>
<!DOCTYPE svg PUBLIC "-//W3C//DTD SVG 1.1//EN"
 "http://www.w3.org/Graphics/SVG/1.1/DTD/svg11.dtd">
<!-- Generated by graphviz version 2.43.0 (0)
 -->
<!-- Title: aprs.hpp Pages: 1 -->
<svg width="791pt" height="84pt"
 viewBox="0.00 0.00 791.00 84.00" xmlns="http://www.w3.org/2000/svg" xmlns:xlink="http://www.w3.org/1999/xlink">
<g id="graph0" class="graph" transform="scale(1 1) rotate(0) translate(4 80)">
<title>aprs.hpp</title>
<!-- Node1 -->
<g id="node1" class="node">
<title>Node1</title>
<g id="a_node1"><a xlink:title="APRS implementation.">
<polygon fill="#bfbfbf" stroke="black" points="421,-56.5 421,-75.5 480,-75.5 480,-56.5 421,-56.5"/>
<text text-anchor="middle" x="450.5" y="-63.5" font-family="Helvetica,sans-Serif" font-size="10.00">aprs.hpp</text>
</a>
</g>
</g>
<!-- Node2 -->
<g id="node2" class="node">
<title>Node2</title>
<g id="a_node2"><a xlink:href="aprs__demodulator_8cpp.html" target="_top" xlink:title="Implementation of the APRS demodulator class.">
<polygon fill="none" stroke="black" points="0,-0.5 0,-19.5 125,-19.5 125,-0.5 0,-0.5"/>
<text text-anchor="middle" x="62.5" y="-7.5" font-family="Helvetica,sans-Serif" font-size="10.00">aprs_demodulator.cpp</text>
</a>
</g>
</g>
<!-- Node1&#45;&gt;Node2 -->
<g id="edge1" class="edge">
<title>Node1&#45;&gt;Node2</title>
<path fill="none" stroke="midnightblue" d="M410.4,-59.42C342.37,-49.95 203.9,-30.68 123.69,-19.52"/>
<polygon fill="midnightblue" stroke="midnightblue" points="410.31,-62.94 420.7,-60.85 411.28,-56.01 410.31,-62.94"/>
</g>
<!-- Node3 -->
<g id="node3" class="node">
<title>Node3</title>
<g id="a_node3"><a xlink:href="aprs__encoders_8cpp.html" target="_top" xlink:title="Encoding functions for APRS packets.">
<polygon fill="none" stroke="black" points="143,-0.5 143,-19.5 250,-19.5 250,-0.5 143,-0.5"/>
<text text-anchor="middle" x="196.5" y="-7.5" font-family="Helvetica,sans-Serif" font-size="10.00">aprs_encoders.cpp</text>
</a>
</g>
</g>
<!-- Node1&#45;&gt;Node3 -->
<g id="edge2" class="edge">
<title>Node1&#45;&gt;Node3</title>
<path fill="none" stroke="midnightblue" d="M410.97,-56.6C363.56,-46.52 284.54,-29.72 236.8,-19.57"/>
<polygon fill="midnightblue" stroke="midnightblue" points="410.36,-60.04 420.87,-58.7 411.81,-53.2 410.36,-60.04"/>
</g>
<!-- Node4 -->
<g id="node4" class="node">
<title>Node4</title>
<g id="a_node4"><a xlink:href="aprs__modulator_8cpp.html" target="_top" xlink:title="Implementation of the APRS modulator class.">
<polygon fill="none" stroke="black" points="268,-0.5 268,-19.5 381,-19.5 381,-0.5 268,-0.5"/>
<text text-anchor="middle" x="324.5" y="-7.5" font-family="Helvetica,sans-Serif" font-size="10.00">aprs_modulator.cpp</text>
</a>
</g>
</g>
<!-- Node1&#45;&gt;Node4 -->
<g id="edge3" class="edge">
<title>Node1&#45;&gt;Node4</title>
<path fill="none" stroke="midnightblue" d="M421.34,-52.5C397.72,-42.38 365.07,-28.39 344.37,-19.52"/>
<polygon fill="midnightblue" stroke="midnightblue" points="419.96,-55.72 430.53,-56.44 422.72,-49.29 419.96,-55.72"/>
</g>
<!-- Node5 -->
<g id="node5" class="node">
<title>Node5</title>
<g id="a_node5"><a xlink:href="aprs__receiver_8cpp.html" target="_top" xlink:title="Implementation of the APRS receiver class.">
<polygon fill="none" stroke="black" points="399.5,-0.5 399.5,-19.5 501.5,-19.5 501.5,-0.5 399.5,-0.5"/>
<text text-anchor="middle" x="450.5" y="-7.5" font-family="Helvetica,sans-Serif" font-size="10.00">aprs_receiver.cpp</text>
</a>
</g>
</g>
<!-- Node1&#45;&gt;Node5 -->
<g id="edge4" class="edge">
<title>Node1&#45;&gt;Node5</title>
<path fill="none" stroke="midnightblue" d="M450.5,-45.8C450.5,-36.91 450.5,-26.78 450.5,-19.75"/>
<polygon fill="midnightblue" stroke="midnightblue" points="447,-46.08 450.5,-56.08 454,-46.08 447,-46.08"/>
</g>
<!-- Node6 -->
<g id="node6" class="node">
<title>Node6</title>
<g id="a_node6"><a xlink:href="aprs_8cpp.html" target="_top" xlink:title="APRS implementation.">
<polygon fill="none" stroke="black" points="519.5,-0.5 519.5,-19.5 577.5,-19.5 577.5,-0.5 519.5,-0.5"/>
<text text-anchor="middle" x="548.5" y="-7.5" font-family="Helvetica,sans-Serif" font-size="10.00">aprs.cpp</text>
</a>
</g>
</g>
<!-- Node1&#45;&gt;Node6 -->
<g id="edge5" class="edge">
<title>Node1&#45;&gt;Node6</title>
<path fill="none" stroke="midnightblue" d="M475.09,-51.45C493.18,-41.48 517.23,-28.23 532.79,-19.65"/>
<polygon fill="midnightblue" stroke="midnightblue" points="473.31,-48.43 466.25,-56.32 476.69,-54.56 473.31,-48.43"/>
</g>
<!-- Node7 -->
<g id="node7" class="node">
<title>Node7</title>
<g id="a_node7"><a xlink:href="aprs__test_8cpp.html" target="_top" xlink:title=" ">
<polygon fill="none" stroke="black" points="595.5,-0.5 595.5,-19.5 677.5,-19.5 677.5,-0.5 595.5,-0.5"/>
<text text-anchor="middle" x="636.5" y="-7.5" font-family="Helvetica,sans-Serif" font-size="10.00">aprs_test.cpp</text>
</a>
</g>
</g>
<!-- Node1&#45;&gt;Node7 -->
<g id="edge6" class="edge">
<title>Node1&#45;&gt;Node7</title>
<path fill="none" stroke="midnightblue" d="M489.88,-53.57C524.97,-43.38 575.52,-28.7 607.17,-19.52"/>
<polygon fill="midnightblue" stroke="midnightblue" points="488.6,-50.29 479.97,-56.44 490.55,-57.02 488.6,-50.29"/>
</g>
<!-- Node8 -->
<g id="node8" class="node">
<title>Node8</title>
<g id="a_node8"><a xlink:href="pulse__test_8cpp.html" target="_top" xlink:title="PulseAudio output test. Does not use gtest.">
<polygon fill="none" stroke="black" points="696,-0.5 696,-19.5 783,-19.5 783,-0.5 696,-0.5"/>
<text text-anchor="middle" x="739.5" y="-7.5" font-family="Helvetica,sans-Serif" font-size="10.00">pulse_test.cpp</text>
</a>
</g>
</g>
<!-- Node1&#45;&gt;Node8 -->
<g id="edge7" class="edge">
<title>Node1&#45;&gt;Node8</title>
<path fill="none" stroke="midnightblue" d="M489.93,-57.63C543.78,-47.57 640.01,-29.59 695.94,-19.14"/>
<polygon fill="midnightblue" stroke="midnightblue" points="489.26,-54.2 480.07,-59.47 490.54,-61.08 489.26,-54.2"/>
</g>
</g>
</svg>
