<?xml version="1.0" encoding="UTF-8" standalone="no"?>
<!DOCTYPE svg PUBLIC "-//W3C//DTD SVG 1.1//EN"
 "http://www.w3.org/Graphics/SVG/1.1/DTD/svg11.dtd">
<!-- Generated by graphviz version 2.43.0 (0)
 -->
<!-- Title: aprs.hpp Pages: 1 -->
<svg width="1471pt" height="341pt"
 viewBox="0.00 0.00 1471.00 341.00" xmlns="http://www.w3.org/2000/svg" xmlns:xlink="http://www.w3.org/1999/xlink">
<g id="graph0" class="graph" transform="scale(1 1) rotate(0) translate(4 337)">
<title>aprs.hpp</title>
<!-- Node1 -->
<g id="node1" class="node">
<title>Node1</title>
<g id="a_node1"><a xlink:title=" ">
<polygon fill="#bfbfbf" stroke="black" points="944.5,-313.5 944.5,-332.5 1003.5,-332.5 1003.5,-313.5 944.5,-313.5"/>
<text text-anchor="middle" x="974" y="-320.5" font-family="Helvetica,sans-Serif" font-size="10.00">aprs.hpp</text>
</a>
</g>
</g>
<!-- Node2 -->
<g id="node2" class="node">
<title>Node2</title>
<g id="a_node2"><a xlink:title=" ">
<polygon fill="none" stroke="#bfbfbf" points="673,-0.5 673,-19.5 723,-19.5 723,-0.5 673,-0.5"/>
<text text-anchor="middle" x="698" y="-7.5" font-family="Helvetica,sans-Serif" font-size="10.00">cstdint</text>
</a>
</g>
</g>
<!-- Node1&#45;&gt;Node2 -->
<g id="edge1" class="edge">
<title>Node1&#45;&gt;Node2</title>
<path fill="none" stroke="midnightblue" d="M944.32,-321.35C781.08,-317.37 0,-293.23 0,-195.5 0,-195.5 0,-195.5 0,-126.5 0,-88.84 14.43,-74.9 47,-56 100.43,-24.99 535.4,-14.15 662.96,-11.63"/>
<polygon fill="midnightblue" stroke="midnightblue" points="663.05,-15.13 672.98,-11.43 662.91,-8.13 663.05,-15.13"/>
</g>
<!-- Node3 -->
<g id="node3" class="node">
<title>Node3</title>
<g id="a_node3"><a xlink:title=" ">
<polygon fill="none" stroke="#bfbfbf" points="1298,-0.5 1298,-19.5 1342,-19.5 1342,-0.5 1298,-0.5"/>
<text text-anchor="middle" x="1320" y="-7.5" font-family="Helvetica,sans-Serif" font-size="10.00">string</text>
</a>
</g>
</g>
<!-- Node1&#45;&gt;Node3 -->
<g id="edge2" class="edge">
<title>Node1&#45;&gt;Node3</title>
<path fill="none" stroke="midnightblue" d="M1003.85,-320.75C1110.02,-315.5 1463,-290.86 1463,-195.5 1463,-195.5 1463,-195.5 1463,-126.5 1463,-69.63 1393.7,-35.96 1351.59,-20.76"/>
<polygon fill="midnightblue" stroke="midnightblue" points="1352.63,-17.41 1342.03,-17.45 1350.34,-24.03 1352.63,-17.41"/>
</g>
<!-- Node4 -->
<g id="node4" class="node">
<title>Node4</title>
<g id="a_node4"><a xlink:title=" ">
<polygon fill="none" stroke="#bfbfbf" points="1197,-185 1197,-204 1319,-204 1319,-185 1197,-185"/>
<text text-anchor="middle" x="1258" y="-192" font-family="Helvetica,sans-Serif" font-size="10.00">BoosterSeat/time.hpp</text>
</a>
</g>
</g>
<!-- Node1&#45;&gt;Node4 -->
<g id="edge3" class="edge">
<title>Node1&#45;&gt;Node4</title>
<path fill="none" stroke="midnightblue" d="M1003.83,-322.91C1049.88,-322.91 1139.42,-317.18 1201,-277 1224.79,-261.48 1241.55,-232.24 1250.48,-213.33"/>
<polygon fill="midnightblue" stroke="midnightblue" points="1253.75,-214.6 1254.64,-204.04 1247.36,-211.74 1253.75,-214.6"/>
</g>
<!-- Node5 -->
<g id="node5" class="node">
<title>Node5</title>
<g id="a_node5"><a xlink:href="afsk_8hpp.html" target="_top" xlink:title="AFSK related modulation/demodulation.">
<polygon fill="none" stroke="black" points="404,-252 404,-271 522,-271 522,-252 404,-252"/>
<text text-anchor="middle" x="463" y="-259" font-family="Helvetica,sans-Serif" font-size="10.00">SignalEasel/afsk.hpp</text>
</a>
</g>
</g>
<!-- Node1&#45;&gt;Node5 -->
<g id="edge4" class="edge">
<title>Node1&#45;&gt;Node5</title>
<path fill="none" stroke="midnightblue" d="M944.32,-318.54C864.79,-309.28 645.32,-283.73 532.28,-270.57"/>
<polygon fill="midnightblue" stroke="midnightblue" points="532.35,-267.05 522.01,-269.37 531.54,-274 532.35,-267.05"/>
</g>
<!-- Node17 -->
<g id="node17" class="node">
<title>Node17</title>
<g id="a_node17"><a xlink:href="packets_8hpp.html" target="_top" xlink:title=" ">
<polygon fill="none" stroke="black" points="895,-252 895,-271 1053,-271 1053,-252 895,-252"/>
<text text-anchor="middle" x="974" y="-259" font-family="Helvetica,sans-Serif" font-size="10.00">SignalEasel/aprs/packets.hpp</text>
</a>
</g>
</g>
<!-- Node1&#45;&gt;Node17 -->
<g id="edge28" class="edge">
<title>Node1&#45;&gt;Node17</title>
<path fill="none" stroke="midnightblue" d="M974,-313.48C974,-305.08 974,-291.98 974,-281.16"/>
<polygon fill="midnightblue" stroke="midnightblue" points="977.5,-281.01 974,-271.01 970.5,-281.01 977.5,-281.01"/>
</g>
<!-- Node22 -->
<g id="node22" class="node">
<title>Node22</title>
<g id="a_node22"><a xlink:href="telemetry__transcoder_8hpp.html" target="_top" xlink:title=" ">
<polygon fill="none" stroke="black" points="729,-246.5 729,-276.5 877,-276.5 877,-246.5 729,-246.5"/>
<text text-anchor="start" x="737" y="-264.5" font-family="Helvetica,sans-Serif" font-size="10.00">SignalEasel/aprs/telemetry</text>
<text text-anchor="middle" x="803" y="-253.5" font-family="Helvetica,sans-Serif" font-size="10.00">_transcoder.hpp</text>
</a>
</g>
</g>
<!-- Node1&#45;&gt;Node22 -->
<g id="edge41" class="edge">
<title>Node1&#45;&gt;Node22</title>
<path fill="none" stroke="midnightblue" d="M949.5,-313.48C924.39,-304.74 884.64,-290.91 852.88,-279.86"/>
<polygon fill="midnightblue" stroke="midnightblue" points="853.9,-276.5 843.3,-276.52 851.6,-283.11 853.9,-276.5"/>
</g>
<!-- Node23 -->
<g id="node23" class="node">
<title>Node23</title>
<g id="a_node23"><a xlink:href="ax25_8hpp.html" target="_top" xlink:title="AX.25 tools.">
<polygon fill="none" stroke="black" points="1070.5,-252 1070.5,-271 1191.5,-271 1191.5,-252 1070.5,-252"/>
<text text-anchor="middle" x="1131" y="-259" font-family="Helvetica,sans-Serif" font-size="10.00">SignalEasel/ax25.hpp</text>
</a>
</g>
</g>
<!-- Node1&#45;&gt;Node23 -->
<g id="edge44" class="edge">
<title>Node1&#45;&gt;Node23</title>
<path fill="none" stroke="midnightblue" d="M996.49,-313.48C1023.31,-303.31 1068.32,-286.26 1098.81,-274.7"/>
<polygon fill="midnightblue" stroke="midnightblue" points="1100.44,-277.83 1108.55,-271.01 1097.96,-271.28 1100.44,-277.83"/>
</g>
<!-- Node6 -->
<g id="node6" class="node">
<title>Node6</title>
<g id="a_node6"><a xlink:title=" ">
<polygon fill="none" stroke="#bfbfbf" points="622.5,-118 622.5,-137 669.5,-137 669.5,-118 622.5,-118"/>
<text text-anchor="middle" x="646" y="-125" font-family="Helvetica,sans-Serif" font-size="10.00">vector</text>
</a>
</g>
</g>
<!-- Node5&#45;&gt;Node6 -->
<g id="edge5" class="edge">
<title>Node5&#45;&gt;Node6</title>
<path fill="none" stroke="midnightblue" d="M480.12,-251.91C498.29,-242.51 527.55,-226.57 551,-210 580.24,-189.34 611.2,-161.51 629.55,-144.3"/>
<polygon fill="midnightblue" stroke="midnightblue" points="632.18,-146.63 637.04,-137.21 627.37,-141.54 632.18,-146.63"/>
</g>
<!-- Node7 -->
<g id="node7" class="node">
<title>Node7</title>
<g id="a_node7"><a xlink:href="constants_8hpp.html" target="_top" xlink:title="Common constants used throughout the library.">
<polygon fill="none" stroke="black" points="56,-56.5 56,-75.5 200,-75.5 200,-56.5 56,-56.5"/>
<text text-anchor="middle" x="128" y="-63.5" font-family="Helvetica,sans-Serif" font-size="10.00">SignalEasel/constants.hpp</text>
</a>
</g>
</g>
<!-- Node5&#45;&gt;Node7 -->
<g id="edge6" class="edge">
<title>Node5&#45;&gt;Node7</title>
<path fill="none" stroke="midnightblue" d="M403.79,-257.4C296.66,-251.18 79.57,-235.55 57,-210 21.96,-170.33 78.69,-110.29 109.78,-82.33"/>
<polygon fill="midnightblue" stroke="midnightblue" points="112.2,-84.86 117.42,-75.64 107.59,-79.59 112.2,-84.86"/>
</g>
<!-- Node8 -->
<g id="node8" class="node">
<title>Node8</title>
<g id="a_node8"><a xlink:href="bit__stream_8hpp.html" target="_top" xlink:title="The bit stream class.">
<polygon fill="none" stroke="black" points="711.5,-185 711.5,-204 860.5,-204 860.5,-185 711.5,-185"/>
<text text-anchor="middle" x="786" y="-192" font-family="Helvetica,sans-Serif" font-size="10.00">SignalEasel/bit_stream.hpp</text>
</a>
</g>
</g>
<!-- Node5&#45;&gt;Node8 -->
<g id="edge8" class="edge">
<title>Node5&#45;&gt;Node8</title>
<path fill="none" stroke="midnightblue" d="M505.56,-251.94C564.34,-240.11 670.3,-218.78 733.79,-206.01"/>
<polygon fill="midnightblue" stroke="midnightblue" points="734.49,-209.44 743.6,-204.03 733.11,-202.57 734.49,-209.44"/>
</g>
<!-- Node9 -->
<g id="node9" class="node">
<title>Node9</title>
<g id="a_node9"><a xlink:href="demodulator_8hpp.html" target="_top" xlink:title="Base class for demodulators.">
<polygon fill="none" stroke="black" points="384,-185 384,-204 542,-204 542,-185 384,-185"/>
<text text-anchor="middle" x="463" y="-192" font-family="Helvetica,sans-Serif" font-size="10.00">SignalEasel/demodulator.hpp</text>
</a>
</g>
</g>
<!-- Node5&#45;&gt;Node9 -->
<g id="edge11" class="edge">
<title>Node5&#45;&gt;Node9</title>
<path fill="none" stroke="midnightblue" d="M463,-251.73C463,-242.18 463,-226.62 463,-214.28"/>
<polygon fill="midnightblue" stroke="midnightblue" points="466.5,-214.13 463,-204.13 459.5,-214.13 466.5,-214.13"/>
</g>
<!-- Node11 -->
<g id="node11" class="node">
<title>Node11</title>
<g id="a_node11"><a xlink:href="modulator_8hpp.html" target="_top" xlink:title="Modulator base class.">
<polygon fill="none" stroke="black" points="220,-185 220,-204 366,-204 366,-185 220,-185"/>
<text text-anchor="middle" x="293" y="-192" font-family="Helvetica,sans-Serif" font-size="10.00">SignalEasel/modulator.hpp</text>
</a>
</g>
</g>
<!-- Node5&#45;&gt;Node11 -->
<g id="edge16" class="edge">
<title>Node5&#45;&gt;Node11</title>
<path fill="none" stroke="midnightblue" d="M440.43,-251.87C410.75,-240.52 358.45,-220.52 324.78,-207.65"/>
<polygon fill="midnightblue" stroke="midnightblue" points="325.99,-204.37 315.4,-204.06 323.49,-210.9 325.99,-204.37"/>
</g>
<!-- Node12 -->
<g id="node12" class="node">
<title>Node12</title>
<g id="a_node12"><a xlink:href="receiver_8hpp.html" target="_top" xlink:title="Base class for receivers. Demodulators that use pulse audio.">
<polygon fill="none" stroke="black" points="66,-185 66,-204 202,-204 202,-185 66,-185"/>
<text text-anchor="middle" x="134" y="-192" font-family="Helvetica,sans-Serif" font-size="10.00">SignalEasel/receiver.hpp</text>
</a>
</g>
</g>
<!-- Node5&#45;&gt;Node12 -->
<g id="edge20" class="edge">
<title>Node5&#45;&gt;Node12</title>
<path fill="none" stroke="midnightblue" d="M419.65,-251.94C359.78,-240.11 251.85,-218.78 187.18,-206.01"/>
<polygon fill="midnightblue" stroke="midnightblue" points="187.67,-202.54 177.18,-204.03 186.32,-209.4 187.67,-202.54"/>
</g>
<!-- Node7&#45;&gt;Node2 -->
<g id="edge7" class="edge">
<title>Node7&#45;&gt;Node2</title>
<path fill="none" stroke="midnightblue" d="M200.25,-57.38C204.91,-56.91 209.52,-56.44 214,-56 381.98,-39.4 582.93,-21.27 662.79,-14.13"/>
<polygon fill="midnightblue" stroke="midnightblue" points="663.15,-17.62 672.8,-13.24 662.53,-10.64 663.15,-17.62"/>
</g>
<!-- Node8&#45;&gt;Node2 -->
<g id="edge9" class="edge">
<title>Node8&#45;&gt;Node2</title>
<path fill="none" stroke="midnightblue" d="M781.76,-184.7C768.14,-156.45 725.34,-67.7 706.76,-29.16"/>
<polygon fill="midnightblue" stroke="midnightblue" points="709.7,-27.2 702.2,-19.71 703.39,-30.24 709.7,-27.2"/>
</g>
<!-- Node8&#45;&gt;Node6 -->
<g id="edge10" class="edge">
<title>Node8&#45;&gt;Node6</title>
<path fill="none" stroke="midnightblue" d="M767.41,-184.87C743.46,-173.75 701.61,-154.32 673.85,-141.43"/>
<polygon fill="midnightblue" stroke="midnightblue" points="675.21,-138.2 664.67,-137.17 672.26,-144.55 675.21,-138.2"/>
</g>
<!-- Node9&#45;&gt;Node3 -->
<g id="edge12" class="edge">
<title>Node9&#45;&gt;Node3</title>
<path fill="none" stroke="midnightblue" d="M486.63,-184.93C509.94,-176 546.16,-160.84 575,-143 593.54,-131.53 593.2,-121.12 613,-112 882.82,12.24 981.27,-64.29 1275,-20 1279.05,-19.39 1283.29,-18.66 1287.47,-17.89"/>
<polygon fill="midnightblue" stroke="midnightblue" points="1288.49,-21.25 1297.64,-15.91 1287.16,-14.38 1288.49,-21.25"/>
</g>
<!-- Node9&#45;&gt;Node6 -->
<g id="edge13" class="edge">
<title>Node9&#45;&gt;Node6</title>
<path fill="none" stroke="midnightblue" d="M488.23,-184.97C517.22,-175.1 566.18,-158.26 608,-143 610.1,-142.23 612.27,-141.43 614.44,-140.62"/>
<polygon fill="midnightblue" stroke="midnightblue" points="615.81,-143.85 623.94,-137.04 613.35,-137.3 615.81,-143.85"/>
</g>
<!-- Node10 -->
<g id="node10" class="node">
<title>Node10</title>
<g id="a_node10"><a xlink:href="settings_8hpp.html" target="_top" xlink:title="Settings structures for SignalEasel.">
<polygon fill="none" stroke="black" points="430,-118 430,-137 566,-137 566,-118 430,-118"/>
<text text-anchor="middle" x="498" y="-125" font-family="Helvetica,sans-Serif" font-size="10.00">SignalEasel/settings.hpp</text>
</a>
</g>
</g>
<!-- Node9&#45;&gt;Node10 -->
<g id="edge14" class="edge">
<title>Node9&#45;&gt;Node10</title>
<path fill="none" stroke="midnightblue" d="M467.72,-184.73C473.02,-174.89 481.76,-158.66 488.49,-146.16"/>
<polygon fill="midnightblue" stroke="midnightblue" points="491.7,-147.59 493.35,-137.13 485.53,-144.27 491.7,-147.59"/>
</g>
<!-- Node10&#45;&gt;Node3 -->
<g id="edge15" class="edge">
<title>Node10&#45;&gt;Node3</title>
<path fill="none" stroke="midnightblue" d="M519.19,-117.94C558.44,-102.52 645.46,-70.32 722,-56 964.1,-10.7 1030.82,-52.22 1275,-20 1279.06,-19.46 1283.3,-18.78 1287.5,-18.03"/>
<polygon fill="midnightblue" stroke="midnightblue" points="1288.51,-21.4 1297.67,-16.07 1287.18,-14.53 1288.51,-21.4"/>
</g>
<!-- Node11&#45;&gt;Node2 -->
<g id="edge17" class="edge">
<title>Node11&#45;&gt;Node2</title>
<path fill="none" stroke="midnightblue" d="M281.34,-184.99C270.11,-176 253.85,-160.7 247,-143 232.71,-106.09 235.07,-80.69 266,-56 296.78,-31.43 565.03,-16.99 662.66,-12.51"/>
<polygon fill="midnightblue" stroke="midnightblue" points="663.07,-16 672.9,-12.05 662.75,-9.01 663.07,-16"/>
</g>
<!-- Node11&#45;&gt;Node6 -->
<g id="edge18" class="edge">
<title>Node11&#45;&gt;Node6</title>
<path fill="none" stroke="midnightblue" d="M341.13,-184.95C415.57,-171.71 552.44,-147.32 575,-143 587.23,-140.66 600.62,-137.96 612.44,-135.53"/>
<polygon fill="midnightblue" stroke="midnightblue" points="613.28,-138.93 622.36,-133.48 611.86,-132.07 613.28,-138.93"/>
</g>
<!-- Node11&#45;&gt;Node10 -->
<g id="edge19" class="edge">
<title>Node11&#45;&gt;Node10</title>
<path fill="none" stroke="midnightblue" d="M320.22,-184.87C356.47,-173.38 420.7,-153.01 461.23,-140.16"/>
<polygon fill="midnightblue" stroke="midnightblue" points="462.52,-143.42 470.99,-137.06 460.4,-136.75 462.52,-143.42"/>
</g>
<!-- Node12&#45;&gt;Node10 -->
<g id="edge27" class="edge">
<title>Node12&#45;&gt;Node10</title>
<path fill="none" stroke="midnightblue" d="M178.77,-184.95C189.33,-182.96 200.56,-180.88 211,-179 303.76,-162.28 327.22,-159.61 420,-143 427.35,-141.68 435.09,-140.27 442.72,-138.87"/>
<polygon fill="midnightblue" stroke="midnightblue" points="443.45,-142.29 452.65,-137.04 442.18,-135.41 443.45,-142.29"/>
</g>
<!-- Node13 -->
<g id="node13" class="node">
<title>Node13</title>
<g id="a_node13"><a xlink:href="pulse__audio_8hpp.html" target="_top" xlink:title="Reads audio from pulse audio.">
<polygon fill="none" stroke="black" points="256.5,-118 256.5,-137 411.5,-137 411.5,-118 256.5,-118"/>
<text text-anchor="middle" x="334" y="-125" font-family="Helvetica,sans-Serif" font-size="10.00">SignalEasel/pulse_audio.hpp</text>
</a>
</g>
</g>
<!-- Node12&#45;&gt;Node13 -->
<g id="edge21" class="edge">
<title>Node12&#45;&gt;Node13</title>
<path fill="none" stroke="midnightblue" d="M160.56,-184.87C195.92,-173.38 258.59,-153.01 298.13,-140.16"/>
<polygon fill="midnightblue" stroke="midnightblue" points="299.22,-143.48 307.65,-137.06 297.06,-136.83 299.22,-143.48"/>
</g>
<!-- Node13&#45;&gt;Node3 -->
<g id="edge23" class="edge">
<title>Node13&#45;&gt;Node3</title>
<path fill="none" stroke="midnightblue" d="M363.95,-117.9C418.78,-102.56 539.21,-70.69 643,-56 921.57,-16.57 995.93,-55.68 1275,-20 1279.06,-19.48 1283.31,-18.81 1287.5,-18.06"/>
<polygon fill="midnightblue" stroke="midnightblue" points="1288.51,-21.43 1297.67,-16.11 1287.19,-14.56 1288.51,-21.43"/>
</g>
<!-- Node13&#45;&gt;Node7 -->
<g id="edge24" class="edge">
<title>Node13&#45;&gt;Node7</title>
<path fill="none" stroke="midnightblue" d="M304.49,-117.98C268.38,-107.55 207.15,-89.86 167.15,-78.31"/>
<polygon fill="midnightblue" stroke="midnightblue" points="168.04,-74.92 157.46,-75.51 166.1,-81.65 168.04,-74.92"/>
</g>
<!-- Node14 -->
<g id="node14" class="node">
<title>Node14</title>
<g id="a_node14"><a xlink:title=" ">
<polygon fill="none" stroke="#bfbfbf" points="932,-56.5 932,-75.5 974,-75.5 974,-56.5 932,-56.5"/>
<text text-anchor="middle" x="953" y="-63.5" font-family="Helvetica,sans-Serif" font-size="10.00">array</text>
</a>
</g>
</g>
<!-- Node13&#45;&gt;Node14 -->
<g id="edge22" class="edge">
<title>Node13&#45;&gt;Node14</title>
<path fill="none" stroke="midnightblue" d="M380.86,-117.98C393.83,-115.81 407.93,-113.64 421,-112 610.46,-88.24 839.49,-73.58 921.73,-68.76"/>
<polygon fill="midnightblue" stroke="midnightblue" points="922.12,-72.24 931.9,-68.17 921.71,-65.25 922.12,-72.24"/>
</g>
<!-- Node15 -->
<g id="node15" class="node">
<title>Node15</title>
<g id="a_node15"><a xlink:title=" ">
<polygon fill="none" stroke="#bfbfbf" points="275.5,-56.5 275.5,-75.5 352.5,-75.5 352.5,-56.5 275.5,-56.5"/>
<text text-anchor="middle" x="314" y="-63.5" font-family="Helvetica,sans-Serif" font-size="10.00">pulse/error.h</text>
</a>
</g>
</g>
<!-- Node13&#45;&gt;Node15 -->
<g id="edge25" class="edge">
<title>Node13&#45;&gt;Node15</title>
<path fill="none" stroke="midnightblue" d="M331.13,-117.98C328.28,-109.49 323.82,-96.2 320.16,-85.32"/>
<polygon fill="midnightblue" stroke="midnightblue" points="323.36,-83.87 316.86,-75.51 316.73,-86.1 323.36,-83.87"/>
</g>
<!-- Node16 -->
<g id="node16" class="node">
<title>Node16</title>
<g id="a_node16"><a xlink:title=" ">
<polygon fill="none" stroke="#bfbfbf" points="371,-56.5 371,-75.5 459,-75.5 459,-56.5 371,-56.5"/>
<text text-anchor="middle" x="415" y="-63.5" font-family="Helvetica,sans-Serif" font-size="10.00">pulse/simple.h</text>
</a>
</g>
</g>
<!-- Node13&#45;&gt;Node16 -->
<g id="edge26" class="edge">
<title>Node13&#45;&gt;Node16</title>
<path fill="none" stroke="midnightblue" d="M345.61,-117.98C358.48,-108.52 379.47,-93.1 395.01,-81.69"/>
<polygon fill="midnightblue" stroke="midnightblue" points="397.43,-84.25 403.42,-75.51 393.28,-78.61 397.43,-84.25"/>
</g>
<!-- Node17&#45;&gt;Node2 -->
<g id="edge29" class="edge">
<title>Node17&#45;&gt;Node2</title>
<path fill="none" stroke="midnightblue" d="M991.61,-251.87C1006.52,-243.48 1026.88,-229.18 1036,-210 1061.57,-156.2 1017.34,-82.67 983,-56 944.6,-26.18 800.57,-15.71 733.18,-12.39"/>
<polygon fill="midnightblue" stroke="midnightblue" points="733.2,-8.89 723.05,-11.92 732.88,-15.88 733.2,-8.89"/>
</g>
<!-- Node17&#45;&gt;Node3 -->
<g id="edge30" class="edge">
<title>Node17&#45;&gt;Node3</title>
<path fill="none" stroke="midnightblue" d="M994.74,-251.89C1032.7,-236.29 1116.09,-202.75 1188,-179 1244.11,-160.47 1275.05,-185.61 1316,-143 1345.17,-112.65 1334.55,-57.92 1326.22,-29.41"/>
<polygon fill="midnightblue" stroke="midnightblue" points="1329.46,-28.04 1323.12,-19.56 1322.78,-30.14 1329.46,-28.04"/>
</g>
<!-- Node17&#45;&gt;Node4 -->
<g id="edge32" class="edge">
<title>Node17&#45;&gt;Node4</title>
<path fill="none" stroke="midnightblue" d="M1011.42,-251.94C1062.61,-240.22 1154.48,-219.19 1210.48,-206.38"/>
<polygon fill="midnightblue" stroke="midnightblue" points="1211.53,-209.73 1220.5,-204.08 1209.97,-202.9 1211.53,-209.73"/>
</g>
<!-- Node17&#45;&gt;Node6 -->
<g id="edge31" class="edge">
<title>Node17&#45;&gt;Node6</title>
<path fill="none" stroke="midnightblue" d="M922.49,-251.99C835.85,-237.66 670.3,-210.26 670,-210 652.17,-194.22 647.28,-165.94 646.11,-147.19"/>
<polygon fill="midnightblue" stroke="midnightblue" points="649.6,-147.07 645.77,-137.19 642.61,-147.3 649.6,-147.07"/>
</g>
<!-- Node18 -->
<g id="node18" class="node">
<title>Node18</title>
<g id="a_node18"><a xlink:href="telemetry__data_8hpp.html" target="_top" xlink:title=" ">
<polygon fill="none" stroke="black" points="879,-179.5 879,-209.5 1027,-209.5 1027,-179.5 879,-179.5"/>
<text text-anchor="start" x="887" y="-197.5" font-family="Helvetica,sans-Serif" font-size="10.00">SignalEasel/aprs/telemetry</text>
<text text-anchor="middle" x="953" y="-186.5" font-family="Helvetica,sans-Serif" font-size="10.00">_data.hpp</text>
</a>
</g>
</g>
<!-- Node17&#45;&gt;Node18 -->
<g id="edge33" class="edge">
<title>Node17&#45;&gt;Node18</title>
<path fill="none" stroke="midnightblue" d="M971.17,-251.73C968.49,-243.46 964.36,-230.66 960.71,-219.37"/>
<polygon fill="midnightblue" stroke="midnightblue" points="963.96,-218.03 957.55,-209.59 957.3,-220.18 963.96,-218.03"/>
</g>
<!-- Node18&#45;&gt;Node14 -->
<g id="edge34" class="edge">
<title>Node18&#45;&gt;Node14</title>
<path fill="none" stroke="midnightblue" d="M953,-179.48C953,-156.72 953,-111.7 953,-86.06"/>
<polygon fill="midnightblue" stroke="midnightblue" points="956.5,-85.79 953,-75.79 949.5,-85.79 956.5,-85.79"/>
</g>
<!-- Node19 -->
<g id="node19" class="node">
<title>Node19</title>
<g id="a_node19"><a xlink:href="telemetry__parameter_8hpp.html" target="_top" xlink:title=" ">
<polygon fill="none" stroke="black" points="1159,-112.5 1159,-142.5 1307,-142.5 1307,-112.5 1159,-112.5"/>
<text text-anchor="start" x="1167" y="-130.5" font-family="Helvetica,sans-Serif" font-size="10.00">SignalEasel/aprs/telemetry</text>
<text text-anchor="middle" x="1233" y="-119.5" font-family="Helvetica,sans-Serif" font-size="10.00">_parameter.hpp</text>
</a>
</g>
</g>
<!-- Node18&#45;&gt;Node19 -->
<g id="edge35" class="edge">
<title>Node18&#45;&gt;Node19</title>
<path fill="none" stroke="midnightblue" d="M1013.41,-179.48C1057.15,-169.32 1116.4,-155.57 1162.33,-144.91"/>
<polygon fill="midnightblue" stroke="midnightblue" points="1163.27,-148.28 1172.21,-142.61 1161.68,-141.46 1163.27,-148.28"/>
</g>
<!-- Node19&#45;&gt;Node2 -->
<g id="edge36" class="edge">
<title>Node19&#45;&gt;Node2</title>
<path fill="none" stroke="midnightblue" d="M1210.63,-112.43C1180.71,-93.87 1128.99,-62.76 1108,-56 974.76,-13.11 805.96,-9.48 733.58,-10.16"/>
<polygon fill="midnightblue" stroke="midnightblue" points="733.17,-6.67 723.22,-10.3 733.26,-13.67 733.17,-6.67"/>
</g>
<!-- Node19&#45;&gt;Node3 -->
<g id="edge37" class="edge">
<title>Node19&#45;&gt;Node3</title>
<path fill="none" stroke="midnightblue" d="M1271.11,-112.35C1287.42,-104.27 1304.99,-92.41 1315,-76 1323.38,-62.26 1323.99,-43.73 1322.88,-29.97"/>
<polygon fill="midnightblue" stroke="midnightblue" points="1326.32,-29.27 1321.68,-19.75 1319.37,-30.09 1326.32,-29.27"/>
</g>
<!-- Node20 -->
<g id="node20" class="node">
<title>Node20</title>
<g id="a_node20"><a xlink:href="exception_8hpp.html" target="_top" xlink:title="SignalEasel exceptions.">
<polygon fill="none" stroke="black" points="1160.5,-56.5 1160.5,-75.5 1305.5,-75.5 1305.5,-56.5 1160.5,-56.5"/>
<text text-anchor="middle" x="1233" y="-63.5" font-family="Helvetica,sans-Serif" font-size="10.00">SignalEasel/exception.hpp</text>
</a>
</g>
</g>
<!-- Node19&#45;&gt;Node20 -->
<g id="edge38" class="edge">
<title>Node19&#45;&gt;Node20</title>
<path fill="none" stroke="midnightblue" d="M1233,-112.4C1233,-104.47 1233,-94.46 1233,-85.86"/>
<polygon fill="midnightblue" stroke="midnightblue" points="1236.5,-85.66 1233,-75.66 1229.5,-85.66 1236.5,-85.66"/>
</g>
<!-- Node20&#45;&gt;Node3 -->
<g id="edge40" class="edge">
<title>Node20&#45;&gt;Node3</title>
<path fill="none" stroke="midnightblue" d="M1246.98,-56.32C1260.55,-47.9 1281.38,-34.97 1297.32,-25.07"/>
<polygon fill="midnightblue" stroke="midnightblue" points="1299.41,-27.9 1306.06,-19.65 1295.71,-21.95 1299.41,-27.9"/>
</g>
<!-- Node21 -->
<g id="node21" class="node">
<title>Node21</title>
<g id="a_node21"><a xlink:title=" ">
<polygon fill="none" stroke="#bfbfbf" points="1200.5,-0.5 1200.5,-19.5 1265.5,-19.5 1265.5,-0.5 1200.5,-0.5"/>
<text text-anchor="middle" x="1233" y="-7.5" font-family="Helvetica,sans-Serif" font-size="10.00">exception</text>
</a>
</g>
</g>
<!-- Node20&#45;&gt;Node21 -->
<g id="edge39" class="edge">
<title>Node20&#45;&gt;Node21</title>
<path fill="none" stroke="midnightblue" d="M1233,-56.08C1233,-49.01 1233,-38.86 1233,-29.99"/>
<polygon fill="midnightblue" stroke="midnightblue" points="1236.5,-29.75 1233,-19.75 1229.5,-29.75 1236.5,-29.75"/>
</g>
<!-- Node22&#45;&gt;Node6 -->
<g id="edge42" class="edge">
<title>Node22&#45;&gt;Node6</title>
<path fill="none" stroke="midnightblue" d="M728.72,-247.65C688.29,-238.99 644.09,-226.18 632,-210 618.14,-191.46 627.3,-163.94 635.97,-146.11"/>
<polygon fill="midnightblue" stroke="midnightblue" points="639.15,-147.57 640.72,-137.09 632.96,-144.31 639.15,-147.57"/>
</g>
<!-- Node22&#45;&gt;Node18 -->
<g id="edge43" class="edge">
<title>Node22&#45;&gt;Node18</title>
<path fill="none" stroke="midnightblue" d="M835.55,-246.4C857.76,-236.77 887.38,-223.94 911.31,-213.56"/>
<polygon fill="midnightblue" stroke="midnightblue" points="912.73,-216.76 920.52,-209.58 909.95,-210.34 912.73,-216.76"/>
</g>
<!-- Node23&#45;&gt;Node2 -->
<g id="edge45" class="edge">
<title>Node23&#45;&gt;Node2</title>
<path fill="none" stroke="midnightblue" d="M1128.81,-251.86C1120.05,-219.25 1084.07,-103 1006,-56 960.64,-28.69 804.28,-16.82 733.41,-12.76"/>
<polygon fill="midnightblue" stroke="midnightblue" points="733.38,-9.25 723.2,-12.19 732.99,-16.24 733.38,-9.25"/>
</g>
<!-- Node23&#45;&gt;Node3 -->
<g id="edge48" class="edge">
<title>Node23&#45;&gt;Node3</title>
<path fill="none" stroke="midnightblue" d="M1191.76,-258.12C1264.33,-253.84 1379.28,-242.07 1406,-210 1429.03,-182.36 1449.69,-156.08 1386,-56 1377.29,-42.31 1362.75,-31.74 1349.54,-24.29"/>
<polygon fill="midnightblue" stroke="midnightblue" points="1351.17,-21.19 1340.69,-19.63 1347.91,-27.38 1351.17,-21.19"/>
</g>
<!-- Node23&#45;&gt;Node6 -->
<g id="edge49" class="edge">
<title>Node23&#45;&gt;Node6</title>
<path fill="none" stroke="midnightblue" d="M1093.89,-251.94C1083.6,-249.77 1072.4,-247.61 1062,-246 982.77,-233.74 772.17,-250.55 703,-210 678.37,-195.56 661.77,-165.77 653.11,-146.48"/>
<polygon fill="midnightblue" stroke="midnightblue" points="656.23,-144.86 649.11,-137.01 649.78,-147.59 656.23,-144.86"/>
</g>
<!-- Node23&#45;&gt;Node8 -->
<g id="edge50" class="edge">
<title>Node23&#45;&gt;Node8</title>
<path fill="none" stroke="midnightblue" d="M1091.27,-251.96C1081.69,-249.96 1071.49,-247.86 1062,-246 987.3,-231.32 900.95,-215.74 845.01,-205.84"/>
<polygon fill="midnightblue" stroke="midnightblue" points="845.39,-202.35 834.93,-204.05 844.17,-209.24 845.39,-202.35"/>
</g>
<!-- Node23&#45;&gt;Node14 -->
<g id="edge46" class="edge">
<title>Node23&#45;&gt;Node14</title>
<path fill="none" stroke="midnightblue" d="M1123.12,-251.94C1095.73,-222.16 1004.37,-122.84 968.06,-83.37"/>
<polygon fill="midnightblue" stroke="midnightblue" points="970.54,-80.9 961.19,-75.91 965.39,-85.64 970.54,-80.9"/>
</g>
<!-- Node24 -->
<g id="node24" class="node">
<title>Node24</title>
<g id="a_node24"><a xlink:title=" ">
<polygon fill="none" stroke="#bfbfbf" points="1337,-185 1337,-204 1397,-204 1397,-185 1337,-185"/>
<text text-anchor="middle" x="1367" y="-192" font-family="Helvetica,sans-Serif" font-size="10.00">iostream</text>
</a>
</g>
</g>
<!-- Node23&#45;&gt;Node24 -->
<g id="edge47" class="edge">
<title>Node23&#45;&gt;Node24</title>
<path fill="none" stroke="midnightblue" d="M1169.1,-251.99C1209.03,-242.77 1273.42,-227.09 1328,-210 1330.56,-209.2 1333.2,-208.32 1335.84,-207.41"/>
<polygon fill="midnightblue" stroke="midnightblue" points="1337.04,-210.7 1345.28,-204.04 1334.68,-204.11 1337.04,-210.7"/>
</g>
</g>
</svg>
