<?xml version="1.0" encoding="UTF-8" standalone="no"?>
<!DOCTYPE svg PUBLIC "-//W3C//DTD SVG 1.1//EN"
 "http://www.w3.org/Graphics/SVG/1.1/DTD/svg11.dtd">
<!-- Generated by graphviz version 2.43.0 (0)
 -->
<!-- Title: TEST Pages: 1 -->
<svg width="1407pt" height="568pt"
 viewBox="0.00 0.00 1407.00 567.50" xmlns="http://www.w3.org/2000/svg" xmlns:xlink="http://www.w3.org/1999/xlink">
<g id="graph0" class="graph" transform="scale(1 1) rotate(0) translate(4 563.5)">
<title>TEST</title>
<!-- Node1 -->
<g id="node1" class="node">
<title>Node1</title>
<g id="a_node1"><a xlink:title=" ">
<polygon fill="#bfbfbf" stroke="black" points="0,-226.5 0,-245.5 41,-245.5 41,-226.5 0,-226.5"/>
<text text-anchor="middle" x="20.5" y="-233.5" font-family="Helvetica,sans-Serif" font-size="10.00">TEST</text>
</a>
</g>
</g>
<!-- Node2 -->
<g id="node2" class="node">
<title>Node2</title>
<g id="a_node2"><a xlink:href="classsignal__easel_1_1Demodulator.html#a9cc9df67eabbfac3aecb04f113726afc" target="_top" xlink:title="Open a WAV file and load it&#39;s contents into the audio buffer.">
<polygon fill="none" stroke="black" points="82.5,-304 82.5,-334 229.5,-334 229.5,-304 82.5,-304"/>
<text text-anchor="start" x="90.5" y="-322" font-family="Helvetica,sans-Serif" font-size="10.00">signal_easel::Demodulator</text>
<text text-anchor="middle" x="156" y="-311" font-family="Helvetica,sans-Serif" font-size="10.00">::loadAudioFromFile</text>
</a>
</g>
</g>
<!-- Node1&#45;&gt;Node2 -->
<g id="edge1" class="edge">
<title>Node1&#45;&gt;Node2</title>
<path fill="none" stroke="midnightblue" d="M28.28,-245.64C37.77,-258.46 56.2,-281 77,-294 80.36,-296.1 83.92,-298.04 87.59,-299.83"/>
<polygon fill="midnightblue" stroke="midnightblue" points="86.32,-303.1 96.88,-303.98 89.17,-296.71 86.32,-303.1"/>
</g>
<!-- Node3 -->
<g id="node3" class="node">
<title>Node3</title>
<g id="a_node3"><a xlink:href="classsignal__easel_1_1aprs_1_1Demodulator.html#ae5a8e7634c1bc8d215a0c454a9a737fa" target="_top" xlink:title=" ">
<polygon fill="none" stroke="black" points="79.5,-243.5 79.5,-284.5 232.5,-284.5 232.5,-243.5 79.5,-243.5"/>
<text text-anchor="start" x="87.5" y="-272.5" font-family="Helvetica,sans-Serif" font-size="10.00">signal_easel::aprs</text>
<text text-anchor="start" x="87.5" y="-261.5" font-family="Helvetica,sans-Serif" font-size="10.00">::Demodulator::lookForAx25</text>
<text text-anchor="middle" x="156" y="-250.5" font-family="Helvetica,sans-Serif" font-size="10.00">Packet</text>
</a>
</g>
</g>
<!-- Node1&#45;&gt;Node3 -->
<g id="edge2" class="edge">
<title>Node1&#45;&gt;Node3</title>
<path fill="none" stroke="midnightblue" d="M41.2,-240.13C49.19,-241.81 59.02,-243.87 69.53,-246.07"/>
<polygon fill="midnightblue" stroke="midnightblue" points="68.82,-249.5 79.33,-248.13 70.26,-242.65 68.82,-249.5"/>
</g>
<!-- Node27 -->
<g id="node27" class="node">
<title>Node27</title>
<g id="a_node27"><a xlink:href="classsignal__easel_1_1aprs_1_1Demodulator.html#a093fdacf32fe29bf475a21196b477cd9" target="_top" xlink:title=" ">
<polygon fill="none" stroke="black" points="83,-194 83,-224 229,-224 229,-194 83,-194"/>
<text text-anchor="start" x="91" y="-212" font-family="Helvetica,sans-Serif" font-size="10.00">signal_easel::aprs</text>
<text text-anchor="middle" x="156" y="-201" font-family="Helvetica,sans-Serif" font-size="10.00">::Demodulator::printFrame</text>
</a>
</g>
</g>
<!-- Node1&#45;&gt;Node27 -->
<g id="edge33" class="edge">
<title>Node1&#45;&gt;Node27</title>
<path fill="none" stroke="midnightblue" d="M41.2,-232.02C50.04,-230.23 61.12,-227.99 72.87,-225.61"/>
<polygon fill="midnightblue" stroke="midnightblue" points="73.76,-229 82.87,-223.59 72.37,-222.14 73.76,-229"/>
</g>
<!-- Node28 -->
<g id="node28" class="node">
<title>Node28</title>
<g id="a_node28"><a xlink:href="classsignal__easel_1_1afsk_1_1Demodulator.html#a1d00e5b759f208be2751c4f2302a9c57" target="_top" xlink:title=" ">
<polygon fill="none" stroke="black" points="77,-93.5 77,-134.5 235,-134.5 235,-93.5 77,-93.5"/>
<text text-anchor="start" x="85" y="-122.5" font-family="Helvetica,sans-Serif" font-size="10.00">signal_easel::afsk</text>
<text text-anchor="start" x="85" y="-111.5" font-family="Helvetica,sans-Serif" font-size="10.00">::Demodulator::processAudio</text>
<text text-anchor="middle" x="156" y="-100.5" font-family="Helvetica,sans-Serif" font-size="10.00">Buffer</text>
</a>
</g>
</g>
<!-- Node1&#45;&gt;Node28 -->
<g id="edge34" class="edge">
<title>Node1&#45;&gt;Node28</title>
<path fill="none" stroke="midnightblue" d="M32.13,-226.21C43.29,-215.93 61.36,-199.31 77,-185 92.62,-170.71 110.04,-154.85 124.44,-141.75"/>
<polygon fill="midnightblue" stroke="midnightblue" points="127.06,-144.1 132.11,-134.79 122.35,-138.92 127.06,-144.1"/>
</g>
<!-- Node4 -->
<g id="node4" class="node">
<title>Node4</title>
<g id="a_node4"><a xlink:href="namespacesignal__easel_1_1aprs.html#aaee238dfb028415d1bb8604764e23c60" target="_top" xlink:title=" ">
<polygon fill="none" stroke="black" points="296.5,-318 296.5,-348 409.5,-348 409.5,-318 296.5,-318"/>
<text text-anchor="start" x="304.5" y="-336" font-family="Helvetica,sans-Serif" font-size="10.00">signal_easel::aprs</text>
<text text-anchor="middle" x="353" y="-325" font-family="Helvetica,sans-Serif" font-size="10.00">::classifyFrameType</text>
</a>
</g>
</g>
<!-- Node3&#45;&gt;Node4 -->
<g id="edge3" class="edge">
<title>Node3&#45;&gt;Node4</title>
<path fill="none" stroke="midnightblue" d="M214.98,-284.52C241.86,-294.03 273.56,-305.24 299.7,-314.49"/>
<polygon fill="midnightblue" stroke="midnightblue" points="298.82,-317.9 309.42,-317.93 301.16,-311.3 298.82,-317.9"/>
</g>
<!-- Node6 -->
<g id="node6" class="node">
<title>Node6</title>
<g id="a_node6"><a xlink:href="classsignal__easel_1_1ax25_1_1Frame.html#a63cf2362c2a90d20f09bbbc4f24a07ba" target="_top" xlink:title="Attempt to parse an incoming bit stream into an AX.25 frame.">
<polygon fill="none" stroke="black" points="285.5,-249 285.5,-279 420.5,-279 420.5,-249 285.5,-249"/>
<text text-anchor="start" x="293.5" y="-267" font-family="Helvetica,sans-Serif" font-size="10.00">signal_easel::ax25</text>
<text text-anchor="middle" x="353" y="-256" font-family="Helvetica,sans-Serif" font-size="10.00">::Frame::parseBitStream</text>
</a>
</g>
</g>
<!-- Node3&#45;&gt;Node6 -->
<g id="edge5" class="edge">
<title>Node3&#45;&gt;Node6</title>
<path fill="none" stroke="midnightblue" d="M232.67,-264C246.63,-264 261.21,-264 275.2,-264"/>
<polygon fill="midnightblue" stroke="midnightblue" points="275.26,-267.5 285.26,-264 275.26,-260.5 275.26,-267.5"/>
</g>
<!-- Node5 -->
<g id="node5" class="node">
<title>Node5</title>
<g id="a_node5"><a xlink:href="classsignal__easel_1_1ax25_1_1Frame.html#ad902c58dd3b47ed11d64057409b36603" target="_top" xlink:title=" ">
<polygon fill="none" stroke="black" points="486,-328 486,-358 618,-358 618,-328 486,-328"/>
<text text-anchor="start" x="494" y="-346" font-family="Helvetica,sans-Serif" font-size="10.00">signal_easel::ax25</text>
<text text-anchor="middle" x="552" y="-335" font-family="Helvetica,sans-Serif" font-size="10.00">::Frame::getInformation</text>
</a>
</g>
</g>
<!-- Node4&#45;&gt;Node5 -->
<g id="edge4" class="edge">
<title>Node4&#45;&gt;Node5</title>
<path fill="none" stroke="midnightblue" d="M409.66,-335.83C430.09,-336.86 453.58,-338.05 475.46,-339.17"/>
<polygon fill="midnightblue" stroke="midnightblue" points="475.55,-342.67 485.72,-339.69 475.91,-335.68 475.55,-342.67"/>
</g>
<!-- Node7 -->
<g id="node7" class="node">
<title>Node7</title>
<g id="a_node7"><a xlink:href="namespacesignal__easel_1_1ax25.html#a84e1d1bf82ef828a150bc94cf065e396" target="_top" xlink:title="Convert a bit stream from NRZI to standard encoding.">
<polygon fill="none" stroke="black" points="700.5,-407 700.5,-437 807.5,-437 807.5,-407 700.5,-407"/>
<text text-anchor="start" x="708.5" y="-425" font-family="Helvetica,sans-Serif" font-size="10.00">signal_easel::ax25</text>
<text text-anchor="middle" x="754" y="-414" font-family="Helvetica,sans-Serif" font-size="10.00">::decodeNrzi</text>
</a>
</g>
</g>
<!-- Node6&#45;&gt;Node7 -->
<g id="edge6" class="edge">
<title>Node6&#45;&gt;Node7</title>
<path fill="none" stroke="midnightblue" d="M420.72,-274.4C497.55,-286.8 615.5,-307.31 633,-319 656.99,-335.02 648,-353.22 669,-373 681.1,-384.39 696.31,-394.27 710.46,-402.11"/>
<polygon fill="midnightblue" stroke="midnightblue" points="709.08,-405.35 719.55,-406.97 712.38,-399.17 709.08,-405.35"/>
</g>
<!-- Node14 -->
<g id="node14" class="node">
<title>Node14</title>
<g id="a_node14"><a xlink:href="classsignal__easel_1_1ax25_1_1Frame.html#a40b07872c291deee87c677459a27c21c" target="_top" xlink:title="Attempt to parse a single AX.25 frame from an already NRZI&#45;decoded bit stream. Unlike parseBitStream,...">
<polygon fill="none" stroke="black" points="471,-229.5 471,-270.5 633,-270.5 633,-229.5 471,-229.5"/>
<text text-anchor="start" x="479" y="-258.5" font-family="Helvetica,sans-Serif" font-size="10.00">signal_easel::ax25</text>
<text text-anchor="start" x="479" y="-247.5" font-family="Helvetica,sans-Serif" font-size="10.00">::Frame::parseNrziDecodedBit</text>
<text text-anchor="middle" x="552" y="-236.5" font-family="Helvetica,sans-Serif" font-size="10.00">Stream</text>
</a>
</g>
</g>
<!-- Node6&#45;&gt;Node14 -->
<g id="edge14" class="edge">
<title>Node6&#45;&gt;Node14</title>
<path fill="none" stroke="midnightblue" d="M420.7,-259.26C433.5,-258.35 447.12,-257.38 460.53,-256.43"/>
<polygon fill="midnightblue" stroke="midnightblue" points="461,-259.9 470.73,-255.7 460.51,-252.92 461,-259.9"/>
</g>
<!-- Node8 -->
<g id="node8" class="node">
<title>Node8</title>
<g id="a_node8"><a xlink:href="classsignal__easel_1_1BitStream.html#a81d4aea4c11f65e0c2b7ad2f0f0cc312" target="_top" xlink:title=" ">
<polygon fill="none" stroke="black" points="892.5,-480 892.5,-510 1024.5,-510 1024.5,-480 892.5,-480"/>
<text text-anchor="start" x="900.5" y="-498" font-family="Helvetica,sans-Serif" font-size="10.00">signal_easel::BitStream</text>
<text text-anchor="middle" x="958.5" y="-487" font-family="Helvetica,sans-Serif" font-size="10.00">::addOneBit</text>
</a>
</g>
</g>
<!-- Node7&#45;&gt;Node8 -->
<g id="edge7" class="edge">
<title>Node7&#45;&gt;Node8</title>
<path fill="none" stroke="midnightblue" d="M789.03,-437.01C812.86,-447.24 845.57,-460.74 875,-471 880.82,-473.03 886.92,-475.03 893.04,-476.96"/>
<polygon fill="midnightblue" stroke="midnightblue" points="892.07,-480.32 902.66,-479.92 894.13,-473.63 892.07,-480.32"/>
</g>
<!-- Node10 -->
<g id="node10" class="node">
<title>Node10</title>
<g id="a_node10"><a xlink:href="classsignal__easel_1_1BitStream.html#abb315beec8c4d88115d9d4ec5f082863" target="_top" xlink:title=" ">
<polygon fill="none" stroke="black" points="892.5,-431 892.5,-461 1024.5,-461 1024.5,-431 892.5,-431"/>
<text text-anchor="start" x="900.5" y="-449" font-family="Helvetica,sans-Serif" font-size="10.00">signal_easel::BitStream</text>
<text text-anchor="middle" x="958.5" y="-438" font-family="Helvetica,sans-Serif" font-size="10.00">::addZeroBit</text>
</a>
</g>
</g>
<!-- Node7&#45;&gt;Node10 -->
<g id="edge9" class="edge">
<title>Node7&#45;&gt;Node10</title>
<path fill="none" stroke="midnightblue" d="M807.68,-428.24C830.44,-430.94 857.49,-434.15 882.31,-437.09"/>
<polygon fill="midnightblue" stroke="midnightblue" points="882.08,-440.59 892.42,-438.29 882.9,-433.63 882.08,-440.59"/>
</g>
<!-- Node11 -->
<g id="node11" class="node">
<title>Node11</title>
<g id="a_node11"><a xlink:href="classsignal__easel_1_1BitStream.html#aa97152ef51f73088e103a7951134aa85" target="_top" xlink:title=" ">
<polygon fill="none" stroke="black" points="892.5,-382 892.5,-412 1024.5,-412 1024.5,-382 892.5,-382"/>
<text text-anchor="start" x="900.5" y="-400" font-family="Helvetica,sans-Serif" font-size="10.00">signal_easel::BitStream</text>
<text text-anchor="middle" x="958.5" y="-389" font-family="Helvetica,sans-Serif" font-size="10.00">::getBitStreamLength</text>
</a>
</g>
</g>
<!-- Node7&#45;&gt;Node11 -->
<g id="edge11" class="edge">
<title>Node7&#45;&gt;Node11</title>
<path fill="none" stroke="midnightblue" d="M807.68,-415.5C830.44,-412.69 857.49,-409.35 882.31,-406.28"/>
<polygon fill="midnightblue" stroke="midnightblue" points="882.92,-409.73 892.42,-405.03 882.07,-402.79 882.92,-409.73"/>
</g>
<!-- Node12 -->
<g id="node12" class="node">
<title>Node12</title>
<g id="a_node12"><a xlink:href="classsignal__easel_1_1BitStream.html#a5b5339586e09ca5c25a7e9ded0118ffb" target="_top" xlink:title="Returns the next bit of the bit stream that will be encoded.">
<polygon fill="none" stroke="black" points="892.5,-333 892.5,-363 1024.5,-363 1024.5,-333 892.5,-333"/>
<text text-anchor="start" x="900.5" y="-351" font-family="Helvetica,sans-Serif" font-size="10.00">signal_easel::BitStream</text>
<text text-anchor="middle" x="958.5" y="-340" font-family="Helvetica,sans-Serif" font-size="10.00">::popNextBit</text>
</a>
</g>
</g>
<!-- Node7&#45;&gt;Node12 -->
<g id="edge12" class="edge">
<title>Node7&#45;&gt;Node12</title>
<path fill="none" stroke="midnightblue" d="M789.33,-406.98C813.15,-396.81 845.73,-383.38 875,-373 881.69,-370.63 888.73,-368.27 895.77,-366.02"/>
<polygon fill="midnightblue" stroke="midnightblue" points="896.84,-369.35 905.33,-363 894.74,-362.67 896.84,-369.35"/>
</g>
<!-- Node13 -->
<g id="node13" class="node">
<title>Node13</title>
<g id="a_node13"><a xlink:href="classsignal__easel_1_1BitStream.html#a278666dbf58a4792e4f77538ab72b4b6" target="_top" xlink:title="After adding all of the data to the bit stream, this method will write the data left in the buffer.">
<polygon fill="none" stroke="black" points="891.5,-529 891.5,-559 1025.5,-559 1025.5,-529 891.5,-529"/>
<text text-anchor="start" x="899.5" y="-547" font-family="Helvetica,sans-Serif" font-size="10.00">signal_easel::BitStream</text>
<text text-anchor="middle" x="958.5" y="-536" font-family="Helvetica,sans-Serif" font-size="10.00">::pushBufferToBitStream</text>
</a>
</g>
</g>
<!-- Node7&#45;&gt;Node13 -->
<g id="edge13" class="edge">
<title>Node7&#45;&gt;Node13</title>
<path fill="none" stroke="midnightblue" d="M769.47,-437.18C790.69,-458.61 832.38,-497.6 875,-520 878.54,-521.86 882.24,-523.59 886.03,-525.21"/>
<polygon fill="midnightblue" stroke="midnightblue" points="885.01,-528.57 895.6,-528.97 887.58,-522.05 885.01,-528.57"/>
</g>
<!-- Node9 -->
<g id="node9" class="node">
<title>Node9</title>
<g id="a_node9"><a xlink:href="classsignal__easel_1_1BitStream.html#a9df75eb28c03717c9fad2d30a85de6e6" target="_top" xlink:title=" ">
<polygon fill="none" stroke="black" points="1094.5,-455 1094.5,-485 1226.5,-485 1226.5,-455 1094.5,-455"/>
<text text-anchor="start" x="1102.5" y="-473" font-family="Helvetica,sans-Serif" font-size="10.00">signal_easel::BitStream</text>
<text text-anchor="middle" x="1160.5" y="-462" font-family="Helvetica,sans-Serif" font-size="10.00">::addBits</text>
</a>
</g>
</g>
<!-- Node8&#45;&gt;Node9 -->
<g id="edge8" class="edge">
<title>Node8&#45;&gt;Node9</title>
<path fill="none" stroke="midnightblue" d="M1024.71,-486.85C1043.74,-484.47 1064.68,-481.85 1084.27,-479.4"/>
<polygon fill="midnightblue" stroke="midnightblue" points="1084.89,-482.85 1094.38,-478.14 1084.02,-475.91 1084.89,-482.85"/>
</g>
<!-- Node10&#45;&gt;Node9 -->
<g id="edge10" class="edge">
<title>Node10&#45;&gt;Node9</title>
<path fill="none" stroke="midnightblue" d="M1024.71,-453.83C1043.74,-456.11 1064.68,-458.62 1084.27,-460.97"/>
<polygon fill="midnightblue" stroke="midnightblue" points="1084.03,-464.47 1094.38,-462.19 1084.87,-457.52 1084.03,-464.47"/>
</g>
<!-- Node15 -->
<g id="node15" class="node">
<title>Node15</title>
<g id="a_node15"><a xlink:href="classsignal__easel_1_1ax25_1_1Frame.html#af86d4b534367a8faf6b628301c9ffceb" target="_top" xlink:title=" ">
<polygon fill="none" stroke="black" points="673.5,-235 673.5,-265 834.5,-265 834.5,-235 673.5,-235"/>
<text text-anchor="start" x="681.5" y="-253" font-family="Helvetica,sans-Serif" font-size="10.00">signal_easel::ax25</text>
<text text-anchor="middle" x="754" y="-242" font-family="Helvetica,sans-Serif" font-size="10.00">::Frame::addRepeaterAddress</text>
</a>
</g>
</g>
<!-- Node14&#45;&gt;Node15 -->
<g id="edge15" class="edge">
<title>Node14&#45;&gt;Node15</title>
<path fill="none" stroke="midnightblue" d="M633.2,-250C643.14,-250 653.35,-250 663.43,-250"/>
<polygon fill="midnightblue" stroke="midnightblue" points="663.44,-253.5 673.44,-250 663.44,-246.5 663.44,-253.5"/>
</g>
<!-- Node20 -->
<g id="node20" class="node">
<title>Node20</title>
<g id="a_node20"><a xlink:href="namespacesignal__easel_1_1ax25.html#aa3ad759477950552b79497f19c77ba0b" target="_top" xlink:title=" ">
<polygon fill="none" stroke="black" points="700.5,-284 700.5,-314 807.5,-314 807.5,-284 700.5,-284"/>
<text text-anchor="start" x="708.5" y="-302" font-family="Helvetica,sans-Serif" font-size="10.00">signal_easel::ax25</text>
<text text-anchor="middle" x="754" y="-291" font-family="Helvetica,sans-Serif" font-size="10.00">::deStuffBytes</text>
</a>
</g>
</g>
<!-- Node14&#45;&gt;Node20 -->
<g id="edge20" class="edge">
<title>Node14&#45;&gt;Node20</title>
<path fill="none" stroke="midnightblue" d="M633.2,-269.65C652.27,-274.32 672.34,-279.24 690.49,-283.68"/>
<polygon fill="midnightblue" stroke="midnightblue" points="689.81,-287.12 700.35,-286.1 691.47,-280.32 689.81,-287.12"/>
</g>
<!-- Node23 -->
<g id="node23" class="node">
<title>Node23</title>
<g id="a_node23"><a xlink:href="namespacesignal__easel_1_1ax25.html#aedc3a21287bb20d2f0b01c9a2d6797f3" target="_top" xlink:title="Finds the start flags in the bit stream and removes them.">
<polygon fill="none" stroke="black" points="700.5,-333 700.5,-363 807.5,-363 807.5,-333 700.5,-333"/>
<text text-anchor="start" x="708.5" y="-351" font-family="Helvetica,sans-Serif" font-size="10.00">signal_easel::ax25</text>
<text text-anchor="middle" x="754" y="-340" font-family="Helvetica,sans-Serif" font-size="10.00">::findStartFlags</text>
</a>
</g>
</g>
<!-- Node14&#45;&gt;Node23 -->
<g id="edge25" class="edge">
<title>Node14&#45;&gt;Node23</title>
<path fill="none" stroke="midnightblue" d="M608.43,-270.65C616.98,-274.84 625.47,-279.64 633,-285 652.21,-298.68 648.91,-311.63 669,-324 675.72,-328.14 683.18,-331.58 690.8,-334.45"/>
<polygon fill="midnightblue" stroke="midnightblue" points="689.9,-337.84 700.49,-337.78 692.17,-331.22 689.9,-337.84"/>
</g>
<!-- Node25 -->
<g id="node25" class="node">
<title>Node25</title>
<g id="a_node25"><a xlink:href="classsignal__easel_1_1ax25_1_1Frame.html#a57b163ece54317da8d95f3b18b47c23d" target="_top" xlink:title="setters/getters for the frame.">
<polygon fill="none" stroke="black" points="669,-186 669,-216 839,-216 839,-186 669,-186"/>
<text text-anchor="start" x="677" y="-204" font-family="Helvetica,sans-Serif" font-size="10.00">signal_easel::ax25</text>
<text text-anchor="middle" x="754" y="-193" font-family="Helvetica,sans-Serif" font-size="10.00">::Frame::setDestinationAddress</text>
</a>
</g>
</g>
<!-- Node14&#45;&gt;Node25 -->
<g id="edge29" class="edge">
<title>Node14&#45;&gt;Node25</title>
<path fill="none" stroke="midnightblue" d="M633.2,-230.35C649.15,-226.44 665.81,-222.36 681.46,-218.53"/>
<polygon fill="midnightblue" stroke="midnightblue" points="682.69,-221.83 691.57,-216.05 681.03,-215.03 682.69,-221.83"/>
</g>
<!-- Node26 -->
<g id="node26" class="node">
<title>Node26</title>
<g id="a_node26"><a xlink:href="classsignal__easel_1_1ax25_1_1Frame.html#a402d26a81f82bb5c477e8930b75a771e" target="_top" xlink:title=" ">
<polygon fill="none" stroke="black" points="681,-137 681,-167 827,-167 827,-137 681,-137"/>
<text text-anchor="start" x="689" y="-155" font-family="Helvetica,sans-Serif" font-size="10.00">signal_easel::ax25</text>
<text text-anchor="middle" x="754" y="-144" font-family="Helvetica,sans-Serif" font-size="10.00">::Frame::setSourceAddress</text>
</a>
</g>
</g>
<!-- Node14&#45;&gt;Node26 -->
<g id="edge31" class="edge">
<title>Node14&#45;&gt;Node26</title>
<path fill="none" stroke="midnightblue" d="M580.85,-229.42C603.62,-213.36 637.14,-191.44 669,-177 674.24,-174.63 679.76,-172.41 685.37,-170.35"/>
<polygon fill="midnightblue" stroke="midnightblue" points="686.56,-173.64 694.85,-167.05 684.26,-167.03 686.56,-173.64"/>
</g>
<!-- Node16 -->
<g id="node16" class="node">
<title>Node16</title>
<g id="a_node16"><a xlink:href="classsignal__easel_1_1ax25_1_1Address.html#a7fa6b0ef4241413893f201660991e4ea" target="_top" xlink:title="Checks if the address is valid, if not throws an exception with a specific error code.">
<polygon fill="none" stroke="black" points="893.5,-137 893.5,-167 1023.5,-167 1023.5,-137 893.5,-137"/>
<text text-anchor="start" x="901.5" y="-155" font-family="Helvetica,sans-Serif" font-size="10.00">signal_easel::ax25</text>
<text text-anchor="middle" x="958.5" y="-144" font-family="Helvetica,sans-Serif" font-size="10.00">::Address::assertIsValid</text>
</a>
</g>
</g>
<!-- Node15&#45;&gt;Node16 -->
<g id="edge16" class="edge">
<title>Node15&#45;&gt;Node16</title>
<path fill="none" stroke="midnightblue" d="M822.85,-234.97C828.54,-232.43 834.02,-229.46 839,-226 861.18,-210.57 852.94,-192.61 875,-177 877.9,-174.95 880.97,-173.07 884.15,-171.33"/>
<polygon fill="midnightblue" stroke="midnightblue" points="885.92,-174.36 893.38,-166.84 882.86,-168.07 885.92,-174.36"/>
</g>
<!-- Node17 -->
<g id="node17" class="node">
<title>Node17</title>
<g id="a_node17"><a xlink:href="classsignal__easel_1_1ax25_1_1Address.html#af34b361f739b7995e7816b7a04465828" target="_top" xlink:title=" ">
<polygon fill="none" stroke="black" points="1078,-159.5 1078,-200.5 1243,-200.5 1243,-159.5 1078,-159.5"/>
<text text-anchor="start" x="1086" y="-188.5" font-family="Helvetica,sans-Serif" font-size="10.00">signal_easel::ax25</text>
<text text-anchor="start" x="1086" y="-177.5" font-family="Helvetica,sans-Serif" font-size="10.00">::Address::assertAddressString</text>
<text text-anchor="middle" x="1160.5" y="-166.5" font-family="Helvetica,sans-Serif" font-size="10.00">IsValid</text>
</a>
</g>
</g>
<!-- Node16&#45;&gt;Node17 -->
<g id="edge17" class="edge">
<title>Node16&#45;&gt;Node17</title>
<path fill="none" stroke="midnightblue" d="M1023.61,-160.97C1037.62,-162.94 1052.73,-165.05 1067.59,-167.13"/>
<polygon fill="midnightblue" stroke="midnightblue" points="1067.44,-170.65 1077.82,-168.57 1068.41,-163.71 1067.44,-170.65"/>
</g>
<!-- Node18 -->
<g id="node18" class="node">
<title>Node18</title>
<g id="a_node18"><a xlink:href="classsignal__easel_1_1ax25_1_1Address.html#a8b44c6e311d3462bd86eda03c1d384f0" target="_top" xlink:title=" ">
<polygon fill="none" stroke="black" points="1085.5,-110 1085.5,-140 1235.5,-140 1235.5,-110 1085.5,-110"/>
<text text-anchor="start" x="1093.5" y="-128" font-family="Helvetica,sans-Serif" font-size="10.00">signal_easel::ax25</text>
<text text-anchor="middle" x="1160.5" y="-117" font-family="Helvetica,sans-Serif" font-size="10.00">::Address::assertSsidIsValid</text>
</a>
</g>
</g>
<!-- Node16&#45;&gt;Node18 -->
<g id="edge18" class="edge">
<title>Node16&#45;&gt;Node18</title>
<path fill="none" stroke="midnightblue" d="M1023.61,-143.35C1040.03,-141.13 1057.95,-138.71 1075.23,-136.38"/>
<polygon fill="midnightblue" stroke="midnightblue" points="1075.87,-139.82 1085.31,-135.02 1074.93,-132.89 1075.87,-139.82"/>
</g>
<!-- Node19 -->
<g id="node19" class="node">
<title>Node19</title>
<g id="a_node19"><a xlink:href="classsignal__easel_1_1ax25_1_1Address.html#ad66c149737cc4aa52ae9e8860176acf3" target="_top" xlink:title=" ">
<polygon fill="none" stroke="black" points="1279,-110 1279,-140 1399,-140 1399,-110 1279,-110"/>
<text text-anchor="start" x="1287" y="-128" font-family="Helvetica,sans-Serif" font-size="10.00">signal_easel::ax25</text>
<text text-anchor="middle" x="1339" y="-117" font-family="Helvetica,sans-Serif" font-size="10.00">::Address::isSsidValid</text>
</a>
</g>
</g>
<!-- Node18&#45;&gt;Node19 -->
<g id="edge19" class="edge">
<title>Node18&#45;&gt;Node19</title>
<path fill="none" stroke="midnightblue" d="M1235.58,-125C1246.52,-125 1257.76,-125 1268.6,-125"/>
<polygon fill="midnightblue" stroke="midnightblue" points="1268.84,-128.5 1278.84,-125 1268.84,-121.5 1268.84,-128.5"/>
</g>
<!-- Node20&#45;&gt;Node11 -->
<g id="edge21" class="edge">
<title>Node20&#45;&gt;Node11</title>
<path fill="none" stroke="midnightblue" d="M807.6,-308.97C818.59,-312.57 829.67,-317.43 839,-324 861.1,-339.55 852.85,-357.52 875,-373 877.55,-374.78 880.22,-376.43 883,-377.96"/>
<polygon fill="midnightblue" stroke="midnightblue" points="881.6,-381.17 892.12,-382.44 884.68,-374.89 881.6,-381.17"/>
</g>
<!-- Node20&#45;&gt;Node12 -->
<g id="edge23" class="edge">
<title>Node20&#45;&gt;Node12</title>
<path fill="none" stroke="midnightblue" d="M807.68,-311.75C831.37,-317.48 859.71,-324.34 885.33,-330.54"/>
<polygon fill="midnightblue" stroke="midnightblue" points="884.83,-334.02 895.38,-332.97 886.48,-327.21 884.83,-334.02"/>
</g>
<!-- Node21 -->
<g id="node21" class="node">
<title>Node21</title>
<g id="a_node21"><a xlink:href="classsignal__easel_1_1BitStream.html#ad7b803a89b3a53ec1e4108122861a90b" target="_top" xlink:title="Returns the next bit of the bit stream without removing it.">
<polygon fill="none" stroke="black" points="892.5,-186 892.5,-216 1024.5,-216 1024.5,-186 892.5,-186"/>
<text text-anchor="start" x="900.5" y="-204" font-family="Helvetica,sans-Serif" font-size="10.00">signal_easel::BitStream</text>
<text text-anchor="middle" x="958.5" y="-193" font-family="Helvetica,sans-Serif" font-size="10.00">::peakNextBit</text>
</a>
</g>
</g>
<!-- Node20&#45;&gt;Node21 -->
<g id="edge22" class="edge">
<title>Node20&#45;&gt;Node21</title>
<path fill="none" stroke="midnightblue" d="M807.59,-289.71C818.59,-286.24 829.66,-281.5 839,-275 861.18,-259.57 852.94,-241.61 875,-226 877.83,-223.99 880.83,-222.15 883.94,-220.45"/>
<polygon fill="midnightblue" stroke="midnightblue" points="885.52,-223.57 892.96,-216.03 882.44,-217.29 885.52,-223.57"/>
</g>
<!-- Node22 -->
<g id="node22" class="node">
<title>Node22</title>
<g id="a_node22"><a xlink:href="namespacesignal__easel_1_1ax25.html#a464aaf0b31941db183dcd08d641a793c" target="_top" xlink:title=" ">
<polygon fill="none" stroke="black" points="905,-235 905,-265 1012,-265 1012,-235 905,-235"/>
<text text-anchor="start" x="913" y="-253" font-family="Helvetica,sans-Serif" font-size="10.00">signal_easel::ax25</text>
<text text-anchor="middle" x="958.5" y="-242" font-family="Helvetica,sans-Serif" font-size="10.00">::reverse_bits</text>
</a>
</g>
</g>
<!-- Node20&#45;&gt;Node22 -->
<g id="edge24" class="edge">
<title>Node20&#45;&gt;Node22</title>
<path fill="none" stroke="midnightblue" d="M807.68,-286.25C834.29,-279.81 866.77,-271.95 894.68,-265.2"/>
<polygon fill="midnightblue" stroke="midnightblue" points="895.84,-268.52 904.74,-262.77 894.19,-261.72 895.84,-268.52"/>
</g>
<!-- Node23&#45;&gt;Node11 -->
<g id="edge26" class="edge">
<title>Node23&#45;&gt;Node11</title>
<path fill="none" stroke="midnightblue" d="M807.68,-360.75C831.37,-366.48 859.71,-373.34 885.33,-379.54"/>
<polygon fill="midnightblue" stroke="midnightblue" points="884.83,-383.02 895.38,-381.97 886.48,-376.21 884.83,-383.02"/>
</g>
<!-- Node23&#45;&gt;Node12 -->
<g id="edge28" class="edge">
<title>Node23&#45;&gt;Node12</title>
<path fill="none" stroke="midnightblue" d="M807.68,-348C830.44,-348 857.49,-348 882.31,-348"/>
<polygon fill="midnightblue" stroke="midnightblue" points="882.42,-351.5 892.42,-348 882.42,-344.5 882.42,-351.5"/>
</g>
<!-- Node24 -->
<g id="node24" class="node">
<title>Node24</title>
<g id="a_node24"><a xlink:href="classsignal__easel_1_1BitStream.html#a3212a6021fa0e315170f8654c8e1c103" target="_top" xlink:title=" ">
<polygon fill="none" stroke="black" points="892.5,-284 892.5,-314 1024.5,-314 1024.5,-284 892.5,-284"/>
<text text-anchor="start" x="900.5" y="-302" font-family="Helvetica,sans-Serif" font-size="10.00">signal_easel::BitStream</text>
<text text-anchor="middle" x="958.5" y="-291" font-family="Helvetica,sans-Serif" font-size="10.00">::peakNextByte</text>
</a>
</g>
</g>
<!-- Node23&#45;&gt;Node24 -->
<g id="edge27" class="edge">
<title>Node23&#45;&gt;Node24</title>
<path fill="none" stroke="midnightblue" d="M807.68,-335.25C831.37,-329.52 859.71,-322.66 885.33,-316.46"/>
<polygon fill="midnightblue" stroke="midnightblue" points="886.48,-319.79 895.38,-314.03 884.83,-312.98 886.48,-319.79"/>
</g>
<!-- Node25&#45;&gt;Node16 -->
<g id="edge30" class="edge">
<title>Node25&#45;&gt;Node16</title>
<path fill="none" stroke="midnightblue" d="M817.13,-185.97C838.81,-180.72 863.3,-174.79 885.7,-169.37"/>
<polygon fill="midnightblue" stroke="midnightblue" points="886.59,-172.76 895.48,-167.01 884.94,-165.96 886.59,-172.76"/>
</g>
<!-- Node26&#45;&gt;Node16 -->
<g id="edge32" class="edge">
<title>Node26&#45;&gt;Node16</title>
<path fill="none" stroke="midnightblue" d="M827.25,-152C845.46,-152 865.03,-152 883.34,-152"/>
<polygon fill="midnightblue" stroke="midnightblue" points="883.35,-155.5 893.35,-152 883.35,-148.5 883.35,-155.5"/>
</g>
<!-- Node29 -->
<g id="node29" class="node">
<title>Node29</title>
<g id="a_node29"><a xlink:href="classsignal__easel_1_1afsk_1_1Demodulator.html#a66398f52101a153c5158930c0584f161" target="_top" xlink:title="Takes the raw signal and converts it into the FSK baseband signal.">
<polygon fill="none" stroke="black" points="278.5,-93.5 278.5,-134.5 427.5,-134.5 427.5,-93.5 278.5,-93.5"/>
<text text-anchor="start" x="286.5" y="-122.5" font-family="Helvetica,sans-Serif" font-size="10.00">signal_easel::afsk</text>
<text text-anchor="start" x="286.5" y="-111.5" font-family="Helvetica,sans-Serif" font-size="10.00">::Demodulator::audioBuffer</text>
<text text-anchor="middle" x="353" y="-100.5" font-family="Helvetica,sans-Serif" font-size="10.00">ToBaseBandSignal</text>
</a>
</g>
</g>
<!-- Node28&#45;&gt;Node29 -->
<g id="edge35" class="edge">
<title>Node28&#45;&gt;Node29</title>
<path fill="none" stroke="midnightblue" d="M235.19,-114C245.95,-114 257.04,-114 267.9,-114"/>
<polygon fill="midnightblue" stroke="midnightblue" points="268.22,-117.5 278.22,-114 268.22,-110.5 268.22,-117.5"/>
</g>
<!-- Node37 -->
<g id="node37" class="node">
<title>Node37</title>
<g id="a_node37"><a xlink:href="classsignal__easel_1_1afsk_1_1Demodulator.html#afa479089583504851b2a4a767e397458" target="_top" xlink:title="Takes the base band signal and converts it into a bit stream if the signal is valid.">
<polygon fill="none" stroke="black" points="271,-33.5 271,-74.5 435,-74.5 435,-33.5 271,-33.5"/>
<text text-anchor="start" x="279" y="-62.5" font-family="Helvetica,sans-Serif" font-size="10.00">signal_easel::afsk</text>
<text text-anchor="start" x="279" y="-51.5" font-family="Helvetica,sans-Serif" font-size="10.00">::Demodulator::baseBandToBit</text>
<text text-anchor="middle" x="353" y="-40.5" font-family="Helvetica,sans-Serif" font-size="10.00">Stream</text>
</a>
</g>
</g>
<!-- Node28&#45;&gt;Node37 -->
<g id="edge43" class="edge">
<title>Node28&#45;&gt;Node37</title>
<path fill="none" stroke="midnightblue" d="M223.84,-93.44C240.42,-88.33 258.33,-82.82 275.35,-77.58"/>
<polygon fill="midnightblue" stroke="midnightblue" points="276.72,-80.82 285.25,-74.54 274.67,-74.13 276.72,-80.82"/>
</g>
<!-- Node30 -->
<g id="node30" class="node">
<title>Node30</title>
<g id="a_node30"><a xlink:href="namespacesignal__easel.html#a62db979f7f4a67d6a7d263788813e1b9" target="_top" xlink:title="A simple band&#45;pass filter.">
<polygon fill="none" stroke="black" points="475,-69.5 475,-88.5 629,-88.5 629,-69.5 475,-69.5"/>
<text text-anchor="middle" x="552" y="-76.5" font-family="Helvetica,sans-Serif" font-size="10.00">signal_easel::bandPassFilter</text>
</a>
</g>
</g>
<!-- Node29&#45;&gt;Node30 -->
<g id="edge36" class="edge">
<title>Node29&#45;&gt;Node30</title>
<path fill="none" stroke="midnightblue" d="M427.64,-100.92C447.27,-97.43 468.33,-93.69 487.38,-90.3"/>
<polygon fill="midnightblue" stroke="midnightblue" points="488.2,-93.71 497.44,-88.52 486.98,-86.82 488.2,-93.71"/>
</g>
<!-- Node31 -->
<g id="node31" class="node">
<title>Node31</title>
<g id="a_node31"><a xlink:href="namespacesignal__easel.html#afd47c8498c742658f934b9fccf52a74d" target="_top" xlink:title=" ">
<polygon fill="none" stroke="black" points="681,-88 681,-118 827,-118 827,-88 681,-88"/>
<text text-anchor="start" x="689" y="-106" font-family="Helvetica,sans-Serif" font-size="10.00">signal_easel::computeDen</text>
<text text-anchor="middle" x="754" y="-95" font-family="Helvetica,sans-Serif" font-size="10.00">Coeffs</text>
</a>
</g>
</g>
<!-- Node30&#45;&gt;Node31 -->
<g id="edge37" class="edge">
<title>Node30&#45;&gt;Node31</title>
<path fill="none" stroke="midnightblue" d="M629.18,-88.14C642.86,-89.78 657.17,-91.5 671.01,-93.16"/>
<polygon fill="midnightblue" stroke="midnightblue" points="670.64,-96.64 680.98,-94.36 671.47,-89.69 670.64,-96.64"/>
</g>
<!-- Node33 -->
<g id="node33" class="node">
<title>Node33</title>
<g id="a_node33"><a xlink:href="namespacesignal__easel.html#af5443e0125b511759ebeb7e4defb112d" target="_top" xlink:title=" ">
<polygon fill="none" stroke="black" points="679.5,-39 679.5,-69 828.5,-69 828.5,-39 679.5,-39"/>
<text text-anchor="start" x="687.5" y="-57" font-family="Helvetica,sans-Serif" font-size="10.00">signal_easel::computeNum</text>
<text text-anchor="middle" x="754" y="-46" font-family="Helvetica,sans-Serif" font-size="10.00">Coeffs</text>
</a>
</g>
</g>
<!-- Node30&#45;&gt;Node33 -->
<g id="edge39" class="edge">
<title>Node30&#45;&gt;Node33</title>
<path fill="none" stroke="midnightblue" d="M629.18,-69.48C642.29,-67.84 655.98,-66.13 669.27,-64.47"/>
<polygon fill="midnightblue" stroke="midnightblue" points="669.85,-67.92 679.34,-63.21 668.98,-60.97 669.85,-67.92"/>
</g>
<!-- Node36 -->
<g id="node36" class="node">
<title>Node36</title>
<g id="a_node36"><a xlink:href="namespacesignal__easel.html#a1b9537a0b58c35ffe0048a0eb3826ba4" target="_top" xlink:title=" ">
<polygon fill="none" stroke="black" points="701,-0.5 701,-19.5 807,-19.5 807,-0.5 701,-0.5"/>
<text text-anchor="middle" x="754" y="-7.5" font-family="Helvetica,sans-Serif" font-size="10.00">signal_easel::filter</text>
</a>
</g>
</g>
<!-- Node30&#45;&gt;Node36 -->
<g id="edge42" class="edge">
<title>Node30&#45;&gt;Node36</title>
<path fill="none" stroke="midnightblue" d="M572.28,-69.38C594.96,-58.37 633.97,-40.4 669,-29 676.97,-26.41 685.48,-24.04 693.91,-21.92"/>
<polygon fill="midnightblue" stroke="midnightblue" points="694.83,-25.3 703.73,-19.55 693.18,-18.49 694.83,-25.3"/>
</g>
<!-- Node32 -->
<g id="node32" class="node">
<title>Node32</title>
<g id="a_node32"><a xlink:href="namespacesignal__easel.html#a3895406ee8a9253b288a6a015583be42" target="_top" xlink:title=" ">
<polygon fill="none" stroke="black" points="875,-93.5 875,-112.5 1042,-112.5 1042,-93.5 875,-93.5"/>
<text text-anchor="middle" x="958.5" y="-100.5" font-family="Helvetica,sans-Serif" font-size="10.00">signal_easel::trinomialMultiply</text>
</a>
</g>
</g>
<!-- Node31&#45;&gt;Node32 -->
<g id="edge38" class="edge">
<title>Node31&#45;&gt;Node32</title>
<path fill="none" stroke="midnightblue" d="M827.25,-103C839.44,-103 852.24,-103 864.86,-103"/>
<polygon fill="midnightblue" stroke="midnightblue" points="864.93,-106.5 874.93,-103 864.93,-99.5 864.93,-106.5"/>
</g>
<!-- Node34 -->
<g id="node34" class="node">
<title>Node34</title>
<g id="a_node34"><a xlink:href="namespacesignal__easel.html#a27a021f34e5a88ec2faa0b01087f9ec9" target="_top" xlink:title=" ">
<polygon fill="none" stroke="black" points="888.5,-44.5 888.5,-63.5 1028.5,-63.5 1028.5,-44.5 888.5,-44.5"/>
<text text-anchor="middle" x="958.5" y="-51.5" font-family="Helvetica,sans-Serif" font-size="10.00">signal_easel::computeHP</text>
</a>
</g>
</g>
<!-- Node33&#45;&gt;Node34 -->
<g id="edge40" class="edge">
<title>Node33&#45;&gt;Node34</title>
<path fill="none" stroke="midnightblue" d="M828.68,-54C844.79,-54 861.9,-54 878.22,-54"/>
<polygon fill="midnightblue" stroke="midnightblue" points="878.26,-57.5 888.26,-54 878.26,-50.5 878.26,-57.5"/>
</g>
<!-- Node35 -->
<g id="node35" class="node">
<title>Node35</title>
<g id="a_node35"><a xlink:href="namespacesignal__easel.html#a9772e972ada009af79d3f18221aca4e3" target="_top" xlink:title=" ">
<polygon fill="none" stroke="black" points="1092,-44.5 1092,-63.5 1229,-63.5 1229,-44.5 1092,-44.5"/>
<text text-anchor="middle" x="1160.5" y="-51.5" font-family="Helvetica,sans-Serif" font-size="10.00">signal_easel::computeLP</text>
</a>
</g>
</g>
<!-- Node34&#45;&gt;Node35 -->
<g id="edge41" class="edge">
<title>Node34&#45;&gt;Node35</title>
<path fill="none" stroke="midnightblue" d="M1028.61,-54C1045.69,-54 1064.11,-54 1081.58,-54"/>
<polygon fill="midnightblue" stroke="midnightblue" points="1081.74,-57.5 1091.74,-54 1081.74,-50.5 1081.74,-57.5"/>
</g>
</g>
</svg>
