<?xml version="1.0" encoding="UTF-8" standalone="no"?>
<!DOCTYPE svg PUBLIC "-//W3C//DTD SVG 1.1//EN"
 "http://www.w3.org/Graphics/SVG/1.1/DTD/svg11.dtd">
<!-- Generated by graphviz version 2.43.0 (0)
 -->
<!-- Title: aprs_receiver.cpp Pages: 1 -->
<svg width="1261pt" height="364pt"
 viewBox="0.00 0.00 1260.91 364.00" xmlns="http://www.w3.org/2000/svg" xmlns:xlink="http://www.w3.org/1999/xlink">
<g id="graph0" class="graph" transform="scale(1 1) rotate(0) translate(4 360)">
<title>aprs_receiver.cpp</title>
<!-- Node1 -->
<g id="node1" class="node">
<title>Node1</title>
<g id="a_node1"><a xlink:title="Implementation of the APRS receiver class.">
<polygon fill="#bfbfbf" stroke="black" points="1066.91,-336.5 1066.91,-355.5 1168.91,-355.5 1168.91,-336.5 1066.91,-336.5"/>
<text text-anchor="middle" x="1117.91" y="-343.5" font-family="Helvetica,sans-Serif" font-size="10.00">aprs_receiver.cpp</text>
</a>
</g>
</g>
<!-- Node2 -->
<g id="node2" class="node">
<title>Node2</title>
<g id="a_node2"><a xlink:href="aprs_8hpp.html" target="_top" xlink:title="APRS implementation.">
<polygon fill="none" stroke="black" points="250.91,-280.5 250.91,-299.5 368.91,-299.5 368.91,-280.5 250.91,-280.5"/>
<text text-anchor="middle" x="309.91" y="-287.5" font-family="Helvetica,sans-Serif" font-size="10.00">SignalEasel/aprs.hpp</text>
</a>
</g>
</g>
<!-- Node1&#45;&gt;Node2 -->
<g id="edge1" class="edge">
<title>Node1&#45;&gt;Node2</title>
<path fill="none" stroke="midnightblue" d="M1066.75,-341.58C926.98,-332.24 538.51,-306.28 379.31,-295.64"/>
<polygon fill="midnightblue" stroke="midnightblue" points="379.37,-292.13 369.16,-294.96 378.91,-299.12 379.37,-292.13"/>
</g>
<!-- Node19 -->
<g id="node19" class="node">
<title>Node19</title>
<g id="a_node19"><a xlink:title=" ">
<polygon fill="none" stroke="#bfbfbf" points="1106.91,-168.5 1106.91,-187.5 1166.91,-187.5 1166.91,-168.5 1106.91,-168.5"/>
<text text-anchor="middle" x="1136.91" y="-175.5" font-family="Helvetica,sans-Serif" font-size="10.00">iostream</text>
</a>
</g>
</g>
<!-- Node1&#45;&gt;Node19 -->
<g id="edge39" class="edge">
<title>Node1&#45;&gt;Node19</title>
<path fill="none" stroke="midnightblue" d="M1126.39,-336.23C1133.96,-327.75 1144.51,-314.13 1148.91,-300 1159.84,-264.87 1150.32,-221.48 1143.13,-197.37"/>
<polygon fill="midnightblue" stroke="midnightblue" points="1146.44,-196.22 1140.08,-187.75 1139.77,-198.34 1146.44,-196.22"/>
</g>
<!-- Node20 -->
<g id="node20" class="node">
<title>Node20</title>
<g id="a_node20"><a xlink:href="exception_8hpp.html" target="_top" xlink:title="SignalEasel exceptions.">
<polygon fill="none" stroke="black" points="995.41,-280.5 995.41,-299.5 1140.41,-299.5 1140.41,-280.5 995.41,-280.5"/>
<text text-anchor="middle" x="1067.91" y="-287.5" font-family="Helvetica,sans-Serif" font-size="10.00">SignalEasel/exception.hpp</text>
</a>
</g>
</g>
<!-- Node1&#45;&gt;Node20 -->
<g id="edge35" class="edge">
<title>Node1&#45;&gt;Node20</title>
<path fill="none" stroke="midnightblue" d="M1109.65,-336.08C1102.44,-328.3 1091.8,-316.8 1083.06,-307.37"/>
<polygon fill="midnightblue" stroke="midnightblue" points="1085.37,-304.71 1076.01,-299.75 1080.23,-309.47 1085.37,-304.71"/>
</g>
<!-- Node22 -->
<g id="node22" class="node">
<title>Node22</title>
<g id="a_node22"><a xlink:title=" ">
<polygon fill="none" stroke="#bfbfbf" points="1196.91,-280.5 1196.91,-299.5 1252.91,-299.5 1252.91,-280.5 1196.91,-280.5"/>
<text text-anchor="middle" x="1224.91" y="-287.5" font-family="Helvetica,sans-Serif" font-size="10.00">iomanip</text>
</a>
</g>
</g>
<!-- Node1&#45;&gt;Node22 -->
<g id="edge38" class="edge">
<title>Node1&#45;&gt;Node22</title>
<path fill="none" stroke="midnightblue" d="M1135.1,-336.32C1152.26,-327.66 1178.85,-314.24 1198.65,-304.25"/>
<polygon fill="midnightblue" stroke="midnightblue" points="1200.41,-307.28 1207.76,-299.65 1197.25,-301.04 1200.41,-307.28"/>
</g>
<!-- Node3 -->
<g id="node3" class="node">
<title>Node3</title>
<g id="a_node3"><a xlink:title=" ">
<polygon fill="none" stroke="#bfbfbf" points="501.91,-0.5 501.91,-19.5 551.91,-19.5 551.91,-0.5 501.91,-0.5"/>
<text text-anchor="middle" x="526.91" y="-7.5" font-family="Helvetica,sans-Serif" font-size="10.00">cstdint</text>
</a>
</g>
</g>
<!-- Node2&#45;&gt;Node3 -->
<g id="edge2" class="edge">
<title>Node2&#45;&gt;Node3</title>
<path fill="none" stroke="midnightblue" d="M250.6,-287.14C175.93,-283.58 53.32,-273.32 19.91,-244 -2.72,-224.15 0.91,-209.1 0.91,-179 0.91,-179 0.91,-179 0.91,-121 0.91,-87.31 11.38,-73.93 39.91,-56 77.96,-32.08 386.19,-16.94 491.66,-12.43"/>
<polygon fill="midnightblue" stroke="midnightblue" points="491.95,-15.92 501.79,-12 491.65,-8.92 491.95,-15.92"/>
</g>
<!-- Node4 -->
<g id="node4" class="node">
<title>Node4</title>
<g id="a_node4"><a xlink:title=" ">
<polygon fill="none" stroke="#bfbfbf" points="480.91,-56.5 480.91,-75.5 524.91,-75.5 524.91,-56.5 480.91,-56.5"/>
<text text-anchor="middle" x="502.91" y="-63.5" font-family="Helvetica,sans-Serif" font-size="10.00">string</text>
</a>
</g>
</g>
<!-- Node2&#45;&gt;Node4 -->
<g id="edge3" class="edge">
<title>Node2&#45;&gt;Node4</title>
<path fill="none" stroke="midnightblue" d="M286.35,-280.43C238.9,-261.9 139.46,-215.87 177.91,-168 224.37,-110.16 270.02,-153.89 340.91,-132 389.19,-117.09 443.31,-94.03 475.17,-79.76"/>
<polygon fill="midnightblue" stroke="midnightblue" points="476.64,-82.93 484.31,-75.63 473.76,-76.55 476.64,-82.93"/>
</g>
<!-- Node5 -->
<g id="node5" class="node">
<title>Node5</title>
<g id="a_node5"><a xlink:title=" ">
<polygon fill="none" stroke="#bfbfbf" points="28.91,-224.5 28.91,-243.5 150.91,-243.5 150.91,-224.5 28.91,-224.5"/>
<text text-anchor="middle" x="89.91" y="-231.5" font-family="Helvetica,sans-Serif" font-size="10.00">BoosterSeat/time.hpp</text>
</a>
</g>
</g>
<!-- Node2&#45;&gt;Node5 -->
<g id="edge4" class="edge">
<title>Node2&#45;&gt;Node5</title>
<path fill="none" stroke="midnightblue" d="M275.05,-280.44C236.99,-271.1 175.95,-256.12 134.45,-245.93"/>
<polygon fill="midnightblue" stroke="midnightblue" points="135.15,-242.5 124.6,-243.52 133.48,-249.3 135.15,-242.5"/>
</g>
<!-- Node6 -->
<g id="node6" class="node">
<title>Node6</title>
<g id="a_node6"><a xlink:href="afsk_8hpp.html" target="_top" xlink:title="AFSK related modulation/demodulation.">
<polygon fill="none" stroke="black" points="360.91,-224.5 360.91,-243.5 478.91,-243.5 478.91,-224.5 360.91,-224.5"/>
<text text-anchor="middle" x="419.91" y="-231.5" font-family="Helvetica,sans-Serif" font-size="10.00">SignalEasel/afsk.hpp</text>
</a>
</g>
</g>
<!-- Node2&#45;&gt;Node6 -->
<g id="edge5" class="edge">
<title>Node2&#45;&gt;Node6</title>
<path fill="none" stroke="midnightblue" d="M327.58,-280.32C345.3,-271.62 372.81,-258.12 393.19,-248.11"/>
<polygon fill="midnightblue" stroke="midnightblue" points="394.84,-251.2 402.28,-243.65 391.76,-244.92 394.84,-251.2"/>
</g>
<!-- Node18 -->
<g id="node18" class="node">
<title>Node18</title>
<g id="a_node18"><a xlink:href="ax25_8hpp.html" target="_top" xlink:title="AX.25 tools.">
<polygon fill="none" stroke="black" points="872.41,-224.5 872.41,-243.5 993.41,-243.5 993.41,-224.5 872.41,-224.5"/>
<text text-anchor="middle" x="932.91" y="-231.5" font-family="Helvetica,sans-Serif" font-size="10.00">SignalEasel/ax25.hpp</text>
</a>
</g>
</g>
<!-- Node2&#45;&gt;Node18 -->
<g id="edge28" class="edge">
<title>Node2&#45;&gt;Node18</title>
<path fill="none" stroke="midnightblue" d="M369.08,-283.87C484.29,-273.88 738.28,-251.87 862.17,-241.13"/>
<polygon fill="midnightblue" stroke="midnightblue" points="862.64,-244.6 872.3,-240.25 862.04,-237.63 862.64,-244.6"/>
</g>
<!-- Node7 -->
<g id="node7" class="node">
<title>Node7</title>
<g id="a_node7"><a xlink:title=" ">
<polygon fill="none" stroke="#bfbfbf" points="667.41,-112.5 667.41,-131.5 714.41,-131.5 714.41,-112.5 667.41,-112.5"/>
<text text-anchor="middle" x="690.91" y="-119.5" font-family="Helvetica,sans-Serif" font-size="10.00">vector</text>
</a>
</g>
</g>
<!-- Node6&#45;&gt;Node7 -->
<g id="edge6" class="edge">
<title>Node6&#45;&gt;Node7</title>
<path fill="none" stroke="midnightblue" d="M478.92,-229.54C544.28,-224.53 644.13,-212.94 671.91,-188 684.87,-176.36 689.19,-156.41 690.53,-141.67"/>
<polygon fill="midnightblue" stroke="midnightblue" points="694.03,-141.82 691.07,-131.65 687.04,-141.44 694.03,-141.82"/>
</g>
<!-- Node8 -->
<g id="node8" class="node">
<title>Node8</title>
<g id="a_node8"><a xlink:href="constants_8hpp.html" target="_top" xlink:title="Common constants used throughout the library.">
<polygon fill="none" stroke="black" points="48.91,-56.5 48.91,-75.5 192.91,-75.5 192.91,-56.5 48.91,-56.5"/>
<text text-anchor="middle" x="120.91" y="-63.5" font-family="Helvetica,sans-Serif" font-size="10.00">SignalEasel/constants.hpp</text>
</a>
</g>
</g>
<!-- Node6&#45;&gt;Node8 -->
<g id="edge7" class="edge">
<title>Node6&#45;&gt;Node8</title>
<path fill="none" stroke="midnightblue" d="M360.77,-228.18C298.56,-222.04 205.86,-209.57 177.91,-188 144.77,-162.43 130.04,-112.88 124.22,-85.8"/>
<polygon fill="midnightblue" stroke="midnightblue" points="127.6,-84.84 122.25,-75.7 120.73,-86.19 127.6,-84.84"/>
</g>
<!-- Node9 -->
<g id="node9" class="node">
<title>Node9</title>
<g id="a_node9"><a xlink:href="bit__stream_8hpp.html" target="_top" xlink:title="The bit stream class.">
<polygon fill="none" stroke="black" points="756.41,-168.5 756.41,-187.5 905.41,-187.5 905.41,-168.5 756.41,-168.5"/>
<text text-anchor="middle" x="830.91" y="-175.5" font-family="Helvetica,sans-Serif" font-size="10.00">SignalEasel/bit_stream.hpp</text>
</a>
</g>
</g>
<!-- Node6&#45;&gt;Node9 -->
<g id="edge9" class="edge">
<title>Node6&#45;&gt;Node9</title>
<path fill="none" stroke="midnightblue" d="M479.23,-225.21C552.35,-215.6 676.67,-199.26 756.22,-188.81"/>
<polygon fill="midnightblue" stroke="midnightblue" points="756.72,-192.28 766.18,-187.5 755.81,-185.34 756.72,-192.28"/>
</g>
<!-- Node10 -->
<g id="node10" class="node">
<title>Node10</title>
<g id="a_node10"><a xlink:href="demodulator_8hpp.html" target="_top" xlink:title="Base class for demodulators.">
<polygon fill="none" stroke="black" points="340.91,-168.5 340.91,-187.5 498.91,-187.5 498.91,-168.5 340.91,-168.5"/>
<text text-anchor="middle" x="419.91" y="-175.5" font-family="Helvetica,sans-Serif" font-size="10.00">SignalEasel/demodulator.hpp</text>
</a>
</g>
</g>
<!-- Node6&#45;&gt;Node10 -->
<g id="edge12" class="edge">
<title>Node6&#45;&gt;Node10</title>
<path fill="none" stroke="midnightblue" d="M419.91,-224.08C419.91,-217.01 419.91,-206.86 419.91,-197.99"/>
<polygon fill="midnightblue" stroke="midnightblue" points="423.41,-197.75 419.91,-187.75 416.41,-197.75 423.41,-197.75"/>
</g>
<!-- Node12 -->
<g id="node12" class="node">
<title>Node12</title>
<g id="a_node12"><a xlink:href="modulator_8hpp.html" target="_top" xlink:title="Modulator base class.">
<polygon fill="none" stroke="black" points="516.91,-168.5 516.91,-187.5 662.91,-187.5 662.91,-168.5 516.91,-168.5"/>
<text text-anchor="middle" x="589.91" y="-175.5" font-family="Helvetica,sans-Serif" font-size="10.00">SignalEasel/modulator.hpp</text>
</a>
</g>
</g>
<!-- Node6&#45;&gt;Node12 -->
<g id="edge17" class="edge">
<title>Node6&#45;&gt;Node12</title>
<path fill="none" stroke="midnightblue" d="M446.84,-224.44C475.57,-215.32 521.23,-200.81 553.23,-190.65"/>
<polygon fill="midnightblue" stroke="midnightblue" points="554.62,-193.88 563.1,-187.52 552.5,-187.21 554.62,-193.88"/>
</g>
<!-- Node13 -->
<g id="node13" class="node">
<title>Node13</title>
<g id="a_node13"><a xlink:href="receiver_8hpp.html" target="_top" xlink:title="Base class for receivers. Demodulators that use pulse audio.">
<polygon fill="none" stroke="black" points="186.91,-168.5 186.91,-187.5 322.91,-187.5 322.91,-168.5 186.91,-168.5"/>
<text text-anchor="middle" x="254.91" y="-175.5" font-family="Helvetica,sans-Serif" font-size="10.00">SignalEasel/receiver.hpp</text>
</a>
</g>
</g>
<!-- Node6&#45;&gt;Node13 -->
<g id="edge20" class="edge">
<title>Node6&#45;&gt;Node13</title>
<path fill="none" stroke="midnightblue" d="M393.76,-224.44C365.88,-215.32 321.56,-200.81 290.51,-190.65"/>
<polygon fill="midnightblue" stroke="midnightblue" points="291.52,-187.3 280.93,-187.52 289.34,-193.95 291.52,-187.3"/>
</g>
<!-- Node8&#45;&gt;Node3 -->
<g id="edge8" class="edge">
<title>Node8&#45;&gt;Node3</title>
<path fill="none" stroke="midnightblue" d="M185.24,-56.44C271.83,-44.93 422.91,-24.83 491.38,-15.73"/>
<polygon fill="midnightblue" stroke="midnightblue" points="492.18,-19.15 501.63,-14.36 491.26,-12.21 492.18,-19.15"/>
</g>
<!-- Node9&#45;&gt;Node3 -->
<g id="edge10" class="edge">
<title>Node9&#45;&gt;Node3</title>
<path fill="none" stroke="midnightblue" d="M817.1,-168.29C796.73,-155.53 757.31,-131.19 722.91,-112 663.37,-78.79 591.82,-42.91 553.78,-24.14"/>
<polygon fill="midnightblue" stroke="midnightblue" points="554.93,-20.81 544.41,-19.54 551.84,-27.09 554.93,-20.81"/>
</g>
<!-- Node9&#45;&gt;Node7 -->
<g id="edge11" class="edge">
<title>Node9&#45;&gt;Node7</title>
<path fill="none" stroke="midnightblue" d="M808.72,-168.44C785.48,-159.48 748.76,-145.31 722.49,-135.18"/>
<polygon fill="midnightblue" stroke="midnightblue" points="723.58,-131.85 712.99,-131.52 721.06,-138.38 723.58,-131.85"/>
</g>
<!-- Node10&#45;&gt;Node4 -->
<g id="edge13" class="edge">
<title>Node10&#45;&gt;Node4</title>
<path fill="none" stroke="midnightblue" d="M418.7,-168.2C417.34,-154.88 416.63,-129.35 427.91,-112 438.05,-96.4 455.67,-85.42 471.29,-78.21"/>
<polygon fill="midnightblue" stroke="midnightblue" points="472.84,-81.36 480.66,-74.21 470.09,-74.92 472.84,-81.36"/>
</g>
<!-- Node10&#45;&gt;Node7 -->
<g id="edge14" class="edge">
<title>Node10&#45;&gt;Node7</title>
<path fill="none" stroke="midnightblue" d="M462.85,-168.44C516.77,-157.7 608.15,-139.49 657.28,-129.7"/>
<polygon fill="midnightblue" stroke="midnightblue" points="657.97,-133.13 667.09,-127.75 656.6,-126.27 657.97,-133.13"/>
</g>
<!-- Node11 -->
<g id="node11" class="node">
<title>Node11</title>
<g id="a_node11"><a xlink:href="settings_8hpp.html" target="_top" xlink:title="Settings structures for SignalEasel.">
<polygon fill="none" stroke="black" points="436.91,-112.5 436.91,-131.5 572.91,-131.5 572.91,-112.5 436.91,-112.5"/>
<text text-anchor="middle" x="504.91" y="-119.5" font-family="Helvetica,sans-Serif" font-size="10.00">SignalEasel/settings.hpp</text>
</a>
</g>
</g>
<!-- Node10&#45;&gt;Node11 -->
<g id="edge15" class="edge">
<title>Node10&#45;&gt;Node11</title>
<path fill="none" stroke="midnightblue" d="M433.56,-168.32C446.82,-159.9 467.17,-146.97 482.75,-137.07"/>
<polygon fill="midnightblue" stroke="midnightblue" points="484.72,-139.97 491.28,-131.65 480.97,-134.06 484.72,-139.97"/>
</g>
<!-- Node11&#45;&gt;Node4 -->
<g id="edge16" class="edge">
<title>Node11&#45;&gt;Node4</title>
<path fill="none" stroke="midnightblue" d="M504.58,-112.08C504.31,-105.01 503.94,-94.86 503.61,-85.99"/>
<polygon fill="midnightblue" stroke="midnightblue" points="507.1,-85.61 503.23,-75.75 500.1,-85.87 507.1,-85.61"/>
</g>
<!-- Node12&#45;&gt;Node7 -->
<g id="edge18" class="edge">
<title>Node12&#45;&gt;Node7</title>
<path fill="none" stroke="midnightblue" d="M606.13,-168.32C622.26,-159.7 647.21,-146.36 665.87,-136.39"/>
<polygon fill="midnightblue" stroke="midnightblue" points="667.55,-139.46 674.72,-131.65 664.25,-133.28 667.55,-139.46"/>
</g>
<!-- Node12&#45;&gt;Node11 -->
<g id="edge19" class="edge">
<title>Node12&#45;&gt;Node11</title>
<path fill="none" stroke="midnightblue" d="M576.25,-168.32C562.99,-159.9 542.64,-146.97 527.06,-137.07"/>
<polygon fill="midnightblue" stroke="midnightblue" points="528.85,-134.06 518.53,-131.65 525.09,-139.97 528.85,-134.06"/>
</g>
<!-- Node13&#45;&gt;Node11 -->
<g id="edge27" class="edge">
<title>Node13&#45;&gt;Node11</title>
<path fill="none" stroke="midnightblue" d="M294.52,-168.44C338.13,-159.02 408.31,-143.87 455.48,-133.68"/>
<polygon fill="midnightblue" stroke="midnightblue" points="456.44,-137.05 465.48,-131.52 454.96,-130.21 456.44,-137.05"/>
</g>
<!-- Node14 -->
<g id="node14" class="node">
<title>Node14</title>
<g id="a_node14"><a xlink:href="pulse__audio_8hpp.html" target="_top" xlink:title="Simple pulse audio interface.">
<polygon fill="none" stroke="black" points="177.41,-112.5 177.41,-131.5 332.41,-131.5 332.41,-112.5 177.41,-112.5"/>
<text text-anchor="middle" x="254.91" y="-119.5" font-family="Helvetica,sans-Serif" font-size="10.00">SignalEasel/pulse_audio.hpp</text>
</a>
</g>
</g>
<!-- Node13&#45;&gt;Node14 -->
<g id="edge21" class="edge">
<title>Node13&#45;&gt;Node14</title>
<path fill="none" stroke="midnightblue" d="M254.91,-168.08C254.91,-161.01 254.91,-150.86 254.91,-141.99"/>
<polygon fill="midnightblue" stroke="midnightblue" points="258.41,-141.75 254.91,-131.75 251.41,-141.75 258.41,-141.75"/>
</g>
<!-- Node14&#45;&gt;Node4 -->
<g id="edge23" class="edge">
<title>Node14&#45;&gt;Node4</title>
<path fill="none" stroke="midnightblue" d="M297.24,-112.48C340.1,-103.74 408.25,-89.55 466.91,-76 468.18,-75.71 469.47,-75.4 470.78,-75.09"/>
<polygon fill="midnightblue" stroke="midnightblue" points="471.96,-78.41 480.85,-72.65 470.31,-71.61 471.96,-78.41"/>
</g>
<!-- Node14&#45;&gt;Node8 -->
<g id="edge24" class="edge">
<title>Node14&#45;&gt;Node8</title>
<path fill="none" stroke="midnightblue" d="M233.67,-112.44C211.52,-103.52 176.59,-89.44 151.47,-79.32"/>
<polygon fill="midnightblue" stroke="midnightblue" points="152.62,-76.01 142.04,-75.52 150.01,-82.5 152.62,-76.01"/>
</g>
<!-- Node15 -->
<g id="node15" class="node">
<title>Node15</title>
<g id="a_node15"><a xlink:title=" ">
<polygon fill="none" stroke="#bfbfbf" points="415.91,-56.5 415.91,-75.5 457.91,-75.5 457.91,-56.5 415.91,-56.5"/>
<text text-anchor="middle" x="436.91" y="-63.5" font-family="Helvetica,sans-Serif" font-size="10.00">array</text>
</a>
</g>
</g>
<!-- Node14&#45;&gt;Node15 -->
<g id="edge22" class="edge">
<title>Node14&#45;&gt;Node15</title>
<path fill="none" stroke="midnightblue" d="M283.74,-112.44C317.08,-102.55 371.74,-86.34 405.95,-76.19"/>
<polygon fill="midnightblue" stroke="midnightblue" points="407.27,-79.44 415.86,-73.24 405.28,-72.73 407.27,-79.44"/>
</g>
<!-- Node16 -->
<g id="node16" class="node">
<title>Node16</title>
<g id="a_node16"><a xlink:title=" ">
<polygon fill="none" stroke="#bfbfbf" points="317.41,-56.5 317.41,-75.5 394.41,-75.5 394.41,-56.5 317.41,-56.5"/>
<text text-anchor="middle" x="355.91" y="-63.5" font-family="Helvetica,sans-Serif" font-size="10.00">pulse/error.h</text>
</a>
</g>
</g>
<!-- Node14&#45;&gt;Node16 -->
<g id="edge25" class="edge">
<title>Node14&#45;&gt;Node16</title>
<path fill="none" stroke="midnightblue" d="M271.13,-112.32C287.26,-103.7 312.21,-90.36 330.87,-80.39"/>
<polygon fill="midnightblue" stroke="midnightblue" points="332.55,-83.46 339.72,-75.65 329.25,-77.28 332.55,-83.46"/>
</g>
<!-- Node17 -->
<g id="node17" class="node">
<title>Node17</title>
<g id="a_node17"><a xlink:title=" ">
<polygon fill="none" stroke="#bfbfbf" points="210.91,-56.5 210.91,-75.5 298.91,-75.5 298.91,-56.5 210.91,-56.5"/>
<text text-anchor="middle" x="254.91" y="-63.5" font-family="Helvetica,sans-Serif" font-size="10.00">pulse/simple.h</text>
</a>
</g>
</g>
<!-- Node14&#45;&gt;Node17 -->
<g id="edge26" class="edge">
<title>Node14&#45;&gt;Node17</title>
<path fill="none" stroke="midnightblue" d="M254.91,-112.08C254.91,-105.01 254.91,-94.86 254.91,-85.99"/>
<polygon fill="midnightblue" stroke="midnightblue" points="258.41,-85.75 254.91,-75.75 251.41,-85.75 258.41,-85.75"/>
</g>
<!-- Node18&#45;&gt;Node3 -->
<g id="edge29" class="edge">
<title>Node18&#45;&gt;Node3</title>
<path fill="none" stroke="midnightblue" d="M940.58,-224.46C947.68,-215.93 957.76,-202.09 961.91,-188 972.03,-153.61 962.73,-134.6 934.91,-112 822.38,-20.61 638.81,-10.24 562.21,-10.18"/>
<polygon fill="midnightblue" stroke="midnightblue" points="562.11,-6.68 552.13,-10.23 562.15,-13.68 562.11,-6.68"/>
</g>
<!-- Node18&#45;&gt;Node4 -->
<g id="edge32" class="edge">
<title>Node18&#45;&gt;Node4</title>
<path fill="none" stroke="midnightblue" d="M937.49,-224.47C943.61,-211.93 953.01,-187.86 946.91,-168 938.07,-139.25 934.67,-127.53 908.91,-112 846.07,-74.12 619.61,-68.08 535.05,-67.15"/>
<polygon fill="midnightblue" stroke="midnightblue" points="535.03,-63.65 525,-67.06 534.97,-70.65 535.03,-63.65"/>
</g>
<!-- Node18&#45;&gt;Node7 -->
<g id="edge33" class="edge">
<title>Node18&#45;&gt;Node7</title>
<path fill="none" stroke="midnightblue" d="M872.32,-227.9C834.08,-222.45 784.89,-211.21 746.91,-188 727.51,-176.15 711.34,-155.34 701.45,-140.45"/>
<polygon fill="midnightblue" stroke="midnightblue" points="704.19,-138.25 695.87,-131.68 698.28,-142 704.19,-138.25"/>
</g>
<!-- Node18&#45;&gt;Node9 -->
<g id="edge34" class="edge">
<title>Node18&#45;&gt;Node9</title>
<path fill="none" stroke="midnightblue" d="M916.52,-224.32C900.23,-215.7 875.04,-202.36 856.19,-192.39"/>
<polygon fill="midnightblue" stroke="midnightblue" points="857.73,-189.24 847.25,-187.65 854.45,-195.43 857.73,-189.24"/>
</g>
<!-- Node18&#45;&gt;Node15 -->
<g id="edge30" class="edge">
<title>Node18&#45;&gt;Node15</title>
<path fill="none" stroke="midnightblue" d="M932.87,-224.1C932.32,-210.19 929.2,-183.3 913.91,-168 772.08,-26.06 668.68,-115.29 471.91,-76 470.63,-75.74 469.32,-75.47 468.01,-75.18"/>
<polygon fill="midnightblue" stroke="midnightblue" points="468.46,-71.69 457.92,-72.8 466.85,-78.51 468.46,-71.69"/>
</g>
<!-- Node18&#45;&gt;Node19 -->
<g id="edge31" class="edge">
<title>Node18&#45;&gt;Node19</title>
<path fill="none" stroke="midnightblue" d="M965.23,-224.44C1000.91,-215 1058.39,-199.78 1096.89,-189.59"/>
<polygon fill="midnightblue" stroke="midnightblue" points="1097.96,-192.93 1106.73,-186.99 1096.17,-186.16 1097.96,-192.93"/>
</g>
<!-- Node20&#45;&gt;Node4 -->
<g id="edge37" class="edge">
<title>Node20&#45;&gt;Node4</title>
<path fill="none" stroke="midnightblue" d="M1064.47,-280.38C1052.17,-250.79 1007.16,-152.9 934.91,-112 866.56,-73.31 623.4,-67.79 535.18,-67.08"/>
<polygon fill="midnightblue" stroke="midnightblue" points="534.99,-63.57 524.97,-67.01 534.95,-70.57 534.99,-63.57"/>
</g>
<!-- Node21 -->
<g id="node21" class="node">
<title>Node21</title>
<g id="a_node21"><a xlink:title=" ">
<polygon fill="none" stroke="#bfbfbf" points="1075.41,-224.5 1075.41,-243.5 1140.41,-243.5 1140.41,-224.5 1075.41,-224.5"/>
<text text-anchor="middle" x="1107.91" y="-231.5" font-family="Helvetica,sans-Serif" font-size="10.00">exception</text>
</a>
</g>
</g>
<!-- Node20&#45;&gt;Node21 -->
<g id="edge36" class="edge">
<title>Node20&#45;&gt;Node21</title>
<path fill="none" stroke="midnightblue" d="M1074.51,-280.08C1080.16,-272.46 1088.45,-261.26 1095.36,-251.94"/>
<polygon fill="midnightblue" stroke="midnightblue" points="1098.28,-253.87 1101.42,-243.75 1092.66,-249.7 1098.28,-253.87"/>
</g>
</g>
</svg>
