<?xml version="1.0" encoding="UTF-8" standalone="no"?>
<!DOCTYPE svg PUBLIC "-//W3C//DTD SVG 1.1//EN"
 "http://www.w3.org/Graphics/SVG/1.1/DTD/svg11.dtd">
<!-- Generated by graphviz version 2.43.0 (0)
 -->
<!-- Title: aprs.cpp Pages: 1 -->
<svg width="1210pt" height="364pt"
 viewBox="0.00 0.00 1209.95 364.00" xmlns="http://www.w3.org/2000/svg" xmlns:xlink="http://www.w3.org/1999/xlink">
<g id="graph0" class="graph" transform="scale(1 1) rotate(0) translate(4 360)">
<title>aprs.cpp</title>
<!-- Node1 -->
<g id="node1" class="node">
<title>Node1</title>
<g id="a_node1"><a xlink:title="APRS implementation.">
<polygon fill="#bfbfbf" stroke="black" points="500.45,-336.5 500.45,-355.5 558.45,-355.5 558.45,-336.5 500.45,-336.5"/>
<text text-anchor="middle" x="529.45" y="-343.5" font-family="Helvetica,sans-Serif" font-size="10.00">aprs.cpp</text>
</a>
</g>
</g>
<!-- Node2 -->
<g id="node2" class="node">
<title>Node2</title>
<g id="a_node2"><a xlink:title=" ">
<polygon fill="none" stroke="#bfbfbf" points="339.45,-280.5 339.45,-299.5 383.45,-299.5 383.45,-280.5 339.45,-280.5"/>
<text text-anchor="middle" x="361.45" y="-287.5" font-family="Helvetica,sans-Serif" font-size="10.00">bitset</text>
</a>
</g>
</g>
<!-- Node1&#45;&gt;Node2 -->
<g id="edge1" class="edge">
<title>Node1&#45;&gt;Node2</title>
<path fill="none" stroke="midnightblue" d="M502.83,-336.44C473.1,-326.89 425.02,-311.44 393.32,-301.25"/>
<polygon fill="midnightblue" stroke="midnightblue" points="394.24,-297.86 383.65,-298.14 392.1,-304.53 394.24,-297.86"/>
</g>
<!-- Node3 -->
<g id="node3" class="node">
<title>Node3</title>
<g id="a_node3"><a xlink:title=" ">
<polygon fill="none" stroke="#bfbfbf" points="401.95,-280.5 401.95,-299.5 448.95,-299.5 448.95,-280.5 401.95,-280.5"/>
<text text-anchor="middle" x="425.45" y="-287.5" font-family="Helvetica,sans-Serif" font-size="10.00">cmath</text>
</a>
</g>
</g>
<!-- Node1&#45;&gt;Node3 -->
<g id="edge2" class="edge">
<title>Node1&#45;&gt;Node3</title>
<path fill="none" stroke="midnightblue" d="M512.74,-336.32C496.13,-327.7 470.44,-314.36 451.23,-304.39"/>
<polygon fill="midnightblue" stroke="midnightblue" points="452.6,-301.16 442.11,-299.65 449.38,-307.37 452.6,-301.16"/>
</g>
<!-- Node4 -->
<g id="node4" class="node">
<title>Node4</title>
<g id="a_node4"><a xlink:title=" ">
<polygon fill="none" stroke="#bfbfbf" points="466.95,-280.5 466.95,-299.5 531.95,-299.5 531.95,-280.5 466.95,-280.5"/>
<text text-anchor="middle" x="499.45" y="-287.5" font-family="Helvetica,sans-Serif" font-size="10.00">stdexcept</text>
</a>
</g>
</g>
<!-- Node1&#45;&gt;Node4 -->
<g id="edge3" class="edge">
<title>Node1&#45;&gt;Node4</title>
<path fill="none" stroke="midnightblue" d="M524.49,-336.08C520.34,-328.61 514.29,-317.72 509.18,-308.52"/>
<polygon fill="midnightblue" stroke="midnightblue" points="512.22,-306.79 504.31,-299.75 506.1,-310.19 512.22,-306.79"/>
</g>
<!-- Node5 -->
<g id="node5" class="node">
<title>Node5</title>
<g id="a_node5"><a xlink:title=" ">
<polygon fill="none" stroke="#bfbfbf" points="522.95,-112.5 522.95,-131.5 569.95,-131.5 569.95,-112.5 522.95,-112.5"/>
<text text-anchor="middle" x="546.45" y="-119.5" font-family="Helvetica,sans-Serif" font-size="10.00">vector</text>
</a>
</g>
</g>
<!-- Node1&#45;&gt;Node5 -->
<g id="edge4" class="edge">
<title>Node1&#45;&gt;Node5</title>
<path fill="none" stroke="midnightblue" d="M532.09,-336.47C534.74,-327.5 538.67,-312.91 540.45,-300 548.33,-242.76 547.87,-174.18 547.07,-141.75"/>
<polygon fill="midnightblue" stroke="midnightblue" points="550.56,-141.42 546.78,-131.53 543.57,-141.62 550.56,-141.42"/>
</g>
<!-- Node6 -->
<g id="node6" class="node">
<title>Node6</title>
<g id="a_node6"><a xlink:href="aprs_8hpp.html" target="_top" xlink:title="APRS implementation.">
<polygon fill="none" stroke="black" points="789.45,-280.5 789.45,-299.5 907.45,-299.5 907.45,-280.5 789.45,-280.5"/>
<text text-anchor="middle" x="848.45" y="-287.5" font-family="Helvetica,sans-Serif" font-size="10.00">SignalEasel/aprs.hpp</text>
</a>
</g>
</g>
<!-- Node1&#45;&gt;Node6 -->
<g id="edge5" class="edge">
<title>Node1&#45;&gt;Node6</title>
<path fill="none" stroke="midnightblue" d="M558.6,-340.06C610.39,-331.3 719.42,-312.84 788,-301.23"/>
<polygon fill="midnightblue" stroke="midnightblue" points="788.96,-304.62 798.23,-299.5 787.79,-297.72 788.96,-304.62"/>
</g>
<!-- Node23 -->
<g id="node23" class="node">
<title>Node23</title>
<g id="a_node23"><a xlink:href="exception_8hpp.html" target="_top" xlink:title="SignalEasel exceptions.">
<polygon fill="none" stroke="black" points="1035.95,-280.5 1035.95,-299.5 1180.95,-299.5 1180.95,-280.5 1035.95,-280.5"/>
<text text-anchor="middle" x="1108.45" y="-287.5" font-family="Helvetica,sans-Serif" font-size="10.00">SignalEasel/exception.hpp</text>
</a>
</g>
</g>
<!-- Node1&#45;&gt;Node23 -->
<g id="edge39" class="edge">
<title>Node1&#45;&gt;Node23</title>
<path fill="none" stroke="midnightblue" d="M558.56,-342.29C643.65,-334.35 894.25,-310.98 1025.75,-298.71"/>
<polygon fill="midnightblue" stroke="midnightblue" points="1026.15,-302.19 1035.78,-297.78 1025.5,-295.22 1026.15,-302.19"/>
</g>
<!-- Node7 -->
<g id="node7" class="node">
<title>Node7</title>
<g id="a_node7"><a xlink:title=" ">
<polygon fill="none" stroke="#bfbfbf" points="892.45,-0.5 892.45,-19.5 942.45,-19.5 942.45,-0.5 892.45,-0.5"/>
<text text-anchor="middle" x="917.45" y="-7.5" font-family="Helvetica,sans-Serif" font-size="10.00">cstdint</text>
</a>
</g>
</g>
<!-- Node6&#45;&gt;Node7 -->
<g id="edge6" class="edge">
<title>Node6&#45;&gt;Node7</title>
<path fill="none" stroke="midnightblue" d="M907.51,-282.61C959.78,-275.78 1030.85,-263.27 1051.45,-244 1073.42,-223.43 1070.45,-209.1 1070.45,-179 1070.45,-179 1070.45,-179 1070.45,-121 1070.45,-63.21 997.6,-32.8 952.44,-19.5"/>
<polygon fill="midnightblue" stroke="midnightblue" points="953.28,-16.1 942.71,-16.77 951.39,-22.84 953.28,-16.1"/>
</g>
<!-- Node8 -->
<g id="node8" class="node">
<title>Node8</title>
<g id="a_node8"><a xlink:title=" ">
<polygon fill="none" stroke="#bfbfbf" points="702.45,-56.5 702.45,-75.5 746.45,-75.5 746.45,-56.5 702.45,-56.5"/>
<text text-anchor="middle" x="724.45" y="-63.5" font-family="Helvetica,sans-Serif" font-size="10.00">string</text>
</a>
</g>
</g>
<!-- Node6&#45;&gt;Node8 -->
<g id="edge7" class="edge">
<title>Node6&#45;&gt;Node8</title>
<path fill="none" stroke="midnightblue" d="M859.25,-280.39C881.92,-261.23 931.07,-213.16 915.45,-168 905.1,-138.09 897.55,-129.9 871.45,-112 836.44,-88 788.2,-76.45 756.68,-71.15"/>
<polygon fill="midnightblue" stroke="midnightblue" points="757.09,-67.67 746.67,-69.58 756.01,-74.59 757.09,-67.67"/>
</g>
<!-- Node9 -->
<g id="node9" class="node">
<title>Node9</title>
<g id="a_node9"><a xlink:title=" ">
<polygon fill="none" stroke="#bfbfbf" points="920.45,-224.5 920.45,-243.5 1042.45,-243.5 1042.45,-224.5 920.45,-224.5"/>
<text text-anchor="middle" x="981.45" y="-231.5" font-family="Helvetica,sans-Serif" font-size="10.00">BoosterSeat/time.hpp</text>
</a>
</g>
</g>
<!-- Node6&#45;&gt;Node9 -->
<g id="edge8" class="edge">
<title>Node6&#45;&gt;Node9</title>
<path fill="none" stroke="midnightblue" d="M869.52,-280.44C891.51,-271.52 926.18,-257.44 951.11,-247.32"/>
<polygon fill="midnightblue" stroke="midnightblue" points="952.52,-250.52 960.47,-243.52 949.89,-244.04 952.52,-250.52"/>
</g>
<!-- Node10 -->
<g id="node10" class="node">
<title>Node10</title>
<g id="a_node10"><a xlink:href="afsk_8hpp.html" target="_top" xlink:title="AFSK related modulation/demodulation.">
<polygon fill="none" stroke="black" points="362.45,-224.5 362.45,-243.5 480.45,-243.5 480.45,-224.5 362.45,-224.5"/>
<text text-anchor="middle" x="421.45" y="-231.5" font-family="Helvetica,sans-Serif" font-size="10.00">SignalEasel/afsk.hpp</text>
</a>
</g>
</g>
<!-- Node6&#45;&gt;Node10 -->
<g id="edge9" class="edge">
<title>Node6&#45;&gt;Node10</title>
<path fill="none" stroke="midnightblue" d="M789.07,-281.49C710.87,-271.6 573.59,-254.24 490.73,-243.76"/>
<polygon fill="midnightblue" stroke="midnightblue" points="491.02,-240.27 480.66,-242.49 490.14,-247.22 491.02,-240.27"/>
</g>
<!-- Node21 -->
<g id="node21" class="node">
<title>Node21</title>
<g id="a_node21"><a xlink:href="ax25_8hpp.html" target="_top" xlink:title="AX.25 tools.">
<polygon fill="none" stroke="black" points="742.95,-224.5 742.95,-243.5 863.95,-243.5 863.95,-224.5 742.95,-224.5"/>
<text text-anchor="middle" x="803.45" y="-231.5" font-family="Helvetica,sans-Serif" font-size="10.00">SignalEasel/ax25.hpp</text>
</a>
</g>
</g>
<!-- Node6&#45;&gt;Node21 -->
<g id="edge32" class="edge">
<title>Node6&#45;&gt;Node21</title>
<path fill="none" stroke="midnightblue" d="M841.02,-280.08C834.59,-272.38 825.14,-261.03 817.32,-251.65"/>
<polygon fill="midnightblue" stroke="midnightblue" points="819.83,-249.19 810.74,-243.75 814.45,-253.67 819.83,-249.19"/>
</g>
<!-- Node10&#45;&gt;Node5 -->
<g id="edge10" class="edge">
<title>Node10&#45;&gt;Node5</title>
<path fill="none" stroke="midnightblue" d="M443.47,-224.42C461.12,-216.78 485.76,-204.28 503.45,-188 518.18,-174.43 530.26,-154.81 537.82,-140.68"/>
<polygon fill="midnightblue" stroke="midnightblue" points="541.06,-142.03 542.5,-131.53 534.83,-138.84 541.06,-142.03"/>
</g>
<!-- Node11 -->
<g id="node11" class="node">
<title>Node11</title>
<g id="a_node11"><a xlink:href="constants_8hpp.html" target="_top" xlink:title="Common constants used throughout the library.">
<polygon fill="none" stroke="black" points="18.45,-56.5 18.45,-75.5 162.45,-75.5 162.45,-56.5 18.45,-56.5"/>
<text text-anchor="middle" x="90.45" y="-63.5" font-family="Helvetica,sans-Serif" font-size="10.00">SignalEasel/constants.hpp</text>
</a>
</g>
</g>
<!-- Node10&#45;&gt;Node11 -->
<g id="edge11" class="edge">
<title>Node10&#45;&gt;Node11</title>
<path fill="none" stroke="midnightblue" d="M362.24,-230.83C253.87,-226.23 32.56,-213.78 9.45,-188 -21.85,-153.1 34.69,-105.28 68.24,-81.56"/>
<polygon fill="midnightblue" stroke="midnightblue" points="70.35,-84.36 76.6,-75.81 66.38,-78.59 70.35,-84.36"/>
</g>
<!-- Node12 -->
<g id="node12" class="node">
<title>Node12</title>
<g id="a_node12"><a xlink:href="bit__stream_8hpp.html" target="_top" xlink:title="The bit stream class.">
<polygon fill="none" stroke="black" points="625.95,-168.5 625.95,-187.5 774.95,-187.5 774.95,-168.5 625.95,-168.5"/>
<text text-anchor="middle" x="700.45" y="-175.5" font-family="Helvetica,sans-Serif" font-size="10.00">SignalEasel/bit_stream.hpp</text>
</a>
</g>
</g>
<!-- Node10&#45;&gt;Node12 -->
<g id="edge13" class="edge">
<title>Node10&#45;&gt;Node12</title>
<path fill="none" stroke="midnightblue" d="M465.65,-224.44C514.73,-214.94 593.96,-199.61 646.61,-189.42"/>
<polygon fill="midnightblue" stroke="midnightblue" points="647.29,-192.85 656.44,-187.52 645.96,-185.98 647.29,-192.85"/>
</g>
<!-- Node13 -->
<g id="node13" class="node">
<title>Node13</title>
<g id="a_node13"><a xlink:href="demodulator_8hpp.html" target="_top" xlink:title="Base class for demodulators.">
<polygon fill="none" stroke="black" points="172.45,-168.5 172.45,-187.5 330.45,-187.5 330.45,-168.5 172.45,-168.5"/>
<text text-anchor="middle" x="251.45" y="-175.5" font-family="Helvetica,sans-Serif" font-size="10.00">SignalEasel/demodulator.hpp</text>
</a>
</g>
</g>
<!-- Node10&#45;&gt;Node13 -->
<g id="edge16" class="edge">
<title>Node10&#45;&gt;Node13</title>
<path fill="none" stroke="midnightblue" d="M394.51,-224.44C365.79,-215.32 320.12,-200.81 288.12,-190.65"/>
<polygon fill="midnightblue" stroke="midnightblue" points="288.85,-187.21 278.26,-187.52 286.73,-193.88 288.85,-187.21"/>
</g>
<!-- Node15 -->
<g id="node15" class="node">
<title>Node15</title>
<g id="a_node15"><a xlink:href="modulator_8hpp.html" target="_top" xlink:title="Modulator base class.">
<polygon fill="none" stroke="black" points="348.45,-168.5 348.45,-187.5 494.45,-187.5 494.45,-168.5 348.45,-168.5"/>
<text text-anchor="middle" x="421.45" y="-175.5" font-family="Helvetica,sans-Serif" font-size="10.00">SignalEasel/modulator.hpp</text>
</a>
</g>
</g>
<!-- Node10&#45;&gt;Node15 -->
<g id="edge21" class="edge">
<title>Node10&#45;&gt;Node15</title>
<path fill="none" stroke="midnightblue" d="M421.45,-224.08C421.45,-217.01 421.45,-206.86 421.45,-197.99"/>
<polygon fill="midnightblue" stroke="midnightblue" points="424.95,-197.75 421.45,-187.75 417.95,-197.75 424.95,-197.75"/>
</g>
<!-- Node16 -->
<g id="node16" class="node">
<title>Node16</title>
<g id="a_node16"><a xlink:href="receiver_8hpp.html" target="_top" xlink:title="Base class for receivers. Demodulators that use pulse audio.">
<polygon fill="none" stroke="black" points="18.45,-168.5 18.45,-187.5 154.45,-187.5 154.45,-168.5 18.45,-168.5"/>
<text text-anchor="middle" x="86.45" y="-175.5" font-family="Helvetica,sans-Serif" font-size="10.00">SignalEasel/receiver.hpp</text>
</a>
</g>
</g>
<!-- Node10&#45;&gt;Node16 -->
<g id="edge24" class="edge">
<title>Node10&#45;&gt;Node16</title>
<path fill="none" stroke="midnightblue" d="M368.36,-224.44C308.94,-214.87 212.73,-199.36 149.52,-189.17"/>
<polygon fill="midnightblue" stroke="midnightblue" points="149.71,-185.65 139.28,-187.52 148.59,-192.56 149.71,-185.65"/>
</g>
<!-- Node11&#45;&gt;Node7 -->
<g id="edge12" class="edge">
<title>Node11&#45;&gt;Node7</title>
<path fill="none" stroke="midnightblue" d="M162.85,-56.77C165.75,-56.5 168.63,-56.24 171.45,-56 444.53,-32.61 774.89,-17.18 882.06,-12.5"/>
<polygon fill="midnightblue" stroke="midnightblue" points="882.46,-15.99 892.3,-12.06 882.15,-8.99 882.46,-15.99"/>
</g>
<!-- Node12&#45;&gt;Node5 -->
<g id="edge15" class="edge">
<title>Node12&#45;&gt;Node5</title>
<path fill="none" stroke="midnightblue" d="M676.04,-168.44C650.02,-159.32 608.65,-144.81 579.66,-134.65"/>
<polygon fill="midnightblue" stroke="midnightblue" points="580.57,-131.26 569.98,-131.25 578.25,-137.86 580.57,-131.26"/>
</g>
<!-- Node12&#45;&gt;Node7 -->
<g id="edge14" class="edge">
<title>Node12&#45;&gt;Node7</title>
<path fill="none" stroke="midnightblue" d="M711.81,-168.31C746.89,-141.47 853.79,-59.69 898,-25.88"/>
<polygon fill="midnightblue" stroke="midnightblue" points="900.38,-28.46 906.2,-19.61 896.13,-22.9 900.38,-28.46"/>
</g>
<!-- Node13&#45;&gt;Node5 -->
<g id="edge18" class="edge">
<title>Node13&#45;&gt;Node5</title>
<path fill="none" stroke="midnightblue" d="M298.81,-168.45C348.54,-159.45 429.01,-144.83 498.45,-132 502.98,-131.16 507.75,-130.28 512.45,-129.4"/>
<polygon fill="midnightblue" stroke="midnightblue" points="513.34,-132.79 522.52,-127.51 512.05,-125.91 513.34,-132.79"/>
</g>
<!-- Node13&#45;&gt;Node8 -->
<g id="edge17" class="edge">
<title>Node13&#45;&gt;Node8</title>
<path fill="none" stroke="midnightblue" d="M260.32,-168.47C275.91,-154.06 309.84,-125.18 344.45,-112 407.82,-87.86 611.77,-73.61 691.79,-68.82"/>
<polygon fill="midnightblue" stroke="midnightblue" points="692.45,-72.29 702.23,-68.21 692.05,-65.3 692.45,-72.29"/>
</g>
<!-- Node14 -->
<g id="node14" class="node">
<title>Node14</title>
<g id="a_node14"><a xlink:href="settings_8hpp.html" target="_top" xlink:title="Settings structures for SignalEasel.">
<polygon fill="none" stroke="black" points="353.45,-112.5 353.45,-131.5 489.45,-131.5 489.45,-112.5 353.45,-112.5"/>
<text text-anchor="middle" x="421.45" y="-119.5" font-family="Helvetica,sans-Serif" font-size="10.00">SignalEasel/settings.hpp</text>
</a>
</g>
</g>
<!-- Node13&#45;&gt;Node14 -->
<g id="edge19" class="edge">
<title>Node13&#45;&gt;Node14</title>
<path fill="none" stroke="midnightblue" d="M278.38,-168.44C307.11,-159.32 352.77,-144.81 384.77,-134.65"/>
<polygon fill="midnightblue" stroke="midnightblue" points="386.16,-137.88 394.63,-131.52 384.04,-131.21 386.16,-137.88"/>
</g>
<!-- Node14&#45;&gt;Node8 -->
<g id="edge20" class="edge">
<title>Node14&#45;&gt;Node8</title>
<path fill="none" stroke="midnightblue" d="M469.46,-112.44C531.88,-101.32 639.19,-82.19 692.49,-72.7"/>
<polygon fill="midnightblue" stroke="midnightblue" points="693.17,-76.13 702.4,-70.93 691.94,-69.24 693.17,-76.13"/>
</g>
<!-- Node15&#45;&gt;Node5 -->
<g id="edge22" class="edge">
<title>Node15&#45;&gt;Node5</title>
<path fill="none" stroke="midnightblue" d="M441.25,-168.44C461.73,-159.6 493.93,-145.69 517.31,-135.59"/>
<polygon fill="midnightblue" stroke="midnightblue" points="518.94,-138.7 526.73,-131.52 516.16,-132.27 518.94,-138.7"/>
</g>
<!-- Node15&#45;&gt;Node14 -->
<g id="edge23" class="edge">
<title>Node15&#45;&gt;Node14</title>
<path fill="none" stroke="midnightblue" d="M421.45,-168.08C421.45,-161.01 421.45,-150.86 421.45,-141.99"/>
<polygon fill="midnightblue" stroke="midnightblue" points="424.95,-141.75 421.45,-131.75 417.95,-141.75 424.95,-141.75"/>
</g>
<!-- Node16&#45;&gt;Node14 -->
<g id="edge31" class="edge">
<title>Node16&#45;&gt;Node14</title>
<path fill="none" stroke="midnightblue" d="M139.53,-168.44C198.95,-158.87 295.17,-143.36 358.37,-133.17"/>
<polygon fill="midnightblue" stroke="midnightblue" points="359.3,-136.56 368.61,-131.52 358.18,-129.65 359.3,-136.56"/>
</g>
<!-- Node17 -->
<g id="node17" class="node">
<title>Node17</title>
<g id="a_node17"><a xlink:href="pulse__audio_8hpp.html" target="_top" xlink:title="Simple pulse audio interface.">
<polygon fill="none" stroke="black" points="141.95,-112.5 141.95,-131.5 296.95,-131.5 296.95,-112.5 141.95,-112.5"/>
<text text-anchor="middle" x="219.45" y="-119.5" font-family="Helvetica,sans-Serif" font-size="10.00">SignalEasel/pulse_audio.hpp</text>
</a>
</g>
</g>
<!-- Node16&#45;&gt;Node17 -->
<g id="edge25" class="edge">
<title>Node16&#45;&gt;Node17</title>
<path fill="none" stroke="midnightblue" d="M107.52,-168.44C129.51,-159.52 164.18,-145.44 189.11,-135.32"/>
<polygon fill="midnightblue" stroke="midnightblue" points="190.52,-138.52 198.47,-131.52 187.89,-132.04 190.52,-138.52"/>
</g>
<!-- Node17&#45;&gt;Node8 -->
<g id="edge27" class="edge">
<title>Node17&#45;&gt;Node8</title>
<path fill="none" stroke="midnightblue" d="M296.97,-112.71C409.46,-100.68 613.11,-78.91 692,-70.47"/>
<polygon fill="midnightblue" stroke="midnightblue" points="692.71,-73.91 702.28,-69.37 691.97,-66.95 692.71,-73.91"/>
</g>
<!-- Node17&#45;&gt;Node11 -->
<g id="edge28" class="edge">
<title>Node17&#45;&gt;Node11</title>
<path fill="none" stroke="midnightblue" d="M199.01,-112.44C177.78,-103.56 144.35,-89.56 120.19,-79.45"/>
<polygon fill="midnightblue" stroke="midnightblue" points="121.37,-76.15 110.79,-75.52 118.66,-82.61 121.37,-76.15"/>
</g>
<!-- Node18 -->
<g id="node18" class="node">
<title>Node18</title>
<g id="a_node18"><a xlink:title=" ">
<polygon fill="none" stroke="#bfbfbf" points="469.45,-56.5 469.45,-75.5 511.45,-75.5 511.45,-56.5 469.45,-56.5"/>
<text text-anchor="middle" x="490.45" y="-63.5" font-family="Helvetica,sans-Serif" font-size="10.00">array</text>
</a>
</g>
</g>
<!-- Node17&#45;&gt;Node18 -->
<g id="edge26" class="edge">
<title>Node17&#45;&gt;Node18</title>
<path fill="none" stroke="midnightblue" d="M262.39,-112.44C317.31,-101.5 411.1,-82.81 459.51,-73.17"/>
<polygon fill="midnightblue" stroke="midnightblue" points="460.27,-76.58 469.4,-71.19 458.91,-69.72 460.27,-76.58"/>
</g>
<!-- Node19 -->
<g id="node19" class="node">
<title>Node19</title>
<g id="a_node19"><a xlink:title=" ">
<polygon fill="none" stroke="#bfbfbf" points="180.95,-56.5 180.95,-75.5 257.95,-75.5 257.95,-56.5 180.95,-56.5"/>
<text text-anchor="middle" x="219.45" y="-63.5" font-family="Helvetica,sans-Serif" font-size="10.00">pulse/error.h</text>
</a>
</g>
</g>
<!-- Node17&#45;&gt;Node19 -->
<g id="edge29" class="edge">
<title>Node17&#45;&gt;Node19</title>
<path fill="none" stroke="midnightblue" d="M219.45,-112.08C219.45,-105.01 219.45,-94.86 219.45,-85.99"/>
<polygon fill="midnightblue" stroke="midnightblue" points="222.95,-85.75 219.45,-75.75 215.95,-85.75 222.95,-85.75"/>
</g>
<!-- Node20 -->
<g id="node20" class="node">
<title>Node20</title>
<g id="a_node20"><a xlink:title=" ">
<polygon fill="none" stroke="#bfbfbf" points="276.45,-56.5 276.45,-75.5 364.45,-75.5 364.45,-56.5 276.45,-56.5"/>
<text text-anchor="middle" x="320.45" y="-63.5" font-family="Helvetica,sans-Serif" font-size="10.00">pulse/simple.h</text>
</a>
</g>
</g>
<!-- Node17&#45;&gt;Node20 -->
<g id="edge30" class="edge">
<title>Node17&#45;&gt;Node20</title>
<path fill="none" stroke="midnightblue" d="M235.67,-112.32C251.8,-103.7 276.75,-90.36 295.41,-80.39"/>
<polygon fill="midnightblue" stroke="midnightblue" points="297.09,-83.46 304.26,-75.65 293.79,-77.28 297.09,-83.46"/>
</g>
<!-- Node21&#45;&gt;Node5 -->
<g id="edge37" class="edge">
<title>Node21&#45;&gt;Node5</title>
<path fill="none" stroke="midnightblue" d="M742.53,-226.35C704.53,-220.32 655.58,-208.99 616.45,-188 593.72,-175.81 572.78,-154.45 559.84,-139.56"/>
<polygon fill="midnightblue" stroke="midnightblue" points="562.3,-137.05 553.19,-131.65 556.95,-141.56 562.3,-137.05"/>
</g>
<!-- Node21&#45;&gt;Node7 -->
<g id="edge33" class="edge">
<title>Node21&#45;&gt;Node7</title>
<path fill="none" stroke="midnightblue" d="M858.19,-224.43C879.72,-218.11 902.37,-207.11 915.45,-188 948.8,-139.25 933.2,-63.93 923.35,-29.42"/>
<polygon fill="midnightblue" stroke="midnightblue" points="926.67,-28.29 920.42,-19.73 919.96,-30.32 926.67,-28.29"/>
</g>
<!-- Node21&#45;&gt;Node8 -->
<g id="edge36" class="edge">
<title>Node21&#45;&gt;Node8</title>
<path fill="none" stroke="midnightblue" d="M840.2,-224.43C873.28,-214.72 914.56,-196.44 899.45,-168 870.39,-113.35 798.25,-86.05 756.22,-74.36"/>
<polygon fill="midnightblue" stroke="midnightblue" points="757.04,-70.96 746.48,-71.79 755.25,-77.73 757.04,-70.96"/>
</g>
<!-- Node21&#45;&gt;Node12 -->
<g id="edge38" class="edge">
<title>Node21&#45;&gt;Node12</title>
<path fill="none" stroke="midnightblue" d="M786.9,-224.32C770.45,-215.7 745.01,-202.36 725.98,-192.39"/>
<polygon fill="midnightblue" stroke="midnightblue" points="727.44,-189.2 716.95,-187.65 724.19,-195.4 727.44,-189.2"/>
</g>
<!-- Node21&#45;&gt;Node18 -->
<g id="edge34" class="edge">
<title>Node21&#45;&gt;Node18</title>
<path fill="none" stroke="midnightblue" d="M803.17,-224.17C802.27,-210.36 798.55,-183.62 783.45,-168 711.26,-93.36 581.4,-73.86 521.84,-68.78"/>
<polygon fill="midnightblue" stroke="midnightblue" points="521.81,-65.27 511.57,-67.99 521.27,-72.24 521.81,-65.27"/>
</g>
<!-- Node22 -->
<g id="node22" class="node">
<title>Node22</title>
<g id="a_node22"><a xlink:title=" ">
<polygon fill="none" stroke="#bfbfbf" points="830.45,-168.5 830.45,-187.5 890.45,-187.5 890.45,-168.5 830.45,-168.5"/>
<text text-anchor="middle" x="860.45" y="-175.5" font-family="Helvetica,sans-Serif" font-size="10.00">iostream</text>
</a>
</g>
</g>
<!-- Node21&#45;&gt;Node22 -->
<g id="edge35" class="edge">
<title>Node21&#45;&gt;Node22</title>
<path fill="none" stroke="midnightblue" d="M812.6,-224.32C820.95,-216.42 833.48,-204.55 843.62,-194.94"/>
<polygon fill="midnightblue" stroke="midnightblue" points="846.27,-197.25 851.12,-187.83 841.45,-192.17 846.27,-197.25"/>
</g>
<!-- Node23&#45;&gt;Node8 -->
<g id="edge41" class="edge">
<title>Node23&#45;&gt;Node8</title>
<path fill="none" stroke="midnightblue" d="M1101.96,-280.47C1091.9,-267.52 1071.59,-242.45 1051.45,-224 989.29,-167.09 974.6,-148.08 898.45,-112 851.61,-89.81 792.3,-77.47 756.42,-71.54"/>
<polygon fill="midnightblue" stroke="midnightblue" points="756.94,-68.08 746.51,-69.97 755.84,-74.99 756.94,-68.08"/>
</g>
<!-- Node24 -->
<g id="node24" class="node">
<title>Node24</title>
<g id="a_node24"><a xlink:title=" ">
<polygon fill="none" stroke="#bfbfbf" points="1136.95,-224.5 1136.95,-243.5 1201.95,-243.5 1201.95,-224.5 1136.95,-224.5"/>
<text text-anchor="middle" x="1169.45" y="-231.5" font-family="Helvetica,sans-Serif" font-size="10.00">exception</text>
</a>
</g>
</g>
<!-- Node23&#45;&gt;Node24 -->
<g id="edge40" class="edge">
<title>Node23&#45;&gt;Node24</title>
<path fill="none" stroke="midnightblue" d="M1118.25,-280.32C1127.26,-272.34 1140.85,-260.31 1151.76,-250.65"/>
<polygon fill="midnightblue" stroke="midnightblue" points="1154.3,-253.08 1159.47,-243.83 1149.66,-247.84 1154.3,-253.08"/>
</g>
</g>
</svg>
