<?xml version="1.0" encoding="UTF-8" standalone="no"?>
<!DOCTYPE svg PUBLIC "-//W3C//DTD SVG 1.1//EN"
 "http://www.w3.org/Graphics/SVG/1.1/DTD/svg11.dtd">
<!-- Generated by graphviz version 2.43.0 (0)
 -->
<!-- Title: aprs_modulator.cpp Pages: 1 -->
<svg width="1124pt" height="364pt"
 viewBox="0.00 0.00 1124.00 364.00" xmlns="http://www.w3.org/2000/svg" xmlns:xlink="http://www.w3.org/1999/xlink">
<g id="graph0" class="graph" transform="scale(1 1) rotate(0) translate(4 360)">
<title>aprs_modulator.cpp</title>
<!-- Node1 -->
<g id="node1" class="node">
<title>Node1</title>
<g id="a_node1"><a xlink:title="Implementation of the APRS modulator class.">
<polygon fill="#bfbfbf" stroke="black" points="784.5,-336.5 784.5,-355.5 897.5,-355.5 897.5,-336.5 784.5,-336.5"/>
<text text-anchor="middle" x="841" y="-343.5" font-family="Helvetica,sans-Serif" font-size="10.00">aprs_modulator.cpp</text>
</a>
</g>
</g>
<!-- Node2 -->
<g id="node2" class="node">
<title>Node2</title>
<g id="a_node2"><a xlink:href="aprs_8hpp.html" target="_top" xlink:title="APRS implementation.">
<polygon fill="none" stroke="black" points="782,-280.5 782,-299.5 900,-299.5 900,-280.5 782,-280.5"/>
<text text-anchor="middle" x="841" y="-287.5" font-family="Helvetica,sans-Serif" font-size="10.00">SignalEasel/aprs.hpp</text>
</a>
</g>
</g>
<!-- Node1&#45;&gt;Node2 -->
<g id="edge1" class="edge">
<title>Node1&#45;&gt;Node2</title>
<path fill="none" stroke="midnightblue" d="M841,-336.08C841,-329.01 841,-318.86 841,-309.99"/>
<polygon fill="midnightblue" stroke="midnightblue" points="844.5,-309.75 841,-299.75 837.5,-309.75 844.5,-309.75"/>
</g>
<!-- Node3 -->
<g id="node3" class="node">
<title>Node3</title>
<g id="a_node3"><a xlink:title=" ">
<polygon fill="none" stroke="#bfbfbf" points="456,-0.5 456,-19.5 506,-19.5 506,-0.5 456,-0.5"/>
<text text-anchor="middle" x="481" y="-7.5" font-family="Helvetica,sans-Serif" font-size="10.00">cstdint</text>
</a>
</g>
</g>
<!-- Node2&#45;&gt;Node3 -->
<g id="edge2" class="edge">
<title>Node2&#45;&gt;Node3</title>
<path fill="none" stroke="midnightblue" d="M781.86,-287.49C590.43,-281.83 0,-257.96 0,-179 0,-179 0,-179 0,-121 0,-88.99 4.82,-74.41 31,-56 64.7,-32.31 345.54,-17.22 445.69,-12.55"/>
<polygon fill="midnightblue" stroke="midnightblue" points="446.07,-16.04 455.9,-12.08 445.75,-9.04 446.07,-16.04"/>
</g>
<!-- Node4 -->
<g id="node4" class="node">
<title>Node4</title>
<g id="a_node4"><a xlink:title=" ">
<polygon fill="none" stroke="#bfbfbf" points="484,-56.5 484,-75.5 528,-75.5 528,-56.5 484,-56.5"/>
<text text-anchor="middle" x="506" y="-63.5" font-family="Helvetica,sans-Serif" font-size="10.00">string</text>
</a>
</g>
</g>
<!-- Node2&#45;&gt;Node4 -->
<g id="edge3" class="edge">
<title>Node2&#45;&gt;Node4</title>
<path fill="none" stroke="midnightblue" d="M862.59,-280.46C878.37,-273.12 899.02,-261.01 911,-244 925.72,-223.11 921.09,-213.38 924,-188 925.01,-179.17 927.51,-176.17 924,-168 909.73,-134.78 897.68,-127.46 865,-112 807.38,-84.73 615.49,-72.42 538.43,-68.48"/>
<polygon fill="midnightblue" stroke="midnightblue" points="538.51,-64.98 528.35,-67.98 538.16,-71.97 538.51,-64.98"/>
</g>
<!-- Node5 -->
<g id="node5" class="node">
<title>Node5</title>
<g id="a_node5"><a xlink:title=" ">
<polygon fill="none" stroke="#bfbfbf" points="994,-224.5 994,-243.5 1116,-243.5 1116,-224.5 994,-224.5"/>
<text text-anchor="middle" x="1055" y="-231.5" font-family="Helvetica,sans-Serif" font-size="10.00">BoosterSeat/time.hpp</text>
</a>
</g>
</g>
<!-- Node2&#45;&gt;Node5 -->
<g id="edge4" class="edge">
<title>Node2&#45;&gt;Node5</title>
<path fill="none" stroke="midnightblue" d="M874.91,-280.44C911.85,-271.12 971.05,-256.18 1011.42,-246"/>
<polygon fill="midnightblue" stroke="midnightblue" points="1012.41,-249.36 1021.25,-243.52 1010.7,-242.57 1012.41,-249.36"/>
</g>
<!-- Node6 -->
<g id="node6" class="node">
<title>Node6</title>
<g id="a_node6"><a xlink:href="afsk_8hpp.html" target="_top" xlink:title="AFSK related modulation/demodulation.">
<polygon fill="none" stroke="black" points="404,-224.5 404,-243.5 522,-243.5 522,-224.5 404,-224.5"/>
<text text-anchor="middle" x="463" y="-231.5" font-family="Helvetica,sans-Serif" font-size="10.00">SignalEasel/afsk.hpp</text>
</a>
</g>
</g>
<!-- Node2&#45;&gt;Node6 -->
<g id="edge5" class="edge">
<title>Node2&#45;&gt;Node6</title>
<path fill="none" stroke="midnightblue" d="M781.94,-280.56C714.45,-270.92 604.12,-255.16 532.54,-244.93"/>
<polygon fill="midnightblue" stroke="midnightblue" points="532.66,-241.42 522.27,-243.47 531.67,-248.35 532.66,-241.42"/>
</g>
<!-- Node18 -->
<g id="node18" class="node">
<title>Node18</title>
<g id="a_node18"><a xlink:href="ax25_8hpp.html" target="_top" xlink:title="AX.25 tools.">
<polygon fill="none" stroke="black" points="780.5,-224.5 780.5,-243.5 901.5,-243.5 901.5,-224.5 780.5,-224.5"/>
<text text-anchor="middle" x="841" y="-231.5" font-family="Helvetica,sans-Serif" font-size="10.00">SignalEasel/ax25.hpp</text>
</a>
</g>
</g>
<!-- Node2&#45;&gt;Node18 -->
<g id="edge28" class="edge">
<title>Node2&#45;&gt;Node18</title>
<path fill="none" stroke="midnightblue" d="M841,-280.08C841,-273.01 841,-262.86 841,-253.99"/>
<polygon fill="midnightblue" stroke="midnightblue" points="844.5,-253.75 841,-243.75 837.5,-253.75 844.5,-253.75"/>
</g>
<!-- Node7 -->
<g id="node7" class="node">
<title>Node7</title>
<g id="a_node7"><a xlink:title=" ">
<polygon fill="none" stroke="#bfbfbf" points="546.5,-112.5 546.5,-131.5 593.5,-131.5 593.5,-112.5 546.5,-112.5"/>
<text text-anchor="middle" x="570" y="-119.5" font-family="Helvetica,sans-Serif" font-size="10.00">vector</text>
</a>
</g>
</g>
<!-- Node6&#45;&gt;Node7 -->
<g id="edge6" class="edge">
<title>Node6&#45;&gt;Node7</title>
<path fill="none" stroke="midnightblue" d="M493.07,-224.46C512.22,-217.56 536.12,-205.98 551,-188 561.88,-174.85 566.53,-155.71 568.52,-141.6"/>
<polygon fill="midnightblue" stroke="midnightblue" points="572.01,-141.9 569.61,-131.58 565.05,-141.14 572.01,-141.9"/>
</g>
<!-- Node8 -->
<g id="node8" class="node">
<title>Node8</title>
<g id="a_node8"><a xlink:href="constants_8hpp.html" target="_top" xlink:title="Common constants used throughout the library.">
<polygon fill="none" stroke="black" points="40,-56.5 40,-75.5 184,-75.5 184,-56.5 40,-56.5"/>
<text text-anchor="middle" x="112" y="-63.5" font-family="Helvetica,sans-Serif" font-size="10.00">SignalEasel/constants.hpp</text>
</a>
</g>
</g>
<!-- Node6&#45;&gt;Node8 -->
<g id="edge7" class="edge">
<title>Node6&#45;&gt;Node8</title>
<path fill="none" stroke="midnightblue" d="M403.82,-230.72C296.73,-225.99 79.71,-213.36 57,-188 28.67,-156.35 69.52,-107.66 94.71,-82.79"/>
<polygon fill="midnightblue" stroke="midnightblue" points="97.41,-85.05 102.23,-75.61 92.58,-79.98 97.41,-85.05"/>
</g>
<!-- Node9 -->
<g id="node9" class="node">
<title>Node9</title>
<g id="a_node9"><a xlink:href="bit__stream_8hpp.html" target="_top" xlink:title="The bit stream class.">
<polygon fill="none" stroke="black" points="635.5,-168.5 635.5,-187.5 784.5,-187.5 784.5,-168.5 635.5,-168.5"/>
<text text-anchor="middle" x="710" y="-175.5" font-family="Helvetica,sans-Serif" font-size="10.00">SignalEasel/bit_stream.hpp</text>
</a>
</g>
</g>
<!-- Node6&#45;&gt;Node9 -->
<g id="edge9" class="edge">
<title>Node6&#45;&gt;Node9</title>
<path fill="none" stroke="midnightblue" d="M502.14,-224.44C545.23,-215.02 614.56,-199.87 661.17,-189.68"/>
<polygon fill="midnightblue" stroke="midnightblue" points="662.02,-193.07 671.05,-187.52 660.53,-186.23 662.02,-193.07"/>
</g>
<!-- Node10 -->
<g id="node10" class="node">
<title>Node10</title>
<g id="a_node10"><a xlink:href="demodulator_8hpp.html" target="_top" xlink:title="Base class for demodulators.">
<polygon fill="none" stroke="black" points="384,-168.5 384,-187.5 542,-187.5 542,-168.5 384,-168.5"/>
<text text-anchor="middle" x="463" y="-175.5" font-family="Helvetica,sans-Serif" font-size="10.00">SignalEasel/demodulator.hpp</text>
</a>
</g>
</g>
<!-- Node6&#45;&gt;Node10 -->
<g id="edge12" class="edge">
<title>Node6&#45;&gt;Node10</title>
<path fill="none" stroke="midnightblue" d="M463,-224.08C463,-217.01 463,-206.86 463,-197.99"/>
<polygon fill="midnightblue" stroke="midnightblue" points="466.5,-197.75 463,-187.75 459.5,-197.75 466.5,-197.75"/>
</g>
<!-- Node12 -->
<g id="node12" class="node">
<title>Node12</title>
<g id="a_node12"><a xlink:href="modulator_8hpp.html" target="_top" xlink:title="Modulator base class.">
<polygon fill="none" stroke="black" points="220,-168.5 220,-187.5 366,-187.5 366,-168.5 220,-168.5"/>
<text text-anchor="middle" x="293" y="-175.5" font-family="Helvetica,sans-Serif" font-size="10.00">SignalEasel/modulator.hpp</text>
</a>
</g>
</g>
<!-- Node6&#45;&gt;Node12 -->
<g id="edge17" class="edge">
<title>Node6&#45;&gt;Node12</title>
<path fill="none" stroke="midnightblue" d="M436.06,-224.44C407.34,-215.32 361.67,-200.81 329.68,-190.65"/>
<polygon fill="midnightblue" stroke="midnightblue" points="330.4,-187.21 319.81,-187.52 328.28,-193.88 330.4,-187.21"/>
</g>
<!-- Node13 -->
<g id="node13" class="node">
<title>Node13</title>
<g id="a_node13"><a xlink:href="receiver_8hpp.html" target="_top" xlink:title="Base class for receivers. Demodulators that use pulse audio.">
<polygon fill="none" stroke="black" points="66,-168.5 66,-187.5 202,-187.5 202,-168.5 66,-168.5"/>
<text text-anchor="middle" x="134" y="-175.5" font-family="Helvetica,sans-Serif" font-size="10.00">SignalEasel/receiver.hpp</text>
</a>
</g>
</g>
<!-- Node6&#45;&gt;Node13 -->
<g id="edge20" class="edge">
<title>Node6&#45;&gt;Node13</title>
<path fill="none" stroke="midnightblue" d="M410.87,-224.44C352.51,-214.87 258.02,-199.36 195.94,-189.17"/>
<polygon fill="midnightblue" stroke="midnightblue" points="196.32,-185.68 185.89,-187.52 195.19,-192.59 196.32,-185.68"/>
</g>
<!-- Node8&#45;&gt;Node3 -->
<g id="edge8" class="edge">
<title>Node8&#45;&gt;Node3</title>
<path fill="none" stroke="midnightblue" d="M170.47,-56.44C248.05,-45.09 382.57,-25.4 446,-16.12"/>
<polygon fill="midnightblue" stroke="midnightblue" points="446.52,-19.58 455.91,-14.67 445.5,-12.66 446.52,-19.58"/>
</g>
<!-- Node9&#45;&gt;Node3 -->
<g id="edge10" class="edge">
<title>Node9&#45;&gt;Node3</title>
<path fill="none" stroke="midnightblue" d="M698.01,-168.31C660.91,-141.42 547.7,-59.35 501.23,-25.67"/>
<polygon fill="midnightblue" stroke="midnightblue" points="503.02,-22.64 492.87,-19.61 498.91,-28.31 503.02,-22.64"/>
</g>
<!-- Node9&#45;&gt;Node7 -->
<g id="edge11" class="edge">
<title>Node9&#45;&gt;Node7</title>
<path fill="none" stroke="midnightblue" d="M687.82,-168.44C664.57,-159.48 627.85,-145.31 601.58,-135.18"/>
<polygon fill="midnightblue" stroke="midnightblue" points="602.67,-131.85 592.08,-131.52 600.15,-138.38 602.67,-131.85"/>
</g>
<!-- Node10&#45;&gt;Node4 -->
<g id="edge13" class="edge">
<title>Node10&#45;&gt;Node4</title>
<path fill="none" stroke="midnightblue" d="M468.34,-168.3C473.61,-159.42 481.65,-145.12 487,-132 493.24,-116.69 498.36,-98.59 501.7,-85.38"/>
<polygon fill="midnightblue" stroke="midnightblue" points="505.12,-86.15 504.08,-75.6 498.32,-84.49 505.12,-86.15"/>
</g>
<!-- Node10&#45;&gt;Node7 -->
<g id="edge14" class="edge">
<title>Node10&#45;&gt;Node7</title>
<path fill="none" stroke="midnightblue" d="M480.19,-168.32C497.35,-159.66 523.95,-146.24 543.75,-136.25"/>
<polygon fill="midnightblue" stroke="midnightblue" points="545.5,-139.28 552.85,-131.65 542.35,-133.04 545.5,-139.28"/>
</g>
<!-- Node11 -->
<g id="node11" class="node">
<title>Node11</title>
<g id="a_node11"><a xlink:href="settings_8hpp.html" target="_top" xlink:title="Settings structures for SignalEasel.">
<polygon fill="none" stroke="black" points="342,-112.5 342,-131.5 478,-131.5 478,-112.5 342,-112.5"/>
<text text-anchor="middle" x="410" y="-119.5" font-family="Helvetica,sans-Serif" font-size="10.00">SignalEasel/settings.hpp</text>
</a>
</g>
</g>
<!-- Node10&#45;&gt;Node11 -->
<g id="edge15" class="edge">
<title>Node10&#45;&gt;Node11</title>
<path fill="none" stroke="midnightblue" d="M454.25,-168.08C446.53,-160.22 435.1,-148.57 425.78,-139.08"/>
<polygon fill="midnightblue" stroke="midnightblue" points="428.09,-136.44 418.59,-131.75 423.1,-141.34 428.09,-136.44"/>
</g>
<!-- Node11&#45;&gt;Node4 -->
<g id="edge16" class="edge">
<title>Node11&#45;&gt;Node4</title>
<path fill="none" stroke="midnightblue" d="M425.42,-112.32C440.54,-103.82 463.82,-90.73 481.47,-80.8"/>
<polygon fill="midnightblue" stroke="midnightblue" points="483.61,-83.61 490.61,-75.65 480.18,-77.51 483.61,-83.61"/>
</g>
<!-- Node12&#45;&gt;Node7 -->
<g id="edge18" class="edge">
<title>Node12&#45;&gt;Node7</title>
<path fill="none" stroke="midnightblue" d="M336.89,-168.44C392.29,-157.64 486.38,-139.3 536.4,-129.55"/>
<polygon fill="midnightblue" stroke="midnightblue" points="537.23,-132.95 546.38,-127.6 535.89,-126.08 537.23,-132.95"/>
</g>
<!-- Node12&#45;&gt;Node11 -->
<g id="edge19" class="edge">
<title>Node12&#45;&gt;Node11</title>
<path fill="none" stroke="midnightblue" d="M311.54,-168.44C330.62,-159.64 360.57,-145.81 382.44,-135.72"/>
<polygon fill="midnightblue" stroke="midnightblue" points="383.93,-138.88 391.55,-131.52 381,-132.53 383.93,-138.88"/>
</g>
<!-- Node13&#45;&gt;Node11 -->
<g id="edge27" class="edge">
<title>Node13&#45;&gt;Node11</title>
<path fill="none" stroke="midnightblue" d="M177.73,-168.44C226.18,-158.96 304.33,-143.67 356.42,-133.48"/>
<polygon fill="midnightblue" stroke="midnightblue" points="357.33,-136.87 366.47,-131.52 355.99,-130 357.33,-136.87"/>
</g>
<!-- Node14 -->
<g id="node14" class="node">
<title>Node14</title>
<g id="a_node14"><a xlink:href="pulse__audio_8hpp.html" target="_top" xlink:title="Simple pulse audio interface.">
<polygon fill="none" stroke="black" points="168.5,-112.5 168.5,-131.5 323.5,-131.5 323.5,-112.5 168.5,-112.5"/>
<text text-anchor="middle" x="246" y="-119.5" font-family="Helvetica,sans-Serif" font-size="10.00">SignalEasel/pulse_audio.hpp</text>
</a>
</g>
</g>
<!-- Node13&#45;&gt;Node14 -->
<g id="edge21" class="edge">
<title>Node13&#45;&gt;Node14</title>
<path fill="none" stroke="midnightblue" d="M151.99,-168.32C170.04,-159.62 198.05,-146.12 218.8,-136.11"/>
<polygon fill="midnightblue" stroke="midnightblue" points="220.56,-139.15 228.05,-131.65 217.52,-132.84 220.56,-139.15"/>
</g>
<!-- Node14&#45;&gt;Node4 -->
<g id="edge23" class="edge">
<title>Node14&#45;&gt;Node4</title>
<path fill="none" stroke="midnightblue" d="M288.43,-112.46C332.57,-103.53 403.68,-89.03 465,-76 467.87,-75.39 470.86,-74.75 473.85,-74.1"/>
<polygon fill="midnightblue" stroke="midnightblue" points="474.86,-77.46 483.88,-71.91 473.37,-70.62 474.86,-77.46"/>
</g>
<!-- Node14&#45;&gt;Node8 -->
<g id="edge24" class="edge">
<title>Node14&#45;&gt;Node8</title>
<path fill="none" stroke="midnightblue" d="M224.77,-112.44C202.62,-103.52 167.68,-89.44 142.56,-79.32"/>
<polygon fill="midnightblue" stroke="midnightblue" points="143.72,-76.01 133.13,-75.52 141.1,-82.5 143.72,-76.01"/>
</g>
<!-- Node15 -->
<g id="node15" class="node">
<title>Node15</title>
<g id="a_node15"><a xlink:title=" ">
<polygon fill="none" stroke="#bfbfbf" points="414,-56.5 414,-75.5 456,-75.5 456,-56.5 414,-56.5"/>
<text text-anchor="middle" x="435" y="-63.5" font-family="Helvetica,sans-Serif" font-size="10.00">array</text>
</a>
</g>
</g>
<!-- Node14&#45;&gt;Node15 -->
<g id="edge22" class="edge">
<title>Node14&#45;&gt;Node15</title>
<path fill="none" stroke="midnightblue" d="M275.95,-112.44C311,-102.43 368.75,-85.93 404.18,-75.81"/>
<polygon fill="midnightblue" stroke="midnightblue" points="405.32,-79.12 413.97,-73.01 403.39,-72.39 405.32,-79.12"/>
</g>
<!-- Node16 -->
<g id="node16" class="node">
<title>Node16</title>
<g id="a_node16"><a xlink:title=" ">
<polygon fill="none" stroke="#bfbfbf" points="308.5,-56.5 308.5,-75.5 385.5,-75.5 385.5,-56.5 308.5,-56.5"/>
<text text-anchor="middle" x="347" y="-63.5" font-family="Helvetica,sans-Serif" font-size="10.00">pulse/error.h</text>
</a>
</g>
</g>
<!-- Node14&#45;&gt;Node16 -->
<g id="edge25" class="edge">
<title>Node14&#45;&gt;Node16</title>
<path fill="none" stroke="midnightblue" d="M262.23,-112.32C278.35,-103.7 303.3,-90.36 321.96,-80.39"/>
<polygon fill="midnightblue" stroke="midnightblue" points="323.64,-83.46 330.81,-75.65 320.34,-77.28 323.64,-83.46"/>
</g>
<!-- Node17 -->
<g id="node17" class="node">
<title>Node17</title>
<g id="a_node17"><a xlink:title=" ">
<polygon fill="none" stroke="#bfbfbf" points="202,-56.5 202,-75.5 290,-75.5 290,-56.5 202,-56.5"/>
<text text-anchor="middle" x="246" y="-63.5" font-family="Helvetica,sans-Serif" font-size="10.00">pulse/simple.h</text>
</a>
</g>
</g>
<!-- Node14&#45;&gt;Node17 -->
<g id="edge26" class="edge">
<title>Node14&#45;&gt;Node17</title>
<path fill="none" stroke="midnightblue" d="M246,-112.08C246,-105.01 246,-94.86 246,-85.99"/>
<polygon fill="midnightblue" stroke="midnightblue" points="249.5,-85.75 246,-75.75 242.5,-85.75 249.5,-85.75"/>
</g>
<!-- Node18&#45;&gt;Node3 -->
<g id="edge29" class="edge">
<title>Node18&#45;&gt;Node3</title>
<path fill="none" stroke="midnightblue" d="M873.18,-224.49C891.54,-217.8 913.02,-206.45 924,-188 948.42,-146.99 879.2,-119.91 865,-112 747.86,-46.75 587.04,-22.34 516.54,-14.39"/>
<polygon fill="midnightblue" stroke="midnightblue" points="516.74,-10.89 506.42,-13.29 515.98,-17.85 516.74,-10.89"/>
</g>
<!-- Node18&#45;&gt;Node4 -->
<g id="edge32" class="edge">
<title>Node18&#45;&gt;Node4</title>
<path fill="none" stroke="midnightblue" d="M862.85,-224.42C887.36,-213.38 922.11,-192.66 909,-168 888.11,-128.71 867.54,-127.95 826,-112 726.16,-73.66 597.56,-67.47 538.41,-66.8"/>
<polygon fill="midnightblue" stroke="midnightblue" points="538.21,-63.3 528.19,-66.74 538.17,-70.3 538.21,-63.3"/>
</g>
<!-- Node18&#45;&gt;Node7 -->
<g id="edge33" class="edge">
<title>Node18&#45;&gt;Node7</title>
<path fill="none" stroke="midnightblue" d="M780.12,-230.45C735.15,-226.23 673.87,-215.4 627,-188 607.23,-176.44 590.78,-155.57 580.71,-140.59"/>
<polygon fill="midnightblue" stroke="midnightblue" points="583.39,-138.29 575.05,-131.76 577.5,-142.07 583.39,-138.29"/>
</g>
<!-- Node18&#45;&gt;Node9 -->
<g id="edge34" class="edge">
<title>Node18&#45;&gt;Node9</title>
<path fill="none" stroke="midnightblue" d="M820.24,-224.44C798.68,-215.56 764.74,-201.56 740.21,-191.45"/>
<polygon fill="midnightblue" stroke="midnightblue" points="741.24,-188.09 730.66,-187.52 738.57,-194.56 741.24,-188.09"/>
</g>
<!-- Node18&#45;&gt;Node15 -->
<g id="edge30" class="edge">
<title>Node18&#45;&gt;Node15</title>
<path fill="none" stroke="midnightblue" d="M837.13,-224.43C830.39,-210.48 815.17,-182.93 794,-168 766.6,-148.68 548.5,-94.5 466.25,-74.52"/>
<polygon fill="midnightblue" stroke="midnightblue" points="467.01,-71.1 456.46,-72.15 465.36,-77.91 467.01,-71.1"/>
</g>
<!-- Node19 -->
<g id="node19" class="node">
<title>Node19</title>
<g id="a_node19"><a xlink:title=" ">
<polygon fill="none" stroke="#bfbfbf" points="840,-168.5 840,-187.5 900,-187.5 900,-168.5 840,-168.5"/>
<text text-anchor="middle" x="870" y="-175.5" font-family="Helvetica,sans-Serif" font-size="10.00">iostream</text>
</a>
</g>
</g>
<!-- Node18&#45;&gt;Node19 -->
<g id="edge31" class="edge">
<title>Node18&#45;&gt;Node19</title>
<path fill="none" stroke="midnightblue" d="M845.79,-224.08C849.76,-216.69 855.53,-205.95 860.43,-196.81"/>
<polygon fill="midnightblue" stroke="midnightblue" points="863.65,-198.22 865.3,-187.75 857.49,-194.91 863.65,-198.22"/>
</g>
</g>
</svg>
