<?xml version="1.0" encoding="UTF-8" standalone="no"?>
<!DOCTYPE svg PUBLIC "-//W3C//DTD SVG 1.1//EN"
 "http://www.w3.org/Graphics/SVG/1.1/DTD/svg11.dtd">
<!-- Generated by graphviz version 2.43.0 (0)
 -->
<!-- Title: aprs_encoders.cpp Pages: 1 -->
<svg width="1126pt" height="364pt"
 viewBox="0.00 0.00 1126.00 364.00" xmlns="http://www.w3.org/2000/svg" xmlns:xlink="http://www.w3.org/1999/xlink">
<g id="graph0" class="graph" transform="scale(1 1) rotate(0) translate(4 360)">
<title>aprs_encoders.cpp</title>
<!-- Node1 -->
<g id="node1" class="node">
<title>Node1</title>
<g id="a_node1"><a xlink:title="Encoding functions for APRS packets.">
<polygon fill="#bfbfbf" stroke="black" points="370.5,-336.5 370.5,-355.5 477.5,-355.5 477.5,-336.5 370.5,-336.5"/>
<text text-anchor="middle" x="424" y="-343.5" font-family="Helvetica,sans-Serif" font-size="10.00">aprs_encoders.cpp</text>
</a>
</g>
</g>
<!-- Node2 -->
<g id="node2" class="node">
<title>Node2</title>
<g id="a_node2"><a xlink:href="aprs_8hpp.html" target="_top" xlink:title="APRS implementation.">
<polygon fill="none" stroke="black" points="176,-280.5 176,-299.5 294,-299.5 294,-280.5 176,-280.5"/>
<text text-anchor="middle" x="235" y="-287.5" font-family="Helvetica,sans-Serif" font-size="10.00">SignalEasel/aprs.hpp</text>
</a>
</g>
</g>
<!-- Node1&#45;&gt;Node2 -->
<g id="edge1" class="edge">
<title>Node1&#45;&gt;Node2</title>
<path fill="none" stroke="midnightblue" d="M394.05,-336.44C361.84,-327.24 310.47,-312.56 274.86,-302.39"/>
<polygon fill="midnightblue" stroke="midnightblue" points="275.38,-298.9 264.81,-299.52 273.46,-305.63 275.38,-298.9"/>
</g>
<!-- Node20 -->
<g id="node20" class="node">
<title>Node20</title>
<g id="a_node20"><a xlink:href="exception_8hpp.html" target="_top" xlink:title="SignalEasel exceptions.">
<polygon fill="none" stroke="black" points="740.5,-280.5 740.5,-299.5 885.5,-299.5 885.5,-280.5 740.5,-280.5"/>
<text text-anchor="middle" x="813" y="-287.5" font-family="Helvetica,sans-Serif" font-size="10.00">SignalEasel/exception.hpp</text>
</a>
</g>
</g>
<!-- Node1&#45;&gt;Node20 -->
<g id="edge35" class="edge">
<title>Node1&#45;&gt;Node20</title>
<path fill="none" stroke="midnightblue" d="M477.68,-337.55C546.3,-328.02 665.31,-311.5 741.54,-300.92"/>
<polygon fill="midnightblue" stroke="midnightblue" points="742.12,-304.37 751.54,-299.53 741.16,-297.44 742.12,-304.37"/>
</g>
<!-- Node3 -->
<g id="node3" class="node">
<title>Node3</title>
<g id="a_node3"><a xlink:title=" ">
<polygon fill="none" stroke="#bfbfbf" points="179,-0.5 179,-19.5 229,-19.5 229,-0.5 179,-0.5"/>
<text text-anchor="middle" x="204" y="-7.5" font-family="Helvetica,sans-Serif" font-size="10.00">cstdint</text>
</a>
</g>
</g>
<!-- Node2&#45;&gt;Node3 -->
<g id="edge2" class="edge">
<title>Node2&#45;&gt;Node3</title>
<path fill="none" stroke="midnightblue" d="M175.7,-286.27C106.08,-279.5 0,-256.48 0,-179 0,-179 0,-179 0,-121 0,-45.24 110.35,-21.42 168.73,-14.12"/>
<polygon fill="midnightblue" stroke="midnightblue" points="169.45,-17.56 178.99,-12.94 168.65,-10.6 169.45,-17.56"/>
</g>
<!-- Node4 -->
<g id="node4" class="node">
<title>Node4</title>
<g id="a_node4"><a xlink:title=" ">
<polygon fill="none" stroke="#bfbfbf" points="627,-56.5 627,-75.5 671,-75.5 671,-56.5 627,-56.5"/>
<text text-anchor="middle" x="649" y="-63.5" font-family="Helvetica,sans-Serif" font-size="10.00">string</text>
</a>
</g>
</g>
<!-- Node2&#45;&gt;Node4 -->
<g id="edge3" class="edge">
<title>Node2&#45;&gt;Node4</title>
<path fill="none" stroke="midnightblue" d="M175.88,-285.73C146.54,-280.76 113.5,-269.38 95,-244 75.1,-216.7 74.42,-194.79 95,-168 159.2,-84.44 508.11,-69.99 616.72,-67.51"/>
<polygon fill="midnightblue" stroke="midnightblue" points="616.82,-71.01 626.75,-67.3 616.68,-64.01 616.82,-71.01"/>
</g>
<!-- Node5 -->
<g id="node5" class="node">
<title>Node5</title>
<g id="a_node5"><a xlink:title=" ">
<polygon fill="none" stroke="#bfbfbf" points="104,-224.5 104,-243.5 226,-243.5 226,-224.5 104,-224.5"/>
<text text-anchor="middle" x="165" y="-231.5" font-family="Helvetica,sans-Serif" font-size="10.00">BoosterSeat/time.hpp</text>
</a>
</g>
</g>
<!-- Node2&#45;&gt;Node5 -->
<g id="edge4" class="edge">
<title>Node2&#45;&gt;Node5</title>
<path fill="none" stroke="midnightblue" d="M223.75,-280.32C213.2,-272.18 197.2,-259.84 184.56,-250.09"/>
<polygon fill="midnightblue" stroke="midnightblue" points="186.51,-247.17 176.45,-243.83 182.23,-252.71 186.51,-247.17"/>
</g>
<!-- Node6 -->
<g id="node6" class="node">
<title>Node6</title>
<g id="a_node6"><a xlink:href="afsk_8hpp.html" target="_top" xlink:title="AFSK related modulation/demodulation.">
<polygon fill="none" stroke="black" points="514,-224.5 514,-243.5 632,-243.5 632,-224.5 514,-224.5"/>
<text text-anchor="middle" x="573" y="-231.5" font-family="Helvetica,sans-Serif" font-size="10.00">SignalEasel/afsk.hpp</text>
</a>
</g>
</g>
<!-- Node2&#45;&gt;Node6 -->
<g id="edge5" class="edge">
<title>Node2&#45;&gt;Node6</title>
<path fill="none" stroke="midnightblue" d="M288.56,-280.44C348.63,-270.85 445.99,-255.29 509.76,-245.1"/>
<polygon fill="midnightblue" stroke="midnightblue" points="510.37,-248.55 519.69,-243.52 509.27,-241.64 510.37,-248.55"/>
</g>
<!-- Node18 -->
<g id="node18" class="node">
<title>Node18</title>
<g id="a_node18"><a xlink:href="ax25_8hpp.html" target="_top" xlink:title="AX.25 tools.">
<polygon fill="none" stroke="black" points="244.5,-224.5 244.5,-243.5 365.5,-243.5 365.5,-224.5 244.5,-224.5"/>
<text text-anchor="middle" x="305" y="-231.5" font-family="Helvetica,sans-Serif" font-size="10.00">SignalEasel/ax25.hpp</text>
</a>
</g>
</g>
<!-- Node2&#45;&gt;Node18 -->
<g id="edge28" class="edge">
<title>Node2&#45;&gt;Node18</title>
<path fill="none" stroke="midnightblue" d="M246.25,-280.32C256.8,-272.18 272.8,-259.84 285.44,-250.09"/>
<polygon fill="midnightblue" stroke="midnightblue" points="287.77,-252.71 293.55,-243.83 283.49,-247.17 287.77,-252.71"/>
</g>
<!-- Node7 -->
<g id="node7" class="node">
<title>Node7</title>
<g id="a_node7"><a xlink:title=" ">
<polygon fill="none" stroke="#bfbfbf" points="448.5,-112.5 448.5,-131.5 495.5,-131.5 495.5,-112.5 448.5,-112.5"/>
<text text-anchor="middle" x="472" y="-119.5" font-family="Helvetica,sans-Serif" font-size="10.00">vector</text>
</a>
</g>
</g>
<!-- Node6&#45;&gt;Node7 -->
<g id="edge6" class="edge">
<title>Node6&#45;&gt;Node7</title>
<path fill="none" stroke="midnightblue" d="M546.13,-224.42C528.09,-217.35 505.13,-205.6 491,-188 480.31,-174.69 475.64,-155.57 473.59,-141.51"/>
<polygon fill="midnightblue" stroke="midnightblue" points="477.06,-141.07 472.45,-131.53 470.11,-141.86 477.06,-141.07"/>
</g>
<!-- Node8 -->
<g id="node8" class="node">
<title>Node8</title>
<g id="a_node8"><a xlink:href="constants_8hpp.html" target="_top" xlink:title="Common constants used throughout the library.">
<polygon fill="none" stroke="black" points="974,-56.5 974,-75.5 1118,-75.5 1118,-56.5 974,-56.5"/>
<text text-anchor="middle" x="1046" y="-63.5" font-family="Helvetica,sans-Serif" font-size="10.00">SignalEasel/constants.hpp</text>
</a>
</g>
</g>
<!-- Node6&#45;&gt;Node8 -->
<g id="edge7" class="edge">
<title>Node6&#45;&gt;Node8</title>
<path fill="none" stroke="midnightblue" d="M632.17,-229.15C738.81,-221.82 955.03,-205.08 985,-188 1022.36,-166.7 1037.47,-114.12 1043.06,-85.79"/>
<polygon fill="midnightblue" stroke="midnightblue" points="1046.56,-86.07 1044.85,-75.61 1039.67,-84.85 1046.56,-86.07"/>
</g>
<!-- Node9 -->
<g id="node9" class="node">
<title>Node9</title>
<g id="a_node9"><a xlink:href="bit__stream_8hpp.html" target="_top" xlink:title="The bit stream class.">
<polygon fill="none" stroke="black" points="295.5,-168.5 295.5,-187.5 444.5,-187.5 444.5,-168.5 295.5,-168.5"/>
<text text-anchor="middle" x="370" y="-175.5" font-family="Helvetica,sans-Serif" font-size="10.00">SignalEasel/bit_stream.hpp</text>
</a>
</g>
</g>
<!-- Node6&#45;&gt;Node9 -->
<g id="edge9" class="edge">
<title>Node6&#45;&gt;Node9</title>
<path fill="none" stroke="midnightblue" d="M540.83,-224.44C505.94,-215.16 450.11,-200.31 411.83,-190.13"/>
<polygon fill="midnightblue" stroke="midnightblue" points="412.58,-186.7 402.02,-187.52 410.78,-193.47 412.58,-186.7"/>
</g>
<!-- Node10 -->
<g id="node10" class="node">
<title>Node10</title>
<g id="a_node10"><a xlink:href="demodulator_8hpp.html" target="_top" xlink:title="Base class for demodulators.">
<polygon fill="none" stroke="black" points="664,-168.5 664,-187.5 822,-187.5 822,-168.5 664,-168.5"/>
<text text-anchor="middle" x="743" y="-175.5" font-family="Helvetica,sans-Serif" font-size="10.00">SignalEasel/demodulator.hpp</text>
</a>
</g>
</g>
<!-- Node6&#45;&gt;Node10 -->
<g id="edge12" class="edge">
<title>Node6&#45;&gt;Node10</title>
<path fill="none" stroke="midnightblue" d="M599.94,-224.44C628.66,-215.32 674.33,-200.81 706.32,-190.65"/>
<polygon fill="midnightblue" stroke="midnightblue" points="707.72,-193.88 716.19,-187.52 705.6,-187.21 707.72,-193.88"/>
</g>
<!-- Node12 -->
<g id="node12" class="node">
<title>Node12</title>
<g id="a_node12"><a xlink:href="modulator_8hpp.html" target="_top" xlink:title="Modulator base class.">
<polygon fill="none" stroke="black" points="500,-168.5 500,-187.5 646,-187.5 646,-168.5 500,-168.5"/>
<text text-anchor="middle" x="573" y="-175.5" font-family="Helvetica,sans-Serif" font-size="10.00">SignalEasel/modulator.hpp</text>
</a>
</g>
</g>
<!-- Node6&#45;&gt;Node12 -->
<g id="edge17" class="edge">
<title>Node6&#45;&gt;Node12</title>
<path fill="none" stroke="midnightblue" d="M573,-224.08C573,-217.01 573,-206.86 573,-197.99"/>
<polygon fill="midnightblue" stroke="midnightblue" points="576.5,-197.75 573,-187.75 569.5,-197.75 576.5,-197.75"/>
</g>
<!-- Node13 -->
<g id="node13" class="node">
<title>Node13</title>
<g id="a_node13"><a xlink:href="receiver_8hpp.html" target="_top" xlink:title="Base class for receivers. Demodulators that use pulse audio.">
<polygon fill="none" stroke="black" points="840,-168.5 840,-187.5 976,-187.5 976,-168.5 840,-168.5"/>
<text text-anchor="middle" x="908" y="-175.5" font-family="Helvetica,sans-Serif" font-size="10.00">SignalEasel/receiver.hpp</text>
</a>
</g>
</g>
<!-- Node6&#45;&gt;Node13 -->
<g id="edge20" class="edge">
<title>Node6&#45;&gt;Node13</title>
<path fill="none" stroke="midnightblue" d="M626.08,-224.44C685.5,-214.87 781.72,-199.36 844.93,-189.17"/>
<polygon fill="midnightblue" stroke="midnightblue" points="845.85,-192.56 855.17,-187.52 844.74,-185.65 845.85,-192.56"/>
</g>
<!-- Node8&#45;&gt;Node3 -->
<g id="edge8" class="edge">
<title>Node8&#45;&gt;Node3</title>
<path fill="none" stroke="midnightblue" d="M973.59,-56.77C970.69,-56.5 967.82,-56.24 965,-56 685.83,-32.25 347.97,-17.01 239.4,-12.44"/>
<polygon fill="midnightblue" stroke="midnightblue" points="239.46,-8.94 229.32,-12.02 239.17,-15.94 239.46,-8.94"/>
</g>
<!-- Node9&#45;&gt;Node3 -->
<g id="edge10" class="edge">
<title>Node9&#45;&gt;Node3</title>
<path fill="none" stroke="midnightblue" d="M361.08,-168.08C334.27,-141.27 254.19,-61.19 219.89,-26.89"/>
<polygon fill="midnightblue" stroke="midnightblue" points="222.11,-24.16 212.57,-19.57 217.16,-29.11 222.11,-24.16"/>
</g>
<!-- Node9&#45;&gt;Node7 -->
<g id="edge11" class="edge">
<title>Node9&#45;&gt;Node7</title>
<path fill="none" stroke="midnightblue" d="M386.39,-168.32C402.67,-159.7 427.87,-146.36 446.72,-136.39"/>
<polygon fill="midnightblue" stroke="midnightblue" points="448.45,-139.43 455.65,-131.65 445.18,-133.24 448.45,-139.43"/>
</g>
<!-- Node10&#45;&gt;Node4 -->
<g id="edge13" class="edge">
<title>Node10&#45;&gt;Node4</title>
<path fill="none" stroke="midnightblue" d="M714.37,-168.41C696.27,-161.48 673.93,-149.9 661,-132 651.44,-118.77 648.8,-100.19 648.34,-86.28"/>
<polygon fill="midnightblue" stroke="midnightblue" points="651.84,-85.92 648.36,-75.91 644.84,-85.9 651.84,-85.92"/>
</g>
<!-- Node10&#45;&gt;Node7 -->
<g id="edge14" class="edge">
<title>Node10&#45;&gt;Node7</title>
<path fill="none" stroke="midnightblue" d="M700.06,-168.44C646.14,-157.7 554.75,-139.49 505.63,-129.7"/>
<polygon fill="midnightblue" stroke="midnightblue" points="506.31,-126.27 495.81,-127.75 504.94,-133.13 506.31,-126.27"/>
</g>
<!-- Node11 -->
<g id="node11" class="node">
<title>Node11</title>
<g id="a_node11"><a xlink:href="settings_8hpp.html" target="_top" xlink:title="Settings structures for SignalEasel.">
<polygon fill="none" stroke="black" points="670,-112.5 670,-131.5 806,-131.5 806,-112.5 670,-112.5"/>
<text text-anchor="middle" x="738" y="-119.5" font-family="Helvetica,sans-Serif" font-size="10.00">SignalEasel/settings.hpp</text>
</a>
</g>
</g>
<!-- Node10&#45;&gt;Node11 -->
<g id="edge15" class="edge">
<title>Node10&#45;&gt;Node11</title>
<path fill="none" stroke="midnightblue" d="M742.17,-168.08C741.52,-161.01 740.58,-150.86 739.76,-141.99"/>
<polygon fill="midnightblue" stroke="midnightblue" points="743.22,-141.39 738.81,-131.75 736.25,-142.03 743.22,-141.39"/>
</g>
<!-- Node11&#45;&gt;Node4 -->
<g id="edge16" class="edge">
<title>Node11&#45;&gt;Node4</title>
<path fill="none" stroke="midnightblue" d="M723.7,-112.32C709.82,-103.9 688.51,-90.97 672.2,-81.07"/>
<polygon fill="midnightblue" stroke="midnightblue" points="673.63,-77.85 663.26,-75.65 670,-83.83 673.63,-77.85"/>
</g>
<!-- Node12&#45;&gt;Node7 -->
<g id="edge18" class="edge">
<title>Node12&#45;&gt;Node7</title>
<path fill="none" stroke="midnightblue" d="M556.77,-168.32C540.65,-159.7 515.7,-146.36 497.04,-136.39"/>
<polygon fill="midnightblue" stroke="midnightblue" points="498.66,-133.28 488.19,-131.65 495.36,-139.46 498.66,-133.28"/>
</g>
<!-- Node12&#45;&gt;Node11 -->
<g id="edge19" class="edge">
<title>Node12&#45;&gt;Node11</title>
<path fill="none" stroke="midnightblue" d="M599.14,-168.44C627.02,-159.32 671.35,-144.81 702.4,-134.65"/>
<polygon fill="midnightblue" stroke="midnightblue" points="703.56,-137.95 711.98,-131.52 701.38,-131.3 703.56,-137.95"/>
</g>
<!-- Node13&#45;&gt;Node11 -->
<g id="edge27" class="edge">
<title>Node13&#45;&gt;Node11</title>
<path fill="none" stroke="midnightblue" d="M881.06,-168.44C852.34,-159.32 806.67,-144.81 774.68,-134.65"/>
<polygon fill="midnightblue" stroke="midnightblue" points="775.4,-131.21 764.81,-131.52 773.28,-137.88 775.4,-131.21"/>
</g>
<!-- Node14 -->
<g id="node14" class="node">
<title>Node14</title>
<g id="a_node14"><a xlink:href="pulse__audio_8hpp.html" target="_top" xlink:title="Simple pulse audio interface.">
<polygon fill="none" stroke="black" points="862.5,-112.5 862.5,-131.5 1017.5,-131.5 1017.5,-112.5 862.5,-112.5"/>
<text text-anchor="middle" x="940" y="-119.5" font-family="Helvetica,sans-Serif" font-size="10.00">SignalEasel/pulse_audio.hpp</text>
</a>
</g>
</g>
<!-- Node13&#45;&gt;Node14 -->
<g id="edge21" class="edge">
<title>Node13&#45;&gt;Node14</title>
<path fill="none" stroke="midnightblue" d="M913.28,-168.08C917.71,-160.61 924.16,-149.72 929.62,-140.52"/>
<polygon fill="midnightblue" stroke="midnightblue" points="932.73,-142.14 934.81,-131.75 926.71,-138.57 932.73,-142.14"/>
</g>
<!-- Node14&#45;&gt;Node4 -->
<g id="edge23" class="edge">
<title>Node14&#45;&gt;Node4</title>
<path fill="none" stroke="midnightblue" d="M887.73,-112.45C836.66,-103.91 756.79,-90.07 688,-76 685.79,-75.55 683.51,-75.06 681.21,-74.57"/>
<polygon fill="midnightblue" stroke="midnightblue" points="681.75,-71.1 671.23,-72.33 680.23,-77.93 681.75,-71.1"/>
</g>
<!-- Node14&#45;&gt;Node8 -->
<g id="edge24" class="edge">
<title>Node14&#45;&gt;Node8</title>
<path fill="none" stroke="midnightblue" d="M957.03,-112.32C974.03,-103.66 1000.38,-90.24 1019.99,-80.25"/>
<polygon fill="midnightblue" stroke="midnightblue" points="1021.69,-83.31 1029.01,-75.65 1018.51,-77.08 1021.69,-83.31"/>
</g>
<!-- Node15 -->
<g id="node15" class="node">
<title>Node15</title>
<g id="a_node15"><a xlink:title=" ">
<polygon fill="none" stroke="#bfbfbf" points="697,-56.5 697,-75.5 739,-75.5 739,-56.5 697,-56.5"/>
<text text-anchor="middle" x="718" y="-63.5" font-family="Helvetica,sans-Serif" font-size="10.00">array</text>
</a>
</g>
</g>
<!-- Node14&#45;&gt;Node15 -->
<g id="edge22" class="edge">
<title>Node14&#45;&gt;Node15</title>
<path fill="none" stroke="midnightblue" d="M904.82,-112.44C861.97,-102.02 790.24,-84.57 749.25,-74.6"/>
<polygon fill="midnightblue" stroke="midnightblue" points="749.83,-71.14 739.28,-72.18 748.17,-77.94 749.83,-71.14"/>
</g>
<!-- Node16 -->
<g id="node16" class="node">
<title>Node16</title>
<g id="a_node16"><a xlink:title=" ">
<polygon fill="none" stroke="#bfbfbf" points="772.5,-56.5 772.5,-75.5 849.5,-75.5 849.5,-56.5 772.5,-56.5"/>
<text text-anchor="middle" x="811" y="-63.5" font-family="Helvetica,sans-Serif" font-size="10.00">pulse/error.h</text>
</a>
</g>
</g>
<!-- Node14&#45;&gt;Node16 -->
<g id="edge25" class="edge">
<title>Node14&#45;&gt;Node16</title>
<path fill="none" stroke="midnightblue" d="M919.56,-112.44C898.33,-103.56 864.9,-89.56 840.75,-79.45"/>
<polygon fill="midnightblue" stroke="midnightblue" points="841.92,-76.15 831.34,-75.52 839.22,-82.61 841.92,-76.15"/>
</g>
<!-- Node17 -->
<g id="node17" class="node">
<title>Node17</title>
<g id="a_node17"><a xlink:title=" ">
<polygon fill="none" stroke="#bfbfbf" points="868,-56.5 868,-75.5 956,-75.5 956,-56.5 868,-56.5"/>
<text text-anchor="middle" x="912" y="-63.5" font-family="Helvetica,sans-Serif" font-size="10.00">pulse/simple.h</text>
</a>
</g>
</g>
<!-- Node14&#45;&gt;Node17 -->
<g id="edge26" class="edge">
<title>Node14&#45;&gt;Node17</title>
<path fill="none" stroke="midnightblue" d="M935.38,-112.08C931.54,-104.69 925.98,-93.95 921.24,-84.81"/>
<polygon fill="midnightblue" stroke="midnightblue" points="924.25,-83.02 916.54,-75.75 918.03,-86.24 924.25,-83.02"/>
</g>
<!-- Node18&#45;&gt;Node3 -->
<g id="edge29" class="edge">
<title>Node18&#45;&gt;Node3</title>
<path fill="none" stroke="midnightblue" d="M247.66,-224.48C188.86,-215.15 104.65,-199.94 95,-188 50.1,-132.45 139.78,-57 182.78,-25.62"/>
<polygon fill="midnightblue" stroke="midnightblue" points="185.08,-28.28 191.18,-19.62 181.01,-22.58 185.08,-28.28"/>
</g>
<!-- Node18&#45;&gt;Node4 -->
<g id="edge32" class="edge">
<title>Node18&#45;&gt;Node4</title>
<path fill="none" stroke="midnightblue" d="M296.08,-224.41C283.64,-211.38 264.01,-186.2 277,-168 317.09,-111.84 533.97,-80.62 616.81,-70.6"/>
<polygon fill="midnightblue" stroke="midnightblue" points="617.39,-74.06 626.9,-69.41 616.56,-67.11 617.39,-74.06"/>
</g>
<!-- Node18&#45;&gt;Node7 -->
<g id="edge33" class="edge">
<title>Node18&#45;&gt;Node7</title>
<path fill="none" stroke="midnightblue" d="M298.37,-224.49C288.81,-211.11 273.69,-184.94 287,-168 305.46,-144.51 390.07,-131.76 438.22,-126.29"/>
<polygon fill="midnightblue" stroke="midnightblue" points="438.63,-129.77 448.19,-125.2 437.87,-122.81 438.63,-129.77"/>
</g>
<!-- Node18&#45;&gt;Node9 -->
<g id="edge34" class="edge">
<title>Node18&#45;&gt;Node9</title>
<path fill="none" stroke="midnightblue" d="M315.44,-224.32C325.15,-216.26 339.82,-204.08 351.5,-194.37"/>
<polygon fill="midnightblue" stroke="midnightblue" points="353.91,-196.92 359.37,-187.83 349.44,-191.53 353.91,-196.92"/>
</g>
<!-- Node18&#45;&gt;Node15 -->
<g id="edge30" class="edge">
<title>Node18&#45;&gt;Node15</title>
<path fill="none" stroke="midnightblue" d="M296.08,-224.41C283.64,-211.38 264.01,-186.2 277,-168 383.74,-18.47 499.61,-110.83 680,-76 682.22,-75.57 684.5,-75.1 686.8,-74.61"/>
<polygon fill="midnightblue" stroke="midnightblue" points="687.78,-77.98 696.76,-72.36 686.24,-71.15 687.78,-77.98"/>
</g>
<!-- Node19 -->
<g id="node19" class="node">
<title>Node19</title>
<g id="a_node19"><a xlink:title=" ">
<polygon fill="none" stroke="#bfbfbf" points="104,-168.5 104,-187.5 164,-187.5 164,-168.5 104,-168.5"/>
<text text-anchor="middle" x="134" y="-175.5" font-family="Helvetica,sans-Serif" font-size="10.00">iostream</text>
</a>
</g>
</g>
<!-- Node18&#45;&gt;Node19 -->
<g id="edge31" class="edge">
<title>Node18&#45;&gt;Node19</title>
<path fill="none" stroke="midnightblue" d="M277.9,-224.44C249.01,-215.32 203.08,-200.81 170.89,-190.65"/>
<polygon fill="midnightblue" stroke="midnightblue" points="171.56,-187.19 160.97,-187.52 169.45,-193.87 171.56,-187.19"/>
</g>
<!-- Node20&#45;&gt;Node4 -->
<g id="edge37" class="edge">
<title>Node20&#45;&gt;Node4</title>
<path fill="none" stroke="midnightblue" d="M848.33,-280.42C910.11,-263.73 1027.39,-223.6 985,-168 948.4,-119.98 910.27,-153.89 854,-132 835.85,-124.94 833.17,-119.03 815,-112 790.61,-102.56 721.89,-84.97 680.91,-74.8"/>
<polygon fill="midnightblue" stroke="midnightblue" points="681.68,-71.39 671.14,-72.39 680,-78.19 681.68,-71.39"/>
</g>
<!-- Node21 -->
<g id="node21" class="node">
<title>Node21</title>
<g id="a_node21"><a xlink:title=" ">
<polygon fill="none" stroke="#bfbfbf" points="780.5,-224.5 780.5,-243.5 845.5,-243.5 845.5,-224.5 780.5,-224.5"/>
<text text-anchor="middle" x="813" y="-231.5" font-family="Helvetica,sans-Serif" font-size="10.00">exception</text>
</a>
</g>
</g>
<!-- Node20&#45;&gt;Node21 -->
<g id="edge36" class="edge">
<title>Node20&#45;&gt;Node21</title>
<path fill="none" stroke="midnightblue" d="M813,-280.08C813,-273.01 813,-262.86 813,-253.99"/>
<polygon fill="midnightblue" stroke="midnightblue" points="816.5,-253.75 813,-243.75 809.5,-253.75 816.5,-253.75"/>
</g>
</g>
</svg>
