<?xml version="1.0" encoding="UTF-8" standalone="no"?>
<!DOCTYPE svg PUBLIC "-//W3C//DTD SVG 1.1//EN"
 "http://www.w3.org/Graphics/SVG/1.1/DTD/svg11.dtd">
<!-- Generated by graphviz version 2.43.0 (0)
 -->
<!-- Title: aprs_encoders.cpp Pages: 1 -->
<svg width="1585pt" height="397pt"
 viewBox="0.00 0.00 1585.19 397.00" xmlns="http://www.w3.org/2000/svg" xmlns:xlink="http://www.w3.org/1999/xlink">
<g id="graph0" class="graph" transform="scale(1 1) rotate(0) translate(4 393)">
<title>aprs_encoders.cpp</title>
<!-- Node1 -->
<g id="node1" class="node">
<title>Node1</title>
<g id="a_node1"><a xlink:title="Encoding functions for APRS packets.">
<polygon fill="#bfbfbf" stroke="black" points="1183.69,-369.5 1183.69,-388.5 1290.69,-388.5 1290.69,-369.5 1183.69,-369.5"/>
<text text-anchor="middle" x="1237.19" y="-376.5" font-family="Helvetica,sans-Serif" font-size="10.00">aprs_encoders.cpp</text>
</a>
</g>
</g>
<!-- Node2 -->
<g id="node2" class="node">
<title>Node2</title>
<g id="a_node2"><a xlink:title=" ">
<polygon fill="none" stroke="#bfbfbf" points="1112.69,-313.5 1112.69,-332.5 1159.69,-332.5 1159.69,-313.5 1112.69,-313.5"/>
<text text-anchor="middle" x="1136.19" y="-320.5" font-family="Helvetica,sans-Serif" font-size="10.00">cmath</text>
</a>
</g>
</g>
<!-- Node1&#45;&gt;Node2 -->
<g id="edge1" class="edge">
<title>Node1&#45;&gt;Node2</title>
<path fill="none" stroke="midnightblue" d="M1220.96,-369.32C1204.84,-360.7 1179.89,-347.36 1161.23,-337.39"/>
<polygon fill="midnightblue" stroke="midnightblue" points="1162.85,-334.28 1152.38,-332.65 1159.55,-340.46 1162.85,-334.28"/>
</g>
<!-- Node3 -->
<g id="node3" class="node">
<title>Node3</title>
<g id="a_node3"><a xlink:href="aprs_8hpp.html" target="_top" xlink:title=" ">
<polygon fill="none" stroke="black" points="1178.19,-313.5 1178.19,-332.5 1296.19,-332.5 1296.19,-313.5 1178.19,-313.5"/>
<text text-anchor="middle" x="1237.19" y="-320.5" font-family="Helvetica,sans-Serif" font-size="10.00">SignalEasel/aprs.hpp</text>
</a>
</g>
</g>
<!-- Node1&#45;&gt;Node3 -->
<g id="edge2" class="edge">
<title>Node1&#45;&gt;Node3</title>
<path fill="none" stroke="midnightblue" d="M1237.19,-369.08C1237.19,-362.01 1237.19,-351.86 1237.19,-342.99"/>
<polygon fill="midnightblue" stroke="midnightblue" points="1240.69,-342.75 1237.19,-332.75 1233.69,-342.75 1240.69,-342.75"/>
</g>
<!-- Node23 -->
<g id="node23" class="node">
<title>Node23</title>
<g id="a_node23"><a xlink:href="exception_8hpp.html" target="_top" xlink:title="SignalEasel exceptions.">
<polygon fill="none" stroke="black" points="1389.69,-56.5 1389.69,-75.5 1534.69,-75.5 1534.69,-56.5 1389.69,-56.5"/>
<text text-anchor="middle" x="1462.19" y="-63.5" font-family="Helvetica,sans-Serif" font-size="10.00">SignalEasel/exception.hpp</text>
</a>
</g>
</g>
<!-- Node1&#45;&gt;Node23 -->
<g id="edge54" class="edge">
<title>Node1&#45;&gt;Node23</title>
<path fill="none" stroke="midnightblue" d="M1287.4,-369.5C1373.28,-353.52 1539.19,-315.76 1539.19,-262.5 1539.19,-262.5 1539.19,-262.5 1539.19,-193.5 1539.19,-147.96 1502.33,-104.88 1479.62,-82.66"/>
<polygon fill="midnightblue" stroke="midnightblue" points="1481.93,-80.03 1472.26,-75.7 1477.12,-85.11 1481.93,-80.03"/>
</g>
<!-- Node4 -->
<g id="node4" class="node">
<title>Node4</title>
<g id="a_node4"><a xlink:title=" ">
<polygon fill="none" stroke="#bfbfbf" points="737.19,-0.5 737.19,-19.5 787.19,-19.5 787.19,-0.5 737.19,-0.5"/>
<text text-anchor="middle" x="762.19" y="-7.5" font-family="Helvetica,sans-Serif" font-size="10.00">cstdint</text>
</a>
</g>
</g>
<!-- Node3&#45;&gt;Node4 -->
<g id="edge3" class="edge">
<title>Node3&#45;&gt;Node4</title>
<path fill="none" stroke="midnightblue" d="M1177.89,-313.87C1174.95,-313.55 1172.04,-313.26 1169.19,-313 860.3,-284.63 780.46,-311.45 472.19,-277 260.63,-253.36 0.19,-408.38 0.19,-195.5 0.19,-195.5 0.19,-195.5 0.19,-126.5 0.19,-93.54 -2.88,-76.16 23.19,-56 79.25,-12.66 587.02,-10.6 726.74,-10.86"/>
<polygon fill="midnightblue" stroke="midnightblue" points="726.89,-14.36 736.9,-10.88 726.91,-7.36 726.89,-14.36"/>
</g>
<!-- Node5 -->
<g id="node5" class="node">
<title>Node5</title>
<g id="a_node5"><a xlink:title=" ">
<polygon fill="none" stroke="#bfbfbf" points="1100.19,-0.5 1100.19,-19.5 1144.19,-19.5 1144.19,-0.5 1100.19,-0.5"/>
<text text-anchor="middle" x="1122.19" y="-7.5" font-family="Helvetica,sans-Serif" font-size="10.00">string</text>
</a>
</g>
</g>
<!-- Node3&#45;&gt;Node5 -->
<g id="edge4" class="edge">
<title>Node3&#45;&gt;Node5</title>
<path fill="none" stroke="midnightblue" d="M1291.07,-313.44C1386.94,-296.67 1577.19,-255.8 1577.19,-195.5 1577.19,-195.5 1577.19,-195.5 1577.19,-126.5 1577.19,-91.9 1572.36,-76.09 1544.19,-56 1481.79,-11.49 1242.05,-9.6 1154.47,-10.46"/>
<polygon fill="midnightblue" stroke="midnightblue" points="1154.28,-6.96 1144.33,-10.58 1154.37,-13.96 1154.28,-6.96"/>
</g>
<!-- Node6 -->
<g id="node6" class="node">
<title>Node6</title>
<g id="a_node6"><a xlink:title=" ">
<polygon fill="none" stroke="#bfbfbf" points="1389.19,-185 1389.19,-204 1511.19,-204 1511.19,-185 1389.19,-185"/>
<text text-anchor="middle" x="1450.19" y="-192" font-family="Helvetica,sans-Serif" font-size="10.00">BoosterSeat/time.hpp</text>
</a>
</g>
</g>
<!-- Node3&#45;&gt;Node6 -->
<g id="edge5" class="edge">
<title>Node3&#45;&gt;Node6</title>
<path fill="none" stroke="midnightblue" d="M1296.5,-319.14C1333.1,-314.58 1379.03,-303.48 1411.19,-277 1430.74,-260.91 1441.14,-232.71 1446.16,-214.07"/>
<polygon fill="midnightblue" stroke="midnightblue" points="1449.62,-214.67 1448.57,-204.12 1442.81,-213.02 1449.62,-214.67"/>
</g>
<!-- Node7 -->
<g id="node7" class="node">
<title>Node7</title>
<g id="a_node7"><a xlink:href="afsk_8hpp.html" target="_top" xlink:title="AFSK related modulation/demodulation.">
<polygon fill="none" stroke="black" points="481.19,-252 481.19,-271 599.19,-271 599.19,-252 481.19,-252"/>
<text text-anchor="middle" x="540.19" y="-259" font-family="Helvetica,sans-Serif" font-size="10.00">SignalEasel/afsk.hpp</text>
</a>
</g>
</g>
<!-- Node3&#45;&gt;Node7 -->
<g id="edge6" class="edge">
<title>Node3&#45;&gt;Node7</title>
<path fill="none" stroke="midnightblue" d="M1177.88,-313.97C1174.94,-313.63 1172.03,-313.3 1169.19,-313 966.16,-291.43 725.37,-274.5 609.41,-266.89"/>
<polygon fill="midnightblue" stroke="midnightblue" points="609.46,-263.38 599.26,-266.22 609.01,-270.37 609.46,-263.38"/>
</g>
<!-- Node20 -->
<g id="node20" class="node">
<title>Node20</title>
<g id="a_node20"><a xlink:href="packets_8hpp.html" target="_top" xlink:title=" ">
<polygon fill="none" stroke="black" points="1244.19,-252 1244.19,-271 1402.19,-271 1402.19,-252 1244.19,-252"/>
<text text-anchor="middle" x="1323.19" y="-259" font-family="Helvetica,sans-Serif" font-size="10.00">SignalEasel/aprs/packets.hpp</text>
</a>
</g>
</g>
<!-- Node3&#45;&gt;Node20 -->
<g id="edge31" class="edge">
<title>Node3&#45;&gt;Node20</title>
<path fill="none" stroke="midnightblue" d="M1249.51,-313.48C1263.31,-303.93 1285.89,-288.31 1302.42,-276.87"/>
<polygon fill="midnightblue" stroke="midnightblue" points="1304.66,-279.58 1310.89,-271.01 1300.68,-273.82 1304.66,-279.58"/>
</g>
<!-- Node25 -->
<g id="node25" class="node">
<title>Node25</title>
<g id="a_node25"><a xlink:href="telemetry__transcoder_8hpp.html" target="_top" xlink:title=" ">
<polygon fill="none" stroke="black" points="1078.19,-246.5 1078.19,-276.5 1226.19,-276.5 1226.19,-246.5 1078.19,-246.5"/>
<text text-anchor="start" x="1086.19" y="-264.5" font-family="Helvetica,sans-Serif" font-size="10.00">SignalEasel/aprs/telemetry</text>
<text text-anchor="middle" x="1152.19" y="-253.5" font-family="Helvetica,sans-Serif" font-size="10.00">_transcoder.hpp</text>
</a>
</g>
</g>
<!-- Node3&#45;&gt;Node25 -->
<g id="edge44" class="edge">
<title>Node3&#45;&gt;Node25</title>
<path fill="none" stroke="midnightblue" d="M1225.01,-313.48C1213.5,-305.42 1195.8,-293.02 1180.73,-282.47"/>
<polygon fill="midnightblue" stroke="midnightblue" points="1182.42,-279.39 1172.22,-276.52 1178.41,-285.12 1182.42,-279.39"/>
</g>
<!-- Node26 -->
<g id="node26" class="node">
<title>Node26</title>
<g id="a_node26"><a xlink:href="ax25_8hpp.html" target="_top" xlink:title="AX.25 tools.">
<polygon fill="none" stroke="black" points="866.69,-252 866.69,-271 987.69,-271 987.69,-252 866.69,-252"/>
<text text-anchor="middle" x="927.19" y="-259" font-family="Helvetica,sans-Serif" font-size="10.00">SignalEasel/ax25.hpp</text>
</a>
</g>
</g>
<!-- Node3&#45;&gt;Node26 -->
<g id="edge47" class="edge">
<title>Node3&#45;&gt;Node26</title>
<path fill="none" stroke="midnightblue" d="M1192.78,-313.48C1137.07,-302.78 1041.59,-284.46 981.57,-272.94"/>
<polygon fill="midnightblue" stroke="midnightblue" points="982.01,-269.46 971.53,-271.01 980.69,-276.33 982.01,-269.46"/>
</g>
<!-- Node8 -->
<g id="node8" class="node">
<title>Node8</title>
<g id="a_node8"><a xlink:title=" ">
<polygon fill="none" stroke="#bfbfbf" points="686.69,-118 686.69,-137 733.69,-137 733.69,-118 686.69,-118"/>
<text text-anchor="middle" x="710.19" y="-125" font-family="Helvetica,sans-Serif" font-size="10.00">vector</text>
</a>
</g>
</g>
<!-- Node7&#45;&gt;Node8 -->
<g id="edge7" class="edge">
<title>Node7&#45;&gt;Node8</title>
<path fill="none" stroke="midnightblue" d="M558.24,-251.9C576.65,-242.74 605.64,-227.2 628.19,-210 654.39,-190.02 680.7,-162.16 696.21,-144.73"/>
<polygon fill="midnightblue" stroke="midnightblue" points="698.95,-146.92 702.91,-137.1 693.69,-142.31 698.95,-146.92"/>
</g>
<!-- Node9 -->
<g id="node9" class="node">
<title>Node9</title>
<g id="a_node9"><a xlink:href="constants_8hpp.html" target="_top" xlink:title="Common constants used throughout the library.">
<polygon fill="none" stroke="black" points="272.19,-56.5 272.19,-75.5 416.19,-75.5 416.19,-56.5 272.19,-56.5"/>
<text text-anchor="middle" x="344.19" y="-63.5" font-family="Helvetica,sans-Serif" font-size="10.00">SignalEasel/constants.hpp</text>
</a>
</g>
</g>
<!-- Node7&#45;&gt;Node9 -->
<g id="edge8" class="edge">
<title>Node7&#45;&gt;Node9</title>
<path fill="none" stroke="midnightblue" d="M480.94,-257.07C414.26,-251.83 312.09,-239.16 288.19,-210 256.2,-170.96 302.15,-111.46 328.26,-83.11"/>
<polygon fill="midnightblue" stroke="midnightblue" points="330.97,-85.34 335.32,-75.67 325.89,-80.52 330.97,-85.34"/>
</g>
<!-- Node10 -->
<g id="node10" class="node">
<title>Node10</title>
<g id="a_node10"><a xlink:href="bit__stream_8hpp.html" target="_top" xlink:title="The bit stream class.">
<polygon fill="none" stroke="black" points="674.69,-185 674.69,-204 823.69,-204 823.69,-185 674.69,-185"/>
<text text-anchor="middle" x="749.19" y="-192" font-family="Helvetica,sans-Serif" font-size="10.00">SignalEasel/bit_stream.hpp</text>
</a>
</g>
</g>
<!-- Node7&#45;&gt;Node10 -->
<g id="edge10" class="edge">
<title>Node7&#45;&gt;Node10</title>
<path fill="none" stroke="midnightblue" d="M567.95,-251.87C604.98,-240.35 670.67,-219.92 711.97,-207.08"/>
<polygon fill="midnightblue" stroke="midnightblue" points="713.15,-210.38 721.66,-204.06 711.07,-203.69 713.15,-210.38"/>
</g>
<!-- Node11 -->
<g id="node11" class="node">
<title>Node11</title>
<g id="a_node11"><a xlink:href="demodulator_8hpp.html" target="_top" xlink:title="Base class for demodulators.">
<polygon fill="none" stroke="black" points="461.19,-185 461.19,-204 619.19,-204 619.19,-185 461.19,-185"/>
<text text-anchor="middle" x="540.19" y="-192" font-family="Helvetica,sans-Serif" font-size="10.00">SignalEasel/demodulator.hpp</text>
</a>
</g>
</g>
<!-- Node7&#45;&gt;Node11 -->
<g id="edge13" class="edge">
<title>Node7&#45;&gt;Node11</title>
<path fill="none" stroke="midnightblue" d="M540.19,-251.73C540.19,-242.18 540.19,-226.62 540.19,-214.28"/>
<polygon fill="midnightblue" stroke="midnightblue" points="543.69,-214.13 540.19,-204.13 536.69,-214.13 543.69,-214.13"/>
</g>
<!-- Node13 -->
<g id="node13" class="node">
<title>Node13</title>
<g id="a_node13"><a xlink:href="modulator_8hpp.html" target="_top" xlink:title="Modulator base class.">
<polygon fill="none" stroke="black" points="297.19,-185 297.19,-204 443.19,-204 443.19,-185 297.19,-185"/>
<text text-anchor="middle" x="370.19" y="-192" font-family="Helvetica,sans-Serif" font-size="10.00">SignalEasel/modulator.hpp</text>
</a>
</g>
</g>
<!-- Node7&#45;&gt;Node13 -->
<g id="edge18" class="edge">
<title>Node7&#45;&gt;Node13</title>
<path fill="none" stroke="midnightblue" d="M517.62,-251.87C487.94,-240.52 435.64,-220.52 401.97,-207.65"/>
<polygon fill="midnightblue" stroke="midnightblue" points="403.18,-204.37 392.59,-204.06 400.68,-210.9 403.18,-204.37"/>
</g>
<!-- Node14 -->
<g id="node14" class="node">
<title>Node14</title>
<g id="a_node14"><a xlink:href="receiver_8hpp.html" target="_top" xlink:title="Base class for receivers. Demodulators that use pulse audio.">
<polygon fill="none" stroke="black" points="105.19,-185 105.19,-204 241.19,-204 241.19,-185 105.19,-185"/>
<text text-anchor="middle" x="173.19" y="-192" font-family="Helvetica,sans-Serif" font-size="10.00">SignalEasel/receiver.hpp</text>
</a>
</g>
</g>
<!-- Node7&#45;&gt;Node14 -->
<g id="edge22" class="edge">
<title>Node7&#45;&gt;Node14</title>
<path fill="none" stroke="midnightblue" d="M491.84,-251.94C424.77,-240.06 303.66,-218.61 231.62,-205.85"/>
<polygon fill="midnightblue" stroke="midnightblue" points="231.82,-202.33 221.36,-204.03 230.6,-209.22 231.82,-202.33"/>
</g>
<!-- Node9&#45;&gt;Node4 -->
<g id="edge9" class="edge">
<title>Node9&#45;&gt;Node4</title>
<path fill="none" stroke="midnightblue" d="M410.43,-56.44C500.2,-44.85 657.3,-24.55 727.07,-15.54"/>
<polygon fill="midnightblue" stroke="midnightblue" points="727.64,-18.99 737.11,-14.24 726.74,-12.05 727.64,-18.99"/>
</g>
<!-- Node10&#45;&gt;Node4 -->
<g id="edge11" class="edge">
<title>Node10&#45;&gt;Node4</title>
<path fill="none" stroke="midnightblue" d="M749.82,-184.7C751.81,-156.69 758.05,-69.21 760.83,-30.16"/>
<polygon fill="midnightblue" stroke="midnightblue" points="764.35,-29.94 761.57,-19.71 757.37,-29.44 764.35,-29.94"/>
</g>
<!-- Node10&#45;&gt;Node8 -->
<g id="edge12" class="edge">
<title>Node10&#45;&gt;Node8</title>
<path fill="none" stroke="midnightblue" d="M743.93,-184.73C737.97,-174.79 728.09,-158.34 720.57,-145.79"/>
<polygon fill="midnightblue" stroke="midnightblue" points="723.51,-143.9 715.37,-137.13 717.51,-147.5 723.51,-143.9"/>
</g>
<!-- Node11&#45;&gt;Node5 -->
<g id="edge14" class="edge">
<title>Node11&#45;&gt;Node5</title>
<path fill="none" stroke="midnightblue" d="M553.75,-184.72C583.05,-165.88 651.69,-122.4 677.19,-112 753.76,-80.77 1001.38,-33.31 1090.15,-16.86"/>
<polygon fill="midnightblue" stroke="midnightblue" points="1090.97,-20.27 1100.17,-15.01 1089.7,-13.38 1090.97,-20.27"/>
</g>
<!-- Node11&#45;&gt;Node8 -->
<g id="edge15" class="edge">
<title>Node11&#45;&gt;Node8</title>
<path fill="none" stroke="midnightblue" d="M562.77,-184.87C592.44,-173.52 644.74,-153.52 678.41,-140.65"/>
<polygon fill="midnightblue" stroke="midnightblue" points="679.7,-143.9 687.79,-137.06 677.2,-137.37 679.7,-143.9"/>
</g>
<!-- Node12 -->
<g id="node12" class="node">
<title>Node12</title>
<g id="a_node12"><a xlink:href="settings_8hpp.html" target="_top" xlink:title="Settings structures for SignalEasel.">
<polygon fill="none" stroke="black" points="472.19,-118 472.19,-137 608.19,-137 608.19,-118 472.19,-118"/>
<text text-anchor="middle" x="540.19" y="-125" font-family="Helvetica,sans-Serif" font-size="10.00">SignalEasel/settings.hpp</text>
</a>
</g>
</g>
<!-- Node11&#45;&gt;Node12 -->
<g id="edge16" class="edge">
<title>Node11&#45;&gt;Node12</title>
<path fill="none" stroke="midnightblue" d="M540.19,-184.73C540.19,-175.18 540.19,-159.62 540.19,-147.28"/>
<polygon fill="midnightblue" stroke="midnightblue" points="543.69,-147.13 540.19,-137.13 536.69,-147.13 543.69,-147.13"/>
</g>
<!-- Node12&#45;&gt;Node5 -->
<g id="edge17" class="edge">
<title>Node12&#45;&gt;Node5</title>
<path fill="none" stroke="midnightblue" d="M570.66,-117.94C622.43,-103.62 731.02,-74.56 824.19,-56 920.17,-36.88 1034.97,-21.68 1089.86,-14.88"/>
<polygon fill="midnightblue" stroke="midnightblue" points="1090.51,-18.32 1100.01,-13.63 1089.66,-11.37 1090.51,-18.32"/>
</g>
<!-- Node13&#45;&gt;Node4 -->
<g id="edge19" class="edge">
<title>Node13&#45;&gt;Node4</title>
<path fill="none" stroke="midnightblue" d="M378.03,-184.62C393.02,-168.13 427.48,-132.58 463.19,-112 551.46,-61.15 669.23,-30.88 727.09,-18.13"/>
<polygon fill="midnightblue" stroke="midnightblue" points="728.14,-21.48 737.18,-15.95 726.66,-14.64 728.14,-21.48"/>
</g>
<!-- Node13&#45;&gt;Node8 -->
<g id="edge20" class="edge">
<title>Node13&#45;&gt;Node8</title>
<path fill="none" stroke="midnightblue" d="M414.99,-184.94C484.03,-171.74 614.88,-146.72 676.5,-134.94"/>
<polygon fill="midnightblue" stroke="midnightblue" points="677.31,-138.35 686.47,-133.03 675.99,-131.47 677.31,-138.35"/>
</g>
<!-- Node13&#45;&gt;Node12 -->
<g id="edge21" class="edge">
<title>Node13&#45;&gt;Node12</title>
<path fill="none" stroke="midnightblue" d="M392.77,-184.87C422.44,-173.52 474.74,-153.52 508.41,-140.65"/>
<polygon fill="midnightblue" stroke="midnightblue" points="509.7,-143.9 517.79,-137.06 507.2,-137.37 509.7,-143.9"/>
</g>
<!-- Node14&#45;&gt;Node12 -->
<g id="edge30" class="edge">
<title>Node14&#45;&gt;Node12</title>
<path fill="none" stroke="midnightblue" d="M221.55,-184.94C288.61,-173.06 409.72,-151.61 481.76,-138.85"/>
<polygon fill="midnightblue" stroke="midnightblue" points="482.78,-142.22 492.02,-137.03 481.56,-135.33 482.78,-142.22"/>
</g>
<!-- Node15 -->
<g id="node15" class="node">
<title>Node15</title>
<g id="a_node15"><a xlink:title=" ">
<polygon fill="none" stroke="#bfbfbf" points="28.19,-118 28.19,-137 86.19,-137 86.19,-118 28.19,-118"/>
<text text-anchor="middle" x="57.19" y="-125" font-family="Helvetica,sans-Serif" font-size="10.00">memory</text>
</a>
</g>
</g>
<!-- Node14&#45;&gt;Node15 -->
<g id="edge23" class="edge">
<title>Node14&#45;&gt;Node15</title>
<path fill="none" stroke="midnightblue" d="M157.55,-184.73C137.98,-173.77 104.27,-154.88 81.37,-142.05"/>
<polygon fill="midnightblue" stroke="midnightblue" points="83.02,-138.96 72.59,-137.13 79.6,-145.07 83.02,-138.96"/>
</g>
<!-- Node16 -->
<g id="node16" class="node">
<title>Node16</title>
<g id="a_node16"><a xlink:href="pulse__audio_8hpp.html" target="_top" xlink:title="Reads audio from pulse audio.">
<polygon fill="none" stroke="black" points="104.69,-118 104.69,-137 259.69,-137 259.69,-118 104.69,-118"/>
<text text-anchor="middle" x="182.19" y="-125" font-family="Helvetica,sans-Serif" font-size="10.00">SignalEasel/pulse_audio.hpp</text>
</a>
</g>
</g>
<!-- Node14&#45;&gt;Node16 -->
<g id="edge24" class="edge">
<title>Node14&#45;&gt;Node16</title>
<path fill="none" stroke="midnightblue" d="M174.41,-184.73C175.73,-175.18 177.88,-159.62 179.59,-147.28"/>
<polygon fill="midnightblue" stroke="midnightblue" points="183.09,-147.51 181,-137.13 176.16,-146.55 183.09,-147.51"/>
</g>
<!-- Node16&#45;&gt;Node5 -->
<g id="edge26" class="edge">
<title>Node16&#45;&gt;Node5</title>
<path fill="none" stroke="midnightblue" d="M188.82,-117.75C201.34,-102.02 230.18,-69.35 263.19,-56 302.19,-40.23 938.11,-17.36 1089.86,-12.1"/>
<polygon fill="midnightblue" stroke="midnightblue" points="1090.06,-15.6 1099.94,-11.76 1089.82,-8.6 1090.06,-15.6"/>
</g>
<!-- Node16&#45;&gt;Node9 -->
<g id="edge27" class="edge">
<title>Node16&#45;&gt;Node9</title>
<path fill="none" stroke="midnightblue" d="M205.4,-117.98C233.19,-107.77 279.92,-90.61 311.39,-79.05"/>
<polygon fill="midnightblue" stroke="midnightblue" points="312.84,-82.24 321.02,-75.51 310.43,-75.67 312.84,-82.24"/>
</g>
<!-- Node17 -->
<g id="node17" class="node">
<title>Node17</title>
<g id="a_node17"><a xlink:title=" ">
<polygon fill="none" stroke="#bfbfbf" points="917.19,-56.5 917.19,-75.5 959.19,-75.5 959.19,-56.5 917.19,-56.5"/>
<text text-anchor="middle" x="938.19" y="-63.5" font-family="Helvetica,sans-Serif" font-size="10.00">array</text>
</a>
</g>
</g>
<!-- Node16&#45;&gt;Node17 -->
<g id="edge25" class="edge">
<title>Node16&#45;&gt;Node17</title>
<path fill="none" stroke="midnightblue" d="M259.9,-120.38C423.26,-107.53 796.34,-78.16 906.81,-69.47"/>
<polygon fill="midnightblue" stroke="midnightblue" points="907.26,-72.95 916.96,-68.67 906.72,-65.97 907.26,-72.95"/>
</g>
<!-- Node18 -->
<g id="node18" class="node">
<title>Node18</title>
<g id="a_node18"><a xlink:title=" ">
<polygon fill="none" stroke="#bfbfbf" points="138.69,-56.5 138.69,-75.5 215.69,-75.5 215.69,-56.5 138.69,-56.5"/>
<text text-anchor="middle" x="177.19" y="-63.5" font-family="Helvetica,sans-Serif" font-size="10.00">pulse/error.h</text>
</a>
</g>
</g>
<!-- Node16&#45;&gt;Node18 -->
<g id="edge28" class="edge">
<title>Node16&#45;&gt;Node18</title>
<path fill="none" stroke="midnightblue" d="M181.48,-117.98C180.77,-109.58 179.67,-96.48 178.76,-85.66"/>
<polygon fill="midnightblue" stroke="midnightblue" points="182.23,-85.18 177.91,-75.51 175.26,-85.77 182.23,-85.18"/>
</g>
<!-- Node19 -->
<g id="node19" class="node">
<title>Node19</title>
<g id="a_node19"><a xlink:title=" ">
<polygon fill="none" stroke="#bfbfbf" points="32.19,-56.5 32.19,-75.5 120.19,-75.5 120.19,-56.5 32.19,-56.5"/>
<text text-anchor="middle" x="76.19" y="-63.5" font-family="Helvetica,sans-Serif" font-size="10.00">pulse/simple.h</text>
</a>
</g>
</g>
<!-- Node16&#45;&gt;Node19 -->
<g id="edge29" class="edge">
<title>Node16&#45;&gt;Node19</title>
<path fill="none" stroke="midnightblue" d="M167,-117.98C149.53,-108.17 120.61,-91.93 100.11,-80.42"/>
<polygon fill="midnightblue" stroke="midnightblue" points="101.78,-77.35 91.35,-75.51 98.36,-83.46 101.78,-77.35"/>
</g>
<!-- Node20&#45;&gt;Node4 -->
<g id="edge32" class="edge">
<title>Node20&#45;&gt;Node4</title>
<path fill="none" stroke="midnightblue" d="M1323.94,-251.94C1324.87,-235.34 1324.36,-198.69 1304.19,-179 1248,-124.13 1205.02,-169.78 1131.19,-143 1103.72,-133.03 1098.98,-125.77 1073.19,-112 1026.54,-87.09 1017.83,-74.26 968.19,-56 910.07,-34.62 838.81,-21.85 797.16,-15.64"/>
<polygon fill="midnightblue" stroke="midnightblue" points="797.63,-12.17 787.23,-14.2 796.63,-19.1 797.63,-12.17"/>
</g>
<!-- Node20&#45;&gt;Node5 -->
<g id="edge33" class="edge">
<title>Node20&#45;&gt;Node5</title>
<path fill="none" stroke="midnightblue" d="M1327.15,-251.81C1333.45,-236.78 1344.37,-205.02 1337.19,-179 1327.97,-145.57 1321.9,-136.34 1297.19,-112 1254.76,-70.19 1191.61,-39.4 1153.91,-23.42"/>
<polygon fill="midnightblue" stroke="midnightblue" points="1155.02,-20.09 1144.44,-19.49 1152.34,-26.55 1155.02,-20.09"/>
</g>
<!-- Node20&#45;&gt;Node6 -->
<g id="edge35" class="edge">
<title>Node20&#45;&gt;Node6</title>
<path fill="none" stroke="midnightblue" d="M1340.06,-251.87C1361.6,-240.84 1399.09,-221.66 1424.27,-208.77"/>
<polygon fill="midnightblue" stroke="midnightblue" points="1425.95,-211.84 1433.26,-204.17 1422.76,-205.61 1425.95,-211.84"/>
</g>
<!-- Node20&#45;&gt;Node8 -->
<g id="edge34" class="edge">
<title>Node20&#45;&gt;Node8</title>
<path fill="none" stroke="midnightblue" d="M1274.04,-251.93C1235.79,-244.13 1182.02,-230.64 1138.19,-210 1116.55,-199.81 1116.48,-187.7 1094.19,-179 972.01,-131.29 813.08,-126.97 744.34,-127.61"/>
<polygon fill="midnightblue" stroke="midnightblue" points="744.05,-124.12 734.1,-127.75 744.15,-131.12 744.05,-124.12"/>
</g>
<!-- Node21 -->
<g id="node21" class="node">
<title>Node21</title>
<g id="a_node21"><a xlink:href="telemetry__data_8hpp.html" target="_top" xlink:title=" ">
<polygon fill="none" stroke="black" points="1147.19,-179.5 1147.19,-209.5 1295.19,-209.5 1295.19,-179.5 1147.19,-179.5"/>
<text text-anchor="start" x="1155.19" y="-197.5" font-family="Helvetica,sans-Serif" font-size="10.00">SignalEasel/aprs/telemetry</text>
<text text-anchor="middle" x="1221.19" y="-186.5" font-family="Helvetica,sans-Serif" font-size="10.00">_data.hpp</text>
</a>
</g>
</g>
<!-- Node20&#45;&gt;Node21 -->
<g id="edge36" class="edge">
<title>Node20&#45;&gt;Node21</title>
<path fill="none" stroke="midnightblue" d="M1309.44,-251.73C1294.72,-242.36 1270.92,-227.19 1251.74,-214.97"/>
<polygon fill="midnightblue" stroke="midnightblue" points="1253.62,-212.01 1243.3,-209.59 1249.85,-217.91 1253.62,-212.01"/>
</g>
<!-- Node21&#45;&gt;Node17 -->
<g id="edge37" class="edge">
<title>Node21&#45;&gt;Node17</title>
<path fill="none" stroke="midnightblue" d="M1182.74,-179.43C1156.91,-169.74 1122.22,-156.26 1092.19,-143 1046.17,-122.68 993.91,-96.13 963.63,-80.39"/>
<polygon fill="midnightblue" stroke="midnightblue" points="965.09,-77.2 954.61,-75.68 961.85,-83.41 965.09,-77.2"/>
</g>
<!-- Node22 -->
<g id="node22" class="node">
<title>Node22</title>
<g id="a_node22"><a xlink:href="telemetry__parameter_8hpp.html" target="_top" xlink:title=" ">
<polygon fill="none" stroke="black" points="1140.19,-112.5 1140.19,-142.5 1288.19,-142.5 1288.19,-112.5 1140.19,-112.5"/>
<text text-anchor="start" x="1148.19" y="-130.5" font-family="Helvetica,sans-Serif" font-size="10.00">SignalEasel/aprs/telemetry</text>
<text text-anchor="middle" x="1214.19" y="-119.5" font-family="Helvetica,sans-Serif" font-size="10.00">_parameter.hpp</text>
</a>
</g>
</g>
<!-- Node21&#45;&gt;Node22 -->
<g id="edge38" class="edge">
<title>Node21&#45;&gt;Node22</title>
<path fill="none" stroke="midnightblue" d="M1219.67,-179.4C1218.83,-171.56 1217.76,-161.6 1216.78,-152.57"/>
<polygon fill="midnightblue" stroke="midnightblue" points="1220.26,-152.14 1215.71,-142.58 1213.3,-152.89 1220.26,-152.14"/>
</g>
<!-- Node22&#45;&gt;Node4 -->
<g id="edge39" class="edge">
<title>Node22&#45;&gt;Node4</title>
<path fill="none" stroke="midnightblue" d="M1182.89,-112.48C1146.42,-96.65 1084.02,-71.15 1028.19,-56 947.17,-34.02 849.2,-20.76 797.73,-14.78"/>
<polygon fill="midnightblue" stroke="midnightblue" points="797.81,-11.27 787.48,-13.62 797.02,-18.22 797.81,-11.27"/>
</g>
<!-- Node22&#45;&gt;Node5 -->
<g id="edge40" class="edge">
<title>Node22&#45;&gt;Node5</title>
<path fill="none" stroke="midnightblue" d="M1202.91,-112.34C1185.88,-90.96 1153.68,-50.53 1135.52,-27.73"/>
<polygon fill="midnightblue" stroke="midnightblue" points="1138.07,-25.31 1129.1,-19.67 1132.59,-29.67 1138.07,-25.31"/>
</g>
<!-- Node22&#45;&gt;Node23 -->
<g id="edge41" class="edge">
<title>Node22&#45;&gt;Node23</title>
<path fill="none" stroke="midnightblue" d="M1272.65,-112.47C1316.74,-101.9 1376.35,-87.59 1416.87,-77.87"/>
<polygon fill="midnightblue" stroke="midnightblue" points="1417.83,-81.24 1426.74,-75.51 1416.2,-74.44 1417.83,-81.24"/>
</g>
<!-- Node23&#45;&gt;Node5 -->
<g id="edge43" class="edge">
<title>Node23&#45;&gt;Node5</title>
<path fill="none" stroke="midnightblue" d="M1408.32,-56.44C1336.93,-45.1 1213.2,-25.45 1154.66,-16.16"/>
<polygon fill="midnightblue" stroke="midnightblue" points="1154.95,-12.66 1144.52,-14.55 1153.85,-19.57 1154.95,-12.66"/>
</g>
<!-- Node24 -->
<g id="node24" class="node">
<title>Node24</title>
<g id="a_node24"><a xlink:title=" ">
<polygon fill="none" stroke="#bfbfbf" points="1429.69,-0.5 1429.69,-19.5 1494.69,-19.5 1494.69,-0.5 1429.69,-0.5"/>
<text text-anchor="middle" x="1462.19" y="-7.5" font-family="Helvetica,sans-Serif" font-size="10.00">exception</text>
</a>
</g>
</g>
<!-- Node23&#45;&gt;Node24 -->
<g id="edge42" class="edge">
<title>Node23&#45;&gt;Node24</title>
<path fill="none" stroke="midnightblue" d="M1462.19,-56.08C1462.19,-49.01 1462.19,-38.86 1462.19,-29.99"/>
<polygon fill="midnightblue" stroke="midnightblue" points="1465.69,-29.75 1462.19,-19.75 1458.69,-29.75 1465.69,-29.75"/>
</g>
<!-- Node25&#45;&gt;Node8 -->
<g id="edge45" class="edge">
<title>Node25&#45;&gt;Node8</title>
<path fill="none" stroke="midnightblue" d="M1138.67,-246.4C1118.14,-225.32 1079.65,-187.2 1062.19,-179 1006.02,-152.61 820.98,-136.53 744.13,-130.83"/>
<polygon fill="midnightblue" stroke="midnightblue" points="744.25,-127.33 734.02,-130.1 743.74,-134.32 744.25,-127.33"/>
</g>
<!-- Node25&#45;&gt;Node21 -->
<g id="edge46" class="edge">
<title>Node25&#45;&gt;Node21</title>
<path fill="none" stroke="midnightblue" d="M1167.16,-246.4C1176.39,-237.71 1188.39,-226.4 1198.73,-216.66"/>
<polygon fill="midnightblue" stroke="midnightblue" points="1201.37,-218.98 1206.25,-209.58 1196.57,-213.89 1201.37,-218.98"/>
</g>
<!-- Node26&#45;&gt;Node4 -->
<g id="edge48" class="edge">
<title>Node26&#45;&gt;Node4</title>
<path fill="none" stroke="midnightblue" d="M921.51,-251.91C897.71,-215.92 805.75,-76.87 773.47,-28.05"/>
<polygon fill="midnightblue" stroke="midnightblue" points="776.28,-25.96 767.85,-19.55 770.44,-29.82 776.28,-25.96"/>
</g>
<!-- Node26&#45;&gt;Node5 -->
<g id="edge51" class="edge">
<title>Node26&#45;&gt;Node5</title>
<path fill="none" stroke="midnightblue" d="M932.97,-251.78C943.03,-236.69 964.57,-204.86 984.19,-179 1027.59,-121.8 1082.69,-56.85 1108.14,-27.24"/>
<polygon fill="midnightblue" stroke="midnightblue" points="1110.89,-29.41 1114.77,-19.55 1105.59,-24.84 1110.89,-29.41"/>
</g>
<!-- Node26&#45;&gt;Node8 -->
<g id="edge52" class="edge">
<title>Node26&#45;&gt;Node8</title>
<path fill="none" stroke="midnightblue" d="M919.01,-251.86C903.41,-235.76 867.75,-200.84 832.19,-179 803.91,-161.63 768.6,-147.76 743.25,-138.98"/>
<polygon fill="midnightblue" stroke="midnightblue" points="744.32,-135.64 733.72,-135.76 742.08,-142.28 744.32,-135.64"/>
</g>
<!-- Node26&#45;&gt;Node10 -->
<g id="edge53" class="edge">
<title>Node26&#45;&gt;Node10</title>
<path fill="none" stroke="midnightblue" d="M903.56,-251.87C872.48,-240.52 817.72,-220.52 782.47,-207.65"/>
<polygon fill="midnightblue" stroke="midnightblue" points="783.24,-204.21 772.64,-204.06 780.84,-210.78 783.24,-204.21"/>
</g>
<!-- Node26&#45;&gt;Node17 -->
<g id="edge49" class="edge">
<title>Node26&#45;&gt;Node17</title>
<path fill="none" stroke="midnightblue" d="M927.68,-251.94C929.34,-222.79 934.78,-126.97 937.12,-85.93"/>
<polygon fill="midnightblue" stroke="midnightblue" points="940.61,-86.09 937.69,-75.91 933.62,-85.69 940.61,-86.09"/>
</g>
<!-- Node27 -->
<g id="node27" class="node">
<title>Node27</title>
<g id="a_node27"><a xlink:title=" ">
<polygon fill="none" stroke="#bfbfbf" points="993.19,-185 993.19,-204 1053.19,-204 1053.19,-185 993.19,-185"/>
<text text-anchor="middle" x="1023.19" y="-192" font-family="Helvetica,sans-Serif" font-size="10.00">iostream</text>
</a>
</g>
</g>
<!-- Node26&#45;&gt;Node27 -->
<g id="edge50" class="edge">
<title>Node26&#45;&gt;Node27</title>
<path fill="none" stroke="midnightblue" d="M940.14,-251.73C956.04,-240.96 983.24,-222.55 1002.16,-209.74"/>
<polygon fill="midnightblue" stroke="midnightblue" points="1004.13,-212.63 1010.45,-204.13 1000.21,-206.84 1004.13,-212.63"/>
</g>
</g>
</svg>
