<?xml version="1.0" encoding="UTF-8" standalone="no"?>
<!DOCTYPE svg PUBLIC "-//W3C//DTD SVG 1.1//EN"
 "http://www.w3.org/Graphics/SVG/1.1/DTD/svg11.dtd">
<!-- Generated by graphviz version 2.43.0 (0)
 -->
<!-- Title: aprs.cpp Pages: 1 -->
<svg width="1658pt" height="397pt"
 viewBox="0.00 0.00 1657.50 397.00" xmlns="http://www.w3.org/2000/svg" xmlns:xlink="http://www.w3.org/1999/xlink">
<g id="graph0" class="graph" transform="scale(1 1) rotate(0) translate(4 393)">
<title>aprs.cpp</title>
<!-- Node1 -->
<g id="node1" class="node">
<title>Node1</title>
<g id="a_node1"><a xlink:title="APRS implementation.">
<polygon fill="#bfbfbf" stroke="black" points="745,-369.5 745,-388.5 803,-388.5 803,-369.5 745,-369.5"/>
<text text-anchor="middle" x="774" y="-376.5" font-family="Helvetica,sans-Serif" font-size="10.00">aprs.cpp</text>
</a>
</g>
</g>
<!-- Node2 -->
<g id="node2" class="node">
<title>Node2</title>
<g id="a_node2"><a xlink:title=" ">
<polygon fill="none" stroke="#bfbfbf" points="615.5,-313.5 615.5,-332.5 662.5,-332.5 662.5,-313.5 615.5,-313.5"/>
<text text-anchor="middle" x="639" y="-320.5" font-family="Helvetica,sans-Serif" font-size="10.00">cmath</text>
</a>
</g>
</g>
<!-- Node1&#45;&gt;Node2 -->
<g id="edge1" class="edge">
<title>Node1&#45;&gt;Node2</title>
<path fill="none" stroke="midnightblue" d="M752.61,-369.44C730.29,-360.52 695.1,-346.44 669.79,-336.32"/>
<polygon fill="midnightblue" stroke="midnightblue" points="670.88,-332.98 660.29,-332.52 668.28,-339.48 670.88,-332.98"/>
</g>
<!-- Node3 -->
<g id="node3" class="node">
<title>Node3</title>
<g id="a_node3"><a xlink:title=" ">
<polygon fill="none" stroke="#bfbfbf" points="680.5,-313.5 680.5,-332.5 745.5,-332.5 745.5,-313.5 680.5,-313.5"/>
<text text-anchor="middle" x="713" y="-320.5" font-family="Helvetica,sans-Serif" font-size="10.00">stdexcept</text>
</a>
</g>
</g>
<!-- Node1&#45;&gt;Node3 -->
<g id="edge2" class="edge">
<title>Node1&#45;&gt;Node3</title>
<path fill="none" stroke="midnightblue" d="M764.2,-369.32C755.18,-361.34 741.59,-349.31 730.68,-339.65"/>
<polygon fill="midnightblue" stroke="midnightblue" points="732.79,-336.84 722.98,-332.83 728.15,-342.08 732.79,-336.84"/>
</g>
<!-- Node4 -->
<g id="node4" class="node">
<title>Node4</title>
<g id="a_node4"><a xlink:title=" ">
<polygon fill="none" stroke="#bfbfbf" points="774.5,-118 774.5,-137 821.5,-137 821.5,-118 774.5,-118"/>
<text text-anchor="middle" x="798" y="-125" font-family="Helvetica,sans-Serif" font-size="10.00">vector</text>
</a>
</g>
</g>
<!-- Node1&#45;&gt;Node4 -->
<g id="edge3" class="edge">
<title>Node1&#45;&gt;Node4</title>
<path fill="none" stroke="midnightblue" d="M774.83,-369.41C778.25,-333.8 791.39,-197.25 796.21,-147.11"/>
<polygon fill="midnightblue" stroke="midnightblue" points="799.7,-147.34 797.18,-137.05 792.74,-146.67 799.7,-147.34"/>
</g>
<!-- Node5 -->
<g id="node5" class="node">
<title>Node5</title>
<g id="a_node5"><a xlink:href="aprs_8hpp.html" target="_top" xlink:title=" ">
<polygon fill="none" stroke="black" points="903,-313.5 903,-332.5 1021,-332.5 1021,-313.5 903,-313.5"/>
<text text-anchor="middle" x="962" y="-320.5" font-family="Helvetica,sans-Serif" font-size="10.00">SignalEasel/aprs.hpp</text>
</a>
</g>
</g>
<!-- Node1&#45;&gt;Node5 -->
<g id="edge4" class="edge">
<title>Node1&#45;&gt;Node5</title>
<path fill="none" stroke="midnightblue" d="M803.38,-369.56C835.33,-360.38 886.61,-345.66 922.17,-335.44"/>
<polygon fill="midnightblue" stroke="midnightblue" points="923.57,-338.68 932.21,-332.56 921.63,-331.95 923.57,-338.68"/>
</g>
<!-- Node23 -->
<g id="node23" class="node">
<title>Node23</title>
<g id="a_node23"><a xlink:href="exception_8hpp.html" target="_top" xlink:title="SignalEasel exceptions.">
<polygon fill="none" stroke="black" points="1504.5,-56.5 1504.5,-75.5 1649.5,-75.5 1649.5,-56.5 1504.5,-56.5"/>
<text text-anchor="middle" x="1577" y="-63.5" font-family="Helvetica,sans-Serif" font-size="10.00">SignalEasel/exception.hpp</text>
</a>
</g>
</g>
<!-- Node1&#45;&gt;Node23 -->
<g id="edge55" class="edge">
<title>Node1&#45;&gt;Node23</title>
<path fill="none" stroke="midnightblue" d="M803.24,-376.9C946.67,-371.12 1569,-341.47 1569,-262.5 1569,-262.5 1569,-262.5 1569,-193.5 1569,-155.13 1572.71,-110.33 1575.08,-85.67"/>
<polygon fill="midnightblue" stroke="midnightblue" points="1578.58,-85.87 1576.08,-75.58 1571.61,-85.18 1578.58,-85.87"/>
</g>
<!-- Node6 -->
<g id="node6" class="node">
<title>Node6</title>
<g id="a_node6"><a xlink:title=" ">
<polygon fill="none" stroke="#bfbfbf" points="292,-0.5 292,-19.5 342,-19.5 342,-0.5 292,-0.5"/>
<text text-anchor="middle" x="317" y="-7.5" font-family="Helvetica,sans-Serif" font-size="10.00">cstdint</text>
</a>
</g>
</g>
<!-- Node5&#45;&gt;Node6 -->
<g id="edge5" class="edge">
<title>Node5&#45;&gt;Node6</title>
<path fill="none" stroke="midnightblue" d="M902.6,-319.41C799.12,-314.42 579.24,-301.72 395,-277 217.34,-253.16 0,-374.75 0,-195.5 0,-195.5 0,-195.5 0,-126.5 0,-67.03 199.46,-29.23 281.94,-16.14"/>
<polygon fill="midnightblue" stroke="midnightblue" points="282.52,-19.6 291.86,-14.6 281.44,-12.68 282.52,-19.6"/>
</g>
<!-- Node7 -->
<g id="node7" class="node">
<title>Node7</title>
<g id="a_node7"><a xlink:title=" ">
<polygon fill="none" stroke="#bfbfbf" points="1120,-0.5 1120,-19.5 1164,-19.5 1164,-0.5 1120,-0.5"/>
<text text-anchor="middle" x="1142" y="-7.5" font-family="Helvetica,sans-Serif" font-size="10.00">string</text>
</a>
</g>
</g>
<!-- Node5&#45;&gt;Node7 -->
<g id="edge6" class="edge">
<title>Node5&#45;&gt;Node7</title>
<path fill="none" stroke="midnightblue" d="M1021.11,-318.48C1117.56,-312.22 1304.32,-297.84 1367,-277 1422.77,-258.46 1451.81,-261.01 1481,-210 1553.04,-84.11 1271.81,-30.09 1174.23,-15.37"/>
<polygon fill="midnightblue" stroke="midnightblue" points="1174.46,-11.87 1164.06,-13.88 1173.45,-18.8 1174.46,-11.87"/>
</g>
<!-- Node8 -->
<g id="node8" class="node">
<title>Node8</title>
<g id="a_node8"><a xlink:title=" ">
<polygon fill="none" stroke="#bfbfbf" points="1350,-185 1350,-204 1472,-204 1472,-185 1350,-185"/>
<text text-anchor="middle" x="1411" y="-192" font-family="Helvetica,sans-Serif" font-size="10.00">BoosterSeat/time.hpp</text>
</a>
</g>
</g>
<!-- Node5&#45;&gt;Node8 -->
<g id="edge7" class="edge">
<title>Node5&#45;&gt;Node8</title>
<path fill="none" stroke="midnightblue" d="M1021.22,-319.78C1112.22,-315.54 1281.5,-304.19 1335,-277 1363.92,-262.3 1387.56,-231.9 1400.43,-212.66"/>
<polygon fill="midnightblue" stroke="midnightblue" points="1403.53,-214.3 1406,-204 1397.65,-210.52 1403.53,-214.3"/>
</g>
<!-- Node9 -->
<g id="node9" class="node">
<title>Node9</title>
<g id="a_node9"><a xlink:href="afsk_8hpp.html" target="_top" xlink:title="AFSK related modulation/demodulation.">
<polygon fill="none" stroke="black" points="404,-252 404,-271 522,-271 522,-252 404,-252"/>
<text text-anchor="middle" x="463" y="-259" font-family="Helvetica,sans-Serif" font-size="10.00">SignalEasel/afsk.hpp</text>
</a>
</g>
</g>
<!-- Node5&#45;&gt;Node9 -->
<g id="edge8" class="edge">
<title>Node5&#45;&gt;Node9</title>
<path fill="none" stroke="midnightblue" d="M902.8,-314.94C810.04,-303.88 630.9,-282.52 532.28,-270.76"/>
<polygon fill="midnightblue" stroke="midnightblue" points="532.47,-267.26 522.12,-269.55 531.64,-274.21 532.47,-267.26"/>
</g>
<!-- Node20 -->
<g id="node20" class="node">
<title>Node20</title>
<g id="a_node20"><a xlink:href="packets_8hpp.html" target="_top" xlink:title=" ">
<polygon fill="none" stroke="black" points="1168,-252 1168,-271 1326,-271 1326,-252 1168,-252"/>
<text text-anchor="middle" x="1247" y="-259" font-family="Helvetica,sans-Serif" font-size="10.00">SignalEasel/aprs/packets.hpp</text>
</a>
</g>
</g>
<!-- Node5&#45;&gt;Node20 -->
<g id="edge32" class="edge">
<title>Node5&#45;&gt;Node20</title>
<path fill="none" stroke="midnightblue" d="M1002.83,-313.48C1053.84,-302.83 1141.1,-284.61 1196.32,-273.08"/>
<polygon fill="midnightblue" stroke="midnightblue" points="1197.17,-276.48 1206.24,-271.01 1195.74,-269.63 1197.17,-276.48"/>
</g>
<!-- Node25 -->
<g id="node25" class="node">
<title>Node25</title>
<g id="a_node25"><a xlink:href="telemetry__transcoder_8hpp.html" target="_top" xlink:title=" ">
<polygon fill="none" stroke="black" points="965,-246.5 965,-276.5 1113,-276.5 1113,-246.5 965,-246.5"/>
<text text-anchor="start" x="973" y="-264.5" font-family="Helvetica,sans-Serif" font-size="10.00">SignalEasel/aprs/telemetry</text>
<text text-anchor="middle" x="1039" y="-253.5" font-family="Helvetica,sans-Serif" font-size="10.00">_transcoder.hpp</text>
</a>
</g>
</g>
<!-- Node5&#45;&gt;Node25 -->
<g id="edge45" class="edge">
<title>Node5&#45;&gt;Node25</title>
<path fill="none" stroke="midnightblue" d="M973.03,-313.48C983.36,-305.49 999.2,-293.25 1012.77,-282.77"/>
<polygon fill="midnightblue" stroke="midnightblue" points="1015.08,-285.41 1020.85,-276.52 1010.8,-279.87 1015.08,-285.41"/>
</g>
<!-- Node26 -->
<g id="node26" class="node">
<title>Node26</title>
<g id="a_node26"><a xlink:href="ax25_8hpp.html" target="_top" xlink:title="AX.25 tools.">
<polygon fill="none" stroke="black" points="825.5,-252 825.5,-271 946.5,-271 946.5,-252 825.5,-252"/>
<text text-anchor="middle" x="886" y="-259" font-family="Helvetica,sans-Serif" font-size="10.00">SignalEasel/ax25.hpp</text>
</a>
</g>
</g>
<!-- Node5&#45;&gt;Node26 -->
<g id="edge48" class="edge">
<title>Node5&#45;&gt;Node26</title>
<path fill="none" stroke="midnightblue" d="M951.11,-313.48C939.03,-304.02 919.33,-288.6 904.76,-277.19"/>
<polygon fill="midnightblue" stroke="midnightblue" points="906.9,-274.42 896.87,-271.01 902.59,-279.93 906.9,-274.42"/>
</g>
<!-- Node9&#45;&gt;Node4 -->
<g id="edge9" class="edge">
<title>Node9&#45;&gt;Node4</title>
<path fill="none" stroke="midnightblue" d="M522.01,-258.64C575.95,-254.74 656.45,-243.24 718,-210 747.24,-194.21 772.48,-164.17 786.42,-145.3"/>
<polygon fill="midnightblue" stroke="midnightblue" points="789.36,-147.22 792.33,-137.05 783.67,-143.14 789.36,-147.22"/>
</g>
<!-- Node10 -->
<g id="node10" class="node">
<title>Node10</title>
<g id="a_node10"><a xlink:href="constants_8hpp.html" target="_top" xlink:title="Common constants used throughout the library.">
<polygon fill="none" stroke="black" points="145,-56.5 145,-75.5 289,-75.5 289,-56.5 145,-56.5"/>
<text text-anchor="middle" x="217" y="-63.5" font-family="Helvetica,sans-Serif" font-size="10.00">SignalEasel/constants.hpp</text>
</a>
</g>
</g>
<!-- Node9&#45;&gt;Node10 -->
<g id="edge10" class="edge">
<title>Node9&#45;&gt;Node10</title>
<path fill="none" stroke="midnightblue" d="M403.79,-257.4C296.66,-251.18 79.57,-235.55 57,-210 9.57,-156.31 123.67,-102.59 183.4,-79.18"/>
<polygon fill="midnightblue" stroke="midnightblue" points="184.75,-82.41 192.83,-75.56 182.24,-75.88 184.75,-82.41"/>
</g>
<!-- Node11 -->
<g id="node11" class="node">
<title>Node11</title>
<g id="a_node11"><a xlink:href="bit__stream_8hpp.html" target="_top" xlink:title="The bit stream class.">
<polygon fill="none" stroke="black" points="559.5,-185 559.5,-204 708.5,-204 708.5,-185 559.5,-185"/>
<text text-anchor="middle" x="634" y="-192" font-family="Helvetica,sans-Serif" font-size="10.00">SignalEasel/bit_stream.hpp</text>
</a>
</g>
</g>
<!-- Node9&#45;&gt;Node11 -->
<g id="edge12" class="edge">
<title>Node9&#45;&gt;Node11</title>
<path fill="none" stroke="midnightblue" d="M485.71,-251.87C515.56,-240.52 568.17,-220.52 602.03,-207.65"/>
<polygon fill="midnightblue" stroke="midnightblue" points="603.37,-210.89 611.47,-204.06 600.88,-204.35 603.37,-210.89"/>
</g>
<!-- Node12 -->
<g id="node12" class="node">
<title>Node12</title>
<g id="a_node12"><a xlink:href="demodulator_8hpp.html" target="_top" xlink:title="Base class for demodulators.">
<polygon fill="none" stroke="black" points="384,-185 384,-204 542,-204 542,-185 384,-185"/>
<text text-anchor="middle" x="463" y="-192" font-family="Helvetica,sans-Serif" font-size="10.00">SignalEasel/demodulator.hpp</text>
</a>
</g>
</g>
<!-- Node9&#45;&gt;Node12 -->
<g id="edge15" class="edge">
<title>Node9&#45;&gt;Node12</title>
<path fill="none" stroke="midnightblue" d="M463,-251.73C463,-242.18 463,-226.62 463,-214.28"/>
<polygon fill="midnightblue" stroke="midnightblue" points="466.5,-214.13 463,-204.13 459.5,-214.13 466.5,-214.13"/>
</g>
<!-- Node14 -->
<g id="node14" class="node">
<title>Node14</title>
<g id="a_node14"><a xlink:href="modulator_8hpp.html" target="_top" xlink:title="Modulator base class.">
<polygon fill="none" stroke="black" points="220,-185 220,-204 366,-204 366,-185 220,-185"/>
<text text-anchor="middle" x="293" y="-192" font-family="Helvetica,sans-Serif" font-size="10.00">SignalEasel/modulator.hpp</text>
</a>
</g>
</g>
<!-- Node9&#45;&gt;Node14 -->
<g id="edge20" class="edge">
<title>Node9&#45;&gt;Node14</title>
<path fill="none" stroke="midnightblue" d="M440.43,-251.87C410.75,-240.52 358.45,-220.52 324.78,-207.65"/>
<polygon fill="midnightblue" stroke="midnightblue" points="325.99,-204.37 315.4,-204.06 323.49,-210.9 325.99,-204.37"/>
</g>
<!-- Node15 -->
<g id="node15" class="node">
<title>Node15</title>
<g id="a_node15"><a xlink:href="receiver_8hpp.html" target="_top" xlink:title="Base class for receivers. Demodulators that use pulse audio.">
<polygon fill="none" stroke="black" points="66,-185 66,-204 202,-204 202,-185 66,-185"/>
<text text-anchor="middle" x="134" y="-192" font-family="Helvetica,sans-Serif" font-size="10.00">SignalEasel/receiver.hpp</text>
</a>
</g>
</g>
<!-- Node9&#45;&gt;Node15 -->
<g id="edge24" class="edge">
<title>Node9&#45;&gt;Node15</title>
<path fill="none" stroke="midnightblue" d="M419.65,-251.94C359.78,-240.11 251.85,-218.78 187.18,-206.01"/>
<polygon fill="midnightblue" stroke="midnightblue" points="187.67,-202.54 177.18,-204.03 186.32,-209.4 187.67,-202.54"/>
</g>
<!-- Node10&#45;&gt;Node6 -->
<g id="edge11" class="edge">
<title>Node10&#45;&gt;Node6</title>
<path fill="none" stroke="midnightblue" d="M233.07,-56.32C248.96,-47.74 273.51,-34.49 291.96,-24.52"/>
<polygon fill="midnightblue" stroke="midnightblue" points="293.84,-27.49 300.97,-19.65 290.51,-21.33 293.84,-27.49"/>
</g>
<!-- Node11&#45;&gt;Node4 -->
<g id="edge14" class="edge">
<title>Node11&#45;&gt;Node4</title>
<path fill="none" stroke="midnightblue" d="M655.78,-184.87C684.28,-173.57 734.43,-153.7 766.92,-140.82"/>
<polygon fill="midnightblue" stroke="midnightblue" points="768.39,-144 776.39,-137.06 765.81,-137.49 768.39,-144"/>
</g>
<!-- Node11&#45;&gt;Node6 -->
<g id="edge13" class="edge">
<title>Node11&#45;&gt;Node6</title>
<path fill="none" stroke="midnightblue" d="M585.29,-184.93C574.03,-182.97 562.1,-180.9 551,-179 503.25,-170.83 369.86,-177.65 336,-143 306.42,-112.73 309.4,-58.38 313.52,-29.78"/>
<polygon fill="midnightblue" stroke="midnightblue" points="317.03,-29.99 315.2,-19.55 310.12,-28.85 317.03,-29.99"/>
</g>
<!-- Node12&#45;&gt;Node4 -->
<g id="edge17" class="edge">
<title>Node12&#45;&gt;Node4</title>
<path fill="none" stroke="midnightblue" d="M514.84,-184.96C596.8,-171.41 748.27,-146.2 760,-143 762.65,-142.28 765.38,-141.44 768.1,-140.53"/>
<polygon fill="midnightblue" stroke="midnightblue" points="769.5,-143.75 777.73,-137.07 767.14,-137.16 769.5,-143.75"/>
</g>
<!-- Node12&#45;&gt;Node7 -->
<g id="edge16" class="edge">
<title>Node12&#45;&gt;Node7</title>
<path fill="none" stroke="midnightblue" d="M499.86,-184.98C540.32,-175.46 607.08,-159.24 664,-143 786.05,-108.19 813.42,-88.91 936,-56 996.98,-39.63 1069.31,-24.89 1110,-17.01"/>
<polygon fill="midnightblue" stroke="midnightblue" points="1110.72,-20.44 1119.88,-15.12 1109.4,-13.57 1110.72,-20.44"/>
</g>
<!-- Node13 -->
<g id="node13" class="node">
<title>Node13</title>
<g id="a_node13"><a xlink:href="settings_8hpp.html" target="_top" xlink:title="Settings structures for SignalEasel.">
<polygon fill="none" stroke="black" points="519,-118 519,-137 655,-137 655,-118 519,-118"/>
<text text-anchor="middle" x="587" y="-125" font-family="Helvetica,sans-Serif" font-size="10.00">SignalEasel/settings.hpp</text>
</a>
</g>
</g>
<!-- Node12&#45;&gt;Node13 -->
<g id="edge18" class="edge">
<title>Node12&#45;&gt;Node13</title>
<path fill="none" stroke="midnightblue" d="M479.47,-184.87C500.4,-173.89 536.78,-154.82 561.36,-141.94"/>
<polygon fill="midnightblue" stroke="midnightblue" points="563.23,-144.91 570.47,-137.17 559.98,-138.71 563.23,-144.91"/>
</g>
<!-- Node13&#45;&gt;Node7 -->
<g id="edge19" class="edge">
<title>Node13&#45;&gt;Node7</title>
<path fill="none" stroke="midnightblue" d="M607.46,-118C644.17,-103.09 723.93,-72.29 794,-56 908.19,-29.45 1047.36,-17.39 1109.42,-13.03"/>
<polygon fill="midnightblue" stroke="midnightblue" points="1110,-16.5 1119.74,-12.33 1109.53,-9.52 1110,-16.5"/>
</g>
<!-- Node14&#45;&gt;Node4 -->
<g id="edge22" class="edge">
<title>Node14&#45;&gt;Node4</title>
<path fill="none" stroke="midnightblue" d="M338.47,-184.99C350.34,-182.9 363.13,-180.76 375,-179 450.32,-167.85 678.14,-141.97 764.41,-132.26"/>
<polygon fill="midnightblue" stroke="midnightblue" points="764.89,-135.73 774.44,-131.14 764.11,-128.77 764.89,-135.73"/>
</g>
<!-- Node14&#45;&gt;Node6 -->
<g id="edge21" class="edge">
<title>Node14&#45;&gt;Node6</title>
<path fill="none" stroke="midnightblue" d="M267.75,-184.98C212.9,-165.16 91.26,-113.23 136,-56 153.75,-33.29 234.35,-20.4 281.8,-14.66"/>
<polygon fill="midnightblue" stroke="midnightblue" points="282.43,-18.11 291.96,-13.48 281.62,-11.16 282.43,-18.11"/>
</g>
<!-- Node14&#45;&gt;Node13 -->
<g id="edge23" class="edge">
<title>Node14&#45;&gt;Node13</title>
<path fill="none" stroke="midnightblue" d="M331.74,-184.94C384.84,-173.2 480.23,-152.11 538.16,-139.3"/>
<polygon fill="midnightblue" stroke="midnightblue" points="539.17,-142.66 548.18,-137.08 537.66,-135.82 539.17,-142.66"/>
</g>
<!-- Node15&#45;&gt;Node13 -->
<g id="edge31" class="edge">
<title>Node15&#45;&gt;Node13</title>
<path fill="none" stroke="midnightblue" d="M176.68,-184.94C187.82,-182.85 199.84,-180.72 211,-179 343.29,-158.6 377.71,-163.4 510,-143 517.93,-141.78 526.3,-140.35 534.48,-138.87"/>
<polygon fill="midnightblue" stroke="midnightblue" points="535.12,-142.31 544.32,-137.06 533.85,-135.43 535.12,-142.31"/>
</g>
<!-- Node16 -->
<g id="node16" class="node">
<title>Node16</title>
<g id="a_node16"><a xlink:href="pulse__audio_8hpp.html" target="_top" xlink:title="Reads audio from pulse audio.">
<polygon fill="none" stroke="black" points="345.5,-118 345.5,-137 500.5,-137 500.5,-118 345.5,-118"/>
<text text-anchor="middle" x="423" y="-125" font-family="Helvetica,sans-Serif" font-size="10.00">SignalEasel/pulse_audio.hpp</text>
</a>
</g>
</g>
<!-- Node15&#45;&gt;Node16 -->
<g id="edge25" class="edge">
<title>Node15&#45;&gt;Node16</title>
<path fill="none" stroke="midnightblue" d="M172.08,-184.94C224.28,-173.2 318.05,-152.11 374.99,-139.3"/>
<polygon fill="midnightblue" stroke="midnightblue" points="375.85,-142.69 384.84,-137.08 374.31,-135.86 375.85,-142.69"/>
</g>
<!-- Node16&#45;&gt;Node7 -->
<g id="edge27" class="edge">
<title>Node16&#45;&gt;Node7</title>
<path fill="none" stroke="midnightblue" d="M453.52,-117.9C507.05,-103.12 621.54,-72.87 720,-56 864.37,-31.27 1038.99,-17.81 1109.83,-13.03"/>
<polygon fill="midnightblue" stroke="midnightblue" points="1110.15,-16.52 1119.9,-12.36 1109.69,-9.53 1110.15,-16.52"/>
</g>
<!-- Node16&#45;&gt;Node10 -->
<g id="edge28" class="edge">
<title>Node16&#45;&gt;Node10</title>
<path fill="none" stroke="midnightblue" d="M393.49,-117.98C357.38,-107.55 296.15,-89.86 256.15,-78.31"/>
<polygon fill="midnightblue" stroke="midnightblue" points="257.04,-74.92 246.46,-75.51 255.1,-81.65 257.04,-74.92"/>
</g>
<!-- Node17 -->
<g id="node17" class="node">
<title>Node17</title>
<g id="a_node17"><a xlink:title=" ">
<polygon fill="none" stroke="#bfbfbf" points="945,-56.5 945,-75.5 987,-75.5 987,-56.5 945,-56.5"/>
<text text-anchor="middle" x="966" y="-63.5" font-family="Helvetica,sans-Serif" font-size="10.00">array</text>
</a>
</g>
</g>
<!-- Node16&#45;&gt;Node17 -->
<g id="edge26" class="edge">
<title>Node16&#45;&gt;Node17</title>
<path fill="none" stroke="midnightblue" d="M470.78,-117.95C483.5,-115.83 497.25,-113.69 510,-112 668.97,-90.93 860.33,-75.14 934.5,-69.38"/>
<polygon fill="midnightblue" stroke="midnightblue" points="934.87,-72.86 944.57,-68.6 934.33,-65.88 934.87,-72.86"/>
</g>
<!-- Node18 -->
<g id="node18" class="node">
<title>Node18</title>
<g id="a_node18"><a xlink:title=" ">
<polygon fill="none" stroke="#bfbfbf" points="474.5,-56.5 474.5,-75.5 551.5,-75.5 551.5,-56.5 474.5,-56.5"/>
<text text-anchor="middle" x="513" y="-63.5" font-family="Helvetica,sans-Serif" font-size="10.00">pulse/error.h</text>
</a>
</g>
</g>
<!-- Node16&#45;&gt;Node18 -->
<g id="edge29" class="edge">
<title>Node16&#45;&gt;Node18</title>
<path fill="none" stroke="midnightblue" d="M435.89,-117.98C450.46,-108.34 474.4,-92.52 491.75,-81.05"/>
<polygon fill="midnightblue" stroke="midnightblue" points="493.72,-83.94 500.13,-75.51 489.86,-78.1 493.72,-83.94"/>
</g>
<!-- Node19 -->
<g id="node19" class="node">
<title>Node19</title>
<g id="a_node19"><a xlink:title=" ">
<polygon fill="none" stroke="#bfbfbf" points="368,-56.5 368,-75.5 456,-75.5 456,-56.5 368,-56.5"/>
<text text-anchor="middle" x="412" y="-63.5" font-family="Helvetica,sans-Serif" font-size="10.00">pulse/simple.h</text>
</a>
</g>
</g>
<!-- Node16&#45;&gt;Node19 -->
<g id="edge30" class="edge">
<title>Node16&#45;&gt;Node19</title>
<path fill="none" stroke="midnightblue" d="M421.42,-117.98C419.87,-109.58 417.45,-96.48 415.45,-85.66"/>
<polygon fill="midnightblue" stroke="midnightblue" points="418.83,-84.71 413.57,-75.51 411.95,-85.98 418.83,-84.71"/>
</g>
<!-- Node20&#45;&gt;Node4 -->
<g id="edge35" class="edge">
<title>Node20&#45;&gt;Node4</title>
<path fill="none" stroke="midnightblue" d="M1219.89,-251.92C1171.86,-236.78 1068.65,-204.52 981,-179 928.93,-163.84 868.2,-147.31 831.45,-137.43"/>
<polygon fill="midnightblue" stroke="midnightblue" points="832.31,-134.04 821.75,-134.83 830.5,-140.8 832.31,-134.04"/>
</g>
<!-- Node20&#45;&gt;Node6 -->
<g id="edge33" class="edge">
<title>Node20&#45;&gt;Node6</title>
<path fill="none" stroke="midnightblue" d="M1253.09,-251.83C1263.61,-235.67 1282.46,-200.66 1265,-179 1217.61,-120.23 1166.73,-176.34 1099,-143 1045.24,-116.53 1051.56,-78.44 996,-56 877.57,-8.18 474.8,-9.04 352.5,-10.46"/>
<polygon fill="midnightblue" stroke="midnightblue" points="352.17,-6.96 342.21,-10.59 352.26,-13.96 352.17,-6.96"/>
</g>
<!-- Node20&#45;&gt;Node7 -->
<g id="edge34" class="edge">
<title>Node20&#45;&gt;Node7</title>
<path fill="none" stroke="midnightblue" d="M1260.37,-251.95C1272.77,-243.15 1290.42,-228.17 1298,-210 1303.3,-197.28 1301.13,-192.42 1298,-179 1290.47,-146.67 1285.63,-138.01 1265,-112 1235.97,-75.4 1191.64,-43.09 1164.88,-25.37"/>
<polygon fill="midnightblue" stroke="midnightblue" points="1166.49,-22.24 1156.2,-19.73 1162.67,-28.11 1166.49,-22.24"/>
</g>
<!-- Node20&#45;&gt;Node8 -->
<g id="edge36" class="edge">
<title>Node20&#45;&gt;Node8</title>
<path fill="none" stroke="midnightblue" d="M1268.78,-251.87C1297.28,-240.57 1347.43,-220.7 1379.92,-207.82"/>
<polygon fill="midnightblue" stroke="midnightblue" points="1381.39,-211 1389.39,-204.06 1378.81,-204.49 1381.39,-211"/>
</g>
<!-- Node21 -->
<g id="node21" class="node">
<title>Node21</title>
<g id="a_node21"><a xlink:href="telemetry__data_8hpp.html" target="_top" xlink:title=" ">
<polygon fill="none" stroke="black" points="1108,-179.5 1108,-209.5 1256,-209.5 1256,-179.5 1108,-179.5"/>
<text text-anchor="start" x="1116" y="-197.5" font-family="Helvetica,sans-Serif" font-size="10.00">SignalEasel/aprs/telemetry</text>
<text text-anchor="middle" x="1182" y="-186.5" font-family="Helvetica,sans-Serif" font-size="10.00">_data.hpp</text>
</a>
</g>
</g>
<!-- Node20&#45;&gt;Node21 -->
<g id="edge37" class="edge">
<title>Node20&#45;&gt;Node21</title>
<path fill="none" stroke="midnightblue" d="M1238.23,-251.73C1229.36,-242.86 1215.31,-228.81 1203.47,-216.97"/>
<polygon fill="midnightblue" stroke="midnightblue" points="1205.63,-214.19 1196.09,-209.59 1200.69,-219.13 1205.63,-214.19"/>
</g>
<!-- Node21&#45;&gt;Node17 -->
<g id="edge38" class="edge">
<title>Node21&#45;&gt;Node17</title>
<path fill="none" stroke="midnightblue" d="M1143.53,-179.44C1120.39,-170.34 1090.73,-157.5 1066,-143 1035.03,-124.84 1002.53,-98.61 983.29,-82.19"/>
<polygon fill="midnightblue" stroke="midnightblue" points="985.51,-79.49 975.66,-75.61 980.94,-84.79 985.51,-79.49"/>
</g>
<!-- Node22 -->
<g id="node22" class="node">
<title>Node22</title>
<g id="a_node22"><a xlink:href="telemetry__parameter_8hpp.html" target="_top" xlink:title=" ">
<polygon fill="none" stroke="black" points="1108,-112.5 1108,-142.5 1256,-142.5 1256,-112.5 1108,-112.5"/>
<text text-anchor="start" x="1116" y="-130.5" font-family="Helvetica,sans-Serif" font-size="10.00">SignalEasel/aprs/telemetry</text>
<text text-anchor="middle" x="1182" y="-119.5" font-family="Helvetica,sans-Serif" font-size="10.00">_parameter.hpp</text>
</a>
</g>
</g>
<!-- Node21&#45;&gt;Node22 -->
<g id="edge39" class="edge">
<title>Node21&#45;&gt;Node22</title>
<path fill="none" stroke="midnightblue" d="M1182,-179.4C1182,-171.64 1182,-161.81 1182,-152.86"/>
<polygon fill="midnightblue" stroke="midnightblue" points="1185.5,-152.58 1182,-142.58 1178.5,-152.58 1185.5,-152.58"/>
</g>
<!-- Node22&#45;&gt;Node6 -->
<g id="edge40" class="edge">
<title>Node22&#45;&gt;Node6</title>
<path fill="none" stroke="midnightblue" d="M1162.99,-112.34C1139.16,-95.48 1096.4,-68.08 1055,-56 920.76,-16.84 480.46,-11.74 352.3,-11.09"/>
<polygon fill="midnightblue" stroke="midnightblue" points="352.26,-7.59 342.24,-11.05 352.23,-14.59 352.26,-7.59"/>
</g>
<!-- Node22&#45;&gt;Node7 -->
<g id="edge41" class="edge">
<title>Node22&#45;&gt;Node7</title>
<path fill="none" stroke="midnightblue" d="M1177.1,-112.34C1169.86,-91.43 1156.31,-52.31 1148.33,-29.27"/>
<polygon fill="midnightblue" stroke="midnightblue" points="1151.58,-27.97 1145,-19.67 1144.97,-30.26 1151.58,-27.97"/>
</g>
<!-- Node22&#45;&gt;Node23 -->
<g id="edge42" class="edge">
<title>Node22&#45;&gt;Node23</title>
<path fill="none" stroke="midnightblue" d="M1256.3,-115.31C1329.36,-104.3 1439.87,-87.66 1510.22,-77.06"/>
<polygon fill="midnightblue" stroke="midnightblue" points="1510.93,-80.49 1520.3,-75.54 1509.89,-73.57 1510.93,-80.49"/>
</g>
<!-- Node23&#45;&gt;Node7 -->
<g id="edge44" class="edge">
<title>Node23&#45;&gt;Node7</title>
<path fill="none" stroke="midnightblue" d="M1508.07,-56.44C1412.82,-44.62 1244.76,-23.76 1174.4,-15.02"/>
<polygon fill="midnightblue" stroke="midnightblue" points="1174.72,-11.53 1164.36,-13.78 1173.85,-18.48 1174.72,-11.53"/>
</g>
<!-- Node24 -->
<g id="node24" class="node">
<title>Node24</title>
<g id="a_node24"><a xlink:title=" ">
<polygon fill="none" stroke="#bfbfbf" points="1544.5,-0.5 1544.5,-19.5 1609.5,-19.5 1609.5,-0.5 1544.5,-0.5"/>
<text text-anchor="middle" x="1577" y="-7.5" font-family="Helvetica,sans-Serif" font-size="10.00">exception</text>
</a>
</g>
</g>
<!-- Node23&#45;&gt;Node24 -->
<g id="edge43" class="edge">
<title>Node23&#45;&gt;Node24</title>
<path fill="none" stroke="midnightblue" d="M1577,-56.08C1577,-49.01 1577,-38.86 1577,-29.99"/>
<polygon fill="midnightblue" stroke="midnightblue" points="1580.5,-29.75 1577,-19.75 1573.5,-29.75 1580.5,-29.75"/>
</g>
<!-- Node25&#45;&gt;Node4 -->
<g id="edge46" class="edge">
<title>Node25&#45;&gt;Node4</title>
<path fill="none" stroke="midnightblue" d="M1026.33,-246.2C1009.72,-228.23 978.93,-197.53 947,-179 910.18,-157.63 862.95,-143.56 831.65,-135.82"/>
<polygon fill="midnightblue" stroke="midnightblue" points="832.22,-132.36 821.68,-133.44 830.59,-139.17 832.22,-132.36"/>
</g>
<!-- Node25&#45;&gt;Node21 -->
<g id="edge47" class="edge">
<title>Node25&#45;&gt;Node21</title>
<path fill="none" stroke="midnightblue" d="M1070.03,-246.4C1091.02,-236.86 1118.94,-224.16 1141.65,-213.84"/>
<polygon fill="midnightblue" stroke="midnightblue" points="1143.38,-216.9 1151.03,-209.58 1140.48,-210.53 1143.38,-216.9"/>
</g>
<!-- Node26&#45;&gt;Node4 -->
<g id="edge53" class="edge">
<title>Node26&#45;&gt;Node4</title>
<path fill="none" stroke="midnightblue" d="M875.35,-251.71C864.41,-242.27 847.42,-226.4 836,-210 821.96,-189.84 810.82,-163.68 804.33,-146.5"/>
<polygon fill="midnightblue" stroke="midnightblue" points="807.61,-145.3 800.89,-137.1 801.04,-147.7 807.61,-145.3"/>
</g>
<!-- Node26&#45;&gt;Node6 -->
<g id="edge49" class="edge">
<title>Node26&#45;&gt;Node6</title>
<path fill="none" stroke="midnightblue" d="M883.1,-251.98C872.57,-221.14 836.68,-116.89 831,-112 758.25,-49.43 456.16,-21.38 352.27,-13.46"/>
<polygon fill="midnightblue" stroke="midnightblue" points="352.24,-9.95 342.01,-12.7 351.72,-16.93 352.24,-9.95"/>
</g>
<!-- Node26&#45;&gt;Node7 -->
<g id="edge52" class="edge">
<title>Node26&#45;&gt;Node7</title>
<path fill="none" stroke="midnightblue" d="M902.78,-251.93C919.86,-242.78 946.65,-227.26 967,-210 1036.24,-151.26 1102.73,-64.81 1129.56,-28.29"/>
<polygon fill="midnightblue" stroke="midnightblue" points="1132.72,-29.9 1135.78,-19.75 1127.06,-25.78 1132.72,-29.9"/>
</g>
<!-- Node26&#45;&gt;Node11 -->
<g id="edge54" class="edge">
<title>Node26&#45;&gt;Node11</title>
<path fill="none" stroke="midnightblue" d="M852.8,-251.94C807.66,-240.29 726.87,-219.45 677.1,-206.62"/>
<polygon fill="midnightblue" stroke="midnightblue" points="677.83,-203.19 667.28,-204.08 676.09,-209.97 677.83,-203.19"/>
</g>
<!-- Node26&#45;&gt;Node17 -->
<g id="edge50" class="edge">
<title>Node26&#45;&gt;Node17</title>
<path fill="none" stroke="midnightblue" d="M901.9,-251.99C916.23,-243.41 936.61,-228.76 947,-210 969.07,-170.14 969.37,-114.71 967.69,-85.97"/>
<polygon fill="midnightblue" stroke="midnightblue" points="971.16,-85.44 966.94,-75.73 964.18,-85.96 971.16,-85.44"/>
</g>
<!-- Node27 -->
<g id="node27" class="node">
<title>Node27</title>
<g id="a_node27"><a xlink:title=" ">
<polygon fill="none" stroke="#bfbfbf" points="878,-185 878,-204 938,-204 938,-185 878,-185"/>
<text text-anchor="middle" x="908" y="-192" font-family="Helvetica,sans-Serif" font-size="10.00">iostream</text>
</a>
</g>
</g>
<!-- Node26&#45;&gt;Node27 -->
<g id="edge51" class="edge">
<title>Node26&#45;&gt;Node27</title>
<path fill="none" stroke="midnightblue" d="M888.97,-251.73C892.23,-242.09 897.58,-226.3 901.77,-213.91"/>
<polygon fill="midnightblue" stroke="midnightblue" points="905.19,-214.72 905.08,-204.13 898.56,-212.48 905.19,-214.72"/>
</g>
</g>
</svg>
