<?xml version="1.0" encoding="UTF-8" standalone="no"?>
<!DOCTYPE svg PUBLIC "-//W3C//DTD SVG 1.1//EN"
 "http://www.w3.org/Graphics/SVG/1.1/DTD/svg11.dtd">
<!-- Generated by graphviz version 2.43.0 (0)
 -->
<!-- Title: aprs.cpp Pages: 1 -->
<svg width="1659pt" height="397pt"
 viewBox="0.00 0.00 1659.03 397.00" xmlns="http://www.w3.org/2000/svg" xmlns:xlink="http://www.w3.org/1999/xlink">
<g id="graph0" class="graph" transform="scale(1 1) rotate(0) translate(4 393)">
<title>aprs.cpp</title>
<!-- Node1 -->
<g id="node1" class="node">
<title>Node1</title>
<g id="a_node1"><a xlink:title="APRS implementation.">
<polygon fill="#bfbfbf" stroke="black" points="746.53,-369.5 746.53,-388.5 804.53,-388.5 804.53,-369.5 746.53,-369.5"/>
<text text-anchor="middle" x="775.53" y="-376.5" font-family="Helvetica,sans-Serif" font-size="10.00">aprs.cpp</text>
</a>
</g>
</g>
<!-- Node2 -->
<g id="node2" class="node">
<title>Node2</title>
<g id="a_node2"><a xlink:title=" ">
<polygon fill="none" stroke="#bfbfbf" points="617.03,-313.5 617.03,-332.5 664.03,-332.5 664.03,-313.5 617.03,-313.5"/>
<text text-anchor="middle" x="640.53" y="-320.5" font-family="Helvetica,sans-Serif" font-size="10.00">cmath</text>
</a>
</g>
</g>
<!-- Node1&#45;&gt;Node2 -->
<g id="edge1" class="edge">
<title>Node1&#45;&gt;Node2</title>
<path fill="none" stroke="midnightblue" d="M754.14,-369.44C731.82,-360.52 696.63,-346.44 671.32,-336.32"/>
<polygon fill="midnightblue" stroke="midnightblue" points="672.4,-332.98 661.82,-332.52 669.81,-339.48 672.4,-332.98"/>
</g>
<!-- Node3 -->
<g id="node3" class="node">
<title>Node3</title>
<g id="a_node3"><a xlink:title=" ">
<polygon fill="none" stroke="#bfbfbf" points="682.03,-313.5 682.03,-332.5 747.03,-332.5 747.03,-313.5 682.03,-313.5"/>
<text text-anchor="middle" x="714.53" y="-320.5" font-family="Helvetica,sans-Serif" font-size="10.00">stdexcept</text>
</a>
</g>
</g>
<!-- Node1&#45;&gt;Node3 -->
<g id="edge2" class="edge">
<title>Node1&#45;&gt;Node3</title>
<path fill="none" stroke="midnightblue" d="M765.73,-369.32C756.71,-361.34 743.12,-349.31 732.21,-339.65"/>
<polygon fill="midnightblue" stroke="midnightblue" points="734.32,-336.84 724.51,-332.83 729.68,-342.08 734.32,-336.84"/>
</g>
<!-- Node4 -->
<g id="node4" class="node">
<title>Node4</title>
<g id="a_node4"><a xlink:title=" ">
<polygon fill="none" stroke="#bfbfbf" points="753.03,-118 753.03,-137 800.03,-137 800.03,-118 753.03,-118"/>
<text text-anchor="middle" x="776.53" y="-125" font-family="Helvetica,sans-Serif" font-size="10.00">vector</text>
</a>
</g>
</g>
<!-- Node1&#45;&gt;Node4 -->
<g id="edge3" class="edge">
<title>Node1&#45;&gt;Node4</title>
<path fill="none" stroke="midnightblue" d="M775.56,-369.41C775.71,-333.8 776.25,-197.25 776.45,-147.11"/>
<polygon fill="midnightblue" stroke="midnightblue" points="779.95,-147.07 776.49,-137.05 772.95,-147.04 779.95,-147.07"/>
</g>
<!-- Node5 -->
<g id="node5" class="node">
<title>Node5</title>
<g id="a_node5"><a xlink:href="aprs_8hpp.html" target="_top" xlink:title=" ">
<polygon fill="none" stroke="black" points="894.53,-313.5 894.53,-332.5 1012.53,-332.5 1012.53,-313.5 894.53,-313.5"/>
<text text-anchor="middle" x="953.53" y="-320.5" font-family="Helvetica,sans-Serif" font-size="10.00">SignalEasel/aprs.hpp</text>
</a>
</g>
</g>
<!-- Node1&#45;&gt;Node5 -->
<g id="edge4" class="edge">
<title>Node1&#45;&gt;Node5</title>
<path fill="none" stroke="midnightblue" d="M803.73,-369.44C833.94,-360.28 882.04,-345.69 915.56,-335.52"/>
<polygon fill="midnightblue" stroke="midnightblue" points="916.9,-338.77 925.46,-332.52 914.87,-332.07 916.9,-338.77"/>
</g>
<!-- Node24 -->
<g id="node24" class="node">
<title>Node24</title>
<g id="a_node24"><a xlink:href="exception_8hpp.html" target="_top" xlink:title="SignalEasel exceptions.">
<polygon fill="none" stroke="black" points="1506.03,-56.5 1506.03,-75.5 1651.03,-75.5 1651.03,-56.5 1506.03,-56.5"/>
<text text-anchor="middle" x="1578.53" y="-63.5" font-family="Helvetica,sans-Serif" font-size="10.00">SignalEasel/exception.hpp</text>
</a>
</g>
</g>
<!-- Node1&#45;&gt;Node24 -->
<g id="edge56" class="edge">
<title>Node1&#45;&gt;Node24</title>
<path fill="none" stroke="midnightblue" d="M804.77,-376.9C948.2,-371.12 1570.53,-341.47 1570.53,-262.5 1570.53,-262.5 1570.53,-262.5 1570.53,-193.5 1570.53,-155.13 1574.24,-110.33 1576.61,-85.67"/>
<polygon fill="midnightblue" stroke="midnightblue" points="1580.11,-85.87 1577.61,-75.58 1573.14,-85.18 1580.11,-85.87"/>
</g>
<!-- Node6 -->
<g id="node6" class="node">
<title>Node6</title>
<g id="a_node6"><a xlink:title=" ">
<polygon fill="none" stroke="#bfbfbf" points="699.53,-0.5 699.53,-19.5 749.53,-19.5 749.53,-0.5 699.53,-0.5"/>
<text text-anchor="middle" x="724.53" y="-7.5" font-family="Helvetica,sans-Serif" font-size="10.00">cstdint</text>
</a>
</g>
</g>
<!-- Node5&#45;&gt;Node6 -->
<g id="edge5" class="edge">
<title>Node5&#45;&gt;Node6</title>
<path fill="none" stroke="midnightblue" d="M894.36,-319.29C792.38,-314.16 577.05,-301.3 396.53,-277 237.83,-255.63 197.13,-251.71 42.53,-210 23.87,-204.97 1.53,-214.83 1.53,-195.5 1.53,-195.5 1.53,-195.5 1.53,-126.5 1.53,-94.05 -4.59,-76.55 20.53,-56 72.56,-13.43 553.16,-10.78 688.95,-10.89"/>
<polygon fill="midnightblue" stroke="midnightblue" points="689.2,-14.39 699.21,-10.9 689.21,-7.39 689.2,-14.39"/>
</g>
<!-- Node7 -->
<g id="node7" class="node">
<title>Node7</title>
<g id="a_node7"><a xlink:title=" ">
<polygon fill="none" stroke="#bfbfbf" points="1110.53,-0.5 1110.53,-19.5 1154.53,-19.5 1154.53,-0.5 1110.53,-0.5"/>
<text text-anchor="middle" x="1132.53" y="-7.5" font-family="Helvetica,sans-Serif" font-size="10.00">string</text>
</a>
</g>
</g>
<!-- Node5&#45;&gt;Node7 -->
<g id="edge6" class="edge">
<title>Node5&#45;&gt;Node7</title>
<path fill="none" stroke="midnightblue" d="M1012.6,-322.95C1093.87,-322.62 1243.81,-316.03 1364.53,-277 1421.91,-258.45 1452.19,-262.12 1482.53,-210 1557.52,-81.19 1264.76,-28.9 1164.85,-15.02"/>
<polygon fill="midnightblue" stroke="midnightblue" points="1165.1,-11.52 1154.73,-13.66 1164.17,-18.46 1165.1,-11.52"/>
</g>
<!-- Node8 -->
<g id="node8" class="node">
<title>Node8</title>
<g id="a_node8"><a xlink:title=" ">
<polygon fill="none" stroke="#bfbfbf" points="1351.53,-185 1351.53,-204 1473.53,-204 1473.53,-185 1351.53,-185"/>
<text text-anchor="middle" x="1412.53" y="-192" font-family="Helvetica,sans-Serif" font-size="10.00">BoosterSeat/time.hpp</text>
</a>
</g>
</g>
<!-- Node5&#45;&gt;Node8 -->
<g id="edge7" class="edge">
<title>Node5&#45;&gt;Node8</title>
<path fill="none" stroke="midnightblue" d="M1012.69,-319.68C1104.58,-315.29 1276.72,-303.71 1331.53,-277 1361.73,-262.28 1387.26,-231.65 1401.18,-212.42"/>
<polygon fill="midnightblue" stroke="midnightblue" points="1404.2,-214.21 1407.06,-204.01 1398.46,-210.2 1404.2,-214.21"/>
</g>
<!-- Node9 -->
<g id="node9" class="node">
<title>Node9</title>
<g id="a_node9"><a xlink:href="afsk_8hpp.html" target="_top" xlink:title="AFSK related modulation/demodulation.">
<polygon fill="none" stroke="black" points="405.53,-252 405.53,-271 523.53,-271 523.53,-252 405.53,-252"/>
<text text-anchor="middle" x="464.53" y="-259" font-family="Helvetica,sans-Serif" font-size="10.00">SignalEasel/afsk.hpp</text>
</a>
</g>
</g>
<!-- Node5&#45;&gt;Node9 -->
<g id="edge8" class="edge">
<title>Node5&#45;&gt;Node9</title>
<path fill="none" stroke="midnightblue" d="M894.06,-314.76C803.1,-303.7 629.87,-282.62 533.52,-270.89"/>
<polygon fill="midnightblue" stroke="midnightblue" points="533.94,-267.42 523.59,-269.69 533.09,-274.37 533.94,-267.42"/>
</g>
<!-- Node21 -->
<g id="node21" class="node">
<title>Node21</title>
<g id="a_node21"><a xlink:href="packets_8hpp.html" target="_top" xlink:title=" ">
<polygon fill="none" stroke="black" points="1164.53,-252 1164.53,-271 1322.53,-271 1322.53,-252 1164.53,-252"/>
<text text-anchor="middle" x="1243.53" y="-259" font-family="Helvetica,sans-Serif" font-size="10.00">SignalEasel/aprs/packets.hpp</text>
</a>
</g>
</g>
<!-- Node5&#45;&gt;Node21 -->
<g id="edge33" class="edge">
<title>Node5&#45;&gt;Node21</title>
<path fill="none" stroke="midnightblue" d="M995.08,-313.48C1046.98,-302.83 1135.77,-284.61 1191.96,-273.08"/>
<polygon fill="midnightblue" stroke="midnightblue" points="1192.96,-276.45 1202.06,-271.01 1191.56,-269.59 1192.96,-276.45"/>
</g>
<!-- Node26 -->
<g id="node26" class="node">
<title>Node26</title>
<g id="a_node26"><a xlink:href="telemetry__transcoder_8hpp.html" target="_top" xlink:title=" ">
<polygon fill="none" stroke="black" points="956.53,-246.5 956.53,-276.5 1104.53,-276.5 1104.53,-246.5 956.53,-246.5"/>
<text text-anchor="start" x="964.53" y="-264.5" font-family="Helvetica,sans-Serif" font-size="10.00">SignalEasel/aprs/telemetry</text>
<text text-anchor="middle" x="1030.53" y="-253.5" font-family="Helvetica,sans-Serif" font-size="10.00">_transcoder.hpp</text>
</a>
</g>
</g>
<!-- Node5&#45;&gt;Node26 -->
<g id="edge46" class="edge">
<title>Node5&#45;&gt;Node26</title>
<path fill="none" stroke="midnightblue" d="M964.56,-313.48C974.89,-305.49 990.73,-293.25 1004.3,-282.77"/>
<polygon fill="midnightblue" stroke="midnightblue" points="1006.61,-285.41 1012.38,-276.52 1002.33,-279.87 1006.61,-285.41"/>
</g>
<!-- Node27 -->
<g id="node27" class="node">
<title>Node27</title>
<g id="a_node27"><a xlink:href="ax25_8hpp.html" target="_top" xlink:title="AX.25 tools.">
<polygon fill="none" stroke="black" points="817.03,-252 817.03,-271 938.03,-271 938.03,-252 817.03,-252"/>
<text text-anchor="middle" x="877.53" y="-259" font-family="Helvetica,sans-Serif" font-size="10.00">SignalEasel/ax25.hpp</text>
</a>
</g>
</g>
<!-- Node5&#45;&gt;Node27 -->
<g id="edge49" class="edge">
<title>Node5&#45;&gt;Node27</title>
<path fill="none" stroke="midnightblue" d="M942.64,-313.48C930.56,-304.02 910.86,-288.6 896.29,-277.19"/>
<polygon fill="midnightblue" stroke="midnightblue" points="898.43,-274.42 888.4,-271.01 894.11,-279.93 898.43,-274.42"/>
</g>
<!-- Node9&#45;&gt;Node4 -->
<g id="edge9" class="edge">
<title>Node9&#45;&gt;Node4</title>
<path fill="none" stroke="midnightblue" d="M481.61,-251.85C499.74,-242.41 528.98,-226.43 552.53,-210 570.12,-197.72 570.51,-188.92 589.53,-179 616.21,-165.09 696.98,-145.95 743.17,-135.69"/>
<polygon fill="midnightblue" stroke="midnightblue" points="744,-139.09 753.02,-133.52 742.5,-132.25 744,-139.09"/>
</g>
<!-- Node10 -->
<g id="node10" class="node">
<title>Node10</title>
<g id="a_node10"><a xlink:href="constants_8hpp.html" target="_top" xlink:title="Common constants used throughout the library.">
<polygon fill="none" stroke="black" points="29.53,-56.5 29.53,-75.5 173.53,-75.5 173.53,-56.5 29.53,-56.5"/>
<text text-anchor="middle" x="101.53" y="-63.5" font-family="Helvetica,sans-Serif" font-size="10.00">SignalEasel/constants.hpp</text>
</a>
</g>
</g>
<!-- Node9&#45;&gt;Node10 -->
<g id="edge10" class="edge">
<title>Node9&#45;&gt;Node10</title>
<path fill="none" stroke="midnightblue" d="M405.32,-257.4C298.19,-251.18 81.1,-235.55 58.53,-210 26.02,-173.2 65.16,-112.57 87.71,-83.52"/>
<polygon fill="midnightblue" stroke="midnightblue" points="90.56,-85.57 94.09,-75.58 85.1,-81.19 90.56,-85.57"/>
</g>
<!-- Node11 -->
<g id="node11" class="node">
<title>Node11</title>
<g id="a_node11"><a xlink:href="bit__stream_8hpp.html" target="_top" xlink:title="The bit stream class.">
<polygon fill="none" stroke="black" points="599.03,-185 599.03,-204 748.03,-204 748.03,-185 599.03,-185"/>
<text text-anchor="middle" x="673.53" y="-192" font-family="Helvetica,sans-Serif" font-size="10.00">SignalEasel/bit_stream.hpp</text>
</a>
</g>
</g>
<!-- Node9&#45;&gt;Node11 -->
<g id="edge12" class="edge">
<title>Node9&#45;&gt;Node11</title>
<path fill="none" stroke="midnightblue" d="M492.28,-251.87C529.31,-240.35 595,-219.92 636.3,-207.08"/>
<polygon fill="midnightblue" stroke="midnightblue" points="637.48,-210.38 645.99,-204.06 635.41,-203.69 637.48,-210.38"/>
</g>
<!-- Node12 -->
<g id="node12" class="node">
<title>Node12</title>
<g id="a_node12"><a xlink:href="demodulator_8hpp.html" target="_top" xlink:title="Base class for demodulators.">
<polygon fill="none" stroke="black" points="385.53,-185 385.53,-204 543.53,-204 543.53,-185 385.53,-185"/>
<text text-anchor="middle" x="464.53" y="-192" font-family="Helvetica,sans-Serif" font-size="10.00">SignalEasel/demodulator.hpp</text>
</a>
</g>
</g>
<!-- Node9&#45;&gt;Node12 -->
<g id="edge15" class="edge">
<title>Node9&#45;&gt;Node12</title>
<path fill="none" stroke="midnightblue" d="M464.53,-251.73C464.53,-242.18 464.53,-226.62 464.53,-214.28"/>
<polygon fill="midnightblue" stroke="midnightblue" points="468.03,-214.13 464.53,-204.13 461.03,-214.13 468.03,-214.13"/>
</g>
<!-- Node14 -->
<g id="node14" class="node">
<title>Node14</title>
<g id="a_node14"><a xlink:href="modulator_8hpp.html" target="_top" xlink:title="Modulator base class.">
<polygon fill="none" stroke="black" points="221.53,-185 221.53,-204 367.53,-204 367.53,-185 221.53,-185"/>
<text text-anchor="middle" x="294.53" y="-192" font-family="Helvetica,sans-Serif" font-size="10.00">SignalEasel/modulator.hpp</text>
</a>
</g>
</g>
<!-- Node9&#45;&gt;Node14 -->
<g id="edge20" class="edge">
<title>Node9&#45;&gt;Node14</title>
<path fill="none" stroke="midnightblue" d="M441.95,-251.87C412.28,-240.52 359.98,-220.52 326.31,-207.65"/>
<polygon fill="midnightblue" stroke="midnightblue" points="327.52,-204.37 316.93,-204.06 325.02,-210.9 327.52,-204.37"/>
</g>
<!-- Node15 -->
<g id="node15" class="node">
<title>Node15</title>
<g id="a_node15"><a xlink:href="receiver_8hpp.html" target="_top" xlink:title="Base class for receivers. Demodulators that use pulse audio.">
<polygon fill="none" stroke="black" points="67.53,-185 67.53,-204 203.53,-204 203.53,-185 67.53,-185"/>
<text text-anchor="middle" x="135.53" y="-192" font-family="Helvetica,sans-Serif" font-size="10.00">SignalEasel/receiver.hpp</text>
</a>
</g>
</g>
<!-- Node9&#45;&gt;Node15 -->
<g id="edge24" class="edge">
<title>Node9&#45;&gt;Node15</title>
<path fill="none" stroke="midnightblue" d="M421.18,-251.94C361.31,-240.11 253.38,-218.78 188.71,-206.01"/>
<polygon fill="midnightblue" stroke="midnightblue" points="189.2,-202.54 178.71,-204.03 187.84,-209.4 189.2,-202.54"/>
</g>
<!-- Node10&#45;&gt;Node6 -->
<g id="edge11" class="edge">
<title>Node10&#45;&gt;Node6</title>
<path fill="none" stroke="midnightblue" d="M173.94,-56.85C176.84,-56.56 179.71,-56.27 182.53,-56 373.56,-37.46 602.95,-19.99 689.33,-13.58"/>
<polygon fill="midnightblue" stroke="midnightblue" points="689.67,-17.07 699.38,-12.84 689.15,-10.09 689.67,-17.07"/>
</g>
<!-- Node11&#45;&gt;Node4 -->
<g id="edge14" class="edge">
<title>Node11&#45;&gt;Node4</title>
<path fill="none" stroke="midnightblue" d="M687.42,-184.73C704.56,-173.92 733.93,-155.38 754.24,-142.57"/>
<polygon fill="midnightblue" stroke="midnightblue" points="756.27,-145.42 762.86,-137.13 752.53,-139.5 756.27,-145.42"/>
</g>
<!-- Node11&#45;&gt;Node6 -->
<g id="edge13" class="edge">
<title>Node11&#45;&gt;Node6</title>
<path fill="none" stroke="midnightblue" d="M675.99,-184.7C683.85,-156.57 708.47,-68.46 719.32,-29.66"/>
<polygon fill="midnightblue" stroke="midnightblue" points="722.77,-30.29 722.09,-19.71 716.03,-28.4 722.77,-30.29"/>
</g>
<!-- Node12&#45;&gt;Node4 -->
<g id="edge17" class="edge">
<title>Node12&#45;&gt;Node4</title>
<path fill="none" stroke="midnightblue" d="M505.64,-184.94C567.95,-171.95 685.13,-147.54 742.77,-135.53"/>
<polygon fill="midnightblue" stroke="midnightblue" points="743.74,-138.91 752.81,-133.44 742.31,-132.05 743.74,-138.91"/>
</g>
<!-- Node12&#45;&gt;Node7 -->
<g id="edge16" class="edge">
<title>Node12&#45;&gt;Node7</title>
<path fill="none" stroke="midnightblue" d="M487.36,-184.97C559.85,-157.98 784.41,-75.12 859.53,-56 945.15,-34.21 1048.65,-20.5 1100.15,-14.51"/>
<polygon fill="midnightblue" stroke="midnightblue" points="1100.79,-17.96 1110.32,-13.35 1099.99,-11.01 1100.79,-17.96"/>
</g>
<!-- Node13 -->
<g id="node13" class="node">
<title>Node13</title>
<g id="a_node13"><a xlink:href="settings_8hpp.html" target="_top" xlink:title="Settings structures for SignalEasel.">
<polygon fill="none" stroke="black" points="431.53,-118 431.53,-137 567.53,-137 567.53,-118 431.53,-118"/>
<text text-anchor="middle" x="499.53" y="-125" font-family="Helvetica,sans-Serif" font-size="10.00">SignalEasel/settings.hpp</text>
</a>
</g>
</g>
<!-- Node12&#45;&gt;Node13 -->
<g id="edge18" class="edge">
<title>Node12&#45;&gt;Node13</title>
<path fill="none" stroke="midnightblue" d="M469.25,-184.73C474.55,-174.89 483.29,-158.66 490.02,-146.16"/>
<polygon fill="midnightblue" stroke="midnightblue" points="493.22,-147.59 494.88,-137.13 487.06,-144.27 493.22,-147.59"/>
</g>
<!-- Node13&#45;&gt;Node7 -->
<g id="edge19" class="edge">
<title>Node13&#45;&gt;Node7</title>
<path fill="none" stroke="midnightblue" d="M535.07,-117.99C594.81,-103.87 719.27,-75.26 825.53,-56 925.37,-37.91 1044.49,-22.08 1100.47,-14.98"/>
<polygon fill="midnightblue" stroke="midnightblue" points="1101,-18.44 1110.48,-13.71 1100.12,-11.49 1101,-18.44"/>
</g>
<!-- Node14&#45;&gt;Node4 -->
<g id="edge22" class="edge">
<title>Node14&#45;&gt;Node4</title>
<path fill="none" stroke="midnightblue" d="M340.43,-184.97C352.18,-182.9 364.81,-180.78 376.53,-179 511.86,-158.51 673.82,-139.86 742.78,-132.19"/>
<polygon fill="midnightblue" stroke="midnightblue" points="743.47,-135.63 753.03,-131.06 742.7,-128.68 743.47,-135.63"/>
</g>
<!-- Node14&#45;&gt;Node6 -->
<g id="edge21" class="edge">
<title>Node14&#45;&gt;Node6</title>
<path fill="none" stroke="midnightblue" d="M305.97,-184.85C327.7,-168.73 376.87,-133.77 422.53,-112 515.08,-67.88 632.03,-34.68 689.46,-19.73"/>
<polygon fill="midnightblue" stroke="midnightblue" points="690.65,-23.04 699.47,-17.15 688.91,-16.26 690.65,-23.04"/>
</g>
<!-- Node14&#45;&gt;Node13 -->
<g id="edge23" class="edge">
<title>Node14&#45;&gt;Node13</title>
<path fill="none" stroke="midnightblue" d="M321.75,-184.87C358,-173.38 422.23,-153.01 462.76,-140.16"/>
<polygon fill="midnightblue" stroke="midnightblue" points="464.05,-143.42 472.52,-137.06 461.93,-136.75 464.05,-143.42"/>
</g>
<!-- Node15&#45;&gt;Node13 -->
<g id="edge32" class="edge">
<title>Node15&#45;&gt;Node13</title>
<path fill="none" stroke="midnightblue" d="M180.3,-184.98C190.86,-182.99 202.09,-180.9 212.53,-179 291.06,-164.7 381.81,-148.84 439.88,-138.78"/>
<polygon fill="midnightblue" stroke="midnightblue" points="440.72,-142.19 449.98,-137.03 439.53,-135.29 440.72,-142.19"/>
</g>
<!-- Node16 -->
<g id="node16" class="node">
<title>Node16</title>
<g id="a_node16"><a xlink:title=" ">
<polygon fill="none" stroke="#bfbfbf" points="106.53,-118 106.53,-137 164.53,-137 164.53,-118 106.53,-118"/>
<text text-anchor="middle" x="135.53" y="-125" font-family="Helvetica,sans-Serif" font-size="10.00">memory</text>
</a>
</g>
</g>
<!-- Node15&#45;&gt;Node16 -->
<g id="edge25" class="edge">
<title>Node15&#45;&gt;Node16</title>
<path fill="none" stroke="midnightblue" d="M135.53,-184.73C135.53,-175.18 135.53,-159.62 135.53,-147.28"/>
<polygon fill="midnightblue" stroke="midnightblue" points="139.03,-147.13 135.53,-137.13 132.03,-147.13 139.03,-147.13"/>
</g>
<!-- Node17 -->
<g id="node17" class="node">
<title>Node17</title>
<g id="a_node17"><a xlink:href="pulse__audio_8hpp.html" target="_top" xlink:title="Reads audio from pulse audio.">
<polygon fill="none" stroke="black" points="202.03,-118 202.03,-137 357.03,-137 357.03,-118 202.03,-118"/>
<text text-anchor="middle" x="279.53" y="-125" font-family="Helvetica,sans-Serif" font-size="10.00">SignalEasel/pulse_audio.hpp</text>
</a>
</g>
</g>
<!-- Node15&#45;&gt;Node17 -->
<g id="edge26" class="edge">
<title>Node15&#45;&gt;Node17</title>
<path fill="none" stroke="midnightblue" d="M154.65,-184.87C179.29,-173.75 222.34,-154.32 250.89,-141.43"/>
<polygon fill="midnightblue" stroke="midnightblue" points="252.65,-144.47 260.33,-137.17 249.77,-138.09 252.65,-144.47"/>
</g>
<!-- Node17&#45;&gt;Node7 -->
<g id="edge28" class="edge">
<title>Node17&#45;&gt;Node7</title>
<path fill="none" stroke="midnightblue" d="M328.36,-117.96C410.01,-103.86 579.46,-75.35 723.53,-56 863.31,-37.22 1030.76,-20.64 1100.06,-14.04"/>
<polygon fill="midnightblue" stroke="midnightblue" points="1100.69,-17.5 1110.32,-13.07 1100.03,-10.53 1100.69,-17.5"/>
</g>
<!-- Node17&#45;&gt;Node10 -->
<g id="edge29" class="edge">
<title>Node17&#45;&gt;Node10</title>
<path fill="none" stroke="midnightblue" d="M254.03,-117.98C223.23,-107.68 171.26,-90.31 136.68,-78.75"/>
<polygon fill="midnightblue" stroke="midnightblue" points="137.58,-75.36 126.98,-75.51 135.36,-82 137.58,-75.36"/>
</g>
<!-- Node18 -->
<g id="node18" class="node">
<title>Node18</title>
<g id="a_node18"><a xlink:title=" ">
<polygon fill="none" stroke="#bfbfbf" points="868.53,-56.5 868.53,-75.5 910.53,-75.5 910.53,-56.5 868.53,-56.5"/>
<text text-anchor="middle" x="889.53" y="-63.5" font-family="Helvetica,sans-Serif" font-size="10.00">array</text>
</a>
</g>
</g>
<!-- Node17&#45;&gt;Node18 -->
<g id="edge27" class="edge">
<title>Node17&#45;&gt;Node18</title>
<path fill="none" stroke="midnightblue" d="M357.08,-118.57C378.3,-116.41 401.3,-114.1 422.53,-112 586.31,-95.81 782.49,-77.14 857.88,-69.99"/>
<polygon fill="midnightblue" stroke="midnightblue" points="858.49,-73.45 868.11,-69.03 857.83,-66.48 858.49,-73.45"/>
</g>
<!-- Node19 -->
<g id="node19" class="node">
<title>Node19</title>
<g id="a_node19"><a xlink:title=" ">
<polygon fill="none" stroke="#bfbfbf" points="298.03,-56.5 298.03,-75.5 375.03,-75.5 375.03,-56.5 298.03,-56.5"/>
<text text-anchor="middle" x="336.53" y="-63.5" font-family="Helvetica,sans-Serif" font-size="10.00">pulse/error.h</text>
</a>
</g>
</g>
<!-- Node17&#45;&gt;Node19 -->
<g id="edge30" class="edge">
<title>Node17&#45;&gt;Node19</title>
<path fill="none" stroke="midnightblue" d="M287.7,-117.98C296.42,-108.87 310.43,-94.24 321.22,-82.98"/>
<polygon fill="midnightblue" stroke="midnightblue" points="323.99,-85.15 328.38,-75.51 318.93,-80.31 323.99,-85.15"/>
</g>
<!-- Node20 -->
<g id="node20" class="node">
<title>Node20</title>
<g id="a_node20"><a xlink:title=" ">
<polygon fill="none" stroke="#bfbfbf" points="191.53,-56.5 191.53,-75.5 279.53,-75.5 279.53,-56.5 191.53,-56.5"/>
<text text-anchor="middle" x="235.53" y="-63.5" font-family="Helvetica,sans-Serif" font-size="10.00">pulse/simple.h</text>
</a>
</g>
</g>
<!-- Node17&#45;&gt;Node20 -->
<g id="edge31" class="edge">
<title>Node17&#45;&gt;Node20</title>
<path fill="none" stroke="midnightblue" d="M273.23,-117.98C266.63,-109.05 256.09,-94.81 247.84,-83.64"/>
<polygon fill="midnightblue" stroke="midnightblue" points="250.58,-81.47 241.82,-75.51 244.95,-85.63 250.58,-81.47"/>
</g>
<!-- Node21&#45;&gt;Node4 -->
<g id="edge36" class="edge">
<title>Node21&#45;&gt;Node4</title>
<path fill="none" stroke="midnightblue" d="M1219.23,-251.94C1190.77,-241.92 1142.22,-224.79 1100.53,-210 1061.84,-196.28 1053.02,-190.19 1013.53,-179 942.18,-158.78 856.72,-142.46 810.41,-134.26"/>
<polygon fill="midnightblue" stroke="midnightblue" points="810.78,-130.77 800.33,-132.49 809.58,-137.67 810.78,-130.77"/>
</g>
<!-- Node21&#45;&gt;Node6 -->
<g id="edge34" class="edge">
<title>Node21&#45;&gt;Node6</title>
<path fill="none" stroke="midnightblue" d="M1250.32,-251.98C1262.11,-236.09 1283.57,-201.5 1266.53,-179 1230.84,-131.89 1194.51,-161.93 1138.53,-143 1039.32,-109.44 1019.51,-87.2 919.53,-56 864.57,-38.85 799.07,-25.05 759.69,-17.45"/>
<polygon fill="midnightblue" stroke="midnightblue" points="760.26,-13.99 749.79,-15.56 758.95,-20.87 760.26,-13.99"/>
</g>
<!-- Node21&#45;&gt;Node7 -->
<g id="edge35" class="edge">
<title>Node21&#45;&gt;Node7</title>
<path fill="none" stroke="midnightblue" d="M1258.12,-251.96C1271.47,-243.27 1290.48,-228.46 1299.53,-210 1318.72,-170.84 1326.2,-149.85 1304.53,-112 1274.47,-59.5 1205.34,-31.62 1164.46,-19.2"/>
<polygon fill="midnightblue" stroke="midnightblue" points="1165.3,-15.8 1154.72,-16.38 1163.35,-22.53 1165.3,-15.8"/>
</g>
<!-- Node21&#45;&gt;Node8 -->
<g id="edge37" class="edge">
<title>Node21&#45;&gt;Node8</title>
<path fill="none" stroke="midnightblue" d="M1265.97,-251.87C1295.35,-240.57 1347.02,-220.7 1380.5,-207.82"/>
<polygon fill="midnightblue" stroke="midnightblue" points="1382.19,-210.92 1390.26,-204.06 1379.67,-204.39 1382.19,-210.92"/>
</g>
<!-- Node22 -->
<g id="node22" class="node">
<title>Node22</title>
<g id="a_node22"><a xlink:href="telemetry__data_8hpp.html" target="_top" xlink:title=" ">
<polygon fill="none" stroke="black" points="1109.53,-179.5 1109.53,-209.5 1257.53,-209.5 1257.53,-179.5 1109.53,-179.5"/>
<text text-anchor="start" x="1117.53" y="-197.5" font-family="Helvetica,sans-Serif" font-size="10.00">SignalEasel/aprs/telemetry</text>
<text text-anchor="middle" x="1183.53" y="-186.5" font-family="Helvetica,sans-Serif" font-size="10.00">_data.hpp</text>
</a>
</g>
</g>
<!-- Node21&#45;&gt;Node22 -->
<g id="edge38" class="edge">
<title>Node21&#45;&gt;Node22</title>
<path fill="none" stroke="midnightblue" d="M1235.44,-251.73C1227.25,-242.86 1214.28,-228.81 1203.35,-216.97"/>
<polygon fill="midnightblue" stroke="midnightblue" points="1205.89,-214.56 1196.53,-209.59 1200.75,-219.31 1205.89,-214.56"/>
</g>
<!-- Node22&#45;&gt;Node18 -->
<g id="edge39" class="edge">
<title>Node22&#45;&gt;Node18</title>
<path fill="none" stroke="midnightblue" d="M1150.94,-179.48C1093.26,-154.66 974.06,-103.37 918.82,-79.6"/>
<polygon fill="midnightblue" stroke="midnightblue" points="920.16,-76.37 909.59,-75.63 917.39,-82.8 920.16,-76.37"/>
</g>
<!-- Node23 -->
<g id="node23" class="node">
<title>Node23</title>
<g id="a_node23"><a xlink:href="telemetry__parameter_8hpp.html" target="_top" xlink:title=" ">
<polygon fill="none" stroke="black" points="1147.53,-112.5 1147.53,-142.5 1295.53,-142.5 1295.53,-112.5 1147.53,-112.5"/>
<text text-anchor="start" x="1155.53" y="-130.5" font-family="Helvetica,sans-Serif" font-size="10.00">SignalEasel/aprs/telemetry</text>
<text text-anchor="middle" x="1221.53" y="-119.5" font-family="Helvetica,sans-Serif" font-size="10.00">_parameter.hpp</text>
</a>
</g>
</g>
<!-- Node22&#45;&gt;Node23 -->
<g id="edge40" class="edge">
<title>Node22&#45;&gt;Node23</title>
<path fill="none" stroke="midnightblue" d="M1191.77,-179.4C1196.56,-171.22 1202.69,-160.73 1208.15,-151.39"/>
<polygon fill="midnightblue" stroke="midnightblue" points="1211.27,-152.98 1213.3,-142.58 1205.23,-149.44 1211.27,-152.98"/>
</g>
<!-- Node23&#45;&gt;Node6 -->
<g id="edge41" class="edge">
<title>Node23&#45;&gt;Node6</title>
<path fill="none" stroke="midnightblue" d="M1186.91,-112.47C1146.61,-96.63 1077.73,-71.11 1016.53,-56 925.3,-33.48 815.11,-20.14 759.81,-14.38"/>
<polygon fill="midnightblue" stroke="midnightblue" points="760.13,-10.9 749.83,-13.36 759.42,-17.86 760.13,-10.9"/>
</g>
<!-- Node23&#45;&gt;Node7 -->
<g id="edge42" class="edge">
<title>Node23&#45;&gt;Node7</title>
<path fill="none" stroke="midnightblue" d="M1210.62,-112.34C1194.14,-90.96 1162.99,-50.53 1145.42,-27.73"/>
<polygon fill="midnightblue" stroke="midnightblue" points="1148.09,-25.45 1139.21,-19.67 1142.54,-29.73 1148.09,-25.45"/>
</g>
<!-- Node23&#45;&gt;Node24 -->
<g id="edge43" class="edge">
<title>Node23&#45;&gt;Node24</title>
<path fill="none" stroke="midnightblue" d="M1295.93,-114.1C1361.55,-103.16 1456.03,-87.42 1517.35,-77.2"/>
<polygon fill="midnightblue" stroke="midnightblue" points="1517.98,-80.64 1527.27,-75.54 1516.83,-73.74 1517.98,-80.64"/>
</g>
<!-- Node24&#45;&gt;Node7 -->
<g id="edge45" class="edge">
<title>Node24&#45;&gt;Node7</title>
<path fill="none" stroke="midnightblue" d="M1507.86,-56.44C1409.73,-44.56 1236.23,-23.56 1164.72,-14.9"/>
<polygon fill="midnightblue" stroke="midnightblue" points="1164.89,-11.39 1154.54,-13.66 1164.04,-18.34 1164.89,-11.39"/>
</g>
<!-- Node25 -->
<g id="node25" class="node">
<title>Node25</title>
<g id="a_node25"><a xlink:title=" ">
<polygon fill="none" stroke="#bfbfbf" points="1546.03,-0.5 1546.03,-19.5 1611.03,-19.5 1611.03,-0.5 1546.03,-0.5"/>
<text text-anchor="middle" x="1578.53" y="-7.5" font-family="Helvetica,sans-Serif" font-size="10.00">exception</text>
</a>
</g>
</g>
<!-- Node24&#45;&gt;Node25 -->
<g id="edge44" class="edge">
<title>Node24&#45;&gt;Node25</title>
<path fill="none" stroke="midnightblue" d="M1578.53,-56.08C1578.53,-49.01 1578.53,-38.86 1578.53,-29.99"/>
<polygon fill="midnightblue" stroke="midnightblue" points="1582.03,-29.75 1578.53,-19.75 1575.03,-29.75 1582.03,-29.75"/>
</g>
<!-- Node26&#45;&gt;Node4 -->
<g id="edge47" class="edge">
<title>Node26&#45;&gt;Node4</title>
<path fill="none" stroke="midnightblue" d="M1026.8,-246.34C1021.2,-227.94 1008.83,-196.16 986.53,-179 934.39,-138.88 855.09,-130.03 810.34,-128.44"/>
<polygon fill="midnightblue" stroke="midnightblue" points="810.36,-124.94 800.28,-128.18 810.19,-131.93 810.36,-124.94"/>
</g>
<!-- Node26&#45;&gt;Node22 -->
<g id="edge48" class="edge">
<title>Node26&#45;&gt;Node22</title>
<path fill="none" stroke="midnightblue" d="M1063.73,-246.4C1086.38,-236.77 1116.59,-223.94 1141.01,-213.56"/>
<polygon fill="midnightblue" stroke="midnightblue" points="1142.56,-216.71 1150.4,-209.58 1139.82,-210.27 1142.56,-216.71"/>
</g>
<!-- Node27&#45;&gt;Node4 -->
<g id="edge54" class="edge">
<title>Node27&#45;&gt;Node4</title>
<path fill="none" stroke="midnightblue" d="M870.66,-251.98C862.64,-241.98 848.99,-224.89 837.53,-210 820.42,-187.79 801.1,-161.81 788.87,-145.26"/>
<polygon fill="midnightblue" stroke="midnightblue" points="791.62,-143.09 782.86,-137.12 785.98,-147.25 791.62,-143.09"/>
</g>
<!-- Node27&#45;&gt;Node6 -->
<g id="edge50" class="edge">
<title>Node27&#45;&gt;Node6</title>
<path fill="none" stroke="midnightblue" d="M874.37,-251.73C865.69,-228.13 840.01,-161.72 808.53,-112 787.93,-79.46 757.95,-45.9 739.94,-26.82"/>
<polygon fill="midnightblue" stroke="midnightblue" points="742.45,-24.39 733.01,-19.58 737.39,-29.23 742.45,-24.39"/>
</g>
<!-- Node27&#45;&gt;Node7 -->
<g id="edge53" class="edge">
<title>Node27&#45;&gt;Node7</title>
<path fill="none" stroke="midnightblue" d="M905.66,-251.89C929.06,-243.75 962.32,-229.81 986.53,-210 1052,-156.42 1103.33,-67.12 1123.38,-29.07"/>
<polygon fill="midnightblue" stroke="midnightblue" points="1126.71,-30.25 1128.2,-19.76 1120.49,-27.04 1126.71,-30.25"/>
</g>
<!-- Node27&#45;&gt;Node11 -->
<g id="edge55" class="edge">
<title>Node27&#45;&gt;Node11</title>
<path fill="none" stroke="midnightblue" d="M850.44,-251.87C814.37,-240.38 750.45,-220.01 710.12,-207.16"/>
<polygon fill="midnightblue" stroke="midnightblue" points="711,-203.76 700.41,-204.06 708.87,-210.43 711,-203.76"/>
</g>
<!-- Node27&#45;&gt;Node18 -->
<g id="edge51" class="edge">
<title>Node27&#45;&gt;Node18</title>
<path fill="none" stroke="midnightblue" d="M878.06,-251.94C879.87,-222.79 885.81,-126.97 888.36,-85.93"/>
<polygon fill="midnightblue" stroke="midnightblue" points="891.85,-86.1 888.98,-75.91 884.86,-85.67 891.85,-86.1"/>
</g>
<!-- Node28 -->
<g id="node28" class="node">
<title>Node28</title>
<g id="a_node28"><a xlink:title=" ">
<polygon fill="none" stroke="#bfbfbf" points="917.53,-185 917.53,-204 977.53,-204 977.53,-185 917.53,-185"/>
<text text-anchor="middle" x="947.53" y="-192" font-family="Helvetica,sans-Serif" font-size="10.00">iostream</text>
</a>
</g>
</g>
<!-- Node27&#45;&gt;Node28 -->
<g id="edge52" class="edge">
<title>Node27&#45;&gt;Node28</title>
<path fill="none" stroke="midnightblue" d="M886.97,-251.73C898.2,-241.31 917.15,-223.71 930.87,-210.97"/>
<polygon fill="midnightblue" stroke="midnightblue" points="933.29,-213.5 938.24,-204.13 928.53,-208.37 933.29,-213.5"/>
</g>
</g>
</svg>
