<?xml version="1.0" encoding="UTF-8" standalone="no"?>
<!DOCTYPE svg PUBLIC "-//W3C//DTD SVG 1.1//EN"
 "http://www.w3.org/Graphics/SVG/1.1/DTD/svg11.dtd">
<!-- Generated by graphviz version 2.43.0 (0)
 -->
<!-- Title: aprs_receiver.cpp Pages: 1 -->
<svg width="1600pt" height="397pt"
 viewBox="0.00 0.00 1599.50 397.00" xmlns="http://www.w3.org/2000/svg" xmlns:xlink="http://www.w3.org/1999/xlink">
<g id="graph0" class="graph" transform="scale(1 1) rotate(0) translate(4 393)">
<title>aprs_receiver.cpp</title>
<!-- Node1 -->
<g id="node1" class="node">
<title>Node1</title>
<g id="a_node1"><a xlink:title="Implementation of the APRS receiver class.">
<polygon fill="#bfbfbf" stroke="black" points="1264,-369.5 1264,-388.5 1366,-388.5 1366,-369.5 1264,-369.5"/>
<text text-anchor="middle" x="1315" y="-376.5" font-family="Helvetica,sans-Serif" font-size="10.00">aprs_receiver.cpp</text>
</a>
</g>
</g>
<!-- Node2 -->
<g id="node2" class="node">
<title>Node2</title>
<g id="a_node2"><a xlink:href="aprs_8hpp.html" target="_top" xlink:title=" ">
<polygon fill="none" stroke="black" points="986,-313.5 986,-332.5 1104,-332.5 1104,-313.5 986,-313.5"/>
<text text-anchor="middle" x="1045" y="-320.5" font-family="Helvetica,sans-Serif" font-size="10.00">SignalEasel/aprs.hpp</text>
</a>
</g>
</g>
<!-- Node1&#45;&gt;Node2 -->
<g id="edge1" class="edge">
<title>Node1&#45;&gt;Node2</title>
<path fill="none" stroke="midnightblue" d="M1272.22,-369.44C1224.82,-359.96 1148.37,-344.67 1097.42,-334.48"/>
<polygon fill="midnightblue" stroke="midnightblue" points="1098.07,-331.05 1087.58,-332.52 1096.7,-337.91 1098.07,-331.05"/>
</g>
<!-- Node22 -->
<g id="node22" class="node">
<title>Node22</title>
<g id="a_node22"><a xlink:href="exception_8hpp.html" target="_top" xlink:title="SignalEasel exceptions.">
<polygon fill="none" stroke="black" points="1446.5,-56.5 1446.5,-75.5 1591.5,-75.5 1591.5,-56.5 1446.5,-56.5"/>
<text text-anchor="middle" x="1519" y="-63.5" font-family="Helvetica,sans-Serif" font-size="10.00">SignalEasel/exception.hpp</text>
</a>
</g>
</g>
<!-- Node1&#45;&gt;Node22 -->
<g id="edge53" class="edge">
<title>Node1&#45;&gt;Node22</title>
<path fill="none" stroke="midnightblue" d="M1363.61,-369.45C1418.42,-356.68 1500,-326.87 1500,-262.5 1500,-262.5 1500,-262.5 1500,-193.5 1500,-154.77 1508.82,-110.11 1514.44,-85.57"/>
<polygon fill="midnightblue" stroke="midnightblue" points="1517.92,-86.06 1516.82,-75.52 1511.11,-84.44 1517.92,-86.06"/>
</g>
<!-- Node26 -->
<g id="node26" class="node">
<title>Node26</title>
<g id="a_node26"><a xlink:title=" ">
<polygon fill="none" stroke="#bfbfbf" points="992,-185 992,-204 1052,-204 1052,-185 992,-185"/>
<text text-anchor="middle" x="1022" y="-192" font-family="Helvetica,sans-Serif" font-size="10.00">iostream</text>
</a>
</g>
</g>
<!-- Node1&#45;&gt;Node26 -->
<g id="edge55" class="edge">
<title>Node1&#45;&gt;Node26</title>
<path fill="none" stroke="midnightblue" d="M1303.68,-369.39C1274.58,-347.43 1194.42,-288.13 1123,-246 1099.09,-231.9 1070.74,-217.95 1050.17,-208.3"/>
<polygon fill="midnightblue" stroke="midnightblue" points="1051.57,-205.09 1041.03,-204.05 1048.62,-211.44 1051.57,-205.09"/>
</g>
<!-- Node27 -->
<g id="node27" class="node">
<title>Node27</title>
<g id="a_node27"><a xlink:title=" ">
<polygon fill="none" stroke="#bfbfbf" points="1528,-313.5 1528,-332.5 1584,-332.5 1584,-313.5 1528,-313.5"/>
<text text-anchor="middle" x="1556" y="-320.5" font-family="Helvetica,sans-Serif" font-size="10.00">iomanip</text>
</a>
</g>
</g>
<!-- Node1&#45;&gt;Node27 -->
<g id="edge54" class="edge">
<title>Node1&#45;&gt;Node27</title>
<path fill="none" stroke="midnightblue" d="M1353.19,-369.44C1398.25,-359.35 1472.75,-342.65 1517.81,-332.56"/>
<polygon fill="midnightblue" stroke="midnightblue" points="1518.79,-335.92 1527.78,-330.32 1517.26,-329.09 1518.79,-335.92"/>
</g>
<!-- Node3 -->
<g id="node3" class="node">
<title>Node3</title>
<g id="a_node3"><a xlink:title=" ">
<polygon fill="none" stroke="#bfbfbf" points="609,-0.5 609,-19.5 659,-19.5 659,-0.5 609,-0.5"/>
<text text-anchor="middle" x="634" y="-7.5" font-family="Helvetica,sans-Serif" font-size="10.00">cstdint</text>
</a>
</g>
</g>
<!-- Node2&#45;&gt;Node3 -->
<g id="edge2" class="edge">
<title>Node2&#45;&gt;Node3</title>
<path fill="none" stroke="midnightblue" d="M985.82,-321.11C764.76,-317 0,-295.55 0,-195.5 0,-195.5 0,-195.5 0,-126.5 0,-58.02 71.24,-75.11 137,-56 223.99,-30.72 500.53,-16.71 598.87,-12.43"/>
<polygon fill="midnightblue" stroke="midnightblue" points="599.05,-15.93 608.89,-12 598.75,-8.93 599.05,-15.93"/>
</g>
<!-- Node4 -->
<g id="node4" class="node">
<title>Node4</title>
<g id="a_node4"><a xlink:title=" ">
<polygon fill="none" stroke="#bfbfbf" points="1000,-0.5 1000,-19.5 1044,-19.5 1044,-0.5 1000,-0.5"/>
<text text-anchor="middle" x="1022" y="-7.5" font-family="Helvetica,sans-Serif" font-size="10.00">string</text>
</a>
</g>
</g>
<!-- Node2&#45;&gt;Node4 -->
<g id="edge3" class="edge">
<title>Node2&#45;&gt;Node4</title>
<path fill="none" stroke="midnightblue" d="M1104.02,-317.69C1183.34,-311.22 1319.63,-297.52 1365,-277 1415.72,-254.06 1465.91,-229.74 1443,-179 1375.77,-30.11 1140.74,-12.22 1054.26,-10.78"/>
<polygon fill="midnightblue" stroke="midnightblue" points="1054.27,-7.28 1044.23,-10.68 1054.2,-14.28 1054.27,-7.28"/>
</g>
<!-- Node5 -->
<g id="node5" class="node">
<title>Node5</title>
<g id="a_node5"><a xlink:title=" ">
<polygon fill="none" stroke="#bfbfbf" points="1108,-185 1108,-204 1230,-204 1230,-185 1108,-185"/>
<text text-anchor="middle" x="1169" y="-192" font-family="Helvetica,sans-Serif" font-size="10.00">BoosterSeat/time.hpp</text>
</a>
</g>
</g>
<!-- Node2&#45;&gt;Node5 -->
<g id="edge4" class="edge">
<title>Node2&#45;&gt;Node5</title>
<path fill="none" stroke="midnightblue" d="M1066.58,-313.35C1083.51,-305.74 1106.83,-293.33 1123,-277 1141.27,-258.56 1154.65,-231.4 1162.13,-213.58"/>
<polygon fill="midnightblue" stroke="midnightblue" points="1165.46,-214.66 1165.93,-204.08 1158.97,-212.06 1165.46,-214.66"/>
</g>
<!-- Node6 -->
<g id="node6" class="node">
<title>Node6</title>
<g id="a_node6"><a xlink:href="afsk_8hpp.html" target="_top" xlink:title="AFSK related modulation/demodulation.">
<polygon fill="none" stroke="black" points="404,-252 404,-271 522,-271 522,-252 404,-252"/>
<text text-anchor="middle" x="463" y="-259" font-family="Helvetica,sans-Serif" font-size="10.00">SignalEasel/afsk.hpp</text>
</a>
</g>
</g>
<!-- Node2&#45;&gt;Node6 -->
<g id="edge5" class="edge">
<title>Node2&#45;&gt;Node6</title>
<path fill="none" stroke="midnightblue" d="M985.99,-315.97C877.71,-304.9 647.82,-281.39 532.3,-269.59"/>
<polygon fill="midnightblue" stroke="midnightblue" points="532.47,-266.08 522.16,-268.55 531.76,-273.05 532.47,-266.08"/>
</g>
<!-- Node19 -->
<g id="node19" class="node">
<title>Node19</title>
<g id="a_node19"><a xlink:href="packets_8hpp.html" target="_top" xlink:title=" ">
<polygon fill="none" stroke="black" points="956,-252 956,-271 1114,-271 1114,-252 956,-252"/>
<text text-anchor="middle" x="1035" y="-259" font-family="Helvetica,sans-Serif" font-size="10.00">SignalEasel/aprs/packets.hpp</text>
</a>
</g>
</g>
<!-- Node2&#45;&gt;Node19 -->
<g id="edge30" class="edge">
<title>Node2&#45;&gt;Node19</title>
<path fill="none" stroke="midnightblue" d="M1043.57,-313.48C1042.16,-305.08 1039.95,-291.98 1038.14,-281.16"/>
<polygon fill="midnightblue" stroke="midnightblue" points="1041.54,-280.29 1036.43,-271.01 1034.64,-281.45 1041.54,-280.29"/>
</g>
<!-- Node24 -->
<g id="node24" class="node">
<title>Node24</title>
<g id="a_node24"><a xlink:href="telemetry__transcoder_8hpp.html" target="_top" xlink:title=" ">
<polygon fill="none" stroke="black" points="1208,-246.5 1208,-276.5 1356,-276.5 1356,-246.5 1208,-246.5"/>
<text text-anchor="start" x="1216" y="-264.5" font-family="Helvetica,sans-Serif" font-size="10.00">SignalEasel/aprs/telemetry</text>
<text text-anchor="middle" x="1282" y="-253.5" font-family="Helvetica,sans-Serif" font-size="10.00">_transcoder.hpp</text>
</a>
</g>
</g>
<!-- Node2&#45;&gt;Node24 -->
<g id="edge43" class="edge">
<title>Node2&#45;&gt;Node24</title>
<path fill="none" stroke="midnightblue" d="M1078.96,-313.48C1114.65,-304.51 1171.71,-290.19 1216.26,-279"/>
<polygon fill="midnightblue" stroke="midnightblue" points="1217.3,-282.35 1226.14,-276.52 1215.59,-275.56 1217.3,-282.35"/>
</g>
<!-- Node25 -->
<g id="node25" class="node">
<title>Node25</title>
<g id="a_node25"><a xlink:href="ax25_8hpp.html" target="_top" xlink:title="AX.25 tools.">
<polygon fill="none" stroke="black" points="816.5,-252 816.5,-271 937.5,-271 937.5,-252 816.5,-252"/>
<text text-anchor="middle" x="877" y="-259" font-family="Helvetica,sans-Serif" font-size="10.00">SignalEasel/ax25.hpp</text>
</a>
</g>
</g>
<!-- Node2&#45;&gt;Node25 -->
<g id="edge46" class="edge">
<title>Node2&#45;&gt;Node25</title>
<path fill="none" stroke="midnightblue" d="M1020.93,-313.48C991.99,-303.22 943.24,-285.96 910.6,-274.4"/>
<polygon fill="midnightblue" stroke="midnightblue" points="911.62,-271.05 901.03,-271.01 909.28,-277.65 911.62,-271.05"/>
</g>
<!-- Node7 -->
<g id="node7" class="node">
<title>Node7</title>
<g id="a_node7"><a xlink:title=" ">
<polygon fill="none" stroke="#bfbfbf" points="712.5,-118 712.5,-137 759.5,-137 759.5,-118 712.5,-118"/>
<text text-anchor="middle" x="736" y="-125" font-family="Helvetica,sans-Serif" font-size="10.00">vector</text>
</a>
</g>
</g>
<!-- Node6&#45;&gt;Node7 -->
<g id="edge6" class="edge">
<title>Node6&#45;&gt;Node7</title>
<path fill="none" stroke="midnightblue" d="M522.2,-256.07C588.35,-249.89 689.78,-236.34 717,-210 733.77,-193.77 736.98,-165.81 737.04,-147.24"/>
<polygon fill="midnightblue" stroke="midnightblue" points="740.53,-146.98 736.76,-137.08 733.53,-147.17 740.53,-146.98"/>
</g>
<!-- Node8 -->
<g id="node8" class="node">
<title>Node8</title>
<g id="a_node8"><a xlink:href="constants_8hpp.html" target="_top" xlink:title="Common constants used throughout the library.">
<polygon fill="none" stroke="black" points="163,-56.5 163,-75.5 307,-75.5 307,-56.5 163,-56.5"/>
<text text-anchor="middle" x="235" y="-63.5" font-family="Helvetica,sans-Serif" font-size="10.00">SignalEasel/constants.hpp</text>
</a>
</g>
</g>
<!-- Node6&#45;&gt;Node8 -->
<g id="edge7" class="edge">
<title>Node6&#45;&gt;Node8</title>
<path fill="none" stroke="midnightblue" d="M403.79,-257.4C296.66,-251.18 79.57,-235.55 57,-210 6.7,-153.06 131.49,-101.22 197.39,-78.77"/>
<polygon fill="midnightblue" stroke="midnightblue" points="198.67,-82.03 207.04,-75.54 196.45,-75.39 198.67,-82.03"/>
</g>
<!-- Node9 -->
<g id="node9" class="node">
<title>Node9</title>
<g id="a_node9"><a xlink:href="bit__stream_8hpp.html" target="_top" xlink:title="The bit stream class.">
<polygon fill="none" stroke="black" points="559.5,-185 559.5,-204 708.5,-204 708.5,-185 559.5,-185"/>
<text text-anchor="middle" x="634" y="-192" font-family="Helvetica,sans-Serif" font-size="10.00">SignalEasel/bit_stream.hpp</text>
</a>
</g>
</g>
<!-- Node6&#45;&gt;Node9 -->
<g id="edge9" class="edge">
<title>Node6&#45;&gt;Node9</title>
<path fill="none" stroke="midnightblue" d="M485.71,-251.87C515.56,-240.52 568.17,-220.52 602.03,-207.65"/>
<polygon fill="midnightblue" stroke="midnightblue" points="603.37,-210.89 611.47,-204.06 600.88,-204.35 603.37,-210.89"/>
</g>
<!-- Node10 -->
<g id="node10" class="node">
<title>Node10</title>
<g id="a_node10"><a xlink:href="demodulator_8hpp.html" target="_top" xlink:title="Base class for demodulators.">
<polygon fill="none" stroke="black" points="384,-185 384,-204 542,-204 542,-185 384,-185"/>
<text text-anchor="middle" x="463" y="-192" font-family="Helvetica,sans-Serif" font-size="10.00">SignalEasel/demodulator.hpp</text>
</a>
</g>
</g>
<!-- Node6&#45;&gt;Node10 -->
<g id="edge12" class="edge">
<title>Node6&#45;&gt;Node10</title>
<path fill="none" stroke="midnightblue" d="M463,-251.73C463,-242.18 463,-226.62 463,-214.28"/>
<polygon fill="midnightblue" stroke="midnightblue" points="466.5,-214.13 463,-204.13 459.5,-214.13 466.5,-214.13"/>
</g>
<!-- Node12 -->
<g id="node12" class="node">
<title>Node12</title>
<g id="a_node12"><a xlink:href="modulator_8hpp.html" target="_top" xlink:title="Modulator base class.">
<polygon fill="none" stroke="black" points="220,-185 220,-204 366,-204 366,-185 220,-185"/>
<text text-anchor="middle" x="293" y="-192" font-family="Helvetica,sans-Serif" font-size="10.00">SignalEasel/modulator.hpp</text>
</a>
</g>
</g>
<!-- Node6&#45;&gt;Node12 -->
<g id="edge17" class="edge">
<title>Node6&#45;&gt;Node12</title>
<path fill="none" stroke="midnightblue" d="M440.43,-251.87C410.75,-240.52 358.45,-220.52 324.78,-207.65"/>
<polygon fill="midnightblue" stroke="midnightblue" points="325.99,-204.37 315.4,-204.06 323.49,-210.9 325.99,-204.37"/>
</g>
<!-- Node13 -->
<g id="node13" class="node">
<title>Node13</title>
<g id="a_node13"><a xlink:href="receiver_8hpp.html" target="_top" xlink:title="Base class for receivers. Demodulators that use pulse audio.">
<polygon fill="none" stroke="black" points="66,-185 66,-204 202,-204 202,-185 66,-185"/>
<text text-anchor="middle" x="134" y="-192" font-family="Helvetica,sans-Serif" font-size="10.00">SignalEasel/receiver.hpp</text>
</a>
</g>
</g>
<!-- Node6&#45;&gt;Node13 -->
<g id="edge21" class="edge">
<title>Node6&#45;&gt;Node13</title>
<path fill="none" stroke="midnightblue" d="M419.65,-251.94C359.78,-240.11 251.85,-218.78 187.18,-206.01"/>
<polygon fill="midnightblue" stroke="midnightblue" points="187.67,-202.54 177.18,-204.03 186.32,-209.4 187.67,-202.54"/>
</g>
<!-- Node8&#45;&gt;Node3 -->
<g id="edge8" class="edge">
<title>Node8&#45;&gt;Node3</title>
<path fill="none" stroke="midnightblue" d="M298.22,-56.44C383.12,-44.95 531.07,-24.93 598.59,-15.79"/>
<polygon fill="midnightblue" stroke="midnightblue" points="599.27,-19.23 608.71,-14.42 598.33,-12.3 599.27,-19.23"/>
</g>
<!-- Node9&#45;&gt;Node3 -->
<g id="edge10" class="edge">
<title>Node9&#45;&gt;Node3</title>
<path fill="none" stroke="midnightblue" d="M634,-184.7C634,-156.69 634,-69.21 634,-30.16"/>
<polygon fill="midnightblue" stroke="midnightblue" points="637.5,-29.71 634,-19.71 630.5,-29.71 637.5,-29.71"/>
</g>
<!-- Node9&#45;&gt;Node7 -->
<g id="edge11" class="edge">
<title>Node9&#45;&gt;Node7</title>
<path fill="none" stroke="midnightblue" d="M647.76,-184.73C664.73,-173.92 693.81,-155.38 713.93,-142.57"/>
<polygon fill="midnightblue" stroke="midnightblue" points="715.91,-145.45 722.46,-137.13 712.15,-139.55 715.91,-145.45"/>
</g>
<!-- Node10&#45;&gt;Node4 -->
<g id="edge13" class="edge">
<title>Node10&#45;&gt;Node4</title>
<path fill="none" stroke="midnightblue" d="M483.04,-184.99C537.91,-161.9 695.57,-97.08 831,-56 886.13,-39.28 951.77,-25.01 989.97,-17.26"/>
<polygon fill="midnightblue" stroke="midnightblue" points="990.88,-20.64 999.99,-15.24 989.5,-13.78 990.88,-20.64"/>
</g>
<!-- Node10&#45;&gt;Node7 -->
<g id="edge14" class="edge">
<title>Node10&#45;&gt;Node7</title>
<path fill="none" stroke="midnightblue" d="M498.97,-184.94C552.07,-172.29 650.71,-148.81 702.41,-136.5"/>
<polygon fill="midnightblue" stroke="midnightblue" points="703.48,-139.84 712.4,-134.12 701.86,-133.03 703.48,-139.84"/>
</g>
<!-- Node11 -->
<g id="node11" class="node">
<title>Node11</title>
<g id="a_node11"><a xlink:href="settings_8hpp.html" target="_top" xlink:title="Settings structures for SignalEasel.">
<polygon fill="none" stroke="black" points="413,-118 413,-137 549,-137 549,-118 413,-118"/>
<text text-anchor="middle" x="481" y="-125" font-family="Helvetica,sans-Serif" font-size="10.00">SignalEasel/settings.hpp</text>
</a>
</g>
</g>
<!-- Node10&#45;&gt;Node11 -->
<g id="edge15" class="edge">
<title>Node10&#45;&gt;Node11</title>
<path fill="none" stroke="midnightblue" d="M465.43,-184.73C468.1,-175.09 472.47,-159.3 475.9,-146.91"/>
<polygon fill="midnightblue" stroke="midnightblue" points="479.32,-147.7 478.61,-137.13 472.57,-145.83 479.32,-147.7"/>
</g>
<!-- Node11&#45;&gt;Node4 -->
<g id="edge16" class="edge">
<title>Node11&#45;&gt;Node4</title>
<path fill="none" stroke="midnightblue" d="M502.61,-117.97C540.95,-103.17 623.66,-72.71 696,-56 801.86,-31.55 930.33,-18.59 989.41,-13.55"/>
<polygon fill="midnightblue" stroke="midnightblue" points="989.94,-17.01 999.61,-12.69 989.36,-10.04 989.94,-17.01"/>
</g>
<!-- Node12&#45;&gt;Node3 -->
<g id="edge18" class="edge">
<title>Node12&#45;&gt;Node3</title>
<path fill="none" stroke="midnightblue" d="M255.37,-184.96C218.43,-175.73 165.93,-160.03 154,-143 131.81,-111.33 127.97,-84.59 154,-56 183.83,-23.24 492.65,-13.89 598.58,-11.63"/>
<polygon fill="midnightblue" stroke="midnightblue" points="598.83,-15.13 608.75,-11.43 598.68,-8.13 598.83,-15.13"/>
</g>
<!-- Node12&#45;&gt;Node7 -->
<g id="edge19" class="edge">
<title>Node12&#45;&gt;Node7</title>
<path fill="none" stroke="midnightblue" d="M339.78,-184.93C351.29,-182.9 363.58,-180.81 375,-179 494.95,-160.01 637.92,-141.11 701.99,-132.84"/>
<polygon fill="midnightblue" stroke="midnightblue" points="702.83,-136.26 712.3,-131.51 701.94,-129.32 702.83,-136.26"/>
</g>
<!-- Node12&#45;&gt;Node11 -->
<g id="edge20" class="edge">
<title>Node12&#45;&gt;Node11</title>
<path fill="none" stroke="midnightblue" d="M317.96,-184.87C350.92,-173.47 409.12,-153.35 446.33,-140.49"/>
<polygon fill="midnightblue" stroke="midnightblue" points="447.92,-143.64 456.23,-137.06 445.64,-137.02 447.92,-143.64"/>
</g>
<!-- Node13&#45;&gt;Node11 -->
<g id="edge29" class="edge">
<title>Node13&#45;&gt;Node11</title>
<path fill="none" stroke="midnightblue" d="M179.19,-184.98C189.64,-183.01 200.7,-180.93 211,-179 296.76,-162.93 318.24,-159.07 404,-143 411.08,-141.67 418.52,-140.28 425.88,-138.89"/>
<polygon fill="midnightblue" stroke="midnightblue" points="426.63,-142.31 435.81,-137.02 425.33,-135.43 426.63,-142.31"/>
</g>
<!-- Node14 -->
<g id="node14" class="node">
<title>Node14</title>
<g id="a_node14"><a xlink:title=" ">
<polygon fill="none" stroke="#bfbfbf" points="337,-118 337,-137 395,-137 395,-118 337,-118"/>
<text text-anchor="middle" x="366" y="-125" font-family="Helvetica,sans-Serif" font-size="10.00">memory</text>
</a>
</g>
</g>
<!-- Node13&#45;&gt;Node14 -->
<g id="edge22" class="edge">
<title>Node13&#45;&gt;Node14</title>
<path fill="none" stroke="midnightblue" d="M170.95,-185C210.03,-175.73 273.33,-159.95 327,-143 329.56,-142.19 332.2,-141.31 334.84,-140.4"/>
<polygon fill="midnightblue" stroke="midnightblue" points="336.04,-143.69 344.27,-137.02 333.67,-137.1 336.04,-143.69"/>
</g>
<!-- Node15 -->
<g id="node15" class="node">
<title>Node15</title>
<g id="a_node15"><a xlink:href="pulse__audio_8hpp.html" target="_top" xlink:title="Reads audio from pulse audio.">
<polygon fill="none" stroke="black" points="163.5,-118 163.5,-137 318.5,-137 318.5,-118 163.5,-118"/>
<text text-anchor="middle" x="241" y="-125" font-family="Helvetica,sans-Serif" font-size="10.00">SignalEasel/pulse_audio.hpp</text>
</a>
</g>
</g>
<!-- Node13&#45;&gt;Node15 -->
<g id="edge23" class="edge">
<title>Node13&#45;&gt;Node15</title>
<path fill="none" stroke="midnightblue" d="M148.43,-184.73C166.32,-173.87 197.02,-155.22 218.13,-142.39"/>
<polygon fill="midnightblue" stroke="midnightblue" points="220.07,-145.31 226.8,-137.13 216.43,-139.33 220.07,-145.31"/>
</g>
<!-- Node15&#45;&gt;Node4 -->
<g id="edge25" class="edge">
<title>Node15&#45;&gt;Node4</title>
<path fill="none" stroke="midnightblue" d="M254.1,-117.83C281.47,-99.77 343.11,-59.52 354,-56 414.86,-36.34 864.79,-17.22 989.84,-12.25"/>
<polygon fill="midnightblue" stroke="midnightblue" points="990.07,-15.74 999.93,-11.85 989.8,-8.75 990.07,-15.74"/>
</g>
<!-- Node15&#45;&gt;Node8 -->
<g id="edge26" class="edge">
<title>Node15&#45;&gt;Node8</title>
<path fill="none" stroke="midnightblue" d="M240.14,-117.98C239.29,-109.58 237.97,-96.48 236.88,-85.66"/>
<polygon fill="midnightblue" stroke="midnightblue" points="240.34,-85.11 235.86,-75.51 233.38,-85.81 240.34,-85.11"/>
</g>
<!-- Node16 -->
<g id="node16" class="node">
<title>Node16</title>
<g id="a_node16"><a xlink:title=" ">
<polygon fill="none" stroke="#bfbfbf" points="840,-56.5 840,-75.5 882,-75.5 882,-56.5 840,-56.5"/>
<text text-anchor="middle" x="861" y="-63.5" font-family="Helvetica,sans-Serif" font-size="10.00">array</text>
</a>
</g>
</g>
<!-- Node15&#45;&gt;Node16 -->
<g id="edge24" class="edge">
<title>Node15&#45;&gt;Node16</title>
<path fill="none" stroke="midnightblue" d="M287.86,-117.98C300.83,-115.81 314.93,-113.64 328,-112 517.82,-88.21 747.28,-73.57 829.67,-68.76"/>
<polygon fill="midnightblue" stroke="midnightblue" points="830.08,-72.24 839.86,-68.17 829.68,-65.25 830.08,-72.24"/>
</g>
<!-- Node17 -->
<g id="node17" class="node">
<title>Node17</title>
<g id="a_node17"><a xlink:title=" ">
<polygon fill="none" stroke="#bfbfbf" points="469.5,-56.5 469.5,-75.5 546.5,-75.5 546.5,-56.5 469.5,-56.5"/>
<text text-anchor="middle" x="508" y="-63.5" font-family="Helvetica,sans-Serif" font-size="10.00">pulse/error.h</text>
</a>
</g>
</g>
<!-- Node15&#45;&gt;Node17 -->
<g id="edge27" class="edge">
<title>Node15&#45;&gt;Node17</title>
<path fill="none" stroke="midnightblue" d="M279.25,-117.98C326.84,-107.37 408.11,-89.26 459.88,-77.72"/>
<polygon fill="midnightblue" stroke="midnightblue" points="460.82,-81.1 469.82,-75.51 459.29,-74.27 460.82,-81.1"/>
</g>
<!-- Node18 -->
<g id="node18" class="node">
<title>Node18</title>
<g id="a_node18"><a xlink:title=" ">
<polygon fill="none" stroke="#bfbfbf" points="363,-56.5 363,-75.5 451,-75.5 451,-56.5 363,-56.5"/>
<text text-anchor="middle" x="407" y="-63.5" font-family="Helvetica,sans-Serif" font-size="10.00">pulse/simple.h</text>
</a>
</g>
</g>
<!-- Node15&#45;&gt;Node18 -->
<g id="edge28" class="edge">
<title>Node15&#45;&gt;Node18</title>
<path fill="none" stroke="midnightblue" d="M264.78,-117.98C293.38,-107.72 341.55,-90.46 373.8,-78.9"/>
<polygon fill="midnightblue" stroke="midnightblue" points="375.03,-82.18 383.26,-75.51 372.67,-75.59 375.03,-82.18"/>
</g>
<!-- Node19&#45;&gt;Node3 -->
<g id="edge31" class="edge">
<title>Node19&#45;&gt;Node3</title>
<path fill="none" stroke="midnightblue" d="M1024.64,-251.89C1013.54,-242.36 995.8,-226.19 983,-210 933.54,-147.47 956.68,-101.2 891,-56 855.55,-31.6 731.15,-18.63 669.36,-13.57"/>
<polygon fill="midnightblue" stroke="midnightblue" points="669.54,-10.07 659.3,-12.76 668.99,-17.05 669.54,-10.07"/>
</g>
<!-- Node19&#45;&gt;Node4 -->
<g id="edge32" class="edge">
<title>Node19&#45;&gt;Node4</title>
<path fill="none" stroke="midnightblue" d="M1041.18,-251.71C1047.59,-242.02 1057.19,-225.72 1061,-210 1077,-143.95 1046.7,-64.37 1030.82,-29.21"/>
<polygon fill="midnightblue" stroke="midnightblue" points="1033.83,-27.37 1026.43,-19.79 1027.48,-30.33 1033.83,-27.37"/>
</g>
<!-- Node19&#45;&gt;Node5 -->
<g id="edge34" class="edge">
<title>Node19&#45;&gt;Node5</title>
<path fill="none" stroke="midnightblue" d="M1052.79,-251.87C1075.62,-240.8 1115.43,-221.49 1142,-208.6"/>
<polygon fill="midnightblue" stroke="midnightblue" points="1143.66,-211.68 1151.13,-204.17 1140.61,-205.38 1143.66,-211.68"/>
</g>
<!-- Node19&#45;&gt;Node7 -->
<g id="edge33" class="edge">
<title>Node19&#45;&gt;Node7</title>
<path fill="none" stroke="midnightblue" d="M1013.1,-251.85C988.41,-242.01 947.12,-225.33 912,-210 858.91,-186.82 797.7,-158 763.26,-141.58"/>
<polygon fill="midnightblue" stroke="midnightblue" points="764.4,-138.24 753.87,-137.09 761.39,-144.56 764.4,-138.24"/>
</g>
<!-- Node20 -->
<g id="node20" class="node">
<title>Node20</title>
<g id="a_node20"><a xlink:href="telemetry__data_8hpp.html" target="_top" xlink:title=" ">
<polygon fill="none" stroke="black" points="1286,-179.5 1286,-209.5 1434,-209.5 1434,-179.5 1286,-179.5"/>
<text text-anchor="start" x="1294" y="-197.5" font-family="Helvetica,sans-Serif" font-size="10.00">SignalEasel/aprs/telemetry</text>
<text text-anchor="middle" x="1360" y="-186.5" font-family="Helvetica,sans-Serif" font-size="10.00">_data.hpp</text>
</a>
</g>
</g>
<!-- Node19&#45;&gt;Node20 -->
<g id="edge35" class="edge">
<title>Node19&#45;&gt;Node20</title>
<path fill="none" stroke="midnightblue" d="M1077.82,-251.94C1129.03,-241.69 1215.83,-224.33 1279.66,-211.57"/>
<polygon fill="midnightblue" stroke="midnightblue" points="1280.58,-214.95 1289.7,-209.56 1279.21,-208.09 1280.58,-214.95"/>
</g>
<!-- Node20&#45;&gt;Node16 -->
<g id="edge36" class="edge">
<title>Node20&#45;&gt;Node16</title>
<path fill="none" stroke="midnightblue" d="M1304.69,-179.48C1199.57,-152.83 974.07,-95.66 891.83,-74.82"/>
<polygon fill="midnightblue" stroke="midnightblue" points="892.64,-71.41 882.08,-72.34 890.92,-78.19 892.64,-71.41"/>
</g>
<!-- Node21 -->
<g id="node21" class="node">
<title>Node21</title>
<g id="a_node21"><a xlink:href="telemetry__parameter_8hpp.html" target="_top" xlink:title=" ">
<polygon fill="none" stroke="black" points="1210,-112.5 1210,-142.5 1358,-142.5 1358,-112.5 1210,-112.5"/>
<text text-anchor="start" x="1218" y="-130.5" font-family="Helvetica,sans-Serif" font-size="10.00">SignalEasel/aprs/telemetry</text>
<text text-anchor="middle" x="1284" y="-119.5" font-family="Helvetica,sans-Serif" font-size="10.00">_parameter.hpp</text>
</a>
</g>
</g>
<!-- Node20&#45;&gt;Node21 -->
<g id="edge37" class="edge">
<title>Node20&#45;&gt;Node21</title>
<path fill="none" stroke="midnightblue" d="M1343.51,-179.4C1333.15,-170.54 1319.62,-158.96 1308.07,-149.09"/>
<polygon fill="midnightblue" stroke="midnightblue" points="1310.33,-146.42 1300.46,-142.58 1305.78,-151.74 1310.33,-146.42"/>
</g>
<!-- Node21&#45;&gt;Node3 -->
<g id="edge38" class="edge">
<title>Node21&#45;&gt;Node3</title>
<path fill="none" stroke="midnightblue" d="M1220.8,-112.44C1151.95,-97.38 1038.47,-73.32 940,-56 842.17,-38.8 725.95,-22.96 668.99,-15.5"/>
<polygon fill="midnightblue" stroke="midnightblue" points="669.43,-12.02 659.07,-14.2 668.53,-18.96 669.43,-12.02"/>
</g>
<!-- Node21&#45;&gt;Node4 -->
<g id="edge39" class="edge">
<title>Node21&#45;&gt;Node4</title>
<path fill="none" stroke="midnightblue" d="M1258.56,-112.45C1231.02,-97.5 1185.57,-73.64 1145,-56 1114.58,-42.77 1078.88,-30.01 1053.8,-21.47"/>
<polygon fill="midnightblue" stroke="midnightblue" points="1054.68,-18.07 1044.08,-18.2 1052.44,-24.71 1054.68,-18.07"/>
</g>
<!-- Node21&#45;&gt;Node22 -->
<g id="edge40" class="edge">
<title>Node21&#45;&gt;Node22</title>
<path fill="none" stroke="midnightblue" d="M1339.39,-112.47C1381,-101.94 1437.18,-87.72 1475.56,-78"/>
<polygon fill="midnightblue" stroke="midnightblue" points="1476.57,-81.35 1485.4,-75.51 1474.85,-74.57 1476.57,-81.35"/>
</g>
<!-- Node22&#45;&gt;Node4 -->
<g id="edge42" class="edge">
<title>Node22&#45;&gt;Node4</title>
<path fill="none" stroke="midnightblue" d="M1446.47,-57.12C1336.85,-45.21 1133.41,-23.1 1054.48,-14.53"/>
<polygon fill="midnightblue" stroke="midnightblue" points="1054.51,-11.01 1044.19,-13.41 1053.75,-17.97 1054.51,-11.01"/>
</g>
<!-- Node23 -->
<g id="node23" class="node">
<title>Node23</title>
<g id="a_node23"><a xlink:title=" ">
<polygon fill="none" stroke="#bfbfbf" points="1486.5,-0.5 1486.5,-19.5 1551.5,-19.5 1551.5,-0.5 1486.5,-0.5"/>
<text text-anchor="middle" x="1519" y="-7.5" font-family="Helvetica,sans-Serif" font-size="10.00">exception</text>
</a>
</g>
</g>
<!-- Node22&#45;&gt;Node23 -->
<g id="edge41" class="edge">
<title>Node22&#45;&gt;Node23</title>
<path fill="none" stroke="midnightblue" d="M1519,-56.08C1519,-49.01 1519,-38.86 1519,-29.99"/>
<polygon fill="midnightblue" stroke="midnightblue" points="1522.5,-29.75 1519,-19.75 1515.5,-29.75 1522.5,-29.75"/>
</g>
<!-- Node24&#45;&gt;Node7 -->
<g id="edge44" class="edge">
<title>Node24&#45;&gt;Node7</title>
<path fill="none" stroke="midnightblue" d="M1278.87,-246.21C1273.92,-227.35 1262.35,-194.73 1239,-179 1200.16,-152.84 876.49,-135.2 769.89,-130.06"/>
<polygon fill="midnightblue" stroke="midnightblue" points="769.85,-126.55 759.7,-129.57 769.52,-133.54 769.85,-126.55"/>
</g>
<!-- Node24&#45;&gt;Node20 -->
<g id="edge45" class="edge">
<title>Node24&#45;&gt;Node20</title>
<path fill="none" stroke="midnightblue" d="M1298.92,-246.4C1309.55,-237.54 1323.45,-225.96 1335.3,-216.09"/>
<polygon fill="midnightblue" stroke="midnightblue" points="1337.67,-218.67 1343.11,-209.58 1333.19,-213.29 1337.67,-218.67"/>
</g>
<!-- Node25&#45;&gt;Node3 -->
<g id="edge47" class="edge">
<title>Node25&#45;&gt;Node3</title>
<path fill="none" stroke="midnightblue" d="M871.87,-251.79C857.48,-227.78 814.74,-159.33 768,-112 732.88,-76.43 684.63,-43.16 656.64,-25.1"/>
<polygon fill="midnightblue" stroke="midnightblue" points="658.28,-21.99 647.97,-19.57 654.52,-27.9 658.28,-21.99"/>
</g>
<!-- Node25&#45;&gt;Node4 -->
<g id="edge50" class="edge">
<title>Node25&#45;&gt;Node4</title>
<path fill="none" stroke="midnightblue" d="M881.99,-251.91C902.86,-216 983.38,-77.44 1011.91,-28.36"/>
<polygon fill="midnightblue" stroke="midnightblue" points="1015.03,-29.96 1017.03,-19.55 1008.98,-26.44 1015.03,-29.96"/>
</g>
<!-- Node25&#45;&gt;Node7 -->
<g id="edge51" class="edge">
<title>Node25&#45;&gt;Node7</title>
<path fill="none" stroke="midnightblue" d="M860.08,-251.97C843.22,-242.96 817.15,-227.65 798,-210 776.93,-190.58 757.82,-163.32 746.55,-145.78"/>
<polygon fill="midnightblue" stroke="midnightblue" points="749.41,-143.75 741.13,-137.14 743.48,-147.47 749.41,-143.75"/>
</g>
<!-- Node25&#45;&gt;Node9 -->
<g id="edge52" class="edge">
<title>Node25&#45;&gt;Node9</title>
<path fill="none" stroke="midnightblue" d="M844.98,-251.94C801.55,-240.32 723.88,-219.54 675.86,-206.7"/>
<polygon fill="midnightblue" stroke="midnightblue" points="676.65,-203.29 666.09,-204.08 674.84,-210.05 676.65,-203.29"/>
</g>
<!-- Node25&#45;&gt;Node16 -->
<g id="edge48" class="edge">
<title>Node25&#45;&gt;Node16</title>
<path fill="none" stroke="midnightblue" d="M876.29,-251.94C873.88,-222.79 865.96,-126.97 862.57,-85.93"/>
<polygon fill="midnightblue" stroke="midnightblue" points="866.05,-85.58 861.74,-75.91 859.07,-86.16 866.05,-85.58"/>
</g>
<!-- Node25&#45;&gt;Node26 -->
<g id="edge49" class="edge">
<title>Node25&#45;&gt;Node26</title>
<path fill="none" stroke="midnightblue" d="M896.25,-251.87C921.17,-240.7 964.79,-221.15 993.53,-208.26"/>
<polygon fill="midnightblue" stroke="midnightblue" points="994.97,-211.45 1002.67,-204.17 992.11,-205.06 994.97,-211.45"/>
</g>
</g>
</svg>
