<?xml version="1.0" encoding="UTF-8" standalone="no"?>
<!DOCTYPE svg PUBLIC "-//W3C//DTD SVG 1.1//EN"
 "http://www.w3.org/Graphics/SVG/1.1/DTD/svg11.dtd">
<!-- Generated by graphviz version 2.43.0 (0)
 -->
<!-- Title: aprs_encoders.cpp Pages: 1 -->
<svg width="1508pt" height="397pt"
 viewBox="0.00 0.00 1508.00 397.00" xmlns="http://www.w3.org/2000/svg" xmlns:xlink="http://www.w3.org/1999/xlink">
<g id="graph0" class="graph" transform="scale(1 1) rotate(0) translate(4 393)">
<title>aprs_encoders.cpp</title>
<!-- Node1 -->
<g id="node1" class="node">
<title>Node1</title>
<g id="a_node1"><a xlink:title="Encoding functions for APRS packets.">
<polygon fill="#bfbfbf" stroke="black" points="1035.5,-369.5 1035.5,-388.5 1142.5,-388.5 1142.5,-369.5 1035.5,-369.5"/>
<text text-anchor="middle" x="1089" y="-376.5" font-family="Helvetica,sans-Serif" font-size="10.00">aprs_encoders.cpp</text>
</a>
</g>
</g>
<!-- Node2 -->
<g id="node2" class="node">
<title>Node2</title>
<g id="a_node2"><a xlink:title=" ">
<polygon fill="none" stroke="#bfbfbf" points="964.5,-313.5 964.5,-332.5 1011.5,-332.5 1011.5,-313.5 964.5,-313.5"/>
<text text-anchor="middle" x="988" y="-320.5" font-family="Helvetica,sans-Serif" font-size="10.00">cmath</text>
</a>
</g>
</g>
<!-- Node1&#45;&gt;Node2 -->
<g id="edge1" class="edge">
<title>Node1&#45;&gt;Node2</title>
<path fill="none" stroke="midnightblue" d="M1072.77,-369.32C1056.65,-360.7 1031.7,-347.36 1013.04,-337.39"/>
<polygon fill="midnightblue" stroke="midnightblue" points="1014.66,-334.28 1004.19,-332.65 1011.36,-340.46 1014.66,-334.28"/>
</g>
<!-- Node3 -->
<g id="node3" class="node">
<title>Node3</title>
<g id="a_node3"><a xlink:href="aprs_8hpp.html" target="_top" xlink:title=" ">
<polygon fill="none" stroke="black" points="1030,-313.5 1030,-332.5 1148,-332.5 1148,-313.5 1030,-313.5"/>
<text text-anchor="middle" x="1089" y="-320.5" font-family="Helvetica,sans-Serif" font-size="10.00">SignalEasel/aprs.hpp</text>
</a>
</g>
</g>
<!-- Node1&#45;&gt;Node3 -->
<g id="edge2" class="edge">
<title>Node1&#45;&gt;Node3</title>
<path fill="none" stroke="midnightblue" d="M1089,-369.08C1089,-362.01 1089,-351.86 1089,-342.99"/>
<polygon fill="midnightblue" stroke="midnightblue" points="1092.5,-342.75 1089,-332.75 1085.5,-342.75 1092.5,-342.75"/>
</g>
<!-- Node22 -->
<g id="node22" class="node">
<title>Node22</title>
<g id="a_node22"><a xlink:href="exception_8hpp.html" target="_top" xlink:title="SignalEasel exceptions.">
<polygon fill="none" stroke="black" points="1136.5,-56.5 1136.5,-75.5 1281.5,-75.5 1281.5,-56.5 1136.5,-56.5"/>
<text text-anchor="middle" x="1209" y="-63.5" font-family="Helvetica,sans-Serif" font-size="10.00">SignalEasel/exception.hpp</text>
</a>
</g>
</g>
<!-- Node1&#45;&gt;Node22 -->
<g id="edge52" class="edge">
<title>Node1&#45;&gt;Node22</title>
<path fill="none" stroke="midnightblue" d="M1142.62,-370.21C1221.11,-355.39 1362.58,-314.65 1405,-210 1433.75,-139.08 1322.98,-96.8 1256.24,-78.23"/>
<polygon fill="midnightblue" stroke="midnightblue" points="1256.9,-74.78 1246.34,-75.56 1255.08,-81.54 1256.9,-74.78"/>
</g>
<!-- Node4 -->
<g id="node4" class="node">
<title>Node4</title>
<g id="a_node4"><a xlink:title=" ">
<polygon fill="none" stroke="#bfbfbf" points="1342,-0.5 1342,-19.5 1392,-19.5 1392,-0.5 1342,-0.5"/>
<text text-anchor="middle" x="1367" y="-7.5" font-family="Helvetica,sans-Serif" font-size="10.00">cstdint</text>
</a>
</g>
</g>
<!-- Node3&#45;&gt;Node4 -->
<g id="edge3" class="edge">
<title>Node3&#45;&gt;Node4</title>
<path fill="none" stroke="midnightblue" d="M1148.32,-316.23C1262.14,-303.5 1500,-268.2 1500,-195.5 1500,-195.5 1500,-195.5 1500,-126.5 1500,-74.2 1440.65,-40.24 1401.25,-23.45"/>
<polygon fill="midnightblue" stroke="midnightblue" points="1402.29,-20.09 1391.7,-19.55 1399.64,-26.57 1402.29,-20.09"/>
</g>
<!-- Node5 -->
<g id="node5" class="node">
<title>Node5</title>
<g id="a_node5"><a xlink:title=" ">
<polygon fill="none" stroke="#bfbfbf" points="655,-0.5 655,-19.5 699,-19.5 699,-0.5 655,-0.5"/>
<text text-anchor="middle" x="677" y="-7.5" font-family="Helvetica,sans-Serif" font-size="10.00">string</text>
</a>
</g>
</g>
<!-- Node3&#45;&gt;Node5 -->
<g id="edge4" class="edge">
<title>Node3&#45;&gt;Node5</title>
<path fill="none" stroke="midnightblue" d="M1029.69,-313.91C1026.75,-313.59 1023.84,-313.28 1021,-313 907.36,-301.82 0,-309.69 0,-195.5 0,-195.5 0,-195.5 0,-126.5 0,-32.25 107.95,-76.24 200,-56 364.49,-19.82 567.17,-12.72 644.74,-11.33"/>
<polygon fill="midnightblue" stroke="midnightblue" points="644.89,-14.83 654.83,-11.17 644.78,-7.83 644.89,-14.83"/>
</g>
<!-- Node6 -->
<g id="node6" class="node">
<title>Node6</title>
<g id="a_node6"><a xlink:title=" ">
<polygon fill="none" stroke="#bfbfbf" points="1082,-185 1082,-204 1204,-204 1204,-185 1082,-185"/>
<text text-anchor="middle" x="1143" y="-192" font-family="Helvetica,sans-Serif" font-size="10.00">BoosterSeat/time.hpp</text>
</a>
</g>
</g>
<!-- Node3&#45;&gt;Node6 -->
<g id="edge5" class="edge">
<title>Node3&#45;&gt;Node6</title>
<path fill="none" stroke="midnightblue" d="M1097.5,-313.47C1105.51,-304.95 1117.27,-291.11 1124,-277 1133.55,-256.97 1138.47,-231.83 1140.88,-214.8"/>
<polygon fill="midnightblue" stroke="midnightblue" points="1144.41,-214.84 1142.18,-204.48 1137.46,-213.96 1144.41,-214.84"/>
</g>
<!-- Node7 -->
<g id="node7" class="node">
<title>Node7</title>
<g id="a_node7"><a xlink:href="afsk_8hpp.html" target="_top" xlink:title="AFSK related modulation/demodulation.">
<polygon fill="none" stroke="black" points="473,-252 473,-271 591,-271 591,-252 473,-252"/>
<text text-anchor="middle" x="532" y="-259" font-family="Helvetica,sans-Serif" font-size="10.00">SignalEasel/afsk.hpp</text>
</a>
</g>
</g>
<!-- Node3&#45;&gt;Node7 -->
<g id="edge6" class="edge">
<title>Node3&#45;&gt;Node7</title>
<path fill="none" stroke="midnightblue" d="M1029.67,-314.05C1026.74,-313.69 1023.84,-313.33 1021,-313 871.54,-295.4 695.99,-278.08 601.19,-269.01"/>
<polygon fill="midnightblue" stroke="midnightblue" points="601.44,-265.52 591.15,-268.06 600.77,-272.49 601.44,-265.52"/>
</g>
<!-- Node19 -->
<g id="node19" class="node">
<title>Node19</title>
<g id="a_node19"><a xlink:href="packets_8hpp.html" target="_top" xlink:title=" ">
<polygon fill="none" stroke="black" points="957,-252 957,-271 1115,-271 1115,-252 957,-252"/>
<text text-anchor="middle" x="1036" y="-259" font-family="Helvetica,sans-Serif" font-size="10.00">SignalEasel/aprs/packets.hpp</text>
</a>
</g>
</g>
<!-- Node3&#45;&gt;Node19 -->
<g id="edge29" class="edge">
<title>Node3&#45;&gt;Node19</title>
<path fill="none" stroke="midnightblue" d="M1081.41,-313.48C1073.3,-304.37 1060.27,-289.74 1050.24,-278.48"/>
<polygon fill="midnightblue" stroke="midnightblue" points="1052.84,-276.15 1043.58,-271.01 1047.62,-280.8 1052.84,-276.15"/>
</g>
<!-- Node24 -->
<g id="node24" class="node">
<title>Node24</title>
<g id="a_node24"><a xlink:href="telemetry__transcoder_8hpp.html" target="_top" xlink:title=" ">
<polygon fill="none" stroke="black" points="791,-246.5 791,-276.5 939,-276.5 939,-246.5 791,-246.5"/>
<text text-anchor="start" x="799" y="-264.5" font-family="Helvetica,sans-Serif" font-size="10.00">SignalEasel/aprs/telemetry</text>
<text text-anchor="middle" x="865" y="-253.5" font-family="Helvetica,sans-Serif" font-size="10.00">_transcoder.hpp</text>
</a>
</g>
</g>
<!-- Node3&#45;&gt;Node24 -->
<g id="edge42" class="edge">
<title>Node3&#45;&gt;Node24</title>
<path fill="none" stroke="midnightblue" d="M1056.91,-313.48C1023.31,-304.55 969.69,-290.31 927.66,-279.14"/>
<polygon fill="midnightblue" stroke="midnightblue" points="928.36,-275.71 917.79,-276.52 926.56,-282.47 928.36,-275.71"/>
</g>
<!-- Node25 -->
<g id="node25" class="node">
<title>Node25</title>
<g id="a_node25"><a xlink:href="ax25_8hpp.html" target="_top" xlink:title="AX.25 tools.">
<polygon fill="none" stroke="black" points="1209.5,-252 1209.5,-271 1330.5,-271 1330.5,-252 1209.5,-252"/>
<text text-anchor="middle" x="1270" y="-259" font-family="Helvetica,sans-Serif" font-size="10.00">SignalEasel/ax25.hpp</text>
</a>
</g>
</g>
<!-- Node3&#45;&gt;Node25 -->
<g id="edge45" class="edge">
<title>Node3&#45;&gt;Node25</title>
<path fill="none" stroke="midnightblue" d="M1114.93,-313.48C1146.25,-303.18 1199.09,-285.81 1234.26,-274.25"/>
<polygon fill="midnightblue" stroke="midnightblue" points="1235.71,-277.46 1244.12,-271.01 1233.52,-270.81 1235.71,-277.46"/>
</g>
<!-- Node8 -->
<g id="node8" class="node">
<title>Node8</title>
<g id="a_node8"><a xlink:title=" ">
<polygon fill="none" stroke="#bfbfbf" points="532.5,-118 532.5,-137 579.5,-137 579.5,-118 532.5,-118"/>
<text text-anchor="middle" x="556" y="-125" font-family="Helvetica,sans-Serif" font-size="10.00">vector</text>
</a>
</g>
</g>
<!-- Node7&#45;&gt;Node8 -->
<g id="edge7" class="edge">
<title>Node7&#45;&gt;Node8</title>
<path fill="none" stroke="midnightblue" d="M533.57,-251.84C537.42,-230.67 547.37,-175.95 552.63,-147.03"/>
<polygon fill="midnightblue" stroke="midnightblue" points="556.11,-147.49 554.45,-137.02 549.22,-146.23 556.11,-147.49"/>
</g>
<!-- Node9 -->
<g id="node9" class="node">
<title>Node9</title>
<g id="a_node9"><a xlink:href="constants_8hpp.html" target="_top" xlink:title="Common constants used throughout the library.">
<polygon fill="none" stroke="black" points="536,-56.5 536,-75.5 680,-75.5 680,-56.5 536,-56.5"/>
<text text-anchor="middle" x="608" y="-63.5" font-family="Helvetica,sans-Serif" font-size="10.00">SignalEasel/constants.hpp</text>
</a>
</g>
</g>
<!-- Node7&#45;&gt;Node9 -->
<g id="edge8" class="edge">
<title>Node7&#45;&gt;Node9</title>
<path fill="none" stroke="midnightblue" d="M536.56,-251.99C541.87,-242.01 550.82,-224.93 558,-210 572.14,-180.6 577.15,-173.77 588,-143 594.79,-123.74 600.48,-101.02 604.03,-85.48"/>
<polygon fill="midnightblue" stroke="midnightblue" points="607.48,-86.09 606.23,-75.57 600.65,-84.58 607.48,-86.09"/>
</g>
<!-- Node10 -->
<g id="node10" class="node">
<title>Node10</title>
<g id="a_node10"><a xlink:href="bit__stream_8hpp.html" target="_top" xlink:title="The bit stream class.">
<polygon fill="none" stroke="black" points="673.5,-185 673.5,-204 822.5,-204 822.5,-185 673.5,-185"/>
<text text-anchor="middle" x="748" y="-192" font-family="Helvetica,sans-Serif" font-size="10.00">SignalEasel/bit_stream.hpp</text>
</a>
</g>
</g>
<!-- Node7&#45;&gt;Node10 -->
<g id="edge10" class="edge">
<title>Node7&#45;&gt;Node10</title>
<path fill="none" stroke="midnightblue" d="M560.68,-251.87C599.04,-240.33 667.13,-219.84 709.8,-207"/>
<polygon fill="midnightblue" stroke="midnightblue" points="710.98,-210.3 719.54,-204.06 708.96,-203.59 710.98,-210.3"/>
</g>
<!-- Node11 -->
<g id="node11" class="node">
<title>Node11</title>
<g id="a_node11"><a xlink:href="demodulator_8hpp.html" target="_top" xlink:title="Base class for demodulators.">
<polygon fill="none" stroke="black" points="346,-185 346,-204 504,-204 504,-185 346,-185"/>
<text text-anchor="middle" x="425" y="-192" font-family="Helvetica,sans-Serif" font-size="10.00">SignalEasel/demodulator.hpp</text>
</a>
</g>
</g>
<!-- Node7&#45;&gt;Node11 -->
<g id="edge13" class="edge">
<title>Node7&#45;&gt;Node11</title>
<path fill="none" stroke="midnightblue" d="M517.57,-251.73C499.68,-240.87 468.98,-222.22 447.87,-209.39"/>
<polygon fill="midnightblue" stroke="midnightblue" points="449.57,-206.33 439.2,-204.13 445.93,-212.31 449.57,-206.33"/>
</g>
<!-- Node13 -->
<g id="node13" class="node">
<title>Node13</title>
<g id="a_node13"><a xlink:href="modulator_8hpp.html" target="_top" xlink:title="Modulator base class.">
<polygon fill="none" stroke="black" points="182,-185 182,-204 328,-204 328,-185 182,-185"/>
<text text-anchor="middle" x="255" y="-192" font-family="Helvetica,sans-Serif" font-size="10.00">SignalEasel/modulator.hpp</text>
</a>
</g>
</g>
<!-- Node7&#45;&gt;Node13 -->
<g id="edge18" class="edge">
<title>Node7&#45;&gt;Node13</title>
<path fill="none" stroke="midnightblue" d="M495.5,-251.94C445.58,-240.22 355.97,-219.19 301.35,-206.38"/>
<polygon fill="midnightblue" stroke="midnightblue" points="302.11,-202.96 291.58,-204.08 300.51,-209.78 302.11,-202.96"/>
</g>
<!-- Node14 -->
<g id="node14" class="node">
<title>Node14</title>
<g id="a_node14"><a xlink:href="receiver_8hpp.html" target="_top" xlink:title="Base class for receivers. Demodulators that use pulse audio.">
<polygon fill="none" stroke="black" points="28,-185 28,-204 164,-204 164,-185 28,-185"/>
<text text-anchor="middle" x="96" y="-192" font-family="Helvetica,sans-Serif" font-size="10.00">SignalEasel/receiver.hpp</text>
</a>
</g>
</g>
<!-- Node7&#45;&gt;Node14 -->
<g id="edge21" class="edge">
<title>Node7&#45;&gt;Node14</title>
<path fill="none" stroke="midnightblue" d="M472.79,-253.03C401.52,-243.83 278.27,-227.31 173,-210 165.36,-208.74 157.3,-207.33 149.4,-205.89"/>
<polygon fill="midnightblue" stroke="midnightblue" points="149.98,-202.44 139.51,-204.06 148.71,-209.32 149.98,-202.44"/>
</g>
<!-- Node9&#45;&gt;Node4 -->
<g id="edge9" class="edge">
<title>Node9&#45;&gt;Node4</title>
<path fill="none" stroke="midnightblue" d="M680.34,-60.12C799.36,-52.04 1043.98,-35.27 1251,-20 1278.08,-18 1308.7,-15.62 1331.68,-13.81"/>
<polygon fill="midnightblue" stroke="midnightblue" points="1331.97,-17.3 1341.66,-13.02 1331.42,-10.32 1331.97,-17.3"/>
</g>
<!-- Node10&#45;&gt;Node4 -->
<g id="edge11" class="edge">
<title>Node10&#45;&gt;Node4</title>
<path fill="none" stroke="midnightblue" d="M815.79,-184.96C833.12,-182.89 851.74,-180.77 869,-179 962.63,-169.4 1211.6,-193.53 1291,-143 1332.34,-116.69 1353.66,-59.3 1362.27,-29.61"/>
<polygon fill="midnightblue" stroke="midnightblue" points="1365.72,-30.28 1364.97,-19.71 1358.97,-28.44 1365.72,-30.28"/>
</g>
<!-- Node10&#45;&gt;Node8 -->
<g id="edge12" class="edge">
<title>Node10&#45;&gt;Node8</title>
<path fill="none" stroke="midnightblue" d="M722.5,-184.87C688.23,-173.27 627.24,-152.62 589.36,-139.79"/>
<polygon fill="midnightblue" stroke="midnightblue" points="590.38,-136.44 579.79,-136.55 588.14,-143.08 590.38,-136.44"/>
</g>
<!-- Node11&#45;&gt;Node5 -->
<g id="edge14" class="edge">
<title>Node11&#45;&gt;Node5</title>
<path fill="none" stroke="midnightblue" d="M438.35,-184.78C451.54,-175.63 471.64,-160.2 485,-143 511.34,-109.09 494.33,-83.87 527,-56 560.5,-27.42 611.66,-16.99 644.72,-13.19"/>
<polygon fill="midnightblue" stroke="midnightblue" points="645.17,-16.66 654.77,-12.17 644.47,-9.69 645.17,-16.66"/>
</g>
<!-- Node11&#45;&gt;Node8 -->
<g id="edge15" class="edge">
<title>Node11&#45;&gt;Node8</title>
<path fill="none" stroke="midnightblue" d="M442.4,-184.87C464.61,-173.84 503.29,-154.66 529.26,-141.77"/>
<polygon fill="midnightblue" stroke="midnightblue" points="531.13,-144.75 538.53,-137.17 528.02,-138.48 531.13,-144.75"/>
</g>
<!-- Node12 -->
<g id="node12" class="node">
<title>Node12</title>
<g id="a_node12"><a xlink:href="settings_8hpp.html" target="_top" xlink:title="Settings structures for SignalEasel.">
<polygon fill="none" stroke="black" points="340,-118 340,-137 476,-137 476,-118 340,-118"/>
<text text-anchor="middle" x="408" y="-125" font-family="Helvetica,sans-Serif" font-size="10.00">SignalEasel/settings.hpp</text>
</a>
</g>
</g>
<!-- Node11&#45;&gt;Node12 -->
<g id="edge16" class="edge">
<title>Node11&#45;&gt;Node12</title>
<path fill="none" stroke="midnightblue" d="M422.71,-184.73C420.18,-175.09 416.06,-159.3 412.81,-146.91"/>
<polygon fill="midnightblue" stroke="midnightblue" points="416.17,-145.92 410.26,-137.13 409.4,-147.69 416.17,-145.92"/>
</g>
<!-- Node12&#45;&gt;Node5 -->
<g id="edge17" class="edge">
<title>Node12&#45;&gt;Node5</title>
<path fill="none" stroke="midnightblue" d="M415.63,-117.62C429.09,-102.57 458.58,-72.08 490,-56 540.4,-30.2 606.07,-18.84 644.67,-14.1"/>
<polygon fill="midnightblue" stroke="midnightblue" points="645.28,-17.56 654.81,-12.94 644.48,-10.6 645.28,-17.56"/>
</g>
<!-- Node13&#45;&gt;Node8 -->
<g id="edge19" class="edge">
<title>Node13&#45;&gt;Node8</title>
<path fill="none" stroke="midnightblue" d="M294.66,-184.94C354.35,-172.05 466.23,-147.88 522.25,-135.79"/>
<polygon fill="midnightblue" stroke="midnightblue" points="523.31,-139.14 532.35,-133.61 521.84,-132.3 523.31,-139.14"/>
</g>
<!-- Node13&#45;&gt;Node12 -->
<g id="edge20" class="edge">
<title>Node13&#45;&gt;Node12</title>
<path fill="none" stroke="midnightblue" d="M275.32,-184.87C301.72,-173.65 348.03,-153.98 378.36,-141.09"/>
<polygon fill="midnightblue" stroke="midnightblue" points="379.76,-144.3 387.6,-137.17 377.03,-137.86 379.76,-144.3"/>
</g>
<!-- Node14&#45;&gt;Node12 -->
<g id="edge28" class="edge">
<title>Node14&#45;&gt;Node12</title>
<path fill="none" stroke="midnightblue" d="M137.11,-184.94C193.69,-173.15 295.53,-151.93 356.94,-139.14"/>
<polygon fill="midnightblue" stroke="midnightblue" points="357.72,-142.55 366.8,-137.08 356.3,-135.7 357.72,-142.55"/>
</g>
<!-- Node15 -->
<g id="node15" class="node">
<title>Node15</title>
<g id="a_node15"><a xlink:href="pulse__audio_8hpp.html" target="_top" xlink:title="Reads audio from pulse audio.">
<polygon fill="none" stroke="black" points="166.5,-118 166.5,-137 321.5,-137 321.5,-118 166.5,-118"/>
<text text-anchor="middle" x="244" y="-125" font-family="Helvetica,sans-Serif" font-size="10.00">SignalEasel/pulse_audio.hpp</text>
</a>
</g>
</g>
<!-- Node14&#45;&gt;Node15 -->
<g id="edge22" class="edge">
<title>Node14&#45;&gt;Node15</title>
<path fill="none" stroke="midnightblue" d="M115.65,-184.87C141.09,-173.7 185.6,-154.15 214.95,-141.26"/>
<polygon fill="midnightblue" stroke="midnightblue" points="216.52,-144.39 224.27,-137.17 213.7,-137.98 216.52,-144.39"/>
</g>
<!-- Node15&#45;&gt;Node5 -->
<g id="edge24" class="edge">
<title>Node15&#45;&gt;Node5</title>
<path fill="none" stroke="midnightblue" d="M233.75,-117.79C218.13,-103.5 191.91,-74.81 209,-56 238.26,-23.79 543.46,-14.02 644.63,-11.65"/>
<polygon fill="midnightblue" stroke="midnightblue" points="644.93,-15.15 654.85,-11.42 644.77,-8.15 644.93,-15.15"/>
</g>
<!-- Node15&#45;&gt;Node9 -->
<g id="edge25" class="edge">
<title>Node15&#45;&gt;Node9</title>
<path fill="none" stroke="midnightblue" d="M295.06,-117.95C306.86,-115.99 319.37,-113.91 331,-112 404.43,-99.92 488.85,-86.23 545,-77.16"/>
<polygon fill="midnightblue" stroke="midnightblue" points="545.83,-80.57 555.14,-75.52 544.71,-73.66 545.83,-80.57"/>
</g>
<!-- Node16 -->
<g id="node16" class="node">
<title>Node16</title>
<g id="a_node16"><a xlink:title=" ">
<polygon fill="none" stroke="#bfbfbf" points="931,-56.5 931,-75.5 973,-75.5 973,-56.5 931,-56.5"/>
<text text-anchor="middle" x="952" y="-63.5" font-family="Helvetica,sans-Serif" font-size="10.00">array</text>
</a>
</g>
</g>
<!-- Node15&#45;&gt;Node16 -->
<g id="edge23" class="edge">
<title>Node15&#45;&gt;Node16</title>
<path fill="none" stroke="midnightblue" d="M290.39,-117.95C303.49,-115.76 317.77,-113.58 331,-112 556.11,-85.14 829.17,-72.09 920.53,-68.25"/>
<polygon fill="midnightblue" stroke="midnightblue" points="920.91,-71.73 930.75,-67.82 920.62,-64.74 920.91,-71.73"/>
</g>
<!-- Node17 -->
<g id="node17" class="node">
<title>Node17</title>
<g id="a_node17"><a xlink:title=" ">
<polygon fill="none" stroke="#bfbfbf" points="218.5,-56.5 218.5,-75.5 295.5,-75.5 295.5,-56.5 218.5,-56.5"/>
<text text-anchor="middle" x="257" y="-63.5" font-family="Helvetica,sans-Serif" font-size="10.00">pulse/error.h</text>
</a>
</g>
</g>
<!-- Node15&#45;&gt;Node17 -->
<g id="edge26" class="edge">
<title>Node15&#45;&gt;Node17</title>
<path fill="none" stroke="midnightblue" d="M245.86,-117.98C247.72,-109.49 250.62,-96.2 253,-85.32"/>
<polygon fill="midnightblue" stroke="midnightblue" points="256.43,-86.03 255.14,-75.51 249.59,-84.53 256.43,-86.03"/>
</g>
<!-- Node18 -->
<g id="node18" class="node">
<title>Node18</title>
<g id="a_node18"><a xlink:title=" ">
<polygon fill="none" stroke="#bfbfbf" points="314,-56.5 314,-75.5 402,-75.5 402,-56.5 314,-56.5"/>
<text text-anchor="middle" x="358" y="-63.5" font-family="Helvetica,sans-Serif" font-size="10.00">pulse/simple.h</text>
</a>
</g>
</g>
<!-- Node15&#45;&gt;Node18 -->
<g id="edge27" class="edge">
<title>Node15&#45;&gt;Node18</title>
<path fill="none" stroke="midnightblue" d="M260.33,-117.98C279.21,-108.12 310.51,-91.79 332.58,-80.27"/>
<polygon fill="midnightblue" stroke="midnightblue" points="334.45,-83.24 341.7,-75.51 331.21,-77.03 334.45,-83.24"/>
</g>
<!-- Node19&#45;&gt;Node4 -->
<g id="edge30" class="edge">
<title>Node19&#45;&gt;Node4</title>
<path fill="none" stroke="midnightblue" d="M1037.18,-251.92C1039.99,-234.97 1048.78,-197.21 1073,-179 1161.67,-112.33 1226.75,-203.1 1320,-143 1349.74,-123.83 1352,-109.63 1363,-76 1367.89,-61.04 1368.65,-43.13 1368.32,-29.9"/>
<polygon fill="midnightblue" stroke="midnightblue" points="1371.8,-29.49 1367.82,-19.67 1364.81,-29.83 1371.8,-29.49"/>
</g>
<!-- Node19&#45;&gt;Node5 -->
<g id="edge31" class="edge">
<title>Node19&#45;&gt;Node5</title>
<path fill="none" stroke="midnightblue" d="M984.25,-251.93C949.75,-244.58 904.41,-231.64 869,-210 826.65,-184.12 727.47,-70.24 690.88,-27.39"/>
<polygon fill="midnightblue" stroke="midnightblue" points="693.39,-24.94 684.25,-19.59 688.06,-29.48 693.39,-24.94"/>
</g>
<!-- Node19&#45;&gt;Node6 -->
<g id="edge33" class="edge">
<title>Node19&#45;&gt;Node6</title>
<path fill="none" stroke="midnightblue" d="M1050.43,-251.73C1068.32,-240.87 1099.02,-222.22 1120.13,-209.39"/>
<polygon fill="midnightblue" stroke="midnightblue" points="1122.07,-212.31 1128.8,-204.13 1118.43,-206.33 1122.07,-212.31"/>
</g>
<!-- Node19&#45;&gt;Node8 -->
<g id="edge32" class="edge">
<title>Node19&#45;&gt;Node8</title>
<path fill="none" stroke="midnightblue" d="M986.25,-251.98C973.78,-249.93 960.41,-247.81 948,-246 822.54,-227.69 781.18,-260.77 665,-210 645.34,-201.41 645.02,-192.06 628,-179 611.35,-166.22 591.82,-152.61 577.3,-142.74"/>
<polygon fill="midnightblue" stroke="midnightblue" points="579.23,-139.81 568.98,-137.12 575.31,-145.61 579.23,-139.81"/>
</g>
<!-- Node20 -->
<g id="node20" class="node">
<title>Node20</title>
<g id="a_node20"><a xlink:href="telemetry__data_8hpp.html" target="_top" xlink:title=" ">
<polygon fill="none" stroke="black" points="878,-179.5 878,-209.5 1026,-209.5 1026,-179.5 878,-179.5"/>
<text text-anchor="start" x="886" y="-197.5" font-family="Helvetica,sans-Serif" font-size="10.00">SignalEasel/aprs/telemetry</text>
<text text-anchor="middle" x="952" y="-186.5" font-family="Helvetica,sans-Serif" font-size="10.00">_data.hpp</text>
</a>
</g>
</g>
<!-- Node19&#45;&gt;Node20 -->
<g id="edge34" class="edge">
<title>Node19&#45;&gt;Node20</title>
<path fill="none" stroke="midnightblue" d="M1024.67,-251.73C1012.88,-242.61 994,-228 978.44,-215.96"/>
<polygon fill="midnightblue" stroke="midnightblue" points="980.26,-212.94 970.21,-209.59 975.97,-218.48 980.26,-212.94"/>
</g>
<!-- Node20&#45;&gt;Node16 -->
<g id="edge35" class="edge">
<title>Node20&#45;&gt;Node16</title>
<path fill="none" stroke="midnightblue" d="M952,-179.48C952,-156.72 952,-111.7 952,-86.06"/>
<polygon fill="midnightblue" stroke="midnightblue" points="955.5,-85.79 952,-75.79 948.5,-85.79 955.5,-85.79"/>
</g>
<!-- Node21 -->
<g id="node21" class="node">
<title>Node21</title>
<g id="a_node21"><a xlink:href="telemetry__parameter_8hpp.html" target="_top" xlink:title=" ">
<polygon fill="none" stroke="black" points="1134,-112.5 1134,-142.5 1282,-142.5 1282,-112.5 1134,-112.5"/>
<text text-anchor="start" x="1142" y="-130.5" font-family="Helvetica,sans-Serif" font-size="10.00">SignalEasel/aprs/telemetry</text>
<text text-anchor="middle" x="1208" y="-119.5" font-family="Helvetica,sans-Serif" font-size="10.00">_parameter.hpp</text>
</a>
</g>
</g>
<!-- Node20&#45;&gt;Node21 -->
<g id="edge36" class="edge">
<title>Node20&#45;&gt;Node21</title>
<path fill="none" stroke="midnightblue" d="M1007.23,-179.48C1046.97,-169.39 1100.71,-155.74 1142.59,-145.11"/>
<polygon fill="midnightblue" stroke="midnightblue" points="1143.59,-148.46 1152.42,-142.61 1141.87,-141.68 1143.59,-148.46"/>
</g>
<!-- Node21&#45;&gt;Node4 -->
<g id="edge37" class="edge">
<title>Node21&#45;&gt;Node4</title>
<path fill="none" stroke="midnightblue" d="M1233.37,-112.49C1250.16,-102.87 1272.42,-89.46 1291,-76 1312.59,-60.36 1335.62,-40.09 1350.6,-26.38"/>
<polygon fill="midnightblue" stroke="midnightblue" points="1353.07,-28.87 1358.03,-19.51 1348.32,-23.73 1353.07,-28.87"/>
</g>
<!-- Node21&#45;&gt;Node5 -->
<g id="edge38" class="edge">
<title>Node21&#45;&gt;Node5</title>
<path fill="none" stroke="midnightblue" d="M1185.82,-112.43C1156.14,-93.87 1104.85,-62.76 1084,-56 950.16,-12.6 780.01,-9.41 709.68,-10.2"/>
<polygon fill="midnightblue" stroke="midnightblue" points="709.22,-6.7 699.27,-10.35 709.32,-13.7 709.22,-6.7"/>
</g>
<!-- Node21&#45;&gt;Node22 -->
<g id="edge39" class="edge">
<title>Node21&#45;&gt;Node22</title>
<path fill="none" stroke="midnightblue" d="M1208.24,-112.4C1208.37,-104.47 1208.54,-94.46 1208.68,-85.86"/>
<polygon fill="midnightblue" stroke="midnightblue" points="1212.19,-85.72 1208.85,-75.66 1205.19,-85.6 1212.19,-85.72"/>
</g>
<!-- Node22&#45;&gt;Node5 -->
<g id="edge41" class="edge">
<title>Node22&#45;&gt;Node5</title>
<path fill="none" stroke="midnightblue" d="M1136.37,-57.47C1131.51,-56.97 1126.68,-56.48 1122,-56 967.38,-40.18 782.51,-21.59 709.22,-14.23"/>
<polygon fill="midnightblue" stroke="midnightblue" points="709.53,-10.75 699.23,-13.23 708.83,-17.71 709.53,-10.75"/>
</g>
<!-- Node23 -->
<g id="node23" class="node">
<title>Node23</title>
<g id="a_node23"><a xlink:title=" ">
<polygon fill="none" stroke="#bfbfbf" points="1176.5,-0.5 1176.5,-19.5 1241.5,-19.5 1241.5,-0.5 1176.5,-0.5"/>
<text text-anchor="middle" x="1209" y="-7.5" font-family="Helvetica,sans-Serif" font-size="10.00">exception</text>
</a>
</g>
</g>
<!-- Node22&#45;&gt;Node23 -->
<g id="edge40" class="edge">
<title>Node22&#45;&gt;Node23</title>
<path fill="none" stroke="midnightblue" d="M1209,-56.08C1209,-49.01 1209,-38.86 1209,-29.99"/>
<polygon fill="midnightblue" stroke="midnightblue" points="1212.5,-29.75 1209,-19.75 1205.5,-29.75 1212.5,-29.75"/>
</g>
<!-- Node24&#45;&gt;Node8 -->
<g id="edge43" class="edge">
<title>Node24&#45;&gt;Node8</title>
<path fill="none" stroke="midnightblue" d="M790.87,-255.86C742.95,-250.19 680.67,-237.66 632,-210 603.94,-194.05 580.18,-164.28 567.03,-145.48"/>
<polygon fill="midnightblue" stroke="midnightblue" points="569.8,-143.33 561.3,-137 564,-147.25 569.8,-143.33"/>
</g>
<!-- Node24&#45;&gt;Node20 -->
<g id="edge44" class="edge">
<title>Node24&#45;&gt;Node20</title>
<path fill="none" stroke="midnightblue" d="M883.88,-246.4C895.85,-237.45 911.53,-225.74 924.83,-215.8"/>
<polygon fill="midnightblue" stroke="midnightblue" points="927.24,-218.37 933.16,-209.58 923.05,-212.76 927.24,-218.37"/>
</g>
<!-- Node25&#45;&gt;Node4 -->
<g id="edge46" class="edge">
<title>Node25&#45;&gt;Node4</title>
<path fill="none" stroke="midnightblue" d="M1330.72,-253.45C1358.17,-246.89 1388.17,-234.26 1405,-210 1418.14,-191.06 1444.95,-184.41 1400,-56 1396.33,-45.52 1389.34,-35.41 1382.73,-27.44"/>
<polygon fill="midnightblue" stroke="midnightblue" points="1385.14,-24.87 1375.89,-19.71 1379.89,-29.51 1385.14,-24.87"/>
</g>
<!-- Node25&#45;&gt;Node5 -->
<g id="edge49" class="edge">
<title>Node25&#45;&gt;Node5</title>
<path fill="none" stroke="midnightblue" d="M1272.47,-251.7C1276.48,-235.34 1282.33,-199.99 1265,-179 1224.1,-129.46 1184.2,-167.97 1125,-143 1090.73,-128.54 1016.99,-68.63 982,-56 886.94,-21.67 766.17,-13.5 709.34,-11.58"/>
<polygon fill="midnightblue" stroke="midnightblue" points="709.27,-8.08 699.17,-11.28 709.07,-15.07 709.27,-8.08"/>
</g>
<!-- Node25&#45;&gt;Node8 -->
<g id="edge50" class="edge">
<title>Node25&#45;&gt;Node8</title>
<path fill="none" stroke="midnightblue" d="M1266.92,-251.93C1260.19,-234.64 1242.39,-195.77 1213,-179 1158.63,-147.97 716.99,-133.09 590.02,-129.42"/>
<polygon fill="midnightblue" stroke="midnightblue" points="589.83,-125.91 579.74,-129.13 589.64,-132.91 589.83,-125.91"/>
</g>
<!-- Node25&#45;&gt;Node10 -->
<g id="edge51" class="edge">
<title>Node25&#45;&gt;Node10</title>
<path fill="none" stroke="midnightblue" d="M1209.35,-252.95C1114.58,-241.15 931.41,-218.34 826.63,-205.29"/>
<polygon fill="midnightblue" stroke="midnightblue" points="826.78,-201.78 816.43,-204.02 825.92,-208.73 826.78,-201.78"/>
</g>
<!-- Node25&#45;&gt;Node16 -->
<g id="edge47" class="edge">
<title>Node25&#45;&gt;Node16</title>
<path fill="none" stroke="midnightblue" d="M1269.65,-251.91C1268.48,-235.26 1263.48,-198.52 1242,-179 1191.26,-132.89 1156.01,-167.56 1092,-143 1047.89,-126.07 1000.3,-97.89 973.52,-81.01"/>
<polygon fill="midnightblue" stroke="midnightblue" points="975.27,-77.98 964.96,-75.55 971.51,-83.88 975.27,-77.98"/>
</g>
<!-- Node26 -->
<g id="node26" class="node">
<title>Node26</title>
<g id="a_node26"><a xlink:title=" ">
<polygon fill="none" stroke="#bfbfbf" points="1336,-185 1336,-204 1396,-204 1396,-185 1336,-185"/>
<text text-anchor="middle" x="1366" y="-192" font-family="Helvetica,sans-Serif" font-size="10.00">iostream</text>
</a>
</g>
</g>
<!-- Node25&#45;&gt;Node26 -->
<g id="edge48" class="edge">
<title>Node25&#45;&gt;Node26</title>
<path fill="none" stroke="midnightblue" d="M1282.95,-251.73C1298.85,-240.96 1326.05,-222.55 1344.97,-209.74"/>
<polygon fill="midnightblue" stroke="midnightblue" points="1346.94,-212.63 1353.26,-204.13 1343.02,-206.84 1346.94,-212.63"/>
</g>
</g>
</svg>
