<?xml version="1.0" encoding="UTF-8" standalone="no"?>
<!DOCTYPE svg PUBLIC "-//W3C//DTD SVG 1.1//EN"
 "http://www.w3.org/Graphics/SVG/1.1/DTD/svg11.dtd">
<!-- Generated by graphviz version 2.43.0 (0)
 -->
<!-- Title: aprs.cpp Pages: 1 -->
<svg width="1157pt" height="364pt"
 viewBox="0.00 0.00 1157.00 364.00" xmlns="http://www.w3.org/2000/svg" xmlns:xlink="http://www.w3.org/1999/xlink">
<g id="graph0" class="graph" transform="scale(1 1) rotate(0) translate(4 360)">
<title>aprs.cpp</title>
<!-- Node1 -->
<g id="node1" class="node">
<title>Node1</title>
<g id="a_node1"><a xlink:title="APRS implementation.">
<polygon fill="#bfbfbf" stroke="black" points="224,-336.5 224,-355.5 282,-355.5 282,-336.5 224,-336.5"/>
<text text-anchor="middle" x="253" y="-343.5" font-family="Helvetica,sans-Serif" font-size="10.00">aprs.cpp</text>
</a>
</g>
</g>
<!-- Node2 -->
<g id="node2" class="node">
<title>Node2</title>
<g id="a_node2"><a xlink:title=" ">
<polygon fill="none" stroke="#bfbfbf" points="38,-280.5 38,-299.5 82,-299.5 82,-280.5 38,-280.5"/>
<text text-anchor="middle" x="60" y="-287.5" font-family="Helvetica,sans-Serif" font-size="10.00">bitset</text>
</a>
</g>
</g>
<!-- Node1&#45;&gt;Node2 -->
<g id="edge1" class="edge">
<title>Node1&#45;&gt;Node2</title>
<path fill="none" stroke="midnightblue" d="M223.71,-336.97C193.14,-328.57 143.57,-314.88 91.71,-300.18"/>
<polygon fill="midnightblue" stroke="midnightblue" points="92.58,-296.79 82.01,-297.42 90.67,-303.52 92.58,-296.79"/>
</g>
<!-- Node3 -->
<g id="node3" class="node">
<title>Node3</title>
<g id="a_node3"><a xlink:title=" ">
<polygon fill="none" stroke="#bfbfbf" points="100.5,-280.5 100.5,-299.5 147.5,-299.5 147.5,-280.5 100.5,-280.5"/>
<text text-anchor="middle" x="124" y="-287.5" font-family="Helvetica,sans-Serif" font-size="10.00">cmath</text>
</a>
</g>
</g>
<!-- Node1&#45;&gt;Node3 -->
<g id="edge2" class="edge">
<title>Node1&#45;&gt;Node3</title>
<path fill="none" stroke="midnightblue" d="M232.56,-336.44C211.33,-327.56 177.9,-313.56 153.75,-303.45"/>
<polygon fill="midnightblue" stroke="midnightblue" points="154.92,-300.15 144.34,-299.52 152.22,-306.61 154.92,-300.15"/>
</g>
<!-- Node4 -->
<g id="node4" class="node">
<title>Node4</title>
<g id="a_node4"><a xlink:title=" ">
<polygon fill="none" stroke="#bfbfbf" points="165.5,-280.5 165.5,-299.5 230.5,-299.5 230.5,-280.5 165.5,-280.5"/>
<text text-anchor="middle" x="198" y="-287.5" font-family="Helvetica,sans-Serif" font-size="10.00">stdexcept</text>
</a>
</g>
</g>
<!-- Node1&#45;&gt;Node4 -->
<g id="edge3" class="edge">
<title>Node1&#45;&gt;Node4</title>
<path fill="none" stroke="midnightblue" d="M243.92,-336.08C235.83,-328.14 223.8,-316.34 214.09,-306.8"/>
<polygon fill="midnightblue" stroke="midnightblue" points="216.5,-304.26 206.91,-299.75 211.6,-309.25 216.5,-304.26"/>
</g>
<!-- Node5 -->
<g id="node5" class="node">
<title>Node5</title>
<g id="a_node5"><a xlink:title=" ">
<polygon fill="none" stroke="#bfbfbf" points="467.5,-112.5 467.5,-131.5 514.5,-131.5 514.5,-112.5 467.5,-112.5"/>
<text text-anchor="middle" x="491" y="-119.5" font-family="Helvetica,sans-Serif" font-size="10.00">vector</text>
</a>
</g>
</g>
<!-- Node1&#45;&gt;Node5 -->
<g id="edge4" class="edge">
<title>Node1&#45;&gt;Node5</title>
<path fill="none" stroke="midnightblue" d="M282.07,-339.66C308.68,-333.62 348.06,-321.67 376,-300 432.16,-256.45 469.23,-177.3 483.9,-141.49"/>
<polygon fill="midnightblue" stroke="midnightblue" points="487.29,-142.43 487.73,-131.85 480.79,-139.85 487.29,-142.43"/>
</g>
<!-- Node6 -->
<g id="node6" class="node">
<title>Node6</title>
<g id="a_node6"><a xlink:href="aprs_8hpp.html" target="_top" xlink:title="APRS implementation.">
<polygon fill="none" stroke="black" points="249,-280.5 249,-299.5 367,-299.5 367,-280.5 249,-280.5"/>
<text text-anchor="middle" x="308" y="-287.5" font-family="Helvetica,sans-Serif" font-size="10.00">SignalEasel/aprs.hpp</text>
</a>
</g>
</g>
<!-- Node1&#45;&gt;Node6 -->
<g id="edge5" class="edge">
<title>Node1&#45;&gt;Node6</title>
<path fill="none" stroke="midnightblue" d="M262.08,-336.08C270.17,-328.14 282.2,-316.34 291.91,-306.8"/>
<polygon fill="midnightblue" stroke="midnightblue" points="294.4,-309.25 299.09,-299.75 289.5,-304.26 294.4,-309.25"/>
</g>
<!-- Node22 -->
<g id="node22" class="node">
<title>Node22</title>
<g id="a_node22"><a xlink:href="exception_8hpp.html" target="_top" xlink:title="SignalEasel exceptions.">
<polygon fill="none" stroke="black" points="969.5,-280.5 969.5,-299.5 1114.5,-299.5 1114.5,-280.5 969.5,-280.5"/>
<text text-anchor="middle" x="1042" y="-287.5" font-family="Helvetica,sans-Serif" font-size="10.00">SignalEasel/exception.hpp</text>
</a>
</g>
</g>
<!-- Node1&#45;&gt;Node22 -->
<g id="edge38" class="edge">
<title>Node1&#45;&gt;Node22</title>
<path fill="none" stroke="midnightblue" d="M282.02,-343.01C392.01,-335.49 785.77,-308.54 959.1,-296.67"/>
<polygon fill="midnightblue" stroke="midnightblue" points="959.45,-300.16 969.19,-295.98 958.98,-293.17 959.45,-300.16"/>
</g>
<!-- Node7 -->
<g id="node7" class="node">
<title>Node7</title>
<g id="a_node7"><a xlink:title=" ">
<polygon fill="none" stroke="#bfbfbf" points="179,-0.5 179,-19.5 229,-19.5 229,-0.5 179,-0.5"/>
<text text-anchor="middle" x="204" y="-7.5" font-family="Helvetica,sans-Serif" font-size="10.00">cstdint</text>
</a>
</g>
</g>
<!-- Node6&#45;&gt;Node7 -->
<g id="edge6" class="edge">
<title>Node6&#45;&gt;Node7</title>
<path fill="none" stroke="midnightblue" d="M250.43,-280.49C161.28,-265.67 0,-231.59 0,-179 0,-179 0,-179 0,-121 0,-45.24 110.35,-21.42 168.73,-14.12"/>
<polygon fill="midnightblue" stroke="midnightblue" points="169.45,-17.56 178.99,-12.94 168.65,-10.6 169.45,-17.56"/>
</g>
<!-- Node8 -->
<g id="node8" class="node">
<title>Node8</title>
<g id="a_node8"><a xlink:title=" ">
<polygon fill="none" stroke="#bfbfbf" points="625,-56.5 625,-75.5 669,-75.5 669,-56.5 625,-56.5"/>
<text text-anchor="middle" x="647" y="-63.5" font-family="Helvetica,sans-Serif" font-size="10.00">string</text>
</a>
</g>
</g>
<!-- Node6&#45;&gt;Node8 -->
<g id="edge7" class="edge">
<title>Node6&#45;&gt;Node8</title>
<path fill="none" stroke="midnightblue" d="M249.14,-280.44C220.21,-274.03 186.06,-262.96 160,-244 135.47,-226.16 130.08,-216.94 121,-188 110.02,-153.03 122.17,-131.82 153,-112 191.79,-87.07 511.43,-72.36 614.85,-68.21"/>
<polygon fill="midnightblue" stroke="midnightblue" points="615.14,-71.71 625,-67.81 614.87,-64.71 615.14,-71.71"/>
</g>
<!-- Node9 -->
<g id="node9" class="node">
<title>Node9</title>
<g id="a_node9"><a xlink:href="afsk_8hpp.html" target="_top" xlink:title="AFSK related modulation/demodulation.">
<polygon fill="none" stroke="black" points="558,-224.5 558,-243.5 676,-243.5 676,-224.5 558,-224.5"/>
<text text-anchor="middle" x="617" y="-231.5" font-family="Helvetica,sans-Serif" font-size="10.00">SignalEasel/afsk.hpp</text>
</a>
</g>
</g>
<!-- Node6&#45;&gt;Node9 -->
<g id="edge8" class="edge">
<title>Node6&#45;&gt;Node9</title>
<path fill="none" stroke="midnightblue" d="M356.96,-280.44C411.54,-270.9 499.79,-255.48 558.1,-245.29"/>
<polygon fill="midnightblue" stroke="midnightblue" points="559.02,-248.69 568.27,-243.52 557.81,-241.79 559.02,-248.69"/>
</g>
<!-- Node20 -->
<g id="node20" class="node">
<title>Node20</title>
<g id="a_node20"><a xlink:href="ax25_8hpp.html" target="_top" xlink:title="AX.25 tools.">
<polygon fill="none" stroke="black" points="169.5,-224.5 169.5,-243.5 290.5,-243.5 290.5,-224.5 169.5,-224.5"/>
<text text-anchor="middle" x="230" y="-231.5" font-family="Helvetica,sans-Serif" font-size="10.00">SignalEasel/ax25.hpp</text>
</a>
</g>
</g>
<!-- Node6&#45;&gt;Node20 -->
<g id="edge31" class="edge">
<title>Node6&#45;&gt;Node20</title>
<path fill="none" stroke="midnightblue" d="M295.47,-280.32C283.41,-271.98 264.97,-259.21 250.73,-249.35"/>
<polygon fill="midnightblue" stroke="midnightblue" points="252.72,-246.47 242.5,-243.65 248.73,-252.22 252.72,-246.47"/>
</g>
<!-- Node9&#45;&gt;Node5 -->
<g id="edge9" class="edge">
<title>Node9&#45;&gt;Node5</title>
<path fill="none" stroke="midnightblue" d="M591.52,-224.44C572.56,-217.09 546.96,-204.97 529,-188 514.93,-174.71 504.43,-155.05 498.07,-140.83"/>
<polygon fill="midnightblue" stroke="midnightblue" points="501.29,-139.47 494.18,-131.61 494.84,-142.19 501.29,-139.47"/>
</g>
<!-- Node10 -->
<g id="node10" class="node">
<title>Node10</title>
<g id="a_node10"><a xlink:href="constants_8hpp.html" target="_top" xlink:title="Common constants used throughout the library.">
<polygon fill="none" stroke="black" points="1005,-56.5 1005,-75.5 1149,-75.5 1149,-56.5 1005,-56.5"/>
<text text-anchor="middle" x="1077" y="-63.5" font-family="Helvetica,sans-Serif" font-size="10.00">SignalEasel/constants.hpp</text>
</a>
</g>
</g>
<!-- Node9&#45;&gt;Node10 -->
<g id="edge10" class="edge">
<title>Node9&#45;&gt;Node10</title>
<path fill="none" stroke="midnightblue" d="M676.32,-233.48C775.44,-233.15 969.16,-227.31 1023,-188 1056.65,-163.43 1069.72,-113.06 1074.48,-85.69"/>
<polygon fill="midnightblue" stroke="midnightblue" points="1077.98,-85.93 1076.05,-75.52 1071.07,-84.87 1077.98,-85.93"/>
</g>
<!-- Node11 -->
<g id="node11" class="node">
<title>Node11</title>
<g id="a_node11"><a xlink:href="bit__stream_8hpp.html" target="_top" xlink:title="The bit stream class.">
<polygon fill="none" stroke="black" points="295.5,-168.5 295.5,-187.5 444.5,-187.5 444.5,-168.5 295.5,-168.5"/>
<text text-anchor="middle" x="370" y="-175.5" font-family="Helvetica,sans-Serif" font-size="10.00">SignalEasel/bit_stream.hpp</text>
</a>
</g>
</g>
<!-- Node9&#45;&gt;Node11 -->
<g id="edge12" class="edge">
<title>Node9&#45;&gt;Node11</title>
<path fill="none" stroke="midnightblue" d="M577.86,-224.44C534.77,-215.02 465.44,-199.87 418.83,-189.68"/>
<polygon fill="midnightblue" stroke="midnightblue" points="419.47,-186.23 408.95,-187.52 417.98,-193.07 419.47,-186.23"/>
</g>
<!-- Node12 -->
<g id="node12" class="node">
<title>Node12</title>
<g id="a_node12"><a xlink:href="demodulator_8hpp.html" target="_top" xlink:title="Base class for demodulators.">
<polygon fill="none" stroke="black" points="538,-168.5 538,-187.5 696,-187.5 696,-168.5 538,-168.5"/>
<text text-anchor="middle" x="617" y="-175.5" font-family="Helvetica,sans-Serif" font-size="10.00">SignalEasel/demodulator.hpp</text>
</a>
</g>
</g>
<!-- Node9&#45;&gt;Node12 -->
<g id="edge15" class="edge">
<title>Node9&#45;&gt;Node12</title>
<path fill="none" stroke="midnightblue" d="M617,-224.08C617,-217.01 617,-206.86 617,-197.99"/>
<polygon fill="midnightblue" stroke="midnightblue" points="620.5,-197.75 617,-187.75 613.5,-197.75 620.5,-197.75"/>
</g>
<!-- Node14 -->
<g id="node14" class="node">
<title>Node14</title>
<g id="a_node14"><a xlink:href="modulator_8hpp.html" target="_top" xlink:title="Modulator base class.">
<polygon fill="none" stroke="black" points="714,-168.5 714,-187.5 860,-187.5 860,-168.5 714,-168.5"/>
<text text-anchor="middle" x="787" y="-175.5" font-family="Helvetica,sans-Serif" font-size="10.00">SignalEasel/modulator.hpp</text>
</a>
</g>
</g>
<!-- Node9&#45;&gt;Node14 -->
<g id="edge20" class="edge">
<title>Node9&#45;&gt;Node14</title>
<path fill="none" stroke="midnightblue" d="M643.94,-224.44C672.66,-215.32 718.33,-200.81 750.32,-190.65"/>
<polygon fill="midnightblue" stroke="midnightblue" points="751.72,-193.88 760.19,-187.52 749.6,-187.21 751.72,-193.88"/>
</g>
<!-- Node15 -->
<g id="node15" class="node">
<title>Node15</title>
<g id="a_node15"><a xlink:href="receiver_8hpp.html" target="_top" xlink:title="Base class for receivers. Demodulators that use pulse audio.">
<polygon fill="none" stroke="black" points="878,-168.5 878,-187.5 1014,-187.5 1014,-168.5 878,-168.5"/>
<text text-anchor="middle" x="946" y="-175.5" font-family="Helvetica,sans-Serif" font-size="10.00">SignalEasel/receiver.hpp</text>
</a>
</g>
</g>
<!-- Node9&#45;&gt;Node15 -->
<g id="edge23" class="edge">
<title>Node9&#45;&gt;Node15</title>
<path fill="none" stroke="midnightblue" d="M669.13,-224.44C727.49,-214.87 821.98,-199.36 884.06,-189.17"/>
<polygon fill="midnightblue" stroke="midnightblue" points="884.81,-192.59 894.11,-187.52 883.68,-185.68 884.81,-192.59"/>
</g>
<!-- Node10&#45;&gt;Node7 -->
<g id="edge11" class="edge">
<title>Node10&#45;&gt;Node7</title>
<path fill="none" stroke="midnightblue" d="M1004.6,-56.76C1001.69,-56.49 998.82,-56.24 996,-56 704.14,-31.51 350.62,-16.65 239.31,-12.33"/>
<polygon fill="midnightblue" stroke="midnightblue" points="239.13,-8.82 229,-11.93 238.86,-15.81 239.13,-8.82"/>
</g>
<!-- Node11&#45;&gt;Node5 -->
<g id="edge14" class="edge">
<title>Node11&#45;&gt;Node5</title>
<path fill="none" stroke="midnightblue" d="M389.17,-168.44C408.91,-159.64 439.89,-145.81 462.49,-135.72"/>
<polygon fill="midnightblue" stroke="midnightblue" points="464.21,-138.79 471.92,-131.52 461.36,-132.4 464.21,-138.79"/>
</g>
<!-- Node11&#45;&gt;Node7 -->
<g id="edge13" class="edge">
<title>Node11&#45;&gt;Node7</title>
<path fill="none" stroke="midnightblue" d="M361.08,-168.08C334.27,-141.27 254.19,-61.19 219.89,-26.89"/>
<polygon fill="midnightblue" stroke="midnightblue" points="222.11,-24.16 212.57,-19.57 217.16,-29.11 222.11,-24.16"/>
</g>
<!-- Node12&#45;&gt;Node5 -->
<g id="edge17" class="edge">
<title>Node12&#45;&gt;Node5</title>
<path fill="none" stroke="midnightblue" d="M597.03,-168.44C576.39,-159.6 543.94,-145.69 520.37,-135.59"/>
<polygon fill="midnightblue" stroke="midnightblue" points="521.44,-132.24 510.87,-131.52 518.68,-138.67 521.44,-132.24"/>
</g>
<!-- Node12&#45;&gt;Node8 -->
<g id="edge16" class="edge">
<title>Node12&#45;&gt;Node8</title>
<path fill="none" stroke="midnightblue" d="M619.35,-168.37C624.22,-150.54 635.46,-109.3 642.02,-85.27"/>
<polygon fill="midnightblue" stroke="midnightblue" points="645.4,-86.16 644.66,-75.59 638.65,-84.32 645.4,-86.16"/>
</g>
<!-- Node13 -->
<g id="node13" class="node">
<title>Node13</title>
<g id="a_node13"><a xlink:href="settings_8hpp.html" target="_top" xlink:title="Settings structures for SignalEasel.">
<polygon fill="none" stroke="black" points="669,-112.5 669,-131.5 805,-131.5 805,-112.5 669,-112.5"/>
<text text-anchor="middle" x="737" y="-119.5" font-family="Helvetica,sans-Serif" font-size="10.00">SignalEasel/settings.hpp</text>
</a>
</g>
</g>
<!-- Node12&#45;&gt;Node13 -->
<g id="edge18" class="edge">
<title>Node12&#45;&gt;Node13</title>
<path fill="none" stroke="midnightblue" d="M636.01,-168.44C655.59,-159.64 686.31,-145.81 708.73,-135.72"/>
<polygon fill="midnightblue" stroke="midnightblue" points="710.39,-138.81 718.07,-131.52 707.52,-132.43 710.39,-138.81"/>
</g>
<!-- Node13&#45;&gt;Node8 -->
<g id="edge19" class="edge">
<title>Node13&#45;&gt;Node8</title>
<path fill="none" stroke="midnightblue" d="M722.54,-112.32C708.5,-103.9 686.95,-90.97 670.46,-81.07"/>
<polygon fill="midnightblue" stroke="midnightblue" points="671.8,-77.8 661.42,-75.65 668.2,-83.8 671.8,-77.8"/>
</g>
<!-- Node14&#45;&gt;Node5 -->
<g id="edge21" class="edge">
<title>Node14&#45;&gt;Node5</title>
<path fill="none" stroke="midnightblue" d="M740.1,-168.44C680.04,-157.49 577.43,-138.77 524.6,-129.13"/>
<polygon fill="midnightblue" stroke="midnightblue" points="525.2,-125.68 514.73,-127.33 523.94,-132.57 525.2,-125.68"/>
</g>
<!-- Node14&#45;&gt;Node13 -->
<g id="edge22" class="edge">
<title>Node14&#45;&gt;Node13</title>
<path fill="none" stroke="midnightblue" d="M778.74,-168.08C771.54,-160.3 760.89,-148.8 752.15,-139.37"/>
<polygon fill="midnightblue" stroke="midnightblue" points="754.47,-136.71 745.1,-131.75 749.33,-141.47 754.47,-136.71"/>
</g>
<!-- Node15&#45;&gt;Node13 -->
<g id="edge30" class="edge">
<title>Node15&#45;&gt;Node13</title>
<path fill="none" stroke="midnightblue" d="M912.88,-168.44C876.88,-159.14 819.23,-144.25 779.81,-134.06"/>
<polygon fill="midnightblue" stroke="midnightblue" points="780.52,-130.63 769.96,-131.52 778.77,-137.41 780.52,-130.63"/>
</g>
<!-- Node16 -->
<g id="node16" class="node">
<title>Node16</title>
<g id="a_node16"><a xlink:href="pulse__audio_8hpp.html" target="_top" xlink:title="Simple pulse audio interface.">
<polygon fill="none" stroke="black" points="870.5,-112.5 870.5,-131.5 1025.5,-131.5 1025.5,-112.5 870.5,-112.5"/>
<text text-anchor="middle" x="948" y="-119.5" font-family="Helvetica,sans-Serif" font-size="10.00">SignalEasel/pulse_audio.hpp</text>
</a>
</g>
</g>
<!-- Node15&#45;&gt;Node16 -->
<g id="edge24" class="edge">
<title>Node15&#45;&gt;Node16</title>
<path fill="none" stroke="midnightblue" d="M946.33,-168.08C946.59,-161.01 946.97,-150.86 947.3,-141.99"/>
<polygon fill="midnightblue" stroke="midnightblue" points="950.8,-141.87 947.68,-131.75 943.81,-141.61 950.8,-141.87"/>
</g>
<!-- Node16&#45;&gt;Node8 -->
<g id="edge26" class="edge">
<title>Node16&#45;&gt;Node8</title>
<path fill="none" stroke="midnightblue" d="M896.72,-112.46C844.79,-103.71 762.2,-89.51 691,-76 687.26,-75.29 683.34,-74.52 679.45,-73.75"/>
<polygon fill="midnightblue" stroke="midnightblue" points="679.86,-70.26 669.36,-71.7 678.47,-77.12 679.86,-70.26"/>
</g>
<!-- Node16&#45;&gt;Node10 -->
<g id="edge27" class="edge">
<title>Node16&#45;&gt;Node10</title>
<path fill="none" stroke="midnightblue" d="M968.44,-112.44C989.67,-103.56 1023.1,-89.56 1047.25,-79.45"/>
<polygon fill="midnightblue" stroke="midnightblue" points="1048.78,-82.61 1056.66,-75.52 1046.08,-76.15 1048.78,-82.61"/>
</g>
<!-- Node17 -->
<g id="node17" class="node">
<title>Node17</title>
<g id="a_node17"><a xlink:title=" ">
<polygon fill="none" stroke="#bfbfbf" points="700,-56.5 700,-75.5 742,-75.5 742,-56.5 700,-56.5"/>
<text text-anchor="middle" x="721" y="-63.5" font-family="Helvetica,sans-Serif" font-size="10.00">array</text>
</a>
</g>
</g>
<!-- Node16&#45;&gt;Node17 -->
<g id="edge25" class="edge">
<title>Node16&#45;&gt;Node17</title>
<path fill="none" stroke="midnightblue" d="M912.03,-112.44C867.89,-101.94 793.78,-84.31 752.03,-74.38"/>
<polygon fill="midnightblue" stroke="midnightblue" points="752.69,-70.94 742.15,-72.03 751.07,-77.75 752.69,-70.94"/>
</g>
<!-- Node18 -->
<g id="node18" class="node">
<title>Node18</title>
<g id="a_node18"><a xlink:title=" ">
<polygon fill="none" stroke="#bfbfbf" points="909.5,-56.5 909.5,-75.5 986.5,-75.5 986.5,-56.5 909.5,-56.5"/>
<text text-anchor="middle" x="948" y="-63.5" font-family="Helvetica,sans-Serif" font-size="10.00">pulse/error.h</text>
</a>
</g>
</g>
<!-- Node16&#45;&gt;Node18 -->
<g id="edge28" class="edge">
<title>Node16&#45;&gt;Node18</title>
<path fill="none" stroke="midnightblue" d="M948,-112.08C948,-105.01 948,-94.86 948,-85.99"/>
<polygon fill="midnightblue" stroke="midnightblue" points="951.5,-85.75 948,-75.75 944.5,-85.75 951.5,-85.75"/>
</g>
<!-- Node19 -->
<g id="node19" class="node">
<title>Node19</title>
<g id="a_node19"><a xlink:title=" ">
<polygon fill="none" stroke="#bfbfbf" points="803,-56.5 803,-75.5 891,-75.5 891,-56.5 803,-56.5"/>
<text text-anchor="middle" x="847" y="-63.5" font-family="Helvetica,sans-Serif" font-size="10.00">pulse/simple.h</text>
</a>
</g>
</g>
<!-- Node16&#45;&gt;Node19 -->
<g id="edge29" class="edge">
<title>Node16&#45;&gt;Node19</title>
<path fill="none" stroke="midnightblue" d="M931.77,-112.32C915.65,-103.7 890.7,-90.36 872.04,-80.39"/>
<polygon fill="midnightblue" stroke="midnightblue" points="873.66,-77.28 863.19,-75.65 870.36,-83.46 873.66,-77.28"/>
</g>
<!-- Node20&#45;&gt;Node5 -->
<g id="edge36" class="edge">
<title>Node20&#45;&gt;Node5</title>
<path fill="none" stroke="midnightblue" d="M234.93,-224.26C243.43,-210.08 262.21,-182.19 286,-168 340.09,-135.73 414.6,-126.52 457.29,-123.95"/>
<polygon fill="midnightblue" stroke="midnightblue" points="457.62,-127.43 467.42,-123.42 457.26,-120.44 457.62,-127.43"/>
</g>
<!-- Node20&#45;&gt;Node7 -->
<g id="edge32" class="edge">
<title>Node20&#45;&gt;Node7</title>
<path fill="none" stroke="midnightblue" d="M177.72,-224.48C156.41,-218.15 133.81,-207.14 121,-188 83.96,-132.64 152.5,-58.13 186.5,-26.37"/>
<polygon fill="midnightblue" stroke="midnightblue" points="188.91,-28.91 193.94,-19.59 184.19,-23.74 188.91,-28.91"/>
</g>
<!-- Node20&#45;&gt;Node8 -->
<g id="edge35" class="edge">
<title>Node20&#45;&gt;Node8</title>
<path fill="none" stroke="midnightblue" d="M187.61,-224.45C167.42,-218.02 145.09,-206.93 133,-188 99.92,-136.19 168.45,-129.29 216,-112 289.47,-85.28 527.72,-72.29 614.77,-68.34"/>
<polygon fill="midnightblue" stroke="midnightblue" points="615.01,-71.83 624.85,-67.9 614.7,-64.84 615.01,-71.83"/>
</g>
<!-- Node20&#45;&gt;Node11 -->
<g id="edge37" class="edge">
<title>Node20&#45;&gt;Node11</title>
<path fill="none" stroke="midnightblue" d="M252.18,-224.44C275.43,-215.48 312.15,-201.31 338.42,-191.18"/>
<polygon fill="midnightblue" stroke="midnightblue" points="339.85,-194.38 347.92,-187.52 337.33,-187.85 339.85,-194.38"/>
</g>
<!-- Node20&#45;&gt;Node17 -->
<g id="edge33" class="edge">
<title>Node20&#45;&gt;Node17</title>
<path fill="none" stroke="midnightblue" d="M231.42,-224.45C234.18,-210.53 241.61,-183.03 259,-168 403.25,-43.33 490.57,-110.93 678,-76 681.74,-75.3 685.66,-74.53 689.55,-73.75"/>
<polygon fill="midnightblue" stroke="midnightblue" points="690.52,-77.12 699.6,-71.67 689.1,-70.27 690.52,-77.12"/>
</g>
<!-- Node21 -->
<g id="node21" class="node">
<title>Node21</title>
<g id="a_node21"><a xlink:title=" ">
<polygon fill="none" stroke="#bfbfbf" points="142,-168.5 142,-187.5 202,-187.5 202,-168.5 142,-168.5"/>
<text text-anchor="middle" x="172" y="-175.5" font-family="Helvetica,sans-Serif" font-size="10.00">iostream</text>
</a>
</g>
</g>
<!-- Node20&#45;&gt;Node21 -->
<g id="edge34" class="edge">
<title>Node20&#45;&gt;Node21</title>
<path fill="none" stroke="midnightblue" d="M220.68,-224.32C212.11,-216.34 199.19,-204.31 188.81,-194.65"/>
<polygon fill="midnightblue" stroke="midnightblue" points="191.19,-192.09 181.49,-187.83 186.42,-197.21 191.19,-192.09"/>
</g>
<!-- Node22&#45;&gt;Node8 -->
<g id="edge40" class="edge">
<title>Node22&#45;&gt;Node8</title>
<path fill="none" stroke="midnightblue" d="M1043.59,-280.29C1047.07,-258.25 1052.84,-199.78 1023,-168 972.51,-114.23 931.23,-154.53 861,-132 839.38,-125.06 835.46,-119.42 814,-112 767.83,-96.04 712.91,-82.2 679,-74.22"/>
<polygon fill="midnightblue" stroke="midnightblue" points="679.71,-70.79 669.18,-71.94 678.13,-77.61 679.71,-70.79"/>
</g>
<!-- Node23 -->
<g id="node23" class="node">
<title>Node23</title>
<g id="a_node23"><a xlink:title=" ">
<polygon fill="none" stroke="#bfbfbf" points="1070.5,-224.5 1070.5,-243.5 1135.5,-243.5 1135.5,-224.5 1070.5,-224.5"/>
<text text-anchor="middle" x="1103" y="-231.5" font-family="Helvetica,sans-Serif" font-size="10.00">exception</text>
</a>
</g>
</g>
<!-- Node22&#45;&gt;Node23 -->
<g id="edge39" class="edge">
<title>Node22&#45;&gt;Node23</title>
<path fill="none" stroke="midnightblue" d="M1051.8,-280.32C1060.82,-272.34 1074.41,-260.31 1085.32,-250.65"/>
<polygon fill="midnightblue" stroke="midnightblue" points="1087.85,-253.08 1093.02,-243.83 1083.21,-247.84 1087.85,-253.08"/>
</g>
</g>
</svg>
