<?xml version="1.0" encoding="UTF-8" standalone="no"?>
<!DOCTYPE svg PUBLIC "-//W3C//DTD SVG 1.1//EN"
 "http://www.w3.org/Graphics/SVG/1.1/DTD/svg11.dtd">
<!-- Generated by graphviz version 2.43.0 (0)
 -->
<!-- Title: aprs.hpp Pages: 1 -->
<svg width="1471pt" height="341pt"
 viewBox="0.00 0.00 1471.32 341.00" xmlns="http://www.w3.org/2000/svg" xmlns:xlink="http://www.w3.org/1999/xlink">
<g id="graph0" class="graph" transform="scale(1 1) rotate(0) translate(4 337)">
<title>aprs.hpp</title>
<!-- Node1 -->
<g id="node1" class="node">
<title>Node1</title>
<g id="a_node1"><a xlink:title=" ">
<polygon fill="#bfbfbf" stroke="black" points="907.5,-313.5 907.5,-332.5 966.5,-332.5 966.5,-313.5 907.5,-313.5"/>
<text text-anchor="middle" x="937" y="-320.5" font-family="Helvetica,sans-Serif" font-size="10.00">aprs.hpp</text>
</a>
</g>
</g>
<!-- Node2 -->
<g id="node2" class="node">
<title>Node2</title>
<g id="a_node2"><a xlink:title=" ">
<polygon fill="none" stroke="#bfbfbf" points="250,-0.5 250,-19.5 300,-19.5 300,-0.5 250,-0.5"/>
<text text-anchor="middle" x="275" y="-7.5" font-family="Helvetica,sans-Serif" font-size="10.00">cstdint</text>
</a>
</g>
</g>
<!-- Node1&#45;&gt;Node2 -->
<g id="edge1" class="edge">
<title>Node1&#45;&gt;Node2</title>
<path fill="none" stroke="midnightblue" d="M907.37,-321.29C769.88,-317.87 197.61,-302.23 122,-277 60.14,-256.36 0,-260.71 0,-195.5 0,-195.5 0,-195.5 0,-126.5 0,-23.84 164.92,-10.92 239.33,-10.31"/>
<polygon fill="midnightblue" stroke="midnightblue" points="239.62,-13.81 249.62,-10.3 239.62,-6.81 239.62,-13.81"/>
</g>
<!-- Node3 -->
<g id="node3" class="node">
<title>Node3</title>
<g id="a_node3"><a xlink:title=" ">
<polygon fill="none" stroke="#bfbfbf" points="1108,-0.5 1108,-19.5 1152,-19.5 1152,-0.5 1108,-0.5"/>
<text text-anchor="middle" x="1130" y="-7.5" font-family="Helvetica,sans-Serif" font-size="10.00">string</text>
</a>
</g>
</g>
<!-- Node1&#45;&gt;Node3 -->
<g id="edge2" class="edge">
<title>Node1&#45;&gt;Node3</title>
<path fill="none" stroke="midnightblue" d="M966.73,-321.27C1077.79,-317.75 1462,-298.16 1462,-195.5 1462,-195.5 1462,-195.5 1462,-126.5 1462,-94.05 1467.29,-77.52 1443,-56 1401.87,-19.55 1233.61,-12.59 1162.24,-11.29"/>
<polygon fill="midnightblue" stroke="midnightblue" points="1162.1,-7.78 1152.05,-11.13 1161.99,-14.78 1162.1,-7.78"/>
</g>
<!-- Node4 -->
<g id="node4" class="node">
<title>Node4</title>
<g id="a_node4"><a xlink:title=" ">
<polygon fill="none" stroke="#bfbfbf" points="1312,-185 1312,-204 1434,-204 1434,-185 1312,-185"/>
<text text-anchor="middle" x="1373" y="-192" font-family="Helvetica,sans-Serif" font-size="10.00">BoosterSeat/time.hpp</text>
</a>
</g>
</g>
<!-- Node1&#45;&gt;Node4 -->
<g id="edge3" class="edge">
<title>Node1&#45;&gt;Node4</title>
<path fill="none" stroke="midnightblue" d="M966.55,-320.42C1039.58,-316.16 1226.77,-302.97 1283,-277 1315.36,-262.06 1344.24,-231.29 1360.12,-212.13"/>
<polygon fill="midnightblue" stroke="midnightblue" points="1362.92,-214.23 1366.46,-204.24 1357.47,-209.84 1362.92,-214.23"/>
</g>
<!-- Node5 -->
<g id="node5" class="node">
<title>Node5</title>
<g id="a_node5"><a xlink:href="afsk_8hpp.html" target="_top" xlink:title="AFSK related modulation/demodulation.">
<polygon fill="none" stroke="black" points="590,-252 590,-271 708,-271 708,-252 590,-252"/>
<text text-anchor="middle" x="649" y="-259" font-family="Helvetica,sans-Serif" font-size="10.00">SignalEasel/afsk.hpp</text>
</a>
</g>
</g>
<!-- Node1&#45;&gt;Node5 -->
<g id="edge4" class="edge">
<title>Node1&#45;&gt;Node5</title>
<path fill="none" stroke="midnightblue" d="M907.26,-315.86C858.49,-305.78 760.91,-285.62 700.65,-273.17"/>
<polygon fill="midnightblue" stroke="midnightblue" points="701.08,-269.69 690.58,-271.09 699.67,-276.54 701.08,-269.69"/>
</g>
<!-- Node17 -->
<g id="node17" class="node">
<title>Node17</title>
<g id="a_node17"><a xlink:href="packets_8hpp.html" target="_top" xlink:title=" ">
<polygon fill="none" stroke="black" points="1116,-252 1116,-271 1274,-271 1274,-252 1116,-252"/>
<text text-anchor="middle" x="1195" y="-259" font-family="Helvetica,sans-Serif" font-size="10.00">SignalEasel/aprs/packets.hpp</text>
</a>
</g>
</g>
<!-- Node1&#45;&gt;Node17 -->
<g id="edge27" class="edge">
<title>Node1&#45;&gt;Node17</title>
<path fill="none" stroke="midnightblue" d="M966.6,-315.17C1010.99,-304.94 1095.23,-285.51 1148.06,-273.32"/>
<polygon fill="midnightblue" stroke="midnightblue" points="1148.91,-276.72 1157.87,-271.06 1147.34,-269.9 1148.91,-276.72"/>
</g>
<!-- Node22 -->
<g id="node22" class="node">
<title>Node22</title>
<g id="a_node22"><a xlink:href="telemetry__transcoder_8hpp.html" target="_top" xlink:title=" ">
<polygon fill="none" stroke="black" points="863,-246.5 863,-276.5 1011,-276.5 1011,-246.5 863,-246.5"/>
<text text-anchor="start" x="871" y="-264.5" font-family="Helvetica,sans-Serif" font-size="10.00">SignalEasel/aprs/telemetry</text>
<text text-anchor="middle" x="937" y="-253.5" font-family="Helvetica,sans-Serif" font-size="10.00">_transcoder.hpp</text>
</a>
</g>
</g>
<!-- Node1&#45;&gt;Node22 -->
<g id="edge40" class="edge">
<title>Node1&#45;&gt;Node22</title>
<path fill="none" stroke="midnightblue" d="M937,-313.48C937,-306.47 937,-296.19 937,-286.7"/>
<polygon fill="midnightblue" stroke="midnightblue" points="940.5,-286.52 937,-276.52 933.5,-286.52 940.5,-286.52"/>
</g>
<!-- Node23 -->
<g id="node23" class="node">
<title>Node23</title>
<g id="a_node23"><a xlink:href="ax25_8hpp.html" target="_top" xlink:title="AX.25 tools.">
<polygon fill="none" stroke="black" points="131.5,-252 131.5,-271 252.5,-271 252.5,-252 131.5,-252"/>
<text text-anchor="middle" x="192" y="-259" font-family="Helvetica,sans-Serif" font-size="10.00">SignalEasel/ax25.hpp</text>
</a>
</g>
</g>
<!-- Node1&#45;&gt;Node23 -->
<g id="edge43" class="edge">
<title>Node1&#45;&gt;Node23</title>
<path fill="none" stroke="midnightblue" d="M907.34,-319.63C798.76,-310.96 421.13,-280.8 262.76,-268.15"/>
<polygon fill="midnightblue" stroke="midnightblue" points="262.9,-264.65 252.65,-267.34 262.34,-271.63 262.9,-264.65"/>
</g>
<!-- Node6 -->
<g id="node6" class="node">
<title>Node6</title>
<g id="a_node6"><a xlink:title=" ">
<polygon fill="none" stroke="#bfbfbf" points="486.5,-118 486.5,-137 533.5,-137 533.5,-118 486.5,-118"/>
<text text-anchor="middle" x="510" y="-125" font-family="Helvetica,sans-Serif" font-size="10.00">vector</text>
</a>
</g>
</g>
<!-- Node5&#45;&gt;Node6 -->
<g id="edge5" class="edge">
<title>Node5&#45;&gt;Node6</title>
<path fill="none" stroke="midnightblue" d="M589.78,-257.26C556.43,-252.03 517.31,-239.47 496,-210 482.44,-191.24 491.51,-163.78 500.09,-146.02"/>
<polygon fill="midnightblue" stroke="midnightblue" points="503.25,-147.53 504.78,-137.05 497.05,-144.29 503.25,-147.53"/>
</g>
<!-- Node7 -->
<g id="node7" class="node">
<title>Node7</title>
<g id="a_node7"><a xlink:href="constants_8hpp.html" target="_top" xlink:title="Common constants used throughout the library.">
<polygon fill="none" stroke="black" points="362,-56.5 362,-75.5 506,-75.5 506,-56.5 362,-56.5"/>
<text text-anchor="middle" x="434" y="-63.5" font-family="Helvetica,sans-Serif" font-size="10.00">SignalEasel/constants.hpp</text>
</a>
</g>
</g>
<!-- Node5&#45;&gt;Node7 -->
<g id="edge6" class="edge">
<title>Node5&#45;&gt;Node7</title>
<path fill="none" stroke="midnightblue" d="M589.65,-255.37C555.16,-249.48 513.09,-236.88 485,-210 449.71,-176.23 438.79,-116.41 435.45,-85.96"/>
<polygon fill="midnightblue" stroke="midnightblue" points="438.92,-85.47 434.5,-75.84 431.95,-86.12 438.92,-85.47"/>
</g>
<!-- Node8 -->
<g id="node8" class="node">
<title>Node8</title>
<g id="a_node8"><a xlink:href="bit__stream_8hpp.html" target="_top" xlink:title="The bit stream class.">
<polygon fill="none" stroke="black" points="219.5,-185 219.5,-204 368.5,-204 368.5,-185 219.5,-185"/>
<text text-anchor="middle" x="294" y="-192" font-family="Helvetica,sans-Serif" font-size="10.00">SignalEasel/bit_stream.hpp</text>
</a>
</g>
</g>
<!-- Node5&#45;&gt;Node8 -->
<g id="edge8" class="edge">
<title>Node5&#45;&gt;Node8</title>
<path fill="none" stroke="midnightblue" d="M602.22,-251.94C537.35,-240.06 420.21,-218.61 350.52,-205.85"/>
<polygon fill="midnightblue" stroke="midnightblue" points="351.06,-202.39 340.6,-204.03 349.8,-209.28 351.06,-202.39"/>
</g>
<!-- Node9 -->
<g id="node9" class="node">
<title>Node9</title>
<g id="a_node9"><a xlink:href="demodulator_8hpp.html" target="_top" xlink:title="Base class for demodulators.">
<polygon fill="none" stroke="black" points="894,-185 894,-204 1052,-204 1052,-185 894,-185"/>
<text text-anchor="middle" x="973" y="-192" font-family="Helvetica,sans-Serif" font-size="10.00">SignalEasel/demodulator.hpp</text>
</a>
</g>
</g>
<!-- Node5&#45;&gt;Node9 -->
<g id="edge11" class="edge">
<title>Node5&#45;&gt;Node9</title>
<path fill="none" stroke="midnightblue" d="M691.69,-251.94C750.65,-240.11 856.94,-218.78 920.63,-206.01"/>
<polygon fill="midnightblue" stroke="midnightblue" points="921.36,-209.43 930.47,-204.03 919.98,-202.57 921.36,-209.43"/>
</g>
<!-- Node11 -->
<g id="node11" class="node">
<title>Node11</title>
<g id="a_node11"><a xlink:href="modulator_8hpp.html" target="_top" xlink:title="Modulator base class.">
<polygon fill="none" stroke="black" points="576,-185 576,-204 722,-204 722,-185 576,-185"/>
<text text-anchor="middle" x="649" y="-192" font-family="Helvetica,sans-Serif" font-size="10.00">SignalEasel/modulator.hpp</text>
</a>
</g>
</g>
<!-- Node5&#45;&gt;Node11 -->
<g id="edge16" class="edge">
<title>Node5&#45;&gt;Node11</title>
<path fill="none" stroke="midnightblue" d="M649,-251.73C649,-242.18 649,-226.62 649,-214.28"/>
<polygon fill="midnightblue" stroke="midnightblue" points="652.5,-214.13 649,-204.13 645.5,-214.13 652.5,-214.13"/>
</g>
<!-- Node12 -->
<g id="node12" class="node">
<title>Node12</title>
<g id="a_node12"><a xlink:href="receiver_8hpp.html" target="_top" xlink:title="Base class for receivers. Demodulators that use pulse audio.">
<polygon fill="none" stroke="black" points="740,-185 740,-204 876,-204 876,-185 740,-185"/>
<text text-anchor="middle" x="808" y="-192" font-family="Helvetica,sans-Serif" font-size="10.00">SignalEasel/receiver.hpp</text>
</a>
</g>
</g>
<!-- Node5&#45;&gt;Node12 -->
<g id="edge19" class="edge">
<title>Node5&#45;&gt;Node12</title>
<path fill="none" stroke="midnightblue" d="M670.11,-251.87C697.63,-240.62 745.95,-220.87 777.46,-207.99"/>
<polygon fill="midnightblue" stroke="midnightblue" points="779.12,-211.09 787.05,-204.06 776.47,-204.61 779.12,-211.09"/>
</g>
<!-- Node7&#45;&gt;Node2 -->
<g id="edge7" class="edge">
<title>Node7&#45;&gt;Node2</title>
<path fill="none" stroke="midnightblue" d="M408.81,-56.44C382.06,-47.36 339.6,-32.94 309.69,-22.78"/>
<polygon fill="midnightblue" stroke="midnightblue" points="310.67,-19.42 300.08,-19.52 308.42,-26.05 310.67,-19.42"/>
</g>
<!-- Node8&#45;&gt;Node2 -->
<g id="edge9" class="edge">
<title>Node8&#45;&gt;Node2</title>
<path fill="none" stroke="midnightblue" d="M293.08,-184.7C290.17,-156.69 281.06,-69.21 276.99,-30.16"/>
<polygon fill="midnightblue" stroke="midnightblue" points="280.42,-29.3 275.91,-19.71 273.46,-30.02 280.42,-29.3"/>
</g>
<!-- Node8&#45;&gt;Node6 -->
<g id="edge10" class="edge">
<title>Node8&#45;&gt;Node6</title>
<path fill="none" stroke="midnightblue" d="M322.68,-184.87C362.44,-172.9 434.15,-151.32 476.38,-138.62"/>
<polygon fill="midnightblue" stroke="midnightblue" points="477.62,-141.9 486.19,-135.67 475.6,-135.2 477.62,-141.9"/>
</g>
<!-- Node9&#45;&gt;Node3 -->
<g id="edge12" class="edge">
<title>Node9&#45;&gt;Node3</title>
<path fill="none" stroke="midnightblue" d="M980.57,-184.7C1005.18,-156.09 1083.19,-65.41 1115.63,-27.7"/>
<polygon fill="midnightblue" stroke="midnightblue" points="1118.64,-29.58 1122.5,-19.71 1113.33,-25.01 1118.64,-29.58"/>
</g>
<!-- Node9&#45;&gt;Node6 -->
<g id="edge13" class="edge">
<title>Node9&#45;&gt;Node6</title>
<path fill="none" stroke="midnightblue" d="M922.78,-184.96C910.44,-182.94 897.25,-180.83 885,-179 759.45,-160.21 609.77,-141.01 543.93,-132.73"/>
<polygon fill="midnightblue" stroke="midnightblue" points="544.08,-129.22 533.73,-131.45 543.21,-136.17 544.08,-129.22"/>
</g>
<!-- Node10 -->
<g id="node10" class="node">
<title>Node10</title>
<g id="a_node10"><a xlink:href="settings_8hpp.html" target="_top" xlink:title="Settings structures for SignalEasel.">
<polygon fill="none" stroke="black" points="840,-118 840,-137 976,-137 976,-118 840,-118"/>
<text text-anchor="middle" x="908" y="-125" font-family="Helvetica,sans-Serif" font-size="10.00">SignalEasel/settings.hpp</text>
</a>
</g>
</g>
<!-- Node9&#45;&gt;Node10 -->
<g id="edge14" class="edge">
<title>Node9&#45;&gt;Node10</title>
<path fill="none" stroke="midnightblue" d="M964.23,-184.73C953.9,-174.4 936.54,-157.04 923.83,-144.33"/>
<polygon fill="midnightblue" stroke="midnightblue" points="926.17,-141.72 916.63,-137.13 921.22,-146.67 926.17,-141.72"/>
</g>
<!-- Node10&#45;&gt;Node3 -->
<g id="edge15" class="edge">
<title>Node10&#45;&gt;Node3</title>
<path fill="none" stroke="midnightblue" d="M924.69,-117.82C963.19,-97.79 1058.46,-48.22 1104.4,-24.32"/>
<polygon fill="midnightblue" stroke="midnightblue" points="1106.17,-27.34 1113.42,-19.62 1102.94,-21.14 1106.17,-27.34"/>
</g>
<!-- Node11&#45;&gt;Node6 -->
<g id="edge17" class="edge">
<title>Node11&#45;&gt;Node6</title>
<path fill="none" stroke="midnightblue" d="M630.54,-184.87C606.76,-173.75 565.21,-154.32 537.65,-141.43"/>
<polygon fill="midnightblue" stroke="midnightblue" points="539.08,-138.23 528.53,-137.17 536.11,-144.57 539.08,-138.23"/>
</g>
<!-- Node11&#45;&gt;Node10 -->
<g id="edge18" class="edge">
<title>Node11&#45;&gt;Node10</title>
<path fill="none" stroke="midnightblue" d="M683.13,-184.94C729.61,-173.27 812.9,-152.37 864.02,-139.54"/>
<polygon fill="midnightblue" stroke="midnightblue" points="864.95,-142.91 873.8,-137.08 863.25,-136.12 864.95,-142.91"/>
</g>
<!-- Node12&#45;&gt;Node10 -->
<g id="edge26" class="edge">
<title>Node12&#45;&gt;Node10</title>
<path fill="none" stroke="midnightblue" d="M821.49,-184.73C838.05,-173.96 866.38,-155.55 886.09,-142.74"/>
<polygon fill="midnightblue" stroke="midnightblue" points="888.25,-145.51 894.73,-137.13 884.44,-139.64 888.25,-145.51"/>
</g>
<!-- Node13 -->
<g id="node13" class="node">
<title>Node13</title>
<g id="a_node13"><a xlink:href="pulse__audio_8hpp.html" target="_top" xlink:title="Reads audio from pulse audio.">
<polygon fill="none" stroke="black" points="666.5,-118 666.5,-137 821.5,-137 821.5,-118 666.5,-118"/>
<text text-anchor="middle" x="744" y="-125" font-family="Helvetica,sans-Serif" font-size="10.00">SignalEasel/pulse_audio.hpp</text>
</a>
</g>
</g>
<!-- Node12&#45;&gt;Node13 -->
<g id="edge20" class="edge">
<title>Node12&#45;&gt;Node13</title>
<path fill="none" stroke="midnightblue" d="M799.37,-184.73C789.2,-174.4 772.1,-157.04 759.59,-144.33"/>
<polygon fill="midnightblue" stroke="midnightblue" points="762,-141.8 752.49,-137.13 757.02,-146.71 762,-141.8"/>
</g>
<!-- Node13&#45;&gt;Node3 -->
<g id="edge22" class="edge">
<title>Node13&#45;&gt;Node3</title>
<path fill="none" stroke="midnightblue" d="M730.95,-117.9C711.44,-104.03 678.78,-76.21 697,-56 723.74,-26.34 1001.47,-14.98 1097.53,-11.92"/>
<polygon fill="midnightblue" stroke="midnightblue" points="1097.91,-15.41 1107.8,-11.6 1097.69,-8.42 1097.91,-15.41"/>
</g>
<!-- Node13&#45;&gt;Node7 -->
<g id="edge23" class="edge">
<title>Node13&#45;&gt;Node7</title>
<path fill="none" stroke="midnightblue" d="M699.58,-117.98C643.88,-107.28 548.4,-88.96 488.38,-77.44"/>
<polygon fill="midnightblue" stroke="midnightblue" points="488.81,-73.96 478.33,-75.51 487.49,-80.83 488.81,-73.96"/>
</g>
<!-- Node14 -->
<g id="node14" class="node">
<title>Node14</title>
<g id="a_node14"><a xlink:title=" ">
<polygon fill="none" stroke="#bfbfbf" points="801,-56.5 801,-75.5 843,-75.5 843,-56.5 801,-56.5"/>
<text text-anchor="middle" x="822" y="-63.5" font-family="Helvetica,sans-Serif" font-size="10.00">array</text>
</a>
</g>
</g>
<!-- Node13&#45;&gt;Node14 -->
<g id="edge21" class="edge">
<title>Node13&#45;&gt;Node14</title>
<path fill="none" stroke="midnightblue" d="M755.18,-117.98C767.57,-108.52 787.79,-93.1 802.75,-81.69"/>
<polygon fill="midnightblue" stroke="midnightblue" points="805.02,-84.36 810.85,-75.51 800.77,-78.79 805.02,-84.36"/>
</g>
<!-- Node15 -->
<g id="node15" class="node">
<title>Node15</title>
<g id="a_node15"><a xlink:title=" ">
<polygon fill="none" stroke="#bfbfbf" points="705.5,-56.5 705.5,-75.5 782.5,-75.5 782.5,-56.5 705.5,-56.5"/>
<text text-anchor="middle" x="744" y="-63.5" font-family="Helvetica,sans-Serif" font-size="10.00">pulse/error.h</text>
</a>
</g>
</g>
<!-- Node13&#45;&gt;Node15 -->
<g id="edge24" class="edge">
<title>Node13&#45;&gt;Node15</title>
<path fill="none" stroke="midnightblue" d="M744,-117.98C744,-109.58 744,-96.48 744,-85.66"/>
<polygon fill="midnightblue" stroke="midnightblue" points="747.5,-85.51 744,-75.51 740.5,-85.51 747.5,-85.51"/>
</g>
<!-- Node16 -->
<g id="node16" class="node">
<title>Node16</title>
<g id="a_node16"><a xlink:title=" ">
<polygon fill="none" stroke="#bfbfbf" points="861,-56.5 861,-75.5 949,-75.5 949,-56.5 861,-56.5"/>
<text text-anchor="middle" x="905" y="-63.5" font-family="Helvetica,sans-Serif" font-size="10.00">pulse/simple.h</text>
</a>
</g>
</g>
<!-- Node13&#45;&gt;Node16 -->
<g id="edge25" class="edge">
<title>Node13&#45;&gt;Node16</title>
<path fill="none" stroke="midnightblue" d="M767.07,-117.98C794.68,-107.77 841.12,-90.61 872.4,-79.05"/>
<polygon fill="midnightblue" stroke="midnightblue" points="873.81,-82.26 881.98,-75.51 871.38,-75.69 873.81,-82.26"/>
</g>
<!-- Node17&#45;&gt;Node2 -->
<g id="edge28" class="edge">
<title>Node17&#45;&gt;Node2</title>
<path fill="none" stroke="midnightblue" d="M1203.53,-251.88C1218.09,-236.12 1244.53,-202.14 1227,-179 1191.32,-131.89 1153.12,-166.75 1099,-143 1031.57,-113.41 1028.14,-78.42 958,-56 835.62,-16.89 432.72,-11.74 310.48,-11.09"/>
<polygon fill="midnightblue" stroke="midnightblue" points="310.21,-7.59 300.19,-11.04 310.18,-14.59 310.21,-7.59"/>
</g>
<!-- Node17&#45;&gt;Node3 -->
<g id="edge29" class="edge">
<title>Node17&#45;&gt;Node3</title>
<path fill="none" stroke="midnightblue" d="M1213.08,-251.91C1228.47,-243.54 1249.66,-229.27 1260,-210 1280.62,-171.57 1284.53,-151 1265,-112 1243.35,-68.76 1193.43,-39.27 1160.74,-23.79"/>
<polygon fill="midnightblue" stroke="midnightblue" points="1162.15,-20.59 1151.6,-19.61 1159.24,-26.95 1162.15,-20.59"/>
</g>
<!-- Node17&#45;&gt;Node4 -->
<g id="edge31" class="edge">
<title>Node17&#45;&gt;Node4</title>
<path fill="none" stroke="midnightblue" d="M1218.64,-251.87C1249.71,-240.52 1304.47,-220.52 1339.72,-207.65"/>
<polygon fill="midnightblue" stroke="midnightblue" points="1341.36,-210.78 1349.55,-204.06 1338.95,-204.21 1341.36,-210.78"/>
</g>
<!-- Node17&#45;&gt;Node6 -->
<g id="edge30" class="edge">
<title>Node17&#45;&gt;Node6</title>
<path fill="none" stroke="midnightblue" d="M1115.73,-253.88C1085.74,-251.38 1051.3,-248.54 1020,-246 919.35,-237.83 654.64,-260.17 567,-210 542.1,-195.75 525.51,-165.67 516.94,-146.31"/>
<polygon fill="midnightblue" stroke="midnightblue" points="520.16,-144.95 513.09,-137.06 513.7,-147.64 520.16,-144.95"/>
</g>
<!-- Node18 -->
<g id="node18" class="node">
<title>Node18</title>
<g id="a_node18"><a xlink:href="telemetry__data_8hpp.html" target="_top" xlink:title=" ">
<polygon fill="none" stroke="black" points="1070,-179.5 1070,-209.5 1218,-209.5 1218,-179.5 1070,-179.5"/>
<text text-anchor="start" x="1078" y="-197.5" font-family="Helvetica,sans-Serif" font-size="10.00">SignalEasel/aprs/telemetry</text>
<text text-anchor="middle" x="1144" y="-186.5" font-family="Helvetica,sans-Serif" font-size="10.00">_data.hpp</text>
</a>
</g>
</g>
<!-- Node17&#45;&gt;Node18 -->
<g id="edge32" class="edge">
<title>Node17&#45;&gt;Node18</title>
<path fill="none" stroke="midnightblue" d="M1188.12,-251.73C1181.3,-243.03 1170.56,-229.34 1161.38,-217.65"/>
<polygon fill="midnightblue" stroke="midnightblue" points="1163.98,-215.3 1155.05,-209.59 1158.47,-219.62 1163.98,-215.3"/>
</g>
<!-- Node18&#45;&gt;Node14 -->
<g id="edge33" class="edge">
<title>Node18&#45;&gt;Node14</title>
<path fill="none" stroke="midnightblue" d="M1120.48,-179.46C1090.07,-161.77 1035.05,-131.36 985,-112 930.78,-91.03 912.72,-92.57 853.2,-76.24"/>
<polygon fill="midnightblue" stroke="midnightblue" points="853.86,-72.79 843.28,-73.46 851.97,-79.53 853.86,-72.79"/>
</g>
<!-- Node19 -->
<g id="node19" class="node">
<title>Node19</title>
<g id="a_node19"><a xlink:href="telemetry__parameter_8hpp.html" target="_top" xlink:title=" ">
<polygon fill="none" stroke="black" points="1108,-112.5 1108,-142.5 1256,-142.5 1256,-112.5 1108,-112.5"/>
<text text-anchor="start" x="1116" y="-130.5" font-family="Helvetica,sans-Serif" font-size="10.00">SignalEasel/aprs/telemetry</text>
<text text-anchor="middle" x="1182" y="-119.5" font-family="Helvetica,sans-Serif" font-size="10.00">_parameter.hpp</text>
</a>
</g>
</g>
<!-- Node18&#45;&gt;Node19 -->
<g id="edge34" class="edge">
<title>Node18&#45;&gt;Node19</title>
<path fill="none" stroke="midnightblue" d="M1152.25,-179.4C1157.03,-171.22 1163.16,-160.73 1168.62,-151.39"/>
<polygon fill="midnightblue" stroke="midnightblue" points="1171.75,-152.98 1173.77,-142.58 1165.7,-149.44 1171.75,-152.98"/>
</g>
<!-- Node19&#45;&gt;Node2 -->
<g id="edge35" class="edge">
<title>Node19&#45;&gt;Node2</title>
<path fill="none" stroke="midnightblue" d="M1154.51,-112.44C1120.26,-95.67 1059.48,-68.37 1004,-56 869.46,-26 437.64,-14.5 310.52,-11.71"/>
<polygon fill="midnightblue" stroke="midnightblue" points="310.27,-8.21 300.2,-11.49 310.12,-15.21 310.27,-8.21"/>
</g>
<!-- Node19&#45;&gt;Node3 -->
<g id="edge36" class="edge">
<title>Node19&#45;&gt;Node3</title>
<path fill="none" stroke="midnightblue" d="M1175.62,-112.34C1166.17,-91.34 1148.44,-51.96 1138.08,-28.96"/>
<polygon fill="midnightblue" stroke="midnightblue" points="1141.2,-27.35 1133.9,-19.67 1134.82,-30.22 1141.2,-27.35"/>
</g>
<!-- Node20 -->
<g id="node20" class="node">
<title>Node20</title>
<g id="a_node20"><a xlink:href="exception_8hpp.html" target="_top" xlink:title="SignalEasel exceptions.">
<polygon fill="none" stroke="black" points="1288.5,-56.5 1288.5,-75.5 1433.5,-75.5 1433.5,-56.5 1288.5,-56.5"/>
<text text-anchor="middle" x="1361" y="-63.5" font-family="Helvetica,sans-Serif" font-size="10.00">SignalEasel/exception.hpp</text>
</a>
</g>
</g>
<!-- Node19&#45;&gt;Node20 -->
<g id="edge37" class="edge">
<title>Node19&#45;&gt;Node20</title>
<path fill="none" stroke="midnightblue" d="M1224.42,-112.4C1255.22,-102.16 1296.41,-88.47 1325.48,-78.81"/>
<polygon fill="midnightblue" stroke="midnightblue" points="1326.83,-82.05 1335.22,-75.57 1324.62,-75.4 1326.83,-82.05"/>
</g>
<!-- Node20&#45;&gt;Node3 -->
<g id="edge39" class="edge">
<title>Node20&#45;&gt;Node3</title>
<path fill="none" stroke="midnightblue" d="M1324.4,-56.44C1279.62,-45.98 1204.54,-28.42 1161.98,-18.47"/>
<polygon fill="midnightblue" stroke="midnightblue" points="1162.68,-15.05 1152.15,-16.18 1161.09,-21.86 1162.68,-15.05"/>
</g>
<!-- Node21 -->
<g id="node21" class="node">
<title>Node21</title>
<g id="a_node21"><a xlink:title=" ">
<polygon fill="none" stroke="#bfbfbf" points="1328.5,-0.5 1328.5,-19.5 1393.5,-19.5 1393.5,-0.5 1328.5,-0.5"/>
<text text-anchor="middle" x="1361" y="-7.5" font-family="Helvetica,sans-Serif" font-size="10.00">exception</text>
</a>
</g>
</g>
<!-- Node20&#45;&gt;Node21 -->
<g id="edge38" class="edge">
<title>Node20&#45;&gt;Node21</title>
<path fill="none" stroke="midnightblue" d="M1361,-56.08C1361,-49.01 1361,-38.86 1361,-29.99"/>
<polygon fill="midnightblue" stroke="midnightblue" points="1364.5,-29.75 1361,-19.75 1357.5,-29.75 1364.5,-29.75"/>
</g>
<!-- Node22&#45;&gt;Node6 -->
<g id="edge41" class="edge">
<title>Node22&#45;&gt;Node6</title>
<path fill="none" stroke="midnightblue" d="M862.93,-255.59C753.42,-247.68 558.55,-230.87 534,-210 515.77,-194.5 511,-165.91 509.96,-147.05"/>
<polygon fill="midnightblue" stroke="midnightblue" points="513.46,-146.91 509.71,-137 506.46,-147.09 513.46,-146.91"/>
</g>
<!-- Node22&#45;&gt;Node18 -->
<g id="edge42" class="edge">
<title>Node22&#45;&gt;Node18</title>
<path fill="none" stroke="midnightblue" d="M981.66,-246.48C1013.25,-236.56 1055.78,-223.2 1089.39,-212.65"/>
<polygon fill="midnightblue" stroke="midnightblue" points="1090.57,-215.95 1099.06,-209.61 1088.47,-209.27 1090.57,-215.95"/>
</g>
<!-- Node23&#45;&gt;Node2 -->
<g id="edge44" class="edge">
<title>Node23&#45;&gt;Node2</title>
<path fill="none" stroke="midnightblue" d="M131.28,-253.45C103.83,-246.89 73.83,-234.26 57,-210 49.15,-198.68 50.92,-191.36 57,-179 96.34,-99.01 194.12,-46.38 244.27,-23.72"/>
<polygon fill="midnightblue" stroke="midnightblue" points="245.9,-26.83 253.63,-19.59 243.07,-20.42 245.9,-26.83"/>
</g>
<!-- Node23&#45;&gt;Node3 -->
<g id="edge47" class="edge">
<title>Node23&#45;&gt;Node3</title>
<path fill="none" stroke="midnightblue" d="M189.75,-251.54C186.33,-236.09 181.2,-203.73 191,-179 224.31,-94.96 266.28,-81.53 353,-56 495.8,-13.96 968.34,-10.95 1097.26,-10.93"/>
<polygon fill="midnightblue" stroke="midnightblue" points="1097.64,-14.43 1107.64,-10.93 1097.64,-7.43 1097.64,-14.43"/>
</g>
<!-- Node23&#45;&gt;Node6 -->
<g id="edge48" class="edge">
<title>Node23&#45;&gt;Node6</title>
<path fill="none" stroke="midnightblue" d="M236.93,-251.97C275.15,-243.84 331.01,-229.89 377,-210 419.73,-191.53 465.04,-161.12 490.2,-143.13"/>
<polygon fill="midnightblue" stroke="midnightblue" points="492.47,-145.81 498.52,-137.11 488.36,-140.14 492.47,-145.81"/>
</g>
<!-- Node23&#45;&gt;Node8 -->
<g id="edge49" class="edge">
<title>Node23&#45;&gt;Node8</title>
<path fill="none" stroke="midnightblue" d="M205.76,-251.73C222.73,-240.92 251.81,-222.38 271.93,-209.57"/>
<polygon fill="midnightblue" stroke="midnightblue" points="273.91,-212.45 280.46,-204.13 270.15,-206.55 273.91,-212.45"/>
</g>
<!-- Node23&#45;&gt;Node14 -->
<g id="edge45" class="edge">
<title>Node23&#45;&gt;Node14</title>
<path fill="none" stroke="midnightblue" d="M191.31,-251.75C190.52,-235.16 191.34,-198.99 211,-179 392.54,5.62 531.56,-125.4 790.75,-75.86"/>
<polygon fill="midnightblue" stroke="midnightblue" points="791.69,-79.25 800.81,-73.86 790.32,-72.38 791.69,-79.25"/>
</g>
<!-- Node24 -->
<g id="node24" class="node">
<title>Node24</title>
<g id="a_node24"><a xlink:title=" ">
<polygon fill="none" stroke="#bfbfbf" points="66,-185 66,-204 126,-204 126,-185 66,-185"/>
<text text-anchor="middle" x="96" y="-192" font-family="Helvetica,sans-Serif" font-size="10.00">iostream</text>
</a>
</g>
</g>
<!-- Node23&#45;&gt;Node24 -->
<g id="edge46" class="edge">
<title>Node23&#45;&gt;Node24</title>
<path fill="none" stroke="midnightblue" d="M179.05,-251.73C163.15,-240.96 135.95,-222.55 117.03,-209.74"/>
<polygon fill="midnightblue" stroke="midnightblue" points="118.98,-206.84 108.74,-204.13 115.06,-212.63 118.98,-206.84"/>
</g>
</g>
</svg>
