<?xml version="1.0" encoding="UTF-8" standalone="no"?>
<!DOCTYPE svg PUBLIC "-//W3C//DTD SVG 1.1//EN"
 "http://www.w3.org/Graphics/SVG/1.1/DTD/svg11.dtd">
<!-- Generated by graphviz version 2.43.0 (0)
 -->
<!-- Title: ax25.hpp Pages: 1 -->
<svg width="1602pt" height="140pt"
 viewBox="0.00 0.00 1601.50 140.00" xmlns="http://www.w3.org/2000/svg" xmlns:xlink="http://www.w3.org/1999/xlink">
<g id="graph0" class="graph" transform="scale(1 1) rotate(0) translate(4 136)">
<title>ax25.hpp</title>
<!-- Node1 -->
<g id="node1" class="node">
<title>Node1</title>
<g id="a_node1"><a xlink:title="AX.25 tools.">
<polygon fill="#bfbfbf" stroke="black" points="1042,-112.5 1042,-131.5 1104,-131.5 1104,-112.5 1042,-112.5"/>
<text text-anchor="middle" x="1073" y="-119.5" font-family="Helvetica,sans-Serif" font-size="10.00">ax25.hpp</text>
</a>
</g>
</g>
<!-- Node2 -->
<g id="node2" class="node">
<title>Node2</title>
<g id="a_node2"><a xlink:href="aprs_8hpp.html" target="_top" xlink:title=" ">
<polygon fill="none" stroke="black" points="497.5,-56.5 497.5,-75.5 556.5,-75.5 556.5,-56.5 497.5,-56.5"/>
<text text-anchor="middle" x="527" y="-63.5" font-family="Helvetica,sans-Serif" font-size="10.00">aprs.hpp</text>
</a>
</g>
</g>
<!-- Node1&#45;&gt;Node2 -->
<g id="edge1" class="edge">
<title>Node1&#45;&gt;Node2</title>
<path fill="none" stroke="midnightblue" d="M1031.72,-116.92C926.08,-106.47 647.85,-78.95 556.51,-69.92"/>
<polygon fill="midnightblue" stroke="midnightblue" points="1031.39,-120.4 1041.68,-117.9 1032.08,-113.44 1031.39,-120.4"/>
</g>
<!-- Node8 -->
<g id="node8" class="node">
<title>Node8</title>
<g id="a_node8"><a xlink:href="aprs__receiver__test_8cpp.html" target="_top" xlink:title="Integration tests for signal_easel::aprs::Receiver.">
<polygon fill="none" stroke="black" points="801.5,-0.5 801.5,-19.5 928.5,-19.5 928.5,-0.5 801.5,-0.5"/>
<text text-anchor="middle" x="865" y="-7.5" font-family="Helvetica,sans-Serif" font-size="10.00">aprs_receiver_test.cpp</text>
</a>
</g>
</g>
<!-- Node1&#45;&gt;Node8 -->
<g id="edge10" class="edge">
<title>Node1&#45;&gt;Node8</title>
<path fill="none" stroke="midnightblue" d="M1031.56,-121.77C951.65,-122.27 780.86,-118.25 744,-76 718.99,-47.34 772.12,-29.16 815.72,-19.53"/>
<polygon fill="midnightblue" stroke="midnightblue" points="1031.79,-125.27 1041.76,-121.68 1031.73,-118.27 1031.79,-125.27"/>
</g>
<!-- Node11 -->
<g id="node11" class="node">
<title>Node11</title>
<g id="a_node11"><a xlink:href="ax25__address_8cpp.html" target="_top" xlink:title="The AX.25 address class implementation.">
<polygon fill="none" stroke="black" points="753,-56.5 753,-75.5 857,-75.5 857,-56.5 753,-56.5"/>
<text text-anchor="middle" x="805" y="-63.5" font-family="Helvetica,sans-Serif" font-size="10.00">ax25_address.cpp</text>
</a>
</g>
</g>
<!-- Node1&#45;&gt;Node11 -->
<g id="edge11" class="edge">
<title>Node1&#45;&gt;Node11</title>
<path fill="none" stroke="midnightblue" d="M1031.88,-112.71C981.96,-102.66 898.19,-85.78 847.61,-75.59"/>
<polygon fill="midnightblue" stroke="midnightblue" points="1031.5,-116.21 1042,-114.75 1032.88,-109.35 1031.5,-116.21"/>
</g>
<!-- Node12 -->
<g id="node12" class="node">
<title>Node12</title>
<g id="a_node12"><a xlink:href="ax25__address__test_8cpp.html" target="_top" xlink:title=" ">
<polygon fill="none" stroke="black" points="875,-56.5 875,-75.5 1003,-75.5 1003,-56.5 875,-56.5"/>
<text text-anchor="middle" x="939" y="-63.5" font-family="Helvetica,sans-Serif" font-size="10.00">ax25_address_test.cpp</text>
</a>
</g>
</g>
<!-- Node1&#45;&gt;Node12 -->
<g id="edge12" class="edge">
<title>Node1&#45;&gt;Node12</title>
<path fill="none" stroke="midnightblue" d="M1042.32,-108.64C1017.18,-98.5 982.25,-84.43 960.13,-75.52"/>
<polygon fill="midnightblue" stroke="midnightblue" points="1041.18,-111.95 1051.77,-112.44 1043.8,-105.46 1041.18,-111.95"/>
</g>
<!-- Node13 -->
<g id="node13" class="node">
<title>Node13</title>
<g id="a_node13"><a xlink:href="ax25__crc__test_8cpp.html" target="_top" xlink:title=" ">
<polygon fill="none" stroke="black" points="1021,-56.5 1021,-75.5 1125,-75.5 1125,-56.5 1021,-56.5"/>
<text text-anchor="middle" x="1073" y="-63.5" font-family="Helvetica,sans-Serif" font-size="10.00">ax25_crc_test.cpp</text>
</a>
</g>
</g>
<!-- Node1&#45;&gt;Node13 -->
<g id="edge13" class="edge">
<title>Node1&#45;&gt;Node13</title>
<path fill="none" stroke="midnightblue" d="M1073,-101.8C1073,-92.91 1073,-82.78 1073,-75.75"/>
<polygon fill="midnightblue" stroke="midnightblue" points="1069.5,-102.08 1073,-112.08 1076.5,-102.08 1069.5,-102.08"/>
</g>
<!-- Node14 -->
<g id="node14" class="node">
<title>Node14</title>
<g id="a_node14"><a xlink:href="ax25__decode_8cpp.html" target="_top" xlink:title="AX.25 decoding implementation.">
<polygon fill="none" stroke="black" points="1143.5,-56.5 1143.5,-75.5 1244.5,-75.5 1244.5,-56.5 1143.5,-56.5"/>
<text text-anchor="middle" x="1194" y="-63.5" font-family="Helvetica,sans-Serif" font-size="10.00">ax25_decode.cpp</text>
</a>
</g>
</g>
<!-- Node1&#45;&gt;Node14 -->
<g id="edge14" class="edge">
<title>Node1&#45;&gt;Node14</title>
<path fill="none" stroke="midnightblue" d="M1101.31,-108.37C1123.97,-98.26 1155.13,-84.35 1174.92,-75.52"/>
<polygon fill="midnightblue" stroke="midnightblue" points="1099.88,-105.17 1092.17,-112.44 1102.73,-111.56 1099.88,-105.17"/>
</g>
<!-- Node15 -->
<g id="node15" class="node">
<title>Node15</title>
<g id="a_node15"><a xlink:href="ax25__fcs_8cpp.html" target="_top" xlink:title="AX.25 Frame Check Sequence (FCS) tools.">
<polygon fill="none" stroke="black" points="1263,-56.5 1263,-75.5 1343,-75.5 1343,-56.5 1263,-56.5"/>
<text text-anchor="middle" x="1303" y="-63.5" font-family="Helvetica,sans-Serif" font-size="10.00">ax25_fcs.cpp</text>
</a>
</g>
</g>
<!-- Node1&#45;&gt;Node15 -->
<g id="edge15" class="edge">
<title>Node1&#45;&gt;Node15</title>
<path fill="none" stroke="midnightblue" d="M1113.93,-111.39C1157.21,-101.23 1224.85,-85.35 1266.41,-75.59"/>
<polygon fill="midnightblue" stroke="midnightblue" points="1112.95,-108.02 1104.02,-113.72 1114.55,-114.84 1112.95,-108.02"/>
</g>
<!-- Node16 -->
<g id="node16" class="node">
<title>Node16</title>
<g id="a_node16"><a xlink:href="ax25__frame_8cpp.html" target="_top" xlink:title="General AX.25 frame class.">
<polygon fill="none" stroke="black" points="1361.5,-56.5 1361.5,-75.5 1456.5,-75.5 1456.5,-56.5 1361.5,-56.5"/>
<text text-anchor="middle" x="1409" y="-63.5" font-family="Helvetica,sans-Serif" font-size="10.00">ax25_frame.cpp</text>
</a>
</g>
</g>
<!-- Node1&#45;&gt;Node16 -->
<g id="edge16" class="edge">
<title>Node1&#45;&gt;Node16</title>
<path fill="none" stroke="midnightblue" d="M1113.89,-114.43C1176.28,-104.4 1294.97,-85.33 1361.24,-74.68"/>
<polygon fill="midnightblue" stroke="midnightblue" points="1113.33,-110.97 1104.01,-116.02 1114.44,-117.89 1113.33,-110.97"/>
</g>
<!-- Node17 -->
<g id="node17" class="node">
<title>Node17</title>
<g id="a_node17"><a xlink:href="ax25__frame__test_8cpp.html" target="_top" xlink:title=" ">
<polygon fill="none" stroke="black" points="1474.5,-56.5 1474.5,-75.5 1593.5,-75.5 1593.5,-56.5 1474.5,-56.5"/>
<text text-anchor="middle" x="1534" y="-63.5" font-family="Helvetica,sans-Serif" font-size="10.00">ax25_frame_test.cpp</text>
</a>
</g>
</g>
<!-- Node1&#45;&gt;Node17 -->
<g id="edge17" class="edge">
<title>Node1&#45;&gt;Node17</title>
<path fill="none" stroke="midnightblue" d="M1114.06,-116.54C1185.59,-108.71 1337.7,-91.83 1466,-76 1468.72,-75.66 1471.5,-75.32 1474.3,-74.96"/>
<polygon fill="midnightblue" stroke="midnightblue" points="1113.66,-113.06 1104.1,-117.63 1114.42,-120.02 1113.66,-113.06"/>
</g>
<!-- Node3 -->
<g id="node3" class="node">
<title>Node3</title>
<g id="a_node3"><a xlink:href="aprs_8cpp.html" target="_top" xlink:title="APRS implementation.">
<polygon fill="none" stroke="black" points="0,-0.5 0,-19.5 58,-19.5 58,-0.5 0,-0.5"/>
<text text-anchor="middle" x="29" y="-7.5" font-family="Helvetica,sans-Serif" font-size="10.00">aprs.cpp</text>
</a>
</g>
</g>
<!-- Node2&#45;&gt;Node3 -->
<g id="edge2" class="edge">
<title>Node2&#45;&gt;Node3</title>
<path fill="none" stroke="midnightblue" d="M487.38,-62.93C407.45,-58.36 221.34,-45.71 67,-20 64.19,-19.53 61.28,-18.98 58.38,-18.37"/>
<polygon fill="midnightblue" stroke="midnightblue" points="487.31,-66.43 497.49,-63.5 487.7,-59.44 487.31,-66.43"/>
</g>
<!-- Node4 -->
<g id="node4" class="node">
<title>Node4</title>
<g id="a_node4"><a xlink:href="aprs__demodulator_8cpp.html" target="_top" xlink:title="Implementation of the APRS demodulator class.">
<polygon fill="none" stroke="black" points="76.5,-0.5 76.5,-19.5 201.5,-19.5 201.5,-0.5 76.5,-0.5"/>
<text text-anchor="middle" x="139" y="-7.5" font-family="Helvetica,sans-Serif" font-size="10.00">aprs_demodulator.cpp</text>
</a>
</g>
</g>
<!-- Node2&#45;&gt;Node4 -->
<g id="edge3" class="edge">
<title>Node2&#45;&gt;Node4</title>
<path fill="none" stroke="midnightblue" d="M486.9,-59.42C418.87,-49.95 280.4,-30.68 200.19,-19.52"/>
<polygon fill="midnightblue" stroke="midnightblue" points="486.81,-62.94 497.2,-60.85 487.78,-56.01 486.81,-62.94"/>
</g>
<!-- Node5 -->
<g id="node5" class="node">
<title>Node5</title>
<g id="a_node5"><a xlink:href="aprs__encoders_8cpp.html" target="_top" xlink:title="Encoding functions for APRS packets.">
<polygon fill="none" stroke="black" points="219.5,-0.5 219.5,-19.5 326.5,-19.5 326.5,-0.5 219.5,-0.5"/>
<text text-anchor="middle" x="273" y="-7.5" font-family="Helvetica,sans-Serif" font-size="10.00">aprs_encoders.cpp</text>
</a>
</g>
</g>
<!-- Node2&#45;&gt;Node5 -->
<g id="edge4" class="edge">
<title>Node2&#45;&gt;Node5</title>
<path fill="none" stroke="midnightblue" d="M487.47,-56.6C440.06,-46.52 361.04,-29.72 313.3,-19.57"/>
<polygon fill="midnightblue" stroke="midnightblue" points="486.86,-60.04 497.37,-58.7 488.31,-53.2 486.86,-60.04"/>
</g>
<!-- Node6 -->
<g id="node6" class="node">
<title>Node6</title>
<g id="a_node6"><a xlink:href="aprs__modulator_8cpp.html" target="_top" xlink:title="Implementation of the APRS modulator class.">
<polygon fill="none" stroke="black" points="344.5,-0.5 344.5,-19.5 457.5,-19.5 457.5,-0.5 344.5,-0.5"/>
<text text-anchor="middle" x="401" y="-7.5" font-family="Helvetica,sans-Serif" font-size="10.00">aprs_modulator.cpp</text>
</a>
</g>
</g>
<!-- Node2&#45;&gt;Node6 -->
<g id="edge5" class="edge">
<title>Node2&#45;&gt;Node6</title>
<path fill="none" stroke="midnightblue" d="M497.84,-52.5C474.22,-42.38 441.57,-28.39 420.87,-19.52"/>
<polygon fill="midnightblue" stroke="midnightblue" points="496.46,-55.72 507.03,-56.44 499.22,-49.29 496.46,-55.72"/>
</g>
<!-- Node7 -->
<g id="node7" class="node">
<title>Node7</title>
<g id="a_node7"><a xlink:href="aprs__receiver_8cpp.html" target="_top" xlink:title="Implementation of the APRS receiver class.">
<polygon fill="none" stroke="black" points="476,-0.5 476,-19.5 578,-19.5 578,-0.5 476,-0.5"/>
<text text-anchor="middle" x="527" y="-7.5" font-family="Helvetica,sans-Serif" font-size="10.00">aprs_receiver.cpp</text>
</a>
</g>
</g>
<!-- Node2&#45;&gt;Node7 -->
<g id="edge6" class="edge">
<title>Node2&#45;&gt;Node7</title>
<path fill="none" stroke="midnightblue" d="M527,-45.8C527,-36.91 527,-26.78 527,-19.75"/>
<polygon fill="midnightblue" stroke="midnightblue" points="523.5,-46.08 527,-56.08 530.5,-46.08 523.5,-46.08"/>
</g>
<!-- Node2&#45;&gt;Node8 -->
<g id="edge7" class="edge">
<title>Node2&#45;&gt;Node8</title>
<path fill="none" stroke="midnightblue" d="M566.66,-58.66C627.41,-48.96 743.57,-30.4 811.64,-19.53"/>
<polygon fill="midnightblue" stroke="midnightblue" points="566.02,-55.22 556.7,-60.26 567.13,-62.13 566.02,-55.22"/>
</g>
<!-- Node9 -->
<g id="node9" class="node">
<title>Node9</title>
<g id="a_node9"><a xlink:href="aprs__test_8cpp.html" target="_top" xlink:title=" ">
<polygon fill="none" stroke="black" points="596,-0.5 596,-19.5 678,-19.5 678,-0.5 596,-0.5"/>
<text text-anchor="middle" x="637" y="-7.5" font-family="Helvetica,sans-Serif" font-size="10.00">aprs_test.cpp</text>
</a>
</g>
</g>
<!-- Node2&#45;&gt;Node9 -->
<g id="edge8" class="edge">
<title>Node2&#45;&gt;Node9</title>
<path fill="none" stroke="midnightblue" d="M553.76,-51.86C574.16,-41.85 601.67,-28.35 619.37,-19.65"/>
<polygon fill="midnightblue" stroke="midnightblue" points="552.11,-48.78 544.67,-56.32 555.19,-55.06 552.11,-48.78"/>
</g>
<!-- Node10 -->
<g id="node10" class="node">
<title>Node10</title>
<g id="a_node10"><a xlink:href="pulse__test_8cpp.html" target="_top" xlink:title="PulseAudio output test. Does not use gtest.">
<polygon fill="none" stroke="black" points="696.5,-0.5 696.5,-19.5 783.5,-19.5 783.5,-0.5 696.5,-0.5"/>
<text text-anchor="middle" x="740" y="-7.5" font-family="Helvetica,sans-Serif" font-size="10.00">pulse_test.cpp</text>
</a>
</g>
</g>
<!-- Node2&#45;&gt;Node10 -->
<g id="edge9" class="edge">
<title>Node2&#45;&gt;Node10</title>
<path fill="none" stroke="midnightblue" d="M566.35,-55.02C606.59,-44.82 668.42,-29.15 706.43,-19.51"/>
<polygon fill="midnightblue" stroke="midnightblue" points="565.45,-51.64 556.62,-57.49 567.17,-58.43 565.45,-51.64"/>
</g>
</g>
</svg>
