<?xml version="1.0" encoding="UTF-8" standalone="no"?>
<!DOCTYPE svg PUBLIC "-//W3C//DTD SVG 1.1//EN"
 "http://www.w3.org/Graphics/SVG/1.1/DTD/svg11.dtd">
<!-- Generated by graphviz version 2.43.0 (0)
 -->
<!-- Title: ax25_address.cpp Pages: 1 -->
<svg width="493pt" height="196pt"
 viewBox="0.00 0.00 492.84 196.00" xmlns="http://www.w3.org/2000/svg" xmlns:xlink="http://www.w3.org/1999/xlink">
<g id="graph0" class="graph" transform="scale(1 1) rotate(0) translate(4 192)">
<title>ax25_address.cpp</title>
<!-- Node1 -->
<g id="node1" class="node">
<title>Node1</title>
<g id="a_node1"><a xlink:title="The AX.25 address class implementation.">
<polygon fill="#bfbfbf" stroke="black" points="251.34,-168.5 251.34,-187.5 355.34,-187.5 355.34,-168.5 251.34,-168.5"/>
<text text-anchor="middle" x="303.34" y="-175.5" font-family="Helvetica,sans-Serif" font-size="10.00">ax25_address.cpp</text>
</a>
</g>
</g>
<!-- Node2 -->
<g id="node2" class="node">
<title>Node2</title>
<g id="a_node2"><a xlink:href="ax25_8hpp.html" target="_top" xlink:title="AX.25 tools.">
<polygon fill="none" stroke="black" points="166.84,-112.5 166.84,-131.5 287.84,-131.5 287.84,-112.5 166.84,-112.5"/>
<text text-anchor="middle" x="227.34" y="-119.5" font-family="Helvetica,sans-Serif" font-size="10.00">SignalEasel/ax25.hpp</text>
</a>
</g>
</g>
<!-- Node1&#45;&gt;Node2 -->
<g id="edge1" class="edge">
<title>Node1&#45;&gt;Node2</title>
<path fill="none" stroke="midnightblue" d="M291.13,-168.32C279.57,-160.11 261.97,-147.6 248.18,-137.81"/>
<polygon fill="midnightblue" stroke="midnightblue" points="249.96,-134.77 239.78,-131.83 245.9,-140.48 249.96,-134.77"/>
</g>
<!-- Node9 -->
<g id="node9" class="node">
<title>Node9</title>
<g id="a_node9"><a xlink:href="exception_8hpp.html" target="_top" xlink:title="SignalEasel exceptions.">
<polygon fill="none" stroke="black" points="306.84,-112.5 306.84,-131.5 451.84,-131.5 451.84,-112.5 306.84,-112.5"/>
<text text-anchor="middle" x="379.34" y="-119.5" font-family="Helvetica,sans-Serif" font-size="10.00">SignalEasel/exception.hpp</text>
</a>
</g>
</g>
<!-- Node1&#45;&gt;Node9 -->
<g id="edge10" class="edge">
<title>Node1&#45;&gt;Node9</title>
<path fill="none" stroke="midnightblue" d="M315.55,-168.32C327.12,-160.11 344.72,-147.6 358.5,-137.81"/>
<polygon fill="midnightblue" stroke="midnightblue" points="360.79,-140.48 366.91,-131.83 356.73,-134.77 360.79,-140.48"/>
</g>
<!-- Node3 -->
<g id="node3" class="node">
<title>Node3</title>
<g id="a_node3"><a xlink:title=" ">
<polygon fill="none" stroke="#bfbfbf" points="100.34,-0.5 100.34,-19.5 150.34,-19.5 150.34,-0.5 100.34,-0.5"/>
<text text-anchor="middle" x="125.34" y="-7.5" font-family="Helvetica,sans-Serif" font-size="10.00">cstdint</text>
</a>
</g>
</g>
<!-- Node2&#45;&gt;Node3 -->
<g id="edge2" class="edge">
<title>Node2&#45;&gt;Node3</title>
<path fill="none" stroke="midnightblue" d="M166.6,-117.07C108.3,-111.88 26.25,-100.37 6.34,-76 -19.85,-43.93 46.13,-25.24 89.99,-16.69"/>
<polygon fill="midnightblue" stroke="midnightblue" points="90.86,-20.09 100.05,-14.83 89.58,-13.21 90.86,-20.09"/>
</g>
<!-- Node4 -->
<g id="node4" class="node">
<title>Node4</title>
<g id="a_node4"><a xlink:title=" ">
<polygon fill="none" stroke="#bfbfbf" points="15.34,-56.5 15.34,-75.5 57.34,-75.5 57.34,-56.5 15.34,-56.5"/>
<text text-anchor="middle" x="36.34" y="-63.5" font-family="Helvetica,sans-Serif" font-size="10.00">array</text>
</a>
</g>
</g>
<!-- Node2&#45;&gt;Node4 -->
<g id="edge3" class="edge">
<title>Node2&#45;&gt;Node4</title>
<path fill="none" stroke="midnightblue" d="M196.13,-112.46C165.62,-104.08 117.62,-90.78 67.37,-76.26"/>
<polygon fill="midnightblue" stroke="midnightblue" points="68.21,-72.86 57.63,-73.44 66.27,-79.59 68.21,-72.86"/>
</g>
<!-- Node5 -->
<g id="node5" class="node">
<title>Node5</title>
<g id="a_node5"><a xlink:title=" ">
<polygon fill="none" stroke="#bfbfbf" points="75.34,-56.5 75.34,-75.5 135.34,-75.5 135.34,-56.5 75.34,-56.5"/>
<text text-anchor="middle" x="105.34" y="-63.5" font-family="Helvetica,sans-Serif" font-size="10.00">iostream</text>
</a>
</g>
</g>
<!-- Node2&#45;&gt;Node5 -->
<g id="edge4" class="edge">
<title>Node2&#45;&gt;Node5</title>
<path fill="none" stroke="midnightblue" d="M208.01,-112.44C188.02,-103.6 156.6,-89.69 133.78,-79.59"/>
<polygon fill="midnightblue" stroke="midnightblue" points="135.14,-76.36 124.58,-75.52 132.31,-82.76 135.14,-76.36"/>
</g>
<!-- Node6 -->
<g id="node6" class="node">
<title>Node6</title>
<g id="a_node6"><a xlink:title=" ">
<polygon fill="none" stroke="#bfbfbf" points="357.34,-56.5 357.34,-75.5 401.34,-75.5 401.34,-56.5 357.34,-56.5"/>
<text text-anchor="middle" x="379.34" y="-63.5" font-family="Helvetica,sans-Serif" font-size="10.00">string</text>
</a>
</g>
</g>
<!-- Node2&#45;&gt;Node6 -->
<g id="edge5" class="edge">
<title>Node2&#45;&gt;Node6</title>
<path fill="none" stroke="midnightblue" d="M251.43,-112.44C277.34,-103.24 318.67,-88.56 347.3,-78.38"/>
<polygon fill="midnightblue" stroke="midnightblue" points="348.61,-81.63 356.86,-74.99 346.26,-75.04 348.61,-81.63"/>
</g>
<!-- Node7 -->
<g id="node7" class="node">
<title>Node7</title>
<g id="a_node7"><a xlink:title=" ">
<polygon fill="none" stroke="#bfbfbf" points="254.84,-0.5 254.84,-19.5 301.84,-19.5 301.84,-0.5 254.84,-0.5"/>
<text text-anchor="middle" x="278.34" y="-7.5" font-family="Helvetica,sans-Serif" font-size="10.00">vector</text>
</a>
</g>
</g>
<!-- Node2&#45;&gt;Node7 -->
<g id="edge6" class="edge">
<title>Node2&#45;&gt;Node7</title>
<path fill="none" stroke="midnightblue" d="M259.53,-112.49C277.88,-105.8 299.36,-94.45 310.34,-76 319.93,-59.89 307.51,-40.5 295.45,-27.12"/>
<polygon fill="midnightblue" stroke="midnightblue" points="297.67,-24.38 288.19,-19.64 292.65,-29.25 297.67,-24.38"/>
</g>
<!-- Node8 -->
<g id="node8" class="node">
<title>Node8</title>
<g id="a_node8"><a xlink:href="bit__stream_8hpp.html" target="_top" xlink:title="The bit stream class.">
<polygon fill="none" stroke="black" points="152.84,-56.5 152.84,-75.5 301.84,-75.5 301.84,-56.5 152.84,-56.5"/>
<text text-anchor="middle" x="227.34" y="-63.5" font-family="Helvetica,sans-Serif" font-size="10.00">SignalEasel/bit_stream.hpp</text>
</a>
</g>
</g>
<!-- Node2&#45;&gt;Node8 -->
<g id="edge7" class="edge">
<title>Node2&#45;&gt;Node8</title>
<path fill="none" stroke="midnightblue" d="M227.34,-112.08C227.34,-105.01 227.34,-94.86 227.34,-85.99"/>
<polygon fill="midnightblue" stroke="midnightblue" points="230.84,-85.75 227.34,-75.75 223.84,-85.75 230.84,-85.75"/>
</g>
<!-- Node8&#45;&gt;Node3 -->
<g id="edge8" class="edge">
<title>Node8&#45;&gt;Node3</title>
<path fill="none" stroke="midnightblue" d="M210.96,-56.32C194.67,-47.7 169.48,-34.36 150.63,-24.39"/>
<polygon fill="midnightblue" stroke="midnightblue" points="152.17,-21.24 141.69,-19.65 148.89,-27.43 152.17,-21.24"/>
</g>
<!-- Node8&#45;&gt;Node7 -->
<g id="edge9" class="edge">
<title>Node8&#45;&gt;Node7</title>
<path fill="none" stroke="midnightblue" d="M235.76,-56.08C243.19,-48.22 254.19,-36.57 263.16,-27.08"/>
<polygon fill="midnightblue" stroke="midnightblue" points="265.76,-29.42 270.08,-19.75 260.67,-24.62 265.76,-29.42"/>
</g>
<!-- Node9&#45;&gt;Node6 -->
<g id="edge12" class="edge">
<title>Node9&#45;&gt;Node6</title>
<path fill="none" stroke="midnightblue" d="M379.34,-112.08C379.34,-105.01 379.34,-94.86 379.34,-85.99"/>
<polygon fill="midnightblue" stroke="midnightblue" points="382.84,-85.75 379.34,-75.75 375.84,-85.75 382.84,-85.75"/>
</g>
<!-- Node10 -->
<g id="node10" class="node">
<title>Node10</title>
<g id="a_node10"><a xlink:title=" ">
<polygon fill="none" stroke="#bfbfbf" points="419.84,-56.5 419.84,-75.5 484.84,-75.5 484.84,-56.5 419.84,-56.5"/>
<text text-anchor="middle" x="452.34" y="-63.5" font-family="Helvetica,sans-Serif" font-size="10.00">exception</text>
</a>
</g>
</g>
<!-- Node9&#45;&gt;Node10 -->
<g id="edge11" class="edge">
<title>Node9&#45;&gt;Node10</title>
<path fill="none" stroke="midnightblue" d="M391.07,-112.32C402.18,-104.11 419.09,-91.6 432.33,-81.81"/>
<polygon fill="midnightblue" stroke="midnightblue" points="434.44,-84.59 440.4,-75.83 430.28,-78.97 434.44,-84.59"/>
</g>
</g>
</svg>
