<?xml version="1.0" encoding="UTF-8" standalone="no"?>
<!DOCTYPE svg PUBLIC "-//W3C//DTD SVG 1.1//EN"
 "http://www.w3.org/Graphics/SVG/1.1/DTD/svg11.dtd">
<!-- Generated by graphviz version 2.43.0 (0)
 -->
<!-- Title: ax25_fcs.cpp Pages: 1 -->
<svg width="385pt" height="196pt"
 viewBox="0.00 0.00 385.12 196.00" xmlns="http://www.w3.org/2000/svg" xmlns:xlink="http://www.w3.org/1999/xlink">
<g id="graph0" class="graph" transform="scale(1 1) rotate(0) translate(4 192)">
<title>ax25_fcs.cpp</title>
<!-- Node1 -->
<g id="node1" class="node">
<title>Node1</title>
<g id="a_node1"><a xlink:title="AX.25 Frame Check Sequence (FCS) tools.">
<polygon fill="#bfbfbf" stroke="black" points="100.17,-168.5 100.17,-187.5 180.17,-187.5 180.17,-168.5 100.17,-168.5"/>
<text text-anchor="middle" x="140.17" y="-175.5" font-family="Helvetica,sans-Serif" font-size="10.00">ax25_fcs.cpp</text>
</a>
</g>
</g>
<!-- Node2 -->
<g id="node2" class="node">
<title>Node2</title>
<g id="a_node2"><a xlink:href="ax25_8hpp.html" target="_top" xlink:title="AX.25 tools.">
<polygon fill="none" stroke="black" points="79.67,-112.5 79.67,-131.5 200.67,-131.5 200.67,-112.5 79.67,-112.5"/>
<text text-anchor="middle" x="140.17" y="-119.5" font-family="Helvetica,sans-Serif" font-size="10.00">SignalEasel/ax25.hpp</text>
</a>
</g>
</g>
<!-- Node1&#45;&gt;Node2 -->
<g id="edge1" class="edge">
<title>Node1&#45;&gt;Node2</title>
<path fill="none" stroke="midnightblue" d="M140.17,-168.08C140.17,-161.01 140.17,-150.86 140.17,-141.99"/>
<polygon fill="midnightblue" stroke="midnightblue" points="143.67,-141.75 140.17,-131.75 136.67,-141.75 143.67,-141.75"/>
</g>
<!-- Node3 -->
<g id="node3" class="node">
<title>Node3</title>
<g id="a_node3"><a xlink:title=" ">
<polygon fill="none" stroke="#bfbfbf" points="131.17,-0.5 131.17,-19.5 181.17,-19.5 181.17,-0.5 131.17,-0.5"/>
<text text-anchor="middle" x="156.17" y="-7.5" font-family="Helvetica,sans-Serif" font-size="10.00">cstdint</text>
</a>
</g>
</g>
<!-- Node2&#45;&gt;Node3 -->
<g id="edge2" class="edge">
<title>Node2&#45;&gt;Node3</title>
<path fill="none" stroke="midnightblue" d="M79.27,-112.97C33.68,-104.31 -17.13,-87.32 6.17,-56 32.35,-20.81 85.1,-12.1 120.54,-10.47"/>
<polygon fill="midnightblue" stroke="midnightblue" points="121.03,-13.96 130.93,-10.17 120.83,-6.96 121.03,-13.96"/>
</g>
<!-- Node4 -->
<g id="node4" class="node">
<title>Node4</title>
<g id="a_node4"><a xlink:title=" ">
<polygon fill="none" stroke="#bfbfbf" points="15.17,-56.5 15.17,-75.5 57.17,-75.5 57.17,-56.5 15.17,-56.5"/>
<text text-anchor="middle" x="36.17" y="-63.5" font-family="Helvetica,sans-Serif" font-size="10.00">array</text>
</a>
</g>
</g>
<!-- Node2&#45;&gt;Node4 -->
<g id="edge3" class="edge">
<title>Node2&#45;&gt;Node4</title>
<path fill="none" stroke="midnightblue" d="M123.46,-112.32C106.86,-103.7 81.17,-90.36 61.95,-80.39"/>
<polygon fill="midnightblue" stroke="midnightblue" points="63.33,-77.16 52.84,-75.65 60.1,-83.37 63.33,-77.16"/>
</g>
<!-- Node5 -->
<g id="node5" class="node">
<title>Node5</title>
<g id="a_node5"><a xlink:title=" ">
<polygon fill="none" stroke="#bfbfbf" points="75.17,-56.5 75.17,-75.5 135.17,-75.5 135.17,-56.5 75.17,-56.5"/>
<text text-anchor="middle" x="105.17" y="-63.5" font-family="Helvetica,sans-Serif" font-size="10.00">iostream</text>
</a>
</g>
</g>
<!-- Node2&#45;&gt;Node5 -->
<g id="edge4" class="edge">
<title>Node2&#45;&gt;Node5</title>
<path fill="none" stroke="midnightblue" d="M134.39,-112.08C129.5,-104.53 122.35,-93.49 116.34,-84.23"/>
<polygon fill="midnightblue" stroke="midnightblue" points="119.22,-82.24 110.84,-75.75 113.35,-86.05 119.22,-82.24"/>
</g>
<!-- Node6 -->
<g id="node6" class="node">
<title>Node6</title>
<g id="a_node6"><a xlink:title=" ">
<polygon fill="none" stroke="#bfbfbf" points="153.17,-56.5 153.17,-75.5 197.17,-75.5 197.17,-56.5 153.17,-56.5"/>
<text text-anchor="middle" x="175.17" y="-63.5" font-family="Helvetica,sans-Serif" font-size="10.00">string</text>
</a>
</g>
</g>
<!-- Node2&#45;&gt;Node6 -->
<g id="edge5" class="edge">
<title>Node2&#45;&gt;Node6</title>
<path fill="none" stroke="midnightblue" d="M145.95,-112.08C150.85,-104.53 158,-93.49 164.01,-84.23"/>
<polygon fill="midnightblue" stroke="midnightblue" points="167,-86.05 169.5,-75.75 161.12,-82.24 167,-86.05"/>
</g>
<!-- Node7 -->
<g id="node7" class="node">
<title>Node7</title>
<g id="a_node7"><a xlink:title=" ">
<polygon fill="none" stroke="#bfbfbf" points="316.67,-0.5 316.67,-19.5 363.67,-19.5 363.67,-0.5 316.67,-0.5"/>
<text text-anchor="middle" x="340.17" y="-7.5" font-family="Helvetica,sans-Serif" font-size="10.00">vector</text>
</a>
</g>
</g>
<!-- Node2&#45;&gt;Node7 -->
<g id="edge6" class="edge">
<title>Node2&#45;&gt;Node7</title>
<path fill="none" stroke="midnightblue" d="M200.79,-117.76C262.12,-113.06 350.83,-101.88 372.17,-76 384.35,-61.24 370.75,-41.06 357.71,-27.12"/>
<polygon fill="midnightblue" stroke="midnightblue" points="359.85,-24.31 350.3,-19.73 354.9,-29.27 359.85,-24.31"/>
</g>
<!-- Node8 -->
<g id="node8" class="node">
<title>Node8</title>
<g id="a_node8"><a xlink:href="bit__stream_8hpp.html" target="_top" xlink:title="The bit stream class.">
<polygon fill="none" stroke="black" points="214.67,-56.5 214.67,-75.5 363.67,-75.5 363.67,-56.5 214.67,-56.5"/>
<text text-anchor="middle" x="289.17" y="-63.5" font-family="Helvetica,sans-Serif" font-size="10.00">SignalEasel/bit_stream.hpp</text>
</a>
</g>
</g>
<!-- Node2&#45;&gt;Node8 -->
<g id="edge7" class="edge">
<title>Node2&#45;&gt;Node8</title>
<path fill="none" stroke="midnightblue" d="M163.78,-112.44C188.63,-103.44 227.95,-89.19 255.93,-79.05"/>
<polygon fill="midnightblue" stroke="midnightblue" points="257.46,-82.21 265.67,-75.52 255.08,-75.63 257.46,-82.21"/>
</g>
<!-- Node8&#45;&gt;Node3 -->
<g id="edge8" class="edge">
<title>Node8&#45;&gt;Node3</title>
<path fill="none" stroke="midnightblue" d="M268.1,-56.44C246.11,-47.52 211.44,-33.44 186.51,-23.32"/>
<polygon fill="midnightblue" stroke="midnightblue" points="187.73,-20.04 177.15,-19.52 185.1,-26.52 187.73,-20.04"/>
</g>
<!-- Node8&#45;&gt;Node7 -->
<g id="edge9" class="edge">
<title>Node8&#45;&gt;Node7</title>
<path fill="none" stroke="midnightblue" d="M297.59,-56.08C305.02,-48.22 316.02,-36.57 324.98,-27.08"/>
<polygon fill="midnightblue" stroke="midnightblue" points="327.59,-29.42 331.91,-19.75 322.5,-24.62 327.59,-29.42"/>
</g>
</g>
</svg>
