<?xml version="1.0" encoding="UTF-8" standalone="no"?>
<!DOCTYPE svg PUBLIC "-//W3C//DTD SVG 1.1//EN"
 "http://www.w3.org/Graphics/SVG/1.1/DTD/svg11.dtd">
<!-- Generated by graphviz version 2.43.0 (0)
 -->
<!-- Title: ax25.hpp Pages: 1 -->
<svg width="1001pt" height="140pt"
 viewBox="0.00 0.00 1001.00 140.00" xmlns="http://www.w3.org/2000/svg" xmlns:xlink="http://www.w3.org/1999/xlink">
<g id="graph0" class="graph" transform="scale(1 1) rotate(0) translate(4 136)">
<title>ax25.hpp</title>
<!-- Node1 -->
<g id="node1" class="node">
<title>Node1</title>
<g id="a_node1"><a xlink:title="AX.25 tools.">
<polygon fill="#bfbfbf" stroke="black" points="452,-112.5 452,-131.5 514,-131.5 514,-112.5 452,-112.5"/>
<text text-anchor="middle" x="483" y="-119.5" font-family="Helvetica,sans-Serif" font-size="10.00">ax25.hpp</text>
</a>
</g>
</g>
<!-- Node2 -->
<g id="node2" class="node">
<title>Node2</title>
<g id="a_node2"><a xlink:href="ax25__address_8cpp.html" target="_top" xlink:title="The AX.25 address class implementation.">
<polygon fill="none" stroke="black" points="0,-56.5 0,-75.5 104,-75.5 104,-56.5 0,-56.5"/>
<text text-anchor="middle" x="52" y="-63.5" font-family="Helvetica,sans-Serif" font-size="10.00">ax25_address.cpp</text>
</a>
</g>
</g>
<!-- Node1&#45;&gt;Node2 -->
<g id="edge1" class="edge">
<title>Node1&#45;&gt;Node2</title>
<path fill="none" stroke="midnightblue" d="M441.84,-116.34C373.48,-108.52 232.26,-92.05 113,-76 110.14,-75.61 107.2,-75.21 104.23,-74.8"/>
<polygon fill="midnightblue" stroke="midnightblue" points="441.45,-119.82 451.78,-117.47 442.24,-112.86 441.45,-119.82"/>
</g>
<!-- Node3 -->
<g id="node3" class="node">
<title>Node3</title>
<g id="a_node3"><a xlink:href="ax25__decode_8cpp.html" target="_top" xlink:title="AX.25 decoding implementation.">
<polygon fill="none" stroke="black" points="122.5,-56.5 122.5,-75.5 223.5,-75.5 223.5,-56.5 122.5,-56.5"/>
<text text-anchor="middle" x="173" y="-63.5" font-family="Helvetica,sans-Serif" font-size="10.00">ax25_decode.cpp</text>
</a>
</g>
</g>
<!-- Node1&#45;&gt;Node3 -->
<g id="edge2" class="edge">
<title>Node1&#45;&gt;Node3</title>
<path fill="none" stroke="midnightblue" d="M441.79,-113.82C384.9,-103.91 282.5,-86.07 221.84,-75.51"/>
<polygon fill="midnightblue" stroke="midnightblue" points="441.4,-117.31 451.86,-115.58 442.61,-110.41 441.4,-117.31"/>
</g>
<!-- Node4 -->
<g id="node4" class="node">
<title>Node4</title>
<g id="a_node4"><a xlink:href="ax25__fcs_8cpp.html" target="_top" xlink:title="AX.25 Frame Check Sequence (FCS) tools.">
<polygon fill="none" stroke="black" points="242,-56.5 242,-75.5 322,-75.5 322,-56.5 242,-56.5"/>
<text text-anchor="middle" x="282" y="-63.5" font-family="Helvetica,sans-Serif" font-size="10.00">ax25_fcs.cpp</text>
</a>
</g>
</g>
<!-- Node1&#45;&gt;Node4 -->
<g id="edge3" class="edge">
<title>Node1&#45;&gt;Node4</title>
<path fill="none" stroke="midnightblue" d="M441.88,-109.95C403.97,-99.77 348.49,-84.86 313.85,-75.56"/>
<polygon fill="midnightblue" stroke="midnightblue" points="441.03,-113.35 451.59,-112.56 442.84,-106.59 441.03,-113.35"/>
</g>
<!-- Node5 -->
<g id="node5" class="node">
<title>Node5</title>
<g id="a_node5"><a xlink:href="ax25__frame_8cpp.html" target="_top" xlink:title="General AX.25 frame class.">
<polygon fill="none" stroke="black" points="340.5,-56.5 340.5,-75.5 435.5,-75.5 435.5,-56.5 340.5,-56.5"/>
<text text-anchor="middle" x="388" y="-63.5" font-family="Helvetica,sans-Serif" font-size="10.00">ax25_frame.cpp</text>
</a>
</g>
</g>
<!-- Node1&#45;&gt;Node5 -->
<g id="edge4" class="edge">
<title>Node1&#45;&gt;Node5</title>
<path fill="none" stroke="midnightblue" d="M458.68,-107.18C441.2,-97.24 418.17,-84.15 403.23,-75.65"/>
<polygon fill="midnightblue" stroke="midnightblue" points="457.31,-110.43 467.74,-112.32 460.77,-104.34 457.31,-110.43"/>
</g>
<!-- Node6 -->
<g id="node6" class="node">
<title>Node6</title>
<g id="a_node6"><a xlink:href="aprs_8hpp.html" target="_top" xlink:title="APRS implementation.">
<polygon fill="none" stroke="black" points="453.5,-56.5 453.5,-75.5 512.5,-75.5 512.5,-56.5 453.5,-56.5"/>
<text text-anchor="middle" x="483" y="-63.5" font-family="Helvetica,sans-Serif" font-size="10.00">aprs.hpp</text>
</a>
</g>
</g>
<!-- Node1&#45;&gt;Node6 -->
<g id="edge5" class="edge">
<title>Node1&#45;&gt;Node6</title>
<path fill="none" stroke="midnightblue" d="M483,-101.8C483,-92.91 483,-82.78 483,-75.75"/>
<polygon fill="midnightblue" stroke="midnightblue" points="479.5,-102.08 483,-112.08 486.5,-102.08 479.5,-102.08"/>
</g>
<!-- Node14 -->
<g id="node14" class="node">
<title>Node14</title>
<g id="a_node14"><a xlink:href="ax25__address__test_8cpp.html" target="_top" xlink:title=" ">
<polygon fill="none" stroke="black" points="531,-56.5 531,-75.5 659,-75.5 659,-56.5 531,-56.5"/>
<text text-anchor="middle" x="595" y="-63.5" font-family="Helvetica,sans-Serif" font-size="10.00">ax25_address_test.cpp</text>
</a>
</g>
</g>
<!-- Node1&#45;&gt;Node14 -->
<g id="edge13" class="edge">
<title>Node1&#45;&gt;Node14</title>
<path fill="none" stroke="midnightblue" d="M510.25,-107.86C531.02,-97.85 559.02,-84.35 577.05,-75.65"/>
<polygon fill="midnightblue" stroke="midnightblue" points="508.48,-104.83 500.99,-112.32 511.52,-111.13 508.48,-104.83"/>
</g>
<!-- Node15 -->
<g id="node15" class="node">
<title>Node15</title>
<g id="a_node15"><a xlink:href="ax25__crc__test_8cpp.html" target="_top" xlink:title=" ">
<polygon fill="none" stroke="black" points="677,-56.5 677,-75.5 781,-75.5 781,-56.5 677,-56.5"/>
<text text-anchor="middle" x="729" y="-63.5" font-family="Helvetica,sans-Serif" font-size="10.00">ax25_crc_test.cpp</text>
</a>
</g>
</g>
<!-- Node1&#45;&gt;Node15 -->
<g id="edge14" class="edge">
<title>Node1&#45;&gt;Node15</title>
<path fill="none" stroke="midnightblue" d="M524.13,-111.97C570.31,-101.83 644.7,-85.5 690,-75.56"/>
<polygon fill="midnightblue" stroke="midnightblue" points="523.17,-108.6 514.16,-114.16 524.67,-115.44 523.17,-108.6"/>
</g>
<!-- Node16 -->
<g id="node16" class="node">
<title>Node16</title>
<g id="a_node16"><a xlink:href="ax25__frame__test_8cpp.html" target="_top" xlink:title=" ">
<polygon fill="none" stroke="black" points="799.5,-56.5 799.5,-75.5 918.5,-75.5 918.5,-56.5 799.5,-56.5"/>
<text text-anchor="middle" x="859" y="-63.5" font-family="Helvetica,sans-Serif" font-size="10.00">ax25_frame_test.cpp</text>
</a>
</g>
</g>
<!-- Node1&#45;&gt;Node16 -->
<g id="edge15" class="edge">
<title>Node1&#45;&gt;Node16</title>
<path fill="none" stroke="midnightblue" d="M524.21,-115.08C590.9,-105.5 722.72,-86.57 799.56,-75.54"/>
<polygon fill="midnightblue" stroke="midnightblue" points="523.49,-111.65 514.09,-116.54 524.49,-118.58 523.49,-111.65"/>
</g>
<!-- Node17 -->
<g id="node17" class="node">
<title>Node17</title>
<g id="a_node17"><a xlink:href="tmp_8cpp.html" target="_top" xlink:title=" ">
<polygon fill="none" stroke="black" points="937,-56.5 937,-75.5 993,-75.5 993,-56.5 937,-56.5"/>
<text text-anchor="middle" x="965" y="-63.5" font-family="Helvetica,sans-Serif" font-size="10.00">tmp.cpp</text>
</a>
</g>
</g>
<!-- Node1&#45;&gt;Node17 -->
<g id="edge16" class="edge">
<title>Node1&#45;&gt;Node17</title>
<path fill="none" stroke="midnightblue" d="M524.24,-118.73C603.1,-113.98 780.59,-101.26 928,-76 930.87,-75.51 933.84,-74.92 936.8,-74.28"/>
<polygon fill="midnightblue" stroke="midnightblue" points="524,-115.24 514.22,-119.33 524.41,-122.23 524,-115.24"/>
</g>
<!-- Node7 -->
<g id="node7" class="node">
<title>Node7</title>
<g id="a_node7"><a xlink:href="aprs__demodulator_8cpp.html" target="_top" xlink:title="Implementation of the APRS demodulator class.">
<polygon fill="none" stroke="black" points="32.5,-0.5 32.5,-19.5 157.5,-19.5 157.5,-0.5 32.5,-0.5"/>
<text text-anchor="middle" x="95" y="-7.5" font-family="Helvetica,sans-Serif" font-size="10.00">aprs_demodulator.cpp</text>
</a>
</g>
</g>
<!-- Node6&#45;&gt;Node7 -->
<g id="edge6" class="edge">
<title>Node6&#45;&gt;Node7</title>
<path fill="none" stroke="midnightblue" d="M443.12,-56.07C400.61,-49.95 245.99,-30.22 157.62,-18.97"/>
<polygon fill="midnightblue" stroke="midnightblue" points="442.77,-59.56 453.19,-57.63 443.84,-52.64 442.77,-59.56"/>
</g>
<!-- Node8 -->
<g id="node8" class="node">
<title>Node8</title>
<g id="a_node8"><a xlink:href="aprs__encoders_8cpp.html" target="_top" xlink:title="Encoding functions for APRS packets.">
<polygon fill="none" stroke="black" points="175.5,-0.5 175.5,-19.5 282.5,-19.5 282.5,-0.5 175.5,-0.5"/>
<text text-anchor="middle" x="229" y="-7.5" font-family="Helvetica,sans-Serif" font-size="10.00">aprs_encoders.cpp</text>
</a>
</g>
</g>
<!-- Node6&#45;&gt;Node8 -->
<g id="edge7" class="edge">
<title>Node6&#45;&gt;Node8</title>
<path fill="none" stroke="midnightblue" d="M443.16,-55.63C378.25,-41.26 313.19,-27.92 271.7,-19.54"/>
<polygon fill="midnightblue" stroke="midnightblue" points="442.63,-59.1 453.15,-57.85 444.14,-52.26 442.63,-59.1"/>
</g>
<!-- Node9 -->
<g id="node9" class="node">
<title>Node9</title>
<g id="a_node9"><a xlink:href="aprs__modulator_8cpp.html" target="_top" xlink:title="Implementation of the APRS modulator class.">
<polygon fill="none" stroke="black" points="300.5,-0.5 300.5,-19.5 413.5,-19.5 413.5,-0.5 300.5,-0.5"/>
<text text-anchor="middle" x="357" y="-7.5" font-family="Helvetica,sans-Serif" font-size="10.00">aprs_modulator.cpp</text>
</a>
</g>
</g>
<!-- Node6&#45;&gt;Node9 -->
<g id="edge8" class="edge">
<title>Node6&#45;&gt;Node9</title>
<path fill="none" stroke="midnightblue" d="M453.84,-52.5C430.22,-42.38 397.57,-28.39 376.87,-19.52"/>
<polygon fill="midnightblue" stroke="midnightblue" points="452.46,-55.72 463.03,-56.44 455.22,-49.29 452.46,-55.72"/>
</g>
<!-- Node10 -->
<g id="node10" class="node">
<title>Node10</title>
<g id="a_node10"><a xlink:href="aprs__receiver_8cpp.html" target="_top" xlink:title="Implementation of the APRS receiver class.">
<polygon fill="none" stroke="black" points="432,-0.5 432,-19.5 534,-19.5 534,-0.5 432,-0.5"/>
<text text-anchor="middle" x="483" y="-7.5" font-family="Helvetica,sans-Serif" font-size="10.00">aprs_receiver.cpp</text>
</a>
</g>
</g>
<!-- Node6&#45;&gt;Node10 -->
<g id="edge9" class="edge">
<title>Node6&#45;&gt;Node10</title>
<path fill="none" stroke="midnightblue" d="M483,-45.8C483,-36.91 483,-26.78 483,-19.75"/>
<polygon fill="midnightblue" stroke="midnightblue" points="479.5,-46.08 483,-56.08 486.5,-46.08 479.5,-46.08"/>
</g>
<!-- Node11 -->
<g id="node11" class="node">
<title>Node11</title>
<g id="a_node11"><a xlink:href="aprs_8cpp.html" target="_top" xlink:title="APRS implementation.">
<polygon fill="none" stroke="black" points="552,-0.5 552,-19.5 610,-19.5 610,-0.5 552,-0.5"/>
<text text-anchor="middle" x="581" y="-7.5" font-family="Helvetica,sans-Serif" font-size="10.00">aprs.cpp</text>
</a>
</g>
</g>
<!-- Node6&#45;&gt;Node11 -->
<g id="edge10" class="edge">
<title>Node6&#45;&gt;Node11</title>
<path fill="none" stroke="midnightblue" d="M507.59,-51.45C525.68,-41.48 549.73,-28.23 565.29,-19.65"/>
<polygon fill="midnightblue" stroke="midnightblue" points="505.81,-48.43 498.75,-56.32 509.19,-54.56 505.81,-48.43"/>
</g>
<!-- Node12 -->
<g id="node12" class="node">
<title>Node12</title>
<g id="a_node12"><a xlink:href="aprs__test_8cpp.html" target="_top" xlink:title=" ">
<polygon fill="none" stroke="black" points="628,-0.5 628,-19.5 710,-19.5 710,-0.5 628,-0.5"/>
<text text-anchor="middle" x="669" y="-7.5" font-family="Helvetica,sans-Serif" font-size="10.00">aprs_test.cpp</text>
</a>
</g>
</g>
<!-- Node6&#45;&gt;Node12 -->
<g id="edge11" class="edge">
<title>Node6&#45;&gt;Node12</title>
<path fill="none" stroke="midnightblue" d="M522.38,-53.57C557.47,-43.38 608.02,-28.7 639.67,-19.52"/>
<polygon fill="midnightblue" stroke="midnightblue" points="521.1,-50.29 512.47,-56.44 523.05,-57.02 521.1,-50.29"/>
</g>
<!-- Node13 -->
<g id="node13" class="node">
<title>Node13</title>
<g id="a_node13"><a xlink:href="pulse__test_8cpp.html" target="_top" xlink:title="PulseAudio output test. Does not use gtest.">
<polygon fill="none" stroke="black" points="728.5,-0.5 728.5,-19.5 815.5,-19.5 815.5,-0.5 728.5,-0.5"/>
<text text-anchor="middle" x="772" y="-7.5" font-family="Helvetica,sans-Serif" font-size="10.00">pulse_test.cpp</text>
</a>
</g>
</g>
<!-- Node6&#45;&gt;Node13 -->
<g id="edge12" class="edge">
<title>Node6&#45;&gt;Node13</title>
<path fill="none" stroke="midnightblue" d="M522.74,-55.95C574.24,-45.67 671.4,-28.54 728.25,-18.61"/>
<polygon fill="midnightblue" stroke="midnightblue" points="521.88,-52.55 512.78,-57.97 523.27,-59.41 521.88,-52.55"/>
</g>
</g>
</svg>
