<?xml version="1.0" encoding="UTF-8" standalone="no"?>
<!DOCTYPE svg PUBLIC "-//W3C//DTD SVG 1.1//EN"
 "http://www.w3.org/Graphics/SVG/1.1/DTD/svg11.dtd">
<!-- Generated by graphviz version 2.43.0 (0)
 -->
<!-- Title: ax25_decode.cpp Pages: 1 -->
<svg width="515pt" height="196pt"
 viewBox="0.00 0.00 515.04 196.00" xmlns="http://www.w3.org/2000/svg" xmlns:xlink="http://www.w3.org/1999/xlink">
<g id="graph0" class="graph" transform="scale(1 1) rotate(0) translate(4 192)">
<title>ax25_decode.cpp</title>
<!-- Node1 -->
<g id="node1" class="node">
<title>Node1</title>
<g id="a_node1"><a xlink:title="AX.25 decoding implementation.">
<polygon fill="#bfbfbf" stroke="black" points="67.5,-168.5 67.5,-187.5 168.5,-187.5 168.5,-168.5 67.5,-168.5"/>
<text text-anchor="middle" x="118" y="-175.5" font-family="Helvetica,sans-Serif" font-size="10.00">ax25_decode.cpp</text>
</a>
</g>
</g>
<!-- Node2 -->
<g id="node2" class="node">
<title>Node2</title>
<g id="a_node2"><a xlink:title=" ">
<polygon fill="none" stroke="#bfbfbf" points="0,-112.5 0,-131.5 44,-131.5 44,-112.5 0,-112.5"/>
<text text-anchor="middle" x="22" y="-119.5" font-family="Helvetica,sans-Serif" font-size="10.00">bitset</text>
</a>
</g>
</g>
<!-- Node1&#45;&gt;Node2 -->
<g id="edge1" class="edge">
<title>Node1&#45;&gt;Node2</title>
<path fill="none" stroke="midnightblue" d="M102.58,-168.32C87.46,-159.82 64.18,-146.73 46.53,-136.8"/>
<polygon fill="midnightblue" stroke="midnightblue" points="47.82,-133.51 37.39,-131.65 44.39,-139.61 47.82,-133.51"/>
</g>
<!-- Node3 -->
<g id="node3" class="node">
<title>Node3</title>
<g id="a_node3"><a xlink:title=" ">
<polygon fill="none" stroke="#bfbfbf" points="62,-112.5 62,-131.5 118,-131.5 118,-112.5 62,-112.5"/>
<text text-anchor="middle" x="90" y="-119.5" font-family="Helvetica,sans-Serif" font-size="10.00">iomanip</text>
</a>
</g>
</g>
<!-- Node1&#45;&gt;Node3 -->
<g id="edge2" class="edge">
<title>Node1&#45;&gt;Node3</title>
<path fill="none" stroke="midnightblue" d="M113.38,-168.08C109.54,-160.69 103.98,-149.95 99.24,-140.81"/>
<polygon fill="midnightblue" stroke="midnightblue" points="102.25,-139.02 94.54,-131.75 96.03,-142.24 102.25,-139.02"/>
</g>
<!-- Node4 -->
<g id="node4" class="node">
<title>Node4</title>
<g id="a_node4"><a xlink:title=" ">
<polygon fill="none" stroke="#bfbfbf" points="107,-56.5 107,-75.5 167,-75.5 167,-56.5 107,-56.5"/>
<text text-anchor="middle" x="137" y="-63.5" font-family="Helvetica,sans-Serif" font-size="10.00">iostream</text>
</a>
</g>
</g>
<!-- Node1&#45;&gt;Node4 -->
<g id="edge3" class="edge">
<title>Node1&#45;&gt;Node4</title>
<path fill="none" stroke="midnightblue" d="M119.84,-168.39C121.75,-159.35 124.75,-144.71 127,-132 129.74,-116.52 132.42,-98.89 134.32,-85.9"/>
<polygon fill="midnightblue" stroke="midnightblue" points="137.81,-86.25 135.77,-75.85 130.88,-85.25 137.81,-86.25"/>
</g>
<!-- Node5 -->
<g id="node5" class="node">
<title>Node5</title>
<g id="a_node5"><a xlink:href="ax25_8hpp.html" target="_top" xlink:title="AX.25 tools.">
<polygon fill="none" stroke="black" points="183.5,-112.5 183.5,-131.5 304.5,-131.5 304.5,-112.5 183.5,-112.5"/>
<text text-anchor="middle" x="244" y="-119.5" font-family="Helvetica,sans-Serif" font-size="10.00">SignalEasel/ax25.hpp</text>
</a>
</g>
</g>
<!-- Node1&#45;&gt;Node5 -->
<g id="edge4" class="edge">
<title>Node1&#45;&gt;Node5</title>
<path fill="none" stroke="midnightblue" d="M137.97,-168.44C158.61,-159.6 191.06,-145.69 214.63,-135.59"/>
<polygon fill="midnightblue" stroke="midnightblue" points="216.32,-138.67 224.13,-131.52 213.56,-132.24 216.32,-138.67"/>
</g>
<!-- Node5&#45;&gt;Node4 -->
<g id="edge7" class="edge">
<title>Node5&#45;&gt;Node4</title>
<path fill="none" stroke="midnightblue" d="M226.81,-112.32C209.65,-103.66 183.05,-90.24 163.25,-80.25"/>
<polygon fill="midnightblue" stroke="midnightblue" points="164.65,-77.04 154.15,-75.65 161.5,-83.28 164.65,-77.04"/>
</g>
<!-- Node6 -->
<g id="node6" class="node">
<title>Node6</title>
<g id="a_node6"><a xlink:title=" ">
<polygon fill="none" stroke="#bfbfbf" points="300,-0.5 300,-19.5 350,-19.5 350,-0.5 300,-0.5"/>
<text text-anchor="middle" x="325" y="-7.5" font-family="Helvetica,sans-Serif" font-size="10.00">cstdint</text>
</a>
</g>
</g>
<!-- Node5&#45;&gt;Node6 -->
<g id="edge5" class="edge">
<title>Node5&#45;&gt;Node6</title>
<path fill="none" stroke="midnightblue" d="M234.33,-112.12C221.41,-99.15 201.5,-74.55 214,-56 230.75,-31.14 263.82,-20.01 289.53,-15.03"/>
<polygon fill="midnightblue" stroke="midnightblue" points="290.41,-18.43 299.68,-13.3 289.23,-11.53 290.41,-18.43"/>
</g>
<!-- Node7 -->
<g id="node7" class="node">
<title>Node7</title>
<g id="a_node7"><a xlink:title=" ">
<polygon fill="none" stroke="#bfbfbf" points="223,-56.5 223,-75.5 265,-75.5 265,-56.5 223,-56.5"/>
<text text-anchor="middle" x="244" y="-63.5" font-family="Helvetica,sans-Serif" font-size="10.00">array</text>
</a>
</g>
</g>
<!-- Node5&#45;&gt;Node7 -->
<g id="edge6" class="edge">
<title>Node5&#45;&gt;Node7</title>
<path fill="none" stroke="midnightblue" d="M244,-112.08C244,-105.01 244,-94.86 244,-85.99"/>
<polygon fill="midnightblue" stroke="midnightblue" points="247.5,-85.75 244,-75.75 240.5,-85.75 247.5,-85.75"/>
</g>
<!-- Node8 -->
<g id="node8" class="node">
<title>Node8</title>
<g id="a_node8"><a xlink:title=" ">
<polygon fill="none" stroke="#bfbfbf" points="283,-56.5 283,-75.5 327,-75.5 327,-56.5 283,-56.5"/>
<text text-anchor="middle" x="305" y="-63.5" font-family="Helvetica,sans-Serif" font-size="10.00">string</text>
</a>
</g>
</g>
<!-- Node5&#45;&gt;Node8 -->
<g id="edge8" class="edge">
<title>Node5&#45;&gt;Node8</title>
<path fill="none" stroke="midnightblue" d="M253.8,-112.32C262.82,-104.34 276.41,-92.31 287.32,-82.65"/>
<polygon fill="midnightblue" stroke="midnightblue" points="289.85,-85.08 295.02,-75.83 285.21,-79.84 289.85,-85.08"/>
</g>
<!-- Node9 -->
<g id="node9" class="node">
<title>Node9</title>
<g id="a_node9"><a xlink:title=" ">
<polygon fill="none" stroke="#bfbfbf" points="446.5,-0.5 446.5,-19.5 493.5,-19.5 493.5,-0.5 446.5,-0.5"/>
<text text-anchor="middle" x="470" y="-7.5" font-family="Helvetica,sans-Serif" font-size="10.00">vector</text>
</a>
</g>
</g>
<!-- Node5&#45;&gt;Node9 -->
<g id="edge9" class="edge">
<title>Node5&#45;&gt;Node9</title>
<path fill="none" stroke="midnightblue" d="M304.57,-119.13C372.76,-115.6 477.28,-105.41 502,-76 514.31,-61.35 500.69,-41.16 487.61,-27.18"/>
<polygon fill="midnightblue" stroke="midnightblue" points="489.72,-24.35 480.17,-19.76 484.78,-29.3 489.72,-24.35"/>
</g>
<!-- Node10 -->
<g id="node10" class="node">
<title>Node10</title>
<g id="a_node10"><a xlink:href="bit__stream_8hpp.html" target="_top" xlink:title="The bit stream class.">
<polygon fill="none" stroke="black" points="344.5,-56.5 344.5,-75.5 493.5,-75.5 493.5,-56.5 344.5,-56.5"/>
<text text-anchor="middle" x="419" y="-63.5" font-family="Helvetica,sans-Serif" font-size="10.00">SignalEasel/bit_stream.hpp</text>
</a>
</g>
</g>
<!-- Node5&#45;&gt;Node10 -->
<g id="edge10" class="edge">
<title>Node5&#45;&gt;Node10</title>
<path fill="none" stroke="midnightblue" d="M271.73,-112.44C301.43,-103.28 348.72,-88.69 381.67,-78.52"/>
<polygon fill="midnightblue" stroke="midnightblue" points="382.88,-81.81 391.4,-75.52 380.81,-75.12 382.88,-81.81"/>
</g>
<!-- Node10&#45;&gt;Node6 -->
<g id="edge11" class="edge">
<title>Node10&#45;&gt;Node6</title>
<path fill="none" stroke="midnightblue" d="M403.9,-56.32C389.1,-47.82 366.31,-34.73 349.02,-24.8"/>
<polygon fill="midnightblue" stroke="midnightblue" points="350.48,-21.6 340.07,-19.65 346.99,-27.67 350.48,-21.6"/>
</g>
<!-- Node10&#45;&gt;Node9 -->
<g id="edge12" class="edge">
<title>Node10&#45;&gt;Node9</title>
<path fill="none" stroke="midnightblue" d="M427.42,-56.08C434.85,-48.22 445.85,-36.57 454.81,-27.08"/>
<polygon fill="midnightblue" stroke="midnightblue" points="457.41,-29.42 461.74,-19.75 452.32,-24.62 457.41,-29.42"/>
</g>
</g>
</svg>
