<?xml version="1.0" encoding="UTF-8" standalone="no"?>
<!DOCTYPE svg PUBLIC "-//W3C//DTD SVG 1.1//EN"
 "http://www.w3.org/Graphics/SVG/1.1/DTD/svg11.dtd">
<!-- Generated by graphviz version 2.43.0 (0)
 -->
<!-- Title: ax25_frame.cpp Pages: 1 -->
<svg width="392pt" height="196pt"
 viewBox="0.00 0.00 392.44 196.00" xmlns="http://www.w3.org/2000/svg" xmlns:xlink="http://www.w3.org/1999/xlink">
<g id="graph0" class="graph" transform="scale(1 1) rotate(0) translate(4 192)">
<title>ax25_frame.cpp</title>
<!-- Node1 -->
<g id="node1" class="node">
<title>Node1</title>
<g id="a_node1"><a xlink:title="General AX.25 frame class.">
<polygon fill="#bfbfbf" stroke="black" points="43,-168.5 43,-187.5 138,-187.5 138,-168.5 43,-168.5"/>
<text text-anchor="middle" x="90.5" y="-175.5" font-family="Helvetica,sans-Serif" font-size="10.00">ax25_frame.cpp</text>
</a>
</g>
</g>
<!-- Node2 -->
<g id="node2" class="node">
<title>Node2</title>
<g id="a_node2"><a xlink:title=" ">
<polygon fill="none" stroke="#bfbfbf" points="0,-112.5 0,-131.5 69,-131.5 69,-112.5 0,-112.5"/>
<text text-anchor="middle" x="34.5" y="-119.5" font-family="Helvetica,sans-Serif" font-size="10.00">type_traits</text>
</a>
</g>
</g>
<!-- Node1&#45;&gt;Node2 -->
<g id="edge1" class="edge">
<title>Node1&#45;&gt;Node2</title>
<path fill="none" stroke="midnightblue" d="M81.5,-168.32C73.31,-160.42 60.99,-148.55 51.03,-138.94"/>
<polygon fill="midnightblue" stroke="midnightblue" points="53.29,-136.26 43.66,-131.83 48.43,-141.29 53.29,-136.26"/>
</g>
<!-- Node3 -->
<g id="node3" class="node">
<title>Node3</title>
<g id="a_node3"><a xlink:href="ax25_8hpp.html" target="_top" xlink:title="AX.25 tools.">
<polygon fill="none" stroke="black" points="87,-112.5 87,-131.5 208,-131.5 208,-112.5 87,-112.5"/>
<text text-anchor="middle" x="147.5" y="-119.5" font-family="Helvetica,sans-Serif" font-size="10.00">SignalEasel/ax25.hpp</text>
</a>
</g>
</g>
<!-- Node1&#45;&gt;Node3 -->
<g id="edge2" class="edge">
<title>Node1&#45;&gt;Node3</title>
<path fill="none" stroke="midnightblue" d="M99.66,-168.32C108,-160.42 120.53,-148.55 130.68,-138.94"/>
<polygon fill="midnightblue" stroke="midnightblue" points="133.32,-141.25 138.18,-131.83 128.51,-136.17 133.32,-141.25"/>
</g>
<!-- Node4 -->
<g id="node4" class="node">
<title>Node4</title>
<g id="a_node4"><a xlink:title=" ">
<polygon fill="none" stroke="#bfbfbf" points="138.5,-0.5 138.5,-19.5 188.5,-19.5 188.5,-0.5 138.5,-0.5"/>
<text text-anchor="middle" x="163.5" y="-7.5" font-family="Helvetica,sans-Serif" font-size="10.00">cstdint</text>
</a>
</g>
</g>
<!-- Node3&#45;&gt;Node4 -->
<g id="edge3" class="edge">
<title>Node3&#45;&gt;Node4</title>
<path fill="none" stroke="midnightblue" d="M86.6,-112.97C41,-104.31 -9.81,-87.32 13.5,-56 39.68,-20.81 92.43,-12.1 127.86,-10.47"/>
<polygon fill="midnightblue" stroke="midnightblue" points="128.36,-13.96 138.26,-10.17 128.16,-6.96 128.36,-13.96"/>
</g>
<!-- Node5 -->
<g id="node5" class="node">
<title>Node5</title>
<g id="a_node5"><a xlink:title=" ">
<polygon fill="none" stroke="#bfbfbf" points="22.5,-56.5 22.5,-75.5 64.5,-75.5 64.5,-56.5 22.5,-56.5"/>
<text text-anchor="middle" x="43.5" y="-63.5" font-family="Helvetica,sans-Serif" font-size="10.00">array</text>
</a>
</g>
</g>
<!-- Node3&#45;&gt;Node5 -->
<g id="edge4" class="edge">
<title>Node3&#45;&gt;Node5</title>
<path fill="none" stroke="midnightblue" d="M130.79,-112.32C114.19,-103.7 88.5,-90.36 69.28,-80.39"/>
<polygon fill="midnightblue" stroke="midnightblue" points="70.66,-77.16 60.17,-75.65 67.43,-83.37 70.66,-77.16"/>
</g>
<!-- Node6 -->
<g id="node6" class="node">
<title>Node6</title>
<g id="a_node6"><a xlink:title=" ">
<polygon fill="none" stroke="#bfbfbf" points="82.5,-56.5 82.5,-75.5 142.5,-75.5 142.5,-56.5 82.5,-56.5"/>
<text text-anchor="middle" x="112.5" y="-63.5" font-family="Helvetica,sans-Serif" font-size="10.00">iostream</text>
</a>
</g>
</g>
<!-- Node3&#45;&gt;Node6 -->
<g id="edge5" class="edge">
<title>Node3&#45;&gt;Node6</title>
<path fill="none" stroke="midnightblue" d="M141.72,-112.08C136.83,-104.53 129.67,-93.49 123.67,-84.23"/>
<polygon fill="midnightblue" stroke="midnightblue" points="126.55,-82.24 118.17,-75.75 120.67,-86.05 126.55,-82.24"/>
</g>
<!-- Node7 -->
<g id="node7" class="node">
<title>Node7</title>
<g id="a_node7"><a xlink:title=" ">
<polygon fill="none" stroke="#bfbfbf" points="160.5,-56.5 160.5,-75.5 204.5,-75.5 204.5,-56.5 160.5,-56.5"/>
<text text-anchor="middle" x="182.5" y="-63.5" font-family="Helvetica,sans-Serif" font-size="10.00">string</text>
</a>
</g>
</g>
<!-- Node3&#45;&gt;Node7 -->
<g id="edge6" class="edge">
<title>Node3&#45;&gt;Node7</title>
<path fill="none" stroke="midnightblue" d="M153.28,-112.08C158.17,-104.53 165.33,-93.49 171.33,-84.23"/>
<polygon fill="midnightblue" stroke="midnightblue" points="174.33,-86.05 176.83,-75.75 168.45,-82.24 174.33,-86.05"/>
</g>
<!-- Node8 -->
<g id="node8" class="node">
<title>Node8</title>
<g id="a_node8"><a xlink:title=" ">
<polygon fill="none" stroke="#bfbfbf" points="324,-0.5 324,-19.5 371,-19.5 371,-0.5 324,-0.5"/>
<text text-anchor="middle" x="347.5" y="-7.5" font-family="Helvetica,sans-Serif" font-size="10.00">vector</text>
</a>
</g>
</g>
<!-- Node3&#45;&gt;Node8 -->
<g id="edge7" class="edge">
<title>Node3&#45;&gt;Node8</title>
<path fill="none" stroke="midnightblue" d="M208.12,-117.76C269.45,-113.06 358.16,-101.88 379.5,-76 391.68,-61.24 378.08,-41.06 365.04,-27.12"/>
<polygon fill="midnightblue" stroke="midnightblue" points="367.18,-24.31 357.63,-19.73 362.23,-29.27 367.18,-24.31"/>
</g>
<!-- Node9 -->
<g id="node9" class="node">
<title>Node9</title>
<g id="a_node9"><a xlink:href="bit__stream_8hpp.html" target="_top" xlink:title="The bit stream class.">
<polygon fill="none" stroke="black" points="222,-56.5 222,-75.5 371,-75.5 371,-56.5 222,-56.5"/>
<text text-anchor="middle" x="296.5" y="-63.5" font-family="Helvetica,sans-Serif" font-size="10.00">SignalEasel/bit_stream.hpp</text>
</a>
</g>
</g>
<!-- Node3&#45;&gt;Node9 -->
<g id="edge8" class="edge">
<title>Node3&#45;&gt;Node9</title>
<path fill="none" stroke="midnightblue" d="M171.11,-112.44C195.96,-103.44 235.27,-89.19 263.25,-79.05"/>
<polygon fill="midnightblue" stroke="midnightblue" points="264.79,-82.21 273,-75.52 262.41,-75.63 264.79,-82.21"/>
</g>
<!-- Node9&#45;&gt;Node4 -->
<g id="edge9" class="edge">
<title>Node9&#45;&gt;Node4</title>
<path fill="none" stroke="midnightblue" d="M275.43,-56.44C253.44,-47.52 218.77,-33.44 193.84,-23.32"/>
<polygon fill="midnightblue" stroke="midnightblue" points="195.06,-20.04 184.48,-19.52 192.42,-26.52 195.06,-20.04"/>
</g>
<!-- Node9&#45;&gt;Node8 -->
<g id="edge10" class="edge">
<title>Node9&#45;&gt;Node8</title>
<path fill="none" stroke="midnightblue" d="M304.92,-56.08C312.35,-48.22 323.35,-36.57 332.31,-27.08"/>
<polygon fill="midnightblue" stroke="midnightblue" points="334.91,-29.42 339.24,-19.75 329.82,-24.62 334.91,-29.42"/>
</g>
</g>
</svg>
