<?xml version="1.0" encoding="UTF-8" standalone="no"?>
<!DOCTYPE svg PUBLIC "-//W3C//DTD SVG 1.1//EN"
 "http://www.w3.org/Graphics/SVG/1.1/DTD/svg11.dtd">
<!-- Generated by graphviz version 2.43.0 (0)
 -->
<!-- Title: ax25.hpp Pages: 1 -->
<svg width="927pt" height="140pt"
 viewBox="0.00 0.00 926.50 140.00" xmlns="http://www.w3.org/2000/svg" xmlns:xlink="http://www.w3.org/1999/xlink">
<g id="graph0" class="graph" transform="scale(1 1) rotate(0) translate(4 136)">
<title>ax25.hpp</title>
<!-- Node1 -->
<g id="node1" class="node">
<title>Node1</title>
<g id="a_node1"><a xlink:title="AX.25 tools.">
<polygon fill="#bfbfbf" stroke="black" points="404,-112.5 404,-131.5 466,-131.5 466,-112.5 404,-112.5"/>
<text text-anchor="middle" x="435" y="-119.5" font-family="Helvetica,sans-Serif" font-size="10.00">ax25.hpp</text>
</a>
</g>
</g>
<!-- Node2 -->
<g id="node2" class="node">
<title>Node2</title>
<g id="a_node2"><a xlink:href="ax25__address_8cpp.html" target="_top" xlink:title="The AX.25 address class implementation.">
<polygon fill="none" stroke="black" points="0,-56.5 0,-75.5 104,-75.5 104,-56.5 0,-56.5"/>
<text text-anchor="middle" x="52" y="-63.5" font-family="Helvetica,sans-Serif" font-size="10.00">ax25_address.cpp</text>
</a>
</g>
</g>
<!-- Node1&#45;&gt;Node2 -->
<g id="edge1" class="edge">
<title>Node1&#45;&gt;Node2</title>
<path fill="none" stroke="midnightblue" d="M393.87,-115.35C332.64,-106.93 213.88,-90.49 113,-76 110.14,-75.59 107.2,-75.16 104.24,-74.73"/>
<polygon fill="midnightblue" stroke="midnightblue" points="393.52,-118.84 403.9,-116.73 394.47,-111.9 393.52,-118.84"/>
</g>
<!-- Node3 -->
<g id="node3" class="node">
<title>Node3</title>
<g id="a_node3"><a xlink:href="ax25__decode_8cpp.html" target="_top" xlink:title="AX.25 decoding implementation.">
<polygon fill="none" stroke="black" points="122.5,-56.5 122.5,-75.5 223.5,-75.5 223.5,-56.5 122.5,-56.5"/>
<text text-anchor="middle" x="173" y="-63.5" font-family="Helvetica,sans-Serif" font-size="10.00">ax25_decode.cpp</text>
</a>
</g>
</g>
<!-- Node1&#45;&gt;Node3 -->
<g id="edge2" class="edge">
<title>Node1&#45;&gt;Node3</title>
<path fill="none" stroke="midnightblue" d="M393.98,-112.55C344.99,-102.45 263.52,-85.66 214.38,-75.53"/>
<polygon fill="midnightblue" stroke="midnightblue" points="393.42,-116 403.92,-114.59 394.83,-109.15 393.42,-116"/>
</g>
<!-- Node4 -->
<g id="node4" class="node">
<title>Node4</title>
<g id="a_node4"><a xlink:href="ax25__fcs_8cpp.html" target="_top" xlink:title="AX.25 Frame Check Sequence (FCS) tools.">
<polygon fill="none" stroke="black" points="242,-56.5 242,-75.5 322,-75.5 322,-56.5 242,-56.5"/>
<text text-anchor="middle" x="282" y="-63.5" font-family="Helvetica,sans-Serif" font-size="10.00">ax25_fcs.cpp</text>
</a>
</g>
</g>
<!-- Node1&#45;&gt;Node4 -->
<g id="edge3" class="edge">
<title>Node1&#45;&gt;Node4</title>
<path fill="none" stroke="midnightblue" d="M401.11,-109.04C372.32,-98.88 331.71,-84.55 306.13,-75.52"/>
<polygon fill="midnightblue" stroke="midnightblue" points="400.16,-112.42 410.76,-112.44 402.49,-105.81 400.16,-112.42"/>
</g>
<!-- Node5 -->
<g id="node5" class="node">
<title>Node5</title>
<g id="a_node5"><a xlink:href="ax25__frame_8cpp.html" target="_top" xlink:title="General AX.25 frame class.">
<polygon fill="none" stroke="black" points="340.5,-56.5 340.5,-75.5 435.5,-75.5 435.5,-56.5 340.5,-56.5"/>
<text text-anchor="middle" x="388" y="-63.5" font-family="Helvetica,sans-Serif" font-size="10.00">ax25_frame.cpp</text>
</a>
</g>
</g>
<!-- Node1&#45;&gt;Node5 -->
<g id="edge4" class="edge">
<title>Node1&#45;&gt;Node5</title>
<path fill="none" stroke="midnightblue" d="M420.58,-104.43C412.34,-94.97 402.35,-83.48 395.62,-75.75"/>
<polygon fill="midnightblue" stroke="midnightblue" points="418.03,-106.84 427.24,-112.08 423.31,-102.24 418.03,-106.84"/>
</g>
<!-- Node6 -->
<g id="node6" class="node">
<title>Node6</title>
<g id="a_node6"><a xlink:href="aprs_8hpp.html" target="_top" xlink:title="APRS implementation.">
<polygon fill="none" stroke="black" points="453.5,-56.5 453.5,-75.5 512.5,-75.5 512.5,-56.5 453.5,-56.5"/>
<text text-anchor="middle" x="483" y="-63.5" font-family="Helvetica,sans-Serif" font-size="10.00">aprs.hpp</text>
</a>
</g>
</g>
<!-- Node1&#45;&gt;Node6 -->
<g id="edge5" class="edge">
<title>Node1&#45;&gt;Node6</title>
<path fill="none" stroke="midnightblue" d="M449.73,-104.43C458.14,-94.97 468.35,-83.48 475.22,-75.75"/>
<polygon fill="midnightblue" stroke="midnightblue" points="446.95,-102.28 442.93,-112.08 452.19,-106.93 446.95,-102.28"/>
</g>
<!-- Node14 -->
<g id="node14" class="node">
<title>Node14</title>
<g id="a_node14"><a xlink:href="ax25__address__test_8cpp.html" target="_top" xlink:title=" ">
<polygon fill="none" stroke="black" points="531,-56.5 531,-75.5 659,-75.5 659,-56.5 531,-56.5"/>
<text text-anchor="middle" x="595" y="-63.5" font-family="Helvetica,sans-Serif" font-size="10.00">ax25_address_test.cpp</text>
</a>
</g>
</g>
<!-- Node1&#45;&gt;Node14 -->
<g id="edge13" class="edge">
<title>Node1&#45;&gt;Node14</title>
<path fill="none" stroke="midnightblue" d="M470.05,-109.17C500.17,-99 542.9,-84.59 569.77,-75.52"/>
<polygon fill="midnightblue" stroke="midnightblue" points="468.71,-105.93 460.35,-112.44 470.95,-112.56 468.71,-105.93"/>
</g>
<!-- Node15 -->
<g id="node15" class="node">
<title>Node15</title>
<g id="a_node15"><a xlink:href="ax25__crc__test_8cpp.html" target="_top" xlink:title=" ">
<polygon fill="none" stroke="black" points="677,-56.5 677,-75.5 781,-75.5 781,-56.5 677,-56.5"/>
<text text-anchor="middle" x="729" y="-63.5" font-family="Helvetica,sans-Serif" font-size="10.00">ax25_crc_test.cpp</text>
</a>
</g>
</g>
<!-- Node1&#45;&gt;Node15 -->
<g id="edge14" class="edge">
<title>Node1&#45;&gt;Node15</title>
<path fill="none" stroke="midnightblue" d="M476.15,-113.44C530.42,-103.47 625.69,-85.98 682.51,-75.54"/>
<polygon fill="midnightblue" stroke="midnightblue" points="475.39,-110.02 466.18,-115.27 476.65,-116.91 475.39,-110.02"/>
</g>
<!-- Node16 -->
<g id="node16" class="node">
<title>Node16</title>
<g id="a_node16"><a xlink:href="ax25__frame__test_8cpp.html" target="_top" xlink:title=" ">
<polygon fill="none" stroke="black" points="799.5,-56.5 799.5,-75.5 918.5,-75.5 918.5,-56.5 799.5,-56.5"/>
<text text-anchor="middle" x="859" y="-63.5" font-family="Helvetica,sans-Serif" font-size="10.00">ax25_frame_test.cpp</text>
</a>
</g>
</g>
<!-- Node1&#45;&gt;Node16 -->
<g id="edge15" class="edge">
<title>Node1&#45;&gt;Node16</title>
<path fill="none" stroke="midnightblue" d="M476.38,-115.8C542.62,-107.48 676.53,-90.59 790,-76 793,-75.61 796.06,-75.22 799.16,-74.82"/>
<polygon fill="midnightblue" stroke="midnightblue" points="475.83,-112.35 466.35,-117.07 476.71,-119.29 475.83,-112.35"/>
</g>
<!-- Node7 -->
<g id="node7" class="node">
<title>Node7</title>
<g id="a_node7"><a xlink:href="aprs__demodulator_8cpp.html" target="_top" xlink:title="Implementation of the APRS demodulator class.">
<polygon fill="none" stroke="black" points="32.5,-0.5 32.5,-19.5 157.5,-19.5 157.5,-0.5 32.5,-0.5"/>
<text text-anchor="middle" x="95" y="-7.5" font-family="Helvetica,sans-Serif" font-size="10.00">aprs_demodulator.cpp</text>
</a>
</g>
</g>
<!-- Node6&#45;&gt;Node7 -->
<g id="edge6" class="edge">
<title>Node6&#45;&gt;Node7</title>
<path fill="none" stroke="midnightblue" d="M443.12,-56.07C400.61,-49.95 245.99,-30.22 157.62,-18.97"/>
<polygon fill="midnightblue" stroke="midnightblue" points="442.77,-59.56 453.19,-57.63 443.84,-52.64 442.77,-59.56"/>
</g>
<!-- Node8 -->
<g id="node8" class="node">
<title>Node8</title>
<g id="a_node8"><a xlink:href="aprs__encoders_8cpp.html" target="_top" xlink:title="Encoding functions for APRS packets.">
<polygon fill="none" stroke="black" points="175.5,-0.5 175.5,-19.5 282.5,-19.5 282.5,-0.5 175.5,-0.5"/>
<text text-anchor="middle" x="229" y="-7.5" font-family="Helvetica,sans-Serif" font-size="10.00">aprs_encoders.cpp</text>
</a>
</g>
</g>
<!-- Node6&#45;&gt;Node8 -->
<g id="edge7" class="edge">
<title>Node6&#45;&gt;Node8</title>
<path fill="none" stroke="midnightblue" d="M443.16,-55.63C378.25,-41.26 313.19,-27.92 271.7,-19.54"/>
<polygon fill="midnightblue" stroke="midnightblue" points="442.63,-59.1 453.15,-57.85 444.14,-52.26 442.63,-59.1"/>
</g>
<!-- Node9 -->
<g id="node9" class="node">
<title>Node9</title>
<g id="a_node9"><a xlink:href="aprs__modulator_8cpp.html" target="_top" xlink:title="Implementation of the APRS modulator class.">
<polygon fill="none" stroke="black" points="300.5,-0.5 300.5,-19.5 413.5,-19.5 413.5,-0.5 300.5,-0.5"/>
<text text-anchor="middle" x="357" y="-7.5" font-family="Helvetica,sans-Serif" font-size="10.00">aprs_modulator.cpp</text>
</a>
</g>
</g>
<!-- Node6&#45;&gt;Node9 -->
<g id="edge8" class="edge">
<title>Node6&#45;&gt;Node9</title>
<path fill="none" stroke="midnightblue" d="M453.84,-52.5C430.22,-42.38 397.57,-28.39 376.87,-19.52"/>
<polygon fill="midnightblue" stroke="midnightblue" points="452.46,-55.72 463.03,-56.44 455.22,-49.29 452.46,-55.72"/>
</g>
<!-- Node10 -->
<g id="node10" class="node">
<title>Node10</title>
<g id="a_node10"><a xlink:href="aprs__receiver_8cpp.html" target="_top" xlink:title="Implementation of the APRS receiver class.">
<polygon fill="none" stroke="black" points="432,-0.5 432,-19.5 534,-19.5 534,-0.5 432,-0.5"/>
<text text-anchor="middle" x="483" y="-7.5" font-family="Helvetica,sans-Serif" font-size="10.00">aprs_receiver.cpp</text>
</a>
</g>
</g>
<!-- Node6&#45;&gt;Node10 -->
<g id="edge9" class="edge">
<title>Node6&#45;&gt;Node10</title>
<path fill="none" stroke="midnightblue" d="M483,-45.8C483,-36.91 483,-26.78 483,-19.75"/>
<polygon fill="midnightblue" stroke="midnightblue" points="479.5,-46.08 483,-56.08 486.5,-46.08 479.5,-46.08"/>
</g>
<!-- Node11 -->
<g id="node11" class="node">
<title>Node11</title>
<g id="a_node11"><a xlink:href="aprs_8cpp.html" target="_top" xlink:title="APRS implementation.">
<polygon fill="none" stroke="black" points="552,-0.5 552,-19.5 610,-19.5 610,-0.5 552,-0.5"/>
<text text-anchor="middle" x="581" y="-7.5" font-family="Helvetica,sans-Serif" font-size="10.00">aprs.cpp</text>
</a>
</g>
</g>
<!-- Node6&#45;&gt;Node11 -->
<g id="edge10" class="edge">
<title>Node6&#45;&gt;Node11</title>
<path fill="none" stroke="midnightblue" d="M507.59,-51.45C525.68,-41.48 549.73,-28.23 565.29,-19.65"/>
<polygon fill="midnightblue" stroke="midnightblue" points="505.81,-48.43 498.75,-56.32 509.19,-54.56 505.81,-48.43"/>
</g>
<!-- Node12 -->
<g id="node12" class="node">
<title>Node12</title>
<g id="a_node12"><a xlink:href="aprs__test_8cpp.html" target="_top" xlink:title=" ">
<polygon fill="none" stroke="black" points="628,-0.5 628,-19.5 710,-19.5 710,-0.5 628,-0.5"/>
<text text-anchor="middle" x="669" y="-7.5" font-family="Helvetica,sans-Serif" font-size="10.00">aprs_test.cpp</text>
</a>
</g>
</g>
<!-- Node6&#45;&gt;Node12 -->
<g id="edge11" class="edge">
<title>Node6&#45;&gt;Node12</title>
<path fill="none" stroke="midnightblue" d="M522.38,-53.57C557.47,-43.38 608.02,-28.7 639.67,-19.52"/>
<polygon fill="midnightblue" stroke="midnightblue" points="521.1,-50.29 512.47,-56.44 523.05,-57.02 521.1,-50.29"/>
</g>
<!-- Node13 -->
<g id="node13" class="node">
<title>Node13</title>
<g id="a_node13"><a xlink:href="pulse__test_8cpp.html" target="_top" xlink:title="PulseAudio output test. Does not use gtest.">
<polygon fill="none" stroke="black" points="728.5,-0.5 728.5,-19.5 815.5,-19.5 815.5,-0.5 728.5,-0.5"/>
<text text-anchor="middle" x="772" y="-7.5" font-family="Helvetica,sans-Serif" font-size="10.00">pulse_test.cpp</text>
</a>
</g>
</g>
<!-- Node6&#45;&gt;Node13 -->
<g id="edge12" class="edge">
<title>Node6&#45;&gt;Node13</title>
<path fill="none" stroke="midnightblue" d="M522.74,-55.95C574.24,-45.67 671.4,-28.54 728.25,-18.61"/>
<polygon fill="midnightblue" stroke="midnightblue" points="521.88,-52.55 512.78,-57.97 523.27,-59.41 521.88,-52.55"/>
</g>
</g>
</svg>
