<?xml version="1.0" encoding="UTF-8" standalone="no"?>
<!DOCTYPE svg PUBLIC "-//W3C//DTD SVG 1.1//EN"
 "http://www.w3.org/Graphics/SVG/1.1/DTD/svg11.dtd">
<!-- Generated by graphviz version 2.43.0 (0)
 -->
<!-- Title: ax25.hpp Pages: 1 -->
<svg width="385pt" height="140pt"
 viewBox="0.00 0.00 385.09 140.00" xmlns="http://www.w3.org/2000/svg" xmlns:xlink="http://www.w3.org/1999/xlink">
<g id="graph0" class="graph" transform="scale(1 1) rotate(0) translate(4 136)">
<title>ax25.hpp</title>
<!-- Node1 -->
<g id="node1" class="node">
<title>Node1</title>
<g id="a_node1"><a xlink:title="AX.25 tools.">
<polygon fill="#bfbfbf" stroke="black" points="109.15,-112.5 109.15,-131.5 171.15,-131.5 171.15,-112.5 109.15,-112.5"/>
<text text-anchor="middle" x="140.15" y="-119.5" font-family="Helvetica,sans-Serif" font-size="10.00">ax25.hpp</text>
</a>
</g>
</g>
<!-- Node2 -->
<g id="node2" class="node">
<title>Node2</title>
<g id="a_node2"><a xlink:title=" ">
<polygon fill="none" stroke="#bfbfbf" points="131.15,-0.5 131.15,-19.5 181.15,-19.5 181.15,-0.5 131.15,-0.5"/>
<text text-anchor="middle" x="156.15" y="-7.5" font-family="Helvetica,sans-Serif" font-size="10.00">cstdint</text>
</a>
</g>
</g>
<!-- Node1&#45;&gt;Node2 -->
<g id="edge1" class="edge">
<title>Node1&#45;&gt;Node2</title>
<path fill="none" stroke="midnightblue" d="M109.13,-117.73C61.19,-111.41 -22.56,-94.58 6.15,-56 32.33,-20.81 85.07,-12.1 120.51,-10.47"/>
<polygon fill="midnightblue" stroke="midnightblue" points="121.01,-13.96 130.9,-10.17 120.81,-6.96 121.01,-13.96"/>
</g>
<!-- Node3 -->
<g id="node3" class="node">
<title>Node3</title>
<g id="a_node3"><a xlink:title=" ">
<polygon fill="none" stroke="#bfbfbf" points="15.15,-56.5 15.15,-75.5 57.15,-75.5 57.15,-56.5 15.15,-56.5"/>
<text text-anchor="middle" x="36.15" y="-63.5" font-family="Helvetica,sans-Serif" font-size="10.00">array</text>
</a>
</g>
</g>
<!-- Node1&#45;&gt;Node3 -->
<g id="edge2" class="edge">
<title>Node1&#45;&gt;Node3</title>
<path fill="none" stroke="midnightblue" d="M123.44,-112.32C106.84,-103.7 81.15,-90.36 61.93,-80.39"/>
<polygon fill="midnightblue" stroke="midnightblue" points="63.3,-77.16 52.82,-75.65 60.08,-83.37 63.3,-77.16"/>
</g>
<!-- Node4 -->
<g id="node4" class="node">
<title>Node4</title>
<g id="a_node4"><a xlink:title=" ">
<polygon fill="none" stroke="#bfbfbf" points="75.15,-56.5 75.15,-75.5 135.15,-75.5 135.15,-56.5 75.15,-56.5"/>
<text text-anchor="middle" x="105.15" y="-63.5" font-family="Helvetica,sans-Serif" font-size="10.00">iostream</text>
</a>
</g>
</g>
<!-- Node1&#45;&gt;Node4 -->
<g id="edge3" class="edge">
<title>Node1&#45;&gt;Node4</title>
<path fill="none" stroke="midnightblue" d="M134.37,-112.08C129.48,-104.53 122.32,-93.49 116.32,-84.23"/>
<polygon fill="midnightblue" stroke="midnightblue" points="119.2,-82.24 110.82,-75.75 113.32,-86.05 119.2,-82.24"/>
</g>
<!-- Node5 -->
<g id="node5" class="node">
<title>Node5</title>
<g id="a_node5"><a xlink:title=" ">
<polygon fill="none" stroke="#bfbfbf" points="153.15,-56.5 153.15,-75.5 197.15,-75.5 197.15,-56.5 153.15,-56.5"/>
<text text-anchor="middle" x="175.15" y="-63.5" font-family="Helvetica,sans-Serif" font-size="10.00">string</text>
</a>
</g>
</g>
<!-- Node1&#45;&gt;Node5 -->
<g id="edge4" class="edge">
<title>Node1&#45;&gt;Node5</title>
<path fill="none" stroke="midnightblue" d="M145.93,-112.08C150.82,-104.53 157.98,-93.49 163.98,-84.23"/>
<polygon fill="midnightblue" stroke="midnightblue" points="166.97,-86.05 169.48,-75.75 161.1,-82.24 166.97,-86.05"/>
</g>
<!-- Node6 -->
<g id="node6" class="node">
<title>Node6</title>
<g id="a_node6"><a xlink:title=" ">
<polygon fill="none" stroke="#bfbfbf" points="316.65,-0.5 316.65,-19.5 363.65,-19.5 363.65,-0.5 316.65,-0.5"/>
<text text-anchor="middle" x="340.15" y="-7.5" font-family="Helvetica,sans-Serif" font-size="10.00">vector</text>
</a>
</g>
</g>
<!-- Node1&#45;&gt;Node6 -->
<g id="edge5" class="edge">
<title>Node1&#45;&gt;Node6</title>
<path fill="none" stroke="midnightblue" d="M171.25,-119.69C228.5,-116.56 347.02,-106.47 372.15,-76 384.32,-61.24 370.72,-41.06 357.69,-27.12"/>
<polygon fill="midnightblue" stroke="midnightblue" points="359.82,-24.31 350.27,-19.73 354.88,-29.27 359.82,-24.31"/>
</g>
<!-- Node7 -->
<g id="node7" class="node">
<title>Node7</title>
<g id="a_node7"><a xlink:href="bit__stream_8hpp.html" target="_top" xlink:title="The bit stream class.">
<polygon fill="none" stroke="black" points="214.65,-56.5 214.65,-75.5 363.65,-75.5 363.65,-56.5 214.65,-56.5"/>
<text text-anchor="middle" x="289.15" y="-63.5" font-family="Helvetica,sans-Serif" font-size="10.00">SignalEasel/bit_stream.hpp</text>
</a>
</g>
</g>
<!-- Node1&#45;&gt;Node7 -->
<g id="edge6" class="edge">
<title>Node1&#45;&gt;Node7</title>
<path fill="none" stroke="midnightblue" d="M163.76,-112.44C188.61,-103.44 227.92,-89.19 255.9,-79.05"/>
<polygon fill="midnightblue" stroke="midnightblue" points="257.44,-82.21 265.65,-75.52 255.05,-75.63 257.44,-82.21"/>
</g>
<!-- Node7&#45;&gt;Node2 -->
<g id="edge7" class="edge">
<title>Node7&#45;&gt;Node2</title>
<path fill="none" stroke="midnightblue" d="M268.07,-56.44C246.09,-47.52 211.41,-33.44 186.48,-23.32"/>
<polygon fill="midnightblue" stroke="midnightblue" points="187.71,-20.04 177.12,-19.52 185.07,-26.52 187.71,-20.04"/>
</g>
<!-- Node7&#45;&gt;Node6 -->
<g id="edge8" class="edge">
<title>Node7&#45;&gt;Node6</title>
<path fill="none" stroke="midnightblue" d="M297.57,-56.08C305,-48.22 316,-36.57 324.96,-27.08"/>
<polygon fill="midnightblue" stroke="midnightblue" points="327.56,-29.42 331.88,-19.75 322.47,-24.62 327.56,-29.42"/>
</g>
</g>
</svg>
