<?xml version="1.0" encoding="UTF-8" standalone="no"?>
<!DOCTYPE svg PUBLIC "-//W3C//DTD SVG 1.1//EN"
 "http://www.w3.org/Graphics/SVG/1.1/DTD/svg11.dtd">
<!-- Generated by graphviz version 2.43.0 (0)
 -->
<!-- Title: ax25.hpp Pages: 1 -->
<svg width="1298pt" height="140pt"
 viewBox="0.00 0.00 1297.50 140.00" xmlns="http://www.w3.org/2000/svg" xmlns:xlink="http://www.w3.org/1999/xlink">
<g id="graph0" class="graph" transform="scale(1 1) rotate(0) translate(4 136)">
<title>ax25.hpp</title>
<!-- Node1 -->
<g id="node1" class="node">
<title>Node1</title>
<g id="a_node1"><a xlink:title="AX.25 tools.">
<polygon fill="#bfbfbf" stroke="black" points="798,-112.5 798,-131.5 860,-131.5 860,-112.5 798,-112.5"/>
<text text-anchor="middle" x="829" y="-119.5" font-family="Helvetica,sans-Serif" font-size="10.00">ax25.hpp</text>
</a>
</g>
</g>
<!-- Node2 -->
<g id="node2" class="node">
<title>Node2</title>
<g id="a_node2"><a xlink:href="aprs_8hpp.html" target="_top" xlink:title=" ">
<polygon fill="none" stroke="black" points="371.5,-56.5 371.5,-75.5 430.5,-75.5 430.5,-56.5 371.5,-56.5"/>
<text text-anchor="middle" x="401" y="-63.5" font-family="Helvetica,sans-Serif" font-size="10.00">aprs.hpp</text>
</a>
</g>
</g>
<!-- Node1&#45;&gt;Node2 -->
<g id="edge1" class="edge">
<title>Node1&#45;&gt;Node2</title>
<path fill="none" stroke="midnightblue" d="M787.47,-117.73C716.09,-111.77 565.69,-97.7 440,-76 436.99,-75.48 433.86,-74.87 430.74,-74.22"/>
<polygon fill="midnightblue" stroke="midnightblue" points="787.57,-121.25 797.82,-118.58 788.14,-114.27 787.57,-121.25"/>
</g>
<!-- Node10 -->
<g id="node10" class="node">
<title>Node10</title>
<g id="a_node10"><a xlink:href="ax25__address_8cpp.html" target="_top" xlink:title="The AX.25 address class implementation.">
<polygon fill="none" stroke="black" points="449,-56.5 449,-75.5 553,-75.5 553,-56.5 449,-56.5"/>
<text text-anchor="middle" x="501" y="-63.5" font-family="Helvetica,sans-Serif" font-size="10.00">ax25_address.cpp</text>
</a>
</g>
</g>
<!-- Node1&#45;&gt;Node10 -->
<g id="edge9" class="edge">
<title>Node1&#45;&gt;Node10</title>
<path fill="none" stroke="midnightblue" d="M787.67,-114.2C728,-104.37 617.78,-86.23 552.77,-75.52"/>
<polygon fill="midnightblue" stroke="midnightblue" points="787.41,-117.7 797.85,-115.87 788.55,-110.79 787.41,-117.7"/>
</g>
<!-- Node11 -->
<g id="node11" class="node">
<title>Node11</title>
<g id="a_node11"><a xlink:href="ax25__address__test_8cpp.html" target="_top" xlink:title=" ">
<polygon fill="none" stroke="black" points="571,-56.5 571,-75.5 699,-75.5 699,-56.5 571,-56.5"/>
<text text-anchor="middle" x="635" y="-63.5" font-family="Helvetica,sans-Serif" font-size="10.00">ax25_address_test.cpp</text>
</a>
</g>
</g>
<!-- Node1&#45;&gt;Node11 -->
<g id="edge10" class="edge">
<title>Node1&#45;&gt;Node11</title>
<path fill="none" stroke="midnightblue" d="M788.4,-109.7C751.78,-99.51 698.74,-84.74 665.6,-75.52"/>
<polygon fill="midnightblue" stroke="midnightblue" points="787.69,-113.13 798.26,-112.44 789.56,-106.39 787.69,-113.13"/>
</g>
<!-- Node12 -->
<g id="node12" class="node">
<title>Node12</title>
<g id="a_node12"><a xlink:href="ax25__crc__test_8cpp.html" target="_top" xlink:title=" ">
<polygon fill="none" stroke="black" points="717,-56.5 717,-75.5 821,-75.5 821,-56.5 717,-56.5"/>
<text text-anchor="middle" x="769" y="-63.5" font-family="Helvetica,sans-Serif" font-size="10.00">ax25_crc_test.cpp</text>
</a>
</g>
</g>
<!-- Node1&#45;&gt;Node12 -->
<g id="edge11" class="edge">
<title>Node1&#45;&gt;Node12</title>
<path fill="none" stroke="midnightblue" d="M811.82,-105.54C801.12,-95.91 787.74,-83.87 778.82,-75.83"/>
<polygon fill="midnightblue" stroke="midnightblue" points="809.59,-108.24 819.36,-112.32 814.27,-103.03 809.59,-108.24"/>
</g>
<!-- Node13 -->
<g id="node13" class="node">
<title>Node13</title>
<g id="a_node13"><a xlink:href="ax25__decode_8cpp.html" target="_top" xlink:title="AX.25 decoding implementation.">
<polygon fill="none" stroke="black" points="839.5,-56.5 839.5,-75.5 940.5,-75.5 940.5,-56.5 839.5,-56.5"/>
<text text-anchor="middle" x="890" y="-63.5" font-family="Helvetica,sans-Serif" font-size="10.00">ax25_decode.cpp</text>
</a>
</g>
</g>
<!-- Node1&#45;&gt;Node13 -->
<g id="edge12" class="edge">
<title>Node1&#45;&gt;Node13</title>
<path fill="none" stroke="midnightblue" d="M846.47,-105.54C857.34,-95.91 870.94,-83.87 880.02,-75.83"/>
<polygon fill="midnightblue" stroke="midnightblue" points="843.97,-103.07 838.8,-112.32 848.61,-108.32 843.97,-103.07"/>
</g>
<!-- Node14 -->
<g id="node14" class="node">
<title>Node14</title>
<g id="a_node14"><a xlink:href="ax25__fcs_8cpp.html" target="_top" xlink:title="AX.25 Frame Check Sequence (FCS) tools.">
<polygon fill="none" stroke="black" points="959,-56.5 959,-75.5 1039,-75.5 1039,-56.5 959,-56.5"/>
<text text-anchor="middle" x="999" y="-63.5" font-family="Helvetica,sans-Serif" font-size="10.00">ax25_fcs.cpp</text>
</a>
</g>
</g>
<!-- Node1&#45;&gt;Node14 -->
<g id="edge13" class="edge">
<title>Node1&#45;&gt;Node14</title>
<path fill="none" stroke="midnightblue" d="M865.82,-109.3C897.85,-99.13 943.52,-84.62 972.19,-75.52"/>
<polygon fill="midnightblue" stroke="midnightblue" points="864.41,-106.08 855.94,-112.44 866.53,-112.75 864.41,-106.08"/>
</g>
<!-- Node15 -->
<g id="node15" class="node">
<title>Node15</title>
<g id="a_node15"><a xlink:href="ax25__frame_8cpp.html" target="_top" xlink:title="General AX.25 frame class.">
<polygon fill="none" stroke="black" points="1057.5,-56.5 1057.5,-75.5 1152.5,-75.5 1152.5,-56.5 1057.5,-56.5"/>
<text text-anchor="middle" x="1105" y="-63.5" font-family="Helvetica,sans-Serif" font-size="10.00">ax25_frame.cpp</text>
</a>
</g>
</g>
<!-- Node1&#45;&gt;Node15 -->
<g id="edge14" class="edge">
<title>Node1&#45;&gt;Node15</title>
<path fill="none" stroke="midnightblue" d="M870.2,-112.94C921.52,-102.9 1008.84,-85.81 1061.31,-75.55"/>
<polygon fill="midnightblue" stroke="midnightblue" points="869.27,-109.56 860.12,-114.91 870.61,-116.43 869.27,-109.56"/>
</g>
<!-- Node16 -->
<g id="node16" class="node">
<title>Node16</title>
<g id="a_node16"><a xlink:href="ax25__frame__test_8cpp.html" target="_top" xlink:title=" ">
<polygon fill="none" stroke="black" points="1170.5,-56.5 1170.5,-75.5 1289.5,-75.5 1289.5,-56.5 1170.5,-56.5"/>
<text text-anchor="middle" x="1230" y="-63.5" font-family="Helvetica,sans-Serif" font-size="10.00">ax25_frame_test.cpp</text>
</a>
</g>
</g>
<!-- Node1&#45;&gt;Node16 -->
<g id="edge15" class="edge">
<title>Node1&#45;&gt;Node16</title>
<path fill="none" stroke="midnightblue" d="M870.07,-115.47C941.22,-105.89 1087.68,-86.17 1170.16,-75.06"/>
<polygon fill="midnightblue" stroke="midnightblue" points="869.58,-112 860.13,-116.81 870.51,-118.94 869.58,-112"/>
</g>
<!-- Node3 -->
<g id="node3" class="node">
<title>Node3</title>
<g id="a_node3"><a xlink:href="aprs_8cpp.html" target="_top" xlink:title="APRS implementation.">
<polygon fill="none" stroke="black" points="0,-0.5 0,-19.5 58,-19.5 58,-0.5 0,-0.5"/>
<text text-anchor="middle" x="29" y="-7.5" font-family="Helvetica,sans-Serif" font-size="10.00">aprs.cpp</text>
</a>
</g>
</g>
<!-- Node2&#45;&gt;Node3 -->
<g id="edge2" class="edge">
<title>Node2&#45;&gt;Node3</title>
<path fill="none" stroke="midnightblue" d="M361.1,-60.91C298.25,-54.18 172.51,-39.55 67,-20 64.2,-19.48 61.3,-18.89 58.4,-18.27"/>
<polygon fill="midnightblue" stroke="midnightblue" points="361.04,-64.43 371.36,-62 361.78,-57.46 361.04,-64.43"/>
</g>
<!-- Node4 -->
<g id="node4" class="node">
<title>Node4</title>
<g id="a_node4"><a xlink:href="aprs__demodulator_8cpp.html" target="_top" xlink:title="Implementation of the APRS demodulator class.">
<polygon fill="none" stroke="black" points="76.5,-0.5 76.5,-19.5 201.5,-19.5 201.5,-0.5 76.5,-0.5"/>
<text text-anchor="middle" x="139" y="-7.5" font-family="Helvetica,sans-Serif" font-size="10.00">aprs_demodulator.cpp</text>
</a>
</g>
</g>
<!-- Node2&#45;&gt;Node4 -->
<g id="edge3" class="edge">
<title>Node2&#45;&gt;Node4</title>
<path fill="none" stroke="midnightblue" d="M361.59,-56.88C312.82,-46.83 230.17,-29.79 180.48,-19.55"/>
<polygon fill="midnightblue" stroke="midnightblue" points="360.95,-60.32 371.45,-58.91 362.37,-53.46 360.95,-60.32"/>
</g>
<!-- Node5 -->
<g id="node5" class="node">
<title>Node5</title>
<g id="a_node5"><a xlink:href="aprs__encoders_8cpp.html" target="_top" xlink:title="Encoding functions for APRS packets.">
<polygon fill="none" stroke="black" points="219.5,-0.5 219.5,-19.5 326.5,-19.5 326.5,-0.5 219.5,-0.5"/>
<text text-anchor="middle" x="273" y="-7.5" font-family="Helvetica,sans-Serif" font-size="10.00">aprs_encoders.cpp</text>
</a>
</g>
</g>
<!-- Node2&#45;&gt;Node5 -->
<g id="edge4" class="edge">
<title>Node2&#45;&gt;Node5</title>
<path fill="none" stroke="midnightblue" d="M371.38,-52.5C347.38,-42.38 314.22,-28.39 293.19,-19.52"/>
<polygon fill="midnightblue" stroke="midnightblue" points="370.14,-55.78 380.72,-56.44 372.86,-49.33 370.14,-55.78"/>
</g>
<!-- Node6 -->
<g id="node6" class="node">
<title>Node6</title>
<g id="a_node6"><a xlink:href="aprs__modulator_8cpp.html" target="_top" xlink:title="Implementation of the APRS modulator class.">
<polygon fill="none" stroke="black" points="344.5,-0.5 344.5,-19.5 457.5,-19.5 457.5,-0.5 344.5,-0.5"/>
<text text-anchor="middle" x="401" y="-7.5" font-family="Helvetica,sans-Serif" font-size="10.00">aprs_modulator.cpp</text>
</a>
</g>
</g>
<!-- Node2&#45;&gt;Node6 -->
<g id="edge5" class="edge">
<title>Node2&#45;&gt;Node6</title>
<path fill="none" stroke="midnightblue" d="M401,-45.8C401,-36.91 401,-26.78 401,-19.75"/>
<polygon fill="midnightblue" stroke="midnightblue" points="397.5,-46.08 401,-56.08 404.5,-46.08 397.5,-46.08"/>
</g>
<!-- Node7 -->
<g id="node7" class="node">
<title>Node7</title>
<g id="a_node7"><a xlink:href="aprs__receiver_8cpp.html" target="_top" xlink:title="Implementation of the APRS receiver class.">
<polygon fill="none" stroke="black" points="476,-0.5 476,-19.5 578,-19.5 578,-0.5 476,-0.5"/>
<text text-anchor="middle" x="527" y="-7.5" font-family="Helvetica,sans-Serif" font-size="10.00">aprs_receiver.cpp</text>
</a>
</g>
</g>
<!-- Node2&#45;&gt;Node7 -->
<g id="edge6" class="edge">
<title>Node2&#45;&gt;Node7</title>
<path fill="none" stroke="midnightblue" d="M430.16,-52.5C453.78,-42.38 486.43,-28.39 507.13,-19.52"/>
<polygon fill="midnightblue" stroke="midnightblue" points="428.78,-49.29 420.97,-56.44 431.54,-55.72 428.78,-49.29"/>
</g>
<!-- Node8 -->
<g id="node8" class="node">
<title>Node8</title>
<g id="a_node8"><a xlink:href="aprs__test_8cpp.html" target="_top" xlink:title=" ">
<polygon fill="none" stroke="black" points="596,-0.5 596,-19.5 678,-19.5 678,-0.5 596,-0.5"/>
<text text-anchor="middle" x="637" y="-7.5" font-family="Helvetica,sans-Serif" font-size="10.00">aprs_test.cpp</text>
</a>
</g>
</g>
<!-- Node2&#45;&gt;Node8 -->
<g id="edge7" class="edge">
<title>Node2&#45;&gt;Node8</title>
<path fill="none" stroke="midnightblue" d="M440.67,-55.85C502.04,-41.77 561.98,-28.09 599.59,-19.52"/>
<polygon fill="midnightblue" stroke="midnightblue" points="439.77,-52.46 430.81,-58.11 441.34,-59.29 439.77,-52.46"/>
</g>
<!-- Node9 -->
<g id="node9" class="node">
<title>Node9</title>
<g id="a_node9"><a xlink:href="pulse__test_8cpp.html" target="_top" xlink:title="PulseAudio output test. Does not use gtest.">
<polygon fill="none" stroke="black" points="696.5,-0.5 696.5,-19.5 783.5,-19.5 783.5,-0.5 696.5,-0.5"/>
<text text-anchor="middle" x="740" y="-7.5" font-family="Helvetica,sans-Serif" font-size="10.00">pulse_test.cpp</text>
</a>
</g>
</g>
<!-- Node2&#45;&gt;Node9 -->
<g id="edge8" class="edge">
<title>Node2&#45;&gt;Node9</title>
<path fill="none" stroke="midnightblue" d="M440.59,-56.03C550.7,-35.6 580.52,-36.8 687,-20 690.04,-19.52 693.18,-19.01 696.34,-18.5"/>
<polygon fill="midnightblue" stroke="midnightblue" points="439.94,-52.59 430.76,-57.87 441.23,-59.47 439.94,-52.59"/>
</g>
</g>
</svg>
