<?xml version="1.0" encoding="UTF-8" standalone="no"?>
<!DOCTYPE svg PUBLIC "-//W3C//DTD SVG 1.1//EN"
 "http://www.w3.org/Graphics/SVG/1.1/DTD/svg11.dtd">
<!-- Generated by graphviz version 2.43.0 (0)
 -->
<!-- Title: band_pass_filter.hpp Pages: 1 -->
<svg width="268pt" height="84pt"
 viewBox="0.00 0.00 267.50 84.00" xmlns="http://www.w3.org/2000/svg" xmlns:xlink="http://www.w3.org/1999/xlink">
<g id="graph0" class="graph" transform="scale(1 1) rotate(0) translate(4 80)">
<title>band_pass_filter.hpp</title>
<!-- Node1 -->
<g id="node1" class="node">
<title>Node1</title>
<g id="a_node1"><a xlink:title="Band&#45;pass filter implementation.">
<polygon fill="#bfbfbf" stroke="black" points="73.5,-56.5 73.5,-75.5 189.5,-75.5 189.5,-56.5 73.5,-56.5"/>
<text text-anchor="middle" x="131.5" y="-63.5" font-family="Helvetica,sans-Serif" font-size="10.00">band_pass_filter.hpp</text>
</a>
</g>
</g>
<!-- Node2 -->
<g id="node2" class="node">
<title>Node2</title>
<g id="a_node2"><a xlink:href="afsk__demodulator_8cpp.html" target="_top" xlink:title="The AFSK demodulator class implementation.">
<polygon fill="none" stroke="black" points="0,-0.5 0,-19.5 125,-19.5 125,-0.5 0,-0.5"/>
<text text-anchor="middle" x="62.5" y="-7.5" font-family="Helvetica,sans-Serif" font-size="10.00">afsk_demodulator.cpp</text>
</a>
</g>
</g>
<!-- Node1&#45;&gt;Node2 -->
<g id="edge1" class="edge">
<title>Node1&#45;&gt;Node2</title>
<path fill="none" stroke="midnightblue" d="M112.46,-50.1C100.04,-40.38 84.26,-28.03 73.79,-19.83"/>
<polygon fill="midnightblue" stroke="midnightblue" points="110.38,-52.92 120.41,-56.32 114.7,-47.4 110.38,-52.92"/>
</g>
<!-- Node3 -->
<g id="node3" class="node">
<title>Node3</title>
<g id="a_node3"><a xlink:href="band__pass__filter_8cpp.html" target="_top" xlink:title=" ">
<polygon fill="none" stroke="black" points="143.5,-0.5 143.5,-19.5 259.5,-19.5 259.5,-0.5 143.5,-0.5"/>
<text text-anchor="middle" x="201.5" y="-7.5" font-family="Helvetica,sans-Serif" font-size="10.00">band_pass_filter.cpp</text>
</a>
</g>
</g>
<!-- Node1&#45;&gt;Node3 -->
<g id="edge2" class="edge">
<title>Node1&#45;&gt;Node3</title>
<path fill="none" stroke="midnightblue" d="M150.81,-50.1C163.41,-40.38 179.43,-28.03 190.05,-19.83"/>
<polygon fill="midnightblue" stroke="midnightblue" points="148.53,-47.44 142.75,-56.32 152.8,-52.99 148.53,-47.44"/>
</g>
</g>
</svg>
