<?xml version="1.0" encoding="UTF-8" standalone="no"?>
<!DOCTYPE svg PUBLIC "-//W3C//DTD SVG 1.1//EN"
 "http://www.w3.org/Graphics/SVG/1.1/DTD/svg11.dtd">
<!-- Generated by graphviz version 2.43.0 (0)
 -->
<!-- Title: band_pass_filter.cpp Pages: 1 -->
<svg width="461pt" height="140pt"
 viewBox="0.00 0.00 460.50 140.00" xmlns="http://www.w3.org/2000/svg" xmlns:xlink="http://www.w3.org/1999/xlink">
<g id="graph0" class="graph" transform="scale(1 1) rotate(0) translate(4 136)">
<title>band_pass_filter.cpp</title>
<!-- Node1 -->
<g id="node1" class="node">
<title>Node1</title>
<g id="a_node1"><a xlink:title=" ">
<polygon fill="#bfbfbf" stroke="black" points="159.5,-112.5 159.5,-131.5 275.5,-131.5 275.5,-112.5 159.5,-112.5"/>
<text text-anchor="middle" x="217.5" y="-119.5" font-family="Helvetica,sans-Serif" font-size="10.00">band_pass_filter.cpp</text>
</a>
</g>
</g>
<!-- Node2 -->
<g id="node2" class="node">
<title>Node2</title>
<g id="a_node2"><a xlink:title=" ">
<polygon fill="none" stroke="#bfbfbf" points="0,-56.5 0,-75.5 59,-75.5 59,-56.5 0,-56.5"/>
<text text-anchor="middle" x="29.5" y="-63.5" font-family="Helvetica,sans-Serif" font-size="10.00">complex</text>
</a>
</g>
</g>
<!-- Node1&#45;&gt;Node2 -->
<g id="edge1" class="edge">
<title>Node1&#45;&gt;Node2</title>
<path fill="none" stroke="midnightblue" d="M187.71,-112.44C155.67,-103.24 104.57,-88.56 69.15,-78.39"/>
<polygon fill="midnightblue" stroke="midnightblue" points="69.73,-74.91 59.15,-75.52 67.79,-81.64 69.73,-74.91"/>
</g>
<!-- Node3 -->
<g id="node3" class="node">
<title>Node3</title>
<g id="a_node3"><a xlink:title=" ">
<polygon fill="none" stroke="#bfbfbf" points="77,-56.5 77,-75.5 132,-75.5 132,-56.5 77,-56.5"/>
<text text-anchor="middle" x="104.5" y="-63.5" font-family="Helvetica,sans-Serif" font-size="10.00">fstream</text>
</a>
</g>
</g>
<!-- Node1&#45;&gt;Node3 -->
<g id="edge2" class="edge">
<title>Node1&#45;&gt;Node3</title>
<path fill="none" stroke="midnightblue" d="M199.59,-112.44C181.25,-103.68 152.49,-89.94 131.41,-79.86"/>
<polygon fill="midnightblue" stroke="midnightblue" points="132.85,-76.67 122.32,-75.52 129.83,-82.99 132.85,-76.67"/>
</g>
<!-- Node4 -->
<g id="node4" class="node">
<title>Node4</title>
<g id="a_node4"><a xlink:title=" ">
<polygon fill="none" stroke="#bfbfbf" points="150.5,-56.5 150.5,-75.5 210.5,-75.5 210.5,-56.5 150.5,-56.5"/>
<text text-anchor="middle" x="180.5" y="-63.5" font-family="Helvetica,sans-Serif" font-size="10.00">iostream</text>
</a>
</g>
</g>
<!-- Node1&#45;&gt;Node4 -->
<g id="edge3" class="edge">
<title>Node1&#45;&gt;Node4</title>
<path fill="none" stroke="midnightblue" d="M211.39,-112.08C206.22,-104.53 198.65,-93.49 192.31,-84.23"/>
<polygon fill="midnightblue" stroke="midnightblue" points="195.04,-82.02 186.5,-75.75 189.26,-85.98 195.04,-82.02"/>
</g>
<!-- Node5 -->
<g id="node5" class="node">
<title>Node5</title>
<g id="a_node5"><a xlink:title=" ">
<polygon fill="none" stroke="#bfbfbf" points="229,-56.5 229,-75.5 280,-75.5 280,-56.5 229,-56.5"/>
<text text-anchor="middle" x="254.5" y="-63.5" font-family="Helvetica,sans-Serif" font-size="10.00">math.h</text>
</a>
</g>
</g>
<!-- Node1&#45;&gt;Node5 -->
<g id="edge4" class="edge">
<title>Node1&#45;&gt;Node5</title>
<path fill="none" stroke="midnightblue" d="M223.61,-112.08C228.78,-104.53 236.35,-93.49 242.69,-84.23"/>
<polygon fill="midnightblue" stroke="midnightblue" points="245.74,-85.98 248.5,-75.75 239.96,-82.02 245.74,-85.98"/>
</g>
<!-- Node6 -->
<g id="node6" class="node">
<title>Node6</title>
<g id="a_node6"><a xlink:title=" ">
<polygon fill="none" stroke="#bfbfbf" points="295,-0.5 295,-19.5 342,-19.5 342,-0.5 295,-0.5"/>
<text text-anchor="middle" x="318.5" y="-7.5" font-family="Helvetica,sans-Serif" font-size="10.00">vector</text>
</a>
</g>
</g>
<!-- Node1&#45;&gt;Node6 -->
<g id="edge5" class="edge">
<title>Node1&#45;&gt;Node6</title>
<path fill="none" stroke="midnightblue" d="M237.15,-112.41C252.76,-104.75 274.27,-92.25 288.5,-76 300.26,-62.57 308.26,-43.75 313.03,-29.82"/>
<polygon fill="midnightblue" stroke="midnightblue" points="316.49,-30.48 316.16,-19.89 309.82,-28.37 316.49,-30.48"/>
</g>
<!-- Node7 -->
<g id="node7" class="node">
<title>Node7</title>
<g id="a_node7"><a xlink:href="band__pass__filter_8hpp.html" target="_top" xlink:title="Band&#45;pass filter implementation.">
<polygon fill="none" stroke="black" points="336.5,-56.5 336.5,-75.5 452.5,-75.5 452.5,-56.5 336.5,-56.5"/>
<text text-anchor="middle" x="394.5" y="-63.5" font-family="Helvetica,sans-Serif" font-size="10.00">band_pass_filter.hpp</text>
</a>
</g>
</g>
<!-- Node1&#45;&gt;Node7 -->
<g id="edge6" class="edge">
<title>Node1&#45;&gt;Node7</title>
<path fill="none" stroke="midnightblue" d="M245.55,-112.44C275.58,-103.28 323.41,-88.69 356.74,-78.52"/>
<polygon fill="midnightblue" stroke="midnightblue" points="358.04,-81.78 366.59,-75.52 356,-75.09 358.04,-81.78"/>
</g>
<!-- Node7&#45;&gt;Node6 -->
<g id="edge8" class="edge">
<title>Node7&#45;&gt;Node6</title>
<path fill="none" stroke="midnightblue" d="M382.29,-56.32C370.72,-48.11 353.12,-35.6 339.34,-25.81"/>
<polygon fill="midnightblue" stroke="midnightblue" points="341.11,-22.77 330.93,-19.83 337.06,-28.48 341.11,-22.77"/>
</g>
<!-- Node8 -->
<g id="node8" class="node">
<title>Node8</title>
<g id="a_node8"><a xlink:title=" ">
<polygon fill="none" stroke="#bfbfbf" points="369.5,-0.5 369.5,-19.5 419.5,-19.5 419.5,-0.5 369.5,-0.5"/>
<text text-anchor="middle" x="394.5" y="-7.5" font-family="Helvetica,sans-Serif" font-size="10.00">cstdint</text>
</a>
</g>
</g>
<!-- Node7&#45;&gt;Node8 -->
<g id="edge7" class="edge">
<title>Node7&#45;&gt;Node8</title>
<path fill="none" stroke="midnightblue" d="M394.5,-56.08C394.5,-49.01 394.5,-38.86 394.5,-29.99"/>
<polygon fill="midnightblue" stroke="midnightblue" points="398,-29.75 394.5,-19.75 391,-29.75 398,-29.75"/>
</g>
</g>
</svg>
