<?xml version="1.0" encoding="UTF-8" standalone="no"?>
<!DOCTYPE svg PUBLIC "-//W3C//DTD SVG 1.1//EN"
 "http://www.w3.org/Graphics/SVG/1.1/DTD/svg11.dtd">
<!-- Generated by graphviz version 2.43.0 (0)
 -->
<!-- Title: bit_stream.hpp Pages: 1 -->
<svg width="124pt" height="84pt"
 viewBox="0.00 0.00 123.50 84.00" xmlns="http://www.w3.org/2000/svg" xmlns:xlink="http://www.w3.org/1999/xlink">
<g id="graph0" class="graph" transform="scale(1 1) rotate(0) translate(4 80)">
<title>bit_stream.hpp</title>
<!-- Node1 -->
<g id="node1" class="node">
<title>Node1</title>
<g id="a_node1"><a xlink:title="The bit stream class.">
<polygon fill="#bfbfbf" stroke="black" points="13,-56.5 13,-75.5 103,-75.5 103,-56.5 13,-56.5"/>
<text text-anchor="middle" x="58" y="-63.5" font-family="Helvetica,sans-Serif" font-size="10.00">bit_stream.hpp</text>
</a>
</g>
</g>
<!-- Node2 -->
<g id="node2" class="node">
<title>Node2</title>
<g id="a_node2"><a xlink:title=" ">
<polygon fill="none" stroke="#bfbfbf" points="0,-0.5 0,-19.5 50,-19.5 50,-0.5 0,-0.5"/>
<text text-anchor="middle" x="25" y="-7.5" font-family="Helvetica,sans-Serif" font-size="10.00">cstdint</text>
</a>
</g>
</g>
<!-- Node1&#45;&gt;Node2 -->
<g id="edge1" class="edge">
<title>Node1&#45;&gt;Node2</title>
<path fill="none" stroke="midnightblue" d="M52.55,-56.08C47.99,-48.61 41.33,-37.72 35.71,-28.52"/>
<polygon fill="midnightblue" stroke="midnightblue" points="38.55,-26.46 30.35,-19.75 32.58,-30.11 38.55,-26.46"/>
</g>
<!-- Node3 -->
<g id="node3" class="node">
<title>Node3</title>
<g id="a_node3"><a xlink:title=" ">
<polygon fill="none" stroke="#bfbfbf" points="68.5,-0.5 68.5,-19.5 115.5,-19.5 115.5,-0.5 68.5,-0.5"/>
<text text-anchor="middle" x="92" y="-7.5" font-family="Helvetica,sans-Serif" font-size="10.00">vector</text>
</a>
</g>
</g>
<!-- Node1&#45;&gt;Node3 -->
<g id="edge2" class="edge">
<title>Node1&#45;&gt;Node3</title>
<path fill="none" stroke="midnightblue" d="M63.61,-56.08C68.37,-48.53 75.32,-37.49 81.15,-28.23"/>
<polygon fill="midnightblue" stroke="midnightblue" points="84.12,-30.08 86.49,-19.75 78.2,-26.35 84.12,-30.08"/>
</g>
</g>
</svg>
