<?xml version="1.0" encoding="UTF-8" standalone="no"?>
<!DOCTYPE svg PUBLIC "-//W3C//DTD SVG 1.1//EN"
 "http://www.w3.org/Graphics/SVG/1.1/DTD/svg11.dtd">
<!-- Generated by graphviz version 2.43.0 (0)
 -->
<!-- Title: bit_stream.hpp Pages: 1 -->
<svg width="1930pt" height="196pt"
 viewBox="0.00 0.00 1929.50 196.00" xmlns="http://www.w3.org/2000/svg" xmlns:xlink="http://www.w3.org/1999/xlink">
<g id="graph0" class="graph" transform="scale(1 1) rotate(0) translate(4 192)">
<title>bit_stream.hpp</title>
<!-- Node1 -->
<g id="node1" class="node">
<title>Node1</title>
<g id="a_node1"><a xlink:title="The bit stream class.">
<polygon fill="#bfbfbf" stroke="black" points="940,-168.5 940,-187.5 1030,-187.5 1030,-168.5 940,-168.5"/>
<text text-anchor="middle" x="985" y="-175.5" font-family="Helvetica,sans-Serif" font-size="10.00">bit_stream.hpp</text>
</a>
</g>
</g>
<!-- Node2 -->
<g id="node2" class="node">
<title>Node2</title>
<g id="a_node2"><a xlink:href="afsk_8hpp.html" target="_top" xlink:title="AFSK related modulation/demodulation.">
<polygon fill="none" stroke="black" points="344.5,-112.5 344.5,-131.5 403.5,-131.5 403.5,-112.5 344.5,-112.5"/>
<text text-anchor="middle" x="374" y="-119.5" font-family="Helvetica,sans-Serif" font-size="10.00">afsk.hpp</text>
</a>
</g>
</g>
<!-- Node1&#45;&gt;Node2 -->
<g id="edge1" class="edge">
<title>Node1&#45;&gt;Node2</title>
<path fill="none" stroke="midnightblue" d="M929.38,-172.08C803.42,-160.95 499.86,-134.12 403.72,-125.63"/>
<polygon fill="midnightblue" stroke="midnightblue" points="929.31,-175.59 939.57,-172.99 929.92,-168.62 929.31,-175.59"/>
</g>
<!-- Node15 -->
<g id="node15" class="node">
<title>Node15</title>
<g id="a_node15"><a xlink:href="ax25_8hpp.html" target="_top" xlink:title="AX.25 tools.">
<polygon fill="none" stroke="black" points="907,-112.5 907,-131.5 969,-131.5 969,-112.5 907,-112.5"/>
<text text-anchor="middle" x="938" y="-119.5" font-family="Helvetica,sans-Serif" font-size="10.00">ax25.hpp</text>
</a>
</g>
</g>
<!-- Node1&#45;&gt;Node15 -->
<g id="edge15" class="edge">
<title>Node1&#45;&gt;Node15</title>
<path fill="none" stroke="midnightblue" d="M970.58,-160.43C962.34,-150.97 952.35,-139.48 945.62,-131.75"/>
<polygon fill="midnightblue" stroke="midnightblue" points="968.03,-162.84 977.24,-168.08 973.31,-158.24 968.03,-162.84"/>
</g>
<!-- Node23 -->
<g id="node23" class="node">
<title>Node23</title>
<g id="a_node23"><a xlink:href="bit__stream_8cpp.html" target="_top" xlink:title=" ">
<polygon fill="none" stroke="black" points="987.5,-112.5 987.5,-131.5 1076.5,-131.5 1076.5,-112.5 987.5,-112.5"/>
<text text-anchor="middle" x="1032" y="-119.5" font-family="Helvetica,sans-Serif" font-size="10.00">bit_stream.cpp</text>
</a>
</g>
</g>
<!-- Node1&#45;&gt;Node23 -->
<g id="edge24" class="edge">
<title>Node1&#45;&gt;Node23</title>
<path fill="none" stroke="midnightblue" d="M999.42,-160.43C1007.66,-150.97 1017.65,-139.48 1024.38,-131.75"/>
<polygon fill="midnightblue" stroke="midnightblue" points="996.69,-158.24 992.76,-168.08 1001.97,-162.84 996.69,-158.24"/>
</g>
<!-- Node24 -->
<g id="node24" class="node">
<title>Node24</title>
<g id="a_node24"><a xlink:href="psk_8hpp.html" target="_top" xlink:title="Phase Shift Keying Implementation.">
<polygon fill="none" stroke="black" points="1608.5,-112.5 1608.5,-131.5 1663.5,-131.5 1663.5,-112.5 1608.5,-112.5"/>
<text text-anchor="middle" x="1636" y="-119.5" font-family="Helvetica,sans-Serif" font-size="10.00">psk.hpp</text>
</a>
</g>
</g>
<!-- Node1&#45;&gt;Node24 -->
<g id="edge25" class="edge">
<title>Node1&#45;&gt;Node24</title>
<path fill="none" stroke="midnightblue" d="M1039.99,-172.44C1173.16,-161.39 1509.28,-133.51 1608.2,-125.31"/>
<polygon fill="midnightblue" stroke="midnightblue" points="1039.68,-168.95 1030,-173.27 1040.26,-175.93 1039.68,-168.95"/>
</g>
<!-- Node3 -->
<g id="node3" class="node">
<title>Node3</title>
<g id="a_node3"><a xlink:href="afsk__demodulator_8cpp.html" target="_top" xlink:title="The AFSK demodulator class implementation.">
<polygon fill="none" stroke="black" points="220.5,-56.5 220.5,-75.5 345.5,-75.5 345.5,-56.5 220.5,-56.5"/>
<text text-anchor="middle" x="283" y="-63.5" font-family="Helvetica,sans-Serif" font-size="10.00">afsk_demodulator.cpp</text>
</a>
</g>
</g>
<!-- Node2&#45;&gt;Node3 -->
<g id="edge2" class="edge">
<title>Node2&#45;&gt;Node3</title>
<path fill="none" stroke="midnightblue" d="M350.71,-107.18C333.96,-97.24 311.9,-84.15 297.58,-75.65"/>
<polygon fill="midnightblue" stroke="midnightblue" points="348.99,-110.23 359.38,-112.32 352.57,-104.21 348.99,-110.23"/>
</g>
<!-- Node4 -->
<g id="node4" class="node">
<title>Node4</title>
<g id="a_node4"><a xlink:href="afsk__modulator_8cpp.html" target="_top" xlink:title="The AFSK modulator class implementation.">
<polygon fill="none" stroke="black" points="402.5,-56.5 402.5,-75.5 515.5,-75.5 515.5,-56.5 402.5,-56.5"/>
<text text-anchor="middle" x="459" y="-63.5" font-family="Helvetica,sans-Serif" font-size="10.00">afsk_modulator.cpp</text>
</a>
</g>
</g>
<!-- Node2&#45;&gt;Node4 -->
<g id="edge3" class="edge">
<title>Node2&#45;&gt;Node4</title>
<path fill="none" stroke="midnightblue" d="M396.19,-106.9C411.78,-97 432.13,-84.07 445.38,-75.65"/>
<polygon fill="midnightblue" stroke="midnightblue" points="394.22,-104.01 387.66,-112.32 397.97,-109.92 394.22,-104.01"/>
</g>
<!-- Node5 -->
<g id="node5" class="node">
<title>Node5</title>
<g id="a_node5"><a xlink:href="afsk__receiver_8cpp.html" target="_top" xlink:title="Implementation of the AFSK receiver class.">
<polygon fill="none" stroke="black" points="0,-56.5 0,-75.5 102,-75.5 102,-56.5 0,-56.5"/>
<text text-anchor="middle" x="51" y="-63.5" font-family="Helvetica,sans-Serif" font-size="10.00">afsk_receiver.cpp</text>
</a>
</g>
</g>
<!-- Node2&#45;&gt;Node5 -->
<g id="edge4" class="edge">
<title>Node2&#45;&gt;Node5</title>
<path fill="none" stroke="midnightblue" d="M334.52,-114.4C276.01,-104.62 166.29,-86.27 101.84,-75.5"/>
<polygon fill="midnightblue" stroke="midnightblue" points="334.04,-117.87 344.48,-116.06 335.19,-110.96 334.04,-117.87"/>
</g>
<!-- Node6 -->
<g id="node6" class="node">
<title>Node6</title>
<g id="a_node6"><a xlink:href="afsk__test_8cpp.html" target="_top" xlink:title=" ">
<polygon fill="none" stroke="black" points="120,-56.5 120,-75.5 202,-75.5 202,-56.5 120,-56.5"/>
<text text-anchor="middle" x="161" y="-63.5" font-family="Helvetica,sans-Serif" font-size="10.00">afsk_test.cpp</text>
</a>
</g>
</g>
<!-- Node2&#45;&gt;Node6 -->
<g id="edge5" class="edge">
<title>Node2&#45;&gt;Node6</title>
<path fill="none" stroke="midnightblue" d="M334.65,-111.02C294.41,-100.82 232.58,-85.15 194.57,-75.51"/>
<polygon fill="midnightblue" stroke="midnightblue" points="333.83,-114.43 344.38,-113.49 335.55,-107.64 333.83,-114.43"/>
</g>
<!-- Node7 -->
<g id="node7" class="node">
<title>Node7</title>
<g id="a_node7"><a xlink:href="aprs_8hpp.html" target="_top" xlink:title=" ">
<polygon fill="none" stroke="black" points="533.5,-56.5 533.5,-75.5 592.5,-75.5 592.5,-56.5 533.5,-56.5"/>
<text text-anchor="middle" x="563" y="-63.5" font-family="Helvetica,sans-Serif" font-size="10.00">aprs.hpp</text>
</a>
</g>
</g>
<!-- Node2&#45;&gt;Node7 -->
<g id="edge6" class="edge">
<title>Node2&#45;&gt;Node7</title>
<path fill="none" stroke="midnightblue" d="M413.15,-109.81C448.9,-99.6 500.96,-84.73 533.36,-75.47"/>
<polygon fill="midnightblue" stroke="midnightblue" points="412.18,-106.45 403.53,-112.56 414.11,-113.18 412.18,-106.45"/>
</g>
<!-- Node14 -->
<g id="node14" class="node">
<title>Node14</title>
<g id="a_node14"><a xlink:href="pulse__test_8cpp.html" target="_top" xlink:title="PulseAudio output test. Does not use gtest.">
<polygon fill="none" stroke="black" points="197.5,-0.5 197.5,-19.5 284.5,-19.5 284.5,-0.5 197.5,-0.5"/>
<text text-anchor="middle" x="241" y="-7.5" font-family="Helvetica,sans-Serif" font-size="10.00">pulse_test.cpp</text>
</a>
</g>
</g>
<!-- Node2&#45;&gt;Node14 -->
<g id="edge14" class="edge">
<title>Node2&#45;&gt;Node14</title>
<path fill="none" stroke="midnightblue" d="M372.54,-102.09C370.5,-87.81 365.62,-68.6 354,-56 335.89,-36.37 308.08,-25.15 284.59,-18.82"/>
<polygon fill="midnightblue" stroke="midnightblue" points="369.08,-102.69 373.64,-112.26 376.04,-101.94 369.08,-102.69"/>
</g>
<!-- Node8 -->
<g id="node8" class="node">
<title>Node8</title>
<g id="a_node8"><a xlink:href="aprs_8cpp.html" target="_top" xlink:title="APRS implementation.">
<polygon fill="none" stroke="black" points="922,-0.5 922,-19.5 980,-19.5 980,-0.5 922,-0.5"/>
<text text-anchor="middle" x="951" y="-7.5" font-family="Helvetica,sans-Serif" font-size="10.00">aprs.cpp</text>
</a>
</g>
</g>
<!-- Node7&#45;&gt;Node8 -->
<g id="edge7" class="edge">
<title>Node7&#45;&gt;Node8</title>
<path fill="none" stroke="midnightblue" d="M602.87,-55.84C740.28,-32.43 778.74,-43.56 913,-20 915.8,-19.51 918.71,-18.93 921.61,-18.32"/>
<polygon fill="midnightblue" stroke="midnightblue" points="602.06,-52.43 592.8,-57.59 603.25,-59.33 602.06,-52.43"/>
</g>
<!-- Node9 -->
<g id="node9" class="node">
<title>Node9</title>
<g id="a_node9"><a xlink:href="aprs__demodulator_8cpp.html" target="_top" xlink:title="Implementation of the APRS demodulator class.">
<polygon fill="none" stroke="black" points="302.5,-0.5 302.5,-19.5 427.5,-19.5 427.5,-0.5 302.5,-0.5"/>
<text text-anchor="middle" x="365" y="-7.5" font-family="Helvetica,sans-Serif" font-size="10.00">aprs_demodulator.cpp</text>
</a>
</g>
</g>
<!-- Node7&#45;&gt;Node9 -->
<g id="edge8" class="edge">
<title>Node7&#45;&gt;Node9</title>
<path fill="none" stroke="midnightblue" d="M523.34,-54.18C486.02,-44 430.87,-28.97 396.48,-19.59"/>
<polygon fill="midnightblue" stroke="midnightblue" points="522.79,-57.66 533.36,-56.92 524.63,-50.91 522.79,-57.66"/>
</g>
<!-- Node10 -->
<g id="node10" class="node">
<title>Node10</title>
<g id="a_node10"><a xlink:href="aprs__encoders_8cpp.html" target="_top" xlink:title="Encoding functions for APRS packets.">
<polygon fill="none" stroke="black" points="445.5,-0.5 445.5,-19.5 552.5,-19.5 552.5,-0.5 445.5,-0.5"/>
<text text-anchor="middle" x="499" y="-7.5" font-family="Helvetica,sans-Serif" font-size="10.00">aprs_encoders.cpp</text>
</a>
</g>
</g>
<!-- Node7&#45;&gt;Node10 -->
<g id="edge9" class="edge">
<title>Node7&#45;&gt;Node10</title>
<path fill="none" stroke="midnightblue" d="M545.01,-49.82C533.54,-40.15 519.09,-27.95 509.47,-19.83"/>
<polygon fill="midnightblue" stroke="midnightblue" points="542.82,-52.55 552.72,-56.32 547.33,-47.2 542.82,-52.55"/>
</g>
<!-- Node11 -->
<g id="node11" class="node">
<title>Node11</title>
<g id="a_node11"><a xlink:href="aprs__modulator_8cpp.html" target="_top" xlink:title="Implementation of the APRS modulator class.">
<polygon fill="none" stroke="black" points="570.5,-0.5 570.5,-19.5 683.5,-19.5 683.5,-0.5 570.5,-0.5"/>
<text text-anchor="middle" x="627" y="-7.5" font-family="Helvetica,sans-Serif" font-size="10.00">aprs_modulator.cpp</text>
</a>
</g>
</g>
<!-- Node7&#45;&gt;Node11 -->
<g id="edge10" class="edge">
<title>Node7&#45;&gt;Node11</title>
<path fill="none" stroke="midnightblue" d="M580.99,-49.82C592.46,-40.15 606.91,-27.95 616.53,-19.83"/>
<polygon fill="midnightblue" stroke="midnightblue" points="578.67,-47.2 573.28,-56.32 583.18,-52.55 578.67,-47.2"/>
</g>
<!-- Node12 -->
<g id="node12" class="node">
<title>Node12</title>
<g id="a_node12"><a xlink:href="aprs__receiver_8cpp.html" target="_top" xlink:title="Implementation of the APRS receiver class.">
<polygon fill="none" stroke="black" points="702,-0.5 702,-19.5 804,-19.5 804,-0.5 702,-0.5"/>
<text text-anchor="middle" x="753" y="-7.5" font-family="Helvetica,sans-Serif" font-size="10.00">aprs_receiver.cpp</text>
</a>
</g>
</g>
<!-- Node7&#45;&gt;Node12 -->
<g id="edge11" class="edge">
<title>Node7&#45;&gt;Node12</title>
<path fill="none" stroke="midnightblue" d="M602.33,-53.82C638.15,-43.64 690.29,-28.82 722.89,-19.56"/>
<polygon fill="midnightblue" stroke="midnightblue" points="601.35,-50.46 592.69,-56.56 603.26,-57.2 601.35,-50.46"/>
</g>
<!-- Node13 -->
<g id="node13" class="node">
<title>Node13</title>
<g id="a_node13"><a xlink:href="aprs__test_8cpp.html" target="_top" xlink:title=" ">
<polygon fill="none" stroke="black" points="822,-0.5 822,-19.5 904,-19.5 904,-0.5 822,-0.5"/>
<text text-anchor="middle" x="863" y="-7.5" font-family="Helvetica,sans-Serif" font-size="10.00">aprs_test.cpp</text>
</a>
</g>
</g>
<!-- Node7&#45;&gt;Node13 -->
<g id="edge12" class="edge">
<title>Node7&#45;&gt;Node13</title>
<path fill="none" stroke="midnightblue" d="M602.72,-55.74C696.34,-36.93 721.98,-35.92 813,-20 815.87,-19.5 818.83,-18.98 821.81,-18.45"/>
<polygon fill="midnightblue" stroke="midnightblue" points="601.94,-52.33 592.83,-57.74 603.33,-59.19 601.94,-52.33"/>
</g>
<!-- Node7&#45;&gt;Node14 -->
<g id="edge13" class="edge">
<title>Node7&#45;&gt;Node14</title>
<path fill="none" stroke="midnightblue" d="M523.36,-56C420.31,-36.32 392.42,-36.35 293,-20 290.29,-19.55 287.5,-19.09 284.68,-18.62"/>
<polygon fill="midnightblue" stroke="midnightblue" points="522.76,-59.44 533.24,-57.9 524.08,-52.57 522.76,-59.44"/>
</g>
<!-- Node15&#45;&gt;Node7 -->
<g id="edge16" class="edge">
<title>Node15&#45;&gt;Node7</title>
<path fill="none" stroke="midnightblue" d="M896.65,-116.82C832.89,-110.08 706.84,-95.55 601,-76 598.33,-75.51 595.57,-74.95 592.81,-74.36"/>
<polygon fill="midnightblue" stroke="midnightblue" points="896.4,-120.32 906.71,-117.88 897.13,-113.35 896.4,-120.32"/>
</g>
<!-- Node16 -->
<g id="node16" class="node">
<title>Node16</title>
<g id="a_node16"><a xlink:href="ax25__address_8cpp.html" target="_top" xlink:title="The AX.25 address class implementation.">
<polygon fill="none" stroke="black" points="1079,-56.5 1079,-75.5 1183,-75.5 1183,-56.5 1079,-56.5"/>
<text text-anchor="middle" x="1131" y="-63.5" font-family="Helvetica,sans-Serif" font-size="10.00">ax25_address.cpp</text>
</a>
</g>
</g>
<!-- Node15&#45;&gt;Node16 -->
<g id="edge17" class="edge">
<title>Node15&#45;&gt;Node16</title>
<path fill="none" stroke="midnightblue" d="M978.39,-109.7C1014.82,-99.51 1067.59,-84.74 1100.56,-75.52"/>
<polygon fill="midnightblue" stroke="midnightblue" points="977.27,-106.38 968.58,-112.44 979.15,-113.12 977.27,-106.38"/>
</g>
<!-- Node17 -->
<g id="node17" class="node">
<title>Node17</title>
<g id="a_node17"><a xlink:href="ax25__address__test_8cpp.html" target="_top" xlink:title=" ">
<polygon fill="none" stroke="black" points="1201,-56.5 1201,-75.5 1329,-75.5 1329,-56.5 1201,-56.5"/>
<text text-anchor="middle" x="1265" y="-63.5" font-family="Helvetica,sans-Serif" font-size="10.00">ax25_address_test.cpp</text>
</a>
</g>
</g>
<!-- Node15&#45;&gt;Node17 -->
<g id="edge18" class="edge">
<title>Node15&#45;&gt;Node17</title>
<path fill="none" stroke="midnightblue" d="M979.47,-111.82C1062.11,-96.24 1146.94,-83.5 1202.93,-75.53"/>
<polygon fill="midnightblue" stroke="midnightblue" points="978.57,-108.42 969.4,-113.73 979.88,-115.3 978.57,-108.42"/>
</g>
<!-- Node18 -->
<g id="node18" class="node">
<title>Node18</title>
<g id="a_node18"><a xlink:href="ax25__crc__test_8cpp.html" target="_top" xlink:title=" ">
<polygon fill="none" stroke="black" points="1347,-56.5 1347,-75.5 1451,-75.5 1451,-56.5 1347,-56.5"/>
<text text-anchor="middle" x="1399" y="-63.5" font-family="Helvetica,sans-Serif" font-size="10.00">ax25_crc_test.cpp</text>
</a>
</g>
</g>
<!-- Node15&#45;&gt;Node18 -->
<g id="edge19" class="edge">
<title>Node15&#45;&gt;Node18</title>
<path fill="none" stroke="midnightblue" d="M979.51,-111.93C1138.49,-86.68 1181.69,-95.34 1338,-76 1340.87,-75.65 1343.81,-75.27 1346.78,-74.87"/>
<polygon fill="midnightblue" stroke="midnightblue" points="978.69,-108.52 969.37,-113.56 979.8,-115.43 978.69,-108.52"/>
</g>
<!-- Node19 -->
<g id="node19" class="node">
<title>Node19</title>
<g id="a_node19"><a xlink:href="ax25__decode_8cpp.html" target="_top" xlink:title="AX.25 decoding implementation.">
<polygon fill="none" stroke="black" points="610.5,-56.5 610.5,-75.5 711.5,-75.5 711.5,-56.5 610.5,-56.5"/>
<text text-anchor="middle" x="661" y="-63.5" font-family="Helvetica,sans-Serif" font-size="10.00">ax25_decode.cpp</text>
</a>
</g>
</g>
<!-- Node15&#45;&gt;Node19 -->
<g id="edge20" class="edge">
<title>Node15&#45;&gt;Node19</title>
<path fill="none" stroke="midnightblue" d="M896.65,-112.94C845.14,-102.9 757.5,-85.81 704.85,-75.55"/>
<polygon fill="midnightblue" stroke="midnightblue" points="896.28,-116.43 906.76,-114.91 897.62,-109.56 896.28,-116.43"/>
</g>
<!-- Node20 -->
<g id="node20" class="node">
<title>Node20</title>
<g id="a_node20"><a xlink:href="ax25__fcs_8cpp.html" target="_top" xlink:title="AX.25 Frame Check Sequence (FCS) tools.">
<polygon fill="none" stroke="black" points="730,-56.5 730,-75.5 810,-75.5 810,-56.5 730,-56.5"/>
<text text-anchor="middle" x="770" y="-63.5" font-family="Helvetica,sans-Serif" font-size="10.00">ax25_fcs.cpp</text>
</a>
</g>
</g>
<!-- Node15&#45;&gt;Node20 -->
<g id="edge21" class="edge">
<title>Node15&#45;&gt;Node20</title>
<path fill="none" stroke="midnightblue" d="M901.61,-109.3C869.96,-99.13 824.83,-84.62 796.5,-75.52"/>
<polygon fill="midnightblue" stroke="midnightblue" points="900.79,-112.72 911.38,-112.44 902.93,-106.05 900.79,-112.72"/>
</g>
<!-- Node21 -->
<g id="node21" class="node">
<title>Node21</title>
<g id="a_node21"><a xlink:href="ax25__frame_8cpp.html" target="_top" xlink:title="General AX.25 frame class.">
<polygon fill="none" stroke="black" points="828.5,-56.5 828.5,-75.5 923.5,-75.5 923.5,-56.5 828.5,-56.5"/>
<text text-anchor="middle" x="876" y="-63.5" font-family="Helvetica,sans-Serif" font-size="10.00">ax25_frame.cpp</text>
</a>
</g>
</g>
<!-- Node15&#45;&gt;Node21 -->
<g id="edge22" class="edge">
<title>Node15&#45;&gt;Node21</title>
<path fill="none" stroke="midnightblue" d="M920.25,-105.54C909.19,-95.91 895.37,-83.87 886.14,-75.83"/>
<polygon fill="midnightblue" stroke="midnightblue" points="918.2,-108.4 928.04,-112.32 922.8,-103.12 918.2,-108.4"/>
</g>
<!-- Node22 -->
<g id="node22" class="node">
<title>Node22</title>
<g id="a_node22"><a xlink:href="ax25__frame__test_8cpp.html" target="_top" xlink:title=" ">
<polygon fill="none" stroke="black" points="941.5,-56.5 941.5,-75.5 1060.5,-75.5 1060.5,-56.5 941.5,-56.5"/>
<text text-anchor="middle" x="1001" y="-63.5" font-family="Helvetica,sans-Serif" font-size="10.00">ax25_frame_test.cpp</text>
</a>
</g>
</g>
<!-- Node15&#45;&gt;Node22 -->
<g id="edge23" class="edge">
<title>Node15&#45;&gt;Node22</title>
<path fill="none" stroke="midnightblue" d="M956.04,-105.54C967.27,-95.91 981.32,-83.87 990.69,-75.83"/>
<polygon fill="midnightblue" stroke="midnightblue" points="953.44,-103.16 948.12,-112.32 957.99,-108.47 953.44,-103.16"/>
</g>
<!-- Node25 -->
<g id="node25" class="node">
<title>Node25</title>
<g id="a_node25"><a xlink:href="convolutional__code_8cpp.html" target="_top" xlink:title="Convolutional Code Implementation.">
<polygon fill="none" stroke="black" points="1790.5,-56.5 1790.5,-75.5 1921.5,-75.5 1921.5,-56.5 1790.5,-56.5"/>
<text text-anchor="middle" x="1856" y="-63.5" font-family="Helvetica,sans-Serif" font-size="10.00">convolutional_code.cpp</text>
</a>
</g>
</g>
<!-- Node24&#45;&gt;Node25 -->
<g id="edge26" class="edge">
<title>Node24&#45;&gt;Node25</title>
<path fill="none" stroke="midnightblue" d="M1673.83,-111.72C1715.2,-101.56 1780.95,-85.42 1821.12,-75.56"/>
<polygon fill="midnightblue" stroke="midnightblue" points="1672.74,-108.38 1663.86,-114.16 1674.41,-115.18 1672.74,-108.38"/>
</g>
<!-- Node26 -->
<g id="node26" class="node">
<title>Node26</title>
<g id="a_node26"><a xlink:href="psk__modulator_8cpp.html" target="_top" xlink:title="Phase Shift Keying modulator.">
<polygon fill="none" stroke="black" points="1469.5,-56.5 1469.5,-75.5 1578.5,-75.5 1578.5,-56.5 1469.5,-56.5"/>
<text text-anchor="middle" x="1524" y="-63.5" font-family="Helvetica,sans-Serif" font-size="10.00">psk_modulator.cpp</text>
</a>
</g>
</g>
<!-- Node24&#45;&gt;Node26 -->
<g id="edge27" class="edge">
<title>Node24&#45;&gt;Node26</title>
<path fill="none" stroke="midnightblue" d="M1608.75,-107.86C1587.98,-97.85 1559.98,-84.35 1541.95,-75.65"/>
<polygon fill="midnightblue" stroke="midnightblue" points="1607.48,-111.13 1618.01,-112.32 1610.52,-104.83 1607.48,-111.13"/>
</g>
<!-- Node27 -->
<g id="node27" class="node">
<title>Node27</title>
<g id="a_node27"><a xlink:href="psk__test_8cpp.html" target="_top" xlink:title=" ">
<polygon fill="none" stroke="black" points="1597,-56.5 1597,-75.5 1675,-75.5 1675,-56.5 1597,-56.5"/>
<text text-anchor="middle" x="1636" y="-63.5" font-family="Helvetica,sans-Serif" font-size="10.00">psk_test.cpp</text>
</a>
</g>
</g>
<!-- Node24&#45;&gt;Node27 -->
<g id="edge28" class="edge">
<title>Node24&#45;&gt;Node27</title>
<path fill="none" stroke="midnightblue" d="M1636,-101.8C1636,-92.91 1636,-82.78 1636,-75.75"/>
<polygon fill="midnightblue" stroke="midnightblue" points="1632.5,-102.08 1636,-112.08 1639.5,-102.08 1632.5,-102.08"/>
</g>
<!-- Node28 -->
<g id="node28" class="node">
<title>Node28</title>
<g id="a_node28"><a xlink:href="varicode_8cpp.html" target="_top" xlink:title="Varicode Implementation.">
<polygon fill="none" stroke="black" points="1693.5,-56.5 1693.5,-75.5 1772.5,-75.5 1772.5,-56.5 1693.5,-56.5"/>
<text text-anchor="middle" x="1733" y="-63.5" font-family="Helvetica,sans-Serif" font-size="10.00">varicode.cpp</text>
</a>
</g>
</g>
<!-- Node24&#45;&gt;Node28 -->
<g id="edge29" class="edge">
<title>Node24&#45;&gt;Node28</title>
<path fill="none" stroke="midnightblue" d="M1660.34,-107.45C1678.24,-97.48 1702.05,-84.23 1717.45,-75.65"/>
<polygon fill="midnightblue" stroke="midnightblue" points="1658.62,-104.4 1651.58,-112.32 1662.02,-110.52 1658.62,-104.4"/>
</g>
</g>
</svg>
