<?xml version="1.0" encoding="UTF-8" standalone="no"?>
<!DOCTYPE svg PUBLIC "-//W3C//DTD SVG 1.1//EN"
 "http://www.w3.org/Graphics/SVG/1.1/DTD/svg11.dtd">
<!-- Generated by graphviz version 2.43.0 (0)
 -->
<!-- Title: bit_stream.hpp Pages: 1 -->
<svg width="1461pt" height="196pt"
 viewBox="0.00 0.00 1460.50 196.00" xmlns="http://www.w3.org/2000/svg" xmlns:xlink="http://www.w3.org/1999/xlink">
<g id="graph0" class="graph" transform="scale(1 1) rotate(0) translate(4 192)">
<title>bit_stream.hpp</title>
<!-- Node1 -->
<g id="node1" class="node">
<title>Node1</title>
<g id="a_node1"><a xlink:title="The bit stream class.">
<polygon fill="#bfbfbf" stroke="black" points="293.5,-168.5 293.5,-187.5 383.5,-187.5 383.5,-168.5 293.5,-168.5"/>
<text text-anchor="middle" x="338.5" y="-175.5" font-family="Helvetica,sans-Serif" font-size="10.00">bit_stream.hpp</text>
</a>
</g>
</g>
<!-- Node2 -->
<g id="node2" class="node">
<title>Node2</title>
<g id="a_node2"><a xlink:href="bit__stream_8cpp.html" target="_top" xlink:title=" ">
<polygon fill="none" stroke="black" points="202,-112.5 202,-131.5 291,-131.5 291,-112.5 202,-112.5"/>
<text text-anchor="middle" x="246.5" y="-119.5" font-family="Helvetica,sans-Serif" font-size="10.00">bit_stream.cpp</text>
</a>
</g>
</g>
<!-- Node1&#45;&gt;Node2 -->
<g id="edge1" class="edge">
<title>Node1&#45;&gt;Node2</title>
<path fill="none" stroke="midnightblue" d="M314.95,-163.18C298.02,-153.24 275.72,-140.15 261.24,-131.65"/>
<polygon fill="midnightblue" stroke="midnightblue" points="313.32,-166.28 323.72,-168.32 316.87,-160.24 313.32,-166.28"/>
</g>
<!-- Node3 -->
<g id="node3" class="node">
<title>Node3</title>
<g id="a_node3"><a xlink:href="afsk_8hpp.html" target="_top" xlink:title="AFSK related modulation/demodulation.">
<polygon fill="none" stroke="black" points="309,-112.5 309,-131.5 368,-131.5 368,-112.5 309,-112.5"/>
<text text-anchor="middle" x="338.5" y="-119.5" font-family="Helvetica,sans-Serif" font-size="10.00">afsk.hpp</text>
</a>
</g>
</g>
<!-- Node1&#45;&gt;Node3 -->
<g id="edge2" class="edge">
<title>Node1&#45;&gt;Node3</title>
<path fill="none" stroke="midnightblue" d="M338.5,-157.8C338.5,-148.91 338.5,-138.78 338.5,-131.75"/>
<polygon fill="midnightblue" stroke="midnightblue" points="335,-158.08 338.5,-168.08 342,-158.08 335,-158.08"/>
</g>
<!-- Node16 -->
<g id="node16" class="node">
<title>Node16</title>
<g id="a_node16"><a xlink:href="ax25_8hpp.html" target="_top" xlink:title="AX.25 tools.">
<polygon fill="none" stroke="black" points="890.5,-112.5 890.5,-131.5 952.5,-131.5 952.5,-112.5 890.5,-112.5"/>
<text text-anchor="middle" x="921.5" y="-119.5" font-family="Helvetica,sans-Serif" font-size="10.00">ax25.hpp</text>
</a>
</g>
</g>
<!-- Node1&#45;&gt;Node16 -->
<g id="edge16" class="edge">
<title>Node1&#45;&gt;Node16</title>
<path fill="none" stroke="midnightblue" d="M393.86,-171.87C514.21,-160.73 796.36,-134.59 890.39,-125.88"/>
<polygon fill="midnightblue" stroke="midnightblue" points="393.4,-168.4 383.76,-172.81 394.04,-175.37 393.4,-168.4"/>
</g>
<!-- Node4 -->
<g id="node4" class="node">
<title>Node4</title>
<g id="a_node4"><a xlink:href="afsk__demodulator_8cpp.html" target="_top" xlink:title="The AFSK demodulator class implementation.">
<polygon fill="none" stroke="black" points="0,-56.5 0,-75.5 125,-75.5 125,-56.5 0,-56.5"/>
<text text-anchor="middle" x="62.5" y="-63.5" font-family="Helvetica,sans-Serif" font-size="10.00">afsk_demodulator.cpp</text>
</a>
</g>
</g>
<!-- Node3&#45;&gt;Node4 -->
<g id="edge3" class="edge">
<title>Node3&#45;&gt;Node4</title>
<path fill="none" stroke="midnightblue" d="M298.66,-111.89C227.37,-97 156.06,-83.78 110.27,-75.5"/>
<polygon fill="midnightblue" stroke="midnightblue" points="298.21,-115.37 308.72,-114 299.65,-108.52 298.21,-115.37"/>
</g>
<!-- Node5 -->
<g id="node5" class="node">
<title>Node5</title>
<g id="a_node5"><a xlink:href="afsk__modulator_8cpp.html" target="_top" xlink:title="The AFSK modulator class implementation.">
<polygon fill="none" stroke="black" points="282,-56.5 282,-75.5 395,-75.5 395,-56.5 282,-56.5"/>
<text text-anchor="middle" x="338.5" y="-63.5" font-family="Helvetica,sans-Serif" font-size="10.00">afsk_modulator.cpp</text>
</a>
</g>
</g>
<!-- Node3&#45;&gt;Node5 -->
<g id="edge4" class="edge">
<title>Node3&#45;&gt;Node5</title>
<path fill="none" stroke="midnightblue" d="M338.5,-101.8C338.5,-92.91 338.5,-82.78 338.5,-75.75"/>
<polygon fill="midnightblue" stroke="midnightblue" points="335,-102.08 338.5,-112.08 342,-102.08 335,-102.08"/>
</g>
<!-- Node6 -->
<g id="node6" class="node">
<title>Node6</title>
<g id="a_node6"><a xlink:href="afsk__receiver_8cpp.html" target="_top" xlink:title="Implementation of the AFSK receiver class.">
<polygon fill="none" stroke="black" points="413.5,-56.5 413.5,-75.5 515.5,-75.5 515.5,-56.5 413.5,-56.5"/>
<text text-anchor="middle" x="464.5" y="-63.5" font-family="Helvetica,sans-Serif" font-size="10.00">afsk_receiver.cpp</text>
</a>
</g>
</g>
<!-- Node3&#45;&gt;Node6 -->
<g id="edge5" class="edge">
<title>Node3&#45;&gt;Node6</title>
<path fill="none" stroke="midnightblue" d="M367.66,-108.5C391.28,-98.38 423.93,-84.39 444.63,-75.52"/>
<polygon fill="midnightblue" stroke="midnightblue" points="366.28,-105.29 358.47,-112.44 369.04,-111.72 366.28,-105.29"/>
</g>
<!-- Node7 -->
<g id="node7" class="node">
<title>Node7</title>
<g id="a_node7"><a xlink:href="aprs_8hpp.html" target="_top" xlink:title="APRS implementation.">
<polygon fill="none" stroke="black" points="534,-56.5 534,-75.5 593,-75.5 593,-56.5 534,-56.5"/>
<text text-anchor="middle" x="563.5" y="-63.5" font-family="Helvetica,sans-Serif" font-size="10.00">aprs.hpp</text>
</a>
</g>
</g>
<!-- Node3&#45;&gt;Node7 -->
<g id="edge6" class="edge">
<title>Node3&#45;&gt;Node7</title>
<path fill="none" stroke="midnightblue" d="M378.27,-111.45C422.8,-100.77 493.94,-83.69 533.86,-74.11"/>
<polygon fill="midnightblue" stroke="midnightblue" points="377.29,-108.09 368.38,-113.83 378.92,-114.9 377.29,-108.09"/>
</g>
<!-- Node14 -->
<g id="node14" class="node">
<title>Node14</title>
<g id="a_node14"><a xlink:href="pulse__test_8cpp.html" target="_top" xlink:title="PulseAudio output test. Does not use gtest.">
<polygon fill="none" stroke="black" points="130,-0.5 130,-19.5 217,-19.5 217,-0.5 130,-0.5"/>
<text text-anchor="middle" x="173.5" y="-7.5" font-family="Helvetica,sans-Serif" font-size="10.00">pulse_test.cpp</text>
</a>
</g>
</g>
<!-- Node3&#45;&gt;Node14 -->
<g id="edge15" class="edge">
<title>Node3&#45;&gt;Node14</title>
<path fill="none" stroke="midnightblue" d="M299.24,-111.62C251.41,-100.02 176.44,-81.15 172.5,-76 159.88,-59.51 165.92,-33.14 170.31,-19.62"/>
<polygon fill="midnightblue" stroke="midnightblue" points="298.46,-115.04 309,-113.98 300.1,-108.23 298.46,-115.04"/>
</g>
<!-- Node15 -->
<g id="node15" class="node">
<title>Node15</title>
<g id="a_node15"><a xlink:href="afsk__test_8cpp.html" target="_top" xlink:title=" ">
<polygon fill="none" stroke="black" points="181.5,-56.5 181.5,-75.5 263.5,-75.5 263.5,-56.5 181.5,-56.5"/>
<text text-anchor="middle" x="222.5" y="-63.5" font-family="Helvetica,sans-Serif" font-size="10.00">afsk_test.cpp</text>
</a>
</g>
</g>
<!-- Node3&#45;&gt;Node15 -->
<g id="edge14" class="edge">
<title>Node3&#45;&gt;Node15</title>
<path fill="none" stroke="midnightblue" d="M310.78,-108.1C289.11,-98.01 259.6,-84.27 240.79,-75.52"/>
<polygon fill="midnightblue" stroke="midnightblue" points="309.58,-111.4 320.12,-112.44 312.53,-105.05 309.58,-111.4"/>
</g>
<!-- Node8 -->
<g id="node8" class="node">
<title>Node8</title>
<g id="a_node8"><a xlink:href="aprs__demodulator_8cpp.html" target="_top" xlink:title="Implementation of the APRS demodulator class.">
<polygon fill="none" stroke="black" points="798,-0.5 798,-19.5 923,-19.5 923,-0.5 798,-0.5"/>
<text text-anchor="middle" x="860.5" y="-7.5" font-family="Helvetica,sans-Serif" font-size="10.00">aprs_demodulator.cpp</text>
</a>
</g>
</g>
<!-- Node7&#45;&gt;Node8 -->
<g id="edge7" class="edge">
<title>Node7&#45;&gt;Node8</title>
<path fill="none" stroke="midnightblue" d="M603.45,-55.69C678.64,-40.44 755.46,-27.58 805.75,-19.53"/>
<polygon fill="midnightblue" stroke="midnightblue" points="602.43,-52.32 593.33,-57.75 603.83,-59.18 602.43,-52.32"/>
</g>
<!-- Node9 -->
<g id="node9" class="node">
<title>Node9</title>
<g id="a_node9"><a xlink:href="aprs__encoders_8cpp.html" target="_top" xlink:title="Encoding functions for APRS packets.">
<polygon fill="none" stroke="black" points="245,-0.5 245,-19.5 352,-19.5 352,-0.5 245,-0.5"/>
<text text-anchor="middle" x="298.5" y="-7.5" font-family="Helvetica,sans-Serif" font-size="10.00">aprs_encoders.cpp</text>
</a>
</g>
</g>
<!-- Node7&#45;&gt;Node9 -->
<g id="edge8" class="edge">
<title>Node7&#45;&gt;Node9</title>
<path fill="none" stroke="midnightblue" d="M523.61,-55.86C455.17,-41.23 387.14,-27.92 343.61,-19.56"/>
<polygon fill="midnightblue" stroke="midnightblue" points="523.2,-59.35 533.71,-58.03 524.67,-52.51 523.2,-59.35"/>
</g>
<!-- Node10 -->
<g id="node10" class="node">
<title>Node10</title>
<g id="a_node10"><a xlink:href="aprs__modulator_8cpp.html" target="_top" xlink:title="Implementation of the APRS modulator class.">
<polygon fill="none" stroke="black" points="370,-0.5 370,-19.5 483,-19.5 483,-0.5 370,-0.5"/>
<text text-anchor="middle" x="426.5" y="-7.5" font-family="Helvetica,sans-Serif" font-size="10.00">aprs_modulator.cpp</text>
</a>
</g>
</g>
<!-- Node7&#45;&gt;Node10 -->
<g id="edge9" class="edge">
<title>Node7&#45;&gt;Node10</title>
<path fill="none" stroke="midnightblue" d="M532.48,-52.77C506.74,-42.63 470.81,-28.47 448.11,-19.52"/>
<polygon fill="midnightblue" stroke="midnightblue" points="531.21,-56.03 541.79,-56.44 533.77,-49.52 531.21,-56.03"/>
</g>
<!-- Node11 -->
<g id="node11" class="node">
<title>Node11</title>
<g id="a_node11"><a xlink:href="aprs__receiver_8cpp.html" target="_top" xlink:title="Implementation of the APRS receiver class.">
<polygon fill="none" stroke="black" points="501.5,-0.5 501.5,-19.5 603.5,-19.5 603.5,-0.5 501.5,-0.5"/>
<text text-anchor="middle" x="552.5" y="-7.5" font-family="Helvetica,sans-Serif" font-size="10.00">aprs_receiver.cpp</text>
</a>
</g>
</g>
<!-- Node7&#45;&gt;Node11 -->
<g id="edge10" class="edge">
<title>Node7&#45;&gt;Node11</title>
<path fill="none" stroke="midnightblue" d="M559.65,-46.1C557.82,-37.14 555.73,-26.86 554.28,-19.75"/>
<polygon fill="midnightblue" stroke="midnightblue" points="556.26,-46.98 561.68,-56.08 563.12,-45.59 556.26,-46.98"/>
</g>
<!-- Node12 -->
<g id="node12" class="node">
<title>Node12</title>
<g id="a_node12"><a xlink:href="aprs_8cpp.html" target="_top" xlink:title="APRS implementation.">
<polygon fill="none" stroke="black" points="621.5,-0.5 621.5,-19.5 679.5,-19.5 679.5,-0.5 621.5,-0.5"/>
<text text-anchor="middle" x="650.5" y="-7.5" font-family="Helvetica,sans-Serif" font-size="10.00">aprs.cpp</text>
</a>
</g>
</g>
<!-- Node7&#45;&gt;Node12 -->
<g id="edge11" class="edge">
<title>Node7&#45;&gt;Node12</title>
<path fill="none" stroke="midnightblue" d="M586.22,-50.9C602.17,-41 623,-28.07 636.56,-19.65"/>
<polygon fill="midnightblue" stroke="midnightblue" points="584.13,-48.08 577.48,-56.32 587.82,-54.02 584.13,-48.08"/>
</g>
<!-- Node13 -->
<g id="node13" class="node">
<title>Node13</title>
<g id="a_node13"><a xlink:href="aprs__test_8cpp.html" target="_top" xlink:title=" ">
<polygon fill="none" stroke="black" points="697.5,-0.5 697.5,-19.5 779.5,-19.5 779.5,-0.5 697.5,-0.5"/>
<text text-anchor="middle" x="738.5" y="-7.5" font-family="Helvetica,sans-Serif" font-size="10.00">aprs_test.cpp</text>
</a>
</g>
</g>
<!-- Node7&#45;&gt;Node13 -->
<g id="edge12" class="edge">
<title>Node7&#45;&gt;Node13</title>
<path fill="none" stroke="midnightblue" d="M600.97,-53.44C633.97,-43.26 681.26,-28.66 710.9,-19.52"/>
<polygon fill="midnightblue" stroke="midnightblue" points="599.75,-50.15 591.23,-56.44 601.82,-56.84 599.75,-50.15"/>
</g>
<!-- Node7&#45;&gt;Node14 -->
<g id="edge13" class="edge">
<title>Node7&#45;&gt;Node14</title>
<path fill="none" stroke="midnightblue" d="M523.54,-56C395.3,-33.6 360.52,-36.86 235.5,-20 229.57,-19.2 223.33,-18.33 217.18,-17.45"/>
<polygon fill="midnightblue" stroke="midnightblue" points="523.3,-59.51 533.75,-57.8 524.51,-52.62 523.3,-59.51"/>
</g>
<!-- Node16&#45;&gt;Node7 -->
<g id="edge21" class="edge">
<title>Node16&#45;&gt;Node7</title>
<path fill="none" stroke="midnightblue" d="M880.44,-116.46C819.35,-109.43 701.05,-94.75 601.5,-76 598.83,-75.5 596.07,-74.93 593.31,-74.34"/>
<polygon fill="midnightblue" stroke="midnightblue" points="880.12,-119.95 890.45,-117.61 880.91,-112.99 880.12,-119.95"/>
</g>
<!-- Node17 -->
<g id="node17" class="node">
<title>Node17</title>
<g id="a_node17"><a xlink:href="ax25__address_8cpp.html" target="_top" xlink:title="The AX.25 address class implementation.">
<polygon fill="none" stroke="black" points="748.5,-56.5 748.5,-75.5 852.5,-75.5 852.5,-56.5 748.5,-56.5"/>
<text text-anchor="middle" x="800.5" y="-63.5" font-family="Helvetica,sans-Serif" font-size="10.00">ax25_address.cpp</text>
</a>
</g>
</g>
<!-- Node16&#45;&gt;Node17 -->
<g id="edge17" class="edge">
<title>Node16&#45;&gt;Node17</title>
<path fill="none" stroke="midnightblue" d="M893.19,-108.37C870.53,-98.26 839.37,-84.35 819.58,-75.52"/>
<polygon fill="midnightblue" stroke="midnightblue" points="891.77,-111.56 902.33,-112.44 894.62,-105.17 891.77,-111.56"/>
</g>
<!-- Node18 -->
<g id="node18" class="node">
<title>Node18</title>
<g id="a_node18"><a xlink:href="ax25__decode_8cpp.html" target="_top" xlink:title="AX.25 decoding implementation.">
<polygon fill="none" stroke="black" points="871,-56.5 871,-75.5 972,-75.5 972,-56.5 871,-56.5"/>
<text text-anchor="middle" x="921.5" y="-63.5" font-family="Helvetica,sans-Serif" font-size="10.00">ax25_decode.cpp</text>
</a>
</g>
</g>
<!-- Node16&#45;&gt;Node18 -->
<g id="edge18" class="edge">
<title>Node16&#45;&gt;Node18</title>
<path fill="none" stroke="midnightblue" d="M921.5,-101.8C921.5,-92.91 921.5,-82.78 921.5,-75.75"/>
<polygon fill="midnightblue" stroke="midnightblue" points="918,-102.08 921.5,-112.08 925,-102.08 918,-102.08"/>
</g>
<!-- Node19 -->
<g id="node19" class="node">
<title>Node19</title>
<g id="a_node19"><a xlink:href="ax25__fcs_8cpp.html" target="_top" xlink:title="AX.25 Frame Check Sequence (FCS) tools.">
<polygon fill="none" stroke="black" points="990.5,-56.5 990.5,-75.5 1070.5,-75.5 1070.5,-56.5 990.5,-56.5"/>
<text text-anchor="middle" x="1030.5" y="-63.5" font-family="Helvetica,sans-Serif" font-size="10.00">ax25_fcs.cpp</text>
</a>
</g>
</g>
<!-- Node16&#45;&gt;Node19 -->
<g id="edge19" class="edge">
<title>Node16&#45;&gt;Node19</title>
<path fill="none" stroke="midnightblue" d="M948.02,-107.86C968.23,-97.85 995.49,-84.35 1013.03,-75.65"/>
<polygon fill="midnightblue" stroke="midnightblue" points="946.42,-104.75 939.01,-112.32 949.53,-111.02 946.42,-104.75"/>
</g>
<!-- Node20 -->
<g id="node20" class="node">
<title>Node20</title>
<g id="a_node20"><a xlink:href="ax25__frame_8cpp.html" target="_top" xlink:title="General AX.25 frame class.">
<polygon fill="none" stroke="black" points="1089,-56.5 1089,-75.5 1184,-75.5 1184,-56.5 1089,-56.5"/>
<text text-anchor="middle" x="1136.5" y="-63.5" font-family="Helvetica,sans-Serif" font-size="10.00">ax25_frame.cpp</text>
</a>
</g>
</g>
<!-- Node16&#45;&gt;Node20 -->
<g id="edge20" class="edge">
<title>Node16&#45;&gt;Node20</title>
<path fill="none" stroke="midnightblue" d="M962.6,-110.68C1003.14,-100.49 1064.41,-85.11 1102.36,-75.58"/>
<polygon fill="midnightblue" stroke="midnightblue" points="961.61,-107.32 952.76,-113.15 963.31,-114.11 961.61,-107.32"/>
</g>
<!-- Node21 -->
<g id="node21" class="node">
<title>Node21</title>
<g id="a_node21"><a xlink:href="ax25__address__test_8cpp.html" target="_top" xlink:title=" ">
<polygon fill="none" stroke="black" points="1202.5,-56.5 1202.5,-75.5 1330.5,-75.5 1330.5,-56.5 1202.5,-56.5"/>
<text text-anchor="middle" x="1266.5" y="-63.5" font-family="Helvetica,sans-Serif" font-size="10.00">ax25_address_test.cpp</text>
</a>
</g>
</g>
<!-- Node16&#45;&gt;Node21 -->
<g id="edge22" class="edge">
<title>Node16&#45;&gt;Node21</title>
<path fill="none" stroke="midnightblue" d="M962.96,-114.51C1025.23,-104.76 1142.96,-86.34 1212.07,-75.52"/>
<polygon fill="midnightblue" stroke="midnightblue" points="962.06,-111.11 952.72,-116.11 963.15,-118.02 962.06,-111.11"/>
</g>
<!-- Node22 -->
<g id="node22" class="node">
<title>Node22</title>
<g id="a_node22"><a xlink:href="ax25__crc__test_8cpp.html" target="_top" xlink:title=" ">
<polygon fill="none" stroke="black" points="1348.5,-56.5 1348.5,-75.5 1452.5,-75.5 1452.5,-56.5 1348.5,-56.5"/>
<text text-anchor="middle" x="1400.5" y="-63.5" font-family="Helvetica,sans-Serif" font-size="10.00">ax25_crc_test.cpp</text>
</a>
</g>
</g>
<!-- Node16&#45;&gt;Node22 -->
<g id="edge23" class="edge">
<title>Node16&#45;&gt;Node22</title>
<path fill="none" stroke="midnightblue" d="M962.74,-117.1C1037.8,-109.89 1201.72,-93.57 1339.5,-76 1342.37,-75.63 1345.31,-75.25 1348.28,-74.84"/>
<polygon fill="midnightblue" stroke="midnightblue" points="962.37,-113.62 952.75,-118.06 963.04,-120.59 962.37,-113.62"/>
</g>
<!-- Node23 -->
<g id="node23" class="node">
<title>Node23</title>
<g id="a_node23"><a xlink:href="ax25__frame__test_8cpp.html" target="_top" xlink:title=" ">
<polygon fill="none" stroke="black" points="611,-56.5 611,-75.5 730,-75.5 730,-56.5 611,-56.5"/>
<text text-anchor="middle" x="670.5" y="-63.5" font-family="Helvetica,sans-Serif" font-size="10.00">ax25_frame_test.cpp</text>
</a>
</g>
</g>
<!-- Node16&#45;&gt;Node23 -->
<g id="edge24" class="edge">
<title>Node16&#45;&gt;Node23</title>
<path fill="none" stroke="midnightblue" d="M880.61,-112.2C833.52,-102.07 756.68,-85.54 710.13,-75.53"/>
<polygon fill="midnightblue" stroke="midnightblue" points="879.96,-115.64 890.47,-114.32 881.43,-108.8 879.96,-115.64"/>
</g>
</g>
</svg>
