<?xml version="1.0" encoding="UTF-8" standalone="no"?>
<!DOCTYPE svg PUBLIC "-//W3C//DTD SVG 1.1//EN"
 "http://www.w3.org/Graphics/SVG/1.1/DTD/svg11.dtd">
<!-- Generated by graphviz version 2.43.0 (0)
 -->
<!-- Title: bit_stream.hpp Pages: 1 -->
<svg width="1969pt" height="196pt"
 viewBox="0.00 0.00 1968.50 196.00" xmlns="http://www.w3.org/2000/svg" xmlns:xlink="http://www.w3.org/1999/xlink">
<g id="graph0" class="graph" transform="scale(1 1) rotate(0) translate(4 192)">
<title>bit_stream.hpp</title>
<!-- Node1 -->
<g id="node1" class="node">
<title>Node1</title>
<g id="a_node1"><a xlink:title="The bit stream class.">
<polygon fill="#bfbfbf" stroke="black" points="1042,-168.5 1042,-187.5 1132,-187.5 1132,-168.5 1042,-168.5"/>
<text text-anchor="middle" x="1087" y="-175.5" font-family="Helvetica,sans-Serif" font-size="10.00">bit_stream.hpp</text>
</a>
</g>
</g>
<!-- Node2 -->
<g id="node2" class="node">
<title>Node2</title>
<g id="a_node2"><a xlink:href="afsk_8hpp.html" target="_top" xlink:title="AFSK related modulation/demodulation.">
<polygon fill="none" stroke="black" points="309.5,-112.5 309.5,-131.5 368.5,-131.5 368.5,-112.5 309.5,-112.5"/>
<text text-anchor="middle" x="339" y="-119.5" font-family="Helvetica,sans-Serif" font-size="10.00">afsk.hpp</text>
</a>
</g>
</g>
<!-- Node1&#45;&gt;Node2 -->
<g id="edge1" class="edge">
<title>Node1&#45;&gt;Node2</title>
<path fill="none" stroke="midnightblue" d="M1031.67,-173.01C883.43,-162.3 481,-133.25 368.55,-125.13"/>
<polygon fill="midnightblue" stroke="midnightblue" points="1031.67,-176.51 1041.89,-173.74 1032.17,-169.53 1031.67,-176.51"/>
</g>
<!-- Node16 -->
<g id="node16" class="node">
<title>Node16</title>
<g id="a_node16"><a xlink:href="ax25_8hpp.html" target="_top" xlink:title="AX.25 tools.">
<polygon fill="none" stroke="black" points="1009,-112.5 1009,-131.5 1071,-131.5 1071,-112.5 1009,-112.5"/>
<text text-anchor="middle" x="1040" y="-119.5" font-family="Helvetica,sans-Serif" font-size="10.00">ax25.hpp</text>
</a>
</g>
</g>
<!-- Node1&#45;&gt;Node16 -->
<g id="edge16" class="edge">
<title>Node1&#45;&gt;Node16</title>
<path fill="none" stroke="midnightblue" d="M1072.58,-160.43C1064.34,-150.97 1054.35,-139.48 1047.62,-131.75"/>
<polygon fill="midnightblue" stroke="midnightblue" points="1070.03,-162.84 1079.24,-168.08 1075.31,-158.24 1070.03,-162.84"/>
</g>
<!-- Node24 -->
<g id="node24" class="node">
<title>Node24</title>
<g id="a_node24"><a xlink:href="bit__stream_8cpp.html" target="_top" xlink:title=" ">
<polygon fill="none" stroke="black" points="1089.5,-112.5 1089.5,-131.5 1178.5,-131.5 1178.5,-112.5 1089.5,-112.5"/>
<text text-anchor="middle" x="1134" y="-119.5" font-family="Helvetica,sans-Serif" font-size="10.00">bit_stream.cpp</text>
</a>
</g>
</g>
<!-- Node1&#45;&gt;Node24 -->
<g id="edge26" class="edge">
<title>Node1&#45;&gt;Node24</title>
<path fill="none" stroke="midnightblue" d="M1101.42,-160.43C1109.66,-150.97 1119.65,-139.48 1126.38,-131.75"/>
<polygon fill="midnightblue" stroke="midnightblue" points="1098.69,-158.24 1094.76,-168.08 1103.97,-162.84 1098.69,-158.24"/>
</g>
<!-- Node25 -->
<g id="node25" class="node">
<title>Node25</title>
<g id="a_node25"><a xlink:href="psk_8hpp.html" target="_top" xlink:title="Phase Shift Keying Implementation.">
<polygon fill="none" stroke="black" points="1617.5,-112.5 1617.5,-131.5 1672.5,-131.5 1672.5,-112.5 1617.5,-112.5"/>
<text text-anchor="middle" x="1645" y="-119.5" font-family="Helvetica,sans-Serif" font-size="10.00">psk.hpp</text>
</a>
</g>
</g>
<!-- Node1&#45;&gt;Node25 -->
<g id="edge27" class="edge">
<title>Node1&#45;&gt;Node25</title>
<path fill="none" stroke="midnightblue" d="M1142.4,-171.64C1259.86,-160.27 1530.27,-134.1 1617.4,-125.67"/>
<polygon fill="midnightblue" stroke="midnightblue" points="1141.81,-168.18 1132.19,-172.63 1142.48,-175.15 1141.81,-168.18"/>
</g>
<!-- Node3 -->
<g id="node3" class="node">
<title>Node3</title>
<g id="a_node3"><a xlink:href="afsk__demodulator_8cpp.html" target="_top" xlink:title="The AFSK demodulator class implementation.">
<polygon fill="none" stroke="black" points="100.5,-56.5 100.5,-75.5 225.5,-75.5 225.5,-56.5 100.5,-56.5"/>
<text text-anchor="middle" x="163" y="-63.5" font-family="Helvetica,sans-Serif" font-size="10.00">afsk_demodulator.cpp</text>
</a>
</g>
</g>
<!-- Node2&#45;&gt;Node3 -->
<g id="edge2" class="edge">
<title>Node2&#45;&gt;Node3</title>
<path fill="none" stroke="midnightblue" d="M301.31,-109.44C268.13,-99.26 220.57,-84.66 190.76,-75.52"/>
<polygon fill="midnightblue" stroke="midnightblue" points="300.53,-112.86 311.11,-112.44 302.58,-106.16 300.53,-112.86"/>
</g>
<!-- Node4 -->
<g id="node4" class="node">
<title>Node4</title>
<g id="a_node4"><a xlink:href="afsk__modulator_8cpp.html" target="_top" xlink:title="The AFSK modulator class implementation.">
<polygon fill="none" stroke="black" points="282.5,-56.5 282.5,-75.5 395.5,-75.5 395.5,-56.5 282.5,-56.5"/>
<text text-anchor="middle" x="339" y="-63.5" font-family="Helvetica,sans-Serif" font-size="10.00">afsk_modulator.cpp</text>
</a>
</g>
</g>
<!-- Node2&#45;&gt;Node4 -->
<g id="edge3" class="edge">
<title>Node2&#45;&gt;Node4</title>
<path fill="none" stroke="midnightblue" d="M339,-101.8C339,-92.91 339,-82.78 339,-75.75"/>
<polygon fill="midnightblue" stroke="midnightblue" points="335.5,-102.08 339,-112.08 342.5,-102.08 335.5,-102.08"/>
</g>
<!-- Node5 -->
<g id="node5" class="node">
<title>Node5</title>
<g id="a_node5"><a xlink:href="afsk__receiver_8cpp.html" target="_top" xlink:title="Implementation of the AFSK receiver class.">
<polygon fill="none" stroke="black" points="414,-56.5 414,-75.5 516,-75.5 516,-56.5 414,-56.5"/>
<text text-anchor="middle" x="465" y="-63.5" font-family="Helvetica,sans-Serif" font-size="10.00">afsk_receiver.cpp</text>
</a>
</g>
</g>
<!-- Node2&#45;&gt;Node5 -->
<g id="edge4" class="edge">
<title>Node2&#45;&gt;Node5</title>
<path fill="none" stroke="midnightblue" d="M368.16,-108.5C391.78,-98.38 424.43,-84.39 445.13,-75.52"/>
<polygon fill="midnightblue" stroke="midnightblue" points="366.78,-105.29 358.97,-112.44 369.54,-111.72 366.78,-105.29"/>
</g>
<!-- Node6 -->
<g id="node6" class="node">
<title>Node6</title>
<g id="a_node6"><a xlink:href="afsk__test_8cpp.html" target="_top" xlink:title=" ">
<polygon fill="none" stroke="black" points="0,-56.5 0,-75.5 82,-75.5 82,-56.5 0,-56.5"/>
<text text-anchor="middle" x="41" y="-63.5" font-family="Helvetica,sans-Serif" font-size="10.00">afsk_test.cpp</text>
</a>
</g>
</g>
<!-- Node2&#45;&gt;Node6 -->
<g id="edge5" class="edge">
<title>Node2&#45;&gt;Node6</title>
<path fill="none" stroke="midnightblue" d="M299.34,-113.81C242.78,-103.57 139.47,-84.84 82.12,-74.45"/>
<polygon fill="midnightblue" stroke="midnightblue" points="298.87,-117.29 309.34,-115.62 300.12,-110.4 298.87,-117.29"/>
</g>
<!-- Node7 -->
<g id="node7" class="node">
<title>Node7</title>
<g id="a_node7"><a xlink:href="aprs_8hpp.html" target="_top" xlink:title=" ">
<polygon fill="none" stroke="black" points="534.5,-56.5 534.5,-75.5 593.5,-75.5 593.5,-56.5 534.5,-56.5"/>
<text text-anchor="middle" x="564" y="-63.5" font-family="Helvetica,sans-Serif" font-size="10.00">aprs.hpp</text>
</a>
</g>
</g>
<!-- Node2&#45;&gt;Node7 -->
<g id="edge6" class="edge">
<title>Node2&#45;&gt;Node7</title>
<path fill="none" stroke="midnightblue" d="M378.77,-111.45C423.3,-100.77 494.44,-83.69 534.36,-74.11"/>
<polygon fill="midnightblue" stroke="midnightblue" points="377.79,-108.09 368.88,-113.83 379.42,-114.9 377.79,-108.09"/>
</g>
<!-- Node15 -->
<g id="node15" class="node">
<title>Node15</title>
<g id="a_node15"><a xlink:href="pulse__test_8cpp.html" target="_top" xlink:title="PulseAudio output test. Does not use gtest.">
<polygon fill="none" stroke="black" points="180.5,-0.5 180.5,-19.5 267.5,-19.5 267.5,-0.5 180.5,-0.5"/>
<text text-anchor="middle" x="224" y="-7.5" font-family="Helvetica,sans-Serif" font-size="10.00">pulse_test.cpp</text>
</a>
</g>
</g>
<!-- Node2&#45;&gt;Node15 -->
<g id="edge15" class="edge">
<title>Node2&#45;&gt;Node15</title>
<path fill="none" stroke="midnightblue" d="M314.61,-107.05C301.51,-98.92 285.52,-87.94 273,-76 254.39,-58.25 237.47,-32.89 229.25,-19.7"/>
<polygon fill="midnightblue" stroke="midnightblue" points="313.18,-110.28 323.55,-112.44 316.79,-104.28 313.18,-110.28"/>
</g>
<!-- Node8 -->
<g id="node8" class="node">
<title>Node8</title>
<g id="a_node8"><a xlink:href="aprs_8cpp.html" target="_top" xlink:title="APRS implementation.">
<polygon fill="none" stroke="black" points="762,-0.5 762,-19.5 820,-19.5 820,-0.5 762,-0.5"/>
<text text-anchor="middle" x="791" y="-7.5" font-family="Helvetica,sans-Serif" font-size="10.00">aprs.cpp</text>
</a>
</g>
</g>
<!-- Node7&#45;&gt;Node8 -->
<g id="edge7" class="edge">
<title>Node7&#45;&gt;Node8</title>
<path fill="none" stroke="midnightblue" d="M603.41,-55.63C648.5,-44.9 721.31,-27.58 761.68,-17.98"/>
<polygon fill="midnightblue" stroke="midnightblue" points="602.59,-52.22 593.68,-57.94 604.21,-59.03 602.59,-52.22"/>
</g>
<!-- Node9 -->
<g id="node9" class="node">
<title>Node9</title>
<g id="a_node9"><a xlink:href="aprs__demodulator_8cpp.html" target="_top" xlink:title="Implementation of the APRS demodulator class.">
<polygon fill="none" stroke="black" points="838.5,-0.5 838.5,-19.5 963.5,-19.5 963.5,-0.5 838.5,-0.5"/>
<text text-anchor="middle" x="901" y="-7.5" font-family="Helvetica,sans-Serif" font-size="10.00">aprs_demodulator.cpp</text>
</a>
</g>
</g>
<!-- Node7&#45;&gt;Node9 -->
<g id="edge8" class="edge">
<title>Node7&#45;&gt;Node9</title>
<path fill="none" stroke="midnightblue" d="M603.8,-55.98C690.75,-39.6 780.04,-26.84 838.26,-19.05"/>
<polygon fill="midnightblue" stroke="midnightblue" points="602.93,-52.58 593.76,-57.88 604.24,-59.45 602.93,-52.58"/>
</g>
<!-- Node10 -->
<g id="node10" class="node">
<title>Node10</title>
<g id="a_node10"><a xlink:href="aprs__encoders_8cpp.html" target="_top" xlink:title="Encoding functions for APRS packets.">
<polygon fill="none" stroke="black" points="285.5,-0.5 285.5,-19.5 392.5,-19.5 392.5,-0.5 285.5,-0.5"/>
<text text-anchor="middle" x="339" y="-7.5" font-family="Helvetica,sans-Serif" font-size="10.00">aprs_encoders.cpp</text>
</a>
</g>
</g>
<!-- Node7&#45;&gt;Node10 -->
<g id="edge9" class="edge">
<title>Node7&#45;&gt;Node10</title>
<path fill="none" stroke="midnightblue" d="M524.15,-55.44C481.74,-45.26 415.27,-29.3 374.57,-19.54"/>
<polygon fill="midnightblue" stroke="midnightblue" points="523.58,-58.9 534.12,-57.83 525.21,-52.09 523.58,-58.9"/>
</g>
<!-- Node11 -->
<g id="node11" class="node">
<title>Node11</title>
<g id="a_node11"><a xlink:href="aprs__modulator_8cpp.html" target="_top" xlink:title="Implementation of the APRS modulator class.">
<polygon fill="none" stroke="black" points="410.5,-0.5 410.5,-19.5 523.5,-19.5 523.5,-0.5 410.5,-0.5"/>
<text text-anchor="middle" x="467" y="-7.5" font-family="Helvetica,sans-Serif" font-size="10.00">aprs_modulator.cpp</text>
</a>
</g>
</g>
<!-- Node7&#45;&gt;Node11 -->
<g id="edge10" class="edge">
<title>Node7&#45;&gt;Node11</title>
<path fill="none" stroke="midnightblue" d="M539.66,-51.45C521.76,-41.48 497.95,-28.23 482.55,-19.65"/>
<polygon fill="midnightblue" stroke="midnightblue" points="537.98,-54.52 548.42,-56.32 541.38,-48.4 537.98,-54.52"/>
</g>
<!-- Node12 -->
<g id="node12" class="node">
<title>Node12</title>
<g id="a_node12"><a xlink:href="aprs__receiver_8cpp.html" target="_top" xlink:title="Implementation of the APRS receiver class.">
<polygon fill="none" stroke="black" points="542,-0.5 542,-19.5 644,-19.5 644,-0.5 542,-0.5"/>
<text text-anchor="middle" x="593" y="-7.5" font-family="Helvetica,sans-Serif" font-size="10.00">aprs_receiver.cpp</text>
</a>
</g>
</g>
<!-- Node7&#45;&gt;Node12 -->
<g id="edge11" class="edge">
<title>Node7&#45;&gt;Node12</title>
<path fill="none" stroke="midnightblue" d="M573.68,-46.98C578.6,-37.82 584.36,-27.09 588.3,-19.75"/>
<polygon fill="midnightblue" stroke="midnightblue" points="570.44,-45.62 568.79,-56.08 576.6,-48.93 570.44,-45.62"/>
</g>
<!-- Node13 -->
<g id="node13" class="node">
<title>Node13</title>
<g id="a_node13"><a xlink:href="aprs__receiver__test_8cpp.html" target="_top" xlink:title="Integration tests for signal_easel::aprs::Receiver.">
<polygon fill="none" stroke="black" points="1152.5,-0.5 1152.5,-19.5 1279.5,-19.5 1279.5,-0.5 1152.5,-0.5"/>
<text text-anchor="middle" x="1216" y="-7.5" font-family="Helvetica,sans-Serif" font-size="10.00">aprs_receiver_test.cpp</text>
</a>
</g>
</g>
<!-- Node7&#45;&gt;Node13 -->
<g id="edge12" class="edge">
<title>Node7&#45;&gt;Node13</title>
<path fill="none" stroke="midnightblue" d="M603.81,-56.13C809.54,-25.61 1042.04,-15.69 1152.1,-12.46"/>
<polygon fill="midnightblue" stroke="midnightblue" points="603.09,-52.7 593.72,-57.65 604.13,-59.62 603.09,-52.7"/>
</g>
<!-- Node14 -->
<g id="node14" class="node">
<title>Node14</title>
<g id="a_node14"><a xlink:href="aprs__test_8cpp.html" target="_top" xlink:title=" ">
<polygon fill="none" stroke="black" points="662,-0.5 662,-19.5 744,-19.5 744,-0.5 662,-0.5"/>
<text text-anchor="middle" x="703" y="-7.5" font-family="Helvetica,sans-Serif" font-size="10.00">aprs_test.cpp</text>
</a>
</g>
</g>
<!-- Node7&#45;&gt;Node14 -->
<g id="edge13" class="edge">
<title>Node7&#45;&gt;Node14</title>
<path fill="none" stroke="midnightblue" d="M595.48,-52.77C621.59,-42.63 658.04,-28.47 681.08,-19.52"/>
<polygon fill="midnightblue" stroke="midnightblue" points="594.08,-49.56 586.02,-56.44 596.61,-56.08 594.08,-49.56"/>
</g>
<!-- Node7&#45;&gt;Node15 -->
<g id="edge14" class="edge">
<title>Node7&#45;&gt;Node15</title>
<path fill="none" stroke="midnightblue" d="M524.33,-56.01C413.41,-35.52 383.31,-37.04 276,-20 273.29,-19.57 270.49,-19.12 267.68,-18.65"/>
<polygon fill="midnightblue" stroke="midnightblue" points="523.77,-59.47 534.24,-57.86 525.06,-52.59 523.77,-59.47"/>
</g>
<!-- Node16&#45;&gt;Node7 -->
<g id="edge17" class="edge">
<title>Node16&#45;&gt;Node7</title>
<path fill="none" stroke="midnightblue" d="M998.48,-118.45C920.56,-113.28 747.25,-99.98 603,-76 599.98,-75.5 596.85,-74.9 593.73,-74.26"/>
<polygon fill="midnightblue" stroke="midnightblue" points="998.62,-121.97 1008.83,-119.12 999.08,-114.98 998.62,-121.97"/>
</g>
<!-- Node16&#45;&gt;Node13 -->
<g id="edge18" class="edge">
<title>Node16&#45;&gt;Node13</title>
<path fill="none" stroke="midnightblue" d="M1081.7,-112.12C1152.86,-103.24 1302.71,-117.69 1339,-76 1364.14,-47.13 1311,-29.09 1266.87,-19.54"/>
<polygon fill="midnightblue" stroke="midnightblue" points="1080.76,-108.72 1071.39,-113.68 1081.8,-115.64 1080.76,-108.72"/>
</g>
<!-- Node17 -->
<g id="node17" class="node">
<title>Node17</title>
<g id="a_node17"><a xlink:href="ax25__address_8cpp.html" target="_top" xlink:title="The AX.25 address class implementation.">
<polygon fill="none" stroke="black" points="1387,-56.5 1387,-75.5 1491,-75.5 1491,-56.5 1387,-56.5"/>
<text text-anchor="middle" x="1439" y="-63.5" font-family="Helvetica,sans-Serif" font-size="10.00">ax25_address.cpp</text>
</a>
</g>
</g>
<!-- Node16&#45;&gt;Node17 -->
<g id="edge19" class="edge">
<title>Node16&#45;&gt;Node17</title>
<path fill="none" stroke="midnightblue" d="M1081.3,-111.92C1210.97,-89.72 1246.06,-92.45 1373,-76 1377.47,-75.42 1382.11,-74.81 1386.77,-74.19"/>
<polygon fill="midnightblue" stroke="midnightblue" points="1080.64,-108.48 1071.38,-113.63 1081.83,-115.38 1080.64,-108.48"/>
</g>
<!-- Node18 -->
<g id="node18" class="node">
<title>Node18</title>
<g id="a_node18"><a xlink:href="ax25__address__test_8cpp.html" target="_top" xlink:title=" ">
<polygon fill="none" stroke="black" points="612,-56.5 612,-75.5 740,-75.5 740,-56.5 612,-56.5"/>
<text text-anchor="middle" x="676" y="-63.5" font-family="Helvetica,sans-Serif" font-size="10.00">ax25_address_test.cpp</text>
</a>
</g>
</g>
<!-- Node16&#45;&gt;Node18 -->
<g id="edge20" class="edge">
<title>Node16&#45;&gt;Node18</title>
<path fill="none" stroke="midnightblue" d="M998.7,-114.87C933.7,-105.23 807.35,-86.49 733.51,-75.53"/>
<polygon fill="midnightblue" stroke="midnightblue" points="998.56,-118.39 1008.97,-116.4 999.59,-111.47 998.56,-118.39"/>
</g>
<!-- Node19 -->
<g id="node19" class="node">
<title>Node19</title>
<g id="a_node19"><a xlink:href="ax25__crc__test_8cpp.html" target="_top" xlink:title=" ">
<polygon fill="none" stroke="black" points="758,-56.5 758,-75.5 862,-75.5 862,-56.5 758,-56.5"/>
<text text-anchor="middle" x="810" y="-63.5" font-family="Helvetica,sans-Serif" font-size="10.00">ax25_crc_test.cpp</text>
</a>
</g>
</g>
<!-- Node16&#45;&gt;Node19 -->
<g id="edge21" class="edge">
<title>Node16&#45;&gt;Node19</title>
<path fill="none" stroke="midnightblue" d="M999.07,-111.39C955.79,-101.23 888.15,-85.35 846.59,-75.59"/>
<polygon fill="midnightblue" stroke="midnightblue" points="998.45,-114.84 1008.98,-113.72 1000.05,-108.02 998.45,-114.84"/>
</g>
<!-- Node20 -->
<g id="node20" class="node">
<title>Node20</title>
<g id="a_node20"><a xlink:href="ax25__decode_8cpp.html" target="_top" xlink:title="AX.25 decoding implementation.">
<polygon fill="none" stroke="black" points="880.5,-56.5 880.5,-75.5 981.5,-75.5 981.5,-56.5 880.5,-56.5"/>
<text text-anchor="middle" x="931" y="-63.5" font-family="Helvetica,sans-Serif" font-size="10.00">ax25_decode.cpp</text>
</a>
</g>
</g>
<!-- Node16&#45;&gt;Node20 -->
<g id="edge22" class="edge">
<title>Node16&#45;&gt;Node20</title>
<path fill="none" stroke="midnightblue" d="M1013.48,-107.86C993.27,-97.85 966.01,-84.35 948.47,-75.65"/>
<polygon fill="midnightblue" stroke="midnightblue" points="1011.97,-111.02 1022.49,-112.32 1015.08,-104.75 1011.97,-111.02"/>
</g>
<!-- Node21 -->
<g id="node21" class="node">
<title>Node21</title>
<g id="a_node21"><a xlink:href="ax25__fcs_8cpp.html" target="_top" xlink:title="AX.25 Frame Check Sequence (FCS) tools.">
<polygon fill="none" stroke="black" points="1000,-56.5 1000,-75.5 1080,-75.5 1080,-56.5 1000,-56.5"/>
<text text-anchor="middle" x="1040" y="-63.5" font-family="Helvetica,sans-Serif" font-size="10.00">ax25_fcs.cpp</text>
</a>
</g>
</g>
<!-- Node16&#45;&gt;Node21 -->
<g id="edge23" class="edge">
<title>Node16&#45;&gt;Node21</title>
<path fill="none" stroke="midnightblue" d="M1040,-101.8C1040,-92.91 1040,-82.78 1040,-75.75"/>
<polygon fill="midnightblue" stroke="midnightblue" points="1036.5,-102.08 1040,-112.08 1043.5,-102.08 1036.5,-102.08"/>
</g>
<!-- Node22 -->
<g id="node22" class="node">
<title>Node22</title>
<g id="a_node22"><a xlink:href="ax25__frame_8cpp.html" target="_top" xlink:title="General AX.25 frame class.">
<polygon fill="none" stroke="black" points="1098.5,-56.5 1098.5,-75.5 1193.5,-75.5 1193.5,-56.5 1098.5,-56.5"/>
<text text-anchor="middle" x="1146" y="-63.5" font-family="Helvetica,sans-Serif" font-size="10.00">ax25_frame.cpp</text>
</a>
</g>
</g>
<!-- Node16&#45;&gt;Node22 -->
<g id="edge24" class="edge">
<title>Node16&#45;&gt;Node22</title>
<path fill="none" stroke="midnightblue" d="M1066.06,-107.73C1085.68,-97.73 1112.03,-84.31 1129.01,-75.65"/>
<polygon fill="midnightblue" stroke="midnightblue" points="1064.35,-104.67 1057.03,-112.32 1067.53,-110.9 1064.35,-104.67"/>
</g>
<!-- Node23 -->
<g id="node23" class="node">
<title>Node23</title>
<g id="a_node23"><a xlink:href="ax25__frame__test_8cpp.html" target="_top" xlink:title=" ">
<polygon fill="none" stroke="black" points="1211.5,-56.5 1211.5,-75.5 1330.5,-75.5 1330.5,-56.5 1211.5,-56.5"/>
<text text-anchor="middle" x="1271" y="-63.5" font-family="Helvetica,sans-Serif" font-size="10.00">ax25_frame_test.cpp</text>
</a>
</g>
</g>
<!-- Node16&#45;&gt;Node23 -->
<g id="edge25" class="edge">
<title>Node16&#45;&gt;Node23</title>
<path fill="none" stroke="midnightblue" d="M1081.11,-111.39C1124.58,-101.23 1192.51,-85.35 1234.25,-75.59"/>
<polygon fill="midnightblue" stroke="midnightblue" points="1080.09,-108.03 1071.15,-113.72 1081.69,-114.85 1080.09,-108.03"/>
</g>
<!-- Node26 -->
<g id="node26" class="node">
<title>Node26</title>
<g id="a_node26"><a xlink:href="convolutional__code_8cpp.html" target="_top" xlink:title="Convolutional Code Implementation.">
<polygon fill="none" stroke="black" points="1702.5,-56.5 1702.5,-75.5 1833.5,-75.5 1833.5,-56.5 1702.5,-56.5"/>
<text text-anchor="middle" x="1768" y="-63.5" font-family="Helvetica,sans-Serif" font-size="10.00">convolutional_code.cpp</text>
</a>
</g>
</g>
<!-- Node25&#45;&gt;Node26 -->
<g id="edge28" class="edge">
<title>Node25&#45;&gt;Node26</title>
<path fill="none" stroke="midnightblue" d="M1673.77,-108.37C1696.81,-98.26 1728.48,-84.35 1748.6,-75.52"/>
<polygon fill="midnightblue" stroke="midnightblue" points="1672.24,-105.22 1664.49,-112.44 1675.05,-111.63 1672.24,-105.22"/>
</g>
<!-- Node27 -->
<g id="node27" class="node">
<title>Node27</title>
<g id="a_node27"><a xlink:href="psk__modulator_8cpp.html" target="_top" xlink:title="Phase Shift Keying modulator.">
<polygon fill="none" stroke="black" points="1851.5,-56.5 1851.5,-75.5 1960.5,-75.5 1960.5,-56.5 1851.5,-56.5"/>
<text text-anchor="middle" x="1906" y="-63.5" font-family="Helvetica,sans-Serif" font-size="10.00">psk_modulator.cpp</text>
</a>
</g>
</g>
<!-- Node25&#45;&gt;Node27 -->
<g id="edge29" class="edge">
<title>Node25&#45;&gt;Node27</title>
<path fill="none" stroke="midnightblue" d="M1682.99,-113.14C1731.36,-103.13 1814.64,-85.9 1864.59,-75.57"/>
<polygon fill="midnightblue" stroke="midnightblue" points="1682.02,-109.77 1672.93,-115.22 1683.43,-116.62 1682.02,-109.77"/>
</g>
<!-- Node28 -->
<g id="node28" class="node">
<title>Node28</title>
<g id="a_node28"><a xlink:href="psk__test_8cpp.html" target="_top" xlink:title=" ">
<polygon fill="none" stroke="black" points="1509,-56.5 1509,-75.5 1587,-75.5 1587,-56.5 1509,-56.5"/>
<text text-anchor="middle" x="1548" y="-63.5" font-family="Helvetica,sans-Serif" font-size="10.00">psk_test.cpp</text>
</a>
</g>
</g>
<!-- Node25&#45;&gt;Node28 -->
<g id="edge30" class="edge">
<title>Node25&#45;&gt;Node28</title>
<path fill="none" stroke="midnightblue" d="M1620.66,-107.45C1602.76,-97.48 1578.95,-84.23 1563.55,-75.65"/>
<polygon fill="midnightblue" stroke="midnightblue" points="1618.98,-110.52 1629.42,-112.32 1622.38,-104.4 1618.98,-110.52"/>
</g>
<!-- Node29 -->
<g id="node29" class="node">
<title>Node29</title>
<g id="a_node29"><a xlink:href="varicode_8cpp.html" target="_top" xlink:title="Varicode Implementation.">
<polygon fill="none" stroke="black" points="1605.5,-56.5 1605.5,-75.5 1684.5,-75.5 1684.5,-56.5 1605.5,-56.5"/>
<text text-anchor="middle" x="1645" y="-63.5" font-family="Helvetica,sans-Serif" font-size="10.00">varicode.cpp</text>
</a>
</g>
</g>
<!-- Node25&#45;&gt;Node29 -->
<g id="edge31" class="edge">
<title>Node25&#45;&gt;Node29</title>
<path fill="none" stroke="midnightblue" d="M1645,-101.8C1645,-92.91 1645,-82.78 1645,-75.75"/>
<polygon fill="midnightblue" stroke="midnightblue" points="1641.5,-102.08 1645,-112.08 1648.5,-102.08 1641.5,-102.08"/>
</g>
</g>
</svg>
