<?xml version="1.0" encoding="UTF-8" standalone="no"?>
<!DOCTYPE svg PUBLIC "-//W3C//DTD SVG 1.1//EN"
 "http://www.w3.org/Graphics/SVG/1.1/DTD/svg11.dtd">
<!-- Generated by graphviz version 2.43.0 (0)
 -->
<!-- Title: bit_stream.hpp Pages: 1 -->
<svg width="2005pt" height="196pt"
 viewBox="0.00 0.00 2005.00 196.00" xmlns="http://www.w3.org/2000/svg" xmlns:xlink="http://www.w3.org/1999/xlink">
<g id="graph0" class="graph" transform="scale(1 1) rotate(0) translate(4 192)">
<title>bit_stream.hpp</title>
<!-- Node1 -->
<g id="node1" class="node">
<title>Node1</title>
<g id="a_node1"><a xlink:title="The bit stream class.">
<polygon fill="#bfbfbf" stroke="black" points="630.5,-168.5 630.5,-187.5 720.5,-187.5 720.5,-168.5 630.5,-168.5"/>
<text text-anchor="middle" x="675.5" y="-175.5" font-family="Helvetica,sans-Serif" font-size="10.00">bit_stream.hpp</text>
</a>
</g>
</g>
<!-- Node2 -->
<g id="node2" class="node">
<title>Node2</title>
<g id="a_node2"><a xlink:href="bit__stream_8cpp.html" target="_top" xlink:title=" ">
<polygon fill="none" stroke="black" points="265,-112.5 265,-131.5 354,-131.5 354,-112.5 265,-112.5"/>
<text text-anchor="middle" x="309.5" y="-119.5" font-family="Helvetica,sans-Serif" font-size="10.00">bit_stream.cpp</text>
</a>
</g>
</g>
<!-- Node1&#45;&gt;Node2 -->
<g id="edge1" class="edge">
<title>Node1&#45;&gt;Node2</title>
<path fill="none" stroke="midnightblue" d="M620.3,-169.5C557.72,-160.89 452.67,-146.13 362.5,-132 359.73,-131.57 356.89,-131.11 354.02,-130.64"/>
<polygon fill="midnightblue" stroke="midnightblue" points="619.97,-172.98 630.35,-170.88 620.92,-166.05 619.97,-172.98"/>
</g>
<!-- Node3 -->
<g id="node3" class="node">
<title>Node3</title>
<g id="a_node3"><a xlink:href="afsk_8hpp.html" target="_top" xlink:title="AFSK related modulation/demodulation.">
<polygon fill="none" stroke="black" points="372,-112.5 372,-131.5 431,-131.5 431,-112.5 372,-112.5"/>
<text text-anchor="middle" x="401.5" y="-119.5" font-family="Helvetica,sans-Serif" font-size="10.00">afsk.hpp</text>
</a>
</g>
</g>
<!-- Node1&#45;&gt;Node3 -->
<g id="edge2" class="edge">
<title>Node1&#45;&gt;Node3</title>
<path fill="none" stroke="midnightblue" d="M622.17,-166.49C565.2,-155.26 476.92,-137.86 431.2,-128.85"/>
<polygon fill="midnightblue" stroke="midnightblue" points="621.6,-169.94 632.08,-168.44 622.95,-163.08 621.6,-169.94"/>
</g>
<!-- Node16 -->
<g id="node16" class="node">
<title>Node16</title>
<g id="a_node16"><a xlink:href="ax25_8hpp.html" target="_top" xlink:title="AX.25 tools.">
<polygon fill="none" stroke="black" points="923.5,-112.5 923.5,-131.5 985.5,-131.5 985.5,-112.5 923.5,-112.5"/>
<text text-anchor="middle" x="954.5" y="-119.5" font-family="Helvetica,sans-Serif" font-size="10.00">ax25.hpp</text>
</a>
</g>
</g>
<!-- Node1&#45;&gt;Node16 -->
<g id="edge16" class="edge">
<title>Node1&#45;&gt;Node16</title>
<path fill="none" stroke="midnightblue" d="M729.74,-166.5C787.43,-155.34 876.67,-138.06 923.46,-129.01"/>
<polygon fill="midnightblue" stroke="midnightblue" points="728.86,-163.11 719.71,-168.44 730.19,-169.98 728.86,-163.11"/>
</g>
<!-- Node25 -->
<g id="node25" class="node">
<title>Node25</title>
<g id="a_node25"><a xlink:href="psk_8hpp.html" target="_top" xlink:title="Phase Shift Keying Implementation.">
<polygon fill="none" stroke="black" points="1654,-112.5 1654,-131.5 1709,-131.5 1709,-112.5 1654,-112.5"/>
<text text-anchor="middle" x="1681.5" y="-119.5" font-family="Helvetica,sans-Serif" font-size="10.00">psk.hpp</text>
</a>
</g>
</g>
<!-- Node1&#45;&gt;Node25 -->
<g id="edge26" class="edge">
<title>Node1&#45;&gt;Node25</title>
<path fill="none" stroke="midnightblue" d="M730.8,-174.03C917.14,-164.03 1518.04,-131.77 1653.99,-124.48"/>
<polygon fill="midnightblue" stroke="midnightblue" points="730.48,-170.54 720.68,-174.57 730.85,-177.53 730.48,-170.54"/>
</g>
<!-- Node4 -->
<g id="node4" class="node">
<title>Node4</title>
<g id="a_node4"><a xlink:href="afsk__demodulator_8cpp.html" target="_top" xlink:title="The AFSK demodulator class implementation.">
<polygon fill="none" stroke="black" points="0,-56.5 0,-75.5 125,-75.5 125,-56.5 0,-56.5"/>
<text text-anchor="middle" x="62.5" y="-63.5" font-family="Helvetica,sans-Serif" font-size="10.00">afsk_demodulator.cpp</text>
</a>
</g>
</g>
<!-- Node3&#45;&gt;Node4 -->
<g id="edge3" class="edge">
<title>Node3&#45;&gt;Node4</title>
<path fill="none" stroke="midnightblue" d="M361.88,-112.01C274.06,-95.52 183.74,-82.71 125.08,-74.94"/>
<polygon fill="midnightblue" stroke="midnightblue" points="361.26,-115.46 371.74,-113.88 362.57,-108.58 361.26,-115.46"/>
</g>
<!-- Node5 -->
<g id="node5" class="node">
<title>Node5</title>
<g id="a_node5"><a xlink:href="afsk__modulator_8cpp.html" target="_top" xlink:title="The AFSK modulator class implementation.">
<polygon fill="none" stroke="black" points="282,-56.5 282,-75.5 395,-75.5 395,-56.5 282,-56.5"/>
<text text-anchor="middle" x="338.5" y="-63.5" font-family="Helvetica,sans-Serif" font-size="10.00">afsk_modulator.cpp</text>
</a>
</g>
</g>
<!-- Node3&#45;&gt;Node5 -->
<g id="edge4" class="edge">
<title>Node3&#45;&gt;Node5</title>
<path fill="none" stroke="midnightblue" d="M383.46,-105.54C372.23,-95.91 358.18,-83.87 348.81,-75.83"/>
<polygon fill="midnightblue" stroke="midnightblue" points="381.51,-108.47 391.38,-112.32 386.06,-103.16 381.51,-108.47"/>
</g>
<!-- Node6 -->
<g id="node6" class="node">
<title>Node6</title>
<g id="a_node6"><a xlink:href="afsk__receiver_8cpp.html" target="_top" xlink:title="Implementation of the AFSK receiver class.">
<polygon fill="none" stroke="black" points="413.5,-56.5 413.5,-75.5 515.5,-75.5 515.5,-56.5 413.5,-56.5"/>
<text text-anchor="middle" x="464.5" y="-63.5" font-family="Helvetica,sans-Serif" font-size="10.00">afsk_receiver.cpp</text>
</a>
</g>
</g>
<!-- Node3&#45;&gt;Node6 -->
<g id="edge5" class="edge">
<title>Node3&#45;&gt;Node6</title>
<path fill="none" stroke="midnightblue" d="M419.54,-105.54C430.77,-95.91 444.82,-83.87 454.19,-75.83"/>
<polygon fill="midnightblue" stroke="midnightblue" points="416.94,-103.16 411.62,-112.32 421.49,-108.47 416.94,-103.16"/>
</g>
<!-- Node7 -->
<g id="node7" class="node">
<title>Node7</title>
<g id="a_node7"><a xlink:href="aprs_8hpp.html" target="_top" xlink:title="APRS implementation.">
<polygon fill="none" stroke="black" points="534,-56.5 534,-75.5 593,-75.5 593,-56.5 534,-56.5"/>
<text text-anchor="middle" x="563.5" y="-63.5" font-family="Helvetica,sans-Serif" font-size="10.00">aprs.hpp</text>
</a>
</g>
</g>
<!-- Node3&#45;&gt;Node7 -->
<g id="edge6" class="edge">
<title>Node3&#45;&gt;Node7</title>
<path fill="none" stroke="midnightblue" d="M436.98,-109.17C467.49,-99 510.74,-84.59 537.95,-75.52"/>
<polygon fill="midnightblue" stroke="midnightblue" points="435.55,-105.96 427.17,-112.44 437.76,-112.6 435.55,-105.96"/>
</g>
<!-- Node14 -->
<g id="node14" class="node">
<title>Node14</title>
<g id="a_node14"><a xlink:href="pulse__test_8cpp.html" target="_top" xlink:title="PulseAudio output test. Does not use gtest.">
<polygon fill="none" stroke="black" points="130,-0.5 130,-19.5 217,-19.5 217,-0.5 130,-0.5"/>
<text text-anchor="middle" x="173.5" y="-7.5" font-family="Helvetica,sans-Serif" font-size="10.00">pulse_test.cpp</text>
</a>
</g>
</g>
<!-- Node3&#45;&gt;Node14 -->
<g id="edge15" class="edge">
<title>Node3&#45;&gt;Node14</title>
<path fill="none" stroke="midnightblue" d="M361.68,-112.2C306.19,-103.74 198.25,-107.09 172.5,-76 159.25,-60.01 165.57,-33.43 170.16,-19.74"/>
<polygon fill="midnightblue" stroke="midnightblue" points="361.26,-115.68 371.72,-114 362.49,-108.79 361.26,-115.68"/>
</g>
<!-- Node15 -->
<g id="node15" class="node">
<title>Node15</title>
<g id="a_node15"><a xlink:href="afsk__test_8cpp.html" target="_top" xlink:title=" ">
<polygon fill="none" stroke="black" points="181.5,-56.5 181.5,-75.5 263.5,-75.5 263.5,-56.5 181.5,-56.5"/>
<text text-anchor="middle" x="222.5" y="-63.5" font-family="Helvetica,sans-Serif" font-size="10.00">afsk_test.cpp</text>
</a>
</g>
</g>
<!-- Node3&#45;&gt;Node15 -->
<g id="edge14" class="edge">
<title>Node3&#45;&gt;Node15</title>
<path fill="none" stroke="midnightblue" d="M363.17,-109.44C329.42,-99.26 281.05,-84.66 250.73,-75.52"/>
<polygon fill="midnightblue" stroke="midnightblue" points="362.55,-112.91 373.14,-112.44 364.57,-106.2 362.55,-112.91"/>
</g>
<!-- Node8 -->
<g id="node8" class="node">
<title>Node8</title>
<g id="a_node8"><a xlink:href="aprs__demodulator_8cpp.html" target="_top" xlink:title="Implementation of the APRS demodulator class.">
<polygon fill="none" stroke="black" points="798,-0.5 798,-19.5 923,-19.5 923,-0.5 798,-0.5"/>
<text text-anchor="middle" x="860.5" y="-7.5" font-family="Helvetica,sans-Serif" font-size="10.00">aprs_demodulator.cpp</text>
</a>
</g>
</g>
<!-- Node7&#45;&gt;Node8 -->
<g id="edge7" class="edge">
<title>Node7&#45;&gt;Node8</title>
<path fill="none" stroke="midnightblue" d="M603.52,-55.88C679.64,-40.62 756.42,-27.67 806.48,-19.55"/>
<polygon fill="midnightblue" stroke="midnightblue" points="602.38,-52.54 593.27,-57.95 603.77,-59.4 602.38,-52.54"/>
</g>
<!-- Node9 -->
<g id="node9" class="node">
<title>Node9</title>
<g id="a_node9"><a xlink:href="aprs__encoders_8cpp.html" target="_top" xlink:title="Encoding functions for APRS packets.">
<polygon fill="none" stroke="black" points="245,-0.5 245,-19.5 352,-19.5 352,-0.5 245,-0.5"/>
<text text-anchor="middle" x="298.5" y="-7.5" font-family="Helvetica,sans-Serif" font-size="10.00">aprs_encoders.cpp</text>
</a>
</g>
</g>
<!-- Node7&#45;&gt;Node9 -->
<g id="edge8" class="edge">
<title>Node7&#45;&gt;Node9</title>
<path fill="none" stroke="midnightblue" d="M523.61,-55.86C455.17,-41.23 387.14,-27.92 343.61,-19.56"/>
<polygon fill="midnightblue" stroke="midnightblue" points="523.2,-59.35 533.71,-58.03 524.67,-52.51 523.2,-59.35"/>
</g>
<!-- Node10 -->
<g id="node10" class="node">
<title>Node10</title>
<g id="a_node10"><a xlink:href="aprs__modulator_8cpp.html" target="_top" xlink:title="Implementation of the APRS modulator class.">
<polygon fill="none" stroke="black" points="370,-0.5 370,-19.5 483,-19.5 483,-0.5 370,-0.5"/>
<text text-anchor="middle" x="426.5" y="-7.5" font-family="Helvetica,sans-Serif" font-size="10.00">aprs_modulator.cpp</text>
</a>
</g>
</g>
<!-- Node7&#45;&gt;Node10 -->
<g id="edge9" class="edge">
<title>Node7&#45;&gt;Node10</title>
<path fill="none" stroke="midnightblue" d="M532.48,-52.77C506.74,-42.63 470.81,-28.47 448.11,-19.52"/>
<polygon fill="midnightblue" stroke="midnightblue" points="531.21,-56.03 541.79,-56.44 533.77,-49.52 531.21,-56.03"/>
</g>
<!-- Node11 -->
<g id="node11" class="node">
<title>Node11</title>
<g id="a_node11"><a xlink:href="aprs__receiver_8cpp.html" target="_top" xlink:title="Implementation of the APRS receiver class.">
<polygon fill="none" stroke="black" points="501.5,-0.5 501.5,-19.5 603.5,-19.5 603.5,-0.5 501.5,-0.5"/>
<text text-anchor="middle" x="552.5" y="-7.5" font-family="Helvetica,sans-Serif" font-size="10.00">aprs_receiver.cpp</text>
</a>
</g>
</g>
<!-- Node7&#45;&gt;Node11 -->
<g id="edge10" class="edge">
<title>Node7&#45;&gt;Node11</title>
<path fill="none" stroke="midnightblue" d="M559.65,-46.1C557.82,-37.14 555.73,-26.86 554.28,-19.75"/>
<polygon fill="midnightblue" stroke="midnightblue" points="556.26,-46.98 561.68,-56.08 563.12,-45.59 556.26,-46.98"/>
</g>
<!-- Node12 -->
<g id="node12" class="node">
<title>Node12</title>
<g id="a_node12"><a xlink:href="aprs_8cpp.html" target="_top" xlink:title="APRS implementation.">
<polygon fill="none" stroke="black" points="621.5,-0.5 621.5,-19.5 679.5,-19.5 679.5,-0.5 621.5,-0.5"/>
<text text-anchor="middle" x="650.5" y="-7.5" font-family="Helvetica,sans-Serif" font-size="10.00">aprs.cpp</text>
</a>
</g>
</g>
<!-- Node7&#45;&gt;Node12 -->
<g id="edge11" class="edge">
<title>Node7&#45;&gt;Node12</title>
<path fill="none" stroke="midnightblue" d="M586.22,-50.9C602.17,-41 623,-28.07 636.56,-19.65"/>
<polygon fill="midnightblue" stroke="midnightblue" points="584.13,-48.08 577.48,-56.32 587.82,-54.02 584.13,-48.08"/>
</g>
<!-- Node13 -->
<g id="node13" class="node">
<title>Node13</title>
<g id="a_node13"><a xlink:href="aprs__test_8cpp.html" target="_top" xlink:title=" ">
<polygon fill="none" stroke="black" points="697.5,-0.5 697.5,-19.5 779.5,-19.5 779.5,-0.5 697.5,-0.5"/>
<text text-anchor="middle" x="738.5" y="-7.5" font-family="Helvetica,sans-Serif" font-size="10.00">aprs_test.cpp</text>
</a>
</g>
</g>
<!-- Node7&#45;&gt;Node13 -->
<g id="edge12" class="edge">
<title>Node7&#45;&gt;Node13</title>
<path fill="none" stroke="midnightblue" d="M600.97,-53.44C633.97,-43.26 681.26,-28.66 710.9,-19.52"/>
<polygon fill="midnightblue" stroke="midnightblue" points="599.75,-50.15 591.23,-56.44 601.82,-56.84 599.75,-50.15"/>
</g>
<!-- Node7&#45;&gt;Node14 -->
<g id="edge13" class="edge">
<title>Node7&#45;&gt;Node14</title>
<path fill="none" stroke="midnightblue" d="M523.54,-56C395.3,-33.6 360.52,-36.86 235.5,-20 229.57,-19.2 223.33,-18.33 217.18,-17.45"/>
<polygon fill="midnightblue" stroke="midnightblue" points="523.3,-59.51 533.75,-57.8 524.51,-52.62 523.3,-59.51"/>
</g>
<!-- Node16&#45;&gt;Node7 -->
<g id="edge21" class="edge">
<title>Node16&#45;&gt;Node7</title>
<path fill="none" stroke="midnightblue" d="M913.27,-117.08C847.33,-110.5 714.18,-95.97 602.5,-76 599.49,-75.46 596.36,-74.84 593.25,-74.19"/>
<polygon fill="midnightblue" stroke="midnightblue" points="912.97,-120.56 923.26,-118.06 913.66,-113.6 912.97,-120.56"/>
</g>
<!-- Node17 -->
<g id="node17" class="node">
<title>Node17</title>
<g id="a_node17"><a xlink:href="ax25__address_8cpp.html" target="_top" xlink:title="The AX.25 address class implementation.">
<polygon fill="none" stroke="black" points="1303.5,-56.5 1303.5,-75.5 1407.5,-75.5 1407.5,-56.5 1303.5,-56.5"/>
<text text-anchor="middle" x="1355.5" y="-63.5" font-family="Helvetica,sans-Serif" font-size="10.00">ax25_address.cpp</text>
</a>
</g>
</g>
<!-- Node16&#45;&gt;Node17 -->
<g id="edge17" class="edge">
<title>Node16&#45;&gt;Node17</title>
<path fill="none" stroke="midnightblue" d="M996.03,-115.71C1060.12,-107.49 1186.97,-91.05 1294.5,-76 1297.36,-75.6 1300.3,-75.18 1303.26,-74.76"/>
<polygon fill="midnightblue" stroke="midnightblue" points="995.4,-112.26 985.93,-117 996.29,-119.2 995.4,-112.26"/>
</g>
<!-- Node18 -->
<g id="node18" class="node">
<title>Node18</title>
<g id="a_node18"><a xlink:href="ax25__decode_8cpp.html" target="_top" xlink:title="AX.25 decoding implementation.">
<polygon fill="none" stroke="black" points="1426,-56.5 1426,-75.5 1527,-75.5 1527,-56.5 1426,-56.5"/>
<text text-anchor="middle" x="1476.5" y="-63.5" font-family="Helvetica,sans-Serif" font-size="10.00">ax25_decode.cpp</text>
</a>
</g>
</g>
<!-- Node16&#45;&gt;Node18 -->
<g id="edge18" class="edge">
<title>Node16&#45;&gt;Node18</title>
<path fill="none" stroke="midnightblue" d="M995.92,-117.69C1076.87,-111.06 1261.69,-95.14 1416.5,-76 1419.53,-75.63 1422.65,-75.22 1425.79,-74.8"/>
<polygon fill="midnightblue" stroke="midnightblue" points="995.34,-114.23 985.65,-118.53 995.91,-121.2 995.34,-114.23"/>
</g>
<!-- Node19 -->
<g id="node19" class="node">
<title>Node19</title>
<g id="a_node19"><a xlink:href="ax25__fcs_8cpp.html" target="_top" xlink:title="AX.25 Frame Check Sequence (FCS) tools.">
<polygon fill="none" stroke="black" points="611.5,-56.5 611.5,-75.5 691.5,-75.5 691.5,-56.5 611.5,-56.5"/>
<text text-anchor="middle" x="651.5" y="-63.5" font-family="Helvetica,sans-Serif" font-size="10.00">ax25_fcs.cpp</text>
</a>
</g>
</g>
<!-- Node16&#45;&gt;Node19 -->
<g id="edge19" class="edge">
<title>Node16&#45;&gt;Node19</title>
<path fill="none" stroke="midnightblue" d="M913.05,-113.74C862.76,-104.91 775.39,-89.51 700.5,-76 697.61,-75.48 694.62,-74.94 691.61,-74.39"/>
<polygon fill="midnightblue" stroke="midnightblue" points="912.75,-117.24 923.21,-115.52 913.96,-110.35 912.75,-117.24"/>
</g>
<!-- Node20 -->
<g id="node20" class="node">
<title>Node20</title>
<g id="a_node20"><a xlink:href="ax25__frame_8cpp.html" target="_top" xlink:title="General AX.25 frame class.">
<polygon fill="none" stroke="black" points="710,-56.5 710,-75.5 805,-75.5 805,-56.5 710,-56.5"/>
<text text-anchor="middle" x="757.5" y="-63.5" font-family="Helvetica,sans-Serif" font-size="10.00">ax25_frame.cpp</text>
</a>
</g>
</g>
<!-- Node16&#45;&gt;Node20 -->
<g id="edge20" class="edge">
<title>Node16&#45;&gt;Node20</title>
<path fill="none" stroke="midnightblue" d="M913.27,-109.7C876.09,-99.51 822.23,-84.74 788.57,-75.52"/>
<polygon fill="midnightblue" stroke="midnightblue" points="912.72,-113.18 923.28,-112.44 914.57,-106.42 912.72,-113.18"/>
</g>
<!-- Node21 -->
<g id="node21" class="node">
<title>Node21</title>
<g id="a_node21"><a xlink:href="ax25__address__test_8cpp.html" target="_top" xlink:title=" ">
<polygon fill="none" stroke="black" points="823.5,-56.5 823.5,-75.5 951.5,-75.5 951.5,-56.5 823.5,-56.5"/>
<text text-anchor="middle" x="887.5" y="-63.5" font-family="Helvetica,sans-Serif" font-size="10.00">ax25_address_test.cpp</text>
</a>
</g>
</g>
<!-- Node16&#45;&gt;Node21 -->
<g id="edge22" class="edge">
<title>Node16&#45;&gt;Node21</title>
<path fill="none" stroke="midnightblue" d="M935.67,-105.82C923.66,-96.15 908.53,-83.95 898.46,-75.83"/>
<polygon fill="midnightblue" stroke="midnightblue" points="933.75,-108.77 943.74,-112.32 938.15,-103.32 933.75,-108.77"/>
</g>
<!-- Node22 -->
<g id="node22" class="node">
<title>Node22</title>
<g id="a_node22"><a xlink:href="ax25__crc__test_8cpp.html" target="_top" xlink:title=" ">
<polygon fill="none" stroke="black" points="969.5,-56.5 969.5,-75.5 1073.5,-75.5 1073.5,-56.5 969.5,-56.5"/>
<text text-anchor="middle" x="1021.5" y="-63.5" font-family="Helvetica,sans-Serif" font-size="10.00">ax25_crc_test.cpp</text>
</a>
</g>
</g>
<!-- Node16&#45;&gt;Node22 -->
<g id="edge23" class="edge">
<title>Node16&#45;&gt;Node22</title>
<path fill="none" stroke="midnightblue" d="M973.33,-105.82C985.34,-96.15 1000.47,-83.95 1010.54,-75.83"/>
<polygon fill="midnightblue" stroke="midnightblue" points="970.85,-103.32 965.26,-112.32 975.25,-108.77 970.85,-103.32"/>
</g>
<!-- Node23 -->
<g id="node23" class="node">
<title>Node23</title>
<g id="a_node23"><a xlink:href="ax25__frame__test_8cpp.html" target="_top" xlink:title=" ">
<polygon fill="none" stroke="black" points="1092,-56.5 1092,-75.5 1211,-75.5 1211,-56.5 1092,-56.5"/>
<text text-anchor="middle" x="1151.5" y="-63.5" font-family="Helvetica,sans-Serif" font-size="10.00">ax25_frame_test.cpp</text>
</a>
</g>
</g>
<!-- Node16&#45;&gt;Node23 -->
<g id="edge24" class="edge">
<title>Node16&#45;&gt;Node23</title>
<path fill="none" stroke="midnightblue" d="M995.73,-109.7C1032.91,-99.51 1086.77,-84.74 1120.43,-75.52"/>
<polygon fill="midnightblue" stroke="midnightblue" points="994.43,-106.42 985.72,-112.44 996.28,-113.18 994.43,-106.42"/>
</g>
<!-- Node24 -->
<g id="node24" class="node">
<title>Node24</title>
<g id="a_node24"><a xlink:href="tmp_8cpp.html" target="_top" xlink:title=" ">
<polygon fill="none" stroke="black" points="1229.5,-56.5 1229.5,-75.5 1285.5,-75.5 1285.5,-56.5 1229.5,-56.5"/>
<text text-anchor="middle" x="1257.5" y="-63.5" font-family="Helvetica,sans-Serif" font-size="10.00">tmp.cpp</text>
</a>
</g>
</g>
<!-- Node16&#45;&gt;Node24 -->
<g id="edge25" class="edge">
<title>Node16&#45;&gt;Node24</title>
<path fill="none" stroke="midnightblue" d="M995.84,-114.82C1048.1,-106.82 1140.78,-91.99 1219.5,-76 1222.69,-75.35 1226.02,-74.63 1229.32,-73.89"/>
<polygon fill="midnightblue" stroke="midnightblue" points="994.99,-111.41 985.63,-116.38 996.04,-118.33 994.99,-111.41"/>
</g>
<!-- Node26 -->
<g id="node26" class="node">
<title>Node26</title>
<g id="a_node26"><a xlink:href="convolutional__code_8cpp.html" target="_top" xlink:title="Convolutional Code Implementation.">
<polygon fill="none" stroke="black" points="1739,-56.5 1739,-75.5 1870,-75.5 1870,-56.5 1739,-56.5"/>
<text text-anchor="middle" x="1804.5" y="-63.5" font-family="Helvetica,sans-Serif" font-size="10.00">convolutional_code.cpp</text>
</a>
</g>
</g>
<!-- Node25&#45;&gt;Node26 -->
<g id="edge27" class="edge">
<title>Node25&#45;&gt;Node26</title>
<path fill="none" stroke="midnightblue" d="M1710.27,-108.37C1733.31,-98.26 1764.98,-84.35 1785.1,-75.52"/>
<polygon fill="midnightblue" stroke="midnightblue" points="1708.74,-105.22 1700.99,-112.44 1711.55,-111.63 1708.74,-105.22"/>
</g>
<!-- Node27 -->
<g id="node27" class="node">
<title>Node27</title>
<g id="a_node27"><a xlink:href="psk__modulator_8cpp.html" target="_top" xlink:title="Phase Shift Keying modulator.">
<polygon fill="none" stroke="black" points="1888,-56.5 1888,-75.5 1997,-75.5 1997,-56.5 1888,-56.5"/>
<text text-anchor="middle" x="1942.5" y="-63.5" font-family="Helvetica,sans-Serif" font-size="10.00">psk_modulator.cpp</text>
</a>
</g>
</g>
<!-- Node25&#45;&gt;Node27 -->
<g id="edge28" class="edge">
<title>Node25&#45;&gt;Node27</title>
<path fill="none" stroke="midnightblue" d="M1719.49,-113.14C1767.86,-103.13 1851.14,-85.9 1901.09,-75.57"/>
<polygon fill="midnightblue" stroke="midnightblue" points="1718.52,-109.77 1709.43,-115.22 1719.93,-116.62 1718.52,-109.77"/>
</g>
<!-- Node28 -->
<g id="node28" class="node">
<title>Node28</title>
<g id="a_node28"><a xlink:href="varicode_8cpp.html" target="_top" xlink:title="Varicode Implementation.">
<polygon fill="none" stroke="black" points="1545,-56.5 1545,-75.5 1624,-75.5 1624,-56.5 1545,-56.5"/>
<text text-anchor="middle" x="1584.5" y="-63.5" font-family="Helvetica,sans-Serif" font-size="10.00">varicode.cpp</text>
</a>
</g>
</g>
<!-- Node25&#45;&gt;Node28 -->
<g id="edge29" class="edge">
<title>Node25&#45;&gt;Node28</title>
<path fill="none" stroke="midnightblue" d="M1657.16,-107.45C1639.26,-97.48 1615.45,-84.23 1600.05,-75.65"/>
<polygon fill="midnightblue" stroke="midnightblue" points="1655.48,-110.52 1665.92,-112.32 1658.88,-104.4 1655.48,-110.52"/>
</g>
<!-- Node29 -->
<g id="node29" class="node">
<title>Node29</title>
<g id="a_node29"><a xlink:href="psk__test_8cpp.html" target="_top" xlink:title=" ">
<polygon fill="none" stroke="black" points="1642.5,-56.5 1642.5,-75.5 1720.5,-75.5 1720.5,-56.5 1642.5,-56.5"/>
<text text-anchor="middle" x="1681.5" y="-63.5" font-family="Helvetica,sans-Serif" font-size="10.00">psk_test.cpp</text>
</a>
</g>
</g>
<!-- Node25&#45;&gt;Node29 -->
<g id="edge30" class="edge">
<title>Node25&#45;&gt;Node29</title>
<path fill="none" stroke="midnightblue" d="M1681.5,-101.8C1681.5,-92.91 1681.5,-82.78 1681.5,-75.75"/>
<polygon fill="midnightblue" stroke="midnightblue" points="1678,-102.08 1681.5,-112.08 1685,-102.08 1678,-102.08"/>
</g>
</g>
</svg>
