<?xml version="1.0" encoding="UTF-8" standalone="no"?>
<!DOCTYPE svg PUBLIC "-//W3C//DTD SVG 1.1//EN"
 "http://www.w3.org/Graphics/SVG/1.1/DTD/svg11.dtd">
<!-- Generated by graphviz version 2.43.0 (0)
 -->
<!-- Title: bit_stream.cpp Pages: 1 -->
<svg width="422pt" height="140pt"
 viewBox="0.00 0.00 421.99 140.00" xmlns="http://www.w3.org/2000/svg" xmlns:xlink="http://www.w3.org/1999/xlink">
<g id="graph0" class="graph" transform="scale(1 1) rotate(0) translate(4 136)">
<title>bit_stream.cpp</title>
<!-- Node1 -->
<g id="node1" class="node">
<title>Node1</title>
<g id="a_node1"><a xlink:title=" ">
<polygon fill="#bfbfbf" stroke="black" points="121.5,-112.5 121.5,-131.5 210.5,-131.5 210.5,-112.5 121.5,-112.5"/>
<text text-anchor="middle" x="166" y="-119.5" font-family="Helvetica,sans-Serif" font-size="10.00">bit_stream.cpp</text>
</a>
</g>
</g>
<!-- Node2 -->
<g id="node2" class="node">
<title>Node2</title>
<g id="a_node2"><a xlink:title=" ">
<polygon fill="none" stroke="#bfbfbf" points="0,-56.5 0,-75.5 44,-75.5 44,-56.5 0,-56.5"/>
<text text-anchor="middle" x="22" y="-63.5" font-family="Helvetica,sans-Serif" font-size="10.00">bitset</text>
</a>
</g>
</g>
<!-- Node1&#45;&gt;Node2 -->
<g id="edge1" class="edge">
<title>Node1&#45;&gt;Node2</title>
<path fill="none" stroke="midnightblue" d="M143.18,-112.44C119.03,-103.39 80.72,-89.02 53.65,-78.87"/>
<polygon fill="midnightblue" stroke="midnightblue" points="54.83,-75.57 44.24,-75.34 52.37,-82.13 54.83,-75.57"/>
</g>
<!-- Node3 -->
<g id="node3" class="node">
<title>Node3</title>
<g id="a_node3"><a xlink:title=" ">
<polygon fill="none" stroke="#bfbfbf" points="192,-0.5 192,-19.5 242,-19.5 242,-0.5 192,-0.5"/>
<text text-anchor="middle" x="217" y="-7.5" font-family="Helvetica,sans-Serif" font-size="10.00">cstdint</text>
</a>
</g>
</g>
<!-- Node1&#45;&gt;Node3 -->
<g id="edge2" class="edge">
<title>Node1&#45;&gt;Node3</title>
<path fill="none" stroke="midnightblue" d="M141.56,-112.42C113.65,-101.24 73.93,-80.23 91,-56 111.41,-27.04 152.22,-16.62 181.88,-12.92"/>
<polygon fill="midnightblue" stroke="midnightblue" points="182.28,-16.4 191.86,-11.87 181.55,-9.43 182.28,-16.4"/>
</g>
<!-- Node4 -->
<g id="node4" class="node">
<title>Node4</title>
<g id="a_node4"><a xlink:title=" ">
<polygon fill="none" stroke="#bfbfbf" points="100,-56.5 100,-75.5 156,-75.5 156,-56.5 100,-56.5"/>
<text text-anchor="middle" x="128" y="-63.5" font-family="Helvetica,sans-Serif" font-size="10.00">iomanip</text>
</a>
</g>
</g>
<!-- Node1&#45;&gt;Node4 -->
<g id="edge3" class="edge">
<title>Node1&#45;&gt;Node4</title>
<path fill="none" stroke="midnightblue" d="M159.73,-112.08C154.36,-104.46 146.48,-93.26 139.92,-83.94"/>
<polygon fill="midnightblue" stroke="midnightblue" points="142.78,-81.91 134.16,-75.75 137.05,-85.94 142.78,-81.91"/>
</g>
<!-- Node5 -->
<g id="node5" class="node">
<title>Node5</title>
<g id="a_node5"><a xlink:title=" ">
<polygon fill="none" stroke="#bfbfbf" points="174,-56.5 174,-75.5 234,-75.5 234,-56.5 174,-56.5"/>
<text text-anchor="middle" x="204" y="-63.5" font-family="Helvetica,sans-Serif" font-size="10.00">iostream</text>
</a>
</g>
</g>
<!-- Node1&#45;&gt;Node5 -->
<g id="edge4" class="edge">
<title>Node1&#45;&gt;Node5</title>
<path fill="none" stroke="midnightblue" d="M172.27,-112.08C177.64,-104.46 185.52,-93.26 192.08,-83.94"/>
<polygon fill="midnightblue" stroke="midnightblue" points="194.95,-85.94 197.84,-75.75 189.22,-81.91 194.95,-85.94"/>
</g>
<!-- Node6 -->
<g id="node6" class="node">
<title>Node6</title>
<g id="a_node6"><a xlink:title=" ">
<polygon fill="none" stroke="#bfbfbf" points="353.5,-0.5 353.5,-19.5 400.5,-19.5 400.5,-0.5 353.5,-0.5"/>
<text text-anchor="middle" x="377" y="-7.5" font-family="Helvetica,sans-Serif" font-size="10.00">vector</text>
</a>
</g>
</g>
<!-- Node1&#45;&gt;Node6 -->
<g id="edge5" class="edge">
<title>Node1&#45;&gt;Node6</title>
<path fill="none" stroke="midnightblue" d="M210.74,-119.32C273.9,-115.9 384.27,-105.73 409,-76 421.24,-61.29 407.63,-41.11 394.57,-27.15"/>
<polygon fill="midnightblue" stroke="midnightblue" points="396.7,-24.33 387.15,-19.74 391.75,-29.28 396.7,-24.33"/>
</g>
<!-- Node7 -->
<g id="node7" class="node">
<title>Node7</title>
<g id="a_node7"><a xlink:href="bit__stream_8hpp.html" target="_top" xlink:title="The bit stream class.">
<polygon fill="none" stroke="black" points="251.5,-56.5 251.5,-75.5 400.5,-75.5 400.5,-56.5 251.5,-56.5"/>
<text text-anchor="middle" x="326" y="-63.5" font-family="Helvetica,sans-Serif" font-size="10.00">SignalEasel/bit_stream.hpp</text>
</a>
</g>
</g>
<!-- Node1&#45;&gt;Node7 -->
<g id="edge6" class="edge">
<title>Node1&#45;&gt;Node7</title>
<path fill="none" stroke="midnightblue" d="M191.35,-112.44C218.27,-103.36 261,-88.94 291.09,-78.78"/>
<polygon fill="midnightblue" stroke="midnightblue" points="292.41,-82.03 300.77,-75.52 290.17,-75.4 292.41,-82.03"/>
</g>
<!-- Node7&#45;&gt;Node3 -->
<g id="edge7" class="edge">
<title>Node7&#45;&gt;Node3</title>
<path fill="none" stroke="midnightblue" d="M308.49,-56.32C290.93,-47.62 263.67,-34.12 243.47,-24.11"/>
<polygon fill="midnightblue" stroke="midnightblue" points="244.98,-20.96 234.47,-19.65 241.88,-27.23 244.98,-20.96"/>
</g>
<!-- Node7&#45;&gt;Node6 -->
<g id="edge8" class="edge">
<title>Node7&#45;&gt;Node6</title>
<path fill="none" stroke="midnightblue" d="M334.42,-56.08C341.85,-48.22 352.85,-36.57 361.81,-27.08"/>
<polygon fill="midnightblue" stroke="midnightblue" points="364.41,-29.42 368.74,-19.75 359.32,-24.62 364.41,-29.42"/>
</g>
</g>
</svg>
