<?xml version="1.0" encoding="UTF-8" standalone="no"?>
<!DOCTYPE svg PUBLIC "-//W3C//DTD SVG 1.1//EN"
 "http://www.w3.org/Graphics/SVG/1.1/DTD/svg11.dtd">
<!-- Generated by graphviz version 2.43.0 (0)
 -->
<!-- Title: signal_easel::aprs::telemetry::TelemetryTranscoder::encodeDataReportMessage Pages: 1 -->
<svg width="376pt" height="230pt"
 viewBox="0.00 0.00 376.00 230.00" xmlns="http://www.w3.org/2000/svg" xmlns:xlink="http://www.w3.org/1999/xlink">
<g id="graph0" class="graph" transform="scale(1 1) rotate(0) translate(4 226)">
<title>signal_easel::aprs::telemetry::TelemetryTranscoder::encodeDataReportMessage</title>
<!-- Node1 -->
<g id="node1" class="node">
<title>Node1</title>
<g id="a_node1"><a xlink:title="Encodes the parameter data into a data report message.">
<polygon fill="#bfbfbf" stroke="black" points="0,-90.5 0,-131.5 177,-131.5 177,-90.5 0,-90.5"/>
<text text-anchor="start" x="8" y="-119.5" font-family="Helvetica,sans-Serif" font-size="10.00">signal_easel::aprs</text>
<text text-anchor="start" x="8" y="-108.5" font-family="Helvetica,sans-Serif" font-size="10.00">::telemetry::TelemetryTranscoder</text>
<text text-anchor="middle" x="88.5" y="-97.5" font-family="Helvetica,sans-Serif" font-size="10.00">::encodeDataReportMessage</text>
</a>
</g>
</g>
<!-- Node2 -->
<g id="node2" class="node">
<title>Node2</title>
<g id="a_node2"><a xlink:href="classsignal__easel_1_1aprs_1_1telemetry_1_1TelemetryData.html#a5e9a7e28d18dbd0e50bb53ea7734aa1a" target="_top" xlink:title=" ">
<polygon fill="none" stroke="black" points="213,-180.5 213,-221.5 368,-221.5 368,-180.5 213,-180.5"/>
<text text-anchor="start" x="221" y="-209.5" font-family="Helvetica,sans-Serif" font-size="10.00">signal_easel::aprs</text>
<text text-anchor="start" x="221" y="-198.5" font-family="Helvetica,sans-Serif" font-size="10.00">::telemetry::TelemetryData</text>
<text text-anchor="middle" x="290.5" y="-187.5" font-family="Helvetica,sans-Serif" font-size="10.00">::getAnalogParametersConst</text>
</a>
</g>
</g>
<!-- Node1&#45;&gt;Node2 -->
<g id="edge1" class="edge">
<title>Node1&#45;&gt;Node2</title>
<path fill="none" stroke="midnightblue" d="M129.73,-131.54C153.7,-143.52 184.84,-158.66 213,-171 217.15,-172.82 221.46,-174.65 225.81,-176.46"/>
<polygon fill="midnightblue" stroke="midnightblue" points="224.79,-179.83 235.37,-180.38 227.44,-173.35 224.79,-179.83"/>
</g>
<!-- Node3 -->
<g id="node3" class="node">
<title>Node3</title>
<g id="a_node3"><a xlink:href="classsignal__easel_1_1aprs_1_1telemetry_1_1TelemetryData.html#a6d64ddefdea8ac5471aa2e16f32cde9a" target="_top" xlink:title="Get the comment.">
<polygon fill="none" stroke="black" points="216.5,-120.5 216.5,-161.5 364.5,-161.5 364.5,-120.5 216.5,-120.5"/>
<text text-anchor="start" x="224.5" y="-149.5" font-family="Helvetica,sans-Serif" font-size="10.00">signal_easel::aprs</text>
<text text-anchor="start" x="224.5" y="-138.5" font-family="Helvetica,sans-Serif" font-size="10.00">::telemetry::TelemetryData</text>
<text text-anchor="middle" x="290.5" y="-127.5" font-family="Helvetica,sans-Serif" font-size="10.00">::getComment</text>
</a>
</g>
</g>
<!-- Node1&#45;&gt;Node3 -->
<g id="edge2" class="edge">
<title>Node1&#45;&gt;Node3</title>
<path fill="none" stroke="midnightblue" d="M177.22,-124.16C186.88,-125.61 196.7,-127.08 206.3,-128.52"/>
<polygon fill="midnightblue" stroke="midnightblue" points="205.8,-131.98 216.21,-130.01 206.84,-125.06 205.8,-131.98"/>
</g>
<!-- Node4 -->
<g id="node4" class="node">
<title>Node4</title>
<g id="a_node4"><a xlink:href="classsignal__easel_1_1aprs_1_1telemetry_1_1TelemetryData.html#a8128a64f4d0f2a6af78ed636d5fbbb57" target="_top" xlink:title=" ">
<polygon fill="none" stroke="black" points="213.5,-60.5 213.5,-101.5 367.5,-101.5 367.5,-60.5 213.5,-60.5"/>
<text text-anchor="start" x="221.5" y="-89.5" font-family="Helvetica,sans-Serif" font-size="10.00">signal_easel::aprs</text>
<text text-anchor="start" x="221.5" y="-78.5" font-family="Helvetica,sans-Serif" font-size="10.00">::telemetry::TelemetryData</text>
<text text-anchor="middle" x="290.5" y="-67.5" font-family="Helvetica,sans-Serif" font-size="10.00">::getDigitalParametersConst</text>
</a>
</g>
</g>
<!-- Node1&#45;&gt;Node4 -->
<g id="edge3" class="edge">
<title>Node1&#45;&gt;Node4</title>
<path fill="none" stroke="midnightblue" d="M177.22,-97.84C185.9,-96.54 194.7,-95.22 203.36,-93.92"/>
<polygon fill="midnightblue" stroke="midnightblue" points="204.07,-97.35 213.44,-92.41 203.03,-90.43 204.07,-97.35"/>
</g>
<!-- Node5 -->
<g id="node5" class="node">
<title>Node5</title>
<g id="a_node5"><a xlink:href="classsignal__easel_1_1aprs_1_1telemetry_1_1TelemetryData.html#a011a75e05eac5dc7dcd30f1d1b4c5174" target="_top" xlink:title="Get the sequence number as a string of 3 digits.">
<polygon fill="none" stroke="black" points="214,-0.5 214,-41.5 367,-41.5 367,-0.5 214,-0.5"/>
<text text-anchor="start" x="222" y="-29.5" font-family="Helvetica,sans-Serif" font-size="10.00">signal_easel::aprs</text>
<text text-anchor="start" x="222" y="-18.5" font-family="Helvetica,sans-Serif" font-size="10.00">::telemetry::TelemetryData</text>
<text text-anchor="middle" x="290.5" y="-7.5" font-family="Helvetica,sans-Serif" font-size="10.00">::getSequenceNumberString</text>
</a>
</g>
</g>
<!-- Node1&#45;&gt;Node5 -->
<g id="edge4" class="edge">
<title>Node1&#45;&gt;Node5</title>
<path fill="none" stroke="midnightblue" d="M129.73,-90.46C153.7,-78.48 184.84,-63.34 213,-51 217.15,-49.18 221.46,-47.35 225.81,-45.54"/>
<polygon fill="midnightblue" stroke="midnightblue" points="227.44,-48.65 235.37,-41.62 224.79,-42.17 227.44,-48.65"/>
</g>
</g>
</svg>
