<?xml version="1.0" encoding="UTF-8" standalone="no"?>
<!DOCTYPE svg PUBLIC "-//W3C//DTD SVG 1.1//EN"
 "http://www.w3.org/Graphics/SVG/1.1/DTD/svg11.dtd">
<!-- Generated by graphviz version 2.43.0 (0)
 -->
<!-- Title: signal_easel::psk::Modulator Pages: 1 -->
<svg width="1355pt" height="667pt"
 viewBox="0.00 0.00 1354.74 667.00" xmlns="http://www.w3.org/2000/svg" xmlns:xlink="http://www.w3.org/1999/xlink">
<g id="graph0" class="graph" transform="scale(1 1) rotate(0) translate(4 663)">
<title>signal_easel::psk::Modulator</title>
<!-- Node1 -->
<g id="node1" class="node">
<title>Node1</title>
<g id="a_node1"><a xlink:title="PSK Modulator.">
<polygon fill="#bfbfbf" stroke="black" points="763.24,-0.5 763.24,-156.5 870.24,-156.5 870.24,-0.5 763.24,-0.5"/>
<text text-anchor="start" x="771.24" y="-144.5" font-family="Helvetica,sans-Serif" font-size="10.00">signal_easel::psk::</text>
<text text-anchor="middle" x="816.74" y="-133.5" font-family="Helvetica,sans-Serif" font-size="10.00">Modulator</text>
<polyline fill="none" stroke="black" points="763.24,-126.5 870.24,-126.5 "/>
<text text-anchor="middle" x="816.74" y="-114.5" font-family="Helvetica,sans-Serif" font-size="10.00"> </text>
<polyline fill="none" stroke="black" points="763.24,-107.5 870.24,-107.5 "/>
<text text-anchor="start" x="771.24" y="-95.5" font-family="Helvetica,sans-Serif" font-size="10.00">+ Modulator()</text>
<text text-anchor="start" x="771.24" y="-84.5" font-family="Helvetica,sans-Serif" font-size="10.00">+ ~Modulator()</text>
<text text-anchor="start" x="771.24" y="-73.5" font-family="Helvetica,sans-Serif" font-size="10.00">+ encodeString()</text>
<text text-anchor="start" x="771.24" y="-62.5" font-family="Helvetica,sans-Serif" font-size="10.00">&#45; addPostamble()</text>
<text text-anchor="start" x="771.24" y="-51.5" font-family="Helvetica,sans-Serif" font-size="10.00">&#45; addPreamble()</text>
<text text-anchor="start" x="771.24" y="-40.5" font-family="Helvetica,sans-Serif" font-size="10.00">&#45; addSymbol()</text>
<text text-anchor="start" x="771.24" y="-29.5" font-family="Helvetica,sans-Serif" font-size="10.00">&#45; addVaricode()</text>
<text text-anchor="start" x="771.24" y="-18.5" font-family="Helvetica,sans-Serif" font-size="10.00">&#45; encodeBpsk()</text>
<text text-anchor="start" x="771.24" y="-7.5" font-family="Helvetica,sans-Serif" font-size="10.00">&#45; encodeQpsk()</text>
</a>
</g>
</g>
<!-- Node2 -->
<g id="node2" class="node">
<title>Node2</title>
<g id="a_node2"><a xlink:href="classsignal__easel_1_1Modulator.html" target="_top" xlink:title="The abstract base class for all modulators that turn data into audio.">
<polygon fill="none" stroke="black" points="172.74,-221 172.74,-377 324.74,-377 324.74,-221 172.74,-221"/>
<text text-anchor="middle" x="248.74" y="-365" font-family="Helvetica,sans-Serif" font-size="10.00">signal_easel::Modulator</text>
<polyline fill="none" stroke="black" points="172.74,-358 324.74,-358 "/>
<text text-anchor="middle" x="248.74" y="-346" font-family="Helvetica,sans-Serif" font-size="10.00"> </text>
<polyline fill="none" stroke="black" points="172.74,-339 324.74,-339 "/>
<text text-anchor="start" x="180.74" y="-327" font-family="Helvetica,sans-Serif" font-size="10.00">+ Modulator()</text>
<text text-anchor="start" x="180.74" y="-316" font-family="Helvetica,sans-Serif" font-size="10.00">+ ~Modulator()</text>
<text text-anchor="start" x="180.74" y="-305" font-family="Helvetica,sans-Serif" font-size="10.00">+ clearBuffer()</text>
<text text-anchor="start" x="180.74" y="-294" font-family="Helvetica,sans-Serif" font-size="10.00">+ writeToFile()</text>
<text text-anchor="start" x="180.74" y="-283" font-family="Helvetica,sans-Serif" font-size="10.00">+ writeToPulseAudio()</text>
<text text-anchor="start" x="180.74" y="-272" font-family="Helvetica,sans-Serif" font-size="10.00"># addAudioSample()</text>
<text text-anchor="start" x="180.74" y="-261" font-family="Helvetica,sans-Serif" font-size="10.00"># addAudioSampleDouble()</text>
<text text-anchor="start" x="180.74" y="-250" font-family="Helvetica,sans-Serif" font-size="10.00"># addSilence()</text>
<text text-anchor="start" x="180.74" y="-239" font-family="Helvetica,sans-Serif" font-size="10.00"># addSineWave()</text>
<text text-anchor="start" x="180.74" y="-228" font-family="Helvetica,sans-Serif" font-size="10.00">&#45; addMorseCode()</text>
</a>
</g>
</g>
<!-- Node2&#45;&gt;Node1 -->
<g id="edge1" class="edge">
<title>Node2&#45;&gt;Node1</title>
<path fill="none" stroke="midnightblue" d="M334.2,-265.13C452.98,-219.43 664.49,-138.07 763.22,-100.09"/>
<polygon fill="none" stroke="midnightblue" points="332.83,-261.9 324.76,-268.76 335.35,-268.44 332.83,-261.9"/>
</g>
<!-- Node3 -->
<g id="node3" class="node">
<title>Node3</title>
<g id="a_node3"><a xlink:href="structsignal__easel_1_1Settings.html" target="_top" xlink:title="The universal settings for MWAV.">
<polygon fill="none" stroke="black" points="328.24,-474.5 328.24,-531.5 451.24,-531.5 451.24,-474.5 328.24,-474.5"/>
<text text-anchor="middle" x="389.74" y="-519.5" font-family="Helvetica,sans-Serif" font-size="10.00">signal_easel::Settings</text>
<polyline fill="none" stroke="black" points="328.24,-512.5 451.24,-512.5 "/>
<text text-anchor="middle" x="389.74" y="-500.5" font-family="Helvetica,sans-Serif" font-size="10.00"> </text>
<polyline fill="none" stroke="black" points="328.24,-493.5 451.24,-493.5 "/>
<text text-anchor="middle" x="389.74" y="-481.5" font-family="Helvetica,sans-Serif" font-size="10.00"> </text>
</a>
</g>
</g>
<!-- Node3&#45;&gt;Node2 -->
<g id="edge2" class="edge">
<title>Node3&#45;&gt;Node2</title>
<path fill="none" stroke="#404040" d="M368.4,-474.45C363.83,-468.41 359.08,-462.03 354.74,-456 338.91,-433.99 322.22,-409.89 306.9,-387.36"/>
<polygon fill="none" stroke="#404040" points="306.7,-387.07 300.02,-384.35 299.96,-377.14 306.64,-379.85 306.7,-387.07"/>
<text text-anchor="middle" x="382.74" y="-431.5" font-family="Helvetica,sans-Serif" font-size="10.00"> #settings_</text>
</g>
<!-- Node8 -->
<g id="node8" class="node">
<title>Node8</title>
<g id="a_node8"><a xlink:href="structsignal__easel_1_1psk_1_1Settings.html" target="_top" xlink:title="Settings for PSK modulation.">
<polygon fill="none" stroke="black" points="538.24,-265 538.24,-333 645.24,-333 645.24,-265 538.24,-265"/>
<text text-anchor="start" x="546.24" y="-321" font-family="Helvetica,sans-Serif" font-size="10.00">signal_easel::psk::</text>
<text text-anchor="middle" x="591.74" y="-310" font-family="Helvetica,sans-Serif" font-size="10.00">Settings</text>
<polyline fill="none" stroke="black" points="538.24,-303 645.24,-303 "/>
<text text-anchor="middle" x="591.74" y="-291" font-family="Helvetica,sans-Serif" font-size="10.00"> </text>
<polyline fill="none" stroke="black" points="538.24,-284 645.24,-284 "/>
<text text-anchor="middle" x="591.74" y="-272" font-family="Helvetica,sans-Serif" font-size="10.00"> </text>
</a>
</g>
</g>
<!-- Node3&#45;&gt;Node8 -->
<g id="edge9" class="edge">
<title>Node3&#45;&gt;Node8</title>
<path fill="none" stroke="midnightblue" d="M424.63,-467.11C462.29,-429.45 521.81,-369.93 558.72,-333.02"/>
<polygon fill="none" stroke="midnightblue" points="422,-464.79 417.41,-474.34 426.95,-469.74 422,-464.79"/>
</g>
<!-- Node4 -->
<g id="node4" class="node">
<title>Node4</title>
<g id="a_node4"><a xlink:title=" ">
<polygon fill="none" stroke="black" points="357.74,-601.5 357.74,-658.5 401.74,-658.5 401.74,-601.5 357.74,-601.5"/>
<text text-anchor="middle" x="379.74" y="-646.5" font-family="Helvetica,sans-Serif" font-size="10.00">string</text>
<polyline fill="none" stroke="black" points="357.74,-639.5 401.74,-639.5 "/>
<text text-anchor="middle" x="379.74" y="-627.5" font-family="Helvetica,sans-Serif" font-size="10.00"> </text>
<polyline fill="none" stroke="black" points="357.74,-620.5 401.74,-620.5 "/>
<text text-anchor="middle" x="379.74" y="-608.5" font-family="Helvetica,sans-Serif" font-size="10.00"> </text>
</a>
</g>
</g>
<!-- Node4&#45;&gt;Node3 -->
<g id="edge3" class="edge">
<title>Node4&#45;&gt;Node3</title>
<path fill="none" stroke="#404040" d="M381.2,-601.19C382.07,-586.04 383.28,-566.98 384.74,-550 384.92,-547.96 385.11,-545.88 385.31,-543.77"/>
<polygon fill="none" stroke="#404040" points="385.32,-543.65 381.94,-537.28 386.53,-531.71 389.9,-538.08 385.32,-543.65"/>
<text text-anchor="middle" x="412.24" y="-564" font-family="Helvetica,sans-Serif" font-size="10.00"> +call_sign</text>
</g>
<!-- Node5 -->
<g id="node5" class="node">
<title>Node5</title>
<g id="a_node5"><a xlink:title=" ">
<polygon fill="none" stroke="black" points="420.24,-601.5 420.24,-658.5 503.24,-658.5 503.24,-601.5 420.24,-601.5"/>
<text text-anchor="middle" x="461.74" y="-646.5" font-family="Helvetica,sans-Serif" font-size="10.00">CallSignMode</text>
<polyline fill="none" stroke="black" points="420.24,-639.5 503.24,-639.5 "/>
<text text-anchor="middle" x="461.74" y="-627.5" font-family="Helvetica,sans-Serif" font-size="10.00"> </text>
<polyline fill="none" stroke="black" points="420.24,-620.5 503.24,-620.5 "/>
<text text-anchor="middle" x="461.74" y="-608.5" font-family="Helvetica,sans-Serif" font-size="10.00"> </text>
</a>
</g>
</g>
<!-- Node5&#45;&gt;Node3 -->
<g id="edge4" class="edge">
<title>Node5&#45;&gt;Node3</title>
<path fill="none" stroke="#404040" d="M457.88,-601.16C454.76,-585.29 449.26,-565.54 439.74,-550 437.8,-546.83 435.59,-543.75 433.19,-540.78"/>
<polygon fill="none" stroke="#404040" points="433.04,-540.62 426.06,-538.83 425.03,-531.69 432.01,-533.48 433.04,-540.62"/>
<text text-anchor="middle" x="496.74" y="-564" font-family="Helvetica,sans-Serif" font-size="10.00"> +call_sign_mode</text>
</g>
<!-- Node6 -->
<g id="node6" class="node">
<title>Node6</title>
<g id="a_node6"><a xlink:title=" ">
<polygon fill="none" stroke="black" points="185.74,-601.5 185.74,-658.5 235.74,-658.5 235.74,-601.5 185.74,-601.5"/>
<text text-anchor="middle" x="210.74" y="-646.5" font-family="Helvetica,sans-Serif" font-size="10.00">double</text>
<polyline fill="none" stroke="black" points="185.74,-639.5 235.74,-639.5 "/>
<text text-anchor="middle" x="210.74" y="-627.5" font-family="Helvetica,sans-Serif" font-size="10.00"> </text>
<polyline fill="none" stroke="black" points="185.74,-620.5 235.74,-620.5 "/>
<text text-anchor="middle" x="210.74" y="-608.5" font-family="Helvetica,sans-Serif" font-size="10.00"> </text>
</a>
</g>
</g>
<!-- Node6&#45;&gt;Node1 -->
<g id="edge18" class="edge">
<title>Node6&#45;&gt;Node1</title>
<path fill="none" stroke="#404040" d="M185.7,-618.78C137.31,-597.32 33.28,-542.29 5.74,-456 -33.86,-331.9 151.15,-211.8 163.74,-204 261.87,-143.19 605.38,-101.4 750.85,-86.03"/>
<polygon fill="none" stroke="#404040" points="751.12,-86 756.67,-81.4 763.06,-84.75 757.51,-89.35 751.12,-86"/>
<text text-anchor="middle" x="58.24" y="-437" font-family="Helvetica,sans-Serif" font-size="10.00"> &#45;angle_delta_</text>
<text text-anchor="middle" x="58.24" y="-426" font-family="Helvetica,sans-Serif" font-size="10.00">&#45;carrier_wave_angle_</text>
</g>
<!-- Node6&#45;&gt;Node2 -->
<g id="edge7" class="edge">
<title>Node6&#45;&gt;Node2</title>
<path fill="none" stroke="#404040" d="M211.73,-601.49C213.02,-570.45 215.74,-518.48 220.74,-474 223.86,-446.32 228.3,-416.33 232.72,-389.16"/>
<polygon fill="none" stroke="#404040" points="232.73,-389.15 229.76,-382.57 234.69,-377.31 237.65,-383.88 232.73,-389.15"/>
<text text-anchor="middle" x="270.24" y="-500.5" font-family="Helvetica,sans-Serif" font-size="10.00"> &#45;sine_wave_phase_</text>
</g>
<!-- Node6&#45;&gt;Node3 -->
<g id="edge5" class="edge">
<title>Node6&#45;&gt;Node3</title>
<path fill="none" stroke="#404040" d="M234.69,-601.37C249.88,-585 270.59,-564.65 291.74,-550 299.71,-544.48 308.44,-539.32 317.3,-534.6"/>
<polygon fill="none" stroke="#404040" points="317.45,-534.52 320.97,-528.23 328.14,-529.06 324.61,-535.35 317.45,-534.52"/>
<text text-anchor="middle" x="334.74" y="-575" font-family="Helvetica,sans-Serif" font-size="10.00"> +amplitude</text>
<text text-anchor="start" x="291.74" y="-564" font-family="Helvetica,sans-Serif" font-size="10.00">+call_sign_pause</text>
<text text-anchor="middle" x="334.74" y="-553" font-family="Helvetica,sans-Serif" font-size="10.00">_seconds</text>
</g>
<!-- Node7 -->
<g id="node7" class="node">
<title>Node7</title>
<g id="a_node7"><a xlink:title=" ">
<polygon fill="none" stroke="black" points="68.74,-474.5 68.74,-531.5 172.74,-531.5 172.74,-474.5 68.74,-474.5"/>
<text text-anchor="middle" x="120.74" y="-519.5" font-family="Helvetica,sans-Serif" font-size="10.00">vector&lt; int16_t &gt;</text>
<polyline fill="none" stroke="black" points="68.74,-512.5 172.74,-512.5 "/>
<text text-anchor="middle" x="120.74" y="-500.5" font-family="Helvetica,sans-Serif" font-size="10.00"> </text>
<polyline fill="none" stroke="black" points="68.74,-493.5 172.74,-493.5 "/>
<text text-anchor="middle" x="120.74" y="-481.5" font-family="Helvetica,sans-Serif" font-size="10.00"> </text>
</a>
</g>
</g>
<!-- Node7&#45;&gt;Node2 -->
<g id="edge6" class="edge">
<title>Node7&#45;&gt;Node2</title>
<path fill="none" stroke="#404040" d="M115.41,-474.35C113.17,-455.87 112.83,-431.46 121.74,-412 131.2,-391.37 146.5,-372.99 163.26,-357.39"/>
<polygon fill="none" stroke="#404040" points="163.72,-356.98 165.55,-350 172.7,-349.01 170.87,-355.99 163.72,-356.98"/>
<text text-anchor="middle" x="160.74" y="-431.5" font-family="Helvetica,sans-Serif" font-size="10.00"> #audio_buffer_</text>
</g>
<!-- Node8&#45;&gt;Node1 -->
<g id="edge8" class="edge">
<title>Node8&#45;&gt;Node1</title>
<path fill="none" stroke="#404040" d="M625.92,-264.81C659.89,-231.82 712.78,-180.46 754.27,-140.17"/>
<polygon fill="none" stroke="#404040" points="754.33,-140.11 755.85,-133.06 762.94,-131.75 761.42,-138.8 754.33,-140.11"/>
<text text-anchor="middle" x="742.74" y="-178" font-family="Helvetica,sans-Serif" font-size="10.00"> &#45;settings_</text>
</g>
<!-- Node9 -->
<g id="node9" class="node">
<title>Node9</title>
<g id="a_node9"><a xlink:title=" ">
<polygon fill="none" stroke="black" points="469.74,-474.5 469.74,-531.5 513.74,-531.5 513.74,-474.5 469.74,-474.5"/>
<text text-anchor="middle" x="491.74" y="-519.5" font-family="Helvetica,sans-Serif" font-size="10.00">Mode</text>
<polyline fill="none" stroke="black" points="469.74,-512.5 513.74,-512.5 "/>
<text text-anchor="middle" x="491.74" y="-500.5" font-family="Helvetica,sans-Serif" font-size="10.00"> </text>
<polyline fill="none" stroke="black" points="469.74,-493.5 513.74,-493.5 "/>
<text text-anchor="middle" x="491.74" y="-481.5" font-family="Helvetica,sans-Serif" font-size="10.00"> </text>
</a>
</g>
</g>
<!-- Node9&#45;&gt;Node8 -->
<g id="edge10" class="edge">
<title>Node9&#45;&gt;Node8</title>
<path fill="none" stroke="#404040" d="M494.15,-474.29C496.48,-455.99 501.01,-431.83 509.74,-412 520.67,-387.17 537.85,-362.52 553.66,-342.69"/>
<polygon fill="none" stroke="#404040" points="553.69,-342.66 554.39,-335.48 561.28,-333.37 560.58,-340.54 553.69,-342.66"/>
<text text-anchor="middle" x="529.74" y="-431.5" font-family="Helvetica,sans-Serif" font-size="10.00"> +mode</text>
</g>
<!-- Node10 -->
<g id="node10" class="node">
<title>Node10</title>
<g id="a_node10"><a xlink:title=" ">
<polygon fill="none" stroke="black" points="531.74,-474.5 531.74,-531.5 607.74,-531.5 607.74,-474.5 531.74,-474.5"/>
<text text-anchor="middle" x="569.74" y="-519.5" font-family="Helvetica,sans-Serif" font-size="10.00">SymbolRate</text>
<polyline fill="none" stroke="black" points="531.74,-512.5 607.74,-512.5 "/>
<text text-anchor="middle" x="569.74" y="-500.5" font-family="Helvetica,sans-Serif" font-size="10.00"> </text>
<polyline fill="none" stroke="black" points="531.74,-493.5 607.74,-493.5 "/>
<text text-anchor="middle" x="569.74" y="-481.5" font-family="Helvetica,sans-Serif" font-size="10.00"> </text>
</a>
</g>
</g>
<!-- Node10&#45;&gt;Node8 -->
<g id="edge11" class="edge">
<title>Node10&#45;&gt;Node8</title>
<path fill="none" stroke="#404040" d="M559.81,-474.08C558.12,-468.18 556.63,-461.94 555.74,-456 550.08,-417.97 561.05,-375.49 572.33,-344.47"/>
<polygon fill="none" stroke="#404040" points="572.36,-344.4 570.76,-337.36 576.63,-333.18 578.24,-340.21 572.36,-344.4"/>
<text text-anchor="middle" x="592.24" y="-431.5" font-family="Helvetica,sans-Serif" font-size="10.00"> +symbol_rate</text>
</g>
<!-- Node11 -->
<g id="node11" class="node">
<title>Node11</title>
<g id="a_node11"><a xlink:title=" ">
<polygon fill="none" stroke="black" points="826.74,-474.5 826.74,-531.5 882.74,-531.5 882.74,-474.5 826.74,-474.5"/>
<text text-anchor="middle" x="854.74" y="-519.5" font-family="Helvetica,sans-Serif" font-size="10.00">uint32_t</text>
<polyline fill="none" stroke="black" points="826.74,-512.5 882.74,-512.5 "/>
<text text-anchor="middle" x="854.74" y="-500.5" font-family="Helvetica,sans-Serif" font-size="10.00"> </text>
<polyline fill="none" stroke="black" points="826.74,-493.5 882.74,-493.5 "/>
<text text-anchor="middle" x="854.74" y="-481.5" font-family="Helvetica,sans-Serif" font-size="10.00"> </text>
</a>
</g>
</g>
<!-- Node11&#45;&gt;Node1 -->
<g id="edge20" class="edge">
<title>Node11&#45;&gt;Node1</title>
<path fill="none" stroke="#404040" d="M852.25,-474.28C846.76,-413.28 833.44,-265.17 824.77,-168.72"/>
<polygon fill="none" stroke="#404040" points="824.76,-168.59 820.24,-162.97 823.68,-156.64 828.2,-162.26 824.76,-168.59"/>
<text text-anchor="middle" x="902.74" y="-296.5" font-family="Helvetica,sans-Serif" font-size="10.00"> &#45;samples_per_symbol_</text>
</g>
<!-- Node11&#45;&gt;Node8 -->
<g id="edge12" class="edge">
<title>Node11&#45;&gt;Node8</title>
<path fill="none" stroke="#404040" d="M826.53,-494.97C802.66,-488 768.48,-475.5 743.74,-456 724.75,-441.03 727.77,-430.11 711.74,-412 689.67,-387.05 662.73,-361.53 639.98,-341.17"/>
<polygon fill="none" stroke="#404040" points="639.81,-341.02 632.67,-340.04 630.84,-333.06 637.98,-334.05 639.81,-341.02"/>
<text text-anchor="middle" x="792.24" y="-442.5" font-family="Helvetica,sans-Serif" font-size="10.00"> +carrier_frequency</text>
<text text-anchor="middle" x="792.24" y="-431.5" font-family="Helvetica,sans-Serif" font-size="10.00">+postamble_length</text>
<text text-anchor="middle" x="792.24" y="-420.5" font-family="Helvetica,sans-Serif" font-size="10.00">+preamble_length</text>
</g>
<!-- Node13 -->
<g id="node13" class="node">
<title>Node13</title>
<g id="a_node13"><a xlink:href="classsignal__easel_1_1BitStream.html" target="_top" xlink:title=" ">
<polygon fill="none" stroke="black" points="989.24,-204.5 989.24,-393.5 1136.24,-393.5 1136.24,-204.5 989.24,-204.5"/>
<text text-anchor="middle" x="1062.74" y="-381.5" font-family="Helvetica,sans-Serif" font-size="10.00">signal_easel::BitStream</text>
<polyline fill="none" stroke="black" points="989.24,-374.5 1136.24,-374.5 "/>
<text text-anchor="middle" x="1062.74" y="-362.5" font-family="Helvetica,sans-Serif" font-size="10.00"> </text>
<polyline fill="none" stroke="black" points="989.24,-355.5 1136.24,-355.5 "/>
<text text-anchor="start" x="997.24" y="-343.5" font-family="Helvetica,sans-Serif" font-size="10.00">+ addBits()</text>
<text text-anchor="start" x="997.24" y="-332.5" font-family="Helvetica,sans-Serif" font-size="10.00">+ addOneBit()</text>
<text text-anchor="start" x="997.24" y="-321.5" font-family="Helvetica,sans-Serif" font-size="10.00">+ addZeroBit()</text>
<text text-anchor="start" x="997.24" y="-310.5" font-family="Helvetica,sans-Serif" font-size="10.00">+ clear()</text>
<text text-anchor="start" x="997.24" y="-299.5" font-family="Helvetica,sans-Serif" font-size="10.00">+ dumpBitStream()</text>
<text text-anchor="start" x="997.24" y="-288.5" font-family="Helvetica,sans-Serif" font-size="10.00">+ dumpBitStreamAsAscii()</text>
<text text-anchor="start" x="997.24" y="-277.5" font-family="Helvetica,sans-Serif" font-size="10.00">+ dumpBitStreamAsHex()</text>
<text text-anchor="start" x="997.24" y="-266.5" font-family="Helvetica,sans-Serif" font-size="10.00">+ getBitStreamLength()</text>
<text text-anchor="start" x="997.24" y="-255.5" font-family="Helvetica,sans-Serif" font-size="10.00">+ getBitVector()</text>
<text text-anchor="start" x="997.24" y="-244.5" font-family="Helvetica,sans-Serif" font-size="10.00">+ peakNextBit()</text>
<text text-anchor="start" x="997.24" y="-233.5" font-family="Helvetica,sans-Serif" font-size="10.00">+ peakNextByte()</text>
<text text-anchor="start" x="997.24" y="-222.5" font-family="Helvetica,sans-Serif" font-size="10.00">+ popNextBit()</text>
<text text-anchor="start" x="997.24" y="-211.5" font-family="Helvetica,sans-Serif" font-size="10.00">+ pushBufferToBitStream()</text>
</a>
</g>
</g>
<!-- Node11&#45;&gt;Node13 -->
<g id="edge17" class="edge">
<title>Node11&#45;&gt;Node13</title>
<path fill="none" stroke="#404040" d="M862.73,-474.4C869.97,-454.21 882.64,-427.69 902.74,-412 928.74,-391.7 946.31,-410.72 974.74,-394 976.13,-393.19 977.5,-392.35 978.86,-391.48"/>
<polygon fill="none" stroke="#404040" points="979.28,-391.19 981.93,-384.49 989.14,-384.36 986.49,-391.06 979.28,-391.19"/>
<text text-anchor="middle" x="952.24" y="-431.5" font-family="Helvetica,sans-Serif" font-size="10.00"> &#45;bit_stream_buffer_</text>
</g>
<!-- Node12 -->
<g id="node12" class="node">
<title>Node12</title>
<g id="a_node12"><a xlink:title=" ">
<polygon fill="none" stroke="black" points="631.74,-474.5 631.74,-531.5 669.74,-531.5 669.74,-474.5 631.74,-474.5"/>
<text text-anchor="middle" x="650.74" y="-519.5" font-family="Helvetica,sans-Serif" font-size="10.00">bool</text>
<polyline fill="none" stroke="black" points="631.74,-512.5 669.74,-512.5 "/>
<text text-anchor="middle" x="650.74" y="-500.5" font-family="Helvetica,sans-Serif" font-size="10.00"> </text>
<polyline fill="none" stroke="black" points="631.74,-493.5 669.74,-493.5 "/>
<text text-anchor="middle" x="650.74" y="-481.5" font-family="Helvetica,sans-Serif" font-size="10.00"> </text>
</a>
</g>
</g>
<!-- Node12&#45;&gt;Node8 -->
<g id="edge13" class="edge">
<title>Node12&#45;&gt;Node8</title>
<path fill="none" stroke="#404040" d="M644.57,-474.28C640.44,-456.41 634.69,-432.72 628.74,-412 622.32,-389.62 614.31,-365.03 607.38,-344.61"/>
<polygon fill="none" stroke="#404040" points="607.33,-344.46 601.61,-340.08 603.45,-333.11 609.18,-337.49 607.33,-344.46"/>
<text text-anchor="middle" x="673.24" y="-431.5" font-family="Helvetica,sans-Serif" font-size="10.00"> +fldigi_mode</text>
</g>
<!-- Node13&#45;&gt;Node1 -->
<g id="edge14" class="edge">
<title>Node13&#45;&gt;Node1</title>
<path fill="none" stroke="#404040" d="M989.14,-217.69C984.34,-212.98 979.52,-208.38 974.74,-204 944.93,-176.62 909.73,-148.52 880.13,-125.95"/>
<polygon fill="none" stroke="#404040" points="879.88,-125.77 872.69,-125.33 870.32,-118.52 877.52,-118.96 879.88,-125.77"/>
<text text-anchor="middle" x="986.24" y="-178" font-family="Helvetica,sans-Serif" font-size="10.00"> &#45;bit_stream_</text>
</g>
<!-- Node14 -->
<g id="node14" class="node">
<title>Node14</title>
<g id="a_node14"><a xlink:title=" ">
<polygon fill="none" stroke="black" points="954.74,-474.5 954.74,-531.5 1064.74,-531.5 1064.74,-474.5 954.74,-474.5"/>
<text text-anchor="middle" x="1009.74" y="-519.5" font-family="Helvetica,sans-Serif" font-size="10.00">vector&lt; uint32_t &gt;</text>
<polyline fill="none" stroke="black" points="954.74,-512.5 1064.74,-512.5 "/>
<text text-anchor="middle" x="1009.74" y="-500.5" font-family="Helvetica,sans-Serif" font-size="10.00"> </text>
<polyline fill="none" stroke="black" points="954.74,-493.5 1064.74,-493.5 "/>
<text text-anchor="middle" x="1009.74" y="-481.5" font-family="Helvetica,sans-Serif" font-size="10.00"> </text>
</a>
</g>
</g>
<!-- Node14&#45;&gt;Node13 -->
<g id="edge15" class="edge">
<title>Node14&#45;&gt;Node13</title>
<path fill="none" stroke="#404040" d="M1007.08,-474.48C1006.06,-456.48 1006.08,-432.57 1010.74,-412 1011.24,-409.82 1011.78,-407.63 1012.36,-405.44"/>
<polygon fill="none" stroke="#404040" points="1012.43,-405.22 1010.3,-398.33 1015.84,-393.71 1017.97,-400.6 1012.43,-405.22"/>
<text text-anchor="middle" x="1043.24" y="-431.5" font-family="Helvetica,sans-Serif" font-size="10.00"> &#45;bit_stream_</text>
</g>
<!-- Node15 -->
<g id="node15" class="node">
<title>Node15</title>
<g id="a_node15"><a xlink:title=" ">
<polygon fill="none" stroke="black" points="1139.24,-474.5 1139.24,-531.5 1168.24,-531.5 1168.24,-474.5 1139.24,-474.5"/>
<text text-anchor="middle" x="1153.74" y="-519.5" font-family="Helvetica,sans-Serif" font-size="10.00">int</text>
<polyline fill="none" stroke="black" points="1139.24,-512.5 1168.24,-512.5 "/>
<text text-anchor="middle" x="1153.74" y="-500.5" font-family="Helvetica,sans-Serif" font-size="10.00"> </text>
<polyline fill="none" stroke="black" points="1139.24,-493.5 1168.24,-493.5 "/>
<text text-anchor="middle" x="1153.74" y="-481.5" font-family="Helvetica,sans-Serif" font-size="10.00"> </text>
</a>
</g>
</g>
<!-- Node15&#45;&gt;Node1 -->
<g id="edge19" class="edge">
<title>Node15&#45;&gt;Node1</title>
<path fill="none" stroke="#404040" d="M1168.43,-490.92C1178.22,-482.55 1190.27,-470.12 1195.74,-456 1225.21,-380.02 1217.78,-285.73 1145.74,-204 1077.84,-126.97 957.21,-97.42 882.41,-86.21"/>
<polygon fill="none" stroke="#404040" points="882.24,-86.18 875.74,-89.3 870.36,-84.5 876.86,-81.38 882.24,-86.18"/>
<text text-anchor="middle" x="1279.24" y="-296.5" font-family="Helvetica,sans-Serif" font-size="10.00"> &#45;last_symbol_end_filtered_</text>
</g>
<!-- Node15&#45;&gt;Node13 -->
<g id="edge16" class="edge">
<title>Node15&#45;&gt;Node13</title>
<path fill="none" stroke="#404040" d="M1138.79,-493.38C1126.18,-485.32 1108.64,-472.13 1098.74,-456 1089.32,-440.65 1082.36,-423.07 1077.22,-405.38"/>
<polygon fill="none" stroke="#404040" points="1077.21,-405.35 1071.79,-400.6 1074.1,-393.76 1079.52,-398.52 1077.21,-405.35"/>
<text text-anchor="middle" x="1147.24" y="-448" font-family="Helvetica,sans-Serif" font-size="10.00"> &#45;bit_stream_index_</text>
<text text-anchor="start" x="1098.74" y="-437" font-family="Helvetica,sans-Serif" font-size="10.00">&#45;bit_stream_length</text>
<text text-anchor="middle" x="1147.24" y="-426" font-family="Helvetica,sans-Serif" font-size="10.00">_</text>
<text text-anchor="middle" x="1147.24" y="-415" font-family="Helvetica,sans-Serif" font-size="10.00">&#45;bit_stream_offset_</text>
</g>
</g>
</svg>
