<?xml version="1.0" encoding="UTF-8" standalone="no"?>
<!DOCTYPE svg PUBLIC "-//W3C//DTD SVG 1.1//EN"
 "http://www.w3.org/Graphics/SVG/1.1/DTD/svg11.dtd">
<!-- Generated by graphviz version 2.43.0 (0)
 -->
<!-- Title: signal_easel::aprs::Modulator::encodeMessagePacket Pages: 1 -->
<svg width="1429pt" height="421pt"
 viewBox="0.00 0.00 1429.00 420.50" xmlns="http://www.w3.org/2000/svg" xmlns:xlink="http://www.w3.org/1999/xlink">
<g id="graph0" class="graph" transform="scale(1 1) rotate(0) translate(4 416.5)">
<title>signal_easel::aprs::Modulator::encodeMessagePacket</title>
<!-- Node1 -->
<g id="node1" class="node">
<title>Node1</title>
<g id="a_node1"><a xlink:title=" ">
<polygon fill="#bfbfbf" stroke="black" points="0,-188 0,-229 157,-229 157,-188 0,-188"/>
<text text-anchor="start" x="8" y="-217" font-family="Helvetica,sans-Serif" font-size="10.00">signal_easel::aprs</text>
<text text-anchor="start" x="8" y="-206" font-family="Helvetica,sans-Serif" font-size="10.00">::Modulator::encodeMessage</text>
<text text-anchor="middle" x="78.5" y="-195" font-family="Helvetica,sans-Serif" font-size="10.00">Packet</text>
</a>
</g>
</g>
<!-- Node2 -->
<g id="node2" class="node">
<title>Node2</title>
<g id="a_node2"><a xlink:href="structsignal__easel_1_1aprs_1_1MessagePacket.html#a2384b4285118df9fdcbd506a8332dc91" target="_top" xlink:title=" ">
<polygon fill="none" stroke="black" points="198.5,-215.5 198.5,-245.5 337.5,-245.5 337.5,-215.5 198.5,-215.5"/>
<text text-anchor="start" x="206.5" y="-233.5" font-family="Helvetica,sans-Serif" font-size="10.00">signal_easel::aprs</text>
<text text-anchor="middle" x="268" y="-222.5" font-family="Helvetica,sans-Serif" font-size="10.00">::MessagePacket::encode</text>
</a>
</g>
</g>
<!-- Node1&#45;&gt;Node2 -->
<g id="edge1" class="edge">
<title>Node1&#45;&gt;Node2</title>
<path fill="none" stroke="midnightblue" d="M157.12,-217.61C167.39,-218.81 177.94,-220.05 188.23,-221.26"/>
<polygon fill="midnightblue" stroke="midnightblue" points="188.09,-224.76 198.43,-222.45 188.9,-217.81 188.09,-224.76"/>
</g>
<!-- Node3 -->
<g id="node3" class="node">
<title>Node3</title>
<g id="a_node3"><a xlink:href="namespacesignal__easel.html#aad3ffdd47a4a03ed438e8c1ca9eef231" target="_top" xlink:title=" ">
<polygon fill="none" stroke="black" points="193,-177 193,-196 343,-196 343,-177 193,-177"/>
<text text-anchor="middle" x="268" y="-184" font-family="Helvetica,sans-Serif" font-size="10.00">signal_easel::encodePacket</text>
</a>
</g>
</g>
<!-- Node1&#45;&gt;Node3 -->
<g id="edge2" class="edge">
<title>Node1&#45;&gt;Node3</title>
<path fill="none" stroke="midnightblue" d="M157.12,-199.39C165.59,-198.4 174.24,-197.38 182.79,-196.38"/>
<polygon fill="midnightblue" stroke="midnightblue" points="183.23,-199.85 192.76,-195.21 182.42,-192.9 183.23,-199.85"/>
</g>
<!-- Node4 -->
<g id="node4" class="node">
<title>Node4</title>
<g id="a_node4"><a xlink:href="namespacesignal__easel.html#ada24f00bb5d1a1bb97976967185c7526" target="_top" xlink:title=" ">
<polygon fill="none" stroke="black" points="546,-338.5 546,-368.5 692,-368.5 692,-338.5 546,-338.5"/>
<text text-anchor="start" x="554" y="-356.5" font-family="Helvetica,sans-Serif" font-size="10.00">signal_easel::AddRequired</text>
<text text-anchor="middle" x="619" y="-345.5" font-family="Helvetica,sans-Serif" font-size="10.00">Fields</text>
</a>
</g>
</g>
<!-- Node3&#45;&gt;Node4 -->
<g id="edge3" class="edge">
<title>Node3&#45;&gt;Node4</title>
<path fill="none" stroke="midnightblue" d="M313.38,-196.03C323.27,-198.67 333.61,-201.83 343,-205.5 435.23,-241.54 535.83,-301.48 585.91,-332.88"/>
<polygon fill="midnightblue" stroke="midnightblue" points="584.34,-336.03 594.66,-338.4 588.07,-330.1 584.34,-336.03"/>
</g>
<!-- Node12 -->
<g id="node12" class="node">
<title>Node12</title>
<g id="a_node12"><a xlink:href="classsignal__easel_1_1ax25_1_1Frame.html#a2b4f6ebcb7592a7e5a21114c8fafa503" target="_top" xlink:title="A step beyond buildFrame. This function builds the frame, does the bit stuffing, adds the flags,...">
<polygon fill="none" stroke="black" points="382,-171.5 382,-201.5 507,-201.5 507,-171.5 382,-171.5"/>
<text text-anchor="start" x="390" y="-189.5" font-family="Helvetica,sans-Serif" font-size="10.00">signal_easel::ax25</text>
<text text-anchor="middle" x="444.5" y="-178.5" font-family="Helvetica,sans-Serif" font-size="10.00">::Frame::encodeFrame</text>
</a>
</g>
</g>
<!-- Node3&#45;&gt;Node12 -->
<g id="edge12" class="edge">
<title>Node3&#45;&gt;Node12</title>
<path fill="none" stroke="midnightblue" d="M343,-186.5C352.49,-186.5 362.18,-186.5 371.63,-186.5"/>
<polygon fill="midnightblue" stroke="midnightblue" points="371.76,-190 381.76,-186.5 371.76,-183 371.76,-190"/>
</g>
<!-- Node26 -->
<g id="node26" class="node">
<title>Node26</title>
<g id="a_node26"><a xlink:href="classsignal__easel_1_1ax25_1_1Frame.html#afc5c722b419621f2a4dccbe2208faea1" target="_top" xlink:title=" ">
<polygon fill="none" stroke="black" points="379,-122.5 379,-152.5 510,-152.5 510,-122.5 379,-122.5"/>
<text text-anchor="start" x="387" y="-140.5" font-family="Helvetica,sans-Serif" font-size="10.00">signal_easel::ax25</text>
<text text-anchor="middle" x="444.5" y="-129.5" font-family="Helvetica,sans-Serif" font-size="10.00">::Frame::setInformation</text>
</a>
</g>
</g>
<!-- Node3&#45;&gt;Node26 -->
<g id="edge30" class="edge">
<title>Node3&#45;&gt;Node26</title>
<path fill="none" stroke="midnightblue" d="M303.06,-176.94C324.96,-170.79 354.09,-162.61 380.14,-155.29"/>
<polygon fill="midnightblue" stroke="midnightblue" points="381.27,-158.61 389.95,-152.54 379.38,-151.87 381.27,-158.61"/>
</g>
<!-- Node5 -->
<g id="node5" class="node">
<title>Node5</title>
<g id="a_node5"><a xlink:href="namespacesignal__easel.html#ac803523134c5f20bcc98143397f8ff5d" target="_top" xlink:title=" ">
<polygon fill="none" stroke="black" points="729,-393 729,-412 897,-412 897,-393 729,-393"/>
<text text-anchor="middle" x="813" y="-400" font-family="Helvetica,sans-Serif" font-size="10.00">signal_easel::CheckPacketData</text>
</a>
</g>
</g>
<!-- Node4&#45;&gt;Node5 -->
<g id="edge4" class="edge">
<title>Node4&#45;&gt;Node5</title>
<path fill="none" stroke="midnightblue" d="M674.86,-368.56C691.87,-373.14 710.69,-378.12 728,-382.5 738.68,-385.21 750.15,-388.01 761.08,-390.62"/>
<polygon fill="midnightblue" stroke="midnightblue" points="760.39,-394.06 770.93,-392.97 762.01,-387.25 760.39,-394.06"/>
</g>
<!-- Node6 -->
<g id="node6" class="node">
<title>Node6</title>
<g id="a_node6"><a xlink:href="classsignal__easel_1_1ax25_1_1Frame.html#a57b163ece54317da8d95f3b18b47c23d" target="_top" xlink:title="setters/getters for the frame.">
<polygon fill="none" stroke="black" points="728,-343.5 728,-373.5 898,-373.5 898,-343.5 728,-343.5"/>
<text text-anchor="start" x="736" y="-361.5" font-family="Helvetica,sans-Serif" font-size="10.00">signal_easel::ax25</text>
<text text-anchor="middle" x="813" y="-350.5" font-family="Helvetica,sans-Serif" font-size="10.00">::Frame::setDestinationAddress</text>
</a>
</g>
</g>
<!-- Node4&#45;&gt;Node6 -->
<g id="edge5" class="edge">
<title>Node4&#45;&gt;Node6</title>
<path fill="none" stroke="midnightblue" d="M692.04,-355.38C700.45,-355.6 709.13,-355.82 717.78,-356.05"/>
<polygon fill="midnightblue" stroke="midnightblue" points="717.83,-359.55 727.92,-356.31 718.01,-352.55 717.83,-359.55"/>
</g>
<!-- Node11 -->
<g id="node11" class="node">
<title>Node11</title>
<g id="a_node11"><a xlink:href="classsignal__easel_1_1ax25_1_1Frame.html#a402d26a81f82bb5c477e8930b75a771e" target="_top" xlink:title=" ">
<polygon fill="none" stroke="black" points="740,-294.5 740,-324.5 886,-324.5 886,-294.5 740,-294.5"/>
<text text-anchor="start" x="748" y="-312.5" font-family="Helvetica,sans-Serif" font-size="10.00">signal_easel::ax25</text>
<text text-anchor="middle" x="813" y="-301.5" font-family="Helvetica,sans-Serif" font-size="10.00">::Frame::setSourceAddress</text>
</a>
</g>
</g>
<!-- Node4&#45;&gt;Node11 -->
<g id="edge10" class="edge">
<title>Node4&#45;&gt;Node11</title>
<path fill="none" stroke="midnightblue" d="M685.54,-338.48C701.98,-334.71 719.74,-330.64 736.62,-326.78"/>
<polygon fill="midnightblue" stroke="midnightblue" points="737.47,-330.17 746.43,-324.53 735.9,-323.35 737.47,-330.17"/>
</g>
<!-- Node7 -->
<g id="node7" class="node">
<title>Node7</title>
<g id="a_node7"><a xlink:href="classsignal__easel_1_1ax25_1_1Address.html#a7fa6b0ef4241413893f201660991e4ea" target="_top" xlink:title="Checks if the address is valid, if not throws an exception with a specific error code.">
<polygon fill="none" stroke="black" points="934,-291.5 934,-321.5 1064,-321.5 1064,-291.5 934,-291.5"/>
<text text-anchor="start" x="942" y="-309.5" font-family="Helvetica,sans-Serif" font-size="10.00">signal_easel::ax25</text>
<text text-anchor="middle" x="999" y="-298.5" font-family="Helvetica,sans-Serif" font-size="10.00">::Address::assertIsValid</text>
</a>
</g>
</g>
<!-- Node6&#45;&gt;Node7 -->
<g id="edge6" class="edge">
<title>Node6&#45;&gt;Node7</title>
<path fill="none" stroke="midnightblue" d="M867.22,-343.46C888.49,-337.45 913.13,-330.48 935.26,-324.23"/>
<polygon fill="midnightblue" stroke="midnightblue" points="936.23,-327.59 944.9,-321.51 934.32,-320.86 936.23,-327.59"/>
</g>
<!-- Node8 -->
<g id="node8" class="node">
<title>Node8</title>
<g id="a_node8"><a xlink:href="classsignal__easel_1_1ax25_1_1Address.html#af34b361f739b7995e7816b7a04465828" target="_top" xlink:title=" ">
<polygon fill="none" stroke="black" points="1100,-286 1100,-327 1265,-327 1265,-286 1100,-286"/>
<text text-anchor="start" x="1108" y="-315" font-family="Helvetica,sans-Serif" font-size="10.00">signal_easel::ax25</text>
<text text-anchor="start" x="1108" y="-304" font-family="Helvetica,sans-Serif" font-size="10.00">::Address::assertAddressString</text>
<text text-anchor="middle" x="1182.5" y="-293" font-family="Helvetica,sans-Serif" font-size="10.00">IsValid</text>
</a>
</g>
</g>
<!-- Node7&#45;&gt;Node8 -->
<g id="edge7" class="edge">
<title>Node7&#45;&gt;Node8</title>
<path fill="none" stroke="midnightblue" d="M1064.25,-306.5C1072.53,-306.5 1081.13,-306.5 1089.75,-306.5"/>
<polygon fill="midnightblue" stroke="midnightblue" points="1089.85,-310 1099.85,-306.5 1089.85,-303 1089.85,-310"/>
</g>
<!-- Node9 -->
<g id="node9" class="node">
<title>Node9</title>
<g id="a_node9"><a xlink:href="classsignal__easel_1_1ax25_1_1Address.html#a8b44c6e311d3462bd86eda03c1d384f0" target="_top" xlink:title=" ">
<polygon fill="none" stroke="black" points="1107.5,-233.5 1107.5,-263.5 1257.5,-263.5 1257.5,-233.5 1107.5,-233.5"/>
<text text-anchor="start" x="1115.5" y="-251.5" font-family="Helvetica,sans-Serif" font-size="10.00">signal_easel::ax25</text>
<text text-anchor="middle" x="1182.5" y="-240.5" font-family="Helvetica,sans-Serif" font-size="10.00">::Address::assertSsidIsValid</text>
</a>
</g>
</g>
<!-- Node7&#45;&gt;Node9 -->
<g id="edge8" class="edge">
<title>Node7&#45;&gt;Node9</title>
<path fill="none" stroke="midnightblue" d="M1047.21,-291.41C1070.95,-283.83 1099.9,-274.58 1124.83,-266.61"/>
<polygon fill="midnightblue" stroke="midnightblue" points="1126.06,-269.89 1134.52,-263.51 1123.93,-263.22 1126.06,-269.89"/>
</g>
<!-- Node10 -->
<g id="node10" class="node">
<title>Node10</title>
<g id="a_node10"><a xlink:href="classsignal__easel_1_1ax25_1_1Address.html#ad66c149737cc4aa52ae9e8860176acf3" target="_top" xlink:title=" ">
<polygon fill="none" stroke="black" points="1301,-208.5 1301,-238.5 1421,-238.5 1421,-208.5 1301,-208.5"/>
<text text-anchor="start" x="1309" y="-226.5" font-family="Helvetica,sans-Serif" font-size="10.00">signal_easel::ax25</text>
<text text-anchor="middle" x="1361" y="-215.5" font-family="Helvetica,sans-Serif" font-size="10.00">::Address::isSsidValid</text>
</a>
</g>
</g>
<!-- Node9&#45;&gt;Node10 -->
<g id="edge9" class="edge">
<title>Node9&#45;&gt;Node10</title>
<path fill="none" stroke="midnightblue" d="M1257.58,-238.01C1268.64,-236.44 1279.99,-234.83 1290.93,-233.28"/>
<polygon fill="midnightblue" stroke="midnightblue" points="1291.43,-236.75 1300.84,-231.88 1290.45,-229.82 1291.43,-236.75"/>
</g>
<!-- Node11&#45;&gt;Node7 -->
<g id="edge11" class="edge">
<title>Node11&#45;&gt;Node7</title>
<path fill="none" stroke="midnightblue" d="M886.19,-308.32C898.46,-308.12 911.23,-307.91 923.56,-307.71"/>
<polygon fill="midnightblue" stroke="midnightblue" points="923.85,-311.21 933.79,-307.55 923.73,-304.21 923.85,-311.21"/>
</g>
<!-- Node13 -->
<g id="node13" class="node">
<title>Node13</title>
<g id="a_node13"><a xlink:href="classsignal__easel_1_1BitStream.html#a9df75eb28c03717c9fad2d30a85de6e6" target="_top" xlink:title=" ">
<polygon fill="none" stroke="black" points="747,-245.5 747,-275.5 879,-275.5 879,-245.5 747,-245.5"/>
<text text-anchor="start" x="755" y="-263.5" font-family="Helvetica,sans-Serif" font-size="10.00">signal_easel::BitStream</text>
<text text-anchor="middle" x="813" y="-252.5" font-family="Helvetica,sans-Serif" font-size="10.00">::addBits</text>
</a>
</g>
</g>
<!-- Node12&#45;&gt;Node13 -->
<g id="edge13" class="edge">
<title>Node12&#45;&gt;Node13</title>
<path fill="none" stroke="midnightblue" d="M455.28,-201.76C471.09,-224.84 504.69,-267.69 546,-284.5 606.1,-308.95 627.43,-290.89 692,-284.5 707.26,-282.99 723.46,-280.42 738.85,-277.51"/>
<polygon fill="midnightblue" stroke="midnightblue" points="739.69,-280.92 748.83,-275.56 738.34,-274.05 739.69,-280.92"/>
</g>
<!-- Node14 -->
<g id="node14" class="node">
<title>Node14</title>
<g id="a_node14"><a xlink:href="classsignal__easel_1_1BitStream.html#a81d4aea4c11f65e0c2b7ad2f0f0cc312" target="_top" xlink:title=" ">
<polygon fill="none" stroke="black" points="553,-245.5 553,-275.5 685,-275.5 685,-245.5 553,-245.5"/>
<text text-anchor="start" x="561" y="-263.5" font-family="Helvetica,sans-Serif" font-size="10.00">signal_easel::BitStream</text>
<text text-anchor="middle" x="619" y="-252.5" font-family="Helvetica,sans-Serif" font-size="10.00">::addOneBit</text>
</a>
</g>
</g>
<!-- Node12&#45;&gt;Node14 -->
<g id="edge14" class="edge">
<title>Node12&#45;&gt;Node14</title>
<path fill="none" stroke="midnightblue" d="M474.11,-201.58C493.99,-211.78 521.26,-225.22 546,-235.5 551.32,-237.71 556.92,-239.9 562.54,-242"/>
<polygon fill="midnightblue" stroke="midnightblue" points="561.39,-245.3 571.98,-245.44 563.79,-238.73 561.39,-245.3"/>
</g>
<!-- Node15 -->
<g id="node15" class="node">
<title>Node15</title>
<g id="a_node15"><a xlink:href="classsignal__easel_1_1BitStream.html#abb315beec8c4d88115d9d4ec5f082863" target="_top" xlink:title=" ">
<polygon fill="none" stroke="black" points="553,-196.5 553,-226.5 685,-226.5 685,-196.5 553,-196.5"/>
<text text-anchor="start" x="561" y="-214.5" font-family="Helvetica,sans-Serif" font-size="10.00">signal_easel::BitStream</text>
<text text-anchor="middle" x="619" y="-203.5" font-family="Helvetica,sans-Serif" font-size="10.00">::addZeroBit</text>
</a>
</g>
</g>
<!-- Node12&#45;&gt;Node15 -->
<g id="edge16" class="edge">
<title>Node12&#45;&gt;Node15</title>
<path fill="none" stroke="midnightblue" d="M507.29,-195.45C518.84,-197.13 531.04,-198.9 542.94,-200.62"/>
<polygon fill="midnightblue" stroke="midnightblue" points="542.46,-204.09 552.86,-202.06 543.46,-197.16 542.46,-204.09"/>
</g>
<!-- Node16 -->
<g id="node16" class="node">
<title>Node16</title>
<g id="a_node16"><a xlink:href="classsignal__easel_1_1ax25_1_1Frame.html#a24e7d5ffc6504a3380e97142d1bc084e" target="_top" xlink:title="Builds all internal portions of the frame. Doesn&#39;t include the flags.">
<polygon fill="none" stroke="black" points="562,-147.5 562,-177.5 676,-177.5 676,-147.5 562,-147.5"/>
<text text-anchor="start" x="570" y="-165.5" font-family="Helvetica,sans-Serif" font-size="10.00">signal_easel::ax25</text>
<text text-anchor="middle" x="619" y="-154.5" font-family="Helvetica,sans-Serif" font-size="10.00">::Frame::buildFrame</text>
</a>
</g>
</g>
<!-- Node12&#45;&gt;Node16 -->
<g id="edge18" class="edge">
<title>Node12&#45;&gt;Node16</title>
<path fill="none" stroke="midnightblue" d="M507.29,-177.9C521.74,-175.89 537.19,-173.74 551.83,-171.71"/>
<polygon fill="midnightblue" stroke="midnightblue" points="552.39,-175.16 561.81,-170.32 551.42,-168.23 552.39,-175.16"/>
</g>
<!-- Node23 -->
<g id="node23" class="node">
<title>Node23</title>
<g id="a_node23"><a xlink:href="classsignal__easel_1_1BitStream.html#aa97152ef51f73088e103a7951134aa85" target="_top" xlink:title=" ">
<polygon fill="none" stroke="black" points="553,-98.5 553,-128.5 685,-128.5 685,-98.5 553,-98.5"/>
<text text-anchor="start" x="561" y="-116.5" font-family="Helvetica,sans-Serif" font-size="10.00">signal_easel::BitStream</text>
<text text-anchor="middle" x="619" y="-105.5" font-family="Helvetica,sans-Serif" font-size="10.00">::getBitStreamLength</text>
</a>
</g>
</g>
<!-- Node12&#45;&gt;Node23 -->
<g id="edge27" class="edge">
<title>Node12&#45;&gt;Node23</title>
<path fill="none" stroke="midnightblue" d="M488.41,-171.38C495.74,-168.38 503.18,-165.04 510,-161.5 527.07,-152.64 528.73,-145.95 546,-137.5 549.73,-135.68 553.63,-133.94 557.6,-132.29"/>
<polygon fill="midnightblue" stroke="midnightblue" points="558.93,-135.53 566.97,-128.62 556.38,-129.01 558.93,-135.53"/>
</g>
<!-- Node24 -->
<g id="node24" class="node">
<title>Node24</title>
<g id="a_node24"><a xlink:href="classsignal__easel_1_1BitStream.html#a5b5339586e09ca5c25a7e9ded0118ffb" target="_top" xlink:title="Returns the next bit of the bit stream that will be encoded.">
<polygon fill="none" stroke="black" points="553,-49.5 553,-79.5 685,-79.5 685,-49.5 553,-49.5"/>
<text text-anchor="start" x="561" y="-67.5" font-family="Helvetica,sans-Serif" font-size="10.00">signal_easel::BitStream</text>
<text text-anchor="middle" x="619" y="-56.5" font-family="Helvetica,sans-Serif" font-size="10.00">::popNextBit</text>
</a>
</g>
</g>
<!-- Node12&#45;&gt;Node24 -->
<g id="edge28" class="edge">
<title>Node12&#45;&gt;Node24</title>
<path fill="none" stroke="midnightblue" d="M495.95,-171.34C501.03,-168.57 505.84,-165.31 510,-161.5 536.68,-137.08 518.74,-112.28 546,-88.5 547.49,-87.2 549.05,-85.97 550.67,-84.81"/>
<polygon fill="midnightblue" stroke="midnightblue" points="552.55,-87.77 559.21,-79.53 548.86,-81.81 552.55,-87.77"/>
</g>
<!-- Node25 -->
<g id="node25" class="node">
<title>Node25</title>
<g id="a_node25"><a xlink:href="namespacesignal__easel_1_1ax25.html#a56c64a06f2dc7d2d270c32e1063400ae" target="_top" xlink:title="Reverse a byte.">
<polygon fill="none" stroke="black" points="565.5,-0.5 565.5,-30.5 672.5,-30.5 672.5,-0.5 565.5,-0.5"/>
<text text-anchor="start" x="573.5" y="-18.5" font-family="Helvetica,sans-Serif" font-size="10.00">signal_easel::ax25</text>
<text text-anchor="middle" x="619" y="-7.5" font-family="Helvetica,sans-Serif" font-size="10.00">::reverseByte</text>
</a>
</g>
</g>
<!-- Node12&#45;&gt;Node25 -->
<g id="edge29" class="edge">
<title>Node12&#45;&gt;Node25</title>
<path fill="none" stroke="midnightblue" d="M497.58,-171.46C502.17,-168.68 506.42,-165.39 510,-161.5 548.29,-119.9 506.73,-80.17 546,-39.5 549.04,-36.35 552.5,-33.62 556.22,-31.25"/>
<polygon fill="midnightblue" stroke="midnightblue" points="558.18,-34.17 565.3,-26.33 554.84,-28.01 558.18,-34.17"/>
</g>
<!-- Node14&#45;&gt;Node13 -->
<g id="edge15" class="edge">
<title>Node14&#45;&gt;Node13</title>
<path fill="none" stroke="midnightblue" d="M685,-260.5C701.49,-260.5 719.34,-260.5 736.31,-260.5"/>
<polygon fill="midnightblue" stroke="midnightblue" points="736.74,-264 746.74,-260.5 736.74,-257 736.74,-264"/>
</g>
<!-- Node15&#45;&gt;Node13 -->
<g id="edge17" class="edge">
<title>Node15&#45;&gt;Node13</title>
<path fill="none" stroke="midnightblue" d="M678.91,-226.53C699.28,-231.73 722.27,-237.6 743.35,-242.98"/>
<polygon fill="midnightblue" stroke="midnightblue" points="742.65,-246.41 753.2,-245.49 744.38,-239.63 742.65,-246.41"/>
</g>
<!-- Node17 -->
<g id="node17" class="node">
<title>Node17</title>
<g id="a_node17"><a xlink:href="namespacesignal__easel_1_1ax25.html#a6d799107f96d783e620cd508488ab8eb" target="_top" xlink:title="Calculate the Frame Check Sequence (FCS) on a vector of bytes.">
<polygon fill="none" stroke="black" points="759.5,-196.5 759.5,-226.5 866.5,-226.5 866.5,-196.5 759.5,-196.5"/>
<text text-anchor="start" x="767.5" y="-214.5" font-family="Helvetica,sans-Serif" font-size="10.00">signal_easel::ax25</text>
<text text-anchor="middle" x="813" y="-203.5" font-family="Helvetica,sans-Serif" font-size="10.00">::calculateFcs</text>
</a>
</g>
</g>
<!-- Node16&#45;&gt;Node17 -->
<g id="edge19" class="edge">
<title>Node16&#45;&gt;Node17</title>
<path fill="none" stroke="midnightblue" d="M676.05,-176.8C699,-182.66 725.67,-189.47 749.27,-195.49"/>
<polygon fill="midnightblue" stroke="midnightblue" points="748.62,-198.94 759.17,-198.02 750.35,-192.15 748.62,-198.94"/>
</g>
<!-- Node18 -->
<g id="node18" class="node">
<title>Node18</title>
<g id="a_node18"><a xlink:href="classsignal__easel_1_1ax25_1_1Address.html#a0c31737081a9184b56dc32150b23cb0a" target="_top" xlink:title="Get the address as a byte array.">
<polygon fill="none" stroke="black" points="742,-147.5 742,-177.5 884,-177.5 884,-147.5 742,-147.5"/>
<text text-anchor="start" x="750" y="-165.5" font-family="Helvetica,sans-Serif" font-size="10.00">signal_easel::ax25</text>
<text text-anchor="middle" x="813" y="-154.5" font-family="Helvetica,sans-Serif" font-size="10.00">::Address::encodeAddress</text>
</a>
</g>
</g>
<!-- Node16&#45;&gt;Node18 -->
<g id="edge20" class="edge">
<title>Node16&#45;&gt;Node18</title>
<path fill="none" stroke="midnightblue" d="M676.05,-162.5C693.5,-162.5 713.1,-162.5 731.86,-162.5"/>
<polygon fill="midnightblue" stroke="midnightblue" points="731.88,-166 741.88,-162.5 731.88,-159 731.88,-166"/>
</g>
<!-- Node19 -->
<g id="node19" class="node">
<title>Node19</title>
<g id="a_node19"><a xlink:href="classsignal__easel_1_1ax25_1_1Frame.html#a640edeabbda34e78cc243e3561747bf9" target="_top" xlink:title=" ">
<polygon fill="none" stroke="black" points="752,-98.5 752,-128.5 874,-128.5 874,-98.5 752,-98.5"/>
<text text-anchor="start" x="760" y="-116.5" font-family="Helvetica,sans-Serif" font-size="10.00">signal_easel::ax25</text>
<text text-anchor="middle" x="813" y="-105.5" font-family="Helvetica,sans-Serif" font-size="10.00">::Frame::isFrameValid</text>
</a>
</g>
</g>
<!-- Node16&#45;&gt;Node19 -->
<g id="edge22" class="edge">
<title>Node16&#45;&gt;Node19</title>
<path fill="none" stroke="midnightblue" d="M676.05,-148.2C697.07,-142.83 721.2,-136.67 743.24,-131.05"/>
<polygon fill="midnightblue" stroke="midnightblue" points="744.38,-134.37 753.21,-128.5 742.65,-127.59 744.38,-134.37"/>
</g>
<!-- Node22 -->
<g id="node22" class="node">
<title>Node22</title>
<g id="a_node22"><a xlink:href="classsignal__easel_1_1ax25_1_1Address.html#a1a5bc573535cfc1f8723c121e3451e7c" target="_top" xlink:title="Set the as the last address in the AX.25 frame (Sets a bit in the ssid byte)">
<polygon fill="none" stroke="black" points="738,-49.5 738,-79.5 888,-79.5 888,-49.5 738,-49.5"/>
<text text-anchor="start" x="746" y="-67.5" font-family="Helvetica,sans-Serif" font-size="10.00">signal_easel::ax25</text>
<text text-anchor="middle" x="813" y="-56.5" font-family="Helvetica,sans-Serif" font-size="10.00">::Address::setIsLastAddress</text>
</a>
</g>
</g>
<!-- Node16&#45;&gt;Node22 -->
<g id="edge26" class="edge">
<title>Node16&#45;&gt;Node22</title>
<path fill="none" stroke="midnightblue" d="M674.86,-147.45C680.92,-144.64 686.78,-141.35 692,-137.5 713.74,-121.46 705.82,-103.93 728,-88.5 730.26,-86.93 732.62,-85.46 735.05,-84.09"/>
<polygon fill="midnightblue" stroke="midnightblue" points="736.78,-87.14 744.15,-79.53 733.64,-80.88 736.78,-87.14"/>
</g>
<!-- Node18&#45;&gt;Node7 -->
<g id="edge21" class="edge">
<title>Node18&#45;&gt;Node7</title>
<path fill="none" stroke="midnightblue" d="M881.2,-177.67C887.09,-180.18 892.79,-183.11 898,-186.5 936.22,-211.39 967.38,-255.36 984.26,-282.61"/>
<polygon fill="midnightblue" stroke="midnightblue" points="981.46,-284.74 989.62,-291.49 987.45,-281.12 981.46,-284.74"/>
</g>
<!-- Node20 -->
<g id="node20" class="node">
<title>Node20</title>
<g id="a_node20"><a xlink:href="classsignal__easel_1_1ax25_1_1Address.html#aae81920cfd0dc7d89cb107f9d825488c" target="_top" xlink:title="If the address is valid (can be encoded correctly or was decoded)">
<polygon fill="none" stroke="black" points="945.5,-122.5 945.5,-152.5 1052.5,-152.5 1052.5,-122.5 945.5,-122.5"/>
<text text-anchor="start" x="953.5" y="-140.5" font-family="Helvetica,sans-Serif" font-size="10.00">signal_easel::ax25</text>
<text text-anchor="middle" x="999" y="-129.5" font-family="Helvetica,sans-Serif" font-size="10.00">::Address::isValid</text>
</a>
</g>
</g>
<!-- Node19&#45;&gt;Node20 -->
<g id="edge23" class="edge">
<title>Node19&#45;&gt;Node20</title>
<path fill="none" stroke="midnightblue" d="M874.25,-121.36C893.79,-123.91 915.52,-126.74 935.24,-129.31"/>
<polygon fill="midnightblue" stroke="midnightblue" points="934.99,-132.81 945.35,-130.63 935.89,-125.87 934.99,-132.81"/>
</g>
<!-- Node20&#45;&gt;Node10 -->
<g id="edge25" class="edge">
<title>Node20&#45;&gt;Node10</title>
<path fill="none" stroke="midnightblue" d="M1047.34,-152.54C1063.92,-157.59 1082.71,-163.05 1100,-167.5 1164.28,-184.04 1238.34,-199.66 1290.93,-210.18"/>
<polygon fill="midnightblue" stroke="midnightblue" points="1290.34,-213.63 1300.83,-212.15 1291.7,-206.76 1290.34,-213.63"/>
</g>
<!-- Node21 -->
<g id="node21" class="node">
<title>Node21</title>
<g id="a_node21"><a xlink:href="classsignal__easel_1_1ax25_1_1Address.html#a56c55b48bfc809a33aa0e22a5aeb95ca" target="_top" xlink:title=" ">
<polygon fill="none" stroke="black" points="1111,-117 1111,-158 1254,-158 1254,-117 1111,-117"/>
<text text-anchor="start" x="1119" y="-146" font-family="Helvetica,sans-Serif" font-size="10.00">signal_easel::ax25</text>
<text text-anchor="start" x="1119" y="-135" font-family="Helvetica,sans-Serif" font-size="10.00">::Address::isAddressString</text>
<text text-anchor="middle" x="1182.5" y="-124" font-family="Helvetica,sans-Serif" font-size="10.00">Valid</text>
</a>
</g>
</g>
<!-- Node20&#45;&gt;Node21 -->
<g id="edge24" class="edge">
<title>Node20&#45;&gt;Node21</title>
<path fill="none" stroke="midnightblue" d="M1052.99,-137.5C1067.98,-137.5 1084.64,-137.5 1100.87,-137.5"/>
<polygon fill="midnightblue" stroke="midnightblue" points="1100.89,-141 1110.89,-137.5 1100.89,-134 1100.89,-141"/>
</g>
</g>
</svg>
