<?xml version="1.0" encoding="UTF-8" standalone="no"?>
<!DOCTYPE svg PUBLIC "-//W3C//DTD SVG 1.1//EN"
 "http://www.w3.org/Graphics/SVG/1.1/DTD/svg11.dtd">
<!-- Generated by graphviz version 2.43.0 (0)
 -->
<!-- Title: signal_easel::ax25::Frame::parseBitStream Pages: 1 -->
<svg width="1074pt" height="464pt"
 viewBox="0.00 0.00 1074.00 463.50" xmlns="http://www.w3.org/2000/svg" xmlns:xlink="http://www.w3.org/1999/xlink">
<g id="graph0" class="graph" transform="scale(1 1) rotate(0) translate(4 459.5)">
<title>signal_easel::ax25::Frame::parseBitStream</title>
<!-- Node1 -->
<g id="node1" class="node">
<title>Node1</title>
<g id="a_node1"><a xlink:title="Attempt to parse an incoming bit stream into an AX.25 frame.">
<polygon fill="#bfbfbf" stroke="black" points="0,-179 0,-209 135,-209 135,-179 0,-179"/>
<text text-anchor="start" x="8" y="-197" font-family="Helvetica,sans-Serif" font-size="10.00">signal_easel::ax25</text>
<text text-anchor="middle" x="67.5" y="-186" font-family="Helvetica,sans-Serif" font-size="10.00">::Frame::parseBitStream</text>
</a>
</g>
</g>
<!-- Node2 -->
<g id="node2" class="node">
<title>Node2</title>
<g id="a_node2"><a xlink:href="namespacesignal__easel_1_1ax25.html#a84e1d1bf82ef828a150bc94cf065e396" target="_top" xlink:title="Convert a bit stream from NRZI to standard encoding.">
<polygon fill="none" stroke="black" points="400.5,-278 400.5,-308 507.5,-308 507.5,-278 400.5,-278"/>
<text text-anchor="start" x="408.5" y="-296" font-family="Helvetica,sans-Serif" font-size="10.00">signal_easel::ax25</text>
<text text-anchor="middle" x="454" y="-285" font-family="Helvetica,sans-Serif" font-size="10.00">::decodeNrzi</text>
</a>
</g>
</g>
<!-- Node1&#45;&gt;Node2 -->
<g id="edge1" class="edge">
<title>Node1&#45;&gt;Node2</title>
<path fill="none" stroke="midnightblue" d="M126.9,-209.04C197.93,-227.32 317.35,-258.07 390.28,-276.85"/>
<polygon fill="midnightblue" stroke="midnightblue" points="389.69,-280.31 400.25,-279.42 391.44,-273.53 389.69,-280.31"/>
</g>
<!-- Node9 -->
<g id="node9" class="node">
<title>Node9</title>
<g id="a_node9"><a xlink:href="classsignal__easel_1_1ax25_1_1Frame.html#a40b07872c291deee87c677459a27c21c" target="_top" xlink:title="Attempt to parse a single AX.25 frame from an already NRZI&#45;decoded bit stream. Unlike parseBitStream,...">
<polygon fill="none" stroke="black" points="171,-149.5 171,-190.5 333,-190.5 333,-149.5 171,-149.5"/>
<text text-anchor="start" x="179" y="-178.5" font-family="Helvetica,sans-Serif" font-size="10.00">signal_easel::ax25</text>
<text text-anchor="start" x="179" y="-167.5" font-family="Helvetica,sans-Serif" font-size="10.00">::Frame::parseNrziDecodedBit</text>
<text text-anchor="middle" x="252" y="-156.5" font-family="Helvetica,sans-Serif" font-size="10.00">Stream</text>
</a>
</g>
</g>
<!-- Node1&#45;&gt;Node9 -->
<g id="edge9" class="edge">
<title>Node1&#45;&gt;Node9</title>
<path fill="none" stroke="midnightblue" d="M135.16,-185.23C143.5,-184.14 152.14,-183 160.77,-181.87"/>
<polygon fill="midnightblue" stroke="midnightblue" points="161.42,-185.31 170.88,-180.54 160.5,-178.37 161.42,-185.31"/>
</g>
<!-- Node3 -->
<g id="node3" class="node">
<title>Node3</title>
<g id="a_node3"><a xlink:href="classsignal__easel_1_1BitStream.html#a81d4aea4c11f65e0c2b7ad2f0f0cc312" target="_top" xlink:title=" ">
<polygon fill="none" stroke="black" points="576,-376 576,-406 708,-406 708,-376 576,-376"/>
<text text-anchor="start" x="584" y="-394" font-family="Helvetica,sans-Serif" font-size="10.00">signal_easel::BitStream</text>
<text text-anchor="middle" x="642" y="-383" font-family="Helvetica,sans-Serif" font-size="10.00">::addOneBit</text>
</a>
</g>
</g>
<!-- Node2&#45;&gt;Node3 -->
<g id="edge2" class="edge">
<title>Node2&#45;&gt;Node3</title>
<path fill="none" stroke="midnightblue" d="M476.36,-308.03C499.78,-324.06 538.87,-349.52 575,-367 578.6,-368.74 582.36,-370.43 586.19,-372.06"/>
<polygon fill="midnightblue" stroke="midnightblue" points="585.17,-375.42 595.76,-375.94 587.81,-368.94 585.17,-375.42"/>
</g>
<!-- Node5 -->
<g id="node5" class="node">
<title>Node5</title>
<g id="a_node5"><a xlink:href="classsignal__easel_1_1BitStream.html#abb315beec8c4d88115d9d4ec5f082863" target="_top" xlink:title=" ">
<polygon fill="none" stroke="black" points="576,-425 576,-455 708,-455 708,-425 576,-425"/>
<text text-anchor="start" x="584" y="-443" font-family="Helvetica,sans-Serif" font-size="10.00">signal_easel::BitStream</text>
<text text-anchor="middle" x="642" y="-432" font-family="Helvetica,sans-Serif" font-size="10.00">::addZeroBit</text>
</a>
</g>
</g>
<!-- Node2&#45;&gt;Node5 -->
<g id="edge4" class="edge">
<title>Node2&#45;&gt;Node5</title>
<path fill="none" stroke="midnightblue" d="M466.24,-308.4C485.7,-334.06 528.13,-385.74 575,-416 577.45,-417.58 580.02,-419.08 582.66,-420.49"/>
<polygon fill="midnightblue" stroke="midnightblue" points="581.34,-423.74 591.86,-424.97 584.4,-417.44 581.34,-423.74"/>
</g>
<!-- Node6 -->
<g id="node6" class="node">
<title>Node6</title>
<g id="a_node6"><a xlink:href="classsignal__easel_1_1BitStream.html#aa97152ef51f73088e103a7951134aa85" target="_top" xlink:title=" ">
<polygon fill="none" stroke="black" points="576,-278 576,-308 708,-308 708,-278 576,-278"/>
<text text-anchor="start" x="584" y="-296" font-family="Helvetica,sans-Serif" font-size="10.00">signal_easel::BitStream</text>
<text text-anchor="middle" x="642" y="-285" font-family="Helvetica,sans-Serif" font-size="10.00">::getBitStreamLength</text>
</a>
</g>
</g>
<!-- Node2&#45;&gt;Node6 -->
<g id="edge6" class="edge">
<title>Node2&#45;&gt;Node6</title>
<path fill="none" stroke="midnightblue" d="M507.8,-293C525.82,-293 546.33,-293 565.77,-293"/>
<polygon fill="midnightblue" stroke="midnightblue" points="565.81,-296.5 575.81,-293 565.81,-289.5 565.81,-296.5"/>
</g>
<!-- Node7 -->
<g id="node7" class="node">
<title>Node7</title>
<g id="a_node7"><a xlink:href="classsignal__easel_1_1BitStream.html#a5b5339586e09ca5c25a7e9ded0118ffb" target="_top" xlink:title="Returns the next bit of the bit stream that will be encoded.">
<polygon fill="none" stroke="black" points="576,-229 576,-259 708,-259 708,-229 576,-229"/>
<text text-anchor="start" x="584" y="-247" font-family="Helvetica,sans-Serif" font-size="10.00">signal_easel::BitStream</text>
<text text-anchor="middle" x="642" y="-236" font-family="Helvetica,sans-Serif" font-size="10.00">::popNextBit</text>
</a>
</g>
</g>
<!-- Node2&#45;&gt;Node7 -->
<g id="edge7" class="edge">
<title>Node2&#45;&gt;Node7</title>
<path fill="none" stroke="midnightblue" d="M507.8,-279.09C528.39,-273.67 552.22,-267.39 573.99,-261.65"/>
<polygon fill="midnightblue" stroke="midnightblue" points="575.05,-264.99 583.83,-259.06 573.27,-258.22 575.05,-264.99"/>
</g>
<!-- Node8 -->
<g id="node8" class="node">
<title>Node8</title>
<g id="a_node8"><a xlink:href="classsignal__easel_1_1BitStream.html#a278666dbf58a4792e4f77538ab72b4b6" target="_top" xlink:title="After adding all of the data to the bit stream, this method will write the data left in the buffer.">
<polygon fill="none" stroke="black" points="575,-327 575,-357 709,-357 709,-327 575,-327"/>
<text text-anchor="start" x="583" y="-345" font-family="Helvetica,sans-Serif" font-size="10.00">signal_easel::BitStream</text>
<text text-anchor="middle" x="642" y="-334" font-family="Helvetica,sans-Serif" font-size="10.00">::pushBufferToBitStream</text>
</a>
</g>
</g>
<!-- Node2&#45;&gt;Node8 -->
<g id="edge8" class="edge">
<title>Node2&#45;&gt;Node8</title>
<path fill="none" stroke="midnightblue" d="M507.8,-306.91C528.39,-312.33 552.22,-318.61 573.99,-324.35"/>
<polygon fill="midnightblue" stroke="midnightblue" points="573.27,-327.78 583.83,-326.94 575.05,-321.01 573.27,-327.78"/>
</g>
<!-- Node4 -->
<g id="node4" class="node">
<title>Node4</title>
<g id="a_node4"><a xlink:href="classsignal__easel_1_1BitStream.html#a9df75eb28c03717c9fad2d30a85de6e6" target="_top" xlink:title=" ">
<polygon fill="none" stroke="black" points="761.5,-400 761.5,-430 893.5,-430 893.5,-400 761.5,-400"/>
<text text-anchor="start" x="769.5" y="-418" font-family="Helvetica,sans-Serif" font-size="10.00">signal_easel::BitStream</text>
<text text-anchor="middle" x="827.5" y="-407" font-family="Helvetica,sans-Serif" font-size="10.00">::addBits</text>
</a>
</g>
</g>
<!-- Node3&#45;&gt;Node4 -->
<g id="edge3" class="edge">
<title>Node3&#45;&gt;Node4</title>
<path fill="none" stroke="midnightblue" d="M708.21,-399.53C722.14,-401.35 736.96,-403.29 751.23,-405.15"/>
<polygon fill="midnightblue" stroke="midnightblue" points="751.13,-408.67 761.5,-406.5 752.04,-401.73 751.13,-408.67"/>
</g>
<!-- Node5&#45;&gt;Node4 -->
<g id="edge5" class="edge">
<title>Node5&#45;&gt;Node4</title>
<path fill="none" stroke="midnightblue" d="M708.21,-431.12C722.14,-429.22 736.96,-427.2 751.23,-425.26"/>
<polygon fill="midnightblue" stroke="midnightblue" points="752.06,-428.67 761.5,-423.86 751.12,-421.74 752.06,-428.67"/>
</g>
<!-- Node10 -->
<g id="node10" class="node">
<title>Node10</title>
<g id="a_node10"><a xlink:href="classsignal__easel_1_1ax25_1_1Frame.html#af86d4b534367a8faf6b628301c9ffceb" target="_top" xlink:title=" ">
<polygon fill="none" stroke="black" points="373.5,-131 373.5,-161 534.5,-161 534.5,-131 373.5,-131"/>
<text text-anchor="start" x="381.5" y="-149" font-family="Helvetica,sans-Serif" font-size="10.00">signal_easel::ax25</text>
<text text-anchor="middle" x="454" y="-138" font-family="Helvetica,sans-Serif" font-size="10.00">::Frame::addRepeaterAddress</text>
</a>
</g>
</g>
<!-- Node9&#45;&gt;Node10 -->
<g id="edge10" class="edge">
<title>Node9&#45;&gt;Node10</title>
<path fill="none" stroke="midnightblue" d="M333.2,-160.38C343.14,-159.18 353.35,-157.96 363.43,-156.75"/>
<polygon fill="midnightblue" stroke="midnightblue" points="363.93,-160.21 373.44,-155.55 363.09,-153.26 363.93,-160.21"/>
</g>
<!-- Node15 -->
<g id="node15" class="node">
<title>Node15</title>
<g id="a_node15"><a xlink:href="namespacesignal__easel_1_1ax25.html#aa3ad759477950552b79497f19c77ba0b" target="_top" xlink:title=" ">
<polygon fill="none" stroke="black" points="400.5,-180 400.5,-210 507.5,-210 507.5,-180 400.5,-180"/>
<text text-anchor="start" x="408.5" y="-198" font-family="Helvetica,sans-Serif" font-size="10.00">signal_easel::ax25</text>
<text text-anchor="middle" x="454" y="-187" font-family="Helvetica,sans-Serif" font-size="10.00">::deStuffBytes</text>
</a>
</g>
</g>
<!-- Node9&#45;&gt;Node15 -->
<g id="edge15" class="edge">
<title>Node9&#45;&gt;Node15</title>
<path fill="none" stroke="midnightblue" d="M333.2,-180.02C352.18,-182.4 372.16,-184.89 390.24,-187.15"/>
<polygon fill="midnightblue" stroke="midnightblue" points="390,-190.65 400.35,-188.42 390.87,-183.71 390,-190.65"/>
</g>
<!-- Node18 -->
<g id="node18" class="node">
<title>Node18</title>
<g id="a_node18"><a xlink:href="namespacesignal__easel_1_1ax25.html#aedc3a21287bb20d2f0b01c9a2d6797f3" target="_top" xlink:title="Finds the start flags in the bit stream and removes them.">
<polygon fill="none" stroke="black" points="400.5,-229 400.5,-259 507.5,-259 507.5,-229 400.5,-229"/>
<text text-anchor="start" x="408.5" y="-247" font-family="Helvetica,sans-Serif" font-size="10.00">signal_easel::ax25</text>
<text text-anchor="middle" x="454" y="-236" font-family="Helvetica,sans-Serif" font-size="10.00">::findStartFlags</text>
</a>
</g>
</g>
<!-- Node9&#45;&gt;Node18 -->
<g id="edge20" class="edge">
<title>Node9&#45;&gt;Node18</title>
<path fill="none" stroke="midnightblue" d="M297.08,-190.59C318.53,-200.19 344.83,-211.38 369,-220 375.87,-222.45 383.13,-224.83 390.39,-227.08"/>
<polygon fill="midnightblue" stroke="midnightblue" points="389.66,-230.51 400.24,-230.05 391.68,-223.81 389.66,-230.51"/>
</g>
<!-- Node20 -->
<g id="node20" class="node">
<title>Node20</title>
<g id="a_node20"><a xlink:href="classsignal__easel_1_1ax25_1_1Frame.html#a57b163ece54317da8d95f3b18b47c23d" target="_top" xlink:title="setters/getters for the frame.">
<polygon fill="none" stroke="black" points="369,-82 369,-112 539,-112 539,-82 369,-82"/>
<text text-anchor="start" x="377" y="-100" font-family="Helvetica,sans-Serif" font-size="10.00">signal_easel::ax25</text>
<text text-anchor="middle" x="454" y="-89" font-family="Helvetica,sans-Serif" font-size="10.00">::Frame::setDestinationAddress</text>
</a>
</g>
</g>
<!-- Node9&#45;&gt;Node20 -->
<g id="edge24" class="edge">
<title>Node9&#45;&gt;Node20</title>
<path fill="none" stroke="midnightblue" d="M299.7,-149.39C320.69,-140.46 345.89,-130.2 369,-122 375.7,-119.62 382.76,-117.28 389.82,-115.04"/>
<polygon fill="midnightblue" stroke="midnightblue" points="390.9,-118.37 399.41,-112.05 388.82,-111.68 390.9,-118.37"/>
</g>
<!-- Node21 -->
<g id="node21" class="node">
<title>Node21</title>
<g id="a_node21"><a xlink:href="classsignal__easel_1_1ax25_1_1Frame.html#a402d26a81f82bb5c477e8930b75a771e" target="_top" xlink:title=" ">
<polygon fill="none" stroke="black" points="381,-33 381,-63 527,-63 527,-33 381,-33"/>
<text text-anchor="start" x="389" y="-51" font-family="Helvetica,sans-Serif" font-size="10.00">signal_easel::ax25</text>
<text text-anchor="middle" x="454" y="-40" font-family="Helvetica,sans-Serif" font-size="10.00">::Frame::setSourceAddress</text>
</a>
</g>
</g>
<!-- Node9&#45;&gt;Node21 -->
<g id="edge26" class="edge">
<title>Node9&#45;&gt;Node21</title>
<path fill="none" stroke="midnightblue" d="M272,-149.41C293.52,-127.26 330.62,-92.47 369,-72 372.51,-70.13 376.19,-68.39 379.96,-66.77"/>
<polygon fill="midnightblue" stroke="midnightblue" points="381.46,-69.94 389.47,-63 378.89,-63.43 381.46,-69.94"/>
</g>
<!-- Node11 -->
<g id="node11" class="node">
<title>Node11</title>
<g id="a_node11"><a xlink:href="classsignal__easel_1_1ax25_1_1Address.html#a7fa6b0ef4241413893f201660991e4ea" target="_top" xlink:title="Checks if the address is valid, if not throws an exception with a specific error code.">
<polygon fill="none" stroke="black" points="577,-33 577,-63 707,-63 707,-33 577,-33"/>
<text text-anchor="start" x="585" y="-51" font-family="Helvetica,sans-Serif" font-size="10.00">signal_easel::ax25</text>
<text text-anchor="middle" x="642" y="-40" font-family="Helvetica,sans-Serif" font-size="10.00">::Address::assertIsValid</text>
</a>
</g>
</g>
<!-- Node10&#45;&gt;Node11 -->
<g id="edge11" class="edge">
<title>Node10&#45;&gt;Node11</title>
<path fill="none" stroke="midnightblue" d="M523.31,-130.83C528.85,-128.32 534.16,-125.4 539,-122 561.4,-106.26 553.16,-88.52 575,-72 576.82,-70.63 578.72,-69.32 580.69,-68.09"/>
<polygon fill="midnightblue" stroke="midnightblue" points="582.6,-71.03 589.66,-63.12 579.21,-64.91 582.6,-71.03"/>
</g>
<!-- Node12 -->
<g id="node12" class="node">
<title>Node12</title>
<g id="a_node12"><a xlink:href="classsignal__easel_1_1ax25_1_1Address.html#af34b361f739b7995e7816b7a04465828" target="_top" xlink:title=" ">
<polygon fill="none" stroke="black" points="745,-0.5 745,-41.5 910,-41.5 910,-0.5 745,-0.5"/>
<text text-anchor="start" x="753" y="-29.5" font-family="Helvetica,sans-Serif" font-size="10.00">signal_easel::ax25</text>
<text text-anchor="start" x="753" y="-18.5" font-family="Helvetica,sans-Serif" font-size="10.00">::Address::assertAddressString</text>
<text text-anchor="middle" x="827.5" y="-7.5" font-family="Helvetica,sans-Serif" font-size="10.00">IsValid</text>
</a>
</g>
</g>
<!-- Node11&#45;&gt;Node12 -->
<g id="edge12" class="edge">
<title>Node11&#45;&gt;Node12</title>
<path fill="none" stroke="midnightblue" d="M707.18,-38.56C716.14,-37.24 725.48,-35.86 734.82,-34.49"/>
<polygon fill="midnightblue" stroke="midnightblue" points="735.55,-37.92 744.94,-33 734.53,-30.99 735.55,-37.92"/>
</g>
<!-- Node13 -->
<g id="node13" class="node">
<title>Node13</title>
<g id="a_node13"><a xlink:href="classsignal__easel_1_1ax25_1_1Address.html#a8b44c6e311d3462bd86eda03c1d384f0" target="_top" xlink:title=" ">
<polygon fill="none" stroke="black" points="752.5,-61 752.5,-91 902.5,-91 902.5,-61 752.5,-61"/>
<text text-anchor="start" x="760.5" y="-79" font-family="Helvetica,sans-Serif" font-size="10.00">signal_easel::ax25</text>
<text text-anchor="middle" x="827.5" y="-68" font-family="Helvetica,sans-Serif" font-size="10.00">::Address::assertSsidIsValid</text>
</a>
</g>
</g>
<!-- Node11&#45;&gt;Node13 -->
<g id="edge13" class="edge">
<title>Node11&#45;&gt;Node13</title>
<path fill="none" stroke="midnightblue" d="M707.18,-57.79C718.56,-59.53 730.57,-61.36 742.41,-63.17"/>
<polygon fill="midnightblue" stroke="midnightblue" points="741.88,-66.63 752.3,-64.68 742.94,-59.71 741.88,-66.63"/>
</g>
<!-- Node14 -->
<g id="node14" class="node">
<title>Node14</title>
<g id="a_node14"><a xlink:href="classsignal__easel_1_1ax25_1_1Address.html#ad66c149737cc4aa52ae9e8860176acf3" target="_top" xlink:title=" ">
<polygon fill="none" stroke="black" points="946,-61 946,-91 1066,-91 1066,-61 946,-61"/>
<text text-anchor="start" x="954" y="-79" font-family="Helvetica,sans-Serif" font-size="10.00">signal_easel::ax25</text>
<text text-anchor="middle" x="1006" y="-68" font-family="Helvetica,sans-Serif" font-size="10.00">::Address::isSsidValid</text>
</a>
</g>
</g>
<!-- Node13&#45;&gt;Node14 -->
<g id="edge14" class="edge">
<title>Node13&#45;&gt;Node14</title>
<path fill="none" stroke="midnightblue" d="M902.58,-76C913.52,-76 924.76,-76 935.6,-76"/>
<polygon fill="midnightblue" stroke="midnightblue" points="935.84,-79.5 945.84,-76 935.84,-72.5 935.84,-79.5"/>
</g>
<!-- Node15&#45;&gt;Node6 -->
<g id="edge16" class="edge">
<title>Node15&#45;&gt;Node6</title>
<path fill="none" stroke="midnightblue" d="M507.6,-204.97C518.59,-208.57 529.67,-213.43 539,-220 561.1,-235.55 553.37,-252.8 575,-269 576.86,-270.4 578.82,-271.72 580.83,-272.97"/>
<polygon fill="midnightblue" stroke="midnightblue" points="579.58,-276.27 590.03,-278 582.94,-270.13 579.58,-276.27"/>
</g>
<!-- Node15&#45;&gt;Node7 -->
<g id="edge18" class="edge">
<title>Node15&#45;&gt;Node7</title>
<path fill="none" stroke="midnightblue" d="M507.8,-208.91C528.39,-214.33 552.22,-220.61 573.99,-226.35"/>
<polygon fill="midnightblue" stroke="midnightblue" points="573.27,-229.78 583.83,-228.94 575.05,-223.01 573.27,-229.78"/>
</g>
<!-- Node16 -->
<g id="node16" class="node">
<title>Node16</title>
<g id="a_node16"><a xlink:href="classsignal__easel_1_1BitStream.html#ad7b803a89b3a53ec1e4108122861a90b" target="_top" xlink:title="Returns the next bit of the bit stream without removing it.">
<polygon fill="none" stroke="black" points="576,-82 576,-112 708,-112 708,-82 576,-82"/>
<text text-anchor="start" x="584" y="-100" font-family="Helvetica,sans-Serif" font-size="10.00">signal_easel::BitStream</text>
<text text-anchor="middle" x="642" y="-89" font-family="Helvetica,sans-Serif" font-size="10.00">::peakNextBit</text>
</a>
</g>
</g>
<!-- Node15&#45;&gt;Node16 -->
<g id="edge17" class="edge">
<title>Node15&#45;&gt;Node16</title>
<path fill="none" stroke="midnightblue" d="M507.59,-185.71C518.59,-182.24 529.66,-177.5 539,-171 561.18,-155.57 553.48,-138.35 575,-122 577.33,-120.23 579.8,-118.57 582.37,-117.02"/>
<polygon fill="midnightblue" stroke="midnightblue" points="584.25,-119.98 591.39,-112.15 580.93,-113.82 584.25,-119.98"/>
</g>
<!-- Node17 -->
<g id="node17" class="node">
<title>Node17</title>
<g id="a_node17"><a xlink:href="namespacesignal__easel_1_1ax25.html#a464aaf0b31941db183dcd08d641a793c" target="_top" xlink:title=" ">
<polygon fill="none" stroke="black" points="588.5,-131 588.5,-161 695.5,-161 695.5,-131 588.5,-131"/>
<text text-anchor="start" x="596.5" y="-149" font-family="Helvetica,sans-Serif" font-size="10.00">signal_easel::ax25</text>
<text text-anchor="middle" x="642" y="-138" font-family="Helvetica,sans-Serif" font-size="10.00">::reverse_bits</text>
</a>
</g>
</g>
<!-- Node15&#45;&gt;Node17 -->
<g id="edge19" class="edge">
<title>Node15&#45;&gt;Node17</title>
<path fill="none" stroke="midnightblue" d="M507.8,-181.09C529.79,-175.3 555.49,-168.53 578.41,-162.49"/>
<polygon fill="midnightblue" stroke="midnightblue" points="579.61,-165.79 588.39,-159.86 577.83,-159.02 579.61,-165.79"/>
</g>
<!-- Node18&#45;&gt;Node6 -->
<g id="edge21" class="edge">
<title>Node18&#45;&gt;Node6</title>
<path fill="none" stroke="midnightblue" d="M507.8,-257.91C528.39,-263.33 552.22,-269.61 573.99,-275.35"/>
<polygon fill="midnightblue" stroke="midnightblue" points="573.27,-278.78 583.83,-277.94 575.05,-272.01 573.27,-278.78"/>
</g>
<!-- Node18&#45;&gt;Node7 -->
<g id="edge23" class="edge">
<title>Node18&#45;&gt;Node7</title>
<path fill="none" stroke="midnightblue" d="M507.8,-244C525.82,-244 546.33,-244 565.77,-244"/>
<polygon fill="midnightblue" stroke="midnightblue" points="565.81,-247.5 575.81,-244 565.81,-240.5 565.81,-247.5"/>
</g>
<!-- Node19 -->
<g id="node19" class="node">
<title>Node19</title>
<g id="a_node19"><a xlink:href="classsignal__easel_1_1BitStream.html#a3212a6021fa0e315170f8654c8e1c103" target="_top" xlink:title=" ">
<polygon fill="none" stroke="black" points="576,-180 576,-210 708,-210 708,-180 576,-180"/>
<text text-anchor="start" x="584" y="-198" font-family="Helvetica,sans-Serif" font-size="10.00">signal_easel::BitStream</text>
<text text-anchor="middle" x="642" y="-187" font-family="Helvetica,sans-Serif" font-size="10.00">::peakNextByte</text>
</a>
</g>
</g>
<!-- Node18&#45;&gt;Node19 -->
<g id="edge22" class="edge">
<title>Node18&#45;&gt;Node19</title>
<path fill="none" stroke="midnightblue" d="M507.8,-230.09C528.39,-224.67 552.22,-218.39 573.99,-212.65"/>
<polygon fill="midnightblue" stroke="midnightblue" points="575.05,-215.99 583.83,-210.06 573.27,-209.22 575.05,-215.99"/>
</g>
<!-- Node20&#45;&gt;Node11 -->
<g id="edge25" class="edge">
<title>Node20&#45;&gt;Node11</title>
<path fill="none" stroke="midnightblue" d="M512.07,-81.97C531.71,-76.79 553.87,-70.95 574.22,-65.59"/>
<polygon fill="midnightblue" stroke="midnightblue" points="575.26,-68.94 584.04,-63.01 573.48,-62.17 575.26,-68.94"/>
</g>
<!-- Node21&#45;&gt;Node11 -->
<g id="edge27" class="edge">
<title>Node21&#45;&gt;Node11</title>
<path fill="none" stroke="midnightblue" d="M527.18,-48C540.07,-48 553.53,-48 566.48,-48"/>
<polygon fill="midnightblue" stroke="midnightblue" points="566.75,-51.5 576.75,-48 566.75,-44.5 566.75,-51.5"/>
</g>
</g>
</svg>
