<?xml version="1.0" encoding="UTF-8" standalone="no"?>
<!DOCTYPE svg PUBLIC "-//W3C//DTD SVG 1.1//EN"
 "http://www.w3.org/Graphics/SVG/1.1/DTD/svg11.dtd">
<!-- Generated by graphviz version 2.43.0 (0)
 -->
<!-- Title: signal_easel::ax25::Address::isSsidValid Pages: 1 -->
<svg width="1525pt" height="411pt"
 viewBox="0.00 0.00 1525.00 410.50" xmlns="http://www.w3.org/2000/svg" xmlns:xlink="http://www.w3.org/1999/xlink">
<g id="graph0" class="graph" transform="scale(1 1) rotate(0) translate(4 406.5)">
<title>signal_easel::ax25::Address::isSsidValid</title>
<!-- Node1 -->
<g id="node1" class="node">
<title>Node1</title>
<g id="a_node1"><a xlink:title=" ">
<polygon fill="#bfbfbf" stroke="black" points="1397,-144.5 1397,-174.5 1517,-174.5 1517,-144.5 1397,-144.5"/>
<text text-anchor="start" x="1405" y="-162.5" font-family="Helvetica,sans-Serif" font-size="10.00">signal_easel::ax25</text>
<text text-anchor="middle" x="1457" y="-151.5" font-family="Helvetica,sans-Serif" font-size="10.00">::Address::isSsidValid</text>
</a>
</g>
</g>
<!-- Node2 -->
<g id="node2" class="node">
<title>Node2</title>
<g id="a_node2"><a xlink:href="classsignal__easel_1_1ax25_1_1Address.html#a8b44c6e311d3462bd86eda03c1d384f0" target="_top" xlink:title=" ">
<polygon fill="none" stroke="black" points="1211,-122.5 1211,-152.5 1361,-152.5 1361,-122.5 1211,-122.5"/>
<text text-anchor="start" x="1219" y="-140.5" font-family="Helvetica,sans-Serif" font-size="10.00">signal_easel::ax25</text>
<text text-anchor="middle" x="1286" y="-129.5" font-family="Helvetica,sans-Serif" font-size="10.00">::Address::assertSsidIsValid</text>
</a>
</g>
</g>
<!-- Node1&#45;&gt;Node2 -->
<g id="edge1" class="edge">
<title>Node1&#45;&gt;Node2</title>
<path fill="none" stroke="midnightblue" d="M1386.75,-150.49C1378.34,-149.39 1369.71,-148.27 1361.23,-147.16"/>
<polygon fill="midnightblue" stroke="midnightblue" points="1386.52,-153.99 1396.89,-151.81 1387.43,-147.04 1386.52,-153.99"/>
</g>
<!-- Node24 -->
<g id="node24" class="node">
<title>Node24</title>
<g id="a_node24"><a xlink:href="classsignal__easel_1_1ax25_1_1Address.html#aae81920cfd0dc7d89cb107f9d825488c" target="_top" xlink:title="If the address is valid (can be encoded correctly or was decoded)">
<polygon fill="none" stroke="black" points="1050.5,-284.5 1050.5,-314.5 1157.5,-314.5 1157.5,-284.5 1050.5,-284.5"/>
<text text-anchor="start" x="1058.5" y="-302.5" font-family="Helvetica,sans-Serif" font-size="10.00">signal_easel::ax25</text>
<text text-anchor="middle" x="1104" y="-291.5" font-family="Helvetica,sans-Serif" font-size="10.00">::Address::isValid</text>
</a>
</g>
</g>
<!-- Node1&#45;&gt;Node24 -->
<g id="edge30" class="edge">
<title>Node1&#45;&gt;Node24</title>
<path fill="none" stroke="midnightblue" d="M1408.57,-178.42C1338.1,-206.53 1207.13,-258.76 1142.74,-284.45"/>
<polygon fill="midnightblue" stroke="midnightblue" points="1410.11,-181.57 1418.1,-174.62 1407.52,-175.07 1410.11,-181.57"/>
</g>
<!-- Node3 -->
<g id="node3" class="node">
<title>Node3</title>
<g id="a_node3"><a xlink:href="classsignal__easel_1_1ax25_1_1Address.html#a7fa6b0ef4241413893f201660991e4ea" target="_top" xlink:title="Checks if the address is valid, if not throws an exception with a specific error code.">
<polygon fill="none" stroke="black" points="1039,-171.5 1039,-201.5 1169,-201.5 1169,-171.5 1039,-171.5"/>
<text text-anchor="start" x="1047" y="-189.5" font-family="Helvetica,sans-Serif" font-size="10.00">signal_easel::ax25</text>
<text text-anchor="middle" x="1104" y="-178.5" font-family="Helvetica,sans-Serif" font-size="10.00">::Address::assertIsValid</text>
</a>
</g>
</g>
<!-- Node2&#45;&gt;Node3 -->
<g id="edge2" class="edge">
<title>Node2&#45;&gt;Node3</title>
<path fill="none" stroke="midnightblue" d="M1219.8,-155.25C1200.29,-160.56 1179.1,-166.33 1160.29,-171.45"/>
<polygon fill="midnightblue" stroke="midnightblue" points="1220.8,-158.61 1229.53,-152.6 1218.96,-151.85 1220.8,-158.61"/>
</g>
<!-- Node20 -->
<g id="node20" class="node">
<title>Node20</title>
<g id="a_node20"><a xlink:href="classsignal__easel_1_1ax25_1_1Address.html#a6a2594f26aa1d2a46e33d7da1a1d5fdd" target="_top" xlink:title="Decode an AX.25 address from it&#39;s byte array representation.">
<polygon fill="none" stroke="black" points="1033,-24.5 1033,-54.5 1175,-54.5 1175,-24.5 1033,-24.5"/>
<text text-anchor="start" x="1041" y="-42.5" font-family="Helvetica,sans-Serif" font-size="10.00">signal_easel::ax25</text>
<text text-anchor="middle" x="1104" y="-31.5" font-family="Helvetica,sans-Serif" font-size="10.00">::Address::decodeAddress</text>
</a>
</g>
</g>
<!-- Node2&#45;&gt;Node20 -->
<g id="edge26" class="edge">
<title>Node2&#45;&gt;Node20</title>
<path fill="none" stroke="midnightblue" d="M1257.16,-116.26C1235.58,-100.5 1204.49,-79.27 1175,-64.5 1167.85,-60.92 1160.05,-57.6 1152.35,-54.64"/>
<polygon fill="midnightblue" stroke="midnightblue" points="1255.1,-119.09 1265.22,-122.22 1259.26,-113.47 1255.1,-119.09"/>
</g>
<!-- Node22 -->
<g id="node22" class="node">
<title>Node22</title>
<g id="a_node22"><a xlink:href="classsignal__easel_1_1ax25_1_1Address.html#a069a8d96c0d74e4a3288876c429c7187" target="_top" xlink:title="Set the SSID (0&#45;15)">
<polygon fill="none" stroke="black" points="1050.5,-73.5 1050.5,-103.5 1157.5,-103.5 1157.5,-73.5 1050.5,-73.5"/>
<text text-anchor="start" x="1058.5" y="-91.5" font-family="Helvetica,sans-Serif" font-size="10.00">signal_easel::ax25</text>
<text text-anchor="middle" x="1104" y="-80.5" font-family="Helvetica,sans-Serif" font-size="10.00">::Address::setSsid</text>
</a>
</g>
</g>
<!-- Node2&#45;&gt;Node22 -->
<g id="edge28" class="edge">
<title>Node2&#45;&gt;Node22</title>
<path fill="none" stroke="midnightblue" d="M1219.66,-119.71C1199.23,-114.15 1176.96,-108.09 1157.52,-102.8"/>
<polygon fill="midnightblue" stroke="midnightblue" points="1218.96,-123.15 1229.53,-122.4 1220.8,-116.39 1218.96,-123.15"/>
</g>
<!-- Node4 -->
<g id="node4" class="node">
<title>Node4</title>
<g id="a_node4"><a xlink:href="classsignal__easel_1_1ax25_1_1Frame.html#af86d4b534367a8faf6b628301c9ffceb" target="_top" xlink:title=" ">
<polygon fill="none" stroke="black" points="831.5,-98.5 831.5,-128.5 992.5,-128.5 992.5,-98.5 831.5,-98.5"/>
<text text-anchor="start" x="839.5" y="-116.5" font-family="Helvetica,sans-Serif" font-size="10.00">signal_easel::ax25</text>
<text text-anchor="middle" x="912" y="-105.5" font-family="Helvetica,sans-Serif" font-size="10.00">::Frame::addRepeaterAddress</text>
</a>
</g>
</g>
<!-- Node3&#45;&gt;Node4 -->
<g id="edge3" class="edge">
<title>Node3&#45;&gt;Node4</title>
<path fill="none" stroke="midnightblue" d="M1063.14,-166.9C1043.49,-157.64 1019.28,-146.82 997,-138.5 987.59,-134.99 977.45,-131.63 967.58,-128.57"/>
<polygon fill="midnightblue" stroke="midnightblue" points="1061.86,-170.16 1072.39,-171.3 1064.86,-163.84 1061.86,-170.16"/>
</g>
<!-- Node9 -->
<g id="node9" class="node">
<title>Node9</title>
<g id="a_node9"><a xlink:href="classsignal__easel_1_1ax25_1_1Address.html#a0c31737081a9184b56dc32150b23cb0a" target="_top" xlink:title="Get the address as a byte array.">
<polygon fill="none" stroke="black" points="841,-333.5 841,-363.5 983,-363.5 983,-333.5 841,-333.5"/>
<text text-anchor="start" x="849" y="-351.5" font-family="Helvetica,sans-Serif" font-size="10.00">signal_easel::ax25</text>
<text text-anchor="middle" x="912" y="-340.5" font-family="Helvetica,sans-Serif" font-size="10.00">::Address::encodeAddress</text>
</a>
</g>
</g>
<!-- Node3&#45;&gt;Node9 -->
<g id="edge8" class="edge">
<title>Node3&#45;&gt;Node9</title>
<path fill="none" stroke="midnightblue" d="M1084.48,-209.62C1070.24,-227.49 1050.18,-252.91 1033,-275.5 1016.64,-297.01 1019.18,-309.07 997,-324.5 992.02,-327.96 986.54,-330.93 980.85,-333.47"/>
<polygon fill="midnightblue" stroke="midnightblue" points="1087.46,-211.5 1090.96,-201.5 1081.98,-207.13 1087.46,-211.5"/>
</g>
<!-- Node16 -->
<g id="node16" class="node">
<title>Node16</title>
<g id="a_node16"><a xlink:href="classsignal__easel_1_1ax25_1_1Frame.html#a57b163ece54317da8d95f3b18b47c23d" target="_top" xlink:title="setters/getters for the frame.">
<polygon fill="none" stroke="black" points="827,-147.5 827,-177.5 997,-177.5 997,-147.5 827,-147.5"/>
<text text-anchor="start" x="835" y="-165.5" font-family="Helvetica,sans-Serif" font-size="10.00">signal_easel::ax25</text>
<text text-anchor="middle" x="912" y="-154.5" font-family="Helvetica,sans-Serif" font-size="10.00">::Frame::setDestinationAddress</text>
</a>
</g>
</g>
<!-- Node3&#45;&gt;Node16 -->
<g id="edge16" class="edge">
<title>Node3&#45;&gt;Node16</title>
<path fill="none" stroke="midnightblue" d="M1029.01,-177.15C1018.52,-175.83 1007.67,-174.46 997,-173.11"/>
<polygon fill="midnightblue" stroke="midnightblue" points="1028.58,-180.63 1038.94,-178.41 1029.46,-173.68 1028.58,-180.63"/>
</g>
<!-- Node18 -->
<g id="node18" class="node">
<title>Node18</title>
<g id="a_node18"><a xlink:href="ax25__frame__test_8cpp.html#a091d83d42783f2a0b3fd33a0521dc2ce" target="_top" xlink:title=" ">
<polygon fill="none" stroke="black" points="697.5,-246 697.5,-265 738.5,-265 738.5,-246 697.5,-246"/>
<text text-anchor="middle" x="718" y="-253" font-family="Helvetica,sans-Serif" font-size="10.00">TEST</text>
</a>
</g>
</g>
<!-- Node3&#45;&gt;Node18 -->
<g id="edge25" class="edge">
<title>Node3&#45;&gt;Node18</title>
<path fill="none" stroke="midnightblue" d="M1069.07,-206.49C1048.85,-217.38 1022.27,-229.93 997,-236.5 902.66,-261.04 784.6,-258.72 738.61,-256.62"/>
<polygon fill="midnightblue" stroke="midnightblue" points="1070.81,-209.53 1077.88,-201.64 1067.43,-203.4 1070.81,-209.53"/>
</g>
<!-- Node19 -->
<g id="node19" class="node">
<title>Node19</title>
<g id="a_node19"><a xlink:href="classsignal__easel_1_1ax25_1_1Frame.html#a402d26a81f82bb5c477e8930b75a771e" target="_top" xlink:title=" ">
<polygon fill="none" stroke="black" points="839,-196.5 839,-226.5 985,-226.5 985,-196.5 839,-196.5"/>
<text text-anchor="start" x="847" y="-214.5" font-family="Helvetica,sans-Serif" font-size="10.00">signal_easel::ax25</text>
<text text-anchor="middle" x="912" y="-203.5" font-family="Helvetica,sans-Serif" font-size="10.00">::Frame::setSourceAddress</text>
</a>
</g>
</g>
<!-- Node3&#45;&gt;Node19 -->
<g id="edge21" class="edge">
<title>Node3&#45;&gt;Node19</title>
<path fill="none" stroke="midnightblue" d="M1028.68,-196.28C1014.42,-198.16 999.49,-200.12 985.29,-201.99"/>
<polygon fill="midnightblue" stroke="midnightblue" points="1029.48,-199.7 1038.94,-194.93 1028.57,-192.76 1029.48,-199.7"/>
</g>
<!-- Node5 -->
<g id="node5" class="node">
<title>Node5</title>
<g id="a_node5"><a xlink:href="classsignal__easel_1_1ax25_1_1Frame.html#a63cf2362c2a90d20f09bbbc4f24a07ba" target="_top" xlink:title="Attempt to parse an incoming bit stream into an AX.25 frame.">
<polygon fill="none" stroke="black" points="650.5,-147.5 650.5,-177.5 785.5,-177.5 785.5,-147.5 650.5,-147.5"/>
<text text-anchor="start" x="658.5" y="-165.5" font-family="Helvetica,sans-Serif" font-size="10.00">signal_easel::ax25</text>
<text text-anchor="middle" x="718" y="-154.5" font-family="Helvetica,sans-Serif" font-size="10.00">::Frame::parseBitStream</text>
</a>
</g>
</g>
<!-- Node4&#45;&gt;Node5 -->
<g id="edge4" class="edge">
<title>Node4&#45;&gt;Node5</title>
<path fill="none" stroke="midnightblue" d="M842.23,-131.05C821.15,-136.43 798.15,-142.3 777.8,-147.49"/>
<polygon fill="midnightblue" stroke="midnightblue" points="843.26,-134.4 852.09,-128.53 841.53,-127.62 843.26,-134.4"/>
</g>
<!-- Node6 -->
<g id="node6" class="node">
<title>Node6</title>
<g id="a_node6"><a xlink:href="classsignal__easel_1_1aprs_1_1Demodulator.html#ae5a8e7634c1bc8d215a0c454a9a737fa" target="_top" xlink:title=" ">
<polygon fill="none" stroke="black" points="456,-142 456,-183 609,-183 609,-142 456,-142"/>
<text text-anchor="start" x="464" y="-171" font-family="Helvetica,sans-Serif" font-size="10.00">signal_easel::aprs</text>
<text text-anchor="start" x="464" y="-160" font-family="Helvetica,sans-Serif" font-size="10.00">::Demodulator::lookForAx25</text>
<text text-anchor="middle" x="532.5" y="-149" font-family="Helvetica,sans-Serif" font-size="10.00">Packet</text>
</a>
</g>
</g>
<!-- Node5&#45;&gt;Node6 -->
<g id="edge5" class="edge">
<title>Node5&#45;&gt;Node6</title>
<path fill="none" stroke="midnightblue" d="M640.29,-162.5C629.98,-162.5 619.41,-162.5 609.11,-162.5"/>
<polygon fill="midnightblue" stroke="midnightblue" points="640.49,-166 650.49,-162.5 640.49,-159 640.49,-166"/>
</g>
<!-- Node7 -->
<g id="node7" class="node">
<title>Node7</title>
<g id="a_node7"><a xlink:href="classsignal__easel_1_1aprs_1_1Receiver.html#afbf7869aceaf2ea7ab0be8b9af16e818" target="_top" xlink:title=" ">
<polygon fill="none" stroke="black" points="291.5,-172.5 291.5,-202.5 398.5,-202.5 398.5,-172.5 291.5,-172.5"/>
<text text-anchor="start" x="299.5" y="-190.5" font-family="Helvetica,sans-Serif" font-size="10.00">signal_easel::aprs</text>
<text text-anchor="middle" x="345" y="-179.5" font-family="Helvetica,sans-Serif" font-size="10.00">::Receiver::decode</text>
</a>
</g>
</g>
<!-- Node6&#45;&gt;Node7 -->
<g id="edge6" class="edge">
<title>Node6&#45;&gt;Node7</title>
<path fill="none" stroke="midnightblue" d="M445.79,-174.05C429.66,-176.23 413.24,-178.44 398.51,-180.42"/>
<polygon fill="midnightblue" stroke="midnightblue" points="446.34,-177.51 455.78,-172.7 445.4,-170.57 446.34,-177.51"/>
</g>
<!-- Node8 -->
<g id="node8" class="node">
<title>Node8</title>
<g id="a_node8"><a xlink:href="aprs__test_8cpp.html#aea66d1824e3f1e27598adf99ac6a089a" target="_top" xlink:title=" ">
<polygon fill="none" stroke="black" points="0,-188 0,-207 41,-207 41,-188 0,-188"/>
<text text-anchor="middle" x="20.5" y="-195" font-family="Helvetica,sans-Serif" font-size="10.00">TEST</text>
</a>
</g>
</g>
<!-- Node6&#45;&gt;Node8 -->
<g id="edge7" class="edge">
<title>Node6&#45;&gt;Node8</title>
<path fill="none" stroke="midnightblue" d="M445.8,-148.59C352.92,-136.68 201.34,-126.57 77,-162.5 59.93,-167.43 43.05,-179.35 32.47,-187.91"/>
<polygon fill="midnightblue" stroke="midnightblue" points="445.34,-152.06 455.72,-149.89 446.26,-145.12 445.34,-152.06"/>
</g>
<!-- Node10 -->
<g id="node10" class="node">
<title>Node10</title>
<g id="a_node10"><a xlink:href="classsignal__easel_1_1ax25_1_1Frame.html#a24e7d5ffc6504a3380e97142d1bc084e" target="_top" xlink:title="Builds all internal portions of the frame. Doesn&#39;t include the flags.">
<polygon fill="none" stroke="black" points="661,-284.5 661,-314.5 775,-314.5 775,-284.5 661,-284.5"/>
<text text-anchor="start" x="669" y="-302.5" font-family="Helvetica,sans-Serif" font-size="10.00">signal_easel::ax25</text>
<text text-anchor="middle" x="718" y="-291.5" font-family="Helvetica,sans-Serif" font-size="10.00">::Frame::buildFrame</text>
</a>
</g>
</g>
<!-- Node9&#45;&gt;Node10 -->
<g id="edge9" class="edge">
<title>Node9&#45;&gt;Node10</title>
<path fill="none" stroke="midnightblue" d="M842.16,-330.93C820.18,-325.32 796.14,-319.19 775.17,-313.84"/>
<polygon fill="midnightblue" stroke="midnightblue" points="841.53,-334.38 852.09,-333.47 843.26,-327.6 841.53,-334.38"/>
</g>
<!-- Node15 -->
<g id="node15" class="node">
<title>Node15</title>
<g id="a_node15"><a xlink:href="ax25__address__test_8cpp.html#a1d87028368532ba4ae914da9397571d3" target="_top" xlink:title=" ">
<polygon fill="none" stroke="black" points="697.5,-339 697.5,-358 738.5,-358 738.5,-339 697.5,-339"/>
<text text-anchor="middle" x="718" y="-346" font-family="Helvetica,sans-Serif" font-size="10.00">TEST</text>
</a>
</g>
</g>
<!-- Node9&#45;&gt;Node15 -->
<g id="edge15" class="edge">
<title>Node9&#45;&gt;Node15</title>
<path fill="none" stroke="midnightblue" d="M830.5,-348.5C796.77,-348.5 760.41,-348.5 738.69,-348.5"/>
<polygon fill="midnightblue" stroke="midnightblue" points="830.87,-352 840.87,-348.5 830.87,-345 830.87,-352"/>
</g>
<!-- Node11 -->
<g id="node11" class="node">
<title>Node11</title>
<g id="a_node11"><a xlink:href="classsignal__easel_1_1ax25_1_1Frame.html#a2b4f6ebcb7592a7e5a21114c8fafa503" target="_top" xlink:title="A step beyond buildFrame. This function builds the frame, does the bit stuffing, adds the flags,...">
<polygon fill="none" stroke="black" points="470,-269.5 470,-299.5 595,-299.5 595,-269.5 470,-269.5"/>
<text text-anchor="start" x="478" y="-287.5" font-family="Helvetica,sans-Serif" font-size="10.00">signal_easel::ax25</text>
<text text-anchor="middle" x="532.5" y="-276.5" font-family="Helvetica,sans-Serif" font-size="10.00">::Frame::encodeFrame</text>
</a>
</g>
</g>
<!-- Node10&#45;&gt;Node11 -->
<g id="edge10" class="edge">
<title>Node10&#45;&gt;Node11</title>
<path fill="none" stroke="midnightblue" d="M650.77,-294.09C632.67,-292.61 613.13,-291.01 595.29,-289.55"/>
<polygon fill="midnightblue" stroke="midnightblue" points="650.69,-297.59 660.95,-294.92 651.27,-290.61 650.69,-297.59"/>
</g>
<!-- Node12 -->
<g id="node12" class="node">
<title>Node12</title>
<g id="a_node12"><a xlink:href="namespacesignal__easel.html#aad3ffdd47a4a03ed438e8c1ca9eef231" target="_top" xlink:title=" ">
<polygon fill="none" stroke="black" points="270,-232 270,-251 420,-251 420,-232 270,-232"/>
<text text-anchor="middle" x="345" y="-239" font-family="Helvetica,sans-Serif" font-size="10.00">signal_easel::encodePacket</text>
</a>
</g>
</g>
<!-- Node11&#45;&gt;Node12 -->
<g id="edge11" class="edge">
<title>Node11&#45;&gt;Node12</title>
<path fill="none" stroke="midnightblue" d="M459.94,-267.91C435.31,-262.2 408.56,-256 387.18,-251.05"/>
<polygon fill="midnightblue" stroke="midnightblue" points="459.46,-271.39 469.99,-270.24 461.04,-264.57 459.46,-271.39"/>
</g>
<!-- Node13 -->
<g id="node13" class="node">
<title>Node13</title>
<g id="a_node13"><a xlink:href="classsignal__easel_1_1aprs_1_1Modulator.html#a147321b48c2e282c62863f114702e54f" target="_top" xlink:title=" ">
<polygon fill="none" stroke="black" points="77,-232 77,-273 234,-273 234,-232 77,-232"/>
<text text-anchor="start" x="85" y="-261" font-family="Helvetica,sans-Serif" font-size="10.00">signal_easel::aprs</text>
<text text-anchor="start" x="85" y="-250" font-family="Helvetica,sans-Serif" font-size="10.00">::Modulator::encodeMessage</text>
<text text-anchor="middle" x="155.5" y="-239" font-family="Helvetica,sans-Serif" font-size="10.00">Packet</text>
</a>
</g>
</g>
<!-- Node12&#45;&gt;Node13 -->
<g id="edge12" class="edge">
<title>Node12&#45;&gt;Node13</title>
<path fill="none" stroke="midnightblue" d="M259.88,-246.44C251.29,-246.94 242.59,-247.45 234.07,-247.95"/>
<polygon fill="midnightblue" stroke="midnightblue" points="260.12,-249.93 269.9,-245.85 259.71,-242.94 260.12,-249.93"/>
</g>
<!-- Node14 -->
<g id="node14" class="node">
<title>Node14</title>
<g id="a_node14"><a xlink:href="classsignal__easel_1_1aprs_1_1Modulator.html#a943e392227656943d7db842e1889d805" target="_top" xlink:title=" ">
<polygon fill="none" stroke="black" points="79.5,-172 79.5,-213 231.5,-213 231.5,-172 79.5,-172"/>
<text text-anchor="start" x="87.5" y="-201" font-family="Helvetica,sans-Serif" font-size="10.00">signal_easel::aprs</text>
<text text-anchor="start" x="87.5" y="-190" font-family="Helvetica,sans-Serif" font-size="10.00">::Modulator::encodePosition</text>
<text text-anchor="middle" x="155.5" y="-179" font-family="Helvetica,sans-Serif" font-size="10.00">Packet</text>
</a>
</g>
</g>
<!-- Node12&#45;&gt;Node14 -->
<g id="edge14" class="edge">
<title>Node12&#45;&gt;Node14</title>
<path fill="none" stroke="midnightblue" d="M297.69,-229.4C277.81,-224.2 254.08,-218 231.79,-212.18"/>
<polygon fill="midnightblue" stroke="midnightblue" points="296.84,-232.79 307.4,-231.94 298.61,-226.02 296.84,-232.79"/>
</g>
<!-- Node13&#45;&gt;Node8 -->
<g id="edge13" class="edge">
<title>Node13&#45;&gt;Node8</title>
<path fill="none" stroke="midnightblue" d="M90.63,-228.09C86.01,-226.23 81.43,-224.35 77,-222.5 65.01,-217.48 51.73,-211.52 41.17,-206.67"/>
<polygon fill="midnightblue" stroke="midnightblue" points="89.57,-231.43 100.15,-231.89 92.16,-224.93 89.57,-231.43"/>
</g>
<!-- Node16&#45;&gt;Node5 -->
<g id="edge19" class="edge">
<title>Node16&#45;&gt;Node5</title>
<path fill="none" stroke="midnightblue" d="M816.72,-162.5C806.19,-162.5 795.63,-162.5 785.55,-162.5"/>
<polygon fill="midnightblue" stroke="midnightblue" points="816.79,-166 826.79,-162.5 816.79,-159 816.79,-166"/>
</g>
<!-- Node17 -->
<g id="node17" class="node">
<title>Node17</title>
<g id="a_node17"><a xlink:href="namespacesignal__easel.html#ada24f00bb5d1a1bb97976967185c7526" target="_top" xlink:title=" ">
<polygon fill="none" stroke="black" points="645,-196.5 645,-226.5 791,-226.5 791,-196.5 645,-196.5"/>
<text text-anchor="start" x="653" y="-214.5" font-family="Helvetica,sans-Serif" font-size="10.00">signal_easel::AddRequired</text>
<text text-anchor="middle" x="718" y="-203.5" font-family="Helvetica,sans-Serif" font-size="10.00">Fields</text>
</a>
</g>
</g>
<!-- Node16&#45;&gt;Node17 -->
<g id="edge17" class="edge">
<title>Node16&#45;&gt;Node17</title>
<path fill="none" stroke="midnightblue" d="M842.23,-180.05C821.15,-185.43 798.15,-191.3 777.8,-196.49"/>
<polygon fill="midnightblue" stroke="midnightblue" points="843.26,-183.4 852.09,-177.53 841.53,-176.62 843.26,-183.4"/>
</g>
<!-- Node16&#45;&gt;Node18 -->
<g id="edge20" class="edge">
<title>Node16&#45;&gt;Node18</title>
<path fill="none" stroke="midnightblue" d="M835.62,-182.15C832.62,-183.79 829.74,-185.57 827,-187.5 804.9,-203.05 813.34,-221.3 791,-236.5 775.4,-247.12 754.17,-251.81 738.81,-253.87"/>
<polygon fill="midnightblue" stroke="midnightblue" points="837.42,-185.16 844.86,-177.61 834.34,-178.88 837.42,-185.16"/>
</g>
<!-- Node17&#45;&gt;Node12 -->
<g id="edge18" class="edge">
<title>Node17&#45;&gt;Node12</title>
<path fill="none" stroke="midnightblue" d="M634.5,-218.17C570.33,-223.36 482.08,-230.5 420.14,-235.51"/>
<polygon fill="midnightblue" stroke="midnightblue" points="634.9,-221.65 644.59,-217.36 634.34,-214.67 634.9,-221.65"/>
</g>
<!-- Node19&#45;&gt;Node5 -->
<g id="edge23" class="edge">
<title>Node19&#45;&gt;Node5</title>
<path fill="none" stroke="midnightblue" d="M842.23,-193.95C821.15,-188.57 798.15,-182.7 777.8,-177.51"/>
<polygon fill="midnightblue" stroke="midnightblue" points="841.53,-197.38 852.09,-196.47 843.26,-190.6 841.53,-197.38"/>
</g>
<!-- Node19&#45;&gt;Node17 -->
<g id="edge22" class="edge">
<title>Node19&#45;&gt;Node17</title>
<path fill="none" stroke="midnightblue" d="M828.96,-211.5C816.38,-211.5 803.47,-211.5 791.12,-211.5"/>
<polygon fill="midnightblue" stroke="midnightblue" points="828.96,-215 838.96,-211.5 828.96,-208 828.96,-215"/>
</g>
<!-- Node19&#45;&gt;Node18 -->
<g id="edge24" class="edge">
<title>Node19&#45;&gt;Node18</title>
<path fill="none" stroke="midnightblue" d="M835.69,-228.76C800.63,-236.79 761.7,-245.71 738.84,-250.95"/>
<polygon fill="midnightblue" stroke="midnightblue" points="836.5,-232.16 845.46,-226.52 834.93,-225.34 836.5,-232.16"/>
</g>
<!-- Node21 -->
<g id="node21" class="node">
<title>Node21</title>
<g id="a_node21"><a xlink:href="classsignal__easel_1_1ax25_1_1Address.html#a2ffb5475017120d1071e4b8d3f35c394" target="_top" xlink:title=" ">
<polygon fill="none" stroke="black" points="858.5,-0.5 858.5,-30.5 965.5,-30.5 965.5,-0.5 858.5,-0.5"/>
<text text-anchor="start" x="866.5" y="-18.5" font-family="Helvetica,sans-Serif" font-size="10.00">signal_easel::ax25</text>
<text text-anchor="middle" x="912" y="-7.5" font-family="Helvetica,sans-Serif" font-size="10.00">::Address::Address</text>
</a>
</g>
</g>
<!-- Node20&#45;&gt;Node21 -->
<g id="edge27" class="edge">
<title>Node20&#45;&gt;Node21</title>
<path fill="none" stroke="midnightblue" d="M1022.79,-29.37C1003.5,-26.93 983.37,-24.39 965.69,-22.16"/>
<polygon fill="midnightblue" stroke="midnightblue" points="1022.43,-32.85 1032.79,-30.63 1023.31,-25.91 1022.43,-32.85"/>
</g>
<!-- Node23 -->
<g id="node23" class="node">
<title>Node23</title>
<g id="a_node23"><a xlink:href="classsignal__easel_1_1ax25_1_1Address.html#af2e2c1061b619a32d966d4b08eed7ede" target="_top" xlink:title=" ">
<polygon fill="none" stroke="black" points="858.5,-49.5 858.5,-79.5 965.5,-79.5 965.5,-49.5 858.5,-49.5"/>
<text text-anchor="start" x="866.5" y="-67.5" font-family="Helvetica,sans-Serif" font-size="10.00">signal_easel::ax25</text>
<text text-anchor="middle" x="912" y="-56.5" font-family="Helvetica,sans-Serif" font-size="10.00">::Address::Address</text>
</a>
</g>
</g>
<!-- Node22&#45;&gt;Node23 -->
<g id="edge29" class="edge">
<title>Node22&#45;&gt;Node23</title>
<path fill="none" stroke="midnightblue" d="M1040.21,-80.57C1016.1,-77.52 988.85,-74.08 965.78,-71.17"/>
<polygon fill="midnightblue" stroke="midnightblue" points="1039.97,-84.07 1050.33,-81.85 1040.84,-77.12 1039.97,-84.07"/>
</g>
<!-- Node25 -->
<g id="node25" class="node">
<title>Node25</title>
<g id="a_node25"><a xlink:href="classsignal__easel_1_1ax25_1_1Frame.html#a640edeabbda34e78cc243e3561747bf9" target="_top" xlink:title=" ">
<polygon fill="none" stroke="black" points="851,-284.5 851,-314.5 973,-314.5 973,-284.5 851,-284.5"/>
<text text-anchor="start" x="859" y="-302.5" font-family="Helvetica,sans-Serif" font-size="10.00">signal_easel::ax25</text>
<text text-anchor="middle" x="912" y="-291.5" font-family="Helvetica,sans-Serif" font-size="10.00">::Frame::isFrameValid</text>
</a>
</g>
</g>
<!-- Node24&#45;&gt;Node25 -->
<g id="edge31" class="edge">
<title>Node24&#45;&gt;Node25</title>
<path fill="none" stroke="midnightblue" d="M1040.28,-299.5C1018.67,-299.5 994.55,-299.5 973.16,-299.5"/>
<polygon fill="midnightblue" stroke="midnightblue" points="1040.33,-303 1050.33,-299.5 1040.33,-296 1040.33,-303"/>
</g>
<!-- Node26 -->
<g id="node26" class="node">
<title>Node26</title>
<g id="a_node26"><a xlink:href="ax25__address__test_8cpp.html#afa443d4d5f700a003ec7cac34596dcba" target="_top" xlink:title=" ">
<polygon fill="none" stroke="black" points="891.5,-383 891.5,-402 932.5,-402 932.5,-383 891.5,-383"/>
<text text-anchor="middle" x="912" y="-390" font-family="Helvetica,sans-Serif" font-size="10.00">TEST</text>
</a>
</g>
</g>
<!-- Node24&#45;&gt;Node26 -->
<g id="edge34" class="edge">
<title>Node24&#45;&gt;Node26</title>
<path fill="none" stroke="midnightblue" d="M1078.03,-321.15C1057.56,-337.82 1027.13,-360.19 997,-373.5 976.07,-382.74 950.16,-387.72 932.69,-390.24"/>
<polygon fill="midnightblue" stroke="midnightblue" points="1080.44,-323.7 1085.9,-314.62 1075.97,-318.31 1080.44,-323.7"/>
</g>
<!-- Node25&#45;&gt;Node10 -->
<g id="edge32" class="edge">
<title>Node25&#45;&gt;Node10</title>
<path fill="none" stroke="midnightblue" d="M840.67,-299.5C819.07,-299.5 795.6,-299.5 775.09,-299.5"/>
<polygon fill="midnightblue" stroke="midnightblue" points="840.78,-303 850.78,-299.5 840.78,-296 840.78,-303"/>
</g>
<!-- Node25&#45;&gt;Node18 -->
<g id="edge33" class="edge">
<title>Node25&#45;&gt;Node18</title>
<path fill="none" stroke="midnightblue" d="M840.67,-283.38C804.29,-275.05 762.59,-265.49 738.67,-260.01"/>
<polygon fill="midnightblue" stroke="midnightblue" points="840.25,-286.88 850.78,-285.7 841.81,-280.05 840.25,-286.88"/>
</g>
</g>
</svg>
