<?xml version="1.0" encoding="UTF-8" standalone="no"?>
<!DOCTYPE svg PUBLIC "-//W3C//DTD SVG 1.1//EN"
 "http://www.w3.org/Graphics/SVG/1.1/DTD/svg11.dtd">
<!-- Generated by graphviz version 2.43.0 (0)
 -->
<!-- Title: signal_easel::BitStream::popNextBit Pages: 1 -->
<svg width="960pt" height="274pt"
 viewBox="0.00 0.00 960.00 274.00" xmlns="http://www.w3.org/2000/svg" xmlns:xlink="http://www.w3.org/1999/xlink">
<g id="graph0" class="graph" transform="scale(1 1) rotate(0) translate(4 270)">
<title>signal_easel::BitStream::popNextBit</title>
<!-- Node1 -->
<g id="node1" class="node">
<title>Node1</title>
<g id="a_node1"><a xlink:title="Returns the next bit of the bit stream that will be encoded.">
<polygon fill="#bfbfbf" stroke="black" points="820,-122.5 820,-152.5 952,-152.5 952,-122.5 820,-122.5"/>
<text text-anchor="start" x="828" y="-140.5" font-family="Helvetica,sans-Serif" font-size="10.00">signal_easel::BitStream</text>
<text text-anchor="middle" x="886" y="-129.5" font-family="Helvetica,sans-Serif" font-size="10.00">::popNextBit</text>
</a>
</g>
</g>
<!-- Node2 -->
<g id="node2" class="node">
<title>Node2</title>
<g id="a_node2"><a xlink:href="namespacesignal__easel_1_1ax25.html#a84e1d1bf82ef828a150bc94cf065e396" target="_top" xlink:title="Convert a bit stream from NRZI to standard encoding.">
<polygon fill="none" stroke="black" points="481.5,-186.5 481.5,-216.5 588.5,-216.5 588.5,-186.5 481.5,-186.5"/>
<text text-anchor="start" x="489.5" y="-204.5" font-family="Helvetica,sans-Serif" font-size="10.00">signal_easel::ax25</text>
<text text-anchor="middle" x="535" y="-193.5" font-family="Helvetica,sans-Serif" font-size="10.00">::decodeNrzi</text>
</a>
</g>
</g>
<!-- Node1&#45;&gt;Node2 -->
<g id="edge1" class="edge">
<title>Node1&#45;&gt;Node2</title>
<path fill="none" stroke="midnightblue" d="M852.94,-157.55C833.71,-168.49 808.33,-181.08 784,-187.5 718.33,-204.83 639.59,-206.14 588.72,-204.57"/>
<polygon fill="midnightblue" stroke="midnightblue" points="854.71,-160.57 861.59,-152.5 851.19,-154.52 854.71,-160.57"/>
</g>
<!-- Node7 -->
<g id="node7" class="node">
<title>Node7</title>
<g id="a_node7"><a xlink:href="namespacesignal__easel_1_1ax25.html#aa3ad759477950552b79497f19c77ba0b" target="_top" xlink:title=" ">
<polygon fill="none" stroke="black" points="664.5,-147.5 664.5,-177.5 771.5,-177.5 771.5,-147.5 664.5,-147.5"/>
<text text-anchor="start" x="672.5" y="-165.5" font-family="Helvetica,sans-Serif" font-size="10.00">signal_easel::ax25</text>
<text text-anchor="middle" x="718" y="-154.5" font-family="Helvetica,sans-Serif" font-size="10.00">::deStuffBytes</text>
</a>
</g>
</g>
<!-- Node1&#45;&gt;Node7 -->
<g id="edge6" class="edge">
<title>Node1&#45;&gt;Node7</title>
<path fill="none" stroke="midnightblue" d="M809.65,-148.85C796.82,-150.78 783.74,-152.75 771.65,-154.57"/>
<polygon fill="midnightblue" stroke="midnightblue" points="810.5,-152.26 819.87,-147.31 809.46,-145.34 810.5,-152.26"/>
</g>
<!-- Node10 -->
<g id="node10" class="node">
<title>Node10</title>
<g id="a_node10"><a xlink:href="classsignal__easel_1_1psk_1_1Modulator.html#a0949f7b7120c7a1b3c350681537e3181" target="_top" xlink:title=" ">
<polygon fill="none" stroke="black" points="652.5,-49.5 652.5,-79.5 783.5,-79.5 783.5,-49.5 652.5,-49.5"/>
<text text-anchor="start" x="660.5" y="-67.5" font-family="Helvetica,sans-Serif" font-size="10.00">signal_easel::psk::</text>
<text text-anchor="middle" x="718" y="-56.5" font-family="Helvetica,sans-Serif" font-size="10.00">Modulator::encodeBpsk</text>
</a>
</g>
</g>
<!-- Node1&#45;&gt;Node10 -->
<g id="edge11" class="edge">
<title>Node1&#45;&gt;Node10</title>
<path fill="none" stroke="midnightblue" d="M845.74,-117.98C827.17,-108.98 804.6,-98.34 784,-89.5 776.22,-86.16 767.84,-82.78 759.76,-79.63"/>
<polygon fill="midnightblue" stroke="midnightblue" points="844.26,-121.16 854.78,-122.39 847.33,-114.86 844.26,-121.16"/>
</g>
<!-- Node13 -->
<g id="node13" class="node">
<title>Node13</title>
<g id="a_node13"><a xlink:href="classsignal__easel_1_1ax25_1_1Frame.html#a2b4f6ebcb7592a7e5a21114c8fafa503" target="_top" xlink:title="A step beyond buildFrame. This function builds the frame, does the bit stuffing, adds the flags,...">
<polygon fill="none" stroke="black" points="655.5,-235.5 655.5,-265.5 780.5,-265.5 780.5,-235.5 655.5,-235.5"/>
<text text-anchor="start" x="663.5" y="-253.5" font-family="Helvetica,sans-Serif" font-size="10.00">signal_easel::ax25</text>
<text text-anchor="middle" x="718" y="-242.5" font-family="Helvetica,sans-Serif" font-size="10.00">::Frame::encodeFrame</text>
</a>
</g>
</g>
<!-- Node1&#45;&gt;Node13 -->
<g id="edge14" class="edge">
<title>Node1&#45;&gt;Node13</title>
<path fill="none" stroke="midnightblue" d="M861.65,-159.63C841.98,-177.52 812.56,-202.59 784,-220.5 775.26,-225.98 765.36,-231.06 755.96,-235.42"/>
<polygon fill="midnightblue" stroke="midnightblue" points="864.21,-162.03 869.19,-152.68 859.47,-156.88 864.21,-162.03"/>
</g>
<!-- Node16 -->
<g id="node16" class="node">
<title>Node16</title>
<g id="a_node16"><a xlink:href="classsignal__easel_1_1psk_1_1Modulator.html#a60d1a9253af253f4b62b678b6fc2b21e" target="_top" xlink:title=" ">
<polygon fill="none" stroke="black" points="652,-0.5 652,-30.5 784,-30.5 784,-0.5 652,-0.5"/>
<text text-anchor="start" x="660" y="-18.5" font-family="Helvetica,sans-Serif" font-size="10.00">signal_easel::psk::</text>
<text text-anchor="middle" x="718" y="-7.5" font-family="Helvetica,sans-Serif" font-size="10.00">Modulator::encodeQpsk</text>
</a>
</g>
</g>
<!-- Node1&#45;&gt;Node16 -->
<g id="edge18" class="edge">
<title>Node1&#45;&gt;Node16</title>
<path fill="none" stroke="midnightblue" d="M866.23,-114.39C847.42,-92.51 816.63,-60.05 784,-39.5 778.71,-36.17 772.88,-33.2 766.96,-30.58"/>
<polygon fill="midnightblue" stroke="midnightblue" points="863.71,-116.82 872.83,-122.2 869.06,-112.31 863.71,-116.82"/>
</g>
<!-- Node17 -->
<g id="node17" class="node">
<title>Node17</title>
<g id="a_node17"><a xlink:href="namespacesignal__easel_1_1ax25.html#aedc3a21287bb20d2f0b01c9a2d6797f3" target="_top" xlink:title="Finds the start flags in the bit stream and removes them.">
<polygon fill="none" stroke="black" points="664.5,-98.5 664.5,-128.5 771.5,-128.5 771.5,-98.5 664.5,-98.5"/>
<text text-anchor="start" x="672.5" y="-116.5" font-family="Helvetica,sans-Serif" font-size="10.00">signal_easel::ax25</text>
<text text-anchor="middle" x="718" y="-105.5" font-family="Helvetica,sans-Serif" font-size="10.00">::findStartFlags</text>
</a>
</g>
</g>
<!-- Node1&#45;&gt;Node17 -->
<g id="edge20" class="edge">
<title>Node1&#45;&gt;Node17</title>
<path fill="none" stroke="midnightblue" d="M809.65,-126.61C796.82,-124.75 783.74,-122.86 771.65,-121.11"/>
<polygon fill="midnightblue" stroke="midnightblue" points="809.47,-130.12 819.87,-128.08 810.47,-123.19 809.47,-130.12"/>
</g>
<!-- Node3 -->
<g id="node3" class="node">
<title>Node3</title>
<g id="a_node3"><a xlink:href="classsignal__easel_1_1aprs_1_1Receiver.html#afbf7869aceaf2ea7ab0be8b9af16e818" target="_top" xlink:title=" ">
<polygon fill="none" stroke="black" points="100,-111.5 100,-141.5 207,-141.5 207,-111.5 100,-111.5"/>
<text text-anchor="start" x="108" y="-129.5" font-family="Helvetica,sans-Serif" font-size="10.00">signal_easel::aprs</text>
<text text-anchor="middle" x="153.5" y="-118.5" font-family="Helvetica,sans-Serif" font-size="10.00">::Receiver::decode</text>
</a>
</g>
</g>
<!-- Node2&#45;&gt;Node3 -->
<g id="edge2" class="edge">
<title>Node2&#45;&gt;Node3</title>
<path fill="none" stroke="midnightblue" d="M471.1,-212.09C414.99,-218.69 331.77,-221.35 266,-193.5 245.45,-184.8 248.59,-170.84 230,-158.5 220.16,-151.96 208.76,-146.3 197.85,-141.64"/>
<polygon fill="midnightblue" stroke="midnightblue" points="471.77,-215.53 481.25,-210.81 470.9,-208.58 471.77,-215.53"/>
</g>
<!-- Node4 -->
<g id="node4" class="node">
<title>Node4</title>
<g id="a_node4"><a xlink:href="classsignal__easel_1_1ax25_1_1Frame.html#a63cf2362c2a90d20f09bbbc4f24a07ba" target="_top" xlink:title="Attempt to parse an incoming bit stream into an AX.25 frame.">
<polygon fill="none" stroke="black" points="274.5,-153.5 274.5,-183.5 409.5,-183.5 409.5,-153.5 274.5,-153.5"/>
<text text-anchor="start" x="282.5" y="-171.5" font-family="Helvetica,sans-Serif" font-size="10.00">signal_easel::ax25</text>
<text text-anchor="middle" x="342" y="-160.5" font-family="Helvetica,sans-Serif" font-size="10.00">::Frame::parseBitStream</text>
</a>
</g>
</g>
<!-- Node2&#45;&gt;Node4 -->
<g id="edge3" class="edge">
<title>Node2&#45;&gt;Node4</title>
<path fill="none" stroke="midnightblue" d="M471.18,-190.65C451.42,-187.23 429.54,-183.45 409.53,-179.99"/>
<polygon fill="midnightblue" stroke="midnightblue" points="470.85,-194.14 481.3,-192.4 472.04,-187.24 470.85,-194.14"/>
</g>
<!-- Node5 -->
<g id="node5" class="node">
<title>Node5</title>
<g id="a_node5"><a xlink:href="classsignal__easel_1_1aprs_1_1Demodulator.html#ae5a8e7634c1bc8d215a0c454a9a737fa" target="_top" xlink:title=" ">
<polygon fill="none" stroke="black" points="77,-168 77,-209 230,-209 230,-168 77,-168"/>
<text text-anchor="start" x="85" y="-197" font-family="Helvetica,sans-Serif" font-size="10.00">signal_easel::aprs</text>
<text text-anchor="start" x="85" y="-186" font-family="Helvetica,sans-Serif" font-size="10.00">::Demodulator::lookForAx25</text>
<text text-anchor="middle" x="153.5" y="-175" font-family="Helvetica,sans-Serif" font-size="10.00">Packet</text>
</a>
</g>
</g>
<!-- Node4&#45;&gt;Node5 -->
<g id="edge4" class="edge">
<title>Node4&#45;&gt;Node5</title>
<path fill="none" stroke="midnightblue" d="M264.25,-176.73C253.01,-177.94 241.44,-179.18 230.22,-180.38"/>
<polygon fill="midnightblue" stroke="midnightblue" points="264.89,-180.18 274.46,-175.64 264.14,-173.22 264.89,-180.18"/>
</g>
<!-- Node6 -->
<g id="node6" class="node">
<title>Node6</title>
<g id="a_node6"><a xlink:href="aprs__test_8cpp.html#aea66d1824e3f1e27598adf99ac6a089a" target="_top" xlink:title=" ">
<polygon fill="none" stroke="black" points="0,-206 0,-225 41,-225 41,-206 0,-206"/>
<text text-anchor="middle" x="20.5" y="-213" font-family="Helvetica,sans-Serif" font-size="10.00">TEST</text>
</a>
</g>
</g>
<!-- Node5&#45;&gt;Node6 -->
<g id="edge5" class="edge">
<title>Node5&#45;&gt;Node6</title>
<path fill="none" stroke="midnightblue" d="M66.67,-206.19C57.26,-208.13 48.46,-209.94 41.18,-211.44"/>
<polygon fill="midnightblue" stroke="midnightblue" points="67.59,-209.57 76.68,-204.13 66.18,-202.72 67.59,-209.57"/>
</g>
<!-- Node8 -->
<g id="node8" class="node">
<title>Node8</title>
<g id="a_node8"><a xlink:href="classsignal__easel_1_1ax25_1_1Frame.html#a40b07872c291deee87c677459a27c21c" target="_top" xlink:title="Attempt to parse a single AX.25 frame from an already NRZI&#45;decoded bit stream. Unlike parseBitStream,...">
<polygon fill="none" stroke="black" points="454,-106 454,-147 616,-147 616,-106 454,-106"/>
<text text-anchor="start" x="462" y="-135" font-family="Helvetica,sans-Serif" font-size="10.00">signal_easel::ax25</text>
<text text-anchor="start" x="462" y="-124" font-family="Helvetica,sans-Serif" font-size="10.00">::Frame::parseNrziDecodedBit</text>
<text text-anchor="middle" x="535" y="-113" font-family="Helvetica,sans-Serif" font-size="10.00">Stream</text>
</a>
</g>
</g>
<!-- Node7&#45;&gt;Node8 -->
<g id="edge7" class="edge">
<title>Node7&#45;&gt;Node8</title>
<path fill="none" stroke="midnightblue" d="M654.08,-149.99C641.85,-147.55 628.87,-144.97 616.16,-142.44"/>
<polygon fill="midnightblue" stroke="midnightblue" points="653.67,-153.47 664.16,-151.99 655.04,-146.61 653.67,-153.47"/>
</g>
<!-- Node8&#45;&gt;Node4 -->
<g id="edge10" class="edge">
<title>Node8&#45;&gt;Node4</title>
<path fill="none" stroke="midnightblue" d="M443.78,-146.34C432.29,-148.87 420.7,-151.41 409.68,-153.84"/>
<polygon fill="midnightblue" stroke="midnightblue" points="444.81,-149.7 453.83,-144.13 443.31,-142.86 444.81,-149.7"/>
</g>
<!-- Node9 -->
<g id="node9" class="node">
<title>Node9</title>
<g id="a_node9"><a xlink:href="classsignal__easel_1_1aprs_1_1Demodulator.html#ab4819ac606d0ebf3e5ac235a3bf916df" target="_top" xlink:title="Like lookForAx25Packet, but parses a single AX.25 frame from an already NRZI&#45;decoded bit stream....">
<polygon fill="none" stroke="black" points="266,-93 266,-134 418,-134 418,-93 266,-93"/>
<text text-anchor="start" x="274" y="-122" font-family="Helvetica,sans-Serif" font-size="10.00">signal_easel::aprs</text>
<text text-anchor="start" x="274" y="-111" font-family="Helvetica,sans-Serif" font-size="10.00">::Demodulator::lookForNext</text>
<text text-anchor="middle" x="342" y="-100" font-family="Helvetica,sans-Serif" font-size="10.00">Ax25Packet</text>
</a>
</g>
</g>
<!-- Node8&#45;&gt;Node9 -->
<g id="edge8" class="edge">
<title>Node8&#45;&gt;Node9</title>
<path fill="none" stroke="midnightblue" d="M443.78,-120.36C435.18,-119.77 426.52,-119.18 418.09,-118.61"/>
<polygon fill="midnightblue" stroke="midnightblue" points="443.61,-123.86 453.83,-121.04 444.09,-116.87 443.61,-123.86"/>
</g>
<!-- Node9&#45;&gt;Node3 -->
<g id="edge9" class="edge">
<title>Node9&#45;&gt;Node3</title>
<path fill="none" stroke="midnightblue" d="M255.69,-119.45C239.11,-120.6 222.2,-121.78 207.07,-122.84"/>
<polygon fill="midnightblue" stroke="midnightblue" points="256.22,-122.92 265.95,-118.73 255.73,-115.94 256.22,-122.92"/>
</g>
<!-- Node11 -->
<g id="node11" class="node">
<title>Node11</title>
<g id="a_node11"><a xlink:href="classsignal__easel_1_1psk_1_1Modulator.html#acd4a6a5bac7af1c62ffaaa0ff1d9259f" target="_top" xlink:title=" ">
<polygon fill="none" stroke="black" points="467,-35.5 467,-65.5 603,-65.5 603,-35.5 467,-35.5"/>
<text text-anchor="start" x="475" y="-53.5" font-family="Helvetica,sans-Serif" font-size="10.00">signal_easel::psk::</text>
<text text-anchor="middle" x="535" y="-42.5" font-family="Helvetica,sans-Serif" font-size="10.00">Modulator::encodeString</text>
</a>
</g>
</g>
<!-- Node10&#45;&gt;Node11 -->
<g id="edge12" class="edge">
<title>Node10&#45;&gt;Node11</title>
<path fill="none" stroke="midnightblue" d="M642.2,-58.71C629.31,-57.72 615.98,-56.69 603.31,-55.71"/>
<polygon fill="midnightblue" stroke="midnightblue" points="642.18,-62.22 652.42,-59.5 642.72,-55.24 642.18,-62.22"/>
</g>
<!-- Node12 -->
<g id="node12" class="node">
<title>Node12</title>
<g id="a_node12"><a xlink:href="psk__test_8cpp.html#adc7973e853ae04677ba78e84bda93987" target="_top" xlink:title=" ">
<polygon fill="none" stroke="black" points="321.5,-41 321.5,-60 362.5,-60 362.5,-41 321.5,-41"/>
<text text-anchor="middle" x="342" y="-48" font-family="Helvetica,sans-Serif" font-size="10.00">TEST</text>
</a>
</g>
</g>
<!-- Node11&#45;&gt;Node12 -->
<g id="edge13" class="edge">
<title>Node11&#45;&gt;Node12</title>
<path fill="none" stroke="midnightblue" d="M456.89,-50.5C422.6,-50.5 385.02,-50.5 362.76,-50.5"/>
<polygon fill="midnightblue" stroke="midnightblue" points="456.93,-54 466.93,-50.5 456.93,-47 456.93,-54"/>
</g>
<!-- Node14 -->
<g id="node14" class="node">
<title>Node14</title>
<g id="a_node14"><a xlink:href="namespacesignal__easel_1_1aprs.html#a77481001a5b78a839972bb4220b43e4d" target="_top" xlink:title="The base function to encode an APRS packet with the provided base data and info field.">
<polygon fill="none" stroke="black" points="483,-235.5 483,-265.5 587,-265.5 587,-235.5 483,-235.5"/>
<text text-anchor="start" x="491" y="-253.5" font-family="Helvetica,sans-Serif" font-size="10.00">signal_easel::aprs</text>
<text text-anchor="middle" x="535" y="-242.5" font-family="Helvetica,sans-Serif" font-size="10.00">::encodePacket</text>
</a>
</g>
</g>
<!-- Node13&#45;&gt;Node14 -->
<g id="edge15" class="edge">
<title>Node13&#45;&gt;Node14</title>
<path fill="none" stroke="midnightblue" d="M645.41,-250.5C625.93,-250.5 605.23,-250.5 587.13,-250.5"/>
<polygon fill="midnightblue" stroke="midnightblue" points="645.47,-254 655.47,-250.5 645.47,-247 645.47,-254"/>
</g>
<!-- Node15 -->
<g id="node15" class="node">
<title>Node15</title>
<g id="a_node15"><a xlink:href="classsignal__easel_1_1aprs_1_1Modulator.html#a8ae067701382dec1680b786583ace687" target="_top" xlink:title=" ">
<polygon fill="none" stroke="black" points="97,-231.5 97,-261.5 210,-261.5 210,-231.5 97,-231.5"/>
<text text-anchor="start" x="105" y="-249.5" font-family="Helvetica,sans-Serif" font-size="10.00">signal_easel::aprs</text>
<text text-anchor="middle" x="153.5" y="-238.5" font-family="Helvetica,sans-Serif" font-size="10.00">::Modulator::encode</text>
</a>
</g>
</g>
<!-- Node14&#45;&gt;Node15 -->
<g id="edge16" class="edge">
<title>Node14&#45;&gt;Node15</title>
<path fill="none" stroke="midnightblue" d="M472.45,-249.85C399.8,-249.09 280.05,-247.82 210.1,-247.09"/>
<polygon fill="midnightblue" stroke="midnightblue" points="472.78,-253.35 482.82,-249.96 472.86,-246.36 472.78,-253.35"/>
</g>
<!-- Node15&#45;&gt;Node6 -->
<g id="edge17" class="edge">
<title>Node15&#45;&gt;Node6</title>
<path fill="none" stroke="midnightblue" d="M87.13,-231.03C70.4,-227.07 53.66,-223.11 41.28,-220.18"/>
<polygon fill="midnightblue" stroke="midnightblue" points="86.41,-234.46 96.94,-233.35 88.02,-227.64 86.41,-234.46"/>
</g>
<!-- Node16&#45;&gt;Node11 -->
<g id="edge19" class="edge">
<title>Node16&#45;&gt;Node11</title>
<path fill="none" stroke="midnightblue" d="M641.78,-30.05C629,-32.52 615.81,-35.07 603.26,-37.49"/>
<polygon fill="midnightblue" stroke="midnightblue" points="642.76,-33.42 651.91,-28.09 641.43,-26.55 642.76,-33.42"/>
</g>
<!-- Node17&#45;&gt;Node8 -->
<g id="edge21" class="edge">
<title>Node17&#45;&gt;Node8</title>
<path fill="none" stroke="midnightblue" d="M654.08,-118.02C641.85,-118.9 628.87,-119.83 616.16,-120.74"/>
<polygon fill="midnightblue" stroke="midnightblue" points="654.44,-121.5 664.16,-117.3 653.94,-114.52 654.44,-121.5"/>
</g>
</g>
</svg>
