<?xml version="1.0" encoding="UTF-8" standalone="no"?>
<!DOCTYPE svg PUBLIC "-//W3C//DTD SVG 1.1//EN"
 "http://www.w3.org/Graphics/SVG/1.1/DTD/svg11.dtd">
<!-- Generated by graphviz version 2.43.0 (0)
 -->
<!-- Title: signal_easel::aprs::Modulator::encodePositionPacket Pages: 1 -->
<svg width="1439pt" height="563pt"
 viewBox="0.00 0.00 1439.00 563.00" xmlns="http://www.w3.org/2000/svg" xmlns:xlink="http://www.w3.org/1999/xlink">
<g id="graph0" class="graph" transform="scale(1 1) rotate(0) translate(4 559)">
<title>signal_easel::aprs::Modulator::encodePositionPacket</title>
<!-- Node1 -->
<g id="node1" class="node">
<title>Node1</title>
<g id="a_node1"><a xlink:title=" ">
<polygon fill="#bfbfbf" stroke="black" points="0,-390 0,-431 152,-431 152,-390 0,-390"/>
<text text-anchor="start" x="8" y="-419" font-family="Helvetica,sans-Serif" font-size="10.00">signal_easel::aprs</text>
<text text-anchor="start" x="8" y="-408" font-family="Helvetica,sans-Serif" font-size="10.00">::Modulator::encodePosition</text>
<text text-anchor="middle" x="76" y="-397" font-family="Helvetica,sans-Serif" font-size="10.00">Packet</text>
</a>
</g>
</g>
<!-- Node2 -->
<g id="node2" class="node">
<title>Node2</title>
<g id="a_node2"><a xlink:href="namespacesignal__easel_1_1aprs.html#a52a5534433f71d7db42197b57ec2ba41" target="_top" xlink:title=" ">
<polygon fill="none" stroke="black" points="206,-475.5 206,-505.5 311,-505.5 311,-475.5 206,-475.5"/>
<text text-anchor="start" x="214" y="-493.5" font-family="Helvetica,sans-Serif" font-size="10.00">signal_easel::aprs</text>
<text text-anchor="middle" x="258.5" y="-482.5" font-family="Helvetica,sans-Serif" font-size="10.00">::addLocationData</text>
</a>
</g>
</g>
<!-- Node1&#45;&gt;Node2 -->
<g id="edge1" class="edge">
<title>Node1&#45;&gt;Node2</title>
<path fill="none" stroke="midnightblue" d="M123.48,-431.1C151.42,-443.48 186.74,-459.14 214.11,-471.27"/>
<polygon fill="midnightblue" stroke="midnightblue" points="212.87,-474.55 223.43,-475.4 215.71,-468.15 212.87,-474.55"/>
</g>
<!-- Node5 -->
<g id="node5" class="node">
<title>Node5</title>
<g id="a_node5"><a xlink:href="classsignal__easel_1_1afsk_1_1Modulator.html#a8e377665e5432ebb66de359635aeeafb" target="_top" xlink:title="This is overridden by the child classes to encode the data that is passed in by addBytes and addStrin...">
<polygon fill="none" stroke="black" points="188,-395.5 188,-425.5 329,-425.5 329,-395.5 188,-395.5"/>
<text text-anchor="start" x="196" y="-413.5" font-family="Helvetica,sans-Serif" font-size="10.00">signal_easel::afsk</text>
<text text-anchor="middle" x="258.5" y="-402.5" font-family="Helvetica,sans-Serif" font-size="10.00">::Modulator::encodeBytes</text>
</a>
</g>
</g>
<!-- Node1&#45;&gt;Node5 -->
<g id="edge4" class="edge">
<title>Node1&#45;&gt;Node5</title>
<path fill="none" stroke="midnightblue" d="M152.24,-410.5C160.63,-410.5 169.2,-410.5 177.64,-410.5"/>
<polygon fill="midnightblue" stroke="midnightblue" points="177.86,-414 187.86,-410.5 177.86,-407 177.86,-414"/>
</g>
<!-- Node10 -->
<g id="node10" class="node">
<title>Node10</title>
<g id="a_node10"><a xlink:href="namespacesignal__easel_1_1aprs.html#a77481001a5b78a839972bb4220b43e4d" target="_top" xlink:title=" ">
<polygon fill="none" stroke="black" points="206.5,-280.5 206.5,-310.5 310.5,-310.5 310.5,-280.5 206.5,-280.5"/>
<text text-anchor="start" x="214.5" y="-298.5" font-family="Helvetica,sans-Serif" font-size="10.00">signal_easel::aprs</text>
<text text-anchor="middle" x="258.5" y="-287.5" font-family="Helvetica,sans-Serif" font-size="10.00">::encodePacket</text>
</a>
</g>
</g>
<!-- Node1&#45;&gt;Node10 -->
<g id="edge9" class="edge">
<title>Node1&#45;&gt;Node10</title>
<path fill="none" stroke="midnightblue" d="M109.27,-389.94C141.99,-369.09 192.34,-337.02 225.1,-316.14"/>
<polygon fill="midnightblue" stroke="midnightblue" points="227.3,-318.89 233.85,-310.57 223.53,-312.99 227.3,-318.89"/>
</g>
<!-- Node3 -->
<g id="node3" class="node">
<title>Node3</title>
<g id="a_node3"><a xlink:href="namespacesignal__easel_1_1aprs.html#a3d23780e9687c92289aa5d426f394aef" target="_top" xlink:title=" ">
<polygon fill="none" stroke="black" points="381,-524.5 381,-554.5 485,-554.5 485,-524.5 381,-524.5"/>
<text text-anchor="start" x="389" y="-542.5" font-family="Helvetica,sans-Serif" font-size="10.00">signal_easel::aprs</text>
<text text-anchor="middle" x="433" y="-531.5" font-family="Helvetica,sans-Serif" font-size="10.00">::base91Encode</text>
</a>
</g>
</g>
<!-- Node2&#45;&gt;Node3 -->
<g id="edge2" class="edge">
<title>Node2&#45;&gt;Node3</title>
<path fill="none" stroke="midnightblue" d="M311.26,-505.2C330.1,-510.56 351.58,-516.66 371.15,-522.21"/>
<polygon fill="midnightblue" stroke="midnightblue" points="370.3,-525.61 380.88,-524.98 372.21,-518.88 370.3,-525.61"/>
</g>
<!-- Node4 -->
<g id="node4" class="node">
<title>Node4</title>
<g id="a_node4"><a xlink:href="namespacesignal__easel_1_1aprs.html#a7e5cf8507153513e6f422dc8ead78da4" target="_top" xlink:title=" ">
<polygon fill="none" stroke="black" points="375,-475.5 375,-505.5 491,-505.5 491,-475.5 375,-475.5"/>
<text text-anchor="start" x="383" y="-493.5" font-family="Helvetica,sans-Serif" font-size="10.00">signal_easel::aprs</text>
<text text-anchor="middle" x="433" y="-482.5" font-family="Helvetica,sans-Serif" font-size="10.00">::checkLocationData</text>
</a>
</g>
</g>
<!-- Node2&#45;&gt;Node4 -->
<g id="edge3" class="edge">
<title>Node2&#45;&gt;Node4</title>
<path fill="none" stroke="midnightblue" d="M311.26,-490.5C328.01,-490.5 346.85,-490.5 364.57,-490.5"/>
<polygon fill="midnightblue" stroke="midnightblue" points="364.86,-494 374.86,-490.5 364.86,-487 364.86,-494"/>
</g>
<!-- Node6 -->
<g id="node6" class="node">
<title>Node6</title>
<g id="a_node6"><a xlink:href="classsignal__easel_1_1Modulator.html#af99ee22156e320703891f0fda4df95e8" target="_top" xlink:title="Add a PCM sample to the audio buffer.">
<polygon fill="none" stroke="black" points="366.5,-426.5 366.5,-456.5 499.5,-456.5 499.5,-426.5 366.5,-426.5"/>
<text text-anchor="start" x="374.5" y="-444.5" font-family="Helvetica,sans-Serif" font-size="10.00">signal_easel::Modulator</text>
<text text-anchor="middle" x="433" y="-433.5" font-family="Helvetica,sans-Serif" font-size="10.00">::addAudioSample</text>
</a>
</g>
</g>
<!-- Node5&#45;&gt;Node6 -->
<g id="edge5" class="edge">
<title>Node5&#45;&gt;Node6</title>
<path fill="none" stroke="midnightblue" d="M329.17,-423.02C338.07,-424.62 347.21,-426.26 356.2,-427.88"/>
<polygon fill="midnightblue" stroke="midnightblue" points="355.8,-431.36 366.27,-429.69 357.04,-424.47 355.8,-431.36"/>
</g>
<!-- Node7 -->
<g id="node7" class="node">
<title>Node7</title>
<g id="a_node7"><a xlink:href="namespacesignal__easel.html#a815178bfbe2aee7cc2e3c74237233e6c" target="_top" xlink:title="Gets the bipolar value of a bit at a given index from a vector of bytes.">
<polygon fill="none" stroke="black" points="365,-377.5 365,-407.5 501,-407.5 501,-377.5 365,-377.5"/>
<text text-anchor="start" x="373" y="-395.5" font-family="Helvetica,sans-Serif" font-size="10.00">signal_easel::getBpBitAt</text>
<text text-anchor="middle" x="433" y="-384.5" font-family="Helvetica,sans-Serif" font-size="10.00">Index</text>
</a>
</g>
</g>
<!-- Node5&#45;&gt;Node7 -->
<g id="edge6" class="edge">
<title>Node5&#45;&gt;Node7</title>
<path fill="none" stroke="midnightblue" d="M329.17,-403.23C337.63,-402.35 346.32,-401.44 354.89,-400.55"/>
<polygon fill="midnightblue" stroke="midnightblue" points="355.29,-404.02 364.87,-399.5 354.56,-397.06 355.29,-404.02"/>
</g>
<!-- Node8 -->
<g id="node8" class="node">
<title>Node8</title>
<g id="a_node8"><a xlink:href="namespacesignal__easel.html#aa81833e925b9f020659999a2a4a82559" target="_top" xlink:title="Converts a bit to it&#39;s bipolar value (0 = 1, 1 = &#45;1)">
<polygon fill="none" stroke="black" points="537,-421 537,-440 702,-440 702,-421 537,-421"/>
<text text-anchor="middle" x="619.5" y="-428" font-family="Helvetica,sans-Serif" font-size="10.00">signal_easel::convertToBipolar</text>
</a>
</g>
</g>
<!-- Node7&#45;&gt;Node8 -->
<g id="edge7" class="edge">
<title>Node7&#45;&gt;Node8</title>
<path fill="none" stroke="midnightblue" d="M501.13,-406.33C521.22,-410.46 543.04,-414.96 562.34,-418.93"/>
<polygon fill="midnightblue" stroke="midnightblue" points="561.69,-422.37 572.19,-420.96 563.1,-415.52 561.69,-422.37"/>
</g>
<!-- Node9 -->
<g id="node9" class="node">
<title>Node9</title>
<g id="a_node9"><a xlink:href="namespacesignal__easel.html#a248ddb36f02c1436acd66c0409189637" target="_top" xlink:title="For reading a byte MSB first.">
<polygon fill="none" stroke="black" points="559,-383 559,-402 680,-402 680,-383 559,-383"/>
<text text-anchor="middle" x="619.5" y="-390" font-family="Helvetica,sans-Serif" font-size="10.00">signal_easel::isBitSet</text>
</a>
</g>
</g>
<!-- Node7&#45;&gt;Node9 -->
<g id="edge8" class="edge">
<title>Node7&#45;&gt;Node9</title>
<path fill="none" stroke="midnightblue" d="M501.13,-392.5C516.6,-392.5 533.08,-392.5 548.66,-392.5"/>
<polygon fill="midnightblue" stroke="midnightblue" points="548.75,-396 558.75,-392.5 548.75,-389 548.75,-396"/>
</g>
<!-- Node11 -->
<g id="node11" class="node">
<title>Node11</title>
<g id="a_node11"><a xlink:href="namespacesignal__easel_1_1aprs.html#a586b022fa0c917fa8557bbd5cdc6aeeb" target="_top" xlink:title=" ">
<polygon fill="none" stroke="black" points="563,-333.5 563,-363.5 676,-363.5 676,-333.5 563,-333.5"/>
<text text-anchor="start" x="571" y="-351.5" font-family="Helvetica,sans-Serif" font-size="10.00">signal_easel::aprs</text>
<text text-anchor="middle" x="619.5" y="-340.5" font-family="Helvetica,sans-Serif" font-size="10.00">::AddRequiredFields</text>
</a>
</g>
</g>
<!-- Node10&#45;&gt;Node11 -->
<g id="edge10" class="edge">
<title>Node10&#45;&gt;Node11</title>
<path fill="none" stroke="midnightblue" d="M310.55,-303.04C374.21,-312.43 483.12,-328.51 552.9,-338.82"/>
<polygon fill="midnightblue" stroke="midnightblue" points="552.5,-342.29 562.9,-340.29 553.52,-335.37 552.5,-342.29"/>
</g>
<!-- Node19 -->
<g id="node19" class="node">
<title>Node19</title>
<g id="a_node19"><a xlink:href="classsignal__easel_1_1ax25_1_1Frame.html#a2b4f6ebcb7592a7e5a21114c8fafa503" target="_top" xlink:title="A step beyond buildFrame. This function builds the frame, does the bit stuffing, adds the flags,...">
<polygon fill="none" stroke="black" points="370.5,-196.5 370.5,-226.5 495.5,-226.5 495.5,-196.5 370.5,-196.5"/>
<text text-anchor="start" x="378.5" y="-214.5" font-family="Helvetica,sans-Serif" font-size="10.00">signal_easel::ax25</text>
<text text-anchor="middle" x="433" y="-203.5" font-family="Helvetica,sans-Serif" font-size="10.00">::Frame::encodeFrame</text>
</a>
</g>
</g>
<!-- Node10&#45;&gt;Node19 -->
<g id="edge19" class="edge">
<title>Node10&#45;&gt;Node19</title>
<path fill="none" stroke="midnightblue" d="M290.34,-280.48C318.71,-266.67 360.94,-246.1 391.91,-231.02"/>
<polygon fill="midnightblue" stroke="midnightblue" points="393.68,-234.05 401.14,-226.53 390.61,-227.76 393.68,-234.05"/>
</g>
<!-- Node33 -->
<g id="node33" class="node">
<title>Node33</title>
<g id="a_node33"><a xlink:href="classsignal__easel_1_1ax25_1_1Frame.html#afc5c722b419621f2a4dccbe2208faea1" target="_top" xlink:title=" ">
<polygon fill="none" stroke="black" points="367.5,-147.5 367.5,-177.5 498.5,-177.5 498.5,-147.5 367.5,-147.5"/>
<text text-anchor="start" x="375.5" y="-165.5" font-family="Helvetica,sans-Serif" font-size="10.00">signal_easel::ax25</text>
<text text-anchor="middle" x="433" y="-154.5" font-family="Helvetica,sans-Serif" font-size="10.00">::Frame::setInformation</text>
</a>
</g>
</g>
<!-- Node10&#45;&gt;Node33 -->
<g id="edge37" class="edge">
<title>Node10&#45;&gt;Node33</title>
<path fill="none" stroke="midnightblue" d="M270.46,-280.34C287.99,-257.1 324.5,-212.62 365,-186.5 367.43,-184.93 369.98,-183.45 372.61,-182.05"/>
<polygon fill="midnightblue" stroke="midnightblue" points="374.29,-185.12 381.75,-177.61 371.23,-178.83 374.29,-185.12"/>
</g>
<!-- Node12 -->
<g id="node12" class="node">
<title>Node12</title>
<g id="a_node12"><a xlink:href="namespacesignal__easel_1_1aprs.html#ae16006b4c75ab6423ad8b90ea814a14f" target="_top" xlink:title=" ">
<polygon fill="none" stroke="black" points="769.5,-392.5 769.5,-422.5 876.5,-422.5 876.5,-392.5 769.5,-392.5"/>
<text text-anchor="start" x="777.5" y="-410.5" font-family="Helvetica,sans-Serif" font-size="10.00">signal_easel::aprs</text>
<text text-anchor="middle" x="823" y="-399.5" font-family="Helvetica,sans-Serif" font-size="10.00">::CheckPacketData</text>
</a>
</g>
</g>
<!-- Node11&#45;&gt;Node12 -->
<g id="edge11" class="edge">
<title>Node11&#45;&gt;Node12</title>
<path fill="none" stroke="midnightblue" d="M671.87,-363.54C698.99,-371.48 732.45,-381.28 760.89,-389.61"/>
<polygon fill="midnightblue" stroke="midnightblue" points="760.14,-393.04 770.73,-392.49 762.11,-386.32 760.14,-393.04"/>
</g>
<!-- Node13 -->
<g id="node13" class="node">
<title>Node13</title>
<g id="a_node13"><a xlink:href="classsignal__easel_1_1ax25_1_1Frame.html#a57b163ece54317da8d95f3b18b47c23d" target="_top" xlink:title="setters/getters for the frame.">
<polygon fill="none" stroke="black" points="738,-343.5 738,-373.5 908,-373.5 908,-343.5 738,-343.5"/>
<text text-anchor="start" x="746" y="-361.5" font-family="Helvetica,sans-Serif" font-size="10.00">signal_easel::ax25</text>
<text text-anchor="middle" x="823" y="-350.5" font-family="Helvetica,sans-Serif" font-size="10.00">::Frame::setDestinationAddress</text>
</a>
</g>
</g>
<!-- Node11&#45;&gt;Node13 -->
<g id="edge12" class="edge">
<title>Node11&#45;&gt;Node13</title>
<path fill="none" stroke="midnightblue" d="M676.09,-351.26C692.06,-352.05 709.94,-352.94 727.56,-353.81"/>
<polygon fill="midnightblue" stroke="midnightblue" points="727.73,-357.33 737.89,-354.33 728.08,-350.33 727.73,-357.33"/>
</g>
<!-- Node18 -->
<g id="node18" class="node">
<title>Node18</title>
<g id="a_node18"><a xlink:href="classsignal__easel_1_1ax25_1_1Frame.html#a402d26a81f82bb5c477e8930b75a771e" target="_top" xlink:title=" ">
<polygon fill="none" stroke="black" points="750,-294.5 750,-324.5 896,-324.5 896,-294.5 750,-294.5"/>
<text text-anchor="start" x="758" y="-312.5" font-family="Helvetica,sans-Serif" font-size="10.00">signal_easel::ax25</text>
<text text-anchor="middle" x="823" y="-301.5" font-family="Helvetica,sans-Serif" font-size="10.00">::Frame::setSourceAddress</text>
</a>
</g>
</g>
<!-- Node11&#45;&gt;Node18 -->
<g id="edge17" class="edge">
<title>Node11&#45;&gt;Node18</title>
<path fill="none" stroke="midnightblue" d="M676.09,-337.74C695.8,-333.92 718.42,-329.55 739.87,-325.4"/>
<polygon fill="midnightblue" stroke="midnightblue" points="740.81,-328.78 749.96,-323.44 739.48,-321.91 740.81,-328.78"/>
</g>
<!-- Node14 -->
<g id="node14" class="node">
<title>Node14</title>
<g id="a_node14"><a xlink:href="classsignal__easel_1_1ax25_1_1Address.html#a7fa6b0ef4241413893f201660991e4ea" target="_top" xlink:title="Checks if the address is valid, if not throws an exception with a specific error code.">
<polygon fill="none" stroke="black" points="944,-291.5 944,-321.5 1074,-321.5 1074,-291.5 944,-291.5"/>
<text text-anchor="start" x="952" y="-309.5" font-family="Helvetica,sans-Serif" font-size="10.00">signal_easel::ax25</text>
<text text-anchor="middle" x="1009" y="-298.5" font-family="Helvetica,sans-Serif" font-size="10.00">::Address::assertIsValid</text>
</a>
</g>
</g>
<!-- Node13&#45;&gt;Node14 -->
<g id="edge13" class="edge">
<title>Node13&#45;&gt;Node14</title>
<path fill="none" stroke="midnightblue" d="M877.22,-343.46C898.49,-337.45 923.13,-330.48 945.26,-324.23"/>
<polygon fill="midnightblue" stroke="midnightblue" points="946.23,-327.59 954.9,-321.51 944.32,-320.86 946.23,-327.59"/>
</g>
<!-- Node15 -->
<g id="node15" class="node">
<title>Node15</title>
<g id="a_node15"><a xlink:href="classsignal__easel_1_1ax25_1_1Address.html#af34b361f739b7995e7816b7a04465828" target="_top" xlink:title=" ">
<polygon fill="none" stroke="black" points="1110,-286 1110,-327 1275,-327 1275,-286 1110,-286"/>
<text text-anchor="start" x="1118" y="-315" font-family="Helvetica,sans-Serif" font-size="10.00">signal_easel::ax25</text>
<text text-anchor="start" x="1118" y="-304" font-family="Helvetica,sans-Serif" font-size="10.00">::Address::assertAddressString</text>
<text text-anchor="middle" x="1192.5" y="-293" font-family="Helvetica,sans-Serif" font-size="10.00">IsValid</text>
</a>
</g>
</g>
<!-- Node14&#45;&gt;Node15 -->
<g id="edge14" class="edge">
<title>Node14&#45;&gt;Node15</title>
<path fill="none" stroke="midnightblue" d="M1074.25,-306.5C1082.53,-306.5 1091.13,-306.5 1099.75,-306.5"/>
<polygon fill="midnightblue" stroke="midnightblue" points="1099.85,-310 1109.85,-306.5 1099.85,-303 1099.85,-310"/>
</g>
<!-- Node16 -->
<g id="node16" class="node">
<title>Node16</title>
<g id="a_node16"><a xlink:href="classsignal__easel_1_1ax25_1_1Address.html#a8b44c6e311d3462bd86eda03c1d384f0" target="_top" xlink:title=" ">
<polygon fill="none" stroke="black" points="1117.5,-233.5 1117.5,-263.5 1267.5,-263.5 1267.5,-233.5 1117.5,-233.5"/>
<text text-anchor="start" x="1125.5" y="-251.5" font-family="Helvetica,sans-Serif" font-size="10.00">signal_easel::ax25</text>
<text text-anchor="middle" x="1192.5" y="-240.5" font-family="Helvetica,sans-Serif" font-size="10.00">::Address::assertSsidIsValid</text>
</a>
</g>
</g>
<!-- Node14&#45;&gt;Node16 -->
<g id="edge15" class="edge">
<title>Node14&#45;&gt;Node16</title>
<path fill="none" stroke="midnightblue" d="M1057.21,-291.41C1080.95,-283.83 1109.9,-274.58 1134.83,-266.61"/>
<polygon fill="midnightblue" stroke="midnightblue" points="1136.06,-269.89 1144.52,-263.51 1133.93,-263.22 1136.06,-269.89"/>
</g>
<!-- Node17 -->
<g id="node17" class="node">
<title>Node17</title>
<g id="a_node17"><a xlink:href="classsignal__easel_1_1ax25_1_1Address.html#ad66c149737cc4aa52ae9e8860176acf3" target="_top" xlink:title=" ">
<polygon fill="none" stroke="black" points="1311,-208.5 1311,-238.5 1431,-238.5 1431,-208.5 1311,-208.5"/>
<text text-anchor="start" x="1319" y="-226.5" font-family="Helvetica,sans-Serif" font-size="10.00">signal_easel::ax25</text>
<text text-anchor="middle" x="1371" y="-215.5" font-family="Helvetica,sans-Serif" font-size="10.00">::Address::isSsidValid</text>
</a>
</g>
</g>
<!-- Node16&#45;&gt;Node17 -->
<g id="edge16" class="edge">
<title>Node16&#45;&gt;Node17</title>
<path fill="none" stroke="midnightblue" d="M1267.58,-238.01C1278.64,-236.44 1289.99,-234.83 1300.93,-233.28"/>
<polygon fill="midnightblue" stroke="midnightblue" points="1301.43,-236.75 1310.84,-231.88 1300.45,-229.82 1301.43,-236.75"/>
</g>
<!-- Node18&#45;&gt;Node14 -->
<g id="edge18" class="edge">
<title>Node18&#45;&gt;Node14</title>
<path fill="none" stroke="midnightblue" d="M896.19,-308.32C908.46,-308.12 921.23,-307.91 933.56,-307.71"/>
<polygon fill="midnightblue" stroke="midnightblue" points="933.85,-311.21 943.79,-307.55 933.73,-304.21 933.85,-311.21"/>
</g>
<!-- Node20 -->
<g id="node20" class="node">
<title>Node20</title>
<g id="a_node20"><a xlink:href="classsignal__easel_1_1BitStream.html#a9df75eb28c03717c9fad2d30a85de6e6" target="_top" xlink:title=" ">
<polygon fill="none" stroke="black" points="757,-245.5 757,-275.5 889,-275.5 889,-245.5 757,-245.5"/>
<text text-anchor="start" x="765" y="-263.5" font-family="Helvetica,sans-Serif" font-size="10.00">signal_easel::BitStream</text>
<text text-anchor="middle" x="823" y="-252.5" font-family="Helvetica,sans-Serif" font-size="10.00">::addBits</text>
</a>
</g>
</g>
<!-- Node19&#45;&gt;Node20 -->
<g id="edge20" class="edge">
<title>Node19&#45;&gt;Node20</title>
<path fill="none" stroke="midnightblue" d="M448.71,-226.54C467.33,-244.38 501.29,-273.13 537,-284.5 612.92,-308.68 705.64,-293.11 764.27,-278.13"/>
<polygon fill="midnightblue" stroke="midnightblue" points="765.32,-281.48 774.1,-275.55 763.53,-274.71 765.32,-281.48"/>
</g>
<!-- Node21 -->
<g id="node21" class="node">
<title>Node21</title>
<g id="a_node21"><a xlink:href="classsignal__easel_1_1BitStream.html#a81d4aea4c11f65e0c2b7ad2f0f0cc312" target="_top" xlink:title=" ">
<polygon fill="none" stroke="black" points="553.5,-245.5 553.5,-275.5 685.5,-275.5 685.5,-245.5 553.5,-245.5"/>
<text text-anchor="start" x="561.5" y="-263.5" font-family="Helvetica,sans-Serif" font-size="10.00">signal_easel::BitStream</text>
<text text-anchor="middle" x="619.5" y="-252.5" font-family="Helvetica,sans-Serif" font-size="10.00">::addOneBit</text>
</a>
</g>
</g>
<!-- Node19&#45;&gt;Node21 -->
<g id="edge21" class="edge">
<title>Node19&#45;&gt;Node21</title>
<path fill="none" stroke="midnightblue" d="M490.61,-226.53C510.09,-231.71 532.08,-237.55 552.26,-242.91"/>
<polygon fill="midnightblue" stroke="midnightblue" points="551.43,-246.31 562,-245.49 553.23,-239.54 551.43,-246.31"/>
</g>
<!-- Node22 -->
<g id="node22" class="node">
<title>Node22</title>
<g id="a_node22"><a xlink:href="classsignal__easel_1_1BitStream.html#abb315beec8c4d88115d9d4ec5f082863" target="_top" xlink:title=" ">
<polygon fill="none" stroke="black" points="553.5,-196.5 553.5,-226.5 685.5,-226.5 685.5,-196.5 553.5,-196.5"/>
<text text-anchor="start" x="561.5" y="-214.5" font-family="Helvetica,sans-Serif" font-size="10.00">signal_easel::BitStream</text>
<text text-anchor="middle" x="619.5" y="-203.5" font-family="Helvetica,sans-Serif" font-size="10.00">::addZeroBit</text>
</a>
</g>
</g>
<!-- Node19&#45;&gt;Node22 -->
<g id="edge23" class="edge">
<title>Node19&#45;&gt;Node22</title>
<path fill="none" stroke="midnightblue" d="M495.69,-211.5C510.9,-211.5 527.36,-211.5 543.14,-211.5"/>
<polygon fill="midnightblue" stroke="midnightblue" points="543.39,-215 553.39,-211.5 543.39,-208 543.39,-215"/>
</g>
<!-- Node23 -->
<g id="node23" class="node">
<title>Node23</title>
<g id="a_node23"><a xlink:href="classsignal__easel_1_1ax25_1_1Frame.html#a24e7d5ffc6504a3380e97142d1bc084e" target="_top" xlink:title="Builds all internal portions of the frame. Doesn&#39;t include the flags.">
<polygon fill="none" stroke="black" points="562.5,-147.5 562.5,-177.5 676.5,-177.5 676.5,-147.5 562.5,-147.5"/>
<text text-anchor="start" x="570.5" y="-165.5" font-family="Helvetica,sans-Serif" font-size="10.00">signal_easel::ax25</text>
<text text-anchor="middle" x="619.5" y="-154.5" font-family="Helvetica,sans-Serif" font-size="10.00">::Frame::buildFrame</text>
</a>
</g>
</g>
<!-- Node19&#45;&gt;Node23 -->
<g id="edge25" class="edge">
<title>Node19&#45;&gt;Node23</title>
<path fill="none" stroke="midnightblue" d="M490.61,-196.47C510.18,-191.27 532.28,-185.4 552.54,-180.02"/>
<polygon fill="midnightblue" stroke="midnightblue" points="553.55,-183.37 562.31,-177.42 551.75,-176.61 553.55,-183.37"/>
</g>
<!-- Node30 -->
<g id="node30" class="node">
<title>Node30</title>
<g id="a_node30"><a xlink:href="classsignal__easel_1_1BitStream.html#aa97152ef51f73088e103a7951134aa85" target="_top" xlink:title=" ">
<polygon fill="none" stroke="black" points="553.5,-98.5 553.5,-128.5 685.5,-128.5 685.5,-98.5 553.5,-98.5"/>
<text text-anchor="start" x="561.5" y="-116.5" font-family="Helvetica,sans-Serif" font-size="10.00">signal_easel::BitStream</text>
<text text-anchor="middle" x="619.5" y="-105.5" font-family="Helvetica,sans-Serif" font-size="10.00">::getBitStreamLength</text>
</a>
</g>
</g>
<!-- Node19&#45;&gt;Node30 -->
<g id="edge34" class="edge">
<title>Node19&#45;&gt;Node30</title>
<path fill="none" stroke="midnightblue" d="M484.36,-196.43C490.25,-193.61 495.95,-190.32 501,-186.5 522.56,-170.21 514.88,-153.02 537,-137.5 539.38,-135.83 541.87,-134.28 544.45,-132.83"/>
<polygon fill="midnightblue" stroke="midnightblue" points="546.11,-135.91 553.49,-128.32 542.98,-129.65 546.11,-135.91"/>
</g>
<!-- Node31 -->
<g id="node31" class="node">
<title>Node31</title>
<g id="a_node31"><a xlink:href="classsignal__easel_1_1BitStream.html#a5b5339586e09ca5c25a7e9ded0118ffb" target="_top" xlink:title="Returns the next bit of the bit stream that will be encoded.">
<polygon fill="none" stroke="black" points="553.5,-49.5 553.5,-79.5 685.5,-79.5 685.5,-49.5 553.5,-49.5"/>
<text text-anchor="start" x="561.5" y="-67.5" font-family="Helvetica,sans-Serif" font-size="10.00">signal_easel::BitStream</text>
<text text-anchor="middle" x="619.5" y="-56.5" font-family="Helvetica,sans-Serif" font-size="10.00">::popNextBit</text>
</a>
</g>
</g>
<!-- Node19&#45;&gt;Node31 -->
<g id="edge35" class="edge">
<title>Node19&#45;&gt;Node31</title>
<path fill="none" stroke="midnightblue" d="M487.82,-196.43C492.64,-193.65 497.15,-190.37 501,-186.5 533.73,-153.61 503.13,-120.22 537,-88.5 539.29,-86.35 541.77,-84.39 544.39,-82.61"/>
<polygon fill="midnightblue" stroke="midnightblue" points="546.28,-85.56 553.14,-77.49 542.74,-79.52 546.28,-85.56"/>
</g>
<!-- Node32 -->
<g id="node32" class="node">
<title>Node32</title>
<g id="a_node32"><a xlink:href="namespacesignal__easel_1_1ax25.html#a56c64a06f2dc7d2d270c32e1063400ae" target="_top" xlink:title="Reverse a byte.">
<polygon fill="none" stroke="black" points="566,-0.5 566,-30.5 673,-30.5 673,-0.5 566,-0.5"/>
<text text-anchor="start" x="574" y="-18.5" font-family="Helvetica,sans-Serif" font-size="10.00">signal_easel::ax25</text>
<text text-anchor="middle" x="619.5" y="-7.5" font-family="Helvetica,sans-Serif" font-size="10.00">::reverseByte</text>
</a>
</g>
</g>
<!-- Node19&#45;&gt;Node32 -->
<g id="edge36" class="edge">
<title>Node19&#45;&gt;Node32</title>
<path fill="none" stroke="midnightblue" d="M488.92,-196.47C493.4,-193.69 497.53,-190.4 501,-186.5 545.7,-136.24 490.55,-88.15 537,-39.5 542.44,-33.8 549.17,-29.43 556.39,-26.09"/>
<polygon fill="midnightblue" stroke="midnightblue" points="557.75,-29.32 565.77,-22.39 555.18,-22.81 557.75,-29.32"/>
</g>
<!-- Node21&#45;&gt;Node20 -->
<g id="edge22" class="edge">
<title>Node21&#45;&gt;Node20</title>
<path fill="none" stroke="midnightblue" d="M685.64,-260.5C705.12,-260.5 726.63,-260.5 746.7,-260.5"/>
<polygon fill="midnightblue" stroke="midnightblue" points="746.74,-264 756.74,-260.5 746.74,-257 746.74,-264"/>
</g>
<!-- Node22&#45;&gt;Node20 -->
<g id="edge24" class="edge">
<title>Node22&#45;&gt;Node20</title>
<path fill="none" stroke="midnightblue" d="M682.33,-226.53C703.89,-231.78 728.27,-237.71 750.55,-243.13"/>
<polygon fill="midnightblue" stroke="midnightblue" points="749.75,-246.53 760.29,-245.49 751.4,-239.73 749.75,-246.53"/>
</g>
<!-- Node24 -->
<g id="node24" class="node">
<title>Node24</title>
<g id="a_node24"><a xlink:href="namespacesignal__easel_1_1ax25.html#a6d799107f96d783e620cd508488ab8eb" target="_top" xlink:title="Calculate the Frame Check Sequence (FCS) on a vector of bytes.">
<polygon fill="none" stroke="black" points="769.5,-196.5 769.5,-226.5 876.5,-226.5 876.5,-196.5 769.5,-196.5"/>
<text text-anchor="start" x="777.5" y="-214.5" font-family="Helvetica,sans-Serif" font-size="10.00">signal_easel::ax25</text>
<text text-anchor="middle" x="823" y="-203.5" font-family="Helvetica,sans-Serif" font-size="10.00">::calculateFcs</text>
</a>
</g>
</g>
<!-- Node23&#45;&gt;Node24 -->
<g id="edge26" class="edge">
<title>Node23&#45;&gt;Node24</title>
<path fill="none" stroke="midnightblue" d="M676.63,-176.15C702.34,-182.4 732.91,-189.84 759.37,-196.27"/>
<polygon fill="midnightblue" stroke="midnightblue" points="758.74,-199.72 769.29,-198.68 760.4,-192.92 758.74,-199.72"/>
</g>
<!-- Node25 -->
<g id="node25" class="node">
<title>Node25</title>
<g id="a_node25"><a xlink:href="classsignal__easel_1_1ax25_1_1Address.html#a0c31737081a9184b56dc32150b23cb0a" target="_top" xlink:title="Get the address as a byte array.">
<polygon fill="none" stroke="black" points="752,-147.5 752,-177.5 894,-177.5 894,-147.5 752,-147.5"/>
<text text-anchor="start" x="760" y="-165.5" font-family="Helvetica,sans-Serif" font-size="10.00">signal_easel::ax25</text>
<text text-anchor="middle" x="823" y="-154.5" font-family="Helvetica,sans-Serif" font-size="10.00">::Address::encodeAddress</text>
</a>
</g>
</g>
<!-- Node23&#45;&gt;Node25 -->
<g id="edge27" class="edge">
<title>Node23&#45;&gt;Node25</title>
<path fill="none" stroke="midnightblue" d="M676.63,-162.5C696.73,-162.5 719.81,-162.5 741.57,-162.5"/>
<polygon fill="midnightblue" stroke="midnightblue" points="741.79,-166 751.79,-162.5 741.79,-159 741.79,-166"/>
</g>
<!-- Node26 -->
<g id="node26" class="node">
<title>Node26</title>
<g id="a_node26"><a xlink:href="classsignal__easel_1_1ax25_1_1Frame.html#a640edeabbda34e78cc243e3561747bf9" target="_top" xlink:title=" ">
<polygon fill="none" stroke="black" points="762,-98.5 762,-128.5 884,-128.5 884,-98.5 762,-98.5"/>
<text text-anchor="start" x="770" y="-116.5" font-family="Helvetica,sans-Serif" font-size="10.00">signal_easel::ax25</text>
<text text-anchor="middle" x="823" y="-105.5" font-family="Helvetica,sans-Serif" font-size="10.00">::Frame::isFrameValid</text>
</a>
</g>
</g>
<!-- Node23&#45;&gt;Node26 -->
<g id="edge29" class="edge">
<title>Node23&#45;&gt;Node26</title>
<path fill="none" stroke="midnightblue" d="M676.63,-148.85C699.96,-143.18 727.3,-136.53 751.93,-130.54"/>
<polygon fill="midnightblue" stroke="midnightblue" points="753.05,-133.87 761.94,-128.1 751.4,-127.07 753.05,-133.87"/>
</g>
<!-- Node29 -->
<g id="node29" class="node">
<title>Node29</title>
<g id="a_node29"><a xlink:href="classsignal__easel_1_1ax25_1_1Address.html#a1a5bc573535cfc1f8723c121e3451e7c" target="_top" xlink:title="Set the as the last address in the AX.25 frame (Sets a bit in the ssid byte)">
<polygon fill="none" stroke="black" points="748,-49.5 748,-79.5 898,-79.5 898,-49.5 748,-49.5"/>
<text text-anchor="start" x="756" y="-67.5" font-family="Helvetica,sans-Serif" font-size="10.00">signal_easel::ax25</text>
<text text-anchor="middle" x="823" y="-56.5" font-family="Helvetica,sans-Serif" font-size="10.00">::Address::setIsLastAddress</text>
</a>
</g>
</g>
<!-- Node23&#45;&gt;Node29 -->
<g id="edge33" class="edge">
<title>Node23&#45;&gt;Node29</title>
<path fill="none" stroke="midnightblue" d="M676.66,-150.5C685.6,-147.15 694.4,-142.9 702,-137.5 724.03,-121.86 715.82,-103.93 738,-88.5 740.26,-86.93 742.62,-85.46 745.05,-84.09"/>
<polygon fill="midnightblue" stroke="midnightblue" points="746.78,-87.14 754.15,-79.53 743.64,-80.88 746.78,-87.14"/>
</g>
<!-- Node25&#45;&gt;Node14 -->
<g id="edge28" class="edge">
<title>Node25&#45;&gt;Node14</title>
<path fill="none" stroke="midnightblue" d="M891.2,-177.67C897.09,-180.18 902.79,-183.11 908,-186.5 946.22,-211.39 977.38,-255.36 994.26,-282.61"/>
<polygon fill="midnightblue" stroke="midnightblue" points="991.46,-284.74 999.62,-291.49 997.45,-281.12 991.46,-284.74"/>
</g>
<!-- Node27 -->
<g id="node27" class="node">
<title>Node27</title>
<g id="a_node27"><a xlink:href="classsignal__easel_1_1ax25_1_1Address.html#aae81920cfd0dc7d89cb107f9d825488c" target="_top" xlink:title="If the address is valid (can be encoded correctly or was decoded)">
<polygon fill="none" stroke="black" points="955.5,-122.5 955.5,-152.5 1062.5,-152.5 1062.5,-122.5 955.5,-122.5"/>
<text text-anchor="start" x="963.5" y="-140.5" font-family="Helvetica,sans-Serif" font-size="10.00">signal_easel::ax25</text>
<text text-anchor="middle" x="1009" y="-129.5" font-family="Helvetica,sans-Serif" font-size="10.00">::Address::isValid</text>
</a>
</g>
</g>
<!-- Node26&#45;&gt;Node27 -->
<g id="edge30" class="edge">
<title>Node26&#45;&gt;Node27</title>
<path fill="none" stroke="midnightblue" d="M884.25,-121.36C903.79,-123.91 925.52,-126.74 945.24,-129.31"/>
<polygon fill="midnightblue" stroke="midnightblue" points="944.99,-132.81 955.35,-130.63 945.89,-125.87 944.99,-132.81"/>
</g>
<!-- Node27&#45;&gt;Node17 -->
<g id="edge32" class="edge">
<title>Node27&#45;&gt;Node17</title>
<path fill="none" stroke="midnightblue" d="M1057.34,-152.54C1073.92,-157.59 1092.71,-163.05 1110,-167.5 1174.28,-184.04 1248.34,-199.66 1300.93,-210.18"/>
<polygon fill="midnightblue" stroke="midnightblue" points="1300.34,-213.63 1310.83,-212.15 1301.7,-206.76 1300.34,-213.63"/>
</g>
<!-- Node28 -->
<g id="node28" class="node">
<title>Node28</title>
<g id="a_node28"><a xlink:href="classsignal__easel_1_1ax25_1_1Address.html#a56c55b48bfc809a33aa0e22a5aeb95ca" target="_top" xlink:title=" ">
<polygon fill="none" stroke="black" points="1121,-117 1121,-158 1264,-158 1264,-117 1121,-117"/>
<text text-anchor="start" x="1129" y="-146" font-family="Helvetica,sans-Serif" font-size="10.00">signal_easel::ax25</text>
<text text-anchor="start" x="1129" y="-135" font-family="Helvetica,sans-Serif" font-size="10.00">::Address::isAddressString</text>
<text text-anchor="middle" x="1192.5" y="-124" font-family="Helvetica,sans-Serif" font-size="10.00">Valid</text>
</a>
</g>
</g>
<!-- Node27&#45;&gt;Node28 -->
<g id="edge31" class="edge">
<title>Node27&#45;&gt;Node28</title>
<path fill="none" stroke="midnightblue" d="M1062.99,-137.5C1077.98,-137.5 1094.64,-137.5 1110.87,-137.5"/>
<polygon fill="midnightblue" stroke="midnightblue" points="1110.89,-141 1120.89,-137.5 1110.89,-134 1110.89,-141"/>
</g>
</g>
</svg>
