<?xml version="1.0" encoding="UTF-8" standalone="no"?>
<!DOCTYPE svg PUBLIC "-//W3C//DTD SVG 1.1//EN"
 "http://www.w3.org/Graphics/SVG/1.1/DTD/svg11.dtd">
<!-- Generated by graphviz version 2.43.0 (0)
 -->
<!-- Title: signal_easel::ax25::Address::assertIsValid Pages: 1 -->
<svg width="1135pt" height="244pt"
 viewBox="0.00 0.00 1135.00 244.00" xmlns="http://www.w3.org/2000/svg" xmlns:xlink="http://www.w3.org/1999/xlink">
<g id="graph0" class="graph" transform="scale(1 1) rotate(0) translate(4 240)">
<title>signal_easel::ax25::Address::assertIsValid</title>
<!-- Node1 -->
<g id="node1" class="node">
<title>Node1</title>
<g id="a_node1"><a xlink:title="Checks if the address is valid, if not throws an exception with a specific error code.">
<polygon fill="#bfbfbf" stroke="black" points="997,-107.5 997,-137.5 1127,-137.5 1127,-107.5 997,-107.5"/>
<text text-anchor="start" x="1005" y="-125.5" font-family="Helvetica,sans-Serif" font-size="10.00">signal_easel::ax25</text>
<text text-anchor="middle" x="1062" y="-114.5" font-family="Helvetica,sans-Serif" font-size="10.00">::Address::assertIsValid</text>
</a>
</g>
</g>
<!-- Node2 -->
<g id="node2" class="node">
<title>Node2</title>
<g id="a_node2"><a xlink:href="classsignal__easel_1_1ax25_1_1Frame.html#af86d4b534367a8faf6b628301c9ffceb" target="_top" xlink:title=" ">
<polygon fill="none" stroke="black" points="795.5,-205.5 795.5,-235.5 956.5,-235.5 956.5,-205.5 795.5,-205.5"/>
<text text-anchor="start" x="803.5" y="-223.5" font-family="Helvetica,sans-Serif" font-size="10.00">signal_easel::ax25</text>
<text text-anchor="middle" x="876" y="-212.5" font-family="Helvetica,sans-Serif" font-size="10.00">::Frame::addRepeaterAddress</text>
</a>
</g>
</g>
<!-- Node1&#45;&gt;Node2 -->
<g id="edge1" class="edge">
<title>Node1&#45;&gt;Node2</title>
<path fill="none" stroke="midnightblue" d="M1036.85,-144.28C1017.54,-160.68 989.14,-182.64 961,-196.5 954.2,-199.85 946.85,-202.81 939.42,-205.4"/>
<polygon fill="midnightblue" stroke="midnightblue" points="1039.26,-146.82 1044.54,-137.63 1034.68,-141.53 1039.26,-146.82"/>
</g>
<!-- Node7 -->
<g id="node7" class="node">
<title>Node7</title>
<g id="a_node7"><a xlink:href="classsignal__easel_1_1ax25_1_1Address.html#a0c31737081a9184b56dc32150b23cb0a" target="_top" xlink:title="Get the address as a byte array.">
<polygon fill="none" stroke="black" points="805,-19.5 805,-49.5 947,-49.5 947,-19.5 805,-19.5"/>
<text text-anchor="start" x="813" y="-37.5" font-family="Helvetica,sans-Serif" font-size="10.00">signal_easel::ax25</text>
<text text-anchor="middle" x="876" y="-26.5" font-family="Helvetica,sans-Serif" font-size="10.00">::Address::encodeAddress</text>
</a>
</g>
</g>
<!-- Node1&#45;&gt;Node7 -->
<g id="edge6" class="edge">
<title>Node1&#45;&gt;Node7</title>
<path fill="none" stroke="midnightblue" d="M1029.15,-102.02C1009.89,-90.15 984.58,-75.44 961,-64.5 949.2,-59.03 936.1,-53.92 923.82,-49.52"/>
<polygon fill="midnightblue" stroke="midnightblue" points="1027.47,-105.1 1037.81,-107.42 1031.18,-99.16 1027.47,-105.1"/>
</g>
<!-- Node15 -->
<g id="node15" class="node">
<title>Node15</title>
<g id="a_node15"><a xlink:href="classsignal__easel_1_1ax25_1_1Frame.html#a57b163ece54317da8d95f3b18b47c23d" target="_top" xlink:title="setters/getters for the frame.">
<polygon fill="none" stroke="black" points="791,-156.5 791,-186.5 961,-186.5 961,-156.5 791,-156.5"/>
<text text-anchor="start" x="799" y="-174.5" font-family="Helvetica,sans-Serif" font-size="10.00">signal_easel::ax25</text>
<text text-anchor="middle" x="876" y="-163.5" font-family="Helvetica,sans-Serif" font-size="10.00">::Frame::setDestinationAddress</text>
</a>
</g>
</g>
<!-- Node1&#45;&gt;Node15 -->
<g id="edge15" class="edge">
<title>Node1&#45;&gt;Node15</title>
<path fill="none" stroke="midnightblue" d="M994.82,-140.12C974.69,-145.48 952.77,-151.32 933.35,-156.49"/>
<polygon fill="midnightblue" stroke="midnightblue" points="995.78,-143.49 1004.54,-137.53 993.98,-136.73 995.78,-143.49"/>
</g>
<!-- Node17 -->
<g id="node17" class="node">
<title>Node17</title>
<g id="a_node17"><a xlink:href="ax25__frame__test_8cpp.html#a091d83d42783f2a0b3fd33a0521dc2ce" target="_top" xlink:title=" ">
<polygon fill="none" stroke="black" points="667,-88 667,-107 708,-107 708,-88 667,-88"/>
<text text-anchor="middle" x="687.5" y="-95" font-family="Helvetica,sans-Serif" font-size="10.00">TEST</text>
</a>
</g>
</g>
<!-- Node1&#45;&gt;Node17 -->
<g id="edge24" class="edge">
<title>Node1&#45;&gt;Node17</title>
<path fill="none" stroke="midnightblue" d="M998.69,-105.2C986.3,-102.42 973.31,-99.98 961,-98.5 866.82,-87.18 753.01,-92.98 708.09,-96.02"/>
<polygon fill="midnightblue" stroke="midnightblue" points="997.95,-108.62 1008.48,-107.48 999.54,-101.8 997.95,-108.62"/>
</g>
<!-- Node18 -->
<g id="node18" class="node">
<title>Node18</title>
<g id="a_node18"><a xlink:href="classsignal__easel_1_1ax25_1_1Frame.html#a402d26a81f82bb5c477e8930b75a771e" target="_top" xlink:title=" ">
<polygon fill="none" stroke="black" points="803,-107.5 803,-137.5 949,-137.5 949,-107.5 803,-107.5"/>
<text text-anchor="start" x="811" y="-125.5" font-family="Helvetica,sans-Serif" font-size="10.00">signal_easel::ax25</text>
<text text-anchor="middle" x="876" y="-114.5" font-family="Helvetica,sans-Serif" font-size="10.00">::Frame::setSourceAddress</text>
</a>
</g>
</g>
<!-- Node1&#45;&gt;Node18 -->
<g id="edge20" class="edge">
<title>Node1&#45;&gt;Node18</title>
<path fill="none" stroke="midnightblue" d="M986.62,-122.5C974.22,-122.5 961.38,-122.5 949.05,-122.5"/>
<polygon fill="midnightblue" stroke="midnightblue" points="986.9,-126 996.9,-122.5 986.9,-119 986.9,-126"/>
</g>
<!-- Node3 -->
<g id="node3" class="node">
<title>Node3</title>
<g id="a_node3"><a xlink:href="classsignal__easel_1_1ax25_1_1Frame.html#a63cf2362c2a90d20f09bbbc4f24a07ba" target="_top" xlink:title="Attempt to parse an incoming bit stream into an AX.25 frame.">
<polygon fill="none" stroke="black" points="620,-175.5 620,-205.5 755,-205.5 755,-175.5 620,-175.5"/>
<text text-anchor="start" x="628" y="-193.5" font-family="Helvetica,sans-Serif" font-size="10.00">signal_easel::ax25</text>
<text text-anchor="middle" x="687.5" y="-182.5" font-family="Helvetica,sans-Serif" font-size="10.00">::Frame::parseBitStream</text>
</a>
</g>
</g>
<!-- Node2&#45;&gt;Node3 -->
<g id="edge2" class="edge">
<title>Node2&#45;&gt;Node3</title>
<path fill="none" stroke="midnightblue" d="M785.29,-206.07C775.17,-204.44 765,-202.81 755.26,-201.24"/>
<polygon fill="midnightblue" stroke="midnightblue" points="784.94,-209.56 795.37,-207.69 786.05,-202.65 784.94,-209.56"/>
</g>
<!-- Node4 -->
<g id="node4" class="node">
<title>Node4</title>
<g id="a_node4"><a xlink:href="classsignal__easel_1_1aprs_1_1Demodulator.html#ae5a8e7634c1bc8d215a0c454a9a737fa" target="_top" xlink:title=" ">
<polygon fill="none" stroke="black" points="431,-170 431,-211 584,-211 584,-170 431,-170"/>
<text text-anchor="start" x="439" y="-199" font-family="Helvetica,sans-Serif" font-size="10.00">signal_easel::aprs</text>
<text text-anchor="start" x="439" y="-188" font-family="Helvetica,sans-Serif" font-size="10.00">::Demodulator::lookForAx25</text>
<text text-anchor="middle" x="507.5" y="-177" font-family="Helvetica,sans-Serif" font-size="10.00">Packet</text>
</a>
</g>
</g>
<!-- Node3&#45;&gt;Node4 -->
<g id="edge3" class="edge">
<title>Node3&#45;&gt;Node4</title>
<path fill="none" stroke="midnightblue" d="M609.74,-190.5C601.29,-190.5 592.68,-190.5 584.23,-190.5"/>
<polygon fill="midnightblue" stroke="midnightblue" points="609.97,-194 619.97,-190.5 609.97,-187 609.97,-194"/>
</g>
<!-- Node5 -->
<g id="node5" class="node">
<title>Node5</title>
<g id="a_node5"><a xlink:href="classsignal__easel_1_1aprs_1_1Receiver.html#afbf7869aceaf2ea7ab0be8b9af16e818" target="_top" xlink:title=" ">
<polygon fill="none" stroke="black" points="288,-138.5 288,-168.5 395,-168.5 395,-138.5 288,-138.5"/>
<text text-anchor="start" x="296" y="-156.5" font-family="Helvetica,sans-Serif" font-size="10.00">signal_easel::aprs</text>
<text text-anchor="middle" x="341.5" y="-145.5" font-family="Helvetica,sans-Serif" font-size="10.00">::Receiver::decode</text>
</a>
</g>
</g>
<!-- Node4&#45;&gt;Node5 -->
<g id="edge4" class="edge">
<title>Node4&#45;&gt;Node5</title>
<path fill="none" stroke="midnightblue" d="M420.95,-171.2C412.27,-169.24 403.65,-167.3 395.47,-165.45"/>
<polygon fill="midnightblue" stroke="midnightblue" points="420.22,-174.62 430.74,-173.41 421.76,-167.79 420.22,-174.62"/>
</g>
<!-- Node6 -->
<g id="node6" class="node">
<title>Node6</title>
<g id="a_node6"><a xlink:href="aprs__test_8cpp.html#aea66d1824e3f1e27598adf99ac6a089a" target="_top" xlink:title=" ">
<polygon fill="none" stroke="black" points="0,-163 0,-182 41,-182 41,-163 0,-163"/>
<text text-anchor="middle" x="20.5" y="-170" font-family="Helvetica,sans-Serif" font-size="10.00">TEST</text>
</a>
</g>
</g>
<!-- Node4&#45;&gt;Node6 -->
<g id="edge5" class="edge">
<title>Node4&#45;&gt;Node6</title>
<path fill="none" stroke="midnightblue" d="M420.71,-190.11C333.94,-189.25 196.02,-186.58 77,-178.5 65.11,-177.69 51.83,-176.28 41.24,-175.02"/>
<polygon fill="midnightblue" stroke="midnightblue" points="420.74,-193.61 430.77,-190.21 420.8,-186.61 420.74,-193.61"/>
</g>
<!-- Node8 -->
<g id="node8" class="node">
<title>Node8</title>
<g id="a_node8"><a xlink:href="classsignal__easel_1_1ax25_1_1Frame.html#a24e7d5ffc6504a3380e97142d1bc084e" target="_top" xlink:title="Builds all internal portions of the frame. Doesn&#39;t include the flags.">
<polygon fill="none" stroke="black" points="630.5,-0.5 630.5,-30.5 744.5,-30.5 744.5,-0.5 630.5,-0.5"/>
<text text-anchor="start" x="638.5" y="-18.5" font-family="Helvetica,sans-Serif" font-size="10.00">signal_easel::ax25</text>
<text text-anchor="middle" x="687.5" y="-7.5" font-family="Helvetica,sans-Serif" font-size="10.00">::Frame::buildFrame</text>
</a>
</g>
</g>
<!-- Node7&#45;&gt;Node8 -->
<g id="edge7" class="edge">
<title>Node7&#45;&gt;Node8</title>
<path fill="none" stroke="midnightblue" d="M794.42,-26.29C777.68,-24.59 760.38,-22.82 744.74,-21.23"/>
<polygon fill="midnightblue" stroke="midnightblue" points="794.45,-29.81 804.76,-27.34 795.16,-22.85 794.45,-29.81"/>
</g>
<!-- Node14 -->
<g id="node14" class="node">
<title>Node14</title>
<g id="a_node14"><a xlink:href="ax25__address__test_8cpp.html#a1d87028368532ba4ae914da9397571d3" target="_top" xlink:title=" ">
<polygon fill="none" stroke="black" points="667,-50 667,-69 708,-69 708,-50 667,-50"/>
<text text-anchor="middle" x="687.5" y="-57" font-family="Helvetica,sans-Serif" font-size="10.00">TEST</text>
</a>
</g>
</g>
<!-- Node7&#45;&gt;Node14 -->
<g id="edge14" class="edge">
<title>Node7&#45;&gt;Node14</title>
<path fill="none" stroke="midnightblue" d="M794.55,-45.28C762.81,-49.54 729.07,-54.06 708.38,-56.84"/>
<polygon fill="midnightblue" stroke="midnightblue" points="795.31,-48.71 804.76,-43.92 794.38,-41.78 795.31,-48.71"/>
</g>
<!-- Node9 -->
<g id="node9" class="node">
<title>Node9</title>
<g id="a_node9"><a xlink:href="classsignal__easel_1_1ax25_1_1Frame.html#a2b4f6ebcb7592a7e5a21114c8fafa503" target="_top" xlink:title="A step beyond buildFrame. This function builds the frame, does the bit stuffing, adds the flags,...">
<polygon fill="none" stroke="black" points="445,-62.5 445,-92.5 570,-92.5 570,-62.5 445,-62.5"/>
<text text-anchor="start" x="453" y="-80.5" font-family="Helvetica,sans-Serif" font-size="10.00">signal_easel::ax25</text>
<text text-anchor="middle" x="507.5" y="-69.5" font-family="Helvetica,sans-Serif" font-size="10.00">::Frame::encodeFrame</text>
</a>
</g>
</g>
<!-- Node8&#45;&gt;Node9 -->
<g id="edge8" class="edge">
<title>Node8&#45;&gt;Node9</title>
<path fill="none" stroke="midnightblue" d="M633.68,-33.9C607.58,-42.99 576.48,-53.82 551.81,-62.41"/>
<polygon fill="midnightblue" stroke="midnightblue" points="635.12,-37.1 643.41,-30.51 632.82,-30.49 635.12,-37.1"/>
</g>
<!-- Node10 -->
<g id="node10" class="node">
<title>Node10</title>
<g id="a_node10"><a xlink:href="namespacesignal__easel_1_1aprs.html#a77481001a5b78a839972bb4220b43e4d" target="_top" xlink:title=" ">
<polygon fill="none" stroke="black" points="289.5,-78.5 289.5,-108.5 393.5,-108.5 393.5,-78.5 289.5,-78.5"/>
<text text-anchor="start" x="297.5" y="-96.5" font-family="Helvetica,sans-Serif" font-size="10.00">signal_easel::aprs</text>
<text text-anchor="middle" x="341.5" y="-85.5" font-family="Helvetica,sans-Serif" font-size="10.00">::encodePacket</text>
</a>
</g>
</g>
<!-- Node9&#45;&gt;Node10 -->
<g id="edge9" class="edge">
<title>Node9&#45;&gt;Node10</title>
<path fill="none" stroke="midnightblue" d="M434.94,-84.48C421.04,-85.84 406.74,-87.23 393.66,-88.51"/>
<polygon fill="midnightblue" stroke="midnightblue" points="435.35,-87.96 444.97,-83.5 434.67,-80.99 435.35,-87.96"/>
</g>
<!-- Node11 -->
<g id="node11" class="node">
<title>Node11</title>
<g id="a_node11"><a xlink:href="classsignal__easel_1_1aprs_1_1Modulator.html#adfa8809d1c11321b9ff2c7efe7f58499" target="_top" xlink:title=" ">
<polygon fill="none" stroke="black" points="77,-78.5 77,-108.5 252,-108.5 252,-78.5 77,-78.5"/>
<text text-anchor="start" x="85" y="-96.5" font-family="Helvetica,sans-Serif" font-size="10.00">signal_easel::aprs</text>
<text text-anchor="middle" x="164.5" y="-85.5" font-family="Helvetica,sans-Serif" font-size="10.00">::Modulator::encodeMessageAck</text>
</a>
</g>
</g>
<!-- Node10&#45;&gt;Node11 -->
<g id="edge10" class="edge">
<title>Node10&#45;&gt;Node11</title>
<path fill="none" stroke="midnightblue" d="M279.31,-93.5C270.53,-93.5 261.37,-93.5 252.21,-93.5"/>
<polygon fill="midnightblue" stroke="midnightblue" points="279.41,-97 289.41,-93.5 279.41,-90 279.41,-97"/>
</g>
<!-- Node12 -->
<g id="node12" class="node">
<title>Node12</title>
<g id="a_node12"><a xlink:href="classsignal__easel_1_1aprs_1_1Modulator.html#a147321b48c2e282c62863f114702e54f" target="_top" xlink:title=" ">
<polygon fill="none" stroke="black" points="86,-128 86,-169 243,-169 243,-128 86,-128"/>
<text text-anchor="start" x="94" y="-157" font-family="Helvetica,sans-Serif" font-size="10.00">signal_easel::aprs</text>
<text text-anchor="start" x="94" y="-146" font-family="Helvetica,sans-Serif" font-size="10.00">::Modulator::encodeMessage</text>
<text text-anchor="middle" x="164.5" y="-135" font-family="Helvetica,sans-Serif" font-size="10.00">Packet</text>
</a>
</g>
</g>
<!-- Node10&#45;&gt;Node12 -->
<g id="edge11" class="edge">
<title>Node10&#45;&gt;Node12</title>
<path fill="none" stroke="midnightblue" d="M283.08,-111.55C266.42,-116.78 248.09,-122.54 230.97,-127.92"/>
<polygon fill="midnightblue" stroke="midnightblue" points="284.19,-114.87 292.68,-108.53 282.09,-108.19 284.19,-114.87"/>
</g>
<!-- Node13 -->
<g id="node13" class="node">
<title>Node13</title>
<g id="a_node13"><a xlink:href="classsignal__easel_1_1aprs_1_1Modulator.html#a943e392227656943d7db842e1889d805" target="_top" xlink:title=" ">
<polygon fill="none" stroke="black" points="88.5,-18 88.5,-59 240.5,-59 240.5,-18 88.5,-18"/>
<text text-anchor="start" x="96.5" y="-47" font-family="Helvetica,sans-Serif" font-size="10.00">signal_easel::aprs</text>
<text text-anchor="start" x="96.5" y="-36" font-family="Helvetica,sans-Serif" font-size="10.00">::Modulator::encodePosition</text>
<text text-anchor="middle" x="164.5" y="-25" font-family="Helvetica,sans-Serif" font-size="10.00">Packet</text>
</a>
</g>
</g>
<!-- Node10&#45;&gt;Node13 -->
<g id="edge13" class="edge">
<title>Node10&#45;&gt;Node13</title>
<path fill="none" stroke="midnightblue" d="M283.08,-75.45C266.42,-70.22 248.09,-64.46 230.97,-59.08"/>
<polygon fill="midnightblue" stroke="midnightblue" points="282.09,-78.81 292.68,-78.47 284.19,-72.13 282.09,-78.81"/>
</g>
<!-- Node12&#45;&gt;Node6 -->
<g id="edge12" class="edge">
<title>Node12&#45;&gt;Node6</title>
<path fill="none" stroke="midnightblue" d="M75.84,-163.32C62.91,-165.5 50.76,-167.55 41.24,-169.16"/>
<polygon fill="midnightblue" stroke="midnightblue" points="76.58,-166.74 85.85,-161.62 75.41,-159.84 76.58,-166.74"/>
</g>
<!-- Node15&#45;&gt;Node3 -->
<g id="edge18" class="edge">
<title>Node15&#45;&gt;Node3</title>
<path fill="none" stroke="midnightblue" d="M780.62,-181.11C771.99,-181.99 763.36,-182.87 755.04,-183.72"/>
<polygon fill="midnightblue" stroke="midnightblue" points="781.16,-184.58 790.75,-180.08 780.45,-177.61 781.16,-184.58"/>
</g>
<!-- Node16 -->
<g id="node16" class="node">
<title>Node16</title>
<g id="a_node16"><a xlink:href="namespacesignal__easel_1_1aprs.html#a586b022fa0c917fa8557bbd5cdc6aeeb" target="_top" xlink:title=" ">
<polygon fill="none" stroke="black" points="631,-126.5 631,-156.5 744,-156.5 744,-126.5 631,-126.5"/>
<text text-anchor="start" x="639" y="-144.5" font-family="Helvetica,sans-Serif" font-size="10.00">signal_easel::aprs</text>
<text text-anchor="middle" x="687.5" y="-133.5" font-family="Helvetica,sans-Serif" font-size="10.00">::AddRequiredFields</text>
</a>
</g>
</g>
<!-- Node15&#45;&gt;Node16 -->
<g id="edge16" class="edge">
<title>Node15&#45;&gt;Node16</title>
<path fill="none" stroke="midnightblue" d="M780.71,-156.33C768.16,-154.31 755.64,-152.3 744.06,-150.44"/>
<polygon fill="midnightblue" stroke="midnightblue" points="780.32,-159.82 790.75,-157.95 781.44,-152.9 780.32,-159.82"/>
</g>
<!-- Node15&#45;&gt;Node17 -->
<g id="edge19" class="edge">
<title>Node15&#45;&gt;Node17</title>
<path fill="none" stroke="midnightblue" d="M801.97,-152.7C798.2,-151.09 794.52,-149.36 791,-147.5 772.59,-137.76 773.34,-127.37 755,-117.5 740.24,-109.56 721.9,-104.35 708.23,-101.24"/>
<polygon fill="midnightblue" stroke="midnightblue" points="800.91,-156.05 811.5,-156.46 803.48,-149.53 800.91,-156.05"/>
</g>
<!-- Node16&#45;&gt;Node10 -->
<g id="edge17" class="edge">
<title>Node16&#45;&gt;Node10</title>
<path fill="none" stroke="midnightblue" d="M620.54,-132.3C554.38,-123.06 453.9,-109.04 393.58,-100.63"/>
<polygon fill="midnightblue" stroke="midnightblue" points="620.46,-135.82 630.85,-133.73 621.43,-128.89 620.46,-135.82"/>
</g>
<!-- Node18&#45;&gt;Node3 -->
<g id="edge22" class="edge">
<title>Node18&#45;&gt;Node3</title>
<path fill="none" stroke="midnightblue" d="M809.15,-140.74C802.96,-142.86 796.82,-145.12 791,-147.5 774.25,-154.34 771.55,-159.19 755,-166.5 747.93,-169.62 740.31,-172.66 732.84,-175.47"/>
<polygon fill="midnightblue" stroke="midnightblue" points="810.49,-143.98 818.89,-137.53 808.3,-137.34 810.49,-143.98"/>
</g>
<!-- Node18&#45;&gt;Node16 -->
<g id="edge21" class="edge">
<title>Node18&#45;&gt;Node16</title>
<path fill="none" stroke="midnightblue" d="M792.76,-130.88C776.35,-132.55 759.48,-134.27 744.22,-135.82"/>
<polygon fill="midnightblue" stroke="midnightblue" points="793.3,-134.34 802.89,-129.85 792.59,-127.38 793.3,-134.34"/>
</g>
<!-- Node18&#45;&gt;Node17 -->
<g id="edge23" class="edge">
<title>Node18&#45;&gt;Node17</title>
<path fill="none" stroke="midnightblue" d="M792.83,-111.49C761.59,-107.3 728.67,-102.88 708.36,-100.16"/>
<polygon fill="midnightblue" stroke="midnightblue" points="792.52,-114.97 802.89,-112.83 793.45,-108.04 792.52,-114.97"/>
</g>
</g>
</svg>
