<?xml version="1.0" encoding="UTF-8" standalone="no"?>
<!DOCTYPE svg PUBLIC "-//W3C//DTD SVG 1.1//EN"
 "http://www.w3.org/Graphics/SVG/1.1/DTD/svg11.dtd">
<!-- Generated by graphviz version 2.43.0 (0)
 -->
<!-- Title: signal_easel::aprs::telemetry::TelemetryData Pages: 1 -->
<svg width="752pt" height="391pt"
 viewBox="0.00 0.00 752.00 391.00" xmlns="http://www.w3.org/2000/svg" xmlns:xlink="http://www.w3.org/1999/xlink">
<g id="graph0" class="graph" transform="scale(1 1) rotate(0) translate(4 387)">
<title>signal_easel::aprs::telemetry::TelemetryData</title>
<!-- Node1 -->
<g id="node1" class="node">
<title>Node1</title>
<g id="a_node1"><a xlink:title="A container for telemetry data. Contains all of the components of APRS telemetry messages.">
<polygon fill="#bfbfbf" stroke="black" points="252,-0.5 252,-178.5 420,-178.5 420,-0.5 252,-0.5"/>
<text text-anchor="start" x="260" y="-166.5" font-family="Helvetica,sans-Serif" font-size="10.00">signal_easel::aprs</text>
<text text-anchor="middle" x="336" y="-155.5" font-family="Helvetica,sans-Serif" font-size="10.00">::telemetry::TelemetryData</text>
<polyline fill="none" stroke="black" points="252,-148.5 420,-148.5 "/>
<text text-anchor="middle" x="336" y="-136.5" font-family="Helvetica,sans-Serif" font-size="10.00"> </text>
<polyline fill="none" stroke="black" points="252,-129.5 420,-129.5 "/>
<text text-anchor="start" x="260" y="-117.5" font-family="Helvetica,sans-Serif" font-size="10.00">+ TelemetryData()</text>
<text text-anchor="start" x="260" y="-106.5" font-family="Helvetica,sans-Serif" font-size="10.00">+ ~TelemetryData()</text>
<text text-anchor="start" x="260" y="-95.5" font-family="Helvetica,sans-Serif" font-size="10.00">+ getAnalog()</text>
<text text-anchor="start" x="260" y="-84.5" font-family="Helvetica,sans-Serif" font-size="10.00">+ getAnalogParameters()</text>
<text text-anchor="start" x="260" y="-73.5" font-family="Helvetica,sans-Serif" font-size="10.00">+ getAnalogParametersConst()</text>
<text text-anchor="start" x="260" y="-62.5" font-family="Helvetica,sans-Serif" font-size="10.00">+ getComment()</text>
<text text-anchor="start" x="260" y="-51.5" font-family="Helvetica,sans-Serif" font-size="10.00">+ getDigital()</text>
<text text-anchor="start" x="260" y="-40.5" font-family="Helvetica,sans-Serif" font-size="10.00">+ getDigitalParameters()</text>
<text text-anchor="start" x="260" y="-29.5" font-family="Helvetica,sans-Serif" font-size="10.00">+ getDigitalParametersConst()</text>
<text text-anchor="start" x="260" y="-18.5" font-family="Helvetica,sans-Serif" font-size="10.00">+ getProjectTitle()</text>
<text text-anchor="start" x="260" y="-7.5" font-family="Helvetica,sans-Serif" font-size="10.00">and 8 more...</text>
</a>
</g>
</g>
<!-- Node2 -->
<g id="node2" class="node">
<title>Node2</title>
<g id="a_node2"><a xlink:title=" ">
<polygon fill="none" stroke="black" points="0,-314.5 0,-371.5 126,-371.5 126,-314.5 0,-314.5"/>
<text text-anchor="middle" x="63" y="-359.5" font-family="Helvetica,sans-Serif" font-size="10.00">static constexpr size_t</text>
<polyline fill="none" stroke="black" points="0,-352.5 126,-352.5 "/>
<text text-anchor="middle" x="63" y="-340.5" font-family="Helvetica,sans-Serif" font-size="10.00"> </text>
<polyline fill="none" stroke="black" points="0,-333.5 126,-333.5 "/>
<text text-anchor="middle" x="63" y="-321.5" font-family="Helvetica,sans-Serif" font-size="10.00"> </text>
</a>
</g>
</g>
<!-- Node2&#45;&gt;Node1 -->
<g id="edge1" class="edge">
<title>Node2&#45;&gt;Node1</title>
<path fill="none" stroke="#404040" d="M57.61,-314.49C53.07,-282.94 50.79,-231.17 76,-197 114.4,-144.97 182.75,-118.26 239.74,-104.61"/>
<polygon fill="none" stroke="#404040" points="240.01,-104.55 244.97,-99.32 251.71,-101.89 246.75,-107.12 240.01,-104.55"/>
<text text-anchor="start" x="76" y="-277" font-family="Helvetica,sans-Serif" font-size="10.00"> +COMMENT_MAX_LENGTH</text>
<text text-anchor="middle" x="144" y="-266" font-family="Helvetica,sans-Serif" font-size="10.00">_</text>
<text text-anchor="start" x="76" y="-255" font-family="Helvetica,sans-Serif" font-size="10.00">+PROJECT_TITLE</text>
<text text-anchor="middle" x="144" y="-244" font-family="Helvetica,sans-Serif" font-size="10.00">_MAX_LENGTH_</text>
<text text-anchor="start" x="76" y="-233" font-family="Helvetica,sans-Serif" font-size="10.00">+SEQUENCE_NUMBER</text>
<text text-anchor="middle" x="144" y="-222" font-family="Helvetica,sans-Serif" font-size="10.00">_MAX_</text>
<text text-anchor="start" x="76" y="-211" font-family="Helvetica,sans-Serif" font-size="10.00">+TELEMETRY_STATION</text>
<text text-anchor="middle" x="144" y="-200" font-family="Helvetica,sans-Serif" font-size="10.00">_ADDRESS_MAX_LENGTH_</text>
</g>
<!-- Node3 -->
<g id="node3" class="node">
<title>Node3</title>
<g id="a_node3"><a xlink:title=" ">
<polygon fill="none" stroke="black" points="200,-314.5 200,-371.5 244,-371.5 244,-314.5 200,-314.5"/>
<text text-anchor="middle" x="222" y="-359.5" font-family="Helvetica,sans-Serif" font-size="10.00">string</text>
<polyline fill="none" stroke="black" points="200,-352.5 244,-352.5 "/>
<text text-anchor="middle" x="222" y="-340.5" font-family="Helvetica,sans-Serif" font-size="10.00"> </text>
<polyline fill="none" stroke="black" points="200,-333.5 244,-333.5 "/>
<text text-anchor="middle" x="222" y="-321.5" font-family="Helvetica,sans-Serif" font-size="10.00"> </text>
</a>
</g>
</g>
<!-- Node3&#45;&gt;Node1 -->
<g id="edge2" class="edge">
<title>Node3&#45;&gt;Node1</title>
<path fill="none" stroke="#404040" d="M218.17,-314.46C215.19,-284.25 214.02,-235 231,-197 234.72,-188.68 239.39,-180.63 244.69,-172.95"/>
<polygon fill="none" stroke="#404040" points="244.86,-172.72 245.2,-165.51 251.99,-163.06 251.64,-170.26 244.86,-172.72"/>
<text text-anchor="middle" x="276.5" y="-255" font-family="Helvetica,sans-Serif" font-size="10.00"> &#45;comment_</text>
<text text-anchor="middle" x="276.5" y="-244" font-family="Helvetica,sans-Serif" font-size="10.00">&#45;project_title_</text>
<text text-anchor="start" x="231" y="-233" font-family="Helvetica,sans-Serif" font-size="10.00">&#45;telemetry_station</text>
<text text-anchor="middle" x="276.5" y="-222" font-family="Helvetica,sans-Serif" font-size="10.00">_address_</text>
</g>
<!-- Node4 -->
<g id="node4" class="node">
<title>Node4</title>
<g id="a_node4"><a xlink:title=" ">
<polygon fill="none" stroke="black" points="295,-314.5 295,-371.5 351,-371.5 351,-314.5 295,-314.5"/>
<text text-anchor="middle" x="323" y="-359.5" font-family="Helvetica,sans-Serif" font-size="10.00">uint16_t</text>
<polyline fill="none" stroke="black" points="295,-352.5 351,-352.5 "/>
<text text-anchor="middle" x="323" y="-340.5" font-family="Helvetica,sans-Serif" font-size="10.00"> </text>
<polyline fill="none" stroke="black" points="295,-333.5 351,-333.5 "/>
<text text-anchor="middle" x="323" y="-321.5" font-family="Helvetica,sans-Serif" font-size="10.00"> </text>
</a>
</g>
</g>
<!-- Node4&#45;&gt;Node1 -->
<g id="edge3" class="edge">
<title>Node4&#45;&gt;Node1</title>
<path fill="none" stroke="#404040" d="M324.44,-314.12C325.98,-284.31 328.52,-235.28 330.82,-190.72"/>
<polygon fill="none" stroke="#404040" points="330.83,-190.58 327.14,-184.38 331.45,-178.6 335.13,-184.79 330.83,-190.58"/>
<text text-anchor="middle" x="381" y="-238.5" font-family="Helvetica,sans-Serif" font-size="10.00"> &#45;sequence_number_</text>
</g>
<!-- Node5 -->
<g id="node5" class="node">
<title>Node5</title>
<g id="a_node5"><a xlink:title=" ">
<polygon fill="none" stroke="black" points="369,-309 369,-377 579,-377 579,-309 369,-309"/>
<text text-anchor="start" x="377" y="-365" font-family="Helvetica,sans-Serif" font-size="10.00">array&lt; signal_easel</text>
<text text-anchor="middle" x="474" y="-354" font-family="Helvetica,sans-Serif" font-size="10.00">::aprs::telemetry::AnalogParameter, 5 &gt;</text>
<polyline fill="none" stroke="black" points="369,-347 579,-347 "/>
<text text-anchor="middle" x="474" y="-335" font-family="Helvetica,sans-Serif" font-size="10.00"> </text>
<polyline fill="none" stroke="black" points="369,-328 579,-328 "/>
<text text-anchor="middle" x="474" y="-316" font-family="Helvetica,sans-Serif" font-size="10.00"> </text>
</a>
</g>
</g>
<!-- Node5&#45;&gt;Node1 -->
<g id="edge4" class="edge">
<title>Node5&#45;&gt;Node1</title>
<path fill="none" stroke="#404040" d="M470.08,-308.88C465.4,-278.3 455.58,-232.41 436,-197 433.34,-192.19 430.41,-187.43 427.28,-182.74"/>
<polygon fill="none" stroke="#404040" points="427.06,-182.42 420.33,-179.83 420.13,-172.62 426.86,-175.22 427.06,-182.42"/>
<text text-anchor="middle" x="518.5" y="-238.5" font-family="Helvetica,sans-Serif" font-size="10.00"> &#45;analog_parameters_</text>
</g>
<!-- Node6 -->
<g id="node6" class="node">
<title>Node6</title>
<g id="a_node6"><a xlink:title=" ">
<polygon fill="none" stroke="black" points="597.5,-303.5 597.5,-382.5 732.5,-382.5 732.5,-303.5 597.5,-303.5"/>
<text text-anchor="start" x="605.5" y="-370.5" font-family="Helvetica,sans-Serif" font-size="10.00">array&lt; signal_easel</text>
<text text-anchor="start" x="605.5" y="-359.5" font-family="Helvetica,sans-Serif" font-size="10.00">::aprs::telemetry::Digital</text>
<text text-anchor="middle" x="665" y="-348.5" font-family="Helvetica,sans-Serif" font-size="10.00">Parameter, 8 &gt;</text>
<polyline fill="none" stroke="black" points="597.5,-341.5 732.5,-341.5 "/>
<text text-anchor="middle" x="665" y="-329.5" font-family="Helvetica,sans-Serif" font-size="10.00"> </text>
<polyline fill="none" stroke="black" points="597.5,-322.5 732.5,-322.5 "/>
<text text-anchor="middle" x="665" y="-310.5" font-family="Helvetica,sans-Serif" font-size="10.00"> </text>
</a>
</g>
</g>
<!-- Node6&#45;&gt;Node1 -->
<g id="edge5" class="edge">
<title>Node6&#45;&gt;Node1</title>
<path fill="none" stroke="#404040" d="M649.16,-303.34C634.33,-271.25 609.45,-226.28 576,-197 534.65,-160.8 479.01,-135.08 431.73,-117.99"/>
<polygon fill="none" stroke="#404040" points="431.53,-117.93 424.54,-119.71 420.21,-113.94 427.2,-112.16 431.53,-117.93"/>
<text text-anchor="middle" x="691.5" y="-238.5" font-family="Helvetica,sans-Serif" font-size="10.00"> &#45;digital_parameters_</text>
</g>
</g>
</svg>
