<?xml version="1.0" encoding="UTF-8" standalone="no"?>
<!DOCTYPE svg PUBLIC "-//W3C//DTD SVG 1.1//EN"
 "http://www.w3.org/Graphics/SVG/1.1/DTD/svg11.dtd">
<!-- Generated by graphviz version 2.43.0 (0)
 -->
<!-- Title: signal_easel::ax25::Frame::parseNrziDecodedBitStream Pages: 1 -->
<svg width="901pt" height="333pt"
 viewBox="0.00 0.00 901.00 333.00" xmlns="http://www.w3.org/2000/svg" xmlns:xlink="http://www.w3.org/1999/xlink">
<g id="graph0" class="graph" transform="scale(1 1) rotate(0) translate(4 329)">
<title>signal_easel::ax25::Frame::parseNrziDecodedBitStream</title>
<!-- Node1 -->
<g id="node1" class="node">
<title>Node1</title>
<g id="a_node1"><a xlink:title="Attempt to parse a single AX.25 frame from an already NRZI&#45;decoded bit stream. Unlike parseBitStream,...">
<polygon fill="#bfbfbf" stroke="black" points="0,-191 0,-232 162,-232 162,-191 0,-191"/>
<text text-anchor="start" x="8" y="-220" font-family="Helvetica,sans-Serif" font-size="10.00">signal_easel::ax25</text>
<text text-anchor="start" x="8" y="-209" font-family="Helvetica,sans-Serif" font-size="10.00">::Frame::parseNrziDecodedBit</text>
<text text-anchor="middle" x="81" y="-198" font-family="Helvetica,sans-Serif" font-size="10.00">Stream</text>
</a>
</g>
</g>
<!-- Node2 -->
<g id="node2" class="node">
<title>Node2</title>
<g id="a_node2"><a xlink:href="classsignal__easel_1_1ax25_1_1Frame.html#af86d4b534367a8faf6b628301c9ffceb" target="_top" xlink:title=" ">
<polygon fill="none" stroke="black" points="202.5,-294.5 202.5,-324.5 363.5,-324.5 363.5,-294.5 202.5,-294.5"/>
<text text-anchor="start" x="210.5" y="-312.5" font-family="Helvetica,sans-Serif" font-size="10.00">signal_easel::ax25</text>
<text text-anchor="middle" x="283" y="-301.5" font-family="Helvetica,sans-Serif" font-size="10.00">::Frame::addRepeaterAddress</text>
</a>
</g>
</g>
<!-- Node1&#45;&gt;Node2 -->
<g id="edge1" class="edge">
<title>Node1&#45;&gt;Node2</title>
<path fill="none" stroke="midnightblue" d="M109.3,-232.15C132.03,-248.52 165.76,-270.98 198,-285.5 202.35,-287.46 206.9,-289.3 211.54,-291.02"/>
<polygon fill="midnightblue" stroke="midnightblue" points="210.54,-294.38 221.14,-294.39 212.86,-287.77 210.54,-294.38"/>
</g>
<!-- Node7 -->
<g id="node7" class="node">
<title>Node7</title>
<g id="a_node7"><a xlink:href="namespacesignal__easel_1_1ax25.html#aa3ad759477950552b79497f19c77ba0b" target="_top" xlink:title=" ">
<polygon fill="none" stroke="black" points="229.5,-98.5 229.5,-128.5 336.5,-128.5 336.5,-98.5 229.5,-98.5"/>
<text text-anchor="start" x="237.5" y="-116.5" font-family="Helvetica,sans-Serif" font-size="10.00">signal_easel::ax25</text>
<text text-anchor="middle" x="283" y="-105.5" font-family="Helvetica,sans-Serif" font-size="10.00">::deStuffBytes</text>
</a>
</g>
</g>
<!-- Node1&#45;&gt;Node7 -->
<g id="edge6" class="edge">
<title>Node1&#45;&gt;Node7</title>
<path fill="none" stroke="midnightblue" d="M109.3,-190.85C132.03,-174.48 165.76,-152.02 198,-137.5 204.75,-134.46 211.98,-131.71 219.26,-129.24"/>
<polygon fill="midnightblue" stroke="midnightblue" points="220.73,-132.45 229.18,-126.06 218.59,-125.78 220.73,-132.45"/>
</g>
<!-- Node12 -->
<g id="node12" class="node">
<title>Node12</title>
<g id="a_node12"><a xlink:href="namespacesignal__easel_1_1ax25.html#aedc3a21287bb20d2f0b01c9a2d6797f3" target="_top" xlink:title="Finds the start flags in the bit stream and removes them.">
<polygon fill="none" stroke="black" points="229.5,-147.5 229.5,-177.5 336.5,-177.5 336.5,-147.5 229.5,-147.5"/>
<text text-anchor="start" x="237.5" y="-165.5" font-family="Helvetica,sans-Serif" font-size="10.00">signal_easel::ax25</text>
<text text-anchor="middle" x="283" y="-154.5" font-family="Helvetica,sans-Serif" font-size="10.00">::findStartFlags</text>
</a>
</g>
</g>
<!-- Node1&#45;&gt;Node12 -->
<g id="edge11" class="edge">
<title>Node1&#45;&gt;Node12</title>
<path fill="none" stroke="midnightblue" d="M162.2,-191.85C181.27,-187.18 201.34,-182.26 219.49,-177.82"/>
<polygon fill="midnightblue" stroke="midnightblue" points="220.47,-181.18 229.35,-175.4 218.81,-174.38 220.47,-181.18"/>
</g>
<!-- Node14 -->
<g id="node14" class="node">
<title>Node14</title>
<g id="a_node14"><a xlink:href="classsignal__easel_1_1ax25_1_1Frame.html#a57b163ece54317da8d95f3b18b47c23d" target="_top" xlink:title="setters/getters for the frame.">
<polygon fill="none" stroke="black" points="198,-245.5 198,-275.5 368,-275.5 368,-245.5 198,-245.5"/>
<text text-anchor="start" x="206" y="-263.5" font-family="Helvetica,sans-Serif" font-size="10.00">signal_easel::ax25</text>
<text text-anchor="middle" x="283" y="-252.5" font-family="Helvetica,sans-Serif" font-size="10.00">::Frame::setDestinationAddress</text>
</a>
</g>
</g>
<!-- Node1&#45;&gt;Node14 -->
<g id="edge15" class="edge">
<title>Node1&#45;&gt;Node14</title>
<path fill="none" stroke="midnightblue" d="M162.2,-231.15C178.15,-235.06 194.81,-239.14 210.46,-242.97"/>
<polygon fill="midnightblue" stroke="midnightblue" points="210.03,-246.47 220.57,-245.45 211.69,-239.67 210.03,-246.47"/>
</g>
<!-- Node15 -->
<g id="node15" class="node">
<title>Node15</title>
<g id="a_node15"><a xlink:href="classsignal__easel_1_1ax25_1_1Frame.html#a402d26a81f82bb5c477e8930b75a771e" target="_top" xlink:title=" ">
<polygon fill="none" stroke="black" points="210,-196.5 210,-226.5 356,-226.5 356,-196.5 210,-196.5"/>
<text text-anchor="start" x="218" y="-214.5" font-family="Helvetica,sans-Serif" font-size="10.00">signal_easel::ax25</text>
<text text-anchor="middle" x="283" y="-203.5" font-family="Helvetica,sans-Serif" font-size="10.00">::Frame::setSourceAddress</text>
</a>
</g>
</g>
<!-- Node1&#45;&gt;Node15 -->
<g id="edge17" class="edge">
<title>Node1&#45;&gt;Node15</title>
<path fill="none" stroke="midnightblue" d="M162.2,-211.5C174.51,-211.5 187.23,-211.5 199.59,-211.5"/>
<polygon fill="midnightblue" stroke="midnightblue" points="199.87,-215 209.87,-211.5 199.87,-208 199.87,-215"/>
</g>
<!-- Node3 -->
<g id="node3" class="node">
<title>Node3</title>
<g id="a_node3"><a xlink:href="classsignal__easel_1_1ax25_1_1Address.html#a7fa6b0ef4241413893f201660991e4ea" target="_top" xlink:title="Checks if the address is valid, if not throws an exception with a specific error code.">
<polygon fill="none" stroke="black" points="405,-245.5 405,-275.5 535,-275.5 535,-245.5 405,-245.5"/>
<text text-anchor="start" x="413" y="-263.5" font-family="Helvetica,sans-Serif" font-size="10.00">signal_easel::ax25</text>
<text text-anchor="middle" x="470" y="-252.5" font-family="Helvetica,sans-Serif" font-size="10.00">::Address::assertIsValid</text>
</a>
</g>
</g>
<!-- Node2&#45;&gt;Node3 -->
<g id="edge2" class="edge">
<title>Node2&#45;&gt;Node3</title>
<path fill="none" stroke="midnightblue" d="M340.76,-294.47C360.3,-289.29 382.34,-283.45 402.58,-278.09"/>
<polygon fill="midnightblue" stroke="midnightblue" points="403.57,-281.45 412.34,-275.51 401.78,-274.68 403.57,-281.45"/>
</g>
<!-- Node4 -->
<g id="node4" class="node">
<title>Node4</title>
<g id="a_node4"><a xlink:href="classsignal__easel_1_1ax25_1_1Address.html#af34b361f739b7995e7816b7a04465828" target="_top" xlink:title=" ">
<polygon fill="none" stroke="black" points="572,-267 572,-308 737,-308 737,-267 572,-267"/>
<text text-anchor="start" x="580" y="-296" font-family="Helvetica,sans-Serif" font-size="10.00">signal_easel::ax25</text>
<text text-anchor="start" x="580" y="-285" font-family="Helvetica,sans-Serif" font-size="10.00">::Address::assertAddressString</text>
<text text-anchor="middle" x="654.5" y="-274" font-family="Helvetica,sans-Serif" font-size="10.00">IsValid</text>
</a>
</g>
</g>
<!-- Node3&#45;&gt;Node4 -->
<g id="edge3" class="edge">
<title>Node3&#45;&gt;Node4</title>
<path fill="none" stroke="midnightblue" d="M535.09,-269.98C543.74,-271.26 552.76,-272.6 561.78,-273.93"/>
<polygon fill="midnightblue" stroke="midnightblue" points="561.54,-277.43 571.95,-275.43 562.57,-270.51 561.54,-277.43"/>
</g>
<!-- Node5 -->
<g id="node5" class="node">
<title>Node5</title>
<g id="a_node5"><a xlink:href="classsignal__easel_1_1ax25_1_1Address.html#a8b44c6e311d3462bd86eda03c1d384f0" target="_top" xlink:title=" ">
<polygon fill="none" stroke="black" points="579.5,-217.5 579.5,-247.5 729.5,-247.5 729.5,-217.5 579.5,-217.5"/>
<text text-anchor="start" x="587.5" y="-235.5" font-family="Helvetica,sans-Serif" font-size="10.00">signal_easel::ax25</text>
<text text-anchor="middle" x="654.5" y="-224.5" font-family="Helvetica,sans-Serif" font-size="10.00">::Address::assertSsidIsValid</text>
</a>
</g>
</g>
<!-- Node3&#45;&gt;Node5 -->
<g id="edge4" class="edge">
<title>Node3&#45;&gt;Node5</title>
<path fill="none" stroke="midnightblue" d="M535.09,-250.67C546.13,-248.97 557.75,-247.19 569.23,-245.43"/>
<polygon fill="midnightblue" stroke="midnightblue" points="569.91,-248.87 579.26,-243.89 568.85,-241.95 569.91,-248.87"/>
</g>
<!-- Node6 -->
<g id="node6" class="node">
<title>Node6</title>
<g id="a_node6"><a xlink:href="classsignal__easel_1_1ax25_1_1Address.html#ad66c149737cc4aa52ae9e8860176acf3" target="_top" xlink:title=" ">
<polygon fill="none" stroke="black" points="773,-217.5 773,-247.5 893,-247.5 893,-217.5 773,-217.5"/>
<text text-anchor="start" x="781" y="-235.5" font-family="Helvetica,sans-Serif" font-size="10.00">signal_easel::ax25</text>
<text text-anchor="middle" x="833" y="-224.5" font-family="Helvetica,sans-Serif" font-size="10.00">::Address::isSsidValid</text>
</a>
</g>
</g>
<!-- Node5&#45;&gt;Node6 -->
<g id="edge5" class="edge">
<title>Node5&#45;&gt;Node6</title>
<path fill="none" stroke="midnightblue" d="M729.58,-232.5C740.52,-232.5 751.76,-232.5 762.6,-232.5"/>
<polygon fill="midnightblue" stroke="midnightblue" points="762.84,-236 772.84,-232.5 762.84,-229 762.84,-236"/>
</g>
<!-- Node8 -->
<g id="node8" class="node">
<title>Node8</title>
<g id="a_node8"><a xlink:href="classsignal__easel_1_1BitStream.html#aa97152ef51f73088e103a7951134aa85" target="_top" xlink:title=" ">
<polygon fill="none" stroke="black" points="404,-147.5 404,-177.5 536,-177.5 536,-147.5 404,-147.5"/>
<text text-anchor="start" x="412" y="-165.5" font-family="Helvetica,sans-Serif" font-size="10.00">signal_easel::BitStream</text>
<text text-anchor="middle" x="470" y="-154.5" font-family="Helvetica,sans-Serif" font-size="10.00">::getBitStreamLength</text>
</a>
</g>
</g>
<!-- Node7&#45;&gt;Node8 -->
<g id="edge7" class="edge">
<title>Node7&#45;&gt;Node8</title>
<path fill="none" stroke="midnightblue" d="M336.52,-127.41C356.99,-132.83 380.7,-139.11 402.35,-144.85"/>
<polygon fill="midnightblue" stroke="midnightblue" points="401.58,-148.26 412.14,-147.44 403.37,-141.5 401.58,-148.26"/>
</g>
<!-- Node9 -->
<g id="node9" class="node">
<title>Node9</title>
<g id="a_node9"><a xlink:href="classsignal__easel_1_1BitStream.html#ad7b803a89b3a53ec1e4108122861a90b" target="_top" xlink:title="Returns the next bit of the bit stream without removing it.">
<polygon fill="none" stroke="black" points="404,-49.5 404,-79.5 536,-79.5 536,-49.5 404,-49.5"/>
<text text-anchor="start" x="412" y="-67.5" font-family="Helvetica,sans-Serif" font-size="10.00">signal_easel::BitStream</text>
<text text-anchor="middle" x="470" y="-56.5" font-family="Helvetica,sans-Serif" font-size="10.00">::peakNextBit</text>
</a>
</g>
</g>
<!-- Node7&#45;&gt;Node9 -->
<g id="edge8" class="edge">
<title>Node7&#45;&gt;Node9</title>
<path fill="none" stroke="midnightblue" d="M336.52,-99.59C356.99,-94.17 380.7,-87.89 402.35,-82.15"/>
<polygon fill="midnightblue" stroke="midnightblue" points="403.37,-85.5 412.14,-79.56 401.58,-78.74 403.37,-85.5"/>
</g>
<!-- Node10 -->
<g id="node10" class="node">
<title>Node10</title>
<g id="a_node10"><a xlink:href="classsignal__easel_1_1BitStream.html#a5b5339586e09ca5c25a7e9ded0118ffb" target="_top" xlink:title="Returns the next bit of the bit stream that will be encoded.">
<polygon fill="none" stroke="black" points="404,-98.5 404,-128.5 536,-128.5 536,-98.5 404,-98.5"/>
<text text-anchor="start" x="412" y="-116.5" font-family="Helvetica,sans-Serif" font-size="10.00">signal_easel::BitStream</text>
<text text-anchor="middle" x="470" y="-105.5" font-family="Helvetica,sans-Serif" font-size="10.00">::popNextBit</text>
</a>
</g>
</g>
<!-- Node7&#45;&gt;Node10 -->
<g id="edge9" class="edge">
<title>Node7&#45;&gt;Node10</title>
<path fill="none" stroke="midnightblue" d="M336.52,-113.5C354.27,-113.5 374.45,-113.5 393.61,-113.5"/>
<polygon fill="midnightblue" stroke="midnightblue" points="393.82,-117 403.82,-113.5 393.82,-110 393.82,-117"/>
</g>
<!-- Node11 -->
<g id="node11" class="node">
<title>Node11</title>
<g id="a_node11"><a xlink:href="namespacesignal__easel_1_1ax25.html#a464aaf0b31941db183dcd08d641a793c" target="_top" xlink:title=" ">
<polygon fill="none" stroke="black" points="416.5,-0.5 416.5,-30.5 523.5,-30.5 523.5,-0.5 416.5,-0.5"/>
<text text-anchor="start" x="424.5" y="-18.5" font-family="Helvetica,sans-Serif" font-size="10.00">signal_easel::ax25</text>
<text text-anchor="middle" x="470" y="-7.5" font-family="Helvetica,sans-Serif" font-size="10.00">::reverse_bits</text>
</a>
</g>
</g>
<!-- Node7&#45;&gt;Node11 -->
<g id="edge10" class="edge">
<title>Node7&#45;&gt;Node11</title>
<path fill="none" stroke="midnightblue" d="M305.8,-98.21C329.29,-82.19 368.13,-56.97 404,-39.5 407.55,-37.77 411.26,-36.09 415.02,-34.48"/>
<polygon fill="midnightblue" stroke="midnightblue" points="416.53,-37.64 424.45,-30.61 413.87,-31.17 416.53,-37.64"/>
</g>
<!-- Node12&#45;&gt;Node8 -->
<g id="edge12" class="edge">
<title>Node12&#45;&gt;Node8</title>
<path fill="none" stroke="midnightblue" d="M336.52,-162.5C354.27,-162.5 374.45,-162.5 393.61,-162.5"/>
<polygon fill="midnightblue" stroke="midnightblue" points="393.82,-166 403.82,-162.5 393.82,-159 393.82,-166"/>
</g>
<!-- Node12&#45;&gt;Node10 -->
<g id="edge14" class="edge">
<title>Node12&#45;&gt;Node10</title>
<path fill="none" stroke="midnightblue" d="M336.52,-148.59C356.99,-143.17 380.7,-136.89 402.35,-131.15"/>
<polygon fill="midnightblue" stroke="midnightblue" points="403.37,-134.5 412.14,-128.56 401.58,-127.74 403.37,-134.5"/>
</g>
<!-- Node13 -->
<g id="node13" class="node">
<title>Node13</title>
<g id="a_node13"><a xlink:href="classsignal__easel_1_1BitStream.html#a3212a6021fa0e315170f8654c8e1c103" target="_top" xlink:title=" ">
<polygon fill="none" stroke="black" points="404,-196.5 404,-226.5 536,-226.5 536,-196.5 404,-196.5"/>
<text text-anchor="start" x="412" y="-214.5" font-family="Helvetica,sans-Serif" font-size="10.00">signal_easel::BitStream</text>
<text text-anchor="middle" x="470" y="-203.5" font-family="Helvetica,sans-Serif" font-size="10.00">::peakNextByte</text>
</a>
</g>
</g>
<!-- Node12&#45;&gt;Node13 -->
<g id="edge13" class="edge">
<title>Node12&#45;&gt;Node13</title>
<path fill="none" stroke="midnightblue" d="M336.52,-176.41C356.99,-181.83 380.7,-188.11 402.35,-193.85"/>
<polygon fill="midnightblue" stroke="midnightblue" points="401.58,-197.26 412.14,-196.44 403.37,-190.5 401.58,-197.26"/>
</g>
<!-- Node14&#45;&gt;Node3 -->
<g id="edge16" class="edge">
<title>Node14&#45;&gt;Node3</title>
<path fill="none" stroke="midnightblue" d="M368.11,-260.5C376.96,-260.5 385.91,-260.5 394.64,-260.5"/>
<polygon fill="midnightblue" stroke="midnightblue" points="394.77,-264 404.77,-260.5 394.77,-257 394.77,-264"/>
</g>
<!-- Node15&#45;&gt;Node3 -->
<g id="edge18" class="edge">
<title>Node15&#45;&gt;Node3</title>
<path fill="none" stroke="midnightblue" d="M340.76,-226.53C360.3,-231.71 382.34,-237.55 402.58,-242.91"/>
<polygon fill="midnightblue" stroke="midnightblue" points="401.78,-246.32 412.34,-245.49 403.57,-239.55 401.78,-246.32"/>
</g>
</g>
</svg>
