<?xml version="1.0" encoding="UTF-8" standalone="no"?>
<!DOCTYPE svg PUBLIC "-//W3C//DTD SVG 1.1//EN"
 "http://www.w3.org/Graphics/SVG/1.1/DTD/svg11.dtd">
<!-- Generated by graphviz version 2.43.0 (0)
 -->
<!-- Title: TelemetryTranscoder_test Pages: 1 -->
<svg width="712pt" height="551pt"
 viewBox="0.00 0.00 711.50 551.00" xmlns="http://www.w3.org/2000/svg" xmlns:xlink="http://www.w3.org/1999/xlink">
<g id="graph0" class="graph" transform="scale(1 1) rotate(0) translate(4 547)">
<title>TelemetryTranscoder_test</title>
<!-- Node1 -->
<g id="node1" class="node">
<title>Node1</title>
<g id="a_node1"><a xlink:title=" ">
<polygon fill="#bfbfbf" stroke="black" points="80.5,-0.5 80.5,-79.5 222.5,-79.5 222.5,-0.5 80.5,-0.5"/>
<text text-anchor="middle" x="151.5" y="-67.5" font-family="Helvetica,sans-Serif" font-size="10.00">TelemetryTranscoder_test</text>
<polyline fill="none" stroke="black" points="80.5,-60.5 222.5,-60.5 "/>
<text text-anchor="middle" x="151.5" y="-48.5" font-family="Helvetica,sans-Serif" font-size="10.00"> </text>
<polyline fill="none" stroke="black" points="80.5,-41.5 222.5,-41.5 "/>
<text text-anchor="start" x="88.5" y="-29.5" font-family="Helvetica,sans-Serif" font-size="10.00"># TelemetryTranscoder</text>
<text text-anchor="start" x="88.5" y="-18.5" font-family="Helvetica,sans-Serif" font-size="10.00">_test()</text>
<text text-anchor="start" x="88.5" y="-7.5" font-family="Helvetica,sans-Serif" font-size="10.00"># SetUp()</text>
</a>
</g>
</g>
<!-- Node2 -->
<g id="node2" class="node">
<title>Node2</title>
<g id="a_node2"><a xlink:title=" ">
<polygon fill="none" stroke="black" points="35.5,-221 35.5,-278 111.5,-278 111.5,-221 35.5,-221"/>
<text text-anchor="middle" x="73.5" y="-266" font-family="Helvetica,sans-Serif" font-size="10.00">testing::Test</text>
<polyline fill="none" stroke="black" points="35.5,-259 111.5,-259 "/>
<text text-anchor="middle" x="73.5" y="-247" font-family="Helvetica,sans-Serif" font-size="10.00"> </text>
<polyline fill="none" stroke="black" points="35.5,-240 111.5,-240 "/>
<text text-anchor="middle" x="73.5" y="-228" font-family="Helvetica,sans-Serif" font-size="10.00"> </text>
</a>
</g>
</g>
<!-- Node2&#45;&gt;Node1 -->
<g id="edge1" class="edge">
<title>Node2&#45;&gt;Node1</title>
<path fill="none" stroke="midnightblue" d="M87.41,-211.49C101.38,-174.34 122.8,-117.35 136.98,-79.63"/>
<polygon fill="none" stroke="midnightblue" points="84.1,-210.35 83.86,-220.95 90.65,-212.82 84.1,-210.35"/>
</g>
<!-- Node3 -->
<g id="node3" class="node">
<title>Node3</title>
<g id="a_node3"><a xlink:title=" ">
<polygon fill="none" stroke="black" points="129.5,-221 129.5,-278 173.5,-278 173.5,-221 129.5,-221"/>
<text text-anchor="middle" x="151.5" y="-266" font-family="Helvetica,sans-Serif" font-size="10.00">string</text>
<polyline fill="none" stroke="black" points="129.5,-259 173.5,-259 "/>
<text text-anchor="middle" x="151.5" y="-247" font-family="Helvetica,sans-Serif" font-size="10.00"> </text>
<polyline fill="none" stroke="black" points="129.5,-240 173.5,-240 "/>
<text text-anchor="middle" x="151.5" y="-228" font-family="Helvetica,sans-Serif" font-size="10.00"> </text>
</a>
</g>
</g>
<!-- Node3&#45;&gt;Node1 -->
<g id="edge2" class="edge">
<title>Node3&#45;&gt;Node1</title>
<path fill="none" stroke="#404040" d="M151.5,-220.95C151.5,-188.08 151.5,-132.47 151.5,-91.75"/>
<polygon fill="none" stroke="#404040" points="151.5,-91.63 147.5,-85.63 151.5,-79.63 155.5,-85.63 151.5,-91.63"/>
<text text-anchor="start" x="151.5" y="-134" font-family="Helvetica,sans-Serif" font-size="10.00"> #TELEMETRY_MESSAGE</text>
<text text-anchor="middle" x="212" y="-123" font-family="Helvetica,sans-Serif" font-size="10.00">_PREFIX</text>
<text text-anchor="start" x="151.5" y="-112" font-family="Helvetica,sans-Serif" font-size="10.00">#TELEMETRY_STATION</text>
<text text-anchor="middle" x="212" y="-101" font-family="Helvetica,sans-Serif" font-size="10.00">_ADDRESS</text>
</g>
<!-- Node4 -->
<g id="node4" class="node">
<title>Node4</title>
<g id="a_node4"><a xlink:href="classsignal__easel_1_1aprs_1_1telemetry_1_1TelemetryData.html" target="_top" xlink:title="A container for telemetry data. Contains all of the components of APRS telemetry messages.">
<polygon fill="none" stroke="black" points="211.5,-160.5 211.5,-338.5 379.5,-338.5 379.5,-160.5 211.5,-160.5"/>
<text text-anchor="start" x="219.5" y="-326.5" font-family="Helvetica,sans-Serif" font-size="10.00">signal_easel::aprs</text>
<text text-anchor="middle" x="295.5" y="-315.5" font-family="Helvetica,sans-Serif" font-size="10.00">::telemetry::TelemetryData</text>
<polyline fill="none" stroke="black" points="211.5,-308.5 379.5,-308.5 "/>
<text text-anchor="middle" x="295.5" y="-296.5" font-family="Helvetica,sans-Serif" font-size="10.00"> </text>
<polyline fill="none" stroke="black" points="211.5,-289.5 379.5,-289.5 "/>
<text text-anchor="start" x="219.5" y="-277.5" font-family="Helvetica,sans-Serif" font-size="10.00">+ TelemetryData()</text>
<text text-anchor="start" x="219.5" y="-266.5" font-family="Helvetica,sans-Serif" font-size="10.00">+ ~TelemetryData()</text>
<text text-anchor="start" x="219.5" y="-255.5" font-family="Helvetica,sans-Serif" font-size="10.00">+ getAnalog()</text>
<text text-anchor="start" x="219.5" y="-244.5" font-family="Helvetica,sans-Serif" font-size="10.00">+ getAnalogParameters()</text>
<text text-anchor="start" x="219.5" y="-233.5" font-family="Helvetica,sans-Serif" font-size="10.00">+ getAnalogParametersConst()</text>
<text text-anchor="start" x="219.5" y="-222.5" font-family="Helvetica,sans-Serif" font-size="10.00">+ getComment()</text>
<text text-anchor="start" x="219.5" y="-211.5" font-family="Helvetica,sans-Serif" font-size="10.00">+ getDigital()</text>
<text text-anchor="start" x="219.5" y="-200.5" font-family="Helvetica,sans-Serif" font-size="10.00">+ getDigitalParameters()</text>
<text text-anchor="start" x="219.5" y="-189.5" font-family="Helvetica,sans-Serif" font-size="10.00">+ getDigitalParametersConst()</text>
<text text-anchor="start" x="219.5" y="-178.5" font-family="Helvetica,sans-Serif" font-size="10.00">+ getProjectTitle()</text>
<text text-anchor="start" x="219.5" y="-167.5" font-family="Helvetica,sans-Serif" font-size="10.00">and 8 more...</text>
</a>
</g>
</g>
<!-- Node4&#45;&gt;Node1 -->
<g id="edge3" class="edge">
<title>Node4&#45;&gt;Node1</title>
<path fill="none" stroke="#404040" d="M297.04,-160.47C293.74,-138.39 286.82,-115.9 273.5,-98 263.34,-84.34 249.09,-73.84 233.89,-65.8"/>
<polygon fill="none" stroke="#404040" points="233.51,-65.62 226.36,-66.6 222.71,-60.38 229.85,-59.4 233.51,-65.62"/>
<text text-anchor="middle" x="311" y="-117.5" font-family="Helvetica,sans-Serif" font-size="10.00"> #data_</text>
</g>
<!-- Node5 -->
<g id="node5" class="node">
<title>Node5</title>
<g id="a_node5"><a xlink:title=" ">
<polygon fill="none" stroke="black" points="0,-474.5 0,-531.5 45,-531.5 45,-474.5 0,-474.5"/>
<text text-anchor="middle" x="22.5" y="-519.5" font-family="Helvetica,sans-Serif" font-size="10.00">size_t</text>
<polyline fill="none" stroke="black" points="0,-512.5 45,-512.5 "/>
<text text-anchor="middle" x="22.5" y="-500.5" font-family="Helvetica,sans-Serif" font-size="10.00"> </text>
<polyline fill="none" stroke="black" points="0,-493.5 45,-493.5 "/>
<text text-anchor="middle" x="22.5" y="-481.5" font-family="Helvetica,sans-Serif" font-size="10.00"> </text>
</a>
</g>
</g>
<!-- Node5&#45;&gt;Node4 -->
<g id="edge4" class="edge">
<title>Node5&#45;&gt;Node4</title>
<path fill="none" stroke="#404040" d="M15.8,-474.35C9.69,-441.68 5.61,-387.87 35.5,-357 58.39,-333.35 152.1,-351.61 182.5,-339 188.61,-336.46 194.68,-333.5 200.63,-330.23"/>
<polygon fill="none" stroke="#404040" points="200.87,-330.09 204.02,-323.61 211.22,-324.03 208.07,-330.51 200.87,-330.09"/>
<text text-anchor="start" x="35.5" y="-437" font-family="Helvetica,sans-Serif" font-size="10.00"> +COMMENT_MAX_LENGTH</text>
<text text-anchor="middle" x="103.5" y="-426" font-family="Helvetica,sans-Serif" font-size="10.00">_</text>
<text text-anchor="start" x="35.5" y="-415" font-family="Helvetica,sans-Serif" font-size="10.00">+PROJECT_TITLE</text>
<text text-anchor="middle" x="103.5" y="-404" font-family="Helvetica,sans-Serif" font-size="10.00">_MAX_LENGTH_</text>
<text text-anchor="start" x="35.5" y="-393" font-family="Helvetica,sans-Serif" font-size="10.00">+SEQUENCE_NUMBER</text>
<text text-anchor="middle" x="103.5" y="-382" font-family="Helvetica,sans-Serif" font-size="10.00">_MAX_</text>
<text text-anchor="start" x="35.5" y="-371" font-family="Helvetica,sans-Serif" font-size="10.00">+TELEMETRY_STATION</text>
<text text-anchor="middle" x="103.5" y="-360" font-family="Helvetica,sans-Serif" font-size="10.00">_ADDRESS_MAX_LENGTH_</text>
</g>
<!-- Node6 -->
<g id="node6" class="node">
<title>Node6</title>
<g id="a_node6"><a xlink:title=" ">
<polygon fill="none" stroke="black" points="159.5,-474.5 159.5,-531.5 203.5,-531.5 203.5,-474.5 159.5,-474.5"/>
<text text-anchor="middle" x="181.5" y="-519.5" font-family="Helvetica,sans-Serif" font-size="10.00">string</text>
<polyline fill="none" stroke="black" points="159.5,-512.5 203.5,-512.5 "/>
<text text-anchor="middle" x="181.5" y="-500.5" font-family="Helvetica,sans-Serif" font-size="10.00"> </text>
<polyline fill="none" stroke="black" points="159.5,-493.5 203.5,-493.5 "/>
<text text-anchor="middle" x="181.5" y="-481.5" font-family="Helvetica,sans-Serif" font-size="10.00"> </text>
</a>
</g>
</g>
<!-- Node6&#45;&gt;Node4 -->
<g id="edge5" class="edge">
<title>Node6&#45;&gt;Node4</title>
<path fill="none" stroke="#404040" d="M177.67,-474.46C174.69,-444.25 173.52,-395 190.5,-357 194.22,-348.68 198.89,-340.63 204.19,-332.95"/>
<polygon fill="none" stroke="#404040" points="204.36,-332.72 204.7,-325.51 211.49,-323.06 211.14,-330.26 204.36,-332.72"/>
<text text-anchor="middle" x="236" y="-415" font-family="Helvetica,sans-Serif" font-size="10.00"> &#45;comment_</text>
<text text-anchor="middle" x="236" y="-404" font-family="Helvetica,sans-Serif" font-size="10.00">&#45;project_title_</text>
<text text-anchor="start" x="190.5" y="-393" font-family="Helvetica,sans-Serif" font-size="10.00">&#45;telemetry_station</text>
<text text-anchor="middle" x="236" y="-382" font-family="Helvetica,sans-Serif" font-size="10.00">_address_</text>
</g>
<!-- Node7 -->
<g id="node7" class="node">
<title>Node7</title>
<g id="a_node7"><a xlink:title=" ">
<polygon fill="none" stroke="black" points="254.5,-474.5 254.5,-531.5 310.5,-531.5 310.5,-474.5 254.5,-474.5"/>
<text text-anchor="middle" x="282.5" y="-519.5" font-family="Helvetica,sans-Serif" font-size="10.00">uint16_t</text>
<polyline fill="none" stroke="black" points="254.5,-512.5 310.5,-512.5 "/>
<text text-anchor="middle" x="282.5" y="-500.5" font-family="Helvetica,sans-Serif" font-size="10.00"> </text>
<polyline fill="none" stroke="black" points="254.5,-493.5 310.5,-493.5 "/>
<text text-anchor="middle" x="282.5" y="-481.5" font-family="Helvetica,sans-Serif" font-size="10.00"> </text>
</a>
</g>
</g>
<!-- Node7&#45;&gt;Node4 -->
<g id="edge6" class="edge">
<title>Node7&#45;&gt;Node4</title>
<path fill="none" stroke="#404040" d="M283.94,-474.12C285.48,-444.31 288.02,-395.28 290.32,-350.72"/>
<polygon fill="none" stroke="#404040" points="290.33,-350.58 286.64,-344.38 290.95,-338.6 294.63,-344.79 290.33,-350.58"/>
<text text-anchor="middle" x="340.5" y="-398.5" font-family="Helvetica,sans-Serif" font-size="10.00"> &#45;sequence_number_</text>
</g>
<!-- Node8 -->
<g id="node8" class="node">
<title>Node8</title>
<g id="a_node8"><a xlink:title=" ">
<polygon fill="none" stroke="black" points="328.5,-469 328.5,-537 538.5,-537 538.5,-469 328.5,-469"/>
<text text-anchor="start" x="336.5" y="-525" font-family="Helvetica,sans-Serif" font-size="10.00">array&lt; signal_easel</text>
<text text-anchor="middle" x="433.5" y="-514" font-family="Helvetica,sans-Serif" font-size="10.00">::aprs::telemetry::AnalogParameter, 5 &gt;</text>
<polyline fill="none" stroke="black" points="328.5,-507 538.5,-507 "/>
<text text-anchor="middle" x="433.5" y="-495" font-family="Helvetica,sans-Serif" font-size="10.00"> </text>
<polyline fill="none" stroke="black" points="328.5,-488 538.5,-488 "/>
<text text-anchor="middle" x="433.5" y="-476" font-family="Helvetica,sans-Serif" font-size="10.00"> </text>
</a>
</g>
</g>
<!-- Node8&#45;&gt;Node4 -->
<g id="edge7" class="edge">
<title>Node8&#45;&gt;Node4</title>
<path fill="none" stroke="#404040" d="M429.58,-468.88C424.9,-438.3 415.08,-392.41 395.5,-357 392.84,-352.19 389.91,-347.43 386.78,-342.74"/>
<polygon fill="none" stroke="#404040" points="386.56,-342.42 379.83,-339.83 379.63,-332.62 386.36,-335.22 386.56,-342.42"/>
<text text-anchor="middle" x="478" y="-398.5" font-family="Helvetica,sans-Serif" font-size="10.00"> &#45;analog_parameters_</text>
</g>
<!-- Node9 -->
<g id="node9" class="node">
<title>Node9</title>
<g id="a_node9"><a xlink:title=" ">
<polygon fill="none" stroke="black" points="557,-463.5 557,-542.5 692,-542.5 692,-463.5 557,-463.5"/>
<text text-anchor="start" x="565" y="-530.5" font-family="Helvetica,sans-Serif" font-size="10.00">array&lt; signal_easel</text>
<text text-anchor="start" x="565" y="-519.5" font-family="Helvetica,sans-Serif" font-size="10.00">::aprs::telemetry::Digital</text>
<text text-anchor="middle" x="624.5" y="-508.5" font-family="Helvetica,sans-Serif" font-size="10.00">Parameter, 8 &gt;</text>
<polyline fill="none" stroke="black" points="557,-501.5 692,-501.5 "/>
<text text-anchor="middle" x="624.5" y="-489.5" font-family="Helvetica,sans-Serif" font-size="10.00"> </text>
<polyline fill="none" stroke="black" points="557,-482.5 692,-482.5 "/>
<text text-anchor="middle" x="624.5" y="-470.5" font-family="Helvetica,sans-Serif" font-size="10.00"> </text>
</a>
</g>
</g>
<!-- Node9&#45;&gt;Node4 -->
<g id="edge8" class="edge">
<title>Node9&#45;&gt;Node4</title>
<path fill="none" stroke="#404040" d="M608.66,-463.34C593.83,-431.25 568.95,-386.28 535.5,-357 494.15,-320.8 438.51,-295.08 391.23,-277.99"/>
<polygon fill="none" stroke="#404040" points="391.03,-277.93 384.04,-279.71 379.71,-273.94 386.7,-272.16 391.03,-277.93"/>
<text text-anchor="middle" x="651" y="-398.5" font-family="Helvetica,sans-Serif" font-size="10.00"> &#45;digital_parameters_</text>
</g>
</g>
</svg>
