<?xml version="1.0" encoding="UTF-8" standalone="no"?>
<!DOCTYPE svg PUBLIC "-//W3C//DTD SVG 1.1//EN"
 "http://www.w3.org/Graphics/SVG/1.1/DTD/svg11.dtd">
<!-- Generated by graphviz version 2.43.0 (0)
 -->
<!-- Title: signal_easel::aprs::Receiver::getStats Pages: 1 -->
<svg width="197pt" height="66pt"
 viewBox="0.00 0.00 197.00 66.00" xmlns="http://www.w3.org/2000/svg" xmlns:xlink="http://www.w3.org/1999/xlink">
<g id="graph0" class="graph" transform="scale(1 1) rotate(0) translate(4 62)">
<title>signal_easel::aprs::Receiver::getStats</title>
<!-- Node1 -->
<g id="node1" class="node">
<title>Node1</title>
<g id="a_node1"><a xlink:title=" ">
<polygon fill="#bfbfbf" stroke="black" points="77,-14 77,-44 189,-44 189,-14 77,-14"/>
<text text-anchor="start" x="85" y="-32" font-family="Helvetica,sans-Serif" font-size="10.00">signal_easel::aprs</text>
<text text-anchor="middle" x="133" y="-21" font-family="Helvetica,sans-Serif" font-size="10.00">::Receiver::getStats</text>
</a>
</g>
</g>
<!-- Node2 -->
<g id="node2" class="node">
<title>Node2</title>
<g id="a_node2"><a xlink:href="pulse__test_8cpp.html#ae66f6b31b5ad750f1fe042a706a4e3d4" target="_top" xlink:title=" ">
<polygon fill="none" stroke="black" points="0,-38.5 0,-57.5 41,-57.5 41,-38.5 0,-38.5"/>
<text text-anchor="middle" x="20.5" y="-45.5" font-family="Helvetica,sans-Serif" font-size="10.00">main</text>
</a>
</g>
</g>
<!-- Node1&#45;&gt;Node2 -->
<g id="edge1" class="edge">
<title>Node1&#45;&gt;Node2</title>
<path fill="none" stroke="midnightblue" d="M66.87,-40.2C57.47,-41.81 48.47,-43.36 41,-44.65"/>
<polygon fill="midnightblue" stroke="midnightblue" points="67.49,-43.64 76.75,-38.5 66.3,-36.75 67.49,-43.64"/>
</g>
<!-- Node3 -->
<g id="node3" class="node">
<title>Node3</title>
<g id="a_node3"><a xlink:href="aprs__receiver__test_8cpp.html#a6da409628ac7ef9e2a77432a7b00e984" target="_top" xlink:title="Test that the receiver properly decodes a real APRS packet from aprs_real.wav using the full aprs::Re...">
<polygon fill="none" stroke="black" points="0,-0.5 0,-19.5 41,-19.5 41,-0.5 0,-0.5"/>
<text text-anchor="middle" x="20.5" y="-7.5" font-family="Helvetica,sans-Serif" font-size="10.00">TEST</text>
</a>
</g>
</g>
<!-- Node1&#45;&gt;Node3 -->
<g id="edge2" class="edge">
<title>Node1&#45;&gt;Node3</title>
<path fill="none" stroke="midnightblue" d="M66.87,-17.8C57.47,-16.19 48.47,-14.64 41,-13.35"/>
<polygon fill="midnightblue" stroke="midnightblue" points="66.3,-21.25 76.75,-19.5 67.49,-14.36 66.3,-21.25"/>
</g>
</g>
</svg>
