<?xml version="1.0" encoding="UTF-8" standalone="no"?>
<!DOCTYPE svg PUBLIC "-//W3C//DTD SVG 1.1//EN"
 "http://www.w3.org/Graphics/SVG/1.1/DTD/svg11.dtd">
<!-- Generated by graphviz version 2.43.0 (0)
 -->
<!-- Title: signal_easel::BitStream::pushBufferToBitStream Pages: 1 -->
<svg width="751pt" height="134pt"
 viewBox="0.00 0.00 751.00 134.00" xmlns="http://www.w3.org/2000/svg" xmlns:xlink="http://www.w3.org/1999/xlink">
<g id="graph0" class="graph" transform="scale(1 1) rotate(0) translate(4 130)">
<title>signal_easel::BitStream::pushBufferToBitStream</title>
<!-- Node1 -->
<g id="node1" class="node">
<title>Node1</title>
<g id="a_node1"><a xlink:title="After adding all of the data to the bit stream, this method will write the data left in the buffer.">
<polygon fill="#bfbfbf" stroke="black" points="609,-24.5 609,-54.5 743,-54.5 743,-24.5 609,-24.5"/>
<text text-anchor="start" x="617" y="-42.5" font-family="Helvetica,sans-Serif" font-size="10.00">signal_easel::BitStream</text>
<text text-anchor="middle" x="676" y="-31.5" font-family="Helvetica,sans-Serif" font-size="10.00">::pushBufferToBitStream</text>
</a>
</g>
</g>
<!-- Node2 -->
<g id="node2" class="node">
<title>Node2</title>
<g id="a_node2"><a xlink:href="namespacesignal__easel_1_1ax25.html#a84e1d1bf82ef828a150bc94cf065e396" target="_top" xlink:title="Convert a bit stream from NRZI to standard encoding.">
<polygon fill="none" stroke="black" points="451.5,-49.5 451.5,-79.5 558.5,-79.5 558.5,-49.5 451.5,-49.5"/>
<text text-anchor="start" x="459.5" y="-67.5" font-family="Helvetica,sans-Serif" font-size="10.00">signal_easel::ax25</text>
<text text-anchor="middle" x="505" y="-56.5" font-family="Helvetica,sans-Serif" font-size="10.00">::decodeNrzi</text>
</a>
</g>
</g>
<!-- Node1&#45;&gt;Node2 -->
<g id="edge1" class="edge">
<title>Node1&#45;&gt;Node2</title>
<path fill="none" stroke="midnightblue" d="M598.45,-50.82C584.96,-52.82 571.19,-54.86 558.54,-56.73"/>
<polygon fill="midnightblue" stroke="midnightblue" points="599.31,-54.23 608.69,-49.31 598.29,-47.31 599.31,-54.23"/>
</g>
<!-- Node7 -->
<g id="node7" class="node">
<title>Node7</title>
<g id="a_node7"><a xlink:href="classsignal__easel_1_1psk_1_1Modulator.html#acd4a6a5bac7af1c62ffaaa0ff1d9259f" target="_top" xlink:title=" ">
<polygon fill="none" stroke="black" points="437,-0.5 437,-30.5 573,-30.5 573,-0.5 437,-0.5"/>
<text text-anchor="start" x="445" y="-18.5" font-family="Helvetica,sans-Serif" font-size="10.00">signal_easel::psk::</text>
<text text-anchor="middle" x="505" y="-7.5" font-family="Helvetica,sans-Serif" font-size="10.00">Modulator::encodeString</text>
</a>
</g>
</g>
<!-- Node1&#45;&gt;Node7 -->
<g id="edge6" class="edge">
<title>Node1&#45;&gt;Node7</title>
<path fill="none" stroke="midnightblue" d="M598.77,-28.67C590.25,-27.46 581.62,-26.24 573.23,-25.05"/>
<polygon fill="midnightblue" stroke="midnightblue" points="598.3,-32.14 608.69,-30.08 599.28,-25.21 598.3,-32.14"/>
</g>
<!-- Node3 -->
<g id="node3" class="node">
<title>Node3</title>
<g id="a_node3"><a xlink:href="classsignal__easel_1_1aprs_1_1Receiver.html#afbf7869aceaf2ea7ab0be8b9af16e818" target="_top" xlink:title=" ">
<polygon fill="none" stroke="black" points="280,-95.5 280,-125.5 387,-125.5 387,-95.5 280,-95.5"/>
<text text-anchor="start" x="288" y="-113.5" font-family="Helvetica,sans-Serif" font-size="10.00">signal_easel::aprs</text>
<text text-anchor="middle" x="333.5" y="-102.5" font-family="Helvetica,sans-Serif" font-size="10.00">::Receiver::decode</text>
</a>
</g>
</g>
<!-- Node2&#45;&gt;Node3 -->
<g id="edge2" class="edge">
<title>Node2&#45;&gt;Node3</title>
<path fill="none" stroke="midnightblue" d="M441.54,-81.45C423.67,-86.3 404.39,-91.53 387.17,-96.21"/>
<polygon fill="midnightblue" stroke="midnightblue" points="442.56,-84.8 451.3,-78.8 440.73,-78.04 442.56,-84.8"/>
</g>
<!-- Node4 -->
<g id="node4" class="node">
<title>Node4</title>
<g id="a_node4"><a xlink:href="classsignal__easel_1_1ax25_1_1Frame.html#a63cf2362c2a90d20f09bbbc4f24a07ba" target="_top" xlink:title="Attempt to parse an incoming bit stream into an AX.25 frame.">
<polygon fill="none" stroke="black" points="266,-46.5 266,-76.5 401,-76.5 401,-46.5 266,-46.5"/>
<text text-anchor="start" x="274" y="-64.5" font-family="Helvetica,sans-Serif" font-size="10.00">signal_easel::ax25</text>
<text text-anchor="middle" x="333.5" y="-53.5" font-family="Helvetica,sans-Serif" font-size="10.00">::Frame::parseBitStream</text>
</a>
</g>
</g>
<!-- Node2&#45;&gt;Node4 -->
<g id="edge3" class="edge">
<title>Node2&#45;&gt;Node4</title>
<path fill="none" stroke="midnightblue" d="M441.07,-63.39C428.08,-63.16 414.36,-62.91 401.24,-62.68"/>
<polygon fill="midnightblue" stroke="midnightblue" points="441.24,-66.89 451.3,-63.57 441.36,-59.89 441.24,-66.89"/>
</g>
<!-- Node5 -->
<g id="node5" class="node">
<title>Node5</title>
<g id="a_node5"><a xlink:href="classsignal__easel_1_1aprs_1_1Demodulator.html#ae5a8e7634c1bc8d215a0c454a9a737fa" target="_top" xlink:title=" ">
<polygon fill="none" stroke="black" points="77,-41 77,-82 230,-82 230,-41 77,-41"/>
<text text-anchor="start" x="85" y="-70" font-family="Helvetica,sans-Serif" font-size="10.00">signal_easel::aprs</text>
<text text-anchor="start" x="85" y="-59" font-family="Helvetica,sans-Serif" font-size="10.00">::Demodulator::lookForAx25</text>
<text text-anchor="middle" x="153.5" y="-48" font-family="Helvetica,sans-Serif" font-size="10.00">Packet</text>
</a>
</g>
</g>
<!-- Node4&#45;&gt;Node5 -->
<g id="edge4" class="edge">
<title>Node4&#45;&gt;Node5</title>
<path fill="none" stroke="midnightblue" d="M255.74,-61.5C247.29,-61.5 238.68,-61.5 230.23,-61.5"/>
<polygon fill="midnightblue" stroke="midnightblue" points="255.97,-65 265.97,-61.5 255.97,-58 255.97,-65"/>
</g>
<!-- Node6 -->
<g id="node6" class="node">
<title>Node6</title>
<g id="a_node6"><a xlink:href="aprs__test_8cpp.html#aea66d1824e3f1e27598adf99ac6a089a" target="_top" xlink:title=" ">
<polygon fill="none" stroke="black" points="0,-52 0,-71 41,-71 41,-52 0,-52"/>
<text text-anchor="middle" x="20.5" y="-59" font-family="Helvetica,sans-Serif" font-size="10.00">TEST</text>
</a>
</g>
</g>
<!-- Node5&#45;&gt;Node6 -->
<g id="edge5" class="edge">
<title>Node5&#45;&gt;Node6</title>
<path fill="none" stroke="midnightblue" d="M66.67,-61.5C57.26,-61.5 48.46,-61.5 41.18,-61.5"/>
<polygon fill="midnightblue" stroke="midnightblue" points="66.68,-65 76.68,-61.5 66.68,-58 66.68,-65"/>
</g>
<!-- Node8 -->
<g id="node8" class="node">
<title>Node8</title>
<g id="a_node8"><a xlink:href="psk__test_8cpp.html#adc7973e853ae04677ba78e84bda93987" target="_top" xlink:title=" ">
<polygon fill="none" stroke="black" points="313,-6 313,-25 354,-25 354,-6 313,-6"/>
<text text-anchor="middle" x="333.5" y="-13" font-family="Helvetica,sans-Serif" font-size="10.00">TEST</text>
</a>
</g>
</g>
<!-- Node7&#45;&gt;Node8 -->
<g id="edge7" class="edge">
<title>Node7&#45;&gt;Node8</title>
<path fill="none" stroke="midnightblue" d="M426.39,-15.5C399.78,-15.5 372.23,-15.5 354.32,-15.5"/>
<polygon fill="midnightblue" stroke="midnightblue" points="426.52,-19 436.52,-15.5 426.52,-12 426.52,-19"/>
</g>
</g>
</svg>
