<?xml version="1.0" encoding="UTF-8" standalone="no"?>
<!DOCTYPE svg PUBLIC "-//W3C//DTD SVG 1.1//EN"
 "http://www.w3.org/Graphics/SVG/1.1/DTD/svg11.dtd">
<!-- Generated by graphviz version 2.43.0 (0)
 -->
<!-- Title: signal_easel::DataModulator Pages: 1 -->
<svg width="372pt" height="525pt"
 viewBox="0.00 0.00 372.30 525.00" xmlns="http://www.w3.org/2000/svg" xmlns:xlink="http://www.w3.org/1999/xlink">
<g id="graph0" class="graph" transform="scale(1 1) rotate(0) translate(4 521)">
<title>signal_easel::DataModulator</title>
<!-- Node1 -->
<g id="node1" class="node">
<title>Node1</title>
<g id="a_node1"><a xlink:title="Another abstract base class for modulators that turn text/binary data into audio.">
<polygon fill="#bfbfbf" stroke="black" points="102.3,-0.5 102.3,-101.5 258.3,-101.5 258.3,-0.5 102.3,-0.5"/>
<text text-anchor="middle" x="180.3" y="-89.5" font-family="Helvetica,sans-Serif" font-size="10.00">signal_easel::DataModulator</text>
<polyline fill="none" stroke="black" points="102.3,-82.5 258.3,-82.5 "/>
<text text-anchor="middle" x="180.3" y="-70.5" font-family="Helvetica,sans-Serif" font-size="10.00"> </text>
<polyline fill="none" stroke="black" points="102.3,-63.5 258.3,-63.5 "/>
<text text-anchor="start" x="110.3" y="-51.5" font-family="Helvetica,sans-Serif" font-size="10.00">+ DataModulator()</text>
<text text-anchor="start" x="110.3" y="-40.5" font-family="Helvetica,sans-Serif" font-size="10.00">+ ~DataModulator()</text>
<text text-anchor="start" x="110.3" y="-29.5" font-family="Helvetica,sans-Serif" font-size="10.00">+ addBytes()</text>
<text text-anchor="start" x="110.3" y="-18.5" font-family="Helvetica,sans-Serif" font-size="10.00">+ addString()</text>
<text text-anchor="start" x="110.3" y="-7.5" font-family="Helvetica,sans-Serif" font-size="10.00"># encodeBytes()</text>
</a>
</g>
</g>
<!-- Node2 -->
<g id="node2" class="node">
<title>Node2</title>
<g id="a_node2"><a xlink:href="classsignal__easel_1_1Modulator.html" target="_top" xlink:title="The abstract base class for all modulators that turn data into audio.">
<polygon fill="none" stroke="black" points="113.8,-139.5 113.8,-284.5 246.8,-284.5 246.8,-139.5 113.8,-139.5"/>
<text text-anchor="middle" x="180.3" y="-272.5" font-family="Helvetica,sans-Serif" font-size="10.00">signal_easel::Modulator</text>
<polyline fill="none" stroke="black" points="113.8,-265.5 246.8,-265.5 "/>
<text text-anchor="middle" x="180.3" y="-253.5" font-family="Helvetica,sans-Serif" font-size="10.00"> </text>
<polyline fill="none" stroke="black" points="113.8,-246.5 246.8,-246.5 "/>
<text text-anchor="start" x="121.8" y="-234.5" font-family="Helvetica,sans-Serif" font-size="10.00">+ Modulator()</text>
<text text-anchor="start" x="121.8" y="-223.5" font-family="Helvetica,sans-Serif" font-size="10.00">+ ~Modulator()</text>
<text text-anchor="start" x="121.8" y="-212.5" font-family="Helvetica,sans-Serif" font-size="10.00">+ clearBuffer()</text>
<text text-anchor="start" x="121.8" y="-201.5" font-family="Helvetica,sans-Serif" font-size="10.00">+ writeToFile()</text>
<text text-anchor="start" x="121.8" y="-190.5" font-family="Helvetica,sans-Serif" font-size="10.00">+ writeToPulseAudio()</text>
<text text-anchor="start" x="121.8" y="-179.5" font-family="Helvetica,sans-Serif" font-size="10.00"># addAudioSample()</text>
<text text-anchor="start" x="121.8" y="-168.5" font-family="Helvetica,sans-Serif" font-size="10.00"># addSilence()</text>
<text text-anchor="start" x="121.8" y="-157.5" font-family="Helvetica,sans-Serif" font-size="10.00"># addSineWave()</text>
<text text-anchor="start" x="121.8" y="-146.5" font-family="Helvetica,sans-Serif" font-size="10.00">&#45; addMorseCode()</text>
</a>
</g>
</g>
<!-- Node2&#45;&gt;Node1 -->
<g id="edge1" class="edge">
<title>Node2&#45;&gt;Node1</title>
<path fill="none" stroke="midnightblue" d="M180.3,-129.26C180.3,-119.9 180.3,-110.58 180.3,-101.82"/>
<polygon fill="none" stroke="midnightblue" points="176.8,-129.41 180.3,-139.41 183.8,-129.41 176.8,-129.41"/>
</g>
<!-- Node3 -->
<g id="node3" class="node">
<title>Node3</title>
<g id="a_node3"><a xlink:title=" ">
<polygon fill="none" stroke="#bfbfbf" points="11.3,-459.5 11.3,-516.5 61.3,-516.5 61.3,-459.5 11.3,-459.5"/>
<text text-anchor="middle" x="36.3" y="-504.5" font-family="Helvetica,sans-Serif" font-size="10.00">double</text>
<polyline fill="none" stroke="#bfbfbf" points="11.3,-497.5 61.3,-497.5 "/>
<text text-anchor="middle" x="36.3" y="-485.5" font-family="Helvetica,sans-Serif" font-size="10.00"> </text>
<polyline fill="none" stroke="#bfbfbf" points="11.3,-478.5 61.3,-478.5 "/>
<text text-anchor="middle" x="36.3" y="-466.5" font-family="Helvetica,sans-Serif" font-size="10.00"> </text>
</a>
</g>
</g>
<!-- Node3&#45;&gt;Node2 -->
<g id="edge2" class="edge">
<title>Node3&#45;&gt;Node2</title>
<path fill="none" stroke="#404040" d="M21.83,-459.35C7.05,-427.03 -10.93,-372.78 10.3,-332 29.98,-294.21 67.76,-265.94 102.71,-246.46"/>
<polygon fill="none" stroke="#404040" points="102.88,-246.37 106.27,-240.01 113.45,-240.69 110.05,-247.05 102.88,-246.37"/>
<text text-anchor="middle" x="59.8" y="-358.5" font-family="Helvetica,sans-Serif" font-size="10.00"> &#45;sine_wave_phase_</text>
</g>
<!-- Node5 -->
<g id="node5" class="node">
<title>Node5</title>
<g id="a_node5"><a xlink:href="structsignal__easel_1_1Settings.html" target="_top" xlink:title="The universal settings for MWAV.">
<polygon fill="none" stroke="black" points="118.8,-332.5 118.8,-389.5 241.8,-389.5 241.8,-332.5 118.8,-332.5"/>
<text text-anchor="middle" x="180.3" y="-377.5" font-family="Helvetica,sans-Serif" font-size="10.00">signal_easel::Settings</text>
<polyline fill="none" stroke="black" points="118.8,-370.5 241.8,-370.5 "/>
<text text-anchor="middle" x="180.3" y="-358.5" font-family="Helvetica,sans-Serif" font-size="10.00"> </text>
<polyline fill="none" stroke="black" points="118.8,-351.5 241.8,-351.5 "/>
<text text-anchor="middle" x="180.3" y="-339.5" font-family="Helvetica,sans-Serif" font-size="10.00"> </text>
</a>
</g>
</g>
<!-- Node3&#45;&gt;Node5 -->
<g id="edge5" class="edge">
<title>Node3&#45;&gt;Node5</title>
<path fill="none" stroke="#404040" d="M46.57,-459.26C53.87,-442.64 65.1,-422.08 80.3,-408 88.39,-400.52 97.9,-394.07 107.79,-388.57"/>
<polygon fill="none" stroke="#404040" points="107.96,-388.49 111.46,-382.18 118.62,-382.98 115.13,-389.29 107.96,-388.49"/>
<text text-anchor="middle" x="123.3" y="-433" font-family="Helvetica,sans-Serif" font-size="10.00"> +amplitude</text>
<text text-anchor="start" x="80.3" y="-422" font-family="Helvetica,sans-Serif" font-size="10.00">+call_sign_pause</text>
<text text-anchor="middle" x="123.3" y="-411" font-family="Helvetica,sans-Serif" font-size="10.00">_seconds</text>
</g>
<!-- Node4 -->
<g id="node4" class="node">
<title>Node4</title>
<g id="a_node4"><a xlink:title=" ">
<polygon fill="none" stroke="#bfbfbf" points="260.3,-332.5 260.3,-389.5 364.3,-389.5 364.3,-332.5 260.3,-332.5"/>
<text text-anchor="middle" x="312.3" y="-377.5" font-family="Helvetica,sans-Serif" font-size="10.00">vector&lt; int16_t &gt;</text>
<polyline fill="none" stroke="#bfbfbf" points="260.3,-370.5 364.3,-370.5 "/>
<text text-anchor="middle" x="312.3" y="-358.5" font-family="Helvetica,sans-Serif" font-size="10.00"> </text>
<polyline fill="none" stroke="#bfbfbf" points="260.3,-351.5 364.3,-351.5 "/>
<text text-anchor="middle" x="312.3" y="-339.5" font-family="Helvetica,sans-Serif" font-size="10.00"> </text>
</a>
</g>
</g>
<!-- Node4&#45;&gt;Node2 -->
<g id="edge3" class="edge">
<title>Node4&#45;&gt;Node2</title>
<path fill="none" stroke="#404040" d="M287.48,-332.35C277.43,-321.16 265.26,-307.61 252.78,-293.72"/>
<polygon fill="none" stroke="#404040" points="252.58,-293.48 245.59,-291.69 244.56,-284.56 251.54,-286.35 252.58,-293.48"/>
<text text-anchor="middle" x="308.3" y="-306" font-family="Helvetica,sans-Serif" font-size="10.00"> #audio_buffer_</text>
</g>
<!-- Node5&#45;&gt;Node2 -->
<g id="edge4" class="edge">
<title>Node5&#45;&gt;Node2</title>
<path fill="none" stroke="#404040" d="M180.3,-332.35C180.3,-322.01 180.3,-309.66 180.3,-296.89"/>
<polygon fill="none" stroke="#404040" points="180.3,-296.56 176.3,-290.56 180.3,-284.56 184.3,-290.56 180.3,-296.56"/>
<text text-anchor="middle" x="208.3" y="-306" font-family="Helvetica,sans-Serif" font-size="10.00"> #settings_</text>
</g>
<!-- Node6 -->
<g id="node6" class="node">
<title>Node6</title>
<g id="a_node6"><a xlink:title=" ">
<polygon fill="none" stroke="#bfbfbf" points="128.8,-459.5 128.8,-516.5 211.8,-516.5 211.8,-459.5 128.8,-459.5"/>
<text text-anchor="middle" x="170.3" y="-504.5" font-family="Helvetica,sans-Serif" font-size="10.00">CallSignMode</text>
<polyline fill="none" stroke="#bfbfbf" points="128.8,-497.5 211.8,-497.5 "/>
<text text-anchor="middle" x="170.3" y="-485.5" font-family="Helvetica,sans-Serif" font-size="10.00"> </text>
<polyline fill="none" stroke="#bfbfbf" points="128.8,-478.5 211.8,-478.5 "/>
<text text-anchor="middle" x="170.3" y="-466.5" font-family="Helvetica,sans-Serif" font-size="10.00"> </text>
</a>
</g>
</g>
<!-- Node6&#45;&gt;Node5 -->
<g id="edge6" class="edge">
<title>Node6&#45;&gt;Node5</title>
<path fill="none" stroke="#404040" d="M169.43,-459.14C169.27,-443.98 169.56,-424.92 171.3,-408 171.52,-405.94 171.78,-403.84 172.07,-401.72"/>
<polygon fill="none" stroke="#404040" points="172.11,-401.45 169.14,-394.88 174.06,-389.61 177.04,-396.18 172.11,-401.45"/>
<text text-anchor="middle" x="215.3" y="-422" font-family="Helvetica,sans-Serif" font-size="10.00"> +call_sign_mode</text>
</g>
<!-- Node7 -->
<g id="node7" class="node">
<title>Node7</title>
<g id="a_node7"><a xlink:title=" ">
<polygon fill="none" stroke="#bfbfbf" points="259.3,-459.5 259.3,-516.5 303.3,-516.5 303.3,-459.5 259.3,-459.5"/>
<text text-anchor="middle" x="281.3" y="-504.5" font-family="Helvetica,sans-Serif" font-size="10.00">string</text>
<polyline fill="none" stroke="#bfbfbf" points="259.3,-497.5 303.3,-497.5 "/>
<text text-anchor="middle" x="281.3" y="-485.5" font-family="Helvetica,sans-Serif" font-size="10.00"> </text>
<polyline fill="none" stroke="#bfbfbf" points="259.3,-478.5 303.3,-478.5 "/>
<text text-anchor="middle" x="281.3" y="-466.5" font-family="Helvetica,sans-Serif" font-size="10.00"> </text>
</a>
</g>
</g>
<!-- Node7&#45;&gt;Node5 -->
<g id="edge7" class="edge">
<title>Node7&#45;&gt;Node5</title>
<path fill="none" stroke="#404040" d="M278.84,-459.45C276.2,-443.1 270.7,-422.76 259.3,-408 256.39,-404.22 253.06,-400.7 249.47,-397.42"/>
<polygon fill="none" stroke="#404040" points="249.37,-397.34 242.2,-396.65 240.06,-389.77 247.24,-390.45 249.37,-397.34"/>
<text text-anchor="middle" x="301.8" y="-422" font-family="Helvetica,sans-Serif" font-size="10.00"> +call_sign</text>
</g>
</g>
</svg>
