<?xml version="1.0" encoding="UTF-8" standalone="no"?>
<!DOCTYPE svg PUBLIC "-//W3C//DTD SVG 1.1//EN"
 "http://www.w3.org/Graphics/SVG/1.1/DTD/svg11.dtd">
<!-- Generated by graphviz version 2.43.0 (0)
 -->
<!-- Title: signal_easel::afsk::Receiver Pages: 1 -->
<svg width="1133pt" height="827pt"
 viewBox="0.00 0.00 1133.00 827.00" xmlns="http://www.w3.org/2000/svg" xmlns:xlink="http://www.w3.org/1999/xlink">
<g id="graph0" class="graph" transform="scale(1 1) rotate(0) translate(4 823)">
<title>signal_easel::afsk::Receiver</title>
<!-- Node1 -->
<g id="node1" class="node">
<title>Node1</title>
<g id="a_node1"><a xlink:title="For receiving AFSK signals via a pulse audio stream.">
<polygon fill="#bfbfbf" stroke="black" points="327,-0.5 327,-112.5 431,-112.5 431,-0.5 327,-0.5"/>
<text text-anchor="start" x="335" y="-100.5" font-family="Helvetica,sans-Serif" font-size="10.00">signal_easel::afsk</text>
<text text-anchor="middle" x="379" y="-89.5" font-family="Helvetica,sans-Serif" font-size="10.00">::Receiver</text>
<polyline fill="none" stroke="black" points="327,-82.5 431,-82.5 "/>
<text text-anchor="middle" x="379" y="-70.5" font-family="Helvetica,sans-Serif" font-size="10.00"> </text>
<polyline fill="none" stroke="black" points="327,-63.5 431,-63.5 "/>
<text text-anchor="start" x="335" y="-51.5" font-family="Helvetica,sans-Serif" font-size="10.00">+ Receiver()</text>
<text text-anchor="start" x="335" y="-40.5" font-family="Helvetica,sans-Serif" font-size="10.00">+ ~Receiver()</text>
<text text-anchor="start" x="335" y="-29.5" font-family="Helvetica,sans-Serif" font-size="10.00">+ process()</text>
<text text-anchor="start" x="335" y="-18.5" font-family="Helvetica,sans-Serif" font-size="10.00"># decode()</text>
<text text-anchor="start" x="335" y="-7.5" font-family="Helvetica,sans-Serif" font-size="10.00"># detectSignal()</text>
</a>
</g>
</g>
<!-- Node2 -->
<g id="node2" class="node">
<title>Node2</title>
<g id="a_node2"><a xlink:href="classsignal__easel_1_1Receiver.html" target="_top" xlink:title=" ">
<polygon fill="none" stroke="black" points="238,-331.5 238,-432.5 364,-432.5 364,-331.5 238,-331.5"/>
<text text-anchor="middle" x="301" y="-420.5" font-family="Helvetica,sans-Serif" font-size="10.00">signal_easel::Receiver</text>
<polyline fill="none" stroke="black" points="238,-413.5 364,-413.5 "/>
<text text-anchor="middle" x="301" y="-401.5" font-family="Helvetica,sans-Serif" font-size="10.00"> </text>
<polyline fill="none" stroke="black" points="238,-394.5 364,-394.5 "/>
<text text-anchor="start" x="246" y="-382.5" font-family="Helvetica,sans-Serif" font-size="10.00">+ Receiver()</text>
<text text-anchor="start" x="246" y="-371.5" font-family="Helvetica,sans-Serif" font-size="10.00">+ ~Receiver()</text>
<text text-anchor="start" x="246" y="-360.5" font-family="Helvetica,sans-Serif" font-size="10.00">+ getLatency()</text>
<text text-anchor="start" x="246" y="-349.5" font-family="Helvetica,sans-Serif" font-size="10.00">+ getVolume()</text>
<text text-anchor="start" x="246" y="-338.5" font-family="Helvetica,sans-Serif" font-size="10.00">+ process()</text>
</a>
</g>
</g>
<!-- Node2&#45;&gt;Node1 -->
<g id="edge1" class="edge">
<title>Node2&#45;&gt;Node1</title>
<path fill="none" stroke="midnightblue" d="M315.44,-321.13C329.83,-261.42 351.76,-170.49 365.73,-112.54"/>
<polygon fill="none" stroke="midnightblue" points="311.96,-320.62 313.02,-331.16 318.76,-322.26 311.96,-320.62"/>
</g>
<!-- Node3 -->
<g id="node3" class="node">
<title>Node3</title>
<g id="a_node3"><a xlink:href="classsignal__easel_1_1PulseAudioReader.html" target="_top" xlink:title=" ">
<polygon fill="none" stroke="black" points="426.5,-486 426.5,-664 563.5,-664 563.5,-486 426.5,-486"/>
<text text-anchor="start" x="434.5" y="-652" font-family="Helvetica,sans-Serif" font-size="10.00">signal_easel::PulseAudio</text>
<text text-anchor="middle" x="495" y="-641" font-family="Helvetica,sans-Serif" font-size="10.00">Reader</text>
<polyline fill="none" stroke="black" points="426.5,-634 563.5,-634 "/>
<text text-anchor="middle" x="495" y="-622" font-family="Helvetica,sans-Serif" font-size="10.00"> </text>
<polyline fill="none" stroke="black" points="426.5,-615 563.5,-615 "/>
<text text-anchor="start" x="434.5" y="-603" font-family="Helvetica,sans-Serif" font-size="10.00">+ PulseAudioReader()</text>
<text text-anchor="start" x="434.5" y="-592" font-family="Helvetica,sans-Serif" font-size="10.00">+ PulseAudioReader()</text>
<text text-anchor="start" x="434.5" y="-581" font-family="Helvetica,sans-Serif" font-size="10.00">+ PulseAudioReader()</text>
<text text-anchor="start" x="434.5" y="-570" font-family="Helvetica,sans-Serif" font-size="10.00">+ ~PulseAudioReader()</text>
<text text-anchor="start" x="434.5" y="-559" font-family="Helvetica,sans-Serif" font-size="10.00">+ getAudioBuffer()</text>
<text text-anchor="start" x="434.5" y="-548" font-family="Helvetica,sans-Serif" font-size="10.00">+ getLatency()</text>
<text text-anchor="start" x="434.5" y="-537" font-family="Helvetica,sans-Serif" font-size="10.00">+ getRms()</text>
<text text-anchor="start" x="434.5" y="-526" font-family="Helvetica,sans-Serif" font-size="10.00">+ getVolume()</text>
<text text-anchor="start" x="434.5" y="-515" font-family="Helvetica,sans-Serif" font-size="10.00">+ operator=()</text>
<text text-anchor="start" x="434.5" y="-504" font-family="Helvetica,sans-Serif" font-size="10.00">+ operator=()</text>
<text text-anchor="start" x="434.5" y="-493" font-family="Helvetica,sans-Serif" font-size="10.00">+ process()</text>
</a>
</g>
</g>
<!-- Node3&#45;&gt;Node2 -->
<g id="edge2" class="edge">
<title>Node3&#45;&gt;Node2</title>
<path fill="none" stroke="#404040" d="M471.29,-485.91C464.56,-472.8 455.97,-460.52 445,-451 422.62,-431.57 406.58,-443.53 375.44,-433.16"/>
<polygon fill="none" stroke="#404040" points="375.42,-433.15 368.36,-434.64 364.27,-428.71 371.32,-427.21 375.42,-433.15"/>
<text text-anchor="middle" x="511" y="-454" font-family="Helvetica,sans-Serif" font-size="10.00"> #pulse_audio_reader_</text>
</g>
<!-- Node4 -->
<g id="node4" class="node">
<title>Node4</title>
<g id="a_node4"><a xlink:title=" ">
<polygon fill="none" stroke="#bfbfbf" points="258,-756 258,-813 308,-813 308,-756 258,-756"/>
<text text-anchor="middle" x="283" y="-801" font-family="Helvetica,sans-Serif" font-size="10.00">double</text>
<polyline fill="none" stroke="#bfbfbf" points="258,-794 308,-794 "/>
<text text-anchor="middle" x="283" y="-782" font-family="Helvetica,sans-Serif" font-size="10.00"> </text>
<polyline fill="none" stroke="#bfbfbf" points="258,-775 308,-775 "/>
<text text-anchor="middle" x="283" y="-763" font-family="Helvetica,sans-Serif" font-size="10.00"> </text>
</a>
</g>
</g>
<!-- Node4&#45;&gt;Node3 -->
<g id="edge3" class="edge">
<title>Node4&#45;&gt;Node3</title>
<path fill="none" stroke="#404040" d="M308.35,-762.39C313.75,-758.16 319.48,-753.83 325,-750 337.77,-741.13 344.76,-743.7 355,-732 369.03,-715.97 361.7,-705.39 374,-688 386.42,-670.45 401.96,-653.56 417.73,-638.46"/>
<polygon fill="none" stroke="#404040" points="417.73,-638.45 419.38,-631.43 426.49,-630.25 424.84,-637.27 417.73,-638.45"/>
<text text-anchor="middle" x="398.5" y="-707.5" font-family="Helvetica,sans-Serif" font-size="10.00"> &#45;volume_</text>
</g>
<!-- Node10 -->
<g id="node10" class="node">
<title>Node10</title>
<g id="a_node10"><a xlink:href="structsignal__easel_1_1Settings.html" target="_top" xlink:title="The universal settings for MWAV.">
<polygon fill="none" stroke="black" points="206.5,-546.5 206.5,-603.5 329.5,-603.5 329.5,-546.5 206.5,-546.5"/>
<text text-anchor="middle" x="268" y="-591.5" font-family="Helvetica,sans-Serif" font-size="10.00">signal_easel::Settings</text>
<polyline fill="none" stroke="black" points="206.5,-584.5 329.5,-584.5 "/>
<text text-anchor="middle" x="268" y="-572.5" font-family="Helvetica,sans-Serif" font-size="10.00"> </text>
<polyline fill="none" stroke="black" points="206.5,-565.5 329.5,-565.5 "/>
<text text-anchor="middle" x="268" y="-553.5" font-family="Helvetica,sans-Serif" font-size="10.00"> </text>
</a>
</g>
</g>
<!-- Node4&#45;&gt;Node10 -->
<g id="edge10" class="edge">
<title>Node4&#45;&gt;Node10</title>
<path fill="none" stroke="#404040" d="M274.11,-755.98C272.01,-748.3 270.08,-739.89 269,-732 263.65,-692.85 264.07,-647.65 265.42,-616.02"/>
<polygon fill="none" stroke="#404040" points="265.44,-615.76 261.74,-609.57 266.03,-603.77 269.73,-609.96 265.44,-615.76"/>
<text text-anchor="middle" x="312" y="-718.5" font-family="Helvetica,sans-Serif" font-size="10.00"> +amplitude</text>
<text text-anchor="start" x="269" y="-707.5" font-family="Helvetica,sans-Serif" font-size="10.00">+call_sign_pause</text>
<text text-anchor="middle" x="312" y="-696.5" font-family="Helvetica,sans-Serif" font-size="10.00">_seconds</text>
</g>
<!-- Node5 -->
<g id="node5" class="node">
<title>Node5</title>
<g id="a_node5"><a xlink:title=" ">
<polygon fill="none" stroke="#bfbfbf" points="699,-756 699,-813 755,-813 755,-756 699,-756"/>
<text text-anchor="middle" x="727" y="-801" font-family="Helvetica,sans-Serif" font-size="10.00">uint64_t</text>
<polyline fill="none" stroke="#bfbfbf" points="699,-794 755,-794 "/>
<text text-anchor="middle" x="727" y="-782" font-family="Helvetica,sans-Serif" font-size="10.00"> </text>
<polyline fill="none" stroke="#bfbfbf" points="699,-775 755,-775 "/>
<text text-anchor="middle" x="727" y="-763" font-family="Helvetica,sans-Serif" font-size="10.00"> </text>
</a>
</g>
</g>
<!-- Node5&#45;&gt;Node3 -->
<g id="edge4" class="edge">
<title>Node5&#45;&gt;Node3</title>
<path fill="none" stroke="#404040" d="M711.46,-755.69C698.85,-735.03 679.51,-707.22 657,-688 643.7,-676.64 636.86,-679.23 622,-670 606.04,-660.08 589.53,-648.74 573.91,-637.45"/>
<polygon fill="none" stroke="#404040" points="573.47,-637.13 566.27,-636.82 563.78,-630.05 570.99,-630.36 573.47,-637.13"/>
<text text-anchor="middle" x="710.5" y="-707.5" font-family="Helvetica,sans-Serif" font-size="10.00"> &#45;rms_</text>
</g>
<!-- Node6 -->
<g id="node6" class="node">
<title>Node6</title>
<g id="a_node6"><a xlink:title=" ">
<polygon fill="none" stroke="#bfbfbf" points="334,-756 334,-813 432,-813 432,-756 334,-756"/>
<text text-anchor="middle" x="383" y="-801" font-family="Helvetica,sans-Serif" font-size="10.00">pa_sample_spec</text>
<polyline fill="none" stroke="#bfbfbf" points="334,-794 432,-794 "/>
<text text-anchor="middle" x="383" y="-782" font-family="Helvetica,sans-Serif" font-size="10.00"> </text>
<polyline fill="none" stroke="#bfbfbf" points="334,-775 432,-775 "/>
<text text-anchor="middle" x="383" y="-763" font-family="Helvetica,sans-Serif" font-size="10.00"> </text>
</a>
</g>
</g>
<!-- Node6&#45;&gt;Node3 -->
<g id="edge5" class="edge">
<title>Node6&#45;&gt;Node3</title>
<path fill="none" stroke="#404040" d="M409.26,-755.8C415.53,-748.4 421.89,-740.18 427,-732 438.05,-714.33 448.18,-694.55 457.05,-675.17"/>
<polygon fill="none" stroke="#404040" points="457.08,-675.1 455.88,-667.99 461.98,-664.14 463.19,-671.25 457.08,-675.1"/>
<text text-anchor="middle" x="461.5" y="-707.5" font-family="Helvetica,sans-Serif" font-size="10.00"> &#45;ss_</text>
</g>
<!-- Node7 -->
<g id="node7" class="node">
<title>Node7</title>
<g id="a_node7"><a xlink:title=" ">
<polygon fill="none" stroke="#bfbfbf" points="543.5,-750.5 543.5,-818.5 680.5,-818.5 680.5,-750.5 543.5,-750.5"/>
<text text-anchor="start" x="551.5" y="-806.5" font-family="Helvetica,sans-Serif" font-size="10.00">array&lt; int16_t, PULSE</text>
<text text-anchor="middle" x="612" y="-795.5" font-family="Helvetica,sans-Serif" font-size="10.00">_AUDIO_BUFFER_SIZE &gt;</text>
<polyline fill="none" stroke="#bfbfbf" points="543.5,-788.5 680.5,-788.5 "/>
<text text-anchor="middle" x="612" y="-776.5" font-family="Helvetica,sans-Serif" font-size="10.00"> </text>
<polyline fill="none" stroke="#bfbfbf" points="543.5,-769.5 680.5,-769.5 "/>
<text text-anchor="middle" x="612" y="-757.5" font-family="Helvetica,sans-Serif" font-size="10.00"> </text>
</a>
</g>
</g>
<!-- Node7&#45;&gt;Node3 -->
<g id="edge6" class="edge">
<title>Node7&#45;&gt;Node3</title>
<path fill="none" stroke="#404040" d="M593.2,-750.16C581.63,-729.63 566.12,-702.14 550.86,-675.07"/>
<polygon fill="none" stroke="#404040" points="550.7,-674.78 544.27,-671.52 544.8,-664.33 551.23,-667.59 550.7,-674.78"/>
<text text-anchor="middle" x="616.5" y="-707.5" font-family="Helvetica,sans-Serif" font-size="10.00"> &#45;audio_buffer_</text>
</g>
<!-- Node8 -->
<g id="node8" class="node">
<title>Node8</title>
<g id="a_node8"><a xlink:title=" ">
<polygon fill="none" stroke="#bfbfbf" points="789,-756 789,-813 845,-813 845,-756 789,-756"/>
<text text-anchor="middle" x="817" y="-801" font-family="Helvetica,sans-Serif" font-size="10.00">uint32_t</text>
<polyline fill="none" stroke="#bfbfbf" points="789,-794 845,-794 "/>
<text text-anchor="middle" x="817" y="-782" font-family="Helvetica,sans-Serif" font-size="10.00"> </text>
<polyline fill="none" stroke="#bfbfbf" points="789,-775 845,-775 "/>
<text text-anchor="middle" x="817" y="-763" font-family="Helvetica,sans-Serif" font-size="10.00"> </text>
</a>
</g>
</g>
<!-- Node8&#45;&gt;Node3 -->
<g id="edge7" class="edge">
<title>Node8&#45;&gt;Node3</title>
<path fill="none" stroke="#404040" d="M790.3,-755.93C783,-748.26 775.13,-739.86 768,-732 750.65,-712.86 752.53,-700.65 730,-688 687.57,-664.17 666.8,-689 622,-670 605.32,-662.93 588.8,-653.25 573.46,-642.78"/>
<polygon fill="none" stroke="#404040" points="573.37,-642.72 566.16,-642.53 563.56,-635.8 570.77,-635.99 573.37,-642.72"/>
<text text-anchor="middle" x="792.5" y="-707.5" font-family="Helvetica,sans-Serif" font-size="10.00"> &#45;latency_</text>
</g>
<!-- Node19 -->
<g id="node19" class="node">
<title>Node19</title>
<g id="a_node19"><a xlink:href="classsignal__easel_1_1BitStream.html" target="_top" xlink:title=" ">
<polygon fill="none" stroke="black" points="780.5,-480.5 780.5,-669.5 927.5,-669.5 927.5,-480.5 780.5,-480.5"/>
<text text-anchor="middle" x="854" y="-657.5" font-family="Helvetica,sans-Serif" font-size="10.00">signal_easel::BitStream</text>
<polyline fill="none" stroke="black" points="780.5,-650.5 927.5,-650.5 "/>
<text text-anchor="middle" x="854" y="-638.5" font-family="Helvetica,sans-Serif" font-size="10.00"> </text>
<polyline fill="none" stroke="black" points="780.5,-631.5 927.5,-631.5 "/>
<text text-anchor="start" x="788.5" y="-619.5" font-family="Helvetica,sans-Serif" font-size="10.00">+ addBits()</text>
<text text-anchor="start" x="788.5" y="-608.5" font-family="Helvetica,sans-Serif" font-size="10.00">+ addOneBit()</text>
<text text-anchor="start" x="788.5" y="-597.5" font-family="Helvetica,sans-Serif" font-size="10.00">+ addZeroBit()</text>
<text text-anchor="start" x="788.5" y="-586.5" font-family="Helvetica,sans-Serif" font-size="10.00">+ clear()</text>
<text text-anchor="start" x="788.5" y="-575.5" font-family="Helvetica,sans-Serif" font-size="10.00">+ dumpBitStream()</text>
<text text-anchor="start" x="788.5" y="-564.5" font-family="Helvetica,sans-Serif" font-size="10.00">+ dumpBitStreamAsAscii()</text>
<text text-anchor="start" x="788.5" y="-553.5" font-family="Helvetica,sans-Serif" font-size="10.00">+ dumpBitStreamAsHex()</text>
<text text-anchor="start" x="788.5" y="-542.5" font-family="Helvetica,sans-Serif" font-size="10.00">+ getBitStreamLength()</text>
<text text-anchor="start" x="788.5" y="-531.5" font-family="Helvetica,sans-Serif" font-size="10.00">+ getBitVector()</text>
<text text-anchor="start" x="788.5" y="-520.5" font-family="Helvetica,sans-Serif" font-size="10.00">+ peakNextBit()</text>
<text text-anchor="start" x="788.5" y="-509.5" font-family="Helvetica,sans-Serif" font-size="10.00">+ peakNextByte()</text>
<text text-anchor="start" x="788.5" y="-498.5" font-family="Helvetica,sans-Serif" font-size="10.00">+ popNextBit()</text>
<text text-anchor="start" x="788.5" y="-487.5" font-family="Helvetica,sans-Serif" font-size="10.00">+ pushBufferToBitStream()</text>
</a>
</g>
</g>
<!-- Node8&#45;&gt;Node19 -->
<g id="edge23" class="edge">
<title>Node8&#45;&gt;Node19</title>
<path fill="none" stroke="#404040" d="M818.93,-755.79C820.5,-736.65 823.1,-710.67 827,-688 827.37,-685.84 827.76,-683.66 828.17,-681.46"/>
<polygon fill="none" stroke="#404040" points="828.18,-681.39 825.4,-674.74 830.47,-669.61 833.25,-676.27 828.18,-681.39"/>
<text text-anchor="middle" x="876.5" y="-707.5" font-family="Helvetica,sans-Serif" font-size="10.00"> &#45;bit_stream_buffer_</text>
</g>
<!-- Node9 -->
<g id="node9" class="node">
<title>Node9</title>
<g id="a_node9"><a xlink:title=" ">
<polygon fill="none" stroke="#bfbfbf" points="450.5,-756 450.5,-813 525.5,-813 525.5,-756 450.5,-756"/>
<text text-anchor="middle" x="488" y="-801" font-family="Helvetica,sans-Serif" font-size="10.00">pa_simple *</text>
<polyline fill="none" stroke="#bfbfbf" points="450.5,-794 525.5,-794 "/>
<text text-anchor="middle" x="488" y="-782" font-family="Helvetica,sans-Serif" font-size="10.00"> </text>
<polyline fill="none" stroke="#bfbfbf" points="450.5,-775 525.5,-775 "/>
<text text-anchor="middle" x="488" y="-763" font-family="Helvetica,sans-Serif" font-size="10.00"> </text>
</a>
</g>
</g>
<!-- Node9&#45;&gt;Node3 -->
<g id="edge8" class="edge">
<title>Node9&#45;&gt;Node3</title>
<path fill="none" stroke="#404040" d="M488.93,-755.95C489.63,-735.31 490.62,-705.7 491.61,-676.45"/>
<polygon fill="none" stroke="#404040" points="491.61,-676.4 487.82,-670.27 492.02,-664.4 495.81,-670.54 491.61,-676.4"/>
<text text-anchor="middle" x="500" y="-707.5" font-family="Helvetica,sans-Serif" font-size="10.00"> &#45;s_</text>
</g>
<!-- Node10&#45;&gt;Node2 -->
<g id="edge9" class="edge">
<title>Node10&#45;&gt;Node2</title>
<path fill="none" stroke="#404040" d="M272.8,-546.23C277.37,-519.78 284.4,-479.06 290.3,-444.9"/>
<polygon fill="none" stroke="#404040" points="290.38,-444.48 287.46,-437.89 292.42,-432.66 295.34,-439.25 290.38,-444.48"/>
<text text-anchor="middle" x="317" y="-454" font-family="Helvetica,sans-Serif" font-size="10.00"> #settings_</text>
</g>
<!-- Node13 -->
<g id="node13" class="node">
<title>Node13</title>
<g id="a_node13"><a xlink:href="structsignal__easel_1_1afsk_1_1Settings.html" target="_top" xlink:title="Settings for AFSK modulation/demodulation.">
<polygon fill="none" stroke="black" points="116,-348 116,-416 220,-416 220,-348 116,-348"/>
<text text-anchor="start" x="124" y="-404" font-family="Helvetica,sans-Serif" font-size="10.00">signal_easel::afsk</text>
<text text-anchor="middle" x="168" y="-393" font-family="Helvetica,sans-Serif" font-size="10.00">::Settings</text>
<polyline fill="none" stroke="black" points="116,-386 220,-386 "/>
<text text-anchor="middle" x="168" y="-374" font-family="Helvetica,sans-Serif" font-size="10.00"> </text>
<polyline fill="none" stroke="black" points="116,-367 220,-367 "/>
<text text-anchor="middle" x="168" y="-355" font-family="Helvetica,sans-Serif" font-size="10.00"> </text>
</a>
</g>
</g>
<!-- Node10&#45;&gt;Node13 -->
<g id="edge14" class="edge">
<title>Node10&#45;&gt;Node13</title>
<path fill="none" stroke="midnightblue" d="M271.37,-536.24C271.91,-510.54 269.04,-476.67 254,-451 247.08,-439.19 239.86,-441.34 229,-433 222.05,-427.66 214.77,-421.86 207.74,-416.18"/>
<polygon fill="none" stroke="midnightblue" points="267.87,-536.23 270.98,-546.36 274.86,-536.5 267.87,-536.23"/>
</g>
<!-- Node17 -->
<g id="node17" class="node">
<title>Node17</title>
<g id="a_node17"><a xlink:href="classsignal__easel_1_1Demodulator.html" target="_top" xlink:title="The base class for all demodulators that turn audio into data.">
<polygon fill="none" stroke="black" points="382.5,-331.5 382.5,-432.5 529.5,-432.5 529.5,-331.5 382.5,-331.5"/>
<text text-anchor="middle" x="456" y="-420.5" font-family="Helvetica,sans-Serif" font-size="10.00">signal_easel::Demodulator</text>
<polyline fill="none" stroke="black" points="382.5,-413.5 529.5,-413.5 "/>
<text text-anchor="middle" x="456" y="-401.5" font-family="Helvetica,sans-Serif" font-size="10.00"> </text>
<polyline fill="none" stroke="black" points="382.5,-394.5 529.5,-394.5 "/>
<text text-anchor="start" x="390.5" y="-382.5" font-family="Helvetica,sans-Serif" font-size="10.00">+ Demodulator()</text>
<text text-anchor="start" x="390.5" y="-371.5" font-family="Helvetica,sans-Serif" font-size="10.00">+ ~Demodulator()</text>
<text text-anchor="start" x="390.5" y="-360.5" font-family="Helvetica,sans-Serif" font-size="10.00">+ clearBuffer()</text>
<text text-anchor="start" x="390.5" y="-349.5" font-family="Helvetica,sans-Serif" font-size="10.00">+ loadAudioFromFile()</text>
<text text-anchor="start" x="390.5" y="-338.5" font-family="Helvetica,sans-Serif" font-size="10.00"># getAudioBuffer()</text>
</a>
</g>
</g>
<!-- Node10&#45;&gt;Node17 -->
<g id="edge20" class="edge">
<title>Node10&#45;&gt;Node17</title>
<path fill="none" stroke="#404040" d="M295.34,-546.23C322.28,-518.85 364.28,-476.18 398.58,-441.34"/>
<polygon fill="none" stroke="#404040" points="398.7,-441.21 400.06,-434.13 407.12,-432.66 405.76,-439.74 398.7,-441.21"/>
<text text-anchor="middle" x="413" y="-454" font-family="Helvetica,sans-Serif" font-size="10.00"> #settings_</text>
</g>
<!-- Node11 -->
<g id="node11" class="node">
<title>Node11</title>
<g id="a_node11"><a xlink:title=" ">
<polygon fill="none" stroke="#bfbfbf" points="115.5,-756 115.5,-813 198.5,-813 198.5,-756 115.5,-756"/>
<text text-anchor="middle" x="157" y="-801" font-family="Helvetica,sans-Serif" font-size="10.00">CallSignMode</text>
<polyline fill="none" stroke="#bfbfbf" points="115.5,-794 198.5,-794 "/>
<text text-anchor="middle" x="157" y="-782" font-family="Helvetica,sans-Serif" font-size="10.00"> </text>
<polyline fill="none" stroke="#bfbfbf" points="115.5,-775 198.5,-775 "/>
<text text-anchor="middle" x="157" y="-763" font-family="Helvetica,sans-Serif" font-size="10.00"> </text>
</a>
</g>
</g>
<!-- Node11&#45;&gt;Node10 -->
<g id="edge11" class="edge">
<title>Node11&#45;&gt;Node10</title>
<path fill="none" stroke="#404040" d="M158.16,-755.6C159.87,-735.92 164.02,-709.36 174,-688 187.2,-659.75 209.37,-632.83 228.87,-612.46"/>
<polygon fill="none" stroke="#404040" points="228.9,-612.43 230.25,-605.35 237.31,-603.87 235.96,-610.95 228.9,-612.43"/>
<text text-anchor="middle" x="218" y="-707.5" font-family="Helvetica,sans-Serif" font-size="10.00"> +call_sign_mode</text>
</g>
<!-- Node12 -->
<g id="node12" class="node">
<title>Node12</title>
<g id="a_node12"><a xlink:title=" ">
<polygon fill="none" stroke="#bfbfbf" points="53,-756 53,-813 97,-813 97,-756 53,-756"/>
<text text-anchor="middle" x="75" y="-801" font-family="Helvetica,sans-Serif" font-size="10.00">string</text>
<polyline fill="none" stroke="#bfbfbf" points="53,-794 97,-794 "/>
<text text-anchor="middle" x="75" y="-782" font-family="Helvetica,sans-Serif" font-size="10.00"> </text>
<polyline fill="none" stroke="#bfbfbf" points="53,-775 97,-775 "/>
<text text-anchor="middle" x="75" y="-763" font-family="Helvetica,sans-Serif" font-size="10.00"> </text>
</a>
</g>
</g>
<!-- Node12&#45;&gt;Node10 -->
<g id="edge12" class="edge">
<title>Node12&#45;&gt;Node10</title>
<path fill="none" stroke="#404040" d="M76.24,-755.69C78.65,-734.47 85.26,-705.93 103,-688 122.28,-668.51 138.08,-683.4 162,-670 188.98,-654.88 215.03,-631.94 234.55,-612.5"/>
<polygon fill="none" stroke="#404040" points="234.63,-612.42 235.99,-605.33 243.04,-603.86 241.69,-610.94 234.63,-612.42"/>
<text text-anchor="middle" x="130.5" y="-707.5" font-family="Helvetica,sans-Serif" font-size="10.00"> +call_sign</text>
</g>
<!-- Node13&#45;&gt;Node1 -->
<g id="edge13" class="edge">
<title>Node13&#45;&gt;Node1</title>
<path fill="none" stroke="#404040" d="M172.13,-347.77C179.21,-301.83 197.16,-218.02 239,-160 259.23,-131.94 289.48,-108.44 316.69,-91.04"/>
<polygon fill="none" stroke="#404040" points="316.75,-91 319.74,-84.44 326.95,-84.67 323.96,-91.24 316.75,-91"/>
<text text-anchor="middle" x="280" y="-219.5" font-family="Helvetica,sans-Serif" font-size="10.00"> #afsk_settings_</text>
</g>
<!-- Node16 -->
<g id="node16" class="node">
<title>Node16</title>
<g id="a_node16"><a xlink:href="classsignal__easel_1_1afsk_1_1Demodulator.html" target="_top" xlink:title="Demodulates an AFSK signal into data.">
<polygon fill="none" stroke="black" points="368,-160.5 368,-283.5 544,-283.5 544,-160.5 368,-160.5"/>
<text text-anchor="start" x="376" y="-271.5" font-family="Helvetica,sans-Serif" font-size="10.00">signal_easel::afsk</text>
<text text-anchor="middle" x="456" y="-260.5" font-family="Helvetica,sans-Serif" font-size="10.00">::Demodulator</text>
<polyline fill="none" stroke="black" points="368,-253.5 544,-253.5 "/>
<text text-anchor="middle" x="456" y="-241.5" font-family="Helvetica,sans-Serif" font-size="10.00"> </text>
<polyline fill="none" stroke="black" points="368,-234.5 544,-234.5 "/>
<text text-anchor="start" x="376" y="-222.5" font-family="Helvetica,sans-Serif" font-size="10.00">+ Demodulator()</text>
<text text-anchor="start" x="376" y="-211.5" font-family="Helvetica,sans-Serif" font-size="10.00">+ ~Demodulator()</text>
<text text-anchor="start" x="376" y="-200.5" font-family="Helvetica,sans-Serif" font-size="10.00">+ lookForString()</text>
<text text-anchor="start" x="376" y="-189.5" font-family="Helvetica,sans-Serif" font-size="10.00">+ processAudioBuffer()</text>
<text text-anchor="start" x="376" y="-178.5" font-family="Helvetica,sans-Serif" font-size="10.00">&#45; audioBufferToBaseBandSignal()</text>
<text text-anchor="start" x="376" y="-167.5" font-family="Helvetica,sans-Serif" font-size="10.00">&#45; baseBandToBitStream()</text>
</a>
</g>
</g>
<!-- Node13&#45;&gt;Node16 -->
<g id="edge21" class="edge">
<title>Node13&#45;&gt;Node16</title>
<path fill="none" stroke="#404040" d="M205.65,-347.78C213.15,-341.85 221.14,-335.99 229,-331 269.09,-305.57 316.09,-282.25 356.9,-263.84"/>
<polygon fill="none" stroke="#404040" points="357,-263.8 360.85,-257.7 367.95,-258.9 364.11,-265 357,-263.8"/>
<text text-anchor="middle" x="316" y="-305" font-family="Helvetica,sans-Serif" font-size="10.00"> &#45;afsk_settings_</text>
</g>
<!-- Node14 -->
<g id="node14" class="node">
<title>Node14</title>
<g id="a_node14"><a xlink:title=" ">
<polygon fill="none" stroke="#bfbfbf" points="0,-546.5 0,-603.5 74,-603.5 74,-546.5 0,-546.5"/>
<text text-anchor="middle" x="37" y="-591.5" font-family="Helvetica,sans-Serif" font-size="10.00">BitEncoding</text>
<polyline fill="none" stroke="#bfbfbf" points="0,-584.5 74,-584.5 "/>
<text text-anchor="middle" x="37" y="-572.5" font-family="Helvetica,sans-Serif" font-size="10.00"> </text>
<polyline fill="none" stroke="#bfbfbf" points="0,-565.5 74,-565.5 "/>
<text text-anchor="middle" x="37" y="-553.5" font-family="Helvetica,sans-Serif" font-size="10.00"> </text>
</a>
</g>
</g>
<!-- Node14&#45;&gt;Node13 -->
<g id="edge15" class="edge">
<title>Node14&#45;&gt;Node13</title>
<path fill="none" stroke="#404040" d="M34.89,-546.46C34.22,-519.84 36.97,-479.47 56,-451 68.05,-432.97 86.65,-418.94 105.26,-408.43"/>
<polygon fill="none" stroke="#404040" points="105.26,-408.43 108.69,-402.08 115.86,-402.8 112.44,-409.15 105.26,-408.43"/>
<text text-anchor="middle" x="93" y="-454" font-family="Helvetica,sans-Serif" font-size="10.00"> +bit_encoding</text>
</g>
<!-- Node15 -->
<g id="node15" class="node">
<title>Node15</title>
<g id="a_node15"><a xlink:title=" ">
<polygon fill="none" stroke="#bfbfbf" points="115,-546.5 115,-603.5 153,-603.5 153,-546.5 115,-546.5"/>
<text text-anchor="middle" x="134" y="-591.5" font-family="Helvetica,sans-Serif" font-size="10.00">bool</text>
<polyline fill="none" stroke="#bfbfbf" points="115,-584.5 153,-584.5 "/>
<text text-anchor="middle" x="134" y="-572.5" font-family="Helvetica,sans-Serif" font-size="10.00"> </text>
<polyline fill="none" stroke="#bfbfbf" points="115,-565.5 153,-565.5 "/>
<text text-anchor="middle" x="134" y="-553.5" font-family="Helvetica,sans-Serif" font-size="10.00"> </text>
</a>
</g>
</g>
<!-- Node15&#45;&gt;Node13 -->
<g id="edge16" class="edge">
<title>Node15&#45;&gt;Node13</title>
<path fill="none" stroke="#404040" d="M130.78,-546.23C128.66,-521.03 127.5,-483.02 135,-451 136.87,-443.02 139.79,-434.88 143.14,-427.14"/>
<polygon fill="none" stroke="#404040" points="143.2,-427.02 142.12,-419.89 148.28,-416.15 149.37,-423.28 143.2,-427.02"/>
<text text-anchor="middle" x="194.5" y="-454" font-family="Helvetica,sans-Serif" font-size="10.00"> +include_ascii_padding</text>
</g>
<!-- Node16&#45;&gt;Node1 -->
<g id="edge17" class="edge">
<title>Node16&#45;&gt;Node1</title>
<path fill="none" stroke="#404040" d="M427.33,-160.12C421.73,-148.23 415.83,-135.71 410.16,-123.67"/>
<polygon fill="none" stroke="#404040" points="410.14,-123.62 403.96,-119.9 405.03,-112.76 411.2,-116.49 410.14,-123.62"/>
<text text-anchor="middle" x="457.5" y="-134" font-family="Helvetica,sans-Serif" font-size="10.00"> #demodulator_</text>
</g>
<!-- Node17&#45;&gt;Node16 -->
<g id="edge18" class="edge">
<title>Node17&#45;&gt;Node16</title>
<path fill="none" stroke="midnightblue" d="M456,-321.31C456,-309.03 456,-296.09 456,-283.77"/>
<polygon fill="none" stroke="midnightblue" points="452.5,-321.44 456,-331.44 459.5,-321.44 452.5,-321.44"/>
</g>
<!-- Node18 -->
<g id="node18" class="node">
<title>Node18</title>
<g id="a_node18"><a xlink:title=" ">
<polygon fill="none" stroke="#bfbfbf" points="631,-546.5 631,-603.5 735,-603.5 735,-546.5 631,-546.5"/>
<text text-anchor="middle" x="683" y="-591.5" font-family="Helvetica,sans-Serif" font-size="10.00">vector&lt; int16_t &gt;</text>
<polyline fill="none" stroke="#bfbfbf" points="631,-584.5 735,-584.5 "/>
<text text-anchor="middle" x="683" y="-572.5" font-family="Helvetica,sans-Serif" font-size="10.00"> </text>
<polyline fill="none" stroke="#bfbfbf" points="631,-565.5 735,-565.5 "/>
<text text-anchor="middle" x="683" y="-553.5" font-family="Helvetica,sans-Serif" font-size="10.00"> </text>
</a>
</g>
</g>
<!-- Node18&#45;&gt;Node1 -->
<g id="edge27" class="edge">
<title>Node18&#45;&gt;Node1</title>
<path fill="none" stroke="#404040" d="M710.76,-546.22C743.16,-513.04 793.51,-458.79 803,-433 818.65,-390.45 824.15,-371.1 803,-331 727.79,-188.43 541.62,-109.5 442.87,-76.39"/>
<polygon fill="none" stroke="#404040" points="442.68,-76.33 435.73,-78.26 431.28,-72.58 438.23,-70.66 442.68,-76.33"/>
<text text-anchor="middle" x="833.5" y="-305" font-family="Helvetica,sans-Serif" font-size="10.00"> #receive_buffer_</text>
</g>
<!-- Node18&#45;&gt;Node17 -->
<g id="edge19" class="edge">
<title>Node18&#45;&gt;Node17</title>
<path fill="none" stroke="#404040" d="M661.89,-546.39C640.76,-519.9 606.39,-479.8 571,-451 567.46,-448.12 555.21,-440.57 539.95,-431.51"/>
<polygon fill="none" stroke="#404040" points="539.89,-431.47 532.69,-431.86 529.55,-425.37 536.75,-424.97 539.89,-431.47"/>
<text text-anchor="middle" x="620" y="-454" font-family="Helvetica,sans-Serif" font-size="10.00"> #audio_buffer_</text>
</g>
<!-- Node19&#45;&gt;Node16 -->
<g id="edge22" class="edge">
<title>Node19&#45;&gt;Node16</title>
<path fill="none" stroke="#404040" d="M780.39,-504.93C768.71,-495.83 756.39,-487.18 744,-480 710.92,-460.82 699.82,-461.3 663,-451 624.56,-440.24 605.1,-459.22 575,-433 538.75,-401.42 561.93,-373.25 539,-331 532.13,-318.34 523.82,-305.58 515.16,-293.5"/>
<polygon fill="none" stroke="#404040" points="514.93,-293.19 508.15,-290.72 507.82,-283.52 514.6,-285.98 514.93,-293.19"/>
<text text-anchor="middle" x="628" y="-379.5" font-family="Helvetica,sans-Serif" font-size="10.00"> #output_bit_stream_</text>
</g>
<!-- Node20 -->
<g id="node20" class="node">
<title>Node20</title>
<g id="a_node20"><a xlink:title=" ">
<polygon fill="none" stroke="#bfbfbf" points="933.5,-756 933.5,-813 962.5,-813 962.5,-756 933.5,-756"/>
<text text-anchor="middle" x="948" y="-801" font-family="Helvetica,sans-Serif" font-size="10.00">int</text>
<polyline fill="none" stroke="#bfbfbf" points="933.5,-794 962.5,-794 "/>
<text text-anchor="middle" x="948" y="-782" font-family="Helvetica,sans-Serif" font-size="10.00"> </text>
<polyline fill="none" stroke="#bfbfbf" points="933.5,-775 962.5,-775 "/>
<text text-anchor="middle" x="948" y="-763" font-family="Helvetica,sans-Serif" font-size="10.00"> </text>
</a>
</g>
</g>
<!-- Node20&#45;&gt;Node19 -->
<g id="edge24" class="edge">
<title>Node20&#45;&gt;Node19</title>
<path fill="none" stroke="#404040" d="M944.24,-755.97C940.96,-736.45 935.25,-709.95 926,-688 924.96,-685.53 923.87,-683.06 922.73,-680.59"/>
<polygon fill="none" stroke="#404040" points="922.71,-680.55 916.49,-676.91 917.46,-669.76 923.68,-673.41 922.71,-680.55"/>
<text text-anchor="middle" x="987.5" y="-724" font-family="Helvetica,sans-Serif" font-size="10.00"> &#45;bit_stream_index_</text>
<text text-anchor="start" x="939" y="-713" font-family="Helvetica,sans-Serif" font-size="10.00">&#45;bit_stream_length</text>
<text text-anchor="middle" x="987.5" y="-702" font-family="Helvetica,sans-Serif" font-size="10.00">_</text>
<text text-anchor="middle" x="987.5" y="-691" font-family="Helvetica,sans-Serif" font-size="10.00">&#45;bit_stream_offset_</text>
</g>
<!-- Node21 -->
<g id="node21" class="node">
<title>Node21</title>
<g id="a_node21"><a xlink:title=" ">
<polygon fill="none" stroke="#bfbfbf" points="1013,-756 1013,-813 1123,-813 1123,-756 1013,-756"/>
<text text-anchor="middle" x="1068" y="-801" font-family="Helvetica,sans-Serif" font-size="10.00">vector&lt; uint32_t &gt;</text>
<polyline fill="none" stroke="#bfbfbf" points="1013,-794 1123,-794 "/>
<text text-anchor="middle" x="1068" y="-782" font-family="Helvetica,sans-Serif" font-size="10.00"> </text>
<polyline fill="none" stroke="#bfbfbf" points="1013,-775 1123,-775 "/>
<text text-anchor="middle" x="1068" y="-763" font-family="Helvetica,sans-Serif" font-size="10.00"> </text>
</a>
</g>
</g>
<!-- Node21&#45;&gt;Node19 -->
<g id="edge25" class="edge">
<title>Node21&#45;&gt;Node19</title>
<path fill="none" stroke="#404040" d="M1065.34,-755.97C1062.16,-735.45 1055.2,-707.7 1040,-688 1013.92,-654.19 974.5,-628.37 938.65,-610.09"/>
<polygon fill="none" stroke="#404040" points="938.42,-609.98 931.27,-610.9 927.66,-604.66 934.81,-603.73 938.42,-609.98"/>
<text text-anchor="middle" x="1092.5" y="-707.5" font-family="Helvetica,sans-Serif" font-size="10.00"> &#45;bit_stream_</text>
</g>
<!-- Node22 -->
<g id="node22" class="node">
<title>Node22</title>
<g id="a_node22"><a xlink:title=" ">
<polygon fill="none" stroke="#bfbfbf" points="690,-353.5 690,-410.5 794,-410.5 794,-353.5 690,-353.5"/>
<text text-anchor="middle" x="742" y="-398.5" font-family="Helvetica,sans-Serif" font-size="10.00">vector&lt; uint8_t &gt;</text>
<polyline fill="none" stroke="#bfbfbf" points="690,-391.5 794,-391.5 "/>
<text text-anchor="middle" x="742" y="-379.5" font-family="Helvetica,sans-Serif" font-size="10.00"> </text>
<polyline fill="none" stroke="#bfbfbf" points="690,-372.5 794,-372.5 "/>
<text text-anchor="middle" x="742" y="-360.5" font-family="Helvetica,sans-Serif" font-size="10.00"> </text>
</a>
</g>
</g>
<!-- Node22&#45;&gt;Node16 -->
<g id="edge26" class="edge">
<title>Node22&#45;&gt;Node16</title>
<path fill="none" stroke="#404040" d="M708.29,-353.5C698.19,-345.8 686.89,-337.71 676,-331 637.92,-307.53 594.02,-285.13 555.5,-266.87"/>
<polygon fill="none" stroke="#404040" points="555.12,-266.69 547.99,-267.76 544.26,-261.59 551.39,-260.52 555.12,-266.69"/>
<text text-anchor="middle" x="691" y="-305" font-family="Helvetica,sans-Serif" font-size="10.00"> &#45;base_band_signal_</text>
</g>
</g>
</svg>
