<?xml version="1.0" encoding="UTF-8" standalone="no"?>
<!DOCTYPE svg PUBLIC "-//W3C//DTD SVG 1.1//EN"
 "http://www.w3.org/Graphics/SVG/1.1/DTD/svg11.dtd">
<!-- Generated by graphviz version 2.43.0 (0)
 -->
<!-- Title: signal_easel::BitStream::addBits Pages: 1 -->
<svg width="991pt" height="170pt"
 viewBox="0.00 0.00 991.00 170.00" xmlns="http://www.w3.org/2000/svg" xmlns:xlink="http://www.w3.org/1999/xlink">
<g id="graph0" class="graph" transform="scale(1 1) rotate(0) translate(4 166)">
<title>signal_easel::BitStream::addBits</title>
<!-- Node1 -->
<g id="node1" class="node">
<title>Node1</title>
<g id="a_node1"><a xlink:title=" ">
<polygon fill="#bfbfbf" stroke="black" points="851,-74 851,-104 983,-104 983,-74 851,-74"/>
<text text-anchor="start" x="859" y="-92" font-family="Helvetica,sans-Serif" font-size="10.00">signal_easel::BitStream</text>
<text text-anchor="middle" x="917" y="-81" font-family="Helvetica,sans-Serif" font-size="10.00">::addBits</text>
</a>
</g>
</g>
<!-- Node2 -->
<g id="node2" class="node">
<title>Node2</title>
<g id="a_node2"><a xlink:href="classsignal__easel_1_1BitStream.html#a81d4aea4c11f65e0c2b7ad2f0f0cc312" target="_top" xlink:title=" ">
<polygon fill="none" stroke="black" points="683,-74 683,-104 815,-104 815,-74 683,-74"/>
<text text-anchor="start" x="691" y="-92" font-family="Helvetica,sans-Serif" font-size="10.00">signal_easel::BitStream</text>
<text text-anchor="middle" x="749" y="-81" font-family="Helvetica,sans-Serif" font-size="10.00">::addOneBit</text>
</a>
</g>
</g>
<!-- Node1&#45;&gt;Node2 -->
<g id="edge1" class="edge">
<title>Node1&#45;&gt;Node2</title>
<path fill="none" stroke="midnightblue" d="M840.61,-89C832.13,-89 823.55,-89 815.22,-89"/>
<polygon fill="midnightblue" stroke="midnightblue" points="840.87,-92.5 850.87,-89 840.87,-85.5 840.87,-92.5"/>
</g>
<!-- Node8 -->
<g id="node8" class="node">
<title>Node8</title>
<g id="a_node8"><a xlink:href="classsignal__easel_1_1ax25_1_1Frame.html#a2b4f6ebcb7592a7e5a21114c8fafa503" target="_top" xlink:title="A step beyond buildFrame. This function builds the frame, does the bit stuffing, adds the flags,...">
<polygon fill="none" stroke="black" points="522,-71 522,-101 647,-101 647,-71 522,-71"/>
<text text-anchor="start" x="530" y="-89" font-family="Helvetica,sans-Serif" font-size="10.00">signal_easel::ax25</text>
<text text-anchor="middle" x="584.5" y="-78" font-family="Helvetica,sans-Serif" font-size="10.00">::Frame::encodeFrame</text>
</a>
</g>
</g>
<!-- Node1&#45;&gt;Node8 -->
<g id="edge15" class="edge">
<title>Node1&#45;&gt;Node8</title>
<path fill="none" stroke="midnightblue" d="M855.62,-71.53C842.35,-68.4 828.29,-65.62 815,-64 756.76,-56.9 741.31,-57.5 683,-64 669.72,-65.48 655.61,-68.06 642.37,-70.94"/>
<polygon fill="midnightblue" stroke="midnightblue" points="855.04,-74.99 865.59,-73.97 856.71,-68.19 855.04,-74.99"/>
</g>
<!-- Node12 -->
<g id="node12" class="node">
<title>Node12</title>
<g id="a_node12"><a xlink:href="classsignal__easel_1_1BitStream.html#abb315beec8c4d88115d9d4ec5f082863" target="_top" xlink:title=" ">
<polygon fill="none" stroke="black" points="683,-123 683,-153 815,-153 815,-123 683,-123"/>
<text text-anchor="start" x="691" y="-141" font-family="Helvetica,sans-Serif" font-size="10.00">signal_easel::BitStream</text>
<text text-anchor="middle" x="749" y="-130" font-family="Helvetica,sans-Serif" font-size="10.00">::addZeroBit</text>
</a>
</g>
</g>
<!-- Node1&#45;&gt;Node12 -->
<g id="edge12" class="edge">
<title>Node1&#45;&gt;Node12</title>
<path fill="none" stroke="midnightblue" d="M855.13,-106.97C837.35,-112.22 818.1,-117.9 800.99,-122.95"/>
<polygon fill="midnightblue" stroke="midnightblue" points="856.24,-110.29 864.84,-104.1 854.26,-103.58 856.24,-110.29"/>
</g>
<!-- Node3 -->
<g id="node3" class="node">
<title>Node3</title>
<g id="a_node3"><a xlink:href="namespacesignal__easel_1_1ax25.html#a84e1d1bf82ef828a150bc94cf065e396" target="_top" xlink:title="Convert a bit stream from NRZI to standard encoding.">
<polygon fill="none" stroke="black" points="531,-123 531,-153 638,-153 638,-123 531,-123"/>
<text text-anchor="start" x="539" y="-141" font-family="Helvetica,sans-Serif" font-size="10.00">signal_easel::ax25</text>
<text text-anchor="middle" x="584.5" y="-130" font-family="Helvetica,sans-Serif" font-size="10.00">::decodeNrzi</text>
</a>
</g>
</g>
<!-- Node2&#45;&gt;Node3 -->
<g id="edge2" class="edge">
<title>Node2&#45;&gt;Node3</title>
<path fill="none" stroke="midnightblue" d="M687.93,-107.11C670.66,-112.32 652.01,-117.95 635.42,-122.95"/>
<polygon fill="midnightblue" stroke="midnightblue" points="689.35,-110.34 697.92,-104.1 687.33,-103.64 689.35,-110.34"/>
</g>
<!-- Node2&#45;&gt;Node8 -->
<g id="edge7" class="edge">
<title>Node2&#45;&gt;Node8</title>
<path fill="none" stroke="midnightblue" d="M672.57,-87.61C664.09,-87.45 655.52,-87.29 647.24,-87.14"/>
<polygon fill="midnightblue" stroke="midnightblue" points="672.78,-91.11 682.84,-87.8 672.91,-84.11 672.78,-91.11"/>
</g>
<!-- Node4 -->
<g id="node4" class="node">
<title>Node4</title>
<g id="a_node4"><a xlink:href="classsignal__easel_1_1ax25_1_1Frame.html#a63cf2362c2a90d20f09bbbc4f24a07ba" target="_top" xlink:title="Attempt to parse an incoming bit stream into an AX.25 frame.">
<polygon fill="none" stroke="black" points="343.5,-124 343.5,-154 478.5,-154 478.5,-124 343.5,-124"/>
<text text-anchor="start" x="351.5" y="-142" font-family="Helvetica,sans-Serif" font-size="10.00">signal_easel::ax25</text>
<text text-anchor="middle" x="411" y="-131" font-family="Helvetica,sans-Serif" font-size="10.00">::Frame::parseBitStream</text>
</a>
</g>
</g>
<!-- Node3&#45;&gt;Node4 -->
<g id="edge3" class="edge">
<title>Node3&#45;&gt;Node4</title>
<path fill="none" stroke="midnightblue" d="M520.42,-138.37C506.8,-138.45 492.37,-138.53 478.62,-138.61"/>
<polygon fill="midnightblue" stroke="midnightblue" points="520.67,-141.87 530.64,-138.31 520.62,-134.87 520.67,-141.87"/>
</g>
<!-- Node5 -->
<g id="node5" class="node">
<title>Node5</title>
<g id="a_node5"><a xlink:href="classsignal__easel_1_1aprs_1_1Demodulator.html#ae5a8e7634c1bc8d215a0c454a9a737fa" target="_top" xlink:title=" ">
<polygon fill="none" stroke="black" points="145,-120.5 145,-161.5 298,-161.5 298,-120.5 145,-120.5"/>
<text text-anchor="start" x="153" y="-149.5" font-family="Helvetica,sans-Serif" font-size="10.00">signal_easel::aprs</text>
<text text-anchor="start" x="153" y="-138.5" font-family="Helvetica,sans-Serif" font-size="10.00">::Demodulator::lookForAx25</text>
<text text-anchor="middle" x="221.5" y="-127.5" font-family="Helvetica,sans-Serif" font-size="10.00">Packet</text>
</a>
</g>
</g>
<!-- Node4&#45;&gt;Node5 -->
<g id="edge4" class="edge">
<title>Node4&#45;&gt;Node5</title>
<path fill="none" stroke="midnightblue" d="M333.29,-139.82C321.7,-139.94 309.75,-140.07 298.18,-140.19"/>
<polygon fill="midnightblue" stroke="midnightblue" points="333.4,-143.32 343.37,-139.71 333.33,-136.32 333.4,-143.32"/>
</g>
<!-- Node6 -->
<g id="node6" class="node">
<title>Node6</title>
<g id="a_node6"><a xlink:href="classsignal__easel_1_1aprs_1_1Receiver.html#afbf7869aceaf2ea7ab0be8b9af16e818" target="_top" xlink:title=" ">
<polygon fill="none" stroke="black" points="0,-126 0,-156 107,-156 107,-126 0,-126"/>
<text text-anchor="start" x="8" y="-144" font-family="Helvetica,sans-Serif" font-size="10.00">signal_easel::aprs</text>
<text text-anchor="middle" x="53.5" y="-133" font-family="Helvetica,sans-Serif" font-size="10.00">::Receiver::decode</text>
</a>
</g>
</g>
<!-- Node5&#45;&gt;Node6 -->
<g id="edge5" class="edge">
<title>Node5&#45;&gt;Node6</title>
<path fill="none" stroke="midnightblue" d="M134.68,-141C125.35,-141 116.08,-141 107.33,-141"/>
<polygon fill="midnightblue" stroke="midnightblue" points="134.79,-144.5 144.79,-141 134.79,-137.5 134.79,-144.5"/>
</g>
<!-- Node7 -->
<g id="node7" class="node">
<title>Node7</title>
<g id="a_node7"><a xlink:href="aprs__test_8cpp.html#aea66d1824e3f1e27598adf99ac6a089a" target="_top" xlink:title=" ">
<polygon fill="none" stroke="black" points="33,-49.5 33,-68.5 74,-68.5 74,-49.5 33,-49.5"/>
<text text-anchor="middle" x="53.5" y="-56.5" font-family="Helvetica,sans-Serif" font-size="10.00">TEST</text>
</a>
</g>
</g>
<!-- Node5&#45;&gt;Node7 -->
<g id="edge6" class="edge">
<title>Node5&#45;&gt;Node7</title>
<path fill="none" stroke="midnightblue" d="M154.75,-116.41C150.74,-114.65 146.8,-112.84 143,-111 116.05,-97.97 86.36,-79.65 69.13,-68.59"/>
<polygon fill="midnightblue" stroke="midnightblue" points="153.59,-119.72 164.16,-120.43 156.34,-113.28 153.59,-119.72"/>
</g>
<!-- Node9 -->
<g id="node9" class="node">
<title>Node9</title>
<g id="a_node9"><a xlink:href="namespacesignal__easel.html#aad3ffdd47a4a03ed438e8c1ca9eef231" target="_top" xlink:title=" ">
<polygon fill="none" stroke="black" points="336,-71.5 336,-90.5 486,-90.5 486,-71.5 336,-71.5"/>
<text text-anchor="middle" x="411" y="-78.5" font-family="Helvetica,sans-Serif" font-size="10.00">signal_easel::encodePacket</text>
</a>
</g>
</g>
<!-- Node8&#45;&gt;Node9 -->
<g id="edge8" class="edge">
<title>Node8&#45;&gt;Node9</title>
<path fill="none" stroke="midnightblue" d="M511.47,-83.9C503.08,-83.66 494.51,-83.41 486.1,-83.16"/>
<polygon fill="midnightblue" stroke="midnightblue" points="511.49,-87.4 521.58,-84.19 511.69,-80.4 511.49,-87.4"/>
</g>
<!-- Node10 -->
<g id="node10" class="node">
<title>Node10</title>
<g id="a_node10"><a xlink:href="classsignal__easel_1_1aprs_1_1Modulator.html#a147321b48c2e282c62863f114702e54f" target="_top" xlink:title=" ">
<polygon fill="none" stroke="black" points="143,-0.5 143,-41.5 300,-41.5 300,-0.5 143,-0.5"/>
<text text-anchor="start" x="151" y="-29.5" font-family="Helvetica,sans-Serif" font-size="10.00">signal_easel::aprs</text>
<text text-anchor="start" x="151" y="-18.5" font-family="Helvetica,sans-Serif" font-size="10.00">::Modulator::encodeMessage</text>
<text text-anchor="middle" x="221.5" y="-7.5" font-family="Helvetica,sans-Serif" font-size="10.00">Packet</text>
</a>
</g>
</g>
<!-- Node9&#45;&gt;Node10 -->
<g id="edge9" class="edge">
<title>Node9&#45;&gt;Node10</title>
<path fill="none" stroke="midnightblue" d="M370.69,-68.42C346.36,-60.63 314.53,-50.45 286.62,-41.52"/>
<polygon fill="midnightblue" stroke="midnightblue" points="369.7,-71.78 380.29,-71.49 371.83,-65.11 369.7,-71.78"/>
</g>
<!-- Node11 -->
<g id="node11" class="node">
<title>Node11</title>
<g id="a_node11"><a xlink:href="classsignal__easel_1_1aprs_1_1Modulator.html#a943e392227656943d7db842e1889d805" target="_top" xlink:title=" ">
<polygon fill="none" stroke="black" points="145.5,-60.5 145.5,-101.5 297.5,-101.5 297.5,-60.5 145.5,-60.5"/>
<text text-anchor="start" x="153.5" y="-89.5" font-family="Helvetica,sans-Serif" font-size="10.00">signal_easel::aprs</text>
<text text-anchor="start" x="153.5" y="-78.5" font-family="Helvetica,sans-Serif" font-size="10.00">::Modulator::encodePosition</text>
<text text-anchor="middle" x="221.5" y="-67.5" font-family="Helvetica,sans-Serif" font-size="10.00">Packet</text>
</a>
</g>
</g>
<!-- Node9&#45;&gt;Node11 -->
<g id="edge11" class="edge">
<title>Node9&#45;&gt;Node11</title>
<path fill="none" stroke="midnightblue" d="M325.78,-81C316.39,-81 306.87,-81 297.6,-81"/>
<polygon fill="midnightblue" stroke="midnightblue" points="325.9,-84.5 335.9,-81 325.9,-77.5 325.9,-84.5"/>
</g>
<!-- Node10&#45;&gt;Node7 -->
<g id="edge10" class="edge">
<title>Node10&#45;&gt;Node7</title>
<path fill="none" stroke="midnightblue" d="M132.98,-41.04C110.77,-46.12 88.99,-51.1 74.03,-54.53"/>
<polygon fill="midnightblue" stroke="midnightblue" points="133.88,-44.42 142.85,-38.78 132.32,-37.6 133.88,-44.42"/>
</g>
<!-- Node12&#45;&gt;Node3 -->
<g id="edge13" class="edge">
<title>Node12&#45;&gt;Node3</title>
<path fill="none" stroke="midnightblue" d="M672.67,-138C661.02,-138 649.2,-138 638.19,-138"/>
<polygon fill="midnightblue" stroke="midnightblue" points="672.84,-141.5 682.84,-138 672.84,-134.5 672.84,-141.5"/>
</g>
<!-- Node12&#45;&gt;Node8 -->
<g id="edge14" class="edge">
<title>Node12&#45;&gt;Node8</title>
<path fill="none" stroke="midnightblue" d="M691.43,-119.9C672.15,-113.73 650.83,-106.91 632.4,-101.01"/>
<polygon fill="midnightblue" stroke="midnightblue" points="690.41,-123.25 701,-122.96 692.54,-116.58 690.41,-123.25"/>
</g>
</g>
</svg>
