<?xml version="1.0" encoding="UTF-8" standalone="no"?>
<!DOCTYPE svg PUBLIC "-//W3C//DTD SVG 1.1//EN"
 "http://www.w3.org/Graphics/SVG/1.1/DTD/svg11.dtd">
<!-- Generated by graphviz version 2.43.0 (0)
 -->
<!-- Title: signal_easel::aprs::Receiver::decode Pages: 1 -->
<svg width="1303pt" height="650pt"
 viewBox="0.00 0.00 1303.00 649.50" xmlns="http://www.w3.org/2000/svg" xmlns:xlink="http://www.w3.org/1999/xlink">
<g id="graph0" class="graph" transform="scale(1 1) rotate(0) translate(4 645.5)">
<title>signal_easel::aprs::Receiver::decode</title>
<!-- Node1 -->
<g id="node1" class="node">
<title>Node1</title>
<g id="a_node1"><a xlink:title=" ">
<polygon fill="#bfbfbf" stroke="black" points="0,-310.5 0,-340.5 107,-340.5 107,-310.5 0,-310.5"/>
<text text-anchor="start" x="8" y="-328.5" font-family="Helvetica,sans-Serif" font-size="10.00">signal_easel::aprs</text>
<text text-anchor="middle" x="53.5" y="-317.5" font-family="Helvetica,sans-Serif" font-size="10.00">::Receiver::decode</text>
</a>
</g>
</g>
<!-- Node2 -->
<g id="node2" class="node">
<title>Node2</title>
<g id="a_node2"><a xlink:href="classsignal__easel_1_1aprs_1_1Demodulator.html#a0149ecf3027f6dcaff8b3d40f7a2d488" target="_top" xlink:title=" ">
<polygon fill="none" stroke="black" points="170,-455.5 170,-485.5 301,-485.5 301,-455.5 170,-455.5"/>
<text text-anchor="start" x="178" y="-473.5" font-family="Helvetica,sans-Serif" font-size="10.00">signal_easel::aprs</text>
<text text-anchor="middle" x="235.5" y="-462.5" font-family="Helvetica,sans-Serif" font-size="10.00">::Demodulator::getType</text>
</a>
</g>
</g>
<!-- Node1&#45;&gt;Node2 -->
<g id="edge1" class="edge">
<title>Node1&#45;&gt;Node2</title>
<path fill="none" stroke="midnightblue" d="M61.42,-340.58C73.95,-366.16 102.86,-417.98 143,-445.5 148.26,-449.11 154.02,-452.19 160.01,-454.83"/>
<polygon fill="midnightblue" stroke="midnightblue" points="158.99,-458.2 169.58,-458.63 161.57,-451.69 158.99,-458.2"/>
</g>
<!-- Node3 -->
<g id="node3" class="node">
<title>Node3</title>
<g id="a_node3"><a xlink:href="classsignal__easel_1_1aprs_1_1Demodulator.html#ae5a8e7634c1bc8d215a0c454a9a737fa" target="_top" xlink:title=" ">
<polygon fill="none" stroke="black" points="159,-395 159,-436 312,-436 312,-395 159,-395"/>
<text text-anchor="start" x="167" y="-424" font-family="Helvetica,sans-Serif" font-size="10.00">signal_easel::aprs</text>
<text text-anchor="start" x="167" y="-413" font-family="Helvetica,sans-Serif" font-size="10.00">::Demodulator::lookForAx25</text>
<text text-anchor="middle" x="235.5" y="-402" font-family="Helvetica,sans-Serif" font-size="10.00">Packet</text>
</a>
</g>
</g>
<!-- Node1&#45;&gt;Node3 -->
<g id="edge2" class="edge">
<title>Node1&#45;&gt;Node3</title>
<path fill="none" stroke="midnightblue" d="M73.57,-340.75C90.87,-354 117.5,-372.99 143,-385.5 146.99,-387.46 151.14,-389.33 155.37,-391.12"/>
<polygon fill="midnightblue" stroke="midnightblue" points="154.15,-394.41 164.74,-394.9 156.77,-387.91 154.15,-394.41"/>
</g>
<!-- Node26 -->
<g id="node26" class="node">
<title>Node26</title>
<g id="a_node26"><a xlink:href="classsignal__easel_1_1aprs_1_1Demodulator.html#a5e0e78f4186a6334507be9c955df55b6" target="_top" xlink:title=" ">
<polygon fill="none" stroke="black" points="143,-335 143,-376 328,-376 328,-335 143,-335"/>
<text text-anchor="start" x="151" y="-364" font-family="Helvetica,sans-Serif" font-size="10.00">signal_easel::aprs</text>
<text text-anchor="start" x="151" y="-353" font-family="Helvetica,sans-Serif" font-size="10.00">::Demodulator::parseExperimental</text>
<text text-anchor="middle" x="235.5" y="-342" font-family="Helvetica,sans-Serif" font-size="10.00">Packet</text>
</a>
</g>
</g>
<!-- Node1&#45;&gt;Node26 -->
<g id="edge32" class="edge">
<title>Node1&#45;&gt;Node26</title>
<path fill="none" stroke="midnightblue" d="M107.05,-334.26C115.27,-335.63 123.99,-337.08 132.87,-338.56"/>
<polygon fill="midnightblue" stroke="midnightblue" points="132.5,-342.05 142.94,-340.24 133.65,-335.14 132.5,-342.05"/>
</g>
<!-- Node27 -->
<g id="node27" class="node">
<title>Node27</title>
<g id="a_node27"><a xlink:href="classsignal__easel_1_1aprs_1_1Demodulator.html#a8ea92084a8f961d7a11200652516177d" target="_top" xlink:title="If the packet was a message packet, this function will try to parse the packet into a message packet.">
<polygon fill="none" stroke="black" points="154,-275 154,-316 317,-316 317,-275 154,-275"/>
<text text-anchor="start" x="162" y="-304" font-family="Helvetica,sans-Serif" font-size="10.00">signal_easel::aprs</text>
<text text-anchor="start" x="162" y="-293" font-family="Helvetica,sans-Serif" font-size="10.00">::Demodulator::parseMessage</text>
<text text-anchor="middle" x="235.5" y="-282" font-family="Helvetica,sans-Serif" font-size="10.00">Packet</text>
</a>
</g>
</g>
<!-- Node1&#45;&gt;Node27 -->
<g id="edge34" class="edge">
<title>Node1&#45;&gt;Node27</title>
<path fill="none" stroke="midnightblue" d="M107.05,-316.74C118.59,-314.82 131.14,-312.73 143.7,-310.63"/>
<polygon fill="midnightblue" stroke="midnightblue" points="144.48,-314.05 153.77,-308.96 143.33,-307.15 144.48,-314.05"/>
</g>
<!-- Node28 -->
<g id="node28" class="node">
<title>Node28</title>
<g id="a_node28"><a xlink:href="classsignal__easel_1_1aprs_1_1Demodulator.html#a285cd33e16fa28925fe2acd3fe5029fb" target="_top" xlink:title="If the packet was a position packet, this function will try to parse the packet into it&#39;s positional ...">
<polygon fill="none" stroke="black" points="156.5,-215 156.5,-256 314.5,-256 314.5,-215 156.5,-215"/>
<text text-anchor="start" x="164.5" y="-244" font-family="Helvetica,sans-Serif" font-size="10.00">signal_easel::aprs</text>
<text text-anchor="start" x="164.5" y="-233" font-family="Helvetica,sans-Serif" font-size="10.00">::Demodulator::parsePosition</text>
<text text-anchor="middle" x="235.5" y="-222" font-family="Helvetica,sans-Serif" font-size="10.00">Packet</text>
</a>
</g>
</g>
<!-- Node1&#45;&gt;Node28 -->
<g id="edge36" class="edge">
<title>Node1&#45;&gt;Node28</title>
<path fill="none" stroke="midnightblue" d="M73.57,-310.25C90.87,-297 117.5,-278.01 143,-265.5 146.99,-263.54 151.14,-261.67 155.37,-259.88"/>
<polygon fill="midnightblue" stroke="midnightblue" points="156.77,-263.09 164.74,-256.1 154.15,-256.59 156.77,-263.09"/>
</g>
<!-- Node30 -->
<g id="node30" class="node">
<title>Node30</title>
<g id="a_node30"><a xlink:href="classsignal__easel_1_1afsk_1_1Demodulator.html#a1d00e5b759f208be2751c4f2302a9c57" target="_top" xlink:title=" ">
<polygon fill="none" stroke="black" points="156.5,-93 156.5,-134 314.5,-134 314.5,-93 156.5,-93"/>
<text text-anchor="start" x="164.5" y="-122" font-family="Helvetica,sans-Serif" font-size="10.00">signal_easel::afsk</text>
<text text-anchor="start" x="164.5" y="-111" font-family="Helvetica,sans-Serif" font-size="10.00">::Demodulator::processAudio</text>
<text text-anchor="middle" x="235.5" y="-100" font-family="Helvetica,sans-Serif" font-size="10.00">Buffer</text>
</a>
</g>
</g>
<!-- Node1&#45;&gt;Node30 -->
<g id="edge39" class="edge">
<title>Node1&#45;&gt;Node30</title>
<path fill="none" stroke="midnightblue" d="M64.72,-310.18C80.53,-286.82 112.32,-241.26 143,-205.5 162.38,-182.91 186.13,-159.13 204.57,-141.41"/>
<polygon fill="midnightblue" stroke="midnightblue" points="207.31,-143.64 212.13,-134.21 202.47,-138.58 207.31,-143.64"/>
</g>
<!-- Node4 -->
<g id="node4" class="node">
<title>Node4</title>
<g id="a_node4"><a xlink:href="classsignal__easel_1_1ax25_1_1Frame.html#a9e6110247fa4368c64e39cf17f08759d" target="_top" xlink:title=" ">
<polygon fill="none" stroke="black" points="380,-310.5 380,-340.5 512,-340.5 512,-310.5 380,-310.5"/>
<text text-anchor="start" x="388" y="-328.5" font-family="Helvetica,sans-Serif" font-size="10.00">signal_easel::ax25</text>
<text text-anchor="middle" x="446" y="-317.5" font-family="Helvetica,sans-Serif" font-size="10.00">::Frame::getInformation</text>
</a>
</g>
</g>
<!-- Node3&#45;&gt;Node4 -->
<g id="edge3" class="edge">
<title>Node3&#45;&gt;Node4</title>
<path fill="none" stroke="midnightblue" d="M303.42,-394.91C311.77,-391.95 320.13,-388.78 328,-385.5 356.14,-373.76 386.78,-357.93 409.64,-345.48"/>
<polygon fill="midnightblue" stroke="midnightblue" points="411.54,-348.43 418.61,-340.55 408.17,-342.29 411.54,-348.43"/>
</g>
<!-- Node5 -->
<g id="node5" class="node">
<title>Node5</title>
<g id="a_node5"><a xlink:href="classsignal__easel_1_1ax25_1_1Frame.html#a63cf2362c2a90d20f09bbbc4f24a07ba" target="_top" xlink:title="Attempt to parse an incoming bit stream into an AX.25 frame.">
<polygon fill="none" stroke="black" points="378.5,-431.5 378.5,-461.5 513.5,-461.5 513.5,-431.5 378.5,-431.5"/>
<text text-anchor="start" x="386.5" y="-449.5" font-family="Helvetica,sans-Serif" font-size="10.00">signal_easel::ax25</text>
<text text-anchor="middle" x="446" y="-438.5" font-family="Helvetica,sans-Serif" font-size="10.00">::Frame::parseBitStream</text>
</a>
</g>
</g>
<!-- Node3&#45;&gt;Node5 -->
<g id="edge4" class="edge">
<title>Node3&#45;&gt;Node5</title>
<path fill="none" stroke="midnightblue" d="M312.07,-426.74C330.36,-429.45 349.92,-432.36 368.27,-435.09"/>
<polygon fill="midnightblue" stroke="midnightblue" points="367.91,-438.58 378.32,-436.59 368.94,-431.65 367.91,-438.58"/>
</g>
<!-- Node6 -->
<g id="node6" class="node">
<title>Node6</title>
<g id="a_node6"><a xlink:href="classsignal__easel_1_1ax25_1_1Frame.html#af86d4b534367a8faf6b628301c9ffceb" target="_top" xlink:title=" ">
<polygon fill="none" stroke="black" points="568.5,-480.5 568.5,-510.5 729.5,-510.5 729.5,-480.5 568.5,-480.5"/>
<text text-anchor="start" x="576.5" y="-498.5" font-family="Helvetica,sans-Serif" font-size="10.00">signal_easel::ax25</text>
<text text-anchor="middle" x="649" y="-487.5" font-family="Helvetica,sans-Serif" font-size="10.00">::Frame::addRepeaterAddress</text>
</a>
</g>
</g>
<!-- Node5&#45;&gt;Node6 -->
<g id="edge5" class="edge">
<title>Node5&#45;&gt;Node6</title>
<path fill="none" stroke="midnightblue" d="M508.67,-461.53C530.09,-466.76 554.28,-472.65 576.43,-478.05"/>
<polygon fill="midnightblue" stroke="midnightblue" points="575.9,-481.53 586.44,-480.49 577.56,-474.72 575.9,-481.53"/>
</g>
<!-- Node11 -->
<g id="node11" class="node">
<title>Node11</title>
<g id="a_node11"><a xlink:href="namespacesignal__easel_1_1ax25.html#a84e1d1bf82ef828a150bc94cf065e396" target="_top" xlink:title="Convert a bit stream from NRZI to standard encoding.">
<polygon fill="none" stroke="black" points="595.5,-259.5 595.5,-289.5 702.5,-289.5 702.5,-259.5 595.5,-259.5"/>
<text text-anchor="start" x="603.5" y="-277.5" font-family="Helvetica,sans-Serif" font-size="10.00">signal_easel::ax25</text>
<text text-anchor="middle" x="649" y="-266.5" font-family="Helvetica,sans-Serif" font-size="10.00">::decodeNrzi</text>
</a>
</g>
</g>
<!-- Node5&#45;&gt;Node11 -->
<g id="edge10" class="edge">
<title>Node5&#45;&gt;Node11</title>
<path fill="none" stroke="midnightblue" d="M464.84,-431.24C500.6,-400.64 581.15,-331.7 622.48,-296.33"/>
<polygon fill="midnightblue" stroke="midnightblue" points="624.88,-298.89 630.2,-289.73 620.33,-293.57 624.88,-298.89"/>
</g>
<!-- Node18 -->
<g id="node18" class="node">
<title>Node18</title>
<g id="a_node18"><a xlink:href="namespacesignal__easel_1_1ax25.html#a1bccc37a6ac48ed9be96218dd46bcb41" target="_top" xlink:title=" ">
<polygon fill="none" stroke="black" points="595.5,-382.5 595.5,-412.5 702.5,-412.5 702.5,-382.5 595.5,-382.5"/>
<text text-anchor="start" x="603.5" y="-400.5" font-family="Helvetica,sans-Serif" font-size="10.00">signal_easel::ax25</text>
<text text-anchor="middle" x="649" y="-389.5" font-family="Helvetica,sans-Serif" font-size="10.00">::deStuffBytes</text>
</a>
</g>
</g>
<!-- Node5&#45;&gt;Node18 -->
<g id="edge18" class="edge">
<title>Node5&#45;&gt;Node18</title>
<path fill="none" stroke="midnightblue" d="M508.67,-431.47C533.01,-425.53 560.95,-418.72 585.38,-412.77"/>
<polygon fill="midnightblue" stroke="midnightblue" points="586.38,-416.13 595.26,-410.36 584.72,-409.32 586.38,-416.13"/>
</g>
<!-- Node21 -->
<g id="node21" class="node">
<title>Node21</title>
<g id="a_node21"><a xlink:href="namespacesignal__easel_1_1ax25.html#aedc3a21287bb20d2f0b01c9a2d6797f3" target="_top" xlink:title="Finds the start flags in the bit stream and removes them.">
<polygon fill="none" stroke="black" points="595.5,-431.5 595.5,-461.5 702.5,-461.5 702.5,-431.5 595.5,-431.5"/>
<text text-anchor="start" x="603.5" y="-449.5" font-family="Helvetica,sans-Serif" font-size="10.00">signal_easel::ax25</text>
<text text-anchor="middle" x="649" y="-438.5" font-family="Helvetica,sans-Serif" font-size="10.00">::findStartFlags</text>
</a>
</g>
</g>
<!-- Node5&#45;&gt;Node21 -->
<g id="edge23" class="edge">
<title>Node5&#45;&gt;Node21</title>
<path fill="none" stroke="midnightblue" d="M513.65,-446.5C536.64,-446.5 562.31,-446.5 585,-446.5"/>
<polygon fill="midnightblue" stroke="midnightblue" points="585.19,-450 595.19,-446.5 585.19,-443 585.19,-450"/>
</g>
<!-- Node24 -->
<g id="node24" class="node">
<title>Node24</title>
<g id="a_node24"><a xlink:href="classsignal__easel_1_1ax25_1_1Frame.html#a57b163ece54317da8d95f3b18b47c23d" target="_top" xlink:title="setters/getters for the frame.">
<polygon fill="none" stroke="black" points="564,-578.5 564,-608.5 734,-608.5 734,-578.5 564,-578.5"/>
<text text-anchor="start" x="572" y="-596.5" font-family="Helvetica,sans-Serif" font-size="10.00">signal_easel::ax25</text>
<text text-anchor="middle" x="649" y="-585.5" font-family="Helvetica,sans-Serif" font-size="10.00">::Frame::setDestinationAddress</text>
</a>
</g>
</g>
<!-- Node5&#45;&gt;Node24 -->
<g id="edge28" class="edge">
<title>Node5&#45;&gt;Node24</title>
<path fill="none" stroke="midnightblue" d="M457.35,-461.85C475.72,-487.92 516.6,-540.81 564,-569.5 566.85,-571.23 569.84,-572.84 572.91,-574.33"/>
<polygon fill="midnightblue" stroke="midnightblue" points="571.77,-577.66 582.34,-578.49 574.6,-571.25 571.77,-577.66"/>
</g>
<!-- Node25 -->
<g id="node25" class="node">
<title>Node25</title>
<g id="a_node25"><a xlink:href="classsignal__easel_1_1ax25_1_1Frame.html#a402d26a81f82bb5c477e8930b75a771e" target="_top" xlink:title=" ">
<polygon fill="none" stroke="black" points="576,-529.5 576,-559.5 722,-559.5 722,-529.5 576,-529.5"/>
<text text-anchor="start" x="584" y="-547.5" font-family="Helvetica,sans-Serif" font-size="10.00">signal_easel::ax25</text>
<text text-anchor="middle" x="649" y="-536.5" font-family="Helvetica,sans-Serif" font-size="10.00">::Frame::setSourceAddress</text>
</a>
</g>
</g>
<!-- Node5&#45;&gt;Node25 -->
<g id="edge30" class="edge">
<title>Node5&#45;&gt;Node25</title>
<path fill="none" stroke="midnightblue" d="M467.12,-461.76C489.67,-478.23 527.81,-504.29 564,-520.5 568.36,-522.45 572.91,-524.29 577.55,-526"/>
<polygon fill="midnightblue" stroke="midnightblue" points="576.55,-529.36 587.15,-529.36 578.87,-522.75 576.55,-529.36"/>
</g>
<!-- Node7 -->
<g id="node7" class="node">
<title>Node7</title>
<g id="a_node7"><a xlink:href="classsignal__easel_1_1ax25_1_1Address.html#a7fa6b0ef4241413893f201660991e4ea" target="_top" xlink:title="Checks if the address is valid, if not throws an exception with a specific error code.">
<polygon fill="none" stroke="black" points="779.5,-578.5 779.5,-608.5 909.5,-608.5 909.5,-578.5 779.5,-578.5"/>
<text text-anchor="start" x="787.5" y="-596.5" font-family="Helvetica,sans-Serif" font-size="10.00">signal_easel::ax25</text>
<text text-anchor="middle" x="844.5" y="-585.5" font-family="Helvetica,sans-Serif" font-size="10.00">::Address::assertIsValid</text>
</a>
</g>
</g>
<!-- Node6&#45;&gt;Node7 -->
<g id="edge6" class="edge">
<title>Node6&#45;&gt;Node7</title>
<path fill="none" stroke="midnightblue" d="M716.14,-510.61C722.45,-513.38 728.52,-516.65 734,-520.5 756.1,-536.05 748.11,-553.66 770,-569.5 771.9,-570.87 773.88,-572.17 775.93,-573.4"/>
<polygon fill="midnightblue" stroke="midnightblue" points="774.76,-576.74 785.24,-578.33 778.04,-570.56 774.76,-576.74"/>
</g>
<!-- Node8 -->
<g id="node8" class="node">
<title>Node8</title>
<g id="a_node8"><a xlink:href="classsignal__easel_1_1ax25_1_1Address.html#af34b361f739b7995e7816b7a04465828" target="_top" xlink:title=" ">
<polygon fill="none" stroke="black" points="956,-600 956,-641 1121,-641 1121,-600 956,-600"/>
<text text-anchor="start" x="964" y="-629" font-family="Helvetica,sans-Serif" font-size="10.00">signal_easel::ax25</text>
<text text-anchor="start" x="964" y="-618" font-family="Helvetica,sans-Serif" font-size="10.00">::Address::assertAddressString</text>
<text text-anchor="middle" x="1038.5" y="-607" font-family="Helvetica,sans-Serif" font-size="10.00">IsValid</text>
</a>
</g>
</g>
<!-- Node7&#45;&gt;Node8 -->
<g id="edge7" class="edge">
<title>Node7&#45;&gt;Node8</title>
<path fill="none" stroke="midnightblue" d="M909.7,-602.53C921.28,-604.16 933.56,-605.88 945.75,-607.6"/>
<polygon fill="midnightblue" stroke="midnightblue" points="945.56,-611.11 955.95,-609.03 946.53,-604.17 945.56,-611.11"/>
</g>
<!-- Node9 -->
<g id="node9" class="node">
<title>Node9</title>
<g id="a_node9"><a xlink:href="classsignal__easel_1_1ax25_1_1Address.html#a8b44c6e311d3462bd86eda03c1d384f0" target="_top" xlink:title=" ">
<polygon fill="none" stroke="black" points="963.5,-550.5 963.5,-580.5 1113.5,-580.5 1113.5,-550.5 963.5,-550.5"/>
<text text-anchor="start" x="971.5" y="-568.5" font-family="Helvetica,sans-Serif" font-size="10.00">signal_easel::ax25</text>
<text text-anchor="middle" x="1038.5" y="-557.5" font-family="Helvetica,sans-Serif" font-size="10.00">::Address::assertSsidIsValid</text>
</a>
</g>
</g>
<!-- Node7&#45;&gt;Node9 -->
<g id="edge8" class="edge">
<title>Node7&#45;&gt;Node9</title>
<path fill="none" stroke="midnightblue" d="M909.7,-584.14C923.69,-582.1 938.71,-579.91 953.34,-577.77"/>
<polygon fill="midnightblue" stroke="midnightblue" points="954.01,-581.21 963.4,-576.31 953,-574.29 954.01,-581.21"/>
</g>
<!-- Node10 -->
<g id="node10" class="node">
<title>Node10</title>
<g id="a_node10"><a xlink:href="classsignal__easel_1_1ax25_1_1Address.html#ad66c149737cc4aa52ae9e8860176acf3" target="_top" xlink:title=" ">
<polygon fill="none" stroke="black" points="1166.5,-550.5 1166.5,-580.5 1286.5,-580.5 1286.5,-550.5 1166.5,-550.5"/>
<text text-anchor="start" x="1174.5" y="-568.5" font-family="Helvetica,sans-Serif" font-size="10.00">signal_easel::ax25</text>
<text text-anchor="middle" x="1226.5" y="-557.5" font-family="Helvetica,sans-Serif" font-size="10.00">::Address::isSsidValid</text>
</a>
</g>
</g>
<!-- Node9&#45;&gt;Node10 -->
<g id="edge9" class="edge">
<title>Node9&#45;&gt;Node10</title>
<path fill="none" stroke="midnightblue" d="M1113.55,-565.5C1127.51,-565.5 1142.07,-565.5 1155.9,-565.5"/>
<polygon fill="midnightblue" stroke="midnightblue" points="1156.3,-569 1166.3,-565.5 1156.3,-562 1156.3,-569"/>
</g>
<!-- Node12 -->
<g id="node12" class="node">
<title>Node12</title>
<g id="a_node12"><a xlink:href="classsignal__easel_1_1BitStream.html#a81d4aea4c11f65e0c2b7ad2f0f0cc312" target="_top" xlink:title=" ">
<polygon fill="none" stroke="black" points="778.5,-235.5 778.5,-265.5 910.5,-265.5 910.5,-235.5 778.5,-235.5"/>
<text text-anchor="start" x="786.5" y="-253.5" font-family="Helvetica,sans-Serif" font-size="10.00">signal_easel::BitStream</text>
<text text-anchor="middle" x="844.5" y="-242.5" font-family="Helvetica,sans-Serif" font-size="10.00">::addOneBit</text>
</a>
</g>
</g>
<!-- Node11&#45;&gt;Node12 -->
<g id="edge11" class="edge">
<title>Node11&#45;&gt;Node12</title>
<path fill="none" stroke="midnightblue" d="M702.62,-267.97C722.9,-265.46 746.48,-262.53 768.48,-259.81"/>
<polygon fill="midnightblue" stroke="midnightblue" points="768.96,-263.27 778.45,-258.57 768.1,-256.33 768.96,-263.27"/>
</g>
<!-- Node14 -->
<g id="node14" class="node">
<title>Node14</title>
<g id="a_node14"><a xlink:href="classsignal__easel_1_1BitStream.html#abb315beec8c4d88115d9d4ec5f082863" target="_top" xlink:title=" ">
<polygon fill="none" stroke="black" points="778.5,-186.5 778.5,-216.5 910.5,-216.5 910.5,-186.5 778.5,-186.5"/>
<text text-anchor="start" x="786.5" y="-204.5" font-family="Helvetica,sans-Serif" font-size="10.00">signal_easel::BitStream</text>
<text text-anchor="middle" x="844.5" y="-193.5" font-family="Helvetica,sans-Serif" font-size="10.00">::addZeroBit</text>
</a>
</g>
</g>
<!-- Node11&#45;&gt;Node14 -->
<g id="edge13" class="edge">
<title>Node11&#45;&gt;Node14</title>
<path fill="none" stroke="midnightblue" d="M686.31,-259.4C710.01,-249.69 741.69,-236.97 770,-226.5 775.89,-224.32 782.07,-222.11 788.24,-219.94"/>
<polygon fill="midnightblue" stroke="midnightblue" points="789.59,-223.18 797.89,-216.6 787.29,-216.57 789.59,-223.18"/>
</g>
<!-- Node15 -->
<g id="node15" class="node">
<title>Node15</title>
<g id="a_node15"><a xlink:href="classsignal__easel_1_1BitStream.html#aa97152ef51f73088e103a7951134aa85" target="_top" xlink:title=" ">
<polygon fill="none" stroke="black" points="778.5,-284.5 778.5,-314.5 910.5,-314.5 910.5,-284.5 778.5,-284.5"/>
<text text-anchor="start" x="786.5" y="-302.5" font-family="Helvetica,sans-Serif" font-size="10.00">signal_easel::BitStream</text>
<text text-anchor="middle" x="844.5" y="-291.5" font-family="Helvetica,sans-Serif" font-size="10.00">::getBitStreamLength</text>
</a>
</g>
</g>
<!-- Node11&#45;&gt;Node15 -->
<g id="edge15" class="edge">
<title>Node11&#45;&gt;Node15</title>
<path fill="none" stroke="midnightblue" d="M702.62,-281.3C722.9,-283.92 746.48,-286.96 768.48,-289.81"/>
<polygon fill="midnightblue" stroke="midnightblue" points="768.09,-293.29 778.45,-291.1 768.98,-286.34 768.09,-293.29"/>
</g>
<!-- Node16 -->
<g id="node16" class="node">
<title>Node16</title>
<g id="a_node16"><a xlink:href="classsignal__easel_1_1BitStream.html#a5b5339586e09ca5c25a7e9ded0118ffb" target="_top" xlink:title="Returns the next bit of the bit stream that will be encoded.">
<polygon fill="none" stroke="black" points="778.5,-431.5 778.5,-461.5 910.5,-461.5 910.5,-431.5 778.5,-431.5"/>
<text text-anchor="start" x="786.5" y="-449.5" font-family="Helvetica,sans-Serif" font-size="10.00">signal_easel::BitStream</text>
<text text-anchor="middle" x="844.5" y="-438.5" font-family="Helvetica,sans-Serif" font-size="10.00">::popNextBit</text>
</a>
</g>
</g>
<!-- Node11&#45;&gt;Node16 -->
<g id="edge16" class="edge">
<title>Node11&#45;&gt;Node16</title>
<path fill="none" stroke="midnightblue" d="M663.43,-289.66C680.31,-308.85 709.97,-343.08 734,-373.5 750.75,-394.7 748.11,-406.66 770,-422.5 771.9,-423.87 773.88,-425.17 775.93,-426.4"/>
<polygon fill="midnightblue" stroke="midnightblue" points="774.76,-429.74 785.24,-431.33 778.04,-423.56 774.76,-429.74"/>
</g>
<!-- Node17 -->
<g id="node17" class="node">
<title>Node17</title>
<g id="a_node17"><a xlink:href="classsignal__easel_1_1BitStream.html#a278666dbf58a4792e4f77538ab72b4b6" target="_top" xlink:title="After adding all of the data to the bit stream, this method will write the data left in the buffer.">
<polygon fill="none" stroke="black" points="777.5,-137.5 777.5,-167.5 911.5,-167.5 911.5,-137.5 777.5,-137.5"/>
<text text-anchor="start" x="785.5" y="-155.5" font-family="Helvetica,sans-Serif" font-size="10.00">signal_easel::BitStream</text>
<text text-anchor="middle" x="844.5" y="-144.5" font-family="Helvetica,sans-Serif" font-size="10.00">::pushBufferToBitStream</text>
</a>
</g>
</g>
<!-- Node11&#45;&gt;Node17 -->
<g id="edge17" class="edge">
<title>Node11&#45;&gt;Node17</title>
<path fill="none" stroke="midnightblue" d="M665,-259.38C686.54,-238.42 728.24,-200.52 770,-177.5 773.89,-175.36 778,-173.35 782.2,-171.48"/>
<polygon fill="midnightblue" stroke="midnightblue" points="783.62,-174.68 791.51,-167.61 780.93,-168.22 783.62,-174.68"/>
</g>
<!-- Node13 -->
<g id="node13" class="node">
<title>Node13</title>
<g id="a_node13"><a xlink:href="classsignal__easel_1_1BitStream.html#a9df75eb28c03717c9fad2d30a85de6e6" target="_top" xlink:title=" ">
<polygon fill="none" stroke="black" points="972.5,-210.5 972.5,-240.5 1104.5,-240.5 1104.5,-210.5 972.5,-210.5"/>
<text text-anchor="start" x="980.5" y="-228.5" font-family="Helvetica,sans-Serif" font-size="10.00">signal_easel::BitStream</text>
<text text-anchor="middle" x="1038.5" y="-217.5" font-family="Helvetica,sans-Serif" font-size="10.00">::addBits</text>
</a>
</g>
</g>
<!-- Node12&#45;&gt;Node13 -->
<g id="edge12" class="edge">
<title>Node12&#45;&gt;Node13</title>
<path fill="none" stroke="midnightblue" d="M910.5,-242.04C927.14,-239.87 945.18,-237.52 962.29,-235.29"/>
<polygon fill="midnightblue" stroke="midnightblue" points="962.77,-238.76 972.24,-234 961.87,-231.82 962.77,-238.76"/>
</g>
<!-- Node14&#45;&gt;Node13 -->
<g id="edge14" class="edge">
<title>Node14&#45;&gt;Node13</title>
<path fill="none" stroke="midnightblue" d="M910.5,-209.63C927.14,-211.71 945.18,-213.96 962.29,-216.1"/>
<polygon fill="midnightblue" stroke="midnightblue" points="961.88,-219.57 972.24,-217.34 962.75,-212.63 961.88,-219.57"/>
</g>
<!-- Node18&#45;&gt;Node15 -->
<g id="edge19" class="edge">
<title>Node18&#45;&gt;Node15</title>
<path fill="none" stroke="midnightblue" d="M671.75,-382.26C695.19,-366.32 733.99,-341.33 770,-324.5 774.69,-322.31 779.62,-320.21 784.62,-318.23"/>
<polygon fill="midnightblue" stroke="midnightblue" points="786.17,-321.39 794.28,-314.57 783.69,-314.84 786.17,-321.39"/>
</g>
<!-- Node18&#45;&gt;Node16 -->
<g id="edge21" class="edge">
<title>Node18&#45;&gt;Node16</title>
<path fill="none" stroke="midnightblue" d="M702.62,-410.82C724.65,-416.4 750.57,-422.97 774.13,-428.93"/>
<polygon fill="midnightblue" stroke="midnightblue" points="773.51,-432.39 784.06,-431.45 775.23,-425.6 773.51,-432.39"/>
</g>
<!-- Node19 -->
<g id="node19" class="node">
<title>Node19</title>
<g id="a_node19"><a xlink:href="classsignal__easel_1_1BitStream.html#ad7b803a89b3a53ec1e4108122861a90b" target="_top" xlink:title="Returns the next bit of the bit stream without removing it.">
<polygon fill="none" stroke="black" points="778.5,-382.5 778.5,-412.5 910.5,-412.5 910.5,-382.5 778.5,-382.5"/>
<text text-anchor="start" x="786.5" y="-400.5" font-family="Helvetica,sans-Serif" font-size="10.00">signal_easel::BitStream</text>
<text text-anchor="middle" x="844.5" y="-389.5" font-family="Helvetica,sans-Serif" font-size="10.00">::peakNextBit</text>
</a>
</g>
</g>
<!-- Node18&#45;&gt;Node19 -->
<g id="edge20" class="edge">
<title>Node18&#45;&gt;Node19</title>
<path fill="none" stroke="midnightblue" d="M702.62,-397.5C722.81,-397.5 746.27,-397.5 768.18,-397.5"/>
<polygon fill="midnightblue" stroke="midnightblue" points="768.45,-401 778.45,-397.5 768.45,-394 768.45,-401"/>
</g>
<!-- Node20 -->
<g id="node20" class="node">
<title>Node20</title>
<g id="a_node20"><a xlink:href="namespacesignal__easel_1_1ax25.html#a464aaf0b31941db183dcd08d641a793c" target="_top" xlink:title=" ">
<polygon fill="none" stroke="black" points="791,-333.5 791,-363.5 898,-363.5 898,-333.5 791,-333.5"/>
<text text-anchor="start" x="799" y="-351.5" font-family="Helvetica,sans-Serif" font-size="10.00">signal_easel::ax25</text>
<text text-anchor="middle" x="844.5" y="-340.5" font-family="Helvetica,sans-Serif" font-size="10.00">::reverse_bits</text>
</a>
</g>
</g>
<!-- Node18&#45;&gt;Node20 -->
<g id="edge22" class="edge">
<title>Node18&#45;&gt;Node20</title>
<path fill="none" stroke="midnightblue" d="M702.62,-384.18C726.82,-378.05 755.72,-370.73 781.02,-364.32"/>
<polygon fill="midnightblue" stroke="midnightblue" points="782.06,-367.67 790.89,-361.82 780.34,-360.88 782.06,-367.67"/>
</g>
<!-- Node21&#45;&gt;Node15 -->
<g id="edge24" class="edge">
<title>Node21&#45;&gt;Node15</title>
<path fill="none" stroke="midnightblue" d="M702.79,-439.5C714.15,-435.92 725.33,-430.55 734,-422.5 768,-390.92 736.79,-356.91 770,-324.5 771.48,-323.05 773.05,-321.69 774.69,-320.4"/>
<polygon fill="midnightblue" stroke="midnightblue" points="777.02,-323.06 783.42,-314.61 773.15,-317.23 777.02,-323.06"/>
</g>
<!-- Node21&#45;&gt;Node16 -->
<g id="edge27" class="edge">
<title>Node21&#45;&gt;Node16</title>
<path fill="none" stroke="midnightblue" d="M702.62,-446.5C722.81,-446.5 746.27,-446.5 768.18,-446.5"/>
<polygon fill="midnightblue" stroke="midnightblue" points="768.45,-450 778.45,-446.5 768.45,-443 768.45,-450"/>
</g>
<!-- Node22 -->
<g id="node22" class="node">
<title>Node22</title>
<g id="a_node22"><a xlink:href="classsignal__easel_1_1BitStream.html#a4cf488a318e02146a94d58cbb540fe69" target="_top" xlink:title=" ">
<polygon fill="none" stroke="black" points="778.5,-529.5 778.5,-559.5 910.5,-559.5 910.5,-529.5 778.5,-529.5"/>
<text text-anchor="start" x="786.5" y="-547.5" font-family="Helvetica,sans-Serif" font-size="10.00">signal_easel::BitStream</text>
<text text-anchor="middle" x="844.5" y="-536.5" font-family="Helvetica,sans-Serif" font-size="10.00">::getBitVector</text>
</a>
</g>
</g>
<!-- Node21&#45;&gt;Node22 -->
<g id="edge25" class="edge">
<title>Node21&#45;&gt;Node22</title>
<path fill="none" stroke="midnightblue" d="M702.6,-456.47C713.59,-460.07 724.67,-464.93 734,-471.5 756.1,-487.05 748.11,-504.66 770,-520.5 771.9,-521.87 773.88,-523.17 775.93,-524.4"/>
<polygon fill="midnightblue" stroke="midnightblue" points="774.76,-527.74 785.24,-529.33 778.04,-521.56 774.76,-527.74"/>
</g>
<!-- Node23 -->
<g id="node23" class="node">
<title>Node23</title>
<g id="a_node23"><a xlink:href="classsignal__easel_1_1BitStream.html#a3212a6021fa0e315170f8654c8e1c103" target="_top" xlink:title=" ">
<polygon fill="none" stroke="black" points="778.5,-480.5 778.5,-510.5 910.5,-510.5 910.5,-480.5 778.5,-480.5"/>
<text text-anchor="start" x="786.5" y="-498.5" font-family="Helvetica,sans-Serif" font-size="10.00">signal_easel::BitStream</text>
<text text-anchor="middle" x="844.5" y="-487.5" font-family="Helvetica,sans-Serif" font-size="10.00">::peakNextByte</text>
</a>
</g>
</g>
<!-- Node21&#45;&gt;Node23 -->
<g id="edge26" class="edge">
<title>Node21&#45;&gt;Node23</title>
<path fill="none" stroke="midnightblue" d="M702.62,-459.82C724.65,-465.4 750.57,-471.97 774.13,-477.93"/>
<polygon fill="midnightblue" stroke="midnightblue" points="773.51,-481.39 784.06,-480.45 775.23,-474.6 773.51,-481.39"/>
</g>
<!-- Node24&#45;&gt;Node7 -->
<g id="edge29" class="edge">
<title>Node24&#45;&gt;Node7</title>
<path fill="none" stroke="midnightblue" d="M734.03,-593.5C745.78,-593.5 757.79,-593.5 769.34,-593.5"/>
<polygon fill="midnightblue" stroke="midnightblue" points="769.36,-597 779.36,-593.5 769.36,-590 769.36,-597"/>
</g>
<!-- Node25&#45;&gt;Node7 -->
<g id="edge31" class="edge">
<title>Node25&#45;&gt;Node7</title>
<path fill="none" stroke="midnightblue" d="M709.37,-559.53C729.9,-564.73 753.07,-570.6 774.31,-575.98"/>
<polygon fill="midnightblue" stroke="midnightblue" points="773.69,-579.43 784.24,-578.49 775.41,-572.65 773.69,-579.43"/>
</g>
<!-- Node26&#45;&gt;Node4 -->
<g id="edge33" class="edge">
<title>Node26&#45;&gt;Node4</title>
<path fill="none" stroke="midnightblue" d="M328.25,-342.3C342.1,-340.31 356.24,-338.27 369.68,-336.34"/>
<polygon fill="midnightblue" stroke="midnightblue" points="370.41,-339.77 379.81,-334.88 369.41,-332.84 370.41,-339.77"/>
</g>
<!-- Node27&#45;&gt;Node4 -->
<g id="edge35" class="edge">
<title>Node27&#45;&gt;Node4</title>
<path fill="none" stroke="midnightblue" d="M317.11,-307.1C334.45,-309.59 352.71,-312.22 369.83,-314.68"/>
<polygon fill="midnightblue" stroke="midnightblue" points="369.37,-318.15 379.77,-316.11 370.37,-311.23 369.37,-318.15"/>
</g>
<!-- Node28&#45;&gt;Node4 -->
<g id="edge38" class="edge">
<title>Node28&#45;&gt;Node4</title>
<path fill="none" stroke="midnightblue" d="M303.42,-256.09C311.77,-259.05 320.13,-262.22 328,-265.5 356.14,-277.24 386.78,-293.07 409.64,-305.52"/>
<polygon fill="midnightblue" stroke="midnightblue" points="408.17,-308.71 418.61,-310.45 411.54,-302.57 408.17,-308.71"/>
</g>
<!-- Node29 -->
<g id="node29" class="node">
<title>Node29</title>
<g id="a_node29"><a xlink:href="namespacesignal__easel_1_1aprs.html#a53b79c5e1cab35addb27026b3e9e0e21" target="_top" xlink:title=" ">
<polygon fill="none" stroke="black" points="394,-220.5 394,-250.5 498,-250.5 498,-220.5 394,-220.5"/>
<text text-anchor="start" x="402" y="-238.5" font-family="Helvetica,sans-Serif" font-size="10.00">signal_easel::aprs</text>
<text text-anchor="middle" x="446" y="-227.5" font-family="Helvetica,sans-Serif" font-size="10.00">::base91Decode</text>
</a>
</g>
</g>
<!-- Node28&#45;&gt;Node29 -->
<g id="edge37" class="edge">
<title>Node28&#45;&gt;Node29</title>
<path fill="none" stroke="midnightblue" d="M314.73,-235.5C337.57,-235.5 362.2,-235.5 383.82,-235.5"/>
<polygon fill="midnightblue" stroke="midnightblue" points="383.85,-239 393.85,-235.5 383.85,-232 383.85,-239"/>
</g>
<!-- Node31 -->
<g id="node31" class="node">
<title>Node31</title>
<g id="a_node31"><a xlink:href="classsignal__easel_1_1afsk_1_1Demodulator.html#a66398f52101a153c5158930c0584f161" target="_top" xlink:title="Takes the raw signal and converts it into the FSK baseband signal.">
<polygon fill="none" stroke="black" points="371.5,-93 371.5,-134 520.5,-134 520.5,-93 371.5,-93"/>
<text text-anchor="start" x="379.5" y="-122" font-family="Helvetica,sans-Serif" font-size="10.00">signal_easel::afsk</text>
<text text-anchor="start" x="379.5" y="-111" font-family="Helvetica,sans-Serif" font-size="10.00">::Demodulator::audioBuffer</text>
<text text-anchor="middle" x="446" y="-100" font-family="Helvetica,sans-Serif" font-size="10.00">ToBaseBandSignal</text>
</a>
</g>
</g>
<!-- Node30&#45;&gt;Node31 -->
<g id="edge40" class="edge">
<title>Node30&#45;&gt;Node31</title>
<path fill="none" stroke="midnightblue" d="M314.73,-113.5C329.75,-113.5 345.54,-113.5 360.75,-113.5"/>
<polygon fill="midnightblue" stroke="midnightblue" points="361.16,-117 371.16,-113.5 361.16,-110 361.16,-117"/>
</g>
<!-- Node39 -->
<g id="node39" class="node">
<title>Node39</title>
<g id="a_node39"><a xlink:href="classsignal__easel_1_1afsk_1_1Demodulator.html#afa479089583504851b2a4a767e397458" target="_top" xlink:title="Takes the base band signal and converts it into a bit stream if the signal is valid.">
<polygon fill="none" stroke="black" points="364,-33 364,-74 528,-74 528,-33 364,-33"/>
<text text-anchor="start" x="372" y="-62" font-family="Helvetica,sans-Serif" font-size="10.00">signal_easel::afsk</text>
<text text-anchor="start" x="372" y="-51" font-family="Helvetica,sans-Serif" font-size="10.00">::Demodulator::baseBandToBit</text>
<text text-anchor="middle" x="446" y="-40" font-family="Helvetica,sans-Serif" font-size="10.00">Stream</text>
</a>
</g>
</g>
<!-- Node30&#45;&gt;Node39 -->
<g id="edge48" class="edge">
<title>Node30&#45;&gt;Node39</title>
<path fill="none" stroke="midnightblue" d="M307.96,-92.94C325.95,-87.76 345.38,-82.17 363.81,-76.86"/>
<polygon fill="midnightblue" stroke="midnightblue" points="364.99,-80.17 373.63,-74.04 363.05,-73.44 364.99,-80.17"/>
</g>
<!-- Node32 -->
<g id="node32" class="node">
<title>Node32</title>
<g id="a_node32"><a xlink:href="namespacesignal__easel.html#a62db979f7f4a67d6a7d263788813e1b9" target="_top" xlink:title="A band&#45;pass filter implementation.">
<polygon fill="none" stroke="black" points="572,-72 572,-91 726,-91 726,-72 572,-72"/>
<text text-anchor="middle" x="649" y="-79" font-family="Helvetica,sans-Serif" font-size="10.00">signal_easel::bandPassFilter</text>
</a>
</g>
</g>
<!-- Node31&#45;&gt;Node32 -->
<g id="edge41" class="edge">
<title>Node31&#45;&gt;Node32</title>
<path fill="none" stroke="midnightblue" d="M520.7,-101.77C539.42,-98.79 559.48,-95.59 578.01,-92.64"/>
<polygon fill="midnightblue" stroke="midnightblue" points="578.8,-96.06 588.12,-91.03 577.7,-89.15 578.8,-96.06"/>
</g>
<!-- Node33 -->
<g id="node33" class="node">
<title>Node33</title>
<g id="a_node33"><a xlink:href="namespacesignal__easel.html#ab828fd4a325ae3f35f6c4c707ffb6886" target="_top" xlink:title=" ">
<polygon fill="none" stroke="black" points="771.5,-0.5 771.5,-30.5 917.5,-30.5 917.5,-0.5 771.5,-0.5"/>
<text text-anchor="start" x="779.5" y="-18.5" font-family="Helvetica,sans-Serif" font-size="10.00">signal_easel::computeDen</text>
<text text-anchor="middle" x="844.5" y="-7.5" font-family="Helvetica,sans-Serif" font-size="10.00">Coeffs</text>
</a>
</g>
</g>
<!-- Node32&#45;&gt;Node33 -->
<g id="edge42" class="edge">
<title>Node32&#45;&gt;Node33</title>
<path fill="none" stroke="midnightblue" d="M678.12,-71.88C702.44,-63.56 738.53,-51.23 770,-40.5 776.34,-38.34 782.99,-36.07 789.6,-33.83"/>
<polygon fill="midnightblue" stroke="midnightblue" points="790.85,-37.1 799.19,-30.56 788.59,-30.47 790.85,-37.1"/>
</g>
<!-- Node35 -->
<g id="node35" class="node">
<title>Node35</title>
<g id="a_node35"><a xlink:href="namespacesignal__easel.html#a61e5160a96fbff531fdbecf3737f80b9" target="_top" xlink:title=" ">
<polygon fill="none" stroke="black" points="770,-88.5 770,-118.5 919,-118.5 919,-88.5 770,-88.5"/>
<text text-anchor="start" x="778" y="-106.5" font-family="Helvetica,sans-Serif" font-size="10.00">signal_easel::computeNum</text>
<text text-anchor="middle" x="844.5" y="-95.5" font-family="Helvetica,sans-Serif" font-size="10.00">Coeffs</text>
</a>
</g>
</g>
<!-- Node32&#45;&gt;Node35 -->
<g id="edge44" class="edge">
<title>Node32&#45;&gt;Node35</title>
<path fill="none" stroke="midnightblue" d="M726.2,-90.16C737.21,-91.42 748.6,-92.71 759.75,-93.98"/>
<polygon fill="midnightblue" stroke="midnightblue" points="759.57,-97.48 769.9,-95.13 760.36,-90.52 759.57,-97.48"/>
</g>
<!-- Node38 -->
<g id="node38" class="node">
<title>Node38</title>
<g id="a_node38"><a xlink:href="namespacesignal__easel.html#a24d8e6d8aa467d22058b77158b2f137a" target="_top" xlink:title=" ">
<polygon fill="none" stroke="black" points="791.5,-50 791.5,-69 897.5,-69 897.5,-50 791.5,-50"/>
<text text-anchor="middle" x="844.5" y="-57" font-family="Helvetica,sans-Serif" font-size="10.00">signal_easel::filter</text>
</a>
</g>
</g>
<!-- Node32&#45;&gt;Node38 -->
<g id="edge47" class="edge">
<title>Node32&#45;&gt;Node38</title>
<path fill="none" stroke="midnightblue" d="M726.2,-72.84C744.41,-70.77 763.64,-68.58 781.15,-66.59"/>
<polygon fill="midnightblue" stroke="midnightblue" points="781.69,-70.05 791.23,-65.44 780.9,-63.09 781.69,-70.05"/>
</g>
<!-- Node34 -->
<g id="node34" class="node">
<title>Node34</title>
<g id="a_node34"><a xlink:href="namespacesignal__easel.html#a52622d8b5a12dedeb59e5442e887a8e5" target="_top" xlink:title=" ">
<polygon fill="none" stroke="black" points="955,-6 955,-25 1122,-25 1122,-6 955,-6"/>
<text text-anchor="middle" x="1038.5" y="-13" font-family="Helvetica,sans-Serif" font-size="10.00">signal_easel::trinomialMultiply</text>
</a>
</g>
</g>
<!-- Node33&#45;&gt;Node34 -->
<g id="edge43" class="edge">
<title>Node33&#45;&gt;Node34</title>
<path fill="none" stroke="midnightblue" d="M917.54,-15.5C926.35,-15.5 935.45,-15.5 944.52,-15.5"/>
<polygon fill="midnightblue" stroke="midnightblue" points="944.72,-19 954.72,-15.5 944.72,-12 944.72,-19"/>
</g>
<!-- Node36 -->
<g id="node36" class="node">
<title>Node36</title>
<g id="a_node36"><a xlink:href="namespacesignal__easel.html#aec86a114666943d1400f780edb69eab0" target="_top" xlink:title=" ">
<polygon fill="none" stroke="black" points="968.5,-94 968.5,-113 1108.5,-113 1108.5,-94 968.5,-94"/>
<text text-anchor="middle" x="1038.5" y="-101" font-family="Helvetica,sans-Serif" font-size="10.00">signal_easel::computeHP</text>
</a>
</g>
</g>
<!-- Node35&#45;&gt;Node36 -->
<g id="edge45" class="edge">
<title>Node35&#45;&gt;Node36</title>
<path fill="none" stroke="midnightblue" d="M919.18,-103.5C931.95,-103.5 945.27,-103.5 958.18,-103.5"/>
<polygon fill="midnightblue" stroke="midnightblue" points="958.43,-107 968.43,-103.5 958.43,-100 958.43,-107"/>
</g>
<!-- Node37 -->
<g id="node37" class="node">
<title>Node37</title>
<g id="a_node37"><a xlink:href="namespacesignal__easel.html#a6049a00d790189b698bd2dfb04885a31" target="_top" xlink:title=" ">
<polygon fill="none" stroke="black" points="1158,-94 1158,-113 1295,-113 1295,-94 1158,-94"/>
<text text-anchor="middle" x="1226.5" y="-101" font-family="Helvetica,sans-Serif" font-size="10.00">signal_easel::computeLP</text>
</a>
</g>
</g>
<!-- Node36&#45;&gt;Node37 -->
<g id="edge46" class="edge">
<title>Node36&#45;&gt;Node37</title>
<path fill="none" stroke="midnightblue" d="M1108.76,-103.5C1121.39,-103.5 1134.65,-103.5 1147.52,-103.5"/>
<polygon fill="midnightblue" stroke="midnightblue" points="1147.73,-107 1157.73,-103.5 1147.73,-100 1147.73,-107"/>
</g>
</g>
</svg>
