<?xml version="1.0" encoding="UTF-8" standalone="no"?>
<!DOCTYPE svg PUBLIC "-//W3C//DTD SVG 1.1//EN"
 "http://www.w3.org/Graphics/SVG/1.1/DTD/svg11.dtd">
<!-- Generated by graphviz version 2.43.0 (0)
 -->
<!-- Title: signal_easel::BitStream::addOneBit Pages: 1 -->
<svg width="822pt" height="143pt"
 viewBox="0.00 0.00 822.00 143.00" xmlns="http://www.w3.org/2000/svg" xmlns:xlink="http://www.w3.org/1999/xlink">
<g id="graph0" class="graph" transform="scale(1 1) rotate(0) translate(4 139)">
<title>signal_easel::BitStream::addOneBit</title>
<!-- Node1 -->
<g id="node1" class="node">
<title>Node1</title>
<g id="a_node1"><a xlink:title=" ">
<polygon fill="#bfbfbf" stroke="black" points="682,-55.5 682,-85.5 814,-85.5 814,-55.5 682,-55.5"/>
<text text-anchor="start" x="690" y="-73.5" font-family="Helvetica,sans-Serif" font-size="10.00">signal_easel::BitStream</text>
<text text-anchor="middle" x="748" y="-62.5" font-family="Helvetica,sans-Serif" font-size="10.00">::addOneBit</text>
</a>
</g>
</g>
<!-- Node2 -->
<g id="node2" class="node">
<title>Node2</title>
<g id="a_node2"><a xlink:href="classsignal__easel_1_1psk_1_1Modulator.html#ad465eb5c136ada635cd01cdceb1dc402" target="_top" xlink:title=" ">
<polygon fill="none" stroke="black" points="504,-104.5 504,-134.5 646,-134.5 646,-104.5 504,-104.5"/>
<text text-anchor="start" x="512" y="-122.5" font-family="Helvetica,sans-Serif" font-size="10.00">signal_easel::psk::</text>
<text text-anchor="middle" x="575" y="-111.5" font-family="Helvetica,sans-Serif" font-size="10.00">Modulator::addPostamble</text>
</a>
</g>
</g>
<!-- Node1&#45;&gt;Node2 -->
<g id="edge1" class="edge">
<title>Node1&#45;&gt;Node2</title>
<path fill="none" stroke="midnightblue" d="M684.55,-88.39C666.16,-93.66 646.23,-99.38 628.53,-104.45"/>
<polygon fill="midnightblue" stroke="midnightblue" points="685.65,-91.72 694.3,-85.6 683.72,-84.99 685.65,-91.72"/>
</g>
<!-- Node5 -->
<g id="node5" class="node">
<title>Node5</title>
<g id="a_node5"><a xlink:href="namespacesignal__easel_1_1ax25.html#a84e1d1bf82ef828a150bc94cf065e396" target="_top" xlink:title="Convert a bit stream from NRZI to standard encoding.">
<polygon fill="none" stroke="black" points="521.5,-55.5 521.5,-85.5 628.5,-85.5 628.5,-55.5 521.5,-55.5"/>
<text text-anchor="start" x="529.5" y="-73.5" font-family="Helvetica,sans-Serif" font-size="10.00">signal_easel::ax25</text>
<text text-anchor="middle" x="575" y="-62.5" font-family="Helvetica,sans-Serif" font-size="10.00">::decodeNrzi</text>
</a>
</g>
</g>
<!-- Node1&#45;&gt;Node5 -->
<g id="edge4" class="edge">
<title>Node1&#45;&gt;Node5</title>
<path fill="none" stroke="midnightblue" d="M671.46,-70.5C657.05,-70.5 642.26,-70.5 628.75,-70.5"/>
<polygon fill="midnightblue" stroke="midnightblue" points="671.86,-74 681.86,-70.5 671.86,-67 671.86,-74"/>
</g>
<!-- Node10 -->
<g id="node10" class="node">
<title>Node10</title>
<g id="a_node10"><a xlink:href="classsignal__easel_1_1ax25_1_1Frame.html#a2b4f6ebcb7592a7e5a21114c8fafa503" target="_top" xlink:title="A step beyond buildFrame. This function builds the frame, does the bit stuffing, adds the flags,...">
<polygon fill="none" stroke="black" points="512.5,-6.5 512.5,-36.5 637.5,-36.5 637.5,-6.5 512.5,-6.5"/>
<text text-anchor="start" x="520.5" y="-24.5" font-family="Helvetica,sans-Serif" font-size="10.00">signal_easel::ax25</text>
<text text-anchor="middle" x="575" y="-13.5" font-family="Helvetica,sans-Serif" font-size="10.00">::Frame::encodeFrame</text>
</a>
</g>
</g>
<!-- Node1&#45;&gt;Node10 -->
<g id="edge9" class="edge">
<title>Node1&#45;&gt;Node10</title>
<path fill="none" stroke="midnightblue" d="M684.55,-52.61C666.16,-47.34 646.23,-41.62 628.53,-36.55"/>
<polygon fill="midnightblue" stroke="midnightblue" points="683.72,-56.01 694.3,-55.4 685.65,-49.28 683.72,-56.01"/>
</g>
<!-- Node3 -->
<g id="node3" class="node">
<title>Node3</title>
<g id="a_node3"><a xlink:href="classsignal__easel_1_1psk_1_1Modulator.html#acd4a6a5bac7af1c62ffaaa0ff1d9259f" target="_top" xlink:title=" ">
<polygon fill="none" stroke="black" points="332,-104.5 332,-134.5 468,-134.5 468,-104.5 332,-104.5"/>
<text text-anchor="start" x="340" y="-122.5" font-family="Helvetica,sans-Serif" font-size="10.00">signal_easel::psk::</text>
<text text-anchor="middle" x="400" y="-111.5" font-family="Helvetica,sans-Serif" font-size="10.00">Modulator::encodeString</text>
</a>
</g>
</g>
<!-- Node2&#45;&gt;Node3 -->
<g id="edge2" class="edge">
<title>Node2&#45;&gt;Node3</title>
<path fill="none" stroke="midnightblue" d="M493.41,-119.5C484.99,-119.5 476.48,-119.5 468.23,-119.5"/>
<polygon fill="midnightblue" stroke="midnightblue" points="493.63,-123 503.63,-119.5 493.63,-116 493.63,-123"/>
</g>
<!-- Node4 -->
<g id="node4" class="node">
<title>Node4</title>
<g id="a_node4"><a xlink:href="psk__test_8cpp.html#adc7973e853ae04677ba78e84bda93987" target="_top" xlink:title=" ">
<polygon fill="none" stroke="black" points="199,-110 199,-129 240,-129 240,-110 199,-110"/>
<text text-anchor="middle" x="219.5" y="-117" font-family="Helvetica,sans-Serif" font-size="10.00">TEST</text>
</a>
</g>
</g>
<!-- Node3&#45;&gt;Node4 -->
<g id="edge3" class="edge">
<title>Node3&#45;&gt;Node4</title>
<path fill="none" stroke="midnightblue" d="M321.72,-119.5C291.84,-119.5 260.12,-119.5 240.32,-119.5"/>
<polygon fill="midnightblue" stroke="midnightblue" points="321.77,-123 331.77,-119.5 321.77,-116 321.77,-123"/>
</g>
<!-- Node6 -->
<g id="node6" class="node">
<title>Node6</title>
<g id="a_node6"><a xlink:href="classsignal__easel_1_1ax25_1_1Frame.html#a63cf2362c2a90d20f09bbbc4f24a07ba" target="_top" xlink:title="Attempt to parse an incoming bit stream into an AX.25 frame.">
<polygon fill="none" stroke="black" points="332.5,-55.5 332.5,-85.5 467.5,-85.5 467.5,-55.5 332.5,-55.5"/>
<text text-anchor="start" x="340.5" y="-73.5" font-family="Helvetica,sans-Serif" font-size="10.00">signal_easel::ax25</text>
<text text-anchor="middle" x="400" y="-62.5" font-family="Helvetica,sans-Serif" font-size="10.00">::Frame::parseBitStream</text>
</a>
</g>
</g>
<!-- Node5&#45;&gt;Node6 -->
<g id="edge5" class="edge">
<title>Node5&#45;&gt;Node6</title>
<path fill="none" stroke="midnightblue" d="M511.05,-70.5C496.92,-70.5 481.88,-70.5 467.6,-70.5"/>
<polygon fill="midnightblue" stroke="midnightblue" points="511.15,-74 521.15,-70.5 511.15,-67 511.15,-74"/>
</g>
<!-- Node7 -->
<g id="node7" class="node">
<title>Node7</title>
<g id="a_node7"><a xlink:href="classsignal__easel_1_1aprs_1_1Demodulator.html#ae5a8e7634c1bc8d215a0c454a9a737fa" target="_top" xlink:title=" ">
<polygon fill="none" stroke="black" points="143,-50 143,-91 296,-91 296,-50 143,-50"/>
<text text-anchor="start" x="151" y="-79" font-family="Helvetica,sans-Serif" font-size="10.00">signal_easel::aprs</text>
<text text-anchor="start" x="151" y="-68" font-family="Helvetica,sans-Serif" font-size="10.00">::Demodulator::lookForAx25</text>
<text text-anchor="middle" x="219.5" y="-57" font-family="Helvetica,sans-Serif" font-size="10.00">Packet</text>
</a>
</g>
</g>
<!-- Node6&#45;&gt;Node7 -->
<g id="edge6" class="edge">
<title>Node6&#45;&gt;Node7</title>
<path fill="none" stroke="midnightblue" d="M322.22,-70.5C313.58,-70.5 304.77,-70.5 296.14,-70.5"/>
<polygon fill="midnightblue" stroke="midnightblue" points="322.28,-74 332.28,-70.5 322.28,-67 322.28,-74"/>
</g>
<!-- Node8 -->
<g id="node8" class="node">
<title>Node8</title>
<g id="a_node8"><a xlink:href="classsignal__easel_1_1aprs_1_1Receiver.html#afbf7869aceaf2ea7ab0be8b9af16e818" target="_top" xlink:title=" ">
<polygon fill="none" stroke="black" points="0,-55.5 0,-85.5 107,-85.5 107,-55.5 0,-55.5"/>
<text text-anchor="start" x="8" y="-73.5" font-family="Helvetica,sans-Serif" font-size="10.00">signal_easel::aprs</text>
<text text-anchor="middle" x="53.5" y="-62.5" font-family="Helvetica,sans-Serif" font-size="10.00">::Receiver::decode</text>
</a>
</g>
</g>
<!-- Node7&#45;&gt;Node8 -->
<g id="edge7" class="edge">
<title>Node7&#45;&gt;Node8</title>
<path fill="none" stroke="midnightblue" d="M132.67,-70.5C124.09,-70.5 115.56,-70.5 107.47,-70.5"/>
<polygon fill="midnightblue" stroke="midnightblue" points="132.74,-74 142.74,-70.5 132.74,-67 132.74,-74"/>
</g>
<!-- Node9 -->
<g id="node9" class="node">
<title>Node9</title>
<g id="a_node9"><a xlink:href="aprs__test_8cpp.html#aea66d1824e3f1e27598adf99ac6a089a" target="_top" xlink:title=" ">
<polygon fill="none" stroke="black" points="33,-12 33,-31 74,-31 74,-12 33,-12"/>
<text text-anchor="middle" x="53.5" y="-19" font-family="Helvetica,sans-Serif" font-size="10.00">TEST</text>
</a>
</g>
</g>
<!-- Node7&#45;&gt;Node9 -->
<g id="edge8" class="edge">
<title>Node7&#45;&gt;Node9</title>
<path fill="none" stroke="midnightblue" d="M139.76,-46.97C115.4,-39.69 90.65,-32.3 74.13,-27.37"/>
<polygon fill="midnightblue" stroke="midnightblue" points="138.84,-50.35 149.42,-49.86 140.85,-43.65 138.84,-50.35"/>
</g>
<!-- Node11 -->
<g id="node11" class="node">
<title>Node11</title>
<g id="a_node11"><a xlink:href="namespacesignal__easel_1_1aprs.html#a77481001a5b78a839972bb4220b43e4d" target="_top" xlink:title="The base function to encode an APRS packet with the provided base data and info field.">
<polygon fill="none" stroke="black" points="348,-3.5 348,-33.5 452,-33.5 452,-3.5 348,-3.5"/>
<text text-anchor="start" x="356" y="-21.5" font-family="Helvetica,sans-Serif" font-size="10.00">signal_easel::aprs</text>
<text text-anchor="middle" x="400" y="-10.5" font-family="Helvetica,sans-Serif" font-size="10.00">::encodePacket</text>
</a>
</g>
</g>
<!-- Node10&#45;&gt;Node11 -->
<g id="edge10" class="edge">
<title>Node10&#45;&gt;Node11</title>
<path fill="none" stroke="midnightblue" d="M501.74,-20.25C485.03,-19.96 467.59,-19.65 452,-19.38"/>
<polygon fill="midnightblue" stroke="midnightblue" points="501.97,-23.75 512.03,-20.43 502.09,-16.75 501.97,-23.75"/>
</g>
<!-- Node12 -->
<g id="node12" class="node">
<title>Node12</title>
<g id="a_node12"><a xlink:href="classsignal__easel_1_1aprs_1_1Modulator.html#a8ae067701382dec1680b786583ace687" target="_top" xlink:title=" ">
<polygon fill="none" stroke="black" points="163,-0.5 163,-30.5 276,-30.5 276,-0.5 163,-0.5"/>
<text text-anchor="start" x="171" y="-18.5" font-family="Helvetica,sans-Serif" font-size="10.00">signal_easel::aprs</text>
<text text-anchor="middle" x="219.5" y="-7.5" font-family="Helvetica,sans-Serif" font-size="10.00">::Modulator::encode</text>
</a>
</g>
</g>
<!-- Node11&#45;&gt;Node12 -->
<g id="edge11" class="edge">
<title>Node11&#45;&gt;Node12</title>
<path fill="none" stroke="midnightblue" d="M337.61,-17.47C317.62,-17.13 295.57,-16.76 276.03,-16.43"/>
<polygon fill="midnightblue" stroke="midnightblue" points="337.79,-20.97 347.85,-17.64 337.91,-13.97 337.79,-20.97"/>
</g>
<!-- Node12&#45;&gt;Node9 -->
<g id="edge12" class="edge">
<title>Node12&#45;&gt;Node9</title>
<path fill="none" stroke="midnightblue" d="M152.74,-17.91C124.56,-18.94 93.72,-20.07 74.25,-20.78"/>
<polygon fill="midnightblue" stroke="midnightblue" points="153.11,-21.39 162.98,-17.53 152.86,-14.4 153.11,-21.39"/>
</g>
</g>
</svg>
