<?xml version="1.0" encoding="UTF-8" standalone="no"?>
<!DOCTYPE svg PUBLIC "-//W3C//DTD SVG 1.1//EN"
 "http://www.w3.org/Graphics/SVG/1.1/DTD/svg11.dtd">
<!-- Generated by graphviz version 2.43.0 (0)
 -->
<!-- Title: signal_easel::sstv::Modulator::pulse Pages: 1 -->
<svg width="754pt" height="100pt"
 viewBox="0.00 0.00 754.00 99.50" xmlns="http://www.w3.org/2000/svg" xmlns:xlink="http://www.w3.org/1999/xlink">
<g id="graph0" class="graph" transform="scale(1 1) rotate(0) translate(4 95.5)">
<title>signal_easel::sstv::Modulator::pulse</title>
<!-- Node1 -->
<g id="node1" class="node">
<title>Node1</title>
<g id="a_node1"><a xlink:title=" ">
<polygon fill="#bfbfbf" stroke="black" points="642,-33 642,-63 746,-63 746,-33 642,-33"/>
<text text-anchor="start" x="650" y="-51" font-family="Helvetica,sans-Serif" font-size="10.00">signal_easel::sstv</text>
<text text-anchor="middle" x="694" y="-40" font-family="Helvetica,sans-Serif" font-size="10.00">::Modulator::pulse</text>
</a>
</g>
</g>
<!-- Node2 -->
<g id="node2" class="node">
<title>Node2</title>
<g id="a_node2"><a xlink:href="classsignal__easel_1_1sstv_1_1Modulator.html#a9e6343e922e5d6dd312d16c0781b28c4" target="_top" xlink:title=" ">
<polygon fill="none" stroke="black" points="263.5,-61 263.5,-91 406.5,-91 406.5,-61 263.5,-61"/>
<text text-anchor="start" x="271.5" y="-79" font-family="Helvetica,sans-Serif" font-size="10.00">signal_easel::sstv</text>
<text text-anchor="middle" x="335" y="-68" font-family="Helvetica,sans-Serif" font-size="10.00">::Modulator::addPreamble</text>
</a>
</g>
</g>
<!-- Node1&#45;&gt;Node2 -->
<g id="edge1" class="edge">
<title>Node1&#45;&gt;Node2</title>
<path fill="none" stroke="midnightblue" d="M631.75,-52.8C569.28,-57.7 472.45,-65.3 406.75,-70.45"/>
<polygon fill="midnightblue" stroke="midnightblue" points="632.15,-56.28 641.85,-52.01 631.61,-49.3 632.15,-56.28"/>
</g>
<!-- Node5 -->
<g id="node5" class="node">
<title>Node5</title>
<g id="a_node5"><a xlink:href="classsignal__easel_1_1sstv_1_1Modulator.html#acf3f661e744b92527504daff37dc8505" target="_top" xlink:title=" ">
<polygon fill="none" stroke="black" points="449,-11 449,-41 606,-41 606,-11 449,-11"/>
<text text-anchor="start" x="457" y="-29" font-family="Helvetica,sans-Serif" font-size="10.00">signal_easel::sstv</text>
<text text-anchor="middle" x="527.5" y="-18" font-family="Helvetica,sans-Serif" font-size="10.00">::Modulator::encodeScanLine</text>
</a>
</g>
</g>
<!-- Node1&#45;&gt;Node5 -->
<g id="edge4" class="edge">
<title>Node1&#45;&gt;Node5</title>
<path fill="none" stroke="midnightblue" d="M631.83,-39.82C623.47,-38.7 614.8,-37.54 606.19,-36.39"/>
<polygon fill="midnightblue" stroke="midnightblue" points="631.48,-43.3 641.85,-41.16 632.41,-36.36 631.48,-43.3"/>
</g>
<!-- Node3 -->
<g id="node3" class="node">
<title>Node3</title>
<g id="a_node3"><a xlink:href="classsignal__easel_1_1sstv_1_1Modulator.html#a6598802f6a659efde056f846d7eb9d2c" target="_top" xlink:title="Encodes an image into SSTV audio.">
<polygon fill="none" stroke="black" points="77,-33 77,-63 221,-63 221,-33 77,-33"/>
<text text-anchor="start" x="85" y="-51" font-family="Helvetica,sans-Serif" font-size="10.00">signal_easel::sstv</text>
<text text-anchor="middle" x="149" y="-40" font-family="Helvetica,sans-Serif" font-size="10.00">::Modulator::encodeImage</text>
</a>
</g>
</g>
<!-- Node2&#45;&gt;Node3 -->
<g id="edge2" class="edge">
<title>Node2&#45;&gt;Node3</title>
<path fill="none" stroke="midnightblue" d="M253.2,-63.7C242.48,-62.07 231.56,-60.41 221.03,-58.81"/>
<polygon fill="midnightblue" stroke="midnightblue" points="252.97,-67.21 263.39,-65.25 254.03,-60.29 252.97,-67.21"/>
</g>
<!-- Node4 -->
<g id="node4" class="node">
<title>Node4</title>
<g id="a_node4"><a xlink:href="sstv__test_8cpp.html#a81c59728812e528beb650e55bb38fd4b" target="_top" xlink:title=" ">
<polygon fill="none" stroke="black" points="0,-38.5 0,-57.5 41,-57.5 41,-38.5 0,-38.5"/>
<text text-anchor="middle" x="20.5" y="-45.5" font-family="Helvetica,sans-Serif" font-size="10.00">TEST</text>
</a>
</g>
</g>
<!-- Node3&#45;&gt;Node4 -->
<g id="edge3" class="edge">
<title>Node3&#45;&gt;Node4</title>
<path fill="none" stroke="midnightblue" d="M66.92,-48C57.43,-48 48.52,-48 41.15,-48"/>
<polygon fill="midnightblue" stroke="midnightblue" points="66.98,-51.5 76.98,-48 66.98,-44.5 66.98,-51.5"/>
</g>
<!-- Node6 -->
<g id="node6" class="node">
<title>Node6</title>
<g id="a_node6"><a xlink:href="classsignal__easel_1_1sstv_1_1Modulator.html#a5db5191f0447cc4b34fff09fc35c7ffe" target="_top" xlink:title=" ">
<polygon fill="none" stroke="black" points="257,-0.5 257,-41.5 413,-41.5 413,-0.5 257,-0.5"/>
<text text-anchor="start" x="265" y="-29.5" font-family="Helvetica,sans-Serif" font-size="10.00">signal_easel::sstv</text>
<text text-anchor="start" x="265" y="-18.5" font-family="Helvetica,sans-Serif" font-size="10.00">::Modulator::encodeAdjusted</text>
<text text-anchor="middle" x="335" y="-7.5" font-family="Helvetica,sans-Serif" font-size="10.00">Image</text>
</a>
</g>
</g>
<!-- Node5&#45;&gt;Node6 -->
<g id="edge5" class="edge">
<title>Node5&#45;&gt;Node6</title>
<path fill="none" stroke="midnightblue" d="M438.5,-23.69C430.05,-23.47 421.53,-23.24 413.2,-23.03"/>
<polygon fill="midnightblue" stroke="midnightblue" points="438.65,-27.2 448.74,-23.96 438.84,-20.2 438.65,-27.2"/>
</g>
<!-- Node6&#45;&gt;Node3 -->
<g id="edge6" class="edge">
<title>Node6&#45;&gt;Node3</title>
<path fill="none" stroke="midnightblue" d="M246.75,-33.8C238.18,-35.06 229.55,-36.33 221.17,-37.56"/>
<polygon fill="midnightblue" stroke="midnightblue" points="247.38,-37.25 256.77,-32.33 246.36,-30.32 247.38,-37.25"/>
</g>
</g>
</svg>
