<?xml version="1.0" encoding="UTF-8" standalone="no"?>
<!DOCTYPE svg PUBLIC "-//W3C//DTD SVG 1.1//EN"
 "http://www.w3.org/Graphics/SVG/1.1/DTD/svg11.dtd">
<!-- Generated by graphviz version 2.43.0 (0)
 -->
<!-- Title: signal_easel::aprs::Receiver::decode Pages: 1 -->
<svg width="1276pt" height="650pt"
 viewBox="0.00 0.00 1276.00 649.50" xmlns="http://www.w3.org/2000/svg" xmlns:xlink="http://www.w3.org/1999/xlink">
<g id="graph0" class="graph" transform="scale(1 1) rotate(0) translate(4 645.5)">
<title>signal_easel::aprs::Receiver::decode</title>
<!-- Node1 -->
<g id="node1" class="node">
<title>Node1</title>
<g id="a_node1"><a xlink:title=" ">
<polygon fill="#bfbfbf" stroke="black" points="0,-219.5 0,-249.5 107,-249.5 107,-219.5 0,-219.5"/>
<text text-anchor="start" x="8" y="-237.5" font-family="Helvetica,sans-Serif" font-size="10.00">signal_easel::aprs</text>
<text text-anchor="middle" x="53.5" y="-226.5" font-family="Helvetica,sans-Serif" font-size="10.00">::Receiver::decode</text>
</a>
</g>
</g>
<!-- Node2 -->
<g id="node2" class="node">
<title>Node2</title>
<g id="a_node2"><a xlink:href="classsignal__easel_1_1aprs_1_1Demodulator.html#ae5a8e7634c1bc8d215a0c454a9a737fa" target="_top" xlink:title=" ">
<polygon fill="none" stroke="black" points="145.5,-426 145.5,-467 298.5,-467 298.5,-426 145.5,-426"/>
<text text-anchor="start" x="153.5" y="-455" font-family="Helvetica,sans-Serif" font-size="10.00">signal_easel::aprs</text>
<text text-anchor="start" x="153.5" y="-444" font-family="Helvetica,sans-Serif" font-size="10.00">::Demodulator::lookForAx25</text>
<text text-anchor="middle" x="222" y="-433" font-family="Helvetica,sans-Serif" font-size="10.00">Packet</text>
</a>
</g>
</g>
<!-- Node1&#45;&gt;Node2 -->
<g id="edge1" class="edge">
<title>Node1&#45;&gt;Node2</title>
<path fill="none" stroke="midnightblue" d="M66.47,-249.75C94.13,-284.96 162.81,-372.41 198.57,-417.94"/>
<polygon fill="midnightblue" stroke="midnightblue" points="195.91,-420.22 204.84,-425.93 201.42,-415.9 195.91,-420.22"/>
</g>
<!-- Node25 -->
<g id="node25" class="node">
<title>Node25</title>
<g id="a_node25"><a xlink:href="classsignal__easel_1_1afsk_1_1Demodulator.html#a1d00e5b759f208be2751c4f2302a9c57" target="_top" xlink:title=" ">
<polygon fill="none" stroke="black" points="143,-214 143,-255 301,-255 301,-214 143,-214"/>
<text text-anchor="start" x="151" y="-243" font-family="Helvetica,sans-Serif" font-size="10.00">signal_easel::afsk</text>
<text text-anchor="start" x="151" y="-232" font-family="Helvetica,sans-Serif" font-size="10.00">::Demodulator::processAudio</text>
<text text-anchor="middle" x="222" y="-221" font-family="Helvetica,sans-Serif" font-size="10.00">Buffer</text>
</a>
</g>
</g>
<!-- Node1&#45;&gt;Node25 -->
<g id="edge31" class="edge">
<title>Node1&#45;&gt;Node25</title>
<path fill="none" stroke="midnightblue" d="M107.18,-234.5C115.33,-234.5 123.93,-234.5 132.61,-234.5"/>
<polygon fill="midnightblue" stroke="midnightblue" points="132.81,-238 142.81,-234.5 132.81,-231 132.81,-238"/>
</g>
<!-- Node35 -->
<g id="node35" class="node">
<title>Node35</title>
<g id="a_node35"><a xlink:href="classsignal__easel_1_1Exception.html#a0bb35db1350eef242918c3f69d36805f" target="_top" xlink:title=" ">
<polygon fill="none" stroke="black" points="156.5,-164.5 156.5,-194.5 287.5,-194.5 287.5,-164.5 156.5,-164.5"/>
<text text-anchor="start" x="164.5" y="-182.5" font-family="Helvetica,sans-Serif" font-size="10.00">signal_easel::Exception</text>
<text text-anchor="middle" x="222" y="-171.5" font-family="Helvetica,sans-Serif" font-size="10.00">::what</text>
</a>
</g>
</g>
<!-- Node1&#45;&gt;Node35 -->
<g id="edge41" class="edge">
<title>Node1&#45;&gt;Node35</title>
<path fill="none" stroke="midnightblue" d="M98.57,-219.4C112.74,-214.59 128.52,-209.28 143,-204.5 149.78,-202.27 156.9,-199.95 163.96,-197.66"/>
<polygon fill="midnightblue" stroke="midnightblue" points="165.08,-200.98 173.52,-194.58 162.93,-194.32 165.08,-200.98"/>
</g>
<!-- Node3 -->
<g id="node3" class="node">
<title>Node3</title>
<g id="a_node3"><a xlink:href="classsignal__easel_1_1ax25_1_1Frame.html#a9e6110247fa4368c64e39cf17f08759d" target="_top" xlink:title=" ">
<polygon fill="none" stroke="black" points="353,-480.5 353,-510.5 485,-510.5 485,-480.5 353,-480.5"/>
<text text-anchor="start" x="361" y="-498.5" font-family="Helvetica,sans-Serif" font-size="10.00">signal_easel::ax25</text>
<text text-anchor="middle" x="419" y="-487.5" font-family="Helvetica,sans-Serif" font-size="10.00">::Frame::getInformation</text>
</a>
</g>
</g>
<!-- Node2&#45;&gt;Node3 -->
<g id="edge2" class="edge">
<title>Node2&#45;&gt;Node3</title>
<path fill="none" stroke="midnightblue" d="M298.67,-465.51C314.98,-469.61 332.16,-473.93 348.23,-477.97"/>
<polygon fill="midnightblue" stroke="midnightblue" points="347.53,-481.4 358.08,-480.44 349.24,-474.61 347.53,-481.4"/>
</g>
<!-- Node4 -->
<g id="node4" class="node">
<title>Node4</title>
<g id="a_node4"><a xlink:href="classsignal__easel_1_1ax25_1_1Frame.html#a63cf2362c2a90d20f09bbbc4f24a07ba" target="_top" xlink:title="Attempt to parse an incoming bit stream into an AX.25 frame.">
<polygon fill="none" stroke="black" points="351.5,-431.5 351.5,-461.5 486.5,-461.5 486.5,-431.5 351.5,-431.5"/>
<text text-anchor="start" x="359.5" y="-449.5" font-family="Helvetica,sans-Serif" font-size="10.00">signal_easel::ax25</text>
<text text-anchor="middle" x="419" y="-438.5" font-family="Helvetica,sans-Serif" font-size="10.00">::Frame::parseBitStream</text>
</a>
</g>
</g>
<!-- Node2&#45;&gt;Node4 -->
<g id="edge3" class="edge">
<title>Node2&#45;&gt;Node4</title>
<path fill="none" stroke="midnightblue" d="M298.67,-446.5C312.63,-446.5 327.21,-446.5 341.2,-446.5"/>
<polygon fill="midnightblue" stroke="midnightblue" points="341.26,-450 351.26,-446.5 341.26,-443 341.26,-450"/>
</g>
<!-- Node5 -->
<g id="node5" class="node">
<title>Node5</title>
<g id="a_node5"><a xlink:href="classsignal__easel_1_1ax25_1_1Frame.html#af86d4b534367a8faf6b628301c9ffceb" target="_top" xlink:title=" ">
<polygon fill="none" stroke="black" points="541.5,-480.5 541.5,-510.5 702.5,-510.5 702.5,-480.5 541.5,-480.5"/>
<text text-anchor="start" x="549.5" y="-498.5" font-family="Helvetica,sans-Serif" font-size="10.00">signal_easel::ax25</text>
<text text-anchor="middle" x="622" y="-487.5" font-family="Helvetica,sans-Serif" font-size="10.00">::Frame::addRepeaterAddress</text>
</a>
</g>
</g>
<!-- Node4&#45;&gt;Node5 -->
<g id="edge4" class="edge">
<title>Node4&#45;&gt;Node5</title>
<path fill="none" stroke="midnightblue" d="M481.67,-461.53C503.09,-466.76 527.28,-472.65 549.43,-478.05"/>
<polygon fill="midnightblue" stroke="midnightblue" points="548.9,-481.53 559.44,-480.49 550.56,-474.72 548.9,-481.53"/>
</g>
<!-- Node10 -->
<g id="node10" class="node">
<title>Node10</title>
<g id="a_node10"><a xlink:href="namespacesignal__easel_1_1ax25.html#a84e1d1bf82ef828a150bc94cf065e396" target="_top" xlink:title="Convert a bit stream from NRZI to standard encoding.">
<polygon fill="none" stroke="black" points="568.5,-259.5 568.5,-289.5 675.5,-289.5 675.5,-259.5 568.5,-259.5"/>
<text text-anchor="start" x="576.5" y="-277.5" font-family="Helvetica,sans-Serif" font-size="10.00">signal_easel::ax25</text>
<text text-anchor="middle" x="622" y="-266.5" font-family="Helvetica,sans-Serif" font-size="10.00">::decodeNrzi</text>
</a>
</g>
</g>
<!-- Node4&#45;&gt;Node10 -->
<g id="edge9" class="edge">
<title>Node4&#45;&gt;Node10</title>
<path fill="none" stroke="midnightblue" d="M437.84,-431.24C473.6,-400.64 554.15,-331.7 595.48,-296.33"/>
<polygon fill="midnightblue" stroke="midnightblue" points="597.88,-298.89 603.2,-289.73 593.33,-293.57 597.88,-298.89"/>
</g>
<!-- Node17 -->
<g id="node17" class="node">
<title>Node17</title>
<g id="a_node17"><a xlink:href="namespacesignal__easel_1_1ax25.html#a1bccc37a6ac48ed9be96218dd46bcb41" target="_top" xlink:title=" ">
<polygon fill="none" stroke="black" points="568.5,-382.5 568.5,-412.5 675.5,-412.5 675.5,-382.5 568.5,-382.5"/>
<text text-anchor="start" x="576.5" y="-400.5" font-family="Helvetica,sans-Serif" font-size="10.00">signal_easel::ax25</text>
<text text-anchor="middle" x="622" y="-389.5" font-family="Helvetica,sans-Serif" font-size="10.00">::deStuffBytes</text>
</a>
</g>
</g>
<!-- Node4&#45;&gt;Node17 -->
<g id="edge17" class="edge">
<title>Node4&#45;&gt;Node17</title>
<path fill="none" stroke="midnightblue" d="M481.67,-431.47C506.01,-425.53 533.95,-418.72 558.38,-412.77"/>
<polygon fill="midnightblue" stroke="midnightblue" points="559.38,-416.13 568.26,-410.36 557.72,-409.32 559.38,-416.13"/>
</g>
<!-- Node20 -->
<g id="node20" class="node">
<title>Node20</title>
<g id="a_node20"><a xlink:href="namespacesignal__easel_1_1ax25.html#aedc3a21287bb20d2f0b01c9a2d6797f3" target="_top" xlink:title="Finds the start flags in the bit stream and removes them.">
<polygon fill="none" stroke="black" points="568.5,-431.5 568.5,-461.5 675.5,-461.5 675.5,-431.5 568.5,-431.5"/>
<text text-anchor="start" x="576.5" y="-449.5" font-family="Helvetica,sans-Serif" font-size="10.00">signal_easel::ax25</text>
<text text-anchor="middle" x="622" y="-438.5" font-family="Helvetica,sans-Serif" font-size="10.00">::findStartFlags</text>
</a>
</g>
</g>
<!-- Node4&#45;&gt;Node20 -->
<g id="edge22" class="edge">
<title>Node4&#45;&gt;Node20</title>
<path fill="none" stroke="midnightblue" d="M486.65,-446.5C509.64,-446.5 535.31,-446.5 558,-446.5"/>
<polygon fill="midnightblue" stroke="midnightblue" points="558.19,-450 568.19,-446.5 558.19,-443 558.19,-450"/>
</g>
<!-- Node23 -->
<g id="node23" class="node">
<title>Node23</title>
<g id="a_node23"><a xlink:href="classsignal__easel_1_1ax25_1_1Frame.html#a57b163ece54317da8d95f3b18b47c23d" target="_top" xlink:title="setters/getters for the frame.">
<polygon fill="none" stroke="black" points="537,-578.5 537,-608.5 707,-608.5 707,-578.5 537,-578.5"/>
<text text-anchor="start" x="545" y="-596.5" font-family="Helvetica,sans-Serif" font-size="10.00">signal_easel::ax25</text>
<text text-anchor="middle" x="622" y="-585.5" font-family="Helvetica,sans-Serif" font-size="10.00">::Frame::setDestinationAddress</text>
</a>
</g>
</g>
<!-- Node4&#45;&gt;Node23 -->
<g id="edge27" class="edge">
<title>Node4&#45;&gt;Node23</title>
<path fill="none" stroke="midnightblue" d="M486.56,-461.21C491.82,-464.05 496.73,-467.45 501,-471.5 534.66,-503.44 503,-537.92 537,-569.5 538.15,-570.56 539.34,-571.58 540.56,-572.55"/>
<polygon fill="midnightblue" stroke="midnightblue" points="538.92,-575.67 549.18,-578.35 542.83,-569.86 538.92,-575.67"/>
</g>
<!-- Node24 -->
<g id="node24" class="node">
<title>Node24</title>
<g id="a_node24"><a xlink:href="classsignal__easel_1_1ax25_1_1Frame.html#a402d26a81f82bb5c477e8930b75a771e" target="_top" xlink:title=" ">
<polygon fill="none" stroke="black" points="549,-529.5 549,-559.5 695,-559.5 695,-529.5 549,-529.5"/>
<text text-anchor="start" x="557" y="-547.5" font-family="Helvetica,sans-Serif" font-size="10.00">signal_easel::ax25</text>
<text text-anchor="middle" x="622" y="-536.5" font-family="Helvetica,sans-Serif" font-size="10.00">::Frame::setSourceAddress</text>
</a>
</g>
</g>
<!-- Node4&#45;&gt;Node24 -->
<g id="edge29" class="edge">
<title>Node4&#45;&gt;Node24</title>
<path fill="none" stroke="midnightblue" d="M483.37,-461.63C489.6,-464.4 495.6,-467.66 501,-471.5 523.02,-487.16 514.82,-505.07 537,-520.5 539.26,-522.07 541.62,-523.54 544.05,-524.91"/>
<polygon fill="midnightblue" stroke="midnightblue" points="542.64,-528.12 553.15,-529.47 545.78,-521.86 542.64,-528.12"/>
</g>
<!-- Node6 -->
<g id="node6" class="node">
<title>Node6</title>
<g id="a_node6"><a xlink:href="classsignal__easel_1_1ax25_1_1Address.html#a7fa6b0ef4241413893f201660991e4ea" target="_top" xlink:title="Checks if the address is valid, if not throws an exception with a specific error code.">
<polygon fill="none" stroke="black" points="752.5,-578.5 752.5,-608.5 882.5,-608.5 882.5,-578.5 752.5,-578.5"/>
<text text-anchor="start" x="760.5" y="-596.5" font-family="Helvetica,sans-Serif" font-size="10.00">signal_easel::ax25</text>
<text text-anchor="middle" x="817.5" y="-585.5" font-family="Helvetica,sans-Serif" font-size="10.00">::Address::assertIsValid</text>
</a>
</g>
</g>
<!-- Node5&#45;&gt;Node6 -->
<g id="edge5" class="edge">
<title>Node5&#45;&gt;Node6</title>
<path fill="none" stroke="midnightblue" d="M689.14,-510.61C695.45,-513.38 701.52,-516.65 707,-520.5 729.1,-536.05 721.11,-553.66 743,-569.5 744.9,-570.87 746.88,-572.17 748.93,-573.4"/>
<polygon fill="midnightblue" stroke="midnightblue" points="747.76,-576.74 758.24,-578.33 751.04,-570.56 747.76,-576.74"/>
</g>
<!-- Node7 -->
<g id="node7" class="node">
<title>Node7</title>
<g id="a_node7"><a xlink:href="classsignal__easel_1_1ax25_1_1Address.html#af34b361f739b7995e7816b7a04465828" target="_top" xlink:title=" ">
<polygon fill="none" stroke="black" points="929,-600 929,-641 1094,-641 1094,-600 929,-600"/>
<text text-anchor="start" x="937" y="-629" font-family="Helvetica,sans-Serif" font-size="10.00">signal_easel::ax25</text>
<text text-anchor="start" x="937" y="-618" font-family="Helvetica,sans-Serif" font-size="10.00">::Address::assertAddressString</text>
<text text-anchor="middle" x="1011.5" y="-607" font-family="Helvetica,sans-Serif" font-size="10.00">IsValid</text>
</a>
</g>
</g>
<!-- Node6&#45;&gt;Node7 -->
<g id="edge6" class="edge">
<title>Node6&#45;&gt;Node7</title>
<path fill="none" stroke="midnightblue" d="M882.7,-602.53C894.28,-604.16 906.56,-605.88 918.75,-607.6"/>
<polygon fill="midnightblue" stroke="midnightblue" points="918.56,-611.11 928.95,-609.03 919.53,-604.17 918.56,-611.11"/>
</g>
<!-- Node8 -->
<g id="node8" class="node">
<title>Node8</title>
<g id="a_node8"><a xlink:href="classsignal__easel_1_1ax25_1_1Address.html#a8b44c6e311d3462bd86eda03c1d384f0" target="_top" xlink:title=" ">
<polygon fill="none" stroke="black" points="936.5,-550.5 936.5,-580.5 1086.5,-580.5 1086.5,-550.5 936.5,-550.5"/>
<text text-anchor="start" x="944.5" y="-568.5" font-family="Helvetica,sans-Serif" font-size="10.00">signal_easel::ax25</text>
<text text-anchor="middle" x="1011.5" y="-557.5" font-family="Helvetica,sans-Serif" font-size="10.00">::Address::assertSsidIsValid</text>
</a>
</g>
</g>
<!-- Node6&#45;&gt;Node8 -->
<g id="edge7" class="edge">
<title>Node6&#45;&gt;Node8</title>
<path fill="none" stroke="midnightblue" d="M882.7,-584.14C896.69,-582.1 911.71,-579.91 926.34,-577.77"/>
<polygon fill="midnightblue" stroke="midnightblue" points="927.01,-581.21 936.4,-576.31 926,-574.29 927.01,-581.21"/>
</g>
<!-- Node9 -->
<g id="node9" class="node">
<title>Node9</title>
<g id="a_node9"><a xlink:href="classsignal__easel_1_1ax25_1_1Address.html#ad66c149737cc4aa52ae9e8860176acf3" target="_top" xlink:title=" ">
<polygon fill="none" stroke="black" points="1139.5,-550.5 1139.5,-580.5 1259.5,-580.5 1259.5,-550.5 1139.5,-550.5"/>
<text text-anchor="start" x="1147.5" y="-568.5" font-family="Helvetica,sans-Serif" font-size="10.00">signal_easel::ax25</text>
<text text-anchor="middle" x="1199.5" y="-557.5" font-family="Helvetica,sans-Serif" font-size="10.00">::Address::isSsidValid</text>
</a>
</g>
</g>
<!-- Node8&#45;&gt;Node9 -->
<g id="edge8" class="edge">
<title>Node8&#45;&gt;Node9</title>
<path fill="none" stroke="midnightblue" d="M1086.55,-565.5C1100.51,-565.5 1115.07,-565.5 1128.9,-565.5"/>
<polygon fill="midnightblue" stroke="midnightblue" points="1129.3,-569 1139.3,-565.5 1129.3,-562 1129.3,-569"/>
</g>
<!-- Node11 -->
<g id="node11" class="node">
<title>Node11</title>
<g id="a_node11"><a xlink:href="classsignal__easel_1_1BitStream.html#a81d4aea4c11f65e0c2b7ad2f0f0cc312" target="_top" xlink:title=" ">
<polygon fill="none" stroke="black" points="751.5,-235.5 751.5,-265.5 883.5,-265.5 883.5,-235.5 751.5,-235.5"/>
<text text-anchor="start" x="759.5" y="-253.5" font-family="Helvetica,sans-Serif" font-size="10.00">signal_easel::BitStream</text>
<text text-anchor="middle" x="817.5" y="-242.5" font-family="Helvetica,sans-Serif" font-size="10.00">::addOneBit</text>
</a>
</g>
</g>
<!-- Node10&#45;&gt;Node11 -->
<g id="edge10" class="edge">
<title>Node10&#45;&gt;Node11</title>
<path fill="none" stroke="midnightblue" d="M675.62,-267.97C695.9,-265.46 719.48,-262.53 741.48,-259.81"/>
<polygon fill="midnightblue" stroke="midnightblue" points="741.96,-263.27 751.45,-258.57 741.1,-256.33 741.96,-263.27"/>
</g>
<!-- Node13 -->
<g id="node13" class="node">
<title>Node13</title>
<g id="a_node13"><a xlink:href="classsignal__easel_1_1BitStream.html#abb315beec8c4d88115d9d4ec5f082863" target="_top" xlink:title=" ">
<polygon fill="none" stroke="black" points="751.5,-186.5 751.5,-216.5 883.5,-216.5 883.5,-186.5 751.5,-186.5"/>
<text text-anchor="start" x="759.5" y="-204.5" font-family="Helvetica,sans-Serif" font-size="10.00">signal_easel::BitStream</text>
<text text-anchor="middle" x="817.5" y="-193.5" font-family="Helvetica,sans-Serif" font-size="10.00">::addZeroBit</text>
</a>
</g>
</g>
<!-- Node10&#45;&gt;Node13 -->
<g id="edge12" class="edge">
<title>Node10&#45;&gt;Node13</title>
<path fill="none" stroke="midnightblue" d="M659.31,-259.4C683.01,-249.69 714.69,-236.97 743,-226.5 748.89,-224.32 755.07,-222.11 761.24,-219.94"/>
<polygon fill="midnightblue" stroke="midnightblue" points="762.59,-223.18 770.89,-216.6 760.29,-216.57 762.59,-223.18"/>
</g>
<!-- Node14 -->
<g id="node14" class="node">
<title>Node14</title>
<g id="a_node14"><a xlink:href="classsignal__easel_1_1BitStream.html#aa97152ef51f73088e103a7951134aa85" target="_top" xlink:title=" ">
<polygon fill="none" stroke="black" points="751.5,-284.5 751.5,-314.5 883.5,-314.5 883.5,-284.5 751.5,-284.5"/>
<text text-anchor="start" x="759.5" y="-302.5" font-family="Helvetica,sans-Serif" font-size="10.00">signal_easel::BitStream</text>
<text text-anchor="middle" x="817.5" y="-291.5" font-family="Helvetica,sans-Serif" font-size="10.00">::getBitStreamLength</text>
</a>
</g>
</g>
<!-- Node10&#45;&gt;Node14 -->
<g id="edge14" class="edge">
<title>Node10&#45;&gt;Node14</title>
<path fill="none" stroke="midnightblue" d="M675.62,-281.3C695.9,-283.92 719.48,-286.96 741.48,-289.81"/>
<polygon fill="midnightblue" stroke="midnightblue" points="741.09,-293.29 751.45,-291.1 741.98,-286.34 741.09,-293.29"/>
</g>
<!-- Node15 -->
<g id="node15" class="node">
<title>Node15</title>
<g id="a_node15"><a xlink:href="classsignal__easel_1_1BitStream.html#a5b5339586e09ca5c25a7e9ded0118ffb" target="_top" xlink:title="Returns the next bit of the bit stream that will be encoded.">
<polygon fill="none" stroke="black" points="751.5,-431.5 751.5,-461.5 883.5,-461.5 883.5,-431.5 751.5,-431.5"/>
<text text-anchor="start" x="759.5" y="-449.5" font-family="Helvetica,sans-Serif" font-size="10.00">signal_easel::BitStream</text>
<text text-anchor="middle" x="817.5" y="-438.5" font-family="Helvetica,sans-Serif" font-size="10.00">::popNextBit</text>
</a>
</g>
</g>
<!-- Node10&#45;&gt;Node15 -->
<g id="edge15" class="edge">
<title>Node10&#45;&gt;Node15</title>
<path fill="none" stroke="midnightblue" d="M636.43,-289.66C653.31,-308.85 682.97,-343.08 707,-373.5 723.75,-394.7 721.11,-406.66 743,-422.5 744.9,-423.87 746.88,-425.17 748.93,-426.4"/>
<polygon fill="midnightblue" stroke="midnightblue" points="747.76,-429.74 758.24,-431.33 751.04,-423.56 747.76,-429.74"/>
</g>
<!-- Node16 -->
<g id="node16" class="node">
<title>Node16</title>
<g id="a_node16"><a xlink:href="classsignal__easel_1_1BitStream.html#a278666dbf58a4792e4f77538ab72b4b6" target="_top" xlink:title="After adding all of the data to the bit stream, this method will write the data left in the buffer.">
<polygon fill="none" stroke="black" points="750.5,-137.5 750.5,-167.5 884.5,-167.5 884.5,-137.5 750.5,-137.5"/>
<text text-anchor="start" x="758.5" y="-155.5" font-family="Helvetica,sans-Serif" font-size="10.00">signal_easel::BitStream</text>
<text text-anchor="middle" x="817.5" y="-144.5" font-family="Helvetica,sans-Serif" font-size="10.00">::pushBufferToBitStream</text>
</a>
</g>
</g>
<!-- Node10&#45;&gt;Node16 -->
<g id="edge16" class="edge">
<title>Node10&#45;&gt;Node16</title>
<path fill="none" stroke="midnightblue" d="M638,-259.38C659.54,-238.42 701.24,-200.52 743,-177.5 746.89,-175.36 751,-173.35 755.2,-171.48"/>
<polygon fill="midnightblue" stroke="midnightblue" points="756.62,-174.68 764.51,-167.61 753.93,-168.22 756.62,-174.68"/>
</g>
<!-- Node12 -->
<g id="node12" class="node">
<title>Node12</title>
<g id="a_node12"><a xlink:href="classsignal__easel_1_1BitStream.html#a9df75eb28c03717c9fad2d30a85de6e6" target="_top" xlink:title=" ">
<polygon fill="none" stroke="black" points="945.5,-210.5 945.5,-240.5 1077.5,-240.5 1077.5,-210.5 945.5,-210.5"/>
<text text-anchor="start" x="953.5" y="-228.5" font-family="Helvetica,sans-Serif" font-size="10.00">signal_easel::BitStream</text>
<text text-anchor="middle" x="1011.5" y="-217.5" font-family="Helvetica,sans-Serif" font-size="10.00">::addBits</text>
</a>
</g>
</g>
<!-- Node11&#45;&gt;Node12 -->
<g id="edge11" class="edge">
<title>Node11&#45;&gt;Node12</title>
<path fill="none" stroke="midnightblue" d="M883.5,-242.04C900.14,-239.87 918.18,-237.52 935.29,-235.29"/>
<polygon fill="midnightblue" stroke="midnightblue" points="935.77,-238.76 945.24,-234 934.87,-231.82 935.77,-238.76"/>
</g>
<!-- Node13&#45;&gt;Node12 -->
<g id="edge13" class="edge">
<title>Node13&#45;&gt;Node12</title>
<path fill="none" stroke="midnightblue" d="M883.5,-209.63C900.14,-211.71 918.18,-213.96 935.29,-216.1"/>
<polygon fill="midnightblue" stroke="midnightblue" points="934.88,-219.57 945.24,-217.34 935.75,-212.63 934.88,-219.57"/>
</g>
<!-- Node17&#45;&gt;Node14 -->
<g id="edge18" class="edge">
<title>Node17&#45;&gt;Node14</title>
<path fill="none" stroke="midnightblue" d="M644.75,-382.26C668.19,-366.32 706.99,-341.33 743,-324.5 747.69,-322.31 752.62,-320.21 757.62,-318.23"/>
<polygon fill="midnightblue" stroke="midnightblue" points="759.17,-321.39 767.28,-314.57 756.69,-314.84 759.17,-321.39"/>
</g>
<!-- Node17&#45;&gt;Node15 -->
<g id="edge20" class="edge">
<title>Node17&#45;&gt;Node15</title>
<path fill="none" stroke="midnightblue" d="M675.62,-410.82C697.65,-416.4 723.57,-422.97 747.13,-428.93"/>
<polygon fill="midnightblue" stroke="midnightblue" points="746.51,-432.39 757.06,-431.45 748.23,-425.6 746.51,-432.39"/>
</g>
<!-- Node18 -->
<g id="node18" class="node">
<title>Node18</title>
<g id="a_node18"><a xlink:href="classsignal__easel_1_1BitStream.html#ad7b803a89b3a53ec1e4108122861a90b" target="_top" xlink:title="Returns the next bit of the bit stream without removing it.">
<polygon fill="none" stroke="black" points="751.5,-382.5 751.5,-412.5 883.5,-412.5 883.5,-382.5 751.5,-382.5"/>
<text text-anchor="start" x="759.5" y="-400.5" font-family="Helvetica,sans-Serif" font-size="10.00">signal_easel::BitStream</text>
<text text-anchor="middle" x="817.5" y="-389.5" font-family="Helvetica,sans-Serif" font-size="10.00">::peakNextBit</text>
</a>
</g>
</g>
<!-- Node17&#45;&gt;Node18 -->
<g id="edge19" class="edge">
<title>Node17&#45;&gt;Node18</title>
<path fill="none" stroke="midnightblue" d="M675.62,-397.5C695.81,-397.5 719.27,-397.5 741.18,-397.5"/>
<polygon fill="midnightblue" stroke="midnightblue" points="741.45,-401 751.45,-397.5 741.45,-394 741.45,-401"/>
</g>
<!-- Node19 -->
<g id="node19" class="node">
<title>Node19</title>
<g id="a_node19"><a xlink:href="namespacesignal__easel_1_1ax25.html#a464aaf0b31941db183dcd08d641a793c" target="_top" xlink:title=" ">
<polygon fill="none" stroke="black" points="764,-333.5 764,-363.5 871,-363.5 871,-333.5 764,-333.5"/>
<text text-anchor="start" x="772" y="-351.5" font-family="Helvetica,sans-Serif" font-size="10.00">signal_easel::ax25</text>
<text text-anchor="middle" x="817.5" y="-340.5" font-family="Helvetica,sans-Serif" font-size="10.00">::reverse_bits</text>
</a>
</g>
</g>
<!-- Node17&#45;&gt;Node19 -->
<g id="edge21" class="edge">
<title>Node17&#45;&gt;Node19</title>
<path fill="none" stroke="midnightblue" d="M675.62,-384.18C699.82,-378.05 728.72,-370.73 754.02,-364.32"/>
<polygon fill="midnightblue" stroke="midnightblue" points="755.06,-367.67 763.89,-361.82 753.34,-360.88 755.06,-367.67"/>
</g>
<!-- Node20&#45;&gt;Node14 -->
<g id="edge23" class="edge">
<title>Node20&#45;&gt;Node14</title>
<path fill="none" stroke="midnightblue" d="M675.79,-439.5C687.15,-435.92 698.33,-430.55 707,-422.5 741,-390.92 709.79,-356.91 743,-324.5 744.48,-323.05 746.05,-321.69 747.69,-320.4"/>
<polygon fill="midnightblue" stroke="midnightblue" points="750.02,-323.06 756.42,-314.61 746.15,-317.23 750.02,-323.06"/>
</g>
<!-- Node20&#45;&gt;Node15 -->
<g id="edge26" class="edge">
<title>Node20&#45;&gt;Node15</title>
<path fill="none" stroke="midnightblue" d="M675.62,-446.5C695.81,-446.5 719.27,-446.5 741.18,-446.5"/>
<polygon fill="midnightblue" stroke="midnightblue" points="741.45,-450 751.45,-446.5 741.45,-443 741.45,-450"/>
</g>
<!-- Node21 -->
<g id="node21" class="node">
<title>Node21</title>
<g id="a_node21"><a xlink:href="classsignal__easel_1_1BitStream.html#a4cf488a318e02146a94d58cbb540fe69" target="_top" xlink:title=" ">
<polygon fill="none" stroke="black" points="751.5,-529.5 751.5,-559.5 883.5,-559.5 883.5,-529.5 751.5,-529.5"/>
<text text-anchor="start" x="759.5" y="-547.5" font-family="Helvetica,sans-Serif" font-size="10.00">signal_easel::BitStream</text>
<text text-anchor="middle" x="817.5" y="-536.5" font-family="Helvetica,sans-Serif" font-size="10.00">::getBitVector</text>
</a>
</g>
</g>
<!-- Node20&#45;&gt;Node21 -->
<g id="edge24" class="edge">
<title>Node20&#45;&gt;Node21</title>
<path fill="none" stroke="midnightblue" d="M675.6,-456.47C686.59,-460.07 697.67,-464.93 707,-471.5 729.1,-487.05 721.11,-504.66 743,-520.5 744.9,-521.87 746.88,-523.17 748.93,-524.4"/>
<polygon fill="midnightblue" stroke="midnightblue" points="747.76,-527.74 758.24,-529.33 751.04,-521.56 747.76,-527.74"/>
</g>
<!-- Node22 -->
<g id="node22" class="node">
<title>Node22</title>
<g id="a_node22"><a xlink:href="classsignal__easel_1_1BitStream.html#a3212a6021fa0e315170f8654c8e1c103" target="_top" xlink:title=" ">
<polygon fill="none" stroke="black" points="751.5,-480.5 751.5,-510.5 883.5,-510.5 883.5,-480.5 751.5,-480.5"/>
<text text-anchor="start" x="759.5" y="-498.5" font-family="Helvetica,sans-Serif" font-size="10.00">signal_easel::BitStream</text>
<text text-anchor="middle" x="817.5" y="-487.5" font-family="Helvetica,sans-Serif" font-size="10.00">::peakNextByte</text>
</a>
</g>
</g>
<!-- Node20&#45;&gt;Node22 -->
<g id="edge25" class="edge">
<title>Node20&#45;&gt;Node22</title>
<path fill="none" stroke="midnightblue" d="M675.62,-459.82C697.65,-465.4 723.57,-471.97 747.13,-477.93"/>
<polygon fill="midnightblue" stroke="midnightblue" points="746.51,-481.39 757.06,-480.45 748.23,-474.6 746.51,-481.39"/>
</g>
<!-- Node23&#45;&gt;Node6 -->
<g id="edge28" class="edge">
<title>Node23&#45;&gt;Node6</title>
<path fill="none" stroke="midnightblue" d="M707.03,-593.5C718.78,-593.5 730.79,-593.5 742.34,-593.5"/>
<polygon fill="midnightblue" stroke="midnightblue" points="742.36,-597 752.36,-593.5 742.36,-590 742.36,-597"/>
</g>
<!-- Node24&#45;&gt;Node6 -->
<g id="edge30" class="edge">
<title>Node24&#45;&gt;Node6</title>
<path fill="none" stroke="midnightblue" d="M682.37,-559.53C702.9,-564.73 726.07,-570.6 747.31,-575.98"/>
<polygon fill="midnightblue" stroke="midnightblue" points="746.69,-579.43 757.24,-578.49 748.41,-572.65 746.69,-579.43"/>
</g>
<!-- Node26 -->
<g id="node26" class="node">
<title>Node26</title>
<g id="a_node26"><a xlink:href="classsignal__easel_1_1afsk_1_1Demodulator.html#a66398f52101a153c5158930c0584f161" target="_top" xlink:title="Takes the raw signal and converts it into the FSK baseband signal.">
<polygon fill="none" stroke="black" points="344.5,-214 344.5,-255 493.5,-255 493.5,-214 344.5,-214"/>
<text text-anchor="start" x="352.5" y="-243" font-family="Helvetica,sans-Serif" font-size="10.00">signal_easel::afsk</text>
<text text-anchor="start" x="352.5" y="-232" font-family="Helvetica,sans-Serif" font-size="10.00">::Demodulator::audioBuffer</text>
<text text-anchor="middle" x="419" y="-221" font-family="Helvetica,sans-Serif" font-size="10.00">ToBaseBandSignal</text>
</a>
</g>
</g>
<!-- Node25&#45;&gt;Node26 -->
<g id="edge32" class="edge">
<title>Node25&#45;&gt;Node26</title>
<path fill="none" stroke="midnightblue" d="M301.19,-234.5C311.95,-234.5 323.04,-234.5 333.9,-234.5"/>
<polygon fill="midnightblue" stroke="midnightblue" points="334.22,-238 344.22,-234.5 334.22,-231 334.22,-238"/>
</g>
<!-- Node34 -->
<g id="node34" class="node">
<title>Node34</title>
<g id="a_node34"><a xlink:href="classsignal__easel_1_1afsk_1_1Demodulator.html#afa479089583504851b2a4a767e397458" target="_top" xlink:title="Takes the base band signal and converts it into a bit stream if the signal is valid.">
<polygon fill="none" stroke="black" points="337,-154 337,-195 501,-195 501,-154 337,-154"/>
<text text-anchor="start" x="345" y="-183" font-family="Helvetica,sans-Serif" font-size="10.00">signal_easel::afsk</text>
<text text-anchor="start" x="345" y="-172" font-family="Helvetica,sans-Serif" font-size="10.00">::Demodulator::baseBandToBit</text>
<text text-anchor="middle" x="419" y="-161" font-family="Helvetica,sans-Serif" font-size="10.00">Stream</text>
</a>
</g>
</g>
<!-- Node25&#45;&gt;Node34 -->
<g id="edge40" class="edge">
<title>Node25&#45;&gt;Node34</title>
<path fill="none" stroke="midnightblue" d="M289.84,-213.94C306.42,-208.83 324.33,-203.32 341.35,-198.08"/>
<polygon fill="midnightblue" stroke="midnightblue" points="342.72,-201.32 351.25,-195.04 340.67,-194.63 342.72,-201.32"/>
</g>
<!-- Node27 -->
<g id="node27" class="node">
<title>Node27</title>
<g id="a_node27"><a xlink:href="namespacesignal__easel.html#a62db979f7f4a67d6a7d263788813e1b9" target="_top" xlink:title="A band&#45;pass filter implementation.">
<polygon fill="none" stroke="black" points="545,-72 545,-91 699,-91 699,-72 545,-72"/>
<text text-anchor="middle" x="622" y="-79" font-family="Helvetica,sans-Serif" font-size="10.00">signal_easel::bandPassFilter</text>
</a>
</g>
</g>
<!-- Node26&#45;&gt;Node27 -->
<g id="edge33" class="edge">
<title>Node26&#45;&gt;Node27</title>
<path fill="none" stroke="midnightblue" d="M484.1,-213.85C489.99,-211.04 495.72,-207.93 501,-204.5 546.2,-175.13 587.38,-125.94 607.69,-99.54"/>
<polygon fill="midnightblue" stroke="midnightblue" points="610.74,-101.31 613.98,-91.23 605.16,-97.09 610.74,-101.31"/>
</g>
<!-- Node28 -->
<g id="node28" class="node">
<title>Node28</title>
<g id="a_node28"><a xlink:href="namespacesignal__easel.html#ab828fd4a325ae3f35f6c4c707ffb6886" target="_top" xlink:title=" ">
<polygon fill="none" stroke="black" points="744.5,-0.5 744.5,-30.5 890.5,-30.5 890.5,-0.5 744.5,-0.5"/>
<text text-anchor="start" x="752.5" y="-18.5" font-family="Helvetica,sans-Serif" font-size="10.00">signal_easel::computeDen</text>
<text text-anchor="middle" x="817.5" y="-7.5" font-family="Helvetica,sans-Serif" font-size="10.00">Coeffs</text>
</a>
</g>
</g>
<!-- Node27&#45;&gt;Node28 -->
<g id="edge34" class="edge">
<title>Node27&#45;&gt;Node28</title>
<path fill="none" stroke="midnightblue" d="M651.12,-71.88C675.44,-63.56 711.53,-51.23 743,-40.5 749.34,-38.34 755.99,-36.07 762.6,-33.83"/>
<polygon fill="midnightblue" stroke="midnightblue" points="763.85,-37.1 772.19,-30.56 761.59,-30.47 763.85,-37.1"/>
</g>
<!-- Node30 -->
<g id="node30" class="node">
<title>Node30</title>
<g id="a_node30"><a xlink:href="namespacesignal__easel.html#a61e5160a96fbff531fdbecf3737f80b9" target="_top" xlink:title=" ">
<polygon fill="none" stroke="black" points="743,-88.5 743,-118.5 892,-118.5 892,-88.5 743,-88.5"/>
<text text-anchor="start" x="751" y="-106.5" font-family="Helvetica,sans-Serif" font-size="10.00">signal_easel::computeNum</text>
<text text-anchor="middle" x="817.5" y="-95.5" font-family="Helvetica,sans-Serif" font-size="10.00">Coeffs</text>
</a>
</g>
</g>
<!-- Node27&#45;&gt;Node30 -->
<g id="edge36" class="edge">
<title>Node27&#45;&gt;Node30</title>
<path fill="none" stroke="midnightblue" d="M699.2,-90.16C710.21,-91.42 721.6,-92.71 732.75,-93.98"/>
<polygon fill="midnightblue" stroke="midnightblue" points="732.57,-97.48 742.9,-95.13 733.36,-90.52 732.57,-97.48"/>
</g>
<!-- Node33 -->
<g id="node33" class="node">
<title>Node33</title>
<g id="a_node33"><a xlink:href="namespacesignal__easel.html#a24d8e6d8aa467d22058b77158b2f137a" target="_top" xlink:title=" ">
<polygon fill="none" stroke="black" points="764.5,-50 764.5,-69 870.5,-69 870.5,-50 764.5,-50"/>
<text text-anchor="middle" x="817.5" y="-57" font-family="Helvetica,sans-Serif" font-size="10.00">signal_easel::filter</text>
</a>
</g>
</g>
<!-- Node27&#45;&gt;Node33 -->
<g id="edge39" class="edge">
<title>Node27&#45;&gt;Node33</title>
<path fill="none" stroke="midnightblue" d="M699.2,-72.84C717.41,-70.77 736.64,-68.58 754.15,-66.59"/>
<polygon fill="midnightblue" stroke="midnightblue" points="754.69,-70.05 764.23,-65.44 753.9,-63.09 754.69,-70.05"/>
</g>
<!-- Node29 -->
<g id="node29" class="node">
<title>Node29</title>
<g id="a_node29"><a xlink:href="namespacesignal__easel.html#a52622d8b5a12dedeb59e5442e887a8e5" target="_top" xlink:title=" ">
<polygon fill="none" stroke="black" points="928,-6 928,-25 1095,-25 1095,-6 928,-6"/>
<text text-anchor="middle" x="1011.5" y="-13" font-family="Helvetica,sans-Serif" font-size="10.00">signal_easel::trinomialMultiply</text>
</a>
</g>
</g>
<!-- Node28&#45;&gt;Node29 -->
<g id="edge35" class="edge">
<title>Node28&#45;&gt;Node29</title>
<path fill="none" stroke="midnightblue" d="M890.54,-15.5C899.35,-15.5 908.45,-15.5 917.52,-15.5"/>
<polygon fill="midnightblue" stroke="midnightblue" points="917.72,-19 927.72,-15.5 917.72,-12 917.72,-19"/>
</g>
<!-- Node31 -->
<g id="node31" class="node">
<title>Node31</title>
<g id="a_node31"><a xlink:href="namespacesignal__easel.html#aec86a114666943d1400f780edb69eab0" target="_top" xlink:title=" ">
<polygon fill="none" stroke="black" points="941.5,-94 941.5,-113 1081.5,-113 1081.5,-94 941.5,-94"/>
<text text-anchor="middle" x="1011.5" y="-101" font-family="Helvetica,sans-Serif" font-size="10.00">signal_easel::computeHP</text>
</a>
</g>
</g>
<!-- Node30&#45;&gt;Node31 -->
<g id="edge37" class="edge">
<title>Node30&#45;&gt;Node31</title>
<path fill="none" stroke="midnightblue" d="M892.18,-103.5C904.95,-103.5 918.27,-103.5 931.18,-103.5"/>
<polygon fill="midnightblue" stroke="midnightblue" points="931.43,-107 941.43,-103.5 931.43,-100 931.43,-107"/>
</g>
<!-- Node32 -->
<g id="node32" class="node">
<title>Node32</title>
<g id="a_node32"><a xlink:href="namespacesignal__easel.html#a6049a00d790189b698bd2dfb04885a31" target="_top" xlink:title=" ">
<polygon fill="none" stroke="black" points="1131,-94 1131,-113 1268,-113 1268,-94 1131,-94"/>
<text text-anchor="middle" x="1199.5" y="-101" font-family="Helvetica,sans-Serif" font-size="10.00">signal_easel::computeLP</text>
</a>
</g>
</g>
<!-- Node31&#45;&gt;Node32 -->
<g id="edge38" class="edge">
<title>Node31&#45;&gt;Node32</title>
<path fill="none" stroke="midnightblue" d="M1081.76,-103.5C1094.39,-103.5 1107.65,-103.5 1120.52,-103.5"/>
<polygon fill="midnightblue" stroke="midnightblue" points="1120.73,-107 1130.73,-103.5 1120.73,-100 1120.73,-107"/>
</g>
</g>
</svg>
