<?xml version="1.0" encoding="UTF-8" standalone="no"?>
<!DOCTYPE svg PUBLIC "-//W3C//DTD SVG 1.1//EN"
 "http://www.w3.org/Graphics/SVG/1.1/DTD/svg11.dtd">
<!-- Generated by graphviz version 2.43.0 (0)
 -->
<!-- Title: signal_easel::afsk::Demodulator Pages: 1 -->
<svg width="829pt" height="634pt"
 viewBox="0.00 0.00 829.00 634.00" xmlns="http://www.w3.org/2000/svg" xmlns:xlink="http://www.w3.org/1999/xlink">
<g id="graph0" class="graph" transform="scale(1 1) rotate(0) translate(4 630)">
<title>signal_easel::afsk::Demodulator</title>
<!-- Node1 -->
<g id="node1" class="node">
<title>Node1</title>
<g id="a_node1"><a xlink:title="Demodulates an AFSK signal into data.">
<polygon fill="#bfbfbf" stroke="black" points="390,-0.5 390,-123.5 566,-123.5 566,-0.5 390,-0.5"/>
<text text-anchor="start" x="398" y="-111.5" font-family="Helvetica,sans-Serif" font-size="10.00">signal_easel::afsk</text>
<text text-anchor="middle" x="478" y="-100.5" font-family="Helvetica,sans-Serif" font-size="10.00">::Demodulator</text>
<polyline fill="none" stroke="black" points="390,-93.5 566,-93.5 "/>
<text text-anchor="middle" x="478" y="-81.5" font-family="Helvetica,sans-Serif" font-size="10.00"> </text>
<polyline fill="none" stroke="black" points="390,-74.5 566,-74.5 "/>
<text text-anchor="start" x="398" y="-62.5" font-family="Helvetica,sans-Serif" font-size="10.00">+ Demodulator()</text>
<text text-anchor="start" x="398" y="-51.5" font-family="Helvetica,sans-Serif" font-size="10.00">+ ~Demodulator()</text>
<text text-anchor="start" x="398" y="-40.5" font-family="Helvetica,sans-Serif" font-size="10.00">+ lookForString()</text>
<text text-anchor="start" x="398" y="-29.5" font-family="Helvetica,sans-Serif" font-size="10.00">+ processAudioBuffer()</text>
<text text-anchor="start" x="398" y="-18.5" font-family="Helvetica,sans-Serif" font-size="10.00">&#45; audioBufferToBaseBandSignal()</text>
<text text-anchor="start" x="398" y="-7.5" font-family="Helvetica,sans-Serif" font-size="10.00">&#45; baseBandToBitStream()</text>
</a>
</g>
</g>
<!-- Node2 -->
<g id="node2" class="node">
<title>Node2</title>
<g id="a_node2"><a xlink:href="classsignal__easel_1_1Demodulator.html" target="_top" xlink:title="The base class for all demodulators that turn audio into data.">
<polygon fill="none" stroke="black" points="301.5,-215.5 301.5,-316.5 448.5,-316.5 448.5,-215.5 301.5,-215.5"/>
<text text-anchor="middle" x="375" y="-304.5" font-family="Helvetica,sans-Serif" font-size="10.00">signal_easel::Demodulator</text>
<polyline fill="none" stroke="black" points="301.5,-297.5 448.5,-297.5 "/>
<text text-anchor="middle" x="375" y="-285.5" font-family="Helvetica,sans-Serif" font-size="10.00"> </text>
<polyline fill="none" stroke="black" points="301.5,-278.5 448.5,-278.5 "/>
<text text-anchor="start" x="309.5" y="-266.5" font-family="Helvetica,sans-Serif" font-size="10.00">+ Demodulator()</text>
<text text-anchor="start" x="309.5" y="-255.5" font-family="Helvetica,sans-Serif" font-size="10.00">+ ~Demodulator()</text>
<text text-anchor="start" x="309.5" y="-244.5" font-family="Helvetica,sans-Serif" font-size="10.00">+ clearBuffer()</text>
<text text-anchor="start" x="309.5" y="-233.5" font-family="Helvetica,sans-Serif" font-size="10.00">+ loadAudioFromFile()</text>
<text text-anchor="start" x="309.5" y="-222.5" font-family="Helvetica,sans-Serif" font-size="10.00"># getAudioBuffer()</text>
</a>
</g>
</g>
<!-- Node2&#45;&gt;Node1 -->
<g id="edge1" class="edge">
<title>Node2&#45;&gt;Node1</title>
<path fill="none" stroke="midnightblue" d="M404.91,-206.35C418.15,-180.38 433.71,-149.86 447.07,-123.67"/>
<polygon fill="none" stroke="midnightblue" points="401.75,-204.83 400.33,-215.33 407.99,-208.01 401.75,-204.83"/>
</g>
<!-- Node3 -->
<g id="node3" class="node">
<title>Node3</title>
<g id="a_node3"><a xlink:href="structsignal__easel_1_1Settings.html" target="_top" xlink:title="The universal settings for MWAV.">
<polygon fill="none" stroke="black" points="201.5,-441.5 201.5,-498.5 324.5,-498.5 324.5,-441.5 201.5,-441.5"/>
<text text-anchor="middle" x="263" y="-486.5" font-family="Helvetica,sans-Serif" font-size="10.00">signal_easel::Settings</text>
<polyline fill="none" stroke="black" points="201.5,-479.5 324.5,-479.5 "/>
<text text-anchor="middle" x="263" y="-467.5" font-family="Helvetica,sans-Serif" font-size="10.00"> </text>
<polyline fill="none" stroke="black" points="201.5,-460.5 324.5,-460.5 "/>
<text text-anchor="middle" x="263" y="-448.5" font-family="Helvetica,sans-Serif" font-size="10.00"> </text>
</a>
</g>
</g>
<!-- Node3&#45;&gt;Node2 -->
<g id="edge2" class="edge">
<title>Node3&#45;&gt;Node2</title>
<path fill="none" stroke="#404040" d="M278.34,-441.34C294.48,-412.23 320.4,-365.48 341.33,-327.72"/>
<polygon fill="none" stroke="#404040" points="341.55,-327.32 340.97,-320.14 347.37,-316.83 347.96,-324.01 341.55,-327.32"/>
<text text-anchor="middle" x="341" y="-398.5" font-family="Helvetica,sans-Serif" font-size="10.00"> #settings_</text>
</g>
<!-- Node13 -->
<g id="node13" class="node">
<title>Node13</title>
<g id="a_node13"><a xlink:href="structsignal__easel_1_1afsk_1_1Settings.html" target="_top" xlink:title="Settings for AFSK modulation/demodulation.">
<polygon fill="none" stroke="black" points="141,-232 141,-300 245,-300 245,-232 141,-232"/>
<text text-anchor="start" x="149" y="-288" font-family="Helvetica,sans-Serif" font-size="10.00">signal_easel::afsk</text>
<text text-anchor="middle" x="193" y="-277" font-family="Helvetica,sans-Serif" font-size="10.00">::Settings</text>
<polyline fill="none" stroke="black" points="141,-270 245,-270 "/>
<text text-anchor="middle" x="193" y="-258" font-family="Helvetica,sans-Serif" font-size="10.00"> </text>
<polyline fill="none" stroke="black" points="141,-251 245,-251 "/>
<text text-anchor="middle" x="193" y="-239" font-family="Helvetica,sans-Serif" font-size="10.00"> </text>
</a>
</g>
</g>
<!-- Node3&#45;&gt;Node13 -->
<g id="edge13" class="edge">
<title>Node3&#45;&gt;Node13</title>
<path fill="none" stroke="midnightblue" d="M262.55,-431C261.5,-414.7 259.13,-395.62 254,-379 245.32,-350.86 229.19,-321.73 215.7,-300.23"/>
<polygon fill="none" stroke="midnightblue" points="259.06,-431.45 263.06,-441.26 266.06,-431.1 259.06,-431.45"/>
</g>
<!-- Node4 -->
<g id="node4" class="node">
<title>Node4</title>
<g id="a_node4"><a xlink:title=" ">
<polygon fill="none" stroke="black" points="159,-568.5 159,-625.5 203,-625.5 203,-568.5 159,-568.5"/>
<text text-anchor="middle" x="181" y="-613.5" font-family="Helvetica,sans-Serif" font-size="10.00">string</text>
<polyline fill="none" stroke="black" points="159,-606.5 203,-606.5 "/>
<text text-anchor="middle" x="181" y="-594.5" font-family="Helvetica,sans-Serif" font-size="10.00"> </text>
<polyline fill="none" stroke="black" points="159,-587.5 203,-587.5 "/>
<text text-anchor="middle" x="181" y="-575.5" font-family="Helvetica,sans-Serif" font-size="10.00"> </text>
</a>
</g>
</g>
<!-- Node4&#45;&gt;Node3 -->
<g id="edge3" class="edge">
<title>Node4&#45;&gt;Node3</title>
<path fill="none" stroke="#404040" d="M184.73,-568.22C187.9,-552.19 193.66,-532.25 204,-517 206.33,-513.56 209,-510.27 211.89,-507.13"/>
<polygon fill="none" stroke="#404040" points="211.91,-507.11 213.41,-500.06 220.49,-498.73 218.99,-505.78 211.91,-507.11"/>
<text text-anchor="middle" x="231.5" y="-531" font-family="Helvetica,sans-Serif" font-size="10.00"> +call_sign</text>
</g>
<!-- Node5 -->
<g id="node5" class="node">
<title>Node5</title>
<g id="a_node5"><a xlink:title=" ">
<polygon fill="none" stroke="black" points="221.5,-568.5 221.5,-625.5 304.5,-625.5 304.5,-568.5 221.5,-568.5"/>
<text text-anchor="middle" x="263" y="-613.5" font-family="Helvetica,sans-Serif" font-size="10.00">CallSignMode</text>
<polyline fill="none" stroke="black" points="221.5,-606.5 304.5,-606.5 "/>
<text text-anchor="middle" x="263" y="-594.5" font-family="Helvetica,sans-Serif" font-size="10.00"> </text>
<polyline fill="none" stroke="black" points="221.5,-587.5 304.5,-587.5 "/>
<text text-anchor="middle" x="263" y="-575.5" font-family="Helvetica,sans-Serif" font-size="10.00"> </text>
</a>
</g>
</g>
<!-- Node5&#45;&gt;Node3 -->
<g id="edge4" class="edge">
<title>Node5&#45;&gt;Node3</title>
<path fill="none" stroke="#404040" d="M263,-568.26C263,-551.35 263,-529.46 263,-510.73"/>
<polygon fill="none" stroke="#404040" points="263,-510.66 259,-504.66 263,-498.66 267,-504.66 263,-510.66"/>
<text text-anchor="middle" x="307" y="-531" font-family="Helvetica,sans-Serif" font-size="10.00"> +call_sign_mode</text>
</g>
<!-- Node6 -->
<g id="node6" class="node">
<title>Node6</title>
<g id="a_node6"><a xlink:title=" ">
<polygon fill="none" stroke="black" points="349,-568.5 349,-625.5 399,-625.5 399,-568.5 349,-568.5"/>
<text text-anchor="middle" x="374" y="-613.5" font-family="Helvetica,sans-Serif" font-size="10.00">double</text>
<polyline fill="none" stroke="black" points="349,-606.5 399,-606.5 "/>
<text text-anchor="middle" x="374" y="-594.5" font-family="Helvetica,sans-Serif" font-size="10.00"> </text>
<polyline fill="none" stroke="black" points="349,-587.5 399,-587.5 "/>
<text text-anchor="middle" x="374" y="-575.5" font-family="Helvetica,sans-Serif" font-size="10.00"> </text>
</a>
</g>
</g>
<!-- Node6&#45;&gt;Node3 -->
<g id="edge5" class="edge">
<title>Node6&#45;&gt;Node3</title>
<path fill="none" stroke="#404040" d="M371.8,-568.24C369.25,-551.82 363.77,-531.47 352,-517 347.18,-511.07 341.38,-505.81 335.1,-501.18"/>
<polygon fill="none" stroke="#404040" points="334.88,-501.04 327.67,-501.06 324.88,-494.41 332.09,-494.39 334.88,-501.04"/>
<text text-anchor="middle" x="411" y="-542" font-family="Helvetica,sans-Serif" font-size="10.00"> +amplitude</text>
<text text-anchor="start" x="368" y="-531" font-family="Helvetica,sans-Serif" font-size="10.00">+call_sign_pause</text>
<text text-anchor="middle" x="411" y="-520" font-family="Helvetica,sans-Serif" font-size="10.00">_seconds</text>
</g>
<!-- Node7 -->
<g id="node7" class="node">
<title>Node7</title>
<g id="a_node7"><a xlink:title=" ">
<polygon fill="none" stroke="black" points="343,-441.5 343,-498.5 447,-498.5 447,-441.5 343,-441.5"/>
<text text-anchor="middle" x="395" y="-486.5" font-family="Helvetica,sans-Serif" font-size="10.00">vector&lt; int16_t &gt;</text>
<polyline fill="none" stroke="black" points="343,-479.5 447,-479.5 "/>
<text text-anchor="middle" x="395" y="-467.5" font-family="Helvetica,sans-Serif" font-size="10.00"> </text>
<polyline fill="none" stroke="black" points="343,-460.5 447,-460.5 "/>
<text text-anchor="middle" x="395" y="-448.5" font-family="Helvetica,sans-Serif" font-size="10.00"> </text>
</a>
</g>
</g>
<!-- Node7&#45;&gt;Node2 -->
<g id="edge6" class="edge">
<title>Node7&#45;&gt;Node2</title>
<path fill="none" stroke="#404040" d="M392.26,-441.34C389.42,-412.6 384.87,-366.68 381.16,-329.18"/>
<polygon fill="none" stroke="#404040" points="381.12,-328.77 376.54,-323.19 379.93,-316.83 384.51,-322.4 381.12,-328.77"/>
<text text-anchor="middle" x="430" y="-398.5" font-family="Helvetica,sans-Serif" font-size="10.00"> #audio_buffer_</text>
</g>
<!-- Node8 -->
<g id="node8" class="node">
<title>Node8</title>
<g id="a_node8"><a xlink:href="classsignal__easel_1_1BitStream.html" target="_top" xlink:title=" ">
<polygon fill="none" stroke="black" points="466.5,-171.5 466.5,-360.5 613.5,-360.5 613.5,-171.5 466.5,-171.5"/>
<text text-anchor="middle" x="540" y="-348.5" font-family="Helvetica,sans-Serif" font-size="10.00">signal_easel::BitStream</text>
<polyline fill="none" stroke="black" points="466.5,-341.5 613.5,-341.5 "/>
<text text-anchor="middle" x="540" y="-329.5" font-family="Helvetica,sans-Serif" font-size="10.00"> </text>
<polyline fill="none" stroke="black" points="466.5,-322.5 613.5,-322.5 "/>
<text text-anchor="start" x="474.5" y="-310.5" font-family="Helvetica,sans-Serif" font-size="10.00">+ addBits()</text>
<text text-anchor="start" x="474.5" y="-299.5" font-family="Helvetica,sans-Serif" font-size="10.00">+ addOneBit()</text>
<text text-anchor="start" x="474.5" y="-288.5" font-family="Helvetica,sans-Serif" font-size="10.00">+ addZeroBit()</text>
<text text-anchor="start" x="474.5" y="-277.5" font-family="Helvetica,sans-Serif" font-size="10.00">+ clear()</text>
<text text-anchor="start" x="474.5" y="-266.5" font-family="Helvetica,sans-Serif" font-size="10.00">+ dumpBitStream()</text>
<text text-anchor="start" x="474.5" y="-255.5" font-family="Helvetica,sans-Serif" font-size="10.00">+ dumpBitStreamAsAscii()</text>
<text text-anchor="start" x="474.5" y="-244.5" font-family="Helvetica,sans-Serif" font-size="10.00">+ dumpBitStreamAsHex()</text>
<text text-anchor="start" x="474.5" y="-233.5" font-family="Helvetica,sans-Serif" font-size="10.00">+ getBitStreamLength()</text>
<text text-anchor="start" x="474.5" y="-222.5" font-family="Helvetica,sans-Serif" font-size="10.00">+ getBitVector()</text>
<text text-anchor="start" x="474.5" y="-211.5" font-family="Helvetica,sans-Serif" font-size="10.00">+ peakNextBit()</text>
<text text-anchor="start" x="474.5" y="-200.5" font-family="Helvetica,sans-Serif" font-size="10.00">+ peakNextByte()</text>
<text text-anchor="start" x="474.5" y="-189.5" font-family="Helvetica,sans-Serif" font-size="10.00">+ popNextBit()</text>
<text text-anchor="start" x="474.5" y="-178.5" font-family="Helvetica,sans-Serif" font-size="10.00">+ pushBufferToBitStream()</text>
</a>
</g>
</g>
<!-- Node8&#45;&gt;Node1 -->
<g id="edge7" class="edge">
<title>Node8&#45;&gt;Node1</title>
<path fill="none" stroke="#404040" d="M511.27,-171.39C507.54,-159.24 503.76,-146.94 500.16,-135.21"/>
<polygon fill="none" stroke="#404040" points="500.15,-135.17 494.57,-130.61 496.63,-123.7 502.21,-128.26 500.15,-135.17"/>
<text text-anchor="middle" x="558" y="-145" font-family="Helvetica,sans-Serif" font-size="10.00"> #output_bit_stream_</text>
</g>
<!-- Node9 -->
<g id="node9" class="node">
<title>Node9</title>
<g id="a_node9"><a xlink:title=" ">
<polygon fill="none" stroke="black" points="465,-441.5 465,-498.5 575,-498.5 575,-441.5 465,-441.5"/>
<text text-anchor="middle" x="520" y="-486.5" font-family="Helvetica,sans-Serif" font-size="10.00">vector&lt; uint32_t &gt;</text>
<polyline fill="none" stroke="black" points="465,-479.5 575,-479.5 "/>
<text text-anchor="middle" x="520" y="-467.5" font-family="Helvetica,sans-Serif" font-size="10.00"> </text>
<polyline fill="none" stroke="black" points="465,-460.5 575,-460.5 "/>
<text text-anchor="middle" x="520" y="-448.5" font-family="Helvetica,sans-Serif" font-size="10.00"> </text>
</a>
</g>
</g>
<!-- Node9&#45;&gt;Node8 -->
<g id="edge8" class="edge">
<title>Node9&#45;&gt;Node8</title>
<path fill="none" stroke="#404040" d="M519.19,-441.37C518.94,-423.54 519.13,-399.85 521,-379 521.18,-376.94 521.39,-374.86 521.6,-372.77"/>
<polygon fill="none" stroke="#404040" points="521.62,-372.58 518.34,-366.17 523,-360.66 526.28,-367.08 521.62,-372.58"/>
<text text-anchor="middle" x="553.5" y="-398.5" font-family="Helvetica,sans-Serif" font-size="10.00"> &#45;bit_stream_</text>
</g>
<!-- Node10 -->
<g id="node10" class="node">
<title>Node10</title>
<g id="a_node10"><a xlink:title=" ">
<polygon fill="none" stroke="black" points="593.5,-441.5 593.5,-498.5 622.5,-498.5 622.5,-441.5 593.5,-441.5"/>
<text text-anchor="middle" x="608" y="-486.5" font-family="Helvetica,sans-Serif" font-size="10.00">int</text>
<polyline fill="none" stroke="black" points="593.5,-479.5 622.5,-479.5 "/>
<text text-anchor="middle" x="608" y="-467.5" font-family="Helvetica,sans-Serif" font-size="10.00"> </text>
<polyline fill="none" stroke="black" points="593.5,-460.5 622.5,-460.5 "/>
<text text-anchor="middle" x="608" y="-448.5" font-family="Helvetica,sans-Serif" font-size="10.00"> </text>
</a>
</g>
</g>
<!-- Node10&#45;&gt;Node8 -->
<g id="edge9" class="edge">
<title>Node10&#45;&gt;Node8</title>
<path fill="none" stroke="#404040" d="M602.32,-441.13C598.39,-423.19 592.67,-399.5 586,-379 585.27,-376.75 584.51,-374.48 583.73,-372.2"/>
<polygon fill="none" stroke="#404040" points="583.68,-372.04 577.91,-367.71 579.69,-360.73 585.46,-365.06 583.68,-372.04"/>
<text text-anchor="middle" x="646.5" y="-415" font-family="Helvetica,sans-Serif" font-size="10.00"> &#45;bit_stream_index_</text>
<text text-anchor="start" x="598" y="-404" font-family="Helvetica,sans-Serif" font-size="10.00">&#45;bit_stream_length</text>
<text text-anchor="middle" x="646.5" y="-393" font-family="Helvetica,sans-Serif" font-size="10.00">_</text>
<text text-anchor="middle" x="646.5" y="-382" font-family="Helvetica,sans-Serif" font-size="10.00">&#45;bit_stream_offset_</text>
</g>
<!-- Node11 -->
<g id="node11" class="node">
<title>Node11</title>
<g id="a_node11"><a xlink:title=" ">
<polygon fill="none" stroke="black" points="700,-441.5 700,-498.5 756,-498.5 756,-441.5 700,-441.5"/>
<text text-anchor="middle" x="728" y="-486.5" font-family="Helvetica,sans-Serif" font-size="10.00">uint32_t</text>
<polyline fill="none" stroke="black" points="700,-479.5 756,-479.5 "/>
<text text-anchor="middle" x="728" y="-467.5" font-family="Helvetica,sans-Serif" font-size="10.00"> </text>
<polyline fill="none" stroke="black" points="700,-460.5 756,-460.5 "/>
<text text-anchor="middle" x="728" y="-448.5" font-family="Helvetica,sans-Serif" font-size="10.00"> </text>
</a>
</g>
</g>
<!-- Node11&#45;&gt;Node8 -->
<g id="edge10" class="edge">
<title>Node11&#45;&gt;Node8</title>
<path fill="none" stroke="#404040" d="M726.12,-441.19C723.27,-421.15 716.24,-394.93 699,-379 675.99,-357.75 656.87,-374.72 624.61,-360.6"/>
<polygon fill="none" stroke="#404040" points="624.27,-360.42 617.1,-361.17 613.65,-354.84 620.82,-354.09 624.27,-360.42"/>
<text text-anchor="middle" x="771.5" y="-398.5" font-family="Helvetica,sans-Serif" font-size="10.00"> &#45;bit_stream_buffer_</text>
</g>
<!-- Node12 -->
<g id="node12" class="node">
<title>Node12</title>
<g id="a_node12"><a xlink:title=" ">
<polygon fill="none" stroke="black" points="632,-237.5 632,-294.5 736,-294.5 736,-237.5 632,-237.5"/>
<text text-anchor="middle" x="684" y="-282.5" font-family="Helvetica,sans-Serif" font-size="10.00">vector&lt; uint8_t &gt;</text>
<polyline fill="none" stroke="black" points="632,-275.5 736,-275.5 "/>
<text text-anchor="middle" x="684" y="-263.5" font-family="Helvetica,sans-Serif" font-size="10.00"> </text>
<polyline fill="none" stroke="black" points="632,-256.5 736,-256.5 "/>
<text text-anchor="middle" x="684" y="-244.5" font-family="Helvetica,sans-Serif" font-size="10.00"> </text>
</a>
</g>
</g>
<!-- Node12&#45;&gt;Node1 -->
<g id="edge11" class="edge">
<title>Node12&#45;&gt;Node1</title>
<path fill="none" stroke="#404040" d="M673.57,-237.33C662.35,-210.43 642.36,-169.69 615,-142 603.66,-130.53 590.32,-120.16 576.48,-111"/>
<polygon fill="none" stroke="#404040" points="576.46,-110.98 569.25,-111.13 566.34,-104.54 573.55,-104.39 576.46,-110.98"/>
<text text-anchor="middle" x="672" y="-145" font-family="Helvetica,sans-Serif" font-size="10.00"> &#45;base_band_signal_</text>
</g>
<!-- Node13&#45;&gt;Node1 -->
<g id="edge12" class="edge">
<title>Node13&#45;&gt;Node1</title>
<path fill="none" stroke="#404040" d="M224.29,-231.64C242.97,-212.68 267.72,-189.18 292,-171 319.02,-150.77 350.15,-131.36 379.12,-114.71"/>
<polygon fill="none" stroke="#404040" points="379.25,-114.64 382.49,-108.19 389.68,-108.71 386.44,-115.15 379.25,-114.64"/>
<text text-anchor="middle" x="370" y="-145" font-family="Helvetica,sans-Serif" font-size="10.00"> &#45;afsk_settings_</text>
</g>
<!-- Node14 -->
<g id="node14" class="node">
<title>Node14</title>
<g id="a_node14"><a xlink:title=" ">
<polygon fill="none" stroke="black" points="0,-441.5 0,-498.5 74,-498.5 74,-441.5 0,-441.5"/>
<text text-anchor="middle" x="37" y="-486.5" font-family="Helvetica,sans-Serif" font-size="10.00">BitEncoding</text>
<polyline fill="none" stroke="black" points="0,-479.5 74,-479.5 "/>
<text text-anchor="middle" x="37" y="-467.5" font-family="Helvetica,sans-Serif" font-size="10.00"> </text>
<polyline fill="none" stroke="black" points="0,-460.5 74,-460.5 "/>
<text text-anchor="middle" x="37" y="-448.5" font-family="Helvetica,sans-Serif" font-size="10.00"> </text>
</a>
</g>
</g>
<!-- Node14&#45;&gt;Node13 -->
<g id="edge14" class="edge">
<title>Node14&#45;&gt;Node13</title>
<path fill="none" stroke="#404040" d="M36.94,-441.26C38.04,-422.51 41.82,-397.83 53,-379 71.62,-347.66 102.5,-321.55 130.53,-302.45"/>
<polygon fill="none" stroke="#404040" points="130.69,-302.35 133.49,-295.7 140.7,-295.73 137.9,-302.38 130.69,-302.35"/>
<text text-anchor="middle" x="90" y="-398.5" font-family="Helvetica,sans-Serif" font-size="10.00"> +bit_encoding</text>
</g>
<!-- Node15 -->
<g id="node15" class="node">
<title>Node15</title>
<g id="a_node15"><a xlink:title=" ">
<polygon fill="none" stroke="black" points="115,-441.5 115,-498.5 153,-498.5 153,-441.5 115,-441.5"/>
<text text-anchor="middle" x="134" y="-486.5" font-family="Helvetica,sans-Serif" font-size="10.00">bool</text>
<polyline fill="none" stroke="black" points="115,-479.5 153,-479.5 "/>
<text text-anchor="middle" x="134" y="-467.5" font-family="Helvetica,sans-Serif" font-size="10.00"> </text>
<polyline fill="none" stroke="black" points="115,-460.5 153,-460.5 "/>
<text text-anchor="middle" x="134" y="-448.5" font-family="Helvetica,sans-Serif" font-size="10.00"> </text>
</a>
</g>
</g>
<!-- Node15&#45;&gt;Node13 -->
<g id="edge15" class="edge">
<title>Node15&#45;&gt;Node13</title>
<path fill="none" stroke="#404040" d="M131.04,-441.41C129.9,-423.38 129.89,-399.47 135,-379 140.95,-355.16 152.83,-330.7 164.29,-310.74"/>
<polygon fill="none" stroke="#404040" points="164.45,-310.47 164.08,-303.27 170.58,-300.15 170.96,-307.35 164.45,-310.47"/>
<text text-anchor="middle" x="194.5" y="-398.5" font-family="Helvetica,sans-Serif" font-size="10.00"> +include_ascii_padding</text>
</g>
</g>
</svg>
