<?xml version="1.0" encoding="UTF-8" standalone="no"?>
<!DOCTYPE svg PUBLIC "-//W3C//DTD SVG 1.1//EN"
 "http://www.w3.org/Graphics/SVG/1.1/DTD/svg11.dtd">
<!-- Generated by graphviz version 2.43.0 (0)
 -->
<!-- Title: signal_easel::BitStream::popNextBit Pages: 1 -->
<svg width="812pt" height="284pt"
 viewBox="0.00 0.00 812.00 284.00" xmlns="http://www.w3.org/2000/svg" xmlns:xlink="http://www.w3.org/1999/xlink">
<g id="graph0" class="graph" transform="scale(1 1) rotate(0) translate(4 280)">
<title>signal_easel::BitStream::popNextBit</title>
<!-- Node1 -->
<g id="node1" class="node">
<title>Node1</title>
<g id="a_node1"><a xlink:title="Returns the next bit of the bit stream that will be encoded.">
<polygon fill="#bfbfbf" stroke="black" points="672,-122.5 672,-152.5 804,-152.5 804,-122.5 672,-122.5"/>
<text text-anchor="start" x="680" y="-140.5" font-family="Helvetica,sans-Serif" font-size="10.00">signal_easel::BitStream</text>
<text text-anchor="middle" x="738" y="-129.5" font-family="Helvetica,sans-Serif" font-size="10.00">::popNextBit</text>
</a>
</g>
</g>
<!-- Node2 -->
<g id="node2" class="node">
<title>Node2</title>
<g id="a_node2"><a xlink:href="namespacesignal__easel_1_1ax25.html#a84e1d1bf82ef828a150bc94cf065e396" target="_top" xlink:title="Convert a bit stream from NRZI to standard encoding.">
<polygon fill="none" stroke="black" points="516.5,-245.5 516.5,-275.5 623.5,-275.5 623.5,-245.5 516.5,-245.5"/>
<text text-anchor="start" x="524.5" y="-263.5" font-family="Helvetica,sans-Serif" font-size="10.00">signal_easel::ax25</text>
<text text-anchor="middle" x="570" y="-252.5" font-family="Helvetica,sans-Serif" font-size="10.00">::decodeNrzi</text>
</a>
</g>
</g>
<!-- Node1&#45;&gt;Node2 -->
<g id="edge1" class="edge">
<title>Node1&#45;&gt;Node2</title>
<path fill="none" stroke="midnightblue" d="M718.59,-160.49C699.85,-182.6 668.92,-215.65 636,-236.5 630.72,-239.85 624.9,-242.82 618.98,-245.44"/>
<polygon fill="midnightblue" stroke="midnightblue" points="721.45,-162.52 725.16,-152.6 716.07,-158.05 721.45,-162.52"/>
</g>
<!-- Node7 -->
<g id="node7" class="node">
<title>Node7</title>
<g id="a_node7"><a xlink:href="namespacesignal__easel_1_1ax25.html#a1bccc37a6ac48ed9be96218dd46bcb41" target="_top" xlink:title=" ">
<polygon fill="none" stroke="black" points="516.5,-196.5 516.5,-226.5 623.5,-226.5 623.5,-196.5 516.5,-196.5"/>
<text text-anchor="start" x="524.5" y="-214.5" font-family="Helvetica,sans-Serif" font-size="10.00">signal_easel::ax25</text>
<text text-anchor="middle" x="570" y="-203.5" font-family="Helvetica,sans-Serif" font-size="10.00">::deStuffBytes</text>
</a>
</g>
</g>
<!-- Node1&#45;&gt;Node7 -->
<g id="edge6" class="edge">
<title>Node1&#45;&gt;Node7</title>
<path fill="none" stroke="midnightblue" d="M699.51,-157.24C680.68,-166.86 657.37,-178.3 636,-187.5 628.93,-190.55 621.33,-193.57 613.91,-196.39"/>
<polygon fill="midnightblue" stroke="midnightblue" points="701.35,-160.23 708.65,-152.54 698.15,-154 701.35,-160.23"/>
</g>
<!-- Node8 -->
<g id="node8" class="node">
<title>Node8</title>
<g id="a_node8"><a xlink:href="classsignal__easel_1_1psk_1_1Modulator.html#a0949f7b7120c7a1b3c350681537e3181" target="_top" xlink:title=" ">
<polygon fill="none" stroke="black" points="504.5,-98.5 504.5,-128.5 635.5,-128.5 635.5,-98.5 504.5,-98.5"/>
<text text-anchor="start" x="512.5" y="-116.5" font-family="Helvetica,sans-Serif" font-size="10.00">signal_easel::psk::</text>
<text text-anchor="middle" x="570" y="-105.5" font-family="Helvetica,sans-Serif" font-size="10.00">Modulator::encodeBpsk</text>
</a>
</g>
</g>
<!-- Node1&#45;&gt;Node8 -->
<g id="edge8" class="edge">
<title>Node1&#45;&gt;Node8</title>
<path fill="none" stroke="midnightblue" d="M661.73,-126.62C653.03,-125.36 644.21,-124.09 635.67,-122.85"/>
<polygon fill="midnightblue" stroke="midnightblue" points="661.47,-130.12 671.87,-128.08 662.47,-123.19 661.47,-130.12"/>
</g>
<!-- Node11 -->
<g id="node11" class="node">
<title>Node11</title>
<g id="a_node11"><a xlink:href="classsignal__easel_1_1ax25_1_1Frame.html#a2b4f6ebcb7592a7e5a21114c8fafa503" target="_top" xlink:title="A step beyond buildFrame. This function builds the frame, does the bit stuffing, adds the flags,...">
<polygon fill="none" stroke="black" points="507.5,-0.5 507.5,-30.5 632.5,-30.5 632.5,-0.5 507.5,-0.5"/>
<text text-anchor="start" x="515.5" y="-18.5" font-family="Helvetica,sans-Serif" font-size="10.00">signal_easel::ax25</text>
<text text-anchor="middle" x="570" y="-7.5" font-family="Helvetica,sans-Serif" font-size="10.00">::Frame::encodeFrame</text>
</a>
</g>
</g>
<!-- Node1&#45;&gt;Node11 -->
<g id="edge11" class="edge">
<title>Node1&#45;&gt;Node11</title>
<path fill="none" stroke="midnightblue" d="M718.23,-114.39C699.42,-92.51 668.63,-60.05 636,-39.5 630.71,-36.17 624.88,-33.2 618.96,-30.58"/>
<polygon fill="midnightblue" stroke="midnightblue" points="715.71,-116.82 724.83,-122.2 721.06,-112.31 715.71,-116.82"/>
</g>
<!-- Node15 -->
<g id="node15" class="node">
<title>Node15</title>
<g id="a_node15"><a xlink:href="classsignal__easel_1_1psk_1_1Modulator.html#a60d1a9253af253f4b62b678b6fc2b21e" target="_top" xlink:title=" ">
<polygon fill="none" stroke="black" points="504,-49.5 504,-79.5 636,-79.5 636,-49.5 504,-49.5"/>
<text text-anchor="start" x="512" y="-67.5" font-family="Helvetica,sans-Serif" font-size="10.00">signal_easel::psk::</text>
<text text-anchor="middle" x="570" y="-56.5" font-family="Helvetica,sans-Serif" font-size="10.00">Modulator::encodeQpsk</text>
</a>
</g>
</g>
<!-- Node1&#45;&gt;Node15 -->
<g id="edge16" class="edge">
<title>Node1&#45;&gt;Node15</title>
<path fill="none" stroke="midnightblue" d="M697.74,-117.98C679.17,-108.98 656.6,-98.34 636,-89.5 628.22,-86.16 619.84,-82.78 611.76,-79.63"/>
<polygon fill="midnightblue" stroke="midnightblue" points="696.26,-121.16 706.78,-122.39 699.33,-114.86 696.26,-121.16"/>
</g>
<!-- Node16 -->
<g id="node16" class="node">
<title>Node16</title>
<g id="a_node16"><a xlink:href="namespacesignal__easel_1_1ax25.html#aedc3a21287bb20d2f0b01c9a2d6797f3" target="_top" xlink:title="Finds the start flags in the bit stream and removes them.">
<polygon fill="none" stroke="black" points="516.5,-147.5 516.5,-177.5 623.5,-177.5 623.5,-147.5 516.5,-147.5"/>
<text text-anchor="start" x="524.5" y="-165.5" font-family="Helvetica,sans-Serif" font-size="10.00">signal_easel::ax25</text>
<text text-anchor="middle" x="570" y="-154.5" font-family="Helvetica,sans-Serif" font-size="10.00">::findStartFlags</text>
</a>
</g>
</g>
<!-- Node1&#45;&gt;Node16 -->
<g id="edge18" class="edge">
<title>Node1&#45;&gt;Node16</title>
<path fill="none" stroke="midnightblue" d="M661.65,-148.85C648.82,-150.78 635.74,-152.75 623.65,-154.57"/>
<polygon fill="midnightblue" stroke="midnightblue" points="662.5,-152.26 671.87,-147.31 661.46,-145.34 662.5,-152.26"/>
</g>
<!-- Node3 -->
<g id="node3" class="node">
<title>Node3</title>
<g id="a_node3"><a xlink:href="classsignal__easel_1_1ax25_1_1Frame.html#a63cf2362c2a90d20f09bbbc4f24a07ba" target="_top" xlink:title="Attempt to parse an incoming bit stream into an AX.25 frame.">
<polygon fill="none" stroke="black" points="332.5,-148.5 332.5,-178.5 467.5,-178.5 467.5,-148.5 332.5,-148.5"/>
<text text-anchor="start" x="340.5" y="-166.5" font-family="Helvetica,sans-Serif" font-size="10.00">signal_easel::ax25</text>
<text text-anchor="middle" x="400" y="-155.5" font-family="Helvetica,sans-Serif" font-size="10.00">::Frame::parseBitStream</text>
</a>
</g>
</g>
<!-- Node2&#45;&gt;Node3 -->
<g id="edge2" class="edge">
<title>Node2&#45;&gt;Node3</title>
<path fill="none" stroke="midnightblue" d="M514.21,-241.47C510.71,-239.89 507.28,-238.23 504,-236.5 472.2,-219.74 438.87,-194.49 419.03,-178.51"/>
<polygon fill="midnightblue" stroke="midnightblue" points="513,-244.76 523.57,-245.48 515.76,-238.33 513,-244.76"/>
</g>
<!-- Node4 -->
<g id="node4" class="node">
<title>Node4</title>
<g id="a_node4"><a xlink:href="classsignal__easel_1_1aprs_1_1Demodulator.html#ae5a8e7634c1bc8d215a0c454a9a737fa" target="_top" xlink:title=" ">
<polygon fill="none" stroke="black" points="143,-142 143,-183 296,-183 296,-142 143,-142"/>
<text text-anchor="start" x="151" y="-171" font-family="Helvetica,sans-Serif" font-size="10.00">signal_easel::aprs</text>
<text text-anchor="start" x="151" y="-160" font-family="Helvetica,sans-Serif" font-size="10.00">::Demodulator::lookForAx25</text>
<text text-anchor="middle" x="219.5" y="-149" font-family="Helvetica,sans-Serif" font-size="10.00">Packet</text>
</a>
</g>
</g>
<!-- Node3&#45;&gt;Node4 -->
<g id="edge3" class="edge">
<title>Node3&#45;&gt;Node4</title>
<path fill="none" stroke="midnightblue" d="M322.22,-163.07C313.58,-163.02 304.77,-162.97 296.14,-162.92"/>
<polygon fill="midnightblue" stroke="midnightblue" points="322.26,-166.57 332.28,-163.13 322.3,-159.57 322.26,-166.57"/>
</g>
<!-- Node5 -->
<g id="node5" class="node">
<title>Node5</title>
<g id="a_node5"><a xlink:href="classsignal__easel_1_1aprs_1_1Receiver.html#afbf7869aceaf2ea7ab0be8b9af16e818" target="_top" xlink:title=" ">
<polygon fill="none" stroke="black" points="0,-147.5 0,-177.5 107,-177.5 107,-147.5 0,-147.5"/>
<text text-anchor="start" x="8" y="-165.5" font-family="Helvetica,sans-Serif" font-size="10.00">signal_easel::aprs</text>
<text text-anchor="middle" x="53.5" y="-154.5" font-family="Helvetica,sans-Serif" font-size="10.00">::Receiver::decode</text>
</a>
</g>
</g>
<!-- Node4&#45;&gt;Node5 -->
<g id="edge4" class="edge">
<title>Node4&#45;&gt;Node5</title>
<path fill="none" stroke="midnightblue" d="M132.67,-162.5C124.09,-162.5 115.56,-162.5 107.47,-162.5"/>
<polygon fill="midnightblue" stroke="midnightblue" points="132.74,-166 142.74,-162.5 132.74,-159 132.74,-166"/>
</g>
<!-- Node6 -->
<g id="node6" class="node">
<title>Node6</title>
<g id="a_node6"><a xlink:href="aprs__test_8cpp.html#aea66d1824e3f1e27598adf99ac6a089a" target="_top" xlink:title=" ">
<polygon fill="none" stroke="black" points="33,-85 33,-104 74,-104 74,-85 33,-85"/>
<text text-anchor="middle" x="53.5" y="-92" font-family="Helvetica,sans-Serif" font-size="10.00">TEST</text>
</a>
</g>
</g>
<!-- Node4&#45;&gt;Node6 -->
<g id="edge5" class="edge">
<title>Node4&#45;&gt;Node6</title>
<path fill="none" stroke="midnightblue" d="M158.63,-137.96C153.34,-135.78 148.07,-133.6 143,-131.5 119.31,-121.68 92.09,-110.29 74.17,-102.77"/>
<polygon fill="midnightblue" stroke="midnightblue" points="157.54,-141.3 168.12,-141.87 160.21,-134.82 157.54,-141.3"/>
</g>
<!-- Node7&#45;&gt;Node3 -->
<g id="edge7" class="edge">
<title>Node7&#45;&gt;Node3</title>
<path fill="none" stroke="midnightblue" d="M506.25,-193.57C488.89,-188.61 470.23,-183.28 453.51,-178.5"/>
<polygon fill="midnightblue" stroke="midnightblue" points="505.73,-197.06 516.3,-196.44 507.65,-190.33 505.73,-197.06"/>
</g>
<!-- Node9 -->
<g id="node9" class="node">
<title>Node9</title>
<g id="a_node9"><a xlink:href="classsignal__easel_1_1psk_1_1Modulator.html#acd4a6a5bac7af1c62ffaaa0ff1d9259f" target="_top" xlink:title=" ">
<polygon fill="none" stroke="black" points="332,-97.5 332,-127.5 468,-127.5 468,-97.5 332,-97.5"/>
<text text-anchor="start" x="340" y="-115.5" font-family="Helvetica,sans-Serif" font-size="10.00">signal_easel::psk::</text>
<text text-anchor="middle" x="400" y="-104.5" font-family="Helvetica,sans-Serif" font-size="10.00">Modulator::encodeString</text>
</a>
</g>
</g>
<!-- Node8&#45;&gt;Node9 -->
<g id="edge9" class="edge">
<title>Node8&#45;&gt;Node9</title>
<path fill="none" stroke="midnightblue" d="M493.97,-113.05C485.32,-113 476.54,-112.95 468,-112.9"/>
<polygon fill="midnightblue" stroke="midnightblue" points="494.03,-116.55 504.05,-113.11 494.07,-109.55 494.03,-116.55"/>
</g>
<!-- Node10 -->
<g id="node10" class="node">
<title>Node10</title>
<g id="a_node10"><a xlink:href="psk__test_8cpp.html#a82221e67ef1f82d389fa971718fa764a" target="_top" xlink:title=" ">
<polygon fill="none" stroke="black" points="199,-103 199,-122 240,-122 240,-103 199,-103"/>
<text text-anchor="middle" x="219.5" y="-110" font-family="Helvetica,sans-Serif" font-size="10.00">TEST</text>
</a>
</g>
</g>
<!-- Node9&#45;&gt;Node10 -->
<g id="edge10" class="edge">
<title>Node9&#45;&gt;Node10</title>
<path fill="none" stroke="midnightblue" d="M321.72,-112.5C291.84,-112.5 260.12,-112.5 240.32,-112.5"/>
<polygon fill="midnightblue" stroke="midnightblue" points="321.77,-116 331.77,-112.5 321.77,-109 321.77,-116"/>
</g>
<!-- Node12 -->
<g id="node12" class="node">
<title>Node12</title>
<g id="a_node12"><a xlink:href="namespacesignal__easel_1_1aprs.html#a77481001a5b78a839972bb4220b43e4d" target="_top" xlink:title=" ">
<polygon fill="none" stroke="black" points="348,-46.5 348,-76.5 452,-76.5 452,-46.5 348,-46.5"/>
<text text-anchor="start" x="356" y="-64.5" font-family="Helvetica,sans-Serif" font-size="10.00">signal_easel::aprs</text>
<text text-anchor="middle" x="400" y="-53.5" font-family="Helvetica,sans-Serif" font-size="10.00">::encodePacket</text>
</a>
</g>
</g>
<!-- Node11&#45;&gt;Node12 -->
<g id="edge12" class="edge">
<title>Node11&#45;&gt;Node12</title>
<path fill="none" stroke="midnightblue" d="M504.02,-33.29C486.82,-38 468.5,-43.02 452.15,-47.5"/>
<polygon fill="midnightblue" stroke="midnightblue" points="505.27,-36.58 513.99,-30.56 503.42,-29.83 505.27,-36.58"/>
</g>
<!-- Node14 -->
<g id="node14" class="node">
<title>Node14</title>
<g id="a_node14"><a xlink:href="tmp_8cpp.html#ae66f6b31b5ad750f1fe042a706a4e3d4" target="_top" xlink:title=" ">
<polygon fill="none" stroke="black" points="379.5,-6 379.5,-25 420.5,-25 420.5,-6 379.5,-6"/>
<text text-anchor="middle" x="400" y="-13" font-family="Helvetica,sans-Serif" font-size="10.00">main</text>
</a>
</g>
</g>
<!-- Node11&#45;&gt;Node14 -->
<g id="edge15" class="edge">
<title>Node11&#45;&gt;Node14</title>
<path fill="none" stroke="midnightblue" d="M497.25,-15.5C469.42,-15.5 439.76,-15.5 420.84,-15.5"/>
<polygon fill="midnightblue" stroke="midnightblue" points="497.4,-19 507.4,-15.5 497.4,-12 497.4,-19"/>
</g>
<!-- Node13 -->
<g id="node13" class="node">
<title>Node13</title>
<g id="a_node13"><a xlink:href="classsignal__easel_1_1aprs_1_1Modulator.html#a8ae067701382dec1680b786583ace687" target="_top" xlink:title=" ">
<polygon fill="none" stroke="black" points="163,-50.5 163,-80.5 276,-80.5 276,-50.5 163,-50.5"/>
<text text-anchor="start" x="171" y="-68.5" font-family="Helvetica,sans-Serif" font-size="10.00">signal_easel::aprs</text>
<text text-anchor="middle" x="219.5" y="-57.5" font-family="Helvetica,sans-Serif" font-size="10.00">::Modulator::encode</text>
</a>
</g>
</g>
<!-- Node12&#45;&gt;Node13 -->
<g id="edge13" class="edge">
<title>Node12&#45;&gt;Node13</title>
<path fill="none" stroke="midnightblue" d="M337.61,-62.88C317.62,-63.32 295.57,-63.82 276.03,-64.26"/>
<polygon fill="midnightblue" stroke="midnightblue" points="337.93,-66.37 347.85,-62.65 337.77,-59.37 337.93,-66.37"/>
</g>
<!-- Node13&#45;&gt;Node6 -->
<g id="edge14" class="edge">
<title>Node13&#45;&gt;Node6</title>
<path fill="none" stroke="midnightblue" d="M153.11,-77.06C124.84,-82.06 93.81,-87.55 74.25,-91.01"/>
<polygon fill="midnightblue" stroke="midnightblue" points="153.74,-80.51 162.98,-75.32 152.52,-73.61 153.74,-80.51"/>
</g>
<!-- Node15&#45;&gt;Node9 -->
<g id="edge17" class="edge">
<title>Node15&#45;&gt;Node9</title>
<path fill="none" stroke="midnightblue" d="M506.25,-82.43C488.89,-87.39 470.23,-92.72 453.51,-97.5"/>
<polygon fill="midnightblue" stroke="midnightblue" points="507.65,-85.67 516.3,-79.56 505.73,-78.94 507.65,-85.67"/>
</g>
<!-- Node16&#45;&gt;Node3 -->
<g id="edge19" class="edge">
<title>Node16&#45;&gt;Node3</title>
<path fill="none" stroke="midnightblue" d="M505.99,-162.88C493.5,-162.95 480.34,-163.03 467.73,-163.1"/>
<polygon fill="midnightblue" stroke="midnightblue" points="506.33,-166.37 516.3,-162.81 506.28,-159.37 506.33,-166.37"/>
</g>
</g>
</svg>
