<?xml version="1.0" encoding="UTF-8" standalone="no"?>
<!DOCTYPE svg PUBLIC "-//W3C//DTD SVG 1.1//EN"
 "http://www.w3.org/Graphics/SVG/1.1/DTD/svg11.dtd">
<!-- Generated by graphviz version 2.43.0 (0)
 -->
<!-- Title: signal_easel::aprs::Receiver Pages: 1 -->
<svg width="139pt" height="474pt"
 viewBox="0.00 0.00 139.00 474.00" xmlns="http://www.w3.org/2000/svg" xmlns:xlink="http://www.w3.org/1999/xlink">
<g id="graph0" class="graph" transform="scale(1 1) rotate(0) translate(4 470)">
<title>signal_easel::aprs::Receiver</title>
<!-- Node1 -->
<g id="node1" class="node">
<title>Node1</title>
<g id="a_node1"><a xlink:title=" ">
<polygon fill="#bfbfbf" stroke="black" points="0,-0.5 0,-145.5 131,-145.5 131,-0.5 0,-0.5"/>
<text text-anchor="start" x="8" y="-133.5" font-family="Helvetica,sans-Serif" font-size="10.00">signal_easel::aprs</text>
<text text-anchor="middle" x="65.5" y="-122.5" font-family="Helvetica,sans-Serif" font-size="10.00">::Receiver</text>
<polyline fill="none" stroke="black" points="0,-115.5 131,-115.5 "/>
<text text-anchor="start" x="8" y="-103.5" font-family="Helvetica,sans-Serif" font-size="10.00">&#45; aprs_demodulator_</text>
<text text-anchor="start" x="8" y="-92.5" font-family="Helvetica,sans-Serif" font-size="10.00">&#45; aprs_messages_</text>
<text text-anchor="start" x="8" y="-81.5" font-family="Helvetica,sans-Serif" font-size="10.00">&#45; demodulation_res_</text>
<text text-anchor="start" x="8" y="-70.5" font-family="Helvetica,sans-Serif" font-size="10.00">&#45; other_aprs_packets_</text>
<polyline fill="none" stroke="black" points="0,-63.5 131,-63.5 "/>
<text text-anchor="start" x="8" y="-51.5" font-family="Helvetica,sans-Serif" font-size="10.00">+ Receiver()</text>
<text text-anchor="start" x="8" y="-40.5" font-family="Helvetica,sans-Serif" font-size="10.00">+ getAprsMessage()</text>
<text text-anchor="start" x="8" y="-29.5" font-family="Helvetica,sans-Serif" font-size="10.00">+ getOtherAprsPacket()</text>
<text text-anchor="start" x="8" y="-18.5" font-family="Helvetica,sans-Serif" font-size="10.00">+ getSNR()</text>
<text text-anchor="start" x="8" y="-7.5" font-family="Helvetica,sans-Serif" font-size="10.00">&#45; decode()</text>
</a>
</g>
</g>
<!-- Node2 -->
<g id="node2" class="node">
<title>Node2</title>
<g id="a_node2"><a xlink:href="classsignal__easel_1_1afsk_1_1Receiver.html" target="_top" xlink:title="For receiving AFSK signals via a pulse audio stream.">
<polygon fill="none" stroke="black" points="13.5,-182.5 13.5,-316.5 117.5,-316.5 117.5,-182.5 13.5,-182.5"/>
<text text-anchor="start" x="21.5" y="-304.5" font-family="Helvetica,sans-Serif" font-size="10.00">signal_easel::afsk</text>
<text text-anchor="middle" x="65.5" y="-293.5" font-family="Helvetica,sans-Serif" font-size="10.00">::Receiver</text>
<polyline fill="none" stroke="black" points="13.5,-286.5 117.5,-286.5 "/>
<text text-anchor="start" x="21.5" y="-274.5" font-family="Helvetica,sans-Serif" font-size="10.00"># afsk_settings_</text>
<text text-anchor="start" x="21.5" y="-263.5" font-family="Helvetica,sans-Serif" font-size="10.00"># demodulator_</text>
<text text-anchor="start" x="21.5" y="-252.5" font-family="Helvetica,sans-Serif" font-size="10.00"># receive_buffer_</text>
<polyline fill="none" stroke="black" points="13.5,-245.5 117.5,-245.5 "/>
<text text-anchor="start" x="21.5" y="-233.5" font-family="Helvetica,sans-Serif" font-size="10.00">+ Receiver()</text>
<text text-anchor="start" x="21.5" y="-222.5" font-family="Helvetica,sans-Serif" font-size="10.00">+ ~Receiver()</text>
<text text-anchor="start" x="21.5" y="-211.5" font-family="Helvetica,sans-Serif" font-size="10.00">+ process()</text>
<text text-anchor="start" x="21.5" y="-200.5" font-family="Helvetica,sans-Serif" font-size="10.00"># decode()</text>
<text text-anchor="start" x="21.5" y="-189.5" font-family="Helvetica,sans-Serif" font-size="10.00"># detectSignal()</text>
</a>
</g>
</g>
<!-- Node2&#45;&gt;Node1 -->
<g id="edge1" class="edge">
<title>Node2&#45;&gt;Node1</title>
<path fill="none" stroke="midnightblue" d="M65.5,-171.84C65.5,-163.09 65.5,-154.2 65.5,-145.51"/>
<polygon fill="none" stroke="midnightblue" points="62,-172.03 65.5,-182.03 69,-172.03 62,-172.03"/>
</g>
<!-- Node3 -->
<g id="node3" class="node">
<title>Node3</title>
<g id="a_node3"><a xlink:href="classsignal__easel_1_1Receiver.html" target="_top" xlink:title=" ">
<polygon fill="none" stroke="black" points="1.5,-353.5 1.5,-465.5 129.5,-465.5 129.5,-353.5 1.5,-353.5"/>
<text text-anchor="middle" x="65.5" y="-453.5" font-family="Helvetica,sans-Serif" font-size="10.00">signal_easel::Receiver</text>
<polyline fill="none" stroke="black" points="1.5,-446.5 129.5,-446.5 "/>
<text text-anchor="start" x="9.5" y="-434.5" font-family="Helvetica,sans-Serif" font-size="10.00"># pulse_audio_reader_</text>
<text text-anchor="start" x="9.5" y="-423.5" font-family="Helvetica,sans-Serif" font-size="10.00"># settings_</text>
<polyline fill="none" stroke="black" points="1.5,-416.5 129.5,-416.5 "/>
<text text-anchor="start" x="9.5" y="-404.5" font-family="Helvetica,sans-Serif" font-size="10.00">+ Receiver()</text>
<text text-anchor="start" x="9.5" y="-393.5" font-family="Helvetica,sans-Serif" font-size="10.00">+ ~Receiver()</text>
<text text-anchor="start" x="9.5" y="-382.5" font-family="Helvetica,sans-Serif" font-size="10.00">+ getLatency()</text>
<text text-anchor="start" x="9.5" y="-371.5" font-family="Helvetica,sans-Serif" font-size="10.00">+ getVolume()</text>
<text text-anchor="start" x="9.5" y="-360.5" font-family="Helvetica,sans-Serif" font-size="10.00">+ process()</text>
</a>
</g>
</g>
<!-- Node3&#45;&gt;Node2 -->
<g id="edge2" class="edge">
<title>Node3&#45;&gt;Node2</title>
<path fill="none" stroke="midnightblue" d="M65.5,-343.09C65.5,-334.34 65.5,-325.35 65.5,-316.59"/>
<polygon fill="none" stroke="midnightblue" points="62,-343.24 65.5,-353.24 69,-343.24 62,-343.24"/>
</g>
</g>
</svg>
