<?xml version="1.0" encoding="UTF-8" standalone="no"?>
<!DOCTYPE svg PUBLIC "-//W3C//DTD SVG 1.1//EN"
 "http://www.w3.org/Graphics/SVG/1.1/DTD/svg11.dtd">
<!-- Generated by graphviz version 2.43.0 (0)
 -->
<!-- Title: signal_easel::aprs::Modulator::encodeMessagePacket Pages: 1 -->
<svg width="1444pt" height="465pt"
 viewBox="0.00 0.00 1444.00 465.00" xmlns="http://www.w3.org/2000/svg" xmlns:xlink="http://www.w3.org/1999/xlink">
<g id="graph0" class="graph" transform="scale(1 1) rotate(0) translate(4 461)">
<title>signal_easel::aprs::Modulator::encodeMessagePacket</title>
<!-- Node1 -->
<g id="node1" class="node">
<title>Node1</title>
<g id="a_node1"><a xlink:title=" ">
<polygon fill="#bfbfbf" stroke="black" points="0,-372 0,-413 157,-413 157,-372 0,-372"/>
<text text-anchor="start" x="8" y="-401" font-family="Helvetica,sans-Serif" font-size="10.00">signal_easel::aprs</text>
<text text-anchor="start" x="8" y="-390" font-family="Helvetica,sans-Serif" font-size="10.00">::Modulator::encodeMessage</text>
<text text-anchor="middle" x="78.5" y="-379" font-family="Helvetica,sans-Serif" font-size="10.00">Packet</text>
</a>
</g>
</g>
<!-- Node2 -->
<g id="node2" class="node">
<title>Node2</title>
<g id="a_node2"><a xlink:href="structsignal__easel_1_1aprs_1_1MessagePacket.html#a2384b4285118df9fdcbd506a8332dc91" target="_top" xlink:title=" ">
<polygon fill="none" stroke="black" points="194,-426.5 194,-456.5 333,-456.5 333,-426.5 194,-426.5"/>
<text text-anchor="start" x="202" y="-444.5" font-family="Helvetica,sans-Serif" font-size="10.00">signal_easel::aprs</text>
<text text-anchor="middle" x="263.5" y="-433.5" font-family="Helvetica,sans-Serif" font-size="10.00">::MessagePacket::encode</text>
</a>
</g>
</g>
<!-- Node1&#45;&gt;Node2 -->
<g id="edge1" class="edge">
<title>Node1&#45;&gt;Node2</title>
<path fill="none" stroke="midnightblue" d="M156.31,-413.07C169.72,-416.66 183.56,-420.36 196.64,-423.86"/>
<polygon fill="midnightblue" stroke="midnightblue" points="195.9,-427.29 206.47,-426.5 197.71,-420.53 195.9,-427.29"/>
</g>
<!-- Node3 -->
<g id="node3" class="node">
<title>Node3</title>
<g id="a_node3"><a xlink:href="classsignal__easel_1_1afsk_1_1Modulator.html#a8e377665e5432ebb66de359635aeeafb" target="_top" xlink:title="This is overridden by the child classes to encode the data that is passed in by addBytes and addStrin...">
<polygon fill="none" stroke="black" points="193,-377.5 193,-407.5 334,-407.5 334,-377.5 193,-377.5"/>
<text text-anchor="start" x="201" y="-395.5" font-family="Helvetica,sans-Serif" font-size="10.00">signal_easel::afsk</text>
<text text-anchor="middle" x="263.5" y="-384.5" font-family="Helvetica,sans-Serif" font-size="10.00">::Modulator::encodeBytes</text>
</a>
</g>
</g>
<!-- Node1&#45;&gt;Node3 -->
<g id="edge2" class="edge">
<title>Node1&#45;&gt;Node3</title>
<path fill="none" stroke="midnightblue" d="M157.11,-392.5C165.56,-392.5 174.17,-392.5 182.64,-392.5"/>
<polygon fill="midnightblue" stroke="midnightblue" points="182.9,-396 192.9,-392.5 182.9,-389 182.9,-396"/>
</g>
<!-- Node8 -->
<g id="node8" class="node">
<title>Node8</title>
<g id="a_node8"><a xlink:href="namespacesignal__easel_1_1aprs.html#a77481001a5b78a839972bb4220b43e4d" target="_top" xlink:title=" ">
<polygon fill="none" stroke="black" points="211.5,-262.5 211.5,-292.5 315.5,-292.5 315.5,-262.5 211.5,-262.5"/>
<text text-anchor="start" x="219.5" y="-280.5" font-family="Helvetica,sans-Serif" font-size="10.00">signal_easel::aprs</text>
<text text-anchor="middle" x="263.5" y="-269.5" font-family="Helvetica,sans-Serif" font-size="10.00">::encodePacket</text>
</a>
</g>
</g>
<!-- Node1&#45;&gt;Node8 -->
<g id="edge7" class="edge">
<title>Node1&#45;&gt;Node8</title>
<path fill="none" stroke="midnightblue" d="M112.22,-371.94C145.39,-351.09 196.44,-319.02 229.65,-298.14"/>
<polygon fill="midnightblue" stroke="midnightblue" points="231.92,-300.85 238.52,-292.57 228.19,-294.93 231.92,-300.85"/>
</g>
<!-- Node4 -->
<g id="node4" class="node">
<title>Node4</title>
<g id="a_node4"><a xlink:href="classsignal__easel_1_1Modulator.html#af99ee22156e320703891f0fda4df95e8" target="_top" xlink:title="Add a PCM sample to the audio buffer.">
<polygon fill="none" stroke="black" points="371.5,-426.5 371.5,-456.5 504.5,-456.5 504.5,-426.5 371.5,-426.5"/>
<text text-anchor="start" x="379.5" y="-444.5" font-family="Helvetica,sans-Serif" font-size="10.00">signal_easel::Modulator</text>
<text text-anchor="middle" x="438" y="-433.5" font-family="Helvetica,sans-Serif" font-size="10.00">::addAudioSample</text>
</a>
</g>
</g>
<!-- Node3&#45;&gt;Node4 -->
<g id="edge3" class="edge">
<title>Node3&#45;&gt;Node4</title>
<path fill="none" stroke="midnightblue" d="M317.66,-407.6C335.54,-412.68 355.64,-418.39 374.19,-423.66"/>
<polygon fill="midnightblue" stroke="midnightblue" points="373.44,-427.08 384.01,-426.45 375.35,-420.35 373.44,-427.08"/>
</g>
<!-- Node5 -->
<g id="node5" class="node">
<title>Node5</title>
<g id="a_node5"><a xlink:href="namespacesignal__easel.html#a815178bfbe2aee7cc2e3c74237233e6c" target="_top" xlink:title="Gets the bipolar value of a bit at a given index from a vector of bytes.">
<polygon fill="none" stroke="black" points="370,-377.5 370,-407.5 506,-407.5 506,-377.5 370,-377.5"/>
<text text-anchor="start" x="378" y="-395.5" font-family="Helvetica,sans-Serif" font-size="10.00">signal_easel::getBpBitAt</text>
<text text-anchor="middle" x="438" y="-384.5" font-family="Helvetica,sans-Serif" font-size="10.00">Index</text>
</a>
</g>
</g>
<!-- Node3&#45;&gt;Node5 -->
<g id="edge4" class="edge">
<title>Node3&#45;&gt;Node5</title>
<path fill="none" stroke="midnightblue" d="M334.17,-392.5C342.54,-392.5 351.13,-392.5 359.61,-392.5"/>
<polygon fill="midnightblue" stroke="midnightblue" points="359.87,-396 369.87,-392.5 359.87,-389 359.87,-396"/>
</g>
<!-- Node6 -->
<g id="node6" class="node">
<title>Node6</title>
<g id="a_node6"><a xlink:href="namespacesignal__easel.html#aa81833e925b9f020659999a2a4a82559" target="_top" xlink:title="Converts a bit to it&#39;s bipolar value (0 = 1, 1 = &#45;1)">
<polygon fill="none" stroke="black" points="542,-421 542,-440 707,-440 707,-421 542,-421"/>
<text text-anchor="middle" x="624.5" y="-428" font-family="Helvetica,sans-Serif" font-size="10.00">signal_easel::convertToBipolar</text>
</a>
</g>
</g>
<!-- Node5&#45;&gt;Node6 -->
<g id="edge5" class="edge">
<title>Node5&#45;&gt;Node6</title>
<path fill="none" stroke="midnightblue" d="M506.13,-406.33C526.22,-410.46 548.04,-414.96 567.34,-418.93"/>
<polygon fill="midnightblue" stroke="midnightblue" points="566.69,-422.37 577.19,-420.96 568.1,-415.52 566.69,-422.37"/>
</g>
<!-- Node7 -->
<g id="node7" class="node">
<title>Node7</title>
<g id="a_node7"><a xlink:href="namespacesignal__easel.html#a248ddb36f02c1436acd66c0409189637" target="_top" xlink:title="For reading a byte MSB first.">
<polygon fill="none" stroke="black" points="564,-383 564,-402 685,-402 685,-383 564,-383"/>
<text text-anchor="middle" x="624.5" y="-390" font-family="Helvetica,sans-Serif" font-size="10.00">signal_easel::isBitSet</text>
</a>
</g>
</g>
<!-- Node5&#45;&gt;Node7 -->
<g id="edge6" class="edge">
<title>Node5&#45;&gt;Node7</title>
<path fill="none" stroke="midnightblue" d="M506.13,-392.5C521.6,-392.5 538.08,-392.5 553.66,-392.5"/>
<polygon fill="midnightblue" stroke="midnightblue" points="553.75,-396 563.75,-392.5 553.75,-389 553.75,-396"/>
</g>
<!-- Node9 -->
<g id="node9" class="node">
<title>Node9</title>
<g id="a_node9"><a xlink:href="namespacesignal__easel_1_1aprs.html#a586b022fa0c917fa8557bbd5cdc6aeeb" target="_top" xlink:title=" ">
<polygon fill="none" stroke="black" points="568,-333.5 568,-363.5 681,-363.5 681,-333.5 568,-333.5"/>
<text text-anchor="start" x="576" y="-351.5" font-family="Helvetica,sans-Serif" font-size="10.00">signal_easel::aprs</text>
<text text-anchor="middle" x="624.5" y="-340.5" font-family="Helvetica,sans-Serif" font-size="10.00">::AddRequiredFields</text>
</a>
</g>
</g>
<!-- Node8&#45;&gt;Node9 -->
<g id="edge8" class="edge">
<title>Node8&#45;&gt;Node9</title>
<path fill="none" stroke="midnightblue" d="M315.55,-287.6C379.21,-300.19 488.12,-321.73 557.9,-335.53"/>
<polygon fill="midnightblue" stroke="midnightblue" points="557.41,-339 567.9,-337.5 558.77,-332.13 557.41,-339"/>
</g>
<!-- Node17 -->
<g id="node17" class="node">
<title>Node17</title>
<g id="a_node17"><a xlink:href="classsignal__easel_1_1ax25_1_1Frame.html#a2b4f6ebcb7592a7e5a21114c8fafa503" target="_top" xlink:title="A step beyond buildFrame. This function builds the frame, does the bit stuffing, adds the flags,...">
<polygon fill="none" stroke="black" points="375.5,-196.5 375.5,-226.5 500.5,-226.5 500.5,-196.5 375.5,-196.5"/>
<text text-anchor="start" x="383.5" y="-214.5" font-family="Helvetica,sans-Serif" font-size="10.00">signal_easel::ax25</text>
<text text-anchor="middle" x="438" y="-203.5" font-family="Helvetica,sans-Serif" font-size="10.00">::Frame::encodeFrame</text>
</a>
</g>
</g>
<!-- Node8&#45;&gt;Node17 -->
<g id="edge17" class="edge">
<title>Node8&#45;&gt;Node17</title>
<path fill="none" stroke="midnightblue" d="M304.07,-262.36C329.06,-252.8 361.52,-240.38 388.1,-230.21"/>
<polygon fill="midnightblue" stroke="midnightblue" points="389.52,-233.41 397.61,-226.57 387.02,-226.88 389.52,-233.41"/>
</g>
<!-- Node31 -->
<g id="node31" class="node">
<title>Node31</title>
<g id="a_node31"><a xlink:href="classsignal__easel_1_1ax25_1_1Frame.html#afc5c722b419621f2a4dccbe2208faea1" target="_top" xlink:title=" ">
<polygon fill="none" stroke="black" points="372.5,-147.5 372.5,-177.5 503.5,-177.5 503.5,-147.5 372.5,-147.5"/>
<text text-anchor="start" x="380.5" y="-165.5" font-family="Helvetica,sans-Serif" font-size="10.00">signal_easel::ax25</text>
<text text-anchor="middle" x="438" y="-154.5" font-family="Helvetica,sans-Serif" font-size="10.00">::Frame::setInformation</text>
</a>
</g>
</g>
<!-- Node8&#45;&gt;Node31 -->
<g id="edge35" class="edge">
<title>Node8&#45;&gt;Node31</title>
<path fill="none" stroke="midnightblue" d="M278.52,-262.34C297.56,-242.52 333.43,-207.82 370,-186.5 372.83,-184.85 375.79,-183.29 378.83,-181.81"/>
<polygon fill="midnightblue" stroke="midnightblue" points="380.42,-184.92 388.1,-177.62 377.54,-178.54 380.42,-184.92"/>
</g>
<!-- Node10 -->
<g id="node10" class="node">
<title>Node10</title>
<g id="a_node10"><a xlink:href="namespacesignal__easel_1_1aprs.html#ae16006b4c75ab6423ad8b90ea814a14f" target="_top" xlink:title=" ">
<polygon fill="none" stroke="black" points="774.5,-392.5 774.5,-422.5 881.5,-422.5 881.5,-392.5 774.5,-392.5"/>
<text text-anchor="start" x="782.5" y="-410.5" font-family="Helvetica,sans-Serif" font-size="10.00">signal_easel::aprs</text>
<text text-anchor="middle" x="828" y="-399.5" font-family="Helvetica,sans-Serif" font-size="10.00">::CheckPacketData</text>
</a>
</g>
</g>
<!-- Node9&#45;&gt;Node10 -->
<g id="edge9" class="edge">
<title>Node9&#45;&gt;Node10</title>
<path fill="none" stroke="midnightblue" d="M676.87,-363.54C703.99,-371.48 737.45,-381.28 765.89,-389.61"/>
<polygon fill="midnightblue" stroke="midnightblue" points="765.14,-393.04 775.73,-392.49 767.11,-386.32 765.14,-393.04"/>
</g>
<!-- Node11 -->
<g id="node11" class="node">
<title>Node11</title>
<g id="a_node11"><a xlink:href="classsignal__easel_1_1ax25_1_1Frame.html#a57b163ece54317da8d95f3b18b47c23d" target="_top" xlink:title="setters/getters for the frame.">
<polygon fill="none" stroke="black" points="743,-343.5 743,-373.5 913,-373.5 913,-343.5 743,-343.5"/>
<text text-anchor="start" x="751" y="-361.5" font-family="Helvetica,sans-Serif" font-size="10.00">signal_easel::ax25</text>
<text text-anchor="middle" x="828" y="-350.5" font-family="Helvetica,sans-Serif" font-size="10.00">::Frame::setDestinationAddress</text>
</a>
</g>
</g>
<!-- Node9&#45;&gt;Node11 -->
<g id="edge10" class="edge">
<title>Node9&#45;&gt;Node11</title>
<path fill="none" stroke="midnightblue" d="M681.09,-351.26C697.06,-352.05 714.94,-352.94 732.56,-353.81"/>
<polygon fill="midnightblue" stroke="midnightblue" points="732.73,-357.33 742.89,-354.33 733.08,-350.33 732.73,-357.33"/>
</g>
<!-- Node16 -->
<g id="node16" class="node">
<title>Node16</title>
<g id="a_node16"><a xlink:href="classsignal__easel_1_1ax25_1_1Frame.html#a402d26a81f82bb5c477e8930b75a771e" target="_top" xlink:title=" ">
<polygon fill="none" stroke="black" points="755,-294.5 755,-324.5 901,-324.5 901,-294.5 755,-294.5"/>
<text text-anchor="start" x="763" y="-312.5" font-family="Helvetica,sans-Serif" font-size="10.00">signal_easel::ax25</text>
<text text-anchor="middle" x="828" y="-301.5" font-family="Helvetica,sans-Serif" font-size="10.00">::Frame::setSourceAddress</text>
</a>
</g>
</g>
<!-- Node9&#45;&gt;Node16 -->
<g id="edge15" class="edge">
<title>Node9&#45;&gt;Node16</title>
<path fill="none" stroke="midnightblue" d="M681.09,-337.74C700.8,-333.92 723.42,-329.55 744.87,-325.4"/>
<polygon fill="midnightblue" stroke="midnightblue" points="745.81,-328.78 754.96,-323.44 744.48,-321.91 745.81,-328.78"/>
</g>
<!-- Node12 -->
<g id="node12" class="node">
<title>Node12</title>
<g id="a_node12"><a xlink:href="classsignal__easel_1_1ax25_1_1Address.html#a7fa6b0ef4241413893f201660991e4ea" target="_top" xlink:title="Checks if the address is valid, if not throws an exception with a specific error code.">
<polygon fill="none" stroke="black" points="949,-291.5 949,-321.5 1079,-321.5 1079,-291.5 949,-291.5"/>
<text text-anchor="start" x="957" y="-309.5" font-family="Helvetica,sans-Serif" font-size="10.00">signal_easel::ax25</text>
<text text-anchor="middle" x="1014" y="-298.5" font-family="Helvetica,sans-Serif" font-size="10.00">::Address::assertIsValid</text>
</a>
</g>
</g>
<!-- Node11&#45;&gt;Node12 -->
<g id="edge11" class="edge">
<title>Node11&#45;&gt;Node12</title>
<path fill="none" stroke="midnightblue" d="M882.22,-343.46C903.49,-337.45 928.13,-330.48 950.26,-324.23"/>
<polygon fill="midnightblue" stroke="midnightblue" points="951.23,-327.59 959.9,-321.51 949.32,-320.86 951.23,-327.59"/>
</g>
<!-- Node13 -->
<g id="node13" class="node">
<title>Node13</title>
<g id="a_node13"><a xlink:href="classsignal__easel_1_1ax25_1_1Address.html#af34b361f739b7995e7816b7a04465828" target="_top" xlink:title=" ">
<polygon fill="none" stroke="black" points="1115,-286 1115,-327 1280,-327 1280,-286 1115,-286"/>
<text text-anchor="start" x="1123" y="-315" font-family="Helvetica,sans-Serif" font-size="10.00">signal_easel::ax25</text>
<text text-anchor="start" x="1123" y="-304" font-family="Helvetica,sans-Serif" font-size="10.00">::Address::assertAddressString</text>
<text text-anchor="middle" x="1197.5" y="-293" font-family="Helvetica,sans-Serif" font-size="10.00">IsValid</text>
</a>
</g>
</g>
<!-- Node12&#45;&gt;Node13 -->
<g id="edge12" class="edge">
<title>Node12&#45;&gt;Node13</title>
<path fill="none" stroke="midnightblue" d="M1079.25,-306.5C1087.53,-306.5 1096.13,-306.5 1104.75,-306.5"/>
<polygon fill="midnightblue" stroke="midnightblue" points="1104.85,-310 1114.85,-306.5 1104.85,-303 1104.85,-310"/>
</g>
<!-- Node14 -->
<g id="node14" class="node">
<title>Node14</title>
<g id="a_node14"><a xlink:href="classsignal__easel_1_1ax25_1_1Address.html#a8b44c6e311d3462bd86eda03c1d384f0" target="_top" xlink:title=" ">
<polygon fill="none" stroke="black" points="1122.5,-233.5 1122.5,-263.5 1272.5,-263.5 1272.5,-233.5 1122.5,-233.5"/>
<text text-anchor="start" x="1130.5" y="-251.5" font-family="Helvetica,sans-Serif" font-size="10.00">signal_easel::ax25</text>
<text text-anchor="middle" x="1197.5" y="-240.5" font-family="Helvetica,sans-Serif" font-size="10.00">::Address::assertSsidIsValid</text>
</a>
</g>
</g>
<!-- Node12&#45;&gt;Node14 -->
<g id="edge13" class="edge">
<title>Node12&#45;&gt;Node14</title>
<path fill="none" stroke="midnightblue" d="M1062.21,-291.41C1085.95,-283.83 1114.9,-274.58 1139.83,-266.61"/>
<polygon fill="midnightblue" stroke="midnightblue" points="1141.06,-269.89 1149.52,-263.51 1138.93,-263.22 1141.06,-269.89"/>
</g>
<!-- Node15 -->
<g id="node15" class="node">
<title>Node15</title>
<g id="a_node15"><a xlink:href="classsignal__easel_1_1ax25_1_1Address.html#ad66c149737cc4aa52ae9e8860176acf3" target="_top" xlink:title=" ">
<polygon fill="none" stroke="black" points="1316,-208.5 1316,-238.5 1436,-238.5 1436,-208.5 1316,-208.5"/>
<text text-anchor="start" x="1324" y="-226.5" font-family="Helvetica,sans-Serif" font-size="10.00">signal_easel::ax25</text>
<text text-anchor="middle" x="1376" y="-215.5" font-family="Helvetica,sans-Serif" font-size="10.00">::Address::isSsidValid</text>
</a>
</g>
</g>
<!-- Node14&#45;&gt;Node15 -->
<g id="edge14" class="edge">
<title>Node14&#45;&gt;Node15</title>
<path fill="none" stroke="midnightblue" d="M1272.58,-238.01C1283.64,-236.44 1294.99,-234.83 1305.93,-233.28"/>
<polygon fill="midnightblue" stroke="midnightblue" points="1306.43,-236.75 1315.84,-231.88 1305.45,-229.82 1306.43,-236.75"/>
</g>
<!-- Node16&#45;&gt;Node12 -->
<g id="edge16" class="edge">
<title>Node16&#45;&gt;Node12</title>
<path fill="none" stroke="midnightblue" d="M901.19,-308.32C913.46,-308.12 926.23,-307.91 938.56,-307.71"/>
<polygon fill="midnightblue" stroke="midnightblue" points="938.85,-311.21 948.79,-307.55 938.73,-304.21 938.85,-311.21"/>
</g>
<!-- Node18 -->
<g id="node18" class="node">
<title>Node18</title>
<g id="a_node18"><a xlink:href="classsignal__easel_1_1BitStream.html#a9df75eb28c03717c9fad2d30a85de6e6" target="_top" xlink:title=" ">
<polygon fill="none" stroke="black" points="762,-245.5 762,-275.5 894,-275.5 894,-245.5 762,-245.5"/>
<text text-anchor="start" x="770" y="-263.5" font-family="Helvetica,sans-Serif" font-size="10.00">signal_easel::BitStream</text>
<text text-anchor="middle" x="828" y="-252.5" font-family="Helvetica,sans-Serif" font-size="10.00">::addBits</text>
</a>
</g>
</g>
<!-- Node17&#45;&gt;Node18 -->
<g id="edge18" class="edge">
<title>Node17&#45;&gt;Node18</title>
<path fill="none" stroke="midnightblue" d="M453.71,-226.54C472.33,-244.38 506.29,-273.13 542,-284.5 617.92,-308.68 710.64,-293.11 769.27,-278.13"/>
<polygon fill="midnightblue" stroke="midnightblue" points="770.32,-281.48 779.1,-275.55 768.53,-274.71 770.32,-281.48"/>
</g>
<!-- Node19 -->
<g id="node19" class="node">
<title>Node19</title>
<g id="a_node19"><a xlink:href="classsignal__easel_1_1BitStream.html#a81d4aea4c11f65e0c2b7ad2f0f0cc312" target="_top" xlink:title=" ">
<polygon fill="none" stroke="black" points="558.5,-245.5 558.5,-275.5 690.5,-275.5 690.5,-245.5 558.5,-245.5"/>
<text text-anchor="start" x="566.5" y="-263.5" font-family="Helvetica,sans-Serif" font-size="10.00">signal_easel::BitStream</text>
<text text-anchor="middle" x="624.5" y="-252.5" font-family="Helvetica,sans-Serif" font-size="10.00">::addOneBit</text>
</a>
</g>
</g>
<!-- Node17&#45;&gt;Node19 -->
<g id="edge19" class="edge">
<title>Node17&#45;&gt;Node19</title>
<path fill="none" stroke="midnightblue" d="M495.61,-226.53C515.09,-231.71 537.08,-237.55 557.26,-242.91"/>
<polygon fill="midnightblue" stroke="midnightblue" points="556.43,-246.31 567,-245.49 558.23,-239.54 556.43,-246.31"/>
</g>
<!-- Node20 -->
<g id="node20" class="node">
<title>Node20</title>
<g id="a_node20"><a xlink:href="classsignal__easel_1_1BitStream.html#abb315beec8c4d88115d9d4ec5f082863" target="_top" xlink:title=" ">
<polygon fill="none" stroke="black" points="558.5,-196.5 558.5,-226.5 690.5,-226.5 690.5,-196.5 558.5,-196.5"/>
<text text-anchor="start" x="566.5" y="-214.5" font-family="Helvetica,sans-Serif" font-size="10.00">signal_easel::BitStream</text>
<text text-anchor="middle" x="624.5" y="-203.5" font-family="Helvetica,sans-Serif" font-size="10.00">::addZeroBit</text>
</a>
</g>
</g>
<!-- Node17&#45;&gt;Node20 -->
<g id="edge21" class="edge">
<title>Node17&#45;&gt;Node20</title>
<path fill="none" stroke="midnightblue" d="M500.69,-211.5C515.9,-211.5 532.36,-211.5 548.14,-211.5"/>
<polygon fill="midnightblue" stroke="midnightblue" points="548.39,-215 558.39,-211.5 548.39,-208 548.39,-215"/>
</g>
<!-- Node21 -->
<g id="node21" class="node">
<title>Node21</title>
<g id="a_node21"><a xlink:href="classsignal__easel_1_1ax25_1_1Frame.html#a24e7d5ffc6504a3380e97142d1bc084e" target="_top" xlink:title="Builds all internal portions of the frame. Doesn&#39;t include the flags.">
<polygon fill="none" stroke="black" points="567.5,-147.5 567.5,-177.5 681.5,-177.5 681.5,-147.5 567.5,-147.5"/>
<text text-anchor="start" x="575.5" y="-165.5" font-family="Helvetica,sans-Serif" font-size="10.00">signal_easel::ax25</text>
<text text-anchor="middle" x="624.5" y="-154.5" font-family="Helvetica,sans-Serif" font-size="10.00">::Frame::buildFrame</text>
</a>
</g>
</g>
<!-- Node17&#45;&gt;Node21 -->
<g id="edge23" class="edge">
<title>Node17&#45;&gt;Node21</title>
<path fill="none" stroke="midnightblue" d="M495.61,-196.47C515.18,-191.27 537.28,-185.4 557.54,-180.02"/>
<polygon fill="midnightblue" stroke="midnightblue" points="558.55,-183.37 567.31,-177.42 556.75,-176.61 558.55,-183.37"/>
</g>
<!-- Node28 -->
<g id="node28" class="node">
<title>Node28</title>
<g id="a_node28"><a xlink:href="classsignal__easel_1_1BitStream.html#aa97152ef51f73088e103a7951134aa85" target="_top" xlink:title=" ">
<polygon fill="none" stroke="black" points="558.5,-98.5 558.5,-128.5 690.5,-128.5 690.5,-98.5 558.5,-98.5"/>
<text text-anchor="start" x="566.5" y="-116.5" font-family="Helvetica,sans-Serif" font-size="10.00">signal_easel::BitStream</text>
<text text-anchor="middle" x="624.5" y="-105.5" font-family="Helvetica,sans-Serif" font-size="10.00">::getBitStreamLength</text>
</a>
</g>
</g>
<!-- Node17&#45;&gt;Node28 -->
<g id="edge32" class="edge">
<title>Node17&#45;&gt;Node28</title>
<path fill="none" stroke="midnightblue" d="M489.36,-196.43C495.25,-193.61 500.95,-190.32 506,-186.5 527.56,-170.21 519.88,-153.02 542,-137.5 544.38,-135.83 546.87,-134.28 549.45,-132.83"/>
<polygon fill="midnightblue" stroke="midnightblue" points="551.11,-135.91 558.49,-128.32 547.98,-129.65 551.11,-135.91"/>
</g>
<!-- Node29 -->
<g id="node29" class="node">
<title>Node29</title>
<g id="a_node29"><a xlink:href="classsignal__easel_1_1BitStream.html#a5b5339586e09ca5c25a7e9ded0118ffb" target="_top" xlink:title="Returns the next bit of the bit stream that will be encoded.">
<polygon fill="none" stroke="black" points="558.5,-49.5 558.5,-79.5 690.5,-79.5 690.5,-49.5 558.5,-49.5"/>
<text text-anchor="start" x="566.5" y="-67.5" font-family="Helvetica,sans-Serif" font-size="10.00">signal_easel::BitStream</text>
<text text-anchor="middle" x="624.5" y="-56.5" font-family="Helvetica,sans-Serif" font-size="10.00">::popNextBit</text>
</a>
</g>
</g>
<!-- Node17&#45;&gt;Node29 -->
<g id="edge33" class="edge">
<title>Node17&#45;&gt;Node29</title>
<path fill="none" stroke="midnightblue" d="M492.82,-196.43C497.64,-193.65 502.15,-190.37 506,-186.5 538.73,-153.61 508.13,-120.22 542,-88.5 544.29,-86.35 546.77,-84.39 549.39,-82.61"/>
<polygon fill="midnightblue" stroke="midnightblue" points="551.28,-85.56 558.14,-77.49 547.74,-79.52 551.28,-85.56"/>
</g>
<!-- Node30 -->
<g id="node30" class="node">
<title>Node30</title>
<g id="a_node30"><a xlink:href="namespacesignal__easel_1_1ax25.html#a56c64a06f2dc7d2d270c32e1063400ae" target="_top" xlink:title="Reverse a byte.">
<polygon fill="none" stroke="black" points="571,-0.5 571,-30.5 678,-30.5 678,-0.5 571,-0.5"/>
<text text-anchor="start" x="579" y="-18.5" font-family="Helvetica,sans-Serif" font-size="10.00">signal_easel::ax25</text>
<text text-anchor="middle" x="624.5" y="-7.5" font-family="Helvetica,sans-Serif" font-size="10.00">::reverseByte</text>
</a>
</g>
</g>
<!-- Node17&#45;&gt;Node30 -->
<g id="edge34" class="edge">
<title>Node17&#45;&gt;Node30</title>
<path fill="none" stroke="midnightblue" d="M493.92,-196.47C498.4,-193.69 502.53,-190.4 506,-186.5 550.7,-136.24 495.55,-88.15 542,-39.5 547.44,-33.8 554.17,-29.43 561.39,-26.09"/>
<polygon fill="midnightblue" stroke="midnightblue" points="562.75,-29.32 570.77,-22.39 560.18,-22.81 562.75,-29.32"/>
</g>
<!-- Node19&#45;&gt;Node18 -->
<g id="edge20" class="edge">
<title>Node19&#45;&gt;Node18</title>
<path fill="none" stroke="midnightblue" d="M690.64,-260.5C710.12,-260.5 731.63,-260.5 751.7,-260.5"/>
<polygon fill="midnightblue" stroke="midnightblue" points="751.74,-264 761.74,-260.5 751.74,-257 751.74,-264"/>
</g>
<!-- Node20&#45;&gt;Node18 -->
<g id="edge22" class="edge">
<title>Node20&#45;&gt;Node18</title>
<path fill="none" stroke="midnightblue" d="M687.33,-226.53C708.89,-231.78 733.27,-237.71 755.55,-243.13"/>
<polygon fill="midnightblue" stroke="midnightblue" points="754.75,-246.53 765.29,-245.49 756.4,-239.73 754.75,-246.53"/>
</g>
<!-- Node22 -->
<g id="node22" class="node">
<title>Node22</title>
<g id="a_node22"><a xlink:href="namespacesignal__easel_1_1ax25.html#a6d799107f96d783e620cd508488ab8eb" target="_top" xlink:title="Calculate the Frame Check Sequence (FCS) on a vector of bytes.">
<polygon fill="none" stroke="black" points="774.5,-196.5 774.5,-226.5 881.5,-226.5 881.5,-196.5 774.5,-196.5"/>
<text text-anchor="start" x="782.5" y="-214.5" font-family="Helvetica,sans-Serif" font-size="10.00">signal_easel::ax25</text>
<text text-anchor="middle" x="828" y="-203.5" font-family="Helvetica,sans-Serif" font-size="10.00">::calculateFcs</text>
</a>
</g>
</g>
<!-- Node21&#45;&gt;Node22 -->
<g id="edge24" class="edge">
<title>Node21&#45;&gt;Node22</title>
<path fill="none" stroke="midnightblue" d="M681.63,-176.15C707.34,-182.4 737.91,-189.84 764.37,-196.27"/>
<polygon fill="midnightblue" stroke="midnightblue" points="763.74,-199.72 774.29,-198.68 765.4,-192.92 763.74,-199.72"/>
</g>
<!-- Node23 -->
<g id="node23" class="node">
<title>Node23</title>
<g id="a_node23"><a xlink:href="classsignal__easel_1_1ax25_1_1Address.html#a0c31737081a9184b56dc32150b23cb0a" target="_top" xlink:title="Get the address as a byte array.">
<polygon fill="none" stroke="black" points="757,-147.5 757,-177.5 899,-177.5 899,-147.5 757,-147.5"/>
<text text-anchor="start" x="765" y="-165.5" font-family="Helvetica,sans-Serif" font-size="10.00">signal_easel::ax25</text>
<text text-anchor="middle" x="828" y="-154.5" font-family="Helvetica,sans-Serif" font-size="10.00">::Address::encodeAddress</text>
</a>
</g>
</g>
<!-- Node21&#45;&gt;Node23 -->
<g id="edge25" class="edge">
<title>Node21&#45;&gt;Node23</title>
<path fill="none" stroke="midnightblue" d="M681.63,-162.5C701.73,-162.5 724.81,-162.5 746.57,-162.5"/>
<polygon fill="midnightblue" stroke="midnightblue" points="746.79,-166 756.79,-162.5 746.79,-159 746.79,-166"/>
</g>
<!-- Node24 -->
<g id="node24" class="node">
<title>Node24</title>
<g id="a_node24"><a xlink:href="classsignal__easel_1_1ax25_1_1Frame.html#a640edeabbda34e78cc243e3561747bf9" target="_top" xlink:title=" ">
<polygon fill="none" stroke="black" points="767,-98.5 767,-128.5 889,-128.5 889,-98.5 767,-98.5"/>
<text text-anchor="start" x="775" y="-116.5" font-family="Helvetica,sans-Serif" font-size="10.00">signal_easel::ax25</text>
<text text-anchor="middle" x="828" y="-105.5" font-family="Helvetica,sans-Serif" font-size="10.00">::Frame::isFrameValid</text>
</a>
</g>
</g>
<!-- Node21&#45;&gt;Node24 -->
<g id="edge27" class="edge">
<title>Node21&#45;&gt;Node24</title>
<path fill="none" stroke="midnightblue" d="M681.63,-148.85C704.96,-143.18 732.3,-136.53 756.93,-130.54"/>
<polygon fill="midnightblue" stroke="midnightblue" points="758.05,-133.87 766.94,-128.1 756.4,-127.07 758.05,-133.87"/>
</g>
<!-- Node27 -->
<g id="node27" class="node">
<title>Node27</title>
<g id="a_node27"><a xlink:href="classsignal__easel_1_1ax25_1_1Address.html#a1a5bc573535cfc1f8723c121e3451e7c" target="_top" xlink:title="Set the as the last address in the AX.25 frame (Sets a bit in the ssid byte)">
<polygon fill="none" stroke="black" points="753,-49.5 753,-79.5 903,-79.5 903,-49.5 753,-49.5"/>
<text text-anchor="start" x="761" y="-67.5" font-family="Helvetica,sans-Serif" font-size="10.00">signal_easel::ax25</text>
<text text-anchor="middle" x="828" y="-56.5" font-family="Helvetica,sans-Serif" font-size="10.00">::Address::setIsLastAddress</text>
</a>
</g>
</g>
<!-- Node21&#45;&gt;Node27 -->
<g id="edge31" class="edge">
<title>Node21&#45;&gt;Node27</title>
<path fill="none" stroke="midnightblue" d="M681.66,-150.5C690.6,-147.15 699.4,-142.9 707,-137.5 729.03,-121.86 720.82,-103.93 743,-88.5 745.26,-86.93 747.62,-85.46 750.05,-84.09"/>
<polygon fill="midnightblue" stroke="midnightblue" points="751.78,-87.14 759.15,-79.53 748.64,-80.88 751.78,-87.14"/>
</g>
<!-- Node23&#45;&gt;Node12 -->
<g id="edge26" class="edge">
<title>Node23&#45;&gt;Node12</title>
<path fill="none" stroke="midnightblue" d="M896.2,-177.67C902.09,-180.18 907.79,-183.11 913,-186.5 951.22,-211.39 982.38,-255.36 999.26,-282.61"/>
<polygon fill="midnightblue" stroke="midnightblue" points="996.46,-284.74 1004.62,-291.49 1002.45,-281.12 996.46,-284.74"/>
</g>
<!-- Node25 -->
<g id="node25" class="node">
<title>Node25</title>
<g id="a_node25"><a xlink:href="classsignal__easel_1_1ax25_1_1Address.html#aae81920cfd0dc7d89cb107f9d825488c" target="_top" xlink:title="If the address is valid (can be encoded correctly or was decoded)">
<polygon fill="none" stroke="black" points="960.5,-122.5 960.5,-152.5 1067.5,-152.5 1067.5,-122.5 960.5,-122.5"/>
<text text-anchor="start" x="968.5" y="-140.5" font-family="Helvetica,sans-Serif" font-size="10.00">signal_easel::ax25</text>
<text text-anchor="middle" x="1014" y="-129.5" font-family="Helvetica,sans-Serif" font-size="10.00">::Address::isValid</text>
</a>
</g>
</g>
<!-- Node24&#45;&gt;Node25 -->
<g id="edge28" class="edge">
<title>Node24&#45;&gt;Node25</title>
<path fill="none" stroke="midnightblue" d="M889.25,-121.36C908.79,-123.91 930.52,-126.74 950.24,-129.31"/>
<polygon fill="midnightblue" stroke="midnightblue" points="949.99,-132.81 960.35,-130.63 950.89,-125.87 949.99,-132.81"/>
</g>
<!-- Node25&#45;&gt;Node15 -->
<g id="edge30" class="edge">
<title>Node25&#45;&gt;Node15</title>
<path fill="none" stroke="midnightblue" d="M1062.34,-152.54C1078.92,-157.59 1097.71,-163.05 1115,-167.5 1179.28,-184.04 1253.34,-199.66 1305.93,-210.18"/>
<polygon fill="midnightblue" stroke="midnightblue" points="1305.34,-213.63 1315.83,-212.15 1306.7,-206.76 1305.34,-213.63"/>
</g>
<!-- Node26 -->
<g id="node26" class="node">
<title>Node26</title>
<g id="a_node26"><a xlink:href="classsignal__easel_1_1ax25_1_1Address.html#a56c55b48bfc809a33aa0e22a5aeb95ca" target="_top" xlink:title=" ">
<polygon fill="none" stroke="black" points="1126,-117 1126,-158 1269,-158 1269,-117 1126,-117"/>
<text text-anchor="start" x="1134" y="-146" font-family="Helvetica,sans-Serif" font-size="10.00">signal_easel::ax25</text>
<text text-anchor="start" x="1134" y="-135" font-family="Helvetica,sans-Serif" font-size="10.00">::Address::isAddressString</text>
<text text-anchor="middle" x="1197.5" y="-124" font-family="Helvetica,sans-Serif" font-size="10.00">Valid</text>
</a>
</g>
</g>
<!-- Node25&#45;&gt;Node26 -->
<g id="edge29" class="edge">
<title>Node25&#45;&gt;Node26</title>
<path fill="none" stroke="midnightblue" d="M1067.99,-137.5C1082.98,-137.5 1099.64,-137.5 1115.87,-137.5"/>
<polygon fill="midnightblue" stroke="midnightblue" points="1115.89,-141 1125.89,-137.5 1115.89,-134 1115.89,-141"/>
</g>
</g>
</svg>
