<?xml version="1.0" encoding="UTF-8" standalone="no"?>
<!DOCTYPE svg PUBLIC "-//W3C//DTD SVG 1.1//EN"
 "http://www.w3.org/Graphics/SVG/1.1/DTD/svg11.dtd">
<!-- Generated by graphviz version 2.43.0 (0)
 -->
<!-- Title: signal_easel::afsk::Modulator Pages: 1 -->
<svg width="1028pt" height="728pt"
 viewBox="0.00 0.00 1028.00 728.00" xmlns="http://www.w3.org/2000/svg" xmlns:xlink="http://www.w3.org/1999/xlink">
<g id="graph0" class="graph" transform="scale(1 1) rotate(0) translate(4 724)">
<title>signal_easel::afsk::Modulator</title>
<!-- Node1 -->
<g id="node1" class="node">
<title>Node1</title>
<g id="a_node1"><a xlink:title="Modulates data into an AFSK signal.">
<polygon fill="#bfbfbf" stroke="black" points="474,-0.5 474,-101.5 578,-101.5 578,-0.5 474,-0.5"/>
<text text-anchor="start" x="482" y="-89.5" font-family="Helvetica,sans-Serif" font-size="10.00">signal_easel::afsk</text>
<text text-anchor="middle" x="526" y="-78.5" font-family="Helvetica,sans-Serif" font-size="10.00">::Modulator</text>
<polyline fill="none" stroke="black" points="474,-71.5 578,-71.5 "/>
<text text-anchor="middle" x="526" y="-59.5" font-family="Helvetica,sans-Serif" font-size="10.00"> </text>
<polyline fill="none" stroke="black" points="474,-52.5 578,-52.5 "/>
<text text-anchor="start" x="482" y="-40.5" font-family="Helvetica,sans-Serif" font-size="10.00">+ Modulator()</text>
<text text-anchor="start" x="482" y="-29.5" font-family="Helvetica,sans-Serif" font-size="10.00">+ ~Modulator()</text>
<text text-anchor="start" x="482" y="-18.5" font-family="Helvetica,sans-Serif" font-size="10.00"># encodeBytes()</text>
<text text-anchor="start" x="482" y="-7.5" font-family="Helvetica,sans-Serif" font-size="10.00">&#45; convertToNRZI()</text>
</a>
</g>
</g>
<!-- Node2 -->
<g id="node2" class="node">
<title>Node2</title>
<g id="a_node2"><a xlink:href="classsignal__easel_1_1DataModulator.html" target="_top" xlink:title="Another abstract base class for modulators that turn text/binary data into audio.">
<polygon fill="none" stroke="black" points="85,-193.5 85,-294.5 241,-294.5 241,-193.5 85,-193.5"/>
<text text-anchor="middle" x="163" y="-282.5" font-family="Helvetica,sans-Serif" font-size="10.00">signal_easel::DataModulator</text>
<polyline fill="none" stroke="black" points="85,-275.5 241,-275.5 "/>
<text text-anchor="middle" x="163" y="-263.5" font-family="Helvetica,sans-Serif" font-size="10.00"> </text>
<polyline fill="none" stroke="black" points="85,-256.5 241,-256.5 "/>
<text text-anchor="start" x="93" y="-244.5" font-family="Helvetica,sans-Serif" font-size="10.00">+ DataModulator()</text>
<text text-anchor="start" x="93" y="-233.5" font-family="Helvetica,sans-Serif" font-size="10.00">+ ~DataModulator()</text>
<text text-anchor="start" x="93" y="-222.5" font-family="Helvetica,sans-Serif" font-size="10.00">+ addBytes()</text>
<text text-anchor="start" x="93" y="-211.5" font-family="Helvetica,sans-Serif" font-size="10.00">+ addString()</text>
<text text-anchor="start" x="93" y="-200.5" font-family="Helvetica,sans-Serif" font-size="10.00"># encodeBytes()</text>
</a>
</g>
</g>
<!-- Node2&#45;&gt;Node1 -->
<g id="edge1" class="edge">
<title>Node2&#45;&gt;Node1</title>
<path fill="none" stroke="midnightblue" d="M196.05,-184.78C211.99,-161.48 233.09,-136.35 258,-120 324.32,-76.47 416.69,-60.81 473.84,-55.17"/>
<polygon fill="none" stroke="midnightblue" points="193.04,-183 190.42,-193.26 198.87,-186.87 193.04,-183"/>
</g>
<!-- Node3 -->
<g id="node3" class="node">
<title>Node3</title>
<g id="a_node3"><a xlink:href="classsignal__easel_1_1Modulator.html" target="_top" xlink:title="The abstract base class for all modulators that turn data into audio.">
<polygon fill="none" stroke="black" points="81.5,-342.5 81.5,-487.5 214.5,-487.5 214.5,-342.5 81.5,-342.5"/>
<text text-anchor="middle" x="148" y="-475.5" font-family="Helvetica,sans-Serif" font-size="10.00">signal_easel::Modulator</text>
<polyline fill="none" stroke="black" points="81.5,-468.5 214.5,-468.5 "/>
<text text-anchor="middle" x="148" y="-456.5" font-family="Helvetica,sans-Serif" font-size="10.00"> </text>
<polyline fill="none" stroke="black" points="81.5,-449.5 214.5,-449.5 "/>
<text text-anchor="start" x="89.5" y="-437.5" font-family="Helvetica,sans-Serif" font-size="10.00">+ Modulator()</text>
<text text-anchor="start" x="89.5" y="-426.5" font-family="Helvetica,sans-Serif" font-size="10.00">+ ~Modulator()</text>
<text text-anchor="start" x="89.5" y="-415.5" font-family="Helvetica,sans-Serif" font-size="10.00">+ clearBuffer()</text>
<text text-anchor="start" x="89.5" y="-404.5" font-family="Helvetica,sans-Serif" font-size="10.00">+ writeToFile()</text>
<text text-anchor="start" x="89.5" y="-393.5" font-family="Helvetica,sans-Serif" font-size="10.00">+ writeToPulseAudio()</text>
<text text-anchor="start" x="89.5" y="-382.5" font-family="Helvetica,sans-Serif" font-size="10.00"># addAudioSample()</text>
<text text-anchor="start" x="89.5" y="-371.5" font-family="Helvetica,sans-Serif" font-size="10.00"># addSilence()</text>
<text text-anchor="start" x="89.5" y="-360.5" font-family="Helvetica,sans-Serif" font-size="10.00"># addSineWave()</text>
<text text-anchor="start" x="89.5" y="-349.5" font-family="Helvetica,sans-Serif" font-size="10.00">&#45; addMorseCode()</text>
</a>
</g>
</g>
<!-- Node3&#45;&gt;Node2 -->
<g id="edge2" class="edge">
<title>Node3&#45;&gt;Node2</title>
<path fill="none" stroke="midnightblue" d="M155.27,-332.08C156.41,-319.24 157.56,-306.33 158.6,-294.52"/>
<polygon fill="none" stroke="midnightblue" points="151.76,-332.06 154.36,-342.33 158.73,-332.68 151.76,-332.06"/>
</g>
<!-- Node4 -->
<g id="node4" class="node">
<title>Node4</title>
<g id="a_node4"><a xlink:title=" ">
<polygon fill="none" stroke="#bfbfbf" points="247,-662.5 247,-719.5 297,-719.5 297,-662.5 247,-662.5"/>
<text text-anchor="middle" x="272" y="-707.5" font-family="Helvetica,sans-Serif" font-size="10.00">double</text>
<polyline fill="none" stroke="#bfbfbf" points="247,-700.5 297,-700.5 "/>
<text text-anchor="middle" x="272" y="-688.5" font-family="Helvetica,sans-Serif" font-size="10.00"> </text>
<polyline fill="none" stroke="#bfbfbf" points="247,-681.5 297,-681.5 "/>
<text text-anchor="middle" x="272" y="-669.5" font-family="Helvetica,sans-Serif" font-size="10.00"> </text>
</a>
</g>
</g>
<!-- Node4&#45;&gt;Node1 -->
<g id="edge14" class="edge">
<title>Node4&#45;&gt;Node1</title>
<path fill="none" stroke="#404040" d="M272,-662.2C272,-636.87 272,-598.42 272,-565 272,-565 272,-565 272,-243 272,-147.95 387.04,-94.33 462.28,-69.42"/>
<polygon fill="none" stroke="#404040" points="462.56,-69.33 467.05,-63.69 473.99,-65.67 469.49,-71.31 462.56,-69.33"/>
<text text-anchor="start" x="272" y="-429" font-family="Helvetica,sans-Serif" font-size="10.00"> &#45;CENTER_OVER_SAMPLE</text>
<text text-anchor="middle" x="334" y="-418" font-family="Helvetica,sans-Serif" font-size="10.00">_FREQ_</text>
<text text-anchor="start" x="272" y="-407" font-family="Helvetica,sans-Serif" font-size="10.00">&#45;DELTA_OVER_SAMPLE</text>
<text text-anchor="middle" x="334" y="-396" font-family="Helvetica,sans-Serif" font-size="10.00">_FREQ_</text>
</g>
<!-- Node4&#45;&gt;Node3 -->
<g id="edge3" class="edge">
<title>Node4&#45;&gt;Node3</title>
<path fill="none" stroke="#404040" d="M246.52,-676.42C219.45,-660.45 178.01,-631.19 159,-593 144.89,-564.65 140.34,-530.51 139.95,-499.81"/>
<polygon fill="none" stroke="#404040" points="139.95,-499.79 135.98,-493.77 140,-487.79 143.98,-493.81 139.95,-499.79"/>
<text text-anchor="middle" x="208.5" y="-561.5" font-family="Helvetica,sans-Serif" font-size="10.00"> &#45;sine_wave_phase_</text>
</g>
<!-- Node6 -->
<g id="node6" class="node">
<title>Node6</title>
<g id="a_node6"><a xlink:href="structsignal__easel_1_1Settings.html" target="_top" xlink:title="The universal settings for MWAV.">
<polygon fill="none" stroke="black" points="352.5,-535.5 352.5,-592.5 475.5,-592.5 475.5,-535.5 352.5,-535.5"/>
<text text-anchor="middle" x="414" y="-580.5" font-family="Helvetica,sans-Serif" font-size="10.00">signal_easel::Settings</text>
<polyline fill="none" stroke="black" points="352.5,-573.5 475.5,-573.5 "/>
<text text-anchor="middle" x="414" y="-561.5" font-family="Helvetica,sans-Serif" font-size="10.00"> </text>
<polyline fill="none" stroke="black" points="352.5,-554.5 475.5,-554.5 "/>
<text text-anchor="middle" x="414" y="-542.5" font-family="Helvetica,sans-Serif" font-size="10.00"> </text>
</a>
</g>
</g>
<!-- Node4&#45;&gt;Node6 -->
<g id="edge6" class="edge">
<title>Node4&#45;&gt;Node6</title>
<path fill="none" stroke="#404040" d="M285.63,-662.15C294.74,-645.7 307.98,-625.35 324,-611 329.36,-606.2 335.31,-601.76 341.52,-597.68"/>
<polygon fill="none" stroke="#404040" points="341.94,-597.43 344.97,-590.88 352.18,-591.17 349.14,-597.71 341.94,-597.43"/>
<text text-anchor="middle" x="367" y="-636" font-family="Helvetica,sans-Serif" font-size="10.00"> +amplitude</text>
<text text-anchor="start" x="324" y="-625" font-family="Helvetica,sans-Serif" font-size="10.00">+call_sign_pause</text>
<text text-anchor="middle" x="367" y="-614" font-family="Helvetica,sans-Serif" font-size="10.00">_seconds</text>
</g>
<!-- Node5 -->
<g id="node5" class="node">
<title>Node5</title>
<g id="a_node5"><a xlink:title=" ">
<polygon fill="none" stroke="#bfbfbf" points="0,-535.5 0,-592.5 104,-592.5 104,-535.5 0,-535.5"/>
<text text-anchor="middle" x="52" y="-580.5" font-family="Helvetica,sans-Serif" font-size="10.00">vector&lt; int16_t &gt;</text>
<polyline fill="none" stroke="#bfbfbf" points="0,-573.5 104,-573.5 "/>
<text text-anchor="middle" x="52" y="-561.5" font-family="Helvetica,sans-Serif" font-size="10.00"> </text>
<polyline fill="none" stroke="#bfbfbf" points="0,-554.5 104,-554.5 "/>
<text text-anchor="middle" x="52" y="-542.5" font-family="Helvetica,sans-Serif" font-size="10.00"> </text>
</a>
</g>
</g>
<!-- Node5&#45;&gt;Node3 -->
<g id="edge4" class="edge">
<title>Node5&#45;&gt;Node3</title>
<path fill="none" stroke="#404040" d="M48.22,-535.39C47.98,-525.74 49.01,-515.06 53,-506 57.88,-494.93 64.84,-484.57 72.8,-475.1"/>
<polygon fill="none" stroke="#404040" points="73.02,-474.86 74.07,-467.72 81.06,-465.94 80.01,-473.08 73.02,-474.86"/>
<text text-anchor="middle" x="92" y="-509" font-family="Helvetica,sans-Serif" font-size="10.00"> #audio_buffer_</text>
</g>
<!-- Node6&#45;&gt;Node3 -->
<g id="edge5" class="edge">
<title>Node6&#45;&gt;Node3</title>
<path fill="none" stroke="#404040" d="M352.29,-538.01C320.96,-524.52 282.71,-506.8 250,-488 241.65,-483.2 233.13,-477.9 224.74,-472.41"/>
<polygon fill="none" stroke="#404040" points="224.58,-472.31 217.37,-472.3 214.6,-465.65 221.81,-465.65 224.58,-472.31"/>
<text text-anchor="middle" x="331" y="-509" font-family="Helvetica,sans-Serif" font-size="10.00"> #settings_</text>
</g>
<!-- Node10 -->
<g id="node10" class="node">
<title>Node10</title>
<g id="a_node10"><a xlink:href="structsignal__easel_1_1afsk_1_1Settings.html" target="_top" xlink:title="Settings for AFSK modulation/demodulation.">
<polygon fill="none" stroke="black" points="454,-210 454,-278 558,-278 558,-210 454,-210"/>
<text text-anchor="start" x="462" y="-266" font-family="Helvetica,sans-Serif" font-size="10.00">signal_easel::afsk</text>
<text text-anchor="middle" x="506" y="-255" font-family="Helvetica,sans-Serif" font-size="10.00">::Settings</text>
<polyline fill="none" stroke="black" points="454,-248 558,-248 "/>
<text text-anchor="middle" x="506" y="-236" font-family="Helvetica,sans-Serif" font-size="10.00"> </text>
<polyline fill="none" stroke="black" points="454,-229 558,-229 "/>
<text text-anchor="middle" x="506" y="-217" font-family="Helvetica,sans-Serif" font-size="10.00"> </text>
</a>
</g>
</g>
<!-- Node6&#45;&gt;Node10 -->
<g id="edge11" class="edge">
<title>Node6&#45;&gt;Node10</title>
<path fill="none" stroke="midnightblue" d="M412.24,-525.02C411.48,-473.84 415.91,-381.31 452,-313 458.41,-300.87 467.08,-288.77 475.61,-278.21"/>
<polygon fill="none" stroke="midnightblue" points="408.75,-525.37 412.47,-535.28 415.74,-525.21 408.75,-525.37"/>
</g>
<!-- Node7 -->
<g id="node7" class="node">
<title>Node7</title>
<g id="a_node7"><a xlink:title=" ">
<polygon fill="none" stroke="#bfbfbf" points="372.5,-662.5 372.5,-719.5 455.5,-719.5 455.5,-662.5 372.5,-662.5"/>
<text text-anchor="middle" x="414" y="-707.5" font-family="Helvetica,sans-Serif" font-size="10.00">CallSignMode</text>
<polyline fill="none" stroke="#bfbfbf" points="372.5,-700.5 455.5,-700.5 "/>
<text text-anchor="middle" x="414" y="-688.5" font-family="Helvetica,sans-Serif" font-size="10.00"> </text>
<polyline fill="none" stroke="#bfbfbf" points="372.5,-681.5 455.5,-681.5 "/>
<text text-anchor="middle" x="414" y="-669.5" font-family="Helvetica,sans-Serif" font-size="10.00"> </text>
</a>
</g>
</g>
<!-- Node7&#45;&gt;Node6 -->
<g id="edge7" class="edge">
<title>Node7&#45;&gt;Node6</title>
<path fill="none" stroke="#404040" d="M414,-662.26C414,-645.35 414,-623.46 414,-604.73"/>
<polygon fill="none" stroke="#404040" points="414,-604.66 410,-598.66 414,-592.66 418,-598.66 414,-604.66"/>
<text text-anchor="middle" x="458" y="-625" font-family="Helvetica,sans-Serif" font-size="10.00"> +call_sign_mode</text>
</g>
<!-- Node8 -->
<g id="node8" class="node">
<title>Node8</title>
<g id="a_node8"><a xlink:title=" ">
<polygon fill="none" stroke="#bfbfbf" points="503,-662.5 503,-719.5 547,-719.5 547,-662.5 503,-662.5"/>
<text text-anchor="middle" x="525" y="-707.5" font-family="Helvetica,sans-Serif" font-size="10.00">string</text>
<polyline fill="none" stroke="#bfbfbf" points="503,-700.5 547,-700.5 "/>
<text text-anchor="middle" x="525" y="-688.5" font-family="Helvetica,sans-Serif" font-size="10.00"> </text>
<polyline fill="none" stroke="#bfbfbf" points="503,-681.5 547,-681.5 "/>
<text text-anchor="middle" x="525" y="-669.5" font-family="Helvetica,sans-Serif" font-size="10.00"> </text>
</a>
</g>
</g>
<!-- Node8&#45;&gt;Node6 -->
<g id="edge8" class="edge">
<title>Node8&#45;&gt;Node6</title>
<path fill="none" stroke="#404040" d="M522.8,-662.24C520.25,-645.82 514.77,-625.47 503,-611 498.18,-605.07 492.38,-599.81 486.1,-595.18"/>
<polygon fill="none" stroke="#404040" points="485.88,-595.04 478.67,-595.06 475.88,-588.41 483.09,-588.39 485.88,-595.04"/>
<text text-anchor="middle" x="546.5" y="-625" font-family="Helvetica,sans-Serif" font-size="10.00"> +call_sign</text>
</g>
<!-- Node9 -->
<g id="node9" class="node">
<title>Node9</title>
<g id="a_node9"><a xlink:title=" ">
<polygon fill="none" stroke="#bfbfbf" points="372,-215.5 372,-272.5 416,-272.5 416,-215.5 372,-215.5"/>
<text text-anchor="middle" x="394" y="-260.5" font-family="Helvetica,sans-Serif" font-size="10.00">int8_t</text>
<polyline fill="none" stroke="#bfbfbf" points="372,-253.5 416,-253.5 "/>
<text text-anchor="middle" x="394" y="-241.5" font-family="Helvetica,sans-Serif" font-size="10.00"> </text>
<polyline fill="none" stroke="#bfbfbf" points="372,-234.5 416,-234.5 "/>
<text text-anchor="middle" x="394" y="-222.5" font-family="Helvetica,sans-Serif" font-size="10.00"> </text>
</a>
</g>
</g>
<!-- Node9&#45;&gt;Node1 -->
<g id="edge9" class="edge">
<title>Node9&#45;&gt;Node1</title>
<path fill="none" stroke="#404040" d="M388.34,-215.28C384.49,-188.71 382.91,-148.55 401,-120 415.15,-97.67 439.3,-82.13 462.63,-71.6"/>
<polygon fill="none" stroke="#404040" points="462.91,-71.48 466.88,-65.47 473.97,-66.83 469.99,-72.84 462.91,-71.48"/>
<text text-anchor="start" x="401" y="-156" font-family="Helvetica,sans-Serif" font-size="10.00"> &#45;current_bipolar_bit</text>
<text text-anchor="middle" x="455.5" y="-145" font-family="Helvetica,sans-Serif" font-size="10.00">_</text>
<text text-anchor="middle" x="455.5" y="-134" font-family="Helvetica,sans-Serif" font-size="10.00">&#45;previous_bipolar_bit_</text>
</g>
<!-- Node10&#45;&gt;Node1 -->
<g id="edge10" class="edge">
<title>Node10&#45;&gt;Node1</title>
<path fill="none" stroke="#404040" d="M509.48,-209.73C512.24,-183.41 516.17,-145.91 519.5,-114.08"/>
<polygon fill="none" stroke="#404040" points="519.54,-113.67 516.19,-107.29 520.79,-101.74 524.15,-108.12 519.54,-113.67"/>
<text text-anchor="middle" x="545" y="-145" font-family="Helvetica,sans-Serif" font-size="10.00"> &#45;settings_</text>
</g>
<!-- Node11 -->
<g id="node11" class="node">
<title>Node11</title>
<g id="a_node11"><a xlink:title=" ">
<polygon fill="none" stroke="#bfbfbf" points="452,-386.5 452,-443.5 526,-443.5 526,-386.5 452,-386.5"/>
<text text-anchor="middle" x="489" y="-431.5" font-family="Helvetica,sans-Serif" font-size="10.00">BitEncoding</text>
<polyline fill="none" stroke="#bfbfbf" points="452,-424.5 526,-424.5 "/>
<text text-anchor="middle" x="489" y="-412.5" font-family="Helvetica,sans-Serif" font-size="10.00"> </text>
<polyline fill="none" stroke="#bfbfbf" points="452,-405.5 526,-405.5 "/>
<text text-anchor="middle" x="489" y="-393.5" font-family="Helvetica,sans-Serif" font-size="10.00"> </text>
</a>
</g>
</g>
<!-- Node11&#45;&gt;Node10 -->
<g id="edge12" class="edge">
<title>Node11&#45;&gt;Node10</title>
<path fill="none" stroke="#404040" d="M471.12,-386.09C460.37,-365.79 450.18,-337.65 458,-313 460.74,-304.38 465,-295.91 469.89,-288.04"/>
<polygon fill="none" stroke="#404040" points="469.9,-288.02 469.92,-280.81 476.59,-278.06 476.56,-285.27 469.9,-288.02"/>
<text text-anchor="middle" x="495" y="-316" font-family="Helvetica,sans-Serif" font-size="10.00"> +bit_encoding</text>
</g>
<!-- Node12 -->
<g id="node12" class="node">
<title>Node12</title>
<g id="a_node12"><a xlink:title=" ">
<polygon fill="none" stroke="#bfbfbf" points="607,-386.5 607,-443.5 645,-443.5 645,-386.5 607,-386.5"/>
<text text-anchor="middle" x="626" y="-431.5" font-family="Helvetica,sans-Serif" font-size="10.00">bool</text>
<polyline fill="none" stroke="#bfbfbf" points="607,-424.5 645,-424.5 "/>
<text text-anchor="middle" x="626" y="-412.5" font-family="Helvetica,sans-Serif" font-size="10.00"> </text>
<polyline fill="none" stroke="#bfbfbf" points="607,-405.5 645,-405.5 "/>
<text text-anchor="middle" x="626" y="-393.5" font-family="Helvetica,sans-Serif" font-size="10.00"> </text>
</a>
</g>
</g>
<!-- Node12&#45;&gt;Node1 -->
<g id="edge17" class="edge">
<title>Node12&#45;&gt;Node1</title>
<path fill="none" stroke="#404040" d="M645.19,-393.66C661.48,-373.9 681.16,-342.63 674,-313 655.83,-237.76 608.89,-161.93 572.7,-111.54"/>
<polygon fill="none" stroke="#404040" points="572.68,-111.52 565.91,-109.02 565.62,-101.81 572.38,-104.31 572.68,-111.52"/>
<text text-anchor="start" x="668" y="-247" font-family="Helvetica,sans-Serif" font-size="10.00"> &#45;nrzi_previous_tone</text>
<text text-anchor="middle" x="718" y="-236" font-family="Helvetica,sans-Serif" font-size="10.00">_mark_</text>
</g>
<!-- Node12&#45;&gt;Node10 -->
<g id="edge13" class="edge">
<title>Node12&#45;&gt;Node10</title>
<path fill="none" stroke="#404040" d="M606.88,-391.24C592.15,-373.36 571.57,-347.63 555,-324 547.13,-312.77 539.08,-300.29 531.84,-288.63"/>
<polygon fill="none" stroke="#404040" points="531.73,-288.44 525.18,-285.41 525.45,-278.21 532,-281.23 531.73,-288.44"/>
<text text-anchor="middle" x="614.5" y="-316" font-family="Helvetica,sans-Serif" font-size="10.00"> +include_ascii_padding</text>
</g>
<!-- Node13 -->
<g id="node13" class="node">
<title>Node13</title>
<g id="a_node13"><a xlink:title=" ">
<polygon fill="none" stroke="#bfbfbf" points="806,-215.5 806,-272.5 856,-272.5 856,-215.5 806,-215.5"/>
<text text-anchor="middle" x="831" y="-260.5" font-family="Helvetica,sans-Serif" font-size="10.00">int32_t</text>
<polyline fill="none" stroke="#bfbfbf" points="806,-253.5 856,-253.5 "/>
<text text-anchor="middle" x="831" y="-241.5" font-family="Helvetica,sans-Serif" font-size="10.00"> </text>
<polyline fill="none" stroke="#bfbfbf" points="806,-234.5 856,-234.5 "/>
<text text-anchor="middle" x="831" y="-222.5" font-family="Helvetica,sans-Serif" font-size="10.00"> </text>
</a>
</g>
</g>
<!-- Node13&#45;&gt;Node1 -->
<g id="edge15" class="edge">
<title>Node13&#45;&gt;Node1</title>
<path fill="none" stroke="#404040" d="M811.22,-215.34C805.36,-207.8 798.71,-199.84 792,-193 755.93,-156.24 746.57,-145.82 702,-120 666.88,-99.66 624.54,-83.08 590.18,-71.38"/>
<polygon fill="none" stroke="#404040" points="589.77,-71.25 582.81,-73.14 578.39,-67.45 585.34,-65.55 589.77,-71.25"/>
<text text-anchor="middle" x="814" y="-145" font-family="Helvetica,sans-Serif" font-size="10.00"> &#45;integral_value_</text>
</g>
<!-- Node14 -->
<g id="node14" class="node">
<title>Node14</title>
<g id="a_node14"><a xlink:title=" ">
<polygon fill="none" stroke="#bfbfbf" points="891,-215.5 891,-272.5 947,-272.5 947,-215.5 891,-215.5"/>
<text text-anchor="middle" x="919" y="-260.5" font-family="Helvetica,sans-Serif" font-size="10.00">uint32_t</text>
<polyline fill="none" stroke="#bfbfbf" points="891,-253.5 947,-253.5 "/>
<text text-anchor="middle" x="919" y="-241.5" font-family="Helvetica,sans-Serif" font-size="10.00"> </text>
<polyline fill="none" stroke="#bfbfbf" points="891,-234.5 947,-234.5 "/>
<text text-anchor="middle" x="919" y="-222.5" font-family="Helvetica,sans-Serif" font-size="10.00"> </text>
</a>
</g>
</g>
<!-- Node14&#45;&gt;Node1 -->
<g id="edge16" class="edge">
<title>Node14&#45;&gt;Node1</title>
<path fill="none" stroke="#404040" d="M913.12,-215.49C905.57,-187.1 889.61,-143.72 859,-120 817.77,-88.05 674.65,-67.8 590.05,-58.32"/>
<polygon fill="none" stroke="#404040" points="589.94,-58.31 583.54,-61.63 578.01,-57 584.41,-53.68 589.94,-58.31"/>
<text text-anchor="start" x="897" y="-167" font-family="Helvetica,sans-Serif" font-size="10.00"> &#45;OVER_SAMPLE_FACTOR</text>
<text text-anchor="middle" x="958.5" y="-156" font-family="Helvetica,sans-Serif" font-size="10.00">_</text>
<text text-anchor="start" x="897" y="-145" font-family="Helvetica,sans-Serif" font-size="10.00">&#45;SAMPLES_PER_SYMBOL</text>
<text text-anchor="middle" x="958.5" y="-134" font-family="Helvetica,sans-Serif" font-size="10.00">_</text>
<text text-anchor="middle" x="958.5" y="-123" font-family="Helvetica,sans-Serif" font-size="10.00">&#45;SAMPLE_FREQUENCY_</text>
</g>
</g>
</svg>
