<?xml version="1.0" encoding="UTF-8" standalone="no"?>
<!DOCTYPE svg PUBLIC "-//W3C//DTD SVG 1.1//EN"
 "http://www.w3.org/Graphics/SVG/1.1/DTD/svg11.dtd">
<!-- Generated by graphviz version 2.43.0 (0)
 -->
<!-- Title: signal_easel::ax25::Frame::encodeFrame Pages: 1 -->
<svg width="1010pt" height="261pt"
 viewBox="0.00 0.00 1010.00 261.24" xmlns="http://www.w3.org/2000/svg" xmlns:xlink="http://www.w3.org/1999/xlink">
<g id="graph0" class="graph" transform="scale(1 1) rotate(0) translate(4 257.24)">
<title>signal_easel::ax25::Frame::encodeFrame</title>
<!-- Node1 -->
<g id="node1" class="node">
<title>Node1</title>
<g id="a_node1"><a xlink:title="A step beyond buildFrame. This function builds the frame, does the bit stuffing, adds the flags,...">
<polygon fill="#bfbfbf" stroke="black" points="0,-125 0,-155 125,-155 125,-125 0,-125"/>
<text text-anchor="start" x="8" y="-143" font-family="Helvetica,sans-Serif" font-size="10.00">signal_easel::ax25</text>
<text text-anchor="middle" x="62.5" y="-132" font-family="Helvetica,sans-Serif" font-size="10.00">::Frame::encodeFrame</text>
</a>
</g>
</g>
<!-- Node2 -->
<g id="node2" class="node">
<title>Node2</title>
<g id="a_node2"><a xlink:href="classsignal__easel_1_1BitStream.html#a9df75eb28c03717c9fad2d30a85de6e6" target="_top" xlink:title=" ">
<polygon fill="none" stroke="black" points="338,-199 338,-229 470,-229 470,-199 338,-199"/>
<text text-anchor="start" x="346" y="-217" font-family="Helvetica,sans-Serif" font-size="10.00">signal_easel::BitStream</text>
<text text-anchor="middle" x="404" y="-206" font-family="Helvetica,sans-Serif" font-size="10.00">::addBits</text>
</a>
</g>
</g>
<!-- Node1&#45;&gt;Node2 -->
<g id="edge1" class="edge">
<title>Node1&#45;&gt;Node2</title>
<path fill="none" stroke="midnightblue" d="M72.58,-155.02C87.6,-178.21 120.06,-221.86 161,-239 224.19,-265.46 304.45,-248.36 354.78,-232.27"/>
<polygon fill="midnightblue" stroke="midnightblue" points="356.04,-235.54 364.44,-229.08 353.84,-228.89 356.04,-235.54"/>
</g>
<!-- Node3 -->
<g id="node3" class="node">
<title>Node3</title>
<g id="a_node3"><a xlink:href="classsignal__easel_1_1BitStream.html#a81d4aea4c11f65e0c2b7ad2f0f0cc312" target="_top" xlink:title=" ">
<polygon fill="none" stroke="black" points="161,-199 161,-229 293,-229 293,-199 161,-199"/>
<text text-anchor="start" x="169" y="-217" font-family="Helvetica,sans-Serif" font-size="10.00">signal_easel::BitStream</text>
<text text-anchor="middle" x="227" y="-206" font-family="Helvetica,sans-Serif" font-size="10.00">::addOneBit</text>
</a>
</g>
</g>
<!-- Node1&#45;&gt;Node3 -->
<g id="edge2" class="edge">
<title>Node1&#45;&gt;Node3</title>
<path fill="none" stroke="midnightblue" d="M90.81,-155.12C110.13,-165.54 136.79,-179.37 161,-190 165.08,-191.79 169.33,-193.56 173.63,-195.29"/>
<polygon fill="midnightblue" stroke="midnightblue" points="172.46,-198.59 183.05,-198.97 175.01,-192.07 172.46,-198.59"/>
</g>
<!-- Node4 -->
<g id="node4" class="node">
<title>Node4</title>
<g id="a_node4"><a xlink:href="classsignal__easel_1_1BitStream.html#abb315beec8c4d88115d9d4ec5f082863" target="_top" xlink:title=" ">
<polygon fill="none" stroke="black" points="161,-150 161,-180 293,-180 293,-150 161,-150"/>
<text text-anchor="start" x="169" y="-168" font-family="Helvetica,sans-Serif" font-size="10.00">signal_easel::BitStream</text>
<text text-anchor="middle" x="227" y="-157" font-family="Helvetica,sans-Serif" font-size="10.00">::addZeroBit</text>
</a>
</g>
</g>
<!-- Node1&#45;&gt;Node4 -->
<g id="edge4" class="edge">
<title>Node1&#45;&gt;Node4</title>
<path fill="none" stroke="midnightblue" d="M125.4,-149.52C133.71,-150.8 142.32,-152.13 150.83,-153.44"/>
<polygon fill="midnightblue" stroke="midnightblue" points="150.35,-156.9 160.76,-154.96 151.41,-149.98 150.35,-156.9"/>
</g>
<!-- Node5 -->
<g id="node5" class="node">
<title>Node5</title>
<g id="a_node5"><a xlink:href="classsignal__easel_1_1ax25_1_1Frame.html#a24e7d5ffc6504a3380e97142d1bc084e" target="_top" xlink:title="Builds all internal portions of the frame. Doesn&#39;t include the flags.">
<polygon fill="none" stroke="black" points="170,-101 170,-131 284,-131 284,-101 170,-101"/>
<text text-anchor="start" x="178" y="-119" font-family="Helvetica,sans-Serif" font-size="10.00">signal_easel::ax25</text>
<text text-anchor="middle" x="227" y="-108" font-family="Helvetica,sans-Serif" font-size="10.00">::Frame::buildFrame</text>
</a>
</g>
</g>
<!-- Node1&#45;&gt;Node5 -->
<g id="edge6" class="edge">
<title>Node1&#45;&gt;Node5</title>
<path fill="none" stroke="midnightblue" d="M125.4,-130.86C136.71,-129.19 148.54,-127.44 159.97,-125.75"/>
<polygon fill="midnightblue" stroke="midnightblue" points="160.49,-129.21 169.87,-124.29 159.47,-122.29 160.49,-129.21"/>
</g>
<!-- Node16 -->
<g id="node16" class="node">
<title>Node16</title>
<g id="a_node16"><a xlink:href="classsignal__easel_1_1BitStream.html#aa97152ef51f73088e103a7951134aa85" target="_top" xlink:title=" ">
<polygon fill="none" stroke="black" points="161,-52 161,-82 293,-82 293,-52 161,-52"/>
<text text-anchor="start" x="169" y="-70" font-family="Helvetica,sans-Serif" font-size="10.00">signal_easel::BitStream</text>
<text text-anchor="middle" x="227" y="-59" font-family="Helvetica,sans-Serif" font-size="10.00">::getBitStreamLength</text>
</a>
</g>
</g>
<!-- Node1&#45;&gt;Node16 -->
<g id="edge18" class="edge">
<title>Node1&#45;&gt;Node16</title>
<path fill="none" stroke="midnightblue" d="M91.68,-124.78C110.94,-114.64 137.19,-101.34 161,-91 165.08,-89.23 169.34,-87.47 173.64,-85.75"/>
<polygon fill="midnightblue" stroke="midnightblue" points="175.03,-88.97 183.07,-82.07 172.48,-82.44 175.03,-88.97"/>
</g>
<!-- Node17 -->
<g id="node17" class="node">
<title>Node17</title>
<g id="a_node17"><a xlink:href="classsignal__easel_1_1BitStream.html#a5b5339586e09ca5c25a7e9ded0118ffb" target="_top" xlink:title="Returns the next bit of the bit stream that will be encoded.">
<polygon fill="none" stroke="black" points="161,-3 161,-33 293,-33 293,-3 161,-3"/>
<text text-anchor="start" x="169" y="-21" font-family="Helvetica,sans-Serif" font-size="10.00">signal_easel::BitStream</text>
<text text-anchor="middle" x="227" y="-10" font-family="Helvetica,sans-Serif" font-size="10.00">::popNextBit</text>
</a>
</g>
</g>
<!-- Node1&#45;&gt;Node17 -->
<g id="edge19" class="edge">
<title>Node1&#45;&gt;Node17</title>
<path fill="none" stroke="midnightblue" d="M75.13,-124.68C91.96,-103.45 125.05,-65.08 161,-42 163.42,-40.45 165.95,-38.97 168.56,-37.58"/>
<polygon fill="midnightblue" stroke="midnightblue" points="170.19,-40.68 177.64,-33.14 167.12,-34.39 170.19,-40.68"/>
</g>
<!-- Node3&#45;&gt;Node2 -->
<g id="edge3" class="edge">
<title>Node3&#45;&gt;Node2</title>
<path fill="none" stroke="midnightblue" d="M293.16,-214C304.44,-214 316.24,-214 327.76,-214"/>
<polygon fill="midnightblue" stroke="midnightblue" points="327.78,-217.5 337.78,-214 327.78,-210.5 327.78,-217.5"/>
</g>
<!-- Node4&#45;&gt;Node2 -->
<g id="edge5" class="edge">
<title>Node4&#45;&gt;Node2</title>
<path fill="none" stroke="midnightblue" d="M281.93,-180.1C300.15,-185.2 320.65,-190.94 339.54,-196.23"/>
<polygon fill="midnightblue" stroke="midnightblue" points="338.67,-199.62 349.24,-198.95 340.56,-192.88 338.67,-199.62"/>
</g>
<!-- Node6 -->
<g id="node6" class="node">
<title>Node6</title>
<g id="a_node6"><a xlink:href="namespacesignal__easel_1_1ax25.html#a6d799107f96d783e620cd508488ab8eb" target="_top" xlink:title="Calculate the Frame Check Sequence (FCS) on a vector of bytes.">
<polygon fill="none" stroke="black" points="350.5,-150 350.5,-180 457.5,-180 457.5,-150 350.5,-150"/>
<text text-anchor="start" x="358.5" y="-168" font-family="Helvetica,sans-Serif" font-size="10.00">signal_easel::ax25</text>
<text text-anchor="middle" x="404" y="-157" font-family="Helvetica,sans-Serif" font-size="10.00">::calculateFcs</text>
</a>
</g>
</g>
<!-- Node5&#45;&gt;Node6 -->
<g id="edge7" class="edge">
<title>Node5&#45;&gt;Node6</title>
<path fill="none" stroke="midnightblue" d="M281.93,-131.1C300.49,-136.3 321.42,-142.16 340.6,-147.53"/>
<polygon fill="midnightblue" stroke="midnightblue" points="339.87,-150.96 350.45,-150.28 341.76,-144.22 339.87,-150.96"/>
</g>
<!-- Node7 -->
<g id="node7" class="node">
<title>Node7</title>
<g id="a_node7"><a xlink:href="classsignal__easel_1_1ax25_1_1Address.html#a0c31737081a9184b56dc32150b23cb0a" target="_top" xlink:title="Get the address as a byte array.">
<polygon fill="none" stroke="black" points="333,-101 333,-131 475,-131 475,-101 333,-101"/>
<text text-anchor="start" x="341" y="-119" font-family="Helvetica,sans-Serif" font-size="10.00">signal_easel::ax25</text>
<text text-anchor="middle" x="404" y="-108" font-family="Helvetica,sans-Serif" font-size="10.00">::Address::encodeAddress</text>
</a>
</g>
</g>
<!-- Node5&#45;&gt;Node7 -->
<g id="edge8" class="edge">
<title>Node5&#45;&gt;Node7</title>
<path fill="none" stroke="midnightblue" d="M284.33,-116C296.55,-116 309.71,-116 322.65,-116"/>
<polygon fill="midnightblue" stroke="midnightblue" points="322.96,-119.5 332.96,-116 322.96,-112.5 322.96,-119.5"/>
</g>
<!-- Node12 -->
<g id="node12" class="node">
<title>Node12</title>
<g id="a_node12"><a xlink:href="classsignal__easel_1_1ax25_1_1Frame.html#a640edeabbda34e78cc243e3561747bf9" target="_top" xlink:title=" ">
<polygon fill="none" stroke="black" points="343,-52 343,-82 465,-82 465,-52 343,-52"/>
<text text-anchor="start" x="351" y="-70" font-family="Helvetica,sans-Serif" font-size="10.00">signal_easel::ax25</text>
<text text-anchor="middle" x="404" y="-59" font-family="Helvetica,sans-Serif" font-size="10.00">::Frame::isFrameValid</text>
</a>
</g>
</g>
<!-- Node5&#45;&gt;Node12 -->
<g id="edge13" class="edge">
<title>Node5&#45;&gt;Node12</title>
<path fill="none" stroke="midnightblue" d="M281.93,-100.9C300.15,-95.8 320.65,-90.06 339.54,-84.77"/>
<polygon fill="midnightblue" stroke="midnightblue" points="340.56,-88.12 349.24,-82.05 338.67,-81.38 340.56,-88.12"/>
</g>
<!-- Node15 -->
<g id="node15" class="node">
<title>Node15</title>
<g id="a_node15"><a xlink:href="classsignal__easel_1_1ax25_1_1Address.html#a1a5bc573535cfc1f8723c121e3451e7c" target="_top" xlink:title="Set the as the last address in the AX.25 frame (Sets a bit in the ssid byte)">
<polygon fill="none" stroke="black" points="329,-3 329,-33 479,-33 479,-3 329,-3"/>
<text text-anchor="start" x="337" y="-21" font-family="Helvetica,sans-Serif" font-size="10.00">signal_easel::ax25</text>
<text text-anchor="middle" x="404" y="-10" font-family="Helvetica,sans-Serif" font-size="10.00">::Address::setIsLastAddress</text>
</a>
</g>
</g>
<!-- Node5&#45;&gt;Node15 -->
<g id="edge17" class="edge">
<title>Node5&#45;&gt;Node15</title>
<path fill="none" stroke="midnightblue" d="M276.52,-100.94C282.35,-98.11 288,-94.82 293,-91 314.48,-74.6 307.09,-57.82 329,-42 331.06,-40.51 333.22,-39.11 335.45,-37.8"/>
<polygon fill="midnightblue" stroke="midnightblue" points="337.11,-40.88 344.34,-33.14 333.86,-34.68 337.11,-40.88"/>
</g>
<!-- Node8 -->
<g id="node8" class="node">
<title>Node8</title>
<g id="a_node8"><a xlink:href="classsignal__easel_1_1ax25_1_1Address.html#a7fa6b0ef4241413893f201660991e4ea" target="_top" xlink:title="Checks if the address is valid, if not throws an exception with a specific error code.">
<polygon fill="none" stroke="black" points="515,-101 515,-131 645,-131 645,-101 515,-101"/>
<text text-anchor="start" x="523" y="-119" font-family="Helvetica,sans-Serif" font-size="10.00">signal_easel::ax25</text>
<text text-anchor="middle" x="580" y="-108" font-family="Helvetica,sans-Serif" font-size="10.00">::Address::assertIsValid</text>
</a>
</g>
</g>
<!-- Node7&#45;&gt;Node8 -->
<g id="edge9" class="edge">
<title>Node7&#45;&gt;Node8</title>
<path fill="none" stroke="midnightblue" d="M475.02,-116C484.76,-116 494.8,-116 504.62,-116"/>
<polygon fill="midnightblue" stroke="midnightblue" points="504.75,-119.5 514.75,-116 504.75,-112.5 504.75,-119.5"/>
</g>
<!-- Node9 -->
<g id="node9" class="node">
<title>Node9</title>
<g id="a_node9"><a xlink:href="classsignal__easel_1_1ax25_1_1Address.html#af34b361f739b7995e7816b7a04465828" target="_top" xlink:title=" ">
<polygon fill="none" stroke="black" points="681,-148.5 681,-189.5 846,-189.5 846,-148.5 681,-148.5"/>
<text text-anchor="start" x="689" y="-177.5" font-family="Helvetica,sans-Serif" font-size="10.00">signal_easel::ax25</text>
<text text-anchor="start" x="689" y="-166.5" font-family="Helvetica,sans-Serif" font-size="10.00">::Address::assertAddressString</text>
<text text-anchor="middle" x="763.5" y="-155.5" font-family="Helvetica,sans-Serif" font-size="10.00">IsValid</text>
</a>
</g>
</g>
<!-- Node8&#45;&gt;Node9 -->
<g id="edge10" class="edge">
<title>Node8&#45;&gt;Node9</title>
<path fill="none" stroke="midnightblue" d="M632.53,-131.05C648.03,-135.57 665.43,-140.65 682.33,-145.59"/>
<polygon fill="midnightblue" stroke="midnightblue" points="681.63,-149.03 692.21,-148.47 683.59,-142.31 681.63,-149.03"/>
</g>
<!-- Node10 -->
<g id="node10" class="node">
<title>Node10</title>
<g id="a_node10"><a xlink:href="classsignal__easel_1_1ax25_1_1Address.html#a8b44c6e311d3462bd86eda03c1d384f0" target="_top" xlink:title=" ">
<polygon fill="none" stroke="black" points="688.5,-99 688.5,-129 838.5,-129 838.5,-99 688.5,-99"/>
<text text-anchor="start" x="696.5" y="-117" font-family="Helvetica,sans-Serif" font-size="10.00">signal_easel::ax25</text>
<text text-anchor="middle" x="763.5" y="-106" font-family="Helvetica,sans-Serif" font-size="10.00">::Address::assertSsidIsValid</text>
</a>
</g>
</g>
<!-- Node8&#45;&gt;Node10 -->
<g id="edge11" class="edge">
<title>Node8&#45;&gt;Node10</title>
<path fill="none" stroke="midnightblue" d="M645.25,-115.29C655.94,-115.17 667.18,-115.05 678.28,-114.93"/>
<polygon fill="midnightblue" stroke="midnightblue" points="678.46,-118.43 688.42,-114.82 678.38,-111.43 678.46,-118.43"/>
</g>
<!-- Node11 -->
<g id="node11" class="node">
<title>Node11</title>
<g id="a_node11"><a xlink:href="classsignal__easel_1_1ax25_1_1Address.html#ad66c149737cc4aa52ae9e8860176acf3" target="_top" xlink:title=" ">
<polygon fill="none" stroke="black" points="882,-77 882,-107 1002,-107 1002,-77 882,-77"/>
<text text-anchor="start" x="890" y="-95" font-family="Helvetica,sans-Serif" font-size="10.00">signal_easel::ax25</text>
<text text-anchor="middle" x="942" y="-84" font-family="Helvetica,sans-Serif" font-size="10.00">::Address::isSsidValid</text>
</a>
</g>
</g>
<!-- Node10&#45;&gt;Node11 -->
<g id="edge12" class="edge">
<title>Node10&#45;&gt;Node11</title>
<path fill="none" stroke="midnightblue" d="M838.58,-104.77C849.52,-103.4 860.76,-102 871.6,-100.65"/>
<polygon fill="midnightblue" stroke="midnightblue" points="872.35,-104.08 881.84,-99.37 871.49,-97.14 872.35,-104.08"/>
</g>
<!-- Node13 -->
<g id="node13" class="node">
<title>Node13</title>
<g id="a_node13"><a xlink:href="classsignal__easel_1_1ax25_1_1Address.html#aae81920cfd0dc7d89cb107f9d825488c" target="_top" xlink:title="If the address is valid (can be encoded correctly or was decoded)">
<polygon fill="none" stroke="black" points="526.5,-52 526.5,-82 633.5,-82 633.5,-52 526.5,-52"/>
<text text-anchor="start" x="534.5" y="-70" font-family="Helvetica,sans-Serif" font-size="10.00">signal_easel::ax25</text>
<text text-anchor="middle" x="580" y="-59" font-family="Helvetica,sans-Serif" font-size="10.00">::Address::isValid</text>
</a>
</g>
</g>
<!-- Node12&#45;&gt;Node13 -->
<g id="edge14" class="edge">
<title>Node12&#45;&gt;Node13</title>
<path fill="none" stroke="midnightblue" d="M465.37,-67C481.79,-67 499.61,-67 516.16,-67"/>
<polygon fill="midnightblue" stroke="midnightblue" points="516.28,-70.5 526.28,-67 516.28,-63.5 516.28,-70.5"/>
</g>
<!-- Node13&#45;&gt;Node11 -->
<g id="edge16" class="edge">
<title>Node13&#45;&gt;Node11</title>
<path fill="none" stroke="midnightblue" d="M633.73,-70.66C696.74,-75.04 802.35,-82.37 871.85,-87.2"/>
<polygon fill="midnightblue" stroke="midnightblue" points="871.62,-90.69 881.84,-87.89 872.1,-83.71 871.62,-90.69"/>
</g>
<!-- Node14 -->
<g id="node14" class="node">
<title>Node14</title>
<g id="a_node14"><a xlink:href="classsignal__easel_1_1ax25_1_1Address.html#a56c55b48bfc809a33aa0e22a5aeb95ca" target="_top" xlink:title=" ">
<polygon fill="none" stroke="black" points="692,-0.5 692,-41.5 835,-41.5 835,-0.5 692,-0.5"/>
<text text-anchor="start" x="700" y="-29.5" font-family="Helvetica,sans-Serif" font-size="10.00">signal_easel::ax25</text>
<text text-anchor="start" x="700" y="-18.5" font-family="Helvetica,sans-Serif" font-size="10.00">::Address::isAddressString</text>
<text text-anchor="middle" x="763.5" y="-7.5" font-family="Helvetica,sans-Serif" font-size="10.00">Valid</text>
</a>
</g>
</g>
<!-- Node13&#45;&gt;Node14 -->
<g id="edge15" class="edge">
<title>Node13&#45;&gt;Node14</title>
<path fill="none" stroke="midnightblue" d="M633.99,-53.57C648.98,-49.77 665.64,-45.55 681.87,-41.44"/>
<polygon fill="midnightblue" stroke="midnightblue" points="683.06,-44.74 691.89,-38.89 681.34,-37.96 683.06,-44.74"/>
</g>
</g>
</svg>
