<?xml version="1.0" encoding="UTF-8" standalone="no"?>
<!DOCTYPE svg PUBLIC "-//W3C//DTD SVG 1.1//EN"
 "http://www.w3.org/Graphics/SVG/1.1/DTD/svg11.dtd">
<!-- Generated by graphviz version 2.43.0 (0)
 -->
<!-- Title: signal_easel::BitStream::peakNextBit Pages: 1 -->
<svg width="811pt" height="110pt"
 viewBox="0.00 0.00 811.00 110.00" xmlns="http://www.w3.org/2000/svg" xmlns:xlink="http://www.w3.org/1999/xlink">
<g id="graph0" class="graph" transform="scale(1 1) rotate(0) translate(4 106)">
<title>signal_easel::BitStream::peakNextBit</title>
<!-- Node1 -->
<g id="node1" class="node">
<title>Node1</title>
<g id="a_node1"><a xlink:title="Returns the next bit of the bit stream without removing it.">
<polygon fill="#bfbfbf" stroke="black" points="671,-24.5 671,-54.5 803,-54.5 803,-24.5 671,-24.5"/>
<text text-anchor="start" x="679" y="-42.5" font-family="Helvetica,sans-Serif" font-size="10.00">signal_easel::BitStream</text>
<text text-anchor="middle" x="737" y="-31.5" font-family="Helvetica,sans-Serif" font-size="10.00">::peakNextBit</text>
</a>
</g>
</g>
<!-- Node2 -->
<g id="node2" class="node">
<title>Node2</title>
<g id="a_node2"><a xlink:href="namespacesignal__easel_1_1ax25.html#aa3ad759477950552b79497f19c77ba0b" target="_top" xlink:title=" ">
<polygon fill="none" stroke="black" points="516,-49.5 516,-79.5 623,-79.5 623,-49.5 516,-49.5"/>
<text text-anchor="start" x="524" y="-67.5" font-family="Helvetica,sans-Serif" font-size="10.00">signal_easel::ax25</text>
<text text-anchor="middle" x="569.5" y="-56.5" font-family="Helvetica,sans-Serif" font-size="10.00">::deStuffBytes</text>
</a>
</g>
</g>
<!-- Node1&#45;&gt;Node2 -->
<g id="edge1" class="edge">
<title>Node1&#45;&gt;Node2</title>
<path fill="none" stroke="midnightblue" d="M660.55,-50.9C647.94,-52.8 635.1,-54.74 623.21,-56.54"/>
<polygon fill="midnightblue" stroke="midnightblue" points="661.22,-54.34 670.59,-49.38 660.18,-47.41 661.22,-54.34"/>
</g>
<!-- Node7 -->
<g id="node7" class="node">
<title>Node7</title>
<g id="a_node7"><a xlink:href="classsignal__easel_1_1psk_1_1Modulator.html#a0949f7b7120c7a1b3c350681537e3181" target="_top" xlink:title=" ">
<polygon fill="none" stroke="black" points="504,-0.5 504,-30.5 635,-30.5 635,-0.5 504,-0.5"/>
<text text-anchor="start" x="512" y="-18.5" font-family="Helvetica,sans-Serif" font-size="10.00">signal_easel::psk::</text>
<text text-anchor="middle" x="569.5" y="-7.5" font-family="Helvetica,sans-Serif" font-size="10.00">Modulator::encodeBpsk</text>
</a>
</g>
</g>
<!-- Node1&#45;&gt;Node7 -->
<g id="edge6" class="edge">
<title>Node1&#45;&gt;Node7</title>
<path fill="none" stroke="midnightblue" d="M660.66,-28.58C652.15,-27.34 643.53,-26.09 635.16,-24.88"/>
<polygon fill="midnightblue" stroke="midnightblue" points="660.19,-32.04 670.59,-30.01 661.2,-25.12 660.19,-32.04"/>
</g>
<!-- Node3 -->
<g id="node3" class="node">
<title>Node3</title>
<g id="a_node3"><a xlink:href="classsignal__easel_1_1ax25_1_1Frame.html#a63cf2362c2a90d20f09bbbc4f24a07ba" target="_top" xlink:title="Attempt to parse an incoming bit stream into an AX.25 frame.">
<polygon fill="none" stroke="black" points="332.5,-49.5 332.5,-79.5 467.5,-79.5 467.5,-49.5 332.5,-49.5"/>
<text text-anchor="start" x="340.5" y="-67.5" font-family="Helvetica,sans-Serif" font-size="10.00">signal_easel::ax25</text>
<text text-anchor="middle" x="400" y="-56.5" font-family="Helvetica,sans-Serif" font-size="10.00">::Frame::parseBitStream</text>
</a>
</g>
</g>
<!-- Node2&#45;&gt;Node3 -->
<g id="edge2" class="edge">
<title>Node2&#45;&gt;Node3</title>
<path fill="none" stroke="midnightblue" d="M505.68,-64.5C493.22,-64.5 480.11,-64.5 467.53,-64.5"/>
<polygon fill="midnightblue" stroke="midnightblue" points="505.96,-68 515.96,-64.5 505.96,-61 505.96,-68"/>
</g>
<!-- Node4 -->
<g id="node4" class="node">
<title>Node4</title>
<g id="a_node4"><a xlink:href="classsignal__easel_1_1aprs_1_1Demodulator.html#ae5a8e7634c1bc8d215a0c454a9a737fa" target="_top" xlink:title=" ">
<polygon fill="none" stroke="black" points="143,-44 143,-85 296,-85 296,-44 143,-44"/>
<text text-anchor="start" x="151" y="-73" font-family="Helvetica,sans-Serif" font-size="10.00">signal_easel::aprs</text>
<text text-anchor="start" x="151" y="-62" font-family="Helvetica,sans-Serif" font-size="10.00">::Demodulator::lookForAx25</text>
<text text-anchor="middle" x="219.5" y="-51" font-family="Helvetica,sans-Serif" font-size="10.00">Packet</text>
</a>
</g>
</g>
<!-- Node3&#45;&gt;Node4 -->
<g id="edge3" class="edge">
<title>Node3&#45;&gt;Node4</title>
<path fill="none" stroke="midnightblue" d="M322.22,-64.5C313.58,-64.5 304.77,-64.5 296.14,-64.5"/>
<polygon fill="midnightblue" stroke="midnightblue" points="322.28,-68 332.28,-64.5 322.28,-61 322.28,-68"/>
</g>
<!-- Node5 -->
<g id="node5" class="node">
<title>Node5</title>
<g id="a_node5"><a xlink:href="classsignal__easel_1_1aprs_1_1Receiver.html#afbf7869aceaf2ea7ab0be8b9af16e818" target="_top" xlink:title=" ">
<polygon fill="none" stroke="black" points="0,-71.5 0,-101.5 107,-101.5 107,-71.5 0,-71.5"/>
<text text-anchor="start" x="8" y="-89.5" font-family="Helvetica,sans-Serif" font-size="10.00">signal_easel::aprs</text>
<text text-anchor="middle" x="53.5" y="-78.5" font-family="Helvetica,sans-Serif" font-size="10.00">::Receiver::decode</text>
</a>
</g>
</g>
<!-- Node4&#45;&gt;Node5 -->
<g id="edge4" class="edge">
<title>Node4&#45;&gt;Node5</title>
<path fill="none" stroke="midnightblue" d="M132.67,-76.01C124.09,-77.17 115.56,-78.31 107.47,-79.39"/>
<polygon fill="midnightblue" stroke="midnightblue" points="133.29,-79.46 142.74,-74.66 132.36,-72.52 133.29,-79.46"/>
</g>
<!-- Node6 -->
<g id="node6" class="node">
<title>Node6</title>
<g id="a_node6"><a xlink:href="aprs__test_8cpp.html#aea66d1824e3f1e27598adf99ac6a089a" target="_top" xlink:title=" ">
<polygon fill="none" stroke="black" points="33,-33 33,-52 74,-52 74,-33 33,-33"/>
<text text-anchor="middle" x="53.5" y="-40" font-family="Helvetica,sans-Serif" font-size="10.00">TEST</text>
</a>
</g>
</g>
<!-- Node4&#45;&gt;Node6 -->
<g id="edge5" class="edge">
<title>Node4&#45;&gt;Node6</title>
<path fill="none" stroke="midnightblue" d="M132.62,-52.98C110.61,-50.03 88.97,-47.12 74.06,-45.12"/>
<polygon fill="midnightblue" stroke="midnightblue" points="132.36,-56.48 142.74,-54.34 133.29,-49.54 132.36,-56.48"/>
</g>
<!-- Node8 -->
<g id="node8" class="node">
<title>Node8</title>
<g id="a_node8"><a xlink:href="classsignal__easel_1_1psk_1_1Modulator.html#acd4a6a5bac7af1c62ffaaa0ff1d9259f" target="_top" xlink:title=" ">
<polygon fill="none" stroke="black" points="332,-0.5 332,-30.5 468,-30.5 468,-0.5 332,-0.5"/>
<text text-anchor="start" x="340" y="-18.5" font-family="Helvetica,sans-Serif" font-size="10.00">signal_easel::psk::</text>
<text text-anchor="middle" x="400" y="-7.5" font-family="Helvetica,sans-Serif" font-size="10.00">Modulator::encodeString</text>
</a>
</g>
</g>
<!-- Node7&#45;&gt;Node8 -->
<g id="edge7" class="edge">
<title>Node7&#45;&gt;Node8</title>
<path fill="none" stroke="midnightblue" d="M493.49,-15.5C485.03,-15.5 476.44,-15.5 468.08,-15.5"/>
<polygon fill="midnightblue" stroke="midnightblue" points="493.74,-19 503.74,-15.5 493.74,-12 493.74,-19"/>
</g>
<!-- Node9 -->
<g id="node9" class="node">
<title>Node9</title>
<g id="a_node9"><a xlink:href="psk__test_8cpp.html#adc7973e853ae04677ba78e84bda93987" target="_top" xlink:title=" ">
<polygon fill="none" stroke="black" points="199,-6 199,-25 240,-25 240,-6 199,-6"/>
<text text-anchor="middle" x="219.5" y="-13" font-family="Helvetica,sans-Serif" font-size="10.00">TEST</text>
</a>
</g>
</g>
<!-- Node8&#45;&gt;Node9 -->
<g id="edge8" class="edge">
<title>Node8&#45;&gt;Node9</title>
<path fill="none" stroke="midnightblue" d="M321.72,-15.5C291.84,-15.5 260.12,-15.5 240.32,-15.5"/>
<polygon fill="midnightblue" stroke="midnightblue" points="321.77,-19 331.77,-15.5 321.77,-12 321.77,-19"/>
</g>
</g>
</svg>
