<?xml version="1.0" encoding="UTF-8" standalone="no"?>
<!DOCTYPE svg PUBLIC "-//W3C//DTD SVG 1.1//EN"
 "http://www.w3.org/Graphics/SVG/1.1/DTD/svg11.dtd">
<!-- Generated by graphviz version 2.43.0 (0)
 -->
<!-- Title: signal_easel::aprs::Demodulator::populateGenericFields Pages: 1 -->
<svg width="387pt" height="88pt"
 viewBox="0.00 0.00 387.00 88.00" xmlns="http://www.w3.org/2000/svg" xmlns:xlink="http://www.w3.org/1999/xlink">
<g id="graph0" class="graph" transform="scale(1 1) rotate(0) translate(4 84)">
<title>signal_easel::aprs::Demodulator::populateGenericFields</title>
<!-- Node1 -->
<g id="node1" class="node">
<title>Node1</title>
<g id="a_node1"><a xlink:title=" ">
<polygon fill="#bfbfbf" stroke="black" points="0,-19 0,-60 173,-60 173,-19 0,-19"/>
<text text-anchor="start" x="8" y="-48" font-family="Helvetica,sans-Serif" font-size="10.00">signal_easel::aprs</text>
<text text-anchor="start" x="8" y="-37" font-family="Helvetica,sans-Serif" font-size="10.00">::Demodulator::populateGeneric</text>
<text text-anchor="middle" x="86.5" y="-26" font-family="Helvetica,sans-Serif" font-size="10.00">Fields</text>
</a>
</g>
</g>
<!-- Node2 -->
<g id="node2" class="node">
<title>Node2</title>
<g id="a_node2"><a xlink:href="classsignal__easel_1_1ax25_1_1Frame.html#a84c80d41e67e5091d2a77553f3941d5f" target="_top" xlink:title=" ">
<polygon fill="none" stroke="black" points="209,-49.5 209,-79.5 379,-79.5 379,-49.5 209,-49.5"/>
<text text-anchor="start" x="217" y="-67.5" font-family="Helvetica,sans-Serif" font-size="10.00">signal_easel::ax25</text>
<text text-anchor="middle" x="294" y="-56.5" font-family="Helvetica,sans-Serif" font-size="10.00">::Frame::getDestinationAddress</text>
</a>
</g>
</g>
<!-- Node1&#45;&gt;Node2 -->
<g id="edge1" class="edge">
<title>Node1&#45;&gt;Node2</title>
<path fill="none" stroke="midnightblue" d="M173.16,-49.92C181.63,-50.95 190.26,-52 198.81,-53.04"/>
<polygon fill="midnightblue" stroke="midnightblue" points="198.45,-56.52 208.8,-54.26 199.29,-49.57 198.45,-56.52"/>
</g>
<!-- Node3 -->
<g id="node3" class="node">
<title>Node3</title>
<g id="a_node3"><a xlink:href="classsignal__easel_1_1ax25_1_1Frame.html#af84ab589067667886d9e54abe213109c" target="_top" xlink:title=" ">
<polygon fill="none" stroke="black" points="220.5,-0.5 220.5,-30.5 367.5,-30.5 367.5,-0.5 220.5,-0.5"/>
<text text-anchor="start" x="228.5" y="-18.5" font-family="Helvetica,sans-Serif" font-size="10.00">signal_easel::ax25</text>
<text text-anchor="middle" x="294" y="-7.5" font-family="Helvetica,sans-Serif" font-size="10.00">::Frame::getSourceAddress</text>
</a>
</g>
</g>
<!-- Node1&#45;&gt;Node3 -->
<g id="edge2" class="edge">
<title>Node1&#45;&gt;Node3</title>
<path fill="none" stroke="midnightblue" d="M173.16,-29.5C185.38,-28.07 197.93,-26.6 210.09,-25.18"/>
<polygon fill="midnightblue" stroke="midnightblue" points="210.68,-28.64 220.2,-24 209.87,-21.69 210.68,-28.64"/>
</g>
</g>
</svg>
