<?xml version="1.0" encoding="UTF-8" standalone="no"?>
<!DOCTYPE svg PUBLIC "-//W3C//DTD SVG 1.1//EN"
 "http://www.w3.org/Graphics/SVG/1.1/DTD/svg11.dtd">
<!-- Generated by graphviz version 2.43.0 (0)
 -->
<!-- Title: signal_easel::DataModulator Pages: 1 -->
<svg width="545pt" height="536pt"
 viewBox="0.00 0.00 545.00 536.00" xmlns="http://www.w3.org/2000/svg" xmlns:xlink="http://www.w3.org/1999/xlink">
<g id="graph0" class="graph" transform="scale(1 1) rotate(0) translate(4 532)">
<title>signal_easel::DataModulator</title>
<!-- Node1 -->
<g id="node1" class="node">
<title>Node1</title>
<g id="a_node1"><a xlink:title="Another abstract base class for modulators that turn text/binary data into audio.">
<polygon fill="#bfbfbf" stroke="black" points="238,-0.5 238,-101.5 394,-101.5 394,-0.5 238,-0.5"/>
<text text-anchor="middle" x="316" y="-89.5" font-family="Helvetica,sans-Serif" font-size="10.00">signal_easel::DataModulator</text>
<polyline fill="none" stroke="black" points="238,-82.5 394,-82.5 "/>
<text text-anchor="middle" x="316" y="-70.5" font-family="Helvetica,sans-Serif" font-size="10.00"> </text>
<polyline fill="none" stroke="black" points="238,-63.5 394,-63.5 "/>
<text text-anchor="start" x="246" y="-51.5" font-family="Helvetica,sans-Serif" font-size="10.00">+ DataModulator()</text>
<text text-anchor="start" x="246" y="-40.5" font-family="Helvetica,sans-Serif" font-size="10.00">+ ~DataModulator()</text>
<text text-anchor="start" x="246" y="-29.5" font-family="Helvetica,sans-Serif" font-size="10.00">+ addBytes()</text>
<text text-anchor="start" x="246" y="-18.5" font-family="Helvetica,sans-Serif" font-size="10.00">+ addString()</text>
<text text-anchor="start" x="246" y="-7.5" font-family="Helvetica,sans-Serif" font-size="10.00"># encodeBytes()</text>
</a>
</g>
</g>
<!-- Node2 -->
<g id="node2" class="node">
<title>Node2</title>
<g id="a_node2"><a xlink:href="classsignal__easel_1_1Modulator.html" target="_top" xlink:title="The abstract base class for all modulators that turn data into audio.">
<polygon fill="none" stroke="black" points="240,-139.5 240,-295.5 392,-295.5 392,-139.5 240,-139.5"/>
<text text-anchor="middle" x="316" y="-283.5" font-family="Helvetica,sans-Serif" font-size="10.00">signal_easel::Modulator</text>
<polyline fill="none" stroke="black" points="240,-276.5 392,-276.5 "/>
<text text-anchor="middle" x="316" y="-264.5" font-family="Helvetica,sans-Serif" font-size="10.00"> </text>
<polyline fill="none" stroke="black" points="240,-257.5 392,-257.5 "/>
<text text-anchor="start" x="248" y="-245.5" font-family="Helvetica,sans-Serif" font-size="10.00">+ Modulator()</text>
<text text-anchor="start" x="248" y="-234.5" font-family="Helvetica,sans-Serif" font-size="10.00">+ ~Modulator()</text>
<text text-anchor="start" x="248" y="-223.5" font-family="Helvetica,sans-Serif" font-size="10.00">+ clearBuffer()</text>
<text text-anchor="start" x="248" y="-212.5" font-family="Helvetica,sans-Serif" font-size="10.00">+ writeToFile()</text>
<text text-anchor="start" x="248" y="-201.5" font-family="Helvetica,sans-Serif" font-size="10.00">+ writeToPulseAudio()</text>
<text text-anchor="start" x="248" y="-190.5" font-family="Helvetica,sans-Serif" font-size="10.00"># addAudioSample()</text>
<text text-anchor="start" x="248" y="-179.5" font-family="Helvetica,sans-Serif" font-size="10.00"># addAudioSampleDouble()</text>
<text text-anchor="start" x="248" y="-168.5" font-family="Helvetica,sans-Serif" font-size="10.00"># addSilence()</text>
<text text-anchor="start" x="248" y="-157.5" font-family="Helvetica,sans-Serif" font-size="10.00"># addSineWave()</text>
<text text-anchor="start" x="248" y="-146.5" font-family="Helvetica,sans-Serif" font-size="10.00">&#45; addMorseCode()</text>
</a>
</g>
</g>
<!-- Node2&#45;&gt;Node1 -->
<g id="edge1" class="edge">
<title>Node2&#45;&gt;Node1</title>
<path fill="none" stroke="midnightblue" d="M316,-128.96C316,-119.66 316,-110.46 316,-101.82"/>
<polygon fill="none" stroke="midnightblue" points="312.5,-129.07 316,-139.07 319.5,-129.07 312.5,-129.07"/>
</g>
<!-- Node3 -->
<g id="node3" class="node">
<title>Node3</title>
<g id="a_node3"><a xlink:href="structsignal__easel_1_1Settings.html" target="_top" xlink:title="The universal settings for MWAV.">
<polygon fill="none" stroke="black" points="98.5,-343.5 98.5,-400.5 221.5,-400.5 221.5,-343.5 98.5,-343.5"/>
<text text-anchor="middle" x="160" y="-388.5" font-family="Helvetica,sans-Serif" font-size="10.00">signal_easel::Settings</text>
<polyline fill="none" stroke="black" points="98.5,-381.5 221.5,-381.5 "/>
<text text-anchor="middle" x="160" y="-369.5" font-family="Helvetica,sans-Serif" font-size="10.00"> </text>
<polyline fill="none" stroke="black" points="98.5,-362.5 221.5,-362.5 "/>
<text text-anchor="middle" x="160" y="-350.5" font-family="Helvetica,sans-Serif" font-size="10.00"> </text>
</a>
</g>
</g>
<!-- Node3&#45;&gt;Node2 -->
<g id="edge2" class="edge">
<title>Node3&#45;&gt;Node2</title>
<path fill="none" stroke="#404040" d="M188.25,-343.38C200.55,-331.36 215.68,-316.57 231.17,-301.43"/>
<polygon fill="none" stroke="#404040" points="231.22,-301.38 232.71,-294.33 239.8,-292.99 238.3,-300.05 231.22,-301.38"/>
<text text-anchor="middle" x="243" y="-317" font-family="Helvetica,sans-Serif" font-size="10.00"> #settings_</text>
</g>
<!-- Node4 -->
<g id="node4" class="node">
<title>Node4</title>
<g id="a_node4"><a xlink:title=" ">
<polygon fill="none" stroke="black" points="0,-470.5 0,-527.5 44,-527.5 44,-470.5 0,-470.5"/>
<text text-anchor="middle" x="22" y="-515.5" font-family="Helvetica,sans-Serif" font-size="10.00">string</text>
<polyline fill="none" stroke="black" points="0,-508.5 44,-508.5 "/>
<text text-anchor="middle" x="22" y="-496.5" font-family="Helvetica,sans-Serif" font-size="10.00"> </text>
<polyline fill="none" stroke="black" points="0,-489.5 44,-489.5 "/>
<text text-anchor="middle" x="22" y="-477.5" font-family="Helvetica,sans-Serif" font-size="10.00"> </text>
</a>
</g>
</g>
<!-- Node4&#45;&gt;Node3 -->
<g id="edge3" class="edge">
<title>Node4&#45;&gt;Node3</title>
<path fill="none" stroke="#404040" d="M22.02,-470.22C23.43,-453.59 27.84,-433.03 40,-419 52.29,-404.83 69.45,-395 86.96,-388.2"/>
<polygon fill="none" stroke="#404040" points="87.15,-388.13 91.48,-382.37 98.47,-384.15 94.14,-389.91 87.15,-388.13"/>
<text text-anchor="middle" x="67.5" y="-433" font-family="Helvetica,sans-Serif" font-size="10.00"> +call_sign</text>
</g>
<!-- Node5 -->
<g id="node5" class="node">
<title>Node5</title>
<g id="a_node5"><a xlink:title=" ">
<polygon fill="none" stroke="black" points="62.5,-470.5 62.5,-527.5 145.5,-527.5 145.5,-470.5 62.5,-470.5"/>
<text text-anchor="middle" x="104" y="-515.5" font-family="Helvetica,sans-Serif" font-size="10.00">CallSignMode</text>
<polyline fill="none" stroke="black" points="62.5,-508.5 145.5,-508.5 "/>
<text text-anchor="middle" x="104" y="-496.5" font-family="Helvetica,sans-Serif" font-size="10.00"> </text>
<polyline fill="none" stroke="black" points="62.5,-489.5 145.5,-489.5 "/>
<text text-anchor="middle" x="104" y="-477.5" font-family="Helvetica,sans-Serif" font-size="10.00"> </text>
</a>
</g>
</g>
<!-- Node5&#45;&gt;Node3 -->
<g id="edge4" class="edge">
<title>Node5&#45;&gt;Node3</title>
<path fill="none" stroke="#404040" d="M98.85,-470.39C97.22,-454.61 97.47,-434.86 105,-419 106.5,-415.84 108.34,-412.81 110.42,-409.94"/>
<polygon fill="none" stroke="#404040" points="110.48,-409.86 111.34,-402.7 118.28,-400.74 117.42,-407.9 110.48,-409.86"/>
<text text-anchor="middle" x="149" y="-433" font-family="Helvetica,sans-Serif" font-size="10.00"> +call_sign_mode</text>
</g>
<!-- Node6 -->
<g id="node6" class="node">
<title>Node6</title>
<g id="a_node6"><a xlink:title=" ">
<polygon fill="none" stroke="black" points="240,-470.5 240,-527.5 290,-527.5 290,-470.5 240,-470.5"/>
<text text-anchor="middle" x="265" y="-515.5" font-family="Helvetica,sans-Serif" font-size="10.00">double</text>
<polyline fill="none" stroke="black" points="240,-508.5 290,-508.5 "/>
<text text-anchor="middle" x="265" y="-496.5" font-family="Helvetica,sans-Serif" font-size="10.00"> </text>
<polyline fill="none" stroke="black" points="240,-489.5 290,-489.5 "/>
<text text-anchor="middle" x="265" y="-477.5" font-family="Helvetica,sans-Serif" font-size="10.00"> </text>
</a>
</g>
</g>
<!-- Node6&#45;&gt;Node2 -->
<g id="edge7" class="edge">
<title>Node6&#45;&gt;Node2</title>
<path fill="none" stroke="#404040" d="M290.37,-472.04C295.02,-465.9 299.27,-459.07 302,-452 319.56,-406.54 323.73,-352.4 323.21,-307.69"/>
<polygon fill="none" stroke="#404040" points="323.21,-307.65 319.09,-301.73 322.96,-295.65 327.08,-301.56 323.21,-307.65"/>
<text text-anchor="middle" x="372.5" y="-369.5" font-family="Helvetica,sans-Serif" font-size="10.00"> &#45;sine_wave_phase_</text>
</g>
<!-- Node6&#45;&gt;Node3 -->
<g id="edge5" class="edge">
<title>Node6&#45;&gt;Node3</title>
<path fill="none" stroke="#404040" d="M239.84,-476.25C231.87,-468.88 223.25,-460.39 216,-452 204.31,-438.48 203.32,-433.6 193,-419 191.03,-416.22 188.99,-413.34 186.93,-410.45"/>
<polygon fill="none" stroke="#404040" points="186.93,-410.45 180.19,-407.89 179.95,-400.69 186.7,-403.24 186.93,-410.45"/>
<text text-anchor="middle" x="259" y="-444" font-family="Helvetica,sans-Serif" font-size="10.00"> +amplitude</text>
<text text-anchor="start" x="216" y="-433" font-family="Helvetica,sans-Serif" font-size="10.00">+call_sign_pause</text>
<text text-anchor="middle" x="259" y="-422" font-family="Helvetica,sans-Serif" font-size="10.00">_seconds</text>
</g>
<!-- Node7 -->
<g id="node7" class="node">
<title>Node7</title>
<g id="a_node7"><a xlink:title=" ">
<polygon fill="none" stroke="black" points="433,-343.5 433,-400.5 537,-400.5 537,-343.5 433,-343.5"/>
<text text-anchor="middle" x="485" y="-388.5" font-family="Helvetica,sans-Serif" font-size="10.00">vector&lt; int16_t &gt;</text>
<polyline fill="none" stroke="black" points="433,-381.5 537,-381.5 "/>
<text text-anchor="middle" x="485" y="-369.5" font-family="Helvetica,sans-Serif" font-size="10.00"> </text>
<polyline fill="none" stroke="black" points="433,-362.5 537,-362.5 "/>
<text text-anchor="middle" x="485" y="-350.5" font-family="Helvetica,sans-Serif" font-size="10.00"> </text>
</a>
</g>
</g>
<!-- Node7&#45;&gt;Node2 -->
<g id="edge6" class="edge">
<title>Node7&#45;&gt;Node2</title>
<path fill="none" stroke="#404040" d="M454.4,-343.38C439.29,-329.75 420.23,-312.56 401.13,-295.32"/>
<polygon fill="none" stroke="#404040" points="400.98,-295.18 393.85,-294.13 392.07,-287.15 399.21,-288.2 400.98,-295.18"/>
<text text-anchor="middle" x="469" y="-317" font-family="Helvetica,sans-Serif" font-size="10.00"> #audio_buffer_</text>
</g>
</g>
</svg>
