<?xml version="1.0" encoding="UTF-8" standalone="no"?>
<!DOCTYPE svg PUBLIC "-//W3C//DTD SVG 1.1//EN"
 "http://www.w3.org/Graphics/SVG/1.1/DTD/svg11.dtd">
<!-- Generated by graphviz version 2.43.0 (0)
 -->
<!-- Title: signal_easel::DataModulator::encodeBytes Pages: 1 -->
<svg width="433pt" height="102pt"
 viewBox="0.00 0.00 433.00 101.50" xmlns="http://www.w3.org/2000/svg" xmlns:xlink="http://www.w3.org/1999/xlink">
<g id="graph0" class="graph" transform="scale(1 1) rotate(0) translate(4 97.5)">
<title>signal_easel::DataModulator::encodeBytes</title>
<!-- Node1 -->
<g id="node1" class="node">
<title>Node1</title>
<g id="a_node1"><a xlink:title="This is overridden by the child classes to encode the data that is passed in by addBytes and addStrin...">
<polygon fill="#bfbfbf" stroke="black" points="269,-38 269,-68 425,-68 425,-38 269,-38"/>
<text text-anchor="start" x="277" y="-56" font-family="Helvetica,sans-Serif" font-size="10.00">signal_easel::DataModulator</text>
<text text-anchor="middle" x="347" y="-45" font-family="Helvetica,sans-Serif" font-size="10.00">::encodeBytes</text>
</a>
</g>
</g>
<!-- Node2 -->
<g id="node2" class="node">
<title>Node2</title>
<g id="a_node2"><a xlink:href="classsignal__easel_1_1DataModulator.html#ace460b54c3c528fa5784b55c265371a9" target="_top" xlink:title="Add data to the audio buffer.">
<polygon fill="none" stroke="black" points="77,-63 77,-93 233,-93 233,-63 77,-63"/>
<text text-anchor="start" x="85" y="-81" font-family="Helvetica,sans-Serif" font-size="10.00">signal_easel::DataModulator</text>
<text text-anchor="middle" x="155" y="-70" font-family="Helvetica,sans-Serif" font-size="10.00">::addBytes</text>
</a>
</g>
</g>
<!-- Node1&#45;&gt;Node2 -->
<g id="edge1" class="edge">
<title>Node1&#45;&gt;Node2</title>
<path fill="none" stroke="midnightblue" d="M258.94,-64.46C250.32,-65.59 241.62,-66.73 233.12,-67.85"/>
<polygon fill="midnightblue" stroke="midnightblue" points="259.54,-67.91 268.99,-63.13 258.62,-60.97 259.54,-67.91"/>
</g>
<!-- Node3 -->
<g id="node3" class="node">
<title>Node3</title>
<g id="a_node3"><a xlink:href="classsignal__easel_1_1DataModulator.html#aadce78b3cb3d4df7d8ab7c446ba29e89" target="_top" xlink:title="Add string data to the audio buffer.">
<polygon fill="none" stroke="black" points="77,-14 77,-44 233,-44 233,-14 77,-14"/>
<text text-anchor="start" x="85" y="-32" font-family="Helvetica,sans-Serif" font-size="10.00">signal_easel::DataModulator</text>
<text text-anchor="middle" x="155" y="-21" font-family="Helvetica,sans-Serif" font-size="10.00">::addString</text>
</a>
</g>
</g>
<!-- Node1&#45;&gt;Node3 -->
<g id="edge2" class="edge">
<title>Node1&#45;&gt;Node3</title>
<path fill="none" stroke="midnightblue" d="M258.94,-42C250.32,-40.91 241.62,-39.82 233.12,-38.74"/>
<polygon fill="midnightblue" stroke="midnightblue" points="258.63,-45.49 268.99,-43.27 259.51,-38.55 258.63,-45.49"/>
</g>
<!-- Node4 -->
<g id="node4" class="node">
<title>Node4</title>
<g id="a_node4"><a xlink:href="pulse__test_8cpp.html#ae66f6b31b5ad750f1fe042a706a4e3d4" target="_top" xlink:title=" ">
<polygon fill="none" stroke="black" points="0,-38.5 0,-57.5 41,-57.5 41,-38.5 0,-38.5"/>
<text text-anchor="middle" x="20.5" y="-45.5" font-family="Helvetica,sans-Serif" font-size="10.00">main</text>
</a>
</g>
</g>
<!-- Node3&#45;&gt;Node4 -->
<g id="edge3" class="edge">
<title>Node3&#45;&gt;Node4</title>
<path fill="none" stroke="midnightblue" d="M66.86,-41.5C57.39,-42.85 48.56,-44.12 41.25,-45.17"/>
<polygon fill="midnightblue" stroke="midnightblue" points="67.52,-44.94 76.92,-40.05 66.53,-38.01 67.52,-44.94"/>
</g>
<!-- Node5 -->
<g id="node5" class="node">
<title>Node5</title>
<g id="a_node5"><a xlink:href="afsk__test_8cpp.html#a894b615862c352aa932a7ff5fb85c6dd" target="_top" xlink:title="Encodes a string into an AFSK1200 signal/WAV file and then decodes it.">
<polygon fill="none" stroke="black" points="0,-0.5 0,-19.5 41,-19.5 41,-0.5 0,-0.5"/>
<text text-anchor="middle" x="20.5" y="-7.5" font-family="Helvetica,sans-Serif" font-size="10.00">TEST</text>
</a>
</g>
</g>
<!-- Node3&#45;&gt;Node5 -->
<g id="edge4" class="edge">
<title>Node3&#45;&gt;Node5</title>
<path fill="none" stroke="midnightblue" d="M66.86,-16.5C57.39,-15.15 48.56,-13.88 41.25,-12.83"/>
<polygon fill="midnightblue" stroke="midnightblue" points="66.53,-19.99 76.92,-17.95 67.52,-13.06 66.53,-19.99"/>
</g>
</g>
</svg>
