<?xml version="1.0" encoding="UTF-8" standalone="no"?>
<!DOCTYPE svg PUBLIC "-//W3C//DTD SVG 1.1//EN"
 "http://www.w3.org/Graphics/SVG/1.1/DTD/svg11.dtd">
<!-- Generated by graphviz version 2.43.0 (0)
 -->
<!-- Title: signal_easel::psk::Modulator::encodeQpsk Pages: 1 -->
<svg width="540pt" height="149pt"
 viewBox="0.00 0.00 540.00 149.00" xmlns="http://www.w3.org/2000/svg" xmlns:xlink="http://www.w3.org/1999/xlink">
<g id="graph0" class="graph" transform="scale(1 1) rotate(0) translate(4 145)">
<title>signal_easel::psk::Modulator::encodeQpsk</title>
<!-- Node1 -->
<g id="node1" class="node">
<title>Node1</title>
<g id="a_node1"><a xlink:title=" ">
<polygon fill="#bfbfbf" stroke="black" points="0,-55.5 0,-85.5 132,-85.5 132,-55.5 0,-55.5"/>
<text text-anchor="start" x="8" y="-73.5" font-family="Helvetica,sans-Serif" font-size="10.00">signal_easel::psk::</text>
<text text-anchor="middle" x="66" y="-62.5" font-family="Helvetica,sans-Serif" font-size="10.00">Modulator::encodeQpsk</text>
</a>
</g>
</g>
<!-- Node2 -->
<g id="node2" class="node">
<title>Node2</title>
<g id="a_node2"><a xlink:href="classsignal__easel_1_1psk_1_1PskWaveShaper.html#a43adb5526e215f4183ad439ca92daf1f" target="_top" xlink:title=" ">
<polygon fill="none" stroke="black" points="169.5,-110.5 169.5,-140.5 324.5,-140.5 324.5,-110.5 169.5,-110.5"/>
<text text-anchor="start" x="177.5" y="-128.5" font-family="Helvetica,sans-Serif" font-size="10.00">signal_easel::psk::</text>
<text text-anchor="middle" x="247" y="-117.5" font-family="Helvetica,sans-Serif" font-size="10.00">PskWaveShaper::addSymbol</text>
</a>
</g>
</g>
<!-- Node1&#45;&gt;Node2 -->
<g id="edge1" class="edge">
<title>Node1&#45;&gt;Node2</title>
<path fill="none" stroke="midnightblue" d="M115.91,-85.53C138.01,-92.32 164.3,-100.4 187.44,-107.51"/>
<polygon fill="midnightblue" stroke="midnightblue" points="186.56,-110.9 197.15,-110.49 188.62,-104.21 186.56,-110.9"/>
</g>
<!-- Node4 -->
<g id="node4" class="node">
<title>Node4</title>
<g id="a_node4"><a xlink:href="namespacesignal__easel_1_1psk.html#a104a25083c06056bf0c5cf7d9226f73d" target="_top" xlink:title="Shift the provided phase with the convolutional code.">
<polygon fill="none" stroke="black" points="168,-50 168,-91 326,-91 326,-50 168,-50"/>
<text text-anchor="start" x="176" y="-79" font-family="Helvetica,sans-Serif" font-size="10.00">signal_easel::psk::</text>
<text text-anchor="start" x="176" y="-68" font-family="Helvetica,sans-Serif" font-size="10.00">getShiftedConvolutionalCode</text>
<text text-anchor="middle" x="247" y="-57" font-family="Helvetica,sans-Serif" font-size="10.00">Phase</text>
</a>
</g>
</g>
<!-- Node1&#45;&gt;Node4 -->
<g id="edge3" class="edge">
<title>Node1&#45;&gt;Node4</title>
<path fill="none" stroke="midnightblue" d="M132.13,-70.5C140.46,-70.5 149.1,-70.5 157.73,-70.5"/>
<polygon fill="midnightblue" stroke="midnightblue" points="157.83,-74 167.83,-70.5 157.83,-67 157.83,-74"/>
</g>
<!-- Node5 -->
<g id="node5" class="node">
<title>Node5</title>
<g id="a_node5"><a xlink:href="classsignal__easel_1_1BitStream.html#a5b5339586e09ca5c25a7e9ded0118ffb" target="_top" xlink:title="Returns the next bit of the bit stream that will be encoded.">
<polygon fill="none" stroke="black" points="181,-0.5 181,-30.5 313,-30.5 313,-0.5 181,-0.5"/>
<text text-anchor="start" x="189" y="-18.5" font-family="Helvetica,sans-Serif" font-size="10.00">signal_easel::BitStream</text>
<text text-anchor="middle" x="247" y="-7.5" font-family="Helvetica,sans-Serif" font-size="10.00">::popNextBit</text>
</a>
</g>
</g>
<!-- Node1&#45;&gt;Node5 -->
<g id="edge4" class="edge">
<title>Node1&#45;&gt;Node5</title>
<path fill="none" stroke="midnightblue" d="M115.91,-55.47C138.01,-48.68 164.3,-40.6 187.44,-33.49"/>
<polygon fill="midnightblue" stroke="midnightblue" points="188.62,-36.79 197.15,-30.51 186.56,-30.1 188.62,-36.79"/>
</g>
<!-- Node3 -->
<g id="node3" class="node">
<title>Node3</title>
<g id="a_node3"><a xlink:href="classsignal__easel_1_1psk_1_1PskWaveShaper.html#ac4db3c5943e9f56ce1d058a2347a2438" target="_top" xlink:title="A filter to remove the sharp edges of the wave during a phase change.">
<polygon fill="none" stroke="black" points="362,-110.5 362,-140.5 532,-140.5 532,-110.5 362,-110.5"/>
<text text-anchor="start" x="370" y="-128.5" font-family="Helvetica,sans-Serif" font-size="10.00">signal_easel::psk::</text>
<text text-anchor="middle" x="447" y="-117.5" font-family="Helvetica,sans-Serif" font-size="10.00">PskWaveShaper::envelopeFilter</text>
</a>
</g>
</g>
<!-- Node2&#45;&gt;Node3 -->
<g id="edge2" class="edge">
<title>Node2&#45;&gt;Node3</title>
<path fill="none" stroke="midnightblue" d="M324.55,-125.5C333.41,-125.5 342.52,-125.5 351.57,-125.5"/>
<polygon fill="midnightblue" stroke="midnightblue" points="351.76,-129 361.76,-125.5 351.76,-122 351.76,-129"/>
</g>
</g>
</svg>
