<?xml version="1.0" encoding="UTF-8" standalone="no"?>
<!DOCTYPE svg PUBLIC "-//W3C//DTD SVG 1.1//EN"
 "http://www.w3.org/Graphics/SVG/1.1/DTD/svg11.dtd">
<!-- Generated by graphviz version 2.43.0 (0)
 -->
<!-- Title: signal_easel::ax25::Frame::setDestinationAddress Pages: 1 -->
<svg width="837pt" height="247pt"
 viewBox="0.00 0.00 837.00 247.00" xmlns="http://www.w3.org/2000/svg" xmlns:xlink="http://www.w3.org/1999/xlink">
<g id="graph0" class="graph" transform="scale(1 1) rotate(0) translate(4 243)">
<title>signal_easel::ax25::Frame::setDestinationAddress</title>
<!-- Node1 -->
<g id="node1" class="node">
<title>Node1</title>
<g id="a_node1"><a xlink:title="setters/getters for the frame.">
<polygon fill="#bfbfbf" stroke="black" points="659,-59.5 659,-89.5 829,-89.5 829,-59.5 659,-59.5"/>
<text text-anchor="start" x="667" y="-77.5" font-family="Helvetica,sans-Serif" font-size="10.00">signal_easel::ax25</text>
<text text-anchor="middle" x="744" y="-66.5" font-family="Helvetica,sans-Serif" font-size="10.00">::Frame::setDestinationAddress</text>
</a>
</g>
</g>
<!-- Node2 -->
<g id="node2" class="node">
<title>Node2</title>
<g id="a_node2"><a xlink:href="namespacesignal__easel.html#ada24f00bb5d1a1bb97976967185c7526" target="_top" xlink:title=" ">
<polygon fill="none" stroke="black" points="477,-108.5 477,-138.5 623,-138.5 623,-108.5 477,-108.5"/>
<text text-anchor="start" x="485" y="-126.5" font-family="Helvetica,sans-Serif" font-size="10.00">signal_easel::AddRequired</text>
<text text-anchor="middle" x="550" y="-115.5" font-family="Helvetica,sans-Serif" font-size="10.00">Fields</text>
</a>
</g>
</g>
<!-- Node1&#45;&gt;Node2 -->
<g id="edge1" class="edge">
<title>Node1&#45;&gt;Node2</title>
<path fill="none" stroke="midnightblue" d="M674.23,-92.05C653.15,-97.43 630.15,-103.3 609.8,-108.49"/>
<polygon fill="midnightblue" stroke="midnightblue" points="675.26,-95.4 684.09,-89.53 673.53,-88.62 675.26,-95.4"/>
</g>
<!-- Node8 -->
<g id="node8" class="node">
<title>Node8</title>
<g id="a_node8"><a xlink:href="classsignal__easel_1_1ax25_1_1Frame.html#a63cf2362c2a90d20f09bbbc4f24a07ba" target="_top" xlink:title="Attempt to parse an incoming bit stream into an AX.25 frame.">
<polygon fill="none" stroke="black" points="482.5,-59.5 482.5,-89.5 617.5,-89.5 617.5,-59.5 482.5,-59.5"/>
<text text-anchor="start" x="490.5" y="-77.5" font-family="Helvetica,sans-Serif" font-size="10.00">signal_easel::ax25</text>
<text text-anchor="middle" x="550" y="-66.5" font-family="Helvetica,sans-Serif" font-size="10.00">::Frame::parseBitStream</text>
</a>
</g>
</g>
<!-- Node1&#45;&gt;Node8 -->
<g id="edge7" class="edge">
<title>Node1&#45;&gt;Node8</title>
<path fill="none" stroke="midnightblue" d="M648.72,-74.5C638.19,-74.5 627.63,-74.5 617.55,-74.5"/>
<polygon fill="midnightblue" stroke="midnightblue" points="648.79,-78 658.79,-74.5 648.79,-71 648.79,-78"/>
</g>
<!-- Node11 -->
<g id="node11" class="node">
<title>Node11</title>
<g id="a_node11"><a xlink:href="ax25__frame__test_8cpp.html#a091d83d42783f2a0b3fd33a0521dc2ce" target="_top" xlink:title=" ">
<polygon fill="none" stroke="black" points="529.5,-21 529.5,-40 570.5,-40 570.5,-21 529.5,-21"/>
<text text-anchor="middle" x="550" y="-28" font-family="Helvetica,sans-Serif" font-size="10.00">TEST</text>
</a>
</g>
</g>
<!-- Node1&#45;&gt;Node11 -->
<g id="edge11" class="edge">
<title>Node1&#45;&gt;Node11</title>
<path fill="none" stroke="midnightblue" d="M667.69,-57.24C632.63,-49.21 593.7,-40.29 570.84,-35.05"/>
<polygon fill="midnightblue" stroke="midnightblue" points="666.93,-60.66 677.46,-59.48 668.5,-53.84 666.93,-60.66"/>
</g>
<!-- Node3 -->
<g id="node3" class="node">
<title>Node3</title>
<g id="a_node3"><a xlink:href="namespacesignal__easel.html#aad3ffdd47a4a03ed438e8c1ca9eef231" target="_top" xlink:title=" ">
<polygon fill="none" stroke="black" points="289.5,-129 289.5,-148 439.5,-148 439.5,-129 289.5,-129"/>
<text text-anchor="middle" x="364.5" y="-136" font-family="Helvetica,sans-Serif" font-size="10.00">signal_easel::encodePacket</text>
</a>
</g>
</g>
<!-- Node2&#45;&gt;Node3 -->
<g id="edge2" class="edge">
<title>Node2&#45;&gt;Node3</title>
<path fill="none" stroke="midnightblue" d="M466.61,-130.23C457.58,-130.97 448.43,-131.72 439.5,-132.45"/>
<polygon fill="midnightblue" stroke="midnightblue" points="467.06,-133.71 476.74,-129.41 466.49,-126.73 467.06,-133.71"/>
</g>
<!-- Node4 -->
<g id="node4" class="node">
<title>Node4</title>
<g id="a_node4"><a xlink:href="classsignal__easel_1_1aprs_1_1Modulator.html#adfa8809d1c11321b9ff2c7efe7f58499" target="_top" xlink:title=" ">
<polygon fill="none" stroke="black" points="77,-208.5 77,-238.5 252,-238.5 252,-208.5 77,-208.5"/>
<text text-anchor="start" x="85" y="-226.5" font-family="Helvetica,sans-Serif" font-size="10.00">signal_easel::aprs</text>
<text text-anchor="middle" x="164.5" y="-215.5" font-family="Helvetica,sans-Serif" font-size="10.00">::Modulator::encodeMessageAck</text>
</a>
</g>
</g>
<!-- Node3&#45;&gt;Node4 -->
<g id="edge3" class="edge">
<title>Node3&#45;&gt;Node4</title>
<path fill="none" stroke="midnightblue" d="M339.43,-153.39C317.33,-166.59 283.34,-185.71 252,-198.5 243.03,-202.16 233.33,-205.52 223.78,-208.5"/>
<polygon fill="midnightblue" stroke="midnightblue" points="341.39,-156.3 348.13,-148.13 337.76,-150.31 341.39,-156.3"/>
</g>
<!-- Node5 -->
<g id="node5" class="node">
<title>Node5</title>
<g id="a_node5"><a xlink:href="classsignal__easel_1_1aprs_1_1Modulator.html#a147321b48c2e282c62863f114702e54f" target="_top" xlink:title=" ">
<polygon fill="none" stroke="black" points="86,-148 86,-189 243,-189 243,-148 86,-148"/>
<text text-anchor="start" x="94" y="-177" font-family="Helvetica,sans-Serif" font-size="10.00">signal_easel::aprs</text>
<text text-anchor="start" x="94" y="-166" font-family="Helvetica,sans-Serif" font-size="10.00">::Modulator::encodeMessage</text>
<text text-anchor="middle" x="164.5" y="-155" font-family="Helvetica,sans-Serif" font-size="10.00">Packet</text>
</a>
</g>
</g>
<!-- Node3&#45;&gt;Node5 -->
<g id="edge4" class="edge">
<title>Node3&#45;&gt;Node5</title>
<path fill="none" stroke="midnightblue" d="M290.59,-149.55C275.15,-151.89 258.81,-154.36 243.2,-156.73"/>
<polygon fill="midnightblue" stroke="midnightblue" points="291.22,-152.99 300.58,-148.03 290.17,-146.07 291.22,-152.99"/>
</g>
<!-- Node7 -->
<g id="node7" class="node">
<title>Node7</title>
<g id="a_node7"><a xlink:href="classsignal__easel_1_1aprs_1_1Modulator.html#a943e392227656943d7db842e1889d805" target="_top" xlink:title=" ">
<polygon fill="none" stroke="black" points="88.5,-88 88.5,-129 240.5,-129 240.5,-88 88.5,-88"/>
<text text-anchor="start" x="96.5" y="-117" font-family="Helvetica,sans-Serif" font-size="10.00">signal_easel::aprs</text>
<text text-anchor="start" x="96.5" y="-106" font-family="Helvetica,sans-Serif" font-size="10.00">::Modulator::encodePosition</text>
<text text-anchor="middle" x="164.5" y="-95" font-family="Helvetica,sans-Serif" font-size="10.00">Packet</text>
</a>
</g>
</g>
<!-- Node3&#45;&gt;Node7 -->
<g id="edge6" class="edge">
<title>Node3&#45;&gt;Node7</title>
<path fill="none" stroke="midnightblue" d="M290.61,-127.46C274.35,-124.99 257.08,-122.38 240.73,-119.9"/>
<polygon fill="midnightblue" stroke="midnightblue" points="290.17,-130.93 300.58,-128.97 291.22,-124.01 290.17,-130.93"/>
</g>
<!-- Node6 -->
<g id="node6" class="node">
<title>Node6</title>
<g id="a_node6"><a xlink:href="aprs__test_8cpp.html#aea66d1824e3f1e27598adf99ac6a089a" target="_top" xlink:title=" ">
<polygon fill="none" stroke="black" points="0,-104 0,-123 41,-123 41,-104 0,-104"/>
<text text-anchor="middle" x="20.5" y="-111" font-family="Helvetica,sans-Serif" font-size="10.00">TEST</text>
</a>
</g>
</g>
<!-- Node5&#45;&gt;Node6 -->
<g id="edge5" class="edge">
<title>Node5&#45;&gt;Node6</title>
<path fill="none" stroke="midnightblue" d="M92.39,-144.41C87.16,-142.46 81.98,-140.48 77,-138.5 64.92,-133.7 51.64,-127.74 41.09,-122.84"/>
<polygon fill="midnightblue" stroke="midnightblue" points="91.23,-147.71 101.82,-147.87 93.63,-141.14 91.23,-147.71"/>
</g>
<!-- Node9 -->
<g id="node9" class="node">
<title>Node9</title>
<g id="a_node9"><a xlink:href="classsignal__easel_1_1aprs_1_1Demodulator.html#ae5a8e7634c1bc8d215a0c454a9a737fa" target="_top" xlink:title=" ">
<polygon fill="none" stroke="black" points="288,-39 288,-80 441,-80 441,-39 288,-39"/>
<text text-anchor="start" x="296" y="-68" font-family="Helvetica,sans-Serif" font-size="10.00">signal_easel::aprs</text>
<text text-anchor="start" x="296" y="-57" font-family="Helvetica,sans-Serif" font-size="10.00">::Demodulator::lookForAx25</text>
<text text-anchor="middle" x="364.5" y="-46" font-family="Helvetica,sans-Serif" font-size="10.00">Packet</text>
</a>
</g>
</g>
<!-- Node8&#45;&gt;Node9 -->
<g id="edge8" class="edge">
<title>Node8&#45;&gt;Node9</title>
<path fill="none" stroke="midnightblue" d="M472.29,-68.23C461.98,-67.39 451.41,-66.52 441.11,-65.68"/>
<polygon fill="midnightblue" stroke="midnightblue" points="472.24,-71.74 482.49,-69.06 472.81,-64.76 472.24,-71.74"/>
</g>
<!-- Node9&#45;&gt;Node6 -->
<g id="edge10" class="edge">
<title>Node9&#45;&gt;Node6</title>
<path fill="none" stroke="midnightblue" d="M277.76,-54.31C219.72,-53.41 142.07,-57.34 77,-78.5 60.32,-83.93 43.62,-95.49 32.97,-103.84"/>
<polygon fill="midnightblue" stroke="midnightblue" points="277.93,-57.82 288,-54.53 278.07,-50.82 277.93,-57.82"/>
</g>
<!-- Node10 -->
<g id="node10" class="node">
<title>Node10</title>
<g id="a_node10"><a xlink:href="classsignal__easel_1_1aprs_1_1Receiver.html#afbf7869aceaf2ea7ab0be8b9af16e818" target="_top" xlink:title=" ">
<polygon fill="none" stroke="black" points="111,-0.5 111,-30.5 218,-30.5 218,-0.5 111,-0.5"/>
<text text-anchor="start" x="119" y="-18.5" font-family="Helvetica,sans-Serif" font-size="10.00">signal_easel::aprs</text>
<text text-anchor="middle" x="164.5" y="-7.5" font-family="Helvetica,sans-Serif" font-size="10.00">::Receiver::decode</text>
</a>
</g>
</g>
<!-- Node9&#45;&gt;Node10 -->
<g id="edge9" class="edge">
<title>Node9&#45;&gt;Node10</title>
<path fill="none" stroke="midnightblue" d="M277.89,-40.48C257.57,-35.96 236.47,-31.27 218.12,-27.19"/>
<polygon fill="midnightblue" stroke="midnightblue" points="277.28,-43.92 287.8,-42.68 278.79,-37.09 277.28,-43.92"/>
</g>
</g>
</svg>
