<?xml version="1.0" encoding="UTF-8" standalone="no"?>
<!DOCTYPE svg PUBLIC "-//W3C//DTD SVG 1.1//EN"
 "http://www.w3.org/Graphics/SVG/1.1/DTD/svg11.dtd">
<!-- Generated by graphviz version 2.43.0 (0)
 -->
<!-- Title: signal_easel::afsk::Receiver::process Pages: 1 -->
<svg width="290pt" height="137pt"
 viewBox="0.00 0.00 290.00 137.00" xmlns="http://www.w3.org/2000/svg" xmlns:xlink="http://www.w3.org/1999/xlink">
<g id="graph0" class="graph" transform="scale(1 1) rotate(0) translate(4 133)">
<title>signal_easel::afsk::Receiver::process</title>
<!-- Node1 -->
<g id="node1" class="node">
<title>Node1</title>
<g id="a_node1"><a xlink:title="Returns true if there was enough data to process.">
<polygon fill="#bfbfbf" stroke="black" points="0,-49.5 0,-79.5 109,-79.5 109,-49.5 0,-49.5"/>
<text text-anchor="start" x="8" y="-67.5" font-family="Helvetica,sans-Serif" font-size="10.00">signal_easel::afsk</text>
<text text-anchor="middle" x="54.5" y="-56.5" font-family="Helvetica,sans-Serif" font-size="10.00">::Receiver::process</text>
</a>
</g>
</g>
<!-- Node2 -->
<g id="node2" class="node">
<title>Node2</title>
<g id="a_node2"><a xlink:href="classsignal__easel_1_1afsk_1_1Receiver.html#a516bafcdb924ea09c44233dcca6069c3" target="_top" xlink:title=" ">
<polygon fill="none" stroke="black" points="147.5,-98.5 147.5,-128.5 279.5,-128.5 279.5,-98.5 147.5,-98.5"/>
<text text-anchor="start" x="155.5" y="-116.5" font-family="Helvetica,sans-Serif" font-size="10.00">signal_easel::afsk</text>
<text text-anchor="middle" x="213.5" y="-105.5" font-family="Helvetica,sans-Serif" font-size="10.00">::Receiver::detectSignal</text>
</a>
</g>
</g>
<!-- Node1&#45;&gt;Node2 -->
<g id="edge1" class="edge">
<title>Node1&#45;&gt;Node2</title>
<path fill="none" stroke="midnightblue" d="M103.89,-79.6C119.93,-84.61 137.95,-90.23 154.63,-95.44"/>
<polygon fill="midnightblue" stroke="midnightblue" points="153.68,-98.81 164.27,-98.45 155.77,-92.13 153.68,-98.81"/>
</g>
<!-- Node3 -->
<g id="node3" class="node">
<title>Node3</title>
<g id="a_node3"><a xlink:href="classsignal__easel_1_1PulseAudioReader.html#acab1af66b45821dc593e77e10d73d185" target="_top" xlink:title=" ">
<polygon fill="none" stroke="black" points="145,-49.5 145,-79.5 282,-79.5 282,-49.5 145,-49.5"/>
<text text-anchor="start" x="153" y="-67.5" font-family="Helvetica,sans-Serif" font-size="10.00">signal_easel::PulseAudio</text>
<text text-anchor="middle" x="213.5" y="-56.5" font-family="Helvetica,sans-Serif" font-size="10.00">Reader::getAudioBuffer</text>
</a>
</g>
</g>
<!-- Node1&#45;&gt;Node3 -->
<g id="edge2" class="edge">
<title>Node1&#45;&gt;Node3</title>
<path fill="none" stroke="midnightblue" d="M109.09,-64.5C117.39,-64.5 126.11,-64.5 134.81,-64.5"/>
<polygon fill="midnightblue" stroke="midnightblue" points="134.99,-68 144.99,-64.5 134.99,-61 134.99,-68"/>
</g>
<!-- Node4 -->
<g id="node4" class="node">
<title>Node4</title>
<g id="a_node4"><a xlink:href="classsignal__easel_1_1PulseAudioReader.html#a1d505ed5ac75100f13312c6311883604" target="_top" xlink:title="Returns true if there was enough audio to process.">
<polygon fill="none" stroke="black" points="145,-0.5 145,-30.5 282,-30.5 282,-0.5 145,-0.5"/>
<text text-anchor="start" x="153" y="-18.5" font-family="Helvetica,sans-Serif" font-size="10.00">signal_easel::PulseAudio</text>
<text text-anchor="middle" x="213.5" y="-7.5" font-family="Helvetica,sans-Serif" font-size="10.00">Reader::process</text>
</a>
</g>
</g>
<!-- Node1&#45;&gt;Node4 -->
<g id="edge3" class="edge">
<title>Node1&#45;&gt;Node4</title>
<path fill="none" stroke="midnightblue" d="M103.89,-49.4C119.93,-44.39 137.95,-38.77 154.63,-33.56"/>
<polygon fill="midnightblue" stroke="midnightblue" points="155.77,-36.87 164.27,-30.55 153.68,-30.19 155.77,-36.87"/>
</g>
</g>
</svg>
