<?xml version="1.0" encoding="UTF-8" standalone="no"?>
<!DOCTYPE svg PUBLIC "-//W3C//DTD SVG 1.1//EN"
 "http://www.w3.org/Graphics/SVG/1.1/DTD/svg11.dtd">
<!-- Generated by graphviz version 2.43.0 (0)
 -->
<!-- Title: signal_easel::ax25::Frame::parseBitStream Pages: 1 -->
<svg width="409pt" height="50pt"
 viewBox="0.00 0.00 409.00 50.00" xmlns="http://www.w3.org/2000/svg" xmlns:xlink="http://www.w3.org/1999/xlink">
<g id="graph0" class="graph" transform="scale(1 1) rotate(0) translate(4 46)">
<title>signal_easel::ax25::Frame::parseBitStream</title>
<!-- Node1 -->
<g id="node1" class="node">
<title>Node1</title>
<g id="a_node1"><a xlink:title="Attempt to parse an incoming bit stream into an AX.25 frame.">
<polygon fill="#bfbfbf" stroke="black" points="266,-6 266,-36 401,-36 401,-6 266,-6"/>
<text text-anchor="start" x="274" y="-24" font-family="Helvetica,sans-Serif" font-size="10.00">signal_easel::ax25</text>
<text text-anchor="middle" x="333.5" y="-13" font-family="Helvetica,sans-Serif" font-size="10.00">::Frame::parseBitStream</text>
</a>
</g>
</g>
<!-- Node2 -->
<g id="node2" class="node">
<title>Node2</title>
<g id="a_node2"><a xlink:href="classsignal__easel_1_1aprs_1_1Demodulator.html#ae5a8e7634c1bc8d215a0c454a9a737fa" target="_top" xlink:title=" ">
<polygon fill="none" stroke="black" points="77,-0.5 77,-41.5 230,-41.5 230,-0.5 77,-0.5"/>
<text text-anchor="start" x="85" y="-29.5" font-family="Helvetica,sans-Serif" font-size="10.00">signal_easel::aprs</text>
<text text-anchor="start" x="85" y="-18.5" font-family="Helvetica,sans-Serif" font-size="10.00">::Demodulator::lookForAx25</text>
<text text-anchor="middle" x="153.5" y="-7.5" font-family="Helvetica,sans-Serif" font-size="10.00">Packet</text>
</a>
</g>
</g>
<!-- Node1&#45;&gt;Node2 -->
<g id="edge1" class="edge">
<title>Node1&#45;&gt;Node2</title>
<path fill="none" stroke="midnightblue" d="M255.74,-21C247.29,-21 238.68,-21 230.23,-21"/>
<polygon fill="midnightblue" stroke="midnightblue" points="255.97,-24.5 265.97,-21 255.97,-17.5 255.97,-24.5"/>
</g>
<!-- Node3 -->
<g id="node3" class="node">
<title>Node3</title>
<g id="a_node3"><a xlink:href="aprs__test_8cpp.html#aea66d1824e3f1e27598adf99ac6a089a" target="_top" xlink:title=" ">
<polygon fill="none" stroke="black" points="0,-11.5 0,-30.5 41,-30.5 41,-11.5 0,-11.5"/>
<text text-anchor="middle" x="20.5" y="-18.5" font-family="Helvetica,sans-Serif" font-size="10.00">TEST</text>
</a>
</g>
</g>
<!-- Node2&#45;&gt;Node3 -->
<g id="edge2" class="edge">
<title>Node2&#45;&gt;Node3</title>
<path fill="none" stroke="midnightblue" d="M66.67,-21C57.26,-21 48.46,-21 41.18,-21"/>
<polygon fill="midnightblue" stroke="midnightblue" points="66.68,-24.5 76.68,-21 66.68,-17.5 66.68,-24.5"/>
</g>
</g>
</svg>
