<?xml version="1.0" encoding="UTF-8" standalone="no"?>
<!DOCTYPE svg PUBLIC "-//W3C//DTD SVG 1.1//EN"
 "http://www.w3.org/Graphics/SVG/1.1/DTD/svg11.dtd">
<!-- Generated by graphviz version 2.43.0 (0)
 -->
<!-- Title: signal_easel::Receiver Pages: 1 -->
<svg width="139pt" height="452pt"
 viewBox="0.00 0.00 139.00 452.00" xmlns="http://www.w3.org/2000/svg" xmlns:xlink="http://www.w3.org/1999/xlink">
<g id="graph0" class="graph" transform="scale(1 1) rotate(0) translate(4 448)">
<title>signal_easel::Receiver</title>
<!-- Node1 -->
<g id="node1" class="node">
<title>Node1</title>
<g id="a_node1"><a xlink:title=" ">
<polygon fill="#bfbfbf" stroke="black" points="1.5,-331.5 1.5,-443.5 129.5,-443.5 129.5,-331.5 1.5,-331.5"/>
<text text-anchor="middle" x="65.5" y="-431.5" font-family="Helvetica,sans-Serif" font-size="10.00">signal_easel::Receiver</text>
<polyline fill="none" stroke="black" points="1.5,-424.5 129.5,-424.5 "/>
<text text-anchor="start" x="9.5" y="-412.5" font-family="Helvetica,sans-Serif" font-size="10.00"># pulse_audio_reader_</text>
<text text-anchor="start" x="9.5" y="-401.5" font-family="Helvetica,sans-Serif" font-size="10.00"># settings_</text>
<polyline fill="none" stroke="black" points="1.5,-394.5 129.5,-394.5 "/>
<text text-anchor="start" x="9.5" y="-382.5" font-family="Helvetica,sans-Serif" font-size="10.00">+ Receiver()</text>
<text text-anchor="start" x="9.5" y="-371.5" font-family="Helvetica,sans-Serif" font-size="10.00">+ ~Receiver()</text>
<text text-anchor="start" x="9.5" y="-360.5" font-family="Helvetica,sans-Serif" font-size="10.00">+ getLatency()</text>
<text text-anchor="start" x="9.5" y="-349.5" font-family="Helvetica,sans-Serif" font-size="10.00">+ getVolume()</text>
<text text-anchor="start" x="9.5" y="-338.5" font-family="Helvetica,sans-Serif" font-size="10.00">+ process()</text>
</a>
</g>
</g>
<!-- Node2 -->
<g id="node2" class="node">
<title>Node2</title>
<g id="a_node2"><a xlink:href="classsignal__easel_1_1afsk_1_1Receiver.html" target="_top" xlink:title="For receiving AFSK signals via a pulse audio stream.">
<polygon fill="none" stroke="black" points="13.5,-160.5 13.5,-294.5 117.5,-294.5 117.5,-160.5 13.5,-160.5"/>
<text text-anchor="start" x="21.5" y="-282.5" font-family="Helvetica,sans-Serif" font-size="10.00">signal_easel::afsk</text>
<text text-anchor="middle" x="65.5" y="-271.5" font-family="Helvetica,sans-Serif" font-size="10.00">::Receiver</text>
<polyline fill="none" stroke="black" points="13.5,-264.5 117.5,-264.5 "/>
<text text-anchor="start" x="21.5" y="-252.5" font-family="Helvetica,sans-Serif" font-size="10.00"># afsk_settings_</text>
<text text-anchor="start" x="21.5" y="-241.5" font-family="Helvetica,sans-Serif" font-size="10.00"># demodulator_</text>
<text text-anchor="start" x="21.5" y="-230.5" font-family="Helvetica,sans-Serif" font-size="10.00"># receive_buffer_</text>
<polyline fill="none" stroke="black" points="13.5,-223.5 117.5,-223.5 "/>
<text text-anchor="start" x="21.5" y="-211.5" font-family="Helvetica,sans-Serif" font-size="10.00">+ Receiver()</text>
<text text-anchor="start" x="21.5" y="-200.5" font-family="Helvetica,sans-Serif" font-size="10.00">+ ~Receiver()</text>
<text text-anchor="start" x="21.5" y="-189.5" font-family="Helvetica,sans-Serif" font-size="10.00">+ process()</text>
<text text-anchor="start" x="21.5" y="-178.5" font-family="Helvetica,sans-Serif" font-size="10.00"># decode()</text>
<text text-anchor="start" x="21.5" y="-167.5" font-family="Helvetica,sans-Serif" font-size="10.00"># detectSignal()</text>
</a>
</g>
</g>
<!-- Node1&#45;&gt;Node2 -->
<g id="edge1" class="edge">
<title>Node1&#45;&gt;Node2</title>
<path fill="none" stroke="midnightblue" d="M65.5,-321.09C65.5,-312.34 65.5,-303.35 65.5,-294.59"/>
<polygon fill="none" stroke="midnightblue" points="62,-321.24 65.5,-331.24 69,-321.24 62,-321.24"/>
</g>
<!-- Node3 -->
<g id="node3" class="node">
<title>Node3</title>
<g id="a_node3"><a xlink:href="classsignal__easel_1_1aprs_1_1Receiver.html" target="_top" xlink:title=" ">
<polygon fill="none" stroke="black" points="0,-0.5 0,-123.5 131,-123.5 131,-0.5 0,-0.5"/>
<text text-anchor="start" x="8" y="-111.5" font-family="Helvetica,sans-Serif" font-size="10.00">signal_easel::aprs</text>
<text text-anchor="middle" x="65.5" y="-100.5" font-family="Helvetica,sans-Serif" font-size="10.00">::Receiver</text>
<polyline fill="none" stroke="black" points="0,-93.5 131,-93.5 "/>
<text text-anchor="start" x="8" y="-81.5" font-family="Helvetica,sans-Serif" font-size="10.00">&#45; aprs_demodulator_</text>
<text text-anchor="start" x="8" y="-70.5" font-family="Helvetica,sans-Serif" font-size="10.00">&#45; aprs_messages_</text>
<text text-anchor="start" x="8" y="-59.5" font-family="Helvetica,sans-Serif" font-size="10.00">&#45; other_aprs_packets_</text>
<polyline fill="none" stroke="black" points="0,-52.5 131,-52.5 "/>
<text text-anchor="start" x="8" y="-40.5" font-family="Helvetica,sans-Serif" font-size="10.00">+ Receiver()</text>
<text text-anchor="start" x="8" y="-29.5" font-family="Helvetica,sans-Serif" font-size="10.00">+ getAprsMessage()</text>
<text text-anchor="start" x="8" y="-18.5" font-family="Helvetica,sans-Serif" font-size="10.00">+ getOtherAprsPacket()</text>
<text text-anchor="start" x="8" y="-7.5" font-family="Helvetica,sans-Serif" font-size="10.00">&#45; decode()</text>
</a>
</g>
</g>
<!-- Node2&#45;&gt;Node3 -->
<g id="edge2" class="edge">
<title>Node2&#45;&gt;Node3</title>
<path fill="none" stroke="midnightblue" d="M65.5,-150.42C65.5,-141.47 65.5,-132.43 65.5,-123.73"/>
<polygon fill="none" stroke="midnightblue" points="62,-150.47 65.5,-160.47 69,-150.47 62,-150.47"/>
</g>
</g>
</svg>
