<?xml version="1.0" encoding="UTF-8" standalone="no"?>
<!DOCTYPE svg PUBLIC "-//W3C//DTD SVG 1.1//EN"
 "http://www.w3.org/Graphics/SVG/1.1/DTD/svg11.dtd">
<!-- Generated by graphviz version 2.43.0 (0)
 -->
<!-- Title: signal_easel::aprs::Modulator::encode Pages: 1 -->
<svg width="1400pt" height="465pt"
 viewBox="0.00 0.00 1400.00 465.00" xmlns="http://www.w3.org/2000/svg" xmlns:xlink="http://www.w3.org/1999/xlink">
<g id="graph0" class="graph" transform="scale(1 1) rotate(0) translate(4 461)">
<title>signal_easel::aprs::Modulator::encode</title>
<!-- Node1 -->
<g id="node1" class="node">
<title>Node1</title>
<g id="a_node1"><a xlink:title=" ">
<polygon fill="#bfbfbf" stroke="black" points="0,-377.5 0,-407.5 113,-407.5 113,-377.5 0,-377.5"/>
<text text-anchor="start" x="8" y="-395.5" font-family="Helvetica,sans-Serif" font-size="10.00">signal_easel::aprs</text>
<text text-anchor="middle" x="56.5" y="-384.5" font-family="Helvetica,sans-Serif" font-size="10.00">::Modulator::encode</text>
</a>
</g>
</g>
<!-- Node2 -->
<g id="node2" class="node">
<title>Node2</title>
<g id="a_node2"><a xlink:href="structsignal__easel_1_1aprs_1_1MessagePacket.html#a2384b4285118df9fdcbd506a8332dc91" target="_top" xlink:title=" ">
<polygon fill="none" stroke="black" points="150,-426.5 150,-456.5 289,-456.5 289,-426.5 150,-426.5"/>
<text text-anchor="start" x="158" y="-444.5" font-family="Helvetica,sans-Serif" font-size="10.00">signal_easel::aprs</text>
<text text-anchor="middle" x="219.5" y="-433.5" font-family="Helvetica,sans-Serif" font-size="10.00">::MessagePacket::encode</text>
</a>
</g>
</g>
<!-- Node1&#45;&gt;Node2 -->
<g id="edge1" class="edge">
<title>Node1&#45;&gt;Node2</title>
<path fill="none" stroke="midnightblue" d="M107.12,-407.6C123.57,-412.61 142.05,-418.23 159.16,-423.44"/>
<polygon fill="midnightblue" stroke="midnightblue" points="158.46,-426.89 169.04,-426.45 160.5,-420.19 158.46,-426.89"/>
</g>
<!-- Node3 -->
<g id="node3" class="node">
<title>Node3</title>
<g id="a_node3"><a xlink:href="classsignal__easel_1_1afsk_1_1Modulator.html#a8e377665e5432ebb66de359635aeeafb" target="_top" xlink:title="This is overridden by the child classes to encode the data that is passed in by addBytes and addStrin...">
<polygon fill="none" stroke="black" points="149,-377.5 149,-407.5 290,-407.5 290,-377.5 149,-377.5"/>
<text text-anchor="start" x="157" y="-395.5" font-family="Helvetica,sans-Serif" font-size="10.00">signal_easel::afsk</text>
<text text-anchor="middle" x="219.5" y="-384.5" font-family="Helvetica,sans-Serif" font-size="10.00">::Modulator::encodeBytes</text>
</a>
</g>
</g>
<!-- Node1&#45;&gt;Node3 -->
<g id="edge2" class="edge">
<title>Node1&#45;&gt;Node3</title>
<path fill="none" stroke="midnightblue" d="M113.36,-392.5C121.58,-392.5 130.19,-392.5 138.78,-392.5"/>
<polygon fill="midnightblue" stroke="midnightblue" points="138.84,-396 148.84,-392.5 138.84,-389 138.84,-396"/>
</g>
<!-- Node8 -->
<g id="node8" class="node">
<title>Node8</title>
<g id="a_node8"><a xlink:href="namespacesignal__easel_1_1aprs.html#a77481001a5b78a839972bb4220b43e4d" target="_top" xlink:title=" ">
<polygon fill="none" stroke="black" points="167.5,-262.5 167.5,-292.5 271.5,-292.5 271.5,-262.5 167.5,-262.5"/>
<text text-anchor="start" x="175.5" y="-280.5" font-family="Helvetica,sans-Serif" font-size="10.00">signal_easel::aprs</text>
<text text-anchor="middle" x="219.5" y="-269.5" font-family="Helvetica,sans-Serif" font-size="10.00">::encodePacket</text>
</a>
</g>
</g>
<!-- Node1&#45;&gt;Node8 -->
<g id="edge7" class="edge">
<title>Node1&#45;&gt;Node8</title>
<path fill="none" stroke="midnightblue" d="M78.55,-377.47C106.75,-357.32 156.95,-321.46 188.94,-298.61"/>
<polygon fill="midnightblue" stroke="midnightblue" points="191.34,-301.2 197.45,-292.54 187.28,-295.5 191.34,-301.2"/>
</g>
<!-- Node4 -->
<g id="node4" class="node">
<title>Node4</title>
<g id="a_node4"><a xlink:href="classsignal__easel_1_1Modulator.html#af99ee22156e320703891f0fda4df95e8" target="_top" xlink:title="Add a PCM sample to the audio buffer.">
<polygon fill="none" stroke="black" points="327.5,-426.5 327.5,-456.5 460.5,-456.5 460.5,-426.5 327.5,-426.5"/>
<text text-anchor="start" x="335.5" y="-444.5" font-family="Helvetica,sans-Serif" font-size="10.00">signal_easel::Modulator</text>
<text text-anchor="middle" x="394" y="-433.5" font-family="Helvetica,sans-Serif" font-size="10.00">::addAudioSample</text>
</a>
</g>
</g>
<!-- Node3&#45;&gt;Node4 -->
<g id="edge3" class="edge">
<title>Node3&#45;&gt;Node4</title>
<path fill="none" stroke="midnightblue" d="M273.66,-407.6C291.54,-412.68 311.64,-418.39 330.19,-423.66"/>
<polygon fill="midnightblue" stroke="midnightblue" points="329.44,-427.08 340.01,-426.45 331.35,-420.35 329.44,-427.08"/>
</g>
<!-- Node5 -->
<g id="node5" class="node">
<title>Node5</title>
<g id="a_node5"><a xlink:href="namespacesignal__easel.html#a815178bfbe2aee7cc2e3c74237233e6c" target="_top" xlink:title="Gets the bipolar value of a bit at a given index from a vector of bytes.">
<polygon fill="none" stroke="black" points="326,-377.5 326,-407.5 462,-407.5 462,-377.5 326,-377.5"/>
<text text-anchor="start" x="334" y="-395.5" font-family="Helvetica,sans-Serif" font-size="10.00">signal_easel::getBpBitAt</text>
<text text-anchor="middle" x="394" y="-384.5" font-family="Helvetica,sans-Serif" font-size="10.00">Index</text>
</a>
</g>
</g>
<!-- Node3&#45;&gt;Node5 -->
<g id="edge4" class="edge">
<title>Node3&#45;&gt;Node5</title>
<path fill="none" stroke="midnightblue" d="M290.17,-392.5C298.54,-392.5 307.13,-392.5 315.61,-392.5"/>
<polygon fill="midnightblue" stroke="midnightblue" points="315.87,-396 325.87,-392.5 315.87,-389 315.87,-396"/>
</g>
<!-- Node6 -->
<g id="node6" class="node">
<title>Node6</title>
<g id="a_node6"><a xlink:href="namespacesignal__easel.html#aa81833e925b9f020659999a2a4a82559" target="_top" xlink:title="Converts a bit to it&#39;s bipolar value (0 = 1, 1 = &#45;1)">
<polygon fill="none" stroke="black" points="498,-421 498,-440 663,-440 663,-421 498,-421"/>
<text text-anchor="middle" x="580.5" y="-428" font-family="Helvetica,sans-Serif" font-size="10.00">signal_easel::convertToBipolar</text>
</a>
</g>
</g>
<!-- Node5&#45;&gt;Node6 -->
<g id="edge5" class="edge">
<title>Node5&#45;&gt;Node6</title>
<path fill="none" stroke="midnightblue" d="M462.13,-406.33C482.22,-410.46 504.04,-414.96 523.34,-418.93"/>
<polygon fill="midnightblue" stroke="midnightblue" points="522.69,-422.37 533.19,-420.96 524.1,-415.52 522.69,-422.37"/>
</g>
<!-- Node7 -->
<g id="node7" class="node">
<title>Node7</title>
<g id="a_node7"><a xlink:href="namespacesignal__easel.html#a248ddb36f02c1436acd66c0409189637" target="_top" xlink:title="For reading a byte MSB first.">
<polygon fill="none" stroke="black" points="520,-383 520,-402 641,-402 641,-383 520,-383"/>
<text text-anchor="middle" x="580.5" y="-390" font-family="Helvetica,sans-Serif" font-size="10.00">signal_easel::isBitSet</text>
</a>
</g>
</g>
<!-- Node5&#45;&gt;Node7 -->
<g id="edge6" class="edge">
<title>Node5&#45;&gt;Node7</title>
<path fill="none" stroke="midnightblue" d="M462.13,-392.5C477.6,-392.5 494.08,-392.5 509.66,-392.5"/>
<polygon fill="midnightblue" stroke="midnightblue" points="509.75,-396 519.75,-392.5 509.75,-389 509.75,-396"/>
</g>
<!-- Node9 -->
<g id="node9" class="node">
<title>Node9</title>
<g id="a_node9"><a xlink:href="namespacesignal__easel_1_1aprs.html#a586b022fa0c917fa8557bbd5cdc6aeeb" target="_top" xlink:title=" ">
<polygon fill="none" stroke="black" points="524,-333.5 524,-363.5 637,-363.5 637,-333.5 524,-333.5"/>
<text text-anchor="start" x="532" y="-351.5" font-family="Helvetica,sans-Serif" font-size="10.00">signal_easel::aprs</text>
<text text-anchor="middle" x="580.5" y="-340.5" font-family="Helvetica,sans-Serif" font-size="10.00">::AddRequiredFields</text>
</a>
</g>
</g>
<!-- Node8&#45;&gt;Node9 -->
<g id="edge8" class="edge">
<title>Node8&#45;&gt;Node9</title>
<path fill="none" stroke="midnightblue" d="M271.55,-287.6C335.21,-300.19 444.12,-321.73 513.9,-335.53"/>
<polygon fill="midnightblue" stroke="midnightblue" points="513.41,-339 523.9,-337.5 514.77,-332.13 513.41,-339"/>
</g>
<!-- Node17 -->
<g id="node17" class="node">
<title>Node17</title>
<g id="a_node17"><a xlink:href="classsignal__easel_1_1ax25_1_1Frame.html#a2b4f6ebcb7592a7e5a21114c8fafa503" target="_top" xlink:title="A step beyond buildFrame. This function builds the frame, does the bit stuffing, adds the flags,...">
<polygon fill="none" stroke="black" points="331.5,-196.5 331.5,-226.5 456.5,-226.5 456.5,-196.5 331.5,-196.5"/>
<text text-anchor="start" x="339.5" y="-214.5" font-family="Helvetica,sans-Serif" font-size="10.00">signal_easel::ax25</text>
<text text-anchor="middle" x="394" y="-203.5" font-family="Helvetica,sans-Serif" font-size="10.00">::Frame::encodeFrame</text>
</a>
</g>
</g>
<!-- Node8&#45;&gt;Node17 -->
<g id="edge17" class="edge">
<title>Node8&#45;&gt;Node17</title>
<path fill="none" stroke="midnightblue" d="M260.07,-262.36C285.06,-252.8 317.52,-240.38 344.1,-230.21"/>
<polygon fill="midnightblue" stroke="midnightblue" points="345.52,-233.41 353.61,-226.57 343.02,-226.88 345.52,-233.41"/>
</g>
<!-- Node31 -->
<g id="node31" class="node">
<title>Node31</title>
<g id="a_node31"><a xlink:href="classsignal__easel_1_1ax25_1_1Frame.html#afc5c722b419621f2a4dccbe2208faea1" target="_top" xlink:title=" ">
<polygon fill="none" stroke="black" points="328.5,-147.5 328.5,-177.5 459.5,-177.5 459.5,-147.5 328.5,-147.5"/>
<text text-anchor="start" x="336.5" y="-165.5" font-family="Helvetica,sans-Serif" font-size="10.00">signal_easel::ax25</text>
<text text-anchor="middle" x="394" y="-154.5" font-family="Helvetica,sans-Serif" font-size="10.00">::Frame::setInformation</text>
</a>
</g>
</g>
<!-- Node8&#45;&gt;Node31 -->
<g id="edge35" class="edge">
<title>Node8&#45;&gt;Node31</title>
<path fill="none" stroke="midnightblue" d="M234.52,-262.34C253.56,-242.52 289.43,-207.82 326,-186.5 328.83,-184.85 331.79,-183.29 334.83,-181.81"/>
<polygon fill="midnightblue" stroke="midnightblue" points="336.42,-184.92 344.1,-177.62 333.54,-178.54 336.42,-184.92"/>
</g>
<!-- Node10 -->
<g id="node10" class="node">
<title>Node10</title>
<g id="a_node10"><a xlink:href="namespacesignal__easel_1_1aprs.html#ae16006b4c75ab6423ad8b90ea814a14f" target="_top" xlink:title=" ">
<polygon fill="none" stroke="black" points="730.5,-392.5 730.5,-422.5 837.5,-422.5 837.5,-392.5 730.5,-392.5"/>
<text text-anchor="start" x="738.5" y="-410.5" font-family="Helvetica,sans-Serif" font-size="10.00">signal_easel::aprs</text>
<text text-anchor="middle" x="784" y="-399.5" font-family="Helvetica,sans-Serif" font-size="10.00">::CheckPacketData</text>
</a>
</g>
</g>
<!-- Node9&#45;&gt;Node10 -->
<g id="edge9" class="edge">
<title>Node9&#45;&gt;Node10</title>
<path fill="none" stroke="midnightblue" d="M632.87,-363.54C659.99,-371.48 693.45,-381.28 721.89,-389.61"/>
<polygon fill="midnightblue" stroke="midnightblue" points="721.14,-393.04 731.73,-392.49 723.11,-386.32 721.14,-393.04"/>
</g>
<!-- Node11 -->
<g id="node11" class="node">
<title>Node11</title>
<g id="a_node11"><a xlink:href="classsignal__easel_1_1ax25_1_1Frame.html#a57b163ece54317da8d95f3b18b47c23d" target="_top" xlink:title="setters/getters for the frame.">
<polygon fill="none" stroke="black" points="699,-343.5 699,-373.5 869,-373.5 869,-343.5 699,-343.5"/>
<text text-anchor="start" x="707" y="-361.5" font-family="Helvetica,sans-Serif" font-size="10.00">signal_easel::ax25</text>
<text text-anchor="middle" x="784" y="-350.5" font-family="Helvetica,sans-Serif" font-size="10.00">::Frame::setDestinationAddress</text>
</a>
</g>
</g>
<!-- Node9&#45;&gt;Node11 -->
<g id="edge10" class="edge">
<title>Node9&#45;&gt;Node11</title>
<path fill="none" stroke="midnightblue" d="M637.09,-351.26C653.06,-352.05 670.94,-352.94 688.56,-353.81"/>
<polygon fill="midnightblue" stroke="midnightblue" points="688.73,-357.33 698.89,-354.33 689.08,-350.33 688.73,-357.33"/>
</g>
<!-- Node16 -->
<g id="node16" class="node">
<title>Node16</title>
<g id="a_node16"><a xlink:href="classsignal__easel_1_1ax25_1_1Frame.html#a402d26a81f82bb5c477e8930b75a771e" target="_top" xlink:title=" ">
<polygon fill="none" stroke="black" points="711,-294.5 711,-324.5 857,-324.5 857,-294.5 711,-294.5"/>
<text text-anchor="start" x="719" y="-312.5" font-family="Helvetica,sans-Serif" font-size="10.00">signal_easel::ax25</text>
<text text-anchor="middle" x="784" y="-301.5" font-family="Helvetica,sans-Serif" font-size="10.00">::Frame::setSourceAddress</text>
</a>
</g>
</g>
<!-- Node9&#45;&gt;Node16 -->
<g id="edge15" class="edge">
<title>Node9&#45;&gt;Node16</title>
<path fill="none" stroke="midnightblue" d="M637.09,-337.74C656.8,-333.92 679.42,-329.55 700.87,-325.4"/>
<polygon fill="midnightblue" stroke="midnightblue" points="701.81,-328.78 710.96,-323.44 700.48,-321.91 701.81,-328.78"/>
</g>
<!-- Node12 -->
<g id="node12" class="node">
<title>Node12</title>
<g id="a_node12"><a xlink:href="classsignal__easel_1_1ax25_1_1Address.html#a7fa6b0ef4241413893f201660991e4ea" target="_top" xlink:title="Checks if the address is valid, if not throws an exception with a specific error code.">
<polygon fill="none" stroke="black" points="905,-291.5 905,-321.5 1035,-321.5 1035,-291.5 905,-291.5"/>
<text text-anchor="start" x="913" y="-309.5" font-family="Helvetica,sans-Serif" font-size="10.00">signal_easel::ax25</text>
<text text-anchor="middle" x="970" y="-298.5" font-family="Helvetica,sans-Serif" font-size="10.00">::Address::assertIsValid</text>
</a>
</g>
</g>
<!-- Node11&#45;&gt;Node12 -->
<g id="edge11" class="edge">
<title>Node11&#45;&gt;Node12</title>
<path fill="none" stroke="midnightblue" d="M838.22,-343.46C859.49,-337.45 884.13,-330.48 906.26,-324.23"/>
<polygon fill="midnightblue" stroke="midnightblue" points="907.23,-327.59 915.9,-321.51 905.32,-320.86 907.23,-327.59"/>
</g>
<!-- Node13 -->
<g id="node13" class="node">
<title>Node13</title>
<g id="a_node13"><a xlink:href="classsignal__easel_1_1ax25_1_1Address.html#af34b361f739b7995e7816b7a04465828" target="_top" xlink:title=" ">
<polygon fill="none" stroke="black" points="1071,-286 1071,-327 1236,-327 1236,-286 1071,-286"/>
<text text-anchor="start" x="1079" y="-315" font-family="Helvetica,sans-Serif" font-size="10.00">signal_easel::ax25</text>
<text text-anchor="start" x="1079" y="-304" font-family="Helvetica,sans-Serif" font-size="10.00">::Address::assertAddressString</text>
<text text-anchor="middle" x="1153.5" y="-293" font-family="Helvetica,sans-Serif" font-size="10.00">IsValid</text>
</a>
</g>
</g>
<!-- Node12&#45;&gt;Node13 -->
<g id="edge12" class="edge">
<title>Node12&#45;&gt;Node13</title>
<path fill="none" stroke="midnightblue" d="M1035.25,-306.5C1043.53,-306.5 1052.13,-306.5 1060.75,-306.5"/>
<polygon fill="midnightblue" stroke="midnightblue" points="1060.85,-310 1070.85,-306.5 1060.85,-303 1060.85,-310"/>
</g>
<!-- Node14 -->
<g id="node14" class="node">
<title>Node14</title>
<g id="a_node14"><a xlink:href="classsignal__easel_1_1ax25_1_1Address.html#a8b44c6e311d3462bd86eda03c1d384f0" target="_top" xlink:title=" ">
<polygon fill="none" stroke="black" points="1078.5,-233.5 1078.5,-263.5 1228.5,-263.5 1228.5,-233.5 1078.5,-233.5"/>
<text text-anchor="start" x="1086.5" y="-251.5" font-family="Helvetica,sans-Serif" font-size="10.00">signal_easel::ax25</text>
<text text-anchor="middle" x="1153.5" y="-240.5" font-family="Helvetica,sans-Serif" font-size="10.00">::Address::assertSsidIsValid</text>
</a>
</g>
</g>
<!-- Node12&#45;&gt;Node14 -->
<g id="edge13" class="edge">
<title>Node12&#45;&gt;Node14</title>
<path fill="none" stroke="midnightblue" d="M1018.21,-291.41C1041.95,-283.83 1070.9,-274.58 1095.83,-266.61"/>
<polygon fill="midnightblue" stroke="midnightblue" points="1097.06,-269.89 1105.52,-263.51 1094.93,-263.22 1097.06,-269.89"/>
</g>
<!-- Node15 -->
<g id="node15" class="node">
<title>Node15</title>
<g id="a_node15"><a xlink:href="classsignal__easel_1_1ax25_1_1Address.html#ad66c149737cc4aa52ae9e8860176acf3" target="_top" xlink:title=" ">
<polygon fill="none" stroke="black" points="1272,-208.5 1272,-238.5 1392,-238.5 1392,-208.5 1272,-208.5"/>
<text text-anchor="start" x="1280" y="-226.5" font-family="Helvetica,sans-Serif" font-size="10.00">signal_easel::ax25</text>
<text text-anchor="middle" x="1332" y="-215.5" font-family="Helvetica,sans-Serif" font-size="10.00">::Address::isSsidValid</text>
</a>
</g>
</g>
<!-- Node14&#45;&gt;Node15 -->
<g id="edge14" class="edge">
<title>Node14&#45;&gt;Node15</title>
<path fill="none" stroke="midnightblue" d="M1228.58,-238.01C1239.64,-236.44 1250.99,-234.83 1261.93,-233.28"/>
<polygon fill="midnightblue" stroke="midnightblue" points="1262.43,-236.75 1271.84,-231.88 1261.45,-229.82 1262.43,-236.75"/>
</g>
<!-- Node16&#45;&gt;Node12 -->
<g id="edge16" class="edge">
<title>Node16&#45;&gt;Node12</title>
<path fill="none" stroke="midnightblue" d="M857.19,-308.32C869.46,-308.12 882.23,-307.91 894.56,-307.71"/>
<polygon fill="midnightblue" stroke="midnightblue" points="894.85,-311.21 904.79,-307.55 894.73,-304.21 894.85,-311.21"/>
</g>
<!-- Node18 -->
<g id="node18" class="node">
<title>Node18</title>
<g id="a_node18"><a xlink:href="classsignal__easel_1_1BitStream.html#a9df75eb28c03717c9fad2d30a85de6e6" target="_top" xlink:title=" ">
<polygon fill="none" stroke="black" points="718,-245.5 718,-275.5 850,-275.5 850,-245.5 718,-245.5"/>
<text text-anchor="start" x="726" y="-263.5" font-family="Helvetica,sans-Serif" font-size="10.00">signal_easel::BitStream</text>
<text text-anchor="middle" x="784" y="-252.5" font-family="Helvetica,sans-Serif" font-size="10.00">::addBits</text>
</a>
</g>
</g>
<!-- Node17&#45;&gt;Node18 -->
<g id="edge18" class="edge">
<title>Node17&#45;&gt;Node18</title>
<path fill="none" stroke="midnightblue" d="M409.71,-226.54C428.33,-244.38 462.29,-273.13 498,-284.5 573.92,-308.68 666.64,-293.11 725.27,-278.13"/>
<polygon fill="midnightblue" stroke="midnightblue" points="726.32,-281.48 735.1,-275.55 724.53,-274.71 726.32,-281.48"/>
</g>
<!-- Node19 -->
<g id="node19" class="node">
<title>Node19</title>
<g id="a_node19"><a xlink:href="classsignal__easel_1_1BitStream.html#a81d4aea4c11f65e0c2b7ad2f0f0cc312" target="_top" xlink:title=" ">
<polygon fill="none" stroke="black" points="514.5,-245.5 514.5,-275.5 646.5,-275.5 646.5,-245.5 514.5,-245.5"/>
<text text-anchor="start" x="522.5" y="-263.5" font-family="Helvetica,sans-Serif" font-size="10.00">signal_easel::BitStream</text>
<text text-anchor="middle" x="580.5" y="-252.5" font-family="Helvetica,sans-Serif" font-size="10.00">::addOneBit</text>
</a>
</g>
</g>
<!-- Node17&#45;&gt;Node19 -->
<g id="edge19" class="edge">
<title>Node17&#45;&gt;Node19</title>
<path fill="none" stroke="midnightblue" d="M451.61,-226.53C471.09,-231.71 493.08,-237.55 513.26,-242.91"/>
<polygon fill="midnightblue" stroke="midnightblue" points="512.43,-246.31 523,-245.49 514.23,-239.54 512.43,-246.31"/>
</g>
<!-- Node20 -->
<g id="node20" class="node">
<title>Node20</title>
<g id="a_node20"><a xlink:href="classsignal__easel_1_1BitStream.html#abb315beec8c4d88115d9d4ec5f082863" target="_top" xlink:title=" ">
<polygon fill="none" stroke="black" points="514.5,-196.5 514.5,-226.5 646.5,-226.5 646.5,-196.5 514.5,-196.5"/>
<text text-anchor="start" x="522.5" y="-214.5" font-family="Helvetica,sans-Serif" font-size="10.00">signal_easel::BitStream</text>
<text text-anchor="middle" x="580.5" y="-203.5" font-family="Helvetica,sans-Serif" font-size="10.00">::addZeroBit</text>
</a>
</g>
</g>
<!-- Node17&#45;&gt;Node20 -->
<g id="edge21" class="edge">
<title>Node17&#45;&gt;Node20</title>
<path fill="none" stroke="midnightblue" d="M456.69,-211.5C471.9,-211.5 488.36,-211.5 504.14,-211.5"/>
<polygon fill="midnightblue" stroke="midnightblue" points="504.39,-215 514.39,-211.5 504.39,-208 504.39,-215"/>
</g>
<!-- Node21 -->
<g id="node21" class="node">
<title>Node21</title>
<g id="a_node21"><a xlink:href="classsignal__easel_1_1ax25_1_1Frame.html#a24e7d5ffc6504a3380e97142d1bc084e" target="_top" xlink:title="Builds all internal portions of the frame. Doesn&#39;t include the flags.">
<polygon fill="none" stroke="black" points="523.5,-147.5 523.5,-177.5 637.5,-177.5 637.5,-147.5 523.5,-147.5"/>
<text text-anchor="start" x="531.5" y="-165.5" font-family="Helvetica,sans-Serif" font-size="10.00">signal_easel::ax25</text>
<text text-anchor="middle" x="580.5" y="-154.5" font-family="Helvetica,sans-Serif" font-size="10.00">::Frame::buildFrame</text>
</a>
</g>
</g>
<!-- Node17&#45;&gt;Node21 -->
<g id="edge23" class="edge">
<title>Node17&#45;&gt;Node21</title>
<path fill="none" stroke="midnightblue" d="M451.61,-196.47C471.18,-191.27 493.28,-185.4 513.54,-180.02"/>
<polygon fill="midnightblue" stroke="midnightblue" points="514.55,-183.37 523.31,-177.42 512.75,-176.61 514.55,-183.37"/>
</g>
<!-- Node28 -->
<g id="node28" class="node">
<title>Node28</title>
<g id="a_node28"><a xlink:href="classsignal__easel_1_1BitStream.html#aa97152ef51f73088e103a7951134aa85" target="_top" xlink:title=" ">
<polygon fill="none" stroke="black" points="514.5,-98.5 514.5,-128.5 646.5,-128.5 646.5,-98.5 514.5,-98.5"/>
<text text-anchor="start" x="522.5" y="-116.5" font-family="Helvetica,sans-Serif" font-size="10.00">signal_easel::BitStream</text>
<text text-anchor="middle" x="580.5" y="-105.5" font-family="Helvetica,sans-Serif" font-size="10.00">::getBitStreamLength</text>
</a>
</g>
</g>
<!-- Node17&#45;&gt;Node28 -->
<g id="edge32" class="edge">
<title>Node17&#45;&gt;Node28</title>
<path fill="none" stroke="midnightblue" d="M445.36,-196.43C451.25,-193.61 456.95,-190.32 462,-186.5 483.56,-170.21 475.88,-153.02 498,-137.5 500.38,-135.83 502.87,-134.28 505.45,-132.83"/>
<polygon fill="midnightblue" stroke="midnightblue" points="507.11,-135.91 514.49,-128.32 503.98,-129.65 507.11,-135.91"/>
</g>
<!-- Node29 -->
<g id="node29" class="node">
<title>Node29</title>
<g id="a_node29"><a xlink:href="classsignal__easel_1_1BitStream.html#a5b5339586e09ca5c25a7e9ded0118ffb" target="_top" xlink:title="Returns the next bit of the bit stream that will be encoded.">
<polygon fill="none" stroke="black" points="514.5,-49.5 514.5,-79.5 646.5,-79.5 646.5,-49.5 514.5,-49.5"/>
<text text-anchor="start" x="522.5" y="-67.5" font-family="Helvetica,sans-Serif" font-size="10.00">signal_easel::BitStream</text>
<text text-anchor="middle" x="580.5" y="-56.5" font-family="Helvetica,sans-Serif" font-size="10.00">::popNextBit</text>
</a>
</g>
</g>
<!-- Node17&#45;&gt;Node29 -->
<g id="edge33" class="edge">
<title>Node17&#45;&gt;Node29</title>
<path fill="none" stroke="midnightblue" d="M448.82,-196.43C453.64,-193.65 458.15,-190.37 462,-186.5 494.73,-153.61 464.13,-120.22 498,-88.5 500.29,-86.35 502.77,-84.39 505.39,-82.61"/>
<polygon fill="midnightblue" stroke="midnightblue" points="507.28,-85.56 514.14,-77.49 503.74,-79.52 507.28,-85.56"/>
</g>
<!-- Node30 -->
<g id="node30" class="node">
<title>Node30</title>
<g id="a_node30"><a xlink:href="namespacesignal__easel_1_1ax25.html#a56c64a06f2dc7d2d270c32e1063400ae" target="_top" xlink:title="Reverse a byte.">
<polygon fill="none" stroke="black" points="527,-0.5 527,-30.5 634,-30.5 634,-0.5 527,-0.5"/>
<text text-anchor="start" x="535" y="-18.5" font-family="Helvetica,sans-Serif" font-size="10.00">signal_easel::ax25</text>
<text text-anchor="middle" x="580.5" y="-7.5" font-family="Helvetica,sans-Serif" font-size="10.00">::reverseByte</text>
</a>
</g>
</g>
<!-- Node17&#45;&gt;Node30 -->
<g id="edge34" class="edge">
<title>Node17&#45;&gt;Node30</title>
<path fill="none" stroke="midnightblue" d="M449.92,-196.47C454.4,-193.69 458.53,-190.4 462,-186.5 506.7,-136.24 451.55,-88.15 498,-39.5 503.44,-33.8 510.17,-29.43 517.39,-26.09"/>
<polygon fill="midnightblue" stroke="midnightblue" points="518.75,-29.32 526.77,-22.39 516.18,-22.81 518.75,-29.32"/>
</g>
<!-- Node19&#45;&gt;Node18 -->
<g id="edge20" class="edge">
<title>Node19&#45;&gt;Node18</title>
<path fill="none" stroke="midnightblue" d="M646.64,-260.5C666.12,-260.5 687.63,-260.5 707.7,-260.5"/>
<polygon fill="midnightblue" stroke="midnightblue" points="707.74,-264 717.74,-260.5 707.74,-257 707.74,-264"/>
</g>
<!-- Node20&#45;&gt;Node18 -->
<g id="edge22" class="edge">
<title>Node20&#45;&gt;Node18</title>
<path fill="none" stroke="midnightblue" d="M643.33,-226.53C664.89,-231.78 689.27,-237.71 711.55,-243.13"/>
<polygon fill="midnightblue" stroke="midnightblue" points="710.75,-246.53 721.29,-245.49 712.4,-239.73 710.75,-246.53"/>
</g>
<!-- Node22 -->
<g id="node22" class="node">
<title>Node22</title>
<g id="a_node22"><a xlink:href="namespacesignal__easel_1_1ax25.html#a6d799107f96d783e620cd508488ab8eb" target="_top" xlink:title="Calculate the Frame Check Sequence (FCS) on a vector of bytes.">
<polygon fill="none" stroke="black" points="730.5,-196.5 730.5,-226.5 837.5,-226.5 837.5,-196.5 730.5,-196.5"/>
<text text-anchor="start" x="738.5" y="-214.5" font-family="Helvetica,sans-Serif" font-size="10.00">signal_easel::ax25</text>
<text text-anchor="middle" x="784" y="-203.5" font-family="Helvetica,sans-Serif" font-size="10.00">::calculateFcs</text>
</a>
</g>
</g>
<!-- Node21&#45;&gt;Node22 -->
<g id="edge24" class="edge">
<title>Node21&#45;&gt;Node22</title>
<path fill="none" stroke="midnightblue" d="M637.63,-176.15C663.34,-182.4 693.91,-189.84 720.37,-196.27"/>
<polygon fill="midnightblue" stroke="midnightblue" points="719.74,-199.72 730.29,-198.68 721.4,-192.92 719.74,-199.72"/>
</g>
<!-- Node23 -->
<g id="node23" class="node">
<title>Node23</title>
<g id="a_node23"><a xlink:href="classsignal__easel_1_1ax25_1_1Address.html#a0c31737081a9184b56dc32150b23cb0a" target="_top" xlink:title="Get the address as a byte array.">
<polygon fill="none" stroke="black" points="713,-147.5 713,-177.5 855,-177.5 855,-147.5 713,-147.5"/>
<text text-anchor="start" x="721" y="-165.5" font-family="Helvetica,sans-Serif" font-size="10.00">signal_easel::ax25</text>
<text text-anchor="middle" x="784" y="-154.5" font-family="Helvetica,sans-Serif" font-size="10.00">::Address::encodeAddress</text>
</a>
</g>
</g>
<!-- Node21&#45;&gt;Node23 -->
<g id="edge25" class="edge">
<title>Node21&#45;&gt;Node23</title>
<path fill="none" stroke="midnightblue" d="M637.63,-162.5C657.73,-162.5 680.81,-162.5 702.57,-162.5"/>
<polygon fill="midnightblue" stroke="midnightblue" points="702.79,-166 712.79,-162.5 702.79,-159 702.79,-166"/>
</g>
<!-- Node24 -->
<g id="node24" class="node">
<title>Node24</title>
<g id="a_node24"><a xlink:href="classsignal__easel_1_1ax25_1_1Frame.html#a640edeabbda34e78cc243e3561747bf9" target="_top" xlink:title=" ">
<polygon fill="none" stroke="black" points="723,-98.5 723,-128.5 845,-128.5 845,-98.5 723,-98.5"/>
<text text-anchor="start" x="731" y="-116.5" font-family="Helvetica,sans-Serif" font-size="10.00">signal_easel::ax25</text>
<text text-anchor="middle" x="784" y="-105.5" font-family="Helvetica,sans-Serif" font-size="10.00">::Frame::isFrameValid</text>
</a>
</g>
</g>
<!-- Node21&#45;&gt;Node24 -->
<g id="edge27" class="edge">
<title>Node21&#45;&gt;Node24</title>
<path fill="none" stroke="midnightblue" d="M637.63,-148.85C660.96,-143.18 688.3,-136.53 712.93,-130.54"/>
<polygon fill="midnightblue" stroke="midnightblue" points="714.05,-133.87 722.94,-128.1 712.4,-127.07 714.05,-133.87"/>
</g>
<!-- Node27 -->
<g id="node27" class="node">
<title>Node27</title>
<g id="a_node27"><a xlink:href="classsignal__easel_1_1ax25_1_1Address.html#a1a5bc573535cfc1f8723c121e3451e7c" target="_top" xlink:title="Set the as the last address in the AX.25 frame (Sets a bit in the ssid byte)">
<polygon fill="none" stroke="black" points="709,-49.5 709,-79.5 859,-79.5 859,-49.5 709,-49.5"/>
<text text-anchor="start" x="717" y="-67.5" font-family="Helvetica,sans-Serif" font-size="10.00">signal_easel::ax25</text>
<text text-anchor="middle" x="784" y="-56.5" font-family="Helvetica,sans-Serif" font-size="10.00">::Address::setIsLastAddress</text>
</a>
</g>
</g>
<!-- Node21&#45;&gt;Node27 -->
<g id="edge31" class="edge">
<title>Node21&#45;&gt;Node27</title>
<path fill="none" stroke="midnightblue" d="M637.66,-150.5C646.6,-147.15 655.4,-142.9 663,-137.5 685.03,-121.86 676.82,-103.93 699,-88.5 701.26,-86.93 703.62,-85.46 706.05,-84.09"/>
<polygon fill="midnightblue" stroke="midnightblue" points="707.78,-87.14 715.15,-79.53 704.64,-80.88 707.78,-87.14"/>
</g>
<!-- Node23&#45;&gt;Node12 -->
<g id="edge26" class="edge">
<title>Node23&#45;&gt;Node12</title>
<path fill="none" stroke="midnightblue" d="M852.2,-177.67C858.09,-180.18 863.79,-183.11 869,-186.5 907.22,-211.39 938.38,-255.36 955.26,-282.61"/>
<polygon fill="midnightblue" stroke="midnightblue" points="952.46,-284.74 960.62,-291.49 958.45,-281.12 952.46,-284.74"/>
</g>
<!-- Node25 -->
<g id="node25" class="node">
<title>Node25</title>
<g id="a_node25"><a xlink:href="classsignal__easel_1_1ax25_1_1Address.html#aae81920cfd0dc7d89cb107f9d825488c" target="_top" xlink:title="If the address is valid (can be encoded correctly or was decoded)">
<polygon fill="none" stroke="black" points="916.5,-122.5 916.5,-152.5 1023.5,-152.5 1023.5,-122.5 916.5,-122.5"/>
<text text-anchor="start" x="924.5" y="-140.5" font-family="Helvetica,sans-Serif" font-size="10.00">signal_easel::ax25</text>
<text text-anchor="middle" x="970" y="-129.5" font-family="Helvetica,sans-Serif" font-size="10.00">::Address::isValid</text>
</a>
</g>
</g>
<!-- Node24&#45;&gt;Node25 -->
<g id="edge28" class="edge">
<title>Node24&#45;&gt;Node25</title>
<path fill="none" stroke="midnightblue" d="M845.25,-121.36C864.79,-123.91 886.52,-126.74 906.24,-129.31"/>
<polygon fill="midnightblue" stroke="midnightblue" points="905.99,-132.81 916.35,-130.63 906.89,-125.87 905.99,-132.81"/>
</g>
<!-- Node25&#45;&gt;Node15 -->
<g id="edge30" class="edge">
<title>Node25&#45;&gt;Node15</title>
<path fill="none" stroke="midnightblue" d="M1018.34,-152.54C1034.92,-157.59 1053.71,-163.05 1071,-167.5 1135.28,-184.04 1209.34,-199.66 1261.93,-210.18"/>
<polygon fill="midnightblue" stroke="midnightblue" points="1261.34,-213.63 1271.83,-212.15 1262.7,-206.76 1261.34,-213.63"/>
</g>
<!-- Node26 -->
<g id="node26" class="node">
<title>Node26</title>
<g id="a_node26"><a xlink:href="classsignal__easel_1_1ax25_1_1Address.html#a56c55b48bfc809a33aa0e22a5aeb95ca" target="_top" xlink:title=" ">
<polygon fill="none" stroke="black" points="1082,-117 1082,-158 1225,-158 1225,-117 1082,-117"/>
<text text-anchor="start" x="1090" y="-146" font-family="Helvetica,sans-Serif" font-size="10.00">signal_easel::ax25</text>
<text text-anchor="start" x="1090" y="-135" font-family="Helvetica,sans-Serif" font-size="10.00">::Address::isAddressString</text>
<text text-anchor="middle" x="1153.5" y="-124" font-family="Helvetica,sans-Serif" font-size="10.00">Valid</text>
</a>
</g>
</g>
<!-- Node25&#45;&gt;Node26 -->
<g id="edge29" class="edge">
<title>Node25&#45;&gt;Node26</title>
<path fill="none" stroke="midnightblue" d="M1023.99,-137.5C1038.98,-137.5 1055.64,-137.5 1071.87,-137.5"/>
<polygon fill="midnightblue" stroke="midnightblue" points="1071.89,-141 1081.89,-137.5 1071.89,-134 1071.89,-141"/>
</g>
</g>
</svg>
