<?xml version="1.0" encoding="UTF-8" standalone="no"?>
<!DOCTYPE svg PUBLIC "-//W3C//DTD SVG 1.1//EN"
 "http://www.w3.org/Graphics/SVG/1.1/DTD/svg11.dtd">
<!-- Generated by graphviz version 2.43.0 (0)
 -->
<!-- Title: signal_easel::aprs::Receiver::processDecodedFrame Pages: 1 -->
<svg width="1047pt" height="518pt"
 viewBox="0.00 0.00 1047.00 517.50" xmlns="http://www.w3.org/2000/svg" xmlns:xlink="http://www.w3.org/1999/xlink">
<g id="graph0" class="graph" transform="scale(1 1) rotate(0) translate(4 513.5)">
<title>signal_easel::aprs::Receiver::processDecodedFrame</title>
<!-- Node1 -->
<g id="node1" class="node">
<title>Node1</title>
<g id="a_node1"><a xlink:title="Categorises and stores a frame that has already been parsed by aprs_demodulator_ (i....">
<polygon fill="#bfbfbf" stroke="black" points="0,-358.5 0,-399.5 152,-399.5 152,-358.5 0,-358.5"/>
<text text-anchor="start" x="8" y="-387.5" font-family="Helvetica,sans-Serif" font-size="10.00">signal_easel::aprs</text>
<text text-anchor="start" x="8" y="-376.5" font-family="Helvetica,sans-Serif" font-size="10.00">::Receiver::processDecoded</text>
<text text-anchor="middle" x="76" y="-365.5" font-family="Helvetica,sans-Serif" font-size="10.00">Frame</text>
</a>
</g>
</g>
<!-- Node2 -->
<g id="node2" class="node">
<title>Node2</title>
<g id="a_node2"><a xlink:href="classsignal__easel_1_1aprs_1_1Demodulator.html#a0149ecf3027f6dcaff8b3d40f7a2d488" target="_top" xlink:title=" ">
<polygon fill="none" stroke="black" points="215,-479 215,-509 346,-509 346,-479 215,-479"/>
<text text-anchor="start" x="223" y="-497" font-family="Helvetica,sans-Serif" font-size="10.00">signal_easel::aprs</text>
<text text-anchor="middle" x="280.5" y="-486" font-family="Helvetica,sans-Serif" font-size="10.00">::Demodulator::getType</text>
</a>
</g>
</g>
<!-- Node1&#45;&gt;Node2 -->
<g id="edge1" class="edge">
<title>Node1&#45;&gt;Node2</title>
<path fill="none" stroke="midnightblue" d="M97.22,-399.83C118.15,-420.25 152.68,-450.88 188,-469 193.48,-471.81 199.31,-474.34 205.28,-476.6"/>
<polygon fill="midnightblue" stroke="midnightblue" points="204.13,-479.9 214.73,-479.93 206.46,-473.3 204.13,-479.9"/>
</g>
<!-- Node3 -->
<g id="node3" class="node">
<title>Node3</title>
<g id="a_node3"><a xlink:href="classsignal__easel_1_1aprs_1_1Demodulator.html#a75e60a65289d36d717431705ed142be7" target="_top" xlink:title=" ">
<polygon fill="none" stroke="black" points="188,-358.5 188,-399.5 373,-399.5 373,-358.5 188,-358.5"/>
<text text-anchor="start" x="196" y="-387.5" font-family="Helvetica,sans-Serif" font-size="10.00">signal_easel::aprs</text>
<text text-anchor="start" x="196" y="-376.5" font-family="Helvetica,sans-Serif" font-size="10.00">::Demodulator::parseExperimental</text>
<text text-anchor="middle" x="280.5" y="-365.5" font-family="Helvetica,sans-Serif" font-size="10.00">Packet</text>
</a>
</g>
</g>
<!-- Node1&#45;&gt;Node3 -->
<g id="edge2" class="edge">
<title>Node1&#45;&gt;Node3</title>
<path fill="none" stroke="midnightblue" d="M152.12,-379C160.45,-379 169.03,-379 177.63,-379"/>
<polygon fill="midnightblue" stroke="midnightblue" points="177.7,-382.5 187.7,-379 177.7,-375.5 177.7,-382.5"/>
</g>
<!-- Node8 -->
<g id="node8" class="node">
<title>Node8</title>
<g id="a_node8"><a xlink:href="classsignal__easel_1_1aprs_1_1Demodulator.html#a8ea92084a8f961d7a11200652516177d" target="_top" xlink:title="If the packet was a message packet, this function will try to parse the packet into a message packet.">
<polygon fill="none" stroke="black" points="199,-418.5 199,-459.5 362,-459.5 362,-418.5 199,-418.5"/>
<text text-anchor="start" x="207" y="-447.5" font-family="Helvetica,sans-Serif" font-size="10.00">signal_easel::aprs</text>
<text text-anchor="start" x="207" y="-436.5" font-family="Helvetica,sans-Serif" font-size="10.00">::Demodulator::parseMessage</text>
<text text-anchor="middle" x="280.5" y="-425.5" font-family="Helvetica,sans-Serif" font-size="10.00">Packet</text>
</a>
</g>
</g>
<!-- Node1&#45;&gt;Node8 -->
<g id="edge7" class="edge">
<title>Node1&#45;&gt;Node8</title>
<path fill="none" stroke="midnightblue" d="M146.41,-399.56C163.79,-404.72 182.58,-410.28 200.4,-415.56"/>
<polygon fill="midnightblue" stroke="midnightblue" points="199.6,-418.98 210.18,-418.46 201.59,-412.27 199.6,-418.98"/>
</g>
<!-- Node9 -->
<g id="node9" class="node">
<title>Node9</title>
<g id="a_node9"><a xlink:href="classsignal__easel_1_1aprs_1_1Demodulator.html#a285cd33e16fa28925fe2acd3fe5029fb" target="_top" xlink:title="If the packet was a position packet, this function will try to parse the packet into it&#39;s positional ...">
<polygon fill="none" stroke="black" points="201.5,-298.5 201.5,-339.5 359.5,-339.5 359.5,-298.5 201.5,-298.5"/>
<text text-anchor="start" x="209.5" y="-327.5" font-family="Helvetica,sans-Serif" font-size="10.00">signal_easel::aprs</text>
<text text-anchor="start" x="209.5" y="-316.5" font-family="Helvetica,sans-Serif" font-size="10.00">::Demodulator::parsePosition</text>
<text text-anchor="middle" x="280.5" y="-305.5" font-family="Helvetica,sans-Serif" font-size="10.00">Packet</text>
</a>
</g>
</g>
<!-- Node1&#45;&gt;Node9 -->
<g id="edge10" class="edge">
<title>Node1&#45;&gt;Node9</title>
<path fill="none" stroke="midnightblue" d="M146.41,-358.44C163.79,-353.28 182.58,-347.72 200.4,-342.44"/>
<polygon fill="midnightblue" stroke="midnightblue" points="201.59,-345.73 210.18,-339.54 199.6,-339.02 201.59,-345.73"/>
</g>
<!-- Node11 -->
<g id="node11" class="node">
<title>Node11</title>
<g id="a_node11"><a xlink:href="classsignal__easel_1_1aprs_1_1Demodulator.html#a97af61f7afb63db275020ba523abcc3a" target="_top" xlink:title="If the packet was a telemetry packet, this function will try to parse the packet and populate the tel...">
<polygon fill="none" stroke="black" points="196.5,-238.5 196.5,-279.5 364.5,-279.5 364.5,-238.5 196.5,-238.5"/>
<text text-anchor="start" x="204.5" y="-267.5" font-family="Helvetica,sans-Serif" font-size="10.00">signal_easel::aprs</text>
<text text-anchor="start" x="204.5" y="-256.5" font-family="Helvetica,sans-Serif" font-size="10.00">::Demodulator::parseTelemetry</text>
<text text-anchor="middle" x="280.5" y="-245.5" font-family="Helvetica,sans-Serif" font-size="10.00">Packet</text>
</a>
</g>
</g>
<!-- Node1&#45;&gt;Node11 -->
<g id="edge14" class="edge">
<title>Node1&#45;&gt;Node11</title>
<path fill="none" stroke="midnightblue" d="M97.81,-358.16C118.93,-338.03 153.36,-307.88 188,-289 191.45,-287.12 195.04,-285.33 198.71,-283.63"/>
<polygon fill="midnightblue" stroke="midnightblue" points="200.21,-286.8 207.99,-279.6 197.42,-280.38 200.21,-286.8"/>
</g>
<!-- Node4 -->
<g id="node4" class="node">
<title>Node4</title>
<g id="a_node4"><a xlink:href="classsignal__easel_1_1ax25_1_1Frame.html#ad902c58dd3b47ed11d64057409b36603" target="_top" xlink:title=" ">
<polygon fill="none" stroke="black" points="431.5,-416 431.5,-446 563.5,-446 563.5,-416 431.5,-416"/>
<text text-anchor="start" x="439.5" y="-434" font-family="Helvetica,sans-Serif" font-size="10.00">signal_easel::ax25</text>
<text text-anchor="middle" x="497.5" y="-423" font-family="Helvetica,sans-Serif" font-size="10.00">::Frame::getInformation</text>
</a>
</g>
</g>
<!-- Node3&#45;&gt;Node4 -->
<g id="edge3" class="edge">
<title>Node3&#45;&gt;Node4</title>
<path fill="none" stroke="midnightblue" d="M366.47,-399.55C385.68,-404.2 405.88,-409.08 424.49,-413.58"/>
<polygon fill="midnightblue" stroke="midnightblue" points="423.81,-417.02 434.35,-415.97 425.46,-410.22 423.81,-417.02"/>
</g>
<!-- Node5 -->
<g id="node5" class="node">
<title>Node5</title>
<g id="a_node5"><a xlink:href="classsignal__easel_1_1aprs_1_1Demodulator.html#af7459f32656249c73e0b957dfe13bf2f" target="_top" xlink:title=" ">
<polygon fill="none" stroke="black" points="411,-355.5 411,-396.5 584,-396.5 584,-355.5 411,-355.5"/>
<text text-anchor="start" x="419" y="-384.5" font-family="Helvetica,sans-Serif" font-size="10.00">signal_easel::aprs</text>
<text text-anchor="start" x="419" y="-373.5" font-family="Helvetica,sans-Serif" font-size="10.00">::Demodulator::populateGeneric</text>
<text text-anchor="middle" x="497.5" y="-362.5" font-family="Helvetica,sans-Serif" font-size="10.00">Fields</text>
</a>
</g>
</g>
<!-- Node3&#45;&gt;Node5 -->
<g id="edge4" class="edge">
<title>Node3&#45;&gt;Node5</title>
<path fill="none" stroke="midnightblue" d="M373.3,-377.72C382.34,-377.59 391.53,-377.46 400.61,-377.34"/>
<polygon fill="midnightblue" stroke="midnightblue" points="400.85,-380.84 410.8,-377.2 400.75,-373.84 400.85,-380.84"/>
</g>
<!-- Node6 -->
<g id="node6" class="node">
<title>Node6</title>
<g id="a_node6"><a xlink:href="classsignal__easel_1_1ax25_1_1Frame.html#a84c80d41e67e5091d2a77553f3941d5f" target="_top" xlink:title=" ">
<polygon fill="none" stroke="black" points="639,-361 639,-391 809,-391 809,-361 639,-361"/>
<text text-anchor="start" x="647" y="-379" font-family="Helvetica,sans-Serif" font-size="10.00">signal_easel::ax25</text>
<text text-anchor="middle" x="724" y="-368" font-family="Helvetica,sans-Serif" font-size="10.00">::Frame::getDestinationAddress</text>
</a>
</g>
</g>
<!-- Node5&#45;&gt;Node6 -->
<g id="edge5" class="edge">
<title>Node5&#45;&gt;Node6</title>
<path fill="none" stroke="midnightblue" d="M584.01,-376C598.61,-376 613.85,-376 628.66,-376"/>
<polygon fill="midnightblue" stroke="midnightblue" points="628.84,-379.5 638.84,-376 628.84,-372.5 628.84,-379.5"/>
</g>
<!-- Node7 -->
<g id="node7" class="node">
<title>Node7</title>
<g id="a_node7"><a xlink:href="classsignal__easel_1_1ax25_1_1Frame.html#af84ab589067667886d9e54abe213109c" target="_top" xlink:title=" ">
<polygon fill="none" stroke="black" points="650.5,-410 650.5,-440 797.5,-440 797.5,-410 650.5,-410"/>
<text text-anchor="start" x="658.5" y="-428" font-family="Helvetica,sans-Serif" font-size="10.00">signal_easel::ax25</text>
<text text-anchor="middle" x="724" y="-417" font-family="Helvetica,sans-Serif" font-size="10.00">::Frame::getSourceAddress</text>
</a>
</g>
</g>
<!-- Node5&#45;&gt;Node7 -->
<g id="edge6" class="edge">
<title>Node5&#45;&gt;Node7</title>
<path fill="none" stroke="midnightblue" d="M584.01,-394.66C603.75,-398.97 624.65,-403.53 644.09,-407.78"/>
<polygon fill="midnightblue" stroke="midnightblue" points="643.59,-411.25 654.1,-409.96 645.08,-404.41 643.59,-411.25"/>
</g>
<!-- Node8&#45;&gt;Node4 -->
<g id="edge8" class="edge">
<title>Node8&#45;&gt;Node4</title>
<path fill="none" stroke="midnightblue" d="M362.17,-436C381.56,-435.28 402.2,-434.51 421.33,-433.8"/>
<polygon fill="midnightblue" stroke="midnightblue" points="421.62,-437.29 431.48,-433.42 421.36,-430.29 421.62,-437.29"/>
</g>
<!-- Node8&#45;&gt;Node5 -->
<g id="edge9" class="edge">
<title>Node8&#45;&gt;Node5</title>
<path fill="none" stroke="midnightblue" d="M351.6,-418.46C372.43,-412.36 395.4,-405.63 416.79,-399.36"/>
<polygon fill="midnightblue" stroke="midnightblue" points="417.88,-402.68 426.49,-396.51 415.91,-395.97 417.88,-402.68"/>
</g>
<!-- Node9&#45;&gt;Node4 -->
<g id="edge12" class="edge">
<title>Node9&#45;&gt;Node4</title>
<path fill="none" stroke="midnightblue" d="M358.47,-339.67C363.61,-342.41 368.52,-345.51 373,-349 396.63,-367.42 385.02,-388.04 409,-406 413.08,-409.06 417.53,-411.74 422.18,-414.1"/>
<polygon fill="midnightblue" stroke="midnightblue" points="420.79,-417.31 431.34,-418.24 423.67,-410.93 420.79,-417.31"/>
</g>
<!-- Node9&#45;&gt;Node5 -->
<g id="edge13" class="edge">
<title>Node9&#45;&gt;Node5</title>
<path fill="none" stroke="midnightblue" d="M359.12,-339.58C375.41,-343.9 392.69,-348.48 409.3,-352.88"/>
<polygon fill="midnightblue" stroke="midnightblue" points="408.43,-356.27 418.99,-355.45 410.22,-349.51 408.43,-356.27"/>
</g>
<!-- Node10 -->
<g id="node10" class="node">
<title>Node10</title>
<g id="a_node10"><a xlink:href="namespacesignal__easel_1_1aprs.html#a53b79c5e1cab35addb27026b3e9e0e21" target="_top" xlink:title="Decodes a base91 encoded value to an integer.">
<polygon fill="none" stroke="black" points="445.5,-304 445.5,-334 549.5,-334 549.5,-304 445.5,-304"/>
<text text-anchor="start" x="453.5" y="-322" font-family="Helvetica,sans-Serif" font-size="10.00">signal_easel::aprs</text>
<text text-anchor="middle" x="497.5" y="-311" font-family="Helvetica,sans-Serif" font-size="10.00">::base91Decode</text>
</a>
</g>
</g>
<!-- Node9&#45;&gt;Node10 -->
<g id="edge11" class="edge">
<title>Node9&#45;&gt;Node10</title>
<path fill="none" stroke="midnightblue" d="M359.73,-319C384.62,-319 411.78,-319 435.29,-319"/>
<polygon fill="midnightblue" stroke="midnightblue" points="435.46,-322.5 445.46,-319 435.46,-315.5 435.46,-322.5"/>
</g>
<!-- Node11&#45;&gt;Node5 -->
<g id="edge35" class="edge">
<title>Node11&#45;&gt;Node5</title>
<path fill="none" stroke="midnightblue" d="M357.95,-279.51C363.27,-282.29 368.36,-285.44 373,-289 396.19,-306.77 386.12,-325.84 409,-344 411.89,-346.3 414.97,-348.44 418.17,-350.44"/>
<polygon fill="midnightblue" stroke="midnightblue" points="416.47,-353.49 426.89,-355.39 419.92,-347.41 416.47,-353.49"/>
</g>
<!-- Node12 -->
<g id="node12" class="node">
<title>Node12</title>
<g id="a_node12"><a xlink:href="classsignal__easel_1_1aprs_1_1telemetry_1_1TelemetryTranscoder.html#a8728ebd6e5dbd7ca50a219fda62b7375" target="_top" xlink:title="Takes in the information field of an APRS telemetry message and decodes it with the appropriate metho...">
<polygon fill="none" stroke="black" points="409,-182.5 409,-223.5 586,-223.5 586,-182.5 409,-182.5"/>
<text text-anchor="start" x="417" y="-211.5" font-family="Helvetica,sans-Serif" font-size="10.00">signal_easel::aprs</text>
<text text-anchor="start" x="417" y="-200.5" font-family="Helvetica,sans-Serif" font-size="10.00">::telemetry::TelemetryTranscoder</text>
<text text-anchor="middle" x="497.5" y="-189.5" font-family="Helvetica,sans-Serif" font-size="10.00">::decodeMessage</text>
</a>
</g>
</g>
<!-- Node11&#45;&gt;Node12 -->
<g id="edge15" class="edge">
<title>Node11&#45;&gt;Node12</title>
<path fill="none" stroke="midnightblue" d="M360.34,-238.47C375.82,-234.43 392.16,-230.18 407.93,-226.07"/>
<polygon fill="midnightblue" stroke="midnightblue" points="408.88,-229.44 417.67,-223.53 407.11,-222.67 408.88,-229.44"/>
</g>
<!-- Node25 -->
<g id="node25" class="node">
<title>Node25</title>
<g id="a_node25"><a xlink:href="classsignal__easel_1_1ax25_1_1Frame.html#ad48d93e63f0870a7bc7f7c10fde78ba8" target="_top" xlink:title="Get a reference to the information field.">
<polygon fill="none" stroke="black" points="423,-244 423,-274 572,-274 572,-244 423,-244"/>
<text text-anchor="start" x="431" y="-262" font-family="Helvetica,sans-Serif" font-size="10.00">signal_easel::ax25</text>
<text text-anchor="middle" x="497.5" y="-251" font-family="Helvetica,sans-Serif" font-size="10.00">::Frame::getInformationRef</text>
</a>
</g>
</g>
<!-- Node11&#45;&gt;Node25 -->
<g id="edge34" class="edge">
<title>Node11&#45;&gt;Node25</title>
<path fill="none" stroke="midnightblue" d="M364.62,-259C380.33,-259 396.76,-259 412.49,-259"/>
<polygon fill="midnightblue" stroke="midnightblue" points="412.71,-262.5 422.71,-259 412.71,-255.5 412.71,-262.5"/>
</g>
<!-- Node13 -->
<g id="node13" class="node">
<title>Node13</title>
<g id="a_node13"><a xlink:href="classsignal__easel_1_1aprs_1_1telemetry_1_1TelemetryTranscoder.html#a3633b357cad1d35d2f59846a8ad66672" target="_top" xlink:title="Decode the bit sense / project name message.">
<polygon fill="none" stroke="black" points="635.5,-60.5 635.5,-101.5 812.5,-101.5 812.5,-60.5 635.5,-60.5"/>
<text text-anchor="start" x="643.5" y="-89.5" font-family="Helvetica,sans-Serif" font-size="10.00">signal_easel::aprs</text>
<text text-anchor="start" x="643.5" y="-78.5" font-family="Helvetica,sans-Serif" font-size="10.00">::telemetry::TelemetryTranscoder</text>
<text text-anchor="middle" x="724" y="-67.5" font-family="Helvetica,sans-Serif" font-size="10.00">::decodeBitSenseMessage</text>
</a>
</g>
</g>
<!-- Node12&#45;&gt;Node13 -->
<g id="edge16" class="edge">
<title>Node12&#45;&gt;Node13</title>
<path fill="none" stroke="midnightblue" d="M521,-182.36C544.59,-161.7 583.52,-130.28 622,-111 626.02,-108.99 630.2,-107.08 634.46,-105.29"/>
<polygon fill="midnightblue" stroke="midnightblue" points="635.93,-108.47 643.93,-101.53 633.34,-101.97 635.93,-108.47"/>
</g>
<!-- Node17 -->
<g id="node17" class="node">
<title>Node17</title>
<g id="a_node17"><a xlink:href="classsignal__easel_1_1aprs_1_1telemetry_1_1TelemetryTranscoder.html#afe0271b7bbae16a79c2bd4e77d4f3945" target="_top" xlink:title="Decode a data report message.">
<polygon fill="none" stroke="black" points="635.5,-240.5 635.5,-281.5 812.5,-281.5 812.5,-240.5 635.5,-240.5"/>
<text text-anchor="start" x="643.5" y="-269.5" font-family="Helvetica,sans-Serif" font-size="10.00">signal_easel::aprs</text>
<text text-anchor="start" x="643.5" y="-258.5" font-family="Helvetica,sans-Serif" font-size="10.00">::telemetry::TelemetryTranscoder</text>
<text text-anchor="middle" x="724" y="-247.5" font-family="Helvetica,sans-Serif" font-size="10.00">::decodeDataReportMessage</text>
</a>
</g>
</g>
<!-- Node12&#45;&gt;Node17 -->
<g id="edge20" class="edge">
<title>Node12&#45;&gt;Node17</title>
<path fill="none" stroke="midnightblue" d="M577.97,-223.53C596.04,-228.2 615.35,-233.19 633.79,-237.95"/>
<polygon fill="midnightblue" stroke="midnightblue" points="633.08,-241.38 643.64,-240.5 634.83,-234.61 633.08,-241.38"/>
</g>
<!-- Node21 -->
<g id="node21" class="node">
<title>Node21</title>
<g id="a_node21"><a xlink:href="classsignal__easel_1_1aprs_1_1telemetry_1_1TelemetryTranscoder.html#a581c58aa360dc40ddcbc475b96b25942" target="_top" xlink:title="Decode the parameter coefficients message.">
<polygon fill="none" stroke="black" points="622,-180.5 622,-221.5 826,-221.5 826,-180.5 622,-180.5"/>
<text text-anchor="start" x="630" y="-209.5" font-family="Helvetica,sans-Serif" font-size="10.00">signal_easel::aprs</text>
<text text-anchor="start" x="630" y="-198.5" font-family="Helvetica,sans-Serif" font-size="10.00">::telemetry::TelemetryTranscoder</text>
<text text-anchor="middle" x="724" y="-187.5" font-family="Helvetica,sans-Serif" font-size="10.00">::decodeParameterCoefficientMessage</text>
</a>
</g>
</g>
<!-- Node12&#45;&gt;Node21 -->
<g id="edge25" class="edge">
<title>Node12&#45;&gt;Node21</title>
<path fill="none" stroke="midnightblue" d="M586.26,-202.22C594.66,-202.14 603.25,-202.07 611.83,-201.99"/>
<polygon fill="midnightblue" stroke="midnightblue" points="611.92,-205.49 621.89,-201.9 611.86,-198.49 611.92,-205.49"/>
</g>
<!-- Node23 -->
<g id="node23" class="node">
<title>Node23</title>
<g id="a_node23"><a xlink:href="classsignal__easel_1_1aprs_1_1telemetry_1_1TelemetryTranscoder.html#a74a84913b8e86de5b415616ecbd853b8" target="_top" xlink:title="Decode a name or unit/label message. They&#39;re the same format.">
<polygon fill="none" stroke="black" points="635.5,-120.5 635.5,-161.5 812.5,-161.5 812.5,-120.5 635.5,-120.5"/>
<text text-anchor="start" x="643.5" y="-149.5" font-family="Helvetica,sans-Serif" font-size="10.00">signal_easel::aprs</text>
<text text-anchor="start" x="643.5" y="-138.5" font-family="Helvetica,sans-Serif" font-size="10.00">::telemetry::TelemetryTranscoder</text>
<text text-anchor="middle" x="724" y="-127.5" font-family="Helvetica,sans-Serif" font-size="10.00">::decodeParameterDescriptor</text>
</a>
</g>
</g>
<!-- Node12&#45;&gt;Node23 -->
<g id="edge29" class="edge">
<title>Node12&#45;&gt;Node23</title>
<path fill="none" stroke="midnightblue" d="M572.94,-182.44C594.08,-176.6 617.25,-170.2 638.92,-164.22"/>
<polygon fill="midnightblue" stroke="midnightblue" points="640.05,-167.54 648.76,-161.5 638.19,-160.79 640.05,-167.54"/>
</g>
<!-- Node24 -->
<g id="node24" class="node">
<title>Node24</title>
<g id="a_node24"><a xlink:href="classsignal__easel_1_1aprs_1_1telemetry_1_1TelemetryData.html#a8daed50d0a02a99c50e19e6985391823" target="_top" xlink:title="Set the address of the station that is sending the telemetry data for use in the parameter name,...">
<polygon fill="none" stroke="black" points="644,-300.5 644,-341.5 804,-341.5 804,-300.5 644,-300.5"/>
<text text-anchor="start" x="652" y="-329.5" font-family="Helvetica,sans-Serif" font-size="10.00">signal_easel::aprs</text>
<text text-anchor="start" x="652" y="-318.5" font-family="Helvetica,sans-Serif" font-size="10.00">::telemetry::TelemetryData</text>
<text text-anchor="middle" x="724" y="-307.5" font-family="Helvetica,sans-Serif" font-size="10.00">::setTelemetryStationAddress</text>
</a>
</g>
</g>
<!-- Node12&#45;&gt;Node24 -->
<g id="edge33" class="edge">
<title>Node12&#45;&gt;Node24</title>
<path fill="none" stroke="midnightblue" d="M568.15,-223.57C574.5,-226.86 580.57,-230.65 586,-235 609.1,-253.49 598.34,-273.23 622,-291 625.95,-293.97 630.19,-296.64 634.62,-299.05"/>
<polygon fill="midnightblue" stroke="midnightblue" points="633.42,-302.36 643.94,-303.64 636.51,-296.08 633.42,-302.36"/>
</g>
<!-- Node14 -->
<g id="node14" class="node">
<title>Node14</title>
<g id="a_node14"><a xlink:href="classsignal__easel_1_1aprs_1_1telemetry_1_1TelemetryTranscoder.html#a23b19f60f731079282eb88c5ab433579" target="_top" xlink:title="Validate the first few bytes of a message.">
<polygon fill="none" stroke="black" points="862,-60.5 862,-101.5 1039,-101.5 1039,-60.5 862,-60.5"/>
<text text-anchor="start" x="870" y="-89.5" font-family="Helvetica,sans-Serif" font-size="10.00">signal_easel::aprs</text>
<text text-anchor="start" x="870" y="-78.5" font-family="Helvetica,sans-Serif" font-size="10.00">::telemetry::TelemetryTranscoder</text>
<text text-anchor="middle" x="950.5" y="-67.5" font-family="Helvetica,sans-Serif" font-size="10.00">::decodeValidateHeader</text>
</a>
</g>
</g>
<!-- Node13&#45;&gt;Node14 -->
<g id="edge17" class="edge">
<title>Node13&#45;&gt;Node14</title>
<path fill="none" stroke="midnightblue" d="M812.76,-81C825.47,-81 838.63,-81 851.52,-81"/>
<polygon fill="midnightblue" stroke="midnightblue" points="851.8,-84.5 861.8,-81 851.8,-77.5 851.8,-84.5"/>
</g>
<!-- Node15 -->
<g id="node15" class="node">
<title>Node15</title>
<g id="a_node15"><a xlink:href="classsignal__easel_1_1aprs_1_1telemetry_1_1TelemetryData.html#afeb4d3aa91fc5deb8123589daccd87ea" target="_top" xlink:title=" ">
<polygon fill="none" stroke="black" points="876.5,-120.5 876.5,-161.5 1024.5,-161.5 1024.5,-120.5 876.5,-120.5"/>
<text text-anchor="start" x="884.5" y="-149.5" font-family="Helvetica,sans-Serif" font-size="10.00">signal_easel::aprs</text>
<text text-anchor="start" x="884.5" y="-138.5" font-family="Helvetica,sans-Serif" font-size="10.00">::telemetry::TelemetryData</text>
<text text-anchor="middle" x="950.5" y="-127.5" font-family="Helvetica,sans-Serif" font-size="10.00">::getDigitalParameters</text>
</a>
</g>
</g>
<!-- Node13&#45;&gt;Node15 -->
<g id="edge18" class="edge">
<title>Node13&#45;&gt;Node15</title>
<path fill="none" stroke="midnightblue" d="M801.95,-101.56C822.77,-107.13 845.39,-113.18 866.52,-118.82"/>
<polygon fill="midnightblue" stroke="midnightblue" points="865.88,-122.27 876.44,-121.47 867.68,-115.51 865.88,-122.27"/>
</g>
<!-- Node16 -->
<g id="node16" class="node">
<title>Node16</title>
<g id="a_node16"><a xlink:href="classsignal__easel_1_1aprs_1_1telemetry_1_1TelemetryData.html#a275ba1315153f5513e61ef640562530b" target="_top" xlink:title="Set the project title. Must be less than 23 characters. If the project title is too long,...">
<polygon fill="none" stroke="black" points="876.5,-0.5 876.5,-41.5 1024.5,-41.5 1024.5,-0.5 876.5,-0.5"/>
<text text-anchor="start" x="884.5" y="-29.5" font-family="Helvetica,sans-Serif" font-size="10.00">signal_easel::aprs</text>
<text text-anchor="start" x="884.5" y="-18.5" font-family="Helvetica,sans-Serif" font-size="10.00">::telemetry::TelemetryData</text>
<text text-anchor="middle" x="950.5" y="-7.5" font-family="Helvetica,sans-Serif" font-size="10.00">::setProjectTitle</text>
</a>
</g>
</g>
<!-- Node13&#45;&gt;Node16 -->
<g id="edge19" class="edge">
<title>Node13&#45;&gt;Node16</title>
<path fill="none" stroke="midnightblue" d="M801.95,-60.44C822.77,-54.87 845.39,-48.82 866.52,-43.18"/>
<polygon fill="midnightblue" stroke="midnightblue" points="867.68,-46.49 876.44,-40.53 865.88,-39.73 867.68,-46.49"/>
</g>
<!-- Node17&#45;&gt;Node15 -->
<g id="edge22" class="edge">
<title>Node17&#45;&gt;Node15</title>
<path fill="none" stroke="midnightblue" d="M811,-240.49C816.3,-237.72 821.36,-234.57 826,-231 850.35,-212.27 838.15,-191.36 862,-172 864.29,-170.14 866.69,-168.39 869.19,-166.75"/>
<polygon fill="midnightblue" stroke="midnightblue" points="871.18,-169.64 877.99,-161.52 867.61,-163.62 871.18,-169.64"/>
</g>
<!-- Node18 -->
<g id="node18" class="node">
<title>Node18</title>
<g id="a_node18"><a xlink:href="classsignal__easel_1_1aprs_1_1telemetry_1_1TelemetryData.html#a953b60ecf9067ab71e13de6fdfdcfeec" target="_top" xlink:title=" ">
<polygon fill="none" stroke="black" points="876.5,-230.5 876.5,-271.5 1024.5,-271.5 1024.5,-230.5 876.5,-230.5"/>
<text text-anchor="start" x="884.5" y="-259.5" font-family="Helvetica,sans-Serif" font-size="10.00">signal_easel::aprs</text>
<text text-anchor="start" x="884.5" y="-248.5" font-family="Helvetica,sans-Serif" font-size="10.00">::telemetry::TelemetryData</text>
<text text-anchor="middle" x="950.5" y="-237.5" font-family="Helvetica,sans-Serif" font-size="10.00">::getAnalogParameters</text>
</a>
</g>
</g>
<!-- Node17&#45;&gt;Node18 -->
<g id="edge21" class="edge">
<title>Node17&#45;&gt;Node18</title>
<path fill="none" stroke="midnightblue" d="M812.76,-257.09C830.34,-256.31 848.76,-255.49 866.19,-254.71"/>
<polygon fill="midnightblue" stroke="midnightblue" points="866.48,-258.2 876.32,-254.26 866.17,-251.21 866.48,-258.2"/>
</g>
<!-- Node19 -->
<g id="node19" class="node">
<title>Node19</title>
<g id="a_node19"><a xlink:href="classsignal__easel_1_1aprs_1_1telemetry_1_1TelemetryData.html#a76c46a2b54c40e87c984d957f0439b43" target="_top" xlink:title="Set the comment. Must be less than 220 characters. If the comment is too long, it will be truncated.">
<polygon fill="none" stroke="black" points="876.5,-350.5 876.5,-391.5 1024.5,-391.5 1024.5,-350.5 876.5,-350.5"/>
<text text-anchor="start" x="884.5" y="-379.5" font-family="Helvetica,sans-Serif" font-size="10.00">signal_easel::aprs</text>
<text text-anchor="start" x="884.5" y="-368.5" font-family="Helvetica,sans-Serif" font-size="10.00">::telemetry::TelemetryData</text>
<text text-anchor="middle" x="950.5" y="-357.5" font-family="Helvetica,sans-Serif" font-size="10.00">::setComment</text>
</a>
</g>
</g>
<!-- Node17&#45;&gt;Node19 -->
<g id="edge23" class="edge">
<title>Node17&#45;&gt;Node19</title>
<path fill="none" stroke="midnightblue" d="M809.94,-281.55C815.59,-284.32 821,-287.45 826,-291 848.32,-306.86 840.01,-324.68 862,-341 864.09,-342.55 866.26,-344.02 868.5,-345.42"/>
<polygon fill="midnightblue" stroke="midnightblue" points="867,-348.6 877.43,-350.47 870.45,-342.5 867,-348.6"/>
</g>
<!-- Node20 -->
<g id="node20" class="node">
<title>Node20</title>
<g id="a_node20"><a xlink:href="classsignal__easel_1_1aprs_1_1telemetry_1_1TelemetryData.html#a06202af15469a4f816c38c1a980c589d" target="_top" xlink:title="Set the sequence number. Must be less than 1000. If the sequence number is greater than 999,...">
<polygon fill="none" stroke="black" points="876.5,-290.5 876.5,-331.5 1024.5,-331.5 1024.5,-290.5 876.5,-290.5"/>
<text text-anchor="start" x="884.5" y="-319.5" font-family="Helvetica,sans-Serif" font-size="10.00">signal_easel::aprs</text>
<text text-anchor="start" x="884.5" y="-308.5" font-family="Helvetica,sans-Serif" font-size="10.00">::telemetry::TelemetryData</text>
<text text-anchor="middle" x="950.5" y="-297.5" font-family="Helvetica,sans-Serif" font-size="10.00">::setSequenceNumber</text>
</a>
</g>
</g>
<!-- Node17&#45;&gt;Node20 -->
<g id="edge24" class="edge">
<title>Node17&#45;&gt;Node20</title>
<path fill="none" stroke="midnightblue" d="M812.76,-280.55C830.34,-284.46 848.76,-288.56 866.19,-292.44"/>
<polygon fill="midnightblue" stroke="midnightblue" points="865.79,-295.94 876.32,-294.7 867.32,-289.11 865.79,-295.94"/>
</g>
<!-- Node21&#45;&gt;Node14 -->
<g id="edge26" class="edge">
<title>Node21&#45;&gt;Node14</title>
<path fill="none" stroke="midnightblue" d="M811.53,-180.27C816.64,-177.55 821.52,-174.47 826,-171 850.58,-151.94 837.83,-130.56 862,-111 863.78,-109.56 865.62,-108.19 867.53,-106.89"/>
<polygon fill="midnightblue" stroke="midnightblue" points="869.53,-109.77 876.23,-101.57 865.87,-103.8 869.53,-109.77"/>
</g>
<!-- Node21&#45;&gt;Node18 -->
<g id="edge27" class="edge">
<title>Node21&#45;&gt;Node18</title>
<path fill="none" stroke="midnightblue" d="M817.28,-221.55C833.61,-225.19 850.52,-228.95 866.56,-232.53"/>
<polygon fill="midnightblue" stroke="midnightblue" points="865.91,-235.97 876.43,-234.73 867.43,-229.14 865.91,-235.97"/>
</g>
<!-- Node22 -->
<g id="node22" class="node">
<title>Node22</title>
<g id="a_node22"><a xlink:href="namespacesignal__easel_1_1aprs_1_1telemetry.html#a06228386caafe56440016944e280b484" target="_top" xlink:title="Validate the format of a coefficient.">
<polygon fill="none" stroke="black" points="866.5,-181 866.5,-211 1034.5,-211 1034.5,-181 866.5,-181"/>
<text text-anchor="start" x="874.5" y="-199" font-family="Helvetica,sans-Serif" font-size="10.00">signal_easel::aprs</text>
<text text-anchor="middle" x="950.5" y="-188" font-family="Helvetica,sans-Serif" font-size="10.00">::telemetry::validateCoefficient</text>
</a>
</g>
</g>
<!-- Node21&#45;&gt;Node22 -->
<g id="edge28" class="edge">
<title>Node21&#45;&gt;Node22</title>
<path fill="none" stroke="midnightblue" d="M826.09,-198.75C836.11,-198.53 846.24,-198.3 856.18,-198.08"/>
<polygon fill="midnightblue" stroke="midnightblue" points="856.53,-201.57 866.45,-197.85 856.37,-194.57 856.53,-201.57"/>
</g>
<!-- Node23&#45;&gt;Node14 -->
<g id="edge30" class="edge">
<title>Node23&#45;&gt;Node14</title>
<path fill="none" stroke="midnightblue" d="M801.95,-120.44C821.58,-115.19 842.82,-109.51 862.9,-104.14"/>
<polygon fill="midnightblue" stroke="midnightblue" points="863.9,-107.5 872.65,-101.54 862.09,-100.74 863.9,-107.5"/>
</g>
<!-- Node23&#45;&gt;Node15 -->
<g id="edge32" class="edge">
<title>Node23&#45;&gt;Node15</title>
<path fill="none" stroke="midnightblue" d="M812.76,-141C830.34,-141 848.76,-141 866.19,-141"/>
<polygon fill="midnightblue" stroke="midnightblue" points="866.32,-144.5 876.32,-141 866.32,-137.5 866.32,-144.5"/>
</g>
<!-- Node23&#45;&gt;Node18 -->
<g id="edge31" class="edge">
<title>Node23&#45;&gt;Node18</title>
<path fill="none" stroke="midnightblue" d="M809.94,-161.55C815.59,-164.32 821,-167.45 826,-171 848.32,-186.86 840.01,-204.68 862,-221 864.09,-222.55 866.26,-224.02 868.5,-225.42"/>
<polygon fill="midnightblue" stroke="midnightblue" points="867,-228.6 877.43,-230.47 870.45,-222.5 867,-228.6"/>
</g>
</g>
</svg>
