<?xml version="1.0" encoding="UTF-8" standalone="no"?>
<!DOCTYPE svg PUBLIC "-//W3C//DTD SVG 1.1//EN"
 "http://www.w3.org/Graphics/SVG/1.1/DTD/svg11.dtd">
<!-- Generated by graphviz version 2.43.0 (0)
 -->
<!-- Title: signal_easel::ax25::Address::isSsidValid Pages: 1 -->
<svg width="1427pt" height="520pt"
 viewBox="0.00 0.00 1427.00 520.00" xmlns="http://www.w3.org/2000/svg" xmlns:xlink="http://www.w3.org/1999/xlink">
<g id="graph0" class="graph" transform="scale(1 1) rotate(0) translate(4 516)">
<title>signal_easel::ax25::Address::isSsidValid</title>
<!-- Node1 -->
<g id="node1" class="node">
<title>Node1</title>
<g id="a_node1"><a xlink:title=" ">
<polygon fill="#bfbfbf" stroke="black" points="1299,-88 1299,-118 1419,-118 1419,-88 1299,-88"/>
<text text-anchor="start" x="1307" y="-106" font-family="Helvetica,sans-Serif" font-size="10.00">signal_easel::ax25</text>
<text text-anchor="middle" x="1359" y="-95" font-family="Helvetica,sans-Serif" font-size="10.00">::Address::isSsidValid</text>
</a>
</g>
</g>
<!-- Node2 -->
<g id="node2" class="node">
<title>Node2</title>
<g id="a_node2"><a xlink:href="classsignal__easel_1_1ax25_1_1Address.html#a8b44c6e311d3462bd86eda03c1d384f0" target="_top" xlink:title=" ">
<polygon fill="none" stroke="black" points="1113,-112 1113,-142 1263,-142 1263,-112 1113,-112"/>
<text text-anchor="start" x="1121" y="-130" font-family="Helvetica,sans-Serif" font-size="10.00">signal_easel::ax25</text>
<text text-anchor="middle" x="1188" y="-119" font-family="Helvetica,sans-Serif" font-size="10.00">::Address::assertSsidIsValid</text>
</a>
</g>
</g>
<!-- Node1&#45;&gt;Node2 -->
<g id="edge1" class="edge">
<title>Node1&#45;&gt;Node2</title>
<path fill="none" stroke="midnightblue" d="M1288.75,-112.83C1280.34,-114.03 1271.71,-115.25 1263.23,-116.46"/>
<polygon fill="midnightblue" stroke="midnightblue" points="1289.48,-116.27 1298.89,-111.39 1288.5,-109.33 1289.48,-116.27"/>
</g>
<!-- Node24 -->
<g id="node24" class="node">
<title>Node24</title>
<g id="a_node24"><a xlink:href="classsignal__easel_1_1ax25_1_1Address.html#aae81920cfd0dc7d89cb107f9d825488c" target="_top" xlink:title="If the address is valid (can be encoded correctly or was decoded)">
<polygon fill="none" stroke="black" points="952.5,-39 952.5,-69 1059.5,-69 1059.5,-39 952.5,-39"/>
<text text-anchor="start" x="960.5" y="-57" font-family="Helvetica,sans-Serif" font-size="10.00">signal_easel::ax25</text>
<text text-anchor="middle" x="1006" y="-46" font-family="Helvetica,sans-Serif" font-size="10.00">::Address::isValid</text>
</a>
</g>
</g>
<!-- Node1&#45;&gt;Node24 -->
<g id="edge33" class="edge">
<title>Node1&#45;&gt;Node24</title>
<path fill="none" stroke="midnightblue" d="M1288.77,-93.34C1221.5,-83.94 1120.81,-69.89 1059.78,-61.37"/>
<polygon fill="midnightblue" stroke="midnightblue" points="1288.47,-96.83 1298.85,-94.74 1289.43,-89.89 1288.47,-96.83"/>
</g>
<!-- Node3 -->
<g id="node3" class="node">
<title>Node3</title>
<g id="a_node3"><a xlink:href="classsignal__easel_1_1ax25_1_1Address.html#a7fa6b0ef4241413893f201660991e4ea" target="_top" xlink:title="Checks if the address is valid, if not throws an exception with a specific error code.">
<polygon fill="none" stroke="black" points="941,-252 941,-282 1071,-282 1071,-252 941,-252"/>
<text text-anchor="start" x="949" y="-270" font-family="Helvetica,sans-Serif" font-size="10.00">signal_easel::ax25</text>
<text text-anchor="middle" x="1006" y="-259" font-family="Helvetica,sans-Serif" font-size="10.00">::Address::assertIsValid</text>
</a>
</g>
</g>
<!-- Node2&#45;&gt;Node3 -->
<g id="edge2" class="edge">
<title>Node2&#45;&gt;Node3</title>
<path fill="none" stroke="midnightblue" d="M1159.08,-148.71C1122.22,-177.39 1058.25,-227.14 1026.31,-251.98"/>
<polygon fill="midnightblue" stroke="midnightblue" points="1161.65,-151.15 1167.39,-142.25 1157.35,-145.63 1161.65,-151.15"/>
</g>
<!-- Node20 -->
<g id="node20" class="node">
<title>Node20</title>
<g id="a_node20"><a xlink:href="classsignal__easel_1_1ax25_1_1Address.html#a6a2594f26aa1d2a46e33d7da1a1d5fdd" target="_top" xlink:title="Decode an AX.25 address from it&#39;s byte array representation.">
<polygon fill="none" stroke="black" points="935,-137 935,-167 1077,-167 1077,-137 935,-137"/>
<text text-anchor="start" x="943" y="-155" font-family="Helvetica,sans-Serif" font-size="10.00">signal_easel::ax25</text>
<text text-anchor="middle" x="1006" y="-144" font-family="Helvetica,sans-Serif" font-size="10.00">::Address::decodeAddress</text>
</a>
</g>
</g>
<!-- Node2&#45;&gt;Node20 -->
<g id="edge29" class="edge">
<title>Node2&#45;&gt;Node20</title>
<path fill="none" stroke="midnightblue" d="M1102.71,-138.71C1094.11,-139.9 1085.45,-141.1 1077.03,-142.27"/>
<polygon fill="midnightblue" stroke="midnightblue" points="1103.32,-142.16 1112.75,-137.31 1102.36,-135.22 1103.32,-142.16"/>
</g>
<!-- Node22 -->
<g id="node22" class="node">
<title>Node22</title>
<g id="a_node22"><a xlink:href="classsignal__easel_1_1ax25_1_1Address.html#a069a8d96c0d74e4a3288876c429c7187" target="_top" xlink:title="Set the SSID (0&#45;15)">
<polygon fill="none" stroke="black" points="952.5,-88 952.5,-118 1059.5,-118 1059.5,-88 952.5,-88"/>
<text text-anchor="start" x="960.5" y="-106" font-family="Helvetica,sans-Serif" font-size="10.00">signal_easel::ax25</text>
<text text-anchor="middle" x="1006" y="-95" font-family="Helvetica,sans-Serif" font-size="10.00">::Address::setSsid</text>
</a>
</g>
</g>
<!-- Node2&#45;&gt;Node22 -->
<g id="edge31" class="edge">
<title>Node2&#45;&gt;Node22</title>
<path fill="none" stroke="midnightblue" d="M1102.65,-115.75C1088,-113.8 1073.15,-111.82 1059.65,-110.02"/>
<polygon fill="midnightblue" stroke="midnightblue" points="1102.37,-119.25 1112.75,-117.1 1103.3,-112.31 1102.37,-119.25"/>
</g>
<!-- Node4 -->
<g id="node4" class="node">
<title>Node4</title>
<g id="a_node4"><a xlink:href="classsignal__easel_1_1ax25_1_1Frame.html#af86d4b534367a8faf6b628301c9ffceb" target="_top" xlink:title=" ">
<polygon fill="none" stroke="black" points="733.5,-383 733.5,-413 894.5,-413 894.5,-383 733.5,-383"/>
<text text-anchor="start" x="741.5" y="-401" font-family="Helvetica,sans-Serif" font-size="10.00">signal_easel::ax25</text>
<text text-anchor="middle" x="814" y="-390" font-family="Helvetica,sans-Serif" font-size="10.00">::Frame::addRepeaterAddress</text>
</a>
</g>
</g>
<!-- Node3&#45;&gt;Node4 -->
<g id="edge3" class="edge">
<title>Node3&#45;&gt;Node4</title>
<path fill="none" stroke="midnightblue" d="M984.45,-289.62C964.3,-310.76 931.9,-342.12 899,-363 886.73,-370.79 872.43,-377.5 859.14,-382.9"/>
<polygon fill="midnightblue" stroke="midnightblue" points="987.26,-291.74 991.55,-282.06 982.15,-286.95 987.26,-291.74"/>
</g>
<!-- Node10 -->
<g id="node10" class="node">
<title>Node10</title>
<g id="a_node10"><a xlink:href="classsignal__easel_1_1ax25_1_1Address.html#a0c31737081a9184b56dc32150b23cb0a" target="_top" xlink:title="Get the address as a byte array.">
<polygon fill="none" stroke="black" points="743,-186 743,-216 885,-216 885,-186 743,-186"/>
<text text-anchor="start" x="751" y="-204" font-family="Helvetica,sans-Serif" font-size="10.00">signal_easel::ax25</text>
<text text-anchor="middle" x="814" y="-193" font-family="Helvetica,sans-Serif" font-size="10.00">::Address::encodeAddress</text>
</a>
</g>
</g>
<!-- Node3&#45;&gt;Node10 -->
<g id="edge9" class="edge">
<title>Node3&#45;&gt;Node10</title>
<path fill="none" stroke="midnightblue" d="M951.7,-248.48C922.24,-238.25 886.1,-225.7 858.39,-216.07"/>
<polygon fill="midnightblue" stroke="midnightblue" points="950.82,-251.88 961.41,-251.86 953.11,-245.27 950.82,-251.88"/>
</g>
<!-- Node16 -->
<g id="node16" class="node">
<title>Node16</title>
<g id="a_node16"><a xlink:href="classsignal__easel_1_1ax25_1_1Frame.html#a57b163ece54317da8d95f3b18b47c23d" target="_top" xlink:title="setters/getters for the frame.">
<polygon fill="none" stroke="black" points="729,-323 729,-353 899,-353 899,-323 729,-323"/>
<text text-anchor="start" x="737" y="-341" font-family="Helvetica,sans-Serif" font-size="10.00">signal_easel::ax25</text>
<text text-anchor="middle" x="814" y="-330" font-family="Helvetica,sans-Serif" font-size="10.00">::Frame::setDestinationAddress</text>
</a>
</g>
</g>
<!-- Node3&#45;&gt;Node16 -->
<g id="edge17" class="edge">
<title>Node3&#45;&gt;Node16</title>
<path fill="none" stroke="midnightblue" d="M964.71,-286.45C945.13,-295.49 921.12,-305.98 899,-314 890.3,-317.15 880.98,-320.17 871.83,-322.93"/>
<polygon fill="midnightblue" stroke="midnightblue" points="966.35,-289.55 973.93,-282.15 963.39,-283.2 966.35,-289.55"/>
</g>
<!-- Node18 -->
<g id="node18" class="node">
<title>Node18</title>
<g id="a_node18"><a xlink:href="ax25__frame__test_8cpp.html#a091d83d42783f2a0b3fd33a0521dc2ce" target="_top" xlink:title=" ">
<polygon fill="none" stroke="black" points="605,-218.5 605,-237.5 646,-237.5 646,-218.5 605,-218.5"/>
<text text-anchor="middle" x="625.5" y="-225.5" font-family="Helvetica,sans-Serif" font-size="10.00">TEST</text>
</a>
</g>
</g>
<!-- Node3&#45;&gt;Node18 -->
<g id="edge28" class="edge">
<title>Node3&#45;&gt;Node18</title>
<path fill="none" stroke="midnightblue" d="M930.76,-259.35C841.86,-250.19 698.4,-235.41 646.25,-230.04"/>
<polygon fill="midnightblue" stroke="midnightblue" points="930.49,-262.84 940.79,-260.38 931.2,-255.88 930.49,-262.84"/>
</g>
<!-- Node19 -->
<g id="node19" class="node">
<title>Node19</title>
<g id="a_node19"><a xlink:href="classsignal__easel_1_1ax25_1_1Frame.html#a402d26a81f82bb5c477e8930b75a771e" target="_top" xlink:title=" ">
<polygon fill="none" stroke="black" points="741,-274 741,-304 887,-304 887,-274 741,-274"/>
<text text-anchor="start" x="749" y="-292" font-family="Helvetica,sans-Serif" font-size="10.00">signal_easel::ax25</text>
<text text-anchor="middle" x="814" y="-281" font-family="Helvetica,sans-Serif" font-size="10.00">::Frame::setSourceAddress</text>
</a>
</g>
</g>
<!-- Node3&#45;&gt;Node19 -->
<g id="edge23" class="edge">
<title>Node3&#45;&gt;Node19</title>
<path fill="none" stroke="midnightblue" d="M930.68,-275.6C916.42,-277.26 901.49,-278.99 887.29,-280.63"/>
<polygon fill="midnightblue" stroke="midnightblue" points="931.41,-279.04 940.94,-274.42 930.6,-272.09 931.41,-279.04"/>
</g>
<!-- Node5 -->
<g id="node5" class="node">
<title>Node5</title>
<g id="a_node5"><a xlink:href="tmp_8cpp.html#ae66f6b31b5ad750f1fe042a706a4e3d4" target="_top" xlink:title=" ">
<polygon fill="none" stroke="black" points="259,-303.5 259,-322.5 300,-322.5 300,-303.5 259,-303.5"/>
<text text-anchor="middle" x="279.5" y="-310.5" font-family="Helvetica,sans-Serif" font-size="10.00">main</text>
</a>
</g>
</g>
<!-- Node4&#45;&gt;Node5 -->
<g id="edge4" class="edge">
<title>Node4&#45;&gt;Node5</title>
<path fill="none" stroke="midnightblue" d="M745.06,-415.14C693.41,-425.65 620.78,-434.99 558,-423 454.66,-403.27 340.72,-345.66 297.97,-322.65"/>
<polygon fill="midnightblue" stroke="midnightblue" points="746.03,-418.51 755.1,-413.03 744.59,-411.66 746.03,-418.51"/>
</g>
<!-- Node6 -->
<g id="node6" class="node">
<title>Node6</title>
<g id="a_node6"><a xlink:href="classsignal__easel_1_1ax25_1_1Frame.html#a63cf2362c2a90d20f09bbbc4f24a07ba" target="_top" xlink:title="Attempt to parse an incoming bit stream into an AX.25 frame.">
<polygon fill="none" stroke="black" points="558,-383 558,-413 693,-413 693,-383 558,-383"/>
<text text-anchor="start" x="566" y="-401" font-family="Helvetica,sans-Serif" font-size="10.00">signal_easel::ax25</text>
<text text-anchor="middle" x="625.5" y="-390" font-family="Helvetica,sans-Serif" font-size="10.00">::Frame::parseBitStream</text>
</a>
</g>
</g>
<!-- Node4&#45;&gt;Node6 -->
<g id="edge5" class="edge">
<title>Node4&#45;&gt;Node6</title>
<path fill="none" stroke="midnightblue" d="M723.29,-398C713.17,-398 703,-398 693.26,-398"/>
<polygon fill="midnightblue" stroke="midnightblue" points="723.37,-401.5 733.37,-398 723.37,-394.5 723.37,-401.5"/>
</g>
<!-- Node7 -->
<g id="node7" class="node">
<title>Node7</title>
<g id="a_node7"><a xlink:href="classsignal__easel_1_1aprs_1_1Demodulator.html#ae5a8e7634c1bc8d215a0c454a9a737fa" target="_top" xlink:title=" ">
<polygon fill="none" stroke="black" points="369,-470.5 369,-511.5 522,-511.5 522,-470.5 369,-470.5"/>
<text text-anchor="start" x="377" y="-499.5" font-family="Helvetica,sans-Serif" font-size="10.00">signal_easel::aprs</text>
<text text-anchor="start" x="377" y="-488.5" font-family="Helvetica,sans-Serif" font-size="10.00">::Demodulator::lookForAx25</text>
<text text-anchor="middle" x="445.5" y="-477.5" font-family="Helvetica,sans-Serif" font-size="10.00">Packet</text>
</a>
</g>
</g>
<!-- Node6&#45;&gt;Node7 -->
<g id="edge6" class="edge">
<title>Node6&#45;&gt;Node7</title>
<path fill="none" stroke="midnightblue" d="M586.31,-417.96C556.66,-433.44 515.71,-454.84 485.79,-470.47"/>
<polygon fill="midnightblue" stroke="midnightblue" points="588.26,-420.88 595.51,-413.15 585.02,-414.68 588.26,-420.88"/>
</g>
<!-- Node8 -->
<g id="node8" class="node">
<title>Node8</title>
<g id="a_node8"><a xlink:href="classsignal__easel_1_1aprs_1_1Receiver.html#afbf7869aceaf2ea7ab0be8b9af16e818" target="_top" xlink:title=" ">
<polygon fill="none" stroke="black" points="226,-476 226,-506 333,-506 333,-476 226,-476"/>
<text text-anchor="start" x="234" y="-494" font-family="Helvetica,sans-Serif" font-size="10.00">signal_easel::aprs</text>
<text text-anchor="middle" x="279.5" y="-483" font-family="Helvetica,sans-Serif" font-size="10.00">::Receiver::decode</text>
</a>
</g>
</g>
<!-- Node7&#45;&gt;Node8 -->
<g id="edge7" class="edge">
<title>Node7&#45;&gt;Node8</title>
<path fill="none" stroke="midnightblue" d="M358.67,-491C350.09,-491 341.56,-491 333.47,-491"/>
<polygon fill="midnightblue" stroke="midnightblue" points="358.74,-494.5 368.74,-491 358.74,-487.5 358.74,-494.5"/>
</g>
<!-- Node9 -->
<g id="node9" class="node">
<title>Node9</title>
<g id="a_node9"><a xlink:href="aprs__test_8cpp.html#aea66d1824e3f1e27598adf99ac6a089a" target="_top" xlink:title=" ">
<polygon fill="none" stroke="black" points="0,-284.5 0,-303.5 41,-303.5 41,-284.5 0,-284.5"/>
<text text-anchor="middle" x="20.5" y="-291.5" font-family="Helvetica,sans-Serif" font-size="10.00">TEST</text>
</a>
</g>
</g>
<!-- Node7&#45;&gt;Node9 -->
<g id="edge8" class="edge">
<title>Node7&#45;&gt;Node9</title>
<path fill="none" stroke="midnightblue" d="M391.33,-466.24C296.86,-422.24 103.84,-332.35 41.44,-303.29"/>
<polygon fill="midnightblue" stroke="midnightblue" points="389.89,-469.43 400.43,-470.48 392.84,-463.08 389.89,-469.43"/>
</g>
<!-- Node11 -->
<g id="node11" class="node">
<title>Node11</title>
<g id="a_node11"><a xlink:href="classsignal__easel_1_1ax25_1_1Frame.html#a24e7d5ffc6504a3380e97142d1bc084e" target="_top" xlink:title="Builds all internal portions of the frame. Doesn&#39;t include the flags.">
<polygon fill="none" stroke="black" points="568.5,-131 568.5,-161 682.5,-161 682.5,-131 568.5,-131"/>
<text text-anchor="start" x="576.5" y="-149" font-family="Helvetica,sans-Serif" font-size="10.00">signal_easel::ax25</text>
<text text-anchor="middle" x="625.5" y="-138" font-family="Helvetica,sans-Serif" font-size="10.00">::Frame::buildFrame</text>
</a>
</g>
</g>
<!-- Node10&#45;&gt;Node11 -->
<g id="edge10" class="edge">
<title>Node10&#45;&gt;Node11</title>
<path fill="none" stroke="midnightblue" d="M750.02,-183.12C742.92,-181.07 735.8,-179 729,-177 711.61,-171.89 692.6,-166.17 675.72,-161.05"/>
<polygon fill="midnightblue" stroke="midnightblue" points="749.06,-186.49 759.64,-185.89 751,-179.76 749.06,-186.49"/>
</g>
<!-- Node15 -->
<g id="node15" class="node">
<title>Node15</title>
<g id="a_node15"><a xlink:href="ax25__address__test_8cpp.html#a1d87028368532ba4ae914da9397571d3" target="_top" xlink:title=" ">
<polygon fill="none" stroke="black" points="605,-180.5 605,-199.5 646,-199.5 646,-180.5 605,-180.5"/>
<text text-anchor="middle" x="625.5" y="-187.5" font-family="Helvetica,sans-Serif" font-size="10.00">TEST</text>
</a>
</g>
</g>
<!-- Node10&#45;&gt;Node15 -->
<g id="edge16" class="edge">
<title>Node10&#45;&gt;Node15</title>
<path fill="none" stroke="midnightblue" d="M732.55,-196.25C700.81,-194.38 667.07,-192.39 646.38,-191.17"/>
<polygon fill="midnightblue" stroke="midnightblue" points="732.57,-199.76 742.76,-196.86 732.98,-192.77 732.57,-199.76"/>
</g>
<!-- Node12 -->
<g id="node12" class="node">
<title>Node12</title>
<g id="a_node12"><a xlink:href="classsignal__easel_1_1ax25_1_1Frame.html#a2b4f6ebcb7592a7e5a21114c8fafa503" target="_top" xlink:title="A step beyond buildFrame. This function builds the frame, does the bit stuffing, adds the flags,...">
<polygon fill="none" stroke="black" points="383,-169 383,-199 508,-199 508,-169 383,-169"/>
<text text-anchor="start" x="391" y="-187" font-family="Helvetica,sans-Serif" font-size="10.00">signal_easel::ax25</text>
<text text-anchor="middle" x="445.5" y="-176" font-family="Helvetica,sans-Serif" font-size="10.00">::Frame::encodeFrame</text>
</a>
</g>
</g>
<!-- Node11&#45;&gt;Node12 -->
<g id="edge11" class="edge">
<title>Node11&#45;&gt;Node12</title>
<path fill="none" stroke="midnightblue" d="M558.12,-160.17C541.7,-163.68 524.18,-167.42 508.01,-170.87"/>
<polygon fill="midnightblue" stroke="midnightblue" points="559.13,-163.53 568.18,-158.02 557.67,-156.69 559.13,-163.53"/>
</g>
<!-- Node12&#45;&gt;Node5 -->
<g id="edge15" class="edge">
<title>Node12&#45;&gt;Node5</title>
<path fill="none" stroke="midnightblue" d="M417.24,-205.44C381.25,-233.75 319.35,-282.44 292.98,-303.18"/>
<polygon fill="midnightblue" stroke="midnightblue" points="419.67,-207.98 425.37,-199.05 415.34,-202.48 419.67,-207.98"/>
</g>
<!-- Node13 -->
<g id="node13" class="node">
<title>Node13</title>
<g id="a_node13"><a xlink:href="namespacesignal__easel_1_1aprs.html#a77481001a5b78a839972bb4220b43e4d" target="_top" xlink:title=" ">
<polygon fill="none" stroke="black" points="227.5,-213 227.5,-243 331.5,-243 331.5,-213 227.5,-213"/>
<text text-anchor="start" x="235.5" y="-231" font-family="Helvetica,sans-Serif" font-size="10.00">signal_easel::aprs</text>
<text text-anchor="middle" x="279.5" y="-220" font-family="Helvetica,sans-Serif" font-size="10.00">::encodePacket</text>
</a>
</g>
</g>
<!-- Node12&#45;&gt;Node13 -->
<g id="edge12" class="edge">
<title>Node12&#45;&gt;Node13</title>
<path fill="none" stroke="midnightblue" d="M378.85,-201.61C363.1,-205.84 346.52,-210.29 331.55,-214.3"/>
<polygon fill="midnightblue" stroke="midnightblue" points="379.77,-204.99 388.52,-199.02 377.95,-198.23 379.77,-204.99"/>
</g>
<!-- Node14 -->
<g id="node14" class="node">
<title>Node14</title>
<g id="a_node14"><a xlink:href="classsignal__easel_1_1aprs_1_1Modulator.html#a8ae067701382dec1680b786583ace687" target="_top" xlink:title=" ">
<polygon fill="none" stroke="black" points="77,-257 77,-287 190,-287 190,-257 77,-257"/>
<text text-anchor="start" x="85" y="-275" font-family="Helvetica,sans-Serif" font-size="10.00">signal_easel::aprs</text>
<text text-anchor="middle" x="133.5" y="-264" font-family="Helvetica,sans-Serif" font-size="10.00">::Modulator::encode</text>
</a>
</g>
</g>
<!-- Node13&#45;&gt;Node14 -->
<g id="edge13" class="edge">
<title>Node13&#45;&gt;Node14</title>
<path fill="none" stroke="midnightblue" d="M219.55,-246.01C207.71,-249.63 195.39,-253.39 183.92,-256.9"/>
<polygon fill="midnightblue" stroke="midnightblue" points="220.81,-249.29 229.35,-243.02 218.76,-242.59 220.81,-249.29"/>
</g>
<!-- Node14&#45;&gt;Node9 -->
<g id="edge14" class="edge">
<title>Node14&#45;&gt;Node9</title>
<path fill="none" stroke="midnightblue" d="M66.58,-285.07C57.37,-286.89 48.56,-288.64 41.21,-290.09"/>
<polygon fill="midnightblue" stroke="midnightblue" points="67.55,-288.44 76.67,-283.06 66.19,-281.58 67.55,-288.44"/>
</g>
<!-- Node16&#45;&gt;Node5 -->
<g id="edge20" class="edge">
<title>Node16&#45;&gt;Node5</title>
<path fill="none" stroke="midnightblue" d="M718.74,-338.4C670.62,-338.23 611.16,-337.42 558,-335 461.2,-330.6 345.81,-319.6 300.32,-315.03"/>
<polygon fill="midnightblue" stroke="midnightblue" points="718.82,-341.9 728.83,-338.43 718.84,-334.9 718.82,-341.9"/>
</g>
<!-- Node16&#45;&gt;Node6 -->
<g id="edge21" class="edge">
<title>Node16&#45;&gt;Node6</title>
<path fill="none" stroke="midnightblue" d="M756.37,-356.22C729.77,-364.78 698.44,-374.85 673.22,-382.97"/>
<polygon fill="midnightblue" stroke="midnightblue" points="757.49,-359.53 765.94,-353.14 755.35,-352.87 757.49,-359.53"/>
</g>
<!-- Node17 -->
<g id="node17" class="node">
<title>Node17</title>
<g id="a_node17"><a xlink:href="namespacesignal__easel_1_1aprs.html#a586b022fa0c917fa8557bbd5cdc6aeeb" target="_top" xlink:title=" ">
<polygon fill="none" stroke="black" points="569,-295 569,-325 682,-325 682,-295 569,-295"/>
<text text-anchor="start" x="577" y="-313" font-family="Helvetica,sans-Serif" font-size="10.00">signal_easel::aprs</text>
<text text-anchor="middle" x="625.5" y="-302" font-family="Helvetica,sans-Serif" font-size="10.00">::AddRequiredFields</text>
</a>
</g>
</g>
<!-- Node16&#45;&gt;Node17 -->
<g id="edge18" class="edge">
<title>Node16&#45;&gt;Node17</title>
<path fill="none" stroke="midnightblue" d="M718.71,-323.84C706.16,-321.96 693.64,-320.08 682.06,-318.34"/>
<polygon fill="midnightblue" stroke="midnightblue" points="718.34,-327.33 728.75,-325.35 719.38,-320.41 718.34,-327.33"/>
</g>
<!-- Node16&#45;&gt;Node18 -->
<g id="edge22" class="edge">
<title>Node16&#45;&gt;Node18</title>
<path fill="none" stroke="midnightblue" d="M739.96,-319.22C736.19,-317.6 732.52,-315.87 729,-314 718.74,-308.55 661.95,-259.13 637.6,-237.76"/>
<polygon fill="midnightblue" stroke="midnightblue" points="738.9,-322.56 749.49,-322.98 741.47,-316.05 738.9,-322.56"/>
</g>
<!-- Node17&#45;&gt;Node13 -->
<g id="edge19" class="edge">
<title>Node17&#45;&gt;Node13</title>
<path fill="none" stroke="midnightblue" d="M558.94,-294.37C492.79,-278.6 392.03,-254.58 331.58,-240.18"/>
<polygon fill="midnightblue" stroke="midnightblue" points="558.31,-297.82 568.85,-296.73 559.93,-291.01 558.31,-297.82"/>
</g>
<!-- Node19&#45;&gt;Node5 -->
<g id="edge25" class="edge">
<title>Node19&#45;&gt;Node5</title>
<path fill="none" stroke="midnightblue" d="M730.89,-286.67C718.2,-286.39 705.25,-286.15 693,-286 633,-285.25 617.93,-283.09 558,-286 461.06,-290.7 345.75,-304.6 300.3,-310.41"/>
<polygon fill="midnightblue" stroke="midnightblue" points="730.91,-290.18 740.98,-286.91 731.07,-283.18 730.91,-290.18"/>
</g>
<!-- Node19&#45;&gt;Node6 -->
<g id="edge26" class="edge">
<title>Node19&#45;&gt;Node6</title>
<path fill="none" stroke="midnightblue" d="M742.26,-307.78C737.69,-309.68 733.23,-311.76 729,-314 694.04,-332.55 659.79,-364.09 641.07,-382.8"/>
<polygon fill="midnightblue" stroke="midnightblue" points="743.69,-310.98 751.75,-304.1 741.16,-304.45 743.69,-310.98"/>
</g>
<!-- Node19&#45;&gt;Node17 -->
<g id="edge24" class="edge">
<title>Node19&#45;&gt;Node17</title>
<path fill="none" stroke="midnightblue" d="M730.76,-298.26C714.35,-300.11 697.48,-302.01 682.22,-303.73"/>
<polygon fill="midnightblue" stroke="midnightblue" points="731.35,-301.72 740.89,-297.12 730.57,-294.76 731.35,-301.72"/>
</g>
<!-- Node19&#45;&gt;Node18 -->
<g id="edge27" class="edge">
<title>Node19&#45;&gt;Node18</title>
<path fill="none" stroke="midnightblue" d="M757.07,-270.71C719.44,-258.4 672.1,-242.91 646.01,-234.38"/>
<polygon fill="midnightblue" stroke="midnightblue" points="756.31,-274.14 766.9,-273.92 758.48,-267.49 756.31,-274.14"/>
</g>
<!-- Node21 -->
<g id="node21" class="node">
<title>Node21</title>
<g id="a_node21"><a xlink:href="classsignal__easel_1_1ax25_1_1Address.html#a2ffb5475017120d1071e4b8d3f35c394" target="_top" xlink:title=" ">
<polygon fill="none" stroke="black" points="760.5,-137 760.5,-167 867.5,-167 867.5,-137 760.5,-137"/>
<text text-anchor="start" x="768.5" y="-155" font-family="Helvetica,sans-Serif" font-size="10.00">signal_easel::ax25</text>
<text text-anchor="middle" x="814" y="-144" font-family="Helvetica,sans-Serif" font-size="10.00">::Address::Address</text>
</a>
</g>
</g>
<!-- Node20&#45;&gt;Node21 -->
<g id="edge30" class="edge">
<title>Node20&#45;&gt;Node21</title>
<path fill="none" stroke="midnightblue" d="M924.53,-152C905.31,-152 885.29,-152 867.69,-152"/>
<polygon fill="midnightblue" stroke="midnightblue" points="924.79,-155.5 934.79,-152 924.79,-148.5 924.79,-155.5"/>
</g>
<!-- Node23 -->
<g id="node23" class="node">
<title>Node23</title>
<g id="a_node23"><a xlink:href="classsignal__easel_1_1ax25_1_1Address.html#af2e2c1061b619a32d966d4b08eed7ede" target="_top" xlink:title=" ">
<polygon fill="none" stroke="black" points="760.5,-88 760.5,-118 867.5,-118 867.5,-88 760.5,-88"/>
<text text-anchor="start" x="768.5" y="-106" font-family="Helvetica,sans-Serif" font-size="10.00">signal_easel::ax25</text>
<text text-anchor="middle" x="814" y="-95" font-family="Helvetica,sans-Serif" font-size="10.00">::Address::Address</text>
</a>
</g>
</g>
<!-- Node22&#45;&gt;Node23 -->
<g id="edge32" class="edge">
<title>Node22&#45;&gt;Node23</title>
<path fill="none" stroke="midnightblue" d="M942.21,-103C918.1,-103 890.85,-103 867.78,-103"/>
<polygon fill="midnightblue" stroke="midnightblue" points="942.33,-106.5 952.33,-103 942.33,-99.5 942.33,-106.5"/>
</g>
<!-- Node25 -->
<g id="node25" class="node">
<title>Node25</title>
<g id="a_node25"><a xlink:href="classsignal__easel_1_1ax25_1_1Frame.html#a640edeabbda34e78cc243e3561747bf9" target="_top" xlink:title=" ">
<polygon fill="none" stroke="black" points="753,-39 753,-69 875,-69 875,-39 753,-39"/>
<text text-anchor="start" x="761" y="-57" font-family="Helvetica,sans-Serif" font-size="10.00">signal_easel::ax25</text>
<text text-anchor="middle" x="814" y="-46" font-family="Helvetica,sans-Serif" font-size="10.00">::Frame::isFrameValid</text>
</a>
</g>
</g>
<!-- Node24&#45;&gt;Node25 -->
<g id="edge34" class="edge">
<title>Node24&#45;&gt;Node25</title>
<path fill="none" stroke="midnightblue" d="M942.28,-54C920.67,-54 896.55,-54 875.16,-54"/>
<polygon fill="midnightblue" stroke="midnightblue" points="942.33,-57.5 952.33,-54 942.33,-50.5 942.33,-57.5"/>
</g>
<!-- Node26 -->
<g id="node26" class="node">
<title>Node26</title>
<g id="a_node26"><a xlink:href="ax25__address__test_8cpp.html#afa443d4d5f700a003ec7cac34596dcba" target="_top" xlink:title=" ">
<polygon fill="none" stroke="black" points="793.5,-0.5 793.5,-19.5 834.5,-19.5 834.5,-0.5 793.5,-0.5"/>
<text text-anchor="middle" x="814" y="-7.5" font-family="Helvetica,sans-Serif" font-size="10.00">TEST</text>
</a>
</g>
</g>
<!-- Node24&#45;&gt;Node26 -->
<g id="edge37" class="edge">
<title>Node24&#45;&gt;Node26</title>
<path fill="none" stroke="midnightblue" d="M942.68,-39.2C928.34,-35.82 913.15,-32.27 899,-29 877,-23.92 851.73,-18.22 834.7,-14.4"/>
<polygon fill="midnightblue" stroke="midnightblue" points="941.92,-42.62 952.45,-41.51 943.52,-35.8 941.92,-42.62"/>
</g>
<!-- Node25&#45;&gt;Node11 -->
<g id="edge35" class="edge">
<title>Node25&#45;&gt;Node11</title>
<path fill="none" stroke="midnightblue" d="M743.4,-72.05C738.46,-73.89 733.62,-75.87 729,-78 697.78,-92.4 665.29,-115.58 645.47,-130.8"/>
<polygon fill="midnightblue" stroke="midnightblue" points="744.7,-75.31 752.98,-68.69 742.38,-68.7 744.7,-75.31"/>
</g>
<!-- Node25&#45;&gt;Node18 -->
<g id="edge36" class="edge">
<title>Node25&#45;&gt;Node18</title>
<path fill="none" stroke="midnightblue" d="M743.51,-67.28C738.18,-70.19 733.24,-73.72 729,-78 686.52,-120.91 735.48,-166.09 693,-209 680.75,-221.37 661.04,-225.83 646.26,-227.36"/>
<polygon fill="midnightblue" stroke="midnightblue" points="745.21,-70.35 752.79,-62.95 742.25,-64.01 745.21,-70.35"/>
</g>
</g>
</svg>
