<?xml version="1.0" encoding="UTF-8" standalone="no"?>
<!DOCTYPE svg PUBLIC "-//W3C//DTD SVG 1.1//EN"
 "http://www.w3.org/Graphics/SVG/1.1/DTD/svg11.dtd">
<!-- Generated by graphviz version 2.43.0 (0)
 -->
<!-- Title: signal_easel::aprs::Modulator Pages: 1 -->
<svg width="1063pt" height="910pt"
 viewBox="0.00 0.00 1063.00 910.00" xmlns="http://www.w3.org/2000/svg" xmlns:xlink="http://www.w3.org/1999/xlink">
<g id="graph0" class="graph" transform="scale(1 1) rotate(0) translate(4 906)">
<title>signal_easel::aprs::Modulator</title>
<!-- Node1 -->
<g id="node1" class="node">
<title>Node1</title>
<g id="a_node1"><a xlink:title=" ">
<polygon fill="#bfbfbf" stroke="black" points="435,-0.5 435,-123.5 581,-123.5 581,-0.5 435,-0.5"/>
<text text-anchor="start" x="443" y="-111.5" font-family="Helvetica,sans-Serif" font-size="10.00">signal_easel::aprs</text>
<text text-anchor="middle" x="508" y="-100.5" font-family="Helvetica,sans-Serif" font-size="10.00">::Modulator</text>
<polyline fill="none" stroke="black" points="435,-93.5 581,-93.5 "/>
<text text-anchor="middle" x="508" y="-81.5" font-family="Helvetica,sans-Serif" font-size="10.00"> </text>
<polyline fill="none" stroke="black" points="435,-74.5 581,-74.5 "/>
<text text-anchor="start" x="443" y="-62.5" font-family="Helvetica,sans-Serif" font-size="10.00">+ Modulator()</text>
<text text-anchor="start" x="443" y="-51.5" font-family="Helvetica,sans-Serif" font-size="10.00">+ encodeMessageAck()</text>
<text text-anchor="start" x="443" y="-40.5" font-family="Helvetica,sans-Serif" font-size="10.00">+ encodeMessagePacket()</text>
<text text-anchor="start" x="443" y="-29.5" font-family="Helvetica,sans-Serif" font-size="10.00">+ encodePositionPacket()</text>
<text text-anchor="start" x="443" y="-18.5" font-family="Helvetica,sans-Serif" font-size="10.00">+ setBasePacket()</text>
<text text-anchor="start" x="443" y="-7.5" font-family="Helvetica,sans-Serif" font-size="10.00">+ setCallSign()</text>
</a>
</g>
</g>
<!-- Node2 -->
<g id="node2" class="node">
<title>Node2</title>
<g id="a_node2"><a xlink:href="classsignal__easel_1_1afsk_1_1Modulator.html" target="_top" xlink:title="Modulates data into an AFSK signal.">
<polygon fill="none" stroke="black" points="334,-171.5 334,-272.5 438,-272.5 438,-171.5 334,-171.5"/>
<text text-anchor="start" x="342" y="-260.5" font-family="Helvetica,sans-Serif" font-size="10.00">signal_easel::afsk</text>
<text text-anchor="middle" x="386" y="-249.5" font-family="Helvetica,sans-Serif" font-size="10.00">::Modulator</text>
<polyline fill="none" stroke="black" points="334,-242.5 438,-242.5 "/>
<text text-anchor="middle" x="386" y="-230.5" font-family="Helvetica,sans-Serif" font-size="10.00"> </text>
<polyline fill="none" stroke="black" points="334,-223.5 438,-223.5 "/>
<text text-anchor="start" x="342" y="-211.5" font-family="Helvetica,sans-Serif" font-size="10.00">+ Modulator()</text>
<text text-anchor="start" x="342" y="-200.5" font-family="Helvetica,sans-Serif" font-size="10.00">+ ~Modulator()</text>
<text text-anchor="start" x="342" y="-189.5" font-family="Helvetica,sans-Serif" font-size="10.00"># encodeBytes()</text>
<text text-anchor="start" x="342" y="-178.5" font-family="Helvetica,sans-Serif" font-size="10.00">&#45; convertToNRZI()</text>
</a>
</g>
</g>
<!-- Node2&#45;&gt;Node1 -->
<g id="edge1" class="edge">
<title>Node2&#45;&gt;Node1</title>
<path fill="none" stroke="midnightblue" d="M430.39,-163.51C440.37,-150.59 450.99,-136.83 461.08,-123.77"/>
<polygon fill="none" stroke="midnightblue" points="427.61,-161.39 424.27,-171.44 433.15,-165.67 427.61,-161.39"/>
</g>
<!-- Node3 -->
<g id="node3" class="node">
<title>Node3</title>
<g id="a_node3"><a xlink:href="classsignal__easel_1_1DataModulator.html" target="_top" xlink:title="Another abstract base class for modulators that turn text/binary data into audio.">
<polygon fill="none" stroke="black" points="174,-364.5 174,-465.5 330,-465.5 330,-364.5 174,-364.5"/>
<text text-anchor="middle" x="252" y="-453.5" font-family="Helvetica,sans-Serif" font-size="10.00">signal_easel::DataModulator</text>
<polyline fill="none" stroke="black" points="174,-446.5 330,-446.5 "/>
<text text-anchor="middle" x="252" y="-434.5" font-family="Helvetica,sans-Serif" font-size="10.00"> </text>
<polyline fill="none" stroke="black" points="174,-427.5 330,-427.5 "/>
<text text-anchor="start" x="182" y="-415.5" font-family="Helvetica,sans-Serif" font-size="10.00">+ DataModulator()</text>
<text text-anchor="start" x="182" y="-404.5" font-family="Helvetica,sans-Serif" font-size="10.00">+ ~DataModulator()</text>
<text text-anchor="start" x="182" y="-393.5" font-family="Helvetica,sans-Serif" font-size="10.00">+ addBytes()</text>
<text text-anchor="start" x="182" y="-382.5" font-family="Helvetica,sans-Serif" font-size="10.00">+ addString()</text>
<text text-anchor="start" x="182" y="-371.5" font-family="Helvetica,sans-Serif" font-size="10.00"># encodeBytes()</text>
</a>
</g>
</g>
<!-- Node3&#45;&gt;Node2 -->
<g id="edge2" class="edge">
<title>Node3&#45;&gt;Node2</title>
<path fill="none" stroke="midnightblue" d="M286.19,-355.73C299.01,-334.9 314.1,-311.51 329,-291 333.44,-284.89 338.26,-278.63 343.17,-272.5"/>
<polygon fill="none" stroke="midnightblue" points="283.07,-354.13 280.84,-364.49 289.04,-357.78 283.07,-354.13"/>
</g>
<!-- Node4 -->
<g id="node4" class="node">
<title>Node4</title>
<g id="a_node4"><a xlink:href="classsignal__easel_1_1Modulator.html" target="_top" xlink:title="The abstract base class for all modulators that turn data into audio.">
<polygon fill="none" stroke="black" points="288.5,-513.5 288.5,-658.5 421.5,-658.5 421.5,-513.5 288.5,-513.5"/>
<text text-anchor="middle" x="355" y="-646.5" font-family="Helvetica,sans-Serif" font-size="10.00">signal_easel::Modulator</text>
<polyline fill="none" stroke="black" points="288.5,-639.5 421.5,-639.5 "/>
<text text-anchor="middle" x="355" y="-627.5" font-family="Helvetica,sans-Serif" font-size="10.00"> </text>
<polyline fill="none" stroke="black" points="288.5,-620.5 421.5,-620.5 "/>
<text text-anchor="start" x="296.5" y="-608.5" font-family="Helvetica,sans-Serif" font-size="10.00">+ Modulator()</text>
<text text-anchor="start" x="296.5" y="-597.5" font-family="Helvetica,sans-Serif" font-size="10.00">+ ~Modulator()</text>
<text text-anchor="start" x="296.5" y="-586.5" font-family="Helvetica,sans-Serif" font-size="10.00">+ clearBuffer()</text>
<text text-anchor="start" x="296.5" y="-575.5" font-family="Helvetica,sans-Serif" font-size="10.00">+ writeToFile()</text>
<text text-anchor="start" x="296.5" y="-564.5" font-family="Helvetica,sans-Serif" font-size="10.00">+ writeToPulseAudio()</text>
<text text-anchor="start" x="296.5" y="-553.5" font-family="Helvetica,sans-Serif" font-size="10.00"># addAudioSample()</text>
<text text-anchor="start" x="296.5" y="-542.5" font-family="Helvetica,sans-Serif" font-size="10.00"># addSilence()</text>
<text text-anchor="start" x="296.5" y="-531.5" font-family="Helvetica,sans-Serif" font-size="10.00"># addSineWave()</text>
<text text-anchor="start" x="296.5" y="-520.5" font-family="Helvetica,sans-Serif" font-size="10.00">&#45; addMorseCode()</text>
</a>
</g>
</g>
<!-- Node4&#45;&gt;Node3 -->
<g id="edge3" class="edge">
<title>Node4&#45;&gt;Node3</title>
<path fill="none" stroke="midnightblue" d="M306,-504.6C297.87,-491.27 289.66,-477.8 282.18,-465.52"/>
<polygon fill="none" stroke="midnightblue" points="303.13,-506.61 311.32,-513.33 309.1,-502.97 303.13,-506.61"/>
</g>
<!-- Node5 -->
<g id="node5" class="node">
<title>Node5</title>
<g id="a_node5"><a xlink:title=" ">
<polygon fill="none" stroke="#bfbfbf" points="312,-844.5 312,-901.5 362,-901.5 362,-844.5 312,-844.5"/>
<text text-anchor="middle" x="337" y="-889.5" font-family="Helvetica,sans-Serif" font-size="10.00">double</text>
<polyline fill="none" stroke="#bfbfbf" points="312,-882.5 362,-882.5 "/>
<text text-anchor="middle" x="337" y="-870.5" font-family="Helvetica,sans-Serif" font-size="10.00"> </text>
<polyline fill="none" stroke="#bfbfbf" points="312,-863.5 362,-863.5 "/>
<text text-anchor="middle" x="337" y="-851.5" font-family="Helvetica,sans-Serif" font-size="10.00"> </text>
</a>
</g>
</g>
<!-- Node5&#45;&gt;Node2 -->
<g id="edge15" class="edge">
<title>Node5&#45;&gt;Node2</title>
<path fill="none" stroke="#404040" d="M311.64,-867.1C259.68,-855.42 146,-820.82 146,-741.5 146,-741.5 146,-741.5 146,-414 146,-323.71 251.29,-269.23 322.39,-242.74"/>
<polygon fill="none" stroke="#404040" points="322.64,-242.65 326.92,-236.85 333.92,-238.57 329.64,-244.37 322.64,-242.65"/>
<text text-anchor="start" x="146" y="-600" font-family="Helvetica,sans-Serif" font-size="10.00"> &#45;CENTER_OVER_SAMPLE</text>
<text text-anchor="middle" x="208" y="-589" font-family="Helvetica,sans-Serif" font-size="10.00">_FREQ_</text>
<text text-anchor="start" x="146" y="-578" font-family="Helvetica,sans-Serif" font-size="10.00">&#45;DELTA_OVER_SAMPLE</text>
<text text-anchor="middle" x="208" y="-567" font-family="Helvetica,sans-Serif" font-size="10.00">_FREQ_</text>
</g>
<!-- Node5&#45;&gt;Node4 -->
<g id="edge4" class="edge">
<title>Node5&#45;&gt;Node4</title>
<path fill="none" stroke="#404040" d="M338.6,-844.39C340.53,-811.44 343.9,-754.69 347,-706 347.72,-694.65 348.5,-682.69 349.29,-670.91"/>
<polygon fill="none" stroke="#404040" points="349.3,-670.71 345.71,-664.45 350.1,-658.73 353.69,-664.98 349.3,-670.71"/>
<text text-anchor="middle" x="396.5" y="-738" font-family="Helvetica,sans-Serif" font-size="10.00"> &#45;sine_wave_phase_</text>
</g>
<!-- Node7 -->
<g id="node7" class="node">
<title>Node7</title>
<g id="a_node7"><a xlink:href="structsignal__easel_1_1Settings.html" target="_top" xlink:title="The universal settings for MWAV.">
<polygon fill="none" stroke="black" points="454.5,-712 454.5,-769 577.5,-769 577.5,-712 454.5,-712"/>
<text text-anchor="middle" x="516" y="-757" font-family="Helvetica,sans-Serif" font-size="10.00">signal_easel::Settings</text>
<polyline fill="none" stroke="black" points="454.5,-750 577.5,-750 "/>
<text text-anchor="middle" x="516" y="-738" font-family="Helvetica,sans-Serif" font-size="10.00"> </text>
<polyline fill="none" stroke="black" points="454.5,-731 577.5,-731 "/>
<text text-anchor="middle" x="516" y="-719" font-family="Helvetica,sans-Serif" font-size="10.00"> </text>
</a>
</g>
</g>
<!-- Node5&#45;&gt;Node7 -->
<g id="edge7" class="edge">
<title>Node5&#45;&gt;Node7</title>
<path fill="none" stroke="#404040" d="M347.83,-844.38C355.79,-827.38 368.15,-806.36 385,-793 405.15,-777.02 415.98,-784.2 440,-775 441.21,-774.54 442.43,-774.06 443.66,-773.58"/>
<polygon fill="none" stroke="#404040" points="443.7,-773.57 447.77,-767.62 454.83,-769.09 450.75,-775.04 443.7,-773.57"/>
<text text-anchor="middle" x="428" y="-818" font-family="Helvetica,sans-Serif" font-size="10.00"> +amplitude</text>
<text text-anchor="start" x="385" y="-807" font-family="Helvetica,sans-Serif" font-size="10.00">+call_sign_pause</text>
<text text-anchor="middle" x="428" y="-796" font-family="Helvetica,sans-Serif" font-size="10.00">_seconds</text>
</g>
<!-- Node6 -->
<g id="node6" class="node">
<title>Node6</title>
<g id="a_node6"><a xlink:title=" ">
<polygon fill="none" stroke="#bfbfbf" points="192,-712 192,-769 296,-769 296,-712 192,-712"/>
<text text-anchor="middle" x="244" y="-757" font-family="Helvetica,sans-Serif" font-size="10.00">vector&lt; int16_t &gt;</text>
<polyline fill="none" stroke="#bfbfbf" points="192,-750 296,-750 "/>
<text text-anchor="middle" x="244" y="-738" font-family="Helvetica,sans-Serif" font-size="10.00"> </text>
<polyline fill="none" stroke="#bfbfbf" points="192,-731 296,-731 "/>
<text text-anchor="middle" x="244" y="-719" font-family="Helvetica,sans-Serif" font-size="10.00"> </text>
</a>
</g>
</g>
<!-- Node6&#45;&gt;Node4 -->
<g id="edge5" class="edge">
<title>Node6&#45;&gt;Node4</title>
<path fill="none" stroke="#404040" d="M238.86,-711.84C238.1,-700.38 239.11,-687.39 245,-677 252.48,-663.8 261.84,-668.07 274,-659 275.46,-657.91 276.93,-656.8 278.4,-655.67"/>
<polygon fill="none" stroke="#404040" points="278.69,-655.44 280.92,-648.58 288.11,-648 285.88,-654.86 278.69,-655.44"/>
<text text-anchor="middle" x="284" y="-680" font-family="Helvetica,sans-Serif" font-size="10.00"> #audio_buffer_</text>
</g>
<!-- Node7&#45;&gt;Node4 -->
<g id="edge6" class="edge">
<title>Node7&#45;&gt;Node4</title>
<path fill="none" stroke="#404040" d="M486.84,-711.88C470.98,-696.85 450.54,-677.5 430.52,-658.54"/>
<polygon fill="none" stroke="#404040" points="430.39,-658.41 423.28,-657.19 421.68,-650.16 428.79,-651.38 430.39,-658.41"/>
<text text-anchor="middle" x="487" y="-680" font-family="Helvetica,sans-Serif" font-size="10.00"> #settings_</text>
</g>
<!-- Node11 -->
<g id="node11" class="node">
<title>Node11</title>
<g id="a_node11"><a xlink:href="structsignal__easel_1_1afsk_1_1Settings.html" target="_top" xlink:title="Settings for AFSK modulation/demodulation.">
<polygon fill="none" stroke="black" points="626,-381 626,-449 730,-449 730,-381 626,-381"/>
<text text-anchor="start" x="634" y="-437" font-family="Helvetica,sans-Serif" font-size="10.00">signal_easel::afsk</text>
<text text-anchor="middle" x="678" y="-426" font-family="Helvetica,sans-Serif" font-size="10.00">::Settings</text>
<polyline fill="none" stroke="black" points="626,-419 730,-419 "/>
<text text-anchor="middle" x="678" y="-407" font-family="Helvetica,sans-Serif" font-size="10.00"> </text>
<polyline fill="none" stroke="black" points="626,-400 730,-400 "/>
<text text-anchor="middle" x="678" y="-388" font-family="Helvetica,sans-Serif" font-size="10.00"> </text>
</a>
</g>
</g>
<!-- Node7&#45;&gt;Node11 -->
<g id="edge12" class="edge">
<title>Node7&#45;&gt;Node11</title>
<path fill="none" stroke="midnightblue" d="M586.77,-713.43C611.99,-700.73 638.27,-682.91 655,-659 699.21,-595.8 692.18,-499.65 684.43,-449.33"/>
<polygon fill="none" stroke="midnightblue" points="585.02,-710.39 577.54,-717.88 588.07,-716.69 585.02,-710.39"/>
</g>
<!-- Node8 -->
<g id="node8" class="node">
<title>Node8</title>
<g id="a_node8"><a xlink:title=" ">
<polygon fill="none" stroke="#bfbfbf" points="437.5,-844.5 437.5,-901.5 520.5,-901.5 520.5,-844.5 437.5,-844.5"/>
<text text-anchor="middle" x="479" y="-889.5" font-family="Helvetica,sans-Serif" font-size="10.00">CallSignMode</text>
<polyline fill="none" stroke="#bfbfbf" points="437.5,-882.5 520.5,-882.5 "/>
<text text-anchor="middle" x="479" y="-870.5" font-family="Helvetica,sans-Serif" font-size="10.00"> </text>
<polyline fill="none" stroke="#bfbfbf" points="437.5,-863.5 520.5,-863.5 "/>
<text text-anchor="middle" x="479" y="-851.5" font-family="Helvetica,sans-Serif" font-size="10.00"> </text>
</a>
</g>
</g>
<!-- Node8&#45;&gt;Node7 -->
<g id="edge8" class="edge">
<title>Node8&#45;&gt;Node7</title>
<path fill="none" stroke="#404040" d="M475.42,-844.3C474.38,-828.85 474.71,-809.45 480,-793 481.48,-788.4 483.53,-783.85 485.9,-779.47"/>
<polygon fill="none" stroke="#404040" points="486.05,-779.23 485.78,-772.02 492.33,-769 492.59,-776.21 486.05,-779.23"/>
<text text-anchor="middle" x="524" y="-807" font-family="Helvetica,sans-Serif" font-size="10.00"> +call_sign_mode</text>
</g>
<!-- Node9 -->
<g id="node9" class="node">
<title>Node9</title>
<g id="a_node9"><a xlink:title=" ">
<polygon fill="none" stroke="#bfbfbf" points="607,-844.5 607,-901.5 651,-901.5 651,-844.5 607,-844.5"/>
<text text-anchor="middle" x="629" y="-889.5" font-family="Helvetica,sans-Serif" font-size="10.00">string</text>
<polyline fill="none" stroke="#bfbfbf" points="607,-882.5 651,-882.5 "/>
<text text-anchor="middle" x="629" y="-870.5" font-family="Helvetica,sans-Serif" font-size="10.00"> </text>
<polyline fill="none" stroke="#bfbfbf" points="607,-863.5 651,-863.5 "/>
<text text-anchor="middle" x="629" y="-851.5" font-family="Helvetica,sans-Serif" font-size="10.00"> </text>
</a>
</g>
</g>
<!-- Node9&#45;&gt;Node7 -->
<g id="edge9" class="edge">
<title>Node9&#45;&gt;Node7</title>
<path fill="none" stroke="#404040" d="M606.92,-846.03C601.6,-839.57 596.01,-832.6 591,-826 580.19,-811.76 579.51,-806.68 568,-793 563.76,-787.96 559.1,-782.84 554.37,-777.89"/>
<polygon fill="none" stroke="#404040" points="554.25,-777.78 547.19,-776.3 545.84,-769.21 552.9,-770.69 554.25,-777.78"/>
<text text-anchor="middle" x="618.5" y="-807" font-family="Helvetica,sans-Serif" font-size="10.00"> +call_sign</text>
</g>
<!-- Node17 -->
<g id="node17" class="node">
<title>Node17</title>
<g id="a_node17"><a xlink:href="structsignal__easel_1_1aprs_1_1Packet.html" target="_top" xlink:title=" ">
<polygon fill="none" stroke="black" points="749,-706.5 749,-774.5 853,-774.5 853,-706.5 749,-706.5"/>
<text text-anchor="start" x="757" y="-762.5" font-family="Helvetica,sans-Serif" font-size="10.00">signal_easel::aprs</text>
<text text-anchor="middle" x="801" y="-751.5" font-family="Helvetica,sans-Serif" font-size="10.00">::Packet</text>
<polyline fill="none" stroke="black" points="749,-744.5 853,-744.5 "/>
<text text-anchor="middle" x="801" y="-732.5" font-family="Helvetica,sans-Serif" font-size="10.00"> </text>
<polyline fill="none" stroke="black" points="749,-725.5 853,-725.5 "/>
<text text-anchor="middle" x="801" y="-713.5" font-family="Helvetica,sans-Serif" font-size="10.00"> </text>
</a>
</g>
</g>
<!-- Node9&#45;&gt;Node17 -->
<g id="edge25" class="edge">
<title>Node9&#45;&gt;Node17</title>
<path fill="none" stroke="#404040" d="M644.36,-844.3C654.67,-827.7 669.55,-807.14 687,-793 701.88,-780.94 720.04,-771.08 737.45,-763.34"/>
<polygon fill="none" stroke="#404040" points="737.69,-763.23 741.65,-757.21 748.74,-758.55 744.77,-764.57 737.69,-763.23"/>
<text text-anchor="middle" x="742" y="-812.5" font-family="Helvetica,sans-Serif" font-size="10.00"> +destination_address</text>
<text text-anchor="middle" x="742" y="-801.5" font-family="Helvetica,sans-Serif" font-size="10.00">+source_address</text>
</g>
<!-- Node10 -->
<g id="node10" class="node">
<title>Node10</title>
<g id="a_node10"><a xlink:title=" ">
<polygon fill="none" stroke="#bfbfbf" points="0,-386.5 0,-443.5 44,-443.5 44,-386.5 0,-386.5"/>
<text text-anchor="middle" x="22" y="-431.5" font-family="Helvetica,sans-Serif" font-size="10.00">int8_t</text>
<polyline fill="none" stroke="#bfbfbf" points="0,-424.5 44,-424.5 "/>
<text text-anchor="middle" x="22" y="-412.5" font-family="Helvetica,sans-Serif" font-size="10.00"> </text>
<polyline fill="none" stroke="#bfbfbf" points="0,-405.5 44,-405.5 "/>
<text text-anchor="middle" x="22" y="-393.5" font-family="Helvetica,sans-Serif" font-size="10.00"> </text>
</a>
</g>
</g>
<!-- Node10&#45;&gt;Node2 -->
<g id="edge10" class="edge">
<title>Node10&#45;&gt;Node2</title>
<path fill="none" stroke="#404040" d="M13.13,-386.39C6.19,-358.96 1,-317.28 23,-291 60.41,-246.3 227.82,-230.79 321.67,-225.56"/>
<polygon fill="none" stroke="#404040" points="321.87,-225.55 327.65,-221.24 333.85,-224.91 328.07,-229.23 321.87,-225.55"/>
<text text-anchor="start" x="23" y="-327" font-family="Helvetica,sans-Serif" font-size="10.00"> &#45;current_bipolar_bit</text>
<text text-anchor="middle" x="77.5" y="-316" font-family="Helvetica,sans-Serif" font-size="10.00">_</text>
<text text-anchor="middle" x="77.5" y="-305" font-family="Helvetica,sans-Serif" font-size="10.00">&#45;previous_bipolar_bit_</text>
</g>
<!-- Node11&#45;&gt;Node2 -->
<g id="edge11" class="edge">
<title>Node11&#45;&gt;Node2</title>
<path fill="none" stroke="#404040" d="M659.19,-380.95C653.32,-370 647.06,-357.64 642,-346 631.7,-322.28 641.77,-308.79 623,-291 576.41,-246.83 503.07,-231.07 450.31,-225.6"/>
<polygon fill="none" stroke="#404040" points="449.99,-225.57 443.65,-229.01 438.04,-224.47 444.38,-221.04 449.99,-225.57"/>
<text text-anchor="middle" x="668" y="-316" font-family="Helvetica,sans-Serif" font-size="10.00"> &#45;settings_</text>
</g>
<!-- Node16 -->
<g id="node16" class="node">
<title>Node16</title>
<g id="a_node16"><a xlink:href="structsignal__easel_1_1aprs_1_1Settings.html" target="_top" xlink:title=" ">
<polygon fill="none" stroke="black" points="660,-188 660,-256 764,-256 764,-188 660,-188"/>
<text text-anchor="start" x="668" y="-244" font-family="Helvetica,sans-Serif" font-size="10.00">signal_easel::aprs</text>
<text text-anchor="middle" x="712" y="-233" font-family="Helvetica,sans-Serif" font-size="10.00">::Settings</text>
<polyline fill="none" stroke="black" points="660,-226 764,-226 "/>
<text text-anchor="middle" x="712" y="-214" font-family="Helvetica,sans-Serif" font-size="10.00"> </text>
<polyline fill="none" stroke="black" points="660,-207 764,-207 "/>
<text text-anchor="start" x="668" y="-195" font-family="Helvetica,sans-Serif" font-size="10.00">+ Settings()</text>
</a>
</g>
</g>
<!-- Node11&#45;&gt;Node16 -->
<g id="edge20" class="edge">
<title>Node11&#45;&gt;Node16</title>
<path fill="none" stroke="midnightblue" d="M691.88,-370.95C694.18,-362.73 696.35,-354.15 698,-346 704.1,-315.88 707.75,-281.03 709.79,-256.13"/>
<polygon fill="none" stroke="midnightblue" points="688.46,-370.16 689.03,-380.74 695.18,-372.11 688.46,-370.16"/>
</g>
<!-- Node12 -->
<g id="node12" class="node">
<title>Node12</title>
<g id="a_node12"><a xlink:title=" ">
<polygon fill="none" stroke="#bfbfbf" points="572,-557.5 572,-614.5 646,-614.5 646,-557.5 572,-557.5"/>
<text text-anchor="middle" x="609" y="-602.5" font-family="Helvetica,sans-Serif" font-size="10.00">BitEncoding</text>
<polyline fill="none" stroke="#bfbfbf" points="572,-595.5 646,-595.5 "/>
<text text-anchor="middle" x="609" y="-583.5" font-family="Helvetica,sans-Serif" font-size="10.00"> </text>
<polyline fill="none" stroke="#bfbfbf" points="572,-576.5 646,-576.5 "/>
<text text-anchor="middle" x="609" y="-564.5" font-family="Helvetica,sans-Serif" font-size="10.00"> </text>
</a>
</g>
</g>
<!-- Node12&#45;&gt;Node11 -->
<g id="edge13" class="edge">
<title>Node12&#45;&gt;Node11</title>
<path fill="none" stroke="#404040" d="M603.79,-557.29C601.13,-536.33 600.22,-507.28 610,-484 613.86,-474.81 619.62,-466.2 626.18,-458.41"/>
<polygon fill="none" stroke="#404040" points="626.4,-458.17 627.51,-451.05 634.51,-449.33 633.41,-456.46 626.4,-458.17"/>
<text text-anchor="middle" x="647" y="-487" font-family="Helvetica,sans-Serif" font-size="10.00"> +bit_encoding</text>
</g>
<!-- Node13 -->
<g id="node13" class="node">
<title>Node13</title>
<g id="a_node13"><a xlink:title=" ">
<polygon fill="none" stroke="#bfbfbf" points="444,-557.5 444,-614.5 482,-614.5 482,-557.5 444,-557.5"/>
<text text-anchor="middle" x="463" y="-602.5" font-family="Helvetica,sans-Serif" font-size="10.00">bool</text>
<polyline fill="none" stroke="#bfbfbf" points="444,-595.5 482,-595.5 "/>
<text text-anchor="middle" x="463" y="-583.5" font-family="Helvetica,sans-Serif" font-size="10.00"> </text>
<polyline fill="none" stroke="#bfbfbf" points="444,-576.5 482,-576.5 "/>
<text text-anchor="middle" x="463" y="-564.5" font-family="Helvetica,sans-Serif" font-size="10.00"> </text>
</a>
</g>
</g>
<!-- Node13&#45;&gt;Node2 -->
<g id="edge18" class="edge">
<title>Node13&#45;&gt;Node2</title>
<path fill="none" stroke="#404040" d="M458.03,-557.15C453.8,-533.07 447.68,-497.29 443,-466 431.39,-388.42 442.97,-366.01 420,-291 419.3,-288.73 418.54,-286.44 417.72,-284.15"/>
<polygon fill="none" stroke="#404040" points="417.61,-283.88 411.68,-279.78 413.19,-272.73 419.12,-276.83 417.61,-283.88"/>
<text text-anchor="start" x="443" y="-418" font-family="Helvetica,sans-Serif" font-size="10.00"> &#45;nrzi_previous_tone</text>
<text text-anchor="middle" x="493" y="-407" font-family="Helvetica,sans-Serif" font-size="10.00">_mark_</text>
</g>
<!-- Node13&#45;&gt;Node11 -->
<g id="edge14" class="edge">
<title>Node13&#45;&gt;Node11</title>
<path fill="none" stroke="#404040" d="M460.41,-557.29C459.91,-534.3 463.33,-502.49 483,-484 526.79,-442.85 561.89,-489.96 617,-466 622.97,-463.41 628.82,-460.05 634.39,-456.31"/>
<polygon fill="none" stroke="#404040" points="634.39,-456.31 636.89,-449.54 644.09,-449.24 641.6,-456.01 634.39,-456.31"/>
<text text-anchor="middle" x="542.5" y="-487" font-family="Helvetica,sans-Serif" font-size="10.00"> +include_ascii_padding</text>
</g>
<!-- Node14 -->
<g id="node14" class="node">
<title>Node14</title>
<g id="a_node14"><a xlink:title=" ">
<polygon fill="none" stroke="#bfbfbf" points="348,-386.5 348,-443.5 398,-443.5 398,-386.5 348,-386.5"/>
<text text-anchor="middle" x="373" y="-431.5" font-family="Helvetica,sans-Serif" font-size="10.00">int32_t</text>
<polyline fill="none" stroke="#bfbfbf" points="348,-424.5 398,-424.5 "/>
<text text-anchor="middle" x="373" y="-412.5" font-family="Helvetica,sans-Serif" font-size="10.00"> </text>
<polyline fill="none" stroke="#bfbfbf" points="348,-405.5 398,-405.5 "/>
<text text-anchor="middle" x="373" y="-393.5" font-family="Helvetica,sans-Serif" font-size="10.00"> </text>
</a>
</g>
</g>
<!-- Node14&#45;&gt;Node2 -->
<g id="edge16" class="edge">
<title>Node14&#45;&gt;Node2</title>
<path fill="none" stroke="#404040" d="M355,-386.4C348.26,-374.48 341.41,-360.07 338,-346 332.24,-322.24 330.61,-314.3 338,-291 338.77,-288.58 339.66,-286.17 340.65,-283.78"/>
<polygon fill="none" stroke="#404040" points="340.73,-283.61 339.73,-276.47 345.94,-272.8 346.94,-279.95 340.73,-283.61"/>
<text text-anchor="middle" x="379" y="-316" font-family="Helvetica,sans-Serif" font-size="10.00"> &#45;integral_value_</text>
</g>
<!-- Node15 -->
<g id="node15" class="node">
<title>Node15</title>
<g id="a_node15"><a xlink:title=" ">
<polygon fill="none" stroke="#bfbfbf" points="552,-386.5 552,-443.5 608,-443.5 608,-386.5 552,-386.5"/>
<text text-anchor="middle" x="580" y="-431.5" font-family="Helvetica,sans-Serif" font-size="10.00">uint32_t</text>
<polyline fill="none" stroke="#bfbfbf" points="552,-424.5 608,-424.5 "/>
<text text-anchor="middle" x="580" y="-412.5" font-family="Helvetica,sans-Serif" font-size="10.00"> </text>
<polyline fill="none" stroke="#bfbfbf" points="552,-405.5 608,-405.5 "/>
<text text-anchor="middle" x="580" y="-393.5" font-family="Helvetica,sans-Serif" font-size="10.00"> </text>
</a>
</g>
</g>
<!-- Node15&#45;&gt;Node2 -->
<g id="edge17" class="edge">
<title>Node15&#45;&gt;Node2</title>
<path fill="none" stroke="#404040" d="M560.33,-386.32C553.84,-378.44 546.17,-370.3 538,-364 523.21,-352.58 515.07,-357.05 500,-346 496.21,-343.22 467.19,-311.9 439.38,-281.56"/>
<polygon fill="none" stroke="#404040" points="439.31,-281.48 432.31,-279.76 431.21,-272.63 438.21,-274.36 439.31,-281.48"/>
<text text-anchor="start" x="500" y="-338" font-family="Helvetica,sans-Serif" font-size="10.00"> &#45;OVER_SAMPLE_FACTOR</text>
<text text-anchor="middle" x="561.5" y="-327" font-family="Helvetica,sans-Serif" font-size="10.00">_</text>
<text text-anchor="start" x="500" y="-316" font-family="Helvetica,sans-Serif" font-size="10.00">&#45;SAMPLES_PER_SYMBOL</text>
<text text-anchor="middle" x="561.5" y="-305" font-family="Helvetica,sans-Serif" font-size="10.00">_</text>
<text text-anchor="middle" x="561.5" y="-294" font-family="Helvetica,sans-Serif" font-size="10.00">&#45;SAMPLE_FREQUENCY_</text>
</g>
<!-- Node16&#45;&gt;Node1 -->
<g id="edge19" class="edge">
<title>Node16&#45;&gt;Node1</title>
<path fill="none" stroke="#404040" d="M669.23,-187.88C646.55,-170.31 617.88,-148.11 591.04,-127.31"/>
<polygon fill="none" stroke="#404040" points="590.73,-127.07 583.54,-126.56 581.24,-119.73 588.43,-120.24 590.73,-127.07"/>
<text text-anchor="middle" x="648" y="-145" font-family="Helvetica,sans-Serif" font-size="10.00"> &#45;settings_</text>
</g>
<!-- Node17&#45;&gt;Node16 -->
<g id="edge21" class="edge">
<title>Node17&#45;&gt;Node16</title>
<path fill="none" stroke="#404040" d="M795.81,-706.3C785.5,-640.77 761.5,-490.19 739,-364 733.27,-331.87 726.34,-295.72 720.93,-268.07"/>
<polygon fill="none" stroke="#404040" points="720.88,-267.78 715.8,-262.66 718.57,-256 723.65,-261.12 720.88,-267.78"/>
<text text-anchor="middle" x="797.5" y="-487" font-family="Helvetica,sans-Serif" font-size="10.00"> +base_packet</text>
</g>
<!-- Node18 -->
<g id="node18" class="node">
<title>Node18</title>
<g id="a_node18"><a xlink:title=" ">
<polygon fill="none" stroke="#bfbfbf" points="761.5,-844.5 761.5,-901.5 840.5,-901.5 840.5,-844.5 761.5,-844.5"/>
<text text-anchor="middle" x="801" y="-889.5" font-family="Helvetica,sans-Serif" font-size="10.00">SymbolTable</text>
<polyline fill="none" stroke="#bfbfbf" points="761.5,-882.5 840.5,-882.5 "/>
<text text-anchor="middle" x="801" y="-870.5" font-family="Helvetica,sans-Serif" font-size="10.00"> </text>
<polyline fill="none" stroke="#bfbfbf" points="761.5,-863.5 840.5,-863.5 "/>
<text text-anchor="middle" x="801" y="-851.5" font-family="Helvetica,sans-Serif" font-size="10.00"> </text>
</a>
</g>
</g>
<!-- Node18&#45;&gt;Node17 -->
<g id="edge22" class="edge">
<title>Node18&#45;&gt;Node17</title>
<path fill="none" stroke="#404040" d="M801,-844.32C801,-827.63 801,-805.96 801,-786.82"/>
<polygon fill="none" stroke="#404040" points="801,-786.68 797,-780.68 801,-774.68 805,-780.68 801,-786.68"/>
<text text-anchor="middle" x="840" y="-807" font-family="Helvetica,sans-Serif" font-size="10.00"> +symbol_table</text>
</g>
<!-- Node19 -->
<g id="node19" class="node">
<title>Node19</title>
<g id="a_node19"><a xlink:title=" ">
<polygon fill="none" stroke="#bfbfbf" points="883,-844.5 883,-901.5 921,-901.5 921,-844.5 883,-844.5"/>
<text text-anchor="middle" x="902" y="-889.5" font-family="Helvetica,sans-Serif" font-size="10.00">char</text>
<polyline fill="none" stroke="#bfbfbf" points="883,-882.5 921,-882.5 "/>
<text text-anchor="middle" x="902" y="-870.5" font-family="Helvetica,sans-Serif" font-size="10.00"> </text>
<polyline fill="none" stroke="#bfbfbf" points="883,-863.5 921,-863.5 "/>
<text text-anchor="middle" x="902" y="-851.5" font-family="Helvetica,sans-Serif" font-size="10.00"> </text>
</a>
</g>
</g>
<!-- Node19&#45;&gt;Node17 -->
<g id="edge23" class="edge">
<title>Node19&#45;&gt;Node17</title>
<path fill="none" stroke="#404040" d="M899.21,-844.28C896.44,-828.07 890.94,-807.93 880,-793 875.19,-786.43 869.27,-780.48 862.85,-775.14"/>
<polygon fill="none" stroke="#404040" points="862.7,-775.03 855.51,-774.58 853.16,-767.76 860.35,-768.21 862.7,-775.03"/>
<text text-anchor="middle" x="918" y="-807" font-family="Helvetica,sans-Serif" font-size="10.00"> +symbol</text>
</g>
<!-- Node20 -->
<g id="node20" class="node">
<title>Node20</title>
<g id="a_node20"><a xlink:title=" ">
<polygon fill="none" stroke="#bfbfbf" points="948,-844.5 948,-901.5 998,-901.5 998,-844.5 948,-844.5"/>
<text text-anchor="middle" x="973" y="-889.5" font-family="Helvetica,sans-Serif" font-size="10.00">uint8_t</text>
<polyline fill="none" stroke="#bfbfbf" points="948,-882.5 998,-882.5 "/>
<text text-anchor="middle" x="973" y="-870.5" font-family="Helvetica,sans-Serif" font-size="10.00"> </text>
<polyline fill="none" stroke="#bfbfbf" points="948,-863.5 998,-863.5 "/>
<text text-anchor="middle" x="973" y="-851.5" font-family="Helvetica,sans-Serif" font-size="10.00"> </text>
</a>
</g>
</g>
<!-- Node20&#45;&gt;Node17 -->
<g id="edge24" class="edge">
<title>Node20&#45;&gt;Node17</title>
<path fill="none" stroke="#404040" d="M969.67,-844.31C966.31,-827.5 959.55,-806.71 946,-793 924.4,-771.14 892.92,-758.52 864.81,-751.26"/>
<polygon fill="none" stroke="#404040" points="864.68,-751.23 857.92,-753.74 853.01,-748.46 859.77,-745.95 864.68,-751.23"/>
<text text-anchor="middle" x="1009.5" y="-812.5" font-family="Helvetica,sans-Serif" font-size="10.00"> +destination_ssid</text>
<text text-anchor="middle" x="1009.5" y="-801.5" font-family="Helvetica,sans-Serif" font-size="10.00">+source_ssid</text>
</g>
</g>
</svg>
