<?xml version="1.0" encoding="UTF-8" standalone="no"?>
<!DOCTYPE svg PUBLIC "-//W3C//DTD SVG 1.1//EN"
 "http://www.w3.org/Graphics/SVG/1.1/DTD/svg11.dtd">
<!-- Generated by graphviz version 2.43.0 (0)
 -->
<!-- Title: signal_easel::ax25::Address::assertIsValid Pages: 1 -->
<svg width="1189pt" height="244pt"
 viewBox="0.00 0.00 1189.00 244.00" xmlns="http://www.w3.org/2000/svg" xmlns:xlink="http://www.w3.org/1999/xlink">
<g id="graph0" class="graph" transform="scale(1 1) rotate(0) translate(4 240)">
<title>signal_easel::ax25::Address::assertIsValid</title>
<!-- Node1 -->
<g id="node1" class="node">
<title>Node1</title>
<g id="a_node1"><a xlink:title="Checks if the address is valid, if not throws an exception with a specific error code.">
<polygon fill="#bfbfbf" stroke="black" points="1051,-107.5 1051,-137.5 1181,-137.5 1181,-107.5 1051,-107.5"/>
<text text-anchor="start" x="1059" y="-125.5" font-family="Helvetica,sans-Serif" font-size="10.00">signal_easel::ax25</text>
<text text-anchor="middle" x="1116" y="-114.5" font-family="Helvetica,sans-Serif" font-size="10.00">::Address::assertIsValid</text>
</a>
</g>
</g>
<!-- Node2 -->
<g id="node2" class="node">
<title>Node2</title>
<g id="a_node2"><a xlink:href="classsignal__easel_1_1ax25_1_1Frame.html#af86d4b534367a8faf6b628301c9ffceb" target="_top" xlink:title=" ">
<polygon fill="none" stroke="black" points="849.5,-205.5 849.5,-235.5 1010.5,-235.5 1010.5,-205.5 849.5,-205.5"/>
<text text-anchor="start" x="857.5" y="-223.5" font-family="Helvetica,sans-Serif" font-size="10.00">signal_easel::ax25</text>
<text text-anchor="middle" x="930" y="-212.5" font-family="Helvetica,sans-Serif" font-size="10.00">::Frame::addRepeaterAddress</text>
</a>
</g>
</g>
<!-- Node1&#45;&gt;Node2 -->
<g id="edge1" class="edge">
<title>Node1&#45;&gt;Node2</title>
<path fill="none" stroke="midnightblue" d="M1090.85,-144.28C1071.54,-160.68 1043.14,-182.64 1015,-196.5 1008.2,-199.85 1000.85,-202.81 993.42,-205.4"/>
<polygon fill="midnightblue" stroke="midnightblue" points="1093.26,-146.82 1098.54,-137.63 1088.68,-141.53 1093.26,-146.82"/>
</g>
<!-- Node7 -->
<g id="node7" class="node">
<title>Node7</title>
<g id="a_node7"><a xlink:href="classsignal__easel_1_1ax25_1_1Address.html#a0c31737081a9184b56dc32150b23cb0a" target="_top" xlink:title="Get the address as a byte array.">
<polygon fill="none" stroke="black" points="859,-19.5 859,-49.5 1001,-49.5 1001,-19.5 859,-19.5"/>
<text text-anchor="start" x="867" y="-37.5" font-family="Helvetica,sans-Serif" font-size="10.00">signal_easel::ax25</text>
<text text-anchor="middle" x="930" y="-26.5" font-family="Helvetica,sans-Serif" font-size="10.00">::Address::encodeAddress</text>
</a>
</g>
</g>
<!-- Node1&#45;&gt;Node7 -->
<g id="edge6" class="edge">
<title>Node1&#45;&gt;Node7</title>
<path fill="none" stroke="midnightblue" d="M1083.15,-102.02C1063.89,-90.15 1038.58,-75.44 1015,-64.5 1003.2,-59.03 990.1,-53.92 977.82,-49.52"/>
<polygon fill="midnightblue" stroke="midnightblue" points="1081.47,-105.1 1091.81,-107.42 1085.18,-99.16 1081.47,-105.1"/>
</g>
<!-- Node15 -->
<g id="node15" class="node">
<title>Node15</title>
<g id="a_node15"><a xlink:href="classsignal__easel_1_1ax25_1_1Frame.html#a57b163ece54317da8d95f3b18b47c23d" target="_top" xlink:title="setters/getters for the frame.">
<polygon fill="none" stroke="black" points="845,-156.5 845,-186.5 1015,-186.5 1015,-156.5 845,-156.5"/>
<text text-anchor="start" x="853" y="-174.5" font-family="Helvetica,sans-Serif" font-size="10.00">signal_easel::ax25</text>
<text text-anchor="middle" x="930" y="-163.5" font-family="Helvetica,sans-Serif" font-size="10.00">::Frame::setDestinationAddress</text>
</a>
</g>
</g>
<!-- Node1&#45;&gt;Node15 -->
<g id="edge15" class="edge">
<title>Node1&#45;&gt;Node15</title>
<path fill="none" stroke="midnightblue" d="M1048.82,-140.12C1028.69,-145.48 1006.77,-151.32 987.35,-156.49"/>
<polygon fill="midnightblue" stroke="midnightblue" points="1049.78,-143.49 1058.54,-137.53 1047.98,-136.73 1049.78,-143.49"/>
</g>
<!-- Node17 -->
<g id="node17" class="node">
<title>Node17</title>
<g id="a_node17"><a xlink:href="ax25__frame__test_8cpp.html#a091d83d42783f2a0b3fd33a0521dc2ce" target="_top" xlink:title=" ">
<polygon fill="none" stroke="black" points="715.5,-88 715.5,-107 756.5,-107 756.5,-88 715.5,-88"/>
<text text-anchor="middle" x="736" y="-95" font-family="Helvetica,sans-Serif" font-size="10.00">TEST</text>
</a>
</g>
</g>
<!-- Node1&#45;&gt;Node17 -->
<g id="edge24" class="edge">
<title>Node1&#45;&gt;Node17</title>
<path fill="none" stroke="midnightblue" d="M1052.69,-105.2C1040.3,-102.42 1027.31,-99.98 1015,-98.5 918.68,-86.93 802.23,-92.91 756.64,-96.02"/>
<polygon fill="midnightblue" stroke="midnightblue" points="1051.95,-108.62 1062.48,-107.48 1053.54,-101.8 1051.95,-108.62"/>
</g>
<!-- Node18 -->
<g id="node18" class="node">
<title>Node18</title>
<g id="a_node18"><a xlink:href="classsignal__easel_1_1ax25_1_1Frame.html#a402d26a81f82bb5c477e8930b75a771e" target="_top" xlink:title=" ">
<polygon fill="none" stroke="black" points="857,-107.5 857,-137.5 1003,-137.5 1003,-107.5 857,-107.5"/>
<text text-anchor="start" x="865" y="-125.5" font-family="Helvetica,sans-Serif" font-size="10.00">signal_easel::ax25</text>
<text text-anchor="middle" x="930" y="-114.5" font-family="Helvetica,sans-Serif" font-size="10.00">::Frame::setSourceAddress</text>
</a>
</g>
</g>
<!-- Node1&#45;&gt;Node18 -->
<g id="edge20" class="edge">
<title>Node1&#45;&gt;Node18</title>
<path fill="none" stroke="midnightblue" d="M1040.62,-122.5C1028.22,-122.5 1015.38,-122.5 1003.05,-122.5"/>
<polygon fill="midnightblue" stroke="midnightblue" points="1040.9,-126 1050.9,-122.5 1040.9,-119 1040.9,-126"/>
</g>
<!-- Node3 -->
<g id="node3" class="node">
<title>Node3</title>
<g id="a_node3"><a xlink:href="classsignal__easel_1_1ax25_1_1Frame.html#a63cf2362c2a90d20f09bbbc4f24a07ba" target="_top" xlink:title="Attempt to parse an incoming bit stream into an AX.25 frame.">
<polygon fill="none" stroke="black" points="668.5,-175.5 668.5,-205.5 803.5,-205.5 803.5,-175.5 668.5,-175.5"/>
<text text-anchor="start" x="676.5" y="-193.5" font-family="Helvetica,sans-Serif" font-size="10.00">signal_easel::ax25</text>
<text text-anchor="middle" x="736" y="-182.5" font-family="Helvetica,sans-Serif" font-size="10.00">::Frame::parseBitStream</text>
</a>
</g>
</g>
<!-- Node2&#45;&gt;Node3 -->
<g id="edge2" class="edge">
<title>Node2&#45;&gt;Node3</title>
<path fill="none" stroke="midnightblue" d="M839.24,-206.48C827.28,-204.61 815.18,-202.72 803.71,-200.92"/>
<polygon fill="midnightblue" stroke="midnightblue" points="838.82,-209.95 849.24,-208.04 839.9,-203.04 838.82,-209.95"/>
</g>
<!-- Node4 -->
<g id="node4" class="node">
<title>Node4</title>
<g id="a_node4"><a xlink:href="classsignal__easel_1_1aprs_1_1Demodulator.html#ae5a8e7634c1bc8d215a0c454a9a737fa" target="_top" xlink:title=" ">
<polygon fill="none" stroke="black" points="474,-170 474,-211 627,-211 627,-170 474,-170"/>
<text text-anchor="start" x="482" y="-199" font-family="Helvetica,sans-Serif" font-size="10.00">signal_easel::aprs</text>
<text text-anchor="start" x="482" y="-188" font-family="Helvetica,sans-Serif" font-size="10.00">::Demodulator::lookForAx25</text>
<text text-anchor="middle" x="550.5" y="-177" font-family="Helvetica,sans-Serif" font-size="10.00">Packet</text>
</a>
</g>
</g>
<!-- Node3&#45;&gt;Node4 -->
<g id="edge3" class="edge">
<title>Node3&#45;&gt;Node4</title>
<path fill="none" stroke="midnightblue" d="M658.29,-190.5C647.98,-190.5 637.41,-190.5 627.11,-190.5"/>
<polygon fill="midnightblue" stroke="midnightblue" points="658.49,-194 668.49,-190.5 658.49,-187 658.49,-194"/>
</g>
<!-- Node5 -->
<g id="node5" class="node">
<title>Node5</title>
<g id="a_node5"><a xlink:href="classsignal__easel_1_1aprs_1_1Receiver.html#afbf7869aceaf2ea7ab0be8b9af16e818" target="_top" xlink:title=" ">
<polygon fill="none" stroke="black" points="309.5,-145.5 309.5,-175.5 416.5,-175.5 416.5,-145.5 309.5,-145.5"/>
<text text-anchor="start" x="317.5" y="-163.5" font-family="Helvetica,sans-Serif" font-size="10.00">signal_easel::aprs</text>
<text text-anchor="middle" x="363" y="-152.5" font-family="Helvetica,sans-Serif" font-size="10.00">::Receiver::decode</text>
</a>
</g>
</g>
<!-- Node4&#45;&gt;Node5 -->
<g id="edge4" class="edge">
<title>Node4&#45;&gt;Node5</title>
<path fill="none" stroke="midnightblue" d="M463.79,-176.64C447.66,-174.03 431.24,-171.37 416.51,-168.99"/>
<polygon fill="midnightblue" stroke="midnightblue" points="463.35,-180.11 473.78,-178.25 464.47,-173.2 463.35,-180.11"/>
</g>
<!-- Node6 -->
<g id="node6" class="node">
<title>Node6</title>
<g id="a_node6"><a xlink:href="aprs__test_8cpp.html#aea66d1824e3f1e27598adf99ac6a089a" target="_top" xlink:title=" ">
<polygon fill="none" stroke="black" points="0,-170 0,-189 41,-189 41,-170 0,-170"/>
<text text-anchor="middle" x="20.5" y="-177" font-family="Helvetica,sans-Serif" font-size="10.00">TEST</text>
</a>
</g>
</g>
<!-- Node4&#45;&gt;Node6 -->
<g id="edge5" class="edge">
<title>Node4&#45;&gt;Node6</title>
<path fill="none" stroke="midnightblue" d="M463.62,-192.09C368.87,-193.27 211.92,-193.49 77,-185.5 65.1,-184.8 51.82,-183.38 41.24,-182.11"/>
<polygon fill="midnightblue" stroke="midnightblue" points="463.77,-195.59 473.72,-191.96 463.68,-188.59 463.77,-195.59"/>
</g>
<!-- Node8 -->
<g id="node8" class="node">
<title>Node8</title>
<g id="a_node8"><a xlink:href="classsignal__easel_1_1ax25_1_1Frame.html#a24e7d5ffc6504a3380e97142d1bc084e" target="_top" xlink:title="Builds all internal portions of the frame. Doesn&#39;t include the flags.">
<polygon fill="none" stroke="black" points="679,-0.5 679,-30.5 793,-30.5 793,-0.5 679,-0.5"/>
<text text-anchor="start" x="687" y="-18.5" font-family="Helvetica,sans-Serif" font-size="10.00">signal_easel::ax25</text>
<text text-anchor="middle" x="736" y="-7.5" font-family="Helvetica,sans-Serif" font-size="10.00">::Frame::buildFrame</text>
</a>
</g>
</g>
<!-- Node7&#45;&gt;Node8 -->
<g id="edge7" class="edge">
<title>Node7&#45;&gt;Node8</title>
<path fill="none" stroke="midnightblue" d="M848.86,-26.57C830.13,-24.72 810.56,-22.78 793.13,-21.05"/>
<polygon fill="midnightblue" stroke="midnightblue" points="848.57,-30.06 858.87,-27.56 849.26,-23.09 848.57,-30.06"/>
</g>
<!-- Node14 -->
<g id="node14" class="node">
<title>Node14</title>
<g id="a_node14"><a xlink:href="ax25__address__test_8cpp.html#a1d87028368532ba4ae914da9397571d3" target="_top" xlink:title=" ">
<polygon fill="none" stroke="black" points="715.5,-50 715.5,-69 756.5,-69 756.5,-50 715.5,-50"/>
<text text-anchor="middle" x="736" y="-57" font-family="Helvetica,sans-Serif" font-size="10.00">TEST</text>
</a>
</g>
</g>
<!-- Node7&#45;&gt;Node14 -->
<g id="edge14" class="edge">
<title>Node7&#45;&gt;Node14</title>
<path fill="none" stroke="midnightblue" d="M848.94,-44.92C815.08,-49.33 778.5,-54.1 756.69,-56.94"/>
<polygon fill="midnightblue" stroke="midnightblue" points="849.4,-48.39 858.87,-43.63 848.5,-41.45 849.4,-48.39"/>
</g>
<!-- Node9 -->
<g id="node9" class="node">
<title>Node9</title>
<g id="a_node9"><a xlink:href="classsignal__easel_1_1ax25_1_1Frame.html#a2b4f6ebcb7592a7e5a21114c8fafa503" target="_top" xlink:title="A step beyond buildFrame. This function builds the frame, does the bit stuffing, adds the flags,...">
<polygon fill="none" stroke="black" points="488,-27.5 488,-57.5 613,-57.5 613,-27.5 488,-27.5"/>
<text text-anchor="start" x="496" y="-45.5" font-family="Helvetica,sans-Serif" font-size="10.00">signal_easel::ax25</text>
<text text-anchor="middle" x="550.5" y="-34.5" font-family="Helvetica,sans-Serif" font-size="10.00">::Frame::encodeFrame</text>
</a>
</g>
</g>
<!-- Node8&#45;&gt;Node9 -->
<g id="edge8" class="edge">
<title>Node8&#45;&gt;Node9</title>
<path fill="none" stroke="midnightblue" d="M669.02,-25.21C650.85,-27.88 631.21,-30.77 613.29,-33.41"/>
<polygon fill="midnightblue" stroke="midnightblue" points="669.56,-28.67 678.95,-23.75 668.54,-21.74 669.56,-28.67"/>
</g>
<!-- Node10 -->
<g id="node10" class="node">
<title>Node10</title>
<g id="a_node10"><a xlink:href="namespacesignal__easel.html#aad3ffdd47a4a03ed438e8c1ca9eef231" target="_top" xlink:title=" ">
<polygon fill="none" stroke="black" points="288,-91 288,-110 438,-110 438,-91 288,-91"/>
<text text-anchor="middle" x="363" y="-98" font-family="Helvetica,sans-Serif" font-size="10.00">signal_easel::encodePacket</text>
</a>
</g>
</g>
<!-- Node9&#45;&gt;Node10 -->
<g id="edge9" class="edge">
<title>Node9&#45;&gt;Node10</title>
<path fill="none" stroke="midnightblue" d="M491.52,-60.63C459.42,-70.66 420.84,-82.73 394.58,-90.94"/>
<polygon fill="midnightblue" stroke="midnightblue" points="492.75,-63.91 501.25,-57.59 490.66,-57.23 492.75,-63.91"/>
</g>
<!-- Node11 -->
<g id="node11" class="node">
<title>Node11</title>
<g id="a_node11"><a xlink:href="classsignal__easel_1_1aprs_1_1Modulator.html#adfa8809d1c11321b9ff2c7efe7f58499" target="_top" xlink:title=" ">
<polygon fill="none" stroke="black" points="77,-85.5 77,-115.5 252,-115.5 252,-85.5 77,-85.5"/>
<text text-anchor="start" x="85" y="-103.5" font-family="Helvetica,sans-Serif" font-size="10.00">signal_easel::aprs</text>
<text text-anchor="middle" x="164.5" y="-92.5" font-family="Helvetica,sans-Serif" font-size="10.00">::Modulator::encodeMessageAck</text>
</a>
</g>
</g>
<!-- Node10&#45;&gt;Node11 -->
<g id="edge10" class="edge">
<title>Node10&#45;&gt;Node11</title>
<path fill="none" stroke="midnightblue" d="M277.79,-100.5C269.36,-100.5 260.79,-100.5 252.33,-100.5"/>
<polygon fill="midnightblue" stroke="midnightblue" points="277.99,-104 287.99,-100.5 277.99,-97 277.99,-104"/>
</g>
<!-- Node12 -->
<g id="node12" class="node">
<title>Node12</title>
<g id="a_node12"><a xlink:href="classsignal__easel_1_1aprs_1_1Modulator.html#a147321b48c2e282c62863f114702e54f" target="_top" xlink:title=" ">
<polygon fill="none" stroke="black" points="86,-135 86,-176 243,-176 243,-135 86,-135"/>
<text text-anchor="start" x="94" y="-164" font-family="Helvetica,sans-Serif" font-size="10.00">signal_easel::aprs</text>
<text text-anchor="start" x="94" y="-153" font-family="Helvetica,sans-Serif" font-size="10.00">::Modulator::encodeMessage</text>
<text text-anchor="middle" x="164.5" y="-142" font-family="Helvetica,sans-Serif" font-size="10.00">Packet</text>
</a>
</g>
</g>
<!-- Node10&#45;&gt;Node12 -->
<g id="edge11" class="edge">
<title>Node10&#45;&gt;Node12</title>
<path fill="none" stroke="midnightblue" d="M317.85,-112.86C294.56,-119.38 265.37,-127.55 238.8,-134.98"/>
<polygon fill="midnightblue" stroke="midnightblue" points="319.09,-116.15 327.77,-110.08 317.2,-109.41 319.09,-116.15"/>
</g>
<!-- Node13 -->
<g id="node13" class="node">
<title>Node13</title>
<g id="a_node13"><a xlink:href="classsignal__easel_1_1aprs_1_1Modulator.html#a943e392227656943d7db842e1889d805" target="_top" xlink:title=" ">
<polygon fill="none" stroke="black" points="88.5,-25 88.5,-66 240.5,-66 240.5,-25 88.5,-25"/>
<text text-anchor="start" x="96.5" y="-54" font-family="Helvetica,sans-Serif" font-size="10.00">signal_easel::aprs</text>
<text text-anchor="start" x="96.5" y="-43" font-family="Helvetica,sans-Serif" font-size="10.00">::Modulator::encodePosition</text>
<text text-anchor="middle" x="164.5" y="-32" font-family="Helvetica,sans-Serif" font-size="10.00">Packet</text>
</a>
</g>
</g>
<!-- Node10&#45;&gt;Node13 -->
<g id="edge13" class="edge">
<title>Node10&#45;&gt;Node13</title>
<path fill="none" stroke="midnightblue" d="M317.85,-88.14C294.56,-81.62 265.37,-73.45 238.8,-66.02"/>
<polygon fill="midnightblue" stroke="midnightblue" points="317.2,-91.59 327.77,-90.92 319.09,-84.85 317.2,-91.59"/>
</g>
<!-- Node12&#45;&gt;Node6 -->
<g id="edge12" class="edge">
<title>Node12&#45;&gt;Node6</title>
<path fill="none" stroke="midnightblue" d="M75.84,-170.32C62.91,-172.5 50.76,-174.55 41.24,-176.16"/>
<polygon fill="midnightblue" stroke="midnightblue" points="76.58,-173.74 85.85,-168.62 75.41,-166.84 76.58,-173.74"/>
</g>
<!-- Node15&#45;&gt;Node3 -->
<g id="edge18" class="edge">
<title>Node15&#45;&gt;Node3</title>
<path fill="none" stroke="midnightblue" d="M834.72,-180.83C824.19,-181.87 813.63,-182.92 803.55,-183.91"/>
<polygon fill="midnightblue" stroke="midnightblue" points="835.18,-184.3 844.79,-179.83 834.49,-177.34 835.18,-184.3"/>
</g>
<!-- Node16 -->
<g id="node16" class="node">
<title>Node16</title>
<g id="a_node16"><a xlink:href="namespacesignal__easel.html#ada24f00bb5d1a1bb97976967185c7526" target="_top" xlink:title=" ">
<polygon fill="none" stroke="black" points="663,-126.5 663,-156.5 809,-156.5 809,-126.5 663,-126.5"/>
<text text-anchor="start" x="671" y="-144.5" font-family="Helvetica,sans-Serif" font-size="10.00">signal_easel::AddRequired</text>
<text text-anchor="middle" x="736" y="-133.5" font-family="Helvetica,sans-Serif" font-size="10.00">Fields</text>
</a>
</g>
</g>
<!-- Node15&#45;&gt;Node16 -->
<g id="edge16" class="edge">
<title>Node15&#45;&gt;Node16</title>
<path fill="none" stroke="midnightblue" d="M834.71,-156.77C826.11,-155.42 817.49,-154.08 809.13,-152.77"/>
<polygon fill="midnightblue" stroke="midnightblue" points="834.37,-160.26 844.79,-158.34 835.45,-153.34 834.37,-160.26"/>
</g>
<!-- Node15&#45;&gt;Node17 -->
<g id="edge19" class="edge">
<title>Node15&#45;&gt;Node17</title>
<path fill="none" stroke="midnightblue" d="M855.97,-152.7C852.2,-151.09 848.52,-149.36 845,-147.5 826.59,-137.76 827.45,-127.17 809,-117.5 792.45,-108.83 771.74,-103.58 756.78,-100.65"/>
<polygon fill="midnightblue" stroke="midnightblue" points="854.91,-156.05 865.5,-156.46 857.48,-149.53 854.91,-156.05"/>
</g>
<!-- Node16&#45;&gt;Node10 -->
<g id="edge17" class="edge">
<title>Node16&#45;&gt;Node10</title>
<path fill="none" stroke="midnightblue" d="M652.5,-132.38C588.33,-125.29 500.08,-115.54 438.14,-108.69"/>
<polygon fill="midnightblue" stroke="midnightblue" points="652.26,-135.88 662.59,-133.5 653.03,-128.92 652.26,-135.88"/>
</g>
<!-- Node18&#45;&gt;Node3 -->
<g id="edge22" class="edge">
<title>Node18&#45;&gt;Node3</title>
<path fill="none" stroke="midnightblue" d="M863.15,-140.74C856.96,-142.86 850.82,-145.12 845,-147.5 828.25,-154.34 825.64,-159.39 809,-166.5 801.61,-169.66 793.65,-172.67 785.82,-175.43"/>
<polygon fill="midnightblue" stroke="midnightblue" points="864.49,-143.98 872.89,-137.53 862.3,-137.34 864.49,-143.98"/>
</g>
<!-- Node18&#45;&gt;Node16 -->
<g id="edge21" class="edge">
<title>Node18&#45;&gt;Node16</title>
<path fill="none" stroke="midnightblue" d="M846.96,-130.62C834.38,-131.86 821.47,-133.14 809.12,-134.36"/>
<polygon fill="midnightblue" stroke="midnightblue" points="847.35,-134.1 856.96,-129.63 846.66,-127.13 847.35,-134.1"/>
</g>
<!-- Node18&#45;&gt;Node17 -->
<g id="edge23" class="edge">
<title>Node18&#45;&gt;Node17</title>
<path fill="none" stroke="midnightblue" d="M846.74,-111.79C813.5,-107.46 778.03,-102.84 756.69,-100.06"/>
<polygon fill="midnightblue" stroke="midnightblue" points="846.59,-115.3 856.96,-113.12 847.5,-108.36 846.59,-115.3"/>
</g>
</g>
</svg>
