<?xml version="1.0" encoding="UTF-8" standalone="no"?>
<!DOCTYPE svg PUBLIC "-//W3C//DTD SVG 1.1//EN"
 "http://www.w3.org/Graphics/SVG/1.1/DTD/svg11.dtd">
<!-- Generated by graphviz version 2.43.0 (0)
 -->
<!-- Title: signal_easel::ax25::Address::isSsidValid Pages: 1 -->
<svg width="1415pt" height="362pt"
 viewBox="0.00 0.00 1415.00 361.50" xmlns="http://www.w3.org/2000/svg" xmlns:xlink="http://www.w3.org/1999/xlink">
<g id="graph0" class="graph" transform="scale(1 1) rotate(0) translate(4 357.5)">
<title>signal_easel::ax25::Address::isSsidValid</title>
<!-- Node1 -->
<g id="node1" class="node">
<title>Node1</title>
<g id="a_node1"><a xlink:title=" ">
<polygon fill="#bfbfbf" stroke="black" points="1287,-132 1287,-162 1407,-162 1407,-132 1287,-132"/>
<text text-anchor="start" x="1295" y="-150" font-family="Helvetica,sans-Serif" font-size="10.00">signal_easel::ax25</text>
<text text-anchor="middle" x="1347" y="-139" font-family="Helvetica,sans-Serif" font-size="10.00">::Address::isSsidValid</text>
</a>
</g>
</g>
<!-- Node2 -->
<g id="node2" class="node">
<title>Node2</title>
<g id="a_node2"><a xlink:href="classsignal__easel_1_1ax25_1_1Address.html#a8b44c6e311d3462bd86eda03c1d384f0" target="_top" xlink:title=" ">
<polygon fill="none" stroke="black" points="1101,-176 1101,-206 1251,-206 1251,-176 1101,-176"/>
<text text-anchor="start" x="1109" y="-194" font-family="Helvetica,sans-Serif" font-size="10.00">signal_easel::ax25</text>
<text text-anchor="middle" x="1176" y="-183" font-family="Helvetica,sans-Serif" font-size="10.00">::Address::assertSsidIsValid</text>
</a>
</g>
</g>
<!-- Node1&#45;&gt;Node2 -->
<g id="edge1" class="edge">
<title>Node1&#45;&gt;Node2</title>
<path fill="none" stroke="midnightblue" d="M1278.42,-164.59C1263.95,-168.36 1248.78,-172.31 1234.71,-175.97"/>
<polygon fill="midnightblue" stroke="midnightblue" points="1279.52,-167.93 1288.31,-162.02 1277.75,-161.15 1279.52,-167.93"/>
</g>
<!-- Node21 -->
<g id="node21" class="node">
<title>Node21</title>
<g id="a_node21"><a xlink:href="classsignal__easel_1_1ax25_1_1Address.html#aae81920cfd0dc7d89cb107f9d825488c" target="_top" xlink:title="If the address is valid (can be encoded correctly or was decoded)">
<polygon fill="none" stroke="black" points="946.5,-88 946.5,-118 1053.5,-118 1053.5,-88 946.5,-88"/>
<text text-anchor="start" x="954.5" y="-106" font-family="Helvetica,sans-Serif" font-size="10.00">signal_easel::ax25</text>
<text text-anchor="middle" x="1000" y="-95" font-family="Helvetica,sans-Serif" font-size="10.00">::Address::isValid</text>
</a>
</g>
</g>
<!-- Node1&#45;&gt;Node21 -->
<g id="edge27" class="edge">
<title>Node1&#45;&gt;Node21</title>
<path fill="none" stroke="midnightblue" d="M1276.41,-138.12C1210.57,-129.73 1113.2,-117.31 1053.61,-109.71"/>
<polygon fill="midnightblue" stroke="midnightblue" points="1276.33,-141.64 1286.69,-139.44 1277.22,-134.7 1276.33,-141.64"/>
</g>
<!-- Node3 -->
<g id="node3" class="node">
<title>Node3</title>
<g id="a_node3"><a xlink:href="classsignal__easel_1_1ax25_1_1Address.html#a7fa6b0ef4241413893f201660991e4ea" target="_top" xlink:title="Checks if the address is valid, if not throws an exception with a specific error code.">
<polygon fill="none" stroke="black" points="935,-176 935,-206 1065,-206 1065,-176 935,-176"/>
<text text-anchor="start" x="943" y="-194" font-family="Helvetica,sans-Serif" font-size="10.00">signal_easel::ax25</text>
<text text-anchor="middle" x="1000" y="-183" font-family="Helvetica,sans-Serif" font-size="10.00">::Address::assertIsValid</text>
</a>
</g>
</g>
<!-- Node2&#45;&gt;Node3 -->
<g id="edge2" class="edge">
<title>Node2&#45;&gt;Node3</title>
<path fill="none" stroke="midnightblue" d="M1090.83,-191C1082.17,-191 1073.48,-191 1065.09,-191"/>
<polygon fill="midnightblue" stroke="midnightblue" points="1090.96,-194.5 1100.96,-191 1090.96,-187.5 1090.96,-194.5"/>
</g>
<!-- Node19 -->
<g id="node19" class="node">
<title>Node19</title>
<g id="a_node19"><a xlink:href="classsignal__easel_1_1ax25_1_1Address.html#a069a8d96c0d74e4a3288876c429c7187" target="_top" xlink:title="Set the SSID (0&#45;15)">
<polygon fill="none" stroke="black" points="946.5,-274 946.5,-304 1053.5,-304 1053.5,-274 946.5,-274"/>
<text text-anchor="start" x="954.5" y="-292" font-family="Helvetica,sans-Serif" font-size="10.00">signal_easel::ax25</text>
<text text-anchor="middle" x="1000" y="-281" font-family="Helvetica,sans-Serif" font-size="10.00">::Address::setSsid</text>
</a>
</g>
</g>
<!-- Node2&#45;&gt;Node19 -->
<g id="edge25" class="edge">
<title>Node2&#45;&gt;Node19</title>
<path fill="none" stroke="midnightblue" d="M1139.3,-211.11C1106.22,-229.74 1057.74,-257.04 1027.84,-273.89"/>
<polygon fill="midnightblue" stroke="midnightblue" points="1141.2,-214.05 1148.19,-206.1 1137.76,-207.96 1141.2,-214.05"/>
</g>
<!-- Node4 -->
<g id="node4" class="node">
<title>Node4</title>
<g id="a_node4"><a xlink:href="classsignal__easel_1_1ax25_1_1Frame.html#af86d4b534367a8faf6b628301c9ffceb" target="_top" xlink:title=" ">
<polygon fill="none" stroke="black" points="733.5,-274 733.5,-304 894.5,-304 894.5,-274 733.5,-274"/>
<text text-anchor="start" x="741.5" y="-292" font-family="Helvetica,sans-Serif" font-size="10.00">signal_easel::ax25</text>
<text text-anchor="middle" x="814" y="-281" font-family="Helvetica,sans-Serif" font-size="10.00">::Frame::addRepeaterAddress</text>
</a>
</g>
</g>
<!-- Node3&#45;&gt;Node4 -->
<g id="edge3" class="edge">
<title>Node3&#45;&gt;Node4</title>
<path fill="none" stroke="midnightblue" d="M974.85,-212.78C955.54,-229.18 927.14,-251.14 899,-265 892.2,-268.35 884.85,-271.31 877.42,-273.9"/>
<polygon fill="midnightblue" stroke="midnightblue" points="977.26,-215.32 982.54,-206.13 972.68,-210.03 977.26,-215.32"/>
</g>
<!-- Node9 -->
<g id="node9" class="node">
<title>Node9</title>
<g id="a_node9"><a xlink:href="classsignal__easel_1_1ax25_1_1Address.html#a0c31737081a9184b56dc32150b23cb0a" target="_top" xlink:title="Get the address as a byte array.">
<polygon fill="none" stroke="black" points="743,-39 743,-69 885,-69 885,-39 743,-39"/>
<text text-anchor="start" x="751" y="-57" font-family="Helvetica,sans-Serif" font-size="10.00">signal_easel::ax25</text>
<text text-anchor="middle" x="814" y="-46" font-family="Helvetica,sans-Serif" font-size="10.00">::Address::encodeAddress</text>
</a>
</g>
</g>
<!-- Node3&#45;&gt;Node9 -->
<g id="edge8" class="edge">
<title>Node3&#45;&gt;Node9</title>
<path fill="none" stroke="midnightblue" d="M975.19,-168.87C962.75,-156.9 947.55,-141.61 935,-127 917.4,-106.5 921.18,-93.43 899,-78 894.02,-74.54 888.54,-71.57 882.85,-69.03"/>
<polygon fill="midnightblue" stroke="midnightblue" points="972.87,-171.5 982.53,-175.86 977.7,-166.43 972.87,-171.5"/>
</g>
<!-- Node15 -->
<g id="node15" class="node">
<title>Node15</title>
<g id="a_node15"><a xlink:href="classsignal__easel_1_1ax25_1_1Frame.html#a57b163ece54317da8d95f3b18b47c23d" target="_top" xlink:title="setters/getters for the frame.">
<polygon fill="none" stroke="black" points="729,-176 729,-206 899,-206 899,-176 729,-176"/>
<text text-anchor="start" x="737" y="-194" font-family="Helvetica,sans-Serif" font-size="10.00">signal_easel::ax25</text>
<text text-anchor="middle" x="814" y="-183" font-family="Helvetica,sans-Serif" font-size="10.00">::Frame::setDestinationAddress</text>
</a>
</g>
</g>
<!-- Node3&#45;&gt;Node15 -->
<g id="edge15" class="edge">
<title>Node3&#45;&gt;Node15</title>
<path fill="none" stroke="midnightblue" d="M924.78,-191C916.38,-191 907.77,-191 899.26,-191"/>
<polygon fill="midnightblue" stroke="midnightblue" points="924.9,-194.5 934.9,-191 924.9,-187.5 924.9,-194.5"/>
</g>
<!-- Node17 -->
<g id="node17" class="node">
<title>Node17</title>
<g id="a_node17"><a xlink:href="ax25__frame__test_8cpp.html#a091d83d42783f2a0b3fd33a0521dc2ce" target="_top" xlink:title=" ">
<polygon fill="none" stroke="black" points="605,-137.5 605,-156.5 646,-156.5 646,-137.5 605,-137.5"/>
<text text-anchor="middle" x="625.5" y="-144.5" font-family="Helvetica,sans-Serif" font-size="10.00">TEST</text>
</a>
</g>
</g>
<!-- Node3&#45;&gt;Node17 -->
<g id="edge24" class="edge">
<title>Node3&#45;&gt;Node17</title>
<path fill="none" stroke="midnightblue" d="M936.42,-173.57C924.1,-170.65 911.2,-167.94 899,-166 805.09,-151.11 691.13,-147.89 646.13,-147.19"/>
<polygon fill="midnightblue" stroke="midnightblue" points="935.62,-176.98 946.16,-175.95 937.28,-170.18 935.62,-176.98"/>
</g>
<!-- Node18 -->
<g id="node18" class="node">
<title>Node18</title>
<g id="a_node18"><a xlink:href="classsignal__easel_1_1ax25_1_1Frame.html#a402d26a81f82bb5c477e8930b75a771e" target="_top" xlink:title=" ">
<polygon fill="none" stroke="black" points="741,-225 741,-255 887,-255 887,-225 741,-225"/>
<text text-anchor="start" x="749" y="-243" font-family="Helvetica,sans-Serif" font-size="10.00">signal_easel::ax25</text>
<text text-anchor="middle" x="814" y="-232" font-family="Helvetica,sans-Serif" font-size="10.00">::Frame::setSourceAddress</text>
</a>
</g>
</g>
<!-- Node3&#45;&gt;Node18 -->
<g id="edge20" class="edge">
<title>Node3&#45;&gt;Node18</title>
<path fill="none" stroke="midnightblue" d="M932.82,-208.62C912.69,-213.98 890.77,-219.82 871.35,-224.99"/>
<polygon fill="midnightblue" stroke="midnightblue" points="933.78,-211.99 942.54,-206.03 931.98,-205.23 933.78,-211.99"/>
</g>
<!-- Node5 -->
<g id="node5" class="node">
<title>Node5</title>
<g id="a_node5"><a xlink:href="classsignal__easel_1_1ax25_1_1Frame.html#a63cf2362c2a90d20f09bbbc4f24a07ba" target="_top" xlink:title="Attempt to parse an incoming bit stream into an AX.25 frame.">
<polygon fill="none" stroke="black" points="558,-225 558,-255 693,-255 693,-225 558,-225"/>
<text text-anchor="start" x="566" y="-243" font-family="Helvetica,sans-Serif" font-size="10.00">signal_easel::ax25</text>
<text text-anchor="middle" x="625.5" y="-232" font-family="Helvetica,sans-Serif" font-size="10.00">::Frame::parseBitStream</text>
</a>
</g>
</g>
<!-- Node4&#45;&gt;Node5 -->
<g id="edge4" class="edge">
<title>Node4&#45;&gt;Node5</title>
<path fill="none" stroke="midnightblue" d="M745.93,-271.38C725.52,-266.02 703.3,-260.18 683.62,-255.01"/>
<polygon fill="midnightblue" stroke="midnightblue" points="745.22,-274.81 755.78,-273.97 746.99,-268.04 745.22,-274.81"/>
</g>
<!-- Node6 -->
<g id="node6" class="node">
<title>Node6</title>
<g id="a_node6"><a xlink:href="classsignal__easel_1_1aprs_1_1Demodulator.html#ae5a8e7634c1bc8d215a0c454a9a737fa" target="_top" xlink:title=" ">
<polygon fill="none" stroke="black" points="369,-219.5 369,-260.5 522,-260.5 522,-219.5 369,-219.5"/>
<text text-anchor="start" x="377" y="-248.5" font-family="Helvetica,sans-Serif" font-size="10.00">signal_easel::aprs</text>
<text text-anchor="start" x="377" y="-237.5" font-family="Helvetica,sans-Serif" font-size="10.00">::Demodulator::lookForAx25</text>
<text text-anchor="middle" x="445.5" y="-226.5" font-family="Helvetica,sans-Serif" font-size="10.00">Packet</text>
</a>
</g>
</g>
<!-- Node5&#45;&gt;Node6 -->
<g id="edge5" class="edge">
<title>Node5&#45;&gt;Node6</title>
<path fill="none" stroke="midnightblue" d="M547.74,-240C539.29,-240 530.68,-240 522.23,-240"/>
<polygon fill="midnightblue" stroke="midnightblue" points="547.97,-243.5 557.97,-240 547.97,-236.5 547.97,-243.5"/>
</g>
<!-- Node7 -->
<g id="node7" class="node">
<title>Node7</title>
<g id="a_node7"><a xlink:href="classsignal__easel_1_1aprs_1_1Receiver.html#afbf7869aceaf2ea7ab0be8b9af16e818" target="_top" xlink:title=" ">
<polygon fill="none" stroke="black" points="226,-187 226,-217 333,-217 333,-187 226,-187"/>
<text text-anchor="start" x="234" y="-205" font-family="Helvetica,sans-Serif" font-size="10.00">signal_easel::aprs</text>
<text text-anchor="middle" x="279.5" y="-194" font-family="Helvetica,sans-Serif" font-size="10.00">::Receiver::decode</text>
</a>
</g>
</g>
<!-- Node6&#45;&gt;Node7 -->
<g id="edge6" class="edge">
<title>Node6&#45;&gt;Node7</title>
<path fill="none" stroke="midnightblue" d="M358.95,-220.18C350.27,-218.17 341.65,-216.17 333.47,-214.27"/>
<polygon fill="midnightblue" stroke="midnightblue" points="358.21,-223.6 368.74,-222.45 359.79,-216.78 358.21,-223.6"/>
</g>
<!-- Node8 -->
<g id="node8" class="node">
<title>Node8</title>
<g id="a_node8"><a xlink:href="aprs__test_8cpp.html#aea66d1824e3f1e27598adf99ac6a089a" target="_top" xlink:title=" ">
<polygon fill="none" stroke="black" points="0,-190.5 0,-209.5 41,-209.5 41,-190.5 0,-190.5"/>
<text text-anchor="middle" x="20.5" y="-197.5" font-family="Helvetica,sans-Serif" font-size="10.00">TEST</text>
</a>
</g>
</g>
<!-- Node6&#45;&gt;Node8 -->
<g id="edge7" class="edge">
<title>Node6&#45;&gt;Node8</title>
<path fill="none" stroke="midnightblue" d="M358.74,-236.32C318.41,-234.23 269.68,-231.18 226,-227 157.91,-220.49 77.59,-208.66 41.19,-203.08"/>
<polygon fill="midnightblue" stroke="midnightblue" points="358.64,-239.82 368.81,-236.84 359,-232.83 358.64,-239.82"/>
</g>
<!-- Node10 -->
<g id="node10" class="node">
<title>Node10</title>
<g id="a_node10"><a xlink:href="classsignal__easel_1_1ax25_1_1Frame.html#a24e7d5ffc6504a3380e97142d1bc084e" target="_top" xlink:title="Builds all internal portions of the frame. Doesn&#39;t include the flags.">
<polygon fill="none" stroke="black" points="568.5,-88 568.5,-118 682.5,-118 682.5,-88 568.5,-88"/>
<text text-anchor="start" x="576.5" y="-106" font-family="Helvetica,sans-Serif" font-size="10.00">signal_easel::ax25</text>
<text text-anchor="middle" x="625.5" y="-95" font-family="Helvetica,sans-Serif" font-size="10.00">::Frame::buildFrame</text>
</a>
</g>
</g>
<!-- Node9&#45;&gt;Node10 -->
<g id="edge9" class="edge">
<title>Node9&#45;&gt;Node10</title>
<path fill="none" stroke="midnightblue" d="M746.07,-71.59C725.29,-77.04 702.62,-83 682.65,-88.25"/>
<polygon fill="midnightblue" stroke="midnightblue" points="746.99,-74.96 755.78,-69.03 745.22,-68.19 746.99,-74.96"/>
</g>
<!-- Node14 -->
<g id="node14" class="node">
<title>Node14</title>
<g id="a_node14"><a xlink:href="ax25__address__test_8cpp.html#a1d87028368532ba4ae914da9397571d3" target="_top" xlink:title=" ">
<polygon fill="none" stroke="black" points="605,-44.5 605,-63.5 646,-63.5 646,-44.5 605,-44.5"/>
<text text-anchor="middle" x="625.5" y="-51.5" font-family="Helvetica,sans-Serif" font-size="10.00">TEST</text>
</a>
</g>
</g>
<!-- Node9&#45;&gt;Node14 -->
<g id="edge14" class="edge">
<title>Node9&#45;&gt;Node14</title>
<path fill="none" stroke="midnightblue" d="M732.55,-54C700.81,-54 667.07,-54 646.38,-54"/>
<polygon fill="midnightblue" stroke="midnightblue" points="732.76,-57.5 742.76,-54 732.76,-50.5 732.76,-57.5"/>
</g>
<!-- Node11 -->
<g id="node11" class="node">
<title>Node11</title>
<g id="a_node11"><a xlink:href="classsignal__easel_1_1ax25_1_1Frame.html#a2b4f6ebcb7592a7e5a21114c8fafa503" target="_top" xlink:title="A step beyond buildFrame. This function builds the frame, does the bit stuffing, adds the flags,...">
<polygon fill="none" stroke="black" points="383,-116 383,-146 508,-146 508,-116 383,-116"/>
<text text-anchor="start" x="391" y="-134" font-family="Helvetica,sans-Serif" font-size="10.00">signal_easel::ax25</text>
<text text-anchor="middle" x="445.5" y="-123" font-family="Helvetica,sans-Serif" font-size="10.00">::Frame::encodeFrame</text>
</a>
</g>
</g>
<!-- Node10&#45;&gt;Node11 -->
<g id="edge10" class="edge">
<title>Node10&#45;&gt;Node11</title>
<path fill="none" stroke="midnightblue" d="M558.12,-113.44C541.7,-116.02 524.18,-118.78 508.01,-121.32"/>
<polygon fill="midnightblue" stroke="midnightblue" points="558.85,-116.87 568.18,-111.86 557.76,-109.96 558.85,-116.87"/>
</g>
<!-- Node12 -->
<g id="node12" class="node">
<title>Node12</title>
<g id="a_node12"><a xlink:href="namespacesignal__easel_1_1aprs.html#a77481001a5b78a839972bb4220b43e4d" target="_top" xlink:title="The base function to encode an APRS packet with the provided base data and info field.">
<polygon fill="none" stroke="black" points="227.5,-138 227.5,-168 331.5,-168 331.5,-138 227.5,-138"/>
<text text-anchor="start" x="235.5" y="-156" font-family="Helvetica,sans-Serif" font-size="10.00">signal_easel::aprs</text>
<text text-anchor="middle" x="279.5" y="-145" font-family="Helvetica,sans-Serif" font-size="10.00">::encodePacket</text>
</a>
</g>
</g>
<!-- Node11&#45;&gt;Node12 -->
<g id="edge11" class="edge">
<title>Node11&#45;&gt;Node12</title>
<path fill="none" stroke="midnightblue" d="M372.94,-140.6C359.04,-142.46 344.74,-144.38 331.66,-146.14"/>
<polygon fill="midnightblue" stroke="midnightblue" points="373.52,-144.05 382.97,-139.25 372.59,-137.12 373.52,-144.05"/>
</g>
<!-- Node13 -->
<g id="node13" class="node">
<title>Node13</title>
<g id="a_node13"><a xlink:href="classsignal__easel_1_1aprs_1_1Modulator.html#a8ae067701382dec1680b786583ace687" target="_top" xlink:title=" ">
<polygon fill="none" stroke="black" points="77,-163 77,-193 190,-193 190,-163 77,-163"/>
<text text-anchor="start" x="85" y="-181" font-family="Helvetica,sans-Serif" font-size="10.00">signal_easel::aprs</text>
<text text-anchor="middle" x="133.5" y="-170" font-family="Helvetica,sans-Serif" font-size="10.00">::Modulator::encode</text>
</a>
</g>
</g>
<!-- Node12&#45;&gt;Node13 -->
<g id="edge12" class="edge">
<title>Node12&#45;&gt;Node13</title>
<path fill="none" stroke="midnightblue" d="M217.35,-163.62C208.41,-165.17 199.23,-166.76 190.4,-168.3"/>
<polygon fill="midnightblue" stroke="midnightblue" points="218.07,-167.04 227.33,-161.88 216.87,-160.15 218.07,-167.04"/>
</g>
<!-- Node13&#45;&gt;Node8 -->
<g id="edge13" class="edge">
<title>Node13&#45;&gt;Node8</title>
<path fill="none" stroke="midnightblue" d="M66.58,-191.07C57.37,-192.89 48.56,-194.64 41.21,-196.09"/>
<polygon fill="midnightblue" stroke="midnightblue" points="67.55,-194.44 76.67,-189.06 66.19,-187.58 67.55,-194.44"/>
</g>
<!-- Node15&#45;&gt;Node5 -->
<g id="edge18" class="edge">
<title>Node15&#45;&gt;Node5</title>
<path fill="none" stroke="midnightblue" d="M745.93,-208.62C725.52,-213.98 703.3,-219.82 683.62,-224.99"/>
<polygon fill="midnightblue" stroke="midnightblue" points="746.99,-211.96 755.78,-206.03 745.22,-205.19 746.99,-211.96"/>
</g>
<!-- Node16 -->
<g id="node16" class="node">
<title>Node16</title>
<g id="a_node16"><a xlink:href="namespacesignal__easel_1_1aprs.html#a586b022fa0c917fa8557bbd5cdc6aeeb" target="_top" xlink:title=" ">
<polygon fill="none" stroke="black" points="569,-176 569,-206 682,-206 682,-176 569,-176"/>
<text text-anchor="start" x="577" y="-194" font-family="Helvetica,sans-Serif" font-size="10.00">signal_easel::aprs</text>
<text text-anchor="middle" x="625.5" y="-183" font-family="Helvetica,sans-Serif" font-size="10.00">::AddRequiredFields</text>
</a>
</g>
</g>
<!-- Node15&#45;&gt;Node16 -->
<g id="edge16" class="edge">
<title>Node15&#45;&gt;Node16</title>
<path fill="none" stroke="midnightblue" d="M718.71,-191C706.16,-191 693.64,-191 682.06,-191"/>
<polygon fill="midnightblue" stroke="midnightblue" points="718.75,-194.5 728.75,-191 718.75,-187.5 718.75,-194.5"/>
</g>
<!-- Node15&#45;&gt;Node17 -->
<g id="edge19" class="edge">
<title>Node15&#45;&gt;Node17</title>
<path fill="none" stroke="midnightblue" d="M739.47,-173.65C705.73,-165.69 668.38,-156.88 646.2,-151.65"/>
<polygon fill="midnightblue" stroke="midnightblue" points="738.8,-177.09 749.34,-175.98 740.41,-170.28 738.8,-177.09"/>
</g>
<!-- Node16&#45;&gt;Node12 -->
<g id="edge17" class="edge">
<title>Node16&#45;&gt;Node12</title>
<path fill="none" stroke="midnightblue" d="M558.54,-183.71C492.38,-176.41 391.9,-165.31 331.58,-158.64"/>
<polygon fill="midnightblue" stroke="midnightblue" points="558.52,-187.23 568.85,-184.85 559.29,-180.28 558.52,-187.23"/>
</g>
<!-- Node18&#45;&gt;Node5 -->
<g id="edge22" class="edge">
<title>Node18&#45;&gt;Node5</title>
<path fill="none" stroke="midnightblue" d="M730.88,-240C718.29,-240 705.42,-240 693.22,-240"/>
<polygon fill="midnightblue" stroke="midnightblue" points="730.89,-243.5 740.89,-240 730.89,-236.5 730.89,-243.5"/>
</g>
<!-- Node18&#45;&gt;Node16 -->
<g id="edge21" class="edge">
<title>Node18&#45;&gt;Node16</title>
<path fill="none" stroke="midnightblue" d="M745.98,-222.39C725,-216.88 702.1,-210.86 682.02,-205.59"/>
<polygon fill="midnightblue" stroke="midnightblue" points="745.22,-225.81 755.78,-224.97 746.99,-219.04 745.22,-225.81"/>
</g>
<!-- Node18&#45;&gt;Node17 -->
<g id="edge23" class="edge">
<title>Node18&#45;&gt;Node17</title>
<path fill="none" stroke="midnightblue" d="M735.6,-220.19C733.33,-218.88 731.12,-217.49 729,-216 706.6,-200.26 715.4,-181.74 693,-166 679.05,-156.2 660.11,-151.42 646.02,-149.12"/>
<polygon fill="midnightblue" stroke="midnightblue" points="734.19,-223.4 744.69,-224.83 737.37,-217.17 734.19,-223.4"/>
</g>
<!-- Node20 -->
<g id="node20" class="node">
<title>Node20</title>
<g id="a_node20"><a xlink:href="classsignal__easel_1_1ax25_1_1Address.html#af2e2c1061b619a32d966d4b08eed7ede" target="_top" xlink:title=" ">
<polygon fill="none" stroke="black" points="760.5,-323 760.5,-353 867.5,-353 867.5,-323 760.5,-323"/>
<text text-anchor="start" x="768.5" y="-341" font-family="Helvetica,sans-Serif" font-size="10.00">signal_easel::ax25</text>
<text text-anchor="middle" x="814" y="-330" font-family="Helvetica,sans-Serif" font-size="10.00">::Address::Address</text>
</a>
</g>
</g>
<!-- Node19&#45;&gt;Node20 -->
<g id="edge26" class="edge">
<title>Node19&#45;&gt;Node20</title>
<path fill="none" stroke="midnightblue" d="M936.53,-305.63C914.17,-311.59 889.2,-318.24 867.73,-323.96"/>
<polygon fill="midnightblue" stroke="midnightblue" points="937.51,-309 946.27,-303.04 935.71,-302.23 937.51,-309"/>
</g>
<!-- Node22 -->
<g id="node22" class="node">
<title>Node22</title>
<g id="a_node22"><a xlink:href="classsignal__easel_1_1ax25_1_1Frame.html#a640edeabbda34e78cc243e3561747bf9" target="_top" xlink:title=" ">
<polygon fill="none" stroke="black" points="753,-88 753,-118 875,-118 875,-88 753,-88"/>
<text text-anchor="start" x="761" y="-106" font-family="Helvetica,sans-Serif" font-size="10.00">signal_easel::ax25</text>
<text text-anchor="middle" x="814" y="-95" font-family="Helvetica,sans-Serif" font-size="10.00">::Frame::isFrameValid</text>
</a>
</g>
</g>
<!-- Node21&#45;&gt;Node22 -->
<g id="edge28" class="edge">
<title>Node21&#45;&gt;Node22</title>
<path fill="none" stroke="midnightblue" d="M936.16,-103C916.44,-103 894.72,-103 875.19,-103"/>
<polygon fill="midnightblue" stroke="midnightblue" points="936.27,-106.5 946.27,-103 936.27,-99.5 936.27,-106.5"/>
</g>
<!-- Node23 -->
<g id="node23" class="node">
<title>Node23</title>
<g id="a_node23"><a xlink:href="ax25__address__test_8cpp.html#afa443d4d5f700a003ec7cac34596dcba" target="_top" xlink:title=" ">
<polygon fill="none" stroke="black" points="793.5,-0.5 793.5,-19.5 834.5,-19.5 834.5,-0.5 793.5,-0.5"/>
<text text-anchor="middle" x="814" y="-7.5" font-family="Helvetica,sans-Serif" font-size="10.00">TEST</text>
</a>
</g>
</g>
<!-- Node21&#45;&gt;Node23 -->
<g id="edge31" class="edge">
<title>Node21&#45;&gt;Node23</title>
<path fill="none" stroke="midnightblue" d="M975.4,-81.07C956.21,-64.4 927.69,-42.15 899,-29 878.2,-19.47 852.26,-14.54 834.75,-12.12"/>
<polygon fill="midnightblue" stroke="midnightblue" points="973.23,-83.82 983.03,-87.84 977.87,-78.58 973.23,-83.82"/>
</g>
<!-- Node22&#45;&gt;Node10 -->
<g id="edge29" class="edge">
<title>Node22&#45;&gt;Node10</title>
<path fill="none" stroke="midnightblue" d="M742.73,-103C722.87,-103 701.53,-103 682.62,-103"/>
<polygon fill="midnightblue" stroke="midnightblue" points="742.96,-106.5 752.96,-103 742.96,-99.5 742.96,-106.5"/>
</g>
<!-- Node22&#45;&gt;Node17 -->
<g id="edge30" class="edge">
<title>Node22&#45;&gt;Node17</title>
<path fill="none" stroke="midnightblue" d="M742.86,-119.55C708.23,-127.72 669.06,-136.96 646.14,-142.37"/>
<polygon fill="midnightblue" stroke="midnightblue" points="744.03,-122.87 752.96,-117.16 742.43,-116.05 744.03,-122.87"/>
</g>
</g>
</svg>
