<?xml version="1.0" encoding="UTF-8" standalone="no"?>
<!DOCTYPE svg PUBLIC "-//W3C//DTD SVG 1.1//EN"
 "http://www.w3.org/Graphics/SVG/1.1/DTD/svg11.dtd">
<!-- Generated by graphviz version 2.43.0 (0)
 -->
<!-- Title: signal_easel::ax25::Frame::isFrameValid Pages: 1 -->
<svg width="452pt" height="100pt"
 viewBox="0.00 0.00 452.00 99.50" xmlns="http://www.w3.org/2000/svg" xmlns:xlink="http://www.w3.org/1999/xlink">
<g id="graph0" class="graph" transform="scale(1 1) rotate(0) translate(4 95.5)">
<title>signal_easel::ax25::Frame::isFrameValid</title>
<!-- Node1 -->
<g id="node1" class="node">
<title>Node1</title>
<g id="a_node1"><a xlink:title=" ">
<polygon fill="#bfbfbf" stroke="black" points="0,-27.5 0,-57.5 122,-57.5 122,-27.5 0,-27.5"/>
<text text-anchor="start" x="8" y="-45.5" font-family="Helvetica,sans-Serif" font-size="10.00">signal_easel::ax25</text>
<text text-anchor="middle" x="61" y="-34.5" font-family="Helvetica,sans-Serif" font-size="10.00">::Frame::isFrameValid</text>
</a>
</g>
</g>
<!-- Node2 -->
<g id="node2" class="node">
<title>Node2</title>
<g id="a_node2"><a xlink:href="classsignal__easel_1_1ax25_1_1Address.html#aae81920cfd0dc7d89cb107f9d825488c" target="_top" xlink:title="If the address is valid (can be encoded correctly or was decoded)">
<polygon fill="none" stroke="black" points="158,-27.5 158,-57.5 265,-57.5 265,-27.5 158,-27.5"/>
<text text-anchor="start" x="166" y="-45.5" font-family="Helvetica,sans-Serif" font-size="10.00">signal_easel::ax25</text>
<text text-anchor="middle" x="211.5" y="-34.5" font-family="Helvetica,sans-Serif" font-size="10.00">::Address::isValid</text>
</a>
</g>
</g>
<!-- Node1&#45;&gt;Node2 -->
<g id="edge1" class="edge">
<title>Node1&#45;&gt;Node2</title>
<path fill="none" stroke="midnightblue" d="M122.4,-42.5C130.74,-42.5 139.31,-42.5 147.69,-42.5"/>
<polygon fill="midnightblue" stroke="midnightblue" points="147.78,-46 157.78,-42.5 147.78,-39 147.78,-46"/>
</g>
<!-- Node3 -->
<g id="node3" class="node">
<title>Node3</title>
<g id="a_node3"><a xlink:href="classsignal__easel_1_1ax25_1_1Address.html#a56c55b48bfc809a33aa0e22a5aeb95ca" target="_top" xlink:title=" ">
<polygon fill="none" stroke="black" points="301,-50 301,-91 444,-91 444,-50 301,-50"/>
<text text-anchor="start" x="309" y="-79" font-family="Helvetica,sans-Serif" font-size="10.00">signal_easel::ax25</text>
<text text-anchor="start" x="309" y="-68" font-family="Helvetica,sans-Serif" font-size="10.00">::Address::isAddressString</text>
<text text-anchor="middle" x="372.5" y="-57" font-family="Helvetica,sans-Serif" font-size="10.00">Valid</text>
</a>
</g>
</g>
<!-- Node2&#45;&gt;Node3 -->
<g id="edge2" class="edge">
<title>Node2&#45;&gt;Node3</title>
<path fill="none" stroke="midnightblue" d="M265,-51.75C273.35,-53.22 282.15,-54.76 290.96,-56.32"/>
<polygon fill="midnightblue" stroke="midnightblue" points="290.44,-59.78 300.9,-58.07 291.66,-52.89 290.44,-59.78"/>
</g>
<!-- Node4 -->
<g id="node4" class="node">
<title>Node4</title>
<g id="a_node4"><a xlink:href="classsignal__easel_1_1ax25_1_1Address.html#ad66c149737cc4aa52ae9e8860176acf3" target="_top" xlink:title=" ">
<polygon fill="none" stroke="black" points="312.5,-0.5 312.5,-30.5 432.5,-30.5 432.5,-0.5 312.5,-0.5"/>
<text text-anchor="start" x="320.5" y="-18.5" font-family="Helvetica,sans-Serif" font-size="10.00">signal_easel::ax25</text>
<text text-anchor="middle" x="372.5" y="-7.5" font-family="Helvetica,sans-Serif" font-size="10.00">::Address::isSsidValid</text>
</a>
</g>
</g>
<!-- Node2&#45;&gt;Node4 -->
<g id="edge3" class="edge">
<title>Node2&#45;&gt;Node4</title>
<path fill="none" stroke="midnightblue" d="M265,-33.58C276.99,-31.55 289.92,-29.35 302.48,-27.22"/>
<polygon fill="midnightblue" stroke="midnightblue" points="303.18,-30.65 312.46,-25.53 302.01,-23.75 303.18,-30.65"/>
</g>
</g>
</svg>
