<?xml version="1.0" encoding="UTF-8" standalone="no"?>
<!DOCTYPE svg PUBLIC "-//W3C//DTD SVG 1.1//EN"
 "http://www.w3.org/Graphics/SVG/1.1/DTD/svg11.dtd">
<!-- Generated by graphviz version 2.43.0 (0)
 -->
<!-- Title: signal_easel::ax25::Address::isAddressStringValid Pages: 1 -->
<svg width="1191pt" height="160pt"
 viewBox="0.00 0.00 1191.00 159.50" xmlns="http://www.w3.org/2000/svg" xmlns:xlink="http://www.w3.org/1999/xlink">
<g id="graph0" class="graph" transform="scale(1 1) rotate(0) translate(4 155.5)">
<title>signal_easel::ax25::Address::isAddressStringValid</title>
<!-- Node1 -->
<g id="node1" class="node">
<title>Node1</title>
<g id="a_node1"><a xlink:title=" ">
<polygon fill="#bfbfbf" stroke="black" points="1040,-16.5 1040,-57.5 1183,-57.5 1183,-16.5 1040,-16.5"/>
<text text-anchor="start" x="1048" y="-45.5" font-family="Helvetica,sans-Serif" font-size="10.00">signal_easel::ax25</text>
<text text-anchor="start" x="1048" y="-34.5" font-family="Helvetica,sans-Serif" font-size="10.00">::Address::isAddressString</text>
<text text-anchor="middle" x="1111.5" y="-23.5" font-family="Helvetica,sans-Serif" font-size="10.00">Valid</text>
</a>
</g>
</g>
<!-- Node2 -->
<g id="node2" class="node">
<title>Node2</title>
<g id="a_node2"><a xlink:href="classsignal__easel_1_1ax25_1_1Address.html#aae81920cfd0dc7d89cb107f9d825488c" target="_top" xlink:title="If the address is valid (can be encoded correctly or was decoded)">
<polygon fill="none" stroke="black" points="897,-22 897,-52 1004,-52 1004,-22 897,-22"/>
<text text-anchor="start" x="905" y="-40" font-family="Helvetica,sans-Serif" font-size="10.00">signal_easel::ax25</text>
<text text-anchor="middle" x="950.5" y="-29" font-family="Helvetica,sans-Serif" font-size="10.00">::Address::isValid</text>
</a>
</g>
</g>
<!-- Node1&#45;&gt;Node2 -->
<g id="edge1" class="edge">
<title>Node1&#45;&gt;Node2</title>
<path fill="none" stroke="midnightblue" d="M1029.72,-37C1021.09,-37 1012.48,-37 1004.29,-37"/>
<polygon fill="midnightblue" stroke="midnightblue" points="1029.83,-40.5 1039.83,-37 1029.83,-33.5 1029.83,-40.5"/>
</g>
<!-- Node3 -->
<g id="node3" class="node">
<title>Node3</title>
<g id="a_node3"><a xlink:href="classsignal__easel_1_1ax25_1_1Frame.html#a640edeabbda34e78cc243e3561747bf9" target="_top" xlink:title=" ">
<polygon fill="none" stroke="black" points="739,-44 739,-74 861,-74 861,-44 739,-44"/>
<text text-anchor="start" x="747" y="-62" font-family="Helvetica,sans-Serif" font-size="10.00">signal_easel::ax25</text>
<text text-anchor="middle" x="800" y="-51" font-family="Helvetica,sans-Serif" font-size="10.00">::Frame::isFrameValid</text>
</a>
</g>
</g>
<!-- Node2&#45;&gt;Node3 -->
<g id="edge2" class="edge">
<title>Node2&#45;&gt;Node3</title>
<path fill="none" stroke="midnightblue" d="M886.59,-46.32C878.18,-47.57 869.56,-48.84 861.2,-50.08"/>
<polygon fill="midnightblue" stroke="midnightblue" points="887.35,-49.75 896.73,-44.82 886.32,-42.82 887.35,-49.75"/>
</g>
<!-- Node12 -->
<g id="node12" class="node">
<title>Node12</title>
<g id="a_node12"><a xlink:href="ax25__address__test_8cpp.html#afa443d4d5f700a003ec7cac34596dcba" target="_top" xlink:title=" ">
<polygon fill="none" stroke="black" points="779.5,-5.5 779.5,-24.5 820.5,-24.5 820.5,-5.5 779.5,-5.5"/>
<text text-anchor="middle" x="800" y="-12.5" font-family="Helvetica,sans-Serif" font-size="10.00">TEST</text>
</a>
</g>
</g>
<!-- Node2&#45;&gt;Node12 -->
<g id="edge11" class="edge">
<title>Node2&#45;&gt;Node12</title>
<path fill="none" stroke="midnightblue" d="M886.69,-27.7C862.98,-24.18 837.68,-20.43 820.76,-17.93"/>
<polygon fill="midnightblue" stroke="midnightblue" points="886.32,-31.18 896.73,-29.18 887.35,-24.25 886.32,-31.18"/>
</g>
<!-- Node4 -->
<g id="node4" class="node">
<title>Node4</title>
<g id="a_node4"><a xlink:href="classsignal__easel_1_1ax25_1_1Frame.html#a24e7d5ffc6504a3380e97142d1bc084e" target="_top" xlink:title="Builds all internal portions of the frame. Doesn&#39;t include the flags.">
<polygon fill="none" stroke="black" points="589,-66 589,-96 703,-96 703,-66 589,-66"/>
<text text-anchor="start" x="597" y="-84" font-family="Helvetica,sans-Serif" font-size="10.00">signal_easel::ax25</text>
<text text-anchor="middle" x="646" y="-73" font-family="Helvetica,sans-Serif" font-size="10.00">::Frame::buildFrame</text>
</a>
</g>
</g>
<!-- Node3&#45;&gt;Node4 -->
<g id="edge3" class="edge">
<title>Node3&#45;&gt;Node4</title>
<path fill="none" stroke="midnightblue" d="M728.88,-69.15C720.27,-70.4 711.55,-71.66 703.17,-72.87"/>
<polygon fill="midnightblue" stroke="midnightblue" points="729.53,-72.59 738.93,-67.69 728.53,-65.66 729.53,-72.59"/>
</g>
<!-- Node11 -->
<g id="node11" class="node">
<title>Node11</title>
<g id="a_node11"><a xlink:href="ax25__frame__test_8cpp.html#a091d83d42783f2a0b3fd33a0521dc2ce" target="_top" xlink:title=" ">
<polygon fill="none" stroke="black" points="625.5,-27.5 625.5,-46.5 666.5,-46.5 666.5,-27.5 625.5,-27.5"/>
<text text-anchor="middle" x="646" y="-34.5" font-family="Helvetica,sans-Serif" font-size="10.00">TEST</text>
</a>
</g>
</g>
<!-- Node3&#45;&gt;Node11 -->
<g id="edge10" class="edge">
<title>Node3&#45;&gt;Node11</title>
<path fill="none" stroke="midnightblue" d="M728.88,-48.85C706.08,-45.55 682.57,-42.15 666.62,-39.84"/>
<polygon fill="midnightblue" stroke="midnightblue" points="728.53,-52.34 738.93,-50.31 729.53,-45.41 728.53,-52.34"/>
</g>
<!-- Node5 -->
<g id="node5" class="node">
<title>Node5</title>
<g id="a_node5"><a xlink:href="classsignal__easel_1_1ax25_1_1Frame.html#a2b4f6ebcb7592a7e5a21114c8fafa503" target="_top" xlink:title="A step beyond buildFrame. This function builds the frame, does the bit stuffing, adds the flags,...">
<polygon fill="none" stroke="black" points="428,-66 428,-96 553,-96 553,-66 428,-66"/>
<text text-anchor="start" x="436" y="-84" font-family="Helvetica,sans-Serif" font-size="10.00">signal_easel::ax25</text>
<text text-anchor="middle" x="490.5" y="-73" font-family="Helvetica,sans-Serif" font-size="10.00">::Frame::encodeFrame</text>
</a>
</g>
</g>
<!-- Node4&#45;&gt;Node5 -->
<g id="edge4" class="edge">
<title>Node4&#45;&gt;Node5</title>
<path fill="none" stroke="midnightblue" d="M578.56,-81C570.14,-81 561.55,-81 553.21,-81"/>
<polygon fill="midnightblue" stroke="midnightblue" points="578.71,-84.5 588.71,-81 578.71,-77.5 578.71,-84.5"/>
</g>
<!-- Node6 -->
<g id="node6" class="node">
<title>Node6</title>
<g id="a_node6"><a xlink:href="namespacesignal__easel_1_1aprs.html#a77481001a5b78a839972bb4220b43e4d" target="_top" xlink:title=" ">
<polygon fill="none" stroke="black" points="288,-66 288,-96 392,-96 392,-66 288,-66"/>
<text text-anchor="start" x="296" y="-84" font-family="Helvetica,sans-Serif" font-size="10.00">signal_easel::aprs</text>
<text text-anchor="middle" x="340" y="-73" font-family="Helvetica,sans-Serif" font-size="10.00">::encodePacket</text>
</a>
</g>
</g>
<!-- Node5&#45;&gt;Node6 -->
<g id="edge5" class="edge">
<title>Node5&#45;&gt;Node6</title>
<path fill="none" stroke="midnightblue" d="M417.79,-81C409.2,-81 400.58,-81 392.36,-81"/>
<polygon fill="midnightblue" stroke="midnightblue" points="417.81,-84.5 427.81,-81 417.81,-77.5 417.81,-84.5"/>
</g>
<!-- Node7 -->
<g id="node7" class="node">
<title>Node7</title>
<g id="a_node7"><a xlink:href="classsignal__easel_1_1aprs_1_1Modulator.html#adfa8809d1c11321b9ff2c7efe7f58499" target="_top" xlink:title=" ">
<polygon fill="none" stroke="black" points="77,-121 77,-151 252,-151 252,-121 77,-121"/>
<text text-anchor="start" x="85" y="-139" font-family="Helvetica,sans-Serif" font-size="10.00">signal_easel::aprs</text>
<text text-anchor="middle" x="164.5" y="-128" font-family="Helvetica,sans-Serif" font-size="10.00">::Modulator::encodeMessageAck</text>
</a>
</g>
</g>
<!-- Node6&#45;&gt;Node7 -->
<g id="edge6" class="edge">
<title>Node6&#45;&gt;Node7</title>
<path fill="none" stroke="midnightblue" d="M287.16,-99.36C275.62,-103.31 263.42,-107.38 252,-111 241.42,-114.35 230.05,-117.77 219.15,-120.95"/>
<polygon fill="midnightblue" stroke="midnightblue" points="288.35,-102.65 296.66,-96.08 286.07,-96.03 288.35,-102.65"/>
</g>
<!-- Node8 -->
<g id="node8" class="node">
<title>Node8</title>
<g id="a_node8"><a xlink:href="classsignal__easel_1_1aprs_1_1Modulator.html#a147321b48c2e282c62863f114702e54f" target="_top" xlink:title=" ">
<polygon fill="none" stroke="black" points="86,-60.5 86,-101.5 243,-101.5 243,-60.5 86,-60.5"/>
<text text-anchor="start" x="94" y="-89.5" font-family="Helvetica,sans-Serif" font-size="10.00">signal_easel::aprs</text>
<text text-anchor="start" x="94" y="-78.5" font-family="Helvetica,sans-Serif" font-size="10.00">::Modulator::encodeMessage</text>
<text text-anchor="middle" x="164.5" y="-67.5" font-family="Helvetica,sans-Serif" font-size="10.00">Packet</text>
</a>
</g>
</g>
<!-- Node6&#45;&gt;Node8 -->
<g id="edge7" class="edge">
<title>Node6&#45;&gt;Node8</title>
<path fill="none" stroke="midnightblue" d="M277.82,-81C266.65,-81 254.85,-81 243.27,-81"/>
<polygon fill="midnightblue" stroke="midnightblue" points="277.88,-84.5 287.88,-81 277.88,-77.5 277.88,-84.5"/>
</g>
<!-- Node10 -->
<g id="node10" class="node">
<title>Node10</title>
<g id="a_node10"><a xlink:href="classsignal__easel_1_1aprs_1_1Modulator.html#a943e392227656943d7db842e1889d805" target="_top" xlink:title=" ">
<polygon fill="none" stroke="black" points="88.5,-0.5 88.5,-41.5 240.5,-41.5 240.5,-0.5 88.5,-0.5"/>
<text text-anchor="start" x="96.5" y="-29.5" font-family="Helvetica,sans-Serif" font-size="10.00">signal_easel::aprs</text>
<text text-anchor="start" x="96.5" y="-18.5" font-family="Helvetica,sans-Serif" font-size="10.00">::Modulator::encodePosition</text>
<text text-anchor="middle" x="164.5" y="-7.5" font-family="Helvetica,sans-Serif" font-size="10.00">Packet</text>
</a>
</g>
</g>
<!-- Node6&#45;&gt;Node10 -->
<g id="edge9" class="edge">
<title>Node6&#45;&gt;Node10</title>
<path fill="none" stroke="midnightblue" d="M285.72,-62.58C266.51,-55.93 244.71,-48.39 225,-41.58"/>
<polygon fill="midnightblue" stroke="midnightblue" points="284.62,-65.9 295.22,-65.86 286.91,-59.28 284.62,-65.9"/>
</g>
<!-- Node9 -->
<g id="node9" class="node">
<title>Node9</title>
<g id="a_node9"><a xlink:href="aprs__test_8cpp.html#aea66d1824e3f1e27598adf99ac6a089a" target="_top" xlink:title=" ">
<polygon fill="none" stroke="black" points="0,-71.5 0,-90.5 41,-90.5 41,-71.5 0,-71.5"/>
<text text-anchor="middle" x="20.5" y="-78.5" font-family="Helvetica,sans-Serif" font-size="10.00">TEST</text>
</a>
</g>
</g>
<!-- Node8&#45;&gt;Node9 -->
<g id="edge8" class="edge">
<title>Node8&#45;&gt;Node9</title>
<path fill="none" stroke="midnightblue" d="M75.84,-81C62.91,-81 50.76,-81 41.24,-81"/>
<polygon fill="midnightblue" stroke="midnightblue" points="75.85,-84.5 85.85,-81 75.85,-77.5 75.85,-84.5"/>
</g>
</g>
</svg>
