<?xml version="1.0" encoding="UTF-8" standalone="no"?>
<!DOCTYPE svg PUBLIC "-//W3C//DTD SVG 1.1//EN"
 "http://www.w3.org/Graphics/SVG/1.1/DTD/svg11.dtd">
<!-- Generated by graphviz version 2.43.0 (0)
 -->
<!-- Title: signal_easel::aprs::telemetry::AnalogParameter Pages: 1 -->
<svg width="447pt" height="551pt"
 viewBox="0.00 0.00 446.50 551.00" xmlns="http://www.w3.org/2000/svg" xmlns:xlink="http://www.w3.org/1999/xlink">
<g id="graph0" class="graph" transform="scale(1 1) rotate(0) translate(4 547)">
<title>signal_easel::aprs::telemetry::AnalogParameter</title>
<!-- Node1 -->
<g id="node1" class="node">
<title>Node1</title>
<g id="a_node1"><a xlink:title=" ">
<polygon fill="#bfbfbf" stroke="black" points="192.5,-0.5 192.5,-189.5 352.5,-189.5 352.5,-0.5 192.5,-0.5"/>
<text text-anchor="start" x="200.5" y="-177.5" font-family="Helvetica,sans-Serif" font-size="10.00">signal_easel::aprs</text>
<text text-anchor="middle" x="272.5" y="-166.5" font-family="Helvetica,sans-Serif" font-size="10.00">::telemetry::AnalogParameter</text>
<polyline fill="none" stroke="black" points="192.5,-159.5 352.5,-159.5 "/>
<text text-anchor="middle" x="272.5" y="-147.5" font-family="Helvetica,sans-Serif" font-size="10.00"> </text>
<polyline fill="none" stroke="black" points="192.5,-140.5 352.5,-140.5 "/>
<text text-anchor="start" x="200.5" y="-128.5" font-family="Helvetica,sans-Serif" font-size="10.00">+ AnalogParameter()</text>
<text text-anchor="start" x="200.5" y="-117.5" font-family="Helvetica,sans-Serif" font-size="10.00">+ getCalculatedValue()</text>
<text text-anchor="start" x="200.5" y="-106.5" font-family="Helvetica,sans-Serif" font-size="10.00">+ getCoefficientA()</text>
<text text-anchor="start" x="200.5" y="-95.5" font-family="Helvetica,sans-Serif" font-size="10.00">+ getCoefficientB()</text>
<text text-anchor="start" x="200.5" y="-84.5" font-family="Helvetica,sans-Serif" font-size="10.00">+ getCoefficientC()</text>
<text text-anchor="start" x="200.5" y="-73.5" font-family="Helvetica,sans-Serif" font-size="10.00">+ getCoefficients()</text>
<text text-anchor="start" x="200.5" y="-62.5" font-family="Helvetica,sans-Serif" font-size="10.00">+ getValue()</text>
<text text-anchor="start" x="200.5" y="-51.5" font-family="Helvetica,sans-Serif" font-size="10.00">+ setCoefficientA()</text>
<text text-anchor="start" x="200.5" y="-40.5" font-family="Helvetica,sans-Serif" font-size="10.00">+ setCoefficientB()</text>
<text text-anchor="start" x="200.5" y="-29.5" font-family="Helvetica,sans-Serif" font-size="10.00">+ setCoefficientC()</text>
<text text-anchor="start" x="200.5" y="-18.5" font-family="Helvetica,sans-Serif" font-size="10.00">+ setCoefficients()</text>
<text text-anchor="start" x="200.5" y="-7.5" font-family="Helvetica,sans-Serif" font-size="10.00">+ setRawValue()</text>
</a>
</g>
</g>
<!-- Node2 -->
<g id="node2" class="node">
<title>Node2</title>
<g id="a_node2"><a xlink:href="classsignal__easel_1_1aprs_1_1telemetry_1_1Parameter.html" target="_top" xlink:title="A representation of APRS telemetry parameters.">
<polygon fill="none" stroke="black" points="0,-259.5 0,-426.5 171,-426.5 171,-259.5 0,-259.5"/>
<text text-anchor="start" x="8" y="-414.5" font-family="Helvetica,sans-Serif" font-size="10.00">signal_easel::aprs</text>
<text text-anchor="middle" x="85.5" y="-403.5" font-family="Helvetica,sans-Serif" font-size="10.00">::telemetry::Parameter</text>
<polyline fill="none" stroke="black" points="0,-396.5 171,-396.5 "/>
<text text-anchor="middle" x="85.5" y="-384.5" font-family="Helvetica,sans-Serif" font-size="10.00"> </text>
<polyline fill="none" stroke="black" points="0,-377.5 171,-377.5 "/>
<text text-anchor="start" x="8" y="-365.5" font-family="Helvetica,sans-Serif" font-size="10.00">+ Parameter()</text>
<text text-anchor="start" x="8" y="-354.5" font-family="Helvetica,sans-Serif" font-size="10.00">+ ~Parameter()</text>
<text text-anchor="start" x="8" y="-343.5" font-family="Helvetica,sans-Serif" font-size="10.00">+ getId()</text>
<text text-anchor="start" x="8" y="-332.5" font-family="Helvetica,sans-Serif" font-size="10.00">+ getLabel()</text>
<text text-anchor="start" x="8" y="-321.5" font-family="Helvetica,sans-Serif" font-size="10.00">+ getName()</text>
<text text-anchor="start" x="8" y="-310.5" font-family="Helvetica,sans-Serif" font-size="10.00">+ getType()</text>
<text text-anchor="start" x="8" y="-299.5" font-family="Helvetica,sans-Serif" font-size="10.00">+ setName()</text>
<text text-anchor="start" x="8" y="-288.5" font-family="Helvetica,sans-Serif" font-size="10.00">+ setUnitOrLabel()</text>
<text text-anchor="start" x="8" y="-277.5" font-family="Helvetica,sans-Serif" font-size="10.00">+ getType()</text>
<text text-anchor="start" x="8" y="-266.5" font-family="Helvetica,sans-Serif" font-size="10.00">&#45; validateParameterDescriptor()</text>
</a>
</g>
</g>
<!-- Node2&#45;&gt;Node1 -->
<g id="edge1" class="edge">
<title>Node2&#45;&gt;Node1</title>
<path fill="none" stroke="midnightblue" d="M154.52,-251.21C169.73,-231.2 185.87,-209.96 201.17,-189.84"/>
<polygon fill="none" stroke="midnightblue" points="151.55,-249.32 148.29,-259.4 157.13,-253.56 151.55,-249.32"/>
</g>
<!-- Node3 -->
<g id="node3" class="node">
<title>Node3</title>
<g id="a_node3"><a xlink:title=" ">
<polygon fill="none" stroke="black" points="7,-485.5 7,-542.5 36,-542.5 36,-485.5 7,-485.5"/>
<text text-anchor="middle" x="21.5" y="-530.5" font-family="Helvetica,sans-Serif" font-size="10.00">Id</text>
<polyline fill="none" stroke="black" points="7,-523.5 36,-523.5 "/>
<text text-anchor="middle" x="21.5" y="-511.5" font-family="Helvetica,sans-Serif" font-size="10.00"> </text>
<polyline fill="none" stroke="black" points="7,-504.5 36,-504.5 "/>
<text text-anchor="middle" x="21.5" y="-492.5" font-family="Helvetica,sans-Serif" font-size="10.00"> </text>
</a>
</g>
</g>
<!-- Node3&#45;&gt;Node2 -->
<g id="edge2" class="edge">
<title>Node3&#45;&gt;Node2</title>
<path fill="none" stroke="#404040" d="M31.93,-485.47C36.95,-472.2 43.31,-455.41 49.87,-438.08"/>
<polygon fill="none" stroke="#404040" points="49.95,-437.87 48.33,-430.84 54.2,-426.65 55.82,-433.68 49.95,-437.87"/>
<text text-anchor="middle" x="57.5" y="-453.5" font-family="Helvetica,sans-Serif" font-size="10.00"> &#45;id_</text>
</g>
<!-- Node4 -->
<g id="node4" class="node">
<title>Node4</title>
<g id="a_node4"><a xlink:title=" ">
<polygon fill="none" stroke="black" points="54,-485.5 54,-542.5 93,-542.5 93,-485.5 54,-485.5"/>
<text text-anchor="middle" x="73.5" y="-530.5" font-family="Helvetica,sans-Serif" font-size="10.00">Type</text>
<polyline fill="none" stroke="black" points="54,-523.5 93,-523.5 "/>
<text text-anchor="middle" x="73.5" y="-511.5" font-family="Helvetica,sans-Serif" font-size="10.00"> </text>
<polyline fill="none" stroke="black" points="54,-504.5 93,-504.5 "/>
<text text-anchor="middle" x="73.5" y="-492.5" font-family="Helvetica,sans-Serif" font-size="10.00"> </text>
</a>
</g>
</g>
<!-- Node4&#45;&gt;Node2 -->
<g id="edge3" class="edge">
<title>Node4&#45;&gt;Node2</title>
<path fill="none" stroke="#404040" d="M73.32,-485.19C73.39,-472.86 73.69,-458.2 74.5,-445 74.63,-442.94 74.77,-440.86 74.91,-438.77"/>
<polygon fill="none" stroke="#404040" points="74.93,-438.59 71.41,-432.29 75.86,-426.62 79.38,-432.92 74.93,-438.59"/>
<text text-anchor="middle" x="91.5" y="-453.5" font-family="Helvetica,sans-Serif" font-size="10.00"> &#45;type_</text>
</g>
<!-- Node5 -->
<g id="node5" class="node">
<title>Node5</title>
<g id="a_node5"><a xlink:title=" ">
<polygon fill="none" stroke="black" points="153.5,-485.5 153.5,-542.5 197.5,-542.5 197.5,-485.5 153.5,-485.5"/>
<text text-anchor="middle" x="175.5" y="-530.5" font-family="Helvetica,sans-Serif" font-size="10.00">string</text>
<polyline fill="none" stroke="black" points="153.5,-523.5 197.5,-523.5 "/>
<text text-anchor="middle" x="175.5" y="-511.5" font-family="Helvetica,sans-Serif" font-size="10.00"> </text>
<polyline fill="none" stroke="black" points="153.5,-504.5 197.5,-504.5 "/>
<text text-anchor="middle" x="175.5" y="-492.5" font-family="Helvetica,sans-Serif" font-size="10.00"> </text>
</a>
</g>
</g>
<!-- Node5&#45;&gt;Node1 -->
<g id="edge6" class="edge">
<title>Node5&#45;&gt;Node1</title>
<path fill="none" stroke="#404040" d="M195.73,-485.32C199.16,-479.5 202.32,-473.24 204.5,-467 235.19,-379.2 209.96,-350.34 227.5,-259 231.1,-240.26 235.77,-220.52 240.74,-201.51"/>
<polygon fill="none" stroke="#404040" points="240.78,-201.37 238.46,-194.55 243.87,-189.78 246.19,-196.61 240.78,-201.37"/>
<text text-anchor="middle" x="265" y="-351.5" font-family="Helvetica,sans-Serif" font-size="10.00"> &#45;coefficient_a_</text>
<text text-anchor="middle" x="265" y="-340.5" font-family="Helvetica,sans-Serif" font-size="10.00">&#45;coefficient_b_</text>
<text text-anchor="middle" x="265" y="-329.5" font-family="Helvetica,sans-Serif" font-size="10.00">&#45;coefficient_c_</text>
</g>
<!-- Node5&#45;&gt;Node2 -->
<g id="edge4" class="edge">
<title>Node5&#45;&gt;Node2</title>
<path fill="none" stroke="#404040" d="M153.39,-493.45C145.7,-485.79 137.49,-476.55 131.5,-467 125.76,-457.85 120.57,-447.88 115.92,-437.7"/>
<polygon fill="none" stroke="#404040" points="115.88,-437.6 109.81,-433.7 111.09,-426.6 117.15,-430.51 115.88,-437.6"/>
<text text-anchor="middle" x="168" y="-459" font-family="Helvetica,sans-Serif" font-size="10.00"> &#45;name_</text>
<text text-anchor="middle" x="168" y="-448" font-family="Helvetica,sans-Serif" font-size="10.00">&#45;unit_or_label_</text>
</g>
<!-- Node6 -->
<g id="node6" class="node">
<title>Node6</title>
<g id="a_node6"><a xlink:title=" ">
<polygon fill="none" stroke="black" points="311.5,-314.5 311.5,-371.5 361.5,-371.5 361.5,-314.5 311.5,-314.5"/>
<text text-anchor="middle" x="336.5" y="-359.5" font-family="Helvetica,sans-Serif" font-size="10.00">uint8_t</text>
<polyline fill="none" stroke="black" points="311.5,-352.5 361.5,-352.5 "/>
<text text-anchor="middle" x="336.5" y="-340.5" font-family="Helvetica,sans-Serif" font-size="10.00"> </text>
<polyline fill="none" stroke="black" points="311.5,-333.5 361.5,-333.5 "/>
<text text-anchor="middle" x="336.5" y="-321.5" font-family="Helvetica,sans-Serif" font-size="10.00"> </text>
</a>
</g>
</g>
<!-- Node6&#45;&gt;Node1 -->
<g id="edge5" class="edge">
<title>Node6&#45;&gt;Node1</title>
<path fill="none" stroke="#404040" d="M329.28,-314.26C322.11,-286.69 310.66,-242.69 299.92,-201.38"/>
<polygon fill="none" stroke="#404040" points="299.86,-201.15 294.47,-196.35 296.83,-189.54 302.22,-194.34 299.86,-201.15"/>
<text text-anchor="middle" x="339" y="-222" font-family="Helvetica,sans-Serif" font-size="10.00"> &#45;raw_value_</text>
</g>
<!-- Node7 -->
<g id="node7" class="node">
<title>Node7</title>
<g id="a_node7"><a xlink:title=" ">
<polygon fill="none" stroke="black" points="388.5,-314.5 388.5,-371.5 438.5,-371.5 438.5,-314.5 388.5,-314.5"/>
<text text-anchor="middle" x="413.5" y="-359.5" font-family="Helvetica,sans-Serif" font-size="10.00">double</text>
<polyline fill="none" stroke="black" points="388.5,-352.5 438.5,-352.5 "/>
<text text-anchor="middle" x="413.5" y="-340.5" font-family="Helvetica,sans-Serif" font-size="10.00"> </text>
<polyline fill="none" stroke="black" points="388.5,-333.5 438.5,-333.5 "/>
<text text-anchor="middle" x="413.5" y="-321.5" font-family="Helvetica,sans-Serif" font-size="10.00"> </text>
</a>
</g>
</g>
<!-- Node7&#45;&gt;Node1 -->
<g id="edge7" class="edge">
<title>Node7&#45;&gt;Node1</title>
<path fill="none" stroke="#404040" d="M409.25,-314.39C404.08,-286.25 393.58,-242.03 374.5,-208 370.16,-200.26 365.2,-192.62 359.85,-185.18"/>
<polygon fill="none" stroke="#404040" points="359.81,-185.13 353.01,-182.73 352.61,-175.53 359.41,-177.93 359.81,-185.13"/>
<text text-anchor="middle" x="398" y="-233" font-family="Helvetica,sans-Serif" font-size="10.00"> &#45;a_</text>
<text text-anchor="middle" x="398" y="-222" font-family="Helvetica,sans-Serif" font-size="10.00">&#45;b_</text>
<text text-anchor="middle" x="398" y="-211" font-family="Helvetica,sans-Serif" font-size="10.00">&#45;c_</text>
</g>
</g>
</svg>
