<?xml version="1.0" encoding="UTF-8" standalone="no"?>
<!DOCTYPE svg PUBLIC "-//W3C//DTD SVG 1.1//EN"
 "http://www.w3.org/Graphics/SVG/1.1/DTD/svg11.dtd">
<!-- Generated by graphviz version 2.43.0 (0)
 -->
<!-- Title: signal_easel::ax25::Frame::getDestinationAddress Pages: 1 -->
<svg width="751pt" height="230pt"
 viewBox="0.00 0.00 751.00 230.00" xmlns="http://www.w3.org/2000/svg" xmlns:xlink="http://www.w3.org/1999/xlink">
<g id="graph0" class="graph" transform="scale(1 1) rotate(0) translate(4 226)">
<title>signal_easel::ax25::Frame::getDestinationAddress</title>
<!-- Node1 -->
<g id="node1" class="node">
<title>Node1</title>
<g id="a_node1"><a xlink:title=" ">
<polygon fill="#bfbfbf" stroke="black" points="573,-96 573,-126 743,-126 743,-96 573,-96"/>
<text text-anchor="start" x="581" y="-114" font-family="Helvetica,sans-Serif" font-size="10.00">signal_easel::ax25</text>
<text text-anchor="middle" x="658" y="-103" font-family="Helvetica,sans-Serif" font-size="10.00">::Frame::getDestinationAddress</text>
</a>
</g>
</g>
<!-- Node2 -->
<g id="node2" class="node">
<title>Node2</title>
<g id="a_node2"><a xlink:href="classsignal__easel_1_1aprs_1_1Demodulator.html#af7459f32656249c73e0b957dfe13bf2f" target="_top" xlink:title=" ">
<polygon fill="none" stroke="black" points="364,-90.5 364,-131.5 537,-131.5 537,-90.5 364,-90.5"/>
<text text-anchor="start" x="372" y="-119.5" font-family="Helvetica,sans-Serif" font-size="10.00">signal_easel::aprs</text>
<text text-anchor="start" x="372" y="-108.5" font-family="Helvetica,sans-Serif" font-size="10.00">::Demodulator::populateGeneric</text>
<text text-anchor="middle" x="450.5" y="-97.5" font-family="Helvetica,sans-Serif" font-size="10.00">Fields</text>
</a>
</g>
</g>
<!-- Node1&#45;&gt;Node2 -->
<g id="edge1" class="edge">
<title>Node1&#45;&gt;Node2</title>
<path fill="none" stroke="midnightblue" d="M562.56,-111C554.11,-111 545.58,-111 537.21,-111"/>
<polygon fill="midnightblue" stroke="midnightblue" points="562.82,-114.5 572.82,-111 562.82,-107.5 562.82,-114.5"/>
</g>
<!-- Node3 -->
<g id="node3" class="node">
<title>Node3</title>
<g id="a_node3"><a xlink:href="classsignal__easel_1_1aprs_1_1Demodulator.html#a75e60a65289d36d717431705ed142be7" target="_top" xlink:title=" ">
<polygon fill="none" stroke="black" points="143,-120.5 143,-161.5 328,-161.5 328,-120.5 143,-120.5"/>
<text text-anchor="start" x="151" y="-149.5" font-family="Helvetica,sans-Serif" font-size="10.00">signal_easel::aprs</text>
<text text-anchor="start" x="151" y="-138.5" font-family="Helvetica,sans-Serif" font-size="10.00">::Demodulator::parseExperimental</text>
<text text-anchor="middle" x="235.5" y="-127.5" font-family="Helvetica,sans-Serif" font-size="10.00">Packet</text>
</a>
</g>
</g>
<!-- Node2&#45;&gt;Node3 -->
<g id="edge2" class="edge">
<title>Node2&#45;&gt;Node3</title>
<path fill="none" stroke="midnightblue" d="M353.87,-124.47C345.37,-125.67 336.77,-126.88 328.31,-128.07"/>
<polygon fill="midnightblue" stroke="midnightblue" points="354.37,-127.93 363.79,-123.07 353.4,-121 354.37,-127.93"/>
</g>
<!-- Node6 -->
<g id="node6" class="node">
<title>Node6</title>
<g id="a_node6"><a xlink:href="classsignal__easel_1_1aprs_1_1Demodulator.html#a8ea92084a8f961d7a11200652516177d" target="_top" xlink:title="If the packet was a message packet, this function will try to parse the packet into a message packet.">
<polygon fill="none" stroke="black" points="154,-180.5 154,-221.5 317,-221.5 317,-180.5 154,-180.5"/>
<text text-anchor="start" x="162" y="-209.5" font-family="Helvetica,sans-Serif" font-size="10.00">signal_easel::aprs</text>
<text text-anchor="start" x="162" y="-198.5" font-family="Helvetica,sans-Serif" font-size="10.00">::Demodulator::parseMessage</text>
<text text-anchor="middle" x="235.5" y="-187.5" font-family="Helvetica,sans-Serif" font-size="10.00">Packet</text>
</a>
</g>
</g>
<!-- Node2&#45;&gt;Node6 -->
<g id="edge5" class="edge">
<title>Node2&#45;&gt;Node6</title>
<path fill="none" stroke="midnightblue" d="M402.4,-136.2C380.17,-147.59 353.08,-160.76 328,-171 319.95,-174.29 311.4,-177.48 302.88,-180.47"/>
<polygon fill="midnightblue" stroke="midnightblue" points="404.01,-139.31 411.29,-131.61 400.8,-133.09 404.01,-139.31"/>
</g>
<!-- Node8 -->
<g id="node8" class="node">
<title>Node8</title>
<g id="a_node8"><a xlink:href="classsignal__easel_1_1aprs_1_1Demodulator.html#a285cd33e16fa28925fe2acd3fe5029fb" target="_top" xlink:title="If the packet was a position packet, this function will try to parse the packet into it&#39;s positional ...">
<polygon fill="none" stroke="black" points="156.5,-60.5 156.5,-101.5 314.5,-101.5 314.5,-60.5 156.5,-60.5"/>
<text text-anchor="start" x="164.5" y="-89.5" font-family="Helvetica,sans-Serif" font-size="10.00">signal_easel::aprs</text>
<text text-anchor="start" x="164.5" y="-78.5" font-family="Helvetica,sans-Serif" font-size="10.00">::Demodulator::parsePosition</text>
<text text-anchor="middle" x="235.5" y="-67.5" font-family="Helvetica,sans-Serif" font-size="10.00">Packet</text>
</a>
</g>
</g>
<!-- Node2&#45;&gt;Node8 -->
<g id="edge8" class="edge">
<title>Node2&#45;&gt;Node8</title>
<path fill="none" stroke="midnightblue" d="M353.85,-97.53C340.79,-95.69 327.51,-93.82 314.81,-92.03"/>
<polygon fill="midnightblue" stroke="midnightblue" points="353.4,-101 363.79,-98.93 354.37,-94.07 353.4,-101"/>
</g>
<!-- Node10 -->
<g id="node10" class="node">
<title>Node10</title>
<g id="a_node10"><a xlink:href="classsignal__easel_1_1aprs_1_1Demodulator.html#a97af61f7afb63db275020ba523abcc3a" target="_top" xlink:title="If the packet was a telemetry packet, this function will try to parse the packet and populate the tel...">
<polygon fill="none" stroke="black" points="151.5,-0.5 151.5,-41.5 319.5,-41.5 319.5,-0.5 151.5,-0.5"/>
<text text-anchor="start" x="159.5" y="-29.5" font-family="Helvetica,sans-Serif" font-size="10.00">signal_easel::aprs</text>
<text text-anchor="start" x="159.5" y="-18.5" font-family="Helvetica,sans-Serif" font-size="10.00">::Demodulator::parseTelemetry</text>
<text text-anchor="middle" x="235.5" y="-7.5" font-family="Helvetica,sans-Serif" font-size="10.00">Packet</text>
</a>
</g>
</g>
<!-- Node2&#45;&gt;Node10 -->
<g id="edge11" class="edge">
<title>Node2&#45;&gt;Node10</title>
<path fill="none" stroke="midnightblue" d="M402.4,-85.8C380.17,-74.41 353.08,-61.24 328,-51 319.95,-47.71 311.4,-44.52 302.88,-41.53"/>
<polygon fill="midnightblue" stroke="midnightblue" points="400.8,-88.91 411.29,-90.39 404.01,-82.69 400.8,-88.91"/>
</g>
<!-- Node4 -->
<g id="node4" class="node">
<title>Node4</title>
<g id="a_node4"><a xlink:href="classsignal__easel_1_1aprs_1_1Receiver.html#afbf7869aceaf2ea7ab0be8b9af16e818" target="_top" xlink:title=" ">
<polygon fill="none" stroke="black" points="0,-96 0,-126 107,-126 107,-96 0,-96"/>
<text text-anchor="start" x="8" y="-114" font-family="Helvetica,sans-Serif" font-size="10.00">signal_easel::aprs</text>
<text text-anchor="middle" x="53.5" y="-103" font-family="Helvetica,sans-Serif" font-size="10.00">::Receiver::decode</text>
</a>
</g>
</g>
<!-- Node3&#45;&gt;Node4 -->
<g id="edge3" class="edge">
<title>Node3&#45;&gt;Node4</title>
<path fill="none" stroke="midnightblue" d="M132.97,-124.08C124.2,-122.62 115.58,-121.18 107.45,-119.82"/>
<polygon fill="midnightblue" stroke="midnightblue" points="132.48,-127.54 142.92,-125.74 133.63,-120.64 132.48,-127.54"/>
</g>
<!-- Node5 -->
<g id="node5" class="node">
<title>Node5</title>
<g id="a_node5"><a xlink:href="aprs__test_8cpp.html#a94163b9a63db7738e0cf4c49259e1565" target="_top" xlink:title=" ">
<polygon fill="none" stroke="black" points="33,-145.5 33,-164.5 74,-164.5 74,-145.5 33,-145.5"/>
<text text-anchor="middle" x="53.5" y="-152.5" font-family="Helvetica,sans-Serif" font-size="10.00">TEST</text>
</a>
</g>
</g>
<!-- Node3&#45;&gt;Node5 -->
<g id="edge4" class="edge">
<title>Node3&#45;&gt;Node5</title>
<path fill="none" stroke="midnightblue" d="M132.87,-148.9C110.34,-150.66 88.8,-152.33 74.02,-153.48"/>
<polygon fill="midnightblue" stroke="midnightblue" points="133.22,-152.39 142.92,-148.12 132.68,-145.41 133.22,-152.39"/>
</g>
<!-- Node6&#45;&gt;Node4 -->
<g id="edge6" class="edge">
<title>Node6&#45;&gt;Node4</title>
<path fill="none" stroke="midnightblue" d="M152.17,-176.08C149.02,-174.48 145.95,-172.78 143,-171 123.91,-159.45 125.32,-148.74 107,-136 101.78,-132.37 95.95,-129.01 90.12,-126.01"/>
<polygon fill="midnightblue" stroke="midnightblue" points="150.69,-179.25 161.22,-180.36 153.68,-172.92 150.69,-179.25"/>
</g>
<!-- Node7 -->
<g id="node7" class="node">
<title>Node7</title>
<g id="a_node7"><a xlink:href="aprs__test_8cpp.html#aea66d1824e3f1e27598adf99ac6a089a" target="_top" xlink:title=" ">
<polygon fill="none" stroke="black" points="33,-191.5 33,-210.5 74,-210.5 74,-191.5 33,-191.5"/>
<text text-anchor="middle" x="53.5" y="-198.5" font-family="Helvetica,sans-Serif" font-size="10.00">TEST</text>
</a>
</g>
</g>
<!-- Node6&#45;&gt;Node7 -->
<g id="edge7" class="edge">
<title>Node6&#45;&gt;Node7</title>
<path fill="none" stroke="midnightblue" d="M143.89,-201C117.53,-201 91.24,-201 74.07,-201"/>
<polygon fill="midnightblue" stroke="midnightblue" points="143.98,-204.5 153.98,-201 143.98,-197.5 143.98,-204.5"/>
</g>
<!-- Node8&#45;&gt;Node4 -->
<g id="edge9" class="edge">
<title>Node8&#45;&gt;Node4</title>
<path fill="none" stroke="midnightblue" d="M146.17,-95.72C132.84,-97.94 119.46,-100.17 107.2,-102.22"/>
<polygon fill="midnightblue" stroke="midnightblue" points="147.05,-99.12 156.33,-94.03 145.9,-92.22 147.05,-99.12"/>
</g>
<!-- Node9 -->
<g id="node9" class="node">
<title>Node9</title>
<g id="a_node9"><a xlink:href="aprs__test_8cpp.html#a8f1884a85326fa2424719d09dd551947" target="_top" xlink:title=" ">
<polygon fill="none" stroke="black" points="33,-57.5 33,-76.5 74,-76.5 74,-57.5 33,-57.5"/>
<text text-anchor="middle" x="53.5" y="-64.5" font-family="Helvetica,sans-Serif" font-size="10.00">TEST</text>
</a>
</g>
</g>
<!-- Node8&#45;&gt;Node9 -->
<g id="edge10" class="edge">
<title>Node8&#45;&gt;Node9</title>
<path fill="none" stroke="midnightblue" d="M146.03,-74.12C119.07,-72.02 91.93,-69.91 74.29,-68.54"/>
<polygon fill="midnightblue" stroke="midnightblue" points="146.09,-77.63 156.33,-74.92 146.64,-70.66 146.09,-77.63"/>
</g>
<!-- Node10&#45;&gt;Node4 -->
<g id="edge12" class="edge">
<title>Node10&#45;&gt;Node4</title>
<path fill="none" stroke="midnightblue" d="M152.17,-45.92C149.02,-47.52 145.95,-49.22 143,-51 123.91,-62.55 125.32,-73.26 107,-86 101.78,-89.63 95.95,-92.99 90.12,-95.99"/>
<polygon fill="midnightblue" stroke="midnightblue" points="153.68,-49.08 161.22,-41.64 150.69,-42.75 153.68,-49.08"/>
</g>
<!-- Node11 -->
<g id="node11" class="node">
<title>Node11</title>
<g id="a_node11"><a xlink:href="aprs__test_8cpp.html#a8de4b7853d7e8c5ad2bb05a656082327" target="_top" xlink:title=" ">
<polygon fill="none" stroke="black" points="33,-11.5 33,-30.5 74,-30.5 74,-11.5 33,-11.5"/>
<text text-anchor="middle" x="53.5" y="-18.5" font-family="Helvetica,sans-Serif" font-size="10.00">TEST</text>
</a>
</g>
</g>
<!-- Node10&#45;&gt;Node11 -->
<g id="edge13" class="edge">
<title>Node10&#45;&gt;Node11</title>
<path fill="none" stroke="midnightblue" d="M141.23,-21C115.8,-21 90.73,-21 74.13,-21"/>
<polygon fill="midnightblue" stroke="midnightblue" points="141.35,-24.5 151.35,-21 141.35,-17.5 141.35,-24.5"/>
</g>
</g>
</svg>
