<?xml version="1.0" encoding="UTF-8" standalone="no"?>
<!DOCTYPE svg PUBLIC "-//W3C//DTD SVG 1.1//EN"
 "http://www.w3.org/Graphics/SVG/1.1/DTD/svg11.dtd">
<!-- Generated by graphviz version 2.43.0 (0)
 -->
<!-- Title: signal_easel::ax25::Address::assertSsidIsValid Pages: 1 -->
<svg width="1306pt" height="334pt"
 viewBox="0.00 0.00 1306.00 334.00" xmlns="http://www.w3.org/2000/svg" xmlns:xlink="http://www.w3.org/1999/xlink">
<g id="graph0" class="graph" transform="scale(1 1) rotate(0) translate(4 330)">
<title>signal_easel::ax25::Address::assertSsidIsValid</title>
<!-- Node1 -->
<g id="node1" class="node">
<title>Node1</title>
<g id="a_node1"><a xlink:title=" ">
<polygon fill="#bfbfbf" stroke="black" points="1148,-49.5 1148,-79.5 1298,-79.5 1298,-49.5 1148,-49.5"/>
<text text-anchor="start" x="1156" y="-67.5" font-family="Helvetica,sans-Serif" font-size="10.00">signal_easel::ax25</text>
<text text-anchor="middle" x="1223" y="-56.5" font-family="Helvetica,sans-Serif" font-size="10.00">::Address::assertSsidIsValid</text>
</a>
</g>
</g>
<!-- Node2 -->
<g id="node2" class="node">
<title>Node2</title>
<g id="a_node2"><a xlink:href="classsignal__easel_1_1ax25_1_1Address.html#a7fa6b0ef4241413893f201660991e4ea" target="_top" xlink:title="Checks if the address is valid, if not throws an exception with a specific error code.">
<polygon fill="none" stroke="black" points="976,-150.5 976,-180.5 1106,-180.5 1106,-150.5 976,-150.5"/>
<text text-anchor="start" x="984" y="-168.5" font-family="Helvetica,sans-Serif" font-size="10.00">signal_easel::ax25</text>
<text text-anchor="middle" x="1041" y="-157.5" font-family="Helvetica,sans-Serif" font-size="10.00">::Address::assertIsValid</text>
</a>
</g>
</g>
<!-- Node1&#45;&gt;Node2 -->
<g id="edge1" class="edge">
<title>Node1&#45;&gt;Node2</title>
<path fill="none" stroke="midnightblue" d="M1186.22,-84.58C1151.63,-103.98 1100.03,-132.94 1068.84,-150.44"/>
<polygon fill="midnightblue" stroke="midnightblue" points="1188.04,-87.57 1195.05,-79.62 1184.62,-81.46 1188.04,-87.57"/>
</g>
<!-- Node19 -->
<g id="node19" class="node">
<title>Node19</title>
<g id="a_node19"><a xlink:href="classsignal__easel_1_1ax25_1_1Address.html#a6a2594f26aa1d2a46e33d7da1a1d5fdd" target="_top" xlink:title="Decode an AX.25 address from it&#39;s byte array representation.">
<polygon fill="none" stroke="black" points="970,-49.5 970,-79.5 1112,-79.5 1112,-49.5 970,-49.5"/>
<text text-anchor="start" x="978" y="-67.5" font-family="Helvetica,sans-Serif" font-size="10.00">signal_easel::ax25</text>
<text text-anchor="middle" x="1041" y="-56.5" font-family="Helvetica,sans-Serif" font-size="10.00">::Address::decodeAddress</text>
</a>
</g>
</g>
<!-- Node1&#45;&gt;Node19 -->
<g id="edge28" class="edge">
<title>Node1&#45;&gt;Node19</title>
<path fill="none" stroke="midnightblue" d="M1137.71,-64.5C1129.11,-64.5 1120.45,-64.5 1112.03,-64.5"/>
<polygon fill="midnightblue" stroke="midnightblue" points="1137.75,-68 1147.75,-64.5 1137.75,-61 1137.75,-68"/>
</g>
<!-- Node21 -->
<g id="node21" class="node">
<title>Node21</title>
<g id="a_node21"><a xlink:href="classsignal__easel_1_1ax25_1_1Address.html#a069a8d96c0d74e4a3288876c429c7187" target="_top" xlink:title="Set the SSID (0&#45;15)">
<polygon fill="none" stroke="black" points="987.5,-0.5 987.5,-30.5 1094.5,-30.5 1094.5,-0.5 987.5,-0.5"/>
<text text-anchor="start" x="995.5" y="-18.5" font-family="Helvetica,sans-Serif" font-size="10.00">signal_easel::ax25</text>
<text text-anchor="middle" x="1041" y="-7.5" font-family="Helvetica,sans-Serif" font-size="10.00">::Address::setSsid</text>
</a>
</g>
</g>
<!-- Node1&#45;&gt;Node21 -->
<g id="edge30" class="edge">
<title>Node1&#45;&gt;Node21</title>
<path fill="none" stroke="midnightblue" d="M1156.66,-46.71C1136.23,-41.15 1113.96,-35.09 1094.52,-29.8"/>
<polygon fill="midnightblue" stroke="midnightblue" points="1155.96,-50.15 1166.53,-49.4 1157.8,-43.39 1155.96,-50.15"/>
</g>
<!-- Node3 -->
<g id="node3" class="node">
<title>Node3</title>
<g id="a_node3"><a xlink:href="classsignal__easel_1_1ax25_1_1Frame.html#af86d4b534367a8faf6b628301c9ffceb" target="_top" xlink:title=" ">
<polygon fill="none" stroke="black" points="590.5,-71.5 590.5,-101.5 751.5,-101.5 751.5,-71.5 590.5,-71.5"/>
<text text-anchor="start" x="598.5" y="-89.5" font-family="Helvetica,sans-Serif" font-size="10.00">signal_easel::ax25</text>
<text text-anchor="middle" x="671" y="-78.5" font-family="Helvetica,sans-Serif" font-size="10.00">::Frame::addRepeaterAddress</text>
</a>
</g>
</g>
<!-- Node2&#45;&gt;Node3 -->
<g id="edge2" class="edge">
<title>Node2&#45;&gt;Node3</title>
<path fill="none" stroke="midnightblue" d="M966.06,-148.6C955.31,-146.19 944.37,-143.76 934,-141.5 870.31,-127.61 797.77,-112.43 745.19,-101.54"/>
<polygon fill="midnightblue" stroke="midnightblue" points="965.33,-152.03 975.85,-150.81 966.87,-145.2 965.33,-152.03"/>
</g>
<!-- Node9 -->
<g id="node9" class="node">
<title>Node9</title>
<g id="a_node9"><a xlink:href="classsignal__easel_1_1ax25_1_1Address.html#a0c31737081a9184b56dc32150b23cb0a" target="_top" xlink:title="Get the address as a byte array.">
<polygon fill="none" stroke="black" points="792,-257.5 792,-287.5 934,-287.5 934,-257.5 792,-257.5"/>
<text text-anchor="start" x="800" y="-275.5" font-family="Helvetica,sans-Serif" font-size="10.00">signal_easel::ax25</text>
<text text-anchor="middle" x="863" y="-264.5" font-family="Helvetica,sans-Serif" font-size="10.00">::Address::encodeAddress</text>
</a>
</g>
</g>
<!-- Node2&#45;&gt;Node9 -->
<g id="edge8" class="edge">
<title>Node2&#45;&gt;Node9</title>
<path fill="none" stroke="midnightblue" d="M1013.68,-187.18C992.88,-203.67 962.68,-226.21 934,-242.5 924.34,-247.99 913.49,-253.1 903.26,-257.5"/>
<polygon fill="midnightblue" stroke="midnightblue" points="1016.1,-189.73 1021.71,-180.75 1011.72,-184.27 1016.1,-189.73"/>
</g>
<!-- Node15 -->
<g id="node15" class="node">
<title>Node15</title>
<g id="a_node15"><a xlink:href="classsignal__easel_1_1ax25_1_1Frame.html#a57b163ece54317da8d95f3b18b47c23d" target="_top" xlink:title="setters/getters for the frame.">
<polygon fill="none" stroke="black" points="586,-120.5 586,-150.5 756,-150.5 756,-120.5 586,-120.5"/>
<text text-anchor="start" x="594" y="-138.5" font-family="Helvetica,sans-Serif" font-size="10.00">signal_easel::ax25</text>
<text text-anchor="middle" x="671" y="-127.5" font-family="Helvetica,sans-Serif" font-size="10.00">::Frame::setDestinationAddress</text>
</a>
</g>
</g>
<!-- Node2&#45;&gt;Node15 -->
<g id="edge16" class="edge">
<title>Node2&#45;&gt;Node15</title>
<path fill="none" stroke="midnightblue" d="M965.63,-159.44C904.95,-154.49 819.24,-147.5 756.08,-142.35"/>
<polygon fill="midnightblue" stroke="midnightblue" points="965.65,-162.95 975.9,-160.27 966.22,-155.97 965.65,-162.95"/>
</g>
<!-- Node17 -->
<g id="node17" class="node">
<title>Node17</title>
<g id="a_node17"><a xlink:href="ax25__frame__test_8cpp.html#a091d83d42783f2a0b3fd33a0521dc2ce" target="_top" xlink:title=" ">
<polygon fill="none" stroke="black" points="462,-250 462,-269 503,-269 503,-250 462,-250"/>
<text text-anchor="middle" x="482.5" y="-257" font-family="Helvetica,sans-Serif" font-size="10.00">TEST</text>
</a>
</g>
</g>
<!-- Node2&#45;&gt;Node17 -->
<g id="edge27" class="edge">
<title>Node2&#45;&gt;Node17</title>
<path fill="none" stroke="midnightblue" d="M966.11,-181.29C955.35,-183.46 944.4,-185.59 934,-187.5 768.07,-217.96 566.39,-247.58 503.32,-256.67"/>
<polygon fill="midnightblue" stroke="midnightblue" points="966.81,-184.72 975.91,-179.3 965.41,-177.86 966.81,-184.72"/>
</g>
<!-- Node18 -->
<g id="node18" class="node">
<title>Node18</title>
<g id="a_node18"><a xlink:href="classsignal__easel_1_1ax25_1_1Frame.html#a402d26a81f82bb5c477e8930b75a771e" target="_top" xlink:title=" ">
<polygon fill="none" stroke="black" points="598,-169.5 598,-199.5 744,-199.5 744,-169.5 598,-169.5"/>
<text text-anchor="start" x="606" y="-187.5" font-family="Helvetica,sans-Serif" font-size="10.00">signal_easel::ax25</text>
<text text-anchor="middle" x="671" y="-176.5" font-family="Helvetica,sans-Serif" font-size="10.00">::Frame::setSourceAddress</text>
</a>
</g>
</g>
<!-- Node2&#45;&gt;Node18 -->
<g id="edge22" class="edge">
<title>Node2&#45;&gt;Node18</title>
<path fill="none" stroke="midnightblue" d="M965.79,-169.33C901.2,-172.67 808.16,-177.47 744.18,-180.77"/>
<polygon fill="midnightblue" stroke="midnightblue" points="966.09,-172.82 975.9,-168.81 965.73,-165.83 966.09,-172.82"/>
</g>
<!-- Node4 -->
<g id="node4" class="node">
<title>Node4</title>
<g id="a_node4"><a xlink:href="tmp_8cpp.html#ae66f6b31b5ad750f1fe042a706a4e3d4" target="_top" xlink:title=" ">
<polygon fill="none" stroke="black" points="282,-129 282,-148 323,-148 323,-129 282,-129"/>
<text text-anchor="middle" x="302.5" y="-136" font-family="Helvetica,sans-Serif" font-size="10.00">main</text>
</a>
</g>
</g>
<!-- Node3&#45;&gt;Node4 -->
<g id="edge3" class="edge">
<title>Node3&#45;&gt;Node4</title>
<path fill="none" stroke="midnightblue" d="M623.23,-68.14C569.6,-50.23 480.63,-30.38 415,-65.5 389.57,-79.11 402.56,-102.87 379,-119.5 362.44,-131.19 339.36,-135.71 323.09,-137.44"/>
<polygon fill="midnightblue" stroke="midnightblue" points="622.23,-71.5 632.82,-71.45 624.51,-64.88 622.23,-71.5"/>
</g>
<!-- Node5 -->
<g id="node5" class="node">
<title>Node5</title>
<g id="a_node5"><a xlink:href="classsignal__easel_1_1ax25_1_1Frame.html#a63cf2362c2a90d20f09bbbc4f24a07ba" target="_top" xlink:title="Attempt to parse an incoming bit stream into an AX.25 frame.">
<polygon fill="none" stroke="black" points="415,-74.5 415,-104.5 550,-104.5 550,-74.5 415,-74.5"/>
<text text-anchor="start" x="423" y="-92.5" font-family="Helvetica,sans-Serif" font-size="10.00">signal_easel::ax25</text>
<text text-anchor="middle" x="482.5" y="-81.5" font-family="Helvetica,sans-Serif" font-size="10.00">::Frame::parseBitStream</text>
</a>
</g>
</g>
<!-- Node3&#45;&gt;Node5 -->
<g id="edge4" class="edge">
<title>Node3&#45;&gt;Node5</title>
<path fill="none" stroke="midnightblue" d="M580.29,-87.94C570.17,-88.11 560,-88.27 550.26,-88.43"/>
<polygon fill="midnightblue" stroke="midnightblue" points="580.42,-91.44 590.37,-87.78 580.31,-84.44 580.42,-91.44"/>
</g>
<!-- Node6 -->
<g id="node6" class="node">
<title>Node6</title>
<g id="a_node6"><a xlink:href="classsignal__easel_1_1aprs_1_1Demodulator.html#ae5a8e7634c1bc8d215a0c454a9a737fa" target="_top" xlink:title=" ">
<polygon fill="none" stroke="black" points="226,-69 226,-110 379,-110 379,-69 226,-69"/>
<text text-anchor="start" x="234" y="-98" font-family="Helvetica,sans-Serif" font-size="10.00">signal_easel::aprs</text>
<text text-anchor="start" x="234" y="-87" font-family="Helvetica,sans-Serif" font-size="10.00">::Demodulator::lookForAx25</text>
<text text-anchor="middle" x="302.5" y="-76" font-family="Helvetica,sans-Serif" font-size="10.00">Packet</text>
</a>
</g>
</g>
<!-- Node5&#45;&gt;Node6 -->
<g id="edge5" class="edge">
<title>Node5&#45;&gt;Node6</title>
<path fill="none" stroke="midnightblue" d="M404.74,-89.5C396.29,-89.5 387.68,-89.5 379.23,-89.5"/>
<polygon fill="midnightblue" stroke="midnightblue" points="404.97,-93 414.97,-89.5 404.97,-86 404.97,-93"/>
</g>
<!-- Node7 -->
<g id="node7" class="node">
<title>Node7</title>
<g id="a_node7"><a xlink:href="classsignal__easel_1_1aprs_1_1Receiver.html#afbf7869aceaf2ea7ab0be8b9af16e818" target="_top" xlink:title=" ">
<polygon fill="none" stroke="black" points="80,-118.5 80,-148.5 187,-148.5 187,-118.5 80,-118.5"/>
<text text-anchor="start" x="88" y="-136.5" font-family="Helvetica,sans-Serif" font-size="10.00">signal_easel::aprs</text>
<text text-anchor="middle" x="133.5" y="-125.5" font-family="Helvetica,sans-Serif" font-size="10.00">::Receiver::decode</text>
</a>
</g>
</g>
<!-- Node6&#45;&gt;Node7 -->
<g id="edge6" class="edge">
<title>Node6&#45;&gt;Node7</title>
<path fill="none" stroke="midnightblue" d="M216.08,-112.01C206.34,-114.57 196.63,-117.13 187.48,-119.54"/>
<polygon fill="midnightblue" stroke="midnightblue" points="217.04,-115.37 225.82,-109.44 215.26,-108.6 217.04,-115.37"/>
</g>
<!-- Node8 -->
<g id="node8" class="node">
<title>Node8</title>
<g id="a_node8"><a xlink:href="aprs__test_8cpp.html#aea66d1824e3f1e27598adf99ac6a089a" target="_top" xlink:title=" ">
<polygon fill="none" stroke="black" points="0,-126 0,-145 41,-145 41,-126 0,-126"/>
<text text-anchor="middle" x="20.5" y="-133" font-family="Helvetica,sans-Serif" font-size="10.00">TEST</text>
</a>
</g>
</g>
<!-- Node6&#45;&gt;Node8 -->
<g id="edge7" class="edge">
<title>Node6&#45;&gt;Node8</title>
<path fill="none" stroke="midnightblue" d="M215.77,-90.15C173.4,-92.22 121.86,-97.4 77,-109.5 63.23,-113.21 48.67,-120.16 37.92,-125.94"/>
<polygon fill="midnightblue" stroke="midnightblue" points="215.94,-93.64 225.78,-89.71 215.63,-86.65 215.94,-93.64"/>
</g>
<!-- Node10 -->
<g id="node10" class="node">
<title>Node10</title>
<g id="a_node10"><a xlink:href="classsignal__easel_1_1ax25_1_1Frame.html#a24e7d5ffc6504a3380e97142d1bc084e" target="_top" xlink:title="Builds all internal portions of the frame. Doesn&#39;t include the flags.">
<polygon fill="none" stroke="black" points="614,-295.5 614,-325.5 728,-325.5 728,-295.5 614,-295.5"/>
<text text-anchor="start" x="622" y="-313.5" font-family="Helvetica,sans-Serif" font-size="10.00">signal_easel::ax25</text>
<text text-anchor="middle" x="671" y="-302.5" font-family="Helvetica,sans-Serif" font-size="10.00">::Frame::buildFrame</text>
</a>
</g>
</g>
<!-- Node9&#45;&gt;Node10 -->
<g id="edge9" class="edge">
<title>Node9&#45;&gt;Node10</title>
<path fill="none" stroke="midnightblue" d="M781.87,-288.53C763.85,-292.13 745.09,-295.88 728.29,-299.24"/>
<polygon fill="midnightblue" stroke="midnightblue" points="782.67,-291.94 791.79,-286.54 781.3,-285.07 782.67,-291.94"/>
</g>
<!-- Node14 -->
<g id="node14" class="node">
<title>Node14</title>
<g id="a_node14"><a xlink:href="ax25__address__test_8cpp.html#a1d87028368532ba4ae914da9397571d3" target="_top" xlink:title=" ">
<polygon fill="none" stroke="black" points="650.5,-257 650.5,-276 691.5,-276 691.5,-257 650.5,-257"/>
<text text-anchor="middle" x="671" y="-264" font-family="Helvetica,sans-Serif" font-size="10.00">TEST</text>
</a>
</g>
</g>
<!-- Node9&#45;&gt;Node14 -->
<g id="edge15" class="edge">
<title>Node9&#45;&gt;Node14</title>
<path fill="none" stroke="midnightblue" d="M781.63,-269.96C748.57,-268.92 713.09,-267.8 691.72,-267.12"/>
<polygon fill="midnightblue" stroke="midnightblue" points="781.69,-273.47 791.79,-270.28 781.91,-266.47 781.69,-273.47"/>
</g>
<!-- Node11 -->
<g id="node11" class="node">
<title>Node11</title>
<g id="a_node11"><a xlink:href="classsignal__easel_1_1ax25_1_1Frame.html#a2b4f6ebcb7592a7e5a21114c8fafa503" target="_top" xlink:title="A step beyond buildFrame. This function builds the frame, does the bit stuffing, adds the flags,...">
<polygon fill="none" stroke="black" points="420,-288.5 420,-318.5 545,-318.5 545,-288.5 420,-288.5"/>
<text text-anchor="start" x="428" y="-306.5" font-family="Helvetica,sans-Serif" font-size="10.00">signal_easel::ax25</text>
<text text-anchor="middle" x="482.5" y="-295.5" font-family="Helvetica,sans-Serif" font-size="10.00">::Frame::encodeFrame</text>
</a>
</g>
</g>
<!-- Node10&#45;&gt;Node11 -->
<g id="edge10" class="edge">
<title>Node10&#45;&gt;Node11</title>
<path fill="none" stroke="midnightblue" d="M603.69,-308.01C584.62,-307.3 563.9,-306.52 545.13,-305.81"/>
<polygon fill="midnightblue" stroke="midnightblue" points="603.67,-311.51 613.79,-308.39 603.93,-304.52 603.67,-311.51"/>
</g>
<!-- Node11&#45;&gt;Node4 -->
<g id="edge14" class="edge">
<title>Node11&#45;&gt;Node4</title>
<path fill="none" stroke="midnightblue" d="M419.33,-282.61C417.81,-281.32 416.36,-279.95 415,-278.5 376.99,-237.81 419.01,-197.23 379,-158.5 364.09,-144.07 340.04,-139.74 323.09,-138.6"/>
<polygon fill="midnightblue" stroke="midnightblue" points="417.34,-285.49 427.52,-288.43 421.39,-279.78 417.34,-285.49"/>
</g>
<!-- Node12 -->
<g id="node12" class="node">
<title>Node12</title>
<g id="a_node12"><a xlink:href="namespacesignal__easel_1_1aprs.html#a77481001a5b78a839972bb4220b43e4d" target="_top" xlink:title=" ">
<polygon fill="none" stroke="black" points="250.5,-167.5 250.5,-197.5 354.5,-197.5 354.5,-167.5 250.5,-167.5"/>
<text text-anchor="start" x="258.5" y="-185.5" font-family="Helvetica,sans-Serif" font-size="10.00">signal_easel::aprs</text>
<text text-anchor="middle" x="302.5" y="-174.5" font-family="Helvetica,sans-Serif" font-size="10.00">::encodePacket</text>
</a>
</g>
</g>
<!-- Node11&#45;&gt;Node12 -->
<g id="edge11" class="edge">
<title>Node11&#45;&gt;Node12</title>
<path fill="none" stroke="midnightblue" d="M425.75,-284.24C422.04,-282.44 418.42,-280.53 415,-278.5 376.11,-255.44 337.7,-218.38 317.69,-197.7"/>
<polygon fill="midnightblue" stroke="midnightblue" points="424.53,-287.54 435.09,-288.47 427.42,-281.16 424.53,-287.54"/>
</g>
<!-- Node13 -->
<g id="node13" class="node">
<title>Node13</title>
<g id="a_node13"><a xlink:href="classsignal__easel_1_1aprs_1_1Modulator.html#a8ae067701382dec1680b786583ace687" target="_top" xlink:title=" ">
<polygon fill="none" stroke="black" points="77,-167.5 77,-197.5 190,-197.5 190,-167.5 77,-167.5"/>
<text text-anchor="start" x="85" y="-185.5" font-family="Helvetica,sans-Serif" font-size="10.00">signal_easel::aprs</text>
<text text-anchor="middle" x="133.5" y="-174.5" font-family="Helvetica,sans-Serif" font-size="10.00">::Modulator::encode</text>
</a>
</g>
</g>
<!-- Node12&#45;&gt;Node13 -->
<g id="edge12" class="edge">
<title>Node12&#45;&gt;Node13</title>
<path fill="none" stroke="midnightblue" d="M240.43,-182.5C223.98,-182.5 206.28,-182.5 190.14,-182.5"/>
<polygon fill="midnightblue" stroke="midnightblue" points="240.49,-186 250.49,-182.5 240.49,-179 240.49,-186"/>
</g>
<!-- Node13&#45;&gt;Node8 -->
<g id="edge13" class="edge">
<title>Node13&#45;&gt;Node8</title>
<path fill="none" stroke="midnightblue" d="M87.72,-163.54C71.51,-156.68 54.03,-149.28 41.11,-143.8"/>
<polygon fill="midnightblue" stroke="midnightblue" points="86.5,-166.82 97.07,-167.5 89.23,-160.38 86.5,-166.82"/>
</g>
<!-- Node15&#45;&gt;Node4 -->
<g id="edge19" class="edge">
<title>Node15&#45;&gt;Node4</title>
<path fill="none" stroke="midnightblue" d="M575.89,-136.27C490.05,-136.97 369.7,-137.96 323.05,-138.34"/>
<polygon fill="midnightblue" stroke="midnightblue" points="575.95,-139.77 585.92,-136.19 575.89,-132.77 575.95,-139.77"/>
</g>
<!-- Node15&#45;&gt;Node5 -->
<g id="edge20" class="edge">
<title>Node15&#45;&gt;Node5</title>
<path fill="none" stroke="midnightblue" d="M599.06,-118C581.05,-113.56 561.85,-108.83 544.39,-104.52"/>
<polygon fill="midnightblue" stroke="midnightblue" points="598.39,-121.44 608.93,-120.44 600.06,-114.64 598.39,-121.44"/>
</g>
<!-- Node16 -->
<g id="node16" class="node">
<title>Node16</title>
<g id="a_node16"><a xlink:href="namespacesignal__easel_1_1aprs.html#a586b022fa0c917fa8557bbd5cdc6aeeb" target="_top" xlink:title=" ">
<polygon fill="none" stroke="black" points="426,-162.5 426,-192.5 539,-192.5 539,-162.5 426,-162.5"/>
<text text-anchor="start" x="434" y="-180.5" font-family="Helvetica,sans-Serif" font-size="10.00">signal_easel::aprs</text>
<text text-anchor="middle" x="482.5" y="-169.5" font-family="Helvetica,sans-Serif" font-size="10.00">::AddRequiredFields</text>
</a>
</g>
</g>
<!-- Node15&#45;&gt;Node16 -->
<g id="edge17" class="edge">
<title>Node15&#45;&gt;Node16</title>
<path fill="none" stroke="midnightblue" d="M593.22,-152.79C575.08,-156.88 556.08,-161.16 539.08,-164.98"/>
<polygon fill="midnightblue" stroke="midnightblue" points="594.21,-156.16 603.2,-150.54 592.67,-149.33 594.21,-156.16"/>
</g>
<!-- Node15&#45;&gt;Node17 -->
<g id="edge21" class="edge">
<title>Node15&#45;&gt;Node17</title>
<path fill="none" stroke="midnightblue" d="M595.81,-154.89C592.41,-156.61 589.12,-158.48 586,-160.5 565.38,-173.89 567.38,-185.12 550,-202.5 532.15,-220.35 509.49,-239.02 495.76,-249.94"/>
<polygon fill="midnightblue" stroke="midnightblue" points="597.38,-158.02 605.01,-150.68 594.46,-151.66 597.38,-158.02"/>
</g>
<!-- Node16&#45;&gt;Node12 -->
<g id="edge18" class="edge">
<title>Node16&#45;&gt;Node12</title>
<path fill="none" stroke="midnightblue" d="M415.62,-179.35C395.47,-179.92 373.61,-180.53 354.6,-181.06"/>
<polygon fill="midnightblue" stroke="midnightblue" points="415.77,-182.85 425.67,-179.07 415.57,-175.85 415.77,-182.85"/>
</g>
<!-- Node18&#45;&gt;Node4 -->
<g id="edge24" class="edge">
<title>Node18&#45;&gt;Node4</title>
<path fill="none" stroke="midnightblue" d="M618.31,-202.47C564.75,-217.92 479.94,-233.27 415,-202.5 392.17,-191.68 400.24,-172.18 379,-158.5 362.01,-147.56 339.22,-142.58 323.14,-140.33"/>
<polygon fill="midnightblue" stroke="midnightblue" points="619.35,-205.81 627.93,-199.6 617.35,-199.11 619.35,-205.81"/>
</g>
<!-- Node18&#45;&gt;Node5 -->
<g id="edge25" class="edge">
<title>Node18&#45;&gt;Node5</title>
<path fill="none" stroke="midnightblue" d="M598.83,-165.97C594.43,-164.27 590.12,-162.45 586,-160.5 553.91,-145.31 520.87,-120.45 501.27,-104.53"/>
<polygon fill="midnightblue" stroke="midnightblue" points="597.98,-169.38 608.57,-169.5 600.36,-162.8 597.98,-169.38"/>
</g>
<!-- Node18&#45;&gt;Node16 -->
<g id="edge23" class="edge">
<title>Node18&#45;&gt;Node16</title>
<path fill="none" stroke="midnightblue" d="M587.76,-181.41C571.35,-180.8 554.48,-180.16 539.22,-179.59"/>
<polygon fill="midnightblue" stroke="midnightblue" points="587.77,-184.92 597.89,-181.79 588.03,-177.92 587.77,-184.92"/>
</g>
<!-- Node18&#45;&gt;Node17 -->
<g id="edge26" class="edge">
<title>Node18&#45;&gt;Node17</title>
<path fill="none" stroke="midnightblue" d="M613.21,-203.16C604,-206.65 594.65,-210.48 586,-214.5 569.21,-222.32 566.78,-227.66 550,-235.5 534.66,-242.67 516.53,-249.09 503.08,-253.47"/>
<polygon fill="midnightblue" stroke="midnightblue" points="614.56,-206.4 622.73,-199.65 612.14,-199.83 614.56,-206.4"/>
</g>
<!-- Node20 -->
<g id="node20" class="node">
<title>Node20</title>
<g id="a_node20"><a xlink:href="classsignal__easel_1_1ax25_1_1Address.html#a2ffb5475017120d1071e4b8d3f35c394" target="_top" xlink:title=" ">
<polygon fill="none" stroke="black" points="809.5,-49.5 809.5,-79.5 916.5,-79.5 916.5,-49.5 809.5,-49.5"/>
<text text-anchor="start" x="817.5" y="-67.5" font-family="Helvetica,sans-Serif" font-size="10.00">signal_easel::ax25</text>
<text text-anchor="middle" x="863" y="-56.5" font-family="Helvetica,sans-Serif" font-size="10.00">::Address::Address</text>
</a>
</g>
</g>
<!-- Node19&#45;&gt;Node20 -->
<g id="edge29" class="edge">
<title>Node19&#45;&gt;Node20</title>
<path fill="none" stroke="midnightblue" d="M959.87,-64.5C945.24,-64.5 930.32,-64.5 916.74,-64.5"/>
<polygon fill="midnightblue" stroke="midnightblue" points="959.93,-68 969.93,-64.5 959.93,-61 959.93,-68"/>
</g>
<!-- Node22 -->
<g id="node22" class="node">
<title>Node22</title>
<g id="a_node22"><a xlink:href="classsignal__easel_1_1ax25_1_1Address.html#af2e2c1061b619a32d966d4b08eed7ede" target="_top" xlink:title=" ">
<polygon fill="none" stroke="black" points="809.5,-0.5 809.5,-30.5 916.5,-30.5 916.5,-0.5 809.5,-0.5"/>
<text text-anchor="start" x="817.5" y="-18.5" font-family="Helvetica,sans-Serif" font-size="10.00">signal_easel::ax25</text>
<text text-anchor="middle" x="863" y="-7.5" font-family="Helvetica,sans-Serif" font-size="10.00">::Address::Address</text>
</a>
</g>
</g>
<!-- Node21&#45;&gt;Node22 -->
<g id="edge31" class="edge">
<title>Node21&#45;&gt;Node22</title>
<path fill="none" stroke="midnightblue" d="M977.06,-15.5C957.32,-15.5 935.73,-15.5 916.77,-15.5"/>
<polygon fill="midnightblue" stroke="midnightblue" points="977.19,-19 987.19,-15.5 977.19,-12 977.19,-19"/>
</g>
</g>
</svg>
