<?xml version="1.0" encoding="UTF-8" standalone="no"?>
<!DOCTYPE svg PUBLIC "-//W3C//DTD SVG 1.1//EN"
 "http://www.w3.org/Graphics/SVG/1.1/DTD/svg11.dtd">
<!-- Generated by graphviz version 2.43.0 (0)
 -->
<!-- Title: signal_easel::ax25::Address::assertAddressStringIsValid Pages: 1 -->
<svg width="1360pt" height="297pt"
 viewBox="0.00 0.00 1360.00 296.50" xmlns="http://www.w3.org/2000/svg" xmlns:xlink="http://www.w3.org/1999/xlink">
<g id="graph0" class="graph" transform="scale(1 1) rotate(0) translate(4 292.5)">
<title>signal_easel::ax25::Address::assertAddressStringIsValid</title>
<!-- Node1 -->
<g id="node1" class="node">
<title>Node1</title>
<g id="a_node1"><a xlink:title=" ">
<polygon fill="#bfbfbf" stroke="black" points="1187,-63 1187,-104 1352,-104 1352,-63 1187,-63"/>
<text text-anchor="start" x="1195" y="-92" font-family="Helvetica,sans-Serif" font-size="10.00">signal_easel::ax25</text>
<text text-anchor="start" x="1195" y="-81" font-family="Helvetica,sans-Serif" font-size="10.00">::Address::assertAddressString</text>
<text text-anchor="middle" x="1269.5" y="-70" font-family="Helvetica,sans-Serif" font-size="10.00">IsValid</text>
</a>
</g>
</g>
<!-- Node2 -->
<g id="node2" class="node">
<title>Node2</title>
<g id="a_node2"><a xlink:href="classsignal__easel_1_1ax25_1_1Address.html#a7fa6b0ef4241413893f201660991e4ea" target="_top" xlink:title="Checks if the address is valid, if not throws an exception with a specific error code.">
<polygon fill="none" stroke="black" points="1011,-115.5 1011,-145.5 1141,-145.5 1141,-115.5 1011,-115.5"/>
<text text-anchor="start" x="1019" y="-133.5" font-family="Helvetica,sans-Serif" font-size="10.00">signal_easel::ax25</text>
<text text-anchor="middle" x="1076" y="-122.5" font-family="Helvetica,sans-Serif" font-size="10.00">::Address::assertIsValid</text>
</a>
</g>
</g>
<!-- Node1&#45;&gt;Node2 -->
<g id="edge1" class="edge">
<title>Node1&#45;&gt;Node2</title>
<path fill="none" stroke="midnightblue" d="M1176.77,-106.01C1163.69,-109.22 1150.52,-112.46 1138.22,-115.48"/>
<polygon fill="midnightblue" stroke="midnightblue" points="1177.85,-109.35 1186.73,-103.57 1176.19,-102.55 1177.85,-109.35"/>
</g>
<!-- Node20 -->
<g id="node20" class="node">
<title>Node20</title>
<g id="a_node20"><a xlink:href="classsignal__easel_1_1ax25_1_1Address.html#a3cd5feeb41b5d508961bcbafd0b8f246" target="_top" xlink:title="Set the Address String object.">
<polygon fill="none" stroke="black" points="1001,-44.5 1001,-74.5 1151,-74.5 1151,-44.5 1001,-44.5"/>
<text text-anchor="start" x="1009" y="-62.5" font-family="Helvetica,sans-Serif" font-size="10.00">signal_easel::ax25</text>
<text text-anchor="middle" x="1076" y="-51.5" font-family="Helvetica,sans-Serif" font-size="10.00">::Address::setAddressString</text>
</a>
</g>
</g>
<!-- Node1&#45;&gt;Node20 -->
<g id="edge26" class="edge">
<title>Node1&#45;&gt;Node20</title>
<path fill="none" stroke="midnightblue" d="M1176.73,-72C1168.18,-70.93 1159.59,-69.85 1151.22,-68.8"/>
<polygon fill="midnightblue" stroke="midnightblue" points="1176.37,-75.48 1186.73,-73.25 1177.24,-68.54 1176.37,-75.48"/>
</g>
<!-- Node3 -->
<g id="node3" class="node">
<title>Node3</title>
<g id="a_node3"><a xlink:href="classsignal__easel_1_1ax25_1_1Frame.html#af86d4b534367a8faf6b628301c9ffceb" target="_top" xlink:title=" ">
<polygon fill="none" stroke="black" points="799.5,-235.5 799.5,-265.5 960.5,-265.5 960.5,-235.5 799.5,-235.5"/>
<text text-anchor="start" x="807.5" y="-253.5" font-family="Helvetica,sans-Serif" font-size="10.00">signal_easel::ax25</text>
<text text-anchor="middle" x="880" y="-242.5" font-family="Helvetica,sans-Serif" font-size="10.00">::Frame::addRepeaterAddress</text>
</a>
</g>
</g>
<!-- Node2&#45;&gt;Node3 -->
<g id="edge2" class="edge">
<title>Node2&#45;&gt;Node3</title>
<path fill="none" stroke="midnightblue" d="M1054.66,-153.31C1034.07,-175.07 1000.3,-207.31 965,-226.5 958.74,-229.9 951.94,-232.87 945.02,-235.44"/>
<polygon fill="midnightblue" stroke="midnightblue" points="1057.39,-155.51 1061.63,-145.8 1052.26,-150.75 1057.39,-155.51"/>
</g>
<!-- Node10 -->
<g id="node10" class="node">
<title>Node10</title>
<g id="a_node10"><a xlink:href="classsignal__easel_1_1ax25_1_1Address.html#a0c31737081a9184b56dc32150b23cb0a" target="_top" xlink:title="Get the address as a byte array.">
<polygon fill="none" stroke="black" points="809,-49.5 809,-79.5 951,-79.5 951,-49.5 809,-49.5"/>
<text text-anchor="start" x="817" y="-67.5" font-family="Helvetica,sans-Serif" font-size="10.00">signal_easel::ax25</text>
<text text-anchor="middle" x="880" y="-56.5" font-family="Helvetica,sans-Serif" font-size="10.00">::Address::encodeAddress</text>
</a>
</g>
</g>
<!-- Node2&#45;&gt;Node10 -->
<g id="edge9" class="edge">
<title>Node2&#45;&gt;Node10</title>
<path fill="none" stroke="midnightblue" d="M1020.97,-112.12C990.82,-101.86 953.72,-89.24 925.3,-79.57"/>
<polygon fill="midnightblue" stroke="midnightblue" points="1019.9,-115.45 1030.49,-115.36 1022.15,-108.82 1019.9,-115.45"/>
</g>
<!-- Node16 -->
<g id="node16" class="node">
<title>Node16</title>
<g id="a_node16"><a xlink:href="classsignal__easel_1_1ax25_1_1Frame.html#a57b163ece54317da8d95f3b18b47c23d" target="_top" xlink:title="setters/getters for the frame.">
<polygon fill="none" stroke="black" points="795,-186.5 795,-216.5 965,-216.5 965,-186.5 795,-186.5"/>
<text text-anchor="start" x="803" y="-204.5" font-family="Helvetica,sans-Serif" font-size="10.00">signal_easel::ax25</text>
<text text-anchor="middle" x="880" y="-193.5" font-family="Helvetica,sans-Serif" font-size="10.00">::Frame::setDestinationAddress</text>
</a>
</g>
</g>
<!-- Node2&#45;&gt;Node16 -->
<g id="edge16" class="edge">
<title>Node2&#45;&gt;Node16</title>
<path fill="none" stroke="midnightblue" d="M1033.39,-149.74C1013.02,-158.78 987.98,-169.34 965,-177.5 956.14,-180.65 946.64,-183.67 937.34,-186.46"/>
<polygon fill="midnightblue" stroke="midnightblue" points="1035,-152.85 1042.69,-145.57 1032.14,-146.47 1035,-152.85"/>
</g>
<!-- Node18 -->
<g id="node18" class="node">
<title>Node18</title>
<g id="a_node18"><a xlink:href="ax25__frame__test_8cpp.html#a091d83d42783f2a0b3fd33a0521dc2ce" target="_top" xlink:title=" ">
<polygon fill="none" stroke="black" points="657.5,-121 657.5,-140 698.5,-140 698.5,-121 657.5,-121"/>
<text text-anchor="middle" x="678" y="-128" font-family="Helvetica,sans-Serif" font-size="10.00">TEST</text>
</a>
</g>
</g>
<!-- Node2&#45;&gt;Node18 -->
<g id="edge25" class="edge">
<title>Node2&#45;&gt;Node18</title>
<path fill="none" stroke="midnightblue" d="M1000.42,-128.19C988.57,-127.9 976.45,-127.66 965,-127.5 889.45,-126.47 870.55,-126.52 795,-127.5 761.16,-127.94 721.78,-129.09 698.7,-129.84"/>
<polygon fill="midnightblue" stroke="midnightblue" points="1000.65,-131.7 1010.73,-128.45 1000.82,-124.7 1000.65,-131.7"/>
</g>
<!-- Node19 -->
<g id="node19" class="node">
<title>Node19</title>
<g id="a_node19"><a xlink:href="classsignal__easel_1_1ax25_1_1Frame.html#a402d26a81f82bb5c477e8930b75a771e" target="_top" xlink:title=" ">
<polygon fill="none" stroke="black" points="807,-137.5 807,-167.5 953,-167.5 953,-137.5 807,-137.5"/>
<text text-anchor="start" x="815" y="-155.5" font-family="Helvetica,sans-Serif" font-size="10.00">signal_easel::ax25</text>
<text text-anchor="middle" x="880" y="-144.5" font-family="Helvetica,sans-Serif" font-size="10.00">::Frame::setSourceAddress</text>
</a>
</g>
</g>
<!-- Node2&#45;&gt;Node19 -->
<g id="edge21" class="edge">
<title>Node2&#45;&gt;Node19</title>
<path fill="none" stroke="midnightblue" d="M1000.79,-138.92C985.12,-140.69 968.62,-142.56 953.04,-144.33"/>
<polygon fill="midnightblue" stroke="midnightblue" points="1001.4,-142.37 1010.94,-137.76 1000.61,-135.41 1001.4,-142.37"/>
</g>
<!-- Node4 -->
<g id="node4" class="node">
<title>Node4</title>
<g id="a_node4"><a xlink:href="classsignal__easel_1_1ax25_1_1Frame.html#a40b07872c291deee87c677459a27c21c" target="_top" xlink:title="Attempt to parse a single AX.25 frame from an already NRZI&#45;decoded bit stream. Unlike parseBitStream,...">
<polygon fill="none" stroke="black" points="597,-209 597,-250 759,-250 759,-209 597,-209"/>
<text text-anchor="start" x="605" y="-238" font-family="Helvetica,sans-Serif" font-size="10.00">signal_easel::ax25</text>
<text text-anchor="start" x="605" y="-227" font-family="Helvetica,sans-Serif" font-size="10.00">::Frame::parseNrziDecodedBit</text>
<text text-anchor="middle" x="678" y="-216" font-family="Helvetica,sans-Serif" font-size="10.00">Stream</text>
</a>
</g>
</g>
<!-- Node3&#45;&gt;Node4 -->
<g id="edge3" class="edge">
<title>Node3&#45;&gt;Node4</title>
<path fill="none" stroke="midnightblue" d="M789.42,-241.09C779.39,-240.04 769.23,-238.97 759.33,-237.93"/>
<polygon fill="midnightblue" stroke="midnightblue" points="789.07,-244.58 799.38,-242.14 789.8,-237.61 789.07,-244.58"/>
</g>
<!-- Node5 -->
<g id="node5" class="node">
<title>Node5</title>
<g id="a_node5"><a xlink:href="classsignal__easel_1_1aprs_1_1Demodulator.html#ab4819ac606d0ebf3e5ac235a3bf916df" target="_top" xlink:title="Like lookForAx25Packet, but parses a single AX.25 frame from an already NRZI&#45;decoded bit stream....">
<polygon fill="none" stroke="black" points="409,-247 409,-288 561,-288 561,-247 409,-247"/>
<text text-anchor="start" x="417" y="-276" font-family="Helvetica,sans-Serif" font-size="10.00">signal_easel::aprs</text>
<text text-anchor="start" x="417" y="-265" font-family="Helvetica,sans-Serif" font-size="10.00">::Demodulator::lookForNext</text>
<text text-anchor="middle" x="485" y="-254" font-family="Helvetica,sans-Serif" font-size="10.00">Ax25Packet</text>
</a>
</g>
</g>
<!-- Node4&#45;&gt;Node5 -->
<g id="edge4" class="edge">
<title>Node4&#45;&gt;Node5</title>
<path fill="none" stroke="midnightblue" d="M586.78,-247.45C578.18,-249.16 569.52,-250.88 561.09,-252.56"/>
<polygon fill="midnightblue" stroke="midnightblue" points="587.7,-250.83 596.83,-245.45 586.34,-243.97 587.7,-250.83"/>
</g>
<!-- Node7 -->
<g id="node7" class="node">
<title>Node7</title>
<g id="a_node7"><a xlink:href="classsignal__easel_1_1ax25_1_1Frame.html#a63cf2362c2a90d20f09bbbc4f24a07ba" target="_top" xlink:title="Attempt to parse an incoming bit stream into an AX.25 frame.">
<polygon fill="none" stroke="black" points="417.5,-197.5 417.5,-227.5 552.5,-227.5 552.5,-197.5 417.5,-197.5"/>
<text text-anchor="start" x="425.5" y="-215.5" font-family="Helvetica,sans-Serif" font-size="10.00">signal_easel::ax25</text>
<text text-anchor="middle" x="485" y="-204.5" font-family="Helvetica,sans-Serif" font-size="10.00">::Frame::parseBitStream</text>
</a>
</g>
</g>
<!-- Node4&#45;&gt;Node7 -->
<g id="edge6" class="edge">
<title>Node4&#45;&gt;Node7</title>
<path fill="none" stroke="midnightblue" d="M586.78,-221.47C575.29,-220.45 563.7,-219.42 552.68,-218.43"/>
<polygon fill="midnightblue" stroke="midnightblue" points="586.56,-224.96 596.83,-222.36 587.18,-217.99 586.56,-224.96"/>
</g>
<!-- Node6 -->
<g id="node6" class="node">
<title>Node6</title>
<g id="a_node6"><a xlink:href="classsignal__easel_1_1aprs_1_1Receiver.html#afbf7869aceaf2ea7ab0be8b9af16e818" target="_top" xlink:title=" ">
<polygon fill="none" stroke="black" points="266,-252.5 266,-282.5 373,-282.5 373,-252.5 266,-252.5"/>
<text text-anchor="start" x="274" y="-270.5" font-family="Helvetica,sans-Serif" font-size="10.00">signal_easel::aprs</text>
<text text-anchor="middle" x="319.5" y="-259.5" font-family="Helvetica,sans-Serif" font-size="10.00">::Receiver::decode</text>
</a>
</g>
</g>
<!-- Node5&#45;&gt;Node6 -->
<g id="edge5" class="edge">
<title>Node5&#45;&gt;Node6</title>
<path fill="none" stroke="midnightblue" d="M398.73,-267.5C390.02,-267.5 381.37,-267.5 373.16,-267.5"/>
<polygon fill="midnightblue" stroke="midnightblue" points="398.95,-271 408.95,-267.5 398.95,-264 398.95,-271"/>
</g>
<!-- Node8 -->
<g id="node8" class="node">
<title>Node8</title>
<g id="a_node8"><a xlink:href="classsignal__easel_1_1aprs_1_1Demodulator.html#ae5a8e7634c1bc8d215a0c454a9a737fa" target="_top" xlink:title=" ">
<polygon fill="none" stroke="black" points="77,-192 77,-233 230,-233 230,-192 77,-192"/>
<text text-anchor="start" x="85" y="-221" font-family="Helvetica,sans-Serif" font-size="10.00">signal_easel::aprs</text>
<text text-anchor="start" x="85" y="-210" font-family="Helvetica,sans-Serif" font-size="10.00">::Demodulator::lookForAx25</text>
<text text-anchor="middle" x="153.5" y="-199" font-family="Helvetica,sans-Serif" font-size="10.00">Packet</text>
</a>
</g>
</g>
<!-- Node7&#45;&gt;Node8 -->
<g id="edge7" class="edge">
<title>Node7&#45;&gt;Node8</title>
<path fill="none" stroke="midnightblue" d="M407.23,-212.5C353.87,-212.5 283.09,-212.5 230.01,-212.5"/>
<polygon fill="midnightblue" stroke="midnightblue" points="407.32,-216 417.32,-212.5 407.32,-209 407.32,-216"/>
</g>
<!-- Node9 -->
<g id="node9" class="node">
<title>Node9</title>
<g id="a_node9"><a xlink:href="aprs__test_8cpp.html#aea66d1824e3f1e27598adf99ac6a089a" target="_top" xlink:title=" ">
<polygon fill="none" stroke="black" points="0,-175 0,-194 41,-194 41,-175 0,-175"/>
<text text-anchor="middle" x="20.5" y="-182" font-family="Helvetica,sans-Serif" font-size="10.00">TEST</text>
</a>
</g>
</g>
<!-- Node8&#45;&gt;Node9 -->
<g id="edge8" class="edge">
<title>Node8&#45;&gt;Node9</title>
<path fill="none" stroke="midnightblue" d="M66.67,-194.16C57.26,-192.14 48.46,-190.26 41.18,-188.71"/>
<polygon fill="midnightblue" stroke="midnightblue" points="66.17,-197.63 76.68,-196.29 67.63,-190.78 66.17,-197.63"/>
</g>
<!-- Node11 -->
<g id="node11" class="node">
<title>Node11</title>
<g id="a_node11"><a xlink:href="classsignal__easel_1_1ax25_1_1Frame.html#a24e7d5ffc6504a3380e97142d1bc084e" target="_top" xlink:title="Builds all internal portions of the frame. Doesn&#39;t include the flags.">
<polygon fill="none" stroke="black" points="621,-71.5 621,-101.5 735,-101.5 735,-71.5 621,-71.5"/>
<text text-anchor="start" x="629" y="-89.5" font-family="Helvetica,sans-Serif" font-size="10.00">signal_easel::ax25</text>
<text text-anchor="middle" x="678" y="-78.5" font-family="Helvetica,sans-Serif" font-size="10.00">::Frame::buildFrame</text>
</a>
</g>
</g>
<!-- Node10&#45;&gt;Node11 -->
<g id="edge10" class="edge">
<title>Node10&#45;&gt;Node11</title>
<path fill="none" stroke="midnightblue" d="M798.76,-73.33C777.47,-75.67 754.94,-78.15 735.23,-80.31"/>
<polygon fill="midnightblue" stroke="midnightblue" points="799.21,-76.8 808.77,-72.23 798.45,-69.84 799.21,-76.8"/>
</g>
<!-- Node15 -->
<g id="node15" class="node">
<title>Node15</title>
<g id="a_node15"><a xlink:href="ax25__address__test_8cpp.html#a1d87028368532ba4ae914da9397571d3" target="_top" xlink:title=" ">
<polygon fill="none" stroke="black" points="657.5,-33 657.5,-52 698.5,-52 698.5,-33 657.5,-33"/>
<text text-anchor="middle" x="678" y="-40" font-family="Helvetica,sans-Serif" font-size="10.00">TEST</text>
</a>
</g>
</g>
<!-- Node10&#45;&gt;Node15 -->
<g id="edge15" class="edge">
<title>Node10&#45;&gt;Node15</title>
<path fill="none" stroke="midnightblue" d="M798.6,-55.66C762.14,-51.65 722.07,-47.24 698.8,-44.68"/>
<polygon fill="midnightblue" stroke="midnightblue" points="798.45,-59.16 808.77,-56.77 799.21,-52.2 798.45,-59.16"/>
</g>
<!-- Node12 -->
<g id="node12" class="node">
<title>Node12</title>
<g id="a_node12"><a xlink:href="classsignal__easel_1_1ax25_1_1Frame.html#a2b4f6ebcb7592a7e5a21114c8fafa503" target="_top" xlink:title="A step beyond buildFrame. This function builds the frame, does the bit stuffing, adds the flags,...">
<polygon fill="none" stroke="black" points="422.5,-93.5 422.5,-123.5 547.5,-123.5 547.5,-93.5 422.5,-93.5"/>
<text text-anchor="start" x="430.5" y="-111.5" font-family="Helvetica,sans-Serif" font-size="10.00">signal_easel::ax25</text>
<text text-anchor="middle" x="485" y="-100.5" font-family="Helvetica,sans-Serif" font-size="10.00">::Frame::encodeFrame</text>
</a>
</g>
</g>
<!-- Node11&#45;&gt;Node12 -->
<g id="edge11" class="edge">
<title>Node11&#45;&gt;Node12</title>
<path fill="none" stroke="midnightblue" d="M610.8,-94.13C590.32,-96.48 567.86,-99.07 547.7,-101.39"/>
<polygon fill="midnightblue" stroke="midnightblue" points="611.45,-97.57 620.98,-92.95 610.65,-90.62 611.45,-97.57"/>
</g>
<!-- Node13 -->
<g id="node13" class="node">
<title>Node13</title>
<g id="a_node13"><a xlink:href="namespacesignal__easel_1_1aprs.html#a77481001a5b78a839972bb4220b43e4d" target="_top" xlink:title="The base function to encode an APRS packet with the provided base data and info field.">
<polygon fill="none" stroke="black" points="267.5,-142.5 267.5,-172.5 371.5,-172.5 371.5,-142.5 267.5,-142.5"/>
<text text-anchor="start" x="275.5" y="-160.5" font-family="Helvetica,sans-Serif" font-size="10.00">signal_easel::aprs</text>
<text text-anchor="middle" x="319.5" y="-149.5" font-family="Helvetica,sans-Serif" font-size="10.00">::encodePacket</text>
</a>
</g>
</g>
<!-- Node12&#45;&gt;Node13 -->
<g id="edge12" class="edge">
<title>Node12&#45;&gt;Node13</title>
<path fill="none" stroke="midnightblue" d="M423.56,-126.61C406.18,-131.82 387.42,-137.45 370.72,-142.45"/>
<polygon fill="midnightblue" stroke="midnightblue" points="425.04,-129.82 433.61,-123.6 423.03,-123.12 425.04,-129.82"/>
</g>
<!-- Node14 -->
<g id="node14" class="node">
<title>Node14</title>
<g id="a_node14"><a xlink:href="classsignal__easel_1_1aprs_1_1Modulator.html#a8ae067701382dec1680b786583ace687" target="_top" xlink:title=" ">
<polygon fill="none" stroke="black" points="97,-142.5 97,-172.5 210,-172.5 210,-142.5 97,-142.5"/>
<text text-anchor="start" x="105" y="-160.5" font-family="Helvetica,sans-Serif" font-size="10.00">signal_easel::aprs</text>
<text text-anchor="middle" x="153.5" y="-149.5" font-family="Helvetica,sans-Serif" font-size="10.00">::Modulator::encode</text>
</a>
</g>
</g>
<!-- Node13&#45;&gt;Node14 -->
<g id="edge13" class="edge">
<title>Node13&#45;&gt;Node14</title>
<path fill="none" stroke="midnightblue" d="M256.64,-157.5C241.33,-157.5 225.01,-157.5 210.02,-157.5"/>
<polygon fill="midnightblue" stroke="midnightblue" points="257.06,-161 267.06,-157.5 257.06,-154 257.06,-161"/>
</g>
<!-- Node14&#45;&gt;Node9 -->
<g id="edge14" class="edge">
<title>Node14&#45;&gt;Node9</title>
<path fill="none" stroke="midnightblue" d="M87.13,-170.97C70.4,-174.42 53.66,-177.87 41.28,-180.42"/>
<polygon fill="midnightblue" stroke="midnightblue" points="87.86,-174.4 96.94,-168.95 86.44,-167.54 87.86,-174.4"/>
</g>
<!-- Node16&#45;&gt;Node4 -->
<g id="edge19" class="edge">
<title>Node16&#45;&gt;Node4</title>
<path fill="none" stroke="midnightblue" d="M784.8,-214.69C776.28,-215.88 767.7,-217.08 759.31,-218.26"/>
<polygon fill="midnightblue" stroke="midnightblue" points="785.34,-218.15 794.76,-213.29 784.37,-211.21 785.34,-218.15"/>
</g>
<!-- Node17 -->
<g id="node17" class="node">
<title>Node17</title>
<g id="a_node17"><a xlink:href="namespacesignal__easel_1_1aprs.html#a586b022fa0c917fa8557bbd5cdc6aeeb" target="_top" xlink:title=" ">
<polygon fill="none" stroke="black" points="621.5,-159.5 621.5,-189.5 734.5,-189.5 734.5,-159.5 621.5,-159.5"/>
<text text-anchor="start" x="629.5" y="-177.5" font-family="Helvetica,sans-Serif" font-size="10.00">signal_easel::aprs</text>
<text text-anchor="middle" x="678" y="-166.5" font-family="Helvetica,sans-Serif" font-size="10.00">::AddRequiredFields</text>
</a>
</g>
</g>
<!-- Node16&#45;&gt;Node17 -->
<g id="edge17" class="edge">
<title>Node16&#45;&gt;Node17</title>
<path fill="none" stroke="midnightblue" d="M784.72,-188.77C767.6,-186.46 750.25,-184.12 734.7,-182.02"/>
<polygon fill="midnightblue" stroke="midnightblue" points="784.38,-192.26 794.76,-190.13 785.32,-185.32 784.38,-192.26"/>
</g>
<!-- Node16&#45;&gt;Node18 -->
<g id="edge20" class="edge">
<title>Node16&#45;&gt;Node18</title>
<path fill="none" stroke="midnightblue" d="M806.9,-182.82C802.82,-181.17 798.82,-179.4 795,-177.5 777.09,-168.6 777.06,-159.1 759,-150.5 739.61,-141.27 715.48,-135.99 698.82,-133.2"/>
<polygon fill="midnightblue" stroke="midnightblue" points="805.96,-186.2 816.56,-186.44 808.42,-179.65 805.96,-186.2"/>
</g>
<!-- Node17&#45;&gt;Node13 -->
<g id="edge18" class="edge">
<title>Node17&#45;&gt;Node13</title>
<path fill="none" stroke="midnightblue" d="M610.96,-171.35C541.84,-168.05 434.78,-162.95 371.77,-159.94"/>
<polygon fill="midnightblue" stroke="midnightblue" points="611.14,-174.86 621.3,-171.84 611.47,-167.87 611.14,-174.86"/>
</g>
<!-- Node19&#45;&gt;Node4 -->
<g id="edge23" class="edge">
<title>Node19&#45;&gt;Node4</title>
<path fill="none" stroke="midnightblue" d="M811.4,-170.93C805.79,-172.97 800.25,-175.16 795,-177.5 777.87,-185.13 775.85,-191.28 759,-199.5 752.2,-202.82 744.93,-206 737.66,-208.98"/>
<polygon fill="midnightblue" stroke="midnightblue" points="812.59,-174.22 820.9,-167.64 810.3,-167.6 812.59,-174.22"/>
</g>
<!-- Node19&#45;&gt;Node17 -->
<g id="edge22" class="edge">
<title>Node19&#45;&gt;Node17</title>
<path fill="none" stroke="midnightblue" d="M796.67,-161.56C775.84,-163.85 753.95,-166.26 734.78,-168.36"/>
<polygon fill="midnightblue" stroke="midnightblue" points="797.24,-165.02 806.8,-160.44 796.47,-158.06 797.24,-165.02"/>
</g>
<!-- Node19&#45;&gt;Node18 -->
<g id="edge24" class="edge">
<title>Node19&#45;&gt;Node18</title>
<path fill="none" stroke="midnightblue" d="M796.76,-143.45C760.81,-139.5 721.7,-135.2 698.82,-132.68"/>
<polygon fill="midnightblue" stroke="midnightblue" points="796.47,-146.94 806.8,-144.56 797.24,-139.98 796.47,-146.94"/>
</g>
<!-- Node21 -->
<g id="node21" class="node">
<title>Node21</title>
<g id="a_node21"><a xlink:href="classsignal__easel_1_1ax25_1_1Address.html#af2e2c1061b619a32d966d4b08eed7ede" target="_top" xlink:title=" ">
<polygon fill="none" stroke="black" points="826.5,-0.5 826.5,-30.5 933.5,-30.5 933.5,-0.5 826.5,-0.5"/>
<text text-anchor="start" x="834.5" y="-18.5" font-family="Helvetica,sans-Serif" font-size="10.00">signal_easel::ax25</text>
<text text-anchor="middle" x="880" y="-7.5" font-family="Helvetica,sans-Serif" font-size="10.00">::Address::Address</text>
</a>
</g>
</g>
<!-- Node20&#45;&gt;Node21 -->
<g id="edge27" class="edge">
<title>Node20&#45;&gt;Node21</title>
<path fill="none" stroke="midnightblue" d="M998.89,-42.24C977.1,-37.3 953.83,-32.02 933.78,-27.47"/>
<polygon fill="midnightblue" stroke="midnightblue" points="998.25,-45.68 1008.78,-44.48 999.8,-38.86 998.25,-45.68"/>
</g>
</g>
</svg>
