<?xml version="1.0" encoding="UTF-8" standalone="no"?>
<!DOCTYPE svg PUBLIC "-//W3C//DTD SVG 1.1//EN"
 "http://www.w3.org/Graphics/SVG/1.1/DTD/svg11.dtd">
<!-- Generated by graphviz version 2.43.0 (0)
 -->
<!-- Title: signal_easel::ax25::Address::isSsidValid Pages: 1 -->
<svg width="1427pt" height="411pt"
 viewBox="0.00 0.00 1427.00 410.50" xmlns="http://www.w3.org/2000/svg" xmlns:xlink="http://www.w3.org/1999/xlink">
<g id="graph0" class="graph" transform="scale(1 1) rotate(0) translate(4 406.5)">
<title>signal_easel::ax25::Address::isSsidValid</title>
<!-- Node1 -->
<g id="node1" class="node">
<title>Node1</title>
<g id="a_node1"><a xlink:title=" ">
<polygon fill="#bfbfbf" stroke="black" points="1299,-193 1299,-223 1419,-223 1419,-193 1299,-193"/>
<text text-anchor="start" x="1307" y="-211" font-family="Helvetica,sans-Serif" font-size="10.00">signal_easel::ax25</text>
<text text-anchor="middle" x="1359" y="-200" font-family="Helvetica,sans-Serif" font-size="10.00">::Address::isSsidValid</text>
</a>
</g>
</g>
<!-- Node2 -->
<g id="node2" class="node">
<title>Node2</title>
<g id="a_node2"><a xlink:href="classsignal__easel_1_1ax25_1_1Address.html#a8b44c6e311d3462bd86eda03c1d384f0" target="_top" xlink:title=" ">
<polygon fill="none" stroke="black" points="1113,-237 1113,-267 1263,-267 1263,-237 1113,-237"/>
<text text-anchor="start" x="1121" y="-255" font-family="Helvetica,sans-Serif" font-size="10.00">signal_easel::ax25</text>
<text text-anchor="middle" x="1188" y="-244" font-family="Helvetica,sans-Serif" font-size="10.00">::Address::assertSsidIsValid</text>
</a>
</g>
</g>
<!-- Node1&#45;&gt;Node2 -->
<g id="edge1" class="edge">
<title>Node1&#45;&gt;Node2</title>
<path fill="none" stroke="midnightblue" d="M1290.42,-225.59C1275.95,-229.36 1260.78,-233.31 1246.71,-236.97"/>
<polygon fill="midnightblue" stroke="midnightblue" points="1291.52,-228.93 1300.31,-223.02 1289.75,-222.15 1291.52,-228.93"/>
</g>
<!-- Node23 -->
<g id="node23" class="node">
<title>Node23</title>
<g id="a_node23"><a xlink:href="classsignal__easel_1_1ax25_1_1Address.html#aae81920cfd0dc7d89cb107f9d825488c" target="_top" xlink:title="If the address is valid (can be encoded correctly or was decoded)">
<polygon fill="none" stroke="black" points="952.5,-88 952.5,-118 1059.5,-118 1059.5,-88 952.5,-88"/>
<text text-anchor="start" x="960.5" y="-106" font-family="Helvetica,sans-Serif" font-size="10.00">signal_easel::ax25</text>
<text text-anchor="middle" x="1006" y="-95" font-family="Helvetica,sans-Serif" font-size="10.00">::Address::isValid</text>
</a>
</g>
</g>
<!-- Node1&#45;&gt;Node23 -->
<g id="edge29" class="edge">
<title>Node1&#45;&gt;Node23</title>
<path fill="none" stroke="midnightblue" d="M1298.01,-190.05C1230.12,-169.74 1120.75,-137.03 1057.2,-118.02"/>
<polygon fill="midnightblue" stroke="midnightblue" points="1297.13,-193.44 1307.71,-192.96 1299.13,-186.74 1297.13,-193.44"/>
</g>
<!-- Node3 -->
<g id="node3" class="node">
<title>Node3</title>
<g id="a_node3"><a xlink:href="classsignal__easel_1_1ax25_1_1Address.html#a7fa6b0ef4241413893f201660991e4ea" target="_top" xlink:title="Checks if the address is valid, if not throws an exception with a specific error code.">
<polygon fill="none" stroke="black" points="941,-188 941,-218 1071,-218 1071,-188 941,-188"/>
<text text-anchor="start" x="949" y="-206" font-family="Helvetica,sans-Serif" font-size="10.00">signal_easel::ax25</text>
<text text-anchor="middle" x="1006" y="-195" font-family="Helvetica,sans-Serif" font-size="10.00">::Address::assertIsValid</text>
</a>
</g>
</g>
<!-- Node2&#45;&gt;Node3 -->
<g id="edge2" class="edge">
<title>Node2&#45;&gt;Node3</title>
<path fill="none" stroke="midnightblue" d="M1121.8,-234.25C1102.29,-228.94 1081.1,-223.17 1062.29,-218.05"/>
<polygon fill="midnightblue" stroke="midnightblue" points="1120.96,-237.65 1131.53,-236.9 1122.8,-230.89 1120.96,-237.65"/>
</g>
<!-- Node19 -->
<g id="node19" class="node">
<title>Node19</title>
<g id="a_node19"><a xlink:href="classsignal__easel_1_1ax25_1_1Address.html#a6a2594f26aa1d2a46e33d7da1a1d5fdd" target="_top" xlink:title="Decode an AX.25 address from it&#39;s byte array representation.">
<polygon fill="none" stroke="black" points="935,-359 935,-389 1077,-389 1077,-359 935,-359"/>
<text text-anchor="start" x="943" y="-377" font-family="Helvetica,sans-Serif" font-size="10.00">signal_easel::ax25</text>
<text text-anchor="middle" x="1006" y="-366" font-family="Helvetica,sans-Serif" font-size="10.00">::Address::decodeAddress</text>
</a>
</g>
</g>
<!-- Node2&#45;&gt;Node19 -->
<g id="edge25" class="edge">
<title>Node2&#45;&gt;Node19</title>
<path fill="none" stroke="midnightblue" d="M1155.89,-273.09C1119.73,-297.59 1060.96,-337.42 1029.15,-358.99"/>
<polygon fill="midnightblue" stroke="midnightblue" points="1158.25,-275.71 1164.57,-267.2 1154.33,-269.92 1158.25,-275.71"/>
</g>
<!-- Node21 -->
<g id="node21" class="node">
<title>Node21</title>
<g id="a_node21"><a xlink:href="classsignal__easel_1_1ax25_1_1Address.html#a069a8d96c0d74e4a3288876c429c7187" target="_top" xlink:title="Set the SSID (0&#45;15)">
<polygon fill="none" stroke="black" points="952.5,-286 952.5,-316 1059.5,-316 1059.5,-286 952.5,-286"/>
<text text-anchor="start" x="960.5" y="-304" font-family="Helvetica,sans-Serif" font-size="10.00">signal_easel::ax25</text>
<text text-anchor="middle" x="1006" y="-293" font-family="Helvetica,sans-Serif" font-size="10.00">::Address::setSsid</text>
</a>
</g>
</g>
<!-- Node2&#45;&gt;Node21 -->
<g id="edge27" class="edge">
<title>Node2&#45;&gt;Node21</title>
<path fill="none" stroke="midnightblue" d="M1121.66,-269.79C1101.23,-275.35 1078.96,-281.41 1059.52,-286.7"/>
<polygon fill="midnightblue" stroke="midnightblue" points="1122.8,-273.11 1131.53,-267.1 1120.96,-266.35 1122.8,-273.11"/>
</g>
<!-- Node4 -->
<g id="node4" class="node">
<title>Node4</title>
<g id="a_node4"><a xlink:href="classsignal__easel_1_1ax25_1_1Frame.html#af86d4b534367a8faf6b628301c9ffceb" target="_top" xlink:title=" ">
<polygon fill="none" stroke="black" points="733.5,-274 733.5,-304 894.5,-304 894.5,-274 733.5,-274"/>
<text text-anchor="start" x="741.5" y="-292" font-family="Helvetica,sans-Serif" font-size="10.00">signal_easel::ax25</text>
<text text-anchor="middle" x="814" y="-281" font-family="Helvetica,sans-Serif" font-size="10.00">::Frame::addRepeaterAddress</text>
</a>
</g>
</g>
<!-- Node3&#45;&gt;Node4 -->
<g id="edge3" class="edge">
<title>Node3&#45;&gt;Node4</title>
<path fill="none" stroke="midnightblue" d="M973.6,-223.66C953.02,-236.55 925.17,-252.76 899,-264 890.47,-267.66 881.24,-271 872.12,-273.96"/>
<polygon fill="midnightblue" stroke="midnightblue" points="975.66,-226.5 982.23,-218.19 971.92,-220.59 975.66,-226.5"/>
</g>
<!-- Node9 -->
<g id="node9" class="node">
<title>Node9</title>
<g id="a_node9"><a xlink:href="classsignal__easel_1_1ax25_1_1Address.html#a0c31737081a9184b56dc32150b23cb0a" target="_top" xlink:title="Get the address as a byte array.">
<polygon fill="none" stroke="black" points="743,-39 743,-69 885,-69 885,-39 743,-39"/>
<text text-anchor="start" x="751" y="-57" font-family="Helvetica,sans-Serif" font-size="10.00">signal_easel::ax25</text>
<text text-anchor="middle" x="814" y="-46" font-family="Helvetica,sans-Serif" font-size="10.00">::Address::encodeAddress</text>
</a>
</g>
</g>
<!-- Node3&#45;&gt;Node9 -->
<g id="edge8" class="edge">
<title>Node3&#45;&gt;Node9</title>
<path fill="none" stroke="midnightblue" d="M983.04,-180.49C968.9,-165.67 950.34,-145.63 935,-127 917.82,-106.14 921.18,-93.43 899,-78 894.02,-74.54 888.54,-71.57 882.85,-69.03"/>
<polygon fill="midnightblue" stroke="midnightblue" points="980.55,-182.95 990,-187.73 985.6,-178.1 980.55,-182.95"/>
</g>
<!-- Node15 -->
<g id="node15" class="node">
<title>Node15</title>
<g id="a_node15"><a xlink:href="classsignal__easel_1_1ax25_1_1Frame.html#a57b163ece54317da8d95f3b18b47c23d" target="_top" xlink:title="setters/getters for the frame.">
<polygon fill="none" stroke="black" points="729,-176 729,-206 899,-206 899,-176 729,-176"/>
<text text-anchor="start" x="737" y="-194" font-family="Helvetica,sans-Serif" font-size="10.00">signal_easel::ax25</text>
<text text-anchor="middle" x="814" y="-183" font-family="Helvetica,sans-Serif" font-size="10.00">::Frame::setDestinationAddress</text>
</a>
</g>
</g>
<!-- Node3&#45;&gt;Node15 -->
<g id="edge15" class="edge">
<title>Node3&#45;&gt;Node15</title>
<path fill="none" stroke="midnightblue" d="M930.68,-198.31C920.29,-197.65 909.56,-196.97 899,-196.31"/>
<polygon fill="midnightblue" stroke="midnightblue" points="930.74,-201.82 940.94,-198.95 931.18,-194.83 930.74,-201.82"/>
</g>
<!-- Node17 -->
<g id="node17" class="node">
<title>Node17</title>
<g id="a_node17"><a xlink:href="ax25__frame__test_8cpp.html#a091d83d42783f2a0b3fd33a0521dc2ce" target="_top" xlink:title=" ">
<polygon fill="none" stroke="black" points="605,-137.5 605,-156.5 646,-156.5 646,-137.5 605,-137.5"/>
<text text-anchor="middle" x="625.5" y="-144.5" font-family="Helvetica,sans-Serif" font-size="10.00">TEST</text>
</a>
</g>
</g>
<!-- Node3&#45;&gt;Node17 -->
<g id="edge24" class="edge">
<title>Node3&#45;&gt;Node17</title>
<path fill="none" stroke="midnightblue" d="M959.99,-184.31C941.42,-177.39 919.49,-170.21 899,-166 805.86,-146.86 691.46,-146.04 646.24,-146.59"/>
<polygon fill="midnightblue" stroke="midnightblue" points="958.78,-187.6 969.37,-187.89 961.27,-181.06 958.78,-187.6"/>
</g>
<!-- Node18 -->
<g id="node18" class="node">
<title>Node18</title>
<g id="a_node18"><a xlink:href="classsignal__easel_1_1ax25_1_1Frame.html#a402d26a81f82bb5c477e8930b75a771e" target="_top" xlink:title=" ">
<polygon fill="none" stroke="black" points="741,-225 741,-255 887,-255 887,-225 741,-225"/>
<text text-anchor="start" x="749" y="-243" font-family="Helvetica,sans-Serif" font-size="10.00">signal_easel::ax25</text>
<text text-anchor="middle" x="814" y="-232" font-family="Helvetica,sans-Serif" font-size="10.00">::Frame::setSourceAddress</text>
</a>
</g>
</g>
<!-- Node3&#45;&gt;Node18 -->
<g id="edge20" class="edge">
<title>Node3&#45;&gt;Node18</title>
<path fill="none" stroke="midnightblue" d="M931.1,-217.39C916.71,-220.19 901.63,-223.13 887.29,-225.92"/>
<polygon fill="midnightblue" stroke="midnightblue" points="931.79,-220.82 940.94,-215.47 930.45,-213.95 931.79,-220.82"/>
</g>
<!-- Node5 -->
<g id="node5" class="node">
<title>Node5</title>
<g id="a_node5"><a xlink:href="classsignal__easel_1_1ax25_1_1Frame.html#a63cf2362c2a90d20f09bbbc4f24a07ba" target="_top" xlink:title="Attempt to parse an incoming bit stream into an AX.25 frame.">
<polygon fill="none" stroke="black" points="558,-225 558,-255 693,-255 693,-225 558,-225"/>
<text text-anchor="start" x="566" y="-243" font-family="Helvetica,sans-Serif" font-size="10.00">signal_easel::ax25</text>
<text text-anchor="middle" x="625.5" y="-232" font-family="Helvetica,sans-Serif" font-size="10.00">::Frame::parseBitStream</text>
</a>
</g>
</g>
<!-- Node4&#45;&gt;Node5 -->
<g id="edge4" class="edge">
<title>Node4&#45;&gt;Node5</title>
<path fill="none" stroke="midnightblue" d="M745.93,-271.38C725.52,-266.02 703.3,-260.18 683.62,-255.01"/>
<polygon fill="midnightblue" stroke="midnightblue" points="745.22,-274.81 755.78,-273.97 746.99,-268.04 745.22,-274.81"/>
</g>
<!-- Node6 -->
<g id="node6" class="node">
<title>Node6</title>
<g id="a_node6"><a xlink:href="classsignal__easel_1_1aprs_1_1Demodulator.html#ae5a8e7634c1bc8d215a0c454a9a737fa" target="_top" xlink:title=" ">
<polygon fill="none" stroke="black" points="369,-219.5 369,-260.5 522,-260.5 522,-219.5 369,-219.5"/>
<text text-anchor="start" x="377" y="-248.5" font-family="Helvetica,sans-Serif" font-size="10.00">signal_easel::aprs</text>
<text text-anchor="start" x="377" y="-237.5" font-family="Helvetica,sans-Serif" font-size="10.00">::Demodulator::lookForAx25</text>
<text text-anchor="middle" x="445.5" y="-226.5" font-family="Helvetica,sans-Serif" font-size="10.00">Packet</text>
</a>
</g>
</g>
<!-- Node5&#45;&gt;Node6 -->
<g id="edge5" class="edge">
<title>Node5&#45;&gt;Node6</title>
<path fill="none" stroke="midnightblue" d="M547.74,-240C539.29,-240 530.68,-240 522.23,-240"/>
<polygon fill="midnightblue" stroke="midnightblue" points="547.97,-243.5 557.97,-240 547.97,-236.5 547.97,-243.5"/>
</g>
<!-- Node7 -->
<g id="node7" class="node">
<title>Node7</title>
<g id="a_node7"><a xlink:href="classsignal__easel_1_1aprs_1_1Receiver.html#afbf7869aceaf2ea7ab0be8b9af16e818" target="_top" xlink:title=" ">
<polygon fill="none" stroke="black" points="226,-239 226,-269 333,-269 333,-239 226,-239"/>
<text text-anchor="start" x="234" y="-257" font-family="Helvetica,sans-Serif" font-size="10.00">signal_easel::aprs</text>
<text text-anchor="middle" x="279.5" y="-246" font-family="Helvetica,sans-Serif" font-size="10.00">::Receiver::decode</text>
</a>
</g>
</g>
<!-- Node6&#45;&gt;Node7 -->
<g id="edge6" class="edge">
<title>Node6&#45;&gt;Node7</title>
<path fill="none" stroke="midnightblue" d="M358.67,-247.33C350.09,-248.06 341.56,-248.79 333.47,-249.48"/>
<polygon fill="midnightblue" stroke="midnightblue" points="359.07,-250.81 368.74,-246.47 358.48,-243.83 359.07,-250.81"/>
</g>
<!-- Node8 -->
<g id="node8" class="node">
<title>Node8</title>
<g id="a_node8"><a xlink:href="aprs__test_8cpp.html#aea66d1824e3f1e27598adf99ac6a089a" target="_top" xlink:title=" ">
<polygon fill="none" stroke="black" points="0,-178.5 0,-197.5 41,-197.5 41,-178.5 0,-178.5"/>
<text text-anchor="middle" x="20.5" y="-185.5" font-family="Helvetica,sans-Serif" font-size="10.00">TEST</text>
</a>
</g>
</g>
<!-- Node6&#45;&gt;Node8 -->
<g id="edge7" class="edge">
<title>Node6&#45;&gt;Node8</title>
<path fill="none" stroke="midnightblue" d="M358.68,-229.45C257.64,-217.03 96.54,-197.22 41.04,-190.4"/>
<polygon fill="midnightblue" stroke="midnightblue" points="358.52,-232.96 368.88,-230.7 359.38,-226.01 358.52,-232.96"/>
</g>
<!-- Node10 -->
<g id="node10" class="node">
<title>Node10</title>
<g id="a_node10"><a xlink:href="classsignal__easel_1_1ax25_1_1Frame.html#a24e7d5ffc6504a3380e97142d1bc084e" target="_top" xlink:title="Builds all internal portions of the frame. Doesn&#39;t include the flags.">
<polygon fill="none" stroke="black" points="568.5,-88 568.5,-118 682.5,-118 682.5,-88 568.5,-88"/>
<text text-anchor="start" x="576.5" y="-106" font-family="Helvetica,sans-Serif" font-size="10.00">signal_easel::ax25</text>
<text text-anchor="middle" x="625.5" y="-95" font-family="Helvetica,sans-Serif" font-size="10.00">::Frame::buildFrame</text>
</a>
</g>
</g>
<!-- Node9&#45;&gt;Node10 -->
<g id="edge9" class="edge">
<title>Node9&#45;&gt;Node10</title>
<path fill="none" stroke="midnightblue" d="M746.07,-71.59C725.29,-77.04 702.62,-83 682.65,-88.25"/>
<polygon fill="midnightblue" stroke="midnightblue" points="746.99,-74.96 755.78,-69.03 745.22,-68.19 746.99,-74.96"/>
</g>
<!-- Node14 -->
<g id="node14" class="node">
<title>Node14</title>
<g id="a_node14"><a xlink:href="ax25__address__test_8cpp.html#a1d87028368532ba4ae914da9397571d3" target="_top" xlink:title=" ">
<polygon fill="none" stroke="black" points="605,-44.5 605,-63.5 646,-63.5 646,-44.5 605,-44.5"/>
<text text-anchor="middle" x="625.5" y="-51.5" font-family="Helvetica,sans-Serif" font-size="10.00">TEST</text>
</a>
</g>
</g>
<!-- Node9&#45;&gt;Node14 -->
<g id="edge14" class="edge">
<title>Node9&#45;&gt;Node14</title>
<path fill="none" stroke="midnightblue" d="M732.55,-54C700.81,-54 667.07,-54 646.38,-54"/>
<polygon fill="midnightblue" stroke="midnightblue" points="732.76,-57.5 742.76,-54 732.76,-50.5 732.76,-57.5"/>
</g>
<!-- Node11 -->
<g id="node11" class="node">
<title>Node11</title>
<g id="a_node11"><a xlink:href="classsignal__easel_1_1ax25_1_1Frame.html#a2b4f6ebcb7592a7e5a21114c8fafa503" target="_top" xlink:title="A step beyond buildFrame. This function builds the frame, does the bit stuffing, adds the flags,...">
<polygon fill="none" stroke="black" points="383,-99 383,-129 508,-129 508,-99 383,-99"/>
<text text-anchor="start" x="391" y="-117" font-family="Helvetica,sans-Serif" font-size="10.00">signal_easel::ax25</text>
<text text-anchor="middle" x="445.5" y="-106" font-family="Helvetica,sans-Serif" font-size="10.00">::Frame::encodeFrame</text>
</a>
</g>
</g>
<!-- Node10&#45;&gt;Node11 -->
<g id="edge10" class="edge">
<title>Node10&#45;&gt;Node11</title>
<path fill="none" stroke="midnightblue" d="M558.12,-107.1C541.7,-108.12 524.18,-109.2 508.01,-110.2"/>
<polygon fill="midnightblue" stroke="midnightblue" points="558.41,-110.59 568.18,-106.48 557.98,-103.6 558.41,-110.59"/>
</g>
<!-- Node12 -->
<g id="node12" class="node">
<title>Node12</title>
<g id="a_node12"><a xlink:href="namespacesignal__easel_1_1aprs.html#a77481001a5b78a839972bb4220b43e4d" target="_top" xlink:title=" ">
<polygon fill="none" stroke="black" points="227.5,-151 227.5,-181 331.5,-181 331.5,-151 227.5,-151"/>
<text text-anchor="start" x="235.5" y="-169" font-family="Helvetica,sans-Serif" font-size="10.00">signal_easel::aprs</text>
<text text-anchor="middle" x="279.5" y="-158" font-family="Helvetica,sans-Serif" font-size="10.00">::encodePacket</text>
</a>
</g>
</g>
<!-- Node11&#45;&gt;Node12 -->
<g id="edge11" class="edge">
<title>Node11&#45;&gt;Node12</title>
<path fill="none" stroke="midnightblue" d="M387.41,-132.1C367.95,-138.27 346.43,-145.09 327.83,-150.99"/>
<polygon fill="midnightblue" stroke="midnightblue" points="388.59,-135.4 397.06,-129.04 386.47,-128.73 388.59,-135.4"/>
</g>
<!-- Node13 -->
<g id="node13" class="node">
<title>Node13</title>
<g id="a_node13"><a xlink:href="classsignal__easel_1_1aprs_1_1Modulator.html#a8ae067701382dec1680b786583ace687" target="_top" xlink:title=" ">
<polygon fill="none" stroke="black" points="77,-151 77,-181 190,-181 190,-151 77,-151"/>
<text text-anchor="start" x="85" y="-169" font-family="Helvetica,sans-Serif" font-size="10.00">signal_easel::aprs</text>
<text text-anchor="middle" x="133.5" y="-158" font-family="Helvetica,sans-Serif" font-size="10.00">::Modulator::encode</text>
</a>
</g>
</g>
<!-- Node12&#45;&gt;Node13 -->
<g id="edge12" class="edge">
<title>Node12&#45;&gt;Node13</title>
<path fill="none" stroke="midnightblue" d="M217.06,-166C208.21,-166 199.14,-166 190.4,-166"/>
<polygon fill="midnightblue" stroke="midnightblue" points="217.33,-169.5 227.33,-166 217.33,-162.5 217.33,-169.5"/>
</g>
<!-- Node13&#45;&gt;Node8 -->
<g id="edge13" class="edge">
<title>Node13&#45;&gt;Node8</title>
<path fill="none" stroke="midnightblue" d="M66.58,-179.07C57.37,-180.89 48.56,-182.64 41.21,-184.09"/>
<polygon fill="midnightblue" stroke="midnightblue" points="67.55,-182.44 76.67,-177.06 66.19,-175.58 67.55,-182.44"/>
</g>
<!-- Node15&#45;&gt;Node5 -->
<g id="edge18" class="edge">
<title>Node15&#45;&gt;Node5</title>
<path fill="none" stroke="midnightblue" d="M745.93,-208.62C725.52,-213.98 703.3,-219.82 683.62,-224.99"/>
<polygon fill="midnightblue" stroke="midnightblue" points="746.99,-211.96 755.78,-206.03 745.22,-205.19 746.99,-211.96"/>
</g>
<!-- Node16 -->
<g id="node16" class="node">
<title>Node16</title>
<g id="a_node16"><a xlink:href="namespacesignal__easel_1_1aprs.html#a586b022fa0c917fa8557bbd5cdc6aeeb" target="_top" xlink:title=" ">
<polygon fill="none" stroke="black" points="569,-176 569,-206 682,-206 682,-176 569,-176"/>
<text text-anchor="start" x="577" y="-194" font-family="Helvetica,sans-Serif" font-size="10.00">signal_easel::aprs</text>
<text text-anchor="middle" x="625.5" y="-183" font-family="Helvetica,sans-Serif" font-size="10.00">::AddRequiredFields</text>
</a>
</g>
</g>
<!-- Node15&#45;&gt;Node16 -->
<g id="edge16" class="edge">
<title>Node15&#45;&gt;Node16</title>
<path fill="none" stroke="midnightblue" d="M718.71,-191C706.16,-191 693.64,-191 682.06,-191"/>
<polygon fill="midnightblue" stroke="midnightblue" points="718.75,-194.5 728.75,-191 718.75,-187.5 718.75,-194.5"/>
</g>
<!-- Node15&#45;&gt;Node17 -->
<g id="edge19" class="edge">
<title>Node15&#45;&gt;Node17</title>
<path fill="none" stroke="midnightblue" d="M739.47,-173.65C705.73,-165.69 668.38,-156.88 646.2,-151.65"/>
<polygon fill="midnightblue" stroke="midnightblue" points="738.8,-177.09 749.34,-175.98 740.41,-170.28 738.8,-177.09"/>
</g>
<!-- Node16&#45;&gt;Node12 -->
<g id="edge17" class="edge">
<title>Node16&#45;&gt;Node12</title>
<path fill="none" stroke="midnightblue" d="M558.54,-186.21C492.38,-181.4 391.9,-174.1 331.58,-169.71"/>
<polygon fill="midnightblue" stroke="midnightblue" points="558.62,-189.72 568.85,-186.96 559.13,-182.74 558.62,-189.72"/>
</g>
<!-- Node18&#45;&gt;Node5 -->
<g id="edge22" class="edge">
<title>Node18&#45;&gt;Node5</title>
<path fill="none" stroke="midnightblue" d="M730.88,-240C718.29,-240 705.42,-240 693.22,-240"/>
<polygon fill="midnightblue" stroke="midnightblue" points="730.89,-243.5 740.89,-240 730.89,-236.5 730.89,-243.5"/>
</g>
<!-- Node18&#45;&gt;Node16 -->
<g id="edge21" class="edge">
<title>Node18&#45;&gt;Node16</title>
<path fill="none" stroke="midnightblue" d="M745.98,-222.39C725,-216.88 702.1,-210.86 682.02,-205.59"/>
<polygon fill="midnightblue" stroke="midnightblue" points="745.22,-225.81 755.78,-224.97 746.99,-219.04 745.22,-225.81"/>
</g>
<!-- Node18&#45;&gt;Node17 -->
<g id="edge23" class="edge">
<title>Node18&#45;&gt;Node17</title>
<path fill="none" stroke="midnightblue" d="M737.62,-220.35C734.62,-218.71 731.74,-216.93 729,-215 706.9,-199.45 715.18,-181.43 693,-166 679.1,-156.33 660.34,-151.55 646.29,-149.21"/>
<polygon fill="midnightblue" stroke="midnightblue" points="736.34,-223.62 746.86,-224.89 739.42,-217.34 736.34,-223.62"/>
</g>
<!-- Node20 -->
<g id="node20" class="node">
<title>Node20</title>
<g id="a_node20"><a xlink:href="classsignal__easel_1_1ax25_1_1Address.html#a2ffb5475017120d1071e4b8d3f35c394" target="_top" xlink:title=" ">
<polygon fill="none" stroke="black" points="760.5,-372 760.5,-402 867.5,-402 867.5,-372 760.5,-372"/>
<text text-anchor="start" x="768.5" y="-390" font-family="Helvetica,sans-Serif" font-size="10.00">signal_easel::ax25</text>
<text text-anchor="middle" x="814" y="-379" font-family="Helvetica,sans-Serif" font-size="10.00">::Address::Address</text>
</a>
</g>
</g>
<!-- Node19&#45;&gt;Node20 -->
<g id="edge26" class="edge">
<title>Node19&#45;&gt;Node20</title>
<path fill="none" stroke="midnightblue" d="M924.79,-379.49C905.5,-380.81 885.37,-382.19 867.69,-383.39"/>
<polygon fill="midnightblue" stroke="midnightblue" points="925.05,-382.98 934.79,-378.8 924.58,-375.99 925.05,-382.98"/>
</g>
<!-- Node22 -->
<g id="node22" class="node">
<title>Node22</title>
<g id="a_node22"><a xlink:href="classsignal__easel_1_1ax25_1_1Address.html#af2e2c1061b619a32d966d4b08eed7ede" target="_top" xlink:title=" ">
<polygon fill="none" stroke="black" points="760.5,-323 760.5,-353 867.5,-353 867.5,-323 760.5,-323"/>
<text text-anchor="start" x="768.5" y="-341" font-family="Helvetica,sans-Serif" font-size="10.00">signal_easel::ax25</text>
<text text-anchor="middle" x="814" y="-330" font-family="Helvetica,sans-Serif" font-size="10.00">::Address::Address</text>
</a>
</g>
</g>
<!-- Node21&#45;&gt;Node22 -->
<g id="edge28" class="edge">
<title>Node21&#45;&gt;Node22</title>
<path fill="none" stroke="midnightblue" d="M942.21,-313.23C918.1,-317.92 890.85,-323.23 867.78,-327.72"/>
<polygon fill="midnightblue" stroke="midnightblue" points="943.18,-316.6 952.33,-311.26 941.84,-309.73 943.18,-316.6"/>
</g>
<!-- Node24 -->
<g id="node24" class="node">
<title>Node24</title>
<g id="a_node24"><a xlink:href="classsignal__easel_1_1ax25_1_1Frame.html#a640edeabbda34e78cc243e3561747bf9" target="_top" xlink:title=" ">
<polygon fill="none" stroke="black" points="753,-88 753,-118 875,-118 875,-88 753,-88"/>
<text text-anchor="start" x="761" y="-106" font-family="Helvetica,sans-Serif" font-size="10.00">signal_easel::ax25</text>
<text text-anchor="middle" x="814" y="-95" font-family="Helvetica,sans-Serif" font-size="10.00">::Frame::isFrameValid</text>
</a>
</g>
</g>
<!-- Node23&#45;&gt;Node24 -->
<g id="edge30" class="edge">
<title>Node23&#45;&gt;Node24</title>
<path fill="none" stroke="midnightblue" d="M942.28,-103C920.67,-103 896.55,-103 875.16,-103"/>
<polygon fill="midnightblue" stroke="midnightblue" points="942.33,-106.5 952.33,-103 942.33,-99.5 942.33,-106.5"/>
</g>
<!-- Node25 -->
<g id="node25" class="node">
<title>Node25</title>
<g id="a_node25"><a xlink:href="ax25__address__test_8cpp.html#afa443d4d5f700a003ec7cac34596dcba" target="_top" xlink:title=" ">
<polygon fill="none" stroke="black" points="793.5,-0.5 793.5,-19.5 834.5,-19.5 834.5,-0.5 793.5,-0.5"/>
<text text-anchor="middle" x="814" y="-7.5" font-family="Helvetica,sans-Serif" font-size="10.00">TEST</text>
</a>
</g>
</g>
<!-- Node23&#45;&gt;Node25 -->
<g id="edge33" class="edge">
<title>Node23&#45;&gt;Node25</title>
<path fill="none" stroke="midnightblue" d="M980.03,-81.35C959.56,-64.68 929.13,-42.31 899,-29 878.07,-19.76 852.16,-14.78 834.69,-12.26"/>
<polygon fill="midnightblue" stroke="midnightblue" points="977.97,-84.19 987.9,-87.88 982.44,-78.8 977.97,-84.19"/>
</g>
<!-- Node24&#45;&gt;Node10 -->
<g id="edge31" class="edge">
<title>Node24&#45;&gt;Node10</title>
<path fill="none" stroke="midnightblue" d="M742.73,-103C722.87,-103 701.53,-103 682.62,-103"/>
<polygon fill="midnightblue" stroke="midnightblue" points="742.96,-106.5 752.96,-103 742.96,-99.5 742.96,-106.5"/>
</g>
<!-- Node24&#45;&gt;Node17 -->
<g id="edge32" class="edge">
<title>Node24&#45;&gt;Node17</title>
<path fill="none" stroke="midnightblue" d="M742.86,-119.55C708.23,-127.72 669.06,-136.96 646.14,-142.37"/>
<polygon fill="midnightblue" stroke="midnightblue" points="744.03,-122.87 752.96,-117.16 742.43,-116.05 744.03,-122.87"/>
</g>
</g>
</svg>
