<?xml version="1.0" encoding="UTF-8" standalone="no"?>
<!DOCTYPE svg PUBLIC "-//W3C//DTD SVG 1.1//EN"
 "http://www.w3.org/Graphics/SVG/1.1/DTD/svg11.dtd">
<!-- Generated by graphviz version 2.43.0 (0)
 -->
<!-- Title: signal_easel::aprs::telemetry::TelemetryData::getAnalogParameters Pages: 1 -->
<svg width="956pt" height="170pt"
 viewBox="0.00 0.00 956.00 170.00" xmlns="http://www.w3.org/2000/svg" xmlns:xlink="http://www.w3.org/1999/xlink">
<g id="graph0" class="graph" transform="scale(1 1) rotate(0) translate(4 166)">
<title>signal_easel::aprs::telemetry::TelemetryData::getAnalogParameters</title>
<!-- Node1 -->
<g id="node1" class="node">
<title>Node1</title>
<g id="a_node1"><a xlink:title=" ">
<polygon fill="#bfbfbf" stroke="black" points="800,-60.5 800,-101.5 948,-101.5 948,-60.5 800,-60.5"/>
<text text-anchor="start" x="808" y="-89.5" font-family="Helvetica,sans-Serif" font-size="10.00">signal_easel::aprs</text>
<text text-anchor="start" x="808" y="-78.5" font-family="Helvetica,sans-Serif" font-size="10.00">::telemetry::TelemetryData</text>
<text text-anchor="middle" x="874" y="-67.5" font-family="Helvetica,sans-Serif" font-size="10.00">::getAnalogParameters</text>
</a>
</g>
</g>
<!-- Node2 -->
<g id="node2" class="node">
<title>Node2</title>
<g id="a_node2"><a xlink:href="classsignal__easel_1_1aprs_1_1telemetry_1_1TelemetryTranscoder.html#afe0271b7bbae16a79c2bd4e77d4f3945" target="_top" xlink:title="Decode a data report message.">
<polygon fill="none" stroke="black" points="573.5,-120.5 573.5,-161.5 750.5,-161.5 750.5,-120.5 573.5,-120.5"/>
<text text-anchor="start" x="581.5" y="-149.5" font-family="Helvetica,sans-Serif" font-size="10.00">signal_easel::aprs</text>
<text text-anchor="start" x="581.5" y="-138.5" font-family="Helvetica,sans-Serif" font-size="10.00">::telemetry::TelemetryTranscoder</text>
<text text-anchor="middle" x="662" y="-127.5" font-family="Helvetica,sans-Serif" font-size="10.00">::decodeDataReportMessage</text>
</a>
</g>
</g>
<!-- Node1&#45;&gt;Node2 -->
<g id="edge1" class="edge">
<title>Node1&#45;&gt;Node2</title>
<path fill="none" stroke="midnightblue" d="M791.39,-104.32C772.75,-109.64 753.08,-115.26 734.88,-120.46"/>
<polygon fill="midnightblue" stroke="midnightblue" points="792.37,-107.68 801.02,-101.56 790.45,-100.95 792.37,-107.68"/>
</g>
<!-- Node7 -->
<g id="node7" class="node">
<title>Node7</title>
<g id="a_node7"><a xlink:href="classsignal__easel_1_1aprs_1_1telemetry_1_1TelemetryTranscoder.html#a581c58aa360dc40ddcbc475b96b25942" target="_top" xlink:title="Decode the parameter coefficients message.">
<polygon fill="none" stroke="black" points="560,-60.5 560,-101.5 764,-101.5 764,-60.5 560,-60.5"/>
<text text-anchor="start" x="568" y="-89.5" font-family="Helvetica,sans-Serif" font-size="10.00">signal_easel::aprs</text>
<text text-anchor="start" x="568" y="-78.5" font-family="Helvetica,sans-Serif" font-size="10.00">::telemetry::TelemetryTranscoder</text>
<text text-anchor="middle" x="662" y="-67.5" font-family="Helvetica,sans-Serif" font-size="10.00">::decodeParameterCoefficientMessage</text>
</a>
</g>
</g>
<!-- Node1&#45;&gt;Node7 -->
<g id="edge6" class="edge">
<title>Node1&#45;&gt;Node7</title>
<path fill="none" stroke="midnightblue" d="M789.76,-81C781.41,-81 772.86,-81 764.34,-81"/>
<polygon fill="midnightblue" stroke="midnightblue" points="789.85,-84.5 799.85,-81 789.85,-77.5 789.85,-84.5"/>
</g>
<!-- Node8 -->
<g id="node8" class="node">
<title>Node8</title>
<g id="a_node8"><a xlink:href="classsignal__easel_1_1aprs_1_1telemetry_1_1TelemetryTranscoder.html#a74a84913b8e86de5b415616ecbd853b8" target="_top" xlink:title="Decode a name or unit/label message. They&#39;re the same format.">
<polygon fill="none" stroke="black" points="573.5,-0.5 573.5,-41.5 750.5,-41.5 750.5,-0.5 573.5,-0.5"/>
<text text-anchor="start" x="581.5" y="-29.5" font-family="Helvetica,sans-Serif" font-size="10.00">signal_easel::aprs</text>
<text text-anchor="start" x="581.5" y="-18.5" font-family="Helvetica,sans-Serif" font-size="10.00">::telemetry::TelemetryTranscoder</text>
<text text-anchor="middle" x="662" y="-7.5" font-family="Helvetica,sans-Serif" font-size="10.00">::decodeParameterDescriptor</text>
</a>
</g>
</g>
<!-- Node1&#45;&gt;Node8 -->
<g id="edge8" class="edge">
<title>Node1&#45;&gt;Node8</title>
<path fill="none" stroke="midnightblue" d="M791.39,-57.68C772.75,-52.36 753.08,-46.74 734.88,-41.54"/>
<polygon fill="midnightblue" stroke="midnightblue" points="790.45,-61.05 801.02,-60.44 792.37,-54.32 790.45,-61.05"/>
</g>
<!-- Node3 -->
<g id="node3" class="node">
<title>Node3</title>
<g id="a_node3"><a xlink:href="classsignal__easel_1_1aprs_1_1telemetry_1_1TelemetryTranscoder.html#a8728ebd6e5dbd7ca50a219fda62b7375" target="_top" xlink:title="Takes in the information field of an APRS telemetry message and decodes it with the appropriate metho...">
<polygon fill="none" stroke="black" points="347,-60.5 347,-101.5 524,-101.5 524,-60.5 347,-60.5"/>
<text text-anchor="start" x="355" y="-89.5" font-family="Helvetica,sans-Serif" font-size="10.00">signal_easel::aprs</text>
<text text-anchor="start" x="355" y="-78.5" font-family="Helvetica,sans-Serif" font-size="10.00">::telemetry::TelemetryTranscoder</text>
<text text-anchor="middle" x="435.5" y="-67.5" font-family="Helvetica,sans-Serif" font-size="10.00">::decodeMessage</text>
</a>
</g>
</g>
<!-- Node2&#45;&gt;Node3 -->
<g id="edge2" class="edge">
<title>Node2&#45;&gt;Node3</title>
<path fill="none" stroke="midnightblue" d="M574.3,-117.83C554.21,-112.46 532.97,-106.78 513.35,-101.54"/>
<polygon fill="midnightblue" stroke="midnightblue" points="573.49,-121.23 584.05,-120.44 575.3,-114.47 573.49,-121.23"/>
</g>
<!-- Node4 -->
<g id="node4" class="node">
<title>Node4</title>
<g id="a_node4"><a xlink:href="classsignal__easel_1_1aprs_1_1Demodulator.html#a97af61f7afb63db275020ba523abcc3a" target="_top" xlink:title="If the packet was a telemetry packet, this function will try to parse the packet and populate the tel...">
<polygon fill="none" stroke="black" points="143,-60.5 143,-101.5 311,-101.5 311,-60.5 143,-60.5"/>
<text text-anchor="start" x="151" y="-89.5" font-family="Helvetica,sans-Serif" font-size="10.00">signal_easel::aprs</text>
<text text-anchor="start" x="151" y="-78.5" font-family="Helvetica,sans-Serif" font-size="10.00">::Demodulator::parseTelemetry</text>
<text text-anchor="middle" x="227" y="-67.5" font-family="Helvetica,sans-Serif" font-size="10.00">Packet</text>
</a>
</g>
</g>
<!-- Node3&#45;&gt;Node4 -->
<g id="edge3" class="edge">
<title>Node3&#45;&gt;Node4</title>
<path fill="none" stroke="midnightblue" d="M336.86,-81C328.25,-81 319.58,-81 311.11,-81"/>
<polygon fill="midnightblue" stroke="midnightblue" points="336.93,-84.5 346.93,-81 336.93,-77.5 336.93,-84.5"/>
</g>
<!-- Node5 -->
<g id="node5" class="node">
<title>Node5</title>
<g id="a_node5"><a xlink:href="classsignal__easel_1_1aprs_1_1Receiver.html#afbf7869aceaf2ea7ab0be8b9af16e818" target="_top" xlink:title=" ">
<polygon fill="none" stroke="black" points="0,-88 0,-118 107,-118 107,-88 0,-88"/>
<text text-anchor="start" x="8" y="-106" font-family="Helvetica,sans-Serif" font-size="10.00">signal_easel::aprs</text>
<text text-anchor="middle" x="53.5" y="-95" font-family="Helvetica,sans-Serif" font-size="10.00">::Receiver::decode</text>
</a>
</g>
</g>
<!-- Node4&#45;&gt;Node5 -->
<g id="edge4" class="edge">
<title>Node4&#45;&gt;Node5</title>
<path fill="none" stroke="midnightblue" d="M132.83,-92.95C124.05,-94.08 115.37,-95.19 107.17,-96.24"/>
<polygon fill="midnightblue" stroke="midnightblue" points="133.29,-96.42 142.76,-91.68 132.4,-89.48 133.29,-96.42"/>
</g>
<!-- Node6 -->
<g id="node6" class="node">
<title>Node6</title>
<g id="a_node6"><a xlink:href="aprs__test_8cpp.html#a8de4b7853d7e8c5ad2bb05a656082327" target="_top" xlink:title=" ">
<polygon fill="none" stroke="black" points="33,-49.5 33,-68.5 74,-68.5 74,-49.5 33,-49.5"/>
<text text-anchor="middle" x="53.5" y="-56.5" font-family="Helvetica,sans-Serif" font-size="10.00">TEST</text>
</a>
</g>
</g>
<!-- Node4&#45;&gt;Node6 -->
<g id="edge5" class="edge">
<title>Node4&#45;&gt;Node6</title>
<path fill="none" stroke="midnightblue" d="M132.57,-69.01C110.43,-66.18 88.99,-63.42 74.2,-61.53"/>
<polygon fill="midnightblue" stroke="midnightblue" points="132.4,-72.52 142.76,-70.32 133.29,-65.58 132.4,-72.52"/>
</g>
<!-- Node7&#45;&gt;Node3 -->
<g id="edge7" class="edge">
<title>Node7&#45;&gt;Node3</title>
<path fill="none" stroke="midnightblue" d="M549.87,-81C541.3,-81 532.72,-81 524.34,-81"/>
<polygon fill="midnightblue" stroke="midnightblue" points="549.91,-84.5 559.91,-81 549.91,-77.5 549.91,-84.5"/>
</g>
<!-- Node8&#45;&gt;Node3 -->
<g id="edge9" class="edge">
<title>Node8&#45;&gt;Node3</title>
<path fill="none" stroke="midnightblue" d="M574.3,-44.17C554.21,-49.54 532.97,-55.22 513.35,-60.46"/>
<polygon fill="midnightblue" stroke="midnightblue" points="575.3,-47.53 584.05,-41.56 573.49,-40.77 575.3,-47.53"/>
</g>
</g>
</svg>
