<?xml version="1.0" encoding="UTF-8" standalone="no"?>
<!DOCTYPE svg PUBLIC "-//W3C//DTD SVG 1.1//EN"
 "http://www.w3.org/Graphics/SVG/1.1/DTD/svg11.dtd">
<!-- Generated by graphviz version 2.43.0 (0)
 -->
<!-- Title: signal_easel::sstv::Modulator::encodeAdjustedImage Pages: 1 -->
<svg width="863pt" height="112pt"
 viewBox="0.00 0.00 863.00 112.00" xmlns="http://www.w3.org/2000/svg" xmlns:xlink="http://www.w3.org/1999/xlink">
<g id="graph0" class="graph" transform="scale(1 1) rotate(0) translate(4 108)">
<title>signal_easel::sstv::Modulator::encodeAdjustedImage</title>
<!-- Node1 -->
<g id="node1" class="node">
<title>Node1</title>
<g id="a_node1"><a xlink:title=" ">
<polygon fill="#bfbfbf" stroke="black" points="0,-19 0,-60 156,-60 156,-19 0,-19"/>
<text text-anchor="start" x="8" y="-48" font-family="Helvetica,sans-Serif" font-size="10.00">signal_easel::sstv</text>
<text text-anchor="start" x="8" y="-37" font-family="Helvetica,sans-Serif" font-size="10.00">::Modulator::encodeAdjusted</text>
<text text-anchor="middle" x="78" y="-26" font-family="Helvetica,sans-Serif" font-size="10.00">Image</text>
</a>
</g>
</g>
<!-- Node2 -->
<g id="node2" class="node">
<title>Node2</title>
<g id="a_node2"><a xlink:href="classsignal__easel_1_1sstv_1_1Modulator.html#acf3f661e744b92527504daff37dc8505" target="_top" xlink:title=" ">
<polygon fill="none" stroke="black" points="192,-49.5 192,-79.5 349,-79.5 349,-49.5 192,-49.5"/>
<text text-anchor="start" x="200" y="-67.5" font-family="Helvetica,sans-Serif" font-size="10.00">signal_easel::sstv</text>
<text text-anchor="middle" x="270.5" y="-56.5" font-family="Helvetica,sans-Serif" font-size="10.00">::Modulator::encodeScanLine</text>
</a>
</g>
</g>
<!-- Node1&#45;&gt;Node2 -->
<g id="edge1" class="edge">
<title>Node1&#45;&gt;Node2</title>
<path fill="none" stroke="midnightblue" d="M156.21,-49.63C164.66,-50.74 173.31,-51.88 181.87,-53"/>
<polygon fill="midnightblue" stroke="midnightblue" points="181.5,-56.48 191.87,-54.31 182.41,-49.54 181.5,-56.48"/>
</g>
<!-- Node8 -->
<g id="node8" class="node">
<title>Node8</title>
<g id="a_node8"><a xlink:href="classsignal__easel_1_1sstv_1_1Modulator.html#a3991e5594ce882fae3a7a7b351b1b102" target="_top" xlink:title=" ">
<polygon fill="none" stroke="black" points="195,-0.5 195,-30.5 346,-30.5 346,-0.5 195,-0.5"/>
<text text-anchor="start" x="203" y="-18.5" font-family="Helvetica,sans-Serif" font-size="10.00">signal_easel::sstv</text>
<text text-anchor="middle" x="270.5" y="-7.5" font-family="Helvetica,sans-Serif" font-size="10.00">::Modulator::readImageLine</text>
</a>
</g>
</g>
<!-- Node1&#45;&gt;Node8 -->
<g id="edge8" class="edge">
<title>Node1&#45;&gt;Node8</title>
<path fill="none" stroke="midnightblue" d="M156.21,-29.77C165.7,-28.58 175.44,-27.35 185.03,-26.14"/>
<polygon fill="midnightblue" stroke="midnightblue" points="185.47,-29.61 194.96,-24.89 184.6,-22.67 185.47,-29.61"/>
</g>
<!-- Node3 -->
<g id="node3" class="node">
<title>Node3</title>
<g id="a_node3"><a xlink:href="classsignal__easel_1_1sstv_1_1Modulator.html#a4925712af983bce311224cd51c4b9409" target="_top" xlink:title=" ">
<polygon fill="none" stroke="black" points="399,-73.5 399,-103.5 503,-103.5 503,-73.5 399,-73.5"/>
<text text-anchor="start" x="407" y="-91.5" font-family="Helvetica,sans-Serif" font-size="10.00">signal_easel::sstv</text>
<text text-anchor="middle" x="451" y="-80.5" font-family="Helvetica,sans-Serif" font-size="10.00">::Modulator::pulse</text>
</a>
</g>
</g>
<!-- Node2&#45;&gt;Node3 -->
<g id="edge2" class="edge">
<title>Node2&#45;&gt;Node3</title>
<path fill="none" stroke="midnightblue" d="M349.01,-74.92C362.3,-76.71 375.95,-78.54 388.73,-80.26"/>
<polygon fill="midnightblue" stroke="midnightblue" points="388.41,-83.75 398.79,-81.61 389.34,-76.81 388.41,-83.75"/>
</g>
<!-- Node6 -->
<g id="node6" class="node">
<title>Node6</title>
<g id="a_node6"><a xlink:href="classsignal__easel_1_1sstv_1_1Modulator.html#ac6c7141bc8b18abd7e08d8c201aadfb2" target="_top" xlink:title=" ">
<polygon fill="none" stroke="black" points="385,-24.5 385,-54.5 517,-54.5 517,-24.5 385,-24.5"/>
<text text-anchor="start" x="393" y="-42.5" font-family="Helvetica,sans-Serif" font-size="10.00">signal_easel::sstv</text>
<text text-anchor="middle" x="451" y="-31.5" font-family="Helvetica,sans-Serif" font-size="10.00">::Modulator::writeBuffer</text>
</a>
</g>
</g>
<!-- Node2&#45;&gt;Node6 -->
<g id="edge5" class="edge">
<title>Node2&#45;&gt;Node6</title>
<path fill="none" stroke="midnightblue" d="M349.01,-53.64C357.6,-52.44 366.34,-51.22 374.9,-50.02"/>
<polygon fill="midnightblue" stroke="midnightblue" points="375.42,-53.48 384.84,-48.63 374.45,-46.55 375.42,-53.48"/>
</g>
<!-- Node4 -->
<g id="node4" class="node">
<title>Node4</title>
<g id="a_node4"><a xlink:href="classsignal__easel_1_1Modulator.html#a0fcce44b034c83731048ca17dc985f04" target="_top" xlink:title="Add a sine wave to the audio buffer.">
<polygon fill="none" stroke="black" points="553,-73.5 553,-103.5 686,-103.5 686,-73.5 553,-73.5"/>
<text text-anchor="start" x="561" y="-91.5" font-family="Helvetica,sans-Serif" font-size="10.00">signal_easel::Modulator</text>
<text text-anchor="middle" x="619.5" y="-80.5" font-family="Helvetica,sans-Serif" font-size="10.00">::addSineWave</text>
</a>
</g>
</g>
<!-- Node3&#45;&gt;Node4 -->
<g id="edge3" class="edge">
<title>Node3&#45;&gt;Node4</title>
<path fill="none" stroke="midnightblue" d="M503.31,-88.5C515.8,-88.5 529.42,-88.5 542.78,-88.5"/>
<polygon fill="midnightblue" stroke="midnightblue" points="542.92,-92 552.92,-88.5 542.92,-85 542.92,-92"/>
</g>
<!-- Node5 -->
<g id="node5" class="node">
<title>Node5</title>
<g id="a_node5"><a xlink:href="classsignal__easel_1_1Modulator.html#af99ee22156e320703891f0fda4df95e8" target="_top" xlink:title="Add a PCM sample to the audio buffer.">
<polygon fill="none" stroke="black" points="722,-73.5 722,-103.5 855,-103.5 855,-73.5 722,-73.5"/>
<text text-anchor="start" x="730" y="-91.5" font-family="Helvetica,sans-Serif" font-size="10.00">signal_easel::Modulator</text>
<text text-anchor="middle" x="788.5" y="-80.5" font-family="Helvetica,sans-Serif" font-size="10.00">::addAudioSample</text>
</a>
</g>
</g>
<!-- Node4&#45;&gt;Node5 -->
<g id="edge4" class="edge">
<title>Node4&#45;&gt;Node5</title>
<path fill="none" stroke="midnightblue" d="M686.02,-88.5C694.5,-88.5 703.23,-88.5 711.85,-88.5"/>
<polygon fill="midnightblue" stroke="midnightblue" points="711.89,-92 721.89,-88.5 711.89,-85 711.89,-92"/>
</g>
<!-- Node6&#45;&gt;Node4 -->
<g id="edge6" class="edge">
<title>Node6&#45;&gt;Node4</title>
<path fill="none" stroke="midnightblue" d="M503.31,-54.6C520.49,-59.66 539.8,-65.34 557.63,-70.58"/>
<polygon fill="midnightblue" stroke="midnightblue" points="556.77,-73.98 567.36,-73.45 558.75,-67.27 556.77,-73.98"/>
</g>
<!-- Node7 -->
<g id="node7" class="node">
<title>Node7</title>
<g id="a_node7"><a xlink:href="namespacesignal__easel_1_1sstv.html#ab81e87d4063acb6dd548de487c8d07b3" target="_top" xlink:title=" ">
<polygon fill="none" stroke="black" points="567.5,-24.5 567.5,-54.5 671.5,-54.5 671.5,-24.5 567.5,-24.5"/>
<text text-anchor="start" x="575.5" y="-42.5" font-family="Helvetica,sans-Serif" font-size="10.00">signal_easel::sstv</text>
<text text-anchor="middle" x="619.5" y="-31.5" font-family="Helvetica,sans-Serif" font-size="10.00">::ColorToFreq</text>
</a>
</g>
</g>
<!-- Node6&#45;&gt;Node7 -->
<g id="edge7" class="edge">
<title>Node6&#45;&gt;Node7</title>
<path fill="none" stroke="midnightblue" d="M517.33,-39.5C530.41,-39.5 544.11,-39.5 557.06,-39.5"/>
<polygon fill="midnightblue" stroke="midnightblue" points="557.26,-43 567.26,-39.5 557.26,-36 557.26,-43"/>
</g>
</g>
</svg>
