<?xml version="1.0" encoding="UTF-8" standalone="no"?>
<!DOCTYPE svg PUBLIC "-//W3C//DTD SVG 1.1//EN"
 "http://www.w3.org/Graphics/SVG/1.1/DTD/svg11.dtd">
<!-- Generated by graphviz version 2.43.0 (0)
 -->
<!-- Title: signal_easel::ax25::Frame Pages: 1 -->
<svg width="671pt" height="771pt"
 viewBox="0.00 0.00 670.50 771.00" xmlns="http://www.w3.org/2000/svg" xmlns:xlink="http://www.w3.org/1999/xlink">
<g id="graph0" class="graph" transform="scale(1 1) rotate(0) translate(4 767)">
<title>signal_easel::ax25::Frame</title>
<!-- Node1 -->
<g id="node1" class="node">
<title>Node1</title>
<g id="a_node1"><a xlink:title=" ">
<polygon fill="#bfbfbf" stroke="black" points="270.5,-0.5 270.5,-321.5 429.5,-321.5 429.5,-0.5 270.5,-0.5"/>
<text text-anchor="start" x="278.5" y="-309.5" font-family="Helvetica,sans-Serif" font-size="10.00">signal_easel::ax25</text>
<text text-anchor="middle" x="350" y="-298.5" font-family="Helvetica,sans-Serif" font-size="10.00">::Frame</text>
<polyline fill="none" stroke="black" points="270.5,-291.5 429.5,-291.5 "/>
<text text-anchor="middle" x="350" y="-279.5" font-family="Helvetica,sans-Serif" font-size="10.00"> </text>
<polyline fill="none" stroke="black" points="270.5,-272.5 429.5,-272.5 "/>
<text text-anchor="start" x="278.5" y="-260.5" font-family="Helvetica,sans-Serif" font-size="10.00">+ Frame()</text>
<text text-anchor="start" x="278.5" y="-249.5" font-family="Helvetica,sans-Serif" font-size="10.00">+ buildFrame()</text>
<text text-anchor="start" x="278.5" y="-238.5" font-family="Helvetica,sans-Serif" font-size="10.00">+ encodeFrame()</text>
<text text-anchor="start" x="278.5" y="-227.5" font-family="Helvetica,sans-Serif" font-size="10.00">+ isFrameValid()</text>
<text text-anchor="start" x="278.5" y="-216.5" font-family="Helvetica,sans-Serif" font-size="10.00">+ parseBitStream()</text>
<text text-anchor="start" x="278.5" y="-205.5" font-family="Helvetica,sans-Serif" font-size="10.00">+ setDestinationAddress()</text>
<text text-anchor="start" x="278.5" y="-194.5" font-family="Helvetica,sans-Serif" font-size="10.00">+ getDestinationAddress()</text>
<text text-anchor="start" x="278.5" y="-183.5" font-family="Helvetica,sans-Serif" font-size="10.00">+ setSourceAddress()</text>
<text text-anchor="start" x="278.5" y="-172.5" font-family="Helvetica,sans-Serif" font-size="10.00">+ getSourceAddress()</text>
<text text-anchor="start" x="278.5" y="-161.5" font-family="Helvetica,sans-Serif" font-size="10.00">+ addRepeaterAddress()</text>
<text text-anchor="start" x="278.5" y="-150.5" font-family="Helvetica,sans-Serif" font-size="10.00">+ getRepeaterAddresses()</text>
<text text-anchor="start" x="278.5" y="-139.5" font-family="Helvetica,sans-Serif" font-size="10.00">+ setInformation()</text>
<text text-anchor="start" x="278.5" y="-128.5" font-family="Helvetica,sans-Serif" font-size="10.00">+ getInformation()</text>
<text text-anchor="start" x="278.5" y="-117.5" font-family="Helvetica,sans-Serif" font-size="10.00">&#45; AddByteForFcs()</text>
<text text-anchor="start" x="278.5" y="-106.5" font-family="Helvetica,sans-Serif" font-size="10.00">&#45; addToBuildBuffer()</text>
<text text-anchor="start" x="278.5" y="-95.5" font-family="Helvetica,sans-Serif" font-size="10.00">&#45; calculateFcsOnBuildBuffer()</text>
<text text-anchor="start" x="278.5" y="-84.5" font-family="Helvetica,sans-Serif" font-size="10.00">* setDestinationAddress()</text>
<text text-anchor="start" x="278.5" y="-73.5" font-family="Helvetica,sans-Serif" font-size="10.00">* getDestinationAddress()</text>
<text text-anchor="start" x="278.5" y="-62.5" font-family="Helvetica,sans-Serif" font-size="10.00">* setSourceAddress()</text>
<text text-anchor="start" x="278.5" y="-51.5" font-family="Helvetica,sans-Serif" font-size="10.00">* getSourceAddress()</text>
<text text-anchor="start" x="278.5" y="-40.5" font-family="Helvetica,sans-Serif" font-size="10.00">* addRepeaterAddress()</text>
<text text-anchor="start" x="278.5" y="-29.5" font-family="Helvetica,sans-Serif" font-size="10.00">* getRepeaterAddresses()</text>
<text text-anchor="start" x="278.5" y="-18.5" font-family="Helvetica,sans-Serif" font-size="10.00">* setInformation()</text>
<text text-anchor="start" x="278.5" y="-7.5" font-family="Helvetica,sans-Serif" font-size="10.00">* getInformation()</text>
</a>
</g>
</g>
<!-- Node2 -->
<g id="node2" class="node">
<title>Node2</title>
<g id="a_node2"><a xlink:title=" ">
<polygon fill="none" stroke="#bfbfbf" points="41,-463 41,-520 97,-520 97,-463 41,-463"/>
<text text-anchor="middle" x="69" y="-508" font-family="Helvetica,sans-Serif" font-size="10.00">uint16_t</text>
<polyline fill="none" stroke="#bfbfbf" points="41,-501 97,-501 "/>
<text text-anchor="middle" x="69" y="-489" font-family="Helvetica,sans-Serif" font-size="10.00"> </text>
<polyline fill="none" stroke="#bfbfbf" points="41,-482 97,-482 "/>
<text text-anchor="middle" x="69" y="-470" font-family="Helvetica,sans-Serif" font-size="10.00"> </text>
</a>
</g>
</g>
<!-- Node2&#45;&gt;Node1 -->
<g id="edge1" class="edge">
<title>Node2&#45;&gt;Node1</title>
<path fill="none" stroke="#404040" d="M75.75,-462.81C81.65,-441.96 91.55,-413.26 106,-391 147.16,-327.57 209.53,-269.45 260.91,-227.63"/>
<polygon fill="none" stroke="#404040" points="261.02,-227.54 263.19,-220.66 270.37,-220.01 268.21,-226.89 261.02,-227.54"/>
<text text-anchor="middle" x="158.5" y="-354" font-family="Helvetica,sans-Serif" font-size="10.00"> &#45;fcs_</text>
</g>
<!-- Node3 -->
<g id="node3" class="node">
<title>Node3</title>
<g id="a_node3"><a xlink:href="classsignal__easel_1_1ax25_1_1Address.html" target="_top" xlink:title="AX.25 Address class. For encoding and decoding AX.25 addresses.">
<polygon fill="none" stroke="black" points="115.5,-391.5 115.5,-591.5 276.5,-591.5 276.5,-391.5 115.5,-391.5"/>
<text text-anchor="start" x="123.5" y="-579.5" font-family="Helvetica,sans-Serif" font-size="10.00">signal_easel::ax25</text>
<text text-anchor="middle" x="196" y="-568.5" font-family="Helvetica,sans-Serif" font-size="10.00">::Address</text>
<polyline fill="none" stroke="black" points="115.5,-561.5 276.5,-561.5 "/>
<text text-anchor="middle" x="196" y="-549.5" font-family="Helvetica,sans-Serif" font-size="10.00"> </text>
<polyline fill="none" stroke="black" points="115.5,-542.5 276.5,-542.5 "/>
<text text-anchor="start" x="123.5" y="-530.5" font-family="Helvetica,sans-Serif" font-size="10.00">+ Address()</text>
<text text-anchor="start" x="123.5" y="-519.5" font-family="Helvetica,sans-Serif" font-size="10.00">+ Address()</text>
<text text-anchor="start" x="123.5" y="-508.5" font-family="Helvetica,sans-Serif" font-size="10.00">+ Address()</text>
<text text-anchor="start" x="123.5" y="-497.5" font-family="Helvetica,sans-Serif" font-size="10.00">+ assertIsValid()</text>
<text text-anchor="start" x="123.5" y="-486.5" font-family="Helvetica,sans-Serif" font-size="10.00">+ decodeAddress()</text>
<text text-anchor="start" x="123.5" y="-475.5" font-family="Helvetica,sans-Serif" font-size="10.00">+ encodeAddress()</text>
<text text-anchor="start" x="123.5" y="-464.5" font-family="Helvetica,sans-Serif" font-size="10.00">+ getAddressString()</text>
<text text-anchor="start" x="123.5" y="-453.5" font-family="Helvetica,sans-Serif" font-size="10.00">+ getSsid()</text>
<text text-anchor="start" x="123.5" y="-442.5" font-family="Helvetica,sans-Serif" font-size="10.00">+ isAddressStringValid()</text>
<text text-anchor="start" x="123.5" y="-431.5" font-family="Helvetica,sans-Serif" font-size="10.00">+ isCommandOrResponse()</text>
<text text-anchor="start" x="123.5" y="-420.5" font-family="Helvetica,sans-Serif" font-size="10.00">and 8 more...</text>
<text text-anchor="start" x="123.5" y="-409.5" font-family="Helvetica,sans-Serif" font-size="10.00">&#45; assertAddressStringIsValid()</text>
<text text-anchor="start" x="123.5" y="-398.5" font-family="Helvetica,sans-Serif" font-size="10.00">&#45; assertSsidIsValid()</text>
</a>
</g>
</g>
<!-- Node3&#45;&gt;Node1 -->
<g id="edge2" class="edge">
<title>Node3&#45;&gt;Node1</title>
<path fill="none" stroke="#404040" d="M186.87,-391.14C188,-373.71 191,-356.03 197,-340 210.8,-303.15 235.95,-268.78 261.93,-240.26"/>
<polygon fill="none" stroke="#404040" points="262.19,-239.98 263.36,-232.86 270.38,-231.21 269.21,-238.32 262.19,-239.98"/>
<text text-anchor="start" x="197" y="-365" font-family="Helvetica,sans-Serif" font-size="10.00"> &#45;destination_address</text>
<text text-anchor="middle" x="250" y="-354" font-family="Helvetica,sans-Serif" font-size="10.00">_</text>
<text text-anchor="middle" x="250" y="-343" font-family="Helvetica,sans-Serif" font-size="10.00">&#45;source_address_</text>
</g>
<!-- Node4 -->
<g id="node4" class="node">
<title>Node4</title>
<g id="a_node4"><a xlink:title=" ">
<polygon fill="none" stroke="#bfbfbf" points="0,-705.5 0,-762.5 38,-762.5 38,-705.5 0,-705.5"/>
<text text-anchor="middle" x="19" y="-750.5" font-family="Helvetica,sans-Serif" font-size="10.00">bool</text>
<polyline fill="none" stroke="#bfbfbf" points="0,-743.5 38,-743.5 "/>
<text text-anchor="middle" x="19" y="-731.5" font-family="Helvetica,sans-Serif" font-size="10.00"> </text>
<polyline fill="none" stroke="#bfbfbf" points="0,-724.5 38,-724.5 "/>
<text text-anchor="middle" x="19" y="-712.5" font-family="Helvetica,sans-Serif" font-size="10.00"> </text>
</a>
</g>
</g>
<!-- Node4&#45;&gt;Node3 -->
<g id="edge3" class="edge">
<title>Node4&#45;&gt;Node3</title>
<path fill="none" stroke="#404040" d="M14.74,-705.46C12.13,-677.87 12.9,-635.9 36,-610 55.21,-588.46 74.21,-604.51 104.65,-591.44"/>
<polygon fill="none" stroke="#404040" points="104.79,-591.37 108.25,-585.04 115.42,-585.8 111.96,-592.13 104.79,-591.37"/>
<text text-anchor="start" x="36" y="-679" font-family="Helvetica,sans-Serif" font-size="10.00"> &#45;command_or_response</text>
<text text-anchor="middle" x="96.5" y="-668" font-family="Helvetica,sans-Serif" font-size="10.00">_</text>
<text text-anchor="start" x="36" y="-657" font-family="Helvetica,sans-Serif" font-size="10.00">&#45;is_last_address</text>
<text text-anchor="middle" x="96.5" y="-646" font-family="Helvetica,sans-Serif" font-size="10.00">_</text>
<text text-anchor="start" x="36" y="-635" font-family="Helvetica,sans-Serif" font-size="10.00">&#45;reserve_bit</text>
<text text-anchor="middle" x="96.5" y="-624" font-family="Helvetica,sans-Serif" font-size="10.00">_1_</text>
<text text-anchor="middle" x="96.5" y="-613" font-family="Helvetica,sans-Serif" font-size="10.00">&#45;reserve_bit_2_</text>
</g>
<!-- Node5 -->
<g id="node5" class="node">
<title>Node5</title>
<g id="a_node5"><a xlink:title=" ">
<polygon fill="none" stroke="#bfbfbf" points="268,-705.5 268,-762.5 318,-762.5 318,-705.5 268,-705.5"/>
<text text-anchor="middle" x="293" y="-750.5" font-family="Helvetica,sans-Serif" font-size="10.00">uint8_t</text>
<polyline fill="none" stroke="#bfbfbf" points="268,-743.5 318,-743.5 "/>
<text text-anchor="middle" x="293" y="-731.5" font-family="Helvetica,sans-Serif" font-size="10.00"> </text>
<polyline fill="none" stroke="#bfbfbf" points="268,-724.5 318,-724.5 "/>
<text text-anchor="middle" x="293" y="-712.5" font-family="Helvetica,sans-Serif" font-size="10.00"> </text>
</a>
</g>
</g>
<!-- Node5&#45;&gt;Node1 -->
<g id="edge7" class="edge">
<title>Node5&#45;&gt;Node1</title>
<path fill="none" stroke="#404040" d="M299.63,-705.38C300.9,-699.35 302.11,-692.98 303,-687 322.4,-556.45 315.07,-522.45 327,-391 328.68,-372.46 330.51,-353.09 332.38,-333.8"/>
<polygon fill="none" stroke="#404040" points="332.39,-333.75 328.99,-327.39 333.55,-321.81 336.95,-328.17 332.39,-333.75"/>
<text text-anchor="middle" x="341" y="-489" font-family="Helvetica,sans-Serif" font-size="10.00"> &#45;pid_</text>
</g>
<!-- Node5&#45;&gt;Node3 -->
<g id="edge4" class="edge">
<title>Node5&#45;&gt;Node3</title>
<path fill="none" stroke="#404040" d="M278.8,-705.09C276.04,-699.19 273.29,-692.95 271,-687 258.14,-653.68 260.36,-643.51 248,-610 247.13,-607.63 246.23,-605.24 245.31,-602.83"/>
<polygon fill="none" stroke="#404040" points="245.24,-602.67 239.33,-598.55 240.87,-591.5 246.78,-595.63 245.24,-602.67"/>
<text text-anchor="middle" x="287" y="-646" font-family="Helvetica,sans-Serif" font-size="10.00"> &#45;ssid_</text>
</g>
<!-- Node6 -->
<g id="node6" class="node">
<title>Node6</title>
<g id="a_node6"><a xlink:title=" ">
<polygon fill="none" stroke="#bfbfbf" points="141,-705.5 141,-762.5 185,-762.5 185,-705.5 141,-705.5"/>
<text text-anchor="middle" x="163" y="-750.5" font-family="Helvetica,sans-Serif" font-size="10.00">string</text>
<polyline fill="none" stroke="#bfbfbf" points="141,-743.5 185,-743.5 "/>
<text text-anchor="middle" x="163" y="-731.5" font-family="Helvetica,sans-Serif" font-size="10.00"> </text>
<polyline fill="none" stroke="#bfbfbf" points="141,-724.5 185,-724.5 "/>
<text text-anchor="middle" x="163" y="-712.5" font-family="Helvetica,sans-Serif" font-size="10.00"> </text>
</a>
</g>
</g>
<!-- Node6&#45;&gt;Node3 -->
<g id="edge5" class="edge">
<title>Node6&#45;&gt;Node3</title>
<path fill="none" stroke="#404040" d="M161.21,-705.5C160.06,-680.47 159.51,-642.58 164,-610 164.28,-607.95 164.59,-605.88 164.92,-603.8"/>
<polygon fill="none" stroke="#404040" points="164.95,-603.63 162.06,-597.02 167.05,-591.81 169.94,-598.42 164.95,-603.63"/>
<text text-anchor="middle" x="206" y="-646" font-family="Helvetica,sans-Serif" font-size="10.00"> &#45;address_string_</text>
</g>
<!-- Node7 -->
<g id="node7" class="node">
<title>Node7</title>
<g id="a_node7"><a xlink:title=" ">
<polygon fill="none" stroke="#bfbfbf" points="363.5,-463 363.5,-520 402.5,-520 402.5,-463 363.5,-463"/>
<text text-anchor="middle" x="383" y="-508" font-family="Helvetica,sans-Serif" font-size="10.00">Type</text>
<polyline fill="none" stroke="#bfbfbf" points="363.5,-501 402.5,-501 "/>
<text text-anchor="middle" x="383" y="-489" font-family="Helvetica,sans-Serif" font-size="10.00"> </text>
<polyline fill="none" stroke="#bfbfbf" points="363.5,-482 402.5,-482 "/>
<text text-anchor="middle" x="383" y="-470" font-family="Helvetica,sans-Serif" font-size="10.00"> </text>
</a>
</g>
</g>
<!-- Node7&#45;&gt;Node1 -->
<g id="edge6" class="edge">
<title>Node7&#45;&gt;Node1</title>
<path fill="none" stroke="#404040" d="M380.21,-462.78C377.25,-433.28 372.3,-384.02 367.26,-333.82"/>
<polygon fill="none" stroke="#404040" points="367.25,-333.68 362.67,-328.11 366.05,-321.74 370.63,-327.31 367.25,-333.68"/>
<text text-anchor="middle" x="387" y="-354" font-family="Helvetica,sans-Serif" font-size="10.00"> &#45;type_</text>
</g>
<!-- Node8 -->
<g id="node8" class="node">
<title>Node8</title>
<g id="a_node8"><a xlink:title=" ">
<polygon fill="none" stroke="#bfbfbf" points="421,-463 421,-520 525,-520 525,-463 421,-463"/>
<text text-anchor="middle" x="473" y="-508" font-family="Helvetica,sans-Serif" font-size="10.00">vector&lt; uint8_t &gt;</text>
<polyline fill="none" stroke="#bfbfbf" points="421,-501 525,-501 "/>
<text text-anchor="middle" x="473" y="-489" font-family="Helvetica,sans-Serif" font-size="10.00"> </text>
<polyline fill="none" stroke="#bfbfbf" points="421,-482 525,-482 "/>
<text text-anchor="middle" x="473" y="-470" font-family="Helvetica,sans-Serif" font-size="10.00"> </text>
</a>
</g>
</g>
<!-- Node8&#45;&gt;Node1 -->
<g id="edge8" class="edge">
<title>Node8&#45;&gt;Node1</title>
<path fill="none" stroke="#404040" d="M462.62,-462.78C451.53,-433.15 432.98,-383.61 414.1,-333.19"/>
<polygon fill="none" stroke="#404040" points="414.02,-332.98 408.17,-328.76 409.81,-321.74 415.66,-325.96 414.02,-332.98"/>
<text text-anchor="middle" x="461" y="-359.5" font-family="Helvetica,sans-Serif" font-size="10.00"> &#45;build_buffer_</text>
<text text-anchor="middle" x="461" y="-348.5" font-family="Helvetica,sans-Serif" font-size="10.00">&#45;information_</text>
</g>
<!-- Node9 -->
<g id="node9" class="node">
<title>Node9</title>
<g id="a_node9"><a xlink:title=" ">
<polygon fill="none" stroke="#bfbfbf" points="543.5,-457.5 543.5,-525.5 662.5,-525.5 662.5,-457.5 543.5,-457.5"/>
<text text-anchor="start" x="551.5" y="-513.5" font-family="Helvetica,sans-Serif" font-size="10.00">vector&lt; signal_easel</text>
<text text-anchor="middle" x="603" y="-502.5" font-family="Helvetica,sans-Serif" font-size="10.00">::ax25::Address &gt;</text>
<polyline fill="none" stroke="#bfbfbf" points="543.5,-495.5 662.5,-495.5 "/>
<text text-anchor="middle" x="603" y="-483.5" font-family="Helvetica,sans-Serif" font-size="10.00"> </text>
<polyline fill="none" stroke="#bfbfbf" points="543.5,-476.5 662.5,-476.5 "/>
<text text-anchor="middle" x="603" y="-464.5" font-family="Helvetica,sans-Serif" font-size="10.00"> </text>
</a>
</g>
</g>
<!-- Node9&#45;&gt;Node1 -->
<g id="edge9" class="edge">
<title>Node9&#45;&gt;Node1</title>
<path fill="none" stroke="#404040" d="M581.62,-457.25C561.4,-426.3 529.8,-379.19 500,-340 480.48,-314.33 458.55,-287.37 437.61,-262.41"/>
<polygon fill="none" stroke="#404040" points="437.38,-262.13 430.45,-260.12 429.64,-252.95 436.57,-254.96 437.38,-262.13"/>
<text text-anchor="middle" x="577.5" y="-354" font-family="Helvetica,sans-Serif" font-size="10.00"> &#45;repeater_addresses_</text>
</g>
</g>
</svg>
