<?xml version="1.0" encoding="UTF-8" standalone="no"?>
<!DOCTYPE svg PUBLIC "-//W3C//DTD SVG 1.1//EN"
 "http://www.w3.org/Graphics/SVG/1.1/DTD/svg11.dtd">
<!-- Generated by graphviz version 2.43.0 (0)
 -->
<!-- Title: signal_easel::afsk::Demodulator Pages: 1 -->
<svg width="851pt" height="623pt"
 viewBox="0.00 0.00 851.00 623.00" xmlns="http://www.w3.org/2000/svg" xmlns:xlink="http://www.w3.org/1999/xlink">
<g id="graph0" class="graph" transform="scale(1 1) rotate(0) translate(4 619)">
<title>signal_easel::afsk::Demodulator</title>
<!-- Node1 -->
<g id="node1" class="node">
<title>Node1</title>
<g id="a_node1"><a xlink:title="Demodulates an AFSK signal into data.">
<polygon fill="#bfbfbf" stroke="black" points="360,-0.5 360,-123.5 536,-123.5 536,-0.5 360,-0.5"/>
<text text-anchor="start" x="368" y="-111.5" font-family="Helvetica,sans-Serif" font-size="10.00">signal_easel::afsk</text>
<text text-anchor="middle" x="448" y="-100.5" font-family="Helvetica,sans-Serif" font-size="10.00">::Demodulator</text>
<polyline fill="none" stroke="black" points="360,-93.5 536,-93.5 "/>
<text text-anchor="middle" x="448" y="-81.5" font-family="Helvetica,sans-Serif" font-size="10.00"> </text>
<polyline fill="none" stroke="black" points="360,-74.5 536,-74.5 "/>
<text text-anchor="start" x="368" y="-62.5" font-family="Helvetica,sans-Serif" font-size="10.00">+ Demodulator()</text>
<text text-anchor="start" x="368" y="-51.5" font-family="Helvetica,sans-Serif" font-size="10.00">+ ~Demodulator()</text>
<text text-anchor="start" x="368" y="-40.5" font-family="Helvetica,sans-Serif" font-size="10.00">+ lookForString()</text>
<text text-anchor="start" x="368" y="-29.5" font-family="Helvetica,sans-Serif" font-size="10.00">+ processAudioBuffer()</text>
<text text-anchor="start" x="368" y="-18.5" font-family="Helvetica,sans-Serif" font-size="10.00">&#45; audioBufferToBaseBandSignal()</text>
<text text-anchor="start" x="368" y="-7.5" font-family="Helvetica,sans-Serif" font-size="10.00">&#45; baseBandToBitStream()</text>
</a>
</g>
</g>
<!-- Node2 -->
<g id="node2" class="node">
<title>Node2</title>
<g id="a_node2"><a xlink:href="classsignal__easel_1_1Demodulator.html" target="_top" xlink:title="The base class for all demodulators that turn audio into data.">
<polygon fill="none" stroke="black" points="110.5,-210 110.5,-311 257.5,-311 257.5,-210 110.5,-210"/>
<text text-anchor="middle" x="184" y="-299" font-family="Helvetica,sans-Serif" font-size="10.00">signal_easel::Demodulator</text>
<polyline fill="none" stroke="black" points="110.5,-292 257.5,-292 "/>
<text text-anchor="middle" x="184" y="-280" font-family="Helvetica,sans-Serif" font-size="10.00"> </text>
<polyline fill="none" stroke="black" points="110.5,-273 257.5,-273 "/>
<text text-anchor="start" x="118.5" y="-261" font-family="Helvetica,sans-Serif" font-size="10.00">+ Demodulator()</text>
<text text-anchor="start" x="118.5" y="-250" font-family="Helvetica,sans-Serif" font-size="10.00">+ ~Demodulator()</text>
<text text-anchor="start" x="118.5" y="-239" font-family="Helvetica,sans-Serif" font-size="10.00">+ clearBuffer()</text>
<text text-anchor="start" x="118.5" y="-228" font-family="Helvetica,sans-Serif" font-size="10.00">+ loadAudioFromFile()</text>
<text text-anchor="start" x="118.5" y="-217" font-family="Helvetica,sans-Serif" font-size="10.00"># getAudioBuffer()</text>
</a>
</g>
</g>
<!-- Node2&#45;&gt;Node1 -->
<g id="edge1" class="edge">
<title>Node2&#45;&gt;Node1</title>
<path fill="none" stroke="midnightblue" d="M256.17,-203.46C270.31,-192.62 285.08,-181.4 299,-171 319.73,-155.51 342.26,-139.01 363.38,-123.69"/>
<polygon fill="none" stroke="midnightblue" points="253.72,-200.92 247.92,-209.79 257.99,-206.48 253.72,-200.92"/>
</g>
<!-- Node3 -->
<g id="node3" class="node">
<title>Node3</title>
<g id="a_node3"><a xlink:title=" ">
<polygon fill="none" stroke="#bfbfbf" points="0,-430.5 0,-487.5 104,-487.5 104,-430.5 0,-430.5"/>
<text text-anchor="middle" x="52" y="-475.5" font-family="Helvetica,sans-Serif" font-size="10.00">vector&lt; int16_t &gt;</text>
<polyline fill="none" stroke="#bfbfbf" points="0,-468.5 104,-468.5 "/>
<text text-anchor="middle" x="52" y="-456.5" font-family="Helvetica,sans-Serif" font-size="10.00"> </text>
<polyline fill="none" stroke="#bfbfbf" points="0,-449.5 104,-449.5 "/>
<text text-anchor="middle" x="52" y="-437.5" font-family="Helvetica,sans-Serif" font-size="10.00"> </text>
</a>
</g>
</g>
<!-- Node3&#45;&gt;Node2 -->
<g id="edge2" class="edge">
<title>Node3&#45;&gt;Node2</title>
<path fill="none" stroke="#404040" d="M66.07,-430.2C75.56,-412.09 88.74,-388.16 102,-368 112.36,-352.25 124.35,-335.83 135.9,-320.73"/>
<polygon fill="none" stroke="#404040" points="136.07,-320.51 136.58,-313.32 143.42,-311.02 142.91,-318.22 136.07,-320.51"/>
<text text-anchor="middle" x="141" y="-387.5" font-family="Helvetica,sans-Serif" font-size="10.00"> #audio_buffer_</text>
</g>
<!-- Node4 -->
<g id="node4" class="node">
<title>Node4</title>
<g id="a_node4"><a xlink:href="structsignal__easel_1_1Settings.html" target="_top" xlink:title="The universal settings for MWAV.">
<polygon fill="none" stroke="black" points="122.5,-430.5 122.5,-487.5 245.5,-487.5 245.5,-430.5 122.5,-430.5"/>
<text text-anchor="middle" x="184" y="-475.5" font-family="Helvetica,sans-Serif" font-size="10.00">signal_easel::Settings</text>
<polyline fill="none" stroke="black" points="122.5,-468.5 245.5,-468.5 "/>
<text text-anchor="middle" x="184" y="-456.5" font-family="Helvetica,sans-Serif" font-size="10.00"> </text>
<polyline fill="none" stroke="black" points="122.5,-449.5 245.5,-449.5 "/>
<text text-anchor="middle" x="184" y="-437.5" font-family="Helvetica,sans-Serif" font-size="10.00"> </text>
</a>
</g>
</g>
<!-- Node4&#45;&gt;Node2 -->
<g id="edge3" class="edge">
<title>Node4&#45;&gt;Node2</title>
<path fill="none" stroke="#404040" d="M184,-430.26C184,-402.63 184,-359.27 184,-323.42"/>
<polygon fill="none" stroke="#404040" points="184,-323.09 180,-317.09 184,-311.09 188,-317.09 184,-323.09"/>
<text text-anchor="middle" x="212" y="-387.5" font-family="Helvetica,sans-Serif" font-size="10.00"> #settings_</text>
</g>
<!-- Node8 -->
<g id="node8" class="node">
<title>Node8</title>
<g id="a_node8"><a xlink:href="structsignal__easel_1_1afsk_1_1Settings.html" target="_top" xlink:title="Settings for AFSK modulation/demodulation.">
<polygon fill="none" stroke="black" points="308,-226.5 308,-294.5 412,-294.5 412,-226.5 308,-226.5"/>
<text text-anchor="start" x="316" y="-282.5" font-family="Helvetica,sans-Serif" font-size="10.00">signal_easel::afsk</text>
<text text-anchor="middle" x="360" y="-271.5" font-family="Helvetica,sans-Serif" font-size="10.00">::Settings</text>
<polyline fill="none" stroke="black" points="308,-264.5 412,-264.5 "/>
<text text-anchor="middle" x="360" y="-252.5" font-family="Helvetica,sans-Serif" font-size="10.00"> </text>
<polyline fill="none" stroke="black" points="308,-245.5 412,-245.5 "/>
<text text-anchor="middle" x="360" y="-233.5" font-family="Helvetica,sans-Serif" font-size="10.00"> </text>
</a>
</g>
</g>
<!-- Node4&#45;&gt;Node8 -->
<g id="edge8" class="edge">
<title>Node4&#45;&gt;Node8</title>
<path fill="none" stroke="midnightblue" d="M230.82,-424.05C235.41,-420.15 239.89,-416.1 244,-412 280.9,-375.19 316.44,-326.49 338.24,-294.6"/>
<polygon fill="none" stroke="midnightblue" points="228.52,-421.41 223.01,-430.46 232.96,-426.82 228.52,-421.41"/>
</g>
<!-- Node5 -->
<g id="node5" class="node">
<title>Node5</title>
<g id="a_node5"><a xlink:title=" ">
<polygon fill="none" stroke="#bfbfbf" points="50,-557.5 50,-614.5 100,-614.5 100,-557.5 50,-557.5"/>
<text text-anchor="middle" x="75" y="-602.5" font-family="Helvetica,sans-Serif" font-size="10.00">double</text>
<polyline fill="none" stroke="#bfbfbf" points="50,-595.5 100,-595.5 "/>
<text text-anchor="middle" x="75" y="-583.5" font-family="Helvetica,sans-Serif" font-size="10.00"> </text>
<polyline fill="none" stroke="#bfbfbf" points="50,-576.5 100,-576.5 "/>
<text text-anchor="middle" x="75" y="-564.5" font-family="Helvetica,sans-Serif" font-size="10.00"> </text>
</a>
</g>
</g>
<!-- Node5&#45;&gt;Node4 -->
<g id="edge4" class="edge">
<title>Node5&#45;&gt;Node4</title>
<path fill="none" stroke="#404040" d="M75.99,-557.27C77.86,-540.86 82.57,-520.52 94,-506 99.03,-499.61 105.2,-494.02 111.91,-489.16"/>
<polygon fill="none" stroke="#404040" points="112.02,-489.09 114.87,-482.47 122.08,-482.55 119.23,-489.17 112.02,-489.09"/>
<text text-anchor="middle" x="137" y="-531" font-family="Helvetica,sans-Serif" font-size="10.00"> +amplitude</text>
<text text-anchor="start" x="94" y="-520" font-family="Helvetica,sans-Serif" font-size="10.00">+call_sign_pause</text>
<text text-anchor="middle" x="137" y="-509" font-family="Helvetica,sans-Serif" font-size="10.00">_seconds</text>
</g>
<!-- Node6 -->
<g id="node6" class="node">
<title>Node6</title>
<g id="a_node6"><a xlink:title=" ">
<polygon fill="none" stroke="#bfbfbf" points="142.5,-557.5 142.5,-614.5 225.5,-614.5 225.5,-557.5 142.5,-557.5"/>
<text text-anchor="middle" x="184" y="-602.5" font-family="Helvetica,sans-Serif" font-size="10.00">CallSignMode</text>
<polyline fill="none" stroke="#bfbfbf" points="142.5,-595.5 225.5,-595.5 "/>
<text text-anchor="middle" x="184" y="-583.5" font-family="Helvetica,sans-Serif" font-size="10.00"> </text>
<polyline fill="none" stroke="#bfbfbf" points="142.5,-576.5 225.5,-576.5 "/>
<text text-anchor="middle" x="184" y="-564.5" font-family="Helvetica,sans-Serif" font-size="10.00"> </text>
</a>
</g>
</g>
<!-- Node6&#45;&gt;Node4 -->
<g id="edge5" class="edge">
<title>Node6&#45;&gt;Node4</title>
<path fill="none" stroke="#404040" d="M184,-557.26C184,-540.35 184,-518.46 184,-499.73"/>
<polygon fill="none" stroke="#404040" points="184,-499.66 180,-493.66 184,-487.66 188,-493.66 184,-499.66"/>
<text text-anchor="middle" x="228" y="-520" font-family="Helvetica,sans-Serif" font-size="10.00"> +call_sign_mode</text>
</g>
<!-- Node7 -->
<g id="node7" class="node">
<title>Node7</title>
<g id="a_node7"><a xlink:title=" ">
<polygon fill="none" stroke="#bfbfbf" points="273,-557.5 273,-614.5 317,-614.5 317,-557.5 273,-557.5"/>
<text text-anchor="middle" x="295" y="-602.5" font-family="Helvetica,sans-Serif" font-size="10.00">string</text>
<polyline fill="none" stroke="#bfbfbf" points="273,-595.5 317,-595.5 "/>
<text text-anchor="middle" x="295" y="-583.5" font-family="Helvetica,sans-Serif" font-size="10.00"> </text>
<polyline fill="none" stroke="#bfbfbf" points="273,-576.5 317,-576.5 "/>
<text text-anchor="middle" x="295" y="-564.5" font-family="Helvetica,sans-Serif" font-size="10.00"> </text>
</a>
</g>
</g>
<!-- Node7&#45;&gt;Node4 -->
<g id="edge6" class="edge">
<title>Node7&#45;&gt;Node4</title>
<path fill="none" stroke="#404040" d="M292.8,-557.24C290.25,-540.82 284.77,-520.47 273,-506 268.18,-500.07 262.38,-494.81 256.1,-490.18"/>
<polygon fill="none" stroke="#404040" points="255.88,-490.04 248.67,-490.06 245.88,-483.41 253.09,-483.39 255.88,-490.04"/>
<text text-anchor="middle" x="316.5" y="-520" font-family="Helvetica,sans-Serif" font-size="10.00"> +call_sign</text>
</g>
<!-- Node8&#45;&gt;Node1 -->
<g id="edge7" class="edge">
<title>Node8&#45;&gt;Node1</title>
<path fill="none" stroke="#404040" d="M368.76,-226.29C375.63,-202.3 386.15,-169.45 399,-142 400.14,-139.57 401.34,-137.11 402.58,-134.66"/>
<polygon fill="none" stroke="#404040" points="402.67,-134.49 401.96,-127.31 408.3,-123.89 409.02,-131.06 402.67,-134.49"/>
<text text-anchor="middle" x="438" y="-145" font-family="Helvetica,sans-Serif" font-size="10.00"> &#45;afsk_settings_</text>
</g>
<!-- Node9 -->
<g id="node9" class="node">
<title>Node9</title>
<g id="a_node9"><a xlink:title=" ">
<polygon fill="none" stroke="#bfbfbf" points="264,-430.5 264,-487.5 338,-487.5 338,-430.5 264,-430.5"/>
<text text-anchor="middle" x="301" y="-475.5" font-family="Helvetica,sans-Serif" font-size="10.00">BitEncoding</text>
<polyline fill="none" stroke="#bfbfbf" points="264,-468.5 338,-468.5 "/>
<text text-anchor="middle" x="301" y="-456.5" font-family="Helvetica,sans-Serif" font-size="10.00"> </text>
<polyline fill="none" stroke="#bfbfbf" points="264,-449.5 338,-449.5 "/>
<text text-anchor="middle" x="301" y="-437.5" font-family="Helvetica,sans-Serif" font-size="10.00"> </text>
</a>
</g>
</g>
<!-- Node9&#45;&gt;Node8 -->
<g id="edge9" class="edge">
<title>Node9&#45;&gt;Node8</title>
<path fill="none" stroke="#404040" d="M297.89,-430.37C296.69,-412.33 296.68,-388.41 302,-368 307.72,-346.03 318.92,-323.67 329.96,-305.15"/>
<polygon fill="none" stroke="#404040" points="330.09,-304.93 329.84,-297.73 336.4,-294.72 336.65,-301.93 330.09,-304.93"/>
<text text-anchor="middle" x="339" y="-387.5" font-family="Helvetica,sans-Serif" font-size="10.00"> +bit_encoding</text>
</g>
<!-- Node10 -->
<g id="node10" class="node">
<title>Node10</title>
<g id="a_node10"><a xlink:title=" ">
<polygon fill="none" stroke="#bfbfbf" points="375,-430.5 375,-487.5 413,-487.5 413,-430.5 375,-430.5"/>
<text text-anchor="middle" x="394" y="-475.5" font-family="Helvetica,sans-Serif" font-size="10.00">bool</text>
<polyline fill="none" stroke="#bfbfbf" points="375,-468.5 413,-468.5 "/>
<text text-anchor="middle" x="394" y="-456.5" font-family="Helvetica,sans-Serif" font-size="10.00"> </text>
<polyline fill="none" stroke="#bfbfbf" points="375,-449.5 413,-449.5 "/>
<text text-anchor="middle" x="394" y="-437.5" font-family="Helvetica,sans-Serif" font-size="10.00"> </text>
</a>
</g>
</g>
<!-- Node10&#45;&gt;Node8 -->
<g id="edge10" class="edge">
<title>Node10&#45;&gt;Node8</title>
<path fill="none" stroke="#404040" d="M389.2,-430.26C383.66,-398.23 374.46,-345.07 367.87,-306.97"/>
<polygon fill="none" stroke="#404040" points="367.79,-306.5 362.82,-301.27 365.74,-294.67 370.7,-299.9 367.79,-306.5"/>
<text text-anchor="middle" x="445.5" y="-387.5" font-family="Helvetica,sans-Serif" font-size="10.00"> +include_ascii_padding</text>
</g>
<!-- Node11 -->
<g id="node11" class="node">
<title>Node11</title>
<g id="a_node11"><a xlink:href="classsignal__easel_1_1BitStream.html" target="_top" xlink:title=" ">
<polygon fill="none" stroke="black" points="462.5,-171.5 462.5,-349.5 609.5,-349.5 609.5,-171.5 462.5,-171.5"/>
<text text-anchor="middle" x="536" y="-337.5" font-family="Helvetica,sans-Serif" font-size="10.00">signal_easel::BitStream</text>
<polyline fill="none" stroke="black" points="462.5,-330.5 609.5,-330.5 "/>
<text text-anchor="middle" x="536" y="-318.5" font-family="Helvetica,sans-Serif" font-size="10.00"> </text>
<polyline fill="none" stroke="black" points="462.5,-311.5 609.5,-311.5 "/>
<text text-anchor="start" x="470.5" y="-299.5" font-family="Helvetica,sans-Serif" font-size="10.00">+ addBits()</text>
<text text-anchor="start" x="470.5" y="-288.5" font-family="Helvetica,sans-Serif" font-size="10.00">+ addOneBit()</text>
<text text-anchor="start" x="470.5" y="-277.5" font-family="Helvetica,sans-Serif" font-size="10.00">+ addZeroBit()</text>
<text text-anchor="start" x="470.5" y="-266.5" font-family="Helvetica,sans-Serif" font-size="10.00">+ dumpBitStream()</text>
<text text-anchor="start" x="470.5" y="-255.5" font-family="Helvetica,sans-Serif" font-size="10.00">+ dumpBitStreamAsAscii()</text>
<text text-anchor="start" x="470.5" y="-244.5" font-family="Helvetica,sans-Serif" font-size="10.00">+ dumpBitStreamAsHex()</text>
<text text-anchor="start" x="470.5" y="-233.5" font-family="Helvetica,sans-Serif" font-size="10.00">+ getBitStreamLength()</text>
<text text-anchor="start" x="470.5" y="-222.5" font-family="Helvetica,sans-Serif" font-size="10.00">+ getBitVector()</text>
<text text-anchor="start" x="470.5" y="-211.5" font-family="Helvetica,sans-Serif" font-size="10.00">+ peakNextBit()</text>
<text text-anchor="start" x="470.5" y="-200.5" font-family="Helvetica,sans-Serif" font-size="10.00">+ peakNextByte()</text>
<text text-anchor="start" x="470.5" y="-189.5" font-family="Helvetica,sans-Serif" font-size="10.00">+ popNextBit()</text>
<text text-anchor="start" x="470.5" y="-178.5" font-family="Helvetica,sans-Serif" font-size="10.00">+ pushBufferToBitStream()</text>
</a>
</g>
</g>
<!-- Node11&#45;&gt;Node1 -->
<g id="edge11" class="edge">
<title>Node11&#45;&gt;Node1</title>
<path fill="none" stroke="#404040" d="M496.5,-171.31C491.03,-159.09 485.47,-146.67 480.15,-134.8"/>
<polygon fill="none" stroke="#404040" points="480.05,-134.57 473.95,-130.72 475.14,-123.61 481.25,-127.45 480.05,-134.57"/>
<text text-anchor="middle" x="539" y="-145" font-family="Helvetica,sans-Serif" font-size="10.00"> #output_bit_stream_</text>
</g>
<!-- Node12 -->
<g id="node12" class="node">
<title>Node12</title>
<g id="a_node12"><a xlink:title=" ">
<polygon fill="none" stroke="#bfbfbf" points="605,-430.5 605,-487.5 661,-487.5 661,-430.5 605,-430.5"/>
<text text-anchor="middle" x="633" y="-475.5" font-family="Helvetica,sans-Serif" font-size="10.00">uint32_t</text>
<polyline fill="none" stroke="#bfbfbf" points="605,-468.5 661,-468.5 "/>
<text text-anchor="middle" x="633" y="-456.5" font-family="Helvetica,sans-Serif" font-size="10.00"> </text>
<polyline fill="none" stroke="#bfbfbf" points="605,-449.5 661,-449.5 "/>
<text text-anchor="middle" x="633" y="-437.5" font-family="Helvetica,sans-Serif" font-size="10.00"> </text>
</a>
</g>
</g>
<!-- Node12&#45;&gt;Node11 -->
<g id="edge12" class="edge">
<title>Node12&#45;&gt;Node11</title>
<path fill="none" stroke="#404040" d="M625.18,-430.2C619.67,-412.08 611.57,-388.15 602,-368 600.78,-365.43 599.51,-362.84 598.21,-360.25"/>
<polygon fill="none" stroke="#404040" points="598.18,-360.21 591.86,-356.75 592.63,-349.58 598.95,-353.04 598.18,-360.21"/>
<text text-anchor="middle" x="668.5" y="-387.5" font-family="Helvetica,sans-Serif" font-size="10.00"> &#45;bit_stream_buffer_</text>
</g>
<!-- Node13 -->
<g id="node13" class="node">
<title>Node13</title>
<g id="a_node13"><a xlink:title=" ">
<polygon fill="none" stroke="#bfbfbf" points="737.5,-430.5 737.5,-487.5 766.5,-487.5 766.5,-430.5 737.5,-430.5"/>
<text text-anchor="middle" x="752" y="-475.5" font-family="Helvetica,sans-Serif" font-size="10.00">int</text>
<polyline fill="none" stroke="#bfbfbf" points="737.5,-468.5 766.5,-468.5 "/>
<text text-anchor="middle" x="752" y="-456.5" font-family="Helvetica,sans-Serif" font-size="10.00"> </text>
<polyline fill="none" stroke="#bfbfbf" points="737.5,-449.5 766.5,-449.5 "/>
<text text-anchor="middle" x="752" y="-437.5" font-family="Helvetica,sans-Serif" font-size="10.00"> </text>
</a>
</g>
</g>
<!-- Node13&#45;&gt;Node11 -->
<g id="edge13" class="edge">
<title>Node13&#45;&gt;Node11</title>
<path fill="none" stroke="#404040" d="M750.12,-430.28C747.22,-410.02 739.97,-383.48 722,-368 689.47,-339.98 664.03,-367.22 620.79,-349.73"/>
<polygon fill="none" stroke="#404040" points="620.54,-349.61 613.4,-350.63 609.71,-344.43 616.85,-343.41 620.54,-349.61"/>
<text text-anchor="middle" x="794.5" y="-404" font-family="Helvetica,sans-Serif" font-size="10.00"> &#45;bit_stream_index_</text>
<text text-anchor="start" x="746" y="-393" font-family="Helvetica,sans-Serif" font-size="10.00">&#45;bit_stream_length</text>
<text text-anchor="middle" x="794.5" y="-382" font-family="Helvetica,sans-Serif" font-size="10.00">_</text>
<text text-anchor="middle" x="794.5" y="-371" font-family="Helvetica,sans-Serif" font-size="10.00">&#45;bit_stream_offset_</text>
</g>
<!-- Node14 -->
<g id="node14" class="node">
<title>Node14</title>
<g id="a_node14"><a xlink:title=" ">
<polygon fill="none" stroke="#bfbfbf" points="477,-430.5 477,-487.5 587,-487.5 587,-430.5 477,-430.5"/>
<text text-anchor="middle" x="532" y="-475.5" font-family="Helvetica,sans-Serif" font-size="10.00">vector&lt; uint32_t &gt;</text>
<polyline fill="none" stroke="#bfbfbf" points="477,-468.5 587,-468.5 "/>
<text text-anchor="middle" x="532" y="-456.5" font-family="Helvetica,sans-Serif" font-size="10.00"> </text>
<polyline fill="none" stroke="#bfbfbf" points="477,-449.5 587,-449.5 "/>
<text text-anchor="middle" x="532" y="-437.5" font-family="Helvetica,sans-Serif" font-size="10.00"> </text>
</a>
</g>
</g>
<!-- Node14&#45;&gt;Node11 -->
<g id="edge14" class="edge">
<title>Node14&#45;&gt;Node11</title>
<path fill="none" stroke="#404040" d="M532.56,-430.26C532.94,-412 533.45,-386.86 533.96,-361.56"/>
<polygon fill="none" stroke="#404040" points="533.96,-361.55 530.09,-355.47 534.21,-349.56 538.08,-355.64 533.96,-361.55"/>
<text text-anchor="middle" x="565.5" y="-387.5" font-family="Helvetica,sans-Serif" font-size="10.00"> &#45;bit_stream_</text>
</g>
<!-- Node15 -->
<g id="node15" class="node">
<title>Node15</title>
<g id="a_node15"><a xlink:title=" ">
<polygon fill="none" stroke="#bfbfbf" points="628,-232 628,-289 732,-289 732,-232 628,-232"/>
<text text-anchor="middle" x="680" y="-277" font-family="Helvetica,sans-Serif" font-size="10.00">vector&lt; uint8_t &gt;</text>
<polyline fill="none" stroke="#bfbfbf" points="628,-270 732,-270 "/>
<text text-anchor="middle" x="680" y="-258" font-family="Helvetica,sans-Serif" font-size="10.00"> </text>
<polyline fill="none" stroke="#bfbfbf" points="628,-251 732,-251 "/>
<text text-anchor="middle" x="680" y="-239" font-family="Helvetica,sans-Serif" font-size="10.00"> </text>
</a>
</g>
</g>
<!-- Node15&#45;&gt;Node1 -->
<g id="edge15" class="edge">
<title>Node15&#45;&gt;Node1</title>
<path fill="none" stroke="#404040" d="M665.59,-231.69C650.97,-205.7 626.23,-167.22 596,-142 581.18,-129.64 564.12,-118.38 546.97,-108.49"/>
<polygon fill="none" stroke="#404040" points="546.77,-108.38 539.58,-108.93 536.3,-102.51 543.49,-101.96 546.77,-108.38"/>
<text text-anchor="middle" x="657" y="-145" font-family="Helvetica,sans-Serif" font-size="10.00"> &#45;base_band_signal_</text>
</g>
</g>
</svg>
