<?xml version="1.0" encoding="UTF-8" standalone="no"?>
<!DOCTYPE svg PUBLIC "-//W3C//DTD SVG 1.1//EN"
 "http://www.w3.org/Graphics/SVG/1.1/DTD/svg11.dtd">
<!-- Generated by graphviz version 2.43.0 (0)
 -->
<!-- Title: signal_easel::ax25::Frame Pages: 1 -->
<svg width="764pt" height="804pt"
 viewBox="0.00 0.00 764.00 804.00" xmlns="http://www.w3.org/2000/svg" xmlns:xlink="http://www.w3.org/1999/xlink">
<g id="graph0" class="graph" transform="scale(1 1) rotate(0) translate(4 800)">
<title>signal_easel::ax25::Frame</title>
<!-- Node1 -->
<g id="node1" class="node">
<title>Node1</title>
<g id="a_node1"><a xlink:title=" ">
<polygon fill="#bfbfbf" stroke="black" points="396.5,-0.5 396.5,-354.5 569.5,-354.5 569.5,-0.5 396.5,-0.5"/>
<text text-anchor="start" x="404.5" y="-342.5" font-family="Helvetica,sans-Serif" font-size="10.00">signal_easel::ax25</text>
<text text-anchor="middle" x="483" y="-331.5" font-family="Helvetica,sans-Serif" font-size="10.00">::Frame</text>
<polyline fill="none" stroke="black" points="396.5,-324.5 569.5,-324.5 "/>
<text text-anchor="middle" x="483" y="-312.5" font-family="Helvetica,sans-Serif" font-size="10.00"> </text>
<polyline fill="none" stroke="black" points="396.5,-305.5 569.5,-305.5 "/>
<text text-anchor="start" x="404.5" y="-293.5" font-family="Helvetica,sans-Serif" font-size="10.00">+ Frame()</text>
<text text-anchor="start" x="404.5" y="-282.5" font-family="Helvetica,sans-Serif" font-size="10.00">+ buildFrame()</text>
<text text-anchor="start" x="404.5" y="-271.5" font-family="Helvetica,sans-Serif" font-size="10.00">+ encodeFrame()</text>
<text text-anchor="start" x="404.5" y="-260.5" font-family="Helvetica,sans-Serif" font-size="10.00">+ isFrameValid()</text>
<text text-anchor="start" x="404.5" y="-249.5" font-family="Helvetica,sans-Serif" font-size="10.00">+ parseBitStream()</text>
<text text-anchor="start" x="404.5" y="-238.5" font-family="Helvetica,sans-Serif" font-size="10.00">+ parseNrziDecodedBitStream()</text>
<text text-anchor="start" x="404.5" y="-227.5" font-family="Helvetica,sans-Serif" font-size="10.00">+ setDestinationAddress()</text>
<text text-anchor="start" x="404.5" y="-216.5" font-family="Helvetica,sans-Serif" font-size="10.00">+ getDestinationAddress()</text>
<text text-anchor="start" x="404.5" y="-205.5" font-family="Helvetica,sans-Serif" font-size="10.00">+ setSourceAddress()</text>
<text text-anchor="start" x="404.5" y="-194.5" font-family="Helvetica,sans-Serif" font-size="10.00">+ getSourceAddress()</text>
<text text-anchor="start" x="404.5" y="-183.5" font-family="Helvetica,sans-Serif" font-size="10.00">+ addRepeaterAddress()</text>
<text text-anchor="start" x="404.5" y="-172.5" font-family="Helvetica,sans-Serif" font-size="10.00">+ getRepeaterAddresses()</text>
<text text-anchor="start" x="404.5" y="-161.5" font-family="Helvetica,sans-Serif" font-size="10.00">+ setInformation()</text>
<text text-anchor="start" x="404.5" y="-150.5" font-family="Helvetica,sans-Serif" font-size="10.00">+ getInformation()</text>
<text text-anchor="start" x="404.5" y="-139.5" font-family="Helvetica,sans-Serif" font-size="10.00">+ getInformationRef()</text>
<text text-anchor="start" x="404.5" y="-128.5" font-family="Helvetica,sans-Serif" font-size="10.00">&#45; AddByteForFcs()</text>
<text text-anchor="start" x="404.5" y="-117.5" font-family="Helvetica,sans-Serif" font-size="10.00">&#45; addToBuildBuffer()</text>
<text text-anchor="start" x="404.5" y="-106.5" font-family="Helvetica,sans-Serif" font-size="10.00">&#45; calculateFcsOnBuildBuffer()</text>
<text text-anchor="start" x="404.5" y="-95.5" font-family="Helvetica,sans-Serif" font-size="10.00">* setDestinationAddress()</text>
<text text-anchor="start" x="404.5" y="-84.5" font-family="Helvetica,sans-Serif" font-size="10.00">* getDestinationAddress()</text>
<text text-anchor="start" x="404.5" y="-73.5" font-family="Helvetica,sans-Serif" font-size="10.00">* setSourceAddress()</text>
<text text-anchor="start" x="404.5" y="-62.5" font-family="Helvetica,sans-Serif" font-size="10.00">* getSourceAddress()</text>
<text text-anchor="start" x="404.5" y="-51.5" font-family="Helvetica,sans-Serif" font-size="10.00">* addRepeaterAddress()</text>
<text text-anchor="start" x="404.5" y="-40.5" font-family="Helvetica,sans-Serif" font-size="10.00">* getRepeaterAddresses()</text>
<text text-anchor="start" x="404.5" y="-29.5" font-family="Helvetica,sans-Serif" font-size="10.00">* setInformation()</text>
<text text-anchor="start" x="404.5" y="-18.5" font-family="Helvetica,sans-Serif" font-size="10.00">* getInformation()</text>
<text text-anchor="start" x="404.5" y="-7.5" font-family="Helvetica,sans-Serif" font-size="10.00">* getInformationRef()</text>
</a>
</g>
</g>
<!-- Node2 -->
<g id="node2" class="node">
<title>Node2</title>
<g id="a_node2"><a xlink:href="classsignal__easel_1_1ax25_1_1Address.html" target="_top" xlink:title="AX.25 Address class. For encoding and decoding AX.25 addresses.">
<polygon fill="none" stroke="black" points="83.5,-424.5 83.5,-624.5 244.5,-624.5 244.5,-424.5 83.5,-424.5"/>
<text text-anchor="start" x="91.5" y="-612.5" font-family="Helvetica,sans-Serif" font-size="10.00">signal_easel::ax25</text>
<text text-anchor="middle" x="164" y="-601.5" font-family="Helvetica,sans-Serif" font-size="10.00">::Address</text>
<polyline fill="none" stroke="black" points="83.5,-594.5 244.5,-594.5 "/>
<text text-anchor="middle" x="164" y="-582.5" font-family="Helvetica,sans-Serif" font-size="10.00"> </text>
<polyline fill="none" stroke="black" points="83.5,-575.5 244.5,-575.5 "/>
<text text-anchor="start" x="91.5" y="-563.5" font-family="Helvetica,sans-Serif" font-size="10.00">+ Address()</text>
<text text-anchor="start" x="91.5" y="-552.5" font-family="Helvetica,sans-Serif" font-size="10.00">+ Address()</text>
<text text-anchor="start" x="91.5" y="-541.5" font-family="Helvetica,sans-Serif" font-size="10.00">+ Address()</text>
<text text-anchor="start" x="91.5" y="-530.5" font-family="Helvetica,sans-Serif" font-size="10.00">+ assertIsValid()</text>
<text text-anchor="start" x="91.5" y="-519.5" font-family="Helvetica,sans-Serif" font-size="10.00">+ decodeAddress()</text>
<text text-anchor="start" x="91.5" y="-508.5" font-family="Helvetica,sans-Serif" font-size="10.00">+ encodeAddress()</text>
<text text-anchor="start" x="91.5" y="-497.5" font-family="Helvetica,sans-Serif" font-size="10.00">+ getAddressString()</text>
<text text-anchor="start" x="91.5" y="-486.5" font-family="Helvetica,sans-Serif" font-size="10.00">+ getSsid()</text>
<text text-anchor="start" x="91.5" y="-475.5" font-family="Helvetica,sans-Serif" font-size="10.00">+ isAddressStringValid()</text>
<text text-anchor="start" x="91.5" y="-464.5" font-family="Helvetica,sans-Serif" font-size="10.00">+ isCommandOrResponse()</text>
<text text-anchor="start" x="91.5" y="-453.5" font-family="Helvetica,sans-Serif" font-size="10.00">and 8 more...</text>
<text text-anchor="start" x="91.5" y="-442.5" font-family="Helvetica,sans-Serif" font-size="10.00">&#45; assertAddressStringIsValid()</text>
<text text-anchor="start" x="91.5" y="-431.5" font-family="Helvetica,sans-Serif" font-size="10.00">&#45; assertSsidIsValid()</text>
</a>
</g>
</g>
<!-- Node2&#45;&gt;Node1 -->
<g id="edge1" class="edge">
<title>Node2&#45;&gt;Node1</title>
<path fill="none" stroke="#404040" d="M176.77,-424.37C182.05,-406.26 189.51,-388.28 200,-373 246,-306.01 323.26,-255.21 385.43,-222.36"/>
<polygon fill="none" stroke="#404040" points="385.81,-222.16 389.29,-215.85 396.46,-216.63 392.98,-222.95 385.81,-222.16"/>
<text text-anchor="start" x="200" y="-398" font-family="Helvetica,sans-Serif" font-size="10.00"> &#45;destination_address</text>
<text text-anchor="middle" x="253" y="-387" font-family="Helvetica,sans-Serif" font-size="10.00">_</text>
<text text-anchor="middle" x="253" y="-376" font-family="Helvetica,sans-Serif" font-size="10.00">&#45;source_address_</text>
</g>
<!-- Node3 -->
<g id="node3" class="node">
<title>Node3</title>
<g id="a_node3"><a xlink:title=" ">
<polygon fill="none" stroke="black" points="0,-738.5 0,-795.5 44,-795.5 44,-738.5 0,-738.5"/>
<text text-anchor="middle" x="22" y="-783.5" font-family="Helvetica,sans-Serif" font-size="10.00">string</text>
<polyline fill="none" stroke="black" points="0,-776.5 44,-776.5 "/>
<text text-anchor="middle" x="22" y="-764.5" font-family="Helvetica,sans-Serif" font-size="10.00"> </text>
<polyline fill="none" stroke="black" points="0,-757.5 44,-757.5 "/>
<text text-anchor="middle" x="22" y="-745.5" font-family="Helvetica,sans-Serif" font-size="10.00"> </text>
</a>
</g>
</g>
<!-- Node3&#45;&gt;Node2 -->
<g id="edge2" class="edge">
<title>Node3&#45;&gt;Node2</title>
<path fill="none" stroke="#404040" d="M20.69,-738.03C20.63,-712.02 23.57,-672.88 39,-643 48.06,-625.47 60.8,-609.14 74.71,-594.57"/>
<polygon fill="none" stroke="#404040" points="75.04,-594.24 76.43,-587.16 83.5,-585.73 82.1,-592.81 75.04,-594.24"/>
<text text-anchor="middle" x="81" y="-679" font-family="Helvetica,sans-Serif" font-size="10.00"> &#45;address_string_</text>
</g>
<!-- Node4 -->
<g id="node4" class="node">
<title>Node4</title>
<g id="a_node4"><a xlink:title=" ">
<polygon fill="none" stroke="black" points="271,-738.5 271,-795.5 321,-795.5 321,-738.5 271,-738.5"/>
<text text-anchor="middle" x="296" y="-783.5" font-family="Helvetica,sans-Serif" font-size="10.00">uint8_t</text>
<polyline fill="none" stroke="black" points="271,-776.5 321,-776.5 "/>
<text text-anchor="middle" x="296" y="-764.5" font-family="Helvetica,sans-Serif" font-size="10.00"> </text>
<polyline fill="none" stroke="black" points="271,-757.5 321,-757.5 "/>
<text text-anchor="middle" x="296" y="-745.5" font-family="Helvetica,sans-Serif" font-size="10.00"> </text>
</a>
</g>
</g>
<!-- Node4&#45;&gt;Node1 -->
<g id="edge7" class="edge">
<title>Node4&#45;&gt;Node1</title>
<path fill="none" stroke="#404040" d="M302.63,-738.38C303.9,-732.35 305.11,-725.98 306,-720 325.4,-589.45 288.59,-549.32 330,-424 343.86,-382.05 366.27,-339.93 389.7,-302.73"/>
<polygon fill="none" stroke="#404040" points="389.87,-302.47 389.73,-295.26 396.34,-292.37 396.47,-299.58 389.87,-302.47"/>
<text text-anchor="middle" x="344" y="-522" font-family="Helvetica,sans-Serif" font-size="10.00"> &#45;pid_</text>
</g>
<!-- Node4&#45;&gt;Node2 -->
<g id="edge3" class="edge">
<title>Node4&#45;&gt;Node2</title>
<path fill="none" stroke="#404040" d="M281.8,-738.09C279.04,-732.19 276.29,-725.95 274,-720 261.14,-686.68 266.98,-674.94 251,-643 249.71,-640.41 248.36,-637.83 246.96,-635.24"/>
<polygon fill="none" stroke="#404040" points="246.86,-635.08 240.42,-631.83 240.94,-624.64 247.38,-627.89 246.86,-635.08"/>
<text text-anchor="middle" x="290" y="-679" font-family="Helvetica,sans-Serif" font-size="10.00"> &#45;ssid_</text>
</g>
<!-- Node5 -->
<g id="node5" class="node">
<title>Node5</title>
<g id="a_node5"><a xlink:title=" ">
<polygon fill="none" stroke="black" points="110,-738.5 110,-795.5 148,-795.5 148,-738.5 110,-738.5"/>
<text text-anchor="middle" x="129" y="-783.5" font-family="Helvetica,sans-Serif" font-size="10.00">bool</text>
<polyline fill="none" stroke="black" points="110,-776.5 148,-776.5 "/>
<text text-anchor="middle" x="129" y="-764.5" font-family="Helvetica,sans-Serif" font-size="10.00"> </text>
<polyline fill="none" stroke="black" points="110,-757.5 148,-757.5 "/>
<text text-anchor="middle" x="129" y="-745.5" font-family="Helvetica,sans-Serif" font-size="10.00"> </text>
</a>
</g>
</g>
<!-- Node5&#45;&gt;Node2 -->
<g id="edge4" class="edge">
<title>Node5&#45;&gt;Node2</title>
<path fill="none" stroke="#404040" d="M127.09,-738.48C125.85,-713.44 125.25,-675.54 130,-643 130.3,-640.94 130.63,-638.87 130.98,-636.78"/>
<polygon fill="none" stroke="#404040" points="131.02,-636.56 128.2,-629.92 133.24,-624.77 136.06,-631.4 131.02,-636.56"/>
<text text-anchor="start" x="130" y="-712" font-family="Helvetica,sans-Serif" font-size="10.00"> &#45;command_or_response</text>
<text text-anchor="middle" x="190.5" y="-701" font-family="Helvetica,sans-Serif" font-size="10.00">_</text>
<text text-anchor="start" x="130" y="-690" font-family="Helvetica,sans-Serif" font-size="10.00">&#45;is_last_address</text>
<text text-anchor="middle" x="190.5" y="-679" font-family="Helvetica,sans-Serif" font-size="10.00">_</text>
<text text-anchor="start" x="130" y="-668" font-family="Helvetica,sans-Serif" font-size="10.00">&#45;reserve_bit</text>
<text text-anchor="middle" x="190.5" y="-657" font-family="Helvetica,sans-Serif" font-size="10.00">_1_</text>
<text text-anchor="middle" x="190.5" y="-646" font-family="Helvetica,sans-Serif" font-size="10.00">&#45;reserve_bit_2_</text>
</g>
<!-- Node6 -->
<g id="node6" class="node">
<title>Node6</title>
<g id="a_node6"><a xlink:title=" ">
<polygon fill="none" stroke="black" points="366.5,-490.5 366.5,-558.5 485.5,-558.5 485.5,-490.5 366.5,-490.5"/>
<text text-anchor="start" x="374.5" y="-546.5" font-family="Helvetica,sans-Serif" font-size="10.00">vector&lt; signal_easel</text>
<text text-anchor="middle" x="426" y="-535.5" font-family="Helvetica,sans-Serif" font-size="10.00">::ax25::Address &gt;</text>
<polyline fill="none" stroke="black" points="366.5,-528.5 485.5,-528.5 "/>
<text text-anchor="middle" x="426" y="-516.5" font-family="Helvetica,sans-Serif" font-size="10.00"> </text>
<polyline fill="none" stroke="black" points="366.5,-509.5 485.5,-509.5 "/>
<text text-anchor="middle" x="426" y="-497.5" font-family="Helvetica,sans-Serif" font-size="10.00"> </text>
</a>
</g>
</g>
<!-- Node6&#45;&gt;Node1 -->
<g id="edge5" class="edge">
<title>Node6&#45;&gt;Node1</title>
<path fill="none" stroke="#404040" d="M423.14,-490.36C421.26,-466.84 418.97,-434.51 418,-406 417.5,-391.34 415.65,-387.48 418,-373 418.35,-370.82 418.73,-368.63 419.12,-366.44"/>
<polygon fill="none" stroke="#404040" points="419.13,-366.43 416.35,-359.78 421.42,-354.65 424.2,-361.31 419.13,-366.43"/>
<text text-anchor="middle" x="472.5" y="-387" font-family="Helvetica,sans-Serif" font-size="10.00"> &#45;repeater_addresses_</text>
</g>
<!-- Node7 -->
<g id="node7" class="node">
<title>Node7</title>
<g id="a_node7"><a xlink:title=" ">
<polygon fill="none" stroke="black" points="520.5,-496 520.5,-553 559.5,-553 559.5,-496 520.5,-496"/>
<text text-anchor="middle" x="540" y="-541" font-family="Helvetica,sans-Serif" font-size="10.00">Type</text>
<polyline fill="none" stroke="black" points="520.5,-534 559.5,-534 "/>
<text text-anchor="middle" x="540" y="-522" font-family="Helvetica,sans-Serif" font-size="10.00"> </text>
<polyline fill="none" stroke="black" points="520.5,-515 559.5,-515 "/>
<text text-anchor="middle" x="540" y="-503" font-family="Helvetica,sans-Serif" font-size="10.00"> </text>
</a>
</g>
</g>
<!-- Node7&#45;&gt;Node1 -->
<g id="edge6" class="edge">
<title>Node7&#45;&gt;Node1</title>
<path fill="none" stroke="#404040" d="M538.75,-495.9C537.11,-465.62 533.63,-415.63 527,-373 526.66,-370.82 526.31,-368.62 525.95,-366.42"/>
<polygon fill="none" stroke="#404040" points="525.94,-366.38 521,-361.13 523.94,-354.55 528.89,-359.79 525.94,-366.38"/>
<text text-anchor="middle" x="548" y="-387" font-family="Helvetica,sans-Serif" font-size="10.00"> &#45;type_</text>
</g>
<!-- Node8 -->
<g id="node8" class="node">
<title>Node8</title>
<g id="a_node8"><a xlink:title=" ">
<polygon fill="none" stroke="black" points="578,-496 578,-553 682,-553 682,-496 578,-496"/>
<text text-anchor="middle" x="630" y="-541" font-family="Helvetica,sans-Serif" font-size="10.00">vector&lt; uint8_t &gt;</text>
<polyline fill="none" stroke="black" points="578,-534 682,-534 "/>
<text text-anchor="middle" x="630" y="-522" font-family="Helvetica,sans-Serif" font-size="10.00"> </text>
<polyline fill="none" stroke="black" points="578,-515 682,-515 "/>
<text text-anchor="middle" x="630" y="-503" font-family="Helvetica,sans-Serif" font-size="10.00"> </text>
</a>
</g>
</g>
<!-- Node8&#45;&gt;Node1 -->
<g id="edge8" class="edge">
<title>Node8&#45;&gt;Node1</title>
<path fill="none" stroke="#404040" d="M619.13,-495.93C607.12,-465.67 587.09,-415.7 569,-373 568,-370.64 566.99,-368.27 565.98,-365.89"/>
<polygon fill="none" stroke="#404040" points="565.89,-365.68 559.85,-361.73 561.17,-354.64 567.21,-358.59 565.89,-365.68"/>
<text text-anchor="middle" x="617" y="-392.5" font-family="Helvetica,sans-Serif" font-size="10.00"> &#45;build_buffer_</text>
<text text-anchor="middle" x="617" y="-381.5" font-family="Helvetica,sans-Serif" font-size="10.00">&#45;information_</text>
</g>
<!-- Node9 -->
<g id="node9" class="node">
<title>Node9</title>
<g id="a_node9"><a xlink:title=" ">
<polygon fill="none" stroke="black" points="700,-496 700,-553 756,-553 756,-496 700,-496"/>
<text text-anchor="middle" x="728" y="-541" font-family="Helvetica,sans-Serif" font-size="10.00">uint16_t</text>
<polyline fill="none" stroke="black" points="700,-534 756,-534 "/>
<text text-anchor="middle" x="728" y="-522" font-family="Helvetica,sans-Serif" font-size="10.00"> </text>
<polyline fill="none" stroke="black" points="700,-515 756,-515 "/>
<text text-anchor="middle" x="728" y="-503" font-family="Helvetica,sans-Serif" font-size="10.00"> </text>
</a>
</g>
</g>
<!-- Node9&#45;&gt;Node1 -->
<g id="edge9" class="edge">
<title>Node9&#45;&gt;Node1</title>
<path fill="none" stroke="#404040" d="M719.7,-495.7C713.12,-475.3 703.06,-447.23 691,-424 661.87,-367.87 617.83,-313.38 577.76,-270.05"/>
<polygon fill="none" stroke="#404040" points="577.74,-270.02 570.72,-268.37 569.55,-261.26 576.56,-262.91 577.74,-270.02"/>
<text text-anchor="middle" x="691.5" y="-387" font-family="Helvetica,sans-Serif" font-size="10.00"> &#45;fcs_</text>
</g>
</g>
</svg>
