<?xml version="1.0" encoding="UTF-8" standalone="no"?>
<!DOCTYPE svg PUBLIC "-//W3C//DTD SVG 1.1//EN"
 "http://www.w3.org/Graphics/SVG/1.1/DTD/svg11.dtd">
<!-- Generated by graphviz version 2.43.0 (0)
 -->
<!-- Title: signal_easel::aprs::Demodulator::lookForAx25Packet Pages: 1 -->
<svg width="1263pt" height="464pt"
 viewBox="0.00 0.00 1263.00 463.50" xmlns="http://www.w3.org/2000/svg" xmlns:xlink="http://www.w3.org/1999/xlink">
<g id="graph0" class="graph" transform="scale(1 1) rotate(0) translate(4 459.5)">
<title>signal_easel::aprs::Demodulator::lookForAx25Packet</title>
<!-- Node1 -->
<g id="node1" class="node">
<title>Node1</title>
<g id="a_node1"><a xlink:title=" ">
<polygon fill="#bfbfbf" stroke="black" points="0,-256.5 0,-297.5 153,-297.5 153,-256.5 0,-256.5"/>
<text text-anchor="start" x="8" y="-285.5" font-family="Helvetica,sans-Serif" font-size="10.00">signal_easel::aprs</text>
<text text-anchor="start" x="8" y="-274.5" font-family="Helvetica,sans-Serif" font-size="10.00">::Demodulator::lookForAx25</text>
<text text-anchor="middle" x="76.5" y="-263.5" font-family="Helvetica,sans-Serif" font-size="10.00">Packet</text>
</a>
</g>
</g>
<!-- Node2 -->
<g id="node2" class="node">
<title>Node2</title>
<g id="a_node2"><a xlink:href="namespacesignal__easel_1_1aprs.html#aaee238dfb028415d1bb8604764e23c60" target="_top" xlink:title=" ">
<polygon fill="none" stroke="black" points="200,-287 200,-317 313,-317 313,-287 200,-287"/>
<text text-anchor="start" x="208" y="-305" font-family="Helvetica,sans-Serif" font-size="10.00">signal_easel::aprs</text>
<text text-anchor="middle" x="256.5" y="-294" font-family="Helvetica,sans-Serif" font-size="10.00">::classifyFrameType</text>
</a>
</g>
</g>
<!-- Node1&#45;&gt;Node2 -->
<g id="edge1" class="edge">
<title>Node1&#45;&gt;Node2</title>
<path fill="none" stroke="midnightblue" d="M153.25,-287.64C165.32,-289.33 177.73,-291.08 189.56,-292.74"/>
<polygon fill="midnightblue" stroke="midnightblue" points="189.38,-296.25 199.77,-294.17 190.36,-289.32 189.38,-296.25"/>
</g>
<!-- Node4 -->
<g id="node4" class="node">
<title>Node4</title>
<g id="a_node4"><a xlink:href="classsignal__easel_1_1ax25_1_1Frame.html#a63cf2362c2a90d20f09bbbc4f24a07ba" target="_top" xlink:title="Attempt to parse an incoming bit stream into an AX.25 frame.">
<polygon fill="none" stroke="black" points="189,-238 189,-268 324,-268 324,-238 189,-238"/>
<text text-anchor="start" x="197" y="-256" font-family="Helvetica,sans-Serif" font-size="10.00">signal_easel::ax25</text>
<text text-anchor="middle" x="256.5" y="-245" font-family="Helvetica,sans-Serif" font-size="10.00">::Frame::parseBitStream</text>
</a>
</g>
</g>
<!-- Node1&#45;&gt;Node4 -->
<g id="edge3" class="edge">
<title>Node1&#45;&gt;Node4</title>
<path fill="none" stroke="midnightblue" d="M153.25,-266.79C161.66,-265.65 170.23,-264.5 178.65,-263.36"/>
<polygon fill="midnightblue" stroke="midnightblue" points="179.38,-266.79 188.83,-261.99 178.45,-259.86 179.38,-266.79"/>
</g>
<!-- Node3 -->
<g id="node3" class="node">
<title>Node3</title>
<g id="a_node3"><a xlink:href="classsignal__easel_1_1ax25_1_1Frame.html#ad902c58dd3b47ed11d64057409b36603" target="_top" xlink:title=" ">
<polygon fill="none" stroke="black" points="375,-287 375,-317 507,-317 507,-287 375,-287"/>
<text text-anchor="start" x="383" y="-305" font-family="Helvetica,sans-Serif" font-size="10.00">signal_easel::ax25</text>
<text text-anchor="middle" x="441" y="-294" font-family="Helvetica,sans-Serif" font-size="10.00">::Frame::getInformation</text>
</a>
</g>
</g>
<!-- Node2&#45;&gt;Node3 -->
<g id="edge2" class="edge">
<title>Node2&#45;&gt;Node3</title>
<path fill="none" stroke="midnightblue" d="M313.25,-302C329.55,-302 347.63,-302 364.92,-302"/>
<polygon fill="midnightblue" stroke="midnightblue" points="364.99,-305.5 374.99,-302 364.99,-298.5 364.99,-305.5"/>
</g>
<!-- Node5 -->
<g id="node5" class="node">
<title>Node5</title>
<g id="a_node5"><a xlink:href="namespacesignal__easel_1_1ax25.html#a84e1d1bf82ef828a150bc94cf065e396" target="_top" xlink:title="Convert a bit stream from NRZI to standard encoding.">
<polygon fill="none" stroke="black" points="589.5,-278 589.5,-308 696.5,-308 696.5,-278 589.5,-278"/>
<text text-anchor="start" x="597.5" y="-296" font-family="Helvetica,sans-Serif" font-size="10.00">signal_easel::ax25</text>
<text text-anchor="middle" x="643" y="-285" font-family="Helvetica,sans-Serif" font-size="10.00">::decodeNrzi</text>
</a>
</g>
</g>
<!-- Node4&#45;&gt;Node5 -->
<g id="edge4" class="edge">
<title>Node4&#45;&gt;Node5</title>
<path fill="none" stroke="midnightblue" d="M324.14,-258.74C377.66,-263.48 454.72,-270.62 522,-278 540.67,-280.05 560.94,-282.5 579.41,-284.81"/>
<polygon fill="midnightblue" stroke="midnightblue" points="579.11,-288.3 589.47,-286.09 579.99,-281.36 579.11,-288.3"/>
</g>
<!-- Node12 -->
<g id="node12" class="node">
<title>Node12</title>
<g id="a_node12"><a xlink:href="classsignal__easel_1_1ax25_1_1Frame.html#a40b07872c291deee87c677459a27c21c" target="_top" xlink:title="Attempt to parse a single AX.25 frame from an already NRZI&#45;decoded bit stream. Unlike parseBitStream,...">
<polygon fill="none" stroke="black" points="360,-149.5 360,-190.5 522,-190.5 522,-149.5 360,-149.5"/>
<text text-anchor="start" x="368" y="-178.5" font-family="Helvetica,sans-Serif" font-size="10.00">signal_easel::ax25</text>
<text text-anchor="start" x="368" y="-167.5" font-family="Helvetica,sans-Serif" font-size="10.00">::Frame::parseNrziDecodedBit</text>
<text text-anchor="middle" x="441" y="-156.5" font-family="Helvetica,sans-Serif" font-size="10.00">Stream</text>
</a>
</g>
</g>
<!-- Node4&#45;&gt;Node12 -->
<g id="edge12" class="edge">
<title>Node4&#45;&gt;Node12</title>
<path fill="none" stroke="midnightblue" d="M290.55,-237.97C316.99,-225.95 354.61,-208.84 385.49,-194.79"/>
<polygon fill="midnightblue" stroke="midnightblue" points="387.19,-197.86 394.84,-190.54 384.29,-191.49 387.19,-197.86"/>
</g>
<!-- Node6 -->
<g id="node6" class="node">
<title>Node6</title>
<g id="a_node6"><a xlink:href="classsignal__easel_1_1BitStream.html#a81d4aea4c11f65e0c2b7ad2f0f0cc312" target="_top" xlink:title=" ">
<polygon fill="none" stroke="black" points="765,-425 765,-455 897,-455 897,-425 765,-425"/>
<text text-anchor="start" x="773" y="-443" font-family="Helvetica,sans-Serif" font-size="10.00">signal_easel::BitStream</text>
<text text-anchor="middle" x="831" y="-432" font-family="Helvetica,sans-Serif" font-size="10.00">::addOneBit</text>
</a>
</g>
</g>
<!-- Node5&#45;&gt;Node6 -->
<g id="edge5" class="edge">
<title>Node5&#45;&gt;Node6</title>
<path fill="none" stroke="midnightblue" d="M655.24,-308.4C674.7,-334.06 717.13,-385.74 764,-416 766.45,-417.58 769.02,-419.08 771.66,-420.49"/>
<polygon fill="midnightblue" stroke="midnightblue" points="770.34,-423.74 780.86,-424.97 773.4,-417.44 770.34,-423.74"/>
</g>
<!-- Node8 -->
<g id="node8" class="node">
<title>Node8</title>
<g id="a_node8"><a xlink:href="classsignal__easel_1_1BitStream.html#abb315beec8c4d88115d9d4ec5f082863" target="_top" xlink:title=" ">
<polygon fill="none" stroke="black" points="765,-376 765,-406 897,-406 897,-376 765,-376"/>
<text text-anchor="start" x="773" y="-394" font-family="Helvetica,sans-Serif" font-size="10.00">signal_easel::BitStream</text>
<text text-anchor="middle" x="831" y="-383" font-family="Helvetica,sans-Serif" font-size="10.00">::addZeroBit</text>
</a>
</g>
</g>
<!-- Node5&#45;&gt;Node8 -->
<g id="edge7" class="edge">
<title>Node5&#45;&gt;Node8</title>
<path fill="none" stroke="midnightblue" d="M665.36,-308.03C688.78,-324.06 727.87,-349.52 764,-367 767.6,-368.74 771.36,-370.43 775.19,-372.06"/>
<polygon fill="midnightblue" stroke="midnightblue" points="774.17,-375.42 784.76,-375.94 776.81,-368.94 774.17,-375.42"/>
</g>
<!-- Node9 -->
<g id="node9" class="node">
<title>Node9</title>
<g id="a_node9"><a xlink:href="classsignal__easel_1_1BitStream.html#aa97152ef51f73088e103a7951134aa85" target="_top" xlink:title=" ">
<polygon fill="none" stroke="black" points="765,-278 765,-308 897,-308 897,-278 765,-278"/>
<text text-anchor="start" x="773" y="-296" font-family="Helvetica,sans-Serif" font-size="10.00">signal_easel::BitStream</text>
<text text-anchor="middle" x="831" y="-285" font-family="Helvetica,sans-Serif" font-size="10.00">::getBitStreamLength</text>
</a>
</g>
</g>
<!-- Node5&#45;&gt;Node9 -->
<g id="edge9" class="edge">
<title>Node5&#45;&gt;Node9</title>
<path fill="none" stroke="midnightblue" d="M696.8,-293C714.82,-293 735.33,-293 754.77,-293"/>
<polygon fill="midnightblue" stroke="midnightblue" points="754.81,-296.5 764.81,-293 754.81,-289.5 754.81,-296.5"/>
</g>
<!-- Node10 -->
<g id="node10" class="node">
<title>Node10</title>
<g id="a_node10"><a xlink:href="classsignal__easel_1_1BitStream.html#a5b5339586e09ca5c25a7e9ded0118ffb" target="_top" xlink:title="Returns the next bit of the bit stream that will be encoded.">
<polygon fill="none" stroke="black" points="765,-229 765,-259 897,-259 897,-229 765,-229"/>
<text text-anchor="start" x="773" y="-247" font-family="Helvetica,sans-Serif" font-size="10.00">signal_easel::BitStream</text>
<text text-anchor="middle" x="831" y="-236" font-family="Helvetica,sans-Serif" font-size="10.00">::popNextBit</text>
</a>
</g>
</g>
<!-- Node5&#45;&gt;Node10 -->
<g id="edge10" class="edge">
<title>Node5&#45;&gt;Node10</title>
<path fill="none" stroke="midnightblue" d="M696.8,-279.09C717.39,-273.67 741.22,-267.39 762.99,-261.65"/>
<polygon fill="midnightblue" stroke="midnightblue" points="764.05,-264.99 772.83,-259.06 762.27,-258.22 764.05,-264.99"/>
</g>
<!-- Node11 -->
<g id="node11" class="node">
<title>Node11</title>
<g id="a_node11"><a xlink:href="classsignal__easel_1_1BitStream.html#a278666dbf58a4792e4f77538ab72b4b6" target="_top" xlink:title="After adding all of the data to the bit stream, this method will write the data left in the buffer.">
<polygon fill="none" stroke="black" points="764,-327 764,-357 898,-357 898,-327 764,-327"/>
<text text-anchor="start" x="772" y="-345" font-family="Helvetica,sans-Serif" font-size="10.00">signal_easel::BitStream</text>
<text text-anchor="middle" x="831" y="-334" font-family="Helvetica,sans-Serif" font-size="10.00">::pushBufferToBitStream</text>
</a>
</g>
</g>
<!-- Node5&#45;&gt;Node11 -->
<g id="edge11" class="edge">
<title>Node5&#45;&gt;Node11</title>
<path fill="none" stroke="midnightblue" d="M696.8,-306.91C717.39,-312.33 741.22,-318.61 762.99,-324.35"/>
<polygon fill="midnightblue" stroke="midnightblue" points="762.27,-327.78 772.83,-326.94 764.05,-321.01 762.27,-327.78"/>
</g>
<!-- Node7 -->
<g id="node7" class="node">
<title>Node7</title>
<g id="a_node7"><a xlink:href="classsignal__easel_1_1BitStream.html#a9df75eb28c03717c9fad2d30a85de6e6" target="_top" xlink:title=" ">
<polygon fill="none" stroke="black" points="950.5,-400 950.5,-430 1082.5,-430 1082.5,-400 950.5,-400"/>
<text text-anchor="start" x="958.5" y="-418" font-family="Helvetica,sans-Serif" font-size="10.00">signal_easel::BitStream</text>
<text text-anchor="middle" x="1016.5" y="-407" font-family="Helvetica,sans-Serif" font-size="10.00">::addBits</text>
</a>
</g>
</g>
<!-- Node6&#45;&gt;Node7 -->
<g id="edge6" class="edge">
<title>Node6&#45;&gt;Node7</title>
<path fill="none" stroke="midnightblue" d="M897.21,-431.12C911.14,-429.22 925.96,-427.2 940.23,-425.26"/>
<polygon fill="midnightblue" stroke="midnightblue" points="941.06,-428.67 950.5,-423.86 940.12,-421.74 941.06,-428.67"/>
</g>
<!-- Node8&#45;&gt;Node7 -->
<g id="edge8" class="edge">
<title>Node8&#45;&gt;Node7</title>
<path fill="none" stroke="midnightblue" d="M897.21,-399.53C911.14,-401.35 925.96,-403.29 940.23,-405.15"/>
<polygon fill="midnightblue" stroke="midnightblue" points="940.13,-408.67 950.5,-406.5 941.04,-401.73 940.13,-408.67"/>
</g>
<!-- Node13 -->
<g id="node13" class="node">
<title>Node13</title>
<g id="a_node13"><a xlink:href="classsignal__easel_1_1ax25_1_1Frame.html#af86d4b534367a8faf6b628301c9ffceb" target="_top" xlink:title=" ">
<polygon fill="none" stroke="black" points="562.5,-82 562.5,-112 723.5,-112 723.5,-82 562.5,-82"/>
<text text-anchor="start" x="570.5" y="-100" font-family="Helvetica,sans-Serif" font-size="10.00">signal_easel::ax25</text>
<text text-anchor="middle" x="643" y="-89" font-family="Helvetica,sans-Serif" font-size="10.00">::Frame::addRepeaterAddress</text>
</a>
</g>
</g>
<!-- Node12&#45;&gt;Node13 -->
<g id="edge13" class="edge">
<title>Node12&#45;&gt;Node13</title>
<path fill="none" stroke="midnightblue" d="M488.7,-149.39C509.69,-140.46 534.89,-130.2 558,-122 564.7,-119.62 571.76,-117.28 578.82,-115.04"/>
<polygon fill="midnightblue" stroke="midnightblue" points="579.9,-118.37 588.41,-112.05 577.82,-111.68 579.9,-118.37"/>
</g>
<!-- Node18 -->
<g id="node18" class="node">
<title>Node18</title>
<g id="a_node18"><a xlink:href="namespacesignal__easel_1_1ax25.html#aa3ad759477950552b79497f19c77ba0b" target="_top" xlink:title=" ">
<polygon fill="none" stroke="black" points="589.5,-180 589.5,-210 696.5,-210 696.5,-180 589.5,-180"/>
<text text-anchor="start" x="597.5" y="-198" font-family="Helvetica,sans-Serif" font-size="10.00">signal_easel::ax25</text>
<text text-anchor="middle" x="643" y="-187" font-family="Helvetica,sans-Serif" font-size="10.00">::deStuffBytes</text>
</a>
</g>
</g>
<!-- Node12&#45;&gt;Node18 -->
<g id="edge18" class="edge">
<title>Node12&#45;&gt;Node18</title>
<path fill="none" stroke="midnightblue" d="M522.2,-180.02C541.18,-182.4 561.16,-184.89 579.24,-187.15"/>
<polygon fill="midnightblue" stroke="midnightblue" points="579,-190.65 589.35,-188.42 579.87,-183.71 579,-190.65"/>
</g>
<!-- Node21 -->
<g id="node21" class="node">
<title>Node21</title>
<g id="a_node21"><a xlink:href="namespacesignal__easel_1_1ax25.html#aedc3a21287bb20d2f0b01c9a2d6797f3" target="_top" xlink:title="Finds the start flags in the bit stream and removes them.">
<polygon fill="none" stroke="black" points="589.5,-229 589.5,-259 696.5,-259 696.5,-229 589.5,-229"/>
<text text-anchor="start" x="597.5" y="-247" font-family="Helvetica,sans-Serif" font-size="10.00">signal_easel::ax25</text>
<text text-anchor="middle" x="643" y="-236" font-family="Helvetica,sans-Serif" font-size="10.00">::findStartFlags</text>
</a>
</g>
</g>
<!-- Node12&#45;&gt;Node21 -->
<g id="edge23" class="edge">
<title>Node12&#45;&gt;Node21</title>
<path fill="none" stroke="midnightblue" d="M486.08,-190.59C507.53,-200.19 533.83,-211.38 558,-220 564.87,-222.45 572.13,-224.83 579.39,-227.08"/>
<polygon fill="midnightblue" stroke="midnightblue" points="578.66,-230.51 589.24,-230.05 580.68,-223.81 578.66,-230.51"/>
</g>
<!-- Node23 -->
<g id="node23" class="node">
<title>Node23</title>
<g id="a_node23"><a xlink:href="classsignal__easel_1_1ax25_1_1Frame.html#a57b163ece54317da8d95f3b18b47c23d" target="_top" xlink:title="setters/getters for the frame.">
<polygon fill="none" stroke="black" points="558,-33 558,-63 728,-63 728,-33 558,-33"/>
<text text-anchor="start" x="566" y="-51" font-family="Helvetica,sans-Serif" font-size="10.00">signal_easel::ax25</text>
<text text-anchor="middle" x="643" y="-40" font-family="Helvetica,sans-Serif" font-size="10.00">::Frame::setDestinationAddress</text>
</a>
</g>
</g>
<!-- Node12&#45;&gt;Node23 -->
<g id="edge27" class="edge">
<title>Node12&#45;&gt;Node23</title>
<path fill="none" stroke="midnightblue" d="M461,-149.41C482.52,-127.26 519.62,-92.47 558,-72 561.51,-70.13 565.19,-68.39 568.96,-66.77"/>
<polygon fill="midnightblue" stroke="midnightblue" points="570.46,-69.94 578.47,-63 567.89,-63.43 570.46,-69.94"/>
</g>
<!-- Node24 -->
<g id="node24" class="node">
<title>Node24</title>
<g id="a_node24"><a xlink:href="classsignal__easel_1_1ax25_1_1Frame.html#a402d26a81f82bb5c477e8930b75a771e" target="_top" xlink:title=" ">
<polygon fill="none" stroke="black" points="570,-131 570,-161 716,-161 716,-131 570,-131"/>
<text text-anchor="start" x="578" y="-149" font-family="Helvetica,sans-Serif" font-size="10.00">signal_easel::ax25</text>
<text text-anchor="middle" x="643" y="-138" font-family="Helvetica,sans-Serif" font-size="10.00">::Frame::setSourceAddress</text>
</a>
</g>
</g>
<!-- Node12&#45;&gt;Node24 -->
<g id="edge29" class="edge">
<title>Node12&#45;&gt;Node24</title>
<path fill="none" stroke="midnightblue" d="M522.2,-160.38C534.51,-158.9 547.23,-157.37 559.59,-155.89"/>
<polygon fill="midnightblue" stroke="midnightblue" points="560.36,-159.32 569.87,-154.66 559.52,-152.37 560.36,-159.32"/>
</g>
<!-- Node14 -->
<g id="node14" class="node">
<title>Node14</title>
<g id="a_node14"><a xlink:href="classsignal__easel_1_1ax25_1_1Address.html#a7fa6b0ef4241413893f201660991e4ea" target="_top" xlink:title="Checks if the address is valid, if not throws an exception with a specific error code.">
<polygon fill="none" stroke="black" points="766,-33 766,-63 896,-63 896,-33 766,-33"/>
<text text-anchor="start" x="774" y="-51" font-family="Helvetica,sans-Serif" font-size="10.00">signal_easel::ax25</text>
<text text-anchor="middle" x="831" y="-40" font-family="Helvetica,sans-Serif" font-size="10.00">::Address::assertIsValid</text>
</a>
</g>
</g>
<!-- Node13&#45;&gt;Node14 -->
<g id="edge14" class="edge">
<title>Node13&#45;&gt;Node14</title>
<path fill="none" stroke="midnightblue" d="M701.07,-81.97C720.71,-76.79 742.87,-70.95 763.22,-65.59"/>
<polygon fill="midnightblue" stroke="midnightblue" points="764.26,-68.94 773.04,-63.01 762.48,-62.17 764.26,-68.94"/>
</g>
<!-- Node15 -->
<g id="node15" class="node">
<title>Node15</title>
<g id="a_node15"><a xlink:href="classsignal__easel_1_1ax25_1_1Address.html#af34b361f739b7995e7816b7a04465828" target="_top" xlink:title=" ">
<polygon fill="none" stroke="black" points="934,-0.5 934,-41.5 1099,-41.5 1099,-0.5 934,-0.5"/>
<text text-anchor="start" x="942" y="-29.5" font-family="Helvetica,sans-Serif" font-size="10.00">signal_easel::ax25</text>
<text text-anchor="start" x="942" y="-18.5" font-family="Helvetica,sans-Serif" font-size="10.00">::Address::assertAddressString</text>
<text text-anchor="middle" x="1016.5" y="-7.5" font-family="Helvetica,sans-Serif" font-size="10.00">IsValid</text>
</a>
</g>
</g>
<!-- Node14&#45;&gt;Node15 -->
<g id="edge15" class="edge">
<title>Node14&#45;&gt;Node15</title>
<path fill="none" stroke="midnightblue" d="M896.18,-38.56C905.14,-37.24 914.48,-35.86 923.82,-34.49"/>
<polygon fill="midnightblue" stroke="midnightblue" points="924.55,-37.92 933.94,-33 923.53,-30.99 924.55,-37.92"/>
</g>
<!-- Node16 -->
<g id="node16" class="node">
<title>Node16</title>
<g id="a_node16"><a xlink:href="classsignal__easel_1_1ax25_1_1Address.html#a8b44c6e311d3462bd86eda03c1d384f0" target="_top" xlink:title=" ">
<polygon fill="none" stroke="black" points="941.5,-61 941.5,-91 1091.5,-91 1091.5,-61 941.5,-61"/>
<text text-anchor="start" x="949.5" y="-79" font-family="Helvetica,sans-Serif" font-size="10.00">signal_easel::ax25</text>
<text text-anchor="middle" x="1016.5" y="-68" font-family="Helvetica,sans-Serif" font-size="10.00">::Address::assertSsidIsValid</text>
</a>
</g>
</g>
<!-- Node14&#45;&gt;Node16 -->
<g id="edge16" class="edge">
<title>Node14&#45;&gt;Node16</title>
<path fill="none" stroke="midnightblue" d="M896.18,-57.79C907.56,-59.53 919.57,-61.36 931.41,-63.17"/>
<polygon fill="midnightblue" stroke="midnightblue" points="930.88,-66.63 941.3,-64.68 931.94,-59.71 930.88,-66.63"/>
</g>
<!-- Node17 -->
<g id="node17" class="node">
<title>Node17</title>
<g id="a_node17"><a xlink:href="classsignal__easel_1_1ax25_1_1Address.html#ad66c149737cc4aa52ae9e8860176acf3" target="_top" xlink:title=" ">
<polygon fill="none" stroke="black" points="1135,-61 1135,-91 1255,-91 1255,-61 1135,-61"/>
<text text-anchor="start" x="1143" y="-79" font-family="Helvetica,sans-Serif" font-size="10.00">signal_easel::ax25</text>
<text text-anchor="middle" x="1195" y="-68" font-family="Helvetica,sans-Serif" font-size="10.00">::Address::isSsidValid</text>
</a>
</g>
</g>
<!-- Node16&#45;&gt;Node17 -->
<g id="edge17" class="edge">
<title>Node16&#45;&gt;Node17</title>
<path fill="none" stroke="midnightblue" d="M1091.58,-76C1102.52,-76 1113.76,-76 1124.6,-76"/>
<polygon fill="midnightblue" stroke="midnightblue" points="1124.84,-79.5 1134.84,-76 1124.84,-72.5 1124.84,-79.5"/>
</g>
<!-- Node18&#45;&gt;Node9 -->
<g id="edge19" class="edge">
<title>Node18&#45;&gt;Node9</title>
<path fill="none" stroke="midnightblue" d="M696.6,-204.97C707.59,-208.57 718.67,-213.43 728,-220 750.1,-235.55 742.37,-252.8 764,-269 765.86,-270.4 767.82,-271.72 769.83,-272.97"/>
<polygon fill="midnightblue" stroke="midnightblue" points="768.58,-276.27 779.03,-278 771.94,-270.13 768.58,-276.27"/>
</g>
<!-- Node18&#45;&gt;Node10 -->
<g id="edge21" class="edge">
<title>Node18&#45;&gt;Node10</title>
<path fill="none" stroke="midnightblue" d="M696.8,-208.91C717.39,-214.33 741.22,-220.61 762.99,-226.35"/>
<polygon fill="midnightblue" stroke="midnightblue" points="762.27,-229.78 772.83,-228.94 764.05,-223.01 762.27,-229.78"/>
</g>
<!-- Node19 -->
<g id="node19" class="node">
<title>Node19</title>
<g id="a_node19"><a xlink:href="classsignal__easel_1_1BitStream.html#ad7b803a89b3a53ec1e4108122861a90b" target="_top" xlink:title="Returns the next bit of the bit stream without removing it.">
<polygon fill="none" stroke="black" points="765,-82 765,-112 897,-112 897,-82 765,-82"/>
<text text-anchor="start" x="773" y="-100" font-family="Helvetica,sans-Serif" font-size="10.00">signal_easel::BitStream</text>
<text text-anchor="middle" x="831" y="-89" font-family="Helvetica,sans-Serif" font-size="10.00">::peakNextBit</text>
</a>
</g>
</g>
<!-- Node18&#45;&gt;Node19 -->
<g id="edge20" class="edge">
<title>Node18&#45;&gt;Node19</title>
<path fill="none" stroke="midnightblue" d="M696.59,-185.71C707.59,-182.24 718.66,-177.5 728,-171 750.18,-155.57 742.48,-138.35 764,-122 766.33,-120.23 768.8,-118.57 771.37,-117.02"/>
<polygon fill="midnightblue" stroke="midnightblue" points="773.25,-119.98 780.39,-112.15 769.93,-113.82 773.25,-119.98"/>
</g>
<!-- Node20 -->
<g id="node20" class="node">
<title>Node20</title>
<g id="a_node20"><a xlink:href="namespacesignal__easel_1_1ax25.html#a464aaf0b31941db183dcd08d641a793c" target="_top" xlink:title=" ">
<polygon fill="none" stroke="black" points="777.5,-131 777.5,-161 884.5,-161 884.5,-131 777.5,-131"/>
<text text-anchor="start" x="785.5" y="-149" font-family="Helvetica,sans-Serif" font-size="10.00">signal_easel::ax25</text>
<text text-anchor="middle" x="831" y="-138" font-family="Helvetica,sans-Serif" font-size="10.00">::reverse_bits</text>
</a>
</g>
</g>
<!-- Node18&#45;&gt;Node20 -->
<g id="edge22" class="edge">
<title>Node18&#45;&gt;Node20</title>
<path fill="none" stroke="midnightblue" d="M696.8,-181.09C718.79,-175.3 744.49,-168.53 767.41,-162.49"/>
<polygon fill="midnightblue" stroke="midnightblue" points="768.61,-165.79 777.39,-159.86 766.83,-159.02 768.61,-165.79"/>
</g>
<!-- Node21&#45;&gt;Node9 -->
<g id="edge24" class="edge">
<title>Node21&#45;&gt;Node9</title>
<path fill="none" stroke="midnightblue" d="M696.8,-257.91C717.39,-263.33 741.22,-269.61 762.99,-275.35"/>
<polygon fill="midnightblue" stroke="midnightblue" points="762.27,-278.78 772.83,-277.94 764.05,-272.01 762.27,-278.78"/>
</g>
<!-- Node21&#45;&gt;Node10 -->
<g id="edge26" class="edge">
<title>Node21&#45;&gt;Node10</title>
<path fill="none" stroke="midnightblue" d="M696.8,-244C714.82,-244 735.33,-244 754.77,-244"/>
<polygon fill="midnightblue" stroke="midnightblue" points="754.81,-247.5 764.81,-244 754.81,-240.5 754.81,-247.5"/>
</g>
<!-- Node22 -->
<g id="node22" class="node">
<title>Node22</title>
<g id="a_node22"><a xlink:href="classsignal__easel_1_1BitStream.html#a3212a6021fa0e315170f8654c8e1c103" target="_top" xlink:title=" ">
<polygon fill="none" stroke="black" points="765,-180 765,-210 897,-210 897,-180 765,-180"/>
<text text-anchor="start" x="773" y="-198" font-family="Helvetica,sans-Serif" font-size="10.00">signal_easel::BitStream</text>
<text text-anchor="middle" x="831" y="-187" font-family="Helvetica,sans-Serif" font-size="10.00">::peakNextByte</text>
</a>
</g>
</g>
<!-- Node21&#45;&gt;Node22 -->
<g id="edge25" class="edge">
<title>Node21&#45;&gt;Node22</title>
<path fill="none" stroke="midnightblue" d="M696.8,-230.09C717.39,-224.67 741.22,-218.39 762.99,-212.65"/>
<polygon fill="midnightblue" stroke="midnightblue" points="764.05,-215.99 772.83,-210.06 762.27,-209.22 764.05,-215.99"/>
</g>
<!-- Node23&#45;&gt;Node14 -->
<g id="edge28" class="edge">
<title>Node23&#45;&gt;Node14</title>
<path fill="none" stroke="midnightblue" d="M728.02,-48C737.25,-48 746.61,-48 755.71,-48"/>
<polygon fill="midnightblue" stroke="midnightblue" points="755.86,-51.5 765.86,-48 755.86,-44.5 755.86,-51.5"/>
</g>
<!-- Node24&#45;&gt;Node14 -->
<g id="edge30" class="edge">
<title>Node24&#45;&gt;Node14</title>
<path fill="none" stroke="midnightblue" d="M712.31,-130.83C717.85,-128.32 723.16,-125.4 728,-122 750.4,-106.26 742.16,-88.52 764,-72 765.82,-70.63 767.72,-69.32 769.69,-68.09"/>
<polygon fill="midnightblue" stroke="midnightblue" points="771.6,-71.03 778.66,-63.12 768.21,-64.91 771.6,-71.03"/>
</g>
</g>
</svg>
