<?xml version="1.0" encoding="UTF-8" standalone="no"?>
<!DOCTYPE svg PUBLIC "-//W3C//DTD SVG 1.1//EN"
 "http://www.w3.org/Graphics/SVG/1.1/DTD/svg11.dtd">
<!-- Generated by graphviz version 2.43.0 (0)
 -->
<!-- Title: signal_easel::sstv::Modulator::encodeImage Pages: 1 -->
<svg width="1043pt" height="135pt"
 viewBox="0.00 0.00 1043.00 135.00" xmlns="http://www.w3.org/2000/svg" xmlns:xlink="http://www.w3.org/1999/xlink">
<g id="graph0" class="graph" transform="scale(1 1) rotate(0) translate(4 131)">
<title>signal_easel::sstv::Modulator::encodeImage</title>
<!-- Node1 -->
<g id="node1" class="node">
<title>Node1</title>
<g id="a_node1"><a xlink:title="Encodes an image into SSTV audio.">
<polygon fill="#bfbfbf" stroke="black" points="0,-68.5 0,-98.5 144,-98.5 144,-68.5 0,-68.5"/>
<text text-anchor="start" x="8" y="-86.5" font-family="Helvetica,sans-Serif" font-size="10.00">signal_easel::sstv</text>
<text text-anchor="middle" x="72" y="-75.5" font-family="Helvetica,sans-Serif" font-size="10.00">::Modulator::encodeImage</text>
</a>
</g>
</g>
<!-- Node2 -->
<g id="node2" class="node">
<title>Node2</title>
<g id="a_node2"><a xlink:href="classsignal__easel_1_1sstv_1_1Modulator.html#a9e6343e922e5d6dd312d16c0781b28c4" target="_top" xlink:title=" ">
<polygon fill="none" stroke="black" points="186.5,-96.5 186.5,-126.5 329.5,-126.5 329.5,-96.5 186.5,-96.5"/>
<text text-anchor="start" x="194.5" y="-114.5" font-family="Helvetica,sans-Serif" font-size="10.00">signal_easel::sstv</text>
<text text-anchor="middle" x="258" y="-103.5" font-family="Helvetica,sans-Serif" font-size="10.00">::Modulator::addPreamble</text>
</a>
</g>
</g>
<!-- Node1&#45;&gt;Node2 -->
<g id="edge1" class="edge">
<title>Node1&#45;&gt;Node2</title>
<path fill="none" stroke="midnightblue" d="M144.14,-94.33C154.64,-95.92 165.52,-97.58 176.2,-99.2"/>
<polygon fill="midnightblue" stroke="midnightblue" points="175.94,-102.71 186.35,-100.75 176.99,-95.78 175.94,-102.71"/>
</g>
<!-- Node6 -->
<g id="node6" class="node">
<title>Node6</title>
<g id="a_node6"><a xlink:href="classsignal__easel_1_1sstv_1_1Modulator.html#a5db5191f0447cc4b34fff09fc35c7ffe" target="_top" xlink:title=" ">
<polygon fill="none" stroke="black" points="180,-36 180,-77 336,-77 336,-36 180,-36"/>
<text text-anchor="start" x="188" y="-65" font-family="Helvetica,sans-Serif" font-size="10.00">signal_easel::sstv</text>
<text text-anchor="start" x="188" y="-54" font-family="Helvetica,sans-Serif" font-size="10.00">::Modulator::encodeAdjusted</text>
<text text-anchor="middle" x="258" y="-43" font-family="Helvetica,sans-Serif" font-size="10.00">Image</text>
</a>
</g>
</g>
<!-- Node1&#45;&gt;Node6 -->
<g id="edge5" class="edge">
<title>Node1&#45;&gt;Node6</title>
<path fill="none" stroke="midnightblue" d="M144.14,-73.06C152.57,-71.82 161.25,-70.55 169.87,-69.29"/>
<polygon fill="midnightblue" stroke="midnightblue" points="170.56,-72.72 179.95,-67.81 169.54,-65.8 170.56,-72.72"/>
</g>
<!-- Node3 -->
<g id="node3" class="node">
<title>Node3</title>
<g id="a_node3"><a xlink:href="classsignal__easel_1_1sstv_1_1Modulator.html#a4925712af983bce311224cd51c4b9409" target="_top" xlink:title=" ">
<polygon fill="none" stroke="black" points="579,-96.5 579,-126.5 683,-126.5 683,-96.5 579,-96.5"/>
<text text-anchor="start" x="587" y="-114.5" font-family="Helvetica,sans-Serif" font-size="10.00">signal_easel::sstv</text>
<text text-anchor="middle" x="631" y="-103.5" font-family="Helvetica,sans-Serif" font-size="10.00">::Modulator::pulse</text>
</a>
</g>
</g>
<!-- Node2&#45;&gt;Node3 -->
<g id="edge2" class="edge">
<title>Node2&#45;&gt;Node3</title>
<path fill="none" stroke="midnightblue" d="M329.66,-111.5C398.8,-111.5 503.05,-111.5 568.77,-111.5"/>
<polygon fill="midnightblue" stroke="midnightblue" points="568.98,-115 578.98,-111.5 568.98,-108 568.98,-115"/>
</g>
<!-- Node4 -->
<g id="node4" class="node">
<title>Node4</title>
<g id="a_node4"><a xlink:href="classsignal__easel_1_1Modulator.html#a0fcce44b034c83731048ca17dc985f04" target="_top" xlink:title="Add a sine wave to the audio buffer.">
<polygon fill="none" stroke="black" points="733,-96.5 733,-126.5 866,-126.5 866,-96.5 733,-96.5"/>
<text text-anchor="start" x="741" y="-114.5" font-family="Helvetica,sans-Serif" font-size="10.00">signal_easel::Modulator</text>
<text text-anchor="middle" x="799.5" y="-103.5" font-family="Helvetica,sans-Serif" font-size="10.00">::addSineWave</text>
</a>
</g>
</g>
<!-- Node3&#45;&gt;Node4 -->
<g id="edge3" class="edge">
<title>Node3&#45;&gt;Node4</title>
<path fill="none" stroke="midnightblue" d="M683.31,-111.5C695.8,-111.5 709.42,-111.5 722.78,-111.5"/>
<polygon fill="midnightblue" stroke="midnightblue" points="722.92,-115 732.92,-111.5 722.92,-108 722.92,-115"/>
</g>
<!-- Node5 -->
<g id="node5" class="node">
<title>Node5</title>
<g id="a_node5"><a xlink:href="classsignal__easel_1_1Modulator.html#af99ee22156e320703891f0fda4df95e8" target="_top" xlink:title="Add a PCM sample to the audio buffer.">
<polygon fill="none" stroke="black" points="902,-96.5 902,-126.5 1035,-126.5 1035,-96.5 902,-96.5"/>
<text text-anchor="start" x="910" y="-114.5" font-family="Helvetica,sans-Serif" font-size="10.00">signal_easel::Modulator</text>
<text text-anchor="middle" x="968.5" y="-103.5" font-family="Helvetica,sans-Serif" font-size="10.00">::addAudioSample</text>
</a>
</g>
</g>
<!-- Node4&#45;&gt;Node5 -->
<g id="edge4" class="edge">
<title>Node4&#45;&gt;Node5</title>
<path fill="none" stroke="midnightblue" d="M866.02,-111.5C874.5,-111.5 883.23,-111.5 891.85,-111.5"/>
<polygon fill="midnightblue" stroke="midnightblue" points="891.89,-115 901.89,-111.5 891.89,-108 891.89,-115"/>
</g>
<!-- Node7 -->
<g id="node7" class="node">
<title>Node7</title>
<g id="a_node7"><a xlink:href="classsignal__easel_1_1sstv_1_1Modulator.html#acf3f661e744b92527504daff37dc8505" target="_top" xlink:title=" ">
<polygon fill="none" stroke="black" points="372,-49.5 372,-79.5 529,-79.5 529,-49.5 372,-49.5"/>
<text text-anchor="start" x="380" y="-67.5" font-family="Helvetica,sans-Serif" font-size="10.00">signal_easel::sstv</text>
<text text-anchor="middle" x="450.5" y="-56.5" font-family="Helvetica,sans-Serif" font-size="10.00">::Modulator::encodeScanLine</text>
</a>
</g>
</g>
<!-- Node6&#45;&gt;Node7 -->
<g id="edge6" class="edge">
<title>Node6&#45;&gt;Node7</title>
<path fill="none" stroke="midnightblue" d="M336.21,-59.74C344.66,-60.1 353.31,-60.46 361.87,-60.82"/>
<polygon fill="midnightblue" stroke="midnightblue" points="361.73,-64.32 371.87,-61.24 362.03,-57.32 361.73,-64.32"/>
</g>
<!-- Node10 -->
<g id="node10" class="node">
<title>Node10</title>
<g id="a_node10"><a xlink:href="classsignal__easel_1_1sstv_1_1Modulator.html#a3991e5594ce882fae3a7a7b351b1b102" target="_top" xlink:title=" ">
<polygon fill="none" stroke="black" points="375,-0.5 375,-30.5 526,-30.5 526,-0.5 375,-0.5"/>
<text text-anchor="start" x="383" y="-18.5" font-family="Helvetica,sans-Serif" font-size="10.00">signal_easel::sstv</text>
<text text-anchor="middle" x="450.5" y="-7.5" font-family="Helvetica,sans-Serif" font-size="10.00">::Modulator::readImageLine</text>
</a>
</g>
</g>
<!-- Node6&#45;&gt;Node10 -->
<g id="edge11" class="edge">
<title>Node6&#45;&gt;Node10</title>
<path fill="none" stroke="midnightblue" d="M336.21,-39.88C347.19,-37.52 358.49,-35.09 369.52,-32.71"/>
<polygon fill="midnightblue" stroke="midnightblue" points="370.51,-36.08 379.55,-30.55 369.04,-29.24 370.51,-36.08"/>
</g>
<!-- Node7&#45;&gt;Node3 -->
<g id="edge7" class="edge">
<title>Node7&#45;&gt;Node3</title>
<path fill="none" stroke="midnightblue" d="M508.47,-79.5C527.76,-84.58 549.37,-90.27 568.97,-95.43"/>
<polygon fill="midnightblue" stroke="midnightblue" points="568.14,-98.83 578.7,-97.99 569.92,-92.06 568.14,-98.83"/>
</g>
<!-- Node8 -->
<g id="node8" class="node">
<title>Node8</title>
<g id="a_node8"><a xlink:href="classsignal__easel_1_1sstv_1_1Modulator.html#ac6c7141bc8b18abd7e08d8c201aadfb2" target="_top" xlink:title=" ">
<polygon fill="none" stroke="black" points="565,-47.5 565,-77.5 697,-77.5 697,-47.5 565,-47.5"/>
<text text-anchor="start" x="573" y="-65.5" font-family="Helvetica,sans-Serif" font-size="10.00">signal_easel::sstv</text>
<text text-anchor="middle" x="631" y="-54.5" font-family="Helvetica,sans-Serif" font-size="10.00">::Modulator::writeBuffer</text>
</a>
</g>
</g>
<!-- Node7&#45;&gt;Node8 -->
<g id="edge8" class="edge">
<title>Node7&#45;&gt;Node8</title>
<path fill="none" stroke="midnightblue" d="M529.01,-63.63C537.51,-63.54 546.15,-63.44 554.62,-63.34"/>
<polygon fill="midnightblue" stroke="midnightblue" points="554.88,-66.84 564.84,-63.23 554.8,-59.84 554.88,-66.84"/>
</g>
<!-- Node8&#45;&gt;Node4 -->
<g id="edge9" class="edge">
<title>Node8&#45;&gt;Node4</title>
<path fill="none" stroke="midnightblue" d="M683.31,-77.6C700.49,-82.66 719.8,-88.34 737.63,-93.58"/>
<polygon fill="midnightblue" stroke="midnightblue" points="736.77,-96.98 747.36,-96.45 738.75,-90.27 736.77,-96.98"/>
</g>
<!-- Node9 -->
<g id="node9" class="node">
<title>Node9</title>
<g id="a_node9"><a xlink:href="namespacesignal__easel_1_1sstv.html#ab81e87d4063acb6dd548de487c8d07b3" target="_top" xlink:title=" ">
<polygon fill="none" stroke="black" points="747.5,-47.5 747.5,-77.5 851.5,-77.5 851.5,-47.5 747.5,-47.5"/>
<text text-anchor="start" x="755.5" y="-65.5" font-family="Helvetica,sans-Serif" font-size="10.00">signal_easel::sstv</text>
<text text-anchor="middle" x="799.5" y="-54.5" font-family="Helvetica,sans-Serif" font-size="10.00">::ColorToFreq</text>
</a>
</g>
</g>
<!-- Node8&#45;&gt;Node9 -->
<g id="edge10" class="edge">
<title>Node8&#45;&gt;Node9</title>
<path fill="none" stroke="midnightblue" d="M697.33,-62.5C710.41,-62.5 724.11,-62.5 737.06,-62.5"/>
<polygon fill="midnightblue" stroke="midnightblue" points="737.26,-66 747.26,-62.5 737.26,-59 737.26,-66"/>
</g>
</g>
</svg>
