<?xml version="1.0" encoding="UTF-8" standalone="no"?>
<!DOCTYPE svg PUBLIC "-//W3C//DTD SVG 1.1//EN"
 "http://www.w3.org/Graphics/SVG/1.1/DTD/svg11.dtd">
<!-- Generated by graphviz version 2.43.0 (0)
 -->
<!-- Title: signal_easel::ax25::Address::isSsidValid Pages: 1 -->
<svg width="1543pt" height="411pt"
 viewBox="0.00 0.00 1543.00 410.50" xmlns="http://www.w3.org/2000/svg" xmlns:xlink="http://www.w3.org/1999/xlink">
<g id="graph0" class="graph" transform="scale(1 1) rotate(0) translate(4 406.5)">
<title>signal_easel::ax25::Address::isSsidValid</title>
<!-- Node1 -->
<g id="node1" class="node">
<title>Node1</title>
<g id="a_node1"><a xlink:title=" ">
<polygon fill="#bfbfbf" stroke="black" points="1415,-193 1415,-223 1535,-223 1535,-193 1415,-193"/>
<text text-anchor="start" x="1423" y="-211" font-family="Helvetica,sans-Serif" font-size="10.00">signal_easel::ax25</text>
<text text-anchor="middle" x="1475" y="-200" font-family="Helvetica,sans-Serif" font-size="10.00">::Address::isSsidValid</text>
</a>
</g>
</g>
<!-- Node2 -->
<g id="node2" class="node">
<title>Node2</title>
<g id="a_node2"><a xlink:href="classsignal__easel_1_1ax25_1_1Address.html#a8b44c6e311d3462bd86eda03c1d384f0" target="_top" xlink:title=" ">
<polygon fill="none" stroke="black" points="1229,-237 1229,-267 1379,-267 1379,-237 1229,-237"/>
<text text-anchor="start" x="1237" y="-255" font-family="Helvetica,sans-Serif" font-size="10.00">signal_easel::ax25</text>
<text text-anchor="middle" x="1304" y="-244" font-family="Helvetica,sans-Serif" font-size="10.00">::Address::assertSsidIsValid</text>
</a>
</g>
</g>
<!-- Node1&#45;&gt;Node2 -->
<g id="edge1" class="edge">
<title>Node1&#45;&gt;Node2</title>
<path fill="none" stroke="midnightblue" d="M1406.42,-225.59C1391.95,-229.36 1376.78,-233.31 1362.71,-236.97"/>
<polygon fill="midnightblue" stroke="midnightblue" points="1407.52,-228.93 1416.31,-223.02 1405.75,-222.15 1407.52,-228.93"/>
</g>
<!-- Node25 -->
<g id="node25" class="node">
<title>Node25</title>
<g id="a_node25"><a xlink:href="classsignal__easel_1_1ax25_1_1Address.html#aae81920cfd0dc7d89cb107f9d825488c" target="_top" xlink:title="If the address is valid (can be encoded correctly or was decoded)">
<polygon fill="none" stroke="black" points="1068.5,-88 1068.5,-118 1175.5,-118 1175.5,-88 1068.5,-88"/>
<text text-anchor="start" x="1076.5" y="-106" font-family="Helvetica,sans-Serif" font-size="10.00">signal_easel::ax25</text>
<text text-anchor="middle" x="1122" y="-95" font-family="Helvetica,sans-Serif" font-size="10.00">::Address::isValid</text>
</a>
</g>
</g>
<!-- Node1&#45;&gt;Node25 -->
<g id="edge31" class="edge">
<title>Node1&#45;&gt;Node25</title>
<path fill="none" stroke="midnightblue" d="M1414.01,-190.05C1346.12,-169.74 1236.75,-137.03 1173.2,-118.02"/>
<polygon fill="midnightblue" stroke="midnightblue" points="1413.13,-193.44 1423.71,-192.96 1415.13,-186.74 1413.13,-193.44"/>
</g>
<!-- Node3 -->
<g id="node3" class="node">
<title>Node3</title>
<g id="a_node3"><a xlink:href="classsignal__easel_1_1ax25_1_1Address.html#a7fa6b0ef4241413893f201660991e4ea" target="_top" xlink:title="Checks if the address is valid, if not throws an exception with a specific error code.">
<polygon fill="none" stroke="black" points="1057,-188 1057,-218 1187,-218 1187,-188 1057,-188"/>
<text text-anchor="start" x="1065" y="-206" font-family="Helvetica,sans-Serif" font-size="10.00">signal_easel::ax25</text>
<text text-anchor="middle" x="1122" y="-195" font-family="Helvetica,sans-Serif" font-size="10.00">::Address::assertIsValid</text>
</a>
</g>
</g>
<!-- Node2&#45;&gt;Node3 -->
<g id="edge2" class="edge">
<title>Node2&#45;&gt;Node3</title>
<path fill="none" stroke="midnightblue" d="M1237.8,-234.25C1218.29,-228.94 1197.1,-223.17 1178.29,-218.05"/>
<polygon fill="midnightblue" stroke="midnightblue" points="1236.96,-237.65 1247.53,-236.9 1238.8,-230.89 1236.96,-237.65"/>
</g>
<!-- Node21 -->
<g id="node21" class="node">
<title>Node21</title>
<g id="a_node21"><a xlink:href="classsignal__easel_1_1ax25_1_1Address.html#a6a2594f26aa1d2a46e33d7da1a1d5fdd" target="_top" xlink:title="Decode an AX.25 address from it&#39;s byte array representation.">
<polygon fill="none" stroke="black" points="1051,-359 1051,-389 1193,-389 1193,-359 1051,-359"/>
<text text-anchor="start" x="1059" y="-377" font-family="Helvetica,sans-Serif" font-size="10.00">signal_easel::ax25</text>
<text text-anchor="middle" x="1122" y="-366" font-family="Helvetica,sans-Serif" font-size="10.00">::Address::decodeAddress</text>
</a>
</g>
</g>
<!-- Node2&#45;&gt;Node21 -->
<g id="edge27" class="edge">
<title>Node2&#45;&gt;Node21</title>
<path fill="none" stroke="midnightblue" d="M1271.89,-273.09C1235.73,-297.59 1176.96,-337.42 1145.15,-358.99"/>
<polygon fill="midnightblue" stroke="midnightblue" points="1274.25,-275.71 1280.57,-267.2 1270.33,-269.92 1274.25,-275.71"/>
</g>
<!-- Node23 -->
<g id="node23" class="node">
<title>Node23</title>
<g id="a_node23"><a xlink:href="classsignal__easel_1_1ax25_1_1Address.html#a069a8d96c0d74e4a3288876c429c7187" target="_top" xlink:title="Set the SSID (0&#45;15)">
<polygon fill="none" stroke="black" points="1068.5,-286 1068.5,-316 1175.5,-316 1175.5,-286 1068.5,-286"/>
<text text-anchor="start" x="1076.5" y="-304" font-family="Helvetica,sans-Serif" font-size="10.00">signal_easel::ax25</text>
<text text-anchor="middle" x="1122" y="-293" font-family="Helvetica,sans-Serif" font-size="10.00">::Address::setSsid</text>
</a>
</g>
</g>
<!-- Node2&#45;&gt;Node23 -->
<g id="edge29" class="edge">
<title>Node2&#45;&gt;Node23</title>
<path fill="none" stroke="midnightblue" d="M1237.66,-269.79C1217.23,-275.35 1194.96,-281.41 1175.52,-286.7"/>
<polygon fill="midnightblue" stroke="midnightblue" points="1238.8,-273.11 1247.53,-267.1 1236.96,-266.35 1238.8,-273.11"/>
</g>
<!-- Node4 -->
<g id="node4" class="node">
<title>Node4</title>
<g id="a_node4"><a xlink:href="classsignal__easel_1_1ax25_1_1Frame.html#af86d4b534367a8faf6b628301c9ffceb" target="_top" xlink:title=" ">
<polygon fill="none" stroke="black" points="849.5,-274 849.5,-304 1010.5,-304 1010.5,-274 849.5,-274"/>
<text text-anchor="start" x="857.5" y="-292" font-family="Helvetica,sans-Serif" font-size="10.00">signal_easel::ax25</text>
<text text-anchor="middle" x="930" y="-281" font-family="Helvetica,sans-Serif" font-size="10.00">::Frame::addRepeaterAddress</text>
</a>
</g>
</g>
<!-- Node3&#45;&gt;Node4 -->
<g id="edge3" class="edge">
<title>Node3&#45;&gt;Node4</title>
<path fill="none" stroke="midnightblue" d="M1089.6,-223.66C1069.02,-236.55 1041.17,-252.76 1015,-264 1006.47,-267.66 997.24,-271 988.12,-273.96"/>
<polygon fill="midnightblue" stroke="midnightblue" points="1091.66,-226.5 1098.23,-218.19 1087.92,-220.59 1091.66,-226.5"/>
</g>
<!-- Node9 -->
<g id="node9" class="node">
<title>Node9</title>
<g id="a_node9"><a xlink:href="classsignal__easel_1_1ax25_1_1Address.html#a0c31737081a9184b56dc32150b23cb0a" target="_top" xlink:title="Get the address as a byte array.">
<polygon fill="none" stroke="black" points="859,-39 859,-69 1001,-69 1001,-39 859,-39"/>
<text text-anchor="start" x="867" y="-57" font-family="Helvetica,sans-Serif" font-size="10.00">signal_easel::ax25</text>
<text text-anchor="middle" x="930" y="-46" font-family="Helvetica,sans-Serif" font-size="10.00">::Address::encodeAddress</text>
</a>
</g>
</g>
<!-- Node3&#45;&gt;Node9 -->
<g id="edge8" class="edge">
<title>Node3&#45;&gt;Node9</title>
<path fill="none" stroke="midnightblue" d="M1099.04,-180.49C1084.9,-165.67 1066.34,-145.63 1051,-127 1033.82,-106.14 1037.18,-93.43 1015,-78 1010.02,-74.54 1004.54,-71.57 998.85,-69.03"/>
<polygon fill="midnightblue" stroke="midnightblue" points="1096.55,-182.95 1106,-187.73 1101.6,-178.1 1096.55,-182.95"/>
</g>
<!-- Node17 -->
<g id="node17" class="node">
<title>Node17</title>
<g id="a_node17"><a xlink:href="classsignal__easel_1_1ax25_1_1Frame.html#a57b163ece54317da8d95f3b18b47c23d" target="_top" xlink:title="setters/getters for the frame.">
<polygon fill="none" stroke="black" points="845,-176 845,-206 1015,-206 1015,-176 845,-176"/>
<text text-anchor="start" x="853" y="-194" font-family="Helvetica,sans-Serif" font-size="10.00">signal_easel::ax25</text>
<text text-anchor="middle" x="930" y="-183" font-family="Helvetica,sans-Serif" font-size="10.00">::Frame::setDestinationAddress</text>
</a>
</g>
</g>
<!-- Node3&#45;&gt;Node17 -->
<g id="edge17" class="edge">
<title>Node3&#45;&gt;Node17</title>
<path fill="none" stroke="midnightblue" d="M1046.68,-198.31C1036.29,-197.65 1025.56,-196.97 1015,-196.31"/>
<polygon fill="midnightblue" stroke="midnightblue" points="1046.74,-201.82 1056.94,-198.95 1047.18,-194.83 1046.74,-201.82"/>
</g>
<!-- Node19 -->
<g id="node19" class="node">
<title>Node19</title>
<g id="a_node19"><a xlink:href="ax25__frame__test_8cpp.html#a091d83d42783f2a0b3fd33a0521dc2ce" target="_top" xlink:title=" ">
<polygon fill="none" stroke="black" points="715.5,-137.5 715.5,-156.5 756.5,-156.5 756.5,-137.5 715.5,-137.5"/>
<text text-anchor="middle" x="736" y="-144.5" font-family="Helvetica,sans-Serif" font-size="10.00">TEST</text>
</a>
</g>
</g>
<!-- Node3&#45;&gt;Node19 -->
<g id="edge26" class="edge">
<title>Node3&#45;&gt;Node19</title>
<path fill="none" stroke="midnightblue" d="M1075.99,-184.3C1057.42,-177.38 1035.49,-170.2 1015,-166 919.74,-146.49 802.69,-145.9 756.79,-146.55"/>
<polygon fill="midnightblue" stroke="midnightblue" points="1074.78,-187.58 1085.37,-187.88 1077.28,-181.04 1074.78,-187.58"/>
</g>
<!-- Node20 -->
<g id="node20" class="node">
<title>Node20</title>
<g id="a_node20"><a xlink:href="classsignal__easel_1_1ax25_1_1Frame.html#a402d26a81f82bb5c477e8930b75a771e" target="_top" xlink:title=" ">
<polygon fill="none" stroke="black" points="857,-225 857,-255 1003,-255 1003,-225 857,-225"/>
<text text-anchor="start" x="865" y="-243" font-family="Helvetica,sans-Serif" font-size="10.00">signal_easel::ax25</text>
<text text-anchor="middle" x="930" y="-232" font-family="Helvetica,sans-Serif" font-size="10.00">::Frame::setSourceAddress</text>
</a>
</g>
</g>
<!-- Node3&#45;&gt;Node20 -->
<g id="edge22" class="edge">
<title>Node3&#45;&gt;Node20</title>
<path fill="none" stroke="midnightblue" d="M1047.1,-217.39C1032.71,-220.19 1017.63,-223.13 1003.29,-225.92"/>
<polygon fill="midnightblue" stroke="midnightblue" points="1047.79,-220.82 1056.94,-215.47 1046.45,-213.95 1047.79,-220.82"/>
</g>
<!-- Node5 -->
<g id="node5" class="node">
<title>Node5</title>
<g id="a_node5"><a xlink:href="classsignal__easel_1_1ax25_1_1Frame.html#a63cf2362c2a90d20f09bbbc4f24a07ba" target="_top" xlink:title="Attempt to parse an incoming bit stream into an AX.25 frame.">
<polygon fill="none" stroke="black" points="668.5,-225 668.5,-255 803.5,-255 803.5,-225 668.5,-225"/>
<text text-anchor="start" x="676.5" y="-243" font-family="Helvetica,sans-Serif" font-size="10.00">signal_easel::ax25</text>
<text text-anchor="middle" x="736" y="-232" font-family="Helvetica,sans-Serif" font-size="10.00">::Frame::parseBitStream</text>
</a>
</g>
</g>
<!-- Node4&#45;&gt;Node5 -->
<g id="edge4" class="edge">
<title>Node4&#45;&gt;Node5</title>
<path fill="none" stroke="midnightblue" d="M860.23,-271.45C839.15,-266.07 816.15,-260.2 795.8,-255.01"/>
<polygon fill="midnightblue" stroke="midnightblue" points="859.53,-274.88 870.09,-273.97 861.26,-268.1 859.53,-274.88"/>
</g>
<!-- Node6 -->
<g id="node6" class="node">
<title>Node6</title>
<g id="a_node6"><a xlink:href="classsignal__easel_1_1aprs_1_1Demodulator.html#ae5a8e7634c1bc8d215a0c454a9a737fa" target="_top" xlink:title=" ">
<polygon fill="none" stroke="black" points="474,-219.5 474,-260.5 627,-260.5 627,-219.5 474,-219.5"/>
<text text-anchor="start" x="482" y="-248.5" font-family="Helvetica,sans-Serif" font-size="10.00">signal_easel::aprs</text>
<text text-anchor="start" x="482" y="-237.5" font-family="Helvetica,sans-Serif" font-size="10.00">::Demodulator::lookForAx25</text>
<text text-anchor="middle" x="550.5" y="-226.5" font-family="Helvetica,sans-Serif" font-size="10.00">Packet</text>
</a>
</g>
</g>
<!-- Node5&#45;&gt;Node6 -->
<g id="edge5" class="edge">
<title>Node5&#45;&gt;Node6</title>
<path fill="none" stroke="midnightblue" d="M658.29,-240C647.98,-240 637.41,-240 627.11,-240"/>
<polygon fill="midnightblue" stroke="midnightblue" points="658.49,-243.5 668.49,-240 658.49,-236.5 658.49,-243.5"/>
</g>
<!-- Node7 -->
<g id="node7" class="node">
<title>Node7</title>
<g id="a_node7"><a xlink:href="classsignal__easel_1_1aprs_1_1Receiver.html#afbf7869aceaf2ea7ab0be8b9af16e818" target="_top" xlink:title=" ">
<polygon fill="none" stroke="black" points="309.5,-262 309.5,-292 416.5,-292 416.5,-262 309.5,-262"/>
<text text-anchor="start" x="317.5" y="-280" font-family="Helvetica,sans-Serif" font-size="10.00">signal_easel::aprs</text>
<text text-anchor="middle" x="363" y="-269" font-family="Helvetica,sans-Serif" font-size="10.00">::Receiver::decode</text>
</a>
</g>
</g>
<!-- Node6&#45;&gt;Node7 -->
<g id="edge6" class="edge">
<title>Node6&#45;&gt;Node7</title>
<path fill="none" stroke="midnightblue" d="M463.79,-257.1C447.66,-260.31 431.24,-263.59 416.51,-266.53"/>
<polygon fill="midnightblue" stroke="midnightblue" points="464.66,-260.49 473.78,-255.1 463.29,-253.63 464.66,-260.49"/>
</g>
<!-- Node8 -->
<g id="node8" class="node">
<title>Node8</title>
<g id="a_node8"><a xlink:href="aprs__test_8cpp.html#aea66d1824e3f1e27598adf99ac6a089a" target="_top" xlink:title=" ">
<polygon fill="none" stroke="black" points="0,-198.5 0,-217.5 41,-217.5 41,-198.5 0,-198.5"/>
<text text-anchor="middle" x="20.5" y="-205.5" font-family="Helvetica,sans-Serif" font-size="10.00">TEST</text>
</a>
</g>
</g>
<!-- Node6&#45;&gt;Node8 -->
<g id="edge7" class="edge">
<title>Node6&#45;&gt;Node8</title>
<path fill="none" stroke="midnightblue" d="M463.61,-236.64C368.86,-232.61 211.9,-225 77,-214 65.12,-213.03 51.84,-211.61 41.25,-210.39"/>
<polygon fill="midnightblue" stroke="midnightblue" points="463.58,-240.14 473.72,-237.06 463.88,-233.14 463.58,-240.14"/>
</g>
<!-- Node10 -->
<g id="node10" class="node">
<title>Node10</title>
<g id="a_node10"><a xlink:href="classsignal__easel_1_1ax25_1_1Frame.html#a24e7d5ffc6504a3380e97142d1bc084e" target="_top" xlink:title="Builds all internal portions of the frame. Doesn&#39;t include the flags.">
<polygon fill="none" stroke="black" points="679,-88 679,-118 793,-118 793,-88 679,-88"/>
<text text-anchor="start" x="687" y="-106" font-family="Helvetica,sans-Serif" font-size="10.00">signal_easel::ax25</text>
<text text-anchor="middle" x="736" y="-95" font-family="Helvetica,sans-Serif" font-size="10.00">::Frame::buildFrame</text>
</a>
</g>
</g>
<!-- Node9&#45;&gt;Node10 -->
<g id="edge9" class="edge">
<title>Node9&#45;&gt;Node10</title>
<path fill="none" stroke="midnightblue" d="M860.16,-71.57C838.18,-77.18 814.14,-83.31 793.17,-88.66"/>
<polygon fill="midnightblue" stroke="midnightblue" points="861.26,-74.9 870.09,-69.03 859.53,-68.12 861.26,-74.9"/>
</g>
<!-- Node16 -->
<g id="node16" class="node">
<title>Node16</title>
<g id="a_node16"><a xlink:href="ax25__address__test_8cpp.html#a1d87028368532ba4ae914da9397571d3" target="_top" xlink:title=" ">
<polygon fill="none" stroke="black" points="715.5,-44.5 715.5,-63.5 756.5,-63.5 756.5,-44.5 715.5,-44.5"/>
<text text-anchor="middle" x="736" y="-51.5" font-family="Helvetica,sans-Serif" font-size="10.00">TEST</text>
</a>
</g>
</g>
<!-- Node9&#45;&gt;Node16 -->
<g id="edge16" class="edge">
<title>Node9&#45;&gt;Node16</title>
<path fill="none" stroke="midnightblue" d="M848.5,-54C814.77,-54 778.41,-54 756.69,-54"/>
<polygon fill="midnightblue" stroke="midnightblue" points="848.87,-57.5 858.87,-54 848.87,-50.5 848.87,-57.5"/>
</g>
<!-- Node11 -->
<g id="node11" class="node">
<title>Node11</title>
<g id="a_node11"><a xlink:href="classsignal__easel_1_1ax25_1_1Frame.html#a2b4f6ebcb7592a7e5a21114c8fafa503" target="_top" xlink:title="A step beyond buildFrame. This function builds the frame, does the bit stuffing, adds the flags,...">
<polygon fill="none" stroke="black" points="488,-95 488,-125 613,-125 613,-95 488,-95"/>
<text text-anchor="start" x="496" y="-113" font-family="Helvetica,sans-Serif" font-size="10.00">signal_easel::ax25</text>
<text text-anchor="middle" x="550.5" y="-102" font-family="Helvetica,sans-Serif" font-size="10.00">::Frame::encodeFrame</text>
</a>
</g>
</g>
<!-- Node10&#45;&gt;Node11 -->
<g id="edge10" class="edge">
<title>Node10&#45;&gt;Node11</title>
<path fill="none" stroke="midnightblue" d="M668.77,-105.53C650.67,-106.22 631.13,-106.96 613.29,-107.64"/>
<polygon fill="midnightblue" stroke="midnightblue" points="669.09,-109.02 678.95,-105.14 668.82,-102.02 669.09,-109.02"/>
</g>
<!-- Node12 -->
<g id="node12" class="node">
<title>Node12</title>
<g id="a_node12"><a xlink:href="namespacesignal__easel.html#aad3ffdd47a4a03ed438e8c1ca9eef231" target="_top" xlink:title=" ">
<polygon fill="none" stroke="black" points="288,-114.5 288,-133.5 438,-133.5 438,-114.5 288,-114.5"/>
<text text-anchor="middle" x="363" y="-121.5" font-family="Helvetica,sans-Serif" font-size="10.00">signal_easel::encodePacket</text>
</a>
</g>
</g>
<!-- Node11&#45;&gt;Node12 -->
<g id="edge11" class="edge">
<title>Node11&#45;&gt;Node12</title>
<path fill="none" stroke="midnightblue" d="M477.75,-115.42C464.79,-116.39 451.27,-117.41 438.25,-118.4"/>
<polygon fill="midnightblue" stroke="midnightblue" points="478.28,-118.89 487.99,-114.64 477.75,-111.9 478.28,-118.89"/>
</g>
<!-- Node13 -->
<g id="node13" class="node">
<title>Node13</title>
<g id="a_node13"><a xlink:href="classsignal__easel_1_1aprs_1_1Modulator.html#adfa8809d1c11321b9ff2c7efe7f58499" target="_top" xlink:title=" ">
<polygon fill="none" stroke="black" points="77,-54 77,-84 252,-84 252,-54 77,-54"/>
<text text-anchor="start" x="85" y="-72" font-family="Helvetica,sans-Serif" font-size="10.00">signal_easel::aprs</text>
<text text-anchor="middle" x="164.5" y="-61" font-family="Helvetica,sans-Serif" font-size="10.00">::Modulator::encodeMessageAck</text>
</a>
</g>
</g>
<!-- Node12&#45;&gt;Node13 -->
<g id="edge12" class="edge">
<title>Node12&#45;&gt;Node13</title>
<path fill="none" stroke="midnightblue" d="M317.87,-111.65C288.7,-103.48 250.29,-92.73 219.32,-84.07"/>
<polygon fill="midnightblue" stroke="midnightblue" points="317.2,-115.09 327.77,-114.42 319.09,-108.35 317.2,-115.09"/>
</g>
<!-- Node14 -->
<g id="node14" class="node">
<title>Node14</title>
<g id="a_node14"><a xlink:href="classsignal__easel_1_1aprs_1_1Modulator.html#a147321b48c2e282c62863f114702e54f" target="_top" xlink:title=" ">
<polygon fill="none" stroke="black" points="86,-163.5 86,-204.5 243,-204.5 243,-163.5 86,-163.5"/>
<text text-anchor="start" x="94" y="-192.5" font-family="Helvetica,sans-Serif" font-size="10.00">signal_easel::aprs</text>
<text text-anchor="start" x="94" y="-181.5" font-family="Helvetica,sans-Serif" font-size="10.00">::Modulator::encodeMessage</text>
<text text-anchor="middle" x="164.5" y="-170.5" font-family="Helvetica,sans-Serif" font-size="10.00">Packet</text>
</a>
</g>
</g>
<!-- Node12&#45;&gt;Node14 -->
<g id="edge13" class="edge">
<title>Node12&#45;&gt;Node14</title>
<path fill="none" stroke="midnightblue" d="M321.14,-136.48C295.6,-144.28 262.08,-154.51 232.7,-163.48"/>
<polygon fill="midnightblue" stroke="midnightblue" points="322.32,-139.78 330.86,-133.51 320.28,-133.08 322.32,-139.78"/>
</g>
<!-- Node15 -->
<g id="node15" class="node">
<title>Node15</title>
<g id="a_node15"><a xlink:href="classsignal__easel_1_1aprs_1_1Modulator.html#a943e392227656943d7db842e1889d805" target="_top" xlink:title=" ">
<polygon fill="none" stroke="black" points="88.5,-103.5 88.5,-144.5 240.5,-144.5 240.5,-103.5 88.5,-103.5"/>
<text text-anchor="start" x="96.5" y="-132.5" font-family="Helvetica,sans-Serif" font-size="10.00">signal_easel::aprs</text>
<text text-anchor="start" x="96.5" y="-121.5" font-family="Helvetica,sans-Serif" font-size="10.00">::Modulator::encodePosition</text>
<text text-anchor="middle" x="164.5" y="-110.5" font-family="Helvetica,sans-Serif" font-size="10.00">Packet</text>
</a>
</g>
</g>
<!-- Node12&#45;&gt;Node15 -->
<g id="edge15" class="edge">
<title>Node12&#45;&gt;Node15</title>
<path fill="none" stroke="midnightblue" d="M277.75,-124C265.45,-124 252.85,-124 240.75,-124"/>
<polygon fill="midnightblue" stroke="midnightblue" points="277.99,-127.5 287.99,-124 277.99,-120.5 277.99,-127.5"/>
</g>
<!-- Node14&#45;&gt;Node8 -->
<g id="edge14" class="edge">
<title>Node14&#45;&gt;Node8</title>
<path fill="none" stroke="midnightblue" d="M75.84,-198.82C62.91,-201 50.76,-203.05 41.24,-204.66"/>
<polygon fill="midnightblue" stroke="midnightblue" points="76.58,-202.24 85.85,-197.12 75.41,-195.34 76.58,-202.24"/>
</g>
<!-- Node17&#45;&gt;Node5 -->
<g id="edge20" class="edge">
<title>Node17&#45;&gt;Node5</title>
<path fill="none" stroke="midnightblue" d="M860.23,-208.55C839.15,-213.93 816.15,-219.8 795.8,-224.99"/>
<polygon fill="midnightblue" stroke="midnightblue" points="861.26,-211.9 870.09,-206.03 859.53,-205.12 861.26,-211.9"/>
</g>
<!-- Node18 -->
<g id="node18" class="node">
<title>Node18</title>
<g id="a_node18"><a xlink:href="namespacesignal__easel.html#ada24f00bb5d1a1bb97976967185c7526" target="_top" xlink:title=" ">
<polygon fill="none" stroke="black" points="663,-176 663,-206 809,-206 809,-176 663,-176"/>
<text text-anchor="start" x="671" y="-194" font-family="Helvetica,sans-Serif" font-size="10.00">signal_easel::AddRequired</text>
<text text-anchor="middle" x="736" y="-183" font-family="Helvetica,sans-Serif" font-size="10.00">Fields</text>
</a>
</g>
</g>
<!-- Node17&#45;&gt;Node18 -->
<g id="edge18" class="edge">
<title>Node17&#45;&gt;Node18</title>
<path fill="none" stroke="midnightblue" d="M834.71,-191C826.11,-191 817.49,-191 809.13,-191"/>
<polygon fill="midnightblue" stroke="midnightblue" points="834.79,-194.5 844.79,-191 834.79,-187.5 834.79,-194.5"/>
</g>
<!-- Node17&#45;&gt;Node19 -->
<g id="edge21" class="edge">
<title>Node17&#45;&gt;Node19</title>
<path fill="none" stroke="midnightblue" d="M853.69,-173.74C818.63,-165.71 779.7,-156.79 756.84,-151.55"/>
<polygon fill="midnightblue" stroke="midnightblue" points="852.93,-177.16 863.46,-175.98 854.5,-170.34 852.93,-177.16"/>
</g>
<!-- Node18&#45;&gt;Node12 -->
<g id="edge19" class="edge">
<title>Node18&#45;&gt;Node12</title>
<path fill="none" stroke="midnightblue" d="M652.64,-176.13C580.64,-163.12 478.26,-144.63 416.76,-133.53"/>
<polygon fill="midnightblue" stroke="midnightblue" points="652.12,-179.59 662.59,-177.92 653.37,-172.7 652.12,-179.59"/>
</g>
<!-- Node20&#45;&gt;Node5 -->
<g id="edge24" class="edge">
<title>Node20&#45;&gt;Node5</title>
<path fill="none" stroke="midnightblue" d="M846.62,-240C832.3,-240 817.57,-240 803.74,-240"/>
<polygon fill="midnightblue" stroke="midnightblue" points="846.96,-243.5 856.96,-240 846.96,-236.5 846.96,-243.5"/>
</g>
<!-- Node20&#45;&gt;Node18 -->
<g id="edge23" class="edge">
<title>Node20&#45;&gt;Node18</title>
<path fill="none" stroke="midnightblue" d="M860.23,-222.45C839.15,-217.07 816.15,-211.2 795.8,-206.01"/>
<polygon fill="midnightblue" stroke="midnightblue" points="859.53,-225.88 870.09,-224.97 861.26,-219.1 859.53,-225.88"/>
</g>
<!-- Node20&#45;&gt;Node19 -->
<g id="edge25" class="edge">
<title>Node20&#45;&gt;Node19</title>
<path fill="none" stroke="midnightblue" d="M853.62,-220.35C850.62,-218.71 847.74,-216.93 845,-215 822.9,-199.45 831.34,-181.2 809,-166 793.4,-155.38 772.17,-150.69 756.81,-148.63"/>
<polygon fill="midnightblue" stroke="midnightblue" points="852.34,-223.62 862.86,-224.89 855.42,-217.34 852.34,-223.62"/>
</g>
<!-- Node22 -->
<g id="node22" class="node">
<title>Node22</title>
<g id="a_node22"><a xlink:href="classsignal__easel_1_1ax25_1_1Address.html#a2ffb5475017120d1071e4b8d3f35c394" target="_top" xlink:title=" ">
<polygon fill="none" stroke="black" points="876.5,-372 876.5,-402 983.5,-402 983.5,-372 876.5,-372"/>
<text text-anchor="start" x="884.5" y="-390" font-family="Helvetica,sans-Serif" font-size="10.00">signal_easel::ax25</text>
<text text-anchor="middle" x="930" y="-379" font-family="Helvetica,sans-Serif" font-size="10.00">::Address::Address</text>
</a>
</g>
</g>
<!-- Node21&#45;&gt;Node22 -->
<g id="edge28" class="edge">
<title>Node21&#45;&gt;Node22</title>
<path fill="none" stroke="midnightblue" d="M1040.79,-379.49C1021.5,-380.81 1001.37,-382.19 983.69,-383.39"/>
<polygon fill="midnightblue" stroke="midnightblue" points="1041.05,-382.98 1050.79,-378.8 1040.58,-375.99 1041.05,-382.98"/>
</g>
<!-- Node24 -->
<g id="node24" class="node">
<title>Node24</title>
<g id="a_node24"><a xlink:href="classsignal__easel_1_1ax25_1_1Address.html#af2e2c1061b619a32d966d4b08eed7ede" target="_top" xlink:title=" ">
<polygon fill="none" stroke="black" points="876.5,-323 876.5,-353 983.5,-353 983.5,-323 876.5,-323"/>
<text text-anchor="start" x="884.5" y="-341" font-family="Helvetica,sans-Serif" font-size="10.00">signal_easel::ax25</text>
<text text-anchor="middle" x="930" y="-330" font-family="Helvetica,sans-Serif" font-size="10.00">::Address::Address</text>
</a>
</g>
</g>
<!-- Node23&#45;&gt;Node24 -->
<g id="edge30" class="edge">
<title>Node23&#45;&gt;Node24</title>
<path fill="none" stroke="midnightblue" d="M1058.21,-313.23C1034.1,-317.92 1006.85,-323.23 983.78,-327.72"/>
<polygon fill="midnightblue" stroke="midnightblue" points="1059.18,-316.6 1068.33,-311.26 1057.84,-309.73 1059.18,-316.6"/>
</g>
<!-- Node26 -->
<g id="node26" class="node">
<title>Node26</title>
<g id="a_node26"><a xlink:href="classsignal__easel_1_1ax25_1_1Frame.html#a640edeabbda34e78cc243e3561747bf9" target="_top" xlink:title=" ">
<polygon fill="none" stroke="black" points="869,-88 869,-118 991,-118 991,-88 869,-88"/>
<text text-anchor="start" x="877" y="-106" font-family="Helvetica,sans-Serif" font-size="10.00">signal_easel::ax25</text>
<text text-anchor="middle" x="930" y="-95" font-family="Helvetica,sans-Serif" font-size="10.00">::Frame::isFrameValid</text>
</a>
</g>
</g>
<!-- Node25&#45;&gt;Node26 -->
<g id="edge32" class="edge">
<title>Node25&#45;&gt;Node26</title>
<path fill="none" stroke="midnightblue" d="M1058.28,-103C1036.67,-103 1012.55,-103 991.16,-103"/>
<polygon fill="midnightblue" stroke="midnightblue" points="1058.33,-106.5 1068.33,-103 1058.33,-99.5 1058.33,-106.5"/>
</g>
<!-- Node27 -->
<g id="node27" class="node">
<title>Node27</title>
<g id="a_node27"><a xlink:href="ax25__address__test_8cpp.html#afa443d4d5f700a003ec7cac34596dcba" target="_top" xlink:title=" ">
<polygon fill="none" stroke="black" points="909.5,-0.5 909.5,-19.5 950.5,-19.5 950.5,-0.5 909.5,-0.5"/>
<text text-anchor="middle" x="930" y="-7.5" font-family="Helvetica,sans-Serif" font-size="10.00">TEST</text>
</a>
</g>
</g>
<!-- Node25&#45;&gt;Node27 -->
<g id="edge35" class="edge">
<title>Node25&#45;&gt;Node27</title>
<path fill="none" stroke="midnightblue" d="M1096.03,-81.35C1075.56,-64.68 1045.13,-42.31 1015,-29 994.07,-19.76 968.16,-14.78 950.69,-12.26"/>
<polygon fill="midnightblue" stroke="midnightblue" points="1093.97,-84.19 1103.9,-87.88 1098.44,-78.8 1093.97,-84.19"/>
</g>
<!-- Node26&#45;&gt;Node10 -->
<g id="edge33" class="edge">
<title>Node26&#45;&gt;Node10</title>
<path fill="none" stroke="midnightblue" d="M858.67,-103C837.07,-103 813.6,-103 793.09,-103"/>
<polygon fill="midnightblue" stroke="midnightblue" points="858.78,-106.5 868.78,-103 858.78,-99.5 858.78,-106.5"/>
</g>
<!-- Node26&#45;&gt;Node19 -->
<g id="edge34" class="edge">
<title>Node26&#45;&gt;Node19</title>
<path fill="none" stroke="midnightblue" d="M858.67,-119.12C822.29,-127.45 780.59,-137.01 756.67,-142.49"/>
<polygon fill="midnightblue" stroke="midnightblue" points="859.81,-122.45 868.78,-116.8 858.25,-115.62 859.81,-122.45"/>
</g>
</g>
</svg>
