<?xml version="1.0" encoding="UTF-8" standalone="no"?>
<!DOCTYPE svg PUBLIC "-//W3C//DTD SVG 1.1//EN"
 "http://www.w3.org/Graphics/SVG/1.1/DTD/svg11.dtd">
<!-- Generated by graphviz version 2.43.0 (0)
 -->
<!-- Title: signal_easel::ax25::Frame::setDestinationAddress Pages: 1 -->
<svg width="764pt" height="166pt"
 viewBox="0.00 0.00 764.00 165.50" xmlns="http://www.w3.org/2000/svg" xmlns:xlink="http://www.w3.org/1999/xlink">
<g id="graph0" class="graph" transform="scale(1 1) rotate(0) translate(4 161.5)">
<title>signal_easel::ax25::Frame::setDestinationAddress</title>
<!-- Node1 -->
<g id="node1" class="node">
<title>Node1</title>
<g id="a_node1"><a xlink:title="setters/getters for the frame.">
<polygon fill="#bfbfbf" stroke="black" points="586,-61 586,-91 756,-91 756,-61 586,-61"/>
<text text-anchor="start" x="594" y="-79" font-family="Helvetica,sans-Serif" font-size="10.00">signal_easel::ax25</text>
<text text-anchor="middle" x="671" y="-68" font-family="Helvetica,sans-Serif" font-size="10.00">::Frame::setDestinationAddress</text>
</a>
</g>
</g>
<!-- Node2 -->
<g id="node2" class="node">
<title>Node2</title>
<g id="a_node2"><a xlink:href="namespacesignal__easel_1_1aprs.html#a586b022fa0c917fa8557bbd5cdc6aeeb" target="_top" xlink:title=" ">
<polygon fill="none" stroke="black" points="426,-127 426,-157 539,-157 539,-127 426,-127"/>
<text text-anchor="start" x="434" y="-145" font-family="Helvetica,sans-Serif" font-size="10.00">signal_easel::aprs</text>
<text text-anchor="middle" x="482.5" y="-134" font-family="Helvetica,sans-Serif" font-size="10.00">::AddRequiredFields</text>
</a>
</g>
</g>
<!-- Node1&#45;&gt;Node2 -->
<g id="edge1" class="edge">
<title>Node1&#45;&gt;Node2</title>
<path fill="none" stroke="midnightblue" d="M617.68,-94.52C588.76,-104.75 553.29,-117.3 526.09,-126.93"/>
<polygon fill="midnightblue" stroke="midnightblue" points="618.95,-97.78 627.21,-91.14 616.62,-91.18 618.95,-97.78"/>
</g>
<!-- Node6 -->
<g id="node6" class="node">
<title>Node6</title>
<g id="a_node6"><a xlink:href="tmp_8cpp.html#ae66f6b31b5ad750f1fe042a706a4e3d4" target="_top" xlink:title=" ">
<polygon fill="none" stroke="black" points="462,-88.5 462,-107.5 503,-107.5 503,-88.5 462,-88.5"/>
<text text-anchor="middle" x="482.5" y="-95.5" font-family="Helvetica,sans-Serif" font-size="10.00">main</text>
</a>
</g>
</g>
<!-- Node1&#45;&gt;Node6 -->
<g id="edge5" class="edge">
<title>Node1&#45;&gt;Node6</title>
<path fill="none" stroke="midnightblue" d="M575.65,-87.13C548.2,-90.37 520.87,-93.59 503.19,-95.68"/>
<polygon fill="midnightblue" stroke="midnightblue" points="576.23,-90.59 585.75,-85.94 575.41,-83.63 576.23,-90.59"/>
</g>
<!-- Node7 -->
<g id="node7" class="node">
<title>Node7</title>
<g id="a_node7"><a xlink:href="classsignal__easel_1_1ax25_1_1Frame.html#a63cf2362c2a90d20f09bbbc4f24a07ba" target="_top" xlink:title="Attempt to parse an incoming bit stream into an AX.25 frame.">
<polygon fill="none" stroke="black" points="415,-39 415,-69 550,-69 550,-39 415,-39"/>
<text text-anchor="start" x="423" y="-57" font-family="Helvetica,sans-Serif" font-size="10.00">signal_easel::ax25</text>
<text text-anchor="middle" x="482.5" y="-46" font-family="Helvetica,sans-Serif" font-size="10.00">::Frame::parseBitStream</text>
</a>
</g>
</g>
<!-- Node1&#45;&gt;Node7 -->
<g id="edge6" class="edge">
<title>Node1&#45;&gt;Node7</title>
<path fill="none" stroke="midnightblue" d="M575.62,-64.87C566.99,-63.85 558.36,-62.83 550.04,-61.85"/>
<polygon fill="midnightblue" stroke="midnightblue" points="575.41,-68.37 585.75,-66.06 576.23,-61.41 575.41,-68.37"/>
</g>
<!-- Node10 -->
<g id="node10" class="node">
<title>Node10</title>
<g id="a_node10"><a xlink:href="ax25__frame__test_8cpp.html#a091d83d42783f2a0b3fd33a0521dc2ce" target="_top" xlink:title=" ">
<polygon fill="none" stroke="black" points="462,-0.5 462,-19.5 503,-19.5 503,-0.5 462,-0.5"/>
<text text-anchor="middle" x="482.5" y="-7.5" font-family="Helvetica,sans-Serif" font-size="10.00">TEST</text>
</a>
</g>
</g>
<!-- Node1&#45;&gt;Node10 -->
<g id="edge10" class="edge">
<title>Node1&#45;&gt;Node10</title>
<path fill="none" stroke="midnightblue" d="M624.56,-57.03C602.28,-48.02 574.93,-37.42 550,-29 534.42,-23.73 516.47,-18.66 503.15,-15.09"/>
<polygon fill="midnightblue" stroke="midnightblue" points="623.51,-60.38 634.1,-60.91 626.15,-53.9 623.51,-60.38"/>
</g>
<!-- Node3 -->
<g id="node3" class="node">
<title>Node3</title>
<g id="a_node3"><a xlink:href="namespacesignal__easel_1_1aprs.html#a77481001a5b78a839972bb4220b43e4d" target="_top" xlink:title=" ">
<polygon fill="none" stroke="black" points="250.5,-127 250.5,-157 354.5,-157 354.5,-127 250.5,-127"/>
<text text-anchor="start" x="258.5" y="-145" font-family="Helvetica,sans-Serif" font-size="10.00">signal_easel::aprs</text>
<text text-anchor="middle" x="302.5" y="-134" font-family="Helvetica,sans-Serif" font-size="10.00">::encodePacket</text>
</a>
</g>
</g>
<!-- Node2&#45;&gt;Node3 -->
<g id="edge2" class="edge">
<title>Node2&#45;&gt;Node3</title>
<path fill="none" stroke="midnightblue" d="M415.62,-142C395.47,-142 373.61,-142 354.6,-142"/>
<polygon fill="midnightblue" stroke="midnightblue" points="415.67,-145.5 425.67,-142 415.67,-138.5 415.67,-145.5"/>
</g>
<!-- Node4 -->
<g id="node4" class="node">
<title>Node4</title>
<g id="a_node4"><a xlink:href="classsignal__easel_1_1aprs_1_1Modulator.html#a8ae067701382dec1680b786583ace687" target="_top" xlink:title=" ">
<polygon fill="none" stroke="black" points="77,-127 77,-157 190,-157 190,-127 77,-127"/>
<text text-anchor="start" x="85" y="-145" font-family="Helvetica,sans-Serif" font-size="10.00">signal_easel::aprs</text>
<text text-anchor="middle" x="133.5" y="-134" font-family="Helvetica,sans-Serif" font-size="10.00">::Modulator::encode</text>
</a>
</g>
</g>
<!-- Node3&#45;&gt;Node4 -->
<g id="edge3" class="edge">
<title>Node3&#45;&gt;Node4</title>
<path fill="none" stroke="midnightblue" d="M240.43,-142C223.98,-142 206.28,-142 190.14,-142"/>
<polygon fill="midnightblue" stroke="midnightblue" points="240.49,-145.5 250.49,-142 240.49,-138.5 240.49,-145.5"/>
</g>
<!-- Node5 -->
<g id="node5" class="node">
<title>Node5</title>
<g id="a_node5"><a xlink:href="aprs__test_8cpp.html#aea66d1824e3f1e27598adf99ac6a089a" target="_top" xlink:title=" ">
<polygon fill="none" stroke="black" points="0,-110.5 0,-129.5 41,-129.5 41,-110.5 0,-110.5"/>
<text text-anchor="middle" x="20.5" y="-117.5" font-family="Helvetica,sans-Serif" font-size="10.00">TEST</text>
</a>
</g>
</g>
<!-- Node4&#45;&gt;Node5 -->
<g id="edge4" class="edge">
<title>Node4&#45;&gt;Node5</title>
<path fill="none" stroke="midnightblue" d="M66.58,-128.93C57.37,-127.11 48.56,-125.36 41.21,-123.91"/>
<polygon fill="midnightblue" stroke="midnightblue" points="66.19,-132.42 76.67,-130.94 67.55,-125.56 66.19,-132.42"/>
</g>
<!-- Node8 -->
<g id="node8" class="node">
<title>Node8</title>
<g id="a_node8"><a xlink:href="classsignal__easel_1_1aprs_1_1Demodulator.html#ae5a8e7634c1bc8d215a0c454a9a737fa" target="_top" xlink:title=" ">
<polygon fill="none" stroke="black" points="226,-33.5 226,-74.5 379,-74.5 379,-33.5 226,-33.5"/>
<text text-anchor="start" x="234" y="-62.5" font-family="Helvetica,sans-Serif" font-size="10.00">signal_easel::aprs</text>
<text text-anchor="start" x="234" y="-51.5" font-family="Helvetica,sans-Serif" font-size="10.00">::Demodulator::lookForAx25</text>
<text text-anchor="middle" x="302.5" y="-40.5" font-family="Helvetica,sans-Serif" font-size="10.00">Packet</text>
</a>
</g>
</g>
<!-- Node7&#45;&gt;Node8 -->
<g id="edge7" class="edge">
<title>Node7&#45;&gt;Node8</title>
<path fill="none" stroke="midnightblue" d="M404.74,-54C396.29,-54 387.68,-54 379.23,-54"/>
<polygon fill="midnightblue" stroke="midnightblue" points="404.97,-57.5 414.97,-54 404.97,-50.5 404.97,-57.5"/>
</g>
<!-- Node8&#45;&gt;Node5 -->
<g id="edge9" class="edge">
<title>Node8&#45;&gt;Node5</title>
<path fill="none" stroke="midnightblue" d="M215.67,-74.23C154.45,-88.66 76.89,-106.94 41.16,-115.37"/>
<polygon fill="midnightblue" stroke="midnightblue" points="216.8,-77.56 225.73,-71.86 215.19,-70.75 216.8,-77.56"/>
</g>
<!-- Node9 -->
<g id="node9" class="node">
<title>Node9</title>
<g id="a_node9"><a xlink:href="classsignal__easel_1_1aprs_1_1Receiver.html#afbf7869aceaf2ea7ab0be8b9af16e818" target="_top" xlink:title=" ">
<polygon fill="none" stroke="black" points="80,-39 80,-69 187,-69 187,-39 80,-39"/>
<text text-anchor="start" x="88" y="-57" font-family="Helvetica,sans-Serif" font-size="10.00">signal_easel::aprs</text>
<text text-anchor="middle" x="133.5" y="-46" font-family="Helvetica,sans-Serif" font-size="10.00">::Receiver::decode</text>
</a>
</g>
</g>
<!-- Node8&#45;&gt;Node9 -->
<g id="edge8" class="edge">
<title>Node8&#45;&gt;Node9</title>
<path fill="none" stroke="midnightblue" d="M215.78,-54C206.13,-54 196.53,-54 187.48,-54"/>
<polygon fill="midnightblue" stroke="midnightblue" points="215.82,-57.5 225.82,-54 215.82,-50.5 215.82,-57.5"/>
</g>
</g>
</svg>
