<?xml version="1.0" encoding="UTF-8" standalone="no"?>
<!DOCTYPE svg PUBLIC "-//W3C//DTD SVG 1.1//EN"
 "http://www.w3.org/Graphics/SVG/1.1/DTD/svg11.dtd">
<!-- Generated by graphviz version 2.43.0 (0)
 -->
<!-- Title: signal_easel::aprs::telemetry::TelemetryTranscoder::decodeParameterCoefficientMessage Pages: 1 -->
<svg width="425pt" height="160pt"
 viewBox="0.00 0.00 425.00 159.50" xmlns="http://www.w3.org/2000/svg" xmlns:xlink="http://www.w3.org/1999/xlink">
<g id="graph0" class="graph" transform="scale(1 1) rotate(0) translate(4 155.5)">
<title>signal_easel::aprs::telemetry::TelemetryTranscoder::decodeParameterCoefficientMessage</title>
<!-- Node1 -->
<g id="node1" class="node">
<title>Node1</title>
<g id="a_node1"><a xlink:title="Decode the parameter coefficients message.">
<polygon fill="#bfbfbf" stroke="black" points="0,-50 0,-91 204,-91 204,-50 0,-50"/>
<text text-anchor="start" x="8" y="-79" font-family="Helvetica,sans-Serif" font-size="10.00">signal_easel::aprs</text>
<text text-anchor="start" x="8" y="-68" font-family="Helvetica,sans-Serif" font-size="10.00">::telemetry::TelemetryTranscoder</text>
<text text-anchor="middle" x="102" y="-57" font-family="Helvetica,sans-Serif" font-size="10.00">::decodeParameterCoefficientMessage</text>
</a>
</g>
</g>
<!-- Node2 -->
<g id="node2" class="node">
<title>Node2</title>
<g id="a_node2"><a xlink:href="classsignal__easel_1_1aprs_1_1telemetry_1_1TelemetryTranscoder.html#a23b19f60f731079282eb88c5ab433579" target="_top" xlink:title="Validate the first few bytes of a message.">
<polygon fill="none" stroke="black" points="240,-110 240,-151 417,-151 417,-110 240,-110"/>
<text text-anchor="start" x="248" y="-139" font-family="Helvetica,sans-Serif" font-size="10.00">signal_easel::aprs</text>
<text text-anchor="start" x="248" y="-128" font-family="Helvetica,sans-Serif" font-size="10.00">::telemetry::TelemetryTranscoder</text>
<text text-anchor="middle" x="328.5" y="-117" font-family="Helvetica,sans-Serif" font-size="10.00">::decodeValidateHeader</text>
</a>
</g>
</g>
<!-- Node1&#45;&gt;Node2 -->
<g id="edge1" class="edge">
<title>Node1&#45;&gt;Node2</title>
<path fill="none" stroke="midnightblue" d="M179.95,-91.06C199.58,-96.31 220.82,-101.99 240.9,-107.36"/>
<polygon fill="midnightblue" stroke="midnightblue" points="240.09,-110.76 250.65,-109.96 241.9,-104 240.09,-110.76"/>
</g>
<!-- Node3 -->
<g id="node3" class="node">
<title>Node3</title>
<g id="a_node3"><a xlink:href="classsignal__easel_1_1aprs_1_1telemetry_1_1TelemetryData.html#a953b60ecf9067ab71e13de6fdfdcfeec" target="_top" xlink:title=" ">
<polygon fill="none" stroke="black" points="254.5,-50 254.5,-91 402.5,-91 402.5,-50 254.5,-50"/>
<text text-anchor="start" x="262.5" y="-79" font-family="Helvetica,sans-Serif" font-size="10.00">signal_easel::aprs</text>
<text text-anchor="start" x="262.5" y="-68" font-family="Helvetica,sans-Serif" font-size="10.00">::telemetry::TelemetryData</text>
<text text-anchor="middle" x="328.5" y="-57" font-family="Helvetica,sans-Serif" font-size="10.00">::getAnalogParameters</text>
</a>
</g>
</g>
<!-- Node1&#45;&gt;Node3 -->
<g id="edge2" class="edge">
<title>Node1&#45;&gt;Node3</title>
<path fill="none" stroke="midnightblue" d="M204.09,-70.5C217.4,-70.5 230.93,-70.5 243.91,-70.5"/>
<polygon fill="midnightblue" stroke="midnightblue" points="244.19,-74 254.19,-70.5 244.19,-67 244.19,-74"/>
</g>
<!-- Node4 -->
<g id="node4" class="node">
<title>Node4</title>
<g id="a_node4"><a xlink:href="namespacesignal__easel_1_1aprs_1_1telemetry.html#a06228386caafe56440016944e280b484" target="_top" xlink:title="Validate the format of a coefficient.">
<polygon fill="none" stroke="black" points="244.5,-0.5 244.5,-30.5 412.5,-30.5 412.5,-0.5 244.5,-0.5"/>
<text text-anchor="start" x="252.5" y="-18.5" font-family="Helvetica,sans-Serif" font-size="10.00">signal_easel::aprs</text>
<text text-anchor="middle" x="328.5" y="-7.5" font-family="Helvetica,sans-Serif" font-size="10.00">::telemetry::validateCoefficient</text>
</a>
</g>
</g>
<!-- Node1&#45;&gt;Node4 -->
<g id="edge3" class="edge">
<title>Node1&#45;&gt;Node4</title>
<path fill="none" stroke="midnightblue" d="M186.91,-49.94C209.7,-44.36 234.16,-38.37 256.18,-32.97"/>
<polygon fill="midnightblue" stroke="midnightblue" points="257.23,-36.32 266.11,-30.54 255.57,-29.52 257.23,-36.32"/>
</g>
</g>
</svg>
