<?xml version="1.0" encoding="UTF-8" standalone="no"?>
<!DOCTYPE svg PUBLIC "-//W3C//DTD SVG 1.1//EN"
 "http://www.w3.org/Graphics/SVG/1.1/DTD/svg11.dtd">
<!-- Generated by graphviz version 2.43.0 (0)
 -->
<!-- Title: signal_easel::Exception Pages: 1 -->
<svg width="266pt" height="193pt"
 viewBox="0.00 0.00 265.50 193.00" xmlns="http://www.w3.org/2000/svg" xmlns:xlink="http://www.w3.org/1999/xlink">
<g id="graph0" class="graph" transform="scale(1 1) rotate(0) translate(4 189)">
<title>signal_easel::Exception</title>
<!-- Node1 -->
<g id="node1" class="node">
<title>Node1</title>
<g id="a_node1"><a xlink:title=" ">
<polygon fill="#bfbfbf" stroke="black" points="60.5,-0.5 60.5,-79.5 191.5,-79.5 191.5,-0.5 60.5,-0.5"/>
<text text-anchor="middle" x="126" y="-67.5" font-family="Helvetica,sans-Serif" font-size="10.00">signal_easel::Exception</text>
<polyline fill="none" stroke="black" points="60.5,-60.5 191.5,-60.5 "/>
<text text-anchor="middle" x="126" y="-48.5" font-family="Helvetica,sans-Serif" font-size="10.00"> </text>
<polyline fill="none" stroke="black" points="60.5,-41.5 191.5,-41.5 "/>
<text text-anchor="start" x="68.5" y="-29.5" font-family="Helvetica,sans-Serif" font-size="10.00">+ Exception()</text>
<text text-anchor="start" x="68.5" y="-18.5" font-family="Helvetica,sans-Serif" font-size="10.00">+ what()</text>
<text text-anchor="start" x="68.5" y="-7.5" font-family="Helvetica,sans-Serif" font-size="10.00">+ idToString()</text>
</a>
</g>
</g>
<!-- Node2 -->
<g id="node2" class="node">
<title>Node2</title>
<g id="a_node2"><a xlink:title=" ">
<polygon fill="none" stroke="#bfbfbf" points="0,-127.5 0,-184.5 86,-184.5 86,-127.5 0,-127.5"/>
<text text-anchor="middle" x="43" y="-172.5" font-family="Helvetica,sans-Serif" font-size="10.00">std::exception</text>
<polyline fill="none" stroke="#bfbfbf" points="0,-165.5 86,-165.5 "/>
<text text-anchor="middle" x="43" y="-153.5" font-family="Helvetica,sans-Serif" font-size="10.00"> </text>
<polyline fill="none" stroke="#bfbfbf" points="0,-146.5 86,-146.5 "/>
<text text-anchor="middle" x="43" y="-134.5" font-family="Helvetica,sans-Serif" font-size="10.00"> </text>
</a>
</g>
</g>
<!-- Node2&#45;&gt;Node1 -->
<g id="edge1" class="edge">
<title>Node2&#45;&gt;Node1</title>
<path fill="none" stroke="midnightblue" d="M69.21,-119C78.36,-106.44 88.65,-92.3 97.94,-79.54"/>
<polygon fill="none" stroke="midnightblue" points="66.15,-117.26 63.09,-127.4 71.81,-121.38 66.15,-117.26"/>
</g>
<!-- Node3 -->
<g id="node3" class="node">
<title>Node3</title>
<g id="a_node3"><a xlink:title=" ">
<polygon fill="none" stroke="#bfbfbf" points="104,-127.5 104,-184.5 148,-184.5 148,-127.5 104,-127.5"/>
<text text-anchor="middle" x="126" y="-172.5" font-family="Helvetica,sans-Serif" font-size="10.00">string</text>
<polyline fill="none" stroke="#bfbfbf" points="104,-165.5 148,-165.5 "/>
<text text-anchor="middle" x="126" y="-153.5" font-family="Helvetica,sans-Serif" font-size="10.00"> </text>
<polyline fill="none" stroke="#bfbfbf" points="104,-146.5 148,-146.5 "/>
<text text-anchor="middle" x="126" y="-134.5" font-family="Helvetica,sans-Serif" font-size="10.00"> </text>
</a>
</g>
</g>
<!-- Node3&#45;&gt;Node1 -->
<g id="edge2" class="edge">
<title>Node3&#45;&gt;Node1</title>
<path fill="none" stroke="#404040" d="M126,-127.4C126,-116.63 126,-103.93 126,-91.62"/>
<polygon fill="none" stroke="#404040" points="126,-91.54 122,-85.54 126,-79.54 130,-85.54 126,-91.54"/>
<text text-anchor="middle" x="173" y="-101" font-family="Helvetica,sans-Serif" font-size="10.00"> &#45;exception_string_</text>
</g>
<!-- Node4 -->
<g id="node4" class="node">
<title>Node4</title>
<g id="a_node4"><a xlink:title=" ">
<polygon fill="none" stroke="#bfbfbf" points="228.5,-127.5 228.5,-184.5 257.5,-184.5 257.5,-127.5 228.5,-127.5"/>
<text text-anchor="middle" x="243" y="-172.5" font-family="Helvetica,sans-Serif" font-size="10.00">Id</text>
<polyline fill="none" stroke="#bfbfbf" points="228.5,-165.5 257.5,-165.5 "/>
<text text-anchor="middle" x="243" y="-153.5" font-family="Helvetica,sans-Serif" font-size="10.00"> </text>
<polyline fill="none" stroke="#bfbfbf" points="228.5,-146.5 257.5,-146.5 "/>
<text text-anchor="middle" x="243" y="-134.5" font-family="Helvetica,sans-Serif" font-size="10.00"> </text>
</a>
</g>
</g>
<!-- Node4&#45;&gt;Node1 -->
<g id="edge3" class="edge">
<title>Node4&#45;&gt;Node1</title>
<path fill="none" stroke="#404040" d="M236.35,-127.22C232.97,-117.22 228.03,-106.36 221,-98 215.38,-91.32 208.77,-85.22 201.7,-79.7"/>
<polygon fill="none" stroke="#404040" points="201.52,-79.58 194.32,-79.29 191.81,-72.53 199.01,-72.82 201.52,-79.58"/>
<text text-anchor="middle" x="239" y="-101" font-family="Helvetica,sans-Serif" font-size="10.00"> &#45;id_</text>
</g>
</g>
</svg>
