<?xml version="1.0" encoding="UTF-8" standalone="no"?>
<!DOCTYPE svg PUBLIC "-//W3C//DTD SVG 1.1//EN"
 "http://www.w3.org/Graphics/SVG/1.1/DTD/svg11.dtd">
<!-- Generated by graphviz version 2.43.0 (0)
 -->
<!-- Title: signal_easel::aprs::Demodulator::parsePositionPacket Pages: 1 -->
<svg width="497pt" height="88pt"
 viewBox="0.00 0.00 497.00 88.00" xmlns="http://www.w3.org/2000/svg" xmlns:xlink="http://www.w3.org/1999/xlink">
<g id="graph0" class="graph" transform="scale(1 1) rotate(0) translate(4 84)">
<title>signal_easel::aprs::Demodulator::parsePositionPacket</title>
<!-- Node1 -->
<g id="node1" class="node">
<title>Node1</title>
<g id="a_node1"><a xlink:title="If the packet was a position packet, this function will try to parse the packet into it&#39;s positional ...">
<polygon fill="#bfbfbf" stroke="black" points="331,-13.5 331,-54.5 489,-54.5 489,-13.5 331,-13.5"/>
<text text-anchor="start" x="339" y="-42.5" font-family="Helvetica,sans-Serif" font-size="10.00">signal_easel::aprs</text>
<text text-anchor="start" x="339" y="-31.5" font-family="Helvetica,sans-Serif" font-size="10.00">::Demodulator::parsePosition</text>
<text text-anchor="middle" x="410" y="-20.5" font-family="Helvetica,sans-Serif" font-size="10.00">Packet</text>
</a>
</g>
</g>
<!-- Node2 -->
<g id="node2" class="node">
<title>Node2</title>
<g id="a_node2"><a xlink:href="classsignal__easel_1_1aprs_1_1Receiver.html#adc3c303795edba521a1e55e454ba610d" target="_top" xlink:title="Categorises and stores a frame that has already been parsed by aprs_demodulator_ (i....">
<polygon fill="none" stroke="black" points="143,-38.5 143,-79.5 295,-79.5 295,-38.5 143,-38.5"/>
<text text-anchor="start" x="151" y="-67.5" font-family="Helvetica,sans-Serif" font-size="10.00">signal_easel::aprs</text>
<text text-anchor="start" x="151" y="-56.5" font-family="Helvetica,sans-Serif" font-size="10.00">::Receiver::processDecoded</text>
<text text-anchor="middle" x="219" y="-45.5" font-family="Helvetica,sans-Serif" font-size="10.00">Frame</text>
</a>
</g>
</g>
<!-- Node1&#45;&gt;Node2 -->
<g id="edge1" class="edge">
<title>Node1&#45;&gt;Node2</title>
<path fill="none" stroke="midnightblue" d="M320.76,-45.67C312.19,-46.81 303.56,-47.95 295.14,-49.06"/>
<polygon fill="midnightblue" stroke="midnightblue" points="321.31,-49.13 330.76,-44.35 320.39,-42.19 321.31,-49.13"/>
</g>
<!-- Node4 -->
<g id="node4" class="node">
<title>Node4</title>
<g id="a_node4"><a xlink:href="aprs__test_8cpp.html#a8f1884a85326fa2424719d09dd551947" target="_top" xlink:title=" ">
<polygon fill="none" stroke="black" points="198.5,-0.5 198.5,-19.5 239.5,-19.5 239.5,-0.5 198.5,-0.5"/>
<text text-anchor="middle" x="219" y="-7.5" font-family="Helvetica,sans-Serif" font-size="10.00">TEST</text>
</a>
</g>
</g>
<!-- Node1&#45;&gt;Node4 -->
<g id="edge3" class="edge">
<title>Node1&#45;&gt;Node4</title>
<path fill="none" stroke="midnightblue" d="M320.55,-22.77C290.27,-18.92 259.17,-14.97 239.73,-12.51"/>
<polygon fill="midnightblue" stroke="midnightblue" points="320.4,-26.28 330.76,-24.07 321.28,-19.33 320.4,-26.28"/>
</g>
<!-- Node3 -->
<g id="node3" class="node">
<title>Node3</title>
<g id="a_node3"><a xlink:href="classsignal__easel_1_1aprs_1_1Receiver.html#afbf7869aceaf2ea7ab0be8b9af16e818" target="_top" xlink:title=" ">
<polygon fill="none" stroke="black" points="0,-44 0,-74 107,-74 107,-44 0,-44"/>
<text text-anchor="start" x="8" y="-62" font-family="Helvetica,sans-Serif" font-size="10.00">signal_easel::aprs</text>
<text text-anchor="middle" x="53.5" y="-51" font-family="Helvetica,sans-Serif" font-size="10.00">::Receiver::decode</text>
</a>
</g>
</g>
<!-- Node2&#45;&gt;Node3 -->
<g id="edge2" class="edge">
<title>Node2&#45;&gt;Node3</title>
<path fill="none" stroke="midnightblue" d="M132.73,-59C124.02,-59 115.37,-59 107.16,-59"/>
<polygon fill="midnightblue" stroke="midnightblue" points="132.95,-62.5 142.95,-59 132.95,-55.5 132.95,-62.5"/>
</g>
</g>
</svg>
