<?xml version="1.0" encoding="UTF-8" standalone="no"?>
<!DOCTYPE svg PUBLIC "-//W3C//DTD SVG 1.1//EN"
 "http://www.w3.org/Graphics/SVG/1.1/DTD/svg11.dtd">
<!-- Generated by graphviz version 2.43.0 (0)
 -->
<!-- Title: signal_easel::BitStream::addBits Pages: 1 -->
<svg width="972pt" height="109pt"
 viewBox="0.00 0.00 972.00 109.32" xmlns="http://www.w3.org/2000/svg" xmlns:xlink="http://www.w3.org/1999/xlink">
<g id="graph0" class="graph" transform="scale(1 1) rotate(0) translate(4 105.32)">
<title>signal_easel::BitStream::addBits</title>
<!-- Node1 -->
<g id="node1" class="node">
<title>Node1</title>
<g id="a_node1"><a xlink:title=" ">
<polygon fill="#bfbfbf" stroke="black" points="832,-15.32 832,-45.32 964,-45.32 964,-15.32 832,-15.32"/>
<text text-anchor="start" x="840" y="-33.32" font-family="Helvetica,sans-Serif" font-size="10.00">signal_easel::BitStream</text>
<text text-anchor="middle" x="898" y="-22.32" font-family="Helvetica,sans-Serif" font-size="10.00">::addBits</text>
</a>
</g>
</g>
<!-- Node2 -->
<g id="node2" class="node">
<title>Node2</title>
<g id="a_node2"><a xlink:href="classsignal__easel_1_1BitStream.html#a81d4aea4c11f65e0c2b7ad2f0f0cc312" target="_top" xlink:title=" ">
<polygon fill="none" stroke="black" points="664,-15.32 664,-45.32 796,-45.32 796,-15.32 664,-15.32"/>
<text text-anchor="start" x="672" y="-33.32" font-family="Helvetica,sans-Serif" font-size="10.00">signal_easel::BitStream</text>
<text text-anchor="middle" x="730" y="-22.32" font-family="Helvetica,sans-Serif" font-size="10.00">::addOneBit</text>
</a>
</g>
</g>
<!-- Node1&#45;&gt;Node2 -->
<g id="edge1" class="edge">
<title>Node1&#45;&gt;Node2</title>
<path fill="none" stroke="midnightblue" d="M821.61,-30.32C813.13,-30.32 804.55,-30.32 796.22,-30.32"/>
<polygon fill="midnightblue" stroke="midnightblue" points="821.87,-33.82 831.87,-30.32 821.87,-26.82 821.87,-33.82"/>
</g>
<!-- Node8 -->
<g id="node8" class="node">
<title>Node8</title>
<g id="a_node8"><a xlink:href="classsignal__easel_1_1ax25_1_1Frame.html#a2b4f6ebcb7592a7e5a21114c8fafa503" target="_top" xlink:title="A step beyond buildFrame. This function builds the frame, does the bit stuffing, adds the flags,...">
<polygon fill="none" stroke="black" points="503,-14.32 503,-44.32 628,-44.32 628,-14.32 503,-14.32"/>
<text text-anchor="start" x="511" y="-32.32" font-family="Helvetica,sans-Serif" font-size="10.00">signal_easel::ax25</text>
<text text-anchor="middle" x="565.5" y="-21.32" font-family="Helvetica,sans-Serif" font-size="10.00">::Frame::encodeFrame</text>
</a>
</g>
</g>
<!-- Node1&#45;&gt;Node8 -->
<g id="edge14" class="edge">
<title>Node1&#45;&gt;Node8</title>
<path fill="none" stroke="midnightblue" d="M836.62,-12.84C823.35,-9.71 809.29,-6.94 796,-5.32 737.76,1.78 722.24,1.75 664,-5.32 648.77,-7.16 632.49,-10.58 617.68,-14.26"/>
<polygon fill="midnightblue" stroke="midnightblue" points="836.04,-16.3 846.59,-15.29 837.71,-9.51 836.04,-16.3"/>
</g>
<!-- Node11 -->
<g id="node11" class="node">
<title>Node11</title>
<g id="a_node11"><a xlink:href="classsignal__easel_1_1BitStream.html#abb315beec8c4d88115d9d4ec5f082863" target="_top" xlink:title=" ">
<polygon fill="none" stroke="black" points="664,-64.32 664,-94.32 796,-94.32 796,-64.32 664,-64.32"/>
<text text-anchor="start" x="672" y="-82.32" font-family="Helvetica,sans-Serif" font-size="10.00">signal_easel::BitStream</text>
<text text-anchor="middle" x="730" y="-71.32" font-family="Helvetica,sans-Serif" font-size="10.00">::addZeroBit</text>
</a>
</g>
</g>
<!-- Node1&#45;&gt;Node11 -->
<g id="edge11" class="edge">
<title>Node1&#45;&gt;Node11</title>
<path fill="none" stroke="midnightblue" d="M836.13,-48.28C818.35,-53.53 799.1,-59.21 781.99,-64.26"/>
<polygon fill="midnightblue" stroke="midnightblue" points="837.24,-51.61 845.84,-45.42 835.26,-44.89 837.24,-51.61"/>
</g>
<!-- Node3 -->
<g id="node3" class="node">
<title>Node3</title>
<g id="a_node3"><a xlink:href="namespacesignal__easel_1_1ax25.html#a84e1d1bf82ef828a150bc94cf065e396" target="_top" xlink:title="Convert a bit stream from NRZI to standard encoding.">
<polygon fill="none" stroke="black" points="512,-64.32 512,-94.32 619,-94.32 619,-64.32 512,-64.32"/>
<text text-anchor="start" x="520" y="-82.32" font-family="Helvetica,sans-Serif" font-size="10.00">signal_easel::ax25</text>
<text text-anchor="middle" x="565.5" y="-71.32" font-family="Helvetica,sans-Serif" font-size="10.00">::decodeNrzi</text>
</a>
</g>
</g>
<!-- Node2&#45;&gt;Node3 -->
<g id="edge2" class="edge">
<title>Node2&#45;&gt;Node3</title>
<path fill="none" stroke="midnightblue" d="M668.93,-48.43C651.66,-53.64 633.01,-59.26 616.42,-64.26"/>
<polygon fill="midnightblue" stroke="midnightblue" points="670.35,-51.66 678.92,-45.42 668.33,-44.95 670.35,-51.66"/>
</g>
<!-- Node2&#45;&gt;Node8 -->
<g id="edge7" class="edge">
<title>Node2&#45;&gt;Node8</title>
<path fill="none" stroke="midnightblue" d="M653.57,-29.85C645.09,-29.8 636.52,-29.75 628.24,-29.7"/>
<polygon fill="midnightblue" stroke="midnightblue" points="653.82,-33.35 663.84,-29.91 653.86,-26.35 653.82,-33.35"/>
</g>
<!-- Node4 -->
<g id="node4" class="node">
<title>Node4</title>
<g id="a_node4"><a xlink:href="classsignal__easel_1_1ax25_1_1Frame.html#a63cf2362c2a90d20f09bbbc4f24a07ba" target="_top" xlink:title="Attempt to parse an incoming bit stream into an AX.25 frame.">
<polygon fill="none" stroke="black" points="332,-64.32 332,-94.32 467,-94.32 467,-64.32 332,-64.32"/>
<text text-anchor="start" x="340" y="-82.32" font-family="Helvetica,sans-Serif" font-size="10.00">signal_easel::ax25</text>
<text text-anchor="middle" x="399.5" y="-71.32" font-family="Helvetica,sans-Serif" font-size="10.00">::Frame::parseBitStream</text>
</a>
</g>
</g>
<!-- Node3&#45;&gt;Node4 -->
<g id="edge3" class="edge">
<title>Node3&#45;&gt;Node4</title>
<path fill="none" stroke="midnightblue" d="M501.5,-79.32C490.21,-79.32 478.4,-79.32 467.01,-79.32"/>
<polygon fill="midnightblue" stroke="midnightblue" points="501.71,-82.82 511.71,-79.32 501.71,-75.82 501.71,-82.82"/>
</g>
<!-- Node5 -->
<g id="node5" class="node">
<title>Node5</title>
<g id="a_node5"><a xlink:href="classsignal__easel_1_1aprs_1_1Demodulator.html#ae5a8e7634c1bc8d215a0c454a9a737fa" target="_top" xlink:title=" ">
<polygon fill="none" stroke="black" points="143,-59.82 143,-100.82 296,-100.82 296,-59.82 143,-59.82"/>
<text text-anchor="start" x="151" y="-88.82" font-family="Helvetica,sans-Serif" font-size="10.00">signal_easel::aprs</text>
<text text-anchor="start" x="151" y="-77.82" font-family="Helvetica,sans-Serif" font-size="10.00">::Demodulator::lookForAx25</text>
<text text-anchor="middle" x="219.5" y="-66.82" font-family="Helvetica,sans-Serif" font-size="10.00">Packet</text>
</a>
</g>
</g>
<!-- Node4&#45;&gt;Node5 -->
<g id="edge4" class="edge">
<title>Node4&#45;&gt;Node5</title>
<path fill="none" stroke="midnightblue" d="M321.74,-79.75C313.29,-79.79 304.68,-79.84 296.23,-79.89"/>
<polygon fill="midnightblue" stroke="midnightblue" points="321.99,-83.25 331.97,-79.69 321.95,-76.25 321.99,-83.25"/>
</g>
<!-- Node6 -->
<g id="node6" class="node">
<title>Node6</title>
<g id="a_node6"><a xlink:href="classsignal__easel_1_1aprs_1_1Receiver.html#afbf7869aceaf2ea7ab0be8b9af16e818" target="_top" xlink:title=" ">
<polygon fill="none" stroke="black" points="0,-65.32 0,-95.32 107,-95.32 107,-65.32 0,-65.32"/>
<text text-anchor="start" x="8" y="-83.32" font-family="Helvetica,sans-Serif" font-size="10.00">signal_easel::aprs</text>
<text text-anchor="middle" x="53.5" y="-72.32" font-family="Helvetica,sans-Serif" font-size="10.00">::Receiver::decode</text>
</a>
</g>
</g>
<!-- Node5&#45;&gt;Node6 -->
<g id="edge5" class="edge">
<title>Node5&#45;&gt;Node6</title>
<path fill="none" stroke="midnightblue" d="M132.67,-80.32C124.09,-80.32 115.56,-80.32 107.47,-80.32"/>
<polygon fill="midnightblue" stroke="midnightblue" points="132.74,-83.82 142.74,-80.32 132.74,-76.82 132.74,-83.82"/>
</g>
<!-- Node7 -->
<g id="node7" class="node">
<title>Node7</title>
<g id="a_node7"><a xlink:href="aprs__test_8cpp.html#aea66d1824e3f1e27598adf99ac6a089a" target="_top" xlink:title=" ">
<polygon fill="none" stroke="black" points="33,-21.82 33,-40.82 74,-40.82 74,-21.82 33,-21.82"/>
<text text-anchor="middle" x="53.5" y="-28.82" font-family="Helvetica,sans-Serif" font-size="10.00">TEST</text>
</a>
</g>
</g>
<!-- Node5&#45;&gt;Node7 -->
<g id="edge6" class="edge">
<title>Node5&#45;&gt;Node7</title>
<path fill="none" stroke="midnightblue" d="M139.76,-56.79C115.4,-49.51 90.65,-42.12 74.13,-37.18"/>
<polygon fill="midnightblue" stroke="midnightblue" points="138.84,-60.17 149.42,-59.68 140.85,-53.46 138.84,-60.17"/>
</g>
<!-- Node9 -->
<g id="node9" class="node">
<title>Node9</title>
<g id="a_node9"><a xlink:href="namespacesignal__easel_1_1aprs.html#a77481001a5b78a839972bb4220b43e4d" target="_top" xlink:title=" ">
<polygon fill="none" stroke="black" points="347.5,-11.32 347.5,-41.32 451.5,-41.32 451.5,-11.32 347.5,-11.32"/>
<text text-anchor="start" x="355.5" y="-29.32" font-family="Helvetica,sans-Serif" font-size="10.00">signal_easel::aprs</text>
<text text-anchor="middle" x="399.5" y="-18.32" font-family="Helvetica,sans-Serif" font-size="10.00">::encodePacket</text>
</a>
</g>
</g>
<!-- Node8&#45;&gt;Node9 -->
<g id="edge8" class="edge">
<title>Node8&#45;&gt;Node9</title>
<path fill="none" stroke="midnightblue" d="M492.94,-28.01C479.04,-27.75 464.74,-27.49 451.66,-27.25"/>
<polygon fill="midnightblue" stroke="midnightblue" points="492.9,-31.51 502.97,-28.19 493.03,-24.51 492.9,-31.51"/>
</g>
<!-- Node10 -->
<g id="node10" class="node">
<title>Node10</title>
<g id="a_node10"><a xlink:href="classsignal__easel_1_1aprs_1_1Modulator.html#a8ae067701382dec1680b786583ace687" target="_top" xlink:title=" ">
<polygon fill="none" stroke="black" points="163,-10.32 163,-40.32 276,-40.32 276,-10.32 163,-10.32"/>
<text text-anchor="start" x="171" y="-28.32" font-family="Helvetica,sans-Serif" font-size="10.00">signal_easel::aprs</text>
<text text-anchor="middle" x="219.5" y="-17.32" font-family="Helvetica,sans-Serif" font-size="10.00">::Modulator::encode</text>
</a>
</g>
</g>
<!-- Node9&#45;&gt;Node10 -->
<g id="edge9" class="edge">
<title>Node9&#45;&gt;Node10</title>
<path fill="none" stroke="midnightblue" d="M337.33,-25.97C317.49,-25.86 295.61,-25.74 276.19,-25.63"/>
<polygon fill="midnightblue" stroke="midnightblue" points="337.47,-29.47 347.49,-26.03 337.51,-22.47 337.47,-29.47"/>
</g>
<!-- Node10&#45;&gt;Node7 -->
<g id="edge10" class="edge">
<title>Node10&#45;&gt;Node7</title>
<path fill="none" stroke="midnightblue" d="M152.74,-27.72C124.56,-28.75 93.72,-29.88 74.25,-30.59"/>
<polygon fill="midnightblue" stroke="midnightblue" points="153.11,-31.21 162.98,-27.35 152.86,-24.22 153.11,-31.21"/>
</g>
<!-- Node11&#45;&gt;Node3 -->
<g id="edge12" class="edge">
<title>Node11&#45;&gt;Node3</title>
<path fill="none" stroke="midnightblue" d="M653.67,-79.32C642.02,-79.32 630.2,-79.32 619.19,-79.32"/>
<polygon fill="midnightblue" stroke="midnightblue" points="653.84,-82.82 663.84,-79.32 653.84,-75.82 653.84,-82.82"/>
</g>
<!-- Node11&#45;&gt;Node8 -->
<g id="edge13" class="edge">
<title>Node11&#45;&gt;Node8</title>
<path fill="none" stroke="midnightblue" d="M670.43,-61.29C652.42,-55.75 632.8,-49.72 615.5,-44.39"/>
<polygon fill="midnightblue" stroke="midnightblue" points="669.66,-64.72 680.24,-64.31 671.72,-58.03 669.66,-64.72"/>
</g>
</g>
</svg>
