<?xml version="1.0" encoding="UTF-8" standalone="no"?>
<!DOCTYPE svg PUBLIC "-//W3C//DTD SVG 1.1//EN"
 "http://www.w3.org/Graphics/SVG/1.1/DTD/svg11.dtd">
<!-- Generated by graphviz version 2.43.0 (0)
 -->
<!-- Title: signal_easel::BitStream::addBits Pages: 1 -->
<svg width="924pt" height="243pt"
 viewBox="0.00 0.00 924.00 243.42" xmlns="http://www.w3.org/2000/svg" xmlns:xlink="http://www.w3.org/1999/xlink">
<g id="graph0" class="graph" transform="scale(1 1) rotate(0) translate(4 239.42)">
<title>signal_easel::BitStream::addBits</title>
<!-- Node1 -->
<g id="node1" class="node">
<title>Node1</title>
<g id="a_node1"><a xlink:title=" ">
<polygon fill="#bfbfbf" stroke="black" points="784,-102.5 784,-132.5 916,-132.5 916,-102.5 784,-102.5"/>
<text text-anchor="start" x="792" y="-120.5" font-family="Helvetica,sans-Serif" font-size="10.00">signal_easel::BitStream</text>
<text text-anchor="middle" x="850" y="-109.5" font-family="Helvetica,sans-Serif" font-size="10.00">::addBits</text>
</a>
</g>
</g>
<!-- Node2 -->
<g id="node2" class="node">
<title>Node2</title>
<g id="a_node2"><a xlink:href="classsignal__easel_1_1BitStream.html#a81d4aea4c11f65e0c2b7ad2f0f0cc312" target="_top" xlink:title=" ">
<polygon fill="none" stroke="black" points="616,-53.5 616,-83.5 748,-83.5 748,-53.5 616,-53.5"/>
<text text-anchor="start" x="624" y="-71.5" font-family="Helvetica,sans-Serif" font-size="10.00">signal_easel::BitStream</text>
<text text-anchor="middle" x="682" y="-60.5" font-family="Helvetica,sans-Serif" font-size="10.00">::addOneBit</text>
</a>
</g>
</g>
<!-- Node1&#45;&gt;Node2 -->
<g id="edge1" class="edge">
<title>Node1&#45;&gt;Node2</title>
<path fill="none" stroke="midnightblue" d="M788.13,-99.53C770.35,-94.28 751.1,-88.6 733.99,-83.55"/>
<polygon fill="midnightblue" stroke="midnightblue" points="787.26,-102.92 797.84,-102.4 789.24,-96.21 787.26,-102.92"/>
</g>
<!-- Node4 -->
<g id="node4" class="node">
<title>Node4</title>
<g id="a_node4"><a xlink:href="classsignal__easel_1_1psk_1_1Modulator.html#acd4a6a5bac7af1c62ffaaa0ff1d9259f" target="_top" xlink:title=" ">
<polygon fill="none" stroke="black" points="266,-173.5 266,-203.5 402,-203.5 402,-173.5 266,-173.5"/>
<text text-anchor="start" x="274" y="-191.5" font-family="Helvetica,sans-Serif" font-size="10.00">signal_easel::psk::</text>
<text text-anchor="middle" x="334" y="-180.5" font-family="Helvetica,sans-Serif" font-size="10.00">Modulator::encodeString</text>
</a>
</g>
</g>
<!-- Node1&#45;&gt;Node4 -->
<g id="edge23" class="edge">
<title>Node1&#45;&gt;Node4</title>
<path fill="none" stroke="midnightblue" d="M832.2,-140.87C814.29,-163.57 783.64,-196.59 748,-210.5 623.75,-258.99 462.38,-225.53 383.16,-203.52"/>
<polygon fill="midnightblue" stroke="midnightblue" points="835.12,-142.8 838.42,-132.73 829.57,-138.55 835.12,-142.8"/>
</g>
<!-- Node11 -->
<g id="node11" class="node">
<title>Node11</title>
<g id="a_node11"><a xlink:href="classsignal__easel_1_1ax25_1_1Frame.html#a2b4f6ebcb7592a7e5a21114c8fafa503" target="_top" xlink:title="A step beyond buildFrame. This function builds the frame, does the bit stuffing, adds the flags,...">
<polygon fill="none" stroke="black" points="446.5,-4.5 446.5,-34.5 571.5,-34.5 571.5,-4.5 446.5,-4.5"/>
<text text-anchor="start" x="454.5" y="-22.5" font-family="Helvetica,sans-Serif" font-size="10.00">signal_easel::ax25</text>
<text text-anchor="middle" x="509" y="-11.5" font-family="Helvetica,sans-Serif" font-size="10.00">::Frame::encodeFrame</text>
</a>
</g>
</g>
<!-- Node1&#45;&gt;Node11 -->
<g id="edge22" class="edge">
<title>Node1&#45;&gt;Node11</title>
<path fill="none" stroke="midnightblue" d="M826.23,-95.21C807.05,-77.92 778.01,-55.02 748,-43.5 691,-21.63 620.99,-16.96 571.7,-16.95"/>
<polygon fill="midnightblue" stroke="midnightblue" points="824.1,-98.01 833.82,-102.23 828.85,-92.87 824.1,-98.01"/>
</g>
<!-- Node14 -->
<g id="node14" class="node">
<title>Node14</title>
<g id="a_node14"><a xlink:href="classsignal__easel_1_1psk_1_1Modulator.html#aa18265ffb20963bce90f935ae12913bf" target="_top" xlink:title=" ">
<polygon fill="none" stroke="black" points="616,-170.5 616,-200.5 748,-200.5 748,-170.5 616,-170.5"/>
<text text-anchor="start" x="624" y="-188.5" font-family="Helvetica,sans-Serif" font-size="10.00">signal_easel::psk::</text>
<text text-anchor="middle" x="682" y="-177.5" font-family="Helvetica,sans-Serif" font-size="10.00">Modulator::addVaricode</text>
</a>
</g>
</g>
<!-- Node1&#45;&gt;Node14 -->
<g id="edge14" class="edge">
<title>Node1&#45;&gt;Node14</title>
<path fill="none" stroke="midnightblue" d="M802.8,-136.42C776.58,-147.17 744.22,-160.42 719.74,-170.45"/>
<polygon fill="midnightblue" stroke="midnightblue" points="804.23,-139.62 812.16,-132.59 801.58,-133.14 804.23,-139.62"/>
</g>
<!-- Node15 -->
<g id="node15" class="node">
<title>Node15</title>
<g id="a_node15"><a xlink:href="classsignal__easel_1_1BitStream.html#abb315beec8c4d88115d9d4ec5f082863" target="_top" xlink:title=" ">
<polygon fill="none" stroke="black" points="616,-102.5 616,-132.5 748,-132.5 748,-102.5 616,-102.5"/>
<text text-anchor="start" x="624" y="-120.5" font-family="Helvetica,sans-Serif" font-size="10.00">signal_easel::BitStream</text>
<text text-anchor="middle" x="682" y="-109.5" font-family="Helvetica,sans-Serif" font-size="10.00">::addZeroBit</text>
</a>
</g>
</g>
<!-- Node1&#45;&gt;Node15 -->
<g id="edge16" class="edge">
<title>Node1&#45;&gt;Node15</title>
<path fill="none" stroke="midnightblue" d="M773.61,-117.5C765.13,-117.5 756.55,-117.5 748.22,-117.5"/>
<polygon fill="midnightblue" stroke="midnightblue" points="773.87,-121 783.87,-117.5 773.87,-114 773.87,-121"/>
</g>
<!-- Node3 -->
<g id="node3" class="node">
<title>Node3</title>
<g id="a_node3"><a xlink:href="classsignal__easel_1_1psk_1_1Modulator.html#ad465eb5c136ada635cd01cdceb1dc402" target="_top" xlink:title=" ">
<polygon fill="none" stroke="black" points="438,-102.5 438,-132.5 580,-132.5 580,-102.5 438,-102.5"/>
<text text-anchor="start" x="446" y="-120.5" font-family="Helvetica,sans-Serif" font-size="10.00">signal_easel::psk::</text>
<text text-anchor="middle" x="509" y="-109.5" font-family="Helvetica,sans-Serif" font-size="10.00">Modulator::addPostamble</text>
</a>
</g>
</g>
<!-- Node2&#45;&gt;Node3 -->
<g id="edge2" class="edge">
<title>Node2&#45;&gt;Node3</title>
<path fill="none" stroke="midnightblue" d="M618.55,-86.39C600.16,-91.66 580.23,-97.38 562.53,-102.45"/>
<polygon fill="midnightblue" stroke="midnightblue" points="619.65,-89.72 628.3,-83.6 617.72,-82.99 619.65,-89.72"/>
</g>
<!-- Node6 -->
<g id="node6" class="node">
<title>Node6</title>
<g id="a_node6"><a xlink:href="namespacesignal__easel_1_1ax25.html#a84e1d1bf82ef828a150bc94cf065e396" target="_top" xlink:title="Convert a bit stream from NRZI to standard encoding.">
<polygon fill="none" stroke="black" points="455.5,-53.5 455.5,-83.5 562.5,-83.5 562.5,-53.5 455.5,-53.5"/>
<text text-anchor="start" x="463.5" y="-71.5" font-family="Helvetica,sans-Serif" font-size="10.00">signal_easel::ax25</text>
<text text-anchor="middle" x="509" y="-60.5" font-family="Helvetica,sans-Serif" font-size="10.00">::decodeNrzi</text>
</a>
</g>
</g>
<!-- Node2&#45;&gt;Node6 -->
<g id="edge5" class="edge">
<title>Node2&#45;&gt;Node6</title>
<path fill="none" stroke="midnightblue" d="M605.46,-68.5C591.05,-68.5 576.26,-68.5 562.75,-68.5"/>
<polygon fill="midnightblue" stroke="midnightblue" points="605.86,-72 615.86,-68.5 605.86,-65 605.86,-72"/>
</g>
<!-- Node2&#45;&gt;Node11 -->
<g id="edge10" class="edge">
<title>Node2&#45;&gt;Node11</title>
<path fill="none" stroke="midnightblue" d="M618.55,-50.61C600.16,-45.34 580.23,-39.62 562.53,-34.55"/>
<polygon fill="midnightblue" stroke="midnightblue" points="617.72,-54.01 628.3,-53.4 619.65,-47.28 617.72,-54.01"/>
</g>
<!-- Node3&#45;&gt;Node4 -->
<g id="edge3" class="edge">
<title>Node3&#45;&gt;Node4</title>
<path fill="none" stroke="midnightblue" d="M454.65,-136.07C449.01,-138.18 443.37,-140.35 438,-142.5 414.01,-152.13 387.37,-164.05 367.2,-173.35"/>
<polygon fill="midnightblue" stroke="midnightblue" points="455.94,-139.33 464.12,-132.59 453.52,-132.76 455.94,-139.33"/>
</g>
<!-- Node5 -->
<g id="node5" class="node">
<title>Node5</title>
<g id="a_node5"><a xlink:href="psk__test_8cpp.html#adc7973e853ae04677ba78e84bda93987" target="_top" xlink:title=" ">
<polygon fill="none" stroke="black" points="133,-179 133,-198 174,-198 174,-179 133,-179"/>
<text text-anchor="middle" x="153.5" y="-186" font-family="Helvetica,sans-Serif" font-size="10.00">TEST</text>
</a>
</g>
</g>
<!-- Node4&#45;&gt;Node5 -->
<g id="edge4" class="edge">
<title>Node4&#45;&gt;Node5</title>
<path fill="none" stroke="midnightblue" d="M255.72,-188.5C225.84,-188.5 194.12,-188.5 174.32,-188.5"/>
<polygon fill="midnightblue" stroke="midnightblue" points="255.77,-192 265.77,-188.5 255.77,-185 255.77,-192"/>
</g>
<!-- Node7 -->
<g id="node7" class="node">
<title>Node7</title>
<g id="a_node7"><a xlink:href="classsignal__easel_1_1aprs_1_1Receiver.html#afbf7869aceaf2ea7ab0be8b9af16e818" target="_top" xlink:title=" ">
<polygon fill="none" stroke="black" points="280.5,-102.5 280.5,-132.5 387.5,-132.5 387.5,-102.5 280.5,-102.5"/>
<text text-anchor="start" x="288.5" y="-120.5" font-family="Helvetica,sans-Serif" font-size="10.00">signal_easel::aprs</text>
<text text-anchor="middle" x="334" y="-109.5" font-family="Helvetica,sans-Serif" font-size="10.00">::Receiver::decode</text>
</a>
</g>
</g>
<!-- Node6&#45;&gt;Node7 -->
<g id="edge6" class="edge">
<title>Node6&#45;&gt;Node7</title>
<path fill="none" stroke="midnightblue" d="M445.4,-86.23C426.42,-91.61 405.77,-97.45 387.52,-102.62"/>
<polygon fill="midnightblue" stroke="midnightblue" points="446.49,-89.56 455.15,-83.47 444.58,-82.83 446.49,-89.56"/>
</g>
<!-- Node8 -->
<g id="node8" class="node">
<title>Node8</title>
<g id="a_node8"><a xlink:href="classsignal__easel_1_1ax25_1_1Frame.html#a63cf2362c2a90d20f09bbbc4f24a07ba" target="_top" xlink:title="Attempt to parse an incoming bit stream into an AX.25 frame.">
<polygon fill="none" stroke="black" points="266.5,-53.5 266.5,-83.5 401.5,-83.5 401.5,-53.5 266.5,-53.5"/>
<text text-anchor="start" x="274.5" y="-71.5" font-family="Helvetica,sans-Serif" font-size="10.00">signal_easel::ax25</text>
<text text-anchor="middle" x="334" y="-60.5" font-family="Helvetica,sans-Serif" font-size="10.00">::Frame::parseBitStream</text>
</a>
</g>
</g>
<!-- Node6&#45;&gt;Node8 -->
<g id="edge7" class="edge">
<title>Node6&#45;&gt;Node8</title>
<path fill="none" stroke="midnightblue" d="M445.05,-68.5C430.92,-68.5 415.88,-68.5 401.6,-68.5"/>
<polygon fill="midnightblue" stroke="midnightblue" points="445.15,-72 455.15,-68.5 445.15,-65 445.15,-72"/>
</g>
<!-- Node9 -->
<g id="node9" class="node">
<title>Node9</title>
<g id="a_node9"><a xlink:href="classsignal__easel_1_1aprs_1_1Demodulator.html#ae5a8e7634c1bc8d215a0c454a9a737fa" target="_top" xlink:title=" ">
<polygon fill="none" stroke="black" points="77,-50 77,-91 230,-91 230,-50 77,-50"/>
<text text-anchor="start" x="85" y="-79" font-family="Helvetica,sans-Serif" font-size="10.00">signal_easel::aprs</text>
<text text-anchor="start" x="85" y="-68" font-family="Helvetica,sans-Serif" font-size="10.00">::Demodulator::lookForAx25</text>
<text text-anchor="middle" x="153.5" y="-57" font-family="Helvetica,sans-Serif" font-size="10.00">Packet</text>
</a>
</g>
</g>
<!-- Node8&#45;&gt;Node9 -->
<g id="edge8" class="edge">
<title>Node8&#45;&gt;Node9</title>
<path fill="none" stroke="midnightblue" d="M256.22,-69.36C247.58,-69.46 238.77,-69.56 230.14,-69.65"/>
<polygon fill="midnightblue" stroke="midnightblue" points="256.32,-72.86 266.28,-69.25 256.24,-65.86 256.32,-72.86"/>
</g>
<!-- Node10 -->
<g id="node10" class="node">
<title>Node10</title>
<g id="a_node10"><a xlink:href="aprs__test_8cpp.html#aea66d1824e3f1e27598adf99ac6a089a" target="_top" xlink:title=" ">
<polygon fill="none" stroke="black" points="0,-33 0,-52 41,-52 41,-33 0,-33"/>
<text text-anchor="middle" x="20.5" y="-40" font-family="Helvetica,sans-Serif" font-size="10.00">TEST</text>
</a>
</g>
</g>
<!-- Node9&#45;&gt;Node10 -->
<g id="edge9" class="edge">
<title>Node9&#45;&gt;Node10</title>
<path fill="none" stroke="midnightblue" d="M66.67,-52.16C57.26,-50.14 48.46,-48.26 41.18,-46.71"/>
<polygon fill="midnightblue" stroke="midnightblue" points="66.17,-55.63 76.68,-54.29 67.63,-48.78 66.17,-55.63"/>
</g>
<!-- Node12 -->
<g id="node12" class="node">
<title>Node12</title>
<g id="a_node12"><a xlink:href="namespacesignal__easel_1_1aprs.html#a77481001a5b78a839972bb4220b43e4d" target="_top" xlink:title="The base function to encode an APRS packet with the provided base data and info field.">
<polygon fill="none" stroke="black" points="282,-1.5 282,-31.5 386,-31.5 386,-1.5 282,-1.5"/>
<text text-anchor="start" x="290" y="-19.5" font-family="Helvetica,sans-Serif" font-size="10.00">signal_easel::aprs</text>
<text text-anchor="middle" x="334" y="-8.5" font-family="Helvetica,sans-Serif" font-size="10.00">::encodePacket</text>
</a>
</g>
</g>
<!-- Node11&#45;&gt;Node12 -->
<g id="edge11" class="edge">
<title>Node11&#45;&gt;Node12</title>
<path fill="none" stroke="midnightblue" d="M435.74,-18.25C419.03,-17.96 401.59,-17.65 386,-17.38"/>
<polygon fill="midnightblue" stroke="midnightblue" points="435.97,-21.75 446.03,-18.43 436.09,-14.75 435.97,-21.75"/>
</g>
<!-- Node13 -->
<g id="node13" class="node">
<title>Node13</title>
<g id="a_node13"><a xlink:href="classsignal__easel_1_1aprs_1_1Modulator.html#a8ae067701382dec1680b786583ace687" target="_top" xlink:title=" ">
<polygon fill="none" stroke="black" points="97,-0.5 97,-30.5 210,-30.5 210,-0.5 97,-0.5"/>
<text text-anchor="start" x="105" y="-18.5" font-family="Helvetica,sans-Serif" font-size="10.00">signal_easel::aprs</text>
<text text-anchor="middle" x="153.5" y="-7.5" font-family="Helvetica,sans-Serif" font-size="10.00">::Modulator::encode</text>
</a>
</g>
</g>
<!-- Node12&#45;&gt;Node13 -->
<g id="edge12" class="edge">
<title>Node12&#45;&gt;Node13</title>
<path fill="none" stroke="midnightblue" d="M271.61,-16.16C251.62,-16.04 229.57,-15.92 210.03,-15.81"/>
<polygon fill="midnightblue" stroke="midnightblue" points="271.83,-19.66 281.85,-16.21 271.87,-12.66 271.83,-19.66"/>
</g>
<!-- Node13&#45;&gt;Node10 -->
<g id="edge13" class="edge">
<title>Node13&#45;&gt;Node10</title>
<path fill="none" stroke="midnightblue" d="M87.13,-28.97C70.4,-32.42 53.66,-35.87 41.28,-38.42"/>
<polygon fill="midnightblue" stroke="midnightblue" points="87.86,-32.4 96.94,-26.95 86.44,-25.54 87.86,-32.4"/>
</g>
<!-- Node14&#45;&gt;Node4 -->
<g id="edge15" class="edge">
<title>Node14&#45;&gt;Node4</title>
<path fill="none" stroke="midnightblue" d="M605.7,-190.47C597.04,-190.89 588.33,-191.25 580,-191.5 519.84,-193.29 451.33,-192.18 402.08,-190.84"/>
<polygon fill="midnightblue" stroke="midnightblue" points="606.02,-193.95 615.83,-189.94 605.66,-186.96 606.02,-193.95"/>
</g>
<!-- Node15&#45;&gt;Node3 -->
<g id="edge17" class="edge">
<title>Node15&#45;&gt;Node3</title>
<path fill="none" stroke="midnightblue" d="M605.6,-117.5C597.12,-117.5 588.5,-117.5 580.08,-117.5"/>
<polygon fill="midnightblue" stroke="midnightblue" points="605.86,-121 615.86,-117.5 605.86,-114 605.86,-121"/>
</g>
<!-- Node15&#45;&gt;Node6 -->
<g id="edge20" class="edge">
<title>Node15&#45;&gt;Node6</title>
<path fill="none" stroke="midnightblue" d="M618.55,-99.61C600.16,-94.34 580.23,-88.62 562.53,-83.55"/>
<polygon fill="midnightblue" stroke="midnightblue" points="617.72,-103.01 628.3,-102.4 619.65,-96.28 617.72,-103.01"/>
</g>
<!-- Node15&#45;&gt;Node11 -->
<g id="edge21" class="edge">
<title>Node15&#45;&gt;Node11</title>
<path fill="none" stroke="midnightblue" d="M621.73,-97.45C619.75,-96.21 617.83,-94.89 616,-93.5 594.2,-76.92 601.99,-59.82 580,-43.5 575.36,-40.05 570.18,-37.08 564.81,-34.51"/>
<polygon fill="midnightblue" stroke="midnightblue" points="620.33,-100.68 630.77,-102.47 623.72,-94.56 620.33,-100.68"/>
</g>
<!-- Node16 -->
<g id="node16" class="node">
<title>Node16</title>
<g id="a_node16"><a xlink:href="classsignal__easel_1_1psk_1_1Modulator.html#a9210187601fe988d188b66ba5ee66a73" target="_top" xlink:title=" ">
<polygon fill="none" stroke="black" points="440.5,-151.5 440.5,-181.5 577.5,-181.5 577.5,-151.5 440.5,-151.5"/>
<text text-anchor="start" x="448.5" y="-169.5" font-family="Helvetica,sans-Serif" font-size="10.00">signal_easel::psk::</text>
<text text-anchor="middle" x="509" y="-158.5" font-family="Helvetica,sans-Serif" font-size="10.00">Modulator::addPreamble</text>
</a>
</g>
</g>
<!-- Node15&#45;&gt;Node16 -->
<g id="edge18" class="edge">
<title>Node15&#45;&gt;Node16</title>
<path fill="none" stroke="midnightblue" d="M618.55,-135.39C600.16,-140.66 580.23,-146.38 562.53,-151.45"/>
<polygon fill="midnightblue" stroke="midnightblue" points="619.65,-138.72 628.3,-132.6 617.72,-131.99 619.65,-138.72"/>
</g>
<!-- Node16&#45;&gt;Node4 -->
<g id="edge19" class="edge">
<title>Node16&#45;&gt;Node4</title>
<path fill="none" stroke="midnightblue" d="M430.07,-176.41C420.74,-177.6 411.27,-178.8 402.11,-179.97"/>
<polygon fill="midnightblue" stroke="midnightblue" points="430.64,-179.87 440.12,-175.13 429.76,-172.92 430.64,-179.87"/>
</g>
</g>
</svg>
