<?xml version="1.0" encoding="UTF-8" standalone="no"?>
<!DOCTYPE svg PUBLIC "-//W3C//DTD SVG 1.1//EN"
 "http://www.w3.org/Graphics/SVG/1.1/DTD/svg11.dtd">
<!-- Generated by graphviz version 2.43.0 (0)
 -->
<!-- Title: signal_easel::aprs::telemetry::TelemetryData::setSequenceNumber Pages: 1 -->
<svg width="929pt" height="105pt"
 viewBox="0.00 0.00 929.00 104.50" xmlns="http://www.w3.org/2000/svg" xmlns:xlink="http://www.w3.org/1999/xlink">
<g id="graph0" class="graph" transform="scale(1 1) rotate(0) translate(4 100.5)">
<title>signal_easel::aprs::telemetry::TelemetryData::setSequenceNumber</title>
<!-- Node1 -->
<g id="node1" class="node">
<title>Node1</title>
<g id="a_node1"><a xlink:title="Set the sequence number. Must be less than 1000. If the sequence number is greater than 999,...">
<polygon fill="#bfbfbf" stroke="black" points="773,-13.5 773,-54.5 921,-54.5 921,-13.5 773,-13.5"/>
<text text-anchor="start" x="781" y="-42.5" font-family="Helvetica,sans-Serif" font-size="10.00">signal_easel::aprs</text>
<text text-anchor="start" x="781" y="-31.5" font-family="Helvetica,sans-Serif" font-size="10.00">::telemetry::TelemetryData</text>
<text text-anchor="middle" x="847" y="-20.5" font-family="Helvetica,sans-Serif" font-size="10.00">::setSequenceNumber</text>
</a>
</g>
</g>
<!-- Node2 -->
<g id="node2" class="node">
<title>Node2</title>
<g id="a_node2"><a xlink:href="classsignal__easel_1_1aprs_1_1telemetry_1_1TelemetryTranscoder.html#afe0271b7bbae16a79c2bd4e77d4f3945" target="_top" xlink:title="Decode a data report message.">
<polygon fill="none" stroke="black" points="560,-38.5 560,-79.5 737,-79.5 737,-38.5 560,-38.5"/>
<text text-anchor="start" x="568" y="-67.5" font-family="Helvetica,sans-Serif" font-size="10.00">signal_easel::aprs</text>
<text text-anchor="start" x="568" y="-56.5" font-family="Helvetica,sans-Serif" font-size="10.00">::telemetry::TelemetryTranscoder</text>
<text text-anchor="middle" x="648.5" y="-45.5" font-family="Helvetica,sans-Serif" font-size="10.00">::decodeDataReportMessage</text>
</a>
</g>
</g>
<!-- Node1&#45;&gt;Node2 -->
<g id="edge1" class="edge">
<title>Node1&#45;&gt;Node2</title>
<path fill="none" stroke="midnightblue" d="M762.88,-44.58C754.32,-45.66 745.61,-46.77 737.01,-47.87"/>
<polygon fill="midnightblue" stroke="midnightblue" points="763.35,-48.04 772.83,-43.31 762.47,-41.1 763.35,-48.04"/>
</g>
<!-- Node7 -->
<g id="node7" class="node">
<title>Node7</title>
<g id="a_node7"><a xlink:href="aprs__telemetry__data__test_8cpp.html#a2d581dcdcf40d56ebc45e55cc895ec98" target="_top" xlink:title=" ">
<polygon fill="none" stroke="black" points="628,-0.5 628,-19.5 669,-19.5 669,-0.5 628,-0.5"/>
<text text-anchor="middle" x="648.5" y="-7.5" font-family="Helvetica,sans-Serif" font-size="10.00">TEST</text>
</a>
</g>
</g>
<!-- Node1&#45;&gt;Node7 -->
<g id="edge6" class="edge">
<title>Node1&#45;&gt;Node7</title>
<path fill="none" stroke="midnightblue" d="M762.72,-23.83C728.29,-19.62 691.35,-15.11 669.34,-12.42"/>
<polygon fill="midnightblue" stroke="midnightblue" points="762.48,-27.33 772.83,-25.06 763.33,-20.38 762.48,-27.33"/>
</g>
<!-- Node3 -->
<g id="node3" class="node">
<title>Node3</title>
<g id="a_node3"><a xlink:href="classsignal__easel_1_1aprs_1_1telemetry_1_1TelemetryTranscoder.html#a8728ebd6e5dbd7ca50a219fda62b7375" target="_top" xlink:title="Takes in the information field of an APRS telemetry message and decodes it with the appropriate metho...">
<polygon fill="none" stroke="black" points="347,-38.5 347,-79.5 524,-79.5 524,-38.5 347,-38.5"/>
<text text-anchor="start" x="355" y="-67.5" font-family="Helvetica,sans-Serif" font-size="10.00">signal_easel::aprs</text>
<text text-anchor="start" x="355" y="-56.5" font-family="Helvetica,sans-Serif" font-size="10.00">::telemetry::TelemetryTranscoder</text>
<text text-anchor="middle" x="435.5" y="-45.5" font-family="Helvetica,sans-Serif" font-size="10.00">::decodeMessage</text>
</a>
</g>
</g>
<!-- Node2&#45;&gt;Node3 -->
<g id="edge2" class="edge">
<title>Node2&#45;&gt;Node3</title>
<path fill="none" stroke="midnightblue" d="M549.58,-59C541.12,-59 532.59,-59 524.22,-59"/>
<polygon fill="midnightblue" stroke="midnightblue" points="549.85,-62.5 559.85,-59 549.85,-55.5 549.85,-62.5"/>
</g>
<!-- Node4 -->
<g id="node4" class="node">
<title>Node4</title>
<g id="a_node4"><a xlink:href="classsignal__easel_1_1aprs_1_1Demodulator.html#a97af61f7afb63db275020ba523abcc3a" target="_top" xlink:title="If the packet was a telemetry packet, this function will try to parse the packet and populate the tel...">
<polygon fill="none" stroke="black" points="143,-38.5 143,-79.5 311,-79.5 311,-38.5 143,-38.5"/>
<text text-anchor="start" x="151" y="-67.5" font-family="Helvetica,sans-Serif" font-size="10.00">signal_easel::aprs</text>
<text text-anchor="start" x="151" y="-56.5" font-family="Helvetica,sans-Serif" font-size="10.00">::Demodulator::parseTelemetry</text>
<text text-anchor="middle" x="227" y="-45.5" font-family="Helvetica,sans-Serif" font-size="10.00">Packet</text>
</a>
</g>
</g>
<!-- Node3&#45;&gt;Node4 -->
<g id="edge3" class="edge">
<title>Node3&#45;&gt;Node4</title>
<path fill="none" stroke="midnightblue" d="M336.86,-59C328.25,-59 319.58,-59 311.11,-59"/>
<polygon fill="midnightblue" stroke="midnightblue" points="336.93,-62.5 346.93,-59 336.93,-55.5 336.93,-62.5"/>
</g>
<!-- Node5 -->
<g id="node5" class="node">
<title>Node5</title>
<g id="a_node5"><a xlink:href="classsignal__easel_1_1aprs_1_1Receiver.html#afbf7869aceaf2ea7ab0be8b9af16e818" target="_top" xlink:title=" ">
<polygon fill="none" stroke="black" points="0,-66 0,-96 107,-96 107,-66 0,-66"/>
<text text-anchor="start" x="8" y="-84" font-family="Helvetica,sans-Serif" font-size="10.00">signal_easel::aprs</text>
<text text-anchor="middle" x="53.5" y="-73" font-family="Helvetica,sans-Serif" font-size="10.00">::Receiver::decode</text>
</a>
</g>
</g>
<!-- Node4&#45;&gt;Node5 -->
<g id="edge4" class="edge">
<title>Node4&#45;&gt;Node5</title>
<path fill="none" stroke="midnightblue" d="M132.83,-70.95C124.05,-72.08 115.37,-73.19 107.17,-74.24"/>
<polygon fill="midnightblue" stroke="midnightblue" points="133.29,-74.42 142.76,-69.68 132.4,-67.48 133.29,-74.42"/>
</g>
<!-- Node6 -->
<g id="node6" class="node">
<title>Node6</title>
<g id="a_node6"><a xlink:href="aprs__test_8cpp.html#a8de4b7853d7e8c5ad2bb05a656082327" target="_top" xlink:title=" ">
<polygon fill="none" stroke="black" points="33,-27.5 33,-46.5 74,-46.5 74,-27.5 33,-27.5"/>
<text text-anchor="middle" x="53.5" y="-34.5" font-family="Helvetica,sans-Serif" font-size="10.00">TEST</text>
</a>
</g>
</g>
<!-- Node4&#45;&gt;Node6 -->
<g id="edge5" class="edge">
<title>Node4&#45;&gt;Node6</title>
<path fill="none" stroke="midnightblue" d="M132.57,-47.01C110.43,-44.18 88.99,-41.42 74.2,-39.53"/>
<polygon fill="midnightblue" stroke="midnightblue" points="132.4,-50.52 142.76,-48.32 133.29,-43.58 132.4,-50.52"/>
</g>
</g>
</svg>
