<?xml version="1.0" encoding="UTF-8" standalone="no"?>
<!DOCTYPE svg PUBLIC "-//W3C//DTD SVG 1.1//EN"
 "http://www.w3.org/Graphics/SVG/1.1/DTD/svg11.dtd">
<!-- Generated by graphviz version 2.43.0 (0)
 -->
<!-- Title: signal_easel::aprs::Modulator Pages: 1 -->
<svg width="980pt" height="910pt"
 viewBox="0.00 0.00 980.00 910.00" xmlns="http://www.w3.org/2000/svg" xmlns:xlink="http://www.w3.org/1999/xlink">
<g id="graph0" class="graph" transform="scale(1 1) rotate(0) translate(4 906)">
<title>signal_easel::aprs::Modulator</title>
<!-- Node1 -->
<g id="node1" class="node">
<title>Node1</title>
<g id="a_node1"><a xlink:title=" ">
<polygon fill="#bfbfbf" stroke="black" points="465,-0.5 465,-123.5 569,-123.5 569,-0.5 465,-0.5"/>
<text text-anchor="start" x="473" y="-111.5" font-family="Helvetica,sans-Serif" font-size="10.00">signal_easel::aprs</text>
<text text-anchor="middle" x="517" y="-100.5" font-family="Helvetica,sans-Serif" font-size="10.00">::Modulator</text>
<polyline fill="none" stroke="black" points="465,-93.5 569,-93.5 "/>
<text text-anchor="middle" x="517" y="-81.5" font-family="Helvetica,sans-Serif" font-size="10.00"> </text>
<polyline fill="none" stroke="black" points="465,-74.5 569,-74.5 "/>
<text text-anchor="start" x="473" y="-62.5" font-family="Helvetica,sans-Serif" font-size="10.00">+ Modulator()</text>
<text text-anchor="start" x="473" y="-51.5" font-family="Helvetica,sans-Serif" font-size="10.00">+ encode()</text>
<text text-anchor="start" x="473" y="-40.5" font-family="Helvetica,sans-Serif" font-size="10.00">+ encode()</text>
<text text-anchor="start" x="473" y="-29.5" font-family="Helvetica,sans-Serif" font-size="10.00">+ encode()</text>
<text text-anchor="start" x="473" y="-18.5" font-family="Helvetica,sans-Serif" font-size="10.00">+ encode()</text>
<text text-anchor="start" x="473" y="-7.5" font-family="Helvetica,sans-Serif" font-size="10.00">+ encode()</text>
</a>
</g>
</g>
<!-- Node2 -->
<g id="node2" class="node">
<title>Node2</title>
<g id="a_node2"><a xlink:href="classsignal__easel_1_1afsk_1_1Modulator.html" target="_top" xlink:title="Modulates data into an AFSK signal.">
<polygon fill="none" stroke="black" points="405,-171.5 405,-272.5 509,-272.5 509,-171.5 405,-171.5"/>
<text text-anchor="start" x="413" y="-260.5" font-family="Helvetica,sans-Serif" font-size="10.00">signal_easel::afsk</text>
<text text-anchor="middle" x="457" y="-249.5" font-family="Helvetica,sans-Serif" font-size="10.00">::Modulator</text>
<polyline fill="none" stroke="black" points="405,-242.5 509,-242.5 "/>
<text text-anchor="middle" x="457" y="-230.5" font-family="Helvetica,sans-Serif" font-size="10.00"> </text>
<polyline fill="none" stroke="black" points="405,-223.5 509,-223.5 "/>
<text text-anchor="start" x="413" y="-211.5" font-family="Helvetica,sans-Serif" font-size="10.00">+ Modulator()</text>
<text text-anchor="start" x="413" y="-200.5" font-family="Helvetica,sans-Serif" font-size="10.00">+ ~Modulator()</text>
<text text-anchor="start" x="413" y="-189.5" font-family="Helvetica,sans-Serif" font-size="10.00"># encodeBytes()</text>
<text text-anchor="start" x="413" y="-178.5" font-family="Helvetica,sans-Serif" font-size="10.00">&#45; convertToNRZI()</text>
</a>
</g>
</g>
<!-- Node2&#45;&gt;Node1 -->
<g id="edge1" class="edge">
<title>Node2&#45;&gt;Node1</title>
<path fill="none" stroke="midnightblue" d="M479.39,-162.05C484.13,-149.55 489.15,-136.33 493.92,-123.77"/>
<polygon fill="none" stroke="midnightblue" points="476.1,-160.85 475.82,-171.44 482.64,-163.34 476.1,-160.85"/>
</g>
<!-- Node3 -->
<g id="node3" class="node">
<title>Node3</title>
<g id="a_node3"><a xlink:href="classsignal__easel_1_1DataModulator.html" target="_top" xlink:title="Another abstract base class for modulators that turn text/binary data into audio.">
<polygon fill="none" stroke="black" points="0,-364.5 0,-465.5 156,-465.5 156,-364.5 0,-364.5"/>
<text text-anchor="middle" x="78" y="-453.5" font-family="Helvetica,sans-Serif" font-size="10.00">signal_easel::DataModulator</text>
<polyline fill="none" stroke="black" points="0,-446.5 156,-446.5 "/>
<text text-anchor="middle" x="78" y="-434.5" font-family="Helvetica,sans-Serif" font-size="10.00"> </text>
<polyline fill="none" stroke="black" points="0,-427.5 156,-427.5 "/>
<text text-anchor="start" x="8" y="-415.5" font-family="Helvetica,sans-Serif" font-size="10.00">+ DataModulator()</text>
<text text-anchor="start" x="8" y="-404.5" font-family="Helvetica,sans-Serif" font-size="10.00">+ ~DataModulator()</text>
<text text-anchor="start" x="8" y="-393.5" font-family="Helvetica,sans-Serif" font-size="10.00">+ addBytes()</text>
<text text-anchor="start" x="8" y="-382.5" font-family="Helvetica,sans-Serif" font-size="10.00">+ addString()</text>
<text text-anchor="start" x="8" y="-371.5" font-family="Helvetica,sans-Serif" font-size="10.00"># encodeBytes()</text>
</a>
</g>
</g>
<!-- Node3&#45;&gt;Node2 -->
<g id="edge2" class="edge">
<title>Node3&#45;&gt;Node2</title>
<path fill="none" stroke="midnightblue" d="M103.81,-355.5C116.88,-332.17 134.93,-307.08 158,-291 232.78,-238.86 341.31,-226.05 404.98,-223.28"/>
<polygon fill="none" stroke="midnightblue" points="100.71,-353.87 99.05,-364.34 106.88,-357.2 100.71,-353.87"/>
</g>
<!-- Node4 -->
<g id="node4" class="node">
<title>Node4</title>
<g id="a_node4"><a xlink:href="classsignal__easel_1_1Modulator.html" target="_top" xlink:title="The abstract base class for all modulators that turn data into audio.">
<polygon fill="none" stroke="black" points="346,-513.5 346,-669.5 498,-669.5 498,-513.5 346,-513.5"/>
<text text-anchor="middle" x="422" y="-657.5" font-family="Helvetica,sans-Serif" font-size="10.00">signal_easel::Modulator</text>
<polyline fill="none" stroke="black" points="346,-650.5 498,-650.5 "/>
<text text-anchor="middle" x="422" y="-638.5" font-family="Helvetica,sans-Serif" font-size="10.00"> </text>
<polyline fill="none" stroke="black" points="346,-631.5 498,-631.5 "/>
<text text-anchor="start" x="354" y="-619.5" font-family="Helvetica,sans-Serif" font-size="10.00">+ Modulator()</text>
<text text-anchor="start" x="354" y="-608.5" font-family="Helvetica,sans-Serif" font-size="10.00">+ ~Modulator()</text>
<text text-anchor="start" x="354" y="-597.5" font-family="Helvetica,sans-Serif" font-size="10.00">+ clearBuffer()</text>
<text text-anchor="start" x="354" y="-586.5" font-family="Helvetica,sans-Serif" font-size="10.00">+ writeToFile()</text>
<text text-anchor="start" x="354" y="-575.5" font-family="Helvetica,sans-Serif" font-size="10.00">+ writeToPulseAudio()</text>
<text text-anchor="start" x="354" y="-564.5" font-family="Helvetica,sans-Serif" font-size="10.00"># addAudioSample()</text>
<text text-anchor="start" x="354" y="-553.5" font-family="Helvetica,sans-Serif" font-size="10.00"># addAudioSampleDouble()</text>
<text text-anchor="start" x="354" y="-542.5" font-family="Helvetica,sans-Serif" font-size="10.00"># addSilence()</text>
<text text-anchor="start" x="354" y="-531.5" font-family="Helvetica,sans-Serif" font-size="10.00"># addSineWave()</text>
<text text-anchor="start" x="354" y="-520.5" font-family="Helvetica,sans-Serif" font-size="10.00">&#45; addMorseCode()</text>
</a>
</g>
</g>
<!-- Node4&#45;&gt;Node3 -->
<g id="edge3" class="edge">
<title>Node4&#45;&gt;Node3</title>
<path fill="none" stroke="midnightblue" d="M336.72,-551.04C286.33,-527.26 221.53,-495.89 165,-466 162.07,-464.45 159.1,-462.86 156.11,-461.24"/>
<polygon fill="none" stroke="midnightblue" points="335.42,-554.29 345.95,-555.38 338.4,-547.96 335.42,-554.29"/>
</g>
<!-- Node5 -->
<g id="node5" class="node">
<title>Node5</title>
<g id="a_node5"><a xlink:href="structsignal__easel_1_1Settings.html" target="_top" xlink:title="The universal settings for MWAV.">
<polygon fill="none" stroke="black" points="456.5,-717.5 456.5,-774.5 579.5,-774.5 579.5,-717.5 456.5,-717.5"/>
<text text-anchor="middle" x="518" y="-762.5" font-family="Helvetica,sans-Serif" font-size="10.00">signal_easel::Settings</text>
<polyline fill="none" stroke="black" points="456.5,-755.5 579.5,-755.5 "/>
<text text-anchor="middle" x="518" y="-743.5" font-family="Helvetica,sans-Serif" font-size="10.00"> </text>
<polyline fill="none" stroke="black" points="456.5,-736.5 579.5,-736.5 "/>
<text text-anchor="middle" x="518" y="-724.5" font-family="Helvetica,sans-Serif" font-size="10.00"> </text>
</a>
</g>
</g>
<!-- Node5&#45;&gt;Node4 -->
<g id="edge4" class="edge">
<title>Node5&#45;&gt;Node4</title>
<path fill="none" stroke="#404040" d="M500.62,-717.38C493.81,-706.58 485.6,-693.53 477.09,-680.01"/>
<polygon fill="none" stroke="#404040" points="476.93,-679.75 470.34,-676.81 470.53,-669.6 477.11,-672.54 476.93,-679.75"/>
<text text-anchor="middle" x="514" y="-691" font-family="Helvetica,sans-Serif" font-size="10.00"> #settings_</text>
</g>
<!-- Node10 -->
<g id="node10" class="node">
<title>Node10</title>
<g id="a_node10"><a xlink:href="structsignal__easel_1_1afsk_1_1Settings.html" target="_top" xlink:title="Settings for AFSK modulation/demodulation.">
<polygon fill="none" stroke="black" points="646,-381 646,-449 750,-449 750,-381 646,-381"/>
<text text-anchor="start" x="654" y="-437" font-family="Helvetica,sans-Serif" font-size="10.00">signal_easel::afsk</text>
<text text-anchor="middle" x="698" y="-426" font-family="Helvetica,sans-Serif" font-size="10.00">::Settings</text>
<polyline fill="none" stroke="black" points="646,-419 750,-419 "/>
<text text-anchor="middle" x="698" y="-407" font-family="Helvetica,sans-Serif" font-size="10.00"> </text>
<polyline fill="none" stroke="black" points="646,-400 750,-400 "/>
<text text-anchor="middle" x="698" y="-388" font-family="Helvetica,sans-Serif" font-size="10.00"> </text>
</a>
</g>
</g>
<!-- Node5&#45;&gt;Node10 -->
<g id="edge11" class="edge">
<title>Node5&#45;&gt;Node10</title>
<path fill="none" stroke="midnightblue" d="M549.29,-709.64C559.53,-697.43 570.67,-683.43 580,-670 631.23,-596.25 648.72,-578.8 681,-495 686.6,-480.47 690.54,-463.69 693.2,-449.34"/>
<polygon fill="none" stroke="midnightblue" points="546.51,-707.5 542.71,-717.39 551.85,-712.03 546.51,-707.5"/>
</g>
<!-- Node6 -->
<g id="node6" class="node">
<title>Node6</title>
<g id="a_node6"><a xlink:title=" ">
<polygon fill="none" stroke="black" points="405,-844.5 405,-901.5 449,-901.5 449,-844.5 405,-844.5"/>
<text text-anchor="middle" x="427" y="-889.5" font-family="Helvetica,sans-Serif" font-size="10.00">string</text>
<polyline fill="none" stroke="black" points="405,-882.5 449,-882.5 "/>
<text text-anchor="middle" x="427" y="-870.5" font-family="Helvetica,sans-Serif" font-size="10.00"> </text>
<polyline fill="none" stroke="black" points="405,-863.5 449,-863.5 "/>
<text text-anchor="middle" x="427" y="-851.5" font-family="Helvetica,sans-Serif" font-size="10.00"> </text>
</a>
</g>
</g>
<!-- Node6&#45;&gt;Node5 -->
<g id="edge5" class="edge">
<title>Node6&#45;&gt;Node5</title>
<path fill="none" stroke="#404040" d="M429.85,-844.32C432.63,-828.12 438.14,-807.99 449,-793 451.65,-789.35 454.68,-785.9 457.97,-782.66"/>
<polygon fill="none" stroke="#404040" points="458.15,-782.5 460.01,-775.53 467.16,-774.58 465.3,-781.54 458.15,-782.5"/>
<text text-anchor="middle" x="476.5" y="-807" font-family="Helvetica,sans-Serif" font-size="10.00"> +call_sign</text>
</g>
<!-- Node7 -->
<g id="node7" class="node">
<title>Node7</title>
<g id="a_node7"><a xlink:title=" ">
<polygon fill="none" stroke="black" points="467.5,-844.5 467.5,-901.5 550.5,-901.5 550.5,-844.5 467.5,-844.5"/>
<text text-anchor="middle" x="509" y="-889.5" font-family="Helvetica,sans-Serif" font-size="10.00">CallSignMode</text>
<polyline fill="none" stroke="black" points="467.5,-882.5 550.5,-882.5 "/>
<text text-anchor="middle" x="509" y="-870.5" font-family="Helvetica,sans-Serif" font-size="10.00"> </text>
<polyline fill="none" stroke="black" points="467.5,-863.5 550.5,-863.5 "/>
<text text-anchor="middle" x="509" y="-851.5" font-family="Helvetica,sans-Serif" font-size="10.00"> </text>
</a>
</g>
</g>
<!-- Node7&#45;&gt;Node5 -->
<g id="edge6" class="edge">
<title>Node7&#45;&gt;Node5</title>
<path fill="none" stroke="#404040" d="M508.27,-844.16C508.15,-829 508.43,-809.94 510,-793 510.19,-790.95 510.42,-788.85 510.68,-786.73"/>
<polygon fill="none" stroke="#404040" points="510.72,-786.51 507.63,-779.99 512.46,-774.63 515.55,-781.15 510.72,-786.51"/>
<text text-anchor="middle" x="554" y="-807" font-family="Helvetica,sans-Serif" font-size="10.00"> +call_sign_mode</text>
</g>
<!-- Node8 -->
<g id="node8" class="node">
<title>Node8</title>
<g id="a_node8"><a xlink:title=" ">
<polygon fill="none" stroke="black" points="696,-844.5 696,-901.5 746,-901.5 746,-844.5 696,-844.5"/>
<text text-anchor="middle" x="721" y="-889.5" font-family="Helvetica,sans-Serif" font-size="10.00">double</text>
<polyline fill="none" stroke="black" points="696,-882.5 746,-882.5 "/>
<text text-anchor="middle" x="721" y="-870.5" font-family="Helvetica,sans-Serif" font-size="10.00"> </text>
<polyline fill="none" stroke="black" points="696,-863.5 746,-863.5 "/>
<text text-anchor="middle" x="721" y="-851.5" font-family="Helvetica,sans-Serif" font-size="10.00"> </text>
</a>
</g>
</g>
<!-- Node8&#45;&gt;Node2 -->
<g id="edge18" class="edge">
<title>Node8&#45;&gt;Node2</title>
<path fill="none" stroke="#404040" d="M746.09,-861.11C783.1,-843.16 848,-803.61 848,-747 848,-747 848,-747 848,-414 848,-314.52 752.94,-328.98 661,-291 624.1,-275.76 611.09,-284.96 573,-273 555.66,-267.55 537.39,-260.39 520.61,-253.2"/>
<polygon fill="none" stroke="#404040" points="520.26,-253.04 513.15,-254.3 509.26,-248.23 516.36,-246.97 520.26,-253.04"/>
<text text-anchor="start" x="848" y="-605.5" font-family="Helvetica,sans-Serif" font-size="10.00"> &#45;CENTER_OVER_SAMPLE</text>
<text text-anchor="middle" x="910" y="-594.5" font-family="Helvetica,sans-Serif" font-size="10.00">_FREQ_</text>
<text text-anchor="start" x="848" y="-583.5" font-family="Helvetica,sans-Serif" font-size="10.00">&#45;DELTA_OVER_SAMPLE</text>
<text text-anchor="middle" x="910" y="-572.5" font-family="Helvetica,sans-Serif" font-size="10.00">_FREQ_</text>
</g>
<!-- Node8&#45;&gt;Node4 -->
<g id="edge9" class="edge">
<title>Node8&#45;&gt;Node4</title>
<path fill="none" stroke="#404040" d="M721.35,-844.45C720.34,-828.31 716.88,-808.17 707,-793 653.52,-710.88 603.71,-727 524,-670 518.74,-666.24 513.36,-662.34 507.96,-658.37"/>
<polygon fill="none" stroke="#404040" points="507.88,-658.3 500.67,-657.96 498.23,-651.17 505.43,-651.52 507.88,-658.3"/>
<text text-anchor="middle" x="741.5" y="-743.5" font-family="Helvetica,sans-Serif" font-size="10.00"> &#45;sine_wave_phase_</text>
</g>
<!-- Node8&#45;&gt;Node5 -->
<g id="edge7" class="edge">
<title>Node8&#45;&gt;Node5</title>
<path fill="none" stroke="#404040" d="M695.93,-864.62C674.36,-857.36 643.28,-844.64 621,-826 607.29,-814.53 611.18,-805.08 598,-793 593.54,-788.91 588.65,-785.02 583.56,-781.37"/>
<polygon fill="none" stroke="#404040" points="583.53,-781.35 576.32,-781.32 573.58,-774.65 580.79,-774.68 583.53,-781.35"/>
<text text-anchor="middle" x="664" y="-818" font-family="Helvetica,sans-Serif" font-size="10.00"> +amplitude</text>
<text text-anchor="start" x="621" y="-807" font-family="Helvetica,sans-Serif" font-size="10.00">+call_sign_pause</text>
<text text-anchor="middle" x="664" y="-796" font-family="Helvetica,sans-Serif" font-size="10.00">_seconds</text>
</g>
<!-- Node9 -->
<g id="node9" class="node">
<title>Node9</title>
<g id="a_node9"><a xlink:title=" ">
<polygon fill="none" stroke="black" points="334,-717.5 334,-774.5 438,-774.5 438,-717.5 334,-717.5"/>
<text text-anchor="middle" x="386" y="-762.5" font-family="Helvetica,sans-Serif" font-size="10.00">vector&lt; int16_t &gt;</text>
<polyline fill="none" stroke="black" points="334,-755.5 438,-755.5 "/>
<text text-anchor="middle" x="386" y="-743.5" font-family="Helvetica,sans-Serif" font-size="10.00"> </text>
<polyline fill="none" stroke="black" points="334,-736.5 438,-736.5 "/>
<text text-anchor="middle" x="386" y="-724.5" font-family="Helvetica,sans-Serif" font-size="10.00"> </text>
</a>
</g>
</g>
<!-- Node9&#45;&gt;Node4 -->
<g id="edge8" class="edge">
<title>Node9&#45;&gt;Node4</title>
<path fill="none" stroke="#404040" d="M392.52,-717.38C394.97,-707 397.91,-694.55 400.97,-681.59"/>
<polygon fill="none" stroke="#404040" points="401.04,-681.28 398.53,-674.52 403.8,-669.6 406.31,-676.35 401.04,-681.28"/>
<text text-anchor="middle" x="437" y="-691" font-family="Helvetica,sans-Serif" font-size="10.00"> #audio_buffer_</text>
</g>
<!-- Node10&#45;&gt;Node2 -->
<g id="edge10" class="edge">
<title>Node10&#45;&gt;Node2</title>
<path fill="none" stroke="#404040" d="M654.96,-380.81C647.37,-375.12 639.5,-369.33 632,-364 620.25,-355.64 616.11,-355.19 605,-346 578.61,-324.16 576.97,-313.34 551,-291 541.06,-282.45 530.1,-273.86 519.28,-265.79"/>
<polygon fill="none" stroke="#404040" points="519.09,-265.65 511.89,-265.32 509.42,-258.54 516.62,-258.87 519.09,-265.65"/>
<text text-anchor="middle" x="631" y="-316" font-family="Helvetica,sans-Serif" font-size="10.00"> &#45;settings_</text>
</g>
<!-- Node16 -->
<g id="node16" class="node">
<title>Node16</title>
<g id="a_node16"><a xlink:href="structsignal__easel_1_1aprs_1_1Settings.html" target="_top" xlink:title=" ">
<polygon fill="none" stroke="black" points="582,-188 582,-256 686,-256 686,-188 582,-188"/>
<text text-anchor="start" x="590" y="-244" font-family="Helvetica,sans-Serif" font-size="10.00">signal_easel::aprs</text>
<text text-anchor="middle" x="634" y="-233" font-family="Helvetica,sans-Serif" font-size="10.00">::Settings</text>
<polyline fill="none" stroke="black" points="582,-226 686,-226 "/>
<text text-anchor="middle" x="634" y="-214" font-family="Helvetica,sans-Serif" font-size="10.00"> </text>
<polyline fill="none" stroke="black" points="582,-207 686,-207 "/>
<text text-anchor="start" x="590" y="-195" font-family="Helvetica,sans-Serif" font-size="10.00">+ Settings()</text>
</a>
</g>
</g>
<!-- Node10&#45;&gt;Node16 -->
<g id="edge20" class="edge">
<title>Node10&#45;&gt;Node16</title>
<path fill="none" stroke="midnightblue" d="M686.07,-371.09C679.22,-347.33 670.18,-317.35 661,-291 657.03,-279.6 652.29,-267.3 647.9,-256.34"/>
<polygon fill="none" stroke="midnightblue" points="682.75,-372.21 688.87,-380.86 689.48,-370.29 682.75,-372.21"/>
</g>
<!-- Node11 -->
<g id="node11" class="node">
<title>Node11</title>
<g id="a_node11"><a xlink:title=" ">
<polygon fill="none" stroke="black" points="723,-563 723,-620 797,-620 797,-563 723,-563"/>
<text text-anchor="middle" x="760" y="-608" font-family="Helvetica,sans-Serif" font-size="10.00">BitEncoding</text>
<polyline fill="none" stroke="black" points="723,-601 797,-601 "/>
<text text-anchor="middle" x="760" y="-589" font-family="Helvetica,sans-Serif" font-size="10.00"> </text>
<polyline fill="none" stroke="black" points="723,-582 797,-582 "/>
<text text-anchor="middle" x="760" y="-570" font-family="Helvetica,sans-Serif" font-size="10.00"> </text>
</a>
</g>
</g>
<!-- Node11&#45;&gt;Node10 -->
<g id="edge12" class="edge">
<title>Node11&#45;&gt;Node10</title>
<path fill="none" stroke="#404040" d="M750.18,-562.85C740.41,-535.38 725.29,-492.8 713.83,-460.55"/>
<polygon fill="none" stroke="#404040" points="713.81,-460.49 708.03,-456.18 709.79,-449.18 715.57,-453.5 713.81,-460.49"/>
<text text-anchor="middle" x="762" y="-487" font-family="Helvetica,sans-Serif" font-size="10.00"> +bit_encoding</text>
</g>
<!-- Node12 -->
<g id="node12" class="node">
<title>Node12</title>
<g id="a_node12"><a xlink:title=" ">
<polygon fill="none" stroke="black" points="533,-563 533,-620 571,-620 571,-563 533,-563"/>
<text text-anchor="middle" x="552" y="-608" font-family="Helvetica,sans-Serif" font-size="10.00">bool</text>
<polyline fill="none" stroke="black" points="533,-601 571,-601 "/>
<text text-anchor="middle" x="552" y="-589" font-family="Helvetica,sans-Serif" font-size="10.00"> </text>
<polyline fill="none" stroke="black" points="533,-582 571,-582 "/>
<text text-anchor="middle" x="552" y="-570" font-family="Helvetica,sans-Serif" font-size="10.00"> </text>
</a>
</g>
</g>
<!-- Node12&#45;&gt;Node2 -->
<g id="edge14" class="edge">
<title>Node12&#45;&gt;Node2</title>
<path fill="none" stroke="#404040" d="M548.35,-562.84C545.09,-537.64 540.34,-499.36 537,-466 533.11,-427.18 539.09,-326.54 523,-291 521.13,-286.86 518.89,-282.82 516.38,-278.91"/>
<polygon fill="none" stroke="#404040" points="516.19,-278.64 509.45,-276.08 509.21,-268.88 515.96,-271.43 516.19,-278.64"/>
<text text-anchor="start" x="537" y="-418" font-family="Helvetica,sans-Serif" font-size="10.00"> &#45;nrzi_previous_tone</text>
<text text-anchor="middle" x="587" y="-407" font-family="Helvetica,sans-Serif" font-size="10.00">_mark_</text>
</g>
<!-- Node12&#45;&gt;Node10 -->
<g id="edge13" class="edge">
<title>Node12&#45;&gt;Node10</title>
<path fill="none" stroke="#404040" d="M546.54,-562.68C543.59,-538.99 543.68,-505.47 562,-484 582.85,-459.56 603.07,-479.97 632,-466 637.91,-463.15 643.8,-459.72 649.51,-456.02"/>
<polygon fill="none" stroke="#404040" points="649.64,-455.93 652.31,-449.23 659.53,-449.12 656.85,-455.82 649.64,-455.93"/>
<text text-anchor="middle" x="621.5" y="-487" font-family="Helvetica,sans-Serif" font-size="10.00"> +include_ascii_padding</text>
</g>
<!-- Node13 -->
<g id="node13" class="node">
<title>Node13</title>
<g id="a_node13"><a xlink:title=" ">
<polygon fill="none" stroke="black" points="174,-386.5 174,-443.5 218,-443.5 218,-386.5 174,-386.5"/>
<text text-anchor="middle" x="196" y="-431.5" font-family="Helvetica,sans-Serif" font-size="10.00">int8_t</text>
<polyline fill="none" stroke="black" points="174,-424.5 218,-424.5 "/>
<text text-anchor="middle" x="196" y="-412.5" font-family="Helvetica,sans-Serif" font-size="10.00"> </text>
<polyline fill="none" stroke="black" points="174,-405.5 218,-405.5 "/>
<text text-anchor="middle" x="196" y="-393.5" font-family="Helvetica,sans-Serif" font-size="10.00"> </text>
</a>
</g>
</g>
<!-- Node13&#45;&gt;Node2 -->
<g id="edge15" class="edge">
<title>Node13&#45;&gt;Node2</title>
<path fill="none" stroke="#404040" d="M179.85,-386.33C166.39,-359.23 152.58,-318.17 174,-291 200.7,-257.12 317.68,-238.18 392.63,-229.33"/>
<polygon fill="none" stroke="#404040" points="392.81,-229.31 398.32,-224.65 404.73,-227.94 399.23,-232.6 392.81,-229.31"/>
<text text-anchor="start" x="174" y="-327" font-family="Helvetica,sans-Serif" font-size="10.00"> &#45;current_bipolar_bit</text>
<text text-anchor="middle" x="228.5" y="-316" font-family="Helvetica,sans-Serif" font-size="10.00">_</text>
<text text-anchor="middle" x="228.5" y="-305" font-family="Helvetica,sans-Serif" font-size="10.00">&#45;previous_bipolar_bit_</text>
</g>
<!-- Node14 -->
<g id="node14" class="node">
<title>Node14</title>
<g id="a_node14"><a xlink:title=" ">
<polygon fill="none" stroke="black" points="269,-386.5 269,-443.5 319,-443.5 319,-386.5 269,-386.5"/>
<text text-anchor="middle" x="294" y="-431.5" font-family="Helvetica,sans-Serif" font-size="10.00">int32_t</text>
<polyline fill="none" stroke="black" points="269,-424.5 319,-424.5 "/>
<text text-anchor="middle" x="294" y="-412.5" font-family="Helvetica,sans-Serif" font-size="10.00"> </text>
<polyline fill="none" stroke="black" points="269,-405.5 319,-405.5 "/>
<text text-anchor="middle" x="294" y="-393.5" font-family="Helvetica,sans-Serif" font-size="10.00"> </text>
</a>
</g>
</g>
<!-- Node14&#45;&gt;Node2 -->
<g id="edge16" class="edge">
<title>Node14&#45;&gt;Node2</title>
<path fill="none" stroke="#404040" d="M289.01,-386.36C285.75,-359.48 285.2,-318.75 305,-291 325.54,-262.2 361.18,-245.4 392.78,-235.7"/>
<polygon fill="none" stroke="#404040" points="393.11,-235.61 397.79,-230.12 404.66,-232.32 399.98,-237.81 393.11,-235.61"/>
<text text-anchor="middle" x="346" y="-316" font-family="Helvetica,sans-Serif" font-size="10.00"> &#45;integral_value_</text>
</g>
<!-- Node15 -->
<g id="node15" class="node">
<title>Node15</title>
<g id="a_node15"><a xlink:title=" ">
<polygon fill="none" stroke="black" points="371,-386.5 371,-443.5 427,-443.5 427,-386.5 371,-386.5"/>
<text text-anchor="middle" x="399" y="-431.5" font-family="Helvetica,sans-Serif" font-size="10.00">uint32_t</text>
<polyline fill="none" stroke="black" points="371,-424.5 427,-424.5 "/>
<text text-anchor="middle" x="399" y="-412.5" font-family="Helvetica,sans-Serif" font-size="10.00"> </text>
<polyline fill="none" stroke="black" points="371,-405.5 427,-405.5 "/>
<text text-anchor="middle" x="399" y="-393.5" font-family="Helvetica,sans-Serif" font-size="10.00"> </text>
</a>
</g>
</g>
<!-- Node15&#45;&gt;Node2 -->
<g id="edge17" class="edge">
<title>Node15&#45;&gt;Node2</title>
<path fill="none" stroke="#404040" d="M394,-386.17C390.61,-360.6 388.56,-322.06 400,-291 400.99,-288.32 402.13,-285.67 403.41,-283.05"/>
<polygon fill="none" stroke="#404040" points="403.41,-283.04 402.87,-275.85 409.29,-272.58 409.84,-279.77 403.41,-283.04"/>
<text text-anchor="start" x="400" y="-338" font-family="Helvetica,sans-Serif" font-size="10.00"> &#45;OVER_SAMPLE_FACTOR</text>
<text text-anchor="middle" x="461.5" y="-327" font-family="Helvetica,sans-Serif" font-size="10.00">_</text>
<text text-anchor="start" x="400" y="-316" font-family="Helvetica,sans-Serif" font-size="10.00">&#45;SAMPLES_PER_SYMBOL</text>
<text text-anchor="middle" x="461.5" y="-305" font-family="Helvetica,sans-Serif" font-size="10.00">_</text>
<text text-anchor="middle" x="461.5" y="-294" font-family="Helvetica,sans-Serif" font-size="10.00">&#45;SAMPLE_FREQUENCY_</text>
</g>
<!-- Node16&#45;&gt;Node1 -->
<g id="edge19" class="edge">
<title>Node16&#45;&gt;Node1</title>
<path fill="none" stroke="#404040" d="M609.47,-187.88C597.72,-172 583.16,-152.35 569.11,-133.37"/>
<polygon fill="none" stroke="#404040" points="568.96,-133.17 562.17,-130.73 561.82,-123.52 568.6,-125.97 568.96,-133.17"/>
<text text-anchor="middle" x="608" y="-145" font-family="Helvetica,sans-Serif" font-size="10.00"> &#45;settings_</text>
</g>
</g>
</svg>
