<?xml version="1.0" encoding="UTF-8" standalone="no"?>
<!DOCTYPE svg PUBLIC "-//W3C//DTD SVG 1.1//EN"
 "http://www.w3.org/Graphics/SVG/1.1/DTD/svg11.dtd">
<!-- Generated by graphviz version 2.43.0 (0)
 -->
<!-- Title: signal_easel::ax25::Frame::getInformation Pages: 1 -->
<svg width="482pt" height="170pt"
 viewBox="0.00 0.00 482.00 170.00" xmlns="http://www.w3.org/2000/svg" xmlns:xlink="http://www.w3.org/1999/xlink">
<g id="graph0" class="graph" transform="scale(1 1) rotate(0) translate(4 166)">
<title>signal_easel::ax25::Frame::getInformation</title>
<!-- Node1 -->
<g id="node1" class="node">
<title>Node1</title>
<g id="a_node1"><a xlink:title=" ">
<polygon fill="#bfbfbf" stroke="black" points="342,-66 342,-96 474,-96 474,-66 342,-66"/>
<text text-anchor="start" x="350" y="-84" font-family="Helvetica,sans-Serif" font-size="10.00">signal_easel::ax25</text>
<text text-anchor="middle" x="408" y="-73" font-family="Helvetica,sans-Serif" font-size="10.00">::Frame::getInformation</text>
</a>
</g>
</g>
<!-- Node2 -->
<g id="node2" class="node">
<title>Node2</title>
<g id="a_node2"><a xlink:href="classsignal__easel_1_1aprs_1_1Demodulator.html#ae5a8e7634c1bc8d215a0c454a9a737fa" target="_top" xlink:title=" ">
<polygon fill="none" stroke="black" points="148,-0.5 148,-41.5 301,-41.5 301,-0.5 148,-0.5"/>
<text text-anchor="start" x="156" y="-29.5" font-family="Helvetica,sans-Serif" font-size="10.00">signal_easel::aprs</text>
<text text-anchor="start" x="156" y="-18.5" font-family="Helvetica,sans-Serif" font-size="10.00">::Demodulator::lookForAx25</text>
<text text-anchor="middle" x="224.5" y="-7.5" font-family="Helvetica,sans-Serif" font-size="10.00">Packet</text>
</a>
</g>
</g>
<!-- Node1&#45;&gt;Node2 -->
<g id="edge1" class="edge">
<title>Node1&#45;&gt;Node2</title>
<path fill="none" stroke="midnightblue" d="M351.54,-62.67C331.38,-56 308.45,-48.42 287.74,-41.58"/>
<polygon fill="midnightblue" stroke="midnightblue" points="350.61,-66.04 361.2,-65.86 352.8,-59.4 350.61,-66.04"/>
</g>
<!-- Node5 -->
<g id="node5" class="node">
<title>Node5</title>
<g id="a_node5"><a xlink:href="classsignal__easel_1_1aprs_1_1Demodulator.html#a8ea92084a8f961d7a11200652516177d" target="_top" xlink:title="If the packet was a message packet, this function will try to parse the packet into a message packet.">
<polygon fill="none" stroke="black" points="143,-60.5 143,-101.5 306,-101.5 306,-60.5 143,-60.5"/>
<text text-anchor="start" x="151" y="-89.5" font-family="Helvetica,sans-Serif" font-size="10.00">signal_easel::aprs</text>
<text text-anchor="start" x="151" y="-78.5" font-family="Helvetica,sans-Serif" font-size="10.00">::Demodulator::parseMessage</text>
<text text-anchor="middle" x="224.5" y="-67.5" font-family="Helvetica,sans-Serif" font-size="10.00">Packet</text>
</a>
</g>
</g>
<!-- Node1&#45;&gt;Node5 -->
<g id="edge4" class="edge">
<title>Node1&#45;&gt;Node5</title>
<path fill="none" stroke="midnightblue" d="M331.8,-81C323.35,-81 314.72,-81 306.21,-81"/>
<polygon fill="midnightblue" stroke="midnightblue" points="331.99,-84.5 341.99,-81 331.99,-77.5 331.99,-84.5"/>
</g>
<!-- Node6 -->
<g id="node6" class="node">
<title>Node6</title>
<g id="a_node6"><a xlink:href="classsignal__easel_1_1aprs_1_1Demodulator.html#a285cd33e16fa28925fe2acd3fe5029fb" target="_top" xlink:title="If the packet was a position packet, this function will try to parse the packet into it&#39;s positional ...">
<polygon fill="none" stroke="black" points="145.5,-120.5 145.5,-161.5 303.5,-161.5 303.5,-120.5 145.5,-120.5"/>
<text text-anchor="start" x="153.5" y="-149.5" font-family="Helvetica,sans-Serif" font-size="10.00">signal_easel::aprs</text>
<text text-anchor="start" x="153.5" y="-138.5" font-family="Helvetica,sans-Serif" font-size="10.00">::Demodulator::parsePosition</text>
<text text-anchor="middle" x="224.5" y="-127.5" font-family="Helvetica,sans-Serif" font-size="10.00">Packet</text>
</a>
</g>
</g>
<!-- Node1&#45;&gt;Node6 -->
<g id="edge7" class="edge">
<title>Node1&#45;&gt;Node6</title>
<path fill="none" stroke="midnightblue" d="M351.54,-99.33C331.38,-106 308.45,-113.58 287.74,-120.42"/>
<polygon fill="midnightblue" stroke="midnightblue" points="352.8,-102.6 361.2,-96.14 350.61,-95.96 352.8,-102.6"/>
</g>
<!-- Node3 -->
<g id="node3" class="node">
<title>Node3</title>
<g id="a_node3"><a xlink:href="classsignal__easel_1_1aprs_1_1Receiver.html#afbf7869aceaf2ea7ab0be8b9af16e818" target="_top" xlink:title=" ">
<polygon fill="none" stroke="black" points="0,-66 0,-96 107,-96 107,-66 0,-66"/>
<text text-anchor="start" x="8" y="-84" font-family="Helvetica,sans-Serif" font-size="10.00">signal_easel::aprs</text>
<text text-anchor="middle" x="53.5" y="-73" font-family="Helvetica,sans-Serif" font-size="10.00">::Receiver::decode</text>
</a>
</g>
</g>
<!-- Node2&#45;&gt;Node3 -->
<g id="edge2" class="edge">
<title>Node2&#45;&gt;Node3</title>
<path fill="none" stroke="midnightblue" d="M155.69,-45.07C135.78,-52.14 114.58,-59.67 96.76,-66"/>
<polygon fill="midnightblue" stroke="midnightblue" points="157.09,-48.29 165.34,-41.65 154.75,-41.7 157.09,-48.29"/>
</g>
<!-- Node4 -->
<g id="node4" class="node">
<title>Node4</title>
<g id="a_node4"><a xlink:href="aprs__test_8cpp.html#aea66d1824e3f1e27598adf99ac6a089a" target="_top" xlink:title=" ">
<polygon fill="none" stroke="black" points="33,-19.5 33,-38.5 74,-38.5 74,-19.5 33,-19.5"/>
<text text-anchor="middle" x="53.5" y="-26.5" font-family="Helvetica,sans-Serif" font-size="10.00">TEST</text>
</a>
</g>
</g>
<!-- Node2&#45;&gt;Node4 -->
<g id="edge3" class="edge">
<title>Node2&#45;&gt;Node4</title>
<path fill="none" stroke="midnightblue" d="M137.71,-25.06C113.91,-26.19 90.25,-27.31 74.27,-28.06"/>
<polygon fill="midnightblue" stroke="midnightblue" points="138.07,-28.55 147.9,-24.58 137.74,-21.56 138.07,-28.55"/>
</g>
<!-- Node5&#45;&gt;Node3 -->
<g id="edge5" class="edge">
<title>Node5&#45;&gt;Node3</title>
<path fill="none" stroke="midnightblue" d="M132.77,-81C124.11,-81 115.53,-81 107.41,-81"/>
<polygon fill="midnightblue" stroke="midnightblue" points="132.96,-84.5 142.96,-81 132.96,-77.5 132.96,-84.5"/>
</g>
<!-- Node5&#45;&gt;Node4 -->
<g id="edge6" class="edge">
<title>Node5&#45;&gt;Node4</title>
<path fill="none" stroke="midnightblue" d="M146.87,-57.42C119.98,-49.15 92.02,-40.54 74.01,-35"/>
<polygon fill="midnightblue" stroke="midnightblue" points="146.12,-60.85 156.71,-60.45 148.18,-54.16 146.12,-60.85"/>
</g>
<!-- Node6&#45;&gt;Node3 -->
<g id="edge8" class="edge">
<title>Node6&#45;&gt;Node3</title>
<path fill="none" stroke="midnightblue" d="M155.69,-116.93C135.78,-109.86 114.58,-102.33 96.76,-96"/>
<polygon fill="midnightblue" stroke="midnightblue" points="154.75,-120.3 165.34,-120.35 157.09,-113.71 154.75,-120.3"/>
</g>
</g>
</svg>
