<?xml version="1.0" encoding="UTF-8" standalone="no"?>
<!DOCTYPE svg PUBLIC "-//W3C//DTD SVG 1.1//EN"
 "http://www.w3.org/Graphics/SVG/1.1/DTD/svg11.dtd">
<!-- Generated by graphviz version 2.43.0 (0)
 -->
<!-- Title: signal_easel::aprs::telemetry::DigitalParameter Pages: 1 -->
<svg width="243pt" height="463pt"
 viewBox="0.00 0.00 242.50 463.00" xmlns="http://www.w3.org/2000/svg" xmlns:xlink="http://www.w3.org/1999/xlink">
<g id="graph0" class="graph" transform="scale(1 1) rotate(0) translate(4 459)">
<title>signal_easel::aprs::telemetry::DigitalParameter</title>
<!-- Node1 -->
<g id="node1" class="node">
<title>Node1</title>
<g id="a_node1"><a xlink:title="A digital parameter.">
<polygon fill="#bfbfbf" stroke="black" points="67.5,-0.5 67.5,-112.5 225.5,-112.5 225.5,-0.5 67.5,-0.5"/>
<text text-anchor="start" x="75.5" y="-100.5" font-family="Helvetica,sans-Serif" font-size="10.00">signal_easel::aprs</text>
<text text-anchor="middle" x="146.5" y="-89.5" font-family="Helvetica,sans-Serif" font-size="10.00">::telemetry::DigitalParameter</text>
<polyline fill="none" stroke="black" points="67.5,-82.5 225.5,-82.5 "/>
<text text-anchor="middle" x="146.5" y="-70.5" font-family="Helvetica,sans-Serif" font-size="10.00"> </text>
<polyline fill="none" stroke="black" points="67.5,-63.5 225.5,-63.5 "/>
<text text-anchor="start" x="75.5" y="-51.5" font-family="Helvetica,sans-Serif" font-size="10.00">+ DigitalParameter()</text>
<text text-anchor="start" x="75.5" y="-40.5" font-family="Helvetica,sans-Serif" font-size="10.00">+ getBitSense()</text>
<text text-anchor="start" x="75.5" y="-29.5" font-family="Helvetica,sans-Serif" font-size="10.00">+ getValue()</text>
<text text-anchor="start" x="75.5" y="-18.5" font-family="Helvetica,sans-Serif" font-size="10.00">+ setBitSense()</text>
<text text-anchor="start" x="75.5" y="-7.5" font-family="Helvetica,sans-Serif" font-size="10.00">+ setValue()</text>
</a>
</g>
</g>
<!-- Node2 -->
<g id="node2" class="node">
<title>Node2</title>
<g id="a_node2"><a xlink:href="classsignal__easel_1_1aprs_1_1telemetry_1_1Parameter.html" target="_top" xlink:title="A representation of APRS telemetry parameters.">
<polygon fill="none" stroke="black" points="0,-171.5 0,-338.5 171,-338.5 171,-171.5 0,-171.5"/>
<text text-anchor="start" x="8" y="-326.5" font-family="Helvetica,sans-Serif" font-size="10.00">signal_easel::aprs</text>
<text text-anchor="middle" x="85.5" y="-315.5" font-family="Helvetica,sans-Serif" font-size="10.00">::telemetry::Parameter</text>
<polyline fill="none" stroke="black" points="0,-308.5 171,-308.5 "/>
<text text-anchor="middle" x="85.5" y="-296.5" font-family="Helvetica,sans-Serif" font-size="10.00"> </text>
<polyline fill="none" stroke="black" points="0,-289.5 171,-289.5 "/>
<text text-anchor="start" x="8" y="-277.5" font-family="Helvetica,sans-Serif" font-size="10.00">+ Parameter()</text>
<text text-anchor="start" x="8" y="-266.5" font-family="Helvetica,sans-Serif" font-size="10.00">+ ~Parameter()</text>
<text text-anchor="start" x="8" y="-255.5" font-family="Helvetica,sans-Serif" font-size="10.00">+ getId()</text>
<text text-anchor="start" x="8" y="-244.5" font-family="Helvetica,sans-Serif" font-size="10.00">+ getLabel()</text>
<text text-anchor="start" x="8" y="-233.5" font-family="Helvetica,sans-Serif" font-size="10.00">+ getName()</text>
<text text-anchor="start" x="8" y="-222.5" font-family="Helvetica,sans-Serif" font-size="10.00">+ getType()</text>
<text text-anchor="start" x="8" y="-211.5" font-family="Helvetica,sans-Serif" font-size="10.00">+ setName()</text>
<text text-anchor="start" x="8" y="-200.5" font-family="Helvetica,sans-Serif" font-size="10.00">+ setUnitOrLabel()</text>
<text text-anchor="start" x="8" y="-189.5" font-family="Helvetica,sans-Serif" font-size="10.00">+ getType()</text>
<text text-anchor="start" x="8" y="-178.5" font-family="Helvetica,sans-Serif" font-size="10.00">&#45; validateParameterDescriptor()</text>
</a>
</g>
</g>
<!-- Node2&#45;&gt;Node1 -->
<g id="edge1" class="edge">
<title>Node2&#45;&gt;Node1</title>
<path fill="none" stroke="midnightblue" d="M114.24,-161.42C119.43,-144.69 124.7,-127.74 129.42,-112.51"/>
<polygon fill="none" stroke="midnightblue" points="110.81,-160.65 111.19,-171.24 117.5,-162.72 110.81,-160.65"/>
</g>
<!-- Node3 -->
<g id="node3" class="node">
<title>Node3</title>
<g id="a_node3"><a xlink:title=" ">
<polygon fill="none" stroke="black" points="19,-397.5 19,-454.5 48,-454.5 48,-397.5 19,-397.5"/>
<text text-anchor="middle" x="33.5" y="-442.5" font-family="Helvetica,sans-Serif" font-size="10.00">Id</text>
<polyline fill="none" stroke="black" points="19,-435.5 48,-435.5 "/>
<text text-anchor="middle" x="33.5" y="-423.5" font-family="Helvetica,sans-Serif" font-size="10.00"> </text>
<polyline fill="none" stroke="black" points="19,-416.5 48,-416.5 "/>
<text text-anchor="middle" x="33.5" y="-404.5" font-family="Helvetica,sans-Serif" font-size="10.00"> </text>
</a>
</g>
</g>
<!-- Node3&#45;&gt;Node2 -->
<g id="edge2" class="edge">
<title>Node3&#45;&gt;Node2</title>
<path fill="none" stroke="#404040" d="M41.97,-397.47C46.02,-384.32 51.12,-367.73 56.4,-350.58"/>
<polygon fill="none" stroke="#404040" points="56.54,-350.12 54.48,-343.21 60.07,-338.65 62.13,-345.56 56.54,-350.12"/>
<text text-anchor="middle" x="64.5" y="-365.5" font-family="Helvetica,sans-Serif" font-size="10.00"> &#45;id_</text>
</g>
<!-- Node4 -->
<g id="node4" class="node">
<title>Node4</title>
<g id="a_node4"><a xlink:title=" ">
<polygon fill="none" stroke="black" points="66,-397.5 66,-454.5 105,-454.5 105,-397.5 66,-397.5"/>
<text text-anchor="middle" x="85.5" y="-442.5" font-family="Helvetica,sans-Serif" font-size="10.00">Type</text>
<polyline fill="none" stroke="black" points="66,-435.5 105,-435.5 "/>
<text text-anchor="middle" x="85.5" y="-423.5" font-family="Helvetica,sans-Serif" font-size="10.00"> </text>
<polyline fill="none" stroke="black" points="66,-416.5 105,-416.5 "/>
<text text-anchor="middle" x="85.5" y="-404.5" font-family="Helvetica,sans-Serif" font-size="10.00"> </text>
</a>
</g>
</g>
<!-- Node4&#45;&gt;Node2 -->
<g id="edge3" class="edge">
<title>Node4&#45;&gt;Node2</title>
<path fill="none" stroke="#404040" d="M85.5,-397.47C85.5,-384.45 85.5,-368.05 85.5,-351.07"/>
<polygon fill="none" stroke="#404040" points="85.5,-350.65 81.5,-344.65 85.5,-338.65 89.5,-344.65 85.5,-350.65"/>
<text text-anchor="middle" x="102.5" y="-365.5" font-family="Helvetica,sans-Serif" font-size="10.00"> &#45;type_</text>
</g>
<!-- Node5 -->
<g id="node5" class="node">
<title>Node5</title>
<g id="a_node5"><a xlink:title=" ">
<polygon fill="none" stroke="black" points="123.5,-397.5 123.5,-454.5 167.5,-454.5 167.5,-397.5 123.5,-397.5"/>
<text text-anchor="middle" x="145.5" y="-442.5" font-family="Helvetica,sans-Serif" font-size="10.00">string</text>
<polyline fill="none" stroke="black" points="123.5,-435.5 167.5,-435.5 "/>
<text text-anchor="middle" x="145.5" y="-423.5" font-family="Helvetica,sans-Serif" font-size="10.00"> </text>
<polyline fill="none" stroke="black" points="123.5,-416.5 167.5,-416.5 "/>
<text text-anchor="middle" x="145.5" y="-404.5" font-family="Helvetica,sans-Serif" font-size="10.00"> </text>
</a>
</g>
</g>
<!-- Node5&#45;&gt;Node2 -->
<g id="edge4" class="edge">
<title>Node5&#45;&gt;Node2</title>
<path fill="none" stroke="#404040" d="M136.91,-397.44C132.96,-385.04 128.13,-370.24 123.5,-357 122.68,-354.65 121.84,-352.27 120.99,-349.88"/>
<polygon fill="none" stroke="#404040" points="120.98,-349.86 115.19,-345.56 116.92,-338.56 122.72,-342.86 120.98,-349.86"/>
<text text-anchor="middle" x="167" y="-371" font-family="Helvetica,sans-Serif" font-size="10.00"> &#45;name_</text>
<text text-anchor="middle" x="167" y="-360" font-family="Helvetica,sans-Serif" font-size="10.00">&#45;unit_or_label_</text>
</g>
<!-- Node6 -->
<g id="node6" class="node">
<title>Node6</title>
<g id="a_node6"><a xlink:title=" ">
<polygon fill="none" stroke="black" points="189.5,-226.5 189.5,-283.5 227.5,-283.5 227.5,-226.5 189.5,-226.5"/>
<text text-anchor="middle" x="208.5" y="-271.5" font-family="Helvetica,sans-Serif" font-size="10.00">bool</text>
<polyline fill="none" stroke="black" points="189.5,-264.5 227.5,-264.5 "/>
<text text-anchor="middle" x="208.5" y="-252.5" font-family="Helvetica,sans-Serif" font-size="10.00"> </text>
<polyline fill="none" stroke="black" points="189.5,-245.5 227.5,-245.5 "/>
<text text-anchor="middle" x="208.5" y="-233.5" font-family="Helvetica,sans-Serif" font-size="10.00"> </text>
</a>
</g>
</g>
<!-- Node6&#45;&gt;Node1 -->
<g id="edge5" class="edge">
<title>Node6&#45;&gt;Node1</title>
<path fill="none" stroke="#404040" d="M199.75,-226.26C191.41,-199.84 178.54,-159.04 167.54,-124.17"/>
<polygon fill="none" stroke="#404040" points="167.5,-124.05 161.88,-119.53 163.89,-112.6 169.51,-117.12 167.5,-124.05"/>
<text text-anchor="middle" x="205" y="-145" font-family="Helvetica,sans-Serif" font-size="10.00"> &#45;bit_sense_</text>
<text text-anchor="middle" x="205" y="-134" font-family="Helvetica,sans-Serif" font-size="10.00">&#45;value_</text>
</g>
</g>
</svg>
