<?xml version="1.0" encoding="UTF-8" standalone="no"?>
<!DOCTYPE svg PUBLIC "-//W3C//DTD SVG 1.1//EN"
 "http://www.w3.org/Graphics/SVG/1.1/DTD/svg11.dtd">
<!-- Generated by graphviz version 2.43.0 (0)
 -->
<!-- Title: signal_easel::sstv::Modulator Pages: 1 -->
<svg width="1246pt" height="777pt"
 viewBox="0.00 0.00 1245.73 777.00" xmlns="http://www.w3.org/2000/svg" xmlns:xlink="http://www.w3.org/1999/xlink">
<g id="graph0" class="graph" transform="scale(1 1) rotate(0) translate(4 773)">
<title>signal_easel::sstv::Modulator</title>
<!-- Node1 -->
<g id="node1" class="node">
<title>Node1</title>
<g id="a_node1"><a xlink:title="SSTV Modulator.">
<polygon fill="#bfbfbf" stroke="black" points="607.73,-0.5 607.73,-156.5 747.73,-156.5 747.73,-0.5 607.73,-0.5"/>
<text text-anchor="start" x="615.73" y="-144.5" font-family="Helvetica,sans-Serif" font-size="10.00">signal_easel::sstv</text>
<text text-anchor="middle" x="677.73" y="-133.5" font-family="Helvetica,sans-Serif" font-size="10.00">::Modulator</text>
<polyline fill="none" stroke="black" points="607.73,-126.5 747.73,-126.5 "/>
<text text-anchor="middle" x="677.73" y="-114.5" font-family="Helvetica,sans-Serif" font-size="10.00"> </text>
<polyline fill="none" stroke="black" points="607.73,-107.5 747.73,-107.5 "/>
<text text-anchor="start" x="615.73" y="-95.5" font-family="Helvetica,sans-Serif" font-size="10.00">+ Modulator()</text>
<text text-anchor="start" x="615.73" y="-84.5" font-family="Helvetica,sans-Serif" font-size="10.00">+ ~Modulator()</text>
<text text-anchor="start" x="615.73" y="-73.5" font-family="Helvetica,sans-Serif" font-size="10.00">+ encodeImage()</text>
<text text-anchor="start" x="615.73" y="-62.5" font-family="Helvetica,sans-Serif" font-size="10.00">&#45; addPreamble()</text>
<text text-anchor="start" x="615.73" y="-51.5" font-family="Helvetica,sans-Serif" font-size="10.00">&#45; encodeAdjustedImage()</text>
<text text-anchor="start" x="615.73" y="-40.5" font-family="Helvetica,sans-Serif" font-size="10.00">&#45; encodeScanLine()</text>
<text text-anchor="start" x="615.73" y="-29.5" font-family="Helvetica,sans-Serif" font-size="10.00">&#45; pulse()</text>
<text text-anchor="start" x="615.73" y="-18.5" font-family="Helvetica,sans-Serif" font-size="10.00">&#45; readImageLine()</text>
<text text-anchor="start" x="615.73" y="-7.5" font-family="Helvetica,sans-Serif" font-size="10.00">&#45; writeBuffer()</text>
</a>
</g>
</g>
<!-- Node2 -->
<g id="node2" class="node">
<title>Node2</title>
<g id="a_node2"><a xlink:href="classsignal__easel_1_1Modulator.html" target="_top" xlink:title="The abstract base class for all modulators that turn data into audio.">
<polygon fill="none" stroke="black" points="222.73,-237.5 222.73,-393.5 374.73,-393.5 374.73,-237.5 222.73,-237.5"/>
<text text-anchor="middle" x="298.73" y="-381.5" font-family="Helvetica,sans-Serif" font-size="10.00">signal_easel::Modulator</text>
<polyline fill="none" stroke="black" points="222.73,-374.5 374.73,-374.5 "/>
<text text-anchor="middle" x="298.73" y="-362.5" font-family="Helvetica,sans-Serif" font-size="10.00"> </text>
<polyline fill="none" stroke="black" points="222.73,-355.5 374.73,-355.5 "/>
<text text-anchor="start" x="230.73" y="-343.5" font-family="Helvetica,sans-Serif" font-size="10.00">+ Modulator()</text>
<text text-anchor="start" x="230.73" y="-332.5" font-family="Helvetica,sans-Serif" font-size="10.00">+ ~Modulator()</text>
<text text-anchor="start" x="230.73" y="-321.5" font-family="Helvetica,sans-Serif" font-size="10.00">+ clearBuffer()</text>
<text text-anchor="start" x="230.73" y="-310.5" font-family="Helvetica,sans-Serif" font-size="10.00">+ writeToFile()</text>
<text text-anchor="start" x="230.73" y="-299.5" font-family="Helvetica,sans-Serif" font-size="10.00">+ writeToPulseAudio()</text>
<text text-anchor="start" x="230.73" y="-288.5" font-family="Helvetica,sans-Serif" font-size="10.00"># addAudioSample()</text>
<text text-anchor="start" x="230.73" y="-277.5" font-family="Helvetica,sans-Serif" font-size="10.00"># addAudioSampleDouble()</text>
<text text-anchor="start" x="230.73" y="-266.5" font-family="Helvetica,sans-Serif" font-size="10.00"># addSilence()</text>
<text text-anchor="start" x="230.73" y="-255.5" font-family="Helvetica,sans-Serif" font-size="10.00"># addSineWave()</text>
<text text-anchor="start" x="230.73" y="-244.5" font-family="Helvetica,sans-Serif" font-size="10.00">&#45; addMorseCode()</text>
</a>
</g>
</g>
<!-- Node2&#45;&gt;Node1 -->
<g id="edge1" class="edge">
<title>Node2&#45;&gt;Node1</title>
<path fill="none" stroke="midnightblue" d="M383.04,-247.09C387.64,-243.64 392.23,-240.26 396.73,-237 437.29,-207.67 447.49,-200.2 490.73,-175 528.53,-152.98 571.98,-130.62 607.48,-113.07"/>
<polygon fill="none" stroke="midnightblue" points="380.62,-244.53 374.75,-253.35 384.84,-250.12 380.62,-244.53"/>
</g>
<!-- Node3 -->
<g id="node3" class="node">
<title>Node3</title>
<g id="a_node3"><a xlink:title=" ">
<polygon fill="none" stroke="#bfbfbf" points="91.73,-711.5 91.73,-768.5 141.73,-768.5 141.73,-711.5 91.73,-711.5"/>
<text text-anchor="middle" x="116.73" y="-756.5" font-family="Helvetica,sans-Serif" font-size="10.00">double</text>
<polyline fill="none" stroke="#bfbfbf" points="91.73,-749.5 141.73,-749.5 "/>
<text text-anchor="middle" x="116.73" y="-737.5" font-family="Helvetica,sans-Serif" font-size="10.00"> </text>
<polyline fill="none" stroke="#bfbfbf" points="91.73,-730.5 141.73,-730.5 "/>
<text text-anchor="middle" x="116.73" y="-718.5" font-family="Helvetica,sans-Serif" font-size="10.00"> </text>
</a>
</g>
</g>
<!-- Node3&#45;&gt;Node1 -->
<g id="edge9" class="edge">
<title>Node3&#45;&gt;Node1</title>
<path fill="none" stroke="#404040" d="M94.76,-711.35C70.41,-678.79 32.63,-622.02 17.73,-566 0.14,-499.85 -10.24,-474.47 17.73,-412 118.87,-186.11 442.33,-111.85 595.64,-88.97"/>
<polygon fill="none" stroke="#404040" points="595.84,-88.94 601.2,-84.13 607.72,-87.22 602.35,-92.04 595.84,-88.94"/>
<text text-anchor="middle" x="74.23" y="-558" font-family="Helvetica,sans-Serif" font-size="10.00"> &#45;c_scan_line_time_</text>
<text text-anchor="middle" x="74.23" y="-547" font-family="Helvetica,sans-Serif" font-size="10.00">&#45;porch_frequency_</text>
<text text-anchor="middle" x="74.23" y="-536" font-family="Helvetica,sans-Serif" font-size="10.00">&#45;porch_length_ms_</text>
<text text-anchor="start" x="17.73" y="-525" font-family="Helvetica,sans-Serif" font-size="10.00">&#45;separation_pulse</text>
<text text-anchor="middle" x="74.23" y="-514" font-family="Helvetica,sans-Serif" font-size="10.00">_length_ms_</text>
<text text-anchor="start" x="17.73" y="-503" font-family="Helvetica,sans-Serif" font-size="10.00">&#45;sync_porch_frequency</text>
<text text-anchor="middle" x="74.23" y="-492" font-family="Helvetica,sans-Serif" font-size="10.00">_</text>
<text text-anchor="start" x="17.73" y="-481" font-family="Helvetica,sans-Serif" font-size="10.00">&#45;sync_porch_length</text>
<text text-anchor="middle" x="74.23" y="-470" font-family="Helvetica,sans-Serif" font-size="10.00">_ms_</text>
<text text-anchor="start" x="17.73" y="-459" font-family="Helvetica,sans-Serif" font-size="10.00">&#45;sync_pulse_frequency</text>
<text text-anchor="middle" x="74.23" y="-448" font-family="Helvetica,sans-Serif" font-size="10.00">_</text>
<text text-anchor="start" x="17.73" y="-437" font-family="Helvetica,sans-Serif" font-size="10.00">&#45;sync_pulse_length</text>
<text text-anchor="middle" x="74.23" y="-426" font-family="Helvetica,sans-Serif" font-size="10.00">_ms_</text>
<text text-anchor="middle" x="74.23" y="-415" font-family="Helvetica,sans-Serif" font-size="10.00">&#45;y_scan_line_time_</text>
</g>
<!-- Node3&#45;&gt;Node2 -->
<g id="edge2" class="edge">
<title>Node3&#45;&gt;Node2</title>
<path fill="none" stroke="#404040" d="M114.17,-711.34C112.18,-679.71 111.74,-626.79 125.73,-584 147.21,-518.33 188.92,-453.05 226,-403.42"/>
<polygon fill="none" stroke="#404040" points="226.11,-403.28 226.54,-396.08 233.35,-393.71 232.92,-400.91 226.11,-403.28"/>
<text text-anchor="middle" x="175.23" y="-610.5" font-family="Helvetica,sans-Serif" font-size="10.00"> &#45;sine_wave_phase_</text>
</g>
<!-- Node5 -->
<g id="node5" class="node">
<title>Node5</title>
<g id="a_node5"><a xlink:href="structsignal__easel_1_1Settings.html" target="_top" xlink:title="The universal settings for MWAV.">
<polygon fill="none" stroke="black" points="356.23,-584.5 356.23,-641.5 479.23,-641.5 479.23,-584.5 356.23,-584.5"/>
<text text-anchor="middle" x="417.73" y="-629.5" font-family="Helvetica,sans-Serif" font-size="10.00">signal_easel::Settings</text>
<polyline fill="none" stroke="black" points="356.23,-622.5 479.23,-622.5 "/>
<text text-anchor="middle" x="417.73" y="-610.5" font-family="Helvetica,sans-Serif" font-size="10.00"> </text>
<polyline fill="none" stroke="black" points="356.23,-603.5 479.23,-603.5 "/>
<text text-anchor="middle" x="417.73" y="-591.5" font-family="Helvetica,sans-Serif" font-size="10.00"> </text>
</a>
</g>
</g>
<!-- Node3&#45;&gt;Node5 -->
<g id="edge5" class="edge">
<title>Node3&#45;&gt;Node5</title>
<path fill="none" stroke="#404040" d="M141.85,-725.25C173.68,-708.23 230.58,-679.16 281.73,-660 306.62,-650.68 316.13,-651.21 344.19,-642.61"/>
<polygon fill="none" stroke="#404040" points="344.5,-642.51 348.98,-636.86 355.92,-638.82 351.44,-644.47 344.5,-642.51"/>
<text text-anchor="middle" x="324.73" y="-685" font-family="Helvetica,sans-Serif" font-size="10.00"> +amplitude</text>
<text text-anchor="start" x="281.73" y="-674" font-family="Helvetica,sans-Serif" font-size="10.00">+call_sign_pause</text>
<text text-anchor="middle" x="324.73" y="-663" font-family="Helvetica,sans-Serif" font-size="10.00">_seconds</text>
</g>
<!-- Node4 -->
<g id="node4" class="node">
<title>Node4</title>
<g id="a_node4"><a xlink:title=" ">
<polygon fill="none" stroke="#bfbfbf" points="233.73,-584.5 233.73,-641.5 337.73,-641.5 337.73,-584.5 233.73,-584.5"/>
<text text-anchor="middle" x="285.73" y="-629.5" font-family="Helvetica,sans-Serif" font-size="10.00">vector&lt; int16_t &gt;</text>
<polyline fill="none" stroke="#bfbfbf" points="233.73,-622.5 337.73,-622.5 "/>
<text text-anchor="middle" x="285.73" y="-610.5" font-family="Helvetica,sans-Serif" font-size="10.00"> </text>
<polyline fill="none" stroke="#bfbfbf" points="233.73,-603.5 337.73,-603.5 "/>
<text text-anchor="middle" x="285.73" y="-591.5" font-family="Helvetica,sans-Serif" font-size="10.00"> </text>
</a>
</g>
</g>
<!-- Node4&#45;&gt;Node2 -->
<g id="edge3" class="edge">
<title>Node4&#45;&gt;Node2</title>
<path fill="none" stroke="#404040" d="M284.83,-584.47C283.8,-545.87 282.73,-473.5 286.73,-412 286.87,-409.94 287.02,-407.85 287.18,-405.75"/>
<polygon fill="none" stroke="#404040" points="287.2,-405.52 283.74,-399.19 288.24,-393.57 291.71,-399.89 287.2,-405.52"/>
<text text-anchor="middle" x="325.73" y="-486.5" font-family="Helvetica,sans-Serif" font-size="10.00"> #audio_buffer_</text>
</g>
<!-- Node5&#45;&gt;Node2 -->
<g id="edge4" class="edge">
<title>Node5&#45;&gt;Node2</title>
<path fill="none" stroke="#404040" d="M393.88,-584.41C389.91,-578.64 386.27,-572.36 383.73,-566 358.18,-501.95 389.27,-476.45 364.73,-412 363.82,-409.61 362.84,-407.22 361.8,-404.84"/>
<polygon fill="none" stroke="#404040" points="361.68,-404.59 355.47,-400.92 356.48,-393.78 362.69,-397.45 361.68,-404.59"/>
<text text-anchor="middle" x="411.73" y="-486.5" font-family="Helvetica,sans-Serif" font-size="10.00"> #settings_</text>
</g>
<!-- Node11 -->
<g id="node11" class="node">
<title>Node11</title>
<g id="a_node11"><a xlink:href="structsignal__easel_1_1sstv_1_1Settings.html" target="_top" xlink:title="Settings for SSTV modulation.">
<polygon fill="none" stroke="black" points="405.73,-281.5 405.73,-349.5 509.73,-349.5 509.73,-281.5 405.73,-281.5"/>
<text text-anchor="start" x="413.73" y="-337.5" font-family="Helvetica,sans-Serif" font-size="10.00">signal_easel::sstv</text>
<text text-anchor="middle" x="457.73" y="-326.5" font-family="Helvetica,sans-Serif" font-size="10.00">::Settings</text>
<polyline fill="none" stroke="black" points="405.73,-319.5 509.73,-319.5 "/>
<text text-anchor="middle" x="457.73" y="-307.5" font-family="Helvetica,sans-Serif" font-size="10.00"> </text>
<polyline fill="none" stroke="black" points="405.73,-300.5 509.73,-300.5 "/>
<text text-anchor="middle" x="457.73" y="-288.5" font-family="Helvetica,sans-Serif" font-size="10.00"> </text>
</a>
</g>
</g>
<!-- Node5&#45;&gt;Node11 -->
<g id="edge13" class="edge">
<title>Node5&#45;&gt;Node11</title>
<path fill="none" stroke="midnightblue" d="M440.51,-574.95C441.76,-571.99 442.86,-568.98 443.73,-566 465.71,-491.06 463.7,-398.16 460.57,-349.6"/>
<polygon fill="none" stroke="midnightblue" points="437.24,-573.66 436.1,-584.2 443.56,-576.67 437.24,-573.66"/>
</g>
<!-- Node6 -->
<g id="node6" class="node">
<title>Node6</title>
<g id="a_node6"><a xlink:title=" ">
<polygon fill="none" stroke="#bfbfbf" points="417.23,-711.5 417.23,-768.5 500.23,-768.5 500.23,-711.5 417.23,-711.5"/>
<text text-anchor="middle" x="458.73" y="-756.5" font-family="Helvetica,sans-Serif" font-size="10.00">CallSignMode</text>
<polyline fill="none" stroke="#bfbfbf" points="417.23,-749.5 500.23,-749.5 "/>
<text text-anchor="middle" x="458.73" y="-737.5" font-family="Helvetica,sans-Serif" font-size="10.00"> </text>
<polyline fill="none" stroke="#bfbfbf" points="417.23,-730.5 500.23,-730.5 "/>
<text text-anchor="middle" x="458.73" y="-718.5" font-family="Helvetica,sans-Serif" font-size="10.00"> </text>
</a>
</g>
</g>
<!-- Node6&#45;&gt;Node5 -->
<g id="edge6" class="edge">
<title>Node6&#45;&gt;Node5</title>
<path fill="none" stroke="#404040" d="M451.35,-711.39C447.11,-696.13 441.49,-676.9 435.73,-660 434.93,-657.65 434.09,-655.25 433.21,-652.83"/>
<polygon fill="none" stroke="#404040" points="433.2,-652.82 427.35,-648.6 428.99,-641.58 434.84,-645.79 433.2,-652.82"/>
<text text-anchor="middle" x="489.73" y="-674" font-family="Helvetica,sans-Serif" font-size="10.00"> +call_sign_mode</text>
</g>
<!-- Node7 -->
<g id="node7" class="node">
<title>Node7</title>
<g id="a_node7"><a xlink:title=" ">
<polygon fill="none" stroke="#bfbfbf" points="354.73,-711.5 354.73,-768.5 398.73,-768.5 398.73,-711.5 354.73,-711.5"/>
<text text-anchor="middle" x="376.73" y="-756.5" font-family="Helvetica,sans-Serif" font-size="10.00">string</text>
<polyline fill="none" stroke="#bfbfbf" points="354.73,-749.5 398.73,-749.5 "/>
<text text-anchor="middle" x="376.73" y="-737.5" font-family="Helvetica,sans-Serif" font-size="10.00"> </text>
<polyline fill="none" stroke="#bfbfbf" points="354.73,-730.5 398.73,-730.5 "/>
<text text-anchor="middle" x="376.73" y="-718.5" font-family="Helvetica,sans-Serif" font-size="10.00"> </text>
</a>
</g>
</g>
<!-- Node7&#45;&gt;Node5 -->
<g id="edge7" class="edge">
<title>Node7&#45;&gt;Node5</title>
<path fill="none" stroke="#404040" d="M372.01,-711.44C370.48,-695.85 370.53,-676.28 376.73,-660 377.83,-657.11 379.21,-654.29 380.78,-651.56"/>
<polygon fill="none" stroke="#404040" points="380.88,-651.41 380.97,-644.19 387.66,-641.5 387.57,-648.71 380.88,-651.41"/>
<text text-anchor="middle" x="404.23" y="-674" font-family="Helvetica,sans-Serif" font-size="10.00"> +call_sign</text>
</g>
<!-- Node8 -->
<g id="node8" class="node">
<title>Node8</title>
<g id="a_node8"><a xlink:title=" ">
<polygon fill="none" stroke="#bfbfbf" points="528.23,-287 528.23,-344 605.23,-344 605.23,-287 528.23,-287"/>
<text text-anchor="middle" x="566.73" y="-332" font-family="Helvetica,sans-Serif" font-size="10.00">ColorFormat</text>
<polyline fill="none" stroke="#bfbfbf" points="528.23,-325 605.23,-325 "/>
<text text-anchor="middle" x="566.73" y="-313" font-family="Helvetica,sans-Serif" font-size="10.00"> </text>
<polyline fill="none" stroke="#bfbfbf" points="528.23,-306 605.23,-306 "/>
<text text-anchor="middle" x="566.73" y="-294" font-family="Helvetica,sans-Serif" font-size="10.00"> </text>
</a>
</g>
</g>
<!-- Node8&#45;&gt;Node1 -->
<g id="edge8" class="edge">
<title>Node8&#45;&gt;Node1</title>
<path fill="none" stroke="#404040" d="M568.67,-286.99C571.61,-257.87 578.89,-211.22 596.73,-175 598.17,-172.08 599.71,-169.18 601.35,-166.3"/>
<polygon fill="none" stroke="#404040" points="601.39,-166.24 601.1,-159.04 607.64,-156 607.93,-163.2 601.39,-166.24"/>
<text text-anchor="middle" x="634.23" y="-194.5" font-family="Helvetica,sans-Serif" font-size="10.00"> &#45;color_format_</text>
</g>
<!-- Node9 -->
<g id="node9" class="node">
<title>Node9</title>
<g id="a_node9"><a xlink:title=" ">
<polygon fill="none" stroke="#bfbfbf" points="623.23,-281.5 623.23,-349.5 766.23,-349.5 766.23,-281.5 623.23,-281.5"/>
<text text-anchor="start" x="631.23" y="-337.5" font-family="Helvetica,sans-Serif" font-size="10.00">vector&lt; signal_easel</text>
<text text-anchor="middle" x="694.73" y="-326.5" font-family="Helvetica,sans-Serif" font-size="10.00">::sstv::Modulator::YCbCr &gt;</text>
<polyline fill="none" stroke="#bfbfbf" points="623.23,-319.5 766.23,-319.5 "/>
<text text-anchor="middle" x="694.73" y="-307.5" font-family="Helvetica,sans-Serif" font-size="10.00"> </text>
<polyline fill="none" stroke="#bfbfbf" points="623.23,-300.5 766.23,-300.5 "/>
<text text-anchor="middle" x="694.73" y="-288.5" font-family="Helvetica,sans-Serif" font-size="10.00"> </text>
</a>
</g>
</g>
<!-- Node9&#45;&gt;Node1 -->
<g id="edge10" class="edge">
<title>Node9&#45;&gt;Node1</title>
<path fill="none" stroke="#404040" d="M687.8,-281.08C684.35,-262.82 680.54,-239.77 678.73,-219 677.33,-202.79 676.59,-185.48 676.27,-168.76"/>
<polygon fill="none" stroke="#404040" points="676.27,-168.71 672.18,-162.77 676.1,-156.71 680.18,-162.66 676.27,-168.71"/>
<text text-anchor="middle" x="724.73" y="-194.5" font-family="Helvetica,sans-Serif" font-size="10.00"> &#45;scan_line_buffer_</text>
</g>
<!-- Node10 -->
<g id="node10" class="node">
<title>Node10</title>
<g id="a_node10"><a xlink:title=" ">
<polygon fill="none" stroke="#bfbfbf" points="784.73,-287 784.73,-344 828.73,-344 828.73,-287 784.73,-287"/>
<text text-anchor="middle" x="806.73" y="-332" font-family="Helvetica,sans-Serif" font-size="10.00">Mode</text>
<polyline fill="none" stroke="#bfbfbf" points="784.73,-325 828.73,-325 "/>
<text text-anchor="middle" x="806.73" y="-313" font-family="Helvetica,sans-Serif" font-size="10.00"> </text>
<polyline fill="none" stroke="#bfbfbf" points="784.73,-306 828.73,-306 "/>
<text text-anchor="middle" x="806.73" y="-294" font-family="Helvetica,sans-Serif" font-size="10.00"> </text>
</a>
</g>
</g>
<!-- Node10&#45;&gt;Node1 -->
<g id="edge11" class="edge">
<title>Node10&#45;&gt;Node1</title>
<path fill="none" stroke="#404040" d="M803.88,-286.98C799.9,-257.66 790.78,-210.64 770.73,-175 766.4,-167.3 761.3,-159.78 755.75,-152.55"/>
<polygon fill="none" stroke="#404040" points="755.47,-152.21 748.59,-150.06 747.93,-142.88 754.81,-145.03 755.47,-152.21"/>
<text text-anchor="middle" x="851.73" y="-194.5" font-family="Helvetica,sans-Serif" font-size="10.00"> &#45;sstv_image_tools_mode</text>
</g>
<!-- Node11&#45;&gt;Node1 -->
<g id="edge12" class="edge">
<title>Node11&#45;&gt;Node1</title>
<path fill="none" stroke="#404040" d="M467.43,-281.25C477.6,-250.87 495.99,-206.08 523.73,-175 544.08,-152.21 571.15,-132.96 596.92,-117.86"/>
<polygon fill="none" stroke="#404040" points="597.05,-117.79 600.28,-111.34 607.48,-111.85 604.24,-118.3 597.05,-117.79"/>
<text text-anchor="middle" x="549.73" y="-194.5" font-family="Helvetica,sans-Serif" font-size="10.00"> &#45;settings_</text>
</g>
<!-- Node12 -->
<g id="node12" class="node">
<title>Node12</title>
<g id="a_node12"><a xlink:title=" ">
<polygon fill="none" stroke="#bfbfbf" points="497.73,-584.5 497.73,-641.5 535.73,-641.5 535.73,-584.5 497.73,-584.5"/>
<text text-anchor="middle" x="516.73" y="-629.5" font-family="Helvetica,sans-Serif" font-size="10.00">bool</text>
<polyline fill="none" stroke="#bfbfbf" points="497.73,-622.5 535.73,-622.5 "/>
<text text-anchor="middle" x="516.73" y="-610.5" font-family="Helvetica,sans-Serif" font-size="10.00"> </text>
<polyline fill="none" stroke="#bfbfbf" points="497.73,-603.5 535.73,-603.5 "/>
<text text-anchor="middle" x="516.73" y="-591.5" font-family="Helvetica,sans-Serif" font-size="10.00"> </text>
</a>
</g>
</g>
<!-- Node12&#45;&gt;Node11 -->
<g id="edge14" class="edge">
<title>Node12&#45;&gt;Node11</title>
<path fill="none" stroke="#404040" d="M509.19,-584.34C507.64,-578.32 506.07,-571.96 504.73,-566 488.81,-495.03 473.89,-411.89 465.29,-361.75"/>
<polygon fill="none" stroke="#404040" points="465.26,-361.57 460.31,-356.33 463.24,-349.74 468.19,-354.99 465.26,-361.57"/>
<text text-anchor="middle" x="553.23" y="-486.5" font-family="Helvetica,sans-Serif" font-size="10.00"> +overlay_call_sign</text>
</g>
<!-- Node13 -->
<g id="node13" class="node">
<title>Node13</title>
<g id="a_node13"><a xlink:title=" ">
<polygon fill="none" stroke="#bfbfbf" points="591.23,-584.5 591.23,-641.5 656.23,-641.5 656.23,-584.5 591.23,-584.5"/>
<text text-anchor="middle" x="623.73" y="-629.5" font-family="Helvetica,sans-Serif" font-size="10.00">SstvMode</text>
<polyline fill="none" stroke="#bfbfbf" points="591.23,-622.5 656.23,-622.5 "/>
<text text-anchor="middle" x="623.73" y="-610.5" font-family="Helvetica,sans-Serif" font-size="10.00"> </text>
<polyline fill="none" stroke="#bfbfbf" points="591.23,-603.5 656.23,-603.5 "/>
<text text-anchor="middle" x="623.73" y="-591.5" font-family="Helvetica,sans-Serif" font-size="10.00"> </text>
</a>
</g>
</g>
<!-- Node13&#45;&gt;Node11 -->
<g id="edge15" class="edge">
<title>Node13&#45;&gt;Node11</title>
<path fill="none" stroke="#404040" d="M629.75,-584.43C637.31,-541.76 644.58,-459.67 601.73,-412 576.79,-384.25 551.42,-413.7 519.73,-394 505.74,-385.3 493.55,-372.29 483.77,-359.4"/>
<polygon fill="none" stroke="#404040" points="483.76,-359.39 477.01,-356.84 476.77,-349.64 483.51,-352.18 483.76,-359.39"/>
<text text-anchor="middle" x="654.73" y="-486.5" font-family="Helvetica,sans-Serif" font-size="10.00"> +mode</text>
</g>
<!-- Node14 -->
<g id="node14" class="node">
<title>Node14</title>
<g id="a_node14"><a xlink:title=" ">
<polygon fill="none" stroke="#bfbfbf" points="913.73,-287 913.73,-344 969.73,-344 969.73,-287 913.73,-287"/>
<text text-anchor="middle" x="941.73" y="-332" font-family="Helvetica,sans-Serif" font-size="10.00">uint32_t</text>
<polyline fill="none" stroke="#bfbfbf" points="913.73,-325 969.73,-325 "/>
<text text-anchor="middle" x="941.73" y="-313" font-family="Helvetica,sans-Serif" font-size="10.00"> </text>
<polyline fill="none" stroke="#bfbfbf" points="913.73,-306 969.73,-306 "/>
<text text-anchor="middle" x="941.73" y="-294" font-family="Helvetica,sans-Serif" font-size="10.00"> </text>
</a>
</g>
</g>
<!-- Node14&#45;&gt;Node1 -->
<g id="edge16" class="edge">
<title>Node14&#45;&gt;Node1</title>
<path fill="none" stroke="#404040" d="M944.67,-286.94C946.4,-256.26 944.38,-206.82 918.73,-175 879.87,-126.79 813.16,-102.81 759.77,-90.95"/>
<polygon fill="none" stroke="#404040" points="759.65,-90.92 752.95,-93.61 747.9,-88.46 754.59,-85.78 759.65,-90.92"/>
<text text-anchor="middle" x="975.23" y="-200" font-family="Helvetica,sans-Serif" font-size="10.00"> &#45;line_width_</text>
<text text-anchor="middle" x="975.23" y="-189" font-family="Helvetica,sans-Serif" font-size="10.00">&#45;num_of_lines_</text>
</g>
<!-- Node15 -->
<g id="node15" class="node">
<title>Node15</title>
<g id="a_node15"><a xlink:title=" ">
<polygon fill="none" stroke="#bfbfbf" points="1025.23,-287 1025.23,-344 1054.23,-344 1054.23,-287 1025.23,-287"/>
<text text-anchor="middle" x="1039.73" y="-332" font-family="Helvetica,sans-Serif" font-size="10.00">int</text>
<polyline fill="none" stroke="#bfbfbf" points="1025.23,-325 1054.23,-325 "/>
<text text-anchor="middle" x="1039.73" y="-313" font-family="Helvetica,sans-Serif" font-size="10.00"> </text>
<polyline fill="none" stroke="#bfbfbf" points="1025.23,-306 1054.23,-306 "/>
<text text-anchor="middle" x="1039.73" y="-294" font-family="Helvetica,sans-Serif" font-size="10.00"> </text>
</a>
</g>
</g>
<!-- Node15&#45;&gt;Node1 -->
<g id="edge17" class="edge">
<title>Node15&#45;&gt;Node1</title>
<path fill="none" stroke="#404040" d="M1043.22,-287C1045.53,-255.91 1044.14,-205.64 1016.73,-175 982.68,-136.93 848.69,-107.88 759.71,-92.28"/>
<polygon fill="none" stroke="#404040" points="759.56,-92.26 752.97,-95.18 747.74,-90.22 754.33,-87.3 759.56,-92.26"/>
<text text-anchor="start" x="1037.73" y="-211" font-family="Helvetica,sans-Serif" font-size="10.00"> &#45;even_separation_pulse</text>
<text text-anchor="middle" x="1097.73" y="-200" font-family="Helvetica,sans-Serif" font-size="10.00">_frequency_</text>
<text text-anchor="start" x="1037.73" y="-189" font-family="Helvetica,sans-Serif" font-size="10.00">&#45;odd_separation_pulse</text>
<text text-anchor="middle" x="1097.73" y="-178" font-family="Helvetica,sans-Serif" font-size="10.00">_frequency_</text>
</g>
<!-- Node16 -->
<g id="node16" class="node">
<title>Node16</title>
<g id="a_node16"><a xlink:title=" ">
<polygon fill="none" stroke="#bfbfbf" points="1157.73,-287 1157.73,-344 1207.73,-344 1207.73,-287 1157.73,-287"/>
<text text-anchor="middle" x="1182.73" y="-332" font-family="Helvetica,sans-Serif" font-size="10.00">uint8_t</text>
<polyline fill="none" stroke="#bfbfbf" points="1157.73,-325 1207.73,-325 "/>
<text text-anchor="middle" x="1182.73" y="-313" font-family="Helvetica,sans-Serif" font-size="10.00"> </text>
<polyline fill="none" stroke="#bfbfbf" points="1157.73,-306 1207.73,-306 "/>
<text text-anchor="middle" x="1182.73" y="-294" font-family="Helvetica,sans-Serif" font-size="10.00"> </text>
</a>
</g>
</g>
<!-- Node16&#45;&gt;Node1 -->
<g id="edge18" class="edge">
<title>Node16&#45;&gt;Node1</title>
<path fill="none" stroke="#404040" d="M1186.84,-286.9C1189.84,-255.49 1189.29,-204.69 1160.73,-175 1106.59,-118.72 883.67,-94.13 760.49,-84.66"/>
<polygon fill="none" stroke="#404040" points="760.13,-84.63 753.84,-88.17 748.16,-83.74 754.44,-80.2 760.13,-84.63"/>
<text text-anchor="middle" x="1210.23" y="-194.5" font-family="Helvetica,sans-Serif" font-size="10.00"> &#45;vis_code_</text>
</g>
</g>
</svg>
