<?xml version="1.0" encoding="UTF-8" standalone="no"?>
<!DOCTYPE svg PUBLIC "-//W3C//DTD SVG 1.1//EN"
 "http://www.w3.org/Graphics/SVG/1.1/DTD/svg11.dtd">
<!-- Generated by graphviz version 2.43.0 (0)
 -->
<!-- Title: signal_easel::BitStream::addBits Pages: 1 -->
<svg width="1009pt" height="220pt"
 viewBox="0.00 0.00 1009.00 220.00" xmlns="http://www.w3.org/2000/svg" xmlns:xlink="http://www.w3.org/1999/xlink">
<g id="graph0" class="graph" transform="scale(1 1) rotate(0) translate(4 216)">
<title>signal_easel::BitStream::addBits</title>
<!-- Node1 -->
<g id="node1" class="node">
<title>Node1</title>
<g id="a_node1"><a xlink:title=" ">
<polygon fill="#bfbfbf" stroke="black" points="869,-118 869,-148 1001,-148 1001,-118 869,-118"/>
<text text-anchor="start" x="877" y="-136" font-family="Helvetica,sans-Serif" font-size="10.00">signal_easel::BitStream</text>
<text text-anchor="middle" x="935" y="-125" font-family="Helvetica,sans-Serif" font-size="10.00">::addBits</text>
</a>
</g>
</g>
<!-- Node2 -->
<g id="node2" class="node">
<title>Node2</title>
<g id="a_node2"><a xlink:href="classsignal__easel_1_1BitStream.html#a81d4aea4c11f65e0c2b7ad2f0f0cc312" target="_top" xlink:title=" ">
<polygon fill="none" stroke="black" points="701,-118 701,-148 833,-148 833,-118 701,-118"/>
<text text-anchor="start" x="709" y="-136" font-family="Helvetica,sans-Serif" font-size="10.00">signal_easel::BitStream</text>
<text text-anchor="middle" x="767" y="-125" font-family="Helvetica,sans-Serif" font-size="10.00">::addOneBit</text>
</a>
</g>
</g>
<!-- Node1&#45;&gt;Node2 -->
<g id="edge1" class="edge">
<title>Node1&#45;&gt;Node2</title>
<path fill="none" stroke="midnightblue" d="M858.61,-133C850.13,-133 841.55,-133 833.22,-133"/>
<polygon fill="midnightblue" stroke="midnightblue" points="858.87,-136.5 868.87,-133 858.87,-129.5 858.87,-136.5"/>
</g>
<!-- Node8 -->
<g id="node8" class="node">
<title>Node8</title>
<g id="a_node8"><a xlink:href="classsignal__easel_1_1ax25_1_1Frame.html#a2b4f6ebcb7592a7e5a21114c8fafa503" target="_top" xlink:title="A step beyond buildFrame. This function builds the frame, does the bit stuffing, adds the flags,...">
<polygon fill="none" stroke="black" points="540,-110 540,-140 665,-140 665,-110 540,-110"/>
<text text-anchor="start" x="548" y="-128" font-family="Helvetica,sans-Serif" font-size="10.00">signal_easel::ax25</text>
<text text-anchor="middle" x="602.5" y="-117" font-family="Helvetica,sans-Serif" font-size="10.00">::Frame::encodeFrame</text>
</a>
</g>
</g>
<!-- Node1&#45;&gt;Node8 -->
<g id="edge16" class="edge">
<title>Node1&#45;&gt;Node8</title>
<path fill="none" stroke="midnightblue" d="M873.62,-115.53C860.35,-112.4 846.29,-109.62 833,-108 774.76,-100.9 759.45,-102.94 701,-108 689.36,-109.01 677.02,-110.68 665.18,-112.59"/>
<polygon fill="midnightblue" stroke="midnightblue" points="873.04,-118.99 883.59,-117.97 874.71,-112.19 873.04,-118.99"/>
</g>
<!-- Node13 -->
<g id="node13" class="node">
<title>Node13</title>
<g id="a_node13"><a xlink:href="classsignal__easel_1_1BitStream.html#abb315beec8c4d88115d9d4ec5f082863" target="_top" xlink:title=" ">
<polygon fill="none" stroke="black" points="701,-167 701,-197 833,-197 833,-167 701,-167"/>
<text text-anchor="start" x="709" y="-185" font-family="Helvetica,sans-Serif" font-size="10.00">signal_easel::BitStream</text>
<text text-anchor="middle" x="767" y="-174" font-family="Helvetica,sans-Serif" font-size="10.00">::addZeroBit</text>
</a>
</g>
</g>
<!-- Node1&#45;&gt;Node13 -->
<g id="edge13" class="edge">
<title>Node1&#45;&gt;Node13</title>
<path fill="none" stroke="midnightblue" d="M873.13,-150.97C855.35,-156.22 836.1,-161.9 818.99,-166.95"/>
<polygon fill="midnightblue" stroke="midnightblue" points="874.24,-154.29 882.84,-148.1 872.26,-147.58 874.24,-154.29"/>
</g>
<!-- Node3 -->
<g id="node3" class="node">
<title>Node3</title>
<g id="a_node3"><a xlink:href="namespacesignal__easel_1_1ax25.html#a84e1d1bf82ef828a150bc94cf065e396" target="_top" xlink:title="Convert a bit stream from NRZI to standard encoding.">
<polygon fill="none" stroke="black" points="549,-167 549,-197 656,-197 656,-167 549,-167"/>
<text text-anchor="start" x="557" y="-185" font-family="Helvetica,sans-Serif" font-size="10.00">signal_easel::ax25</text>
<text text-anchor="middle" x="602.5" y="-174" font-family="Helvetica,sans-Serif" font-size="10.00">::decodeNrzi</text>
</a>
</g>
</g>
<!-- Node2&#45;&gt;Node3 -->
<g id="edge2" class="edge">
<title>Node2&#45;&gt;Node3</title>
<path fill="none" stroke="midnightblue" d="M705.93,-151.11C688.66,-156.32 670.01,-161.95 653.42,-166.95"/>
<polygon fill="midnightblue" stroke="midnightblue" points="707.35,-154.34 715.92,-148.1 705.33,-147.64 707.35,-154.34"/>
</g>
<!-- Node2&#45;&gt;Node8 -->
<g id="edge7" class="edge">
<title>Node2&#45;&gt;Node8</title>
<path fill="none" stroke="midnightblue" d="M690.84,-129.3C682.27,-128.88 673.61,-128.45 665.24,-128.04"/>
<polygon fill="midnightblue" stroke="midnightblue" points="690.68,-132.8 700.84,-129.79 691.03,-125.8 690.68,-132.8"/>
</g>
<!-- Node4 -->
<g id="node4" class="node">
<title>Node4</title>
<g id="a_node4"><a xlink:href="classsignal__easel_1_1ax25_1_1Frame.html#a63cf2362c2a90d20f09bbbc4f24a07ba" target="_top" xlink:title="Attempt to parse an incoming bit stream into an AX.25 frame.">
<polygon fill="none" stroke="black" points="361.5,-171 361.5,-201 496.5,-201 496.5,-171 361.5,-171"/>
<text text-anchor="start" x="369.5" y="-189" font-family="Helvetica,sans-Serif" font-size="10.00">signal_easel::ax25</text>
<text text-anchor="middle" x="429" y="-178" font-family="Helvetica,sans-Serif" font-size="10.00">::Frame::parseBitStream</text>
</a>
</g>
</g>
<!-- Node3&#45;&gt;Node4 -->
<g id="edge3" class="edge">
<title>Node3&#45;&gt;Node4</title>
<path fill="none" stroke="midnightblue" d="M538.42,-183.47C524.8,-183.79 510.37,-184.13 496.62,-184.45"/>
<polygon fill="midnightblue" stroke="midnightblue" points="538.73,-186.97 548.64,-183.23 538.57,-179.97 538.73,-186.97"/>
</g>
<!-- Node5 -->
<g id="node5" class="node">
<title>Node5</title>
<g id="a_node5"><a xlink:href="classsignal__easel_1_1aprs_1_1Demodulator.html#ae5a8e7634c1bc8d215a0c454a9a737fa" target="_top" xlink:title=" ">
<polygon fill="none" stroke="black" points="154,-170.5 154,-211.5 307,-211.5 307,-170.5 154,-170.5"/>
<text text-anchor="start" x="162" y="-199.5" font-family="Helvetica,sans-Serif" font-size="10.00">signal_easel::aprs</text>
<text text-anchor="start" x="162" y="-188.5" font-family="Helvetica,sans-Serif" font-size="10.00">::Demodulator::lookForAx25</text>
<text text-anchor="middle" x="230.5" y="-177.5" font-family="Helvetica,sans-Serif" font-size="10.00">Packet</text>
</a>
</g>
</g>
<!-- Node4&#45;&gt;Node5 -->
<g id="edge4" class="edge">
<title>Node4&#45;&gt;Node5</title>
<path fill="none" stroke="midnightblue" d="M351.08,-187.96C336.62,-188.33 321.51,-188.71 307.09,-189.08"/>
<polygon fill="midnightblue" stroke="midnightblue" points="351.57,-191.45 361.47,-187.69 351.39,-184.45 351.57,-191.45"/>
</g>
<!-- Node6 -->
<g id="node6" class="node">
<title>Node6</title>
<g id="a_node6"><a xlink:href="classsignal__easel_1_1aprs_1_1Receiver.html#afbf7869aceaf2ea7ab0be8b9af16e818" target="_top" xlink:title=" ">
<polygon fill="none" stroke="black" points="0,-176 0,-206 107,-206 107,-176 0,-176"/>
<text text-anchor="start" x="8" y="-194" font-family="Helvetica,sans-Serif" font-size="10.00">signal_easel::aprs</text>
<text text-anchor="middle" x="53.5" y="-183" font-family="Helvetica,sans-Serif" font-size="10.00">::Receiver::decode</text>
</a>
</g>
</g>
<!-- Node5&#45;&gt;Node6 -->
<g id="edge5" class="edge">
<title>Node5&#45;&gt;Node6</title>
<path fill="none" stroke="midnightblue" d="M143.4,-191C131.04,-191 118.63,-191 107.18,-191"/>
<polygon fill="midnightblue" stroke="midnightblue" points="143.76,-194.5 153.76,-191 143.76,-187.5 143.76,-194.5"/>
</g>
<!-- Node7 -->
<g id="node7" class="node">
<title>Node7</title>
<g id="a_node7"><a xlink:href="aprs__test_8cpp.html#aea66d1824e3f1e27598adf99ac6a089a" target="_top" xlink:title=" ">
<polygon fill="none" stroke="black" points="33,-129.5 33,-148.5 74,-148.5 74,-129.5 33,-129.5"/>
<text text-anchor="middle" x="53.5" y="-136.5" font-family="Helvetica,sans-Serif" font-size="10.00">TEST</text>
</a>
</g>
</g>
<!-- Node5&#45;&gt;Node7 -->
<g id="edge6" class="edge">
<title>Node5&#45;&gt;Node7</title>
<path fill="none" stroke="midnightblue" d="M150.45,-167.51C122.32,-159.15 93.02,-150.44 74.31,-144.89"/>
<polygon fill="midnightblue" stroke="midnightblue" points="149.75,-170.95 160.34,-170.45 151.75,-164.24 149.75,-170.95"/>
</g>
<!-- Node9 -->
<g id="node9" class="node">
<title>Node9</title>
<g id="a_node9"><a xlink:href="namespacesignal__easel.html#aad3ffdd47a4a03ed438e8c1ca9eef231" target="_top" xlink:title=" ">
<polygon fill="none" stroke="black" points="354,-82.5 354,-101.5 504,-101.5 504,-82.5 354,-82.5"/>
<text text-anchor="middle" x="429" y="-89.5" font-family="Helvetica,sans-Serif" font-size="10.00">signal_easel::encodePacket</text>
</a>
</g>
</g>
<!-- Node8&#45;&gt;Node9 -->
<g id="edge8" class="edge">
<title>Node8&#45;&gt;Node9</title>
<path fill="none" stroke="midnightblue" d="M529.73,-111.19C512.81,-107.93 495.14,-104.53 479.46,-101.52"/>
<polygon fill="midnightblue" stroke="midnightblue" points="529.1,-114.63 539.58,-113.09 530.43,-107.76 529.1,-114.63"/>
</g>
<!-- Node10 -->
<g id="node10" class="node">
<title>Node10</title>
<g id="a_node10"><a xlink:href="classsignal__easel_1_1aprs_1_1Modulator.html#adfa8809d1c11321b9ff2c7efe7f58499" target="_top" xlink:title=" ">
<polygon fill="none" stroke="black" points="143,-61 143,-91 318,-91 318,-61 143,-61"/>
<text text-anchor="start" x="151" y="-79" font-family="Helvetica,sans-Serif" font-size="10.00">signal_easel::aprs</text>
<text text-anchor="middle" x="230.5" y="-68" font-family="Helvetica,sans-Serif" font-size="10.00">::Modulator::encodeMessageAck</text>
</a>
</g>
</g>
<!-- Node9&#45;&gt;Node10 -->
<g id="edge9" class="edge">
<title>Node9&#45;&gt;Node10</title>
<path fill="none" stroke="midnightblue" d="M343.79,-85.14C335.36,-84.46 326.79,-83.76 318.33,-83.07"/>
<polygon fill="midnightblue" stroke="midnightblue" points="343.74,-88.65 353.99,-85.97 344.31,-81.67 343.74,-88.65"/>
</g>
<!-- Node11 -->
<g id="node11" class="node">
<title>Node11</title>
<g id="a_node11"><a xlink:href="classsignal__easel_1_1aprs_1_1Modulator.html#a147321b48c2e282c62863f114702e54f" target="_top" xlink:title=" ">
<polygon fill="none" stroke="black" points="152,-110.5 152,-151.5 309,-151.5 309,-110.5 152,-110.5"/>
<text text-anchor="start" x="160" y="-139.5" font-family="Helvetica,sans-Serif" font-size="10.00">signal_easel::aprs</text>
<text text-anchor="start" x="160" y="-128.5" font-family="Helvetica,sans-Serif" font-size="10.00">::Modulator::encodeMessage</text>
<text text-anchor="middle" x="230.5" y="-117.5" font-family="Helvetica,sans-Serif" font-size="10.00">Packet</text>
</a>
</g>
</g>
<!-- Node9&#45;&gt;Node11 -->
<g id="edge10" class="edge">
<title>Node9&#45;&gt;Node11</title>
<path fill="none" stroke="midnightblue" d="M369.94,-103.52C350.95,-107.29 329.52,-111.54 309.31,-115.56"/>
<polygon fill="midnightblue" stroke="midnightblue" points="370.8,-106.92 379.93,-101.54 369.44,-100.05 370.8,-106.92"/>
</g>
<!-- Node12 -->
<g id="node12" class="node">
<title>Node12</title>
<g id="a_node12"><a xlink:href="classsignal__easel_1_1aprs_1_1Modulator.html#a943e392227656943d7db842e1889d805" target="_top" xlink:title=" ">
<polygon fill="none" stroke="black" points="154.5,-0.5 154.5,-41.5 306.5,-41.5 306.5,-0.5 154.5,-0.5"/>
<text text-anchor="start" x="162.5" y="-29.5" font-family="Helvetica,sans-Serif" font-size="10.00">signal_easel::aprs</text>
<text text-anchor="start" x="162.5" y="-18.5" font-family="Helvetica,sans-Serif" font-size="10.00">::Modulator::encodePosition</text>
<text text-anchor="middle" x="230.5" y="-7.5" font-family="Helvetica,sans-Serif" font-size="10.00">Packet</text>
</a>
</g>
</g>
<!-- Node9&#45;&gt;Node12 -->
<g id="edge12" class="edge">
<title>Node9&#45;&gt;Node12</title>
<path fill="none" stroke="midnightblue" d="M393.3,-78.84C371.69,-70.69 343.28,-60.09 318,-51 309.47,-47.93 300.46,-44.74 291.59,-41.64"/>
<polygon fill="midnightblue" stroke="midnightblue" points="392.13,-82.13 402.72,-82.39 394.6,-75.58 392.13,-82.13"/>
</g>
<!-- Node11&#45;&gt;Node7 -->
<g id="edge11" class="edge">
<title>Node11&#45;&gt;Node7</title>
<path fill="none" stroke="midnightblue" d="M141.85,-135.01C116.36,-136.17 90.88,-137.34 74.08,-138.1"/>
<polygon fill="midnightblue" stroke="midnightblue" points="142.15,-138.5 151.98,-134.54 141.83,-131.5 142.15,-138.5"/>
</g>
<!-- Node13&#45;&gt;Node3 -->
<g id="edge14" class="edge">
<title>Node13&#45;&gt;Node3</title>
<path fill="none" stroke="midnightblue" d="M690.67,-182C679.02,-182 667.2,-182 656.19,-182"/>
<polygon fill="midnightblue" stroke="midnightblue" points="690.84,-185.5 700.84,-182 690.84,-178.5 690.84,-185.5"/>
</g>
<!-- Node13&#45;&gt;Node8 -->
<g id="edge15" class="edge">
<title>Node13&#45;&gt;Node8</title>
<path fill="none" stroke="midnightblue" d="M713.21,-163.48C691.63,-155.91 666.99,-147.27 646.54,-140.1"/>
<polygon fill="midnightblue" stroke="midnightblue" points="712.28,-166.87 722.88,-166.87 714.6,-160.26 712.28,-166.87"/>
</g>
</g>
</svg>
