<?xml version="1.0" encoding="UTF-8" standalone="no"?>
<!DOCTYPE svg PUBLIC "-//W3C//DTD SVG 1.1//EN"
 "http://www.w3.org/Graphics/SVG/1.1/DTD/svg11.dtd">
<!-- Generated by graphviz version 2.43.0 (0)
 -->
<!-- Title: signal_easel::aprs::Demodulator Pages: 1 -->
<svg width="1357pt" height="1058pt"
 viewBox="0.00 0.00 1357.00 1058.00" xmlns="http://www.w3.org/2000/svg" xmlns:xlink="http://www.w3.org/1999/xlink">
<g id="graph0" class="graph" transform="scale(1 1) rotate(0) translate(4 1054)">
<title>signal_easel::aprs::Demodulator</title>
<!-- Node1 -->
<g id="node1" class="node">
<title>Node1</title>
<g id="a_node1"><a xlink:title=" ">
<polygon fill="#bfbfbf" stroke="black" points="790.5,-0.5 790.5,-112.5 927.5,-112.5 927.5,-0.5 790.5,-0.5"/>
<text text-anchor="start" x="798.5" y="-100.5" font-family="Helvetica,sans-Serif" font-size="10.00">signal_easel::aprs</text>
<text text-anchor="middle" x="859" y="-89.5" font-family="Helvetica,sans-Serif" font-size="10.00">::Demodulator</text>
<polyline fill="none" stroke="black" points="790.5,-82.5 927.5,-82.5 "/>
<text text-anchor="middle" x="859" y="-70.5" font-family="Helvetica,sans-Serif" font-size="10.00"> </text>
<polyline fill="none" stroke="black" points="790.5,-63.5 927.5,-63.5 "/>
<text text-anchor="start" x="798.5" y="-51.5" font-family="Helvetica,sans-Serif" font-size="10.00">+ Demodulator()</text>
<text text-anchor="start" x="798.5" y="-40.5" font-family="Helvetica,sans-Serif" font-size="10.00">+ getType()</text>
<text text-anchor="start" x="798.5" y="-29.5" font-family="Helvetica,sans-Serif" font-size="10.00">+ lookForAx25Packet()</text>
<text text-anchor="start" x="798.5" y="-18.5" font-family="Helvetica,sans-Serif" font-size="10.00">+ parseMessagePacket()</text>
<text text-anchor="start" x="798.5" y="-7.5" font-family="Helvetica,sans-Serif" font-size="10.00">+ printFrame()</text>
</a>
</g>
</g>
<!-- Node2 -->
<g id="node2" class="node">
<title>Node2</title>
<g id="a_node2"><a xlink:href="classsignal__easel_1_1afsk_1_1Demodulator.html" target="_top" xlink:title="Demodulates an AFSK signal into data.">
<polygon fill="none" stroke="black" points="434,-259.5 434,-382.5 610,-382.5 610,-259.5 434,-259.5"/>
<text text-anchor="start" x="442" y="-370.5" font-family="Helvetica,sans-Serif" font-size="10.00">signal_easel::afsk</text>
<text text-anchor="middle" x="522" y="-359.5" font-family="Helvetica,sans-Serif" font-size="10.00">::Demodulator</text>
<polyline fill="none" stroke="black" points="434,-352.5 610,-352.5 "/>
<text text-anchor="middle" x="522" y="-340.5" font-family="Helvetica,sans-Serif" font-size="10.00"> </text>
<polyline fill="none" stroke="black" points="434,-333.5 610,-333.5 "/>
<text text-anchor="start" x="442" y="-321.5" font-family="Helvetica,sans-Serif" font-size="10.00">+ Demodulator()</text>
<text text-anchor="start" x="442" y="-310.5" font-family="Helvetica,sans-Serif" font-size="10.00">+ ~Demodulator()</text>
<text text-anchor="start" x="442" y="-299.5" font-family="Helvetica,sans-Serif" font-size="10.00">+ lookForString()</text>
<text text-anchor="start" x="442" y="-288.5" font-family="Helvetica,sans-Serif" font-size="10.00">+ processAudioBuffer()</text>
<text text-anchor="start" x="442" y="-277.5" font-family="Helvetica,sans-Serif" font-size="10.00">&#45; audioBufferToBaseBandSignal()</text>
<text text-anchor="start" x="442" y="-266.5" font-family="Helvetica,sans-Serif" font-size="10.00">&#45; baseBandToBitStream()</text>
</a>
</g>
</g>
<!-- Node2&#45;&gt;Node1 -->
<g id="edge1" class="edge">
<title>Node2&#45;&gt;Node1</title>
<path fill="none" stroke="midnightblue" d="M607.96,-253.05C664.51,-209 737.53,-152.12 790.23,-111.07"/>
<polygon fill="none" stroke="midnightblue" points="605.48,-250.54 599.74,-259.45 609.78,-256.06 605.48,-250.54"/>
</g>
<!-- Node3 -->
<g id="node3" class="node">
<title>Node3</title>
<g id="a_node3"><a xlink:href="classsignal__easel_1_1Demodulator.html" target="_top" xlink:title="The base class for all demodulators that turn audio into data.">
<polygon fill="none" stroke="black" points="94.5,-601 94.5,-702 241.5,-702 241.5,-601 94.5,-601"/>
<text text-anchor="middle" x="168" y="-690" font-family="Helvetica,sans-Serif" font-size="10.00">signal_easel::Demodulator</text>
<polyline fill="none" stroke="black" points="94.5,-683 241.5,-683 "/>
<text text-anchor="middle" x="168" y="-671" font-family="Helvetica,sans-Serif" font-size="10.00"> </text>
<polyline fill="none" stroke="black" points="94.5,-664 241.5,-664 "/>
<text text-anchor="start" x="102.5" y="-652" font-family="Helvetica,sans-Serif" font-size="10.00">+ Demodulator()</text>
<text text-anchor="start" x="102.5" y="-641" font-family="Helvetica,sans-Serif" font-size="10.00">+ ~Demodulator()</text>
<text text-anchor="start" x="102.5" y="-630" font-family="Helvetica,sans-Serif" font-size="10.00">+ clearBuffer()</text>
<text text-anchor="start" x="102.5" y="-619" font-family="Helvetica,sans-Serif" font-size="10.00">+ loadAudioFromFile()</text>
<text text-anchor="start" x="102.5" y="-608" font-family="Helvetica,sans-Serif" font-size="10.00"># getAudioBuffer()</text>
</a>
</g>
</g>
<!-- Node3&#45;&gt;Node2 -->
<g id="edge2" class="edge">
<title>Node3&#45;&gt;Node2</title>
<path fill="none" stroke="midnightblue" d="M228.95,-593.94C292.47,-535 391.65,-442.96 456.73,-382.56"/>
<polygon fill="none" stroke="midnightblue" points="226.33,-591.6 221.38,-600.96 231.09,-596.73 226.33,-591.6"/>
</g>
<!-- Node4 -->
<g id="node4" class="node">
<title>Node4</title>
<g id="a_node4"><a xlink:title=" ">
<polygon fill="none" stroke="#bfbfbf" points="0,-865.5 0,-922.5 104,-922.5 104,-865.5 0,-865.5"/>
<text text-anchor="middle" x="52" y="-910.5" font-family="Helvetica,sans-Serif" font-size="10.00">vector&lt; int16_t &gt;</text>
<polyline fill="none" stroke="#bfbfbf" points="0,-903.5 104,-903.5 "/>
<text text-anchor="middle" x="52" y="-891.5" font-family="Helvetica,sans-Serif" font-size="10.00"> </text>
<polyline fill="none" stroke="#bfbfbf" points="0,-884.5 104,-884.5 "/>
<text text-anchor="middle" x="52" y="-872.5" font-family="Helvetica,sans-Serif" font-size="10.00"> </text>
</a>
</g>
</g>
<!-- Node4&#45;&gt;Node3 -->
<g id="edge3" class="edge">
<title>Node4&#45;&gt;Node3</title>
<path fill="none" stroke="#404040" d="M55.3,-865.08C59.07,-839.43 66.69,-800.85 81,-770 90.37,-749.8 103.54,-729.64 116.81,-711.87"/>
<polygon fill="none" stroke="#404040" points="116.87,-711.79 117.34,-704.59 124.16,-702.25 123.69,-709.45 116.87,-711.79"/>
<text text-anchor="middle" x="120" y="-806" font-family="Helvetica,sans-Serif" font-size="10.00"> #audio_buffer_</text>
</g>
<!-- Node5 -->
<g id="node5" class="node">
<title>Node5</title>
<g id="a_node5"><a xlink:href="structsignal__easel_1_1Settings.html" target="_top" xlink:title="The universal settings for MWAV.">
<polygon fill="none" stroke="black" points="122.5,-865.5 122.5,-922.5 245.5,-922.5 245.5,-865.5 122.5,-865.5"/>
<text text-anchor="middle" x="184" y="-910.5" font-family="Helvetica,sans-Serif" font-size="10.00">signal_easel::Settings</text>
<polyline fill="none" stroke="black" points="122.5,-903.5 245.5,-903.5 "/>
<text text-anchor="middle" x="184" y="-891.5" font-family="Helvetica,sans-Serif" font-size="10.00"> </text>
<polyline fill="none" stroke="black" points="122.5,-884.5 245.5,-884.5 "/>
<text text-anchor="middle" x="184" y="-872.5" font-family="Helvetica,sans-Serif" font-size="10.00"> </text>
</a>
</g>
</g>
<!-- Node5&#45;&gt;Node3 -->
<g id="edge4" class="edge">
<title>Node5&#45;&gt;Node3</title>
<path fill="none" stroke="#404040" d="M173.39,-865.12C171.57,-859.22 169.96,-852.97 169,-847 161.88,-802.93 161.85,-752.51 163.48,-714.05"/>
<polygon fill="none" stroke="#404040" points="163.48,-713.99 159.78,-707.81 164.06,-702.01 167.77,-708.19 163.48,-713.99"/>
<text text-anchor="middle" x="197" y="-806" font-family="Helvetica,sans-Serif" font-size="10.00"> #settings_</text>
</g>
<!-- Node9 -->
<g id="node9" class="node">
<title>Node9</title>
<g id="a_node9"><a xlink:href="structsignal__easel_1_1afsk_1_1Settings.html" target="_top" xlink:title="Settings for AFSK modulation/demodulation.">
<polygon fill="none" stroke="black" points="288,-617.5 288,-685.5 392,-685.5 392,-617.5 288,-617.5"/>
<text text-anchor="start" x="296" y="-673.5" font-family="Helvetica,sans-Serif" font-size="10.00">signal_easel::afsk</text>
<text text-anchor="middle" x="340" y="-662.5" font-family="Helvetica,sans-Serif" font-size="10.00">::Settings</text>
<polyline fill="none" stroke="black" points="288,-655.5 392,-655.5 "/>
<text text-anchor="middle" x="340" y="-643.5" font-family="Helvetica,sans-Serif" font-size="10.00"> </text>
<polyline fill="none" stroke="black" points="288,-636.5 392,-636.5 "/>
<text text-anchor="middle" x="340" y="-624.5" font-family="Helvetica,sans-Serif" font-size="10.00"> </text>
</a>
</g>
</g>
<!-- Node5&#45;&gt;Node9 -->
<g id="edge9" class="edge">
<title>Node5&#45;&gt;Node9</title>
<path fill="none" stroke="midnightblue" d="M217.33,-857.43C220.04,-854 222.65,-850.49 225,-847 246.33,-815.36 244.06,-803.13 263,-770 279.76,-740.67 300.93,-708.69 316.82,-685.5"/>
<polygon fill="none" stroke="midnightblue" points="214.52,-855.33 210.85,-865.27 219.92,-859.79 214.52,-855.33"/>
</g>
<!-- Node6 -->
<g id="node6" class="node">
<title>Node6</title>
<g id="a_node6"><a xlink:title=" ">
<polygon fill="none" stroke="#bfbfbf" points="214,-992.5 214,-1049.5 264,-1049.5 264,-992.5 214,-992.5"/>
<text text-anchor="middle" x="239" y="-1037.5" font-family="Helvetica,sans-Serif" font-size="10.00">double</text>
<polyline fill="none" stroke="#bfbfbf" points="214,-1030.5 264,-1030.5 "/>
<text text-anchor="middle" x="239" y="-1018.5" font-family="Helvetica,sans-Serif" font-size="10.00"> </text>
<polyline fill="none" stroke="#bfbfbf" points="214,-1011.5 264,-1011.5 "/>
<text text-anchor="middle" x="239" y="-999.5" font-family="Helvetica,sans-Serif" font-size="10.00"> </text>
</a>
</g>
</g>
<!-- Node6&#45;&gt;Node5 -->
<g id="edge5" class="edge">
<title>Node6&#45;&gt;Node5</title>
<path fill="none" stroke="#404040" d="M233.82,-992.46C230.29,-976.88 224.82,-957.31 217,-941 215.7,-938.29 214.24,-935.56 212.67,-932.87"/>
<polygon fill="none" stroke="#404040" points="212.67,-932.87 206.08,-929.95 206.24,-922.74 212.83,-925.66 212.67,-932.87"/>
<text text-anchor="middle" x="272" y="-966" font-family="Helvetica,sans-Serif" font-size="10.00"> +amplitude</text>
<text text-anchor="start" x="229" y="-955" font-family="Helvetica,sans-Serif" font-size="10.00">+call_sign_pause</text>
<text text-anchor="middle" x="272" y="-944" font-family="Helvetica,sans-Serif" font-size="10.00">_seconds</text>
</g>
<!-- Node7 -->
<g id="node7" class="node">
<title>Node7</title>
<g id="a_node7"><a xlink:title=" ">
<polygon fill="none" stroke="#bfbfbf" points="86.5,-992.5 86.5,-1049.5 169.5,-1049.5 169.5,-992.5 86.5,-992.5"/>
<text text-anchor="middle" x="128" y="-1037.5" font-family="Helvetica,sans-Serif" font-size="10.00">CallSignMode</text>
<polyline fill="none" stroke="#bfbfbf" points="86.5,-1030.5 169.5,-1030.5 "/>
<text text-anchor="middle" x="128" y="-1018.5" font-family="Helvetica,sans-Serif" font-size="10.00"> </text>
<polyline fill="none" stroke="#bfbfbf" points="86.5,-1011.5 169.5,-1011.5 "/>
<text text-anchor="middle" x="128" y="-999.5" font-family="Helvetica,sans-Serif" font-size="10.00"> </text>
</a>
</g>
</g>
<!-- Node7&#45;&gt;Node5 -->
<g id="edge6" class="edge">
<title>Node7&#45;&gt;Node5</title>
<path fill="none" stroke="#404040" d="M120.72,-992.34C118.04,-976.54 117.29,-956.79 125,-941 126.63,-937.66 128.63,-934.5 130.9,-931.51"/>
<polygon fill="none" stroke="#404040" points="130.91,-931.49 131.95,-924.36 138.93,-922.56 137.9,-929.7 130.91,-931.49"/>
<text text-anchor="middle" x="169" y="-955" font-family="Helvetica,sans-Serif" font-size="10.00"> +call_sign_mode</text>
</g>
<!-- Node8 -->
<g id="node8" class="node">
<title>Node8</title>
<g id="a_node8"><a xlink:title=" ">
<polygon fill="none" stroke="#bfbfbf" points="821,-992.5 821,-1049.5 865,-1049.5 865,-992.5 821,-992.5"/>
<text text-anchor="middle" x="843" y="-1037.5" font-family="Helvetica,sans-Serif" font-size="10.00">string</text>
<polyline fill="none" stroke="#bfbfbf" points="821,-1030.5 865,-1030.5 "/>
<text text-anchor="middle" x="843" y="-1018.5" font-family="Helvetica,sans-Serif" font-size="10.00"> </text>
<polyline fill="none" stroke="#bfbfbf" points="821,-1011.5 865,-1011.5 "/>
<text text-anchor="middle" x="843" y="-999.5" font-family="Helvetica,sans-Serif" font-size="10.00"> </text>
</a>
</g>
</g>
<!-- Node8&#45;&gt;Node5 -->
<g id="edge7" class="edge">
<title>Node8&#45;&gt;Node5</title>
<path fill="none" stroke="#404040" d="M820.74,-1018.05C743.52,-1010.91 480.12,-983.61 257.28,-923.39"/>
<polygon fill="none" stroke="#404040" points="257.27,-923.39 250.42,-925.66 245.69,-920.22 252.54,-917.95 257.27,-923.39"/>
<text text-anchor="middle" x="506.5" y="-955" font-family="Helvetica,sans-Serif" font-size="10.00"> +call_sign</text>
</g>
<!-- Node20 -->
<g id="node20" class="node">
<title>Node20</title>
<g id="a_node20"><a xlink:href="classsignal__easel_1_1ax25_1_1Address.html" target="_top" xlink:title="AX.25 Address class. For encoding and decoding AX.25 addresses.">
<polygon fill="none" stroke="black" points="896.5,-551.5 896.5,-751.5 1057.5,-751.5 1057.5,-551.5 896.5,-551.5"/>
<text text-anchor="start" x="904.5" y="-739.5" font-family="Helvetica,sans-Serif" font-size="10.00">signal_easel::ax25</text>
<text text-anchor="middle" x="977" y="-728.5" font-family="Helvetica,sans-Serif" font-size="10.00">::Address</text>
<polyline fill="none" stroke="black" points="896.5,-721.5 1057.5,-721.5 "/>
<text text-anchor="middle" x="977" y="-709.5" font-family="Helvetica,sans-Serif" font-size="10.00"> </text>
<polyline fill="none" stroke="black" points="896.5,-702.5 1057.5,-702.5 "/>
<text text-anchor="start" x="904.5" y="-690.5" font-family="Helvetica,sans-Serif" font-size="10.00">+ Address()</text>
<text text-anchor="start" x="904.5" y="-679.5" font-family="Helvetica,sans-Serif" font-size="10.00">+ Address()</text>
<text text-anchor="start" x="904.5" y="-668.5" font-family="Helvetica,sans-Serif" font-size="10.00">+ Address()</text>
<text text-anchor="start" x="904.5" y="-657.5" font-family="Helvetica,sans-Serif" font-size="10.00">+ assertIsValid()</text>
<text text-anchor="start" x="904.5" y="-646.5" font-family="Helvetica,sans-Serif" font-size="10.00">+ decodeAddress()</text>
<text text-anchor="start" x="904.5" y="-635.5" font-family="Helvetica,sans-Serif" font-size="10.00">+ encodeAddress()</text>
<text text-anchor="start" x="904.5" y="-624.5" font-family="Helvetica,sans-Serif" font-size="10.00">+ getAddressString()</text>
<text text-anchor="start" x="904.5" y="-613.5" font-family="Helvetica,sans-Serif" font-size="10.00">+ getSsid()</text>
<text text-anchor="start" x="904.5" y="-602.5" font-family="Helvetica,sans-Serif" font-size="10.00">+ isAddressStringValid()</text>
<text text-anchor="start" x="904.5" y="-591.5" font-family="Helvetica,sans-Serif" font-size="10.00">+ isCommandOrResponse()</text>
<text text-anchor="start" x="904.5" y="-580.5" font-family="Helvetica,sans-Serif" font-size="10.00">and 8 more...</text>
<text text-anchor="start" x="904.5" y="-569.5" font-family="Helvetica,sans-Serif" font-size="10.00">&#45; assertAddressStringIsValid()</text>
<text text-anchor="start" x="904.5" y="-558.5" font-family="Helvetica,sans-Serif" font-size="10.00">&#45; assertSsidIsValid()</text>
</a>
</g>
</g>
<!-- Node8&#45;&gt;Node20 -->
<g id="edge23" class="edge">
<title>Node8&#45;&gt;Node20</title>
<path fill="none" stroke="#404040" d="M865.05,-997.12C893.46,-966.02 941.72,-907.32 963,-847 972.22,-820.86 976.98,-791.54 979.18,-763.75"/>
<polygon fill="none" stroke="#404040" points="979.2,-763.51 975.6,-757.25 980,-751.53 983.59,-757.79 979.2,-763.51"/>
<text text-anchor="middle" x="996" y="-891.5" font-family="Helvetica,sans-Serif" font-size="10.00"> &#45;address_string_</text>
</g>
<!-- Node9&#45;&gt;Node2 -->
<g id="edge8" class="edge">
<title>Node9&#45;&gt;Node2</title>
<path fill="none" stroke="#404040" d="M358.28,-617.5C387.12,-565.45 443.83,-463.09 482.33,-393.61"/>
<polygon fill="none" stroke="#404040" points="482.53,-393.25 481.94,-386.06 488.34,-382.75 488.93,-389.94 482.53,-393.25"/>
<text text-anchor="middle" x="460" y="-514" font-family="Helvetica,sans-Serif" font-size="10.00"> &#45;afsk_settings_</text>
</g>
<!-- Node10 -->
<g id="node10" class="node">
<title>Node10</title>
<g id="a_node10"><a xlink:title=" ">
<polygon fill="none" stroke="#bfbfbf" points="264,-865.5 264,-922.5 338,-922.5 338,-865.5 264,-865.5"/>
<text text-anchor="middle" x="301" y="-910.5" font-family="Helvetica,sans-Serif" font-size="10.00">BitEncoding</text>
<polyline fill="none" stroke="#bfbfbf" points="264,-903.5 338,-903.5 "/>
<text text-anchor="middle" x="301" y="-891.5" font-family="Helvetica,sans-Serif" font-size="10.00"> </text>
<polyline fill="none" stroke="#bfbfbf" points="264,-884.5 338,-884.5 "/>
<text text-anchor="middle" x="301" y="-872.5" font-family="Helvetica,sans-Serif" font-size="10.00"> </text>
</a>
</g>
</g>
<!-- Node10&#45;&gt;Node9 -->
<g id="edge10" class="edge">
<title>Node10&#45;&gt;Node9</title>
<path fill="none" stroke="#404040" d="M280.93,-865.42C277.66,-859.6 274.77,-853.3 273,-847 263.76,-814.05 264.23,-803.08 273,-770 279.97,-743.69 294.37,-717.11 308.04,-695.91"/>
<polygon fill="none" stroke="#404040" points="308.21,-695.64 308.21,-688.43 314.86,-685.65 314.87,-692.86 308.21,-695.64"/>
<text text-anchor="middle" x="310" y="-806" font-family="Helvetica,sans-Serif" font-size="10.00"> +bit_encoding</text>
</g>
<!-- Node11 -->
<g id="node11" class="node">
<title>Node11</title>
<g id="a_node11"><a xlink:title=" ">
<polygon fill="none" stroke="#bfbfbf" points="660,-865.5 660,-922.5 698,-922.5 698,-865.5 660,-865.5"/>
<text text-anchor="middle" x="679" y="-910.5" font-family="Helvetica,sans-Serif" font-size="10.00">bool</text>
<polyline fill="none" stroke="#bfbfbf" points="660,-903.5 698,-903.5 "/>
<text text-anchor="middle" x="679" y="-891.5" font-family="Helvetica,sans-Serif" font-size="10.00"> </text>
<polyline fill="none" stroke="#bfbfbf" points="660,-884.5 698,-884.5 "/>
<text text-anchor="middle" x="679" y="-872.5" font-family="Helvetica,sans-Serif" font-size="10.00"> </text>
</a>
</g>
</g>
<!-- Node11&#45;&gt;Node9 -->
<g id="edge11" class="edge">
<title>Node11&#45;&gt;Node9</title>
<path fill="none" stroke="#404040" d="M659.87,-870.55C657.1,-868.36 654.13,-866.42 651,-865 597.06,-840.49 430.1,-885.42 385,-847 362.64,-827.95 350.16,-748.84 344.28,-697.57"/>
<polygon fill="none" stroke="#404040" points="344.26,-697.43 339.64,-691.9 342.96,-685.5 347.59,-691.03 344.26,-697.43"/>
<text text-anchor="middle" x="444.5" y="-806" font-family="Helvetica,sans-Serif" font-size="10.00"> +include_ascii_padding</text>
</g>
<!-- Node11&#45;&gt;Node20 -->
<g id="edge21" class="edge">
<title>Node11&#45;&gt;Node20</title>
<path fill="none" stroke="#404040" d="M698.27,-870.83C701.01,-868.59 703.94,-866.56 707,-865 751.9,-842.06 781.09,-880.24 819,-847 845.85,-823.45 817.81,-796.28 842,-770 854.78,-756.12 866.25,-762.05 886.04,-752.07"/>
<polygon fill="none" stroke="#404040" points="886.22,-751.97 889.27,-745.44 896.47,-745.74 893.42,-752.28 886.22,-751.97"/>
<text text-anchor="start" x="842" y="-839" font-family="Helvetica,sans-Serif" font-size="10.00"> &#45;command_or_response</text>
<text text-anchor="middle" x="902.5" y="-828" font-family="Helvetica,sans-Serif" font-size="10.00">_</text>
<text text-anchor="start" x="842" y="-817" font-family="Helvetica,sans-Serif" font-size="10.00">&#45;is_last_address</text>
<text text-anchor="middle" x="902.5" y="-806" font-family="Helvetica,sans-Serif" font-size="10.00">_</text>
<text text-anchor="start" x="842" y="-795" font-family="Helvetica,sans-Serif" font-size="10.00">&#45;reserve_bit</text>
<text text-anchor="middle" x="902.5" y="-784" font-family="Helvetica,sans-Serif" font-size="10.00">_1_</text>
<text text-anchor="middle" x="902.5" y="-773" font-family="Helvetica,sans-Serif" font-size="10.00">&#45;reserve_bit_2_</text>
</g>
<!-- Node12 -->
<g id="node12" class="node">
<title>Node12</title>
<g id="a_node12"><a xlink:href="classsignal__easel_1_1BitStream.html" target="_top" xlink:title=" ">
<polygon fill="none" stroke="black" points="474.5,-562.5 474.5,-740.5 621.5,-740.5 621.5,-562.5 474.5,-562.5"/>
<text text-anchor="middle" x="548" y="-728.5" font-family="Helvetica,sans-Serif" font-size="10.00">signal_easel::BitStream</text>
<polyline fill="none" stroke="black" points="474.5,-721.5 621.5,-721.5 "/>
<text text-anchor="middle" x="548" y="-709.5" font-family="Helvetica,sans-Serif" font-size="10.00"> </text>
<polyline fill="none" stroke="black" points="474.5,-702.5 621.5,-702.5 "/>
<text text-anchor="start" x="482.5" y="-690.5" font-family="Helvetica,sans-Serif" font-size="10.00">+ addBits()</text>
<text text-anchor="start" x="482.5" y="-679.5" font-family="Helvetica,sans-Serif" font-size="10.00">+ addOneBit()</text>
<text text-anchor="start" x="482.5" y="-668.5" font-family="Helvetica,sans-Serif" font-size="10.00">+ addZeroBit()</text>
<text text-anchor="start" x="482.5" y="-657.5" font-family="Helvetica,sans-Serif" font-size="10.00">+ dumpBitStream()</text>
<text text-anchor="start" x="482.5" y="-646.5" font-family="Helvetica,sans-Serif" font-size="10.00">+ dumpBitStreamAsAscii()</text>
<text text-anchor="start" x="482.5" y="-635.5" font-family="Helvetica,sans-Serif" font-size="10.00">+ dumpBitStreamAsHex()</text>
<text text-anchor="start" x="482.5" y="-624.5" font-family="Helvetica,sans-Serif" font-size="10.00">+ getBitStreamLength()</text>
<text text-anchor="start" x="482.5" y="-613.5" font-family="Helvetica,sans-Serif" font-size="10.00">+ getBitVector()</text>
<text text-anchor="start" x="482.5" y="-602.5" font-family="Helvetica,sans-Serif" font-size="10.00">+ peakNextBit()</text>
<text text-anchor="start" x="482.5" y="-591.5" font-family="Helvetica,sans-Serif" font-size="10.00">+ peakNextByte()</text>
<text text-anchor="start" x="482.5" y="-580.5" font-family="Helvetica,sans-Serif" font-size="10.00">+ popNextBit()</text>
<text text-anchor="start" x="482.5" y="-569.5" font-family="Helvetica,sans-Serif" font-size="10.00">+ pushBufferToBitStream()</text>
</a>
</g>
</g>
<!-- Node12&#45;&gt;Node2 -->
<g id="edge12" class="edge">
<title>Node12&#45;&gt;Node2</title>
<path fill="none" stroke="#404040" d="M527.2,-562.27C525.49,-552.44 524.03,-542.54 523,-533 518.07,-487.19 517.74,-435.45 518.69,-394.68"/>
<polygon fill="none" stroke="#404040" points="518.69,-394.66 514.85,-388.56 519.01,-382.67 522.85,-388.77 518.69,-394.66"/>
<text text-anchor="middle" x="576" y="-514" font-family="Helvetica,sans-Serif" font-size="10.00"> #output_bit_stream_</text>
</g>
<!-- Node13 -->
<g id="node13" class="node">
<title>Node13</title>
<g id="a_node13"><a xlink:title=" ">
<polygon fill="none" stroke="#bfbfbf" points="586,-865.5 586,-922.5 642,-922.5 642,-865.5 586,-865.5"/>
<text text-anchor="middle" x="614" y="-910.5" font-family="Helvetica,sans-Serif" font-size="10.00">uint32_t</text>
<polyline fill="none" stroke="#bfbfbf" points="586,-903.5 642,-903.5 "/>
<text text-anchor="middle" x="614" y="-891.5" font-family="Helvetica,sans-Serif" font-size="10.00"> </text>
<polyline fill="none" stroke="#bfbfbf" points="586,-884.5 642,-884.5 "/>
<text text-anchor="middle" x="614" y="-872.5" font-family="Helvetica,sans-Serif" font-size="10.00"> </text>
</a>
</g>
</g>
<!-- Node13&#45;&gt;Node12 -->
<g id="edge13" class="edge">
<title>Node13&#45;&gt;Node12</title>
<path fill="none" stroke="#404040" d="M616.28,-865.13C617.55,-839.86 617.45,-801.81 609,-770 607.42,-764.04 605.5,-758.05 603.33,-752.08"/>
<polygon fill="none" stroke="#404040" points="603.24,-751.85 597.33,-747.72 598.87,-740.67 604.78,-744.8 603.24,-751.85"/>
<text text-anchor="middle" x="665.5" y="-806" font-family="Helvetica,sans-Serif" font-size="10.00"> &#45;bit_stream_buffer_</text>
</g>
<!-- Node14 -->
<g id="node14" class="node">
<title>Node14</title>
<g id="a_node14"><a xlink:title=" ">
<polygon fill="none" stroke="#bfbfbf" points="496.5,-865.5 496.5,-922.5 525.5,-922.5 525.5,-865.5 496.5,-865.5"/>
<text text-anchor="middle" x="511" y="-910.5" font-family="Helvetica,sans-Serif" font-size="10.00">int</text>
<polyline fill="none" stroke="#bfbfbf" points="496.5,-903.5 525.5,-903.5 "/>
<text text-anchor="middle" x="511" y="-891.5" font-family="Helvetica,sans-Serif" font-size="10.00"> </text>
<polyline fill="none" stroke="#bfbfbf" points="496.5,-884.5 525.5,-884.5 "/>
<text text-anchor="middle" x="511" y="-872.5" font-family="Helvetica,sans-Serif" font-size="10.00"> </text>
</a>
</g>
</g>
<!-- Node14&#45;&gt;Node12 -->
<g id="edge14" class="edge">
<title>Node14&#45;&gt;Node12</title>
<path fill="none" stroke="#404040" d="M508.97,-865.46C507.65,-840.41 507,-802.5 512,-770 512.88,-764.3 513.97,-758.5 515.22,-752.68"/>
<polygon fill="none" stroke="#404040" points="515.28,-752.41 512.75,-745.66 518,-740.72 520.54,-747.47 515.28,-752.41"/>
<text text-anchor="middle" x="560.5" y="-822.5" font-family="Helvetica,sans-Serif" font-size="10.00"> &#45;bit_stream_index_</text>
<text text-anchor="start" x="512" y="-811.5" font-family="Helvetica,sans-Serif" font-size="10.00">&#45;bit_stream_length</text>
<text text-anchor="middle" x="560.5" y="-800.5" font-family="Helvetica,sans-Serif" font-size="10.00">_</text>
<text text-anchor="middle" x="560.5" y="-789.5" font-family="Helvetica,sans-Serif" font-size="10.00">&#45;bit_stream_offset_</text>
</g>
<!-- Node15 -->
<g id="node15" class="node">
<title>Node15</title>
<g id="a_node15"><a xlink:title=" ">
<polygon fill="none" stroke="#bfbfbf" points="716,-865.5 716,-922.5 826,-922.5 826,-865.5 716,-865.5"/>
<text text-anchor="middle" x="771" y="-910.5" font-family="Helvetica,sans-Serif" font-size="10.00">vector&lt; uint32_t &gt;</text>
<polyline fill="none" stroke="#bfbfbf" points="716,-903.5 826,-903.5 "/>
<text text-anchor="middle" x="771" y="-891.5" font-family="Helvetica,sans-Serif" font-size="10.00"> </text>
<polyline fill="none" stroke="#bfbfbf" points="716,-884.5 826,-884.5 "/>
<text text-anchor="middle" x="771" y="-872.5" font-family="Helvetica,sans-Serif" font-size="10.00"> </text>
</a>
</g>
</g>
<!-- Node15&#45;&gt;Node12 -->
<g id="edge15" class="edge">
<title>Node15&#45;&gt;Node12</title>
<path fill="none" stroke="#404040" d="M760.55,-865.48C747.47,-831.51 725.94,-777.32 719,-770 706.41,-756.73 697.63,-761.49 682,-752 665.28,-741.85 648.07,-730.13 631.78,-718.39"/>
<polygon fill="none" stroke="#404040" points="631.46,-718.16 624.26,-717.85 621.77,-711.08 628.97,-711.39 631.46,-718.16"/>
<text text-anchor="middle" x="784.5" y="-806" font-family="Helvetica,sans-Serif" font-size="10.00"> &#45;bit_stream_</text>
</g>
<!-- Node16 -->
<g id="node16" class="node">
<title>Node16</title>
<g id="a_node16"><a xlink:title=" ">
<polygon fill="none" stroke="#bfbfbf" points="691,-623 691,-680 795,-680 795,-623 691,-623"/>
<text text-anchor="middle" x="743" y="-668" font-family="Helvetica,sans-Serif" font-size="10.00">vector&lt; uint8_t &gt;</text>
<polyline fill="none" stroke="#bfbfbf" points="691,-661 795,-661 "/>
<text text-anchor="middle" x="743" y="-649" font-family="Helvetica,sans-Serif" font-size="10.00"> </text>
<polyline fill="none" stroke="#bfbfbf" points="691,-642 795,-642 "/>
<text text-anchor="middle" x="743" y="-630" font-family="Helvetica,sans-Serif" font-size="10.00"> </text>
</a>
</g>
</g>
<!-- Node16&#45;&gt;Node2 -->
<g id="edge16" class="edge">
<title>Node16&#45;&gt;Node2</title>
<path fill="none" stroke="#404040" d="M720.07,-622.64C701.12,-599.23 673.88,-564.61 652,-533 620.57,-487.6 587.98,-434.7 563.3,-393.22"/>
<polygon fill="none" stroke="#404040" points="563.16,-392.98 556.66,-389.86 557.04,-382.66 563.54,-385.78 563.16,-392.98"/>
<text text-anchor="middle" x="702" y="-514" font-family="Helvetica,sans-Serif" font-size="10.00"> &#45;base_band_signal_</text>
</g>
<!-- Node18 -->
<g id="node18" class="node">
<title>Node18</title>
<g id="a_node18"><a xlink:href="classsignal__easel_1_1ax25_1_1Frame.html" target="_top" xlink:title=" ">
<polygon fill="none" stroke="black" points="911.5,-160.5 911.5,-481.5 1070.5,-481.5 1070.5,-160.5 911.5,-160.5"/>
<text text-anchor="start" x="919.5" y="-469.5" font-family="Helvetica,sans-Serif" font-size="10.00">signal_easel::ax25</text>
<text text-anchor="middle" x="991" y="-458.5" font-family="Helvetica,sans-Serif" font-size="10.00">::Frame</text>
<polyline fill="none" stroke="black" points="911.5,-451.5 1070.5,-451.5 "/>
<text text-anchor="middle" x="991" y="-439.5" font-family="Helvetica,sans-Serif" font-size="10.00"> </text>
<polyline fill="none" stroke="black" points="911.5,-432.5 1070.5,-432.5 "/>
<text text-anchor="start" x="919.5" y="-420.5" font-family="Helvetica,sans-Serif" font-size="10.00">+ Frame()</text>
<text text-anchor="start" x="919.5" y="-409.5" font-family="Helvetica,sans-Serif" font-size="10.00">+ buildFrame()</text>
<text text-anchor="start" x="919.5" y="-398.5" font-family="Helvetica,sans-Serif" font-size="10.00">+ encodeFrame()</text>
<text text-anchor="start" x="919.5" y="-387.5" font-family="Helvetica,sans-Serif" font-size="10.00">+ isFrameValid()</text>
<text text-anchor="start" x="919.5" y="-376.5" font-family="Helvetica,sans-Serif" font-size="10.00">+ parseBitStream()</text>
<text text-anchor="start" x="919.5" y="-365.5" font-family="Helvetica,sans-Serif" font-size="10.00">+ setDestinationAddress()</text>
<text text-anchor="start" x="919.5" y="-354.5" font-family="Helvetica,sans-Serif" font-size="10.00">+ getDestinationAddress()</text>
<text text-anchor="start" x="919.5" y="-343.5" font-family="Helvetica,sans-Serif" font-size="10.00">+ setSourceAddress()</text>
<text text-anchor="start" x="919.5" y="-332.5" font-family="Helvetica,sans-Serif" font-size="10.00">+ getSourceAddress()</text>
<text text-anchor="start" x="919.5" y="-321.5" font-family="Helvetica,sans-Serif" font-size="10.00">+ addRepeaterAddress()</text>
<text text-anchor="start" x="919.5" y="-310.5" font-family="Helvetica,sans-Serif" font-size="10.00">+ getRepeaterAddresses()</text>
<text text-anchor="start" x="919.5" y="-299.5" font-family="Helvetica,sans-Serif" font-size="10.00">+ setInformation()</text>
<text text-anchor="start" x="919.5" y="-288.5" font-family="Helvetica,sans-Serif" font-size="10.00">+ getInformation()</text>
<text text-anchor="start" x="919.5" y="-277.5" font-family="Helvetica,sans-Serif" font-size="10.00">&#45; AddByteForFcs()</text>
<text text-anchor="start" x="919.5" y="-266.5" font-family="Helvetica,sans-Serif" font-size="10.00">&#45; addToBuildBuffer()</text>
<text text-anchor="start" x="919.5" y="-255.5" font-family="Helvetica,sans-Serif" font-size="10.00">&#45; calculateFcsOnBuildBuffer()</text>
<text text-anchor="start" x="919.5" y="-244.5" font-family="Helvetica,sans-Serif" font-size="10.00">* setDestinationAddress()</text>
<text text-anchor="start" x="919.5" y="-233.5" font-family="Helvetica,sans-Serif" font-size="10.00">* getDestinationAddress()</text>
<text text-anchor="start" x="919.5" y="-222.5" font-family="Helvetica,sans-Serif" font-size="10.00">* setSourceAddress()</text>
<text text-anchor="start" x="919.5" y="-211.5" font-family="Helvetica,sans-Serif" font-size="10.00">* getSourceAddress()</text>
<text text-anchor="start" x="919.5" y="-200.5" font-family="Helvetica,sans-Serif" font-size="10.00">* addRepeaterAddress()</text>
<text text-anchor="start" x="919.5" y="-189.5" font-family="Helvetica,sans-Serif" font-size="10.00">* getRepeaterAddresses()</text>
<text text-anchor="start" x="919.5" y="-178.5" font-family="Helvetica,sans-Serif" font-size="10.00">* setInformation()</text>
<text text-anchor="start" x="919.5" y="-167.5" font-family="Helvetica,sans-Serif" font-size="10.00">* getInformation()</text>
</a>
</g>
</g>
<!-- Node16&#45;&gt;Node18 -->
<g id="edge26" class="edge">
<title>Node16&#45;&gt;Node18</title>
<path fill="none" stroke="#404040" d="M749.71,-622.88C759.48,-588.71 780.98,-531.23 821,-500 848.37,-478.65 869.08,-502.62 897,-482 898.74,-480.72 900.45,-479.39 902.13,-478.03"/>
<polygon fill="none" stroke="#404040" points="902.48,-477.72 904.34,-470.76 911.49,-469.8 909.63,-476.77 902.48,-477.72"/>
<text text-anchor="middle" x="856" y="-519.5" font-family="Helvetica,sans-Serif" font-size="10.00"> &#45;build_buffer_</text>
<text text-anchor="middle" x="856" y="-508.5" font-family="Helvetica,sans-Serif" font-size="10.00">&#45;information_</text>
</g>
<!-- Node17 -->
<g id="node17" class="node">
<title>Node17</title>
<g id="a_node17"><a xlink:title=" ">
<polygon fill="none" stroke="#bfbfbf" points="839.5,-623 839.5,-680 878.5,-680 878.5,-623 839.5,-623"/>
<text text-anchor="middle" x="859" y="-668" font-family="Helvetica,sans-Serif" font-size="10.00">Type</text>
<polyline fill="none" stroke="#bfbfbf" points="839.5,-661 878.5,-661 "/>
<text text-anchor="middle" x="859" y="-649" font-family="Helvetica,sans-Serif" font-size="10.00"> </text>
<polyline fill="none" stroke="#bfbfbf" points="839.5,-642 878.5,-642 "/>
<text text-anchor="middle" x="859" y="-630" font-family="Helvetica,sans-Serif" font-size="10.00"> </text>
</a>
</g>
</g>
<!-- Node17&#45;&gt;Node1 -->
<g id="edge17" class="edge">
<title>Node17&#45;&gt;Node1</title>
<path fill="none" stroke="#404040" d="M859,-622.69C859,-533.74 859,-254.41 859,-124.79"/>
<polygon fill="none" stroke="#404040" points="859,-124.73 855,-118.73 859,-112.73 863,-118.73 859,-124.73"/>
<text text-anchor="middle" x="876" y="-318.5" font-family="Helvetica,sans-Serif" font-size="10.00"> &#45;type_</text>
</g>
<!-- Node17&#45;&gt;Node18 -->
<g id="edge24" class="edge">
<title>Node17&#45;&gt;Node18</title>
<path fill="none" stroke="#404040" d="M865.99,-622.71C871.32,-602.57 879.23,-574.8 888,-551 895.03,-531.93 902.91,-512.22 911.1,-492.72"/>
<polygon fill="none" stroke="#404040" points="911.14,-492.65 909.8,-485.56 915.82,-481.6 917.16,-488.69 911.14,-492.65"/>
<text text-anchor="middle" x="922" y="-514" font-family="Helvetica,sans-Serif" font-size="10.00"> &#45;type_</text>
</g>
<!-- Node18&#45;&gt;Node1 -->
<g id="edge18" class="edge">
<title>Node18&#45;&gt;Node1</title>
<path fill="none" stroke="#404040" d="M911.36,-161.62C904.72,-148.41 898.27,-135.59 892.29,-123.71"/>
<polygon fill="none" stroke="#404040" points="892.12,-123.35 885.85,-119.79 886.72,-112.63 892.99,-116.2 892.12,-123.35"/>
<text text-anchor="middle" x="919" y="-134" font-family="Helvetica,sans-Serif" font-size="10.00"> &#45;frame_</text>
</g>
<!-- Node19 -->
<g id="node19" class="node">
<title>Node19</title>
<g id="a_node19"><a xlink:title=" ">
<polygon fill="none" stroke="#bfbfbf" points="1293,-623 1293,-680 1349,-680 1349,-623 1293,-623"/>
<text text-anchor="middle" x="1321" y="-668" font-family="Helvetica,sans-Serif" font-size="10.00">uint16_t</text>
<polyline fill="none" stroke="#bfbfbf" points="1293,-661 1349,-661 "/>
<text text-anchor="middle" x="1321" y="-649" font-family="Helvetica,sans-Serif" font-size="10.00"> </text>
<polyline fill="none" stroke="#bfbfbf" points="1293,-642 1349,-642 "/>
<text text-anchor="middle" x="1321" y="-630" font-family="Helvetica,sans-Serif" font-size="10.00"> </text>
</a>
</g>
</g>
<!-- Node19&#45;&gt;Node18 -->
<g id="edge19" class="edge">
<title>Node19&#45;&gt;Node18</title>
<path fill="none" stroke="#404040" d="M1311.47,-622.74C1299.37,-590.48 1276.03,-536.99 1243,-500 1196.85,-448.33 1133.01,-403.43 1081.13,-371.66"/>
<polygon fill="none" stroke="#404040" points="1080.86,-371.49 1073.65,-371.81 1070.59,-365.28 1077.8,-364.96 1080.86,-371.49"/>
<text text-anchor="middle" x="1278.5" y="-514" font-family="Helvetica,sans-Serif" font-size="10.00"> &#45;fcs_</text>
</g>
<!-- Node20&#45;&gt;Node18 -->
<g id="edge20" class="edge">
<title>Node20&#45;&gt;Node18</title>
<path fill="none" stroke="#404040" d="M976.1,-551.45C976.06,-545.21 976.03,-539.02 976,-533 975.94,-518.33 975.38,-514.65 976,-500 976.09,-497.92 976.18,-495.83 976.28,-493.73"/>
<polygon fill="none" stroke="#404040" points="976.29,-493.57 972.6,-487.38 976.9,-481.59 980.59,-487.79 976.29,-493.57"/>
<text text-anchor="start" x="976" y="-525" font-family="Helvetica,sans-Serif" font-size="10.00"> &#45;destination_address</text>
<text text-anchor="middle" x="1029" y="-514" font-family="Helvetica,sans-Serif" font-size="10.00">_</text>
<text text-anchor="middle" x="1029" y="-503" font-family="Helvetica,sans-Serif" font-size="10.00">&#45;source_address_</text>
</g>
<!-- Node21 -->
<g id="node21" class="node">
<title>Node21</title>
<g id="a_node21"><a xlink:title=" ">
<polygon fill="none" stroke="#bfbfbf" points="1079,-865.5 1079,-922.5 1129,-922.5 1129,-865.5 1079,-865.5"/>
<text text-anchor="middle" x="1104" y="-910.5" font-family="Helvetica,sans-Serif" font-size="10.00">uint8_t</text>
<polyline fill="none" stroke="#bfbfbf" points="1079,-903.5 1129,-903.5 "/>
<text text-anchor="middle" x="1104" y="-891.5" font-family="Helvetica,sans-Serif" font-size="10.00"> </text>
<polyline fill="none" stroke="#bfbfbf" points="1079,-884.5 1129,-884.5 "/>
<text text-anchor="middle" x="1104" y="-872.5" font-family="Helvetica,sans-Serif" font-size="10.00"> </text>
</a>
</g>
</g>
<!-- Node21&#45;&gt;Node18 -->
<g id="edge25" class="edge">
<title>Node21&#45;&gt;Node18</title>
<path fill="none" stroke="#404040" d="M1103.94,-865.37C1103.52,-787.78 1100.67,-569.01 1082,-500 1079.91,-492.29 1077.47,-484.53 1074.74,-476.79"/>
<polygon fill="none" stroke="#404040" points="1074.72,-476.72 1068.89,-472.48 1070.56,-465.47 1076.39,-469.71 1074.72,-476.72"/>
<text text-anchor="middle" x="1116" y="-649" font-family="Helvetica,sans-Serif" font-size="10.00"> &#45;pid_</text>
</g>
<!-- Node21&#45;&gt;Node20 -->
<g id="edge22" class="edge">
<title>Node21&#45;&gt;Node20</title>
<path fill="none" stroke="#404040" d="M1078.94,-876C1068.85,-868.14 1057.78,-858.09 1050,-847 1032.34,-821.85 1018.35,-791.9 1007.55,-763.13"/>
<polygon fill="none" stroke="#404040" points="1007.51,-763.03 1001.7,-758.76 1003.41,-751.75 1009.22,-756.02 1007.51,-763.03"/>
<text text-anchor="middle" x="1066" y="-806" font-family="Helvetica,sans-Serif" font-size="10.00"> &#45;ssid_</text>
</g>
<!-- Node22 -->
<g id="node22" class="node">
<title>Node22</title>
<g id="a_node22"><a xlink:title=" ">
<polygon fill="none" stroke="#bfbfbf" points="1142.5,-617.5 1142.5,-685.5 1261.5,-685.5 1261.5,-617.5 1142.5,-617.5"/>
<text text-anchor="start" x="1150.5" y="-673.5" font-family="Helvetica,sans-Serif" font-size="10.00">vector&lt; signal_easel</text>
<text text-anchor="middle" x="1202" y="-662.5" font-family="Helvetica,sans-Serif" font-size="10.00">::ax25::Address &gt;</text>
<polyline fill="none" stroke="#bfbfbf" points="1142.5,-655.5 1261.5,-655.5 "/>
<text text-anchor="middle" x="1202" y="-643.5" font-family="Helvetica,sans-Serif" font-size="10.00"> </text>
<polyline fill="none" stroke="#bfbfbf" points="1142.5,-636.5 1261.5,-636.5 "/>
<text text-anchor="middle" x="1202" y="-624.5" font-family="Helvetica,sans-Serif" font-size="10.00"> </text>
</a>
</g>
</g>
<!-- Node22&#45;&gt;Node18 -->
<g id="edge27" class="edge">
<title>Node22&#45;&gt;Node18</title>
<path fill="none" stroke="#404040" d="M1182.28,-617.38C1163.91,-586.73 1135.57,-539.99 1110,-500 1099.63,-483.79 1088.6,-466.86 1077.58,-450.16"/>
<polygon fill="none" stroke="#404040" points="1077.35,-449.81 1070.7,-447.02 1070.73,-439.81 1077.38,-442.6 1077.35,-449.81"/>
<text text-anchor="middle" x="1184.5" y="-514" font-family="Helvetica,sans-Serif" font-size="10.00"> &#45;repeater_addresses_</text>
</g>
</g>
</svg>
