<?xml version="1.0" encoding="UTF-8" standalone="no"?>
<!DOCTYPE svg PUBLIC "-//W3C//DTD SVG 1.1//EN"
 "http://www.w3.org/Graphics/SVG/1.1/DTD/svg11.dtd">
<!-- Generated by graphviz version 2.43.0 (0)
 -->
<!-- Title: signal_easel::Modulator Pages: 1 -->
<svg width="372pt" height="386pt"
 viewBox="0.00 0.00 372.30 386.00" xmlns="http://www.w3.org/2000/svg" xmlns:xlink="http://www.w3.org/1999/xlink">
<g id="graph0" class="graph" transform="scale(1 1) rotate(0) translate(4 382)">
<title>signal_easel::Modulator</title>
<!-- Node1 -->
<g id="node1" class="node">
<title>Node1</title>
<g id="a_node1"><a xlink:title="The abstract base class for all modulators that turn data into audio.">
<polygon fill="#bfbfbf" stroke="black" points="113.8,-0.5 113.8,-145.5 246.8,-145.5 246.8,-0.5 113.8,-0.5"/>
<text text-anchor="middle" x="180.3" y="-133.5" font-family="Helvetica,sans-Serif" font-size="10.00">signal_easel::Modulator</text>
<polyline fill="none" stroke="black" points="113.8,-126.5 246.8,-126.5 "/>
<text text-anchor="middle" x="180.3" y="-114.5" font-family="Helvetica,sans-Serif" font-size="10.00"> </text>
<polyline fill="none" stroke="black" points="113.8,-107.5 246.8,-107.5 "/>
<text text-anchor="start" x="121.8" y="-95.5" font-family="Helvetica,sans-Serif" font-size="10.00">+ Modulator()</text>
<text text-anchor="start" x="121.8" y="-84.5" font-family="Helvetica,sans-Serif" font-size="10.00">+ ~Modulator()</text>
<text text-anchor="start" x="121.8" y="-73.5" font-family="Helvetica,sans-Serif" font-size="10.00">+ clearBuffer()</text>
<text text-anchor="start" x="121.8" y="-62.5" font-family="Helvetica,sans-Serif" font-size="10.00">+ writeToFile()</text>
<text text-anchor="start" x="121.8" y="-51.5" font-family="Helvetica,sans-Serif" font-size="10.00">+ writeToPulseAudio()</text>
<text text-anchor="start" x="121.8" y="-40.5" font-family="Helvetica,sans-Serif" font-size="10.00"># addAudioSample()</text>
<text text-anchor="start" x="121.8" y="-29.5" font-family="Helvetica,sans-Serif" font-size="10.00"># addSilence()</text>
<text text-anchor="start" x="121.8" y="-18.5" font-family="Helvetica,sans-Serif" font-size="10.00"># addSineWave()</text>
<text text-anchor="start" x="121.8" y="-7.5" font-family="Helvetica,sans-Serif" font-size="10.00">&#45; addMorseCode()</text>
</a>
</g>
</g>
<!-- Node2 -->
<g id="node2" class="node">
<title>Node2</title>
<g id="a_node2"><a xlink:title=" ">
<polygon fill="none" stroke="#bfbfbf" points="11.3,-320.5 11.3,-377.5 61.3,-377.5 61.3,-320.5 11.3,-320.5"/>
<text text-anchor="middle" x="36.3" y="-365.5" font-family="Helvetica,sans-Serif" font-size="10.00">double</text>
<polyline fill="none" stroke="#bfbfbf" points="11.3,-358.5 61.3,-358.5 "/>
<text text-anchor="middle" x="36.3" y="-346.5" font-family="Helvetica,sans-Serif" font-size="10.00"> </text>
<polyline fill="none" stroke="#bfbfbf" points="11.3,-339.5 61.3,-339.5 "/>
<text text-anchor="middle" x="36.3" y="-327.5" font-family="Helvetica,sans-Serif" font-size="10.00"> </text>
</a>
</g>
</g>
<!-- Node2&#45;&gt;Node1 -->
<g id="edge1" class="edge">
<title>Node2&#45;&gt;Node1</title>
<path fill="none" stroke="#404040" d="M21.83,-320.35C7.05,-288.03 -10.93,-233.78 10.3,-193 29.98,-155.21 67.76,-126.94 102.71,-107.46"/>
<polygon fill="none" stroke="#404040" points="102.88,-107.37 106.27,-101.01 113.45,-101.69 110.05,-108.05 102.88,-107.37"/>
<text text-anchor="middle" x="59.8" y="-219.5" font-family="Helvetica,sans-Serif" font-size="10.00"> &#45;sine_wave_phase_</text>
</g>
<!-- Node4 -->
<g id="node4" class="node">
<title>Node4</title>
<g id="a_node4"><a xlink:href="structsignal__easel_1_1Settings.html" target="_top" xlink:title="The universal settings for MWAV.">
<polygon fill="none" stroke="black" points="118.8,-193.5 118.8,-250.5 241.8,-250.5 241.8,-193.5 118.8,-193.5"/>
<text text-anchor="middle" x="180.3" y="-238.5" font-family="Helvetica,sans-Serif" font-size="10.00">signal_easel::Settings</text>
<polyline fill="none" stroke="black" points="118.8,-231.5 241.8,-231.5 "/>
<text text-anchor="middle" x="180.3" y="-219.5" font-family="Helvetica,sans-Serif" font-size="10.00"> </text>
<polyline fill="none" stroke="black" points="118.8,-212.5 241.8,-212.5 "/>
<text text-anchor="middle" x="180.3" y="-200.5" font-family="Helvetica,sans-Serif" font-size="10.00"> </text>
</a>
</g>
</g>
<!-- Node2&#45;&gt;Node4 -->
<g id="edge4" class="edge">
<title>Node2&#45;&gt;Node4</title>
<path fill="none" stroke="#404040" d="M46.57,-320.26C53.87,-303.64 65.1,-283.08 80.3,-269 88.39,-261.52 97.9,-255.07 107.79,-249.57"/>
<polygon fill="none" stroke="#404040" points="107.96,-249.49 111.46,-243.18 118.62,-243.98 115.13,-250.29 107.96,-249.49"/>
<text text-anchor="middle" x="123.3" y="-294" font-family="Helvetica,sans-Serif" font-size="10.00"> +amplitude</text>
<text text-anchor="start" x="80.3" y="-283" font-family="Helvetica,sans-Serif" font-size="10.00">+call_sign_pause</text>
<text text-anchor="middle" x="123.3" y="-272" font-family="Helvetica,sans-Serif" font-size="10.00">_seconds</text>
</g>
<!-- Node3 -->
<g id="node3" class="node">
<title>Node3</title>
<g id="a_node3"><a xlink:title=" ">
<polygon fill="none" stroke="#bfbfbf" points="260.3,-193.5 260.3,-250.5 364.3,-250.5 364.3,-193.5 260.3,-193.5"/>
<text text-anchor="middle" x="312.3" y="-238.5" font-family="Helvetica,sans-Serif" font-size="10.00">vector&lt; int16_t &gt;</text>
<polyline fill="none" stroke="#bfbfbf" points="260.3,-231.5 364.3,-231.5 "/>
<text text-anchor="middle" x="312.3" y="-219.5" font-family="Helvetica,sans-Serif" font-size="10.00"> </text>
<polyline fill="none" stroke="#bfbfbf" points="260.3,-212.5 364.3,-212.5 "/>
<text text-anchor="middle" x="312.3" y="-200.5" font-family="Helvetica,sans-Serif" font-size="10.00"> </text>
</a>
</g>
</g>
<!-- Node3&#45;&gt;Node1 -->
<g id="edge2" class="edge">
<title>Node3&#45;&gt;Node1</title>
<path fill="none" stroke="#404040" d="M287.48,-193.35C277.43,-182.16 265.26,-168.61 252.78,-154.72"/>
<polygon fill="none" stroke="#404040" points="252.58,-154.48 245.59,-152.69 244.56,-145.56 251.54,-147.35 252.58,-154.48"/>
<text text-anchor="middle" x="308.3" y="-167" font-family="Helvetica,sans-Serif" font-size="10.00"> #audio_buffer_</text>
</g>
<!-- Node4&#45;&gt;Node1 -->
<g id="edge3" class="edge">
<title>Node4&#45;&gt;Node1</title>
<path fill="none" stroke="#404040" d="M180.3,-193.35C180.3,-183.01 180.3,-170.66 180.3,-157.89"/>
<polygon fill="none" stroke="#404040" points="180.3,-157.56 176.3,-151.56 180.3,-145.56 184.3,-151.56 180.3,-157.56"/>
<text text-anchor="middle" x="208.3" y="-167" font-family="Helvetica,sans-Serif" font-size="10.00"> #settings_</text>
</g>
<!-- Node5 -->
<g id="node5" class="node">
<title>Node5</title>
<g id="a_node5"><a xlink:title=" ">
<polygon fill="none" stroke="#bfbfbf" points="128.8,-320.5 128.8,-377.5 211.8,-377.5 211.8,-320.5 128.8,-320.5"/>
<text text-anchor="middle" x="170.3" y="-365.5" font-family="Helvetica,sans-Serif" font-size="10.00">CallSignMode</text>
<polyline fill="none" stroke="#bfbfbf" points="128.8,-358.5 211.8,-358.5 "/>
<text text-anchor="middle" x="170.3" y="-346.5" font-family="Helvetica,sans-Serif" font-size="10.00"> </text>
<polyline fill="none" stroke="#bfbfbf" points="128.8,-339.5 211.8,-339.5 "/>
<text text-anchor="middle" x="170.3" y="-327.5" font-family="Helvetica,sans-Serif" font-size="10.00"> </text>
</a>
</g>
</g>
<!-- Node5&#45;&gt;Node4 -->
<g id="edge5" class="edge">
<title>Node5&#45;&gt;Node4</title>
<path fill="none" stroke="#404040" d="M169.43,-320.14C169.27,-304.98 169.56,-285.92 171.3,-269 171.52,-266.94 171.78,-264.84 172.07,-262.72"/>
<polygon fill="none" stroke="#404040" points="172.11,-262.45 169.14,-255.88 174.06,-250.61 177.04,-257.18 172.11,-262.45"/>
<text text-anchor="middle" x="215.3" y="-283" font-family="Helvetica,sans-Serif" font-size="10.00"> +call_sign_mode</text>
</g>
<!-- Node6 -->
<g id="node6" class="node">
<title>Node6</title>
<g id="a_node6"><a xlink:title=" ">
<polygon fill="none" stroke="#bfbfbf" points="259.3,-320.5 259.3,-377.5 303.3,-377.5 303.3,-320.5 259.3,-320.5"/>
<text text-anchor="middle" x="281.3" y="-365.5" font-family="Helvetica,sans-Serif" font-size="10.00">string</text>
<polyline fill="none" stroke="#bfbfbf" points="259.3,-358.5 303.3,-358.5 "/>
<text text-anchor="middle" x="281.3" y="-346.5" font-family="Helvetica,sans-Serif" font-size="10.00"> </text>
<polyline fill="none" stroke="#bfbfbf" points="259.3,-339.5 303.3,-339.5 "/>
<text text-anchor="middle" x="281.3" y="-327.5" font-family="Helvetica,sans-Serif" font-size="10.00"> </text>
</a>
</g>
</g>
<!-- Node6&#45;&gt;Node4 -->
<g id="edge6" class="edge">
<title>Node6&#45;&gt;Node4</title>
<path fill="none" stroke="#404040" d="M278.84,-320.45C276.2,-304.1 270.7,-283.76 259.3,-269 256.39,-265.22 253.06,-261.7 249.47,-258.42"/>
<polygon fill="none" stroke="#404040" points="249.37,-258.34 242.2,-257.65 240.06,-250.77 247.24,-251.45 249.37,-258.34"/>
<text text-anchor="middle" x="301.8" y="-283" font-family="Helvetica,sans-Serif" font-size="10.00"> +call_sign</text>
</g>
</g>
</svg>
