<?xml version="1.0" encoding="UTF-8" standalone="no"?>
<!DOCTYPE svg PUBLIC "-//W3C//DTD SVG 1.1//EN"
 "http://www.w3.org/Graphics/SVG/1.1/DTD/svg11.dtd">
<!-- Generated by graphviz version 2.43.0 (0)
 -->
<!-- Title: signal_easel::BitStream Pages: 1 -->
<svg width="336pt" height="325pt"
 viewBox="0.00 0.00 336.00 325.00" xmlns="http://www.w3.org/2000/svg" xmlns:xlink="http://www.w3.org/1999/xlink">
<g id="graph0" class="graph" transform="scale(1 1) rotate(0) translate(4 321)">
<title>signal_easel::BitStream</title>
<!-- Node1 -->
<g id="node1" class="node">
<title>Node1</title>
<g id="a_node1"><a xlink:title=" ">
<polygon fill="#bfbfbf" stroke="black" points="76.5,-0.5 76.5,-178.5 223.5,-178.5 223.5,-0.5 76.5,-0.5"/>
<text text-anchor="middle" x="150" y="-166.5" font-family="Helvetica,sans-Serif" font-size="10.00">signal_easel::BitStream</text>
<polyline fill="none" stroke="black" points="76.5,-159.5 223.5,-159.5 "/>
<text text-anchor="middle" x="150" y="-147.5" font-family="Helvetica,sans-Serif" font-size="10.00"> </text>
<polyline fill="none" stroke="black" points="76.5,-140.5 223.5,-140.5 "/>
<text text-anchor="start" x="84.5" y="-128.5" font-family="Helvetica,sans-Serif" font-size="10.00">+ addBits()</text>
<text text-anchor="start" x="84.5" y="-117.5" font-family="Helvetica,sans-Serif" font-size="10.00">+ addOneBit()</text>
<text text-anchor="start" x="84.5" y="-106.5" font-family="Helvetica,sans-Serif" font-size="10.00">+ addZeroBit()</text>
<text text-anchor="start" x="84.5" y="-95.5" font-family="Helvetica,sans-Serif" font-size="10.00">+ dumpBitStream()</text>
<text text-anchor="start" x="84.5" y="-84.5" font-family="Helvetica,sans-Serif" font-size="10.00">+ dumpBitStreamAsAscii()</text>
<text text-anchor="start" x="84.5" y="-73.5" font-family="Helvetica,sans-Serif" font-size="10.00">+ dumpBitStreamAsHex()</text>
<text text-anchor="start" x="84.5" y="-62.5" font-family="Helvetica,sans-Serif" font-size="10.00">+ getBitStreamLength()</text>
<text text-anchor="start" x="84.5" y="-51.5" font-family="Helvetica,sans-Serif" font-size="10.00">+ getBitVector()</text>
<text text-anchor="start" x="84.5" y="-40.5" font-family="Helvetica,sans-Serif" font-size="10.00">+ peakNextBit()</text>
<text text-anchor="start" x="84.5" y="-29.5" font-family="Helvetica,sans-Serif" font-size="10.00">+ peakNextByte()</text>
<text text-anchor="start" x="84.5" y="-18.5" font-family="Helvetica,sans-Serif" font-size="10.00">+ popNextBit()</text>
<text text-anchor="start" x="84.5" y="-7.5" font-family="Helvetica,sans-Serif" font-size="10.00">+ pushBufferToBitStream()</text>
</a>
</g>
</g>
<!-- Node2 -->
<g id="node2" class="node">
<title>Node2</title>
<g id="a_node2"><a xlink:title=" ">
<polygon fill="none" stroke="#bfbfbf" points="0,-259.5 0,-316.5 56,-316.5 56,-259.5 0,-259.5"/>
<text text-anchor="middle" x="28" y="-304.5" font-family="Helvetica,sans-Serif" font-size="10.00">uint32_t</text>
<polyline fill="none" stroke="#bfbfbf" points="0,-297.5 56,-297.5 "/>
<text text-anchor="middle" x="28" y="-285.5" font-family="Helvetica,sans-Serif" font-size="10.00"> </text>
<polyline fill="none" stroke="#bfbfbf" points="0,-278.5 56,-278.5 "/>
<text text-anchor="middle" x="28" y="-266.5" font-family="Helvetica,sans-Serif" font-size="10.00"> </text>
</a>
</g>
</g>
<!-- Node2&#45;&gt;Node1 -->
<g id="edge1" class="edge">
<title>Node2&#45;&gt;Node1</title>
<path fill="none" stroke="#404040" d="M29.85,-259.26C32.02,-240.74 36.74,-216.32 47,-197 52.96,-185.78 60.45,-174.93 68.67,-164.72"/>
<polygon fill="none" stroke="#404040" points="68.67,-164.72 69.47,-157.55 76.39,-155.53 75.59,-162.7 68.67,-164.72"/>
<text text-anchor="middle" x="96.5" y="-216.5" font-family="Helvetica,sans-Serif" font-size="10.00"> &#45;bit_stream_buffer_</text>
</g>
<!-- Node3 -->
<g id="node3" class="node">
<title>Node3</title>
<g id="a_node3"><a xlink:title=" ">
<polygon fill="none" stroke="#bfbfbf" points="135.5,-259.5 135.5,-316.5 164.5,-316.5 164.5,-259.5 135.5,-259.5"/>
<text text-anchor="middle" x="150" y="-304.5" font-family="Helvetica,sans-Serif" font-size="10.00">int</text>
<polyline fill="none" stroke="#bfbfbf" points="135.5,-297.5 164.5,-297.5 "/>
<text text-anchor="middle" x="150" y="-285.5" font-family="Helvetica,sans-Serif" font-size="10.00"> </text>
<polyline fill="none" stroke="#bfbfbf" points="135.5,-278.5 164.5,-278.5 "/>
<text text-anchor="middle" x="150" y="-266.5" font-family="Helvetica,sans-Serif" font-size="10.00"> </text>
</a>
</g>
</g>
<!-- Node3&#45;&gt;Node1 -->
<g id="edge2" class="edge">
<title>Node3&#45;&gt;Node1</title>
<path fill="none" stroke="#404040" d="M150,-259.26C150,-241 150,-215.86 150,-190.56"/>
<polygon fill="none" stroke="#404040" points="150,-190.56 146,-184.56 150,-178.56 154,-184.56 150,-190.56"/>
<text text-anchor="middle" x="198.5" y="-233" font-family="Helvetica,sans-Serif" font-size="10.00"> &#45;bit_stream_index_</text>
<text text-anchor="start" x="150" y="-222" font-family="Helvetica,sans-Serif" font-size="10.00">&#45;bit_stream_length</text>
<text text-anchor="middle" x="198.5" y="-211" font-family="Helvetica,sans-Serif" font-size="10.00">_</text>
<text text-anchor="middle" x="198.5" y="-200" font-family="Helvetica,sans-Serif" font-size="10.00">&#45;bit_stream_offset_</text>
</g>
<!-- Node4 -->
<g id="node4" class="node">
<title>Node4</title>
<g id="a_node4"><a xlink:title=" ">
<polygon fill="none" stroke="#bfbfbf" points="215,-259.5 215,-316.5 325,-316.5 325,-259.5 215,-259.5"/>
<text text-anchor="middle" x="270" y="-304.5" font-family="Helvetica,sans-Serif" font-size="10.00">vector&lt; uint32_t &gt;</text>
<polyline fill="none" stroke="#bfbfbf" points="215,-297.5 325,-297.5 "/>
<text text-anchor="middle" x="270" y="-285.5" font-family="Helvetica,sans-Serif" font-size="10.00"> </text>
<polyline fill="none" stroke="#bfbfbf" points="215,-278.5 325,-278.5 "/>
<text text-anchor="middle" x="270" y="-266.5" font-family="Helvetica,sans-Serif" font-size="10.00"> </text>
</a>
</g>
</g>
<!-- Node4&#45;&gt;Node1 -->
<g id="edge3" class="edge">
<title>Node4&#45;&gt;Node1</title>
<path fill="none" stroke="#404040" d="M266.9,-259.33C263.97,-240.83 258.41,-216.42 248,-197 243.13,-187.91 237.3,-178.99 230.95,-170.43"/>
<polygon fill="none" stroke="#404040" points="230.93,-170.41 224.09,-168.12 223.57,-160.93 230.41,-163.22 230.93,-170.41"/>
<text text-anchor="middle" x="295.5" y="-216.5" font-family="Helvetica,sans-Serif" font-size="10.00"> &#45;bit_stream_</text>
</g>
</g>
</svg>
