<?xml version="1.0" encoding="UTF-8" standalone="no"?>
<!DOCTYPE svg PUBLIC "-//W3C//DTD SVG 1.1//EN"
 "http://www.w3.org/Graphics/SVG/1.1/DTD/svg11.dtd">
<!-- Generated by graphviz version 2.43.0 (0)
 -->
<!-- Title: signal_easel::aprs::telemetry::AnalogParameter::setCoefficientA Pages: 1 -->
<svg width="441pt" height="88pt"
 viewBox="0.00 0.00 441.00 88.00" xmlns="http://www.w3.org/2000/svg" xmlns:xlink="http://www.w3.org/1999/xlink">
<g id="graph0" class="graph" transform="scale(1 1) rotate(0) translate(4 84)">
<title>signal_easel::aprs::telemetry::AnalogParameter::setCoefficientA</title>
<!-- Node1 -->
<g id="node1" class="node">
<title>Node1</title>
<g id="a_node1"><a xlink:title="Set the A coefficient in the formula y = ax^2 + bx + c.">
<polygon fill="#bfbfbf" stroke="black" points="273,-13.5 273,-54.5 433,-54.5 433,-13.5 273,-13.5"/>
<text text-anchor="start" x="281" y="-42.5" font-family="Helvetica,sans-Serif" font-size="10.00">signal_easel::aprs</text>
<text text-anchor="start" x="281" y="-31.5" font-family="Helvetica,sans-Serif" font-size="10.00">::telemetry::AnalogParameter</text>
<text text-anchor="middle" x="353" y="-20.5" font-family="Helvetica,sans-Serif" font-size="10.00">::setCoefficientA</text>
</a>
</g>
</g>
<!-- Node2 -->
<g id="node2" class="node">
<title>Node2</title>
<g id="a_node2"><a xlink:href="classsignal__easel_1_1aprs_1_1telemetry_1_1AnalogParameter.html#a4fd035e5379315eaab869673edb0477a" target="_top" xlink:title="Set all coefficients in the formula y = ax^2 + bx + c.">
<polygon fill="none" stroke="black" points="77,-38.5 77,-79.5 237,-79.5 237,-38.5 77,-38.5"/>
<text text-anchor="start" x="85" y="-67.5" font-family="Helvetica,sans-Serif" font-size="10.00">signal_easel::aprs</text>
<text text-anchor="start" x="85" y="-56.5" font-family="Helvetica,sans-Serif" font-size="10.00">::telemetry::AnalogParameter</text>
<text text-anchor="middle" x="157" y="-45.5" font-family="Helvetica,sans-Serif" font-size="10.00">::setCoefficients</text>
</a>
</g>
</g>
<!-- Node1&#45;&gt;Node2 -->
<g id="edge1" class="edge">
<title>Node1&#45;&gt;Node2</title>
<path fill="none" stroke="midnightblue" d="M262.84,-45.49C254.3,-46.59 245.68,-47.7 237.25,-48.79"/>
<polygon fill="midnightblue" stroke="midnightblue" points="263.34,-48.95 272.81,-44.2 262.45,-42.01 263.34,-48.95"/>
</g>
<!-- Node4 -->
<g id="node4" class="node">
<title>Node4</title>
<g id="a_node4"><a xlink:href="aprs__telemetry__parameter__test_8cpp.html#a35cf05db9e0ef8d678cb9cce3c6e6b27" target="_top" xlink:title=" ">
<polygon fill="none" stroke="black" points="136.5,-0.5 136.5,-19.5 177.5,-19.5 177.5,-0.5 136.5,-0.5"/>
<text text-anchor="middle" x="157" y="-7.5" font-family="Helvetica,sans-Serif" font-size="10.00">TEST</text>
</a>
</g>
</g>
<!-- Node1&#45;&gt;Node4 -->
<g id="edge3" class="edge">
<title>Node1&#45;&gt;Node4</title>
<path fill="none" stroke="midnightblue" d="M262.55,-22.93C230.77,-19 197.89,-14.94 177.7,-12.44"/>
<polygon fill="midnightblue" stroke="midnightblue" points="262.46,-26.45 272.81,-24.2 263.32,-19.5 262.46,-26.45"/>
</g>
<!-- Node3 -->
<g id="node3" class="node">
<title>Node3</title>
<g id="a_node3"><a xlink:href="aprs__telemetry__parameter__test_8cpp.html#aa8357c93b7e821465e22baa9912ace89" target="_top" xlink:title=" ">
<polygon fill="none" stroke="black" points="0,-49.5 0,-68.5 41,-68.5 41,-49.5 0,-49.5"/>
<text text-anchor="middle" x="20.5" y="-56.5" font-family="Helvetica,sans-Serif" font-size="10.00">TEST</text>
</a>
</g>
</g>
<!-- Node2&#45;&gt;Node3 -->
<g id="edge2" class="edge">
<title>Node2&#45;&gt;Node3</title>
<path fill="none" stroke="midnightblue" d="M66.88,-59C57.39,-59 48.54,-59 41.23,-59"/>
<polygon fill="midnightblue" stroke="midnightblue" points="66.98,-62.5 76.98,-59 66.98,-55.5 66.98,-62.5"/>
</g>
</g>
</svg>
