<?xml version="1.0" encoding="UTF-8" standalone="no"?>
<!DOCTYPE svg PUBLIC "-//W3C//DTD SVG 1.1//EN"
 "http://www.w3.org/Graphics/SVG/1.1/DTD/svg11.dtd">
<!-- Generated by graphviz version 2.43.0 (0)
 -->
<!-- Title: signal_easel::Demodulator Pages: 1 -->
<svg width="302pt" height="342pt"
 viewBox="0.00 0.00 302.00 342.00" xmlns="http://www.w3.org/2000/svg" xmlns:xlink="http://www.w3.org/1999/xlink">
<g id="graph0" class="graph" transform="scale(1 1) rotate(0) translate(4 338)">
<title>signal_easel::Demodulator</title>
<!-- Node1 -->
<g id="node1" class="node">
<title>Node1</title>
<g id="a_node1"><a xlink:title="The base class for all demodulators that turn audio into data.">
<polygon fill="#bfbfbf" stroke="black" points="96.5,-0.5 96.5,-101.5 243.5,-101.5 243.5,-0.5 96.5,-0.5"/>
<text text-anchor="middle" x="170" y="-89.5" font-family="Helvetica,sans-Serif" font-size="10.00">signal_easel::Demodulator</text>
<polyline fill="none" stroke="black" points="96.5,-82.5 243.5,-82.5 "/>
<text text-anchor="middle" x="170" y="-70.5" font-family="Helvetica,sans-Serif" font-size="10.00"> </text>
<polyline fill="none" stroke="black" points="96.5,-63.5 243.5,-63.5 "/>
<text text-anchor="start" x="104.5" y="-51.5" font-family="Helvetica,sans-Serif" font-size="10.00">+ Demodulator()</text>
<text text-anchor="start" x="104.5" y="-40.5" font-family="Helvetica,sans-Serif" font-size="10.00">+ ~Demodulator()</text>
<text text-anchor="start" x="104.5" y="-29.5" font-family="Helvetica,sans-Serif" font-size="10.00">+ clearBuffer()</text>
<text text-anchor="start" x="104.5" y="-18.5" font-family="Helvetica,sans-Serif" font-size="10.00">+ loadAudioFromFile()</text>
<text text-anchor="start" x="104.5" y="-7.5" font-family="Helvetica,sans-Serif" font-size="10.00"># getAudioBuffer()</text>
</a>
</g>
</g>
<!-- Node2 -->
<g id="node2" class="node">
<title>Node2</title>
<g id="a_node2"><a xlink:href="structsignal__easel_1_1Settings.html" target="_top" xlink:title="The universal settings for MWAV.">
<polygon fill="none" stroke="black" points="42.5,-149.5 42.5,-206.5 165.5,-206.5 165.5,-149.5 42.5,-149.5"/>
<text text-anchor="middle" x="104" y="-194.5" font-family="Helvetica,sans-Serif" font-size="10.00">signal_easel::Settings</text>
<polyline fill="none" stroke="black" points="42.5,-187.5 165.5,-187.5 "/>
<text text-anchor="middle" x="104" y="-175.5" font-family="Helvetica,sans-Serif" font-size="10.00"> </text>
<polyline fill="none" stroke="black" points="42.5,-168.5 165.5,-168.5 "/>
<text text-anchor="middle" x="104" y="-156.5" font-family="Helvetica,sans-Serif" font-size="10.00"> </text>
</a>
</g>
</g>
<!-- Node2&#45;&gt;Node1 -->
<g id="edge1" class="edge">
<title>Node2&#45;&gt;Node1</title>
<path fill="none" stroke="#404040" d="M118.65,-149.26C124.4,-138.36 131.25,-125.39 138.04,-112.53"/>
<polygon fill="none" stroke="#404040" points="138.1,-112.41 137.37,-105.24 143.7,-101.8 144.44,-108.98 138.1,-112.41"/>
<text text-anchor="middle" x="162" y="-123" font-family="Helvetica,sans-Serif" font-size="10.00"> #settings_</text>
</g>
<!-- Node3 -->
<g id="node3" class="node">
<title>Node3</title>
<g id="a_node3"><a xlink:title=" ">
<polygon fill="none" stroke="black" points="0,-276.5 0,-333.5 44,-333.5 44,-276.5 0,-276.5"/>
<text text-anchor="middle" x="22" y="-321.5" font-family="Helvetica,sans-Serif" font-size="10.00">string</text>
<polyline fill="none" stroke="black" points="0,-314.5 44,-314.5 "/>
<text text-anchor="middle" x="22" y="-302.5" font-family="Helvetica,sans-Serif" font-size="10.00"> </text>
<polyline fill="none" stroke="black" points="0,-295.5 44,-295.5 "/>
<text text-anchor="middle" x="22" y="-283.5" font-family="Helvetica,sans-Serif" font-size="10.00"> </text>
</a>
</g>
</g>
<!-- Node3&#45;&gt;Node2 -->
<g id="edge2" class="edge">
<title>Node3&#45;&gt;Node2</title>
<path fill="none" stroke="#404040" d="M25.73,-276.22C28.9,-260.19 34.66,-240.25 45,-225 47.33,-221.56 50,-218.27 52.89,-215.13"/>
<polygon fill="none" stroke="#404040" points="52.91,-215.11 54.41,-208.06 61.49,-206.73 59.99,-213.78 52.91,-215.11"/>
<text text-anchor="middle" x="72.5" y="-239" font-family="Helvetica,sans-Serif" font-size="10.00"> +call_sign</text>
</g>
<!-- Node4 -->
<g id="node4" class="node">
<title>Node4</title>
<g id="a_node4"><a xlink:title=" ">
<polygon fill="none" stroke="black" points="62.5,-276.5 62.5,-333.5 145.5,-333.5 145.5,-276.5 62.5,-276.5"/>
<text text-anchor="middle" x="104" y="-321.5" font-family="Helvetica,sans-Serif" font-size="10.00">CallSignMode</text>
<polyline fill="none" stroke="black" points="62.5,-314.5 145.5,-314.5 "/>
<text text-anchor="middle" x="104" y="-302.5" font-family="Helvetica,sans-Serif" font-size="10.00"> </text>
<polyline fill="none" stroke="black" points="62.5,-295.5 145.5,-295.5 "/>
<text text-anchor="middle" x="104" y="-283.5" font-family="Helvetica,sans-Serif" font-size="10.00"> </text>
</a>
</g>
</g>
<!-- Node4&#45;&gt;Node2 -->
<g id="edge3" class="edge">
<title>Node4&#45;&gt;Node2</title>
<path fill="none" stroke="#404040" d="M104,-276.26C104,-259.35 104,-237.46 104,-218.73"/>
<polygon fill="none" stroke="#404040" points="104,-218.66 100,-212.66 104,-206.66 108,-212.66 104,-218.66"/>
<text text-anchor="middle" x="148" y="-239" font-family="Helvetica,sans-Serif" font-size="10.00"> +call_sign_mode</text>
</g>
<!-- Node5 -->
<g id="node5" class="node">
<title>Node5</title>
<g id="a_node5"><a xlink:title=" ">
<polygon fill="none" stroke="black" points="190,-276.5 190,-333.5 240,-333.5 240,-276.5 190,-276.5"/>
<text text-anchor="middle" x="215" y="-321.5" font-family="Helvetica,sans-Serif" font-size="10.00">double</text>
<polyline fill="none" stroke="black" points="190,-314.5 240,-314.5 "/>
<text text-anchor="middle" x="215" y="-302.5" font-family="Helvetica,sans-Serif" font-size="10.00"> </text>
<polyline fill="none" stroke="black" points="190,-295.5 240,-295.5 "/>
<text text-anchor="middle" x="215" y="-283.5" font-family="Helvetica,sans-Serif" font-size="10.00"> </text>
</a>
</g>
</g>
<!-- Node5&#45;&gt;Node2 -->
<g id="edge4" class="edge">
<title>Node5&#45;&gt;Node2</title>
<path fill="none" stroke="#404040" d="M212.8,-276.24C210.25,-259.82 204.77,-239.47 193,-225 188.18,-219.07 182.38,-213.81 176.1,-209.18"/>
<polygon fill="none" stroke="#404040" points="175.88,-209.04 168.67,-209.06 165.88,-202.41 173.09,-202.39 175.88,-209.04"/>
<text text-anchor="middle" x="251" y="-250" font-family="Helvetica,sans-Serif" font-size="10.00"> +amplitude</text>
<text text-anchor="start" x="208" y="-239" font-family="Helvetica,sans-Serif" font-size="10.00">+call_sign_pause</text>
<text text-anchor="middle" x="251" y="-228" font-family="Helvetica,sans-Serif" font-size="10.00">_seconds</text>
</g>
<!-- Node6 -->
<g id="node6" class="node">
<title>Node6</title>
<g id="a_node6"><a xlink:title=" ">
<polygon fill="none" stroke="black" points="184,-149.5 184,-206.5 288,-206.5 288,-149.5 184,-149.5"/>
<text text-anchor="middle" x="236" y="-194.5" font-family="Helvetica,sans-Serif" font-size="10.00">vector&lt; int16_t &gt;</text>
<polyline fill="none" stroke="black" points="184,-187.5 288,-187.5 "/>
<text text-anchor="middle" x="236" y="-175.5" font-family="Helvetica,sans-Serif" font-size="10.00"> </text>
<polyline fill="none" stroke="black" points="184,-168.5 288,-168.5 "/>
<text text-anchor="middle" x="236" y="-156.5" font-family="Helvetica,sans-Serif" font-size="10.00"> </text>
</a>
</g>
</g>
<!-- Node6&#45;&gt;Node1 -->
<g id="edge5" class="edge">
<title>Node6&#45;&gt;Node1</title>
<path fill="none" stroke="#404040" d="M221.35,-149.26C215.6,-138.36 208.75,-125.39 201.96,-112.53"/>
<polygon fill="none" stroke="#404040" points="201.9,-112.41 195.56,-108.98 196.3,-101.8 202.63,-105.24 201.9,-112.41"/>
<text text-anchor="middle" x="249" y="-123" font-family="Helvetica,sans-Serif" font-size="10.00"> #audio_buffer_</text>
</g>
</g>
</svg>
