<?xml version="1.0" encoding="UTF-8" standalone="no"?>
<!DOCTYPE svg PUBLIC "-//W3C//DTD SVG 1.1//EN"
 "http://www.w3.org/Graphics/SVG/1.1/DTD/svg11.dtd">
<!-- Generated by graphviz version 2.43.0 (0)
 -->
<!-- Title: signal_easel::Modulator::addAudioSample Pages: 1 -->
<svg width="867pt" height="282pt"
 viewBox="0.00 0.00 867.00 281.50" xmlns="http://www.w3.org/2000/svg" xmlns:xlink="http://www.w3.org/1999/xlink">
<g id="graph0" class="graph" transform="scale(1 1) rotate(0) translate(4 277.5)">
<title>signal_easel::Modulator::addAudioSample</title>
<!-- Node1 -->
<g id="node1" class="node">
<title>Node1</title>
<g id="a_node1"><a xlink:title="Add a PCM sample to the audio buffer.">
<polygon fill="#bfbfbf" stroke="black" points="726,-165 726,-195 859,-195 859,-165 726,-165"/>
<text text-anchor="start" x="734" y="-183" font-family="Helvetica,sans-Serif" font-size="10.00">signal_easel::Modulator</text>
<text text-anchor="middle" x="792.5" y="-172" font-family="Helvetica,sans-Serif" font-size="10.00">::addAudioSample</text>
</a>
</g>
</g>
<!-- Node2 -->
<g id="node2" class="node">
<title>Node2</title>
<g id="a_node2"><a xlink:href="classsignal__easel_1_1Modulator.html#a83877b4de0ae12992f62c09cf876da04" target="_top" xlink:title="Add silence to the audio buffer.">
<polygon fill="none" stroke="black" points="553,-214 553,-244 686,-244 686,-214 553,-214"/>
<text text-anchor="start" x="561" y="-232" font-family="Helvetica,sans-Serif" font-size="10.00">signal_easel::Modulator</text>
<text text-anchor="middle" x="619.5" y="-221" font-family="Helvetica,sans-Serif" font-size="10.00">::addSilence</text>
</a>
</g>
</g>
<!-- Node1&#45;&gt;Node2 -->
<g id="edge1" class="edge">
<title>Node1&#45;&gt;Node2</title>
<path fill="none" stroke="midnightblue" d="M729.05,-197.89C710.66,-203.16 690.73,-208.88 673.03,-213.95"/>
<polygon fill="midnightblue" stroke="midnightblue" points="730.15,-201.22 738.8,-195.1 728.22,-194.49 730.15,-201.22"/>
</g>
<!-- Node8 -->
<g id="node8" class="node">
<title>Node8</title>
<g id="a_node8"><a xlink:href="classsignal__easel_1_1Modulator.html#a0fcce44b034c83731048ca17dc985f04" target="_top" xlink:title="Add a sine wave to the audio buffer.">
<polygon fill="none" stroke="black" points="553,-165 553,-195 686,-195 686,-165 553,-165"/>
<text text-anchor="start" x="561" y="-183" font-family="Helvetica,sans-Serif" font-size="10.00">signal_easel::Modulator</text>
<text text-anchor="middle" x="619.5" y="-172" font-family="Helvetica,sans-Serif" font-size="10.00">::addSineWave</text>
</a>
</g>
</g>
<!-- Node1&#45;&gt;Node8 -->
<g id="edge9" class="edge">
<title>Node1&#45;&gt;Node8</title>
<path fill="none" stroke="midnightblue" d="M715.72,-180C705.88,-180 695.88,-180 686.23,-180"/>
<polygon fill="midnightblue" stroke="midnightblue" points="715.88,-183.5 725.88,-180 715.88,-176.5 715.88,-183.5"/>
</g>
<!-- Node9 -->
<g id="node9" class="node">
<title>Node9</title>
<g id="a_node9"><a xlink:href="classsignal__easel_1_1afsk_1_1Modulator.html#a8e377665e5432ebb66de359635aeeafb" target="_top" xlink:title="This is overridden by the child classes to encode the data that is passed in by addBytes and addStrin...">
<polygon fill="none" stroke="black" points="549,-91 549,-121 690,-121 690,-91 549,-91"/>
<text text-anchor="start" x="557" y="-109" font-family="Helvetica,sans-Serif" font-size="10.00">signal_easel::afsk</text>
<text text-anchor="middle" x="619.5" y="-98" font-family="Helvetica,sans-Serif" font-size="10.00">::Modulator::encodeBytes</text>
</a>
</g>
</g>
<!-- Node1&#45;&gt;Node9 -->
<g id="edge11" class="edge">
<title>Node1&#45;&gt;Node9</title>
<path fill="none" stroke="midnightblue" d="M747.1,-160.79C718.44,-148.38 681.69,-132.48 655.18,-121.01"/>
<polygon fill="midnightblue" stroke="midnightblue" points="745.92,-164.09 756.48,-164.85 748.7,-157.66 745.92,-164.09"/>
</g>
<!-- Node3 -->
<g id="node3" class="node">
<title>Node3</title>
<g id="a_node3"><a xlink:href="classsignal__easel_1_1Modulator.html#a67263d2a46fdb510adb0b4211699bf26" target="_top" xlink:title="Add morse code to the output audio.">
<polygon fill="none" stroke="black" points="359,-170 359,-200 492,-200 492,-170 359,-170"/>
<text text-anchor="start" x="367" y="-188" font-family="Helvetica,sans-Serif" font-size="10.00">signal_easel::Modulator</text>
<text text-anchor="middle" x="425.5" y="-177" font-family="Helvetica,sans-Serif" font-size="10.00">::addMorseCode</text>
</a>
</g>
</g>
<!-- Node2&#45;&gt;Node3 -->
<g id="edge2" class="edge">
<title>Node2&#45;&gt;Node3</title>
<path fill="none" stroke="midnightblue" d="M543.15,-211.73C526.27,-207.86 508.51,-203.79 492.07,-200.03"/>
<polygon fill="midnightblue" stroke="midnightblue" points="542.43,-215.16 552.96,-213.98 544,-208.34 542.43,-215.16"/>
</g>
<!-- Node4 -->
<g id="node4" class="node">
<title>Node4</title>
<g id="a_node4"><a xlink:href="classsignal__easel_1_1Modulator.html#a39e52e97a95a761b73ba928f8a29e916" target="_top" xlink:title="Clears the audio buffer. Adds the call sign if it&#39;s in the before or before_and_after modes.">
<polygon fill="none" stroke="black" points="169,-243 169,-273 302,-273 302,-243 169,-243"/>
<text text-anchor="start" x="177" y="-261" font-family="Helvetica,sans-Serif" font-size="10.00">signal_easel::Modulator</text>
<text text-anchor="middle" x="235.5" y="-250" font-family="Helvetica,sans-Serif" font-size="10.00">::clearBuffer</text>
</a>
</g>
</g>
<!-- Node2&#45;&gt;Node4 -->
<g id="edge7" class="edge">
<title>Node2&#45;&gt;Node4</title>
<path fill="none" stroke="midnightblue" d="M542.8,-239.77C532.79,-240.98 522.66,-242.1 513,-243 441.08,-249.71 358.34,-253.71 302.25,-255.87"/>
<polygon fill="midnightblue" stroke="midnightblue" points="543.25,-243.24 552.74,-238.53 542.39,-236.29 543.25,-243.24"/>
</g>
<!-- Node6 -->
<g id="node6" class="node">
<title>Node6</title>
<g id="a_node6"><a xlink:href="classsignal__easel_1_1Modulator.html#a6ff0b49cd126afe576ac949476268f10" target="_top" xlink:title="Write the audio to a file.">
<polygon fill="none" stroke="black" points="169,-178 169,-208 302,-208 302,-178 169,-178"/>
<text text-anchor="start" x="177" y="-196" font-family="Helvetica,sans-Serif" font-size="10.00">signal_easel::Modulator</text>
<text text-anchor="middle" x="235.5" y="-185" font-family="Helvetica,sans-Serif" font-size="10.00">::writeToFile</text>
</a>
</g>
</g>
<!-- Node2&#45;&gt;Node6 -->
<g id="edge8" class="edge">
<title>Node2&#45;&gt;Node6</title>
<path fill="none" stroke="midnightblue" d="M542.58,-225.88C486.04,-223.07 407.03,-218.1 338,-210 326.38,-208.64 314.06,-206.86 302.16,-204.97"/>
<polygon fill="midnightblue" stroke="midnightblue" points="542.71,-229.39 552.87,-226.38 543.05,-222.4 542.71,-229.39"/>
</g>
<!-- Node3&#45;&gt;Node4 -->
<g id="edge3" class="edge">
<title>Node3&#45;&gt;Node4</title>
<path fill="none" stroke="midnightblue" d="M376.14,-203.78C344.84,-215.93 304.63,-231.54 275.4,-242.89"/>
<polygon fill="midnightblue" stroke="midnightblue" points="377.49,-207.01 385.55,-200.13 374.96,-200.48 377.49,-207.01"/>
</g>
<!-- Node3&#45;&gt;Node6 -->
<g id="edge5" class="edge">
<title>Node3&#45;&gt;Node6</title>
<path fill="none" stroke="midnightblue" d="M348.74,-188.22C333.33,-188.88 317.24,-189.56 302.22,-190.2"/>
<polygon fill="midnightblue" stroke="midnightblue" points="348.9,-191.72 358.75,-187.8 348.61,-184.73 348.9,-191.72"/>
</g>
<!-- Node5 -->
<g id="node5" class="node">
<title>Node5</title>
<g id="a_node5"><a xlink:href="classsignal__easel_1_1Modulator.html#aacf988cd7965d448b2da697911c76faf" target="_top" xlink:title="Constructor for the base modulator class.">
<polygon fill="none" stroke="black" points="0,-243 0,-273 133,-273 133,-243 0,-243"/>
<text text-anchor="start" x="8" y="-261" font-family="Helvetica,sans-Serif" font-size="10.00">signal_easel::Modulator</text>
<text text-anchor="middle" x="66.5" y="-250" font-family="Helvetica,sans-Serif" font-size="10.00">::Modulator</text>
</a>
</g>
</g>
<!-- Node4&#45;&gt;Node5 -->
<g id="edge4" class="edge">
<title>Node4&#45;&gt;Node5</title>
<path fill="none" stroke="midnightblue" d="M158.93,-258C150.32,-258 141.58,-258 133.11,-258"/>
<polygon fill="midnightblue" stroke="midnightblue" points="158.98,-261.5 168.98,-258 158.98,-254.5 158.98,-261.5"/>
</g>
<!-- Node7 -->
<g id="node7" class="node">
<title>Node7</title>
<g id="a_node7"><a xlink:href="afsk__test_8cpp.html#a894b615862c352aa932a7ff5fb85c6dd" target="_top" xlink:title="Encodes a string into an AFSK1200 signal/WAV file and then decodes it.">
<polygon fill="none" stroke="black" points="46,-183.5 46,-202.5 87,-202.5 87,-183.5 46,-183.5"/>
<text text-anchor="middle" x="66.5" y="-190.5" font-family="Helvetica,sans-Serif" font-size="10.00">TEST</text>
</a>
</g>
</g>
<!-- Node6&#45;&gt;Node7 -->
<g id="edge6" class="edge">
<title>Node6&#45;&gt;Node7</title>
<path fill="none" stroke="midnightblue" d="M158.94,-193C132.57,-193 105.13,-193 87.27,-193"/>
<polygon fill="midnightblue" stroke="midnightblue" points="158.98,-196.5 168.98,-193 158.98,-189.5 158.98,-196.5"/>
</g>
<!-- Node8&#45;&gt;Node3 -->
<g id="edge10" class="edge">
<title>Node8&#45;&gt;Node3</title>
<path fill="none" stroke="midnightblue" d="M542.67,-181.97C525.94,-182.41 508.35,-182.87 492.07,-183.29"/>
<polygon fill="midnightblue" stroke="midnightblue" points="543.06,-185.47 552.96,-181.71 542.87,-178.47 543.06,-185.47"/>
</g>
<!-- Node10 -->
<g id="node10" class="node">
<title>Node10</title>
<g id="a_node10"><a xlink:href="classsignal__easel_1_1aprs_1_1Modulator.html#adfa8809d1c11321b9ff2c7efe7f58499" target="_top" xlink:title=" ">
<polygon fill="none" stroke="black" points="338,-121 338,-151 513,-151 513,-121 338,-121"/>
<text text-anchor="start" x="346" y="-139" font-family="Helvetica,sans-Serif" font-size="10.00">signal_easel::aprs</text>
<text text-anchor="middle" x="425.5" y="-128" font-family="Helvetica,sans-Serif" font-size="10.00">::Modulator::encodeMessageAck</text>
</a>
</g>
</g>
<!-- Node9&#45;&gt;Node10 -->
<g id="edge12" class="edge">
<title>Node9&#45;&gt;Node10</title>
<path fill="none" stroke="midnightblue" d="M539.02,-118.42C530.5,-119.75 521.81,-121.11 513.22,-122.45"/>
<polygon fill="midnightblue" stroke="midnightblue" points="539.57,-121.88 548.91,-116.87 538.49,-114.96 539.57,-121.88"/>
</g>
<!-- Node11 -->
<g id="node11" class="node">
<title>Node11</title>
<g id="a_node11"><a xlink:href="classsignal__easel_1_1aprs_1_1Modulator.html#a147321b48c2e282c62863f114702e54f" target="_top" xlink:title=" ">
<polygon fill="none" stroke="black" points="347,-60.5 347,-101.5 504,-101.5 504,-60.5 347,-60.5"/>
<text text-anchor="start" x="355" y="-89.5" font-family="Helvetica,sans-Serif" font-size="10.00">signal_easel::aprs</text>
<text text-anchor="start" x="355" y="-78.5" font-family="Helvetica,sans-Serif" font-size="10.00">::Modulator::encodeMessage</text>
<text text-anchor="middle" x="425.5" y="-67.5" font-family="Helvetica,sans-Serif" font-size="10.00">Packet</text>
</a>
</g>
</g>
<!-- Node9&#45;&gt;Node11 -->
<g id="edge13" class="edge">
<title>Node9&#45;&gt;Node11</title>
<path fill="none" stroke="midnightblue" d="M538.95,-95.64C527.5,-94.15 515.72,-92.62 504.3,-91.13"/>
<polygon fill="midnightblue" stroke="midnightblue" points="538.54,-99.12 548.91,-96.94 539.45,-92.18 538.54,-99.12"/>
</g>
<!-- Node13 -->
<g id="node13" class="node">
<title>Node13</title>
<g id="a_node13"><a xlink:href="classsignal__easel_1_1aprs_1_1Modulator.html#a943e392227656943d7db842e1889d805" target="_top" xlink:title=" ">
<polygon fill="none" stroke="black" points="349.5,-0.5 349.5,-41.5 501.5,-41.5 501.5,-0.5 349.5,-0.5"/>
<text text-anchor="start" x="357.5" y="-29.5" font-family="Helvetica,sans-Serif" font-size="10.00">signal_easel::aprs</text>
<text text-anchor="start" x="357.5" y="-18.5" font-family="Helvetica,sans-Serif" font-size="10.00">::Modulator::encodePosition</text>
<text text-anchor="middle" x="425.5" y="-7.5" font-family="Helvetica,sans-Serif" font-size="10.00">Packet</text>
</a>
</g>
</g>
<!-- Node9&#45;&gt;Node13 -->
<g id="edge15" class="edge">
<title>Node9&#45;&gt;Node13</title>
<path fill="none" stroke="midnightblue" d="M583.29,-85.99C563.08,-74.92 537.01,-61.36 513,-51 505.41,-47.73 497.34,-44.55 489.28,-41.55"/>
<polygon fill="midnightblue" stroke="midnightblue" points="581.7,-89.11 592.14,-90.88 585.08,-82.98 581.7,-89.11"/>
</g>
<!-- Node12 -->
<g id="node12" class="node">
<title>Node12</title>
<g id="a_node12"><a xlink:href="aprs__test_8cpp.html#aea66d1824e3f1e27598adf99ac6a089a" target="_top" xlink:title=" ">
<polygon fill="none" stroke="black" points="215,-71.5 215,-90.5 256,-90.5 256,-71.5 215,-71.5"/>
<text text-anchor="middle" x="235.5" y="-78.5" font-family="Helvetica,sans-Serif" font-size="10.00">TEST</text>
</a>
</g>
</g>
<!-- Node11&#45;&gt;Node12 -->
<g id="edge14" class="edge">
<title>Node11&#45;&gt;Node12</title>
<path fill="none" stroke="midnightblue" d="M336.77,-81C306.61,-81 275.58,-81 256.19,-81"/>
<polygon fill="midnightblue" stroke="midnightblue" points="336.95,-84.5 346.95,-81 336.95,-77.5 336.95,-84.5"/>
</g>
</g>
</svg>
