<?xml version="1.0" encoding="UTF-8" standalone="no"?>
<!DOCTYPE svg PUBLIC "-//W3C//DTD SVG 1.1//EN"
 "http://www.w3.org/Graphics/SVG/1.1/DTD/svg11.dtd">
<!-- Generated by graphviz version 2.43.0 (0)
 -->
<!-- Title: signal_easel::ax25::Address::isAddressStringValid Pages: 1 -->
<svg width="1129pt" height="122pt"
 viewBox="0.00 0.00 1129.00 121.50" xmlns="http://www.w3.org/2000/svg" xmlns:xlink="http://www.w3.org/1999/xlink">
<g id="graph0" class="graph" transform="scale(1 1) rotate(0) translate(4 117.5)">
<title>signal_easel::ax25::Address::isAddressStringValid</title>
<!-- Node1 -->
<g id="node1" class="node">
<title>Node1</title>
<g id="a_node1"><a xlink:title=" ">
<polygon fill="#bfbfbf" stroke="black" points="978,-11.5 978,-52.5 1121,-52.5 1121,-11.5 978,-11.5"/>
<text text-anchor="start" x="986" y="-40.5" font-family="Helvetica,sans-Serif" font-size="10.00">signal_easel::ax25</text>
<text text-anchor="start" x="986" y="-29.5" font-family="Helvetica,sans-Serif" font-size="10.00">::Address::isAddressString</text>
<text text-anchor="middle" x="1049.5" y="-18.5" font-family="Helvetica,sans-Serif" font-size="10.00">Valid</text>
</a>
</g>
</g>
<!-- Node2 -->
<g id="node2" class="node">
<title>Node2</title>
<g id="a_node2"><a xlink:href="classsignal__easel_1_1ax25_1_1Address.html#aae81920cfd0dc7d89cb107f9d825488c" target="_top" xlink:title="If the address is valid (can be encoded correctly or was decoded)">
<polygon fill="none" stroke="black" points="835,-17 835,-47 942,-47 942,-17 835,-17"/>
<text text-anchor="start" x="843" y="-35" font-family="Helvetica,sans-Serif" font-size="10.00">signal_easel::ax25</text>
<text text-anchor="middle" x="888.5" y="-24" font-family="Helvetica,sans-Serif" font-size="10.00">::Address::isValid</text>
</a>
</g>
</g>
<!-- Node1&#45;&gt;Node2 -->
<g id="edge1" class="edge">
<title>Node1&#45;&gt;Node2</title>
<path fill="none" stroke="midnightblue" d="M967.72,-32C959.09,-32 950.48,-32 942.29,-32"/>
<polygon fill="midnightblue" stroke="midnightblue" points="967.83,-35.5 977.83,-32 967.83,-28.5 967.83,-35.5"/>
</g>
<!-- Node3 -->
<g id="node3" class="node">
<title>Node3</title>
<g id="a_node3"><a xlink:href="classsignal__easel_1_1ax25_1_1Frame.html#a640edeabbda34e78cc243e3561747bf9" target="_top" xlink:title=" ">
<polygon fill="none" stroke="black" points="677,-39 677,-69 799,-69 799,-39 677,-39"/>
<text text-anchor="start" x="685" y="-57" font-family="Helvetica,sans-Serif" font-size="10.00">signal_easel::ax25</text>
<text text-anchor="middle" x="738" y="-46" font-family="Helvetica,sans-Serif" font-size="10.00">::Frame::isFrameValid</text>
</a>
</g>
</g>
<!-- Node2&#45;&gt;Node3 -->
<g id="edge2" class="edge">
<title>Node2&#45;&gt;Node3</title>
<path fill="none" stroke="midnightblue" d="M824.59,-41.32C816.18,-42.57 807.56,-43.84 799.2,-45.08"/>
<polygon fill="midnightblue" stroke="midnightblue" points="825.35,-44.75 834.73,-39.82 824.32,-37.82 825.35,-44.75"/>
</g>
<!-- Node11 -->
<g id="node11" class="node">
<title>Node11</title>
<g id="a_node11"><a xlink:href="ax25__address__test_8cpp.html#afa443d4d5f700a003ec7cac34596dcba" target="_top" xlink:title=" ">
<polygon fill="none" stroke="black" points="717.5,-0.5 717.5,-19.5 758.5,-19.5 758.5,-0.5 717.5,-0.5"/>
<text text-anchor="middle" x="738" y="-7.5" font-family="Helvetica,sans-Serif" font-size="10.00">TEST</text>
</a>
</g>
</g>
<!-- Node2&#45;&gt;Node11 -->
<g id="edge10" class="edge">
<title>Node2&#45;&gt;Node11</title>
<path fill="none" stroke="midnightblue" d="M824.69,-22.7C800.98,-19.18 775.68,-15.43 758.76,-12.93"/>
<polygon fill="midnightblue" stroke="midnightblue" points="824.32,-26.18 834.73,-24.18 825.35,-19.25 824.32,-26.18"/>
</g>
<!-- Node4 -->
<g id="node4" class="node">
<title>Node4</title>
<g id="a_node4"><a xlink:href="classsignal__easel_1_1ax25_1_1Frame.html#a24e7d5ffc6504a3380e97142d1bc084e" target="_top" xlink:title="Builds all internal portions of the frame. Doesn&#39;t include the flags.">
<polygon fill="none" stroke="black" points="527,-61 527,-91 641,-91 641,-61 527,-61"/>
<text text-anchor="start" x="535" y="-79" font-family="Helvetica,sans-Serif" font-size="10.00">signal_easel::ax25</text>
<text text-anchor="middle" x="584" y="-68" font-family="Helvetica,sans-Serif" font-size="10.00">::Frame::buildFrame</text>
</a>
</g>
</g>
<!-- Node3&#45;&gt;Node4 -->
<g id="edge3" class="edge">
<title>Node3&#45;&gt;Node4</title>
<path fill="none" stroke="midnightblue" d="M666.88,-64.15C658.27,-65.4 649.55,-66.66 641.17,-67.87"/>
<polygon fill="midnightblue" stroke="midnightblue" points="667.53,-67.59 676.93,-62.69 666.53,-60.66 667.53,-67.59"/>
</g>
<!-- Node10 -->
<g id="node10" class="node">
<title>Node10</title>
<g id="a_node10"><a xlink:href="ax25__frame__test_8cpp.html#a091d83d42783f2a0b3fd33a0521dc2ce" target="_top" xlink:title=" ">
<polygon fill="none" stroke="black" points="563.5,-22.5 563.5,-41.5 604.5,-41.5 604.5,-22.5 563.5,-22.5"/>
<text text-anchor="middle" x="584" y="-29.5" font-family="Helvetica,sans-Serif" font-size="10.00">TEST</text>
</a>
</g>
</g>
<!-- Node3&#45;&gt;Node10 -->
<g id="edge9" class="edge">
<title>Node3&#45;&gt;Node10</title>
<path fill="none" stroke="midnightblue" d="M666.88,-43.85C644.08,-40.55 620.57,-37.15 604.62,-34.84"/>
<polygon fill="midnightblue" stroke="midnightblue" points="666.53,-47.34 676.93,-45.31 667.53,-40.41 666.53,-47.34"/>
</g>
<!-- Node5 -->
<g id="node5" class="node">
<title>Node5</title>
<g id="a_node5"><a xlink:href="classsignal__easel_1_1ax25_1_1Frame.html#a2b4f6ebcb7592a7e5a21114c8fafa503" target="_top" xlink:title="A step beyond buildFrame. This function builds the frame, does the bit stuffing, adds the flags,...">
<polygon fill="none" stroke="black" points="366,-61 366,-91 491,-91 491,-61 366,-61"/>
<text text-anchor="start" x="374" y="-79" font-family="Helvetica,sans-Serif" font-size="10.00">signal_easel::ax25</text>
<text text-anchor="middle" x="428.5" y="-68" font-family="Helvetica,sans-Serif" font-size="10.00">::Frame::encodeFrame</text>
</a>
</g>
</g>
<!-- Node4&#45;&gt;Node5 -->
<g id="edge4" class="edge">
<title>Node4&#45;&gt;Node5</title>
<path fill="none" stroke="midnightblue" d="M516.56,-76C508.14,-76 499.55,-76 491.21,-76"/>
<polygon fill="midnightblue" stroke="midnightblue" points="516.71,-79.5 526.71,-76 516.71,-72.5 516.71,-79.5"/>
</g>
<!-- Node6 -->
<g id="node6" class="node">
<title>Node6</title>
<g id="a_node6"><a xlink:href="namespacesignal__easel_1_1aprs.html#a77481001a5b78a839972bb4220b43e4d" target="_top" xlink:title=" ">
<polygon fill="none" stroke="black" points="226,-83 226,-113 330,-113 330,-83 226,-83"/>
<text text-anchor="start" x="234" y="-101" font-family="Helvetica,sans-Serif" font-size="10.00">signal_easel::aprs</text>
<text text-anchor="middle" x="278" y="-90" font-family="Helvetica,sans-Serif" font-size="10.00">::encodePacket</text>
</a>
</g>
</g>
<!-- Node5&#45;&gt;Node6 -->
<g id="edge5" class="edge">
<title>Node5&#45;&gt;Node6</title>
<path fill="none" stroke="midnightblue" d="M355.79,-86.62C347.2,-87.9 338.58,-89.17 330.36,-90.39"/>
<polygon fill="midnightblue" stroke="midnightblue" points="356.43,-90.07 365.81,-85.14 355.41,-83.14 356.43,-90.07"/>
</g>
<!-- Node9 -->
<g id="node9" class="node">
<title>Node9</title>
<g id="a_node9"><a xlink:href="tmp_8cpp.html#ae66f6b31b5ad750f1fe042a706a4e3d4" target="_top" xlink:title=" ">
<polygon fill="none" stroke="black" points="257.5,-44.5 257.5,-63.5 298.5,-63.5 298.5,-44.5 257.5,-44.5"/>
<text text-anchor="middle" x="278" y="-51.5" font-family="Helvetica,sans-Serif" font-size="10.00">main</text>
</a>
</g>
</g>
<!-- Node5&#45;&gt;Node9 -->
<g id="edge8" class="edge">
<title>Node5&#45;&gt;Node9</title>
<path fill="none" stroke="midnightblue" d="M355.87,-65.39C334.83,-62.27 313.52,-59.11 298.69,-56.92"/>
<polygon fill="midnightblue" stroke="midnightblue" points="355.41,-68.86 365.81,-66.86 356.43,-61.93 355.41,-68.86"/>
</g>
<!-- Node7 -->
<g id="node7" class="node">
<title>Node7</title>
<g id="a_node7"><a xlink:href="classsignal__easel_1_1aprs_1_1Modulator.html#a8ae067701382dec1680b786583ace687" target="_top" xlink:title=" ">
<polygon fill="none" stroke="black" points="77,-83 77,-113 190,-113 190,-83 77,-83"/>
<text text-anchor="start" x="85" y="-101" font-family="Helvetica,sans-Serif" font-size="10.00">signal_easel::aprs</text>
<text text-anchor="middle" x="133.5" y="-90" font-family="Helvetica,sans-Serif" font-size="10.00">::Modulator::encode</text>
</a>
</g>
</g>
<!-- Node6&#45;&gt;Node7 -->
<g id="edge6" class="edge">
<title>Node6&#45;&gt;Node7</title>
<path fill="none" stroke="midnightblue" d="M215.68,-98C207.15,-98 198.43,-98 190.01,-98"/>
<polygon fill="midnightblue" stroke="midnightblue" points="215.96,-101.5 225.96,-98 215.96,-94.5 215.96,-101.5"/>
</g>
<!-- Node8 -->
<g id="node8" class="node">
<title>Node8</title>
<g id="a_node8"><a xlink:href="aprs__test_8cpp.html#aea66d1824e3f1e27598adf99ac6a089a" target="_top" xlink:title=" ">
<polygon fill="none" stroke="black" points="0,-88.5 0,-107.5 41,-107.5 41,-88.5 0,-88.5"/>
<text text-anchor="middle" x="20.5" y="-95.5" font-family="Helvetica,sans-Serif" font-size="10.00">TEST</text>
</a>
</g>
</g>
<!-- Node7&#45;&gt;Node8 -->
<g id="edge7" class="edge">
<title>Node7&#45;&gt;Node8</title>
<path fill="none" stroke="midnightblue" d="M66.58,-98C57.37,-98 48.56,-98 41.21,-98"/>
<polygon fill="midnightblue" stroke="midnightblue" points="66.67,-101.5 76.67,-98 66.67,-94.5 66.67,-101.5"/>
</g>
</g>
</svg>
