<?xml version="1.0" encoding="UTF-8" standalone="no"?>
<!DOCTYPE svg PUBLIC "-//W3C//DTD SVG 1.1//EN"
 "http://www.w3.org/Graphics/SVG/1.1/DTD/svg11.dtd">
<!-- Generated by graphviz version 2.43.0 (0)
 -->
<!-- Title: signal_easel::ax25::Address::assertIsValid Pages: 1 -->
<svg width="1108pt" height="288pt"
 viewBox="0.00 0.00 1108.00 288.46" xmlns="http://www.w3.org/2000/svg" xmlns:xlink="http://www.w3.org/1999/xlink">
<g id="graph0" class="graph" transform="scale(1 1) rotate(0) translate(4 284.46)">
<title>signal_easel::ax25::Address::assertIsValid</title>
<!-- Node1 -->
<g id="node1" class="node">
<title>Node1</title>
<g id="a_node1"><a xlink:title="Checks if the address is valid, if not throws an exception with a specific error code.">
<polygon fill="#bfbfbf" stroke="black" points="970,-112.96 970,-142.96 1100,-142.96 1100,-112.96 970,-112.96"/>
<text text-anchor="start" x="978" y="-130.96" font-family="Helvetica,sans-Serif" font-size="10.00">signal_easel::ax25</text>
<text text-anchor="middle" x="1035" y="-119.96" font-family="Helvetica,sans-Serif" font-size="10.00">::Address::assertIsValid</text>
</a>
</g>
</g>
<!-- Node2 -->
<g id="node2" class="node">
<title>Node2</title>
<g id="a_node2"><a xlink:href="classsignal__easel_1_1ax25_1_1Frame.html#af86d4b534367a8faf6b628301c9ffceb" target="_top" xlink:title=" ">
<polygon fill="none" stroke="black" points="590.5,-161.96 590.5,-191.96 751.5,-191.96 751.5,-161.96 590.5,-161.96"/>
<text text-anchor="start" x="598.5" y="-179.96" font-family="Helvetica,sans-Serif" font-size="10.00">signal_easel::ax25</text>
<text text-anchor="middle" x="671" y="-168.96" font-family="Helvetica,sans-Serif" font-size="10.00">::Frame::addRepeaterAddress</text>
</a>
</g>
</g>
<!-- Node1&#45;&gt;Node2 -->
<g id="edge1" class="edge">
<title>Node1&#45;&gt;Node2</title>
<path fill="none" stroke="midnightblue" d="M959.82,-138.39C951.12,-139.6 942.36,-140.81 934,-141.96 872.85,-150.32 803.63,-159.56 751.71,-166.44"/>
<polygon fill="midnightblue" stroke="midnightblue" points="960.57,-141.82 969.99,-136.98 959.61,-134.89 960.57,-141.82"/>
</g>
<!-- Node8 -->
<g id="node8" class="node">
<title>Node8</title>
<g id="a_node8"><a xlink:href="classsignal__easel_1_1ax25_1_1Address.html#a0c31737081a9184b56dc32150b23cb0a" target="_top" xlink:title="Get the address as a byte array.">
<polygon fill="none" stroke="black" points="792,-205.96 792,-235.96 934,-235.96 934,-205.96 792,-205.96"/>
<text text-anchor="start" x="800" y="-223.96" font-family="Helvetica,sans-Serif" font-size="10.00">signal_easel::ax25</text>
<text text-anchor="middle" x="863" y="-212.96" font-family="Helvetica,sans-Serif" font-size="10.00">::Address::encodeAddress</text>
</a>
</g>
</g>
<!-- Node1&#45;&gt;Node8 -->
<g id="edge7" class="edge">
<title>Node1&#45;&gt;Node8</title>
<path fill="none" stroke="midnightblue" d="M1000.06,-148.34C980.85,-159.7 956.26,-173.95 934,-185.96 921.44,-192.73 907.41,-199.83 895.23,-205.86"/>
<polygon fill="midnightblue" stroke="midnightblue" points="1001.95,-151.29 1008.76,-143.17 998.38,-145.27 1001.95,-151.29"/>
</g>
<!-- Node14 -->
<g id="node14" class="node">
<title>Node14</title>
<g id="a_node14"><a xlink:href="classsignal__easel_1_1ax25_1_1Frame.html#a57b163ece54317da8d95f3b18b47c23d" target="_top" xlink:title="setters/getters for the frame.">
<polygon fill="none" stroke="black" points="586,-112.96 586,-142.96 756,-142.96 756,-112.96 586,-112.96"/>
<text text-anchor="start" x="594" y="-130.96" font-family="Helvetica,sans-Serif" font-size="10.00">signal_easel::ax25</text>
<text text-anchor="middle" x="671" y="-119.96" font-family="Helvetica,sans-Serif" font-size="10.00">::Frame::setDestinationAddress</text>
</a>
</g>
</g>
<!-- Node1&#45;&gt;Node14 -->
<g id="edge15" class="edge">
<title>Node1&#45;&gt;Node14</title>
<path fill="none" stroke="midnightblue" d="M959.68,-127.96C900.52,-127.96 817.72,-127.96 756.13,-127.96"/>
<polygon fill="midnightblue" stroke="midnightblue" points="959.7,-131.46 969.7,-127.96 959.7,-124.46 959.7,-131.46"/>
</g>
<!-- Node16 -->
<g id="node16" class="node">
<title>Node16</title>
<g id="a_node16"><a xlink:href="ax25__frame__test_8cpp.html#a091d83d42783f2a0b3fd33a0521dc2ce" target="_top" xlink:title=" ">
<polygon fill="none" stroke="black" points="462,-31.46 462,-50.46 503,-50.46 503,-31.46 462,-31.46"/>
<text text-anchor="middle" x="482.5" y="-38.46" font-family="Helvetica,sans-Serif" font-size="10.00">TEST</text>
</a>
</g>
</g>
<!-- Node1&#45;&gt;Node16 -->
<g id="edge26" class="edge">
<title>Node1&#45;&gt;Node16</title>
<path fill="none" stroke="midnightblue" d="M984.74,-109.38C968.69,-103.69 950.71,-97.69 934,-92.96 856.08,-70.87 836.29,-64.59 756,-53.96 661.86,-41.49 548.03,-40.58 503.1,-40.77"/>
<polygon fill="midnightblue" stroke="midnightblue" points="983.86,-112.79 994.45,-112.87 986.22,-106.2 983.86,-112.79"/>
</g>
<!-- Node17 -->
<g id="node17" class="node">
<title>Node17</title>
<g id="a_node17"><a xlink:href="classsignal__easel_1_1ax25_1_1Frame.html#a402d26a81f82bb5c477e8930b75a771e" target="_top" xlink:title=" ">
<polygon fill="none" stroke="black" points="598,-63.96 598,-93.96 744,-93.96 744,-63.96 598,-63.96"/>
<text text-anchor="start" x="606" y="-81.96" font-family="Helvetica,sans-Serif" font-size="10.00">signal_easel::ax25</text>
<text text-anchor="middle" x="671" y="-70.96" font-family="Helvetica,sans-Serif" font-size="10.00">::Frame::setSourceAddress</text>
</a>
</g>
</g>
<!-- Node1&#45;&gt;Node17 -->
<g id="edge21" class="edge">
<title>Node1&#45;&gt;Node17</title>
<path fill="none" stroke="midnightblue" d="M959.42,-117.86C896.32,-109.32 806.47,-97.16 744.09,-88.71"/>
<polygon fill="midnightblue" stroke="midnightblue" points="959.32,-121.38 969.7,-119.25 960.26,-114.44 959.32,-121.38"/>
</g>
<!-- Node3 -->
<g id="node3" class="node">
<title>Node3</title>
<g id="a_node3"><a xlink:href="tmp_8cpp.html#ae66f6b31b5ad750f1fe042a706a4e3d4" target="_top" xlink:title=" ">
<polygon fill="none" stroke="black" points="282,-173.46 282,-192.46 323,-192.46 323,-173.46 282,-173.46"/>
<text text-anchor="middle" x="302.5" y="-180.46" font-family="Helvetica,sans-Serif" font-size="10.00">main</text>
</a>
</g>
</g>
<!-- Node2&#45;&gt;Node3 -->
<g id="edge2" class="edge">
<title>Node2&#45;&gt;Node3</title>
<path fill="none" stroke="midnightblue" d="M580.26,-189.41C570.07,-190.45 559.82,-191.34 550,-191.96 490.12,-195.68 474.95,-194.37 415,-191.96 382.79,-190.66 345.47,-187.26 323.21,-185.03"/>
<polygon fill="midnightblue" stroke="midnightblue" points="580.85,-192.86 590.41,-188.31 580.1,-185.9 580.85,-192.86"/>
</g>
<!-- Node4 -->
<g id="node4" class="node">
<title>Node4</title>
<g id="a_node4"><a xlink:href="classsignal__easel_1_1ax25_1_1Frame.html#a63cf2362c2a90d20f09bbbc4f24a07ba" target="_top" xlink:title="Attempt to parse an incoming bit stream into an AX.25 frame.">
<polygon fill="none" stroke="black" points="415,-118.96 415,-148.96 550,-148.96 550,-118.96 415,-118.96"/>
<text text-anchor="start" x="423" y="-136.96" font-family="Helvetica,sans-Serif" font-size="10.00">signal_easel::ax25</text>
<text text-anchor="middle" x="482.5" y="-125.96" font-family="Helvetica,sans-Serif" font-size="10.00">::Frame::parseBitStream</text>
</a>
</g>
</g>
<!-- Node2&#45;&gt;Node4 -->
<g id="edge3" class="edge">
<title>Node2&#45;&gt;Node4</title>
<path fill="none" stroke="midnightblue" d="M594.84,-159.63C579.56,-156.1 563.6,-152.42 548.69,-148.99"/>
<polygon fill="midnightblue" stroke="midnightblue" points="594.24,-163.08 604.77,-161.92 595.81,-156.26 594.24,-163.08"/>
</g>
<!-- Node5 -->
<g id="node5" class="node">
<title>Node5</title>
<g id="a_node5"><a xlink:href="classsignal__easel_1_1aprs_1_1Demodulator.html#ae5a8e7634c1bc8d215a0c454a9a737fa" target="_top" xlink:title=" ">
<polygon fill="none" stroke="black" points="226,-113.46 226,-154.46 379,-154.46 379,-113.46 226,-113.46"/>
<text text-anchor="start" x="234" y="-142.46" font-family="Helvetica,sans-Serif" font-size="10.00">signal_easel::aprs</text>
<text text-anchor="start" x="234" y="-131.46" font-family="Helvetica,sans-Serif" font-size="10.00">::Demodulator::lookForAx25</text>
<text text-anchor="middle" x="302.5" y="-120.46" font-family="Helvetica,sans-Serif" font-size="10.00">Packet</text>
</a>
</g>
</g>
<!-- Node4&#45;&gt;Node5 -->
<g id="edge4" class="edge">
<title>Node4&#45;&gt;Node5</title>
<path fill="none" stroke="midnightblue" d="M404.74,-133.96C396.29,-133.96 387.68,-133.96 379.23,-133.96"/>
<polygon fill="midnightblue" stroke="midnightblue" points="404.97,-137.46 414.97,-133.96 404.97,-130.46 404.97,-137.46"/>
</g>
<!-- Node6 -->
<g id="node6" class="node">
<title>Node6</title>
<g id="a_node6"><a xlink:href="classsignal__easel_1_1aprs_1_1Receiver.html#afbf7869aceaf2ea7ab0be8b9af16e818" target="_top" xlink:title=" ">
<polygon fill="none" stroke="black" points="80,-118.96 80,-148.96 187,-148.96 187,-118.96 80,-118.96"/>
<text text-anchor="start" x="88" y="-136.96" font-family="Helvetica,sans-Serif" font-size="10.00">signal_easel::aprs</text>
<text text-anchor="middle" x="133.5" y="-125.96" font-family="Helvetica,sans-Serif" font-size="10.00">::Receiver::decode</text>
</a>
</g>
</g>
<!-- Node5&#45;&gt;Node6 -->
<g id="edge5" class="edge">
<title>Node5&#45;&gt;Node6</title>
<path fill="none" stroke="midnightblue" d="M215.78,-133.96C206.13,-133.96 196.53,-133.96 187.48,-133.96"/>
<polygon fill="midnightblue" stroke="midnightblue" points="215.82,-137.46 225.82,-133.96 215.82,-130.46 215.82,-137.46"/>
</g>
<!-- Node7 -->
<g id="node7" class="node">
<title>Node7</title>
<g id="a_node7"><a xlink:href="aprs__test_8cpp.html#aea66d1824e3f1e27598adf99ac6a089a" target="_top" xlink:title=" ">
<polygon fill="none" stroke="black" points="0,-192.46 0,-211.46 41,-211.46 41,-192.46 0,-192.46"/>
<text text-anchor="middle" x="20.5" y="-199.46" font-family="Helvetica,sans-Serif" font-size="10.00">TEST</text>
</a>
</g>
</g>
<!-- Node5&#45;&gt;Node7 -->
<g id="edge6" class="edge">
<title>Node5&#45;&gt;Node7</title>
<path fill="none" stroke="midnightblue" d="M215.67,-154.8C154.45,-169.67 76.89,-188.5 41.16,-197.18"/>
<polygon fill="midnightblue" stroke="midnightblue" points="216.84,-158.12 225.73,-152.36 215.18,-151.32 216.84,-158.12"/>
</g>
<!-- Node9 -->
<g id="node9" class="node">
<title>Node9</title>
<g id="a_node9"><a xlink:href="classsignal__easel_1_1ax25_1_1Frame.html#a24e7d5ffc6504a3380e97142d1bc084e" target="_top" xlink:title="Builds all internal portions of the frame. Doesn&#39;t include the flags.">
<polygon fill="none" stroke="black" points="614,-249.96 614,-279.96 728,-279.96 728,-249.96 614,-249.96"/>
<text text-anchor="start" x="622" y="-267.96" font-family="Helvetica,sans-Serif" font-size="10.00">signal_easel::ax25</text>
<text text-anchor="middle" x="671" y="-256.96" font-family="Helvetica,sans-Serif" font-size="10.00">::Frame::buildFrame</text>
</a>
</g>
</g>
<!-- Node8&#45;&gt;Node9 -->
<g id="edge8" class="edge">
<title>Node8&#45;&gt;Node9</title>
<path fill="none" stroke="midnightblue" d="M787.26,-238.26C767.52,-242.83 746.56,-247.69 728,-251.99"/>
<polygon fill="midnightblue" stroke="midnightblue" points="788.19,-241.64 797.14,-235.98 786.61,-234.82 788.19,-241.64"/>
</g>
<!-- Node13 -->
<g id="node13" class="node">
<title>Node13</title>
<g id="a_node13"><a xlink:href="ax25__address__test_8cpp.html#a1d87028368532ba4ae914da9397571d3" target="_top" xlink:title=" ">
<polygon fill="none" stroke="black" points="650.5,-211.46 650.5,-230.46 691.5,-230.46 691.5,-211.46 650.5,-211.46"/>
<text text-anchor="middle" x="671" y="-218.46" font-family="Helvetica,sans-Serif" font-size="10.00">TEST</text>
</a>
</g>
</g>
<!-- Node8&#45;&gt;Node13 -->
<g id="edge14" class="edge">
<title>Node8&#45;&gt;Node13</title>
<path fill="none" stroke="midnightblue" d="M781.63,-220.96C748.57,-220.96 713.09,-220.96 691.72,-220.96"/>
<polygon fill="midnightblue" stroke="midnightblue" points="781.79,-224.46 791.79,-220.96 781.79,-217.46 781.79,-224.46"/>
</g>
<!-- Node10 -->
<g id="node10" class="node">
<title>Node10</title>
<g id="a_node10"><a xlink:href="classsignal__easel_1_1ax25_1_1Frame.html#a2b4f6ebcb7592a7e5a21114c8fafa503" target="_top" xlink:title="A step beyond buildFrame. This function builds the frame, does the bit stuffing, adds the flags,...">
<polygon fill="none" stroke="black" points="420,-244.96 420,-274.96 545,-274.96 545,-244.96 420,-244.96"/>
<text text-anchor="start" x="428" y="-262.96" font-family="Helvetica,sans-Serif" font-size="10.00">signal_easel::ax25</text>
<text text-anchor="middle" x="482.5" y="-251.96" font-family="Helvetica,sans-Serif" font-size="10.00">::Frame::encodeFrame</text>
</a>
</g>
</g>
<!-- Node9&#45;&gt;Node10 -->
<g id="edge9" class="edge">
<title>Node9&#45;&gt;Node10</title>
<path fill="none" stroke="midnightblue" d="M603.69,-263.18C584.62,-262.67 563.9,-262.11 545.13,-261.61"/>
<polygon fill="midnightblue" stroke="midnightblue" points="603.7,-266.68 613.79,-263.45 603.89,-259.68 603.7,-266.68"/>
</g>
<!-- Node10&#45;&gt;Node3 -->
<g id="edge13" class="edge">
<title>Node10&#45;&gt;Node3</title>
<path fill="none" stroke="midnightblue" d="M434.65,-240.52C427.92,-237.24 421.19,-233.69 415,-229.96 397.64,-219.49 397.22,-210.84 379,-201.96 361.14,-193.25 338.9,-188.27 323.19,-185.62"/>
<polygon fill="midnightblue" stroke="midnightblue" points="433.23,-243.72 443.77,-244.81 436.21,-237.39 433.23,-243.72"/>
</g>
<!-- Node11 -->
<g id="node11" class="node">
<title>Node11</title>
<g id="a_node11"><a xlink:href="namespacesignal__easel_1_1aprs.html#a77481001a5b78a839972bb4220b43e4d" target="_top" xlink:title=" ">
<polygon fill="none" stroke="black" points="250.5,-211.96 250.5,-241.96 354.5,-241.96 354.5,-211.96 250.5,-211.96"/>
<text text-anchor="start" x="258.5" y="-229.96" font-family="Helvetica,sans-Serif" font-size="10.00">signal_easel::aprs</text>
<text text-anchor="middle" x="302.5" y="-218.96" font-family="Helvetica,sans-Serif" font-size="10.00">::encodePacket</text>
</a>
</g>
</g>
<!-- Node10&#45;&gt;Node11 -->
<g id="edge10" class="edge">
<title>Node10&#45;&gt;Node11</title>
<path fill="none" stroke="midnightblue" d="M409.87,-246.68C391.34,-243.24 371.77,-239.61 354.53,-236.42"/>
<polygon fill="midnightblue" stroke="midnightblue" points="409.27,-250.13 419.74,-248.51 410.55,-243.24 409.27,-250.13"/>
</g>
<!-- Node12 -->
<g id="node12" class="node">
<title>Node12</title>
<g id="a_node12"><a xlink:href="classsignal__easel_1_1aprs_1_1Modulator.html#a8ae067701382dec1680b786583ace687" target="_top" xlink:title=" ">
<polygon fill="none" stroke="black" points="77,-209.96 77,-239.96 190,-239.96 190,-209.96 77,-209.96"/>
<text text-anchor="start" x="85" y="-227.96" font-family="Helvetica,sans-Serif" font-size="10.00">signal_easel::aprs</text>
<text text-anchor="middle" x="133.5" y="-216.96" font-family="Helvetica,sans-Serif" font-size="10.00">::Modulator::encode</text>
</a>
</g>
</g>
<!-- Node11&#45;&gt;Node12 -->
<g id="edge11" class="edge">
<title>Node11&#45;&gt;Node12</title>
<path fill="none" stroke="midnightblue" d="M240.43,-226.22C223.98,-226.03 206.28,-225.82 190.14,-225.62"/>
<polygon fill="midnightblue" stroke="midnightblue" points="240.45,-229.72 250.49,-226.34 240.53,-222.73 240.45,-229.72"/>
</g>
<!-- Node12&#45;&gt;Node7 -->
<g id="edge12" class="edge">
<title>Node12&#45;&gt;Node7</title>
<path fill="none" stroke="midnightblue" d="M66.87,-211.36C57.56,-209.43 48.64,-207.58 41.21,-206.04"/>
<polygon fill="midnightblue" stroke="midnightblue" points="66.17,-214.79 76.67,-213.39 67.59,-207.93 66.17,-214.79"/>
</g>
<!-- Node14&#45;&gt;Node3 -->
<g id="edge18" class="edge">
<title>Node14&#45;&gt;Node3</title>
<path fill="none" stroke="midnightblue" d="M606.95,-145.53C588.69,-150.12 568.65,-154.7 550,-157.96 466.31,-172.58 365.04,-179.52 323.12,-181.93"/>
<polygon fill="midnightblue" stroke="midnightblue" points="608.07,-148.85 616.89,-142.98 606.33,-142.07 608.07,-148.85"/>
</g>
<!-- Node14&#45;&gt;Node4 -->
<g id="edge19" class="edge">
<title>Node14&#45;&gt;Node4</title>
<path fill="none" stroke="midnightblue" d="M575.62,-130.99C566.99,-131.27 558.36,-131.55 550.04,-131.82"/>
<polygon fill="midnightblue" stroke="midnightblue" points="575.87,-134.49 585.75,-130.67 575.65,-127.49 575.87,-134.49"/>
</g>
<!-- Node15 -->
<g id="node15" class="node">
<title>Node15</title>
<g id="a_node15"><a xlink:href="namespacesignal__easel_1_1aprs.html#a586b022fa0c917fa8557bbd5cdc6aeeb" target="_top" xlink:title=" ">
<polygon fill="none" stroke="black" points="426,-69.96 426,-99.96 539,-99.96 539,-69.96 426,-69.96"/>
<text text-anchor="start" x="434" y="-87.96" font-family="Helvetica,sans-Serif" font-size="10.00">signal_easel::aprs</text>
<text text-anchor="middle" x="482.5" y="-76.96" font-family="Helvetica,sans-Serif" font-size="10.00">::AddRequiredFields</text>
</a>
</g>
</g>
<!-- Node14&#45;&gt;Node15 -->
<g id="edge16" class="edge">
<title>Node14&#45;&gt;Node15</title>
<path fill="none" stroke="midnightblue" d="M594.84,-110.63C576.22,-106.33 556.59,-101.81 539.09,-97.77"/>
<polygon fill="midnightblue" stroke="midnightblue" points="594.24,-114.08 604.77,-112.92 595.81,-107.26 594.24,-114.08"/>
</g>
<!-- Node14&#45;&gt;Node16 -->
<g id="edge20" class="edge">
<title>Node14&#45;&gt;Node16</title>
<path fill="none" stroke="midnightblue" d="M595.78,-108.61C592.39,-106.88 589.11,-105 586,-102.96 565.17,-89.26 570.9,-73.53 550,-59.96 535.8,-50.73 517.07,-45.91 503.11,-43.43"/>
<polygon fill="midnightblue" stroke="midnightblue" points="594.42,-111.84 604.97,-112.85 597.35,-105.48 594.42,-111.84"/>
</g>
<!-- Node15&#45;&gt;Node11 -->
<g id="edge17" class="edge">
<title>Node15&#45;&gt;Node11</title>
<path fill="none" stroke="midnightblue" d="M418.44,-105.88C417.25,-106.86 416.1,-107.88 415,-108.96 383.3,-139.93 411.11,-171.4 379,-201.96 372.2,-208.43 363.68,-213.23 354.84,-216.78"/>
<polygon fill="midnightblue" stroke="midnightblue" points="420.63,-108.62 426.86,-100.05 416.65,-102.86 420.63,-108.62"/>
</g>
<!-- Node17&#45;&gt;Node3 -->
<g id="edge23" class="edge">
<title>Node17&#45;&gt;Node3</title>
<path fill="none" stroke="midnightblue" d="M639.99,-58.05C588.51,-24.99 482.38,30.47 415,-21.96 363.62,-61.94 425.08,-117.96 379,-163.96 364.36,-178.57 340.25,-182.5 323.22,-183.3"/>
<polygon fill="midnightblue" stroke="midnightblue" points="638.38,-61.17 648.66,-63.73 642.22,-55.32 638.38,-61.17"/>
</g>
<!-- Node17&#45;&gt;Node4 -->
<g id="edge24" class="edge">
<title>Node17&#45;&gt;Node4</title>
<path fill="none" stroke="midnightblue" d="M607.02,-96.84C599.92,-98.89 592.8,-100.96 586,-102.96 568.61,-108.07 549.6,-113.78 532.72,-118.9"/>
<polygon fill="midnightblue" stroke="midnightblue" points="608,-100.2 616.64,-94.07 606.06,-93.47 608,-100.2"/>
</g>
<!-- Node17&#45;&gt;Node15 -->
<g id="edge22" class="edge">
<title>Node17&#45;&gt;Node15</title>
<path fill="none" stroke="midnightblue" d="M587.76,-81.6C571.35,-82.13 554.48,-82.67 539.22,-83.16"/>
<polygon fill="midnightblue" stroke="midnightblue" points="588.01,-85.1 597.89,-81.28 587.79,-78.1 588.01,-85.1"/>
</g>
<!-- Node17&#45;&gt;Node16 -->
<g id="edge25" class="edge">
<title>Node17&#45;&gt;Node16</title>
<path fill="none" stroke="midnightblue" d="M587.83,-62.21C556.59,-55.85 523.67,-49.14 503.36,-45"/>
<polygon fill="midnightblue" stroke="midnightblue" points="587.4,-65.7 597.89,-64.26 588.79,-58.84 587.4,-65.7"/>
</g>
</g>
</svg>
