<?xml version="1.0" encoding="UTF-8" standalone="no"?>
<!DOCTYPE svg PUBLIC "-//W3C//DTD SVG 1.1//EN"
 "http://www.w3.org/Graphics/SVG/1.1/DTD/svg11.dtd">
<!-- Generated by graphviz version 2.43.0 (0)
 -->
<!-- Title: signal_easel::ax25::Address::assertAddressStringIsValid Pages: 1 -->
<svg width="1392pt" height="323pt"
 viewBox="0.00 0.00 1392.00 323.00" xmlns="http://www.w3.org/2000/svg" xmlns:xlink="http://www.w3.org/1999/xlink">
<g id="graph0" class="graph" transform="scale(1 1) rotate(0) translate(4 319)">
<title>signal_easel::ax25::Address::assertAddressStringIsValid</title>
<!-- Node1 -->
<g id="node1" class="node">
<title>Node1</title>
<g id="a_node1"><a xlink:title=" ">
<polygon fill="#bfbfbf" stroke="black" points="1219,-44 1219,-85 1384,-85 1384,-44 1219,-44"/>
<text text-anchor="start" x="1227" y="-73" font-family="Helvetica,sans-Serif" font-size="10.00">signal_easel::ax25</text>
<text text-anchor="start" x="1227" y="-62" font-family="Helvetica,sans-Serif" font-size="10.00">::Address::assertAddressString</text>
<text text-anchor="middle" x="1301.5" y="-51" font-family="Helvetica,sans-Serif" font-size="10.00">IsValid</text>
</a>
</g>
</g>
<!-- Node2 -->
<g id="node2" class="node">
<title>Node2</title>
<g id="a_node2"><a xlink:href="classsignal__easel_1_1ax25_1_1Address.html#a7fa6b0ef4241413893f201660991e4ea" target="_top" xlink:title="Checks if the address is valid, if not throws an exception with a specific error code.">
<polygon fill="none" stroke="black" points="1043,-164.5 1043,-194.5 1173,-194.5 1173,-164.5 1043,-164.5"/>
<text text-anchor="start" x="1051" y="-182.5" font-family="Helvetica,sans-Serif" font-size="10.00">signal_easel::ax25</text>
<text text-anchor="middle" x="1108" y="-171.5" font-family="Helvetica,sans-Serif" font-size="10.00">::Address::assertIsValid</text>
</a>
</g>
</g>
<!-- Node1&#45;&gt;Node2 -->
<g id="edge1" class="edge">
<title>Node1&#45;&gt;Node2</title>
<path fill="none" stroke="midnightblue" d="M1257.46,-90.35C1219.47,-113.16 1165.41,-145.62 1134.09,-164.43"/>
<polygon fill="midnightblue" stroke="midnightblue" points="1259.49,-93.21 1266.26,-85.06 1255.89,-87.21 1259.49,-93.21"/>
</g>
<!-- Node19 -->
<g id="node19" class="node">
<title>Node19</title>
<g id="a_node19"><a xlink:href="classsignal__easel_1_1ax25_1_1Address.html#a6a2594f26aa1d2a46e33d7da1a1d5fdd" target="_top" xlink:title="Decode an AX.25 address from it&#39;s byte array representation.">
<polygon fill="none" stroke="black" points="1037,-49.5 1037,-79.5 1179,-79.5 1179,-49.5 1037,-49.5"/>
<text text-anchor="start" x="1045" y="-67.5" font-family="Helvetica,sans-Serif" font-size="10.00">signal_easel::ax25</text>
<text text-anchor="middle" x="1108" y="-56.5" font-family="Helvetica,sans-Serif" font-size="10.00">::Address::decodeAddress</text>
</a>
</g>
</g>
<!-- Node1&#45;&gt;Node19 -->
<g id="edge25" class="edge">
<title>Node1&#45;&gt;Node19</title>
<path fill="none" stroke="midnightblue" d="M1208.46,-64.5C1198.56,-64.5 1188.61,-64.5 1179.03,-64.5"/>
<polygon fill="midnightblue" stroke="midnightblue" points="1208.73,-68 1218.73,-64.5 1208.73,-61 1208.73,-68"/>
</g>
<!-- Node21 -->
<g id="node21" class="node">
<title>Node21</title>
<g id="a_node21"><a xlink:href="classsignal__easel_1_1ax25_1_1Address.html#a3cd5feeb41b5d508961bcbafd0b8f246" target="_top" xlink:title="Set the Address String object.">
<polygon fill="none" stroke="black" points="1033,-0.5 1033,-30.5 1183,-30.5 1183,-0.5 1033,-0.5"/>
<text text-anchor="start" x="1041" y="-18.5" font-family="Helvetica,sans-Serif" font-size="10.00">signal_easel::ax25</text>
<text text-anchor="middle" x="1108" y="-7.5" font-family="Helvetica,sans-Serif" font-size="10.00">::Address::setAddressString</text>
</a>
</g>
</g>
<!-- Node1&#45;&gt;Node21 -->
<g id="edge27" class="edge">
<title>Node1&#45;&gt;Node21</title>
<path fill="none" stroke="midnightblue" d="M1210.16,-41.38C1195.71,-37.69 1181.09,-33.95 1167.63,-30.5"/>
<polygon fill="midnightblue" stroke="midnightblue" points="1209.56,-44.84 1220.12,-43.93 1211.3,-38.06 1209.56,-44.84"/>
</g>
<!-- Node3 -->
<g id="node3" class="node">
<title>Node3</title>
<g id="a_node3"><a xlink:href="classsignal__easel_1_1ax25_1_1Frame.html#af86d4b534367a8faf6b628301c9ffceb" target="_top" xlink:title=" ">
<polygon fill="none" stroke="black" points="831.5,-284.5 831.5,-314.5 992.5,-314.5 992.5,-284.5 831.5,-284.5"/>
<text text-anchor="start" x="839.5" y="-302.5" font-family="Helvetica,sans-Serif" font-size="10.00">signal_easel::ax25</text>
<text text-anchor="middle" x="912" y="-291.5" font-family="Helvetica,sans-Serif" font-size="10.00">::Frame::addRepeaterAddress</text>
</a>
</g>
</g>
<!-- Node2&#45;&gt;Node3 -->
<g id="edge2" class="edge">
<title>Node2&#45;&gt;Node3</title>
<path fill="none" stroke="midnightblue" d="M1086.66,-202.31C1066.07,-224.07 1032.3,-256.31 997,-275.5 990.74,-278.9 983.94,-281.87 977.02,-284.44"/>
<polygon fill="midnightblue" stroke="midnightblue" points="1089.39,-204.51 1093.63,-194.8 1084.26,-199.75 1089.39,-204.51"/>
</g>
<!-- Node8 -->
<g id="node8" class="node">
<title>Node8</title>
<g id="a_node8"><a xlink:href="classsignal__easel_1_1ax25_1_1Address.html#a0c31737081a9184b56dc32150b23cb0a" target="_top" xlink:title="Get the address as a byte array.">
<polygon fill="none" stroke="black" points="841,-98.5 841,-128.5 983,-128.5 983,-98.5 841,-98.5"/>
<text text-anchor="start" x="849" y="-116.5" font-family="Helvetica,sans-Serif" font-size="10.00">signal_easel::ax25</text>
<text text-anchor="middle" x="912" y="-105.5" font-family="Helvetica,sans-Serif" font-size="10.00">::Address::encodeAddress</text>
</a>
</g>
</g>
<!-- Node2&#45;&gt;Node8 -->
<g id="edge7" class="edge">
<title>Node2&#45;&gt;Node8</title>
<path fill="none" stroke="midnightblue" d="M1052.97,-161.12C1022.82,-150.86 985.72,-138.24 957.3,-128.57"/>
<polygon fill="midnightblue" stroke="midnightblue" points="1051.9,-164.45 1062.49,-164.36 1054.15,-157.82 1051.9,-164.45"/>
</g>
<!-- Node15 -->
<g id="node15" class="node">
<title>Node15</title>
<g id="a_node15"><a xlink:href="classsignal__easel_1_1ax25_1_1Frame.html#a57b163ece54317da8d95f3b18b47c23d" target="_top" xlink:title="setters/getters for the frame.">
<polygon fill="none" stroke="black" points="827,-235.5 827,-265.5 997,-265.5 997,-235.5 827,-235.5"/>
<text text-anchor="start" x="835" y="-253.5" font-family="Helvetica,sans-Serif" font-size="10.00">signal_easel::ax25</text>
<text text-anchor="middle" x="912" y="-242.5" font-family="Helvetica,sans-Serif" font-size="10.00">::Frame::setDestinationAddress</text>
</a>
</g>
</g>
<!-- Node2&#45;&gt;Node15 -->
<g id="edge15" class="edge">
<title>Node2&#45;&gt;Node15</title>
<path fill="none" stroke="midnightblue" d="M1065.39,-198.74C1045.02,-207.78 1019.98,-218.34 997,-226.5 988.14,-229.65 978.64,-232.67 969.34,-235.46"/>
<polygon fill="midnightblue" stroke="midnightblue" points="1067,-201.85 1074.69,-194.57 1064.14,-195.47 1067,-201.85"/>
</g>
<!-- Node17 -->
<g id="node17" class="node">
<title>Node17</title>
<g id="a_node17"><a xlink:href="ax25__frame__test_8cpp.html#a091d83d42783f2a0b3fd33a0521dc2ce" target="_top" xlink:title=" ">
<polygon fill="none" stroke="black" points="697.5,-170 697.5,-189 738.5,-189 738.5,-170 697.5,-170"/>
<text text-anchor="middle" x="718" y="-177" font-family="Helvetica,sans-Serif" font-size="10.00">TEST</text>
</a>
</g>
</g>
<!-- Node2&#45;&gt;Node17 -->
<g id="edge24" class="edge">
<title>Node2&#45;&gt;Node17</title>
<path fill="none" stroke="midnightblue" d="M1032.41,-177.96C1020.57,-177.77 1008.45,-177.6 997,-177.5 921.45,-176.81 902.55,-176.8 827,-177.5 796.06,-177.79 760.14,-178.53 738.51,-179.03"/>
<polygon fill="midnightblue" stroke="midnightblue" points="1032.67,-181.47 1042.73,-178.14 1032.79,-174.47 1032.67,-181.47"/>
</g>
<!-- Node18 -->
<g id="node18" class="node">
<title>Node18</title>
<g id="a_node18"><a xlink:href="classsignal__easel_1_1ax25_1_1Frame.html#a402d26a81f82bb5c477e8930b75a771e" target="_top" xlink:title=" ">
<polygon fill="none" stroke="black" points="839,-186.5 839,-216.5 985,-216.5 985,-186.5 839,-186.5"/>
<text text-anchor="start" x="847" y="-204.5" font-family="Helvetica,sans-Serif" font-size="10.00">signal_easel::ax25</text>
<text text-anchor="middle" x="912" y="-193.5" font-family="Helvetica,sans-Serif" font-size="10.00">::Frame::setSourceAddress</text>
</a>
</g>
</g>
<!-- Node2&#45;&gt;Node18 -->
<g id="edge20" class="edge">
<title>Node2&#45;&gt;Node18</title>
<path fill="none" stroke="midnightblue" d="M1032.79,-187.92C1017.12,-189.69 1000.62,-191.56 985.04,-193.33"/>
<polygon fill="midnightblue" stroke="midnightblue" points="1033.4,-191.37 1042.94,-186.76 1032.61,-184.41 1033.4,-191.37"/>
</g>
<!-- Node4 -->
<g id="node4" class="node">
<title>Node4</title>
<g id="a_node4"><a xlink:href="classsignal__easel_1_1ax25_1_1Frame.html#a63cf2362c2a90d20f09bbbc4f24a07ba" target="_top" xlink:title="Attempt to parse an incoming bit stream into an AX.25 frame.">
<polygon fill="none" stroke="black" points="650.5,-257.5 650.5,-287.5 785.5,-287.5 785.5,-257.5 650.5,-257.5"/>
<text text-anchor="start" x="658.5" y="-275.5" font-family="Helvetica,sans-Serif" font-size="10.00">signal_easel::ax25</text>
<text text-anchor="middle" x="718" y="-264.5" font-family="Helvetica,sans-Serif" font-size="10.00">::Frame::parseBitStream</text>
</a>
</g>
</g>
<!-- Node3&#45;&gt;Node4 -->
<g id="edge3" class="edge">
<title>Node3&#45;&gt;Node4</title>
<path fill="none" stroke="midnightblue" d="M821.24,-286.88C809.28,-285.2 797.18,-283.49 785.71,-281.88"/>
<polygon fill="midnightblue" stroke="midnightblue" points="820.85,-290.36 831.24,-288.28 821.83,-283.43 820.85,-290.36"/>
</g>
<!-- Node5 -->
<g id="node5" class="node">
<title>Node5</title>
<g id="a_node5"><a xlink:href="classsignal__easel_1_1aprs_1_1Demodulator.html#ae5a8e7634c1bc8d215a0c454a9a737fa" target="_top" xlink:title=" ">
<polygon fill="none" stroke="black" points="456,-252 456,-293 609,-293 609,-252 456,-252"/>
<text text-anchor="start" x="464" y="-281" font-family="Helvetica,sans-Serif" font-size="10.00">signal_easel::aprs</text>
<text text-anchor="start" x="464" y="-270" font-family="Helvetica,sans-Serif" font-size="10.00">::Demodulator::lookForAx25</text>
<text text-anchor="middle" x="532.5" y="-259" font-family="Helvetica,sans-Serif" font-size="10.00">Packet</text>
</a>
</g>
</g>
<!-- Node4&#45;&gt;Node5 -->
<g id="edge4" class="edge">
<title>Node4&#45;&gt;Node5</title>
<path fill="none" stroke="midnightblue" d="M640.29,-272.5C629.98,-272.5 619.41,-272.5 609.11,-272.5"/>
<polygon fill="midnightblue" stroke="midnightblue" points="640.49,-276 650.49,-272.5 640.49,-269 640.49,-276"/>
</g>
<!-- Node6 -->
<g id="node6" class="node">
<title>Node6</title>
<g id="a_node6"><a xlink:href="classsignal__easel_1_1aprs_1_1Receiver.html#afbf7869aceaf2ea7ab0be8b9af16e818" target="_top" xlink:title=" ">
<polygon fill="none" stroke="black" points="291.5,-279.5 291.5,-309.5 398.5,-309.5 398.5,-279.5 291.5,-279.5"/>
<text text-anchor="start" x="299.5" y="-297.5" font-family="Helvetica,sans-Serif" font-size="10.00">signal_easel::aprs</text>
<text text-anchor="middle" x="345" y="-286.5" font-family="Helvetica,sans-Serif" font-size="10.00">::Receiver::decode</text>
</a>
</g>
</g>
<!-- Node5&#45;&gt;Node6 -->
<g id="edge5" class="edge">
<title>Node5&#45;&gt;Node6</title>
<path fill="none" stroke="midnightblue" d="M445.79,-282.66C429.66,-284.58 413.24,-286.53 398.51,-288.27"/>
<polygon fill="midnightblue" stroke="midnightblue" points="446.26,-286.13 455.78,-281.48 445.44,-279.18 446.26,-286.13"/>
</g>
<!-- Node7 -->
<g id="node7" class="node">
<title>Node7</title>
<g id="a_node7"><a xlink:href="aprs__test_8cpp.html#aea66d1824e3f1e27598adf99ac6a089a" target="_top" xlink:title=" ">
<polygon fill="none" stroke="black" points="0,-216 0,-235 41,-235 41,-216 0,-216"/>
<text text-anchor="middle" x="20.5" y="-223" font-family="Helvetica,sans-Serif" font-size="10.00">TEST</text>
</a>
</g>
</g>
<!-- Node5&#45;&gt;Node7 -->
<g id="edge6" class="edge">
<title>Node5&#45;&gt;Node7</title>
<path fill="none" stroke="midnightblue" d="M445.84,-265.23C354.43,-257.36 205.43,-244.23 77,-231.5 65.04,-230.31 51.65,-228.87 41.01,-227.69"/>
<polygon fill="midnightblue" stroke="midnightblue" points="445.6,-268.72 455.87,-266.09 446.2,-261.75 445.6,-268.72"/>
</g>
<!-- Node9 -->
<g id="node9" class="node">
<title>Node9</title>
<g id="a_node9"><a xlink:href="classsignal__easel_1_1ax25_1_1Frame.html#a24e7d5ffc6504a3380e97142d1bc084e" target="_top" xlink:title="Builds all internal portions of the frame. Doesn&#39;t include the flags.">
<polygon fill="none" stroke="black" points="661,-120.5 661,-150.5 775,-150.5 775,-120.5 661,-120.5"/>
<text text-anchor="start" x="669" y="-138.5" font-family="Helvetica,sans-Serif" font-size="10.00">signal_easel::ax25</text>
<text text-anchor="middle" x="718" y="-127.5" font-family="Helvetica,sans-Serif" font-size="10.00">::Frame::buildFrame</text>
</a>
</g>
</g>
<!-- Node8&#45;&gt;Node9 -->
<g id="edge8" class="edge">
<title>Node8&#45;&gt;Node9</title>
<path fill="none" stroke="midnightblue" d="M830.86,-122.68C812.13,-124.83 792.56,-127.07 775.13,-129.07"/>
<polygon fill="midnightblue" stroke="midnightblue" points="831.33,-126.15 840.87,-121.54 830.54,-119.2 831.33,-126.15"/>
</g>
<!-- Node14 -->
<g id="node14" class="node">
<title>Node14</title>
<g id="a_node14"><a xlink:href="ax25__address__test_8cpp.html#a1d87028368532ba4ae914da9397571d3" target="_top" xlink:title=" ">
<polygon fill="none" stroke="black" points="697.5,-82 697.5,-101 738.5,-101 738.5,-82 697.5,-82"/>
<text text-anchor="middle" x="718" y="-89" font-family="Helvetica,sans-Serif" font-size="10.00">TEST</text>
</a>
</g>
</g>
<!-- Node8&#45;&gt;Node14 -->
<g id="edge14" class="edge">
<title>Node8&#45;&gt;Node14</title>
<path fill="none" stroke="midnightblue" d="M830.5,-104.28C796.77,-100.41 760.41,-96.24 738.69,-93.76"/>
<polygon fill="midnightblue" stroke="midnightblue" points="830.54,-107.8 840.87,-105.46 831.33,-100.85 830.54,-107.8"/>
</g>
<!-- Node10 -->
<g id="node10" class="node">
<title>Node10</title>
<g id="a_node10"><a xlink:href="classsignal__easel_1_1ax25_1_1Frame.html#a2b4f6ebcb7592a7e5a21114c8fafa503" target="_top" xlink:title="A step beyond buildFrame. This function builds the frame, does the bit stuffing, adds the flags,...">
<polygon fill="none" stroke="black" points="470,-131.5 470,-161.5 595,-161.5 595,-131.5 470,-131.5"/>
<text text-anchor="start" x="478" y="-149.5" font-family="Helvetica,sans-Serif" font-size="10.00">signal_easel::ax25</text>
<text text-anchor="middle" x="532.5" y="-138.5" font-family="Helvetica,sans-Serif" font-size="10.00">::Frame::encodeFrame</text>
</a>
</g>
</g>
<!-- Node9&#45;&gt;Node10 -->
<g id="edge9" class="edge">
<title>Node9&#45;&gt;Node10</title>
<path fill="none" stroke="midnightblue" d="M650.77,-139.47C632.67,-140.56 613.13,-141.73 595.29,-142.8"/>
<polygon fill="midnightblue" stroke="midnightblue" points="651.17,-142.95 660.95,-138.86 650.76,-135.96 651.17,-142.95"/>
</g>
<!-- Node11 -->
<g id="node11" class="node">
<title>Node11</title>
<g id="a_node11"><a xlink:href="namespacesignal__easel.html#aad3ffdd47a4a03ed438e8c1ca9eef231" target="_top" xlink:title=" ">
<polygon fill="none" stroke="black" points="270,-159 270,-178 420,-178 420,-159 270,-159"/>
<text text-anchor="middle" x="345" y="-166" font-family="Helvetica,sans-Serif" font-size="10.00">signal_easel::encodePacket</text>
</a>
</g>
</g>
<!-- Node10&#45;&gt;Node11 -->
<g id="edge10" class="edge">
<title>Node10&#45;&gt;Node11</title>
<path fill="none" stroke="midnightblue" d="M459.75,-155.01C446.79,-156.55 433.27,-158.15 420.25,-159.69"/>
<polygon fill="midnightblue" stroke="midnightblue" points="460.47,-158.45 469.99,-153.8 459.65,-151.5 460.47,-158.45"/>
</g>
<!-- Node12 -->
<g id="node12" class="node">
<title>Node12</title>
<g id="a_node12"><a xlink:href="classsignal__easel_1_1aprs_1_1Modulator.html#a147321b48c2e282c62863f114702e54f" target="_top" xlink:title=" ">
<polygon fill="none" stroke="black" points="77,-181 77,-222 234,-222 234,-181 77,-181"/>
<text text-anchor="start" x="85" y="-210" font-family="Helvetica,sans-Serif" font-size="10.00">signal_easel::aprs</text>
<text text-anchor="start" x="85" y="-199" font-family="Helvetica,sans-Serif" font-size="10.00">::Modulator::encodeMessage</text>
<text text-anchor="middle" x="155.5" y="-188" font-family="Helvetica,sans-Serif" font-size="10.00">Packet</text>
</a>
</g>
</g>
<!-- Node11&#45;&gt;Node12 -->
<g id="edge11" class="edge">
<title>Node11&#45;&gt;Node12</title>
<path fill="none" stroke="midnightblue" d="M280,-179.76C265.26,-182.36 249.41,-185.15 234.16,-187.83"/>
<polygon fill="midnightblue" stroke="midnightblue" points="280.78,-183.18 290.02,-178 279.56,-176.29 280.78,-183.18"/>
</g>
<!-- Node13 -->
<g id="node13" class="node">
<title>Node13</title>
<g id="a_node13"><a xlink:href="classsignal__easel_1_1aprs_1_1Modulator.html#a943e392227656943d7db842e1889d805" target="_top" xlink:title=" ">
<polygon fill="none" stroke="black" points="79.5,-121 79.5,-162 231.5,-162 231.5,-121 79.5,-121"/>
<text text-anchor="start" x="87.5" y="-150" font-family="Helvetica,sans-Serif" font-size="10.00">signal_easel::aprs</text>
<text text-anchor="start" x="87.5" y="-139" font-family="Helvetica,sans-Serif" font-size="10.00">::Modulator::encodePosition</text>
<text text-anchor="middle" x="155.5" y="-128" font-family="Helvetica,sans-Serif" font-size="10.00">Packet</text>
</a>
</g>
</g>
<!-- Node11&#45;&gt;Node13 -->
<g id="edge13" class="edge">
<title>Node11&#45;&gt;Node13</title>
<path fill="none" stroke="midnightblue" d="M267.94,-157.55C255.95,-155.82 243.57,-154.04 231.61,-152.32"/>
<polygon fill="midnightblue" stroke="midnightblue" points="267.5,-161.02 277.89,-158.98 268.5,-154.09 267.5,-161.02"/>
</g>
<!-- Node12&#45;&gt;Node7 -->
<g id="edge12" class="edge">
<title>Node12&#45;&gt;Node7</title>
<path fill="none" stroke="midnightblue" d="M66.71,-217.34C57.26,-219.05 48.45,-220.64 41.16,-221.95"/>
<polygon fill="midnightblue" stroke="midnightblue" points="67.53,-220.75 76.75,-215.53 66.29,-213.86 67.53,-220.75"/>
</g>
<!-- Node15&#45;&gt;Node4 -->
<g id="edge18" class="edge">
<title>Node15&#45;&gt;Node4</title>
<path fill="none" stroke="midnightblue" d="M816.72,-261.3C806.19,-262.51 795.63,-263.72 785.55,-264.87"/>
<polygon fill="midnightblue" stroke="midnightblue" points="817.25,-264.77 826.79,-260.15 816.45,-257.81 817.25,-264.77"/>
</g>
<!-- Node16 -->
<g id="node16" class="node">
<title>Node16</title>
<g id="a_node16"><a xlink:href="namespacesignal__easel.html#ada24f00bb5d1a1bb97976967185c7526" target="_top" xlink:title=" ">
<polygon fill="none" stroke="black" points="645,-208.5 645,-238.5 791,-238.5 791,-208.5 645,-208.5"/>
<text text-anchor="start" x="653" y="-226.5" font-family="Helvetica,sans-Serif" font-size="10.00">signal_easel::AddRequired</text>
<text text-anchor="middle" x="718" y="-215.5" font-family="Helvetica,sans-Serif" font-size="10.00">Fields</text>
</a>
</g>
</g>
<!-- Node15&#45;&gt;Node16 -->
<g id="edge16" class="edge">
<title>Node15&#45;&gt;Node16</title>
<path fill="none" stroke="midnightblue" d="M816.71,-237.24C808.11,-236.03 799.49,-234.82 791.13,-233.64"/>
<polygon fill="midnightblue" stroke="midnightblue" points="816.4,-240.73 826.79,-238.66 817.37,-233.8 816.4,-240.73"/>
</g>
<!-- Node15&#45;&gt;Node17 -->
<g id="edge19" class="edge">
<title>Node15&#45;&gt;Node17</title>
<path fill="none" stroke="midnightblue" d="M838.9,-231.82C834.82,-230.17 830.82,-228.4 827,-226.5 809.09,-217.6 808.95,-208.33 791,-199.5 774.24,-191.25 753.55,-185.96 738.66,-182.9"/>
<polygon fill="midnightblue" stroke="midnightblue" points="837.96,-235.2 848.56,-235.44 840.42,-228.65 837.96,-235.2"/>
</g>
<!-- Node16&#45;&gt;Node11 -->
<g id="edge17" class="edge">
<title>Node16&#45;&gt;Node11</title>
<path fill="none" stroke="midnightblue" d="M634.38,-211.25C566.7,-201.22 472.28,-187.22 410.18,-178.01"/>
<polygon fill="midnightblue" stroke="midnightblue" points="634.18,-214.76 644.59,-212.76 635.21,-207.84 634.18,-214.76"/>
</g>
<!-- Node18&#45;&gt;Node4 -->
<g id="edge22" class="edge">
<title>Node18&#45;&gt;Node4</title>
<path fill="none" stroke="midnightblue" d="M843.4,-219.93C837.79,-221.97 832.25,-224.16 827,-226.5 809.87,-234.13 808,-240.6 791,-248.5 784.07,-251.72 776.58,-254.72 769.15,-257.42"/>
<polygon fill="midnightblue" stroke="midnightblue" points="844.59,-223.22 852.9,-216.64 842.3,-216.6 844.59,-223.22"/>
</g>
<!-- Node18&#45;&gt;Node16 -->
<g id="edge21" class="edge">
<title>Node18&#45;&gt;Node16</title>
<path fill="none" stroke="midnightblue" d="M828.96,-210.9C816.38,-212.34 803.47,-213.82 791.12,-215.24"/>
<polygon fill="midnightblue" stroke="midnightblue" points="829.42,-214.37 838.96,-209.75 828.63,-207.42 829.42,-214.37"/>
</g>
<!-- Node18&#45;&gt;Node17 -->
<g id="edge23" class="edge">
<title>Node18&#45;&gt;Node17</title>
<path fill="none" stroke="midnightblue" d="M828.74,-192.07C795.5,-188.27 760.03,-184.2 738.69,-181.76"/>
<polygon fill="midnightblue" stroke="midnightblue" points="828.63,-195.58 838.96,-193.25 829.42,-188.63 828.63,-195.58"/>
</g>
<!-- Node20 -->
<g id="node20" class="node">
<title>Node20</title>
<g id="a_node20"><a xlink:href="classsignal__easel_1_1ax25_1_1Address.html#a2ffb5475017120d1071e4b8d3f35c394" target="_top" xlink:title=" ">
<polygon fill="none" stroke="black" points="858.5,-49.5 858.5,-79.5 965.5,-79.5 965.5,-49.5 858.5,-49.5"/>
<text text-anchor="start" x="866.5" y="-67.5" font-family="Helvetica,sans-Serif" font-size="10.00">signal_easel::ax25</text>
<text text-anchor="middle" x="912" y="-56.5" font-family="Helvetica,sans-Serif" font-size="10.00">::Address::Address</text>
</a>
</g>
</g>
<!-- Node19&#45;&gt;Node20 -->
<g id="edge26" class="edge">
<title>Node19&#45;&gt;Node20</title>
<path fill="none" stroke="midnightblue" d="M1026.91,-64.5C1006.21,-64.5 984.46,-64.5 965.58,-64.5"/>
<polygon fill="midnightblue" stroke="midnightblue" points="1026.96,-68 1036.96,-64.5 1026.96,-61 1026.96,-68"/>
</g>
<!-- Node22 -->
<g id="node22" class="node">
<title>Node22</title>
<g id="a_node22"><a xlink:href="classsignal__easel_1_1ax25_1_1Address.html#af2e2c1061b619a32d966d4b08eed7ede" target="_top" xlink:title=" ">
<polygon fill="none" stroke="black" points="858.5,-0.5 858.5,-30.5 965.5,-30.5 965.5,-0.5 858.5,-0.5"/>
<text text-anchor="start" x="866.5" y="-18.5" font-family="Helvetica,sans-Serif" font-size="10.00">signal_easel::ax25</text>
<text text-anchor="middle" x="912" y="-7.5" font-family="Helvetica,sans-Serif" font-size="10.00">::Address::Address</text>
</a>
</g>
</g>
<!-- Node21&#45;&gt;Node22 -->
<g id="edge28" class="edge">
<title>Node21&#45;&gt;Node22</title>
<path fill="none" stroke="midnightblue" d="M1022.77,-15.5C1003.4,-15.5 983.33,-15.5 965.74,-15.5"/>
<polygon fill="midnightblue" stroke="midnightblue" points="1022.83,-19 1032.83,-15.5 1022.83,-12 1022.83,-19"/>
</g>
</g>
</svg>
