<?xml version="1.0" encoding="UTF-8" standalone="no"?>
<!DOCTYPE svg PUBLIC "-//W3C//DTD SVG 1.1//EN"
 "http://www.w3.org/Graphics/SVG/1.1/DTD/svg11.dtd">
<!-- Generated by graphviz version 2.43.0 (0)
 -->
<!-- Title: signal_easel::DataModulator::addString Pages: 1 -->
<svg width="241pt" height="66pt"
 viewBox="0.00 0.00 241.00 66.00" xmlns="http://www.w3.org/2000/svg" xmlns:xlink="http://www.w3.org/1999/xlink">
<g id="graph0" class="graph" transform="scale(1 1) rotate(0) translate(4 62)">
<title>signal_easel::DataModulator::addString</title>
<!-- Node1 -->
<g id="node1" class="node">
<title>Node1</title>
<g id="a_node1"><a xlink:title="Add string data to the audio buffer.">
<polygon fill="#bfbfbf" stroke="black" points="77,-14 77,-44 233,-44 233,-14 77,-14"/>
<text text-anchor="start" x="85" y="-32" font-family="Helvetica,sans-Serif" font-size="10.00">signal_easel::DataModulator</text>
<text text-anchor="middle" x="155" y="-21" font-family="Helvetica,sans-Serif" font-size="10.00">::addString</text>
</a>
</g>
</g>
<!-- Node2 -->
<g id="node2" class="node">
<title>Node2</title>
<g id="a_node2"><a xlink:href="pulse__test_8cpp.html#ae66f6b31b5ad750f1fe042a706a4e3d4" target="_top" xlink:title=" ">
<polygon fill="none" stroke="black" points="0,-38.5 0,-57.5 41,-57.5 41,-38.5 0,-38.5"/>
<text text-anchor="middle" x="20.5" y="-45.5" font-family="Helvetica,sans-Serif" font-size="10.00">main</text>
</a>
</g>
</g>
<!-- Node1&#45;&gt;Node2 -->
<g id="edge1" class="edge">
<title>Node1&#45;&gt;Node2</title>
<path fill="none" stroke="midnightblue" d="M66.86,-41.5C57.39,-42.85 48.56,-44.12 41.25,-45.17"/>
<polygon fill="midnightblue" stroke="midnightblue" points="67.52,-44.94 76.92,-40.05 66.53,-38.01 67.52,-44.94"/>
</g>
<!-- Node3 -->
<g id="node3" class="node">
<title>Node3</title>
<g id="a_node3"><a xlink:href="afsk__test_8cpp.html#a894b615862c352aa932a7ff5fb85c6dd" target="_top" xlink:title="Encodes a string into an AFSK1200 signal/WAV file and then decodes it.">
<polygon fill="none" stroke="black" points="0,-0.5 0,-19.5 41,-19.5 41,-0.5 0,-0.5"/>
<text text-anchor="middle" x="20.5" y="-7.5" font-family="Helvetica,sans-Serif" font-size="10.00">TEST</text>
</a>
</g>
</g>
<!-- Node1&#45;&gt;Node3 -->
<g id="edge2" class="edge">
<title>Node1&#45;&gt;Node3</title>
<path fill="none" stroke="midnightblue" d="M66.86,-16.5C57.39,-15.15 48.56,-13.88 41.25,-12.83"/>
<polygon fill="midnightblue" stroke="midnightblue" points="66.53,-19.99 76.92,-17.95 67.52,-13.06 66.53,-19.99"/>
</g>
</g>
</svg>
