<?xml version="1.0" encoding="UTF-8" standalone="no"?>
<!DOCTYPE svg PUBLIC "-//W3C//DTD SVG 1.1//EN"
 "http://www.w3.org/Graphics/SVG/1.1/DTD/svg11.dtd">
<!-- Generated by graphviz version 2.43.0 (0)
 -->
<!-- Title: signal_easel::BitStream::addOneBit Pages: 1 -->
<svg width="756pt" height="190pt"
 viewBox="0.00 0.00 756.00 190.00" xmlns="http://www.w3.org/2000/svg" xmlns:xlink="http://www.w3.org/1999/xlink">
<g id="graph0" class="graph" transform="scale(1 1) rotate(0) translate(4 186)">
<title>signal_easel::BitStream::addOneBit</title>
<!-- Node1 -->
<g id="node1" class="node">
<title>Node1</title>
<g id="a_node1"><a xlink:title=" ">
<polygon fill="#bfbfbf" stroke="black" points="616,-88.5 616,-118.5 748,-118.5 748,-88.5 616,-88.5"/>
<text text-anchor="start" x="624" y="-106.5" font-family="Helvetica,sans-Serif" font-size="10.00">signal_easel::BitStream</text>
<text text-anchor="middle" x="682" y="-95.5" font-family="Helvetica,sans-Serif" font-size="10.00">::addOneBit</text>
</a>
</g>
</g>
<!-- Node2 -->
<g id="node2" class="node">
<title>Node2</title>
<g id="a_node2"><a xlink:href="classsignal__easel_1_1psk_1_1Modulator.html#ad465eb5c136ada635cd01cdceb1dc402" target="_top" xlink:title=" ">
<polygon fill="none" stroke="black" points="438,-143.5 438,-173.5 580,-173.5 580,-143.5 438,-143.5"/>
<text text-anchor="start" x="446" y="-161.5" font-family="Helvetica,sans-Serif" font-size="10.00">signal_easel::psk::</text>
<text text-anchor="middle" x="509" y="-150.5" font-family="Helvetica,sans-Serif" font-size="10.00">Modulator::addPostamble</text>
</a>
</g>
</g>
<!-- Node1&#45;&gt;Node2 -->
<g id="edge1" class="edge">
<title>Node1&#45;&gt;Node2</title>
<path fill="none" stroke="midnightblue" d="M624.7,-121.61C602.66,-128.7 577.68,-136.73 556.67,-143.49"/>
<polygon fill="midnightblue" stroke="midnightblue" points="625.83,-124.92 634.27,-118.53 623.68,-118.26 625.83,-124.92"/>
</g>
<!-- Node5 -->
<g id="node5" class="node">
<title>Node5</title>
<g id="a_node5"><a xlink:href="namespacesignal__easel_1_1ax25.html#a84e1d1bf82ef828a150bc94cf065e396" target="_top" xlink:title="Convert a bit stream from NRZI to standard encoding.">
<polygon fill="none" stroke="black" points="455.5,-88.5 455.5,-118.5 562.5,-118.5 562.5,-88.5 455.5,-88.5"/>
<text text-anchor="start" x="463.5" y="-106.5" font-family="Helvetica,sans-Serif" font-size="10.00">signal_easel::ax25</text>
<text text-anchor="middle" x="509" y="-95.5" font-family="Helvetica,sans-Serif" font-size="10.00">::decodeNrzi</text>
</a>
</g>
</g>
<!-- Node1&#45;&gt;Node5 -->
<g id="edge4" class="edge">
<title>Node1&#45;&gt;Node5</title>
<path fill="none" stroke="midnightblue" d="M605.46,-103.5C591.05,-103.5 576.26,-103.5 562.75,-103.5"/>
<polygon fill="midnightblue" stroke="midnightblue" points="605.86,-107 615.86,-103.5 605.86,-100 605.86,-107"/>
</g>
<!-- Node10 -->
<g id="node10" class="node">
<title>Node10</title>
<g id="a_node10"><a xlink:href="classsignal__easel_1_1ax25_1_1Frame.html#a2b4f6ebcb7592a7e5a21114c8fafa503" target="_top" xlink:title="A step beyond buildFrame. This function builds the frame, does the bit stuffing, adds the flags,...">
<polygon fill="none" stroke="black" points="446.5,-27.5 446.5,-57.5 571.5,-57.5 571.5,-27.5 446.5,-27.5"/>
<text text-anchor="start" x="454.5" y="-45.5" font-family="Helvetica,sans-Serif" font-size="10.00">signal_easel::ax25</text>
<text text-anchor="middle" x="509" y="-34.5" font-family="Helvetica,sans-Serif" font-size="10.00">::Frame::encodeFrame</text>
</a>
</g>
</g>
<!-- Node1&#45;&gt;Node10 -->
<g id="edge9" class="edge">
<title>Node1&#45;&gt;Node10</title>
<path fill="none" stroke="midnightblue" d="M629.16,-85.01C604.49,-76.21 575.36,-65.82 552.08,-57.51"/>
<polygon fill="midnightblue" stroke="midnightblue" points="628.14,-88.36 638.73,-88.42 630.49,-81.76 628.14,-88.36"/>
</g>
<!-- Node3 -->
<g id="node3" class="node">
<title>Node3</title>
<g id="a_node3"><a xlink:href="classsignal__easel_1_1psk_1_1Modulator.html#acd4a6a5bac7af1c62ffaaa0ff1d9259f" target="_top" xlink:title=" ">
<polygon fill="none" stroke="black" points="266,-151.5 266,-181.5 402,-181.5 402,-151.5 266,-151.5"/>
<text text-anchor="start" x="274" y="-169.5" font-family="Helvetica,sans-Serif" font-size="10.00">signal_easel::psk::</text>
<text text-anchor="middle" x="334" y="-158.5" font-family="Helvetica,sans-Serif" font-size="10.00">Modulator::encodeString</text>
</a>
</g>
</g>
<!-- Node2&#45;&gt;Node3 -->
<g id="edge2" class="edge">
<title>Node2&#45;&gt;Node3</title>
<path fill="none" stroke="midnightblue" d="M427.41,-162.23C418.99,-162.62 410.48,-163.01 402.23,-163.39"/>
<polygon fill="midnightblue" stroke="midnightblue" points="427.81,-165.71 437.63,-161.75 427.48,-158.72 427.81,-165.71"/>
</g>
<!-- Node4 -->
<g id="node4" class="node">
<title>Node4</title>
<g id="a_node4"><a xlink:href="psk__test_8cpp.html#adc7973e853ae04677ba78e84bda93987" target="_top" xlink:title=" ">
<polygon fill="none" stroke="black" points="133,-157 133,-176 174,-176 174,-157 133,-157"/>
<text text-anchor="middle" x="153.5" y="-164" font-family="Helvetica,sans-Serif" font-size="10.00">TEST</text>
</a>
</g>
</g>
<!-- Node3&#45;&gt;Node4 -->
<g id="edge3" class="edge">
<title>Node3&#45;&gt;Node4</title>
<path fill="none" stroke="midnightblue" d="M255.72,-166.5C225.84,-166.5 194.12,-166.5 174.32,-166.5"/>
<polygon fill="midnightblue" stroke="midnightblue" points="255.77,-170 265.77,-166.5 255.77,-163 255.77,-170"/>
</g>
<!-- Node6 -->
<g id="node6" class="node">
<title>Node6</title>
<g id="a_node6"><a xlink:href="classsignal__easel_1_1aprs_1_1Receiver.html#afbf7869aceaf2ea7ab0be8b9af16e818" target="_top" xlink:title=" ">
<polygon fill="none" stroke="black" points="280.5,-102.5 280.5,-132.5 387.5,-132.5 387.5,-102.5 280.5,-102.5"/>
<text text-anchor="start" x="288.5" y="-120.5" font-family="Helvetica,sans-Serif" font-size="10.00">signal_easel::aprs</text>
<text text-anchor="middle" x="334" y="-109.5" font-family="Helvetica,sans-Serif" font-size="10.00">::Receiver::decode</text>
</a>
</g>
</g>
<!-- Node5&#45;&gt;Node6 -->
<g id="edge5" class="edge">
<title>Node5&#45;&gt;Node6</title>
<path fill="none" stroke="midnightblue" d="M445.14,-108.59C426.23,-110.12 405.69,-111.78 387.52,-113.25"/>
<polygon fill="midnightblue" stroke="midnightblue" points="445.47,-112.07 455.15,-107.78 444.9,-105.09 445.47,-112.07"/>
</g>
<!-- Node7 -->
<g id="node7" class="node">
<title>Node7</title>
<g id="a_node7"><a xlink:href="classsignal__easel_1_1ax25_1_1Frame.html#a63cf2362c2a90d20f09bbbc4f24a07ba" target="_top" xlink:title="Attempt to parse an incoming bit stream into an AX.25 frame.">
<polygon fill="none" stroke="black" points="266.5,-53.5 266.5,-83.5 401.5,-83.5 401.5,-53.5 266.5,-53.5"/>
<text text-anchor="start" x="274.5" y="-71.5" font-family="Helvetica,sans-Serif" font-size="10.00">signal_easel::ax25</text>
<text text-anchor="middle" x="334" y="-60.5" font-family="Helvetica,sans-Serif" font-size="10.00">::Frame::parseBitStream</text>
</a>
</g>
</g>
<!-- Node5&#45;&gt;Node7 -->
<g id="edge6" class="edge">
<title>Node5&#45;&gt;Node7</title>
<path fill="none" stroke="midnightblue" d="M445.05,-90.76C430.92,-87.9 415.88,-84.86 401.6,-81.97"/>
<polygon fill="midnightblue" stroke="midnightblue" points="444.66,-94.26 455.15,-92.81 446.05,-87.4 444.66,-94.26"/>
</g>
<!-- Node8 -->
<g id="node8" class="node">
<title>Node8</title>
<g id="a_node8"><a xlink:href="classsignal__easel_1_1aprs_1_1Demodulator.html#ae5a8e7634c1bc8d215a0c454a9a737fa" target="_top" xlink:title=" ">
<polygon fill="none" stroke="black" points="77,-50 77,-91 230,-91 230,-50 77,-50"/>
<text text-anchor="start" x="85" y="-79" font-family="Helvetica,sans-Serif" font-size="10.00">signal_easel::aprs</text>
<text text-anchor="start" x="85" y="-68" font-family="Helvetica,sans-Serif" font-size="10.00">::Demodulator::lookForAx25</text>
<text text-anchor="middle" x="153.5" y="-57" font-family="Helvetica,sans-Serif" font-size="10.00">Packet</text>
</a>
</g>
</g>
<!-- Node7&#45;&gt;Node8 -->
<g id="edge7" class="edge">
<title>Node7&#45;&gt;Node8</title>
<path fill="none" stroke="midnightblue" d="M256.22,-69.36C247.58,-69.46 238.77,-69.56 230.14,-69.65"/>
<polygon fill="midnightblue" stroke="midnightblue" points="256.32,-72.86 266.28,-69.25 256.24,-65.86 256.32,-72.86"/>
</g>
<!-- Node9 -->
<g id="node9" class="node">
<title>Node9</title>
<g id="a_node9"><a xlink:href="aprs__test_8cpp.html#aea66d1824e3f1e27598adf99ac6a089a" target="_top" xlink:title=" ">
<polygon fill="none" stroke="black" points="0,-33 0,-52 41,-52 41,-33 0,-33"/>
<text text-anchor="middle" x="20.5" y="-40" font-family="Helvetica,sans-Serif" font-size="10.00">TEST</text>
</a>
</g>
</g>
<!-- Node8&#45;&gt;Node9 -->
<g id="edge8" class="edge">
<title>Node8&#45;&gt;Node9</title>
<path fill="none" stroke="midnightblue" d="M66.67,-52.16C57.26,-50.14 48.46,-48.26 41.18,-46.71"/>
<polygon fill="midnightblue" stroke="midnightblue" points="66.17,-55.63 76.68,-54.29 67.63,-48.78 66.17,-55.63"/>
</g>
<!-- Node11 -->
<g id="node11" class="node">
<title>Node11</title>
<g id="a_node11"><a xlink:href="namespacesignal__easel_1_1aprs.html#a77481001a5b78a839972bb4220b43e4d" target="_top" xlink:title="The base function to encode an APRS packet with the provided base data and info field.">
<polygon fill="none" stroke="black" points="282,-3.5 282,-33.5 386,-33.5 386,-3.5 282,-3.5"/>
<text text-anchor="start" x="290" y="-21.5" font-family="Helvetica,sans-Serif" font-size="10.00">signal_easel::aprs</text>
<text text-anchor="middle" x="334" y="-10.5" font-family="Helvetica,sans-Serif" font-size="10.00">::encodePacket</text>
</a>
</g>
</g>
<!-- Node10&#45;&gt;Node11 -->
<g id="edge10" class="edge">
<title>Node10&#45;&gt;Node11</title>
<path fill="none" stroke="midnightblue" d="M435.74,-32.48C419.03,-30.16 401.59,-27.74 386,-25.58"/>
<polygon fill="midnightblue" stroke="midnightblue" points="435.65,-36 446.03,-33.9 436.61,-29.06 435.65,-36"/>
</g>
<!-- Node12 -->
<g id="node12" class="node">
<title>Node12</title>
<g id="a_node12"><a xlink:href="classsignal__easel_1_1aprs_1_1Modulator.html#a8ae067701382dec1680b786583ace687" target="_top" xlink:title=" ">
<polygon fill="none" stroke="black" points="97,-0.5 97,-30.5 210,-30.5 210,-0.5 97,-0.5"/>
<text text-anchor="start" x="105" y="-18.5" font-family="Helvetica,sans-Serif" font-size="10.00">signal_easel::aprs</text>
<text text-anchor="middle" x="153.5" y="-7.5" font-family="Helvetica,sans-Serif" font-size="10.00">::Modulator::encode</text>
</a>
</g>
</g>
<!-- Node11&#45;&gt;Node12 -->
<g id="edge11" class="edge">
<title>Node11&#45;&gt;Node12</title>
<path fill="none" stroke="midnightblue" d="M271.61,-17.47C251.62,-17.13 229.57,-16.76 210.03,-16.43"/>
<polygon fill="midnightblue" stroke="midnightblue" points="271.79,-20.97 281.85,-17.64 271.91,-13.97 271.79,-20.97"/>
</g>
<!-- Node12&#45;&gt;Node9 -->
<g id="edge12" class="edge">
<title>Node12&#45;&gt;Node9</title>
<path fill="none" stroke="midnightblue" d="M87.13,-28.97C70.4,-32.42 53.66,-35.87 41.28,-38.42"/>
<polygon fill="midnightblue" stroke="midnightblue" points="87.86,-32.4 96.94,-26.95 86.44,-25.54 87.86,-32.4"/>
</g>
</g>
</svg>
