<?xml version="1.0" encoding="UTF-8" standalone="no"?>
<!DOCTYPE svg PUBLIC "-//W3C//DTD SVG 1.1//EN"
 "http://www.w3.org/Graphics/SVG/1.1/DTD/svg11.dtd">
<!-- Generated by graphviz version 2.43.0 (0)
 -->
<!-- Title: signal_easel::Modulator Pages: 1 -->
<svg width="545pt" height="397pt"
 viewBox="0.00 0.00 545.00 397.00" xmlns="http://www.w3.org/2000/svg" xmlns:xlink="http://www.w3.org/1999/xlink">
<g id="graph0" class="graph" transform="scale(1 1) rotate(0) translate(4 393)">
<title>signal_easel::Modulator</title>
<!-- Node1 -->
<g id="node1" class="node">
<title>Node1</title>
<g id="a_node1"><a xlink:title="The abstract base class for all modulators that turn data into audio.">
<polygon fill="#bfbfbf" stroke="black" points="240,-0.5 240,-156.5 392,-156.5 392,-0.5 240,-0.5"/>
<text text-anchor="middle" x="316" y="-144.5" font-family="Helvetica,sans-Serif" font-size="10.00">signal_easel::Modulator</text>
<polyline fill="none" stroke="black" points="240,-137.5 392,-137.5 "/>
<text text-anchor="middle" x="316" y="-125.5" font-family="Helvetica,sans-Serif" font-size="10.00"> </text>
<polyline fill="none" stroke="black" points="240,-118.5 392,-118.5 "/>
<text text-anchor="start" x="248" y="-106.5" font-family="Helvetica,sans-Serif" font-size="10.00">+ Modulator()</text>
<text text-anchor="start" x="248" y="-95.5" font-family="Helvetica,sans-Serif" font-size="10.00">+ ~Modulator()</text>
<text text-anchor="start" x="248" y="-84.5" font-family="Helvetica,sans-Serif" font-size="10.00">+ clearBuffer()</text>
<text text-anchor="start" x="248" y="-73.5" font-family="Helvetica,sans-Serif" font-size="10.00">+ writeToFile()</text>
<text text-anchor="start" x="248" y="-62.5" font-family="Helvetica,sans-Serif" font-size="10.00">+ writeToPulseAudio()</text>
<text text-anchor="start" x="248" y="-51.5" font-family="Helvetica,sans-Serif" font-size="10.00"># addAudioSample()</text>
<text text-anchor="start" x="248" y="-40.5" font-family="Helvetica,sans-Serif" font-size="10.00"># addAudioSampleDouble()</text>
<text text-anchor="start" x="248" y="-29.5" font-family="Helvetica,sans-Serif" font-size="10.00"># addSilence()</text>
<text text-anchor="start" x="248" y="-18.5" font-family="Helvetica,sans-Serif" font-size="10.00"># addSineWave()</text>
<text text-anchor="start" x="248" y="-7.5" font-family="Helvetica,sans-Serif" font-size="10.00">&#45; addMorseCode()</text>
</a>
</g>
</g>
<!-- Node2 -->
<g id="node2" class="node">
<title>Node2</title>
<g id="a_node2"><a xlink:href="structsignal__easel_1_1Settings.html" target="_top" xlink:title="The universal settings for MWAV.">
<polygon fill="none" stroke="black" points="98.5,-204.5 98.5,-261.5 221.5,-261.5 221.5,-204.5 98.5,-204.5"/>
<text text-anchor="middle" x="160" y="-249.5" font-family="Helvetica,sans-Serif" font-size="10.00">signal_easel::Settings</text>
<polyline fill="none" stroke="black" points="98.5,-242.5 221.5,-242.5 "/>
<text text-anchor="middle" x="160" y="-230.5" font-family="Helvetica,sans-Serif" font-size="10.00"> </text>
<polyline fill="none" stroke="black" points="98.5,-223.5 221.5,-223.5 "/>
<text text-anchor="middle" x="160" y="-211.5" font-family="Helvetica,sans-Serif" font-size="10.00"> </text>
</a>
</g>
</g>
<!-- Node2&#45;&gt;Node1 -->
<g id="edge1" class="edge">
<title>Node2&#45;&gt;Node1</title>
<path fill="none" stroke="#404040" d="M188.25,-204.38C200.55,-192.36 215.68,-177.57 231.17,-162.43"/>
<polygon fill="none" stroke="#404040" points="231.22,-162.38 232.71,-155.33 239.8,-153.99 238.3,-161.05 231.22,-162.38"/>
<text text-anchor="middle" x="243" y="-178" font-family="Helvetica,sans-Serif" font-size="10.00"> #settings_</text>
</g>
<!-- Node3 -->
<g id="node3" class="node">
<title>Node3</title>
<g id="a_node3"><a xlink:title=" ">
<polygon fill="none" stroke="black" points="0,-331.5 0,-388.5 44,-388.5 44,-331.5 0,-331.5"/>
<text text-anchor="middle" x="22" y="-376.5" font-family="Helvetica,sans-Serif" font-size="10.00">string</text>
<polyline fill="none" stroke="black" points="0,-369.5 44,-369.5 "/>
<text text-anchor="middle" x="22" y="-357.5" font-family="Helvetica,sans-Serif" font-size="10.00"> </text>
<polyline fill="none" stroke="black" points="0,-350.5 44,-350.5 "/>
<text text-anchor="middle" x="22" y="-338.5" font-family="Helvetica,sans-Serif" font-size="10.00"> </text>
</a>
</g>
</g>
<!-- Node3&#45;&gt;Node2 -->
<g id="edge2" class="edge">
<title>Node3&#45;&gt;Node2</title>
<path fill="none" stroke="#404040" d="M22.02,-331.22C23.43,-314.59 27.84,-294.03 40,-280 52.29,-265.83 69.45,-256 86.96,-249.2"/>
<polygon fill="none" stroke="#404040" points="87.15,-249.13 91.48,-243.37 98.47,-245.15 94.14,-250.91 87.15,-249.13"/>
<text text-anchor="middle" x="67.5" y="-294" font-family="Helvetica,sans-Serif" font-size="10.00"> +call_sign</text>
</g>
<!-- Node4 -->
<g id="node4" class="node">
<title>Node4</title>
<g id="a_node4"><a xlink:title=" ">
<polygon fill="none" stroke="black" points="62.5,-331.5 62.5,-388.5 145.5,-388.5 145.5,-331.5 62.5,-331.5"/>
<text text-anchor="middle" x="104" y="-376.5" font-family="Helvetica,sans-Serif" font-size="10.00">CallSignMode</text>
<polyline fill="none" stroke="black" points="62.5,-369.5 145.5,-369.5 "/>
<text text-anchor="middle" x="104" y="-357.5" font-family="Helvetica,sans-Serif" font-size="10.00"> </text>
<polyline fill="none" stroke="black" points="62.5,-350.5 145.5,-350.5 "/>
<text text-anchor="middle" x="104" y="-338.5" font-family="Helvetica,sans-Serif" font-size="10.00"> </text>
</a>
</g>
</g>
<!-- Node4&#45;&gt;Node2 -->
<g id="edge3" class="edge">
<title>Node4&#45;&gt;Node2</title>
<path fill="none" stroke="#404040" d="M98.85,-331.39C97.22,-315.61 97.47,-295.86 105,-280 106.5,-276.84 108.34,-273.81 110.42,-270.94"/>
<polygon fill="none" stroke="#404040" points="110.48,-270.86 111.34,-263.7 118.28,-261.74 117.42,-268.9 110.48,-270.86"/>
<text text-anchor="middle" x="149" y="-294" font-family="Helvetica,sans-Serif" font-size="10.00"> +call_sign_mode</text>
</g>
<!-- Node5 -->
<g id="node5" class="node">
<title>Node5</title>
<g id="a_node5"><a xlink:title=" ">
<polygon fill="none" stroke="black" points="240,-331.5 240,-388.5 290,-388.5 290,-331.5 240,-331.5"/>
<text text-anchor="middle" x="265" y="-376.5" font-family="Helvetica,sans-Serif" font-size="10.00">double</text>
<polyline fill="none" stroke="black" points="240,-369.5 290,-369.5 "/>
<text text-anchor="middle" x="265" y="-357.5" font-family="Helvetica,sans-Serif" font-size="10.00"> </text>
<polyline fill="none" stroke="black" points="240,-350.5 290,-350.5 "/>
<text text-anchor="middle" x="265" y="-338.5" font-family="Helvetica,sans-Serif" font-size="10.00"> </text>
</a>
</g>
</g>
<!-- Node5&#45;&gt;Node1 -->
<g id="edge6" class="edge">
<title>Node5&#45;&gt;Node1</title>
<path fill="none" stroke="#404040" d="M290.37,-333.04C295.02,-326.9 299.27,-320.07 302,-313 319.56,-267.54 323.73,-213.4 323.21,-168.69"/>
<polygon fill="none" stroke="#404040" points="323.21,-168.65 319.09,-162.73 322.96,-156.65 327.08,-162.56 323.21,-168.65"/>
<text text-anchor="middle" x="372.5" y="-230.5" font-family="Helvetica,sans-Serif" font-size="10.00"> &#45;sine_wave_phase_</text>
</g>
<!-- Node5&#45;&gt;Node2 -->
<g id="edge4" class="edge">
<title>Node5&#45;&gt;Node2</title>
<path fill="none" stroke="#404040" d="M239.84,-337.25C231.87,-329.88 223.25,-321.39 216,-313 204.31,-299.48 203.32,-294.6 193,-280 191.03,-277.22 188.99,-274.34 186.93,-271.45"/>
<polygon fill="none" stroke="#404040" points="186.93,-271.45 180.19,-268.89 179.95,-261.69 186.7,-264.24 186.93,-271.45"/>
<text text-anchor="middle" x="259" y="-305" font-family="Helvetica,sans-Serif" font-size="10.00"> +amplitude</text>
<text text-anchor="start" x="216" y="-294" font-family="Helvetica,sans-Serif" font-size="10.00">+call_sign_pause</text>
<text text-anchor="middle" x="259" y="-283" font-family="Helvetica,sans-Serif" font-size="10.00">_seconds</text>
</g>
<!-- Node6 -->
<g id="node6" class="node">
<title>Node6</title>
<g id="a_node6"><a xlink:title=" ">
<polygon fill="none" stroke="black" points="433,-204.5 433,-261.5 537,-261.5 537,-204.5 433,-204.5"/>
<text text-anchor="middle" x="485" y="-249.5" font-family="Helvetica,sans-Serif" font-size="10.00">vector&lt; int16_t &gt;</text>
<polyline fill="none" stroke="black" points="433,-242.5 537,-242.5 "/>
<text text-anchor="middle" x="485" y="-230.5" font-family="Helvetica,sans-Serif" font-size="10.00"> </text>
<polyline fill="none" stroke="black" points="433,-223.5 537,-223.5 "/>
<text text-anchor="middle" x="485" y="-211.5" font-family="Helvetica,sans-Serif" font-size="10.00"> </text>
</a>
</g>
</g>
<!-- Node6&#45;&gt;Node1 -->
<g id="edge5" class="edge">
<title>Node6&#45;&gt;Node1</title>
<path fill="none" stroke="#404040" d="M454.4,-204.38C439.29,-190.75 420.23,-173.56 401.13,-156.32"/>
<polygon fill="none" stroke="#404040" points="400.98,-156.18 393.85,-155.13 392.07,-148.15 399.21,-149.2 400.98,-156.18"/>
<text text-anchor="middle" x="469" y="-178" font-family="Helvetica,sans-Serif" font-size="10.00"> #audio_buffer_</text>
</g>
</g>
</svg>
