<?xml version="1.0" encoding="UTF-8" standalone="no"?>
<!DOCTYPE svg PUBLIC "-//W3C//DTD SVG 1.1//EN"
 "http://www.w3.org/Graphics/SVG/1.1/DTD/svg11.dtd">
<!-- Generated by graphviz version 2.43.0 (0)
 -->
<!-- Title: signal_easel::Receiver Pages: 1 -->
<svg width="791pt" height="474pt"
 viewBox="0.00 0.00 791.00 474.00" xmlns="http://www.w3.org/2000/svg" xmlns:xlink="http://www.w3.org/1999/xlink">
<g id="graph0" class="graph" transform="scale(1 1) rotate(0) translate(4 470)">
<title>signal_easel::Receiver</title>
<!-- Node1 -->
<g id="node1" class="node">
<title>Node1</title>
<g id="a_node1"><a xlink:title=" ">
<polygon fill="#bfbfbf" stroke="black" points="210,-0.5 210,-101.5 336,-101.5 336,-0.5 210,-0.5"/>
<text text-anchor="middle" x="273" y="-89.5" font-family="Helvetica,sans-Serif" font-size="10.00">signal_easel::Receiver</text>
<polyline fill="none" stroke="black" points="210,-82.5 336,-82.5 "/>
<text text-anchor="middle" x="273" y="-70.5" font-family="Helvetica,sans-Serif" font-size="10.00"> </text>
<polyline fill="none" stroke="black" points="210,-63.5 336,-63.5 "/>
<text text-anchor="start" x="218" y="-51.5" font-family="Helvetica,sans-Serif" font-size="10.00">+ Receiver()</text>
<text text-anchor="start" x="218" y="-40.5" font-family="Helvetica,sans-Serif" font-size="10.00">+ ~Receiver()</text>
<text text-anchor="start" x="218" y="-29.5" font-family="Helvetica,sans-Serif" font-size="10.00">+ getLatency()</text>
<text text-anchor="start" x="218" y="-18.5" font-family="Helvetica,sans-Serif" font-size="10.00">+ getVolume()</text>
<text text-anchor="start" x="218" y="-7.5" font-family="Helvetica,sans-Serif" font-size="10.00">+ process()</text>
</a>
</g>
</g>
<!-- Node2 -->
<g id="node2" class="node">
<title>Node2</title>
<g id="a_node2"><a xlink:href="classsignal__easel_1_1PulseAudioReader.html" target="_top" xlink:title=" ">
<polygon fill="none" stroke="black" points="373.5,-149.5 373.5,-327.5 510.5,-327.5 510.5,-149.5 373.5,-149.5"/>
<text text-anchor="start" x="381.5" y="-315.5" font-family="Helvetica,sans-Serif" font-size="10.00">signal_easel::PulseAudio</text>
<text text-anchor="middle" x="442" y="-304.5" font-family="Helvetica,sans-Serif" font-size="10.00">Reader</text>
<polyline fill="none" stroke="black" points="373.5,-297.5 510.5,-297.5 "/>
<text text-anchor="middle" x="442" y="-285.5" font-family="Helvetica,sans-Serif" font-size="10.00"> </text>
<polyline fill="none" stroke="black" points="373.5,-278.5 510.5,-278.5 "/>
<text text-anchor="start" x="381.5" y="-266.5" font-family="Helvetica,sans-Serif" font-size="10.00">+ PulseAudioReader()</text>
<text text-anchor="start" x="381.5" y="-255.5" font-family="Helvetica,sans-Serif" font-size="10.00">+ PulseAudioReader()</text>
<text text-anchor="start" x="381.5" y="-244.5" font-family="Helvetica,sans-Serif" font-size="10.00">+ PulseAudioReader()</text>
<text text-anchor="start" x="381.5" y="-233.5" font-family="Helvetica,sans-Serif" font-size="10.00">+ ~PulseAudioReader()</text>
<text text-anchor="start" x="381.5" y="-222.5" font-family="Helvetica,sans-Serif" font-size="10.00">+ getAudioBuffer()</text>
<text text-anchor="start" x="381.5" y="-211.5" font-family="Helvetica,sans-Serif" font-size="10.00">+ getLatency()</text>
<text text-anchor="start" x="381.5" y="-200.5" font-family="Helvetica,sans-Serif" font-size="10.00">+ getRms()</text>
<text text-anchor="start" x="381.5" y="-189.5" font-family="Helvetica,sans-Serif" font-size="10.00">+ getVolume()</text>
<text text-anchor="start" x="381.5" y="-178.5" font-family="Helvetica,sans-Serif" font-size="10.00">+ operator=()</text>
<text text-anchor="start" x="381.5" y="-167.5" font-family="Helvetica,sans-Serif" font-size="10.00">+ operator=()</text>
<text text-anchor="start" x="381.5" y="-156.5" font-family="Helvetica,sans-Serif" font-size="10.00">+ process()</text>
</a>
</g>
</g>
<!-- Node2&#45;&gt;Node1 -->
<g id="edge1" class="edge">
<title>Node2&#45;&gt;Node1</title>
<path fill="none" stroke="#404040" d="M373.26,-162.05C357.61,-144.87 341.21,-126.87 326.31,-110.52"/>
<polygon fill="none" stroke="#404040" points="326.29,-110.49 319.29,-108.75 318.21,-101.62 325.2,-103.36 326.29,-110.49"/>
<text text-anchor="middle" x="398" y="-123" font-family="Helvetica,sans-Serif" font-size="10.00"> #pulse_audio_reader_</text>
</g>
<!-- Node3 -->
<g id="node3" class="node">
<title>Node3</title>
<g id="a_node3"><a xlink:title=" ">
<polygon fill="none" stroke="black" points="653,-403 653,-460 709,-460 709,-403 653,-403"/>
<text text-anchor="middle" x="681" y="-448" font-family="Helvetica,sans-Serif" font-size="10.00">uint32_t</text>
<polyline fill="none" stroke="black" points="653,-441 709,-441 "/>
<text text-anchor="middle" x="681" y="-429" font-family="Helvetica,sans-Serif" font-size="10.00"> </text>
<polyline fill="none" stroke="black" points="653,-422 709,-422 "/>
<text text-anchor="middle" x="681" y="-410" font-family="Helvetica,sans-Serif" font-size="10.00"> </text>
</a>
</g>
</g>
<!-- Node3&#45;&gt;Node2 -->
<g id="edge2" class="edge">
<title>Node3&#45;&gt;Node2</title>
<path fill="none" stroke="#404040" d="M659.71,-402.9C645.54,-385.49 625.93,-363.14 606,-346 580.1,-323.72 549.22,-302.5 521.27,-284.94"/>
<polygon fill="none" stroke="#404040" points="520.92,-284.73 513.71,-284.96 510.72,-278.4 517.93,-278.16 520.92,-284.73"/>
<text text-anchor="middle" x="662.5" y="-360" font-family="Helvetica,sans-Serif" font-size="10.00"> &#45;latency_</text>
</g>
<!-- Node4 -->
<g id="node4" class="node">
<title>Node4</title>
<g id="a_node4"><a xlink:title=" ">
<polygon fill="none" stroke="black" points="727,-403 727,-460 783,-460 783,-403 727,-403"/>
<text text-anchor="middle" x="755" y="-448" font-family="Helvetica,sans-Serif" font-size="10.00">uint64_t</text>
<polyline fill="none" stroke="black" points="727,-441 783,-441 "/>
<text text-anchor="middle" x="755" y="-429" font-family="Helvetica,sans-Serif" font-size="10.00"> </text>
<polyline fill="none" stroke="black" points="727,-422 783,-422 "/>
<text text-anchor="middle" x="755" y="-410" font-family="Helvetica,sans-Serif" font-size="10.00"> </text>
</a>
</g>
</g>
<!-- Node4&#45;&gt;Node2 -->
<g id="edge3" class="edge">
<title>Node4&#45;&gt;Node2</title>
<path fill="none" stroke="#404040" d="M739.25,-402.76C727.8,-384.63 710.87,-361.53 691,-346 640.8,-306.77 573.98,-279.23 522.2,-262"/>
<polygon fill="none" stroke="#404040" points="522.14,-261.98 515.19,-263.93 510.73,-258.27 517.67,-256.32 522.14,-261.98"/>
<text text-anchor="middle" x="736.5" y="-360" font-family="Helvetica,sans-Serif" font-size="10.00"> &#45;rms_</text>
</g>
<!-- Node5 -->
<g id="node5" class="node">
<title>Node5</title>
<g id="a_node5"><a xlink:title=" ">
<polygon fill="none" stroke="black" points="205,-403 205,-460 255,-460 255,-403 205,-403"/>
<text text-anchor="middle" x="230" y="-448" font-family="Helvetica,sans-Serif" font-size="10.00">double</text>
<polyline fill="none" stroke="black" points="205,-441 255,-441 "/>
<text text-anchor="middle" x="230" y="-429" font-family="Helvetica,sans-Serif" font-size="10.00"> </text>
<polyline fill="none" stroke="black" points="205,-422 255,-422 "/>
<text text-anchor="middle" x="230" y="-410" font-family="Helvetica,sans-Serif" font-size="10.00"> </text>
</a>
</g>
</g>
<!-- Node5&#45;&gt;Node2 -->
<g id="edge4" class="edge">
<title>Node5&#45;&gt;Node2</title>
<path fill="none" stroke="#404040" d="M255.29,-413.36C272.24,-401.6 292.74,-386.77 300,-379 311.87,-366.3 309.7,-359.21 321,-346 333.96,-330.86 349.07,-315.9 364.14,-302.19"/>
<polygon fill="none" stroke="#404040" points="364.55,-301.83 366.36,-294.85 373.49,-293.83 371.69,-300.81 364.55,-301.83"/>
<text text-anchor="middle" x="345.5" y="-360" font-family="Helvetica,sans-Serif" font-size="10.00"> &#45;volume_</text>
</g>
<!-- Node9 -->
<g id="node9" class="node">
<title>Node9</title>
<g id="a_node9"><a xlink:href="structsignal__easel_1_1Settings.html" target="_top" xlink:title="The universal settings for MWAV.">
<polygon fill="none" stroke="black" points="98.5,-210 98.5,-267 221.5,-267 221.5,-210 98.5,-210"/>
<text text-anchor="middle" x="160" y="-255" font-family="Helvetica,sans-Serif" font-size="10.00">signal_easel::Settings</text>
<polyline fill="none" stroke="black" points="98.5,-248 221.5,-248 "/>
<text text-anchor="middle" x="160" y="-236" font-family="Helvetica,sans-Serif" font-size="10.00"> </text>
<polyline fill="none" stroke="black" points="98.5,-229 221.5,-229 "/>
<text text-anchor="middle" x="160" y="-217" font-family="Helvetica,sans-Serif" font-size="10.00"> </text>
</a>
</g>
</g>
<!-- Node5&#45;&gt;Node9 -->
<g id="edge11" class="edge">
<title>Node5&#45;&gt;Node9</title>
<path fill="none" stroke="#404040" d="M219.82,-402.73C207.85,-370.05 187.88,-315.58 174.34,-278.64"/>
<polygon fill="none" stroke="#404040" points="174.32,-278.57 168.5,-274.32 170.19,-267.31 176.01,-271.56 174.32,-278.57"/>
<text text-anchor="middle" x="253" y="-371" font-family="Helvetica,sans-Serif" font-size="10.00"> +amplitude</text>
<text text-anchor="start" x="210" y="-360" font-family="Helvetica,sans-Serif" font-size="10.00">+call_sign_pause</text>
<text text-anchor="middle" x="253" y="-349" font-family="Helvetica,sans-Serif" font-size="10.00">_seconds</text>
</g>
<!-- Node6 -->
<g id="node6" class="node">
<title>Node6</title>
<g id="a_node6"><a xlink:title=" ">
<polygon fill="none" stroke="black" points="288,-403 288,-460 386,-460 386,-403 288,-403"/>
<text text-anchor="middle" x="337" y="-448" font-family="Helvetica,sans-Serif" font-size="10.00">pa_sample_spec</text>
<polyline fill="none" stroke="black" points="288,-441 386,-441 "/>
<text text-anchor="middle" x="337" y="-429" font-family="Helvetica,sans-Serif" font-size="10.00"> </text>
<polyline fill="none" stroke="black" points="288,-422 386,-422 "/>
<text text-anchor="middle" x="337" y="-410" font-family="Helvetica,sans-Serif" font-size="10.00"> </text>
</a>
</g>
</g>
<!-- Node6&#45;&gt;Node2 -->
<g id="edge5" class="edge">
<title>Node6&#45;&gt;Node2</title>
<path fill="none" stroke="#404040" d="M358.24,-402.75C363.65,-395.21 369.26,-386.94 374,-379 381.63,-366.22 389.13,-352.46 396.21,-338.74"/>
<polygon fill="none" stroke="#404040" points="396.35,-338.47 395.5,-331.31 401.78,-327.77 402.63,-334.93 396.35,-338.47"/>
<text text-anchor="middle" x="401.5" y="-360" font-family="Helvetica,sans-Serif" font-size="10.00"> &#45;ss_</text>
</g>
<!-- Node7 -->
<g id="node7" class="node">
<title>Node7</title>
<g id="a_node7"><a xlink:title=" ">
<polygon fill="none" stroke="black" points="404.5,-403 404.5,-460 479.5,-460 479.5,-403 404.5,-403"/>
<text text-anchor="middle" x="442" y="-448" font-family="Helvetica,sans-Serif" font-size="10.00">pa_simple *</text>
<polyline fill="none" stroke="black" points="404.5,-441 479.5,-441 "/>
<text text-anchor="middle" x="442" y="-429" font-family="Helvetica,sans-Serif" font-size="10.00"> </text>
<polyline fill="none" stroke="black" points="404.5,-422 479.5,-422 "/>
<text text-anchor="middle" x="442" y="-410" font-family="Helvetica,sans-Serif" font-size="10.00"> </text>
</a>
</g>
</g>
<!-- Node7&#45;&gt;Node2 -->
<g id="edge6" class="edge">
<title>Node7&#45;&gt;Node2</title>
<path fill="none" stroke="#404040" d="M442,-402.73C442,-385.81 442,-363.05 442,-339.91"/>
<polygon fill="none" stroke="#404040" points="442,-339.8 438,-333.8 442,-327.8 446,-333.8 442,-339.8"/>
<text text-anchor="middle" x="451" y="-360" font-family="Helvetica,sans-Serif" font-size="10.00"> &#45;s_</text>
</g>
<!-- Node8 -->
<g id="node8" class="node">
<title>Node8</title>
<g id="a_node8"><a xlink:title=" ">
<polygon fill="none" stroke="black" points="497.5,-397.5 497.5,-465.5 634.5,-465.5 634.5,-397.5 497.5,-397.5"/>
<text text-anchor="start" x="505.5" y="-453.5" font-family="Helvetica,sans-Serif" font-size="10.00">array&lt; int16_t, PULSE</text>
<text text-anchor="middle" x="566" y="-442.5" font-family="Helvetica,sans-Serif" font-size="10.00">_AUDIO_BUFFER_SIZE &gt;</text>
<polyline fill="none" stroke="black" points="497.5,-435.5 634.5,-435.5 "/>
<text text-anchor="middle" x="566" y="-423.5" font-family="Helvetica,sans-Serif" font-size="10.00"> </text>
<polyline fill="none" stroke="black" points="497.5,-416.5 634.5,-416.5 "/>
<text text-anchor="middle" x="566" y="-404.5" font-family="Helvetica,sans-Serif" font-size="10.00"> </text>
</a>
</g>
</g>
<!-- Node8&#45;&gt;Node2 -->
<g id="edge7" class="edge">
<title>Node8&#45;&gt;Node2</title>
<path fill="none" stroke="#404040" d="M544.4,-397.23C533.56,-380.53 519.8,-359.33 505.91,-337.94"/>
<polygon fill="none" stroke="#404040" points="505.84,-337.84 499.22,-334.99 499.31,-327.78 505.93,-330.63 505.84,-337.84"/>
<text text-anchor="middle" x="565.5" y="-360" font-family="Helvetica,sans-Serif" font-size="10.00"> &#45;audio_buffer_</text>
</g>
<!-- Node9&#45;&gt;Node1 -->
<g id="edge8" class="edge">
<title>Node9&#45;&gt;Node1</title>
<path fill="none" stroke="#404040" d="M176.92,-209.73C192.58,-184.01 216.41,-144.9 236.42,-112.05"/>
<polygon fill="none" stroke="#404040" points="236.52,-111.88 236.23,-104.68 242.76,-101.64 243.06,-108.84 236.52,-111.88"/>
<text text-anchor="middle" x="258" y="-123" font-family="Helvetica,sans-Serif" font-size="10.00"> #settings_</text>
</g>
<!-- Node10 -->
<g id="node10" class="node">
<title>Node10</title>
<g id="a_node10"><a xlink:title=" ">
<polygon fill="none" stroke="black" points="0,-403 0,-460 44,-460 44,-403 0,-403"/>
<text text-anchor="middle" x="22" y="-448" font-family="Helvetica,sans-Serif" font-size="10.00">string</text>
<polyline fill="none" stroke="black" points="0,-441 44,-441 "/>
<text text-anchor="middle" x="22" y="-429" font-family="Helvetica,sans-Serif" font-size="10.00"> </text>
<polyline fill="none" stroke="black" points="0,-422 44,-422 "/>
<text text-anchor="middle" x="22" y="-410" font-family="Helvetica,sans-Serif" font-size="10.00"> </text>
</a>
</g>
</g>
<!-- Node10&#45;&gt;Node9 -->
<g id="edge9" class="edge">
<title>Node10&#45;&gt;Node9</title>
<path fill="none" stroke="#404040" d="M24.34,-402.67C26.79,-385.39 31.79,-363.25 42,-346 58.62,-317.93 85.05,-293.07 108.69,-274.45"/>
<polygon fill="none" stroke="#404040" points="108.74,-274.41 111.07,-267.59 118.27,-267.11 115.94,-273.94 108.74,-274.41"/>
<text text-anchor="middle" x="69.5" y="-360" font-family="Helvetica,sans-Serif" font-size="10.00"> +call_sign</text>
</g>
<!-- Node11 -->
<g id="node11" class="node">
<title>Node11</title>
<g id="a_node11"><a xlink:title=" ">
<polygon fill="none" stroke="black" points="62.5,-403 62.5,-460 145.5,-460 145.5,-403 62.5,-403"/>
<text text-anchor="middle" x="104" y="-448" font-family="Helvetica,sans-Serif" font-size="10.00">CallSignMode</text>
<polyline fill="none" stroke="black" points="62.5,-441 145.5,-441 "/>
<text text-anchor="middle" x="104" y="-429" font-family="Helvetica,sans-Serif" font-size="10.00"> </text>
<polyline fill="none" stroke="black" points="62.5,-422 145.5,-422 "/>
<text text-anchor="middle" x="104" y="-410" font-family="Helvetica,sans-Serif" font-size="10.00"> </text>
</a>
</g>
</g>
<!-- Node11&#45;&gt;Node9 -->
<g id="edge10" class="edge">
<title>Node11&#45;&gt;Node9</title>
<path fill="none" stroke="#404040" d="M101.14,-402.69C100.2,-386.01 100.39,-364.51 105,-346 110.99,-321.98 123.29,-297.28 134.74,-277.73"/>
<polygon fill="none" stroke="#404040" points="134.76,-277.7 134.44,-270.49 140.97,-267.43 141.29,-274.63 134.76,-277.7"/>
<text text-anchor="middle" x="149" y="-360" font-family="Helvetica,sans-Serif" font-size="10.00"> +call_sign_mode</text>
</g>
</g>
</svg>
