<?xml version="1.0" encoding="UTF-8" standalone="no"?>
<!DOCTYPE svg PUBLIC "-//W3C//DTD SVG 1.1//EN"
 "http://www.w3.org/Graphics/SVG/1.1/DTD/svg11.dtd">
<!-- Generated by graphviz version 2.43.0 (0)
 -->
<!-- Title: signal_easel::aprs::Demodulator Pages: 1 -->
<svg width="1357pt" height="1069pt"
 viewBox="0.00 0.00 1357.00 1069.00" xmlns="http://www.w3.org/2000/svg" xmlns:xlink="http://www.w3.org/1999/xlink">
<g id="graph0" class="graph" transform="scale(1 1) rotate(0) translate(4 1065)">
<title>signal_easel::aprs::Demodulator</title>
<!-- Node1 -->
<g id="node1" class="node">
<title>Node1</title>
<g id="a_node1"><a xlink:title=" ">
<polygon fill="#bfbfbf" stroke="black" points="790.5,-0.5 790.5,-123.5 927.5,-123.5 927.5,-0.5 790.5,-0.5"/>
<text text-anchor="start" x="798.5" y="-111.5" font-family="Helvetica,sans-Serif" font-size="10.00">signal_easel::aprs</text>
<text text-anchor="middle" x="859" y="-100.5" font-family="Helvetica,sans-Serif" font-size="10.00">::Demodulator</text>
<polyline fill="none" stroke="black" points="790.5,-93.5 927.5,-93.5 "/>
<text text-anchor="middle" x="859" y="-81.5" font-family="Helvetica,sans-Serif" font-size="10.00"> </text>
<polyline fill="none" stroke="black" points="790.5,-74.5 927.5,-74.5 "/>
<text text-anchor="start" x="798.5" y="-62.5" font-family="Helvetica,sans-Serif" font-size="10.00">+ Demodulator()</text>
<text text-anchor="start" x="798.5" y="-51.5" font-family="Helvetica,sans-Serif" font-size="10.00">+ getType()</text>
<text text-anchor="start" x="798.5" y="-40.5" font-family="Helvetica,sans-Serif" font-size="10.00">+ lookForAx25Packet()</text>
<text text-anchor="start" x="798.5" y="-29.5" font-family="Helvetica,sans-Serif" font-size="10.00">+ parseMessagePacket()</text>
<text text-anchor="start" x="798.5" y="-18.5" font-family="Helvetica,sans-Serif" font-size="10.00">+ parsePositionPacket()</text>
<text text-anchor="start" x="798.5" y="-7.5" font-family="Helvetica,sans-Serif" font-size="10.00">+ printFrame()</text>
</a>
</g>
</g>
<!-- Node2 -->
<g id="node2" class="node">
<title>Node2</title>
<g id="a_node2"><a xlink:href="classsignal__easel_1_1afsk_1_1Demodulator.html" target="_top" xlink:title="Demodulates an AFSK signal into data.">
<polygon fill="none" stroke="black" points="434,-270.5 434,-393.5 610,-393.5 610,-270.5 434,-270.5"/>
<text text-anchor="start" x="442" y="-381.5" font-family="Helvetica,sans-Serif" font-size="10.00">signal_easel::afsk</text>
<text text-anchor="middle" x="522" y="-370.5" font-family="Helvetica,sans-Serif" font-size="10.00">::Demodulator</text>
<polyline fill="none" stroke="black" points="434,-363.5 610,-363.5 "/>
<text text-anchor="middle" x="522" y="-351.5" font-family="Helvetica,sans-Serif" font-size="10.00"> </text>
<polyline fill="none" stroke="black" points="434,-344.5 610,-344.5 "/>
<text text-anchor="start" x="442" y="-332.5" font-family="Helvetica,sans-Serif" font-size="10.00">+ Demodulator()</text>
<text text-anchor="start" x="442" y="-321.5" font-family="Helvetica,sans-Serif" font-size="10.00">+ ~Demodulator()</text>
<text text-anchor="start" x="442" y="-310.5" font-family="Helvetica,sans-Serif" font-size="10.00">+ lookForString()</text>
<text text-anchor="start" x="442" y="-299.5" font-family="Helvetica,sans-Serif" font-size="10.00">+ processAudioBuffer()</text>
<text text-anchor="start" x="442" y="-288.5" font-family="Helvetica,sans-Serif" font-size="10.00">&#45; audioBufferToBaseBandSignal()</text>
<text text-anchor="start" x="442" y="-277.5" font-family="Helvetica,sans-Serif" font-size="10.00">&#45; baseBandToBitStream()</text>
</a>
</g>
</g>
<!-- Node2&#45;&gt;Node1 -->
<g id="edge1" class="edge">
<title>Node2&#45;&gt;Node1</title>
<path fill="none" stroke="midnightblue" d="M606.37,-263.91C663.15,-218.75 737.08,-159.96 790.27,-117.66"/>
<polygon fill="none" stroke="midnightblue" points="604.12,-261.22 598.47,-270.19 608.48,-266.7 604.12,-261.22"/>
</g>
<!-- Node3 -->
<g id="node3" class="node">
<title>Node3</title>
<g id="a_node3"><a xlink:href="classsignal__easel_1_1Demodulator.html" target="_top" xlink:title="The base class for all demodulators that turn audio into data.">
<polygon fill="none" stroke="black" points="94.5,-612 94.5,-713 241.5,-713 241.5,-612 94.5,-612"/>
<text text-anchor="middle" x="168" y="-701" font-family="Helvetica,sans-Serif" font-size="10.00">signal_easel::Demodulator</text>
<polyline fill="none" stroke="black" points="94.5,-694 241.5,-694 "/>
<text text-anchor="middle" x="168" y="-682" font-family="Helvetica,sans-Serif" font-size="10.00"> </text>
<polyline fill="none" stroke="black" points="94.5,-675 241.5,-675 "/>
<text text-anchor="start" x="102.5" y="-663" font-family="Helvetica,sans-Serif" font-size="10.00">+ Demodulator()</text>
<text text-anchor="start" x="102.5" y="-652" font-family="Helvetica,sans-Serif" font-size="10.00">+ ~Demodulator()</text>
<text text-anchor="start" x="102.5" y="-641" font-family="Helvetica,sans-Serif" font-size="10.00">+ clearBuffer()</text>
<text text-anchor="start" x="102.5" y="-630" font-family="Helvetica,sans-Serif" font-size="10.00">+ loadAudioFromFile()</text>
<text text-anchor="start" x="102.5" y="-619" font-family="Helvetica,sans-Serif" font-size="10.00"># getAudioBuffer()</text>
</a>
</g>
</g>
<!-- Node3&#45;&gt;Node2 -->
<g id="edge2" class="edge">
<title>Node3&#45;&gt;Node2</title>
<path fill="none" stroke="midnightblue" d="M228.95,-604.94C292.47,-546 391.65,-453.96 456.73,-393.56"/>
<polygon fill="none" stroke="midnightblue" points="226.33,-602.6 221.38,-611.96 231.09,-607.73 226.33,-602.6"/>
</g>
<!-- Node4 -->
<g id="node4" class="node">
<title>Node4</title>
<g id="a_node4"><a xlink:title=" ">
<polygon fill="none" stroke="#bfbfbf" points="0,-876.5 0,-933.5 104,-933.5 104,-876.5 0,-876.5"/>
<text text-anchor="middle" x="52" y="-921.5" font-family="Helvetica,sans-Serif" font-size="10.00">vector&lt; int16_t &gt;</text>
<polyline fill="none" stroke="#bfbfbf" points="0,-914.5 104,-914.5 "/>
<text text-anchor="middle" x="52" y="-902.5" font-family="Helvetica,sans-Serif" font-size="10.00"> </text>
<polyline fill="none" stroke="#bfbfbf" points="0,-895.5 104,-895.5 "/>
<text text-anchor="middle" x="52" y="-883.5" font-family="Helvetica,sans-Serif" font-size="10.00"> </text>
</a>
</g>
</g>
<!-- Node4&#45;&gt;Node3 -->
<g id="edge3" class="edge">
<title>Node4&#45;&gt;Node3</title>
<path fill="none" stroke="#404040" d="M55.3,-876.08C59.07,-850.43 66.69,-811.85 81,-781 90.37,-760.8 103.54,-740.64 116.81,-722.87"/>
<polygon fill="none" stroke="#404040" points="116.87,-722.79 117.34,-715.59 124.16,-713.25 123.69,-720.45 116.87,-722.79"/>
<text text-anchor="middle" x="120" y="-817" font-family="Helvetica,sans-Serif" font-size="10.00"> #audio_buffer_</text>
</g>
<!-- Node5 -->
<g id="node5" class="node">
<title>Node5</title>
<g id="a_node5"><a xlink:href="structsignal__easel_1_1Settings.html" target="_top" xlink:title="The universal settings for MWAV.">
<polygon fill="none" stroke="black" points="122.5,-876.5 122.5,-933.5 245.5,-933.5 245.5,-876.5 122.5,-876.5"/>
<text text-anchor="middle" x="184" y="-921.5" font-family="Helvetica,sans-Serif" font-size="10.00">signal_easel::Settings</text>
<polyline fill="none" stroke="black" points="122.5,-914.5 245.5,-914.5 "/>
<text text-anchor="middle" x="184" y="-902.5" font-family="Helvetica,sans-Serif" font-size="10.00"> </text>
<polyline fill="none" stroke="black" points="122.5,-895.5 245.5,-895.5 "/>
<text text-anchor="middle" x="184" y="-883.5" font-family="Helvetica,sans-Serif" font-size="10.00"> </text>
</a>
</g>
</g>
<!-- Node5&#45;&gt;Node3 -->
<g id="edge4" class="edge">
<title>Node5&#45;&gt;Node3</title>
<path fill="none" stroke="#404040" d="M173.39,-876.12C171.57,-870.22 169.96,-863.97 169,-858 161.88,-813.93 161.85,-763.51 163.48,-725.05"/>
<polygon fill="none" stroke="#404040" points="163.48,-724.99 159.78,-718.81 164.06,-713.01 167.77,-719.19 163.48,-724.99"/>
<text text-anchor="middle" x="197" y="-817" font-family="Helvetica,sans-Serif" font-size="10.00"> #settings_</text>
</g>
<!-- Node9 -->
<g id="node9" class="node">
<title>Node9</title>
<g id="a_node9"><a xlink:href="structsignal__easel_1_1afsk_1_1Settings.html" target="_top" xlink:title="Settings for AFSK modulation/demodulation.">
<polygon fill="none" stroke="black" points="288,-628.5 288,-696.5 392,-696.5 392,-628.5 288,-628.5"/>
<text text-anchor="start" x="296" y="-684.5" font-family="Helvetica,sans-Serif" font-size="10.00">signal_easel::afsk</text>
<text text-anchor="middle" x="340" y="-673.5" font-family="Helvetica,sans-Serif" font-size="10.00">::Settings</text>
<polyline fill="none" stroke="black" points="288,-666.5 392,-666.5 "/>
<text text-anchor="middle" x="340" y="-654.5" font-family="Helvetica,sans-Serif" font-size="10.00"> </text>
<polyline fill="none" stroke="black" points="288,-647.5 392,-647.5 "/>
<text text-anchor="middle" x="340" y="-635.5" font-family="Helvetica,sans-Serif" font-size="10.00"> </text>
</a>
</g>
</g>
<!-- Node5&#45;&gt;Node9 -->
<g id="edge9" class="edge">
<title>Node5&#45;&gt;Node9</title>
<path fill="none" stroke="midnightblue" d="M217.33,-868.43C220.04,-865 222.65,-861.49 225,-858 246.33,-826.36 244.06,-814.13 263,-781 279.76,-751.67 300.93,-719.69 316.82,-696.5"/>
<polygon fill="none" stroke="midnightblue" points="214.52,-866.33 210.85,-876.27 219.92,-870.79 214.52,-866.33"/>
</g>
<!-- Node6 -->
<g id="node6" class="node">
<title>Node6</title>
<g id="a_node6"><a xlink:title=" ">
<polygon fill="none" stroke="#bfbfbf" points="214,-1003.5 214,-1060.5 264,-1060.5 264,-1003.5 214,-1003.5"/>
<text text-anchor="middle" x="239" y="-1048.5" font-family="Helvetica,sans-Serif" font-size="10.00">double</text>
<polyline fill="none" stroke="#bfbfbf" points="214,-1041.5 264,-1041.5 "/>
<text text-anchor="middle" x="239" y="-1029.5" font-family="Helvetica,sans-Serif" font-size="10.00"> </text>
<polyline fill="none" stroke="#bfbfbf" points="214,-1022.5 264,-1022.5 "/>
<text text-anchor="middle" x="239" y="-1010.5" font-family="Helvetica,sans-Serif" font-size="10.00"> </text>
</a>
</g>
</g>
<!-- Node6&#45;&gt;Node5 -->
<g id="edge5" class="edge">
<title>Node6&#45;&gt;Node5</title>
<path fill="none" stroke="#404040" d="M233.82,-1003.46C230.29,-987.88 224.82,-968.31 217,-952 215.7,-949.29 214.24,-946.56 212.67,-943.87"/>
<polygon fill="none" stroke="#404040" points="212.67,-943.87 206.08,-940.95 206.24,-933.74 212.83,-936.66 212.67,-943.87"/>
<text text-anchor="middle" x="272" y="-977" font-family="Helvetica,sans-Serif" font-size="10.00"> +amplitude</text>
<text text-anchor="start" x="229" y="-966" font-family="Helvetica,sans-Serif" font-size="10.00">+call_sign_pause</text>
<text text-anchor="middle" x="272" y="-955" font-family="Helvetica,sans-Serif" font-size="10.00">_seconds</text>
</g>
<!-- Node7 -->
<g id="node7" class="node">
<title>Node7</title>
<g id="a_node7"><a xlink:title=" ">
<polygon fill="none" stroke="#bfbfbf" points="86.5,-1003.5 86.5,-1060.5 169.5,-1060.5 169.5,-1003.5 86.5,-1003.5"/>
<text text-anchor="middle" x="128" y="-1048.5" font-family="Helvetica,sans-Serif" font-size="10.00">CallSignMode</text>
<polyline fill="none" stroke="#bfbfbf" points="86.5,-1041.5 169.5,-1041.5 "/>
<text text-anchor="middle" x="128" y="-1029.5" font-family="Helvetica,sans-Serif" font-size="10.00"> </text>
<polyline fill="none" stroke="#bfbfbf" points="86.5,-1022.5 169.5,-1022.5 "/>
<text text-anchor="middle" x="128" y="-1010.5" font-family="Helvetica,sans-Serif" font-size="10.00"> </text>
</a>
</g>
</g>
<!-- Node7&#45;&gt;Node5 -->
<g id="edge6" class="edge">
<title>Node7&#45;&gt;Node5</title>
<path fill="none" stroke="#404040" d="M120.72,-1003.34C118.04,-987.54 117.29,-967.79 125,-952 126.63,-948.66 128.63,-945.5 130.9,-942.51"/>
<polygon fill="none" stroke="#404040" points="130.91,-942.49 131.95,-935.36 138.93,-933.56 137.9,-940.7 130.91,-942.49"/>
<text text-anchor="middle" x="169" y="-966" font-family="Helvetica,sans-Serif" font-size="10.00"> +call_sign_mode</text>
</g>
<!-- Node8 -->
<g id="node8" class="node">
<title>Node8</title>
<g id="a_node8"><a xlink:title=" ">
<polygon fill="none" stroke="#bfbfbf" points="821,-1003.5 821,-1060.5 865,-1060.5 865,-1003.5 821,-1003.5"/>
<text text-anchor="middle" x="843" y="-1048.5" font-family="Helvetica,sans-Serif" font-size="10.00">string</text>
<polyline fill="none" stroke="#bfbfbf" points="821,-1041.5 865,-1041.5 "/>
<text text-anchor="middle" x="843" y="-1029.5" font-family="Helvetica,sans-Serif" font-size="10.00"> </text>
<polyline fill="none" stroke="#bfbfbf" points="821,-1022.5 865,-1022.5 "/>
<text text-anchor="middle" x="843" y="-1010.5" font-family="Helvetica,sans-Serif" font-size="10.00"> </text>
</a>
</g>
</g>
<!-- Node8&#45;&gt;Node5 -->
<g id="edge7" class="edge">
<title>Node8&#45;&gt;Node5</title>
<path fill="none" stroke="#404040" d="M820.74,-1029.05C743.52,-1021.91 480.12,-994.61 257.28,-934.39"/>
<polygon fill="none" stroke="#404040" points="257.27,-934.39 250.42,-936.66 245.69,-931.22 252.54,-928.95 257.27,-934.39"/>
<text text-anchor="middle" x="506.5" y="-966" font-family="Helvetica,sans-Serif" font-size="10.00"> +call_sign</text>
</g>
<!-- Node20 -->
<g id="node20" class="node">
<title>Node20</title>
<g id="a_node20"><a xlink:href="classsignal__easel_1_1ax25_1_1Address.html" target="_top" xlink:title="AX.25 Address class. For encoding and decoding AX.25 addresses.">
<polygon fill="none" stroke="black" points="896.5,-562.5 896.5,-762.5 1057.5,-762.5 1057.5,-562.5 896.5,-562.5"/>
<text text-anchor="start" x="904.5" y="-750.5" font-family="Helvetica,sans-Serif" font-size="10.00">signal_easel::ax25</text>
<text text-anchor="middle" x="977" y="-739.5" font-family="Helvetica,sans-Serif" font-size="10.00">::Address</text>
<polyline fill="none" stroke="black" points="896.5,-732.5 1057.5,-732.5 "/>
<text text-anchor="middle" x="977" y="-720.5" font-family="Helvetica,sans-Serif" font-size="10.00"> </text>
<polyline fill="none" stroke="black" points="896.5,-713.5 1057.5,-713.5 "/>
<text text-anchor="start" x="904.5" y="-701.5" font-family="Helvetica,sans-Serif" font-size="10.00">+ Address()</text>
<text text-anchor="start" x="904.5" y="-690.5" font-family="Helvetica,sans-Serif" font-size="10.00">+ Address()</text>
<text text-anchor="start" x="904.5" y="-679.5" font-family="Helvetica,sans-Serif" font-size="10.00">+ Address()</text>
<text text-anchor="start" x="904.5" y="-668.5" font-family="Helvetica,sans-Serif" font-size="10.00">+ assertIsValid()</text>
<text text-anchor="start" x="904.5" y="-657.5" font-family="Helvetica,sans-Serif" font-size="10.00">+ decodeAddress()</text>
<text text-anchor="start" x="904.5" y="-646.5" font-family="Helvetica,sans-Serif" font-size="10.00">+ encodeAddress()</text>
<text text-anchor="start" x="904.5" y="-635.5" font-family="Helvetica,sans-Serif" font-size="10.00">+ getAddressString()</text>
<text text-anchor="start" x="904.5" y="-624.5" font-family="Helvetica,sans-Serif" font-size="10.00">+ getSsid()</text>
<text text-anchor="start" x="904.5" y="-613.5" font-family="Helvetica,sans-Serif" font-size="10.00">+ isAddressStringValid()</text>
<text text-anchor="start" x="904.5" y="-602.5" font-family="Helvetica,sans-Serif" font-size="10.00">+ isCommandOrResponse()</text>
<text text-anchor="start" x="904.5" y="-591.5" font-family="Helvetica,sans-Serif" font-size="10.00">and 8 more...</text>
<text text-anchor="start" x="904.5" y="-580.5" font-family="Helvetica,sans-Serif" font-size="10.00">&#45; assertAddressStringIsValid()</text>
<text text-anchor="start" x="904.5" y="-569.5" font-family="Helvetica,sans-Serif" font-size="10.00">&#45; assertSsidIsValid()</text>
</a>
</g>
</g>
<!-- Node8&#45;&gt;Node20 -->
<g id="edge23" class="edge">
<title>Node8&#45;&gt;Node20</title>
<path fill="none" stroke="#404040" d="M865.05,-1008.12C893.46,-977.02 941.72,-918.32 963,-858 972.22,-831.86 976.98,-802.54 979.18,-774.75"/>
<polygon fill="none" stroke="#404040" points="979.2,-774.51 975.6,-768.25 980,-762.53 983.59,-768.79 979.2,-774.51"/>
<text text-anchor="middle" x="996" y="-902.5" font-family="Helvetica,sans-Serif" font-size="10.00"> &#45;address_string_</text>
</g>
<!-- Node9&#45;&gt;Node2 -->
<g id="edge8" class="edge">
<title>Node9&#45;&gt;Node2</title>
<path fill="none" stroke="#404040" d="M358.28,-628.5C387.12,-576.45 443.83,-474.09 482.33,-404.61"/>
<polygon fill="none" stroke="#404040" points="482.53,-404.25 481.94,-397.06 488.34,-393.75 488.93,-400.94 482.53,-404.25"/>
<text text-anchor="middle" x="460" y="-525" font-family="Helvetica,sans-Serif" font-size="10.00"> &#45;afsk_settings_</text>
</g>
<!-- Node10 -->
<g id="node10" class="node">
<title>Node10</title>
<g id="a_node10"><a xlink:title=" ">
<polygon fill="none" stroke="#bfbfbf" points="264,-876.5 264,-933.5 338,-933.5 338,-876.5 264,-876.5"/>
<text text-anchor="middle" x="301" y="-921.5" font-family="Helvetica,sans-Serif" font-size="10.00">BitEncoding</text>
<polyline fill="none" stroke="#bfbfbf" points="264,-914.5 338,-914.5 "/>
<text text-anchor="middle" x="301" y="-902.5" font-family="Helvetica,sans-Serif" font-size="10.00"> </text>
<polyline fill="none" stroke="#bfbfbf" points="264,-895.5 338,-895.5 "/>
<text text-anchor="middle" x="301" y="-883.5" font-family="Helvetica,sans-Serif" font-size="10.00"> </text>
</a>
</g>
</g>
<!-- Node10&#45;&gt;Node9 -->
<g id="edge10" class="edge">
<title>Node10&#45;&gt;Node9</title>
<path fill="none" stroke="#404040" d="M280.93,-876.42C277.66,-870.6 274.77,-864.3 273,-858 263.76,-825.05 264.23,-814.08 273,-781 279.97,-754.69 294.37,-728.11 308.04,-706.91"/>
<polygon fill="none" stroke="#404040" points="308.21,-706.64 308.21,-699.43 314.86,-696.65 314.87,-703.86 308.21,-706.64"/>
<text text-anchor="middle" x="310" y="-817" font-family="Helvetica,sans-Serif" font-size="10.00"> +bit_encoding</text>
</g>
<!-- Node11 -->
<g id="node11" class="node">
<title>Node11</title>
<g id="a_node11"><a xlink:title=" ">
<polygon fill="none" stroke="#bfbfbf" points="660,-876.5 660,-933.5 698,-933.5 698,-876.5 660,-876.5"/>
<text text-anchor="middle" x="679" y="-921.5" font-family="Helvetica,sans-Serif" font-size="10.00">bool</text>
<polyline fill="none" stroke="#bfbfbf" points="660,-914.5 698,-914.5 "/>
<text text-anchor="middle" x="679" y="-902.5" font-family="Helvetica,sans-Serif" font-size="10.00"> </text>
<polyline fill="none" stroke="#bfbfbf" points="660,-895.5 698,-895.5 "/>
<text text-anchor="middle" x="679" y="-883.5" font-family="Helvetica,sans-Serif" font-size="10.00"> </text>
</a>
</g>
</g>
<!-- Node11&#45;&gt;Node9 -->
<g id="edge11" class="edge">
<title>Node11&#45;&gt;Node9</title>
<path fill="none" stroke="#404040" d="M659.87,-881.55C657.1,-879.36 654.13,-877.42 651,-876 597.06,-851.49 430.1,-896.42 385,-858 362.64,-838.95 350.16,-759.84 344.28,-708.57"/>
<polygon fill="none" stroke="#404040" points="344.26,-708.43 339.64,-702.9 342.96,-696.5 347.59,-702.03 344.26,-708.43"/>
<text text-anchor="middle" x="444.5" y="-817" font-family="Helvetica,sans-Serif" font-size="10.00"> +include_ascii_padding</text>
</g>
<!-- Node11&#45;&gt;Node20 -->
<g id="edge21" class="edge">
<title>Node11&#45;&gt;Node20</title>
<path fill="none" stroke="#404040" d="M698.27,-881.83C701.01,-879.59 703.94,-877.56 707,-876 751.9,-853.06 781.09,-891.24 819,-858 845.85,-834.45 817.81,-807.28 842,-781 854.78,-767.12 866.25,-773.05 886.04,-763.07"/>
<polygon fill="none" stroke="#404040" points="886.22,-762.97 889.27,-756.44 896.47,-756.74 893.42,-763.28 886.22,-762.97"/>
<text text-anchor="start" x="842" y="-850" font-family="Helvetica,sans-Serif" font-size="10.00"> &#45;command_or_response</text>
<text text-anchor="middle" x="902.5" y="-839" font-family="Helvetica,sans-Serif" font-size="10.00">_</text>
<text text-anchor="start" x="842" y="-828" font-family="Helvetica,sans-Serif" font-size="10.00">&#45;is_last_address</text>
<text text-anchor="middle" x="902.5" y="-817" font-family="Helvetica,sans-Serif" font-size="10.00">_</text>
<text text-anchor="start" x="842" y="-806" font-family="Helvetica,sans-Serif" font-size="10.00">&#45;reserve_bit</text>
<text text-anchor="middle" x="902.5" y="-795" font-family="Helvetica,sans-Serif" font-size="10.00">_1_</text>
<text text-anchor="middle" x="902.5" y="-784" font-family="Helvetica,sans-Serif" font-size="10.00">&#45;reserve_bit_2_</text>
</g>
<!-- Node12 -->
<g id="node12" class="node">
<title>Node12</title>
<g id="a_node12"><a xlink:href="classsignal__easel_1_1BitStream.html" target="_top" xlink:title=" ">
<polygon fill="none" stroke="black" points="474.5,-573.5 474.5,-751.5 621.5,-751.5 621.5,-573.5 474.5,-573.5"/>
<text text-anchor="middle" x="548" y="-739.5" font-family="Helvetica,sans-Serif" font-size="10.00">signal_easel::BitStream</text>
<polyline fill="none" stroke="black" points="474.5,-732.5 621.5,-732.5 "/>
<text text-anchor="middle" x="548" y="-720.5" font-family="Helvetica,sans-Serif" font-size="10.00"> </text>
<polyline fill="none" stroke="black" points="474.5,-713.5 621.5,-713.5 "/>
<text text-anchor="start" x="482.5" y="-701.5" font-family="Helvetica,sans-Serif" font-size="10.00">+ addBits()</text>
<text text-anchor="start" x="482.5" y="-690.5" font-family="Helvetica,sans-Serif" font-size="10.00">+ addOneBit()</text>
<text text-anchor="start" x="482.5" y="-679.5" font-family="Helvetica,sans-Serif" font-size="10.00">+ addZeroBit()</text>
<text text-anchor="start" x="482.5" y="-668.5" font-family="Helvetica,sans-Serif" font-size="10.00">+ dumpBitStream()</text>
<text text-anchor="start" x="482.5" y="-657.5" font-family="Helvetica,sans-Serif" font-size="10.00">+ dumpBitStreamAsAscii()</text>
<text text-anchor="start" x="482.5" y="-646.5" font-family="Helvetica,sans-Serif" font-size="10.00">+ dumpBitStreamAsHex()</text>
<text text-anchor="start" x="482.5" y="-635.5" font-family="Helvetica,sans-Serif" font-size="10.00">+ getBitStreamLength()</text>
<text text-anchor="start" x="482.5" y="-624.5" font-family="Helvetica,sans-Serif" font-size="10.00">+ getBitVector()</text>
<text text-anchor="start" x="482.5" y="-613.5" font-family="Helvetica,sans-Serif" font-size="10.00">+ peakNextBit()</text>
<text text-anchor="start" x="482.5" y="-602.5" font-family="Helvetica,sans-Serif" font-size="10.00">+ peakNextByte()</text>
<text text-anchor="start" x="482.5" y="-591.5" font-family="Helvetica,sans-Serif" font-size="10.00">+ popNextBit()</text>
<text text-anchor="start" x="482.5" y="-580.5" font-family="Helvetica,sans-Serif" font-size="10.00">+ pushBufferToBitStream()</text>
</a>
</g>
</g>
<!-- Node12&#45;&gt;Node2 -->
<g id="edge12" class="edge">
<title>Node12&#45;&gt;Node2</title>
<path fill="none" stroke="#404040" d="M527.2,-573.27C525.49,-563.44 524.03,-553.54 523,-544 518.07,-498.19 517.74,-446.45 518.69,-405.68"/>
<polygon fill="none" stroke="#404040" points="518.69,-405.66 514.85,-399.56 519.01,-393.67 522.85,-399.77 518.69,-405.66"/>
<text text-anchor="middle" x="576" y="-525" font-family="Helvetica,sans-Serif" font-size="10.00"> #output_bit_stream_</text>
</g>
<!-- Node13 -->
<g id="node13" class="node">
<title>Node13</title>
<g id="a_node13"><a xlink:title=" ">
<polygon fill="none" stroke="#bfbfbf" points="586,-876.5 586,-933.5 642,-933.5 642,-876.5 586,-876.5"/>
<text text-anchor="middle" x="614" y="-921.5" font-family="Helvetica,sans-Serif" font-size="10.00">uint32_t</text>
<polyline fill="none" stroke="#bfbfbf" points="586,-914.5 642,-914.5 "/>
<text text-anchor="middle" x="614" y="-902.5" font-family="Helvetica,sans-Serif" font-size="10.00"> </text>
<polyline fill="none" stroke="#bfbfbf" points="586,-895.5 642,-895.5 "/>
<text text-anchor="middle" x="614" y="-883.5" font-family="Helvetica,sans-Serif" font-size="10.00"> </text>
</a>
</g>
</g>
<!-- Node13&#45;&gt;Node12 -->
<g id="edge13" class="edge">
<title>Node13&#45;&gt;Node12</title>
<path fill="none" stroke="#404040" d="M616.28,-876.13C617.55,-850.86 617.45,-812.81 609,-781 607.42,-775.04 605.5,-769.05 603.33,-763.08"/>
<polygon fill="none" stroke="#404040" points="603.24,-762.85 597.33,-758.72 598.87,-751.67 604.78,-755.8 603.24,-762.85"/>
<text text-anchor="middle" x="665.5" y="-817" font-family="Helvetica,sans-Serif" font-size="10.00"> &#45;bit_stream_buffer_</text>
</g>
<!-- Node14 -->
<g id="node14" class="node">
<title>Node14</title>
<g id="a_node14"><a xlink:title=" ">
<polygon fill="none" stroke="#bfbfbf" points="496.5,-876.5 496.5,-933.5 525.5,-933.5 525.5,-876.5 496.5,-876.5"/>
<text text-anchor="middle" x="511" y="-921.5" font-family="Helvetica,sans-Serif" font-size="10.00">int</text>
<polyline fill="none" stroke="#bfbfbf" points="496.5,-914.5 525.5,-914.5 "/>
<text text-anchor="middle" x="511" y="-902.5" font-family="Helvetica,sans-Serif" font-size="10.00"> </text>
<polyline fill="none" stroke="#bfbfbf" points="496.5,-895.5 525.5,-895.5 "/>
<text text-anchor="middle" x="511" y="-883.5" font-family="Helvetica,sans-Serif" font-size="10.00"> </text>
</a>
</g>
</g>
<!-- Node14&#45;&gt;Node12 -->
<g id="edge14" class="edge">
<title>Node14&#45;&gt;Node12</title>
<path fill="none" stroke="#404040" d="M508.97,-876.46C507.65,-851.41 507,-813.5 512,-781 512.88,-775.3 513.97,-769.5 515.22,-763.68"/>
<polygon fill="none" stroke="#404040" points="515.28,-763.41 512.75,-756.66 518,-751.72 520.54,-758.47 515.28,-763.41"/>
<text text-anchor="middle" x="560.5" y="-833.5" font-family="Helvetica,sans-Serif" font-size="10.00"> &#45;bit_stream_index_</text>
<text text-anchor="start" x="512" y="-822.5" font-family="Helvetica,sans-Serif" font-size="10.00">&#45;bit_stream_length</text>
<text text-anchor="middle" x="560.5" y="-811.5" font-family="Helvetica,sans-Serif" font-size="10.00">_</text>
<text text-anchor="middle" x="560.5" y="-800.5" font-family="Helvetica,sans-Serif" font-size="10.00">&#45;bit_stream_offset_</text>
</g>
<!-- Node15 -->
<g id="node15" class="node">
<title>Node15</title>
<g id="a_node15"><a xlink:title=" ">
<polygon fill="none" stroke="#bfbfbf" points="716,-876.5 716,-933.5 826,-933.5 826,-876.5 716,-876.5"/>
<text text-anchor="middle" x="771" y="-921.5" font-family="Helvetica,sans-Serif" font-size="10.00">vector&lt; uint32_t &gt;</text>
<polyline fill="none" stroke="#bfbfbf" points="716,-914.5 826,-914.5 "/>
<text text-anchor="middle" x="771" y="-902.5" font-family="Helvetica,sans-Serif" font-size="10.00"> </text>
<polyline fill="none" stroke="#bfbfbf" points="716,-895.5 826,-895.5 "/>
<text text-anchor="middle" x="771" y="-883.5" font-family="Helvetica,sans-Serif" font-size="10.00"> </text>
</a>
</g>
</g>
<!-- Node15&#45;&gt;Node12 -->
<g id="edge15" class="edge">
<title>Node15&#45;&gt;Node12</title>
<path fill="none" stroke="#404040" d="M760.55,-876.48C747.47,-842.51 725.94,-788.32 719,-781 706.41,-767.73 697.63,-772.49 682,-763 665.28,-752.85 648.07,-741.13 631.78,-729.39"/>
<polygon fill="none" stroke="#404040" points="631.46,-729.16 624.26,-728.85 621.77,-722.08 628.97,-722.39 631.46,-729.16"/>
<text text-anchor="middle" x="784.5" y="-817" font-family="Helvetica,sans-Serif" font-size="10.00"> &#45;bit_stream_</text>
</g>
<!-- Node16 -->
<g id="node16" class="node">
<title>Node16</title>
<g id="a_node16"><a xlink:title=" ">
<polygon fill="none" stroke="#bfbfbf" points="691,-634 691,-691 795,-691 795,-634 691,-634"/>
<text text-anchor="middle" x="743" y="-679" font-family="Helvetica,sans-Serif" font-size="10.00">vector&lt; uint8_t &gt;</text>
<polyline fill="none" stroke="#bfbfbf" points="691,-672 795,-672 "/>
<text text-anchor="middle" x="743" y="-660" font-family="Helvetica,sans-Serif" font-size="10.00"> </text>
<polyline fill="none" stroke="#bfbfbf" points="691,-653 795,-653 "/>
<text text-anchor="middle" x="743" y="-641" font-family="Helvetica,sans-Serif" font-size="10.00"> </text>
</a>
</g>
</g>
<!-- Node16&#45;&gt;Node2 -->
<g id="edge16" class="edge">
<title>Node16&#45;&gt;Node2</title>
<path fill="none" stroke="#404040" d="M720.07,-633.64C701.12,-610.23 673.88,-575.61 652,-544 620.57,-498.6 587.98,-445.7 563.3,-404.22"/>
<polygon fill="none" stroke="#404040" points="563.16,-403.98 556.66,-400.86 557.04,-393.66 563.54,-396.78 563.16,-403.98"/>
<text text-anchor="middle" x="702" y="-525" font-family="Helvetica,sans-Serif" font-size="10.00"> &#45;base_band_signal_</text>
</g>
<!-- Node18 -->
<g id="node18" class="node">
<title>Node18</title>
<g id="a_node18"><a xlink:href="classsignal__easel_1_1ax25_1_1Frame.html" target="_top" xlink:title=" ">
<polygon fill="none" stroke="black" points="911.5,-171.5 911.5,-492.5 1070.5,-492.5 1070.5,-171.5 911.5,-171.5"/>
<text text-anchor="start" x="919.5" y="-480.5" font-family="Helvetica,sans-Serif" font-size="10.00">signal_easel::ax25</text>
<text text-anchor="middle" x="991" y="-469.5" font-family="Helvetica,sans-Serif" font-size="10.00">::Frame</text>
<polyline fill="none" stroke="black" points="911.5,-462.5 1070.5,-462.5 "/>
<text text-anchor="middle" x="991" y="-450.5" font-family="Helvetica,sans-Serif" font-size="10.00"> </text>
<polyline fill="none" stroke="black" points="911.5,-443.5 1070.5,-443.5 "/>
<text text-anchor="start" x="919.5" y="-431.5" font-family="Helvetica,sans-Serif" font-size="10.00">+ Frame()</text>
<text text-anchor="start" x="919.5" y="-420.5" font-family="Helvetica,sans-Serif" font-size="10.00">+ buildFrame()</text>
<text text-anchor="start" x="919.5" y="-409.5" font-family="Helvetica,sans-Serif" font-size="10.00">+ encodeFrame()</text>
<text text-anchor="start" x="919.5" y="-398.5" font-family="Helvetica,sans-Serif" font-size="10.00">+ isFrameValid()</text>
<text text-anchor="start" x="919.5" y="-387.5" font-family="Helvetica,sans-Serif" font-size="10.00">+ parseBitStream()</text>
<text text-anchor="start" x="919.5" y="-376.5" font-family="Helvetica,sans-Serif" font-size="10.00">+ setDestinationAddress()</text>
<text text-anchor="start" x="919.5" y="-365.5" font-family="Helvetica,sans-Serif" font-size="10.00">+ getDestinationAddress()</text>
<text text-anchor="start" x="919.5" y="-354.5" font-family="Helvetica,sans-Serif" font-size="10.00">+ setSourceAddress()</text>
<text text-anchor="start" x="919.5" y="-343.5" font-family="Helvetica,sans-Serif" font-size="10.00">+ getSourceAddress()</text>
<text text-anchor="start" x="919.5" y="-332.5" font-family="Helvetica,sans-Serif" font-size="10.00">+ addRepeaterAddress()</text>
<text text-anchor="start" x="919.5" y="-321.5" font-family="Helvetica,sans-Serif" font-size="10.00">+ getRepeaterAddresses()</text>
<text text-anchor="start" x="919.5" y="-310.5" font-family="Helvetica,sans-Serif" font-size="10.00">+ setInformation()</text>
<text text-anchor="start" x="919.5" y="-299.5" font-family="Helvetica,sans-Serif" font-size="10.00">+ getInformation()</text>
<text text-anchor="start" x="919.5" y="-288.5" font-family="Helvetica,sans-Serif" font-size="10.00">&#45; AddByteForFcs()</text>
<text text-anchor="start" x="919.5" y="-277.5" font-family="Helvetica,sans-Serif" font-size="10.00">&#45; addToBuildBuffer()</text>
<text text-anchor="start" x="919.5" y="-266.5" font-family="Helvetica,sans-Serif" font-size="10.00">&#45; calculateFcsOnBuildBuffer()</text>
<text text-anchor="start" x="919.5" y="-255.5" font-family="Helvetica,sans-Serif" font-size="10.00">* setDestinationAddress()</text>
<text text-anchor="start" x="919.5" y="-244.5" font-family="Helvetica,sans-Serif" font-size="10.00">* getDestinationAddress()</text>
<text text-anchor="start" x="919.5" y="-233.5" font-family="Helvetica,sans-Serif" font-size="10.00">* setSourceAddress()</text>
<text text-anchor="start" x="919.5" y="-222.5" font-family="Helvetica,sans-Serif" font-size="10.00">* getSourceAddress()</text>
<text text-anchor="start" x="919.5" y="-211.5" font-family="Helvetica,sans-Serif" font-size="10.00">* addRepeaterAddress()</text>
<text text-anchor="start" x="919.5" y="-200.5" font-family="Helvetica,sans-Serif" font-size="10.00">* getRepeaterAddresses()</text>
<text text-anchor="start" x="919.5" y="-189.5" font-family="Helvetica,sans-Serif" font-size="10.00">* setInformation()</text>
<text text-anchor="start" x="919.5" y="-178.5" font-family="Helvetica,sans-Serif" font-size="10.00">* getInformation()</text>
</a>
</g>
</g>
<!-- Node16&#45;&gt;Node18 -->
<g id="edge26" class="edge">
<title>Node16&#45;&gt;Node18</title>
<path fill="none" stroke="#404040" d="M749.71,-633.88C759.48,-599.71 780.98,-542.23 821,-511 848.37,-489.65 869.08,-513.62 897,-493 898.74,-491.72 900.45,-490.39 902.13,-489.03"/>
<polygon fill="none" stroke="#404040" points="902.48,-488.72 904.34,-481.76 911.49,-480.8 909.63,-487.77 902.48,-488.72"/>
<text text-anchor="middle" x="856" y="-530.5" font-family="Helvetica,sans-Serif" font-size="10.00"> &#45;build_buffer_</text>
<text text-anchor="middle" x="856" y="-519.5" font-family="Helvetica,sans-Serif" font-size="10.00">&#45;information_</text>
</g>
<!-- Node17 -->
<g id="node17" class="node">
<title>Node17</title>
<g id="a_node17"><a xlink:title=" ">
<polygon fill="none" stroke="#bfbfbf" points="839.5,-634 839.5,-691 878.5,-691 878.5,-634 839.5,-634"/>
<text text-anchor="middle" x="859" y="-679" font-family="Helvetica,sans-Serif" font-size="10.00">Type</text>
<polyline fill="none" stroke="#bfbfbf" points="839.5,-672 878.5,-672 "/>
<text text-anchor="middle" x="859" y="-660" font-family="Helvetica,sans-Serif" font-size="10.00"> </text>
<polyline fill="none" stroke="#bfbfbf" points="839.5,-653 878.5,-653 "/>
<text text-anchor="middle" x="859" y="-641" font-family="Helvetica,sans-Serif" font-size="10.00"> </text>
</a>
</g>
</g>
<!-- Node17&#45;&gt;Node1 -->
<g id="edge17" class="edge">
<title>Node17&#45;&gt;Node1</title>
<path fill="none" stroke="#404040" d="M859,-633.83C859,-545.55 859,-268.58 859,-135.63"/>
<polygon fill="none" stroke="#404040" points="859,-135.61 855,-129.61 859,-123.61 863,-129.61 859,-135.61"/>
<text text-anchor="middle" x="876" y="-329.5" font-family="Helvetica,sans-Serif" font-size="10.00"> &#45;type_</text>
</g>
<!-- Node17&#45;&gt;Node18 -->
<g id="edge24" class="edge">
<title>Node17&#45;&gt;Node18</title>
<path fill="none" stroke="#404040" d="M865.99,-633.71C871.32,-613.57 879.23,-585.8 888,-562 895.03,-542.93 902.91,-523.22 911.1,-503.72"/>
<polygon fill="none" stroke="#404040" points="911.14,-503.65 909.8,-496.56 915.82,-492.6 917.16,-499.69 911.14,-503.65"/>
<text text-anchor="middle" x="922" y="-525" font-family="Helvetica,sans-Serif" font-size="10.00"> &#45;type_</text>
</g>
<!-- Node18&#45;&gt;Node1 -->
<g id="edge18" class="edge">
<title>Node18&#45;&gt;Node1</title>
<path fill="none" stroke="#404040" d="M912.31,-171.23C906.03,-158.49 899.92,-146.07 894.2,-134.46"/>
<polygon fill="none" stroke="#404040" points="894.15,-134.36 887.91,-130.74 888.84,-123.59 895.08,-127.21 894.15,-134.36"/>
<text text-anchor="middle" x="922" y="-145" font-family="Helvetica,sans-Serif" font-size="10.00"> &#45;frame_</text>
</g>
<!-- Node19 -->
<g id="node19" class="node">
<title>Node19</title>
<g id="a_node19"><a xlink:title=" ">
<polygon fill="none" stroke="#bfbfbf" points="1293,-634 1293,-691 1349,-691 1349,-634 1293,-634"/>
<text text-anchor="middle" x="1321" y="-679" font-family="Helvetica,sans-Serif" font-size="10.00">uint16_t</text>
<polyline fill="none" stroke="#bfbfbf" points="1293,-672 1349,-672 "/>
<text text-anchor="middle" x="1321" y="-660" font-family="Helvetica,sans-Serif" font-size="10.00"> </text>
<polyline fill="none" stroke="#bfbfbf" points="1293,-653 1349,-653 "/>
<text text-anchor="middle" x="1321" y="-641" font-family="Helvetica,sans-Serif" font-size="10.00"> </text>
</a>
</g>
</g>
<!-- Node19&#45;&gt;Node18 -->
<g id="edge19" class="edge">
<title>Node19&#45;&gt;Node18</title>
<path fill="none" stroke="#404040" d="M1311.47,-633.74C1299.37,-601.48 1276.03,-547.99 1243,-511 1196.85,-459.33 1133.01,-414.43 1081.13,-382.66"/>
<polygon fill="none" stroke="#404040" points="1080.86,-382.49 1073.65,-382.81 1070.59,-376.28 1077.8,-375.96 1080.86,-382.49"/>
<text text-anchor="middle" x="1278.5" y="-525" font-family="Helvetica,sans-Serif" font-size="10.00"> &#45;fcs_</text>
</g>
<!-- Node20&#45;&gt;Node18 -->
<g id="edge20" class="edge">
<title>Node20&#45;&gt;Node18</title>
<path fill="none" stroke="#404040" d="M976.1,-562.45C976.06,-556.21 976.03,-550.02 976,-544 975.94,-529.33 975.38,-525.65 976,-511 976.09,-508.92 976.18,-506.83 976.28,-504.73"/>
<polygon fill="none" stroke="#404040" points="976.29,-504.57 972.6,-498.38 976.9,-492.59 980.59,-498.79 976.29,-504.57"/>
<text text-anchor="start" x="976" y="-536" font-family="Helvetica,sans-Serif" font-size="10.00"> &#45;destination_address</text>
<text text-anchor="middle" x="1029" y="-525" font-family="Helvetica,sans-Serif" font-size="10.00">_</text>
<text text-anchor="middle" x="1029" y="-514" font-family="Helvetica,sans-Serif" font-size="10.00">&#45;source_address_</text>
</g>
<!-- Node21 -->
<g id="node21" class="node">
<title>Node21</title>
<g id="a_node21"><a xlink:title=" ">
<polygon fill="none" stroke="#bfbfbf" points="1079,-876.5 1079,-933.5 1129,-933.5 1129,-876.5 1079,-876.5"/>
<text text-anchor="middle" x="1104" y="-921.5" font-family="Helvetica,sans-Serif" font-size="10.00">uint8_t</text>
<polyline fill="none" stroke="#bfbfbf" points="1079,-914.5 1129,-914.5 "/>
<text text-anchor="middle" x="1104" y="-902.5" font-family="Helvetica,sans-Serif" font-size="10.00"> </text>
<polyline fill="none" stroke="#bfbfbf" points="1079,-895.5 1129,-895.5 "/>
<text text-anchor="middle" x="1104" y="-883.5" font-family="Helvetica,sans-Serif" font-size="10.00"> </text>
</a>
</g>
</g>
<!-- Node21&#45;&gt;Node18 -->
<g id="edge25" class="edge">
<title>Node21&#45;&gt;Node18</title>
<path fill="none" stroke="#404040" d="M1103.94,-876.37C1103.52,-798.78 1100.67,-580.01 1082,-511 1079.91,-503.29 1077.47,-495.53 1074.74,-487.79"/>
<polygon fill="none" stroke="#404040" points="1074.72,-487.72 1068.89,-483.48 1070.56,-476.47 1076.39,-480.71 1074.72,-487.72"/>
<text text-anchor="middle" x="1116" y="-660" font-family="Helvetica,sans-Serif" font-size="10.00"> &#45;pid_</text>
</g>
<!-- Node21&#45;&gt;Node20 -->
<g id="edge22" class="edge">
<title>Node21&#45;&gt;Node20</title>
<path fill="none" stroke="#404040" d="M1078.94,-887C1068.85,-879.14 1057.78,-869.09 1050,-858 1032.34,-832.85 1018.35,-802.9 1007.55,-774.13"/>
<polygon fill="none" stroke="#404040" points="1007.51,-774.03 1001.7,-769.76 1003.41,-762.75 1009.22,-767.02 1007.51,-774.03"/>
<text text-anchor="middle" x="1066" y="-817" font-family="Helvetica,sans-Serif" font-size="10.00"> &#45;ssid_</text>
</g>
<!-- Node22 -->
<g id="node22" class="node">
<title>Node22</title>
<g id="a_node22"><a xlink:title=" ">
<polygon fill="none" stroke="#bfbfbf" points="1142.5,-628.5 1142.5,-696.5 1261.5,-696.5 1261.5,-628.5 1142.5,-628.5"/>
<text text-anchor="start" x="1150.5" y="-684.5" font-family="Helvetica,sans-Serif" font-size="10.00">vector&lt; signal_easel</text>
<text text-anchor="middle" x="1202" y="-673.5" font-family="Helvetica,sans-Serif" font-size="10.00">::ax25::Address &gt;</text>
<polyline fill="none" stroke="#bfbfbf" points="1142.5,-666.5 1261.5,-666.5 "/>
<text text-anchor="middle" x="1202" y="-654.5" font-family="Helvetica,sans-Serif" font-size="10.00"> </text>
<polyline fill="none" stroke="#bfbfbf" points="1142.5,-647.5 1261.5,-647.5 "/>
<text text-anchor="middle" x="1202" y="-635.5" font-family="Helvetica,sans-Serif" font-size="10.00"> </text>
</a>
</g>
</g>
<!-- Node22&#45;&gt;Node18 -->
<g id="edge27" class="edge">
<title>Node22&#45;&gt;Node18</title>
<path fill="none" stroke="#404040" d="M1182.28,-628.38C1163.91,-597.73 1135.57,-550.99 1110,-511 1099.63,-494.79 1088.6,-477.86 1077.58,-461.16"/>
<polygon fill="none" stroke="#404040" points="1077.35,-460.81 1070.7,-458.02 1070.73,-450.81 1077.38,-453.6 1077.35,-460.81"/>
<text text-anchor="middle" x="1184.5" y="-525" font-family="Helvetica,sans-Serif" font-size="10.00"> &#45;repeater_addresses_</text>
</g>
</g>
</svg>
