<?xml version="1.0" encoding="UTF-8" standalone="no"?>
<!DOCTYPE svg PUBLIC "-//W3C//DTD SVG 1.1//EN"
 "http://www.w3.org/Graphics/SVG/1.1/DTD/svg11.dtd">
<!-- Generated by graphviz version 2.43.0 (0)
 -->
<!-- Title: signal_easel::aprs::telemetry::TelemetryTranscoder::encodeParameterNameMessage Pages: 1 -->
<svg width="599pt" height="170pt"
 viewBox="0.00 0.00 599.00 170.00" xmlns="http://www.w3.org/2000/svg" xmlns:xlink="http://www.w3.org/1999/xlink">
<g id="graph0" class="graph" transform="scale(1 1) rotate(0) translate(4 166)">
<title>signal_easel::aprs::telemetry::TelemetryTranscoder::encodeParameterNameMessage</title>
<!-- Node1 -->
<g id="node1" class="node">
<title>Node1</title>
<g id="a_node1"><a xlink:title="Encodes the parameter names into a message.">
<polygon fill="#bfbfbf" stroke="black" points="0,-60.5 0,-101.5 181,-101.5 181,-60.5 0,-60.5"/>
<text text-anchor="start" x="8" y="-89.5" font-family="Helvetica,sans-Serif" font-size="10.00">signal_easel::aprs</text>
<text text-anchor="start" x="8" y="-78.5" font-family="Helvetica,sans-Serif" font-size="10.00">::telemetry::TelemetryTranscoder</text>
<text text-anchor="middle" x="90.5" y="-67.5" font-family="Helvetica,sans-Serif" font-size="10.00">::encodeParameterNameMessage</text>
</a>
</g>
</g>
<!-- Node2 -->
<g id="node2" class="node">
<title>Node2</title>
<g id="a_node2"><a xlink:href="classsignal__easel_1_1aprs_1_1telemetry_1_1TelemetryTranscoder.html#a195a39f0f0e23c8eacd3f552e4389932" target="_top" xlink:title="Used in the encode methods to add the telemetry station address to the message in the format &quot;:N0CALL...">
<polygon fill="none" stroke="black" points="217,-120.5 217,-161.5 394,-161.5 394,-120.5 217,-120.5"/>
<text text-anchor="start" x="225" y="-149.5" font-family="Helvetica,sans-Serif" font-size="10.00">signal_easel::aprs</text>
<text text-anchor="start" x="225" y="-138.5" font-family="Helvetica,sans-Serif" font-size="10.00">::telemetry::TelemetryTranscoder</text>
<text text-anchor="middle" x="305.5" y="-127.5" font-family="Helvetica,sans-Serif" font-size="10.00">::addTelemetryStationAddress</text>
</a>
</g>
</g>
<!-- Node1&#45;&gt;Node2 -->
<g id="edge1" class="edge">
<title>Node1&#45;&gt;Node2</title>
<path fill="none" stroke="midnightblue" d="M164.5,-101.56C182.96,-106.76 202.92,-112.39 221.82,-117.71"/>
<polygon fill="midnightblue" stroke="midnightblue" points="221.02,-121.12 231.59,-120.46 222.91,-114.38 221.02,-121.12"/>
</g>
<!-- Node4 -->
<g id="node4" class="node">
<title>Node4</title>
<g id="a_node4"><a xlink:href="classsignal__easel_1_1aprs_1_1telemetry_1_1TelemetryData.html#a5e9a7e28d18dbd0e50bb53ea7734aa1a" target="_top" xlink:title=" ">
<polygon fill="none" stroke="black" points="228,-60.5 228,-101.5 383,-101.5 383,-60.5 228,-60.5"/>
<text text-anchor="start" x="236" y="-89.5" font-family="Helvetica,sans-Serif" font-size="10.00">signal_easel::aprs</text>
<text text-anchor="start" x="236" y="-78.5" font-family="Helvetica,sans-Serif" font-size="10.00">::telemetry::TelemetryData</text>
<text text-anchor="middle" x="305.5" y="-67.5" font-family="Helvetica,sans-Serif" font-size="10.00">::getAnalogParametersConst</text>
</a>
</g>
</g>
<!-- Node1&#45;&gt;Node4 -->
<g id="edge3" class="edge">
<title>Node1&#45;&gt;Node4</title>
<path fill="none" stroke="midnightblue" d="M181.21,-81C193.29,-81 205.67,-81 217.7,-81"/>
<polygon fill="midnightblue" stroke="midnightblue" points="217.71,-84.5 227.71,-81 217.71,-77.5 217.71,-84.5"/>
</g>
<!-- Node5 -->
<g id="node5" class="node">
<title>Node5</title>
<g id="a_node5"><a xlink:href="classsignal__easel_1_1aprs_1_1telemetry_1_1TelemetryData.html#a8128a64f4d0f2a6af78ed636d5fbbb57" target="_top" xlink:title=" ">
<polygon fill="none" stroke="black" points="228.5,-0.5 228.5,-41.5 382.5,-41.5 382.5,-0.5 228.5,-0.5"/>
<text text-anchor="start" x="236.5" y="-29.5" font-family="Helvetica,sans-Serif" font-size="10.00">signal_easel::aprs</text>
<text text-anchor="start" x="236.5" y="-18.5" font-family="Helvetica,sans-Serif" font-size="10.00">::telemetry::TelemetryData</text>
<text text-anchor="middle" x="305.5" y="-7.5" font-family="Helvetica,sans-Serif" font-size="10.00">::getDigitalParametersConst</text>
</a>
</g>
</g>
<!-- Node1&#45;&gt;Node5 -->
<g id="edge4" class="edge">
<title>Node1&#45;&gt;Node5</title>
<path fill="none" stroke="midnightblue" d="M164.5,-60.44C182.96,-55.24 202.92,-49.61 221.82,-44.29"/>
<polygon fill="midnightblue" stroke="midnightblue" points="222.91,-47.62 231.59,-41.54 221.02,-40.88 222.91,-47.62"/>
</g>
<!-- Node3 -->
<g id="node3" class="node">
<title>Node3</title>
<g id="a_node3"><a xlink:href="classsignal__easel_1_1aprs_1_1telemetry_1_1TelemetryData.html#a447c24a8880aa1098b47ad923ec33b70" target="_top" xlink:title="Get the address of the station that is sending the telemetry data.">
<polygon fill="none" stroke="black" points="430,-120.5 430,-161.5 591,-161.5 591,-120.5 430,-120.5"/>
<text text-anchor="start" x="438" y="-149.5" font-family="Helvetica,sans-Serif" font-size="10.00">signal_easel::aprs</text>
<text text-anchor="start" x="438" y="-138.5" font-family="Helvetica,sans-Serif" font-size="10.00">::telemetry::TelemetryData</text>
<text text-anchor="middle" x="510.5" y="-127.5" font-family="Helvetica,sans-Serif" font-size="10.00">::getTelemetryStationAddress</text>
</a>
</g>
</g>
<!-- Node2&#45;&gt;Node3 -->
<g id="edge2" class="edge">
<title>Node2&#45;&gt;Node3</title>
<path fill="none" stroke="midnightblue" d="M394.06,-141C402.62,-141 411.32,-141 419.9,-141"/>
<polygon fill="midnightblue" stroke="midnightblue" points="419.91,-144.5 429.91,-141 419.91,-137.5 419.91,-144.5"/>
</g>
</g>
</svg>
