<?xml version="1.0" encoding="UTF-8" standalone="no"?>
<!DOCTYPE svg PUBLIC "-//W3C//DTD SVG 1.1//EN"
 "http://www.w3.org/Graphics/SVG/1.1/DTD/svg11.dtd">
<!-- Generated by graphviz version 2.43.0 (0)
 -->
<!-- Title: signal_easel::psk::Modulator::encodeString Pages: 1 -->
<svg width="722pt" height="433pt"
 viewBox="0.00 0.00 722.00 433.00" xmlns="http://www.w3.org/2000/svg" xmlns:xlink="http://www.w3.org/1999/xlink">
<g id="graph0" class="graph" transform="scale(1 1) rotate(0) translate(4 429)">
<title>signal_easel::psk::Modulator::encodeString</title>
<!-- Node1 -->
<g id="node1" class="node">
<title>Node1</title>
<g id="a_node1"><a xlink:title=" ">
<polygon fill="#bfbfbf" stroke="black" points="0,-232.5 0,-262.5 136,-262.5 136,-232.5 0,-232.5"/>
<text text-anchor="start" x="8" y="-250.5" font-family="Helvetica,sans-Serif" font-size="10.00">signal_easel::psk::</text>
<text text-anchor="middle" x="68" y="-239.5" font-family="Helvetica,sans-Serif" font-size="10.00">Modulator::encodeString</text>
</a>
</g>
</g>
<!-- Node2 -->
<g id="node2" class="node">
<title>Node2</title>
<g id="a_node2"><a xlink:href="classsignal__easel_1_1BitStream.html#a9df75eb28c03717c9fad2d30a85de6e6" target="_top" xlink:title=" ">
<polygon fill="none" stroke="black" points="563,-328.5 563,-358.5 695,-358.5 695,-328.5 563,-328.5"/>
<text text-anchor="start" x="571" y="-346.5" font-family="Helvetica,sans-Serif" font-size="10.00">signal_easel::BitStream</text>
<text text-anchor="middle" x="629" y="-335.5" font-family="Helvetica,sans-Serif" font-size="10.00">::addBits</text>
</a>
</g>
</g>
<!-- Node1&#45;&gt;Node2 -->
<g id="edge1" class="edge">
<title>Node1&#45;&gt;Node2</title>
<path fill="none" stroke="midnightblue" d="M78.81,-262.54C94.98,-285.77 129.67,-329.45 172,-346.5 298.83,-397.57 462.08,-378.37 554.87,-360.47"/>
<polygon fill="midnightblue" stroke="midnightblue" points="555.6,-363.89 564.73,-358.52 554.24,-357.02 555.6,-363.89"/>
</g>
<!-- Node3 -->
<g id="node3" class="node">
<title>Node3</title>
<g id="a_node3"><a xlink:href="classsignal__easel_1_1psk_1_1Modulator.html#ad465eb5c136ada635cd01cdceb1dc402" target="_top" xlink:title=" ">
<polygon fill="none" stroke="black" points="172,-257.5 172,-287.5 314,-287.5 314,-257.5 172,-257.5"/>
<text text-anchor="start" x="180" y="-275.5" font-family="Helvetica,sans-Serif" font-size="10.00">signal_easel::psk::</text>
<text text-anchor="middle" x="243" y="-264.5" font-family="Helvetica,sans-Serif" font-size="10.00">Modulator::addPostamble</text>
</a>
</g>
</g>
<!-- Node1&#45;&gt;Node3 -->
<g id="edge2" class="edge">
<title>Node1&#45;&gt;Node3</title>
<path fill="none" stroke="midnightblue" d="M136.38,-257.24C144.77,-258.45 153.41,-259.7 161.96,-260.93"/>
<polygon fill="midnightblue" stroke="midnightblue" points="161.55,-264.41 171.95,-262.38 162.55,-257.48 161.55,-264.41"/>
</g>
<!-- Node7 -->
<g id="node7" class="node">
<title>Node7</title>
<g id="a_node7"><a xlink:href="classsignal__easel_1_1psk_1_1Modulator.html#a9210187601fe988d188b66ba5ee66a73" target="_top" xlink:title=" ">
<polygon fill="none" stroke="black" points="174.5,-306.5 174.5,-336.5 311.5,-336.5 311.5,-306.5 174.5,-306.5"/>
<text text-anchor="start" x="182.5" y="-324.5" font-family="Helvetica,sans-Serif" font-size="10.00">signal_easel::psk::</text>
<text text-anchor="middle" x="243" y="-313.5" font-family="Helvetica,sans-Serif" font-size="10.00">Modulator::addPreamble</text>
</a>
</g>
</g>
<!-- Node1&#45;&gt;Node7 -->
<g id="edge8" class="edge">
<title>Node1&#45;&gt;Node7</title>
<path fill="none" stroke="midnightblue" d="M97.87,-262.68C118.29,-273.13 146.46,-286.97 172,-297.5 176.44,-299.33 181.08,-301.14 185.76,-302.89"/>
<polygon fill="midnightblue" stroke="midnightblue" points="184.8,-306.27 195.39,-306.41 187.2,-299.69 184.8,-306.27"/>
</g>
<!-- Node8 -->
<g id="node8" class="node">
<title>Node8</title>
<g id="a_node8"><a xlink:href="classsignal__easel_1_1psk_1_1Modulator.html#aa18265ffb20963bce90f935ae12913bf" target="_top" xlink:title=" ">
<polygon fill="none" stroke="black" points="177,-394.5 177,-424.5 309,-424.5 309,-394.5 177,-394.5"/>
<text text-anchor="start" x="185" y="-412.5" font-family="Helvetica,sans-Serif" font-size="10.00">signal_easel::psk::</text>
<text text-anchor="middle" x="243" y="-401.5" font-family="Helvetica,sans-Serif" font-size="10.00">Modulator::addVaricode</text>
</a>
</g>
</g>
<!-- Node1&#45;&gt;Node8 -->
<g id="edge10" class="edge">
<title>Node1&#45;&gt;Node8</title>
<path fill="none" stroke="midnightblue" d="M77.29,-262.58C92.71,-289.41 128.25,-345.79 172,-379.5 177.02,-383.37 182.61,-386.84 188.38,-389.92"/>
<polygon fill="midnightblue" stroke="midnightblue" points="187.04,-393.16 197.55,-394.46 190.14,-386.89 187.04,-393.16"/>
</g>
<!-- Node9 -->
<g id="node9" class="node">
<title>Node9</title>
<g id="a_node9"><a xlink:href="classsignal__easel_1_1BitStream.html#a0b3ebc141d66bd08407e82548c24e6ec" target="_top" xlink:title=" ">
<polygon fill="none" stroke="black" points="177,-208.5 177,-238.5 309,-238.5 309,-208.5 177,-208.5"/>
<text text-anchor="start" x="185" y="-226.5" font-family="Helvetica,sans-Serif" font-size="10.00">signal_easel::BitStream</text>
<text text-anchor="middle" x="243" y="-215.5" font-family="Helvetica,sans-Serif" font-size="10.00">::clear</text>
</a>
</g>
</g>
<!-- Node1&#45;&gt;Node9 -->
<g id="edge12" class="edge">
<title>Node1&#45;&gt;Node9</title>
<path fill="none" stroke="midnightblue" d="M136.38,-238.15C146.34,-236.77 156.66,-235.34 166.77,-233.94"/>
<polygon fill="midnightblue" stroke="midnightblue" points="167.36,-237.39 176.79,-232.55 166.4,-230.45 167.36,-237.39"/>
</g>
<!-- Node10 -->
<g id="node10" class="node">
<title>Node10</title>
<g id="a_node10"><a xlink:href="classsignal__easel_1_1psk_1_1Modulator.html#a0949f7b7120c7a1b3c350681537e3181" target="_top" xlink:title=" ">
<polygon fill="none" stroke="black" points="177.5,-98.5 177.5,-128.5 308.5,-128.5 308.5,-98.5 177.5,-98.5"/>
<text text-anchor="start" x="185.5" y="-116.5" font-family="Helvetica,sans-Serif" font-size="10.00">signal_easel::psk::</text>
<text text-anchor="middle" x="243" y="-105.5" font-family="Helvetica,sans-Serif" font-size="10.00">Modulator::encodeBpsk</text>
</a>
</g>
</g>
<!-- Node1&#45;&gt;Node10 -->
<g id="edge13" class="edge">
<title>Node1&#45;&gt;Node10</title>
<path fill="none" stroke="midnightblue" d="M80.04,-232.36C97.34,-209.59 132.91,-166.46 172,-140.5 176.06,-137.8 180.43,-135.32 184.92,-133.04"/>
<polygon fill="midnightblue" stroke="midnightblue" points="186.72,-136.07 194.29,-128.66 183.75,-129.73 186.72,-136.07"/>
</g>
<!-- Node15 -->
<g id="node15" class="node">
<title>Node15</title>
<g id="a_node15"><a xlink:href="classsignal__easel_1_1psk_1_1Modulator.html#a60d1a9253af253f4b62b678b6fc2b21e" target="_top" xlink:title=" ">
<polygon fill="none" stroke="black" points="177,-150.5 177,-180.5 309,-180.5 309,-150.5 177,-150.5"/>
<text text-anchor="start" x="185" y="-168.5" font-family="Helvetica,sans-Serif" font-size="10.00">signal_easel::psk::</text>
<text text-anchor="middle" x="243" y="-157.5" font-family="Helvetica,sans-Serif" font-size="10.00">Modulator::encodeQpsk</text>
</a>
</g>
</g>
<!-- Node1&#45;&gt;Node15 -->
<g id="edge18" class="edge">
<title>Node1&#45;&gt;Node15</title>
<path fill="none" stroke="midnightblue" d="M100.73,-232.46C128.93,-219.09 170.32,-199.47 201.02,-184.92"/>
<polygon fill="midnightblue" stroke="midnightblue" points="202.64,-188.03 210.18,-180.58 199.64,-181.7 202.64,-188.03"/>
</g>
<!-- Node17 -->
<g id="node17" class="node">
<title>Node17</title>
<g id="a_node17"><a xlink:href="classsignal__easel_1_1BitStream.html#a278666dbf58a4792e4f77538ab72b4b6" target="_top" xlink:title="After adding all of the data to the bit stream, this method will write the data left in the buffer.">
<polygon fill="none" stroke="black" points="176,-49.5 176,-79.5 310,-79.5 310,-49.5 176,-49.5"/>
<text text-anchor="start" x="184" y="-67.5" font-family="Helvetica,sans-Serif" font-size="10.00">signal_easel::BitStream</text>
<text text-anchor="middle" x="243" y="-56.5" font-family="Helvetica,sans-Serif" font-size="10.00">::pushBufferToBitStream</text>
</a>
</g>
</g>
<!-- Node1&#45;&gt;Node17 -->
<g id="edge22" class="edge">
<title>Node1&#45;&gt;Node17</title>
<path fill="none" stroke="midnightblue" d="M74.75,-232.41C87.47,-201.04 120.94,-128.39 172,-88.5 173.77,-87.12 175.62,-85.81 177.54,-84.58"/>
<polygon fill="midnightblue" stroke="midnightblue" points="179.32,-87.6 186.3,-79.63 175.87,-81.5 179.32,-87.6"/>
</g>
<!-- Node4 -->
<g id="node4" class="node">
<title>Node4</title>
<g id="a_node4"><a xlink:href="classsignal__easel_1_1BitStream.html#a81d4aea4c11f65e0c2b7ad2f0f0cc312" target="_top" xlink:title=" ">
<polygon fill="none" stroke="black" points="363,-257.5 363,-287.5 495,-287.5 495,-257.5 363,-257.5"/>
<text text-anchor="start" x="371" y="-275.5" font-family="Helvetica,sans-Serif" font-size="10.00">signal_easel::BitStream</text>
<text text-anchor="middle" x="429" y="-264.5" font-family="Helvetica,sans-Serif" font-size="10.00">::addOneBit</text>
</a>
</g>
</g>
<!-- Node3&#45;&gt;Node4 -->
<g id="edge3" class="edge">
<title>Node3&#45;&gt;Node4</title>
<path fill="none" stroke="midnightblue" d="M314.09,-272.5C326.75,-272.5 340,-272.5 352.8,-272.5"/>
<polygon fill="midnightblue" stroke="midnightblue" points="352.95,-276 362.95,-272.5 352.95,-269 352.95,-276"/>
</g>
<!-- Node5 -->
<g id="node5" class="node">
<title>Node5</title>
<g id="a_node5"><a xlink:href="classsignal__easel_1_1BitStream.html#abb315beec8c4d88115d9d4ec5f082863" target="_top" xlink:title=" ">
<polygon fill="none" stroke="black" points="363,-306.5 363,-336.5 495,-336.5 495,-306.5 363,-306.5"/>
<text text-anchor="start" x="371" y="-324.5" font-family="Helvetica,sans-Serif" font-size="10.00">signal_easel::BitStream</text>
<text text-anchor="middle" x="429" y="-313.5" font-family="Helvetica,sans-Serif" font-size="10.00">::addZeroBit</text>
</a>
</g>
</g>
<!-- Node3&#45;&gt;Node5 -->
<g id="edge5" class="edge">
<title>Node3&#45;&gt;Node5</title>
<path fill="none" stroke="midnightblue" d="M300.46,-287.53C319.88,-292.71 341.81,-298.55 361.93,-303.91"/>
<polygon fill="midnightblue" stroke="midnightblue" points="361.09,-307.3 371.65,-306.49 362.89,-300.54 361.09,-307.3"/>
</g>
<!-- Node6 -->
<g id="node6" class="node">
<title>Node6</title>
<g id="a_node6"><a xlink:href="classsignal__easel_1_1BitStream.html#aa97152ef51f73088e103a7951134aa85" target="_top" xlink:title=" ">
<polygon fill="none" stroke="black" points="363,-208.5 363,-238.5 495,-238.5 495,-208.5 363,-208.5"/>
<text text-anchor="start" x="371" y="-226.5" font-family="Helvetica,sans-Serif" font-size="10.00">signal_easel::BitStream</text>
<text text-anchor="middle" x="429" y="-215.5" font-family="Helvetica,sans-Serif" font-size="10.00">::getBitStreamLength</text>
</a>
</g>
</g>
<!-- Node3&#45;&gt;Node6 -->
<g id="edge7" class="edge">
<title>Node3&#45;&gt;Node6</title>
<path fill="none" stroke="midnightblue" d="M300.46,-257.47C319.88,-252.29 341.81,-246.45 361.93,-241.09"/>
<polygon fill="midnightblue" stroke="midnightblue" points="362.89,-244.46 371.65,-238.51 361.09,-237.7 362.89,-244.46"/>
</g>
<!-- Node4&#45;&gt;Node2 -->
<g id="edge4" class="edge">
<title>Node4&#45;&gt;Node2</title>
<path fill="none" stroke="midnightblue" d="M478.41,-287.55C488.23,-290.74 498.48,-294.15 508,-297.5 532.2,-306.01 558.87,-316.16 580.91,-324.75"/>
<polygon fill="midnightblue" stroke="midnightblue" points="579.78,-328.07 590.37,-328.45 582.33,-321.55 579.78,-328.07"/>
</g>
<!-- Node5&#45;&gt;Node2 -->
<g id="edge6" class="edge">
<title>Node5&#45;&gt;Node2</title>
<path fill="none" stroke="midnightblue" d="M495.11,-328.73C513.55,-330.78 533.77,-333.03 552.76,-335.14"/>
<polygon fill="midnightblue" stroke="midnightblue" points="552.53,-338.64 562.85,-336.26 553.3,-331.68 552.53,-338.64"/>
</g>
<!-- Node7&#45;&gt;Node5 -->
<g id="edge9" class="edge">
<title>Node7&#45;&gt;Node5</title>
<path fill="none" stroke="midnightblue" d="M311.73,-321.5C325.04,-321.5 339.08,-321.5 352.62,-321.5"/>
<polygon fill="midnightblue" stroke="midnightblue" points="352.86,-325 362.86,-321.5 352.86,-318 352.86,-325"/>
</g>
<!-- Node8&#45;&gt;Node2 -->
<g id="edge11" class="edge">
<title>Node8&#45;&gt;Node2</title>
<path fill="none" stroke="midnightblue" d="M309.06,-405.35C362.81,-401.15 440.9,-393.26 508,-379.5 530.26,-374.93 554.33,-368.1 575.03,-361.61"/>
<polygon fill="midnightblue" stroke="midnightblue" points="576.13,-364.94 584.59,-358.56 574,-358.27 576.13,-364.94"/>
</g>
<!-- Node11 -->
<g id="node11" class="node">
<title>Node11</title>
<g id="a_node11"><a xlink:href="classsignal__easel_1_1psk_1_1PskWaveShaper.html#a43adb5526e215f4183ad439ca92daf1f" target="_top" xlink:title=" ">
<polygon fill="none" stroke="black" points="351.5,-49.5 351.5,-79.5 506.5,-79.5 506.5,-49.5 351.5,-49.5"/>
<text text-anchor="start" x="359.5" y="-67.5" font-family="Helvetica,sans-Serif" font-size="10.00">signal_easel::psk::</text>
<text text-anchor="middle" x="429" y="-56.5" font-family="Helvetica,sans-Serif" font-size="10.00">PskWaveShaper::addSymbol</text>
</a>
</g>
</g>
<!-- Node10&#45;&gt;Node11 -->
<g id="edge14" class="edge">
<title>Node10&#45;&gt;Node11</title>
<path fill="none" stroke="midnightblue" d="M300.46,-98.47C319.88,-93.29 341.81,-87.45 361.93,-82.09"/>
<polygon fill="midnightblue" stroke="midnightblue" points="362.89,-85.46 371.65,-79.51 361.09,-78.7 362.89,-85.46"/>
</g>
<!-- Node13 -->
<g id="node13" class="node">
<title>Node13</title>
<g id="a_node13"><a xlink:href="classsignal__easel_1_1BitStream.html#ad7b803a89b3a53ec1e4108122861a90b" target="_top" xlink:title="Returns the next bit of the bit stream without removing it.">
<polygon fill="none" stroke="black" points="363,-0.5 363,-30.5 495,-30.5 495,-0.5 363,-0.5"/>
<text text-anchor="start" x="371" y="-18.5" font-family="Helvetica,sans-Serif" font-size="10.00">signal_easel::BitStream</text>
<text text-anchor="middle" x="429" y="-7.5" font-family="Helvetica,sans-Serif" font-size="10.00">::peakNextBit</text>
</a>
</g>
</g>
<!-- Node10&#45;&gt;Node13 -->
<g id="edge16" class="edge">
<title>Node10&#45;&gt;Node13</title>
<path fill="none" stroke="midnightblue" d="M296.98,-98.47C303,-95.66 308.83,-92.35 314,-88.5 335.67,-72.36 327.97,-55.15 350,-39.5 352.12,-37.99 354.34,-36.58 356.63,-35.25"/>
<polygon fill="midnightblue" stroke="midnightblue" points="358.48,-38.23 365.78,-30.55 355.28,-32.01 358.48,-38.23"/>
</g>
<!-- Node14 -->
<g id="node14" class="node">
<title>Node14</title>
<g id="a_node14"><a xlink:href="classsignal__easel_1_1BitStream.html#a5b5339586e09ca5c25a7e9ded0118ffb" target="_top" xlink:title="Returns the next bit of the bit stream that will be encoded.">
<polygon fill="none" stroke="black" points="363,-98.5 363,-128.5 495,-128.5 495,-98.5 363,-98.5"/>
<text text-anchor="start" x="371" y="-116.5" font-family="Helvetica,sans-Serif" font-size="10.00">signal_easel::BitStream</text>
<text text-anchor="middle" x="429" y="-105.5" font-family="Helvetica,sans-Serif" font-size="10.00">::popNextBit</text>
</a>
</g>
</g>
<!-- Node10&#45;&gt;Node14 -->
<g id="edge17" class="edge">
<title>Node10&#45;&gt;Node14</title>
<path fill="none" stroke="midnightblue" d="M308.61,-113.5C322.92,-113.5 338.19,-113.5 352.87,-113.5"/>
<polygon fill="midnightblue" stroke="midnightblue" points="352.92,-117 362.92,-113.5 352.92,-110 352.92,-117"/>
</g>
<!-- Node12 -->
<g id="node12" class="node">
<title>Node12</title>
<g id="a_node12"><a xlink:href="classsignal__easel_1_1psk_1_1PskWaveShaper.html#ac4db3c5943e9f56ce1d058a2347a2438" target="_top" xlink:title="A filter to remove the sharp edges of the wave during a phase change.">
<polygon fill="none" stroke="black" points="544,-49.5 544,-79.5 714,-79.5 714,-49.5 544,-49.5"/>
<text text-anchor="start" x="552" y="-67.5" font-family="Helvetica,sans-Serif" font-size="10.00">signal_easel::psk::</text>
<text text-anchor="middle" x="629" y="-56.5" font-family="Helvetica,sans-Serif" font-size="10.00">PskWaveShaper::envelopeFilter</text>
</a>
</g>
</g>
<!-- Node11&#45;&gt;Node12 -->
<g id="edge15" class="edge">
<title>Node11&#45;&gt;Node12</title>
<path fill="none" stroke="midnightblue" d="M506.55,-64.5C515.41,-64.5 524.52,-64.5 533.57,-64.5"/>
<polygon fill="midnightblue" stroke="midnightblue" points="533.76,-68 543.76,-64.5 533.76,-61 533.76,-68"/>
</g>
<!-- Node15&#45;&gt;Node11 -->
<g id="edge19" class="edge">
<title>Node15&#45;&gt;Node11</title>
<path fill="none" stroke="midnightblue" d="M292.25,-150.36C299.93,-146.81 307.48,-142.55 314,-137.5 335.37,-120.96 327.97,-104.15 350,-88.5 352.12,-86.99 354.34,-85.58 356.63,-84.25"/>
<polygon fill="midnightblue" stroke="midnightblue" points="358.48,-87.23 365.78,-79.55 355.28,-81.01 358.48,-87.23"/>
</g>
<!-- Node15&#45;&gt;Node14 -->
<g id="edge21" class="edge">
<title>Node15&#45;&gt;Node14</title>
<path fill="none" stroke="midnightblue" d="M297.22,-150.46C318.49,-144.45 343.13,-137.48 365.26,-131.23"/>
<polygon fill="midnightblue" stroke="midnightblue" points="366.23,-134.59 374.9,-128.51 364.32,-127.86 366.23,-134.59"/>
</g>
<!-- Node16 -->
<g id="node16" class="node">
<title>Node16</title>
<g id="a_node16"><a xlink:href="namespacesignal__easel_1_1psk.html#a104a25083c06056bf0c5cf7d9226f73d" target="_top" xlink:title="Shift the provided phase with the convolutional code.">
<polygon fill="none" stroke="black" points="350,-148 350,-189 508,-189 508,-148 350,-148"/>
<text text-anchor="start" x="358" y="-177" font-family="Helvetica,sans-Serif" font-size="10.00">signal_easel::psk::</text>
<text text-anchor="start" x="358" y="-166" font-family="Helvetica,sans-Serif" font-size="10.00">getShiftedConvolutionalCode</text>
<text text-anchor="middle" x="429" y="-155" font-family="Helvetica,sans-Serif" font-size="10.00">Phase</text>
</a>
</g>
</g>
<!-- Node15&#45;&gt;Node16 -->
<g id="edge20" class="edge">
<title>Node15&#45;&gt;Node16</title>
<path fill="none" stroke="midnightblue" d="M309.13,-166.56C318.98,-166.72 329.27,-166.89 339.51,-167.06"/>
<polygon fill="midnightblue" stroke="midnightblue" points="339.66,-170.56 349.71,-167.22 339.77,-163.56 339.66,-170.56"/>
</g>
</g>
</svg>
