<?xml version="1.0" encoding="UTF-8" standalone="no"?>
<!DOCTYPE svg PUBLIC "-//W3C//DTD SVG 1.1//EN"
 "http://www.w3.org/Graphics/SVG/1.1/DTD/svg11.dtd">
<!-- Generated by graphviz version 2.43.0 (0)
 -->
<!-- Title: signal_easel::PulseAudioReader Pages: 1 -->
<svg width="572pt" height="303pt"
 viewBox="0.00 0.00 571.50 303.00" xmlns="http://www.w3.org/2000/svg" xmlns:xlink="http://www.w3.org/1999/xlink">
<g id="graph0" class="graph" transform="scale(1 1) rotate(0) translate(4 299)">
<title>signal_easel::PulseAudioReader</title>
<!-- Node1 -->
<g id="node1" class="node">
<title>Node1</title>
<g id="a_node1"><a xlink:title=" ">
<polygon fill="#bfbfbf" stroke="black" points="190.5,-0.5 190.5,-178.5 327.5,-178.5 327.5,-0.5 190.5,-0.5"/>
<text text-anchor="start" x="198.5" y="-166.5" font-family="Helvetica,sans-Serif" font-size="10.00">signal_easel::PulseAudio</text>
<text text-anchor="middle" x="259" y="-155.5" font-family="Helvetica,sans-Serif" font-size="10.00">Reader</text>
<polyline fill="none" stroke="black" points="190.5,-148.5 327.5,-148.5 "/>
<text text-anchor="middle" x="259" y="-136.5" font-family="Helvetica,sans-Serif" font-size="10.00"> </text>
<polyline fill="none" stroke="black" points="190.5,-129.5 327.5,-129.5 "/>
<text text-anchor="start" x="198.5" y="-117.5" font-family="Helvetica,sans-Serif" font-size="10.00">+ PulseAudioReader()</text>
<text text-anchor="start" x="198.5" y="-106.5" font-family="Helvetica,sans-Serif" font-size="10.00">+ PulseAudioReader()</text>
<text text-anchor="start" x="198.5" y="-95.5" font-family="Helvetica,sans-Serif" font-size="10.00">+ PulseAudioReader()</text>
<text text-anchor="start" x="198.5" y="-84.5" font-family="Helvetica,sans-Serif" font-size="10.00">+ ~PulseAudioReader()</text>
<text text-anchor="start" x="198.5" y="-73.5" font-family="Helvetica,sans-Serif" font-size="10.00">+ getAudioBuffer()</text>
<text text-anchor="start" x="198.5" y="-62.5" font-family="Helvetica,sans-Serif" font-size="10.00">+ getLatency()</text>
<text text-anchor="start" x="198.5" y="-51.5" font-family="Helvetica,sans-Serif" font-size="10.00">+ getRms()</text>
<text text-anchor="start" x="198.5" y="-40.5" font-family="Helvetica,sans-Serif" font-size="10.00">+ getVolume()</text>
<text text-anchor="start" x="198.5" y="-29.5" font-family="Helvetica,sans-Serif" font-size="10.00">+ operator=()</text>
<text text-anchor="start" x="198.5" y="-18.5" font-family="Helvetica,sans-Serif" font-size="10.00">+ operator=()</text>
<text text-anchor="start" x="198.5" y="-7.5" font-family="Helvetica,sans-Serif" font-size="10.00">+ process()</text>
</a>
</g>
</g>
<!-- Node2 -->
<g id="node2" class="node">
<title>Node2</title>
<g id="a_node2"><a xlink:title=" ">
<polygon fill="none" stroke="#bfbfbf" points="0,-232 0,-289 50,-289 50,-232 0,-232"/>
<text text-anchor="middle" x="25" y="-277" font-family="Helvetica,sans-Serif" font-size="10.00">double</text>
<polyline fill="none" stroke="#bfbfbf" points="0,-270 50,-270 "/>
<text text-anchor="middle" x="25" y="-258" font-family="Helvetica,sans-Serif" font-size="10.00"> </text>
<polyline fill="none" stroke="#bfbfbf" points="0,-251 50,-251 "/>
<text text-anchor="middle" x="25" y="-239" font-family="Helvetica,sans-Serif" font-size="10.00"> </text>
</a>
</g>
</g>
<!-- Node2&#45;&gt;Node1 -->
<g id="edge1" class="edge">
<title>Node2&#45;&gt;Node1</title>
<path fill="none" stroke="#404040" d="M50.32,-233.94C53.21,-231.21 56.14,-228.52 59,-226 96.13,-193.34 141.49,-162.02 179.62,-137.73"/>
<polygon fill="none" stroke="#404040" points="180.02,-137.48 182.96,-130.89 190.17,-131.07 187.23,-137.66 180.02,-137.48"/>
<text text-anchor="middle" x="114.5" y="-200" font-family="Helvetica,sans-Serif" font-size="10.00"> &#45;volume_</text>
</g>
<!-- Node3 -->
<g id="node3" class="node">
<title>Node3</title>
<g id="a_node3"><a xlink:title=" ">
<polygon fill="none" stroke="#bfbfbf" points="68,-232 68,-289 124,-289 124,-232 68,-232"/>
<text text-anchor="middle" x="96" y="-277" font-family="Helvetica,sans-Serif" font-size="10.00">uint64_t</text>
<polyline fill="none" stroke="#bfbfbf" points="68,-270 124,-270 "/>
<text text-anchor="middle" x="96" y="-258" font-family="Helvetica,sans-Serif" font-size="10.00"> </text>
<polyline fill="none" stroke="#bfbfbf" points="68,-251 124,-251 "/>
<text text-anchor="middle" x="96" y="-239" font-family="Helvetica,sans-Serif" font-size="10.00"> </text>
</a>
</g>
</g>
<!-- Node3&#45;&gt;Node1 -->
<g id="edge2" class="edge">
<title>Node3&#45;&gt;Node1</title>
<path fill="none" stroke="#404040" d="M122.55,-231.97C138.8,-215.13 160.5,-192.63 181.8,-170.54"/>
<polygon fill="none" stroke="#404040" points="181.92,-170.41 183.21,-163.32 190.25,-161.78 188.97,-168.87 181.92,-170.41"/>
<text text-anchor="middle" x="169.5" y="-200" font-family="Helvetica,sans-Serif" font-size="10.00"> &#45;rms_</text>
</g>
<!-- Node4 -->
<g id="node4" class="node">
<title>Node4</title>
<g id="a_node4"><a xlink:title=" ">
<polygon fill="none" stroke="#bfbfbf" points="142,-232 142,-289 240,-289 240,-232 142,-232"/>
<text text-anchor="middle" x="191" y="-277" font-family="Helvetica,sans-Serif" font-size="10.00">pa_sample_spec</text>
<polyline fill="none" stroke="#bfbfbf" points="142,-270 240,-270 "/>
<text text-anchor="middle" x="191" y="-258" font-family="Helvetica,sans-Serif" font-size="10.00"> </text>
<polyline fill="none" stroke="#bfbfbf" points="142,-251 240,-251 "/>
<text text-anchor="middle" x="191" y="-239" font-family="Helvetica,sans-Serif" font-size="10.00"> </text>
</a>
</g>
</g>
<!-- Node4&#45;&gt;Node1 -->
<g id="edge3" class="edge">
<title>Node4&#45;&gt;Node1</title>
<path fill="none" stroke="#404040" d="M202.08,-231.97C206.86,-220.08 212.78,-205.37 218.97,-189.98"/>
<polygon fill="none" stroke="#404040" points="219.04,-189.81 217.57,-182.75 223.52,-178.68 224.99,-185.74 219.04,-189.81"/>
<text text-anchor="middle" x="225.5" y="-200" font-family="Helvetica,sans-Serif" font-size="10.00"> &#45;ss_</text>
</g>
<!-- Node5 -->
<g id="node5" class="node">
<title>Node5</title>
<g id="a_node5"><a xlink:title=" ">
<polygon fill="none" stroke="#bfbfbf" points="258.5,-226.5 258.5,-294.5 395.5,-294.5 395.5,-226.5 258.5,-226.5"/>
<text text-anchor="start" x="266.5" y="-282.5" font-family="Helvetica,sans-Serif" font-size="10.00">array&lt; int16_t, PULSE</text>
<text text-anchor="middle" x="327" y="-271.5" font-family="Helvetica,sans-Serif" font-size="10.00">_AUDIO_BUFFER_SIZE &gt;</text>
<polyline fill="none" stroke="#bfbfbf" points="258.5,-264.5 395.5,-264.5 "/>
<text text-anchor="middle" x="327" y="-252.5" font-family="Helvetica,sans-Serif" font-size="10.00"> </text>
<polyline fill="none" stroke="#bfbfbf" points="258.5,-245.5 395.5,-245.5 "/>
<text text-anchor="middle" x="327" y="-233.5" font-family="Helvetica,sans-Serif" font-size="10.00"> </text>
</a>
</g>
</g>
<!-- Node5&#45;&gt;Node1 -->
<g id="edge4" class="edge">
<title>Node5&#45;&gt;Node1</title>
<path fill="none" stroke="#404040" d="M313.57,-226.11C309.28,-215.47 304.31,-203.1 299.13,-190.24"/>
<polygon fill="none" stroke="#404040" points="299.03,-189.98 293.08,-185.91 294.55,-178.85 300.5,-182.92 299.03,-189.98"/>
<text text-anchor="middle" x="341.5" y="-200" font-family="Helvetica,sans-Serif" font-size="10.00"> &#45;audio_buffer_</text>
</g>
<!-- Node6 -->
<g id="node6" class="node">
<title>Node6</title>
<g id="a_node6"><a xlink:title=" ">
<polygon fill="none" stroke="#bfbfbf" points="414,-232 414,-289 470,-289 470,-232 414,-232"/>
<text text-anchor="middle" x="442" y="-277" font-family="Helvetica,sans-Serif" font-size="10.00">uint32_t</text>
<polyline fill="none" stroke="#bfbfbf" points="414,-270 470,-270 "/>
<text text-anchor="middle" x="442" y="-258" font-family="Helvetica,sans-Serif" font-size="10.00"> </text>
<polyline fill="none" stroke="#bfbfbf" points="414,-251 470,-251 "/>
<text text-anchor="middle" x="442" y="-239" font-family="Helvetica,sans-Serif" font-size="10.00"> </text>
</a>
</g>
</g>
<!-- Node6&#45;&gt;Node1 -->
<g id="edge5" class="edge">
<title>Node6&#45;&gt;Node1</title>
<path fill="none" stroke="#404040" d="M416.54,-231.89C406.07,-220.82 393.67,-208.08 382,-197 367.75,-183.47 352.17,-169.43 337.02,-156.15"/>
<polygon fill="none" stroke="#404040" points="336.71,-155.88 329.56,-154.95 327.66,-148 334.82,-148.92 336.71,-155.88"/>
<text text-anchor="middle" x="416.5" y="-200" font-family="Helvetica,sans-Serif" font-size="10.00"> &#45;latency_</text>
</g>
<!-- Node7 -->
<g id="node7" class="node">
<title>Node7</title>
<g id="a_node7"><a xlink:title=" ">
<polygon fill="none" stroke="#bfbfbf" points="488.5,-232 488.5,-289 563.5,-289 563.5,-232 488.5,-232"/>
<text text-anchor="middle" x="526" y="-277" font-family="Helvetica,sans-Serif" font-size="10.00">pa_simple *</text>
<polyline fill="none" stroke="#bfbfbf" points="488.5,-270 563.5,-270 "/>
<text text-anchor="middle" x="526" y="-258" font-family="Helvetica,sans-Serif" font-size="10.00"> </text>
<polyline fill="none" stroke="#bfbfbf" points="488.5,-251 563.5,-251 "/>
<text text-anchor="middle" x="526" y="-239" font-family="Helvetica,sans-Serif" font-size="10.00"> </text>
</a>
</g>
</g>
<!-- Node7&#45;&gt;Node1 -->
<g id="edge6" class="edge">
<title>Node7&#45;&gt;Node1</title>
<path fill="none" stroke="#404040" d="M492.48,-231.98C478.18,-220.68 461.1,-207.75 445,-197 411.07,-174.35 372.09,-151.57 338.6,-132.92"/>
<polygon fill="none" stroke="#404040" points="338.44,-132.83 331.25,-133.42 327.94,-127.02 335.13,-126.42 338.44,-132.83"/>
<text text-anchor="middle" x="467" y="-200" font-family="Helvetica,sans-Serif" font-size="10.00"> &#45;s_</text>
</g>
</g>
</svg>
