<?xml version="1.0" encoding="UTF-8" standalone="no"?>
<!DOCTYPE svg PUBLIC "-//W3C//DTD SVG 1.1//EN"
 "http://www.w3.org/Graphics/SVG/1.1/DTD/svg11.dtd">
<!-- Generated by graphviz version 2.43.0 (0)
 -->
<!-- Title: signal_easel::ax25::Frame::getDestinationAddress Pages: 1 -->
<svg width="939pt" height="230pt"
 viewBox="0.00 0.00 939.00 230.00" xmlns="http://www.w3.org/2000/svg" xmlns:xlink="http://www.w3.org/1999/xlink">
<g id="graph0" class="graph" transform="scale(1 1) rotate(0) translate(4 226)">
<title>signal_easel::ax25::Frame::getDestinationAddress</title>
<!-- Node1 -->
<g id="node1" class="node">
<title>Node1</title>
<g id="a_node1"><a xlink:title=" ">
<polygon fill="#bfbfbf" stroke="black" points="761,-96 761,-126 931,-126 931,-96 761,-96"/>
<text text-anchor="start" x="769" y="-114" font-family="Helvetica,sans-Serif" font-size="10.00">signal_easel::ax25</text>
<text text-anchor="middle" x="846" y="-103" font-family="Helvetica,sans-Serif" font-size="10.00">::Frame::getDestinationAddress</text>
</a>
</g>
</g>
<!-- Node2 -->
<g id="node2" class="node">
<title>Node2</title>
<g id="a_node2"><a xlink:href="classsignal__easel_1_1aprs_1_1Demodulator.html#af7459f32656249c73e0b957dfe13bf2f" target="_top" xlink:title=" ">
<polygon fill="none" stroke="black" points="552,-90.5 552,-131.5 725,-131.5 725,-90.5 552,-90.5"/>
<text text-anchor="start" x="560" y="-119.5" font-family="Helvetica,sans-Serif" font-size="10.00">signal_easel::aprs</text>
<text text-anchor="start" x="560" y="-108.5" font-family="Helvetica,sans-Serif" font-size="10.00">::Demodulator::populateGeneric</text>
<text text-anchor="middle" x="638.5" y="-97.5" font-family="Helvetica,sans-Serif" font-size="10.00">Fields</text>
</a>
</g>
</g>
<!-- Node1&#45;&gt;Node2 -->
<g id="edge1" class="edge">
<title>Node1&#45;&gt;Node2</title>
<path fill="none" stroke="midnightblue" d="M750.56,-111C742.11,-111 733.58,-111 725.21,-111"/>
<polygon fill="midnightblue" stroke="midnightblue" points="750.82,-114.5 760.82,-111 750.82,-107.5 750.82,-114.5"/>
</g>
<!-- Node3 -->
<g id="node3" class="node">
<title>Node3</title>
<g id="a_node3"><a xlink:href="classsignal__easel_1_1aprs_1_1Demodulator.html#a75e60a65289d36d717431705ed142be7" target="_top" xlink:title=" ">
<polygon fill="none" stroke="black" points="331,-120.5 331,-161.5 516,-161.5 516,-120.5 331,-120.5"/>
<text text-anchor="start" x="339" y="-149.5" font-family="Helvetica,sans-Serif" font-size="10.00">signal_easel::aprs</text>
<text text-anchor="start" x="339" y="-138.5" font-family="Helvetica,sans-Serif" font-size="10.00">::Demodulator::parseExperimental</text>
<text text-anchor="middle" x="423.5" y="-127.5" font-family="Helvetica,sans-Serif" font-size="10.00">Packet</text>
</a>
</g>
</g>
<!-- Node2&#45;&gt;Node3 -->
<g id="edge2" class="edge">
<title>Node2&#45;&gt;Node3</title>
<path fill="none" stroke="midnightblue" d="M541.87,-124.47C533.37,-125.67 524.77,-126.88 516.31,-128.07"/>
<polygon fill="midnightblue" stroke="midnightblue" points="542.37,-127.93 551.79,-123.07 541.4,-121 542.37,-127.93"/>
</g>
<!-- Node7 -->
<g id="node7" class="node">
<title>Node7</title>
<g id="a_node7"><a xlink:href="classsignal__easel_1_1aprs_1_1Demodulator.html#a8ea92084a8f961d7a11200652516177d" target="_top" xlink:title="If the packet was a message packet, this function will try to parse the packet into a message packet.">
<polygon fill="none" stroke="black" points="342,-180.5 342,-221.5 505,-221.5 505,-180.5 342,-180.5"/>
<text text-anchor="start" x="350" y="-209.5" font-family="Helvetica,sans-Serif" font-size="10.00">signal_easel::aprs</text>
<text text-anchor="start" x="350" y="-198.5" font-family="Helvetica,sans-Serif" font-size="10.00">::Demodulator::parseMessage</text>
<text text-anchor="middle" x="423.5" y="-187.5" font-family="Helvetica,sans-Serif" font-size="10.00">Packet</text>
</a>
</g>
</g>
<!-- Node2&#45;&gt;Node7 -->
<g id="edge6" class="edge">
<title>Node2&#45;&gt;Node7</title>
<path fill="none" stroke="midnightblue" d="M590.4,-136.2C568.17,-147.59 541.08,-160.76 516,-171 507.95,-174.29 499.4,-177.48 490.88,-180.47"/>
<polygon fill="midnightblue" stroke="midnightblue" points="592.01,-139.31 599.29,-131.61 588.8,-133.09 592.01,-139.31"/>
</g>
<!-- Node9 -->
<g id="node9" class="node">
<title>Node9</title>
<g id="a_node9"><a xlink:href="classsignal__easel_1_1aprs_1_1Demodulator.html#a285cd33e16fa28925fe2acd3fe5029fb" target="_top" xlink:title="If the packet was a position packet, this function will try to parse the packet into it&#39;s positional ...">
<polygon fill="none" stroke="black" points="344.5,-60.5 344.5,-101.5 502.5,-101.5 502.5,-60.5 344.5,-60.5"/>
<text text-anchor="start" x="352.5" y="-89.5" font-family="Helvetica,sans-Serif" font-size="10.00">signal_easel::aprs</text>
<text text-anchor="start" x="352.5" y="-78.5" font-family="Helvetica,sans-Serif" font-size="10.00">::Demodulator::parsePosition</text>
<text text-anchor="middle" x="423.5" y="-67.5" font-family="Helvetica,sans-Serif" font-size="10.00">Packet</text>
</a>
</g>
</g>
<!-- Node2&#45;&gt;Node9 -->
<g id="edge9" class="edge">
<title>Node2&#45;&gt;Node9</title>
<path fill="none" stroke="midnightblue" d="M541.85,-97.53C528.79,-95.69 515.51,-93.82 502.81,-92.03"/>
<polygon fill="midnightblue" stroke="midnightblue" points="541.4,-101 551.79,-98.93 542.37,-94.07 541.4,-101"/>
</g>
<!-- Node11 -->
<g id="node11" class="node">
<title>Node11</title>
<g id="a_node11"><a xlink:href="classsignal__easel_1_1aprs_1_1Demodulator.html#a97af61f7afb63db275020ba523abcc3a" target="_top" xlink:title="If the packet was a telemetry packet, this function will try to parse the packet and populate the tel...">
<polygon fill="none" stroke="black" points="339.5,-0.5 339.5,-41.5 507.5,-41.5 507.5,-0.5 339.5,-0.5"/>
<text text-anchor="start" x="347.5" y="-29.5" font-family="Helvetica,sans-Serif" font-size="10.00">signal_easel::aprs</text>
<text text-anchor="start" x="347.5" y="-18.5" font-family="Helvetica,sans-Serif" font-size="10.00">::Demodulator::parseTelemetry</text>
<text text-anchor="middle" x="423.5" y="-7.5" font-family="Helvetica,sans-Serif" font-size="10.00">Packet</text>
</a>
</g>
</g>
<!-- Node2&#45;&gt;Node11 -->
<g id="edge12" class="edge">
<title>Node2&#45;&gt;Node11</title>
<path fill="none" stroke="midnightblue" d="M590.4,-85.8C568.17,-74.41 541.08,-61.24 516,-51 507.95,-47.71 499.4,-44.52 490.88,-41.53"/>
<polygon fill="midnightblue" stroke="midnightblue" points="588.8,-88.91 599.29,-90.39 592.01,-82.69 588.8,-88.91"/>
</g>
<!-- Node4 -->
<g id="node4" class="node">
<title>Node4</title>
<g id="a_node4"><a xlink:href="classsignal__easel_1_1aprs_1_1Receiver.html#adc3c303795edba521a1e55e454ba610d" target="_top" xlink:title="Categorises and stores a frame that has already been parsed by aprs_demodulator_ (i....">
<polygon fill="none" stroke="black" points="143,-90.5 143,-131.5 295,-131.5 295,-90.5 143,-90.5"/>
<text text-anchor="start" x="151" y="-119.5" font-family="Helvetica,sans-Serif" font-size="10.00">signal_easel::aprs</text>
<text text-anchor="start" x="151" y="-108.5" font-family="Helvetica,sans-Serif" font-size="10.00">::Receiver::processDecoded</text>
<text text-anchor="middle" x="219" y="-97.5" font-family="Helvetica,sans-Serif" font-size="10.00">Frame</text>
</a>
</g>
</g>
<!-- Node3&#45;&gt;Node4 -->
<g id="edge3" class="edge">
<title>Node3&#45;&gt;Node4</title>
<path fill="none" stroke="midnightblue" d="M320.64,-125.91C312.03,-124.63 303.43,-123.36 295.08,-122.12"/>
<polygon fill="midnightblue" stroke="midnightblue" points="320.32,-129.4 330.73,-127.4 321.35,-122.48 320.32,-129.4"/>
</g>
<!-- Node6 -->
<g id="node6" class="node">
<title>Node6</title>
<g id="a_node6"><a xlink:href="aprs__test_8cpp.html#a94163b9a63db7738e0cf4c49259e1565" target="_top" xlink:title=" ">
<polygon fill="none" stroke="black" points="198.5,-150.5 198.5,-169.5 239.5,-169.5 239.5,-150.5 198.5,-150.5"/>
<text text-anchor="middle" x="219" y="-157.5" font-family="Helvetica,sans-Serif" font-size="10.00">TEST</text>
</a>
</g>
</g>
<!-- Node3&#45;&gt;Node6 -->
<g id="edge5" class="edge">
<title>Node3&#45;&gt;Node6</title>
<path fill="none" stroke="midnightblue" d="M320.71,-150.55C289.8,-153.45 258.97,-156.34 239.72,-158.15"/>
<polygon fill="midnightblue" stroke="midnightblue" points="321.1,-154.03 330.73,-149.61 320.45,-147.06 321.1,-154.03"/>
</g>
<!-- Node5 -->
<g id="node5" class="node">
<title>Node5</title>
<g id="a_node5"><a xlink:href="classsignal__easel_1_1aprs_1_1Receiver.html#afbf7869aceaf2ea7ab0be8b9af16e818" target="_top" xlink:title=" ">
<polygon fill="none" stroke="black" points="0,-96 0,-126 107,-126 107,-96 0,-96"/>
<text text-anchor="start" x="8" y="-114" font-family="Helvetica,sans-Serif" font-size="10.00">signal_easel::aprs</text>
<text text-anchor="middle" x="53.5" y="-103" font-family="Helvetica,sans-Serif" font-size="10.00">::Receiver::decode</text>
</a>
</g>
</g>
<!-- Node4&#45;&gt;Node5 -->
<g id="edge4" class="edge">
<title>Node4&#45;&gt;Node5</title>
<path fill="none" stroke="midnightblue" d="M132.73,-111C124.02,-111 115.37,-111 107.16,-111"/>
<polygon fill="midnightblue" stroke="midnightblue" points="132.95,-114.5 142.95,-111 132.95,-107.5 132.95,-114.5"/>
</g>
<!-- Node7&#45;&gt;Node4 -->
<g id="edge7" class="edge">
<title>Node7&#45;&gt;Node4</title>
<path fill="none" stroke="midnightblue" d="M341.68,-176.43C338.02,-174.71 334.44,-172.9 331,-171 312.78,-160.91 312.89,-151.67 295,-141 289.34,-137.62 283.23,-134.48 277.02,-131.59"/>
<polygon fill="midnightblue" stroke="midnightblue" points="340.37,-179.67 350.94,-180.49 343.19,-173.26 340.37,-179.67"/>
</g>
<!-- Node8 -->
<g id="node8" class="node">
<title>Node8</title>
<g id="a_node8"><a xlink:href="aprs__test_8cpp.html#aea66d1824e3f1e27598adf99ac6a089a" target="_top" xlink:title=" ">
<polygon fill="none" stroke="black" points="198.5,-191.5 198.5,-210.5 239.5,-210.5 239.5,-191.5 198.5,-191.5"/>
<text text-anchor="middle" x="219" y="-198.5" font-family="Helvetica,sans-Serif" font-size="10.00">TEST</text>
</a>
</g>
</g>
<!-- Node7&#45;&gt;Node8 -->
<g id="edge8" class="edge">
<title>Node7&#45;&gt;Node8</title>
<path fill="none" stroke="midnightblue" d="M331.76,-201C297.35,-201 261.3,-201 239.75,-201"/>
<polygon fill="midnightblue" stroke="midnightblue" points="331.88,-204.5 341.88,-201 331.88,-197.5 331.88,-204.5"/>
</g>
<!-- Node9&#45;&gt;Node4 -->
<g id="edge10" class="edge">
<title>Node9&#45;&gt;Node4</title>
<path fill="none" stroke="midnightblue" d="M334.56,-94.03C321.48,-95.97 308.09,-97.95 295.3,-99.85"/>
<polygon fill="midnightblue" stroke="midnightblue" points="335.12,-97.48 344.5,-92.56 334.09,-90.56 335.12,-97.48"/>
</g>
<!-- Node10 -->
<g id="node10" class="node">
<title>Node10</title>
<g id="a_node10"><a xlink:href="aprs__test_8cpp.html#a8f1884a85326fa2424719d09dd551947" target="_top" xlink:title=" ">
<polygon fill="none" stroke="black" points="198.5,-52.5 198.5,-71.5 239.5,-71.5 239.5,-52.5 198.5,-52.5"/>
<text text-anchor="middle" x="219" y="-59.5" font-family="Helvetica,sans-Serif" font-size="10.00">TEST</text>
</a>
</g>
</g>
<!-- Node9&#45;&gt;Node10 -->
<g id="edge11" class="edge">
<title>Node9&#45;&gt;Node10</title>
<path fill="none" stroke="midnightblue" d="M334.19,-72.71C299.13,-69.42 261.97,-65.94 239.89,-63.87"/>
<polygon fill="midnightblue" stroke="midnightblue" points="334.21,-76.23 344.5,-73.68 334.87,-69.26 334.21,-76.23"/>
</g>
<!-- Node11&#45;&gt;Node4 -->
<g id="edge13" class="edge">
<title>Node11&#45;&gt;Node4</title>
<path fill="none" stroke="midnightblue" d="M341.68,-45.57C338.02,-47.29 334.44,-49.1 331,-51 312.78,-61.09 312.89,-70.33 295,-81 289.34,-84.38 283.23,-87.52 277.02,-90.41"/>
<polygon fill="midnightblue" stroke="midnightblue" points="343.19,-48.74 350.94,-41.51 340.37,-42.33 343.19,-48.74"/>
</g>
<!-- Node12 -->
<g id="node12" class="node">
<title>Node12</title>
<g id="a_node12"><a xlink:href="aprs__test_8cpp.html#a8de4b7853d7e8c5ad2bb05a656082327" target="_top" xlink:title=" ">
<polygon fill="none" stroke="black" points="198.5,-11.5 198.5,-30.5 239.5,-30.5 239.5,-11.5 198.5,-11.5"/>
<text text-anchor="middle" x="219" y="-18.5" font-family="Helvetica,sans-Serif" font-size="10.00">TEST</text>
</a>
</g>
</g>
<!-- Node11&#45;&gt;Node12 -->
<g id="edge14" class="edge">
<title>Node11&#45;&gt;Node12</title>
<path fill="none" stroke="midnightblue" d="M328.88,-21C295.27,-21 260.53,-21 239.59,-21"/>
<polygon fill="midnightblue" stroke="midnightblue" points="329.26,-24.5 339.26,-21 329.26,-17.5 329.26,-24.5"/>
</g>
</g>
</svg>
