<?xml version="1.0" encoding="UTF-8" standalone="no"?>
<!DOCTYPE svg PUBLIC "-//W3C//DTD SVG 1.1//EN"
 "http://www.w3.org/Graphics/SVG/1.1/DTD/svg11.dtd">
<!-- Generated by graphviz version 2.43.0 (0)
 -->
<!-- Title: signal_easel::aprs::telemetry::TelemetryData::getDigitalParametersConst Pages: 1 -->
<svg width="708pt" height="230pt"
 viewBox="0.00 0.00 708.00 230.00" xmlns="http://www.w3.org/2000/svg" xmlns:xlink="http://www.w3.org/1999/xlink">
<g id="graph0" class="graph" transform="scale(1 1) rotate(0) translate(4 226)">
<title>signal_easel::aprs::telemetry::TelemetryData::getDigitalParametersConst</title>
<!-- Node1 -->
<g id="node1" class="node">
<title>Node1</title>
<g id="a_node1"><a xlink:title=" ">
<polygon fill="#bfbfbf" stroke="black" points="546,-90.5 546,-131.5 700,-131.5 700,-90.5 546,-90.5"/>
<text text-anchor="start" x="554" y="-119.5" font-family="Helvetica,sans-Serif" font-size="10.00">signal_easel::aprs</text>
<text text-anchor="start" x="554" y="-108.5" font-family="Helvetica,sans-Serif" font-size="10.00">::telemetry::TelemetryData</text>
<text text-anchor="middle" x="623" y="-97.5" font-family="Helvetica,sans-Serif" font-size="10.00">::getDigitalParametersConst</text>
</a>
</g>
</g>
<!-- Node2 -->
<g id="node2" class="node">
<title>Node2</title>
<g id="a_node2"><a xlink:href="classsignal__easel_1_1aprs_1_1telemetry_1_1TelemetryTranscoder.html#a51e875c6aae69befbefc51fc8787454e" target="_top" xlink:title="Encodes the bit sense and project name into a message.">
<polygon fill="none" stroke="black" points="331,-180.5 331,-221.5 508,-221.5 508,-180.5 331,-180.5"/>
<text text-anchor="start" x="339" y="-209.5" font-family="Helvetica,sans-Serif" font-size="10.00">signal_easel::aprs</text>
<text text-anchor="start" x="339" y="-198.5" font-family="Helvetica,sans-Serif" font-size="10.00">::telemetry::TelemetryTranscoder</text>
<text text-anchor="middle" x="419.5" y="-187.5" font-family="Helvetica,sans-Serif" font-size="10.00">::encodeBitSenseMessage</text>
</a>
</g>
</g>
<!-- Node1&#45;&gt;Node2 -->
<g id="edge1" class="edge">
<title>Node1&#45;&gt;Node2</title>
<path fill="none" stroke="midnightblue" d="M578.22,-136.67C557.87,-148.02 533.11,-161.02 510,-171 502.33,-174.31 494.16,-177.5 486,-180.47"/>
<polygon fill="midnightblue" stroke="midnightblue" points="579.95,-139.71 586.94,-131.75 576.51,-133.61 579.95,-139.71"/>
</g>
<!-- Node5 -->
<g id="node5" class="node">
<title>Node5</title>
<g id="a_node5"><a xlink:href="classsignal__easel_1_1aprs_1_1telemetry_1_1TelemetryTranscoder.html#ae5d6a4f37c1a561ae6be756dfef2f838" target="_top" xlink:title="Encodes the parameter data into a data report message.">
<polygon fill="none" stroke="black" points="331,-120.5 331,-161.5 508,-161.5 508,-120.5 331,-120.5"/>
<text text-anchor="start" x="339" y="-149.5" font-family="Helvetica,sans-Serif" font-size="10.00">signal_easel::aprs</text>
<text text-anchor="start" x="339" y="-138.5" font-family="Helvetica,sans-Serif" font-size="10.00">::telemetry::TelemetryTranscoder</text>
<text text-anchor="middle" x="419.5" y="-127.5" font-family="Helvetica,sans-Serif" font-size="10.00">::encodeDataReportMessage</text>
</a>
</g>
</g>
<!-- Node1&#45;&gt;Node5 -->
<g id="edge4" class="edge">
<title>Node1&#45;&gt;Node5</title>
<path fill="none" stroke="midnightblue" d="M535.67,-123.85C526.6,-125.2 517.37,-126.58 508.28,-127.93"/>
<polygon fill="midnightblue" stroke="midnightblue" points="536.45,-127.28 545.82,-122.34 535.42,-120.35 536.45,-127.28"/>
</g>
<!-- Node6 -->
<g id="node6" class="node">
<title>Node6</title>
<g id="a_node6"><a xlink:href="classsignal__easel_1_1aprs_1_1telemetry_1_1TelemetryTranscoder.html#a31185ab0ef295b51409170c1b7d5f880" target="_top" xlink:title="Encodes the parameter names into a message.">
<polygon fill="none" stroke="black" points="329,-60.5 329,-101.5 510,-101.5 510,-60.5 329,-60.5"/>
<text text-anchor="start" x="337" y="-89.5" font-family="Helvetica,sans-Serif" font-size="10.00">signal_easel::aprs</text>
<text text-anchor="start" x="337" y="-78.5" font-family="Helvetica,sans-Serif" font-size="10.00">::telemetry::TelemetryTranscoder</text>
<text text-anchor="middle" x="419.5" y="-67.5" font-family="Helvetica,sans-Serif" font-size="10.00">::encodeParameterNameMessage</text>
</a>
</g>
</g>
<!-- Node1&#45;&gt;Node6 -->
<g id="edge6" class="edge">
<title>Node1&#45;&gt;Node6</title>
<path fill="none" stroke="midnightblue" d="M535.67,-98.15C527.28,-96.9 518.75,-95.63 510.33,-94.37"/>
<polygon fill="midnightblue" stroke="midnightblue" points="535.42,-101.65 545.82,-99.66 536.45,-94.72 535.42,-101.65"/>
</g>
<!-- Node7 -->
<g id="node7" class="node">
<title>Node7</title>
<g id="a_node7"><a xlink:href="classsignal__easel_1_1aprs_1_1telemetry_1_1TelemetryTranscoder.html#a1ef507c0f7b59c9fcf34a1749124cf4e" target="_top" xlink:title="Encodes the parameter units and labels into a message.">
<polygon fill="none" stroke="black" points="331,-0.5 331,-41.5 508,-41.5 508,-0.5 331,-0.5"/>
<text text-anchor="start" x="339" y="-29.5" font-family="Helvetica,sans-Serif" font-size="10.00">signal_easel::aprs</text>
<text text-anchor="start" x="339" y="-18.5" font-family="Helvetica,sans-Serif" font-size="10.00">::telemetry::TelemetryTranscoder</text>
<text text-anchor="middle" x="419.5" y="-7.5" font-family="Helvetica,sans-Serif" font-size="10.00">::encodeUnitAndLabelMessage</text>
</a>
</g>
</g>
<!-- Node1&#45;&gt;Node7 -->
<g id="edge8" class="edge">
<title>Node1&#45;&gt;Node7</title>
<path fill="none" stroke="midnightblue" d="M578.22,-85.33C557.87,-73.98 533.11,-60.98 510,-51 502.33,-47.69 494.16,-44.5 486,-41.53"/>
<polygon fill="midnightblue" stroke="midnightblue" points="576.51,-88.39 586.94,-90.25 579.95,-82.29 576.51,-88.39"/>
</g>
<!-- Node3 -->
<g id="node3" class="node">
<title>Node3</title>
<g id="a_node3"><a xlink:href="structsignal__easel_1_1aprs_1_1TelemetryPacket.html#a6098e85ae94eded273fcf84adbdcdf35" target="_top" xlink:title=" ">
<polygon fill="none" stroke="black" points="149,-96 149,-126 293,-126 293,-96 149,-96"/>
<text text-anchor="start" x="157" y="-114" font-family="Helvetica,sans-Serif" font-size="10.00">signal_easel::aprs</text>
<text text-anchor="middle" x="221" y="-103" font-family="Helvetica,sans-Serif" font-size="10.00">::TelemetryPacket::encode</text>
</a>
</g>
</g>
<!-- Node2&#45;&gt;Node3 -->
<g id="edge2" class="edge">
<title>Node2&#45;&gt;Node3</title>
<path fill="none" stroke="midnightblue" d="M342.76,-176.74C338.07,-174.89 333.45,-172.97 329,-171 299.4,-157.88 267.23,-139.19 245.98,-126.17"/>
<polygon fill="midnightblue" stroke="midnightblue" points="341.87,-180.15 352.46,-180.44 344.36,-173.6 341.87,-180.15"/>
</g>
<!-- Node4 -->
<g id="node4" class="node">
<title>Node4</title>
<g id="a_node4"><a xlink:href="classsignal__easel_1_1aprs_1_1Modulator.html#a5620d9527654c44810aeffe98e1aade4" target="_top" xlink:title=" ">
<polygon fill="none" stroke="black" points="0,-96 0,-126 113,-126 113,-96 0,-96"/>
<text text-anchor="start" x="8" y="-114" font-family="Helvetica,sans-Serif" font-size="10.00">signal_easel::aprs</text>
<text text-anchor="middle" x="56.5" y="-103" font-family="Helvetica,sans-Serif" font-size="10.00">::Modulator::encode</text>
</a>
</g>
</g>
<!-- Node3&#45;&gt;Node4 -->
<g id="edge3" class="edge">
<title>Node3&#45;&gt;Node4</title>
<path fill="none" stroke="midnightblue" d="M138.61,-111C129.97,-111 121.33,-111 113.09,-111"/>
<polygon fill="midnightblue" stroke="midnightblue" points="138.73,-114.5 148.73,-111 138.73,-107.5 138.73,-114.5"/>
</g>
<!-- Node5&#45;&gt;Node3 -->
<g id="edge5" class="edge">
<title>Node5&#45;&gt;Node3</title>
<path fill="none" stroke="midnightblue" d="M320.82,-126.09C311.52,-124.67 302.22,-123.25 293.25,-121.88"/>
<polygon fill="midnightblue" stroke="midnightblue" points="320.47,-129.57 330.88,-127.62 321.52,-122.65 320.47,-129.57"/>
</g>
<!-- Node6&#45;&gt;Node3 -->
<g id="edge7" class="edge">
<title>Node6&#45;&gt;Node3</title>
<path fill="none" stroke="midnightblue" d="M318.77,-96.23C310.16,-97.54 301.56,-98.85 293.24,-100.12"/>
<polygon fill="midnightblue" stroke="midnightblue" points="319.52,-99.65 328.88,-94.68 318.46,-92.73 319.52,-99.65"/>
</g>
<!-- Node7&#45;&gt;Node3 -->
<g id="edge9" class="edge">
<title>Node7&#45;&gt;Node3</title>
<path fill="none" stroke="midnightblue" d="M342.76,-45.26C338.07,-47.11 333.45,-49.03 329,-51 299.4,-64.12 267.23,-82.81 245.98,-95.83"/>
<polygon fill="midnightblue" stroke="midnightblue" points="344.36,-48.4 352.46,-41.56 341.87,-41.85 344.36,-48.4"/>
</g>
</g>
</svg>
