<?xml version="1.0" encoding="UTF-8" standalone="no"?>
<!DOCTYPE svg PUBLIC "-//W3C//DTD SVG 1.1//EN"
 "http://www.w3.org/Graphics/SVG/1.1/DTD/svg11.dtd">
<!-- Generated by graphviz version 2.43.0 (0)
 -->
<!-- Title: signal_easel::Modulator::Modulator Pages: 1 -->
<svg width="817pt" height="132pt"
 viewBox="0.00 0.00 817.00 132.00" xmlns="http://www.w3.org/2000/svg" xmlns:xlink="http://www.w3.org/1999/xlink">
<g id="graph0" class="graph" transform="scale(1 1) rotate(0) translate(4 128)">
<title>signal_easel::Modulator::Modulator</title>
<!-- Node1 -->
<g id="node1" class="node">
<title>Node1</title>
<g id="a_node1"><a xlink:title="Constructor for the base modulator class.">
<polygon fill="#bfbfbf" stroke="black" points="0,-49.5 0,-79.5 133,-79.5 133,-49.5 0,-49.5"/>
<text text-anchor="start" x="8" y="-67.5" font-family="Helvetica,sans-Serif" font-size="10.00">signal_easel::Modulator</text>
<text text-anchor="middle" x="66.5" y="-56.5" font-family="Helvetica,sans-Serif" font-size="10.00">::Modulator</text>
</a>
</g>
</g>
<!-- Node2 -->
<g id="node2" class="node">
<title>Node2</title>
<g id="a_node2"><a xlink:href="classsignal__easel_1_1Modulator.html#a39e52e97a95a761b73ba928f8a29e916" target="_top" xlink:title="Clears the audio buffer. Adds the call sign if it&#39;s in the before or before_and_after modes.">
<polygon fill="none" stroke="black" points="169,-49.5 169,-79.5 302,-79.5 302,-49.5 169,-49.5"/>
<text text-anchor="start" x="177" y="-67.5" font-family="Helvetica,sans-Serif" font-size="10.00">signal_easel::Modulator</text>
<text text-anchor="middle" x="235.5" y="-56.5" font-family="Helvetica,sans-Serif" font-size="10.00">::clearBuffer</text>
</a>
</g>
</g>
<!-- Node1&#45;&gt;Node2 -->
<g id="edge1" class="edge">
<title>Node1&#45;&gt;Node2</title>
<path fill="none" stroke="midnightblue" d="M133.02,-64.5C141.5,-64.5 150.23,-64.5 158.85,-64.5"/>
<polygon fill="midnightblue" stroke="midnightblue" points="158.89,-68 168.89,-64.5 158.89,-61 158.89,-68"/>
</g>
<!-- Node3 -->
<g id="node3" class="node">
<title>Node3</title>
<g id="a_node3"><a xlink:href="classsignal__easel_1_1Modulator.html#a67263d2a46fdb510adb0b4211699bf26" target="_top" xlink:title="Add morse code to the output audio.">
<polygon fill="none" stroke="black" points="338,-49.5 338,-79.5 471,-79.5 471,-49.5 338,-49.5"/>
<text text-anchor="start" x="346" y="-67.5" font-family="Helvetica,sans-Serif" font-size="10.00">signal_easel::Modulator</text>
<text text-anchor="middle" x="404.5" y="-56.5" font-family="Helvetica,sans-Serif" font-size="10.00">::addMorseCode</text>
</a>
</g>
</g>
<!-- Node2&#45;&gt;Node3 -->
<g id="edge2" class="edge">
<title>Node2&#45;&gt;Node3</title>
<path fill="none" stroke="midnightblue" d="M302.02,-64.5C310.5,-64.5 319.23,-64.5 327.85,-64.5"/>
<polygon fill="midnightblue" stroke="midnightblue" points="327.89,-68 337.89,-64.5 327.89,-61 327.89,-68"/>
</g>
<!-- Node4 -->
<g id="node4" class="node">
<title>Node4</title>
<g id="a_node4"><a xlink:href="classsignal__easel_1_1Modulator.html#a83877b4de0ae12992f62c09cf876da04" target="_top" xlink:title="Add silence to the audio buffer.">
<polygon fill="none" stroke="black" points="507,-93.5 507,-123.5 640,-123.5 640,-93.5 507,-93.5"/>
<text text-anchor="start" x="515" y="-111.5" font-family="Helvetica,sans-Serif" font-size="10.00">signal_easel::Modulator</text>
<text text-anchor="middle" x="573.5" y="-100.5" font-family="Helvetica,sans-Serif" font-size="10.00">::addSilence</text>
</a>
</g>
</g>
<!-- Node2&#45;&gt;Node4 -->
<g id="edge7" class="edge">
<title>Node2&#45;&gt;Node4</title>
<path fill="none" stroke="midnightblue" d="M290.69,-79.55C305.89,-83.31 322.51,-86.98 338,-89.5 390.66,-98.06 450.63,-102.83 496.75,-105.45"/>
<polygon fill="midnightblue" stroke="midnightblue" points="496.79,-108.96 506.96,-106.01 497.17,-101.97 496.79,-108.96"/>
</g>
<!-- Node7 -->
<g id="node7" class="node">
<title>Node7</title>
<g id="a_node7"><a xlink:href="namespacesignal__easel.html#a3befdd8242efcc43e4e99a8e20a7be6c" target="_top" xlink:title="Basic checks to see if a call sign is valid.">
<polygon fill="none" stroke="black" points="339,-0.5 339,-30.5 470,-30.5 470,-0.5 339,-0.5"/>
<text text-anchor="start" x="347" y="-18.5" font-family="Helvetica,sans-Serif" font-size="10.00">signal_easel::isCallSign</text>
<text text-anchor="middle" x="404.5" y="-7.5" font-family="Helvetica,sans-Serif" font-size="10.00">Valid</text>
</a>
</g>
</g>
<!-- Node2&#45;&gt;Node7 -->
<g id="edge8" class="edge">
<title>Node2&#45;&gt;Node7</title>
<path fill="none" stroke="midnightblue" d="M287.97,-49.4C305.19,-44.34 324.56,-38.66 342.44,-33.42"/>
<polygon fill="midnightblue" stroke="midnightblue" points="343.59,-36.73 352.2,-30.55 341.62,-30.01 343.59,-36.73"/>
</g>
<!-- Node3&#45;&gt;Node4 -->
<g id="edge3" class="edge">
<title>Node3&#45;&gt;Node4</title>
<path fill="none" stroke="midnightblue" d="M462.5,-79.52C476.4,-83.18 491.39,-87.13 505.7,-90.9"/>
<polygon fill="midnightblue" stroke="midnightblue" points="504.91,-94.31 515.47,-93.47 506.69,-87.54 504.91,-94.31"/>
</g>
<!-- Node6 -->
<g id="node6" class="node">
<title>Node6</title>
<g id="a_node6"><a xlink:href="classsignal__easel_1_1Modulator.html#a0fcce44b034c83731048ca17dc985f04" target="_top" xlink:title="Add a sine wave to the audio buffer.">
<polygon fill="none" stroke="black" points="507,-44.5 507,-74.5 640,-74.5 640,-44.5 507,-44.5"/>
<text text-anchor="start" x="515" y="-62.5" font-family="Helvetica,sans-Serif" font-size="10.00">signal_easel::Modulator</text>
<text text-anchor="middle" x="573.5" y="-51.5" font-family="Helvetica,sans-Serif" font-size="10.00">::addSineWave</text>
</a>
</g>
</g>
<!-- Node3&#45;&gt;Node6 -->
<g id="edge5" class="edge">
<title>Node3&#45;&gt;Node6</title>
<path fill="none" stroke="midnightblue" d="M471.02,-62.54C479.5,-62.28 488.23,-62.02 496.85,-61.77"/>
<polygon fill="midnightblue" stroke="midnightblue" points="497,-65.26 506.89,-61.46 496.79,-58.27 497,-65.26"/>
</g>
<!-- Node5 -->
<g id="node5" class="node">
<title>Node5</title>
<g id="a_node5"><a xlink:href="classsignal__easel_1_1Modulator.html#af99ee22156e320703891f0fda4df95e8" target="_top" xlink:title="Add a PCM sample to the audio buffer.">
<polygon fill="none" stroke="black" points="676,-68.5 676,-98.5 809,-98.5 809,-68.5 676,-68.5"/>
<text text-anchor="start" x="684" y="-86.5" font-family="Helvetica,sans-Serif" font-size="10.00">signal_easel::Modulator</text>
<text text-anchor="middle" x="742.5" y="-75.5" font-family="Helvetica,sans-Serif" font-size="10.00">::addAudioSample</text>
</a>
</g>
</g>
<!-- Node4&#45;&gt;Node5 -->
<g id="edge4" class="edge">
<title>Node4&#45;&gt;Node5</title>
<path fill="none" stroke="midnightblue" d="M640.02,-98.69C648.5,-97.42 657.23,-96.12 665.85,-94.83"/>
<polygon fill="midnightblue" stroke="midnightblue" points="666.52,-98.26 675.89,-93.32 665.48,-91.34 666.52,-98.26"/>
</g>
<!-- Node6&#45;&gt;Node5 -->
<g id="edge6" class="edge">
<title>Node6&#45;&gt;Node5</title>
<path fill="none" stroke="midnightblue" d="M640.02,-68.92C648.5,-70.13 657.23,-71.39 665.85,-72.63"/>
<polygon fill="midnightblue" stroke="midnightblue" points="665.5,-76.11 675.89,-74.07 666.49,-69.18 665.5,-76.11"/>
</g>
</g>
</svg>
