<?xml version="1.0" encoding="UTF-8" standalone="no"?>
<!DOCTYPE svg PUBLIC "-//W3C//DTD SVG 1.1//EN"
 "http://www.w3.org/Graphics/SVG/1.1/DTD/svg11.dtd">
<!-- Generated by graphviz version 2.43.0 (0)
 -->
<!-- Title: signal_easel::aprs::telemetry::TelemetryTranscoder::encodeBitSenseMessage Pages: 1 -->
<svg width="595pt" height="170pt"
 viewBox="0.00 0.00 595.00 170.00" xmlns="http://www.w3.org/2000/svg" xmlns:xlink="http://www.w3.org/1999/xlink">
<g id="graph0" class="graph" transform="scale(1 1) rotate(0) translate(4 166)">
<title>signal_easel::aprs::telemetry::TelemetryTranscoder::encodeBitSenseMessage</title>
<!-- Node1 -->
<g id="node1" class="node">
<title>Node1</title>
<g id="a_node1"><a xlink:title="Encodes the bit sense and project name into a message.">
<polygon fill="#bfbfbf" stroke="black" points="0,-60.5 0,-101.5 177,-101.5 177,-60.5 0,-60.5"/>
<text text-anchor="start" x="8" y="-89.5" font-family="Helvetica,sans-Serif" font-size="10.00">signal_easel::aprs</text>
<text text-anchor="start" x="8" y="-78.5" font-family="Helvetica,sans-Serif" font-size="10.00">::telemetry::TelemetryTranscoder</text>
<text text-anchor="middle" x="88.5" y="-67.5" font-family="Helvetica,sans-Serif" font-size="10.00">::encodeBitSenseMessage</text>
</a>
</g>
</g>
<!-- Node2 -->
<g id="node2" class="node">
<title>Node2</title>
<g id="a_node2"><a xlink:href="classsignal__easel_1_1aprs_1_1telemetry_1_1TelemetryTranscoder.html#a195a39f0f0e23c8eacd3f552e4389932" target="_top" xlink:title="Used in the encode methods to add the telemetry station address to the message in the format &quot;:N0CALL...">
<polygon fill="none" stroke="black" points="213,-120.5 213,-161.5 390,-161.5 390,-120.5 213,-120.5"/>
<text text-anchor="start" x="221" y="-149.5" font-family="Helvetica,sans-Serif" font-size="10.00">signal_easel::aprs</text>
<text text-anchor="start" x="221" y="-138.5" font-family="Helvetica,sans-Serif" font-size="10.00">::telemetry::TelemetryTranscoder</text>
<text text-anchor="middle" x="301.5" y="-127.5" font-family="Helvetica,sans-Serif" font-size="10.00">::addTelemetryStationAddress</text>
</a>
</g>
</g>
<!-- Node1&#45;&gt;Node2 -->
<g id="edge1" class="edge">
<title>Node1&#45;&gt;Node2</title>
<path fill="none" stroke="midnightblue" d="M161.82,-101.56C180.11,-106.76 199.87,-112.39 218.59,-117.71"/>
<polygon fill="midnightblue" stroke="midnightblue" points="217.7,-121.09 228.28,-120.46 219.61,-114.36 217.7,-121.09"/>
</g>
<!-- Node4 -->
<g id="node4" class="node">
<title>Node4</title>
<g id="a_node4"><a xlink:href="classsignal__easel_1_1aprs_1_1telemetry_1_1TelemetryData.html#a8128a64f4d0f2a6af78ed636d5fbbb57" target="_top" xlink:title=" ">
<polygon fill="none" stroke="black" points="224.5,-60.5 224.5,-101.5 378.5,-101.5 378.5,-60.5 224.5,-60.5"/>
<text text-anchor="start" x="232.5" y="-89.5" font-family="Helvetica,sans-Serif" font-size="10.00">signal_easel::aprs</text>
<text text-anchor="start" x="232.5" y="-78.5" font-family="Helvetica,sans-Serif" font-size="10.00">::telemetry::TelemetryData</text>
<text text-anchor="middle" x="301.5" y="-67.5" font-family="Helvetica,sans-Serif" font-size="10.00">::getDigitalParametersConst</text>
</a>
</g>
</g>
<!-- Node1&#45;&gt;Node4 -->
<g id="edge3" class="edge">
<title>Node1&#45;&gt;Node4</title>
<path fill="none" stroke="midnightblue" d="M177.15,-81C189.36,-81 201.89,-81 214.08,-81"/>
<polygon fill="midnightblue" stroke="midnightblue" points="214.21,-84.5 224.21,-81 214.21,-77.5 214.21,-84.5"/>
</g>
<!-- Node5 -->
<g id="node5" class="node">
<title>Node5</title>
<g id="a_node5"><a xlink:href="classsignal__easel_1_1aprs_1_1telemetry_1_1TelemetryData.html#a895a66b4284ec38cf93dadbb8ffc826d" target="_top" xlink:title="Get the project title.">
<polygon fill="none" stroke="black" points="227.5,-0.5 227.5,-41.5 375.5,-41.5 375.5,-0.5 227.5,-0.5"/>
<text text-anchor="start" x="235.5" y="-29.5" font-family="Helvetica,sans-Serif" font-size="10.00">signal_easel::aprs</text>
<text text-anchor="start" x="235.5" y="-18.5" font-family="Helvetica,sans-Serif" font-size="10.00">::telemetry::TelemetryData</text>
<text text-anchor="middle" x="301.5" y="-7.5" font-family="Helvetica,sans-Serif" font-size="10.00">::getProjectTitle</text>
</a>
</g>
</g>
<!-- Node1&#45;&gt;Node5 -->
<g id="edge4" class="edge">
<title>Node1&#45;&gt;Node5</title>
<path fill="none" stroke="midnightblue" d="M161.82,-60.44C180.11,-55.24 199.87,-49.61 218.59,-44.29"/>
<polygon fill="midnightblue" stroke="midnightblue" points="219.61,-47.64 228.28,-41.54 217.7,-40.91 219.61,-47.64"/>
</g>
<!-- Node3 -->
<g id="node3" class="node">
<title>Node3</title>
<g id="a_node3"><a xlink:href="classsignal__easel_1_1aprs_1_1telemetry_1_1TelemetryData.html#a447c24a8880aa1098b47ad923ec33b70" target="_top" xlink:title="Get the address of the station that is sending the telemetry data.">
<polygon fill="none" stroke="black" points="426,-120.5 426,-161.5 587,-161.5 587,-120.5 426,-120.5"/>
<text text-anchor="start" x="434" y="-149.5" font-family="Helvetica,sans-Serif" font-size="10.00">signal_easel::aprs</text>
<text text-anchor="start" x="434" y="-138.5" font-family="Helvetica,sans-Serif" font-size="10.00">::telemetry::TelemetryData</text>
<text text-anchor="middle" x="506.5" y="-127.5" font-family="Helvetica,sans-Serif" font-size="10.00">::getTelemetryStationAddress</text>
</a>
</g>
</g>
<!-- Node2&#45;&gt;Node3 -->
<g id="edge2" class="edge">
<title>Node2&#45;&gt;Node3</title>
<path fill="none" stroke="midnightblue" d="M390.06,-141C398.62,-141 407.32,-141 415.9,-141"/>
<polygon fill="midnightblue" stroke="midnightblue" points="415.91,-144.5 425.91,-141 415.91,-137.5 415.91,-144.5"/>
</g>
</g>
</svg>
