<?xml version="1.0" encoding="UTF-8" standalone="no"?>
<!DOCTYPE svg PUBLIC "-//W3C//DTD SVG 1.1//EN"
 "http://www.w3.org/Graphics/SVG/1.1/DTD/svg11.dtd">
<!-- Generated by graphviz version 2.43.0 (0)
 -->
<!-- Title: signal_easel::BitStream::popNextBit Pages: 1 -->
<svg width="804pt" height="186pt"
 viewBox="0.00 0.00 804.00 186.00" xmlns="http://www.w3.org/2000/svg" xmlns:xlink="http://www.w3.org/1999/xlink">
<g id="graph0" class="graph" transform="scale(1 1) rotate(0) translate(4 182)">
<title>signal_easel::BitStream::popNextBit</title>
<!-- Node1 -->
<g id="node1" class="node">
<title>Node1</title>
<g id="a_node1"><a xlink:title="Returns the next bit of the bit stream that will be encoded.">
<polygon fill="#bfbfbf" stroke="black" points="664,-73.5 664,-103.5 796,-103.5 796,-73.5 664,-73.5"/>
<text text-anchor="start" x="672" y="-91.5" font-family="Helvetica,sans-Serif" font-size="10.00">signal_easel::BitStream</text>
<text text-anchor="middle" x="730" y="-80.5" font-family="Helvetica,sans-Serif" font-size="10.00">::popNextBit</text>
</a>
</g>
</g>
<!-- Node2 -->
<g id="node2" class="node">
<title>Node2</title>
<g id="a_node2"><a xlink:href="namespacesignal__easel_1_1ax25.html#a84e1d1bf82ef828a150bc94cf065e396" target="_top" xlink:title="Convert a bit stream from NRZI to standard encoding.">
<polygon fill="none" stroke="black" points="512,-147.5 512,-177.5 619,-177.5 619,-147.5 512,-147.5"/>
<text text-anchor="start" x="520" y="-165.5" font-family="Helvetica,sans-Serif" font-size="10.00">signal_easel::ax25</text>
<text text-anchor="middle" x="565.5" y="-154.5" font-family="Helvetica,sans-Serif" font-size="10.00">::decodeNrzi</text>
</a>
</g>
</g>
<!-- Node1&#45;&gt;Node2 -->
<g id="edge1" class="edge">
<title>Node1&#45;&gt;Node2</title>
<path fill="none" stroke="midnightblue" d="M691.03,-108.28C672.25,-117.81 649.13,-129.17 628,-138.5 621.19,-141.51 613.87,-144.54 606.74,-147.38"/>
<polygon fill="midnightblue" stroke="midnightblue" points="692.83,-111.29 700.15,-103.62 689.65,-105.05 692.83,-111.29"/>
</g>
<!-- Node7 -->
<g id="node7" class="node">
<title>Node7</title>
<g id="a_node7"><a xlink:href="namespacesignal__easel_1_1ax25.html#a1bccc37a6ac48ed9be96218dd46bcb41" target="_top" xlink:title=" ">
<polygon fill="none" stroke="black" points="512,-98.5 512,-128.5 619,-128.5 619,-98.5 512,-98.5"/>
<text text-anchor="start" x="520" y="-116.5" font-family="Helvetica,sans-Serif" font-size="10.00">signal_easel::ax25</text>
<text text-anchor="middle" x="565.5" y="-105.5" font-family="Helvetica,sans-Serif" font-size="10.00">::deStuffBytes</text>
</a>
</g>
</g>
<!-- Node1&#45;&gt;Node7 -->
<g id="edge6" class="edge">
<title>Node1&#45;&gt;Node7</title>
<path fill="none" stroke="midnightblue" d="M653.67,-100.09C642.02,-101.88 630.2,-103.7 619.19,-105.39"/>
<polygon fill="midnightblue" stroke="midnightblue" points="654.49,-103.5 663.84,-98.52 653.43,-96.59 654.49,-103.5"/>
</g>
<!-- Node8 -->
<g id="node8" class="node">
<title>Node8</title>
<g id="a_node8"><a xlink:href="classsignal__easel_1_1ax25_1_1Frame.html#a2b4f6ebcb7592a7e5a21114c8fafa503" target="_top" xlink:title="A step beyond buildFrame. This function builds the frame, does the bit stuffing, adds the flags,...">
<polygon fill="none" stroke="black" points="503,-0.5 503,-30.5 628,-30.5 628,-0.5 503,-0.5"/>
<text text-anchor="start" x="511" y="-18.5" font-family="Helvetica,sans-Serif" font-size="10.00">signal_easel::ax25</text>
<text text-anchor="middle" x="565.5" y="-7.5" font-family="Helvetica,sans-Serif" font-size="10.00">::Frame::encodeFrame</text>
</a>
</g>
</g>
<!-- Node1&#45;&gt;Node8 -->
<g id="edge8" class="edge">
<title>Node1&#45;&gt;Node8</title>
<path fill="none" stroke="midnightblue" d="M690.17,-68.77C671.53,-59.52 648.78,-48.58 628,-39.5 621.07,-36.47 613.62,-33.41 606.39,-30.53"/>
<polygon fill="midnightblue" stroke="midnightblue" points="688.73,-71.96 699.24,-73.29 691.85,-65.69 688.73,-71.96"/>
</g>
<!-- Node11 -->
<g id="node11" class="node">
<title>Node11</title>
<g id="a_node11"><a xlink:href="namespacesignal__easel_1_1ax25.html#aedc3a21287bb20d2f0b01c9a2d6797f3" target="_top" xlink:title="Finds the start flags in the bit stream and removes them.">
<polygon fill="none" stroke="black" points="512,-49.5 512,-79.5 619,-79.5 619,-49.5 512,-49.5"/>
<text text-anchor="start" x="520" y="-67.5" font-family="Helvetica,sans-Serif" font-size="10.00">signal_easel::ax25</text>
<text text-anchor="middle" x="565.5" y="-56.5" font-family="Helvetica,sans-Serif" font-size="10.00">::findStartFlags</text>
</a>
</g>
</g>
<!-- Node1&#45;&gt;Node11 -->
<g id="edge12" class="edge">
<title>Node1&#45;&gt;Node11</title>
<path fill="none" stroke="midnightblue" d="M653.67,-77.37C642.02,-75.65 630.2,-73.91 619.19,-72.28"/>
<polygon fill="midnightblue" stroke="midnightblue" points="653.44,-80.88 663.84,-78.88 654.46,-73.95 653.44,-80.88"/>
</g>
<!-- Node3 -->
<g id="node3" class="node">
<title>Node3</title>
<g id="a_node3"><a xlink:href="classsignal__easel_1_1ax25_1_1Frame.html#a63cf2362c2a90d20f09bbbc4f24a07ba" target="_top" xlink:title="Attempt to parse an incoming bit stream into an AX.25 frame.">
<polygon fill="none" stroke="black" points="332,-95.5 332,-125.5 467,-125.5 467,-95.5 332,-95.5"/>
<text text-anchor="start" x="340" y="-113.5" font-family="Helvetica,sans-Serif" font-size="10.00">signal_easel::ax25</text>
<text text-anchor="middle" x="399.5" y="-102.5" font-family="Helvetica,sans-Serif" font-size="10.00">::Frame::parseBitStream</text>
</a>
</g>
</g>
<!-- Node2&#45;&gt;Node3 -->
<g id="edge2" class="edge">
<title>Node2&#45;&gt;Node3</title>
<path fill="none" stroke="midnightblue" d="M507.41,-144.4C487.95,-138.23 466.43,-131.41 447.83,-125.51"/>
<polygon fill="midnightblue" stroke="midnightblue" points="506.47,-147.77 517.06,-147.46 508.59,-141.1 506.47,-147.77"/>
</g>
<!-- Node4 -->
<g id="node4" class="node">
<title>Node4</title>
<g id="a_node4"><a xlink:href="classsignal__easel_1_1aprs_1_1Demodulator.html#ae5a8e7634c1bc8d215a0c454a9a737fa" target="_top" xlink:title=" ">
<polygon fill="none" stroke="black" points="143,-87 143,-128 296,-128 296,-87 143,-87"/>
<text text-anchor="start" x="151" y="-116" font-family="Helvetica,sans-Serif" font-size="10.00">signal_easel::aprs</text>
<text text-anchor="start" x="151" y="-105" font-family="Helvetica,sans-Serif" font-size="10.00">::Demodulator::lookForAx25</text>
<text text-anchor="middle" x="219.5" y="-94" font-family="Helvetica,sans-Serif" font-size="10.00">Packet</text>
</a>
</g>
</g>
<!-- Node3&#45;&gt;Node4 -->
<g id="edge3" class="edge">
<title>Node3&#45;&gt;Node4</title>
<path fill="none" stroke="midnightblue" d="M321.74,-109.21C313.29,-109.06 304.68,-108.92 296.23,-108.78"/>
<polygon fill="midnightblue" stroke="midnightblue" points="321.91,-112.71 331.97,-109.38 322.03,-105.71 321.91,-112.71"/>
</g>
<!-- Node5 -->
<g id="node5" class="node">
<title>Node5</title>
<g id="a_node5"><a xlink:href="classsignal__easel_1_1aprs_1_1Receiver.html#afbf7869aceaf2ea7ab0be8b9af16e818" target="_top" xlink:title=" ">
<polygon fill="none" stroke="black" points="0,-92.5 0,-122.5 107,-122.5 107,-92.5 0,-92.5"/>
<text text-anchor="start" x="8" y="-110.5" font-family="Helvetica,sans-Serif" font-size="10.00">signal_easel::aprs</text>
<text text-anchor="middle" x="53.5" y="-99.5" font-family="Helvetica,sans-Serif" font-size="10.00">::Receiver::decode</text>
</a>
</g>
</g>
<!-- Node4&#45;&gt;Node5 -->
<g id="edge4" class="edge">
<title>Node4&#45;&gt;Node5</title>
<path fill="none" stroke="midnightblue" d="M132.67,-107.5C124.09,-107.5 115.56,-107.5 107.47,-107.5"/>
<polygon fill="midnightblue" stroke="midnightblue" points="132.74,-111 142.74,-107.5 132.74,-104 132.74,-111"/>
</g>
<!-- Node6 -->
<g id="node6" class="node">
<title>Node6</title>
<g id="a_node6"><a xlink:href="aprs__test_8cpp.html#aea66d1824e3f1e27598adf99ac6a089a" target="_top" xlink:title=" ">
<polygon fill="none" stroke="black" points="33,-49 33,-68 74,-68 74,-49 33,-49"/>
<text text-anchor="middle" x="53.5" y="-56" font-family="Helvetica,sans-Serif" font-size="10.00">TEST</text>
</a>
</g>
</g>
<!-- Node4&#45;&gt;Node6 -->
<g id="edge5" class="edge">
<title>Node4&#45;&gt;Node6</title>
<path fill="none" stroke="midnightblue" d="M139.76,-83.97C115.4,-76.69 90.65,-69.3 74.13,-64.37"/>
<polygon fill="midnightblue" stroke="midnightblue" points="138.84,-87.35 149.42,-86.86 140.85,-80.65 138.84,-87.35"/>
</g>
<!-- Node7&#45;&gt;Node3 -->
<g id="edge7" class="edge">
<title>Node7&#45;&gt;Node3</title>
<path fill="none" stroke="midnightblue" d="M501.5,-112.35C490.21,-112.14 478.4,-111.93 467.01,-111.72"/>
<polygon fill="midnightblue" stroke="midnightblue" points="501.64,-115.85 511.71,-112.53 501.77,-108.85 501.64,-115.85"/>
</g>
<!-- Node9 -->
<g id="node9" class="node">
<title>Node9</title>
<g id="a_node9"><a xlink:href="namespacesignal__easel_1_1aprs.html#a77481001a5b78a839972bb4220b43e4d" target="_top" xlink:title=" ">
<polygon fill="none" stroke="black" points="347.5,-21.5 347.5,-51.5 451.5,-51.5 451.5,-21.5 347.5,-21.5"/>
<text text-anchor="start" x="355.5" y="-39.5" font-family="Helvetica,sans-Serif" font-size="10.00">signal_easel::aprs</text>
<text text-anchor="middle" x="399.5" y="-28.5" font-family="Helvetica,sans-Serif" font-size="10.00">::encodePacket</text>
</a>
</g>
</g>
<!-- Node8&#45;&gt;Node9 -->
<g id="edge9" class="edge">
<title>Node8&#45;&gt;Node9</title>
<path fill="none" stroke="midnightblue" d="M492.94,-24.66C479.04,-26.44 464.74,-28.27 451.66,-29.95"/>
<polygon fill="midnightblue" stroke="midnightblue" points="493.49,-28.12 502.97,-23.38 492.6,-21.18 493.49,-28.12"/>
</g>
<!-- Node10 -->
<g id="node10" class="node">
<title>Node10</title>
<g id="a_node10"><a xlink:href="classsignal__easel_1_1aprs_1_1Modulator.html#a8ae067701382dec1680b786583ace687" target="_top" xlink:title=" ">
<polygon fill="none" stroke="black" points="163,-32.5 163,-62.5 276,-62.5 276,-32.5 163,-32.5"/>
<text text-anchor="start" x="171" y="-50.5" font-family="Helvetica,sans-Serif" font-size="10.00">signal_easel::aprs</text>
<text text-anchor="middle" x="219.5" y="-39.5" font-family="Helvetica,sans-Serif" font-size="10.00">::Modulator::encode</text>
</a>
</g>
</g>
<!-- Node9&#45;&gt;Node10 -->
<g id="edge10" class="edge">
<title>Node9&#45;&gt;Node10</title>
<path fill="none" stroke="midnightblue" d="M337.33,-40.28C317.49,-41.51 295.61,-42.86 276.19,-44.06"/>
<polygon fill="midnightblue" stroke="midnightblue" points="337.73,-43.76 347.49,-39.65 337.3,-36.78 337.73,-43.76"/>
</g>
<!-- Node10&#45;&gt;Node6 -->
<g id="edge11" class="edge">
<title>Node10&#45;&gt;Node6</title>
<path fill="none" stroke="midnightblue" d="M152.74,-51.91C124.56,-53.8 93.72,-55.87 74.25,-57.18"/>
<polygon fill="midnightblue" stroke="midnightblue" points="153.23,-55.39 162.98,-51.22 152.77,-48.4 153.23,-55.39"/>
</g>
<!-- Node11&#45;&gt;Node3 -->
<g id="edge13" class="edge">
<title>Node11&#45;&gt;Node3</title>
<path fill="none" stroke="midnightblue" d="M502.02,-82.03C486.2,-86.46 469.36,-91.18 454.04,-95.48"/>
<polygon fill="midnightblue" stroke="midnightblue" points="503.02,-85.38 511.71,-79.31 501.13,-78.64 503.02,-85.38"/>
</g>
</g>
</svg>
