<?xml version="1.0" encoding="UTF-8" standalone="no"?>
<!DOCTYPE svg PUBLIC "-//W3C//DTD SVG 1.1//EN"
 "http://www.w3.org/Graphics/SVG/1.1/DTD/svg11.dtd">
<!-- Generated by graphviz version 2.43.0 (0)
 -->
<!-- Title: signal_easel::aprs::Receiver::decode Pages: 1 -->
<svg width="1281pt" height="650pt"
 viewBox="0.00 0.00 1281.00 649.50" xmlns="http://www.w3.org/2000/svg" xmlns:xlink="http://www.w3.org/1999/xlink">
<g id="graph0" class="graph" transform="scale(1 1) rotate(0) translate(4 645.5)">
<title>signal_easel::aprs::Receiver::decode</title>
<!-- Node1 -->
<g id="node1" class="node">
<title>Node1</title>
<g id="a_node1"><a xlink:title=" ">
<polygon fill="#bfbfbf" stroke="black" points="0,-371.5 0,-401.5 107,-401.5 107,-371.5 0,-371.5"/>
<text text-anchor="start" x="8" y="-389.5" font-family="Helvetica,sans-Serif" font-size="10.00">signal_easel::aprs</text>
<text text-anchor="middle" x="53.5" y="-378.5" font-family="Helvetica,sans-Serif" font-size="10.00">::Receiver::decode</text>
</a>
</g>
</g>
<!-- Node2 -->
<g id="node2" class="node">
<title>Node2</title>
<g id="a_node2"><a xlink:href="classsignal__easel_1_1aprs_1_1Demodulator.html#a0149ecf3027f6dcaff8b3d40f7a2d488" target="_top" xlink:title=" ">
<polygon fill="none" stroke="black" points="159,-486.5 159,-516.5 290,-516.5 290,-486.5 159,-486.5"/>
<text text-anchor="start" x="167" y="-504.5" font-family="Helvetica,sans-Serif" font-size="10.00">signal_easel::aprs</text>
<text text-anchor="middle" x="224.5" y="-493.5" font-family="Helvetica,sans-Serif" font-size="10.00">::Demodulator::getType</text>
</a>
</g>
</g>
<!-- Node1&#45;&gt;Node2 -->
<g id="edge1" class="edge">
<title>Node1&#45;&gt;Node2</title>
<path fill="none" stroke="midnightblue" d="M65.64,-401.83C80.92,-421.81 110.26,-456.54 143,-476.5 146.42,-478.58 150.02,-480.51 153.74,-482.28"/>
<polygon fill="midnightblue" stroke="midnightblue" points="152.58,-485.6 163.15,-486.39 155.38,-479.18 152.58,-485.6"/>
</g>
<!-- Node3 -->
<g id="node3" class="node">
<title>Node3</title>
<g id="a_node3"><a xlink:href="classsignal__easel_1_1aprs_1_1Demodulator.html#ae5a8e7634c1bc8d215a0c454a9a737fa" target="_top" xlink:title=" ">
<polygon fill="none" stroke="black" points="148,-426 148,-467 301,-467 301,-426 148,-426"/>
<text text-anchor="start" x="156" y="-455" font-family="Helvetica,sans-Serif" font-size="10.00">signal_easel::aprs</text>
<text text-anchor="start" x="156" y="-444" font-family="Helvetica,sans-Serif" font-size="10.00">::Demodulator::lookForAx25</text>
<text text-anchor="middle" x="224.5" y="-433" font-family="Helvetica,sans-Serif" font-size="10.00">Packet</text>
</a>
</g>
</g>
<!-- Node1&#45;&gt;Node3 -->
<g id="edge2" class="edge">
<title>Node1&#45;&gt;Node3</title>
<path fill="none" stroke="midnightblue" d="M97.15,-401.64C114.96,-407.97 136.1,-415.47 155.93,-422.51"/>
<polygon fill="midnightblue" stroke="midnightblue" points="154.95,-425.88 165.55,-425.92 157.29,-419.28 154.95,-425.88"/>
</g>
<!-- Node26 -->
<g id="node26" class="node">
<title>Node26</title>
<g id="a_node26"><a xlink:href="classsignal__easel_1_1aprs_1_1Demodulator.html#a8ea92084a8f961d7a11200652516177d" target="_top" xlink:title="If the packet was a message packet, this function will try to parse the packet into a message packet.">
<polygon fill="none" stroke="black" points="143,-366 143,-407 306,-407 306,-366 143,-366"/>
<text text-anchor="start" x="151" y="-395" font-family="Helvetica,sans-Serif" font-size="10.00">signal_easel::aprs</text>
<text text-anchor="start" x="151" y="-384" font-family="Helvetica,sans-Serif" font-size="10.00">::Demodulator::parseMessage</text>
<text text-anchor="middle" x="224.5" y="-373" font-family="Helvetica,sans-Serif" font-size="10.00">Packet</text>
</a>
</g>
</g>
<!-- Node1&#45;&gt;Node26 -->
<g id="edge32" class="edge">
<title>Node1&#45;&gt;Node26</title>
<path fill="none" stroke="midnightblue" d="M107.05,-386.5C115.19,-386.5 123.81,-386.5 132.51,-386.5"/>
<polygon fill="midnightblue" stroke="midnightblue" points="132.75,-390 142.75,-386.5 132.75,-383 132.75,-390"/>
</g>
<!-- Node27 -->
<g id="node27" class="node">
<title>Node27</title>
<g id="a_node27"><a xlink:href="classsignal__easel_1_1afsk_1_1Demodulator.html#a1d00e5b759f208be2751c4f2302a9c57" target="_top" xlink:title=" ">
<polygon fill="none" stroke="black" points="145.5,-306 145.5,-347 303.5,-347 303.5,-306 145.5,-306"/>
<text text-anchor="start" x="153.5" y="-335" font-family="Helvetica,sans-Serif" font-size="10.00">signal_easel::afsk</text>
<text text-anchor="start" x="153.5" y="-324" font-family="Helvetica,sans-Serif" font-size="10.00">::Demodulator::processAudio</text>
<text text-anchor="middle" x="224.5" y="-313" font-family="Helvetica,sans-Serif" font-size="10.00">Buffer</text>
</a>
</g>
</g>
<!-- Node1&#45;&gt;Node27 -->
<g id="edge33" class="edge">
<title>Node1&#45;&gt;Node27</title>
<path fill="none" stroke="midnightblue" d="M97.15,-371.36C114.96,-365.03 136.1,-357.53 155.93,-350.49"/>
<polygon fill="midnightblue" stroke="midnightblue" points="157.29,-353.72 165.55,-347.08 154.95,-347.12 157.29,-353.72"/>
</g>
<!-- Node37 -->
<g id="node37" class="node">
<title>Node37</title>
<g id="a_node37"><a xlink:href="classsignal__easel_1_1Exception.html#a0bb35db1350eef242918c3f69d36805f" target="_top" xlink:title=" ">
<polygon fill="none" stroke="black" points="159,-256.5 159,-286.5 290,-286.5 290,-256.5 159,-256.5"/>
<text text-anchor="start" x="167" y="-274.5" font-family="Helvetica,sans-Serif" font-size="10.00">signal_easel::Exception</text>
<text text-anchor="middle" x="224.5" y="-263.5" font-family="Helvetica,sans-Serif" font-size="10.00">::what</text>
</a>
</g>
</g>
<!-- Node1&#45;&gt;Node37 -->
<g id="edge43" class="edge">
<title>Node1&#45;&gt;Node37</title>
<path fill="none" stroke="midnightblue" d="M65.64,-371.17C80.92,-351.19 110.26,-316.46 143,-296.5 146.42,-294.42 150.02,-292.49 153.74,-290.72"/>
<polygon fill="midnightblue" stroke="midnightblue" points="155.38,-293.82 163.15,-286.61 152.58,-287.4 155.38,-293.82"/>
</g>
<!-- Node4 -->
<g id="node4" class="node">
<title>Node4</title>
<g id="a_node4"><a xlink:href="classsignal__easel_1_1ax25_1_1Frame.html#a9e6110247fa4368c64e39cf17f08759d" target="_top" xlink:title=" ">
<polygon fill="none" stroke="black" points="358,-480.5 358,-510.5 490,-510.5 490,-480.5 358,-480.5"/>
<text text-anchor="start" x="366" y="-498.5" font-family="Helvetica,sans-Serif" font-size="10.00">signal_easel::ax25</text>
<text text-anchor="middle" x="424" y="-487.5" font-family="Helvetica,sans-Serif" font-size="10.00">::Frame::getInformation</text>
</a>
</g>
</g>
<!-- Node3&#45;&gt;Node4 -->
<g id="edge3" class="edge">
<title>Node3&#45;&gt;Node4</title>
<path fill="none" stroke="midnightblue" d="M301.01,-465.23C317.79,-469.4 335.51,-473.79 352.09,-477.91"/>
<polygon fill="midnightblue" stroke="midnightblue" points="351.7,-481.42 362.25,-480.43 353.38,-474.62 351.7,-481.42"/>
</g>
<!-- Node5 -->
<g id="node5" class="node">
<title>Node5</title>
<g id="a_node5"><a xlink:href="classsignal__easel_1_1ax25_1_1Frame.html#a63cf2362c2a90d20f09bbbc4f24a07ba" target="_top" xlink:title="Attempt to parse an incoming bit stream into an AX.25 frame.">
<polygon fill="none" stroke="black" points="356.5,-431.5 356.5,-461.5 491.5,-461.5 491.5,-431.5 356.5,-431.5"/>
<text text-anchor="start" x="364.5" y="-449.5" font-family="Helvetica,sans-Serif" font-size="10.00">signal_easel::ax25</text>
<text text-anchor="middle" x="424" y="-438.5" font-family="Helvetica,sans-Serif" font-size="10.00">::Frame::parseBitStream</text>
</a>
</g>
</g>
<!-- Node3&#45;&gt;Node5 -->
<g id="edge4" class="edge">
<title>Node3&#45;&gt;Node5</title>
<path fill="none" stroke="midnightblue" d="M301.01,-446.5C315.79,-446.5 331.3,-446.5 346.12,-446.5"/>
<polygon fill="midnightblue" stroke="midnightblue" points="346.25,-450 356.25,-446.5 346.25,-443 346.25,-450"/>
</g>
<!-- Node6 -->
<g id="node6" class="node">
<title>Node6</title>
<g id="a_node6"><a xlink:href="classsignal__easel_1_1ax25_1_1Frame.html#af86d4b534367a8faf6b628301c9ffceb" target="_top" xlink:title=" ">
<polygon fill="none" stroke="black" points="546.5,-480.5 546.5,-510.5 707.5,-510.5 707.5,-480.5 546.5,-480.5"/>
<text text-anchor="start" x="554.5" y="-498.5" font-family="Helvetica,sans-Serif" font-size="10.00">signal_easel::ax25</text>
<text text-anchor="middle" x="627" y="-487.5" font-family="Helvetica,sans-Serif" font-size="10.00">::Frame::addRepeaterAddress</text>
</a>
</g>
</g>
<!-- Node5&#45;&gt;Node6 -->
<g id="edge5" class="edge">
<title>Node5&#45;&gt;Node6</title>
<path fill="none" stroke="midnightblue" d="M486.67,-461.53C508.09,-466.76 532.28,-472.65 554.43,-478.05"/>
<polygon fill="midnightblue" stroke="midnightblue" points="553.9,-481.53 564.44,-480.49 555.56,-474.72 553.9,-481.53"/>
</g>
<!-- Node11 -->
<g id="node11" class="node">
<title>Node11</title>
<g id="a_node11"><a xlink:href="namespacesignal__easel_1_1ax25.html#a84e1d1bf82ef828a150bc94cf065e396" target="_top" xlink:title="Convert a bit stream from NRZI to standard encoding.">
<polygon fill="none" stroke="black" points="573.5,-259.5 573.5,-289.5 680.5,-289.5 680.5,-259.5 573.5,-259.5"/>
<text text-anchor="start" x="581.5" y="-277.5" font-family="Helvetica,sans-Serif" font-size="10.00">signal_easel::ax25</text>
<text text-anchor="middle" x="627" y="-266.5" font-family="Helvetica,sans-Serif" font-size="10.00">::decodeNrzi</text>
</a>
</g>
</g>
<!-- Node5&#45;&gt;Node11 -->
<g id="edge10" class="edge">
<title>Node5&#45;&gt;Node11</title>
<path fill="none" stroke="midnightblue" d="M442.84,-431.24C478.6,-400.64 559.15,-331.7 600.48,-296.33"/>
<polygon fill="midnightblue" stroke="midnightblue" points="602.88,-298.89 608.2,-289.73 598.33,-293.57 602.88,-298.89"/>
</g>
<!-- Node18 -->
<g id="node18" class="node">
<title>Node18</title>
<g id="a_node18"><a xlink:href="namespacesignal__easel_1_1ax25.html#a1bccc37a6ac48ed9be96218dd46bcb41" target="_top" xlink:title=" ">
<polygon fill="none" stroke="black" points="573.5,-382.5 573.5,-412.5 680.5,-412.5 680.5,-382.5 573.5,-382.5"/>
<text text-anchor="start" x="581.5" y="-400.5" font-family="Helvetica,sans-Serif" font-size="10.00">signal_easel::ax25</text>
<text text-anchor="middle" x="627" y="-389.5" font-family="Helvetica,sans-Serif" font-size="10.00">::deStuffBytes</text>
</a>
</g>
</g>
<!-- Node5&#45;&gt;Node18 -->
<g id="edge18" class="edge">
<title>Node5&#45;&gt;Node18</title>
<path fill="none" stroke="midnightblue" d="M486.67,-431.47C511.01,-425.53 538.95,-418.72 563.38,-412.77"/>
<polygon fill="midnightblue" stroke="midnightblue" points="564.38,-416.13 573.26,-410.36 562.72,-409.32 564.38,-416.13"/>
</g>
<!-- Node21 -->
<g id="node21" class="node">
<title>Node21</title>
<g id="a_node21"><a xlink:href="namespacesignal__easel_1_1ax25.html#aedc3a21287bb20d2f0b01c9a2d6797f3" target="_top" xlink:title="Finds the start flags in the bit stream and removes them.">
<polygon fill="none" stroke="black" points="573.5,-431.5 573.5,-461.5 680.5,-461.5 680.5,-431.5 573.5,-431.5"/>
<text text-anchor="start" x="581.5" y="-449.5" font-family="Helvetica,sans-Serif" font-size="10.00">signal_easel::ax25</text>
<text text-anchor="middle" x="627" y="-438.5" font-family="Helvetica,sans-Serif" font-size="10.00">::findStartFlags</text>
</a>
</g>
</g>
<!-- Node5&#45;&gt;Node21 -->
<g id="edge23" class="edge">
<title>Node5&#45;&gt;Node21</title>
<path fill="none" stroke="midnightblue" d="M491.65,-446.5C514.64,-446.5 540.31,-446.5 563,-446.5"/>
<polygon fill="midnightblue" stroke="midnightblue" points="563.19,-450 573.19,-446.5 563.19,-443 563.19,-450"/>
</g>
<!-- Node24 -->
<g id="node24" class="node">
<title>Node24</title>
<g id="a_node24"><a xlink:href="classsignal__easel_1_1ax25_1_1Frame.html#a57b163ece54317da8d95f3b18b47c23d" target="_top" xlink:title="setters/getters for the frame.">
<polygon fill="none" stroke="black" points="542,-578.5 542,-608.5 712,-608.5 712,-578.5 542,-578.5"/>
<text text-anchor="start" x="550" y="-596.5" font-family="Helvetica,sans-Serif" font-size="10.00">signal_easel::ax25</text>
<text text-anchor="middle" x="627" y="-585.5" font-family="Helvetica,sans-Serif" font-size="10.00">::Frame::setDestinationAddress</text>
</a>
</g>
</g>
<!-- Node5&#45;&gt;Node24 -->
<g id="edge28" class="edge">
<title>Node5&#45;&gt;Node24</title>
<path fill="none" stroke="midnightblue" d="M491.56,-461.21C496.82,-464.05 501.73,-467.45 506,-471.5 539.66,-503.44 508,-537.92 542,-569.5 543.15,-570.56 544.34,-571.58 545.56,-572.55"/>
<polygon fill="midnightblue" stroke="midnightblue" points="543.92,-575.67 554.18,-578.35 547.83,-569.86 543.92,-575.67"/>
</g>
<!-- Node25 -->
<g id="node25" class="node">
<title>Node25</title>
<g id="a_node25"><a xlink:href="classsignal__easel_1_1ax25_1_1Frame.html#a402d26a81f82bb5c477e8930b75a771e" target="_top" xlink:title=" ">
<polygon fill="none" stroke="black" points="554,-529.5 554,-559.5 700,-559.5 700,-529.5 554,-529.5"/>
<text text-anchor="start" x="562" y="-547.5" font-family="Helvetica,sans-Serif" font-size="10.00">signal_easel::ax25</text>
<text text-anchor="middle" x="627" y="-536.5" font-family="Helvetica,sans-Serif" font-size="10.00">::Frame::setSourceAddress</text>
</a>
</g>
</g>
<!-- Node5&#45;&gt;Node25 -->
<g id="edge30" class="edge">
<title>Node5&#45;&gt;Node25</title>
<path fill="none" stroke="midnightblue" d="M488.37,-461.63C494.6,-464.4 500.6,-467.66 506,-471.5 528.02,-487.16 519.82,-505.07 542,-520.5 544.26,-522.07 546.62,-523.54 549.05,-524.91"/>
<polygon fill="midnightblue" stroke="midnightblue" points="547.64,-528.12 558.15,-529.47 550.78,-521.86 547.64,-528.12"/>
</g>
<!-- Node7 -->
<g id="node7" class="node">
<title>Node7</title>
<g id="a_node7"><a xlink:href="classsignal__easel_1_1ax25_1_1Address.html#a7fa6b0ef4241413893f201660991e4ea" target="_top" xlink:title="Checks if the address is valid, if not throws an exception with a specific error code.">
<polygon fill="none" stroke="black" points="757.5,-578.5 757.5,-608.5 887.5,-608.5 887.5,-578.5 757.5,-578.5"/>
<text text-anchor="start" x="765.5" y="-596.5" font-family="Helvetica,sans-Serif" font-size="10.00">signal_easel::ax25</text>
<text text-anchor="middle" x="822.5" y="-585.5" font-family="Helvetica,sans-Serif" font-size="10.00">::Address::assertIsValid</text>
</a>
</g>
</g>
<!-- Node6&#45;&gt;Node7 -->
<g id="edge6" class="edge">
<title>Node6&#45;&gt;Node7</title>
<path fill="none" stroke="midnightblue" d="M694.14,-510.61C700.45,-513.38 706.52,-516.65 712,-520.5 734.1,-536.05 726.11,-553.66 748,-569.5 749.9,-570.87 751.88,-572.17 753.93,-573.4"/>
<polygon fill="midnightblue" stroke="midnightblue" points="752.76,-576.74 763.24,-578.33 756.04,-570.56 752.76,-576.74"/>
</g>
<!-- Node8 -->
<g id="node8" class="node">
<title>Node8</title>
<g id="a_node8"><a xlink:href="classsignal__easel_1_1ax25_1_1Address.html#af34b361f739b7995e7816b7a04465828" target="_top" xlink:title=" ">
<polygon fill="none" stroke="black" points="934,-600 934,-641 1099,-641 1099,-600 934,-600"/>
<text text-anchor="start" x="942" y="-629" font-family="Helvetica,sans-Serif" font-size="10.00">signal_easel::ax25</text>
<text text-anchor="start" x="942" y="-618" font-family="Helvetica,sans-Serif" font-size="10.00">::Address::assertAddressString</text>
<text text-anchor="middle" x="1016.5" y="-607" font-family="Helvetica,sans-Serif" font-size="10.00">IsValid</text>
</a>
</g>
</g>
<!-- Node7&#45;&gt;Node8 -->
<g id="edge7" class="edge">
<title>Node7&#45;&gt;Node8</title>
<path fill="none" stroke="midnightblue" d="M887.7,-602.53C899.28,-604.16 911.56,-605.88 923.75,-607.6"/>
<polygon fill="midnightblue" stroke="midnightblue" points="923.56,-611.11 933.95,-609.03 924.53,-604.17 923.56,-611.11"/>
</g>
<!-- Node9 -->
<g id="node9" class="node">
<title>Node9</title>
<g id="a_node9"><a xlink:href="classsignal__easel_1_1ax25_1_1Address.html#a8b44c6e311d3462bd86eda03c1d384f0" target="_top" xlink:title=" ">
<polygon fill="none" stroke="black" points="941.5,-550.5 941.5,-580.5 1091.5,-580.5 1091.5,-550.5 941.5,-550.5"/>
<text text-anchor="start" x="949.5" y="-568.5" font-family="Helvetica,sans-Serif" font-size="10.00">signal_easel::ax25</text>
<text text-anchor="middle" x="1016.5" y="-557.5" font-family="Helvetica,sans-Serif" font-size="10.00">::Address::assertSsidIsValid</text>
</a>
</g>
</g>
<!-- Node7&#45;&gt;Node9 -->
<g id="edge8" class="edge">
<title>Node7&#45;&gt;Node9</title>
<path fill="none" stroke="midnightblue" d="M887.7,-584.14C901.69,-582.1 916.71,-579.91 931.34,-577.77"/>
<polygon fill="midnightblue" stroke="midnightblue" points="932.01,-581.21 941.4,-576.31 931,-574.29 932.01,-581.21"/>
</g>
<!-- Node10 -->
<g id="node10" class="node">
<title>Node10</title>
<g id="a_node10"><a xlink:href="classsignal__easel_1_1ax25_1_1Address.html#ad66c149737cc4aa52ae9e8860176acf3" target="_top" xlink:title=" ">
<polygon fill="none" stroke="black" points="1144.5,-550.5 1144.5,-580.5 1264.5,-580.5 1264.5,-550.5 1144.5,-550.5"/>
<text text-anchor="start" x="1152.5" y="-568.5" font-family="Helvetica,sans-Serif" font-size="10.00">signal_easel::ax25</text>
<text text-anchor="middle" x="1204.5" y="-557.5" font-family="Helvetica,sans-Serif" font-size="10.00">::Address::isSsidValid</text>
</a>
</g>
</g>
<!-- Node9&#45;&gt;Node10 -->
<g id="edge9" class="edge">
<title>Node9&#45;&gt;Node10</title>
<path fill="none" stroke="midnightblue" d="M1091.55,-565.5C1105.51,-565.5 1120.07,-565.5 1133.9,-565.5"/>
<polygon fill="midnightblue" stroke="midnightblue" points="1134.3,-569 1144.3,-565.5 1134.3,-562 1134.3,-569"/>
</g>
<!-- Node12 -->
<g id="node12" class="node">
<title>Node12</title>
<g id="a_node12"><a xlink:href="classsignal__easel_1_1BitStream.html#a81d4aea4c11f65e0c2b7ad2f0f0cc312" target="_top" xlink:title=" ">
<polygon fill="none" stroke="black" points="756.5,-235.5 756.5,-265.5 888.5,-265.5 888.5,-235.5 756.5,-235.5"/>
<text text-anchor="start" x="764.5" y="-253.5" font-family="Helvetica,sans-Serif" font-size="10.00">signal_easel::BitStream</text>
<text text-anchor="middle" x="822.5" y="-242.5" font-family="Helvetica,sans-Serif" font-size="10.00">::addOneBit</text>
</a>
</g>
</g>
<!-- Node11&#45;&gt;Node12 -->
<g id="edge11" class="edge">
<title>Node11&#45;&gt;Node12</title>
<path fill="none" stroke="midnightblue" d="M680.62,-267.97C700.9,-265.46 724.48,-262.53 746.48,-259.81"/>
<polygon fill="midnightblue" stroke="midnightblue" points="746.96,-263.27 756.45,-258.57 746.1,-256.33 746.96,-263.27"/>
</g>
<!-- Node14 -->
<g id="node14" class="node">
<title>Node14</title>
<g id="a_node14"><a xlink:href="classsignal__easel_1_1BitStream.html#abb315beec8c4d88115d9d4ec5f082863" target="_top" xlink:title=" ">
<polygon fill="none" stroke="black" points="756.5,-186.5 756.5,-216.5 888.5,-216.5 888.5,-186.5 756.5,-186.5"/>
<text text-anchor="start" x="764.5" y="-204.5" font-family="Helvetica,sans-Serif" font-size="10.00">signal_easel::BitStream</text>
<text text-anchor="middle" x="822.5" y="-193.5" font-family="Helvetica,sans-Serif" font-size="10.00">::addZeroBit</text>
</a>
</g>
</g>
<!-- Node11&#45;&gt;Node14 -->
<g id="edge13" class="edge">
<title>Node11&#45;&gt;Node14</title>
<path fill="none" stroke="midnightblue" d="M664.31,-259.4C688.01,-249.69 719.69,-236.97 748,-226.5 753.89,-224.32 760.07,-222.11 766.24,-219.94"/>
<polygon fill="midnightblue" stroke="midnightblue" points="767.59,-223.18 775.89,-216.6 765.29,-216.57 767.59,-223.18"/>
</g>
<!-- Node15 -->
<g id="node15" class="node">
<title>Node15</title>
<g id="a_node15"><a xlink:href="classsignal__easel_1_1BitStream.html#aa97152ef51f73088e103a7951134aa85" target="_top" xlink:title=" ">
<polygon fill="none" stroke="black" points="756.5,-284.5 756.5,-314.5 888.5,-314.5 888.5,-284.5 756.5,-284.5"/>
<text text-anchor="start" x="764.5" y="-302.5" font-family="Helvetica,sans-Serif" font-size="10.00">signal_easel::BitStream</text>
<text text-anchor="middle" x="822.5" y="-291.5" font-family="Helvetica,sans-Serif" font-size="10.00">::getBitStreamLength</text>
</a>
</g>
</g>
<!-- Node11&#45;&gt;Node15 -->
<g id="edge15" class="edge">
<title>Node11&#45;&gt;Node15</title>
<path fill="none" stroke="midnightblue" d="M680.62,-281.3C700.9,-283.92 724.48,-286.96 746.48,-289.81"/>
<polygon fill="midnightblue" stroke="midnightblue" points="746.09,-293.29 756.45,-291.1 746.98,-286.34 746.09,-293.29"/>
</g>
<!-- Node16 -->
<g id="node16" class="node">
<title>Node16</title>
<g id="a_node16"><a xlink:href="classsignal__easel_1_1BitStream.html#a5b5339586e09ca5c25a7e9ded0118ffb" target="_top" xlink:title="Returns the next bit of the bit stream that will be encoded.">
<polygon fill="none" stroke="black" points="756.5,-431.5 756.5,-461.5 888.5,-461.5 888.5,-431.5 756.5,-431.5"/>
<text text-anchor="start" x="764.5" y="-449.5" font-family="Helvetica,sans-Serif" font-size="10.00">signal_easel::BitStream</text>
<text text-anchor="middle" x="822.5" y="-438.5" font-family="Helvetica,sans-Serif" font-size="10.00">::popNextBit</text>
</a>
</g>
</g>
<!-- Node11&#45;&gt;Node16 -->
<g id="edge16" class="edge">
<title>Node11&#45;&gt;Node16</title>
<path fill="none" stroke="midnightblue" d="M641.43,-289.66C658.31,-308.85 687.97,-343.08 712,-373.5 728.75,-394.7 726.11,-406.66 748,-422.5 749.9,-423.87 751.88,-425.17 753.93,-426.4"/>
<polygon fill="midnightblue" stroke="midnightblue" points="752.76,-429.74 763.24,-431.33 756.04,-423.56 752.76,-429.74"/>
</g>
<!-- Node17 -->
<g id="node17" class="node">
<title>Node17</title>
<g id="a_node17"><a xlink:href="classsignal__easel_1_1BitStream.html#a278666dbf58a4792e4f77538ab72b4b6" target="_top" xlink:title="After adding all of the data to the bit stream, this method will write the data left in the buffer.">
<polygon fill="none" stroke="black" points="755.5,-137.5 755.5,-167.5 889.5,-167.5 889.5,-137.5 755.5,-137.5"/>
<text text-anchor="start" x="763.5" y="-155.5" font-family="Helvetica,sans-Serif" font-size="10.00">signal_easel::BitStream</text>
<text text-anchor="middle" x="822.5" y="-144.5" font-family="Helvetica,sans-Serif" font-size="10.00">::pushBufferToBitStream</text>
</a>
</g>
</g>
<!-- Node11&#45;&gt;Node17 -->
<g id="edge17" class="edge">
<title>Node11&#45;&gt;Node17</title>
<path fill="none" stroke="midnightblue" d="M643,-259.38C664.54,-238.42 706.24,-200.52 748,-177.5 751.89,-175.36 756,-173.35 760.2,-171.48"/>
<polygon fill="midnightblue" stroke="midnightblue" points="761.62,-174.68 769.51,-167.61 758.93,-168.22 761.62,-174.68"/>
</g>
<!-- Node13 -->
<g id="node13" class="node">
<title>Node13</title>
<g id="a_node13"><a xlink:href="classsignal__easel_1_1BitStream.html#a9df75eb28c03717c9fad2d30a85de6e6" target="_top" xlink:title=" ">
<polygon fill="none" stroke="black" points="950.5,-210.5 950.5,-240.5 1082.5,-240.5 1082.5,-210.5 950.5,-210.5"/>
<text text-anchor="start" x="958.5" y="-228.5" font-family="Helvetica,sans-Serif" font-size="10.00">signal_easel::BitStream</text>
<text text-anchor="middle" x="1016.5" y="-217.5" font-family="Helvetica,sans-Serif" font-size="10.00">::addBits</text>
</a>
</g>
</g>
<!-- Node12&#45;&gt;Node13 -->
<g id="edge12" class="edge">
<title>Node12&#45;&gt;Node13</title>
<path fill="none" stroke="midnightblue" d="M888.5,-242.04C905.14,-239.87 923.18,-237.52 940.29,-235.29"/>
<polygon fill="midnightblue" stroke="midnightblue" points="940.77,-238.76 950.24,-234 939.87,-231.82 940.77,-238.76"/>
</g>
<!-- Node14&#45;&gt;Node13 -->
<g id="edge14" class="edge">
<title>Node14&#45;&gt;Node13</title>
<path fill="none" stroke="midnightblue" d="M888.5,-209.63C905.14,-211.71 923.18,-213.96 940.29,-216.1"/>
<polygon fill="midnightblue" stroke="midnightblue" points="939.88,-219.57 950.24,-217.34 940.75,-212.63 939.88,-219.57"/>
</g>
<!-- Node18&#45;&gt;Node15 -->
<g id="edge19" class="edge">
<title>Node18&#45;&gt;Node15</title>
<path fill="none" stroke="midnightblue" d="M649.75,-382.26C673.19,-366.32 711.99,-341.33 748,-324.5 752.69,-322.31 757.62,-320.21 762.62,-318.23"/>
<polygon fill="midnightblue" stroke="midnightblue" points="764.17,-321.39 772.28,-314.57 761.69,-314.84 764.17,-321.39"/>
</g>
<!-- Node18&#45;&gt;Node16 -->
<g id="edge21" class="edge">
<title>Node18&#45;&gt;Node16</title>
<path fill="none" stroke="midnightblue" d="M680.62,-410.82C702.65,-416.4 728.57,-422.97 752.13,-428.93"/>
<polygon fill="midnightblue" stroke="midnightblue" points="751.51,-432.39 762.06,-431.45 753.23,-425.6 751.51,-432.39"/>
</g>
<!-- Node19 -->
<g id="node19" class="node">
<title>Node19</title>
<g id="a_node19"><a xlink:href="classsignal__easel_1_1BitStream.html#ad7b803a89b3a53ec1e4108122861a90b" target="_top" xlink:title="Returns the next bit of the bit stream without removing it.">
<polygon fill="none" stroke="black" points="756.5,-382.5 756.5,-412.5 888.5,-412.5 888.5,-382.5 756.5,-382.5"/>
<text text-anchor="start" x="764.5" y="-400.5" font-family="Helvetica,sans-Serif" font-size="10.00">signal_easel::BitStream</text>
<text text-anchor="middle" x="822.5" y="-389.5" font-family="Helvetica,sans-Serif" font-size="10.00">::peakNextBit</text>
</a>
</g>
</g>
<!-- Node18&#45;&gt;Node19 -->
<g id="edge20" class="edge">
<title>Node18&#45;&gt;Node19</title>
<path fill="none" stroke="midnightblue" d="M680.62,-397.5C700.81,-397.5 724.27,-397.5 746.18,-397.5"/>
<polygon fill="midnightblue" stroke="midnightblue" points="746.45,-401 756.45,-397.5 746.45,-394 746.45,-401"/>
</g>
<!-- Node20 -->
<g id="node20" class="node">
<title>Node20</title>
<g id="a_node20"><a xlink:href="namespacesignal__easel_1_1ax25.html#a464aaf0b31941db183dcd08d641a793c" target="_top" xlink:title=" ">
<polygon fill="none" stroke="black" points="769,-333.5 769,-363.5 876,-363.5 876,-333.5 769,-333.5"/>
<text text-anchor="start" x="777" y="-351.5" font-family="Helvetica,sans-Serif" font-size="10.00">signal_easel::ax25</text>
<text text-anchor="middle" x="822.5" y="-340.5" font-family="Helvetica,sans-Serif" font-size="10.00">::reverse_bits</text>
</a>
</g>
</g>
<!-- Node18&#45;&gt;Node20 -->
<g id="edge22" class="edge">
<title>Node18&#45;&gt;Node20</title>
<path fill="none" stroke="midnightblue" d="M680.62,-384.18C704.82,-378.05 733.72,-370.73 759.02,-364.32"/>
<polygon fill="midnightblue" stroke="midnightblue" points="760.06,-367.67 768.89,-361.82 758.34,-360.88 760.06,-367.67"/>
</g>
<!-- Node21&#45;&gt;Node15 -->
<g id="edge24" class="edge">
<title>Node21&#45;&gt;Node15</title>
<path fill="none" stroke="midnightblue" d="M680.79,-439.5C692.15,-435.92 703.33,-430.55 712,-422.5 746,-390.92 714.79,-356.91 748,-324.5 749.48,-323.05 751.05,-321.69 752.69,-320.4"/>
<polygon fill="midnightblue" stroke="midnightblue" points="755.02,-323.06 761.42,-314.61 751.15,-317.23 755.02,-323.06"/>
</g>
<!-- Node21&#45;&gt;Node16 -->
<g id="edge27" class="edge">
<title>Node21&#45;&gt;Node16</title>
<path fill="none" stroke="midnightblue" d="M680.62,-446.5C700.81,-446.5 724.27,-446.5 746.18,-446.5"/>
<polygon fill="midnightblue" stroke="midnightblue" points="746.45,-450 756.45,-446.5 746.45,-443 746.45,-450"/>
</g>
<!-- Node22 -->
<g id="node22" class="node">
<title>Node22</title>
<g id="a_node22"><a xlink:href="classsignal__easel_1_1BitStream.html#a4cf488a318e02146a94d58cbb540fe69" target="_top" xlink:title=" ">
<polygon fill="none" stroke="black" points="756.5,-529.5 756.5,-559.5 888.5,-559.5 888.5,-529.5 756.5,-529.5"/>
<text text-anchor="start" x="764.5" y="-547.5" font-family="Helvetica,sans-Serif" font-size="10.00">signal_easel::BitStream</text>
<text text-anchor="middle" x="822.5" y="-536.5" font-family="Helvetica,sans-Serif" font-size="10.00">::getBitVector</text>
</a>
</g>
</g>
<!-- Node21&#45;&gt;Node22 -->
<g id="edge25" class="edge">
<title>Node21&#45;&gt;Node22</title>
<path fill="none" stroke="midnightblue" d="M680.6,-456.47C691.59,-460.07 702.67,-464.93 712,-471.5 734.1,-487.05 726.11,-504.66 748,-520.5 749.9,-521.87 751.88,-523.17 753.93,-524.4"/>
<polygon fill="midnightblue" stroke="midnightblue" points="752.76,-527.74 763.24,-529.33 756.04,-521.56 752.76,-527.74"/>
</g>
<!-- Node23 -->
<g id="node23" class="node">
<title>Node23</title>
<g id="a_node23"><a xlink:href="classsignal__easel_1_1BitStream.html#a3212a6021fa0e315170f8654c8e1c103" target="_top" xlink:title=" ">
<polygon fill="none" stroke="black" points="756.5,-480.5 756.5,-510.5 888.5,-510.5 888.5,-480.5 756.5,-480.5"/>
<text text-anchor="start" x="764.5" y="-498.5" font-family="Helvetica,sans-Serif" font-size="10.00">signal_easel::BitStream</text>
<text text-anchor="middle" x="822.5" y="-487.5" font-family="Helvetica,sans-Serif" font-size="10.00">::peakNextByte</text>
</a>
</g>
</g>
<!-- Node21&#45;&gt;Node23 -->
<g id="edge26" class="edge">
<title>Node21&#45;&gt;Node23</title>
<path fill="none" stroke="midnightblue" d="M680.62,-459.82C702.65,-465.4 728.57,-471.97 752.13,-477.93"/>
<polygon fill="midnightblue" stroke="midnightblue" points="751.51,-481.39 762.06,-480.45 753.23,-474.6 751.51,-481.39"/>
</g>
<!-- Node24&#45;&gt;Node7 -->
<g id="edge29" class="edge">
<title>Node24&#45;&gt;Node7</title>
<path fill="none" stroke="midnightblue" d="M712.03,-593.5C723.78,-593.5 735.79,-593.5 747.34,-593.5"/>
<polygon fill="midnightblue" stroke="midnightblue" points="747.36,-597 757.36,-593.5 747.36,-590 747.36,-597"/>
</g>
<!-- Node25&#45;&gt;Node7 -->
<g id="edge31" class="edge">
<title>Node25&#45;&gt;Node7</title>
<path fill="none" stroke="midnightblue" d="M687.37,-559.53C707.9,-564.73 731.07,-570.6 752.31,-575.98"/>
<polygon fill="midnightblue" stroke="midnightblue" points="751.69,-579.43 762.24,-578.49 753.41,-572.65 751.69,-579.43"/>
</g>
<!-- Node28 -->
<g id="node28" class="node">
<title>Node28</title>
<g id="a_node28"><a xlink:href="classsignal__easel_1_1afsk_1_1Demodulator.html#a66398f52101a153c5158930c0584f161" target="_top" xlink:title="Takes the raw signal and converts it into the FSK baseband signal.">
<polygon fill="none" stroke="black" points="349.5,-306 349.5,-347 498.5,-347 498.5,-306 349.5,-306"/>
<text text-anchor="start" x="357.5" y="-335" font-family="Helvetica,sans-Serif" font-size="10.00">signal_easel::afsk</text>
<text text-anchor="start" x="357.5" y="-324" font-family="Helvetica,sans-Serif" font-size="10.00">::Demodulator::audioBuffer</text>
<text text-anchor="middle" x="424" y="-313" font-family="Helvetica,sans-Serif" font-size="10.00">ToBaseBandSignal</text>
</a>
</g>
</g>
<!-- Node27&#45;&gt;Node28 -->
<g id="edge34" class="edge">
<title>Node27&#45;&gt;Node28</title>
<path fill="none" stroke="midnightblue" d="M303.56,-326.5C315.23,-326.5 327.31,-326.5 339.1,-326.5"/>
<polygon fill="midnightblue" stroke="midnightblue" points="339.37,-330 349.37,-326.5 339.37,-323 339.37,-330"/>
</g>
<!-- Node36 -->
<g id="node36" class="node">
<title>Node36</title>
<g id="a_node36"><a xlink:href="classsignal__easel_1_1afsk_1_1Demodulator.html#afa479089583504851b2a4a767e397458" target="_top" xlink:title="Takes the base band signal and converts it into a bit stream if the signal is valid.">
<polygon fill="none" stroke="black" points="342,-246 342,-287 506,-287 506,-246 342,-246"/>
<text text-anchor="start" x="350" y="-275" font-family="Helvetica,sans-Serif" font-size="10.00">signal_easel::afsk</text>
<text text-anchor="start" x="350" y="-264" font-family="Helvetica,sans-Serif" font-size="10.00">::Demodulator::baseBandToBit</text>
<text text-anchor="middle" x="424" y="-253" font-family="Helvetica,sans-Serif" font-size="10.00">Stream</text>
</a>
</g>
</g>
<!-- Node27&#45;&gt;Node36 -->
<g id="edge42" class="edge">
<title>Node27&#45;&gt;Node36</title>
<path fill="none" stroke="midnightblue" d="M293.19,-305.94C309.99,-300.83 328.13,-295.32 345.37,-290.08"/>
<polygon fill="midnightblue" stroke="midnightblue" points="346.85,-293.29 355.4,-287.04 344.81,-286.6 346.85,-293.29"/>
</g>
<!-- Node29 -->
<g id="node29" class="node">
<title>Node29</title>
<g id="a_node29"><a xlink:href="namespacesignal__easel.html#a62db979f7f4a67d6a7d263788813e1b9" target="_top" xlink:title="A band&#45;pass filter implementation.">
<polygon fill="none" stroke="black" points="550,-72 550,-91 704,-91 704,-72 550,-72"/>
<text text-anchor="middle" x="627" y="-79" font-family="Helvetica,sans-Serif" font-size="10.00">signal_easel::bandPassFilter</text>
</a>
</g>
</g>
<!-- Node28&#45;&gt;Node29 -->
<g id="edge35" class="edge">
<title>Node28&#45;&gt;Node29</title>
<path fill="none" stroke="midnightblue" d="M492.56,-305.89C497.35,-303.13 501.9,-300.01 506,-296.5 539.2,-268.06 595.95,-147.83 617.43,-100.63"/>
<polygon fill="midnightblue" stroke="midnightblue" points="620.74,-101.8 621.67,-91.24 614.36,-98.92 620.74,-101.8"/>
</g>
<!-- Node30 -->
<g id="node30" class="node">
<title>Node30</title>
<g id="a_node30"><a xlink:href="namespacesignal__easel.html#ab828fd4a325ae3f35f6c4c707ffb6886" target="_top" xlink:title=" ">
<polygon fill="none" stroke="black" points="749.5,-0.5 749.5,-30.5 895.5,-30.5 895.5,-0.5 749.5,-0.5"/>
<text text-anchor="start" x="757.5" y="-18.5" font-family="Helvetica,sans-Serif" font-size="10.00">signal_easel::computeDen</text>
<text text-anchor="middle" x="822.5" y="-7.5" font-family="Helvetica,sans-Serif" font-size="10.00">Coeffs</text>
</a>
</g>
</g>
<!-- Node29&#45;&gt;Node30 -->
<g id="edge36" class="edge">
<title>Node29&#45;&gt;Node30</title>
<path fill="none" stroke="midnightblue" d="M656.12,-71.88C680.44,-63.56 716.53,-51.23 748,-40.5 754.34,-38.34 760.99,-36.07 767.6,-33.83"/>
<polygon fill="midnightblue" stroke="midnightblue" points="768.85,-37.1 777.19,-30.56 766.59,-30.47 768.85,-37.1"/>
</g>
<!-- Node32 -->
<g id="node32" class="node">
<title>Node32</title>
<g id="a_node32"><a xlink:href="namespacesignal__easel.html#a61e5160a96fbff531fdbecf3737f80b9" target="_top" xlink:title=" ">
<polygon fill="none" stroke="black" points="748,-88.5 748,-118.5 897,-118.5 897,-88.5 748,-88.5"/>
<text text-anchor="start" x="756" y="-106.5" font-family="Helvetica,sans-Serif" font-size="10.00">signal_easel::computeNum</text>
<text text-anchor="middle" x="822.5" y="-95.5" font-family="Helvetica,sans-Serif" font-size="10.00">Coeffs</text>
</a>
</g>
</g>
<!-- Node29&#45;&gt;Node32 -->
<g id="edge38" class="edge">
<title>Node29&#45;&gt;Node32</title>
<path fill="none" stroke="midnightblue" d="M704.2,-90.16C715.21,-91.42 726.6,-92.71 737.75,-93.98"/>
<polygon fill="midnightblue" stroke="midnightblue" points="737.57,-97.48 747.9,-95.13 738.36,-90.52 737.57,-97.48"/>
</g>
<!-- Node35 -->
<g id="node35" class="node">
<title>Node35</title>
<g id="a_node35"><a xlink:href="namespacesignal__easel.html#a24d8e6d8aa467d22058b77158b2f137a" target="_top" xlink:title=" ">
<polygon fill="none" stroke="black" points="769.5,-50 769.5,-69 875.5,-69 875.5,-50 769.5,-50"/>
<text text-anchor="middle" x="822.5" y="-57" font-family="Helvetica,sans-Serif" font-size="10.00">signal_easel::filter</text>
</a>
</g>
</g>
<!-- Node29&#45;&gt;Node35 -->
<g id="edge41" class="edge">
<title>Node29&#45;&gt;Node35</title>
<path fill="none" stroke="midnightblue" d="M704.2,-72.84C722.41,-70.77 741.64,-68.58 759.15,-66.59"/>
<polygon fill="midnightblue" stroke="midnightblue" points="759.69,-70.05 769.23,-65.44 758.9,-63.09 759.69,-70.05"/>
</g>
<!-- Node31 -->
<g id="node31" class="node">
<title>Node31</title>
<g id="a_node31"><a xlink:href="namespacesignal__easel.html#a52622d8b5a12dedeb59e5442e887a8e5" target="_top" xlink:title=" ">
<polygon fill="none" stroke="black" points="933,-6 933,-25 1100,-25 1100,-6 933,-6"/>
<text text-anchor="middle" x="1016.5" y="-13" font-family="Helvetica,sans-Serif" font-size="10.00">signal_easel::trinomialMultiply</text>
</a>
</g>
</g>
<!-- Node30&#45;&gt;Node31 -->
<g id="edge37" class="edge">
<title>Node30&#45;&gt;Node31</title>
<path fill="none" stroke="midnightblue" d="M895.54,-15.5C904.35,-15.5 913.45,-15.5 922.52,-15.5"/>
<polygon fill="midnightblue" stroke="midnightblue" points="922.72,-19 932.72,-15.5 922.72,-12 922.72,-19"/>
</g>
<!-- Node33 -->
<g id="node33" class="node">
<title>Node33</title>
<g id="a_node33"><a xlink:href="namespacesignal__easel.html#aec86a114666943d1400f780edb69eab0" target="_top" xlink:title=" ">
<polygon fill="none" stroke="black" points="946.5,-94 946.5,-113 1086.5,-113 1086.5,-94 946.5,-94"/>
<text text-anchor="middle" x="1016.5" y="-101" font-family="Helvetica,sans-Serif" font-size="10.00">signal_easel::computeHP</text>
</a>
</g>
</g>
<!-- Node32&#45;&gt;Node33 -->
<g id="edge39" class="edge">
<title>Node32&#45;&gt;Node33</title>
<path fill="none" stroke="midnightblue" d="M897.18,-103.5C909.95,-103.5 923.27,-103.5 936.18,-103.5"/>
<polygon fill="midnightblue" stroke="midnightblue" points="936.43,-107 946.43,-103.5 936.43,-100 936.43,-107"/>
</g>
<!-- Node34 -->
<g id="node34" class="node">
<title>Node34</title>
<g id="a_node34"><a xlink:href="namespacesignal__easel.html#a6049a00d790189b698bd2dfb04885a31" target="_top" xlink:title=" ">
<polygon fill="none" stroke="black" points="1136,-94 1136,-113 1273,-113 1273,-94 1136,-94"/>
<text text-anchor="middle" x="1204.5" y="-101" font-family="Helvetica,sans-Serif" font-size="10.00">signal_easel::computeLP</text>
</a>
</g>
</g>
<!-- Node33&#45;&gt;Node34 -->
<g id="edge40" class="edge">
<title>Node33&#45;&gt;Node34</title>
<path fill="none" stroke="midnightblue" d="M1086.76,-103.5C1099.39,-103.5 1112.65,-103.5 1125.52,-103.5"/>
<polygon fill="midnightblue" stroke="midnightblue" points="1125.73,-107 1135.73,-103.5 1125.73,-100 1125.73,-107"/>
</g>
</g>
</svg>
