<?xml version="1.0" encoding="UTF-8" standalone="no"?>
<!DOCTYPE svg PUBLIC "-//W3C//DTD SVG 1.1//EN"
 "http://www.w3.org/Graphics/SVG/1.1/DTD/svg11.dtd">
<!-- Generated by graphviz version 2.43.0 (0)
 -->
<!-- Title: signal_easel::ax25::Address::assertIsValid Pages: 1 -->
<svg width="1171pt" height="244pt"
 viewBox="0.00 0.00 1171.00 244.00" xmlns="http://www.w3.org/2000/svg" xmlns:xlink="http://www.w3.org/1999/xlink">
<g id="graph0" class="graph" transform="scale(1 1) rotate(0) translate(4 240)">
<title>signal_easel::ax25::Address::assertIsValid</title>
<!-- Node1 -->
<g id="node1" class="node">
<title>Node1</title>
<g id="a_node1"><a xlink:title="Checks if the address is valid, if not throws an exception with a specific error code.">
<polygon fill="#bfbfbf" stroke="black" points="1033,-98.5 1033,-128.5 1163,-128.5 1163,-98.5 1033,-98.5"/>
<text text-anchor="start" x="1041" y="-116.5" font-family="Helvetica,sans-Serif" font-size="10.00">signal_easel::ax25</text>
<text text-anchor="middle" x="1098" y="-105.5" font-family="Helvetica,sans-Serif" font-size="10.00">::Address::assertIsValid</text>
</a>
</g>
</g>
<!-- Node2 -->
<g id="node2" class="node">
<title>Node2</title>
<g id="a_node2"><a xlink:href="classsignal__easel_1_1ax25_1_1Frame.html#af86d4b534367a8faf6b628301c9ffceb" target="_top" xlink:title=" ">
<polygon fill="none" stroke="black" points="831.5,-0.5 831.5,-30.5 992.5,-30.5 992.5,-0.5 831.5,-0.5"/>
<text text-anchor="start" x="839.5" y="-18.5" font-family="Helvetica,sans-Serif" font-size="10.00">signal_easel::ax25</text>
<text text-anchor="middle" x="912" y="-7.5" font-family="Helvetica,sans-Serif" font-size="10.00">::Frame::addRepeaterAddress</text>
</a>
</g>
</g>
<!-- Node1&#45;&gt;Node2 -->
<g id="edge1" class="edge">
<title>Node1&#45;&gt;Node2</title>
<path fill="none" stroke="midnightblue" d="M1072.85,-91.72C1053.54,-75.32 1025.14,-53.36 997,-39.5 990.2,-36.15 982.85,-33.19 975.42,-30.6"/>
<polygon fill="midnightblue" stroke="midnightblue" points="1070.68,-94.47 1080.54,-98.37 1075.26,-89.18 1070.68,-94.47"/>
</g>
<!-- Node7 -->
<g id="node7" class="node">
<title>Node7</title>
<g id="a_node7"><a xlink:href="classsignal__easel_1_1ax25_1_1Address.html#a0c31737081a9184b56dc32150b23cb0a" target="_top" xlink:title="Get the address as a byte array.">
<polygon fill="none" stroke="black" points="841,-186.5 841,-216.5 983,-216.5 983,-186.5 841,-186.5"/>
<text text-anchor="start" x="849" y="-204.5" font-family="Helvetica,sans-Serif" font-size="10.00">signal_easel::ax25</text>
<text text-anchor="middle" x="912" y="-193.5" font-family="Helvetica,sans-Serif" font-size="10.00">::Address::encodeAddress</text>
</a>
</g>
</g>
<!-- Node1&#45;&gt;Node7 -->
<g id="edge6" class="edge">
<title>Node1&#45;&gt;Node7</title>
<path fill="none" stroke="midnightblue" d="M1065.15,-133.98C1045.89,-145.85 1020.58,-160.56 997,-171.5 985.2,-176.97 972.1,-182.08 959.82,-186.48"/>
<polygon fill="midnightblue" stroke="midnightblue" points="1067.18,-136.84 1073.81,-128.58 1063.47,-130.9 1067.18,-136.84"/>
</g>
<!-- Node14 -->
<g id="node14" class="node">
<title>Node14</title>
<g id="a_node14"><a xlink:href="classsignal__easel_1_1ax25_1_1Frame.html#a57b163ece54317da8d95f3b18b47c23d" target="_top" xlink:title="setters/getters for the frame.">
<polygon fill="none" stroke="black" points="827,-49.5 827,-79.5 997,-79.5 997,-49.5 827,-49.5"/>
<text text-anchor="start" x="835" y="-67.5" font-family="Helvetica,sans-Serif" font-size="10.00">signal_easel::ax25</text>
<text text-anchor="middle" x="912" y="-56.5" font-family="Helvetica,sans-Serif" font-size="10.00">::Frame::setDestinationAddress</text>
</a>
</g>
</g>
<!-- Node1&#45;&gt;Node14 -->
<g id="edge14" class="edge">
<title>Node1&#45;&gt;Node14</title>
<path fill="none" stroke="midnightblue" d="M1030.82,-95.88C1010.69,-90.52 988.77,-84.68 969.35,-79.51"/>
<polygon fill="midnightblue" stroke="midnightblue" points="1029.98,-99.27 1040.54,-98.47 1031.78,-92.51 1029.98,-99.27"/>
</g>
<!-- Node16 -->
<g id="node16" class="node">
<title>Node16</title>
<g id="a_node16"><a xlink:href="ax25__frame__test_8cpp.html#a091d83d42783f2a0b3fd33a0521dc2ce" target="_top" xlink:title=" ">
<polygon fill="none" stroke="black" points="697.5,-129 697.5,-148 738.5,-148 738.5,-129 697.5,-129"/>
<text text-anchor="middle" x="718" y="-136" font-family="Helvetica,sans-Serif" font-size="10.00">TEST</text>
</a>
</g>
</g>
<!-- Node1&#45;&gt;Node16 -->
<g id="edge23" class="edge">
<title>Node1&#45;&gt;Node16</title>
<path fill="none" stroke="midnightblue" d="M1037.22,-130.97C1024.09,-134.1 1010.16,-136.88 997,-138.5 900.72,-150.35 784.25,-143.59 738.65,-140.14"/>
<polygon fill="midnightblue" stroke="midnightblue" points="1038.23,-134.33 1047.09,-128.53 1036.54,-127.54 1038.23,-134.33"/>
</g>
<!-- Node17 -->
<g id="node17" class="node">
<title>Node17</title>
<g id="a_node17"><a xlink:href="classsignal__easel_1_1ax25_1_1Frame.html#a402d26a81f82bb5c477e8930b75a771e" target="_top" xlink:title=" ">
<polygon fill="none" stroke="black" points="839,-98.5 839,-128.5 985,-128.5 985,-98.5 839,-98.5"/>
<text text-anchor="start" x="847" y="-116.5" font-family="Helvetica,sans-Serif" font-size="10.00">signal_easel::ax25</text>
<text text-anchor="middle" x="912" y="-105.5" font-family="Helvetica,sans-Serif" font-size="10.00">::Frame::setSourceAddress</text>
</a>
</g>
</g>
<!-- Node1&#45;&gt;Node17 -->
<g id="edge19" class="edge">
<title>Node1&#45;&gt;Node17</title>
<path fill="none" stroke="midnightblue" d="M1022.62,-113.5C1010.22,-113.5 997.38,-113.5 985.05,-113.5"/>
<polygon fill="midnightblue" stroke="midnightblue" points="1022.9,-117 1032.9,-113.5 1022.9,-110 1022.9,-117"/>
</g>
<!-- Node3 -->
<g id="node3" class="node">
<title>Node3</title>
<g id="a_node3"><a xlink:href="classsignal__easel_1_1ax25_1_1Frame.html#a63cf2362c2a90d20f09bbbc4f24a07ba" target="_top" xlink:title="Attempt to parse an incoming bit stream into an AX.25 frame.">
<polygon fill="none" stroke="black" points="650.5,-30.5 650.5,-60.5 785.5,-60.5 785.5,-30.5 650.5,-30.5"/>
<text text-anchor="start" x="658.5" y="-48.5" font-family="Helvetica,sans-Serif" font-size="10.00">signal_easel::ax25</text>
<text text-anchor="middle" x="718" y="-37.5" font-family="Helvetica,sans-Serif" font-size="10.00">::Frame::parseBitStream</text>
</a>
</g>
</g>
<!-- Node2&#45;&gt;Node3 -->
<g id="edge2" class="edge">
<title>Node2&#45;&gt;Node3</title>
<path fill="none" stroke="midnightblue" d="M821.24,-29.52C809.28,-31.39 797.18,-33.28 785.71,-35.08"/>
<polygon fill="midnightblue" stroke="midnightblue" points="821.9,-32.96 831.24,-27.96 820.82,-26.05 821.9,-32.96"/>
</g>
<!-- Node4 -->
<g id="node4" class="node">
<title>Node4</title>
<g id="a_node4"><a xlink:href="classsignal__easel_1_1aprs_1_1Demodulator.html#ae5a8e7634c1bc8d215a0c454a9a737fa" target="_top" xlink:title=" ">
<polygon fill="none" stroke="black" points="456,-25 456,-66 609,-66 609,-25 456,-25"/>
<text text-anchor="start" x="464" y="-54" font-family="Helvetica,sans-Serif" font-size="10.00">signal_easel::aprs</text>
<text text-anchor="start" x="464" y="-43" font-family="Helvetica,sans-Serif" font-size="10.00">::Demodulator::lookForAx25</text>
<text text-anchor="middle" x="532.5" y="-32" font-family="Helvetica,sans-Serif" font-size="10.00">Packet</text>
</a>
</g>
</g>
<!-- Node3&#45;&gt;Node4 -->
<g id="edge3" class="edge">
<title>Node3&#45;&gt;Node4</title>
<path fill="none" stroke="midnightblue" d="M640.29,-45.5C629.98,-45.5 619.41,-45.5 609.11,-45.5"/>
<polygon fill="midnightblue" stroke="midnightblue" points="640.49,-49 650.49,-45.5 640.49,-42 640.49,-49"/>
</g>
<!-- Node5 -->
<g id="node5" class="node">
<title>Node5</title>
<g id="a_node5"><a xlink:href="classsignal__easel_1_1aprs_1_1Receiver.html#afbf7869aceaf2ea7ab0be8b9af16e818" target="_top" xlink:title=" ">
<polygon fill="none" stroke="black" points="291.5,-55.5 291.5,-85.5 398.5,-85.5 398.5,-55.5 291.5,-55.5"/>
<text text-anchor="start" x="299.5" y="-73.5" font-family="Helvetica,sans-Serif" font-size="10.00">signal_easel::aprs</text>
<text text-anchor="middle" x="345" y="-62.5" font-family="Helvetica,sans-Serif" font-size="10.00">::Receiver::decode</text>
</a>
</g>
</g>
<!-- Node4&#45;&gt;Node5 -->
<g id="edge4" class="edge">
<title>Node4&#45;&gt;Node5</title>
<path fill="none" stroke="midnightblue" d="M445.79,-57.05C429.66,-59.23 413.24,-61.44 398.51,-63.42"/>
<polygon fill="midnightblue" stroke="midnightblue" points="446.34,-60.51 455.78,-55.7 445.4,-53.57 446.34,-60.51"/>
</g>
<!-- Node6 -->
<g id="node6" class="node">
<title>Node6</title>
<g id="a_node6"><a xlink:href="aprs__test_8cpp.html#aea66d1824e3f1e27598adf99ac6a089a" target="_top" xlink:title=" ">
<polygon fill="none" stroke="black" points="0,-71 0,-90 41,-90 41,-71 0,-71"/>
<text text-anchor="middle" x="20.5" y="-78" font-family="Helvetica,sans-Serif" font-size="10.00">TEST</text>
</a>
</g>
</g>
<!-- Node4&#45;&gt;Node6 -->
<g id="edge5" class="edge">
<title>Node4&#45;&gt;Node6</title>
<path fill="none" stroke="midnightblue" d="M445.8,-31.59C352.92,-19.68 201.34,-9.57 77,-45.5 59.93,-50.43 43.05,-62.35 32.47,-70.91"/>
<polygon fill="midnightblue" stroke="midnightblue" points="445.34,-35.06 455.72,-32.89 446.26,-28.12 445.34,-35.06"/>
</g>
<!-- Node8 -->
<g id="node8" class="node">
<title>Node8</title>
<g id="a_node8"><a xlink:href="classsignal__easel_1_1ax25_1_1Frame.html#a24e7d5ffc6504a3380e97142d1bc084e" target="_top" xlink:title="Builds all internal portions of the frame. Doesn&#39;t include the flags.">
<polygon fill="none" stroke="black" points="661,-205.5 661,-235.5 775,-235.5 775,-205.5 661,-205.5"/>
<text text-anchor="start" x="669" y="-223.5" font-family="Helvetica,sans-Serif" font-size="10.00">signal_easel::ax25</text>
<text text-anchor="middle" x="718" y="-212.5" font-family="Helvetica,sans-Serif" font-size="10.00">::Frame::buildFrame</text>
</a>
</g>
</g>
<!-- Node7&#45;&gt;Node8 -->
<g id="edge7" class="edge">
<title>Node7&#45;&gt;Node8</title>
<path fill="none" stroke="midnightblue" d="M830.86,-209.43C812.13,-211.28 792.56,-213.22 775.13,-214.95"/>
<polygon fill="midnightblue" stroke="midnightblue" points="831.26,-212.91 840.87,-208.44 830.57,-205.94 831.26,-212.91"/>
</g>
<!-- Node13 -->
<g id="node13" class="node">
<title>Node13</title>
<g id="a_node13"><a xlink:href="ax25__address__test_8cpp.html#a1d87028368532ba4ae914da9397571d3" target="_top" xlink:title=" ">
<polygon fill="none" stroke="black" points="697.5,-167 697.5,-186 738.5,-186 738.5,-167 697.5,-167"/>
<text text-anchor="middle" x="718" y="-174" font-family="Helvetica,sans-Serif" font-size="10.00">TEST</text>
</a>
</g>
</g>
<!-- Node7&#45;&gt;Node13 -->
<g id="edge13" class="edge">
<title>Node7&#45;&gt;Node13</title>
<path fill="none" stroke="midnightblue" d="M830.94,-191.08C797.08,-186.67 760.5,-181.9 738.69,-179.06"/>
<polygon fill="midnightblue" stroke="midnightblue" points="830.5,-194.55 840.87,-192.37 831.4,-187.61 830.5,-194.55"/>
</g>
<!-- Node9 -->
<g id="node9" class="node">
<title>Node9</title>
<g id="a_node9"><a xlink:href="classsignal__easel_1_1ax25_1_1Frame.html#a2b4f6ebcb7592a7e5a21114c8fafa503" target="_top" xlink:title="A step beyond buildFrame. This function builds the frame, does the bit stuffing, adds the flags,...">
<polygon fill="none" stroke="black" points="470,-171.5 470,-201.5 595,-201.5 595,-171.5 470,-171.5"/>
<text text-anchor="start" x="478" y="-189.5" font-family="Helvetica,sans-Serif" font-size="10.00">signal_easel::ax25</text>
<text text-anchor="middle" x="532.5" y="-178.5" font-family="Helvetica,sans-Serif" font-size="10.00">::Frame::encodeFrame</text>
</a>
</g>
</g>
<!-- Node8&#45;&gt;Node9 -->
<g id="edge8" class="edge">
<title>Node8&#45;&gt;Node9</title>
<path fill="none" stroke="midnightblue" d="M651.02,-208.28C632.85,-204.91 613.21,-201.27 595.29,-197.95"/>
<polygon fill="midnightblue" stroke="midnightblue" points="650.48,-211.73 660.95,-210.11 651.75,-204.85 650.48,-211.73"/>
</g>
<!-- Node10 -->
<g id="node10" class="node">
<title>Node10</title>
<g id="a_node10"><a xlink:href="namespacesignal__easel.html#aad3ffdd47a4a03ed438e8c1ca9eef231" target="_top" xlink:title=" ">
<polygon fill="none" stroke="black" points="270,-115 270,-134 420,-134 420,-115 270,-115"/>
<text text-anchor="middle" x="345" y="-122" font-family="Helvetica,sans-Serif" font-size="10.00">signal_easel::encodePacket</text>
</a>
</g>
</g>
<!-- Node9&#45;&gt;Node10 -->
<g id="edge9" class="edge">
<title>Node9&#45;&gt;Node10</title>
<path fill="none" stroke="midnightblue" d="M476.92,-168.26C443.4,-157.05 401.81,-143.15 374.62,-134.07"/>
<polygon fill="midnightblue" stroke="midnightblue" points="476,-171.64 486.6,-171.49 478.22,-165 476,-171.64"/>
</g>
<!-- Node11 -->
<g id="node11" class="node">
<title>Node11</title>
<g id="a_node11"><a xlink:href="classsignal__easel_1_1aprs_1_1Modulator.html#a147321b48c2e282c62863f114702e54f" target="_top" xlink:title=" ">
<polygon fill="none" stroke="black" points="77,-115 77,-156 234,-156 234,-115 77,-115"/>
<text text-anchor="start" x="85" y="-144" font-family="Helvetica,sans-Serif" font-size="10.00">signal_easel::aprs</text>
<text text-anchor="start" x="85" y="-133" font-family="Helvetica,sans-Serif" font-size="10.00">::Modulator::encodeMessage</text>
<text text-anchor="middle" x="155.5" y="-122" font-family="Helvetica,sans-Serif" font-size="10.00">Packet</text>
</a>
</g>
</g>
<!-- Node10&#45;&gt;Node11 -->
<g id="edge10" class="edge">
<title>Node10&#45;&gt;Node11</title>
<path fill="none" stroke="midnightblue" d="M259.88,-129.44C251.29,-129.94 242.59,-130.45 234.07,-130.95"/>
<polygon fill="midnightblue" stroke="midnightblue" points="260.12,-132.93 269.9,-128.85 259.71,-125.94 260.12,-132.93"/>
</g>
<!-- Node12 -->
<g id="node12" class="node">
<title>Node12</title>
<g id="a_node12"><a xlink:href="classsignal__easel_1_1aprs_1_1Modulator.html#a943e392227656943d7db842e1889d805" target="_top" xlink:title=" ">
<polygon fill="none" stroke="black" points="79.5,-55 79.5,-96 231.5,-96 231.5,-55 79.5,-55"/>
<text text-anchor="start" x="87.5" y="-84" font-family="Helvetica,sans-Serif" font-size="10.00">signal_easel::aprs</text>
<text text-anchor="start" x="87.5" y="-73" font-family="Helvetica,sans-Serif" font-size="10.00">::Modulator::encodePosition</text>
<text text-anchor="middle" x="155.5" y="-62" font-family="Helvetica,sans-Serif" font-size="10.00">Packet</text>
</a>
</g>
</g>
<!-- Node10&#45;&gt;Node12 -->
<g id="edge12" class="edge">
<title>Node10&#45;&gt;Node12</title>
<path fill="none" stroke="midnightblue" d="M297.69,-112.4C277.81,-107.2 254.08,-101 231.79,-95.18"/>
<polygon fill="midnightblue" stroke="midnightblue" points="296.84,-115.79 307.4,-114.94 298.61,-109.02 296.84,-115.79"/>
</g>
<!-- Node11&#45;&gt;Node6 -->
<g id="edge11" class="edge">
<title>Node11&#45;&gt;Node6</title>
<path fill="none" stroke="midnightblue" d="M90.63,-111.09C86.01,-109.23 81.43,-107.35 77,-105.5 65.01,-100.48 51.73,-94.52 41.17,-89.67"/>
<polygon fill="midnightblue" stroke="midnightblue" points="89.57,-114.43 100.15,-114.89 92.16,-107.93 89.57,-114.43"/>
</g>
<!-- Node14&#45;&gt;Node3 -->
<g id="edge17" class="edge">
<title>Node14&#45;&gt;Node3</title>
<path fill="none" stroke="midnightblue" d="M816.72,-55.17C806.19,-54.13 795.63,-53.08 785.55,-52.09"/>
<polygon fill="midnightblue" stroke="midnightblue" points="816.49,-58.66 826.79,-56.17 817.18,-51.7 816.49,-58.66"/>
</g>
<!-- Node15 -->
<g id="node15" class="node">
<title>Node15</title>
<g id="a_node15"><a xlink:href="namespacesignal__easel.html#ada24f00bb5d1a1bb97976967185c7526" target="_top" xlink:title=" ">
<polygon fill="none" stroke="black" points="645,-79.5 645,-109.5 791,-109.5 791,-79.5 645,-79.5"/>
<text text-anchor="start" x="653" y="-97.5" font-family="Helvetica,sans-Serif" font-size="10.00">signal_easel::AddRequired</text>
<text text-anchor="middle" x="718" y="-86.5" font-family="Helvetica,sans-Serif" font-size="10.00">Fields</text>
</a>
</g>
</g>
<!-- Node14&#45;&gt;Node15 -->
<g id="edge15" class="edge">
<title>Node14&#45;&gt;Node15</title>
<path fill="none" stroke="midnightblue" d="M816.71,-79.23C808.11,-80.58 799.49,-81.92 791.13,-83.23"/>
<polygon fill="midnightblue" stroke="midnightblue" points="817.45,-82.66 826.79,-77.66 816.37,-75.74 817.45,-82.66"/>
</g>
<!-- Node14&#45;&gt;Node16 -->
<g id="edge18" class="edge">
<title>Node14&#45;&gt;Node16</title>
<path fill="none" stroke="midnightblue" d="M840.24,-83.24C835.67,-85.15 831.22,-87.24 827,-89.5 808.64,-99.34 809.51,-109.95 791,-119.5 774.46,-128.04 753.74,-132.98 738.79,-135.67"/>
<polygon fill="midnightblue" stroke="midnightblue" points="841.67,-86.44 849.72,-79.54 839.13,-79.91 841.67,-86.44"/>
</g>
<!-- Node15&#45;&gt;Node10 -->
<g id="edge16" class="edge">
<title>Node15&#45;&gt;Node10</title>
<path fill="none" stroke="midnightblue" d="M634.5,-101.17C570.33,-106.36 482.08,-113.5 420.14,-118.51"/>
<polygon fill="midnightblue" stroke="midnightblue" points="634.9,-104.65 644.59,-100.36 634.34,-97.67 634.9,-104.65"/>
</g>
<!-- Node17&#45;&gt;Node3 -->
<g id="edge21" class="edge">
<title>Node17&#45;&gt;Node3</title>
<path fill="none" stroke="midnightblue" d="M842.57,-95.24C837.26,-93.43 832.01,-91.51 827,-89.5 810.21,-82.76 807.59,-77.71 791,-70.5 782.99,-67.02 774.32,-63.67 765.87,-60.62"/>
<polygon fill="midnightblue" stroke="midnightblue" points="841.59,-98.6 852.18,-98.38 843.76,-91.95 841.59,-98.6"/>
</g>
<!-- Node17&#45;&gt;Node15 -->
<g id="edge20" class="edge">
<title>Node17&#45;&gt;Node15</title>
<path fill="none" stroke="midnightblue" d="M828.96,-105.38C816.38,-104.14 803.47,-102.86 791.12,-101.64"/>
<polygon fill="midnightblue" stroke="midnightblue" points="828.66,-108.87 838.96,-106.37 829.35,-101.9 828.66,-108.87"/>
</g>
<!-- Node17&#45;&gt;Node16 -->
<g id="edge22" class="edge">
<title>Node17&#45;&gt;Node16</title>
<path fill="none" stroke="midnightblue" d="M828.74,-124.21C795.5,-128.54 760.03,-133.16 738.69,-135.94"/>
<polygon fill="midnightblue" stroke="midnightblue" points="829.5,-127.64 838.96,-122.88 828.59,-120.7 829.5,-127.64"/>
</g>
</g>
</svg>
