<?xml version="1.0" encoding="UTF-8" standalone="no"?>
<!DOCTYPE svg PUBLIC "-//W3C//DTD SVG 1.1//EN"
 "http://www.w3.org/Graphics/SVG/1.1/DTD/svg11.dtd">
<!-- Generated by graphviz version 2.43.0 (0)
 -->
<!-- Title: signal_easel::aprs::telemetry::TelemetryTranscoder::encodeUnitAndLabelMessage Pages: 1 -->
<svg width="514pt" height="50pt"
 viewBox="0.00 0.00 514.00 50.00" xmlns="http://www.w3.org/2000/svg" xmlns:xlink="http://www.w3.org/1999/xlink">
<g id="graph0" class="graph" transform="scale(1 1) rotate(0) translate(4 46)">
<title>signal_easel::aprs::telemetry::TelemetryTranscoder::encodeUnitAndLabelMessage</title>
<!-- Node1 -->
<g id="node1" class="node">
<title>Node1</title>
<g id="a_node1"><a xlink:title="Encodes the parameter units and labels into a message.">
<polygon fill="#bfbfbf" stroke="black" points="329,-0.5 329,-41.5 506,-41.5 506,-0.5 329,-0.5"/>
<text text-anchor="start" x="337" y="-29.5" font-family="Helvetica,sans-Serif" font-size="10.00">signal_easel::aprs</text>
<text text-anchor="start" x="337" y="-18.5" font-family="Helvetica,sans-Serif" font-size="10.00">::telemetry::TelemetryTranscoder</text>
<text text-anchor="middle" x="417.5" y="-7.5" font-family="Helvetica,sans-Serif" font-size="10.00">::encodeUnitAndLabelMessage</text>
</a>
</g>
</g>
<!-- Node2 -->
<g id="node2" class="node">
<title>Node2</title>
<g id="a_node2"><a xlink:href="structsignal__easel_1_1aprs_1_1TelemetryPacket.html#a6098e85ae94eded273fcf84adbdcdf35" target="_top" xlink:title=" ">
<polygon fill="none" stroke="black" points="149,-6 149,-36 293,-36 293,-6 149,-6"/>
<text text-anchor="start" x="157" y="-24" font-family="Helvetica,sans-Serif" font-size="10.00">signal_easel::aprs</text>
<text text-anchor="middle" x="221" y="-13" font-family="Helvetica,sans-Serif" font-size="10.00">::TelemetryPacket::encode</text>
</a>
</g>
</g>
<!-- Node1&#45;&gt;Node2 -->
<g id="edge1" class="edge">
<title>Node1&#45;&gt;Node2</title>
<path fill="none" stroke="midnightblue" d="M318.77,-21C310.11,-21 301.45,-21 293.07,-21"/>
<polygon fill="midnightblue" stroke="midnightblue" points="318.92,-24.5 328.92,-21 318.92,-17.5 318.92,-24.5"/>
</g>
<!-- Node3 -->
<g id="node3" class="node">
<title>Node3</title>
<g id="a_node3"><a xlink:href="classsignal__easel_1_1aprs_1_1Modulator.html#a5620d9527654c44810aeffe98e1aade4" target="_top" xlink:title=" ">
<polygon fill="none" stroke="black" points="0,-6 0,-36 113,-36 113,-6 0,-6"/>
<text text-anchor="start" x="8" y="-24" font-family="Helvetica,sans-Serif" font-size="10.00">signal_easel::aprs</text>
<text text-anchor="middle" x="56.5" y="-13" font-family="Helvetica,sans-Serif" font-size="10.00">::Modulator::encode</text>
</a>
</g>
</g>
<!-- Node2&#45;&gt;Node3 -->
<g id="edge2" class="edge">
<title>Node2&#45;&gt;Node3</title>
<path fill="none" stroke="midnightblue" d="M138.61,-21C129.97,-21 121.33,-21 113.09,-21"/>
<polygon fill="midnightblue" stroke="midnightblue" points="138.73,-24.5 148.73,-21 138.73,-17.5 138.73,-24.5"/>
</g>
</g>
</svg>
