<?xml version="1.0" encoding="UTF-8" standalone="no"?>
<!DOCTYPE svg PUBLIC "-//W3C//DTD SVG 1.1//EN"
 "http://www.w3.org/Graphics/SVG/1.1/DTD/svg11.dtd">
<!-- Generated by graphviz version 2.43.0 (0)
 -->
<!-- Title: signal_easel::ax25::Frame::getInformationRef Pages: 1 -->
<svg width="692pt" height="88pt"
 viewBox="0.00 0.00 692.00 88.00" xmlns="http://www.w3.org/2000/svg" xmlns:xlink="http://www.w3.org/1999/xlink">
<g id="graph0" class="graph" transform="scale(1 1) rotate(0) translate(4 84)">
<title>signal_easel::ax25::Frame::getInformationRef</title>
<!-- Node1 -->
<g id="node1" class="node">
<title>Node1</title>
<g id="a_node1"><a xlink:title="Get a reference to the information field.">
<polygon fill="#bfbfbf" stroke="black" points="535,-19 535,-49 684,-49 684,-19 535,-19"/>
<text text-anchor="start" x="543" y="-37" font-family="Helvetica,sans-Serif" font-size="10.00">signal_easel::ax25</text>
<text text-anchor="middle" x="609.5" y="-26" font-family="Helvetica,sans-Serif" font-size="10.00">::Frame::getInformationRef</text>
</a>
</g>
</g>
<!-- Node2 -->
<g id="node2" class="node">
<title>Node2</title>
<g id="a_node2"><a xlink:href="classsignal__easel_1_1aprs_1_1Demodulator.html#a97af61f7afb63db275020ba523abcc3a" target="_top" xlink:title="If the packet was a telemetry packet, this function will try to parse the packet and populate the tel...">
<polygon fill="none" stroke="black" points="331,-13.5 331,-54.5 499,-54.5 499,-13.5 331,-13.5"/>
<text text-anchor="start" x="339" y="-42.5" font-family="Helvetica,sans-Serif" font-size="10.00">signal_easel::aprs</text>
<text text-anchor="start" x="339" y="-31.5" font-family="Helvetica,sans-Serif" font-size="10.00">::Demodulator::parseTelemetry</text>
<text text-anchor="middle" x="415" y="-20.5" font-family="Helvetica,sans-Serif" font-size="10.00">Packet</text>
</a>
</g>
</g>
<!-- Node1&#45;&gt;Node2 -->
<g id="edge1" class="edge">
<title>Node1&#45;&gt;Node2</title>
<path fill="none" stroke="midnightblue" d="M524.68,-34C516.22,-34 507.64,-34 499.2,-34"/>
<polygon fill="midnightblue" stroke="midnightblue" points="524.9,-37.5 534.9,-34 524.9,-30.5 524.9,-37.5"/>
</g>
<!-- Node3 -->
<g id="node3" class="node">
<title>Node3</title>
<g id="a_node3"><a xlink:href="classsignal__easel_1_1aprs_1_1Receiver.html#adc3c303795edba521a1e55e454ba610d" target="_top" xlink:title="Categorises and stores a frame that has already been parsed by aprs_demodulator_ (i....">
<polygon fill="none" stroke="black" points="143,-38.5 143,-79.5 295,-79.5 295,-38.5 143,-38.5"/>
<text text-anchor="start" x="151" y="-67.5" font-family="Helvetica,sans-Serif" font-size="10.00">signal_easel::aprs</text>
<text text-anchor="start" x="151" y="-56.5" font-family="Helvetica,sans-Serif" font-size="10.00">::Receiver::processDecoded</text>
<text text-anchor="middle" x="219" y="-45.5" font-family="Helvetica,sans-Serif" font-size="10.00">Frame</text>
</a>
</g>
</g>
<!-- Node2&#45;&gt;Node3 -->
<g id="edge2" class="edge">
<title>Node2&#45;&gt;Node3</title>
<path fill="none" stroke="midnightblue" d="M320.85,-46C312.28,-47.11 303.67,-48.22 295.28,-49.3"/>
<polygon fill="midnightblue" stroke="midnightblue" points="321.41,-49.46 330.88,-44.71 320.52,-42.52 321.41,-49.46"/>
</g>
<!-- Node5 -->
<g id="node5" class="node">
<title>Node5</title>
<g id="a_node5"><a xlink:href="aprs__test_8cpp.html#a8de4b7853d7e8c5ad2bb05a656082327" target="_top" xlink:title=" ">
<polygon fill="none" stroke="black" points="198.5,-0.5 198.5,-19.5 239.5,-19.5 239.5,-0.5 198.5,-0.5"/>
<text text-anchor="middle" x="219" y="-7.5" font-family="Helvetica,sans-Serif" font-size="10.00">TEST</text>
</a>
</g>
</g>
<!-- Node2&#45;&gt;Node5 -->
<g id="edge4" class="edge">
<title>Node2&#45;&gt;Node5</title>
<path fill="none" stroke="midnightblue" d="M320.95,-22.49C290.25,-18.69 259.03,-14.83 239.6,-12.42"/>
<polygon fill="midnightblue" stroke="midnightblue" points="320.53,-25.96 330.88,-23.72 321.39,-19.02 320.53,-25.96"/>
</g>
<!-- Node4 -->
<g id="node4" class="node">
<title>Node4</title>
<g id="a_node4"><a xlink:href="classsignal__easel_1_1aprs_1_1Receiver.html#afbf7869aceaf2ea7ab0be8b9af16e818" target="_top" xlink:title=" ">
<polygon fill="none" stroke="black" points="0,-44 0,-74 107,-74 107,-44 0,-44"/>
<text text-anchor="start" x="8" y="-62" font-family="Helvetica,sans-Serif" font-size="10.00">signal_easel::aprs</text>
<text text-anchor="middle" x="53.5" y="-51" font-family="Helvetica,sans-Serif" font-size="10.00">::Receiver::decode</text>
</a>
</g>
</g>
<!-- Node3&#45;&gt;Node4 -->
<g id="edge3" class="edge">
<title>Node3&#45;&gt;Node4</title>
<path fill="none" stroke="midnightblue" d="M132.73,-59C124.02,-59 115.37,-59 107.16,-59"/>
<polygon fill="midnightblue" stroke="midnightblue" points="132.95,-62.5 142.95,-59 132.95,-55.5 132.95,-62.5"/>
</g>
</g>
</svg>
