<?xml version="1.0" encoding="UTF-8" standalone="no"?>
<!DOCTYPE svg PUBLIC "-//W3C//DTD SVG 1.1//EN"
 "http://www.w3.org/Graphics/SVG/1.1/DTD/svg11.dtd">
<!-- Generated by graphviz version 2.43.0 (0)
 -->
<!-- Title: signal_easel::aprs::Modulator::encodePositionPacket Pages: 1 -->
<svg width="1485pt" height="421pt"
 viewBox="0.00 0.00 1485.00 420.50" xmlns="http://www.w3.org/2000/svg" xmlns:xlink="http://www.w3.org/1999/xlink">
<g id="graph0" class="graph" transform="scale(1 1) rotate(0) translate(4 416.5)">
<title>signal_easel::aprs::Modulator::encodePositionPacket</title>
<!-- Node1 -->
<g id="node1" class="node">
<title>Node1</title>
<g id="a_node1"><a xlink:title=" ">
<polygon fill="#bfbfbf" stroke="black" points="0,-207 0,-248 152,-248 152,-207 0,-207"/>
<text text-anchor="start" x="8" y="-236" font-family="Helvetica,sans-Serif" font-size="10.00">signal_easel::aprs</text>
<text text-anchor="start" x="8" y="-225" font-family="Helvetica,sans-Serif" font-size="10.00">::Modulator::encodePosition</text>
<text text-anchor="middle" x="76" y="-214" font-family="Helvetica,sans-Serif" font-size="10.00">Packet</text>
</a>
</g>
</g>
<!-- Node2 -->
<g id="node2" class="node">
<title>Node2</title>
<g id="a_node2"><a xlink:href="namespacesignal__easel.html#ab5fa91b80b16ed3e03f9ed9c6247039f" target="_top" xlink:title=" ">
<polygon fill="none" stroke="black" points="188,-259 188,-278 354,-278 354,-259 188,-259"/>
<text text-anchor="middle" x="271" y="-266" font-family="Helvetica,sans-Serif" font-size="10.00">signal_easel::addLocationData</text>
</a>
</g>
</g>
<!-- Node1&#45;&gt;Node2 -->
<g id="edge1" class="edge">
<title>Node1&#45;&gt;Node2</title>
<path fill="none" stroke="midnightblue" d="M152.17,-243.47C173.17,-247.93 195.59,-252.69 215.18,-256.85"/>
<polygon fill="midnightblue" stroke="midnightblue" points="214.63,-260.31 225.14,-258.97 216.08,-253.47 214.63,-260.31"/>
</g>
<!-- Node5 -->
<g id="node5" class="node">
<title>Node5</title>
<g id="a_node5"><a xlink:href="namespacesignal__easel.html#aad3ffdd47a4a03ed438e8c1ca9eef231" target="_top" xlink:title=" ">
<polygon fill="none" stroke="black" points="196,-199 196,-218 346,-218 346,-199 196,-199"/>
<text text-anchor="middle" x="271" y="-206" font-family="Helvetica,sans-Serif" font-size="10.00">signal_easel::encodePacket</text>
</a>
</g>
</g>
<!-- Node1&#45;&gt;Node5 -->
<g id="edge4" class="edge">
<title>Node1&#45;&gt;Node5</title>
<path fill="none" stroke="midnightblue" d="M152.17,-220.1C163.19,-219.01 174.6,-217.89 185.79,-216.79"/>
<polygon fill="midnightblue" stroke="midnightblue" points="186.38,-220.25 195.98,-215.79 185.69,-213.28 186.38,-220.25"/>
</g>
<!-- Node3 -->
<g id="node3" class="node">
<title>Node3</title>
<g id="a_node3"><a xlink:href="namespacesignal__easel.html#a303e9732cc231caca130db5cb8bcd53f" target="_top" xlink:title=" ">
<polygon fill="none" stroke="black" points="401,-297 401,-316 555,-316 555,-297 401,-297"/>
<text text-anchor="middle" x="478" y="-304" font-family="Helvetica,sans-Serif" font-size="10.00">signal_easel::base91Encode</text>
</a>
</g>
</g>
<!-- Node2&#45;&gt;Node3 -->
<g id="edge2" class="edge">
<title>Node2&#45;&gt;Node3</title>
<path fill="none" stroke="midnightblue" d="M323.47,-278.04C351.37,-283.21 386.05,-289.64 415.38,-295.08"/>
<polygon fill="midnightblue" stroke="midnightblue" points="415.04,-298.57 425.51,-296.96 416.32,-291.69 415.04,-298.57"/>
</g>
<!-- Node4 -->
<g id="node4" class="node">
<title>Node4</title>
<g id="a_node4"><a xlink:href="namespacesignal__easel.html#a5e95a4f0db83133b1b3cb81365100837" target="_top" xlink:title=" ">
<polygon fill="none" stroke="black" points="390,-259 390,-278 566,-278 566,-259 390,-259"/>
<text text-anchor="middle" x="478" y="-266" font-family="Helvetica,sans-Serif" font-size="10.00">signal_easel::checkLocationData</text>
</a>
</g>
</g>
<!-- Node2&#45;&gt;Node4 -->
<g id="edge3" class="edge">
<title>Node2&#45;&gt;Node4</title>
<path fill="none" stroke="midnightblue" d="M354.2,-268.5C362.52,-268.5 371.02,-268.5 379.47,-268.5"/>
<polygon fill="midnightblue" stroke="midnightblue" points="379.75,-272 389.75,-268.5 379.75,-265 379.75,-272"/>
</g>
<!-- Node6 -->
<g id="node6" class="node">
<title>Node6</title>
<g id="a_node6"><a xlink:href="namespacesignal__easel.html#ada24f00bb5d1a1bb97976967185c7526" target="_top" xlink:title=" ">
<polygon fill="none" stroke="black" points="602,-338.5 602,-368.5 748,-368.5 748,-338.5 602,-338.5"/>
<text text-anchor="start" x="610" y="-356.5" font-family="Helvetica,sans-Serif" font-size="10.00">signal_easel::AddRequired</text>
<text text-anchor="middle" x="675" y="-345.5" font-family="Helvetica,sans-Serif" font-size="10.00">Fields</text>
</a>
</g>
</g>
<!-- Node5&#45;&gt;Node6 -->
<g id="edge5" class="edge">
<title>Node5&#45;&gt;Node6</title>
<path fill="none" stroke="midnightblue" d="M346.13,-211.96C420.96,-216.65 530.43,-227.17 566,-249.5 590.43,-264.84 581.8,-282.91 602,-303.5 612.72,-314.43 626.13,-324.49 638.47,-332.67"/>
<polygon fill="midnightblue" stroke="midnightblue" points="636.9,-335.82 647.2,-338.29 640.68,-329.94 636.9,-335.82"/>
</g>
<!-- Node14 -->
<g id="node14" class="node">
<title>Node14</title>
<g id="a_node14"><a xlink:href="classsignal__easel_1_1ax25_1_1Frame.html#a2b4f6ebcb7592a7e5a21114c8fafa503" target="_top" xlink:title="A step beyond buildFrame. This function builds the frame, does the bit stuffing, adds the flags,...">
<polygon fill="none" stroke="black" points="415.5,-171.5 415.5,-201.5 540.5,-201.5 540.5,-171.5 415.5,-171.5"/>
<text text-anchor="start" x="423.5" y="-189.5" font-family="Helvetica,sans-Serif" font-size="10.00">signal_easel::ax25</text>
<text text-anchor="middle" x="478" y="-178.5" font-family="Helvetica,sans-Serif" font-size="10.00">::Frame::encodeFrame</text>
</a>
</g>
</g>
<!-- Node5&#45;&gt;Node14 -->
<g id="edge14" class="edge">
<title>Node5&#45;&gt;Node14</title>
<path fill="none" stroke="midnightblue" d="M346.01,-200.56C365.26,-198.49 385.96,-196.27 405.1,-194.22"/>
<polygon fill="midnightblue" stroke="midnightblue" points="405.68,-197.67 415.25,-193.13 404.93,-190.71 405.68,-197.67"/>
</g>
<!-- Node28 -->
<g id="node28" class="node">
<title>Node28</title>
<g id="a_node28"><a xlink:href="classsignal__easel_1_1ax25_1_1Frame.html#afc5c722b419621f2a4dccbe2208faea1" target="_top" xlink:title=" ">
<polygon fill="none" stroke="black" points="412.5,-122.5 412.5,-152.5 543.5,-152.5 543.5,-122.5 412.5,-122.5"/>
<text text-anchor="start" x="420.5" y="-140.5" font-family="Helvetica,sans-Serif" font-size="10.00">signal_easel::ax25</text>
<text text-anchor="middle" x="478" y="-129.5" font-family="Helvetica,sans-Serif" font-size="10.00">::Frame::setInformation</text>
</a>
</g>
</g>
<!-- Node5&#45;&gt;Node28 -->
<g id="edge32" class="edge">
<title>Node5&#45;&gt;Node28</title>
<path fill="none" stroke="midnightblue" d="M293.91,-198.93C317.41,-188.87 355.93,-172.95 390,-161.5 396.04,-159.47 402.36,-157.48 408.72,-155.57"/>
<polygon fill="midnightblue" stroke="midnightblue" points="410.1,-158.81 418.7,-152.63 408.12,-152.09 410.1,-158.81"/>
</g>
<!-- Node7 -->
<g id="node7" class="node">
<title>Node7</title>
<g id="a_node7"><a xlink:href="namespacesignal__easel.html#ac803523134c5f20bcc98143397f8ff5d" target="_top" xlink:title=" ">
<polygon fill="none" stroke="black" points="785,-393 785,-412 953,-412 953,-393 785,-393"/>
<text text-anchor="middle" x="869" y="-400" font-family="Helvetica,sans-Serif" font-size="10.00">signal_easel::CheckPacketData</text>
</a>
</g>
</g>
<!-- Node6&#45;&gt;Node7 -->
<g id="edge6" class="edge">
<title>Node6&#45;&gt;Node7</title>
<path fill="none" stroke="midnightblue" d="M730.86,-368.56C747.87,-373.14 766.69,-378.12 784,-382.5 794.68,-385.21 806.15,-388.01 817.08,-390.62"/>
<polygon fill="midnightblue" stroke="midnightblue" points="816.39,-394.06 826.93,-392.97 818.01,-387.25 816.39,-394.06"/>
</g>
<!-- Node8 -->
<g id="node8" class="node">
<title>Node8</title>
<g id="a_node8"><a xlink:href="classsignal__easel_1_1ax25_1_1Frame.html#a57b163ece54317da8d95f3b18b47c23d" target="_top" xlink:title="setters/getters for the frame.">
<polygon fill="none" stroke="black" points="784,-343.5 784,-373.5 954,-373.5 954,-343.5 784,-343.5"/>
<text text-anchor="start" x="792" y="-361.5" font-family="Helvetica,sans-Serif" font-size="10.00">signal_easel::ax25</text>
<text text-anchor="middle" x="869" y="-350.5" font-family="Helvetica,sans-Serif" font-size="10.00">::Frame::setDestinationAddress</text>
</a>
</g>
</g>
<!-- Node6&#45;&gt;Node8 -->
<g id="edge7" class="edge">
<title>Node6&#45;&gt;Node8</title>
<path fill="none" stroke="midnightblue" d="M748.04,-355.38C756.45,-355.6 765.13,-355.82 773.78,-356.05"/>
<polygon fill="midnightblue" stroke="midnightblue" points="773.83,-359.55 783.92,-356.31 774.01,-352.55 773.83,-359.55"/>
</g>
<!-- Node13 -->
<g id="node13" class="node">
<title>Node13</title>
<g id="a_node13"><a xlink:href="classsignal__easel_1_1ax25_1_1Frame.html#a402d26a81f82bb5c477e8930b75a771e" target="_top" xlink:title=" ">
<polygon fill="none" stroke="black" points="796,-294.5 796,-324.5 942,-324.5 942,-294.5 796,-294.5"/>
<text text-anchor="start" x="804" y="-312.5" font-family="Helvetica,sans-Serif" font-size="10.00">signal_easel::ax25</text>
<text text-anchor="middle" x="869" y="-301.5" font-family="Helvetica,sans-Serif" font-size="10.00">::Frame::setSourceAddress</text>
</a>
</g>
</g>
<!-- Node6&#45;&gt;Node13 -->
<g id="edge12" class="edge">
<title>Node6&#45;&gt;Node13</title>
<path fill="none" stroke="midnightblue" d="M741.54,-338.48C757.98,-334.71 775.74,-330.64 792.62,-326.78"/>
<polygon fill="midnightblue" stroke="midnightblue" points="793.47,-330.17 802.43,-324.53 791.9,-323.35 793.47,-330.17"/>
</g>
<!-- Node9 -->
<g id="node9" class="node">
<title>Node9</title>
<g id="a_node9"><a xlink:href="classsignal__easel_1_1ax25_1_1Address.html#a7fa6b0ef4241413893f201660991e4ea" target="_top" xlink:title="Checks if the address is valid, if not throws an exception with a specific error code.">
<polygon fill="none" stroke="black" points="990,-291.5 990,-321.5 1120,-321.5 1120,-291.5 990,-291.5"/>
<text text-anchor="start" x="998" y="-309.5" font-family="Helvetica,sans-Serif" font-size="10.00">signal_easel::ax25</text>
<text text-anchor="middle" x="1055" y="-298.5" font-family="Helvetica,sans-Serif" font-size="10.00">::Address::assertIsValid</text>
</a>
</g>
</g>
<!-- Node8&#45;&gt;Node9 -->
<g id="edge8" class="edge">
<title>Node8&#45;&gt;Node9</title>
<path fill="none" stroke="midnightblue" d="M923.22,-343.46C944.49,-337.45 969.13,-330.48 991.26,-324.23"/>
<polygon fill="midnightblue" stroke="midnightblue" points="992.23,-327.59 1000.9,-321.51 990.32,-320.86 992.23,-327.59"/>
</g>
<!-- Node10 -->
<g id="node10" class="node">
<title>Node10</title>
<g id="a_node10"><a xlink:href="classsignal__easel_1_1ax25_1_1Address.html#af34b361f739b7995e7816b7a04465828" target="_top" xlink:title=" ">
<polygon fill="none" stroke="black" points="1156,-286 1156,-327 1321,-327 1321,-286 1156,-286"/>
<text text-anchor="start" x="1164" y="-315" font-family="Helvetica,sans-Serif" font-size="10.00">signal_easel::ax25</text>
<text text-anchor="start" x="1164" y="-304" font-family="Helvetica,sans-Serif" font-size="10.00">::Address::assertAddressString</text>
<text text-anchor="middle" x="1238.5" y="-293" font-family="Helvetica,sans-Serif" font-size="10.00">IsValid</text>
</a>
</g>
</g>
<!-- Node9&#45;&gt;Node10 -->
<g id="edge9" class="edge">
<title>Node9&#45;&gt;Node10</title>
<path fill="none" stroke="midnightblue" d="M1120.25,-306.5C1128.53,-306.5 1137.13,-306.5 1145.75,-306.5"/>
<polygon fill="midnightblue" stroke="midnightblue" points="1145.85,-310 1155.85,-306.5 1145.85,-303 1145.85,-310"/>
</g>
<!-- Node11 -->
<g id="node11" class="node">
<title>Node11</title>
<g id="a_node11"><a xlink:href="classsignal__easel_1_1ax25_1_1Address.html#a8b44c6e311d3462bd86eda03c1d384f0" target="_top" xlink:title=" ">
<polygon fill="none" stroke="black" points="1163.5,-233.5 1163.5,-263.5 1313.5,-263.5 1313.5,-233.5 1163.5,-233.5"/>
<text text-anchor="start" x="1171.5" y="-251.5" font-family="Helvetica,sans-Serif" font-size="10.00">signal_easel::ax25</text>
<text text-anchor="middle" x="1238.5" y="-240.5" font-family="Helvetica,sans-Serif" font-size="10.00">::Address::assertSsidIsValid</text>
</a>
</g>
</g>
<!-- Node9&#45;&gt;Node11 -->
<g id="edge10" class="edge">
<title>Node9&#45;&gt;Node11</title>
<path fill="none" stroke="midnightblue" d="M1103.21,-291.41C1126.95,-283.83 1155.9,-274.58 1180.83,-266.61"/>
<polygon fill="midnightblue" stroke="midnightblue" points="1182.06,-269.89 1190.52,-263.51 1179.93,-263.22 1182.06,-269.89"/>
</g>
<!-- Node12 -->
<g id="node12" class="node">
<title>Node12</title>
<g id="a_node12"><a xlink:href="classsignal__easel_1_1ax25_1_1Address.html#ad66c149737cc4aa52ae9e8860176acf3" target="_top" xlink:title=" ">
<polygon fill="none" stroke="black" points="1357,-208.5 1357,-238.5 1477,-238.5 1477,-208.5 1357,-208.5"/>
<text text-anchor="start" x="1365" y="-226.5" font-family="Helvetica,sans-Serif" font-size="10.00">signal_easel::ax25</text>
<text text-anchor="middle" x="1417" y="-215.5" font-family="Helvetica,sans-Serif" font-size="10.00">::Address::isSsidValid</text>
</a>
</g>
</g>
<!-- Node11&#45;&gt;Node12 -->
<g id="edge11" class="edge">
<title>Node11&#45;&gt;Node12</title>
<path fill="none" stroke="midnightblue" d="M1313.58,-238.01C1324.64,-236.44 1335.99,-234.83 1346.93,-233.28"/>
<polygon fill="midnightblue" stroke="midnightblue" points="1347.43,-236.75 1356.84,-231.88 1346.45,-229.82 1347.43,-236.75"/>
</g>
<!-- Node13&#45;&gt;Node9 -->
<g id="edge13" class="edge">
<title>Node13&#45;&gt;Node9</title>
<path fill="none" stroke="midnightblue" d="M942.19,-308.32C954.46,-308.12 967.23,-307.91 979.56,-307.71"/>
<polygon fill="midnightblue" stroke="midnightblue" points="979.85,-311.21 989.79,-307.55 979.73,-304.21 979.85,-311.21"/>
</g>
<!-- Node15 -->
<g id="node15" class="node">
<title>Node15</title>
<g id="a_node15"><a xlink:href="classsignal__easel_1_1BitStream.html#a9df75eb28c03717c9fad2d30a85de6e6" target="_top" xlink:title=" ">
<polygon fill="none" stroke="black" points="803,-245.5 803,-275.5 935,-275.5 935,-245.5 803,-245.5"/>
<text text-anchor="start" x="811" y="-263.5" font-family="Helvetica,sans-Serif" font-size="10.00">signal_easel::BitStream</text>
<text text-anchor="middle" x="869" y="-252.5" font-family="Helvetica,sans-Serif" font-size="10.00">::addBits</text>
</a>
</g>
</g>
<!-- Node14&#45;&gt;Node15 -->
<g id="edge15" class="edge">
<title>Node14&#45;&gt;Node15</title>
<path fill="none" stroke="midnightblue" d="M540.65,-201.17C549.78,-205.14 558.6,-210.16 566,-216.5 591.98,-238.74 572.7,-266.86 602,-284.5 633.08,-303.21 725.53,-290.08 792.73,-277.05"/>
<polygon fill="midnightblue" stroke="midnightblue" points="793.74,-280.42 802.87,-275.05 792.38,-273.55 793.74,-280.42"/>
</g>
<!-- Node16 -->
<g id="node16" class="node">
<title>Node16</title>
<g id="a_node16"><a xlink:href="classsignal__easel_1_1BitStream.html#a81d4aea4c11f65e0c2b7ad2f0f0cc312" target="_top" xlink:title=" ">
<polygon fill="none" stroke="black" points="609,-245.5 609,-275.5 741,-275.5 741,-245.5 609,-245.5"/>
<text text-anchor="start" x="617" y="-263.5" font-family="Helvetica,sans-Serif" font-size="10.00">signal_easel::BitStream</text>
<text text-anchor="middle" x="675" y="-252.5" font-family="Helvetica,sans-Serif" font-size="10.00">::addOneBit</text>
</a>
</g>
</g>
<!-- Node14&#45;&gt;Node16 -->
<g id="edge16" class="edge">
<title>Node14&#45;&gt;Node16</title>
<path fill="none" stroke="midnightblue" d="M526.92,-201.55C539.76,-205.98 553.54,-211.1 566,-216.5 582.6,-223.69 585.41,-228.29 602,-235.5 607.01,-237.68 612.27,-239.8 617.57,-241.83"/>
<polygon fill="midnightblue" stroke="midnightblue" points="616.53,-245.18 627.13,-245.38 618.97,-238.62 616.53,-245.18"/>
</g>
<!-- Node17 -->
<g id="node17" class="node">
<title>Node17</title>
<g id="a_node17"><a xlink:href="classsignal__easel_1_1BitStream.html#abb315beec8c4d88115d9d4ec5f082863" target="_top" xlink:title=" ">
<polygon fill="none" stroke="black" points="609,-196.5 609,-226.5 741,-226.5 741,-196.5 609,-196.5"/>
<text text-anchor="start" x="617" y="-214.5" font-family="Helvetica,sans-Serif" font-size="10.00">signal_easel::BitStream</text>
<text text-anchor="middle" x="675" y="-203.5" font-family="Helvetica,sans-Serif" font-size="10.00">::addZeroBit</text>
</a>
</g>
</g>
<!-- Node14&#45;&gt;Node17 -->
<g id="edge18" class="edge">
<title>Node14&#45;&gt;Node17</title>
<path fill="none" stroke="midnightblue" d="M540.7,-194.41C559.05,-196.76 579.36,-199.37 598.48,-201.82"/>
<polygon fill="midnightblue" stroke="midnightblue" points="598.3,-205.32 608.66,-203.12 599.19,-198.38 598.3,-205.32"/>
</g>
<!-- Node18 -->
<g id="node18" class="node">
<title>Node18</title>
<g id="a_node18"><a xlink:href="classsignal__easel_1_1ax25_1_1Frame.html#a24e7d5ffc6504a3380e97142d1bc084e" target="_top" xlink:title="Builds all internal portions of the frame. Doesn&#39;t include the flags.">
<polygon fill="none" stroke="black" points="618,-147.5 618,-177.5 732,-177.5 732,-147.5 618,-147.5"/>
<text text-anchor="start" x="626" y="-165.5" font-family="Helvetica,sans-Serif" font-size="10.00">signal_easel::ax25</text>
<text text-anchor="middle" x="675" y="-154.5" font-family="Helvetica,sans-Serif" font-size="10.00">::Frame::buildFrame</text>
</a>
</g>
</g>
<!-- Node14&#45;&gt;Node18 -->
<g id="edge20" class="edge">
<title>Node14&#45;&gt;Node18</title>
<path fill="none" stroke="midnightblue" d="M540.7,-178.91C562.08,-176.27 586.14,-173.31 607.86,-170.64"/>
<polygon fill="midnightblue" stroke="midnightblue" points="608.49,-174.09 617.99,-169.39 607.64,-167.14 608.49,-174.09"/>
</g>
<!-- Node25 -->
<g id="node25" class="node">
<title>Node25</title>
<g id="a_node25"><a xlink:href="classsignal__easel_1_1BitStream.html#aa97152ef51f73088e103a7951134aa85" target="_top" xlink:title=" ">
<polygon fill="none" stroke="black" points="609,-98.5 609,-128.5 741,-128.5 741,-98.5 609,-98.5"/>
<text text-anchor="start" x="617" y="-116.5" font-family="Helvetica,sans-Serif" font-size="10.00">signal_easel::BitStream</text>
<text text-anchor="middle" x="675" y="-105.5" font-family="Helvetica,sans-Serif" font-size="10.00">::getBitStreamLength</text>
</a>
</g>
</g>
<!-- Node14&#45;&gt;Node25 -->
<g id="edge29" class="edge">
<title>Node14&#45;&gt;Node25</title>
<path fill="none" stroke="midnightblue" d="M540.25,-171.49C549.05,-168.59 557.87,-165.27 566,-161.5 583.45,-153.42 584.73,-145.95 602,-137.5 605.73,-135.68 609.63,-133.94 613.6,-132.29"/>
<polygon fill="midnightblue" stroke="midnightblue" points="614.93,-135.53 622.97,-128.62 612.38,-129.01 614.93,-135.53"/>
</g>
<!-- Node26 -->
<g id="node26" class="node">
<title>Node26</title>
<g id="a_node26"><a xlink:href="classsignal__easel_1_1BitStream.html#a5b5339586e09ca5c25a7e9ded0118ffb" target="_top" xlink:title="Returns the next bit of the bit stream that will be encoded.">
<polygon fill="none" stroke="black" points="609,-49.5 609,-79.5 741,-79.5 741,-49.5 609,-49.5"/>
<text text-anchor="start" x="617" y="-67.5" font-family="Helvetica,sans-Serif" font-size="10.00">signal_easel::BitStream</text>
<text text-anchor="middle" x="675" y="-56.5" font-family="Helvetica,sans-Serif" font-size="10.00">::popNextBit</text>
</a>
</g>
</g>
<!-- Node14&#45;&gt;Node26 -->
<g id="edge30" class="edge">
<title>Node14&#45;&gt;Node26</title>
<path fill="none" stroke="midnightblue" d="M540.73,-175.78C549.85,-172.29 558.64,-167.65 566,-161.5 593.76,-138.3 574.74,-112.28 602,-88.5 603.49,-87.2 605.05,-85.97 606.67,-84.81"/>
<polygon fill="midnightblue" stroke="midnightblue" points="608.55,-87.77 615.21,-79.53 604.86,-81.81 608.55,-87.77"/>
</g>
<!-- Node27 -->
<g id="node27" class="node">
<title>Node27</title>
<g id="a_node27"><a xlink:href="namespacesignal__easel_1_1ax25.html#a56c64a06f2dc7d2d270c32e1063400ae" target="_top" xlink:title="Reverse a byte.">
<polygon fill="none" stroke="black" points="621.5,-0.5 621.5,-30.5 728.5,-30.5 728.5,-0.5 621.5,-0.5"/>
<text text-anchor="start" x="629.5" y="-18.5" font-family="Helvetica,sans-Serif" font-size="10.00">signal_easel::ax25</text>
<text text-anchor="middle" x="675" y="-7.5" font-family="Helvetica,sans-Serif" font-size="10.00">::reverseByte</text>
</a>
</g>
</g>
<!-- Node14&#45;&gt;Node27 -->
<g id="edge31" class="edge">
<title>Node14&#45;&gt;Node27</title>
<path fill="none" stroke="midnightblue" d="M540.81,-177.19C550.14,-173.53 558.97,-168.48 566,-161.5 606.12,-121.67 562.73,-80.17 602,-39.5 605.04,-36.35 608.5,-33.62 612.22,-31.25"/>
<polygon fill="midnightblue" stroke="midnightblue" points="614.18,-34.17 621.3,-26.33 610.84,-28.01 614.18,-34.17"/>
</g>
<!-- Node16&#45;&gt;Node15 -->
<g id="edge17" class="edge">
<title>Node16&#45;&gt;Node15</title>
<path fill="none" stroke="midnightblue" d="M741,-260.5C757.49,-260.5 775.34,-260.5 792.31,-260.5"/>
<polygon fill="midnightblue" stroke="midnightblue" points="792.74,-264 802.74,-260.5 792.74,-257 792.74,-264"/>
</g>
<!-- Node17&#45;&gt;Node15 -->
<g id="edge19" class="edge">
<title>Node17&#45;&gt;Node15</title>
<path fill="none" stroke="midnightblue" d="M734.91,-226.53C755.28,-231.73 778.27,-237.6 799.35,-242.98"/>
<polygon fill="midnightblue" stroke="midnightblue" points="798.65,-246.41 809.2,-245.49 800.38,-239.63 798.65,-246.41"/>
</g>
<!-- Node19 -->
<g id="node19" class="node">
<title>Node19</title>
<g id="a_node19"><a xlink:href="namespacesignal__easel_1_1ax25.html#a6d799107f96d783e620cd508488ab8eb" target="_top" xlink:title="Calculate the Frame Check Sequence (FCS) on a vector of bytes.">
<polygon fill="none" stroke="black" points="815.5,-196.5 815.5,-226.5 922.5,-226.5 922.5,-196.5 815.5,-196.5"/>
<text text-anchor="start" x="823.5" y="-214.5" font-family="Helvetica,sans-Serif" font-size="10.00">signal_easel::ax25</text>
<text text-anchor="middle" x="869" y="-203.5" font-family="Helvetica,sans-Serif" font-size="10.00">::calculateFcs</text>
</a>
</g>
</g>
<!-- Node18&#45;&gt;Node19 -->
<g id="edge21" class="edge">
<title>Node18&#45;&gt;Node19</title>
<path fill="none" stroke="midnightblue" d="M732.05,-176.8C755,-182.66 781.67,-189.47 805.27,-195.49"/>
<polygon fill="midnightblue" stroke="midnightblue" points="804.62,-198.94 815.17,-198.02 806.35,-192.15 804.62,-198.94"/>
</g>
<!-- Node20 -->
<g id="node20" class="node">
<title>Node20</title>
<g id="a_node20"><a xlink:href="classsignal__easel_1_1ax25_1_1Address.html#a0c31737081a9184b56dc32150b23cb0a" target="_top" xlink:title="Get the address as a byte array.">
<polygon fill="none" stroke="black" points="798,-147.5 798,-177.5 940,-177.5 940,-147.5 798,-147.5"/>
<text text-anchor="start" x="806" y="-165.5" font-family="Helvetica,sans-Serif" font-size="10.00">signal_easel::ax25</text>
<text text-anchor="middle" x="869" y="-154.5" font-family="Helvetica,sans-Serif" font-size="10.00">::Address::encodeAddress</text>
</a>
</g>
</g>
<!-- Node18&#45;&gt;Node20 -->
<g id="edge22" class="edge">
<title>Node18&#45;&gt;Node20</title>
<path fill="none" stroke="midnightblue" d="M732.05,-162.5C749.5,-162.5 769.1,-162.5 787.86,-162.5"/>
<polygon fill="midnightblue" stroke="midnightblue" points="787.88,-166 797.88,-162.5 787.88,-159 787.88,-166"/>
</g>
<!-- Node21 -->
<g id="node21" class="node">
<title>Node21</title>
<g id="a_node21"><a xlink:href="classsignal__easel_1_1ax25_1_1Frame.html#a640edeabbda34e78cc243e3561747bf9" target="_top" xlink:title=" ">
<polygon fill="none" stroke="black" points="808,-98.5 808,-128.5 930,-128.5 930,-98.5 808,-98.5"/>
<text text-anchor="start" x="816" y="-116.5" font-family="Helvetica,sans-Serif" font-size="10.00">signal_easel::ax25</text>
<text text-anchor="middle" x="869" y="-105.5" font-family="Helvetica,sans-Serif" font-size="10.00">::Frame::isFrameValid</text>
</a>
</g>
</g>
<!-- Node18&#45;&gt;Node21 -->
<g id="edge24" class="edge">
<title>Node18&#45;&gt;Node21</title>
<path fill="none" stroke="midnightblue" d="M732.05,-148.2C753.07,-142.83 777.2,-136.67 799.24,-131.05"/>
<polygon fill="midnightblue" stroke="midnightblue" points="800.38,-134.37 809.21,-128.5 798.65,-127.59 800.38,-134.37"/>
</g>
<!-- Node24 -->
<g id="node24" class="node">
<title>Node24</title>
<g id="a_node24"><a xlink:href="classsignal__easel_1_1ax25_1_1Address.html#a1a5bc573535cfc1f8723c121e3451e7c" target="_top" xlink:title="Set the as the last address in the AX.25 frame (Sets a bit in the ssid byte)">
<polygon fill="none" stroke="black" points="794,-49.5 794,-79.5 944,-79.5 944,-49.5 794,-49.5"/>
<text text-anchor="start" x="802" y="-67.5" font-family="Helvetica,sans-Serif" font-size="10.00">signal_easel::ax25</text>
<text text-anchor="middle" x="869" y="-56.5" font-family="Helvetica,sans-Serif" font-size="10.00">::Address::setIsLastAddress</text>
</a>
</g>
</g>
<!-- Node18&#45;&gt;Node24 -->
<g id="edge28" class="edge">
<title>Node18&#45;&gt;Node24</title>
<path fill="none" stroke="midnightblue" d="M730.86,-147.45C736.92,-144.64 742.78,-141.35 748,-137.5 769.74,-121.46 761.82,-103.93 784,-88.5 786.26,-86.93 788.62,-85.46 791.05,-84.09"/>
<polygon fill="midnightblue" stroke="midnightblue" points="792.78,-87.14 800.15,-79.53 789.64,-80.88 792.78,-87.14"/>
</g>
<!-- Node20&#45;&gt;Node9 -->
<g id="edge23" class="edge">
<title>Node20&#45;&gt;Node9</title>
<path fill="none" stroke="midnightblue" d="M937.2,-177.67C943.09,-180.18 948.79,-183.11 954,-186.5 992.22,-211.39 1023.38,-255.36 1040.26,-282.61"/>
<polygon fill="midnightblue" stroke="midnightblue" points="1037.46,-284.74 1045.62,-291.49 1043.45,-281.12 1037.46,-284.74"/>
</g>
<!-- Node22 -->
<g id="node22" class="node">
<title>Node22</title>
<g id="a_node22"><a xlink:href="classsignal__easel_1_1ax25_1_1Address.html#aae81920cfd0dc7d89cb107f9d825488c" target="_top" xlink:title="If the address is valid (can be encoded correctly or was decoded)">
<polygon fill="none" stroke="black" points="1001.5,-122.5 1001.5,-152.5 1108.5,-152.5 1108.5,-122.5 1001.5,-122.5"/>
<text text-anchor="start" x="1009.5" y="-140.5" font-family="Helvetica,sans-Serif" font-size="10.00">signal_easel::ax25</text>
<text text-anchor="middle" x="1055" y="-129.5" font-family="Helvetica,sans-Serif" font-size="10.00">::Address::isValid</text>
</a>
</g>
</g>
<!-- Node21&#45;&gt;Node22 -->
<g id="edge25" class="edge">
<title>Node21&#45;&gt;Node22</title>
<path fill="none" stroke="midnightblue" d="M930.25,-121.36C949.79,-123.91 971.52,-126.74 991.24,-129.31"/>
<polygon fill="midnightblue" stroke="midnightblue" points="990.99,-132.81 1001.35,-130.63 991.89,-125.87 990.99,-132.81"/>
</g>
<!-- Node22&#45;&gt;Node12 -->
<g id="edge27" class="edge">
<title>Node22&#45;&gt;Node12</title>
<path fill="none" stroke="midnightblue" d="M1103.34,-152.54C1119.92,-157.59 1138.71,-163.05 1156,-167.5 1220.28,-184.04 1294.34,-199.66 1346.93,-210.18"/>
<polygon fill="midnightblue" stroke="midnightblue" points="1346.34,-213.63 1356.83,-212.15 1347.7,-206.76 1346.34,-213.63"/>
</g>
<!-- Node23 -->
<g id="node23" class="node">
<title>Node23</title>
<g id="a_node23"><a xlink:href="classsignal__easel_1_1ax25_1_1Address.html#a56c55b48bfc809a33aa0e22a5aeb95ca" target="_top" xlink:title=" ">
<polygon fill="none" stroke="black" points="1167,-117 1167,-158 1310,-158 1310,-117 1167,-117"/>
<text text-anchor="start" x="1175" y="-146" font-family="Helvetica,sans-Serif" font-size="10.00">signal_easel::ax25</text>
<text text-anchor="start" x="1175" y="-135" font-family="Helvetica,sans-Serif" font-size="10.00">::Address::isAddressString</text>
<text text-anchor="middle" x="1238.5" y="-124" font-family="Helvetica,sans-Serif" font-size="10.00">Valid</text>
</a>
</g>
</g>
<!-- Node22&#45;&gt;Node23 -->
<g id="edge26" class="edge">
<title>Node22&#45;&gt;Node23</title>
<path fill="none" stroke="midnightblue" d="M1108.99,-137.5C1123.98,-137.5 1140.64,-137.5 1156.87,-137.5"/>
<polygon fill="midnightblue" stroke="midnightblue" points="1156.89,-141 1166.89,-137.5 1156.89,-134 1156.89,-141"/>
</g>
</g>
</svg>
