<?xml version="1.0" encoding="UTF-8" standalone="no"?>
<!DOCTYPE svg PUBLIC "-//W3C//DTD SVG 1.1//EN"
 "http://www.w3.org/Graphics/SVG/1.1/DTD/svg11.dtd">
<!-- Generated by graphviz version 2.43.0 (0)
 -->
<!-- Title: signal_easel::aprs::telemetry::TelemetryTranscoder::addTelemetryStationAddress Pages: 1 -->
<svg width="754pt" height="230pt"
 viewBox="0.00 0.00 754.00 230.00" xmlns="http://www.w3.org/2000/svg" xmlns:xlink="http://www.w3.org/1999/xlink">
<g id="graph0" class="graph" transform="scale(1 1) rotate(0) translate(4 226)">
<title>signal_easel::aprs::telemetry::TelemetryTranscoder::addTelemetryStationAddress</title>
<!-- Node1 -->
<g id="node1" class="node">
<title>Node1</title>
<g id="a_node1"><a xlink:title="Used in the encode methods to add the telemetry station address to the message in the format &quot;:N0CALL...">
<polygon fill="#bfbfbf" stroke="black" points="569,-90.5 569,-131.5 746,-131.5 746,-90.5 569,-90.5"/>
<text text-anchor="start" x="577" y="-119.5" font-family="Helvetica,sans-Serif" font-size="10.00">signal_easel::aprs</text>
<text text-anchor="start" x="577" y="-108.5" font-family="Helvetica,sans-Serif" font-size="10.00">::telemetry::TelemetryTranscoder</text>
<text text-anchor="middle" x="657.5" y="-97.5" font-family="Helvetica,sans-Serif" font-size="10.00">::addTelemetryStationAddress</text>
</a>
</g>
</g>
<!-- Node2 -->
<g id="node2" class="node">
<title>Node2</title>
<g id="a_node2"><a xlink:href="classsignal__easel_1_1aprs_1_1telemetry_1_1TelemetryTranscoder.html#a51e875c6aae69befbefc51fc8787454e" target="_top" xlink:title="Encodes the bit sense and project name into a message.">
<polygon fill="none" stroke="black" points="342.5,-180.5 342.5,-221.5 519.5,-221.5 519.5,-180.5 342.5,-180.5"/>
<text text-anchor="start" x="350.5" y="-209.5" font-family="Helvetica,sans-Serif" font-size="10.00">signal_easel::aprs</text>
<text text-anchor="start" x="350.5" y="-198.5" font-family="Helvetica,sans-Serif" font-size="10.00">::telemetry::TelemetryTranscoder</text>
<text text-anchor="middle" x="431" y="-187.5" font-family="Helvetica,sans-Serif" font-size="10.00">::encodeBitSenseMessage</text>
</a>
</g>
</g>
<!-- Node1&#45;&gt;Node2 -->
<g id="edge1" class="edge">
<title>Node1&#45;&gt;Node2</title>
<path fill="none" stroke="midnightblue" d="M609.23,-136.22C586.56,-147.73 558.78,-160.99 533,-171 524.47,-174.31 515.43,-177.47 506.39,-180.42"/>
<polygon fill="midnightblue" stroke="midnightblue" points="610.98,-139.25 618.29,-131.58 607.79,-133.02 610.98,-139.25"/>
</g>
<!-- Node5 -->
<g id="node5" class="node">
<title>Node5</title>
<g id="a_node5"><a xlink:href="classsignal__easel_1_1aprs_1_1telemetry_1_1TelemetryTranscoder.html#a0c6388feaed412c879ac58b7e3110307" target="_top" xlink:title="Encodes the parameter coefficients into a message.">
<polygon fill="none" stroke="black" points="329,-120.5 329,-161.5 533,-161.5 533,-120.5 329,-120.5"/>
<text text-anchor="start" x="337" y="-149.5" font-family="Helvetica,sans-Serif" font-size="10.00">signal_easel::aprs</text>
<text text-anchor="start" x="337" y="-138.5" font-family="Helvetica,sans-Serif" font-size="10.00">::telemetry::TelemetryTranscoder</text>
<text text-anchor="middle" x="431" y="-127.5" font-family="Helvetica,sans-Serif" font-size="10.00">::encodeParameterCoefficientMessage</text>
</a>
</g>
</g>
<!-- Node1&#45;&gt;Node5 -->
<g id="edge4" class="edge">
<title>Node1&#45;&gt;Node5</title>
<path fill="none" stroke="midnightblue" d="M558.8,-124.06C550.29,-125.19 541.66,-126.35 533.11,-127.49"/>
<polygon fill="midnightblue" stroke="midnightblue" points="559.29,-127.52 568.74,-122.73 558.36,-120.58 559.29,-127.52"/>
</g>
<!-- Node6 -->
<g id="node6" class="node">
<title>Node6</title>
<g id="a_node6"><a xlink:href="classsignal__easel_1_1aprs_1_1telemetry_1_1TelemetryTranscoder.html#a31185ab0ef295b51409170c1b7d5f880" target="_top" xlink:title="Encodes the parameter names into a message.">
<polygon fill="none" stroke="black" points="340.5,-60.5 340.5,-101.5 521.5,-101.5 521.5,-60.5 340.5,-60.5"/>
<text text-anchor="start" x="348.5" y="-89.5" font-family="Helvetica,sans-Serif" font-size="10.00">signal_easel::aprs</text>
<text text-anchor="start" x="348.5" y="-78.5" font-family="Helvetica,sans-Serif" font-size="10.00">::telemetry::TelemetryTranscoder</text>
<text text-anchor="middle" x="431" y="-67.5" font-family="Helvetica,sans-Serif" font-size="10.00">::encodeParameterNameMessage</text>
</a>
</g>
</g>
<!-- Node1&#45;&gt;Node6 -->
<g id="edge6" class="edge">
<title>Node1&#45;&gt;Node6</title>
<path fill="none" stroke="midnightblue" d="M558.49,-97.9C546.21,-96.26 533.69,-94.59 521.55,-92.97"/>
<polygon fill="midnightblue" stroke="midnightblue" points="558.36,-101.42 568.74,-99.27 559.29,-94.48 558.36,-101.42"/>
</g>
<!-- Node7 -->
<g id="node7" class="node">
<title>Node7</title>
<g id="a_node7"><a xlink:href="classsignal__easel_1_1aprs_1_1telemetry_1_1TelemetryTranscoder.html#a1ef507c0f7b59c9fcf34a1749124cf4e" target="_top" xlink:title="Encodes the parameter units and labels into a message.">
<polygon fill="none" stroke="black" points="342.5,-0.5 342.5,-41.5 519.5,-41.5 519.5,-0.5 342.5,-0.5"/>
<text text-anchor="start" x="350.5" y="-29.5" font-family="Helvetica,sans-Serif" font-size="10.00">signal_easel::aprs</text>
<text text-anchor="start" x="350.5" y="-18.5" font-family="Helvetica,sans-Serif" font-size="10.00">::telemetry::TelemetryTranscoder</text>
<text text-anchor="middle" x="431" y="-7.5" font-family="Helvetica,sans-Serif" font-size="10.00">::encodeUnitAndLabelMessage</text>
</a>
</g>
</g>
<!-- Node1&#45;&gt;Node7 -->
<g id="edge8" class="edge">
<title>Node1&#45;&gt;Node7</title>
<path fill="none" stroke="midnightblue" d="M609.23,-85.78C586.56,-74.27 558.78,-61.01 533,-51 524.47,-47.69 515.43,-44.53 506.39,-41.58"/>
<polygon fill="midnightblue" stroke="midnightblue" points="607.79,-88.98 618.29,-90.42 610.98,-82.75 607.79,-88.98"/>
</g>
<!-- Node3 -->
<g id="node3" class="node">
<title>Node3</title>
<g id="a_node3"><a xlink:href="structsignal__easel_1_1aprs_1_1TelemetryPacket.html#a6098e85ae94eded273fcf84adbdcdf35" target="_top" xlink:title=" ">
<polygon fill="none" stroke="black" points="149,-96 149,-126 293,-126 293,-96 149,-96"/>
<text text-anchor="start" x="157" y="-114" font-family="Helvetica,sans-Serif" font-size="10.00">signal_easel::aprs</text>
<text text-anchor="middle" x="221" y="-103" font-family="Helvetica,sans-Serif" font-size="10.00">::TelemetryPacket::encode</text>
</a>
</g>
</g>
<!-- Node2&#45;&gt;Node3 -->
<g id="edge2" class="edge">
<title>Node2&#45;&gt;Node3</title>
<path fill="none" stroke="midnightblue" d="M344.49,-177.07C339.2,-175.14 334,-173.11 329,-171 298.99,-158.31 266.63,-139.36 245.45,-126.16"/>
<polygon fill="midnightblue" stroke="midnightblue" points="343.47,-180.43 354.07,-180.45 345.8,-173.82 343.47,-180.43"/>
</g>
<!-- Node4 -->
<g id="node4" class="node">
<title>Node4</title>
<g id="a_node4"><a xlink:href="classsignal__easel_1_1aprs_1_1Modulator.html#a5620d9527654c44810aeffe98e1aade4" target="_top" xlink:title=" ">
<polygon fill="none" stroke="black" points="0,-96 0,-126 113,-126 113,-96 0,-96"/>
<text text-anchor="start" x="8" y="-114" font-family="Helvetica,sans-Serif" font-size="10.00">signal_easel::aprs</text>
<text text-anchor="middle" x="56.5" y="-103" font-family="Helvetica,sans-Serif" font-size="10.00">::Modulator::encode</text>
</a>
</g>
</g>
<!-- Node3&#45;&gt;Node4 -->
<g id="edge3" class="edge">
<title>Node3&#45;&gt;Node4</title>
<path fill="none" stroke="midnightblue" d="M138.61,-111C129.97,-111 121.33,-111 113.09,-111"/>
<polygon fill="midnightblue" stroke="midnightblue" points="138.73,-114.5 148.73,-111 138.73,-107.5 138.73,-114.5"/>
</g>
<!-- Node5&#45;&gt;Node3 -->
<g id="edge5" class="edge">
<title>Node5&#45;&gt;Node3</title>
<path fill="none" stroke="midnightblue" d="M318.63,-124.94C310.04,-123.7 301.51,-122.47 293.28,-121.28"/>
<polygon fill="midnightblue" stroke="midnightblue" points="318.34,-128.43 328.74,-126.4 319.34,-121.5 318.34,-128.43"/>
</g>
<!-- Node6&#45;&gt;Node3 -->
<g id="edge7" class="edge">
<title>Node6&#45;&gt;Node3</title>
<path fill="none" stroke="midnightblue" d="M330.28,-95.38C317.78,-97.19 305.2,-99 293.25,-100.72"/>
<polygon fill="midnightblue" stroke="midnightblue" points="330.88,-98.83 340.28,-93.94 329.88,-91.9 330.88,-98.83"/>
</g>
<!-- Node7&#45;&gt;Node3 -->
<g id="edge9" class="edge">
<title>Node7&#45;&gt;Node3</title>
<path fill="none" stroke="midnightblue" d="M344.49,-44.93C339.2,-46.86 334,-48.89 329,-51 298.99,-63.69 266.63,-82.64 245.45,-95.84"/>
<polygon fill="midnightblue" stroke="midnightblue" points="345.8,-48.18 354.07,-41.55 343.47,-41.57 345.8,-48.18"/>
</g>
</g>
</svg>
