<?xml version="1.0" encoding="UTF-8" standalone="no"?>
<!DOCTYPE svg PUBLIC "-//W3C//DTD SVG 1.1//EN"
 "http://www.w3.org/Graphics/SVG/1.1/DTD/svg11.dtd">
<!-- Generated by graphviz version 2.43.0 (0)
 -->
<!-- Title: signal_easel::Receiver Pages: 1 -->
<svg width="811pt" height="452pt"
 viewBox="0.00 0.00 811.00 452.00" xmlns="http://www.w3.org/2000/svg" xmlns:xlink="http://www.w3.org/1999/xlink">
<g id="graph0" class="graph" transform="scale(1 1) rotate(0) translate(4 448)">
<title>signal_easel::Receiver</title>
<!-- Node1 -->
<g id="node1" class="node">
<title>Node1</title>
<g id="a_node1"><a xlink:title=" ">
<polygon fill="#bfbfbf" stroke="black" points="235,-0.5 235,-79.5 361,-79.5 361,-0.5 235,-0.5"/>
<text text-anchor="middle" x="298" y="-67.5" font-family="Helvetica,sans-Serif" font-size="10.00">signal_easel::Receiver</text>
<polyline fill="none" stroke="black" points="235,-60.5 361,-60.5 "/>
<text text-anchor="middle" x="298" y="-48.5" font-family="Helvetica,sans-Serif" font-size="10.00"> </text>
<polyline fill="none" stroke="black" points="235,-41.5 361,-41.5 "/>
<text text-anchor="start" x="243" y="-29.5" font-family="Helvetica,sans-Serif" font-size="10.00">+ Receiver()</text>
<text text-anchor="start" x="243" y="-18.5" font-family="Helvetica,sans-Serif" font-size="10.00">+ ~Receiver()</text>
<text text-anchor="start" x="243" y="-7.5" font-family="Helvetica,sans-Serif" font-size="10.00">+ process()</text>
</a>
</g>
</g>
<!-- Node2 -->
<g id="node2" class="node">
<title>Node2</title>
<g id="a_node2"><a xlink:href="classsignal__easel_1_1PulseAudioReader.html" target="_top" xlink:title=" ">
<polygon fill="none" stroke="black" points="423.5,-127.5 423.5,-305.5 560.5,-305.5 560.5,-127.5 423.5,-127.5"/>
<text text-anchor="start" x="431.5" y="-293.5" font-family="Helvetica,sans-Serif" font-size="10.00">signal_easel::PulseAudio</text>
<text text-anchor="middle" x="492" y="-282.5" font-family="Helvetica,sans-Serif" font-size="10.00">Reader</text>
<polyline fill="none" stroke="black" points="423.5,-275.5 560.5,-275.5 "/>
<text text-anchor="middle" x="492" y="-263.5" font-family="Helvetica,sans-Serif" font-size="10.00"> </text>
<polyline fill="none" stroke="black" points="423.5,-256.5 560.5,-256.5 "/>
<text text-anchor="start" x="431.5" y="-244.5" font-family="Helvetica,sans-Serif" font-size="10.00">+ PulseAudioReader()</text>
<text text-anchor="start" x="431.5" y="-233.5" font-family="Helvetica,sans-Serif" font-size="10.00">+ PulseAudioReader()</text>
<text text-anchor="start" x="431.5" y="-222.5" font-family="Helvetica,sans-Serif" font-size="10.00">+ PulseAudioReader()</text>
<text text-anchor="start" x="431.5" y="-211.5" font-family="Helvetica,sans-Serif" font-size="10.00">+ ~PulseAudioReader()</text>
<text text-anchor="start" x="431.5" y="-200.5" font-family="Helvetica,sans-Serif" font-size="10.00">+ getAudioBuffer()</text>
<text text-anchor="start" x="431.5" y="-189.5" font-family="Helvetica,sans-Serif" font-size="10.00">+ getLatency()</text>
<text text-anchor="start" x="431.5" y="-178.5" font-family="Helvetica,sans-Serif" font-size="10.00">+ getRms()</text>
<text text-anchor="start" x="431.5" y="-167.5" font-family="Helvetica,sans-Serif" font-size="10.00">+ getVolume()</text>
<text text-anchor="start" x="431.5" y="-156.5" font-family="Helvetica,sans-Serif" font-size="10.00">+ operator=()</text>
<text text-anchor="start" x="431.5" y="-145.5" font-family="Helvetica,sans-Serif" font-size="10.00">+ operator=()</text>
<text text-anchor="start" x="431.5" y="-134.5" font-family="Helvetica,sans-Serif" font-size="10.00">+ process()</text>
</a>
</g>
</g>
<!-- Node2&#45;&gt;Node1 -->
<g id="edge1" class="edge">
<title>Node2&#45;&gt;Node1</title>
<path fill="none" stroke="#404040" d="M423.33,-153.73C399.19,-132.02 372.48,-107.99 349.94,-87.72"/>
<polygon fill="none" stroke="#404040" points="349.81,-87.6 342.67,-86.56 340.88,-79.57 348.02,-80.61 349.81,-87.6"/>
<text text-anchor="middle" x="427" y="-101" font-family="Helvetica,sans-Serif" font-size="10.00"> #pulse_audio_reader_</text>
</g>
<!-- Node3 -->
<g id="node3" class="node">
<title>Node3</title>
<g id="a_node3"><a xlink:title=" ">
<polygon fill="none" stroke="#bfbfbf" points="215,-381 215,-438 265,-438 265,-381 215,-381"/>
<text text-anchor="middle" x="240" y="-426" font-family="Helvetica,sans-Serif" font-size="10.00">double</text>
<polyline fill="none" stroke="#bfbfbf" points="215,-419 265,-419 "/>
<text text-anchor="middle" x="240" y="-407" font-family="Helvetica,sans-Serif" font-size="10.00"> </text>
<polyline fill="none" stroke="#bfbfbf" points="215,-400 265,-400 "/>
<text text-anchor="middle" x="240" y="-388" font-family="Helvetica,sans-Serif" font-size="10.00"> </text>
</a>
</g>
</g>
<!-- Node3&#45;&gt;Node2 -->
<g id="edge2" class="edge">
<title>Node3&#45;&gt;Node2</title>
<path fill="none" stroke="#404040" d="M265.18,-387.65C286.27,-370.32 317.29,-345.16 345,-324 367.03,-307.17 391.29,-289.33 413.63,-273.16"/>
<polygon fill="none" stroke="#404040" points="413.68,-273.12 416.2,-266.37 423.41,-266.1 420.88,-272.85 413.68,-273.12"/>
<text text-anchor="middle" x="369.5" y="-338" font-family="Helvetica,sans-Serif" font-size="10.00"> &#45;volume_</text>
</g>
<!-- Node9 -->
<g id="node9" class="node">
<title>Node9</title>
<g id="a_node9"><a xlink:href="structsignal__easel_1_1Settings.html" target="_top" xlink:title="The universal settings for MWAV.">
<polygon fill="none" stroke="black" points="98.5,-188 98.5,-245 221.5,-245 221.5,-188 98.5,-188"/>
<text text-anchor="middle" x="160" y="-233" font-family="Helvetica,sans-Serif" font-size="10.00">signal_easel::Settings</text>
<polyline fill="none" stroke="black" points="98.5,-226 221.5,-226 "/>
<text text-anchor="middle" x="160" y="-214" font-family="Helvetica,sans-Serif" font-size="10.00"> </text>
<polyline fill="none" stroke="black" points="98.5,-207 221.5,-207 "/>
<text text-anchor="middle" x="160" y="-195" font-family="Helvetica,sans-Serif" font-size="10.00"> </text>
</a>
</g>
</g>
<!-- Node3&#45;&gt;Node9 -->
<g id="edge9" class="edge">
<title>Node3&#45;&gt;Node9</title>
<path fill="none" stroke="#404040" d="M226.77,-380.83C223.19,-373.15 219.37,-364.78 216,-357 201.43,-323.37 185.99,-284.66 175.02,-256.56"/>
<polygon fill="none" stroke="#404040" points="174.96,-256.4 169.06,-252.25 170.61,-245.21 176.51,-249.35 174.96,-256.4"/>
<text text-anchor="middle" x="259" y="-349" font-family="Helvetica,sans-Serif" font-size="10.00"> +amplitude</text>
<text text-anchor="start" x="216" y="-338" font-family="Helvetica,sans-Serif" font-size="10.00">+call_sign_pause</text>
<text text-anchor="middle" x="259" y="-327" font-family="Helvetica,sans-Serif" font-size="10.00">_seconds</text>
</g>
<!-- Node4 -->
<g id="node4" class="node">
<title>Node4</title>
<g id="a_node4"><a xlink:title=" ">
<polygon fill="none" stroke="#bfbfbf" points="631,-381 631,-438 687,-438 687,-381 631,-381"/>
<text text-anchor="middle" x="659" y="-426" font-family="Helvetica,sans-Serif" font-size="10.00">uint64_t</text>
<polyline fill="none" stroke="#bfbfbf" points="631,-419 687,-419 "/>
<text text-anchor="middle" x="659" y="-407" font-family="Helvetica,sans-Serif" font-size="10.00"> </text>
<polyline fill="none" stroke="#bfbfbf" points="631,-400 687,-400 "/>
<text text-anchor="middle" x="659" y="-388" font-family="Helvetica,sans-Serif" font-size="10.00"> </text>
</a>
</g>
</g>
<!-- Node4&#45;&gt;Node2 -->
<g id="edge3" class="edge">
<title>Node4&#45;&gt;Node2</title>
<path fill="none" stroke="#404040" d="M634.72,-380.73C617.24,-360.74 592.64,-332.6 568.77,-305.31"/>
<polygon fill="none" stroke="#404040" points="568.62,-305.13 561.66,-303.25 560.72,-296.1 567.68,-297.98 568.62,-305.13"/>
<text text-anchor="middle" x="624.5" y="-338" font-family="Helvetica,sans-Serif" font-size="10.00"> &#45;rms_</text>
</g>
<!-- Node5 -->
<g id="node5" class="node">
<title>Node5</title>
<g id="a_node5"><a xlink:title=" ">
<polygon fill="none" stroke="#bfbfbf" points="705,-381 705,-438 803,-438 803,-381 705,-381"/>
<text text-anchor="middle" x="754" y="-426" font-family="Helvetica,sans-Serif" font-size="10.00">pa_sample_spec</text>
<polyline fill="none" stroke="#bfbfbf" points="705,-419 803,-419 "/>
<text text-anchor="middle" x="754" y="-407" font-family="Helvetica,sans-Serif" font-size="10.00"> </text>
<polyline fill="none" stroke="#bfbfbf" points="705,-400 803,-400 "/>
<text text-anchor="middle" x="754" y="-388" font-family="Helvetica,sans-Serif" font-size="10.00"> </text>
</a>
</g>
</g>
<!-- Node5&#45;&gt;Node2 -->
<g id="edge4" class="edge">
<title>Node5&#45;&gt;Node2</title>
<path fill="none" stroke="#404040" d="M718.63,-380.7C697.21,-364.02 669.24,-342.52 644,-324 620.36,-306.65 594.32,-288.18 570.57,-271.58"/>
<polygon fill="none" stroke="#404040" points="570.39,-271.45 563.18,-271.3 560.55,-264.58 567.76,-264.74 570.39,-271.45"/>
<text text-anchor="middle" x="697.5" y="-338" font-family="Helvetica,sans-Serif" font-size="10.00"> &#45;ss_</text>
</g>
<!-- Node6 -->
<g id="node6" class="node">
<title>Node6</title>
<g id="a_node6"><a xlink:title=" ">
<polygon fill="none" stroke="#bfbfbf" points="308.5,-375.5 308.5,-443.5 445.5,-443.5 445.5,-375.5 308.5,-375.5"/>
<text text-anchor="start" x="316.5" y="-431.5" font-family="Helvetica,sans-Serif" font-size="10.00">array&lt; int16_t, PULSE</text>
<text text-anchor="middle" x="377" y="-420.5" font-family="Helvetica,sans-Serif" font-size="10.00">_AUDIO_BUFFER_SIZE &gt;</text>
<polyline fill="none" stroke="#bfbfbf" points="308.5,-413.5 445.5,-413.5 "/>
<text text-anchor="middle" x="377" y="-401.5" font-family="Helvetica,sans-Serif" font-size="10.00"> </text>
<polyline fill="none" stroke="#bfbfbf" points="308.5,-394.5 445.5,-394.5 "/>
<text text-anchor="middle" x="377" y="-382.5" font-family="Helvetica,sans-Serif" font-size="10.00"> </text>
</a>
</g>
</g>
<!-- Node6&#45;&gt;Node2 -->
<g id="edge5" class="edge">
<title>Node6&#45;&gt;Node2</title>
<path fill="none" stroke="#404040" d="M390.11,-375.23C396.83,-359.34 405.58,-340.29 415,-324 416.55,-321.32 418.15,-318.63 419.79,-315.93"/>
<polygon fill="none" stroke="#404040" points="419.95,-315.67 419.75,-308.47 426.32,-305.5 426.53,-312.71 419.95,-315.67"/>
<text text-anchor="middle" x="451.5" y="-338" font-family="Helvetica,sans-Serif" font-size="10.00"> &#45;audio_buffer_</text>
</g>
<!-- Node7 -->
<g id="node7" class="node">
<title>Node7</title>
<g id="a_node7"><a xlink:title=" ">
<polygon fill="none" stroke="#bfbfbf" points="464,-381 464,-438 520,-438 520,-381 464,-381"/>
<text text-anchor="middle" x="492" y="-426" font-family="Helvetica,sans-Serif" font-size="10.00">uint32_t</text>
<polyline fill="none" stroke="#bfbfbf" points="464,-419 520,-419 "/>
<text text-anchor="middle" x="492" y="-407" font-family="Helvetica,sans-Serif" font-size="10.00"> </text>
<polyline fill="none" stroke="#bfbfbf" points="464,-400 520,-400 "/>
<text text-anchor="middle" x="492" y="-388" font-family="Helvetica,sans-Serif" font-size="10.00"> </text>
</a>
</g>
</g>
<!-- Node7&#45;&gt;Node2 -->
<g id="edge6" class="edge">
<title>Node7&#45;&gt;Node2</title>
<path fill="none" stroke="#404040" d="M492,-380.73C492,-363.81 492,-341.05 492,-317.91"/>
<polygon fill="none" stroke="#404040" points="492,-317.8 488,-311.8 492,-305.8 496,-311.8 492,-317.8"/>
<text text-anchor="middle" x="516.5" y="-338" font-family="Helvetica,sans-Serif" font-size="10.00"> &#45;latency_</text>
</g>
<!-- Node8 -->
<g id="node8" class="node">
<title>Node8</title>
<g id="a_node8"><a xlink:title=" ">
<polygon fill="none" stroke="#bfbfbf" points="538.5,-381 538.5,-438 613.5,-438 613.5,-381 538.5,-381"/>
<text text-anchor="middle" x="576" y="-426" font-family="Helvetica,sans-Serif" font-size="10.00">pa_simple *</text>
<polyline fill="none" stroke="#bfbfbf" points="538.5,-419 613.5,-419 "/>
<text text-anchor="middle" x="576" y="-407" font-family="Helvetica,sans-Serif" font-size="10.00"> </text>
<polyline fill="none" stroke="#bfbfbf" points="538.5,-400 613.5,-400 "/>
<text text-anchor="middle" x="576" y="-388" font-family="Helvetica,sans-Serif" font-size="10.00"> </text>
</a>
</g>
</g>
<!-- Node8&#45;&gt;Node2 -->
<g id="edge7" class="edge">
<title>Node8&#45;&gt;Node2</title>
<path fill="none" stroke="#404040" d="M566.7,-380.8C560.9,-364.16 553.04,-342.66 545,-324 543.99,-321.67 542.96,-319.31 541.91,-316.94"/>
<polygon fill="none" stroke="#404040" points="541.8,-316.7 535.69,-312.89 536.85,-305.77 542.97,-309.59 541.8,-316.7"/>
<text text-anchor="middle" x="566" y="-338" font-family="Helvetica,sans-Serif" font-size="10.00"> &#45;s_</text>
</g>
<!-- Node9&#45;&gt;Node1 -->
<g id="edge8" class="edge">
<title>Node9&#45;&gt;Node1</title>
<path fill="none" stroke="#404040" d="M181.87,-187.85C202.8,-161.37 234.83,-120.87 259.96,-89.1"/>
<polygon fill="none" stroke="#404040" points="260.07,-88.96 260.65,-81.78 267.51,-79.55 266.93,-86.74 260.07,-88.96"/>
<text text-anchor="middle" x="277" y="-101" font-family="Helvetica,sans-Serif" font-size="10.00"> #settings_</text>
</g>
<!-- Node10 -->
<g id="node10" class="node">
<title>Node10</title>
<g id="a_node10"><a xlink:title=" ">
<polygon fill="none" stroke="#bfbfbf" points="62.5,-381 62.5,-438 145.5,-438 145.5,-381 62.5,-381"/>
<text text-anchor="middle" x="104" y="-426" font-family="Helvetica,sans-Serif" font-size="10.00">CallSignMode</text>
<polyline fill="none" stroke="#bfbfbf" points="62.5,-419 145.5,-419 "/>
<text text-anchor="middle" x="104" y="-407" font-family="Helvetica,sans-Serif" font-size="10.00"> </text>
<polyline fill="none" stroke="#bfbfbf" points="62.5,-400 145.5,-400 "/>
<text text-anchor="middle" x="104" y="-388" font-family="Helvetica,sans-Serif" font-size="10.00"> </text>
</a>
</g>
</g>
<!-- Node10&#45;&gt;Node9 -->
<g id="edge10" class="edge">
<title>Node10&#45;&gt;Node9</title>
<path fill="none" stroke="#404040" d="M101.14,-380.69C100.2,-364.01 100.39,-342.51 105,-324 110.99,-299.98 123.29,-275.28 134.74,-255.73"/>
<polygon fill="none" stroke="#404040" points="134.76,-255.7 134.44,-248.49 140.97,-245.43 141.29,-252.63 134.76,-255.7"/>
<text text-anchor="middle" x="149" y="-338" font-family="Helvetica,sans-Serif" font-size="10.00"> +call_sign_mode</text>
</g>
<!-- Node11 -->
<g id="node11" class="node">
<title>Node11</title>
<g id="a_node11"><a xlink:title=" ">
<polygon fill="none" stroke="#bfbfbf" points="0,-381 0,-438 44,-438 44,-381 0,-381"/>
<text text-anchor="middle" x="22" y="-426" font-family="Helvetica,sans-Serif" font-size="10.00">string</text>
<polyline fill="none" stroke="#bfbfbf" points="0,-419 44,-419 "/>
<text text-anchor="middle" x="22" y="-407" font-family="Helvetica,sans-Serif" font-size="10.00"> </text>
<polyline fill="none" stroke="#bfbfbf" points="0,-400 44,-400 "/>
<text text-anchor="middle" x="22" y="-388" font-family="Helvetica,sans-Serif" font-size="10.00"> </text>
</a>
</g>
</g>
<!-- Node11&#45;&gt;Node9 -->
<g id="edge11" class="edge">
<title>Node11&#45;&gt;Node9</title>
<path fill="none" stroke="#404040" d="M24.34,-380.67C26.79,-363.39 31.79,-341.25 42,-324 58.62,-295.93 85.05,-271.07 108.69,-252.45"/>
<polygon fill="none" stroke="#404040" points="108.74,-252.41 111.07,-245.59 118.27,-245.11 115.94,-251.94 108.74,-252.41"/>
<text text-anchor="middle" x="69.5" y="-338" font-family="Helvetica,sans-Serif" font-size="10.00"> +call_sign</text>
</g>
</g>
</svg>
