<?xml version="1.0" encoding="UTF-8" standalone="no"?>
<!DOCTYPE svg PUBLIC "-//W3C//DTD SVG 1.1//EN"
 "http://www.w3.org/Graphics/SVG/1.1/DTD/svg11.dtd">
<!-- Generated by graphviz version 2.43.0 (0)
 -->
<!-- Title: signal_easel::psk::PskWaveShaper Pages: 1 -->
<svg width="675pt" height="248pt"
 viewBox="0.00 0.00 675.00 248.00" xmlns="http://www.w3.org/2000/svg" xmlns:xlink="http://www.w3.org/1999/xlink">
<g id="graph0" class="graph" transform="scale(1 1) rotate(0) translate(4 244)">
<title>signal_easel::psk::PskWaveShaper</title>
<!-- Node1 -->
<g id="node1" class="node">
<title>Node1</title>
<g id="a_node1"><a xlink:title=" ">
<polygon fill="#bfbfbf" stroke="black" points="213.5,-0.5 213.5,-90.5 326.5,-90.5 326.5,-0.5 213.5,-0.5"/>
<text text-anchor="start" x="221.5" y="-78.5" font-family="Helvetica,sans-Serif" font-size="10.00">signal_easel::psk::</text>
<text text-anchor="middle" x="270" y="-67.5" font-family="Helvetica,sans-Serif" font-size="10.00">PskWaveShaper</text>
<polyline fill="none" stroke="black" points="213.5,-60.5 326.5,-60.5 "/>
<text text-anchor="middle" x="270" y="-48.5" font-family="Helvetica,sans-Serif" font-size="10.00"> </text>
<polyline fill="none" stroke="black" points="213.5,-41.5 326.5,-41.5 "/>
<text text-anchor="start" x="221.5" y="-29.5" font-family="Helvetica,sans-Serif" font-size="10.00">+ PskWaveShaper()</text>
<text text-anchor="start" x="221.5" y="-18.5" font-family="Helvetica,sans-Serif" font-size="10.00">+ addSymbol()</text>
<text text-anchor="start" x="221.5" y="-7.5" font-family="Helvetica,sans-Serif" font-size="10.00">&#45; envelopeFilter()</text>
</a>
</g>
</g>
<!-- Node2 -->
<g id="node2" class="node">
<title>Node2</title>
<g id="a_node2"><a xlink:title=" ">
<polygon fill="none" stroke="black" points="0,-182.5 0,-239.5 46,-239.5 46,-182.5 0,-182.5"/>
<text text-anchor="middle" x="23" y="-227.5" font-family="Helvetica,sans-Serif" font-size="10.00">Phase</text>
<polyline fill="none" stroke="black" points="0,-220.5 46,-220.5 "/>
<text text-anchor="middle" x="23" y="-208.5" font-family="Helvetica,sans-Serif" font-size="10.00"> </text>
<polyline fill="none" stroke="black" points="0,-201.5 46,-201.5 "/>
<text text-anchor="middle" x="23" y="-189.5" font-family="Helvetica,sans-Serif" font-size="10.00"> </text>
</a>
</g>
</g>
<!-- Node2&#45;&gt;Node1 -->
<g id="edge1" class="edge">
<title>Node2&#45;&gt;Node1</title>
<path fill="none" stroke="#404040" d="M21.06,-182.49C21.02,-159.94 24.75,-128.64 43,-109 64.51,-85.86 142.83,-67.87 201.49,-57.26"/>
<polygon fill="none" stroke="#404040" points="201.5,-57.25 206.71,-52.27 213.31,-55.17 208.1,-60.15 201.5,-57.25"/>
<text text-anchor="middle" x="86" y="-139.5" font-family="Helvetica,sans-Serif" font-size="10.00"> &#45;current_phase_</text>
<text text-anchor="middle" x="86" y="-128.5" font-family="Helvetica,sans-Serif" font-size="10.00">&#45;previous_phase_</text>
</g>
<!-- Node3 -->
<g id="node3" class="node">
<title>Node3</title>
<g id="a_node3"><a xlink:title=" ">
<polygon fill="none" stroke="black" points="113,-182.5 113,-239.5 151,-239.5 151,-182.5 113,-182.5"/>
<text text-anchor="middle" x="132" y="-227.5" font-family="Helvetica,sans-Serif" font-size="10.00">bool</text>
<polyline fill="none" stroke="black" points="113,-220.5 151,-220.5 "/>
<text text-anchor="middle" x="132" y="-208.5" font-family="Helvetica,sans-Serif" font-size="10.00"> </text>
<polyline fill="none" stroke="black" points="113,-201.5 151,-201.5 "/>
<text text-anchor="middle" x="132" y="-189.5" font-family="Helvetica,sans-Serif" font-size="10.00"> </text>
</a>
</g>
</g>
<!-- Node3&#45;&gt;Node1 -->
<g id="edge2" class="edge">
<title>Node3&#45;&gt;Node1</title>
<path fill="none" stroke="#404040" d="M130.92,-182.13C131.46,-160.26 135.41,-130.09 151,-109 163.87,-91.59 183.05,-78.58 202.27,-69.08"/>
<polygon fill="none" stroke="#404040" points="202.33,-69.05 206.1,-62.91 213.23,-64.02 209.46,-70.17 202.33,-69.05"/>
<text text-anchor="middle" x="208.5" y="-134" font-family="Helvetica,sans-Serif" font-size="10.00"> &#45;filter_end_of_symbol_</text>
</g>
<!-- Node4 -->
<g id="node4" class="node">
<title>Node4</title>
<g id="a_node4"><a xlink:title=" ">
<polygon fill="none" stroke="black" points="245,-182.5 245,-239.5 295,-239.5 295,-182.5 245,-182.5"/>
<text text-anchor="middle" x="270" y="-227.5" font-family="Helvetica,sans-Serif" font-size="10.00">double</text>
<polyline fill="none" stroke="black" points="245,-220.5 295,-220.5 "/>
<text text-anchor="middle" x="270" y="-208.5" font-family="Helvetica,sans-Serif" font-size="10.00"> </text>
<polyline fill="none" stroke="black" points="245,-201.5 295,-201.5 "/>
<text text-anchor="middle" x="270" y="-189.5" font-family="Helvetica,sans-Serif" font-size="10.00"> </text>
</a>
</g>
</g>
<!-- Node4&#45;&gt;Node1 -->
<g id="edge3" class="edge">
<title>Node4&#45;&gt;Node1</title>
<path fill="none" stroke="#404040" d="M270,-182.26C270,-160.54 270,-129.6 270,-102.74"/>
<polygon fill="none" stroke="#404040" points="270,-102.73 266,-96.73 270,-90.73 274,-96.73 270,-102.73"/>
<text text-anchor="middle" x="327.5" y="-156" font-family="Helvetica,sans-Serif" font-size="10.00"> &#45;AMPLITUDE_</text>
<text text-anchor="start" x="270" y="-145" font-family="Helvetica,sans-Serif" font-size="10.00">&#45;FILTER_SIN_PI_SCALER</text>
<text text-anchor="middle" x="327.5" y="-134" font-family="Helvetica,sans-Serif" font-size="10.00">_</text>
<text text-anchor="middle" x="327.5" y="-123" font-family="Helvetica,sans-Serif" font-size="10.00">&#45;angle_delta_</text>
<text text-anchor="middle" x="327.5" y="-112" font-family="Helvetica,sans-Serif" font-size="10.00">&#45;carrier_wave_angle_</text>
</g>
<!-- Node5 -->
<g id="node5" class="node">
<title>Node5</title>
<g id="a_node5"><a xlink:title=" ">
<polygon fill="none" stroke="black" points="380,-182.5 380,-239.5 436,-239.5 436,-182.5 380,-182.5"/>
<text text-anchor="middle" x="408" y="-227.5" font-family="Helvetica,sans-Serif" font-size="10.00">uint32_t</text>
<polyline fill="none" stroke="black" points="380,-220.5 436,-220.5 "/>
<text text-anchor="middle" x="408" y="-208.5" font-family="Helvetica,sans-Serif" font-size="10.00"> </text>
<polyline fill="none" stroke="black" points="380,-201.5 436,-201.5 "/>
<text text-anchor="middle" x="408" y="-189.5" font-family="Helvetica,sans-Serif" font-size="10.00"> </text>
</a>
</g>
</g>
<!-- Node5&#45;&gt;Node1 -->
<g id="edge4" class="edge">
<title>Node5&#45;&gt;Node1</title>
<path fill="none" stroke="#404040" d="M408.06,-182.12C406.77,-160.25 401.87,-130.07 386,-109 373.63,-92.58 355.66,-79.99 337.53,-70.56"/>
<polygon fill="none" stroke="#404040" points="337.37,-70.48 330.22,-71.45 326.58,-65.23 333.72,-64.26 337.37,-70.48"/>
<text text-anchor="start" x="406" y="-156" font-family="Helvetica,sans-Serif" font-size="10.00"> &#45;HALF_SAMPLES_PER_SYMBOL</text>
<text text-anchor="middle" x="483" y="-145" font-family="Helvetica,sans-Serif" font-size="10.00">_</text>
<text text-anchor="start" x="406" y="-134" font-family="Helvetica,sans-Serif" font-size="10.00">&#45;SAMPLES_PER_SYMBOL</text>
<text text-anchor="middle" x="483" y="-123" font-family="Helvetica,sans-Serif" font-size="10.00">_</text>
<text text-anchor="middle" x="483" y="-112" font-family="Helvetica,sans-Serif" font-size="10.00">&#45;sample_num_</text>
</g>
<!-- Node6 -->
<g id="node6" class="node">
<title>Node6</title>
<g id="a_node6"><a xlink:title=" ">
<polygon fill="none" stroke="black" points="528,-182.5 528,-239.5 642,-239.5 642,-182.5 528,-182.5"/>
<text text-anchor="middle" x="585" y="-227.5" font-family="Helvetica,sans-Serif" font-size="10.00">vector&lt; int16_t &gt; &amp;</text>
<polyline fill="none" stroke="black" points="528,-220.5 642,-220.5 "/>
<text text-anchor="middle" x="585" y="-208.5" font-family="Helvetica,sans-Serif" font-size="10.00"> </text>
<polyline fill="none" stroke="black" points="528,-201.5 642,-201.5 "/>
<text text-anchor="middle" x="585" y="-189.5" font-family="Helvetica,sans-Serif" font-size="10.00"> </text>
</a>
</g>
</g>
<!-- Node6&#45;&gt;Node1 -->
<g id="edge5" class="edge">
<title>Node6&#45;&gt;Node1</title>
<path fill="none" stroke="#404040" d="M586.62,-182.16C586.35,-159.4 582.08,-127.99 563,-109 532.01,-78.15 415.34,-60.86 338.9,-52.63"/>
<polygon fill="none" stroke="#404040" points="338.46,-52.58 332.08,-55.94 326.53,-51.34 332.91,-47.98 338.46,-52.58"/>
<text text-anchor="middle" x="626" y="-134" font-family="Helvetica,sans-Serif" font-size="10.00"> &#45;sample_buffer_</text>
</g>
</g>
</svg>
