<?xml version="1.0" encoding="UTF-8" standalone="no"?>
<!DOCTYPE svg PUBLIC "-//W3C//DTD SVG 1.1//EN"
 "http://www.w3.org/Graphics/SVG/1.1/DTD/svg11.dtd">
<!-- Generated by graphviz version 2.43.0 (0)
 -->
<!-- Title: signal_easel::ax25::Address::assertSsidIsValid Pages: 1 -->
<svg width="1259pt" height="274pt"
 viewBox="0.00 0.00 1259.00 274.00" xmlns="http://www.w3.org/2000/svg" xmlns:xlink="http://www.w3.org/1999/xlink">
<g id="graph0" class="graph" transform="scale(1 1) rotate(0) translate(4 270)">
<title>signal_easel::ax25::Address::assertSsidIsValid</title>
<!-- Node1 -->
<g id="node1" class="node">
<title>Node1</title>
<g id="a_node1"><a xlink:title=" ">
<polygon fill="#bfbfbf" stroke="black" points="1101,-68.5 1101,-98.5 1251,-98.5 1251,-68.5 1101,-68.5"/>
<text text-anchor="start" x="1109" y="-86.5" font-family="Helvetica,sans-Serif" font-size="10.00">signal_easel::ax25</text>
<text text-anchor="middle" x="1176" y="-75.5" font-family="Helvetica,sans-Serif" font-size="10.00">::Address::assertSsidIsValid</text>
</a>
</g>
</g>
<!-- Node2 -->
<g id="node2" class="node">
<title>Node2</title>
<g id="a_node2"><a xlink:href="classsignal__easel_1_1ax25_1_1Address.html#a7fa6b0ef4241413893f201660991e4ea" target="_top" xlink:title="Checks if the address is valid, if not throws an exception with a specific error code.">
<polygon fill="none" stroke="black" points="935,-115.5 935,-145.5 1065,-145.5 1065,-115.5 935,-115.5"/>
<text text-anchor="start" x="943" y="-133.5" font-family="Helvetica,sans-Serif" font-size="10.00">signal_easel::ax25</text>
<text text-anchor="middle" x="1000" y="-122.5" font-family="Helvetica,sans-Serif" font-size="10.00">::Address::assertIsValid</text>
</a>
</g>
</g>
<!-- Node1&#45;&gt;Node2 -->
<g id="edge1" class="edge">
<title>Node1&#45;&gt;Node2</title>
<path fill="none" stroke="midnightblue" d="M1109.39,-101.22C1092,-105.92 1073.4,-110.94 1056.6,-115.48"/>
<polygon fill="midnightblue" stroke="midnightblue" points="1110.73,-104.49 1119.47,-98.5 1108.9,-97.73 1110.73,-104.49"/>
</g>
<!-- Node18 -->
<g id="node18" class="node">
<title>Node18</title>
<g id="a_node18"><a xlink:href="classsignal__easel_1_1ax25_1_1Address.html#a069a8d96c0d74e4a3288876c429c7187" target="_top" xlink:title="Set the SSID (0&#45;15)">
<polygon fill="none" stroke="black" points="946.5,-44.5 946.5,-74.5 1053.5,-74.5 1053.5,-44.5 946.5,-44.5"/>
<text text-anchor="start" x="954.5" y="-62.5" font-family="Helvetica,sans-Serif" font-size="10.00">signal_easel::ax25</text>
<text text-anchor="middle" x="1000" y="-51.5" font-family="Helvetica,sans-Serif" font-size="10.00">::Address::setSsid</text>
</a>
</g>
</g>
<!-- Node1&#45;&gt;Node18 -->
<g id="edge24" class="edge">
<title>Node1&#45;&gt;Node18</title>
<path fill="none" stroke="midnightblue" d="M1090.83,-71.89C1078.16,-70.14 1065.4,-68.38 1053.65,-66.76"/>
<polygon fill="midnightblue" stroke="midnightblue" points="1090.57,-75.39 1100.96,-73.29 1091.53,-68.45 1090.57,-75.39"/>
</g>
<!-- Node3 -->
<g id="node3" class="node">
<title>Node3</title>
<g id="a_node3"><a xlink:href="classsignal__easel_1_1ax25_1_1Frame.html#af86d4b534367a8faf6b628301c9ffceb" target="_top" xlink:title=" ">
<polygon fill="none" stroke="black" points="733.5,-235.5 733.5,-265.5 894.5,-265.5 894.5,-235.5 733.5,-235.5"/>
<text text-anchor="start" x="741.5" y="-253.5" font-family="Helvetica,sans-Serif" font-size="10.00">signal_easel::ax25</text>
<text text-anchor="middle" x="814" y="-242.5" font-family="Helvetica,sans-Serif" font-size="10.00">::Frame::addRepeaterAddress</text>
</a>
</g>
</g>
<!-- Node2&#45;&gt;Node3 -->
<g id="edge2" class="edge">
<title>Node2&#45;&gt;Node3</title>
<path fill="none" stroke="midnightblue" d="M981,-153.3C962.61,-175.13 932.12,-207.47 899,-226.5 893.08,-229.9 886.65,-232.85 880.07,-235.4"/>
<polygon fill="midnightblue" stroke="midnightblue" points="983.77,-155.45 987.44,-145.5 978.37,-150.99 983.77,-155.45"/>
</g>
<!-- Node8 -->
<g id="node8" class="node">
<title>Node8</title>
<g id="a_node8"><a xlink:href="classsignal__easel_1_1ax25_1_1Address.html#a0c31737081a9184b56dc32150b23cb0a" target="_top" xlink:title="Get the address as a byte array.">
<polygon fill="none" stroke="black" points="743,-49.5 743,-79.5 885,-79.5 885,-49.5 743,-49.5"/>
<text text-anchor="start" x="751" y="-67.5" font-family="Helvetica,sans-Serif" font-size="10.00">signal_easel::ax25</text>
<text text-anchor="middle" x="814" y="-56.5" font-family="Helvetica,sans-Serif" font-size="10.00">::Address::encodeAddress</text>
</a>
</g>
</g>
<!-- Node2&#45;&gt;Node8 -->
<g id="edge7" class="edge">
<title>Node2&#45;&gt;Node8</title>
<path fill="none" stroke="midnightblue" d="M947.67,-111.99C932.05,-106.37 914.82,-100.17 899,-94.5 885.44,-89.64 870.65,-84.35 857.31,-79.59"/>
<polygon fill="midnightblue" stroke="midnightblue" points="946.57,-115.32 957.17,-115.41 948.94,-108.73 946.57,-115.32"/>
</g>
<!-- Node14 -->
<g id="node14" class="node">
<title>Node14</title>
<g id="a_node14"><a xlink:href="classsignal__easel_1_1ax25_1_1Frame.html#a57b163ece54317da8d95f3b18b47c23d" target="_top" xlink:title="setters/getters for the frame.">
<polygon fill="none" stroke="black" points="729,-186.5 729,-216.5 899,-216.5 899,-186.5 729,-186.5"/>
<text text-anchor="start" x="737" y="-204.5" font-family="Helvetica,sans-Serif" font-size="10.00">signal_easel::ax25</text>
<text text-anchor="middle" x="814" y="-193.5" font-family="Helvetica,sans-Serif" font-size="10.00">::Frame::setDestinationAddress</text>
</a>
</g>
</g>
<!-- Node2&#45;&gt;Node14 -->
<g id="edge14" class="edge">
<title>Node2&#45;&gt;Node14</title>
<path fill="none" stroke="midnightblue" d="M961.25,-150C942.79,-159.09 920.05,-169.6 899,-177.5 890.48,-180.7 881.34,-183.71 872.34,-186.46"/>
<polygon fill="midnightblue" stroke="midnightblue" points="962.82,-153.13 970.22,-145.54 959.7,-146.86 962.82,-153.13"/>
</g>
<!-- Node16 -->
<g id="node16" class="node">
<title>Node16</title>
<g id="a_node16"><a xlink:href="ax25__frame__test_8cpp.html#a091d83d42783f2a0b3fd33a0521dc2ce" target="_top" xlink:title=" ">
<polygon fill="none" stroke="black" points="605,-118 605,-137 646,-137 646,-118 605,-118"/>
<text text-anchor="middle" x="625.5" y="-125" font-family="Helvetica,sans-Serif" font-size="10.00">TEST</text>
</a>
</g>
</g>
<!-- Node2&#45;&gt;Node16 -->
<g id="edge23" class="edge">
<title>Node2&#45;&gt;Node16</title>
<path fill="none" stroke="midnightblue" d="M924.82,-128.03C916.12,-127.81 907.36,-127.63 899,-127.5 804.39,-126.08 691.29,-126.88 646.33,-127.3"/>
<polygon fill="midnightblue" stroke="midnightblue" points="924.9,-131.53 934.99,-128.29 925.09,-124.53 924.9,-131.53"/>
</g>
<!-- Node17 -->
<g id="node17" class="node">
<title>Node17</title>
<g id="a_node17"><a xlink:href="classsignal__easel_1_1ax25_1_1Frame.html#a402d26a81f82bb5c477e8930b75a771e" target="_top" xlink:title=" ">
<polygon fill="none" stroke="black" points="741,-137.5 741,-167.5 887,-167.5 887,-137.5 741,-137.5"/>
<text text-anchor="start" x="749" y="-155.5" font-family="Helvetica,sans-Serif" font-size="10.00">signal_easel::ax25</text>
<text text-anchor="middle" x="814" y="-144.5" font-family="Helvetica,sans-Serif" font-size="10.00">::Frame::setSourceAddress</text>
</a>
</g>
</g>
<!-- Node2&#45;&gt;Node17 -->
<g id="edge19" class="edge">
<title>Node2&#45;&gt;Node17</title>
<path fill="none" stroke="midnightblue" d="M924.62,-139.39C912.22,-140.88 899.38,-142.41 887.05,-143.89"/>
<polygon fill="midnightblue" stroke="midnightblue" points="925.39,-142.83 934.9,-138.16 924.56,-135.88 925.39,-142.83"/>
</g>
<!-- Node4 -->
<g id="node4" class="node">
<title>Node4</title>
<g id="a_node4"><a xlink:href="classsignal__easel_1_1ax25_1_1Frame.html#a63cf2362c2a90d20f09bbbc4f24a07ba" target="_top" xlink:title="Attempt to parse an incoming bit stream into an AX.25 frame.">
<polygon fill="none" stroke="black" points="558,-205.5 558,-235.5 693,-235.5 693,-205.5 558,-205.5"/>
<text text-anchor="start" x="566" y="-223.5" font-family="Helvetica,sans-Serif" font-size="10.00">signal_easel::ax25</text>
<text text-anchor="middle" x="625.5" y="-212.5" font-family="Helvetica,sans-Serif" font-size="10.00">::Frame::parseBitStream</text>
</a>
</g>
</g>
<!-- Node3&#45;&gt;Node4 -->
<g id="edge3" class="edge">
<title>Node3&#45;&gt;Node4</title>
<path fill="none" stroke="midnightblue" d="M723.29,-236.07C713.17,-234.44 703,-232.81 693.26,-231.24"/>
<polygon fill="midnightblue" stroke="midnightblue" points="722.94,-239.56 733.37,-237.69 724.05,-232.65 722.94,-239.56"/>
</g>
<!-- Node5 -->
<g id="node5" class="node">
<title>Node5</title>
<g id="a_node5"><a xlink:href="classsignal__easel_1_1aprs_1_1Demodulator.html#ae5a8e7634c1bc8d215a0c454a9a737fa" target="_top" xlink:title=" ">
<polygon fill="none" stroke="black" points="369,-200 369,-241 522,-241 522,-200 369,-200"/>
<text text-anchor="start" x="377" y="-229" font-family="Helvetica,sans-Serif" font-size="10.00">signal_easel::aprs</text>
<text text-anchor="start" x="377" y="-218" font-family="Helvetica,sans-Serif" font-size="10.00">::Demodulator::lookForAx25</text>
<text text-anchor="middle" x="445.5" y="-207" font-family="Helvetica,sans-Serif" font-size="10.00">Packet</text>
</a>
</g>
</g>
<!-- Node4&#45;&gt;Node5 -->
<g id="edge4" class="edge">
<title>Node4&#45;&gt;Node5</title>
<path fill="none" stroke="midnightblue" d="M547.74,-220.5C539.29,-220.5 530.68,-220.5 522.23,-220.5"/>
<polygon fill="midnightblue" stroke="midnightblue" points="547.97,-224 557.97,-220.5 547.97,-217 547.97,-224"/>
</g>
<!-- Node6 -->
<g id="node6" class="node">
<title>Node6</title>
<g id="a_node6"><a xlink:href="classsignal__easel_1_1aprs_1_1Receiver.html#afbf7869aceaf2ea7ab0be8b9af16e818" target="_top" xlink:title=" ">
<polygon fill="none" stroke="black" points="226,-215.5 226,-245.5 333,-245.5 333,-215.5 226,-215.5"/>
<text text-anchor="start" x="234" y="-233.5" font-family="Helvetica,sans-Serif" font-size="10.00">signal_easel::aprs</text>
<text text-anchor="middle" x="279.5" y="-222.5" font-family="Helvetica,sans-Serif" font-size="10.00">::Receiver::decode</text>
</a>
</g>
</g>
<!-- Node5&#45;&gt;Node6 -->
<g id="edge5" class="edge">
<title>Node5&#45;&gt;Node6</title>
<path fill="none" stroke="midnightblue" d="M358.67,-225.73C350.09,-226.26 341.56,-226.78 333.47,-227.27"/>
<polygon fill="midnightblue" stroke="midnightblue" points="358.97,-229.22 368.74,-225.12 358.55,-222.23 358.97,-229.22"/>
</g>
<!-- Node7 -->
<g id="node7" class="node">
<title>Node7</title>
<g id="a_node7"><a xlink:href="aprs__test_8cpp.html#aea66d1824e3f1e27598adf99ac6a089a" target="_top" xlink:title=" ">
<polygon fill="none" stroke="black" points="0,-155 0,-174 41,-174 41,-155 0,-155"/>
<text text-anchor="middle" x="20.5" y="-162" font-family="Helvetica,sans-Serif" font-size="10.00">TEST</text>
</a>
</g>
</g>
<!-- Node5&#45;&gt;Node7 -->
<g id="edge6" class="edge">
<title>Node5&#45;&gt;Node7</title>
<path fill="none" stroke="midnightblue" d="M358.68,-209.14C257.64,-195.76 96.54,-174.43 41.04,-167.09"/>
<polygon fill="midnightblue" stroke="midnightblue" points="358.5,-212.65 368.88,-210.49 359.42,-205.71 358.5,-212.65"/>
</g>
<!-- Node9 -->
<g id="node9" class="node">
<title>Node9</title>
<g id="a_node9"><a xlink:href="classsignal__easel_1_1ax25_1_1Frame.html#a24e7d5ffc6504a3380e97142d1bc084e" target="_top" xlink:title="Builds all internal portions of the frame. Doesn&#39;t include the flags.">
<polygon fill="none" stroke="black" points="568.5,-30.5 568.5,-60.5 682.5,-60.5 682.5,-30.5 568.5,-30.5"/>
<text text-anchor="start" x="576.5" y="-48.5" font-family="Helvetica,sans-Serif" font-size="10.00">signal_easel::ax25</text>
<text text-anchor="middle" x="625.5" y="-37.5" font-family="Helvetica,sans-Serif" font-size="10.00">::Frame::buildFrame</text>
</a>
</g>
</g>
<!-- Node8&#45;&gt;Node9 -->
<g id="edge8" class="edge">
<title>Node8&#45;&gt;Node9</title>
<path fill="none" stroke="midnightblue" d="M732.42,-56.29C715.68,-54.59 698.38,-52.82 682.74,-51.23"/>
<polygon fill="midnightblue" stroke="midnightblue" points="732.45,-59.81 742.76,-57.34 733.16,-52.85 732.45,-59.81"/>
</g>
<!-- Node13 -->
<g id="node13" class="node">
<title>Node13</title>
<g id="a_node13"><a xlink:href="ax25__address__test_8cpp.html#a1d87028368532ba4ae914da9397571d3" target="_top" xlink:title=" ">
<polygon fill="none" stroke="black" points="605,-80 605,-99 646,-99 646,-80 605,-80"/>
<text text-anchor="middle" x="625.5" y="-87" font-family="Helvetica,sans-Serif" font-size="10.00">TEST</text>
</a>
</g>
</g>
<!-- Node8&#45;&gt;Node13 -->
<g id="edge13" class="edge">
<title>Node8&#45;&gt;Node13</title>
<path fill="none" stroke="midnightblue" d="M732.55,-75.28C700.81,-79.54 667.07,-84.06 646.38,-86.84"/>
<polygon fill="midnightblue" stroke="midnightblue" points="733.31,-78.71 742.76,-73.92 732.38,-71.78 733.31,-78.71"/>
</g>
<!-- Node10 -->
<g id="node10" class="node">
<title>Node10</title>
<g id="a_node10"><a xlink:href="classsignal__easel_1_1ax25_1_1Frame.html#a2b4f6ebcb7592a7e5a21114c8fafa503" target="_top" xlink:title="A step beyond buildFrame. This function builds the frame, does the bit stuffing, adds the flags,...">
<polygon fill="none" stroke="black" points="383,-52.5 383,-82.5 508,-82.5 508,-52.5 383,-52.5"/>
<text text-anchor="start" x="391" y="-70.5" font-family="Helvetica,sans-Serif" font-size="10.00">signal_easel::ax25</text>
<text text-anchor="middle" x="445.5" y="-59.5" font-family="Helvetica,sans-Serif" font-size="10.00">::Frame::encodeFrame</text>
</a>
</g>
</g>
<!-- Node9&#45;&gt;Node10 -->
<g id="edge9" class="edge">
<title>Node9&#45;&gt;Node10</title>
<path fill="none" stroke="midnightblue" d="M558.12,-53.7C541.7,-55.73 524.18,-57.9 508.01,-59.9"/>
<polygon fill="midnightblue" stroke="midnightblue" points="558.68,-57.16 568.18,-52.46 557.83,-50.21 558.68,-57.16"/>
</g>
<!-- Node11 -->
<g id="node11" class="node">
<title>Node11</title>
<g id="a_node11"><a xlink:href="namespacesignal__easel_1_1aprs.html#a77481001a5b78a839972bb4220b43e4d" target="_top" xlink:title="The base function to encode an APRS packet with the provided base data and info field.">
<polygon fill="none" stroke="black" points="227.5,-127.5 227.5,-157.5 331.5,-157.5 331.5,-127.5 227.5,-127.5"/>
<text text-anchor="start" x="235.5" y="-145.5" font-family="Helvetica,sans-Serif" font-size="10.00">signal_easel::aprs</text>
<text text-anchor="middle" x="279.5" y="-134.5" font-family="Helvetica,sans-Serif" font-size="10.00">::encodePacket</text>
</a>
</g>
</g>
<!-- Node10&#45;&gt;Node11 -->
<g id="edge10" class="edge">
<title>Node10&#45;&gt;Node11</title>
<path fill="none" stroke="midnightblue" d="M401.89,-86.98C374.27,-99.62 338.81,-115.83 313.36,-127.47"/>
<polygon fill="midnightblue" stroke="midnightblue" points="403.67,-90.02 411.31,-82.68 400.76,-83.65 403.67,-90.02"/>
</g>
<!-- Node12 -->
<g id="node12" class="node">
<title>Node12</title>
<g id="a_node12"><a xlink:href="classsignal__easel_1_1aprs_1_1Modulator.html#a8ae067701382dec1680b786583ace687" target="_top" xlink:title=" ">
<polygon fill="none" stroke="black" points="77,-127.5 77,-157.5 190,-157.5 190,-127.5 77,-127.5"/>
<text text-anchor="start" x="85" y="-145.5" font-family="Helvetica,sans-Serif" font-size="10.00">signal_easel::aprs</text>
<text text-anchor="middle" x="133.5" y="-134.5" font-family="Helvetica,sans-Serif" font-size="10.00">::Modulator::encode</text>
</a>
</g>
</g>
<!-- Node11&#45;&gt;Node12 -->
<g id="edge11" class="edge">
<title>Node11&#45;&gt;Node12</title>
<path fill="none" stroke="midnightblue" d="M217.06,-142.5C208.21,-142.5 199.14,-142.5 190.4,-142.5"/>
<polygon fill="midnightblue" stroke="midnightblue" points="217.33,-146 227.33,-142.5 217.33,-139 217.33,-146"/>
</g>
<!-- Node12&#45;&gt;Node7 -->
<g id="edge12" class="edge">
<title>Node12&#45;&gt;Node7</title>
<path fill="none" stroke="midnightblue" d="M66.58,-155.57C57.37,-157.39 48.56,-159.14 41.21,-160.59"/>
<polygon fill="midnightblue" stroke="midnightblue" points="67.55,-158.94 76.67,-153.56 66.19,-152.08 67.55,-158.94"/>
</g>
<!-- Node14&#45;&gt;Node4 -->
<g id="edge17" class="edge">
<title>Node14&#45;&gt;Node4</title>
<path fill="none" stroke="midnightblue" d="M718.62,-211.11C709.99,-211.99 701.36,-212.87 693.04,-213.72"/>
<polygon fill="midnightblue" stroke="midnightblue" points="719.16,-214.58 728.75,-210.08 718.45,-207.61 719.16,-214.58"/>
</g>
<!-- Node15 -->
<g id="node15" class="node">
<title>Node15</title>
<g id="a_node15"><a xlink:href="namespacesignal__easel_1_1aprs.html#a586b022fa0c917fa8557bbd5cdc6aeeb" target="_top" xlink:title=" ">
<polygon fill="none" stroke="black" points="569,-156.5 569,-186.5 682,-186.5 682,-156.5 569,-156.5"/>
<text text-anchor="start" x="577" y="-174.5" font-family="Helvetica,sans-Serif" font-size="10.00">signal_easel::aprs</text>
<text text-anchor="middle" x="625.5" y="-163.5" font-family="Helvetica,sans-Serif" font-size="10.00">::AddRequiredFields</text>
</a>
</g>
</g>
<!-- Node14&#45;&gt;Node15 -->
<g id="edge15" class="edge">
<title>Node14&#45;&gt;Node15</title>
<path fill="none" stroke="midnightblue" d="M718.71,-186.33C706.16,-184.31 693.64,-182.3 682.06,-180.44"/>
<polygon fill="midnightblue" stroke="midnightblue" points="718.32,-189.82 728.75,-187.95 719.44,-182.9 718.32,-189.82"/>
</g>
<!-- Node14&#45;&gt;Node16 -->
<g id="edge18" class="edge">
<title>Node14&#45;&gt;Node16</title>
<path fill="none" stroke="midnightblue" d="M739.97,-182.7C736.2,-181.09 732.52,-179.36 729,-177.5 710.59,-167.76 711.34,-157.37 693,-147.5 678.24,-139.56 659.9,-134.35 646.23,-131.24"/>
<polygon fill="midnightblue" stroke="midnightblue" points="738.91,-186.05 749.5,-186.46 741.48,-179.53 738.91,-186.05"/>
</g>
<!-- Node15&#45;&gt;Node11 -->
<g id="edge16" class="edge">
<title>Node15&#45;&gt;Node11</title>
<path fill="none" stroke="midnightblue" d="M558.54,-165.94C492.38,-160.36 391.9,-151.89 331.58,-146.81"/>
<polygon fill="midnightblue" stroke="midnightblue" points="558.59,-169.46 568.85,-166.81 559.18,-162.48 558.59,-169.46"/>
</g>
<!-- Node17&#45;&gt;Node4 -->
<g id="edge21" class="edge">
<title>Node17&#45;&gt;Node4</title>
<path fill="none" stroke="midnightblue" d="M747.15,-170.74C740.96,-172.86 734.82,-175.12 729,-177.5 712.25,-184.34 709.55,-189.19 693,-196.5 685.93,-199.62 678.31,-202.66 670.84,-205.47"/>
<polygon fill="midnightblue" stroke="midnightblue" points="748.49,-173.98 756.89,-167.53 746.3,-167.34 748.49,-173.98"/>
</g>
<!-- Node17&#45;&gt;Node15 -->
<g id="edge20" class="edge">
<title>Node17&#45;&gt;Node15</title>
<path fill="none" stroke="midnightblue" d="M730.76,-160.88C714.35,-162.55 697.48,-164.27 682.22,-165.82"/>
<polygon fill="midnightblue" stroke="midnightblue" points="731.3,-164.34 740.89,-159.85 730.59,-157.38 731.3,-164.34"/>
</g>
<!-- Node17&#45;&gt;Node16 -->
<g id="edge22" class="edge">
<title>Node17&#45;&gt;Node16</title>
<path fill="none" stroke="midnightblue" d="M730.83,-141.49C699.59,-137.3 666.67,-132.88 646.36,-130.16"/>
<polygon fill="midnightblue" stroke="midnightblue" points="730.52,-144.97 740.89,-142.83 731.45,-138.04 730.52,-144.97"/>
</g>
<!-- Node19 -->
<g id="node19" class="node">
<title>Node19</title>
<g id="a_node19"><a xlink:href="classsignal__easel_1_1ax25_1_1Address.html#af2e2c1061b619a32d966d4b08eed7ede" target="_top" xlink:title=" ">
<polygon fill="none" stroke="black" points="760.5,-0.5 760.5,-30.5 867.5,-30.5 867.5,-0.5 760.5,-0.5"/>
<text text-anchor="start" x="768.5" y="-18.5" font-family="Helvetica,sans-Serif" font-size="10.00">signal_easel::ax25</text>
<text text-anchor="middle" x="814" y="-7.5" font-family="Helvetica,sans-Serif" font-size="10.00">::Address::Address</text>
</a>
</g>
</g>
<!-- Node18&#45;&gt;Node19 -->
<g id="edge25" class="edge">
<title>Node18&#45;&gt;Node19</title>
<path fill="none" stroke="midnightblue" d="M936.53,-44.56C914.17,-39.21 889.2,-33.24 867.73,-28.11"/>
<polygon fill="midnightblue" stroke="midnightblue" points="935.73,-47.97 946.27,-46.89 937.36,-41.16 935.73,-47.97"/>
</g>
</g>
</svg>
