<?xml version="1.0" encoding="UTF-8" standalone="no"?>
<!DOCTYPE svg PUBLIC "-//W3C//DTD SVG 1.1//EN"
 "http://www.w3.org/Graphics/SVG/1.1/DTD/svg11.dtd">
<!-- Generated by graphviz version 2.43.0 (0)
 -->
<!-- Title: signal_easel::aprs::telemetry::TelemetryTranscoder::decodeDataReportMessage Pages: 1 -->
<svg width="369pt" height="230pt"
 viewBox="0.00 0.00 369.00 230.00" xmlns="http://www.w3.org/2000/svg" xmlns:xlink="http://www.w3.org/1999/xlink">
<g id="graph0" class="graph" transform="scale(1 1) rotate(0) translate(4 226)">
<title>signal_easel::aprs::telemetry::TelemetryTranscoder::decodeDataReportMessage</title>
<!-- Node1 -->
<g id="node1" class="node">
<title>Node1</title>
<g id="a_node1"><a xlink:title="Decode a data report message.">
<polygon fill="#bfbfbf" stroke="black" points="0,-90.5 0,-131.5 177,-131.5 177,-90.5 0,-90.5"/>
<text text-anchor="start" x="8" y="-119.5" font-family="Helvetica,sans-Serif" font-size="10.00">signal_easel::aprs</text>
<text text-anchor="start" x="8" y="-108.5" font-family="Helvetica,sans-Serif" font-size="10.00">::telemetry::TelemetryTranscoder</text>
<text text-anchor="middle" x="88.5" y="-97.5" font-family="Helvetica,sans-Serif" font-size="10.00">::decodeDataReportMessage</text>
</a>
</g>
</g>
<!-- Node2 -->
<g id="node2" class="node">
<title>Node2</title>
<g id="a_node2"><a xlink:href="classsignal__easel_1_1aprs_1_1telemetry_1_1TelemetryData.html#a953b60ecf9067ab71e13de6fdfdcfeec" target="_top" xlink:title=" ">
<polygon fill="none" stroke="black" points="213,-180.5 213,-221.5 361,-221.5 361,-180.5 213,-180.5"/>
<text text-anchor="start" x="221" y="-209.5" font-family="Helvetica,sans-Serif" font-size="10.00">signal_easel::aprs</text>
<text text-anchor="start" x="221" y="-198.5" font-family="Helvetica,sans-Serif" font-size="10.00">::telemetry::TelemetryData</text>
<text text-anchor="middle" x="287" y="-187.5" font-family="Helvetica,sans-Serif" font-size="10.00">::getAnalogParameters</text>
</a>
</g>
</g>
<!-- Node1&#45;&gt;Node2 -->
<g id="edge1" class="edge">
<title>Node1&#45;&gt;Node2</title>
<path fill="none" stroke="midnightblue" d="M130.09,-131.51C154.04,-143.41 185.04,-158.48 213,-171 217.05,-172.81 221.24,-174.65 225.48,-176.47"/>
<polygon fill="midnightblue" stroke="midnightblue" points="224.2,-179.73 234.77,-180.42 226.94,-173.29 224.2,-179.73"/>
</g>
<!-- Node3 -->
<g id="node3" class="node">
<title>Node3</title>
<g id="a_node3"><a xlink:href="classsignal__easel_1_1aprs_1_1telemetry_1_1TelemetryData.html#afeb4d3aa91fc5deb8123589daccd87ea" target="_top" xlink:title=" ">
<polygon fill="none" stroke="black" points="213,-120.5 213,-161.5 361,-161.5 361,-120.5 213,-120.5"/>
<text text-anchor="start" x="221" y="-149.5" font-family="Helvetica,sans-Serif" font-size="10.00">signal_easel::aprs</text>
<text text-anchor="start" x="221" y="-138.5" font-family="Helvetica,sans-Serif" font-size="10.00">::telemetry::TelemetryData</text>
<text text-anchor="middle" x="287" y="-127.5" font-family="Helvetica,sans-Serif" font-size="10.00">::getDigitalParameters</text>
</a>
</g>
</g>
<!-- Node1&#45;&gt;Node3 -->
<g id="edge2" class="edge">
<title>Node1&#45;&gt;Node3</title>
<path fill="none" stroke="midnightblue" d="M177.12,-124.38C185.72,-125.69 194.44,-127.02 203,-128.33"/>
<polygon fill="midnightblue" stroke="midnightblue" points="202.54,-131.8 212.96,-129.85 203.6,-124.88 202.54,-131.8"/>
</g>
<!-- Node4 -->
<g id="node4" class="node">
<title>Node4</title>
<g id="a_node4"><a xlink:href="classsignal__easel_1_1aprs_1_1telemetry_1_1TelemetryData.html#a76c46a2b54c40e87c984d957f0439b43" target="_top" xlink:title="Set the comment. Must be less than 220 characters. If the comment is too long, it will be truncated.">
<polygon fill="none" stroke="black" points="213,-60.5 213,-101.5 361,-101.5 361,-60.5 213,-60.5"/>
<text text-anchor="start" x="221" y="-89.5" font-family="Helvetica,sans-Serif" font-size="10.00">signal_easel::aprs</text>
<text text-anchor="start" x="221" y="-78.5" font-family="Helvetica,sans-Serif" font-size="10.00">::telemetry::TelemetryData</text>
<text text-anchor="middle" x="287" y="-67.5" font-family="Helvetica,sans-Serif" font-size="10.00">::setComment</text>
</a>
</g>
</g>
<!-- Node1&#45;&gt;Node4 -->
<g id="edge3" class="edge">
<title>Node1&#45;&gt;Node4</title>
<path fill="none" stroke="midnightblue" d="M177.12,-97.62C185.72,-96.31 194.44,-94.98 203,-93.67"/>
<polygon fill="midnightblue" stroke="midnightblue" points="203.6,-97.12 212.96,-92.15 202.54,-90.2 203.6,-97.12"/>
</g>
<!-- Node5 -->
<g id="node5" class="node">
<title>Node5</title>
<g id="a_node5"><a xlink:href="classsignal__easel_1_1aprs_1_1telemetry_1_1TelemetryData.html#a06202af15469a4f816c38c1a980c589d" target="_top" xlink:title="Set the sequence number. Must be less than 1000. If the sequence number is greater than 999,...">
<polygon fill="none" stroke="black" points="213,-0.5 213,-41.5 361,-41.5 361,-0.5 213,-0.5"/>
<text text-anchor="start" x="221" y="-29.5" font-family="Helvetica,sans-Serif" font-size="10.00">signal_easel::aprs</text>
<text text-anchor="start" x="221" y="-18.5" font-family="Helvetica,sans-Serif" font-size="10.00">::telemetry::TelemetryData</text>
<text text-anchor="middle" x="287" y="-7.5" font-family="Helvetica,sans-Serif" font-size="10.00">::setSequenceNumber</text>
</a>
</g>
</g>
<!-- Node1&#45;&gt;Node5 -->
<g id="edge4" class="edge">
<title>Node1&#45;&gt;Node5</title>
<path fill="none" stroke="midnightblue" d="M130.09,-90.49C154.04,-78.59 185.04,-63.52 213,-51 217.05,-49.19 221.24,-47.35 225.48,-45.53"/>
<polygon fill="midnightblue" stroke="midnightblue" points="226.94,-48.71 234.77,-41.58 224.2,-42.27 226.94,-48.71"/>
</g>
</g>
</svg>
