<?xml version="1.0" encoding="UTF-8" standalone="no"?>
<!DOCTYPE svg PUBLIC "-//W3C//DTD SVG 1.1//EN"
 "http://www.w3.org/Graphics/SVG/1.1/DTD/svg11.dtd">
<!-- Generated by graphviz version 2.43.0 (0)
 -->
<!-- Title: signal_easel::ax25::Frame::parseBitStream Pages: 1 -->
<svg width="876pt" height="524pt"
 viewBox="0.00 0.00 876.00 524.00" xmlns="http://www.w3.org/2000/svg" xmlns:xlink="http://www.w3.org/1999/xlink">
<g id="graph0" class="graph" transform="scale(1 1) rotate(0) translate(4 520)">
<title>signal_easel::ax25::Frame::parseBitStream</title>
<!-- Node1 -->
<g id="node1" class="node">
<title>Node1</title>
<g id="a_node1"><a xlink:title="Attempt to parse an incoming bit stream into an AX.25 frame.">
<polygon fill="#bfbfbf" stroke="black" points="0,-318.5 0,-348.5 135,-348.5 135,-318.5 0,-318.5"/>
<text text-anchor="start" x="8" y="-336.5" font-family="Helvetica,sans-Serif" font-size="10.00">signal_easel::ax25</text>
<text text-anchor="middle" x="67.5" y="-325.5" font-family="Helvetica,sans-Serif" font-size="10.00">::Frame::parseBitStream</text>
</a>
</g>
</g>
<!-- Node2 -->
<g id="node2" class="node">
<title>Node2</title>
<g id="a_node2"><a xlink:href="classsignal__easel_1_1ax25_1_1Frame.html#af86d4b534367a8faf6b628301c9ffceb" target="_top" xlink:title=" ">
<polygon fill="none" stroke="black" points="175.5,-441.5 175.5,-471.5 336.5,-471.5 336.5,-441.5 175.5,-441.5"/>
<text text-anchor="start" x="183.5" y="-459.5" font-family="Helvetica,sans-Serif" font-size="10.00">signal_easel::ax25</text>
<text text-anchor="middle" x="256" y="-448.5" font-family="Helvetica,sans-Serif" font-size="10.00">::Frame::addRepeaterAddress</text>
</a>
</g>
</g>
<!-- Node1&#45;&gt;Node2 -->
<g id="edge1" class="edge">
<title>Node1&#45;&gt;Node2</title>
<path fill="none" stroke="midnightblue" d="M80.04,-348.61C97.42,-370.35 132.42,-410.25 171,-432.5 174.05,-434.26 177.23,-435.89 180.51,-437.42"/>
<polygon fill="midnightblue" stroke="midnightblue" points="179.35,-440.73 189.92,-441.41 182.09,-434.28 179.35,-440.73"/>
</g>
<!-- Node7 -->
<g id="node7" class="node">
<title>Node7</title>
<g id="a_node7"><a xlink:href="namespacesignal__easel_1_1ax25.html#a84e1d1bf82ef828a150bc94cf065e396" target="_top" xlink:title="Convert a bit stream from NRZI to standard encoding.">
<polygon fill="none" stroke="black" points="202.5,-294.5 202.5,-324.5 309.5,-324.5 309.5,-294.5 202.5,-294.5"/>
<text text-anchor="start" x="210.5" y="-312.5" font-family="Helvetica,sans-Serif" font-size="10.00">signal_easel::ax25</text>
<text text-anchor="middle" x="256" y="-301.5" font-family="Helvetica,sans-Serif" font-size="10.00">::decodeNrzi</text>
</a>
</g>
</g>
<!-- Node1&#45;&gt;Node7 -->
<g id="edge6" class="edge">
<title>Node1&#45;&gt;Node7</title>
<path fill="none" stroke="midnightblue" d="M135.04,-324.94C153.66,-322.54 173.84,-319.94 192.24,-317.58"/>
<polygon fill="midnightblue" stroke="midnightblue" points="192.78,-321.04 202.25,-316.29 191.89,-314.09 192.78,-321.04"/>
</g>
<!-- Node14 -->
<g id="node14" class="node">
<title>Node14</title>
<g id="a_node14"><a xlink:href="namespacesignal__easel_1_1ax25.html#aa3ad759477950552b79497f19c77ba0b" target="_top" xlink:title=" ">
<polygon fill="none" stroke="black" points="202.5,-171.5 202.5,-201.5 309.5,-201.5 309.5,-171.5 202.5,-171.5"/>
<text text-anchor="start" x="210.5" y="-189.5" font-family="Helvetica,sans-Serif" font-size="10.00">signal_easel::ax25</text>
<text text-anchor="middle" x="256" y="-178.5" font-family="Helvetica,sans-Serif" font-size="10.00">::deStuffBytes</text>
</a>
</g>
</g>
<!-- Node1&#45;&gt;Node14 -->
<g id="edge14" class="edge">
<title>Node1&#45;&gt;Node14</title>
<path fill="none" stroke="midnightblue" d="M77.15,-318.29C92.62,-292.45 127.52,-240.03 171,-211.5 177.69,-207.11 185.18,-203.47 192.86,-200.45"/>
<polygon fill="midnightblue" stroke="midnightblue" points="194.04,-203.75 202.27,-197.08 191.68,-197.16 194.04,-203.75"/>
</g>
<!-- Node17 -->
<g id="node17" class="node">
<title>Node17</title>
<g id="a_node17"><a xlink:href="namespacesignal__easel_1_1ax25.html#aedc3a21287bb20d2f0b01c9a2d6797f3" target="_top" xlink:title="Finds the start flags in the bit stream and removes them.">
<polygon fill="none" stroke="black" points="202.5,-220.5 202.5,-250.5 309.5,-250.5 309.5,-220.5 202.5,-220.5"/>
<text text-anchor="start" x="210.5" y="-238.5" font-family="Helvetica,sans-Serif" font-size="10.00">signal_easel::ax25</text>
<text text-anchor="middle" x="256" y="-227.5" font-family="Helvetica,sans-Serif" font-size="10.00">::findStartFlags</text>
</a>
</g>
</g>
<!-- Node1&#45;&gt;Node17 -->
<g id="edge19" class="edge">
<title>Node1&#45;&gt;Node17</title>
<path fill="none" stroke="midnightblue" d="M97.23,-318.4C129.4,-301.5 181.67,-274.03 217.15,-255.39"/>
<polygon fill="midnightblue" stroke="midnightblue" points="219.01,-258.36 226.24,-250.61 215.76,-252.17 219.01,-258.36"/>
</g>
<!-- Node20 -->
<g id="node20" class="node">
<title>Node20</title>
<g id="a_node20"><a xlink:href="classsignal__easel_1_1ax25_1_1Frame.html#a57b163ece54317da8d95f3b18b47c23d" target="_top" xlink:title="setters/getters for the frame.">
<polygon fill="none" stroke="black" points="171,-392.5 171,-422.5 341,-422.5 341,-392.5 171,-392.5"/>
<text text-anchor="start" x="179" y="-410.5" font-family="Helvetica,sans-Serif" font-size="10.00">signal_easel::ax25</text>
<text text-anchor="middle" x="256" y="-399.5" font-family="Helvetica,sans-Serif" font-size="10.00">::Frame::setDestinationAddress</text>
</a>
</g>
</g>
<!-- Node1&#45;&gt;Node20 -->
<g id="edge24" class="edge">
<title>Node1&#45;&gt;Node20</title>
<path fill="none" stroke="midnightblue" d="M96.19,-348.65C116.49,-359.35 144.93,-373.51 171,-383.5 176.35,-385.55 181.96,-387.52 187.62,-389.39"/>
<polygon fill="midnightblue" stroke="midnightblue" points="186.58,-392.73 197.17,-392.43 188.7,-386.06 186.58,-392.73"/>
</g>
<!-- Node21 -->
<g id="node21" class="node">
<title>Node21</title>
<g id="a_node21"><a xlink:href="classsignal__easel_1_1ax25_1_1Frame.html#a402d26a81f82bb5c477e8930b75a771e" target="_top" xlink:title=" ">
<polygon fill="none" stroke="black" points="183,-343.5 183,-373.5 329,-373.5 329,-343.5 183,-343.5"/>
<text text-anchor="start" x="191" y="-361.5" font-family="Helvetica,sans-Serif" font-size="10.00">signal_easel::ax25</text>
<text text-anchor="middle" x="256" y="-350.5" font-family="Helvetica,sans-Serif" font-size="10.00">::Frame::setSourceAddress</text>
</a>
</g>
</g>
<!-- Node1&#45;&gt;Node21 -->
<g id="edge26" class="edge">
<title>Node1&#45;&gt;Node21</title>
<path fill="none" stroke="midnightblue" d="M135.04,-342.42C147.26,-344.06 160.14,-345.78 172.75,-347.48"/>
<polygon fill="midnightblue" stroke="midnightblue" points="172.42,-350.96 182.79,-348.82 173.35,-344.02 172.42,-350.96"/>
</g>
<!-- Node3 -->
<g id="node3" class="node">
<title>Node3</title>
<g id="a_node3"><a xlink:href="classsignal__easel_1_1ax25_1_1Address.html#a7fa6b0ef4241413893f201660991e4ea" target="_top" xlink:title="Checks if the address is valid, if not throws an exception with a specific error code.">
<polygon fill="none" stroke="black" points="379,-441.5 379,-471.5 509,-471.5 509,-441.5 379,-441.5"/>
<text text-anchor="start" x="387" y="-459.5" font-family="Helvetica,sans-Serif" font-size="10.00">signal_easel::ax25</text>
<text text-anchor="middle" x="444" y="-448.5" font-family="Helvetica,sans-Serif" font-size="10.00">::Address::assertIsValid</text>
</a>
</g>
</g>
<!-- Node2&#45;&gt;Node3 -->
<g id="edge2" class="edge">
<title>Node2&#45;&gt;Node3</title>
<path fill="none" stroke="midnightblue" d="M336.69,-456.5C347.38,-456.5 358.3,-456.5 368.88,-456.5"/>
<polygon fill="midnightblue" stroke="midnightblue" points="368.91,-460 378.91,-456.5 368.91,-453 368.91,-460"/>
</g>
<!-- Node4 -->
<g id="node4" class="node">
<title>Node4</title>
<g id="a_node4"><a xlink:href="classsignal__easel_1_1ax25_1_1Address.html#af34b361f739b7995e7816b7a04465828" target="_top" xlink:title=" ">
<polygon fill="none" stroke="black" points="547,-425 547,-466 712,-466 712,-425 547,-425"/>
<text text-anchor="start" x="555" y="-454" font-family="Helvetica,sans-Serif" font-size="10.00">signal_easel::ax25</text>
<text text-anchor="start" x="555" y="-443" font-family="Helvetica,sans-Serif" font-size="10.00">::Address::assertAddressString</text>
<text text-anchor="middle" x="629.5" y="-432" font-family="Helvetica,sans-Serif" font-size="10.00">IsValid</text>
</a>
</g>
</g>
<!-- Node3&#45;&gt;Node4 -->
<g id="edge3" class="edge">
<title>Node3&#45;&gt;Node4</title>
<path fill="none" stroke="midnightblue" d="M509.18,-452.65C518.14,-452.12 527.48,-451.56 536.82,-451"/>
<polygon fill="midnightblue" stroke="midnightblue" points="537.16,-454.48 546.94,-450.39 536.75,-447.49 537.16,-454.48"/>
</g>
<!-- Node5 -->
<g id="node5" class="node">
<title>Node5</title>
<g id="a_node5"><a xlink:href="classsignal__easel_1_1ax25_1_1Address.html#a8b44c6e311d3462bd86eda03c1d384f0" target="_top" xlink:title=" ">
<polygon fill="none" stroke="black" points="554.5,-485.5 554.5,-515.5 704.5,-515.5 704.5,-485.5 554.5,-485.5"/>
<text text-anchor="start" x="562.5" y="-503.5" font-family="Helvetica,sans-Serif" font-size="10.00">signal_easel::ax25</text>
<text text-anchor="middle" x="629.5" y="-492.5" font-family="Helvetica,sans-Serif" font-size="10.00">::Address::assertSsidIsValid</text>
</a>
</g>
</g>
<!-- Node3&#45;&gt;Node5 -->
<g id="edge4" class="edge">
<title>Node3&#45;&gt;Node5</title>
<path fill="none" stroke="midnightblue" d="M507.64,-471.52C523.2,-475.25 540.01,-479.28 556,-483.12"/>
<polygon fill="midnightblue" stroke="midnightblue" points="555.29,-486.55 565.83,-485.47 556.93,-479.74 555.29,-486.55"/>
</g>
<!-- Node6 -->
<g id="node6" class="node">
<title>Node6</title>
<g id="a_node6"><a xlink:href="classsignal__easel_1_1ax25_1_1Address.html#ad66c149737cc4aa52ae9e8860176acf3" target="_top" xlink:title=" ">
<polygon fill="none" stroke="black" points="748,-485.5 748,-515.5 868,-515.5 868,-485.5 748,-485.5"/>
<text text-anchor="start" x="756" y="-503.5" font-family="Helvetica,sans-Serif" font-size="10.00">signal_easel::ax25</text>
<text text-anchor="middle" x="808" y="-492.5" font-family="Helvetica,sans-Serif" font-size="10.00">::Address::isSsidValid</text>
</a>
</g>
</g>
<!-- Node5&#45;&gt;Node6 -->
<g id="edge5" class="edge">
<title>Node5&#45;&gt;Node6</title>
<path fill="none" stroke="midnightblue" d="M704.58,-500.5C715.52,-500.5 726.76,-500.5 737.6,-500.5"/>
<polygon fill="midnightblue" stroke="midnightblue" points="737.84,-504 747.84,-500.5 737.84,-497 737.84,-504"/>
</g>
<!-- Node8 -->
<g id="node8" class="node">
<title>Node8</title>
<g id="a_node8"><a xlink:href="classsignal__easel_1_1BitStream.html#a81d4aea4c11f65e0c2b7ad2f0f0cc312" target="_top" xlink:title=" ">
<polygon fill="none" stroke="black" points="378,-392.5 378,-422.5 510,-422.5 510,-392.5 378,-392.5"/>
<text text-anchor="start" x="386" y="-410.5" font-family="Helvetica,sans-Serif" font-size="10.00">signal_easel::BitStream</text>
<text text-anchor="middle" x="444" y="-399.5" font-family="Helvetica,sans-Serif" font-size="10.00">::addOneBit</text>
</a>
</g>
</g>
<!-- Node7&#45;&gt;Node8 -->
<g id="edge7" class="edge">
<title>Node7&#45;&gt;Node8</title>
<path fill="none" stroke="midnightblue" d="M309.6,-319.47C320.59,-323.07 331.67,-327.93 341,-334.5 363.1,-350.05 355.37,-367.3 377,-383.5 378.86,-384.9 380.82,-386.22 382.83,-387.47"/>
<polygon fill="midnightblue" stroke="midnightblue" points="381.58,-390.77 392.03,-392.5 384.94,-384.63 381.58,-390.77"/>
</g>
<!-- Node10 -->
<g id="node10" class="node">
<title>Node10</title>
<g id="a_node10"><a xlink:href="classsignal__easel_1_1BitStream.html#abb315beec8c4d88115d9d4ec5f082863" target="_top" xlink:title=" ">
<polygon fill="none" stroke="black" points="378,-343.5 378,-373.5 510,-373.5 510,-343.5 378,-343.5"/>
<text text-anchor="start" x="386" y="-361.5" font-family="Helvetica,sans-Serif" font-size="10.00">signal_easel::BitStream</text>
<text text-anchor="middle" x="444" y="-350.5" font-family="Helvetica,sans-Serif" font-size="10.00">::addZeroBit</text>
</a>
</g>
</g>
<!-- Node7&#45;&gt;Node10 -->
<g id="edge9" class="edge">
<title>Node7&#45;&gt;Node10</title>
<path fill="none" stroke="midnightblue" d="M309.8,-323.41C330.39,-328.83 354.22,-335.11 375.99,-340.85"/>
<polygon fill="midnightblue" stroke="midnightblue" points="375.27,-344.28 385.83,-343.44 377.05,-337.51 375.27,-344.28"/>
</g>
<!-- Node11 -->
<g id="node11" class="node">
<title>Node11</title>
<g id="a_node11"><a xlink:href="classsignal__easel_1_1BitStream.html#aa97152ef51f73088e103a7951134aa85" target="_top" xlink:title=" ">
<polygon fill="none" stroke="black" points="378,-245.5 378,-275.5 510,-275.5 510,-245.5 378,-245.5"/>
<text text-anchor="start" x="386" y="-263.5" font-family="Helvetica,sans-Serif" font-size="10.00">signal_easel::BitStream</text>
<text text-anchor="middle" x="444" y="-252.5" font-family="Helvetica,sans-Serif" font-size="10.00">::getBitStreamLength</text>
</a>
</g>
</g>
<!-- Node7&#45;&gt;Node11 -->
<g id="edge11" class="edge">
<title>Node7&#45;&gt;Node11</title>
<path fill="none" stroke="midnightblue" d="M309.8,-295.59C330.39,-290.17 354.22,-283.89 375.99,-278.15"/>
<polygon fill="midnightblue" stroke="midnightblue" points="377.05,-281.49 385.83,-275.56 375.27,-274.72 377.05,-281.49"/>
</g>
<!-- Node12 -->
<g id="node12" class="node">
<title>Node12</title>
<g id="a_node12"><a xlink:href="classsignal__easel_1_1BitStream.html#a5b5339586e09ca5c25a7e9ded0118ffb" target="_top" xlink:title="Returns the next bit of the bit stream that will be encoded.">
<polygon fill="none" stroke="black" points="378,-196.5 378,-226.5 510,-226.5 510,-196.5 378,-196.5"/>
<text text-anchor="start" x="386" y="-214.5" font-family="Helvetica,sans-Serif" font-size="10.00">signal_easel::BitStream</text>
<text text-anchor="middle" x="444" y="-203.5" font-family="Helvetica,sans-Serif" font-size="10.00">::popNextBit</text>
</a>
</g>
</g>
<!-- Node7&#45;&gt;Node12 -->
<g id="edge12" class="edge">
<title>Node7&#45;&gt;Node12</title>
<path fill="none" stroke="midnightblue" d="M283.73,-294.45C300.35,-284.96 322.1,-272.3 341,-260.5 357.31,-250.32 359.9,-245.3 377,-236.5 381.03,-234.43 385.28,-232.43 389.59,-230.53"/>
<polygon fill="midnightblue" stroke="midnightblue" points="391.22,-233.64 399.08,-226.54 388.51,-227.19 391.22,-233.64"/>
</g>
<!-- Node13 -->
<g id="node13" class="node">
<title>Node13</title>
<g id="a_node13"><a xlink:href="classsignal__easel_1_1BitStream.html#a278666dbf58a4792e4f77538ab72b4b6" target="_top" xlink:title="After adding all of the data to the bit stream, this method will write the data left in the buffer.">
<polygon fill="none" stroke="black" points="377,-294.5 377,-324.5 511,-324.5 511,-294.5 377,-294.5"/>
<text text-anchor="start" x="385" y="-312.5" font-family="Helvetica,sans-Serif" font-size="10.00">signal_easel::BitStream</text>
<text text-anchor="middle" x="444" y="-301.5" font-family="Helvetica,sans-Serif" font-size="10.00">::pushBufferToBitStream</text>
</a>
</g>
</g>
<!-- Node7&#45;&gt;Node13 -->
<g id="edge13" class="edge">
<title>Node7&#45;&gt;Node13</title>
<path fill="none" stroke="midnightblue" d="M309.8,-309.5C327.46,-309.5 347.52,-309.5 366.61,-309.5"/>
<polygon fill="midnightblue" stroke="midnightblue" points="366.79,-313 376.79,-309.5 366.79,-306 366.79,-313"/>
</g>
<!-- Node9 -->
<g id="node9" class="node">
<title>Node9</title>
<g id="a_node9"><a xlink:href="classsignal__easel_1_1BitStream.html#a9df75eb28c03717c9fad2d30a85de6e6" target="_top" xlink:title=" ">
<polygon fill="none" stroke="black" points="563.5,-364.5 563.5,-394.5 695.5,-394.5 695.5,-364.5 563.5,-364.5"/>
<text text-anchor="start" x="571.5" y="-382.5" font-family="Helvetica,sans-Serif" font-size="10.00">signal_easel::BitStream</text>
<text text-anchor="middle" x="629.5" y="-371.5" font-family="Helvetica,sans-Serif" font-size="10.00">::addBits</text>
</a>
</g>
</g>
<!-- Node8&#45;&gt;Node9 -->
<g id="edge8" class="edge">
<title>Node8&#45;&gt;Node9</title>
<path fill="none" stroke="midnightblue" d="M510.21,-397.55C524.14,-395.42 538.96,-393.16 553.23,-390.99"/>
<polygon fill="midnightblue" stroke="midnightblue" points="554.14,-394.39 563.5,-389.42 553.08,-387.47 554.14,-394.39"/>
</g>
<!-- Node10&#45;&gt;Node9 -->
<g id="edge10" class="edge">
<title>Node10&#45;&gt;Node9</title>
<path fill="none" stroke="midnightblue" d="M510.21,-365.96C524.14,-367.56 538.96,-369.25 553.23,-370.89"/>
<polygon fill="midnightblue" stroke="midnightblue" points="553.16,-374.4 563.5,-372.06 553.96,-367.45 553.16,-374.4"/>
</g>
<!-- Node14&#45;&gt;Node11 -->
<g id="edge15" class="edge">
<title>Node14&#45;&gt;Node11</title>
<path fill="none" stroke="midnightblue" d="M309.5,-199.32C320.16,-202.7 331.13,-206.75 341,-211.5 358.56,-219.94 359.7,-227.54 377,-236.5 380.34,-238.23 383.82,-239.89 387.38,-241.47"/>
<polygon fill="midnightblue" stroke="midnightblue" points="386.32,-244.82 396.9,-245.47 389.04,-238.37 386.32,-244.82"/>
</g>
<!-- Node14&#45;&gt;Node12 -->
<g id="edge17" class="edge">
<title>Node14&#45;&gt;Node12</title>
<path fill="none" stroke="midnightblue" d="M309.8,-193.6C327.82,-196.02 348.33,-198.78 367.77,-201.39"/>
<polygon fill="midnightblue" stroke="midnightblue" points="367.43,-204.87 377.81,-202.74 368.37,-197.94 367.43,-204.87"/>
</g>
<!-- Node15 -->
<g id="node15" class="node">
<title>Node15</title>
<g id="a_node15"><a xlink:href="classsignal__easel_1_1BitStream.html#ad7b803a89b3a53ec1e4108122861a90b" target="_top" xlink:title="Returns the next bit of the bit stream without removing it.">
<polygon fill="none" stroke="black" points="378,-49.5 378,-79.5 510,-79.5 510,-49.5 378,-49.5"/>
<text text-anchor="start" x="386" y="-67.5" font-family="Helvetica,sans-Serif" font-size="10.00">signal_easel::BitStream</text>
<text text-anchor="middle" x="444" y="-56.5" font-family="Helvetica,sans-Serif" font-size="10.00">::peakNextBit</text>
</a>
</g>
</g>
<!-- Node14&#45;&gt;Node15 -->
<g id="edge16" class="edge">
<title>Node14&#45;&gt;Node15</title>
<path fill="none" stroke="midnightblue" d="M272.04,-171.34C293.62,-150.29 335.37,-112.16 377,-88.5 380.01,-86.79 383.16,-85.17 386.38,-83.63"/>
<polygon fill="midnightblue" stroke="midnightblue" points="387.9,-86.79 395.61,-79.52 385.05,-80.39 387.9,-86.79"/>
</g>
<!-- Node16 -->
<g id="node16" class="node">
<title>Node16</title>
<g id="a_node16"><a xlink:href="namespacesignal__easel_1_1ax25.html#a464aaf0b31941db183dcd08d641a793c" target="_top" xlink:title=" ">
<polygon fill="none" stroke="black" points="390.5,-0.5 390.5,-30.5 497.5,-30.5 497.5,-0.5 390.5,-0.5"/>
<text text-anchor="start" x="398.5" y="-18.5" font-family="Helvetica,sans-Serif" font-size="10.00">signal_easel::ax25</text>
<text text-anchor="middle" x="444" y="-7.5" font-family="Helvetica,sans-Serif" font-size="10.00">::reverse_bits</text>
</a>
</g>
</g>
<!-- Node14&#45;&gt;Node16 -->
<g id="edge18" class="edge">
<title>Node14&#45;&gt;Node16</title>
<path fill="none" stroke="midnightblue" d="M265.54,-171.32C282.85,-141.84 324.89,-76.5 377,-39.5 379.09,-38.02 381.28,-36.62 383.54,-35.29"/>
<polygon fill="midnightblue" stroke="midnightblue" points="385.31,-38.32 392.54,-30.57 382.06,-32.12 385.31,-38.32"/>
</g>
<!-- Node17&#45;&gt;Node11 -->
<g id="edge20" class="edge">
<title>Node17&#45;&gt;Node11</title>
<path fill="none" stroke="midnightblue" d="M309.8,-242.6C327.82,-245.02 348.33,-247.78 367.77,-250.39"/>
<polygon fill="midnightblue" stroke="midnightblue" points="367.43,-253.87 377.81,-251.74 368.37,-246.94 367.43,-253.87"/>
</g>
<!-- Node17&#45;&gt;Node12 -->
<g id="edge23" class="edge">
<title>Node17&#45;&gt;Node12</title>
<path fill="none" stroke="midnightblue" d="M309.8,-228.69C327.82,-226.36 348.33,-223.72 367.77,-221.21"/>
<polygon fill="midnightblue" stroke="midnightblue" points="368.34,-224.66 377.81,-219.91 367.45,-217.72 368.34,-224.66"/>
</g>
<!-- Node18 -->
<g id="node18" class="node">
<title>Node18</title>
<g id="a_node18"><a xlink:href="classsignal__easel_1_1BitStream.html#a2c744d357c9a6fb449fed550770e56f3" target="_top" xlink:title=" ">
<polygon fill="none" stroke="black" points="378,-147.5 378,-177.5 510,-177.5 510,-147.5 378,-147.5"/>
<text text-anchor="start" x="386" y="-165.5" font-family="Helvetica,sans-Serif" font-size="10.00">signal_easel::BitStream</text>
<text text-anchor="middle" x="444" y="-154.5" font-family="Helvetica,sans-Serif" font-size="10.00">::getBitVector</text>
</a>
</g>
</g>
<!-- Node17&#45;&gt;Node18 -->
<g id="edge21" class="edge">
<title>Node17&#45;&gt;Node18</title>
<path fill="none" stroke="midnightblue" d="M309.89,-223.1C320.41,-219.88 331.23,-216.02 341,-211.5 358.45,-203.43 359.9,-196.3 377,-187.5 381.03,-185.43 385.28,-183.43 389.59,-181.53"/>
<polygon fill="midnightblue" stroke="midnightblue" points="391.22,-184.64 399.08,-177.54 388.51,-178.19 391.22,-184.64"/>
</g>
<!-- Node19 -->
<g id="node19" class="node">
<title>Node19</title>
<g id="a_node19"><a xlink:href="classsignal__easel_1_1BitStream.html#a3212a6021fa0e315170f8654c8e1c103" target="_top" xlink:title=" ">
<polygon fill="none" stroke="black" points="378,-98.5 378,-128.5 510,-128.5 510,-98.5 378,-98.5"/>
<text text-anchor="start" x="386" y="-116.5" font-family="Helvetica,sans-Serif" font-size="10.00">signal_easel::BitStream</text>
<text text-anchor="middle" x="444" y="-105.5" font-family="Helvetica,sans-Serif" font-size="10.00">::peakNextByte</text>
</a>
</g>
</g>
<!-- Node17&#45;&gt;Node19 -->
<g id="edge22" class="edge">
<title>Node17&#45;&gt;Node19</title>
<path fill="none" stroke="midnightblue" d="M309.62,-227.68C320.86,-224.14 332.03,-218.98 341,-211.5 368.77,-188.32 350.22,-162.82 377,-138.5 378.73,-136.93 380.57,-135.45 382.5,-134.06"/>
<polygon fill="midnightblue" stroke="midnightblue" points="384.74,-136.79 391.38,-128.54 381.04,-130.85 384.74,-136.79"/>
</g>
<!-- Node20&#45;&gt;Node3 -->
<g id="edge25" class="edge">
<title>Node20&#45;&gt;Node3</title>
<path fill="none" stroke="midnightblue" d="M314.07,-422.53C333.71,-427.71 355.87,-433.55 376.22,-438.91"/>
<polygon fill="midnightblue" stroke="midnightblue" points="375.48,-442.33 386.04,-441.49 377.26,-435.56 375.48,-442.33"/>
</g>
<!-- Node21&#45;&gt;Node3 -->
<g id="edge27" class="edge">
<title>Node21&#45;&gt;Node3</title>
<path fill="none" stroke="midnightblue" d="M323.14,-373.61C329.45,-376.38 335.52,-379.65 341,-383.5 363.1,-399.05 355.37,-416.3 377,-432.5 378.86,-433.9 380.82,-435.22 382.83,-436.47"/>
<polygon fill="midnightblue" stroke="midnightblue" points="381.58,-439.77 392.03,-441.5 384.94,-433.63 381.58,-439.77"/>
</g>
</g>
</svg>
