<?xml version="1.0" encoding="UTF-8" standalone="no"?>
<!DOCTYPE svg PUBLIC "-//W3C//DTD SVG 1.1//EN"
 "http://www.w3.org/Graphics/SVG/1.1/DTD/svg11.dtd">
<!-- Generated by graphviz version 2.43.0 (0)
 -->
<!-- Title: signal_easel::aprs::Receiver Pages: 1 -->
<svg width="139pt" height="463pt"
 viewBox="0.00 0.00 139.00 463.00" xmlns="http://www.w3.org/2000/svg" xmlns:xlink="http://www.w3.org/1999/xlink">
<g id="graph0" class="graph" transform="scale(1 1) rotate(0) translate(4 459)">
<title>signal_easel::aprs::Receiver</title>
<!-- Node1 -->
<g id="node1" class="node">
<title>Node1</title>
<g id="a_node1"><a xlink:title=" ">
<polygon fill="#bfbfbf" stroke="black" points="0,-0.5 0,-134.5 131,-134.5 131,-0.5 0,-0.5"/>
<text text-anchor="start" x="8" y="-122.5" font-family="Helvetica,sans-Serif" font-size="10.00">signal_easel::aprs</text>
<text text-anchor="middle" x="65.5" y="-111.5" font-family="Helvetica,sans-Serif" font-size="10.00">::Receiver</text>
<polyline fill="none" stroke="black" points="0,-104.5 131,-104.5 "/>
<text text-anchor="start" x="8" y="-92.5" font-family="Helvetica,sans-Serif" font-size="10.00">&#45; aprs_demodulator_</text>
<text text-anchor="start" x="8" y="-81.5" font-family="Helvetica,sans-Serif" font-size="10.00">&#45; aprs_messages_</text>
<text text-anchor="start" x="8" y="-70.5" font-family="Helvetica,sans-Serif" font-size="10.00">&#45; demodulation_res_</text>
<text text-anchor="start" x="8" y="-59.5" font-family="Helvetica,sans-Serif" font-size="10.00">&#45; other_aprs_packets_</text>
<polyline fill="none" stroke="black" points="0,-52.5 131,-52.5 "/>
<text text-anchor="start" x="8" y="-40.5" font-family="Helvetica,sans-Serif" font-size="10.00">+ Receiver()</text>
<text text-anchor="start" x="8" y="-29.5" font-family="Helvetica,sans-Serif" font-size="10.00">+ getAprsMessage()</text>
<text text-anchor="start" x="8" y="-18.5" font-family="Helvetica,sans-Serif" font-size="10.00">+ getOtherAprsPacket()</text>
<text text-anchor="start" x="8" y="-7.5" font-family="Helvetica,sans-Serif" font-size="10.00">&#45; decode()</text>
</a>
</g>
</g>
<!-- Node2 -->
<g id="node2" class="node">
<title>Node2</title>
<g id="a_node2"><a xlink:href="classsignal__easel_1_1afsk_1_1Receiver.html" target="_top" xlink:title="For receiving AFSK signals via a pulse audio stream.">
<polygon fill="none" stroke="black" points="13.5,-171.5 13.5,-305.5 117.5,-305.5 117.5,-171.5 13.5,-171.5"/>
<text text-anchor="start" x="21.5" y="-293.5" font-family="Helvetica,sans-Serif" font-size="10.00">signal_easel::afsk</text>
<text text-anchor="middle" x="65.5" y="-282.5" font-family="Helvetica,sans-Serif" font-size="10.00">::Receiver</text>
<polyline fill="none" stroke="black" points="13.5,-275.5 117.5,-275.5 "/>
<text text-anchor="start" x="21.5" y="-263.5" font-family="Helvetica,sans-Serif" font-size="10.00"># afsk_settings_</text>
<text text-anchor="start" x="21.5" y="-252.5" font-family="Helvetica,sans-Serif" font-size="10.00"># demodulator_</text>
<text text-anchor="start" x="21.5" y="-241.5" font-family="Helvetica,sans-Serif" font-size="10.00"># receive_buffer_</text>
<polyline fill="none" stroke="black" points="13.5,-234.5 117.5,-234.5 "/>
<text text-anchor="start" x="21.5" y="-222.5" font-family="Helvetica,sans-Serif" font-size="10.00">+ Receiver()</text>
<text text-anchor="start" x="21.5" y="-211.5" font-family="Helvetica,sans-Serif" font-size="10.00">+ ~Receiver()</text>
<text text-anchor="start" x="21.5" y="-200.5" font-family="Helvetica,sans-Serif" font-size="10.00">+ process()</text>
<text text-anchor="start" x="21.5" y="-189.5" font-family="Helvetica,sans-Serif" font-size="10.00"># decode()</text>
<text text-anchor="start" x="21.5" y="-178.5" font-family="Helvetica,sans-Serif" font-size="10.00"># detectSignal()</text>
</a>
</g>
</g>
<!-- Node2&#45;&gt;Node1 -->
<g id="edge1" class="edge">
<title>Node2&#45;&gt;Node1</title>
<path fill="none" stroke="midnightblue" d="M65.5,-160.95C65.5,-152.16 65.5,-143.25 65.5,-134.62"/>
<polygon fill="none" stroke="midnightblue" points="62,-161.19 65.5,-171.19 69,-161.19 62,-161.19"/>
</g>
<!-- Node3 -->
<g id="node3" class="node">
<title>Node3</title>
<g id="a_node3"><a xlink:href="classsignal__easel_1_1Receiver.html" target="_top" xlink:title=" ">
<polygon fill="none" stroke="black" points="1.5,-342.5 1.5,-454.5 129.5,-454.5 129.5,-342.5 1.5,-342.5"/>
<text text-anchor="middle" x="65.5" y="-442.5" font-family="Helvetica,sans-Serif" font-size="10.00">signal_easel::Receiver</text>
<polyline fill="none" stroke="black" points="1.5,-435.5 129.5,-435.5 "/>
<text text-anchor="start" x="9.5" y="-423.5" font-family="Helvetica,sans-Serif" font-size="10.00"># pulse_audio_reader_</text>
<text text-anchor="start" x="9.5" y="-412.5" font-family="Helvetica,sans-Serif" font-size="10.00"># settings_</text>
<polyline fill="none" stroke="black" points="1.5,-405.5 129.5,-405.5 "/>
<text text-anchor="start" x="9.5" y="-393.5" font-family="Helvetica,sans-Serif" font-size="10.00">+ Receiver()</text>
<text text-anchor="start" x="9.5" y="-382.5" font-family="Helvetica,sans-Serif" font-size="10.00">+ ~Receiver()</text>
<text text-anchor="start" x="9.5" y="-371.5" font-family="Helvetica,sans-Serif" font-size="10.00">+ getLatency()</text>
<text text-anchor="start" x="9.5" y="-360.5" font-family="Helvetica,sans-Serif" font-size="10.00">+ getVolume()</text>
<text text-anchor="start" x="9.5" y="-349.5" font-family="Helvetica,sans-Serif" font-size="10.00">+ process()</text>
</a>
</g>
</g>
<!-- Node3&#45;&gt;Node2 -->
<g id="edge2" class="edge">
<title>Node3&#45;&gt;Node2</title>
<path fill="none" stroke="midnightblue" d="M65.5,-332.09C65.5,-323.34 65.5,-314.35 65.5,-305.59"/>
<polygon fill="none" stroke="midnightblue" points="62,-332.24 65.5,-342.24 69,-332.24 62,-332.24"/>
</g>
</g>
</svg>
