<?xml version="1.0" encoding="UTF-8" standalone="no"?>
<!DOCTYPE svg PUBLIC "-//W3C//DTD SVG 1.1//EN"
 "http://www.w3.org/Graphics/SVG/1.1/DTD/svg11.dtd">
<!-- Generated by graphviz version 2.43.0 (0)
 -->
<!-- Title: signal_easel::ax25::Address::assertSsidIsValid Pages: 1 -->
<svg width="1271pt" height="323pt"
 viewBox="0.00 0.00 1271.00 323.00" xmlns="http://www.w3.org/2000/svg" xmlns:xlink="http://www.w3.org/1999/xlink">
<g id="graph0" class="graph" transform="scale(1 1) rotate(0) translate(4 319)">
<title>signal_easel::ax25::Address::assertSsidIsValid</title>
<!-- Node1 -->
<g id="node1" class="node">
<title>Node1</title>
<g id="a_node1"><a xlink:title=" ">
<polygon fill="#bfbfbf" stroke="black" points="1113,-49.5 1113,-79.5 1263,-79.5 1263,-49.5 1113,-49.5"/>
<text text-anchor="start" x="1121" y="-67.5" font-family="Helvetica,sans-Serif" font-size="10.00">signal_easel::ax25</text>
<text text-anchor="middle" x="1188" y="-56.5" font-family="Helvetica,sans-Serif" font-size="10.00">::Address::assertSsidIsValid</text>
</a>
</g>
</g>
<!-- Node2 -->
<g id="node2" class="node">
<title>Node2</title>
<g id="a_node2"><a xlink:href="classsignal__easel_1_1ax25_1_1Address.html#a7fa6b0ef4241413893f201660991e4ea" target="_top" xlink:title="Checks if the address is valid, if not throws an exception with a specific error code.">
<polygon fill="none" stroke="black" points="941,-164.5 941,-194.5 1071,-194.5 1071,-164.5 941,-164.5"/>
<text text-anchor="start" x="949" y="-182.5" font-family="Helvetica,sans-Serif" font-size="10.00">signal_easel::ax25</text>
<text text-anchor="middle" x="1006" y="-171.5" font-family="Helvetica,sans-Serif" font-size="10.00">::Address::assertIsValid</text>
</a>
</g>
</g>
<!-- Node1&#45;&gt;Node2 -->
<g id="edge1" class="edge">
<title>Node1&#45;&gt;Node2</title>
<path fill="none" stroke="midnightblue" d="M1154.87,-85.03C1119.16,-107.84 1062.34,-144.14 1030.54,-164.46"/>
<polygon fill="midnightblue" stroke="midnightblue" points="1156.93,-87.87 1163.47,-79.53 1153.16,-81.97 1156.93,-87.87"/>
</g>
<!-- Node18 -->
<g id="node18" class="node">
<title>Node18</title>
<g id="a_node18"><a xlink:href="classsignal__easel_1_1ax25_1_1Address.html#a6a2594f26aa1d2a46e33d7da1a1d5fdd" target="_top" xlink:title="Decode an AX.25 address from it&#39;s byte array representation.">
<polygon fill="none" stroke="black" points="935,-49.5 935,-79.5 1077,-79.5 1077,-49.5 935,-49.5"/>
<text text-anchor="start" x="943" y="-67.5" font-family="Helvetica,sans-Serif" font-size="10.00">signal_easel::ax25</text>
<text text-anchor="middle" x="1006" y="-56.5" font-family="Helvetica,sans-Serif" font-size="10.00">::Address::decodeAddress</text>
</a>
</g>
</g>
<!-- Node1&#45;&gt;Node18 -->
<g id="edge24" class="edge">
<title>Node1&#45;&gt;Node18</title>
<path fill="none" stroke="midnightblue" d="M1102.71,-64.5C1094.11,-64.5 1085.45,-64.5 1077.03,-64.5"/>
<polygon fill="midnightblue" stroke="midnightblue" points="1102.75,-68 1112.75,-64.5 1102.75,-61 1102.75,-68"/>
</g>
<!-- Node20 -->
<g id="node20" class="node">
<title>Node20</title>
<g id="a_node20"><a xlink:href="classsignal__easel_1_1ax25_1_1Address.html#a069a8d96c0d74e4a3288876c429c7187" target="_top" xlink:title="Set the SSID (0&#45;15)">
<polygon fill="none" stroke="black" points="952.5,-0.5 952.5,-30.5 1059.5,-30.5 1059.5,-0.5 952.5,-0.5"/>
<text text-anchor="start" x="960.5" y="-18.5" font-family="Helvetica,sans-Serif" font-size="10.00">signal_easel::ax25</text>
<text text-anchor="middle" x="1006" y="-7.5" font-family="Helvetica,sans-Serif" font-size="10.00">::Address::setSsid</text>
</a>
</g>
</g>
<!-- Node1&#45;&gt;Node20 -->
<g id="edge26" class="edge">
<title>Node1&#45;&gt;Node20</title>
<path fill="none" stroke="midnightblue" d="M1121.66,-46.71C1101.23,-41.15 1078.96,-35.09 1059.52,-29.8"/>
<polygon fill="midnightblue" stroke="midnightblue" points="1120.96,-50.15 1131.53,-49.4 1122.8,-43.39 1120.96,-50.15"/>
</g>
<!-- Node3 -->
<g id="node3" class="node">
<title>Node3</title>
<g id="a_node3"><a xlink:href="classsignal__easel_1_1ax25_1_1Frame.html#af86d4b534367a8faf6b628301c9ffceb" target="_top" xlink:title=" ">
<polygon fill="none" stroke="black" points="733.5,-284.5 733.5,-314.5 894.5,-314.5 894.5,-284.5 733.5,-284.5"/>
<text text-anchor="start" x="741.5" y="-302.5" font-family="Helvetica,sans-Serif" font-size="10.00">signal_easel::ax25</text>
<text text-anchor="middle" x="814" y="-291.5" font-family="Helvetica,sans-Serif" font-size="10.00">::Frame::addRepeaterAddress</text>
</a>
</g>
</g>
<!-- Node2&#45;&gt;Node3 -->
<g id="edge2" class="edge">
<title>Node2&#45;&gt;Node3</title>
<path fill="none" stroke="midnightblue" d="M985.57,-202.34C965.85,-224.13 933.41,-256.38 899,-275.5 892.9,-278.89 886.28,-281.83 879.53,-284.39"/>
<polygon fill="midnightblue" stroke="midnightblue" points="988.21,-204.63 992.23,-194.83 982.98,-199.98 988.21,-204.63"/>
</g>
<!-- Node8 -->
<g id="node8" class="node">
<title>Node8</title>
<g id="a_node8"><a xlink:href="classsignal__easel_1_1ax25_1_1Address.html#a0c31737081a9184b56dc32150b23cb0a" target="_top" xlink:title="Get the address as a byte array.">
<polygon fill="none" stroke="black" points="743,-98.5 743,-128.5 885,-128.5 885,-98.5 743,-98.5"/>
<text text-anchor="start" x="751" y="-116.5" font-family="Helvetica,sans-Serif" font-size="10.00">signal_easel::ax25</text>
<text text-anchor="middle" x="814" y="-105.5" font-family="Helvetica,sans-Serif" font-size="10.00">::Address::encodeAddress</text>
</a>
</g>
</g>
<!-- Node2&#45;&gt;Node8 -->
<g id="edge7" class="edge">
<title>Node2&#45;&gt;Node8</title>
<path fill="none" stroke="midnightblue" d="M951.7,-160.98C922.24,-150.75 886.1,-138.2 858.39,-128.57"/>
<polygon fill="midnightblue" stroke="midnightblue" points="950.82,-164.38 961.41,-164.36 953.11,-157.77 950.82,-164.38"/>
</g>
<!-- Node14 -->
<g id="node14" class="node">
<title>Node14</title>
<g id="a_node14"><a xlink:href="classsignal__easel_1_1ax25_1_1Frame.html#a57b163ece54317da8d95f3b18b47c23d" target="_top" xlink:title="setters/getters for the frame.">
<polygon fill="none" stroke="black" points="729,-186.5 729,-216.5 899,-216.5 899,-186.5 729,-186.5"/>
<text text-anchor="start" x="737" y="-204.5" font-family="Helvetica,sans-Serif" font-size="10.00">signal_easel::ax25</text>
<text text-anchor="middle" x="814" y="-193.5" font-family="Helvetica,sans-Serif" font-size="10.00">::Frame::setDestinationAddress</text>
</a>
</g>
</g>
<!-- Node2&#45;&gt;Node14 -->
<g id="edge14" class="edge">
<title>Node2&#45;&gt;Node14</title>
<path fill="none" stroke="midnightblue" d="M930.68,-188.1C920.29,-189.31 909.56,-190.55 899,-191.77"/>
<polygon fill="midnightblue" stroke="midnightblue" points="931.41,-191.54 940.94,-186.92 930.6,-184.59 931.41,-191.54"/>
</g>
<!-- Node16 -->
<g id="node16" class="node">
<title>Node16</title>
<g id="a_node16"><a xlink:href="ax25__frame__test_8cpp.html#a091d83d42783f2a0b3fd33a0521dc2ce" target="_top" xlink:title=" ">
<polygon fill="none" stroke="black" points="605,-167 605,-186 646,-186 646,-167 605,-167"/>
<text text-anchor="middle" x="625.5" y="-174" font-family="Helvetica,sans-Serif" font-size="10.00">TEST</text>
</a>
</g>
</g>
<!-- Node2&#45;&gt;Node16 -->
<g id="edge23" class="edge">
<title>Node2&#45;&gt;Node16</title>
<path fill="none" stroke="midnightblue" d="M930.7,-177.95C920.06,-177.78 909.25,-177.62 899,-177.5 804.39,-176.43 691.29,-176.42 646.33,-176.47"/>
<polygon fill="midnightblue" stroke="midnightblue" points="930.76,-181.46 940.82,-178.13 930.88,-174.46 930.76,-181.46"/>
</g>
<!-- Node17 -->
<g id="node17" class="node">
<title>Node17</title>
<g id="a_node17"><a xlink:href="classsignal__easel_1_1ax25_1_1Frame.html#a402d26a81f82bb5c477e8930b75a771e" target="_top" xlink:title=" ">
<polygon fill="none" stroke="black" points="741,-235.5 741,-265.5 887,-265.5 887,-235.5 741,-235.5"/>
<text text-anchor="start" x="749" y="-253.5" font-family="Helvetica,sans-Serif" font-size="10.00">signal_easel::ax25</text>
<text text-anchor="middle" x="814" y="-242.5" font-family="Helvetica,sans-Serif" font-size="10.00">::Frame::setSourceAddress</text>
</a>
</g>
</g>
<!-- Node2&#45;&gt;Node17 -->
<g id="edge19" class="edge">
<title>Node2&#45;&gt;Node17</title>
<path fill="none" stroke="midnightblue" d="M964.71,-198.95C945.13,-207.99 921.12,-218.48 899,-226.5 890.3,-229.65 880.98,-232.67 871.83,-235.43"/>
<polygon fill="midnightblue" stroke="midnightblue" points="966.35,-202.05 973.93,-194.65 963.39,-195.7 966.35,-202.05"/>
</g>
<!-- Node4 -->
<g id="node4" class="node">
<title>Node4</title>
<g id="a_node4"><a xlink:href="classsignal__easel_1_1ax25_1_1Frame.html#a63cf2362c2a90d20f09bbbc4f24a07ba" target="_top" xlink:title="Attempt to parse an incoming bit stream into an AX.25 frame.">
<polygon fill="none" stroke="black" points="558,-254.5 558,-284.5 693,-284.5 693,-254.5 558,-254.5"/>
<text text-anchor="start" x="566" y="-272.5" font-family="Helvetica,sans-Serif" font-size="10.00">signal_easel::ax25</text>
<text text-anchor="middle" x="625.5" y="-261.5" font-family="Helvetica,sans-Serif" font-size="10.00">::Frame::parseBitStream</text>
</a>
</g>
</g>
<!-- Node3&#45;&gt;Node4 -->
<g id="edge3" class="edge">
<title>Node3&#45;&gt;Node4</title>
<path fill="none" stroke="midnightblue" d="M723.29,-285.07C713.17,-283.44 703,-281.81 693.26,-280.24"/>
<polygon fill="midnightblue" stroke="midnightblue" points="722.94,-288.56 733.37,-286.69 724.05,-281.65 722.94,-288.56"/>
</g>
<!-- Node5 -->
<g id="node5" class="node">
<title>Node5</title>
<g id="a_node5"><a xlink:href="classsignal__easel_1_1aprs_1_1Demodulator.html#ae5a8e7634c1bc8d215a0c454a9a737fa" target="_top" xlink:title=" ">
<polygon fill="none" stroke="black" points="369,-249 369,-290 522,-290 522,-249 369,-249"/>
<text text-anchor="start" x="377" y="-278" font-family="Helvetica,sans-Serif" font-size="10.00">signal_easel::aprs</text>
<text text-anchor="start" x="377" y="-267" font-family="Helvetica,sans-Serif" font-size="10.00">::Demodulator::lookForAx25</text>
<text text-anchor="middle" x="445.5" y="-256" font-family="Helvetica,sans-Serif" font-size="10.00">Packet</text>
</a>
</g>
</g>
<!-- Node4&#45;&gt;Node5 -->
<g id="edge4" class="edge">
<title>Node4&#45;&gt;Node5</title>
<path fill="none" stroke="midnightblue" d="M547.74,-269.5C539.29,-269.5 530.68,-269.5 522.23,-269.5"/>
<polygon fill="midnightblue" stroke="midnightblue" points="547.97,-273 557.97,-269.5 547.97,-266 547.97,-273"/>
</g>
<!-- Node6 -->
<g id="node6" class="node">
<title>Node6</title>
<g id="a_node6"><a xlink:href="classsignal__easel_1_1aprs_1_1Receiver.html#afbf7869aceaf2ea7ab0be8b9af16e818" target="_top" xlink:title=" ">
<polygon fill="none" stroke="black" points="226,-264.5 226,-294.5 333,-294.5 333,-264.5 226,-264.5"/>
<text text-anchor="start" x="234" y="-282.5" font-family="Helvetica,sans-Serif" font-size="10.00">signal_easel::aprs</text>
<text text-anchor="middle" x="279.5" y="-271.5" font-family="Helvetica,sans-Serif" font-size="10.00">::Receiver::decode</text>
</a>
</g>
</g>
<!-- Node5&#45;&gt;Node6 -->
<g id="edge5" class="edge">
<title>Node5&#45;&gt;Node6</title>
<path fill="none" stroke="midnightblue" d="M358.67,-274.73C350.09,-275.26 341.56,-275.78 333.47,-276.27"/>
<polygon fill="midnightblue" stroke="midnightblue" points="358.97,-278.22 368.74,-274.12 358.55,-271.23 358.97,-278.22"/>
</g>
<!-- Node7 -->
<g id="node7" class="node">
<title>Node7</title>
<g id="a_node7"><a xlink:href="aprs__test_8cpp.html#aea66d1824e3f1e27598adf99ac6a089a" target="_top" xlink:title=" ">
<polygon fill="none" stroke="black" points="0,-204 0,-223 41,-223 41,-204 0,-204"/>
<text text-anchor="middle" x="20.5" y="-211" font-family="Helvetica,sans-Serif" font-size="10.00">TEST</text>
</a>
</g>
</g>
<!-- Node5&#45;&gt;Node7 -->
<g id="edge6" class="edge">
<title>Node5&#45;&gt;Node7</title>
<path fill="none" stroke="midnightblue" d="M358.68,-258.14C257.64,-244.76 96.54,-223.43 41.04,-216.09"/>
<polygon fill="midnightblue" stroke="midnightblue" points="358.5,-261.65 368.88,-259.49 359.42,-254.71 358.5,-261.65"/>
</g>
<!-- Node9 -->
<g id="node9" class="node">
<title>Node9</title>
<g id="a_node9"><a xlink:href="classsignal__easel_1_1ax25_1_1Frame.html#a24e7d5ffc6504a3380e97142d1bc084e" target="_top" xlink:title="Builds all internal portions of the frame. Doesn&#39;t include the flags.">
<polygon fill="none" stroke="black" points="568.5,-79.5 568.5,-109.5 682.5,-109.5 682.5,-79.5 568.5,-79.5"/>
<text text-anchor="start" x="576.5" y="-97.5" font-family="Helvetica,sans-Serif" font-size="10.00">signal_easel::ax25</text>
<text text-anchor="middle" x="625.5" y="-86.5" font-family="Helvetica,sans-Serif" font-size="10.00">::Frame::buildFrame</text>
</a>
</g>
</g>
<!-- Node8&#45;&gt;Node9 -->
<g id="edge8" class="edge">
<title>Node8&#45;&gt;Node9</title>
<path fill="none" stroke="midnightblue" d="M732.42,-105.29C715.68,-103.59 698.38,-101.82 682.74,-100.23"/>
<polygon fill="midnightblue" stroke="midnightblue" points="732.45,-108.81 742.76,-106.34 733.16,-101.85 732.45,-108.81"/>
</g>
<!-- Node13 -->
<g id="node13" class="node">
<title>Node13</title>
<g id="a_node13"><a xlink:href="ax25__address__test_8cpp.html#a1d87028368532ba4ae914da9397571d3" target="_top" xlink:title=" ">
<polygon fill="none" stroke="black" points="605,-129 605,-148 646,-148 646,-129 605,-129"/>
<text text-anchor="middle" x="625.5" y="-136" font-family="Helvetica,sans-Serif" font-size="10.00">TEST</text>
</a>
</g>
</g>
<!-- Node8&#45;&gt;Node13 -->
<g id="edge13" class="edge">
<title>Node8&#45;&gt;Node13</title>
<path fill="none" stroke="midnightblue" d="M732.55,-124.28C700.81,-128.54 667.07,-133.06 646.38,-135.84"/>
<polygon fill="midnightblue" stroke="midnightblue" points="733.31,-127.71 742.76,-122.92 732.38,-120.78 733.31,-127.71"/>
</g>
<!-- Node10 -->
<g id="node10" class="node">
<title>Node10</title>
<g id="a_node10"><a xlink:href="classsignal__easel_1_1ax25_1_1Frame.html#a2b4f6ebcb7592a7e5a21114c8fafa503" target="_top" xlink:title="A step beyond buildFrame. This function builds the frame, does the bit stuffing, adds the flags,...">
<polygon fill="none" stroke="black" points="383,-101.5 383,-131.5 508,-131.5 508,-101.5 383,-101.5"/>
<text text-anchor="start" x="391" y="-119.5" font-family="Helvetica,sans-Serif" font-size="10.00">signal_easel::ax25</text>
<text text-anchor="middle" x="445.5" y="-108.5" font-family="Helvetica,sans-Serif" font-size="10.00">::Frame::encodeFrame</text>
</a>
</g>
</g>
<!-- Node9&#45;&gt;Node10 -->
<g id="edge9" class="edge">
<title>Node9&#45;&gt;Node10</title>
<path fill="none" stroke="midnightblue" d="M558.12,-102.7C541.7,-104.73 524.18,-106.9 508.01,-108.9"/>
<polygon fill="midnightblue" stroke="midnightblue" points="558.68,-106.16 568.18,-101.46 557.83,-99.21 558.68,-106.16"/>
</g>
<!-- Node11 -->
<g id="node11" class="node">
<title>Node11</title>
<g id="a_node11"><a xlink:href="namespacesignal__easel_1_1aprs.html#a77481001a5b78a839972bb4220b43e4d" target="_top" xlink:title=" ">
<polygon fill="none" stroke="black" points="227.5,-176.5 227.5,-206.5 331.5,-206.5 331.5,-176.5 227.5,-176.5"/>
<text text-anchor="start" x="235.5" y="-194.5" font-family="Helvetica,sans-Serif" font-size="10.00">signal_easel::aprs</text>
<text text-anchor="middle" x="279.5" y="-183.5" font-family="Helvetica,sans-Serif" font-size="10.00">::encodePacket</text>
</a>
</g>
</g>
<!-- Node10&#45;&gt;Node11 -->
<g id="edge10" class="edge">
<title>Node10&#45;&gt;Node11</title>
<path fill="none" stroke="midnightblue" d="M401.89,-135.98C374.27,-148.62 338.81,-164.83 313.36,-176.47"/>
<polygon fill="midnightblue" stroke="midnightblue" points="403.67,-139.02 411.31,-131.68 400.76,-132.65 403.67,-139.02"/>
</g>
<!-- Node12 -->
<g id="node12" class="node">
<title>Node12</title>
<g id="a_node12"><a xlink:href="classsignal__easel_1_1aprs_1_1Modulator.html#a8ae067701382dec1680b786583ace687" target="_top" xlink:title=" ">
<polygon fill="none" stroke="black" points="77,-176.5 77,-206.5 190,-206.5 190,-176.5 77,-176.5"/>
<text text-anchor="start" x="85" y="-194.5" font-family="Helvetica,sans-Serif" font-size="10.00">signal_easel::aprs</text>
<text text-anchor="middle" x="133.5" y="-183.5" font-family="Helvetica,sans-Serif" font-size="10.00">::Modulator::encode</text>
</a>
</g>
</g>
<!-- Node11&#45;&gt;Node12 -->
<g id="edge11" class="edge">
<title>Node11&#45;&gt;Node12</title>
<path fill="none" stroke="midnightblue" d="M217.06,-191.5C208.21,-191.5 199.14,-191.5 190.4,-191.5"/>
<polygon fill="midnightblue" stroke="midnightblue" points="217.33,-195 227.33,-191.5 217.33,-188 217.33,-195"/>
</g>
<!-- Node12&#45;&gt;Node7 -->
<g id="edge12" class="edge">
<title>Node12&#45;&gt;Node7</title>
<path fill="none" stroke="midnightblue" d="M66.58,-204.57C57.37,-206.39 48.56,-208.14 41.21,-209.59"/>
<polygon fill="midnightblue" stroke="midnightblue" points="67.55,-207.94 76.67,-202.56 66.19,-201.08 67.55,-207.94"/>
</g>
<!-- Node14&#45;&gt;Node4 -->
<g id="edge17" class="edge">
<title>Node14&#45;&gt;Node4</title>
<path fill="none" stroke="midnightblue" d="M747.15,-219.74C740.96,-221.86 734.82,-224.12 729,-226.5 712.25,-233.34 709.55,-238.19 693,-245.5 685.93,-248.62 678.31,-251.66 670.84,-254.47"/>
<polygon fill="midnightblue" stroke="midnightblue" points="748.49,-222.98 756.89,-216.53 746.3,-216.34 748.49,-222.98"/>
</g>
<!-- Node15 -->
<g id="node15" class="node">
<title>Node15</title>
<g id="a_node15"><a xlink:href="namespacesignal__easel_1_1aprs.html#a586b022fa0c917fa8557bbd5cdc6aeeb" target="_top" xlink:title=" ">
<polygon fill="none" stroke="black" points="569,-205.5 569,-235.5 682,-235.5 682,-205.5 569,-205.5"/>
<text text-anchor="start" x="577" y="-223.5" font-family="Helvetica,sans-Serif" font-size="10.00">signal_easel::aprs</text>
<text text-anchor="middle" x="625.5" y="-212.5" font-family="Helvetica,sans-Serif" font-size="10.00">::AddRequiredFields</text>
</a>
</g>
</g>
<!-- Node14&#45;&gt;Node15 -->
<g id="edge15" class="edge">
<title>Node14&#45;&gt;Node15</title>
<path fill="none" stroke="midnightblue" d="M718.71,-211.11C706.16,-212.38 693.64,-213.66 682.06,-214.84"/>
<polygon fill="midnightblue" stroke="midnightblue" points="719.16,-214.58 728.75,-210.08 718.45,-207.61 719.16,-214.58"/>
</g>
<!-- Node14&#45;&gt;Node16 -->
<g id="edge18" class="edge">
<title>Node14&#45;&gt;Node16</title>
<path fill="none" stroke="midnightblue" d="M718.65,-188.85C691.2,-185.17 663.87,-181.51 646.19,-179.14"/>
<polygon fill="midnightblue" stroke="midnightblue" points="718.38,-192.35 728.75,-190.21 719.31,-185.41 718.38,-192.35"/>
</g>
<!-- Node15&#45;&gt;Node11 -->
<g id="edge16" class="edge">
<title>Node15&#45;&gt;Node11</title>
<path fill="none" stroke="midnightblue" d="M558.54,-214.94C492.38,-209.36 391.9,-200.89 331.58,-195.81"/>
<polygon fill="midnightblue" stroke="midnightblue" points="558.59,-218.46 568.85,-215.81 559.18,-211.48 558.59,-218.46"/>
</g>
<!-- Node17&#45;&gt;Node4 -->
<g id="edge21" class="edge">
<title>Node17&#45;&gt;Node4</title>
<path fill="none" stroke="midnightblue" d="M730.88,-258.87C718.29,-260.15 705.42,-261.46 693.22,-262.7"/>
<polygon fill="midnightblue" stroke="midnightblue" points="731.3,-262.34 740.89,-257.85 730.59,-255.38 731.3,-262.34"/>
</g>
<!-- Node17&#45;&gt;Node15 -->
<g id="edge20" class="edge">
<title>Node17&#45;&gt;Node15</title>
<path fill="none" stroke="midnightblue" d="M730.76,-237.27C714.35,-234.63 697.48,-231.92 682.22,-229.46"/>
<polygon fill="midnightblue" stroke="midnightblue" points="730.47,-240.77 740.89,-238.9 731.58,-233.86 730.47,-240.77"/>
</g>
<!-- Node17&#45;&gt;Node16 -->
<g id="edge22" class="edge">
<title>Node17&#45;&gt;Node16</title>
<path fill="none" stroke="midnightblue" d="M739.97,-231.7C736.2,-230.09 732.52,-228.36 729,-226.5 710.59,-216.76 711.34,-206.37 693,-196.5 678.24,-188.56 659.9,-183.35 646.23,-180.24"/>
<polygon fill="midnightblue" stroke="midnightblue" points="738.91,-235.05 749.5,-235.46 741.48,-228.53 738.91,-235.05"/>
</g>
<!-- Node19 -->
<g id="node19" class="node">
<title>Node19</title>
<g id="a_node19"><a xlink:href="classsignal__easel_1_1ax25_1_1Address.html#a2ffb5475017120d1071e4b8d3f35c394" target="_top" xlink:title=" ">
<polygon fill="none" stroke="black" points="760.5,-49.5 760.5,-79.5 867.5,-79.5 867.5,-49.5 760.5,-49.5"/>
<text text-anchor="start" x="768.5" y="-67.5" font-family="Helvetica,sans-Serif" font-size="10.00">signal_easel::ax25</text>
<text text-anchor="middle" x="814" y="-56.5" font-family="Helvetica,sans-Serif" font-size="10.00">::Address::Address</text>
</a>
</g>
</g>
<!-- Node18&#45;&gt;Node19 -->
<g id="edge25" class="edge">
<title>Node18&#45;&gt;Node19</title>
<path fill="none" stroke="midnightblue" d="M924.53,-64.5C905.31,-64.5 885.29,-64.5 867.69,-64.5"/>
<polygon fill="midnightblue" stroke="midnightblue" points="924.79,-68 934.79,-64.5 924.79,-61 924.79,-68"/>
</g>
<!-- Node21 -->
<g id="node21" class="node">
<title>Node21</title>
<g id="a_node21"><a xlink:href="classsignal__easel_1_1ax25_1_1Address.html#af2e2c1061b619a32d966d4b08eed7ede" target="_top" xlink:title=" ">
<polygon fill="none" stroke="black" points="760.5,-0.5 760.5,-30.5 867.5,-30.5 867.5,-0.5 760.5,-0.5"/>
<text text-anchor="start" x="768.5" y="-18.5" font-family="Helvetica,sans-Serif" font-size="10.00">signal_easel::ax25</text>
<text text-anchor="middle" x="814" y="-7.5" font-family="Helvetica,sans-Serif" font-size="10.00">::Address::Address</text>
</a>
</g>
</g>
<!-- Node20&#45;&gt;Node21 -->
<g id="edge27" class="edge">
<title>Node20&#45;&gt;Node21</title>
<path fill="none" stroke="midnightblue" d="M942.21,-15.5C918.1,-15.5 890.85,-15.5 867.78,-15.5"/>
<polygon fill="midnightblue" stroke="midnightblue" points="942.33,-19 952.33,-15.5 942.33,-12 942.33,-19"/>
</g>
</g>
</svg>
