<?xml version="1.0" encoding="UTF-8" standalone="no"?>
<!DOCTYPE svg PUBLIC "-//W3C//DTD SVG 1.1//EN"
 "http://www.w3.org/Graphics/SVG/1.1/DTD/svg11.dtd">
<!-- Generated by graphviz version 2.43.0 (0)
 -->
<!-- Title: signal_easel::BitStream::popNextBit Pages: 1 -->
<svg width="826pt" height="262pt"
 viewBox="0.00 0.00 826.00 261.50" xmlns="http://www.w3.org/2000/svg" xmlns:xlink="http://www.w3.org/1999/xlink">
<g id="graph0" class="graph" transform="scale(1 1) rotate(0) translate(4 257.5)">
<title>signal_easel::BitStream::popNextBit</title>
<!-- Node1 -->
<g id="node1" class="node">
<title>Node1</title>
<g id="a_node1"><a xlink:title="Returns the next bit of the bit stream that will be encoded.">
<polygon fill="#bfbfbf" stroke="black" points="686,-149 686,-179 818,-179 818,-149 686,-149"/>
<text text-anchor="start" x="694" y="-167" font-family="Helvetica,sans-Serif" font-size="10.00">signal_easel::BitStream</text>
<text text-anchor="middle" x="752" y="-156" font-family="Helvetica,sans-Serif" font-size="10.00">::popNextBit</text>
</a>
</g>
</g>
<!-- Node2 -->
<g id="node2" class="node">
<title>Node2</title>
<g id="a_node2"><a xlink:href="namespacesignal__easel_1_1ax25.html#a84e1d1bf82ef828a150bc94cf065e396" target="_top" xlink:title="Convert a bit stream from NRZI to standard encoding.">
<polygon fill="none" stroke="black" points="534,-223 534,-253 641,-253 641,-223 534,-223"/>
<text text-anchor="start" x="542" y="-241" font-family="Helvetica,sans-Serif" font-size="10.00">signal_easel::ax25</text>
<text text-anchor="middle" x="587.5" y="-230" font-family="Helvetica,sans-Serif" font-size="10.00">::decodeNrzi</text>
</a>
</g>
</g>
<!-- Node1&#45;&gt;Node2 -->
<g id="edge1" class="edge">
<title>Node1&#45;&gt;Node2</title>
<path fill="none" stroke="midnightblue" d="M713.03,-183.78C694.25,-193.31 671.13,-204.67 650,-214 643.19,-217.01 635.87,-220.04 628.74,-222.88"/>
<polygon fill="midnightblue" stroke="midnightblue" points="714.83,-186.79 722.15,-179.12 711.65,-180.55 714.83,-186.79"/>
</g>
<!-- Node7 -->
<g id="node7" class="node">
<title>Node7</title>
<g id="a_node7"><a xlink:href="namespacesignal__easel_1_1ax25.html#a1bccc37a6ac48ed9be96218dd46bcb41" target="_top" xlink:title=" ">
<polygon fill="none" stroke="black" points="534,-174 534,-204 641,-204 641,-174 534,-174"/>
<text text-anchor="start" x="542" y="-192" font-family="Helvetica,sans-Serif" font-size="10.00">signal_easel::ax25</text>
<text text-anchor="middle" x="587.5" y="-181" font-family="Helvetica,sans-Serif" font-size="10.00">::deStuffBytes</text>
</a>
</g>
</g>
<!-- Node1&#45;&gt;Node7 -->
<g id="edge6" class="edge">
<title>Node1&#45;&gt;Node7</title>
<path fill="none" stroke="midnightblue" d="M675.67,-175.59C664.02,-177.38 652.2,-179.2 641.19,-180.89"/>
<polygon fill="midnightblue" stroke="midnightblue" points="676.49,-179 685.84,-174.02 675.43,-172.09 676.49,-179"/>
</g>
<!-- Node8 -->
<g id="node8" class="node">
<title>Node8</title>
<g id="a_node8"><a xlink:href="classsignal__easel_1_1ax25_1_1Frame.html#a2b4f6ebcb7592a7e5a21114c8fafa503" target="_top" xlink:title="A step beyond buildFrame. This function builds the frame, does the bit stuffing, adds the flags,...">
<polygon fill="none" stroke="black" points="525,-73 525,-103 650,-103 650,-73 525,-73"/>
<text text-anchor="start" x="533" y="-91" font-family="Helvetica,sans-Serif" font-size="10.00">signal_easel::ax25</text>
<text text-anchor="middle" x="587.5" y="-80" font-family="Helvetica,sans-Serif" font-size="10.00">::Frame::encodeFrame</text>
</a>
</g>
</g>
<!-- Node1&#45;&gt;Node8 -->
<g id="edge8" class="edge">
<title>Node1&#45;&gt;Node8</title>
<path fill="none" stroke="midnightblue" d="M711.59,-144.45C692.99,-135.33 670.43,-124.44 650,-115 641.43,-111.04 632.12,-106.88 623.4,-103.05"/>
<polygon fill="midnightblue" stroke="midnightblue" points="710.13,-147.63 720.65,-148.9 713.22,-141.35 710.13,-147.63"/>
</g>
<!-- Node13 -->
<g id="node13" class="node">
<title>Node13</title>
<g id="a_node13"><a xlink:href="namespacesignal__easel_1_1ax25.html#aedc3a21287bb20d2f0b01c9a2d6797f3" target="_top" xlink:title="Finds the start flags in the bit stream and removes them.">
<polygon fill="none" stroke="black" points="534,-125 534,-155 641,-155 641,-125 534,-125"/>
<text text-anchor="start" x="542" y="-143" font-family="Helvetica,sans-Serif" font-size="10.00">signal_easel::ax25</text>
<text text-anchor="middle" x="587.5" y="-132" font-family="Helvetica,sans-Serif" font-size="10.00">::findStartFlags</text>
</a>
</g>
</g>
<!-- Node1&#45;&gt;Node13 -->
<g id="edge14" class="edge">
<title>Node1&#45;&gt;Node13</title>
<path fill="none" stroke="midnightblue" d="M675.67,-152.87C664.02,-151.15 652.2,-149.41 641.19,-147.78"/>
<polygon fill="midnightblue" stroke="midnightblue" points="675.44,-156.38 685.84,-154.38 676.46,-149.45 675.44,-156.38"/>
</g>
<!-- Node3 -->
<g id="node3" class="node">
<title>Node3</title>
<g id="a_node3"><a xlink:href="classsignal__easel_1_1ax25_1_1Frame.html#a63cf2362c2a90d20f09bbbc4f24a07ba" target="_top" xlink:title="Attempt to parse an incoming bit stream into an AX.25 frame.">
<polygon fill="none" stroke="black" points="354,-175 354,-205 489,-205 489,-175 354,-175"/>
<text text-anchor="start" x="362" y="-193" font-family="Helvetica,sans-Serif" font-size="10.00">signal_easel::ax25</text>
<text text-anchor="middle" x="421.5" y="-182" font-family="Helvetica,sans-Serif" font-size="10.00">::Frame::parseBitStream</text>
</a>
</g>
</g>
<!-- Node2&#45;&gt;Node3 -->
<g id="edge2" class="edge">
<title>Node2&#45;&gt;Node3</title>
<path fill="none" stroke="midnightblue" d="M525.25,-220.07C508.3,-215.11 490.08,-209.78 473.76,-205"/>
<polygon fill="midnightblue" stroke="midnightblue" points="524.48,-223.49 535.06,-222.94 526.45,-216.78 524.48,-223.49"/>
</g>
<!-- Node4 -->
<g id="node4" class="node">
<title>Node4</title>
<g id="a_node4"><a xlink:href="classsignal__easel_1_1aprs_1_1Demodulator.html#ae5a8e7634c1bc8d215a0c454a9a737fa" target="_top" xlink:title=" ">
<polygon fill="none" stroke="black" points="154,-170.5 154,-211.5 307,-211.5 307,-170.5 154,-170.5"/>
<text text-anchor="start" x="162" y="-199.5" font-family="Helvetica,sans-Serif" font-size="10.00">signal_easel::aprs</text>
<text text-anchor="start" x="162" y="-188.5" font-family="Helvetica,sans-Serif" font-size="10.00">::Demodulator::lookForAx25</text>
<text text-anchor="middle" x="230.5" y="-177.5" font-family="Helvetica,sans-Serif" font-size="10.00">Packet</text>
</a>
</g>
</g>
<!-- Node3&#45;&gt;Node4 -->
<g id="edge3" class="edge">
<title>Node3&#45;&gt;Node4</title>
<path fill="none" stroke="midnightblue" d="M343.83,-190.41C331.75,-190.47 319.26,-190.54 307.21,-190.6"/>
<polygon fill="midnightblue" stroke="midnightblue" points="343.88,-193.91 353.87,-190.35 343.85,-186.91 343.88,-193.91"/>
</g>
<!-- Node5 -->
<g id="node5" class="node">
<title>Node5</title>
<g id="a_node5"><a xlink:href="classsignal__easel_1_1aprs_1_1Receiver.html#afbf7869aceaf2ea7ab0be8b9af16e818" target="_top" xlink:title=" ">
<polygon fill="none" stroke="black" points="0,-176 0,-206 107,-206 107,-176 0,-176"/>
<text text-anchor="start" x="8" y="-194" font-family="Helvetica,sans-Serif" font-size="10.00">signal_easel::aprs</text>
<text text-anchor="middle" x="53.5" y="-183" font-family="Helvetica,sans-Serif" font-size="10.00">::Receiver::decode</text>
</a>
</g>
</g>
<!-- Node4&#45;&gt;Node5 -->
<g id="edge4" class="edge">
<title>Node4&#45;&gt;Node5</title>
<path fill="none" stroke="midnightblue" d="M143.4,-191C131.04,-191 118.63,-191 107.18,-191"/>
<polygon fill="midnightblue" stroke="midnightblue" points="143.76,-194.5 153.76,-191 143.76,-187.5 143.76,-194.5"/>
</g>
<!-- Node6 -->
<g id="node6" class="node">
<title>Node6</title>
<g id="a_node6"><a xlink:href="aprs__test_8cpp.html#aea66d1824e3f1e27598adf99ac6a089a" target="_top" xlink:title=" ">
<polygon fill="none" stroke="black" points="33,-104.5 33,-123.5 74,-123.5 74,-104.5 33,-104.5"/>
<text text-anchor="middle" x="53.5" y="-111.5" font-family="Helvetica,sans-Serif" font-size="10.00">TEST</text>
</a>
</g>
</g>
<!-- Node4&#45;&gt;Node6 -->
<g id="edge5" class="edge">
<title>Node4&#45;&gt;Node6</title>
<path fill="none" stroke="midnightblue" d="M156.64,-166.65C151.99,-164.81 147.41,-162.92 143,-161 117,-149.67 88.23,-133.71 70.76,-123.62"/>
<polygon fill="midnightblue" stroke="midnightblue" points="155.64,-170.01 166.23,-170.33 158.15,-163.48 155.64,-170.01"/>
</g>
<!-- Node7&#45;&gt;Node3 -->
<g id="edge7" class="edge">
<title>Node7&#45;&gt;Node3</title>
<path fill="none" stroke="midnightblue" d="M523.5,-189.38C512.21,-189.45 500.4,-189.52 489.01,-189.59"/>
<polygon fill="midnightblue" stroke="midnightblue" points="523.73,-192.88 533.71,-189.32 523.69,-185.88 523.73,-192.88"/>
</g>
<!-- Node9 -->
<g id="node9" class="node">
<title>Node9</title>
<g id="a_node9"><a xlink:href="namespacesignal__easel_1_1aprs.html#a77481001a5b78a839972bb4220b43e4d" target="_top" xlink:title=" ">
<polygon fill="none" stroke="black" points="369.5,-67 369.5,-97 473.5,-97 473.5,-67 369.5,-67"/>
<text text-anchor="start" x="377.5" y="-85" font-family="Helvetica,sans-Serif" font-size="10.00">signal_easel::aprs</text>
<text text-anchor="middle" x="421.5" y="-74" font-family="Helvetica,sans-Serif" font-size="10.00">::encodePacket</text>
</a>
</g>
</g>
<!-- Node8&#45;&gt;Node9 -->
<g id="edge9" class="edge">
<title>Node8&#45;&gt;Node9</title>
<path fill="none" stroke="midnightblue" d="M514.94,-85.38C501.04,-84.87 486.74,-84.35 473.66,-83.87"/>
<polygon fill="midnightblue" stroke="midnightblue" points="514.84,-88.88 524.97,-85.75 515.1,-81.89 514.84,-88.88"/>
</g>
<!-- Node10 -->
<g id="node10" class="node">
<title>Node10</title>
<g id="a_node10"><a xlink:href="classsignal__easel_1_1aprs_1_1Modulator.html#adfa8809d1c11321b9ff2c7efe7f58499" target="_top" xlink:title=" ">
<polygon fill="none" stroke="black" points="143,-121 143,-151 318,-151 318,-121 143,-121"/>
<text text-anchor="start" x="151" y="-139" font-family="Helvetica,sans-Serif" font-size="10.00">signal_easel::aprs</text>
<text text-anchor="middle" x="230.5" y="-128" font-family="Helvetica,sans-Serif" font-size="10.00">::Modulator::encodeMessageAck</text>
</a>
</g>
</g>
<!-- Node9&#45;&gt;Node10 -->
<g id="edge10" class="edge">
<title>Node9&#45;&gt;Node10</title>
<path fill="none" stroke="midnightblue" d="M359.51,-99.43C335.17,-106.38 307.43,-114.31 284,-121"/>
<polygon fill="midnightblue" stroke="midnightblue" points="360.7,-102.73 369.35,-96.61 358.78,-96 360.7,-102.73"/>
</g>
<!-- Node11 -->
<g id="node11" class="node">
<title>Node11</title>
<g id="a_node11"><a xlink:href="classsignal__easel_1_1aprs_1_1Modulator.html#a147321b48c2e282c62863f114702e54f" target="_top" xlink:title=" ">
<polygon fill="none" stroke="black" points="152,-60.5 152,-101.5 309,-101.5 309,-60.5 152,-60.5"/>
<text text-anchor="start" x="160" y="-89.5" font-family="Helvetica,sans-Serif" font-size="10.00">signal_easel::aprs</text>
<text text-anchor="start" x="160" y="-78.5" font-family="Helvetica,sans-Serif" font-size="10.00">::Modulator::encodeMessage</text>
<text text-anchor="middle" x="230.5" y="-67.5" font-family="Helvetica,sans-Serif" font-size="10.00">Packet</text>
</a>
</g>
</g>
<!-- Node9&#45;&gt;Node11 -->
<g id="edge11" class="edge">
<title>Node9&#45;&gt;Node11</title>
<path fill="none" stroke="midnightblue" d="M359.14,-81.68C343.26,-81.59 325.94,-81.5 309.34,-81.41"/>
<polygon fill="midnightblue" stroke="midnightblue" points="359.34,-85.18 369.35,-81.73 359.37,-78.18 359.34,-85.18"/>
</g>
<!-- Node12 -->
<g id="node12" class="node">
<title>Node12</title>
<g id="a_node12"><a xlink:href="classsignal__easel_1_1aprs_1_1Modulator.html#a943e392227656943d7db842e1889d805" target="_top" xlink:title=" ">
<polygon fill="none" stroke="black" points="154.5,-0.5 154.5,-41.5 306.5,-41.5 306.5,-0.5 154.5,-0.5"/>
<text text-anchor="start" x="162.5" y="-29.5" font-family="Helvetica,sans-Serif" font-size="10.00">signal_easel::aprs</text>
<text text-anchor="start" x="162.5" y="-18.5" font-family="Helvetica,sans-Serif" font-size="10.00">::Modulator::encodePosition</text>
<text text-anchor="middle" x="230.5" y="-7.5" font-family="Helvetica,sans-Serif" font-size="10.00">Packet</text>
</a>
</g>
</g>
<!-- Node9&#45;&gt;Node12 -->
<g id="edge13" class="edge">
<title>Node9&#45;&gt;Node12</title>
<path fill="none" stroke="midnightblue" d="M364.06,-63.78C342.37,-56.78 317.47,-48.75 295.15,-41.54"/>
<polygon fill="midnightblue" stroke="midnightblue" points="363.19,-67.18 373.78,-66.92 365.34,-60.52 363.19,-67.18"/>
</g>
<!-- Node11&#45;&gt;Node6 -->
<g id="edge12" class="edge">
<title>Node11&#45;&gt;Node6</title>
<path fill="none" stroke="midnightblue" d="M141.85,-97.53C116.36,-102.34 90.88,-107.14 74.08,-110.31"/>
<polygon fill="midnightblue" stroke="midnightblue" points="142.8,-100.91 151.98,-95.62 141.5,-94.03 142.8,-100.91"/>
</g>
<!-- Node13&#45;&gt;Node3 -->
<g id="edge15" class="edge">
<title>Node13&#45;&gt;Node3</title>
<path fill="none" stroke="midnightblue" d="M527.64,-157.94C509.4,-163.51 489.49,-169.58 471.95,-174.92"/>
<polygon fill="midnightblue" stroke="midnightblue" points="528.75,-161.27 537.29,-155 526.71,-154.57 528.75,-161.27"/>
</g>
</g>
</svg>
