<?xml version="1.0" encoding="UTF-8" standalone="no"?>
<!DOCTYPE svg PUBLIC "-//W3C//DTD SVG 1.1//EN"
 "http://www.w3.org/Graphics/SVG/1.1/DTD/svg11.dtd">
<!-- Generated by graphviz version 2.43.0 (0)
 -->
<!-- Title: signal_easel::BitStream::addZeroBit Pages: 1 -->
<svg width="826pt" height="220pt"
 viewBox="0.00 0.00 826.00 220.00" xmlns="http://www.w3.org/2000/svg" xmlns:xlink="http://www.w3.org/1999/xlink">
<g id="graph0" class="graph" transform="scale(1 1) rotate(0) translate(4 216)">
<title>signal_easel::BitStream::addZeroBit</title>
<!-- Node1 -->
<g id="node1" class="node">
<title>Node1</title>
<g id="a_node1"><a xlink:title=" ">
<polygon fill="#bfbfbf" stroke="black" points="686,-117 686,-147 818,-147 818,-117 686,-117"/>
<text text-anchor="start" x="694" y="-135" font-family="Helvetica,sans-Serif" font-size="10.00">signal_easel::BitStream</text>
<text text-anchor="middle" x="752" y="-124" font-family="Helvetica,sans-Serif" font-size="10.00">::addZeroBit</text>
</a>
</g>
</g>
<!-- Node2 -->
<g id="node2" class="node">
<title>Node2</title>
<g id="a_node2"><a xlink:href="namespacesignal__easel_1_1ax25.html#a84e1d1bf82ef828a150bc94cf065e396" target="_top" xlink:title="Convert a bit stream from NRZI to standard encoding.">
<polygon fill="none" stroke="black" points="534,-142 534,-172 641,-172 641,-142 534,-142"/>
<text text-anchor="start" x="542" y="-160" font-family="Helvetica,sans-Serif" font-size="10.00">signal_easel::ax25</text>
<text text-anchor="middle" x="587.5" y="-149" font-family="Helvetica,sans-Serif" font-size="10.00">::decodeNrzi</text>
</a>
</g>
</g>
<!-- Node1&#45;&gt;Node2 -->
<g id="edge1" class="edge">
<title>Node1&#45;&gt;Node2</title>
<path fill="none" stroke="midnightblue" d="M675.67,-143.59C664.02,-145.38 652.2,-147.2 641.19,-148.89"/>
<polygon fill="midnightblue" stroke="midnightblue" points="676.49,-147 685.84,-142.02 675.43,-140.09 676.49,-147"/>
</g>
<!-- Node7 -->
<g id="node7" class="node">
<title>Node7</title>
<g id="a_node7"><a xlink:href="classsignal__easel_1_1ax25_1_1Frame.html#a2b4f6ebcb7592a7e5a21114c8fafa503" target="_top" xlink:title="A step beyond buildFrame. This function builds the frame, does the bit stuffing, adds the flags,...">
<polygon fill="none" stroke="black" points="525,-93 525,-123 650,-123 650,-93 525,-93"/>
<text text-anchor="start" x="533" y="-111" font-family="Helvetica,sans-Serif" font-size="10.00">signal_easel::ax25</text>
<text text-anchor="middle" x="587.5" y="-100" font-family="Helvetica,sans-Serif" font-size="10.00">::Frame::encodeFrame</text>
</a>
</g>
</g>
<!-- Node1&#45;&gt;Node7 -->
<g id="edge6" class="edge">
<title>Node1&#45;&gt;Node7</title>
<path fill="none" stroke="midnightblue" d="M675.84,-120.9C667.27,-119.63 658.61,-118.36 650.24,-117.12"/>
<polygon fill="midnightblue" stroke="midnightblue" points="675.44,-124.38 685.84,-122.38 676.46,-117.45 675.44,-124.38"/>
</g>
<!-- Node3 -->
<g id="node3" class="node">
<title>Node3</title>
<g id="a_node3"><a xlink:href="classsignal__easel_1_1ax25_1_1Frame.html#a63cf2362c2a90d20f09bbbc4f24a07ba" target="_top" xlink:title="Attempt to parse an incoming bit stream into an AX.25 frame.">
<polygon fill="none" stroke="black" points="354,-159 354,-189 489,-189 489,-159 354,-159"/>
<text text-anchor="start" x="362" y="-177" font-family="Helvetica,sans-Serif" font-size="10.00">signal_easel::ax25</text>
<text text-anchor="middle" x="421.5" y="-166" font-family="Helvetica,sans-Serif" font-size="10.00">::Frame::parseBitStream</text>
</a>
</g>
</g>
<!-- Node2&#45;&gt;Node3 -->
<g id="edge2" class="edge">
<title>Node2&#45;&gt;Node3</title>
<path fill="none" stroke="midnightblue" d="M523.5,-163.53C512.21,-164.7 500.4,-165.92 489.01,-167.11"/>
<polygon fill="midnightblue" stroke="midnightblue" points="524.12,-166.98 533.71,-162.47 523.4,-160.02 524.12,-166.98"/>
</g>
<!-- Node4 -->
<g id="node4" class="node">
<title>Node4</title>
<g id="a_node4"><a xlink:href="classsignal__easel_1_1aprs_1_1Demodulator.html#ae5a8e7634c1bc8d215a0c454a9a737fa" target="_top" xlink:title=" ">
<polygon fill="none" stroke="black" points="154,-170.5 154,-211.5 307,-211.5 307,-170.5 154,-170.5"/>
<text text-anchor="start" x="162" y="-199.5" font-family="Helvetica,sans-Serif" font-size="10.00">signal_easel::aprs</text>
<text text-anchor="start" x="162" y="-188.5" font-family="Helvetica,sans-Serif" font-size="10.00">::Demodulator::lookForAx25</text>
<text text-anchor="middle" x="230.5" y="-177.5" font-family="Helvetica,sans-Serif" font-size="10.00">Packet</text>
</a>
</g>
</g>
<!-- Node3&#45;&gt;Node4 -->
<g id="edge3" class="edge">
<title>Node3&#45;&gt;Node4</title>
<path fill="none" stroke="midnightblue" d="M343.83,-180.9C331.75,-181.98 319.26,-183.11 307.21,-184.19"/>
<polygon fill="midnightblue" stroke="midnightblue" points="344.22,-184.38 353.87,-179.99 343.59,-177.4 344.22,-184.38"/>
</g>
<!-- Node5 -->
<g id="node5" class="node">
<title>Node5</title>
<g id="a_node5"><a xlink:href="classsignal__easel_1_1aprs_1_1Receiver.html#afbf7869aceaf2ea7ab0be8b9af16e818" target="_top" xlink:title=" ">
<polygon fill="none" stroke="black" points="0,-176 0,-206 107,-206 107,-176 0,-176"/>
<text text-anchor="start" x="8" y="-194" font-family="Helvetica,sans-Serif" font-size="10.00">signal_easel::aprs</text>
<text text-anchor="middle" x="53.5" y="-183" font-family="Helvetica,sans-Serif" font-size="10.00">::Receiver::decode</text>
</a>
</g>
</g>
<!-- Node4&#45;&gt;Node5 -->
<g id="edge4" class="edge">
<title>Node4&#45;&gt;Node5</title>
<path fill="none" stroke="midnightblue" d="M143.4,-191C131.04,-191 118.63,-191 107.18,-191"/>
<polygon fill="midnightblue" stroke="midnightblue" points="143.76,-194.5 153.76,-191 143.76,-187.5 143.76,-194.5"/>
</g>
<!-- Node6 -->
<g id="node6" class="node">
<title>Node6</title>
<g id="a_node6"><a xlink:href="aprs__test_8cpp.html#aea66d1824e3f1e27598adf99ac6a089a" target="_top" xlink:title=" ">
<polygon fill="none" stroke="black" points="33,-104.5 33,-123.5 74,-123.5 74,-104.5 33,-104.5"/>
<text text-anchor="middle" x="53.5" y="-111.5" font-family="Helvetica,sans-Serif" font-size="10.00">TEST</text>
</a>
</g>
</g>
<!-- Node4&#45;&gt;Node6 -->
<g id="edge5" class="edge">
<title>Node4&#45;&gt;Node6</title>
<path fill="none" stroke="midnightblue" d="M159.25,-166.74C153.72,-164.55 148.24,-162.29 143,-160 117.29,-148.77 88.68,-133.33 71.14,-123.51"/>
<polygon fill="midnightblue" stroke="midnightblue" points="158.01,-170.01 168.6,-170.35 160.53,-163.48 158.01,-170.01"/>
</g>
<!-- Node8 -->
<g id="node8" class="node">
<title>Node8</title>
<g id="a_node8"><a xlink:href="namespacesignal__easel_1_1aprs.html#a77481001a5b78a839972bb4220b43e4d" target="_top" xlink:title=" ">
<polygon fill="none" stroke="black" points="369.5,-93 369.5,-123 473.5,-123 473.5,-93 369.5,-93"/>
<text text-anchor="start" x="377.5" y="-111" font-family="Helvetica,sans-Serif" font-size="10.00">signal_easel::aprs</text>
<text text-anchor="middle" x="421.5" y="-100" font-family="Helvetica,sans-Serif" font-size="10.00">::encodePacket</text>
</a>
</g>
</g>
<!-- Node7&#45;&gt;Node8 -->
<g id="edge7" class="edge">
<title>Node7&#45;&gt;Node8</title>
<path fill="none" stroke="midnightblue" d="M514.94,-108C501.04,-108 486.74,-108 473.66,-108"/>
<polygon fill="midnightblue" stroke="midnightblue" points="514.97,-111.5 524.97,-108 514.97,-104.5 514.97,-111.5"/>
</g>
<!-- Node9 -->
<g id="node9" class="node">
<title>Node9</title>
<g id="a_node9"><a xlink:href="classsignal__easel_1_1aprs_1_1Modulator.html#adfa8809d1c11321b9ff2c7efe7f58499" target="_top" xlink:title=" ">
<polygon fill="none" stroke="black" points="143,-121 143,-151 318,-151 318,-121 143,-121"/>
<text text-anchor="start" x="151" y="-139" font-family="Helvetica,sans-Serif" font-size="10.00">signal_easel::aprs</text>
<text text-anchor="middle" x="230.5" y="-128" font-family="Helvetica,sans-Serif" font-size="10.00">::Modulator::encodeMessageAck</text>
</a>
</g>
</g>
<!-- Node8&#45;&gt;Node9 -->
<g id="edge8" class="edge">
<title>Node8&#45;&gt;Node9</title>
<path fill="none" stroke="midnightblue" d="M359.46,-117.04C346.23,-119 332.01,-121.11 318.01,-123.18"/>
<polygon fill="midnightblue" stroke="midnightblue" points="359.97,-120.5 369.35,-115.58 358.95,-113.58 359.97,-120.5"/>
</g>
<!-- Node10 -->
<g id="node10" class="node">
<title>Node10</title>
<g id="a_node10"><a xlink:href="classsignal__easel_1_1aprs_1_1Modulator.html#a147321b48c2e282c62863f114702e54f" target="_top" xlink:title=" ">
<polygon fill="none" stroke="black" points="152,-60.5 152,-101.5 309,-101.5 309,-60.5 152,-60.5"/>
<text text-anchor="start" x="160" y="-89.5" font-family="Helvetica,sans-Serif" font-size="10.00">signal_easel::aprs</text>
<text text-anchor="start" x="160" y="-78.5" font-family="Helvetica,sans-Serif" font-size="10.00">::Modulator::encodeMessage</text>
<text text-anchor="middle" x="230.5" y="-67.5" font-family="Helvetica,sans-Serif" font-size="10.00">Packet</text>
</a>
</g>
</g>
<!-- Node8&#45;&gt;Node10 -->
<g id="edge9" class="edge">
<title>Node8&#45;&gt;Node10</title>
<path fill="none" stroke="midnightblue" d="M359.14,-99.23C343.26,-96.97 325.94,-94.49 309.34,-92.12"/>
<polygon fill="midnightblue" stroke="midnightblue" points="358.96,-102.74 369.35,-100.69 359.95,-95.81 358.96,-102.74"/>
</g>
<!-- Node11 -->
<g id="node11" class="node">
<title>Node11</title>
<g id="a_node11"><a xlink:href="classsignal__easel_1_1aprs_1_1Modulator.html#a943e392227656943d7db842e1889d805" target="_top" xlink:title=" ">
<polygon fill="none" stroke="black" points="154.5,-0.5 154.5,-41.5 306.5,-41.5 306.5,-0.5 154.5,-0.5"/>
<text text-anchor="start" x="162.5" y="-29.5" font-family="Helvetica,sans-Serif" font-size="10.00">signal_easel::aprs</text>
<text text-anchor="start" x="162.5" y="-18.5" font-family="Helvetica,sans-Serif" font-size="10.00">::Modulator::encodePosition</text>
<text text-anchor="middle" x="230.5" y="-7.5" font-family="Helvetica,sans-Serif" font-size="10.00">Packet</text>
</a>
</g>
</g>
<!-- Node8&#45;&gt;Node11 -->
<g id="edge11" class="edge">
<title>Node8&#45;&gt;Node11</title>
<path fill="none" stroke="midnightblue" d="M387.65,-87.81C367.9,-76.16 342.02,-61.74 318,-51 310.6,-47.69 302.72,-44.51 294.83,-41.53"/>
<polygon fill="midnightblue" stroke="midnightblue" points="385.88,-90.83 396.26,-92.94 389.46,-84.82 385.88,-90.83"/>
</g>
<!-- Node10&#45;&gt;Node6 -->
<g id="edge10" class="edge">
<title>Node10&#45;&gt;Node6</title>
<path fill="none" stroke="midnightblue" d="M141.85,-97.53C116.36,-102.34 90.88,-107.14 74.08,-110.31"/>
<polygon fill="midnightblue" stroke="midnightblue" points="142.8,-100.91 151.98,-95.62 141.5,-94.03 142.8,-100.91"/>
</g>
</g>
</svg>
