<?xml version="1.0" encoding="UTF-8" standalone="no"?>
<!DOCTYPE svg PUBLIC "-//W3C//DTD SVG 1.1//EN"
 "http://www.w3.org/Graphics/SVG/1.1/DTD/svg11.dtd">
<!-- Generated by graphviz version 2.43.0 (0)
 -->
<!-- Title: signal_easel::ax25::Frame::setSourceAddress Pages: 1 -->
<svg width="806pt" height="155pt"
 viewBox="0.00 0.00 806.00 154.50" xmlns="http://www.w3.org/2000/svg" xmlns:xlink="http://www.w3.org/1999/xlink">
<g id="graph0" class="graph" transform="scale(1 1) rotate(0) translate(4 150.5)">
<title>signal_easel::ax25::Frame::setSourceAddress</title>
<!-- Node1 -->
<g id="node1" class="node">
<title>Node1</title>
<g id="a_node1"><a xlink:title=" ">
<polygon fill="#bfbfbf" stroke="black" points="652,-61 652,-91 798,-91 798,-61 652,-61"/>
<text text-anchor="start" x="660" y="-79" font-family="Helvetica,sans-Serif" font-size="10.00">signal_easel::ax25</text>
<text text-anchor="middle" x="725" y="-68" font-family="Helvetica,sans-Serif" font-size="10.00">::Frame::setSourceAddress</text>
</a>
</g>
</g>
<!-- Node2 -->
<g id="node2" class="node">
<title>Node2</title>
<g id="a_node2"><a xlink:href="namespacesignal__easel_1_1aprs.html#a586b022fa0c917fa8557bbd5cdc6aeeb" target="_top" xlink:title=" ">
<polygon fill="none" stroke="black" points="478.5,-116 478.5,-146 591.5,-146 591.5,-116 478.5,-116"/>
<text text-anchor="start" x="486.5" y="-134" font-family="Helvetica,sans-Serif" font-size="10.00">signal_easel::aprs</text>
<text text-anchor="middle" x="535" y="-123" font-family="Helvetica,sans-Serif" font-size="10.00">::AddRequiredFields</text>
</a>
</g>
</g>
<!-- Node1&#45;&gt;Node2 -->
<g id="edge1" class="edge">
<title>Node1&#45;&gt;Node2</title>
<path fill="none" stroke="midnightblue" d="M662.76,-93.92C638.37,-101.05 610.62,-109.17 587.31,-115.99"/>
<polygon fill="midnightblue" stroke="midnightblue" points="664.01,-97.2 672.63,-91.03 662.05,-90.48 664.01,-97.2"/>
</g>
<!-- Node6 -->
<g id="node6" class="node">
<title>Node6</title>
<g id="a_node6"><a xlink:href="classsignal__easel_1_1ax25_1_1Frame.html#a40b07872c291deee87c677459a27c21c" target="_top" xlink:title="Attempt to parse a single AX.25 frame from an already NRZI&#45;decoded bit stream. Unlike parseBitStream,...">
<polygon fill="none" stroke="black" points="454,-55.5 454,-96.5 616,-96.5 616,-55.5 454,-55.5"/>
<text text-anchor="start" x="462" y="-84.5" font-family="Helvetica,sans-Serif" font-size="10.00">signal_easel::ax25</text>
<text text-anchor="start" x="462" y="-73.5" font-family="Helvetica,sans-Serif" font-size="10.00">::Frame::parseNrziDecodedBit</text>
<text text-anchor="middle" x="535" y="-62.5" font-family="Helvetica,sans-Serif" font-size="10.00">Stream</text>
</a>
</g>
</g>
<!-- Node1&#45;&gt;Node6 -->
<g id="edge5" class="edge">
<title>Node1&#45;&gt;Node6</title>
<path fill="none" stroke="midnightblue" d="M641.6,-76C633.14,-76 624.54,-76 616.1,-76"/>
<polygon fill="midnightblue" stroke="midnightblue" points="641.85,-79.5 651.85,-76 641.85,-72.5 641.85,-79.5"/>
</g>
<!-- Node11 -->
<g id="node11" class="node">
<title>Node11</title>
<g id="a_node11"><a xlink:href="ax25__frame__test_8cpp.html#a091d83d42783f2a0b3fd33a0521dc2ce" target="_top" xlink:title=" ">
<polygon fill="none" stroke="black" points="514.5,-17.5 514.5,-36.5 555.5,-36.5 555.5,-17.5 514.5,-17.5"/>
<text text-anchor="middle" x="535" y="-24.5" font-family="Helvetica,sans-Serif" font-size="10.00">TEST</text>
</a>
</g>
</g>
<!-- Node1&#45;&gt;Node11 -->
<g id="edge11" class="edge">
<title>Node1&#45;&gt;Node11</title>
<path fill="none" stroke="midnightblue" d="M661.72,-58.27C646.77,-54.13 630.84,-49.82 616,-46 595.54,-40.73 572,-35.2 555.78,-31.48"/>
<polygon fill="midnightblue" stroke="midnightblue" points="660.8,-61.65 671.37,-60.95 662.68,-54.9 660.8,-61.65"/>
</g>
<!-- Node3 -->
<g id="node3" class="node">
<title>Node3</title>
<g id="a_node3"><a xlink:href="namespacesignal__easel_1_1aprs.html#a77481001a5b78a839972bb4220b43e4d" target="_top" xlink:title="The base function to encode an APRS packet with the provided base data and info field.">
<polygon fill="none" stroke="black" points="290,-116 290,-146 394,-146 394,-116 290,-116"/>
<text text-anchor="start" x="298" y="-134" font-family="Helvetica,sans-Serif" font-size="10.00">signal_easel::aprs</text>
<text text-anchor="middle" x="342" y="-123" font-family="Helvetica,sans-Serif" font-size="10.00">::encodePacket</text>
</a>
</g>
</g>
<!-- Node2&#45;&gt;Node3 -->
<g id="edge2" class="edge">
<title>Node2&#45;&gt;Node3</title>
<path fill="none" stroke="midnightblue" d="M468.29,-131C444,-131 416.86,-131 394.06,-131"/>
<polygon fill="midnightblue" stroke="midnightblue" points="468.5,-134.5 478.5,-131 468.5,-127.5 468.5,-134.5"/>
</g>
<!-- Node4 -->
<g id="node4" class="node">
<title>Node4</title>
<g id="a_node4"><a xlink:href="classsignal__easel_1_1aprs_1_1Modulator.html#a8ae067701382dec1680b786583ace687" target="_top" xlink:title=" ">
<polygon fill="none" stroke="black" points="97,-113 97,-143 210,-143 210,-113 97,-113"/>
<text text-anchor="start" x="105" y="-131" font-family="Helvetica,sans-Serif" font-size="10.00">signal_easel::aprs</text>
<text text-anchor="middle" x="153.5" y="-120" font-family="Helvetica,sans-Serif" font-size="10.00">::Modulator::encode</text>
</a>
</g>
</g>
<!-- Node3&#45;&gt;Node4 -->
<g id="edge3" class="edge">
<title>Node3&#45;&gt;Node4</title>
<path fill="none" stroke="midnightblue" d="M279.47,-130.01C257.06,-129.65 231.89,-129.24 210.03,-128.89"/>
<polygon fill="midnightblue" stroke="midnightblue" points="279.49,-133.51 289.54,-130.17 279.6,-126.51 279.49,-133.51"/>
</g>
<!-- Node5 -->
<g id="node5" class="node">
<title>Node5</title>
<g id="a_node5"><a xlink:href="aprs__test_8cpp.html#aea66d1824e3f1e27598adf99ac6a089a" target="_top" xlink:title=" ">
<polygon fill="none" stroke="black" points="0,-63.5 0,-82.5 41,-82.5 41,-63.5 0,-63.5"/>
<text text-anchor="middle" x="20.5" y="-70.5" font-family="Helvetica,sans-Serif" font-size="10.00">TEST</text>
</a>
</g>
</g>
<!-- Node4&#45;&gt;Node5 -->
<g id="edge4" class="edge">
<title>Node4&#45;&gt;Node5</title>
<path fill="none" stroke="midnightblue" d="M97.85,-109.37C90.78,-106.69 83.68,-103.87 77,-101 64.11,-95.47 50,-88.33 39.23,-82.65"/>
<polygon fill="midnightblue" stroke="midnightblue" points="96.84,-112.72 107.43,-112.91 99.27,-106.16 96.84,-112.72"/>
</g>
<!-- Node7 -->
<g id="node7" class="node">
<title>Node7</title>
<g id="a_node7"><a xlink:href="classsignal__easel_1_1aprs_1_1Demodulator.html#ab4819ac606d0ebf3e5ac235a3bf916df" target="_top" xlink:title="Like lookForAx25Packet, but parses a single AX.25 frame from an already NRZI&#45;decoded bit stream....">
<polygon fill="none" stroke="black" points="266,-55.5 266,-96.5 418,-96.5 418,-55.5 266,-55.5"/>
<text text-anchor="start" x="274" y="-84.5" font-family="Helvetica,sans-Serif" font-size="10.00">signal_easel::aprs</text>
<text text-anchor="start" x="274" y="-73.5" font-family="Helvetica,sans-Serif" font-size="10.00">::Demodulator::lookForNext</text>
<text text-anchor="middle" x="342" y="-62.5" font-family="Helvetica,sans-Serif" font-size="10.00">Ax25Packet</text>
</a>
</g>
</g>
<!-- Node6&#45;&gt;Node7 -->
<g id="edge6" class="edge">
<title>Node6&#45;&gt;Node7</title>
<path fill="none" stroke="midnightblue" d="M443.78,-76C435.18,-76 426.52,-76 418.09,-76"/>
<polygon fill="midnightblue" stroke="midnightblue" points="443.83,-79.5 453.83,-76 443.83,-72.5 443.83,-79.5"/>
</g>
<!-- Node9 -->
<g id="node9" class="node">
<title>Node9</title>
<g id="a_node9"><a xlink:href="classsignal__easel_1_1ax25_1_1Frame.html#a63cf2362c2a90d20f09bbbc4f24a07ba" target="_top" xlink:title="Attempt to parse an incoming bit stream into an AX.25 frame.">
<polygon fill="none" stroke="black" points="274.5,-6 274.5,-36 409.5,-36 409.5,-6 274.5,-6"/>
<text text-anchor="start" x="282.5" y="-24" font-family="Helvetica,sans-Serif" font-size="10.00">signal_easel::ax25</text>
<text text-anchor="middle" x="342" y="-13" font-family="Helvetica,sans-Serif" font-size="10.00">::Frame::parseBitStream</text>
</a>
</g>
</g>
<!-- Node6&#45;&gt;Node9 -->
<g id="edge8" class="edge">
<title>Node6&#45;&gt;Node9</title>
<path fill="none" stroke="midnightblue" d="M452.81,-52.62C433.31,-47.01 413,-41.16 395.23,-36.04"/>
<polygon fill="midnightblue" stroke="midnightblue" points="452.03,-56.04 462.61,-55.44 453.97,-49.31 452.03,-56.04"/>
</g>
<!-- Node8 -->
<g id="node8" class="node">
<title>Node8</title>
<g id="a_node8"><a xlink:href="classsignal__easel_1_1aprs_1_1Receiver.html#afbf7869aceaf2ea7ab0be8b9af16e818" target="_top" xlink:title=" ">
<polygon fill="none" stroke="black" points="100,-61 100,-91 207,-91 207,-61 100,-61"/>
<text text-anchor="start" x="108" y="-79" font-family="Helvetica,sans-Serif" font-size="10.00">signal_easel::aprs</text>
<text text-anchor="middle" x="153.5" y="-68" font-family="Helvetica,sans-Serif" font-size="10.00">::Receiver::decode</text>
</a>
</g>
</g>
<!-- Node7&#45;&gt;Node8 -->
<g id="edge7" class="edge">
<title>Node7&#45;&gt;Node8</title>
<path fill="none" stroke="midnightblue" d="M255.69,-76C239.11,-76 222.2,-76 207.07,-76"/>
<polygon fill="midnightblue" stroke="midnightblue" points="255.95,-79.5 265.95,-76 255.95,-72.5 255.95,-79.5"/>
</g>
<!-- Node10 -->
<g id="node10" class="node">
<title>Node10</title>
<g id="a_node10"><a xlink:href="classsignal__easel_1_1aprs_1_1Demodulator.html#ae5a8e7634c1bc8d215a0c454a9a737fa" target="_top" xlink:title=" ">
<polygon fill="none" stroke="black" points="77,-0.5 77,-41.5 230,-41.5 230,-0.5 77,-0.5"/>
<text text-anchor="start" x="85" y="-29.5" font-family="Helvetica,sans-Serif" font-size="10.00">signal_easel::aprs</text>
<text text-anchor="start" x="85" y="-18.5" font-family="Helvetica,sans-Serif" font-size="10.00">::Demodulator::lookForAx25</text>
<text text-anchor="middle" x="153.5" y="-7.5" font-family="Helvetica,sans-Serif" font-size="10.00">Packet</text>
</a>
</g>
</g>
<!-- Node9&#45;&gt;Node10 -->
<g id="edge9" class="edge">
<title>Node9&#45;&gt;Node10</title>
<path fill="none" stroke="midnightblue" d="M264.25,-21C253.01,-21 241.44,-21 230.22,-21"/>
<polygon fill="midnightblue" stroke="midnightblue" points="264.46,-24.5 274.46,-21 264.46,-17.5 264.46,-24.5"/>
</g>
<!-- Node10&#45;&gt;Node5 -->
<g id="edge10" class="edge">
<title>Node10&#45;&gt;Node5</title>
<path fill="none" stroke="midnightblue" d="M91.33,-45.28C73.22,-52.47 54.67,-59.83 41.24,-65.16"/>
<polygon fill="midnightblue" stroke="midnightblue" points="92.72,-48.49 100.73,-41.55 90.14,-41.99 92.72,-48.49"/>
</g>
</g>
</svg>
