<?xml version="1.0" encoding="UTF-8" standalone="no"?>
<!DOCTYPE svg PUBLIC "-//W3C//DTD SVG 1.1//EN"
 "http://www.w3.org/Graphics/SVG/1.1/DTD/svg11.dtd">
<!-- Generated by graphviz version 2.43.0 (0)
 -->
<!-- Title: signal_easel::aprs::Modulator::encode Pages: 1 -->
<svg width="1483pt" height="819pt"
 viewBox="0.00 0.00 1483.00 818.50" xmlns="http://www.w3.org/2000/svg" xmlns:xlink="http://www.w3.org/1999/xlink">
<g id="graph0" class="graph" transform="scale(1 1) rotate(0) translate(4 814.5)">
<title>signal_easel::aprs::Modulator::encode</title>
<!-- Node1 -->
<g id="node1" class="node">
<title>Node1</title>
<g id="a_node1"><a xlink:title=" ">
<polygon fill="#bfbfbf" stroke="black" points="0,-412.5 0,-442.5 113,-442.5 113,-412.5 0,-412.5"/>
<text text-anchor="start" x="8" y="-430.5" font-family="Helvetica,sans-Serif" font-size="10.00">signal_easel::aprs</text>
<text text-anchor="middle" x="56.5" y="-419.5" font-family="Helvetica,sans-Serif" font-size="10.00">::Modulator::encode</text>
</a>
</g>
</g>
<!-- Node2 -->
<g id="node2" class="node">
<title>Node2</title>
<g id="a_node2"><a xlink:href="structsignal__easel_1_1aprs_1_1TelemetryPacket.html#a6098e85ae94eded273fcf84adbdcdf35" target="_top" xlink:title=" ">
<polygon fill="none" stroke="black" points="149,-624.5 149,-654.5 293,-654.5 293,-624.5 149,-624.5"/>
<text text-anchor="start" x="157" y="-642.5" font-family="Helvetica,sans-Serif" font-size="10.00">signal_easel::aprs</text>
<text text-anchor="middle" x="221" y="-631.5" font-family="Helvetica,sans-Serif" font-size="10.00">::TelemetryPacket::encode</text>
</a>
</g>
</g>
<!-- Node1&#45;&gt;Node2 -->
<g id="edge1" class="edge">
<title>Node1&#45;&gt;Node2</title>
<path fill="none" stroke="midnightblue" d="M69.19,-442.75C97.3,-479.42 168.82,-572.73 202.26,-616.36"/>
<polygon fill="midnightblue" stroke="midnightblue" points="199.56,-618.58 208.42,-624.39 205.11,-614.33 199.56,-618.58"/>
</g>
<!-- Node15 -->
<g id="node15" class="node">
<title>Node15</title>
<g id="a_node15"><a xlink:href="classsignal__easel_1_1afsk_1_1Modulator.html#a8e377665e5432ebb66de359635aeeafb" target="_top" xlink:title="This is overridden by the child classes to encode the data that is passed in by addBytes and addStrin...">
<polygon fill="none" stroke="black" points="150.5,-412.5 150.5,-442.5 291.5,-442.5 291.5,-412.5 150.5,-412.5"/>
<text text-anchor="start" x="158.5" y="-430.5" font-family="Helvetica,sans-Serif" font-size="10.00">signal_easel::afsk</text>
<text text-anchor="middle" x="221" y="-419.5" font-family="Helvetica,sans-Serif" font-size="10.00">::Modulator::encodeBytes</text>
</a>
</g>
</g>
<!-- Node1&#45;&gt;Node15 -->
<g id="edge23" class="edge">
<title>Node1&#45;&gt;Node15</title>
<path fill="none" stroke="midnightblue" d="M113.42,-427.5C122.09,-427.5 131.19,-427.5 140.27,-427.5"/>
<polygon fill="midnightblue" stroke="midnightblue" points="140.48,-431 150.48,-427.5 140.48,-424 140.48,-431"/>
</g>
<!-- Node20 -->
<g id="node20" class="node">
<title>Node20</title>
<g id="a_node20"><a xlink:href="namespacesignal__easel_1_1aprs.html#a77481001a5b78a839972bb4220b43e4d" target="_top" xlink:title="The base function to encode an APRS packet with the provided base data and info field.">
<polygon fill="none" stroke="black" points="169,-317.5 169,-347.5 273,-347.5 273,-317.5 169,-317.5"/>
<text text-anchor="start" x="177" y="-335.5" font-family="Helvetica,sans-Serif" font-size="10.00">signal_easel::aprs</text>
<text text-anchor="middle" x="221" y="-324.5" font-family="Helvetica,sans-Serif" font-size="10.00">::encodePacket</text>
</a>
</g>
</g>
<!-- Node1&#45;&gt;Node20 -->
<g id="edge28" class="edge">
<title>Node1&#45;&gt;Node20</title>
<path fill="none" stroke="midnightblue" d="M83.25,-412.45C110.86,-396.3 154.86,-370.58 185.46,-352.69"/>
<polygon fill="midnightblue" stroke="midnightblue" points="187.24,-355.71 194.1,-347.64 183.7,-349.67 187.24,-355.71"/>
</g>
<!-- Node3 -->
<g id="node3" class="node">
<title>Node3</title>
<g id="a_node3"><a xlink:href="classsignal__easel_1_1aprs_1_1telemetry_1_1TelemetryTranscoder.html#a51e875c6aae69befbefc51fc8787454e" target="_top" xlink:title="Encodes the bit sense and project name into a message.">
<polygon fill="none" stroke="black" points="342.5,-769 342.5,-810 519.5,-810 519.5,-769 342.5,-769"/>
<text text-anchor="start" x="350.5" y="-798" font-family="Helvetica,sans-Serif" font-size="10.00">signal_easel::aprs</text>
<text text-anchor="start" x="350.5" y="-787" font-family="Helvetica,sans-Serif" font-size="10.00">::telemetry::TelemetryTranscoder</text>
<text text-anchor="middle" x="431" y="-776" font-family="Helvetica,sans-Serif" font-size="10.00">::encodeBitSenseMessage</text>
</a>
</g>
</g>
<!-- Node2&#45;&gt;Node3 -->
<g id="edge2" class="edge">
<title>Node2&#45;&gt;Node3</title>
<path fill="none" stroke="midnightblue" d="M231.53,-654.86C248.15,-680.39 284.93,-731.52 329,-759.5 331.78,-761.26 334.67,-762.93 337.64,-764.5"/>
<polygon fill="midnightblue" stroke="midnightblue" points="336.22,-767.71 346.75,-768.93 339.29,-761.41 336.22,-767.71"/>
</g>
<!-- Node8 -->
<g id="node8" class="node">
<title>Node8</title>
<g id="a_node8"><a xlink:href="classsignal__easel_1_1aprs_1_1telemetry_1_1TelemetryTranscoder.html#ae5d6a4f37c1a561ae6be756dfef2f838" target="_top" xlink:title="Encodes the parameter data into a data report message.">
<polygon fill="none" stroke="black" points="342.5,-529 342.5,-570 519.5,-570 519.5,-529 342.5,-529"/>
<text text-anchor="start" x="350.5" y="-558" font-family="Helvetica,sans-Serif" font-size="10.00">signal_easel::aprs</text>
<text text-anchor="start" x="350.5" y="-547" font-family="Helvetica,sans-Serif" font-size="10.00">::telemetry::TelemetryTranscoder</text>
<text text-anchor="middle" x="431" y="-536" font-family="Helvetica,sans-Serif" font-size="10.00">::encodeDataReportMessage</text>
</a>
</g>
</g>
<!-- Node2&#45;&gt;Node8 -->
<g id="edge7" class="edge">
<title>Node2&#45;&gt;Node8</title>
<path fill="none" stroke="midnightblue" d="M245.45,-624.34C266.63,-611.14 298.99,-592.19 329,-579.5 334,-577.39 339.2,-575.36 344.49,-573.43"/>
<polygon fill="midnightblue" stroke="midnightblue" points="345.8,-576.68 354.07,-570.05 343.47,-570.07 345.8,-576.68"/>
</g>
<!-- Node12 -->
<g id="node12" class="node">
<title>Node12</title>
<g id="a_node12"><a xlink:href="classsignal__easel_1_1aprs_1_1telemetry_1_1TelemetryTranscoder.html#a0c6388feaed412c879ac58b7e3110307" target="_top" xlink:title="Encodes the parameter coefficients into a message.">
<polygon fill="none" stroke="black" points="329,-709 329,-750 533,-750 533,-709 329,-709"/>
<text text-anchor="start" x="337" y="-738" font-family="Helvetica,sans-Serif" font-size="10.00">signal_easel::aprs</text>
<text text-anchor="start" x="337" y="-727" font-family="Helvetica,sans-Serif" font-size="10.00">::telemetry::TelemetryTranscoder</text>
<text text-anchor="middle" x="431" y="-716" font-family="Helvetica,sans-Serif" font-size="10.00">::encodeParameterCoefficientMessage</text>
</a>
</g>
</g>
<!-- Node2&#45;&gt;Node12 -->
<g id="edge12" class="edge">
<title>Node2&#45;&gt;Node12</title>
<path fill="none" stroke="midnightblue" d="M245.45,-654.66C266.63,-667.86 298.99,-686.81 329,-699.5 334,-701.61 339.2,-703.64 344.49,-705.57"/>
<polygon fill="midnightblue" stroke="midnightblue" points="343.47,-708.93 354.07,-708.95 345.8,-702.32 343.47,-708.93"/>
</g>
<!-- Node13 -->
<g id="node13" class="node">
<title>Node13</title>
<g id="a_node13"><a xlink:href="classsignal__easel_1_1aprs_1_1telemetry_1_1TelemetryTranscoder.html#a31185ab0ef295b51409170c1b7d5f880" target="_top" xlink:title="Encodes the parameter names into a message.">
<polygon fill="none" stroke="black" points="340.5,-649 340.5,-690 521.5,-690 521.5,-649 340.5,-649"/>
<text text-anchor="start" x="348.5" y="-678" font-family="Helvetica,sans-Serif" font-size="10.00">signal_easel::aprs</text>
<text text-anchor="start" x="348.5" y="-667" font-family="Helvetica,sans-Serif" font-size="10.00">::telemetry::TelemetryTranscoder</text>
<text text-anchor="middle" x="431" y="-656" font-family="Helvetica,sans-Serif" font-size="10.00">::encodeParameterNameMessage</text>
</a>
</g>
</g>
<!-- Node2&#45;&gt;Node13 -->
<g id="edge15" class="edge">
<title>Node2&#45;&gt;Node13</title>
<path fill="none" stroke="midnightblue" d="M293,-649.74C304.98,-651.47 317.61,-653.29 330.16,-655.1"/>
<polygon fill="midnightblue" stroke="midnightblue" points="329.8,-658.58 340.19,-656.55 330.8,-651.66 329.8,-658.58"/>
</g>
<!-- Node14 -->
<g id="node14" class="node">
<title>Node14</title>
<g id="a_node14"><a xlink:href="classsignal__easel_1_1aprs_1_1telemetry_1_1TelemetryTranscoder.html#a1ef507c0f7b59c9fcf34a1749124cf4e" target="_top" xlink:title="Encodes the parameter units and labels into a message.">
<polygon fill="none" stroke="black" points="342.5,-589 342.5,-630 519.5,-630 519.5,-589 342.5,-589"/>
<text text-anchor="start" x="350.5" y="-618" font-family="Helvetica,sans-Serif" font-size="10.00">signal_easel::aprs</text>
<text text-anchor="start" x="350.5" y="-607" font-family="Helvetica,sans-Serif" font-size="10.00">::telemetry::TelemetryTranscoder</text>
<text text-anchor="middle" x="431" y="-596" font-family="Helvetica,sans-Serif" font-size="10.00">::encodeUnitAndLabelMessage</text>
</a>
</g>
</g>
<!-- Node2&#45;&gt;Node14 -->
<g id="edge19" class="edge">
<title>Node2&#45;&gt;Node14</title>
<path fill="none" stroke="midnightblue" d="M293,-629.26C305.66,-627.43 319.05,-625.5 332.3,-623.59"/>
<polygon fill="midnightblue" stroke="midnightblue" points="333,-627.03 342.39,-622.14 332,-620.1 333,-627.03"/>
</g>
<!-- Node4 -->
<g id="node4" class="node">
<title>Node4</title>
<g id="a_node4"><a xlink:href="classsignal__easel_1_1aprs_1_1telemetry_1_1TelemetryTranscoder.html#a195a39f0f0e23c8eacd3f552e4389932" target="_top" xlink:title="Used in the encode methods to add the telemetry station address to the message in the format &quot;:N0CALL...">
<polygon fill="none" stroke="black" points="569,-709 569,-750 746,-750 746,-709 569,-709"/>
<text text-anchor="start" x="577" y="-738" font-family="Helvetica,sans-Serif" font-size="10.00">signal_easel::aprs</text>
<text text-anchor="start" x="577" y="-727" font-family="Helvetica,sans-Serif" font-size="10.00">::telemetry::TelemetryTranscoder</text>
<text text-anchor="middle" x="657.5" y="-716" font-family="Helvetica,sans-Serif" font-size="10.00">::addTelemetryStationAddress</text>
</a>
</g>
</g>
<!-- Node3&#45;&gt;Node4 -->
<g id="edge3" class="edge">
<title>Node3&#45;&gt;Node4</title>
<path fill="none" stroke="midnightblue" d="M508.95,-768.94C528.58,-763.69 549.82,-758.01 569.9,-752.64"/>
<polygon fill="midnightblue" stroke="midnightblue" points="570.9,-756 579.65,-750.04 569.09,-749.24 570.9,-756"/>
</g>
<!-- Node6 -->
<g id="node6" class="node">
<title>Node6</title>
<g id="a_node6"><a xlink:href="classsignal__easel_1_1aprs_1_1telemetry_1_1TelemetryData.html#a8128a64f4d0f2a6af78ed636d5fbbb57" target="_top" xlink:title=" ">
<polygon fill="none" stroke="black" points="580.5,-649 580.5,-690 734.5,-690 734.5,-649 580.5,-649"/>
<text text-anchor="start" x="588.5" y="-678" font-family="Helvetica,sans-Serif" font-size="10.00">signal_easel::aprs</text>
<text text-anchor="start" x="588.5" y="-667" font-family="Helvetica,sans-Serif" font-size="10.00">::telemetry::TelemetryData</text>
<text text-anchor="middle" x="657.5" y="-656" font-family="Helvetica,sans-Serif" font-size="10.00">::getDigitalParametersConst</text>
</a>
</g>
</g>
<!-- Node3&#45;&gt;Node6 -->
<g id="edge5" class="edge">
<title>Node3&#45;&gt;Node6</title>
<path fill="none" stroke="midnightblue" d="M518.53,-768.77C523.64,-766.05 528.52,-762.97 533,-759.5 557.58,-740.44 544.83,-719.06 569,-699.5 570.78,-698.06 572.62,-696.69 574.53,-695.39"/>
<polygon fill="midnightblue" stroke="midnightblue" points="576.53,-698.27 583.23,-690.07 572.87,-692.3 576.53,-698.27"/>
</g>
<!-- Node7 -->
<g id="node7" class="node">
<title>Node7</title>
<g id="a_node7"><a xlink:href="classsignal__easel_1_1aprs_1_1telemetry_1_1TelemetryData.html#a895a66b4284ec38cf93dadbb8ffc826d" target="_top" xlink:title="Get the project title.">
<polygon fill="none" stroke="black" points="583.5,-769 583.5,-810 731.5,-810 731.5,-769 583.5,-769"/>
<text text-anchor="start" x="591.5" y="-798" font-family="Helvetica,sans-Serif" font-size="10.00">signal_easel::aprs</text>
<text text-anchor="start" x="591.5" y="-787" font-family="Helvetica,sans-Serif" font-size="10.00">::telemetry::TelemetryData</text>
<text text-anchor="middle" x="657.5" y="-776" font-family="Helvetica,sans-Serif" font-size="10.00">::getProjectTitle</text>
</a>
</g>
</g>
<!-- Node3&#45;&gt;Node7 -->
<g id="edge6" class="edge">
<title>Node3&#45;&gt;Node7</title>
<path fill="none" stroke="midnightblue" d="M519.76,-789.5C537.34,-789.5 555.76,-789.5 573.19,-789.5"/>
<polygon fill="midnightblue" stroke="midnightblue" points="573.32,-793 583.32,-789.5 573.32,-786 573.32,-793"/>
</g>
<!-- Node5 -->
<g id="node5" class="node">
<title>Node5</title>
<g id="a_node5"><a xlink:href="classsignal__easel_1_1aprs_1_1telemetry_1_1TelemetryData.html#a447c24a8880aa1098b47ad923ec33b70" target="_top" xlink:title="Get the address of the station that is sending the telemetry data.">
<polygon fill="none" stroke="black" points="786.5,-709 786.5,-750 947.5,-750 947.5,-709 786.5,-709"/>
<text text-anchor="start" x="794.5" y="-738" font-family="Helvetica,sans-Serif" font-size="10.00">signal_easel::aprs</text>
<text text-anchor="start" x="794.5" y="-727" font-family="Helvetica,sans-Serif" font-size="10.00">::telemetry::TelemetryData</text>
<text text-anchor="middle" x="867" y="-716" font-family="Helvetica,sans-Serif" font-size="10.00">::getTelemetryStationAddress</text>
</a>
</g>
</g>
<!-- Node4&#45;&gt;Node5 -->
<g id="edge4" class="edge">
<title>Node4&#45;&gt;Node5</title>
<path fill="none" stroke="midnightblue" d="M746.2,-729.5C756.05,-729.5 766.1,-729.5 775.98,-729.5"/>
<polygon fill="midnightblue" stroke="midnightblue" points="776.2,-733 786.2,-729.5 776.2,-726 776.2,-733"/>
</g>
<!-- Node8&#45;&gt;Node6 -->
<g id="edge10" class="edge">
<title>Node8&#45;&gt;Node6</title>
<path fill="none" stroke="midnightblue" d="M518.53,-570.23C523.64,-572.95 528.52,-576.03 533,-579.5 557.58,-598.56 544.83,-619.94 569,-639.5 570.78,-640.94 572.62,-642.31 574.53,-643.61"/>
<polygon fill="midnightblue" stroke="midnightblue" points="572.87,-646.7 583.23,-648.93 576.53,-640.73 572.87,-646.7"/>
</g>
<!-- Node9 -->
<g id="node9" class="node">
<title>Node9</title>
<g id="a_node9"><a xlink:href="classsignal__easel_1_1aprs_1_1telemetry_1_1TelemetryData.html#a5e9a7e28d18dbd0e50bb53ea7734aa1a" target="_top" xlink:title=" ">
<polygon fill="none" stroke="black" points="580,-589 580,-630 735,-630 735,-589 580,-589"/>
<text text-anchor="start" x="588" y="-618" font-family="Helvetica,sans-Serif" font-size="10.00">signal_easel::aprs</text>
<text text-anchor="start" x="588" y="-607" font-family="Helvetica,sans-Serif" font-size="10.00">::telemetry::TelemetryData</text>
<text text-anchor="middle" x="657.5" y="-596" font-family="Helvetica,sans-Serif" font-size="10.00">::getAnalogParametersConst</text>
</a>
</g>
</g>
<!-- Node8&#45;&gt;Node9 -->
<g id="edge8" class="edge">
<title>Node8&#45;&gt;Node9</title>
<path fill="none" stroke="midnightblue" d="M508.95,-570.06C528.58,-575.31 549.82,-580.99 569.9,-586.36"/>
<polygon fill="midnightblue" stroke="midnightblue" points="569.09,-589.76 579.65,-588.96 570.9,-583 569.09,-589.76"/>
</g>
<!-- Node10 -->
<g id="node10" class="node">
<title>Node10</title>
<g id="a_node10"><a xlink:href="classsignal__easel_1_1aprs_1_1telemetry_1_1TelemetryData.html#a6d64ddefdea8ac5471aa2e16f32cde9a" target="_top" xlink:title="Get the comment.">
<polygon fill="none" stroke="black" points="583.5,-469 583.5,-510 731.5,-510 731.5,-469 583.5,-469"/>
<text text-anchor="start" x="591.5" y="-498" font-family="Helvetica,sans-Serif" font-size="10.00">signal_easel::aprs</text>
<text text-anchor="start" x="591.5" y="-487" font-family="Helvetica,sans-Serif" font-size="10.00">::telemetry::TelemetryData</text>
<text text-anchor="middle" x="657.5" y="-476" font-family="Helvetica,sans-Serif" font-size="10.00">::getComment</text>
</a>
</g>
</g>
<!-- Node8&#45;&gt;Node10 -->
<g id="edge9" class="edge">
<title>Node8&#45;&gt;Node10</title>
<path fill="none" stroke="midnightblue" d="M508.95,-528.94C529.77,-523.37 552.39,-517.32 573.52,-511.68"/>
<polygon fill="midnightblue" stroke="midnightblue" points="574.68,-514.99 583.44,-509.03 572.88,-508.23 574.68,-514.99"/>
</g>
<!-- Node11 -->
<g id="node11" class="node">
<title>Node11</title>
<g id="a_node11"><a xlink:href="classsignal__easel_1_1aprs_1_1telemetry_1_1TelemetryData.html#a011a75e05eac5dc7dcd30f1d1b4c5174" target="_top" xlink:title="Get the sequence number as a string of 3 digits.">
<polygon fill="none" stroke="black" points="581,-529 581,-570 734,-570 734,-529 581,-529"/>
<text text-anchor="start" x="589" y="-558" font-family="Helvetica,sans-Serif" font-size="10.00">signal_easel::aprs</text>
<text text-anchor="start" x="589" y="-547" font-family="Helvetica,sans-Serif" font-size="10.00">::telemetry::TelemetryData</text>
<text text-anchor="middle" x="657.5" y="-536" font-family="Helvetica,sans-Serif" font-size="10.00">::getSequenceNumberString</text>
</a>
</g>
</g>
<!-- Node8&#45;&gt;Node11 -->
<g id="edge11" class="edge">
<title>Node8&#45;&gt;Node11</title>
<path fill="none" stroke="midnightblue" d="M519.76,-549.5C536.46,-549.5 553.93,-549.5 570.57,-549.5"/>
<polygon fill="midnightblue" stroke="midnightblue" points="570.81,-553 580.81,-549.5 570.81,-546 570.81,-553"/>
</g>
<!-- Node12&#45;&gt;Node4 -->
<g id="edge13" class="edge">
<title>Node12&#45;&gt;Node4</title>
<path fill="none" stroke="midnightblue" d="M533.09,-729.5C541.52,-729.5 550.05,-729.5 558.47,-729.5"/>
<polygon fill="midnightblue" stroke="midnightblue" points="558.67,-733 568.66,-729.5 558.66,-726 558.67,-733"/>
</g>
<!-- Node12&#45;&gt;Node9 -->
<g id="edge14" class="edge">
<title>Node12&#45;&gt;Node9</title>
<path fill="none" stroke="midnightblue" d="M518.53,-708.77C523.64,-706.05 528.52,-702.97 533,-699.5 557.58,-680.44 544.83,-659.06 569,-639.5 570.78,-638.06 572.62,-636.69 574.53,-635.39"/>
<polygon fill="midnightblue" stroke="midnightblue" points="576.53,-638.27 583.23,-630.07 572.87,-632.3 576.53,-638.27"/>
</g>
<!-- Node13&#45;&gt;Node4 -->
<g id="edge16" class="edge">
<title>Node13&#45;&gt;Node4</title>
<path fill="none" stroke="midnightblue" d="M508.95,-690.06C528.58,-695.31 549.82,-700.99 569.9,-706.36"/>
<polygon fill="midnightblue" stroke="midnightblue" points="569.09,-709.76 579.65,-708.96 570.9,-703 569.09,-709.76"/>
</g>
<!-- Node13&#45;&gt;Node6 -->
<g id="edge18" class="edge">
<title>Node13&#45;&gt;Node6</title>
<path fill="none" stroke="midnightblue" d="M521.7,-669.5C537.63,-669.5 554.19,-669.5 570.03,-669.5"/>
<polygon fill="midnightblue" stroke="midnightblue" points="570.32,-673 580.32,-669.5 570.32,-666 570.32,-673"/>
</g>
<!-- Node13&#45;&gt;Node9 -->
<g id="edge17" class="edge">
<title>Node13&#45;&gt;Node9</title>
<path fill="none" stroke="midnightblue" d="M508.95,-648.94C528.58,-643.69 549.82,-638.01 569.9,-632.64"/>
<polygon fill="midnightblue" stroke="midnightblue" points="570.9,-636 579.65,-630.04 569.09,-629.24 570.9,-636"/>
</g>
<!-- Node14&#45;&gt;Node4 -->
<g id="edge20" class="edge">
<title>Node14&#45;&gt;Node4</title>
<path fill="none" stroke="midnightblue" d="M518.53,-630.23C523.64,-632.95 528.52,-636.03 533,-639.5 557.58,-658.56 544.83,-679.94 569,-699.5 570.78,-700.94 572.62,-702.31 574.53,-703.61"/>
<polygon fill="midnightblue" stroke="midnightblue" points="572.87,-706.7 583.23,-708.93 576.53,-700.73 572.87,-706.7"/>
</g>
<!-- Node14&#45;&gt;Node6 -->
<g id="edge22" class="edge">
<title>Node14&#45;&gt;Node6</title>
<path fill="none" stroke="midnightblue" d="M508.95,-630.06C528.8,-635.37 550.29,-641.11 570.57,-646.53"/>
<polygon fill="midnightblue" stroke="midnightblue" points="569.85,-649.96 580.42,-649.17 571.66,-643.2 569.85,-649.96"/>
</g>
<!-- Node14&#45;&gt;Node9 -->
<g id="edge21" class="edge">
<title>Node14&#45;&gt;Node9</title>
<path fill="none" stroke="midnightblue" d="M519.76,-609.5C536.16,-609.5 553.29,-609.5 569.66,-609.5"/>
<polygon fill="midnightblue" stroke="midnightblue" points="569.74,-613 579.74,-609.5 569.74,-606 569.74,-613"/>
</g>
<!-- Node16 -->
<g id="node16" class="node">
<title>Node16</title>
<g id="a_node16"><a xlink:href="classsignal__easel_1_1Modulator.html#af99ee22156e320703891f0fda4df95e8" target="_top" xlink:title="Add a PCM sample to the audio buffer.">
<polygon fill="none" stroke="black" points="364.5,-448.5 364.5,-478.5 497.5,-478.5 497.5,-448.5 364.5,-448.5"/>
<text text-anchor="start" x="372.5" y="-466.5" font-family="Helvetica,sans-Serif" font-size="10.00">signal_easel::Modulator</text>
<text text-anchor="middle" x="431" y="-455.5" font-family="Helvetica,sans-Serif" font-size="10.00">::addAudioSample</text>
</a>
</g>
</g>
<!-- Node15&#45;&gt;Node16 -->
<g id="edge24" class="edge">
<title>Node15&#45;&gt;Node16</title>
<path fill="none" stroke="midnightblue" d="M291.55,-439.54C311.75,-443.03 333.9,-446.87 354.44,-450.42"/>
<polygon fill="midnightblue" stroke="midnightblue" points="353.94,-453.89 364.39,-452.14 355.13,-446.99 353.94,-453.89"/>
</g>
<!-- Node17 -->
<g id="node17" class="node">
<title>Node17</title>
<g id="a_node17"><a xlink:href="namespacesignal__easel.html#a815178bfbe2aee7cc2e3c74237233e6c" target="_top" xlink:title="Gets the bipolar value of a bit at a given index from a vector of bytes.">
<polygon fill="none" stroke="black" points="363,-399.5 363,-429.5 499,-429.5 499,-399.5 363,-399.5"/>
<text text-anchor="start" x="371" y="-417.5" font-family="Helvetica,sans-Serif" font-size="10.00">signal_easel::getBpBitAt</text>
<text text-anchor="middle" x="431" y="-406.5" font-family="Helvetica,sans-Serif" font-size="10.00">Index</text>
</a>
</g>
</g>
<!-- Node15&#45;&gt;Node17 -->
<g id="edge25" class="edge">
<title>Node15&#45;&gt;Node17</title>
<path fill="none" stroke="midnightblue" d="M291.55,-423.15C311.25,-421.92 332.81,-420.57 352.93,-419.32"/>
<polygon fill="midnightblue" stroke="midnightblue" points="353.22,-422.81 362.98,-418.69 352.79,-415.82 353.22,-422.81"/>
</g>
<!-- Node18 -->
<g id="node18" class="node">
<title>Node18</title>
<g id="a_node18"><a xlink:href="namespacesignal__easel.html#aa81833e925b9f020659999a2a4a82559" target="_top" xlink:title="Converts a bit to it&#39;s bipolar value (0 = 1, 1 = &#45;1)">
<polygon fill="none" stroke="black" points="575,-393 575,-412 740,-412 740,-393 575,-393"/>
<text text-anchor="middle" x="657.5" y="-400" font-family="Helvetica,sans-Serif" font-size="10.00">signal_easel::convertToBipolar</text>
</a>
</g>
</g>
<!-- Node17&#45;&gt;Node18 -->
<g id="edge26" class="edge">
<title>Node17&#45;&gt;Node18</title>
<path fill="none" stroke="midnightblue" d="M499.05,-410.92C519.67,-409.81 542.73,-408.58 564.7,-407.41"/>
<polygon fill="midnightblue" stroke="midnightblue" points="564.91,-410.9 574.71,-406.87 564.54,-403.91 564.91,-410.9"/>
</g>
<!-- Node19 -->
<g id="node19" class="node">
<title>Node19</title>
<g id="a_node19"><a xlink:href="namespacesignal__easel.html#a248ddb36f02c1436acd66c0409189637" target="_top" xlink:title="For reading a byte MSB first.">
<polygon fill="none" stroke="black" points="597,-431 597,-450 718,-450 718,-431 597,-431"/>
<text text-anchor="middle" x="657.5" y="-438" font-family="Helvetica,sans-Serif" font-size="10.00">signal_easel::isBitSet</text>
</a>
</g>
</g>
<!-- Node17&#45;&gt;Node19 -->
<g id="edge27" class="edge">
<title>Node17&#45;&gt;Node19</title>
<path fill="none" stroke="midnightblue" d="M499.05,-422.27C526.67,-425.46 558.67,-429.17 586.58,-432.4"/>
<polygon fill="midnightblue" stroke="midnightblue" points="586.32,-435.9 596.66,-433.57 587.13,-428.94 586.32,-435.9"/>
</g>
<!-- Node21 -->
<g id="node21" class="node">
<title>Node21</title>
<g id="a_node21"><a xlink:href="namespacesignal__easel_1_1aprs.html#a586b022fa0c917fa8557bbd5cdc6aeeb" target="_top" xlink:title=" ">
<polygon fill="none" stroke="black" points="601,-343.5 601,-373.5 714,-373.5 714,-343.5 601,-343.5"/>
<text text-anchor="start" x="609" y="-361.5" font-family="Helvetica,sans-Serif" font-size="10.00">signal_easel::aprs</text>
<text text-anchor="middle" x="657.5" y="-350.5" font-family="Helvetica,sans-Serif" font-size="10.00">::AddRequiredFields</text>
</a>
</g>
</g>
<!-- Node20&#45;&gt;Node21 -->
<g id="edge29" class="edge">
<title>Node20&#45;&gt;Node21</title>
<path fill="none" stroke="midnightblue" d="M273.12,-335.56C352.1,-340.28 503.73,-349.36 590.76,-354.57"/>
<polygon fill="midnightblue" stroke="midnightblue" points="590.59,-358.06 600.79,-355.17 591.01,-351.07 590.59,-358.06"/>
</g>
<!-- Node29 -->
<g id="node29" class="node">
<title>Node29</title>
<g id="a_node29"><a xlink:href="classsignal__easel_1_1ax25_1_1Frame.html#a2b4f6ebcb7592a7e5a21114c8fafa503" target="_top" xlink:title="A step beyond buildFrame. This function builds the frame, does the bit stuffing, adds the flags,...">
<polygon fill="none" stroke="black" points="368.5,-221.5 368.5,-251.5 493.5,-251.5 493.5,-221.5 368.5,-221.5"/>
<text text-anchor="start" x="376.5" y="-239.5" font-family="Helvetica,sans-Serif" font-size="10.00">signal_easel::ax25</text>
<text text-anchor="middle" x="431" y="-228.5" font-family="Helvetica,sans-Serif" font-size="10.00">::Frame::encodeFrame</text>
</a>
</g>
</g>
<!-- Node20&#45;&gt;Node29 -->
<g id="edge38" class="edge">
<title>Node20&#45;&gt;Node29</title>
<path fill="none" stroke="midnightblue" d="M254.96,-317.29C290.86,-300.72 348.41,-274.16 387.64,-256.05"/>
<polygon fill="midnightblue" stroke="midnightblue" points="389.58,-259.01 397.2,-251.64 386.65,-252.65 389.58,-259.01"/>
</g>
<!-- Node42 -->
<g id="node42" class="node">
<title>Node42</title>
<g id="a_node42"><a xlink:href="classsignal__easel_1_1ax25_1_1Frame.html#afc5c722b419621f2a4dccbe2208faea1" target="_top" xlink:title=" ">
<polygon fill="none" stroke="black" points="365.5,-172.5 365.5,-202.5 496.5,-202.5 496.5,-172.5 365.5,-172.5"/>
<text text-anchor="start" x="373.5" y="-190.5" font-family="Helvetica,sans-Serif" font-size="10.00">signal_easel::ax25</text>
<text text-anchor="middle" x="431" y="-179.5" font-family="Helvetica,sans-Serif" font-size="10.00">::Frame::setInformation</text>
</a>
</g>
</g>
<!-- Node20&#45;&gt;Node42 -->
<g id="edge55" class="edge">
<title>Node20&#45;&gt;Node42</title>
<path fill="none" stroke="midnightblue" d="M231.07,-317.16C247.27,-291.16 283.78,-238.61 329,-211.5 337.2,-206.58 346.35,-202.67 355.68,-199.56"/>
<polygon fill="midnightblue" stroke="midnightblue" points="356.9,-202.85 365.46,-196.61 354.87,-196.15 356.9,-202.85"/>
</g>
<!-- Node22 -->
<g id="node22" class="node">
<title>Node22</title>
<g id="a_node22"><a xlink:href="namespacesignal__easel_1_1aprs.html#ae16006b4c75ab6423ad8b90ea814a14f" target="_top" xlink:title=" ">
<polygon fill="none" stroke="black" points="813.5,-294.5 813.5,-324.5 920.5,-324.5 920.5,-294.5 813.5,-294.5"/>
<text text-anchor="start" x="821.5" y="-312.5" font-family="Helvetica,sans-Serif" font-size="10.00">signal_easel::aprs</text>
<text text-anchor="middle" x="867" y="-301.5" font-family="Helvetica,sans-Serif" font-size="10.00">::CheckPacketData</text>
</a>
</g>
</g>
<!-- Node21&#45;&gt;Node22 -->
<g id="edge30" class="edge">
<title>Node21&#45;&gt;Node22</title>
<path fill="none" stroke="midnightblue" d="M714.11,-345.37C741.7,-338.85 775.14,-330.96 803.61,-324.23"/>
<polygon fill="midnightblue" stroke="midnightblue" points="804.53,-327.61 813.46,-321.91 802.92,-320.8 804.53,-327.61"/>
</g>
<!-- Node23 -->
<g id="node23" class="node">
<title>Node23</title>
<g id="a_node23"><a xlink:href="classsignal__easel_1_1ax25_1_1Frame.html#a57b163ece54317da8d95f3b18b47c23d" target="_top" xlink:title="setters/getters for the frame.">
<polygon fill="none" stroke="black" points="782,-245.5 782,-275.5 952,-275.5 952,-245.5 782,-245.5"/>
<text text-anchor="start" x="790" y="-263.5" font-family="Helvetica,sans-Serif" font-size="10.00">signal_easel::ax25</text>
<text text-anchor="middle" x="867" y="-252.5" font-family="Helvetica,sans-Serif" font-size="10.00">::Frame::setDestinationAddress</text>
</a>
</g>
</g>
<!-- Node21&#45;&gt;Node23 -->
<g id="edge31" class="edge">
<title>Node21&#45;&gt;Node23</title>
<path fill="none" stroke="midnightblue" d="M714.19,-349.23C725.34,-345.77 736.53,-341.02 746,-334.5 768.27,-319.19 759.9,-301.05 782,-285.5 784.74,-283.57 787.62,-281.79 790.62,-280.15"/>
<polygon fill="midnightblue" stroke="midnightblue" points="792.42,-283.16 799.86,-275.61 789.34,-276.88 792.42,-283.16"/>
</g>
<!-- Node28 -->
<g id="node28" class="node">
<title>Node28</title>
<g id="a_node28"><a xlink:href="classsignal__easel_1_1ax25_1_1Frame.html#a402d26a81f82bb5c477e8930b75a771e" target="_top" xlink:title=" ">
<polygon fill="none" stroke="black" points="794,-343.5 794,-373.5 940,-373.5 940,-343.5 794,-343.5"/>
<text text-anchor="start" x="802" y="-361.5" font-family="Helvetica,sans-Serif" font-size="10.00">signal_easel::ax25</text>
<text text-anchor="middle" x="867" y="-350.5" font-family="Helvetica,sans-Serif" font-size="10.00">::Frame::setSourceAddress</text>
</a>
</g>
</g>
<!-- Node21&#45;&gt;Node28 -->
<g id="edge36" class="edge">
<title>Node21&#45;&gt;Node28</title>
<path fill="none" stroke="midnightblue" d="M714.11,-358.5C735.44,-358.5 760.26,-358.5 783.58,-358.5"/>
<polygon fill="midnightblue" stroke="midnightblue" points="783.82,-362 793.82,-358.5 783.82,-355 783.82,-362"/>
</g>
<!-- Node24 -->
<g id="node24" class="node">
<title>Node24</title>
<g id="a_node24"><a xlink:href="classsignal__easel_1_1ax25_1_1Address.html#a7fa6b0ef4241413893f201660991e4ea" target="_top" xlink:title="Checks if the address is valid, if not throws an exception with a specific error code.">
<polygon fill="none" stroke="black" points="988,-238.5 988,-268.5 1118,-268.5 1118,-238.5 988,-238.5"/>
<text text-anchor="start" x="996" y="-256.5" font-family="Helvetica,sans-Serif" font-size="10.00">signal_easel::ax25</text>
<text text-anchor="middle" x="1053" y="-245.5" font-family="Helvetica,sans-Serif" font-size="10.00">::Address::assertIsValid</text>
</a>
</g>
</g>
<!-- Node23&#45;&gt;Node24 -->
<g id="edge32" class="edge">
<title>Node23&#45;&gt;Node24</title>
<path fill="none" stroke="midnightblue" d="M952.19,-257.3C960.74,-256.97 969.37,-256.64 977.8,-256.32"/>
<polygon fill="midnightblue" stroke="midnightblue" points="978.09,-259.81 987.95,-255.94 977.83,-252.82 978.09,-259.81"/>
</g>
<!-- Node25 -->
<g id="node25" class="node">
<title>Node25</title>
<g id="a_node25"><a xlink:href="classsignal__easel_1_1ax25_1_1Address.html#af34b361f739b7995e7816b7a04465828" target="_top" xlink:title=" ">
<polygon fill="none" stroke="black" points="1154,-233 1154,-274 1319,-274 1319,-233 1154,-233"/>
<text text-anchor="start" x="1162" y="-262" font-family="Helvetica,sans-Serif" font-size="10.00">signal_easel::ax25</text>
<text text-anchor="start" x="1162" y="-251" font-family="Helvetica,sans-Serif" font-size="10.00">::Address::assertAddressString</text>
<text text-anchor="middle" x="1236.5" y="-240" font-family="Helvetica,sans-Serif" font-size="10.00">IsValid</text>
</a>
</g>
</g>
<!-- Node24&#45;&gt;Node25 -->
<g id="edge33" class="edge">
<title>Node24&#45;&gt;Node25</title>
<path fill="none" stroke="midnightblue" d="M1118.25,-253.5C1126.53,-253.5 1135.13,-253.5 1143.75,-253.5"/>
<polygon fill="midnightblue" stroke="midnightblue" points="1143.85,-257 1153.85,-253.5 1143.85,-250 1143.85,-257"/>
</g>
<!-- Node26 -->
<g id="node26" class="node">
<title>Node26</title>
<g id="a_node26"><a xlink:href="classsignal__easel_1_1ax25_1_1Address.html#a8b44c6e311d3462bd86eda03c1d384f0" target="_top" xlink:title=" ">
<polygon fill="none" stroke="black" points="1161.5,-177.5 1161.5,-207.5 1311.5,-207.5 1311.5,-177.5 1161.5,-177.5"/>
<text text-anchor="start" x="1169.5" y="-195.5" font-family="Helvetica,sans-Serif" font-size="10.00">signal_easel::ax25</text>
<text text-anchor="middle" x="1236.5" y="-184.5" font-family="Helvetica,sans-Serif" font-size="10.00">::Address::assertSsidIsValid</text>
</a>
</g>
</g>
<!-- Node24&#45;&gt;Node26 -->
<g id="edge34" class="edge">
<title>Node24&#45;&gt;Node26</title>
<path fill="none" stroke="midnightblue" d="M1098.87,-238.42C1123.72,-230.07 1154.8,-219.62 1181.04,-210.8"/>
<polygon fill="midnightblue" stroke="midnightblue" points="1182.47,-214.01 1190.84,-207.51 1180.24,-207.38 1182.47,-214.01"/>
</g>
<!-- Node27 -->
<g id="node27" class="node">
<title>Node27</title>
<g id="a_node27"><a xlink:href="classsignal__easel_1_1ax25_1_1Address.html#ad66c149737cc4aa52ae9e8860176acf3" target="_top" xlink:title=" ">
<polygon fill="none" stroke="black" points="1355,-149.5 1355,-179.5 1475,-179.5 1475,-149.5 1355,-149.5"/>
<text text-anchor="start" x="1363" y="-167.5" font-family="Helvetica,sans-Serif" font-size="10.00">signal_easel::ax25</text>
<text text-anchor="middle" x="1415" y="-156.5" font-family="Helvetica,sans-Serif" font-size="10.00">::Address::isSsidValid</text>
</a>
</g>
</g>
<!-- Node26&#45;&gt;Node27 -->
<g id="edge35" class="edge">
<title>Node26&#45;&gt;Node27</title>
<path fill="none" stroke="midnightblue" d="M1311.58,-180.75C1322.64,-178.99 1333.99,-177.19 1344.93,-175.46"/>
<polygon fill="midnightblue" stroke="midnightblue" points="1345.52,-178.91 1354.84,-173.88 1344.42,-171.99 1345.52,-178.91"/>
</g>
<!-- Node28&#45;&gt;Node24 -->
<g id="edge37" class="edge">
<title>Node28&#45;&gt;Node24</title>
<path fill="none" stroke="midnightblue" d="M931.46,-343.37C938.55,-340.8 945.54,-337.86 952,-334.5 981.79,-319.01 1011.07,-293.79 1030.17,-275.6"/>
<polygon fill="midnightblue" stroke="midnightblue" points="1032.72,-278.01 1037.46,-268.53 1027.84,-272.98 1032.72,-278.01"/>
</g>
<!-- Node30 -->
<g id="node30" class="node">
<title>Node30</title>
<g id="a_node30"><a xlink:href="classsignal__easel_1_1BitStream.html#a9df75eb28c03717c9fad2d30a85de6e6" target="_top" xlink:title=" ">
<polygon fill="none" stroke="black" points="801,-196.5 801,-226.5 933,-226.5 933,-196.5 801,-196.5"/>
<text text-anchor="start" x="809" y="-214.5" font-family="Helvetica,sans-Serif" font-size="10.00">signal_easel::BitStream</text>
<text text-anchor="middle" x="867" y="-203.5" font-family="Helvetica,sans-Serif" font-size="10.00">::addBits</text>
</a>
</g>
</g>
<!-- Node29&#45;&gt;Node30 -->
<g id="edge39" class="edge">
<title>Node29&#45;&gt;Node30</title>
<path fill="none" stroke="midnightblue" d="M493.56,-225.05C506.88,-221.54 520.66,-217.08 533,-211.5 550.75,-203.47 550.41,-192.32 569,-186.5 649.22,-161.38 747.23,-178.21 808.15,-193.86"/>
<polygon fill="midnightblue" stroke="midnightblue" points="807.4,-197.29 817.97,-196.46 809.19,-190.52 807.4,-197.29"/>
</g>
<!-- Node31 -->
<g id="node31" class="node">
<title>Node31</title>
<g id="a_node31"><a xlink:href="classsignal__easel_1_1BitStream.html#a81d4aea4c11f65e0c2b7ad2f0f0cc312" target="_top" xlink:title=" ">
<polygon fill="none" stroke="black" points="591.5,-196.5 591.5,-226.5 723.5,-226.5 723.5,-196.5 591.5,-196.5"/>
<text text-anchor="start" x="599.5" y="-214.5" font-family="Helvetica,sans-Serif" font-size="10.00">signal_easel::BitStream</text>
<text text-anchor="middle" x="657.5" y="-203.5" font-family="Helvetica,sans-Serif" font-size="10.00">::addOneBit</text>
</a>
</g>
</g>
<!-- Node29&#45;&gt;Node31 -->
<g id="edge40" class="edge">
<title>Node29&#45;&gt;Node31</title>
<path fill="none" stroke="midnightblue" d="M493.64,-229.64C520.7,-226.62 552.71,-223.06 581.16,-219.89"/>
<polygon fill="midnightblue" stroke="midnightblue" points="581.91,-223.33 591.47,-218.74 581.14,-216.37 581.91,-223.33"/>
</g>
<!-- Node32 -->
<g id="node32" class="node">
<title>Node32</title>
<g id="a_node32"><a xlink:href="classsignal__easel_1_1BitStream.html#abb315beec8c4d88115d9d4ec5f082863" target="_top" xlink:title=" ">
<polygon fill="none" stroke="black" points="591.5,-108.5 591.5,-138.5 723.5,-138.5 723.5,-108.5 591.5,-108.5"/>
<text text-anchor="start" x="599.5" y="-126.5" font-family="Helvetica,sans-Serif" font-size="10.00">signal_easel::BitStream</text>
<text text-anchor="middle" x="657.5" y="-115.5" font-family="Helvetica,sans-Serif" font-size="10.00">::addZeroBit</text>
</a>
</g>
</g>
<!-- Node29&#45;&gt;Node32 -->
<g id="edge42" class="edge">
<title>Node29&#45;&gt;Node32</title>
<path fill="none" stroke="midnightblue" d="M493.53,-229.21C507.42,-225.49 521.46,-219.9 533,-211.5 557.53,-193.65 545.27,-172.41 569,-153.5 574.03,-149.49 579.62,-146.01 585.48,-142.98"/>
<polygon fill="midnightblue" stroke="midnightblue" points="587.3,-145.99 594.87,-138.58 584.33,-139.65 587.3,-145.99"/>
</g>
<!-- Node33 -->
<g id="node33" class="node">
<title>Node33</title>
<g id="a_node33"><a xlink:href="classsignal__easel_1_1ax25_1_1Frame.html#a24e7d5ffc6504a3380e97142d1bc084e" target="_top" xlink:title="Builds all internal portions of the frame. Doesn&#39;t include the flags.">
<polygon fill="none" stroke="black" points="600.5,-59.5 600.5,-89.5 714.5,-89.5 714.5,-59.5 600.5,-59.5"/>
<text text-anchor="start" x="608.5" y="-77.5" font-family="Helvetica,sans-Serif" font-size="10.00">signal_easel::ax25</text>
<text text-anchor="middle" x="657.5" y="-66.5" font-family="Helvetica,sans-Serif" font-size="10.00">::Frame::buildFrame</text>
</a>
</g>
</g>
<!-- Node29&#45;&gt;Node33 -->
<g id="edge44" class="edge">
<title>Node29&#45;&gt;Node33</title>
<path fill="none" stroke="midnightblue" d="M493.57,-231.58C507.94,-227.83 522.19,-221.62 533,-211.5 571.48,-175.47 530.98,-135 569,-98.5 575.21,-92.54 582.75,-88.03 590.77,-84.63"/>
<polygon fill="midnightblue" stroke="midnightblue" points="592.18,-87.84 600.36,-81.11 589.77,-81.27 592.18,-87.84"/>
</g>
<!-- Node40 -->
<g id="node40" class="node">
<title>Node40</title>
<g id="a_node40"><a xlink:href="classsignal__easel_1_1BitStream.html#aa97152ef51f73088e103a7951134aa85" target="_top" xlink:title=" ">
<polygon fill="none" stroke="black" points="591.5,-294.5 591.5,-324.5 723.5,-324.5 723.5,-294.5 591.5,-294.5"/>
<text text-anchor="start" x="599.5" y="-312.5" font-family="Helvetica,sans-Serif" font-size="10.00">signal_easel::BitStream</text>
<text text-anchor="middle" x="657.5" y="-301.5" font-family="Helvetica,sans-Serif" font-size="10.00">::getBitStreamLength</text>
</a>
</g>
</g>
<!-- Node29&#45;&gt;Node40 -->
<g id="edge53" class="edge">
<title>Node29&#45;&gt;Node40</title>
<path fill="none" stroke="midnightblue" d="M471.6,-251.56C498.81,-261.69 535.88,-275.05 569,-285.5 575.46,-287.54 582.22,-289.57 588.99,-291.54"/>
<polygon fill="midnightblue" stroke="midnightblue" points="588.32,-294.98 598.9,-294.37 590.24,-288.25 588.32,-294.98"/>
</g>
<!-- Node41 -->
<g id="node41" class="node">
<title>Node41</title>
<g id="a_node41"><a xlink:href="classsignal__easel_1_1BitStream.html#a5b5339586e09ca5c25a7e9ded0118ffb" target="_top" xlink:title="Returns the next bit of the bit stream that will be encoded.">
<polygon fill="none" stroke="black" points="591.5,-245.5 591.5,-275.5 723.5,-275.5 723.5,-245.5 591.5,-245.5"/>
<text text-anchor="start" x="599.5" y="-263.5" font-family="Helvetica,sans-Serif" font-size="10.00">signal_easel::BitStream</text>
<text text-anchor="middle" x="657.5" y="-252.5" font-family="Helvetica,sans-Serif" font-size="10.00">::popNextBit</text>
</a>
</g>
</g>
<!-- Node29&#45;&gt;Node41 -->
<g id="edge54" class="edge">
<title>Node29&#45;&gt;Node41</title>
<path fill="none" stroke="midnightblue" d="M493.64,-243.09C520.7,-245.98 552.71,-249.4 581.16,-252.45"/>
<polygon fill="midnightblue" stroke="midnightblue" points="581.15,-255.96 591.47,-253.55 581.89,-249 581.15,-255.96"/>
</g>
<!-- Node31&#45;&gt;Node30 -->
<g id="edge41" class="edge">
<title>Node31&#45;&gt;Node30</title>
<path fill="none" stroke="midnightblue" d="M723.58,-211.5C744.82,-211.5 768.59,-211.5 790.52,-211.5"/>
<polygon fill="midnightblue" stroke="midnightblue" points="790.79,-215 800.79,-211.5 790.79,-208 790.79,-215"/>
</g>
<!-- Node32&#45;&gt;Node30 -->
<g id="edge43" class="edge">
<title>Node32&#45;&gt;Node30</title>
<path fill="none" stroke="midnightblue" d="M713.72,-138.56C724.79,-142.64 736.06,-147.59 746,-153.5 764.66,-164.59 763.12,-175.8 782,-186.5 785.9,-188.71 790.02,-190.75 794.25,-192.61"/>
<polygon fill="midnightblue" stroke="midnightblue" points="793.08,-195.91 803.66,-196.44 795.72,-189.43 793.08,-195.91"/>
</g>
<!-- Node34 -->
<g id="node34" class="node">
<title>Node34</title>
<g id="a_node34"><a xlink:href="namespacesignal__easel_1_1ax25.html#a6d799107f96d783e620cd508488ab8eb" target="_top" xlink:title="Calculate the Frame Check Sequence (FCS) on a vector of bytes.">
<polygon fill="none" stroke="black" points="813.5,-98.5 813.5,-128.5 920.5,-128.5 920.5,-98.5 813.5,-98.5"/>
<text text-anchor="start" x="821.5" y="-116.5" font-family="Helvetica,sans-Serif" font-size="10.00">signal_easel::ax25</text>
<text text-anchor="middle" x="867" y="-105.5" font-family="Helvetica,sans-Serif" font-size="10.00">::calculateFcs</text>
</a>
</g>
</g>
<!-- Node33&#45;&gt;Node34 -->
<g id="edge45" class="edge">
<title>Node33&#45;&gt;Node34</title>
<path fill="none" stroke="midnightblue" d="M714.65,-85.05C742.02,-90.2 775.02,-96.4 803.22,-101.7"/>
<polygon fill="midnightblue" stroke="midnightblue" points="802.9,-105.2 813.37,-103.61 804.19,-98.32 802.9,-105.2"/>
</g>
<!-- Node35 -->
<g id="node35" class="node">
<title>Node35</title>
<g id="a_node35"><a xlink:href="classsignal__easel_1_1ax25_1_1Address.html#a0c31737081a9184b56dc32150b23cb0a" target="_top" xlink:title="Get the address as a byte array.">
<polygon fill="none" stroke="black" points="796,-147.5 796,-177.5 938,-177.5 938,-147.5 796,-147.5"/>
<text text-anchor="start" x="804" y="-165.5" font-family="Helvetica,sans-Serif" font-size="10.00">signal_easel::ax25</text>
<text text-anchor="middle" x="867" y="-154.5" font-family="Helvetica,sans-Serif" font-size="10.00">::Address::encodeAddress</text>
</a>
</g>
</g>
<!-- Node33&#45;&gt;Node35 -->
<g id="edge46" class="edge">
<title>Node33&#45;&gt;Node35</title>
<path fill="none" stroke="midnightblue" d="M714.57,-84.88C725.46,-88.25 736.45,-92.69 746,-98.5 766.15,-110.76 761.98,-125.02 782,-137.5 785.39,-139.61 788.97,-141.55 792.66,-143.34"/>
<polygon fill="midnightblue" stroke="midnightblue" points="791.46,-146.64 802.03,-147.46 794.28,-140.23 791.46,-146.64"/>
</g>
<!-- Node36 -->
<g id="node36" class="node">
<title>Node36</title>
<g id="a_node36"><a xlink:href="classsignal__easel_1_1ax25_1_1Frame.html#a640edeabbda34e78cc243e3561747bf9" target="_top" xlink:title=" ">
<polygon fill="none" stroke="black" points="806,-0.5 806,-30.5 928,-30.5 928,-0.5 806,-0.5"/>
<text text-anchor="start" x="814" y="-18.5" font-family="Helvetica,sans-Serif" font-size="10.00">signal_easel::ax25</text>
<text text-anchor="middle" x="867" y="-7.5" font-family="Helvetica,sans-Serif" font-size="10.00">::Frame::isFrameValid</text>
</a>
</g>
</g>
<!-- Node33&#45;&gt;Node36 -->
<g id="edge48" class="edge">
<title>Node33&#45;&gt;Node36</title>
<path fill="none" stroke="midnightblue" d="M711.4,-59.46C739.45,-51.48 774.08,-41.64 803.46,-33.28"/>
<polygon fill="midnightblue" stroke="midnightblue" points="804.54,-36.61 813.2,-30.51 802.62,-29.88 804.54,-36.61"/>
</g>
<!-- Node39 -->
<g id="node39" class="node">
<title>Node39</title>
<g id="a_node39"><a xlink:href="classsignal__easel_1_1ax25_1_1Address.html#a1a5bc573535cfc1f8723c121e3451e7c" target="_top" xlink:title="Set the as the last address in the AX.25 frame (Sets a bit in the ssid byte)">
<polygon fill="none" stroke="black" points="792,-49.5 792,-79.5 942,-79.5 942,-49.5 792,-49.5"/>
<text text-anchor="start" x="800" y="-67.5" font-family="Helvetica,sans-Serif" font-size="10.00">signal_easel::ax25</text>
<text text-anchor="middle" x="867" y="-56.5" font-family="Helvetica,sans-Serif" font-size="10.00">::Address::setIsLastAddress</text>
</a>
</g>
</g>
<!-- Node33&#45;&gt;Node39 -->
<g id="edge52" class="edge">
<title>Node33&#45;&gt;Node39</title>
<path fill="none" stroke="midnightblue" d="M714.65,-71.79C735.26,-70.8 759.07,-69.65 781.61,-68.57"/>
<polygon fill="midnightblue" stroke="midnightblue" points="782.04,-72.05 791.86,-68.07 781.71,-65.06 782.04,-72.05"/>
</g>
<!-- Node35&#45;&gt;Node24 -->
<g id="edge47" class="edge">
<title>Node35&#45;&gt;Node24</title>
<path fill="none" stroke="midnightblue" d="M929.38,-177.61C937.13,-180.22 944.85,-183.18 952,-186.5 978.42,-198.76 1005.71,-217.53 1025.1,-232.08"/>
<polygon fill="midnightblue" stroke="midnightblue" points="1023.08,-234.95 1033.16,-238.24 1027.33,-229.39 1023.08,-234.95"/>
</g>
<!-- Node37 -->
<g id="node37" class="node">
<title>Node37</title>
<g id="a_node37"><a xlink:href="classsignal__easel_1_1ax25_1_1Address.html#aae81920cfd0dc7d89cb107f9d825488c" target="_top" xlink:title="If the address is valid (can be encoded correctly or was decoded)">
<polygon fill="none" stroke="black" points="999.5,-48.5 999.5,-78.5 1106.5,-78.5 1106.5,-48.5 999.5,-48.5"/>
<text text-anchor="start" x="1007.5" y="-66.5" font-family="Helvetica,sans-Serif" font-size="10.00">signal_easel::ax25</text>
<text text-anchor="middle" x="1053" y="-55.5" font-family="Helvetica,sans-Serif" font-size="10.00">::Address::isValid</text>
</a>
</g>
</g>
<!-- Node36&#45;&gt;Node37 -->
<g id="edge49" class="edge">
<title>Node36&#45;&gt;Node37</title>
<path fill="none" stroke="midnightblue" d="M925.71,-30.56C946,-35.85 968.89,-41.82 989.55,-47.21"/>
<polygon fill="midnightblue" stroke="midnightblue" points="988.93,-50.66 999.49,-49.8 990.7,-43.89 988.93,-50.66"/>
</g>
<!-- Node37&#45;&gt;Node27 -->
<g id="edge51" class="edge">
<title>Node37&#45;&gt;Node27</title>
<path fill="none" stroke="midnightblue" d="M1103.27,-78.55C1119.41,-83.4 1137.45,-88.76 1154,-93.5 1219.61,-112.3 1294.85,-132.72 1347.46,-146.82"/>
<polygon fill="midnightblue" stroke="midnightblue" points="1346.77,-150.26 1357.34,-149.46 1348.58,-143.49 1346.77,-150.26"/>
</g>
<!-- Node38 -->
<g id="node38" class="node">
<title>Node38</title>
<g id="a_node38"><a xlink:href="classsignal__easel_1_1ax25_1_1Address.html#a56c55b48bfc809a33aa0e22a5aeb95ca" target="_top" xlink:title=" ">
<polygon fill="none" stroke="black" points="1165,-43 1165,-84 1308,-84 1308,-43 1165,-43"/>
<text text-anchor="start" x="1173" y="-72" font-family="Helvetica,sans-Serif" font-size="10.00">signal_easel::ax25</text>
<text text-anchor="start" x="1173" y="-61" font-family="Helvetica,sans-Serif" font-size="10.00">::Address::isAddressString</text>
<text text-anchor="middle" x="1236.5" y="-50" font-family="Helvetica,sans-Serif" font-size="10.00">Valid</text>
</a>
</g>
</g>
<!-- Node37&#45;&gt;Node38 -->
<g id="edge50" class="edge">
<title>Node37&#45;&gt;Node38</title>
<path fill="none" stroke="midnightblue" d="M1106.99,-63.5C1121.98,-63.5 1138.64,-63.5 1154.87,-63.5"/>
<polygon fill="midnightblue" stroke="midnightblue" points="1154.89,-67 1164.89,-63.5 1154.89,-60 1154.89,-67"/>
</g>
</g>
</svg>
