<?xml version="1.0" encoding="UTF-8" standalone="no"?>
<!DOCTYPE svg PUBLIC "-//W3C//DTD SVG 1.1//EN"
 "http://www.w3.org/Graphics/SVG/1.1/DTD/svg11.dtd">
<!-- Generated by graphviz version 2.43.0 (0)
 -->
<!-- Title: signal_easel::aprs::Demodulator Pages: 1 -->
<svg width="1357pt" height="1080pt"
 viewBox="0.00 0.00 1357.00 1080.00" xmlns="http://www.w3.org/2000/svg" xmlns:xlink="http://www.w3.org/1999/xlink">
<g id="graph0" class="graph" transform="scale(1 1) rotate(0) translate(4 1076)">
<title>signal_easel::aprs::Demodulator</title>
<!-- Node1 -->
<g id="node1" class="node">
<title>Node1</title>
<g id="a_node1"><a xlink:title=" ">
<polygon fill="#bfbfbf" stroke="black" points="779.5,-0.5 779.5,-134.5 938.5,-134.5 938.5,-0.5 779.5,-0.5"/>
<text text-anchor="start" x="787.5" y="-122.5" font-family="Helvetica,sans-Serif" font-size="10.00">signal_easel::aprs</text>
<text text-anchor="middle" x="859" y="-111.5" font-family="Helvetica,sans-Serif" font-size="10.00">::Demodulator</text>
<polyline fill="none" stroke="black" points="779.5,-104.5 938.5,-104.5 "/>
<text text-anchor="middle" x="859" y="-92.5" font-family="Helvetica,sans-Serif" font-size="10.00"> </text>
<polyline fill="none" stroke="black" points="779.5,-85.5 938.5,-85.5 "/>
<text text-anchor="start" x="787.5" y="-73.5" font-family="Helvetica,sans-Serif" font-size="10.00">+ Demodulator()</text>
<text text-anchor="start" x="787.5" y="-62.5" font-family="Helvetica,sans-Serif" font-size="10.00">+ getType()</text>
<text text-anchor="start" x="787.5" y="-51.5" font-family="Helvetica,sans-Serif" font-size="10.00">+ lookForAx25Packet()</text>
<text text-anchor="start" x="787.5" y="-40.5" font-family="Helvetica,sans-Serif" font-size="10.00">+ parseExperimentalPacket()</text>
<text text-anchor="start" x="787.5" y="-29.5" font-family="Helvetica,sans-Serif" font-size="10.00">+ parseMessagePacket()</text>
<text text-anchor="start" x="787.5" y="-18.5" font-family="Helvetica,sans-Serif" font-size="10.00">+ parsePositionPacket()</text>
<text text-anchor="start" x="787.5" y="-7.5" font-family="Helvetica,sans-Serif" font-size="10.00">+ printFrame()</text>
</a>
</g>
</g>
<!-- Node2 -->
<g id="node2" class="node">
<title>Node2</title>
<g id="a_node2"><a xlink:href="classsignal__easel_1_1afsk_1_1Demodulator.html" target="_top" xlink:title="Demodulates an AFSK signal into data.">
<polygon fill="none" stroke="black" points="434,-281.5 434,-404.5 610,-404.5 610,-281.5 434,-281.5"/>
<text text-anchor="start" x="442" y="-392.5" font-family="Helvetica,sans-Serif" font-size="10.00">signal_easel::afsk</text>
<text text-anchor="middle" x="522" y="-381.5" font-family="Helvetica,sans-Serif" font-size="10.00">::Demodulator</text>
<polyline fill="none" stroke="black" points="434,-374.5 610,-374.5 "/>
<text text-anchor="middle" x="522" y="-362.5" font-family="Helvetica,sans-Serif" font-size="10.00"> </text>
<polyline fill="none" stroke="black" points="434,-355.5 610,-355.5 "/>
<text text-anchor="start" x="442" y="-343.5" font-family="Helvetica,sans-Serif" font-size="10.00">+ Demodulator()</text>
<text text-anchor="start" x="442" y="-332.5" font-family="Helvetica,sans-Serif" font-size="10.00">+ ~Demodulator()</text>
<text text-anchor="start" x="442" y="-321.5" font-family="Helvetica,sans-Serif" font-size="10.00">+ lookForString()</text>
<text text-anchor="start" x="442" y="-310.5" font-family="Helvetica,sans-Serif" font-size="10.00">+ processAudioBuffer()</text>
<text text-anchor="start" x="442" y="-299.5" font-family="Helvetica,sans-Serif" font-size="10.00">&#45; audioBufferToBaseBandSignal()</text>
<text text-anchor="start" x="442" y="-288.5" font-family="Helvetica,sans-Serif" font-size="10.00">&#45; baseBandToBitStream()</text>
</a>
</g>
</g>
<!-- Node2&#45;&gt;Node1 -->
<g id="edge1" class="edge">
<title>Node2&#45;&gt;Node1</title>
<path fill="none" stroke="midnightblue" d="M604.86,-274.75C658.09,-231.55 726.85,-175.75 779.43,-133.08"/>
<polygon fill="none" stroke="midnightblue" points="602.35,-272.28 596.79,-281.3 606.76,-277.72 602.35,-272.28"/>
</g>
<!-- Node3 -->
<g id="node3" class="node">
<title>Node3</title>
<g id="a_node3"><a xlink:href="classsignal__easel_1_1Demodulator.html" target="_top" xlink:title="The base class for all demodulators that turn audio into data.">
<polygon fill="none" stroke="black" points="94.5,-623 94.5,-724 241.5,-724 241.5,-623 94.5,-623"/>
<text text-anchor="middle" x="168" y="-712" font-family="Helvetica,sans-Serif" font-size="10.00">signal_easel::Demodulator</text>
<polyline fill="none" stroke="black" points="94.5,-705 241.5,-705 "/>
<text text-anchor="middle" x="168" y="-693" font-family="Helvetica,sans-Serif" font-size="10.00"> </text>
<polyline fill="none" stroke="black" points="94.5,-686 241.5,-686 "/>
<text text-anchor="start" x="102.5" y="-674" font-family="Helvetica,sans-Serif" font-size="10.00">+ Demodulator()</text>
<text text-anchor="start" x="102.5" y="-663" font-family="Helvetica,sans-Serif" font-size="10.00">+ ~Demodulator()</text>
<text text-anchor="start" x="102.5" y="-652" font-family="Helvetica,sans-Serif" font-size="10.00">+ clearBuffer()</text>
<text text-anchor="start" x="102.5" y="-641" font-family="Helvetica,sans-Serif" font-size="10.00">+ loadAudioFromFile()</text>
<text text-anchor="start" x="102.5" y="-630" font-family="Helvetica,sans-Serif" font-size="10.00"># getAudioBuffer()</text>
</a>
</g>
</g>
<!-- Node3&#45;&gt;Node2 -->
<g id="edge2" class="edge">
<title>Node3&#45;&gt;Node2</title>
<path fill="none" stroke="midnightblue" d="M228.95,-615.94C292.47,-557 391.65,-464.96 456.73,-404.56"/>
<polygon fill="none" stroke="midnightblue" points="226.33,-613.6 221.38,-622.96 231.09,-618.73 226.33,-613.6"/>
</g>
<!-- Node4 -->
<g id="node4" class="node">
<title>Node4</title>
<g id="a_node4"><a xlink:title=" ">
<polygon fill="none" stroke="#bfbfbf" points="0,-887.5 0,-944.5 104,-944.5 104,-887.5 0,-887.5"/>
<text text-anchor="middle" x="52" y="-932.5" font-family="Helvetica,sans-Serif" font-size="10.00">vector&lt; int16_t &gt;</text>
<polyline fill="none" stroke="#bfbfbf" points="0,-925.5 104,-925.5 "/>
<text text-anchor="middle" x="52" y="-913.5" font-family="Helvetica,sans-Serif" font-size="10.00"> </text>
<polyline fill="none" stroke="#bfbfbf" points="0,-906.5 104,-906.5 "/>
<text text-anchor="middle" x="52" y="-894.5" font-family="Helvetica,sans-Serif" font-size="10.00"> </text>
</a>
</g>
</g>
<!-- Node4&#45;&gt;Node3 -->
<g id="edge3" class="edge">
<title>Node4&#45;&gt;Node3</title>
<path fill="none" stroke="#404040" d="M55.3,-887.08C59.07,-861.43 66.69,-822.85 81,-792 90.37,-771.8 103.54,-751.64 116.81,-733.87"/>
<polygon fill="none" stroke="#404040" points="116.87,-733.79 117.34,-726.59 124.16,-724.25 123.69,-731.45 116.87,-733.79"/>
<text text-anchor="middle" x="120" y="-828" font-family="Helvetica,sans-Serif" font-size="10.00"> #audio_buffer_</text>
</g>
<!-- Node5 -->
<g id="node5" class="node">
<title>Node5</title>
<g id="a_node5"><a xlink:href="structsignal__easel_1_1Settings.html" target="_top" xlink:title="The universal settings for MWAV.">
<polygon fill="none" stroke="black" points="122.5,-887.5 122.5,-944.5 245.5,-944.5 245.5,-887.5 122.5,-887.5"/>
<text text-anchor="middle" x="184" y="-932.5" font-family="Helvetica,sans-Serif" font-size="10.00">signal_easel::Settings</text>
<polyline fill="none" stroke="black" points="122.5,-925.5 245.5,-925.5 "/>
<text text-anchor="middle" x="184" y="-913.5" font-family="Helvetica,sans-Serif" font-size="10.00"> </text>
<polyline fill="none" stroke="black" points="122.5,-906.5 245.5,-906.5 "/>
<text text-anchor="middle" x="184" y="-894.5" font-family="Helvetica,sans-Serif" font-size="10.00"> </text>
</a>
</g>
</g>
<!-- Node5&#45;&gt;Node3 -->
<g id="edge4" class="edge">
<title>Node5&#45;&gt;Node3</title>
<path fill="none" stroke="#404040" d="M173.39,-887.12C171.57,-881.22 169.96,-874.97 169,-869 161.88,-824.93 161.85,-774.51 163.48,-736.05"/>
<polygon fill="none" stroke="#404040" points="163.48,-735.99 159.78,-729.81 164.06,-724.01 167.77,-730.19 163.48,-735.99"/>
<text text-anchor="middle" x="197" y="-828" font-family="Helvetica,sans-Serif" font-size="10.00"> #settings_</text>
</g>
<!-- Node9 -->
<g id="node9" class="node">
<title>Node9</title>
<g id="a_node9"><a xlink:href="structsignal__easel_1_1afsk_1_1Settings.html" target="_top" xlink:title="Settings for AFSK modulation/demodulation.">
<polygon fill="none" stroke="black" points="288,-639.5 288,-707.5 392,-707.5 392,-639.5 288,-639.5"/>
<text text-anchor="start" x="296" y="-695.5" font-family="Helvetica,sans-Serif" font-size="10.00">signal_easel::afsk</text>
<text text-anchor="middle" x="340" y="-684.5" font-family="Helvetica,sans-Serif" font-size="10.00">::Settings</text>
<polyline fill="none" stroke="black" points="288,-677.5 392,-677.5 "/>
<text text-anchor="middle" x="340" y="-665.5" font-family="Helvetica,sans-Serif" font-size="10.00"> </text>
<polyline fill="none" stroke="black" points="288,-658.5 392,-658.5 "/>
<text text-anchor="middle" x="340" y="-646.5" font-family="Helvetica,sans-Serif" font-size="10.00"> </text>
</a>
</g>
</g>
<!-- Node5&#45;&gt;Node9 -->
<g id="edge9" class="edge">
<title>Node5&#45;&gt;Node9</title>
<path fill="none" stroke="midnightblue" d="M217.33,-879.43C220.04,-876 222.65,-872.49 225,-869 246.33,-837.36 244.06,-825.13 263,-792 279.76,-762.67 300.93,-730.69 316.82,-707.5"/>
<polygon fill="none" stroke="midnightblue" points="214.52,-877.33 210.85,-887.27 219.92,-881.79 214.52,-877.33"/>
</g>
<!-- Node6 -->
<g id="node6" class="node">
<title>Node6</title>
<g id="a_node6"><a xlink:title=" ">
<polygon fill="none" stroke="#bfbfbf" points="214,-1014.5 214,-1071.5 264,-1071.5 264,-1014.5 214,-1014.5"/>
<text text-anchor="middle" x="239" y="-1059.5" font-family="Helvetica,sans-Serif" font-size="10.00">double</text>
<polyline fill="none" stroke="#bfbfbf" points="214,-1052.5 264,-1052.5 "/>
<text text-anchor="middle" x="239" y="-1040.5" font-family="Helvetica,sans-Serif" font-size="10.00"> </text>
<polyline fill="none" stroke="#bfbfbf" points="214,-1033.5 264,-1033.5 "/>
<text text-anchor="middle" x="239" y="-1021.5" font-family="Helvetica,sans-Serif" font-size="10.00"> </text>
</a>
</g>
</g>
<!-- Node6&#45;&gt;Node5 -->
<g id="edge5" class="edge">
<title>Node6&#45;&gt;Node5</title>
<path fill="none" stroke="#404040" d="M233.82,-1014.46C230.29,-998.88 224.82,-979.31 217,-963 215.7,-960.29 214.24,-957.56 212.67,-954.87"/>
<polygon fill="none" stroke="#404040" points="212.67,-954.87 206.08,-951.95 206.24,-944.74 212.83,-947.66 212.67,-954.87"/>
<text text-anchor="middle" x="272" y="-988" font-family="Helvetica,sans-Serif" font-size="10.00"> +amplitude</text>
<text text-anchor="start" x="229" y="-977" font-family="Helvetica,sans-Serif" font-size="10.00">+call_sign_pause</text>
<text text-anchor="middle" x="272" y="-966" font-family="Helvetica,sans-Serif" font-size="10.00">_seconds</text>
</g>
<!-- Node7 -->
<g id="node7" class="node">
<title>Node7</title>
<g id="a_node7"><a xlink:title=" ">
<polygon fill="none" stroke="#bfbfbf" points="86.5,-1014.5 86.5,-1071.5 169.5,-1071.5 169.5,-1014.5 86.5,-1014.5"/>
<text text-anchor="middle" x="128" y="-1059.5" font-family="Helvetica,sans-Serif" font-size="10.00">CallSignMode</text>
<polyline fill="none" stroke="#bfbfbf" points="86.5,-1052.5 169.5,-1052.5 "/>
<text text-anchor="middle" x="128" y="-1040.5" font-family="Helvetica,sans-Serif" font-size="10.00"> </text>
<polyline fill="none" stroke="#bfbfbf" points="86.5,-1033.5 169.5,-1033.5 "/>
<text text-anchor="middle" x="128" y="-1021.5" font-family="Helvetica,sans-Serif" font-size="10.00"> </text>
</a>
</g>
</g>
<!-- Node7&#45;&gt;Node5 -->
<g id="edge6" class="edge">
<title>Node7&#45;&gt;Node5</title>
<path fill="none" stroke="#404040" d="M120.72,-1014.34C118.04,-998.54 117.29,-978.79 125,-963 126.63,-959.66 128.63,-956.5 130.9,-953.51"/>
<polygon fill="none" stroke="#404040" points="130.91,-953.49 131.95,-946.36 138.93,-944.56 137.9,-951.7 130.91,-953.49"/>
<text text-anchor="middle" x="169" y="-977" font-family="Helvetica,sans-Serif" font-size="10.00"> +call_sign_mode</text>
</g>
<!-- Node8 -->
<g id="node8" class="node">
<title>Node8</title>
<g id="a_node8"><a xlink:title=" ">
<polygon fill="none" stroke="#bfbfbf" points="821,-1014.5 821,-1071.5 865,-1071.5 865,-1014.5 821,-1014.5"/>
<text text-anchor="middle" x="843" y="-1059.5" font-family="Helvetica,sans-Serif" font-size="10.00">string</text>
<polyline fill="none" stroke="#bfbfbf" points="821,-1052.5 865,-1052.5 "/>
<text text-anchor="middle" x="843" y="-1040.5" font-family="Helvetica,sans-Serif" font-size="10.00"> </text>
<polyline fill="none" stroke="#bfbfbf" points="821,-1033.5 865,-1033.5 "/>
<text text-anchor="middle" x="843" y="-1021.5" font-family="Helvetica,sans-Serif" font-size="10.00"> </text>
</a>
</g>
</g>
<!-- Node8&#45;&gt;Node5 -->
<g id="edge7" class="edge">
<title>Node8&#45;&gt;Node5</title>
<path fill="none" stroke="#404040" d="M820.74,-1040.05C743.52,-1032.91 480.12,-1005.61 257.28,-945.39"/>
<polygon fill="none" stroke="#404040" points="257.27,-945.39 250.42,-947.66 245.69,-942.22 252.54,-939.95 257.27,-945.39"/>
<text text-anchor="middle" x="506.5" y="-977" font-family="Helvetica,sans-Serif" font-size="10.00"> +call_sign</text>
</g>
<!-- Node20 -->
<g id="node20" class="node">
<title>Node20</title>
<g id="a_node20"><a xlink:href="classsignal__easel_1_1ax25_1_1Address.html" target="_top" xlink:title="AX.25 Address class. For encoding and decoding AX.25 addresses.">
<polygon fill="none" stroke="black" points="896.5,-573.5 896.5,-773.5 1057.5,-773.5 1057.5,-573.5 896.5,-573.5"/>
<text text-anchor="start" x="904.5" y="-761.5" font-family="Helvetica,sans-Serif" font-size="10.00">signal_easel::ax25</text>
<text text-anchor="middle" x="977" y="-750.5" font-family="Helvetica,sans-Serif" font-size="10.00">::Address</text>
<polyline fill="none" stroke="black" points="896.5,-743.5 1057.5,-743.5 "/>
<text text-anchor="middle" x="977" y="-731.5" font-family="Helvetica,sans-Serif" font-size="10.00"> </text>
<polyline fill="none" stroke="black" points="896.5,-724.5 1057.5,-724.5 "/>
<text text-anchor="start" x="904.5" y="-712.5" font-family="Helvetica,sans-Serif" font-size="10.00">+ Address()</text>
<text text-anchor="start" x="904.5" y="-701.5" font-family="Helvetica,sans-Serif" font-size="10.00">+ Address()</text>
<text text-anchor="start" x="904.5" y="-690.5" font-family="Helvetica,sans-Serif" font-size="10.00">+ Address()</text>
<text text-anchor="start" x="904.5" y="-679.5" font-family="Helvetica,sans-Serif" font-size="10.00">+ assertIsValid()</text>
<text text-anchor="start" x="904.5" y="-668.5" font-family="Helvetica,sans-Serif" font-size="10.00">+ decodeAddress()</text>
<text text-anchor="start" x="904.5" y="-657.5" font-family="Helvetica,sans-Serif" font-size="10.00">+ encodeAddress()</text>
<text text-anchor="start" x="904.5" y="-646.5" font-family="Helvetica,sans-Serif" font-size="10.00">+ getAddressString()</text>
<text text-anchor="start" x="904.5" y="-635.5" font-family="Helvetica,sans-Serif" font-size="10.00">+ getSsid()</text>
<text text-anchor="start" x="904.5" y="-624.5" font-family="Helvetica,sans-Serif" font-size="10.00">+ isAddressStringValid()</text>
<text text-anchor="start" x="904.5" y="-613.5" font-family="Helvetica,sans-Serif" font-size="10.00">+ isCommandOrResponse()</text>
<text text-anchor="start" x="904.5" y="-602.5" font-family="Helvetica,sans-Serif" font-size="10.00">and 8 more...</text>
<text text-anchor="start" x="904.5" y="-591.5" font-family="Helvetica,sans-Serif" font-size="10.00">&#45; assertAddressStringIsValid()</text>
<text text-anchor="start" x="904.5" y="-580.5" font-family="Helvetica,sans-Serif" font-size="10.00">&#45; assertSsidIsValid()</text>
</a>
</g>
</g>
<!-- Node8&#45;&gt;Node20 -->
<g id="edge23" class="edge">
<title>Node8&#45;&gt;Node20</title>
<path fill="none" stroke="#404040" d="M865.05,-1019.12C893.46,-988.02 941.72,-929.32 963,-869 972.22,-842.86 976.98,-813.54 979.18,-785.75"/>
<polygon fill="none" stroke="#404040" points="979.2,-785.51 975.6,-779.25 980,-773.53 983.59,-779.79 979.2,-785.51"/>
<text text-anchor="middle" x="996" y="-913.5" font-family="Helvetica,sans-Serif" font-size="10.00"> &#45;address_string_</text>
</g>
<!-- Node9&#45;&gt;Node2 -->
<g id="edge8" class="edge">
<title>Node9&#45;&gt;Node2</title>
<path fill="none" stroke="#404040" d="M358.28,-639.5C387.12,-587.45 443.83,-485.09 482.33,-415.61"/>
<polygon fill="none" stroke="#404040" points="482.53,-415.25 481.94,-408.06 488.34,-404.75 488.93,-411.94 482.53,-415.25"/>
<text text-anchor="middle" x="460" y="-536" font-family="Helvetica,sans-Serif" font-size="10.00"> &#45;afsk_settings_</text>
</g>
<!-- Node10 -->
<g id="node10" class="node">
<title>Node10</title>
<g id="a_node10"><a xlink:title=" ">
<polygon fill="none" stroke="#bfbfbf" points="264,-887.5 264,-944.5 338,-944.5 338,-887.5 264,-887.5"/>
<text text-anchor="middle" x="301" y="-932.5" font-family="Helvetica,sans-Serif" font-size="10.00">BitEncoding</text>
<polyline fill="none" stroke="#bfbfbf" points="264,-925.5 338,-925.5 "/>
<text text-anchor="middle" x="301" y="-913.5" font-family="Helvetica,sans-Serif" font-size="10.00"> </text>
<polyline fill="none" stroke="#bfbfbf" points="264,-906.5 338,-906.5 "/>
<text text-anchor="middle" x="301" y="-894.5" font-family="Helvetica,sans-Serif" font-size="10.00"> </text>
</a>
</g>
</g>
<!-- Node10&#45;&gt;Node9 -->
<g id="edge10" class="edge">
<title>Node10&#45;&gt;Node9</title>
<path fill="none" stroke="#404040" d="M280.93,-887.42C277.66,-881.6 274.77,-875.3 273,-869 263.76,-836.05 264.23,-825.08 273,-792 279.97,-765.69 294.37,-739.11 308.04,-717.91"/>
<polygon fill="none" stroke="#404040" points="308.21,-717.64 308.21,-710.43 314.86,-707.65 314.87,-714.86 308.21,-717.64"/>
<text text-anchor="middle" x="310" y="-828" font-family="Helvetica,sans-Serif" font-size="10.00"> +bit_encoding</text>
</g>
<!-- Node11 -->
<g id="node11" class="node">
<title>Node11</title>
<g id="a_node11"><a xlink:title=" ">
<polygon fill="none" stroke="#bfbfbf" points="660,-887.5 660,-944.5 698,-944.5 698,-887.5 660,-887.5"/>
<text text-anchor="middle" x="679" y="-932.5" font-family="Helvetica,sans-Serif" font-size="10.00">bool</text>
<polyline fill="none" stroke="#bfbfbf" points="660,-925.5 698,-925.5 "/>
<text text-anchor="middle" x="679" y="-913.5" font-family="Helvetica,sans-Serif" font-size="10.00"> </text>
<polyline fill="none" stroke="#bfbfbf" points="660,-906.5 698,-906.5 "/>
<text text-anchor="middle" x="679" y="-894.5" font-family="Helvetica,sans-Serif" font-size="10.00"> </text>
</a>
</g>
</g>
<!-- Node11&#45;&gt;Node9 -->
<g id="edge11" class="edge">
<title>Node11&#45;&gt;Node9</title>
<path fill="none" stroke="#404040" d="M659.87,-892.55C657.1,-890.36 654.13,-888.42 651,-887 597.06,-862.49 430.1,-907.42 385,-869 362.64,-849.95 350.16,-770.84 344.28,-719.57"/>
<polygon fill="none" stroke="#404040" points="344.26,-719.43 339.64,-713.9 342.96,-707.5 347.59,-713.03 344.26,-719.43"/>
<text text-anchor="middle" x="444.5" y="-828" font-family="Helvetica,sans-Serif" font-size="10.00"> +include_ascii_padding</text>
</g>
<!-- Node11&#45;&gt;Node20 -->
<g id="edge21" class="edge">
<title>Node11&#45;&gt;Node20</title>
<path fill="none" stroke="#404040" d="M698.27,-892.83C701.01,-890.59 703.94,-888.56 707,-887 751.9,-864.06 781.09,-902.24 819,-869 845.85,-845.45 817.81,-818.28 842,-792 854.78,-778.12 866.25,-784.05 886.04,-774.07"/>
<polygon fill="none" stroke="#404040" points="886.22,-773.97 889.27,-767.44 896.47,-767.74 893.42,-774.28 886.22,-773.97"/>
<text text-anchor="start" x="842" y="-861" font-family="Helvetica,sans-Serif" font-size="10.00"> &#45;command_or_response</text>
<text text-anchor="middle" x="902.5" y="-850" font-family="Helvetica,sans-Serif" font-size="10.00">_</text>
<text text-anchor="start" x="842" y="-839" font-family="Helvetica,sans-Serif" font-size="10.00">&#45;is_last_address</text>
<text text-anchor="middle" x="902.5" y="-828" font-family="Helvetica,sans-Serif" font-size="10.00">_</text>
<text text-anchor="start" x="842" y="-817" font-family="Helvetica,sans-Serif" font-size="10.00">&#45;reserve_bit</text>
<text text-anchor="middle" x="902.5" y="-806" font-family="Helvetica,sans-Serif" font-size="10.00">_1_</text>
<text text-anchor="middle" x="902.5" y="-795" font-family="Helvetica,sans-Serif" font-size="10.00">&#45;reserve_bit_2_</text>
</g>
<!-- Node12 -->
<g id="node12" class="node">
<title>Node12</title>
<g id="a_node12"><a xlink:href="classsignal__easel_1_1BitStream.html" target="_top" xlink:title=" ">
<polygon fill="none" stroke="black" points="474.5,-584.5 474.5,-762.5 621.5,-762.5 621.5,-584.5 474.5,-584.5"/>
<text text-anchor="middle" x="548" y="-750.5" font-family="Helvetica,sans-Serif" font-size="10.00">signal_easel::BitStream</text>
<polyline fill="none" stroke="black" points="474.5,-743.5 621.5,-743.5 "/>
<text text-anchor="middle" x="548" y="-731.5" font-family="Helvetica,sans-Serif" font-size="10.00"> </text>
<polyline fill="none" stroke="black" points="474.5,-724.5 621.5,-724.5 "/>
<text text-anchor="start" x="482.5" y="-712.5" font-family="Helvetica,sans-Serif" font-size="10.00">+ addBits()</text>
<text text-anchor="start" x="482.5" y="-701.5" font-family="Helvetica,sans-Serif" font-size="10.00">+ addOneBit()</text>
<text text-anchor="start" x="482.5" y="-690.5" font-family="Helvetica,sans-Serif" font-size="10.00">+ addZeroBit()</text>
<text text-anchor="start" x="482.5" y="-679.5" font-family="Helvetica,sans-Serif" font-size="10.00">+ dumpBitStream()</text>
<text text-anchor="start" x="482.5" y="-668.5" font-family="Helvetica,sans-Serif" font-size="10.00">+ dumpBitStreamAsAscii()</text>
<text text-anchor="start" x="482.5" y="-657.5" font-family="Helvetica,sans-Serif" font-size="10.00">+ dumpBitStreamAsHex()</text>
<text text-anchor="start" x="482.5" y="-646.5" font-family="Helvetica,sans-Serif" font-size="10.00">+ getBitStreamLength()</text>
<text text-anchor="start" x="482.5" y="-635.5" font-family="Helvetica,sans-Serif" font-size="10.00">+ getBitVector()</text>
<text text-anchor="start" x="482.5" y="-624.5" font-family="Helvetica,sans-Serif" font-size="10.00">+ peakNextBit()</text>
<text text-anchor="start" x="482.5" y="-613.5" font-family="Helvetica,sans-Serif" font-size="10.00">+ peakNextByte()</text>
<text text-anchor="start" x="482.5" y="-602.5" font-family="Helvetica,sans-Serif" font-size="10.00">+ popNextBit()</text>
<text text-anchor="start" x="482.5" y="-591.5" font-family="Helvetica,sans-Serif" font-size="10.00">+ pushBufferToBitStream()</text>
</a>
</g>
</g>
<!-- Node12&#45;&gt;Node2 -->
<g id="edge12" class="edge">
<title>Node12&#45;&gt;Node2</title>
<path fill="none" stroke="#404040" d="M527.2,-584.27C525.49,-574.44 524.03,-564.54 523,-555 518.07,-509.19 517.74,-457.45 518.69,-416.68"/>
<polygon fill="none" stroke="#404040" points="518.69,-416.66 514.85,-410.56 519.01,-404.67 522.85,-410.77 518.69,-416.66"/>
<text text-anchor="middle" x="576" y="-536" font-family="Helvetica,sans-Serif" font-size="10.00"> #output_bit_stream_</text>
</g>
<!-- Node13 -->
<g id="node13" class="node">
<title>Node13</title>
<g id="a_node13"><a xlink:title=" ">
<polygon fill="none" stroke="#bfbfbf" points="586,-887.5 586,-944.5 642,-944.5 642,-887.5 586,-887.5"/>
<text text-anchor="middle" x="614" y="-932.5" font-family="Helvetica,sans-Serif" font-size="10.00">uint32_t</text>
<polyline fill="none" stroke="#bfbfbf" points="586,-925.5 642,-925.5 "/>
<text text-anchor="middle" x="614" y="-913.5" font-family="Helvetica,sans-Serif" font-size="10.00"> </text>
<polyline fill="none" stroke="#bfbfbf" points="586,-906.5 642,-906.5 "/>
<text text-anchor="middle" x="614" y="-894.5" font-family="Helvetica,sans-Serif" font-size="10.00"> </text>
</a>
</g>
</g>
<!-- Node13&#45;&gt;Node12 -->
<g id="edge13" class="edge">
<title>Node13&#45;&gt;Node12</title>
<path fill="none" stroke="#404040" d="M616.28,-887.13C617.55,-861.86 617.45,-823.81 609,-792 607.42,-786.04 605.5,-780.05 603.33,-774.08"/>
<polygon fill="none" stroke="#404040" points="603.24,-773.85 597.33,-769.72 598.87,-762.67 604.78,-766.8 603.24,-773.85"/>
<text text-anchor="middle" x="665.5" y="-828" font-family="Helvetica,sans-Serif" font-size="10.00"> &#45;bit_stream_buffer_</text>
</g>
<!-- Node14 -->
<g id="node14" class="node">
<title>Node14</title>
<g id="a_node14"><a xlink:title=" ">
<polygon fill="none" stroke="#bfbfbf" points="496.5,-887.5 496.5,-944.5 525.5,-944.5 525.5,-887.5 496.5,-887.5"/>
<text text-anchor="middle" x="511" y="-932.5" font-family="Helvetica,sans-Serif" font-size="10.00">int</text>
<polyline fill="none" stroke="#bfbfbf" points="496.5,-925.5 525.5,-925.5 "/>
<text text-anchor="middle" x="511" y="-913.5" font-family="Helvetica,sans-Serif" font-size="10.00"> </text>
<polyline fill="none" stroke="#bfbfbf" points="496.5,-906.5 525.5,-906.5 "/>
<text text-anchor="middle" x="511" y="-894.5" font-family="Helvetica,sans-Serif" font-size="10.00"> </text>
</a>
</g>
</g>
<!-- Node14&#45;&gt;Node12 -->
<g id="edge14" class="edge">
<title>Node14&#45;&gt;Node12</title>
<path fill="none" stroke="#404040" d="M508.97,-887.46C507.65,-862.41 507,-824.5 512,-792 512.88,-786.3 513.97,-780.5 515.22,-774.68"/>
<polygon fill="none" stroke="#404040" points="515.28,-774.41 512.75,-767.66 518,-762.72 520.54,-769.47 515.28,-774.41"/>
<text text-anchor="middle" x="560.5" y="-844.5" font-family="Helvetica,sans-Serif" font-size="10.00"> &#45;bit_stream_index_</text>
<text text-anchor="start" x="512" y="-833.5" font-family="Helvetica,sans-Serif" font-size="10.00">&#45;bit_stream_length</text>
<text text-anchor="middle" x="560.5" y="-822.5" font-family="Helvetica,sans-Serif" font-size="10.00">_</text>
<text text-anchor="middle" x="560.5" y="-811.5" font-family="Helvetica,sans-Serif" font-size="10.00">&#45;bit_stream_offset_</text>
</g>
<!-- Node15 -->
<g id="node15" class="node">
<title>Node15</title>
<g id="a_node15"><a xlink:title=" ">
<polygon fill="none" stroke="#bfbfbf" points="716,-887.5 716,-944.5 826,-944.5 826,-887.5 716,-887.5"/>
<text text-anchor="middle" x="771" y="-932.5" font-family="Helvetica,sans-Serif" font-size="10.00">vector&lt; uint32_t &gt;</text>
<polyline fill="none" stroke="#bfbfbf" points="716,-925.5 826,-925.5 "/>
<text text-anchor="middle" x="771" y="-913.5" font-family="Helvetica,sans-Serif" font-size="10.00"> </text>
<polyline fill="none" stroke="#bfbfbf" points="716,-906.5 826,-906.5 "/>
<text text-anchor="middle" x="771" y="-894.5" font-family="Helvetica,sans-Serif" font-size="10.00"> </text>
</a>
</g>
</g>
<!-- Node15&#45;&gt;Node12 -->
<g id="edge15" class="edge">
<title>Node15&#45;&gt;Node12</title>
<path fill="none" stroke="#404040" d="M760.55,-887.48C747.47,-853.51 725.94,-799.32 719,-792 706.41,-778.73 697.63,-783.49 682,-774 665.28,-763.85 648.07,-752.13 631.78,-740.39"/>
<polygon fill="none" stroke="#404040" points="631.46,-740.16 624.26,-739.85 621.77,-733.08 628.97,-733.39 631.46,-740.16"/>
<text text-anchor="middle" x="784.5" y="-828" font-family="Helvetica,sans-Serif" font-size="10.00"> &#45;bit_stream_</text>
</g>
<!-- Node16 -->
<g id="node16" class="node">
<title>Node16</title>
<g id="a_node16"><a xlink:title=" ">
<polygon fill="none" stroke="#bfbfbf" points="691,-645 691,-702 795,-702 795,-645 691,-645"/>
<text text-anchor="middle" x="743" y="-690" font-family="Helvetica,sans-Serif" font-size="10.00">vector&lt; uint8_t &gt;</text>
<polyline fill="none" stroke="#bfbfbf" points="691,-683 795,-683 "/>
<text text-anchor="middle" x="743" y="-671" font-family="Helvetica,sans-Serif" font-size="10.00"> </text>
<polyline fill="none" stroke="#bfbfbf" points="691,-664 795,-664 "/>
<text text-anchor="middle" x="743" y="-652" font-family="Helvetica,sans-Serif" font-size="10.00"> </text>
</a>
</g>
</g>
<!-- Node16&#45;&gt;Node2 -->
<g id="edge16" class="edge">
<title>Node16&#45;&gt;Node2</title>
<path fill="none" stroke="#404040" d="M720.07,-644.64C701.12,-621.23 673.88,-586.61 652,-555 620.57,-509.6 587.98,-456.7 563.3,-415.22"/>
<polygon fill="none" stroke="#404040" points="563.16,-414.98 556.66,-411.86 557.04,-404.66 563.54,-407.78 563.16,-414.98"/>
<text text-anchor="middle" x="702" y="-536" font-family="Helvetica,sans-Serif" font-size="10.00"> &#45;base_band_signal_</text>
</g>
<!-- Node18 -->
<g id="node18" class="node">
<title>Node18</title>
<g id="a_node18"><a xlink:href="classsignal__easel_1_1ax25_1_1Frame.html" target="_top" xlink:title=" ">
<polygon fill="none" stroke="black" points="911.5,-182.5 911.5,-503.5 1070.5,-503.5 1070.5,-182.5 911.5,-182.5"/>
<text text-anchor="start" x="919.5" y="-491.5" font-family="Helvetica,sans-Serif" font-size="10.00">signal_easel::ax25</text>
<text text-anchor="middle" x="991" y="-480.5" font-family="Helvetica,sans-Serif" font-size="10.00">::Frame</text>
<polyline fill="none" stroke="black" points="911.5,-473.5 1070.5,-473.5 "/>
<text text-anchor="middle" x="991" y="-461.5" font-family="Helvetica,sans-Serif" font-size="10.00"> </text>
<polyline fill="none" stroke="black" points="911.5,-454.5 1070.5,-454.5 "/>
<text text-anchor="start" x="919.5" y="-442.5" font-family="Helvetica,sans-Serif" font-size="10.00">+ Frame()</text>
<text text-anchor="start" x="919.5" y="-431.5" font-family="Helvetica,sans-Serif" font-size="10.00">+ buildFrame()</text>
<text text-anchor="start" x="919.5" y="-420.5" font-family="Helvetica,sans-Serif" font-size="10.00">+ encodeFrame()</text>
<text text-anchor="start" x="919.5" y="-409.5" font-family="Helvetica,sans-Serif" font-size="10.00">+ isFrameValid()</text>
<text text-anchor="start" x="919.5" y="-398.5" font-family="Helvetica,sans-Serif" font-size="10.00">+ parseBitStream()</text>
<text text-anchor="start" x="919.5" y="-387.5" font-family="Helvetica,sans-Serif" font-size="10.00">+ setDestinationAddress()</text>
<text text-anchor="start" x="919.5" y="-376.5" font-family="Helvetica,sans-Serif" font-size="10.00">+ getDestinationAddress()</text>
<text text-anchor="start" x="919.5" y="-365.5" font-family="Helvetica,sans-Serif" font-size="10.00">+ setSourceAddress()</text>
<text text-anchor="start" x="919.5" y="-354.5" font-family="Helvetica,sans-Serif" font-size="10.00">+ getSourceAddress()</text>
<text text-anchor="start" x="919.5" y="-343.5" font-family="Helvetica,sans-Serif" font-size="10.00">+ addRepeaterAddress()</text>
<text text-anchor="start" x="919.5" y="-332.5" font-family="Helvetica,sans-Serif" font-size="10.00">+ getRepeaterAddresses()</text>
<text text-anchor="start" x="919.5" y="-321.5" font-family="Helvetica,sans-Serif" font-size="10.00">+ setInformation()</text>
<text text-anchor="start" x="919.5" y="-310.5" font-family="Helvetica,sans-Serif" font-size="10.00">+ getInformation()</text>
<text text-anchor="start" x="919.5" y="-299.5" font-family="Helvetica,sans-Serif" font-size="10.00">&#45; AddByteForFcs()</text>
<text text-anchor="start" x="919.5" y="-288.5" font-family="Helvetica,sans-Serif" font-size="10.00">&#45; addToBuildBuffer()</text>
<text text-anchor="start" x="919.5" y="-277.5" font-family="Helvetica,sans-Serif" font-size="10.00">&#45; calculateFcsOnBuildBuffer()</text>
<text text-anchor="start" x="919.5" y="-266.5" font-family="Helvetica,sans-Serif" font-size="10.00">* setDestinationAddress()</text>
<text text-anchor="start" x="919.5" y="-255.5" font-family="Helvetica,sans-Serif" font-size="10.00">* getDestinationAddress()</text>
<text text-anchor="start" x="919.5" y="-244.5" font-family="Helvetica,sans-Serif" font-size="10.00">* setSourceAddress()</text>
<text text-anchor="start" x="919.5" y="-233.5" font-family="Helvetica,sans-Serif" font-size="10.00">* getSourceAddress()</text>
<text text-anchor="start" x="919.5" y="-222.5" font-family="Helvetica,sans-Serif" font-size="10.00">* addRepeaterAddress()</text>
<text text-anchor="start" x="919.5" y="-211.5" font-family="Helvetica,sans-Serif" font-size="10.00">* getRepeaterAddresses()</text>
<text text-anchor="start" x="919.5" y="-200.5" font-family="Helvetica,sans-Serif" font-size="10.00">* setInformation()</text>
<text text-anchor="start" x="919.5" y="-189.5" font-family="Helvetica,sans-Serif" font-size="10.00">* getInformation()</text>
</a>
</g>
</g>
<!-- Node16&#45;&gt;Node18 -->
<g id="edge26" class="edge">
<title>Node16&#45;&gt;Node18</title>
<path fill="none" stroke="#404040" d="M749.71,-644.88C759.48,-610.71 780.98,-553.23 821,-522 848.37,-500.65 869.08,-524.62 897,-504 898.74,-502.72 900.45,-501.39 902.13,-500.03"/>
<polygon fill="none" stroke="#404040" points="902.48,-499.72 904.34,-492.76 911.49,-491.8 909.63,-498.77 902.48,-499.72"/>
<text text-anchor="middle" x="856" y="-541.5" font-family="Helvetica,sans-Serif" font-size="10.00"> &#45;build_buffer_</text>
<text text-anchor="middle" x="856" y="-530.5" font-family="Helvetica,sans-Serif" font-size="10.00">&#45;information_</text>
</g>
<!-- Node17 -->
<g id="node17" class="node">
<title>Node17</title>
<g id="a_node17"><a xlink:title=" ">
<polygon fill="none" stroke="#bfbfbf" points="839.5,-645 839.5,-702 878.5,-702 878.5,-645 839.5,-645"/>
<text text-anchor="middle" x="859" y="-690" font-family="Helvetica,sans-Serif" font-size="10.00">Type</text>
<polyline fill="none" stroke="#bfbfbf" points="839.5,-683 878.5,-683 "/>
<text text-anchor="middle" x="859" y="-671" font-family="Helvetica,sans-Serif" font-size="10.00"> </text>
<polyline fill="none" stroke="#bfbfbf" points="839.5,-664 878.5,-664 "/>
<text text-anchor="middle" x="859" y="-652" font-family="Helvetica,sans-Serif" font-size="10.00"> </text>
</a>
</g>
</g>
<!-- Node17&#45;&gt;Node1 -->
<g id="edge17" class="edge">
<title>Node17&#45;&gt;Node1</title>
<path fill="none" stroke="#404040" d="M859,-644.98C859,-557.42 859,-283.07 859,-146.85"/>
<polygon fill="none" stroke="#404040" points="859,-146.5 855,-140.5 859,-134.5 863,-140.5 859,-146.5"/>
<text text-anchor="middle" x="876" y="-340.5" font-family="Helvetica,sans-Serif" font-size="10.00"> &#45;type_</text>
</g>
<!-- Node17&#45;&gt;Node18 -->
<g id="edge24" class="edge">
<title>Node17&#45;&gt;Node18</title>
<path fill="none" stroke="#404040" d="M865.99,-644.71C871.32,-624.57 879.23,-596.8 888,-573 895.03,-553.93 902.91,-534.22 911.1,-514.72"/>
<polygon fill="none" stroke="#404040" points="911.14,-514.65 909.8,-507.56 915.82,-503.6 917.16,-510.69 911.14,-514.65"/>
<text text-anchor="middle" x="922" y="-536" font-family="Helvetica,sans-Serif" font-size="10.00"> &#45;type_</text>
</g>
<!-- Node18&#45;&gt;Node1 -->
<g id="edge18" class="edge">
<title>Node18&#45;&gt;Node1</title>
<path fill="none" stroke="#404040" d="M913.83,-182.11C907.76,-169.53 901.82,-157.22 896.22,-145.62"/>
<polygon fill="none" stroke="#404040" points="896.18,-145.54 889.97,-141.88 890.97,-134.74 897.18,-138.4 896.18,-145.54"/>
<text text-anchor="middle" x="922" y="-156" font-family="Helvetica,sans-Serif" font-size="10.00"> &#45;frame_</text>
</g>
<!-- Node19 -->
<g id="node19" class="node">
<title>Node19</title>
<g id="a_node19"><a xlink:title=" ">
<polygon fill="none" stroke="#bfbfbf" points="1293,-645 1293,-702 1349,-702 1349,-645 1293,-645"/>
<text text-anchor="middle" x="1321" y="-690" font-family="Helvetica,sans-Serif" font-size="10.00">uint16_t</text>
<polyline fill="none" stroke="#bfbfbf" points="1293,-683 1349,-683 "/>
<text text-anchor="middle" x="1321" y="-671" font-family="Helvetica,sans-Serif" font-size="10.00"> </text>
<polyline fill="none" stroke="#bfbfbf" points="1293,-664 1349,-664 "/>
<text text-anchor="middle" x="1321" y="-652" font-family="Helvetica,sans-Serif" font-size="10.00"> </text>
</a>
</g>
</g>
<!-- Node19&#45;&gt;Node18 -->
<g id="edge19" class="edge">
<title>Node19&#45;&gt;Node18</title>
<path fill="none" stroke="#404040" d="M1311.47,-644.74C1299.37,-612.48 1276.03,-558.99 1243,-522 1196.85,-470.33 1133.01,-425.43 1081.13,-393.66"/>
<polygon fill="none" stroke="#404040" points="1080.86,-393.49 1073.65,-393.81 1070.59,-387.28 1077.8,-386.96 1080.86,-393.49"/>
<text text-anchor="middle" x="1278.5" y="-536" font-family="Helvetica,sans-Serif" font-size="10.00"> &#45;fcs_</text>
</g>
<!-- Node20&#45;&gt;Node18 -->
<g id="edge20" class="edge">
<title>Node20&#45;&gt;Node18</title>
<path fill="none" stroke="#404040" d="M976.1,-573.45C976.06,-567.21 976.03,-561.02 976,-555 975.94,-540.33 975.38,-536.65 976,-522 976.09,-519.92 976.18,-517.83 976.28,-515.73"/>
<polygon fill="none" stroke="#404040" points="976.29,-515.57 972.6,-509.38 976.9,-503.59 980.59,-509.79 976.29,-515.57"/>
<text text-anchor="start" x="976" y="-547" font-family="Helvetica,sans-Serif" font-size="10.00"> &#45;destination_address</text>
<text text-anchor="middle" x="1029" y="-536" font-family="Helvetica,sans-Serif" font-size="10.00">_</text>
<text text-anchor="middle" x="1029" y="-525" font-family="Helvetica,sans-Serif" font-size="10.00">&#45;source_address_</text>
</g>
<!-- Node21 -->
<g id="node21" class="node">
<title>Node21</title>
<g id="a_node21"><a xlink:title=" ">
<polygon fill="none" stroke="#bfbfbf" points="1079,-887.5 1079,-944.5 1129,-944.5 1129,-887.5 1079,-887.5"/>
<text text-anchor="middle" x="1104" y="-932.5" font-family="Helvetica,sans-Serif" font-size="10.00">uint8_t</text>
<polyline fill="none" stroke="#bfbfbf" points="1079,-925.5 1129,-925.5 "/>
<text text-anchor="middle" x="1104" y="-913.5" font-family="Helvetica,sans-Serif" font-size="10.00"> </text>
<polyline fill="none" stroke="#bfbfbf" points="1079,-906.5 1129,-906.5 "/>
<text text-anchor="middle" x="1104" y="-894.5" font-family="Helvetica,sans-Serif" font-size="10.00"> </text>
</a>
</g>
</g>
<!-- Node21&#45;&gt;Node18 -->
<g id="edge25" class="edge">
<title>Node21&#45;&gt;Node18</title>
<path fill="none" stroke="#404040" d="M1103.94,-887.37C1103.52,-809.78 1100.67,-591.01 1082,-522 1079.91,-514.29 1077.47,-506.53 1074.74,-498.79"/>
<polygon fill="none" stroke="#404040" points="1074.72,-498.72 1068.89,-494.48 1070.56,-487.47 1076.39,-491.71 1074.72,-498.72"/>
<text text-anchor="middle" x="1116" y="-671" font-family="Helvetica,sans-Serif" font-size="10.00"> &#45;pid_</text>
</g>
<!-- Node21&#45;&gt;Node20 -->
<g id="edge22" class="edge">
<title>Node21&#45;&gt;Node20</title>
<path fill="none" stroke="#404040" d="M1078.94,-898C1068.85,-890.14 1057.78,-880.09 1050,-869 1032.34,-843.85 1018.35,-813.9 1007.55,-785.13"/>
<polygon fill="none" stroke="#404040" points="1007.51,-785.03 1001.7,-780.76 1003.41,-773.75 1009.22,-778.02 1007.51,-785.03"/>
<text text-anchor="middle" x="1066" y="-828" font-family="Helvetica,sans-Serif" font-size="10.00"> &#45;ssid_</text>
</g>
<!-- Node22 -->
<g id="node22" class="node">
<title>Node22</title>
<g id="a_node22"><a xlink:title=" ">
<polygon fill="none" stroke="#bfbfbf" points="1142.5,-639.5 1142.5,-707.5 1261.5,-707.5 1261.5,-639.5 1142.5,-639.5"/>
<text text-anchor="start" x="1150.5" y="-695.5" font-family="Helvetica,sans-Serif" font-size="10.00">vector&lt; signal_easel</text>
<text text-anchor="middle" x="1202" y="-684.5" font-family="Helvetica,sans-Serif" font-size="10.00">::ax25::Address &gt;</text>
<polyline fill="none" stroke="#bfbfbf" points="1142.5,-677.5 1261.5,-677.5 "/>
<text text-anchor="middle" x="1202" y="-665.5" font-family="Helvetica,sans-Serif" font-size="10.00"> </text>
<polyline fill="none" stroke="#bfbfbf" points="1142.5,-658.5 1261.5,-658.5 "/>
<text text-anchor="middle" x="1202" y="-646.5" font-family="Helvetica,sans-Serif" font-size="10.00"> </text>
</a>
</g>
</g>
<!-- Node22&#45;&gt;Node18 -->
<g id="edge27" class="edge">
<title>Node22&#45;&gt;Node18</title>
<path fill="none" stroke="#404040" d="M1182.28,-639.38C1163.91,-608.73 1135.57,-561.99 1110,-522 1099.63,-505.79 1088.6,-488.86 1077.58,-472.16"/>
<polygon fill="none" stroke="#404040" points="1077.35,-471.81 1070.7,-469.02 1070.73,-461.81 1077.38,-464.6 1077.35,-471.81"/>
<text text-anchor="middle" x="1184.5" y="-536" font-family="Helvetica,sans-Serif" font-size="10.00"> &#45;repeater_addresses_</text>
</g>
</g>
</svg>
