<?xml version="1.0" encoding="UTF-8" standalone="no"?>
<!DOCTYPE svg PUBLIC "-//W3C//DTD SVG 1.1//EN"
 "http://www.w3.org/Graphics/SVG/1.1/DTD/svg11.dtd">
<!-- Generated by graphviz version 2.43.0 (0)
 -->
<!-- Title: signal_easel::ax25::Frame::setDestinationAddress Pages: 1 -->
<svg width="826pt" height="247pt"
 viewBox="0.00 0.00 826.00 247.00" xmlns="http://www.w3.org/2000/svg" xmlns:xlink="http://www.w3.org/1999/xlink">
<g id="graph0" class="graph" transform="scale(1 1) rotate(0) translate(4 243)">
<title>signal_easel::ax25::Frame::setDestinationAddress</title>
<!-- Node1 -->
<g id="node1" class="node">
<title>Node1</title>
<g id="a_node1"><a xlink:title="setters/getters for the frame.">
<polygon fill="#bfbfbf" stroke="black" points="648,-52.5 648,-82.5 818,-82.5 818,-52.5 648,-52.5"/>
<text text-anchor="start" x="656" y="-70.5" font-family="Helvetica,sans-Serif" font-size="10.00">signal_easel::ax25</text>
<text text-anchor="middle" x="733" y="-59.5" font-family="Helvetica,sans-Serif" font-size="10.00">::Frame::setDestinationAddress</text>
</a>
</g>
</g>
<!-- Node2 -->
<g id="node2" class="node">
<title>Node2</title>
<g id="a_node2"><a xlink:href="namespacesignal__easel_1_1aprs.html#a586b022fa0c917fa8557bbd5cdc6aeeb" target="_top" xlink:title=" ">
<polygon fill="none" stroke="black" points="488,-117.5 488,-147.5 601,-147.5 601,-117.5 488,-117.5"/>
<text text-anchor="start" x="496" y="-135.5" font-family="Helvetica,sans-Serif" font-size="10.00">signal_easel::aprs</text>
<text text-anchor="middle" x="544.5" y="-124.5" font-family="Helvetica,sans-Serif" font-size="10.00">::AddRequiredFields</text>
</a>
</g>
</g>
<!-- Node1&#45;&gt;Node2 -->
<g id="edge1" class="edge">
<title>Node1&#45;&gt;Node2</title>
<path fill="none" stroke="midnightblue" d="M678.94,-85.99C650.43,-95.93 615.72,-108.03 588.84,-117.39"/>
<polygon fill="midnightblue" stroke="midnightblue" points="680.45,-89.17 688.74,-82.58 678.15,-82.56 680.45,-89.17"/>
</g>
<!-- Node8 -->
<g id="node8" class="node">
<title>Node8</title>
<g id="a_node8"><a xlink:href="classsignal__easel_1_1ax25_1_1Frame.html#a63cf2362c2a90d20f09bbbc4f24a07ba" target="_top" xlink:title="Attempt to parse an incoming bit stream into an AX.25 frame.">
<polygon fill="none" stroke="black" points="477,-52.5 477,-82.5 612,-82.5 612,-52.5 477,-52.5"/>
<text text-anchor="start" x="485" y="-70.5" font-family="Helvetica,sans-Serif" font-size="10.00">signal_easel::ax25</text>
<text text-anchor="middle" x="544.5" y="-59.5" font-family="Helvetica,sans-Serif" font-size="10.00">::Frame::parseBitStream</text>
</a>
</g>
</g>
<!-- Node1&#45;&gt;Node8 -->
<g id="edge7" class="edge">
<title>Node1&#45;&gt;Node8</title>
<path fill="none" stroke="midnightblue" d="M637.62,-67.5C628.99,-67.5 620.36,-67.5 612.04,-67.5"/>
<polygon fill="midnightblue" stroke="midnightblue" points="637.75,-71 647.75,-67.5 637.75,-64 637.75,-71"/>
</g>
<!-- Node11 -->
<g id="node11" class="node">
<title>Node11</title>
<g id="a_node11"><a xlink:href="ax25__frame__test_8cpp.html#a091d83d42783f2a0b3fd33a0521dc2ce" target="_top" xlink:title=" ">
<polygon fill="none" stroke="black" points="524,-14 524,-33 565,-33 565,-14 524,-14"/>
<text text-anchor="middle" x="544.5" y="-21" font-family="Helvetica,sans-Serif" font-size="10.00">TEST</text>
</a>
</g>
</g>
<!-- Node1&#45;&gt;Node11 -->
<g id="edge11" class="edge">
<title>Node1&#45;&gt;Node11</title>
<path fill="none" stroke="midnightblue" d="M658.47,-50.15C624.73,-42.19 587.38,-33.38 565.2,-28.15"/>
<polygon fill="midnightblue" stroke="midnightblue" points="657.8,-53.59 668.34,-52.48 659.41,-46.78 657.8,-53.59"/>
</g>
<!-- Node3 -->
<g id="node3" class="node">
<title>Node3</title>
<g id="a_node3"><a xlink:href="namespacesignal__easel_1_1aprs.html#a77481001a5b78a839972bb4220b43e4d" target="_top" xlink:title=" ">
<polygon fill="none" stroke="black" points="312.5,-126.5 312.5,-156.5 416.5,-156.5 416.5,-126.5 312.5,-126.5"/>
<text text-anchor="start" x="320.5" y="-144.5" font-family="Helvetica,sans-Serif" font-size="10.00">signal_easel::aprs</text>
<text text-anchor="middle" x="364.5" y="-133.5" font-family="Helvetica,sans-Serif" font-size="10.00">::encodePacket</text>
</a>
</g>
</g>
<!-- Node2&#45;&gt;Node3 -->
<g id="edge2" class="edge">
<title>Node2&#45;&gt;Node3</title>
<path fill="none" stroke="midnightblue" d="M477.62,-135.83C457.47,-136.85 435.61,-137.95 416.6,-138.92"/>
<polygon fill="midnightblue" stroke="midnightblue" points="477.86,-139.32 487.67,-135.32 477.5,-132.33 477.86,-139.32"/>
</g>
<!-- Node4 -->
<g id="node4" class="node">
<title>Node4</title>
<g id="a_node4"><a xlink:href="classsignal__easel_1_1aprs_1_1Modulator.html#adfa8809d1c11321b9ff2c7efe7f58499" target="_top" xlink:title=" ">
<polygon fill="none" stroke="black" points="77,-208.5 77,-238.5 252,-238.5 252,-208.5 77,-208.5"/>
<text text-anchor="start" x="85" y="-226.5" font-family="Helvetica,sans-Serif" font-size="10.00">signal_easel::aprs</text>
<text text-anchor="middle" x="164.5" y="-215.5" font-family="Helvetica,sans-Serif" font-size="10.00">::Modulator::encodeMessageAck</text>
</a>
</g>
</g>
<!-- Node3&#45;&gt;Node4 -->
<g id="edge3" class="edge">
<title>Node3&#45;&gt;Node4</title>
<path fill="none" stroke="midnightblue" d="M328.77,-161.43C307.17,-173.28 278.53,-188 252,-198.5 242.84,-202.13 232.95,-205.48 223.25,-208.48"/>
<polygon fill="midnightblue" stroke="midnightblue" points="330.53,-164.46 337.58,-156.55 327.13,-158.34 330.53,-164.46"/>
</g>
<!-- Node5 -->
<g id="node5" class="node">
<title>Node5</title>
<g id="a_node5"><a xlink:href="classsignal__easel_1_1aprs_1_1Modulator.html#a147321b48c2e282c62863f114702e54f" target="_top" xlink:title=" ">
<polygon fill="none" stroke="black" points="86,-148 86,-189 243,-189 243,-148 86,-148"/>
<text text-anchor="start" x="94" y="-177" font-family="Helvetica,sans-Serif" font-size="10.00">signal_easel::aprs</text>
<text text-anchor="start" x="94" y="-166" font-family="Helvetica,sans-Serif" font-size="10.00">::Modulator::encodeMessage</text>
<text text-anchor="middle" x="164.5" y="-155" font-family="Helvetica,sans-Serif" font-size="10.00">Packet</text>
</a>
</g>
</g>
<!-- Node3&#45;&gt;Node5 -->
<g id="edge4" class="edge">
<title>Node3&#45;&gt;Node5</title>
<path fill="none" stroke="midnightblue" d="M302.11,-149.87C283.43,-152.42 262.66,-155.25 243.06,-157.92"/>
<polygon fill="midnightblue" stroke="midnightblue" points="302.82,-153.31 312.25,-148.49 301.87,-146.37 302.82,-153.31"/>
</g>
<!-- Node7 -->
<g id="node7" class="node">
<title>Node7</title>
<g id="a_node7"><a xlink:href="classsignal__easel_1_1aprs_1_1Modulator.html#a943e392227656943d7db842e1889d805" target="_top" xlink:title=" ">
<polygon fill="none" stroke="black" points="88.5,-88 88.5,-129 240.5,-129 240.5,-88 88.5,-88"/>
<text text-anchor="start" x="96.5" y="-117" font-family="Helvetica,sans-Serif" font-size="10.00">signal_easel::aprs</text>
<text text-anchor="start" x="96.5" y="-106" font-family="Helvetica,sans-Serif" font-size="10.00">::Modulator::encodePosition</text>
<text text-anchor="middle" x="164.5" y="-95" font-family="Helvetica,sans-Serif" font-size="10.00">Packet</text>
</a>
</g>
</g>
<!-- Node3&#45;&gt;Node7 -->
<g id="edge6" class="edge">
<title>Node3&#45;&gt;Node7</title>
<path fill="none" stroke="midnightblue" d="M302.31,-131.3C282.86,-128.06 261.12,-124.44 240.79,-121.05"/>
<polygon fill="midnightblue" stroke="midnightblue" points="301.81,-134.77 312.25,-132.96 302.96,-127.86 301.81,-134.77"/>
</g>
<!-- Node6 -->
<g id="node6" class="node">
<title>Node6</title>
<g id="a_node6"><a xlink:href="aprs__test_8cpp.html#aea66d1824e3f1e27598adf99ac6a089a" target="_top" xlink:title=" ">
<polygon fill="none" stroke="black" points="0,-104 0,-123 41,-123 41,-104 0,-104"/>
<text text-anchor="middle" x="20.5" y="-111" font-family="Helvetica,sans-Serif" font-size="10.00">TEST</text>
</a>
</g>
</g>
<!-- Node5&#45;&gt;Node6 -->
<g id="edge5" class="edge">
<title>Node5&#45;&gt;Node6</title>
<path fill="none" stroke="midnightblue" d="M92.39,-144.41C87.16,-142.46 81.98,-140.48 77,-138.5 64.92,-133.7 51.64,-127.74 41.09,-122.84"/>
<polygon fill="midnightblue" stroke="midnightblue" points="91.23,-147.71 101.82,-147.87 93.63,-141.14 91.23,-147.71"/>
</g>
<!-- Node9 -->
<g id="node9" class="node">
<title>Node9</title>
<g id="a_node9"><a xlink:href="classsignal__easel_1_1aprs_1_1Demodulator.html#ae5a8e7634c1bc8d215a0c454a9a737fa" target="_top" xlink:title=" ">
<polygon fill="none" stroke="black" points="288,-39 288,-80 441,-80 441,-39 288,-39"/>
<text text-anchor="start" x="296" y="-68" font-family="Helvetica,sans-Serif" font-size="10.00">signal_easel::aprs</text>
<text text-anchor="start" x="296" y="-57" font-family="Helvetica,sans-Serif" font-size="10.00">::Demodulator::lookForAx25</text>
<text text-anchor="middle" x="364.5" y="-46" font-family="Helvetica,sans-Serif" font-size="10.00">Packet</text>
</a>
</g>
</g>
<!-- Node8&#45;&gt;Node9 -->
<g id="edge8" class="edge">
<title>Node8&#45;&gt;Node9</title>
<path fill="none" stroke="midnightblue" d="M466.74,-64.05C458.29,-63.67 449.68,-63.28 441.23,-62.9"/>
<polygon fill="midnightblue" stroke="midnightblue" points="466.82,-67.56 476.97,-64.51 467.13,-60.56 466.82,-67.56"/>
</g>
<!-- Node9&#45;&gt;Node6 -->
<g id="edge10" class="edge">
<title>Node9&#45;&gt;Node6</title>
<path fill="none" stroke="midnightblue" d="M277.76,-54.31C219.72,-53.41 142.07,-57.34 77,-78.5 60.32,-83.93 43.62,-95.49 32.97,-103.84"/>
<polygon fill="midnightblue" stroke="midnightblue" points="277.93,-57.82 288,-54.53 278.07,-50.82 277.93,-57.82"/>
</g>
<!-- Node10 -->
<g id="node10" class="node">
<title>Node10</title>
<g id="a_node10"><a xlink:href="classsignal__easel_1_1aprs_1_1Receiver.html#afbf7869aceaf2ea7ab0be8b9af16e818" target="_top" xlink:title=" ">
<polygon fill="none" stroke="black" points="111,-0.5 111,-30.5 218,-30.5 218,-0.5 111,-0.5"/>
<text text-anchor="start" x="119" y="-18.5" font-family="Helvetica,sans-Serif" font-size="10.00">signal_easel::aprs</text>
<text text-anchor="middle" x="164.5" y="-7.5" font-family="Helvetica,sans-Serif" font-size="10.00">::Receiver::decode</text>
</a>
</g>
</g>
<!-- Node9&#45;&gt;Node10 -->
<g id="edge9" class="edge">
<title>Node9&#45;&gt;Node10</title>
<path fill="none" stroke="midnightblue" d="M277.89,-40.48C257.57,-35.96 236.47,-31.27 218.12,-27.19"/>
<polygon fill="midnightblue" stroke="midnightblue" points="277.28,-43.92 287.8,-42.68 278.79,-37.09 277.28,-43.92"/>
</g>
</g>
</svg>
