<?xml version="1.0" encoding="UTF-8" standalone="no"?>
<!DOCTYPE svg PUBLIC "-//W3C//DTD SVG 1.1//EN"
 "http://www.w3.org/Graphics/SVG/1.1/DTD/svg11.dtd">
<!-- Generated by graphviz version 2.43.0 (0)
 -->
<!-- Title: signal_easel::BitStream::getBitStreamLength Pages: 1 -->
<svg width="970pt" height="268pt"
 viewBox="0.00 0.00 970.00 268.00" xmlns="http://www.w3.org/2000/svg" xmlns:xlink="http://www.w3.org/1999/xlink">
<g id="graph0" class="graph" transform="scale(1 1) rotate(0) translate(4 264)">
<title>signal_easel::BitStream::getBitStreamLength</title>
<!-- Node1 -->
<g id="node1" class="node">
<title>Node1</title>
<g id="a_node1"><a xlink:title=" ">
<polygon fill="#bfbfbf" stroke="black" points="830,-124.5 830,-154.5 962,-154.5 962,-124.5 830,-124.5"/>
<text text-anchor="start" x="838" y="-142.5" font-family="Helvetica,sans-Serif" font-size="10.00">signal_easel::BitStream</text>
<text text-anchor="middle" x="896" y="-131.5" font-family="Helvetica,sans-Serif" font-size="10.00">::getBitStreamLength</text>
</a>
</g>
</g>
<!-- Node2 -->
<g id="node2" class="node">
<title>Node2</title>
<g id="a_node2"><a xlink:href="classsignal__easel_1_1psk_1_1Modulator.html#ad465eb5c136ada635cd01cdceb1dc402" target="_top" xlink:title=" ">
<polygon fill="none" stroke="black" points="652,-229.5 652,-259.5 794,-259.5 794,-229.5 652,-229.5"/>
<text text-anchor="start" x="660" y="-247.5" font-family="Helvetica,sans-Serif" font-size="10.00">signal_easel::psk::</text>
<text text-anchor="middle" x="723" y="-236.5" font-family="Helvetica,sans-Serif" font-size="10.00">Modulator::addPostamble</text>
</a>
</g>
</g>
<!-- Node1&#45;&gt;Node2 -->
<g id="edge1" class="edge">
<title>Node1&#45;&gt;Node2</title>
<path fill="none" stroke="midnightblue" d="M869.37,-161.17C849.62,-177.2 821.17,-198.88 794,-214.5 784.49,-219.97 773.78,-225.05 763.66,-229.41"/>
<polygon fill="midnightblue" stroke="midnightblue" points="871.77,-163.73 877.27,-154.68 867.32,-158.32 871.77,-163.73"/>
</g>
<!-- Node5 -->
<g id="node5" class="node">
<title>Node5</title>
<g id="a_node5"><a xlink:href="classsignal__easel_1_1aprs_1_1Receiver.html#afbf7869aceaf2ea7ab0be8b9af16e818" target="_top" xlink:title=" ">
<polygon fill="none" stroke="black" points="100,-147.5 100,-177.5 207,-177.5 207,-147.5 100,-147.5"/>
<text text-anchor="start" x="108" y="-165.5" font-family="Helvetica,sans-Serif" font-size="10.00">signal_easel::aprs</text>
<text text-anchor="middle" x="153.5" y="-154.5" font-family="Helvetica,sans-Serif" font-size="10.00">::Receiver::decode</text>
</a>
</g>
</g>
<!-- Node1&#45;&gt;Node5 -->
<g id="edge4" class="edge">
<title>Node1&#45;&gt;Node5</title>
<path fill="none" stroke="midnightblue" d="M820.73,-156.58C811.75,-158.38 802.68,-160.07 794,-161.5 562.39,-199.63 500.15,-190.02 266,-173.5 246.79,-172.14 225.76,-170.19 207.2,-168.31"/>
<polygon fill="midnightblue" stroke="midnightblue" points="821.71,-159.95 830.8,-154.52 820.3,-153.1 821.71,-159.95"/>
</g>
<!-- Node6 -->
<g id="node6" class="node">
<title>Node6</title>
<g id="a_node6"><a xlink:href="namespacesignal__easel_1_1ax25.html#a84e1d1bf82ef828a150bc94cf065e396" target="_top" xlink:title="Convert a bit stream from NRZI to standard encoding.">
<polygon fill="none" stroke="black" points="481.5,-141.5 481.5,-171.5 588.5,-171.5 588.5,-141.5 481.5,-141.5"/>
<text text-anchor="start" x="489.5" y="-159.5" font-family="Helvetica,sans-Serif" font-size="10.00">signal_easel::ax25</text>
<text text-anchor="middle" x="535" y="-148.5" font-family="Helvetica,sans-Serif" font-size="10.00">::decodeNrzi</text>
</a>
</g>
</g>
<!-- Node1&#45;&gt;Node6 -->
<g id="edge5" class="edge">
<title>Node1&#45;&gt;Node6</title>
<path fill="none" stroke="midnightblue" d="M819.58,-143.07C750.32,-146.35 649.48,-151.13 588.57,-154.01"/>
<polygon fill="midnightblue" stroke="midnightblue" points="820.16,-146.55 829.99,-142.58 819.83,-139.56 820.16,-146.55"/>
</g>
<!-- Node10 -->
<g id="node10" class="node">
<title>Node10</title>
<g id="a_node10"><a xlink:href="namespacesignal__easel_1_1ax25.html#aa3ad759477950552b79497f19c77ba0b" target="_top" xlink:title=" ">
<polygon fill="none" stroke="black" points="669.5,-53.5 669.5,-83.5 776.5,-83.5 776.5,-53.5 669.5,-53.5"/>
<text text-anchor="start" x="677.5" y="-71.5" font-family="Helvetica,sans-Serif" font-size="10.00">signal_easel::ax25</text>
<text text-anchor="middle" x="723" y="-60.5" font-family="Helvetica,sans-Serif" font-size="10.00">::deStuffBytes</text>
</a>
</g>
</g>
<!-- Node1&#45;&gt;Node10 -->
<g id="edge10" class="edge">
<title>Node1&#45;&gt;Node10</title>
<path fill="none" stroke="midnightblue" d="M854.26,-120C835.99,-111.5 814.07,-101.64 794,-93.5 785.63,-90.11 776.6,-86.7 767.9,-83.54"/>
<polygon fill="midnightblue" stroke="midnightblue" points="852.92,-123.23 863.46,-124.3 855.88,-116.89 852.92,-123.23"/>
</g>
<!-- Node13 -->
<g id="node13" class="node">
<title>Node13</title>
<g id="a_node13"><a xlink:href="classsignal__easel_1_1ax25_1_1Frame.html#a2b4f6ebcb7592a7e5a21114c8fafa503" target="_top" xlink:title="A step beyond buildFrame. This function builds the frame, does the bit stuffing, adds the flags,...">
<polygon fill="none" stroke="black" points="660.5,-1.5 660.5,-31.5 785.5,-31.5 785.5,-1.5 660.5,-1.5"/>
<text text-anchor="start" x="668.5" y="-19.5" font-family="Helvetica,sans-Serif" font-size="10.00">signal_easel::ax25</text>
<text text-anchor="middle" x="723" y="-8.5" font-family="Helvetica,sans-Serif" font-size="10.00">::Frame::encodeFrame</text>
</a>
</g>
</g>
<!-- Node1&#45;&gt;Node13 -->
<g id="edge15" class="edge">
<title>Node1&#45;&gt;Node13</title>
<path fill="none" stroke="midnightblue" d="M875.75,-116.62C856.79,-95.29 826.09,-63.8 794,-43.5 786.85,-38.97 778.81,-35 770.8,-31.6"/>
<polygon fill="midnightblue" stroke="midnightblue" points="873.2,-119.03 882.42,-124.26 878.48,-114.42 873.2,-119.03"/>
</g>
<!-- Node16 -->
<g id="node16" class="node">
<title>Node16</title>
<g id="a_node16"><a xlink:href="namespacesignal__easel_1_1ax25.html#aedc3a21287bb20d2f0b01c9a2d6797f3" target="_top" xlink:title="Finds the start flags in the bit stream and removes them.">
<polygon fill="none" stroke="black" points="669.5,-102.5 669.5,-132.5 776.5,-132.5 776.5,-102.5 669.5,-102.5"/>
<text text-anchor="start" x="677.5" y="-120.5" font-family="Helvetica,sans-Serif" font-size="10.00">signal_easel::ax25</text>
<text text-anchor="middle" x="723" y="-109.5" font-family="Helvetica,sans-Serif" font-size="10.00">::findStartFlags</text>
</a>
</g>
</g>
<!-- Node1&#45;&gt;Node16 -->
<g id="edge19" class="edge">
<title>Node1&#45;&gt;Node16</title>
<path fill="none" stroke="midnightblue" d="M819.88,-129.84C805.34,-127.96 790.39,-126.04 776.75,-124.29"/>
<polygon fill="midnightblue" stroke="midnightblue" points="819.5,-133.32 829.86,-131.12 820.39,-126.37 819.5,-133.32"/>
</g>
<!-- Node3 -->
<g id="node3" class="node">
<title>Node3</title>
<g id="a_node3"><a xlink:href="classsignal__easel_1_1psk_1_1Modulator.html#acd4a6a5bac7af1c62ffaaa0ff1d9259f" target="_top" xlink:title=" ">
<polygon fill="none" stroke="black" points="467,-229.5 467,-259.5 603,-259.5 603,-229.5 467,-229.5"/>
<text text-anchor="start" x="475" y="-247.5" font-family="Helvetica,sans-Serif" font-size="10.00">signal_easel::psk::</text>
<text text-anchor="middle" x="535" y="-236.5" font-family="Helvetica,sans-Serif" font-size="10.00">Modulator::encodeString</text>
</a>
</g>
</g>
<!-- Node2&#45;&gt;Node3 -->
<g id="edge2" class="edge">
<title>Node2&#45;&gt;Node3</title>
<path fill="none" stroke="midnightblue" d="M641.74,-244.5C628.89,-244.5 615.72,-244.5 603.22,-244.5"/>
<polygon fill="midnightblue" stroke="midnightblue" points="641.95,-248 651.95,-244.5 641.95,-241 641.95,-248"/>
</g>
<!-- Node4 -->
<g id="node4" class="node">
<title>Node4</title>
<g id="a_node4"><a xlink:href="psk__test_8cpp.html#adc7973e853ae04677ba78e84bda93987" target="_top" xlink:title=" ">
<polygon fill="none" stroke="black" points="321.5,-235 321.5,-254 362.5,-254 362.5,-235 321.5,-235"/>
<text text-anchor="middle" x="342" y="-242" font-family="Helvetica,sans-Serif" font-size="10.00">TEST</text>
</a>
</g>
</g>
<!-- Node3&#45;&gt;Node4 -->
<g id="edge3" class="edge">
<title>Node3&#45;&gt;Node4</title>
<path fill="none" stroke="midnightblue" d="M456.89,-244.5C422.6,-244.5 385.02,-244.5 362.76,-244.5"/>
<polygon fill="midnightblue" stroke="midnightblue" points="456.93,-248 466.93,-244.5 456.93,-241 456.93,-248"/>
</g>
<!-- Node6&#45;&gt;Node5 -->
<g id="edge6" class="edge">
<title>Node6&#45;&gt;Node5</title>
<path fill="none" stroke="midnightblue" d="M471.14,-157.49C397.32,-158.66 276.2,-160.58 207.12,-161.67"/>
<polygon fill="midnightblue" stroke="midnightblue" points="471.29,-160.99 481.23,-157.33 471.18,-153.99 471.29,-160.99"/>
</g>
<!-- Node7 -->
<g id="node7" class="node">
<title>Node7</title>
<g id="a_node7"><a xlink:href="classsignal__easel_1_1ax25_1_1Frame.html#a63cf2362c2a90d20f09bbbc4f24a07ba" target="_top" xlink:title="Attempt to parse an incoming bit stream into an AX.25 frame.">
<polygon fill="none" stroke="black" points="274.5,-103.5 274.5,-133.5 409.5,-133.5 409.5,-103.5 274.5,-103.5"/>
<text text-anchor="start" x="282.5" y="-121.5" font-family="Helvetica,sans-Serif" font-size="10.00">signal_easel::ax25</text>
<text text-anchor="middle" x="342" y="-110.5" font-family="Helvetica,sans-Serif" font-size="10.00">::Frame::parseBitStream</text>
</a>
</g>
</g>
<!-- Node6&#45;&gt;Node7 -->
<g id="edge7" class="edge">
<title>Node6&#45;&gt;Node7</title>
<path fill="none" stroke="midnightblue" d="M471.46,-144.06C451.62,-140.11 429.63,-135.74 409.53,-131.74"/>
<polygon fill="midnightblue" stroke="midnightblue" points="470.81,-147.5 481.3,-146.02 472.18,-140.63 470.81,-147.5"/>
</g>
<!-- Node8 -->
<g id="node8" class="node">
<title>Node8</title>
<g id="a_node8"><a xlink:href="classsignal__easel_1_1aprs_1_1Demodulator.html#ae5a8e7634c1bc8d215a0c454a9a737fa" target="_top" xlink:title=" ">
<polygon fill="none" stroke="black" points="77,-78 77,-119 230,-119 230,-78 77,-78"/>
<text text-anchor="start" x="85" y="-107" font-family="Helvetica,sans-Serif" font-size="10.00">signal_easel::aprs</text>
<text text-anchor="start" x="85" y="-96" font-family="Helvetica,sans-Serif" font-size="10.00">::Demodulator::lookForAx25</text>
<text text-anchor="middle" x="153.5" y="-85" font-family="Helvetica,sans-Serif" font-size="10.00">Packet</text>
</a>
</g>
</g>
<!-- Node7&#45;&gt;Node8 -->
<g id="edge8" class="edge">
<title>Node7&#45;&gt;Node8</title>
<path fill="none" stroke="midnightblue" d="M264.25,-110.27C253.01,-109.06 241.44,-107.82 230.22,-106.62"/>
<polygon fill="midnightblue" stroke="midnightblue" points="264.14,-113.78 274.46,-111.36 264.89,-106.82 264.14,-113.78"/>
</g>
<!-- Node9 -->
<g id="node9" class="node">
<title>Node9</title>
<g id="a_node9"><a xlink:href="aprs__test_8cpp.html#aea66d1824e3f1e27598adf99ac6a089a" target="_top" xlink:title=" ">
<polygon fill="none" stroke="black" points="0,-42 0,-61 41,-61 41,-42 0,-42"/>
<text text-anchor="middle" x="20.5" y="-49" font-family="Helvetica,sans-Serif" font-size="10.00">TEST</text>
</a>
</g>
</g>
<!-- Node8&#45;&gt;Node9 -->
<g id="edge9" class="edge">
<title>Node8&#45;&gt;Node9</title>
<path fill="none" stroke="midnightblue" d="M85.52,-74.47C69.33,-68.66 53.25,-62.89 41.26,-58.59"/>
<polygon fill="midnightblue" stroke="midnightblue" points="84.45,-77.8 95.04,-77.89 86.81,-71.21 84.45,-77.8"/>
</g>
<!-- Node11 -->
<g id="node11" class="node">
<title>Node11</title>
<g id="a_node11"><a xlink:href="classsignal__easel_1_1ax25_1_1Frame.html#a40b07872c291deee87c677459a27c21c" target="_top" xlink:title="Attempt to parse a single AX.25 frame from an already NRZI&#45;decoded bit stream. Unlike parseBitStream,...">
<polygon fill="none" stroke="black" points="454,-66 454,-107 616,-107 616,-66 454,-66"/>
<text text-anchor="start" x="462" y="-95" font-family="Helvetica,sans-Serif" font-size="10.00">signal_easel::ax25</text>
<text text-anchor="start" x="462" y="-84" font-family="Helvetica,sans-Serif" font-size="10.00">::Frame::parseNrziDecodedBit</text>
<text text-anchor="middle" x="535" y="-73" font-family="Helvetica,sans-Serif" font-size="10.00">Stream</text>
</a>
</g>
</g>
<!-- Node10&#45;&gt;Node11 -->
<g id="edge11" class="edge">
<title>Node10&#45;&gt;Node11</title>
<path fill="none" stroke="midnightblue" d="M658.88,-74.61C645.11,-75.94 630.36,-77.37 616.04,-78.75"/>
<polygon fill="midnightblue" stroke="midnightblue" points="659.58,-78.06 669.2,-73.61 658.91,-71.09 659.58,-78.06"/>
</g>
<!-- Node11&#45;&gt;Node7 -->
<g id="edge14" class="edge">
<title>Node11&#45;&gt;Node7</title>
<path fill="none" stroke="midnightblue" d="M443.78,-101.62C432.29,-103.54 420.7,-105.48 409.68,-107.33"/>
<polygon fill="midnightblue" stroke="midnightblue" points="444.54,-105.04 453.83,-99.93 443.39,-98.13 444.54,-105.04"/>
</g>
<!-- Node12 -->
<g id="node12" class="node">
<title>Node12</title>
<g id="a_node12"><a xlink:href="classsignal__easel_1_1aprs_1_1Demodulator.html#ab4819ac606d0ebf3e5ac235a3bf916df" target="_top" xlink:title="Like lookForAx25Packet, but parses a single AX.25 frame from an already NRZI&#45;decoded bit stream....">
<polygon fill="none" stroke="black" points="266,-43 266,-84 418,-84 418,-43 266,-43"/>
<text text-anchor="start" x="274" y="-72" font-family="Helvetica,sans-Serif" font-size="10.00">signal_easel::aprs</text>
<text text-anchor="start" x="274" y="-61" font-family="Helvetica,sans-Serif" font-size="10.00">::Demodulator::lookForNext</text>
<text text-anchor="middle" x="342" y="-50" font-family="Helvetica,sans-Serif" font-size="10.00">Ax25Packet</text>
</a>
</g>
</g>
<!-- Node11&#45;&gt;Node12 -->
<g id="edge12" class="edge">
<title>Node11&#45;&gt;Node12</title>
<path fill="none" stroke="midnightblue" d="M443.78,-75.64C435.18,-74.6 426.52,-73.56 418.09,-72.54"/>
<polygon fill="midnightblue" stroke="midnightblue" points="443.48,-79.13 453.83,-76.85 444.32,-72.18 443.48,-79.13"/>
</g>
<!-- Node12&#45;&gt;Node5 -->
<g id="edge13" class="edge">
<title>Node12&#45;&gt;Node5</title>
<path fill="none" stroke="midnightblue" d="M275.62,-88.78C272.31,-90.6 269.08,-92.51 266,-94.5 247.52,-106.46 248.29,-116.26 230,-128.5 219.13,-135.78 206.45,-142.18 194.62,-147.4"/>
<polygon fill="midnightblue" stroke="midnightblue" points="277.28,-91.86 284.56,-84.17 274.07,-85.64 277.28,-91.86"/>
</g>
<!-- Node14 -->
<g id="node14" class="node">
<title>Node14</title>
<g id="a_node14"><a xlink:href="namespacesignal__easel_1_1aprs.html#a77481001a5b78a839972bb4220b43e4d" target="_top" xlink:title="The base function to encode an APRS packet with the provided base data and info field.">
<polygon fill="none" stroke="black" points="483,-0.5 483,-30.5 587,-30.5 587,-0.5 483,-0.5"/>
<text text-anchor="start" x="491" y="-18.5" font-family="Helvetica,sans-Serif" font-size="10.00">signal_easel::aprs</text>
<text text-anchor="middle" x="535" y="-7.5" font-family="Helvetica,sans-Serif" font-size="10.00">::encodePacket</text>
</a>
</g>
</g>
<!-- Node13&#45;&gt;Node14 -->
<g id="edge16" class="edge">
<title>Node13&#45;&gt;Node14</title>
<path fill="none" stroke="midnightblue" d="M650.17,-16.11C629.19,-16 606.7,-15.88 587.27,-15.78"/>
<polygon fill="midnightblue" stroke="midnightblue" points="650.3,-19.61 660.32,-16.17 650.34,-12.61 650.3,-19.61"/>
</g>
<!-- Node15 -->
<g id="node15" class="node">
<title>Node15</title>
<g id="a_node15"><a xlink:href="classsignal__easel_1_1aprs_1_1Modulator.html#a8ae067701382dec1680b786583ace687" target="_top" xlink:title=" ">
<polygon fill="none" stroke="black" points="97,-9.5 97,-39.5 210,-39.5 210,-9.5 97,-9.5"/>
<text text-anchor="start" x="105" y="-27.5" font-family="Helvetica,sans-Serif" font-size="10.00">signal_easel::aprs</text>
<text text-anchor="middle" x="153.5" y="-16.5" font-family="Helvetica,sans-Serif" font-size="10.00">::Modulator::encode</text>
</a>
</g>
</g>
<!-- Node14&#45;&gt;Node15 -->
<g id="edge17" class="edge">
<title>Node14&#45;&gt;Node15</title>
<path fill="none" stroke="midnightblue" d="M472.45,-16.96C399.8,-18.68 280.05,-21.52 210.1,-23.18"/>
<polygon fill="midnightblue" stroke="midnightblue" points="472.9,-20.45 482.82,-16.71 472.74,-13.45 472.9,-20.45"/>
</g>
<!-- Node15&#45;&gt;Node9 -->
<g id="edge18" class="edge">
<title>Node15&#45;&gt;Node9</title>
<path fill="none" stroke="midnightblue" d="M87.13,-37.97C70.4,-41.42 53.66,-44.87 41.28,-47.42"/>
<polygon fill="midnightblue" stroke="midnightblue" points="87.86,-41.4 96.94,-35.95 86.44,-34.54 87.86,-41.4"/>
</g>
<!-- Node16&#45;&gt;Node11 -->
<g id="edge20" class="edge">
<title>Node16&#45;&gt;Node11</title>
<path fill="none" stroke="midnightblue" d="M659.29,-107.05C645.4,-104.73 630.51,-102.25 616.04,-99.84"/>
<polygon fill="midnightblue" stroke="midnightblue" points="658.76,-110.51 669.2,-108.7 659.91,-103.6 658.76,-110.51"/>
</g>
</g>
</svg>
