<?xml version="1.0" encoding="UTF-8" standalone="no"?>
<!DOCTYPE svg PUBLIC "-//W3C//DTD SVG 1.1//EN"
 "http://www.w3.org/Graphics/SVG/1.1/DTD/svg11.dtd">
<!-- Generated by graphviz version 2.43.0 (0)
 -->
<!-- Title: signal_easel::Modulator Pages: 1 -->
<svg width="372pt" height="397pt"
 viewBox="0.00 0.00 372.03 397.00" xmlns="http://www.w3.org/2000/svg" xmlns:xlink="http://www.w3.org/1999/xlink">
<g id="graph0" class="graph" transform="scale(1 1) rotate(0) translate(4 393)">
<title>signal_easel::Modulator</title>
<!-- Node1 -->
<g id="node1" class="node">
<title>Node1</title>
<g id="a_node1"><a xlink:title="The abstract base class for all modulators that turn data into audio.">
<polygon fill="#bfbfbf" stroke="black" points="104.03,-0.5 104.03,-156.5 256.03,-156.5 256.03,-0.5 104.03,-0.5"/>
<text text-anchor="middle" x="180.03" y="-144.5" font-family="Helvetica,sans-Serif" font-size="10.00">signal_easel::Modulator</text>
<polyline fill="none" stroke="black" points="104.03,-137.5 256.03,-137.5 "/>
<text text-anchor="middle" x="180.03" y="-125.5" font-family="Helvetica,sans-Serif" font-size="10.00"> </text>
<polyline fill="none" stroke="black" points="104.03,-118.5 256.03,-118.5 "/>
<text text-anchor="start" x="112.03" y="-106.5" font-family="Helvetica,sans-Serif" font-size="10.00">+ Modulator()</text>
<text text-anchor="start" x="112.03" y="-95.5" font-family="Helvetica,sans-Serif" font-size="10.00">+ ~Modulator()</text>
<text text-anchor="start" x="112.03" y="-84.5" font-family="Helvetica,sans-Serif" font-size="10.00">+ clearBuffer()</text>
<text text-anchor="start" x="112.03" y="-73.5" font-family="Helvetica,sans-Serif" font-size="10.00">+ writeToFile()</text>
<text text-anchor="start" x="112.03" y="-62.5" font-family="Helvetica,sans-Serif" font-size="10.00">+ writeToPulseAudio()</text>
<text text-anchor="start" x="112.03" y="-51.5" font-family="Helvetica,sans-Serif" font-size="10.00"># addAudioSample()</text>
<text text-anchor="start" x="112.03" y="-40.5" font-family="Helvetica,sans-Serif" font-size="10.00"># addAudioSampleDouble()</text>
<text text-anchor="start" x="112.03" y="-29.5" font-family="Helvetica,sans-Serif" font-size="10.00"># addSilence()</text>
<text text-anchor="start" x="112.03" y="-18.5" font-family="Helvetica,sans-Serif" font-size="10.00"># addSineWave()</text>
<text text-anchor="start" x="112.03" y="-7.5" font-family="Helvetica,sans-Serif" font-size="10.00">&#45; addMorseCode()</text>
</a>
</g>
</g>
<!-- Node2 -->
<g id="node2" class="node">
<title>Node2</title>
<g id="a_node2"><a xlink:title=" ">
<polygon fill="none" stroke="#bfbfbf" points="11.03,-331.5 11.03,-388.5 61.03,-388.5 61.03,-331.5 11.03,-331.5"/>
<text text-anchor="middle" x="36.03" y="-376.5" font-family="Helvetica,sans-Serif" font-size="10.00">double</text>
<polyline fill="none" stroke="#bfbfbf" points="11.03,-369.5 61.03,-369.5 "/>
<text text-anchor="middle" x="36.03" y="-357.5" font-family="Helvetica,sans-Serif" font-size="10.00"> </text>
<polyline fill="none" stroke="#bfbfbf" points="11.03,-350.5 61.03,-350.5 "/>
<text text-anchor="middle" x="36.03" y="-338.5" font-family="Helvetica,sans-Serif" font-size="10.00"> </text>
</a>
</g>
</g>
<!-- Node2&#45;&gt;Node1 -->
<g id="edge1" class="edge">
<title>Node2&#45;&gt;Node1</title>
<path fill="none" stroke="#404040" d="M21.7,-331.43C7.08,-299.18 -10.77,-245 10.03,-204 27.94,-168.67 61.12,-140.96 93.44,-120.73"/>
<polygon fill="none" stroke="#404040" points="93.61,-120.63 96.68,-114.11 103.88,-114.43 100.81,-120.95 93.61,-120.63"/>
<text text-anchor="middle" x="59.53" y="-230.5" font-family="Helvetica,sans-Serif" font-size="10.00"> &#45;sine_wave_phase_</text>
</g>
<!-- Node4 -->
<g id="node4" class="node">
<title>Node4</title>
<g id="a_node4"><a xlink:href="structsignal__easel_1_1Settings.html" target="_top" xlink:title="The universal settings for MWAV.">
<polygon fill="none" stroke="black" points="118.53,-204.5 118.53,-261.5 241.53,-261.5 241.53,-204.5 118.53,-204.5"/>
<text text-anchor="middle" x="180.03" y="-249.5" font-family="Helvetica,sans-Serif" font-size="10.00">signal_easel::Settings</text>
<polyline fill="none" stroke="black" points="118.53,-242.5 241.53,-242.5 "/>
<text text-anchor="middle" x="180.03" y="-230.5" font-family="Helvetica,sans-Serif" font-size="10.00"> </text>
<polyline fill="none" stroke="black" points="118.53,-223.5 241.53,-223.5 "/>
<text text-anchor="middle" x="180.03" y="-211.5" font-family="Helvetica,sans-Serif" font-size="10.00"> </text>
</a>
</g>
</g>
<!-- Node2&#45;&gt;Node4 -->
<g id="edge4" class="edge">
<title>Node2&#45;&gt;Node4</title>
<path fill="none" stroke="#404040" d="M46.29,-331.26C53.6,-314.64 64.82,-294.08 80.03,-280 88.11,-272.52 97.63,-266.07 107.52,-260.57"/>
<polygon fill="none" stroke="#404040" points="107.69,-260.49 111.18,-254.18 118.35,-254.98 114.85,-261.29 107.69,-260.49"/>
<text text-anchor="middle" x="123.03" y="-305" font-family="Helvetica,sans-Serif" font-size="10.00"> +amplitude</text>
<text text-anchor="start" x="80.03" y="-294" font-family="Helvetica,sans-Serif" font-size="10.00">+call_sign_pause</text>
<text text-anchor="middle" x="123.03" y="-283" font-family="Helvetica,sans-Serif" font-size="10.00">_seconds</text>
</g>
<!-- Node3 -->
<g id="node3" class="node">
<title>Node3</title>
<g id="a_node3"><a xlink:title=" ">
<polygon fill="none" stroke="#bfbfbf" points="260.03,-204.5 260.03,-261.5 364.03,-261.5 364.03,-204.5 260.03,-204.5"/>
<text text-anchor="middle" x="312.03" y="-249.5" font-family="Helvetica,sans-Serif" font-size="10.00">vector&lt; int16_t &gt;</text>
<polyline fill="none" stroke="#bfbfbf" points="260.03,-242.5 364.03,-242.5 "/>
<text text-anchor="middle" x="312.03" y="-230.5" font-family="Helvetica,sans-Serif" font-size="10.00"> </text>
<polyline fill="none" stroke="#bfbfbf" points="260.03,-223.5 364.03,-223.5 "/>
<text text-anchor="middle" x="312.03" y="-211.5" font-family="Helvetica,sans-Serif" font-size="10.00"> </text>
</a>
</g>
</g>
<!-- Node3&#45;&gt;Node1 -->
<g id="edge2" class="edge">
<title>Node3&#45;&gt;Node1</title>
<path fill="none" stroke="#404040" d="M288.12,-204.38C278.49,-193.26 266.81,-179.76 254.74,-165.81"/>
<polygon fill="none" stroke="#404040" points="254.61,-165.67 247.66,-163.75 246.76,-156.6 253.71,-158.52 254.61,-165.67"/>
<text text-anchor="middle" x="308.03" y="-178" font-family="Helvetica,sans-Serif" font-size="10.00"> #audio_buffer_</text>
</g>
<!-- Node4&#45;&gt;Node1 -->
<g id="edge3" class="edge">
<title>Node4&#45;&gt;Node1</title>
<path fill="none" stroke="#404040" d="M180.03,-204.38C180.03,-194.11 180.03,-181.81 180.03,-168.99"/>
<polygon fill="none" stroke="#404040" points="180.03,-168.6 176.03,-162.6 180.03,-156.6 184.03,-162.6 180.03,-168.6"/>
<text text-anchor="middle" x="208.03" y="-178" font-family="Helvetica,sans-Serif" font-size="10.00"> #settings_</text>
</g>
<!-- Node5 -->
<g id="node5" class="node">
<title>Node5</title>
<g id="a_node5"><a xlink:title=" ">
<polygon fill="none" stroke="#bfbfbf" points="128.53,-331.5 128.53,-388.5 211.53,-388.5 211.53,-331.5 128.53,-331.5"/>
<text text-anchor="middle" x="170.03" y="-376.5" font-family="Helvetica,sans-Serif" font-size="10.00">CallSignMode</text>
<polyline fill="none" stroke="#bfbfbf" points="128.53,-369.5 211.53,-369.5 "/>
<text text-anchor="middle" x="170.03" y="-357.5" font-family="Helvetica,sans-Serif" font-size="10.00"> </text>
<polyline fill="none" stroke="#bfbfbf" points="128.53,-350.5 211.53,-350.5 "/>
<text text-anchor="middle" x="170.03" y="-338.5" font-family="Helvetica,sans-Serif" font-size="10.00"> </text>
</a>
</g>
</g>
<!-- Node5&#45;&gt;Node4 -->
<g id="edge5" class="edge">
<title>Node5&#45;&gt;Node4</title>
<path fill="none" stroke="#404040" d="M169.16,-331.14C168.99,-315.98 169.28,-296.92 171.03,-280 171.24,-277.94 171.5,-275.84 171.79,-273.72"/>
<polygon fill="none" stroke="#404040" points="171.84,-273.45 168.87,-266.88 173.79,-261.61 176.76,-268.18 171.84,-273.45"/>
<text text-anchor="middle" x="215.03" y="-294" font-family="Helvetica,sans-Serif" font-size="10.00"> +call_sign_mode</text>
</g>
<!-- Node6 -->
<g id="node6" class="node">
<title>Node6</title>
<g id="a_node6"><a xlink:title=" ">
<polygon fill="none" stroke="#bfbfbf" points="259.03,-331.5 259.03,-388.5 303.03,-388.5 303.03,-331.5 259.03,-331.5"/>
<text text-anchor="middle" x="281.03" y="-376.5" font-family="Helvetica,sans-Serif" font-size="10.00">string</text>
<polyline fill="none" stroke="#bfbfbf" points="259.03,-369.5 303.03,-369.5 "/>
<text text-anchor="middle" x="281.03" y="-357.5" font-family="Helvetica,sans-Serif" font-size="10.00"> </text>
<polyline fill="none" stroke="#bfbfbf" points="259.03,-350.5 303.03,-350.5 "/>
<text text-anchor="middle" x="281.03" y="-338.5" font-family="Helvetica,sans-Serif" font-size="10.00"> </text>
</a>
</g>
</g>
<!-- Node6&#45;&gt;Node4 -->
<g id="edge6" class="edge">
<title>Node6&#45;&gt;Node4</title>
<path fill="none" stroke="#404040" d="M278.57,-331.45C275.92,-315.1 270.43,-294.76 259.03,-280 256.11,-276.22 252.79,-272.7 249.2,-269.42"/>
<polygon fill="none" stroke="#404040" points="249.1,-269.34 241.92,-268.65 239.79,-261.77 246.97,-262.45 249.1,-269.34"/>
<text text-anchor="middle" x="301.53" y="-294" font-family="Helvetica,sans-Serif" font-size="10.00"> +call_sign</text>
</g>
</g>
</svg>
