<?xml version="1.0" encoding="UTF-8" standalone="no"?>
<!DOCTYPE svg PUBLIC "-//W3C//DTD SVG 1.1//EN"
 "http://www.w3.org/Graphics/SVG/1.1/DTD/svg11.dtd">
<!-- Generated by graphviz version 2.43.0 (0)
 -->
<!-- Title: signal_easel::BitStream::popNextBit Pages: 1 -->
<svg width="823pt" height="214pt"
 viewBox="0.00 0.00 823.00 213.50" xmlns="http://www.w3.org/2000/svg" xmlns:xlink="http://www.w3.org/1999/xlink">
<g id="graph0" class="graph" transform="scale(1 1) rotate(0) translate(4 209.5)">
<title>signal_easel::BitStream::popNextBit</title>
<!-- Node1 -->
<g id="node1" class="node">
<title>Node1</title>
<g id="a_node1"><a xlink:title="Returns the next bit of the bit stream that will be encoded.">
<polygon fill="#bfbfbf" stroke="black" points="683,-101 683,-131 815,-131 815,-101 683,-101"/>
<text text-anchor="start" x="691" y="-119" font-family="Helvetica,sans-Serif" font-size="10.00">signal_easel::BitStream</text>
<text text-anchor="middle" x="749" y="-108" font-family="Helvetica,sans-Serif" font-size="10.00">::popNextBit</text>
</a>
</g>
</g>
<!-- Node2 -->
<g id="node2" class="node">
<title>Node2</title>
<g id="a_node2"><a xlink:href="namespacesignal__easel_1_1ax25.html#a84e1d1bf82ef828a150bc94cf065e396" target="_top" xlink:title="Convert a bit stream from NRZI to standard encoding.">
<polygon fill="none" stroke="black" points="531,-175 531,-205 638,-205 638,-175 531,-175"/>
<text text-anchor="start" x="539" y="-193" font-family="Helvetica,sans-Serif" font-size="10.00">signal_easel::ax25</text>
<text text-anchor="middle" x="584.5" y="-182" font-family="Helvetica,sans-Serif" font-size="10.00">::decodeNrzi</text>
</a>
</g>
</g>
<!-- Node1&#45;&gt;Node2 -->
<g id="edge1" class="edge">
<title>Node1&#45;&gt;Node2</title>
<path fill="none" stroke="midnightblue" d="M710.03,-135.78C691.25,-145.31 668.13,-156.67 647,-166 640.19,-169.01 632.87,-172.04 625.74,-174.88"/>
<polygon fill="midnightblue" stroke="midnightblue" points="711.83,-138.79 719.15,-131.12 708.65,-132.55 711.83,-138.79"/>
</g>
<!-- Node7 -->
<g id="node7" class="node">
<title>Node7</title>
<g id="a_node7"><a xlink:href="namespacesignal__easel_1_1ax25.html#a1bccc37a6ac48ed9be96218dd46bcb41" target="_top" xlink:title=" ">
<polygon fill="none" stroke="black" points="531,-126 531,-156 638,-156 638,-126 531,-126"/>
<text text-anchor="start" x="539" y="-144" font-family="Helvetica,sans-Serif" font-size="10.00">signal_easel::ax25</text>
<text text-anchor="middle" x="584.5" y="-133" font-family="Helvetica,sans-Serif" font-size="10.00">::deStuffBytes</text>
</a>
</g>
</g>
<!-- Node1&#45;&gt;Node7 -->
<g id="edge6" class="edge">
<title>Node1&#45;&gt;Node7</title>
<path fill="none" stroke="midnightblue" d="M672.67,-127.59C661.02,-129.38 649.2,-131.2 638.19,-132.89"/>
<polygon fill="midnightblue" stroke="midnightblue" points="673.49,-131 682.84,-126.02 672.43,-124.09 673.49,-131"/>
</g>
<!-- Node8 -->
<g id="node8" class="node">
<title>Node8</title>
<g id="a_node8"><a xlink:href="classsignal__easel_1_1ax25_1_1Frame.html#a2b4f6ebcb7592a7e5a21114c8fafa503" target="_top" xlink:title="A step beyond buildFrame. This function builds the frame, does the bit stuffing, adds the flags,...">
<polygon fill="none" stroke="black" points="522,-28 522,-58 647,-58 647,-28 522,-28"/>
<text text-anchor="start" x="530" y="-46" font-family="Helvetica,sans-Serif" font-size="10.00">signal_easel::ax25</text>
<text text-anchor="middle" x="584.5" y="-35" font-family="Helvetica,sans-Serif" font-size="10.00">::Frame::encodeFrame</text>
</a>
</g>
</g>
<!-- Node1&#45;&gt;Node8 -->
<g id="edge8" class="edge">
<title>Node1&#45;&gt;Node8</title>
<path fill="none" stroke="midnightblue" d="M709.17,-96.27C690.53,-87.02 667.78,-76.08 647,-67 640.07,-63.97 632.62,-60.91 625.39,-58.03"/>
<polygon fill="midnightblue" stroke="midnightblue" points="707.73,-99.46 718.24,-100.79 710.85,-93.19 707.73,-99.46"/>
</g>
<!-- Node12 -->
<g id="node12" class="node">
<title>Node12</title>
<g id="a_node12"><a xlink:href="namespacesignal__easel_1_1ax25.html#aedc3a21287bb20d2f0b01c9a2d6797f3" target="_top" xlink:title="Finds the start flags in the bit stream and removes them.">
<polygon fill="none" stroke="black" points="531,-77 531,-107 638,-107 638,-77 531,-77"/>
<text text-anchor="start" x="539" y="-95" font-family="Helvetica,sans-Serif" font-size="10.00">signal_easel::ax25</text>
<text text-anchor="middle" x="584.5" y="-84" font-family="Helvetica,sans-Serif" font-size="10.00">::findStartFlags</text>
</a>
</g>
</g>
<!-- Node1&#45;&gt;Node12 -->
<g id="edge13" class="edge">
<title>Node1&#45;&gt;Node12</title>
<path fill="none" stroke="midnightblue" d="M672.67,-104.87C661.02,-103.15 649.2,-101.41 638.19,-99.78"/>
<polygon fill="midnightblue" stroke="midnightblue" points="672.44,-108.38 682.84,-106.38 673.46,-101.45 672.44,-108.38"/>
</g>
<!-- Node3 -->
<g id="node3" class="node">
<title>Node3</title>
<g id="a_node3"><a xlink:href="classsignal__easel_1_1ax25_1_1Frame.html#a63cf2362c2a90d20f09bbbc4f24a07ba" target="_top" xlink:title="Attempt to parse an incoming bit stream into an AX.25 frame.">
<polygon fill="none" stroke="black" points="343.5,-126 343.5,-156 478.5,-156 478.5,-126 343.5,-126"/>
<text text-anchor="start" x="351.5" y="-144" font-family="Helvetica,sans-Serif" font-size="10.00">signal_easel::ax25</text>
<text text-anchor="middle" x="411" y="-133" font-family="Helvetica,sans-Serif" font-size="10.00">::Frame::parseBitStream</text>
</a>
</g>
</g>
<!-- Node2&#45;&gt;Node3 -->
<g id="edge2" class="edge">
<title>Node2&#45;&gt;Node3</title>
<path fill="none" stroke="midnightblue" d="M520.87,-172.11C502.42,-166.84 482.44,-161.12 464.68,-156.05"/>
<polygon fill="midnightblue" stroke="midnightblue" points="520.07,-175.52 530.64,-174.9 521.99,-168.79 520.07,-175.52"/>
</g>
<!-- Node4 -->
<g id="node4" class="node">
<title>Node4</title>
<g id="a_node4"><a xlink:href="classsignal__easel_1_1aprs_1_1Demodulator.html#ae5a8e7634c1bc8d215a0c454a9a737fa" target="_top" xlink:title=" ">
<polygon fill="none" stroke="black" points="145,-120.5 145,-161.5 298,-161.5 298,-120.5 145,-120.5"/>
<text text-anchor="start" x="153" y="-149.5" font-family="Helvetica,sans-Serif" font-size="10.00">signal_easel::aprs</text>
<text text-anchor="start" x="153" y="-138.5" font-family="Helvetica,sans-Serif" font-size="10.00">::Demodulator::lookForAx25</text>
<text text-anchor="middle" x="221.5" y="-127.5" font-family="Helvetica,sans-Serif" font-size="10.00">Packet</text>
</a>
</g>
</g>
<!-- Node3&#45;&gt;Node4 -->
<g id="edge3" class="edge">
<title>Node3&#45;&gt;Node4</title>
<path fill="none" stroke="midnightblue" d="M333.29,-141C321.7,-141 309.75,-141 298.18,-141"/>
<polygon fill="midnightblue" stroke="midnightblue" points="333.37,-144.5 343.37,-141 333.37,-137.5 333.37,-144.5"/>
</g>
<!-- Node5 -->
<g id="node5" class="node">
<title>Node5</title>
<g id="a_node5"><a xlink:href="classsignal__easel_1_1aprs_1_1Receiver.html#afbf7869aceaf2ea7ab0be8b9af16e818" target="_top" xlink:title=" ">
<polygon fill="none" stroke="black" points="0,-126 0,-156 107,-156 107,-126 0,-126"/>
<text text-anchor="start" x="8" y="-144" font-family="Helvetica,sans-Serif" font-size="10.00">signal_easel::aprs</text>
<text text-anchor="middle" x="53.5" y="-133" font-family="Helvetica,sans-Serif" font-size="10.00">::Receiver::decode</text>
</a>
</g>
</g>
<!-- Node4&#45;&gt;Node5 -->
<g id="edge4" class="edge">
<title>Node4&#45;&gt;Node5</title>
<path fill="none" stroke="midnightblue" d="M134.68,-141C125.35,-141 116.08,-141 107.33,-141"/>
<polygon fill="midnightblue" stroke="midnightblue" points="134.79,-144.5 144.79,-141 134.79,-137.5 134.79,-144.5"/>
</g>
<!-- Node6 -->
<g id="node6" class="node">
<title>Node6</title>
<g id="a_node6"><a xlink:href="aprs__test_8cpp.html#aea66d1824e3f1e27598adf99ac6a089a" target="_top" xlink:title=" ">
<polygon fill="none" stroke="black" points="33,-79.5 33,-98.5 74,-98.5 74,-79.5 33,-79.5"/>
<text text-anchor="middle" x="53.5" y="-86.5" font-family="Helvetica,sans-Serif" font-size="10.00">TEST</text>
</a>
</g>
</g>
<!-- Node4&#45;&gt;Node6 -->
<g id="edge5" class="edge">
<title>Node4&#45;&gt;Node6</title>
<path fill="none" stroke="midnightblue" d="M145.29,-117.44C119.04,-109.22 91.75,-100.67 74.03,-95.12"/>
<polygon fill="midnightblue" stroke="midnightblue" points="144.3,-120.8 154.89,-120.45 146.4,-114.12 144.3,-120.8"/>
</g>
<!-- Node7&#45;&gt;Node3 -->
<g id="edge7" class="edge">
<title>Node7&#45;&gt;Node3</title>
<path fill="none" stroke="midnightblue" d="M520.42,-141C506.8,-141 492.37,-141 478.62,-141"/>
<polygon fill="midnightblue" stroke="midnightblue" points="520.64,-144.5 530.64,-141 520.64,-137.5 520.64,-144.5"/>
</g>
<!-- Node9 -->
<g id="node9" class="node">
<title>Node9</title>
<g id="a_node9"><a xlink:href="namespacesignal__easel.html#aad3ffdd47a4a03ed438e8c1ca9eef231" target="_top" xlink:title=" ">
<polygon fill="none" stroke="black" points="336,-33.5 336,-52.5 486,-52.5 486,-33.5 336,-33.5"/>
<text text-anchor="middle" x="411" y="-40.5" font-family="Helvetica,sans-Serif" font-size="10.00">signal_easel::encodePacket</text>
</a>
</g>
</g>
<!-- Node8&#45;&gt;Node9 -->
<g id="edge9" class="edge">
<title>Node8&#45;&gt;Node9</title>
<path fill="none" stroke="midnightblue" d="M511.47,-43C503.08,-43 494.51,-43 486.1,-43"/>
<polygon fill="midnightblue" stroke="midnightblue" points="511.58,-46.5 521.58,-43 511.58,-39.5 511.58,-46.5"/>
</g>
<!-- Node10 -->
<g id="node10" class="node">
<title>Node10</title>
<g id="a_node10"><a xlink:href="classsignal__easel_1_1aprs_1_1Modulator.html#a147321b48c2e282c62863f114702e54f" target="_top" xlink:title=" ">
<polygon fill="none" stroke="black" points="143,-60.5 143,-101.5 300,-101.5 300,-60.5 143,-60.5"/>
<text text-anchor="start" x="151" y="-89.5" font-family="Helvetica,sans-Serif" font-size="10.00">signal_easel::aprs</text>
<text text-anchor="start" x="151" y="-78.5" font-family="Helvetica,sans-Serif" font-size="10.00">::Modulator::encodeMessage</text>
<text text-anchor="middle" x="221.5" y="-67.5" font-family="Helvetica,sans-Serif" font-size="10.00">Packet</text>
</a>
</g>
</g>
<!-- Node9&#45;&gt;Node10 -->
<g id="edge10" class="edge">
<title>Node9&#45;&gt;Node10</title>
<path fill="none" stroke="midnightblue" d="M352.62,-54.63C336.04,-57.99 317.67,-61.71 300.07,-65.28"/>
<polygon fill="midnightblue" stroke="midnightblue" points="353.58,-58.01 362.69,-52.59 352.19,-51.15 353.58,-58.01"/>
</g>
<!-- Node11 -->
<g id="node11" class="node">
<title>Node11</title>
<g id="a_node11"><a xlink:href="classsignal__easel_1_1aprs_1_1Modulator.html#a943e392227656943d7db842e1889d805" target="_top" xlink:title=" ">
<polygon fill="none" stroke="black" points="145.5,-0.5 145.5,-41.5 297.5,-41.5 297.5,-0.5 145.5,-0.5"/>
<text text-anchor="start" x="153.5" y="-29.5" font-family="Helvetica,sans-Serif" font-size="10.00">signal_easel::aprs</text>
<text text-anchor="start" x="153.5" y="-18.5" font-family="Helvetica,sans-Serif" font-size="10.00">::Modulator::encodePosition</text>
<text text-anchor="middle" x="221.5" y="-7.5" font-family="Helvetica,sans-Serif" font-size="10.00">Packet</text>
</a>
</g>
</g>
<!-- Node9&#45;&gt;Node11 -->
<g id="edge12" class="edge">
<title>Node9&#45;&gt;Node11</title>
<path fill="none" stroke="midnightblue" d="M325.78,-33.12C316.39,-32.02 306.87,-30.9 297.6,-29.81"/>
<polygon fill="midnightblue" stroke="midnightblue" points="325.56,-36.62 335.9,-34.31 326.37,-29.66 325.56,-36.62"/>
</g>
<!-- Node10&#45;&gt;Node6 -->
<g id="edge11" class="edge">
<title>Node10&#45;&gt;Node6</title>
<path fill="none" stroke="midnightblue" d="M132.68,-85.23C110.57,-86.3 88.92,-87.34 74.03,-88.06"/>
<polygon fill="midnightblue" stroke="midnightblue" points="133.03,-88.72 142.85,-84.74 132.69,-81.73 133.03,-88.72"/>
</g>
<!-- Node12&#45;&gt;Node3 -->
<g id="edge14" class="edge">
<title>Node12&#45;&gt;Node3</title>
<path fill="none" stroke="midnightblue" d="M520.87,-109.89C502.42,-115.16 482.44,-120.88 464.68,-125.95"/>
<polygon fill="midnightblue" stroke="midnightblue" points="521.99,-113.21 530.64,-107.1 520.07,-106.48 521.99,-113.21"/>
</g>
</g>
</svg>
