<?xml version="1.0" encoding="UTF-8" standalone="no"?>
<!DOCTYPE svg PUBLIC "-//W3C//DTD SVG 1.1//EN"
 "http://www.w3.org/Graphics/SVG/1.1/DTD/svg11.dtd">
<!-- Generated by graphviz version 2.43.0 (0)
 -->
<!-- Title: signal_easel::aprs::telemetry::TelemetryData::setSequenceNumber Pages: 1 -->
<svg width="1117pt" height="113pt"
 viewBox="0.00 0.00 1117.00 113.00" xmlns="http://www.w3.org/2000/svg" xmlns:xlink="http://www.w3.org/1999/xlink">
<g id="graph0" class="graph" transform="scale(1 1) rotate(0) translate(4 109)">
<title>signal_easel::aprs::telemetry::TelemetryData::setSequenceNumber</title>
<!-- Node1 -->
<g id="node1" class="node">
<title>Node1</title>
<g id="a_node1"><a xlink:title="Set the sequence number. Must be less than 1000. If the sequence number is greater than 999,...">
<polygon fill="#bfbfbf" stroke="black" points="961,-13.5 961,-54.5 1109,-54.5 1109,-13.5 961,-13.5"/>
<text text-anchor="start" x="969" y="-42.5" font-family="Helvetica,sans-Serif" font-size="10.00">signal_easel::aprs</text>
<text text-anchor="start" x="969" y="-31.5" font-family="Helvetica,sans-Serif" font-size="10.00">::telemetry::TelemetryData</text>
<text text-anchor="middle" x="1035" y="-20.5" font-family="Helvetica,sans-Serif" font-size="10.00">::setSequenceNumber</text>
</a>
</g>
</g>
<!-- Node2 -->
<g id="node2" class="node">
<title>Node2</title>
<g id="a_node2"><a xlink:href="classsignal__easel_1_1aprs_1_1telemetry_1_1TelemetryTranscoder.html#afe0271b7bbae16a79c2bd4e77d4f3945" target="_top" xlink:title="Decode a data report message.">
<polygon fill="none" stroke="black" points="748,-38.5 748,-79.5 925,-79.5 925,-38.5 748,-38.5"/>
<text text-anchor="start" x="756" y="-67.5" font-family="Helvetica,sans-Serif" font-size="10.00">signal_easel::aprs</text>
<text text-anchor="start" x="756" y="-56.5" font-family="Helvetica,sans-Serif" font-size="10.00">::telemetry::TelemetryTranscoder</text>
<text text-anchor="middle" x="836.5" y="-45.5" font-family="Helvetica,sans-Serif" font-size="10.00">::decodeDataReportMessage</text>
</a>
</g>
</g>
<!-- Node1&#45;&gt;Node2 -->
<g id="edge1" class="edge">
<title>Node1&#45;&gt;Node2</title>
<path fill="none" stroke="midnightblue" d="M950.88,-44.58C942.32,-45.66 933.61,-46.77 925.01,-47.87"/>
<polygon fill="midnightblue" stroke="midnightblue" points="951.35,-48.04 960.83,-43.31 950.47,-41.1 951.35,-48.04"/>
</g>
<!-- Node8 -->
<g id="node8" class="node">
<title>Node8</title>
<g id="a_node8"><a xlink:href="aprs__telemetry__data__test_8cpp.html#a2d581dcdcf40d56ebc45e55cc895ec98" target="_top" xlink:title=" ">
<polygon fill="none" stroke="black" points="816,-0.5 816,-19.5 857,-19.5 857,-0.5 816,-0.5"/>
<text text-anchor="middle" x="836.5" y="-7.5" font-family="Helvetica,sans-Serif" font-size="10.00">TEST</text>
</a>
</g>
</g>
<!-- Node1&#45;&gt;Node8 -->
<g id="edge7" class="edge">
<title>Node1&#45;&gt;Node8</title>
<path fill="none" stroke="midnightblue" d="M950.72,-23.83C916.29,-19.62 879.35,-15.11 857.34,-12.42"/>
<polygon fill="midnightblue" stroke="midnightblue" points="950.48,-27.33 960.83,-25.06 951.33,-20.38 950.48,-27.33"/>
</g>
<!-- Node3 -->
<g id="node3" class="node">
<title>Node3</title>
<g id="a_node3"><a xlink:href="classsignal__easel_1_1aprs_1_1telemetry_1_1TelemetryTranscoder.html#a8728ebd6e5dbd7ca50a219fda62b7375" target="_top" xlink:title="Takes in the information field of an APRS telemetry message and decodes it with the appropriate metho...">
<polygon fill="none" stroke="black" points="535,-38.5 535,-79.5 712,-79.5 712,-38.5 535,-38.5"/>
<text text-anchor="start" x="543" y="-67.5" font-family="Helvetica,sans-Serif" font-size="10.00">signal_easel::aprs</text>
<text text-anchor="start" x="543" y="-56.5" font-family="Helvetica,sans-Serif" font-size="10.00">::telemetry::TelemetryTranscoder</text>
<text text-anchor="middle" x="623.5" y="-45.5" font-family="Helvetica,sans-Serif" font-size="10.00">::decodeMessage</text>
</a>
</g>
</g>
<!-- Node2&#45;&gt;Node3 -->
<g id="edge2" class="edge">
<title>Node2&#45;&gt;Node3</title>
<path fill="none" stroke="midnightblue" d="M737.58,-59C729.12,-59 720.59,-59 712.22,-59"/>
<polygon fill="midnightblue" stroke="midnightblue" points="737.85,-62.5 747.85,-59 737.85,-55.5 737.85,-62.5"/>
</g>
<!-- Node4 -->
<g id="node4" class="node">
<title>Node4</title>
<g id="a_node4"><a xlink:href="classsignal__easel_1_1aprs_1_1Demodulator.html#a97af61f7afb63db275020ba523abcc3a" target="_top" xlink:title="If the packet was a telemetry packet, this function will try to parse the packet and populate the tel...">
<polygon fill="none" stroke="black" points="331,-38.5 331,-79.5 499,-79.5 499,-38.5 331,-38.5"/>
<text text-anchor="start" x="339" y="-67.5" font-family="Helvetica,sans-Serif" font-size="10.00">signal_easel::aprs</text>
<text text-anchor="start" x="339" y="-56.5" font-family="Helvetica,sans-Serif" font-size="10.00">::Demodulator::parseTelemetry</text>
<text text-anchor="middle" x="415" y="-45.5" font-family="Helvetica,sans-Serif" font-size="10.00">Packet</text>
</a>
</g>
</g>
<!-- Node3&#45;&gt;Node4 -->
<g id="edge3" class="edge">
<title>Node3&#45;&gt;Node4</title>
<path fill="none" stroke="midnightblue" d="M524.86,-59C516.25,-59 507.58,-59 499.11,-59"/>
<polygon fill="midnightblue" stroke="midnightblue" points="524.93,-62.5 534.93,-59 524.93,-55.5 524.93,-62.5"/>
</g>
<!-- Node5 -->
<g id="node5" class="node">
<title>Node5</title>
<g id="a_node5"><a xlink:href="classsignal__easel_1_1aprs_1_1Receiver.html#adc3c303795edba521a1e55e454ba610d" target="_top" xlink:title="Categorises and stores a frame that has already been parsed by aprs_demodulator_ (i....">
<polygon fill="none" stroke="black" points="143,-63.5 143,-104.5 295,-104.5 295,-63.5 143,-63.5"/>
<text text-anchor="start" x="151" y="-92.5" font-family="Helvetica,sans-Serif" font-size="10.00">signal_easel::aprs</text>
<text text-anchor="start" x="151" y="-81.5" font-family="Helvetica,sans-Serif" font-size="10.00">::Receiver::processDecoded</text>
<text text-anchor="middle" x="219" y="-70.5" font-family="Helvetica,sans-Serif" font-size="10.00">Frame</text>
</a>
</g>
</g>
<!-- Node4&#45;&gt;Node5 -->
<g id="edge4" class="edge">
<title>Node4&#45;&gt;Node5</title>
<path fill="none" stroke="midnightblue" d="M320.85,-71C312.28,-72.11 303.67,-73.22 295.28,-74.3"/>
<polygon fill="midnightblue" stroke="midnightblue" points="321.41,-74.46 330.88,-69.71 320.52,-67.52 321.41,-74.46"/>
</g>
<!-- Node7 -->
<g id="node7" class="node">
<title>Node7</title>
<g id="a_node7"><a xlink:href="aprs__test_8cpp.html#a8de4b7853d7e8c5ad2bb05a656082327" target="_top" xlink:title=" ">
<polygon fill="none" stroke="black" points="198.5,-25.5 198.5,-44.5 239.5,-44.5 239.5,-25.5 198.5,-25.5"/>
<text text-anchor="middle" x="219" y="-32.5" font-family="Helvetica,sans-Serif" font-size="10.00">TEST</text>
</a>
</g>
</g>
<!-- Node4&#45;&gt;Node7 -->
<g id="edge6" class="edge">
<title>Node4&#45;&gt;Node7</title>
<path fill="none" stroke="midnightblue" d="M320.95,-47.49C290.25,-43.69 259.03,-39.83 239.6,-37.42"/>
<polygon fill="midnightblue" stroke="midnightblue" points="320.53,-50.96 330.88,-48.72 321.39,-44.02 320.53,-50.96"/>
</g>
<!-- Node6 -->
<g id="node6" class="node">
<title>Node6</title>
<g id="a_node6"><a xlink:href="classsignal__easel_1_1aprs_1_1Receiver.html#afbf7869aceaf2ea7ab0be8b9af16e818" target="_top" xlink:title=" ">
<polygon fill="none" stroke="black" points="0,-69 0,-99 107,-99 107,-69 0,-69"/>
<text text-anchor="start" x="8" y="-87" font-family="Helvetica,sans-Serif" font-size="10.00">signal_easel::aprs</text>
<text text-anchor="middle" x="53.5" y="-76" font-family="Helvetica,sans-Serif" font-size="10.00">::Receiver::decode</text>
</a>
</g>
</g>
<!-- Node5&#45;&gt;Node6 -->
<g id="edge5" class="edge">
<title>Node5&#45;&gt;Node6</title>
<path fill="none" stroke="midnightblue" d="M132.73,-84C124.02,-84 115.37,-84 107.16,-84"/>
<polygon fill="midnightblue" stroke="midnightblue" points="132.95,-87.5 142.95,-84 132.95,-80.5 132.95,-87.5"/>
</g>
</g>
</svg>
