<?xml version="1.0" encoding="UTF-8" standalone="no"?>
<!DOCTYPE svg PUBLIC "-//W3C//DTD SVG 1.1//EN"
 "http://www.w3.org/Graphics/SVG/1.1/DTD/svg11.dtd">
<!-- Generated by graphviz version 2.43.0 (0)
 -->
<!-- Title: signal_easel::afsk::Modulator Pages: 1 -->
<svg width="1028pt" height="739pt"
 viewBox="0.00 0.00 1028.00 739.00" xmlns="http://www.w3.org/2000/svg" xmlns:xlink="http://www.w3.org/1999/xlink">
<g id="graph0" class="graph" transform="scale(1 1) rotate(0) translate(4 735)">
<title>signal_easel::afsk::Modulator</title>
<!-- Node1 -->
<g id="node1" class="node">
<title>Node1</title>
<g id="a_node1"><a xlink:title="Modulates data into an AFSK signal.">
<polygon fill="#bfbfbf" stroke="black" points="474,-0.5 474,-101.5 578,-101.5 578,-0.5 474,-0.5"/>
<text text-anchor="start" x="482" y="-89.5" font-family="Helvetica,sans-Serif" font-size="10.00">signal_easel::afsk</text>
<text text-anchor="middle" x="526" y="-78.5" font-family="Helvetica,sans-Serif" font-size="10.00">::Modulator</text>
<polyline fill="none" stroke="black" points="474,-71.5 578,-71.5 "/>
<text text-anchor="middle" x="526" y="-59.5" font-family="Helvetica,sans-Serif" font-size="10.00"> </text>
<polyline fill="none" stroke="black" points="474,-52.5 578,-52.5 "/>
<text text-anchor="start" x="482" y="-40.5" font-family="Helvetica,sans-Serif" font-size="10.00">+ Modulator()</text>
<text text-anchor="start" x="482" y="-29.5" font-family="Helvetica,sans-Serif" font-size="10.00">+ ~Modulator()</text>
<text text-anchor="start" x="482" y="-18.5" font-family="Helvetica,sans-Serif" font-size="10.00"># encodeBytes()</text>
<text text-anchor="start" x="482" y="-7.5" font-family="Helvetica,sans-Serif" font-size="10.00">&#45; convertToNRZI()</text>
</a>
</g>
</g>
<!-- Node2 -->
<g id="node2" class="node">
<title>Node2</title>
<g id="a_node2"><a xlink:href="classsignal__easel_1_1DataModulator.html" target="_top" xlink:title="Another abstract base class for modulators that turn text/binary data into audio.">
<polygon fill="none" stroke="black" points="83,-193.5 83,-294.5 239,-294.5 239,-193.5 83,-193.5"/>
<text text-anchor="middle" x="161" y="-282.5" font-family="Helvetica,sans-Serif" font-size="10.00">signal_easel::DataModulator</text>
<polyline fill="none" stroke="black" points="83,-275.5 239,-275.5 "/>
<text text-anchor="middle" x="161" y="-263.5" font-family="Helvetica,sans-Serif" font-size="10.00"> </text>
<polyline fill="none" stroke="black" points="83,-256.5 239,-256.5 "/>
<text text-anchor="start" x="91" y="-244.5" font-family="Helvetica,sans-Serif" font-size="10.00">+ DataModulator()</text>
<text text-anchor="start" x="91" y="-233.5" font-family="Helvetica,sans-Serif" font-size="10.00">+ ~DataModulator()</text>
<text text-anchor="start" x="91" y="-222.5" font-family="Helvetica,sans-Serif" font-size="10.00">+ addBytes()</text>
<text text-anchor="start" x="91" y="-211.5" font-family="Helvetica,sans-Serif" font-size="10.00">+ addString()</text>
<text text-anchor="start" x="91" y="-200.5" font-family="Helvetica,sans-Serif" font-size="10.00"># encodeBytes()</text>
</a>
</g>
</g>
<!-- Node2&#45;&gt;Node1 -->
<g id="edge1" class="edge">
<title>Node2&#45;&gt;Node1</title>
<path fill="none" stroke="midnightblue" d="M194.98,-184.78C211.3,-161.49 232.81,-136.35 258,-120 324.53,-76.81 416.84,-61.05 473.93,-55.29"/>
<polygon fill="none" stroke="midnightblue" points="191.95,-183.03 189.21,-193.26 197.73,-186.97 191.95,-183.03"/>
</g>
<!-- Node3 -->
<g id="node3" class="node">
<title>Node3</title>
<g id="a_node3"><a xlink:href="classsignal__easel_1_1Modulator.html" target="_top" xlink:title="The abstract base class for all modulators that turn data into audio.">
<polygon fill="none" stroke="black" points="77,-342.5 77,-498.5 229,-498.5 229,-342.5 77,-342.5"/>
<text text-anchor="middle" x="153" y="-486.5" font-family="Helvetica,sans-Serif" font-size="10.00">signal_easel::Modulator</text>
<polyline fill="none" stroke="black" points="77,-479.5 229,-479.5 "/>
<text text-anchor="middle" x="153" y="-467.5" font-family="Helvetica,sans-Serif" font-size="10.00"> </text>
<polyline fill="none" stroke="black" points="77,-460.5 229,-460.5 "/>
<text text-anchor="start" x="85" y="-448.5" font-family="Helvetica,sans-Serif" font-size="10.00">+ Modulator()</text>
<text text-anchor="start" x="85" y="-437.5" font-family="Helvetica,sans-Serif" font-size="10.00">+ ~Modulator()</text>
<text text-anchor="start" x="85" y="-426.5" font-family="Helvetica,sans-Serif" font-size="10.00">+ clearBuffer()</text>
<text text-anchor="start" x="85" y="-415.5" font-family="Helvetica,sans-Serif" font-size="10.00">+ writeToFile()</text>
<text text-anchor="start" x="85" y="-404.5" font-family="Helvetica,sans-Serif" font-size="10.00">+ writeToPulseAudio()</text>
<text text-anchor="start" x="85" y="-393.5" font-family="Helvetica,sans-Serif" font-size="10.00"># addAudioSample()</text>
<text text-anchor="start" x="85" y="-382.5" font-family="Helvetica,sans-Serif" font-size="10.00"># addAudioSampleDouble()</text>
<text text-anchor="start" x="85" y="-371.5" font-family="Helvetica,sans-Serif" font-size="10.00"># addSilence()</text>
<text text-anchor="start" x="85" y="-360.5" font-family="Helvetica,sans-Serif" font-size="10.00"># addSineWave()</text>
<text text-anchor="start" x="85" y="-349.5" font-family="Helvetica,sans-Serif" font-size="10.00">&#45; addMorseCode()</text>
</a>
</g>
</g>
<!-- Node3&#45;&gt;Node2 -->
<g id="edge2" class="edge">
<title>Node3&#45;&gt;Node2</title>
<path fill="none" stroke="midnightblue" d="M157.01,-332.13C157.6,-319.22 158.19,-306.33 158.73,-294.56"/>
<polygon fill="none" stroke="midnightblue" points="153.49,-332.3 156.53,-342.45 160.49,-332.62 153.49,-332.3"/>
</g>
<!-- Node4 -->
<g id="node4" class="node">
<title>Node4</title>
<g id="a_node4"><a xlink:title=" ">
<polygon fill="none" stroke="#bfbfbf" points="247,-673.5 247,-730.5 297,-730.5 297,-673.5 247,-673.5"/>
<text text-anchor="middle" x="272" y="-718.5" font-family="Helvetica,sans-Serif" font-size="10.00">double</text>
<polyline fill="none" stroke="#bfbfbf" points="247,-711.5 297,-711.5 "/>
<text text-anchor="middle" x="272" y="-699.5" font-family="Helvetica,sans-Serif" font-size="10.00"> </text>
<polyline fill="none" stroke="#bfbfbf" points="247,-692.5 297,-692.5 "/>
<text text-anchor="middle" x="272" y="-680.5" font-family="Helvetica,sans-Serif" font-size="10.00"> </text>
</a>
</g>
</g>
<!-- Node4&#45;&gt;Node1 -->
<g id="edge14" class="edge">
<title>Node4&#45;&gt;Node1</title>
<path fill="none" stroke="#404040" d="M272,-673.2C272,-647.87 272,-609.42 272,-576 272,-576 272,-576 272,-243 272,-147.95 387.04,-94.33 462.28,-69.42"/>
<polygon fill="none" stroke="#404040" points="462.56,-69.33 467.05,-63.69 473.99,-65.67 469.49,-71.31 462.56,-69.33"/>
<text text-anchor="start" x="272" y="-434.5" font-family="Helvetica,sans-Serif" font-size="10.00"> &#45;CENTER_OVER_SAMPLE</text>
<text text-anchor="middle" x="334" y="-423.5" font-family="Helvetica,sans-Serif" font-size="10.00">_FREQ_</text>
<text text-anchor="start" x="272" y="-412.5" font-family="Helvetica,sans-Serif" font-size="10.00">&#45;DELTA_OVER_SAMPLE</text>
<text text-anchor="middle" x="334" y="-401.5" font-family="Helvetica,sans-Serif" font-size="10.00">_FREQ_</text>
</g>
<!-- Node4&#45;&gt;Node3 -->
<g id="edge3" class="edge">
<title>Node4&#45;&gt;Node3</title>
<path fill="none" stroke="#404040" d="M246.8,-687.81C219.56,-672 177.56,-642.7 159,-604 145.39,-575.61 141.43,-541.78 141.69,-511.01"/>
<polygon fill="none" stroke="#404040" points="141.69,-510.93 137.85,-504.83 142.01,-498.93 145.85,-505.03 141.69,-510.93"/>
<text text-anchor="middle" x="208.5" y="-572.5" font-family="Helvetica,sans-Serif" font-size="10.00"> &#45;sine_wave_phase_</text>
</g>
<!-- Node6 -->
<g id="node6" class="node">
<title>Node6</title>
<g id="a_node6"><a xlink:href="structsignal__easel_1_1Settings.html" target="_top" xlink:title="The universal settings for MWAV.">
<polygon fill="none" stroke="black" points="352.5,-546.5 352.5,-603.5 475.5,-603.5 475.5,-546.5 352.5,-546.5"/>
<text text-anchor="middle" x="414" y="-591.5" font-family="Helvetica,sans-Serif" font-size="10.00">signal_easel::Settings</text>
<polyline fill="none" stroke="black" points="352.5,-584.5 475.5,-584.5 "/>
<text text-anchor="middle" x="414" y="-572.5" font-family="Helvetica,sans-Serif" font-size="10.00"> </text>
<polyline fill="none" stroke="black" points="352.5,-565.5 475.5,-565.5 "/>
<text text-anchor="middle" x="414" y="-553.5" font-family="Helvetica,sans-Serif" font-size="10.00"> </text>
</a>
</g>
</g>
<!-- Node4&#45;&gt;Node6 -->
<g id="edge6" class="edge">
<title>Node4&#45;&gt;Node6</title>
<path fill="none" stroke="#404040" d="M285.63,-673.15C294.74,-656.7 307.98,-636.35 324,-622 329.36,-617.2 335.31,-612.76 341.52,-608.68"/>
<polygon fill="none" stroke="#404040" points="341.94,-608.43 344.97,-601.88 352.18,-602.17 349.14,-608.71 341.94,-608.43"/>
<text text-anchor="middle" x="367" y="-647" font-family="Helvetica,sans-Serif" font-size="10.00"> +amplitude</text>
<text text-anchor="start" x="324" y="-636" font-family="Helvetica,sans-Serif" font-size="10.00">+call_sign_pause</text>
<text text-anchor="middle" x="367" y="-625" font-family="Helvetica,sans-Serif" font-size="10.00">_seconds</text>
</g>
<!-- Node5 -->
<g id="node5" class="node">
<title>Node5</title>
<g id="a_node5"><a xlink:title=" ">
<polygon fill="none" stroke="#bfbfbf" points="0,-546.5 0,-603.5 104,-603.5 104,-546.5 0,-546.5"/>
<text text-anchor="middle" x="52" y="-591.5" font-family="Helvetica,sans-Serif" font-size="10.00">vector&lt; int16_t &gt;</text>
<polyline fill="none" stroke="#bfbfbf" points="0,-584.5 104,-584.5 "/>
<text text-anchor="middle" x="52" y="-572.5" font-family="Helvetica,sans-Serif" font-size="10.00"> </text>
<polyline fill="none" stroke="#bfbfbf" points="0,-565.5 104,-565.5 "/>
<text text-anchor="middle" x="52" y="-553.5" font-family="Helvetica,sans-Serif" font-size="10.00"> </text>
</a>
</g>
</g>
<!-- Node5&#45;&gt;Node3 -->
<g id="edge4" class="edge">
<title>Node5&#45;&gt;Node3</title>
<path fill="none" stroke="#404040" d="M48.24,-546.4C48.01,-536.75 49.03,-526.07 53,-517 57.12,-507.6 62.65,-498.67 69.02,-490.32"/>
<polygon fill="none" stroke="#404040" points="69.22,-490.08 69.93,-482.9 76.83,-480.8 76.12,-487.97 69.22,-490.08"/>
<text text-anchor="middle" x="92" y="-520" font-family="Helvetica,sans-Serif" font-size="10.00"> #audio_buffer_</text>
</g>
<!-- Node6&#45;&gt;Node3 -->
<g id="edge5" class="edge">
<title>Node6&#45;&gt;Node3</title>
<path fill="none" stroke="#404040" d="M352.2,-549.99C320.67,-536.69 282.27,-518.85 250,-499 246.4,-496.79 242.79,-494.46 239.18,-492.05"/>
<polygon fill="none" stroke="#404040" points="238.92,-491.87 231.71,-491.75 229.05,-485.05 236.26,-485.17 238.92,-491.87"/>
<text text-anchor="middle" x="331" y="-520" font-family="Helvetica,sans-Serif" font-size="10.00"> #settings_</text>
</g>
<!-- Node10 -->
<g id="node10" class="node">
<title>Node10</title>
<g id="a_node10"><a xlink:href="structsignal__easel_1_1afsk_1_1Settings.html" target="_top" xlink:title="Settings for AFSK modulation/demodulation.">
<polygon fill="none" stroke="black" points="454,-210 454,-278 558,-278 558,-210 454,-210"/>
<text text-anchor="start" x="462" y="-266" font-family="Helvetica,sans-Serif" font-size="10.00">signal_easel::afsk</text>
<text text-anchor="middle" x="506" y="-255" font-family="Helvetica,sans-Serif" font-size="10.00">::Settings</text>
<polyline fill="none" stroke="black" points="454,-248 558,-248 "/>
<text text-anchor="middle" x="506" y="-236" font-family="Helvetica,sans-Serif" font-size="10.00"> </text>
<polyline fill="none" stroke="black" points="454,-229 558,-229 "/>
<text text-anchor="middle" x="506" y="-217" font-family="Helvetica,sans-Serif" font-size="10.00"> </text>
</a>
</g>
</g>
<!-- Node6&#45;&gt;Node10 -->
<g id="edge11" class="edge">
<title>Node6&#45;&gt;Node10</title>
<path fill="none" stroke="midnightblue" d="M411.82,-535.93C410.44,-482.83 413.98,-384.97 452,-313 458.41,-300.87 467.08,-288.77 475.61,-278.21"/>
<polygon fill="none" stroke="midnightblue" points="408.34,-536.36 412.17,-546.24 415.33,-536.13 408.34,-536.36"/>
</g>
<!-- Node7 -->
<g id="node7" class="node">
<title>Node7</title>
<g id="a_node7"><a xlink:title=" ">
<polygon fill="none" stroke="#bfbfbf" points="372.5,-673.5 372.5,-730.5 455.5,-730.5 455.5,-673.5 372.5,-673.5"/>
<text text-anchor="middle" x="414" y="-718.5" font-family="Helvetica,sans-Serif" font-size="10.00">CallSignMode</text>
<polyline fill="none" stroke="#bfbfbf" points="372.5,-711.5 455.5,-711.5 "/>
<text text-anchor="middle" x="414" y="-699.5" font-family="Helvetica,sans-Serif" font-size="10.00"> </text>
<polyline fill="none" stroke="#bfbfbf" points="372.5,-692.5 455.5,-692.5 "/>
<text text-anchor="middle" x="414" y="-680.5" font-family="Helvetica,sans-Serif" font-size="10.00"> </text>
</a>
</g>
</g>
<!-- Node7&#45;&gt;Node6 -->
<g id="edge7" class="edge">
<title>Node7&#45;&gt;Node6</title>
<path fill="none" stroke="#404040" d="M414,-673.26C414,-656.35 414,-634.46 414,-615.73"/>
<polygon fill="none" stroke="#404040" points="414,-615.66 410,-609.66 414,-603.66 418,-609.66 414,-615.66"/>
<text text-anchor="middle" x="458" y="-636" font-family="Helvetica,sans-Serif" font-size="10.00"> +call_sign_mode</text>
</g>
<!-- Node8 -->
<g id="node8" class="node">
<title>Node8</title>
<g id="a_node8"><a xlink:title=" ">
<polygon fill="none" stroke="#bfbfbf" points="503,-673.5 503,-730.5 547,-730.5 547,-673.5 503,-673.5"/>
<text text-anchor="middle" x="525" y="-718.5" font-family="Helvetica,sans-Serif" font-size="10.00">string</text>
<polyline fill="none" stroke="#bfbfbf" points="503,-711.5 547,-711.5 "/>
<text text-anchor="middle" x="525" y="-699.5" font-family="Helvetica,sans-Serif" font-size="10.00"> </text>
<polyline fill="none" stroke="#bfbfbf" points="503,-692.5 547,-692.5 "/>
<text text-anchor="middle" x="525" y="-680.5" font-family="Helvetica,sans-Serif" font-size="10.00"> </text>
</a>
</g>
</g>
<!-- Node8&#45;&gt;Node6 -->
<g id="edge8" class="edge">
<title>Node8&#45;&gt;Node6</title>
<path fill="none" stroke="#404040" d="M522.8,-673.24C520.25,-656.82 514.77,-636.47 503,-622 498.18,-616.07 492.38,-610.81 486.1,-606.18"/>
<polygon fill="none" stroke="#404040" points="485.88,-606.04 478.67,-606.06 475.88,-599.41 483.09,-599.39 485.88,-606.04"/>
<text text-anchor="middle" x="546.5" y="-636" font-family="Helvetica,sans-Serif" font-size="10.00"> +call_sign</text>
</g>
<!-- Node9 -->
<g id="node9" class="node">
<title>Node9</title>
<g id="a_node9"><a xlink:title=" ">
<polygon fill="none" stroke="#bfbfbf" points="372,-215.5 372,-272.5 416,-272.5 416,-215.5 372,-215.5"/>
<text text-anchor="middle" x="394" y="-260.5" font-family="Helvetica,sans-Serif" font-size="10.00">int8_t</text>
<polyline fill="none" stroke="#bfbfbf" points="372,-253.5 416,-253.5 "/>
<text text-anchor="middle" x="394" y="-241.5" font-family="Helvetica,sans-Serif" font-size="10.00"> </text>
<polyline fill="none" stroke="#bfbfbf" points="372,-234.5 416,-234.5 "/>
<text text-anchor="middle" x="394" y="-222.5" font-family="Helvetica,sans-Serif" font-size="10.00"> </text>
</a>
</g>
</g>
<!-- Node9&#45;&gt;Node1 -->
<g id="edge9" class="edge">
<title>Node9&#45;&gt;Node1</title>
<path fill="none" stroke="#404040" d="M388.34,-215.28C384.49,-188.71 382.91,-148.55 401,-120 415.15,-97.67 439.3,-82.13 462.63,-71.6"/>
<polygon fill="none" stroke="#404040" points="462.91,-71.48 466.88,-65.47 473.97,-66.83 469.99,-72.84 462.91,-71.48"/>
<text text-anchor="start" x="401" y="-156" font-family="Helvetica,sans-Serif" font-size="10.00"> &#45;current_bipolar_bit</text>
<text text-anchor="middle" x="455.5" y="-145" font-family="Helvetica,sans-Serif" font-size="10.00">_</text>
<text text-anchor="middle" x="455.5" y="-134" font-family="Helvetica,sans-Serif" font-size="10.00">&#45;previous_bipolar_bit_</text>
</g>
<!-- Node10&#45;&gt;Node1 -->
<g id="edge10" class="edge">
<title>Node10&#45;&gt;Node1</title>
<path fill="none" stroke="#404040" d="M509.48,-209.73C512.24,-183.41 516.17,-145.91 519.5,-114.08"/>
<polygon fill="none" stroke="#404040" points="519.54,-113.67 516.19,-107.29 520.79,-101.74 524.15,-108.12 519.54,-113.67"/>
<text text-anchor="middle" x="545" y="-145" font-family="Helvetica,sans-Serif" font-size="10.00"> &#45;settings_</text>
</g>
<!-- Node11 -->
<g id="node11" class="node">
<title>Node11</title>
<g id="a_node11"><a xlink:title=" ">
<polygon fill="none" stroke="#bfbfbf" points="452,-392 452,-449 526,-449 526,-392 452,-392"/>
<text text-anchor="middle" x="489" y="-437" font-family="Helvetica,sans-Serif" font-size="10.00">BitEncoding</text>
<polyline fill="none" stroke="#bfbfbf" points="452,-430 526,-430 "/>
<text text-anchor="middle" x="489" y="-418" font-family="Helvetica,sans-Serif" font-size="10.00"> </text>
<polyline fill="none" stroke="#bfbfbf" points="452,-411 526,-411 "/>
<text text-anchor="middle" x="489" y="-399" font-family="Helvetica,sans-Serif" font-size="10.00"> </text>
</a>
</g>
</g>
<!-- Node11&#45;&gt;Node10 -->
<g id="edge12" class="edge">
<title>Node11&#45;&gt;Node10</title>
<path fill="none" stroke="#404040" d="M471.81,-391.81C460.62,-370.25 449.55,-339.61 458,-313 460.74,-304.38 465,-295.91 469.89,-288.04"/>
<polygon fill="none" stroke="#404040" points="469.9,-288.02 469.92,-280.81 476.59,-278.06 476.56,-285.27 469.9,-288.02"/>
<text text-anchor="middle" x="495" y="-316" font-family="Helvetica,sans-Serif" font-size="10.00"> +bit_encoding</text>
</g>
<!-- Node12 -->
<g id="node12" class="node">
<title>Node12</title>
<g id="a_node12"><a xlink:title=" ">
<polygon fill="none" stroke="#bfbfbf" points="607,-392 607,-449 645,-449 645,-392 607,-392"/>
<text text-anchor="middle" x="626" y="-437" font-family="Helvetica,sans-Serif" font-size="10.00">bool</text>
<polyline fill="none" stroke="#bfbfbf" points="607,-430 645,-430 "/>
<text text-anchor="middle" x="626" y="-418" font-family="Helvetica,sans-Serif" font-size="10.00"> </text>
<polyline fill="none" stroke="#bfbfbf" points="607,-411 645,-411 "/>
<text text-anchor="middle" x="626" y="-399" font-family="Helvetica,sans-Serif" font-size="10.00"> </text>
</a>
</g>
</g>
<!-- Node12&#45;&gt;Node1 -->
<g id="edge17" class="edge">
<title>Node12&#45;&gt;Node1</title>
<path fill="none" stroke="#404040" d="M645.02,-398.32C661.48,-377.42 681.52,-344.15 674,-313 655.83,-237.76 608.89,-161.93 572.7,-111.54"/>
<polygon fill="none" stroke="#404040" points="572.68,-111.52 565.91,-109.02 565.62,-101.81 572.38,-104.31 572.68,-111.52"/>
<text text-anchor="start" x="668" y="-247" font-family="Helvetica,sans-Serif" font-size="10.00"> &#45;nrzi_previous_tone</text>
<text text-anchor="middle" x="718" y="-236" font-family="Helvetica,sans-Serif" font-size="10.00">_mark_</text>
</g>
<!-- Node12&#45;&gt;Node10 -->
<g id="edge13" class="edge">
<title>Node12&#45;&gt;Node10</title>
<path fill="none" stroke="#404040" d="M606.73,-394.78C592.1,-375.74 571.73,-348.6 555,-324 547.29,-312.66 539.29,-300.14 532.06,-288.48"/>
<polygon fill="none" stroke="#404040" points="531.94,-288.29 525.39,-285.27 525.66,-278.07 532.21,-281.08 531.94,-288.29"/>
<text text-anchor="middle" x="614.5" y="-316" font-family="Helvetica,sans-Serif" font-size="10.00"> +include_ascii_padding</text>
</g>
<!-- Node13 -->
<g id="node13" class="node">
<title>Node13</title>
<g id="a_node13"><a xlink:title=" ">
<polygon fill="none" stroke="#bfbfbf" points="806,-215.5 806,-272.5 856,-272.5 856,-215.5 806,-215.5"/>
<text text-anchor="middle" x="831" y="-260.5" font-family="Helvetica,sans-Serif" font-size="10.00">int32_t</text>
<polyline fill="none" stroke="#bfbfbf" points="806,-253.5 856,-253.5 "/>
<text text-anchor="middle" x="831" y="-241.5" font-family="Helvetica,sans-Serif" font-size="10.00"> </text>
<polyline fill="none" stroke="#bfbfbf" points="806,-234.5 856,-234.5 "/>
<text text-anchor="middle" x="831" y="-222.5" font-family="Helvetica,sans-Serif" font-size="10.00"> </text>
</a>
</g>
</g>
<!-- Node13&#45;&gt;Node1 -->
<g id="edge15" class="edge">
<title>Node13&#45;&gt;Node1</title>
<path fill="none" stroke="#404040" d="M811.22,-215.34C805.36,-207.8 798.71,-199.84 792,-193 755.93,-156.24 746.57,-145.82 702,-120 666.88,-99.66 624.54,-83.08 590.18,-71.38"/>
<polygon fill="none" stroke="#404040" points="589.77,-71.25 582.81,-73.14 578.39,-67.45 585.34,-65.55 589.77,-71.25"/>
<text text-anchor="middle" x="814" y="-145" font-family="Helvetica,sans-Serif" font-size="10.00"> &#45;integral_value_</text>
</g>
<!-- Node14 -->
<g id="node14" class="node">
<title>Node14</title>
<g id="a_node14"><a xlink:title=" ">
<polygon fill="none" stroke="#bfbfbf" points="891,-215.5 891,-272.5 947,-272.5 947,-215.5 891,-215.5"/>
<text text-anchor="middle" x="919" y="-260.5" font-family="Helvetica,sans-Serif" font-size="10.00">uint32_t</text>
<polyline fill="none" stroke="#bfbfbf" points="891,-253.5 947,-253.5 "/>
<text text-anchor="middle" x="919" y="-241.5" font-family="Helvetica,sans-Serif" font-size="10.00"> </text>
<polyline fill="none" stroke="#bfbfbf" points="891,-234.5 947,-234.5 "/>
<text text-anchor="middle" x="919" y="-222.5" font-family="Helvetica,sans-Serif" font-size="10.00"> </text>
</a>
</g>
</g>
<!-- Node14&#45;&gt;Node1 -->
<g id="edge16" class="edge">
<title>Node14&#45;&gt;Node1</title>
<path fill="none" stroke="#404040" d="M913.12,-215.49C905.57,-187.1 889.61,-143.72 859,-120 817.77,-88.05 674.65,-67.8 590.05,-58.32"/>
<polygon fill="none" stroke="#404040" points="589.94,-58.31 583.54,-61.63 578.01,-57 584.41,-53.68 589.94,-58.31"/>
<text text-anchor="start" x="897" y="-167" font-family="Helvetica,sans-Serif" font-size="10.00"> &#45;OVER_SAMPLE_FACTOR</text>
<text text-anchor="middle" x="958.5" y="-156" font-family="Helvetica,sans-Serif" font-size="10.00">_</text>
<text text-anchor="start" x="897" y="-145" font-family="Helvetica,sans-Serif" font-size="10.00">&#45;SAMPLES_PER_SYMBOL</text>
<text text-anchor="middle" x="958.5" y="-134" font-family="Helvetica,sans-Serif" font-size="10.00">_</text>
<text text-anchor="middle" x="958.5" y="-123" font-family="Helvetica,sans-Serif" font-size="10.00">&#45;SAMPLE_FREQUENCY_</text>
</g>
</g>
</svg>
