<?xml version="1.0" encoding="UTF-8" standalone="no"?>
<!DOCTYPE svg PUBLIC "-//W3C//DTD SVG 1.1//EN"
 "http://www.w3.org/Graphics/SVG/1.1/DTD/svg11.dtd">
<!-- Generated by graphviz version 2.43.0 (0)
 -->
<!-- Title: signal_easel::ax25::Address::isSsidValid Pages: 1 -->
<svg width="1481pt" height="362pt"
 viewBox="0.00 0.00 1481.00 361.50" xmlns="http://www.w3.org/2000/svg" xmlns:xlink="http://www.w3.org/1999/xlink">
<g id="graph0" class="graph" transform="scale(1 1) rotate(0) translate(4 357.5)">
<title>signal_easel::ax25::Address::isSsidValid</title>
<!-- Node1 -->
<g id="node1" class="node">
<title>Node1</title>
<g id="a_node1"><a xlink:title=" ">
<polygon fill="#bfbfbf" stroke="black" points="1353,-147 1353,-177 1473,-177 1473,-147 1353,-147"/>
<text text-anchor="start" x="1361" y="-165" font-family="Helvetica,sans-Serif" font-size="10.00">signal_easel::ax25</text>
<text text-anchor="middle" x="1413" y="-154" font-family="Helvetica,sans-Serif" font-size="10.00">::Address::isSsidValid</text>
</a>
</g>
</g>
<!-- Node2 -->
<g id="node2" class="node">
<title>Node2</title>
<g id="a_node2"><a xlink:href="classsignal__easel_1_1ax25_1_1Address.html#a8b44c6e311d3462bd86eda03c1d384f0" target="_top" xlink:title=" ">
<polygon fill="none" stroke="black" points="1167,-171 1167,-201 1317,-201 1317,-171 1167,-171"/>
<text text-anchor="start" x="1175" y="-189" font-family="Helvetica,sans-Serif" font-size="10.00">signal_easel::ax25</text>
<text text-anchor="middle" x="1242" y="-178" font-family="Helvetica,sans-Serif" font-size="10.00">::Address::assertSsidIsValid</text>
</a>
</g>
</g>
<!-- Node1&#45;&gt;Node2 -->
<g id="edge1" class="edge">
<title>Node1&#45;&gt;Node2</title>
<path fill="none" stroke="midnightblue" d="M1342.75,-171.83C1334.34,-173.03 1325.71,-174.25 1317.23,-175.46"/>
<polygon fill="midnightblue" stroke="midnightblue" points="1343.48,-175.27 1352.89,-170.39 1342.5,-168.33 1343.48,-175.27"/>
</g>
<!-- Node23 -->
<g id="node23" class="node">
<title>Node23</title>
<g id="a_node23"><a xlink:href="classsignal__easel_1_1ax25_1_1Address.html#aae81920cfd0dc7d89cb107f9d825488c" target="_top" xlink:title="If the address is valid (can be encoded correctly or was decoded)">
<polygon fill="none" stroke="black" points="1012.5,-122 1012.5,-152 1119.5,-152 1119.5,-122 1012.5,-122"/>
<text text-anchor="start" x="1020.5" y="-140" font-family="Helvetica,sans-Serif" font-size="10.00">signal_easel::ax25</text>
<text text-anchor="middle" x="1066" y="-129" font-family="Helvetica,sans-Serif" font-size="10.00">::Address::isValid</text>
</a>
</g>
</g>
<!-- Node1&#45;&gt;Node23 -->
<g id="edge29" class="edge">
<title>Node1&#45;&gt;Node23</title>
<path fill="none" stroke="midnightblue" d="M1342.41,-156.96C1276.57,-152.19 1179.2,-145.13 1119.61,-140.81"/>
<polygon fill="midnightblue" stroke="midnightblue" points="1342.47,-160.47 1352.69,-157.7 1342.97,-153.49 1342.47,-160.47"/>
</g>
<!-- Node3 -->
<g id="node3" class="node">
<title>Node3</title>
<g id="a_node3"><a xlink:href="classsignal__easel_1_1ax25_1_1Address.html#a7fa6b0ef4241413893f201660991e4ea" target="_top" xlink:title="Checks if the address is valid, if not throws an exception with a specific error code.">
<polygon fill="none" stroke="black" points="1001,-171 1001,-201 1131,-201 1131,-171 1001,-171"/>
<text text-anchor="start" x="1009" y="-189" font-family="Helvetica,sans-Serif" font-size="10.00">signal_easel::ax25</text>
<text text-anchor="middle" x="1066" y="-178" font-family="Helvetica,sans-Serif" font-size="10.00">::Address::assertIsValid</text>
</a>
</g>
</g>
<!-- Node2&#45;&gt;Node3 -->
<g id="edge2" class="edge">
<title>Node2&#45;&gt;Node3</title>
<path fill="none" stroke="midnightblue" d="M1156.83,-186C1148.17,-186 1139.48,-186 1131.09,-186"/>
<polygon fill="midnightblue" stroke="midnightblue" points="1156.96,-189.5 1166.96,-186 1156.96,-182.5 1156.96,-189.5"/>
</g>
<!-- Node21 -->
<g id="node21" class="node">
<title>Node21</title>
<g id="a_node21"><a xlink:href="classsignal__easel_1_1ax25_1_1Address.html#a069a8d96c0d74e4a3288876c429c7187" target="_top" xlink:title="Set the SSID (0&#45;15)">
<polygon fill="none" stroke="black" points="1012.5,-288 1012.5,-318 1119.5,-318 1119.5,-288 1012.5,-288"/>
<text text-anchor="start" x="1020.5" y="-306" font-family="Helvetica,sans-Serif" font-size="10.00">signal_easel::ax25</text>
<text text-anchor="middle" x="1066" y="-295" font-family="Helvetica,sans-Serif" font-size="10.00">::Address::setSsid</text>
</a>
</g>
</g>
<!-- Node2&#45;&gt;Node21 -->
<g id="edge27" class="edge">
<title>Node2&#45;&gt;Node21</title>
<path fill="none" stroke="midnightblue" d="M1210.3,-206.65C1175.73,-229.89 1120.4,-267.09 1089.58,-287.82"/>
<polygon fill="midnightblue" stroke="midnightblue" points="1212.26,-209.54 1218.61,-201.06 1208.36,-203.73 1212.26,-209.54"/>
</g>
<!-- Node4 -->
<g id="node4" class="node">
<title>Node4</title>
<g id="a_node4"><a xlink:href="classsignal__easel_1_1ax25_1_1Frame.html#af86d4b534367a8faf6b628301c9ffceb" target="_top" xlink:title=" ">
<polygon fill="none" stroke="black" points="799.5,-39 799.5,-69 960.5,-69 960.5,-39 799.5,-39"/>
<text text-anchor="start" x="807.5" y="-57" font-family="Helvetica,sans-Serif" font-size="10.00">signal_easel::ax25</text>
<text text-anchor="middle" x="880" y="-46" font-family="Helvetica,sans-Serif" font-size="10.00">::Frame::addRepeaterAddress</text>
</a>
</g>
</g>
<!-- Node3&#45;&gt;Node4 -->
<g id="edge3" class="edge">
<title>Node3&#45;&gt;Node4</title>
<path fill="none" stroke="midnightblue" d="M1006.23,-165.46C1004.39,-164.06 1002.64,-162.58 1001,-161 972.05,-133.1 995.23,-104.51 965,-78 961.12,-74.6 956.79,-71.68 952.2,-69.17"/>
<polygon fill="midnightblue" stroke="midnightblue" points="1004.46,-168.48 1014.75,-171 1008.27,-162.61 1004.46,-168.48"/>
</g>
<!-- Node11 -->
<g id="node11" class="node">
<title>Node11</title>
<g id="a_node11"><a xlink:href="classsignal__easel_1_1ax25_1_1Address.html#a0c31737081a9184b56dc32150b23cb0a" target="_top" xlink:title="Get the address as a byte array.">
<polygon fill="none" stroke="black" points="809,-274 809,-304 951,-304 951,-274 809,-274"/>
<text text-anchor="start" x="817" y="-292" font-family="Helvetica,sans-Serif" font-size="10.00">signal_easel::ax25</text>
<text text-anchor="middle" x="880" y="-281" font-family="Helvetica,sans-Serif" font-size="10.00">::Address::encodeAddress</text>
</a>
</g>
</g>
<!-- Node3&#45;&gt;Node11 -->
<g id="edge10" class="edge">
<title>Node3&#45;&gt;Node11</title>
<path fill="none" stroke="midnightblue" d="M1039.83,-207.54C1020.38,-223.38 992.26,-244.57 965,-259 954.32,-264.65 942.36,-269.64 930.87,-273.85"/>
<polygon fill="midnightblue" stroke="midnightblue" points="1042.13,-210.19 1047.61,-201.12 1037.67,-204.79 1042.13,-210.19"/>
</g>
<!-- Node17 -->
<g id="node17" class="node">
<title>Node17</title>
<g id="a_node17"><a xlink:href="classsignal__easel_1_1ax25_1_1Frame.html#a57b163ece54317da8d95f3b18b47c23d" target="_top" xlink:title="setters/getters for the frame.">
<polygon fill="none" stroke="black" points="795,-137 795,-167 965,-167 965,-137 795,-137"/>
<text text-anchor="start" x="803" y="-155" font-family="Helvetica,sans-Serif" font-size="10.00">signal_easel::ax25</text>
<text text-anchor="middle" x="880" y="-144" font-family="Helvetica,sans-Serif" font-size="10.00">::Frame::setDestinationAddress</text>
</a>
</g>
</g>
<!-- Node3&#45;&gt;Node17 -->
<g id="edge17" class="edge">
<title>Node3&#45;&gt;Node17</title>
<path fill="none" stroke="midnightblue" d="M990.85,-172.3C981.47,-170.56 971.83,-168.78 962.35,-167.03"/>
<polygon fill="midnightblue" stroke="midnightblue" points="990.43,-175.78 1000.9,-174.16 991.71,-168.9 990.43,-175.78"/>
</g>
<!-- Node19 -->
<g id="node19" class="node">
<title>Node19</title>
<g id="a_node19"><a xlink:href="ax25__frame__test_8cpp.html#a091d83d42783f2a0b3fd33a0521dc2ce" target="_top" xlink:title=" ">
<polygon fill="none" stroke="black" points="657.5,-186.5 657.5,-205.5 698.5,-205.5 698.5,-186.5 657.5,-186.5"/>
<text text-anchor="middle" x="678" y="-193.5" font-family="Helvetica,sans-Serif" font-size="10.00">TEST</text>
</a>
</g>
</g>
<!-- Node3&#45;&gt;Node19 -->
<g id="edge26" class="edge">
<title>Node3&#45;&gt;Node19</title>
<path fill="none" stroke="midnightblue" d="M1026.61,-205.34C1008.42,-213.45 986.11,-221.93 965,-226 890.81,-240.29 869.86,-236.2 795,-226 778.55,-223.76 775.06,-220.24 759,-216 738.51,-210.59 714.98,-204.75 698.76,-200.79"/>
<polygon fill="midnightblue" stroke="midnightblue" points="1028.08,-208.52 1035.71,-201.16 1025.16,-202.16 1028.08,-208.52"/>
</g>
<!-- Node20 -->
<g id="node20" class="node">
<title>Node20</title>
<g id="a_node20"><a xlink:href="classsignal__easel_1_1ax25_1_1Frame.html#a402d26a81f82bb5c477e8930b75a771e" target="_top" xlink:title=" ">
<polygon fill="none" stroke="black" points="807,-88 807,-118 953,-118 953,-88 807,-88"/>
<text text-anchor="start" x="815" y="-106" font-family="Helvetica,sans-Serif" font-size="10.00">signal_easel::ax25</text>
<text text-anchor="middle" x="880" y="-95" font-family="Helvetica,sans-Serif" font-size="10.00">::Frame::setSourceAddress</text>
</a>
</g>
</g>
<!-- Node3&#45;&gt;Node20 -->
<g id="edge22" class="edge">
<title>Node3&#45;&gt;Node20</title>
<path fill="none" stroke="midnightblue" d="M1010.77,-166.56C1007.39,-164.82 1004.11,-162.97 1001,-161 982.41,-149.22 984.13,-137.89 965,-127 959.07,-123.62 952.63,-120.69 946.04,-118.15"/>
<polygon fill="midnightblue" stroke="midnightblue" points="1009.32,-169.76 1019.86,-170.91 1012.34,-163.44 1009.32,-169.76"/>
</g>
<!-- Node5 -->
<g id="node5" class="node">
<title>Node5</title>
<g id="a_node5"><a xlink:href="classsignal__easel_1_1ax25_1_1Frame.html#a40b07872c291deee87c677459a27c21c" target="_top" xlink:title="Attempt to parse a single AX.25 frame from an already NRZI&#45;decoded bit stream. Unlike parseBitStream,...">
<polygon fill="none" stroke="black" points="597,-76.5 597,-117.5 759,-117.5 759,-76.5 597,-76.5"/>
<text text-anchor="start" x="605" y="-105.5" font-family="Helvetica,sans-Serif" font-size="10.00">signal_easel::ax25</text>
<text text-anchor="start" x="605" y="-94.5" font-family="Helvetica,sans-Serif" font-size="10.00">::Frame::parseNrziDecodedBit</text>
<text text-anchor="middle" x="678" y="-83.5" font-family="Helvetica,sans-Serif" font-size="10.00">Stream</text>
</a>
</g>
</g>
<!-- Node4&#45;&gt;Node5 -->
<g id="edge4" class="edge">
<title>Node4&#45;&gt;Node5</title>
<path fill="none" stroke="midnightblue" d="M799.11,-71.18C785.96,-74 772.33,-76.93 759.18,-79.76"/>
<polygon fill="midnightblue" stroke="midnightblue" points="800.01,-74.56 809.05,-69.04 798.54,-67.72 800.01,-74.56"/>
</g>
<!-- Node6 -->
<g id="node6" class="node">
<title>Node6</title>
<g id="a_node6"><a xlink:href="classsignal__easel_1_1aprs_1_1Demodulator.html#ab4819ac606d0ebf3e5ac235a3bf916df" target="_top" xlink:title="Like lookForAx25Packet, but parses a single AX.25 frame from an already NRZI&#45;decoded bit stream....">
<polygon fill="none" stroke="black" points="409,-93.5 409,-134.5 561,-134.5 561,-93.5 409,-93.5"/>
<text text-anchor="start" x="417" y="-122.5" font-family="Helvetica,sans-Serif" font-size="10.00">signal_easel::aprs</text>
<text text-anchor="start" x="417" y="-111.5" font-family="Helvetica,sans-Serif" font-size="10.00">::Demodulator::lookForNext</text>
<text text-anchor="middle" x="485" y="-100.5" font-family="Helvetica,sans-Serif" font-size="10.00">Ax25Packet</text>
</a>
</g>
</g>
<!-- Node5&#45;&gt;Node6 -->
<g id="edge5" class="edge">
<title>Node5&#45;&gt;Node6</title>
<path fill="none" stroke="midnightblue" d="M586.78,-105.03C578.18,-105.8 569.52,-106.57 561.09,-107.32"/>
<polygon fill="midnightblue" stroke="midnightblue" points="587.18,-108.51 596.83,-104.14 586.56,-101.54 587.18,-108.51"/>
</g>
<!-- Node8 -->
<g id="node8" class="node">
<title>Node8</title>
<g id="a_node8"><a xlink:href="classsignal__easel_1_1ax25_1_1Frame.html#a63cf2362c2a90d20f09bbbc4f24a07ba" target="_top" xlink:title="Attempt to parse an incoming bit stream into an AX.25 frame.">
<polygon fill="none" stroke="black" points="417.5,-44 417.5,-74 552.5,-74 552.5,-44 417.5,-44"/>
<text text-anchor="start" x="425.5" y="-62" font-family="Helvetica,sans-Serif" font-size="10.00">signal_easel::ax25</text>
<text text-anchor="middle" x="485" y="-51" font-family="Helvetica,sans-Serif" font-size="10.00">::Frame::parseBitStream</text>
</a>
</g>
</g>
<!-- Node5&#45;&gt;Node8 -->
<g id="edge7" class="edge">
<title>Node5&#45;&gt;Node8</title>
<path fill="none" stroke="midnightblue" d="M586.78,-79.05C575.29,-76.76 563.7,-74.46 552.68,-72.27"/>
<polygon fill="midnightblue" stroke="midnightblue" points="586.34,-82.53 596.83,-81.05 587.7,-75.67 586.34,-82.53"/>
</g>
<!-- Node7 -->
<g id="node7" class="node">
<title>Node7</title>
<g id="a_node7"><a xlink:href="classsignal__easel_1_1aprs_1_1Receiver.html#afbf7869aceaf2ea7ab0be8b9af16e818" target="_top" xlink:title=" ">
<polygon fill="none" stroke="black" points="266,-99 266,-129 373,-129 373,-99 266,-99"/>
<text text-anchor="start" x="274" y="-117" font-family="Helvetica,sans-Serif" font-size="10.00">signal_easel::aprs</text>
<text text-anchor="middle" x="319.5" y="-106" font-family="Helvetica,sans-Serif" font-size="10.00">::Receiver::decode</text>
</a>
</g>
</g>
<!-- Node6&#45;&gt;Node7 -->
<g id="edge6" class="edge">
<title>Node6&#45;&gt;Node7</title>
<path fill="none" stroke="midnightblue" d="M398.73,-114C390.02,-114 381.37,-114 373.16,-114"/>
<polygon fill="midnightblue" stroke="midnightblue" points="398.95,-117.5 408.95,-114 398.95,-110.5 398.95,-117.5"/>
</g>
<!-- Node9 -->
<g id="node9" class="node">
<title>Node9</title>
<g id="a_node9"><a xlink:href="classsignal__easel_1_1aprs_1_1Demodulator.html#ae5a8e7634c1bc8d215a0c454a9a737fa" target="_top" xlink:title=" ">
<polygon fill="none" stroke="black" points="77,-63.5 77,-104.5 230,-104.5 230,-63.5 77,-63.5"/>
<text text-anchor="start" x="85" y="-92.5" font-family="Helvetica,sans-Serif" font-size="10.00">signal_easel::aprs</text>
<text text-anchor="start" x="85" y="-81.5" font-family="Helvetica,sans-Serif" font-size="10.00">::Demodulator::lookForAx25</text>
<text text-anchor="middle" x="153.5" y="-70.5" font-family="Helvetica,sans-Serif" font-size="10.00">Packet</text>
</a>
</g>
</g>
<!-- Node8&#45;&gt;Node9 -->
<g id="edge8" class="edge">
<title>Node8&#45;&gt;Node9</title>
<path fill="none" stroke="midnightblue" d="M407.23,-64.82C353.87,-68.87 283.09,-74.24 230.01,-78.27"/>
<polygon fill="midnightblue" stroke="midnightblue" points="407.61,-68.31 417.32,-64.06 407.08,-61.33 407.61,-68.31"/>
</g>
<!-- Node10 -->
<g id="node10" class="node">
<title>Node10</title>
<g id="a_node10"><a xlink:href="aprs__test_8cpp.html#aea66d1824e3f1e27598adf99ac6a089a" target="_top" xlink:title=" ">
<polygon fill="none" stroke="black" points="0,-101.5 0,-120.5 41,-120.5 41,-101.5 0,-101.5"/>
<text text-anchor="middle" x="20.5" y="-108.5" font-family="Helvetica,sans-Serif" font-size="10.00">TEST</text>
</a>
</g>
</g>
<!-- Node9&#45;&gt;Node10 -->
<g id="edge9" class="edge">
<title>Node9&#45;&gt;Node10</title>
<path fill="none" stroke="midnightblue" d="M66.67,-101.69C57.26,-103.63 48.46,-105.44 41.18,-106.94"/>
<polygon fill="midnightblue" stroke="midnightblue" points="67.59,-105.07 76.68,-99.63 66.18,-98.22 67.59,-105.07"/>
</g>
<!-- Node12 -->
<g id="node12" class="node">
<title>Node12</title>
<g id="a_node12"><a xlink:href="classsignal__easel_1_1ax25_1_1Frame.html#a24e7d5ffc6504a3380e97142d1bc084e" target="_top" xlink:title="Builds all internal portions of the frame. Doesn&#39;t include the flags.">
<polygon fill="none" stroke="black" points="621,-225 621,-255 735,-255 735,-225 621,-225"/>
<text text-anchor="start" x="629" y="-243" font-family="Helvetica,sans-Serif" font-size="10.00">signal_easel::ax25</text>
<text text-anchor="middle" x="678" y="-232" font-family="Helvetica,sans-Serif" font-size="10.00">::Frame::buildFrame</text>
</a>
</g>
</g>
<!-- Node11&#45;&gt;Node12 -->
<g id="edge11" class="edge">
<title>Node11&#45;&gt;Node12</title>
<path fill="none" stroke="midnightblue" d="M807.91,-271.58C784.02,-265.73 757.72,-259.29 735.14,-253.75"/>
<polygon fill="midnightblue" stroke="midnightblue" points="807.09,-274.99 817.63,-273.97 808.75,-268.19 807.09,-274.99"/>
</g>
<!-- Node16 -->
<g id="node16" class="node">
<title>Node16</title>
<g id="a_node16"><a xlink:href="ax25__address__test_8cpp.html#a1d87028368532ba4ae914da9397571d3" target="_top" xlink:title=" ">
<polygon fill="none" stroke="black" points="657.5,-279.5 657.5,-298.5 698.5,-298.5 698.5,-279.5 657.5,-279.5"/>
<text text-anchor="middle" x="678" y="-286.5" font-family="Helvetica,sans-Serif" font-size="10.00">TEST</text>
</a>
</g>
</g>
<!-- Node11&#45;&gt;Node16 -->
<g id="edge16" class="edge">
<title>Node11&#45;&gt;Node16</title>
<path fill="none" stroke="midnightblue" d="M798.6,-289C762.14,-289 722.07,-289 698.8,-289"/>
<polygon fill="midnightblue" stroke="midnightblue" points="798.77,-292.5 808.77,-289 798.77,-285.5 798.77,-292.5"/>
</g>
<!-- Node13 -->
<g id="node13" class="node">
<title>Node13</title>
<g id="a_node13"><a xlink:href="classsignal__easel_1_1ax25_1_1Frame.html#a2b4f6ebcb7592a7e5a21114c8fafa503" target="_top" xlink:title="A step beyond buildFrame. This function builds the frame, does the bit stuffing, adds the flags,...">
<polygon fill="none" stroke="black" points="422.5,-214 422.5,-244 547.5,-244 547.5,-214 422.5,-214"/>
<text text-anchor="start" x="430.5" y="-232" font-family="Helvetica,sans-Serif" font-size="10.00">signal_easel::ax25</text>
<text text-anchor="middle" x="485" y="-221" font-family="Helvetica,sans-Serif" font-size="10.00">::Frame::encodeFrame</text>
</a>
</g>
</g>
<!-- Node12&#45;&gt;Node13 -->
<g id="edge12" class="edge">
<title>Node12&#45;&gt;Node13</title>
<path fill="none" stroke="midnightblue" d="M610.8,-236.19C590.32,-235.01 567.86,-233.71 547.7,-232.55"/>
<polygon fill="midnightblue" stroke="midnightblue" points="610.8,-239.69 620.98,-236.77 611.2,-232.7 610.8,-239.69"/>
</g>
<!-- Node14 -->
<g id="node14" class="node">
<title>Node14</title>
<g id="a_node14"><a xlink:href="namespacesignal__easel_1_1aprs.html#a77481001a5b78a839972bb4220b43e4d" target="_top" xlink:title="The base function to encode an APRS packet with the provided base data and info field.">
<polygon fill="none" stroke="black" points="267.5,-148 267.5,-178 371.5,-178 371.5,-148 267.5,-148"/>
<text text-anchor="start" x="275.5" y="-166" font-family="Helvetica,sans-Serif" font-size="10.00">signal_easel::aprs</text>
<text text-anchor="middle" x="319.5" y="-155" font-family="Helvetica,sans-Serif" font-size="10.00">::encodePacket</text>
</a>
</g>
</g>
<!-- Node13&#45;&gt;Node14 -->
<g id="edge13" class="edge">
<title>Node13&#45;&gt;Node14</title>
<path fill="none" stroke="midnightblue" d="M437.14,-210.08C411.97,-199.92 381.38,-187.57 357.84,-178.07"/>
<polygon fill="midnightblue" stroke="midnightblue" points="435.91,-213.36 446.49,-213.86 438.53,-206.87 435.91,-213.36"/>
</g>
<!-- Node15 -->
<g id="node15" class="node">
<title>Node15</title>
<g id="a_node15"><a xlink:href="classsignal__easel_1_1aprs_1_1Modulator.html#a8ae067701382dec1680b786583ace687" target="_top" xlink:title=" ">
<polygon fill="none" stroke="black" points="97,-133 97,-163 210,-163 210,-133 97,-133"/>
<text text-anchor="start" x="105" y="-151" font-family="Helvetica,sans-Serif" font-size="10.00">signal_easel::aprs</text>
<text text-anchor="middle" x="153.5" y="-140" font-family="Helvetica,sans-Serif" font-size="10.00">::Modulator::encode</text>
</a>
</g>
</g>
<!-- Node14&#45;&gt;Node15 -->
<g id="edge14" class="edge">
<title>Node14&#45;&gt;Node15</title>
<path fill="none" stroke="midnightblue" d="M257.09,-157.38C241.64,-155.97 225.16,-154.46 210.02,-153.08"/>
<polygon fill="midnightblue" stroke="midnightblue" points="256.78,-160.87 267.06,-158.3 257.42,-153.9 256.78,-160.87"/>
</g>
<!-- Node15&#45;&gt;Node10 -->
<g id="edge15" class="edge">
<title>Node15&#45;&gt;Node10</title>
<path fill="none" stroke="midnightblue" d="M89.5,-130.21C71.9,-125.24 54.06,-120.2 41.08,-116.53"/>
<polygon fill="midnightblue" stroke="midnightblue" points="88.64,-133.6 99.22,-132.95 90.55,-126.86 88.64,-133.6"/>
</g>
<!-- Node17&#45;&gt;Node5 -->
<g id="edge20" class="edge">
<title>Node17&#45;&gt;Node5</title>
<path fill="none" stroke="midnightblue" d="M814.44,-134.25C795.12,-128.93 773.76,-123.06 753.83,-117.58"/>
<polygon fill="midnightblue" stroke="midnightblue" points="813.78,-137.69 824.35,-136.97 815.64,-130.94 813.78,-137.69"/>
</g>
<!-- Node18 -->
<g id="node18" class="node">
<title>Node18</title>
<g id="a_node18"><a xlink:href="namespacesignal__easel_1_1aprs.html#a586b022fa0c917fa8557bbd5cdc6aeeb" target="_top" xlink:title=" ">
<polygon fill="none" stroke="black" points="621.5,-137 621.5,-167 734.5,-167 734.5,-137 621.5,-137"/>
<text text-anchor="start" x="629.5" y="-155" font-family="Helvetica,sans-Serif" font-size="10.00">signal_easel::aprs</text>
<text text-anchor="middle" x="678" y="-144" font-family="Helvetica,sans-Serif" font-size="10.00">::AddRequiredFields</text>
</a>
</g>
</g>
<!-- Node17&#45;&gt;Node18 -->
<g id="edge18" class="edge">
<title>Node17&#45;&gt;Node18</title>
<path fill="none" stroke="midnightblue" d="M784.72,-152C767.6,-152 750.25,-152 734.7,-152"/>
<polygon fill="midnightblue" stroke="midnightblue" points="784.76,-155.5 794.76,-152 784.76,-148.5 784.76,-155.5"/>
</g>
<!-- Node17&#45;&gt;Node19 -->
<g id="edge21" class="edge">
<title>Node17&#45;&gt;Node19</title>
<path fill="none" stroke="midnightblue" d="M800.91,-169.18C763.83,-177.34 722.52,-186.42 698.77,-191.65"/>
<polygon fill="midnightblue" stroke="midnightblue" points="801.72,-172.59 810.73,-167.02 800.21,-165.75 801.72,-172.59"/>
</g>
<!-- Node18&#45;&gt;Node14 -->
<g id="edge19" class="edge">
<title>Node18&#45;&gt;Node14</title>
<path fill="none" stroke="midnightblue" d="M610.96,-154.04C541.84,-156.17 434.78,-159.47 371.77,-161.42"/>
<polygon fill="midnightblue" stroke="midnightblue" points="611.41,-157.53 621.3,-153.72 611.19,-150.53 611.41,-157.53"/>
</g>
<!-- Node20&#45;&gt;Node5 -->
<g id="edge24" class="edge">
<title>Node20&#45;&gt;Node5</title>
<path fill="none" stroke="midnightblue" d="M796.54,-100.53C784.21,-100.16 771.51,-99.78 759.23,-99.41"/>
<polygon fill="midnightblue" stroke="midnightblue" points="796.69,-104.03 806.8,-100.83 796.9,-97.04 796.69,-104.03"/>
</g>
<!-- Node20&#45;&gt;Node18 -->
<g id="edge23" class="edge">
<title>Node20&#45;&gt;Node18</title>
<path fill="none" stroke="midnightblue" d="M807.87,-120.43C783.87,-126.31 757.45,-132.78 734.81,-138.33"/>
<polygon fill="midnightblue" stroke="midnightblue" points="808.75,-123.81 817.63,-118.03 807.09,-117.01 808.75,-123.81"/>
</g>
<!-- Node20&#45;&gt;Node19 -->
<g id="edge25" class="edge">
<title>Node20&#45;&gt;Node19</title>
<path fill="none" stroke="midnightblue" d="M802.05,-122.59C799.62,-123.96 797.26,-125.43 795,-127 772.82,-142.43 781.44,-160.94 759,-176 740.81,-188.21 715.79,-192.97 698.6,-194.82"/>
<polygon fill="midnightblue" stroke="midnightblue" points="803.78,-125.64 811.15,-118.03 800.64,-119.38 803.78,-125.64"/>
</g>
<!-- Node22 -->
<g id="node22" class="node">
<title>Node22</title>
<g id="a_node22"><a xlink:href="classsignal__easel_1_1ax25_1_1Address.html#af2e2c1061b619a32d966d4b08eed7ede" target="_top" xlink:title=" ">
<polygon fill="none" stroke="black" points="826.5,-323 826.5,-353 933.5,-353 933.5,-323 826.5,-323"/>
<text text-anchor="start" x="834.5" y="-341" font-family="Helvetica,sans-Serif" font-size="10.00">signal_easel::ax25</text>
<text text-anchor="middle" x="880" y="-330" font-family="Helvetica,sans-Serif" font-size="10.00">::Address::Address</text>
</a>
</g>
</g>
<!-- Node21&#45;&gt;Node22 -->
<g id="edge28" class="edge">
<title>Node21&#45;&gt;Node22</title>
<path fill="none" stroke="midnightblue" d="M1002.23,-314.94C979.94,-319.18 955.1,-323.9 933.73,-327.97"/>
<polygon fill="midnightblue" stroke="midnightblue" points="1003.1,-318.34 1012.27,-313.03 1001.8,-311.46 1003.1,-318.34"/>
</g>
<!-- Node24 -->
<g id="node24" class="node">
<title>Node24</title>
<g id="a_node24"><a xlink:href="classsignal__easel_1_1ax25_1_1Frame.html#a640edeabbda34e78cc243e3561747bf9" target="_top" xlink:title=" ">
<polygon fill="none" stroke="black" points="819,-186 819,-216 941,-216 941,-186 819,-186"/>
<text text-anchor="start" x="827" y="-204" font-family="Helvetica,sans-Serif" font-size="10.00">signal_easel::ax25</text>
<text text-anchor="middle" x="880" y="-193" font-family="Helvetica,sans-Serif" font-size="10.00">::Frame::isFrameValid</text>
</a>
</g>
</g>
<!-- Node23&#45;&gt;Node24 -->
<g id="edge30" class="edge">
<title>Node23&#45;&gt;Node24</title>
<path fill="none" stroke="midnightblue" d="M1014.76,-155.65C1010.1,-157.43 1005.46,-159.24 1001,-161 984.88,-167.38 981.33,-170.19 965,-176 955.25,-179.47 944.76,-182.86 934.6,-185.97"/>
<polygon fill="midnightblue" stroke="midnightblue" points="1016.19,-158.85 1024.29,-152.02 1013.7,-152.3 1016.19,-158.85"/>
</g>
<!-- Node25 -->
<g id="node25" class="node">
<title>Node25</title>
<g id="a_node25"><a xlink:href="ax25__address__test_8cpp.html#afa443d4d5f700a003ec7cac34596dcba" target="_top" xlink:title=" ">
<polygon fill="none" stroke="black" points="859.5,-0.5 859.5,-19.5 900.5,-19.5 900.5,-0.5 859.5,-0.5"/>
<text text-anchor="middle" x="880" y="-7.5" font-family="Helvetica,sans-Serif" font-size="10.00">TEST</text>
</a>
</g>
</g>
<!-- Node23&#45;&gt;Node25 -->
<g id="edge33" class="edge">
<title>Node23&#45;&gt;Node25</title>
<path fill="none" stroke="midnightblue" d="M1049.56,-113.24C1032.09,-88.31 1001.27,-49.92 965,-29 944.92,-17.42 918.37,-12.9 900.53,-11.13"/>
<polygon fill="midnightblue" stroke="midnightblue" points="1046.85,-115.47 1055.38,-121.75 1052.63,-111.52 1046.85,-115.47"/>
</g>
<!-- Node24&#45;&gt;Node12 -->
<g id="edge31" class="edge">
<title>Node24&#45;&gt;Node12</title>
<path fill="none" stroke="midnightblue" d="M809.16,-214.62C784.96,-219.34 758.16,-224.56 735.2,-229.04"/>
<polygon fill="midnightblue" stroke="midnightblue" points="809.85,-218.05 818.99,-212.7 808.51,-211.18 809.85,-218.05"/>
</g>
<!-- Node24&#45;&gt;Node19 -->
<g id="edge32" class="edge">
<title>Node24&#45;&gt;Node19</title>
<path fill="none" stroke="midnightblue" d="M808.72,-199.24C769.71,-198.27 724.08,-197.13 698.66,-196.49"/>
<polygon fill="midnightblue" stroke="midnightblue" points="808.91,-202.75 818.99,-199.5 809.08,-195.75 808.91,-202.75"/>
</g>
</g>
</svg>
