<?xml version="1.0" encoding="UTF-8" standalone="no"?>
<!DOCTYPE svg PUBLIC "-//W3C//DTD SVG 1.1//EN"
 "http://www.w3.org/Graphics/SVG/1.1/DTD/svg11.dtd">
<!-- Generated by graphviz version 2.43.0 (0)
 -->
<!-- Title: signal_easel::aprs::Receiver Pages: 1 -->
<svg width="136pt" height="386pt"
 viewBox="0.00 0.00 136.00 386.00" xmlns="http://www.w3.org/2000/svg" xmlns:xlink="http://www.w3.org/1999/xlink">
<g id="graph0" class="graph" transform="scale(1 1) rotate(0) translate(4 382)">
<title>signal_easel::aprs::Receiver</title>
<!-- Node1 -->
<g id="node1" class="node">
<title>Node1</title>
<g id="a_node1"><a xlink:title=" ">
<polygon fill="#bfbfbf" stroke="black" points="5.5,-0.5 5.5,-79.5 122.5,-79.5 122.5,-0.5 5.5,-0.5"/>
<text text-anchor="start" x="13.5" y="-67.5" font-family="Helvetica,sans-Serif" font-size="10.00">signal_easel::aprs</text>
<text text-anchor="middle" x="64" y="-56.5" font-family="Helvetica,sans-Serif" font-size="10.00">::Receiver</text>
<polyline fill="none" stroke="black" points="5.5,-49.5 122.5,-49.5 "/>
<text text-anchor="start" x="13.5" y="-37.5" font-family="Helvetica,sans-Serif" font-size="10.00">&#45; aprs_demodulator_</text>
<polyline fill="none" stroke="black" points="5.5,-30.5 122.5,-30.5 "/>
<text text-anchor="start" x="13.5" y="-18.5" font-family="Helvetica,sans-Serif" font-size="10.00">+ Receiver()</text>
<text text-anchor="start" x="13.5" y="-7.5" font-family="Helvetica,sans-Serif" font-size="10.00">+ decode()</text>
</a>
</g>
</g>
<!-- Node2 -->
<g id="node2" class="node">
<title>Node2</title>
<g id="a_node2"><a xlink:href="classsignal__easel_1_1afsk_1_1Receiver.html" target="_top" xlink:title="For receiving AFSK signals via a pulse audio stream.">
<polygon fill="none" stroke="black" points="12,-116.5 12,-250.5 116,-250.5 116,-116.5 12,-116.5"/>
<text text-anchor="start" x="20" y="-238.5" font-family="Helvetica,sans-Serif" font-size="10.00">signal_easel::afsk</text>
<text text-anchor="middle" x="64" y="-227.5" font-family="Helvetica,sans-Serif" font-size="10.00">::Receiver</text>
<polyline fill="none" stroke="black" points="12,-220.5 116,-220.5 "/>
<text text-anchor="start" x="20" y="-208.5" font-family="Helvetica,sans-Serif" font-size="10.00"># afsk_settings_</text>
<text text-anchor="start" x="20" y="-197.5" font-family="Helvetica,sans-Serif" font-size="10.00"># demodulator_</text>
<text text-anchor="start" x="20" y="-186.5" font-family="Helvetica,sans-Serif" font-size="10.00"># receive_buffer_</text>
<polyline fill="none" stroke="black" points="12,-179.5 116,-179.5 "/>
<text text-anchor="start" x="20" y="-167.5" font-family="Helvetica,sans-Serif" font-size="10.00">+ Receiver()</text>
<text text-anchor="start" x="20" y="-156.5" font-family="Helvetica,sans-Serif" font-size="10.00">+ ~Receiver()</text>
<text text-anchor="start" x="20" y="-145.5" font-family="Helvetica,sans-Serif" font-size="10.00">+ process()</text>
<text text-anchor="start" x="20" y="-134.5" font-family="Helvetica,sans-Serif" font-size="10.00"># decode()</text>
<text text-anchor="start" x="20" y="-123.5" font-family="Helvetica,sans-Serif" font-size="10.00"># detectSignal()</text>
</a>
</g>
</g>
<!-- Node2&#45;&gt;Node1 -->
<g id="edge1" class="edge">
<title>Node2&#45;&gt;Node1</title>
<path fill="none" stroke="midnightblue" d="M64,-106.03C64,-96.95 64,-87.99 64,-79.76"/>
<polygon fill="none" stroke="midnightblue" points="60.5,-106.31 64,-116.31 67.5,-106.31 60.5,-106.31"/>
</g>
<!-- Node3 -->
<g id="node3" class="node">
<title>Node3</title>
<g id="a_node3"><a xlink:href="classsignal__easel_1_1Receiver.html" target="_top" xlink:title=" ">
<polygon fill="none" stroke="black" points="0,-287.5 0,-377.5 128,-377.5 128,-287.5 0,-287.5"/>
<text text-anchor="middle" x="64" y="-365.5" font-family="Helvetica,sans-Serif" font-size="10.00">signal_easel::Receiver</text>
<polyline fill="none" stroke="black" points="0,-358.5 128,-358.5 "/>
<text text-anchor="start" x="8" y="-346.5" font-family="Helvetica,sans-Serif" font-size="10.00"># pulse_audio_reader_</text>
<text text-anchor="start" x="8" y="-335.5" font-family="Helvetica,sans-Serif" font-size="10.00"># settings_</text>
<polyline fill="none" stroke="black" points="0,-328.5 128,-328.5 "/>
<text text-anchor="start" x="8" y="-316.5" font-family="Helvetica,sans-Serif" font-size="10.00">+ Receiver()</text>
<text text-anchor="start" x="8" y="-305.5" font-family="Helvetica,sans-Serif" font-size="10.00">+ ~Receiver()</text>
<text text-anchor="start" x="8" y="-294.5" font-family="Helvetica,sans-Serif" font-size="10.00">+ process()</text>
</a>
</g>
</g>
<!-- Node3&#45;&gt;Node2 -->
<g id="edge2" class="edge">
<title>Node3&#45;&gt;Node2</title>
<path fill="none" stroke="midnightblue" d="M64,-277.37C64,-268.66 64,-259.55 64,-250.59"/>
<polygon fill="none" stroke="midnightblue" points="60.5,-277.4 64,-287.4 67.5,-277.4 60.5,-277.4"/>
</g>
</g>
</svg>
