<?xml version="1.0" encoding="UTF-8" standalone="no"?>
<!DOCTYPE svg PUBLIC "-//W3C//DTD SVG 1.1//EN"
 "http://www.w3.org/Graphics/SVG/1.1/DTD/svg11.dtd">
<!-- Generated by graphviz version 2.43.0 (0)
 -->
<!-- Title: signal_easel::afsk::Demodulator::processAudioBuffer Pages: 1 -->
<svg width="1117pt" height="154pt"
 viewBox="0.00 0.00 1117.00 153.50" xmlns="http://www.w3.org/2000/svg" xmlns:xlink="http://www.w3.org/1999/xlink">
<g id="graph0" class="graph" transform="scale(1 1) rotate(0) translate(4 149.5)">
<title>signal_easel::afsk::Demodulator::processAudioBuffer</title>
<!-- Node1 -->
<g id="node1" class="node">
<title>Node1</title>
<g id="a_node1"><a xlink:title=" ">
<polygon fill="#bfbfbf" stroke="black" points="0,-30.5 0,-71.5 158,-71.5 158,-30.5 0,-30.5"/>
<text text-anchor="start" x="8" y="-59.5" font-family="Helvetica,sans-Serif" font-size="10.00">signal_easel::afsk</text>
<text text-anchor="start" x="8" y="-48.5" font-family="Helvetica,sans-Serif" font-size="10.00">::Demodulator::processAudio</text>
<text text-anchor="middle" x="79" y="-37.5" font-family="Helvetica,sans-Serif" font-size="10.00">Buffer</text>
</a>
</g>
</g>
<!-- Node2 -->
<g id="node2" class="node">
<title>Node2</title>
<g id="a_node2"><a xlink:href="classsignal__easel_1_1afsk_1_1Demodulator.html#a66398f52101a153c5158930c0584f161" target="_top" xlink:title="Takes the raw signal and converts it into the FSK baseband signal.">
<polygon fill="none" stroke="black" points="201.5,-60.5 201.5,-101.5 350.5,-101.5 350.5,-60.5 201.5,-60.5"/>
<text text-anchor="start" x="209.5" y="-89.5" font-family="Helvetica,sans-Serif" font-size="10.00">signal_easel::afsk</text>
<text text-anchor="start" x="209.5" y="-78.5" font-family="Helvetica,sans-Serif" font-size="10.00">::Demodulator::audioBuffer</text>
<text text-anchor="middle" x="276" y="-67.5" font-family="Helvetica,sans-Serif" font-size="10.00">ToBaseBandSignal</text>
</a>
</g>
</g>
<!-- Node1&#45;&gt;Node2 -->
<g id="edge1" class="edge">
<title>Node1&#45;&gt;Node2</title>
<path fill="none" stroke="midnightblue" d="M158.19,-63.03C169.06,-64.7 180.27,-66.43 191.23,-68.11"/>
<polygon fill="midnightblue" stroke="midnightblue" points="190.81,-71.59 201.22,-69.65 191.87,-64.67 190.81,-71.59"/>
</g>
<!-- Node10 -->
<g id="node10" class="node">
<title>Node10</title>
<g id="a_node10"><a xlink:href="classsignal__easel_1_1afsk_1_1Demodulator.html#afa479089583504851b2a4a767e397458" target="_top" xlink:title="Takes the base band signal and converts it into a bit stream if the signal is valid.">
<polygon fill="none" stroke="black" points="194,-0.5 194,-41.5 358,-41.5 358,-0.5 194,-0.5"/>
<text text-anchor="start" x="202" y="-29.5" font-family="Helvetica,sans-Serif" font-size="10.00">signal_easel::afsk</text>
<text text-anchor="start" x="202" y="-18.5" font-family="Helvetica,sans-Serif" font-size="10.00">::Demodulator::baseBandToBit</text>
<text text-anchor="middle" x="276" y="-7.5" font-family="Helvetica,sans-Serif" font-size="10.00">Stream</text>
</a>
</g>
</g>
<!-- Node1&#45;&gt;Node10 -->
<g id="edge9" class="edge">
<title>Node1&#45;&gt;Node10</title>
<path fill="none" stroke="midnightblue" d="M158.19,-38.97C166.64,-37.67 175.3,-36.34 183.89,-35.02"/>
<polygon fill="midnightblue" stroke="midnightblue" points="184.57,-38.45 193.92,-33.47 183.51,-31.53 184.57,-38.45"/>
</g>
<!-- Node3 -->
<g id="node3" class="node">
<title>Node3</title>
<g id="a_node3"><a xlink:href="namespacesignal__easel.html#a62db979f7f4a67d6a7d263788813e1b9" target="_top" xlink:title="A simple band&#45;pass filter.">
<polygon fill="none" stroke="black" points="394,-71.5 394,-90.5 548,-90.5 548,-71.5 394,-71.5"/>
<text text-anchor="middle" x="471" y="-78.5" font-family="Helvetica,sans-Serif" font-size="10.00">signal_easel::bandPassFilter</text>
</a>
</g>
</g>
<!-- Node2&#45;&gt;Node3 -->
<g id="edge2" class="edge">
<title>Node2&#45;&gt;Node3</title>
<path fill="none" stroke="midnightblue" d="M350.52,-81C361.36,-81 372.62,-81 383.7,-81"/>
<polygon fill="midnightblue" stroke="midnightblue" points="383.8,-84.5 393.8,-81 383.8,-77.5 383.8,-84.5"/>
</g>
<!-- Node4 -->
<g id="node4" class="node">
<title>Node4</title>
<g id="a_node4"><a xlink:href="namespacesignal__easel.html#afd47c8498c742658f934b9fccf52a74d" target="_top" xlink:title=" ">
<polygon fill="none" stroke="black" points="585.5,-115 585.5,-145 731.5,-145 731.5,-115 585.5,-115"/>
<text text-anchor="start" x="593.5" y="-133" font-family="Helvetica,sans-Serif" font-size="10.00">signal_easel::computeDen</text>
<text text-anchor="middle" x="658.5" y="-122" font-family="Helvetica,sans-Serif" font-size="10.00">Coeffs</text>
</a>
</g>
</g>
<!-- Node3&#45;&gt;Node4 -->
<g id="edge3" class="edge">
<title>Node3&#45;&gt;Node4</title>
<path fill="none" stroke="midnightblue" d="M508.21,-90.56C531.69,-96.77 563,-105.04 590.88,-112.4"/>
<polygon fill="midnightblue" stroke="midnightblue" points="590.01,-115.79 600.57,-114.96 591.8,-109.03 590.01,-115.79"/>
</g>
<!-- Node6 -->
<g id="node6" class="node">
<title>Node6</title>
<g id="a_node6"><a xlink:href="namespacesignal__easel.html#af5443e0125b511759ebeb7e4defb112d" target="_top" xlink:title=" ">
<polygon fill="none" stroke="black" points="584,-66 584,-96 733,-96 733,-66 584,-66"/>
<text text-anchor="start" x="592" y="-84" font-family="Helvetica,sans-Serif" font-size="10.00">signal_easel::computeNum</text>
<text text-anchor="middle" x="658.5" y="-73" font-family="Helvetica,sans-Serif" font-size="10.00">Coeffs</text>
</a>
</g>
</g>
<!-- Node3&#45;&gt;Node6 -->
<g id="edge5" class="edge">
<title>Node3&#45;&gt;Node6</title>
<path fill="none" stroke="midnightblue" d="M548.25,-81C556.64,-81 565.2,-81 573.67,-81"/>
<polygon fill="midnightblue" stroke="midnightblue" points="573.93,-84.5 583.93,-81 573.93,-77.5 573.93,-84.5"/>
</g>
<!-- Node9 -->
<g id="node9" class="node">
<title>Node9</title>
<g id="a_node9"><a xlink:href="namespacesignal__easel.html#a1b9537a0b58c35ffe0048a0eb3826ba4" target="_top" xlink:title=" ">
<polygon fill="none" stroke="black" points="605.5,-27.5 605.5,-46.5 711.5,-46.5 711.5,-27.5 605.5,-27.5"/>
<text text-anchor="middle" x="658.5" y="-34.5" font-family="Helvetica,sans-Serif" font-size="10.00">signal_easel::filter</text>
</a>
</g>
</g>
<!-- Node3&#45;&gt;Node9 -->
<g id="edge8" class="edge">
<title>Node3&#45;&gt;Node9</title>
<path fill="none" stroke="midnightblue" d="M512.25,-71.45C540.21,-64.82 577.65,-55.94 607.51,-48.86"/>
<polygon fill="midnightblue" stroke="midnightblue" points="608.41,-52.24 617.33,-46.53 606.79,-45.43 608.41,-52.24"/>
</g>
<!-- Node5 -->
<g id="node5" class="node">
<title>Node5</title>
<g id="a_node5"><a xlink:href="namespacesignal__easel.html#a3895406ee8a9253b288a6a015583be42" target="_top" xlink:title=" ">
<polygon fill="none" stroke="black" points="769,-120.5 769,-139.5 936,-139.5 936,-120.5 769,-120.5"/>
<text text-anchor="middle" x="852.5" y="-127.5" font-family="Helvetica,sans-Serif" font-size="10.00">signal_easel::trinomialMultiply</text>
</a>
</g>
</g>
<!-- Node4&#45;&gt;Node5 -->
<g id="edge4" class="edge">
<title>Node4&#45;&gt;Node5</title>
<path fill="none" stroke="midnightblue" d="M731.54,-130C740.35,-130 749.45,-130 758.52,-130"/>
<polygon fill="midnightblue" stroke="midnightblue" points="758.72,-133.5 768.72,-130 758.72,-126.5 758.72,-133.5"/>
</g>
<!-- Node7 -->
<g id="node7" class="node">
<title>Node7</title>
<g id="a_node7"><a xlink:href="namespacesignal__easel.html#a27a021f34e5a88ec2faa0b01087f9ec9" target="_top" xlink:title=" ">
<polygon fill="none" stroke="black" points="782.5,-71.5 782.5,-90.5 922.5,-90.5 922.5,-71.5 782.5,-71.5"/>
<text text-anchor="middle" x="852.5" y="-78.5" font-family="Helvetica,sans-Serif" font-size="10.00">signal_easel::computeHP</text>
</a>
</g>
</g>
<!-- Node6&#45;&gt;Node7 -->
<g id="edge6" class="edge">
<title>Node6&#45;&gt;Node7</title>
<path fill="none" stroke="midnightblue" d="M733.18,-81C745.95,-81 759.27,-81 772.18,-81"/>
<polygon fill="midnightblue" stroke="midnightblue" points="772.43,-84.5 782.43,-81 772.43,-77.5 772.43,-84.5"/>
</g>
<!-- Node8 -->
<g id="node8" class="node">
<title>Node8</title>
<g id="a_node8"><a xlink:href="namespacesignal__easel.html#a9772e972ada009af79d3f18221aca4e3" target="_top" xlink:title=" ">
<polygon fill="none" stroke="black" points="972,-71.5 972,-90.5 1109,-90.5 1109,-71.5 972,-71.5"/>
<text text-anchor="middle" x="1040.5" y="-78.5" font-family="Helvetica,sans-Serif" font-size="10.00">signal_easel::computeLP</text>
</a>
</g>
</g>
<!-- Node7&#45;&gt;Node8 -->
<g id="edge7" class="edge">
<title>Node7&#45;&gt;Node8</title>
<path fill="none" stroke="midnightblue" d="M922.76,-81C935.39,-81 948.65,-81 961.52,-81"/>
<polygon fill="midnightblue" stroke="midnightblue" points="961.73,-84.5 971.73,-81 961.73,-77.5 961.73,-84.5"/>
</g>
</g>
</svg>
