<?xml version="1.0" encoding="UTF-8" standalone="no"?>
<!DOCTYPE svg PUBLIC "-//W3C//DTD SVG 1.1//EN"
 "http://www.w3.org/Graphics/SVG/1.1/DTD/svg11.dtd">
<!-- Generated by graphviz version 2.43.0 (0)
 -->
<!-- Title: signal_easel::BitStream::getBitStreamLength Pages: 1 -->
<svg width="822pt" height="235pt"
 viewBox="0.00 0.00 822.00 235.00" xmlns="http://www.w3.org/2000/svg" xmlns:xlink="http://www.w3.org/1999/xlink">
<g id="graph0" class="graph" transform="scale(1 1) rotate(0) translate(4 231)">
<title>signal_easel::BitStream::getBitStreamLength</title>
<!-- Node1 -->
<g id="node1" class="node">
<title>Node1</title>
<g id="a_node1"><a xlink:title=" ">
<polygon fill="#bfbfbf" stroke="black" points="682,-98.5 682,-128.5 814,-128.5 814,-98.5 682,-98.5"/>
<text text-anchor="start" x="690" y="-116.5" font-family="Helvetica,sans-Serif" font-size="10.00">signal_easel::BitStream</text>
<text text-anchor="middle" x="748" y="-105.5" font-family="Helvetica,sans-Serif" font-size="10.00">::getBitStreamLength</text>
</a>
</g>
</g>
<!-- Node2 -->
<g id="node2" class="node">
<title>Node2</title>
<g id="a_node2"><a xlink:href="classsignal__easel_1_1psk_1_1Modulator.html#ad465eb5c136ada635cd01cdceb1dc402" target="_top" xlink:title=" ">
<polygon fill="none" stroke="black" points="504,-196.5 504,-226.5 646,-226.5 646,-196.5 504,-196.5"/>
<text text-anchor="start" x="512" y="-214.5" font-family="Helvetica,sans-Serif" font-size="10.00">signal_easel::psk::</text>
<text text-anchor="middle" x="575" y="-203.5" font-family="Helvetica,sans-Serif" font-size="10.00">Modulator::addPostamble</text>
</a>
</g>
</g>
<!-- Node1&#45;&gt;Node2 -->
<g id="edge1" class="edge">
<title>Node1&#45;&gt;Node2</title>
<path fill="none" stroke="midnightblue" d="M722,-135.15C702.38,-151.29 673.82,-172.97 646,-187.5 639.74,-190.77 632.93,-193.74 626.11,-196.4"/>
<polygon fill="midnightblue" stroke="midnightblue" points="724.41,-137.71 729.84,-128.61 719.92,-132.33 724.41,-137.71"/>
</g>
<!-- Node5 -->
<g id="node5" class="node">
<title>Node5</title>
<g id="a_node5"><a xlink:href="namespacesignal__easel_1_1ax25.html#a84e1d1bf82ef828a150bc94cf065e396" target="_top" xlink:title="Convert a bit stream from NRZI to standard encoding.">
<polygon fill="none" stroke="black" points="521.5,-147.5 521.5,-177.5 628.5,-177.5 628.5,-147.5 521.5,-147.5"/>
<text text-anchor="start" x="529.5" y="-165.5" font-family="Helvetica,sans-Serif" font-size="10.00">signal_easel::ax25</text>
<text text-anchor="middle" x="575" y="-154.5" font-family="Helvetica,sans-Serif" font-size="10.00">::decodeNrzi</text>
</a>
</g>
</g>
<!-- Node1&#45;&gt;Node5 -->
<g id="edge4" class="edge">
<title>Node1&#45;&gt;Node5</title>
<path fill="none" stroke="midnightblue" d="M684.55,-131.39C666.16,-136.66 646.23,-142.38 628.53,-147.45"/>
<polygon fill="midnightblue" stroke="midnightblue" points="685.65,-134.72 694.3,-128.6 683.72,-127.99 685.65,-134.72"/>
</g>
<!-- Node10 -->
<g id="node10" class="node">
<title>Node10</title>
<g id="a_node10"><a xlink:href="namespacesignal__easel_1_1ax25.html#aa3ad759477950552b79497f19c77ba0b" target="_top" xlink:title=" ">
<polygon fill="none" stroke="black" points="521.5,-98.5 521.5,-128.5 628.5,-128.5 628.5,-98.5 521.5,-98.5"/>
<text text-anchor="start" x="529.5" y="-116.5" font-family="Helvetica,sans-Serif" font-size="10.00">signal_easel::ax25</text>
<text text-anchor="middle" x="575" y="-105.5" font-family="Helvetica,sans-Serif" font-size="10.00">::deStuffBytes</text>
</a>
</g>
</g>
<!-- Node1&#45;&gt;Node10 -->
<g id="edge9" class="edge">
<title>Node1&#45;&gt;Node10</title>
<path fill="none" stroke="midnightblue" d="M671.46,-113.5C657.05,-113.5 642.26,-113.5 628.75,-113.5"/>
<polygon fill="midnightblue" stroke="midnightblue" points="671.86,-117 681.86,-113.5 671.86,-110 671.86,-117"/>
</g>
<!-- Node11 -->
<g id="node11" class="node">
<title>Node11</title>
<g id="a_node11"><a xlink:href="classsignal__easel_1_1ax25_1_1Frame.html#a2b4f6ebcb7592a7e5a21114c8fafa503" target="_top" xlink:title="A step beyond buildFrame. This function builds the frame, does the bit stuffing, adds the flags,...">
<polygon fill="none" stroke="black" points="512.5,-0.5 512.5,-30.5 637.5,-30.5 637.5,-0.5 512.5,-0.5"/>
<text text-anchor="start" x="520.5" y="-18.5" font-family="Helvetica,sans-Serif" font-size="10.00">signal_easel::ax25</text>
<text text-anchor="middle" x="575" y="-7.5" font-family="Helvetica,sans-Serif" font-size="10.00">::Frame::encodeFrame</text>
</a>
</g>
</g>
<!-- Node1&#45;&gt;Node11 -->
<g id="edge11" class="edge">
<title>Node1&#45;&gt;Node11</title>
<path fill="none" stroke="midnightblue" d="M722,-91.85C702.38,-75.71 673.82,-54.03 646,-39.5 639.74,-36.23 632.93,-33.26 626.11,-30.6"/>
<polygon fill="midnightblue" stroke="midnightblue" points="719.92,-94.67 729.84,-98.39 724.41,-89.29 719.92,-94.67"/>
</g>
<!-- Node14 -->
<g id="node14" class="node">
<title>Node14</title>
<g id="a_node14"><a xlink:href="namespacesignal__easel_1_1ax25.html#aedc3a21287bb20d2f0b01c9a2d6797f3" target="_top" xlink:title="Finds the start flags in the bit stream and removes them.">
<polygon fill="none" stroke="black" points="521.5,-49.5 521.5,-79.5 628.5,-79.5 628.5,-49.5 521.5,-49.5"/>
<text text-anchor="start" x="529.5" y="-67.5" font-family="Helvetica,sans-Serif" font-size="10.00">signal_easel::ax25</text>
<text text-anchor="middle" x="575" y="-56.5" font-family="Helvetica,sans-Serif" font-size="10.00">::findStartFlags</text>
</a>
</g>
</g>
<!-- Node1&#45;&gt;Node14 -->
<g id="edge15" class="edge">
<title>Node1&#45;&gt;Node14</title>
<path fill="none" stroke="midnightblue" d="M684.55,-95.61C666.16,-90.34 646.23,-84.62 628.53,-79.55"/>
<polygon fill="midnightblue" stroke="midnightblue" points="683.72,-99.01 694.3,-98.4 685.65,-92.28 683.72,-99.01"/>
</g>
<!-- Node3 -->
<g id="node3" class="node">
<title>Node3</title>
<g id="a_node3"><a xlink:href="classsignal__easel_1_1psk_1_1Modulator.html#acd4a6a5bac7af1c62ffaaa0ff1d9259f" target="_top" xlink:title=" ">
<polygon fill="none" stroke="black" points="332,-196.5 332,-226.5 468,-226.5 468,-196.5 332,-196.5"/>
<text text-anchor="start" x="340" y="-214.5" font-family="Helvetica,sans-Serif" font-size="10.00">signal_easel::psk::</text>
<text text-anchor="middle" x="400" y="-203.5" font-family="Helvetica,sans-Serif" font-size="10.00">Modulator::encodeString</text>
</a>
</g>
</g>
<!-- Node2&#45;&gt;Node3 -->
<g id="edge2" class="edge">
<title>Node2&#45;&gt;Node3</title>
<path fill="none" stroke="midnightblue" d="M493.41,-211.5C484.99,-211.5 476.48,-211.5 468.23,-211.5"/>
<polygon fill="midnightblue" stroke="midnightblue" points="493.63,-215 503.63,-211.5 493.63,-208 493.63,-215"/>
</g>
<!-- Node4 -->
<g id="node4" class="node">
<title>Node4</title>
<g id="a_node4"><a xlink:href="psk__test_8cpp.html#adc7973e853ae04677ba78e84bda93987" target="_top" xlink:title=" ">
<polygon fill="none" stroke="black" points="199,-202 199,-221 240,-221 240,-202 199,-202"/>
<text text-anchor="middle" x="219.5" y="-209" font-family="Helvetica,sans-Serif" font-size="10.00">TEST</text>
</a>
</g>
</g>
<!-- Node3&#45;&gt;Node4 -->
<g id="edge3" class="edge">
<title>Node3&#45;&gt;Node4</title>
<path fill="none" stroke="midnightblue" d="M321.72,-211.5C291.84,-211.5 260.12,-211.5 240.32,-211.5"/>
<polygon fill="midnightblue" stroke="midnightblue" points="321.77,-215 331.77,-211.5 321.77,-208 321.77,-215"/>
</g>
<!-- Node6 -->
<g id="node6" class="node">
<title>Node6</title>
<g id="a_node6"><a xlink:href="classsignal__easel_1_1ax25_1_1Frame.html#a63cf2362c2a90d20f09bbbc4f24a07ba" target="_top" xlink:title="Attempt to parse an incoming bit stream into an AX.25 frame.">
<polygon fill="none" stroke="black" points="332.5,-77.5 332.5,-107.5 467.5,-107.5 467.5,-77.5 332.5,-77.5"/>
<text text-anchor="start" x="340.5" y="-95.5" font-family="Helvetica,sans-Serif" font-size="10.00">signal_easel::ax25</text>
<text text-anchor="middle" x="400" y="-84.5" font-family="Helvetica,sans-Serif" font-size="10.00">::Frame::parseBitStream</text>
</a>
</g>
</g>
<!-- Node5&#45;&gt;Node6 -->
<g id="edge5" class="edge">
<title>Node5&#45;&gt;Node6</title>
<path fill="none" stroke="midnightblue" d="M518.66,-144.04C513.68,-142.23 508.73,-140.36 504,-138.5 479.76,-128.96 452.91,-116.91 432.7,-107.54"/>
<polygon fill="midnightblue" stroke="midnightblue" points="517.63,-147.39 528.22,-147.47 519.99,-140.8 517.63,-147.39"/>
</g>
<!-- Node7 -->
<g id="node7" class="node">
<title>Node7</title>
<g id="a_node7"><a xlink:href="classsignal__easel_1_1aprs_1_1Demodulator.html#ae5a8e7634c1bc8d215a0c454a9a737fa" target="_top" xlink:title=" ">
<polygon fill="none" stroke="black" points="143,-69 143,-110 296,-110 296,-69 143,-69"/>
<text text-anchor="start" x="151" y="-98" font-family="Helvetica,sans-Serif" font-size="10.00">signal_easel::aprs</text>
<text text-anchor="start" x="151" y="-87" font-family="Helvetica,sans-Serif" font-size="10.00">::Demodulator::lookForAx25</text>
<text text-anchor="middle" x="219.5" y="-76" font-family="Helvetica,sans-Serif" font-size="10.00">Packet</text>
</a>
</g>
</g>
<!-- Node6&#45;&gt;Node7 -->
<g id="edge6" class="edge">
<title>Node6&#45;&gt;Node7</title>
<path fill="none" stroke="midnightblue" d="M322.22,-91.21C313.58,-91.06 304.77,-90.92 296.14,-90.77"/>
<polygon fill="midnightblue" stroke="midnightblue" points="322.22,-94.71 332.28,-91.38 322.34,-87.71 322.22,-94.71"/>
</g>
<!-- Node8 -->
<g id="node8" class="node">
<title>Node8</title>
<g id="a_node8"><a xlink:href="classsignal__easel_1_1aprs_1_1Receiver.html#afbf7869aceaf2ea7ab0be8b9af16e818" target="_top" xlink:title=" ">
<polygon fill="none" stroke="black" points="0,-74.5 0,-104.5 107,-104.5 107,-74.5 0,-74.5"/>
<text text-anchor="start" x="8" y="-92.5" font-family="Helvetica,sans-Serif" font-size="10.00">signal_easel::aprs</text>
<text text-anchor="middle" x="53.5" y="-81.5" font-family="Helvetica,sans-Serif" font-size="10.00">::Receiver::decode</text>
</a>
</g>
</g>
<!-- Node7&#45;&gt;Node8 -->
<g id="edge7" class="edge">
<title>Node7&#45;&gt;Node8</title>
<path fill="none" stroke="midnightblue" d="M132.67,-89.5C124.09,-89.5 115.56,-89.5 107.47,-89.5"/>
<polygon fill="midnightblue" stroke="midnightblue" points="132.74,-93 142.74,-89.5 132.74,-86 132.74,-93"/>
</g>
<!-- Node9 -->
<g id="node9" class="node">
<title>Node9</title>
<g id="a_node9"><a xlink:href="aprs__test_8cpp.html#aea66d1824e3f1e27598adf99ac6a089a" target="_top" xlink:title=" ">
<polygon fill="none" stroke="black" points="33,-31 33,-50 74,-50 74,-31 33,-31"/>
<text text-anchor="middle" x="53.5" y="-38" font-family="Helvetica,sans-Serif" font-size="10.00">TEST</text>
</a>
</g>
</g>
<!-- Node7&#45;&gt;Node9 -->
<g id="edge8" class="edge">
<title>Node7&#45;&gt;Node9</title>
<path fill="none" stroke="midnightblue" d="M139.76,-65.97C115.4,-58.69 90.65,-51.3 74.13,-46.37"/>
<polygon fill="midnightblue" stroke="midnightblue" points="138.84,-69.35 149.42,-68.86 140.85,-62.65 138.84,-69.35"/>
</g>
<!-- Node10&#45;&gt;Node6 -->
<g id="edge10" class="edge">
<title>Node10&#45;&gt;Node6</title>
<path fill="none" stroke="midnightblue" d="M511.05,-105.86C496.92,-104.14 481.88,-102.32 467.6,-100.58"/>
<polygon fill="midnightblue" stroke="midnightblue" points="510.81,-109.35 521.15,-107.09 511.65,-102.41 510.81,-109.35"/>
</g>
<!-- Node12 -->
<g id="node12" class="node">
<title>Node12</title>
<g id="a_node12"><a xlink:href="namespacesignal__easel_1_1aprs.html#a77481001a5b78a839972bb4220b43e4d" target="_top" xlink:title="The base function to encode an APRS packet with the provided base data and info field.">
<polygon fill="none" stroke="black" points="348,-3.5 348,-33.5 452,-33.5 452,-3.5 348,-3.5"/>
<text text-anchor="start" x="356" y="-21.5" font-family="Helvetica,sans-Serif" font-size="10.00">signal_easel::aprs</text>
<text text-anchor="middle" x="400" y="-10.5" font-family="Helvetica,sans-Serif" font-size="10.00">::encodePacket</text>
</a>
</g>
</g>
<!-- Node11&#45;&gt;Node12 -->
<g id="edge12" class="edge">
<title>Node11&#45;&gt;Node12</title>
<path fill="none" stroke="midnightblue" d="M501.74,-16.75C485.03,-17.04 467.59,-17.35 452,-17.62"/>
<polygon fill="midnightblue" stroke="midnightblue" points="502.09,-20.25 512.03,-16.57 501.97,-13.25 502.09,-20.25"/>
</g>
<!-- Node13 -->
<g id="node13" class="node">
<title>Node13</title>
<g id="a_node13"><a xlink:href="classsignal__easel_1_1aprs_1_1Modulator.html#a8ae067701382dec1680b786583ace687" target="_top" xlink:title=" ">
<polygon fill="none" stroke="black" points="163,-14.5 163,-44.5 276,-44.5 276,-14.5 163,-14.5"/>
<text text-anchor="start" x="171" y="-32.5" font-family="Helvetica,sans-Serif" font-size="10.00">signal_easel::aprs</text>
<text text-anchor="middle" x="219.5" y="-21.5" font-family="Helvetica,sans-Serif" font-size="10.00">::Modulator::encode</text>
</a>
</g>
</g>
<!-- Node12&#45;&gt;Node13 -->
<g id="edge13" class="edge">
<title>Node12&#45;&gt;Node13</title>
<path fill="none" stroke="midnightblue" d="M337.61,-22.28C317.62,-23.51 295.57,-24.87 276.03,-26.08"/>
<polygon fill="midnightblue" stroke="midnightblue" points="338.08,-25.76 347.85,-21.65 337.65,-18.77 338.08,-25.76"/>
</g>
<!-- Node13&#45;&gt;Node9 -->
<g id="edge14" class="edge">
<title>Node13&#45;&gt;Node9</title>
<path fill="none" stroke="midnightblue" d="M152.74,-33.91C124.56,-35.8 93.72,-37.87 74.25,-39.18"/>
<polygon fill="midnightblue" stroke="midnightblue" points="153.23,-37.39 162.98,-33.22 152.77,-30.4 153.23,-37.39"/>
</g>
<!-- Node14&#45;&gt;Node6 -->
<g id="edge16" class="edge">
<title>Node14&#45;&gt;Node6</title>
<path fill="none" stroke="midnightblue" d="M511.05,-74.69C496.92,-76.98 481.88,-79.41 467.6,-81.72"/>
<polygon fill="midnightblue" stroke="midnightblue" points="511.84,-78.11 521.15,-73.05 510.72,-71.2 511.84,-78.11"/>
</g>
</g>
</svg>
