<?xml version="1.0" encoding="UTF-8" standalone="no"?>
<!DOCTYPE svg PUBLIC "-//W3C//DTD SVG 1.1//EN"
 "http://www.w3.org/Graphics/SVG/1.1/DTD/svg11.dtd">
<!-- Generated by graphviz version 2.43.0 (0)
 -->
<!-- Title: signal_easel::afsk::Demodulator Pages: 1 -->
<svg width="850pt" height="634pt"
 viewBox="0.00 0.00 850.00 634.00" xmlns="http://www.w3.org/2000/svg" xmlns:xlink="http://www.w3.org/1999/xlink">
<g id="graph0" class="graph" transform="scale(1 1) rotate(0) translate(4 630)">
<title>signal_easel::afsk::Demodulator</title>
<!-- Node1 -->
<g id="node1" class="node">
<title>Node1</title>
<g id="a_node1"><a xlink:title="Demodulates an AFSK signal into data.">
<polygon fill="#bfbfbf" stroke="black" points="360,-0.5 360,-123.5 536,-123.5 536,-0.5 360,-0.5"/>
<text text-anchor="start" x="368" y="-111.5" font-family="Helvetica,sans-Serif" font-size="10.00">signal_easel::afsk</text>
<text text-anchor="middle" x="448" y="-100.5" font-family="Helvetica,sans-Serif" font-size="10.00">::Demodulator</text>
<polyline fill="none" stroke="black" points="360,-93.5 536,-93.5 "/>
<text text-anchor="middle" x="448" y="-81.5" font-family="Helvetica,sans-Serif" font-size="10.00"> </text>
<polyline fill="none" stroke="black" points="360,-74.5 536,-74.5 "/>
<text text-anchor="start" x="368" y="-62.5" font-family="Helvetica,sans-Serif" font-size="10.00">+ Demodulator()</text>
<text text-anchor="start" x="368" y="-51.5" font-family="Helvetica,sans-Serif" font-size="10.00">+ ~Demodulator()</text>
<text text-anchor="start" x="368" y="-40.5" font-family="Helvetica,sans-Serif" font-size="10.00">+ lookForString()</text>
<text text-anchor="start" x="368" y="-29.5" font-family="Helvetica,sans-Serif" font-size="10.00">+ processAudioBuffer()</text>
<text text-anchor="start" x="368" y="-18.5" font-family="Helvetica,sans-Serif" font-size="10.00">&#45; audioBufferToBaseBandSignal()</text>
<text text-anchor="start" x="368" y="-7.5" font-family="Helvetica,sans-Serif" font-size="10.00">&#45; baseBandToBitStream()</text>
</a>
</g>
</g>
<!-- Node2 -->
<g id="node2" class="node">
<title>Node2</title>
<g id="a_node2"><a xlink:href="classsignal__easel_1_1Demodulator.html" target="_top" xlink:title="The base class for all demodulators that turn audio into data.">
<polygon fill="none" stroke="black" points="110.5,-215.5 110.5,-316.5 257.5,-316.5 257.5,-215.5 110.5,-215.5"/>
<text text-anchor="middle" x="184" y="-304.5" font-family="Helvetica,sans-Serif" font-size="10.00">signal_easel::Demodulator</text>
<polyline fill="none" stroke="black" points="110.5,-297.5 257.5,-297.5 "/>
<text text-anchor="middle" x="184" y="-285.5" font-family="Helvetica,sans-Serif" font-size="10.00"> </text>
<polyline fill="none" stroke="black" points="110.5,-278.5 257.5,-278.5 "/>
<text text-anchor="start" x="118.5" y="-266.5" font-family="Helvetica,sans-Serif" font-size="10.00">+ Demodulator()</text>
<text text-anchor="start" x="118.5" y="-255.5" font-family="Helvetica,sans-Serif" font-size="10.00">+ ~Demodulator()</text>
<text text-anchor="start" x="118.5" y="-244.5" font-family="Helvetica,sans-Serif" font-size="10.00">+ clearBuffer()</text>
<text text-anchor="start" x="118.5" y="-233.5" font-family="Helvetica,sans-Serif" font-size="10.00">+ loadAudioFromFile()</text>
<text text-anchor="start" x="118.5" y="-222.5" font-family="Helvetica,sans-Serif" font-size="10.00"># getAudioBuffer()</text>
</a>
</g>
</g>
<!-- Node2&#45;&gt;Node1 -->
<g id="edge1" class="edge">
<title>Node2&#45;&gt;Node1</title>
<path fill="none" stroke="midnightblue" d="M251.45,-208.78C266.94,-196.17 283.43,-182.99 299,-171 319.38,-155.31 341.67,-138.81 362.66,-123.55"/>
<polygon fill="none" stroke="midnightblue" points="248.99,-206.27 243.46,-215.3 253.42,-211.69 248.99,-206.27"/>
</g>
<!-- Node3 -->
<g id="node3" class="node">
<title>Node3</title>
<g id="a_node3"><a xlink:title=" ">
<polygon fill="none" stroke="#bfbfbf" points="0,-441.5 0,-498.5 104,-498.5 104,-441.5 0,-441.5"/>
<text text-anchor="middle" x="52" y="-486.5" font-family="Helvetica,sans-Serif" font-size="10.00">vector&lt; int16_t &gt;</text>
<polyline fill="none" stroke="#bfbfbf" points="0,-479.5 104,-479.5 "/>
<text text-anchor="middle" x="52" y="-467.5" font-family="Helvetica,sans-Serif" font-size="10.00"> </text>
<polyline fill="none" stroke="#bfbfbf" points="0,-460.5 104,-460.5 "/>
<text text-anchor="middle" x="52" y="-448.5" font-family="Helvetica,sans-Serif" font-size="10.00"> </text>
</a>
</g>
</g>
<!-- Node3&#45;&gt;Node2 -->
<g id="edge2" class="edge">
<title>Node3&#45;&gt;Node2</title>
<path fill="none" stroke="#404040" d="M66.23,-441.31C75.79,-423.24 88.99,-399.32 102,-379 113.24,-361.44 126.25,-342.96 138.55,-326.18"/>
<polygon fill="none" stroke="#404040" points="138.56,-326.17 138.91,-318.97 145.69,-316.52 145.34,-323.72 138.56,-326.17"/>
<text text-anchor="middle" x="141" y="-398.5" font-family="Helvetica,sans-Serif" font-size="10.00"> #audio_buffer_</text>
</g>
<!-- Node4 -->
<g id="node4" class="node">
<title>Node4</title>
<g id="a_node4"><a xlink:href="structsignal__easel_1_1Settings.html" target="_top" xlink:title="The universal settings for MWAV.">
<polygon fill="none" stroke="black" points="122.5,-441.5 122.5,-498.5 245.5,-498.5 245.5,-441.5 122.5,-441.5"/>
<text text-anchor="middle" x="184" y="-486.5" font-family="Helvetica,sans-Serif" font-size="10.00">signal_easel::Settings</text>
<polyline fill="none" stroke="black" points="122.5,-479.5 245.5,-479.5 "/>
<text text-anchor="middle" x="184" y="-467.5" font-family="Helvetica,sans-Serif" font-size="10.00"> </text>
<polyline fill="none" stroke="black" points="122.5,-460.5 245.5,-460.5 "/>
<text text-anchor="middle" x="184" y="-448.5" font-family="Helvetica,sans-Serif" font-size="10.00"> </text>
</a>
</g>
</g>
<!-- Node4&#45;&gt;Node2 -->
<g id="edge3" class="edge">
<title>Node4&#45;&gt;Node2</title>
<path fill="none" stroke="#404040" d="M184,-441.34C184,-412.6 184,-366.68 184,-329.18"/>
<polygon fill="none" stroke="#404040" points="184,-328.83 180,-322.83 184,-316.83 188,-322.83 184,-328.83"/>
<text text-anchor="middle" x="212" y="-398.5" font-family="Helvetica,sans-Serif" font-size="10.00"> #settings_</text>
</g>
<!-- Node8 -->
<g id="node8" class="node">
<title>Node8</title>
<g id="a_node8"><a xlink:href="structsignal__easel_1_1afsk_1_1Settings.html" target="_top" xlink:title="Settings for AFSK modulation/demodulation.">
<polygon fill="none" stroke="black" points="308,-232 308,-300 412,-300 412,-232 308,-232"/>
<text text-anchor="start" x="316" y="-288" font-family="Helvetica,sans-Serif" font-size="10.00">signal_easel::afsk</text>
<text text-anchor="middle" x="360" y="-277" font-family="Helvetica,sans-Serif" font-size="10.00">::Settings</text>
<polyline fill="none" stroke="black" points="308,-270 412,-270 "/>
<text text-anchor="middle" x="360" y="-258" font-family="Helvetica,sans-Serif" font-size="10.00"> </text>
<polyline fill="none" stroke="black" points="308,-251 412,-251 "/>
<text text-anchor="middle" x="360" y="-239" font-family="Helvetica,sans-Serif" font-size="10.00"> </text>
</a>
</g>
</g>
<!-- Node4&#45;&gt;Node8 -->
<g id="edge8" class="edge">
<title>Node4&#45;&gt;Node8</title>
<path fill="none" stroke="midnightblue" d="M231.42,-434.67C235.82,-430.9 240.08,-426.97 244,-423 281.9,-384.54 317.74,-333.21 339.29,-300.13"/>
<polygon fill="none" stroke="midnightblue" points="228.89,-432.23 223.41,-441.3 233.35,-437.62 228.89,-432.23"/>
</g>
<!-- Node5 -->
<g id="node5" class="node">
<title>Node5</title>
<g id="a_node5"><a xlink:title=" ">
<polygon fill="none" stroke="#bfbfbf" points="50,-568.5 50,-625.5 100,-625.5 100,-568.5 50,-568.5"/>
<text text-anchor="middle" x="75" y="-613.5" font-family="Helvetica,sans-Serif" font-size="10.00">double</text>
<polyline fill="none" stroke="#bfbfbf" points="50,-606.5 100,-606.5 "/>
<text text-anchor="middle" x="75" y="-594.5" font-family="Helvetica,sans-Serif" font-size="10.00"> </text>
<polyline fill="none" stroke="#bfbfbf" points="50,-587.5 100,-587.5 "/>
<text text-anchor="middle" x="75" y="-575.5" font-family="Helvetica,sans-Serif" font-size="10.00"> </text>
</a>
</g>
</g>
<!-- Node5&#45;&gt;Node4 -->
<g id="edge4" class="edge">
<title>Node5&#45;&gt;Node4</title>
<path fill="none" stroke="#404040" d="M75.99,-568.27C77.86,-551.86 82.57,-531.52 94,-517 99.03,-510.61 105.2,-505.02 111.91,-500.16"/>
<polygon fill="none" stroke="#404040" points="112.02,-500.09 114.87,-493.47 122.08,-493.55 119.23,-500.17 112.02,-500.09"/>
<text text-anchor="middle" x="137" y="-542" font-family="Helvetica,sans-Serif" font-size="10.00"> +amplitude</text>
<text text-anchor="start" x="94" y="-531" font-family="Helvetica,sans-Serif" font-size="10.00">+call_sign_pause</text>
<text text-anchor="middle" x="137" y="-520" font-family="Helvetica,sans-Serif" font-size="10.00">_seconds</text>
</g>
<!-- Node6 -->
<g id="node6" class="node">
<title>Node6</title>
<g id="a_node6"><a xlink:title=" ">
<polygon fill="none" stroke="#bfbfbf" points="142.5,-568.5 142.5,-625.5 225.5,-625.5 225.5,-568.5 142.5,-568.5"/>
<text text-anchor="middle" x="184" y="-613.5" font-family="Helvetica,sans-Serif" font-size="10.00">CallSignMode</text>
<polyline fill="none" stroke="#bfbfbf" points="142.5,-606.5 225.5,-606.5 "/>
<text text-anchor="middle" x="184" y="-594.5" font-family="Helvetica,sans-Serif" font-size="10.00"> </text>
<polyline fill="none" stroke="#bfbfbf" points="142.5,-587.5 225.5,-587.5 "/>
<text text-anchor="middle" x="184" y="-575.5" font-family="Helvetica,sans-Serif" font-size="10.00"> </text>
</a>
</g>
</g>
<!-- Node6&#45;&gt;Node4 -->
<g id="edge5" class="edge">
<title>Node6&#45;&gt;Node4</title>
<path fill="none" stroke="#404040" d="M184,-568.26C184,-551.35 184,-529.46 184,-510.73"/>
<polygon fill="none" stroke="#404040" points="184,-510.66 180,-504.66 184,-498.66 188,-504.66 184,-510.66"/>
<text text-anchor="middle" x="228" y="-531" font-family="Helvetica,sans-Serif" font-size="10.00"> +call_sign_mode</text>
</g>
<!-- Node7 -->
<g id="node7" class="node">
<title>Node7</title>
<g id="a_node7"><a xlink:title=" ">
<polygon fill="none" stroke="#bfbfbf" points="273,-568.5 273,-625.5 317,-625.5 317,-568.5 273,-568.5"/>
<text text-anchor="middle" x="295" y="-613.5" font-family="Helvetica,sans-Serif" font-size="10.00">string</text>
<polyline fill="none" stroke="#bfbfbf" points="273,-606.5 317,-606.5 "/>
<text text-anchor="middle" x="295" y="-594.5" font-family="Helvetica,sans-Serif" font-size="10.00"> </text>
<polyline fill="none" stroke="#bfbfbf" points="273,-587.5 317,-587.5 "/>
<text text-anchor="middle" x="295" y="-575.5" font-family="Helvetica,sans-Serif" font-size="10.00"> </text>
</a>
</g>
</g>
<!-- Node7&#45;&gt;Node4 -->
<g id="edge6" class="edge">
<title>Node7&#45;&gt;Node4</title>
<path fill="none" stroke="#404040" d="M292.8,-568.24C290.25,-551.82 284.77,-531.47 273,-517 268.18,-511.07 262.38,-505.81 256.1,-501.18"/>
<polygon fill="none" stroke="#404040" points="255.88,-501.04 248.67,-501.06 245.88,-494.41 253.09,-494.39 255.88,-501.04"/>
<text text-anchor="middle" x="316.5" y="-531" font-family="Helvetica,sans-Serif" font-size="10.00"> +call_sign</text>
</g>
<!-- Node8&#45;&gt;Node1 -->
<g id="edge7" class="edge">
<title>Node8&#45;&gt;Node1</title>
<path fill="none" stroke="#404040" d="M368.12,-231.8C374.86,-206.56 385.52,-171.31 399,-142 400.12,-139.56 401.31,-137.1 402.54,-134.64"/>
<polygon fill="none" stroke="#404040" points="402.63,-134.47 401.88,-127.3 408.22,-123.85 408.96,-131.02 402.63,-134.47"/>
<text text-anchor="middle" x="438" y="-145" font-family="Helvetica,sans-Serif" font-size="10.00"> &#45;afsk_settings_</text>
</g>
<!-- Node9 -->
<g id="node9" class="node">
<title>Node9</title>
<g id="a_node9"><a xlink:title=" ">
<polygon fill="none" stroke="#bfbfbf" points="264,-441.5 264,-498.5 338,-498.5 338,-441.5 264,-441.5"/>
<text text-anchor="middle" x="301" y="-486.5" font-family="Helvetica,sans-Serif" font-size="10.00">BitEncoding</text>
<polyline fill="none" stroke="#bfbfbf" points="264,-479.5 338,-479.5 "/>
<text text-anchor="middle" x="301" y="-467.5" font-family="Helvetica,sans-Serif" font-size="10.00"> </text>
<polyline fill="none" stroke="#bfbfbf" points="264,-460.5 338,-460.5 "/>
<text text-anchor="middle" x="301" y="-448.5" font-family="Helvetica,sans-Serif" font-size="10.00"> </text>
</a>
</g>
</g>
<!-- Node9&#45;&gt;Node8 -->
<g id="edge9" class="edge">
<title>Node9&#45;&gt;Node8</title>
<path fill="none" stroke="#404040" d="M298.04,-441.41C296.9,-423.38 296.89,-399.47 302,-379 307.95,-355.16 319.83,-330.7 331.29,-310.74"/>
<polygon fill="none" stroke="#404040" points="331.45,-310.47 331.08,-303.27 337.58,-300.15 337.96,-307.35 331.45,-310.47"/>
<text text-anchor="middle" x="339" y="-398.5" font-family="Helvetica,sans-Serif" font-size="10.00"> +bit_encoding</text>
</g>
<!-- Node10 -->
<g id="node10" class="node">
<title>Node10</title>
<g id="a_node10"><a xlink:title=" ">
<polygon fill="none" stroke="#bfbfbf" points="375,-441.5 375,-498.5 413,-498.5 413,-441.5 375,-441.5"/>
<text text-anchor="middle" x="394" y="-486.5" font-family="Helvetica,sans-Serif" font-size="10.00">bool</text>
<polyline fill="none" stroke="#bfbfbf" points="375,-479.5 413,-479.5 "/>
<text text-anchor="middle" x="394" y="-467.5" font-family="Helvetica,sans-Serif" font-size="10.00"> </text>
<polyline fill="none" stroke="#bfbfbf" points="375,-460.5 413,-460.5 "/>
<text text-anchor="middle" x="394" y="-448.5" font-family="Helvetica,sans-Serif" font-size="10.00"> </text>
</a>
</g>
</g>
<!-- Node10&#45;&gt;Node8 -->
<g id="edge10" class="edge">
<title>Node10&#45;&gt;Node8</title>
<path fill="none" stroke="#404040" d="M389.34,-441.34C383.74,-408.02 374.24,-351.59 367.57,-311.98"/>
<polygon fill="none" stroke="#404040" points="367.55,-311.85 362.61,-306.6 365.56,-300.02 370.5,-305.27 367.55,-311.85"/>
<text text-anchor="middle" x="445.5" y="-398.5" font-family="Helvetica,sans-Serif" font-size="10.00"> +include_ascii_padding</text>
</g>
<!-- Node11 -->
<g id="node11" class="node">
<title>Node11</title>
<g id="a_node11"><a xlink:href="classsignal__easel_1_1BitStream.html" target="_top" xlink:title=" ">
<polygon fill="none" stroke="black" points="462.5,-171.5 462.5,-360.5 609.5,-360.5 609.5,-171.5 462.5,-171.5"/>
<text text-anchor="middle" x="536" y="-348.5" font-family="Helvetica,sans-Serif" font-size="10.00">signal_easel::BitStream</text>
<polyline fill="none" stroke="black" points="462.5,-341.5 609.5,-341.5 "/>
<text text-anchor="middle" x="536" y="-329.5" font-family="Helvetica,sans-Serif" font-size="10.00"> </text>
<polyline fill="none" stroke="black" points="462.5,-322.5 609.5,-322.5 "/>
<text text-anchor="start" x="470.5" y="-310.5" font-family="Helvetica,sans-Serif" font-size="10.00">+ addBits()</text>
<text text-anchor="start" x="470.5" y="-299.5" font-family="Helvetica,sans-Serif" font-size="10.00">+ addOneBit()</text>
<text text-anchor="start" x="470.5" y="-288.5" font-family="Helvetica,sans-Serif" font-size="10.00">+ addZeroBit()</text>
<text text-anchor="start" x="470.5" y="-277.5" font-family="Helvetica,sans-Serif" font-size="10.00">+ clear()</text>
<text text-anchor="start" x="470.5" y="-266.5" font-family="Helvetica,sans-Serif" font-size="10.00">+ dumpBitStream()</text>
<text text-anchor="start" x="470.5" y="-255.5" font-family="Helvetica,sans-Serif" font-size="10.00">+ dumpBitStreamAsAscii()</text>
<text text-anchor="start" x="470.5" y="-244.5" font-family="Helvetica,sans-Serif" font-size="10.00">+ dumpBitStreamAsHex()</text>
<text text-anchor="start" x="470.5" y="-233.5" font-family="Helvetica,sans-Serif" font-size="10.00">+ getBitStreamLength()</text>
<text text-anchor="start" x="470.5" y="-222.5" font-family="Helvetica,sans-Serif" font-size="10.00">+ getBitVector()</text>
<text text-anchor="start" x="470.5" y="-211.5" font-family="Helvetica,sans-Serif" font-size="10.00">+ peakNextBit()</text>
<text text-anchor="start" x="470.5" y="-200.5" font-family="Helvetica,sans-Serif" font-size="10.00">+ peakNextByte()</text>
<text text-anchor="start" x="470.5" y="-189.5" font-family="Helvetica,sans-Serif" font-size="10.00">+ popNextBit()</text>
<text text-anchor="start" x="470.5" y="-178.5" font-family="Helvetica,sans-Serif" font-size="10.00">+ pushBufferToBitStream()</text>
</a>
</g>
</g>
<!-- Node11&#45;&gt;Node1 -->
<g id="edge11" class="edge">
<title>Node11&#45;&gt;Node1</title>
<path fill="none" stroke="#404040" d="M495.22,-171.39C489.87,-159.11 484.46,-146.69 479.3,-134.85"/>
<polygon fill="none" stroke="#404040" points="479.24,-134.7 473.17,-130.8 474.44,-123.7 480.51,-127.6 479.24,-134.7"/>
<text text-anchor="middle" x="539" y="-145" font-family="Helvetica,sans-Serif" font-size="10.00"> #output_bit_stream_</text>
</g>
<!-- Node12 -->
<g id="node12" class="node">
<title>Node12</title>
<g id="a_node12"><a xlink:title=" ">
<polygon fill="none" stroke="#bfbfbf" points="605,-441.5 605,-498.5 661,-498.5 661,-441.5 605,-441.5"/>
<text text-anchor="middle" x="633" y="-486.5" font-family="Helvetica,sans-Serif" font-size="10.00">uint32_t</text>
<polyline fill="none" stroke="#bfbfbf" points="605,-479.5 661,-479.5 "/>
<text text-anchor="middle" x="633" y="-467.5" font-family="Helvetica,sans-Serif" font-size="10.00"> </text>
<polyline fill="none" stroke="#bfbfbf" points="605,-460.5 661,-460.5 "/>
<text text-anchor="middle" x="633" y="-448.5" font-family="Helvetica,sans-Serif" font-size="10.00"> </text>
</a>
</g>
</g>
<!-- Node12&#45;&gt;Node11 -->
<g id="edge12" class="edge">
<title>Node12&#45;&gt;Node11</title>
<path fill="none" stroke="#404040" d="M625.03,-441.27C619.45,-423.18 611.34,-399.26 602,-379 600.87,-376.54 599.7,-374.07 598.49,-371.59"/>
<polygon fill="none" stroke="#404040" points="598.4,-371.41 592.14,-367.84 593.02,-360.68 599.29,-364.25 598.4,-371.41"/>
<text text-anchor="middle" x="667.5" y="-398.5" font-family="Helvetica,sans-Serif" font-size="10.00"> &#45;bit_stream_buffer_</text>
</g>
<!-- Node13 -->
<g id="node13" class="node">
<title>Node13</title>
<g id="a_node13"><a xlink:title=" ">
<polygon fill="none" stroke="#bfbfbf" points="737.5,-441.5 737.5,-498.5 766.5,-498.5 766.5,-441.5 737.5,-441.5"/>
<text text-anchor="middle" x="752" y="-486.5" font-family="Helvetica,sans-Serif" font-size="10.00">int</text>
<polyline fill="none" stroke="#bfbfbf" points="737.5,-479.5 766.5,-479.5 "/>
<text text-anchor="middle" x="752" y="-467.5" font-family="Helvetica,sans-Serif" font-size="10.00"> </text>
<polyline fill="none" stroke="#bfbfbf" points="737.5,-460.5 766.5,-460.5 "/>
<text text-anchor="middle" x="752" y="-448.5" font-family="Helvetica,sans-Serif" font-size="10.00"> </text>
</a>
</g>
</g>
<!-- Node13&#45;&gt;Node11 -->
<g id="edge13" class="edge">
<title>Node13&#45;&gt;Node11</title>
<path fill="none" stroke="#404040" d="M749.78,-441.27C746.64,-421 739.1,-394.46 721,-379 688.66,-351.38 663.29,-378.65 620.47,-360.54"/>
<polygon fill="none" stroke="#404040" points="620.25,-360.43 613.1,-361.33 609.51,-355.08 616.66,-354.17 620.25,-360.43"/>
<text text-anchor="middle" x="793.5" y="-415" font-family="Helvetica,sans-Serif" font-size="10.00"> &#45;bit_stream_index_</text>
<text text-anchor="start" x="745" y="-404" font-family="Helvetica,sans-Serif" font-size="10.00">&#45;bit_stream_length</text>
<text text-anchor="middle" x="793.5" y="-393" font-family="Helvetica,sans-Serif" font-size="10.00">_</text>
<text text-anchor="middle" x="793.5" y="-382" font-family="Helvetica,sans-Serif" font-size="10.00">&#45;bit_stream_offset_</text>
</g>
<!-- Node14 -->
<g id="node14" class="node">
<title>Node14</title>
<g id="a_node14"><a xlink:title=" ">
<polygon fill="none" stroke="#bfbfbf" points="477,-441.5 477,-498.5 587,-498.5 587,-441.5 477,-441.5"/>
<text text-anchor="middle" x="532" y="-486.5" font-family="Helvetica,sans-Serif" font-size="10.00">vector&lt; uint32_t &gt;</text>
<polyline fill="none" stroke="#bfbfbf" points="477,-479.5 587,-479.5 "/>
<text text-anchor="middle" x="532" y="-467.5" font-family="Helvetica,sans-Serif" font-size="10.00"> </text>
<polyline fill="none" stroke="#bfbfbf" points="477,-460.5 587,-460.5 "/>
<text text-anchor="middle" x="532" y="-448.5" font-family="Helvetica,sans-Serif" font-size="10.00"> </text>
</a>
</g>
</g>
<!-- Node14&#45;&gt;Node11 -->
<g id="edge14" class="edge">
<title>Node14&#45;&gt;Node11</title>
<path fill="none" stroke="#404040" d="M532.55,-441.34C532.91,-423.15 533.4,-398.07 533.91,-372.61"/>
<polygon fill="none" stroke="#404040" points="533.91,-372.5 530.03,-366.42 534.15,-360.5 538.03,-366.58 533.91,-372.5"/>
<text text-anchor="middle" x="565.5" y="-398.5" font-family="Helvetica,sans-Serif" font-size="10.00"> &#45;bit_stream_</text>
</g>
<!-- Node15 -->
<g id="node15" class="node">
<title>Node15</title>
<g id="a_node15"><a xlink:title=" ">
<polygon fill="none" stroke="#bfbfbf" points="628,-237.5 628,-294.5 732,-294.5 732,-237.5 628,-237.5"/>
<text text-anchor="middle" x="680" y="-282.5" font-family="Helvetica,sans-Serif" font-size="10.00">vector&lt; uint8_t &gt;</text>
<polyline fill="none" stroke="#bfbfbf" points="628,-275.5 732,-275.5 "/>
<text text-anchor="middle" x="680" y="-263.5" font-family="Helvetica,sans-Serif" font-size="10.00"> </text>
<polyline fill="none" stroke="#bfbfbf" points="628,-256.5 732,-256.5 "/>
<text text-anchor="middle" x="680" y="-244.5" font-family="Helvetica,sans-Serif" font-size="10.00"> </text>
</a>
</g>
</g>
<!-- Node15&#45;&gt;Node1 -->
<g id="edge15" class="edge">
<title>Node15&#45;&gt;Node1</title>
<path fill="none" stroke="#404040" d="M666.82,-237.26C652.64,-209.93 627.77,-168.5 596,-142 581.18,-129.64 564.12,-118.38 546.97,-108.49"/>
<polygon fill="none" stroke="#404040" points="546.77,-108.38 539.58,-108.93 536.3,-102.51 543.49,-101.96 546.77,-108.38"/>
<text text-anchor="middle" x="657" y="-145" font-family="Helvetica,sans-Serif" font-size="10.00"> &#45;base_band_signal_</text>
</g>
</g>
</svg>
