<?xml version="1.0" encoding="UTF-8" standalone="no"?>
<!DOCTYPE svg PUBLIC "-//W3C//DTD SVG 1.1//EN"
 "http://www.w3.org/Graphics/SVG/1.1/DTD/svg11.dtd">
<!-- Generated by graphviz version 2.43.0 (0)
 -->
<!-- Title: signal_easel::afsk::Receiver Pages: 1 -->
<svg width="1133pt" height="816pt"
 viewBox="0.00 0.00 1133.00 816.00" xmlns="http://www.w3.org/2000/svg" xmlns:xlink="http://www.w3.org/1999/xlink">
<g id="graph0" class="graph" transform="scale(1 1) rotate(0) translate(4 812)">
<title>signal_easel::afsk::Receiver</title>
<!-- Node1 -->
<g id="node1" class="node">
<title>Node1</title>
<g id="a_node1"><a xlink:title="For receiving AFSK signals via a pulse audio stream.">
<polygon fill="#bfbfbf" stroke="black" points="327,-0.5 327,-112.5 431,-112.5 431,-0.5 327,-0.5"/>
<text text-anchor="start" x="335" y="-100.5" font-family="Helvetica,sans-Serif" font-size="10.00">signal_easel::afsk</text>
<text text-anchor="middle" x="379" y="-89.5" font-family="Helvetica,sans-Serif" font-size="10.00">::Receiver</text>
<polyline fill="none" stroke="black" points="327,-82.5 431,-82.5 "/>
<text text-anchor="middle" x="379" y="-70.5" font-family="Helvetica,sans-Serif" font-size="10.00"> </text>
<polyline fill="none" stroke="black" points="327,-63.5 431,-63.5 "/>
<text text-anchor="start" x="335" y="-51.5" font-family="Helvetica,sans-Serif" font-size="10.00">+ Receiver()</text>
<text text-anchor="start" x="335" y="-40.5" font-family="Helvetica,sans-Serif" font-size="10.00">+ ~Receiver()</text>
<text text-anchor="start" x="335" y="-29.5" font-family="Helvetica,sans-Serif" font-size="10.00">+ process()</text>
<text text-anchor="start" x="335" y="-18.5" font-family="Helvetica,sans-Serif" font-size="10.00"># decode()</text>
<text text-anchor="start" x="335" y="-7.5" font-family="Helvetica,sans-Serif" font-size="10.00"># detectSignal()</text>
</a>
</g>
</g>
<!-- Node2 -->
<g id="node2" class="node">
<title>Node2</title>
<g id="a_node2"><a xlink:href="classsignal__easel_1_1Receiver.html" target="_top" xlink:title=" ">
<polygon fill="none" stroke="black" points="238,-331.5 238,-432.5 364,-432.5 364,-331.5 238,-331.5"/>
<text text-anchor="middle" x="301" y="-420.5" font-family="Helvetica,sans-Serif" font-size="10.00">signal_easel::Receiver</text>
<polyline fill="none" stroke="black" points="238,-413.5 364,-413.5 "/>
<text text-anchor="middle" x="301" y="-401.5" font-family="Helvetica,sans-Serif" font-size="10.00"> </text>
<polyline fill="none" stroke="black" points="238,-394.5 364,-394.5 "/>
<text text-anchor="start" x="246" y="-382.5" font-family="Helvetica,sans-Serif" font-size="10.00">+ Receiver()</text>
<text text-anchor="start" x="246" y="-371.5" font-family="Helvetica,sans-Serif" font-size="10.00">+ ~Receiver()</text>
<text text-anchor="start" x="246" y="-360.5" font-family="Helvetica,sans-Serif" font-size="10.00">+ getLatency()</text>
<text text-anchor="start" x="246" y="-349.5" font-family="Helvetica,sans-Serif" font-size="10.00">+ getVolume()</text>
<text text-anchor="start" x="246" y="-338.5" font-family="Helvetica,sans-Serif" font-size="10.00">+ process()</text>
</a>
</g>
</g>
<!-- Node2&#45;&gt;Node1 -->
<g id="edge1" class="edge">
<title>Node2&#45;&gt;Node1</title>
<path fill="none" stroke="midnightblue" d="M315.44,-321.13C329.83,-261.42 351.76,-170.49 365.73,-112.54"/>
<polygon fill="none" stroke="midnightblue" points="311.96,-320.62 313.02,-331.16 318.76,-322.26 311.96,-320.62"/>
</g>
<!-- Node3 -->
<g id="node3" class="node">
<title>Node3</title>
<g id="a_node3"><a xlink:href="classsignal__easel_1_1PulseAudioReader.html" target="_top" xlink:title=" ">
<polygon fill="none" stroke="black" points="426.5,-480.5 426.5,-658.5 563.5,-658.5 563.5,-480.5 426.5,-480.5"/>
<text text-anchor="start" x="434.5" y="-646.5" font-family="Helvetica,sans-Serif" font-size="10.00">signal_easel::PulseAudio</text>
<text text-anchor="middle" x="495" y="-635.5" font-family="Helvetica,sans-Serif" font-size="10.00">Reader</text>
<polyline fill="none" stroke="black" points="426.5,-628.5 563.5,-628.5 "/>
<text text-anchor="middle" x="495" y="-616.5" font-family="Helvetica,sans-Serif" font-size="10.00"> </text>
<polyline fill="none" stroke="black" points="426.5,-609.5 563.5,-609.5 "/>
<text text-anchor="start" x="434.5" y="-597.5" font-family="Helvetica,sans-Serif" font-size="10.00">+ PulseAudioReader()</text>
<text text-anchor="start" x="434.5" y="-586.5" font-family="Helvetica,sans-Serif" font-size="10.00">+ PulseAudioReader()</text>
<text text-anchor="start" x="434.5" y="-575.5" font-family="Helvetica,sans-Serif" font-size="10.00">+ PulseAudioReader()</text>
<text text-anchor="start" x="434.5" y="-564.5" font-family="Helvetica,sans-Serif" font-size="10.00">+ ~PulseAudioReader()</text>
<text text-anchor="start" x="434.5" y="-553.5" font-family="Helvetica,sans-Serif" font-size="10.00">+ getAudioBuffer()</text>
<text text-anchor="start" x="434.5" y="-542.5" font-family="Helvetica,sans-Serif" font-size="10.00">+ getLatency()</text>
<text text-anchor="start" x="434.5" y="-531.5" font-family="Helvetica,sans-Serif" font-size="10.00">+ getRms()</text>
<text text-anchor="start" x="434.5" y="-520.5" font-family="Helvetica,sans-Serif" font-size="10.00">+ getVolume()</text>
<text text-anchor="start" x="434.5" y="-509.5" font-family="Helvetica,sans-Serif" font-size="10.00">+ operator=()</text>
<text text-anchor="start" x="434.5" y="-498.5" font-family="Helvetica,sans-Serif" font-size="10.00">+ operator=()</text>
<text text-anchor="start" x="434.5" y="-487.5" font-family="Helvetica,sans-Serif" font-size="10.00">+ process()</text>
</a>
</g>
</g>
<!-- Node3&#45;&gt;Node2 -->
<g id="edge2" class="edge">
<title>Node3&#45;&gt;Node2</title>
<path fill="none" stroke="#404040" d="M468.59,-480.46C462.28,-469.4 454.53,-459.13 445,-451 422.46,-431.76 406.55,-443.56 375.44,-433.16"/>
<polygon fill="none" stroke="#404040" points="375.41,-433.15 368.36,-434.65 364.27,-428.71 371.32,-427.22 375.41,-433.15"/>
<text text-anchor="middle" x="511" y="-454" font-family="Helvetica,sans-Serif" font-size="10.00"> #pulse_audio_reader_</text>
</g>
<!-- Node4 -->
<g id="node4" class="node">
<title>Node4</title>
<g id="a_node4"><a xlink:title=" ">
<polygon fill="none" stroke="#bfbfbf" points="258,-745 258,-802 308,-802 308,-745 258,-745"/>
<text text-anchor="middle" x="283" y="-790" font-family="Helvetica,sans-Serif" font-size="10.00">double</text>
<polyline fill="none" stroke="#bfbfbf" points="258,-783 308,-783 "/>
<text text-anchor="middle" x="283" y="-771" font-family="Helvetica,sans-Serif" font-size="10.00"> </text>
<polyline fill="none" stroke="#bfbfbf" points="258,-764 308,-764 "/>
<text text-anchor="middle" x="283" y="-752" font-family="Helvetica,sans-Serif" font-size="10.00"> </text>
</a>
</g>
</g>
<!-- Node4&#45;&gt;Node3 -->
<g id="edge3" class="edge">
<title>Node4&#45;&gt;Node3</title>
<path fill="none" stroke="#404040" d="M308.35,-751.39C313.75,-747.16 319.48,-742.83 325,-739 337.77,-730.13 344.76,-732.7 355,-721 369.03,-704.97 361.48,-694.23 374,-677 386.24,-660.16 401.58,-644.11 417.19,-629.82"/>
<polygon fill="none" stroke="#404040" points="417.44,-629.6 419.26,-622.62 426.4,-621.61 424.58,-628.59 417.44,-629.6"/>
<text text-anchor="middle" x="398.5" y="-696.5" font-family="Helvetica,sans-Serif" font-size="10.00"> &#45;volume_</text>
</g>
<!-- Node10 -->
<g id="node10" class="node">
<title>Node10</title>
<g id="a_node10"><a xlink:href="structsignal__easel_1_1Settings.html" target="_top" xlink:title="The universal settings for MWAV.">
<polygon fill="none" stroke="black" points="206.5,-541 206.5,-598 329.5,-598 329.5,-541 206.5,-541"/>
<text text-anchor="middle" x="268" y="-586" font-family="Helvetica,sans-Serif" font-size="10.00">signal_easel::Settings</text>
<polyline fill="none" stroke="black" points="206.5,-579 329.5,-579 "/>
<text text-anchor="middle" x="268" y="-567" font-family="Helvetica,sans-Serif" font-size="10.00"> </text>
<polyline fill="none" stroke="black" points="206.5,-560 329.5,-560 "/>
<text text-anchor="middle" x="268" y="-548" font-family="Helvetica,sans-Serif" font-size="10.00"> </text>
</a>
</g>
</g>
<!-- Node4&#45;&gt;Node10 -->
<g id="edge10" class="edge">
<title>Node4&#45;&gt;Node10</title>
<path fill="none" stroke="#404040" d="M274.11,-744.98C272.02,-737.3 270.08,-728.89 269,-721 263.9,-683.74 264.22,-640.8 265.48,-610.35"/>
<polygon fill="none" stroke="#404040" points="265.49,-610.1 261.78,-603.92 266.06,-598.11 269.77,-604.3 265.49,-610.1"/>
<text text-anchor="middle" x="312" y="-707.5" font-family="Helvetica,sans-Serif" font-size="10.00"> +amplitude</text>
<text text-anchor="start" x="269" y="-696.5" font-family="Helvetica,sans-Serif" font-size="10.00">+call_sign_pause</text>
<text text-anchor="middle" x="312" y="-685.5" font-family="Helvetica,sans-Serif" font-size="10.00">_seconds</text>
</g>
<!-- Node5 -->
<g id="node5" class="node">
<title>Node5</title>
<g id="a_node5"><a xlink:title=" ">
<polygon fill="none" stroke="#bfbfbf" points="699,-745 699,-802 755,-802 755,-745 699,-745"/>
<text text-anchor="middle" x="727" y="-790" font-family="Helvetica,sans-Serif" font-size="10.00">uint64_t</text>
<polyline fill="none" stroke="#bfbfbf" points="699,-783 755,-783 "/>
<text text-anchor="middle" x="727" y="-771" font-family="Helvetica,sans-Serif" font-size="10.00"> </text>
<polyline fill="none" stroke="#bfbfbf" points="699,-764 755,-764 "/>
<text text-anchor="middle" x="727" y="-752" font-family="Helvetica,sans-Serif" font-size="10.00"> </text>
</a>
</g>
</g>
<!-- Node5&#45;&gt;Node3 -->
<g id="edge4" class="edge">
<title>Node5&#45;&gt;Node3</title>
<path fill="none" stroke="#404040" d="M711.46,-744.69C698.85,-724.03 679.51,-696.22 657,-677 643.7,-665.64 636.99,-668.02 622,-659 606.13,-649.45 589.61,-638.63 573.93,-627.91"/>
<polygon fill="none" stroke="#404040" points="573.64,-627.72 566.43,-627.6 563.76,-620.9 570.97,-621.02 573.64,-627.72"/>
<text text-anchor="middle" x="710.5" y="-696.5" font-family="Helvetica,sans-Serif" font-size="10.00"> &#45;rms_</text>
</g>
<!-- Node6 -->
<g id="node6" class="node">
<title>Node6</title>
<g id="a_node6"><a xlink:title=" ">
<polygon fill="none" stroke="#bfbfbf" points="334,-745 334,-802 432,-802 432,-745 334,-745"/>
<text text-anchor="middle" x="383" y="-790" font-family="Helvetica,sans-Serif" font-size="10.00">pa_sample_spec</text>
<polyline fill="none" stroke="#bfbfbf" points="334,-783 432,-783 "/>
<text text-anchor="middle" x="383" y="-771" font-family="Helvetica,sans-Serif" font-size="10.00"> </text>
<polyline fill="none" stroke="#bfbfbf" points="334,-764 432,-764 "/>
<text text-anchor="middle" x="383" y="-752" font-family="Helvetica,sans-Serif" font-size="10.00"> </text>
</a>
</g>
</g>
<!-- Node6&#45;&gt;Node3 -->
<g id="edge5" class="edge">
<title>Node6&#45;&gt;Node3</title>
<path fill="none" stroke="#404040" d="M409.19,-744.75C415.46,-737.35 421.83,-729.14 427,-721 437.18,-704.96 446.65,-687.15 455.09,-669.55"/>
<polygon fill="none" stroke="#404040" points="455.11,-669.5 454.04,-662.37 460.2,-658.64 461.28,-665.77 455.11,-669.5"/>
<text text-anchor="middle" x="463.5" y="-696.5" font-family="Helvetica,sans-Serif" font-size="10.00"> &#45;ss_</text>
</g>
<!-- Node7 -->
<g id="node7" class="node">
<title>Node7</title>
<g id="a_node7"><a xlink:title=" ">
<polygon fill="none" stroke="#bfbfbf" points="543.5,-739.5 543.5,-807.5 680.5,-807.5 680.5,-739.5 543.5,-739.5"/>
<text text-anchor="start" x="551.5" y="-795.5" font-family="Helvetica,sans-Serif" font-size="10.00">array&lt; int16_t, PULSE</text>
<text text-anchor="middle" x="612" y="-784.5" font-family="Helvetica,sans-Serif" font-size="10.00">_AUDIO_BUFFER_SIZE &gt;</text>
<polyline fill="none" stroke="#bfbfbf" points="543.5,-777.5 680.5,-777.5 "/>
<text text-anchor="middle" x="612" y="-765.5" font-family="Helvetica,sans-Serif" font-size="10.00"> </text>
<polyline fill="none" stroke="#bfbfbf" points="543.5,-758.5 680.5,-758.5 "/>
<text text-anchor="middle" x="612" y="-746.5" font-family="Helvetica,sans-Serif" font-size="10.00"> </text>
</a>
</g>
</g>
<!-- Node7&#45;&gt;Node3 -->
<g id="edge6" class="edge">
<title>Node7&#45;&gt;Node3</title>
<path fill="none" stroke="#404040" d="M592.68,-739.14C581.5,-719.84 566.78,-694.44 552.18,-669.22"/>
<polygon fill="none" stroke="#404040" points="552.17,-669.21 545.7,-666.02 546.16,-658.82 552.63,-662.01 552.17,-669.21"/>
<text text-anchor="middle" x="616.5" y="-696.5" font-family="Helvetica,sans-Serif" font-size="10.00"> &#45;audio_buffer_</text>
</g>
<!-- Node8 -->
<g id="node8" class="node">
<title>Node8</title>
<g id="a_node8"><a xlink:title=" ">
<polygon fill="none" stroke="#bfbfbf" points="789,-745 789,-802 845,-802 845,-745 789,-745"/>
<text text-anchor="middle" x="817" y="-790" font-family="Helvetica,sans-Serif" font-size="10.00">uint32_t</text>
<polyline fill="none" stroke="#bfbfbf" points="789,-783 845,-783 "/>
<text text-anchor="middle" x="817" y="-771" font-family="Helvetica,sans-Serif" font-size="10.00"> </text>
<polyline fill="none" stroke="#bfbfbf" points="789,-764 845,-764 "/>
<text text-anchor="middle" x="817" y="-752" font-family="Helvetica,sans-Serif" font-size="10.00"> </text>
</a>
</g>
</g>
<!-- Node8&#45;&gt;Node3 -->
<g id="edge7" class="edge">
<title>Node8&#45;&gt;Node3</title>
<path fill="none" stroke="#404040" d="M790.3,-744.93C783,-737.26 775.13,-728.86 768,-721 750.65,-701.86 752.53,-689.65 730,-677 687.57,-653.17 667.07,-677.36 622,-659 605.62,-652.33 589.27,-643.24 574.01,-633.41"/>
<polygon fill="none" stroke="#404040" points="573.63,-633.16 566.42,-633.17 563.64,-626.51 570.85,-626.5 573.63,-633.16"/>
<text text-anchor="middle" x="792.5" y="-696.5" font-family="Helvetica,sans-Serif" font-size="10.00"> &#45;latency_</text>
</g>
<!-- Node19 -->
<g id="node19" class="node">
<title>Node19</title>
<g id="a_node19"><a xlink:href="classsignal__easel_1_1BitStream.html" target="_top" xlink:title=" ">
<polygon fill="none" stroke="black" points="780.5,-480.5 780.5,-658.5 927.5,-658.5 927.5,-480.5 780.5,-480.5"/>
<text text-anchor="middle" x="854" y="-646.5" font-family="Helvetica,sans-Serif" font-size="10.00">signal_easel::BitStream</text>
<polyline fill="none" stroke="black" points="780.5,-639.5 927.5,-639.5 "/>
<text text-anchor="middle" x="854" y="-627.5" font-family="Helvetica,sans-Serif" font-size="10.00"> </text>
<polyline fill="none" stroke="black" points="780.5,-620.5 927.5,-620.5 "/>
<text text-anchor="start" x="788.5" y="-608.5" font-family="Helvetica,sans-Serif" font-size="10.00">+ addBits()</text>
<text text-anchor="start" x="788.5" y="-597.5" font-family="Helvetica,sans-Serif" font-size="10.00">+ addOneBit()</text>
<text text-anchor="start" x="788.5" y="-586.5" font-family="Helvetica,sans-Serif" font-size="10.00">+ addZeroBit()</text>
<text text-anchor="start" x="788.5" y="-575.5" font-family="Helvetica,sans-Serif" font-size="10.00">+ dumpBitStream()</text>
<text text-anchor="start" x="788.5" y="-564.5" font-family="Helvetica,sans-Serif" font-size="10.00">+ dumpBitStreamAsAscii()</text>
<text text-anchor="start" x="788.5" y="-553.5" font-family="Helvetica,sans-Serif" font-size="10.00">+ dumpBitStreamAsHex()</text>
<text text-anchor="start" x="788.5" y="-542.5" font-family="Helvetica,sans-Serif" font-size="10.00">+ getBitStreamLength()</text>
<text text-anchor="start" x="788.5" y="-531.5" font-family="Helvetica,sans-Serif" font-size="10.00">+ getBitVector()</text>
<text text-anchor="start" x="788.5" y="-520.5" font-family="Helvetica,sans-Serif" font-size="10.00">+ peakNextBit()</text>
<text text-anchor="start" x="788.5" y="-509.5" font-family="Helvetica,sans-Serif" font-size="10.00">+ peakNextByte()</text>
<text text-anchor="start" x="788.5" y="-498.5" font-family="Helvetica,sans-Serif" font-size="10.00">+ popNextBit()</text>
<text text-anchor="start" x="788.5" y="-487.5" font-family="Helvetica,sans-Serif" font-size="10.00">+ pushBufferToBitStream()</text>
</a>
</g>
</g>
<!-- Node8&#45;&gt;Node19 -->
<g id="edge23" class="edge">
<title>Node8&#45;&gt;Node19</title>
<path fill="none" stroke="#404040" d="M818.84,-744.77C820.37,-725.63 822.96,-699.65 827,-677 827.38,-674.84 827.79,-672.66 828.21,-670.46"/>
<polygon fill="none" stroke="#404040" points="828.23,-670.38 825.5,-663.7 830.62,-658.62 833.34,-665.3 828.23,-670.38"/>
<text text-anchor="middle" x="876.5" y="-696.5" font-family="Helvetica,sans-Serif" font-size="10.00"> &#45;bit_stream_buffer_</text>
</g>
<!-- Node9 -->
<g id="node9" class="node">
<title>Node9</title>
<g id="a_node9"><a xlink:title=" ">
<polygon fill="none" stroke="#bfbfbf" points="450.5,-745 450.5,-802 525.5,-802 525.5,-745 450.5,-745"/>
<text text-anchor="middle" x="488" y="-790" font-family="Helvetica,sans-Serif" font-size="10.00">pa_simple *</text>
<polyline fill="none" stroke="#bfbfbf" points="450.5,-783 525.5,-783 "/>
<text text-anchor="middle" x="488" y="-771" font-family="Helvetica,sans-Serif" font-size="10.00"> </text>
<polyline fill="none" stroke="#bfbfbf" points="450.5,-764 525.5,-764 "/>
<text text-anchor="middle" x="488" y="-752" font-family="Helvetica,sans-Serif" font-size="10.00"> </text>
</a>
</g>
</g>
<!-- Node9&#45;&gt;Node3 -->
<g id="edge8" class="edge">
<title>Node9&#45;&gt;Node3</title>
<path fill="none" stroke="#404040" d="M488.96,-744.84C489.63,-725.35 490.58,-697.97 491.53,-670.67"/>
<polygon fill="none" stroke="#404040" points="491.53,-670.57 487.74,-664.44 491.95,-658.58 495.74,-664.71 491.53,-670.57"/>
<text text-anchor="middle" x="500" y="-696.5" font-family="Helvetica,sans-Serif" font-size="10.00"> &#45;s_</text>
</g>
<!-- Node10&#45;&gt;Node2 -->
<g id="edge9" class="edge">
<title>Node10&#45;&gt;Node2</title>
<path fill="none" stroke="#404040" d="M272.94,-540.73C277.44,-515.46 284.23,-477.25 290.01,-444.77"/>
<polygon fill="none" stroke="#404040" points="290.07,-444.45 287.18,-437.84 292.17,-432.64 295.06,-439.24 290.07,-444.45"/>
<text text-anchor="middle" x="317" y="-454" font-family="Helvetica,sans-Serif" font-size="10.00"> #settings_</text>
</g>
<!-- Node13 -->
<g id="node13" class="node">
<title>Node13</title>
<g id="a_node13"><a xlink:href="structsignal__easel_1_1afsk_1_1Settings.html" target="_top" xlink:title="Settings for AFSK modulation/demodulation.">
<polygon fill="none" stroke="black" points="116,-348 116,-416 220,-416 220,-348 116,-348"/>
<text text-anchor="start" x="124" y="-404" font-family="Helvetica,sans-Serif" font-size="10.00">signal_easel::afsk</text>
<text text-anchor="middle" x="168" y="-393" font-family="Helvetica,sans-Serif" font-size="10.00">::Settings</text>
<polyline fill="none" stroke="black" points="116,-386 220,-386 "/>
<text text-anchor="middle" x="168" y="-374" font-family="Helvetica,sans-Serif" font-size="10.00"> </text>
<polyline fill="none" stroke="black" points="116,-367 220,-367 "/>
<text text-anchor="middle" x="168" y="-355" font-family="Helvetica,sans-Serif" font-size="10.00"> </text>
</a>
</g>
</g>
<!-- Node10&#45;&gt;Node13 -->
<g id="edge14" class="edge">
<title>Node10&#45;&gt;Node13</title>
<path fill="none" stroke="midnightblue" d="M271.01,-530.59C271.21,-506.27 268.09,-474.89 254,-451 247.05,-439.21 239.86,-441.34 229,-433 222.05,-427.66 214.77,-421.86 207.74,-416.18"/>
<polygon fill="none" stroke="midnightblue" points="267.51,-530.78 270.73,-540.87 274.5,-530.97 267.51,-530.78"/>
</g>
<!-- Node17 -->
<g id="node17" class="node">
<title>Node17</title>
<g id="a_node17"><a xlink:href="classsignal__easel_1_1Demodulator.html" target="_top" xlink:title="The base class for all demodulators that turn audio into data.">
<polygon fill="none" stroke="black" points="382.5,-331.5 382.5,-432.5 529.5,-432.5 529.5,-331.5 382.5,-331.5"/>
<text text-anchor="middle" x="456" y="-420.5" font-family="Helvetica,sans-Serif" font-size="10.00">signal_easel::Demodulator</text>
<polyline fill="none" stroke="black" points="382.5,-413.5 529.5,-413.5 "/>
<text text-anchor="middle" x="456" y="-401.5" font-family="Helvetica,sans-Serif" font-size="10.00"> </text>
<polyline fill="none" stroke="black" points="382.5,-394.5 529.5,-394.5 "/>
<text text-anchor="start" x="390.5" y="-382.5" font-family="Helvetica,sans-Serif" font-size="10.00">+ Demodulator()</text>
<text text-anchor="start" x="390.5" y="-371.5" font-family="Helvetica,sans-Serif" font-size="10.00">+ ~Demodulator()</text>
<text text-anchor="start" x="390.5" y="-360.5" font-family="Helvetica,sans-Serif" font-size="10.00">+ clearBuffer()</text>
<text text-anchor="start" x="390.5" y="-349.5" font-family="Helvetica,sans-Serif" font-size="10.00">+ loadAudioFromFile()</text>
<text text-anchor="start" x="390.5" y="-338.5" font-family="Helvetica,sans-Serif" font-size="10.00"># getAudioBuffer()</text>
</a>
</g>
</g>
<!-- Node10&#45;&gt;Node17 -->
<g id="edge20" class="edge">
<title>Node10&#45;&gt;Node17</title>
<path fill="none" stroke="#404040" d="M296.15,-540.73C322.66,-514.56 363.23,-474.54 396.86,-441.35"/>
<polygon fill="none" stroke="#404040" points="397.15,-441.06 398.61,-434 405.69,-432.64 404.23,-439.7 397.15,-441.06"/>
<text text-anchor="middle" x="413" y="-454" font-family="Helvetica,sans-Serif" font-size="10.00"> #settings_</text>
</g>
<!-- Node11 -->
<g id="node11" class="node">
<title>Node11</title>
<g id="a_node11"><a xlink:title=" ">
<polygon fill="none" stroke="#bfbfbf" points="115.5,-745 115.5,-802 198.5,-802 198.5,-745 115.5,-745"/>
<text text-anchor="middle" x="157" y="-790" font-family="Helvetica,sans-Serif" font-size="10.00">CallSignMode</text>
<polyline fill="none" stroke="#bfbfbf" points="115.5,-783 198.5,-783 "/>
<text text-anchor="middle" x="157" y="-771" font-family="Helvetica,sans-Serif" font-size="10.00"> </text>
<polyline fill="none" stroke="#bfbfbf" points="115.5,-764 198.5,-764 "/>
<text text-anchor="middle" x="157" y="-752" font-family="Helvetica,sans-Serif" font-size="10.00"> </text>
</a>
</g>
</g>
<!-- Node11&#45;&gt;Node10 -->
<g id="edge11" class="edge">
<title>Node11&#45;&gt;Node10</title>
<path fill="none" stroke="#404040" d="M157.96,-744.95C159.57,-725.18 163.68,-698.38 174,-677 186.68,-650.73 207.7,-626 226.66,-607"/>
<polygon fill="none" stroke="#404040" points="226.87,-606.79 228.38,-599.74 235.47,-598.42 233.96,-605.47 226.87,-606.79"/>
<text text-anchor="middle" x="218" y="-696.5" font-family="Helvetica,sans-Serif" font-size="10.00"> +call_sign_mode</text>
</g>
<!-- Node12 -->
<g id="node12" class="node">
<title>Node12</title>
<g id="a_node12"><a xlink:title=" ">
<polygon fill="none" stroke="#bfbfbf" points="53,-745 53,-802 97,-802 97,-745 53,-745"/>
<text text-anchor="middle" x="75" y="-790" font-family="Helvetica,sans-Serif" font-size="10.00">string</text>
<polyline fill="none" stroke="#bfbfbf" points="53,-783 97,-783 "/>
<text text-anchor="middle" x="75" y="-771" font-family="Helvetica,sans-Serif" font-size="10.00"> </text>
<polyline fill="none" stroke="#bfbfbf" points="53,-764 97,-764 "/>
<text text-anchor="middle" x="75" y="-752" font-family="Helvetica,sans-Serif" font-size="10.00"> </text>
</a>
</g>
</g>
<!-- Node12&#45;&gt;Node10 -->
<g id="edge12" class="edge">
<title>Node12&#45;&gt;Node10</title>
<path fill="none" stroke="#404040" d="M76.24,-744.69C78.65,-723.47 85.26,-694.93 103,-677 122.28,-657.51 137.89,-672.04 162,-659 187.67,-645.12 212.89,-624.43 232.29,-606.54"/>
<polygon fill="none" stroke="#404040" points="232.31,-606.52 233.94,-599.5 241.05,-598.29 239.42,-605.32 232.31,-606.52"/>
<text text-anchor="middle" x="130.5" y="-696.5" font-family="Helvetica,sans-Serif" font-size="10.00"> +call_sign</text>
</g>
<!-- Node13&#45;&gt;Node1 -->
<g id="edge13" class="edge">
<title>Node13&#45;&gt;Node1</title>
<path fill="none" stroke="#404040" d="M172.13,-347.77C179.21,-301.83 197.16,-218.02 239,-160 259.23,-131.94 289.48,-108.44 316.69,-91.04"/>
<polygon fill="none" stroke="#404040" points="316.75,-91 319.74,-84.44 326.95,-84.67 323.96,-91.24 316.75,-91"/>
<text text-anchor="middle" x="280" y="-219.5" font-family="Helvetica,sans-Serif" font-size="10.00"> #afsk_settings_</text>
</g>
<!-- Node16 -->
<g id="node16" class="node">
<title>Node16</title>
<g id="a_node16"><a xlink:href="classsignal__easel_1_1afsk_1_1Demodulator.html" target="_top" xlink:title="Demodulates an AFSK signal into data.">
<polygon fill="none" stroke="black" points="368,-160.5 368,-283.5 544,-283.5 544,-160.5 368,-160.5"/>
<text text-anchor="start" x="376" y="-271.5" font-family="Helvetica,sans-Serif" font-size="10.00">signal_easel::afsk</text>
<text text-anchor="middle" x="456" y="-260.5" font-family="Helvetica,sans-Serif" font-size="10.00">::Demodulator</text>
<polyline fill="none" stroke="black" points="368,-253.5 544,-253.5 "/>
<text text-anchor="middle" x="456" y="-241.5" font-family="Helvetica,sans-Serif" font-size="10.00"> </text>
<polyline fill="none" stroke="black" points="368,-234.5 544,-234.5 "/>
<text text-anchor="start" x="376" y="-222.5" font-family="Helvetica,sans-Serif" font-size="10.00">+ Demodulator()</text>
<text text-anchor="start" x="376" y="-211.5" font-family="Helvetica,sans-Serif" font-size="10.00">+ ~Demodulator()</text>
<text text-anchor="start" x="376" y="-200.5" font-family="Helvetica,sans-Serif" font-size="10.00">+ lookForString()</text>
<text text-anchor="start" x="376" y="-189.5" font-family="Helvetica,sans-Serif" font-size="10.00">+ processAudioBuffer()</text>
<text text-anchor="start" x="376" y="-178.5" font-family="Helvetica,sans-Serif" font-size="10.00">&#45; audioBufferToBaseBandSignal()</text>
<text text-anchor="start" x="376" y="-167.5" font-family="Helvetica,sans-Serif" font-size="10.00">&#45; baseBandToBitStream()</text>
</a>
</g>
</g>
<!-- Node13&#45;&gt;Node16 -->
<g id="edge21" class="edge">
<title>Node13&#45;&gt;Node16</title>
<path fill="none" stroke="#404040" d="M205.65,-347.78C213.15,-341.85 221.14,-335.99 229,-331 269.09,-305.57 316.09,-282.25 356.9,-263.84"/>
<polygon fill="none" stroke="#404040" points="357,-263.8 360.85,-257.7 367.95,-258.9 364.11,-265 357,-263.8"/>
<text text-anchor="middle" x="316" y="-305" font-family="Helvetica,sans-Serif" font-size="10.00"> &#45;afsk_settings_</text>
</g>
<!-- Node14 -->
<g id="node14" class="node">
<title>Node14</title>
<g id="a_node14"><a xlink:title=" ">
<polygon fill="none" stroke="#bfbfbf" points="0,-541 0,-598 74,-598 74,-541 0,-541"/>
<text text-anchor="middle" x="37" y="-586" font-family="Helvetica,sans-Serif" font-size="10.00">BitEncoding</text>
<polyline fill="none" stroke="#bfbfbf" points="0,-579 74,-579 "/>
<text text-anchor="middle" x="37" y="-567" font-family="Helvetica,sans-Serif" font-size="10.00"> </text>
<polyline fill="none" stroke="#bfbfbf" points="0,-560 74,-560 "/>
<text text-anchor="middle" x="37" y="-548" font-family="Helvetica,sans-Serif" font-size="10.00"> </text>
</a>
</g>
</g>
<!-- Node14&#45;&gt;Node13 -->
<g id="edge15" class="edge">
<title>Node14&#45;&gt;Node13</title>
<path fill="none" stroke="#404040" d="M35.19,-540.96C34.88,-515.52 37.99,-477.74 56,-451 68.11,-433.02 86.73,-419 105.34,-408.48"/>
<polygon fill="none" stroke="#404040" points="105.34,-408.48 108.76,-402.13 115.93,-402.85 112.51,-409.2 105.34,-408.48"/>
<text text-anchor="middle" x="93" y="-454" font-family="Helvetica,sans-Serif" font-size="10.00"> +bit_encoding</text>
</g>
<!-- Node15 -->
<g id="node15" class="node">
<title>Node15</title>
<g id="a_node15"><a xlink:title=" ">
<polygon fill="none" stroke="#bfbfbf" points="115,-541 115,-598 153,-598 153,-541 115,-541"/>
<text text-anchor="middle" x="134" y="-586" font-family="Helvetica,sans-Serif" font-size="10.00">bool</text>
<polyline fill="none" stroke="#bfbfbf" points="115,-579 153,-579 "/>
<text text-anchor="middle" x="134" y="-567" font-family="Helvetica,sans-Serif" font-size="10.00"> </text>
<polyline fill="none" stroke="#bfbfbf" points="115,-560 153,-560 "/>
<text text-anchor="middle" x="134" y="-548" font-family="Helvetica,sans-Serif" font-size="10.00"> </text>
</a>
</g>
</g>
<!-- Node15&#45;&gt;Node13 -->
<g id="edge16" class="edge">
<title>Node15&#45;&gt;Node13</title>
<path fill="none" stroke="#404040" d="M130.82,-540.55C128.89,-516.48 127.97,-480.99 135,-451 136.87,-443.02 139.79,-434.88 143.14,-427.14"/>
<polygon fill="none" stroke="#404040" points="143.2,-427.02 142.12,-419.89 148.29,-416.15 149.37,-423.28 143.2,-427.02"/>
<text text-anchor="middle" x="194.5" y="-454" font-family="Helvetica,sans-Serif" font-size="10.00"> +include_ascii_padding</text>
</g>
<!-- Node16&#45;&gt;Node1 -->
<g id="edge17" class="edge">
<title>Node16&#45;&gt;Node1</title>
<path fill="none" stroke="#404040" d="M427.33,-160.12C421.73,-148.23 415.83,-135.71 410.16,-123.67"/>
<polygon fill="none" stroke="#404040" points="410.14,-123.62 403.96,-119.9 405.03,-112.76 411.2,-116.49 410.14,-123.62"/>
<text text-anchor="middle" x="457.5" y="-134" font-family="Helvetica,sans-Serif" font-size="10.00"> #demodulator_</text>
</g>
<!-- Node17&#45;&gt;Node16 -->
<g id="edge18" class="edge">
<title>Node17&#45;&gt;Node16</title>
<path fill="none" stroke="midnightblue" d="M456,-321.31C456,-309.03 456,-296.09 456,-283.77"/>
<polygon fill="none" stroke="midnightblue" points="452.5,-321.44 456,-331.44 459.5,-321.44 452.5,-321.44"/>
</g>
<!-- Node18 -->
<g id="node18" class="node">
<title>Node18</title>
<g id="a_node18"><a xlink:title=" ">
<polygon fill="none" stroke="#bfbfbf" points="631,-541 631,-598 735,-598 735,-541 631,-541"/>
<text text-anchor="middle" x="683" y="-586" font-family="Helvetica,sans-Serif" font-size="10.00">vector&lt; int16_t &gt;</text>
<polyline fill="none" stroke="#bfbfbf" points="631,-579 735,-579 "/>
<text text-anchor="middle" x="683" y="-567" font-family="Helvetica,sans-Serif" font-size="10.00"> </text>
<polyline fill="none" stroke="#bfbfbf" points="631,-560 735,-560 "/>
<text text-anchor="middle" x="683" y="-548" font-family="Helvetica,sans-Serif" font-size="10.00"> </text>
</a>
</g>
</g>
<!-- Node18&#45;&gt;Node1 -->
<g id="edge27" class="edge">
<title>Node18&#45;&gt;Node1</title>
<path fill="none" stroke="#404040" d="M711.9,-540.79C744.3,-508.93 793.59,-457.83 803,-433 819.07,-390.61 824.15,-371.1 803,-331 727.79,-188.43 541.62,-109.5 442.87,-76.39"/>
<polygon fill="none" stroke="#404040" points="442.68,-76.33 435.73,-78.26 431.28,-72.58 438.23,-70.66 442.68,-76.33"/>
<text text-anchor="middle" x="833.5" y="-305" font-family="Helvetica,sans-Serif" font-size="10.00"> #receive_buffer_</text>
</g>
<!-- Node18&#45;&gt;Node17 -->
<g id="edge19" class="edge">
<title>Node18&#45;&gt;Node17</title>
<path fill="none" stroke="#404040" d="M660.42,-540.76C639.04,-515.52 605.19,-478.18 571,-451 564.67,-445.97 553.26,-438.63 540,-430.62"/>
<polygon fill="none" stroke="#404040" points="539.86,-430.54 532.66,-430.9 529.56,-424.39 536.76,-424.03 539.86,-430.54"/>
<text text-anchor="middle" x="620" y="-454" font-family="Helvetica,sans-Serif" font-size="10.00"> #audio_buffer_</text>
</g>
<!-- Node19&#45;&gt;Node16 -->
<g id="edge22" class="edge">
<title>Node19&#45;&gt;Node16</title>
<path fill="none" stroke="#404040" d="M780.33,-503.81C768.62,-495.15 756.3,-486.89 744,-480 710.64,-461.31 699.82,-461.3 663,-451 624.56,-440.24 605.1,-459.22 575,-433 538.75,-401.42 561.93,-373.25 539,-331 532.13,-318.34 523.82,-305.58 515.16,-293.5"/>
<polygon fill="none" stroke="#404040" points="514.93,-293.19 508.15,-290.72 507.82,-283.52 514.6,-285.98 514.93,-293.19"/>
<text text-anchor="middle" x="628" y="-379.5" font-family="Helvetica,sans-Serif" font-size="10.00"> #output_bit_stream_</text>
</g>
<!-- Node20 -->
<g id="node20" class="node">
<title>Node20</title>
<g id="a_node20"><a xlink:title=" ">
<polygon fill="none" stroke="#bfbfbf" points="933.5,-745 933.5,-802 962.5,-802 962.5,-745 933.5,-745"/>
<text text-anchor="middle" x="948" y="-790" font-family="Helvetica,sans-Serif" font-size="10.00">int</text>
<polyline fill="none" stroke="#bfbfbf" points="933.5,-783 962.5,-783 "/>
<text text-anchor="middle" x="948" y="-771" font-family="Helvetica,sans-Serif" font-size="10.00"> </text>
<polyline fill="none" stroke="#bfbfbf" points="933.5,-764 962.5,-764 "/>
<text text-anchor="middle" x="948" y="-752" font-family="Helvetica,sans-Serif" font-size="10.00"> </text>
</a>
</g>
</g>
<!-- Node20&#45;&gt;Node19 -->
<g id="edge24" class="edge">
<title>Node20&#45;&gt;Node19</title>
<path fill="none" stroke="#404040" d="M944.4,-744.9C941.19,-725.36 935.5,-698.84 926,-677 924.91,-674.51 923.77,-672.01 922.57,-669.51"/>
<polygon fill="none" stroke="#404040" points="922.46,-669.3 916.18,-665.76 917.02,-658.6 923.31,-662.13 922.46,-669.3"/>
<text text-anchor="middle" x="987.5" y="-713" font-family="Helvetica,sans-Serif" font-size="10.00"> &#45;bit_stream_index_</text>
<text text-anchor="start" x="939" y="-702" font-family="Helvetica,sans-Serif" font-size="10.00">&#45;bit_stream_length</text>
<text text-anchor="middle" x="987.5" y="-691" font-family="Helvetica,sans-Serif" font-size="10.00">_</text>
<text text-anchor="middle" x="987.5" y="-680" font-family="Helvetica,sans-Serif" font-size="10.00">&#45;bit_stream_offset_</text>
</g>
<!-- Node21 -->
<g id="node21" class="node">
<title>Node21</title>
<g id="a_node21"><a xlink:title=" ">
<polygon fill="none" stroke="#bfbfbf" points="1013,-745 1013,-802 1123,-802 1123,-745 1013,-745"/>
<text text-anchor="middle" x="1068" y="-790" font-family="Helvetica,sans-Serif" font-size="10.00">vector&lt; uint32_t &gt;</text>
<polyline fill="none" stroke="#bfbfbf" points="1013,-783 1123,-783 "/>
<text text-anchor="middle" x="1068" y="-771" font-family="Helvetica,sans-Serif" font-size="10.00"> </text>
<polyline fill="none" stroke="#bfbfbf" points="1013,-764 1123,-764 "/>
<text text-anchor="middle" x="1068" y="-752" font-family="Helvetica,sans-Serif" font-size="10.00"> </text>
</a>
</g>
</g>
<!-- Node21&#45;&gt;Node19 -->
<g id="edge25" class="edge">
<title>Node21&#45;&gt;Node19</title>
<path fill="none" stroke="#404040" d="M1065.46,-744.87C1062.34,-724.31 1055.41,-696.53 1040,-677 1013.89,-643.91 974.47,-619.25 938.63,-602.04"/>
<polygon fill="none" stroke="#404040" points="938.52,-601.99 931.39,-603.09 927.64,-596.94 934.76,-595.83 938.52,-601.99"/>
<text text-anchor="middle" x="1092.5" y="-696.5" font-family="Helvetica,sans-Serif" font-size="10.00"> &#45;bit_stream_</text>
</g>
<!-- Node22 -->
<g id="node22" class="node">
<title>Node22</title>
<g id="a_node22"><a xlink:title=" ">
<polygon fill="none" stroke="#bfbfbf" points="690,-353.5 690,-410.5 794,-410.5 794,-353.5 690,-353.5"/>
<text text-anchor="middle" x="742" y="-398.5" font-family="Helvetica,sans-Serif" font-size="10.00">vector&lt; uint8_t &gt;</text>
<polyline fill="none" stroke="#bfbfbf" points="690,-391.5 794,-391.5 "/>
<text text-anchor="middle" x="742" y="-379.5" font-family="Helvetica,sans-Serif" font-size="10.00"> </text>
<polyline fill="none" stroke="#bfbfbf" points="690,-372.5 794,-372.5 "/>
<text text-anchor="middle" x="742" y="-360.5" font-family="Helvetica,sans-Serif" font-size="10.00"> </text>
</a>
</g>
</g>
<!-- Node22&#45;&gt;Node16 -->
<g id="edge26" class="edge">
<title>Node22&#45;&gt;Node16</title>
<path fill="none" stroke="#404040" d="M708.29,-353.5C698.19,-345.8 686.89,-337.71 676,-331 637.92,-307.53 594.02,-285.13 555.5,-266.87"/>
<polygon fill="none" stroke="#404040" points="555.12,-266.69 547.99,-267.76 544.26,-261.59 551.39,-260.52 555.12,-266.69"/>
<text text-anchor="middle" x="691" y="-305" font-family="Helvetica,sans-Serif" font-size="10.00"> &#45;base_band_signal_</text>
</g>
</g>
</svg>
