<?xml version="1.0" encoding="UTF-8" standalone="no"?>
<!DOCTYPE svg PUBLIC "-//W3C//DTD SVG 1.1//EN"
 "http://www.w3.org/Graphics/SVG/1.1/DTD/svg11.dtd">
<!-- Generated by graphviz version 2.43.0 (0)
 -->
<!-- Title: signal_easel::aprs::Modulator Pages: 1 -->
<svg width="1063pt" height="899pt"
 viewBox="0.00 0.00 1063.00 899.00" xmlns="http://www.w3.org/2000/svg" xmlns:xlink="http://www.w3.org/1999/xlink">
<g id="graph0" class="graph" transform="scale(1 1) rotate(0) translate(4 895)">
<title>signal_easel::aprs::Modulator</title>
<!-- Node1 -->
<g id="node1" class="node">
<title>Node1</title>
<g id="a_node1"><a xlink:title=" ">
<polygon fill="#bfbfbf" stroke="black" points="435,-0.5 435,-112.5 581,-112.5 581,-0.5 435,-0.5"/>
<text text-anchor="start" x="443" y="-100.5" font-family="Helvetica,sans-Serif" font-size="10.00">signal_easel::aprs</text>
<text text-anchor="middle" x="508" y="-89.5" font-family="Helvetica,sans-Serif" font-size="10.00">::Modulator</text>
<polyline fill="none" stroke="black" points="435,-82.5 581,-82.5 "/>
<text text-anchor="middle" x="508" y="-70.5" font-family="Helvetica,sans-Serif" font-size="10.00"> </text>
<polyline fill="none" stroke="black" points="435,-63.5 581,-63.5 "/>
<text text-anchor="start" x="443" y="-51.5" font-family="Helvetica,sans-Serif" font-size="10.00">+ Modulator()</text>
<text text-anchor="start" x="443" y="-40.5" font-family="Helvetica,sans-Serif" font-size="10.00">+ encodeMessagePacket()</text>
<text text-anchor="start" x="443" y="-29.5" font-family="Helvetica,sans-Serif" font-size="10.00">+ encodePositionPacket()</text>
<text text-anchor="start" x="443" y="-18.5" font-family="Helvetica,sans-Serif" font-size="10.00">+ setBasePacket()</text>
<text text-anchor="start" x="443" y="-7.5" font-family="Helvetica,sans-Serif" font-size="10.00">+ setCallSign()</text>
</a>
</g>
</g>
<!-- Node2 -->
<g id="node2" class="node">
<title>Node2</title>
<g id="a_node2"><a xlink:href="classsignal__easel_1_1afsk_1_1Modulator.html" target="_top" xlink:title="Modulates data into an AFSK signal.">
<polygon fill="none" stroke="black" points="334,-160.5 334,-261.5 438,-261.5 438,-160.5 334,-160.5"/>
<text text-anchor="start" x="342" y="-249.5" font-family="Helvetica,sans-Serif" font-size="10.00">signal_easel::afsk</text>
<text text-anchor="middle" x="386" y="-238.5" font-family="Helvetica,sans-Serif" font-size="10.00">::Modulator</text>
<polyline fill="none" stroke="black" points="334,-231.5 438,-231.5 "/>
<text text-anchor="middle" x="386" y="-219.5" font-family="Helvetica,sans-Serif" font-size="10.00"> </text>
<polyline fill="none" stroke="black" points="334,-212.5 438,-212.5 "/>
<text text-anchor="start" x="342" y="-200.5" font-family="Helvetica,sans-Serif" font-size="10.00">+ Modulator()</text>
<text text-anchor="start" x="342" y="-189.5" font-family="Helvetica,sans-Serif" font-size="10.00">+ ~Modulator()</text>
<text text-anchor="start" x="342" y="-178.5" font-family="Helvetica,sans-Serif" font-size="10.00"># encodeBytes()</text>
<text text-anchor="start" x="342" y="-167.5" font-family="Helvetica,sans-Serif" font-size="10.00">&#45; convertToNRZI()</text>
</a>
</g>
</g>
<!-- Node2&#45;&gt;Node1 -->
<g id="edge1" class="edge">
<title>Node2&#45;&gt;Node1</title>
<path fill="none" stroke="midnightblue" d="M432.03,-152.46C442.49,-139.39 453.57,-125.54 463.94,-112.57"/>
<polygon fill="none" stroke="midnightblue" points="429.12,-150.49 425.61,-160.49 434.59,-154.87 429.12,-150.49"/>
</g>
<!-- Node3 -->
<g id="node3" class="node">
<title>Node3</title>
<g id="a_node3"><a xlink:href="classsignal__easel_1_1DataModulator.html" target="_top" xlink:title="Another abstract base class for modulators that turn text/binary data into audio.">
<polygon fill="none" stroke="black" points="174,-353.5 174,-454.5 330,-454.5 330,-353.5 174,-353.5"/>
<text text-anchor="middle" x="252" y="-442.5" font-family="Helvetica,sans-Serif" font-size="10.00">signal_easel::DataModulator</text>
<polyline fill="none" stroke="black" points="174,-435.5 330,-435.5 "/>
<text text-anchor="middle" x="252" y="-423.5" font-family="Helvetica,sans-Serif" font-size="10.00"> </text>
<polyline fill="none" stroke="black" points="174,-416.5 330,-416.5 "/>
<text text-anchor="start" x="182" y="-404.5" font-family="Helvetica,sans-Serif" font-size="10.00">+ DataModulator()</text>
<text text-anchor="start" x="182" y="-393.5" font-family="Helvetica,sans-Serif" font-size="10.00">+ ~DataModulator()</text>
<text text-anchor="start" x="182" y="-382.5" font-family="Helvetica,sans-Serif" font-size="10.00">+ addBytes()</text>
<text text-anchor="start" x="182" y="-371.5" font-family="Helvetica,sans-Serif" font-size="10.00">+ addString()</text>
<text text-anchor="start" x="182" y="-360.5" font-family="Helvetica,sans-Serif" font-size="10.00"># encodeBytes()</text>
</a>
</g>
</g>
<!-- Node3&#45;&gt;Node2 -->
<g id="edge2" class="edge">
<title>Node3&#45;&gt;Node2</title>
<path fill="none" stroke="midnightblue" d="M286.19,-344.73C299.01,-323.9 314.1,-300.51 329,-280 333.44,-273.89 338.26,-267.63 343.17,-261.5"/>
<polygon fill="none" stroke="midnightblue" points="283.07,-343.13 280.84,-353.49 289.04,-346.78 283.07,-343.13"/>
</g>
<!-- Node4 -->
<g id="node4" class="node">
<title>Node4</title>
<g id="a_node4"><a xlink:href="classsignal__easel_1_1Modulator.html" target="_top" xlink:title="The abstract base class for all modulators that turn data into audio.">
<polygon fill="none" stroke="black" points="288.5,-502.5 288.5,-647.5 421.5,-647.5 421.5,-502.5 288.5,-502.5"/>
<text text-anchor="middle" x="355" y="-635.5" font-family="Helvetica,sans-Serif" font-size="10.00">signal_easel::Modulator</text>
<polyline fill="none" stroke="black" points="288.5,-628.5 421.5,-628.5 "/>
<text text-anchor="middle" x="355" y="-616.5" font-family="Helvetica,sans-Serif" font-size="10.00"> </text>
<polyline fill="none" stroke="black" points="288.5,-609.5 421.5,-609.5 "/>
<text text-anchor="start" x="296.5" y="-597.5" font-family="Helvetica,sans-Serif" font-size="10.00">+ Modulator()</text>
<text text-anchor="start" x="296.5" y="-586.5" font-family="Helvetica,sans-Serif" font-size="10.00">+ ~Modulator()</text>
<text text-anchor="start" x="296.5" y="-575.5" font-family="Helvetica,sans-Serif" font-size="10.00">+ clearBuffer()</text>
<text text-anchor="start" x="296.5" y="-564.5" font-family="Helvetica,sans-Serif" font-size="10.00">+ writeToFile()</text>
<text text-anchor="start" x="296.5" y="-553.5" font-family="Helvetica,sans-Serif" font-size="10.00">+ writeToPulseAudio()</text>
<text text-anchor="start" x="296.5" y="-542.5" font-family="Helvetica,sans-Serif" font-size="10.00"># addAudioSample()</text>
<text text-anchor="start" x="296.5" y="-531.5" font-family="Helvetica,sans-Serif" font-size="10.00"># addSilence()</text>
<text text-anchor="start" x="296.5" y="-520.5" font-family="Helvetica,sans-Serif" font-size="10.00"># addSineWave()</text>
<text text-anchor="start" x="296.5" y="-509.5" font-family="Helvetica,sans-Serif" font-size="10.00">&#45; addMorseCode()</text>
</a>
</g>
</g>
<!-- Node4&#45;&gt;Node3 -->
<g id="edge3" class="edge">
<title>Node4&#45;&gt;Node3</title>
<path fill="none" stroke="midnightblue" d="M306,-493.6C297.87,-480.27 289.66,-466.8 282.18,-454.52"/>
<polygon fill="none" stroke="midnightblue" points="303.13,-495.61 311.32,-502.33 309.1,-491.97 303.13,-495.61"/>
</g>
<!-- Node5 -->
<g id="node5" class="node">
<title>Node5</title>
<g id="a_node5"><a xlink:title=" ">
<polygon fill="none" stroke="#bfbfbf" points="312,-833.5 312,-890.5 362,-890.5 362,-833.5 312,-833.5"/>
<text text-anchor="middle" x="337" y="-878.5" font-family="Helvetica,sans-Serif" font-size="10.00">double</text>
<polyline fill="none" stroke="#bfbfbf" points="312,-871.5 362,-871.5 "/>
<text text-anchor="middle" x="337" y="-859.5" font-family="Helvetica,sans-Serif" font-size="10.00"> </text>
<polyline fill="none" stroke="#bfbfbf" points="312,-852.5 362,-852.5 "/>
<text text-anchor="middle" x="337" y="-840.5" font-family="Helvetica,sans-Serif" font-size="10.00"> </text>
</a>
</g>
</g>
<!-- Node5&#45;&gt;Node2 -->
<g id="edge15" class="edge">
<title>Node5&#45;&gt;Node2</title>
<path fill="none" stroke="#404040" d="M311.64,-856.1C259.68,-844.42 146,-809.82 146,-730.5 146,-730.5 146,-730.5 146,-403 146,-312.71 251.29,-258.23 322.39,-231.74"/>
<polygon fill="none" stroke="#404040" points="322.64,-231.65 326.92,-225.85 333.92,-227.57 329.64,-233.37 322.64,-231.65"/>
<text text-anchor="start" x="146" y="-589" font-family="Helvetica,sans-Serif" font-size="10.00"> &#45;CENTER_OVER_SAMPLE</text>
<text text-anchor="middle" x="208" y="-578" font-family="Helvetica,sans-Serif" font-size="10.00">_FREQ_</text>
<text text-anchor="start" x="146" y="-567" font-family="Helvetica,sans-Serif" font-size="10.00">&#45;DELTA_OVER_SAMPLE</text>
<text text-anchor="middle" x="208" y="-556" font-family="Helvetica,sans-Serif" font-size="10.00">_FREQ_</text>
</g>
<!-- Node5&#45;&gt;Node4 -->
<g id="edge4" class="edge">
<title>Node5&#45;&gt;Node4</title>
<path fill="none" stroke="#404040" d="M338.6,-833.39C340.53,-800.44 343.9,-743.69 347,-695 347.72,-683.65 348.5,-671.69 349.29,-659.91"/>
<polygon fill="none" stroke="#404040" points="349.3,-659.71 345.71,-653.45 350.1,-647.73 353.69,-653.98 349.3,-659.71"/>
<text text-anchor="middle" x="396.5" y="-727" font-family="Helvetica,sans-Serif" font-size="10.00"> &#45;sine_wave_phase_</text>
</g>
<!-- Node7 -->
<g id="node7" class="node">
<title>Node7</title>
<g id="a_node7"><a xlink:href="structsignal__easel_1_1Settings.html" target="_top" xlink:title="The universal settings for MWAV.">
<polygon fill="none" stroke="black" points="454.5,-701 454.5,-758 577.5,-758 577.5,-701 454.5,-701"/>
<text text-anchor="middle" x="516" y="-746" font-family="Helvetica,sans-Serif" font-size="10.00">signal_easel::Settings</text>
<polyline fill="none" stroke="black" points="454.5,-739 577.5,-739 "/>
<text text-anchor="middle" x="516" y="-727" font-family="Helvetica,sans-Serif" font-size="10.00"> </text>
<polyline fill="none" stroke="black" points="454.5,-720 577.5,-720 "/>
<text text-anchor="middle" x="516" y="-708" font-family="Helvetica,sans-Serif" font-size="10.00"> </text>
</a>
</g>
</g>
<!-- Node5&#45;&gt;Node7 -->
<g id="edge7" class="edge">
<title>Node5&#45;&gt;Node7</title>
<path fill="none" stroke="#404040" d="M347.83,-833.38C355.79,-816.38 368.15,-795.36 385,-782 405.15,-766.02 415.98,-773.2 440,-764 441.21,-763.54 442.43,-763.06 443.66,-762.58"/>
<polygon fill="none" stroke="#404040" points="443.7,-762.57 447.77,-756.62 454.83,-758.09 450.75,-764.04 443.7,-762.57"/>
<text text-anchor="middle" x="428" y="-807" font-family="Helvetica,sans-Serif" font-size="10.00"> +amplitude</text>
<text text-anchor="start" x="385" y="-796" font-family="Helvetica,sans-Serif" font-size="10.00">+call_sign_pause</text>
<text text-anchor="middle" x="428" y="-785" font-family="Helvetica,sans-Serif" font-size="10.00">_seconds</text>
</g>
<!-- Node6 -->
<g id="node6" class="node">
<title>Node6</title>
<g id="a_node6"><a xlink:title=" ">
<polygon fill="none" stroke="#bfbfbf" points="192,-701 192,-758 296,-758 296,-701 192,-701"/>
<text text-anchor="middle" x="244" y="-746" font-family="Helvetica,sans-Serif" font-size="10.00">vector&lt; int16_t &gt;</text>
<polyline fill="none" stroke="#bfbfbf" points="192,-739 296,-739 "/>
<text text-anchor="middle" x="244" y="-727" font-family="Helvetica,sans-Serif" font-size="10.00"> </text>
<polyline fill="none" stroke="#bfbfbf" points="192,-720 296,-720 "/>
<text text-anchor="middle" x="244" y="-708" font-family="Helvetica,sans-Serif" font-size="10.00"> </text>
</a>
</g>
</g>
<!-- Node6&#45;&gt;Node4 -->
<g id="edge5" class="edge">
<title>Node6&#45;&gt;Node4</title>
<path fill="none" stroke="#404040" d="M238.86,-700.84C238.1,-689.38 239.11,-676.39 245,-666 252.48,-652.8 261.84,-657.07 274,-648 275.46,-646.91 276.93,-645.8 278.4,-644.67"/>
<polygon fill="none" stroke="#404040" points="278.69,-644.44 280.92,-637.58 288.11,-637 285.88,-643.86 278.69,-644.44"/>
<text text-anchor="middle" x="284" y="-669" font-family="Helvetica,sans-Serif" font-size="10.00"> #audio_buffer_</text>
</g>
<!-- Node7&#45;&gt;Node4 -->
<g id="edge6" class="edge">
<title>Node7&#45;&gt;Node4</title>
<path fill="none" stroke="#404040" d="M486.84,-700.88C470.98,-685.85 450.54,-666.5 430.52,-647.54"/>
<polygon fill="none" stroke="#404040" points="430.39,-647.41 423.28,-646.19 421.68,-639.16 428.79,-640.38 430.39,-647.41"/>
<text text-anchor="middle" x="487" y="-669" font-family="Helvetica,sans-Serif" font-size="10.00"> #settings_</text>
</g>
<!-- Node11 -->
<g id="node11" class="node">
<title>Node11</title>
<g id="a_node11"><a xlink:href="structsignal__easel_1_1afsk_1_1Settings.html" target="_top" xlink:title="Settings for AFSK modulation/demodulation.">
<polygon fill="none" stroke="black" points="626,-370 626,-438 730,-438 730,-370 626,-370"/>
<text text-anchor="start" x="634" y="-426" font-family="Helvetica,sans-Serif" font-size="10.00">signal_easel::afsk</text>
<text text-anchor="middle" x="678" y="-415" font-family="Helvetica,sans-Serif" font-size="10.00">::Settings</text>
<polyline fill="none" stroke="black" points="626,-408 730,-408 "/>
<text text-anchor="middle" x="678" y="-396" font-family="Helvetica,sans-Serif" font-size="10.00"> </text>
<polyline fill="none" stroke="black" points="626,-389 730,-389 "/>
<text text-anchor="middle" x="678" y="-377" font-family="Helvetica,sans-Serif" font-size="10.00"> </text>
</a>
</g>
</g>
<!-- Node7&#45;&gt;Node11 -->
<g id="edge12" class="edge">
<title>Node7&#45;&gt;Node11</title>
<path fill="none" stroke="midnightblue" d="M586.77,-702.43C611.99,-689.73 638.27,-671.91 655,-648 699.21,-584.8 692.18,-488.65 684.43,-438.33"/>
<polygon fill="none" stroke="midnightblue" points="585.02,-699.39 577.54,-706.88 588.07,-705.69 585.02,-699.39"/>
</g>
<!-- Node8 -->
<g id="node8" class="node">
<title>Node8</title>
<g id="a_node8"><a xlink:title=" ">
<polygon fill="none" stroke="#bfbfbf" points="437.5,-833.5 437.5,-890.5 520.5,-890.5 520.5,-833.5 437.5,-833.5"/>
<text text-anchor="middle" x="479" y="-878.5" font-family="Helvetica,sans-Serif" font-size="10.00">CallSignMode</text>
<polyline fill="none" stroke="#bfbfbf" points="437.5,-871.5 520.5,-871.5 "/>
<text text-anchor="middle" x="479" y="-859.5" font-family="Helvetica,sans-Serif" font-size="10.00"> </text>
<polyline fill="none" stroke="#bfbfbf" points="437.5,-852.5 520.5,-852.5 "/>
<text text-anchor="middle" x="479" y="-840.5" font-family="Helvetica,sans-Serif" font-size="10.00"> </text>
</a>
</g>
</g>
<!-- Node8&#45;&gt;Node7 -->
<g id="edge8" class="edge">
<title>Node8&#45;&gt;Node7</title>
<path fill="none" stroke="#404040" d="M475.42,-833.3C474.38,-817.85 474.71,-798.45 480,-782 481.48,-777.4 483.53,-772.85 485.9,-768.47"/>
<polygon fill="none" stroke="#404040" points="486.05,-768.23 485.78,-761.02 492.33,-758 492.59,-765.21 486.05,-768.23"/>
<text text-anchor="middle" x="524" y="-796" font-family="Helvetica,sans-Serif" font-size="10.00"> +call_sign_mode</text>
</g>
<!-- Node9 -->
<g id="node9" class="node">
<title>Node9</title>
<g id="a_node9"><a xlink:title=" ">
<polygon fill="none" stroke="#bfbfbf" points="607,-833.5 607,-890.5 651,-890.5 651,-833.5 607,-833.5"/>
<text text-anchor="middle" x="629" y="-878.5" font-family="Helvetica,sans-Serif" font-size="10.00">string</text>
<polyline fill="none" stroke="#bfbfbf" points="607,-871.5 651,-871.5 "/>
<text text-anchor="middle" x="629" y="-859.5" font-family="Helvetica,sans-Serif" font-size="10.00"> </text>
<polyline fill="none" stroke="#bfbfbf" points="607,-852.5 651,-852.5 "/>
<text text-anchor="middle" x="629" y="-840.5" font-family="Helvetica,sans-Serif" font-size="10.00"> </text>
</a>
</g>
</g>
<!-- Node9&#45;&gt;Node7 -->
<g id="edge9" class="edge">
<title>Node9&#45;&gt;Node7</title>
<path fill="none" stroke="#404040" d="M606.92,-835.03C601.6,-828.57 596.01,-821.6 591,-815 580.19,-800.76 579.51,-795.68 568,-782 563.76,-776.96 559.1,-771.84 554.37,-766.89"/>
<polygon fill="none" stroke="#404040" points="554.25,-766.78 547.19,-765.3 545.84,-758.21 552.9,-759.69 554.25,-766.78"/>
<text text-anchor="middle" x="618.5" y="-796" font-family="Helvetica,sans-Serif" font-size="10.00"> +call_sign</text>
</g>
<!-- Node17 -->
<g id="node17" class="node">
<title>Node17</title>
<g id="a_node17"><a xlink:href="structsignal__easel_1_1aprs_1_1Packet.html" target="_top" xlink:title=" ">
<polygon fill="none" stroke="black" points="749,-695.5 749,-763.5 853,-763.5 853,-695.5 749,-695.5"/>
<text text-anchor="start" x="757" y="-751.5" font-family="Helvetica,sans-Serif" font-size="10.00">signal_easel::aprs</text>
<text text-anchor="middle" x="801" y="-740.5" font-family="Helvetica,sans-Serif" font-size="10.00">::Packet</text>
<polyline fill="none" stroke="black" points="749,-733.5 853,-733.5 "/>
<text text-anchor="middle" x="801" y="-721.5" font-family="Helvetica,sans-Serif" font-size="10.00"> </text>
<polyline fill="none" stroke="black" points="749,-714.5 853,-714.5 "/>
<text text-anchor="middle" x="801" y="-702.5" font-family="Helvetica,sans-Serif" font-size="10.00"> </text>
</a>
</g>
</g>
<!-- Node9&#45;&gt;Node17 -->
<g id="edge25" class="edge">
<title>Node9&#45;&gt;Node17</title>
<path fill="none" stroke="#404040" d="M644.36,-833.3C654.67,-816.7 669.55,-796.14 687,-782 701.88,-769.94 720.04,-760.08 737.45,-752.34"/>
<polygon fill="none" stroke="#404040" points="737.69,-752.23 741.65,-746.21 748.74,-747.55 744.77,-753.57 737.69,-752.23"/>
<text text-anchor="middle" x="742" y="-801.5" font-family="Helvetica,sans-Serif" font-size="10.00"> +destination_address</text>
<text text-anchor="middle" x="742" y="-790.5" font-family="Helvetica,sans-Serif" font-size="10.00">+source_address</text>
</g>
<!-- Node10 -->
<g id="node10" class="node">
<title>Node10</title>
<g id="a_node10"><a xlink:title=" ">
<polygon fill="none" stroke="#bfbfbf" points="0,-375.5 0,-432.5 44,-432.5 44,-375.5 0,-375.5"/>
<text text-anchor="middle" x="22" y="-420.5" font-family="Helvetica,sans-Serif" font-size="10.00">int8_t</text>
<polyline fill="none" stroke="#bfbfbf" points="0,-413.5 44,-413.5 "/>
<text text-anchor="middle" x="22" y="-401.5" font-family="Helvetica,sans-Serif" font-size="10.00"> </text>
<polyline fill="none" stroke="#bfbfbf" points="0,-394.5 44,-394.5 "/>
<text text-anchor="middle" x="22" y="-382.5" font-family="Helvetica,sans-Serif" font-size="10.00"> </text>
</a>
</g>
</g>
<!-- Node10&#45;&gt;Node2 -->
<g id="edge10" class="edge">
<title>Node10&#45;&gt;Node2</title>
<path fill="none" stroke="#404040" d="M13.13,-375.39C6.19,-347.96 1,-306.28 23,-280 60.41,-235.3 227.82,-219.79 321.67,-214.56"/>
<polygon fill="none" stroke="#404040" points="321.87,-214.55 327.65,-210.24 333.85,-213.91 328.07,-218.23 321.87,-214.55"/>
<text text-anchor="start" x="23" y="-316" font-family="Helvetica,sans-Serif" font-size="10.00"> &#45;current_bipolar_bit</text>
<text text-anchor="middle" x="77.5" y="-305" font-family="Helvetica,sans-Serif" font-size="10.00">_</text>
<text text-anchor="middle" x="77.5" y="-294" font-family="Helvetica,sans-Serif" font-size="10.00">&#45;previous_bipolar_bit_</text>
</g>
<!-- Node11&#45;&gt;Node2 -->
<g id="edge11" class="edge">
<title>Node11&#45;&gt;Node2</title>
<path fill="none" stroke="#404040" d="M659.19,-369.95C653.32,-359 647.06,-346.64 642,-335 631.7,-311.28 641.77,-297.79 623,-280 576.41,-235.83 503.07,-220.07 450.31,-214.6"/>
<polygon fill="none" stroke="#404040" points="449.99,-214.57 443.65,-218.01 438.04,-213.47 444.38,-210.04 449.99,-214.57"/>
<text text-anchor="middle" x="668" y="-305" font-family="Helvetica,sans-Serif" font-size="10.00"> &#45;settings_</text>
</g>
<!-- Node16 -->
<g id="node16" class="node">
<title>Node16</title>
<g id="a_node16"><a xlink:href="structsignal__easel_1_1aprs_1_1Settings.html" target="_top" xlink:title=" ">
<polygon fill="none" stroke="black" points="660,-177 660,-245 764,-245 764,-177 660,-177"/>
<text text-anchor="start" x="668" y="-233" font-family="Helvetica,sans-Serif" font-size="10.00">signal_easel::aprs</text>
<text text-anchor="middle" x="712" y="-222" font-family="Helvetica,sans-Serif" font-size="10.00">::Settings</text>
<polyline fill="none" stroke="black" points="660,-215 764,-215 "/>
<text text-anchor="middle" x="712" y="-203" font-family="Helvetica,sans-Serif" font-size="10.00"> </text>
<polyline fill="none" stroke="black" points="660,-196 764,-196 "/>
<text text-anchor="start" x="668" y="-184" font-family="Helvetica,sans-Serif" font-size="10.00">+ Settings()</text>
</a>
</g>
</g>
<!-- Node11&#45;&gt;Node16 -->
<g id="edge20" class="edge">
<title>Node11&#45;&gt;Node16</title>
<path fill="none" stroke="midnightblue" d="M691.88,-359.95C694.18,-351.73 696.35,-343.15 698,-335 704.1,-304.88 707.75,-270.03 709.79,-245.13"/>
<polygon fill="none" stroke="midnightblue" points="688.46,-359.16 689.03,-369.74 695.18,-361.11 688.46,-359.16"/>
</g>
<!-- Node12 -->
<g id="node12" class="node">
<title>Node12</title>
<g id="a_node12"><a xlink:title=" ">
<polygon fill="none" stroke="#bfbfbf" points="572,-546.5 572,-603.5 646,-603.5 646,-546.5 572,-546.5"/>
<text text-anchor="middle" x="609" y="-591.5" font-family="Helvetica,sans-Serif" font-size="10.00">BitEncoding</text>
<polyline fill="none" stroke="#bfbfbf" points="572,-584.5 646,-584.5 "/>
<text text-anchor="middle" x="609" y="-572.5" font-family="Helvetica,sans-Serif" font-size="10.00"> </text>
<polyline fill="none" stroke="#bfbfbf" points="572,-565.5 646,-565.5 "/>
<text text-anchor="middle" x="609" y="-553.5" font-family="Helvetica,sans-Serif" font-size="10.00"> </text>
</a>
</g>
</g>
<!-- Node12&#45;&gt;Node11 -->
<g id="edge13" class="edge">
<title>Node12&#45;&gt;Node11</title>
<path fill="none" stroke="#404040" d="M603.79,-546.29C601.13,-525.33 600.22,-496.28 610,-473 613.86,-463.81 619.62,-455.2 626.18,-447.41"/>
<polygon fill="none" stroke="#404040" points="626.4,-447.17 627.51,-440.05 634.51,-438.33 633.41,-445.46 626.4,-447.17"/>
<text text-anchor="middle" x="647" y="-476" font-family="Helvetica,sans-Serif" font-size="10.00"> +bit_encoding</text>
</g>
<!-- Node13 -->
<g id="node13" class="node">
<title>Node13</title>
<g id="a_node13"><a xlink:title=" ">
<polygon fill="none" stroke="#bfbfbf" points="444,-546.5 444,-603.5 482,-603.5 482,-546.5 444,-546.5"/>
<text text-anchor="middle" x="463" y="-591.5" font-family="Helvetica,sans-Serif" font-size="10.00">bool</text>
<polyline fill="none" stroke="#bfbfbf" points="444,-584.5 482,-584.5 "/>
<text text-anchor="middle" x="463" y="-572.5" font-family="Helvetica,sans-Serif" font-size="10.00"> </text>
<polyline fill="none" stroke="#bfbfbf" points="444,-565.5 482,-565.5 "/>
<text text-anchor="middle" x="463" y="-553.5" font-family="Helvetica,sans-Serif" font-size="10.00"> </text>
</a>
</g>
</g>
<!-- Node13&#45;&gt;Node2 -->
<g id="edge18" class="edge">
<title>Node13&#45;&gt;Node2</title>
<path fill="none" stroke="#404040" d="M458.03,-546.15C453.8,-522.07 447.68,-486.29 443,-455 431.39,-377.42 442.97,-355.01 420,-280 419.3,-277.73 418.54,-275.44 417.72,-273.15"/>
<polygon fill="none" stroke="#404040" points="417.61,-272.88 411.68,-268.78 413.19,-261.73 419.12,-265.83 417.61,-272.88"/>
<text text-anchor="start" x="443" y="-407" font-family="Helvetica,sans-Serif" font-size="10.00"> &#45;nrzi_previous_tone</text>
<text text-anchor="middle" x="493" y="-396" font-family="Helvetica,sans-Serif" font-size="10.00">_mark_</text>
</g>
<!-- Node13&#45;&gt;Node11 -->
<g id="edge14" class="edge">
<title>Node13&#45;&gt;Node11</title>
<path fill="none" stroke="#404040" d="M460.41,-546.29C459.91,-523.3 463.33,-491.49 483,-473 526.79,-431.85 561.89,-478.96 617,-455 622.97,-452.41 628.82,-449.05 634.39,-445.31"/>
<polygon fill="none" stroke="#404040" points="634.39,-445.31 636.89,-438.54 644.09,-438.24 641.6,-445.01 634.39,-445.31"/>
<text text-anchor="middle" x="542.5" y="-476" font-family="Helvetica,sans-Serif" font-size="10.00"> +include_ascii_padding</text>
</g>
<!-- Node14 -->
<g id="node14" class="node">
<title>Node14</title>
<g id="a_node14"><a xlink:title=" ">
<polygon fill="none" stroke="#bfbfbf" points="348,-375.5 348,-432.5 398,-432.5 398,-375.5 348,-375.5"/>
<text text-anchor="middle" x="373" y="-420.5" font-family="Helvetica,sans-Serif" font-size="10.00">int32_t</text>
<polyline fill="none" stroke="#bfbfbf" points="348,-413.5 398,-413.5 "/>
<text text-anchor="middle" x="373" y="-401.5" font-family="Helvetica,sans-Serif" font-size="10.00"> </text>
<polyline fill="none" stroke="#bfbfbf" points="348,-394.5 398,-394.5 "/>
<text text-anchor="middle" x="373" y="-382.5" font-family="Helvetica,sans-Serif" font-size="10.00"> </text>
</a>
</g>
</g>
<!-- Node14&#45;&gt;Node2 -->
<g id="edge16" class="edge">
<title>Node14&#45;&gt;Node2</title>
<path fill="none" stroke="#404040" d="M355,-375.4C348.26,-363.48 341.41,-349.07 338,-335 332.24,-311.24 330.61,-303.3 338,-280 338.77,-277.58 339.66,-275.17 340.65,-272.78"/>
<polygon fill="none" stroke="#404040" points="340.73,-272.61 339.73,-265.47 345.94,-261.8 346.94,-268.95 340.73,-272.61"/>
<text text-anchor="middle" x="379" y="-305" font-family="Helvetica,sans-Serif" font-size="10.00"> &#45;integral_value_</text>
</g>
<!-- Node15 -->
<g id="node15" class="node">
<title>Node15</title>
<g id="a_node15"><a xlink:title=" ">
<polygon fill="none" stroke="#bfbfbf" points="552,-375.5 552,-432.5 608,-432.5 608,-375.5 552,-375.5"/>
<text text-anchor="middle" x="580" y="-420.5" font-family="Helvetica,sans-Serif" font-size="10.00">uint32_t</text>
<polyline fill="none" stroke="#bfbfbf" points="552,-413.5 608,-413.5 "/>
<text text-anchor="middle" x="580" y="-401.5" font-family="Helvetica,sans-Serif" font-size="10.00"> </text>
<polyline fill="none" stroke="#bfbfbf" points="552,-394.5 608,-394.5 "/>
<text text-anchor="middle" x="580" y="-382.5" font-family="Helvetica,sans-Serif" font-size="10.00"> </text>
</a>
</g>
</g>
<!-- Node15&#45;&gt;Node2 -->
<g id="edge17" class="edge">
<title>Node15&#45;&gt;Node2</title>
<path fill="none" stroke="#404040" d="M560.33,-375.32C553.84,-367.44 546.17,-359.3 538,-353 523.21,-341.58 515.07,-346.05 500,-335 496.21,-332.22 467.19,-300.9 439.38,-270.56"/>
<polygon fill="none" stroke="#404040" points="439.31,-270.48 432.31,-268.76 431.21,-261.63 438.21,-263.36 439.31,-270.48"/>
<text text-anchor="start" x="500" y="-327" font-family="Helvetica,sans-Serif" font-size="10.00"> &#45;OVER_SAMPLE_FACTOR</text>
<text text-anchor="middle" x="561.5" y="-316" font-family="Helvetica,sans-Serif" font-size="10.00">_</text>
<text text-anchor="start" x="500" y="-305" font-family="Helvetica,sans-Serif" font-size="10.00">&#45;SAMPLES_PER_SYMBOL</text>
<text text-anchor="middle" x="561.5" y="-294" font-family="Helvetica,sans-Serif" font-size="10.00">_</text>
<text text-anchor="middle" x="561.5" y="-283" font-family="Helvetica,sans-Serif" font-size="10.00">&#45;SAMPLE_FREQUENCY_</text>
</g>
<!-- Node16&#45;&gt;Node1 -->
<g id="edge19" class="edge">
<title>Node16&#45;&gt;Node1</title>
<path fill="none" stroke="#404040" d="M667.74,-176.91C645.19,-160.06 617.04,-139.01 590.67,-119.3"/>
<polygon fill="none" stroke="#404040" points="590.67,-119.3 583.47,-118.91 581.05,-112.11 588.26,-112.5 590.67,-119.3"/>
<text text-anchor="middle" x="642" y="-134" font-family="Helvetica,sans-Serif" font-size="10.00"> &#45;settings_</text>
</g>
<!-- Node17&#45;&gt;Node16 -->
<g id="edge21" class="edge">
<title>Node17&#45;&gt;Node16</title>
<path fill="none" stroke="#404040" d="M795.81,-695.3C785.5,-629.77 761.5,-479.19 739,-353 733.27,-320.87 726.34,-284.72 720.93,-257.07"/>
<polygon fill="none" stroke="#404040" points="720.88,-256.78 715.8,-251.66 718.57,-245 723.65,-250.12 720.88,-256.78"/>
<text text-anchor="middle" x="797.5" y="-476" font-family="Helvetica,sans-Serif" font-size="10.00"> +base_packet</text>
</g>
<!-- Node18 -->
<g id="node18" class="node">
<title>Node18</title>
<g id="a_node18"><a xlink:title=" ">
<polygon fill="none" stroke="#bfbfbf" points="761.5,-833.5 761.5,-890.5 840.5,-890.5 840.5,-833.5 761.5,-833.5"/>
<text text-anchor="middle" x="801" y="-878.5" font-family="Helvetica,sans-Serif" font-size="10.00">SymbolTable</text>
<polyline fill="none" stroke="#bfbfbf" points="761.5,-871.5 840.5,-871.5 "/>
<text text-anchor="middle" x="801" y="-859.5" font-family="Helvetica,sans-Serif" font-size="10.00"> </text>
<polyline fill="none" stroke="#bfbfbf" points="761.5,-852.5 840.5,-852.5 "/>
<text text-anchor="middle" x="801" y="-840.5" font-family="Helvetica,sans-Serif" font-size="10.00"> </text>
</a>
</g>
</g>
<!-- Node18&#45;&gt;Node17 -->
<g id="edge22" class="edge">
<title>Node18&#45;&gt;Node17</title>
<path fill="none" stroke="#404040" d="M801,-833.32C801,-816.63 801,-794.96 801,-775.82"/>
<polygon fill="none" stroke="#404040" points="801,-775.68 797,-769.68 801,-763.68 805,-769.68 801,-775.68"/>
<text text-anchor="middle" x="840" y="-796" font-family="Helvetica,sans-Serif" font-size="10.00"> +symbol_table</text>
</g>
<!-- Node19 -->
<g id="node19" class="node">
<title>Node19</title>
<g id="a_node19"><a xlink:title=" ">
<polygon fill="none" stroke="#bfbfbf" points="883,-833.5 883,-890.5 921,-890.5 921,-833.5 883,-833.5"/>
<text text-anchor="middle" x="902" y="-878.5" font-family="Helvetica,sans-Serif" font-size="10.00">char</text>
<polyline fill="none" stroke="#bfbfbf" points="883,-871.5 921,-871.5 "/>
<text text-anchor="middle" x="902" y="-859.5" font-family="Helvetica,sans-Serif" font-size="10.00"> </text>
<polyline fill="none" stroke="#bfbfbf" points="883,-852.5 921,-852.5 "/>
<text text-anchor="middle" x="902" y="-840.5" font-family="Helvetica,sans-Serif" font-size="10.00"> </text>
</a>
</g>
</g>
<!-- Node19&#45;&gt;Node17 -->
<g id="edge23" class="edge">
<title>Node19&#45;&gt;Node17</title>
<path fill="none" stroke="#404040" d="M899.21,-833.28C896.44,-817.07 890.94,-796.93 880,-782 875.19,-775.43 869.27,-769.48 862.85,-764.14"/>
<polygon fill="none" stroke="#404040" points="862.7,-764.03 855.51,-763.58 853.16,-756.76 860.35,-757.21 862.7,-764.03"/>
<text text-anchor="middle" x="918" y="-796" font-family="Helvetica,sans-Serif" font-size="10.00"> +symbol</text>
</g>
<!-- Node20 -->
<g id="node20" class="node">
<title>Node20</title>
<g id="a_node20"><a xlink:title=" ">
<polygon fill="none" stroke="#bfbfbf" points="948,-833.5 948,-890.5 998,-890.5 998,-833.5 948,-833.5"/>
<text text-anchor="middle" x="973" y="-878.5" font-family="Helvetica,sans-Serif" font-size="10.00">uint8_t</text>
<polyline fill="none" stroke="#bfbfbf" points="948,-871.5 998,-871.5 "/>
<text text-anchor="middle" x="973" y="-859.5" font-family="Helvetica,sans-Serif" font-size="10.00"> </text>
<polyline fill="none" stroke="#bfbfbf" points="948,-852.5 998,-852.5 "/>
<text text-anchor="middle" x="973" y="-840.5" font-family="Helvetica,sans-Serif" font-size="10.00"> </text>
</a>
</g>
</g>
<!-- Node20&#45;&gt;Node17 -->
<g id="edge24" class="edge">
<title>Node20&#45;&gt;Node17</title>
<path fill="none" stroke="#404040" d="M969.67,-833.31C966.31,-816.5 959.55,-795.71 946,-782 924.4,-760.14 892.92,-747.52 864.81,-740.26"/>
<polygon fill="none" stroke="#404040" points="864.68,-740.23 857.92,-742.74 853.01,-737.46 859.77,-734.95 864.68,-740.23"/>
<text text-anchor="middle" x="1009.5" y="-801.5" font-family="Helvetica,sans-Serif" font-size="10.00"> +destination_ssid</text>
<text text-anchor="middle" x="1009.5" y="-790.5" font-family="Helvetica,sans-Serif" font-size="10.00">+source_ssid</text>
</g>
</g>
</svg>
