<?xml version="1.0" encoding="UTF-8" standalone="no"?>
<!DOCTYPE svg PUBLIC "-//W3C//DTD SVG 1.1//EN"
 "http://www.w3.org/Graphics/SVG/1.1/DTD/svg11.dtd">
<!-- Generated by graphviz version 2.43.0 (0)
 -->
<!-- Title: signal_easel::Receiver Pages: 1 -->
<svg width="811pt" height="474pt"
 viewBox="0.00 0.00 811.00 474.00" xmlns="http://www.w3.org/2000/svg" xmlns:xlink="http://www.w3.org/1999/xlink">
<g id="graph0" class="graph" transform="scale(1 1) rotate(0) translate(4 470)">
<title>signal_easel::Receiver</title>
<!-- Node1 -->
<g id="node1" class="node">
<title>Node1</title>
<g id="a_node1"><a xlink:title=" ">
<polygon fill="#bfbfbf" stroke="black" points="235,-0.5 235,-101.5 361,-101.5 361,-0.5 235,-0.5"/>
<text text-anchor="middle" x="298" y="-89.5" font-family="Helvetica,sans-Serif" font-size="10.00">signal_easel::Receiver</text>
<polyline fill="none" stroke="black" points="235,-82.5 361,-82.5 "/>
<text text-anchor="middle" x="298" y="-70.5" font-family="Helvetica,sans-Serif" font-size="10.00"> </text>
<polyline fill="none" stroke="black" points="235,-63.5 361,-63.5 "/>
<text text-anchor="start" x="243" y="-51.5" font-family="Helvetica,sans-Serif" font-size="10.00">+ Receiver()</text>
<text text-anchor="start" x="243" y="-40.5" font-family="Helvetica,sans-Serif" font-size="10.00">+ ~Receiver()</text>
<text text-anchor="start" x="243" y="-29.5" font-family="Helvetica,sans-Serif" font-size="10.00">+ getLatency()</text>
<text text-anchor="start" x="243" y="-18.5" font-family="Helvetica,sans-Serif" font-size="10.00">+ getVolume()</text>
<text text-anchor="start" x="243" y="-7.5" font-family="Helvetica,sans-Serif" font-size="10.00">+ process()</text>
</a>
</g>
</g>
<!-- Node2 -->
<g id="node2" class="node">
<title>Node2</title>
<g id="a_node2"><a xlink:href="classsignal__easel_1_1PulseAudioReader.html" target="_top" xlink:title=" ">
<polygon fill="none" stroke="black" points="423.5,-149.5 423.5,-327.5 560.5,-327.5 560.5,-149.5 423.5,-149.5"/>
<text text-anchor="start" x="431.5" y="-315.5" font-family="Helvetica,sans-Serif" font-size="10.00">signal_easel::PulseAudio</text>
<text text-anchor="middle" x="492" y="-304.5" font-family="Helvetica,sans-Serif" font-size="10.00">Reader</text>
<polyline fill="none" stroke="black" points="423.5,-297.5 560.5,-297.5 "/>
<text text-anchor="middle" x="492" y="-285.5" font-family="Helvetica,sans-Serif" font-size="10.00"> </text>
<polyline fill="none" stroke="black" points="423.5,-278.5 560.5,-278.5 "/>
<text text-anchor="start" x="431.5" y="-266.5" font-family="Helvetica,sans-Serif" font-size="10.00">+ PulseAudioReader()</text>
<text text-anchor="start" x="431.5" y="-255.5" font-family="Helvetica,sans-Serif" font-size="10.00">+ PulseAudioReader()</text>
<text text-anchor="start" x="431.5" y="-244.5" font-family="Helvetica,sans-Serif" font-size="10.00">+ PulseAudioReader()</text>
<text text-anchor="start" x="431.5" y="-233.5" font-family="Helvetica,sans-Serif" font-size="10.00">+ ~PulseAudioReader()</text>
<text text-anchor="start" x="431.5" y="-222.5" font-family="Helvetica,sans-Serif" font-size="10.00">+ getAudioBuffer()</text>
<text text-anchor="start" x="431.5" y="-211.5" font-family="Helvetica,sans-Serif" font-size="10.00">+ getLatency()</text>
<text text-anchor="start" x="431.5" y="-200.5" font-family="Helvetica,sans-Serif" font-size="10.00">+ getRms()</text>
<text text-anchor="start" x="431.5" y="-189.5" font-family="Helvetica,sans-Serif" font-size="10.00">+ getVolume()</text>
<text text-anchor="start" x="431.5" y="-178.5" font-family="Helvetica,sans-Serif" font-size="10.00">+ operator=()</text>
<text text-anchor="start" x="431.5" y="-167.5" font-family="Helvetica,sans-Serif" font-size="10.00">+ operator=()</text>
<text text-anchor="start" x="431.5" y="-156.5" font-family="Helvetica,sans-Serif" font-size="10.00">+ process()</text>
</a>
</g>
</g>
<!-- Node2&#45;&gt;Node1 -->
<g id="edge1" class="edge">
<title>Node2&#45;&gt;Node1</title>
<path fill="none" stroke="#404040" d="M423.33,-171.84C402.25,-151.68 379.22,-129.66 358.71,-110.05"/>
<polygon fill="none" stroke="#404040" points="358.46,-109.81 351.36,-108.55 349.79,-101.52 356.89,-102.77 358.46,-109.81"/>
<text text-anchor="middle" x="433" y="-123" font-family="Helvetica,sans-Serif" font-size="10.00"> #pulse_audio_reader_</text>
</g>
<!-- Node3 -->
<g id="node3" class="node">
<title>Node3</title>
<g id="a_node3"><a xlink:title=" ">
<polygon fill="none" stroke="#bfbfbf" points="215,-403 215,-460 265,-460 265,-403 215,-403"/>
<text text-anchor="middle" x="240" y="-448" font-family="Helvetica,sans-Serif" font-size="10.00">double</text>
<polyline fill="none" stroke="#bfbfbf" points="215,-441 265,-441 "/>
<text text-anchor="middle" x="240" y="-429" font-family="Helvetica,sans-Serif" font-size="10.00"> </text>
<polyline fill="none" stroke="#bfbfbf" points="215,-422 265,-422 "/>
<text text-anchor="middle" x="240" y="-410" font-family="Helvetica,sans-Serif" font-size="10.00"> </text>
</a>
</g>
</g>
<!-- Node3&#45;&gt;Node2 -->
<g id="edge2" class="edge">
<title>Node3&#45;&gt;Node2</title>
<path fill="none" stroke="#404040" d="M265.18,-409.65C286.27,-392.32 317.29,-367.16 345,-346 367.03,-329.17 391.29,-311.33 413.63,-295.16"/>
<polygon fill="none" stroke="#404040" points="413.68,-295.12 416.2,-288.37 423.41,-288.1 420.88,-294.85 413.68,-295.12"/>
<text text-anchor="middle" x="369.5" y="-360" font-family="Helvetica,sans-Serif" font-size="10.00"> &#45;volume_</text>
</g>
<!-- Node9 -->
<g id="node9" class="node">
<title>Node9</title>
<g id="a_node9"><a xlink:href="structsignal__easel_1_1Settings.html" target="_top" xlink:title="The universal settings for MWAV.">
<polygon fill="none" stroke="black" points="98.5,-210 98.5,-267 221.5,-267 221.5,-210 98.5,-210"/>
<text text-anchor="middle" x="160" y="-255" font-family="Helvetica,sans-Serif" font-size="10.00">signal_easel::Settings</text>
<polyline fill="none" stroke="black" points="98.5,-248 221.5,-248 "/>
<text text-anchor="middle" x="160" y="-236" font-family="Helvetica,sans-Serif" font-size="10.00"> </text>
<polyline fill="none" stroke="black" points="98.5,-229 221.5,-229 "/>
<text text-anchor="middle" x="160" y="-217" font-family="Helvetica,sans-Serif" font-size="10.00"> </text>
</a>
</g>
</g>
<!-- Node3&#45;&gt;Node9 -->
<g id="edge9" class="edge">
<title>Node3&#45;&gt;Node9</title>
<path fill="none" stroke="#404040" d="M226.77,-402.83C223.19,-395.15 219.37,-386.78 216,-379 201.43,-345.37 185.99,-306.66 175.02,-278.56"/>
<polygon fill="none" stroke="#404040" points="174.96,-278.4 169.06,-274.25 170.61,-267.21 176.51,-271.35 174.96,-278.4"/>
<text text-anchor="middle" x="259" y="-371" font-family="Helvetica,sans-Serif" font-size="10.00"> +amplitude</text>
<text text-anchor="start" x="216" y="-360" font-family="Helvetica,sans-Serif" font-size="10.00">+call_sign_pause</text>
<text text-anchor="middle" x="259" y="-349" font-family="Helvetica,sans-Serif" font-size="10.00">_seconds</text>
</g>
<!-- Node4 -->
<g id="node4" class="node">
<title>Node4</title>
<g id="a_node4"><a xlink:title=" ">
<polygon fill="none" stroke="#bfbfbf" points="631,-403 631,-460 687,-460 687,-403 631,-403"/>
<text text-anchor="middle" x="659" y="-448" font-family="Helvetica,sans-Serif" font-size="10.00">uint64_t</text>
<polyline fill="none" stroke="#bfbfbf" points="631,-441 687,-441 "/>
<text text-anchor="middle" x="659" y="-429" font-family="Helvetica,sans-Serif" font-size="10.00"> </text>
<polyline fill="none" stroke="#bfbfbf" points="631,-422 687,-422 "/>
<text text-anchor="middle" x="659" y="-410" font-family="Helvetica,sans-Serif" font-size="10.00"> </text>
</a>
</g>
</g>
<!-- Node4&#45;&gt;Node2 -->
<g id="edge3" class="edge">
<title>Node4&#45;&gt;Node2</title>
<path fill="none" stroke="#404040" d="M634.72,-402.73C617.24,-382.74 592.64,-354.6 568.77,-327.31"/>
<polygon fill="none" stroke="#404040" points="568.62,-327.13 561.66,-325.25 560.72,-318.1 567.68,-319.98 568.62,-327.13"/>
<text text-anchor="middle" x="624.5" y="-360" font-family="Helvetica,sans-Serif" font-size="10.00"> &#45;rms_</text>
</g>
<!-- Node5 -->
<g id="node5" class="node">
<title>Node5</title>
<g id="a_node5"><a xlink:title=" ">
<polygon fill="none" stroke="#bfbfbf" points="705,-403 705,-460 803,-460 803,-403 705,-403"/>
<text text-anchor="middle" x="754" y="-448" font-family="Helvetica,sans-Serif" font-size="10.00">pa_sample_spec</text>
<polyline fill="none" stroke="#bfbfbf" points="705,-441 803,-441 "/>
<text text-anchor="middle" x="754" y="-429" font-family="Helvetica,sans-Serif" font-size="10.00"> </text>
<polyline fill="none" stroke="#bfbfbf" points="705,-422 803,-422 "/>
<text text-anchor="middle" x="754" y="-410" font-family="Helvetica,sans-Serif" font-size="10.00"> </text>
</a>
</g>
</g>
<!-- Node5&#45;&gt;Node2 -->
<g id="edge4" class="edge">
<title>Node5&#45;&gt;Node2</title>
<path fill="none" stroke="#404040" d="M718.63,-402.7C697.21,-386.02 669.24,-364.52 644,-346 620.36,-328.65 594.32,-310.18 570.57,-293.58"/>
<polygon fill="none" stroke="#404040" points="570.39,-293.45 563.18,-293.3 560.55,-286.58 567.76,-286.74 570.39,-293.45"/>
<text text-anchor="middle" x="697.5" y="-360" font-family="Helvetica,sans-Serif" font-size="10.00"> &#45;ss_</text>
</g>
<!-- Node6 -->
<g id="node6" class="node">
<title>Node6</title>
<g id="a_node6"><a xlink:title=" ">
<polygon fill="none" stroke="#bfbfbf" points="308.5,-397.5 308.5,-465.5 445.5,-465.5 445.5,-397.5 308.5,-397.5"/>
<text text-anchor="start" x="316.5" y="-453.5" font-family="Helvetica,sans-Serif" font-size="10.00">array&lt; int16_t, PULSE</text>
<text text-anchor="middle" x="377" y="-442.5" font-family="Helvetica,sans-Serif" font-size="10.00">_AUDIO_BUFFER_SIZE &gt;</text>
<polyline fill="none" stroke="#bfbfbf" points="308.5,-435.5 445.5,-435.5 "/>
<text text-anchor="middle" x="377" y="-423.5" font-family="Helvetica,sans-Serif" font-size="10.00"> </text>
<polyline fill="none" stroke="#bfbfbf" points="308.5,-416.5 445.5,-416.5 "/>
<text text-anchor="middle" x="377" y="-404.5" font-family="Helvetica,sans-Serif" font-size="10.00"> </text>
</a>
</g>
</g>
<!-- Node6&#45;&gt;Node2 -->
<g id="edge5" class="edge">
<title>Node6&#45;&gt;Node2</title>
<path fill="none" stroke="#404040" d="M390.11,-397.23C396.83,-381.34 405.58,-362.29 415,-346 416.55,-343.32 418.15,-340.63 419.79,-337.93"/>
<polygon fill="none" stroke="#404040" points="419.95,-337.67 419.75,-330.47 426.32,-327.5 426.53,-334.71 419.95,-337.67"/>
<text text-anchor="middle" x="451.5" y="-360" font-family="Helvetica,sans-Serif" font-size="10.00"> &#45;audio_buffer_</text>
</g>
<!-- Node7 -->
<g id="node7" class="node">
<title>Node7</title>
<g id="a_node7"><a xlink:title=" ">
<polygon fill="none" stroke="#bfbfbf" points="464,-403 464,-460 520,-460 520,-403 464,-403"/>
<text text-anchor="middle" x="492" y="-448" font-family="Helvetica,sans-Serif" font-size="10.00">uint32_t</text>
<polyline fill="none" stroke="#bfbfbf" points="464,-441 520,-441 "/>
<text text-anchor="middle" x="492" y="-429" font-family="Helvetica,sans-Serif" font-size="10.00"> </text>
<polyline fill="none" stroke="#bfbfbf" points="464,-422 520,-422 "/>
<text text-anchor="middle" x="492" y="-410" font-family="Helvetica,sans-Serif" font-size="10.00"> </text>
</a>
</g>
</g>
<!-- Node7&#45;&gt;Node2 -->
<g id="edge6" class="edge">
<title>Node7&#45;&gt;Node2</title>
<path fill="none" stroke="#404040" d="M492,-402.73C492,-385.81 492,-363.05 492,-339.91"/>
<polygon fill="none" stroke="#404040" points="492,-339.8 488,-333.8 492,-327.8 496,-333.8 492,-339.8"/>
<text text-anchor="middle" x="516.5" y="-360" font-family="Helvetica,sans-Serif" font-size="10.00"> &#45;latency_</text>
</g>
<!-- Node8 -->
<g id="node8" class="node">
<title>Node8</title>
<g id="a_node8"><a xlink:title=" ">
<polygon fill="none" stroke="#bfbfbf" points="538.5,-403 538.5,-460 613.5,-460 613.5,-403 538.5,-403"/>
<text text-anchor="middle" x="576" y="-448" font-family="Helvetica,sans-Serif" font-size="10.00">pa_simple *</text>
<polyline fill="none" stroke="#bfbfbf" points="538.5,-441 613.5,-441 "/>
<text text-anchor="middle" x="576" y="-429" font-family="Helvetica,sans-Serif" font-size="10.00"> </text>
<polyline fill="none" stroke="#bfbfbf" points="538.5,-422 613.5,-422 "/>
<text text-anchor="middle" x="576" y="-410" font-family="Helvetica,sans-Serif" font-size="10.00"> </text>
</a>
</g>
</g>
<!-- Node8&#45;&gt;Node2 -->
<g id="edge7" class="edge">
<title>Node8&#45;&gt;Node2</title>
<path fill="none" stroke="#404040" d="M566.7,-402.8C560.9,-386.16 553.04,-364.66 545,-346 543.99,-343.67 542.96,-341.31 541.91,-338.94"/>
<polygon fill="none" stroke="#404040" points="541.8,-338.7 535.69,-334.89 536.85,-327.77 542.97,-331.59 541.8,-338.7"/>
<text text-anchor="middle" x="566" y="-360" font-family="Helvetica,sans-Serif" font-size="10.00"> &#45;s_</text>
</g>
<!-- Node9&#45;&gt;Node1 -->
<g id="edge8" class="edge">
<title>Node9&#45;&gt;Node1</title>
<path fill="none" stroke="#404040" d="M180.66,-209.73C199.88,-183.9 229.14,-144.56 253.64,-111.63"/>
<polygon fill="none" stroke="#404040" points="253.91,-111.26 254.28,-104.06 261.07,-101.64 260.7,-108.84 253.91,-111.26"/>
<text text-anchor="middle" x="273" y="-123" font-family="Helvetica,sans-Serif" font-size="10.00"> #settings_</text>
</g>
<!-- Node10 -->
<g id="node10" class="node">
<title>Node10</title>
<g id="a_node10"><a xlink:title=" ">
<polygon fill="none" stroke="#bfbfbf" points="62.5,-403 62.5,-460 145.5,-460 145.5,-403 62.5,-403"/>
<text text-anchor="middle" x="104" y="-448" font-family="Helvetica,sans-Serif" font-size="10.00">CallSignMode</text>
<polyline fill="none" stroke="#bfbfbf" points="62.5,-441 145.5,-441 "/>
<text text-anchor="middle" x="104" y="-429" font-family="Helvetica,sans-Serif" font-size="10.00"> </text>
<polyline fill="none" stroke="#bfbfbf" points="62.5,-422 145.5,-422 "/>
<text text-anchor="middle" x="104" y="-410" font-family="Helvetica,sans-Serif" font-size="10.00"> </text>
</a>
</g>
</g>
<!-- Node10&#45;&gt;Node9 -->
<g id="edge10" class="edge">
<title>Node10&#45;&gt;Node9</title>
<path fill="none" stroke="#404040" d="M101.14,-402.69C100.2,-386.01 100.39,-364.51 105,-346 110.99,-321.98 123.29,-297.28 134.74,-277.73"/>
<polygon fill="none" stroke="#404040" points="134.76,-277.7 134.44,-270.49 140.97,-267.43 141.29,-274.63 134.76,-277.7"/>
<text text-anchor="middle" x="149" y="-360" font-family="Helvetica,sans-Serif" font-size="10.00"> +call_sign_mode</text>
</g>
<!-- Node11 -->
<g id="node11" class="node">
<title>Node11</title>
<g id="a_node11"><a xlink:title=" ">
<polygon fill="none" stroke="#bfbfbf" points="0,-403 0,-460 44,-460 44,-403 0,-403"/>
<text text-anchor="middle" x="22" y="-448" font-family="Helvetica,sans-Serif" font-size="10.00">string</text>
<polyline fill="none" stroke="#bfbfbf" points="0,-441 44,-441 "/>
<text text-anchor="middle" x="22" y="-429" font-family="Helvetica,sans-Serif" font-size="10.00"> </text>
<polyline fill="none" stroke="#bfbfbf" points="0,-422 44,-422 "/>
<text text-anchor="middle" x="22" y="-410" font-family="Helvetica,sans-Serif" font-size="10.00"> </text>
</a>
</g>
</g>
<!-- Node11&#45;&gt;Node9 -->
<g id="edge11" class="edge">
<title>Node11&#45;&gt;Node9</title>
<path fill="none" stroke="#404040" d="M24.34,-402.67C26.79,-385.39 31.79,-363.25 42,-346 58.62,-317.93 85.05,-293.07 108.69,-274.45"/>
<polygon fill="none" stroke="#404040" points="108.74,-274.41 111.07,-267.59 118.27,-267.11 115.94,-273.94 108.74,-274.41"/>
<text text-anchor="middle" x="69.5" y="-360" font-family="Helvetica,sans-Serif" font-size="10.00"> +call_sign</text>
</g>
</g>
</svg>
