<?xml version="1.0" encoding="UTF-8" standalone="no"?>
<!DOCTYPE svg PUBLIC "-//W3C//DTD SVG 1.1//EN"
 "http://www.w3.org/Graphics/SVG/1.1/DTD/svg11.dtd">
<!-- Generated by graphviz version 2.43.0 (0)
 -->
<!-- Title: signal_easel::DataModulator Pages: 1 -->
<svg width="372pt" height="536pt"
 viewBox="0.00 0.00 372.03 536.00" xmlns="http://www.w3.org/2000/svg" xmlns:xlink="http://www.w3.org/1999/xlink">
<g id="graph0" class="graph" transform="scale(1 1) rotate(0) translate(4 532)">
<title>signal_easel::DataModulator</title>
<!-- Node1 -->
<g id="node1" class="node">
<title>Node1</title>
<g id="a_node1"><a xlink:title="Another abstract base class for modulators that turn text/binary data into audio.">
<polygon fill="#bfbfbf" stroke="black" points="102.03,-0.5 102.03,-101.5 258.03,-101.5 258.03,-0.5 102.03,-0.5"/>
<text text-anchor="middle" x="180.03" y="-89.5" font-family="Helvetica,sans-Serif" font-size="10.00">signal_easel::DataModulator</text>
<polyline fill="none" stroke="black" points="102.03,-82.5 258.03,-82.5 "/>
<text text-anchor="middle" x="180.03" y="-70.5" font-family="Helvetica,sans-Serif" font-size="10.00"> </text>
<polyline fill="none" stroke="black" points="102.03,-63.5 258.03,-63.5 "/>
<text text-anchor="start" x="110.03" y="-51.5" font-family="Helvetica,sans-Serif" font-size="10.00">+ DataModulator()</text>
<text text-anchor="start" x="110.03" y="-40.5" font-family="Helvetica,sans-Serif" font-size="10.00">+ ~DataModulator()</text>
<text text-anchor="start" x="110.03" y="-29.5" font-family="Helvetica,sans-Serif" font-size="10.00">+ addBytes()</text>
<text text-anchor="start" x="110.03" y="-18.5" font-family="Helvetica,sans-Serif" font-size="10.00">+ addString()</text>
<text text-anchor="start" x="110.03" y="-7.5" font-family="Helvetica,sans-Serif" font-size="10.00"># encodeBytes()</text>
</a>
</g>
</g>
<!-- Node2 -->
<g id="node2" class="node">
<title>Node2</title>
<g id="a_node2"><a xlink:href="classsignal__easel_1_1Modulator.html" target="_top" xlink:title="The abstract base class for all modulators that turn data into audio.">
<polygon fill="none" stroke="black" points="104.03,-139.5 104.03,-295.5 256.03,-295.5 256.03,-139.5 104.03,-139.5"/>
<text text-anchor="middle" x="180.03" y="-283.5" font-family="Helvetica,sans-Serif" font-size="10.00">signal_easel::Modulator</text>
<polyline fill="none" stroke="black" points="104.03,-276.5 256.03,-276.5 "/>
<text text-anchor="middle" x="180.03" y="-264.5" font-family="Helvetica,sans-Serif" font-size="10.00"> </text>
<polyline fill="none" stroke="black" points="104.03,-257.5 256.03,-257.5 "/>
<text text-anchor="start" x="112.03" y="-245.5" font-family="Helvetica,sans-Serif" font-size="10.00">+ Modulator()</text>
<text text-anchor="start" x="112.03" y="-234.5" font-family="Helvetica,sans-Serif" font-size="10.00">+ ~Modulator()</text>
<text text-anchor="start" x="112.03" y="-223.5" font-family="Helvetica,sans-Serif" font-size="10.00">+ clearBuffer()</text>
<text text-anchor="start" x="112.03" y="-212.5" font-family="Helvetica,sans-Serif" font-size="10.00">+ writeToFile()</text>
<text text-anchor="start" x="112.03" y="-201.5" font-family="Helvetica,sans-Serif" font-size="10.00">+ writeToPulseAudio()</text>
<text text-anchor="start" x="112.03" y="-190.5" font-family="Helvetica,sans-Serif" font-size="10.00"># addAudioSample()</text>
<text text-anchor="start" x="112.03" y="-179.5" font-family="Helvetica,sans-Serif" font-size="10.00"># addAudioSampleDouble()</text>
<text text-anchor="start" x="112.03" y="-168.5" font-family="Helvetica,sans-Serif" font-size="10.00"># addSilence()</text>
<text text-anchor="start" x="112.03" y="-157.5" font-family="Helvetica,sans-Serif" font-size="10.00"># addSineWave()</text>
<text text-anchor="start" x="112.03" y="-146.5" font-family="Helvetica,sans-Serif" font-size="10.00">&#45; addMorseCode()</text>
</a>
</g>
</g>
<!-- Node2&#45;&gt;Node1 -->
<g id="edge1" class="edge">
<title>Node2&#45;&gt;Node1</title>
<path fill="none" stroke="midnightblue" d="M180.03,-128.96C180.03,-119.66 180.03,-110.46 180.03,-101.82"/>
<polygon fill="none" stroke="midnightblue" points="176.53,-129.07 180.03,-139.07 183.53,-129.07 176.53,-129.07"/>
</g>
<!-- Node3 -->
<g id="node3" class="node">
<title>Node3</title>
<g id="a_node3"><a xlink:title=" ">
<polygon fill="none" stroke="#bfbfbf" points="11.03,-470.5 11.03,-527.5 61.03,-527.5 61.03,-470.5 11.03,-470.5"/>
<text text-anchor="middle" x="36.03" y="-515.5" font-family="Helvetica,sans-Serif" font-size="10.00">double</text>
<polyline fill="none" stroke="#bfbfbf" points="11.03,-508.5 61.03,-508.5 "/>
<text text-anchor="middle" x="36.03" y="-496.5" font-family="Helvetica,sans-Serif" font-size="10.00"> </text>
<polyline fill="none" stroke="#bfbfbf" points="11.03,-489.5 61.03,-489.5 "/>
<text text-anchor="middle" x="36.03" y="-477.5" font-family="Helvetica,sans-Serif" font-size="10.00"> </text>
</a>
</g>
</g>
<!-- Node3&#45;&gt;Node2 -->
<g id="edge2" class="edge">
<title>Node3&#45;&gt;Node2</title>
<path fill="none" stroke="#404040" d="M21.7,-470.43C7.08,-438.18 -10.77,-384 10.03,-343 27.94,-307.67 61.12,-279.96 93.44,-259.73"/>
<polygon fill="none" stroke="#404040" points="93.61,-259.63 96.68,-253.11 103.88,-253.43 100.81,-259.95 93.61,-259.63"/>
<text text-anchor="middle" x="59.53" y="-369.5" font-family="Helvetica,sans-Serif" font-size="10.00"> &#45;sine_wave_phase_</text>
</g>
<!-- Node5 -->
<g id="node5" class="node">
<title>Node5</title>
<g id="a_node5"><a xlink:href="structsignal__easel_1_1Settings.html" target="_top" xlink:title="The universal settings for MWAV.">
<polygon fill="none" stroke="black" points="118.53,-343.5 118.53,-400.5 241.53,-400.5 241.53,-343.5 118.53,-343.5"/>
<text text-anchor="middle" x="180.03" y="-388.5" font-family="Helvetica,sans-Serif" font-size="10.00">signal_easel::Settings</text>
<polyline fill="none" stroke="black" points="118.53,-381.5 241.53,-381.5 "/>
<text text-anchor="middle" x="180.03" y="-369.5" font-family="Helvetica,sans-Serif" font-size="10.00"> </text>
<polyline fill="none" stroke="black" points="118.53,-362.5 241.53,-362.5 "/>
<text text-anchor="middle" x="180.03" y="-350.5" font-family="Helvetica,sans-Serif" font-size="10.00"> </text>
</a>
</g>
</g>
<!-- Node3&#45;&gt;Node5 -->
<g id="edge5" class="edge">
<title>Node3&#45;&gt;Node5</title>
<path fill="none" stroke="#404040" d="M46.29,-470.26C53.6,-453.64 64.82,-433.08 80.03,-419 88.11,-411.52 97.63,-405.07 107.52,-399.57"/>
<polygon fill="none" stroke="#404040" points="107.69,-399.49 111.18,-393.18 118.35,-393.98 114.85,-400.29 107.69,-399.49"/>
<text text-anchor="middle" x="123.03" y="-444" font-family="Helvetica,sans-Serif" font-size="10.00"> +amplitude</text>
<text text-anchor="start" x="80.03" y="-433" font-family="Helvetica,sans-Serif" font-size="10.00">+call_sign_pause</text>
<text text-anchor="middle" x="123.03" y="-422" font-family="Helvetica,sans-Serif" font-size="10.00">_seconds</text>
</g>
<!-- Node4 -->
<g id="node4" class="node">
<title>Node4</title>
<g id="a_node4"><a xlink:title=" ">
<polygon fill="none" stroke="#bfbfbf" points="260.03,-343.5 260.03,-400.5 364.03,-400.5 364.03,-343.5 260.03,-343.5"/>
<text text-anchor="middle" x="312.03" y="-388.5" font-family="Helvetica,sans-Serif" font-size="10.00">vector&lt; int16_t &gt;</text>
<polyline fill="none" stroke="#bfbfbf" points="260.03,-381.5 364.03,-381.5 "/>
<text text-anchor="middle" x="312.03" y="-369.5" font-family="Helvetica,sans-Serif" font-size="10.00"> </text>
<polyline fill="none" stroke="#bfbfbf" points="260.03,-362.5 364.03,-362.5 "/>
<text text-anchor="middle" x="312.03" y="-350.5" font-family="Helvetica,sans-Serif" font-size="10.00"> </text>
</a>
</g>
</g>
<!-- Node4&#45;&gt;Node2 -->
<g id="edge3" class="edge">
<title>Node4&#45;&gt;Node2</title>
<path fill="none" stroke="#404040" d="M288.12,-343.38C278.49,-332.26 266.81,-318.76 254.74,-304.81"/>
<polygon fill="none" stroke="#404040" points="254.61,-304.67 247.66,-302.75 246.76,-295.6 253.71,-297.52 254.61,-304.67"/>
<text text-anchor="middle" x="308.03" y="-317" font-family="Helvetica,sans-Serif" font-size="10.00"> #audio_buffer_</text>
</g>
<!-- Node5&#45;&gt;Node2 -->
<g id="edge4" class="edge">
<title>Node5&#45;&gt;Node2</title>
<path fill="none" stroke="#404040" d="M180.03,-343.38C180.03,-333.11 180.03,-320.81 180.03,-307.99"/>
<polygon fill="none" stroke="#404040" points="180.03,-307.6 176.03,-301.6 180.03,-295.6 184.03,-301.6 180.03,-307.6"/>
<text text-anchor="middle" x="208.03" y="-317" font-family="Helvetica,sans-Serif" font-size="10.00"> #settings_</text>
</g>
<!-- Node6 -->
<g id="node6" class="node">
<title>Node6</title>
<g id="a_node6"><a xlink:title=" ">
<polygon fill="none" stroke="#bfbfbf" points="128.53,-470.5 128.53,-527.5 211.53,-527.5 211.53,-470.5 128.53,-470.5"/>
<text text-anchor="middle" x="170.03" y="-515.5" font-family="Helvetica,sans-Serif" font-size="10.00">CallSignMode</text>
<polyline fill="none" stroke="#bfbfbf" points="128.53,-508.5 211.53,-508.5 "/>
<text text-anchor="middle" x="170.03" y="-496.5" font-family="Helvetica,sans-Serif" font-size="10.00"> </text>
<polyline fill="none" stroke="#bfbfbf" points="128.53,-489.5 211.53,-489.5 "/>
<text text-anchor="middle" x="170.03" y="-477.5" font-family="Helvetica,sans-Serif" font-size="10.00"> </text>
</a>
</g>
</g>
<!-- Node6&#45;&gt;Node5 -->
<g id="edge6" class="edge">
<title>Node6&#45;&gt;Node5</title>
<path fill="none" stroke="#404040" d="M169.16,-470.14C168.99,-454.98 169.28,-435.92 171.03,-419 171.24,-416.94 171.5,-414.84 171.79,-412.72"/>
<polygon fill="none" stroke="#404040" points="171.84,-412.45 168.87,-405.88 173.79,-400.61 176.76,-407.18 171.84,-412.45"/>
<text text-anchor="middle" x="215.03" y="-433" font-family="Helvetica,sans-Serif" font-size="10.00"> +call_sign_mode</text>
</g>
<!-- Node7 -->
<g id="node7" class="node">
<title>Node7</title>
<g id="a_node7"><a xlink:title=" ">
<polygon fill="none" stroke="#bfbfbf" points="259.03,-470.5 259.03,-527.5 303.03,-527.5 303.03,-470.5 259.03,-470.5"/>
<text text-anchor="middle" x="281.03" y="-515.5" font-family="Helvetica,sans-Serif" font-size="10.00">string</text>
<polyline fill="none" stroke="#bfbfbf" points="259.03,-508.5 303.03,-508.5 "/>
<text text-anchor="middle" x="281.03" y="-496.5" font-family="Helvetica,sans-Serif" font-size="10.00"> </text>
<polyline fill="none" stroke="#bfbfbf" points="259.03,-489.5 303.03,-489.5 "/>
<text text-anchor="middle" x="281.03" y="-477.5" font-family="Helvetica,sans-Serif" font-size="10.00"> </text>
</a>
</g>
</g>
<!-- Node7&#45;&gt;Node5 -->
<g id="edge7" class="edge">
<title>Node7&#45;&gt;Node5</title>
<path fill="none" stroke="#404040" d="M278.57,-470.45C275.92,-454.1 270.43,-433.76 259.03,-419 256.11,-415.22 252.79,-411.7 249.2,-408.42"/>
<polygon fill="none" stroke="#404040" points="249.1,-408.34 241.92,-407.65 239.79,-400.77 246.97,-401.45 249.1,-408.34"/>
<text text-anchor="middle" x="301.53" y="-433" font-family="Helvetica,sans-Serif" font-size="10.00"> +call_sign</text>
</g>
</g>
</svg>
