<?xml version="1.0" encoding="UTF-8" standalone="no"?>
<!DOCTYPE svg PUBLIC "-//W3C//DTD SVG 1.1//EN"
 "http://www.w3.org/Graphics/SVG/1.1/DTD/svg11.dtd">
<!-- Generated by graphviz version 2.43.0 (0)
 -->
<!-- Title: signal_easel::BitStream::addZeroBit Pages: 1 -->
<svg width="822pt" height="226pt"
 viewBox="0.00 0.00 822.00 225.50" xmlns="http://www.w3.org/2000/svg" xmlns:xlink="http://www.w3.org/1999/xlink">
<g id="graph0" class="graph" transform="scale(1 1) rotate(0) translate(4 221.5)">
<title>signal_easel::BitStream::addZeroBit</title>
<!-- Node1 -->
<g id="node1" class="node">
<title>Node1</title>
<g id="a_node1"><a xlink:title=" ">
<polygon fill="#bfbfbf" stroke="black" points="682,-113 682,-143 814,-143 814,-113 682,-113"/>
<text text-anchor="start" x="690" y="-131" font-family="Helvetica,sans-Serif" font-size="10.00">signal_easel::BitStream</text>
<text text-anchor="middle" x="748" y="-120" font-family="Helvetica,sans-Serif" font-size="10.00">::addZeroBit</text>
</a>
</g>
</g>
<!-- Node2 -->
<g id="node2" class="node">
<title>Node2</title>
<g id="a_node2"><a xlink:href="classsignal__easel_1_1psk_1_1Modulator.html#ad465eb5c136ada635cd01cdceb1dc402" target="_top" xlink:title=" ">
<polygon fill="none" stroke="black" points="504,-187 504,-217 646,-217 646,-187 504,-187"/>
<text text-anchor="start" x="512" y="-205" font-family="Helvetica,sans-Serif" font-size="10.00">signal_easel::psk::</text>
<text text-anchor="middle" x="575" y="-194" font-family="Helvetica,sans-Serif" font-size="10.00">Modulator::addPostamble</text>
</a>
</g>
</g>
<!-- Node1&#45;&gt;Node2 -->
<g id="edge1" class="edge">
<title>Node1&#45;&gt;Node2</title>
<path fill="none" stroke="midnightblue" d="M710.27,-147.62C691.34,-157.35 667.73,-168.94 646,-178 638.53,-181.11 630.5,-184.15 622.63,-186.96"/>
<polygon fill="midnightblue" stroke="midnightblue" points="711.89,-150.72 719.15,-143 708.67,-144.5 711.89,-150.72"/>
</g>
<!-- Node5 -->
<g id="node5" class="node">
<title>Node5</title>
<g id="a_node5"><a xlink:href="classsignal__easel_1_1psk_1_1Modulator.html#a9210187601fe988d188b66ba5ee66a73" target="_top" xlink:title=" ">
<polygon fill="none" stroke="black" points="506.5,-138 506.5,-168 643.5,-168 643.5,-138 506.5,-138"/>
<text text-anchor="start" x="514.5" y="-156" font-family="Helvetica,sans-Serif" font-size="10.00">signal_easel::psk::</text>
<text text-anchor="middle" x="575" y="-145" font-family="Helvetica,sans-Serif" font-size="10.00">Modulator::addPreamble</text>
</a>
</g>
</g>
<!-- Node1&#45;&gt;Node5 -->
<g id="edge4" class="edge">
<title>Node1&#45;&gt;Node5</title>
<path fill="none" stroke="midnightblue" d="M671.75,-139C662.35,-140.38 652.78,-141.77 643.51,-143.13"/>
<polygon fill="midnightblue" stroke="midnightblue" points="672.48,-142.43 681.86,-137.52 671.46,-135.51 672.48,-142.43"/>
</g>
<!-- Node6 -->
<g id="node6" class="node">
<title>Node6</title>
<g id="a_node6"><a xlink:href="namespacesignal__easel_1_1ax25.html#a84e1d1bf82ef828a150bc94cf065e396" target="_top" xlink:title="Convert a bit stream from NRZI to standard encoding.">
<polygon fill="none" stroke="black" points="521.5,-89 521.5,-119 628.5,-119 628.5,-89 521.5,-89"/>
<text text-anchor="start" x="529.5" y="-107" font-family="Helvetica,sans-Serif" font-size="10.00">signal_easel::ax25</text>
<text text-anchor="middle" x="575" y="-96" font-family="Helvetica,sans-Serif" font-size="10.00">::decodeNrzi</text>
</a>
</g>
</g>
<!-- Node1&#45;&gt;Node6 -->
<g id="edge6" class="edge">
<title>Node1&#45;&gt;Node6</title>
<path fill="none" stroke="midnightblue" d="M671.88,-117.46C657.34,-115.42 642.39,-113.32 628.75,-111.4"/>
<polygon fill="midnightblue" stroke="midnightblue" points="671.47,-120.93 681.86,-118.86 672.45,-114 671.47,-120.93"/>
</g>
<!-- Node11 -->
<g id="node11" class="node">
<title>Node11</title>
<g id="a_node11"><a xlink:href="classsignal__easel_1_1ax25_1_1Frame.html#a2b4f6ebcb7592a7e5a21114c8fafa503" target="_top" xlink:title="A step beyond buildFrame. This function builds the frame, does the bit stuffing, adds the flags,...">
<polygon fill="none" stroke="black" points="512.5,-39 512.5,-69 637.5,-69 637.5,-39 512.5,-39"/>
<text text-anchor="start" x="520.5" y="-57" font-family="Helvetica,sans-Serif" font-size="10.00">signal_easel::ax25</text>
<text text-anchor="middle" x="575" y="-46" font-family="Helvetica,sans-Serif" font-size="10.00">::Frame::encodeFrame</text>
</a>
</g>
</g>
<!-- Node1&#45;&gt;Node11 -->
<g id="edge11" class="edge">
<title>Node1&#45;&gt;Node11</title>
<path fill="none" stroke="midnightblue" d="M707.79,-108.38C689.23,-99.35 666.65,-88.72 646,-80 637.16,-76.27 627.59,-72.52 618.43,-69.08"/>
<polygon fill="midnightblue" stroke="midnightblue" points="706.3,-111.55 716.82,-112.8 709.38,-105.26 706.3,-111.55"/>
</g>
<!-- Node3 -->
<g id="node3" class="node">
<title>Node3</title>
<g id="a_node3"><a xlink:href="classsignal__easel_1_1psk_1_1Modulator.html#acd4a6a5bac7af1c62ffaaa0ff1d9259f" target="_top" xlink:title=" ">
<polygon fill="none" stroke="black" points="332,-141 332,-171 468,-171 468,-141 332,-141"/>
<text text-anchor="start" x="340" y="-159" font-family="Helvetica,sans-Serif" font-size="10.00">signal_easel::psk::</text>
<text text-anchor="middle" x="400" y="-148" font-family="Helvetica,sans-Serif" font-size="10.00">Modulator::encodeString</text>
</a>
</g>
</g>
<!-- Node2&#45;&gt;Node3 -->
<g id="edge2" class="edge">
<title>Node2&#45;&gt;Node3</title>
<path fill="none" stroke="midnightblue" d="M507.27,-184.26C490.83,-179.89 473.38,-175.25 457.48,-171.02"/>
<polygon fill="midnightblue" stroke="midnightblue" points="506.79,-187.75 517.35,-186.94 508.59,-180.99 506.79,-187.75"/>
</g>
<!-- Node4 -->
<g id="node4" class="node">
<title>Node4</title>
<g id="a_node4"><a xlink:href="psk__test_8cpp.html#a82221e67ef1f82d389fa971718fa764a" target="_top" xlink:title=" ">
<polygon fill="none" stroke="black" points="199,-146.5 199,-165.5 240,-165.5 240,-146.5 199,-146.5"/>
<text text-anchor="middle" x="219.5" y="-153.5" font-family="Helvetica,sans-Serif" font-size="10.00">TEST</text>
</a>
</g>
</g>
<!-- Node3&#45;&gt;Node4 -->
<g id="edge3" class="edge">
<title>Node3&#45;&gt;Node4</title>
<path fill="none" stroke="midnightblue" d="M321.72,-156C291.84,-156 260.12,-156 240.32,-156"/>
<polygon fill="midnightblue" stroke="midnightblue" points="321.77,-159.5 331.77,-156 321.77,-152.5 321.77,-159.5"/>
</g>
<!-- Node5&#45;&gt;Node3 -->
<g id="edge5" class="edge">
<title>Node5&#45;&gt;Node3</title>
<path fill="none" stroke="midnightblue" d="M496.07,-154.35C486.74,-154.51 477.27,-154.68 468.11,-154.84"/>
<polygon fill="midnightblue" stroke="midnightblue" points="496.18,-157.85 506.12,-154.18 496.06,-150.85 496.18,-157.85"/>
</g>
<!-- Node7 -->
<g id="node7" class="node">
<title>Node7</title>
<g id="a_node7"><a xlink:href="classsignal__easel_1_1ax25_1_1Frame.html#a63cf2362c2a90d20f09bbbc4f24a07ba" target="_top" xlink:title="Attempt to parse an incoming bit stream into an AX.25 frame.">
<polygon fill="none" stroke="black" points="332.5,-90 332.5,-120 467.5,-120 467.5,-90 332.5,-90"/>
<text text-anchor="start" x="340.5" y="-108" font-family="Helvetica,sans-Serif" font-size="10.00">signal_easel::ax25</text>
<text text-anchor="middle" x="400" y="-97" font-family="Helvetica,sans-Serif" font-size="10.00">::Frame::parseBitStream</text>
</a>
</g>
</g>
<!-- Node6&#45;&gt;Node7 -->
<g id="edge7" class="edge">
<title>Node6&#45;&gt;Node7</title>
<path fill="none" stroke="midnightblue" d="M511.05,-104.36C496.92,-104.45 481.88,-104.53 467.6,-104.62"/>
<polygon fill="midnightblue" stroke="midnightblue" points="511.17,-107.86 521.15,-104.31 511.13,-100.86 511.17,-107.86"/>
</g>
<!-- Node8 -->
<g id="node8" class="node">
<title>Node8</title>
<g id="a_node8"><a xlink:href="classsignal__easel_1_1aprs_1_1Demodulator.html#ae5a8e7634c1bc8d215a0c454a9a737fa" target="_top" xlink:title=" ">
<polygon fill="none" stroke="black" points="143,-85.5 143,-126.5 296,-126.5 296,-85.5 143,-85.5"/>
<text text-anchor="start" x="151" y="-114.5" font-family="Helvetica,sans-Serif" font-size="10.00">signal_easel::aprs</text>
<text text-anchor="start" x="151" y="-103.5" font-family="Helvetica,sans-Serif" font-size="10.00">::Demodulator::lookForAx25</text>
<text text-anchor="middle" x="219.5" y="-92.5" font-family="Helvetica,sans-Serif" font-size="10.00">Packet</text>
</a>
</g>
</g>
<!-- Node7&#45;&gt;Node8 -->
<g id="edge8" class="edge">
<title>Node7&#45;&gt;Node8</title>
<path fill="none" stroke="midnightblue" d="M322.22,-105.43C313.58,-105.48 304.77,-105.53 296.14,-105.58"/>
<polygon fill="midnightblue" stroke="midnightblue" points="322.3,-108.93 332.28,-105.37 322.26,-101.93 322.3,-108.93"/>
</g>
<!-- Node9 -->
<g id="node9" class="node">
<title>Node9</title>
<g id="a_node9"><a xlink:href="classsignal__easel_1_1aprs_1_1Receiver.html#afbf7869aceaf2ea7ab0be8b9af16e818" target="_top" xlink:title=" ">
<polygon fill="none" stroke="black" points="0,-91 0,-121 107,-121 107,-91 0,-91"/>
<text text-anchor="start" x="8" y="-109" font-family="Helvetica,sans-Serif" font-size="10.00">signal_easel::aprs</text>
<text text-anchor="middle" x="53.5" y="-98" font-family="Helvetica,sans-Serif" font-size="10.00">::Receiver::decode</text>
</a>
</g>
</g>
<!-- Node8&#45;&gt;Node9 -->
<g id="edge9" class="edge">
<title>Node8&#45;&gt;Node9</title>
<path fill="none" stroke="midnightblue" d="M132.67,-106C124.09,-106 115.56,-106 107.47,-106"/>
<polygon fill="midnightblue" stroke="midnightblue" points="132.74,-109.5 142.74,-106 132.74,-102.5 132.74,-109.5"/>
</g>
<!-- Node10 -->
<g id="node10" class="node">
<title>Node10</title>
<g id="a_node10"><a xlink:href="aprs__test_8cpp.html#aea66d1824e3f1e27598adf99ac6a089a" target="_top" xlink:title=" ">
<polygon fill="none" stroke="black" points="33,-47.5 33,-66.5 74,-66.5 74,-47.5 33,-47.5"/>
<text text-anchor="middle" x="53.5" y="-54.5" font-family="Helvetica,sans-Serif" font-size="10.00">TEST</text>
</a>
</g>
</g>
<!-- Node8&#45;&gt;Node10 -->
<g id="edge10" class="edge">
<title>Node8&#45;&gt;Node10</title>
<path fill="none" stroke="midnightblue" d="M139.76,-82.47C115.4,-75.19 90.65,-67.8 74.13,-62.87"/>
<polygon fill="midnightblue" stroke="midnightblue" points="138.84,-85.85 149.42,-85.36 140.85,-79.15 138.84,-85.85"/>
</g>
<!-- Node12 -->
<g id="node12" class="node">
<title>Node12</title>
<g id="a_node12"><a xlink:href="namespacesignal__easel_1_1aprs.html#a77481001a5b78a839972bb4220b43e4d" target="_top" xlink:title=" ">
<polygon fill="none" stroke="black" points="348,-39 348,-69 452,-69 452,-39 348,-39"/>
<text text-anchor="start" x="356" y="-57" font-family="Helvetica,sans-Serif" font-size="10.00">signal_easel::aprs</text>
<text text-anchor="middle" x="400" y="-46" font-family="Helvetica,sans-Serif" font-size="10.00">::encodePacket</text>
</a>
</g>
</g>
<!-- Node11&#45;&gt;Node12 -->
<g id="edge12" class="edge">
<title>Node11&#45;&gt;Node12</title>
<path fill="none" stroke="midnightblue" d="M501.74,-54C485.03,-54 467.59,-54 452,-54"/>
<polygon fill="midnightblue" stroke="midnightblue" points="502.03,-57.5 512.03,-54 502.03,-50.5 502.03,-57.5"/>
</g>
<!-- Node14 -->
<g id="node14" class="node">
<title>Node14</title>
<g id="a_node14"><a xlink:href="tmp_8cpp.html#ae66f6b31b5ad750f1fe042a706a4e3d4" target="_top" xlink:title=" ">
<polygon fill="none" stroke="black" points="379.5,-0.5 379.5,-19.5 420.5,-19.5 420.5,-0.5 379.5,-0.5"/>
<text text-anchor="middle" x="400" y="-7.5" font-family="Helvetica,sans-Serif" font-size="10.00">main</text>
</a>
</g>
</g>
<!-- Node11&#45;&gt;Node14 -->
<g id="edge15" class="edge">
<title>Node11&#45;&gt;Node14</title>
<path fill="none" stroke="midnightblue" d="M505.22,-36.51C474.88,-28.79 441.49,-20.3 420.89,-15.06"/>
<polygon fill="midnightblue" stroke="midnightblue" points="504.39,-39.91 514.95,-38.98 506.12,-33.12 504.39,-39.91"/>
</g>
<!-- Node13 -->
<g id="node13" class="node">
<title>Node13</title>
<g id="a_node13"><a xlink:href="classsignal__easel_1_1aprs_1_1Modulator.html#a8ae067701382dec1680b786583ace687" target="_top" xlink:title=" ">
<polygon fill="none" stroke="black" points="163,-36 163,-66 276,-66 276,-36 163,-36"/>
<text text-anchor="start" x="171" y="-54" font-family="Helvetica,sans-Serif" font-size="10.00">signal_easel::aprs</text>
<text text-anchor="middle" x="219.5" y="-43" font-family="Helvetica,sans-Serif" font-size="10.00">::Modulator::encode</text>
</a>
</g>
</g>
<!-- Node12&#45;&gt;Node13 -->
<g id="edge13" class="edge">
<title>Node12&#45;&gt;Node13</title>
<path fill="none" stroke="midnightblue" d="M337.61,-52.97C317.62,-52.63 295.57,-52.26 276.03,-51.93"/>
<polygon fill="midnightblue" stroke="midnightblue" points="337.79,-56.47 347.85,-53.14 337.91,-49.47 337.79,-56.47"/>
</g>
<!-- Node13&#45;&gt;Node10 -->
<g id="edge14" class="edge">
<title>Node13&#45;&gt;Node10</title>
<path fill="none" stroke="midnightblue" d="M152.74,-53.41C124.56,-54.44 93.72,-55.57 74.25,-56.28"/>
<polygon fill="midnightblue" stroke="midnightblue" points="153.11,-56.89 162.98,-53.03 152.86,-49.9 153.11,-56.89"/>
</g>
</g>
</svg>
