<?xml version="1.0" encoding="UTF-8" standalone="no"?>
<!DOCTYPE svg PUBLIC "-//W3C//DTD SVG 1.1//EN"
 "http://www.w3.org/Graphics/SVG/1.1/DTD/svg11.dtd">
<!-- Generated by graphviz version 2.43.0 (0)
 -->
<!-- Title: signal_easel::ax25::Address::assertIsValid Pages: 1 -->
<svg width="1073pt" height="244pt"
 viewBox="0.00 0.00 1073.00 244.00" xmlns="http://www.w3.org/2000/svg" xmlns:xlink="http://www.w3.org/1999/xlink">
<g id="graph0" class="graph" transform="scale(1 1) rotate(0) translate(4 240)">
<title>signal_easel::ax25::Address::assertIsValid</title>
<!-- Node1 -->
<g id="node1" class="node">
<title>Node1</title>
<g id="a_node1"><a xlink:title="Checks if the address is valid, if not throws an exception with a specific error code.">
<polygon fill="#bfbfbf" stroke="black" points="935,-107.5 935,-137.5 1065,-137.5 1065,-107.5 935,-107.5"/>
<text text-anchor="start" x="943" y="-125.5" font-family="Helvetica,sans-Serif" font-size="10.00">signal_easel::ax25</text>
<text text-anchor="middle" x="1000" y="-114.5" font-family="Helvetica,sans-Serif" font-size="10.00">::Address::assertIsValid</text>
</a>
</g>
</g>
<!-- Node2 -->
<g id="node2" class="node">
<title>Node2</title>
<g id="a_node2"><a xlink:href="classsignal__easel_1_1ax25_1_1Frame.html#af86d4b534367a8faf6b628301c9ffceb" target="_top" xlink:title=" ">
<polygon fill="none" stroke="black" points="733.5,-205.5 733.5,-235.5 894.5,-235.5 894.5,-205.5 733.5,-205.5"/>
<text text-anchor="start" x="741.5" y="-223.5" font-family="Helvetica,sans-Serif" font-size="10.00">signal_easel::ax25</text>
<text text-anchor="middle" x="814" y="-212.5" font-family="Helvetica,sans-Serif" font-size="10.00">::Frame::addRepeaterAddress</text>
</a>
</g>
</g>
<!-- Node1&#45;&gt;Node2 -->
<g id="edge1" class="edge">
<title>Node1&#45;&gt;Node2</title>
<path fill="none" stroke="midnightblue" d="M974.85,-144.28C955.54,-160.68 927.14,-182.64 899,-196.5 892.2,-199.85 884.85,-202.81 877.42,-205.4"/>
<polygon fill="midnightblue" stroke="midnightblue" points="977.26,-146.82 982.54,-137.63 972.68,-141.53 977.26,-146.82"/>
</g>
<!-- Node7 -->
<g id="node7" class="node">
<title>Node7</title>
<g id="a_node7"><a xlink:href="classsignal__easel_1_1ax25_1_1Address.html#a0c31737081a9184b56dc32150b23cb0a" target="_top" xlink:title="Get the address as a byte array.">
<polygon fill="none" stroke="black" points="743,-19.5 743,-49.5 885,-49.5 885,-19.5 743,-19.5"/>
<text text-anchor="start" x="751" y="-37.5" font-family="Helvetica,sans-Serif" font-size="10.00">signal_easel::ax25</text>
<text text-anchor="middle" x="814" y="-26.5" font-family="Helvetica,sans-Serif" font-size="10.00">::Address::encodeAddress</text>
</a>
</g>
</g>
<!-- Node1&#45;&gt;Node7 -->
<g id="edge6" class="edge">
<title>Node1&#45;&gt;Node7</title>
<path fill="none" stroke="midnightblue" d="M967.15,-102.02C947.89,-90.15 922.58,-75.44 899,-64.5 887.2,-59.03 874.1,-53.92 861.82,-49.52"/>
<polygon fill="midnightblue" stroke="midnightblue" points="965.47,-105.1 975.81,-107.42 969.18,-99.16 965.47,-105.1"/>
</g>
<!-- Node13 -->
<g id="node13" class="node">
<title>Node13</title>
<g id="a_node13"><a xlink:href="classsignal__easel_1_1ax25_1_1Frame.html#a57b163ece54317da8d95f3b18b47c23d" target="_top" xlink:title="setters/getters for the frame.">
<polygon fill="none" stroke="black" points="729,-156.5 729,-186.5 899,-186.5 899,-156.5 729,-156.5"/>
<text text-anchor="start" x="737" y="-174.5" font-family="Helvetica,sans-Serif" font-size="10.00">signal_easel::ax25</text>
<text text-anchor="middle" x="814" y="-163.5" font-family="Helvetica,sans-Serif" font-size="10.00">::Frame::setDestinationAddress</text>
</a>
</g>
</g>
<!-- Node1&#45;&gt;Node13 -->
<g id="edge13" class="edge">
<title>Node1&#45;&gt;Node13</title>
<path fill="none" stroke="midnightblue" d="M932.82,-140.12C912.69,-145.48 890.77,-151.32 871.35,-156.49"/>
<polygon fill="midnightblue" stroke="midnightblue" points="933.78,-143.49 942.54,-137.53 931.98,-136.73 933.78,-143.49"/>
</g>
<!-- Node15 -->
<g id="node15" class="node">
<title>Node15</title>
<g id="a_node15"><a xlink:href="ax25__frame__test_8cpp.html#a091d83d42783f2a0b3fd33a0521dc2ce" target="_top" xlink:title=" ">
<polygon fill="none" stroke="black" points="605,-88 605,-107 646,-107 646,-88 605,-88"/>
<text text-anchor="middle" x="625.5" y="-95" font-family="Helvetica,sans-Serif" font-size="10.00">TEST</text>
</a>
</g>
</g>
<!-- Node1&#45;&gt;Node15 -->
<g id="edge22" class="edge">
<title>Node1&#45;&gt;Node15</title>
<path fill="none" stroke="midnightblue" d="M936.69,-105.2C924.3,-102.42 911.31,-99.98 899,-98.5 804.82,-87.18 691.01,-92.98 646.09,-96.02"/>
<polygon fill="midnightblue" stroke="midnightblue" points="935.95,-108.62 946.48,-107.48 937.54,-101.8 935.95,-108.62"/>
</g>
<!-- Node16 -->
<g id="node16" class="node">
<title>Node16</title>
<g id="a_node16"><a xlink:href="classsignal__easel_1_1ax25_1_1Frame.html#a402d26a81f82bb5c477e8930b75a771e" target="_top" xlink:title=" ">
<polygon fill="none" stroke="black" points="741,-107.5 741,-137.5 887,-137.5 887,-107.5 741,-107.5"/>
<text text-anchor="start" x="749" y="-125.5" font-family="Helvetica,sans-Serif" font-size="10.00">signal_easel::ax25</text>
<text text-anchor="middle" x="814" y="-114.5" font-family="Helvetica,sans-Serif" font-size="10.00">::Frame::setSourceAddress</text>
</a>
</g>
</g>
<!-- Node1&#45;&gt;Node16 -->
<g id="edge18" class="edge">
<title>Node1&#45;&gt;Node16</title>
<path fill="none" stroke="midnightblue" d="M924.62,-122.5C912.22,-122.5 899.38,-122.5 887.05,-122.5"/>
<polygon fill="midnightblue" stroke="midnightblue" points="924.9,-126 934.9,-122.5 924.9,-119 924.9,-126"/>
</g>
<!-- Node3 -->
<g id="node3" class="node">
<title>Node3</title>
<g id="a_node3"><a xlink:href="classsignal__easel_1_1ax25_1_1Frame.html#a63cf2362c2a90d20f09bbbc4f24a07ba" target="_top" xlink:title="Attempt to parse an incoming bit stream into an AX.25 frame.">
<polygon fill="none" stroke="black" points="558,-175.5 558,-205.5 693,-205.5 693,-175.5 558,-175.5"/>
<text text-anchor="start" x="566" y="-193.5" font-family="Helvetica,sans-Serif" font-size="10.00">signal_easel::ax25</text>
<text text-anchor="middle" x="625.5" y="-182.5" font-family="Helvetica,sans-Serif" font-size="10.00">::Frame::parseBitStream</text>
</a>
</g>
</g>
<!-- Node2&#45;&gt;Node3 -->
<g id="edge2" class="edge">
<title>Node2&#45;&gt;Node3</title>
<path fill="none" stroke="midnightblue" d="M723.29,-206.07C713.17,-204.44 703,-202.81 693.26,-201.24"/>
<polygon fill="midnightblue" stroke="midnightblue" points="722.94,-209.56 733.37,-207.69 724.05,-202.65 722.94,-209.56"/>
</g>
<!-- Node4 -->
<g id="node4" class="node">
<title>Node4</title>
<g id="a_node4"><a xlink:href="classsignal__easel_1_1aprs_1_1Demodulator.html#ae5a8e7634c1bc8d215a0c454a9a737fa" target="_top" xlink:title=" ">
<polygon fill="none" stroke="black" points="369,-170 369,-211 522,-211 522,-170 369,-170"/>
<text text-anchor="start" x="377" y="-199" font-family="Helvetica,sans-Serif" font-size="10.00">signal_easel::aprs</text>
<text text-anchor="start" x="377" y="-188" font-family="Helvetica,sans-Serif" font-size="10.00">::Demodulator::lookForAx25</text>
<text text-anchor="middle" x="445.5" y="-177" font-family="Helvetica,sans-Serif" font-size="10.00">Packet</text>
</a>
</g>
</g>
<!-- Node3&#45;&gt;Node4 -->
<g id="edge3" class="edge">
<title>Node3&#45;&gt;Node4</title>
<path fill="none" stroke="midnightblue" d="M547.74,-190.5C539.29,-190.5 530.68,-190.5 522.23,-190.5"/>
<polygon fill="midnightblue" stroke="midnightblue" points="547.97,-194 557.97,-190.5 547.97,-187 547.97,-194"/>
</g>
<!-- Node5 -->
<g id="node5" class="node">
<title>Node5</title>
<g id="a_node5"><a xlink:href="classsignal__easel_1_1aprs_1_1Receiver.html#afbf7869aceaf2ea7ab0be8b9af16e818" target="_top" xlink:title=" ">
<polygon fill="none" stroke="black" points="226,-137.5 226,-167.5 333,-167.5 333,-137.5 226,-137.5"/>
<text text-anchor="start" x="234" y="-155.5" font-family="Helvetica,sans-Serif" font-size="10.00">signal_easel::aprs</text>
<text text-anchor="middle" x="279.5" y="-144.5" font-family="Helvetica,sans-Serif" font-size="10.00">::Receiver::decode</text>
</a>
</g>
</g>
<!-- Node4&#45;&gt;Node5 -->
<g id="edge4" class="edge">
<title>Node4&#45;&gt;Node5</title>
<path fill="none" stroke="midnightblue" d="M358.95,-170.68C350.27,-168.67 341.65,-166.67 333.47,-164.77"/>
<polygon fill="midnightblue" stroke="midnightblue" points="358.21,-174.1 368.74,-172.95 359.79,-167.28 358.21,-174.1"/>
</g>
<!-- Node6 -->
<g id="node6" class="node">
<title>Node6</title>
<g id="a_node6"><a xlink:href="aprs__test_8cpp.html#aea66d1824e3f1e27598adf99ac6a089a" target="_top" xlink:title=" ">
<polygon fill="none" stroke="black" points="0,-141 0,-160 41,-160 41,-141 0,-141"/>
<text text-anchor="middle" x="20.5" y="-148" font-family="Helvetica,sans-Serif" font-size="10.00">TEST</text>
</a>
</g>
</g>
<!-- Node4&#45;&gt;Node6 -->
<g id="edge5" class="edge">
<title>Node4&#45;&gt;Node6</title>
<path fill="none" stroke="midnightblue" d="M358.74,-186.82C318.41,-184.73 269.68,-181.68 226,-177.5 157.91,-170.99 77.59,-159.16 41.19,-153.58"/>
<polygon fill="midnightblue" stroke="midnightblue" points="358.64,-190.32 368.81,-187.34 359,-183.33 358.64,-190.32"/>
</g>
<!-- Node8 -->
<g id="node8" class="node">
<title>Node8</title>
<g id="a_node8"><a xlink:href="classsignal__easel_1_1ax25_1_1Frame.html#a24e7d5ffc6504a3380e97142d1bc084e" target="_top" xlink:title="Builds all internal portions of the frame. Doesn&#39;t include the flags.">
<polygon fill="none" stroke="black" points="568.5,-0.5 568.5,-30.5 682.5,-30.5 682.5,-0.5 568.5,-0.5"/>
<text text-anchor="start" x="576.5" y="-18.5" font-family="Helvetica,sans-Serif" font-size="10.00">signal_easel::ax25</text>
<text text-anchor="middle" x="625.5" y="-7.5" font-family="Helvetica,sans-Serif" font-size="10.00">::Frame::buildFrame</text>
</a>
</g>
</g>
<!-- Node7&#45;&gt;Node8 -->
<g id="edge7" class="edge">
<title>Node7&#45;&gt;Node8</title>
<path fill="none" stroke="midnightblue" d="M732.42,-26.29C715.68,-24.59 698.38,-22.82 682.74,-21.23"/>
<polygon fill="midnightblue" stroke="midnightblue" points="732.45,-29.81 742.76,-27.34 733.16,-22.85 732.45,-29.81"/>
</g>
<!-- Node12 -->
<g id="node12" class="node">
<title>Node12</title>
<g id="a_node12"><a xlink:href="ax25__address__test_8cpp.html#a1d87028368532ba4ae914da9397571d3" target="_top" xlink:title=" ">
<polygon fill="none" stroke="black" points="605,-50 605,-69 646,-69 646,-50 605,-50"/>
<text text-anchor="middle" x="625.5" y="-57" font-family="Helvetica,sans-Serif" font-size="10.00">TEST</text>
</a>
</g>
</g>
<!-- Node7&#45;&gt;Node12 -->
<g id="edge12" class="edge">
<title>Node7&#45;&gt;Node12</title>
<path fill="none" stroke="midnightblue" d="M732.55,-45.28C700.81,-49.54 667.07,-54.06 646.38,-56.84"/>
<polygon fill="midnightblue" stroke="midnightblue" points="733.31,-48.71 742.76,-43.92 732.38,-41.78 733.31,-48.71"/>
</g>
<!-- Node9 -->
<g id="node9" class="node">
<title>Node9</title>
<g id="a_node9"><a xlink:href="classsignal__easel_1_1ax25_1_1Frame.html#a2b4f6ebcb7592a7e5a21114c8fafa503" target="_top" xlink:title="A step beyond buildFrame. This function builds the frame, does the bit stuffing, adds the flags,...">
<polygon fill="none" stroke="black" points="383,-66.5 383,-96.5 508,-96.5 508,-66.5 383,-66.5"/>
<text text-anchor="start" x="391" y="-84.5" font-family="Helvetica,sans-Serif" font-size="10.00">signal_easel::ax25</text>
<text text-anchor="middle" x="445.5" y="-73.5" font-family="Helvetica,sans-Serif" font-size="10.00">::Frame::encodeFrame</text>
</a>
</g>
</g>
<!-- Node8&#45;&gt;Node9 -->
<g id="edge8" class="edge">
<title>Node8&#45;&gt;Node9</title>
<path fill="none" stroke="midnightblue" d="M574.2,-34.15C546.67,-44.36 513,-56.84 487.15,-66.43"/>
<polygon fill="midnightblue" stroke="midnightblue" points="575.5,-37.4 583.66,-30.64 573.07,-30.84 575.5,-37.4"/>
</g>
<!-- Node10 -->
<g id="node10" class="node">
<title>Node10</title>
<g id="a_node10"><a xlink:href="namespacesignal__easel_1_1aprs.html#a77481001a5b78a839972bb4220b43e4d" target="_top" xlink:title=" ">
<polygon fill="none" stroke="black" points="227.5,-88.5 227.5,-118.5 331.5,-118.5 331.5,-88.5 227.5,-88.5"/>
<text text-anchor="start" x="235.5" y="-106.5" font-family="Helvetica,sans-Serif" font-size="10.00">signal_easel::aprs</text>
<text text-anchor="middle" x="279.5" y="-95.5" font-family="Helvetica,sans-Serif" font-size="10.00">::encodePacket</text>
</a>
</g>
</g>
<!-- Node9&#45;&gt;Node10 -->
<g id="edge9" class="edge">
<title>Node9&#45;&gt;Node10</title>
<path fill="none" stroke="midnightblue" d="M372.94,-91.1C359.04,-92.96 344.74,-94.88 331.66,-96.64"/>
<polygon fill="midnightblue" stroke="midnightblue" points="373.52,-94.55 382.97,-89.75 372.59,-87.62 373.52,-94.55"/>
</g>
<!-- Node11 -->
<g id="node11" class="node">
<title>Node11</title>
<g id="a_node11"><a xlink:href="classsignal__easel_1_1aprs_1_1Modulator.html#a8ae067701382dec1680b786583ace687" target="_top" xlink:title=" ">
<polygon fill="none" stroke="black" points="77,-113.5 77,-143.5 190,-143.5 190,-113.5 77,-113.5"/>
<text text-anchor="start" x="85" y="-131.5" font-family="Helvetica,sans-Serif" font-size="10.00">signal_easel::aprs</text>
<text text-anchor="middle" x="133.5" y="-120.5" font-family="Helvetica,sans-Serif" font-size="10.00">::Modulator::encode</text>
</a>
</g>
</g>
<!-- Node10&#45;&gt;Node11 -->
<g id="edge10" class="edge">
<title>Node10&#45;&gt;Node11</title>
<path fill="none" stroke="midnightblue" d="M217.35,-114.12C208.41,-115.67 199.23,-117.26 190.4,-118.8"/>
<polygon fill="midnightblue" stroke="midnightblue" points="218.07,-117.54 227.33,-112.38 216.87,-110.65 218.07,-117.54"/>
</g>
<!-- Node11&#45;&gt;Node6 -->
<g id="edge11" class="edge">
<title>Node11&#45;&gt;Node6</title>
<path fill="none" stroke="midnightblue" d="M66.58,-141.57C57.37,-143.39 48.56,-145.14 41.21,-146.59"/>
<polygon fill="midnightblue" stroke="midnightblue" points="67.55,-144.94 76.67,-139.56 66.19,-138.08 67.55,-144.94"/>
</g>
<!-- Node13&#45;&gt;Node3 -->
<g id="edge16" class="edge">
<title>Node13&#45;&gt;Node3</title>
<path fill="none" stroke="midnightblue" d="M718.62,-181.11C709.99,-181.99 701.36,-182.87 693.04,-183.72"/>
<polygon fill="midnightblue" stroke="midnightblue" points="719.16,-184.58 728.75,-180.08 718.45,-177.61 719.16,-184.58"/>
</g>
<!-- Node14 -->
<g id="node14" class="node">
<title>Node14</title>
<g id="a_node14"><a xlink:href="namespacesignal__easel_1_1aprs.html#a586b022fa0c917fa8557bbd5cdc6aeeb" target="_top" xlink:title=" ">
<polygon fill="none" stroke="black" points="569,-126.5 569,-156.5 682,-156.5 682,-126.5 569,-126.5"/>
<text text-anchor="start" x="577" y="-144.5" font-family="Helvetica,sans-Serif" font-size="10.00">signal_easel::aprs</text>
<text text-anchor="middle" x="625.5" y="-133.5" font-family="Helvetica,sans-Serif" font-size="10.00">::AddRequiredFields</text>
</a>
</g>
</g>
<!-- Node13&#45;&gt;Node14 -->
<g id="edge14" class="edge">
<title>Node13&#45;&gt;Node14</title>
<path fill="none" stroke="midnightblue" d="M718.71,-156.33C706.16,-154.31 693.64,-152.3 682.06,-150.44"/>
<polygon fill="midnightblue" stroke="midnightblue" points="718.32,-159.82 728.75,-157.95 719.44,-152.9 718.32,-159.82"/>
</g>
<!-- Node13&#45;&gt;Node15 -->
<g id="edge17" class="edge">
<title>Node13&#45;&gt;Node15</title>
<path fill="none" stroke="midnightblue" d="M739.97,-152.7C736.2,-151.09 732.52,-149.36 729,-147.5 710.59,-137.76 711.34,-127.37 693,-117.5 678.24,-109.56 659.9,-104.35 646.23,-101.24"/>
<polygon fill="midnightblue" stroke="midnightblue" points="738.91,-156.05 749.5,-156.46 741.48,-149.53 738.91,-156.05"/>
</g>
<!-- Node14&#45;&gt;Node10 -->
<g id="edge15" class="edge">
<title>Node14&#45;&gt;Node10</title>
<path fill="none" stroke="midnightblue" d="M558.54,-134.21C492.38,-126.91 391.9,-115.81 331.58,-109.14"/>
<polygon fill="midnightblue" stroke="midnightblue" points="558.52,-137.73 568.85,-135.35 559.29,-130.78 558.52,-137.73"/>
</g>
<!-- Node16&#45;&gt;Node3 -->
<g id="edge20" class="edge">
<title>Node16&#45;&gt;Node3</title>
<path fill="none" stroke="midnightblue" d="M747.15,-140.74C740.96,-142.86 734.82,-145.12 729,-147.5 712.25,-154.34 709.55,-159.19 693,-166.5 685.93,-169.62 678.31,-172.66 670.84,-175.47"/>
<polygon fill="midnightblue" stroke="midnightblue" points="748.49,-143.98 756.89,-137.53 746.3,-137.34 748.49,-143.98"/>
</g>
<!-- Node16&#45;&gt;Node14 -->
<g id="edge19" class="edge">
<title>Node16&#45;&gt;Node14</title>
<path fill="none" stroke="midnightblue" d="M730.76,-130.88C714.35,-132.55 697.48,-134.27 682.22,-135.82"/>
<polygon fill="midnightblue" stroke="midnightblue" points="731.3,-134.34 740.89,-129.85 730.59,-127.38 731.3,-134.34"/>
</g>
<!-- Node16&#45;&gt;Node15 -->
<g id="edge21" class="edge">
<title>Node16&#45;&gt;Node15</title>
<path fill="none" stroke="midnightblue" d="M730.83,-111.49C699.59,-107.3 666.67,-102.88 646.36,-100.16"/>
<polygon fill="midnightblue" stroke="midnightblue" points="730.52,-114.97 740.89,-112.83 731.45,-108.04 730.52,-114.97"/>
</g>
</g>
</svg>
