<?xml version="1.0" encoding="UTF-8" standalone="no"?>
<!DOCTYPE svg PUBLIC "-//W3C//DTD SVG 1.1//EN"
 "http://www.w3.org/Graphics/SVG/1.1/DTD/svg11.dtd">
<!-- Generated by graphviz version 2.43.0 (0)
 -->
<!-- Title: signal_easel::psk::Modulator::encodeBpsk Pages: 1 -->
<svg width="536pt" height="137pt"
 viewBox="0.00 0.00 536.00 137.00" xmlns="http://www.w3.org/2000/svg" xmlns:xlink="http://www.w3.org/1999/xlink">
<g id="graph0" class="graph" transform="scale(1 1) rotate(0) translate(4 133)">
<title>signal_easel::psk::Modulator::encodeBpsk</title>
<!-- Node1 -->
<g id="node1" class="node">
<title>Node1</title>
<g id="a_node1"><a xlink:title=" ">
<polygon fill="#bfbfbf" stroke="black" points="0,-49.5 0,-79.5 131,-79.5 131,-49.5 0,-49.5"/>
<text text-anchor="start" x="8" y="-67.5" font-family="Helvetica,sans-Serif" font-size="10.00">signal_easel::psk::</text>
<text text-anchor="middle" x="65.5" y="-56.5" font-family="Helvetica,sans-Serif" font-size="10.00">Modulator::encodeBpsk</text>
</a>
</g>
</g>
<!-- Node2 -->
<g id="node2" class="node">
<title>Node2</title>
<g id="a_node2"><a xlink:href="classsignal__easel_1_1psk_1_1PskWaveShaper.html#a43adb5526e215f4183ad439ca92daf1f" target="_top" xlink:title=" ">
<polygon fill="none" stroke="black" points="167,-98.5 167,-128.5 322,-128.5 322,-98.5 167,-98.5"/>
<text text-anchor="start" x="175" y="-116.5" font-family="Helvetica,sans-Serif" font-size="10.00">signal_easel::psk::</text>
<text text-anchor="middle" x="244.5" y="-105.5" font-family="Helvetica,sans-Serif" font-size="10.00">PskWaveShaper::addSymbol</text>
</a>
</g>
</g>
<!-- Node1&#45;&gt;Node2 -->
<g id="edge1" class="edge">
<title>Node1&#45;&gt;Node2</title>
<path fill="none" stroke="midnightblue" d="M121.05,-79.6C139.47,-84.7 160.21,-90.44 179.31,-95.73"/>
<polygon fill="midnightblue" stroke="midnightblue" points="178.56,-99.15 189.13,-98.45 180.43,-92.41 178.56,-99.15"/>
</g>
<!-- Node4 -->
<g id="node4" class="node">
<title>Node4</title>
<g id="a_node4"><a xlink:href="classsignal__easel_1_1BitStream.html#ad7b803a89b3a53ec1e4108122861a90b" target="_top" xlink:title="Returns the next bit of the bit stream without removing it.">
<polygon fill="none" stroke="black" points="178.5,-49.5 178.5,-79.5 310.5,-79.5 310.5,-49.5 178.5,-49.5"/>
<text text-anchor="start" x="186.5" y="-67.5" font-family="Helvetica,sans-Serif" font-size="10.00">signal_easel::BitStream</text>
<text text-anchor="middle" x="244.5" y="-56.5" font-family="Helvetica,sans-Serif" font-size="10.00">::peakNextBit</text>
</a>
</g>
</g>
<!-- Node1&#45;&gt;Node4 -->
<g id="edge3" class="edge">
<title>Node1&#45;&gt;Node4</title>
<path fill="none" stroke="midnightblue" d="M131.15,-64.5C143.19,-64.5 155.86,-64.5 168.18,-64.5"/>
<polygon fill="midnightblue" stroke="midnightblue" points="168.43,-68 178.43,-64.5 168.43,-61 168.43,-68"/>
</g>
<!-- Node5 -->
<g id="node5" class="node">
<title>Node5</title>
<g id="a_node5"><a xlink:href="classsignal__easel_1_1BitStream.html#a5b5339586e09ca5c25a7e9ded0118ffb" target="_top" xlink:title="Returns the next bit of the bit stream that will be encoded.">
<polygon fill="none" stroke="black" points="178.5,-0.5 178.5,-30.5 310.5,-30.5 310.5,-0.5 178.5,-0.5"/>
<text text-anchor="start" x="186.5" y="-18.5" font-family="Helvetica,sans-Serif" font-size="10.00">signal_easel::BitStream</text>
<text text-anchor="middle" x="244.5" y="-7.5" font-family="Helvetica,sans-Serif" font-size="10.00">::popNextBit</text>
</a>
</g>
</g>
<!-- Node1&#45;&gt;Node5 -->
<g id="edge4" class="edge">
<title>Node1&#45;&gt;Node5</title>
<path fill="none" stroke="midnightblue" d="M121.05,-49.4C139.47,-44.3 160.21,-38.56 179.31,-33.27"/>
<polygon fill="midnightblue" stroke="midnightblue" points="180.43,-36.59 189.13,-30.55 178.56,-29.85 180.43,-36.59"/>
</g>
<!-- Node3 -->
<g id="node3" class="node">
<title>Node3</title>
<g id="a_node3"><a xlink:href="classsignal__easel_1_1psk_1_1PskWaveShaper.html#ac4db3c5943e9f56ce1d058a2347a2438" target="_top" xlink:title="A filter to remove the sharp edges of the wave during a phase change.">
<polygon fill="none" stroke="black" points="358,-98.5 358,-128.5 528,-128.5 528,-98.5 358,-98.5"/>
<text text-anchor="start" x="366" y="-116.5" font-family="Helvetica,sans-Serif" font-size="10.00">signal_easel::psk::</text>
<text text-anchor="middle" x="443" y="-105.5" font-family="Helvetica,sans-Serif" font-size="10.00">PskWaveShaper::envelopeFilter</text>
</a>
</g>
</g>
<!-- Node2&#45;&gt;Node3 -->
<g id="edge2" class="edge">
<title>Node2&#45;&gt;Node3</title>
<path fill="none" stroke="midnightblue" d="M322.03,-113.5C330.48,-113.5 339.14,-113.5 347.77,-113.5"/>
<polygon fill="midnightblue" stroke="midnightblue" points="347.86,-117 357.86,-113.5 347.86,-110 347.86,-117"/>
</g>
</g>
</svg>
