<?xml version="1.0" encoding="UTF-8" standalone="no"?>
<!DOCTYPE svg PUBLIC "-//W3C//DTD SVG 1.1//EN"
 "http://www.w3.org/Graphics/SVG/1.1/DTD/svg11.dtd">
<!-- Generated by graphviz version 2.43.0 (0)
 -->
<!-- Title: signal_easel::ax25::Frame Pages: 1 -->
<svg width="764pt" height="793pt"
 viewBox="0.00 0.00 764.00 793.00" xmlns="http://www.w3.org/2000/svg" xmlns:xlink="http://www.w3.org/1999/xlink">
<g id="graph0" class="graph" transform="scale(1 1) rotate(0) translate(4 789)">
<title>signal_easel::ax25::Frame</title>
<!-- Node1 -->
<g id="node1" class="node">
<title>Node1</title>
<g id="a_node1"><a xlink:title=" ">
<polygon fill="#bfbfbf" stroke="black" points="403.5,-0.5 403.5,-343.5 562.5,-343.5 562.5,-0.5 403.5,-0.5"/>
<text text-anchor="start" x="411.5" y="-331.5" font-family="Helvetica,sans-Serif" font-size="10.00">signal_easel::ax25</text>
<text text-anchor="middle" x="483" y="-320.5" font-family="Helvetica,sans-Serif" font-size="10.00">::Frame</text>
<polyline fill="none" stroke="black" points="403.5,-313.5 562.5,-313.5 "/>
<text text-anchor="middle" x="483" y="-301.5" font-family="Helvetica,sans-Serif" font-size="10.00"> </text>
<polyline fill="none" stroke="black" points="403.5,-294.5 562.5,-294.5 "/>
<text text-anchor="start" x="411.5" y="-282.5" font-family="Helvetica,sans-Serif" font-size="10.00">+ Frame()</text>
<text text-anchor="start" x="411.5" y="-271.5" font-family="Helvetica,sans-Serif" font-size="10.00">+ buildFrame()</text>
<text text-anchor="start" x="411.5" y="-260.5" font-family="Helvetica,sans-Serif" font-size="10.00">+ encodeFrame()</text>
<text text-anchor="start" x="411.5" y="-249.5" font-family="Helvetica,sans-Serif" font-size="10.00">+ isFrameValid()</text>
<text text-anchor="start" x="411.5" y="-238.5" font-family="Helvetica,sans-Serif" font-size="10.00">+ parseBitStream()</text>
<text text-anchor="start" x="411.5" y="-227.5" font-family="Helvetica,sans-Serif" font-size="10.00">+ setDestinationAddress()</text>
<text text-anchor="start" x="411.5" y="-216.5" font-family="Helvetica,sans-Serif" font-size="10.00">+ getDestinationAddress()</text>
<text text-anchor="start" x="411.5" y="-205.5" font-family="Helvetica,sans-Serif" font-size="10.00">+ setSourceAddress()</text>
<text text-anchor="start" x="411.5" y="-194.5" font-family="Helvetica,sans-Serif" font-size="10.00">+ getSourceAddress()</text>
<text text-anchor="start" x="411.5" y="-183.5" font-family="Helvetica,sans-Serif" font-size="10.00">+ addRepeaterAddress()</text>
<text text-anchor="start" x="411.5" y="-172.5" font-family="Helvetica,sans-Serif" font-size="10.00">+ getRepeaterAddresses()</text>
<text text-anchor="start" x="411.5" y="-161.5" font-family="Helvetica,sans-Serif" font-size="10.00">+ setInformation()</text>
<text text-anchor="start" x="411.5" y="-150.5" font-family="Helvetica,sans-Serif" font-size="10.00">+ getInformation()</text>
<text text-anchor="start" x="411.5" y="-139.5" font-family="Helvetica,sans-Serif" font-size="10.00">+ getInformationRef()</text>
<text text-anchor="start" x="411.5" y="-128.5" font-family="Helvetica,sans-Serif" font-size="10.00">&#45; AddByteForFcs()</text>
<text text-anchor="start" x="411.5" y="-117.5" font-family="Helvetica,sans-Serif" font-size="10.00">&#45; addToBuildBuffer()</text>
<text text-anchor="start" x="411.5" y="-106.5" font-family="Helvetica,sans-Serif" font-size="10.00">&#45; calculateFcsOnBuildBuffer()</text>
<text text-anchor="start" x="411.5" y="-95.5" font-family="Helvetica,sans-Serif" font-size="10.00">* setDestinationAddress()</text>
<text text-anchor="start" x="411.5" y="-84.5" font-family="Helvetica,sans-Serif" font-size="10.00">* getDestinationAddress()</text>
<text text-anchor="start" x="411.5" y="-73.5" font-family="Helvetica,sans-Serif" font-size="10.00">* setSourceAddress()</text>
<text text-anchor="start" x="411.5" y="-62.5" font-family="Helvetica,sans-Serif" font-size="10.00">* getSourceAddress()</text>
<text text-anchor="start" x="411.5" y="-51.5" font-family="Helvetica,sans-Serif" font-size="10.00">* addRepeaterAddress()</text>
<text text-anchor="start" x="411.5" y="-40.5" font-family="Helvetica,sans-Serif" font-size="10.00">* getRepeaterAddresses()</text>
<text text-anchor="start" x="411.5" y="-29.5" font-family="Helvetica,sans-Serif" font-size="10.00">* setInformation()</text>
<text text-anchor="start" x="411.5" y="-18.5" font-family="Helvetica,sans-Serif" font-size="10.00">* getInformation()</text>
<text text-anchor="start" x="411.5" y="-7.5" font-family="Helvetica,sans-Serif" font-size="10.00">* getInformationRef()</text>
</a>
</g>
</g>
<!-- Node2 -->
<g id="node2" class="node">
<title>Node2</title>
<g id="a_node2"><a xlink:href="classsignal__easel_1_1ax25_1_1Address.html" target="_top" xlink:title="AX.25 Address class. For encoding and decoding AX.25 addresses.">
<polygon fill="none" stroke="black" points="83.5,-413.5 83.5,-613.5 244.5,-613.5 244.5,-413.5 83.5,-413.5"/>
<text text-anchor="start" x="91.5" y="-601.5" font-family="Helvetica,sans-Serif" font-size="10.00">signal_easel::ax25</text>
<text text-anchor="middle" x="164" y="-590.5" font-family="Helvetica,sans-Serif" font-size="10.00">::Address</text>
<polyline fill="none" stroke="black" points="83.5,-583.5 244.5,-583.5 "/>
<text text-anchor="middle" x="164" y="-571.5" font-family="Helvetica,sans-Serif" font-size="10.00"> </text>
<polyline fill="none" stroke="black" points="83.5,-564.5 244.5,-564.5 "/>
<text text-anchor="start" x="91.5" y="-552.5" font-family="Helvetica,sans-Serif" font-size="10.00">+ Address()</text>
<text text-anchor="start" x="91.5" y="-541.5" font-family="Helvetica,sans-Serif" font-size="10.00">+ Address()</text>
<text text-anchor="start" x="91.5" y="-530.5" font-family="Helvetica,sans-Serif" font-size="10.00">+ Address()</text>
<text text-anchor="start" x="91.5" y="-519.5" font-family="Helvetica,sans-Serif" font-size="10.00">+ assertIsValid()</text>
<text text-anchor="start" x="91.5" y="-508.5" font-family="Helvetica,sans-Serif" font-size="10.00">+ decodeAddress()</text>
<text text-anchor="start" x="91.5" y="-497.5" font-family="Helvetica,sans-Serif" font-size="10.00">+ encodeAddress()</text>
<text text-anchor="start" x="91.5" y="-486.5" font-family="Helvetica,sans-Serif" font-size="10.00">+ getAddressString()</text>
<text text-anchor="start" x="91.5" y="-475.5" font-family="Helvetica,sans-Serif" font-size="10.00">+ getSsid()</text>
<text text-anchor="start" x="91.5" y="-464.5" font-family="Helvetica,sans-Serif" font-size="10.00">+ isAddressStringValid()</text>
<text text-anchor="start" x="91.5" y="-453.5" font-family="Helvetica,sans-Serif" font-size="10.00">+ isCommandOrResponse()</text>
<text text-anchor="start" x="91.5" y="-442.5" font-family="Helvetica,sans-Serif" font-size="10.00">and 8 more...</text>
<text text-anchor="start" x="91.5" y="-431.5" font-family="Helvetica,sans-Serif" font-size="10.00">&#45; assertAddressStringIsValid()</text>
<text text-anchor="start" x="91.5" y="-420.5" font-family="Helvetica,sans-Serif" font-size="10.00">&#45; assertSsidIsValid()</text>
</a>
</g>
</g>
<!-- Node2&#45;&gt;Node1 -->
<g id="edge1" class="edge">
<title>Node2&#45;&gt;Node1</title>
<path fill="none" stroke="#404040" d="M176.6,-413.26C181.91,-395.16 189.41,-377.21 200,-362 247.8,-293.37 329.27,-242.85 392.56,-211.4"/>
<polygon fill="none" stroke="#404040" points="392.57,-211.39 396.2,-205.17 403.35,-206.13 399.71,-212.35 392.57,-211.39"/>
<text text-anchor="start" x="200" y="-387" font-family="Helvetica,sans-Serif" font-size="10.00"> &#45;destination_address</text>
<text text-anchor="middle" x="253" y="-376" font-family="Helvetica,sans-Serif" font-size="10.00">_</text>
<text text-anchor="middle" x="253" y="-365" font-family="Helvetica,sans-Serif" font-size="10.00">&#45;source_address_</text>
</g>
<!-- Node3 -->
<g id="node3" class="node">
<title>Node3</title>
<g id="a_node3"><a xlink:title=" ">
<polygon fill="none" stroke="black" points="0,-727.5 0,-784.5 44,-784.5 44,-727.5 0,-727.5"/>
<text text-anchor="middle" x="22" y="-772.5" font-family="Helvetica,sans-Serif" font-size="10.00">string</text>
<polyline fill="none" stroke="black" points="0,-765.5 44,-765.5 "/>
<text text-anchor="middle" x="22" y="-753.5" font-family="Helvetica,sans-Serif" font-size="10.00"> </text>
<polyline fill="none" stroke="black" points="0,-746.5 44,-746.5 "/>
<text text-anchor="middle" x="22" y="-734.5" font-family="Helvetica,sans-Serif" font-size="10.00"> </text>
</a>
</g>
</g>
<!-- Node3&#45;&gt;Node2 -->
<g id="edge2" class="edge">
<title>Node3&#45;&gt;Node2</title>
<path fill="none" stroke="#404040" d="M20.69,-727.03C20.63,-701.02 23.57,-661.88 39,-632 48.06,-614.47 60.8,-598.14 74.71,-583.57"/>
<polygon fill="none" stroke="#404040" points="75.04,-583.24 76.43,-576.16 83.5,-574.73 82.1,-581.81 75.04,-583.24"/>
<text text-anchor="middle" x="81" y="-668" font-family="Helvetica,sans-Serif" font-size="10.00"> &#45;address_string_</text>
</g>
<!-- Node4 -->
<g id="node4" class="node">
<title>Node4</title>
<g id="a_node4"><a xlink:title=" ">
<polygon fill="none" stroke="black" points="271,-727.5 271,-784.5 321,-784.5 321,-727.5 271,-727.5"/>
<text text-anchor="middle" x="296" y="-772.5" font-family="Helvetica,sans-Serif" font-size="10.00">uint8_t</text>
<polyline fill="none" stroke="black" points="271,-765.5 321,-765.5 "/>
<text text-anchor="middle" x="296" y="-753.5" font-family="Helvetica,sans-Serif" font-size="10.00"> </text>
<polyline fill="none" stroke="black" points="271,-746.5 321,-746.5 "/>
<text text-anchor="middle" x="296" y="-734.5" font-family="Helvetica,sans-Serif" font-size="10.00"> </text>
</a>
</g>
</g>
<!-- Node4&#45;&gt;Node1 -->
<g id="edge7" class="edge">
<title>Node4&#45;&gt;Node1</title>
<path fill="none" stroke="#404040" d="M302.63,-727.38C303.9,-721.35 305.11,-714.98 306,-709 325.4,-578.45 287.95,-538.11 330,-413 345.17,-367.85 370.61,-322.68 396.43,-283.9"/>
<polygon fill="none" stroke="#404040" points="396.63,-283.6 396.68,-276.39 403.35,-273.66 403.31,-280.87 396.63,-283.6"/>
<text text-anchor="middle" x="344" y="-511" font-family="Helvetica,sans-Serif" font-size="10.00"> &#45;pid_</text>
</g>
<!-- Node4&#45;&gt;Node2 -->
<g id="edge3" class="edge">
<title>Node4&#45;&gt;Node2</title>
<path fill="none" stroke="#404040" d="M281.8,-727.09C279.04,-721.19 276.29,-714.95 274,-709 261.14,-675.68 266.98,-663.94 251,-632 249.71,-629.41 248.36,-626.83 246.96,-624.24"/>
<polygon fill="none" stroke="#404040" points="246.86,-624.08 240.42,-620.83 240.94,-613.64 247.38,-616.89 246.86,-624.08"/>
<text text-anchor="middle" x="290" y="-668" font-family="Helvetica,sans-Serif" font-size="10.00"> &#45;ssid_</text>
</g>
<!-- Node5 -->
<g id="node5" class="node">
<title>Node5</title>
<g id="a_node5"><a xlink:title=" ">
<polygon fill="none" stroke="black" points="110,-727.5 110,-784.5 148,-784.5 148,-727.5 110,-727.5"/>
<text text-anchor="middle" x="129" y="-772.5" font-family="Helvetica,sans-Serif" font-size="10.00">bool</text>
<polyline fill="none" stroke="black" points="110,-765.5 148,-765.5 "/>
<text text-anchor="middle" x="129" y="-753.5" font-family="Helvetica,sans-Serif" font-size="10.00"> </text>
<polyline fill="none" stroke="black" points="110,-746.5 148,-746.5 "/>
<text text-anchor="middle" x="129" y="-734.5" font-family="Helvetica,sans-Serif" font-size="10.00"> </text>
</a>
</g>
</g>
<!-- Node5&#45;&gt;Node2 -->
<g id="edge4" class="edge">
<title>Node5&#45;&gt;Node2</title>
<path fill="none" stroke="#404040" d="M127.09,-727.48C125.85,-702.44 125.25,-664.54 130,-632 130.3,-629.94 130.63,-627.87 130.98,-625.78"/>
<polygon fill="none" stroke="#404040" points="131.02,-625.56 128.2,-618.92 133.24,-613.77 136.06,-620.4 131.02,-625.56"/>
<text text-anchor="start" x="130" y="-701" font-family="Helvetica,sans-Serif" font-size="10.00"> &#45;command_or_response</text>
<text text-anchor="middle" x="190.5" y="-690" font-family="Helvetica,sans-Serif" font-size="10.00">_</text>
<text text-anchor="start" x="130" y="-679" font-family="Helvetica,sans-Serif" font-size="10.00">&#45;is_last_address</text>
<text text-anchor="middle" x="190.5" y="-668" font-family="Helvetica,sans-Serif" font-size="10.00">_</text>
<text text-anchor="start" x="130" y="-657" font-family="Helvetica,sans-Serif" font-size="10.00">&#45;reserve_bit</text>
<text text-anchor="middle" x="190.5" y="-646" font-family="Helvetica,sans-Serif" font-size="10.00">_1_</text>
<text text-anchor="middle" x="190.5" y="-635" font-family="Helvetica,sans-Serif" font-size="10.00">&#45;reserve_bit_2_</text>
</g>
<!-- Node6 -->
<g id="node6" class="node">
<title>Node6</title>
<g id="a_node6"><a xlink:title=" ">
<polygon fill="none" stroke="black" points="366.5,-479.5 366.5,-547.5 485.5,-547.5 485.5,-479.5 366.5,-479.5"/>
<text text-anchor="start" x="374.5" y="-535.5" font-family="Helvetica,sans-Serif" font-size="10.00">vector&lt; signal_easel</text>
<text text-anchor="middle" x="426" y="-524.5" font-family="Helvetica,sans-Serif" font-size="10.00">::ax25::Address &gt;</text>
<polyline fill="none" stroke="black" points="366.5,-517.5 485.5,-517.5 "/>
<text text-anchor="middle" x="426" y="-505.5" font-family="Helvetica,sans-Serif" font-size="10.00"> </text>
<polyline fill="none" stroke="black" points="366.5,-498.5 485.5,-498.5 "/>
<text text-anchor="middle" x="426" y="-486.5" font-family="Helvetica,sans-Serif" font-size="10.00"> </text>
</a>
</g>
</g>
<!-- Node6&#45;&gt;Node1 -->
<g id="edge5" class="edge">
<title>Node6&#45;&gt;Node1</title>
<path fill="none" stroke="#404040" d="M423.14,-479.36C421.26,-455.84 418.97,-423.51 418,-395 417.5,-380.34 415.58,-376.47 418,-362 418.36,-359.82 418.75,-357.63 419.16,-355.43"/>
<polygon fill="none" stroke="#404040" points="419.17,-355.38 416.43,-348.71 421.53,-343.62 424.27,-350.29 419.17,-355.38"/>
<text text-anchor="middle" x="472.5" y="-376" font-family="Helvetica,sans-Serif" font-size="10.00"> &#45;repeater_addresses_</text>
</g>
<!-- Node7 -->
<g id="node7" class="node">
<title>Node7</title>
<g id="a_node7"><a xlink:title=" ">
<polygon fill="none" stroke="black" points="520.5,-485 520.5,-542 559.5,-542 559.5,-485 520.5,-485"/>
<text text-anchor="middle" x="540" y="-530" font-family="Helvetica,sans-Serif" font-size="10.00">Type</text>
<polyline fill="none" stroke="black" points="520.5,-523 559.5,-523 "/>
<text text-anchor="middle" x="540" y="-511" font-family="Helvetica,sans-Serif" font-size="10.00"> </text>
<polyline fill="none" stroke="black" points="520.5,-504 559.5,-504 "/>
<text text-anchor="middle" x="540" y="-492" font-family="Helvetica,sans-Serif" font-size="10.00"> </text>
</a>
</g>
</g>
<!-- Node7&#45;&gt;Node1 -->
<g id="edge6" class="edge">
<title>Node7&#45;&gt;Node1</title>
<path fill="none" stroke="#404040" d="M538.8,-484.89C537.2,-454.6 533.76,-404.61 527,-362 526.65,-359.82 526.3,-357.62 525.93,-355.42"/>
<polygon fill="none" stroke="#404040" points="525.92,-355.37 520.95,-350.14 523.87,-343.54 528.83,-348.77 525.92,-355.37"/>
<text text-anchor="middle" x="548" y="-376" font-family="Helvetica,sans-Serif" font-size="10.00"> &#45;type_</text>
</g>
<!-- Node8 -->
<g id="node8" class="node">
<title>Node8</title>
<g id="a_node8"><a xlink:title=" ">
<polygon fill="none" stroke="black" points="578,-485 578,-542 682,-542 682,-485 578,-485"/>
<text text-anchor="middle" x="630" y="-530" font-family="Helvetica,sans-Serif" font-size="10.00">vector&lt; uint8_t &gt;</text>
<polyline fill="none" stroke="black" points="578,-523 682,-523 "/>
<text text-anchor="middle" x="630" y="-511" font-family="Helvetica,sans-Serif" font-size="10.00"> </text>
<polyline fill="none" stroke="black" points="578,-504 682,-504 "/>
<text text-anchor="middle" x="630" y="-492" font-family="Helvetica,sans-Serif" font-size="10.00"> </text>
</a>
</g>
</g>
<!-- Node8&#45;&gt;Node1 -->
<g id="edge8" class="edge">
<title>Node8&#45;&gt;Node1</title>
<path fill="none" stroke="#404040" d="M619.21,-484.89C607.28,-454.6 587.32,-404.61 569,-362 567.98,-359.64 566.96,-357.26 565.93,-354.87"/>
<polygon fill="none" stroke="#404040" points="565.81,-354.62 559.75,-350.71 561.03,-343.62 567.09,-347.52 565.81,-354.62"/>
<text text-anchor="middle" x="617" y="-381.5" font-family="Helvetica,sans-Serif" font-size="10.00"> &#45;build_buffer_</text>
<text text-anchor="middle" x="617" y="-370.5" font-family="Helvetica,sans-Serif" font-size="10.00">&#45;information_</text>
</g>
<!-- Node9 -->
<g id="node9" class="node">
<title>Node9</title>
<g id="a_node9"><a xlink:title=" ">
<polygon fill="none" stroke="black" points="700,-485 700,-542 756,-542 756,-485 700,-485"/>
<text text-anchor="middle" x="728" y="-530" font-family="Helvetica,sans-Serif" font-size="10.00">uint16_t</text>
<polyline fill="none" stroke="black" points="700,-523 756,-523 "/>
<text text-anchor="middle" x="728" y="-511" font-family="Helvetica,sans-Serif" font-size="10.00"> </text>
<polyline fill="none" stroke="black" points="700,-504 756,-504 "/>
<text text-anchor="middle" x="728" y="-492" font-family="Helvetica,sans-Serif" font-size="10.00"> </text>
</a>
</g>
</g>
<!-- Node9&#45;&gt;Node1 -->
<g id="edge9" class="edge">
<title>Node9&#45;&gt;Node1</title>
<path fill="none" stroke="#404040" d="M719.7,-484.7C713.12,-464.3 703.06,-436.23 691,-413 660.58,-354.4 613.11,-298.1 571.19,-254.78"/>
<polygon fill="none" stroke="#404040" points="571.01,-254.6 563.95,-253.1 562.62,-246.02 569.67,-247.51 571.01,-254.6"/>
<text text-anchor="middle" x="691.5" y="-376" font-family="Helvetica,sans-Serif" font-size="10.00"> &#45;fcs_</text>
</g>
</g>
</svg>
