<?xml version="1.0" encoding="UTF-8" standalone="no"?>
<!DOCTYPE svg PUBLIC "-//W3C//DTD SVG 1.1//EN"
 "http://www.w3.org/Graphics/SVG/1.1/DTD/svg11.dtd">
<!-- Generated by graphviz version 2.43.0 (0)
 -->
<!-- Title: signal_easel::ax25::Address::isAddressStringValid Pages: 1 -->
<svg width="1219pt" height="135pt"
 viewBox="0.00 0.00 1219.00 135.00" xmlns="http://www.w3.org/2000/svg" xmlns:xlink="http://www.w3.org/1999/xlink">
<g id="graph0" class="graph" transform="scale(1 1) rotate(0) translate(4 131)">
<title>signal_easel::ax25::Address::isAddressStringValid</title>
<!-- Node1 -->
<g id="node1" class="node">
<title>Node1</title>
<g id="a_node1"><a xlink:title=" ">
<polygon fill="#bfbfbf" stroke="black" points="1068,-11.5 1068,-52.5 1211,-52.5 1211,-11.5 1068,-11.5"/>
<text text-anchor="start" x="1076" y="-40.5" font-family="Helvetica,sans-Serif" font-size="10.00">signal_easel::ax25</text>
<text text-anchor="start" x="1076" y="-29.5" font-family="Helvetica,sans-Serif" font-size="10.00">::Address::isAddressString</text>
<text text-anchor="middle" x="1139.5" y="-18.5" font-family="Helvetica,sans-Serif" font-size="10.00">Valid</text>
</a>
</g>
</g>
<!-- Node2 -->
<g id="node2" class="node">
<title>Node2</title>
<g id="a_node2"><a xlink:href="classsignal__easel_1_1ax25_1_1Address.html#aae81920cfd0dc7d89cb107f9d825488c" target="_top" xlink:title="If the address is valid (can be encoded correctly or was decoded)">
<polygon fill="none" stroke="black" points="925,-17 925,-47 1032,-47 1032,-17 925,-17"/>
<text text-anchor="start" x="933" y="-35" font-family="Helvetica,sans-Serif" font-size="10.00">signal_easel::ax25</text>
<text text-anchor="middle" x="978.5" y="-24" font-family="Helvetica,sans-Serif" font-size="10.00">::Address::isValid</text>
</a>
</g>
</g>
<!-- Node1&#45;&gt;Node2 -->
<g id="edge1" class="edge">
<title>Node1&#45;&gt;Node2</title>
<path fill="none" stroke="midnightblue" d="M1057.72,-32C1049.09,-32 1040.48,-32 1032.29,-32"/>
<polygon fill="midnightblue" stroke="midnightblue" points="1057.83,-35.5 1067.83,-32 1057.83,-28.5 1057.83,-35.5"/>
</g>
<!-- Node3 -->
<g id="node3" class="node">
<title>Node3</title>
<g id="a_node3"><a xlink:href="classsignal__easel_1_1ax25_1_1Frame.html#a640edeabbda34e78cc243e3561747bf9" target="_top" xlink:title=" ">
<polygon fill="none" stroke="black" points="767,-39 767,-69 889,-69 889,-39 767,-39"/>
<text text-anchor="start" x="775" y="-57" font-family="Helvetica,sans-Serif" font-size="10.00">signal_easel::ax25</text>
<text text-anchor="middle" x="828" y="-46" font-family="Helvetica,sans-Serif" font-size="10.00">::Frame::isFrameValid</text>
</a>
</g>
</g>
<!-- Node2&#45;&gt;Node3 -->
<g id="edge2" class="edge">
<title>Node2&#45;&gt;Node3</title>
<path fill="none" stroke="midnightblue" d="M914.59,-41.32C906.18,-42.57 897.56,-43.84 889.2,-45.08"/>
<polygon fill="midnightblue" stroke="midnightblue" points="915.35,-44.75 924.73,-39.82 914.32,-37.82 915.35,-44.75"/>
</g>
<!-- Node11 -->
<g id="node11" class="node">
<title>Node11</title>
<g id="a_node11"><a xlink:href="ax25__address__test_8cpp.html#afa443d4d5f700a003ec7cac34596dcba" target="_top" xlink:title=" ">
<polygon fill="none" stroke="black" points="807.5,-0.5 807.5,-19.5 848.5,-19.5 848.5,-0.5 807.5,-0.5"/>
<text text-anchor="middle" x="828" y="-7.5" font-family="Helvetica,sans-Serif" font-size="10.00">TEST</text>
</a>
</g>
</g>
<!-- Node2&#45;&gt;Node11 -->
<g id="edge10" class="edge">
<title>Node2&#45;&gt;Node11</title>
<path fill="none" stroke="midnightblue" d="M914.69,-22.7C890.98,-19.18 865.68,-15.43 848.76,-12.93"/>
<polygon fill="midnightblue" stroke="midnightblue" points="914.32,-26.18 924.73,-24.18 915.35,-19.25 914.32,-26.18"/>
</g>
<!-- Node4 -->
<g id="node4" class="node">
<title>Node4</title>
<g id="a_node4"><a xlink:href="classsignal__easel_1_1ax25_1_1Frame.html#a24e7d5ffc6504a3380e97142d1bc084e" target="_top" xlink:title="Builds all internal portions of the frame. Doesn&#39;t include the flags.">
<polygon fill="none" stroke="black" points="617,-61 617,-91 731,-91 731,-61 617,-61"/>
<text text-anchor="start" x="625" y="-79" font-family="Helvetica,sans-Serif" font-size="10.00">signal_easel::ax25</text>
<text text-anchor="middle" x="674" y="-68" font-family="Helvetica,sans-Serif" font-size="10.00">::Frame::buildFrame</text>
</a>
</g>
</g>
<!-- Node3&#45;&gt;Node4 -->
<g id="edge3" class="edge">
<title>Node3&#45;&gt;Node4</title>
<path fill="none" stroke="midnightblue" d="M756.88,-64.15C748.27,-65.4 739.55,-66.66 731.17,-67.87"/>
<polygon fill="midnightblue" stroke="midnightblue" points="757.53,-67.59 766.93,-62.69 756.53,-60.66 757.53,-67.59"/>
</g>
<!-- Node10 -->
<g id="node10" class="node">
<title>Node10</title>
<g id="a_node10"><a xlink:href="ax25__frame__test_8cpp.html#a091d83d42783f2a0b3fd33a0521dc2ce" target="_top" xlink:title=" ">
<polygon fill="none" stroke="black" points="653.5,-22.5 653.5,-41.5 694.5,-41.5 694.5,-22.5 653.5,-22.5"/>
<text text-anchor="middle" x="674" y="-29.5" font-family="Helvetica,sans-Serif" font-size="10.00">TEST</text>
</a>
</g>
</g>
<!-- Node3&#45;&gt;Node10 -->
<g id="edge9" class="edge">
<title>Node3&#45;&gt;Node10</title>
<path fill="none" stroke="midnightblue" d="M756.88,-43.85C734.08,-40.55 710.57,-37.15 694.62,-34.84"/>
<polygon fill="midnightblue" stroke="midnightblue" points="756.53,-47.34 766.93,-45.31 757.53,-40.41 756.53,-47.34"/>
</g>
<!-- Node5 -->
<g id="node5" class="node">
<title>Node5</title>
<g id="a_node5"><a xlink:href="classsignal__easel_1_1ax25_1_1Frame.html#a2b4f6ebcb7592a7e5a21114c8fafa503" target="_top" xlink:title="A step beyond buildFrame. This function builds the frame, does the bit stuffing, adds the flags,...">
<polygon fill="none" stroke="black" points="456,-61 456,-91 581,-91 581,-61 456,-61"/>
<text text-anchor="start" x="464" y="-79" font-family="Helvetica,sans-Serif" font-size="10.00">signal_easel::ax25</text>
<text text-anchor="middle" x="518.5" y="-68" font-family="Helvetica,sans-Serif" font-size="10.00">::Frame::encodeFrame</text>
</a>
</g>
</g>
<!-- Node4&#45;&gt;Node5 -->
<g id="edge4" class="edge">
<title>Node4&#45;&gt;Node5</title>
<path fill="none" stroke="midnightblue" d="M606.56,-76C598.14,-76 589.55,-76 581.21,-76"/>
<polygon fill="midnightblue" stroke="midnightblue" points="606.71,-79.5 616.71,-76 606.71,-72.5 606.71,-79.5"/>
</g>
<!-- Node6 -->
<g id="node6" class="node">
<title>Node6</title>
<g id="a_node6"><a xlink:href="namespacesignal__easel.html#aad3ffdd47a4a03ed438e8c1ca9eef231" target="_top" xlink:title=" ">
<polygon fill="none" stroke="black" points="270,-66.5 270,-85.5 420,-85.5 420,-66.5 270,-66.5"/>
<text text-anchor="middle" x="345" y="-73.5" font-family="Helvetica,sans-Serif" font-size="10.00">signal_easel::encodePacket</text>
</a>
</g>
</g>
<!-- Node5&#45;&gt;Node6 -->
<g id="edge5" class="edge">
<title>Node5&#45;&gt;Node6</title>
<path fill="none" stroke="midnightblue" d="M445.47,-76C437.08,-76 428.51,-76 420.1,-76"/>
<polygon fill="midnightblue" stroke="midnightblue" points="445.58,-79.5 455.58,-76 445.58,-72.5 445.58,-79.5"/>
</g>
<!-- Node7 -->
<g id="node7" class="node">
<title>Node7</title>
<g id="a_node7"><a xlink:href="classsignal__easel_1_1aprs_1_1Modulator.html#a147321b48c2e282c62863f114702e54f" target="_top" xlink:title=" ">
<polygon fill="none" stroke="black" points="77,-85.5 77,-126.5 234,-126.5 234,-85.5 77,-85.5"/>
<text text-anchor="start" x="85" y="-114.5" font-family="Helvetica,sans-Serif" font-size="10.00">signal_easel::aprs</text>
<text text-anchor="start" x="85" y="-103.5" font-family="Helvetica,sans-Serif" font-size="10.00">::Modulator::encodeMessage</text>
<text text-anchor="middle" x="155.5" y="-92.5" font-family="Helvetica,sans-Serif" font-size="10.00">Packet</text>
</a>
</g>
</g>
<!-- Node6&#45;&gt;Node7 -->
<g id="edge6" class="edge">
<title>Node6&#45;&gt;Node7</title>
<path fill="none" stroke="midnightblue" d="M274.51,-87.12C261.35,-89.22 247.51,-91.44 234.13,-93.58"/>
<polygon fill="midnightblue" stroke="midnightblue" points="275.09,-90.57 284.42,-85.53 273.99,-83.66 275.09,-90.57"/>
</g>
<!-- Node9 -->
<g id="node9" class="node">
<title>Node9</title>
<g id="a_node9"><a xlink:href="classsignal__easel_1_1aprs_1_1Modulator.html#a943e392227656943d7db842e1889d805" target="_top" xlink:title=" ">
<polygon fill="none" stroke="black" points="79.5,-25.5 79.5,-66.5 231.5,-66.5 231.5,-25.5 79.5,-25.5"/>
<text text-anchor="start" x="87.5" y="-54.5" font-family="Helvetica,sans-Serif" font-size="10.00">signal_easel::aprs</text>
<text text-anchor="start" x="87.5" y="-43.5" font-family="Helvetica,sans-Serif" font-size="10.00">::Modulator::encodePosition</text>
<text text-anchor="middle" x="155.5" y="-32.5" font-family="Helvetica,sans-Serif" font-size="10.00">Packet</text>
</a>
</g>
</g>
<!-- Node6&#45;&gt;Node9 -->
<g id="edge8" class="edge">
<title>Node6&#45;&gt;Node9</title>
<path fill="none" stroke="midnightblue" d="M274.44,-64.87C260.53,-62.64 245.86,-60.3 231.77,-58.04"/>
<polygon fill="midnightblue" stroke="midnightblue" points="273.99,-68.34 284.42,-66.47 275.09,-61.43 273.99,-68.34"/>
</g>
<!-- Node8 -->
<g id="node8" class="node">
<title>Node8</title>
<g id="a_node8"><a xlink:href="aprs__test_8cpp.html#aea66d1824e3f1e27598adf99ac6a089a" target="_top" xlink:title=" ">
<polygon fill="none" stroke="black" points="0,-96.5 0,-115.5 41,-115.5 41,-96.5 0,-96.5"/>
<text text-anchor="middle" x="20.5" y="-103.5" font-family="Helvetica,sans-Serif" font-size="10.00">TEST</text>
</a>
</g>
</g>
<!-- Node7&#45;&gt;Node8 -->
<g id="edge7" class="edge">
<title>Node7&#45;&gt;Node8</title>
<path fill="none" stroke="midnightblue" d="M66.71,-106C57.26,-106 48.45,-106 41.16,-106"/>
<polygon fill="midnightblue" stroke="midnightblue" points="66.75,-109.5 76.75,-106 66.75,-102.5 66.75,-109.5"/>
</g>
</g>
</svg>
