<?xml version="1.0" encoding="UTF-8" standalone="no"?>
<!DOCTYPE svg PUBLIC "-//W3C//DTD SVG 1.1//EN"
 "http://www.w3.org/Graphics/SVG/1.1/DTD/svg11.dtd">
<!-- Generated by graphviz version 2.43.0 (0)
 -->
<!-- Title: signal_easel::aprs::Demodulator::parseMessagePacket Pages: 1 -->
<svg width="586pt" height="118pt"
 viewBox="0.00 0.00 586.00 118.00" xmlns="http://www.w3.org/2000/svg" xmlns:xlink="http://www.w3.org/1999/xlink">
<g id="graph0" class="graph" transform="scale(1 1) rotate(0) translate(4 114)">
<title>signal_easel::aprs::Demodulator::parseMessagePacket</title>
<!-- Node1 -->
<g id="node1" class="node">
<title>Node1</title>
<g id="a_node1"><a xlink:title="If the packet was a message packet, this function will try to parse the packet into a message packet.">
<polygon fill="#bfbfbf" stroke="black" points="0,-46 0,-87 163,-87 163,-46 0,-46"/>
<text text-anchor="start" x="8" y="-75" font-family="Helvetica,sans-Serif" font-size="10.00">signal_easel::aprs</text>
<text text-anchor="start" x="8" y="-64" font-family="Helvetica,sans-Serif" font-size="10.00">::Demodulator::parseMessage</text>
<text text-anchor="middle" x="81.5" y="-53" font-family="Helvetica,sans-Serif" font-size="10.00">Packet</text>
</a>
</g>
</g>
<!-- Node2 -->
<g id="node2" class="node">
<title>Node2</title>
<g id="a_node2"><a xlink:href="classsignal__easel_1_1ax25_1_1Frame.html#ad902c58dd3b47ed11d64057409b36603" target="_top" xlink:title=" ">
<polygon fill="none" stroke="black" points="219.5,-79.5 219.5,-109.5 351.5,-109.5 351.5,-79.5 219.5,-79.5"/>
<text text-anchor="start" x="227.5" y="-97.5" font-family="Helvetica,sans-Serif" font-size="10.00">signal_easel::ax25</text>
<text text-anchor="middle" x="285.5" y="-86.5" font-family="Helvetica,sans-Serif" font-size="10.00">::Frame::getInformation</text>
</a>
</g>
</g>
<!-- Node1&#45;&gt;Node2 -->
<g id="edge1" class="edge">
<title>Node1&#45;&gt;Node2</title>
<path fill="none" stroke="midnightblue" d="M163.21,-77.69C178.39,-79.79 194.2,-81.98 209.21,-84.06"/>
<polygon fill="midnightblue" stroke="midnightblue" points="209.06,-87.58 219.45,-85.48 210.02,-80.64 209.06,-87.58"/>
</g>
<!-- Node3 -->
<g id="node3" class="node">
<title>Node3</title>
<g id="a_node3"><a xlink:href="classsignal__easel_1_1aprs_1_1Demodulator.html#af7459f32656249c73e0b957dfe13bf2f" target="_top" xlink:title=" ">
<polygon fill="none" stroke="black" points="199,-19 199,-60 372,-60 372,-19 199,-19"/>
<text text-anchor="start" x="207" y="-48" font-family="Helvetica,sans-Serif" font-size="10.00">signal_easel::aprs</text>
<text text-anchor="start" x="207" y="-37" font-family="Helvetica,sans-Serif" font-size="10.00">::Demodulator::populateGeneric</text>
<text text-anchor="middle" x="285.5" y="-26" font-family="Helvetica,sans-Serif" font-size="10.00">Fields</text>
</a>
</g>
</g>
<!-- Node1&#45;&gt;Node3 -->
<g id="edge2" class="edge">
<title>Node1&#45;&gt;Node3</title>
<path fill="none" stroke="midnightblue" d="M163.21,-55.71C171.66,-54.58 180.31,-53.43 188.9,-52.28"/>
<polygon fill="midnightblue" stroke="midnightblue" points="189.51,-55.73 198.96,-50.93 188.58,-48.79 189.51,-55.73"/>
</g>
<!-- Node4 -->
<g id="node4" class="node">
<title>Node4</title>
<g id="a_node4"><a xlink:href="classsignal__easel_1_1ax25_1_1Frame.html#a84c80d41e67e5091d2a77553f3941d5f" target="_top" xlink:title=" ">
<polygon fill="none" stroke="black" points="408,-49.5 408,-79.5 578,-79.5 578,-49.5 408,-49.5"/>
<text text-anchor="start" x="416" y="-67.5" font-family="Helvetica,sans-Serif" font-size="10.00">signal_easel::ax25</text>
<text text-anchor="middle" x="493" y="-56.5" font-family="Helvetica,sans-Serif" font-size="10.00">::Frame::getDestinationAddress</text>
</a>
</g>
</g>
<!-- Node3&#45;&gt;Node4 -->
<g id="edge3" class="edge">
<title>Node3&#45;&gt;Node4</title>
<path fill="none" stroke="midnightblue" d="M372.16,-49.92C380.63,-50.95 389.26,-52 397.81,-53.04"/>
<polygon fill="midnightblue" stroke="midnightblue" points="397.45,-56.52 407.8,-54.26 398.29,-49.57 397.45,-56.52"/>
</g>
<!-- Node5 -->
<g id="node5" class="node">
<title>Node5</title>
<g id="a_node5"><a xlink:href="classsignal__easel_1_1ax25_1_1Frame.html#af84ab589067667886d9e54abe213109c" target="_top" xlink:title=" ">
<polygon fill="none" stroke="black" points="419.5,-0.5 419.5,-30.5 566.5,-30.5 566.5,-0.5 419.5,-0.5"/>
<text text-anchor="start" x="427.5" y="-18.5" font-family="Helvetica,sans-Serif" font-size="10.00">signal_easel::ax25</text>
<text text-anchor="middle" x="493" y="-7.5" font-family="Helvetica,sans-Serif" font-size="10.00">::Frame::getSourceAddress</text>
</a>
</g>
</g>
<!-- Node3&#45;&gt;Node5 -->
<g id="edge4" class="edge">
<title>Node3&#45;&gt;Node5</title>
<path fill="none" stroke="midnightblue" d="M372.16,-29.5C384.38,-28.07 396.93,-26.6 409.09,-25.18"/>
<polygon fill="midnightblue" stroke="midnightblue" points="409.68,-28.64 419.2,-24 408.87,-21.69 409.68,-28.64"/>
</g>
</g>
</svg>
