<?xml version="1.0" encoding="UTF-8" standalone="no"?>
<!DOCTYPE svg PUBLIC "-//W3C//DTD SVG 1.1//EN"
 "http://www.w3.org/Graphics/SVG/1.1/DTD/svg11.dtd">
<!-- Generated by graphviz version 2.43.0 (0)
 -->
<!-- Title: signal_easel::aprs::telemetry::TelemetryData Pages: 1 -->
<svg width="712pt" height="391pt"
 viewBox="0.00 0.00 711.50 391.00" xmlns="http://www.w3.org/2000/svg" xmlns:xlink="http://www.w3.org/1999/xlink">
<g id="graph0" class="graph" transform="scale(1 1) rotate(0) translate(4 387)">
<title>signal_easel::aprs::telemetry::TelemetryData</title>
<!-- Node1 -->
<g id="node1" class="node">
<title>Node1</title>
<g id="a_node1"><a xlink:title="A container for telemetry data. Contains all of the components of APRS telemetry messages.">
<polygon fill="#bfbfbf" stroke="black" points="211.5,-0.5 211.5,-178.5 379.5,-178.5 379.5,-0.5 211.5,-0.5"/>
<text text-anchor="start" x="219.5" y="-166.5" font-family="Helvetica,sans-Serif" font-size="10.00">signal_easel::aprs</text>
<text text-anchor="middle" x="295.5" y="-155.5" font-family="Helvetica,sans-Serif" font-size="10.00">::telemetry::TelemetryData</text>
<polyline fill="none" stroke="black" points="211.5,-148.5 379.5,-148.5 "/>
<text text-anchor="middle" x="295.5" y="-136.5" font-family="Helvetica,sans-Serif" font-size="10.00"> </text>
<polyline fill="none" stroke="black" points="211.5,-129.5 379.5,-129.5 "/>
<text text-anchor="start" x="219.5" y="-117.5" font-family="Helvetica,sans-Serif" font-size="10.00">+ TelemetryData()</text>
<text text-anchor="start" x="219.5" y="-106.5" font-family="Helvetica,sans-Serif" font-size="10.00">+ ~TelemetryData()</text>
<text text-anchor="start" x="219.5" y="-95.5" font-family="Helvetica,sans-Serif" font-size="10.00">+ getAnalog()</text>
<text text-anchor="start" x="219.5" y="-84.5" font-family="Helvetica,sans-Serif" font-size="10.00">+ getAnalogParameters()</text>
<text text-anchor="start" x="219.5" y="-73.5" font-family="Helvetica,sans-Serif" font-size="10.00">+ getAnalogParametersConst()</text>
<text text-anchor="start" x="219.5" y="-62.5" font-family="Helvetica,sans-Serif" font-size="10.00">+ getComment()</text>
<text text-anchor="start" x="219.5" y="-51.5" font-family="Helvetica,sans-Serif" font-size="10.00">+ getDigital()</text>
<text text-anchor="start" x="219.5" y="-40.5" font-family="Helvetica,sans-Serif" font-size="10.00">+ getDigitalParameters()</text>
<text text-anchor="start" x="219.5" y="-29.5" font-family="Helvetica,sans-Serif" font-size="10.00">+ getDigitalParametersConst()</text>
<text text-anchor="start" x="219.5" y="-18.5" font-family="Helvetica,sans-Serif" font-size="10.00">+ getProjectTitle()</text>
<text text-anchor="start" x="219.5" y="-7.5" font-family="Helvetica,sans-Serif" font-size="10.00">and 8 more...</text>
</a>
</g>
</g>
<!-- Node2 -->
<g id="node2" class="node">
<title>Node2</title>
<g id="a_node2"><a xlink:title=" ">
<polygon fill="none" stroke="black" points="0,-314.5 0,-371.5 45,-371.5 45,-314.5 0,-314.5"/>
<text text-anchor="middle" x="22.5" y="-359.5" font-family="Helvetica,sans-Serif" font-size="10.00">size_t</text>
<polyline fill="none" stroke="black" points="0,-352.5 45,-352.5 "/>
<text text-anchor="middle" x="22.5" y="-340.5" font-family="Helvetica,sans-Serif" font-size="10.00"> </text>
<polyline fill="none" stroke="black" points="0,-333.5 45,-333.5 "/>
<text text-anchor="middle" x="22.5" y="-321.5" font-family="Helvetica,sans-Serif" font-size="10.00"> </text>
</a>
</g>
</g>
<!-- Node2&#45;&gt;Node1 -->
<g id="edge1" class="edge">
<title>Node2&#45;&gt;Node1</title>
<path fill="none" stroke="#404040" d="M17.11,-314.49C12.57,-282.94 10.29,-231.17 35.5,-197 73.9,-144.97 142.25,-118.26 199.24,-104.61"/>
<polygon fill="none" stroke="#404040" points="199.51,-104.55 204.47,-99.32 211.21,-101.89 206.25,-107.12 199.51,-104.55"/>
<text text-anchor="start" x="35.5" y="-277" font-family="Helvetica,sans-Serif" font-size="10.00"> +COMMENT_MAX_LENGTH</text>
<text text-anchor="middle" x="103.5" y="-266" font-family="Helvetica,sans-Serif" font-size="10.00">_</text>
<text text-anchor="start" x="35.5" y="-255" font-family="Helvetica,sans-Serif" font-size="10.00">+PROJECT_TITLE</text>
<text text-anchor="middle" x="103.5" y="-244" font-family="Helvetica,sans-Serif" font-size="10.00">_MAX_LENGTH_</text>
<text text-anchor="start" x="35.5" y="-233" font-family="Helvetica,sans-Serif" font-size="10.00">+SEQUENCE_NUMBER</text>
<text text-anchor="middle" x="103.5" y="-222" font-family="Helvetica,sans-Serif" font-size="10.00">_MAX_</text>
<text text-anchor="start" x="35.5" y="-211" font-family="Helvetica,sans-Serif" font-size="10.00">+TELEMETRY_STATION</text>
<text text-anchor="middle" x="103.5" y="-200" font-family="Helvetica,sans-Serif" font-size="10.00">_ADDRESS_MAX_LENGTH_</text>
</g>
<!-- Node3 -->
<g id="node3" class="node">
<title>Node3</title>
<g id="a_node3"><a xlink:title=" ">
<polygon fill="none" stroke="black" points="159.5,-314.5 159.5,-371.5 203.5,-371.5 203.5,-314.5 159.5,-314.5"/>
<text text-anchor="middle" x="181.5" y="-359.5" font-family="Helvetica,sans-Serif" font-size="10.00">string</text>
<polyline fill="none" stroke="black" points="159.5,-352.5 203.5,-352.5 "/>
<text text-anchor="middle" x="181.5" y="-340.5" font-family="Helvetica,sans-Serif" font-size="10.00"> </text>
<polyline fill="none" stroke="black" points="159.5,-333.5 203.5,-333.5 "/>
<text text-anchor="middle" x="181.5" y="-321.5" font-family="Helvetica,sans-Serif" font-size="10.00"> </text>
</a>
</g>
</g>
<!-- Node3&#45;&gt;Node1 -->
<g id="edge2" class="edge">
<title>Node3&#45;&gt;Node1</title>
<path fill="none" stroke="#404040" d="M177.67,-314.46C174.69,-284.25 173.52,-235 190.5,-197 194.22,-188.68 198.89,-180.63 204.19,-172.95"/>
<polygon fill="none" stroke="#404040" points="204.36,-172.72 204.7,-165.51 211.49,-163.06 211.14,-170.26 204.36,-172.72"/>
<text text-anchor="middle" x="236" y="-255" font-family="Helvetica,sans-Serif" font-size="10.00"> &#45;comment_</text>
<text text-anchor="middle" x="236" y="-244" font-family="Helvetica,sans-Serif" font-size="10.00">&#45;project_title_</text>
<text text-anchor="start" x="190.5" y="-233" font-family="Helvetica,sans-Serif" font-size="10.00">&#45;telemetry_station</text>
<text text-anchor="middle" x="236" y="-222" font-family="Helvetica,sans-Serif" font-size="10.00">_address_</text>
</g>
<!-- Node4 -->
<g id="node4" class="node">
<title>Node4</title>
<g id="a_node4"><a xlink:title=" ">
<polygon fill="none" stroke="black" points="254.5,-314.5 254.5,-371.5 310.5,-371.5 310.5,-314.5 254.5,-314.5"/>
<text text-anchor="middle" x="282.5" y="-359.5" font-family="Helvetica,sans-Serif" font-size="10.00">uint16_t</text>
<polyline fill="none" stroke="black" points="254.5,-352.5 310.5,-352.5 "/>
<text text-anchor="middle" x="282.5" y="-340.5" font-family="Helvetica,sans-Serif" font-size="10.00"> </text>
<polyline fill="none" stroke="black" points="254.5,-333.5 310.5,-333.5 "/>
<text text-anchor="middle" x="282.5" y="-321.5" font-family="Helvetica,sans-Serif" font-size="10.00"> </text>
</a>
</g>
</g>
<!-- Node4&#45;&gt;Node1 -->
<g id="edge3" class="edge">
<title>Node4&#45;&gt;Node1</title>
<path fill="none" stroke="#404040" d="M283.94,-314.12C285.48,-284.31 288.02,-235.28 290.32,-190.72"/>
<polygon fill="none" stroke="#404040" points="290.33,-190.58 286.64,-184.38 290.95,-178.6 294.63,-184.79 290.33,-190.58"/>
<text text-anchor="middle" x="340.5" y="-238.5" font-family="Helvetica,sans-Serif" font-size="10.00"> &#45;sequence_number_</text>
</g>
<!-- Node5 -->
<g id="node5" class="node">
<title>Node5</title>
<g id="a_node5"><a xlink:title=" ">
<polygon fill="none" stroke="black" points="328.5,-309 328.5,-377 538.5,-377 538.5,-309 328.5,-309"/>
<text text-anchor="start" x="336.5" y="-365" font-family="Helvetica,sans-Serif" font-size="10.00">array&lt; signal_easel</text>
<text text-anchor="middle" x="433.5" y="-354" font-family="Helvetica,sans-Serif" font-size="10.00">::aprs::telemetry::AnalogParameter, 5 &gt;</text>
<polyline fill="none" stroke="black" points="328.5,-347 538.5,-347 "/>
<text text-anchor="middle" x="433.5" y="-335" font-family="Helvetica,sans-Serif" font-size="10.00"> </text>
<polyline fill="none" stroke="black" points="328.5,-328 538.5,-328 "/>
<text text-anchor="middle" x="433.5" y="-316" font-family="Helvetica,sans-Serif" font-size="10.00"> </text>
</a>
</g>
</g>
<!-- Node5&#45;&gt;Node1 -->
<g id="edge4" class="edge">
<title>Node5&#45;&gt;Node1</title>
<path fill="none" stroke="#404040" d="M429.58,-308.88C424.9,-278.3 415.08,-232.41 395.5,-197 392.84,-192.19 389.91,-187.43 386.78,-182.74"/>
<polygon fill="none" stroke="#404040" points="386.56,-182.42 379.83,-179.83 379.63,-172.62 386.36,-175.22 386.56,-182.42"/>
<text text-anchor="middle" x="478" y="-238.5" font-family="Helvetica,sans-Serif" font-size="10.00"> &#45;analog_parameters_</text>
</g>
<!-- Node6 -->
<g id="node6" class="node">
<title>Node6</title>
<g id="a_node6"><a xlink:title=" ">
<polygon fill="none" stroke="black" points="557,-303.5 557,-382.5 692,-382.5 692,-303.5 557,-303.5"/>
<text text-anchor="start" x="565" y="-370.5" font-family="Helvetica,sans-Serif" font-size="10.00">array&lt; signal_easel</text>
<text text-anchor="start" x="565" y="-359.5" font-family="Helvetica,sans-Serif" font-size="10.00">::aprs::telemetry::Digital</text>
<text text-anchor="middle" x="624.5" y="-348.5" font-family="Helvetica,sans-Serif" font-size="10.00">Parameter, 8 &gt;</text>
<polyline fill="none" stroke="black" points="557,-341.5 692,-341.5 "/>
<text text-anchor="middle" x="624.5" y="-329.5" font-family="Helvetica,sans-Serif" font-size="10.00"> </text>
<polyline fill="none" stroke="black" points="557,-322.5 692,-322.5 "/>
<text text-anchor="middle" x="624.5" y="-310.5" font-family="Helvetica,sans-Serif" font-size="10.00"> </text>
</a>
</g>
</g>
<!-- Node6&#45;&gt;Node1 -->
<g id="edge5" class="edge">
<title>Node6&#45;&gt;Node1</title>
<path fill="none" stroke="#404040" d="M608.66,-303.34C593.83,-271.25 568.95,-226.28 535.5,-197 494.15,-160.8 438.51,-135.08 391.23,-117.99"/>
<polygon fill="none" stroke="#404040" points="391.03,-117.93 384.04,-119.71 379.71,-113.94 386.7,-112.16 391.03,-117.93"/>
<text text-anchor="middle" x="651" y="-238.5" font-family="Helvetica,sans-Serif" font-size="10.00"> &#45;digital_parameters_</text>
</g>
</g>
</svg>
