<?xml version="1.0" encoding="UTF-8" standalone="no"?>
<!DOCTYPE svg PUBLIC "-//W3C//DTD SVG 1.1//EN"
 "http://www.w3.org/Graphics/SVG/1.1/DTD/svg11.dtd">
<!-- Generated by graphviz version 2.43.0 (0)
 -->
<!-- Title: signal_easel::aprs::FakePulseAudioReader Pages: 1 -->
<svg width="337pt" height="215pt"
 viewBox="0.00 0.00 336.50 215.00" xmlns="http://www.w3.org/2000/svg" xmlns:xlink="http://www.w3.org/1999/xlink">
<g id="graph0" class="graph" transform="scale(1 1) rotate(0) translate(4 211)">
<title>signal_easel::aprs::FakePulseAudioReader</title>
<!-- Node1 -->
<g id="node1" class="node">
<title>Node1</title>
<g id="a_node1"><a xlink:title="Fake PulseAudioReader that reads from a WAV file in chunks.">
<polygon fill="#bfbfbf" stroke="black" points="73,-0.5 73,-90.5 219,-90.5 219,-0.5 73,-0.5"/>
<text text-anchor="start" x="81" y="-78.5" font-family="Helvetica,sans-Serif" font-size="10.00">signal_easel::aprs</text>
<text text-anchor="middle" x="146" y="-67.5" font-family="Helvetica,sans-Serif" font-size="10.00">::FakePulseAudioReader</text>
<polyline fill="none" stroke="black" points="73,-60.5 219,-60.5 "/>
<text text-anchor="middle" x="146" y="-48.5" font-family="Helvetica,sans-Serif" font-size="10.00"> </text>
<polyline fill="none" stroke="black" points="73,-41.5 219,-41.5 "/>
<text text-anchor="start" x="81" y="-29.5" font-family="Helvetica,sans-Serif" font-size="10.00">+ FakePulseAudioReader()</text>
<text text-anchor="start" x="81" y="-18.5" font-family="Helvetica,sans-Serif" font-size="10.00">+ getAudioBuffer()</text>
<text text-anchor="start" x="81" y="-7.5" font-family="Helvetica,sans-Serif" font-size="10.00">+ process()</text>
</a>
</g>
</g>
<!-- Node2 -->
<g id="node2" class="node">
<title>Node2</title>
<g id="a_node2"><a xlink:title=" ">
<polygon fill="none" stroke="black" points="0,-144 0,-201 104,-201 104,-144 0,-144"/>
<text text-anchor="middle" x="52" y="-189" font-family="Helvetica,sans-Serif" font-size="10.00">vector&lt; int16_t &gt;</text>
<polyline fill="none" stroke="black" points="0,-182 104,-182 "/>
<text text-anchor="middle" x="52" y="-170" font-family="Helvetica,sans-Serif" font-size="10.00"> </text>
<polyline fill="none" stroke="black" points="0,-163 104,-163 "/>
<text text-anchor="middle" x="52" y="-151" font-family="Helvetica,sans-Serif" font-size="10.00"> </text>
</a>
</g>
</g>
<!-- Node2&#45;&gt;Node1 -->
<g id="edge1" class="edge">
<title>Node2&#45;&gt;Node1</title>
<path fill="none" stroke="#404040" d="M56.76,-143.85C59.63,-132.4 64.11,-119.4 71,-109 73.15,-105.75 75.53,-102.58 78.06,-99.5"/>
<polygon fill="none" stroke="#404040" points="78.08,-99.48 79.11,-92.35 86.09,-90.55 85.06,-97.69 78.08,-99.48"/>
<text text-anchor="middle" x="106.5" y="-112" font-family="Helvetica,sans-Serif" font-size="10.00"> &#45;all_samples_</text>
</g>
<!-- Node3 -->
<g id="node3" class="node">
<title>Node3</title>
<g id="a_node3"><a xlink:title=" ">
<polygon fill="none" stroke="black" points="123.5,-144 123.5,-201 168.5,-201 168.5,-144 123.5,-144"/>
<text text-anchor="middle" x="146" y="-189" font-family="Helvetica,sans-Serif" font-size="10.00">size_t</text>
<polyline fill="none" stroke="black" points="123.5,-182 168.5,-182 "/>
<text text-anchor="middle" x="146" y="-170" font-family="Helvetica,sans-Serif" font-size="10.00"> </text>
<polyline fill="none" stroke="black" points="123.5,-163 168.5,-163 "/>
<text text-anchor="middle" x="146" y="-151" font-family="Helvetica,sans-Serif" font-size="10.00"> </text>
</a>
</g>
</g>
<!-- Node3&#45;&gt;Node1 -->
<g id="edge2" class="edge">
<title>Node3&#45;&gt;Node1</title>
<path fill="none" stroke="#404040" d="M146,-143.76C146,-131.74 146,-117.21 146,-103.09"/>
<polygon fill="none" stroke="#404040" points="146,-102.86 142,-96.86 146,-90.86 150,-96.86 146,-102.86"/>
<text text-anchor="middle" x="191.5" y="-112" font-family="Helvetica,sans-Serif" font-size="10.00"> &#45;current_position_</text>
</g>
<!-- Node4 -->
<g id="node4" class="node">
<title>Node4</title>
<g id="a_node4"><a xlink:title=" ">
<polygon fill="none" stroke="black" points="191.5,-138.5 191.5,-206.5 328.5,-206.5 328.5,-138.5 191.5,-138.5"/>
<text text-anchor="start" x="199.5" y="-194.5" font-family="Helvetica,sans-Serif" font-size="10.00">array&lt; int16_t, PULSE</text>
<text text-anchor="middle" x="260" y="-183.5" font-family="Helvetica,sans-Serif" font-size="10.00">_AUDIO_BUFFER_SIZE &gt;</text>
<polyline fill="none" stroke="black" points="191.5,-176.5 328.5,-176.5 "/>
<text text-anchor="middle" x="260" y="-164.5" font-family="Helvetica,sans-Serif" font-size="10.00"> </text>
<polyline fill="none" stroke="black" points="191.5,-157.5 328.5,-157.5 "/>
<text text-anchor="middle" x="260" y="-145.5" font-family="Helvetica,sans-Serif" font-size="10.00"> </text>
</a>
</g>
</g>
<!-- Node4&#45;&gt;Node1 -->
<g id="edge3" class="edge">
<title>Node4&#45;&gt;Node1</title>
<path fill="none" stroke="#404040" d="M252.65,-138.38C249.32,-128.27 244.6,-117.57 238,-109 235.04,-105.15 231.77,-101.46 228.28,-97.92"/>
<polygon fill="none" stroke="#404040" points="227.99,-97.65 220.87,-96.48 219.22,-89.46 226.33,-90.63 227.99,-97.65"/>
<text text-anchor="middle" x="280.5" y="-112" font-family="Helvetica,sans-Serif" font-size="10.00"> &#45;audio_buffer_</text>
</g>
</g>
</svg>
