<?xml version="1.0" encoding="UTF-8" standalone="no"?>
<!DOCTYPE svg PUBLIC "-//W3C//DTD SVG 1.1//EN"
 "http://www.w3.org/Graphics/SVG/1.1/DTD/svg11.dtd">
<!-- Generated by graphviz version 2.43.0 (0)
 -->
<!-- Title: signal_easel::Receiver Pages: 1 -->
<svg width="432pt" height="353pt"
 viewBox="0.00 0.00 432.00 353.00" xmlns="http://www.w3.org/2000/svg" xmlns:xlink="http://www.w3.org/1999/xlink">
<g id="graph0" class="graph" transform="scale(1 1) rotate(0) translate(4 349)">
<title>signal_easel::Receiver</title>
<!-- Node1 -->
<g id="node1" class="node">
<title>Node1</title>
<g id="a_node1"><a xlink:title=" ">
<polygon fill="#bfbfbf" stroke="black" points="81,-0.5 81,-101.5 207,-101.5 207,-0.5 81,-0.5"/>
<text text-anchor="middle" x="144" y="-89.5" font-family="Helvetica,sans-Serif" font-size="10.00">signal_easel::Receiver</text>
<polyline fill="none" stroke="black" points="81,-82.5 207,-82.5 "/>
<text text-anchor="middle" x="144" y="-70.5" font-family="Helvetica,sans-Serif" font-size="10.00"> </text>
<polyline fill="none" stroke="black" points="81,-63.5 207,-63.5 "/>
<text text-anchor="start" x="89" y="-51.5" font-family="Helvetica,sans-Serif" font-size="10.00">+ Receiver()</text>
<text text-anchor="start" x="89" y="-40.5" font-family="Helvetica,sans-Serif" font-size="10.00">+ ~Receiver()</text>
<text text-anchor="start" x="89" y="-29.5" font-family="Helvetica,sans-Serif" font-size="10.00">+ getLatency()</text>
<text text-anchor="start" x="89" y="-18.5" font-family="Helvetica,sans-Serif" font-size="10.00">+ getVolume()</text>
<text text-anchor="start" x="89" y="-7.5" font-family="Helvetica,sans-Serif" font-size="10.00">+ process()</text>
</a>
</g>
</g>
<!-- Node2 -->
<g id="node2" class="node">
<title>Node2</title>
<g id="a_node2"><a xlink:title=" ">
<polygon fill="none" stroke="black" points="0,-149.5 0,-217.5 154,-217.5 154,-149.5 0,-149.5"/>
<text text-anchor="start" x="8" y="-205.5" font-family="Helvetica,sans-Serif" font-size="10.00">unique_ptr&lt; signal</text>
<text text-anchor="middle" x="77" y="-194.5" font-family="Helvetica,sans-Serif" font-size="10.00">_easel::PulseAudioReader &gt;</text>
<polyline fill="none" stroke="black" points="0,-187.5 154,-187.5 "/>
<text text-anchor="middle" x="77" y="-175.5" font-family="Helvetica,sans-Serif" font-size="10.00"> </text>
<polyline fill="none" stroke="black" points="0,-168.5 154,-168.5 "/>
<text text-anchor="middle" x="77" y="-156.5" font-family="Helvetica,sans-Serif" font-size="10.00"> </text>
</a>
</g>
</g>
<!-- Node2&#45;&gt;Node1 -->
<g id="edge1" class="edge">
<title>Node2&#45;&gt;Node1</title>
<path fill="none" stroke="#404040" d="M80.25,-149.44C82.02,-139.65 84.76,-129.12 89,-120 90.21,-117.39 91.55,-114.79 92.99,-112.21"/>
<polygon fill="none" stroke="#404040" points="93.09,-112.04 92.82,-104.83 99.37,-101.81 99.64,-109.01 93.09,-112.04"/>
<text text-anchor="middle" x="145" y="-123" font-family="Helvetica,sans-Serif" font-size="10.00"> #pulse_audio_reader_</text>
</g>
<!-- Node3 -->
<g id="node3" class="node">
<title>Node3</title>
<g id="a_node3"><a xlink:href="structsignal__easel_1_1Settings.html" target="_top" xlink:title="The universal settings for MWAV.">
<polygon fill="none" stroke="black" points="172.5,-155 172.5,-212 295.5,-212 295.5,-155 172.5,-155"/>
<text text-anchor="middle" x="234" y="-200" font-family="Helvetica,sans-Serif" font-size="10.00">signal_easel::Settings</text>
<polyline fill="none" stroke="black" points="172.5,-193 295.5,-193 "/>
<text text-anchor="middle" x="234" y="-181" font-family="Helvetica,sans-Serif" font-size="10.00"> </text>
<polyline fill="none" stroke="black" points="172.5,-174 295.5,-174 "/>
<text text-anchor="middle" x="234" y="-162" font-family="Helvetica,sans-Serif" font-size="10.00"> </text>
</a>
</g>
</g>
<!-- Node3&#45;&gt;Node1 -->
<g id="edge2" class="edge">
<title>Node3&#45;&gt;Node1</title>
<path fill="none" stroke="#404040" d="M220.92,-154.7C215.29,-143.6 208.32,-130.9 201,-120 199.07,-117.12 197.03,-114.23 194.93,-111.34"/>
<polygon fill="none" stroke="#404040" points="194.79,-111.15 187.99,-108.77 187.57,-101.57 194.38,-103.95 194.79,-111.15"/>
<text text-anchor="middle" x="235" y="-123" font-family="Helvetica,sans-Serif" font-size="10.00"> #settings_</text>
</g>
<!-- Node4 -->
<g id="node4" class="node">
<title>Node4</title>
<g id="a_node4"><a xlink:title=" ">
<polygon fill="none" stroke="black" points="130,-287.5 130,-344.5 174,-344.5 174,-287.5 130,-287.5"/>
<text text-anchor="middle" x="152" y="-332.5" font-family="Helvetica,sans-Serif" font-size="10.00">string</text>
<polyline fill="none" stroke="black" points="130,-325.5 174,-325.5 "/>
<text text-anchor="middle" x="152" y="-313.5" font-family="Helvetica,sans-Serif" font-size="10.00"> </text>
<polyline fill="none" stroke="black" points="130,-306.5 174,-306.5 "/>
<text text-anchor="middle" x="152" y="-294.5" font-family="Helvetica,sans-Serif" font-size="10.00"> </text>
</a>
</g>
</g>
<!-- Node4&#45;&gt;Node3 -->
<g id="edge3" class="edge">
<title>Node4&#45;&gt;Node3</title>
<path fill="none" stroke="#404040" d="M156.04,-287.43C159.32,-271.47 165.08,-251.53 175,-236 178.39,-230.69 182.48,-225.62 186.91,-220.87"/>
<polygon fill="none" stroke="#404040" points="187.21,-220.58 188.68,-213.52 195.76,-212.16 194.29,-219.22 187.21,-220.58"/>
<text text-anchor="middle" x="202.5" y="-250" font-family="Helvetica,sans-Serif" font-size="10.00"> +call_sign</text>
</g>
<!-- Node5 -->
<g id="node5" class="node">
<title>Node5</title>
<g id="a_node5"><a xlink:title=" ">
<polygon fill="none" stroke="black" points="192.5,-287.5 192.5,-344.5 275.5,-344.5 275.5,-287.5 192.5,-287.5"/>
<text text-anchor="middle" x="234" y="-332.5" font-family="Helvetica,sans-Serif" font-size="10.00">CallSignMode</text>
<polyline fill="none" stroke="black" points="192.5,-325.5 275.5,-325.5 "/>
<text text-anchor="middle" x="234" y="-313.5" font-family="Helvetica,sans-Serif" font-size="10.00"> </text>
<polyline fill="none" stroke="black" points="192.5,-306.5 275.5,-306.5 "/>
<text text-anchor="middle" x="234" y="-294.5" font-family="Helvetica,sans-Serif" font-size="10.00"> </text>
</a>
</g>
</g>
<!-- Node5&#45;&gt;Node3 -->
<g id="edge4" class="edge">
<title>Node5&#45;&gt;Node3</title>
<path fill="none" stroke="#404040" d="M234,-287.32C234,-268.98 234,-244.64 234,-224.24"/>
<polygon fill="none" stroke="#404040" points="234,-224.14 230,-218.14 234,-212.14 238,-218.14 234,-224.14"/>
<text text-anchor="middle" x="278" y="-250" font-family="Helvetica,sans-Serif" font-size="10.00"> +call_sign_mode</text>
</g>
<!-- Node6 -->
<g id="node6" class="node">
<title>Node6</title>
<g id="a_node6"><a xlink:title=" ">
<polygon fill="none" stroke="black" points="320,-287.5 320,-344.5 370,-344.5 370,-287.5 320,-287.5"/>
<text text-anchor="middle" x="345" y="-332.5" font-family="Helvetica,sans-Serif" font-size="10.00">double</text>
<polyline fill="none" stroke="black" points="320,-325.5 370,-325.5 "/>
<text text-anchor="middle" x="345" y="-313.5" font-family="Helvetica,sans-Serif" font-size="10.00"> </text>
<polyline fill="none" stroke="black" points="320,-306.5 370,-306.5 "/>
<text text-anchor="middle" x="345" y="-294.5" font-family="Helvetica,sans-Serif" font-size="10.00"> </text>
</a>
</g>
</g>
<!-- Node6&#45;&gt;Node3 -->
<g id="edge5" class="edge">
<title>Node6&#45;&gt;Node3</title>
<path fill="none" stroke="#404040" d="M342.55,-287.44C339.91,-271.09 334.42,-250.75 323,-236 318.08,-229.65 312.14,-223.93 305.69,-218.84"/>
<polygon fill="none" stroke="#404040" points="305.66,-218.82 298.46,-218.55 295.93,-211.8 303.13,-212.06 305.66,-218.82"/>
<text text-anchor="middle" x="381" y="-261" font-family="Helvetica,sans-Serif" font-size="10.00"> +amplitude</text>
<text text-anchor="start" x="338" y="-250" font-family="Helvetica,sans-Serif" font-size="10.00">+call_sign_pause</text>
<text text-anchor="middle" x="381" y="-239" font-family="Helvetica,sans-Serif" font-size="10.00">_seconds</text>
</g>
</g>
</svg>
