<?xml version="1.0" encoding="UTF-8" standalone="no"?>
<!DOCTYPE svg PUBLIC "-//W3C//DTD SVG 1.1//EN"
 "http://www.w3.org/Graphics/SVG/1.1/DTD/svg11.dtd">
<!-- Generated by graphviz version 2.43.0 (0)
 -->
<!-- Title: signal_easel::sstv::Modulator::encodeScanLine Pages: 1 -->
<svg width="671pt" height="88pt"
 viewBox="0.00 0.00 671.00 88.00" xmlns="http://www.w3.org/2000/svg" xmlns:xlink="http://www.w3.org/1999/xlink">
<g id="graph0" class="graph" transform="scale(1 1) rotate(0) translate(4 84)">
<title>signal_easel::sstv::Modulator::encodeScanLine</title>
<!-- Node1 -->
<g id="node1" class="node">
<title>Node1</title>
<g id="a_node1"><a xlink:title=" ">
<polygon fill="#bfbfbf" stroke="black" points="0,-24.5 0,-54.5 157,-54.5 157,-24.5 0,-24.5"/>
<text text-anchor="start" x="8" y="-42.5" font-family="Helvetica,sans-Serif" font-size="10.00">signal_easel::sstv</text>
<text text-anchor="middle" x="78.5" y="-31.5" font-family="Helvetica,sans-Serif" font-size="10.00">::Modulator::encodeScanLine</text>
</a>
</g>
</g>
<!-- Node2 -->
<g id="node2" class="node">
<title>Node2</title>
<g id="a_node2"><a xlink:href="classsignal__easel_1_1sstv_1_1Modulator.html#a4925712af983bce311224cd51c4b9409" target="_top" xlink:title=" ">
<polygon fill="none" stroke="black" points="207,-49.5 207,-79.5 311,-79.5 311,-49.5 207,-49.5"/>
<text text-anchor="start" x="215" y="-67.5" font-family="Helvetica,sans-Serif" font-size="10.00">signal_easel::sstv</text>
<text text-anchor="middle" x="259" y="-56.5" font-family="Helvetica,sans-Serif" font-size="10.00">::Modulator::pulse</text>
</a>
</g>
</g>
<!-- Node1&#45;&gt;Node2 -->
<g id="edge1" class="edge">
<title>Node1&#45;&gt;Node2</title>
<path fill="none" stroke="midnightblue" d="M157.01,-50.36C170.3,-52.22 183.95,-54.13 196.73,-55.92"/>
<polygon fill="midnightblue" stroke="midnightblue" points="196.4,-59.41 206.79,-57.33 197.37,-52.47 196.4,-59.41"/>
</g>
<!-- Node5 -->
<g id="node5" class="node">
<title>Node5</title>
<g id="a_node5"><a xlink:href="classsignal__easel_1_1sstv_1_1Modulator.html#ac6c7141bc8b18abd7e08d8c201aadfb2" target="_top" xlink:title=" ">
<polygon fill="none" stroke="black" points="193,-0.5 193,-30.5 325,-30.5 325,-0.5 193,-0.5"/>
<text text-anchor="start" x="201" y="-18.5" font-family="Helvetica,sans-Serif" font-size="10.00">signal_easel::sstv</text>
<text text-anchor="middle" x="259" y="-7.5" font-family="Helvetica,sans-Serif" font-size="10.00">::Modulator::writeBuffer</text>
</a>
</g>
</g>
<!-- Node1&#45;&gt;Node5 -->
<g id="edge4" class="edge">
<title>Node1&#45;&gt;Node5</title>
<path fill="none" stroke="midnightblue" d="M157.01,-29.08C165.6,-27.92 174.34,-26.75 182.9,-25.6"/>
<polygon fill="midnightblue" stroke="midnightblue" points="183.4,-29.06 192.84,-24.26 182.46,-22.12 183.4,-29.06"/>
</g>
<!-- Node3 -->
<g id="node3" class="node">
<title>Node3</title>
<g id="a_node3"><a xlink:href="classsignal__easel_1_1Modulator.html#a0fcce44b034c83731048ca17dc985f04" target="_top" xlink:title="Add a sine wave to the audio buffer.">
<polygon fill="none" stroke="black" points="361,-49.5 361,-79.5 494,-79.5 494,-49.5 361,-49.5"/>
<text text-anchor="start" x="369" y="-67.5" font-family="Helvetica,sans-Serif" font-size="10.00">signal_easel::Modulator</text>
<text text-anchor="middle" x="427.5" y="-56.5" font-family="Helvetica,sans-Serif" font-size="10.00">::addSineWave</text>
</a>
</g>
</g>
<!-- Node2&#45;&gt;Node3 -->
<g id="edge2" class="edge">
<title>Node2&#45;&gt;Node3</title>
<path fill="none" stroke="midnightblue" d="M311.31,-64.5C323.8,-64.5 337.42,-64.5 350.78,-64.5"/>
<polygon fill="midnightblue" stroke="midnightblue" points="350.92,-68 360.92,-64.5 350.92,-61 350.92,-68"/>
</g>
<!-- Node4 -->
<g id="node4" class="node">
<title>Node4</title>
<g id="a_node4"><a xlink:href="classsignal__easel_1_1Modulator.html#af99ee22156e320703891f0fda4df95e8" target="_top" xlink:title="Add a PCM sample to the audio buffer.">
<polygon fill="none" stroke="black" points="530,-49.5 530,-79.5 663,-79.5 663,-49.5 530,-49.5"/>
<text text-anchor="start" x="538" y="-67.5" font-family="Helvetica,sans-Serif" font-size="10.00">signal_easel::Modulator</text>
<text text-anchor="middle" x="596.5" y="-56.5" font-family="Helvetica,sans-Serif" font-size="10.00">::addAudioSample</text>
</a>
</g>
</g>
<!-- Node3&#45;&gt;Node4 -->
<g id="edge3" class="edge">
<title>Node3&#45;&gt;Node4</title>
<path fill="none" stroke="midnightblue" d="M494.02,-64.5C502.5,-64.5 511.23,-64.5 519.85,-64.5"/>
<polygon fill="midnightblue" stroke="midnightblue" points="519.89,-68 529.89,-64.5 519.89,-61 519.89,-68"/>
</g>
<!-- Node5&#45;&gt;Node3 -->
<g id="edge5" class="edge">
<title>Node5&#45;&gt;Node3</title>
<path fill="none" stroke="midnightblue" d="M311.31,-30.6C328.49,-35.66 347.8,-41.34 365.63,-46.58"/>
<polygon fill="midnightblue" stroke="midnightblue" points="364.77,-49.98 375.36,-49.45 366.75,-43.27 364.77,-49.98"/>
</g>
<!-- Node6 -->
<g id="node6" class="node">
<title>Node6</title>
<g id="a_node6"><a xlink:href="namespacesignal__easel_1_1sstv.html#ab81e87d4063acb6dd548de487c8d07b3" target="_top" xlink:title=" ">
<polygon fill="none" stroke="black" points="375.5,-0.5 375.5,-30.5 479.5,-30.5 479.5,-0.5 375.5,-0.5"/>
<text text-anchor="start" x="383.5" y="-18.5" font-family="Helvetica,sans-Serif" font-size="10.00">signal_easel::sstv</text>
<text text-anchor="middle" x="427.5" y="-7.5" font-family="Helvetica,sans-Serif" font-size="10.00">::ColorToFreq</text>
</a>
</g>
</g>
<!-- Node5&#45;&gt;Node6 -->
<g id="edge6" class="edge">
<title>Node5&#45;&gt;Node6</title>
<path fill="none" stroke="midnightblue" d="M325.33,-15.5C338.41,-15.5 352.11,-15.5 365.06,-15.5"/>
<polygon fill="midnightblue" stroke="midnightblue" points="365.26,-19 375.26,-15.5 365.26,-12 365.26,-19"/>
</g>
</g>
</svg>
