<?xml version="1.0" encoding="UTF-8" standalone="no"?>
<!DOCTYPE svg PUBLIC "-//W3C//DTD SVG 1.1//EN"
 "http://www.w3.org/Graphics/SVG/1.1/DTD/svg11.dtd">
<!-- Generated by graphviz version 2.43.0 (0)
 -->
<!-- Title: signal_easel::aprs::telemetry::TelemetryTranscoder::decodeValidateHeader Pages: 1 -->
<svg width="1173pt" height="170pt"
 viewBox="0.00 0.00 1173.00 170.00" xmlns="http://www.w3.org/2000/svg" xmlns:xlink="http://www.w3.org/1999/xlink">
<g id="graph0" class="graph" transform="scale(1 1) rotate(0) translate(4 166)">
<title>signal_easel::aprs::telemetry::TelemetryTranscoder::decodeValidateHeader</title>
<!-- Node1 -->
<g id="node1" class="node">
<title>Node1</title>
<g id="a_node1"><a xlink:title="Validate the first few bytes of a message.">
<polygon fill="#bfbfbf" stroke="black" points="988,-60.5 988,-101.5 1165,-101.5 1165,-60.5 988,-60.5"/>
<text text-anchor="start" x="996" y="-89.5" font-family="Helvetica,sans-Serif" font-size="10.00">signal_easel::aprs</text>
<text text-anchor="start" x="996" y="-78.5" font-family="Helvetica,sans-Serif" font-size="10.00">::telemetry::TelemetryTranscoder</text>
<text text-anchor="middle" x="1076.5" y="-67.5" font-family="Helvetica,sans-Serif" font-size="10.00">::decodeValidateHeader</text>
</a>
</g>
</g>
<!-- Node2 -->
<g id="node2" class="node">
<title>Node2</title>
<g id="a_node2"><a xlink:href="classsignal__easel_1_1aprs_1_1telemetry_1_1TelemetryTranscoder.html#a3633b357cad1d35d2f59846a8ad66672" target="_top" xlink:title="Decode the bit sense / project name message.">
<polygon fill="none" stroke="black" points="761.5,-120.5 761.5,-161.5 938.5,-161.5 938.5,-120.5 761.5,-120.5"/>
<text text-anchor="start" x="769.5" y="-149.5" font-family="Helvetica,sans-Serif" font-size="10.00">signal_easel::aprs</text>
<text text-anchor="start" x="769.5" y="-138.5" font-family="Helvetica,sans-Serif" font-size="10.00">::telemetry::TelemetryTranscoder</text>
<text text-anchor="middle" x="850" y="-127.5" font-family="Helvetica,sans-Serif" font-size="10.00">::decodeBitSenseMessage</text>
</a>
</g>
</g>
<!-- Node1&#45;&gt;Node2 -->
<g id="edge1" class="edge">
<title>Node1&#45;&gt;Node2</title>
<path fill="none" stroke="midnightblue" d="M988.8,-104.17C968.71,-109.54 947.47,-115.22 927.85,-120.46"/>
<polygon fill="midnightblue" stroke="midnightblue" points="989.8,-107.53 998.55,-101.56 987.99,-100.77 989.8,-107.53"/>
</g>
<!-- Node8 -->
<g id="node8" class="node">
<title>Node8</title>
<g id="a_node8"><a xlink:href="classsignal__easel_1_1aprs_1_1telemetry_1_1TelemetryTranscoder.html#a581c58aa360dc40ddcbc475b96b25942" target="_top" xlink:title="Decode the parameter coefficients message.">
<polygon fill="none" stroke="black" points="748,-60.5 748,-101.5 952,-101.5 952,-60.5 748,-60.5"/>
<text text-anchor="start" x="756" y="-89.5" font-family="Helvetica,sans-Serif" font-size="10.00">signal_easel::aprs</text>
<text text-anchor="start" x="756" y="-78.5" font-family="Helvetica,sans-Serif" font-size="10.00">::telemetry::TelemetryTranscoder</text>
<text text-anchor="middle" x="850" y="-67.5" font-family="Helvetica,sans-Serif" font-size="10.00">::decodeParameterCoefficientMessage</text>
</a>
</g>
</g>
<!-- Node1&#45;&gt;Node8 -->
<g id="edge7" class="edge">
<title>Node1&#45;&gt;Node8</title>
<path fill="none" stroke="midnightblue" d="M977.53,-81C969.1,-81 960.56,-81 952.11,-81"/>
<polygon fill="midnightblue" stroke="midnightblue" points="977.74,-84.5 987.74,-81 977.74,-77.5 977.74,-84.5"/>
</g>
<!-- Node9 -->
<g id="node9" class="node">
<title>Node9</title>
<g id="a_node9"><a xlink:href="classsignal__easel_1_1aprs_1_1telemetry_1_1TelemetryTranscoder.html#a74a84913b8e86de5b415616ecbd853b8" target="_top" xlink:title="Decode a name or unit/label message. They&#39;re the same format.">
<polygon fill="none" stroke="black" points="761.5,-0.5 761.5,-41.5 938.5,-41.5 938.5,-0.5 761.5,-0.5"/>
<text text-anchor="start" x="769.5" y="-29.5" font-family="Helvetica,sans-Serif" font-size="10.00">signal_easel::aprs</text>
<text text-anchor="start" x="769.5" y="-18.5" font-family="Helvetica,sans-Serif" font-size="10.00">::telemetry::TelemetryTranscoder</text>
<text text-anchor="middle" x="850" y="-7.5" font-family="Helvetica,sans-Serif" font-size="10.00">::decodeParameterDescriptor</text>
</a>
</g>
</g>
<!-- Node1&#45;&gt;Node9 -->
<g id="edge9" class="edge">
<title>Node1&#45;&gt;Node9</title>
<path fill="none" stroke="midnightblue" d="M988.8,-57.83C968.71,-52.46 947.47,-46.78 927.85,-41.54"/>
<polygon fill="midnightblue" stroke="midnightblue" points="987.99,-61.23 998.55,-60.44 989.8,-54.47 987.99,-61.23"/>
</g>
<!-- Node3 -->
<g id="node3" class="node">
<title>Node3</title>
<g id="a_node3"><a xlink:href="classsignal__easel_1_1aprs_1_1telemetry_1_1TelemetryTranscoder.html#a8728ebd6e5dbd7ca50a219fda62b7375" target="_top" xlink:title="Takes in the information field of an APRS telemetry message and decodes it with the appropriate metho...">
<polygon fill="none" stroke="black" points="535,-60.5 535,-101.5 712,-101.5 712,-60.5 535,-60.5"/>
<text text-anchor="start" x="543" y="-89.5" font-family="Helvetica,sans-Serif" font-size="10.00">signal_easel::aprs</text>
<text text-anchor="start" x="543" y="-78.5" font-family="Helvetica,sans-Serif" font-size="10.00">::telemetry::TelemetryTranscoder</text>
<text text-anchor="middle" x="623.5" y="-67.5" font-family="Helvetica,sans-Serif" font-size="10.00">::decodeMessage</text>
</a>
</g>
</g>
<!-- Node2&#45;&gt;Node3 -->
<g id="edge2" class="edge">
<title>Node2&#45;&gt;Node3</title>
<path fill="none" stroke="midnightblue" d="M762.3,-117.83C742.21,-112.46 720.97,-106.78 701.35,-101.54"/>
<polygon fill="midnightblue" stroke="midnightblue" points="761.49,-121.23 772.05,-120.44 763.3,-114.47 761.49,-121.23"/>
</g>
<!-- Node4 -->
<g id="node4" class="node">
<title>Node4</title>
<g id="a_node4"><a xlink:href="classsignal__easel_1_1aprs_1_1Demodulator.html#a97af61f7afb63db275020ba523abcc3a" target="_top" xlink:title="If the packet was a telemetry packet, this function will try to parse the packet and populate the tel...">
<polygon fill="none" stroke="black" points="331,-60.5 331,-101.5 499,-101.5 499,-60.5 331,-60.5"/>
<text text-anchor="start" x="339" y="-89.5" font-family="Helvetica,sans-Serif" font-size="10.00">signal_easel::aprs</text>
<text text-anchor="start" x="339" y="-78.5" font-family="Helvetica,sans-Serif" font-size="10.00">::Demodulator::parseTelemetry</text>
<text text-anchor="middle" x="415" y="-67.5" font-family="Helvetica,sans-Serif" font-size="10.00">Packet</text>
</a>
</g>
</g>
<!-- Node3&#45;&gt;Node4 -->
<g id="edge3" class="edge">
<title>Node3&#45;&gt;Node4</title>
<path fill="none" stroke="midnightblue" d="M524.86,-81C516.25,-81 507.58,-81 499.11,-81"/>
<polygon fill="midnightblue" stroke="midnightblue" points="524.93,-84.5 534.93,-81 524.93,-77.5 524.93,-84.5"/>
</g>
<!-- Node5 -->
<g id="node5" class="node">
<title>Node5</title>
<g id="a_node5"><a xlink:href="classsignal__easel_1_1aprs_1_1Receiver.html#adc3c303795edba521a1e55e454ba610d" target="_top" xlink:title="Categorises and stores a frame that has already been parsed by aprs_demodulator_ (i....">
<polygon fill="none" stroke="black" points="143,-85.5 143,-126.5 295,-126.5 295,-85.5 143,-85.5"/>
<text text-anchor="start" x="151" y="-114.5" font-family="Helvetica,sans-Serif" font-size="10.00">signal_easel::aprs</text>
<text text-anchor="start" x="151" y="-103.5" font-family="Helvetica,sans-Serif" font-size="10.00">::Receiver::processDecoded</text>
<text text-anchor="middle" x="219" y="-92.5" font-family="Helvetica,sans-Serif" font-size="10.00">Frame</text>
</a>
</g>
</g>
<!-- Node4&#45;&gt;Node5 -->
<g id="edge4" class="edge">
<title>Node4&#45;&gt;Node5</title>
<path fill="none" stroke="midnightblue" d="M320.85,-93C312.28,-94.11 303.67,-95.22 295.28,-96.3"/>
<polygon fill="midnightblue" stroke="midnightblue" points="321.41,-96.46 330.88,-91.71 320.52,-89.52 321.41,-96.46"/>
</g>
<!-- Node7 -->
<g id="node7" class="node">
<title>Node7</title>
<g id="a_node7"><a xlink:href="aprs__test_8cpp.html#a8de4b7853d7e8c5ad2bb05a656082327" target="_top" xlink:title=" ">
<polygon fill="none" stroke="black" points="198.5,-47.5 198.5,-66.5 239.5,-66.5 239.5,-47.5 198.5,-47.5"/>
<text text-anchor="middle" x="219" y="-54.5" font-family="Helvetica,sans-Serif" font-size="10.00">TEST</text>
</a>
</g>
</g>
<!-- Node4&#45;&gt;Node7 -->
<g id="edge6" class="edge">
<title>Node4&#45;&gt;Node7</title>
<path fill="none" stroke="midnightblue" d="M320.95,-69.49C290.25,-65.69 259.03,-61.83 239.6,-59.42"/>
<polygon fill="midnightblue" stroke="midnightblue" points="320.53,-72.96 330.88,-70.72 321.39,-66.02 320.53,-72.96"/>
</g>
<!-- Node6 -->
<g id="node6" class="node">
<title>Node6</title>
<g id="a_node6"><a xlink:href="classsignal__easel_1_1aprs_1_1Receiver.html#afbf7869aceaf2ea7ab0be8b9af16e818" target="_top" xlink:title=" ">
<polygon fill="none" stroke="black" points="0,-91 0,-121 107,-121 107,-91 0,-91"/>
<text text-anchor="start" x="8" y="-109" font-family="Helvetica,sans-Serif" font-size="10.00">signal_easel::aprs</text>
<text text-anchor="middle" x="53.5" y="-98" font-family="Helvetica,sans-Serif" font-size="10.00">::Receiver::decode</text>
</a>
</g>
</g>
<!-- Node5&#45;&gt;Node6 -->
<g id="edge5" class="edge">
<title>Node5&#45;&gt;Node6</title>
<path fill="none" stroke="midnightblue" d="M132.73,-106C124.02,-106 115.37,-106 107.16,-106"/>
<polygon fill="midnightblue" stroke="midnightblue" points="132.95,-109.5 142.95,-106 132.95,-102.5 132.95,-109.5"/>
</g>
<!-- Node8&#45;&gt;Node3 -->
<g id="edge8" class="edge">
<title>Node8&#45;&gt;Node3</title>
<path fill="none" stroke="midnightblue" d="M737.87,-81C729.3,-81 720.72,-81 712.34,-81"/>
<polygon fill="midnightblue" stroke="midnightblue" points="737.91,-84.5 747.91,-81 737.91,-77.5 737.91,-84.5"/>
</g>
<!-- Node9&#45;&gt;Node3 -->
<g id="edge10" class="edge">
<title>Node9&#45;&gt;Node3</title>
<path fill="none" stroke="midnightblue" d="M762.3,-44.17C742.21,-49.54 720.97,-55.22 701.35,-60.46"/>
<polygon fill="midnightblue" stroke="midnightblue" points="763.3,-47.53 772.05,-41.56 761.49,-40.77 763.3,-47.53"/>
</g>
</g>
</svg>
