<?xml version="1.0" encoding="UTF-8" standalone="no"?>
<!DOCTYPE svg PUBLIC "-//W3C//DTD SVG 1.1//EN"
 "http://www.w3.org/Graphics/SVG/1.1/DTD/svg11.dtd">
<!-- Generated by graphviz version 2.43.0 (0)
 -->
<!-- Title: signal_easel::aprs::Modulator::encodeMessageAck Pages: 1 -->
<svg width="1462pt" height="465pt"
 viewBox="0.00 0.00 1462.00 465.00" xmlns="http://www.w3.org/2000/svg" xmlns:xlink="http://www.w3.org/1999/xlink">
<g id="graph0" class="graph" transform="scale(1 1) rotate(0) translate(4 461)">
<title>signal_easel::aprs::Modulator::encodeMessageAck</title>
<!-- Node1 -->
<g id="node1" class="node">
<title>Node1</title>
<g id="a_node1"><a xlink:title=" ">
<polygon fill="#bfbfbf" stroke="black" points="0,-377.5 0,-407.5 175,-407.5 175,-377.5 0,-377.5"/>
<text text-anchor="start" x="8" y="-395.5" font-family="Helvetica,sans-Serif" font-size="10.00">signal_easel::aprs</text>
<text text-anchor="middle" x="87.5" y="-384.5" font-family="Helvetica,sans-Serif" font-size="10.00">::Modulator::encodeMessageAck</text>
</a>
</g>
</g>
<!-- Node2 -->
<g id="node2" class="node">
<title>Node2</title>
<g id="a_node2"><a xlink:href="structsignal__easel_1_1aprs_1_1MessageAck.html#a26778cade10dfac29dd3a5102ea3030f" target="_top" xlink:title=" ">
<polygon fill="none" stroke="black" points="219,-426.5 219,-456.5 344,-456.5 344,-426.5 219,-426.5"/>
<text text-anchor="start" x="227" y="-444.5" font-family="Helvetica,sans-Serif" font-size="10.00">signal_easel::aprs</text>
<text text-anchor="middle" x="281.5" y="-433.5" font-family="Helvetica,sans-Serif" font-size="10.00">::MessageAck::encode</text>
</a>
</g>
</g>
<!-- Node1&#45;&gt;Node2 -->
<g id="edge1" class="edge">
<title>Node1&#45;&gt;Node2</title>
<path fill="none" stroke="midnightblue" d="M147.41,-407.53C167.78,-412.73 190.77,-418.6 211.85,-423.98"/>
<polygon fill="midnightblue" stroke="midnightblue" points="211.15,-427.41 221.7,-426.49 212.88,-420.63 211.15,-427.41"/>
</g>
<!-- Node3 -->
<g id="node3" class="node">
<title>Node3</title>
<g id="a_node3"><a xlink:href="classsignal__easel_1_1afsk_1_1Modulator.html#a8e377665e5432ebb66de359635aeeafb" target="_top" xlink:title="This is overridden by the child classes to encode the data that is passed in by addBytes and addStrin...">
<polygon fill="none" stroke="black" points="211,-377.5 211,-407.5 352,-407.5 352,-377.5 211,-377.5"/>
<text text-anchor="start" x="219" y="-395.5" font-family="Helvetica,sans-Serif" font-size="10.00">signal_easel::afsk</text>
<text text-anchor="middle" x="281.5" y="-384.5" font-family="Helvetica,sans-Serif" font-size="10.00">::Modulator::encodeBytes</text>
</a>
</g>
</g>
<!-- Node1&#45;&gt;Node3 -->
<g id="edge2" class="edge">
<title>Node1&#45;&gt;Node3</title>
<path fill="none" stroke="midnightblue" d="M175.23,-392.5C183.71,-392.5 192.29,-392.5 200.69,-392.5"/>
<polygon fill="midnightblue" stroke="midnightblue" points="200.84,-396 210.84,-392.5 200.84,-389 200.84,-396"/>
</g>
<!-- Node8 -->
<g id="node8" class="node">
<title>Node8</title>
<g id="a_node8"><a xlink:href="namespacesignal__easel_1_1aprs.html#a77481001a5b78a839972bb4220b43e4d" target="_top" xlink:title=" ">
<polygon fill="none" stroke="black" points="229.5,-262.5 229.5,-292.5 333.5,-292.5 333.5,-262.5 229.5,-262.5"/>
<text text-anchor="start" x="237.5" y="-280.5" font-family="Helvetica,sans-Serif" font-size="10.00">signal_easel::aprs</text>
<text text-anchor="middle" x="281.5" y="-269.5" font-family="Helvetica,sans-Serif" font-size="10.00">::encodePacket</text>
</a>
</g>
</g>
<!-- Node1&#45;&gt;Node8 -->
<g id="edge7" class="edge">
<title>Node1&#45;&gt;Node8</title>
<path fill="none" stroke="midnightblue" d="M113.6,-377.47C147.67,-357.06 208.64,-320.54 246.71,-297.74"/>
<polygon fill="midnightblue" stroke="midnightblue" points="248.61,-300.68 255.39,-292.54 245.02,-294.67 248.61,-300.68"/>
</g>
<!-- Node4 -->
<g id="node4" class="node">
<title>Node4</title>
<g id="a_node4"><a xlink:href="classsignal__easel_1_1Modulator.html#af99ee22156e320703891f0fda4df95e8" target="_top" xlink:title="Add a PCM sample to the audio buffer.">
<polygon fill="none" stroke="black" points="389.5,-426.5 389.5,-456.5 522.5,-456.5 522.5,-426.5 389.5,-426.5"/>
<text text-anchor="start" x="397.5" y="-444.5" font-family="Helvetica,sans-Serif" font-size="10.00">signal_easel::Modulator</text>
<text text-anchor="middle" x="456" y="-433.5" font-family="Helvetica,sans-Serif" font-size="10.00">::addAudioSample</text>
</a>
</g>
</g>
<!-- Node3&#45;&gt;Node4 -->
<g id="edge3" class="edge">
<title>Node3&#45;&gt;Node4</title>
<path fill="none" stroke="midnightblue" d="M335.66,-407.6C353.54,-412.68 373.64,-418.39 392.19,-423.66"/>
<polygon fill="midnightblue" stroke="midnightblue" points="391.44,-427.08 402.01,-426.45 393.35,-420.35 391.44,-427.08"/>
</g>
<!-- Node5 -->
<g id="node5" class="node">
<title>Node5</title>
<g id="a_node5"><a xlink:href="namespacesignal__easel.html#a815178bfbe2aee7cc2e3c74237233e6c" target="_top" xlink:title="Gets the bipolar value of a bit at a given index from a vector of bytes.">
<polygon fill="none" stroke="black" points="388,-377.5 388,-407.5 524,-407.5 524,-377.5 388,-377.5"/>
<text text-anchor="start" x="396" y="-395.5" font-family="Helvetica,sans-Serif" font-size="10.00">signal_easel::getBpBitAt</text>
<text text-anchor="middle" x="456" y="-384.5" font-family="Helvetica,sans-Serif" font-size="10.00">Index</text>
</a>
</g>
</g>
<!-- Node3&#45;&gt;Node5 -->
<g id="edge4" class="edge">
<title>Node3&#45;&gt;Node5</title>
<path fill="none" stroke="midnightblue" d="M352.17,-392.5C360.54,-392.5 369.13,-392.5 377.61,-392.5"/>
<polygon fill="midnightblue" stroke="midnightblue" points="377.87,-396 387.87,-392.5 377.87,-389 377.87,-396"/>
</g>
<!-- Node6 -->
<g id="node6" class="node">
<title>Node6</title>
<g id="a_node6"><a xlink:href="namespacesignal__easel.html#aa81833e925b9f020659999a2a4a82559" target="_top" xlink:title="Converts a bit to it&#39;s bipolar value (0 = 1, 1 = &#45;1)">
<polygon fill="none" stroke="black" points="560,-421 560,-440 725,-440 725,-421 560,-421"/>
<text text-anchor="middle" x="642.5" y="-428" font-family="Helvetica,sans-Serif" font-size="10.00">signal_easel::convertToBipolar</text>
</a>
</g>
</g>
<!-- Node5&#45;&gt;Node6 -->
<g id="edge5" class="edge">
<title>Node5&#45;&gt;Node6</title>
<path fill="none" stroke="midnightblue" d="M524.13,-406.33C544.22,-410.46 566.04,-414.96 585.34,-418.93"/>
<polygon fill="midnightblue" stroke="midnightblue" points="584.69,-422.37 595.19,-420.96 586.1,-415.52 584.69,-422.37"/>
</g>
<!-- Node7 -->
<g id="node7" class="node">
<title>Node7</title>
<g id="a_node7"><a xlink:href="namespacesignal__easel.html#a248ddb36f02c1436acd66c0409189637" target="_top" xlink:title="For reading a byte MSB first.">
<polygon fill="none" stroke="black" points="582,-383 582,-402 703,-402 703,-383 582,-383"/>
<text text-anchor="middle" x="642.5" y="-390" font-family="Helvetica,sans-Serif" font-size="10.00">signal_easel::isBitSet</text>
</a>
</g>
</g>
<!-- Node5&#45;&gt;Node7 -->
<g id="edge6" class="edge">
<title>Node5&#45;&gt;Node7</title>
<path fill="none" stroke="midnightblue" d="M524.13,-392.5C539.6,-392.5 556.08,-392.5 571.66,-392.5"/>
<polygon fill="midnightblue" stroke="midnightblue" points="571.75,-396 581.75,-392.5 571.75,-389 571.75,-396"/>
</g>
<!-- Node9 -->
<g id="node9" class="node">
<title>Node9</title>
<g id="a_node9"><a xlink:href="namespacesignal__easel_1_1aprs.html#a586b022fa0c917fa8557bbd5cdc6aeeb" target="_top" xlink:title=" ">
<polygon fill="none" stroke="black" points="586,-333.5 586,-363.5 699,-363.5 699,-333.5 586,-333.5"/>
<text text-anchor="start" x="594" y="-351.5" font-family="Helvetica,sans-Serif" font-size="10.00">signal_easel::aprs</text>
<text text-anchor="middle" x="642.5" y="-340.5" font-family="Helvetica,sans-Serif" font-size="10.00">::AddRequiredFields</text>
</a>
</g>
</g>
<!-- Node8&#45;&gt;Node9 -->
<g id="edge8" class="edge">
<title>Node8&#45;&gt;Node9</title>
<path fill="none" stroke="midnightblue" d="M333.55,-287.6C397.21,-300.19 506.12,-321.73 575.9,-335.53"/>
<polygon fill="midnightblue" stroke="midnightblue" points="575.41,-339 585.9,-337.5 576.77,-332.13 575.41,-339"/>
</g>
<!-- Node17 -->
<g id="node17" class="node">
<title>Node17</title>
<g id="a_node17"><a xlink:href="classsignal__easel_1_1ax25_1_1Frame.html#a2b4f6ebcb7592a7e5a21114c8fafa503" target="_top" xlink:title="A step beyond buildFrame. This function builds the frame, does the bit stuffing, adds the flags,...">
<polygon fill="none" stroke="black" points="393.5,-196.5 393.5,-226.5 518.5,-226.5 518.5,-196.5 393.5,-196.5"/>
<text text-anchor="start" x="401.5" y="-214.5" font-family="Helvetica,sans-Serif" font-size="10.00">signal_easel::ax25</text>
<text text-anchor="middle" x="456" y="-203.5" font-family="Helvetica,sans-Serif" font-size="10.00">::Frame::encodeFrame</text>
</a>
</g>
</g>
<!-- Node8&#45;&gt;Node17 -->
<g id="edge17" class="edge">
<title>Node8&#45;&gt;Node17</title>
<path fill="none" stroke="midnightblue" d="M322.07,-262.36C347.06,-252.8 379.52,-240.38 406.1,-230.21"/>
<polygon fill="midnightblue" stroke="midnightblue" points="407.52,-233.41 415.61,-226.57 405.02,-226.88 407.52,-233.41"/>
</g>
<!-- Node31 -->
<g id="node31" class="node">
<title>Node31</title>
<g id="a_node31"><a xlink:href="classsignal__easel_1_1ax25_1_1Frame.html#afc5c722b419621f2a4dccbe2208faea1" target="_top" xlink:title=" ">
<polygon fill="none" stroke="black" points="390.5,-147.5 390.5,-177.5 521.5,-177.5 521.5,-147.5 390.5,-147.5"/>
<text text-anchor="start" x="398.5" y="-165.5" font-family="Helvetica,sans-Serif" font-size="10.00">signal_easel::ax25</text>
<text text-anchor="middle" x="456" y="-154.5" font-family="Helvetica,sans-Serif" font-size="10.00">::Frame::setInformation</text>
</a>
</g>
</g>
<!-- Node8&#45;&gt;Node31 -->
<g id="edge35" class="edge">
<title>Node8&#45;&gt;Node31</title>
<path fill="none" stroke="midnightblue" d="M296.52,-262.34C315.56,-242.52 351.43,-207.82 388,-186.5 390.83,-184.85 393.79,-183.29 396.83,-181.81"/>
<polygon fill="midnightblue" stroke="midnightblue" points="398.42,-184.92 406.1,-177.62 395.54,-178.54 398.42,-184.92"/>
</g>
<!-- Node10 -->
<g id="node10" class="node">
<title>Node10</title>
<g id="a_node10"><a xlink:href="namespacesignal__easel_1_1aprs.html#ae16006b4c75ab6423ad8b90ea814a14f" target="_top" xlink:title=" ">
<polygon fill="none" stroke="black" points="792.5,-392.5 792.5,-422.5 899.5,-422.5 899.5,-392.5 792.5,-392.5"/>
<text text-anchor="start" x="800.5" y="-410.5" font-family="Helvetica,sans-Serif" font-size="10.00">signal_easel::aprs</text>
<text text-anchor="middle" x="846" y="-399.5" font-family="Helvetica,sans-Serif" font-size="10.00">::CheckPacketData</text>
</a>
</g>
</g>
<!-- Node9&#45;&gt;Node10 -->
<g id="edge9" class="edge">
<title>Node9&#45;&gt;Node10</title>
<path fill="none" stroke="midnightblue" d="M694.87,-363.54C721.99,-371.48 755.45,-381.28 783.89,-389.61"/>
<polygon fill="midnightblue" stroke="midnightblue" points="783.14,-393.04 793.73,-392.49 785.11,-386.32 783.14,-393.04"/>
</g>
<!-- Node11 -->
<g id="node11" class="node">
<title>Node11</title>
<g id="a_node11"><a xlink:href="classsignal__easel_1_1ax25_1_1Frame.html#a57b163ece54317da8d95f3b18b47c23d" target="_top" xlink:title="setters/getters for the frame.">
<polygon fill="none" stroke="black" points="761,-343.5 761,-373.5 931,-373.5 931,-343.5 761,-343.5"/>
<text text-anchor="start" x="769" y="-361.5" font-family="Helvetica,sans-Serif" font-size="10.00">signal_easel::ax25</text>
<text text-anchor="middle" x="846" y="-350.5" font-family="Helvetica,sans-Serif" font-size="10.00">::Frame::setDestinationAddress</text>
</a>
</g>
</g>
<!-- Node9&#45;&gt;Node11 -->
<g id="edge10" class="edge">
<title>Node9&#45;&gt;Node11</title>
<path fill="none" stroke="midnightblue" d="M699.09,-351.26C715.06,-352.05 732.94,-352.94 750.56,-353.81"/>
<polygon fill="midnightblue" stroke="midnightblue" points="750.73,-357.33 760.89,-354.33 751.08,-350.33 750.73,-357.33"/>
</g>
<!-- Node16 -->
<g id="node16" class="node">
<title>Node16</title>
<g id="a_node16"><a xlink:href="classsignal__easel_1_1ax25_1_1Frame.html#a402d26a81f82bb5c477e8930b75a771e" target="_top" xlink:title=" ">
<polygon fill="none" stroke="black" points="773,-294.5 773,-324.5 919,-324.5 919,-294.5 773,-294.5"/>
<text text-anchor="start" x="781" y="-312.5" font-family="Helvetica,sans-Serif" font-size="10.00">signal_easel::ax25</text>
<text text-anchor="middle" x="846" y="-301.5" font-family="Helvetica,sans-Serif" font-size="10.00">::Frame::setSourceAddress</text>
</a>
</g>
</g>
<!-- Node9&#45;&gt;Node16 -->
<g id="edge15" class="edge">
<title>Node9&#45;&gt;Node16</title>
<path fill="none" stroke="midnightblue" d="M699.09,-337.74C718.8,-333.92 741.42,-329.55 762.87,-325.4"/>
<polygon fill="midnightblue" stroke="midnightblue" points="763.81,-328.78 772.96,-323.44 762.48,-321.91 763.81,-328.78"/>
</g>
<!-- Node12 -->
<g id="node12" class="node">
<title>Node12</title>
<g id="a_node12"><a xlink:href="classsignal__easel_1_1ax25_1_1Address.html#a7fa6b0ef4241413893f201660991e4ea" target="_top" xlink:title="Checks if the address is valid, if not throws an exception with a specific error code.">
<polygon fill="none" stroke="black" points="967,-291.5 967,-321.5 1097,-321.5 1097,-291.5 967,-291.5"/>
<text text-anchor="start" x="975" y="-309.5" font-family="Helvetica,sans-Serif" font-size="10.00">signal_easel::ax25</text>
<text text-anchor="middle" x="1032" y="-298.5" font-family="Helvetica,sans-Serif" font-size="10.00">::Address::assertIsValid</text>
</a>
</g>
</g>
<!-- Node11&#45;&gt;Node12 -->
<g id="edge11" class="edge">
<title>Node11&#45;&gt;Node12</title>
<path fill="none" stroke="midnightblue" d="M900.22,-343.46C921.49,-337.45 946.13,-330.48 968.26,-324.23"/>
<polygon fill="midnightblue" stroke="midnightblue" points="969.23,-327.59 977.9,-321.51 967.32,-320.86 969.23,-327.59"/>
</g>
<!-- Node13 -->
<g id="node13" class="node">
<title>Node13</title>
<g id="a_node13"><a xlink:href="classsignal__easel_1_1ax25_1_1Address.html#af34b361f739b7995e7816b7a04465828" target="_top" xlink:title=" ">
<polygon fill="none" stroke="black" points="1133,-286 1133,-327 1298,-327 1298,-286 1133,-286"/>
<text text-anchor="start" x="1141" y="-315" font-family="Helvetica,sans-Serif" font-size="10.00">signal_easel::ax25</text>
<text text-anchor="start" x="1141" y="-304" font-family="Helvetica,sans-Serif" font-size="10.00">::Address::assertAddressString</text>
<text text-anchor="middle" x="1215.5" y="-293" font-family="Helvetica,sans-Serif" font-size="10.00">IsValid</text>
</a>
</g>
</g>
<!-- Node12&#45;&gt;Node13 -->
<g id="edge12" class="edge">
<title>Node12&#45;&gt;Node13</title>
<path fill="none" stroke="midnightblue" d="M1097.25,-306.5C1105.53,-306.5 1114.13,-306.5 1122.75,-306.5"/>
<polygon fill="midnightblue" stroke="midnightblue" points="1122.85,-310 1132.85,-306.5 1122.85,-303 1122.85,-310"/>
</g>
<!-- Node14 -->
<g id="node14" class="node">
<title>Node14</title>
<g id="a_node14"><a xlink:href="classsignal__easel_1_1ax25_1_1Address.html#a8b44c6e311d3462bd86eda03c1d384f0" target="_top" xlink:title=" ">
<polygon fill="none" stroke="black" points="1140.5,-233.5 1140.5,-263.5 1290.5,-263.5 1290.5,-233.5 1140.5,-233.5"/>
<text text-anchor="start" x="1148.5" y="-251.5" font-family="Helvetica,sans-Serif" font-size="10.00">signal_easel::ax25</text>
<text text-anchor="middle" x="1215.5" y="-240.5" font-family="Helvetica,sans-Serif" font-size="10.00">::Address::assertSsidIsValid</text>
</a>
</g>
</g>
<!-- Node12&#45;&gt;Node14 -->
<g id="edge13" class="edge">
<title>Node12&#45;&gt;Node14</title>
<path fill="none" stroke="midnightblue" d="M1080.21,-291.41C1103.95,-283.83 1132.9,-274.58 1157.83,-266.61"/>
<polygon fill="midnightblue" stroke="midnightblue" points="1159.06,-269.89 1167.52,-263.51 1156.93,-263.22 1159.06,-269.89"/>
</g>
<!-- Node15 -->
<g id="node15" class="node">
<title>Node15</title>
<g id="a_node15"><a xlink:href="classsignal__easel_1_1ax25_1_1Address.html#ad66c149737cc4aa52ae9e8860176acf3" target="_top" xlink:title=" ">
<polygon fill="none" stroke="black" points="1334,-208.5 1334,-238.5 1454,-238.5 1454,-208.5 1334,-208.5"/>
<text text-anchor="start" x="1342" y="-226.5" font-family="Helvetica,sans-Serif" font-size="10.00">signal_easel::ax25</text>
<text text-anchor="middle" x="1394" y="-215.5" font-family="Helvetica,sans-Serif" font-size="10.00">::Address::isSsidValid</text>
</a>
</g>
</g>
<!-- Node14&#45;&gt;Node15 -->
<g id="edge14" class="edge">
<title>Node14&#45;&gt;Node15</title>
<path fill="none" stroke="midnightblue" d="M1290.58,-238.01C1301.64,-236.44 1312.99,-234.83 1323.93,-233.28"/>
<polygon fill="midnightblue" stroke="midnightblue" points="1324.43,-236.75 1333.84,-231.88 1323.45,-229.82 1324.43,-236.75"/>
</g>
<!-- Node16&#45;&gt;Node12 -->
<g id="edge16" class="edge">
<title>Node16&#45;&gt;Node12</title>
<path fill="none" stroke="midnightblue" d="M919.19,-308.32C931.46,-308.12 944.23,-307.91 956.56,-307.71"/>
<polygon fill="midnightblue" stroke="midnightblue" points="956.85,-311.21 966.79,-307.55 956.73,-304.21 956.85,-311.21"/>
</g>
<!-- Node18 -->
<g id="node18" class="node">
<title>Node18</title>
<g id="a_node18"><a xlink:href="classsignal__easel_1_1BitStream.html#a9df75eb28c03717c9fad2d30a85de6e6" target="_top" xlink:title=" ">
<polygon fill="none" stroke="black" points="780,-245.5 780,-275.5 912,-275.5 912,-245.5 780,-245.5"/>
<text text-anchor="start" x="788" y="-263.5" font-family="Helvetica,sans-Serif" font-size="10.00">signal_easel::BitStream</text>
<text text-anchor="middle" x="846" y="-252.5" font-family="Helvetica,sans-Serif" font-size="10.00">::addBits</text>
</a>
</g>
</g>
<!-- Node17&#45;&gt;Node18 -->
<g id="edge18" class="edge">
<title>Node17&#45;&gt;Node18</title>
<path fill="none" stroke="midnightblue" d="M471.71,-226.54C490.33,-244.38 524.29,-273.13 560,-284.5 635.92,-308.68 728.64,-293.11 787.27,-278.13"/>
<polygon fill="midnightblue" stroke="midnightblue" points="788.32,-281.48 797.1,-275.55 786.53,-274.71 788.32,-281.48"/>
</g>
<!-- Node19 -->
<g id="node19" class="node">
<title>Node19</title>
<g id="a_node19"><a xlink:href="classsignal__easel_1_1BitStream.html#a81d4aea4c11f65e0c2b7ad2f0f0cc312" target="_top" xlink:title=" ">
<polygon fill="none" stroke="black" points="576.5,-245.5 576.5,-275.5 708.5,-275.5 708.5,-245.5 576.5,-245.5"/>
<text text-anchor="start" x="584.5" y="-263.5" font-family="Helvetica,sans-Serif" font-size="10.00">signal_easel::BitStream</text>
<text text-anchor="middle" x="642.5" y="-252.5" font-family="Helvetica,sans-Serif" font-size="10.00">::addOneBit</text>
</a>
</g>
</g>
<!-- Node17&#45;&gt;Node19 -->
<g id="edge19" class="edge">
<title>Node17&#45;&gt;Node19</title>
<path fill="none" stroke="midnightblue" d="M513.61,-226.53C533.09,-231.71 555.08,-237.55 575.26,-242.91"/>
<polygon fill="midnightblue" stroke="midnightblue" points="574.43,-246.31 585,-245.49 576.23,-239.54 574.43,-246.31"/>
</g>
<!-- Node20 -->
<g id="node20" class="node">
<title>Node20</title>
<g id="a_node20"><a xlink:href="classsignal__easel_1_1BitStream.html#abb315beec8c4d88115d9d4ec5f082863" target="_top" xlink:title=" ">
<polygon fill="none" stroke="black" points="576.5,-196.5 576.5,-226.5 708.5,-226.5 708.5,-196.5 576.5,-196.5"/>
<text text-anchor="start" x="584.5" y="-214.5" font-family="Helvetica,sans-Serif" font-size="10.00">signal_easel::BitStream</text>
<text text-anchor="middle" x="642.5" y="-203.5" font-family="Helvetica,sans-Serif" font-size="10.00">::addZeroBit</text>
</a>
</g>
</g>
<!-- Node17&#45;&gt;Node20 -->
<g id="edge21" class="edge">
<title>Node17&#45;&gt;Node20</title>
<path fill="none" stroke="midnightblue" d="M518.69,-211.5C533.9,-211.5 550.36,-211.5 566.14,-211.5"/>
<polygon fill="midnightblue" stroke="midnightblue" points="566.39,-215 576.39,-211.5 566.39,-208 566.39,-215"/>
</g>
<!-- Node21 -->
<g id="node21" class="node">
<title>Node21</title>
<g id="a_node21"><a xlink:href="classsignal__easel_1_1ax25_1_1Frame.html#a24e7d5ffc6504a3380e97142d1bc084e" target="_top" xlink:title="Builds all internal portions of the frame. Doesn&#39;t include the flags.">
<polygon fill="none" stroke="black" points="585.5,-147.5 585.5,-177.5 699.5,-177.5 699.5,-147.5 585.5,-147.5"/>
<text text-anchor="start" x="593.5" y="-165.5" font-family="Helvetica,sans-Serif" font-size="10.00">signal_easel::ax25</text>
<text text-anchor="middle" x="642.5" y="-154.5" font-family="Helvetica,sans-Serif" font-size="10.00">::Frame::buildFrame</text>
</a>
</g>
</g>
<!-- Node17&#45;&gt;Node21 -->
<g id="edge23" class="edge">
<title>Node17&#45;&gt;Node21</title>
<path fill="none" stroke="midnightblue" d="M513.61,-196.47C533.18,-191.27 555.28,-185.4 575.54,-180.02"/>
<polygon fill="midnightblue" stroke="midnightblue" points="576.55,-183.37 585.31,-177.42 574.75,-176.61 576.55,-183.37"/>
</g>
<!-- Node28 -->
<g id="node28" class="node">
<title>Node28</title>
<g id="a_node28"><a xlink:href="classsignal__easel_1_1BitStream.html#aa97152ef51f73088e103a7951134aa85" target="_top" xlink:title=" ">
<polygon fill="none" stroke="black" points="576.5,-98.5 576.5,-128.5 708.5,-128.5 708.5,-98.5 576.5,-98.5"/>
<text text-anchor="start" x="584.5" y="-116.5" font-family="Helvetica,sans-Serif" font-size="10.00">signal_easel::BitStream</text>
<text text-anchor="middle" x="642.5" y="-105.5" font-family="Helvetica,sans-Serif" font-size="10.00">::getBitStreamLength</text>
</a>
</g>
</g>
<!-- Node17&#45;&gt;Node28 -->
<g id="edge32" class="edge">
<title>Node17&#45;&gt;Node28</title>
<path fill="none" stroke="midnightblue" d="M507.36,-196.43C513.25,-193.61 518.95,-190.32 524,-186.5 545.56,-170.21 537.88,-153.02 560,-137.5 562.38,-135.83 564.87,-134.28 567.45,-132.83"/>
<polygon fill="midnightblue" stroke="midnightblue" points="569.11,-135.91 576.49,-128.32 565.98,-129.65 569.11,-135.91"/>
</g>
<!-- Node29 -->
<g id="node29" class="node">
<title>Node29</title>
<g id="a_node29"><a xlink:href="classsignal__easel_1_1BitStream.html#a5b5339586e09ca5c25a7e9ded0118ffb" target="_top" xlink:title="Returns the next bit of the bit stream that will be encoded.">
<polygon fill="none" stroke="black" points="576.5,-49.5 576.5,-79.5 708.5,-79.5 708.5,-49.5 576.5,-49.5"/>
<text text-anchor="start" x="584.5" y="-67.5" font-family="Helvetica,sans-Serif" font-size="10.00">signal_easel::BitStream</text>
<text text-anchor="middle" x="642.5" y="-56.5" font-family="Helvetica,sans-Serif" font-size="10.00">::popNextBit</text>
</a>
</g>
</g>
<!-- Node17&#45;&gt;Node29 -->
<g id="edge33" class="edge">
<title>Node17&#45;&gt;Node29</title>
<path fill="none" stroke="midnightblue" d="M510.82,-196.43C515.64,-193.65 520.15,-190.37 524,-186.5 556.73,-153.61 526.13,-120.22 560,-88.5 562.29,-86.35 564.77,-84.39 567.39,-82.61"/>
<polygon fill="midnightblue" stroke="midnightblue" points="569.28,-85.56 576.14,-77.49 565.74,-79.52 569.28,-85.56"/>
</g>
<!-- Node30 -->
<g id="node30" class="node">
<title>Node30</title>
<g id="a_node30"><a xlink:href="namespacesignal__easel_1_1ax25.html#a56c64a06f2dc7d2d270c32e1063400ae" target="_top" xlink:title="Reverse a byte.">
<polygon fill="none" stroke="black" points="589,-0.5 589,-30.5 696,-30.5 696,-0.5 589,-0.5"/>
<text text-anchor="start" x="597" y="-18.5" font-family="Helvetica,sans-Serif" font-size="10.00">signal_easel::ax25</text>
<text text-anchor="middle" x="642.5" y="-7.5" font-family="Helvetica,sans-Serif" font-size="10.00">::reverseByte</text>
</a>
</g>
</g>
<!-- Node17&#45;&gt;Node30 -->
<g id="edge34" class="edge">
<title>Node17&#45;&gt;Node30</title>
<path fill="none" stroke="midnightblue" d="M511.92,-196.47C516.4,-193.69 520.53,-190.4 524,-186.5 568.7,-136.24 513.55,-88.15 560,-39.5 565.44,-33.8 572.17,-29.43 579.39,-26.09"/>
<polygon fill="midnightblue" stroke="midnightblue" points="580.75,-29.32 588.77,-22.39 578.18,-22.81 580.75,-29.32"/>
</g>
<!-- Node19&#45;&gt;Node18 -->
<g id="edge20" class="edge">
<title>Node19&#45;&gt;Node18</title>
<path fill="none" stroke="midnightblue" d="M708.64,-260.5C728.12,-260.5 749.63,-260.5 769.7,-260.5"/>
<polygon fill="midnightblue" stroke="midnightblue" points="769.74,-264 779.74,-260.5 769.74,-257 769.74,-264"/>
</g>
<!-- Node20&#45;&gt;Node18 -->
<g id="edge22" class="edge">
<title>Node20&#45;&gt;Node18</title>
<path fill="none" stroke="midnightblue" d="M705.33,-226.53C726.89,-231.78 751.27,-237.71 773.55,-243.13"/>
<polygon fill="midnightblue" stroke="midnightblue" points="772.75,-246.53 783.29,-245.49 774.4,-239.73 772.75,-246.53"/>
</g>
<!-- Node22 -->
<g id="node22" class="node">
<title>Node22</title>
<g id="a_node22"><a xlink:href="namespacesignal__easel_1_1ax25.html#a6d799107f96d783e620cd508488ab8eb" target="_top" xlink:title="Calculate the Frame Check Sequence (FCS) on a vector of bytes.">
<polygon fill="none" stroke="black" points="792.5,-196.5 792.5,-226.5 899.5,-226.5 899.5,-196.5 792.5,-196.5"/>
<text text-anchor="start" x="800.5" y="-214.5" font-family="Helvetica,sans-Serif" font-size="10.00">signal_easel::ax25</text>
<text text-anchor="middle" x="846" y="-203.5" font-family="Helvetica,sans-Serif" font-size="10.00">::calculateFcs</text>
</a>
</g>
</g>
<!-- Node21&#45;&gt;Node22 -->
<g id="edge24" class="edge">
<title>Node21&#45;&gt;Node22</title>
<path fill="none" stroke="midnightblue" d="M699.63,-176.15C725.34,-182.4 755.91,-189.84 782.37,-196.27"/>
<polygon fill="midnightblue" stroke="midnightblue" points="781.74,-199.72 792.29,-198.68 783.4,-192.92 781.74,-199.72"/>
</g>
<!-- Node23 -->
<g id="node23" class="node">
<title>Node23</title>
<g id="a_node23"><a xlink:href="classsignal__easel_1_1ax25_1_1Address.html#a0c31737081a9184b56dc32150b23cb0a" target="_top" xlink:title="Get the address as a byte array.">
<polygon fill="none" stroke="black" points="775,-147.5 775,-177.5 917,-177.5 917,-147.5 775,-147.5"/>
<text text-anchor="start" x="783" y="-165.5" font-family="Helvetica,sans-Serif" font-size="10.00">signal_easel::ax25</text>
<text text-anchor="middle" x="846" y="-154.5" font-family="Helvetica,sans-Serif" font-size="10.00">::Address::encodeAddress</text>
</a>
</g>
</g>
<!-- Node21&#45;&gt;Node23 -->
<g id="edge25" class="edge">
<title>Node21&#45;&gt;Node23</title>
<path fill="none" stroke="midnightblue" d="M699.63,-162.5C719.73,-162.5 742.81,-162.5 764.57,-162.5"/>
<polygon fill="midnightblue" stroke="midnightblue" points="764.79,-166 774.79,-162.5 764.79,-159 764.79,-166"/>
</g>
<!-- Node24 -->
<g id="node24" class="node">
<title>Node24</title>
<g id="a_node24"><a xlink:href="classsignal__easel_1_1ax25_1_1Frame.html#a640edeabbda34e78cc243e3561747bf9" target="_top" xlink:title=" ">
<polygon fill="none" stroke="black" points="785,-98.5 785,-128.5 907,-128.5 907,-98.5 785,-98.5"/>
<text text-anchor="start" x="793" y="-116.5" font-family="Helvetica,sans-Serif" font-size="10.00">signal_easel::ax25</text>
<text text-anchor="middle" x="846" y="-105.5" font-family="Helvetica,sans-Serif" font-size="10.00">::Frame::isFrameValid</text>
</a>
</g>
</g>
<!-- Node21&#45;&gt;Node24 -->
<g id="edge27" class="edge">
<title>Node21&#45;&gt;Node24</title>
<path fill="none" stroke="midnightblue" d="M699.63,-148.85C722.96,-143.18 750.3,-136.53 774.93,-130.54"/>
<polygon fill="midnightblue" stroke="midnightblue" points="776.05,-133.87 784.94,-128.1 774.4,-127.07 776.05,-133.87"/>
</g>
<!-- Node27 -->
<g id="node27" class="node">
<title>Node27</title>
<g id="a_node27"><a xlink:href="classsignal__easel_1_1ax25_1_1Address.html#a1a5bc573535cfc1f8723c121e3451e7c" target="_top" xlink:title="Set the as the last address in the AX.25 frame (Sets a bit in the ssid byte)">
<polygon fill="none" stroke="black" points="771,-49.5 771,-79.5 921,-79.5 921,-49.5 771,-49.5"/>
<text text-anchor="start" x="779" y="-67.5" font-family="Helvetica,sans-Serif" font-size="10.00">signal_easel::ax25</text>
<text text-anchor="middle" x="846" y="-56.5" font-family="Helvetica,sans-Serif" font-size="10.00">::Address::setIsLastAddress</text>
</a>
</g>
</g>
<!-- Node21&#45;&gt;Node27 -->
<g id="edge31" class="edge">
<title>Node21&#45;&gt;Node27</title>
<path fill="none" stroke="midnightblue" d="M699.66,-150.5C708.6,-147.15 717.4,-142.9 725,-137.5 747.03,-121.86 738.82,-103.93 761,-88.5 763.26,-86.93 765.62,-85.46 768.05,-84.09"/>
<polygon fill="midnightblue" stroke="midnightblue" points="769.78,-87.14 777.15,-79.53 766.64,-80.88 769.78,-87.14"/>
</g>
<!-- Node23&#45;&gt;Node12 -->
<g id="edge26" class="edge">
<title>Node23&#45;&gt;Node12</title>
<path fill="none" stroke="midnightblue" d="M914.2,-177.67C920.09,-180.18 925.79,-183.11 931,-186.5 969.22,-211.39 1000.38,-255.36 1017.26,-282.61"/>
<polygon fill="midnightblue" stroke="midnightblue" points="1014.46,-284.74 1022.62,-291.49 1020.45,-281.12 1014.46,-284.74"/>
</g>
<!-- Node25 -->
<g id="node25" class="node">
<title>Node25</title>
<g id="a_node25"><a xlink:href="classsignal__easel_1_1ax25_1_1Address.html#aae81920cfd0dc7d89cb107f9d825488c" target="_top" xlink:title="If the address is valid (can be encoded correctly or was decoded)">
<polygon fill="none" stroke="black" points="978.5,-122.5 978.5,-152.5 1085.5,-152.5 1085.5,-122.5 978.5,-122.5"/>
<text text-anchor="start" x="986.5" y="-140.5" font-family="Helvetica,sans-Serif" font-size="10.00">signal_easel::ax25</text>
<text text-anchor="middle" x="1032" y="-129.5" font-family="Helvetica,sans-Serif" font-size="10.00">::Address::isValid</text>
</a>
</g>
</g>
<!-- Node24&#45;&gt;Node25 -->
<g id="edge28" class="edge">
<title>Node24&#45;&gt;Node25</title>
<path fill="none" stroke="midnightblue" d="M907.25,-121.36C926.79,-123.91 948.52,-126.74 968.24,-129.31"/>
<polygon fill="midnightblue" stroke="midnightblue" points="967.99,-132.81 978.35,-130.63 968.89,-125.87 967.99,-132.81"/>
</g>
<!-- Node25&#45;&gt;Node15 -->
<g id="edge30" class="edge">
<title>Node25&#45;&gt;Node15</title>
<path fill="none" stroke="midnightblue" d="M1080.34,-152.54C1096.92,-157.59 1115.71,-163.05 1133,-167.5 1197.28,-184.04 1271.34,-199.66 1323.93,-210.18"/>
<polygon fill="midnightblue" stroke="midnightblue" points="1323.34,-213.63 1333.83,-212.15 1324.7,-206.76 1323.34,-213.63"/>
</g>
<!-- Node26 -->
<g id="node26" class="node">
<title>Node26</title>
<g id="a_node26"><a xlink:href="classsignal__easel_1_1ax25_1_1Address.html#a56c55b48bfc809a33aa0e22a5aeb95ca" target="_top" xlink:title=" ">
<polygon fill="none" stroke="black" points="1144,-117 1144,-158 1287,-158 1287,-117 1144,-117"/>
<text text-anchor="start" x="1152" y="-146" font-family="Helvetica,sans-Serif" font-size="10.00">signal_easel::ax25</text>
<text text-anchor="start" x="1152" y="-135" font-family="Helvetica,sans-Serif" font-size="10.00">::Address::isAddressString</text>
<text text-anchor="middle" x="1215.5" y="-124" font-family="Helvetica,sans-Serif" font-size="10.00">Valid</text>
</a>
</g>
</g>
<!-- Node25&#45;&gt;Node26 -->
<g id="edge29" class="edge">
<title>Node25&#45;&gt;Node26</title>
<path fill="none" stroke="midnightblue" d="M1085.99,-137.5C1100.98,-137.5 1117.64,-137.5 1133.87,-137.5"/>
<polygon fill="midnightblue" stroke="midnightblue" points="1133.89,-141 1143.89,-137.5 1133.89,-134 1133.89,-141"/>
</g>
</g>
</svg>
