<?xml version="1.0" encoding="UTF-8" standalone="no"?>
<!DOCTYPE svg PUBLIC "-//W3C//DTD SVG 1.1//EN"
 "http://www.w3.org/Graphics/SVG/1.1/DTD/svg11.dtd">
<!-- Generated by graphviz version 2.43.0 (0)
 -->
<!-- Title: signal_easel::ax25::Address Pages: 1 -->
<svg width="309pt" height="380pt"
 viewBox="0.00 0.00 309.00 380.00" xmlns="http://www.w3.org/2000/svg" xmlns:xlink="http://www.w3.org/1999/xlink">
<g id="graph0" class="graph" transform="scale(1 1) rotate(0) translate(4 376)">
<title>signal_easel::ax25::Address</title>
<!-- Node1 -->
<g id="node1" class="node">
<title>Node1</title>
<g id="a_node1"><a xlink:title="AX.25 Address class. For encoding and decoding AX.25 addresses.">
<polygon fill="#bfbfbf" stroke="black" points="82.5,-0.5 82.5,-200.5 243.5,-200.5 243.5,-0.5 82.5,-0.5"/>
<text text-anchor="start" x="90.5" y="-188.5" font-family="Helvetica,sans-Serif" font-size="10.00">signal_easel::ax25</text>
<text text-anchor="middle" x="163" y="-177.5" font-family="Helvetica,sans-Serif" font-size="10.00">::Address</text>
<polyline fill="none" stroke="black" points="82.5,-170.5 243.5,-170.5 "/>
<text text-anchor="middle" x="163" y="-158.5" font-family="Helvetica,sans-Serif" font-size="10.00"> </text>
<polyline fill="none" stroke="black" points="82.5,-151.5 243.5,-151.5 "/>
<text text-anchor="start" x="90.5" y="-139.5" font-family="Helvetica,sans-Serif" font-size="10.00">+ Address()</text>
<text text-anchor="start" x="90.5" y="-128.5" font-family="Helvetica,sans-Serif" font-size="10.00">+ Address()</text>
<text text-anchor="start" x="90.5" y="-117.5" font-family="Helvetica,sans-Serif" font-size="10.00">+ Address()</text>
<text text-anchor="start" x="90.5" y="-106.5" font-family="Helvetica,sans-Serif" font-size="10.00">+ assertIsValid()</text>
<text text-anchor="start" x="90.5" y="-95.5" font-family="Helvetica,sans-Serif" font-size="10.00">+ decodeAddress()</text>
<text text-anchor="start" x="90.5" y="-84.5" font-family="Helvetica,sans-Serif" font-size="10.00">+ encodeAddress()</text>
<text text-anchor="start" x="90.5" y="-73.5" font-family="Helvetica,sans-Serif" font-size="10.00">+ getAddressString()</text>
<text text-anchor="start" x="90.5" y="-62.5" font-family="Helvetica,sans-Serif" font-size="10.00">+ getSsid()</text>
<text text-anchor="start" x="90.5" y="-51.5" font-family="Helvetica,sans-Serif" font-size="10.00">+ isAddressStringValid()</text>
<text text-anchor="start" x="90.5" y="-40.5" font-family="Helvetica,sans-Serif" font-size="10.00">+ isCommandOrResponse()</text>
<text text-anchor="start" x="90.5" y="-29.5" font-family="Helvetica,sans-Serif" font-size="10.00">and 8 more...</text>
<text text-anchor="start" x="90.5" y="-18.5" font-family="Helvetica,sans-Serif" font-size="10.00">&#45; assertAddressStringIsValid()</text>
<text text-anchor="start" x="90.5" y="-7.5" font-family="Helvetica,sans-Serif" font-size="10.00">&#45; assertSsidIsValid()</text>
</a>
</g>
</g>
<!-- Node2 -->
<g id="node2" class="node">
<title>Node2</title>
<g id="a_node2"><a xlink:title=" ">
<polygon fill="none" stroke="#bfbfbf" points="0,-314.5 0,-371.5 38,-371.5 38,-314.5 0,-314.5"/>
<text text-anchor="middle" x="19" y="-359.5" font-family="Helvetica,sans-Serif" font-size="10.00">bool</text>
<polyline fill="none" stroke="#bfbfbf" points="0,-352.5 38,-352.5 "/>
<text text-anchor="middle" x="19" y="-340.5" font-family="Helvetica,sans-Serif" font-size="10.00"> </text>
<polyline fill="none" stroke="#bfbfbf" points="0,-333.5 38,-333.5 "/>
<text text-anchor="middle" x="19" y="-321.5" font-family="Helvetica,sans-Serif" font-size="10.00"> </text>
</a>
</g>
</g>
<!-- Node2&#45;&gt;Node1 -->
<g id="edge1" class="edge">
<title>Node2&#45;&gt;Node1</title>
<path fill="none" stroke="#404040" d="M18.24,-314.01C18.67,-287.97 22.29,-248.82 38,-219 47.14,-201.65 59.84,-185.45 73.68,-170.96"/>
<polygon fill="none" stroke="#404040" points="73.96,-170.68 75.35,-163.61 82.41,-162.17 81.02,-169.24 73.96,-170.68"/>
<text text-anchor="start" x="38" y="-288" font-family="Helvetica,sans-Serif" font-size="10.00"> &#45;command_or_response</text>
<text text-anchor="middle" x="98.5" y="-277" font-family="Helvetica,sans-Serif" font-size="10.00">_</text>
<text text-anchor="start" x="38" y="-266" font-family="Helvetica,sans-Serif" font-size="10.00">&#45;is_last_address</text>
<text text-anchor="middle" x="98.5" y="-255" font-family="Helvetica,sans-Serif" font-size="10.00">_</text>
<text text-anchor="start" x="38" y="-244" font-family="Helvetica,sans-Serif" font-size="10.00">&#45;reserve_bit</text>
<text text-anchor="middle" x="98.5" y="-233" font-family="Helvetica,sans-Serif" font-size="10.00">_1_</text>
<text text-anchor="middle" x="98.5" y="-222" font-family="Helvetica,sans-Serif" font-size="10.00">&#45;reserve_bit_2_</text>
</g>
<!-- Node3 -->
<g id="node3" class="node">
<title>Node3</title>
<g id="a_node3"><a xlink:title=" ">
<polygon fill="none" stroke="#bfbfbf" points="138,-314.5 138,-371.5 188,-371.5 188,-314.5 138,-314.5"/>
<text text-anchor="middle" x="163" y="-359.5" font-family="Helvetica,sans-Serif" font-size="10.00">uint8_t</text>
<polyline fill="none" stroke="#bfbfbf" points="138,-352.5 188,-352.5 "/>
<text text-anchor="middle" x="163" y="-340.5" font-family="Helvetica,sans-Serif" font-size="10.00"> </text>
<polyline fill="none" stroke="#bfbfbf" points="138,-333.5 188,-333.5 "/>
<text text-anchor="middle" x="163" y="-321.5" font-family="Helvetica,sans-Serif" font-size="10.00"> </text>
</a>
</g>
</g>
<!-- Node3&#45;&gt;Node1 -->
<g id="edge2" class="edge">
<title>Node3&#45;&gt;Node1</title>
<path fill="none" stroke="#404040" d="M163,-314.41C163,-289.31 163,-250.53 163,-212.91"/>
<polygon fill="none" stroke="#404040" points="163,-212.76 159,-206.76 163,-200.76 167,-206.76 163,-212.76"/>
<text text-anchor="middle" x="179" y="-255" font-family="Helvetica,sans-Serif" font-size="10.00"> &#45;ssid_</text>
</g>
<!-- Node4 -->
<g id="node4" class="node">
<title>Node4</title>
<g id="a_node4"><a xlink:title=" ">
<polygon fill="none" stroke="#bfbfbf" points="206,-314.5 206,-371.5 250,-371.5 250,-314.5 206,-314.5"/>
<text text-anchor="middle" x="228" y="-359.5" font-family="Helvetica,sans-Serif" font-size="10.00">string</text>
<polyline fill="none" stroke="#bfbfbf" points="206,-352.5 250,-352.5 "/>
<text text-anchor="middle" x="228" y="-340.5" font-family="Helvetica,sans-Serif" font-size="10.00"> </text>
<polyline fill="none" stroke="#bfbfbf" points="206,-333.5 250,-333.5 "/>
<text text-anchor="middle" x="228" y="-321.5" font-family="Helvetica,sans-Serif" font-size="10.00"> </text>
</a>
</g>
</g>
<!-- Node4&#45;&gt;Node1 -->
<g id="edge3" class="edge">
<title>Node4&#45;&gt;Node1</title>
<path fill="none" stroke="#404040" d="M221.95,-314.02C216.42,-289.01 207.77,-251.4 199,-219 198.42,-216.85 197.83,-214.69 197.22,-212.51"/>
<polygon fill="none" stroke="#404040" points="197.16,-212.28 191.68,-207.59 193.9,-200.73 199.38,-205.42 197.16,-212.28"/>
<text text-anchor="middle" x="259" y="-255" font-family="Helvetica,sans-Serif" font-size="10.00"> &#45;address_string_</text>
</g>
</g>
</svg>
