<?xml version="1.0" encoding="UTF-8" standalone="no"?>
<!DOCTYPE svg PUBLIC "-//W3C//DTD SVG 1.1//EN"
 "http://www.w3.org/Graphics/SVG/1.1/DTD/svg11.dtd">
<!-- Generated by graphviz version 2.43.0 (0)
 -->
<!-- Title: signal_easel::psk::Modulator Pages: 1 -->
<svg width="1319pt" height="667pt"
 viewBox="0.00 0.00 1318.74 667.00" xmlns="http://www.w3.org/2000/svg" xmlns:xlink="http://www.w3.org/1999/xlink">
<g id="graph0" class="graph" transform="scale(1 1) rotate(0) translate(4 663)">
<title>signal_easel::psk::Modulator</title>
<!-- Node1 -->
<g id="node1" class="node">
<title>Node1</title>
<g id="a_node1"><a xlink:title="PSK Modulator.">
<polygon fill="#bfbfbf" stroke="black" points="728.24,-0.5 728.24,-156.5 835.24,-156.5 835.24,-0.5 728.24,-0.5"/>
<text text-anchor="start" x="736.24" y="-144.5" font-family="Helvetica,sans-Serif" font-size="10.00">signal_easel::psk::</text>
<text text-anchor="middle" x="781.74" y="-133.5" font-family="Helvetica,sans-Serif" font-size="10.00">Modulator</text>
<polyline fill="none" stroke="black" points="728.24,-126.5 835.24,-126.5 "/>
<text text-anchor="middle" x="781.74" y="-114.5" font-family="Helvetica,sans-Serif" font-size="10.00"> </text>
<polyline fill="none" stroke="black" points="728.24,-107.5 835.24,-107.5 "/>
<text text-anchor="start" x="736.24" y="-95.5" font-family="Helvetica,sans-Serif" font-size="10.00">+ Modulator()</text>
<text text-anchor="start" x="736.24" y="-84.5" font-family="Helvetica,sans-Serif" font-size="10.00">+ ~Modulator()</text>
<text text-anchor="start" x="736.24" y="-73.5" font-family="Helvetica,sans-Serif" font-size="10.00">+ encodeString()</text>
<text text-anchor="start" x="736.24" y="-62.5" font-family="Helvetica,sans-Serif" font-size="10.00">&#45; addPostamble()</text>
<text text-anchor="start" x="736.24" y="-51.5" font-family="Helvetica,sans-Serif" font-size="10.00">&#45; addPreamble()</text>
<text text-anchor="start" x="736.24" y="-40.5" font-family="Helvetica,sans-Serif" font-size="10.00">&#45; addSymbol()</text>
<text text-anchor="start" x="736.24" y="-29.5" font-family="Helvetica,sans-Serif" font-size="10.00">&#45; addVaricode()</text>
<text text-anchor="start" x="736.24" y="-18.5" font-family="Helvetica,sans-Serif" font-size="10.00">&#45; encodeBpsk()</text>
<text text-anchor="start" x="736.24" y="-7.5" font-family="Helvetica,sans-Serif" font-size="10.00">&#45; encodeQpsk()</text>
</a>
</g>
</g>
<!-- Node2 -->
<g id="node2" class="node">
<title>Node2</title>
<g id="a_node2"><a xlink:href="classsignal__easel_1_1Modulator.html" target="_top" xlink:title="The abstract base class for all modulators that turn data into audio.">
<polygon fill="none" stroke="black" points="172.74,-221 172.74,-377 324.74,-377 324.74,-221 172.74,-221"/>
<text text-anchor="middle" x="248.74" y="-365" font-family="Helvetica,sans-Serif" font-size="10.00">signal_easel::Modulator</text>
<polyline fill="none" stroke="black" points="172.74,-358 324.74,-358 "/>
<text text-anchor="middle" x="248.74" y="-346" font-family="Helvetica,sans-Serif" font-size="10.00"> </text>
<polyline fill="none" stroke="black" points="172.74,-339 324.74,-339 "/>
<text text-anchor="start" x="180.74" y="-327" font-family="Helvetica,sans-Serif" font-size="10.00">+ Modulator()</text>
<text text-anchor="start" x="180.74" y="-316" font-family="Helvetica,sans-Serif" font-size="10.00">+ ~Modulator()</text>
<text text-anchor="start" x="180.74" y="-305" font-family="Helvetica,sans-Serif" font-size="10.00">+ clearBuffer()</text>
<text text-anchor="start" x="180.74" y="-294" font-family="Helvetica,sans-Serif" font-size="10.00">+ writeToFile()</text>
<text text-anchor="start" x="180.74" y="-283" font-family="Helvetica,sans-Serif" font-size="10.00">+ writeToPulseAudio()</text>
<text text-anchor="start" x="180.74" y="-272" font-family="Helvetica,sans-Serif" font-size="10.00"># addAudioSample()</text>
<text text-anchor="start" x="180.74" y="-261" font-family="Helvetica,sans-Serif" font-size="10.00"># addAudioSampleDouble()</text>
<text text-anchor="start" x="180.74" y="-250" font-family="Helvetica,sans-Serif" font-size="10.00"># addSilence()</text>
<text text-anchor="start" x="180.74" y="-239" font-family="Helvetica,sans-Serif" font-size="10.00"># addSineWave()</text>
<text text-anchor="start" x="180.74" y="-228" font-family="Helvetica,sans-Serif" font-size="10.00">&#45; addMorseCode()</text>
</a>
</g>
</g>
<!-- Node2&#45;&gt;Node1 -->
<g id="edge1" class="edge">
<title>Node2&#45;&gt;Node1</title>
<path fill="none" stroke="midnightblue" d="M334.32,-262.92C445.3,-217.42 635.57,-139.42 728.09,-101.5"/>
<polygon fill="none" stroke="midnightblue" points="332.75,-259.78 324.82,-266.81 335.41,-266.26 332.75,-259.78"/>
</g>
<!-- Node3 -->
<g id="node3" class="node">
<title>Node3</title>
<g id="a_node3"><a xlink:title=" ">
<polygon fill="none" stroke="#bfbfbf" points="185.74,-601.5 185.74,-658.5 235.74,-658.5 235.74,-601.5 185.74,-601.5"/>
<text text-anchor="middle" x="210.74" y="-646.5" font-family="Helvetica,sans-Serif" font-size="10.00">double</text>
<polyline fill="none" stroke="#bfbfbf" points="185.74,-639.5 235.74,-639.5 "/>
<text text-anchor="middle" x="210.74" y="-627.5" font-family="Helvetica,sans-Serif" font-size="10.00"> </text>
<polyline fill="none" stroke="#bfbfbf" points="185.74,-620.5 235.74,-620.5 "/>
<text text-anchor="middle" x="210.74" y="-608.5" font-family="Helvetica,sans-Serif" font-size="10.00"> </text>
</a>
</g>
</g>
<!-- Node3&#45;&gt;Node1 -->
<g id="edge8" class="edge">
<title>Node3&#45;&gt;Node1</title>
<path fill="none" stroke="#404040" d="M185.7,-618.78C137.31,-597.32 33.28,-542.29 5.74,-456 -33.85,-331.91 151.18,-211.88 163.74,-204 255.67,-146.37 575.89,-103.33 715.65,-86.85"/>
<polygon fill="none" stroke="#404040" points="715.88,-86.82 721.38,-82.15 727.8,-85.43 722.3,-90.1 715.88,-86.82"/>
<text text-anchor="middle" x="58.24" y="-437" font-family="Helvetica,sans-Serif" font-size="10.00"> &#45;angle_delta_</text>
<text text-anchor="middle" x="58.24" y="-426" font-family="Helvetica,sans-Serif" font-size="10.00">&#45;carrier_wave_angle_</text>
</g>
<!-- Node3&#45;&gt;Node2 -->
<g id="edge2" class="edge">
<title>Node3&#45;&gt;Node2</title>
<path fill="none" stroke="#404040" d="M211.73,-601.49C213.02,-570.45 215.74,-518.48 220.74,-474 223.85,-446.32 228.29,-416.33 232.72,-389.16"/>
<polygon fill="none" stroke="#404040" points="232.73,-389.15 229.76,-382.57 234.68,-377.31 237.65,-383.88 232.73,-389.15"/>
<text text-anchor="middle" x="270.24" y="-500.5" font-family="Helvetica,sans-Serif" font-size="10.00"> &#45;sine_wave_phase_</text>
</g>
<!-- Node5 -->
<g id="node5" class="node">
<title>Node5</title>
<g id="a_node5"><a xlink:href="structsignal__easel_1_1Settings.html" target="_top" xlink:title="The universal settings for MWAV.">
<polygon fill="none" stroke="black" points="328.24,-474.5 328.24,-531.5 451.24,-531.5 451.24,-474.5 328.24,-474.5"/>
<text text-anchor="middle" x="389.74" y="-519.5" font-family="Helvetica,sans-Serif" font-size="10.00">signal_easel::Settings</text>
<polyline fill="none" stroke="black" points="328.24,-512.5 451.24,-512.5 "/>
<text text-anchor="middle" x="389.74" y="-500.5" font-family="Helvetica,sans-Serif" font-size="10.00"> </text>
<polyline fill="none" stroke="black" points="328.24,-493.5 451.24,-493.5 "/>
<text text-anchor="middle" x="389.74" y="-481.5" font-family="Helvetica,sans-Serif" font-size="10.00"> </text>
</a>
</g>
</g>
<!-- Node3&#45;&gt;Node5 -->
<g id="edge5" class="edge">
<title>Node3&#45;&gt;Node5</title>
<path fill="none" stroke="#404040" d="M234.69,-601.37C249.87,-585 270.59,-564.65 291.74,-550 299.71,-544.48 308.43,-539.32 317.3,-534.6"/>
<polygon fill="none" stroke="#404040" points="317.45,-534.52 320.97,-528.23 328.14,-529.06 324.61,-535.35 317.45,-534.52"/>
<text text-anchor="middle" x="334.74" y="-575" font-family="Helvetica,sans-Serif" font-size="10.00"> +amplitude</text>
<text text-anchor="start" x="291.74" y="-564" font-family="Helvetica,sans-Serif" font-size="10.00">+call_sign_pause</text>
<text text-anchor="middle" x="334.74" y="-553" font-family="Helvetica,sans-Serif" font-size="10.00">_seconds</text>
</g>
<!-- Node4 -->
<g id="node4" class="node">
<title>Node4</title>
<g id="a_node4"><a xlink:title=" ">
<polygon fill="none" stroke="#bfbfbf" points="68.74,-474.5 68.74,-531.5 172.74,-531.5 172.74,-474.5 68.74,-474.5"/>
<text text-anchor="middle" x="120.74" y="-519.5" font-family="Helvetica,sans-Serif" font-size="10.00">vector&lt; int16_t &gt;</text>
<polyline fill="none" stroke="#bfbfbf" points="68.74,-512.5 172.74,-512.5 "/>
<text text-anchor="middle" x="120.74" y="-500.5" font-family="Helvetica,sans-Serif" font-size="10.00"> </text>
<polyline fill="none" stroke="#bfbfbf" points="68.74,-493.5 172.74,-493.5 "/>
<text text-anchor="middle" x="120.74" y="-481.5" font-family="Helvetica,sans-Serif" font-size="10.00"> </text>
</a>
</g>
</g>
<!-- Node4&#45;&gt;Node2 -->
<g id="edge3" class="edge">
<title>Node4&#45;&gt;Node2</title>
<path fill="none" stroke="#404040" d="M115.41,-474.35C113.17,-455.87 112.83,-431.46 121.74,-412 131.19,-391.37 146.5,-372.99 163.26,-357.39"/>
<polygon fill="none" stroke="#404040" points="163.72,-356.98 165.55,-350 172.7,-349.01 170.86,-355.99 163.72,-356.98"/>
<text text-anchor="middle" x="160.74" y="-431.5" font-family="Helvetica,sans-Serif" font-size="10.00"> #audio_buffer_</text>
</g>
<!-- Node5&#45;&gt;Node2 -->
<g id="edge4" class="edge">
<title>Node5&#45;&gt;Node2</title>
<path fill="none" stroke="#404040" d="M353.74,-474.49C347.35,-468.76 341.05,-462.47 335.74,-456 318.86,-435.42 303.51,-411.09 290.58,-387.86"/>
<polygon fill="none" stroke="#404040" points="290.55,-387.81 284.16,-384.45 284.8,-377.27 291.19,-380.62 290.55,-387.81"/>
<text text-anchor="middle" x="363.74" y="-431.5" font-family="Helvetica,sans-Serif" font-size="10.00"> #settings_</text>
</g>
<!-- Node8 -->
<g id="node8" class="node">
<title>Node8</title>
<g id="a_node8"><a xlink:href="structsignal__easel_1_1psk_1_1Settings.html" target="_top" xlink:title="Settings for PSK modulation.">
<polygon fill="none" stroke="black" points="525.24,-265 525.24,-333 632.24,-333 632.24,-265 525.24,-265"/>
<text text-anchor="start" x="533.24" y="-321" font-family="Helvetica,sans-Serif" font-size="10.00">signal_easel::psk::</text>
<text text-anchor="middle" x="578.74" y="-310" font-family="Helvetica,sans-Serif" font-size="10.00">Settings</text>
<polyline fill="none" stroke="black" points="525.24,-303 632.24,-303 "/>
<text text-anchor="middle" x="578.74" y="-291" font-family="Helvetica,sans-Serif" font-size="10.00"> </text>
<polyline fill="none" stroke="black" points="525.24,-284 632.24,-284 "/>
<text text-anchor="middle" x="578.74" y="-272" font-family="Helvetica,sans-Serif" font-size="10.00"> </text>
</a>
</g>
</g>
<!-- Node5&#45;&gt;Node8 -->
<g id="edge10" class="edge">
<title>Node5&#45;&gt;Node8</title>
<path fill="none" stroke="midnightblue" d="M417.68,-466.2C431.17,-449.38 447.86,-429.28 463.74,-412 489.11,-384.4 519.57,-354.89 542.76,-333.09"/>
<polygon fill="none" stroke="midnightblue" points="414.82,-464.16 411.32,-474.16 420.29,-468.53 414.82,-464.16"/>
</g>
<!-- Node6 -->
<g id="node6" class="node">
<title>Node6</title>
<g id="a_node6"><a xlink:title=" ">
<polygon fill="none" stroke="#bfbfbf" points="420.24,-601.5 420.24,-658.5 503.24,-658.5 503.24,-601.5 420.24,-601.5"/>
<text text-anchor="middle" x="461.74" y="-646.5" font-family="Helvetica,sans-Serif" font-size="10.00">CallSignMode</text>
<polyline fill="none" stroke="#bfbfbf" points="420.24,-639.5 503.24,-639.5 "/>
<text text-anchor="middle" x="461.74" y="-627.5" font-family="Helvetica,sans-Serif" font-size="10.00"> </text>
<polyline fill="none" stroke="#bfbfbf" points="420.24,-620.5 503.24,-620.5 "/>
<text text-anchor="middle" x="461.74" y="-608.5" font-family="Helvetica,sans-Serif" font-size="10.00"> </text>
</a>
</g>
</g>
<!-- Node6&#45;&gt;Node5 -->
<g id="edge6" class="edge">
<title>Node6&#45;&gt;Node5</title>
<path fill="none" stroke="#404040" d="M457.88,-601.16C454.76,-585.29 449.26,-565.54 439.74,-550 437.8,-546.83 435.58,-543.75 433.19,-540.78"/>
<polygon fill="none" stroke="#404040" points="433.04,-540.62 426.06,-538.83 425.02,-531.69 432.01,-533.48 433.04,-540.62"/>
<text text-anchor="middle" x="496.74" y="-564" font-family="Helvetica,sans-Serif" font-size="10.00"> +call_sign_mode</text>
</g>
<!-- Node7 -->
<g id="node7" class="node">
<title>Node7</title>
<g id="a_node7"><a xlink:title=" ">
<polygon fill="none" stroke="#bfbfbf" points="357.74,-601.5 357.74,-658.5 401.74,-658.5 401.74,-601.5 357.74,-601.5"/>
<text text-anchor="middle" x="379.74" y="-646.5" font-family="Helvetica,sans-Serif" font-size="10.00">string</text>
<polyline fill="none" stroke="#bfbfbf" points="357.74,-639.5 401.74,-639.5 "/>
<text text-anchor="middle" x="379.74" y="-627.5" font-family="Helvetica,sans-Serif" font-size="10.00"> </text>
<polyline fill="none" stroke="#bfbfbf" points="357.74,-620.5 401.74,-620.5 "/>
<text text-anchor="middle" x="379.74" y="-608.5" font-family="Helvetica,sans-Serif" font-size="10.00"> </text>
</a>
</g>
</g>
<!-- Node7&#45;&gt;Node5 -->
<g id="edge7" class="edge">
<title>Node7&#45;&gt;Node5</title>
<path fill="none" stroke="#404040" d="M381.2,-601.19C382.06,-586.04 383.28,-566.98 384.74,-550 384.92,-547.96 385.11,-545.88 385.31,-543.77"/>
<polygon fill="none" stroke="#404040" points="385.32,-543.65 381.94,-537.28 386.53,-531.71 389.9,-538.08 385.32,-543.65"/>
<text text-anchor="middle" x="412.24" y="-564" font-family="Helvetica,sans-Serif" font-size="10.00"> +call_sign</text>
</g>
<!-- Node8&#45;&gt;Node1 -->
<g id="edge9" class="edge">
<title>Node8&#45;&gt;Node1</title>
<path fill="none" stroke="#404040" d="M609.57,-264.81C638.63,-233.54 683.03,-185.74 719.47,-146.53"/>
<polygon fill="none" stroke="#404040" points="719.9,-146.07 721.05,-138.95 728.06,-137.28 726.91,-144.4 719.9,-146.07"/>
<text text-anchor="middle" x="717.74" y="-178" font-family="Helvetica,sans-Serif" font-size="10.00"> &#45;settings_</text>
</g>
<!-- Node9 -->
<g id="node9" class="node">
<title>Node9</title>
<g id="a_node9"><a xlink:title=" ">
<polygon fill="none" stroke="#bfbfbf" points="525.74,-474.5 525.74,-531.5 569.74,-531.5 569.74,-474.5 525.74,-474.5"/>
<text text-anchor="middle" x="547.74" y="-519.5" font-family="Helvetica,sans-Serif" font-size="10.00">Mode</text>
<polyline fill="none" stroke="#bfbfbf" points="525.74,-512.5 569.74,-512.5 "/>
<text text-anchor="middle" x="547.74" y="-500.5" font-family="Helvetica,sans-Serif" font-size="10.00"> </text>
<polyline fill="none" stroke="#bfbfbf" points="525.74,-493.5 569.74,-493.5 "/>
<text text-anchor="middle" x="547.74" y="-481.5" font-family="Helvetica,sans-Serif" font-size="10.00"> </text>
</a>
</g>
</g>
<!-- Node9&#45;&gt;Node8 -->
<g id="edge11" class="edge">
<title>Node9&#45;&gt;Node8</title>
<path fill="none" stroke="#404040" d="M546.27,-474.3C545.75,-456.43 545.89,-432.74 548.74,-412 551.82,-389.6 557.97,-365.29 563.91,-345.07"/>
<polygon fill="none" stroke="#404040" points="563.97,-344.85 561.88,-337.95 567.45,-333.37 569.54,-340.27 563.97,-344.85"/>
<text text-anchor="middle" x="568.74" y="-431.5" font-family="Helvetica,sans-Serif" font-size="10.00"> +mode</text>
</g>
<!-- Node10 -->
<g id="node10" class="node">
<title>Node10</title>
<g id="a_node10"><a xlink:title=" ">
<polygon fill="none" stroke="#bfbfbf" points="790.74,-474.5 790.74,-531.5 846.74,-531.5 846.74,-474.5 790.74,-474.5"/>
<text text-anchor="middle" x="818.74" y="-519.5" font-family="Helvetica,sans-Serif" font-size="10.00">uint32_t</text>
<polyline fill="none" stroke="#bfbfbf" points="790.74,-512.5 846.74,-512.5 "/>
<text text-anchor="middle" x="818.74" y="-500.5" font-family="Helvetica,sans-Serif" font-size="10.00"> </text>
<polyline fill="none" stroke="#bfbfbf" points="790.74,-493.5 846.74,-493.5 "/>
<text text-anchor="middle" x="818.74" y="-481.5" font-family="Helvetica,sans-Serif" font-size="10.00"> </text>
</a>
</g>
</g>
<!-- Node10&#45;&gt;Node1 -->
<g id="edge19" class="edge">
<title>Node10&#45;&gt;Node1</title>
<path fill="none" stroke="#404040" d="M816.31,-474.28C810.97,-413.28 798,-265.17 789.56,-168.72"/>
<polygon fill="none" stroke="#404040" points="789.54,-168.59 785.04,-162.97 788.5,-156.64 793.01,-162.27 789.54,-168.59"/>
<text text-anchor="middle" x="866.74" y="-296.5" font-family="Helvetica,sans-Serif" font-size="10.00"> &#45;samples_per_symbol_</text>
</g>
<!-- Node10&#45;&gt;Node8 -->
<g id="edge12" class="edge">
<title>Node10&#45;&gt;Node8</title>
<path fill="none" stroke="#404040" d="M790.73,-496.12C766.34,-489.77 731.29,-477.54 707.74,-456 691.46,-441.1 697.56,-429.96 684.74,-412 666.86,-386.94 643.66,-361.8 623.52,-341.7"/>
<polygon fill="none" stroke="#404040" points="623.36,-341.55 616.28,-340.19 614.81,-333.13 621.89,-334.49 623.36,-341.55"/>
<text text-anchor="middle" x="756.24" y="-442.5" font-family="Helvetica,sans-Serif" font-size="10.00"> +carrier_frequency</text>
<text text-anchor="middle" x="756.24" y="-431.5" font-family="Helvetica,sans-Serif" font-size="10.00">+postamble_length</text>
<text text-anchor="middle" x="756.24" y="-420.5" font-family="Helvetica,sans-Serif" font-size="10.00">+preamble_length</text>
</g>
<!-- Node13 -->
<g id="node13" class="node">
<title>Node13</title>
<g id="a_node13"><a xlink:href="classsignal__easel_1_1BitStream.html" target="_top" xlink:title=" ">
<polygon fill="none" stroke="black" points="953.24,-204.5 953.24,-393.5 1100.24,-393.5 1100.24,-204.5 953.24,-204.5"/>
<text text-anchor="middle" x="1026.74" y="-381.5" font-family="Helvetica,sans-Serif" font-size="10.00">signal_easel::BitStream</text>
<polyline fill="none" stroke="black" points="953.24,-374.5 1100.24,-374.5 "/>
<text text-anchor="middle" x="1026.74" y="-362.5" font-family="Helvetica,sans-Serif" font-size="10.00"> </text>
<polyline fill="none" stroke="black" points="953.24,-355.5 1100.24,-355.5 "/>
<text text-anchor="start" x="961.24" y="-343.5" font-family="Helvetica,sans-Serif" font-size="10.00">+ addBits()</text>
<text text-anchor="start" x="961.24" y="-332.5" font-family="Helvetica,sans-Serif" font-size="10.00">+ addOneBit()</text>
<text text-anchor="start" x="961.24" y="-321.5" font-family="Helvetica,sans-Serif" font-size="10.00">+ addZeroBit()</text>
<text text-anchor="start" x="961.24" y="-310.5" font-family="Helvetica,sans-Serif" font-size="10.00">+ clear()</text>
<text text-anchor="start" x="961.24" y="-299.5" font-family="Helvetica,sans-Serif" font-size="10.00">+ dumpBitStream()</text>
<text text-anchor="start" x="961.24" y="-288.5" font-family="Helvetica,sans-Serif" font-size="10.00">+ dumpBitStreamAsAscii()</text>
<text text-anchor="start" x="961.24" y="-277.5" font-family="Helvetica,sans-Serif" font-size="10.00">+ dumpBitStreamAsHex()</text>
<text text-anchor="start" x="961.24" y="-266.5" font-family="Helvetica,sans-Serif" font-size="10.00">+ getBitStreamLength()</text>
<text text-anchor="start" x="961.24" y="-255.5" font-family="Helvetica,sans-Serif" font-size="10.00">+ getBitVector()</text>
<text text-anchor="start" x="961.24" y="-244.5" font-family="Helvetica,sans-Serif" font-size="10.00">+ peakNextBit()</text>
<text text-anchor="start" x="961.24" y="-233.5" font-family="Helvetica,sans-Serif" font-size="10.00">+ peakNextByte()</text>
<text text-anchor="start" x="961.24" y="-222.5" font-family="Helvetica,sans-Serif" font-size="10.00">+ popNextBit()</text>
<text text-anchor="start" x="961.24" y="-211.5" font-family="Helvetica,sans-Serif" font-size="10.00">+ pushBufferToBitStream()</text>
</a>
</g>
</g>
<!-- Node10&#45;&gt;Node13 -->
<g id="edge16" class="edge">
<title>Node10&#45;&gt;Node13</title>
<path fill="none" stroke="#404040" d="M826.72,-474.4C833.97,-454.21 846.64,-427.69 866.74,-412 892.74,-391.7 910.31,-410.72 938.74,-394 940.12,-393.19 941.5,-392.35 942.86,-391.48"/>
<polygon fill="none" stroke="#404040" points="943.27,-391.19 945.93,-384.49 953.14,-384.36 950.48,-391.06 943.27,-391.19"/>
<text text-anchor="middle" x="916.24" y="-431.5" font-family="Helvetica,sans-Serif" font-size="10.00"> &#45;bit_stream_buffer_</text>
</g>
<!-- Node11 -->
<g id="node11" class="node">
<title>Node11</title>
<g id="a_node11"><a xlink:title=" ">
<polygon fill="none" stroke="#bfbfbf" points="587.74,-474.5 587.74,-531.5 663.74,-531.5 663.74,-474.5 587.74,-474.5"/>
<text text-anchor="middle" x="625.74" y="-519.5" font-family="Helvetica,sans-Serif" font-size="10.00">SymbolRate</text>
<polyline fill="none" stroke="#bfbfbf" points="587.74,-512.5 663.74,-512.5 "/>
<text text-anchor="middle" x="625.74" y="-500.5" font-family="Helvetica,sans-Serif" font-size="10.00"> </text>
<polyline fill="none" stroke="#bfbfbf" points="587.74,-493.5 663.74,-493.5 "/>
<text text-anchor="middle" x="625.74" y="-481.5" font-family="Helvetica,sans-Serif" font-size="10.00"> </text>
</a>
</g>
</g>
<!-- Node11&#45;&gt;Node8 -->
<g id="edge13" class="edge">
<title>Node11&#45;&gt;Node8</title>
<path fill="none" stroke="#404040" d="M616.91,-474.38C615.1,-468.35 613.28,-461.98 611.74,-456 602.18,-418.84 593.3,-376.19 587.16,-344.89"/>
<polygon fill="none" stroke="#404040" points="587.15,-344.84 582.08,-339.71 584.87,-333.06 589.94,-338.19 587.15,-344.84"/>
<text text-anchor="middle" x="648.24" y="-431.5" font-family="Helvetica,sans-Serif" font-size="10.00"> +symbol_rate</text>
</g>
<!-- Node12 -->
<g id="node12" class="node">
<title>Node12</title>
<g id="a_node12"><a xlink:title=" ">
<polygon fill="none" stroke="#bfbfbf" points="469.74,-474.5 469.74,-531.5 507.74,-531.5 507.74,-474.5 469.74,-474.5"/>
<text text-anchor="middle" x="488.74" y="-519.5" font-family="Helvetica,sans-Serif" font-size="10.00">bool</text>
<polyline fill="none" stroke="#bfbfbf" points="469.74,-512.5 507.74,-512.5 "/>
<text text-anchor="middle" x="488.74" y="-500.5" font-family="Helvetica,sans-Serif" font-size="10.00"> </text>
<polyline fill="none" stroke="#bfbfbf" points="469.74,-493.5 507.74,-493.5 "/>
<text text-anchor="middle" x="488.74" y="-481.5" font-family="Helvetica,sans-Serif" font-size="10.00"> </text>
</a>
</g>
</g>
<!-- Node12&#45;&gt;Node8 -->
<g id="edge14" class="edge">
<title>Node12&#45;&gt;Node8</title>
<path fill="none" stroke="#404040" d="M476.23,-474.43C469.77,-456.2 464.76,-432.05 472.74,-412 483.61,-384.7 504.65,-360.22 525.13,-341.16"/>
<polygon fill="none" stroke="#404040" points="525.22,-341.08 527.02,-334.1 534.15,-333.07 532.36,-340.05 525.22,-341.08"/>
<text text-anchor="middle" x="507.24" y="-431.5" font-family="Helvetica,sans-Serif" font-size="10.00"> +fldigi_mode</text>
</g>
<!-- Node13&#45;&gt;Node1 -->
<g id="edge15" class="edge">
<title>Node13&#45;&gt;Node1</title>
<path fill="none" stroke="#404040" d="M953.12,-217.71C948.33,-213 943.51,-208.39 938.74,-204 909.2,-176.79 874.38,-148.8 845.04,-126.27"/>
<polygon fill="none" stroke="#404040" points="844.85,-126.13 837.66,-125.67 835.32,-118.85 842.51,-119.31 844.85,-126.13"/>
<text text-anchor="middle" x="950.24" y="-178" font-family="Helvetica,sans-Serif" font-size="10.00"> &#45;bit_stream_</text>
</g>
<!-- Node14 -->
<g id="node14" class="node">
<title>Node14</title>
<g id="a_node14"><a xlink:title=" ">
<polygon fill="none" stroke="#bfbfbf" points="1103.24,-474.5 1103.24,-531.5 1132.24,-531.5 1132.24,-474.5 1103.24,-474.5"/>
<text text-anchor="middle" x="1117.74" y="-519.5" font-family="Helvetica,sans-Serif" font-size="10.00">int</text>
<polyline fill="none" stroke="#bfbfbf" points="1103.24,-512.5 1132.24,-512.5 "/>
<text text-anchor="middle" x="1117.74" y="-500.5" font-family="Helvetica,sans-Serif" font-size="10.00"> </text>
<polyline fill="none" stroke="#bfbfbf" points="1103.24,-493.5 1132.24,-493.5 "/>
<text text-anchor="middle" x="1117.74" y="-481.5" font-family="Helvetica,sans-Serif" font-size="10.00"> </text>
</a>
</g>
</g>
<!-- Node14&#45;&gt;Node1 -->
<g id="edge20" class="edge">
<title>Node14&#45;&gt;Node1</title>
<path fill="none" stroke="#404040" d="M1132.43,-490.92C1142.22,-482.55 1154.27,-470.12 1159.74,-456 1189.21,-380.03 1181.76,-285.79 1109.74,-204 1042.16,-127.25 922.13,-97.62 847.53,-86.32"/>
<polygon fill="none" stroke="#404040" points="847.38,-86.3 840.88,-89.4 835.51,-84.59 842.01,-81.49 847.38,-86.3"/>
<text text-anchor="middle" x="1243.24" y="-296.5" font-family="Helvetica,sans-Serif" font-size="10.00"> &#45;last_symbol_end_filtered_</text>
</g>
<!-- Node14&#45;&gt;Node13 -->
<g id="edge17" class="edge">
<title>Node14&#45;&gt;Node13</title>
<path fill="none" stroke="#404040" d="M1102.79,-493.38C1090.17,-485.32 1072.64,-472.13 1062.74,-456 1053.32,-440.65 1046.36,-423.07 1041.22,-405.38"/>
<polygon fill="none" stroke="#404040" points="1041.21,-405.35 1035.79,-400.6 1038.1,-393.76 1043.52,-398.52 1041.21,-405.35"/>
<text text-anchor="middle" x="1111.24" y="-448" font-family="Helvetica,sans-Serif" font-size="10.00"> &#45;bit_stream_index_</text>
<text text-anchor="start" x="1062.74" y="-437" font-family="Helvetica,sans-Serif" font-size="10.00">&#45;bit_stream_length</text>
<text text-anchor="middle" x="1111.24" y="-426" font-family="Helvetica,sans-Serif" font-size="10.00">_</text>
<text text-anchor="middle" x="1111.24" y="-415" font-family="Helvetica,sans-Serif" font-size="10.00">&#45;bit_stream_offset_</text>
</g>
<!-- Node15 -->
<g id="node15" class="node">
<title>Node15</title>
<g id="a_node15"><a xlink:title=" ">
<polygon fill="none" stroke="#bfbfbf" points="918.74,-474.5 918.74,-531.5 1028.74,-531.5 1028.74,-474.5 918.74,-474.5"/>
<text text-anchor="middle" x="973.74" y="-519.5" font-family="Helvetica,sans-Serif" font-size="10.00">vector&lt; uint32_t &gt;</text>
<polyline fill="none" stroke="#bfbfbf" points="918.74,-512.5 1028.74,-512.5 "/>
<text text-anchor="middle" x="973.74" y="-500.5" font-family="Helvetica,sans-Serif" font-size="10.00"> </text>
<polyline fill="none" stroke="#bfbfbf" points="918.74,-493.5 1028.74,-493.5 "/>
<text text-anchor="middle" x="973.74" y="-481.5" font-family="Helvetica,sans-Serif" font-size="10.00"> </text>
</a>
</g>
</g>
<!-- Node15&#45;&gt;Node13 -->
<g id="edge18" class="edge">
<title>Node15&#45;&gt;Node13</title>
<path fill="none" stroke="#404040" d="M971.08,-474.48C970.06,-456.48 970.08,-432.57 974.74,-412 975.24,-409.82 975.78,-407.63 976.36,-405.44"/>
<polygon fill="none" stroke="#404040" points="976.42,-405.22 974.29,-398.33 979.83,-393.71 981.96,-400.6 976.42,-405.22"/>
<text text-anchor="middle" x="1007.24" y="-431.5" font-family="Helvetica,sans-Serif" font-size="10.00"> &#45;bit_stream_</text>
</g>
</g>
</svg>
