<?xml version="1.0" encoding="UTF-8" standalone="no"?>
<!DOCTYPE svg PUBLIC "-//W3C//DTD SVG 1.1//EN"
 "http://www.w3.org/Graphics/SVG/1.1/DTD/svg11.dtd">
<!-- Generated by graphviz version 2.43.0 (0)
 -->
<!-- Title: signal_easel::Modulator::addSineWave Pages: 1 -->
<svg width="952pt" height="195pt"
 viewBox="0.00 0.00 952.00 194.50" xmlns="http://www.w3.org/2000/svg" xmlns:xlink="http://www.w3.org/1999/xlink">
<g id="graph0" class="graph" transform="scale(1 1) rotate(0) translate(4 190.5)">
<title>signal_easel::Modulator::addSineWave</title>
<!-- Node1 -->
<g id="node1" class="node">
<title>Node1</title>
<g id="a_node1"><a xlink:title="Add a sine wave to the audio buffer.">
<polygon fill="#bfbfbf" stroke="black" points="811,-59 811,-89 944,-89 944,-59 811,-59"/>
<text text-anchor="start" x="819" y="-77" font-family="Helvetica,sans-Serif" font-size="10.00">signal_easel::Modulator</text>
<text text-anchor="middle" x="877.5" y="-66" font-family="Helvetica,sans-Serif" font-size="10.00">::addSineWave</text>
</a>
</g>
</g>
<!-- Node2 -->
<g id="node2" class="node">
<title>Node2</title>
<g id="a_node2"><a xlink:href="classsignal__easel_1_1Modulator.html#a67263d2a46fdb510adb0b4211699bf26" target="_top" xlink:title="Add morse code to the output audio.">
<polygon fill="none" stroke="black" points="642,-108 642,-138 775,-138 775,-108 642,-108"/>
<text text-anchor="start" x="650" y="-126" font-family="Helvetica,sans-Serif" font-size="10.00">signal_easel::Modulator</text>
<text text-anchor="middle" x="708.5" y="-115" font-family="Helvetica,sans-Serif" font-size="10.00">::addMorseCode</text>
</a>
</g>
</g>
<!-- Node1&#45;&gt;Node2 -->
<g id="edge1" class="edge">
<title>Node1&#45;&gt;Node2</title>
<path fill="none" stroke="midnightblue" d="M815.27,-91.97C797.37,-97.22 778.01,-102.9 760.8,-107.95"/>
<polygon fill="midnightblue" stroke="midnightblue" points="816.42,-95.28 825.03,-89.1 814.45,-88.56 816.42,-95.28"/>
</g>
<!-- Node7 -->
<g id="node7" class="node">
<title>Node7</title>
<g id="a_node7"><a xlink:href="classsignal__easel_1_1sstv_1_1Modulator.html#a4925712af983bce311224cd51c4b9409" target="_top" xlink:title=" ">
<polygon fill="none" stroke="black" points="656.5,-59 656.5,-89 760.5,-89 760.5,-59 656.5,-59"/>
<text text-anchor="start" x="664.5" y="-77" font-family="Helvetica,sans-Serif" font-size="10.00">signal_easel::sstv</text>
<text text-anchor="middle" x="708.5" y="-66" font-family="Helvetica,sans-Serif" font-size="10.00">::Modulator::pulse</text>
</a>
</g>
</g>
<!-- Node1&#45;&gt;Node7 -->
<g id="edge6" class="edge">
<title>Node1&#45;&gt;Node7</title>
<path fill="none" stroke="midnightblue" d="M800.69,-74C787.13,-74 773.3,-74 760.64,-74"/>
<polygon fill="midnightblue" stroke="midnightblue" points="800.98,-77.5 810.98,-74 800.98,-70.5 800.98,-77.5"/>
</g>
<!-- Node13 -->
<g id="node13" class="node">
<title>Node13</title>
<g id="a_node13"><a xlink:href="classsignal__easel_1_1sstv_1_1Modulator.html#ac6c7141bc8b18abd7e08d8c201aadfb2" target="_top" xlink:title=" ">
<polygon fill="none" stroke="black" points="642.5,-10 642.5,-40 774.5,-40 774.5,-10 642.5,-10"/>
<text text-anchor="start" x="650.5" y="-28" font-family="Helvetica,sans-Serif" font-size="10.00">signal_easel::sstv</text>
<text text-anchor="middle" x="708.5" y="-17" font-family="Helvetica,sans-Serif" font-size="10.00">::Modulator::writeBuffer</text>
</a>
</g>
</g>
<!-- Node1&#45;&gt;Node13 -->
<g id="edge13" class="edge">
<title>Node1&#45;&gt;Node13</title>
<path fill="none" stroke="midnightblue" d="M815.27,-56.03C797.37,-50.78 778.01,-45.1 760.8,-40.05"/>
<polygon fill="midnightblue" stroke="midnightblue" points="814.45,-59.44 825.03,-58.9 816.42,-52.72 814.45,-59.44"/>
</g>
<!-- Node3 -->
<g id="node3" class="node">
<title>Node3</title>
<g id="a_node3"><a xlink:href="classsignal__easel_1_1Modulator.html#a39e52e97a95a761b73ba928f8a29e916" target="_top" xlink:title="Clears the audio buffer. Adds the call sign if it&#39;s in the before or before_and_after modes.">
<polygon fill="none" stroke="black" points="461,-156 461,-186 594,-186 594,-156 461,-156"/>
<text text-anchor="start" x="469" y="-174" font-family="Helvetica,sans-Serif" font-size="10.00">signal_easel::Modulator</text>
<text text-anchor="middle" x="527.5" y="-163" font-family="Helvetica,sans-Serif" font-size="10.00">::clearBuffer</text>
</a>
</g>
</g>
<!-- Node2&#45;&gt;Node3 -->
<g id="edge2" class="edge">
<title>Node2&#45;&gt;Node3</title>
<path fill="none" stroke="midnightblue" d="M641.68,-140.65C622.89,-145.69 602.59,-151.13 584.45,-156"/>
<polygon fill="midnightblue" stroke="midnightblue" points="642.6,-144.03 651.35,-138.06 640.79,-137.27 642.6,-144.03"/>
</g>
<!-- Node5 -->
<g id="node5" class="node">
<title>Node5</title>
<g id="a_node5"><a xlink:href="classsignal__easel_1_1Modulator.html#a6ff0b49cd126afe576ac949476268f10" target="_top" xlink:title="Write the audio to a file.">
<polygon fill="none" stroke="black" points="461,-107 461,-137 594,-137 594,-107 461,-107"/>
<text text-anchor="start" x="469" y="-125" font-family="Helvetica,sans-Serif" font-size="10.00">signal_easel::Modulator</text>
<text text-anchor="middle" x="527.5" y="-114" font-family="Helvetica,sans-Serif" font-size="10.00">::writeToFile</text>
</a>
</g>
</g>
<!-- Node2&#45;&gt;Node5 -->
<g id="edge4" class="edge">
<title>Node2&#45;&gt;Node5</title>
<path fill="none" stroke="midnightblue" d="M631.52,-122.58C619.08,-122.51 606.29,-122.43 594.13,-122.37"/>
<polygon fill="midnightblue" stroke="midnightblue" points="631.84,-126.08 641.86,-122.63 631.88,-119.08 631.84,-126.08"/>
</g>
<!-- Node4 -->
<g id="node4" class="node">
<title>Node4</title>
<g id="a_node4"><a xlink:href="classsignal__easel_1_1Modulator.html#aacf988cd7965d448b2da697911c76faf" target="_top" xlink:title="Constructor for the base modulator class.">
<polygon fill="none" stroke="black" points="268.5,-156 268.5,-186 401.5,-186 401.5,-156 268.5,-156"/>
<text text-anchor="start" x="276.5" y="-174" font-family="Helvetica,sans-Serif" font-size="10.00">signal_easel::Modulator</text>
<text text-anchor="middle" x="335" y="-163" font-family="Helvetica,sans-Serif" font-size="10.00">::Modulator</text>
</a>
</g>
</g>
<!-- Node3&#45;&gt;Node4 -->
<g id="edge3" class="edge">
<title>Node3&#45;&gt;Node4</title>
<path fill="none" stroke="midnightblue" d="M450.92,-171C434.64,-171 417.55,-171 401.68,-171"/>
<polygon fill="midnightblue" stroke="midnightblue" points="450.94,-174.5 460.94,-171 450.94,-167.5 450.94,-174.5"/>
</g>
<!-- Node6 -->
<g id="node6" class="node">
<title>Node6</title>
<g id="a_node6"><a xlink:href="afsk__test_8cpp.html#a894b615862c352aa932a7ff5fb85c6dd" target="_top" xlink:title="Encodes a string into an AFSK1200 signal/WAV file and then decodes it.">
<polygon fill="none" stroke="black" points="314.5,-112.5 314.5,-131.5 355.5,-131.5 355.5,-112.5 314.5,-112.5"/>
<text text-anchor="middle" x="335" y="-119.5" font-family="Helvetica,sans-Serif" font-size="10.00">TEST</text>
</a>
</g>
</g>
<!-- Node5&#45;&gt;Node6 -->
<g id="edge5" class="edge">
<title>Node5&#45;&gt;Node6</title>
<path fill="none" stroke="midnightblue" d="M450.82,-122C416.22,-122 378.03,-122 355.57,-122"/>
<polygon fill="midnightblue" stroke="midnightblue" points="450.94,-125.5 460.94,-122 450.94,-118.5 450.94,-125.5"/>
</g>
<!-- Node8 -->
<g id="node8" class="node">
<title>Node8</title>
<g id="a_node8"><a xlink:href="classsignal__easel_1_1sstv_1_1Modulator.html#a9e6343e922e5d6dd312d16c0781b28c4" target="_top" xlink:title=" ">
<polygon fill="none" stroke="black" points="263.5,-61 263.5,-91 406.5,-91 406.5,-61 263.5,-61"/>
<text text-anchor="start" x="271.5" y="-79" font-family="Helvetica,sans-Serif" font-size="10.00">signal_easel::sstv</text>
<text text-anchor="middle" x="335" y="-68" font-family="Helvetica,sans-Serif" font-size="10.00">::Modulator::addPreamble</text>
</a>
</g>
</g>
<!-- Node7&#45;&gt;Node8 -->
<g id="edge7" class="edge">
<title>Node7&#45;&gt;Node8</title>
<path fill="none" stroke="midnightblue" d="M646.01,-74.33C580.19,-74.69 475.9,-75.25 406.73,-75.62"/>
<polygon fill="midnightblue" stroke="midnightblue" points="646.25,-77.83 656.23,-74.28 646.22,-70.83 646.25,-77.83"/>
</g>
<!-- Node11 -->
<g id="node11" class="node">
<title>Node11</title>
<g id="a_node11"><a xlink:href="classsignal__easel_1_1sstv_1_1Modulator.html#acf3f661e744b92527504daff37dc8505" target="_top" xlink:title=" ">
<polygon fill="none" stroke="black" points="449,-10 449,-40 606,-40 606,-10 449,-10"/>
<text text-anchor="start" x="457" y="-28" font-family="Helvetica,sans-Serif" font-size="10.00">signal_easel::sstv</text>
<text text-anchor="middle" x="527.5" y="-17" font-family="Helvetica,sans-Serif" font-size="10.00">::Modulator::encodeScanLine</text>
</a>
</g>
</g>
<!-- Node7&#45;&gt;Node11 -->
<g id="edge10" class="edge">
<title>Node7&#45;&gt;Node11</title>
<path fill="none" stroke="midnightblue" d="M646.4,-57.27C626.02,-51.7 603.45,-45.52 583.56,-40.07"/>
<polygon fill="midnightblue" stroke="midnightblue" points="645.64,-60.69 656.21,-59.96 647.48,-53.94 645.64,-60.69"/>
</g>
<!-- Node9 -->
<g id="node9" class="node">
<title>Node9</title>
<g id="a_node9"><a xlink:href="classsignal__easel_1_1sstv_1_1Modulator.html#a6598802f6a659efde056f846d7eb9d2c" target="_top" xlink:title="Encodes an image into SSTV audio.">
<polygon fill="none" stroke="black" points="77,-33 77,-63 221,-63 221,-33 77,-33"/>
<text text-anchor="start" x="85" y="-51" font-family="Helvetica,sans-Serif" font-size="10.00">signal_easel::sstv</text>
<text text-anchor="middle" x="149" y="-40" font-family="Helvetica,sans-Serif" font-size="10.00">::Modulator::encodeImage</text>
</a>
</g>
</g>
<!-- Node8&#45;&gt;Node9 -->
<g id="edge8" class="edge">
<title>Node8&#45;&gt;Node9</title>
<path fill="none" stroke="midnightblue" d="M253.2,-63.7C242.48,-62.07 231.56,-60.41 221.03,-58.81"/>
<polygon fill="midnightblue" stroke="midnightblue" points="252.97,-67.21 263.39,-65.25 254.03,-60.29 252.97,-67.21"/>
</g>
<!-- Node10 -->
<g id="node10" class="node">
<title>Node10</title>
<g id="a_node10"><a xlink:href="sstv__test_8cpp.html#a81c59728812e528beb650e55bb38fd4b" target="_top" xlink:title=" ">
<polygon fill="none" stroke="black" points="0,-38.5 0,-57.5 41,-57.5 41,-38.5 0,-38.5"/>
<text text-anchor="middle" x="20.5" y="-45.5" font-family="Helvetica,sans-Serif" font-size="10.00">TEST</text>
</a>
</g>
</g>
<!-- Node9&#45;&gt;Node10 -->
<g id="edge9" class="edge">
<title>Node9&#45;&gt;Node10</title>
<path fill="none" stroke="midnightblue" d="M66.92,-48C57.43,-48 48.52,-48 41.15,-48"/>
<polygon fill="midnightblue" stroke="midnightblue" points="66.98,-51.5 76.98,-48 66.98,-44.5 66.98,-51.5"/>
</g>
<!-- Node12 -->
<g id="node12" class="node">
<title>Node12</title>
<g id="a_node12"><a xlink:href="classsignal__easel_1_1sstv_1_1Modulator.html#a5db5191f0447cc4b34fff09fc35c7ffe" target="_top" xlink:title=" ">
<polygon fill="none" stroke="black" points="257,-0.5 257,-41.5 413,-41.5 413,-0.5 257,-0.5"/>
<text text-anchor="start" x="265" y="-29.5" font-family="Helvetica,sans-Serif" font-size="10.00">signal_easel::sstv</text>
<text text-anchor="start" x="265" y="-18.5" font-family="Helvetica,sans-Serif" font-size="10.00">::Modulator::encodeAdjusted</text>
<text text-anchor="middle" x="335" y="-7.5" font-family="Helvetica,sans-Serif" font-size="10.00">Image</text>
</a>
</g>
</g>
<!-- Node11&#45;&gt;Node12 -->
<g id="edge11" class="edge">
<title>Node11&#45;&gt;Node12</title>
<path fill="none" stroke="midnightblue" d="M438.5,-23.15C430.05,-22.97 421.53,-22.8 413.2,-22.62"/>
<polygon fill="midnightblue" stroke="midnightblue" points="438.67,-26.66 448.74,-23.37 438.82,-19.66 438.67,-26.66"/>
</g>
<!-- Node12&#45;&gt;Node9 -->
<g id="edge12" class="edge">
<title>Node12&#45;&gt;Node9</title>
<path fill="none" stroke="midnightblue" d="M246.75,-33.8C238.18,-35.06 229.55,-36.33 221.17,-37.56"/>
<polygon fill="midnightblue" stroke="midnightblue" points="247.38,-37.25 256.77,-32.33 246.36,-30.32 247.38,-37.25"/>
</g>
<!-- Node13&#45;&gt;Node11 -->
<g id="edge14" class="edge">
<title>Node13&#45;&gt;Node11</title>
<path fill="none" stroke="midnightblue" d="M632.29,-25C623.62,-25 614.76,-25 606.06,-25"/>
<polygon fill="midnightblue" stroke="midnightblue" points="632.37,-28.5 642.37,-25 632.37,-21.5 632.37,-28.5"/>
</g>
</g>
</svg>
