<?xml version="1.0" encoding="UTF-8" standalone="no"?>
<!DOCTYPE svg PUBLIC "-//W3C//DTD SVG 1.1//EN"
 "http://www.w3.org/Graphics/SVG/1.1/DTD/svg11.dtd">
<!-- Generated by graphviz version 2.43.0 (0)
 -->
<!-- Title: signal_easel::aprs::Demodulator::parsePositionPacket Pages: 1 -->
<svg width="581pt" height="167pt"
 viewBox="0.00 0.00 581.00 167.00" xmlns="http://www.w3.org/2000/svg" xmlns:xlink="http://www.w3.org/1999/xlink">
<g id="graph0" class="graph" transform="scale(1 1) rotate(0) translate(4 163)">
<title>signal_easel::aprs::Demodulator::parsePositionPacket</title>
<!-- Node1 -->
<g id="node1" class="node">
<title>Node1</title>
<g id="a_node1"><a xlink:title="If the packet was a position packet, this function will try to parse the packet into it&#39;s positional ...">
<polygon fill="#bfbfbf" stroke="black" points="0,-74 0,-115 158,-115 158,-74 0,-74"/>
<text text-anchor="start" x="8" y="-103" font-family="Helvetica,sans-Serif" font-size="10.00">signal_easel::aprs</text>
<text text-anchor="start" x="8" y="-92" font-family="Helvetica,sans-Serif" font-size="10.00">::Demodulator::parsePosition</text>
<text text-anchor="middle" x="79" y="-81" font-family="Helvetica,sans-Serif" font-size="10.00">Packet</text>
</a>
</g>
</g>
<!-- Node2 -->
<g id="node2" class="node">
<title>Node2</title>
<g id="a_node2"><a xlink:href="namespacesignal__easel_1_1aprs.html#a53b79c5e1cab35addb27026b3e9e0e21" target="_top" xlink:title="Decodes a base91 encoded value to an integer.">
<polygon fill="none" stroke="black" points="228.5,-128.5 228.5,-158.5 332.5,-158.5 332.5,-128.5 228.5,-128.5"/>
<text text-anchor="start" x="236.5" y="-146.5" font-family="Helvetica,sans-Serif" font-size="10.00">signal_easel::aprs</text>
<text text-anchor="middle" x="280.5" y="-135.5" font-family="Helvetica,sans-Serif" font-size="10.00">::base91Decode</text>
</a>
</g>
</g>
<!-- Node1&#45;&gt;Node2 -->
<g id="edge1" class="edge">
<title>Node1&#45;&gt;Node2</title>
<path fill="none" stroke="midnightblue" d="M158.28,-113.73C178.35,-118.66 199.65,-123.89 218.7,-128.57"/>
<polygon fill="midnightblue" stroke="midnightblue" points="217.89,-131.97 228.44,-130.96 219.56,-125.17 217.89,-131.97"/>
</g>
<!-- Node3 -->
<g id="node3" class="node">
<title>Node3</title>
<g id="a_node3"><a xlink:href="classsignal__easel_1_1ax25_1_1Frame.html#ad902c58dd3b47ed11d64057409b36603" target="_top" xlink:title=" ">
<polygon fill="none" stroke="black" points="214.5,-79.5 214.5,-109.5 346.5,-109.5 346.5,-79.5 214.5,-79.5"/>
<text text-anchor="start" x="222.5" y="-97.5" font-family="Helvetica,sans-Serif" font-size="10.00">signal_easel::ax25</text>
<text text-anchor="middle" x="280.5" y="-86.5" font-family="Helvetica,sans-Serif" font-size="10.00">::Frame::getInformation</text>
</a>
</g>
</g>
<!-- Node1&#45;&gt;Node3 -->
<g id="edge2" class="edge">
<title>Node1&#45;&gt;Node3</title>
<path fill="none" stroke="midnightblue" d="M158.28,-94.5C173.35,-94.5 189.12,-94.5 204.1,-94.5"/>
<polygon fill="midnightblue" stroke="midnightblue" points="204.33,-98 214.33,-94.5 204.33,-91 204.33,-98"/>
</g>
<!-- Node4 -->
<g id="node4" class="node">
<title>Node4</title>
<g id="a_node4"><a xlink:href="classsignal__easel_1_1aprs_1_1Demodulator.html#af7459f32656249c73e0b957dfe13bf2f" target="_top" xlink:title=" ">
<polygon fill="none" stroke="black" points="194,-19 194,-60 367,-60 367,-19 194,-19"/>
<text text-anchor="start" x="202" y="-48" font-family="Helvetica,sans-Serif" font-size="10.00">signal_easel::aprs</text>
<text text-anchor="start" x="202" y="-37" font-family="Helvetica,sans-Serif" font-size="10.00">::Demodulator::populateGeneric</text>
<text text-anchor="middle" x="280.5" y="-26" font-family="Helvetica,sans-Serif" font-size="10.00">Fields</text>
</a>
</g>
</g>
<!-- Node1&#45;&gt;Node4 -->
<g id="edge3" class="edge">
<title>Node1&#45;&gt;Node4</title>
<path fill="none" stroke="midnightblue" d="M154.57,-73.94C167.84,-70.28 181.75,-66.45 195.26,-62.72"/>
<polygon fill="midnightblue" stroke="midnightblue" points="196.31,-66.07 205.02,-60.03 194.45,-59.32 196.31,-66.07"/>
</g>
<!-- Node5 -->
<g id="node5" class="node">
<title>Node5</title>
<g id="a_node5"><a xlink:href="classsignal__easel_1_1ax25_1_1Frame.html#a84c80d41e67e5091d2a77553f3941d5f" target="_top" xlink:title=" ">
<polygon fill="none" stroke="black" points="403,-49.5 403,-79.5 573,-79.5 573,-49.5 403,-49.5"/>
<text text-anchor="start" x="411" y="-67.5" font-family="Helvetica,sans-Serif" font-size="10.00">signal_easel::ax25</text>
<text text-anchor="middle" x="488" y="-56.5" font-family="Helvetica,sans-Serif" font-size="10.00">::Frame::getDestinationAddress</text>
</a>
</g>
</g>
<!-- Node4&#45;&gt;Node5 -->
<g id="edge4" class="edge">
<title>Node4&#45;&gt;Node5</title>
<path fill="none" stroke="midnightblue" d="M367.16,-49.92C375.63,-50.95 384.26,-52 392.81,-53.04"/>
<polygon fill="midnightblue" stroke="midnightblue" points="392.45,-56.52 402.8,-54.26 393.29,-49.57 392.45,-56.52"/>
</g>
<!-- Node6 -->
<g id="node6" class="node">
<title>Node6</title>
<g id="a_node6"><a xlink:href="classsignal__easel_1_1ax25_1_1Frame.html#af84ab589067667886d9e54abe213109c" target="_top" xlink:title=" ">
<polygon fill="none" stroke="black" points="414.5,-0.5 414.5,-30.5 561.5,-30.5 561.5,-0.5 414.5,-0.5"/>
<text text-anchor="start" x="422.5" y="-18.5" font-family="Helvetica,sans-Serif" font-size="10.00">signal_easel::ax25</text>
<text text-anchor="middle" x="488" y="-7.5" font-family="Helvetica,sans-Serif" font-size="10.00">::Frame::getSourceAddress</text>
</a>
</g>
</g>
<!-- Node4&#45;&gt;Node6 -->
<g id="edge5" class="edge">
<title>Node4&#45;&gt;Node6</title>
<path fill="none" stroke="midnightblue" d="M367.16,-29.5C379.38,-28.07 391.93,-26.6 404.09,-25.18"/>
<polygon fill="midnightblue" stroke="midnightblue" points="404.68,-28.64 414.2,-24 403.87,-21.69 404.68,-28.64"/>
</g>
</g>
</svg>
