<?xml version="1.0" encoding="UTF-8" standalone="no"?>
<!DOCTYPE svg PUBLIC "-//W3C//DTD SVG 1.1//EN"
 "http://www.w3.org/Graphics/SVG/1.1/DTD/svg11.dtd">
<!-- Generated by graphviz version 2.43.0 (0)
 -->
<!-- Title: signal_easel::BitStream::addBits Pages: 1 -->
<svg width="990pt" height="243pt"
 viewBox="0.00 0.00 990.00 243.42" xmlns="http://www.w3.org/2000/svg" xmlns:xlink="http://www.w3.org/1999/xlink">
<g id="graph0" class="graph" transform="scale(1 1) rotate(0) translate(4 239.42)">
<title>signal_easel::BitStream::addBits</title>
<!-- Node1 -->
<g id="node1" class="node">
<title>Node1</title>
<g id="a_node1"><a xlink:title=" ">
<polygon fill="#bfbfbf" stroke="black" points="850,-102.5 850,-132.5 982,-132.5 982,-102.5 850,-102.5"/>
<text text-anchor="start" x="858" y="-120.5" font-family="Helvetica,sans-Serif" font-size="10.00">signal_easel::BitStream</text>
<text text-anchor="middle" x="916" y="-109.5" font-family="Helvetica,sans-Serif" font-size="10.00">::addBits</text>
</a>
</g>
</g>
<!-- Node2 -->
<g id="node2" class="node">
<title>Node2</title>
<g id="a_node2"><a xlink:href="classsignal__easel_1_1BitStream.html#a81d4aea4c11f65e0c2b7ad2f0f0cc312" target="_top" xlink:title=" ">
<polygon fill="none" stroke="black" points="682,-53.5 682,-83.5 814,-83.5 814,-53.5 682,-53.5"/>
<text text-anchor="start" x="690" y="-71.5" font-family="Helvetica,sans-Serif" font-size="10.00">signal_easel::BitStream</text>
<text text-anchor="middle" x="748" y="-60.5" font-family="Helvetica,sans-Serif" font-size="10.00">::addOneBit</text>
</a>
</g>
</g>
<!-- Node1&#45;&gt;Node2 -->
<g id="edge1" class="edge">
<title>Node1&#45;&gt;Node2</title>
<path fill="none" stroke="midnightblue" d="M854.13,-99.53C836.35,-94.28 817.1,-88.6 799.99,-83.55"/>
<polygon fill="midnightblue" stroke="midnightblue" points="853.26,-102.92 863.84,-102.4 855.24,-96.21 853.26,-102.92"/>
</g>
<!-- Node4 -->
<g id="node4" class="node">
<title>Node4</title>
<g id="a_node4"><a xlink:href="classsignal__easel_1_1psk_1_1Modulator.html#acd4a6a5bac7af1c62ffaaa0ff1d9259f" target="_top" xlink:title=" ">
<polygon fill="none" stroke="black" points="332,-173.5 332,-203.5 468,-203.5 468,-173.5 332,-173.5"/>
<text text-anchor="start" x="340" y="-191.5" font-family="Helvetica,sans-Serif" font-size="10.00">signal_easel::psk::</text>
<text text-anchor="middle" x="400" y="-180.5" font-family="Helvetica,sans-Serif" font-size="10.00">Modulator::encodeString</text>
</a>
</g>
</g>
<!-- Node1&#45;&gt;Node4 -->
<g id="edge23" class="edge">
<title>Node1&#45;&gt;Node4</title>
<path fill="none" stroke="midnightblue" d="M898.2,-140.87C880.29,-163.57 849.64,-196.59 814,-210.5 689.75,-258.99 528.38,-225.53 449.16,-203.52"/>
<polygon fill="midnightblue" stroke="midnightblue" points="901.12,-142.8 904.42,-132.73 895.57,-138.55 901.12,-142.8"/>
</g>
<!-- Node11 -->
<g id="node11" class="node">
<title>Node11</title>
<g id="a_node11"><a xlink:href="classsignal__easel_1_1ax25_1_1Frame.html#a2b4f6ebcb7592a7e5a21114c8fafa503" target="_top" xlink:title="A step beyond buildFrame. This function builds the frame, does the bit stuffing, adds the flags,...">
<polygon fill="none" stroke="black" points="512.5,-4.5 512.5,-34.5 637.5,-34.5 637.5,-4.5 512.5,-4.5"/>
<text text-anchor="start" x="520.5" y="-22.5" font-family="Helvetica,sans-Serif" font-size="10.00">signal_easel::ax25</text>
<text text-anchor="middle" x="575" y="-11.5" font-family="Helvetica,sans-Serif" font-size="10.00">::Frame::encodeFrame</text>
</a>
</g>
</g>
<!-- Node1&#45;&gt;Node11 -->
<g id="edge22" class="edge">
<title>Node1&#45;&gt;Node11</title>
<path fill="none" stroke="midnightblue" d="M892.23,-95.21C873.05,-77.92 844.01,-55.02 814,-43.5 757,-21.63 686.99,-16.96 637.7,-16.95"/>
<polygon fill="midnightblue" stroke="midnightblue" points="890.1,-98.01 899.82,-102.23 894.85,-92.87 890.1,-98.01"/>
</g>
<!-- Node14 -->
<g id="node14" class="node">
<title>Node14</title>
<g id="a_node14"><a xlink:href="classsignal__easel_1_1psk_1_1Modulator.html#aa18265ffb20963bce90f935ae12913bf" target="_top" xlink:title=" ">
<polygon fill="none" stroke="black" points="682,-170.5 682,-200.5 814,-200.5 814,-170.5 682,-170.5"/>
<text text-anchor="start" x="690" y="-188.5" font-family="Helvetica,sans-Serif" font-size="10.00">signal_easel::psk::</text>
<text text-anchor="middle" x="748" y="-177.5" font-family="Helvetica,sans-Serif" font-size="10.00">Modulator::addVaricode</text>
</a>
</g>
</g>
<!-- Node1&#45;&gt;Node14 -->
<g id="edge14" class="edge">
<title>Node1&#45;&gt;Node14</title>
<path fill="none" stroke="midnightblue" d="M868.8,-136.42C842.58,-147.17 810.22,-160.42 785.74,-170.45"/>
<polygon fill="midnightblue" stroke="midnightblue" points="870.23,-139.62 878.16,-132.59 867.58,-133.14 870.23,-139.62"/>
</g>
<!-- Node15 -->
<g id="node15" class="node">
<title>Node15</title>
<g id="a_node15"><a xlink:href="classsignal__easel_1_1BitStream.html#abb315beec8c4d88115d9d4ec5f082863" target="_top" xlink:title=" ">
<polygon fill="none" stroke="black" points="682,-102.5 682,-132.5 814,-132.5 814,-102.5 682,-102.5"/>
<text text-anchor="start" x="690" y="-120.5" font-family="Helvetica,sans-Serif" font-size="10.00">signal_easel::BitStream</text>
<text text-anchor="middle" x="748" y="-109.5" font-family="Helvetica,sans-Serif" font-size="10.00">::addZeroBit</text>
</a>
</g>
</g>
<!-- Node1&#45;&gt;Node15 -->
<g id="edge16" class="edge">
<title>Node1&#45;&gt;Node15</title>
<path fill="none" stroke="midnightblue" d="M839.61,-117.5C831.13,-117.5 822.55,-117.5 814.22,-117.5"/>
<polygon fill="midnightblue" stroke="midnightblue" points="839.87,-121 849.87,-117.5 839.87,-114 839.87,-121"/>
</g>
<!-- Node3 -->
<g id="node3" class="node">
<title>Node3</title>
<g id="a_node3"><a xlink:href="classsignal__easel_1_1psk_1_1Modulator.html#ad465eb5c136ada635cd01cdceb1dc402" target="_top" xlink:title=" ">
<polygon fill="none" stroke="black" points="504,-102.5 504,-132.5 646,-132.5 646,-102.5 504,-102.5"/>
<text text-anchor="start" x="512" y="-120.5" font-family="Helvetica,sans-Serif" font-size="10.00">signal_easel::psk::</text>
<text text-anchor="middle" x="575" y="-109.5" font-family="Helvetica,sans-Serif" font-size="10.00">Modulator::addPostamble</text>
</a>
</g>
</g>
<!-- Node2&#45;&gt;Node3 -->
<g id="edge2" class="edge">
<title>Node2&#45;&gt;Node3</title>
<path fill="none" stroke="midnightblue" d="M684.55,-86.39C666.16,-91.66 646.23,-97.38 628.53,-102.45"/>
<polygon fill="midnightblue" stroke="midnightblue" points="685.65,-89.72 694.3,-83.6 683.72,-82.99 685.65,-89.72"/>
</g>
<!-- Node6 -->
<g id="node6" class="node">
<title>Node6</title>
<g id="a_node6"><a xlink:href="namespacesignal__easel_1_1ax25.html#a84e1d1bf82ef828a150bc94cf065e396" target="_top" xlink:title="Convert a bit stream from NRZI to standard encoding.">
<polygon fill="none" stroke="black" points="521.5,-53.5 521.5,-83.5 628.5,-83.5 628.5,-53.5 521.5,-53.5"/>
<text text-anchor="start" x="529.5" y="-71.5" font-family="Helvetica,sans-Serif" font-size="10.00">signal_easel::ax25</text>
<text text-anchor="middle" x="575" y="-60.5" font-family="Helvetica,sans-Serif" font-size="10.00">::decodeNrzi</text>
</a>
</g>
</g>
<!-- Node2&#45;&gt;Node6 -->
<g id="edge5" class="edge">
<title>Node2&#45;&gt;Node6</title>
<path fill="none" stroke="midnightblue" d="M671.46,-68.5C657.05,-68.5 642.26,-68.5 628.75,-68.5"/>
<polygon fill="midnightblue" stroke="midnightblue" points="671.86,-72 681.86,-68.5 671.86,-65 671.86,-72"/>
</g>
<!-- Node2&#45;&gt;Node11 -->
<g id="edge10" class="edge">
<title>Node2&#45;&gt;Node11</title>
<path fill="none" stroke="midnightblue" d="M684.55,-50.61C666.16,-45.34 646.23,-39.62 628.53,-34.55"/>
<polygon fill="midnightblue" stroke="midnightblue" points="683.72,-54.01 694.3,-53.4 685.65,-47.28 683.72,-54.01"/>
</g>
<!-- Node3&#45;&gt;Node4 -->
<g id="edge3" class="edge">
<title>Node3&#45;&gt;Node4</title>
<path fill="none" stroke="midnightblue" d="M520.65,-136.07C515.01,-138.18 509.37,-140.35 504,-142.5 480.01,-152.13 453.37,-164.05 433.2,-173.35"/>
<polygon fill="midnightblue" stroke="midnightblue" points="521.94,-139.33 530.12,-132.59 519.52,-132.76 521.94,-139.33"/>
</g>
<!-- Node5 -->
<g id="node5" class="node">
<title>Node5</title>
<g id="a_node5"><a xlink:href="psk__test_8cpp.html#adc7973e853ae04677ba78e84bda93987" target="_top" xlink:title=" ">
<polygon fill="none" stroke="black" points="199,-179 199,-198 240,-198 240,-179 199,-179"/>
<text text-anchor="middle" x="219.5" y="-186" font-family="Helvetica,sans-Serif" font-size="10.00">TEST</text>
</a>
</g>
</g>
<!-- Node4&#45;&gt;Node5 -->
<g id="edge4" class="edge">
<title>Node4&#45;&gt;Node5</title>
<path fill="none" stroke="midnightblue" d="M321.72,-188.5C291.84,-188.5 260.12,-188.5 240.32,-188.5"/>
<polygon fill="midnightblue" stroke="midnightblue" points="321.77,-192 331.77,-188.5 321.77,-185 321.77,-192"/>
</g>
<!-- Node7 -->
<g id="node7" class="node">
<title>Node7</title>
<g id="a_node7"><a xlink:href="classsignal__easel_1_1ax25_1_1Frame.html#a63cf2362c2a90d20f09bbbc4f24a07ba" target="_top" xlink:title="Attempt to parse an incoming bit stream into an AX.25 frame.">
<polygon fill="none" stroke="black" points="332.5,-54.5 332.5,-84.5 467.5,-84.5 467.5,-54.5 332.5,-54.5"/>
<text text-anchor="start" x="340.5" y="-72.5" font-family="Helvetica,sans-Serif" font-size="10.00">signal_easel::ax25</text>
<text text-anchor="middle" x="400" y="-61.5" font-family="Helvetica,sans-Serif" font-size="10.00">::Frame::parseBitStream</text>
</a>
</g>
</g>
<!-- Node6&#45;&gt;Node7 -->
<g id="edge6" class="edge">
<title>Node6&#45;&gt;Node7</title>
<path fill="none" stroke="midnightblue" d="M511.05,-68.86C496.92,-68.95 481.88,-69.03 467.6,-69.12"/>
<polygon fill="midnightblue" stroke="midnightblue" points="511.17,-72.36 521.15,-68.81 511.13,-65.36 511.17,-72.36"/>
</g>
<!-- Node8 -->
<g id="node8" class="node">
<title>Node8</title>
<g id="a_node8"><a xlink:href="classsignal__easel_1_1aprs_1_1Demodulator.html#ae5a8e7634c1bc8d215a0c454a9a737fa" target="_top" xlink:title=" ">
<polygon fill="none" stroke="black" points="143,-50 143,-91 296,-91 296,-50 143,-50"/>
<text text-anchor="start" x="151" y="-79" font-family="Helvetica,sans-Serif" font-size="10.00">signal_easel::aprs</text>
<text text-anchor="start" x="151" y="-68" font-family="Helvetica,sans-Serif" font-size="10.00">::Demodulator::lookForAx25</text>
<text text-anchor="middle" x="219.5" y="-57" font-family="Helvetica,sans-Serif" font-size="10.00">Packet</text>
</a>
</g>
</g>
<!-- Node7&#45;&gt;Node8 -->
<g id="edge7" class="edge">
<title>Node7&#45;&gt;Node8</title>
<path fill="none" stroke="midnightblue" d="M322.22,-69.93C313.58,-69.98 304.77,-70.03 296.14,-70.08"/>
<polygon fill="midnightblue" stroke="midnightblue" points="322.3,-73.43 332.28,-69.87 322.26,-66.43 322.3,-73.43"/>
</g>
<!-- Node9 -->
<g id="node9" class="node">
<title>Node9</title>
<g id="a_node9"><a xlink:href="classsignal__easel_1_1aprs_1_1Receiver.html#afbf7869aceaf2ea7ab0be8b9af16e818" target="_top" xlink:title=" ">
<polygon fill="none" stroke="black" points="0,-55.5 0,-85.5 107,-85.5 107,-55.5 0,-55.5"/>
<text text-anchor="start" x="8" y="-73.5" font-family="Helvetica,sans-Serif" font-size="10.00">signal_easel::aprs</text>
<text text-anchor="middle" x="53.5" y="-62.5" font-family="Helvetica,sans-Serif" font-size="10.00">::Receiver::decode</text>
</a>
</g>
</g>
<!-- Node8&#45;&gt;Node9 -->
<g id="edge8" class="edge">
<title>Node8&#45;&gt;Node9</title>
<path fill="none" stroke="midnightblue" d="M132.67,-70.5C124.09,-70.5 115.56,-70.5 107.47,-70.5"/>
<polygon fill="midnightblue" stroke="midnightblue" points="132.74,-74 142.74,-70.5 132.74,-67 132.74,-74"/>
</g>
<!-- Node10 -->
<g id="node10" class="node">
<title>Node10</title>
<g id="a_node10"><a xlink:href="aprs__test_8cpp.html#aea66d1824e3f1e27598adf99ac6a089a" target="_top" xlink:title=" ">
<polygon fill="none" stroke="black" points="33,-12 33,-31 74,-31 74,-12 33,-12"/>
<text text-anchor="middle" x="53.5" y="-19" font-family="Helvetica,sans-Serif" font-size="10.00">TEST</text>
</a>
</g>
</g>
<!-- Node8&#45;&gt;Node10 -->
<g id="edge9" class="edge">
<title>Node8&#45;&gt;Node10</title>
<path fill="none" stroke="midnightblue" d="M139.76,-46.97C115.4,-39.69 90.65,-32.3 74.13,-27.37"/>
<polygon fill="midnightblue" stroke="midnightblue" points="138.84,-50.35 149.42,-49.86 140.85,-43.65 138.84,-50.35"/>
</g>
<!-- Node12 -->
<g id="node12" class="node">
<title>Node12</title>
<g id="a_node12"><a xlink:href="namespacesignal__easel_1_1aprs.html#a77481001a5b78a839972bb4220b43e4d" target="_top" xlink:title="The base function to encode an APRS packet with the provided base data and info field.">
<polygon fill="none" stroke="black" points="348,-1.5 348,-31.5 452,-31.5 452,-1.5 348,-1.5"/>
<text text-anchor="start" x="356" y="-19.5" font-family="Helvetica,sans-Serif" font-size="10.00">signal_easel::aprs</text>
<text text-anchor="middle" x="400" y="-8.5" font-family="Helvetica,sans-Serif" font-size="10.00">::encodePacket</text>
</a>
</g>
</g>
<!-- Node11&#45;&gt;Node12 -->
<g id="edge11" class="edge">
<title>Node11&#45;&gt;Node12</title>
<path fill="none" stroke="midnightblue" d="M501.74,-18.25C485.03,-17.96 467.59,-17.65 452,-17.38"/>
<polygon fill="midnightblue" stroke="midnightblue" points="501.97,-21.75 512.03,-18.43 502.09,-14.75 501.97,-21.75"/>
</g>
<!-- Node13 -->
<g id="node13" class="node">
<title>Node13</title>
<g id="a_node13"><a xlink:href="classsignal__easel_1_1aprs_1_1Modulator.html#a8ae067701382dec1680b786583ace687" target="_top" xlink:title=" ">
<polygon fill="none" stroke="black" points="163,-0.5 163,-30.5 276,-30.5 276,-0.5 163,-0.5"/>
<text text-anchor="start" x="171" y="-18.5" font-family="Helvetica,sans-Serif" font-size="10.00">signal_easel::aprs</text>
<text text-anchor="middle" x="219.5" y="-7.5" font-family="Helvetica,sans-Serif" font-size="10.00">::Modulator::encode</text>
</a>
</g>
</g>
<!-- Node12&#45;&gt;Node13 -->
<g id="edge12" class="edge">
<title>Node12&#45;&gt;Node13</title>
<path fill="none" stroke="midnightblue" d="M337.61,-16.16C317.62,-16.04 295.57,-15.92 276.03,-15.81"/>
<polygon fill="midnightblue" stroke="midnightblue" points="337.83,-19.66 347.85,-16.21 337.87,-12.66 337.83,-19.66"/>
</g>
<!-- Node13&#45;&gt;Node10 -->
<g id="edge13" class="edge">
<title>Node13&#45;&gt;Node10</title>
<path fill="none" stroke="midnightblue" d="M152.74,-17.91C124.56,-18.94 93.72,-20.07 74.25,-20.78"/>
<polygon fill="midnightblue" stroke="midnightblue" points="153.11,-21.39 162.98,-17.53 152.86,-14.4 153.11,-21.39"/>
</g>
<!-- Node14&#45;&gt;Node4 -->
<g id="edge15" class="edge">
<title>Node14&#45;&gt;Node4</title>
<path fill="none" stroke="midnightblue" d="M671.7,-190.47C663.04,-190.89 654.33,-191.25 646,-191.5 585.84,-193.29 517.33,-192.18 468.08,-190.84"/>
<polygon fill="midnightblue" stroke="midnightblue" points="672.02,-193.95 681.83,-189.94 671.66,-186.96 672.02,-193.95"/>
</g>
<!-- Node15&#45;&gt;Node3 -->
<g id="edge17" class="edge">
<title>Node15&#45;&gt;Node3</title>
<path fill="none" stroke="midnightblue" d="M671.6,-117.5C663.12,-117.5 654.5,-117.5 646.08,-117.5"/>
<polygon fill="midnightblue" stroke="midnightblue" points="671.86,-121 681.86,-117.5 671.86,-114 671.86,-121"/>
</g>
<!-- Node15&#45;&gt;Node6 -->
<g id="edge20" class="edge">
<title>Node15&#45;&gt;Node6</title>
<path fill="none" stroke="midnightblue" d="M684.55,-99.61C666.16,-94.34 646.23,-88.62 628.53,-83.55"/>
<polygon fill="midnightblue" stroke="midnightblue" points="683.72,-103.01 694.3,-102.4 685.65,-96.28 683.72,-103.01"/>
</g>
<!-- Node15&#45;&gt;Node11 -->
<g id="edge21" class="edge">
<title>Node15&#45;&gt;Node11</title>
<path fill="none" stroke="midnightblue" d="M687.73,-97.45C685.75,-96.21 683.83,-94.89 682,-93.5 660.2,-76.92 667.99,-59.82 646,-43.5 641.36,-40.05 636.18,-37.08 630.81,-34.51"/>
<polygon fill="midnightblue" stroke="midnightblue" points="686.33,-100.68 696.77,-102.47 689.72,-94.56 686.33,-100.68"/>
</g>
<!-- Node16 -->
<g id="node16" class="node">
<title>Node16</title>
<g id="a_node16"><a xlink:href="classsignal__easel_1_1psk_1_1Modulator.html#a9210187601fe988d188b66ba5ee66a73" target="_top" xlink:title=" ">
<polygon fill="none" stroke="black" points="506.5,-151.5 506.5,-181.5 643.5,-181.5 643.5,-151.5 506.5,-151.5"/>
<text text-anchor="start" x="514.5" y="-169.5" font-family="Helvetica,sans-Serif" font-size="10.00">signal_easel::psk::</text>
<text text-anchor="middle" x="575" y="-158.5" font-family="Helvetica,sans-Serif" font-size="10.00">Modulator::addPreamble</text>
</a>
</g>
</g>
<!-- Node15&#45;&gt;Node16 -->
<g id="edge18" class="edge">
<title>Node15&#45;&gt;Node16</title>
<path fill="none" stroke="midnightblue" d="M684.55,-135.39C666.16,-140.66 646.23,-146.38 628.53,-151.45"/>
<polygon fill="midnightblue" stroke="midnightblue" points="685.65,-138.72 694.3,-132.6 683.72,-131.99 685.65,-138.72"/>
</g>
<!-- Node16&#45;&gt;Node4 -->
<g id="edge19" class="edge">
<title>Node16&#45;&gt;Node4</title>
<path fill="none" stroke="midnightblue" d="M496.07,-176.41C486.74,-177.6 477.27,-178.8 468.11,-179.97"/>
<polygon fill="midnightblue" stroke="midnightblue" points="496.64,-179.87 506.12,-175.13 495.76,-172.92 496.64,-179.87"/>
</g>
</g>
</svg>
