<?xml version="1.0" encoding="UTF-8" standalone="no"?>
<!DOCTYPE svg PUBLIC "-//W3C//DTD SVG 1.1//EN"
 "http://www.w3.org/Graphics/SVG/1.1/DTD/svg11.dtd">
<!-- Generated by graphviz version 2.43.0 (0)
 -->
<!-- Title: signal_easel::BitStream Pages: 1 -->
<svg width="335pt" height="336pt"
 viewBox="0.00 0.00 335.00 336.00" xmlns="http://www.w3.org/2000/svg" xmlns:xlink="http://www.w3.org/1999/xlink">
<g id="graph0" class="graph" transform="scale(1 1) rotate(0) translate(4 332)">
<title>signal_easel::BitStream</title>
<!-- Node1 -->
<g id="node1" class="node">
<title>Node1</title>
<g id="a_node1"><a xlink:title=" ">
<polygon fill="#bfbfbf" stroke="black" points="76.5,-0.5 76.5,-189.5 223.5,-189.5 223.5,-0.5 76.5,-0.5"/>
<text text-anchor="middle" x="150" y="-177.5" font-family="Helvetica,sans-Serif" font-size="10.00">signal_easel::BitStream</text>
<polyline fill="none" stroke="black" points="76.5,-170.5 223.5,-170.5 "/>
<text text-anchor="middle" x="150" y="-158.5" font-family="Helvetica,sans-Serif" font-size="10.00"> </text>
<polyline fill="none" stroke="black" points="76.5,-151.5 223.5,-151.5 "/>
<text text-anchor="start" x="84.5" y="-139.5" font-family="Helvetica,sans-Serif" font-size="10.00">+ addBits()</text>
<text text-anchor="start" x="84.5" y="-128.5" font-family="Helvetica,sans-Serif" font-size="10.00">+ addOneBit()</text>
<text text-anchor="start" x="84.5" y="-117.5" font-family="Helvetica,sans-Serif" font-size="10.00">+ addZeroBit()</text>
<text text-anchor="start" x="84.5" y="-106.5" font-family="Helvetica,sans-Serif" font-size="10.00">+ clear()</text>
<text text-anchor="start" x="84.5" y="-95.5" font-family="Helvetica,sans-Serif" font-size="10.00">+ dumpBitStream()</text>
<text text-anchor="start" x="84.5" y="-84.5" font-family="Helvetica,sans-Serif" font-size="10.00">+ dumpBitStreamAsAscii()</text>
<text text-anchor="start" x="84.5" y="-73.5" font-family="Helvetica,sans-Serif" font-size="10.00">+ dumpBitStreamAsHex()</text>
<text text-anchor="start" x="84.5" y="-62.5" font-family="Helvetica,sans-Serif" font-size="10.00">+ getBitStreamLength()</text>
<text text-anchor="start" x="84.5" y="-51.5" font-family="Helvetica,sans-Serif" font-size="10.00">+ getBitVector()</text>
<text text-anchor="start" x="84.5" y="-40.5" font-family="Helvetica,sans-Serif" font-size="10.00">+ peakNextBit()</text>
<text text-anchor="start" x="84.5" y="-29.5" font-family="Helvetica,sans-Serif" font-size="10.00">+ peakNextByte()</text>
<text text-anchor="start" x="84.5" y="-18.5" font-family="Helvetica,sans-Serif" font-size="10.00">+ popNextBit()</text>
<text text-anchor="start" x="84.5" y="-7.5" font-family="Helvetica,sans-Serif" font-size="10.00">+ pushBufferToBitStream()</text>
</a>
</g>
</g>
<!-- Node2 -->
<g id="node2" class="node">
<title>Node2</title>
<g id="a_node2"><a xlink:title=" ">
<polygon fill="none" stroke="#bfbfbf" points="0,-270.5 0,-327.5 56,-327.5 56,-270.5 0,-270.5"/>
<text text-anchor="middle" x="28" y="-315.5" font-family="Helvetica,sans-Serif" font-size="10.00">uint32_t</text>
<polyline fill="none" stroke="#bfbfbf" points="0,-308.5 56,-308.5 "/>
<text text-anchor="middle" x="28" y="-296.5" font-family="Helvetica,sans-Serif" font-size="10.00"> </text>
<polyline fill="none" stroke="#bfbfbf" points="0,-289.5 56,-289.5 "/>
<text text-anchor="middle" x="28" y="-277.5" font-family="Helvetica,sans-Serif" font-size="10.00"> </text>
</a>
</g>
</g>
<!-- Node2&#45;&gt;Node1 -->
<g id="edge1" class="edge">
<title>Node2&#45;&gt;Node1</title>
<path fill="none" stroke="#404040" d="M30,-270.35C32.24,-251.86 36.98,-227.45 47,-208 52.98,-196.4 60.48,-185.11 68.7,-174.44"/>
<polygon fill="none" stroke="#404040" points="68.91,-174.18 69.55,-167 76.42,-164.83 75.78,-172.01 68.91,-174.18"/>
<text text-anchor="middle" x="96.5" y="-227.5" font-family="Helvetica,sans-Serif" font-size="10.00"> &#45;bit_stream_buffer_</text>
</g>
<!-- Node3 -->
<g id="node3" class="node">
<title>Node3</title>
<g id="a_node3"><a xlink:title=" ">
<polygon fill="none" stroke="#bfbfbf" points="135.5,-270.5 135.5,-327.5 164.5,-327.5 164.5,-270.5 135.5,-270.5"/>
<text text-anchor="middle" x="150" y="-315.5" font-family="Helvetica,sans-Serif" font-size="10.00">int</text>
<polyline fill="none" stroke="#bfbfbf" points="135.5,-308.5 164.5,-308.5 "/>
<text text-anchor="middle" x="150" y="-296.5" font-family="Helvetica,sans-Serif" font-size="10.00"> </text>
<polyline fill="none" stroke="#bfbfbf" points="135.5,-289.5 164.5,-289.5 "/>
<text text-anchor="middle" x="150" y="-277.5" font-family="Helvetica,sans-Serif" font-size="10.00"> </text>
</a>
</g>
</g>
<!-- Node3&#45;&gt;Node1 -->
<g id="edge2" class="edge">
<title>Node3&#45;&gt;Node1</title>
<path fill="none" stroke="#404040" d="M150,-270.34C150,-252.15 150,-227.07 150,-201.61"/>
<polygon fill="none" stroke="#404040" points="150,-201.5 146,-195.5 150,-189.5 154,-195.5 150,-201.5"/>
<text text-anchor="middle" x="198.5" y="-244" font-family="Helvetica,sans-Serif" font-size="10.00"> &#45;bit_stream_index_</text>
<text text-anchor="start" x="150" y="-233" font-family="Helvetica,sans-Serif" font-size="10.00">&#45;bit_stream_length</text>
<text text-anchor="middle" x="198.5" y="-222" font-family="Helvetica,sans-Serif" font-size="10.00">_</text>
<text text-anchor="middle" x="198.5" y="-211" font-family="Helvetica,sans-Serif" font-size="10.00">&#45;bit_stream_offset_</text>
</g>
<!-- Node4 -->
<g id="node4" class="node">
<title>Node4</title>
<g id="a_node4"><a xlink:title=" ">
<polygon fill="none" stroke="#bfbfbf" points="215,-270.5 215,-327.5 325,-327.5 325,-270.5 215,-270.5"/>
<text text-anchor="middle" x="270" y="-315.5" font-family="Helvetica,sans-Serif" font-size="10.00">vector&lt; uint32_t &gt;</text>
<polyline fill="none" stroke="#bfbfbf" points="215,-308.5 325,-308.5 "/>
<text text-anchor="middle" x="270" y="-296.5" font-family="Helvetica,sans-Serif" font-size="10.00"> </text>
<polyline fill="none" stroke="#bfbfbf" points="215,-289.5 325,-289.5 "/>
<text text-anchor="middle" x="270" y="-277.5" font-family="Helvetica,sans-Serif" font-size="10.00"> </text>
</a>
</g>
</g>
<!-- Node4&#45;&gt;Node1 -->
<g id="edge3" class="edge">
<title>Node4&#45;&gt;Node1</title>
<path fill="none" stroke="#404040" d="M266.75,-270.41C263.75,-251.95 258.16,-227.55 248,-208 243.06,-198.49 237.14,-189.12 230.7,-180.09"/>
<polygon fill="none" stroke="#404040" points="230.68,-180.07 223.89,-177.64 223.52,-170.44 230.31,-172.87 230.68,-180.07"/>
<text text-anchor="middle" x="294.5" y="-227.5" font-family="Helvetica,sans-Serif" font-size="10.00"> &#45;bit_stream_</text>
</g>
</g>
</svg>
