<?xml version="1.0" encoding="UTF-8" standalone="no"?>
<!DOCTYPE svg PUBLIC "-//W3C//DTD SVG 1.1//EN"
 "http://www.w3.org/Graphics/SVG/1.1/DTD/svg11.dtd">
<!-- Generated by graphviz version 2.43.0 (0)
 -->
<!-- Title: signal_easel::ax25::Address::assertAddressStringIsValid Pages: 1 -->
<svg width="1410pt" height="323pt"
 viewBox="0.00 0.00 1410.00 323.00" xmlns="http://www.w3.org/2000/svg" xmlns:xlink="http://www.w3.org/1999/xlink">
<g id="graph0" class="graph" transform="scale(1 1) rotate(0) translate(4 319)">
<title>signal_easel::ax25::Address::assertAddressStringIsValid</title>
<!-- Node1 -->
<g id="node1" class="node">
<title>Node1</title>
<g id="a_node1"><a xlink:title=" ">
<polygon fill="#bfbfbf" stroke="black" points="1237,-44 1237,-85 1402,-85 1402,-44 1237,-44"/>
<text text-anchor="start" x="1245" y="-73" font-family="Helvetica,sans-Serif" font-size="10.00">signal_easel::ax25</text>
<text text-anchor="start" x="1245" y="-62" font-family="Helvetica,sans-Serif" font-size="10.00">::Address::assertAddressString</text>
<text text-anchor="middle" x="1319.5" y="-51" font-family="Helvetica,sans-Serif" font-size="10.00">IsValid</text>
</a>
</g>
</g>
<!-- Node2 -->
<g id="node2" class="node">
<title>Node2</title>
<g id="a_node2"><a xlink:href="classsignal__easel_1_1ax25_1_1Address.html#a7fa6b0ef4241413893f201660991e4ea" target="_top" xlink:title="Checks if the address is valid, if not throws an exception with a specific error code.">
<polygon fill="none" stroke="black" points="1061,-164.5 1061,-194.5 1191,-194.5 1191,-164.5 1061,-164.5"/>
<text text-anchor="start" x="1069" y="-182.5" font-family="Helvetica,sans-Serif" font-size="10.00">signal_easel::ax25</text>
<text text-anchor="middle" x="1126" y="-171.5" font-family="Helvetica,sans-Serif" font-size="10.00">::Address::assertIsValid</text>
</a>
</g>
</g>
<!-- Node1&#45;&gt;Node2 -->
<g id="edge1" class="edge">
<title>Node1&#45;&gt;Node2</title>
<path fill="none" stroke="midnightblue" d="M1275.46,-90.35C1237.47,-113.16 1183.41,-145.62 1152.09,-164.43"/>
<polygon fill="midnightblue" stroke="midnightblue" points="1277.49,-93.21 1284.26,-85.06 1273.89,-87.21 1277.49,-93.21"/>
</g>
<!-- Node20 -->
<g id="node20" class="node">
<title>Node20</title>
<g id="a_node20"><a xlink:href="classsignal__easel_1_1ax25_1_1Address.html#a6a2594f26aa1d2a46e33d7da1a1d5fdd" target="_top" xlink:title="Decode an AX.25 address from it&#39;s byte array representation.">
<polygon fill="none" stroke="black" points="1055,-49.5 1055,-79.5 1197,-79.5 1197,-49.5 1055,-49.5"/>
<text text-anchor="start" x="1063" y="-67.5" font-family="Helvetica,sans-Serif" font-size="10.00">signal_easel::ax25</text>
<text text-anchor="middle" x="1126" y="-56.5" font-family="Helvetica,sans-Serif" font-size="10.00">::Address::decodeAddress</text>
</a>
</g>
</g>
<!-- Node1&#45;&gt;Node20 -->
<g id="edge26" class="edge">
<title>Node1&#45;&gt;Node20</title>
<path fill="none" stroke="midnightblue" d="M1226.46,-64.5C1216.56,-64.5 1206.61,-64.5 1197.03,-64.5"/>
<polygon fill="midnightblue" stroke="midnightblue" points="1226.73,-68 1236.73,-64.5 1226.73,-61 1226.73,-68"/>
</g>
<!-- Node22 -->
<g id="node22" class="node">
<title>Node22</title>
<g id="a_node22"><a xlink:href="classsignal__easel_1_1ax25_1_1Address.html#a3cd5feeb41b5d508961bcbafd0b8f246" target="_top" xlink:title="Set the Address String object.">
<polygon fill="none" stroke="black" points="1051,-0.5 1051,-30.5 1201,-30.5 1201,-0.5 1051,-0.5"/>
<text text-anchor="start" x="1059" y="-18.5" font-family="Helvetica,sans-Serif" font-size="10.00">signal_easel::ax25</text>
<text text-anchor="middle" x="1126" y="-7.5" font-family="Helvetica,sans-Serif" font-size="10.00">::Address::setAddressString</text>
</a>
</g>
</g>
<!-- Node1&#45;&gt;Node22 -->
<g id="edge28" class="edge">
<title>Node1&#45;&gt;Node22</title>
<path fill="none" stroke="midnightblue" d="M1228.16,-41.38C1213.71,-37.69 1199.09,-33.95 1185.63,-30.5"/>
<polygon fill="midnightblue" stroke="midnightblue" points="1227.56,-44.84 1238.12,-43.93 1229.3,-38.06 1227.56,-44.84"/>
</g>
<!-- Node3 -->
<g id="node3" class="node">
<title>Node3</title>
<g id="a_node3"><a xlink:href="classsignal__easel_1_1ax25_1_1Frame.html#af86d4b534367a8faf6b628301c9ffceb" target="_top" xlink:title=" ">
<polygon fill="none" stroke="black" points="849.5,-284.5 849.5,-314.5 1010.5,-314.5 1010.5,-284.5 849.5,-284.5"/>
<text text-anchor="start" x="857.5" y="-302.5" font-family="Helvetica,sans-Serif" font-size="10.00">signal_easel::ax25</text>
<text text-anchor="middle" x="930" y="-291.5" font-family="Helvetica,sans-Serif" font-size="10.00">::Frame::addRepeaterAddress</text>
</a>
</g>
</g>
<!-- Node2&#45;&gt;Node3 -->
<g id="edge2" class="edge">
<title>Node2&#45;&gt;Node3</title>
<path fill="none" stroke="midnightblue" d="M1104.66,-202.31C1084.07,-224.07 1050.3,-256.31 1015,-275.5 1008.74,-278.9 1001.94,-281.87 995.02,-284.44"/>
<polygon fill="midnightblue" stroke="midnightblue" points="1107.39,-204.51 1111.63,-194.8 1102.26,-199.75 1107.39,-204.51"/>
</g>
<!-- Node8 -->
<g id="node8" class="node">
<title>Node8</title>
<g id="a_node8"><a xlink:href="classsignal__easel_1_1ax25_1_1Address.html#a0c31737081a9184b56dc32150b23cb0a" target="_top" xlink:title="Get the address as a byte array.">
<polygon fill="none" stroke="black" points="859,-98.5 859,-128.5 1001,-128.5 1001,-98.5 859,-98.5"/>
<text text-anchor="start" x="867" y="-116.5" font-family="Helvetica,sans-Serif" font-size="10.00">signal_easel::ax25</text>
<text text-anchor="middle" x="930" y="-105.5" font-family="Helvetica,sans-Serif" font-size="10.00">::Address::encodeAddress</text>
</a>
</g>
</g>
<!-- Node2&#45;&gt;Node8 -->
<g id="edge7" class="edge">
<title>Node2&#45;&gt;Node8</title>
<path fill="none" stroke="midnightblue" d="M1070.97,-161.12C1040.82,-150.86 1003.72,-138.24 975.3,-128.57"/>
<polygon fill="midnightblue" stroke="midnightblue" points="1069.9,-164.45 1080.49,-164.36 1072.15,-157.82 1069.9,-164.45"/>
</g>
<!-- Node16 -->
<g id="node16" class="node">
<title>Node16</title>
<g id="a_node16"><a xlink:href="classsignal__easel_1_1ax25_1_1Frame.html#a57b163ece54317da8d95f3b18b47c23d" target="_top" xlink:title="setters/getters for the frame.">
<polygon fill="none" stroke="black" points="845,-186.5 845,-216.5 1015,-216.5 1015,-186.5 845,-186.5"/>
<text text-anchor="start" x="853" y="-204.5" font-family="Helvetica,sans-Serif" font-size="10.00">signal_easel::ax25</text>
<text text-anchor="middle" x="930" y="-193.5" font-family="Helvetica,sans-Serif" font-size="10.00">::Frame::setDestinationAddress</text>
</a>
</g>
</g>
<!-- Node2&#45;&gt;Node16 -->
<g id="edge16" class="edge">
<title>Node2&#45;&gt;Node16</title>
<path fill="none" stroke="midnightblue" d="M1050.81,-187.91C1039.11,-189.24 1026.96,-190.62 1015.06,-191.97"/>
<polygon fill="midnightblue" stroke="midnightblue" points="1051.4,-191.37 1060.94,-186.76 1050.61,-184.41 1051.4,-191.37"/>
</g>
<!-- Node18 -->
<g id="node18" class="node">
<title>Node18</title>
<g id="a_node18"><a xlink:href="ax25__frame__test_8cpp.html#a091d83d42783f2a0b3fd33a0521dc2ce" target="_top" xlink:title=" ">
<polygon fill="none" stroke="black" points="715.5,-167 715.5,-186 756.5,-186 756.5,-167 715.5,-167"/>
<text text-anchor="middle" x="736" y="-174" font-family="Helvetica,sans-Serif" font-size="10.00">TEST</text>
</a>
</g>
</g>
<!-- Node2&#45;&gt;Node18 -->
<g id="edge25" class="edge">
<title>Node2&#45;&gt;Node18</title>
<path fill="none" stroke="midnightblue" d="M1050.41,-178C1038.57,-177.8 1026.45,-177.62 1015,-177.5 917.99,-176.44 801.94,-176.43 756.55,-176.47"/>
<polygon fill="midnightblue" stroke="midnightblue" points="1050.67,-181.5 1060.73,-178.17 1050.79,-174.5 1050.67,-181.5"/>
</g>
<!-- Node19 -->
<g id="node19" class="node">
<title>Node19</title>
<g id="a_node19"><a xlink:href="classsignal__easel_1_1ax25_1_1Frame.html#a402d26a81f82bb5c477e8930b75a771e" target="_top" xlink:title=" ">
<polygon fill="none" stroke="black" points="857,-235.5 857,-265.5 1003,-265.5 1003,-235.5 857,-235.5"/>
<text text-anchor="start" x="865" y="-253.5" font-family="Helvetica,sans-Serif" font-size="10.00">signal_easel::ax25</text>
<text text-anchor="middle" x="930" y="-242.5" font-family="Helvetica,sans-Serif" font-size="10.00">::Frame::setSourceAddress</text>
</a>
</g>
</g>
<!-- Node2&#45;&gt;Node19 -->
<g id="edge21" class="edge">
<title>Node2&#45;&gt;Node19</title>
<path fill="none" stroke="midnightblue" d="M1083.39,-198.74C1063.02,-207.78 1037.98,-218.34 1015,-226.5 1006.14,-229.65 996.64,-232.67 987.34,-235.46"/>
<polygon fill="midnightblue" stroke="midnightblue" points="1085,-201.85 1092.69,-194.57 1082.14,-195.47 1085,-201.85"/>
</g>
<!-- Node4 -->
<g id="node4" class="node">
<title>Node4</title>
<g id="a_node4"><a xlink:href="classsignal__easel_1_1ax25_1_1Frame.html#a63cf2362c2a90d20f09bbbc4f24a07ba" target="_top" xlink:title="Attempt to parse an incoming bit stream into an AX.25 frame.">
<polygon fill="none" stroke="black" points="668.5,-254.5 668.5,-284.5 803.5,-284.5 803.5,-254.5 668.5,-254.5"/>
<text text-anchor="start" x="676.5" y="-272.5" font-family="Helvetica,sans-Serif" font-size="10.00">signal_easel::ax25</text>
<text text-anchor="middle" x="736" y="-261.5" font-family="Helvetica,sans-Serif" font-size="10.00">::Frame::parseBitStream</text>
</a>
</g>
</g>
<!-- Node3&#45;&gt;Node4 -->
<g id="edge3" class="edge">
<title>Node3&#45;&gt;Node4</title>
<path fill="none" stroke="midnightblue" d="M839.24,-285.48C827.28,-283.61 815.18,-281.72 803.71,-279.92"/>
<polygon fill="midnightblue" stroke="midnightblue" points="838.82,-288.95 849.24,-287.04 839.9,-282.04 838.82,-288.95"/>
</g>
<!-- Node5 -->
<g id="node5" class="node">
<title>Node5</title>
<g id="a_node5"><a xlink:href="classsignal__easel_1_1aprs_1_1Demodulator.html#ae5a8e7634c1bc8d215a0c454a9a737fa" target="_top" xlink:title=" ">
<polygon fill="none" stroke="black" points="474,-249 474,-290 627,-290 627,-249 474,-249"/>
<text text-anchor="start" x="482" y="-278" font-family="Helvetica,sans-Serif" font-size="10.00">signal_easel::aprs</text>
<text text-anchor="start" x="482" y="-267" font-family="Helvetica,sans-Serif" font-size="10.00">::Demodulator::lookForAx25</text>
<text text-anchor="middle" x="550.5" y="-256" font-family="Helvetica,sans-Serif" font-size="10.00">Packet</text>
</a>
</g>
</g>
<!-- Node4&#45;&gt;Node5 -->
<g id="edge4" class="edge">
<title>Node4&#45;&gt;Node5</title>
<path fill="none" stroke="midnightblue" d="M658.29,-269.5C647.98,-269.5 637.41,-269.5 627.11,-269.5"/>
<polygon fill="midnightblue" stroke="midnightblue" points="658.49,-273 668.49,-269.5 658.49,-266 658.49,-273"/>
</g>
<!-- Node6 -->
<g id="node6" class="node">
<title>Node6</title>
<g id="a_node6"><a xlink:href="classsignal__easel_1_1aprs_1_1Receiver.html#afbf7869aceaf2ea7ab0be8b9af16e818" target="_top" xlink:title=" ">
<polygon fill="none" stroke="black" points="309.5,-276.5 309.5,-306.5 416.5,-306.5 416.5,-276.5 309.5,-276.5"/>
<text text-anchor="start" x="317.5" y="-294.5" font-family="Helvetica,sans-Serif" font-size="10.00">signal_easel::aprs</text>
<text text-anchor="middle" x="363" y="-283.5" font-family="Helvetica,sans-Serif" font-size="10.00">::Receiver::decode</text>
</a>
</g>
</g>
<!-- Node5&#45;&gt;Node6 -->
<g id="edge5" class="edge">
<title>Node5&#45;&gt;Node6</title>
<path fill="none" stroke="midnightblue" d="M463.79,-279.66C447.66,-281.58 431.24,-283.53 416.51,-285.27"/>
<polygon fill="midnightblue" stroke="midnightblue" points="464.26,-283.13 473.78,-278.48 463.44,-276.18 464.26,-283.13"/>
</g>
<!-- Node7 -->
<g id="node7" class="node">
<title>Node7</title>
<g id="a_node7"><a xlink:href="aprs__test_8cpp.html#aea66d1824e3f1e27598adf99ac6a089a" target="_top" xlink:title=" ">
<polygon fill="none" stroke="black" points="0,-213 0,-232 41,-232 41,-213 0,-213"/>
<text text-anchor="middle" x="20.5" y="-220" font-family="Helvetica,sans-Serif" font-size="10.00">TEST</text>
</a>
</g>
</g>
<!-- Node5&#45;&gt;Node7 -->
<g id="edge6" class="edge">
<title>Node5&#45;&gt;Node7</title>
<path fill="none" stroke="midnightblue" d="M463.66,-262.6C368.94,-254.86 212.01,-241.65 77,-228.5 65.04,-227.33 51.64,-225.89 41.01,-224.71"/>
<polygon fill="midnightblue" stroke="midnightblue" points="463.51,-266.1 473.76,-263.42 464.08,-259.12 463.51,-266.1"/>
</g>
<!-- Node9 -->
<g id="node9" class="node">
<title>Node9</title>
<g id="a_node9"><a xlink:href="classsignal__easel_1_1ax25_1_1Frame.html#a24e7d5ffc6504a3380e97142d1bc084e" target="_top" xlink:title="Builds all internal portions of the frame. Doesn&#39;t include the flags.">
<polygon fill="none" stroke="black" points="679,-79.5 679,-109.5 793,-109.5 793,-79.5 679,-79.5"/>
<text text-anchor="start" x="687" y="-97.5" font-family="Helvetica,sans-Serif" font-size="10.00">signal_easel::ax25</text>
<text text-anchor="middle" x="736" y="-86.5" font-family="Helvetica,sans-Serif" font-size="10.00">::Frame::buildFrame</text>
</a>
</g>
</g>
<!-- Node8&#45;&gt;Node9 -->
<g id="edge8" class="edge">
<title>Node8&#45;&gt;Node9</title>
<path fill="none" stroke="midnightblue" d="M848.86,-105.57C830.13,-103.72 810.56,-101.78 793.13,-100.05"/>
<polygon fill="midnightblue" stroke="midnightblue" points="848.57,-109.06 858.87,-106.56 849.26,-102.09 848.57,-109.06"/>
</g>
<!-- Node15 -->
<g id="node15" class="node">
<title>Node15</title>
<g id="a_node15"><a xlink:href="ax25__address__test_8cpp.html#a1d87028368532ba4ae914da9397571d3" target="_top" xlink:title=" ">
<polygon fill="none" stroke="black" points="715.5,-129 715.5,-148 756.5,-148 756.5,-129 715.5,-129"/>
<text text-anchor="middle" x="736" y="-136" font-family="Helvetica,sans-Serif" font-size="10.00">TEST</text>
</a>
</g>
</g>
<!-- Node8&#45;&gt;Node15 -->
<g id="edge15" class="edge">
<title>Node8&#45;&gt;Node15</title>
<path fill="none" stroke="midnightblue" d="M848.94,-123.92C815.08,-128.33 778.5,-133.1 756.69,-135.94"/>
<polygon fill="midnightblue" stroke="midnightblue" points="849.4,-127.39 858.87,-122.63 848.5,-120.45 849.4,-127.39"/>
</g>
<!-- Node10 -->
<g id="node10" class="node">
<title>Node10</title>
<g id="a_node10"><a xlink:href="classsignal__easel_1_1ax25_1_1Frame.html#a2b4f6ebcb7592a7e5a21114c8fafa503" target="_top" xlink:title="A step beyond buildFrame. This function builds the frame, does the bit stuffing, adds the flags,...">
<polygon fill="none" stroke="black" points="488,-92.5 488,-122.5 613,-122.5 613,-92.5 488,-92.5"/>
<text text-anchor="start" x="496" y="-110.5" font-family="Helvetica,sans-Serif" font-size="10.00">signal_easel::ax25</text>
<text text-anchor="middle" x="550.5" y="-99.5" font-family="Helvetica,sans-Serif" font-size="10.00">::Frame::encodeFrame</text>
</a>
</g>
</g>
<!-- Node9&#45;&gt;Node10 -->
<g id="edge9" class="edge">
<title>Node9&#45;&gt;Node10</title>
<path fill="none" stroke="midnightblue" d="M668.77,-99.19C650.67,-100.47 631.13,-101.86 613.29,-103.12"/>
<polygon fill="midnightblue" stroke="midnightblue" points="669.22,-102.67 678.95,-98.47 668.72,-95.69 669.22,-102.67"/>
</g>
<!-- Node11 -->
<g id="node11" class="node">
<title>Node11</title>
<g id="a_node11"><a xlink:href="namespacesignal__easel.html#aad3ffdd47a4a03ed438e8c1ca9eef231" target="_top" xlink:title=" ">
<polygon fill="none" stroke="black" points="288,-134 288,-153 438,-153 438,-134 288,-134"/>
<text text-anchor="middle" x="363" y="-141" font-family="Helvetica,sans-Serif" font-size="10.00">signal_easel::encodePacket</text>
</a>
</g>
</g>
<!-- Node10&#45;&gt;Node11 -->
<g id="edge10" class="edge">
<title>Node10&#45;&gt;Node11</title>
<path fill="none" stroke="midnightblue" d="M478.13,-121.35C456.37,-125.57 432.96,-130.12 413.03,-133.98"/>
<polygon fill="midnightblue" stroke="midnightblue" points="478.84,-124.78 487.99,-119.44 477.51,-117.91 478.84,-124.78"/>
</g>
<!-- Node12 -->
<g id="node12" class="node">
<title>Node12</title>
<g id="a_node12"><a xlink:href="classsignal__easel_1_1aprs_1_1Modulator.html#adfa8809d1c11321b9ff2c7efe7f58499" target="_top" xlink:title=" ">
<polygon fill="none" stroke="black" points="77,-128.5 77,-158.5 252,-158.5 252,-128.5 77,-128.5"/>
<text text-anchor="start" x="85" y="-146.5" font-family="Helvetica,sans-Serif" font-size="10.00">signal_easel::aprs</text>
<text text-anchor="middle" x="164.5" y="-135.5" font-family="Helvetica,sans-Serif" font-size="10.00">::Modulator::encodeMessageAck</text>
</a>
</g>
</g>
<!-- Node11&#45;&gt;Node12 -->
<g id="edge11" class="edge">
<title>Node11&#45;&gt;Node12</title>
<path fill="none" stroke="midnightblue" d="M277.79,-143.5C269.36,-143.5 260.79,-143.5 252.33,-143.5"/>
<polygon fill="midnightblue" stroke="midnightblue" points="277.99,-147 287.99,-143.5 277.99,-140 277.99,-147"/>
</g>
<!-- Node13 -->
<g id="node13" class="node">
<title>Node13</title>
<g id="a_node13"><a xlink:href="classsignal__easel_1_1aprs_1_1Modulator.html#a147321b48c2e282c62863f114702e54f" target="_top" xlink:title=" ">
<polygon fill="none" stroke="black" points="86,-178 86,-219 243,-219 243,-178 86,-178"/>
<text text-anchor="start" x="94" y="-207" font-family="Helvetica,sans-Serif" font-size="10.00">signal_easel::aprs</text>
<text text-anchor="start" x="94" y="-196" font-family="Helvetica,sans-Serif" font-size="10.00">::Modulator::encodeMessage</text>
<text text-anchor="middle" x="164.5" y="-185" font-family="Helvetica,sans-Serif" font-size="10.00">Packet</text>
</a>
</g>
</g>
<!-- Node11&#45;&gt;Node13 -->
<g id="edge12" class="edge">
<title>Node11&#45;&gt;Node13</title>
<path fill="none" stroke="midnightblue" d="M317.85,-155.86C294.56,-162.38 265.37,-170.55 238.8,-177.98"/>
<polygon fill="midnightblue" stroke="midnightblue" points="319.09,-159.15 327.77,-153.08 317.2,-152.41 319.09,-159.15"/>
</g>
<!-- Node14 -->
<g id="node14" class="node">
<title>Node14</title>
<g id="a_node14"><a xlink:href="classsignal__easel_1_1aprs_1_1Modulator.html#a943e392227656943d7db842e1889d805" target="_top" xlink:title=" ">
<polygon fill="none" stroke="black" points="88.5,-68 88.5,-109 240.5,-109 240.5,-68 88.5,-68"/>
<text text-anchor="start" x="96.5" y="-97" font-family="Helvetica,sans-Serif" font-size="10.00">signal_easel::aprs</text>
<text text-anchor="start" x="96.5" y="-86" font-family="Helvetica,sans-Serif" font-size="10.00">::Modulator::encodePosition</text>
<text text-anchor="middle" x="164.5" y="-75" font-family="Helvetica,sans-Serif" font-size="10.00">Packet</text>
</a>
</g>
</g>
<!-- Node11&#45;&gt;Node14 -->
<g id="edge14" class="edge">
<title>Node11&#45;&gt;Node14</title>
<path fill="none" stroke="midnightblue" d="M317.85,-131.14C294.56,-124.62 265.37,-116.45 238.8,-109.02"/>
<polygon fill="midnightblue" stroke="midnightblue" points="317.2,-134.59 327.77,-133.92 319.09,-127.85 317.2,-134.59"/>
</g>
<!-- Node13&#45;&gt;Node7 -->
<g id="edge13" class="edge">
<title>Node13&#45;&gt;Node7</title>
<path fill="none" stroke="midnightblue" d="M75.84,-213.32C62.91,-215.5 50.76,-217.55 41.24,-219.16"/>
<polygon fill="midnightblue" stroke="midnightblue" points="76.58,-216.74 85.85,-211.62 75.41,-209.84 76.58,-216.74"/>
</g>
<!-- Node16&#45;&gt;Node4 -->
<g id="edge19" class="edge">
<title>Node16&#45;&gt;Node4</title>
<path fill="none" stroke="midnightblue" d="M863.15,-219.74C856.96,-221.86 850.82,-224.12 845,-226.5 828.25,-233.34 825.64,-238.39 809,-245.5 801.61,-248.66 793.65,-251.67 785.82,-254.43"/>
<polygon fill="midnightblue" stroke="midnightblue" points="864.49,-222.98 872.89,-216.53 862.3,-216.34 864.49,-222.98"/>
</g>
<!-- Node17 -->
<g id="node17" class="node">
<title>Node17</title>
<g id="a_node17"><a xlink:href="namespacesignal__easel.html#ada24f00bb5d1a1bb97976967185c7526" target="_top" xlink:title=" ">
<polygon fill="none" stroke="black" points="663,-205.5 663,-235.5 809,-235.5 809,-205.5 663,-205.5"/>
<text text-anchor="start" x="671" y="-223.5" font-family="Helvetica,sans-Serif" font-size="10.00">signal_easel::AddRequired</text>
<text text-anchor="middle" x="736" y="-212.5" font-family="Helvetica,sans-Serif" font-size="10.00">Fields</text>
</a>
</g>
</g>
<!-- Node16&#45;&gt;Node17 -->
<g id="edge17" class="edge">
<title>Node16&#45;&gt;Node17</title>
<path fill="none" stroke="midnightblue" d="M834.71,-210.83C826.11,-211.68 817.49,-212.53 809.13,-213.36"/>
<polygon fill="midnightblue" stroke="midnightblue" points="835.18,-214.3 844.79,-209.83 834.49,-207.34 835.18,-214.3"/>
</g>
<!-- Node16&#45;&gt;Node18 -->
<g id="edge20" class="edge">
<title>Node16&#45;&gt;Node18</title>
<path fill="none" stroke="midnightblue" d="M834.8,-189.23C805.27,-185.39 775.52,-181.52 756.72,-179.07"/>
<polygon fill="midnightblue" stroke="midnightblue" points="834.42,-192.71 844.79,-190.53 835.32,-185.77 834.42,-192.71"/>
</g>
<!-- Node17&#45;&gt;Node11 -->
<g id="edge18" class="edge">
<title>Node17&#45;&gt;Node11</title>
<path fill="none" stroke="midnightblue" d="M652.72,-203.42C577.97,-187.91 470.41,-165.59 409.89,-153.02"/>
<polygon fill="midnightblue" stroke="midnightblue" points="652.08,-206.87 662.59,-205.47 653.51,-200.01 652.08,-206.87"/>
</g>
<!-- Node19&#45;&gt;Node4 -->
<g id="edge23" class="edge">
<title>Node19&#45;&gt;Node4</title>
<path fill="none" stroke="midnightblue" d="M846.62,-258.65C832.3,-260.07 817.57,-261.53 803.74,-262.9"/>
<polygon fill="midnightblue" stroke="midnightblue" points="847.35,-262.1 856.96,-257.63 846.66,-255.13 847.35,-262.1"/>
</g>
<!-- Node19&#45;&gt;Node17 -->
<g id="edge22" class="edge">
<title>Node19&#45;&gt;Node17</title>
<path fill="none" stroke="midnightblue" d="M846.96,-237.68C834.38,-235.72 821.47,-233.7 809.12,-231.77"/>
<polygon fill="midnightblue" stroke="midnightblue" points="846.54,-241.16 856.96,-239.24 847.62,-234.24 846.54,-241.16"/>
</g>
<!-- Node19&#45;&gt;Node18 -->
<g id="edge24" class="edge">
<title>Node19&#45;&gt;Node18</title>
<path fill="none" stroke="midnightblue" d="M855.97,-231.7C852.2,-230.09 848.52,-228.36 845,-226.5 826.59,-216.76 827.45,-206.17 809,-196.5 792.45,-187.83 771.74,-182.58 756.78,-179.65"/>
<polygon fill="midnightblue" stroke="midnightblue" points="854.91,-235.05 865.5,-235.46 857.48,-228.53 854.91,-235.05"/>
</g>
<!-- Node21 -->
<g id="node21" class="node">
<title>Node21</title>
<g id="a_node21"><a xlink:href="classsignal__easel_1_1ax25_1_1Address.html#a2ffb5475017120d1071e4b8d3f35c394" target="_top" xlink:title=" ">
<polygon fill="none" stroke="black" points="876.5,-49.5 876.5,-79.5 983.5,-79.5 983.5,-49.5 876.5,-49.5"/>
<text text-anchor="start" x="884.5" y="-67.5" font-family="Helvetica,sans-Serif" font-size="10.00">signal_easel::ax25</text>
<text text-anchor="middle" x="930" y="-56.5" font-family="Helvetica,sans-Serif" font-size="10.00">::Address::Address</text>
</a>
</g>
</g>
<!-- Node20&#45;&gt;Node21 -->
<g id="edge27" class="edge">
<title>Node20&#45;&gt;Node21</title>
<path fill="none" stroke="midnightblue" d="M1044.91,-64.5C1024.21,-64.5 1002.46,-64.5 983.58,-64.5"/>
<polygon fill="midnightblue" stroke="midnightblue" points="1044.96,-68 1054.96,-64.5 1044.96,-61 1044.96,-68"/>
</g>
<!-- Node23 -->
<g id="node23" class="node">
<title>Node23</title>
<g id="a_node23"><a xlink:href="classsignal__easel_1_1ax25_1_1Address.html#af2e2c1061b619a32d966d4b08eed7ede" target="_top" xlink:title=" ">
<polygon fill="none" stroke="black" points="876.5,-0.5 876.5,-30.5 983.5,-30.5 983.5,-0.5 876.5,-0.5"/>
<text text-anchor="start" x="884.5" y="-18.5" font-family="Helvetica,sans-Serif" font-size="10.00">signal_easel::ax25</text>
<text text-anchor="middle" x="930" y="-7.5" font-family="Helvetica,sans-Serif" font-size="10.00">::Address::Address</text>
</a>
</g>
</g>
<!-- Node22&#45;&gt;Node23 -->
<g id="edge29" class="edge">
<title>Node22&#45;&gt;Node23</title>
<path fill="none" stroke="midnightblue" d="M1040.77,-15.5C1021.4,-15.5 1001.33,-15.5 983.74,-15.5"/>
<polygon fill="midnightblue" stroke="midnightblue" points="1040.83,-19 1050.83,-15.5 1040.83,-12 1040.83,-19"/>
</g>
</g>
</svg>
