<?xml version="1.0" encoding="UTF-8" standalone="no"?>
<!DOCTYPE svg PUBLIC "-//W3C//DTD SVG 1.1//EN"
 "http://www.w3.org/Graphics/SVG/1.1/DTD/svg11.dtd">
<!-- Generated by graphviz version 2.43.0 (0)
 -->
<!-- Title: signal_easel::afsk::Receiver::detectSignal Pages: 1 -->
<svg width="381pt" height="100pt"
 viewBox="0.00 0.00 381.00 99.50" xmlns="http://www.w3.org/2000/svg" xmlns:xlink="http://www.w3.org/1999/xlink">
<g id="graph0" class="graph" transform="scale(1 1) rotate(0) translate(4 95.5)">
<title>signal_easel::afsk::Receiver::detectSignal</title>
<!-- Node1 -->
<g id="node1" class="node">
<title>Node1</title>
<g id="a_node1"><a xlink:title=" ">
<polygon fill="#bfbfbf" stroke="black" points="241,-33 241,-63 373,-63 373,-33 241,-33"/>
<text text-anchor="start" x="249" y="-51" font-family="Helvetica,sans-Serif" font-size="10.00">signal_easel::afsk</text>
<text text-anchor="middle" x="307" y="-40" font-family="Helvetica,sans-Serif" font-size="10.00">::Receiver::detectSignal</text>
</a>
</g>
</g>
<!-- Node2 -->
<g id="node2" class="node">
<title>Node2</title>
<g id="a_node2"><a xlink:href="classsignal__easel_1_1afsk_1_1Receiver.html#aaf047fb76c3792173b5b2b46c5167481" target="_top" xlink:title="Returns true if there was enough data to process.">
<polygon fill="none" stroke="black" points="86.5,-61 86.5,-91 195.5,-91 195.5,-61 86.5,-61"/>
<text text-anchor="start" x="94.5" y="-79" font-family="Helvetica,sans-Serif" font-size="10.00">signal_easel::afsk</text>
<text text-anchor="middle" x="141" y="-68" font-family="Helvetica,sans-Serif" font-size="10.00">::Receiver::process</text>
</a>
</g>
</g>
<!-- Node1&#45;&gt;Node2 -->
<g id="edge1" class="edge">
<title>Node1&#45;&gt;Node2</title>
<path fill="none" stroke="midnightblue" d="M230.83,-60.83C218.99,-62.85 206.96,-64.91 195.74,-66.83"/>
<polygon fill="midnightblue" stroke="midnightblue" points="231.44,-64.28 240.71,-59.15 230.27,-57.38 231.44,-64.28"/>
</g>
<!-- Node4 -->
<g id="node4" class="node">
<title>Node4</title>
<g id="a_node4"><a xlink:href="classsignal__easel_1_1aprs_1_1TestableAprsReceiver.html#a22e1bb72a3eea1cf5b72ecb6c83185da" target="_top" xlink:title="Returns true if there was enough data to process.">
<polygon fill="none" stroke="black" points="77,-0.5 77,-41.5 205,-41.5 205,-0.5 77,-0.5"/>
<text text-anchor="start" x="85" y="-29.5" font-family="Helvetica,sans-Serif" font-size="10.00">signal_easel::aprs</text>
<text text-anchor="start" x="85" y="-18.5" font-family="Helvetica,sans-Serif" font-size="10.00">::TestableAprsReceiver</text>
<text text-anchor="middle" x="141" y="-7.5" font-family="Helvetica,sans-Serif" font-size="10.00">::process</text>
</a>
</g>
</g>
<!-- Node1&#45;&gt;Node4 -->
<g id="edge3" class="edge">
<title>Node1&#45;&gt;Node4</title>
<path fill="none" stroke="midnightblue" d="M230.75,-35.61C222.2,-34.2 213.56,-32.78 205.19,-31.4"/>
<polygon fill="midnightblue" stroke="midnightblue" points="230.28,-39.08 240.71,-37.25 231.41,-32.17 230.28,-39.08"/>
</g>
<!-- Node3 -->
<g id="node3" class="node">
<title>Node3</title>
<g id="a_node3"><a xlink:href="pulse__test_8cpp.html#ae66f6b31b5ad750f1fe042a706a4e3d4" target="_top" xlink:title=" ">
<polygon fill="none" stroke="black" points="0,-66.5 0,-85.5 41,-85.5 41,-66.5 0,-66.5"/>
<text text-anchor="middle" x="20.5" y="-73.5" font-family="Helvetica,sans-Serif" font-size="10.00">main</text>
</a>
</g>
</g>
<!-- Node2&#45;&gt;Node3 -->
<g id="edge2" class="edge">
<title>Node2&#45;&gt;Node3</title>
<path fill="none" stroke="midnightblue" d="M76.04,-76C63.27,-76 50.79,-76 41,-76"/>
<polygon fill="midnightblue" stroke="midnightblue" points="76.3,-79.5 86.3,-76 76.3,-72.5 76.3,-79.5"/>
</g>
<!-- Node5 -->
<g id="node5" class="node">
<title>Node5</title>
<g id="a_node5"><a xlink:href="aprs__receiver__test_8cpp.html#a6da409628ac7ef9e2a77432a7b00e984" target="_top" xlink:title="Test that the receiver properly decodes a real APRS packet from aprs_real.wav using the full aprs::Re...">
<polygon fill="none" stroke="black" points="0,-11.5 0,-30.5 41,-30.5 41,-11.5 0,-11.5"/>
<text text-anchor="middle" x="20.5" y="-18.5" font-family="Helvetica,sans-Serif" font-size="10.00">TEST</text>
</a>
</g>
</g>
<!-- Node4&#45;&gt;Node5 -->
<g id="edge4" class="edge">
<title>Node4&#45;&gt;Node5</title>
<path fill="none" stroke="midnightblue" d="M66.64,-21C57.29,-21 48.43,-21 41.09,-21"/>
<polygon fill="midnightblue" stroke="midnightblue" points="66.93,-24.5 76.93,-21 66.93,-17.5 66.93,-24.5"/>
</g>
</g>
</svg>
