<?xml version="1.0" encoding="UTF-8" standalone="no"?>
<!DOCTYPE svg PUBLIC "-//W3C//DTD SVG 1.1//EN"
 "http://www.w3.org/Graphics/SVG/1.1/DTD/svg11.dtd">
<!-- Generated by graphviz version 2.43.0 (0)
 -->
<!-- Title: signal_easel::aprs::telemetry::AnalogParameter::setCoefficients Pages: 1 -->
<svg width="568pt" height="170pt"
 viewBox="0.00 0.00 568.00 170.00" xmlns="http://www.w3.org/2000/svg" xmlns:xlink="http://www.w3.org/1999/xlink">
<g id="graph0" class="graph" transform="scale(1 1) rotate(0) translate(4 166)">
<title>signal_easel::aprs::telemetry::AnalogParameter::setCoefficients</title>
<!-- Node1 -->
<g id="node1" class="node">
<title>Node1</title>
<g id="a_node1"><a xlink:title="Set all coefficients in the formula y = ax^2 + bx + c.">
<polygon fill="#bfbfbf" stroke="black" points="0,-60.5 0,-101.5 160,-101.5 160,-60.5 0,-60.5"/>
<text text-anchor="start" x="8" y="-89.5" font-family="Helvetica,sans-Serif" font-size="10.00">signal_easel::aprs</text>
<text text-anchor="start" x="8" y="-78.5" font-family="Helvetica,sans-Serif" font-size="10.00">::telemetry::AnalogParameter</text>
<text text-anchor="middle" x="80" y="-67.5" font-family="Helvetica,sans-Serif" font-size="10.00">::setCoefficients</text>
</a>
</g>
</g>
<!-- Node2 -->
<g id="node2" class="node">
<title>Node2</title>
<g id="a_node2"><a xlink:href="classsignal__easel_1_1aprs_1_1telemetry_1_1AnalogParameter.html#a7c5705a070a081de4a4888dc7c38557d" target="_top" xlink:title="Set the A coefficient in the formula y = ax^2 + bx + c.">
<polygon fill="none" stroke="black" points="196,-120.5 196,-161.5 356,-161.5 356,-120.5 196,-120.5"/>
<text text-anchor="start" x="204" y="-149.5" font-family="Helvetica,sans-Serif" font-size="10.00">signal_easel::aprs</text>
<text text-anchor="start" x="204" y="-138.5" font-family="Helvetica,sans-Serif" font-size="10.00">::telemetry::AnalogParameter</text>
<text text-anchor="middle" x="276" y="-127.5" font-family="Helvetica,sans-Serif" font-size="10.00">::setCoefficientA</text>
</a>
</g>
</g>
<!-- Node1&#45;&gt;Node2 -->
<g id="edge1" class="edge">
<title>Node1&#45;&gt;Node2</title>
<path fill="none" stroke="midnightblue" d="M147.49,-101.56C164,-106.67 181.81,-112.18 198.74,-117.42"/>
<polygon fill="midnightblue" stroke="midnightblue" points="198.01,-120.85 208.59,-120.46 200.08,-114.16 198.01,-120.85"/>
</g>
<!-- Node4 -->
<g id="node4" class="node">
<title>Node4</title>
<g id="a_node4"><a xlink:href="classsignal__easel_1_1aprs_1_1telemetry_1_1AnalogParameter.html#a8e660d1c9ddcd71c21ac1ea4750e1a81" target="_top" xlink:title="Set the B coefficient in the formula y = ax^2 + bx + c.">
<polygon fill="none" stroke="black" points="196,-60.5 196,-101.5 356,-101.5 356,-60.5 196,-60.5"/>
<text text-anchor="start" x="204" y="-89.5" font-family="Helvetica,sans-Serif" font-size="10.00">signal_easel::aprs</text>
<text text-anchor="start" x="204" y="-78.5" font-family="Helvetica,sans-Serif" font-size="10.00">::telemetry::AnalogParameter</text>
<text text-anchor="middle" x="276" y="-67.5" font-family="Helvetica,sans-Serif" font-size="10.00">::setCoefficientB</text>
</a>
</g>
</g>
<!-- Node1&#45;&gt;Node4 -->
<g id="edge3" class="edge">
<title>Node1&#45;&gt;Node4</title>
<path fill="none" stroke="midnightblue" d="M160.19,-81C168.53,-81 177.05,-81 185.5,-81"/>
<polygon fill="midnightblue" stroke="midnightblue" points="185.75,-84.5 195.75,-81 185.75,-77.5 185.75,-84.5"/>
</g>
<!-- Node5 -->
<g id="node5" class="node">
<title>Node5</title>
<g id="a_node5"><a xlink:href="classsignal__easel_1_1aprs_1_1telemetry_1_1AnalogParameter.html#ad289542e484756aae17ca7c77b6cb58e" target="_top" xlink:title="Set the C coefficient in the formula y = ax^2 + bx + c.">
<polygon fill="none" stroke="black" points="196,-0.5 196,-41.5 356,-41.5 356,-0.5 196,-0.5"/>
<text text-anchor="start" x="204" y="-29.5" font-family="Helvetica,sans-Serif" font-size="10.00">signal_easel::aprs</text>
<text text-anchor="start" x="204" y="-18.5" font-family="Helvetica,sans-Serif" font-size="10.00">::telemetry::AnalogParameter</text>
<text text-anchor="middle" x="276" y="-7.5" font-family="Helvetica,sans-Serif" font-size="10.00">::setCoefficientC</text>
</a>
</g>
</g>
<!-- Node1&#45;&gt;Node5 -->
<g id="edge5" class="edge">
<title>Node1&#45;&gt;Node5</title>
<path fill="none" stroke="midnightblue" d="M147.49,-60.44C164,-55.33 181.81,-49.82 198.74,-44.58"/>
<polygon fill="midnightblue" stroke="midnightblue" points="200.08,-47.84 208.59,-41.54 198.01,-41.15 200.08,-47.84"/>
</g>
<!-- Node3 -->
<g id="node3" class="node">
<title>Node3</title>
<g id="a_node3"><a xlink:href="namespacesignal__easel_1_1aprs_1_1telemetry.html#a06228386caafe56440016944e280b484" target="_top" xlink:title="Validate the format of a coefficient.">
<polygon fill="none" stroke="black" points="392,-66 392,-96 560,-96 560,-66 392,-66"/>
<text text-anchor="start" x="400" y="-84" font-family="Helvetica,sans-Serif" font-size="10.00">signal_easel::aprs</text>
<text text-anchor="middle" x="476" y="-73" font-family="Helvetica,sans-Serif" font-size="10.00">::telemetry::validateCoefficient</text>
</a>
</g>
</g>
<!-- Node2&#45;&gt;Node3 -->
<g id="edge2" class="edge">
<title>Node2&#45;&gt;Node3</title>
<path fill="none" stroke="midnightblue" d="M344.86,-120.44C367.88,-113.46 393.39,-105.73 415.69,-98.97"/>
<polygon fill="midnightblue" stroke="midnightblue" points="416.8,-102.29 425.35,-96.04 414.77,-95.59 416.8,-102.29"/>
</g>
<!-- Node4&#45;&gt;Node3 -->
<g id="edge4" class="edge">
<title>Node4&#45;&gt;Node3</title>
<path fill="none" stroke="midnightblue" d="M356.11,-81C364.55,-81 373.19,-81 381.77,-81"/>
<polygon fill="midnightblue" stroke="midnightblue" points="381.8,-84.5 391.8,-81 381.8,-77.5 381.8,-84.5"/>
</g>
<!-- Node5&#45;&gt;Node3 -->
<g id="edge6" class="edge">
<title>Node5&#45;&gt;Node3</title>
<path fill="none" stroke="midnightblue" d="M344.86,-41.56C367.88,-48.54 393.39,-56.27 415.69,-63.03"/>
<polygon fill="midnightblue" stroke="midnightblue" points="414.77,-66.41 425.35,-65.96 416.8,-59.71 414.77,-66.41"/>
</g>
</g>
</svg>
