<?xml version="1.0" encoding="UTF-8" standalone="no"?>
<!DOCTYPE svg PUBLIC "-//W3C//DTD SVG 1.1//EN"
 "http://www.w3.org/Graphics/SVG/1.1/DTD/svg11.dtd">
<!-- Generated by graphviz version 2.43.0 (0)
 -->
<!-- Title: signal_easel::Demodulator Pages: 1 -->
<svg width="351pt" height="342pt"
 viewBox="0.00 0.00 351.00 342.00" xmlns="http://www.w3.org/2000/svg" xmlns:xlink="http://www.w3.org/1999/xlink">
<g id="graph0" class="graph" transform="scale(1 1) rotate(0) translate(4 338)">
<title>signal_easel::Demodulator</title>
<!-- Node1 -->
<g id="node1" class="node">
<title>Node1</title>
<g id="a_node1"><a xlink:title="The base class for all demodulators that turn audio into data.">
<polygon fill="#bfbfbf" stroke="black" points="28.5,-0.5 28.5,-101.5 175.5,-101.5 175.5,-0.5 28.5,-0.5"/>
<text text-anchor="middle" x="102" y="-89.5" font-family="Helvetica,sans-Serif" font-size="10.00">signal_easel::Demodulator</text>
<polyline fill="none" stroke="black" points="28.5,-82.5 175.5,-82.5 "/>
<text text-anchor="middle" x="102" y="-70.5" font-family="Helvetica,sans-Serif" font-size="10.00"> </text>
<polyline fill="none" stroke="black" points="28.5,-63.5 175.5,-63.5 "/>
<text text-anchor="start" x="36.5" y="-51.5" font-family="Helvetica,sans-Serif" font-size="10.00">+ Demodulator()</text>
<text text-anchor="start" x="36.5" y="-40.5" font-family="Helvetica,sans-Serif" font-size="10.00">+ ~Demodulator()</text>
<text text-anchor="start" x="36.5" y="-29.5" font-family="Helvetica,sans-Serif" font-size="10.00">+ clearBuffer()</text>
<text text-anchor="start" x="36.5" y="-18.5" font-family="Helvetica,sans-Serif" font-size="10.00">+ loadAudioFromFile()</text>
<text text-anchor="start" x="36.5" y="-7.5" font-family="Helvetica,sans-Serif" font-size="10.00"># getAudioBuffer()</text>
</a>
</g>
</g>
<!-- Node2 -->
<g id="node2" class="node">
<title>Node2</title>
<g id="a_node2"><a xlink:title=" ">
<polygon fill="none" stroke="#bfbfbf" points="0,-149.5 0,-206.5 104,-206.5 104,-149.5 0,-149.5"/>
<text text-anchor="middle" x="52" y="-194.5" font-family="Helvetica,sans-Serif" font-size="10.00">vector&lt; int16_t &gt;</text>
<polyline fill="none" stroke="#bfbfbf" points="0,-187.5 104,-187.5 "/>
<text text-anchor="middle" x="52" y="-175.5" font-family="Helvetica,sans-Serif" font-size="10.00"> </text>
<polyline fill="none" stroke="#bfbfbf" points="0,-168.5 104,-168.5 "/>
<text text-anchor="middle" x="52" y="-156.5" font-family="Helvetica,sans-Serif" font-size="10.00"> </text>
</a>
</g>
</g>
<!-- Node2&#45;&gt;Node1 -->
<g id="edge1" class="edge">
<title>Node2&#45;&gt;Node1</title>
<path fill="none" stroke="#404040" d="M58.61,-149.4C61.17,-139.95 64.37,-129.4 68,-120 68.91,-117.64 69.87,-115.26 70.88,-112.86"/>
<polygon fill="none" stroke="#404040" points="70.99,-112.62 69.75,-105.52 75.83,-101.65 77.07,-108.75 70.99,-112.62"/>
<text text-anchor="middle" x="107" y="-123" font-family="Helvetica,sans-Serif" font-size="10.00"> #audio_buffer_</text>
</g>
<!-- Node3 -->
<g id="node3" class="node">
<title>Node3</title>
<g id="a_node3"><a xlink:href="structsignal__easel_1_1Settings.html" target="_top" xlink:title="The universal settings for MWAV.">
<polygon fill="none" stroke="black" points="122.5,-149.5 122.5,-206.5 245.5,-206.5 245.5,-149.5 122.5,-149.5"/>
<text text-anchor="middle" x="184" y="-194.5" font-family="Helvetica,sans-Serif" font-size="10.00">signal_easel::Settings</text>
<polyline fill="none" stroke="black" points="122.5,-187.5 245.5,-187.5 "/>
<text text-anchor="middle" x="184" y="-175.5" font-family="Helvetica,sans-Serif" font-size="10.00"> </text>
<polyline fill="none" stroke="black" points="122.5,-168.5 245.5,-168.5 "/>
<text text-anchor="middle" x="184" y="-156.5" font-family="Helvetica,sans-Serif" font-size="10.00"> </text>
</a>
</g>
</g>
<!-- Node3&#45;&gt;Node1 -->
<g id="edge2" class="edge">
<title>Node3&#45;&gt;Node1</title>
<path fill="none" stroke="#404040" d="M165.8,-149.26C158.58,-138.25 149.97,-125.13 141.45,-112.14"/>
<polygon fill="none" stroke="#404040" points="141.25,-111.84 134.62,-109.01 134.67,-101.8 141.31,-104.62 141.25,-111.84"/>
<text text-anchor="middle" x="180" y="-123" font-family="Helvetica,sans-Serif" font-size="10.00"> #settings_</text>
</g>
<!-- Node4 -->
<g id="node4" class="node">
<title>Node4</title>
<g id="a_node4"><a xlink:title=" ">
<polygon fill="none" stroke="#bfbfbf" points="50,-276.5 50,-333.5 100,-333.5 100,-276.5 50,-276.5"/>
<text text-anchor="middle" x="75" y="-321.5" font-family="Helvetica,sans-Serif" font-size="10.00">double</text>
<polyline fill="none" stroke="#bfbfbf" points="50,-314.5 100,-314.5 "/>
<text text-anchor="middle" x="75" y="-302.5" font-family="Helvetica,sans-Serif" font-size="10.00"> </text>
<polyline fill="none" stroke="#bfbfbf" points="50,-295.5 100,-295.5 "/>
<text text-anchor="middle" x="75" y="-283.5" font-family="Helvetica,sans-Serif" font-size="10.00"> </text>
</a>
</g>
</g>
<!-- Node4&#45;&gt;Node3 -->
<g id="edge3" class="edge">
<title>Node4&#45;&gt;Node3</title>
<path fill="none" stroke="#404040" d="M75.99,-276.27C77.86,-259.86 82.57,-239.52 94,-225 99.03,-218.61 105.2,-213.02 111.91,-208.16"/>
<polygon fill="none" stroke="#404040" points="112.02,-208.09 114.87,-201.47 122.08,-201.55 119.23,-208.17 112.02,-208.09"/>
<text text-anchor="middle" x="137" y="-250" font-family="Helvetica,sans-Serif" font-size="10.00"> +amplitude</text>
<text text-anchor="start" x="94" y="-239" font-family="Helvetica,sans-Serif" font-size="10.00">+call_sign_pause</text>
<text text-anchor="middle" x="137" y="-228" font-family="Helvetica,sans-Serif" font-size="10.00">_seconds</text>
</g>
<!-- Node5 -->
<g id="node5" class="node">
<title>Node5</title>
<g id="a_node5"><a xlink:title=" ">
<polygon fill="none" stroke="#bfbfbf" points="142.5,-276.5 142.5,-333.5 225.5,-333.5 225.5,-276.5 142.5,-276.5"/>
<text text-anchor="middle" x="184" y="-321.5" font-family="Helvetica,sans-Serif" font-size="10.00">CallSignMode</text>
<polyline fill="none" stroke="#bfbfbf" points="142.5,-314.5 225.5,-314.5 "/>
<text text-anchor="middle" x="184" y="-302.5" font-family="Helvetica,sans-Serif" font-size="10.00"> </text>
<polyline fill="none" stroke="#bfbfbf" points="142.5,-295.5 225.5,-295.5 "/>
<text text-anchor="middle" x="184" y="-283.5" font-family="Helvetica,sans-Serif" font-size="10.00"> </text>
</a>
</g>
</g>
<!-- Node5&#45;&gt;Node3 -->
<g id="edge4" class="edge">
<title>Node5&#45;&gt;Node3</title>
<path fill="none" stroke="#404040" d="M184,-276.26C184,-259.35 184,-237.46 184,-218.73"/>
<polygon fill="none" stroke="#404040" points="184,-218.66 180,-212.66 184,-206.66 188,-212.66 184,-218.66"/>
<text text-anchor="middle" x="228" y="-239" font-family="Helvetica,sans-Serif" font-size="10.00"> +call_sign_mode</text>
</g>
<!-- Node6 -->
<g id="node6" class="node">
<title>Node6</title>
<g id="a_node6"><a xlink:title=" ">
<polygon fill="none" stroke="#bfbfbf" points="273,-276.5 273,-333.5 317,-333.5 317,-276.5 273,-276.5"/>
<text text-anchor="middle" x="295" y="-321.5" font-family="Helvetica,sans-Serif" font-size="10.00">string</text>
<polyline fill="none" stroke="#bfbfbf" points="273,-314.5 317,-314.5 "/>
<text text-anchor="middle" x="295" y="-302.5" font-family="Helvetica,sans-Serif" font-size="10.00"> </text>
<polyline fill="none" stroke="#bfbfbf" points="273,-295.5 317,-295.5 "/>
<text text-anchor="middle" x="295" y="-283.5" font-family="Helvetica,sans-Serif" font-size="10.00"> </text>
</a>
</g>
</g>
<!-- Node6&#45;&gt;Node3 -->
<g id="edge5" class="edge">
<title>Node6&#45;&gt;Node3</title>
<path fill="none" stroke="#404040" d="M292.8,-276.24C290.25,-259.82 284.77,-239.47 273,-225 268.18,-219.07 262.38,-213.81 256.1,-209.18"/>
<polygon fill="none" stroke="#404040" points="255.88,-209.04 248.67,-209.06 245.88,-202.41 253.09,-202.39 255.88,-209.04"/>
<text text-anchor="middle" x="315.5" y="-239" font-family="Helvetica,sans-Serif" font-size="10.00"> +call_sign</text>
</g>
</g>
</svg>
