<?xml version="1.0" encoding="UTF-8" standalone="no"?>
<!DOCTYPE svg PUBLIC "-//W3C//DTD SVG 1.1//EN"
 "http://www.w3.org/Graphics/SVG/1.1/DTD/svg11.dtd">
<!-- Generated by graphviz version 2.43.0 (0)
 -->
<!-- Title: signal_easel::Exception Pages: 1 -->
<svg width="266pt" height="204pt"
 viewBox="0.00 0.00 265.50 204.00" xmlns="http://www.w3.org/2000/svg" xmlns:xlink="http://www.w3.org/1999/xlink">
<g id="graph0" class="graph" transform="scale(1 1) rotate(0) translate(4 200)">
<title>signal_easel::Exception</title>
<!-- Node1 -->
<g id="node1" class="node">
<title>Node1</title>
<g id="a_node1"><a xlink:title=" ">
<polygon fill="#bfbfbf" stroke="black" points="60.5,-0.5 60.5,-90.5 191.5,-90.5 191.5,-0.5 60.5,-0.5"/>
<text text-anchor="middle" x="126" y="-78.5" font-family="Helvetica,sans-Serif" font-size="10.00">signal_easel::Exception</text>
<polyline fill="none" stroke="black" points="60.5,-71.5 191.5,-71.5 "/>
<text text-anchor="middle" x="126" y="-59.5" font-family="Helvetica,sans-Serif" font-size="10.00"> </text>
<polyline fill="none" stroke="black" points="60.5,-52.5 191.5,-52.5 "/>
<text text-anchor="start" x="68.5" y="-40.5" font-family="Helvetica,sans-Serif" font-size="10.00">+ Exception()</text>
<text text-anchor="start" x="68.5" y="-29.5" font-family="Helvetica,sans-Serif" font-size="10.00">+ Exception()</text>
<text text-anchor="start" x="68.5" y="-18.5" font-family="Helvetica,sans-Serif" font-size="10.00">+ what()</text>
<text text-anchor="start" x="68.5" y="-7.5" font-family="Helvetica,sans-Serif" font-size="10.00">+ idToString()</text>
</a>
</g>
</g>
<!-- Node2 -->
<g id="node2" class="node">
<title>Node2</title>
<g id="a_node2"><a xlink:title=" ">
<polygon fill="none" stroke="#bfbfbf" points="0,-138.5 0,-195.5 86,-195.5 86,-138.5 0,-138.5"/>
<text text-anchor="middle" x="43" y="-183.5" font-family="Helvetica,sans-Serif" font-size="10.00">std::exception</text>
<polyline fill="none" stroke="#bfbfbf" points="0,-176.5 86,-176.5 "/>
<text text-anchor="middle" x="43" y="-164.5" font-family="Helvetica,sans-Serif" font-size="10.00"> </text>
<polyline fill="none" stroke="#bfbfbf" points="0,-157.5 86,-157.5 "/>
<text text-anchor="middle" x="43" y="-145.5" font-family="Helvetica,sans-Serif" font-size="10.00"> </text>
</a>
</g>
</g>
<!-- Node2&#45;&gt;Node1 -->
<g id="edge1" class="edge">
<title>Node2&#45;&gt;Node1</title>
<path fill="none" stroke="midnightblue" d="M67.97,-130.05C76.52,-117.74 86.19,-103.81 95.15,-90.91"/>
<polygon fill="none" stroke="midnightblue" points="65.08,-128.07 62.25,-138.28 70.83,-132.07 65.08,-128.07"/>
</g>
<!-- Node3 -->
<g id="node3" class="node">
<title>Node3</title>
<g id="a_node3"><a xlink:title=" ">
<polygon fill="none" stroke="#bfbfbf" points="104,-138.5 104,-195.5 148,-195.5 148,-138.5 104,-138.5"/>
<text text-anchor="middle" x="126" y="-183.5" font-family="Helvetica,sans-Serif" font-size="10.00">string</text>
<polyline fill="none" stroke="#bfbfbf" points="104,-176.5 148,-176.5 "/>
<text text-anchor="middle" x="126" y="-164.5" font-family="Helvetica,sans-Serif" font-size="10.00"> </text>
<polyline fill="none" stroke="#bfbfbf" points="104,-157.5 148,-157.5 "/>
<text text-anchor="middle" x="126" y="-145.5" font-family="Helvetica,sans-Serif" font-size="10.00"> </text>
</a>
</g>
</g>
<!-- Node3&#45;&gt;Node1 -->
<g id="edge2" class="edge">
<title>Node3&#45;&gt;Node1</title>
<path fill="none" stroke="#404040" d="M126,-138.28C126,-127.73 126,-115.29 126,-103.03"/>
<polygon fill="none" stroke="#404040" points="126,-102.91 122,-96.91 126,-90.91 130,-96.91 126,-102.91"/>
<text text-anchor="middle" x="173" y="-112" font-family="Helvetica,sans-Serif" font-size="10.00"> &#45;exception_string_</text>
</g>
<!-- Node4 -->
<g id="node4" class="node">
<title>Node4</title>
<g id="a_node4"><a xlink:title=" ">
<polygon fill="none" stroke="#bfbfbf" points="228.5,-138.5 228.5,-195.5 257.5,-195.5 257.5,-138.5 228.5,-138.5"/>
<text text-anchor="middle" x="243" y="-183.5" font-family="Helvetica,sans-Serif" font-size="10.00">Id</text>
<polyline fill="none" stroke="#bfbfbf" points="228.5,-176.5 257.5,-176.5 "/>
<text text-anchor="middle" x="243" y="-164.5" font-family="Helvetica,sans-Serif" font-size="10.00"> </text>
<polyline fill="none" stroke="#bfbfbf" points="228.5,-157.5 257.5,-157.5 "/>
<text text-anchor="middle" x="243" y="-145.5" font-family="Helvetica,sans-Serif" font-size="10.00"> </text>
</a>
</g>
</g>
<!-- Node4&#45;&gt;Node1 -->
<g id="edge3" class="edge">
<title>Node4&#45;&gt;Node1</title>
<path fill="none" stroke="#404040" d="M236.17,-138.37C232.76,-128.39 227.86,-117.5 221,-109 215.38,-102.03 208.76,-95.56 201.69,-89.64"/>
<polygon fill="none" stroke="#404040" points="201.25,-89.31 194.06,-88.76 191.8,-81.92 198.99,-82.46 201.25,-89.31"/>
<text text-anchor="middle" x="238" y="-112" font-family="Helvetica,sans-Serif" font-size="10.00"> &#45;id_</text>
</g>
</g>
</svg>
