<?xml version="1.0" encoding="UTF-8" standalone="no"?>
<!DOCTYPE svg PUBLIC "-//W3C//DTD SVG 1.1//EN"
 "http://www.w3.org/Graphics/SVG/1.1/DTD/svg11.dtd">
<!-- Generated by graphviz version 2.43.0 (0)
 -->
<!-- Title: signal_easel::aprs::Demodulator Pages: 1 -->
<svg width="1242pt" height="1124pt"
 viewBox="0.00 0.00 1242.00 1124.00" xmlns="http://www.w3.org/2000/svg" xmlns:xlink="http://www.w3.org/1999/xlink">
<g id="graph0" class="graph" transform="scale(1 1) rotate(0) translate(4 1120)">
<title>signal_easel::aprs::Demodulator</title>
<!-- Node1 -->
<g id="node1" class="node">
<title>Node1</title>
<g id="a_node1"><a xlink:title=" ">
<polygon fill="#bfbfbf" stroke="black" points="745,-0.5 745,-156.5 904,-156.5 904,-0.5 745,-0.5"/>
<text text-anchor="start" x="753" y="-144.5" font-family="Helvetica,sans-Serif" font-size="10.00">signal_easel::aprs</text>
<text text-anchor="middle" x="824.5" y="-133.5" font-family="Helvetica,sans-Serif" font-size="10.00">::Demodulator</text>
<polyline fill="none" stroke="black" points="745,-126.5 904,-126.5 "/>
<text text-anchor="middle" x="824.5" y="-114.5" font-family="Helvetica,sans-Serif" font-size="10.00"> </text>
<polyline fill="none" stroke="black" points="745,-107.5 904,-107.5 "/>
<text text-anchor="start" x="753" y="-95.5" font-family="Helvetica,sans-Serif" font-size="10.00">+ Demodulator()</text>
<text text-anchor="start" x="753" y="-84.5" font-family="Helvetica,sans-Serif" font-size="10.00">+ getType()</text>
<text text-anchor="start" x="753" y="-73.5" font-family="Helvetica,sans-Serif" font-size="10.00">+ lookForAx25Packet()</text>
<text text-anchor="start" x="753" y="-62.5" font-family="Helvetica,sans-Serif" font-size="10.00">+ parseExperimentalPacket()</text>
<text text-anchor="start" x="753" y="-51.5" font-family="Helvetica,sans-Serif" font-size="10.00">+ parseMessagePacket()</text>
<text text-anchor="start" x="753" y="-40.5" font-family="Helvetica,sans-Serif" font-size="10.00">+ parsePositionPacket()</text>
<text text-anchor="start" x="753" y="-29.5" font-family="Helvetica,sans-Serif" font-size="10.00">+ parseTelemetryPacket()</text>
<text text-anchor="start" x="753" y="-18.5" font-family="Helvetica,sans-Serif" font-size="10.00">+ printFrame()</text>
<text text-anchor="start" x="753" y="-7.5" font-family="Helvetica,sans-Serif" font-size="10.00">&#45; populateGenericFields()</text>
</a>
</g>
</g>
<!-- Node2 -->
<g id="node2" class="node">
<title>Node2</title>
<g id="a_node2"><a xlink:href="classsignal__easel_1_1afsk_1_1Demodulator.html" target="_top" xlink:title="Demodulates an AFSK signal into data.">
<polygon fill="none" stroke="black" points="427.5,-314.5 427.5,-437.5 603.5,-437.5 603.5,-314.5 427.5,-314.5"/>
<text text-anchor="start" x="435.5" y="-425.5" font-family="Helvetica,sans-Serif" font-size="10.00">signal_easel::afsk</text>
<text text-anchor="middle" x="515.5" y="-414.5" font-family="Helvetica,sans-Serif" font-size="10.00">::Demodulator</text>
<polyline fill="none" stroke="black" points="427.5,-407.5 603.5,-407.5 "/>
<text text-anchor="middle" x="515.5" y="-395.5" font-family="Helvetica,sans-Serif" font-size="10.00"> </text>
<polyline fill="none" stroke="black" points="427.5,-388.5 603.5,-388.5 "/>
<text text-anchor="start" x="435.5" y="-376.5" font-family="Helvetica,sans-Serif" font-size="10.00">+ Demodulator()</text>
<text text-anchor="start" x="435.5" y="-365.5" font-family="Helvetica,sans-Serif" font-size="10.00">+ ~Demodulator()</text>
<text text-anchor="start" x="435.5" y="-354.5" font-family="Helvetica,sans-Serif" font-size="10.00">+ lookForString()</text>
<text text-anchor="start" x="435.5" y="-343.5" font-family="Helvetica,sans-Serif" font-size="10.00">+ processAudioBuffer()</text>
<text text-anchor="start" x="435.5" y="-332.5" font-family="Helvetica,sans-Serif" font-size="10.00">&#45; audioBufferToBaseBandSignal()</text>
<text text-anchor="start" x="435.5" y="-321.5" font-family="Helvetica,sans-Serif" font-size="10.00">&#45; baseBandToBitStream()</text>
</a>
</g>
</g>
<!-- Node2&#45;&gt;Node1 -->
<g id="edge1" class="edge">
<title>Node2&#45;&gt;Node1</title>
<path fill="none" stroke="midnightblue" d="M586.23,-307.36C633.5,-262.15 695.77,-202.6 744.8,-155.72"/>
<polygon fill="none" stroke="midnightblue" points="583.58,-305.05 578.78,-314.49 588.42,-310.11 583.58,-305.05"/>
</g>
<!-- Node3 -->
<g id="node3" class="node">
<title>Node3</title>
<g id="a_node3"><a xlink:href="classsignal__easel_1_1Demodulator.html" target="_top" xlink:title="The base class for all demodulators that turn audio into data.">
<polygon fill="none" stroke="black" points="451,-667 451,-768 598,-768 598,-667 451,-667"/>
<text text-anchor="middle" x="524.5" y="-756" font-family="Helvetica,sans-Serif" font-size="10.00">signal_easel::Demodulator</text>
<polyline fill="none" stroke="black" points="451,-749 598,-749 "/>
<text text-anchor="middle" x="524.5" y="-737" font-family="Helvetica,sans-Serif" font-size="10.00"> </text>
<polyline fill="none" stroke="black" points="451,-730 598,-730 "/>
<text text-anchor="start" x="459" y="-718" font-family="Helvetica,sans-Serif" font-size="10.00">+ Demodulator()</text>
<text text-anchor="start" x="459" y="-707" font-family="Helvetica,sans-Serif" font-size="10.00">+ ~Demodulator()</text>
<text text-anchor="start" x="459" y="-696" font-family="Helvetica,sans-Serif" font-size="10.00">+ clearBuffer()</text>
<text text-anchor="start" x="459" y="-685" font-family="Helvetica,sans-Serif" font-size="10.00">+ loadAudioFromFile()</text>
<text text-anchor="start" x="459" y="-674" font-family="Helvetica,sans-Serif" font-size="10.00"># getAudioBuffer()</text>
</a>
</g>
</g>
<!-- Node3&#45;&gt;Node2 -->
<g id="edge2" class="edge">
<title>Node3&#45;&gt;Node2</title>
<path fill="none" stroke="midnightblue" d="M522.91,-656.43C521.28,-594.86 518.75,-499.61 517.11,-437.77"/>
<polygon fill="none" stroke="midnightblue" points="519.42,-656.87 523.18,-666.77 526.42,-656.68 519.42,-656.87"/>
</g>
<!-- Node4 -->
<g id="node4" class="node">
<title>Node4</title>
<g id="a_node4"><a xlink:href="structsignal__easel_1_1Settings.html" target="_top" xlink:title="The universal settings for MWAV.">
<polygon fill="none" stroke="black" points="422,-931.5 422,-988.5 545,-988.5 545,-931.5 422,-931.5"/>
<text text-anchor="middle" x="483.5" y="-976.5" font-family="Helvetica,sans-Serif" font-size="10.00">signal_easel::Settings</text>
<polyline fill="none" stroke="black" points="422,-969.5 545,-969.5 "/>
<text text-anchor="middle" x="483.5" y="-957.5" font-family="Helvetica,sans-Serif" font-size="10.00"> </text>
<polyline fill="none" stroke="black" points="422,-950.5 545,-950.5 "/>
<text text-anchor="middle" x="483.5" y="-938.5" font-family="Helvetica,sans-Serif" font-size="10.00"> </text>
</a>
</g>
</g>
<!-- Node4&#45;&gt;Node3 -->
<g id="edge3" class="edge">
<title>Node4&#45;&gt;Node3</title>
<path fill="none" stroke="#404040" d="M482.96,-931.44C482.91,-906.37 483.96,-868.45 489.5,-836 492.67,-817.41 497.84,-797.62 503.25,-779.68"/>
<polygon fill="none" stroke="#404040" points="503.25,-779.65 501.21,-772.73 506.81,-768.19 508.85,-775.1 503.25,-779.65"/>
<text text-anchor="middle" x="517.5" y="-872" font-family="Helvetica,sans-Serif" font-size="10.00"> #settings_</text>
</g>
<!-- Node14 -->
<g id="node14" class="node">
<title>Node14</title>
<g id="a_node14"><a xlink:href="structsignal__easel_1_1afsk_1_1Settings.html" target="_top" xlink:title="Settings for AFSK modulation/demodulation.">
<polygon fill="none" stroke="black" points="328.5,-683.5 328.5,-751.5 432.5,-751.5 432.5,-683.5 328.5,-683.5"/>
<text text-anchor="start" x="336.5" y="-739.5" font-family="Helvetica,sans-Serif" font-size="10.00">signal_easel::afsk</text>
<text text-anchor="middle" x="380.5" y="-728.5" font-family="Helvetica,sans-Serif" font-size="10.00">::Settings</text>
<polyline fill="none" stroke="black" points="328.5,-721.5 432.5,-721.5 "/>
<text text-anchor="middle" x="380.5" y="-709.5" font-family="Helvetica,sans-Serif" font-size="10.00"> </text>
<polyline fill="none" stroke="black" points="328.5,-702.5 432.5,-702.5 "/>
<text text-anchor="middle" x="380.5" y="-690.5" font-family="Helvetica,sans-Serif" font-size="10.00"> </text>
</a>
</g>
</g>
<!-- Node4&#45;&gt;Node14 -->
<g id="edge14" class="edge">
<title>Node4&#45;&gt;Node14</title>
<path fill="none" stroke="midnightblue" d="M472.31,-921.51C464.56,-896.85 453.5,-864.08 441.5,-836 428.99,-806.73 412.16,-774.74 399.35,-751.54"/>
<polygon fill="none" stroke="midnightblue" points="469.01,-922.69 475.32,-931.2 475.69,-920.61 469.01,-922.69"/>
</g>
<!-- Node5 -->
<g id="node5" class="node">
<title>Node5</title>
<g id="a_node5"><a xlink:title=" ">
<polygon fill="none" stroke="black" points="871.5,-1058.5 871.5,-1115.5 915.5,-1115.5 915.5,-1058.5 871.5,-1058.5"/>
<text text-anchor="middle" x="893.5" y="-1103.5" font-family="Helvetica,sans-Serif" font-size="10.00">string</text>
<polyline fill="none" stroke="black" points="871.5,-1096.5 915.5,-1096.5 "/>
<text text-anchor="middle" x="893.5" y="-1084.5" font-family="Helvetica,sans-Serif" font-size="10.00"> </text>
<polyline fill="none" stroke="black" points="871.5,-1077.5 915.5,-1077.5 "/>
<text text-anchor="middle" x="893.5" y="-1065.5" font-family="Helvetica,sans-Serif" font-size="10.00"> </text>
</a>
</g>
</g>
<!-- Node5&#45;&gt;Node4 -->
<g id="edge4" class="edge">
<title>Node5&#45;&gt;Node4</title>
<path fill="none" stroke="#404040" d="M871.32,-1079.68C804.72,-1060.72 608.36,-1004.77 556.85,-989.35"/>
<polygon fill="none" stroke="#404040" points="556.79,-989.34 549.88,-991.38 545.33,-985.79 552.24,-983.74 556.79,-989.34"/>
<text text-anchor="middle" x="755" y="-1021" font-family="Helvetica,sans-Serif" font-size="10.00"> +call_sign</text>
</g>
<!-- Node18 -->
<g id="node18" class="node">
<title>Node18</title>
<g id="a_node18"><a xlink:href="classsignal__easel_1_1ax25_1_1Address.html" target="_top" xlink:title="AX.25 Address class. For encoding and decoding AX.25 addresses.">
<polygon fill="none" stroke="black" points="871,-617.5 871,-817.5 1032,-817.5 1032,-617.5 871,-617.5"/>
<text text-anchor="start" x="879" y="-805.5" font-family="Helvetica,sans-Serif" font-size="10.00">signal_easel::ax25</text>
<text text-anchor="middle" x="951.5" y="-794.5" font-family="Helvetica,sans-Serif" font-size="10.00">::Address</text>
<polyline fill="none" stroke="black" points="871,-787.5 1032,-787.5 "/>
<text text-anchor="middle" x="951.5" y="-775.5" font-family="Helvetica,sans-Serif" font-size="10.00"> </text>
<polyline fill="none" stroke="black" points="871,-768.5 1032,-768.5 "/>
<text text-anchor="start" x="879" y="-756.5" font-family="Helvetica,sans-Serif" font-size="10.00">+ Address()</text>
<text text-anchor="start" x="879" y="-745.5" font-family="Helvetica,sans-Serif" font-size="10.00">+ Address()</text>
<text text-anchor="start" x="879" y="-734.5" font-family="Helvetica,sans-Serif" font-size="10.00">+ Address()</text>
<text text-anchor="start" x="879" y="-723.5" font-family="Helvetica,sans-Serif" font-size="10.00">+ assertIsValid()</text>
<text text-anchor="start" x="879" y="-712.5" font-family="Helvetica,sans-Serif" font-size="10.00">+ decodeAddress()</text>
<text text-anchor="start" x="879" y="-701.5" font-family="Helvetica,sans-Serif" font-size="10.00">+ encodeAddress()</text>
<text text-anchor="start" x="879" y="-690.5" font-family="Helvetica,sans-Serif" font-size="10.00">+ getAddressString()</text>
<text text-anchor="start" x="879" y="-679.5" font-family="Helvetica,sans-Serif" font-size="10.00">+ getSsid()</text>
<text text-anchor="start" x="879" y="-668.5" font-family="Helvetica,sans-Serif" font-size="10.00">+ isAddressStringValid()</text>
<text text-anchor="start" x="879" y="-657.5" font-family="Helvetica,sans-Serif" font-size="10.00">+ isCommandOrResponse()</text>
<text text-anchor="start" x="879" y="-646.5" font-family="Helvetica,sans-Serif" font-size="10.00">and 8 more...</text>
<text text-anchor="start" x="879" y="-635.5" font-family="Helvetica,sans-Serif" font-size="10.00">&#45; assertAddressStringIsValid()</text>
<text text-anchor="start" x="879" y="-624.5" font-family="Helvetica,sans-Serif" font-size="10.00">&#45; assertSsidIsValid()</text>
</a>
</g>
</g>
<!-- Node5&#45;&gt;Node18 -->
<g id="edge19" class="edge">
<title>Node5&#45;&gt;Node18</title>
<path fill="none" stroke="#404040" d="M900.85,-1058.34C909.63,-1024.36 924.16,-964.83 932.5,-913 936.82,-886.16 940.3,-857.06 943.04,-829.75"/>
<polygon fill="none" stroke="#404040" points="943.04,-829.7 939.64,-823.34 944.2,-817.75 947.6,-824.11 943.04,-829.7"/>
<text text-anchor="middle" x="970.5" y="-957.5" font-family="Helvetica,sans-Serif" font-size="10.00"> &#45;address_string_</text>
</g>
<!-- Node6 -->
<g id="node6" class="node">
<title>Node6</title>
<g id="a_node6"><a xlink:title=" ">
<polygon fill="none" stroke="black" points="384,-1058.5 384,-1115.5 467,-1115.5 467,-1058.5 384,-1058.5"/>
<text text-anchor="middle" x="425.5" y="-1103.5" font-family="Helvetica,sans-Serif" font-size="10.00">CallSignMode</text>
<polyline fill="none" stroke="black" points="384,-1096.5 467,-1096.5 "/>
<text text-anchor="middle" x="425.5" y="-1084.5" font-family="Helvetica,sans-Serif" font-size="10.00"> </text>
<polyline fill="none" stroke="black" points="384,-1077.5 467,-1077.5 "/>
<text text-anchor="middle" x="425.5" y="-1065.5" font-family="Helvetica,sans-Serif" font-size="10.00"> </text>
</a>
</g>
</g>
<!-- Node6&#45;&gt;Node4 -->
<g id="edge5" class="edge">
<title>Node6&#45;&gt;Node4</title>
<path fill="none" stroke="#404040" d="M418.12,-1058.29C415.41,-1042.47 414.66,-1022.72 422.5,-1007 424.16,-1003.66 426.19,-1000.51 428.49,-997.53"/>
<polygon fill="none" stroke="#404040" points="428.54,-997.49 429.63,-990.36 436.63,-988.63 435.54,-995.76 428.54,-997.49"/>
<text text-anchor="middle" x="466.5" y="-1021" font-family="Helvetica,sans-Serif" font-size="10.00"> +call_sign_mode</text>
</g>
<!-- Node7 -->
<g id="node7" class="node">
<title>Node7</title>
<g id="a_node7"><a xlink:title=" ">
<polygon fill="none" stroke="black" points="511.5,-1058.5 511.5,-1115.5 561.5,-1115.5 561.5,-1058.5 511.5,-1058.5"/>
<text text-anchor="middle" x="536.5" y="-1103.5" font-family="Helvetica,sans-Serif" font-size="10.00">double</text>
<polyline fill="none" stroke="black" points="511.5,-1096.5 561.5,-1096.5 "/>
<text text-anchor="middle" x="536.5" y="-1084.5" font-family="Helvetica,sans-Serif" font-size="10.00"> </text>
<polyline fill="none" stroke="black" points="511.5,-1077.5 561.5,-1077.5 "/>
<text text-anchor="middle" x="536.5" y="-1065.5" font-family="Helvetica,sans-Serif" font-size="10.00"> </text>
</a>
</g>
</g>
<!-- Node7&#45;&gt;Node4 -->
<g id="edge6" class="edge">
<title>Node7&#45;&gt;Node4</title>
<path fill="none" stroke="#404040" d="M531.06,-1058.18C527.46,-1042.68 522.02,-1023.29 514.5,-1007 513.31,-1004.42 511.98,-1001.82 510.56,-999.24"/>
<polygon fill="none" stroke="#404040" points="510.51,-999.16 504,-996.07 504.34,-988.87 510.86,-991.96 510.51,-999.16"/>
<text text-anchor="middle" x="569.5" y="-1032" font-family="Helvetica,sans-Serif" font-size="10.00"> +amplitude</text>
<text text-anchor="start" x="526.5" y="-1021" font-family="Helvetica,sans-Serif" font-size="10.00">+call_sign_pause</text>
<text text-anchor="middle" x="569.5" y="-1010" font-family="Helvetica,sans-Serif" font-size="10.00">_seconds</text>
</g>
<!-- Node8 -->
<g id="node8" class="node">
<title>Node8</title>
<g id="a_node8"><a xlink:title=" ">
<polygon fill="none" stroke="black" points="563.5,-931.5 563.5,-988.5 667.5,-988.5 667.5,-931.5 563.5,-931.5"/>
<text text-anchor="middle" x="615.5" y="-976.5" font-family="Helvetica,sans-Serif" font-size="10.00">vector&lt; int16_t &gt;</text>
<polyline fill="none" stroke="black" points="563.5,-969.5 667.5,-969.5 "/>
<text text-anchor="middle" x="615.5" y="-957.5" font-family="Helvetica,sans-Serif" font-size="10.00"> </text>
<polyline fill="none" stroke="black" points="563.5,-950.5 667.5,-950.5 "/>
<text text-anchor="middle" x="615.5" y="-938.5" font-family="Helvetica,sans-Serif" font-size="10.00"> </text>
</a>
</g>
</g>
<!-- Node8&#45;&gt;Node3 -->
<g id="edge7" class="edge">
<title>Node8&#45;&gt;Node3</title>
<path fill="none" stroke="#404040" d="M582.33,-931.47C577.08,-925.82 572.17,-919.58 568.5,-913 561.96,-901.29 547.22,-832.52 536.6,-780.04"/>
<polygon fill="none" stroke="#404040" points="536.57,-779.87 531.46,-774.77 534.2,-768.1 539.31,-773.2 536.57,-779.87"/>
<text text-anchor="middle" x="607.5" y="-872" font-family="Helvetica,sans-Serif" font-size="10.00"> #audio_buffer_</text>
</g>
<!-- Node9 -->
<g id="node9" class="node">
<title>Node9</title>
<g id="a_node9"><a xlink:href="classsignal__easel_1_1BitStream.html" target="_top" xlink:title=" ">
<polygon fill="none" stroke="black" points="115,-623 115,-812 262,-812 262,-623 115,-623"/>
<text text-anchor="middle" x="188.5" y="-800" font-family="Helvetica,sans-Serif" font-size="10.00">signal_easel::BitStream</text>
<polyline fill="none" stroke="black" points="115,-793 262,-793 "/>
<text text-anchor="middle" x="188.5" y="-781" font-family="Helvetica,sans-Serif" font-size="10.00"> </text>
<polyline fill="none" stroke="black" points="115,-774 262,-774 "/>
<text text-anchor="start" x="123" y="-762" font-family="Helvetica,sans-Serif" font-size="10.00">+ addBits()</text>
<text text-anchor="start" x="123" y="-751" font-family="Helvetica,sans-Serif" font-size="10.00">+ addOneBit()</text>
<text text-anchor="start" x="123" y="-740" font-family="Helvetica,sans-Serif" font-size="10.00">+ addZeroBit()</text>
<text text-anchor="start" x="123" y="-729" font-family="Helvetica,sans-Serif" font-size="10.00">+ clear()</text>
<text text-anchor="start" x="123" y="-718" font-family="Helvetica,sans-Serif" font-size="10.00">+ dumpBitStream()</text>
<text text-anchor="start" x="123" y="-707" font-family="Helvetica,sans-Serif" font-size="10.00">+ dumpBitStreamAsAscii()</text>
<text text-anchor="start" x="123" y="-696" font-family="Helvetica,sans-Serif" font-size="10.00">+ dumpBitStreamAsHex()</text>
<text text-anchor="start" x="123" y="-685" font-family="Helvetica,sans-Serif" font-size="10.00">+ getBitStreamLength()</text>
<text text-anchor="start" x="123" y="-674" font-family="Helvetica,sans-Serif" font-size="10.00">+ getBitVector()</text>
<text text-anchor="start" x="123" y="-663" font-family="Helvetica,sans-Serif" font-size="10.00">+ peakNextBit()</text>
<text text-anchor="start" x="123" y="-652" font-family="Helvetica,sans-Serif" font-size="10.00">+ peakNextByte()</text>
<text text-anchor="start" x="123" y="-641" font-family="Helvetica,sans-Serif" font-size="10.00">+ popNextBit()</text>
<text text-anchor="start" x="123" y="-630" font-family="Helvetica,sans-Serif" font-size="10.00">+ pushBufferToBitStream()</text>
</a>
</g>
</g>
<!-- Node9&#45;&gt;Node2 -->
<g id="edge8" class="edge">
<title>Node9&#45;&gt;Node2</title>
<path fill="none" stroke="#404040" d="M262.1,-626.79C279.53,-606.44 298.34,-585.18 316.5,-566 355.47,-524.84 401.19,-481.12 438.98,-446.1"/>
<polygon fill="none" stroke="#404040" points="439.09,-446 440.78,-438.99 447.9,-437.86 446.21,-444.87 439.09,-446"/>
<text text-anchor="middle" x="369.5" y="-580" font-family="Helvetica,sans-Serif" font-size="10.00"> #output_bit_stream_</text>
</g>
<!-- Node10 -->
<g id="node10" class="node">
<title>Node10</title>
<g id="a_node10"><a xlink:title=" ">
<polygon fill="none" stroke="black" points="201.5,-931.5 201.5,-988.5 311.5,-988.5 311.5,-931.5 201.5,-931.5"/>
<text text-anchor="middle" x="256.5" y="-976.5" font-family="Helvetica,sans-Serif" font-size="10.00">vector&lt; uint32_t &gt;</text>
<polyline fill="none" stroke="black" points="201.5,-969.5 311.5,-969.5 "/>
<text text-anchor="middle" x="256.5" y="-957.5" font-family="Helvetica,sans-Serif" font-size="10.00"> </text>
<polyline fill="none" stroke="black" points="201.5,-950.5 311.5,-950.5 "/>
<text text-anchor="middle" x="256.5" y="-938.5" font-family="Helvetica,sans-Serif" font-size="10.00"> </text>
</a>
</g>
</g>
<!-- Node10&#45;&gt;Node9 -->
<g id="edge9" class="edge">
<title>Node10&#45;&gt;Node9</title>
<path fill="none" stroke="#404040" d="M253.13,-931.29C249.69,-906.13 243.57,-868.15 234.5,-836 233.36,-831.98 232.14,-827.9 230.85,-823.8"/>
<polygon fill="none" stroke="#404040" points="230.8,-823.62 225.13,-819.17 227.06,-812.22 232.73,-816.68 230.8,-823.62"/>
<text text-anchor="middle" x="283" y="-872" font-family="Helvetica,sans-Serif" font-size="10.00"> &#45;bit_stream_</text>
</g>
<!-- Node11 -->
<g id="node11" class="node">
<title>Node11</title>
<g id="a_node11"><a xlink:title=" ">
<polygon fill="none" stroke="black" points="0,-931.5 0,-988.5 29,-988.5 29,-931.5 0,-931.5"/>
<text text-anchor="middle" x="14.5" y="-976.5" font-family="Helvetica,sans-Serif" font-size="10.00">int</text>
<polyline fill="none" stroke="black" points="0,-969.5 29,-969.5 "/>
<text text-anchor="middle" x="14.5" y="-957.5" font-family="Helvetica,sans-Serif" font-size="10.00"> </text>
<polyline fill="none" stroke="black" points="0,-950.5 29,-950.5 "/>
<text text-anchor="middle" x="14.5" y="-938.5" font-family="Helvetica,sans-Serif" font-size="10.00"> </text>
</a>
</g>
</g>
<!-- Node11&#45;&gt;Node9 -->
<g id="edge10" class="edge">
<title>Node11&#45;&gt;Node9</title>
<path fill="none" stroke="#404040" d="M11.87,-931.38C10.69,-905.08 12.43,-865.27 29.5,-836 47.13,-805.76 75.94,-780.97 104.24,-762.08"/>
<polygon fill="none" stroke="#404040" points="104.53,-761.89 107.4,-755.28 114.61,-755.39 111.74,-762.01 104.53,-761.89"/>
<text text-anchor="middle" x="78" y="-888.5" font-family="Helvetica,sans-Serif" font-size="10.00"> &#45;bit_stream_index_</text>
<text text-anchor="start" x="29.5" y="-877.5" font-family="Helvetica,sans-Serif" font-size="10.00">&#45;bit_stream_length</text>
<text text-anchor="middle" x="78" y="-866.5" font-family="Helvetica,sans-Serif" font-size="10.00">_</text>
<text text-anchor="middle" x="78" y="-855.5" font-family="Helvetica,sans-Serif" font-size="10.00">&#45;bit_stream_offset_</text>
</g>
<!-- Node12 -->
<g id="node12" class="node">
<title>Node12</title>
<g id="a_node12"><a xlink:title=" ">
<polygon fill="none" stroke="black" points="106.5,-931.5 106.5,-988.5 162.5,-988.5 162.5,-931.5 106.5,-931.5"/>
<text text-anchor="middle" x="134.5" y="-976.5" font-family="Helvetica,sans-Serif" font-size="10.00">uint32_t</text>
<polyline fill="none" stroke="black" points="106.5,-969.5 162.5,-969.5 "/>
<text text-anchor="middle" x="134.5" y="-957.5" font-family="Helvetica,sans-Serif" font-size="10.00"> </text>
<polyline fill="none" stroke="black" points="106.5,-950.5 162.5,-950.5 "/>
<text text-anchor="middle" x="134.5" y="-938.5" font-family="Helvetica,sans-Serif" font-size="10.00"> </text>
</a>
</g>
</g>
<!-- Node12&#45;&gt;Node9 -->
<g id="edge11" class="edge">
<title>Node12&#45;&gt;Node9</title>
<path fill="none" stroke="#404040" d="M131.49,-931.28C129.52,-906.11 128.45,-868.12 135.5,-836 136.39,-831.94 137.43,-827.86 138.59,-823.76"/>
<polygon fill="none" stroke="#404040" points="138.61,-823.71 136.57,-816.79 142.17,-812.25 144.21,-819.17 138.61,-823.71"/>
<text text-anchor="middle" x="185" y="-872" font-family="Helvetica,sans-Serif" font-size="10.00"> &#45;bit_stream_buffer_</text>
</g>
<!-- Node13 -->
<g id="node13" class="node">
<title>Node13</title>
<g id="a_node13"><a xlink:title=" ">
<polygon fill="none" stroke="black" points="616.5,-689 616.5,-746 720.5,-746 720.5,-689 616.5,-689"/>
<text text-anchor="middle" x="668.5" y="-734" font-family="Helvetica,sans-Serif" font-size="10.00">vector&lt; uint8_t &gt;</text>
<polyline fill="none" stroke="black" points="616.5,-727 720.5,-727 "/>
<text text-anchor="middle" x="668.5" y="-715" font-family="Helvetica,sans-Serif" font-size="10.00"> </text>
<polyline fill="none" stroke="black" points="616.5,-708 720.5,-708 "/>
<text text-anchor="middle" x="668.5" y="-696" font-family="Helvetica,sans-Serif" font-size="10.00"> </text>
</a>
</g>
</g>
<!-- Node13&#45;&gt;Node2 -->
<g id="edge12" class="edge">
<title>Node13&#45;&gt;Node2</title>
<path fill="none" stroke="#404040" d="M657.62,-688.62C647.53,-666.24 630.46,-635.59 606.5,-617 585.51,-600.72 566.79,-619.17 549.5,-599 514.73,-558.42 507.44,-497.65 508.18,-449.95"/>
<polygon fill="none" stroke="#404040" points="508.18,-449.8 504.37,-443.69 508.54,-437.81 512.36,-443.92 508.18,-449.8"/>
<text text-anchor="middle" x="599.5" y="-580" font-family="Helvetica,sans-Serif" font-size="10.00"> &#45;base_band_signal_</text>
</g>
<!-- Node17 -->
<g id="node17" class="node">
<title>Node17</title>
<g id="a_node17"><a xlink:href="classsignal__easel_1_1ax25_1_1Frame.html" target="_top" xlink:title=" ">
<polygon fill="none" stroke="black" points="745,-204.5 745,-547.5 904,-547.5 904,-204.5 745,-204.5"/>
<text text-anchor="start" x="753" y="-535.5" font-family="Helvetica,sans-Serif" font-size="10.00">signal_easel::ax25</text>
<text text-anchor="middle" x="824.5" y="-524.5" font-family="Helvetica,sans-Serif" font-size="10.00">::Frame</text>
<polyline fill="none" stroke="black" points="745,-517.5 904,-517.5 "/>
<text text-anchor="middle" x="824.5" y="-505.5" font-family="Helvetica,sans-Serif" font-size="10.00"> </text>
<polyline fill="none" stroke="black" points="745,-498.5 904,-498.5 "/>
<text text-anchor="start" x="753" y="-486.5" font-family="Helvetica,sans-Serif" font-size="10.00">+ Frame()</text>
<text text-anchor="start" x="753" y="-475.5" font-family="Helvetica,sans-Serif" font-size="10.00">+ buildFrame()</text>
<text text-anchor="start" x="753" y="-464.5" font-family="Helvetica,sans-Serif" font-size="10.00">+ encodeFrame()</text>
<text text-anchor="start" x="753" y="-453.5" font-family="Helvetica,sans-Serif" font-size="10.00">+ isFrameValid()</text>
<text text-anchor="start" x="753" y="-442.5" font-family="Helvetica,sans-Serif" font-size="10.00">+ parseBitStream()</text>
<text text-anchor="start" x="753" y="-431.5" font-family="Helvetica,sans-Serif" font-size="10.00">+ setDestinationAddress()</text>
<text text-anchor="start" x="753" y="-420.5" font-family="Helvetica,sans-Serif" font-size="10.00">+ getDestinationAddress()</text>
<text text-anchor="start" x="753" y="-409.5" font-family="Helvetica,sans-Serif" font-size="10.00">+ setSourceAddress()</text>
<text text-anchor="start" x="753" y="-398.5" font-family="Helvetica,sans-Serif" font-size="10.00">+ getSourceAddress()</text>
<text text-anchor="start" x="753" y="-387.5" font-family="Helvetica,sans-Serif" font-size="10.00">+ addRepeaterAddress()</text>
<text text-anchor="start" x="753" y="-376.5" font-family="Helvetica,sans-Serif" font-size="10.00">+ getRepeaterAddresses()</text>
<text text-anchor="start" x="753" y="-365.5" font-family="Helvetica,sans-Serif" font-size="10.00">+ setInformation()</text>
<text text-anchor="start" x="753" y="-354.5" font-family="Helvetica,sans-Serif" font-size="10.00">+ getInformation()</text>
<text text-anchor="start" x="753" y="-343.5" font-family="Helvetica,sans-Serif" font-size="10.00">+ getInformationRef()</text>
<text text-anchor="start" x="753" y="-332.5" font-family="Helvetica,sans-Serif" font-size="10.00">&#45; AddByteForFcs()</text>
<text text-anchor="start" x="753" y="-321.5" font-family="Helvetica,sans-Serif" font-size="10.00">&#45; addToBuildBuffer()</text>
<text text-anchor="start" x="753" y="-310.5" font-family="Helvetica,sans-Serif" font-size="10.00">&#45; calculateFcsOnBuildBuffer()</text>
<text text-anchor="start" x="753" y="-299.5" font-family="Helvetica,sans-Serif" font-size="10.00">* setDestinationAddress()</text>
<text text-anchor="start" x="753" y="-288.5" font-family="Helvetica,sans-Serif" font-size="10.00">* getDestinationAddress()</text>
<text text-anchor="start" x="753" y="-277.5" font-family="Helvetica,sans-Serif" font-size="10.00">* setSourceAddress()</text>
<text text-anchor="start" x="753" y="-266.5" font-family="Helvetica,sans-Serif" font-size="10.00">* getSourceAddress()</text>
<text text-anchor="start" x="753" y="-255.5" font-family="Helvetica,sans-Serif" font-size="10.00">* addRepeaterAddress()</text>
<text text-anchor="start" x="753" y="-244.5" font-family="Helvetica,sans-Serif" font-size="10.00">* getRepeaterAddresses()</text>
<text text-anchor="start" x="753" y="-233.5" font-family="Helvetica,sans-Serif" font-size="10.00">* setInformation()</text>
<text text-anchor="start" x="753" y="-222.5" font-family="Helvetica,sans-Serif" font-size="10.00">* getInformation()</text>
<text text-anchor="start" x="753" y="-211.5" font-family="Helvetica,sans-Serif" font-size="10.00">* getInformationRef()</text>
</a>
</g>
</g>
<!-- Node13&#45;&gt;Node17 -->
<g id="edge25" class="edge">
<title>Node13&#45;&gt;Node17</title>
<path fill="none" stroke="#404040" d="M672.84,-688.76C678.26,-657.91 689.02,-607.03 706.5,-566 715.58,-544.69 726.87,-523.01 738.83,-502.29"/>
<polygon fill="none" stroke="#404040" points="738.87,-502.23 738.46,-495.03 744.95,-491.88 745.36,-499.08 738.87,-502.23"/>
<text text-anchor="middle" x="741.5" y="-585.5" font-family="Helvetica,sans-Serif" font-size="10.00"> &#45;build_buffer_</text>
<text text-anchor="middle" x="741.5" y="-574.5" font-family="Helvetica,sans-Serif" font-size="10.00">&#45;information_</text>
</g>
<!-- Node14&#45;&gt;Node2 -->
<g id="edge13" class="edge">
<title>Node14&#45;&gt;Node2</title>
<path fill="none" stroke="#404040" d="M393.42,-683.29C405.32,-652.77 423.5,-606.3 439.5,-566 454.87,-527.29 472.18,-484.21 486.39,-448.96"/>
<polygon fill="none" stroke="#404040" points="486.4,-448.93 484.94,-441.87 490.89,-437.81 492.36,-444.87 486.4,-448.93"/>
<text text-anchor="middle" x="478.5" y="-580" font-family="Helvetica,sans-Serif" font-size="10.00"> &#45;afsk_settings_</text>
</g>
<!-- Node15 -->
<g id="node15" class="node">
<title>Node15</title>
<g id="a_node15"><a xlink:title=" ">
<polygon fill="none" stroke="black" points="329.5,-931.5 329.5,-988.5 403.5,-988.5 403.5,-931.5 329.5,-931.5"/>
<text text-anchor="middle" x="366.5" y="-976.5" font-family="Helvetica,sans-Serif" font-size="10.00">BitEncoding</text>
<polyline fill="none" stroke="black" points="329.5,-969.5 403.5,-969.5 "/>
<text text-anchor="middle" x="366.5" y="-957.5" font-family="Helvetica,sans-Serif" font-size="10.00"> </text>
<polyline fill="none" stroke="black" points="329.5,-950.5 403.5,-950.5 "/>
<text text-anchor="middle" x="366.5" y="-938.5" font-family="Helvetica,sans-Serif" font-size="10.00"> </text>
</a>
</g>
</g>
<!-- Node15&#45;&gt;Node14 -->
<g id="edge15" class="edge">
<title>Node15&#45;&gt;Node14</title>
<path fill="none" stroke="#404040" d="M365.92,-931.13C365.59,-906.18 365.57,-868.62 367.5,-836 368.92,-812 371.76,-785.35 374.43,-763.52"/>
<polygon fill="none" stroke="#404040" points="374.43,-763.5 371.21,-757.05 375.93,-751.6 379.15,-758.05 374.43,-763.5"/>
<text text-anchor="middle" x="404.5" y="-872" font-family="Helvetica,sans-Serif" font-size="10.00"> +bit_encoding</text>
</g>
<!-- Node16 -->
<g id="node16" class="node">
<title>Node16</title>
<g id="a_node16"><a xlink:title=" ">
<polygon fill="none" stroke="black" points="738.5,-931.5 738.5,-988.5 776.5,-988.5 776.5,-931.5 738.5,-931.5"/>
<text text-anchor="middle" x="757.5" y="-976.5" font-family="Helvetica,sans-Serif" font-size="10.00">bool</text>
<polyline fill="none" stroke="black" points="738.5,-969.5 776.5,-969.5 "/>
<text text-anchor="middle" x="757.5" y="-957.5" font-family="Helvetica,sans-Serif" font-size="10.00"> </text>
<polyline fill="none" stroke="black" points="738.5,-950.5 776.5,-950.5 "/>
<text text-anchor="middle" x="757.5" y="-938.5" font-family="Helvetica,sans-Serif" font-size="10.00"> </text>
</a>
</g>
</g>
<!-- Node16&#45;&gt;Node14 -->
<g id="edge16" class="edge">
<title>Node16&#45;&gt;Node14</title>
<path fill="none" stroke="#404040" d="M738.25,-954.53C717.2,-948.62 684.01,-936.15 665.5,-913 643.49,-885.47 673.27,-858.93 646.5,-836 611.77,-806.25 480.39,-842.07 441.5,-818 421,-805.31 406.38,-782.93 396.6,-762.6"/>
<polygon fill="none" stroke="#404040" points="396.58,-762.54 390.47,-758.71 391.66,-751.59 397.77,-755.43 396.58,-762.54"/>
<text text-anchor="middle" x="725" y="-872" font-family="Helvetica,sans-Serif" font-size="10.00"> +include_ascii_padding</text>
</g>
<!-- Node16&#45;&gt;Node18 -->
<g id="edge21" class="edge">
<title>Node16&#45;&gt;Node18</title>
<path fill="none" stroke="#404040" d="M776.64,-933.55C780.94,-927.07 785.21,-919.97 788.5,-913 803.77,-880.71 786.95,-861.94 811.5,-836 825.64,-821.06 838.2,-828.47 860.42,-817.44"/>
<polygon fill="none" stroke="#404040" points="860.63,-817.31 863.75,-810.81 870.96,-811.19 867.83,-817.69 860.63,-817.31"/>
<text text-anchor="start" x="811.5" y="-905" font-family="Helvetica,sans-Serif" font-size="10.00"> &#45;command_or_response</text>
<text text-anchor="middle" x="872" y="-894" font-family="Helvetica,sans-Serif" font-size="10.00">_</text>
<text text-anchor="start" x="811.5" y="-883" font-family="Helvetica,sans-Serif" font-size="10.00">&#45;is_last_address</text>
<text text-anchor="middle" x="872" y="-872" font-family="Helvetica,sans-Serif" font-size="10.00">_</text>
<text text-anchor="start" x="811.5" y="-861" font-family="Helvetica,sans-Serif" font-size="10.00">&#45;reserve_bit</text>
<text text-anchor="middle" x="872" y="-850" font-family="Helvetica,sans-Serif" font-size="10.00">_1_</text>
<text text-anchor="middle" x="872" y="-839" font-family="Helvetica,sans-Serif" font-size="10.00">&#45;reserve_bit_2_</text>
</g>
<!-- Node17&#45;&gt;Node1 -->
<g id="edge17" class="edge">
<title>Node17&#45;&gt;Node1</title>
<path fill="none" stroke="#404040" d="M824.5,-204.39C824.5,-192.17 824.5,-180.17 824.5,-168.73"/>
<polygon fill="none" stroke="#404040" points="824.5,-168.54 820.5,-162.54 824.5,-156.54 828.5,-162.54 824.5,-168.54"/>
<text text-anchor="middle" x="845.5" y="-178" font-family="Helvetica,sans-Serif" font-size="10.00"> &#45;frame_</text>
</g>
<!-- Node18&#45;&gt;Node17 -->
<g id="edge18" class="edge">
<title>Node18&#45;&gt;Node17</title>
<path fill="none" stroke="#404040" d="M914.42,-617.39C907.54,-598.98 900.15,-579.22 892.67,-559.23"/>
<polygon fill="none" stroke="#404040" points="892.59,-559.02 886.74,-554.8 888.38,-547.78 894.23,-551.99 892.59,-559.02"/>
<text text-anchor="start" x="906.5" y="-591" font-family="Helvetica,sans-Serif" font-size="10.00"> &#45;destination_address</text>
<text text-anchor="middle" x="959.5" y="-580" font-family="Helvetica,sans-Serif" font-size="10.00">_</text>
<text text-anchor="middle" x="959.5" y="-569" font-family="Helvetica,sans-Serif" font-size="10.00">&#45;source_address_</text>
</g>
<!-- Node19 -->
<g id="node19" class="node">
<title>Node19</title>
<g id="a_node19"><a xlink:title=" ">
<polygon fill="none" stroke="black" points="1048.5,-931.5 1048.5,-988.5 1098.5,-988.5 1098.5,-931.5 1048.5,-931.5"/>
<text text-anchor="middle" x="1073.5" y="-976.5" font-family="Helvetica,sans-Serif" font-size="10.00">uint8_t</text>
<polyline fill="none" stroke="black" points="1048.5,-969.5 1098.5,-969.5 "/>
<text text-anchor="middle" x="1073.5" y="-957.5" font-family="Helvetica,sans-Serif" font-size="10.00"> </text>
<polyline fill="none" stroke="black" points="1048.5,-950.5 1098.5,-950.5 "/>
<text text-anchor="middle" x="1073.5" y="-938.5" font-family="Helvetica,sans-Serif" font-size="10.00"> </text>
</a>
</g>
</g>
<!-- Node19&#45;&gt;Node17 -->
<g id="edge24" class="edge">
<title>Node19&#45;&gt;Node17</title>
<path fill="none" stroke="#404040" d="M1074.25,-931.34C1075.14,-872.37 1073.43,-730.37 1041.5,-617 1034.66,-592.7 1036.69,-581.16 1016.5,-566 979.34,-538.1 951,-575.45 913.5,-548 913.4,-547.93 913.3,-547.85 913.2,-547.78"/>
<polygon fill="none" stroke="#404040" points="913.44,-547.97 906.26,-547.32 904.1,-540.44 911.28,-541.09 913.44,-547.97"/>
<text text-anchor="middle" x="1085.5" y="-715" font-family="Helvetica,sans-Serif" font-size="10.00"> &#45;pid_</text>
</g>
<!-- Node19&#45;&gt;Node18 -->
<g id="edge20" class="edge">
<title>Node19&#45;&gt;Node18</title>
<path fill="none" stroke="#404040" d="M1048.25,-940.48C1039.15,-932.8 1029.43,-923.28 1022.5,-913 1005.46,-887.74 991.93,-857.89 981.44,-829.26"/>
<polygon fill="none" stroke="#404040" points="981.43,-829.24 975.66,-824.93 977.42,-817.93 983.2,-822.25 981.43,-829.24"/>
<text text-anchor="middle" x="1038.5" y="-872" font-family="Helvetica,sans-Serif" font-size="10.00"> &#45;ssid_</text>
</g>
<!-- Node20 -->
<g id="node20" class="node">
<title>Node20</title>
<g id="a_node20"><a xlink:title=" ">
<polygon fill="none" stroke="black" points="1115,-683.5 1115,-751.5 1234,-751.5 1234,-683.5 1115,-683.5"/>
<text text-anchor="start" x="1123" y="-739.5" font-family="Helvetica,sans-Serif" font-size="10.00">vector&lt; signal_easel</text>
<text text-anchor="middle" x="1174.5" y="-728.5" font-family="Helvetica,sans-Serif" font-size="10.00">::ax25::Address &gt;</text>
<polyline fill="none" stroke="black" points="1115,-721.5 1234,-721.5 "/>
<text text-anchor="middle" x="1174.5" y="-709.5" font-family="Helvetica,sans-Serif" font-size="10.00"> </text>
<polyline fill="none" stroke="black" points="1115,-702.5 1234,-702.5 "/>
<text text-anchor="middle" x="1174.5" y="-690.5" font-family="Helvetica,sans-Serif" font-size="10.00"> </text>
</a>
</g>
</g>
<!-- Node20&#45;&gt;Node17 -->
<g id="edge22" class="edge">
<title>Node20&#45;&gt;Node17</title>
<path fill="none" stroke="#404040" d="M1164.08,-683.21C1151.08,-647.73 1125.2,-593.02 1082.5,-566 1021.78,-527.59 980.13,-584.47 914.57,-547.52"/>
<polygon fill="none" stroke="#404040" points="914.44,-547.44 907.23,-547.64 904.28,-541.06 911.48,-540.86 914.44,-547.44"/>
<text text-anchor="middle" x="1172" y="-580" font-family="Helvetica,sans-Serif" font-size="10.00"> &#45;repeater_addresses_</text>
</g>
<!-- Node21 -->
<g id="node21" class="node">
<title>Node21</title>
<g id="a_node21"><a xlink:title=" ">
<polygon fill="none" stroke="black" points="739,-689 739,-746 778,-746 778,-689 739,-689"/>
<text text-anchor="middle" x="758.5" y="-734" font-family="Helvetica,sans-Serif" font-size="10.00">Type</text>
<polyline fill="none" stroke="black" points="739,-727 778,-727 "/>
<text text-anchor="middle" x="758.5" y="-715" font-family="Helvetica,sans-Serif" font-size="10.00"> </text>
<polyline fill="none" stroke="black" points="739,-708 778,-708 "/>
<text text-anchor="middle" x="758.5" y="-696" font-family="Helvetica,sans-Serif" font-size="10.00"> </text>
</a>
</g>
</g>
<!-- Node21&#45;&gt;Node17 -->
<g id="edge23" class="edge">
<title>Node21&#45;&gt;Node17</title>
<path fill="none" stroke="#404040" d="M763.54,-688.74C769.06,-658.52 778.22,-608.79 786.5,-566 786.9,-563.94 787.3,-561.86 787.71,-559.78"/>
<polygon fill="none" stroke="#404040" points="787.76,-559.52 784.98,-552.86 790.05,-547.74 792.83,-554.39 787.76,-559.52"/>
<text text-anchor="middle" x="803.5" y="-580" font-family="Helvetica,sans-Serif" font-size="10.00"> &#45;type_</text>
</g>
<!-- Node22 -->
<g id="node22" class="node">
<title>Node22</title>
<g id="a_node22"><a xlink:title=" ">
<polygon fill="none" stroke="black" points="796.5,-689 796.5,-746 852.5,-746 852.5,-689 796.5,-689"/>
<text text-anchor="middle" x="824.5" y="-734" font-family="Helvetica,sans-Serif" font-size="10.00">uint16_t</text>
<polyline fill="none" stroke="black" points="796.5,-727 852.5,-727 "/>
<text text-anchor="middle" x="824.5" y="-715" font-family="Helvetica,sans-Serif" font-size="10.00"> </text>
<polyline fill="none" stroke="black" points="796.5,-708 852.5,-708 "/>
<text text-anchor="middle" x="824.5" y="-696" font-family="Helvetica,sans-Serif" font-size="10.00"> </text>
</a>
</g>
</g>
<!-- Node22&#45;&gt;Node17 -->
<g id="edge26" class="edge">
<title>Node22&#45;&gt;Node17</title>
<path fill="none" stroke="#404040" d="M824.5,-688.72C824.5,-659.4 824.5,-610.51 824.5,-560.06"/>
<polygon fill="none" stroke="#404040" points="824.5,-559.9 820.5,-553.9 824.5,-547.9 828.5,-553.9 824.5,-559.9"/>
<text text-anchor="middle" x="838" y="-580" font-family="Helvetica,sans-Serif" font-size="10.00"> &#45;fcs_</text>
</g>
<!-- Node23 -->
<g id="node23" class="node">
<title>Node23</title>
<g id="a_node23"><a xlink:title=" ">
<polygon fill="none" stroke="black" points="922,-347.5 922,-404.5 961,-404.5 961,-347.5 922,-347.5"/>
<text text-anchor="middle" x="941.5" y="-392.5" font-family="Helvetica,sans-Serif" font-size="10.00">Type</text>
<polyline fill="none" stroke="black" points="922,-385.5 961,-385.5 "/>
<text text-anchor="middle" x="941.5" y="-373.5" font-family="Helvetica,sans-Serif" font-size="10.00"> </text>
<polyline fill="none" stroke="black" points="922,-366.5 961,-366.5 "/>
<text text-anchor="middle" x="941.5" y="-354.5" font-family="Helvetica,sans-Serif" font-size="10.00"> </text>
</a>
</g>
</g>
<!-- Node23&#45;&gt;Node1 -->
<g id="edge27" class="edge">
<title>Node23&#45;&gt;Node1</title>
<path fill="none" stroke="#404040" d="M940.57,-347.31C938.56,-312.61 932.27,-251.87 912.5,-204 907.34,-191.51 900.74,-179.05 893.48,-167.11"/>
<polygon fill="none" stroke="#404040" points="893.35,-166.91 886.77,-163.97 886.95,-156.76 893.53,-159.7 893.35,-166.91"/>
<text text-anchor="middle" x="920.5" y="-178" font-family="Helvetica,sans-Serif" font-size="10.00"> &#45;type_</text>
</g>
</g>
</svg>
