<?xml version="1.0" encoding="UTF-8" standalone="no"?>
<!DOCTYPE svg PUBLIC "-//W3C//DTD SVG 1.1//EN"
 "http://www.w3.org/Graphics/SVG/1.1/DTD/svg11.dtd">
<!-- Generated by graphviz version 2.43.0 (0)
 -->
<!-- Title: signal_easel::Modulator::addAudioSample Pages: 1 -->
<svg width="825pt" height="163pt"
 viewBox="0.00 0.00 825.00 163.00" xmlns="http://www.w3.org/2000/svg" xmlns:xlink="http://www.w3.org/1999/xlink">
<g id="graph0" class="graph" transform="scale(1 1) rotate(0) translate(4 159)">
<title>signal_easel::Modulator::addAudioSample</title>
<!-- Node1 -->
<g id="node1" class="node">
<title>Node1</title>
<g id="a_node1"><a xlink:title="Add a PCM sample to the audio buffer.">
<polygon fill="#bfbfbf" stroke="black" points="684,-49.5 684,-79.5 817,-79.5 817,-49.5 684,-49.5"/>
<text text-anchor="start" x="692" y="-67.5" font-family="Helvetica,sans-Serif" font-size="10.00">signal_easel::Modulator</text>
<text text-anchor="middle" x="750.5" y="-56.5" font-family="Helvetica,sans-Serif" font-size="10.00">::addAudioSample</text>
</a>
</g>
</g>
<!-- Node2 -->
<g id="node2" class="node">
<title>Node2</title>
<g id="a_node2"><a xlink:href="classsignal__easel_1_1Modulator.html#a83877b4de0ae12992f62c09cf876da04" target="_top" xlink:title="Add silence to the audio buffer.">
<polygon fill="none" stroke="black" points="511,-98.5 511,-128.5 644,-128.5 644,-98.5 511,-98.5"/>
<text text-anchor="start" x="519" y="-116.5" font-family="Helvetica,sans-Serif" font-size="10.00">signal_easel::Modulator</text>
<text text-anchor="middle" x="577.5" y="-105.5" font-family="Helvetica,sans-Serif" font-size="10.00">::addSilence</text>
</a>
</g>
</g>
<!-- Node1&#45;&gt;Node2 -->
<g id="edge1" class="edge">
<title>Node1&#45;&gt;Node2</title>
<path fill="none" stroke="midnightblue" d="M687.05,-82.39C668.66,-87.66 648.73,-93.38 631.03,-98.45"/>
<polygon fill="midnightblue" stroke="midnightblue" points="688.15,-85.72 696.8,-79.6 686.22,-78.99 688.15,-85.72"/>
</g>
<!-- Node8 -->
<g id="node8" class="node">
<title>Node8</title>
<g id="a_node8"><a xlink:href="classsignal__easel_1_1Modulator.html#a0fcce44b034c83731048ca17dc985f04" target="_top" xlink:title="Add a sine wave to the audio buffer.">
<polygon fill="none" stroke="black" points="511,-49.5 511,-79.5 644,-79.5 644,-49.5 511,-49.5"/>
<text text-anchor="start" x="519" y="-67.5" font-family="Helvetica,sans-Serif" font-size="10.00">signal_easel::Modulator</text>
<text text-anchor="middle" x="577.5" y="-56.5" font-family="Helvetica,sans-Serif" font-size="10.00">::addSineWave</text>
</a>
</g>
</g>
<!-- Node1&#45;&gt;Node8 -->
<g id="edge9" class="edge">
<title>Node1&#45;&gt;Node8</title>
<path fill="none" stroke="midnightblue" d="M673.72,-64.5C663.88,-64.5 653.88,-64.5 644.23,-64.5"/>
<polygon fill="midnightblue" stroke="midnightblue" points="673.88,-68 683.88,-64.5 673.88,-61 673.88,-68"/>
</g>
<!-- Node9 -->
<g id="node9" class="node">
<title>Node9</title>
<g id="a_node9"><a xlink:href="classsignal__easel_1_1afsk_1_1Modulator.html#a8e377665e5432ebb66de359635aeeafb" target="_top" xlink:title="This is overridden by the child classes to encode the data that is passed in by addBytes and addStrin...">
<polygon fill="none" stroke="black" points="507,-0.5 507,-30.5 648,-30.5 648,-0.5 507,-0.5"/>
<text text-anchor="start" x="515" y="-18.5" font-family="Helvetica,sans-Serif" font-size="10.00">signal_easel::afsk</text>
<text text-anchor="middle" x="577.5" y="-7.5" font-family="Helvetica,sans-Serif" font-size="10.00">::Modulator::encodeBytes</text>
</a>
</g>
</g>
<!-- Node1&#45;&gt;Node9 -->
<g id="edge11" class="edge">
<title>Node1&#45;&gt;Node9</title>
<path fill="none" stroke="midnightblue" d="M687.05,-46.61C668.66,-41.34 648.73,-35.62 631.03,-30.55"/>
<polygon fill="midnightblue" stroke="midnightblue" points="686.22,-50.01 696.8,-49.4 688.15,-43.28 686.22,-50.01"/>
</g>
<!-- Node3 -->
<g id="node3" class="node">
<title>Node3</title>
<g id="a_node3"><a xlink:href="classsignal__easel_1_1Modulator.html#a67263d2a46fdb510adb0b4211699bf26" target="_top" xlink:title="Add morse code to the output audio.">
<polygon fill="none" stroke="black" points="338,-51.5 338,-81.5 471,-81.5 471,-51.5 338,-51.5"/>
<text text-anchor="start" x="346" y="-69.5" font-family="Helvetica,sans-Serif" font-size="10.00">signal_easel::Modulator</text>
<text text-anchor="middle" x="404.5" y="-58.5" font-family="Helvetica,sans-Serif" font-size="10.00">::addMorseCode</text>
</a>
</g>
</g>
<!-- Node2&#45;&gt;Node3 -->
<g id="edge2" class="edge">
<title>Node2&#45;&gt;Node3</title>
<path fill="none" stroke="midnightblue" d="M512.02,-95.78C494.94,-91.08 476.65,-86.06 460.14,-81.52"/>
<polygon fill="midnightblue" stroke="midnightblue" points="511.35,-99.22 521.92,-98.5 513.21,-92.47 511.35,-99.22"/>
</g>
<!-- Node4 -->
<g id="node4" class="node">
<title>Node4</title>
<g id="a_node4"><a xlink:href="classsignal__easel_1_1Modulator.html#a39e52e97a95a761b73ba928f8a29e916" target="_top" xlink:title="Clears the audio buffer. Adds the call sign if it&#39;s in the before or before_and_after modes.">
<polygon fill="none" stroke="black" points="169,-67.5 169,-97.5 302,-97.5 302,-67.5 169,-67.5"/>
<text text-anchor="start" x="177" y="-85.5" font-family="Helvetica,sans-Serif" font-size="10.00">signal_easel::Modulator</text>
<text text-anchor="middle" x="235.5" y="-74.5" font-family="Helvetica,sans-Serif" font-size="10.00">::clearBuffer</text>
</a>
</g>
</g>
<!-- Node2&#45;&gt;Node4 -->
<g id="edge7" class="edge">
<title>Node2&#45;&gt;Node4</title>
<path fill="none" stroke="midnightblue" d="M500.84,-106.6C441.23,-101.17 358.99,-93.67 302.14,-88.49"/>
<polygon fill="midnightblue" stroke="midnightblue" points="500.67,-110.1 510.94,-107.52 501.3,-103.13 500.67,-110.1"/>
</g>
<!-- Node6 -->
<g id="node6" class="node">
<title>Node6</title>
<g id="a_node6"><a xlink:href="classsignal__easel_1_1Modulator.html#a6ff0b49cd126afe576ac949476268f10" target="_top" xlink:title="Write the audio to a file.">
<polygon fill="none" stroke="black" points="169,-124.5 169,-154.5 302,-154.5 302,-124.5 169,-124.5"/>
<text text-anchor="start" x="177" y="-142.5" font-family="Helvetica,sans-Serif" font-size="10.00">signal_easel::Modulator</text>
<text text-anchor="middle" x="235.5" y="-131.5" font-family="Helvetica,sans-Serif" font-size="10.00">::writeToFile</text>
</a>
</g>
</g>
<!-- Node2&#45;&gt;Node6 -->
<g id="edge8" class="edge">
<title>Node2&#45;&gt;Node6</title>
<path fill="none" stroke="midnightblue" d="M500.97,-121.75C490.9,-122.74 480.7,-123.68 471,-124.5 413.99,-129.29 349.06,-133.34 302,-136.01"/>
<polygon fill="midnightblue" stroke="midnightblue" points="501.37,-125.22 510.97,-120.74 500.68,-118.26 501.37,-125.22"/>
</g>
<!-- Node3&#45;&gt;Node4 -->
<g id="edge3" class="edge">
<title>Node3&#45;&gt;Node4</title>
<path fill="none" stroke="midnightblue" d="M327.93,-73.74C319.32,-74.57 310.58,-75.4 302.11,-76.21"/>
<polygon fill="midnightblue" stroke="midnightblue" points="328.36,-77.22 337.98,-72.78 327.69,-70.25 328.36,-77.22"/>
</g>
<!-- Node3&#45;&gt;Node6 -->
<g id="edge5" class="edge">
<title>Node3&#45;&gt;Node6</title>
<path fill="none" stroke="midnightblue" d="M359.46,-85.75C331.82,-97.83 296.69,-113.19 271.06,-124.39"/>
<polygon fill="midnightblue" stroke="midnightblue" points="361.14,-88.84 368.9,-81.63 358.33,-82.42 361.14,-88.84"/>
</g>
<!-- Node5 -->
<g id="node5" class="node">
<title>Node5</title>
<g id="a_node5"><a xlink:href="classsignal__easel_1_1Modulator.html#aacf988cd7965d448b2da697911c76faf" target="_top" xlink:title="Constructor for the base modulator class.">
<polygon fill="none" stroke="black" points="0,-67.5 0,-97.5 133,-97.5 133,-67.5 0,-67.5"/>
<text text-anchor="start" x="8" y="-85.5" font-family="Helvetica,sans-Serif" font-size="10.00">signal_easel::Modulator</text>
<text text-anchor="middle" x="66.5" y="-74.5" font-family="Helvetica,sans-Serif" font-size="10.00">::Modulator</text>
</a>
</g>
</g>
<!-- Node4&#45;&gt;Node5 -->
<g id="edge4" class="edge">
<title>Node4&#45;&gt;Node5</title>
<path fill="none" stroke="midnightblue" d="M158.93,-82.5C150.32,-82.5 141.58,-82.5 133.11,-82.5"/>
<polygon fill="midnightblue" stroke="midnightblue" points="158.98,-86 168.98,-82.5 158.98,-79 158.98,-86"/>
</g>
<!-- Node7 -->
<g id="node7" class="node">
<title>Node7</title>
<g id="a_node7"><a xlink:href="afsk__test_8cpp.html#a894b615862c352aa932a7ff5fb85c6dd" target="_top" xlink:title="Encodes a string into an AFSK1200 signal/WAV file and then decodes it.">
<polygon fill="none" stroke="black" points="46,-130 46,-149 87,-149 87,-130 46,-130"/>
<text text-anchor="middle" x="66.5" y="-137" font-family="Helvetica,sans-Serif" font-size="10.00">TEST</text>
</a>
</g>
</g>
<!-- Node6&#45;&gt;Node7 -->
<g id="edge6" class="edge">
<title>Node6&#45;&gt;Node7</title>
<path fill="none" stroke="midnightblue" d="M158.94,-139.5C132.57,-139.5 105.13,-139.5 87.27,-139.5"/>
<polygon fill="midnightblue" stroke="midnightblue" points="158.98,-143 168.98,-139.5 158.98,-136 158.98,-143"/>
</g>
<!-- Node8&#45;&gt;Node3 -->
<g id="edge10" class="edge">
<title>Node8&#45;&gt;Node3</title>
<path fill="none" stroke="midnightblue" d="M500.72,-65.39C490.88,-65.5 480.88,-65.62 471.23,-65.73"/>
<polygon fill="midnightblue" stroke="midnightblue" points="500.92,-68.88 510.88,-65.27 500.84,-61.88 500.92,-68.88"/>
</g>
</g>
</svg>
