<?xml version="1.0" encoding="UTF-8" standalone="no"?>
<!DOCTYPE svg PUBLIC "-//W3C//DTD SVG 1.1//EN"
 "http://www.w3.org/Graphics/SVG/1.1/DTD/svg11.dtd">
<!-- Generated by graphviz version 2.43.0 (0)
 -->
<!-- Title: signal_easel::aprs::telemetry::Parameter Pages: 1 -->
<svg width="211pt" height="292pt"
 viewBox="0.00 0.00 210.50 292.00" xmlns="http://www.w3.org/2000/svg" xmlns:xlink="http://www.w3.org/1999/xlink">
<g id="graph0" class="graph" transform="scale(1 1) rotate(0) translate(4 288)">
<title>signal_easel::aprs::telemetry::Parameter</title>
<!-- Node1 -->
<g id="node1" class="node">
<title>Node1</title>
<g id="a_node1"><a xlink:title="A representation of APRS telemetry parameters.">
<polygon fill="#bfbfbf" stroke="black" points="0,-0.5 0,-167.5 171,-167.5 171,-0.5 0,-0.5"/>
<text text-anchor="start" x="8" y="-155.5" font-family="Helvetica,sans-Serif" font-size="10.00">signal_easel::aprs</text>
<text text-anchor="middle" x="85.5" y="-144.5" font-family="Helvetica,sans-Serif" font-size="10.00">::telemetry::Parameter</text>
<polyline fill="none" stroke="black" points="0,-137.5 171,-137.5 "/>
<text text-anchor="middle" x="85.5" y="-125.5" font-family="Helvetica,sans-Serif" font-size="10.00"> </text>
<polyline fill="none" stroke="black" points="0,-118.5 171,-118.5 "/>
<text text-anchor="start" x="8" y="-106.5" font-family="Helvetica,sans-Serif" font-size="10.00">+ Parameter()</text>
<text text-anchor="start" x="8" y="-95.5" font-family="Helvetica,sans-Serif" font-size="10.00">+ ~Parameter()</text>
<text text-anchor="start" x="8" y="-84.5" font-family="Helvetica,sans-Serif" font-size="10.00">+ getId()</text>
<text text-anchor="start" x="8" y="-73.5" font-family="Helvetica,sans-Serif" font-size="10.00">+ getLabel()</text>
<text text-anchor="start" x="8" y="-62.5" font-family="Helvetica,sans-Serif" font-size="10.00">+ getName()</text>
<text text-anchor="start" x="8" y="-51.5" font-family="Helvetica,sans-Serif" font-size="10.00">+ getType()</text>
<text text-anchor="start" x="8" y="-40.5" font-family="Helvetica,sans-Serif" font-size="10.00">+ setName()</text>
<text text-anchor="start" x="8" y="-29.5" font-family="Helvetica,sans-Serif" font-size="10.00">+ setUnitOrLabel()</text>
<text text-anchor="start" x="8" y="-18.5" font-family="Helvetica,sans-Serif" font-size="10.00">+ getType()</text>
<text text-anchor="start" x="8" y="-7.5" font-family="Helvetica,sans-Serif" font-size="10.00">&#45; validateParameterDescriptor()</text>
</a>
</g>
</g>
<!-- Node2 -->
<g id="node2" class="node">
<title>Node2</title>
<g id="a_node2"><a xlink:title=" ">
<polygon fill="none" stroke="black" points="19,-226.5 19,-283.5 48,-283.5 48,-226.5 19,-226.5"/>
<text text-anchor="middle" x="33.5" y="-271.5" font-family="Helvetica,sans-Serif" font-size="10.00">Id</text>
<polyline fill="none" stroke="black" points="19,-264.5 48,-264.5 "/>
<text text-anchor="middle" x="33.5" y="-252.5" font-family="Helvetica,sans-Serif" font-size="10.00"> </text>
<polyline fill="none" stroke="black" points="19,-245.5 48,-245.5 "/>
<text text-anchor="middle" x="33.5" y="-233.5" font-family="Helvetica,sans-Serif" font-size="10.00"> </text>
</a>
</g>
</g>
<!-- Node2&#45;&gt;Node1 -->
<g id="edge1" class="edge">
<title>Node2&#45;&gt;Node1</title>
<path fill="none" stroke="#404040" d="M41.97,-226.47C46.02,-213.32 51.12,-196.73 56.4,-179.58"/>
<polygon fill="none" stroke="#404040" points="56.54,-179.12 54.48,-172.21 60.07,-167.65 62.13,-174.56 56.54,-179.12"/>
<text text-anchor="middle" x="63.5" y="-194.5" font-family="Helvetica,sans-Serif" font-size="10.00"> &#45;id_</text>
</g>
<!-- Node3 -->
<g id="node3" class="node">
<title>Node3</title>
<g id="a_node3"><a xlink:title=" ">
<polygon fill="none" stroke="black" points="66,-226.5 66,-283.5 105,-283.5 105,-226.5 66,-226.5"/>
<text text-anchor="middle" x="85.5" y="-271.5" font-family="Helvetica,sans-Serif" font-size="10.00">Type</text>
<polyline fill="none" stroke="black" points="66,-264.5 105,-264.5 "/>
<text text-anchor="middle" x="85.5" y="-252.5" font-family="Helvetica,sans-Serif" font-size="10.00"> </text>
<polyline fill="none" stroke="black" points="66,-245.5 105,-245.5 "/>
<text text-anchor="middle" x="85.5" y="-233.5" font-family="Helvetica,sans-Serif" font-size="10.00"> </text>
</a>
</g>
</g>
<!-- Node3&#45;&gt;Node1 -->
<g id="edge2" class="edge">
<title>Node3&#45;&gt;Node1</title>
<path fill="none" stroke="#404040" d="M85.5,-226.47C85.5,-213.45 85.5,-197.05 85.5,-180.07"/>
<polygon fill="none" stroke="#404040" points="85.5,-179.65 81.5,-173.65 85.5,-167.65 89.5,-173.65 85.5,-179.65"/>
<text text-anchor="middle" x="102.5" y="-194.5" font-family="Helvetica,sans-Serif" font-size="10.00"> &#45;type_</text>
</g>
<!-- Node4 -->
<g id="node4" class="node">
<title>Node4</title>
<g id="a_node4"><a xlink:title=" ">
<polygon fill="none" stroke="black" points="123.5,-226.5 123.5,-283.5 167.5,-283.5 167.5,-226.5 123.5,-226.5"/>
<text text-anchor="middle" x="145.5" y="-271.5" font-family="Helvetica,sans-Serif" font-size="10.00">string</text>
<polyline fill="none" stroke="black" points="123.5,-264.5 167.5,-264.5 "/>
<text text-anchor="middle" x="145.5" y="-252.5" font-family="Helvetica,sans-Serif" font-size="10.00"> </text>
<polyline fill="none" stroke="black" points="123.5,-245.5 167.5,-245.5 "/>
<text text-anchor="middle" x="145.5" y="-233.5" font-family="Helvetica,sans-Serif" font-size="10.00"> </text>
</a>
</g>
</g>
<!-- Node4&#45;&gt;Node1 -->
<g id="edge3" class="edge">
<title>Node4&#45;&gt;Node1</title>
<path fill="none" stroke="#404040" d="M136.91,-226.44C132.96,-214.04 128.13,-199.24 123.5,-186 122.68,-183.65 121.84,-181.27 120.99,-178.88"/>
<polygon fill="none" stroke="#404040" points="120.98,-178.86 115.19,-174.56 116.92,-167.56 122.72,-171.86 120.98,-178.86"/>
<text text-anchor="middle" x="166" y="-200" font-family="Helvetica,sans-Serif" font-size="10.00"> &#45;name_</text>
<text text-anchor="middle" x="166" y="-189" font-family="Helvetica,sans-Serif" font-size="10.00">&#45;unit_or_label_</text>
</g>
</g>
</svg>
