<?xml version="1.0" encoding="UTF-8" standalone="no"?>
<!DOCTYPE svg PUBLIC "-//W3C//DTD SVG 1.1//EN"
 "http://www.w3.org/Graphics/SVG/1.1/DTD/svg11.dtd">
<!-- Generated by graphviz version 2.43.0 (0)
 -->
<!-- Title: signal_easel::BitStream::addBits Pages: 1 -->
<svg width="990pt" height="278pt"
 viewBox="0.00 0.00 990.00 277.92" xmlns="http://www.w3.org/2000/svg" xmlns:xlink="http://www.w3.org/1999/xlink">
<g id="graph0" class="graph" transform="scale(1 1) rotate(0) translate(4 273.92)">
<title>signal_easel::BitStream::addBits</title>
<!-- Node1 -->
<g id="node1" class="node">
<title>Node1</title>
<g id="a_node1"><a xlink:title=" ">
<polygon fill="#bfbfbf" stroke="black" points="850,-137 850,-167 982,-167 982,-137 850,-137"/>
<text text-anchor="start" x="858" y="-155" font-family="Helvetica,sans-Serif" font-size="10.00">signal_easel::BitStream</text>
<text text-anchor="middle" x="916" y="-144" font-family="Helvetica,sans-Serif" font-size="10.00">::addBits</text>
</a>
</g>
</g>
<!-- Node2 -->
<g id="node2" class="node">
<title>Node2</title>
<g id="a_node2"><a xlink:href="classsignal__easel_1_1BitStream.html#a81d4aea4c11f65e0c2b7ad2f0f0cc312" target="_top" xlink:title=" ">
<polygon fill="none" stroke="black" points="682,-88 682,-118 814,-118 814,-88 682,-88"/>
<text text-anchor="start" x="690" y="-106" font-family="Helvetica,sans-Serif" font-size="10.00">signal_easel::BitStream</text>
<text text-anchor="middle" x="748" y="-95" font-family="Helvetica,sans-Serif" font-size="10.00">::addOneBit</text>
</a>
</g>
</g>
<!-- Node1&#45;&gt;Node2 -->
<g id="edge1" class="edge">
<title>Node1&#45;&gt;Node2</title>
<path fill="none" stroke="midnightblue" d="M854.13,-134.03C836.35,-128.78 817.1,-123.1 799.99,-118.05"/>
<polygon fill="midnightblue" stroke="midnightblue" points="853.26,-137.42 863.84,-136.9 855.24,-130.71 853.26,-137.42"/>
</g>
<!-- Node4 -->
<g id="node4" class="node">
<title>Node4</title>
<g id="a_node4"><a xlink:href="classsignal__easel_1_1psk_1_1Modulator.html#acd4a6a5bac7af1c62ffaaa0ff1d9259f" target="_top" xlink:title=" ">
<polygon fill="none" stroke="black" points="332,-208 332,-238 468,-238 468,-208 332,-208"/>
<text text-anchor="start" x="340" y="-226" font-family="Helvetica,sans-Serif" font-size="10.00">signal_easel::psk::</text>
<text text-anchor="middle" x="400" y="-215" font-family="Helvetica,sans-Serif" font-size="10.00">Modulator::encodeString</text>
</a>
</g>
</g>
<!-- Node1&#45;&gt;Node4 -->
<g id="edge24" class="edge">
<title>Node1&#45;&gt;Node4</title>
<path fill="none" stroke="midnightblue" d="M898.2,-175.37C880.29,-198.07 849.64,-231.09 814,-245 689.75,-293.49 528.38,-260.03 449.16,-238.02"/>
<polygon fill="midnightblue" stroke="midnightblue" points="901.12,-177.3 904.42,-167.23 895.57,-173.05 901.12,-177.3"/>
</g>
<!-- Node11 -->
<g id="node11" class="node">
<title>Node11</title>
<g id="a_node11"><a xlink:href="classsignal__easel_1_1ax25_1_1Frame.html#a2b4f6ebcb7592a7e5a21114c8fafa503" target="_top" xlink:title="A step beyond buildFrame. This function builds the frame, does the bit stuffing, adds the flags,...">
<polygon fill="none" stroke="black" points="512.5,-39 512.5,-69 637.5,-69 637.5,-39 512.5,-39"/>
<text text-anchor="start" x="520.5" y="-57" font-family="Helvetica,sans-Serif" font-size="10.00">signal_easel::ax25</text>
<text text-anchor="middle" x="575" y="-46" font-family="Helvetica,sans-Serif" font-size="10.00">::Frame::encodeFrame</text>
</a>
</g>
</g>
<!-- Node1&#45;&gt;Node11 -->
<g id="edge23" class="edge">
<title>Node1&#45;&gt;Node11</title>
<path fill="none" stroke="midnightblue" d="M892.16,-130.05C872.94,-113.01 843.88,-90.43 814,-79 756.96,-57.19 686.95,-52.18 637.67,-51.87"/>
<polygon fill="midnightblue" stroke="midnightblue" points="890.01,-132.83 899.77,-136.96 894.72,-127.65 890.01,-132.83"/>
</g>
<!-- Node15 -->
<g id="node15" class="node">
<title>Node15</title>
<g id="a_node15"><a xlink:href="classsignal__easel_1_1psk_1_1Modulator.html#aa18265ffb20963bce90f935ae12913bf" target="_top" xlink:title=" ">
<polygon fill="none" stroke="black" points="682,-205 682,-235 814,-235 814,-205 682,-205"/>
<text text-anchor="start" x="690" y="-223" font-family="Helvetica,sans-Serif" font-size="10.00">signal_easel::psk::</text>
<text text-anchor="middle" x="748" y="-212" font-family="Helvetica,sans-Serif" font-size="10.00">Modulator::addVaricode</text>
</a>
</g>
</g>
<!-- Node1&#45;&gt;Node15 -->
<g id="edge15" class="edge">
<title>Node1&#45;&gt;Node15</title>
<path fill="none" stroke="midnightblue" d="M868.8,-170.92C842.58,-181.67 810.22,-194.92 785.74,-204.95"/>
<polygon fill="midnightblue" stroke="midnightblue" points="870.23,-174.12 878.16,-167.09 867.58,-167.64 870.23,-174.12"/>
</g>
<!-- Node16 -->
<g id="node16" class="node">
<title>Node16</title>
<g id="a_node16"><a xlink:href="classsignal__easel_1_1BitStream.html#abb315beec8c4d88115d9d4ec5f082863" target="_top" xlink:title=" ">
<polygon fill="none" stroke="black" points="682,-137 682,-167 814,-167 814,-137 682,-137"/>
<text text-anchor="start" x="690" y="-155" font-family="Helvetica,sans-Serif" font-size="10.00">signal_easel::BitStream</text>
<text text-anchor="middle" x="748" y="-144" font-family="Helvetica,sans-Serif" font-size="10.00">::addZeroBit</text>
</a>
</g>
</g>
<!-- Node1&#45;&gt;Node16 -->
<g id="edge17" class="edge">
<title>Node1&#45;&gt;Node16</title>
<path fill="none" stroke="midnightblue" d="M839.61,-152C831.13,-152 822.55,-152 814.22,-152"/>
<polygon fill="midnightblue" stroke="midnightblue" points="839.87,-155.5 849.87,-152 839.87,-148.5 839.87,-155.5"/>
</g>
<!-- Node3 -->
<g id="node3" class="node">
<title>Node3</title>
<g id="a_node3"><a xlink:href="classsignal__easel_1_1psk_1_1Modulator.html#ad465eb5c136ada635cd01cdceb1dc402" target="_top" xlink:title=" ">
<polygon fill="none" stroke="black" points="504,-137 504,-167 646,-167 646,-137 504,-137"/>
<text text-anchor="start" x="512" y="-155" font-family="Helvetica,sans-Serif" font-size="10.00">signal_easel::psk::</text>
<text text-anchor="middle" x="575" y="-144" font-family="Helvetica,sans-Serif" font-size="10.00">Modulator::addPostamble</text>
</a>
</g>
</g>
<!-- Node2&#45;&gt;Node3 -->
<g id="edge2" class="edge">
<title>Node2&#45;&gt;Node3</title>
<path fill="none" stroke="midnightblue" d="M684.55,-120.89C666.16,-126.16 646.23,-131.88 628.53,-136.95"/>
<polygon fill="midnightblue" stroke="midnightblue" points="685.65,-124.22 694.3,-118.1 683.72,-117.49 685.65,-124.22"/>
</g>
<!-- Node6 -->
<g id="node6" class="node">
<title>Node6</title>
<g id="a_node6"><a xlink:href="namespacesignal__easel_1_1ax25.html#a84e1d1bf82ef828a150bc94cf065e396" target="_top" xlink:title="Convert a bit stream from NRZI to standard encoding.">
<polygon fill="none" stroke="black" points="521.5,-88 521.5,-118 628.5,-118 628.5,-88 521.5,-88"/>
<text text-anchor="start" x="529.5" y="-106" font-family="Helvetica,sans-Serif" font-size="10.00">signal_easel::ax25</text>
<text text-anchor="middle" x="575" y="-95" font-family="Helvetica,sans-Serif" font-size="10.00">::decodeNrzi</text>
</a>
</g>
</g>
<!-- Node2&#45;&gt;Node6 -->
<g id="edge5" class="edge">
<title>Node2&#45;&gt;Node6</title>
<path fill="none" stroke="midnightblue" d="M671.46,-103C657.05,-103 642.26,-103 628.75,-103"/>
<polygon fill="midnightblue" stroke="midnightblue" points="671.86,-106.5 681.86,-103 671.86,-99.5 671.86,-106.5"/>
</g>
<!-- Node2&#45;&gt;Node11 -->
<g id="edge10" class="edge">
<title>Node2&#45;&gt;Node11</title>
<path fill="none" stroke="midnightblue" d="M684.55,-85.11C666.16,-79.84 646.23,-74.12 628.53,-69.05"/>
<polygon fill="midnightblue" stroke="midnightblue" points="683.72,-88.51 694.3,-87.9 685.65,-81.78 683.72,-88.51"/>
</g>
<!-- Node3&#45;&gt;Node4 -->
<g id="edge3" class="edge">
<title>Node3&#45;&gt;Node4</title>
<path fill="none" stroke="midnightblue" d="M520.65,-170.57C515.01,-172.68 509.37,-174.85 504,-177 480.01,-186.63 453.37,-198.55 433.2,-207.85"/>
<polygon fill="midnightblue" stroke="midnightblue" points="521.94,-173.83 530.12,-167.09 519.52,-167.26 521.94,-173.83"/>
</g>
<!-- Node5 -->
<g id="node5" class="node">
<title>Node5</title>
<g id="a_node5"><a xlink:href="psk__test_8cpp.html#a82221e67ef1f82d389fa971718fa764a" target="_top" xlink:title=" ">
<polygon fill="none" stroke="black" points="199,-213.5 199,-232.5 240,-232.5 240,-213.5 199,-213.5"/>
<text text-anchor="middle" x="219.5" y="-220.5" font-family="Helvetica,sans-Serif" font-size="10.00">TEST</text>
</a>
</g>
</g>
<!-- Node4&#45;&gt;Node5 -->
<g id="edge4" class="edge">
<title>Node4&#45;&gt;Node5</title>
<path fill="none" stroke="midnightblue" d="M321.72,-223C291.84,-223 260.12,-223 240.32,-223"/>
<polygon fill="midnightblue" stroke="midnightblue" points="321.77,-226.5 331.77,-223 321.77,-219.5 321.77,-226.5"/>
</g>
<!-- Node7 -->
<g id="node7" class="node">
<title>Node7</title>
<g id="a_node7"><a xlink:href="classsignal__easel_1_1ax25_1_1Frame.html#a63cf2362c2a90d20f09bbbc4f24a07ba" target="_top" xlink:title="Attempt to parse an incoming bit stream into an AX.25 frame.">
<polygon fill="none" stroke="black" points="332.5,-90 332.5,-120 467.5,-120 467.5,-90 332.5,-90"/>
<text text-anchor="start" x="340.5" y="-108" font-family="Helvetica,sans-Serif" font-size="10.00">signal_easel::ax25</text>
<text text-anchor="middle" x="400" y="-97" font-family="Helvetica,sans-Serif" font-size="10.00">::Frame::parseBitStream</text>
</a>
</g>
</g>
<!-- Node6&#45;&gt;Node7 -->
<g id="edge6" class="edge">
<title>Node6&#45;&gt;Node7</title>
<path fill="none" stroke="midnightblue" d="M511.05,-103.73C496.92,-103.89 481.88,-104.07 467.6,-104.23"/>
<polygon fill="midnightblue" stroke="midnightblue" points="511.2,-107.23 521.15,-103.61 511.11,-100.23 511.2,-107.23"/>
</g>
<!-- Node8 -->
<g id="node8" class="node">
<title>Node8</title>
<g id="a_node8"><a xlink:href="classsignal__easel_1_1aprs_1_1Demodulator.html#ae5a8e7634c1bc8d215a0c454a9a737fa" target="_top" xlink:title=" ">
<polygon fill="none" stroke="black" points="143,-85.5 143,-126.5 296,-126.5 296,-85.5 143,-85.5"/>
<text text-anchor="start" x="151" y="-114.5" font-family="Helvetica,sans-Serif" font-size="10.00">signal_easel::aprs</text>
<text text-anchor="start" x="151" y="-103.5" font-family="Helvetica,sans-Serif" font-size="10.00">::Demodulator::lookForAx25</text>
<text text-anchor="middle" x="219.5" y="-92.5" font-family="Helvetica,sans-Serif" font-size="10.00">Packet</text>
</a>
</g>
</g>
<!-- Node7&#45;&gt;Node8 -->
<g id="edge7" class="edge">
<title>Node7&#45;&gt;Node8</title>
<path fill="none" stroke="midnightblue" d="M322.22,-105.43C313.58,-105.48 304.77,-105.53 296.14,-105.58"/>
<polygon fill="midnightblue" stroke="midnightblue" points="322.3,-108.93 332.28,-105.37 322.26,-101.93 322.3,-108.93"/>
</g>
<!-- Node9 -->
<g id="node9" class="node">
<title>Node9</title>
<g id="a_node9"><a xlink:href="classsignal__easel_1_1aprs_1_1Receiver.html#afbf7869aceaf2ea7ab0be8b9af16e818" target="_top" xlink:title=" ">
<polygon fill="none" stroke="black" points="0,-91 0,-121 107,-121 107,-91 0,-91"/>
<text text-anchor="start" x="8" y="-109" font-family="Helvetica,sans-Serif" font-size="10.00">signal_easel::aprs</text>
<text text-anchor="middle" x="53.5" y="-98" font-family="Helvetica,sans-Serif" font-size="10.00">::Receiver::decode</text>
</a>
</g>
</g>
<!-- Node8&#45;&gt;Node9 -->
<g id="edge8" class="edge">
<title>Node8&#45;&gt;Node9</title>
<path fill="none" stroke="midnightblue" d="M132.67,-106C124.09,-106 115.56,-106 107.47,-106"/>
<polygon fill="midnightblue" stroke="midnightblue" points="132.74,-109.5 142.74,-106 132.74,-102.5 132.74,-109.5"/>
</g>
<!-- Node10 -->
<g id="node10" class="node">
<title>Node10</title>
<g id="a_node10"><a xlink:href="aprs__test_8cpp.html#aea66d1824e3f1e27598adf99ac6a089a" target="_top" xlink:title=" ">
<polygon fill="none" stroke="black" points="33,-47.5 33,-66.5 74,-66.5 74,-47.5 33,-47.5"/>
<text text-anchor="middle" x="53.5" y="-54.5" font-family="Helvetica,sans-Serif" font-size="10.00">TEST</text>
</a>
</g>
</g>
<!-- Node8&#45;&gt;Node10 -->
<g id="edge9" class="edge">
<title>Node8&#45;&gt;Node10</title>
<path fill="none" stroke="midnightblue" d="M139.76,-82.47C115.4,-75.19 90.65,-67.8 74.13,-62.87"/>
<polygon fill="midnightblue" stroke="midnightblue" points="138.84,-85.85 149.42,-85.36 140.85,-79.15 138.84,-85.85"/>
</g>
<!-- Node12 -->
<g id="node12" class="node">
<title>Node12</title>
<g id="a_node12"><a xlink:href="namespacesignal__easel_1_1aprs.html#a77481001a5b78a839972bb4220b43e4d" target="_top" xlink:title=" ">
<polygon fill="none" stroke="black" points="348,-39 348,-69 452,-69 452,-39 348,-39"/>
<text text-anchor="start" x="356" y="-57" font-family="Helvetica,sans-Serif" font-size="10.00">signal_easel::aprs</text>
<text text-anchor="middle" x="400" y="-46" font-family="Helvetica,sans-Serif" font-size="10.00">::encodePacket</text>
</a>
</g>
</g>
<!-- Node11&#45;&gt;Node12 -->
<g id="edge11" class="edge">
<title>Node11&#45;&gt;Node12</title>
<path fill="none" stroke="midnightblue" d="M501.74,-54C485.03,-54 467.59,-54 452,-54"/>
<polygon fill="midnightblue" stroke="midnightblue" points="502.03,-57.5 512.03,-54 502.03,-50.5 502.03,-57.5"/>
</g>
<!-- Node14 -->
<g id="node14" class="node">
<title>Node14</title>
<g id="a_node14"><a xlink:href="tmp_8cpp.html#ae66f6b31b5ad750f1fe042a706a4e3d4" target="_top" xlink:title=" ">
<polygon fill="none" stroke="black" points="379.5,-0.5 379.5,-19.5 420.5,-19.5 420.5,-0.5 379.5,-0.5"/>
<text text-anchor="middle" x="400" y="-7.5" font-family="Helvetica,sans-Serif" font-size="10.00">main</text>
</a>
</g>
</g>
<!-- Node11&#45;&gt;Node14 -->
<g id="edge14" class="edge">
<title>Node11&#45;&gt;Node14</title>
<path fill="none" stroke="midnightblue" d="M505.22,-36.51C474.88,-28.79 441.49,-20.3 420.89,-15.06"/>
<polygon fill="midnightblue" stroke="midnightblue" points="504.39,-39.91 514.95,-38.98 506.12,-33.12 504.39,-39.91"/>
</g>
<!-- Node13 -->
<g id="node13" class="node">
<title>Node13</title>
<g id="a_node13"><a xlink:href="classsignal__easel_1_1aprs_1_1Modulator.html#a8ae067701382dec1680b786583ace687" target="_top" xlink:title=" ">
<polygon fill="none" stroke="black" points="163,-36 163,-66 276,-66 276,-36 163,-36"/>
<text text-anchor="start" x="171" y="-54" font-family="Helvetica,sans-Serif" font-size="10.00">signal_easel::aprs</text>
<text text-anchor="middle" x="219.5" y="-43" font-family="Helvetica,sans-Serif" font-size="10.00">::Modulator::encode</text>
</a>
</g>
</g>
<!-- Node12&#45;&gt;Node13 -->
<g id="edge12" class="edge">
<title>Node12&#45;&gt;Node13</title>
<path fill="none" stroke="midnightblue" d="M337.61,-52.97C317.62,-52.63 295.57,-52.26 276.03,-51.93"/>
<polygon fill="midnightblue" stroke="midnightblue" points="337.79,-56.47 347.85,-53.14 337.91,-49.47 337.79,-56.47"/>
</g>
<!-- Node13&#45;&gt;Node10 -->
<g id="edge13" class="edge">
<title>Node13&#45;&gt;Node10</title>
<path fill="none" stroke="midnightblue" d="M152.74,-53.41C124.56,-54.44 93.72,-55.57 74.25,-56.28"/>
<polygon fill="midnightblue" stroke="midnightblue" points="153.11,-56.89 162.98,-53.03 152.86,-49.9 153.11,-56.89"/>
</g>
<!-- Node15&#45;&gt;Node4 -->
<g id="edge16" class="edge">
<title>Node15&#45;&gt;Node4</title>
<path fill="none" stroke="midnightblue" d="M671.7,-224.97C663.04,-225.39 654.33,-225.75 646,-226 585.84,-227.79 517.33,-226.68 468.08,-225.34"/>
<polygon fill="midnightblue" stroke="midnightblue" points="672.02,-228.45 681.83,-224.44 671.66,-221.46 672.02,-228.45"/>
</g>
<!-- Node16&#45;&gt;Node3 -->
<g id="edge18" class="edge">
<title>Node16&#45;&gt;Node3</title>
<path fill="none" stroke="midnightblue" d="M671.6,-152C663.12,-152 654.5,-152 646.08,-152"/>
<polygon fill="midnightblue" stroke="midnightblue" points="671.86,-155.5 681.86,-152 671.86,-148.5 671.86,-155.5"/>
</g>
<!-- Node16&#45;&gt;Node6 -->
<g id="edge21" class="edge">
<title>Node16&#45;&gt;Node6</title>
<path fill="none" stroke="midnightblue" d="M684.55,-134.11C666.16,-128.84 646.23,-123.12 628.53,-118.05"/>
<polygon fill="midnightblue" stroke="midnightblue" points="683.72,-137.51 694.3,-136.9 685.65,-130.78 683.72,-137.51"/>
</g>
<!-- Node16&#45;&gt;Node11 -->
<g id="edge22" class="edge">
<title>Node16&#45;&gt;Node11</title>
<path fill="none" stroke="midnightblue" d="M687.74,-131.93C685.76,-130.69 683.83,-129.38 682,-128 660.41,-111.74 667.67,-95.14 646,-79 640.83,-75.15 635,-71.84 628.98,-69.03"/>
<polygon fill="midnightblue" stroke="midnightblue" points="686.35,-135.16 696.8,-136.93 689.74,-129.03 686.35,-135.16"/>
</g>
<!-- Node17 -->
<g id="node17" class="node">
<title>Node17</title>
<g id="a_node17"><a xlink:href="classsignal__easel_1_1psk_1_1Modulator.html#a9210187601fe988d188b66ba5ee66a73" target="_top" xlink:title=" ">
<polygon fill="none" stroke="black" points="506.5,-186 506.5,-216 643.5,-216 643.5,-186 506.5,-186"/>
<text text-anchor="start" x="514.5" y="-204" font-family="Helvetica,sans-Serif" font-size="10.00">signal_easel::psk::</text>
<text text-anchor="middle" x="575" y="-193" font-family="Helvetica,sans-Serif" font-size="10.00">Modulator::addPreamble</text>
</a>
</g>
</g>
<!-- Node16&#45;&gt;Node17 -->
<g id="edge19" class="edge">
<title>Node16&#45;&gt;Node17</title>
<path fill="none" stroke="midnightblue" d="M684.55,-169.89C666.16,-175.16 646.23,-180.88 628.53,-185.95"/>
<polygon fill="midnightblue" stroke="midnightblue" points="685.65,-173.22 694.3,-167.1 683.72,-166.49 685.65,-173.22"/>
</g>
<!-- Node17&#45;&gt;Node4 -->
<g id="edge20" class="edge">
<title>Node17&#45;&gt;Node4</title>
<path fill="none" stroke="midnightblue" d="M496.07,-210.91C486.74,-212.1 477.27,-213.3 468.11,-214.47"/>
<polygon fill="midnightblue" stroke="midnightblue" points="496.64,-214.37 506.12,-209.63 495.76,-207.42 496.64,-214.37"/>
</g>
</g>
</svg>
