<?xml version="1.0" encoding="UTF-8" standalone="no"?>
<!DOCTYPE svg PUBLIC "-//W3C//DTD SVG 1.1//EN"
 "http://www.w3.org/Graphics/SVG/1.1/DTD/svg11.dtd">
<!-- Generated by graphviz version 2.43.0 (0)
 -->
<!-- Title: signal_easel::PulseAudioReader Pages: 1 -->
<svg width="571pt" height="303pt"
 viewBox="0.00 0.00 570.50 303.00" xmlns="http://www.w3.org/2000/svg" xmlns:xlink="http://www.w3.org/1999/xlink">
<g id="graph0" class="graph" transform="scale(1 1) rotate(0) translate(4 299)">
<title>signal_easel::PulseAudioReader</title>
<!-- Node1 -->
<g id="node1" class="node">
<title>Node1</title>
<g id="a_node1"><a xlink:title=" ">
<polygon fill="#bfbfbf" stroke="black" points="150.5,-0.5 150.5,-178.5 287.5,-178.5 287.5,-0.5 150.5,-0.5"/>
<text text-anchor="start" x="158.5" y="-166.5" font-family="Helvetica,sans-Serif" font-size="10.00">signal_easel::PulseAudio</text>
<text text-anchor="middle" x="219" y="-155.5" font-family="Helvetica,sans-Serif" font-size="10.00">Reader</text>
<polyline fill="none" stroke="black" points="150.5,-148.5 287.5,-148.5 "/>
<text text-anchor="middle" x="219" y="-136.5" font-family="Helvetica,sans-Serif" font-size="10.00"> </text>
<polyline fill="none" stroke="black" points="150.5,-129.5 287.5,-129.5 "/>
<text text-anchor="start" x="158.5" y="-117.5" font-family="Helvetica,sans-Serif" font-size="10.00">+ PulseAudioReader()</text>
<text text-anchor="start" x="158.5" y="-106.5" font-family="Helvetica,sans-Serif" font-size="10.00">+ PulseAudioReader()</text>
<text text-anchor="start" x="158.5" y="-95.5" font-family="Helvetica,sans-Serif" font-size="10.00">+ PulseAudioReader()</text>
<text text-anchor="start" x="158.5" y="-84.5" font-family="Helvetica,sans-Serif" font-size="10.00">+ ~PulseAudioReader()</text>
<text text-anchor="start" x="158.5" y="-73.5" font-family="Helvetica,sans-Serif" font-size="10.00">+ getAudioBuffer()</text>
<text text-anchor="start" x="158.5" y="-62.5" font-family="Helvetica,sans-Serif" font-size="10.00">+ getLatency()</text>
<text text-anchor="start" x="158.5" y="-51.5" font-family="Helvetica,sans-Serif" font-size="10.00">+ getRms()</text>
<text text-anchor="start" x="158.5" y="-40.5" font-family="Helvetica,sans-Serif" font-size="10.00">+ getVolume()</text>
<text text-anchor="start" x="158.5" y="-29.5" font-family="Helvetica,sans-Serif" font-size="10.00">+ operator=()</text>
<text text-anchor="start" x="158.5" y="-18.5" font-family="Helvetica,sans-Serif" font-size="10.00">+ operator=()</text>
<text text-anchor="start" x="158.5" y="-7.5" font-family="Helvetica,sans-Serif" font-size="10.00">+ process()</text>
</a>
</g>
</g>
<!-- Node2 -->
<g id="node2" class="node">
<title>Node2</title>
<g id="a_node2"><a xlink:title=" ">
<polygon fill="none" stroke="black" points="0,-232 0,-289 56,-289 56,-232 0,-232"/>
<text text-anchor="middle" x="28" y="-277" font-family="Helvetica,sans-Serif" font-size="10.00">uint32_t</text>
<polyline fill="none" stroke="black" points="0,-270 56,-270 "/>
<text text-anchor="middle" x="28" y="-258" font-family="Helvetica,sans-Serif" font-size="10.00"> </text>
<polyline fill="none" stroke="black" points="0,-251 56,-251 "/>
<text text-anchor="middle" x="28" y="-239" font-family="Helvetica,sans-Serif" font-size="10.00"> </text>
</a>
</g>
</g>
<!-- Node2&#45;&gt;Node1 -->
<g id="edge1" class="edge">
<title>Node2&#45;&gt;Node1</title>
<path fill="none" stroke="#404040" d="M52.5,-231.96C62.82,-220.78 75.17,-207.94 87,-197 103.93,-181.33 122.86,-165.28 140.99,-150.55"/>
<polygon fill="none" stroke="#404040" points="141.03,-150.51 143.19,-143.63 150.37,-142.97 148.22,-149.85 141.03,-150.51"/>
<text text-anchor="middle" x="111.5" y="-200" font-family="Helvetica,sans-Serif" font-size="10.00"> &#45;latency_</text>
</g>
<!-- Node3 -->
<g id="node3" class="node">
<title>Node3</title>
<g id="a_node3"><a xlink:title=" ">
<polygon fill="none" stroke="black" points="74,-232 74,-289 130,-289 130,-232 74,-232"/>
<text text-anchor="middle" x="102" y="-277" font-family="Helvetica,sans-Serif" font-size="10.00">uint64_t</text>
<polyline fill="none" stroke="black" points="74,-270 130,-270 "/>
<text text-anchor="middle" x="102" y="-258" font-family="Helvetica,sans-Serif" font-size="10.00"> </text>
<polyline fill="none" stroke="black" points="74,-251 130,-251 "/>
<text text-anchor="middle" x="102" y="-239" font-family="Helvetica,sans-Serif" font-size="10.00"> </text>
</a>
</g>
</g>
<!-- Node3&#45;&gt;Node1 -->
<g id="edge2" class="edge">
<title>Node3&#45;&gt;Node1</title>
<path fill="none" stroke="#404040" d="M121.06,-231.97C129.53,-219.73 140.07,-204.51 151.06,-188.63"/>
<polygon fill="none" stroke="#404040" points="151.12,-188.54 151.25,-181.33 157.96,-178.68 157.83,-185.89 151.12,-188.54"/>
<text text-anchor="middle" x="159.5" y="-200" font-family="Helvetica,sans-Serif" font-size="10.00"> &#45;rms_</text>
</g>
<!-- Node4 -->
<g id="node4" class="node">
<title>Node4</title>
<g id="a_node4"><a xlink:title=" ">
<polygon fill="none" stroke="black" points="148,-232 148,-289 198,-289 198,-232 148,-232"/>
<text text-anchor="middle" x="173" y="-277" font-family="Helvetica,sans-Serif" font-size="10.00">double</text>
<polyline fill="none" stroke="black" points="148,-270 198,-270 "/>
<text text-anchor="middle" x="173" y="-258" font-family="Helvetica,sans-Serif" font-size="10.00"> </text>
<polyline fill="none" stroke="black" points="148,-251 198,-251 "/>
<text text-anchor="middle" x="173" y="-239" font-family="Helvetica,sans-Serif" font-size="10.00"> </text>
</a>
</g>
</g>
<!-- Node4&#45;&gt;Node1 -->
<g id="edge3" class="edge">
<title>Node4&#45;&gt;Node1</title>
<path fill="none" stroke="#404040" d="M180.49,-231.97C183.7,-220.19 187.66,-205.66 191.8,-190.42"/>
<polygon fill="none" stroke="#404040" points="191.85,-190.25 189.56,-183.41 195,-178.68 197.28,-185.52 191.85,-190.25"/>
<text text-anchor="middle" x="214.5" y="-200" font-family="Helvetica,sans-Serif" font-size="10.00"> &#45;volume_</text>
</g>
<!-- Node5 -->
<g id="node5" class="node">
<title>Node5</title>
<g id="a_node5"><a xlink:title=" ">
<polygon fill="none" stroke="black" points="216,-232 216,-289 314,-289 314,-232 216,-232"/>
<text text-anchor="middle" x="265" y="-277" font-family="Helvetica,sans-Serif" font-size="10.00">pa_sample_spec</text>
<polyline fill="none" stroke="black" points="216,-270 314,-270 "/>
<text text-anchor="middle" x="265" y="-258" font-family="Helvetica,sans-Serif" font-size="10.00"> </text>
<polyline fill="none" stroke="black" points="216,-251 314,-251 "/>
<text text-anchor="middle" x="265" y="-239" font-family="Helvetica,sans-Serif" font-size="10.00"> </text>
</a>
</g>
</g>
<!-- Node5&#45;&gt;Node1 -->
<g id="edge4" class="edge">
<title>Node5&#45;&gt;Node1</title>
<path fill="none" stroke="#404040" d="M257.51,-231.97C254.3,-220.19 250.34,-205.66 246.2,-190.42"/>
<polygon fill="none" stroke="#404040" points="246.15,-190.25 240.72,-185.52 243,-178.68 248.44,-183.41 246.15,-190.25"/>
<text text-anchor="middle" x="261.5" y="-200" font-family="Helvetica,sans-Serif" font-size="10.00"> &#45;ss_</text>
</g>
<!-- Node6 -->
<g id="node6" class="node">
<title>Node6</title>
<g id="a_node6"><a xlink:title=" ">
<polygon fill="none" stroke="black" points="332.5,-232 332.5,-289 407.5,-289 407.5,-232 332.5,-232"/>
<text text-anchor="middle" x="370" y="-277" font-family="Helvetica,sans-Serif" font-size="10.00">pa_simple *</text>
<polyline fill="none" stroke="black" points="332.5,-270 407.5,-270 "/>
<text text-anchor="middle" x="370" y="-258" font-family="Helvetica,sans-Serif" font-size="10.00"> </text>
<polyline fill="none" stroke="black" points="332.5,-251 407.5,-251 "/>
<text text-anchor="middle" x="370" y="-239" font-family="Helvetica,sans-Serif" font-size="10.00"> </text>
</a>
</g>
</g>
<!-- Node6&#45;&gt;Node1 -->
<g id="edge5" class="edge">
<title>Node6&#45;&gt;Node1</title>
<path fill="none" stroke="#404040" d="M345.4,-231.97C331.64,-216.57 313.66,-196.45 295.6,-176.23"/>
<polygon fill="none" stroke="#404040" points="295.58,-176.21 288.6,-174.4 287.59,-167.26 294.57,-169.07 295.58,-176.21"/>
<text text-anchor="middle" x="330" y="-200" font-family="Helvetica,sans-Serif" font-size="10.00"> &#45;s_</text>
</g>
<!-- Node7 -->
<g id="node7" class="node">
<title>Node7</title>
<g id="a_node7"><a xlink:title=" ">
<polygon fill="none" stroke="black" points="425.5,-226.5 425.5,-294.5 562.5,-294.5 562.5,-226.5 425.5,-226.5"/>
<text text-anchor="start" x="433.5" y="-282.5" font-family="Helvetica,sans-Serif" font-size="10.00">array&lt; int16_t, PULSE</text>
<text text-anchor="middle" x="494" y="-271.5" font-family="Helvetica,sans-Serif" font-size="10.00">_AUDIO_BUFFER_SIZE &gt;</text>
<polyline fill="none" stroke="black" points="425.5,-264.5 562.5,-264.5 "/>
<text text-anchor="middle" x="494" y="-252.5" font-family="Helvetica,sans-Serif" font-size="10.00"> </text>
<polyline fill="none" stroke="black" points="425.5,-245.5 562.5,-245.5 "/>
<text text-anchor="middle" x="494" y="-233.5" font-family="Helvetica,sans-Serif" font-size="10.00"> </text>
</a>
</g>
</g>
<!-- Node7&#45;&gt;Node1 -->
<g id="edge6" class="edge">
<title>Node7&#45;&gt;Node1</title>
<path fill="none" stroke="#404040" d="M440,-226.31C399.51,-201.43 343.48,-167 297.96,-139.03"/>
<polygon fill="none" stroke="#404040" points="297.76,-138.9 290.55,-139.17 287.53,-132.62 294.74,-132.35 297.76,-138.9"/>
<text text-anchor="middle" x="441.5" y="-200" font-family="Helvetica,sans-Serif" font-size="10.00"> &#45;audio_buffer_</text>
</g>
</g>
</svg>
