<?xml version="1.0" encoding="UTF-8" standalone="no"?>
<!DOCTYPE svg PUBLIC "-//W3C//DTD SVG 1.1//EN"
 "http://www.w3.org/Graphics/SVG/1.1/DTD/svg11.dtd">
<!-- Generated by graphviz version 2.43.0 (0)
 -->
<!-- Title: signal_easel::BitStream::addBits Pages: 1 -->
<svg width="994pt" height="220pt"
 viewBox="0.00 0.00 994.00 220.00" xmlns="http://www.w3.org/2000/svg" xmlns:xlink="http://www.w3.org/1999/xlink">
<g id="graph0" class="graph" transform="scale(1 1) rotate(0) translate(4 216)">
<title>signal_easel::BitStream::addBits</title>
<!-- Node1 -->
<g id="node1" class="node">
<title>Node1</title>
<g id="a_node1"><a xlink:title=" ">
<polygon fill="#bfbfbf" stroke="black" points="854,-118 854,-148 986,-148 986,-118 854,-118"/>
<text text-anchor="start" x="862" y="-136" font-family="Helvetica,sans-Serif" font-size="10.00">signal_easel::BitStream</text>
<text text-anchor="middle" x="920" y="-125" font-family="Helvetica,sans-Serif" font-size="10.00">::addBits</text>
</a>
</g>
</g>
<!-- Node2 -->
<g id="node2" class="node">
<title>Node2</title>
<g id="a_node2"><a xlink:href="classsignal__easel_1_1BitStream.html#a81d4aea4c11f65e0c2b7ad2f0f0cc312" target="_top" xlink:title=" ">
<polygon fill="none" stroke="black" points="686,-118 686,-148 818,-148 818,-118 686,-118"/>
<text text-anchor="start" x="694" y="-136" font-family="Helvetica,sans-Serif" font-size="10.00">signal_easel::BitStream</text>
<text text-anchor="middle" x="752" y="-125" font-family="Helvetica,sans-Serif" font-size="10.00">::addOneBit</text>
</a>
</g>
</g>
<!-- Node1&#45;&gt;Node2 -->
<g id="edge1" class="edge">
<title>Node1&#45;&gt;Node2</title>
<path fill="none" stroke="midnightblue" d="M843.61,-133C835.13,-133 826.55,-133 818.22,-133"/>
<polygon fill="midnightblue" stroke="midnightblue" points="843.87,-136.5 853.87,-133 843.87,-129.5 843.87,-136.5"/>
</g>
<!-- Node8 -->
<g id="node8" class="node">
<title>Node8</title>
<g id="a_node8"><a xlink:href="classsignal__easel_1_1ax25_1_1Frame.html#a2b4f6ebcb7592a7e5a21114c8fafa503" target="_top" xlink:title="A step beyond buildFrame. This function builds the frame, does the bit stuffing, adds the flags,...">
<polygon fill="none" stroke="black" points="525,-110 525,-140 650,-140 650,-110 525,-110"/>
<text text-anchor="start" x="533" y="-128" font-family="Helvetica,sans-Serif" font-size="10.00">signal_easel::ax25</text>
<text text-anchor="middle" x="587.5" y="-117" font-family="Helvetica,sans-Serif" font-size="10.00">::Frame::encodeFrame</text>
</a>
</g>
</g>
<!-- Node1&#45;&gt;Node8 -->
<g id="edge16" class="edge">
<title>Node1&#45;&gt;Node8</title>
<path fill="none" stroke="midnightblue" d="M858.62,-115.53C845.35,-112.4 831.29,-109.62 818,-108 759.76,-100.9 744.45,-102.94 686,-108 674.36,-109.01 662.02,-110.68 650.18,-112.59"/>
<polygon fill="midnightblue" stroke="midnightblue" points="858.04,-118.99 868.59,-117.97 859.71,-112.19 858.04,-118.99"/>
</g>
<!-- Node13 -->
<g id="node13" class="node">
<title>Node13</title>
<g id="a_node13"><a xlink:href="classsignal__easel_1_1BitStream.html#abb315beec8c4d88115d9d4ec5f082863" target="_top" xlink:title=" ">
<polygon fill="none" stroke="black" points="686,-167 686,-197 818,-197 818,-167 686,-167"/>
<text text-anchor="start" x="694" y="-185" font-family="Helvetica,sans-Serif" font-size="10.00">signal_easel::BitStream</text>
<text text-anchor="middle" x="752" y="-174" font-family="Helvetica,sans-Serif" font-size="10.00">::addZeroBit</text>
</a>
</g>
</g>
<!-- Node1&#45;&gt;Node13 -->
<g id="edge13" class="edge">
<title>Node1&#45;&gt;Node13</title>
<path fill="none" stroke="midnightblue" d="M858.13,-150.97C840.35,-156.22 821.1,-161.9 803.99,-166.95"/>
<polygon fill="midnightblue" stroke="midnightblue" points="859.24,-154.29 867.84,-148.1 857.26,-147.58 859.24,-154.29"/>
</g>
<!-- Node3 -->
<g id="node3" class="node">
<title>Node3</title>
<g id="a_node3"><a xlink:href="namespacesignal__easel_1_1ax25.html#a84e1d1bf82ef828a150bc94cf065e396" target="_top" xlink:title="Convert a bit stream from NRZI to standard encoding.">
<polygon fill="none" stroke="black" points="534,-167 534,-197 641,-197 641,-167 534,-167"/>
<text text-anchor="start" x="542" y="-185" font-family="Helvetica,sans-Serif" font-size="10.00">signal_easel::ax25</text>
<text text-anchor="middle" x="587.5" y="-174" font-family="Helvetica,sans-Serif" font-size="10.00">::decodeNrzi</text>
</a>
</g>
</g>
<!-- Node2&#45;&gt;Node3 -->
<g id="edge2" class="edge">
<title>Node2&#45;&gt;Node3</title>
<path fill="none" stroke="midnightblue" d="M690.93,-151.11C673.66,-156.32 655.01,-161.95 638.42,-166.95"/>
<polygon fill="midnightblue" stroke="midnightblue" points="692.35,-154.34 700.92,-148.1 690.33,-147.64 692.35,-154.34"/>
</g>
<!-- Node2&#45;&gt;Node8 -->
<g id="edge7" class="edge">
<title>Node2&#45;&gt;Node8</title>
<path fill="none" stroke="midnightblue" d="M675.84,-129.3C667.27,-128.88 658.61,-128.45 650.24,-128.04"/>
<polygon fill="midnightblue" stroke="midnightblue" points="675.68,-132.8 685.84,-129.79 676.03,-125.8 675.68,-132.8"/>
</g>
<!-- Node4 -->
<g id="node4" class="node">
<title>Node4</title>
<g id="a_node4"><a xlink:href="classsignal__easel_1_1ax25_1_1Frame.html#a63cf2362c2a90d20f09bbbc4f24a07ba" target="_top" xlink:title="Attempt to parse an incoming bit stream into an AX.25 frame.">
<polygon fill="none" stroke="black" points="354,-171 354,-201 489,-201 489,-171 354,-171"/>
<text text-anchor="start" x="362" y="-189" font-family="Helvetica,sans-Serif" font-size="10.00">signal_easel::ax25</text>
<text text-anchor="middle" x="421.5" y="-178" font-family="Helvetica,sans-Serif" font-size="10.00">::Frame::parseBitStream</text>
</a>
</g>
</g>
<!-- Node3&#45;&gt;Node4 -->
<g id="edge3" class="edge">
<title>Node3&#45;&gt;Node4</title>
<path fill="none" stroke="midnightblue" d="M523.5,-183.54C512.21,-183.81 500.4,-184.1 489.01,-184.38"/>
<polygon fill="midnightblue" stroke="midnightblue" points="523.79,-187.03 533.71,-183.29 523.62,-180.03 523.79,-187.03"/>
</g>
<!-- Node5 -->
<g id="node5" class="node">
<title>Node5</title>
<g id="a_node5"><a xlink:href="classsignal__easel_1_1aprs_1_1Demodulator.html#ae5a8e7634c1bc8d215a0c454a9a737fa" target="_top" xlink:title=" ">
<polygon fill="none" stroke="black" points="154,-170.5 154,-211.5 307,-211.5 307,-170.5 154,-170.5"/>
<text text-anchor="start" x="162" y="-199.5" font-family="Helvetica,sans-Serif" font-size="10.00">signal_easel::aprs</text>
<text text-anchor="start" x="162" y="-188.5" font-family="Helvetica,sans-Serif" font-size="10.00">::Demodulator::lookForAx25</text>
<text text-anchor="middle" x="230.5" y="-177.5" font-family="Helvetica,sans-Serif" font-size="10.00">Packet</text>
</a>
</g>
</g>
<!-- Node4&#45;&gt;Node5 -->
<g id="edge4" class="edge">
<title>Node4&#45;&gt;Node5</title>
<path fill="none" stroke="midnightblue" d="M343.83,-188.03C331.75,-188.35 319.26,-188.68 307.21,-189"/>
<polygon fill="midnightblue" stroke="midnightblue" points="343.96,-191.53 353.87,-187.76 343.78,-184.53 343.96,-191.53"/>
</g>
<!-- Node6 -->
<g id="node6" class="node">
<title>Node6</title>
<g id="a_node6"><a xlink:href="classsignal__easel_1_1aprs_1_1Receiver.html#afbf7869aceaf2ea7ab0be8b9af16e818" target="_top" xlink:title=" ">
<polygon fill="none" stroke="black" points="0,-176 0,-206 107,-206 107,-176 0,-176"/>
<text text-anchor="start" x="8" y="-194" font-family="Helvetica,sans-Serif" font-size="10.00">signal_easel::aprs</text>
<text text-anchor="middle" x="53.5" y="-183" font-family="Helvetica,sans-Serif" font-size="10.00">::Receiver::decode</text>
</a>
</g>
</g>
<!-- Node5&#45;&gt;Node6 -->
<g id="edge5" class="edge">
<title>Node5&#45;&gt;Node6</title>
<path fill="none" stroke="midnightblue" d="M143.4,-191C131.04,-191 118.63,-191 107.18,-191"/>
<polygon fill="midnightblue" stroke="midnightblue" points="143.76,-194.5 153.76,-191 143.76,-187.5 143.76,-194.5"/>
</g>
<!-- Node7 -->
<g id="node7" class="node">
<title>Node7</title>
<g id="a_node7"><a xlink:href="aprs__test_8cpp.html#aea66d1824e3f1e27598adf99ac6a089a" target="_top" xlink:title=" ">
<polygon fill="none" stroke="black" points="33,-129.5 33,-148.5 74,-148.5 74,-129.5 33,-129.5"/>
<text text-anchor="middle" x="53.5" y="-136.5" font-family="Helvetica,sans-Serif" font-size="10.00">TEST</text>
</a>
</g>
</g>
<!-- Node5&#45;&gt;Node7 -->
<g id="edge6" class="edge">
<title>Node5&#45;&gt;Node7</title>
<path fill="none" stroke="midnightblue" d="M150.45,-167.51C122.32,-159.15 93.02,-150.44 74.31,-144.89"/>
<polygon fill="midnightblue" stroke="midnightblue" points="149.75,-170.95 160.34,-170.45 151.75,-164.24 149.75,-170.95"/>
</g>
<!-- Node9 -->
<g id="node9" class="node">
<title>Node9</title>
<g id="a_node9"><a xlink:href="namespacesignal__easel_1_1aprs.html#a77481001a5b78a839972bb4220b43e4d" target="_top" xlink:title=" ">
<polygon fill="none" stroke="black" points="369.5,-77 369.5,-107 473.5,-107 473.5,-77 369.5,-77"/>
<text text-anchor="start" x="377.5" y="-95" font-family="Helvetica,sans-Serif" font-size="10.00">signal_easel::aprs</text>
<text text-anchor="middle" x="421.5" y="-84" font-family="Helvetica,sans-Serif" font-size="10.00">::encodePacket</text>
</a>
</g>
</g>
<!-- Node8&#45;&gt;Node9 -->
<g id="edge8" class="edge">
<title>Node8&#45;&gt;Node9</title>
<path fill="none" stroke="midnightblue" d="M514.94,-110.6C501.04,-107.8 486.74,-104.93 473.66,-102.29"/>
<polygon fill="midnightblue" stroke="midnightblue" points="514.47,-114.08 524.97,-112.62 515.85,-107.21 514.47,-114.08"/>
</g>
<!-- Node10 -->
<g id="node10" class="node">
<title>Node10</title>
<g id="a_node10"><a xlink:href="classsignal__easel_1_1aprs_1_1Modulator.html#adfa8809d1c11321b9ff2c7efe7f58499" target="_top" xlink:title=" ">
<polygon fill="none" stroke="black" points="143,-61 143,-91 318,-91 318,-61 143,-61"/>
<text text-anchor="start" x="151" y="-79" font-family="Helvetica,sans-Serif" font-size="10.00">signal_easel::aprs</text>
<text text-anchor="middle" x="230.5" y="-68" font-family="Helvetica,sans-Serif" font-size="10.00">::Modulator::encodeMessageAck</text>
</a>
</g>
</g>
<!-- Node9&#45;&gt;Node10 -->
<g id="edge9" class="edge">
<title>Node9&#45;&gt;Node10</title>
<path fill="none" stroke="midnightblue" d="M359.07,-86.8C345.95,-85.69 331.87,-84.5 318.01,-83.32"/>
<polygon fill="midnightblue" stroke="midnightblue" points="359.09,-90.31 369.35,-87.67 359.68,-83.34 359.09,-90.31"/>
</g>
<!-- Node11 -->
<g id="node11" class="node">
<title>Node11</title>
<g id="a_node11"><a xlink:href="classsignal__easel_1_1aprs_1_1Modulator.html#a147321b48c2e282c62863f114702e54f" target="_top" xlink:title=" ">
<polygon fill="none" stroke="black" points="152,-110.5 152,-151.5 309,-151.5 309,-110.5 152,-110.5"/>
<text text-anchor="start" x="160" y="-139.5" font-family="Helvetica,sans-Serif" font-size="10.00">signal_easel::aprs</text>
<text text-anchor="start" x="160" y="-128.5" font-family="Helvetica,sans-Serif" font-size="10.00">::Modulator::encodeMessage</text>
<text text-anchor="middle" x="230.5" y="-117.5" font-family="Helvetica,sans-Serif" font-size="10.00">Packet</text>
</a>
</g>
</g>
<!-- Node9&#45;&gt;Node11 -->
<g id="edge10" class="edge">
<title>Node9&#45;&gt;Node11</title>
<path fill="none" stroke="midnightblue" d="M359.14,-104.66C343.26,-107.94 325.94,-111.51 309.34,-114.94"/>
<polygon fill="midnightblue" stroke="midnightblue" points="360.27,-108 369.35,-102.55 358.85,-101.15 360.27,-108"/>
</g>
<!-- Node12 -->
<g id="node12" class="node">
<title>Node12</title>
<g id="a_node12"><a xlink:href="classsignal__easel_1_1aprs_1_1Modulator.html#a943e392227656943d7db842e1889d805" target="_top" xlink:title=" ">
<polygon fill="none" stroke="black" points="154.5,-0.5 154.5,-41.5 306.5,-41.5 306.5,-0.5 154.5,-0.5"/>
<text text-anchor="start" x="162.5" y="-29.5" font-family="Helvetica,sans-Serif" font-size="10.00">signal_easel::aprs</text>
<text text-anchor="start" x="162.5" y="-18.5" font-family="Helvetica,sans-Serif" font-size="10.00">::Modulator::encodePosition</text>
<text text-anchor="middle" x="230.5" y="-7.5" font-family="Helvetica,sans-Serif" font-size="10.00">Packet</text>
</a>
</g>
</g>
<!-- Node9&#45;&gt;Node12 -->
<g id="edge12" class="edge">
<title>Node9&#45;&gt;Node12</title>
<path fill="none" stroke="midnightblue" d="M374.64,-73.13C357.01,-66.01 336.64,-57.95 318,-51 309.66,-47.89 300.83,-44.7 292.12,-41.62"/>
<polygon fill="midnightblue" stroke="midnightblue" points="373.55,-76.46 384.13,-76.97 376.18,-69.97 373.55,-76.46"/>
</g>
<!-- Node11&#45;&gt;Node7 -->
<g id="edge11" class="edge">
<title>Node11&#45;&gt;Node7</title>
<path fill="none" stroke="midnightblue" d="M141.85,-135.01C116.36,-136.17 90.88,-137.34 74.08,-138.1"/>
<polygon fill="midnightblue" stroke="midnightblue" points="142.15,-138.5 151.98,-134.54 141.83,-131.5 142.15,-138.5"/>
</g>
<!-- Node13&#45;&gt;Node3 -->
<g id="edge14" class="edge">
<title>Node13&#45;&gt;Node3</title>
<path fill="none" stroke="midnightblue" d="M675.67,-182C664.02,-182 652.2,-182 641.19,-182"/>
<polygon fill="midnightblue" stroke="midnightblue" points="675.84,-185.5 685.84,-182 675.84,-178.5 675.84,-185.5"/>
</g>
<!-- Node13&#45;&gt;Node8 -->
<g id="edge15" class="edge">
<title>Node13&#45;&gt;Node8</title>
<path fill="none" stroke="midnightblue" d="M698.21,-163.48C676.63,-155.91 651.99,-147.27 631.54,-140.1"/>
<polygon fill="midnightblue" stroke="midnightblue" points="697.28,-166.87 707.88,-166.87 699.6,-160.26 697.28,-166.87"/>
</g>
</g>
</svg>
