<?xml version="1.0" encoding="UTF-8" standalone="no"?>
<!DOCTYPE svg PUBLIC "-//W3C//DTD SVG 1.1//EN"
 "http://www.w3.org/Graphics/SVG/1.1/DTD/svg11.dtd">
<!-- Generated by graphviz version 2.43.0 (0)
 -->
<!-- Title: signal_easel::psk::PskWaveShaper Pages: 1 -->
<svg width="709pt" height="248pt"
 viewBox="0.00 0.00 709.00 248.00" xmlns="http://www.w3.org/2000/svg" xmlns:xlink="http://www.w3.org/1999/xlink">
<g id="graph0" class="graph" transform="scale(1 1) rotate(0) translate(4 244)">
<title>signal_easel::psk::PskWaveShaper</title>
<!-- Node1 -->
<g id="node1" class="node">
<title>Node1</title>
<g id="a_node1"><a xlink:title=" ">
<polygon fill="#bfbfbf" stroke="black" points="243.5,-0.5 243.5,-90.5 356.5,-90.5 356.5,-0.5 243.5,-0.5"/>
<text text-anchor="start" x="251.5" y="-78.5" font-family="Helvetica,sans-Serif" font-size="10.00">signal_easel::psk::</text>
<text text-anchor="middle" x="300" y="-67.5" font-family="Helvetica,sans-Serif" font-size="10.00">PskWaveShaper</text>
<polyline fill="none" stroke="black" points="243.5,-60.5 356.5,-60.5 "/>
<text text-anchor="middle" x="300" y="-48.5" font-family="Helvetica,sans-Serif" font-size="10.00"> </text>
<polyline fill="none" stroke="black" points="243.5,-41.5 356.5,-41.5 "/>
<text text-anchor="start" x="251.5" y="-29.5" font-family="Helvetica,sans-Serif" font-size="10.00">+ PskWaveShaper()</text>
<text text-anchor="start" x="251.5" y="-18.5" font-family="Helvetica,sans-Serif" font-size="10.00">+ addSymbol()</text>
<text text-anchor="start" x="251.5" y="-7.5" font-family="Helvetica,sans-Serif" font-size="10.00">&#45; envelopeFilter()</text>
</a>
</g>
</g>
<!-- Node2 -->
<g id="node2" class="node">
<title>Node2</title>
<g id="a_node2"><a xlink:title=" ">
<polygon fill="none" stroke="#bfbfbf" points="0,-182.5 0,-239.5 114,-239.5 114,-182.5 0,-182.5"/>
<text text-anchor="middle" x="57" y="-227.5" font-family="Helvetica,sans-Serif" font-size="10.00">vector&lt; int16_t &gt; &amp;</text>
<polyline fill="none" stroke="#bfbfbf" points="0,-220.5 114,-220.5 "/>
<text text-anchor="middle" x="57" y="-208.5" font-family="Helvetica,sans-Serif" font-size="10.00"> </text>
<polyline fill="none" stroke="#bfbfbf" points="0,-201.5 114,-201.5 "/>
<text text-anchor="middle" x="57" y="-189.5" font-family="Helvetica,sans-Serif" font-size="10.00"> </text>
</a>
</g>
</g>
<!-- Node2&#45;&gt;Node1 -->
<g id="edge1" class="edge">
<title>Node2&#45;&gt;Node1</title>
<path fill="none" stroke="#404040" d="M55.08,-182.06C55.11,-159.56 58.91,-128.55 77,-109 116.1,-66.74 181.23,-52.2 231.03,-47.59"/>
<polygon fill="none" stroke="#404040" points="231.06,-47.59 236.72,-43.13 243.02,-46.65 237.35,-51.11 231.06,-47.59"/>
<text text-anchor="middle" x="118" y="-134" font-family="Helvetica,sans-Serif" font-size="10.00"> &#45;sample_buffer_</text>
</g>
<!-- Node3 -->
<g id="node3" class="node">
<title>Node3</title>
<g id="a_node3"><a xlink:title=" ">
<polygon fill="none" stroke="#bfbfbf" points="137,-182.5 137,-239.5 187,-239.5 187,-182.5 137,-182.5"/>
<text text-anchor="middle" x="162" y="-227.5" font-family="Helvetica,sans-Serif" font-size="10.00">double</text>
<polyline fill="none" stroke="#bfbfbf" points="137,-220.5 187,-220.5 "/>
<text text-anchor="middle" x="162" y="-208.5" font-family="Helvetica,sans-Serif" font-size="10.00"> </text>
<polyline fill="none" stroke="#bfbfbf" points="137,-201.5 187,-201.5 "/>
<text text-anchor="middle" x="162" y="-189.5" font-family="Helvetica,sans-Serif" font-size="10.00"> </text>
</a>
</g>
</g>
<!-- Node3&#45;&gt;Node1 -->
<g id="edge2" class="edge">
<title>Node3&#45;&gt;Node1</title>
<path fill="none" stroke="#404040" d="M160.92,-182.13C161.46,-160.26 165.41,-130.09 181,-109 193.87,-91.59 213.05,-78.58 232.27,-69.08"/>
<polygon fill="none" stroke="#404040" points="232.33,-69.05 236.1,-62.91 243.23,-64.02 239.46,-70.17 232.33,-69.05"/>
<text text-anchor="middle" x="238.5" y="-156" font-family="Helvetica,sans-Serif" font-size="10.00"> &#45;AMPLITUDE_</text>
<text text-anchor="start" x="181" y="-145" font-family="Helvetica,sans-Serif" font-size="10.00">&#45;FILTER_SIN_PI_SCALER</text>
<text text-anchor="middle" x="238.5" y="-134" font-family="Helvetica,sans-Serif" font-size="10.00">_</text>
<text text-anchor="middle" x="238.5" y="-123" font-family="Helvetica,sans-Serif" font-size="10.00">&#45;angle_delta_</text>
<text text-anchor="middle" x="238.5" y="-112" font-family="Helvetica,sans-Serif" font-size="10.00">&#45;carrier_wave_angle_</text>
</g>
<!-- Node4 -->
<g id="node4" class="node">
<title>Node4</title>
<g id="a_node4"><a xlink:title=" ">
<polygon fill="none" stroke="#bfbfbf" points="272,-182.5 272,-239.5 328,-239.5 328,-182.5 272,-182.5"/>
<text text-anchor="middle" x="300" y="-227.5" font-family="Helvetica,sans-Serif" font-size="10.00">uint32_t</text>
<polyline fill="none" stroke="#bfbfbf" points="272,-220.5 328,-220.5 "/>
<text text-anchor="middle" x="300" y="-208.5" font-family="Helvetica,sans-Serif" font-size="10.00"> </text>
<polyline fill="none" stroke="#bfbfbf" points="272,-201.5 328,-201.5 "/>
<text text-anchor="middle" x="300" y="-189.5" font-family="Helvetica,sans-Serif" font-size="10.00"> </text>
</a>
</g>
</g>
<!-- Node4&#45;&gt;Node1 -->
<g id="edge3" class="edge">
<title>Node4&#45;&gt;Node1</title>
<path fill="none" stroke="#404040" d="M300,-182.26C300,-160.54 300,-129.6 300,-102.74"/>
<polygon fill="none" stroke="#404040" points="300,-102.73 296,-96.73 300,-90.73 304,-96.73 300,-102.73"/>
<text text-anchor="start" x="300" y="-156" font-family="Helvetica,sans-Serif" font-size="10.00"> &#45;HALF_SAMPLES_PER_SYMBOL</text>
<text text-anchor="middle" x="377" y="-145" font-family="Helvetica,sans-Serif" font-size="10.00">_</text>
<text text-anchor="start" x="300" y="-134" font-family="Helvetica,sans-Serif" font-size="10.00">&#45;SAMPLES_PER_SYMBOL</text>
<text text-anchor="middle" x="377" y="-123" font-family="Helvetica,sans-Serif" font-size="10.00">_</text>
<text text-anchor="middle" x="377" y="-112" font-family="Helvetica,sans-Serif" font-size="10.00">&#45;sample_num_</text>
</g>
<!-- Node5 -->
<g id="node5" class="node">
<title>Node5</title>
<g id="a_node5"><a xlink:title=" ">
<polygon fill="none" stroke="#bfbfbf" points="454,-182.5 454,-239.5 500,-239.5 500,-182.5 454,-182.5"/>
<text text-anchor="middle" x="477" y="-227.5" font-family="Helvetica,sans-Serif" font-size="10.00">Phase</text>
<polyline fill="none" stroke="#bfbfbf" points="454,-220.5 500,-220.5 "/>
<text text-anchor="middle" x="477" y="-208.5" font-family="Helvetica,sans-Serif" font-size="10.00"> </text>
<polyline fill="none" stroke="#bfbfbf" points="454,-201.5 500,-201.5 "/>
<text text-anchor="middle" x="477" y="-189.5" font-family="Helvetica,sans-Serif" font-size="10.00"> </text>
</a>
</g>
</g>
<!-- Node5&#45;&gt;Node1 -->
<g id="edge4" class="edge">
<title>Node5&#45;&gt;Node1</title>
<path fill="none" stroke="#404040" d="M477.7,-182.08C476.81,-159.88 472.13,-129.3 455,-109 433.27,-83.26 399.38,-68.01 368.82,-59.03"/>
<polygon fill="none" stroke="#404040" points="368.44,-58.93 361.6,-61.21 356.86,-55.78 363.7,-53.5 368.44,-58.93"/>
<text text-anchor="middle" x="518" y="-139.5" font-family="Helvetica,sans-Serif" font-size="10.00"> &#45;current_phase_</text>
<text text-anchor="middle" x="518" y="-128.5" font-family="Helvetica,sans-Serif" font-size="10.00">&#45;previous_phase_</text>
</g>
<!-- Node6 -->
<g id="node6" class="node">
<title>Node6</title>
<g id="a_node6"><a xlink:title=" ">
<polygon fill="none" stroke="#bfbfbf" points="567,-182.5 567,-239.5 605,-239.5 605,-182.5 567,-182.5"/>
<text text-anchor="middle" x="586" y="-227.5" font-family="Helvetica,sans-Serif" font-size="10.00">bool</text>
<polyline fill="none" stroke="#bfbfbf" points="567,-220.5 605,-220.5 "/>
<text text-anchor="middle" x="586" y="-208.5" font-family="Helvetica,sans-Serif" font-size="10.00"> </text>
<polyline fill="none" stroke="#bfbfbf" points="567,-201.5 605,-201.5 "/>
<text text-anchor="middle" x="586" y="-189.5" font-family="Helvetica,sans-Serif" font-size="10.00"> </text>
</a>
</g>
</g>
<!-- Node6&#45;&gt;Node1 -->
<g id="edge5" class="edge">
<title>Node6&#45;&gt;Node1</title>
<path fill="none" stroke="#404040" d="M587.51,-182.27C587.17,-159.58 582.86,-128.2 564,-109 537.11,-81.62 437.47,-63.77 368.6,-54.42"/>
<polygon fill="none" stroke="#404040" points="368.45,-54.39 361.98,-57.57 356.55,-52.82 363.03,-49.64 368.45,-54.39"/>
<text text-anchor="middle" x="643.5" y="-134" font-family="Helvetica,sans-Serif" font-size="10.00"> &#45;filter_end_of_symbol_</text>
</g>
</g>
</svg>
