<?xml version="1.0" encoding="UTF-8" standalone="no"?>
<!DOCTYPE svg PUBLIC "-//W3C//DTD SVG 1.1//EN"
 "http://www.w3.org/Graphics/SVG/1.1/DTD/svg11.dtd">
<!-- Generated by graphviz version 2.43.0 (0)
 -->
<!-- Title: signal_easel::Modulator::addMorseCode Pages: 1 -->
<svg width="479pt" height="88pt"
 viewBox="0.00 0.00 479.00 88.00" xmlns="http://www.w3.org/2000/svg" xmlns:xlink="http://www.w3.org/1999/xlink">
<g id="graph0" class="graph" transform="scale(1 1) rotate(0) translate(4 84)">
<title>signal_easel::Modulator::addMorseCode</title>
<!-- Node1 -->
<g id="node1" class="node">
<title>Node1</title>
<g id="a_node1"><a xlink:title="Add morse code to the output audio.">
<polygon fill="#bfbfbf" stroke="black" points="338,-24.5 338,-54.5 471,-54.5 471,-24.5 338,-24.5"/>
<text text-anchor="start" x="346" y="-42.5" font-family="Helvetica,sans-Serif" font-size="10.00">signal_easel::Modulator</text>
<text text-anchor="middle" x="404.5" y="-31.5" font-family="Helvetica,sans-Serif" font-size="10.00">::addMorseCode</text>
</a>
</g>
</g>
<!-- Node2 -->
<g id="node2" class="node">
<title>Node2</title>
<g id="a_node2"><a xlink:href="classsignal__easel_1_1Modulator.html#a39e52e97a95a761b73ba928f8a29e916" target="_top" xlink:title="Clears the audio buffer. Adds the call sign if it&#39;s in the before or before_and_after modes.">
<polygon fill="none" stroke="black" points="169,-49.5 169,-79.5 302,-79.5 302,-49.5 169,-49.5"/>
<text text-anchor="start" x="177" y="-67.5" font-family="Helvetica,sans-Serif" font-size="10.00">signal_easel::Modulator</text>
<text text-anchor="middle" x="235.5" y="-56.5" font-family="Helvetica,sans-Serif" font-size="10.00">::clearBuffer</text>
</a>
</g>
</g>
<!-- Node1&#45;&gt;Node2 -->
<g id="edge1" class="edge">
<title>Node1&#45;&gt;Node2</title>
<path fill="none" stroke="midnightblue" d="M327.93,-50.81C319.32,-52.1 310.58,-53.41 302.11,-54.68"/>
<polygon fill="midnightblue" stroke="midnightblue" points="328.6,-54.25 337.98,-49.31 327.57,-47.33 328.6,-54.25"/>
</g>
<!-- Node4 -->
<g id="node4" class="node">
<title>Node4</title>
<g id="a_node4"><a xlink:href="classsignal__easel_1_1Modulator.html#a6ff0b49cd126afe576ac949476268f10" target="_top" xlink:title="Write the audio to a file.">
<polygon fill="none" stroke="black" points="169,-0.5 169,-30.5 302,-30.5 302,-0.5 169,-0.5"/>
<text text-anchor="start" x="177" y="-18.5" font-family="Helvetica,sans-Serif" font-size="10.00">signal_easel::Modulator</text>
<text text-anchor="middle" x="235.5" y="-7.5" font-family="Helvetica,sans-Serif" font-size="10.00">::writeToFile</text>
</a>
</g>
</g>
<!-- Node1&#45;&gt;Node4 -->
<g id="edge3" class="edge">
<title>Node1&#45;&gt;Node4</title>
<path fill="none" stroke="midnightblue" d="M327.93,-28.64C319.32,-27.4 310.58,-26.15 302.11,-24.93"/>
<polygon fill="midnightblue" stroke="midnightblue" points="327.58,-32.13 337.98,-30.08 328.58,-25.2 327.58,-32.13"/>
</g>
<!-- Node3 -->
<g id="node3" class="node">
<title>Node3</title>
<g id="a_node3"><a xlink:href="classsignal__easel_1_1Modulator.html#aacf988cd7965d448b2da697911c76faf" target="_top" xlink:title="Constructor for the base modulator class.">
<polygon fill="none" stroke="black" points="0,-49.5 0,-79.5 133,-79.5 133,-49.5 0,-49.5"/>
<text text-anchor="start" x="8" y="-67.5" font-family="Helvetica,sans-Serif" font-size="10.00">signal_easel::Modulator</text>
<text text-anchor="middle" x="66.5" y="-56.5" font-family="Helvetica,sans-Serif" font-size="10.00">::Modulator</text>
</a>
</g>
</g>
<!-- Node2&#45;&gt;Node3 -->
<g id="edge2" class="edge">
<title>Node2&#45;&gt;Node3</title>
<path fill="none" stroke="midnightblue" d="M158.93,-64.5C150.32,-64.5 141.58,-64.5 133.11,-64.5"/>
<polygon fill="midnightblue" stroke="midnightblue" points="158.98,-68 168.98,-64.5 158.98,-61 158.98,-68"/>
</g>
<!-- Node5 -->
<g id="node5" class="node">
<title>Node5</title>
<g id="a_node5"><a xlink:href="afsk__test_8cpp.html#a894b615862c352aa932a7ff5fb85c6dd" target="_top" xlink:title="Encodes a string into an AFSK1200 signal/WAV file and then decodes it.">
<polygon fill="none" stroke="black" points="46,-6 46,-25 87,-25 87,-6 46,-6"/>
<text text-anchor="middle" x="66.5" y="-13" font-family="Helvetica,sans-Serif" font-size="10.00">TEST</text>
</a>
</g>
</g>
<!-- Node4&#45;&gt;Node5 -->
<g id="edge4" class="edge">
<title>Node4&#45;&gt;Node5</title>
<path fill="none" stroke="midnightblue" d="M158.94,-15.5C132.57,-15.5 105.13,-15.5 87.27,-15.5"/>
<polygon fill="midnightblue" stroke="midnightblue" points="158.98,-19 168.98,-15.5 158.98,-12 158.98,-19"/>
</g>
</g>
</svg>
