<?xml version="1.0" encoding="UTF-8" standalone="no"?>
<!DOCTYPE svg PUBLIC "-//W3C//DTD SVG 1.1//EN"
 "http://www.w3.org/Graphics/SVG/1.1/DTD/svg11.dtd">
<!-- Generated by graphviz version 2.43.0 (0)
 -->
<!-- Title: signal_easel::Exception Pages: 1 -->
<svg width="253pt" height="204pt"
 viewBox="0.00 0.00 253.00 204.00" xmlns="http://www.w3.org/2000/svg" xmlns:xlink="http://www.w3.org/1999/xlink">
<g id="graph0" class="graph" transform="scale(1 1) rotate(0) translate(4 200)">
<title>signal_easel::Exception</title>
<!-- Node1 -->
<g id="node1" class="node">
<title>Node1</title>
<g id="a_node1"><a xlink:title=" ">
<polygon fill="#bfbfbf" stroke="black" points="53.5,-0.5 53.5,-90.5 184.5,-90.5 184.5,-0.5 53.5,-0.5"/>
<text text-anchor="middle" x="119" y="-78.5" font-family="Helvetica,sans-Serif" font-size="10.00">signal_easel::Exception</text>
<polyline fill="none" stroke="black" points="53.5,-71.5 184.5,-71.5 "/>
<text text-anchor="middle" x="119" y="-59.5" font-family="Helvetica,sans-Serif" font-size="10.00"> </text>
<polyline fill="none" stroke="black" points="53.5,-52.5 184.5,-52.5 "/>
<text text-anchor="start" x="61.5" y="-40.5" font-family="Helvetica,sans-Serif" font-size="10.00">+ Exception()</text>
<text text-anchor="start" x="61.5" y="-29.5" font-family="Helvetica,sans-Serif" font-size="10.00">+ Exception()</text>
<text text-anchor="start" x="61.5" y="-18.5" font-family="Helvetica,sans-Serif" font-size="10.00">+ what()</text>
<text text-anchor="start" x="61.5" y="-7.5" font-family="Helvetica,sans-Serif" font-size="10.00">+ idToString()</text>
</a>
</g>
</g>
<!-- Node2 -->
<g id="node2" class="node">
<title>Node2</title>
<g id="a_node2"><a xlink:title=" ">
<polygon fill="none" stroke="black" points="0,-138.5 0,-195.5 86,-195.5 86,-138.5 0,-138.5"/>
<text text-anchor="middle" x="43" y="-183.5" font-family="Helvetica,sans-Serif" font-size="10.00">std::exception</text>
<polyline fill="none" stroke="black" points="0,-176.5 86,-176.5 "/>
<text text-anchor="middle" x="43" y="-164.5" font-family="Helvetica,sans-Serif" font-size="10.00"> </text>
<polyline fill="none" stroke="black" points="0,-157.5 86,-157.5 "/>
<text text-anchor="middle" x="43" y="-145.5" font-family="Helvetica,sans-Serif" font-size="10.00"> </text>
</a>
</g>
</g>
<!-- Node2&#45;&gt;Node1 -->
<g id="edge1" class="edge">
<title>Node2&#45;&gt;Node1</title>
<path fill="none" stroke="midnightblue" d="M66.09,-129.69C73.86,-117.47 82.63,-103.69 90.75,-90.91"/>
<polygon fill="none" stroke="midnightblue" points="63.04,-127.97 60.63,-138.28 68.95,-131.72 63.04,-127.97"/>
</g>
<!-- Node3 -->
<g id="node3" class="node">
<title>Node3</title>
<g id="a_node3"><a xlink:title=" ">
<polygon fill="none" stroke="black" points="104.5,-138.5 104.5,-195.5 133.5,-195.5 133.5,-138.5 104.5,-138.5"/>
<text text-anchor="middle" x="119" y="-183.5" font-family="Helvetica,sans-Serif" font-size="10.00">Id</text>
<polyline fill="none" stroke="black" points="104.5,-176.5 133.5,-176.5 "/>
<text text-anchor="middle" x="119" y="-164.5" font-family="Helvetica,sans-Serif" font-size="10.00"> </text>
<polyline fill="none" stroke="black" points="104.5,-157.5 133.5,-157.5 "/>
<text text-anchor="middle" x="119" y="-145.5" font-family="Helvetica,sans-Serif" font-size="10.00"> </text>
</a>
</g>
</g>
<!-- Node3&#45;&gt;Node1 -->
<g id="edge2" class="edge">
<title>Node3&#45;&gt;Node1</title>
<path fill="none" stroke="#404040" d="M119,-138.28C119,-127.73 119,-115.29 119,-103.03"/>
<polygon fill="none" stroke="#404040" points="119,-102.91 115,-96.91 119,-90.91 123,-96.91 119,-102.91"/>
<text text-anchor="middle" x="130" y="-112" font-family="Helvetica,sans-Serif" font-size="10.00"> &#45;id_</text>
</g>
<!-- Node4 -->
<g id="node4" class="node">
<title>Node4</title>
<g id="a_node4"><a xlink:title=" ">
<polygon fill="none" stroke="black" points="152,-138.5 152,-195.5 196,-195.5 196,-138.5 152,-138.5"/>
<text text-anchor="middle" x="174" y="-183.5" font-family="Helvetica,sans-Serif" font-size="10.00">string</text>
<polyline fill="none" stroke="black" points="152,-176.5 196,-176.5 "/>
<text text-anchor="middle" x="174" y="-164.5" font-family="Helvetica,sans-Serif" font-size="10.00"> </text>
<polyline fill="none" stroke="black" points="152,-157.5 196,-157.5 "/>
<text text-anchor="middle" x="174" y="-145.5" font-family="Helvetica,sans-Serif" font-size="10.00"> </text>
</a>
</g>
</g>
<!-- Node4&#45;&gt;Node1 -->
<g id="edge3" class="edge">
<title>Node4&#45;&gt;Node1</title>
<path fill="none" stroke="#404040" d="M161.24,-138.28C156.24,-127.41 150.3,-114.51 144.49,-101.89"/>
<polygon fill="none" stroke="#404040" points="144.46,-101.81 138.32,-98.04 139.44,-90.91 145.58,-94.69 144.46,-101.81"/>
<text text-anchor="middle" x="198" y="-112" font-family="Helvetica,sans-Serif" font-size="10.00"> &#45;exception_string_</text>
</g>
</g>
</svg>
