<?xml version="1.0" encoding="UTF-8" standalone="no"?>
<!DOCTYPE svg PUBLIC "-//W3C//DTD SVG 1.1//EN"
 "http://www.w3.org/Graphics/SVG/1.1/DTD/svg11.dtd">
<!-- Generated by graphviz version 2.43.0 (0)
 -->
<!-- Title: signal_easel::aprs::telemetry::TelemetryData::getSequenceNumberString Pages: 1 -->
<svg width="703pt" height="88pt"
 viewBox="0.00 0.00 703.00 88.00" xmlns="http://www.w3.org/2000/svg" xmlns:xlink="http://www.w3.org/1999/xlink">
<g id="graph0" class="graph" transform="scale(1 1) rotate(0) translate(4 84)">
<title>signal_easel::aprs::telemetry::TelemetryData::getSequenceNumberString</title>
<!-- Node1 -->
<g id="node1" class="node">
<title>Node1</title>
<g id="a_node1"><a xlink:title="Get the sequence number as a string of 3 digits.">
<polygon fill="#bfbfbf" stroke="black" points="542,-13.5 542,-54.5 695,-54.5 695,-13.5 542,-13.5"/>
<text text-anchor="start" x="550" y="-42.5" font-family="Helvetica,sans-Serif" font-size="10.00">signal_easel::aprs</text>
<text text-anchor="start" x="550" y="-31.5" font-family="Helvetica,sans-Serif" font-size="10.00">::telemetry::TelemetryData</text>
<text text-anchor="middle" x="618.5" y="-20.5" font-family="Helvetica,sans-Serif" font-size="10.00">::getSequenceNumberString</text>
</a>
</g>
</g>
<!-- Node2 -->
<g id="node2" class="node">
<title>Node2</title>
<g id="a_node2"><a xlink:href="classsignal__easel_1_1aprs_1_1telemetry_1_1TelemetryTranscoder.html#ae5d6a4f37c1a561ae6be756dfef2f838" target="_top" xlink:title="Encodes the parameter data into a data report message.">
<polygon fill="none" stroke="black" points="329,-38.5 329,-79.5 506,-79.5 506,-38.5 329,-38.5"/>
<text text-anchor="start" x="337" y="-67.5" font-family="Helvetica,sans-Serif" font-size="10.00">signal_easel::aprs</text>
<text text-anchor="start" x="337" y="-56.5" font-family="Helvetica,sans-Serif" font-size="10.00">::telemetry::TelemetryTranscoder</text>
<text text-anchor="middle" x="417.5" y="-45.5" font-family="Helvetica,sans-Serif" font-size="10.00">::encodeDataReportMessage</text>
</a>
</g>
</g>
<!-- Node1&#45;&gt;Node2 -->
<g id="edge1" class="edge">
<title>Node1&#45;&gt;Node2</title>
<path fill="none" stroke="midnightblue" d="M532.05,-44.73C523.53,-45.81 514.86,-46.89 506.31,-47.97"/>
<polygon fill="midnightblue" stroke="midnightblue" points="532.5,-48.21 541.98,-43.49 531.62,-41.26 532.5,-48.21"/>
</g>
<!-- Node5 -->
<g id="node5" class="node">
<title>Node5</title>
<g id="a_node5"><a xlink:href="aprs__telemetry__data__test_8cpp.html#a2d581dcdcf40d56ebc45e55cc895ec98" target="_top" xlink:title=" ">
<polygon fill="none" stroke="black" points="397,-0.5 397,-19.5 438,-19.5 438,-0.5 397,-0.5"/>
<text text-anchor="middle" x="417.5" y="-7.5" font-family="Helvetica,sans-Serif" font-size="10.00">TEST</text>
</a>
</g>
</g>
<!-- Node1&#45;&gt;Node5 -->
<g id="edge4" class="edge">
<title>Node1&#45;&gt;Node5</title>
<path fill="none" stroke="midnightblue" d="M531.81,-23.67C497.16,-19.49 460.24,-15.03 438.29,-12.39"/>
<polygon fill="midnightblue" stroke="midnightblue" points="531.64,-27.17 541.98,-24.89 532.47,-20.22 531.64,-27.17"/>
</g>
<!-- Node3 -->
<g id="node3" class="node">
<title>Node3</title>
<g id="a_node3"><a xlink:href="structsignal__easel_1_1aprs_1_1TelemetryPacket.html#a6098e85ae94eded273fcf84adbdcdf35" target="_top" xlink:title=" ">
<polygon fill="none" stroke="black" points="149,-44 149,-74 293,-74 293,-44 149,-44"/>
<text text-anchor="start" x="157" y="-62" font-family="Helvetica,sans-Serif" font-size="10.00">signal_easel::aprs</text>
<text text-anchor="middle" x="221" y="-51" font-family="Helvetica,sans-Serif" font-size="10.00">::TelemetryPacket::encode</text>
</a>
</g>
</g>
<!-- Node2&#45;&gt;Node3 -->
<g id="edge2" class="edge">
<title>Node2&#45;&gt;Node3</title>
<path fill="none" stroke="midnightblue" d="M318.77,-59C310.11,-59 301.45,-59 293.07,-59"/>
<polygon fill="midnightblue" stroke="midnightblue" points="318.92,-62.5 328.92,-59 318.92,-55.5 318.92,-62.5"/>
</g>
<!-- Node4 -->
<g id="node4" class="node">
<title>Node4</title>
<g id="a_node4"><a xlink:href="classsignal__easel_1_1aprs_1_1Modulator.html#a5620d9527654c44810aeffe98e1aade4" target="_top" xlink:title=" ">
<polygon fill="none" stroke="black" points="0,-44 0,-74 113,-74 113,-44 0,-44"/>
<text text-anchor="start" x="8" y="-62" font-family="Helvetica,sans-Serif" font-size="10.00">signal_easel::aprs</text>
<text text-anchor="middle" x="56.5" y="-51" font-family="Helvetica,sans-Serif" font-size="10.00">::Modulator::encode</text>
</a>
</g>
</g>
<!-- Node3&#45;&gt;Node4 -->
<g id="edge3" class="edge">
<title>Node3&#45;&gt;Node4</title>
<path fill="none" stroke="midnightblue" d="M138.61,-59C129.97,-59 121.33,-59 113.09,-59"/>
<polygon fill="midnightblue" stroke="midnightblue" points="138.73,-62.5 148.73,-59 138.73,-55.5 138.73,-62.5"/>
</g>
</g>
</svg>
