<?xml version="1.0" encoding="UTF-8" standalone="no"?>
<!DOCTYPE svg PUBLIC "-//W3C//DTD SVG 1.1//EN"
 "http://www.w3.org/Graphics/SVG/1.1/DTD/svg11.dtd">
<!-- Generated by graphviz version 2.43.0 (0)
 -->
<!-- Title: signal_easel::sstv::Modulator Pages: 1 -->
<svg width="1271pt" height="777pt"
 viewBox="0.00 0.00 1271.00 777.00" xmlns="http://www.w3.org/2000/svg" xmlns:xlink="http://www.w3.org/1999/xlink">
<g id="graph0" class="graph" transform="scale(1 1) rotate(0) translate(4 773)">
<title>signal_easel::sstv::Modulator</title>
<!-- Node1 -->
<g id="node1" class="node">
<title>Node1</title>
<g id="a_node1"><a xlink:title="SSTV Modulator.">
<polygon fill="#bfbfbf" stroke="black" points="688,-0.5 688,-156.5 828,-156.5 828,-0.5 688,-0.5"/>
<text text-anchor="start" x="696" y="-144.5" font-family="Helvetica,sans-Serif" font-size="10.00">signal_easel::sstv</text>
<text text-anchor="middle" x="758" y="-133.5" font-family="Helvetica,sans-Serif" font-size="10.00">::Modulator</text>
<polyline fill="none" stroke="black" points="688,-126.5 828,-126.5 "/>
<text text-anchor="middle" x="758" y="-114.5" font-family="Helvetica,sans-Serif" font-size="10.00"> </text>
<polyline fill="none" stroke="black" points="688,-107.5 828,-107.5 "/>
<text text-anchor="start" x="696" y="-95.5" font-family="Helvetica,sans-Serif" font-size="10.00">+ Modulator()</text>
<text text-anchor="start" x="696" y="-84.5" font-family="Helvetica,sans-Serif" font-size="10.00">+ ~Modulator()</text>
<text text-anchor="start" x="696" y="-73.5" font-family="Helvetica,sans-Serif" font-size="10.00">+ encodeImage()</text>
<text text-anchor="start" x="696" y="-62.5" font-family="Helvetica,sans-Serif" font-size="10.00">&#45; addPreamble()</text>
<text text-anchor="start" x="696" y="-51.5" font-family="Helvetica,sans-Serif" font-size="10.00">&#45; encodeAdjustedImage()</text>
<text text-anchor="start" x="696" y="-40.5" font-family="Helvetica,sans-Serif" font-size="10.00">&#45; encodeScanLine()</text>
<text text-anchor="start" x="696" y="-29.5" font-family="Helvetica,sans-Serif" font-size="10.00">&#45; pulse()</text>
<text text-anchor="start" x="696" y="-18.5" font-family="Helvetica,sans-Serif" font-size="10.00">&#45; readImageLine()</text>
<text text-anchor="start" x="696" y="-7.5" font-family="Helvetica,sans-Serif" font-size="10.00">&#45; writeBuffer()</text>
</a>
</g>
</g>
<!-- Node2 -->
<g id="node2" class="node">
<title>Node2</title>
<g id="a_node2"><a xlink:href="classsignal__easel_1_1Modulator.html" target="_top" xlink:title="The abstract base class for all modulators that turn data into audio.">
<polygon fill="none" stroke="black" points="272,-237.5 272,-393.5 424,-393.5 424,-237.5 272,-237.5"/>
<text text-anchor="middle" x="348" y="-381.5" font-family="Helvetica,sans-Serif" font-size="10.00">signal_easel::Modulator</text>
<polyline fill="none" stroke="black" points="272,-374.5 424,-374.5 "/>
<text text-anchor="middle" x="348" y="-362.5" font-family="Helvetica,sans-Serif" font-size="10.00"> </text>
<polyline fill="none" stroke="black" points="272,-355.5 424,-355.5 "/>
<text text-anchor="start" x="280" y="-343.5" font-family="Helvetica,sans-Serif" font-size="10.00">+ Modulator()</text>
<text text-anchor="start" x="280" y="-332.5" font-family="Helvetica,sans-Serif" font-size="10.00">+ ~Modulator()</text>
<text text-anchor="start" x="280" y="-321.5" font-family="Helvetica,sans-Serif" font-size="10.00">+ clearBuffer()</text>
<text text-anchor="start" x="280" y="-310.5" font-family="Helvetica,sans-Serif" font-size="10.00">+ writeToFile()</text>
<text text-anchor="start" x="280" y="-299.5" font-family="Helvetica,sans-Serif" font-size="10.00">+ writeToPulseAudio()</text>
<text text-anchor="start" x="280" y="-288.5" font-family="Helvetica,sans-Serif" font-size="10.00"># addAudioSample()</text>
<text text-anchor="start" x="280" y="-277.5" font-family="Helvetica,sans-Serif" font-size="10.00"># addAudioSampleDouble()</text>
<text text-anchor="start" x="280" y="-266.5" font-family="Helvetica,sans-Serif" font-size="10.00"># addSilence()</text>
<text text-anchor="start" x="280" y="-255.5" font-family="Helvetica,sans-Serif" font-size="10.00"># addSineWave()</text>
<text text-anchor="start" x="280" y="-244.5" font-family="Helvetica,sans-Serif" font-size="10.00">&#45; addMorseCode()</text>
</a>
</g>
</g>
<!-- Node2&#45;&gt;Node1 -->
<g id="edge1" class="edge">
<title>Node2&#45;&gt;Node1</title>
<path fill="none" stroke="midnightblue" d="M432.95,-255.64C471.63,-229.76 518.42,-199.7 562,-175 602.84,-151.86 650.1,-128.73 687.98,-111.03"/>
<polygon fill="none" stroke="midnightblue" points="430.67,-252.96 424.32,-261.44 434.57,-258.77 430.67,-252.96"/>
</g>
<!-- Node3 -->
<g id="node3" class="node">
<title>Node3</title>
<g id="a_node3"><a xlink:href="structsignal__easel_1_1Settings.html" target="_top" xlink:title="The universal settings for MWAV.">
<polygon fill="none" stroke="black" points="164.5,-584.5 164.5,-641.5 287.5,-641.5 287.5,-584.5 164.5,-584.5"/>
<text text-anchor="middle" x="226" y="-629.5" font-family="Helvetica,sans-Serif" font-size="10.00">signal_easel::Settings</text>
<polyline fill="none" stroke="black" points="164.5,-622.5 287.5,-622.5 "/>
<text text-anchor="middle" x="226" y="-610.5" font-family="Helvetica,sans-Serif" font-size="10.00"> </text>
<polyline fill="none" stroke="black" points="164.5,-603.5 287.5,-603.5 "/>
<text text-anchor="middle" x="226" y="-591.5" font-family="Helvetica,sans-Serif" font-size="10.00"> </text>
</a>
</g>
</g>
<!-- Node3&#45;&gt;Node2 -->
<g id="edge2" class="edge">
<title>Node3&#45;&gt;Node2</title>
<path fill="none" stroke="#404040" d="M225.19,-584.25C225.11,-544.15 229.14,-468.58 257,-412 259.37,-407.19 262.07,-402.46 265.01,-397.84"/>
<polygon fill="none" stroke="#404040" points="265.04,-397.79 265.13,-390.58 271.82,-387.9 271.73,-395.11 265.04,-397.79"/>
<text text-anchor="middle" x="285" y="-486.5" font-family="Helvetica,sans-Serif" font-size="10.00"> #settings_</text>
</g>
<!-- Node8 -->
<g id="node8" class="node">
<title>Node8</title>
<g id="a_node8"><a xlink:href="structsignal__easel_1_1sstv_1_1Settings.html" target="_top" xlink:title="Settings for SSTV modulation.">
<polygon fill="none" stroke="black" points="129,-281.5 129,-349.5 233,-349.5 233,-281.5 129,-281.5"/>
<text text-anchor="start" x="137" y="-337.5" font-family="Helvetica,sans-Serif" font-size="10.00">signal_easel::sstv</text>
<text text-anchor="middle" x="181" y="-326.5" font-family="Helvetica,sans-Serif" font-size="10.00">::Settings</text>
<polyline fill="none" stroke="black" points="129,-319.5 233,-319.5 "/>
<text text-anchor="middle" x="181" y="-307.5" font-family="Helvetica,sans-Serif" font-size="10.00"> </text>
<polyline fill="none" stroke="black" points="129,-300.5 233,-300.5 "/>
<text text-anchor="middle" x="181" y="-288.5" font-family="Helvetica,sans-Serif" font-size="10.00"> </text>
</a>
</g>
</g>
<!-- Node3&#45;&gt;Node8 -->
<g id="edge9" class="edge">
<title>Node3&#45;&gt;Node8</title>
<path fill="none" stroke="midnightblue" d="M220.25,-574.23C211.38,-516.03 194.53,-405.33 186.09,-349.89"/>
<polygon fill="none" stroke="midnightblue" points="216.84,-575.11 221.81,-584.47 223.76,-574.05 216.84,-575.11"/>
</g>
<!-- Node4 -->
<g id="node4" class="node">
<title>Node4</title>
<g id="a_node4"><a xlink:title=" ">
<polygon fill="none" stroke="black" points="11,-711.5 11,-768.5 55,-768.5 55,-711.5 11,-711.5"/>
<text text-anchor="middle" x="33" y="-756.5" font-family="Helvetica,sans-Serif" font-size="10.00">string</text>
<polyline fill="none" stroke="black" points="11,-749.5 55,-749.5 "/>
<text text-anchor="middle" x="33" y="-737.5" font-family="Helvetica,sans-Serif" font-size="10.00"> </text>
<polyline fill="none" stroke="black" points="11,-730.5 55,-730.5 "/>
<text text-anchor="middle" x="33" y="-718.5" font-family="Helvetica,sans-Serif" font-size="10.00"> </text>
</a>
</g>
</g>
<!-- Node4&#45;&gt;Node3 -->
<g id="edge3" class="edge">
<title>Node4&#45;&gt;Node3</title>
<path fill="none" stroke="#404040" d="M33.96,-711.39C36.06,-694.18 41.68,-672.91 56,-660 86.62,-632.39 108.37,-650.81 152.55,-642.02"/>
<polygon fill="none" stroke="#404040" points="152.63,-642.01 157.51,-636.7 164.29,-639.16 159.41,-644.47 152.63,-642.01"/>
<text text-anchor="middle" x="83.5" y="-674" font-family="Helvetica,sans-Serif" font-size="10.00"> +call_sign</text>
</g>
<!-- Node5 -->
<g id="node5" class="node">
<title>Node5</title>
<g id="a_node5"><a xlink:title=" ">
<polygon fill="none" stroke="black" points="73.5,-711.5 73.5,-768.5 156.5,-768.5 156.5,-711.5 73.5,-711.5"/>
<text text-anchor="middle" x="115" y="-756.5" font-family="Helvetica,sans-Serif" font-size="10.00">CallSignMode</text>
<polyline fill="none" stroke="black" points="73.5,-749.5 156.5,-749.5 "/>
<text text-anchor="middle" x="115" y="-737.5" font-family="Helvetica,sans-Serif" font-size="10.00"> </text>
<polyline fill="none" stroke="black" points="73.5,-730.5 156.5,-730.5 "/>
<text text-anchor="middle" x="115" y="-718.5" font-family="Helvetica,sans-Serif" font-size="10.00"> </text>
</a>
</g>
</g>
<!-- Node5&#45;&gt;Node3 -->
<g id="edge4" class="edge">
<title>Node5&#45;&gt;Node3</title>
<path fill="none" stroke="#404040" d="M112.99,-711.29C113.21,-694.89 116.1,-674.54 127,-660 129.28,-656.96 139.82,-651.33 153.23,-645.01"/>
<polygon fill="none" stroke="#404040" points="153.59,-644.84 157.38,-638.7 164.5,-639.84 160.72,-645.97 153.59,-644.84"/>
<text text-anchor="middle" x="171" y="-674" font-family="Helvetica,sans-Serif" font-size="10.00"> +call_sign_mode</text>
</g>
<!-- Node6 -->
<g id="node6" class="node">
<title>Node6</title>
<g id="a_node6"><a xlink:title=" ">
<polygon fill="none" stroke="black" points="302,-711.5 302,-768.5 352,-768.5 352,-711.5 302,-711.5"/>
<text text-anchor="middle" x="327" y="-756.5" font-family="Helvetica,sans-Serif" font-size="10.00">double</text>
<polyline fill="none" stroke="black" points="302,-749.5 352,-749.5 "/>
<text text-anchor="middle" x="327" y="-737.5" font-family="Helvetica,sans-Serif" font-size="10.00"> </text>
<polyline fill="none" stroke="black" points="302,-730.5 352,-730.5 "/>
<text text-anchor="middle" x="327" y="-718.5" font-family="Helvetica,sans-Serif" font-size="10.00"> </text>
</a>
</g>
</g>
<!-- Node6&#45;&gt;Node1 -->
<g id="edge16" class="edge">
<title>Node6&#45;&gt;Node1</title>
<path fill="none" stroke="#404040" d="M352.19,-736.62C400.84,-730.55 507.29,-709.8 557,-642 680.54,-473.5 488.99,-344.61 611,-175 628.03,-151.33 652.9,-132 677.36,-117.08"/>
<polygon fill="none" stroke="#404040" points="677.45,-117.03 680.6,-110.54 687.8,-110.95 684.65,-117.44 677.45,-117.03"/>
<text text-anchor="middle" x="656.5" y="-558" font-family="Helvetica,sans-Serif" font-size="10.00"> &#45;c_scan_line_time_</text>
<text text-anchor="middle" x="656.5" y="-547" font-family="Helvetica,sans-Serif" font-size="10.00">&#45;porch_frequency_</text>
<text text-anchor="middle" x="656.5" y="-536" font-family="Helvetica,sans-Serif" font-size="10.00">&#45;porch_length_ms_</text>
<text text-anchor="start" x="600" y="-525" font-family="Helvetica,sans-Serif" font-size="10.00">&#45;separation_pulse</text>
<text text-anchor="middle" x="656.5" y="-514" font-family="Helvetica,sans-Serif" font-size="10.00">_length_ms_</text>
<text text-anchor="start" x="600" y="-503" font-family="Helvetica,sans-Serif" font-size="10.00">&#45;sync_porch_frequency</text>
<text text-anchor="middle" x="656.5" y="-492" font-family="Helvetica,sans-Serif" font-size="10.00">_</text>
<text text-anchor="start" x="600" y="-481" font-family="Helvetica,sans-Serif" font-size="10.00">&#45;sync_porch_length</text>
<text text-anchor="middle" x="656.5" y="-470" font-family="Helvetica,sans-Serif" font-size="10.00">_ms_</text>
<text text-anchor="start" x="600" y="-459" font-family="Helvetica,sans-Serif" font-size="10.00">&#45;sync_pulse_frequency</text>
<text text-anchor="middle" x="656.5" y="-448" font-family="Helvetica,sans-Serif" font-size="10.00">_</text>
<text text-anchor="start" x="600" y="-437" font-family="Helvetica,sans-Serif" font-size="10.00">&#45;sync_pulse_length</text>
<text text-anchor="middle" x="656.5" y="-426" font-family="Helvetica,sans-Serif" font-size="10.00">_ms_</text>
<text text-anchor="middle" x="656.5" y="-415" font-family="Helvetica,sans-Serif" font-size="10.00">&#45;y_scan_line_time_</text>
</g>
<!-- Node6&#45;&gt;Node2 -->
<g id="edge7" class="edge">
<title>Node6&#45;&gt;Node2</title>
<path fill="none" stroke="#404040" d="M328.38,-711.28C331.41,-650.28 338.77,-502.17 343.57,-405.72"/>
<polygon fill="none" stroke="#404040" points="343.57,-405.63 339.87,-399.43 344.17,-393.64 347.86,-399.83 343.57,-405.63"/>
<text text-anchor="middle" x="384.5" y="-610.5" font-family="Helvetica,sans-Serif" font-size="10.00"> &#45;sine_wave_phase_</text>
</g>
<!-- Node6&#45;&gt;Node3 -->
<g id="edge5" class="edge">
<title>Node6&#45;&gt;Node3</title>
<path fill="none" stroke="#404040" d="M301.94,-735.17C278.12,-730.05 243.55,-718.48 227,-693 219.64,-681.67 217.79,-667.36 218.31,-654.04"/>
<polygon fill="none" stroke="#404040" points="218.35,-653.66 214.9,-647.32 219.43,-641.71 222.87,-648.04 218.35,-653.66"/>
<text text-anchor="middle" x="270" y="-685" font-family="Helvetica,sans-Serif" font-size="10.00"> +amplitude</text>
<text text-anchor="start" x="227" y="-674" font-family="Helvetica,sans-Serif" font-size="10.00">+call_sign_pause</text>
<text text-anchor="middle" x="270" y="-663" font-family="Helvetica,sans-Serif" font-size="10.00">_seconds</text>
</g>
<!-- Node7 -->
<g id="node7" class="node">
<title>Node7</title>
<g id="a_node7"><a xlink:title=" ">
<polygon fill="none" stroke="black" points="444,-584.5 444,-641.5 548,-641.5 548,-584.5 444,-584.5"/>
<text text-anchor="middle" x="496" y="-629.5" font-family="Helvetica,sans-Serif" font-size="10.00">vector&lt; int16_t &gt;</text>
<polyline fill="none" stroke="black" points="444,-622.5 548,-622.5 "/>
<text text-anchor="middle" x="496" y="-610.5" font-family="Helvetica,sans-Serif" font-size="10.00"> </text>
<polyline fill="none" stroke="black" points="444,-603.5 548,-603.5 "/>
<text text-anchor="middle" x="496" y="-591.5" font-family="Helvetica,sans-Serif" font-size="10.00"> </text>
</a>
</g>
</g>
<!-- Node7&#45;&gt;Node2 -->
<g id="edge6" class="edge">
<title>Node7&#45;&gt;Node2</title>
<path fill="none" stroke="#404040" d="M482.21,-584.47C461.83,-543.78 422.78,-465.8 392.03,-404.41"/>
<polygon fill="none" stroke="#404040" points="391.96,-404.28 385.7,-400.7 386.59,-393.55 392.85,-397.12 391.96,-404.28"/>
<text text-anchor="middle" x="511" y="-486.5" font-family="Helvetica,sans-Serif" font-size="10.00"> #audio_buffer_</text>
</g>
<!-- Node8&#45;&gt;Node1 -->
<g id="edge8" class="edge">
<title>Node8&#45;&gt;Node1</title>
<path fill="none" stroke="#404040" d="M210.03,-281.42C224.7,-266.27 243.5,-249.05 263,-237 395.1,-155.38 573.43,-112.3 676.04,-92.85"/>
<polygon fill="none" stroke="#404040" points="676.07,-92.84 681.23,-87.81 687.86,-90.65 682.7,-95.68 676.07,-92.84"/>
<text text-anchor="middle" x="403" y="-194.5" font-family="Helvetica,sans-Serif" font-size="10.00"> &#45;settings_</text>
</g>
<!-- Node9 -->
<g id="node9" class="node">
<title>Node9</title>
<g id="a_node9"><a xlink:title=" ">
<polygon fill="none" stroke="black" points="81.5,-584.5 81.5,-641.5 146.5,-641.5 146.5,-584.5 81.5,-584.5"/>
<text text-anchor="middle" x="114" y="-629.5" font-family="Helvetica,sans-Serif" font-size="10.00">SstvMode</text>
<polyline fill="none" stroke="black" points="81.5,-622.5 146.5,-622.5 "/>
<text text-anchor="middle" x="114" y="-610.5" font-family="Helvetica,sans-Serif" font-size="10.00"> </text>
<polyline fill="none" stroke="black" points="81.5,-603.5 146.5,-603.5 "/>
<text text-anchor="middle" x="114" y="-591.5" font-family="Helvetica,sans-Serif" font-size="10.00"> </text>
</a>
</g>
</g>
<!-- Node9&#45;&gt;Node8 -->
<g id="edge10" class="edge">
<title>Node9&#45;&gt;Node8</title>
<path fill="none" stroke="#404040" d="M118.3,-584.3C124.54,-545.51 137.01,-472.92 152,-412 156.09,-395.37 161.34,-377.36 166.25,-361.5"/>
<polygon fill="none" stroke="#404040" points="166.32,-361.29 164.3,-354.37 169.92,-349.85 171.93,-356.77 166.32,-361.29"/>
<text text-anchor="middle" x="172" y="-486.5" font-family="Helvetica,sans-Serif" font-size="10.00"> +mode</text>
</g>
<!-- Node10 -->
<g id="node10" class="node">
<title>Node10</title>
<g id="a_node10"><a xlink:title=" ">
<polygon fill="none" stroke="black" points="0,-584.5 0,-641.5 38,-641.5 38,-584.5 0,-584.5"/>
<text text-anchor="middle" x="19" y="-629.5" font-family="Helvetica,sans-Serif" font-size="10.00">bool</text>
<polyline fill="none" stroke="black" points="0,-622.5 38,-622.5 "/>
<text text-anchor="middle" x="19" y="-610.5" font-family="Helvetica,sans-Serif" font-size="10.00"> </text>
<polyline fill="none" stroke="black" points="0,-603.5 38,-603.5 "/>
<text text-anchor="middle" x="19" y="-591.5" font-family="Helvetica,sans-Serif" font-size="10.00"> </text>
</a>
</g>
</g>
<!-- Node10&#45;&gt;Node8 -->
<g id="edge11" class="edge">
<title>Node10&#45;&gt;Node8</title>
<path fill="none" stroke="#404040" d="M11.27,-584.26C1.59,-543.49 -10.22,-466.35 21,-412 41.86,-375.68 82.55,-351.67 117.68,-336.8"/>
<polygon fill="none" stroke="#404040" points="117.73,-336.79 121.79,-330.83 128.85,-332.3 124.79,-338.25 117.73,-336.79"/>
<text text-anchor="middle" x="69.5" y="-486.5" font-family="Helvetica,sans-Serif" font-size="10.00"> +overlay_call_sign</text>
</g>
<!-- Node11 -->
<g id="node11" class="node">
<title>Node11</title>
<g id="a_node11"><a xlink:title=" ">
<polygon fill="none" stroke="black" points="604,-287 604,-344 648,-344 648,-287 604,-287"/>
<text text-anchor="middle" x="626" y="-332" font-family="Helvetica,sans-Serif" font-size="10.00">Mode</text>
<polyline fill="none" stroke="black" points="604,-325 648,-325 "/>
<text text-anchor="middle" x="626" y="-313" font-family="Helvetica,sans-Serif" font-size="10.00"> </text>
<polyline fill="none" stroke="black" points="604,-306 648,-306 "/>
<text text-anchor="middle" x="626" y="-294" font-family="Helvetica,sans-Serif" font-size="10.00"> </text>
</a>
</g>
</g>
<!-- Node11&#45;&gt;Node1 -->
<g id="edge12" class="edge">
<title>Node11&#45;&gt;Node1</title>
<path fill="none" stroke="#404040" d="M619.49,-286.81C614.08,-257.34 609.86,-210.2 628,-175 639.19,-153.28 657.86,-135.27 677.6,-120.96"/>
<polygon fill="none" stroke="#404040" points="677.79,-120.84 680.46,-114.14 687.67,-114.03 685,-120.73 677.79,-120.84"/>
<text text-anchor="middle" x="691" y="-194.5" font-family="Helvetica,sans-Serif" font-size="10.00"> &#45;sstv_image_tools_mode</text>
</g>
<!-- Node12 -->
<g id="node12" class="node">
<title>Node12</title>
<g id="a_node12"><a xlink:title=" ">
<polygon fill="none" stroke="black" points="719.5,-287 719.5,-344 796.5,-344 796.5,-287 719.5,-287"/>
<text text-anchor="middle" x="758" y="-332" font-family="Helvetica,sans-Serif" font-size="10.00">ColorFormat</text>
<polyline fill="none" stroke="black" points="719.5,-325 796.5,-325 "/>
<text text-anchor="middle" x="758" y="-313" font-family="Helvetica,sans-Serif" font-size="10.00"> </text>
<polyline fill="none" stroke="black" points="719.5,-306 796.5,-306 "/>
<text text-anchor="middle" x="758" y="-294" font-family="Helvetica,sans-Serif" font-size="10.00"> </text>
</a>
</g>
</g>
<!-- Node12&#45;&gt;Node1 -->
<g id="edge13" class="edge">
<title>Node12&#45;&gt;Node1</title>
<path fill="none" stroke="#404040" d="M758,-286.62C758,-257.63 758,-210.71 758,-168.86"/>
<polygon fill="none" stroke="#404040" points="758,-168.64 754,-162.64 758,-156.64 762,-162.64 758,-168.64"/>
<text text-anchor="middle" x="795.5" y="-194.5" font-family="Helvetica,sans-Serif" font-size="10.00"> &#45;color_format_</text>
</g>
<!-- Node13 -->
<g id="node13" class="node">
<title>Node13</title>
<g id="a_node13"><a xlink:title=" ">
<polygon fill="none" stroke="black" points="828,-287 828,-344 884,-344 884,-287 828,-287"/>
<text text-anchor="middle" x="856" y="-332" font-family="Helvetica,sans-Serif" font-size="10.00">uint32_t</text>
<polyline fill="none" stroke="black" points="828,-325 884,-325 "/>
<text text-anchor="middle" x="856" y="-313" font-family="Helvetica,sans-Serif" font-size="10.00"> </text>
<polyline fill="none" stroke="black" points="828,-306 884,-306 "/>
<text text-anchor="middle" x="856" y="-294" font-family="Helvetica,sans-Serif" font-size="10.00"> </text>
</a>
</g>
</g>
<!-- Node13&#45;&gt;Node1 -->
<g id="edge14" class="edge">
<title>Node13&#45;&gt;Node1</title>
<path fill="none" stroke="#404040" d="M855.76,-286.86C854.58,-257.85 850.04,-211.47 834,-175 832.85,-172.38 831.61,-169.77 830.29,-167.18"/>
<polygon fill="none" stroke="#404040" points="830.27,-167.14 823.86,-163.83 824.47,-156.64 830.87,-159.96 830.27,-167.14"/>
<text text-anchor="middle" x="883.5" y="-200" font-family="Helvetica,sans-Serif" font-size="10.00"> &#45;line_width_</text>
<text text-anchor="middle" x="883.5" y="-189" font-family="Helvetica,sans-Serif" font-size="10.00">&#45;num_of_lines_</text>
</g>
<!-- Node14 -->
<g id="node14" class="node">
<title>Node14</title>
<g id="a_node14"><a xlink:title=" ">
<polygon fill="none" stroke="black" points="929,-287 929,-344 979,-344 979,-287 929,-287"/>
<text text-anchor="middle" x="954" y="-332" font-family="Helvetica,sans-Serif" font-size="10.00">uint8_t</text>
<polyline fill="none" stroke="black" points="929,-325 979,-325 "/>
<text text-anchor="middle" x="954" y="-313" font-family="Helvetica,sans-Serif" font-size="10.00"> </text>
<polyline fill="none" stroke="black" points="929,-306 979,-306 "/>
<text text-anchor="middle" x="954" y="-294" font-family="Helvetica,sans-Serif" font-size="10.00"> </text>
</a>
</g>
</g>
<!-- Node14&#45;&gt;Node1 -->
<g id="edge15" class="edge">
<title>Node14&#45;&gt;Node1</title>
<path fill="none" stroke="#404040" d="M954.71,-286.94C954.13,-256.72 949.06,-208.12 925,-175 903.67,-145.63 870.35,-123.98 839.06,-108.8"/>
<polygon fill="none" stroke="#404040" points="838.99,-108.76 831.86,-109.85 828.11,-103.69 835.24,-102.6 838.99,-108.76"/>
<text text-anchor="middle" x="971.5" y="-194.5" font-family="Helvetica,sans-Serif" font-size="10.00"> &#45;vis_code_</text>
</g>
<!-- Node15 -->
<g id="node15" class="node">
<title>Node15</title>
<g id="a_node15"><a xlink:title=" ">
<polygon fill="none" stroke="black" points="1017.5,-287 1017.5,-344 1046.5,-344 1046.5,-287 1017.5,-287"/>
<text text-anchor="middle" x="1032" y="-332" font-family="Helvetica,sans-Serif" font-size="10.00">int</text>
<polyline fill="none" stroke="black" points="1017.5,-325 1046.5,-325 "/>
<text text-anchor="middle" x="1032" y="-313" font-family="Helvetica,sans-Serif" font-size="10.00"> </text>
<polyline fill="none" stroke="black" points="1017.5,-306 1046.5,-306 "/>
<text text-anchor="middle" x="1032" y="-294" font-family="Helvetica,sans-Serif" font-size="10.00"> </text>
</a>
</g>
</g>
<!-- Node15&#45;&gt;Node1 -->
<g id="edge17" class="edge">
<title>Node15&#45;&gt;Node1</title>
<path fill="none" stroke="#404040" d="M1033.6,-286.8C1033.86,-256 1029.6,-206.45 1003,-175 962.3,-126.88 894.24,-102.88 840.17,-90.99"/>
<polygon fill="none" stroke="#404040" points="839.91,-90.94 833.22,-93.63 828.16,-88.49 834.85,-85.8 839.91,-90.94"/>
<text text-anchor="start" x="1024" y="-211" font-family="Helvetica,sans-Serif" font-size="10.00"> &#45;even_separation_pulse</text>
<text text-anchor="middle" x="1084" y="-200" font-family="Helvetica,sans-Serif" font-size="10.00">_frequency_</text>
<text text-anchor="start" x="1024" y="-189" font-family="Helvetica,sans-Serif" font-size="10.00">&#45;odd_separation_pulse</text>
<text text-anchor="middle" x="1084" y="-178" font-family="Helvetica,sans-Serif" font-size="10.00">_frequency_</text>
</g>
<!-- Node16 -->
<g id="node16" class="node">
<title>Node16</title>
<g id="a_node16"><a xlink:title=" ">
<polygon fill="none" stroke="black" points="1103.5,-281.5 1103.5,-349.5 1246.5,-349.5 1246.5,-281.5 1103.5,-281.5"/>
<text text-anchor="start" x="1111.5" y="-337.5" font-family="Helvetica,sans-Serif" font-size="10.00">vector&lt; signal_easel</text>
<text text-anchor="middle" x="1175" y="-326.5" font-family="Helvetica,sans-Serif" font-size="10.00">::sstv::Modulator::YCbCr &gt;</text>
<polyline fill="none" stroke="black" points="1103.5,-319.5 1246.5,-319.5 "/>
<text text-anchor="middle" x="1175" y="-307.5" font-family="Helvetica,sans-Serif" font-size="10.00"> </text>
<polyline fill="none" stroke="black" points="1103.5,-300.5 1246.5,-300.5 "/>
<text text-anchor="middle" x="1175" y="-288.5" font-family="Helvetica,sans-Serif" font-size="10.00"> </text>
</a>
</g>
</g>
<!-- Node16&#45;&gt;Node1 -->
<g id="edge18" class="edge">
<title>Node16&#45;&gt;Node1</title>
<path fill="none" stroke="#404040" d="M1177.98,-281.23C1178.86,-249.75 1174.88,-203.23 1148,-175 1106.25,-131.16 941.63,-102.85 840.08,-89.17"/>
<polygon fill="none" stroke="#404040" points="839.92,-89.15 833.44,-92.33 828.02,-87.58 834.49,-84.4 839.92,-89.15"/>
<text text-anchor="middle" x="1217" y="-194.5" font-family="Helvetica,sans-Serif" font-size="10.00"> &#45;scan_line_buffer_</text>
</g>
</g>
</svg>
