<?xml version="1.0" encoding="UTF-8" standalone="no"?>
<!DOCTYPE svg PUBLIC "-//W3C//DTD SVG 1.1//EN"
 "http://www.w3.org/Graphics/SVG/1.1/DTD/svg11.dtd">
<!-- Generated by graphviz version 2.43.0 (0)
 -->
<!-- Title: signal_easel::aprs::telemetry::TelemetryData::setTelemetryStationAddress Pages: 1 -->
<svg width="728pt" height="116pt"
 viewBox="0.00 0.00 728.00 116.00" xmlns="http://www.w3.org/2000/svg" xmlns:xlink="http://www.w3.org/1999/xlink">
<g id="graph0" class="graph" transform="scale(1 1) rotate(0) translate(4 112)">
<title>signal_easel::aprs::telemetry::TelemetryData::setTelemetryStationAddress</title>
<!-- Node1 -->
<g id="node1" class="node">
<title>Node1</title>
<g id="a_node1"><a xlink:title="Set the address of the station that is sending the telemetry data for use in the parameter name,...">
<polygon fill="#bfbfbf" stroke="black" points="560,-22 560,-63 720,-63 720,-22 560,-22"/>
<text text-anchor="start" x="568" y="-51" font-family="Helvetica,sans-Serif" font-size="10.00">signal_easel::aprs</text>
<text text-anchor="start" x="568" y="-40" font-family="Helvetica,sans-Serif" font-size="10.00">::telemetry::TelemetryData</text>
<text text-anchor="middle" x="640" y="-29" font-family="Helvetica,sans-Serif" font-size="10.00">::setTelemetryStationAddress</text>
</a>
</g>
</g>
<!-- Node2 -->
<g id="node2" class="node">
<title>Node2</title>
<g id="a_node2"><a xlink:href="classsignal__easel_1_1aprs_1_1telemetry_1_1TelemetryTranscoder.html#a8728ebd6e5dbd7ca50a219fda62b7375" target="_top" xlink:title="Takes in the information field of an APRS telemetry message and decodes it with the appropriate metho...">
<polygon fill="none" stroke="black" points="347,-50 347,-91 524,-91 524,-50 347,-50"/>
<text text-anchor="start" x="355" y="-79" font-family="Helvetica,sans-Serif" font-size="10.00">signal_easel::aprs</text>
<text text-anchor="start" x="355" y="-68" font-family="Helvetica,sans-Serif" font-size="10.00">::telemetry::TelemetryTranscoder</text>
<text text-anchor="middle" x="435.5" y="-57" font-family="Helvetica,sans-Serif" font-size="10.00">::decodeMessage</text>
</a>
</g>
</g>
<!-- Node1&#45;&gt;Node2 -->
<g id="edge1" class="edge">
<title>Node1&#45;&gt;Node2</title>
<path fill="none" stroke="midnightblue" d="M549.93,-54.82C541.43,-55.99 532.81,-57.18 524.32,-58.36"/>
<polygon fill="midnightblue" stroke="midnightblue" points="550.41,-58.28 559.84,-53.45 549.45,-51.35 550.41,-58.28"/>
</g>
<!-- Node6 -->
<g id="node6" class="node">
<title>Node6</title>
<g id="a_node6"><a xlink:href="classTelemetryTranscoder__test.html#a920bd6e467cad92332441c794ecacb5a" target="_top" xlink:title=" ">
<polygon fill="none" stroke="black" points="376.5,-0.5 376.5,-30.5 494.5,-30.5 494.5,-0.5 376.5,-0.5"/>
<text text-anchor="start" x="384.5" y="-18.5" font-family="Helvetica,sans-Serif" font-size="10.00">TelemetryTranscoder</text>
<text text-anchor="middle" x="435.5" y="-7.5" font-family="Helvetica,sans-Serif" font-size="10.00">_test::SetUp</text>
</a>
</g>
</g>
<!-- Node1&#45;&gt;Node6 -->
<g id="edge5" class="edge">
<title>Node1&#45;&gt;Node6</title>
<path fill="none" stroke="midnightblue" d="M549.82,-30.61C531.1,-28.11 511.83,-25.54 494.61,-23.25"/>
<polygon fill="midnightblue" stroke="midnightblue" points="549.46,-34.09 559.84,-31.95 550.39,-27.15 549.46,-34.09"/>
</g>
<!-- Node3 -->
<g id="node3" class="node">
<title>Node3</title>
<g id="a_node3"><a xlink:href="classsignal__easel_1_1aprs_1_1Demodulator.html#a97af61f7afb63db275020ba523abcc3a" target="_top" xlink:title="If the packet was a telemetry packet, this function will try to parse the packet and populate the tel...">
<polygon fill="none" stroke="black" points="143,-50 143,-91 311,-91 311,-50 143,-50"/>
<text text-anchor="start" x="151" y="-79" font-family="Helvetica,sans-Serif" font-size="10.00">signal_easel::aprs</text>
<text text-anchor="start" x="151" y="-68" font-family="Helvetica,sans-Serif" font-size="10.00">::Demodulator::parseTelemetry</text>
<text text-anchor="middle" x="227" y="-57" font-family="Helvetica,sans-Serif" font-size="10.00">Packet</text>
</a>
</g>
</g>
<!-- Node2&#45;&gt;Node3 -->
<g id="edge2" class="edge">
<title>Node2&#45;&gt;Node3</title>
<path fill="none" stroke="midnightblue" d="M336.86,-70.5C328.25,-70.5 319.58,-70.5 311.11,-70.5"/>
<polygon fill="midnightblue" stroke="midnightblue" points="336.93,-74 346.93,-70.5 336.93,-67 336.93,-74"/>
</g>
<!-- Node4 -->
<g id="node4" class="node">
<title>Node4</title>
<g id="a_node4"><a xlink:href="classsignal__easel_1_1aprs_1_1Receiver.html#afbf7869aceaf2ea7ab0be8b9af16e818" target="_top" xlink:title=" ">
<polygon fill="none" stroke="black" points="0,-77.5 0,-107.5 107,-107.5 107,-77.5 0,-77.5"/>
<text text-anchor="start" x="8" y="-95.5" font-family="Helvetica,sans-Serif" font-size="10.00">signal_easel::aprs</text>
<text text-anchor="middle" x="53.5" y="-84.5" font-family="Helvetica,sans-Serif" font-size="10.00">::Receiver::decode</text>
</a>
</g>
</g>
<!-- Node3&#45;&gt;Node4 -->
<g id="edge3" class="edge">
<title>Node3&#45;&gt;Node4</title>
<path fill="none" stroke="midnightblue" d="M132.83,-82.45C124.05,-83.58 115.37,-84.69 107.17,-85.74"/>
<polygon fill="midnightblue" stroke="midnightblue" points="133.29,-85.92 142.76,-81.18 132.4,-78.98 133.29,-85.92"/>
</g>
<!-- Node5 -->
<g id="node5" class="node">
<title>Node5</title>
<g id="a_node5"><a xlink:href="aprs__test_8cpp.html#a8de4b7853d7e8c5ad2bb05a656082327" target="_top" xlink:title=" ">
<polygon fill="none" stroke="black" points="33,-39 33,-58 74,-58 74,-39 33,-39"/>
<text text-anchor="middle" x="53.5" y="-46" font-family="Helvetica,sans-Serif" font-size="10.00">TEST</text>
</a>
</g>
</g>
<!-- Node3&#45;&gt;Node5 -->
<g id="edge4" class="edge">
<title>Node3&#45;&gt;Node5</title>
<path fill="none" stroke="midnightblue" d="M132.57,-58.51C110.43,-55.68 88.99,-52.92 74.2,-51.03"/>
<polygon fill="midnightblue" stroke="midnightblue" points="132.4,-62.02 142.76,-59.82 133.29,-55.08 132.4,-62.02"/>
</g>
</g>
</svg>
