<?xml version="1.0" encoding="UTF-8" standalone="no"?>
<!DOCTYPE svg PUBLIC "-//W3C//DTD SVG 1.1//EN"
 "http://www.w3.org/Graphics/SVG/1.1/DTD/svg11.dtd">
<!-- Generated by graphviz version 2.43.0 (0)
 -->
<!-- Title: signal_easel::aprs::Demodulator::lookForNextAx25Packet Pages: 1 -->
<svg width="1089pt" height="333pt"
 viewBox="0.00 0.00 1089.00 333.00" xmlns="http://www.w3.org/2000/svg" xmlns:xlink="http://www.w3.org/1999/xlink">
<g id="graph0" class="graph" transform="scale(1 1) rotate(0) translate(4 329)">
<title>signal_easel::aprs::Demodulator::lookForNextAx25Packet</title>
<!-- Node1 -->
<g id="node1" class="node">
<title>Node1</title>
<g id="a_node1"><a xlink:title="Like lookForAx25Packet, but parses a single AX.25 frame from an already NRZI&#45;decoded bit stream....">
<polygon fill="#bfbfbf" stroke="black" points="0,-144 0,-185 152,-185 152,-144 0,-144"/>
<text text-anchor="start" x="8" y="-173" font-family="Helvetica,sans-Serif" font-size="10.00">signal_easel::aprs</text>
<text text-anchor="start" x="8" y="-162" font-family="Helvetica,sans-Serif" font-size="10.00">::Demodulator::lookForNext</text>
<text text-anchor="middle" x="76" y="-151" font-family="Helvetica,sans-Serif" font-size="10.00">Ax25Packet</text>
</a>
</g>
</g>
<!-- Node2 -->
<g id="node2" class="node">
<title>Node2</title>
<g id="a_node2"><a xlink:href="namespacesignal__easel_1_1aprs.html#aaee238dfb028415d1bb8604764e23c60" target="_top" xlink:title=" ">
<polygon fill="none" stroke="black" points="212.5,-211.5 212.5,-241.5 325.5,-241.5 325.5,-211.5 212.5,-211.5"/>
<text text-anchor="start" x="220.5" y="-229.5" font-family="Helvetica,sans-Serif" font-size="10.00">signal_easel::aprs</text>
<text text-anchor="middle" x="269" y="-218.5" font-family="Helvetica,sans-Serif" font-size="10.00">::classifyFrameType</text>
</a>
</g>
</g>
<!-- Node1&#45;&gt;Node2 -->
<g id="edge1" class="edge">
<title>Node1&#45;&gt;Node2</title>
<path fill="none" stroke="midnightblue" d="M140.33,-185.06C163.51,-192.58 189.55,-201.03 212.03,-208.33"/>
<polygon fill="midnightblue" stroke="midnightblue" points="211.17,-211.73 221.76,-211.49 213.33,-205.07 211.17,-211.73"/>
</g>
<!-- Node4 -->
<g id="node4" class="node">
<title>Node4</title>
<g id="a_node4"><a xlink:href="classsignal__easel_1_1ax25_1_1Frame.html#a40b07872c291deee87c677459a27c21c" target="_top" xlink:title="Attempt to parse a single AX.25 frame from an already NRZI&#45;decoded bit stream. Unlike parseBitStream,...">
<polygon fill="none" stroke="black" points="188,-117 188,-158 350,-158 350,-117 188,-117"/>
<text text-anchor="start" x="196" y="-146" font-family="Helvetica,sans-Serif" font-size="10.00">signal_easel::ax25</text>
<text text-anchor="start" x="196" y="-135" font-family="Helvetica,sans-Serif" font-size="10.00">::Frame::parseNrziDecodedBit</text>
<text text-anchor="middle" x="269" y="-124" font-family="Helvetica,sans-Serif" font-size="10.00">Stream</text>
</a>
</g>
</g>
<!-- Node1&#45;&gt;Node4 -->
<g id="edge3" class="edge">
<title>Node1&#45;&gt;Node4</title>
<path fill="none" stroke="midnightblue" d="M152.21,-153.87C160.62,-152.68 169.24,-151.46 177.81,-150.25"/>
<polygon fill="midnightblue" stroke="midnightblue" points="178.41,-153.7 187.82,-148.83 177.43,-146.77 178.41,-153.7"/>
</g>
<!-- Node3 -->
<g id="node3" class="node">
<title>Node3</title>
<g id="a_node3"><a xlink:href="classsignal__easel_1_1ax25_1_1Frame.html#ad902c58dd3b47ed11d64057409b36603" target="_top" xlink:title=" ">
<polygon fill="none" stroke="black" points="405,-245.5 405,-275.5 537,-275.5 537,-245.5 405,-245.5"/>
<text text-anchor="start" x="413" y="-263.5" font-family="Helvetica,sans-Serif" font-size="10.00">signal_easel::ax25</text>
<text text-anchor="middle" x="471" y="-252.5" font-family="Helvetica,sans-Serif" font-size="10.00">::Frame::getInformation</text>
</a>
</g>
</g>
<!-- Node2&#45;&gt;Node3 -->
<g id="edge2" class="edge">
<title>Node2&#45;&gt;Node3</title>
<path fill="none" stroke="midnightblue" d="M325.71,-235.97C347.06,-239.6 371.77,-243.8 394.66,-247.69"/>
<polygon fill="midnightblue" stroke="midnightblue" points="394.23,-251.17 404.68,-249.4 395.4,-244.27 394.23,-251.17"/>
</g>
<!-- Node5 -->
<g id="node5" class="node">
<title>Node5</title>
<g id="a_node5"><a xlink:href="classsignal__easel_1_1ax25_1_1Frame.html#af86d4b534367a8faf6b628301c9ffceb" target="_top" xlink:title=" ">
<polygon fill="none" stroke="black" points="390.5,-0.5 390.5,-30.5 551.5,-30.5 551.5,-0.5 390.5,-0.5"/>
<text text-anchor="start" x="398.5" y="-18.5" font-family="Helvetica,sans-Serif" font-size="10.00">signal_easel::ax25</text>
<text text-anchor="middle" x="471" y="-7.5" font-family="Helvetica,sans-Serif" font-size="10.00">::Frame::addRepeaterAddress</text>
</a>
</g>
</g>
<!-- Node4&#45;&gt;Node5 -->
<g id="edge4" class="edge">
<title>Node4&#45;&gt;Node5</title>
<path fill="none" stroke="midnightblue" d="M289,-116.91C310.52,-94.76 347.62,-59.97 386,-39.5 389.51,-37.63 393.19,-35.89 396.96,-34.27"/>
<polygon fill="midnightblue" stroke="midnightblue" points="398.46,-37.44 406.47,-30.5 395.89,-30.93 398.46,-37.44"/>
</g>
<!-- Node10 -->
<g id="node10" class="node">
<title>Node10</title>
<g id="a_node10"><a xlink:href="namespacesignal__easel_1_1ax25.html#aa3ad759477950552b79497f19c77ba0b" target="_top" xlink:title=" ">
<polygon fill="none" stroke="black" points="417.5,-196.5 417.5,-226.5 524.5,-226.5 524.5,-196.5 417.5,-196.5"/>
<text text-anchor="start" x="425.5" y="-214.5" font-family="Helvetica,sans-Serif" font-size="10.00">signal_easel::ax25</text>
<text text-anchor="middle" x="471" y="-203.5" font-family="Helvetica,sans-Serif" font-size="10.00">::deStuffBytes</text>
</a>
</g>
</g>
<!-- Node4&#45;&gt;Node10 -->
<g id="edge9" class="edge">
<title>Node4&#45;&gt;Node10</title>
<path fill="none" stroke="midnightblue" d="M314.08,-158.09C335.53,-167.69 361.83,-178.88 386,-187.5 392.87,-189.95 400.13,-192.33 407.39,-194.58"/>
<polygon fill="midnightblue" stroke="midnightblue" points="406.66,-198.01 417.24,-197.55 408.68,-191.31 406.66,-198.01"/>
</g>
<!-- Node15 -->
<g id="node15" class="node">
<title>Node15</title>
<g id="a_node15"><a xlink:href="namespacesignal__easel_1_1ax25.html#aedc3a21287bb20d2f0b01c9a2d6797f3" target="_top" xlink:title="Finds the start flags in the bit stream and removes them.">
<polygon fill="none" stroke="black" points="417.5,-147.5 417.5,-177.5 524.5,-177.5 524.5,-147.5 417.5,-147.5"/>
<text text-anchor="start" x="425.5" y="-165.5" font-family="Helvetica,sans-Serif" font-size="10.00">signal_easel::ax25</text>
<text text-anchor="middle" x="471" y="-154.5" font-family="Helvetica,sans-Serif" font-size="10.00">::findStartFlags</text>
</a>
</g>
</g>
<!-- Node4&#45;&gt;Node15 -->
<g id="edge14" class="edge">
<title>Node4&#45;&gt;Node15</title>
<path fill="none" stroke="midnightblue" d="M350.2,-147.52C369.18,-149.9 389.16,-152.39 407.24,-154.65"/>
<polygon fill="midnightblue" stroke="midnightblue" points="407,-158.15 417.35,-155.92 407.87,-151.21 407,-158.15"/>
</g>
<!-- Node17 -->
<g id="node17" class="node">
<title>Node17</title>
<g id="a_node17"><a xlink:href="classsignal__easel_1_1ax25_1_1Frame.html#a57b163ece54317da8d95f3b18b47c23d" target="_top" xlink:title="setters/getters for the frame.">
<polygon fill="none" stroke="black" points="386,-98.5 386,-128.5 556,-128.5 556,-98.5 386,-98.5"/>
<text text-anchor="start" x="394" y="-116.5" font-family="Helvetica,sans-Serif" font-size="10.00">signal_easel::ax25</text>
<text text-anchor="middle" x="471" y="-105.5" font-family="Helvetica,sans-Serif" font-size="10.00">::Frame::setDestinationAddress</text>
</a>
</g>
</g>
<!-- Node4&#45;&gt;Node17 -->
<g id="edge18" class="edge">
<title>Node4&#45;&gt;Node17</title>
<path fill="none" stroke="midnightblue" d="M350.2,-127.88C358.63,-126.86 367.26,-125.83 375.84,-124.8"/>
<polygon fill="midnightblue" stroke="midnightblue" points="376.35,-128.26 385.86,-123.6 375.52,-121.31 376.35,-128.26"/>
</g>
<!-- Node18 -->
<g id="node18" class="node">
<title>Node18</title>
<g id="a_node18"><a xlink:href="classsignal__easel_1_1ax25_1_1Frame.html#a402d26a81f82bb5c477e8930b75a771e" target="_top" xlink:title=" ">
<polygon fill="none" stroke="black" points="398,-49.5 398,-79.5 544,-79.5 544,-49.5 398,-49.5"/>
<text text-anchor="start" x="406" y="-67.5" font-family="Helvetica,sans-Serif" font-size="10.00">signal_easel::ax25</text>
<text text-anchor="middle" x="471" y="-56.5" font-family="Helvetica,sans-Serif" font-size="10.00">::Frame::setSourceAddress</text>
</a>
</g>
</g>
<!-- Node4&#45;&gt;Node18 -->
<g id="edge20" class="edge">
<title>Node4&#45;&gt;Node18</title>
<path fill="none" stroke="midnightblue" d="M315.23,-116.89C336.47,-107.6 362.29,-96.86 386,-88.5 391.82,-86.45 397.91,-84.44 404.04,-82.52"/>
<polygon fill="midnightblue" stroke="midnightblue" points="405.14,-85.84 413.67,-79.57 403.09,-79.15 405.14,-85.84"/>
</g>
<!-- Node6 -->
<g id="node6" class="node">
<title>Node6</title>
<g id="a_node6"><a xlink:href="classsignal__easel_1_1ax25_1_1Address.html#a7fa6b0ef4241413893f201660991e4ea" target="_top" xlink:title="Checks if the address is valid, if not throws an exception with a specific error code.">
<polygon fill="none" stroke="black" points="593,-49.5 593,-79.5 723,-79.5 723,-49.5 593,-49.5"/>
<text text-anchor="start" x="601" y="-67.5" font-family="Helvetica,sans-Serif" font-size="10.00">signal_easel::ax25</text>
<text text-anchor="middle" x="658" y="-56.5" font-family="Helvetica,sans-Serif" font-size="10.00">::Address::assertIsValid</text>
</a>
</g>
</g>
<!-- Node5&#45;&gt;Node6 -->
<g id="edge5" class="edge">
<title>Node5&#45;&gt;Node6</title>
<path fill="none" stroke="midnightblue" d="M528.76,-30.53C548.3,-35.71 570.34,-41.55 590.58,-46.91"/>
<polygon fill="midnightblue" stroke="midnightblue" points="589.78,-50.32 600.34,-49.49 591.57,-43.55 589.78,-50.32"/>
</g>
<!-- Node7 -->
<g id="node7" class="node">
<title>Node7</title>
<g id="a_node7"><a xlink:href="classsignal__easel_1_1ax25_1_1Address.html#af34b361f739b7995e7816b7a04465828" target="_top" xlink:title=" ">
<polygon fill="none" stroke="black" points="760,-72 760,-113 925,-113 925,-72 760,-72"/>
<text text-anchor="start" x="768" y="-101" font-family="Helvetica,sans-Serif" font-size="10.00">signal_easel::ax25</text>
<text text-anchor="start" x="768" y="-90" font-family="Helvetica,sans-Serif" font-size="10.00">::Address::assertAddressString</text>
<text text-anchor="middle" x="842.5" y="-79" font-family="Helvetica,sans-Serif" font-size="10.00">IsValid</text>
</a>
</g>
</g>
<!-- Node6&#45;&gt;Node7 -->
<g id="edge6" class="edge">
<title>Node6&#45;&gt;Node7</title>
<path fill="none" stroke="midnightblue" d="M723.09,-74.33C731.74,-75.66 740.76,-77.04 749.78,-78.43"/>
<polygon fill="midnightblue" stroke="midnightblue" points="749.53,-81.93 759.95,-79.99 750.59,-75.01 749.53,-81.93"/>
</g>
<!-- Node8 -->
<g id="node8" class="node">
<title>Node8</title>
<g id="a_node8"><a xlink:href="classsignal__easel_1_1ax25_1_1Address.html#a8b44c6e311d3462bd86eda03c1d384f0" target="_top" xlink:title=" ">
<polygon fill="none" stroke="black" points="767.5,-22.5 767.5,-52.5 917.5,-52.5 917.5,-22.5 767.5,-22.5"/>
<text text-anchor="start" x="775.5" y="-40.5" font-family="Helvetica,sans-Serif" font-size="10.00">signal_easel::ax25</text>
<text text-anchor="middle" x="842.5" y="-29.5" font-family="Helvetica,sans-Serif" font-size="10.00">::Address::assertSsidIsValid</text>
</a>
</g>
</g>
<!-- Node6&#45;&gt;Node8 -->
<g id="edge7" class="edge">
<title>Node6&#45;&gt;Node8</title>
<path fill="none" stroke="midnightblue" d="M723.09,-55.02C734.13,-53.39 745.75,-51.67 757.23,-49.97"/>
<polygon fill="midnightblue" stroke="midnightblue" points="757.88,-53.41 767.26,-48.48 756.86,-46.48 757.88,-53.41"/>
</g>
<!-- Node9 -->
<g id="node9" class="node">
<title>Node9</title>
<g id="a_node9"><a xlink:href="classsignal__easel_1_1ax25_1_1Address.html#ad66c149737cc4aa52ae9e8860176acf3" target="_top" xlink:title=" ">
<polygon fill="none" stroke="black" points="961,-22.5 961,-52.5 1081,-52.5 1081,-22.5 961,-22.5"/>
<text text-anchor="start" x="969" y="-40.5" font-family="Helvetica,sans-Serif" font-size="10.00">signal_easel::ax25</text>
<text text-anchor="middle" x="1021" y="-29.5" font-family="Helvetica,sans-Serif" font-size="10.00">::Address::isSsidValid</text>
</a>
</g>
</g>
<!-- Node8&#45;&gt;Node9 -->
<g id="edge8" class="edge">
<title>Node8&#45;&gt;Node9</title>
<path fill="none" stroke="midnightblue" d="M917.58,-37.5C928.52,-37.5 939.76,-37.5 950.6,-37.5"/>
<polygon fill="midnightblue" stroke="midnightblue" points="950.84,-41 960.84,-37.5 950.84,-34 950.84,-41"/>
</g>
<!-- Node11 -->
<g id="node11" class="node">
<title>Node11</title>
<g id="a_node11"><a xlink:href="classsignal__easel_1_1BitStream.html#aa97152ef51f73088e103a7951134aa85" target="_top" xlink:title=" ">
<polygon fill="none" stroke="black" points="592,-196.5 592,-226.5 724,-226.5 724,-196.5 592,-196.5"/>
<text text-anchor="start" x="600" y="-214.5" font-family="Helvetica,sans-Serif" font-size="10.00">signal_easel::BitStream</text>
<text text-anchor="middle" x="658" y="-203.5" font-family="Helvetica,sans-Serif" font-size="10.00">::getBitStreamLength</text>
</a>
</g>
</g>
<!-- Node10&#45;&gt;Node11 -->
<g id="edge10" class="edge">
<title>Node10&#45;&gt;Node11</title>
<path fill="none" stroke="midnightblue" d="M524.52,-211.5C542.27,-211.5 562.45,-211.5 581.61,-211.5"/>
<polygon fill="midnightblue" stroke="midnightblue" points="581.82,-215 591.82,-211.5 581.82,-208 581.82,-215"/>
</g>
<!-- Node12 -->
<g id="node12" class="node">
<title>Node12</title>
<g id="a_node12"><a xlink:href="classsignal__easel_1_1BitStream.html#ad7b803a89b3a53ec1e4108122861a90b" target="_top" xlink:title="Returns the next bit of the bit stream without removing it.">
<polygon fill="none" stroke="black" points="592,-294.5 592,-324.5 724,-324.5 724,-294.5 592,-294.5"/>
<text text-anchor="start" x="600" y="-312.5" font-family="Helvetica,sans-Serif" font-size="10.00">signal_easel::BitStream</text>
<text text-anchor="middle" x="658" y="-301.5" font-family="Helvetica,sans-Serif" font-size="10.00">::peakNextBit</text>
</a>
</g>
</g>
<!-- Node10&#45;&gt;Node12 -->
<g id="edge11" class="edge">
<title>Node10&#45;&gt;Node12</title>
<path fill="none" stroke="midnightblue" d="M524.6,-221.47C535.59,-225.07 546.67,-229.93 556,-236.5 578.1,-252.05 570.41,-269.24 592,-285.5 593.83,-286.88 595.76,-288.19 597.74,-289.43"/>
<polygon fill="midnightblue" stroke="midnightblue" points="596.35,-292.66 606.8,-294.43 599.74,-286.53 596.35,-292.66"/>
</g>
<!-- Node13 -->
<g id="node13" class="node">
<title>Node13</title>
<g id="a_node13"><a xlink:href="classsignal__easel_1_1BitStream.html#a5b5339586e09ca5c25a7e9ded0118ffb" target="_top" xlink:title="Returns the next bit of the bit stream that will be encoded.">
<polygon fill="none" stroke="black" points="592,-147.5 592,-177.5 724,-177.5 724,-147.5 592,-147.5"/>
<text text-anchor="start" x="600" y="-165.5" font-family="Helvetica,sans-Serif" font-size="10.00">signal_easel::BitStream</text>
<text text-anchor="middle" x="658" y="-154.5" font-family="Helvetica,sans-Serif" font-size="10.00">::popNextBit</text>
</a>
</g>
</g>
<!-- Node10&#45;&gt;Node13 -->
<g id="edge12" class="edge">
<title>Node10&#45;&gt;Node13</title>
<path fill="none" stroke="midnightblue" d="M524.52,-197.59C544.99,-192.17 568.7,-185.89 590.35,-180.15"/>
<polygon fill="midnightblue" stroke="midnightblue" points="591.37,-183.5 600.14,-177.56 589.58,-176.74 591.37,-183.5"/>
</g>
<!-- Node14 -->
<g id="node14" class="node">
<title>Node14</title>
<g id="a_node14"><a xlink:href="namespacesignal__easel_1_1ax25.html#a464aaf0b31941db183dcd08d641a793c" target="_top" xlink:title=" ">
<polygon fill="none" stroke="black" points="604.5,-245.5 604.5,-275.5 711.5,-275.5 711.5,-245.5 604.5,-245.5"/>
<text text-anchor="start" x="612.5" y="-263.5" font-family="Helvetica,sans-Serif" font-size="10.00">signal_easel::ax25</text>
<text text-anchor="middle" x="658" y="-252.5" font-family="Helvetica,sans-Serif" font-size="10.00">::reverse_bits</text>
</a>
</g>
</g>
<!-- Node10&#45;&gt;Node14 -->
<g id="edge13" class="edge">
<title>Node10&#45;&gt;Node14</title>
<path fill="none" stroke="midnightblue" d="M524.52,-225.41C546.29,-231.18 571.73,-237.91 594.46,-243.93"/>
<polygon fill="midnightblue" stroke="midnightblue" points="593.79,-247.38 604.35,-246.55 595.58,-240.61 593.79,-247.38"/>
</g>
<!-- Node15&#45;&gt;Node11 -->
<g id="edge15" class="edge">
<title>Node15&#45;&gt;Node11</title>
<path fill="none" stroke="midnightblue" d="M524.52,-176.41C544.99,-181.83 568.7,-188.11 590.35,-193.85"/>
<polygon fill="midnightblue" stroke="midnightblue" points="589.58,-197.26 600.14,-196.44 591.37,-190.5 589.58,-197.26"/>
</g>
<!-- Node15&#45;&gt;Node13 -->
<g id="edge17" class="edge">
<title>Node15&#45;&gt;Node13</title>
<path fill="none" stroke="midnightblue" d="M524.52,-162.5C542.27,-162.5 562.45,-162.5 581.61,-162.5"/>
<polygon fill="midnightblue" stroke="midnightblue" points="581.82,-166 591.82,-162.5 581.82,-159 581.82,-166"/>
</g>
<!-- Node16 -->
<g id="node16" class="node">
<title>Node16</title>
<g id="a_node16"><a xlink:href="classsignal__easel_1_1BitStream.html#a3212a6021fa0e315170f8654c8e1c103" target="_top" xlink:title=" ">
<polygon fill="none" stroke="black" points="592,-98.5 592,-128.5 724,-128.5 724,-98.5 592,-98.5"/>
<text text-anchor="start" x="600" y="-116.5" font-family="Helvetica,sans-Serif" font-size="10.00">signal_easel::BitStream</text>
<text text-anchor="middle" x="658" y="-105.5" font-family="Helvetica,sans-Serif" font-size="10.00">::peakNextByte</text>
</a>
</g>
</g>
<!-- Node15&#45;&gt;Node16 -->
<g id="edge16" class="edge">
<title>Node15&#45;&gt;Node16</title>
<path fill="none" stroke="midnightblue" d="M524.52,-148.59C544.99,-143.17 568.7,-136.89 590.35,-131.15"/>
<polygon fill="midnightblue" stroke="midnightblue" points="591.37,-134.5 600.14,-128.56 589.58,-127.74 591.37,-134.5"/>
</g>
<!-- Node17&#45;&gt;Node6 -->
<g id="edge19" class="edge">
<title>Node17&#45;&gt;Node6</title>
<path fill="none" stroke="midnightblue" d="M528.76,-98.47C548.3,-93.29 570.34,-87.45 590.58,-82.09"/>
<polygon fill="midnightblue" stroke="midnightblue" points="591.57,-85.45 600.34,-79.51 589.78,-78.68 591.57,-85.45"/>
</g>
<!-- Node18&#45;&gt;Node6 -->
<g id="edge21" class="edge">
<title>Node18&#45;&gt;Node6</title>
<path fill="none" stroke="midnightblue" d="M544.06,-64.5C556.78,-64.5 570.06,-64.5 582.84,-64.5"/>
<polygon fill="midnightblue" stroke="midnightblue" points="582.97,-68 592.97,-64.5 582.97,-61 582.97,-68"/>
</g>
</g>
</svg>
