<?xml version="1.0" encoding="UTF-8" standalone="no"?>
<!DOCTYPE svg PUBLIC "-//W3C//DTD SVG 1.1//EN"
 "http://www.w3.org/Graphics/SVG/1.1/DTD/svg11.dtd">
<!-- Generated by graphviz version 2.43.0 (0)
 -->
<!-- Title: signal_easel::sstv::Modulator::readImageLine Pages: 1 -->
<svg width="608pt" height="50pt"
 viewBox="0.00 0.00 608.00 50.00" xmlns="http://www.w3.org/2000/svg" xmlns:xlink="http://www.w3.org/1999/xlink">
<g id="graph0" class="graph" transform="scale(1 1) rotate(0) translate(4 46)">
<title>signal_easel::sstv::Modulator::readImageLine</title>
<!-- Node1 -->
<g id="node1" class="node">
<title>Node1</title>
<g id="a_node1"><a xlink:title=" ">
<polygon fill="#bfbfbf" stroke="black" points="449,-6 449,-36 600,-36 600,-6 449,-6"/>
<text text-anchor="start" x="457" y="-24" font-family="Helvetica,sans-Serif" font-size="10.00">signal_easel::sstv</text>
<text text-anchor="middle" x="524.5" y="-13" font-family="Helvetica,sans-Serif" font-size="10.00">::Modulator::readImageLine</text>
</a>
</g>
</g>
<!-- Node2 -->
<g id="node2" class="node">
<title>Node2</title>
<g id="a_node2"><a xlink:href="classsignal__easel_1_1sstv_1_1Modulator.html#a5db5191f0447cc4b34fff09fc35c7ffe" target="_top" xlink:title=" ">
<polygon fill="none" stroke="black" points="257,-0.5 257,-41.5 413,-41.5 413,-0.5 257,-0.5"/>
<text text-anchor="start" x="265" y="-29.5" font-family="Helvetica,sans-Serif" font-size="10.00">signal_easel::sstv</text>
<text text-anchor="start" x="265" y="-18.5" font-family="Helvetica,sans-Serif" font-size="10.00">::Modulator::encodeAdjusted</text>
<text text-anchor="middle" x="335" y="-7.5" font-family="Helvetica,sans-Serif" font-size="10.00">Image</text>
</a>
</g>
</g>
<!-- Node1&#45;&gt;Node2 -->
<g id="edge1" class="edge">
<title>Node1&#45;&gt;Node2</title>
<path fill="none" stroke="midnightblue" d="M438.59,-21C430.11,-21 421.54,-21 413.15,-21"/>
<polygon fill="midnightblue" stroke="midnightblue" points="438.86,-24.5 448.86,-21 438.86,-17.5 438.86,-24.5"/>
</g>
<!-- Node3 -->
<g id="node3" class="node">
<title>Node3</title>
<g id="a_node3"><a xlink:href="classsignal__easel_1_1sstv_1_1Modulator.html#a6598802f6a659efde056f846d7eb9d2c" target="_top" xlink:title="Encodes an image into SSTV audio.">
<polygon fill="none" stroke="black" points="77,-6 77,-36 221,-36 221,-6 77,-6"/>
<text text-anchor="start" x="85" y="-24" font-family="Helvetica,sans-Serif" font-size="10.00">signal_easel::sstv</text>
<text text-anchor="middle" x="149" y="-13" font-family="Helvetica,sans-Serif" font-size="10.00">::Modulator::encodeImage</text>
</a>
</g>
</g>
<!-- Node2&#45;&gt;Node3 -->
<g id="edge2" class="edge">
<title>Node2&#45;&gt;Node3</title>
<path fill="none" stroke="midnightblue" d="M246.75,-21C238.18,-21 229.55,-21 221.17,-21"/>
<polygon fill="midnightblue" stroke="midnightblue" points="246.77,-24.5 256.77,-21 246.77,-17.5 246.77,-24.5"/>
</g>
<!-- Node4 -->
<g id="node4" class="node">
<title>Node4</title>
<g id="a_node4"><a xlink:href="sstv__test_8cpp.html#a81c59728812e528beb650e55bb38fd4b" target="_top" xlink:title=" ">
<polygon fill="none" stroke="black" points="0,-11.5 0,-30.5 41,-30.5 41,-11.5 0,-11.5"/>
<text text-anchor="middle" x="20.5" y="-18.5" font-family="Helvetica,sans-Serif" font-size="10.00">TEST</text>
</a>
</g>
</g>
<!-- Node3&#45;&gt;Node4 -->
<g id="edge3" class="edge">
<title>Node3&#45;&gt;Node4</title>
<path fill="none" stroke="midnightblue" d="M66.92,-21C57.43,-21 48.52,-21 41.15,-21"/>
<polygon fill="midnightblue" stroke="midnightblue" points="66.98,-24.5 76.98,-21 66.98,-17.5 66.98,-24.5"/>
</g>
</g>
</svg>
