<?xml version="1.0" encoding="UTF-8" standalone="no"?>
<!DOCTYPE svg PUBLIC "-//W3C//DTD SVG 1.1//EN"
 "http://www.w3.org/Graphics/SVG/1.1/DTD/svg11.dtd">
<!-- Generated by graphviz version 2.43.0 (0)
 -->
<!-- Title: signal_easel::BitStream::addZeroBit Pages: 1 -->
<svg width="756pt" height="190pt"
 viewBox="0.00 0.00 756.00 190.00" xmlns="http://www.w3.org/2000/svg" xmlns:xlink="http://www.w3.org/1999/xlink">
<g id="graph0" class="graph" transform="scale(1 1) rotate(0) translate(4 186)">
<title>signal_easel::BitStream::addZeroBit</title>
<!-- Node1 -->
<g id="node1" class="node">
<title>Node1</title>
<g id="a_node1"><a xlink:title=" ">
<polygon fill="#bfbfbf" stroke="black" points="616,-77.5 616,-107.5 748,-107.5 748,-77.5 616,-77.5"/>
<text text-anchor="start" x="624" y="-95.5" font-family="Helvetica,sans-Serif" font-size="10.00">signal_easel::BitStream</text>
<text text-anchor="middle" x="682" y="-84.5" font-family="Helvetica,sans-Serif" font-size="10.00">::addZeroBit</text>
</a>
</g>
</g>
<!-- Node2 -->
<g id="node2" class="node">
<title>Node2</title>
<g id="a_node2"><a xlink:href="classsignal__easel_1_1psk_1_1Modulator.html#ad465eb5c136ada635cd01cdceb1dc402" target="_top" xlink:title=" ">
<polygon fill="none" stroke="black" points="438,-151.5 438,-181.5 580,-181.5 580,-151.5 438,-151.5"/>
<text text-anchor="start" x="446" y="-169.5" font-family="Helvetica,sans-Serif" font-size="10.00">signal_easel::psk::</text>
<text text-anchor="middle" x="509" y="-158.5" font-family="Helvetica,sans-Serif" font-size="10.00">Modulator::addPostamble</text>
</a>
</g>
</g>
<!-- Node1&#45;&gt;Node2 -->
<g id="edge1" class="edge">
<title>Node1&#45;&gt;Node2</title>
<path fill="none" stroke="midnightblue" d="M644.27,-112.12C625.34,-121.85 601.73,-133.44 580,-142.5 572.53,-145.61 564.5,-148.65 556.63,-151.46"/>
<polygon fill="midnightblue" stroke="midnightblue" points="645.89,-115.22 653.15,-107.5 642.67,-109 645.89,-115.22"/>
</g>
<!-- Node5 -->
<g id="node5" class="node">
<title>Node5</title>
<g id="a_node5"><a xlink:href="classsignal__easel_1_1psk_1_1Modulator.html#a9210187601fe988d188b66ba5ee66a73" target="_top" xlink:title=" ">
<polygon fill="none" stroke="black" points="440.5,-102.5 440.5,-132.5 577.5,-132.5 577.5,-102.5 440.5,-102.5"/>
<text text-anchor="start" x="448.5" y="-120.5" font-family="Helvetica,sans-Serif" font-size="10.00">signal_easel::psk::</text>
<text text-anchor="middle" x="509" y="-109.5" font-family="Helvetica,sans-Serif" font-size="10.00">Modulator::addPreamble</text>
</a>
</g>
</g>
<!-- Node1&#45;&gt;Node5 -->
<g id="edge4" class="edge">
<title>Node1&#45;&gt;Node5</title>
<path fill="none" stroke="midnightblue" d="M605.75,-103.5C596.35,-104.88 586.78,-106.27 577.51,-107.63"/>
<polygon fill="midnightblue" stroke="midnightblue" points="606.48,-106.93 615.86,-102.02 605.46,-100.01 606.48,-106.93"/>
</g>
<!-- Node6 -->
<g id="node6" class="node">
<title>Node6</title>
<g id="a_node6"><a xlink:href="namespacesignal__easel_1_1ax25.html#a84e1d1bf82ef828a150bc94cf065e396" target="_top" xlink:title="Convert a bit stream from NRZI to standard encoding.">
<polygon fill="none" stroke="black" points="455.5,-53.5 455.5,-83.5 562.5,-83.5 562.5,-53.5 455.5,-53.5"/>
<text text-anchor="start" x="463.5" y="-71.5" font-family="Helvetica,sans-Serif" font-size="10.00">signal_easel::ax25</text>
<text text-anchor="middle" x="509" y="-60.5" font-family="Helvetica,sans-Serif" font-size="10.00">::decodeNrzi</text>
</a>
</g>
</g>
<!-- Node1&#45;&gt;Node6 -->
<g id="edge6" class="edge">
<title>Node1&#45;&gt;Node6</title>
<path fill="none" stroke="midnightblue" d="M605.88,-81.96C591.34,-79.92 576.39,-77.82 562.75,-75.9"/>
<polygon fill="midnightblue" stroke="midnightblue" points="605.47,-85.43 615.86,-83.36 606.45,-78.5 605.47,-85.43"/>
</g>
<!-- Node11 -->
<g id="node11" class="node">
<title>Node11</title>
<g id="a_node11"><a xlink:href="classsignal__easel_1_1ax25_1_1Frame.html#a2b4f6ebcb7592a7e5a21114c8fafa503" target="_top" xlink:title="A step beyond buildFrame. This function builds the frame, does the bit stuffing, adds the flags,...">
<polygon fill="none" stroke="black" points="446.5,-4.5 446.5,-34.5 571.5,-34.5 571.5,-4.5 446.5,-4.5"/>
<text text-anchor="start" x="454.5" y="-22.5" font-family="Helvetica,sans-Serif" font-size="10.00">signal_easel::ax25</text>
<text text-anchor="middle" x="509" y="-11.5" font-family="Helvetica,sans-Serif" font-size="10.00">::Frame::encodeFrame</text>
</a>
</g>
</g>
<!-- Node1&#45;&gt;Node11 -->
<g id="edge11" class="edge">
<title>Node1&#45;&gt;Node11</title>
<path fill="none" stroke="midnightblue" d="M643.16,-72.79C624.4,-63.37 601.27,-52.27 580,-43.5 572.52,-40.42 564.48,-37.4 556.61,-34.6"/>
<polygon fill="midnightblue" stroke="midnightblue" points="641.75,-76 652.25,-77.4 644.92,-69.76 641.75,-76"/>
</g>
<!-- Node3 -->
<g id="node3" class="node">
<title>Node3</title>
<g id="a_node3"><a xlink:href="classsignal__easel_1_1psk_1_1Modulator.html#acd4a6a5bac7af1c62ffaaa0ff1d9259f" target="_top" xlink:title=" ">
<polygon fill="none" stroke="black" points="266,-151.5 266,-181.5 402,-181.5 402,-151.5 266,-151.5"/>
<text text-anchor="start" x="274" y="-169.5" font-family="Helvetica,sans-Serif" font-size="10.00">signal_easel::psk::</text>
<text text-anchor="middle" x="334" y="-158.5" font-family="Helvetica,sans-Serif" font-size="10.00">Modulator::encodeString</text>
</a>
</g>
</g>
<!-- Node2&#45;&gt;Node3 -->
<g id="edge2" class="edge">
<title>Node2&#45;&gt;Node3</title>
<path fill="none" stroke="midnightblue" d="M427.41,-166.5C418.99,-166.5 410.48,-166.5 402.23,-166.5"/>
<polygon fill="midnightblue" stroke="midnightblue" points="427.63,-170 437.63,-166.5 427.63,-163 427.63,-170"/>
</g>
<!-- Node4 -->
<g id="node4" class="node">
<title>Node4</title>
<g id="a_node4"><a xlink:href="psk__test_8cpp.html#adc7973e853ae04677ba78e84bda93987" target="_top" xlink:title=" ">
<polygon fill="none" stroke="black" points="133,-157 133,-176 174,-176 174,-157 133,-157"/>
<text text-anchor="middle" x="153.5" y="-164" font-family="Helvetica,sans-Serif" font-size="10.00">TEST</text>
</a>
</g>
</g>
<!-- Node3&#45;&gt;Node4 -->
<g id="edge3" class="edge">
<title>Node3&#45;&gt;Node4</title>
<path fill="none" stroke="midnightblue" d="M255.72,-166.5C225.84,-166.5 194.12,-166.5 174.32,-166.5"/>
<polygon fill="midnightblue" stroke="midnightblue" points="255.77,-170 265.77,-166.5 255.77,-163 255.77,-170"/>
</g>
<!-- Node5&#45;&gt;Node3 -->
<g id="edge5" class="edge">
<title>Node5&#45;&gt;Node3</title>
<path fill="none" stroke="midnightblue" d="M444.82,-135.39C426.22,-140.66 406.05,-146.38 388.14,-151.45"/>
<polygon fill="midnightblue" stroke="midnightblue" points="446.01,-138.69 454.68,-132.6 444.11,-131.96 446.01,-138.69"/>
</g>
<!-- Node7 -->
<g id="node7" class="node">
<title>Node7</title>
<g id="a_node7"><a xlink:href="classsignal__easel_1_1aprs_1_1Receiver.html#afbf7869aceaf2ea7ab0be8b9af16e818" target="_top" xlink:title=" ">
<polygon fill="none" stroke="black" points="280.5,-102.5 280.5,-132.5 387.5,-132.5 387.5,-102.5 280.5,-102.5"/>
<text text-anchor="start" x="288.5" y="-120.5" font-family="Helvetica,sans-Serif" font-size="10.00">signal_easel::aprs</text>
<text text-anchor="middle" x="334" y="-109.5" font-family="Helvetica,sans-Serif" font-size="10.00">::Receiver::decode</text>
</a>
</g>
</g>
<!-- Node6&#45;&gt;Node7 -->
<g id="edge7" class="edge">
<title>Node6&#45;&gt;Node7</title>
<path fill="none" stroke="midnightblue" d="M445.4,-86.23C426.42,-91.61 405.77,-97.45 387.52,-102.62"/>
<polygon fill="midnightblue" stroke="midnightblue" points="446.49,-89.56 455.15,-83.47 444.58,-82.83 446.49,-89.56"/>
</g>
<!-- Node8 -->
<g id="node8" class="node">
<title>Node8</title>
<g id="a_node8"><a xlink:href="classsignal__easel_1_1ax25_1_1Frame.html#a63cf2362c2a90d20f09bbbc4f24a07ba" target="_top" xlink:title="Attempt to parse an incoming bit stream into an AX.25 frame.">
<polygon fill="none" stroke="black" points="266.5,-53.5 266.5,-83.5 401.5,-83.5 401.5,-53.5 266.5,-53.5"/>
<text text-anchor="start" x="274.5" y="-71.5" font-family="Helvetica,sans-Serif" font-size="10.00">signal_easel::ax25</text>
<text text-anchor="middle" x="334" y="-60.5" font-family="Helvetica,sans-Serif" font-size="10.00">::Frame::parseBitStream</text>
</a>
</g>
</g>
<!-- Node6&#45;&gt;Node8 -->
<g id="edge8" class="edge">
<title>Node6&#45;&gt;Node8</title>
<path fill="none" stroke="midnightblue" d="M445.05,-68.5C430.92,-68.5 415.88,-68.5 401.6,-68.5"/>
<polygon fill="midnightblue" stroke="midnightblue" points="445.15,-72 455.15,-68.5 445.15,-65 445.15,-72"/>
</g>
<!-- Node9 -->
<g id="node9" class="node">
<title>Node9</title>
<g id="a_node9"><a xlink:href="classsignal__easel_1_1aprs_1_1Demodulator.html#ae5a8e7634c1bc8d215a0c454a9a737fa" target="_top" xlink:title=" ">
<polygon fill="none" stroke="black" points="77,-50 77,-91 230,-91 230,-50 77,-50"/>
<text text-anchor="start" x="85" y="-79" font-family="Helvetica,sans-Serif" font-size="10.00">signal_easel::aprs</text>
<text text-anchor="start" x="85" y="-68" font-family="Helvetica,sans-Serif" font-size="10.00">::Demodulator::lookForAx25</text>
<text text-anchor="middle" x="153.5" y="-57" font-family="Helvetica,sans-Serif" font-size="10.00">Packet</text>
</a>
</g>
</g>
<!-- Node8&#45;&gt;Node9 -->
<g id="edge9" class="edge">
<title>Node8&#45;&gt;Node9</title>
<path fill="none" stroke="midnightblue" d="M256.22,-69.36C247.58,-69.46 238.77,-69.56 230.14,-69.65"/>
<polygon fill="midnightblue" stroke="midnightblue" points="256.32,-72.86 266.28,-69.25 256.24,-65.86 256.32,-72.86"/>
</g>
<!-- Node10 -->
<g id="node10" class="node">
<title>Node10</title>
<g id="a_node10"><a xlink:href="aprs__test_8cpp.html#aea66d1824e3f1e27598adf99ac6a089a" target="_top" xlink:title=" ">
<polygon fill="none" stroke="black" points="0,-33 0,-52 41,-52 41,-33 0,-33"/>
<text text-anchor="middle" x="20.5" y="-40" font-family="Helvetica,sans-Serif" font-size="10.00">TEST</text>
</a>
</g>
</g>
<!-- Node9&#45;&gt;Node10 -->
<g id="edge10" class="edge">
<title>Node9&#45;&gt;Node10</title>
<path fill="none" stroke="midnightblue" d="M66.67,-52.16C57.26,-50.14 48.46,-48.26 41.18,-46.71"/>
<polygon fill="midnightblue" stroke="midnightblue" points="66.17,-55.63 76.68,-54.29 67.63,-48.78 66.17,-55.63"/>
</g>
<!-- Node12 -->
<g id="node12" class="node">
<title>Node12</title>
<g id="a_node12"><a xlink:href="namespacesignal__easel_1_1aprs.html#a77481001a5b78a839972bb4220b43e4d" target="_top" xlink:title="The base function to encode an APRS packet with the provided base data and info field.">
<polygon fill="none" stroke="black" points="282,-3.5 282,-33.5 386,-33.5 386,-3.5 282,-3.5"/>
<text text-anchor="start" x="290" y="-21.5" font-family="Helvetica,sans-Serif" font-size="10.00">signal_easel::aprs</text>
<text text-anchor="middle" x="334" y="-10.5" font-family="Helvetica,sans-Serif" font-size="10.00">::encodePacket</text>
</a>
</g>
</g>
<!-- Node11&#45;&gt;Node12 -->
<g id="edge12" class="edge">
<title>Node11&#45;&gt;Node12</title>
<path fill="none" stroke="midnightblue" d="M435.74,-19.08C419.03,-18.99 401.59,-18.88 386,-18.79"/>
<polygon fill="midnightblue" stroke="midnightblue" points="436.01,-22.58 446.03,-19.14 436.05,-15.58 436.01,-22.58"/>
</g>
<!-- Node13 -->
<g id="node13" class="node">
<title>Node13</title>
<g id="a_node13"><a xlink:href="classsignal__easel_1_1aprs_1_1Modulator.html#a8ae067701382dec1680b786583ace687" target="_top" xlink:title=" ">
<polygon fill="none" stroke="black" points="97,-0.5 97,-30.5 210,-30.5 210,-0.5 97,-0.5"/>
<text text-anchor="start" x="105" y="-18.5" font-family="Helvetica,sans-Serif" font-size="10.00">signal_easel::aprs</text>
<text text-anchor="middle" x="153.5" y="-7.5" font-family="Helvetica,sans-Serif" font-size="10.00">::Modulator::encode</text>
</a>
</g>
</g>
<!-- Node12&#45;&gt;Node13 -->
<g id="edge13" class="edge">
<title>Node12&#45;&gt;Node13</title>
<path fill="none" stroke="midnightblue" d="M271.61,-17.47C251.62,-17.13 229.57,-16.76 210.03,-16.43"/>
<polygon fill="midnightblue" stroke="midnightblue" points="271.79,-20.97 281.85,-17.64 271.91,-13.97 271.79,-20.97"/>
</g>
<!-- Node13&#45;&gt;Node10 -->
<g id="edge14" class="edge">
<title>Node13&#45;&gt;Node10</title>
<path fill="none" stroke="midnightblue" d="M87.13,-28.97C70.4,-32.42 53.66,-35.87 41.28,-38.42"/>
<polygon fill="midnightblue" stroke="midnightblue" points="87.86,-32.4 96.94,-26.95 86.44,-25.54 87.86,-32.4"/>
</g>
</g>
</svg>
