<?xml version="1.0" encoding="UTF-8" standalone="no"?>
<!DOCTYPE svg PUBLIC "-//W3C//DTD SVG 1.1//EN"
 "http://www.w3.org/Graphics/SVG/1.1/DTD/svg11.dtd">
<!-- Generated by graphviz version 2.43.0 (0)
 -->
<!-- Title: signal_easel::aprs::Modulator::encode Pages: 1 -->
<svg width="1400pt" height="416pt"
 viewBox="0.00 0.00 1400.00 416.00" xmlns="http://www.w3.org/2000/svg" xmlns:xlink="http://www.w3.org/1999/xlink">
<g id="graph0" class="graph" transform="scale(1 1) rotate(0) translate(4 412)">
<title>signal_easel::aprs::Modulator::encode</title>
<!-- Node1 -->
<g id="node1" class="node">
<title>Node1</title>
<g id="a_node1"><a xlink:title=" ">
<polygon fill="#bfbfbf" stroke="black" points="0,-328.5 0,-358.5 113,-358.5 113,-328.5 0,-328.5"/>
<text text-anchor="start" x="8" y="-346.5" font-family="Helvetica,sans-Serif" font-size="10.00">signal_easel::aprs</text>
<text text-anchor="middle" x="56.5" y="-335.5" font-family="Helvetica,sans-Serif" font-size="10.00">::Modulator::encode</text>
</a>
</g>
</g>
<!-- Node2 -->
<g id="node2" class="node">
<title>Node2</title>
<g id="a_node2"><a xlink:href="structsignal__easel_1_1aprs_1_1MessagePacket.html#a2384b4285118df9fdcbd506a8332dc91" target="_top" xlink:title=" ">
<polygon fill="none" stroke="black" points="150,-377.5 150,-407.5 289,-407.5 289,-377.5 150,-377.5"/>
<text text-anchor="start" x="158" y="-395.5" font-family="Helvetica,sans-Serif" font-size="10.00">signal_easel::aprs</text>
<text text-anchor="middle" x="219.5" y="-384.5" font-family="Helvetica,sans-Serif" font-size="10.00">::MessagePacket::encode</text>
</a>
</g>
</g>
<!-- Node1&#45;&gt;Node2 -->
<g id="edge1" class="edge">
<title>Node1&#45;&gt;Node2</title>
<path fill="none" stroke="midnightblue" d="M107.12,-358.6C123.57,-363.61 142.05,-369.23 159.16,-374.44"/>
<polygon fill="midnightblue" stroke="midnightblue" points="158.46,-377.89 169.04,-377.45 160.5,-371.19 158.46,-377.89"/>
</g>
<!-- Node3 -->
<g id="node3" class="node">
<title>Node3</title>
<g id="a_node3"><a xlink:href="classsignal__easel_1_1afsk_1_1Modulator.html#a8e377665e5432ebb66de359635aeeafb" target="_top" xlink:title="This is overridden by the child classes to encode the data that is passed in by addBytes and addStrin...">
<polygon fill="none" stroke="black" points="149,-328.5 149,-358.5 290,-358.5 290,-328.5 149,-328.5"/>
<text text-anchor="start" x="157" y="-346.5" font-family="Helvetica,sans-Serif" font-size="10.00">signal_easel::afsk</text>
<text text-anchor="middle" x="219.5" y="-335.5" font-family="Helvetica,sans-Serif" font-size="10.00">::Modulator::encodeBytes</text>
</a>
</g>
</g>
<!-- Node1&#45;&gt;Node3 -->
<g id="edge2" class="edge">
<title>Node1&#45;&gt;Node3</title>
<path fill="none" stroke="midnightblue" d="M113.36,-343.5C121.58,-343.5 130.19,-343.5 138.78,-343.5"/>
<polygon fill="midnightblue" stroke="midnightblue" points="138.84,-347 148.84,-343.5 138.84,-340 138.84,-347"/>
</g>
<!-- Node8 -->
<g id="node8" class="node">
<title>Node8</title>
<g id="a_node8"><a xlink:href="namespacesignal__easel_1_1aprs.html#a77481001a5b78a839972bb4220b43e4d" target="_top" xlink:title="The base function to encode an APRS packet with the provided base data and info field.">
<polygon fill="none" stroke="black" points="167.5,-213.5 167.5,-243.5 271.5,-243.5 271.5,-213.5 167.5,-213.5"/>
<text text-anchor="start" x="175.5" y="-231.5" font-family="Helvetica,sans-Serif" font-size="10.00">signal_easel::aprs</text>
<text text-anchor="middle" x="219.5" y="-220.5" font-family="Helvetica,sans-Serif" font-size="10.00">::encodePacket</text>
</a>
</g>
</g>
<!-- Node1&#45;&gt;Node8 -->
<g id="edge7" class="edge">
<title>Node1&#45;&gt;Node8</title>
<path fill="none" stroke="midnightblue" d="M78.55,-328.47C106.75,-308.32 156.95,-272.46 188.94,-249.61"/>
<polygon fill="midnightblue" stroke="midnightblue" points="191.34,-252.2 197.45,-243.54 187.28,-246.5 191.34,-252.2"/>
</g>
<!-- Node4 -->
<g id="node4" class="node">
<title>Node4</title>
<g id="a_node4"><a xlink:href="classsignal__easel_1_1Modulator.html#af99ee22156e320703891f0fda4df95e8" target="_top" xlink:title="Add a PCM sample to the audio buffer.">
<polygon fill="none" stroke="black" points="327.5,-377.5 327.5,-407.5 460.5,-407.5 460.5,-377.5 327.5,-377.5"/>
<text text-anchor="start" x="335.5" y="-395.5" font-family="Helvetica,sans-Serif" font-size="10.00">signal_easel::Modulator</text>
<text text-anchor="middle" x="394" y="-384.5" font-family="Helvetica,sans-Serif" font-size="10.00">::addAudioSample</text>
</a>
</g>
</g>
<!-- Node3&#45;&gt;Node4 -->
<g id="edge3" class="edge">
<title>Node3&#45;&gt;Node4</title>
<path fill="none" stroke="midnightblue" d="M273.66,-358.6C291.54,-363.68 311.64,-369.39 330.19,-374.66"/>
<polygon fill="midnightblue" stroke="midnightblue" points="329.44,-378.08 340.01,-377.45 331.35,-371.35 329.44,-378.08"/>
</g>
<!-- Node5 -->
<g id="node5" class="node">
<title>Node5</title>
<g id="a_node5"><a xlink:href="namespacesignal__easel.html#a815178bfbe2aee7cc2e3c74237233e6c" target="_top" xlink:title="Gets the bipolar value of a bit at a given index from a vector of bytes.">
<polygon fill="none" stroke="black" points="326,-328.5 326,-358.5 462,-358.5 462,-328.5 326,-328.5"/>
<text text-anchor="start" x="334" y="-346.5" font-family="Helvetica,sans-Serif" font-size="10.00">signal_easel::getBpBitAt</text>
<text text-anchor="middle" x="394" y="-335.5" font-family="Helvetica,sans-Serif" font-size="10.00">Index</text>
</a>
</g>
</g>
<!-- Node3&#45;&gt;Node5 -->
<g id="edge4" class="edge">
<title>Node3&#45;&gt;Node5</title>
<path fill="none" stroke="midnightblue" d="M290.17,-343.5C298.54,-343.5 307.13,-343.5 315.61,-343.5"/>
<polygon fill="midnightblue" stroke="midnightblue" points="315.87,-347 325.87,-343.5 315.87,-340 315.87,-347"/>
</g>
<!-- Node6 -->
<g id="node6" class="node">
<title>Node6</title>
<g id="a_node6"><a xlink:href="namespacesignal__easel.html#aa81833e925b9f020659999a2a4a82559" target="_top" xlink:title="Converts a bit to it&#39;s bipolar value (0 = 1, 1 = &#45;1)">
<polygon fill="none" stroke="black" points="498,-372 498,-391 663,-391 663,-372 498,-372"/>
<text text-anchor="middle" x="580.5" y="-379" font-family="Helvetica,sans-Serif" font-size="10.00">signal_easel::convertToBipolar</text>
</a>
</g>
</g>
<!-- Node5&#45;&gt;Node6 -->
<g id="edge5" class="edge">
<title>Node5&#45;&gt;Node6</title>
<path fill="none" stroke="midnightblue" d="M462.13,-357.33C482.22,-361.46 504.04,-365.96 523.34,-369.93"/>
<polygon fill="midnightblue" stroke="midnightblue" points="522.69,-373.37 533.19,-371.96 524.1,-366.52 522.69,-373.37"/>
</g>
<!-- Node7 -->
<g id="node7" class="node">
<title>Node7</title>
<g id="a_node7"><a xlink:href="namespacesignal__easel.html#a248ddb36f02c1436acd66c0409189637" target="_top" xlink:title="For reading a byte MSB first.">
<polygon fill="none" stroke="black" points="520,-334 520,-353 641,-353 641,-334 520,-334"/>
<text text-anchor="middle" x="580.5" y="-341" font-family="Helvetica,sans-Serif" font-size="10.00">signal_easel::isBitSet</text>
</a>
</g>
</g>
<!-- Node5&#45;&gt;Node7 -->
<g id="edge6" class="edge">
<title>Node5&#45;&gt;Node7</title>
<path fill="none" stroke="midnightblue" d="M462.13,-343.5C477.6,-343.5 494.08,-343.5 509.66,-343.5"/>
<polygon fill="midnightblue" stroke="midnightblue" points="509.75,-347 519.75,-343.5 509.75,-340 509.75,-347"/>
</g>
<!-- Node9 -->
<g id="node9" class="node">
<title>Node9</title>
<g id="a_node9"><a xlink:href="namespacesignal__easel_1_1aprs.html#a586b022fa0c917fa8557bbd5cdc6aeeb" target="_top" xlink:title=" ">
<polygon fill="none" stroke="black" points="524,-284.5 524,-314.5 637,-314.5 637,-284.5 524,-284.5"/>
<text text-anchor="start" x="532" y="-302.5" font-family="Helvetica,sans-Serif" font-size="10.00">signal_easel::aprs</text>
<text text-anchor="middle" x="580.5" y="-291.5" font-family="Helvetica,sans-Serif" font-size="10.00">::AddRequiredFields</text>
</a>
</g>
</g>
<!-- Node8&#45;&gt;Node9 -->
<g id="edge8" class="edge">
<title>Node8&#45;&gt;Node9</title>
<path fill="none" stroke="midnightblue" d="M271.55,-238.6C335.21,-251.19 444.12,-272.73 513.9,-286.53"/>
<polygon fill="midnightblue" stroke="midnightblue" points="513.41,-290 523.9,-288.5 514.77,-283.13 513.41,-290"/>
</g>
<!-- Node17 -->
<g id="node17" class="node">
<title>Node17</title>
<g id="a_node17"><a xlink:href="classsignal__easel_1_1ax25_1_1Frame.html#a2b4f6ebcb7592a7e5a21114c8fafa503" target="_top" xlink:title="A step beyond buildFrame. This function builds the frame, does the bit stuffing, adds the flags,...">
<polygon fill="none" stroke="black" points="331.5,-171.5 331.5,-201.5 456.5,-201.5 456.5,-171.5 331.5,-171.5"/>
<text text-anchor="start" x="339.5" y="-189.5" font-family="Helvetica,sans-Serif" font-size="10.00">signal_easel::ax25</text>
<text text-anchor="middle" x="394" y="-178.5" font-family="Helvetica,sans-Serif" font-size="10.00">::Frame::encodeFrame</text>
</a>
</g>
</g>
<!-- Node8&#45;&gt;Node17 -->
<g id="edge17" class="edge">
<title>Node8&#45;&gt;Node17</title>
<path fill="none" stroke="midnightblue" d="M271.79,-216.01C287.4,-212.21 304.84,-207.96 321.53,-203.9"/>
<polygon fill="midnightblue" stroke="midnightblue" points="322.36,-207.3 331.25,-201.54 320.7,-200.5 322.36,-207.3"/>
</g>
<!-- Node30 -->
<g id="node30" class="node">
<title>Node30</title>
<g id="a_node30"><a xlink:href="classsignal__easel_1_1ax25_1_1Frame.html#afc5c722b419621f2a4dccbe2208faea1" target="_top" xlink:title=" ">
<polygon fill="none" stroke="black" points="328.5,-122.5 328.5,-152.5 459.5,-152.5 459.5,-122.5 328.5,-122.5"/>
<text text-anchor="start" x="336.5" y="-140.5" font-family="Helvetica,sans-Serif" font-size="10.00">signal_easel::ax25</text>
<text text-anchor="middle" x="394" y="-129.5" font-family="Helvetica,sans-Serif" font-size="10.00">::Frame::setInformation</text>
</a>
</g>
</g>
<!-- Node8&#45;&gt;Node30 -->
<g id="edge34" class="edge">
<title>Node8&#45;&gt;Node30</title>
<path fill="none" stroke="midnightblue" d="M241.11,-213.46C261.82,-198.83 295.01,-176.66 326,-161.5 329.58,-159.75 333.32,-158.06 337.13,-156.44"/>
<polygon fill="midnightblue" stroke="midnightblue" points="338.72,-159.57 346.67,-152.57 336.09,-153.09 338.72,-159.57"/>
</g>
<!-- Node10 -->
<g id="node10" class="node">
<title>Node10</title>
<g id="a_node10"><a xlink:href="namespacesignal__easel_1_1aprs.html#ae16006b4c75ab6423ad8b90ea814a14f" target="_top" xlink:title=" ">
<polygon fill="none" stroke="black" points="730.5,-343.5 730.5,-373.5 837.5,-373.5 837.5,-343.5 730.5,-343.5"/>
<text text-anchor="start" x="738.5" y="-361.5" font-family="Helvetica,sans-Serif" font-size="10.00">signal_easel::aprs</text>
<text text-anchor="middle" x="784" y="-350.5" font-family="Helvetica,sans-Serif" font-size="10.00">::CheckPacketData</text>
</a>
</g>
</g>
<!-- Node9&#45;&gt;Node10 -->
<g id="edge9" class="edge">
<title>Node9&#45;&gt;Node10</title>
<path fill="none" stroke="midnightblue" d="M631.49,-314.53C652.35,-320.76 676.83,-328.03 699,-334.5 705.91,-336.52 713.14,-338.61 720.34,-340.68"/>
<polygon fill="midnightblue" stroke="midnightblue" points="719.52,-344.09 730.1,-343.48 721.45,-337.36 719.52,-344.09"/>
</g>
<!-- Node11 -->
<g id="node11" class="node">
<title>Node11</title>
<g id="a_node11"><a xlink:href="classsignal__easel_1_1ax25_1_1Frame.html#a57b163ece54317da8d95f3b18b47c23d" target="_top" xlink:title="setters/getters for the frame.">
<polygon fill="none" stroke="black" points="699,-294.5 699,-324.5 869,-324.5 869,-294.5 699,-294.5"/>
<text text-anchor="start" x="707" y="-312.5" font-family="Helvetica,sans-Serif" font-size="10.00">signal_easel::ax25</text>
<text text-anchor="middle" x="784" y="-301.5" font-family="Helvetica,sans-Serif" font-size="10.00">::Frame::setDestinationAddress</text>
</a>
</g>
</g>
<!-- Node9&#45;&gt;Node11 -->
<g id="edge10" class="edge">
<title>Node9&#45;&gt;Node11</title>
<path fill="none" stroke="midnightblue" d="M637.09,-302.26C653.06,-303.05 670.94,-303.94 688.56,-304.81"/>
<polygon fill="midnightblue" stroke="midnightblue" points="688.73,-308.33 698.89,-305.33 689.08,-301.33 688.73,-308.33"/>
</g>
<!-- Node16 -->
<g id="node16" class="node">
<title>Node16</title>
<g id="a_node16"><a xlink:href="classsignal__easel_1_1ax25_1_1Frame.html#a402d26a81f82bb5c477e8930b75a771e" target="_top" xlink:title=" ">
<polygon fill="none" stroke="black" points="711,-245.5 711,-275.5 857,-275.5 857,-245.5 711,-245.5"/>
<text text-anchor="start" x="719" y="-263.5" font-family="Helvetica,sans-Serif" font-size="10.00">signal_easel::ax25</text>
<text text-anchor="middle" x="784" y="-252.5" font-family="Helvetica,sans-Serif" font-size="10.00">::Frame::setSourceAddress</text>
</a>
</g>
</g>
<!-- Node9&#45;&gt;Node16 -->
<g id="edge15" class="edge">
<title>Node9&#45;&gt;Node16</title>
<path fill="none" stroke="midnightblue" d="M637.09,-288.74C656.8,-284.92 679.42,-280.55 700.87,-276.4"/>
<polygon fill="midnightblue" stroke="midnightblue" points="701.81,-279.78 710.96,-274.44 700.48,-272.91 701.81,-279.78"/>
</g>
<!-- Node12 -->
<g id="node12" class="node">
<title>Node12</title>
<g id="a_node12"><a xlink:href="classsignal__easel_1_1ax25_1_1Address.html#a7fa6b0ef4241413893f201660991e4ea" target="_top" xlink:title="Checks if the address is valid, if not throws an exception with a specific error code.">
<polygon fill="none" stroke="black" points="905,-242.5 905,-272.5 1035,-272.5 1035,-242.5 905,-242.5"/>
<text text-anchor="start" x="913" y="-260.5" font-family="Helvetica,sans-Serif" font-size="10.00">signal_easel::ax25</text>
<text text-anchor="middle" x="970" y="-249.5" font-family="Helvetica,sans-Serif" font-size="10.00">::Address::assertIsValid</text>
</a>
</g>
</g>
<!-- Node11&#45;&gt;Node12 -->
<g id="edge11" class="edge">
<title>Node11&#45;&gt;Node12</title>
<path fill="none" stroke="midnightblue" d="M838.22,-294.46C859.49,-288.45 884.13,-281.48 906.26,-275.23"/>
<polygon fill="midnightblue" stroke="midnightblue" points="907.23,-278.59 915.9,-272.51 905.32,-271.86 907.23,-278.59"/>
</g>
<!-- Node13 -->
<g id="node13" class="node">
<title>Node13</title>
<g id="a_node13"><a xlink:href="classsignal__easel_1_1ax25_1_1Address.html#af34b361f739b7995e7816b7a04465828" target="_top" xlink:title=" ">
<polygon fill="none" stroke="black" points="1071,-237 1071,-278 1236,-278 1236,-237 1071,-237"/>
<text text-anchor="start" x="1079" y="-266" font-family="Helvetica,sans-Serif" font-size="10.00">signal_easel::ax25</text>
<text text-anchor="start" x="1079" y="-255" font-family="Helvetica,sans-Serif" font-size="10.00">::Address::assertAddressString</text>
<text text-anchor="middle" x="1153.5" y="-244" font-family="Helvetica,sans-Serif" font-size="10.00">IsValid</text>
</a>
</g>
</g>
<!-- Node12&#45;&gt;Node13 -->
<g id="edge12" class="edge">
<title>Node12&#45;&gt;Node13</title>
<path fill="none" stroke="midnightblue" d="M1035.25,-257.5C1043.53,-257.5 1052.13,-257.5 1060.75,-257.5"/>
<polygon fill="midnightblue" stroke="midnightblue" points="1060.85,-261 1070.85,-257.5 1060.85,-254 1060.85,-261"/>
</g>
<!-- Node14 -->
<g id="node14" class="node">
<title>Node14</title>
<g id="a_node14"><a xlink:href="classsignal__easel_1_1ax25_1_1Address.html#a8b44c6e311d3462bd86eda03c1d384f0" target="_top" xlink:title=" ">
<polygon fill="none" stroke="black" points="1078.5,-184.5 1078.5,-214.5 1228.5,-214.5 1228.5,-184.5 1078.5,-184.5"/>
<text text-anchor="start" x="1086.5" y="-202.5" font-family="Helvetica,sans-Serif" font-size="10.00">signal_easel::ax25</text>
<text text-anchor="middle" x="1153.5" y="-191.5" font-family="Helvetica,sans-Serif" font-size="10.00">::Address::assertSsidIsValid</text>
</a>
</g>
</g>
<!-- Node12&#45;&gt;Node14 -->
<g id="edge13" class="edge">
<title>Node12&#45;&gt;Node14</title>
<path fill="none" stroke="midnightblue" d="M1018.21,-242.41C1041.95,-234.83 1070.9,-225.58 1095.83,-217.61"/>
<polygon fill="midnightblue" stroke="midnightblue" points="1097.06,-220.89 1105.52,-214.51 1094.93,-214.22 1097.06,-220.89"/>
</g>
<!-- Node15 -->
<g id="node15" class="node">
<title>Node15</title>
<g id="a_node15"><a xlink:href="classsignal__easel_1_1ax25_1_1Address.html#ad66c149737cc4aa52ae9e8860176acf3" target="_top" xlink:title=" ">
<polygon fill="none" stroke="black" points="1272,-159.5 1272,-189.5 1392,-189.5 1392,-159.5 1272,-159.5"/>
<text text-anchor="start" x="1280" y="-177.5" font-family="Helvetica,sans-Serif" font-size="10.00">signal_easel::ax25</text>
<text text-anchor="middle" x="1332" y="-166.5" font-family="Helvetica,sans-Serif" font-size="10.00">::Address::isSsidValid</text>
</a>
</g>
</g>
<!-- Node14&#45;&gt;Node15 -->
<g id="edge14" class="edge">
<title>Node14&#45;&gt;Node15</title>
<path fill="none" stroke="midnightblue" d="M1228.58,-189.01C1239.64,-187.44 1250.99,-185.83 1261.93,-184.28"/>
<polygon fill="midnightblue" stroke="midnightblue" points="1262.43,-187.75 1271.84,-182.88 1261.45,-180.82 1262.43,-187.75"/>
</g>
<!-- Node16&#45;&gt;Node12 -->
<g id="edge16" class="edge">
<title>Node16&#45;&gt;Node12</title>
<path fill="none" stroke="midnightblue" d="M857.19,-259.32C869.46,-259.12 882.23,-258.91 894.56,-258.71"/>
<polygon fill="midnightblue" stroke="midnightblue" points="894.85,-262.21 904.79,-258.55 894.73,-255.21 894.85,-262.21"/>
</g>
<!-- Node18 -->
<g id="node18" class="node">
<title>Node18</title>
<g id="a_node18"><a xlink:href="classsignal__easel_1_1BitStream.html#a9df75eb28c03717c9fad2d30a85de6e6" target="_top" xlink:title=" ">
<polygon fill="none" stroke="black" points="718,-196.5 718,-226.5 850,-226.5 850,-196.5 718,-196.5"/>
<text text-anchor="start" x="726" y="-214.5" font-family="Helvetica,sans-Serif" font-size="10.00">signal_easel::BitStream</text>
<text text-anchor="middle" x="784" y="-203.5" font-family="Helvetica,sans-Serif" font-size="10.00">::addBits</text>
</a>
</g>
</g>
<!-- Node17&#45;&gt;Node18 -->
<g id="edge18" class="edge">
<title>Node17&#45;&gt;Node18</title>
<path fill="none" stroke="midnightblue" d="M418.86,-201.62C439.05,-213.47 469.22,-229 498,-235.5 571.14,-252.01 657.17,-240.69 715.42,-228.63"/>
<polygon fill="midnightblue" stroke="midnightblue" points="716.2,-232.04 725.25,-226.53 714.74,-225.2 716.2,-232.04"/>
</g>
<!-- Node19 -->
<g id="node19" class="node">
<title>Node19</title>
<g id="a_node19"><a xlink:href="classsignal__easel_1_1BitStream.html#a81d4aea4c11f65e0c2b7ad2f0f0cc312" target="_top" xlink:title=" ">
<polygon fill="none" stroke="black" points="514.5,-196.5 514.5,-226.5 646.5,-226.5 646.5,-196.5 514.5,-196.5"/>
<text text-anchor="start" x="522.5" y="-214.5" font-family="Helvetica,sans-Serif" font-size="10.00">signal_easel::BitStream</text>
<text text-anchor="middle" x="580.5" y="-203.5" font-family="Helvetica,sans-Serif" font-size="10.00">::addOneBit</text>
</a>
</g>
</g>
<!-- Node17&#45;&gt;Node19 -->
<g id="edge19" class="edge">
<title>Node17&#45;&gt;Node19</title>
<path fill="none" stroke="midnightblue" d="M456.69,-194.86C471.9,-196.92 488.36,-199.15 504.14,-201.29"/>
<polygon fill="midnightblue" stroke="midnightblue" points="504.01,-204.8 514.39,-202.68 504.95,-197.87 504.01,-204.8"/>
</g>
<!-- Node20 -->
<g id="node20" class="node">
<title>Node20</title>
<g id="a_node20"><a xlink:href="classsignal__easel_1_1BitStream.html#abb315beec8c4d88115d9d4ec5f082863" target="_top" xlink:title=" ">
<polygon fill="none" stroke="black" points="514.5,-147.5 514.5,-177.5 646.5,-177.5 646.5,-147.5 514.5,-147.5"/>
<text text-anchor="start" x="522.5" y="-165.5" font-family="Helvetica,sans-Serif" font-size="10.00">signal_easel::BitStream</text>
<text text-anchor="middle" x="580.5" y="-154.5" font-family="Helvetica,sans-Serif" font-size="10.00">::addZeroBit</text>
</a>
</g>
</g>
<!-- Node17&#45;&gt;Node20 -->
<g id="edge21" class="edge">
<title>Node17&#45;&gt;Node20</title>
<path fill="none" stroke="midnightblue" d="M456.69,-178.47C471.9,-176.5 488.36,-174.36 504.14,-172.3"/>
<polygon fill="midnightblue" stroke="midnightblue" points="504.92,-175.73 514.39,-170.97 504.02,-168.79 504.92,-175.73"/>
</g>
<!-- Node21 -->
<g id="node21" class="node">
<title>Node21</title>
<g id="a_node21"><a xlink:href="classsignal__easel_1_1ax25_1_1Frame.html#a24e7d5ffc6504a3380e97142d1bc084e" target="_top" xlink:title="Builds all internal portions of the frame. Doesn&#39;t include the flags.">
<polygon fill="none" stroke="black" points="523.5,-98.5 523.5,-128.5 637.5,-128.5 637.5,-98.5 523.5,-98.5"/>
<text text-anchor="start" x="531.5" y="-116.5" font-family="Helvetica,sans-Serif" font-size="10.00">signal_easel::ax25</text>
<text text-anchor="middle" x="580.5" y="-105.5" font-family="Helvetica,sans-Serif" font-size="10.00">::Frame::buildFrame</text>
</a>
</g>
</g>
<!-- Node17&#45;&gt;Node21 -->
<g id="edge23" class="edge">
<title>Node17&#45;&gt;Node21</title>
<path fill="none" stroke="midnightblue" d="M439.95,-171.37C447.44,-168.38 455.04,-165.06 462,-161.5 479.12,-152.75 480.58,-145.64 498,-137.5 503.01,-135.16 508.3,-132.99 513.69,-130.99"/>
<polygon fill="midnightblue" stroke="midnightblue" points="515.15,-134.18 523.43,-127.57 512.84,-127.58 515.15,-134.18"/>
</g>
<!-- Node28 -->
<g id="node28" class="node">
<title>Node28</title>
<g id="a_node28"><a xlink:href="classsignal__easel_1_1BitStream.html#aa97152ef51f73088e103a7951134aa85" target="_top" xlink:title=" ">
<polygon fill="none" stroke="black" points="514.5,-49.5 514.5,-79.5 646.5,-79.5 646.5,-49.5 514.5,-49.5"/>
<text text-anchor="start" x="522.5" y="-67.5" font-family="Helvetica,sans-Serif" font-size="10.00">signal_easel::BitStream</text>
<text text-anchor="middle" x="580.5" y="-56.5" font-family="Helvetica,sans-Serif" font-size="10.00">::getBitStreamLength</text>
</a>
</g>
</g>
<!-- Node17&#45;&gt;Node28 -->
<g id="edge32" class="edge">
<title>Node17&#45;&gt;Node28</title>
<path fill="none" stroke="midnightblue" d="M447.73,-171.36C452.89,-168.59 457.76,-165.33 462,-161.5 488.84,-137.24 470.32,-111.79 498,-88.5 500.27,-86.59 502.7,-84.82 505.23,-83.2"/>
<polygon fill="midnightblue" stroke="midnightblue" points="507.16,-86.13 514.2,-78.22 503.76,-80.01 507.16,-86.13"/>
</g>
<!-- Node29 -->
<g id="node29" class="node">
<title>Node29</title>
<g id="a_node29"><a xlink:href="classsignal__easel_1_1BitStream.html#a5b5339586e09ca5c25a7e9ded0118ffb" target="_top" xlink:title="Returns the next bit of the bit stream that will be encoded.">
<polygon fill="none" stroke="black" points="514.5,-0.5 514.5,-30.5 646.5,-30.5 646.5,-0.5 514.5,-0.5"/>
<text text-anchor="start" x="522.5" y="-18.5" font-family="Helvetica,sans-Serif" font-size="10.00">signal_easel::BitStream</text>
<text text-anchor="middle" x="580.5" y="-7.5" font-family="Helvetica,sans-Serif" font-size="10.00">::popNextBit</text>
</a>
</g>
</g>
<!-- Node17&#45;&gt;Node29 -->
<g id="edge33" class="edge">
<title>Node17&#45;&gt;Node29</title>
<path fill="none" stroke="midnightblue" d="M449.4,-171.49C454.05,-168.7 458.36,-165.41 462,-161.5 500.55,-120.15 458.01,-79.46 498,-39.5 500.35,-37.15 502.91,-35.03 505.64,-33.12"/>
<polygon fill="midnightblue" stroke="midnightblue" points="507.45,-36.11 514.24,-27.97 503.86,-30.11 507.45,-36.11"/>
</g>
<!-- Node19&#45;&gt;Node18 -->
<g id="edge20" class="edge">
<title>Node19&#45;&gt;Node18</title>
<path fill="none" stroke="midnightblue" d="M646.64,-211.5C666.12,-211.5 687.63,-211.5 707.7,-211.5"/>
<polygon fill="midnightblue" stroke="midnightblue" points="707.74,-215 717.74,-211.5 707.74,-208 707.74,-215"/>
</g>
<!-- Node20&#45;&gt;Node18 -->
<g id="edge22" class="edge">
<title>Node20&#45;&gt;Node18</title>
<path fill="none" stroke="midnightblue" d="M643.33,-177.53C664.89,-182.78 689.27,-188.71 711.55,-194.13"/>
<polygon fill="midnightblue" stroke="midnightblue" points="710.75,-197.53 721.29,-196.49 712.4,-190.73 710.75,-197.53"/>
</g>
<!-- Node22 -->
<g id="node22" class="node">
<title>Node22</title>
<g id="a_node22"><a xlink:href="namespacesignal__easel_1_1ax25.html#a6d799107f96d783e620cd508488ab8eb" target="_top" xlink:title="Calculate the Frame Check Sequence (FCS) on a vector of bytes.">
<polygon fill="none" stroke="black" points="730.5,-147.5 730.5,-177.5 837.5,-177.5 837.5,-147.5 730.5,-147.5"/>
<text text-anchor="start" x="738.5" y="-165.5" font-family="Helvetica,sans-Serif" font-size="10.00">signal_easel::ax25</text>
<text text-anchor="middle" x="784" y="-154.5" font-family="Helvetica,sans-Serif" font-size="10.00">::calculateFcs</text>
</a>
</g>
</g>
<!-- Node21&#45;&gt;Node22 -->
<g id="edge24" class="edge">
<title>Node21&#45;&gt;Node22</title>
<path fill="none" stroke="midnightblue" d="M637.63,-127.15C663.34,-133.4 693.91,-140.84 720.37,-147.27"/>
<polygon fill="midnightblue" stroke="midnightblue" points="719.74,-150.72 730.29,-149.68 721.4,-143.92 719.74,-150.72"/>
</g>
<!-- Node23 -->
<g id="node23" class="node">
<title>Node23</title>
<g id="a_node23"><a xlink:href="classsignal__easel_1_1ax25_1_1Address.html#a0c31737081a9184b56dc32150b23cb0a" target="_top" xlink:title="Get the address as a byte array.">
<polygon fill="none" stroke="black" points="713,-98.5 713,-128.5 855,-128.5 855,-98.5 713,-98.5"/>
<text text-anchor="start" x="721" y="-116.5" font-family="Helvetica,sans-Serif" font-size="10.00">signal_easel::ax25</text>
<text text-anchor="middle" x="784" y="-105.5" font-family="Helvetica,sans-Serif" font-size="10.00">::Address::encodeAddress</text>
</a>
</g>
</g>
<!-- Node21&#45;&gt;Node23 -->
<g id="edge25" class="edge">
<title>Node21&#45;&gt;Node23</title>
<path fill="none" stroke="midnightblue" d="M637.63,-113.5C657.73,-113.5 680.81,-113.5 702.57,-113.5"/>
<polygon fill="midnightblue" stroke="midnightblue" points="702.79,-117 712.79,-113.5 702.79,-110 702.79,-117"/>
</g>
<!-- Node24 -->
<g id="node24" class="node">
<title>Node24</title>
<g id="a_node24"><a xlink:href="classsignal__easel_1_1ax25_1_1Frame.html#a640edeabbda34e78cc243e3561747bf9" target="_top" xlink:title=" ">
<polygon fill="none" stroke="black" points="723,-49.5 723,-79.5 845,-79.5 845,-49.5 723,-49.5"/>
<text text-anchor="start" x="731" y="-67.5" font-family="Helvetica,sans-Serif" font-size="10.00">signal_easel::ax25</text>
<text text-anchor="middle" x="784" y="-56.5" font-family="Helvetica,sans-Serif" font-size="10.00">::Frame::isFrameValid</text>
</a>
</g>
</g>
<!-- Node21&#45;&gt;Node24 -->
<g id="edge27" class="edge">
<title>Node21&#45;&gt;Node24</title>
<path fill="none" stroke="midnightblue" d="M637.63,-99.85C660.96,-94.18 688.3,-87.53 712.93,-81.54"/>
<polygon fill="midnightblue" stroke="midnightblue" points="714.05,-84.87 722.94,-79.1 712.4,-78.07 714.05,-84.87"/>
</g>
<!-- Node27 -->
<g id="node27" class="node">
<title>Node27</title>
<g id="a_node27"><a xlink:href="classsignal__easel_1_1ax25_1_1Address.html#a1a5bc573535cfc1f8723c121e3451e7c" target="_top" xlink:title="Set the as the last address in the AX.25 frame (Sets a bit in the ssid byte)">
<polygon fill="none" stroke="black" points="709,-0.5 709,-30.5 859,-30.5 859,-0.5 709,-0.5"/>
<text text-anchor="start" x="717" y="-18.5" font-family="Helvetica,sans-Serif" font-size="10.00">signal_easel::ax25</text>
<text text-anchor="middle" x="784" y="-7.5" font-family="Helvetica,sans-Serif" font-size="10.00">::Address::setIsLastAddress</text>
</a>
</g>
</g>
<!-- Node21&#45;&gt;Node27 -->
<g id="edge31" class="edge">
<title>Node21&#45;&gt;Node27</title>
<path fill="none" stroke="midnightblue" d="M637.66,-101.5C646.6,-98.15 655.4,-93.9 663,-88.5 685.03,-72.86 676.82,-54.93 699,-39.5 701.26,-37.93 703.62,-36.46 706.05,-35.09"/>
<polygon fill="midnightblue" stroke="midnightblue" points="707.78,-38.14 715.15,-30.53 704.64,-31.88 707.78,-38.14"/>
</g>
<!-- Node23&#45;&gt;Node12 -->
<g id="edge26" class="edge">
<title>Node23&#45;&gt;Node12</title>
<path fill="none" stroke="midnightblue" d="M852.2,-128.67C858.09,-131.18 863.79,-134.11 869,-137.5 907.22,-162.39 938.38,-206.36 955.26,-233.61"/>
<polygon fill="midnightblue" stroke="midnightblue" points="952.46,-235.74 960.62,-242.49 958.45,-232.12 952.46,-235.74"/>
</g>
<!-- Node25 -->
<g id="node25" class="node">
<title>Node25</title>
<g id="a_node25"><a xlink:href="classsignal__easel_1_1ax25_1_1Address.html#aae81920cfd0dc7d89cb107f9d825488c" target="_top" xlink:title="If the address is valid (can be encoded correctly or was decoded)">
<polygon fill="none" stroke="black" points="916.5,-73.5 916.5,-103.5 1023.5,-103.5 1023.5,-73.5 916.5,-73.5"/>
<text text-anchor="start" x="924.5" y="-91.5" font-family="Helvetica,sans-Serif" font-size="10.00">signal_easel::ax25</text>
<text text-anchor="middle" x="970" y="-80.5" font-family="Helvetica,sans-Serif" font-size="10.00">::Address::isValid</text>
</a>
</g>
</g>
<!-- Node24&#45;&gt;Node25 -->
<g id="edge28" class="edge">
<title>Node24&#45;&gt;Node25</title>
<path fill="none" stroke="midnightblue" d="M845.25,-72.36C864.79,-74.91 886.52,-77.74 906.24,-80.31"/>
<polygon fill="midnightblue" stroke="midnightblue" points="905.99,-83.81 916.35,-81.63 906.89,-76.87 905.99,-83.81"/>
</g>
<!-- Node25&#45;&gt;Node15 -->
<g id="edge30" class="edge">
<title>Node25&#45;&gt;Node15</title>
<path fill="none" stroke="midnightblue" d="M1018.34,-103.54C1034.92,-108.59 1053.71,-114.05 1071,-118.5 1135.28,-135.04 1209.34,-150.66 1261.93,-161.18"/>
<polygon fill="midnightblue" stroke="midnightblue" points="1261.34,-164.63 1271.83,-163.15 1262.7,-157.76 1261.34,-164.63"/>
</g>
<!-- Node26 -->
<g id="node26" class="node">
<title>Node26</title>
<g id="a_node26"><a xlink:href="classsignal__easel_1_1ax25_1_1Address.html#a56c55b48bfc809a33aa0e22a5aeb95ca" target="_top" xlink:title=" ">
<polygon fill="none" stroke="black" points="1082,-68 1082,-109 1225,-109 1225,-68 1082,-68"/>
<text text-anchor="start" x="1090" y="-97" font-family="Helvetica,sans-Serif" font-size="10.00">signal_easel::ax25</text>
<text text-anchor="start" x="1090" y="-86" font-family="Helvetica,sans-Serif" font-size="10.00">::Address::isAddressString</text>
<text text-anchor="middle" x="1153.5" y="-75" font-family="Helvetica,sans-Serif" font-size="10.00">Valid</text>
</a>
</g>
</g>
<!-- Node25&#45;&gt;Node26 -->
<g id="edge29" class="edge">
<title>Node25&#45;&gt;Node26</title>
<path fill="none" stroke="midnightblue" d="M1023.99,-88.5C1038.98,-88.5 1055.64,-88.5 1071.87,-88.5"/>
<polygon fill="midnightblue" stroke="midnightblue" points="1071.89,-92 1081.89,-88.5 1071.89,-85 1071.89,-92"/>
</g>
</g>
</svg>
