<?xml version="1.0" encoding="UTF-8" standalone="no"?>
<!DOCTYPE svg PUBLIC "-//W3C//DTD SVG 1.1//EN"
 "http://www.w3.org/Graphics/SVG/1.1/DTD/svg11.dtd">
<!-- Generated by graphviz version 2.43.0 (0)
 -->
<!-- Title: signal_easel::ax25::Frame::getInformation Pages: 1 -->
<svg width="504pt" height="230pt"
 viewBox="0.00 0.00 504.00 230.00" xmlns="http://www.w3.org/2000/svg" xmlns:xlink="http://www.w3.org/1999/xlink">
<g id="graph0" class="graph" transform="scale(1 1) rotate(0) translate(4 226)">
<title>signal_easel::ax25::Frame::getInformation</title>
<!-- Node1 -->
<g id="node1" class="node">
<title>Node1</title>
<g id="a_node1"><a xlink:title=" ">
<polygon fill="#bfbfbf" stroke="black" points="364,-96 364,-126 496,-126 496,-96 364,-96"/>
<text text-anchor="start" x="372" y="-114" font-family="Helvetica,sans-Serif" font-size="10.00">signal_easel::ax25</text>
<text text-anchor="middle" x="430" y="-103" font-family="Helvetica,sans-Serif" font-size="10.00">::Frame::getInformation</text>
</a>
</g>
</g>
<!-- Node2 -->
<g id="node2" class="node">
<title>Node2</title>
<g id="a_node2"><a xlink:href="classsignal__easel_1_1aprs_1_1Demodulator.html#ae5a8e7634c1bc8d215a0c454a9a737fa" target="_top" xlink:title=" ">
<polygon fill="none" stroke="black" points="159,-180.5 159,-221.5 312,-221.5 312,-180.5 159,-180.5"/>
<text text-anchor="start" x="167" y="-209.5" font-family="Helvetica,sans-Serif" font-size="10.00">signal_easel::aprs</text>
<text text-anchor="start" x="167" y="-198.5" font-family="Helvetica,sans-Serif" font-size="10.00">::Demodulator::lookForAx25</text>
<text text-anchor="middle" x="235.5" y="-187.5" font-family="Helvetica,sans-Serif" font-size="10.00">Packet</text>
</a>
</g>
</g>
<!-- Node1&#45;&gt;Node2 -->
<g id="edge1" class="edge">
<title>Node1&#45;&gt;Node2</title>
<path fill="none" stroke="midnightblue" d="M398.42,-131.56C378.87,-144.1 352.64,-159.81 328,-171 320.69,-174.32 312.91,-177.45 305.09,-180.34"/>
<polygon fill="midnightblue" stroke="midnightblue" points="400.42,-134.44 406.9,-126.05 396.61,-128.56 400.42,-134.44"/>
</g>
<!-- Node5 -->
<g id="node5" class="node">
<title>Node5</title>
<g id="a_node5"><a xlink:href="classsignal__easel_1_1aprs_1_1Demodulator.html#a5e0e78f4186a6334507be9c955df55b6" target="_top" xlink:title=" ">
<polygon fill="none" stroke="black" points="143,-60.5 143,-101.5 328,-101.5 328,-60.5 143,-60.5"/>
<text text-anchor="start" x="151" y="-89.5" font-family="Helvetica,sans-Serif" font-size="10.00">signal_easel::aprs</text>
<text text-anchor="start" x="151" y="-78.5" font-family="Helvetica,sans-Serif" font-size="10.00">::Demodulator::parseExperimental</text>
<text text-anchor="middle" x="235.5" y="-67.5" font-family="Helvetica,sans-Serif" font-size="10.00">Packet</text>
</a>
</g>
</g>
<!-- Node1&#45;&gt;Node5 -->
<g id="edge4" class="edge">
<title>Node1&#45;&gt;Node5</title>
<path fill="none" stroke="midnightblue" d="M353.75,-99.27C345.38,-97.97 336.79,-96.63 328.25,-95.3"/>
<polygon fill="midnightblue" stroke="midnightblue" points="353.41,-102.76 363.83,-100.84 354.49,-95.85 353.41,-102.76"/>
</g>
<!-- Node7 -->
<g id="node7" class="node">
<title>Node7</title>
<g id="a_node7"><a xlink:href="classsignal__easel_1_1aprs_1_1Demodulator.html#a8ea92084a8f961d7a11200652516177d" target="_top" xlink:title="If the packet was a message packet, this function will try to parse the packet into a message packet.">
<polygon fill="none" stroke="black" points="154,-120.5 154,-161.5 317,-161.5 317,-120.5 154,-120.5"/>
<text text-anchor="start" x="162" y="-149.5" font-family="Helvetica,sans-Serif" font-size="10.00">signal_easel::aprs</text>
<text text-anchor="start" x="162" y="-138.5" font-family="Helvetica,sans-Serif" font-size="10.00">::Demodulator::parseMessage</text>
<text text-anchor="middle" x="235.5" y="-127.5" font-family="Helvetica,sans-Serif" font-size="10.00">Packet</text>
</a>
</g>
</g>
<!-- Node1&#45;&gt;Node7 -->
<g id="edge7" class="edge">
<title>Node1&#45;&gt;Node7</title>
<path fill="none" stroke="midnightblue" d="M353.88,-122.71C341.88,-124.58 329.43,-126.52 317.31,-128.41"/>
<polygon fill="midnightblue" stroke="midnightblue" points="354.49,-126.15 363.83,-121.16 353.41,-119.24 354.49,-126.15"/>
</g>
<!-- Node8 -->
<g id="node8" class="node">
<title>Node8</title>
<g id="a_node8"><a xlink:href="classsignal__easel_1_1aprs_1_1Demodulator.html#a285cd33e16fa28925fe2acd3fe5029fb" target="_top" xlink:title="If the packet was a position packet, this function will try to parse the packet into it&#39;s positional ...">
<polygon fill="none" stroke="black" points="156.5,-0.5 156.5,-41.5 314.5,-41.5 314.5,-0.5 156.5,-0.5"/>
<text text-anchor="start" x="164.5" y="-29.5" font-family="Helvetica,sans-Serif" font-size="10.00">signal_easel::aprs</text>
<text text-anchor="start" x="164.5" y="-18.5" font-family="Helvetica,sans-Serif" font-size="10.00">::Demodulator::parsePosition</text>
<text text-anchor="middle" x="235.5" y="-7.5" font-family="Helvetica,sans-Serif" font-size="10.00">Packet</text>
</a>
</g>
</g>
<!-- Node1&#45;&gt;Node8 -->
<g id="edge10" class="edge">
<title>Node1&#45;&gt;Node8</title>
<path fill="none" stroke="midnightblue" d="M398.42,-90.44C378.87,-77.9 352.64,-62.19 328,-51 320.69,-47.68 312.91,-44.55 305.09,-41.66"/>
<polygon fill="midnightblue" stroke="midnightblue" points="396.61,-93.44 406.9,-95.95 400.42,-87.56 396.61,-93.44"/>
</g>
<!-- Node3 -->
<g id="node3" class="node">
<title>Node3</title>
<g id="a_node3"><a xlink:href="classsignal__easel_1_1aprs_1_1Receiver.html#afbf7869aceaf2ea7ab0be8b9af16e818" target="_top" xlink:title=" ">
<polygon fill="none" stroke="black" points="0,-118 0,-148 107,-148 107,-118 0,-118"/>
<text text-anchor="start" x="8" y="-136" font-family="Helvetica,sans-Serif" font-size="10.00">signal_easel::aprs</text>
<text text-anchor="middle" x="53.5" y="-125" font-family="Helvetica,sans-Serif" font-size="10.00">::Receiver::decode</text>
</a>
</g>
</g>
<!-- Node2&#45;&gt;Node3 -->
<g id="edge2" class="edge">
<title>Node2&#45;&gt;Node3</title>
<path fill="none" stroke="midnightblue" d="M159.7,-177.08C154.03,-175.08 148.41,-173.04 143,-171 124.54,-164.03 104.3,-155.41 87.83,-148.14"/>
<polygon fill="midnightblue" stroke="midnightblue" points="158.68,-180.43 169.27,-180.4 160.97,-173.82 158.68,-180.43"/>
</g>
<!-- Node4 -->
<g id="node4" class="node">
<title>Node4</title>
<g id="a_node4"><a xlink:href="aprs__test_8cpp.html#aea66d1824e3f1e27598adf99ac6a089a" target="_top" xlink:title=" ">
<polygon fill="none" stroke="black" points="33,-179.5 33,-198.5 74,-198.5 74,-179.5 33,-179.5"/>
<text text-anchor="middle" x="53.5" y="-186.5" font-family="Helvetica,sans-Serif" font-size="10.00">TEST</text>
</a>
</g>
</g>
<!-- Node2&#45;&gt;Node4 -->
<g id="edge3" class="edge">
<title>Node2&#45;&gt;Node4</title>
<path fill="none" stroke="midnightblue" d="M148.72,-195.28C120.83,-193.42 92.4,-191.53 74.18,-190.31"/>
<polygon fill="midnightblue" stroke="midnightblue" points="148.74,-198.79 158.95,-195.96 149.2,-191.81 148.74,-198.79"/>
</g>
<!-- Node5&#45;&gt;Node3 -->
<g id="edge5" class="edge">
<title>Node5&#45;&gt;Node3</title>
<path fill="none" stroke="midnightblue" d="M153.49,-104.4C137.54,-109.01 121.21,-113.73 106.53,-117.97"/>
<polygon fill="midnightblue" stroke="midnightblue" points="154.72,-107.69 163.36,-101.55 152.78,-100.96 154.72,-107.69"/>
</g>
<!-- Node6 -->
<g id="node6" class="node">
<title>Node6</title>
<g id="a_node6"><a xlink:href="aprs__test_8cpp.html#a94163b9a63db7738e0cf4c49259e1565" target="_top" xlink:title=" ">
<polygon fill="none" stroke="black" points="33,-71.5 33,-90.5 74,-90.5 74,-71.5 33,-71.5"/>
<text text-anchor="middle" x="53.5" y="-78.5" font-family="Helvetica,sans-Serif" font-size="10.00">TEST</text>
</a>
</g>
</g>
<!-- Node5&#45;&gt;Node6 -->
<g id="edge6" class="edge">
<title>Node5&#45;&gt;Node6</title>
<path fill="none" stroke="midnightblue" d="M132.87,-81C110.34,-81 88.8,-81 74.02,-81"/>
<polygon fill="midnightblue" stroke="midnightblue" points="132.92,-84.5 142.92,-81 132.92,-77.5 132.92,-84.5"/>
</g>
<!-- Node7&#45;&gt;Node3 -->
<g id="edge8" class="edge">
<title>Node7&#45;&gt;Node3</title>
<path fill="none" stroke="midnightblue" d="M143.87,-136.97C131.25,-136.41 118.65,-135.85 107.06,-135.34"/>
<polygon fill="midnightblue" stroke="midnightblue" points="143.83,-140.47 153.98,-137.42 144.14,-133.48 143.83,-140.47"/>
</g>
<!-- Node7&#45;&gt;Node4 -->
<g id="edge9" class="edge">
<title>Node7&#45;&gt;Node4</title>
<path fill="none" stroke="midnightblue" d="M147.67,-164.15C120.12,-171.5 92.17,-178.95 74.17,-183.75"/>
<polygon fill="midnightblue" stroke="midnightblue" points="148.62,-167.52 157.38,-161.57 146.82,-160.76 148.62,-167.52"/>
</g>
<!-- Node8&#45;&gt;Node3 -->
<g id="edge11" class="edge">
<title>Node8&#45;&gt;Node3</title>
<path fill="none" stroke="midnightblue" d="M149.63,-46.59C147.35,-47.99 145.13,-49.46 143,-51 121.12,-66.86 126.79,-81.6 107,-100 99.83,-106.67 91.12,-112.77 82.87,-117.86"/>
<polygon fill="midnightblue" stroke="midnightblue" points="151.66,-49.47 158.72,-41.56 148.27,-43.34 151.66,-49.47"/>
</g>
<!-- Node9 -->
<g id="node9" class="node">
<title>Node9</title>
<g id="a_node9"><a xlink:href="aprs__test_8cpp.html#a8f1884a85326fa2424719d09dd551947" target="_top" xlink:title=" ">
<polygon fill="none" stroke="black" points="33,-11.5 33,-30.5 74,-30.5 74,-11.5 33,-11.5"/>
<text text-anchor="middle" x="53.5" y="-18.5" font-family="Helvetica,sans-Serif" font-size="10.00">TEST</text>
</a>
</g>
</g>
<!-- Node8&#45;&gt;Node9 -->
<g id="edge12" class="edge">
<title>Node8&#45;&gt;Node9</title>
<path fill="none" stroke="midnightblue" d="M146.03,-21C119.07,-21 91.93,-21 74.29,-21"/>
<polygon fill="midnightblue" stroke="midnightblue" points="146.33,-24.5 156.33,-21 146.33,-17.5 146.33,-24.5"/>
</g>
</g>
</svg>
