<?xml version="1.0" encoding="UTF-8" standalone="no"?>
<!DOCTYPE svg PUBLIC "-//W3C//DTD SVG 1.1//EN"
 "http://www.w3.org/Graphics/SVG/1.1/DTD/svg11.dtd">
<!-- Generated by graphviz version 2.43.0 (0)
 -->
<!-- Title: signal_easel::aprs::telemetry::Parameter::validateParameterDescriptor Pages: 1 -->
<svg width="410pt" height="110pt"
 viewBox="0.00 0.00 410.00 110.00" xmlns="http://www.w3.org/2000/svg" xmlns:xlink="http://www.w3.org/1999/xlink">
<g id="graph0" class="graph" transform="scale(1 1) rotate(0) translate(4 106)">
<title>signal_easel::aprs::telemetry::Parameter::validateParameterDescriptor</title>
<!-- Node1 -->
<g id="node1" class="node">
<title>Node1</title>
<g id="a_node1"><a xlink:title="Parameter names, along with units for analog parameters and labels for digital parameters,...">
<polygon fill="#bfbfbf" stroke="black" points="239,-30.5 239,-71.5 402,-71.5 402,-30.5 239,-30.5"/>
<text text-anchor="start" x="247" y="-59.5" font-family="Helvetica,sans-Serif" font-size="10.00">signal_easel::aprs</text>
<text text-anchor="start" x="247" y="-48.5" font-family="Helvetica,sans-Serif" font-size="10.00">::telemetry::Parameter</text>
<text text-anchor="middle" x="320.5" y="-37.5" font-family="Helvetica,sans-Serif" font-size="10.00">::validateParameterDescriptor</text>
</a>
</g>
</g>
<!-- Node2 -->
<g id="node2" class="node">
<title>Node2</title>
<g id="a_node2"><a xlink:href="classsignal__easel_1_1aprs_1_1telemetry_1_1Parameter.html#a31860a0009bc0d958635ad105183d9f6" target="_top" xlink:title="Set the name of the parameter.">
<polygon fill="none" stroke="black" points="77,-60.5 77,-101.5 203,-101.5 203,-60.5 77,-60.5"/>
<text text-anchor="start" x="85" y="-89.5" font-family="Helvetica,sans-Serif" font-size="10.00">signal_easel::aprs</text>
<text text-anchor="start" x="85" y="-78.5" font-family="Helvetica,sans-Serif" font-size="10.00">::telemetry::Parameter</text>
<text text-anchor="middle" x="140" y="-67.5" font-family="Helvetica,sans-Serif" font-size="10.00">::setName</text>
</a>
</g>
</g>
<!-- Node1&#45;&gt;Node2 -->
<g id="edge1" class="edge">
<title>Node1&#45;&gt;Node2</title>
<path fill="none" stroke="midnightblue" d="M228.99,-66.21C220.22,-67.69 211.48,-69.16 203.09,-70.57"/>
<polygon fill="midnightblue" stroke="midnightblue" points="229.59,-69.66 238.87,-64.55 228.42,-62.76 229.59,-69.66"/>
</g>
<!-- Node4 -->
<g id="node4" class="node">
<title>Node4</title>
<g id="a_node4"><a xlink:href="classsignal__easel_1_1aprs_1_1telemetry_1_1Parameter.html#a7185c6d8a688c4ba8958cab70a76fc85" target="_top" xlink:title="Set the unit or label of the parameter.">
<polygon fill="none" stroke="black" points="77,-0.5 77,-41.5 203,-41.5 203,-0.5 77,-0.5"/>
<text text-anchor="start" x="85" y="-29.5" font-family="Helvetica,sans-Serif" font-size="10.00">signal_easel::aprs</text>
<text text-anchor="start" x="85" y="-18.5" font-family="Helvetica,sans-Serif" font-size="10.00">::telemetry::Parameter</text>
<text text-anchor="middle" x="140" y="-7.5" font-family="Helvetica,sans-Serif" font-size="10.00">::setUnitOrLabel</text>
</a>
</g>
</g>
<!-- Node1&#45;&gt;Node4 -->
<g id="edge3" class="edge">
<title>Node1&#45;&gt;Node4</title>
<path fill="none" stroke="midnightblue" d="M228.99,-35.79C220.22,-34.31 211.48,-32.84 203.09,-31.43"/>
<polygon fill="midnightblue" stroke="midnightblue" points="228.42,-39.24 238.87,-37.45 229.59,-32.34 228.42,-39.24"/>
</g>
<!-- Node3 -->
<g id="node3" class="node">
<title>Node3</title>
<g id="a_node3"><a xlink:href="aprs__telemetry__parameter__test_8cpp.html#ac38900cd6bed6380619d5666a4f834c1" target="_top" xlink:title=" ">
<polygon fill="none" stroke="black" points="0,-71.5 0,-90.5 41,-90.5 41,-71.5 0,-71.5"/>
<text text-anchor="middle" x="20.5" y="-78.5" font-family="Helvetica,sans-Serif" font-size="10.00">TEST</text>
</a>
</g>
</g>
<!-- Node2&#45;&gt;Node3 -->
<g id="edge2" class="edge">
<title>Node2&#45;&gt;Node3</title>
<path fill="none" stroke="midnightblue" d="M66.55,-81C57.23,-81 48.4,-81 41.06,-81"/>
<polygon fill="midnightblue" stroke="midnightblue" points="66.81,-84.5 76.81,-81 66.81,-77.5 66.81,-84.5"/>
</g>
</g>
</svg>
