<?xml version="1.0" encoding="UTF-8" standalone="no"?>
<!DOCTYPE svg PUBLIC "-//W3C//DTD SVG 1.1//EN"
 "http://www.w3.org/Graphics/SVG/1.1/DTD/svg11.dtd">
<!-- Generated by graphviz version 2.43.0 (0)
 -->
<!-- Title: signal_easel::aprs::Demodulator Pages: 1 -->
<svg width="1242pt" height="1146pt"
 viewBox="0.00 0.00 1242.00 1146.00" xmlns="http://www.w3.org/2000/svg" xmlns:xlink="http://www.w3.org/1999/xlink">
<g id="graph0" class="graph" transform="scale(1 1) rotate(0) translate(4 1142)">
<title>signal_easel::aprs::Demodulator</title>
<!-- Node1 -->
<g id="node1" class="node">
<title>Node1</title>
<g id="a_node1"><a xlink:title=" ">
<polygon fill="#bfbfbf" stroke="black" points="745,-0.5 745,-167.5 904,-167.5 904,-0.5 745,-0.5"/>
<text text-anchor="start" x="753" y="-155.5" font-family="Helvetica,sans-Serif" font-size="10.00">signal_easel::aprs</text>
<text text-anchor="middle" x="824.5" y="-144.5" font-family="Helvetica,sans-Serif" font-size="10.00">::Demodulator</text>
<polyline fill="none" stroke="black" points="745,-137.5 904,-137.5 "/>
<text text-anchor="middle" x="824.5" y="-125.5" font-family="Helvetica,sans-Serif" font-size="10.00"> </text>
<polyline fill="none" stroke="black" points="745,-118.5 904,-118.5 "/>
<text text-anchor="start" x="753" y="-106.5" font-family="Helvetica,sans-Serif" font-size="10.00">+ Demodulator()</text>
<text text-anchor="start" x="753" y="-95.5" font-family="Helvetica,sans-Serif" font-size="10.00">+ getType()</text>
<text text-anchor="start" x="753" y="-84.5" font-family="Helvetica,sans-Serif" font-size="10.00">+ lookForAx25Packet()</text>
<text text-anchor="start" x="753" y="-73.5" font-family="Helvetica,sans-Serif" font-size="10.00">+ lookForNextAx25Packet()</text>
<text text-anchor="start" x="753" y="-62.5" font-family="Helvetica,sans-Serif" font-size="10.00">+ parseExperimentalPacket()</text>
<text text-anchor="start" x="753" y="-51.5" font-family="Helvetica,sans-Serif" font-size="10.00">+ parseMessagePacket()</text>
<text text-anchor="start" x="753" y="-40.5" font-family="Helvetica,sans-Serif" font-size="10.00">+ parsePositionPacket()</text>
<text text-anchor="start" x="753" y="-29.5" font-family="Helvetica,sans-Serif" font-size="10.00">+ parseTelemetryPacket()</text>
<text text-anchor="start" x="753" y="-18.5" font-family="Helvetica,sans-Serif" font-size="10.00">+ printFrame()</text>
<text text-anchor="start" x="753" y="-7.5" font-family="Helvetica,sans-Serif" font-size="10.00">&#45; populateGenericFields()</text>
</a>
</g>
</g>
<!-- Node2 -->
<g id="node2" class="node">
<title>Node2</title>
<g id="a_node2"><a xlink:href="classsignal__easel_1_1afsk_1_1Demodulator.html" target="_top" xlink:title="Demodulates an AFSK signal into data.">
<polygon fill="none" stroke="black" points="427.5,-331 427.5,-454 603.5,-454 603.5,-331 427.5,-331"/>
<text text-anchor="start" x="435.5" y="-442" font-family="Helvetica,sans-Serif" font-size="10.00">signal_easel::afsk</text>
<text text-anchor="middle" x="515.5" y="-431" font-family="Helvetica,sans-Serif" font-size="10.00">::Demodulator</text>
<polyline fill="none" stroke="black" points="427.5,-424 603.5,-424 "/>
<text text-anchor="middle" x="515.5" y="-412" font-family="Helvetica,sans-Serif" font-size="10.00"> </text>
<polyline fill="none" stroke="black" points="427.5,-405 603.5,-405 "/>
<text text-anchor="start" x="435.5" y="-393" font-family="Helvetica,sans-Serif" font-size="10.00">+ Demodulator()</text>
<text text-anchor="start" x="435.5" y="-382" font-family="Helvetica,sans-Serif" font-size="10.00">+ ~Demodulator()</text>
<text text-anchor="start" x="435.5" y="-371" font-family="Helvetica,sans-Serif" font-size="10.00">+ lookForString()</text>
<text text-anchor="start" x="435.5" y="-360" font-family="Helvetica,sans-Serif" font-size="10.00">+ processAudioBuffer()</text>
<text text-anchor="start" x="435.5" y="-349" font-family="Helvetica,sans-Serif" font-size="10.00">&#45; audioBufferToBaseBandSignal()</text>
<text text-anchor="start" x="435.5" y="-338" font-family="Helvetica,sans-Serif" font-size="10.00">&#45; baseBandToBitStream()</text>
</a>
</g>
</g>
<!-- Node2&#45;&gt;Node1 -->
<g id="edge1" class="edge">
<title>Node2&#45;&gt;Node1</title>
<path fill="none" stroke="midnightblue" d="M583.74,-323.81C631.31,-276.63 694.92,-213.53 744.82,-164.04"/>
<polygon fill="none" stroke="midnightblue" points="581.18,-321.42 576.55,-330.95 586.11,-326.39 581.18,-321.42"/>
</g>
<!-- Node3 -->
<g id="node3" class="node">
<title>Node3</title>
<g id="a_node3"><a xlink:href="classsignal__easel_1_1Demodulator.html" target="_top" xlink:title="The base class for all demodulators that turn audio into data.">
<polygon fill="none" stroke="black" points="451,-689 451,-790 598,-790 598,-689 451,-689"/>
<text text-anchor="middle" x="524.5" y="-778" font-family="Helvetica,sans-Serif" font-size="10.00">signal_easel::Demodulator</text>
<polyline fill="none" stroke="black" points="451,-771 598,-771 "/>
<text text-anchor="middle" x="524.5" y="-759" font-family="Helvetica,sans-Serif" font-size="10.00"> </text>
<polyline fill="none" stroke="black" points="451,-752 598,-752 "/>
<text text-anchor="start" x="459" y="-740" font-family="Helvetica,sans-Serif" font-size="10.00">+ Demodulator()</text>
<text text-anchor="start" x="459" y="-729" font-family="Helvetica,sans-Serif" font-size="10.00">+ ~Demodulator()</text>
<text text-anchor="start" x="459" y="-718" font-family="Helvetica,sans-Serif" font-size="10.00">+ clearBuffer()</text>
<text text-anchor="start" x="459" y="-707" font-family="Helvetica,sans-Serif" font-size="10.00">+ loadAudioFromFile()</text>
<text text-anchor="start" x="459" y="-696" font-family="Helvetica,sans-Serif" font-size="10.00"># getAudioBuffer()</text>
</a>
</g>
</g>
<!-- Node3&#45;&gt;Node2 -->
<g id="edge2" class="edge">
<title>Node3&#45;&gt;Node2</title>
<path fill="none" stroke="midnightblue" d="M522.94,-678.53C521.29,-615.59 518.73,-517.18 517.08,-454.03"/>
<polygon fill="none" stroke="midnightblue" points="519.44,-678.8 523.2,-688.7 526.44,-678.61 519.44,-678.8"/>
</g>
<!-- Node4 -->
<g id="node4" class="node">
<title>Node4</title>
<g id="a_node4"><a xlink:href="structsignal__easel_1_1Settings.html" target="_top" xlink:title="The universal settings for MWAV.">
<polygon fill="none" stroke="black" points="422,-953.5 422,-1010.5 545,-1010.5 545,-953.5 422,-953.5"/>
<text text-anchor="middle" x="483.5" y="-998.5" font-family="Helvetica,sans-Serif" font-size="10.00">signal_easel::Settings</text>
<polyline fill="none" stroke="black" points="422,-991.5 545,-991.5 "/>
<text text-anchor="middle" x="483.5" y="-979.5" font-family="Helvetica,sans-Serif" font-size="10.00"> </text>
<polyline fill="none" stroke="black" points="422,-972.5 545,-972.5 "/>
<text text-anchor="middle" x="483.5" y="-960.5" font-family="Helvetica,sans-Serif" font-size="10.00"> </text>
</a>
</g>
</g>
<!-- Node4&#45;&gt;Node3 -->
<g id="edge3" class="edge">
<title>Node4&#45;&gt;Node3</title>
<path fill="none" stroke="#404040" d="M482.96,-953.44C482.91,-928.37 483.96,-890.45 489.5,-858 492.67,-839.41 497.84,-819.62 503.25,-801.68"/>
<polygon fill="none" stroke="#404040" points="503.25,-801.65 501.21,-794.73 506.81,-790.19 508.85,-797.1 503.25,-801.65"/>
<text text-anchor="middle" x="517.5" y="-894" font-family="Helvetica,sans-Serif" font-size="10.00"> #settings_</text>
</g>
<!-- Node14 -->
<g id="node14" class="node">
<title>Node14</title>
<g id="a_node14"><a xlink:href="structsignal__easel_1_1afsk_1_1Settings.html" target="_top" xlink:title="Settings for AFSK modulation/demodulation.">
<polygon fill="none" stroke="black" points="328.5,-705.5 328.5,-773.5 432.5,-773.5 432.5,-705.5 328.5,-705.5"/>
<text text-anchor="start" x="336.5" y="-761.5" font-family="Helvetica,sans-Serif" font-size="10.00">signal_easel::afsk</text>
<text text-anchor="middle" x="380.5" y="-750.5" font-family="Helvetica,sans-Serif" font-size="10.00">::Settings</text>
<polyline fill="none" stroke="black" points="328.5,-743.5 432.5,-743.5 "/>
<text text-anchor="middle" x="380.5" y="-731.5" font-family="Helvetica,sans-Serif" font-size="10.00"> </text>
<polyline fill="none" stroke="black" points="328.5,-724.5 432.5,-724.5 "/>
<text text-anchor="middle" x="380.5" y="-712.5" font-family="Helvetica,sans-Serif" font-size="10.00"> </text>
</a>
</g>
</g>
<!-- Node4&#45;&gt;Node14 -->
<g id="edge14" class="edge">
<title>Node4&#45;&gt;Node14</title>
<path fill="none" stroke="midnightblue" d="M472.31,-943.51C464.56,-918.85 453.5,-886.08 441.5,-858 428.99,-828.73 412.16,-796.74 399.35,-773.54"/>
<polygon fill="none" stroke="midnightblue" points="469.01,-944.69 475.32,-953.2 475.69,-942.61 469.01,-944.69"/>
</g>
<!-- Node5 -->
<g id="node5" class="node">
<title>Node5</title>
<g id="a_node5"><a xlink:title=" ">
<polygon fill="none" stroke="black" points="871.5,-1080.5 871.5,-1137.5 915.5,-1137.5 915.5,-1080.5 871.5,-1080.5"/>
<text text-anchor="middle" x="893.5" y="-1125.5" font-family="Helvetica,sans-Serif" font-size="10.00">string</text>
<polyline fill="none" stroke="black" points="871.5,-1118.5 915.5,-1118.5 "/>
<text text-anchor="middle" x="893.5" y="-1106.5" font-family="Helvetica,sans-Serif" font-size="10.00"> </text>
<polyline fill="none" stroke="black" points="871.5,-1099.5 915.5,-1099.5 "/>
<text text-anchor="middle" x="893.5" y="-1087.5" font-family="Helvetica,sans-Serif" font-size="10.00"> </text>
</a>
</g>
</g>
<!-- Node5&#45;&gt;Node4 -->
<g id="edge4" class="edge">
<title>Node5&#45;&gt;Node4</title>
<path fill="none" stroke="#404040" d="M871.32,-1101.68C804.72,-1082.72 608.36,-1026.77 556.85,-1011.35"/>
<polygon fill="none" stroke="#404040" points="556.79,-1011.34 549.88,-1013.38 545.33,-1007.79 552.24,-1005.74 556.79,-1011.34"/>
<text text-anchor="middle" x="755" y="-1043" font-family="Helvetica,sans-Serif" font-size="10.00"> +call_sign</text>
</g>
<!-- Node18 -->
<g id="node18" class="node">
<title>Node18</title>
<g id="a_node18"><a xlink:href="classsignal__easel_1_1ax25_1_1Address.html" target="_top" xlink:title="AX.25 Address class. For encoding and decoding AX.25 addresses.">
<polygon fill="none" stroke="black" points="871,-639.5 871,-839.5 1032,-839.5 1032,-639.5 871,-639.5"/>
<text text-anchor="start" x="879" y="-827.5" font-family="Helvetica,sans-Serif" font-size="10.00">signal_easel::ax25</text>
<text text-anchor="middle" x="951.5" y="-816.5" font-family="Helvetica,sans-Serif" font-size="10.00">::Address</text>
<polyline fill="none" stroke="black" points="871,-809.5 1032,-809.5 "/>
<text text-anchor="middle" x="951.5" y="-797.5" font-family="Helvetica,sans-Serif" font-size="10.00"> </text>
<polyline fill="none" stroke="black" points="871,-790.5 1032,-790.5 "/>
<text text-anchor="start" x="879" y="-778.5" font-family="Helvetica,sans-Serif" font-size="10.00">+ Address()</text>
<text text-anchor="start" x="879" y="-767.5" font-family="Helvetica,sans-Serif" font-size="10.00">+ Address()</text>
<text text-anchor="start" x="879" y="-756.5" font-family="Helvetica,sans-Serif" font-size="10.00">+ Address()</text>
<text text-anchor="start" x="879" y="-745.5" font-family="Helvetica,sans-Serif" font-size="10.00">+ assertIsValid()</text>
<text text-anchor="start" x="879" y="-734.5" font-family="Helvetica,sans-Serif" font-size="10.00">+ decodeAddress()</text>
<text text-anchor="start" x="879" y="-723.5" font-family="Helvetica,sans-Serif" font-size="10.00">+ encodeAddress()</text>
<text text-anchor="start" x="879" y="-712.5" font-family="Helvetica,sans-Serif" font-size="10.00">+ getAddressString()</text>
<text text-anchor="start" x="879" y="-701.5" font-family="Helvetica,sans-Serif" font-size="10.00">+ getSsid()</text>
<text text-anchor="start" x="879" y="-690.5" font-family="Helvetica,sans-Serif" font-size="10.00">+ isAddressStringValid()</text>
<text text-anchor="start" x="879" y="-679.5" font-family="Helvetica,sans-Serif" font-size="10.00">+ isCommandOrResponse()</text>
<text text-anchor="start" x="879" y="-668.5" font-family="Helvetica,sans-Serif" font-size="10.00">and 8 more...</text>
<text text-anchor="start" x="879" y="-657.5" font-family="Helvetica,sans-Serif" font-size="10.00">&#45; assertAddressStringIsValid()</text>
<text text-anchor="start" x="879" y="-646.5" font-family="Helvetica,sans-Serif" font-size="10.00">&#45; assertSsidIsValid()</text>
</a>
</g>
</g>
<!-- Node5&#45;&gt;Node18 -->
<g id="edge19" class="edge">
<title>Node5&#45;&gt;Node18</title>
<path fill="none" stroke="#404040" d="M900.85,-1080.34C909.63,-1046.36 924.16,-986.83 932.5,-935 936.82,-908.16 940.3,-879.06 943.04,-851.75"/>
<polygon fill="none" stroke="#404040" points="943.04,-851.7 939.64,-845.34 944.2,-839.75 947.6,-846.11 943.04,-851.7"/>
<text text-anchor="middle" x="970.5" y="-979.5" font-family="Helvetica,sans-Serif" font-size="10.00"> &#45;address_string_</text>
</g>
<!-- Node6 -->
<g id="node6" class="node">
<title>Node6</title>
<g id="a_node6"><a xlink:title=" ">
<polygon fill="none" stroke="black" points="384,-1080.5 384,-1137.5 467,-1137.5 467,-1080.5 384,-1080.5"/>
<text text-anchor="middle" x="425.5" y="-1125.5" font-family="Helvetica,sans-Serif" font-size="10.00">CallSignMode</text>
<polyline fill="none" stroke="black" points="384,-1118.5 467,-1118.5 "/>
<text text-anchor="middle" x="425.5" y="-1106.5" font-family="Helvetica,sans-Serif" font-size="10.00"> </text>
<polyline fill="none" stroke="black" points="384,-1099.5 467,-1099.5 "/>
<text text-anchor="middle" x="425.5" y="-1087.5" font-family="Helvetica,sans-Serif" font-size="10.00"> </text>
</a>
</g>
</g>
<!-- Node6&#45;&gt;Node4 -->
<g id="edge5" class="edge">
<title>Node6&#45;&gt;Node4</title>
<path fill="none" stroke="#404040" d="M418.12,-1080.29C415.41,-1064.47 414.66,-1044.72 422.5,-1029 424.16,-1025.66 426.19,-1022.51 428.49,-1019.53"/>
<polygon fill="none" stroke="#404040" points="428.54,-1019.49 429.63,-1012.36 436.63,-1010.63 435.54,-1017.76 428.54,-1019.49"/>
<text text-anchor="middle" x="466.5" y="-1043" font-family="Helvetica,sans-Serif" font-size="10.00"> +call_sign_mode</text>
</g>
<!-- Node7 -->
<g id="node7" class="node">
<title>Node7</title>
<g id="a_node7"><a xlink:title=" ">
<polygon fill="none" stroke="black" points="511.5,-1080.5 511.5,-1137.5 561.5,-1137.5 561.5,-1080.5 511.5,-1080.5"/>
<text text-anchor="middle" x="536.5" y="-1125.5" font-family="Helvetica,sans-Serif" font-size="10.00">double</text>
<polyline fill="none" stroke="black" points="511.5,-1118.5 561.5,-1118.5 "/>
<text text-anchor="middle" x="536.5" y="-1106.5" font-family="Helvetica,sans-Serif" font-size="10.00"> </text>
<polyline fill="none" stroke="black" points="511.5,-1099.5 561.5,-1099.5 "/>
<text text-anchor="middle" x="536.5" y="-1087.5" font-family="Helvetica,sans-Serif" font-size="10.00"> </text>
</a>
</g>
</g>
<!-- Node7&#45;&gt;Node4 -->
<g id="edge6" class="edge">
<title>Node7&#45;&gt;Node4</title>
<path fill="none" stroke="#404040" d="M531.06,-1080.18C527.46,-1064.68 522.02,-1045.29 514.5,-1029 513.31,-1026.42 511.98,-1023.82 510.56,-1021.24"/>
<polygon fill="none" stroke="#404040" points="510.51,-1021.16 504,-1018.07 504.34,-1010.87 510.86,-1013.96 510.51,-1021.16"/>
<text text-anchor="middle" x="569.5" y="-1054" font-family="Helvetica,sans-Serif" font-size="10.00"> +amplitude</text>
<text text-anchor="start" x="526.5" y="-1043" font-family="Helvetica,sans-Serif" font-size="10.00">+call_sign_pause</text>
<text text-anchor="middle" x="569.5" y="-1032" font-family="Helvetica,sans-Serif" font-size="10.00">_seconds</text>
</g>
<!-- Node8 -->
<g id="node8" class="node">
<title>Node8</title>
<g id="a_node8"><a xlink:title=" ">
<polygon fill="none" stroke="black" points="563.5,-953.5 563.5,-1010.5 667.5,-1010.5 667.5,-953.5 563.5,-953.5"/>
<text text-anchor="middle" x="615.5" y="-998.5" font-family="Helvetica,sans-Serif" font-size="10.00">vector&lt; int16_t &gt;</text>
<polyline fill="none" stroke="black" points="563.5,-991.5 667.5,-991.5 "/>
<text text-anchor="middle" x="615.5" y="-979.5" font-family="Helvetica,sans-Serif" font-size="10.00"> </text>
<polyline fill="none" stroke="black" points="563.5,-972.5 667.5,-972.5 "/>
<text text-anchor="middle" x="615.5" y="-960.5" font-family="Helvetica,sans-Serif" font-size="10.00"> </text>
</a>
</g>
</g>
<!-- Node8&#45;&gt;Node3 -->
<g id="edge7" class="edge">
<title>Node8&#45;&gt;Node3</title>
<path fill="none" stroke="#404040" d="M582.33,-953.47C577.08,-947.82 572.17,-941.58 568.5,-935 561.96,-923.29 547.22,-854.52 536.6,-802.04"/>
<polygon fill="none" stroke="#404040" points="536.57,-801.87 531.46,-796.77 534.2,-790.1 539.31,-795.2 536.57,-801.87"/>
<text text-anchor="middle" x="607.5" y="-894" font-family="Helvetica,sans-Serif" font-size="10.00"> #audio_buffer_</text>
</g>
<!-- Node9 -->
<g id="node9" class="node">
<title>Node9</title>
<g id="a_node9"><a xlink:href="classsignal__easel_1_1BitStream.html" target="_top" xlink:title=" ">
<polygon fill="none" stroke="black" points="115,-645 115,-834 262,-834 262,-645 115,-645"/>
<text text-anchor="middle" x="188.5" y="-822" font-family="Helvetica,sans-Serif" font-size="10.00">signal_easel::BitStream</text>
<polyline fill="none" stroke="black" points="115,-815 262,-815 "/>
<text text-anchor="middle" x="188.5" y="-803" font-family="Helvetica,sans-Serif" font-size="10.00"> </text>
<polyline fill="none" stroke="black" points="115,-796 262,-796 "/>
<text text-anchor="start" x="123" y="-784" font-family="Helvetica,sans-Serif" font-size="10.00">+ addBits()</text>
<text text-anchor="start" x="123" y="-773" font-family="Helvetica,sans-Serif" font-size="10.00">+ addOneBit()</text>
<text text-anchor="start" x="123" y="-762" font-family="Helvetica,sans-Serif" font-size="10.00">+ addZeroBit()</text>
<text text-anchor="start" x="123" y="-751" font-family="Helvetica,sans-Serif" font-size="10.00">+ clear()</text>
<text text-anchor="start" x="123" y="-740" font-family="Helvetica,sans-Serif" font-size="10.00">+ dumpBitStream()</text>
<text text-anchor="start" x="123" y="-729" font-family="Helvetica,sans-Serif" font-size="10.00">+ dumpBitStreamAsAscii()</text>
<text text-anchor="start" x="123" y="-718" font-family="Helvetica,sans-Serif" font-size="10.00">+ dumpBitStreamAsHex()</text>
<text text-anchor="start" x="123" y="-707" font-family="Helvetica,sans-Serif" font-size="10.00">+ getBitStreamLength()</text>
<text text-anchor="start" x="123" y="-696" font-family="Helvetica,sans-Serif" font-size="10.00">+ getBitVector()</text>
<text text-anchor="start" x="123" y="-685" font-family="Helvetica,sans-Serif" font-size="10.00">+ peakNextBit()</text>
<text text-anchor="start" x="123" y="-674" font-family="Helvetica,sans-Serif" font-size="10.00">+ peakNextByte()</text>
<text text-anchor="start" x="123" y="-663" font-family="Helvetica,sans-Serif" font-size="10.00">+ popNextBit()</text>
<text text-anchor="start" x="123" y="-652" font-family="Helvetica,sans-Serif" font-size="10.00">+ pushBufferToBitStream()</text>
</a>
</g>
</g>
<!-- Node9&#45;&gt;Node2 -->
<g id="edge8" class="edge">
<title>Node9&#45;&gt;Node2</title>
<path fill="none" stroke="#404040" d="M262.28,-650.72C280.35,-629.88 299.87,-607.92 318.5,-588 358.47,-545.27 404.98,-499.2 442.76,-462.62"/>
<polygon fill="none" stroke="#404040" points="443.04,-462.35 444.58,-455.31 451.68,-454.01 450.14,-461.06 443.04,-462.35"/>
<text text-anchor="middle" x="371.5" y="-602" font-family="Helvetica,sans-Serif" font-size="10.00"> #output_bit_stream_</text>
</g>
<!-- Node10 -->
<g id="node10" class="node">
<title>Node10</title>
<g id="a_node10"><a xlink:title=" ">
<polygon fill="none" stroke="black" points="201.5,-953.5 201.5,-1010.5 311.5,-1010.5 311.5,-953.5 201.5,-953.5"/>
<text text-anchor="middle" x="256.5" y="-998.5" font-family="Helvetica,sans-Serif" font-size="10.00">vector&lt; uint32_t &gt;</text>
<polyline fill="none" stroke="black" points="201.5,-991.5 311.5,-991.5 "/>
<text text-anchor="middle" x="256.5" y="-979.5" font-family="Helvetica,sans-Serif" font-size="10.00"> </text>
<polyline fill="none" stroke="black" points="201.5,-972.5 311.5,-972.5 "/>
<text text-anchor="middle" x="256.5" y="-960.5" font-family="Helvetica,sans-Serif" font-size="10.00"> </text>
</a>
</g>
</g>
<!-- Node10&#45;&gt;Node9 -->
<g id="edge9" class="edge">
<title>Node10&#45;&gt;Node9</title>
<path fill="none" stroke="#404040" d="M253.13,-953.29C249.69,-928.13 243.57,-890.15 234.5,-858 233.36,-853.98 232.14,-849.9 230.85,-845.8"/>
<polygon fill="none" stroke="#404040" points="230.8,-845.62 225.13,-841.17 227.06,-834.22 232.73,-838.68 230.8,-845.62"/>
<text text-anchor="middle" x="283" y="-894" font-family="Helvetica,sans-Serif" font-size="10.00"> &#45;bit_stream_</text>
</g>
<!-- Node11 -->
<g id="node11" class="node">
<title>Node11</title>
<g id="a_node11"><a xlink:title=" ">
<polygon fill="none" stroke="black" points="0,-953.5 0,-1010.5 29,-1010.5 29,-953.5 0,-953.5"/>
<text text-anchor="middle" x="14.5" y="-998.5" font-family="Helvetica,sans-Serif" font-size="10.00">int</text>
<polyline fill="none" stroke="black" points="0,-991.5 29,-991.5 "/>
<text text-anchor="middle" x="14.5" y="-979.5" font-family="Helvetica,sans-Serif" font-size="10.00"> </text>
<polyline fill="none" stroke="black" points="0,-972.5 29,-972.5 "/>
<text text-anchor="middle" x="14.5" y="-960.5" font-family="Helvetica,sans-Serif" font-size="10.00"> </text>
</a>
</g>
</g>
<!-- Node11&#45;&gt;Node9 -->
<g id="edge10" class="edge">
<title>Node11&#45;&gt;Node9</title>
<path fill="none" stroke="#404040" d="M11.87,-953.38C10.69,-927.08 12.43,-887.27 29.5,-858 47.13,-827.76 75.94,-802.97 104.24,-784.08"/>
<polygon fill="none" stroke="#404040" points="104.53,-783.89 107.4,-777.28 114.61,-777.39 111.74,-784.01 104.53,-783.89"/>
<text text-anchor="middle" x="78" y="-910.5" font-family="Helvetica,sans-Serif" font-size="10.00"> &#45;bit_stream_index_</text>
<text text-anchor="start" x="29.5" y="-899.5" font-family="Helvetica,sans-Serif" font-size="10.00">&#45;bit_stream_length</text>
<text text-anchor="middle" x="78" y="-888.5" font-family="Helvetica,sans-Serif" font-size="10.00">_</text>
<text text-anchor="middle" x="78" y="-877.5" font-family="Helvetica,sans-Serif" font-size="10.00">&#45;bit_stream_offset_</text>
</g>
<!-- Node12 -->
<g id="node12" class="node">
<title>Node12</title>
<g id="a_node12"><a xlink:title=" ">
<polygon fill="none" stroke="black" points="106.5,-953.5 106.5,-1010.5 162.5,-1010.5 162.5,-953.5 106.5,-953.5"/>
<text text-anchor="middle" x="134.5" y="-998.5" font-family="Helvetica,sans-Serif" font-size="10.00">uint32_t</text>
<polyline fill="none" stroke="black" points="106.5,-991.5 162.5,-991.5 "/>
<text text-anchor="middle" x="134.5" y="-979.5" font-family="Helvetica,sans-Serif" font-size="10.00"> </text>
<polyline fill="none" stroke="black" points="106.5,-972.5 162.5,-972.5 "/>
<text text-anchor="middle" x="134.5" y="-960.5" font-family="Helvetica,sans-Serif" font-size="10.00"> </text>
</a>
</g>
</g>
<!-- Node12&#45;&gt;Node9 -->
<g id="edge11" class="edge">
<title>Node12&#45;&gt;Node9</title>
<path fill="none" stroke="#404040" d="M131.49,-953.28C129.52,-928.11 128.45,-890.12 135.5,-858 136.39,-853.94 137.43,-849.86 138.59,-845.76"/>
<polygon fill="none" stroke="#404040" points="138.61,-845.71 136.57,-838.79 142.17,-834.25 144.21,-841.17 138.61,-845.71"/>
<text text-anchor="middle" x="185" y="-894" font-family="Helvetica,sans-Serif" font-size="10.00"> &#45;bit_stream_buffer_</text>
</g>
<!-- Node13 -->
<g id="node13" class="node">
<title>Node13</title>
<g id="a_node13"><a xlink:title=" ">
<polygon fill="none" stroke="black" points="616.5,-711 616.5,-768 720.5,-768 720.5,-711 616.5,-711"/>
<text text-anchor="middle" x="668.5" y="-756" font-family="Helvetica,sans-Serif" font-size="10.00">vector&lt; uint8_t &gt;</text>
<polyline fill="none" stroke="black" points="616.5,-749 720.5,-749 "/>
<text text-anchor="middle" x="668.5" y="-737" font-family="Helvetica,sans-Serif" font-size="10.00"> </text>
<polyline fill="none" stroke="black" points="616.5,-730 720.5,-730 "/>
<text text-anchor="middle" x="668.5" y="-718" font-family="Helvetica,sans-Serif" font-size="10.00"> </text>
</a>
</g>
</g>
<!-- Node13&#45;&gt;Node2 -->
<g id="edge12" class="edge">
<title>Node13&#45;&gt;Node2</title>
<path fill="none" stroke="#404040" d="M657.62,-710.62C647.53,-688.24 630.46,-657.59 606.5,-639 585.51,-622.72 566.75,-641.21 549.5,-621 513.47,-578.79 506.53,-515.36 507.73,-466.2"/>
<polygon fill="none" stroke="#404040" points="507.74,-466.02 503.97,-459.87 508.19,-454.03 511.96,-460.17 507.74,-466.02"/>
<text text-anchor="middle" x="599.5" y="-602" font-family="Helvetica,sans-Serif" font-size="10.00"> &#45;base_band_signal_</text>
</g>
<!-- Node17 -->
<g id="node17" class="node">
<title>Node17</title>
<g id="a_node17"><a xlink:href="classsignal__easel_1_1ax25_1_1Frame.html" target="_top" xlink:title=" ">
<polygon fill="none" stroke="black" points="738,-215.5 738,-569.5 911,-569.5 911,-215.5 738,-215.5"/>
<text text-anchor="start" x="746" y="-557.5" font-family="Helvetica,sans-Serif" font-size="10.00">signal_easel::ax25</text>
<text text-anchor="middle" x="824.5" y="-546.5" font-family="Helvetica,sans-Serif" font-size="10.00">::Frame</text>
<polyline fill="none" stroke="black" points="738,-539.5 911,-539.5 "/>
<text text-anchor="middle" x="824.5" y="-527.5" font-family="Helvetica,sans-Serif" font-size="10.00"> </text>
<polyline fill="none" stroke="black" points="738,-520.5 911,-520.5 "/>
<text text-anchor="start" x="746" y="-508.5" font-family="Helvetica,sans-Serif" font-size="10.00">+ Frame()</text>
<text text-anchor="start" x="746" y="-497.5" font-family="Helvetica,sans-Serif" font-size="10.00">+ buildFrame()</text>
<text text-anchor="start" x="746" y="-486.5" font-family="Helvetica,sans-Serif" font-size="10.00">+ encodeFrame()</text>
<text text-anchor="start" x="746" y="-475.5" font-family="Helvetica,sans-Serif" font-size="10.00">+ isFrameValid()</text>
<text text-anchor="start" x="746" y="-464.5" font-family="Helvetica,sans-Serif" font-size="10.00">+ parseBitStream()</text>
<text text-anchor="start" x="746" y="-453.5" font-family="Helvetica,sans-Serif" font-size="10.00">+ parseNrziDecodedBitStream()</text>
<text text-anchor="start" x="746" y="-442.5" font-family="Helvetica,sans-Serif" font-size="10.00">+ setDestinationAddress()</text>
<text text-anchor="start" x="746" y="-431.5" font-family="Helvetica,sans-Serif" font-size="10.00">+ getDestinationAddress()</text>
<text text-anchor="start" x="746" y="-420.5" font-family="Helvetica,sans-Serif" font-size="10.00">+ setSourceAddress()</text>
<text text-anchor="start" x="746" y="-409.5" font-family="Helvetica,sans-Serif" font-size="10.00">+ getSourceAddress()</text>
<text text-anchor="start" x="746" y="-398.5" font-family="Helvetica,sans-Serif" font-size="10.00">+ addRepeaterAddress()</text>
<text text-anchor="start" x="746" y="-387.5" font-family="Helvetica,sans-Serif" font-size="10.00">+ getRepeaterAddresses()</text>
<text text-anchor="start" x="746" y="-376.5" font-family="Helvetica,sans-Serif" font-size="10.00">+ setInformation()</text>
<text text-anchor="start" x="746" y="-365.5" font-family="Helvetica,sans-Serif" font-size="10.00">+ getInformation()</text>
<text text-anchor="start" x="746" y="-354.5" font-family="Helvetica,sans-Serif" font-size="10.00">+ getInformationRef()</text>
<text text-anchor="start" x="746" y="-343.5" font-family="Helvetica,sans-Serif" font-size="10.00">&#45; AddByteForFcs()</text>
<text text-anchor="start" x="746" y="-332.5" font-family="Helvetica,sans-Serif" font-size="10.00">&#45; addToBuildBuffer()</text>
<text text-anchor="start" x="746" y="-321.5" font-family="Helvetica,sans-Serif" font-size="10.00">&#45; calculateFcsOnBuildBuffer()</text>
<text text-anchor="start" x="746" y="-310.5" font-family="Helvetica,sans-Serif" font-size="10.00">* setDestinationAddress()</text>
<text text-anchor="start" x="746" y="-299.5" font-family="Helvetica,sans-Serif" font-size="10.00">* getDestinationAddress()</text>
<text text-anchor="start" x="746" y="-288.5" font-family="Helvetica,sans-Serif" font-size="10.00">* setSourceAddress()</text>
<text text-anchor="start" x="746" y="-277.5" font-family="Helvetica,sans-Serif" font-size="10.00">* getSourceAddress()</text>
<text text-anchor="start" x="746" y="-266.5" font-family="Helvetica,sans-Serif" font-size="10.00">* addRepeaterAddress()</text>
<text text-anchor="start" x="746" y="-255.5" font-family="Helvetica,sans-Serif" font-size="10.00">* getRepeaterAddresses()</text>
<text text-anchor="start" x="746" y="-244.5" font-family="Helvetica,sans-Serif" font-size="10.00">* setInformation()</text>
<text text-anchor="start" x="746" y="-233.5" font-family="Helvetica,sans-Serif" font-size="10.00">* getInformation()</text>
<text text-anchor="start" x="746" y="-222.5" font-family="Helvetica,sans-Serif" font-size="10.00">* getInformationRef()</text>
</a>
</g>
</g>
<!-- Node13&#45;&gt;Node17 -->
<g id="edge25" class="edge">
<title>Node13&#45;&gt;Node17</title>
<path fill="none" stroke="#404040" d="M672.93,-710.8C678.45,-679.99 689.28,-629.14 706.5,-588 713.85,-570.42 722.63,-552.57 732.02,-535.16"/>
<polygon fill="none" stroke="#404040" points="732.17,-534.9 731.55,-527.71 737.95,-524.38 738.56,-531.57 732.17,-534.9"/>
<text text-anchor="middle" x="741.5" y="-607.5" font-family="Helvetica,sans-Serif" font-size="10.00"> &#45;build_buffer_</text>
<text text-anchor="middle" x="741.5" y="-596.5" font-family="Helvetica,sans-Serif" font-size="10.00">&#45;information_</text>
</g>
<!-- Node14&#45;&gt;Node2 -->
<g id="edge13" class="edge">
<title>Node14&#45;&gt;Node2</title>
<path fill="none" stroke="#404040" d="M393.44,-705.42C414.93,-650.51 458.45,-539.3 487.29,-465.6"/>
<polygon fill="none" stroke="#404040" points="487.41,-465.28 485.87,-458.24 491.78,-454.11 493.32,-461.15 487.41,-465.28"/>
<text text-anchor="middle" x="475.5" y="-602" font-family="Helvetica,sans-Serif" font-size="10.00"> &#45;afsk_settings_</text>
</g>
<!-- Node15 -->
<g id="node15" class="node">
<title>Node15</title>
<g id="a_node15"><a xlink:title=" ">
<polygon fill="none" stroke="black" points="329.5,-953.5 329.5,-1010.5 403.5,-1010.5 403.5,-953.5 329.5,-953.5"/>
<text text-anchor="middle" x="366.5" y="-998.5" font-family="Helvetica,sans-Serif" font-size="10.00">BitEncoding</text>
<polyline fill="none" stroke="black" points="329.5,-991.5 403.5,-991.5 "/>
<text text-anchor="middle" x="366.5" y="-979.5" font-family="Helvetica,sans-Serif" font-size="10.00"> </text>
<polyline fill="none" stroke="black" points="329.5,-972.5 403.5,-972.5 "/>
<text text-anchor="middle" x="366.5" y="-960.5" font-family="Helvetica,sans-Serif" font-size="10.00"> </text>
</a>
</g>
</g>
<!-- Node15&#45;&gt;Node14 -->
<g id="edge15" class="edge">
<title>Node15&#45;&gt;Node14</title>
<path fill="none" stroke="#404040" d="M365.92,-953.13C365.59,-928.18 365.57,-890.62 367.5,-858 368.92,-834 371.76,-807.35 374.43,-785.52"/>
<polygon fill="none" stroke="#404040" points="374.43,-785.5 371.21,-779.05 375.93,-773.6 379.15,-780.05 374.43,-785.5"/>
<text text-anchor="middle" x="404.5" y="-894" font-family="Helvetica,sans-Serif" font-size="10.00"> +bit_encoding</text>
</g>
<!-- Node16 -->
<g id="node16" class="node">
<title>Node16</title>
<g id="a_node16"><a xlink:title=" ">
<polygon fill="none" stroke="black" points="738.5,-953.5 738.5,-1010.5 776.5,-1010.5 776.5,-953.5 738.5,-953.5"/>
<text text-anchor="middle" x="757.5" y="-998.5" font-family="Helvetica,sans-Serif" font-size="10.00">bool</text>
<polyline fill="none" stroke="black" points="738.5,-991.5 776.5,-991.5 "/>
<text text-anchor="middle" x="757.5" y="-979.5" font-family="Helvetica,sans-Serif" font-size="10.00"> </text>
<polyline fill="none" stroke="black" points="738.5,-972.5 776.5,-972.5 "/>
<text text-anchor="middle" x="757.5" y="-960.5" font-family="Helvetica,sans-Serif" font-size="10.00"> </text>
</a>
</g>
</g>
<!-- Node16&#45;&gt;Node14 -->
<g id="edge16" class="edge">
<title>Node16&#45;&gt;Node14</title>
<path fill="none" stroke="#404040" d="M738.25,-976.53C717.2,-970.62 684.01,-958.15 665.5,-935 643.49,-907.47 673.27,-880.93 646.5,-858 611.77,-828.25 480.39,-864.07 441.5,-840 421,-827.31 406.38,-804.93 396.6,-784.6"/>
<polygon fill="none" stroke="#404040" points="396.58,-784.54 390.47,-780.71 391.66,-773.59 397.77,-777.43 396.58,-784.54"/>
<text text-anchor="middle" x="725" y="-894" font-family="Helvetica,sans-Serif" font-size="10.00"> +include_ascii_padding</text>
</g>
<!-- Node16&#45;&gt;Node18 -->
<g id="edge21" class="edge">
<title>Node16&#45;&gt;Node18</title>
<path fill="none" stroke="#404040" d="M776.64,-955.55C780.94,-949.07 785.21,-941.97 788.5,-935 803.77,-902.71 786.95,-883.94 811.5,-858 825.64,-843.06 838.2,-850.47 860.42,-839.44"/>
<polygon fill="none" stroke="#404040" points="860.63,-839.31 863.75,-832.81 870.96,-833.19 867.83,-839.69 860.63,-839.31"/>
<text text-anchor="start" x="811.5" y="-927" font-family="Helvetica,sans-Serif" font-size="10.00"> &#45;command_or_response</text>
<text text-anchor="middle" x="872" y="-916" font-family="Helvetica,sans-Serif" font-size="10.00">_</text>
<text text-anchor="start" x="811.5" y="-905" font-family="Helvetica,sans-Serif" font-size="10.00">&#45;is_last_address</text>
<text text-anchor="middle" x="872" y="-894" font-family="Helvetica,sans-Serif" font-size="10.00">_</text>
<text text-anchor="start" x="811.5" y="-883" font-family="Helvetica,sans-Serif" font-size="10.00">&#45;reserve_bit</text>
<text text-anchor="middle" x="872" y="-872" font-family="Helvetica,sans-Serif" font-size="10.00">_1_</text>
<text text-anchor="middle" x="872" y="-861" font-family="Helvetica,sans-Serif" font-size="10.00">&#45;reserve_bit_2_</text>
</g>
<!-- Node17&#45;&gt;Node1 -->
<g id="edge17" class="edge">
<title>Node17&#45;&gt;Node1</title>
<path fill="none" stroke="#404040" d="M824.5,-215.43C824.5,-203.28 824.5,-191.33 824.5,-179.88"/>
<polygon fill="none" stroke="#404040" points="824.5,-179.68 820.5,-173.68 824.5,-167.68 828.5,-173.68 824.5,-179.68"/>
<text text-anchor="middle" x="845.5" y="-189" font-family="Helvetica,sans-Serif" font-size="10.00"> &#45;frame_</text>
</g>
<!-- Node18&#45;&gt;Node17 -->
<g id="edge18" class="edge">
<title>Node18&#45;&gt;Node17</title>
<path fill="none" stroke="#404040" d="M914.94,-639.17C908.17,-620.78 900.9,-601.03 893.53,-581.01"/>
<polygon fill="none" stroke="#404040" points="893.45,-580.79 887.62,-576.54 889.3,-569.53 895.13,-573.78 893.45,-580.79"/>
<text text-anchor="start" x="906.5" y="-613" font-family="Helvetica,sans-Serif" font-size="10.00"> &#45;destination_address</text>
<text text-anchor="middle" x="959.5" y="-602" font-family="Helvetica,sans-Serif" font-size="10.00">_</text>
<text text-anchor="middle" x="959.5" y="-591" font-family="Helvetica,sans-Serif" font-size="10.00">&#45;source_address_</text>
</g>
<!-- Node19 -->
<g id="node19" class="node">
<title>Node19</title>
<g id="a_node19"><a xlink:title=" ">
<polygon fill="none" stroke="black" points="1048.5,-953.5 1048.5,-1010.5 1098.5,-1010.5 1098.5,-953.5 1048.5,-953.5"/>
<text text-anchor="middle" x="1073.5" y="-998.5" font-family="Helvetica,sans-Serif" font-size="10.00">uint8_t</text>
<polyline fill="none" stroke="black" points="1048.5,-991.5 1098.5,-991.5 "/>
<text text-anchor="middle" x="1073.5" y="-979.5" font-family="Helvetica,sans-Serif" font-size="10.00"> </text>
<polyline fill="none" stroke="black" points="1048.5,-972.5 1098.5,-972.5 "/>
<text text-anchor="middle" x="1073.5" y="-960.5" font-family="Helvetica,sans-Serif" font-size="10.00"> </text>
</a>
</g>
</g>
<!-- Node19&#45;&gt;Node17 -->
<g id="edge24" class="edge">
<title>Node19&#45;&gt;Node17</title>
<path fill="none" stroke="#404040" d="M1074.25,-953.34C1075.14,-894.37 1073.43,-752.37 1041.5,-639 1034.66,-614.7 1036.59,-603.28 1016.5,-588 981.95,-561.72 955.6,-595.54 920.5,-570 920.4,-569.93 920.3,-569.85 920.2,-569.78"/>
<polygon fill="none" stroke="#404040" points="920.45,-569.98 913.26,-569.37 911.06,-562.51 918.25,-563.11 920.45,-569.98"/>
<text text-anchor="middle" x="1085.5" y="-737" font-family="Helvetica,sans-Serif" font-size="10.00"> &#45;pid_</text>
</g>
<!-- Node19&#45;&gt;Node18 -->
<g id="edge20" class="edge">
<title>Node19&#45;&gt;Node18</title>
<path fill="none" stroke="#404040" d="M1048.25,-962.48C1039.15,-954.8 1029.43,-945.28 1022.5,-935 1005.46,-909.74 991.93,-879.89 981.44,-851.26"/>
<polygon fill="none" stroke="#404040" points="981.43,-851.24 975.66,-846.93 977.42,-839.93 983.2,-844.25 981.43,-851.24"/>
<text text-anchor="middle" x="1038.5" y="-894" font-family="Helvetica,sans-Serif" font-size="10.00"> &#45;ssid_</text>
</g>
<!-- Node20 -->
<g id="node20" class="node">
<title>Node20</title>
<g id="a_node20"><a xlink:title=" ">
<polygon fill="none" stroke="black" points="1115,-705.5 1115,-773.5 1234,-773.5 1234,-705.5 1115,-705.5"/>
<text text-anchor="start" x="1123" y="-761.5" font-family="Helvetica,sans-Serif" font-size="10.00">vector&lt; signal_easel</text>
<text text-anchor="middle" x="1174.5" y="-750.5" font-family="Helvetica,sans-Serif" font-size="10.00">::ax25::Address &gt;</text>
<polyline fill="none" stroke="black" points="1115,-743.5 1234,-743.5 "/>
<text text-anchor="middle" x="1174.5" y="-731.5" font-family="Helvetica,sans-Serif" font-size="10.00"> </text>
<polyline fill="none" stroke="black" points="1115,-724.5 1234,-724.5 "/>
<text text-anchor="middle" x="1174.5" y="-712.5" font-family="Helvetica,sans-Serif" font-size="10.00"> </text>
</a>
</g>
</g>
<!-- Node20&#45;&gt;Node17 -->
<g id="edge22" class="edge">
<title>Node20&#45;&gt;Node17</title>
<path fill="none" stroke="#404040" d="M1164.05,-705.25C1151.03,-669.8 1125.14,-615.11 1082.5,-588 1024.47,-551.1 984.82,-604.44 921.59,-569.55"/>
<polygon fill="none" stroke="#404040" points="921.45,-569.47 914.24,-569.72 911.23,-563.17 918.44,-562.91 921.45,-569.47"/>
<text text-anchor="middle" x="1171" y="-602" font-family="Helvetica,sans-Serif" font-size="10.00"> &#45;repeater_addresses_</text>
</g>
<!-- Node21 -->
<g id="node21" class="node">
<title>Node21</title>
<g id="a_node21"><a xlink:title=" ">
<polygon fill="none" stroke="black" points="739,-711 739,-768 778,-768 778,-711 739,-711"/>
<text text-anchor="middle" x="758.5" y="-756" font-family="Helvetica,sans-Serif" font-size="10.00">Type</text>
<polyline fill="none" stroke="black" points="739,-749 778,-749 "/>
<text text-anchor="middle" x="758.5" y="-737" font-family="Helvetica,sans-Serif" font-size="10.00"> </text>
<polyline fill="none" stroke="black" points="739,-730 778,-730 "/>
<text text-anchor="middle" x="758.5" y="-718" font-family="Helvetica,sans-Serif" font-size="10.00"> </text>
</a>
</g>
</g>
<!-- Node21&#45;&gt;Node17 -->
<g id="edge23" class="edge">
<title>Node21&#45;&gt;Node17</title>
<path fill="none" stroke="#404040" d="M763.59,-710.75C769.14,-680.54 778.34,-630.81 786.5,-588 786.89,-585.94 787.29,-583.86 787.69,-581.78"/>
<polygon fill="none" stroke="#404040" points="787.74,-581.52 784.94,-574.88 790,-569.74 792.79,-576.38 787.74,-581.52"/>
<text text-anchor="middle" x="803.5" y="-602" font-family="Helvetica,sans-Serif" font-size="10.00"> &#45;type_</text>
</g>
<!-- Node22 -->
<g id="node22" class="node">
<title>Node22</title>
<g id="a_node22"><a xlink:title=" ">
<polygon fill="none" stroke="black" points="796.5,-711 796.5,-768 852.5,-768 852.5,-711 796.5,-711"/>
<text text-anchor="middle" x="824.5" y="-756" font-family="Helvetica,sans-Serif" font-size="10.00">uint16_t</text>
<polyline fill="none" stroke="black" points="796.5,-749 852.5,-749 "/>
<text text-anchor="middle" x="824.5" y="-737" font-family="Helvetica,sans-Serif" font-size="10.00"> </text>
<polyline fill="none" stroke="black" points="796.5,-730 852.5,-730 "/>
<text text-anchor="middle" x="824.5" y="-718" font-family="Helvetica,sans-Serif" font-size="10.00"> </text>
</a>
</g>
</g>
<!-- Node22&#45;&gt;Node17 -->
<g id="edge26" class="edge">
<title>Node22&#45;&gt;Node17</title>
<path fill="none" stroke="#404040" d="M824.5,-710.85C824.5,-681.61 824.5,-632.79 824.5,-582.09"/>
<polygon fill="none" stroke="#404040" points="824.5,-581.87 820.5,-575.87 824.5,-569.87 828.5,-575.87 824.5,-581.87"/>
<text text-anchor="middle" x="838" y="-602" font-family="Helvetica,sans-Serif" font-size="10.00"> &#45;fcs_</text>
</g>
<!-- Node23 -->
<g id="node23" class="node">
<title>Node23</title>
<g id="a_node23"><a xlink:title=" ">
<polygon fill="none" stroke="black" points="929,-364 929,-421 968,-421 968,-364 929,-364"/>
<text text-anchor="middle" x="948.5" y="-409" font-family="Helvetica,sans-Serif" font-size="10.00">Type</text>
<polyline fill="none" stroke="black" points="929,-402 968,-402 "/>
<text text-anchor="middle" x="948.5" y="-390" font-family="Helvetica,sans-Serif" font-size="10.00"> </text>
<polyline fill="none" stroke="black" points="929,-383 968,-383 "/>
<text text-anchor="middle" x="948.5" y="-371" font-family="Helvetica,sans-Serif" font-size="10.00"> </text>
</a>
</g>
</g>
<!-- Node23&#45;&gt;Node1 -->
<g id="edge27" class="edge">
<title>Node23&#45;&gt;Node1</title>
<path fill="none" stroke="#404040" d="M948.13,-363.79C946.77,-328.07 941.3,-264.65 920.5,-215 915.26,-202.49 908.58,-190.07 901.18,-178.15"/>
<polygon fill="none" stroke="#404040" points="901.02,-177.9 894.41,-175.03 894.52,-167.82 901.13,-170.69 901.02,-177.9"/>
<text text-anchor="middle" x="927.5" y="-189" font-family="Helvetica,sans-Serif" font-size="10.00"> &#45;type_</text>
</g>
</g>
</svg>
