<?xml version="1.0" encoding="UTF-8" standalone="no"?>
<!DOCTYPE svg PUBLIC "-//W3C//DTD SVG 1.1//EN"
 "http://www.w3.org/Graphics/SVG/1.1/DTD/svg11.dtd">
<!-- Generated by graphviz version 2.43.0 (0)
 -->
<!-- Title: signal_easel::aprs::Modulator::encodeMessageAck Pages: 1 -->
<svg width="1447pt" height="421pt"
 viewBox="0.00 0.00 1447.00 420.50" xmlns="http://www.w3.org/2000/svg" xmlns:xlink="http://www.w3.org/1999/xlink">
<g id="graph0" class="graph" transform="scale(1 1) rotate(0) translate(4 416.5)">
<title>signal_easel::aprs::Modulator::encodeMessageAck</title>
<!-- Node1 -->
<g id="node1" class="node">
<title>Node1</title>
<g id="a_node1"><a xlink:title=" ">
<polygon fill="#bfbfbf" stroke="black" points="0,-193.5 0,-223.5 175,-223.5 175,-193.5 0,-193.5"/>
<text text-anchor="start" x="8" y="-211.5" font-family="Helvetica,sans-Serif" font-size="10.00">signal_easel::aprs</text>
<text text-anchor="middle" x="87.5" y="-200.5" font-family="Helvetica,sans-Serif" font-size="10.00">::Modulator::encodeMessageAck</text>
</a>
</g>
</g>
<!-- Node2 -->
<g id="node2" class="node">
<title>Node2</title>
<g id="a_node2"><a xlink:href="structsignal__easel_1_1aprs_1_1MessageAck.html#a26778cade10dfac29dd3a5102ea3030f" target="_top" xlink:title=" ">
<polygon fill="none" stroke="black" points="223.5,-215.5 223.5,-245.5 348.5,-245.5 348.5,-215.5 223.5,-215.5"/>
<text text-anchor="start" x="231.5" y="-233.5" font-family="Helvetica,sans-Serif" font-size="10.00">signal_easel::aprs</text>
<text text-anchor="middle" x="286" y="-222.5" font-family="Helvetica,sans-Serif" font-size="10.00">::MessageAck::encode</text>
</a>
</g>
</g>
<!-- Node1&#45;&gt;Node2 -->
<g id="edge1" class="edge">
<title>Node1&#45;&gt;Node2</title>
<path fill="none" stroke="midnightblue" d="M175.26,-218.21C187.95,-219.63 200.9,-221.08 213.25,-222.47"/>
<polygon fill="midnightblue" stroke="midnightblue" points="213.13,-225.98 223.46,-223.61 213.91,-219.02 213.13,-225.98"/>
</g>
<!-- Node3 -->
<g id="node3" class="node">
<title>Node3</title>
<g id="a_node3"><a xlink:href="namespacesignal__easel.html#aad3ffdd47a4a03ed438e8c1ca9eef231" target="_top" xlink:title=" ">
<polygon fill="none" stroke="black" points="211,-177 211,-196 361,-196 361,-177 211,-177"/>
<text text-anchor="middle" x="286" y="-184" font-family="Helvetica,sans-Serif" font-size="10.00">signal_easel::encodePacket</text>
</a>
</g>
</g>
<!-- Node1&#45;&gt;Node3 -->
<g id="edge2" class="edge">
<title>Node1&#45;&gt;Node3</title>
<path fill="none" stroke="midnightblue" d="M175.26,-198.79C183.67,-197.85 192.18,-196.89 200.57,-195.95"/>
<polygon fill="midnightblue" stroke="midnightblue" points="201.16,-199.41 210.71,-194.82 200.38,-192.45 201.16,-199.41"/>
</g>
<!-- Node4 -->
<g id="node4" class="node">
<title>Node4</title>
<g id="a_node4"><a xlink:href="namespacesignal__easel.html#ada24f00bb5d1a1bb97976967185c7526" target="_top" xlink:title=" ">
<polygon fill="none" stroke="black" points="564,-338.5 564,-368.5 710,-368.5 710,-338.5 564,-338.5"/>
<text text-anchor="start" x="572" y="-356.5" font-family="Helvetica,sans-Serif" font-size="10.00">signal_easel::AddRequired</text>
<text text-anchor="middle" x="637" y="-345.5" font-family="Helvetica,sans-Serif" font-size="10.00">Fields</text>
</a>
</g>
</g>
<!-- Node3&#45;&gt;Node4 -->
<g id="edge3" class="edge">
<title>Node3&#45;&gt;Node4</title>
<path fill="none" stroke="midnightblue" d="M331.38,-196.03C341.27,-198.67 351.61,-201.83 361,-205.5 453.23,-241.54 553.83,-301.48 603.91,-332.88"/>
<polygon fill="midnightblue" stroke="midnightblue" points="602.34,-336.03 612.66,-338.4 606.07,-330.1 602.34,-336.03"/>
</g>
<!-- Node12 -->
<g id="node12" class="node">
<title>Node12</title>
<g id="a_node12"><a xlink:href="classsignal__easel_1_1ax25_1_1Frame.html#a2b4f6ebcb7592a7e5a21114c8fafa503" target="_top" xlink:title="A step beyond buildFrame. This function builds the frame, does the bit stuffing, adds the flags,...">
<polygon fill="none" stroke="black" points="400,-171.5 400,-201.5 525,-201.5 525,-171.5 400,-171.5"/>
<text text-anchor="start" x="408" y="-189.5" font-family="Helvetica,sans-Serif" font-size="10.00">signal_easel::ax25</text>
<text text-anchor="middle" x="462.5" y="-178.5" font-family="Helvetica,sans-Serif" font-size="10.00">::Frame::encodeFrame</text>
</a>
</g>
</g>
<!-- Node3&#45;&gt;Node12 -->
<g id="edge12" class="edge">
<title>Node3&#45;&gt;Node12</title>
<path fill="none" stroke="midnightblue" d="M361,-186.5C370.49,-186.5 380.18,-186.5 389.63,-186.5"/>
<polygon fill="midnightblue" stroke="midnightblue" points="389.76,-190 399.76,-186.5 389.76,-183 389.76,-190"/>
</g>
<!-- Node26 -->
<g id="node26" class="node">
<title>Node26</title>
<g id="a_node26"><a xlink:href="classsignal__easel_1_1ax25_1_1Frame.html#afc5c722b419621f2a4dccbe2208faea1" target="_top" xlink:title=" ">
<polygon fill="none" stroke="black" points="397,-122.5 397,-152.5 528,-152.5 528,-122.5 397,-122.5"/>
<text text-anchor="start" x="405" y="-140.5" font-family="Helvetica,sans-Serif" font-size="10.00">signal_easel::ax25</text>
<text text-anchor="middle" x="462.5" y="-129.5" font-family="Helvetica,sans-Serif" font-size="10.00">::Frame::setInformation</text>
</a>
</g>
</g>
<!-- Node3&#45;&gt;Node26 -->
<g id="edge30" class="edge">
<title>Node3&#45;&gt;Node26</title>
<path fill="none" stroke="midnightblue" d="M321.06,-176.94C342.96,-170.79 372.09,-162.61 398.14,-155.29"/>
<polygon fill="midnightblue" stroke="midnightblue" points="399.27,-158.61 407.95,-152.54 397.38,-151.87 399.27,-158.61"/>
</g>
<!-- Node5 -->
<g id="node5" class="node">
<title>Node5</title>
<g id="a_node5"><a xlink:href="namespacesignal__easel.html#ac803523134c5f20bcc98143397f8ff5d" target="_top" xlink:title=" ">
<polygon fill="none" stroke="black" points="747,-393 747,-412 915,-412 915,-393 747,-393"/>
<text text-anchor="middle" x="831" y="-400" font-family="Helvetica,sans-Serif" font-size="10.00">signal_easel::CheckPacketData</text>
</a>
</g>
</g>
<!-- Node4&#45;&gt;Node5 -->
<g id="edge4" class="edge">
<title>Node4&#45;&gt;Node5</title>
<path fill="none" stroke="midnightblue" d="M692.86,-368.56C709.87,-373.14 728.69,-378.12 746,-382.5 756.68,-385.21 768.15,-388.01 779.08,-390.62"/>
<polygon fill="midnightblue" stroke="midnightblue" points="778.39,-394.06 788.93,-392.97 780.01,-387.25 778.39,-394.06"/>
</g>
<!-- Node6 -->
<g id="node6" class="node">
<title>Node6</title>
<g id="a_node6"><a xlink:href="classsignal__easel_1_1ax25_1_1Frame.html#a57b163ece54317da8d95f3b18b47c23d" target="_top" xlink:title="setters/getters for the frame.">
<polygon fill="none" stroke="black" points="746,-343.5 746,-373.5 916,-373.5 916,-343.5 746,-343.5"/>
<text text-anchor="start" x="754" y="-361.5" font-family="Helvetica,sans-Serif" font-size="10.00">signal_easel::ax25</text>
<text text-anchor="middle" x="831" y="-350.5" font-family="Helvetica,sans-Serif" font-size="10.00">::Frame::setDestinationAddress</text>
</a>
</g>
</g>
<!-- Node4&#45;&gt;Node6 -->
<g id="edge5" class="edge">
<title>Node4&#45;&gt;Node6</title>
<path fill="none" stroke="midnightblue" d="M710.04,-355.38C718.45,-355.6 727.13,-355.82 735.78,-356.05"/>
<polygon fill="midnightblue" stroke="midnightblue" points="735.83,-359.55 745.92,-356.31 736.01,-352.55 735.83,-359.55"/>
</g>
<!-- Node11 -->
<g id="node11" class="node">
<title>Node11</title>
<g id="a_node11"><a xlink:href="classsignal__easel_1_1ax25_1_1Frame.html#a402d26a81f82bb5c477e8930b75a771e" target="_top" xlink:title=" ">
<polygon fill="none" stroke="black" points="758,-294.5 758,-324.5 904,-324.5 904,-294.5 758,-294.5"/>
<text text-anchor="start" x="766" y="-312.5" font-family="Helvetica,sans-Serif" font-size="10.00">signal_easel::ax25</text>
<text text-anchor="middle" x="831" y="-301.5" font-family="Helvetica,sans-Serif" font-size="10.00">::Frame::setSourceAddress</text>
</a>
</g>
</g>
<!-- Node4&#45;&gt;Node11 -->
<g id="edge10" class="edge">
<title>Node4&#45;&gt;Node11</title>
<path fill="none" stroke="midnightblue" d="M703.54,-338.48C719.98,-334.71 737.74,-330.64 754.62,-326.78"/>
<polygon fill="midnightblue" stroke="midnightblue" points="755.47,-330.17 764.43,-324.53 753.9,-323.35 755.47,-330.17"/>
</g>
<!-- Node7 -->
<g id="node7" class="node">
<title>Node7</title>
<g id="a_node7"><a xlink:href="classsignal__easel_1_1ax25_1_1Address.html#a7fa6b0ef4241413893f201660991e4ea" target="_top" xlink:title="Checks if the address is valid, if not throws an exception with a specific error code.">
<polygon fill="none" stroke="black" points="952,-291.5 952,-321.5 1082,-321.5 1082,-291.5 952,-291.5"/>
<text text-anchor="start" x="960" y="-309.5" font-family="Helvetica,sans-Serif" font-size="10.00">signal_easel::ax25</text>
<text text-anchor="middle" x="1017" y="-298.5" font-family="Helvetica,sans-Serif" font-size="10.00">::Address::assertIsValid</text>
</a>
</g>
</g>
<!-- Node6&#45;&gt;Node7 -->
<g id="edge6" class="edge">
<title>Node6&#45;&gt;Node7</title>
<path fill="none" stroke="midnightblue" d="M885.22,-343.46C906.49,-337.45 931.13,-330.48 953.26,-324.23"/>
<polygon fill="midnightblue" stroke="midnightblue" points="954.23,-327.59 962.9,-321.51 952.32,-320.86 954.23,-327.59"/>
</g>
<!-- Node8 -->
<g id="node8" class="node">
<title>Node8</title>
<g id="a_node8"><a xlink:href="classsignal__easel_1_1ax25_1_1Address.html#af34b361f739b7995e7816b7a04465828" target="_top" xlink:title=" ">
<polygon fill="none" stroke="black" points="1118,-286 1118,-327 1283,-327 1283,-286 1118,-286"/>
<text text-anchor="start" x="1126" y="-315" font-family="Helvetica,sans-Serif" font-size="10.00">signal_easel::ax25</text>
<text text-anchor="start" x="1126" y="-304" font-family="Helvetica,sans-Serif" font-size="10.00">::Address::assertAddressString</text>
<text text-anchor="middle" x="1200.5" y="-293" font-family="Helvetica,sans-Serif" font-size="10.00">IsValid</text>
</a>
</g>
</g>
<!-- Node7&#45;&gt;Node8 -->
<g id="edge7" class="edge">
<title>Node7&#45;&gt;Node8</title>
<path fill="none" stroke="midnightblue" d="M1082.25,-306.5C1090.53,-306.5 1099.13,-306.5 1107.75,-306.5"/>
<polygon fill="midnightblue" stroke="midnightblue" points="1107.85,-310 1117.85,-306.5 1107.85,-303 1107.85,-310"/>
</g>
<!-- Node9 -->
<g id="node9" class="node">
<title>Node9</title>
<g id="a_node9"><a xlink:href="classsignal__easel_1_1ax25_1_1Address.html#a8b44c6e311d3462bd86eda03c1d384f0" target="_top" xlink:title=" ">
<polygon fill="none" stroke="black" points="1125.5,-233.5 1125.5,-263.5 1275.5,-263.5 1275.5,-233.5 1125.5,-233.5"/>
<text text-anchor="start" x="1133.5" y="-251.5" font-family="Helvetica,sans-Serif" font-size="10.00">signal_easel::ax25</text>
<text text-anchor="middle" x="1200.5" y="-240.5" font-family="Helvetica,sans-Serif" font-size="10.00">::Address::assertSsidIsValid</text>
</a>
</g>
</g>
<!-- Node7&#45;&gt;Node9 -->
<g id="edge8" class="edge">
<title>Node7&#45;&gt;Node9</title>
<path fill="none" stroke="midnightblue" d="M1065.21,-291.41C1088.95,-283.83 1117.9,-274.58 1142.83,-266.61"/>
<polygon fill="midnightblue" stroke="midnightblue" points="1144.06,-269.89 1152.52,-263.51 1141.93,-263.22 1144.06,-269.89"/>
</g>
<!-- Node10 -->
<g id="node10" class="node">
<title>Node10</title>
<g id="a_node10"><a xlink:href="classsignal__easel_1_1ax25_1_1Address.html#ad66c149737cc4aa52ae9e8860176acf3" target="_top" xlink:title=" ">
<polygon fill="none" stroke="black" points="1319,-208.5 1319,-238.5 1439,-238.5 1439,-208.5 1319,-208.5"/>
<text text-anchor="start" x="1327" y="-226.5" font-family="Helvetica,sans-Serif" font-size="10.00">signal_easel::ax25</text>
<text text-anchor="middle" x="1379" y="-215.5" font-family="Helvetica,sans-Serif" font-size="10.00">::Address::isSsidValid</text>
</a>
</g>
</g>
<!-- Node9&#45;&gt;Node10 -->
<g id="edge9" class="edge">
<title>Node9&#45;&gt;Node10</title>
<path fill="none" stroke="midnightblue" d="M1275.58,-238.01C1286.64,-236.44 1297.99,-234.83 1308.93,-233.28"/>
<polygon fill="midnightblue" stroke="midnightblue" points="1309.43,-236.75 1318.84,-231.88 1308.45,-229.82 1309.43,-236.75"/>
</g>
<!-- Node11&#45;&gt;Node7 -->
<g id="edge11" class="edge">
<title>Node11&#45;&gt;Node7</title>
<path fill="none" stroke="midnightblue" d="M904.19,-308.32C916.46,-308.12 929.23,-307.91 941.56,-307.71"/>
<polygon fill="midnightblue" stroke="midnightblue" points="941.85,-311.21 951.79,-307.55 941.73,-304.21 941.85,-311.21"/>
</g>
<!-- Node13 -->
<g id="node13" class="node">
<title>Node13</title>
<g id="a_node13"><a xlink:href="classsignal__easel_1_1BitStream.html#a9df75eb28c03717c9fad2d30a85de6e6" target="_top" xlink:title=" ">
<polygon fill="none" stroke="black" points="765,-245.5 765,-275.5 897,-275.5 897,-245.5 765,-245.5"/>
<text text-anchor="start" x="773" y="-263.5" font-family="Helvetica,sans-Serif" font-size="10.00">signal_easel::BitStream</text>
<text text-anchor="middle" x="831" y="-252.5" font-family="Helvetica,sans-Serif" font-size="10.00">::addBits</text>
</a>
</g>
</g>
<!-- Node12&#45;&gt;Node13 -->
<g id="edge13" class="edge">
<title>Node12&#45;&gt;Node13</title>
<path fill="none" stroke="midnightblue" d="M473.28,-201.76C489.09,-224.84 522.69,-267.69 564,-284.5 624.1,-308.95 645.43,-290.89 710,-284.5 725.26,-282.99 741.46,-280.42 756.85,-277.51"/>
<polygon fill="midnightblue" stroke="midnightblue" points="757.69,-280.92 766.83,-275.56 756.34,-274.05 757.69,-280.92"/>
</g>
<!-- Node14 -->
<g id="node14" class="node">
<title>Node14</title>
<g id="a_node14"><a xlink:href="classsignal__easel_1_1BitStream.html#a81d4aea4c11f65e0c2b7ad2f0f0cc312" target="_top" xlink:title=" ">
<polygon fill="none" stroke="black" points="571,-245.5 571,-275.5 703,-275.5 703,-245.5 571,-245.5"/>
<text text-anchor="start" x="579" y="-263.5" font-family="Helvetica,sans-Serif" font-size="10.00">signal_easel::BitStream</text>
<text text-anchor="middle" x="637" y="-252.5" font-family="Helvetica,sans-Serif" font-size="10.00">::addOneBit</text>
</a>
</g>
</g>
<!-- Node12&#45;&gt;Node14 -->
<g id="edge14" class="edge">
<title>Node12&#45;&gt;Node14</title>
<path fill="none" stroke="midnightblue" d="M492.11,-201.58C511.99,-211.78 539.26,-225.22 564,-235.5 569.32,-237.71 574.92,-239.9 580.54,-242"/>
<polygon fill="midnightblue" stroke="midnightblue" points="579.39,-245.3 589.98,-245.44 581.79,-238.73 579.39,-245.3"/>
</g>
<!-- Node15 -->
<g id="node15" class="node">
<title>Node15</title>
<g id="a_node15"><a xlink:href="classsignal__easel_1_1BitStream.html#abb315beec8c4d88115d9d4ec5f082863" target="_top" xlink:title=" ">
<polygon fill="none" stroke="black" points="571,-196.5 571,-226.5 703,-226.5 703,-196.5 571,-196.5"/>
<text text-anchor="start" x="579" y="-214.5" font-family="Helvetica,sans-Serif" font-size="10.00">signal_easel::BitStream</text>
<text text-anchor="middle" x="637" y="-203.5" font-family="Helvetica,sans-Serif" font-size="10.00">::addZeroBit</text>
</a>
</g>
</g>
<!-- Node12&#45;&gt;Node15 -->
<g id="edge16" class="edge">
<title>Node12&#45;&gt;Node15</title>
<path fill="none" stroke="midnightblue" d="M525.29,-195.45C536.84,-197.13 549.04,-198.9 560.94,-200.62"/>
<polygon fill="midnightblue" stroke="midnightblue" points="560.46,-204.09 570.86,-202.06 561.46,-197.16 560.46,-204.09"/>
</g>
<!-- Node16 -->
<g id="node16" class="node">
<title>Node16</title>
<g id="a_node16"><a xlink:href="classsignal__easel_1_1ax25_1_1Frame.html#a24e7d5ffc6504a3380e97142d1bc084e" target="_top" xlink:title="Builds all internal portions of the frame. Doesn&#39;t include the flags.">
<polygon fill="none" stroke="black" points="580,-147.5 580,-177.5 694,-177.5 694,-147.5 580,-147.5"/>
<text text-anchor="start" x="588" y="-165.5" font-family="Helvetica,sans-Serif" font-size="10.00">signal_easel::ax25</text>
<text text-anchor="middle" x="637" y="-154.5" font-family="Helvetica,sans-Serif" font-size="10.00">::Frame::buildFrame</text>
</a>
</g>
</g>
<!-- Node12&#45;&gt;Node16 -->
<g id="edge18" class="edge">
<title>Node12&#45;&gt;Node16</title>
<path fill="none" stroke="midnightblue" d="M525.29,-177.9C539.74,-175.89 555.19,-173.74 569.83,-171.71"/>
<polygon fill="midnightblue" stroke="midnightblue" points="570.39,-175.16 579.81,-170.32 569.42,-168.23 570.39,-175.16"/>
</g>
<!-- Node23 -->
<g id="node23" class="node">
<title>Node23</title>
<g id="a_node23"><a xlink:href="classsignal__easel_1_1BitStream.html#aa97152ef51f73088e103a7951134aa85" target="_top" xlink:title=" ">
<polygon fill="none" stroke="black" points="571,-98.5 571,-128.5 703,-128.5 703,-98.5 571,-98.5"/>
<text text-anchor="start" x="579" y="-116.5" font-family="Helvetica,sans-Serif" font-size="10.00">signal_easel::BitStream</text>
<text text-anchor="middle" x="637" y="-105.5" font-family="Helvetica,sans-Serif" font-size="10.00">::getBitStreamLength</text>
</a>
</g>
</g>
<!-- Node12&#45;&gt;Node23 -->
<g id="edge27" class="edge">
<title>Node12&#45;&gt;Node23</title>
<path fill="none" stroke="midnightblue" d="M506.41,-171.38C513.74,-168.38 521.18,-165.04 528,-161.5 545.07,-152.64 546.73,-145.95 564,-137.5 567.73,-135.68 571.63,-133.94 575.6,-132.29"/>
<polygon fill="midnightblue" stroke="midnightblue" points="576.93,-135.53 584.97,-128.62 574.38,-129.01 576.93,-135.53"/>
</g>
<!-- Node24 -->
<g id="node24" class="node">
<title>Node24</title>
<g id="a_node24"><a xlink:href="classsignal__easel_1_1BitStream.html#a5b5339586e09ca5c25a7e9ded0118ffb" target="_top" xlink:title="Returns the next bit of the bit stream that will be encoded.">
<polygon fill="none" stroke="black" points="571,-49.5 571,-79.5 703,-79.5 703,-49.5 571,-49.5"/>
<text text-anchor="start" x="579" y="-67.5" font-family="Helvetica,sans-Serif" font-size="10.00">signal_easel::BitStream</text>
<text text-anchor="middle" x="637" y="-56.5" font-family="Helvetica,sans-Serif" font-size="10.00">::popNextBit</text>
</a>
</g>
</g>
<!-- Node12&#45;&gt;Node24 -->
<g id="edge28" class="edge">
<title>Node12&#45;&gt;Node24</title>
<path fill="none" stroke="midnightblue" d="M513.95,-171.34C519.03,-168.57 523.84,-165.31 528,-161.5 554.68,-137.08 536.74,-112.28 564,-88.5 565.49,-87.2 567.05,-85.97 568.67,-84.81"/>
<polygon fill="midnightblue" stroke="midnightblue" points="570.55,-87.77 577.21,-79.53 566.86,-81.81 570.55,-87.77"/>
</g>
<!-- Node25 -->
<g id="node25" class="node">
<title>Node25</title>
<g id="a_node25"><a xlink:href="namespacesignal__easel_1_1ax25.html#a56c64a06f2dc7d2d270c32e1063400ae" target="_top" xlink:title="Reverse a byte.">
<polygon fill="none" stroke="black" points="583.5,-0.5 583.5,-30.5 690.5,-30.5 690.5,-0.5 583.5,-0.5"/>
<text text-anchor="start" x="591.5" y="-18.5" font-family="Helvetica,sans-Serif" font-size="10.00">signal_easel::ax25</text>
<text text-anchor="middle" x="637" y="-7.5" font-family="Helvetica,sans-Serif" font-size="10.00">::reverseByte</text>
</a>
</g>
</g>
<!-- Node12&#45;&gt;Node25 -->
<g id="edge29" class="edge">
<title>Node12&#45;&gt;Node25</title>
<path fill="none" stroke="midnightblue" d="M515.58,-171.46C520.17,-168.68 524.42,-165.39 528,-161.5 566.29,-119.9 524.73,-80.17 564,-39.5 567.04,-36.35 570.5,-33.62 574.22,-31.25"/>
<polygon fill="midnightblue" stroke="midnightblue" points="576.18,-34.17 583.3,-26.33 572.84,-28.01 576.18,-34.17"/>
</g>
<!-- Node14&#45;&gt;Node13 -->
<g id="edge15" class="edge">
<title>Node14&#45;&gt;Node13</title>
<path fill="none" stroke="midnightblue" d="M703,-260.5C719.49,-260.5 737.34,-260.5 754.31,-260.5"/>
<polygon fill="midnightblue" stroke="midnightblue" points="754.74,-264 764.74,-260.5 754.74,-257 754.74,-264"/>
</g>
<!-- Node15&#45;&gt;Node13 -->
<g id="edge17" class="edge">
<title>Node15&#45;&gt;Node13</title>
<path fill="none" stroke="midnightblue" d="M696.91,-226.53C717.28,-231.73 740.27,-237.6 761.35,-242.98"/>
<polygon fill="midnightblue" stroke="midnightblue" points="760.65,-246.41 771.2,-245.49 762.38,-239.63 760.65,-246.41"/>
</g>
<!-- Node17 -->
<g id="node17" class="node">
<title>Node17</title>
<g id="a_node17"><a xlink:href="namespacesignal__easel_1_1ax25.html#a6d799107f96d783e620cd508488ab8eb" target="_top" xlink:title="Calculate the Frame Check Sequence (FCS) on a vector of bytes.">
<polygon fill="none" stroke="black" points="777.5,-196.5 777.5,-226.5 884.5,-226.5 884.5,-196.5 777.5,-196.5"/>
<text text-anchor="start" x="785.5" y="-214.5" font-family="Helvetica,sans-Serif" font-size="10.00">signal_easel::ax25</text>
<text text-anchor="middle" x="831" y="-203.5" font-family="Helvetica,sans-Serif" font-size="10.00">::calculateFcs</text>
</a>
</g>
</g>
<!-- Node16&#45;&gt;Node17 -->
<g id="edge19" class="edge">
<title>Node16&#45;&gt;Node17</title>
<path fill="none" stroke="midnightblue" d="M694.05,-176.8C717,-182.66 743.67,-189.47 767.27,-195.49"/>
<polygon fill="midnightblue" stroke="midnightblue" points="766.62,-198.94 777.17,-198.02 768.35,-192.15 766.62,-198.94"/>
</g>
<!-- Node18 -->
<g id="node18" class="node">
<title>Node18</title>
<g id="a_node18"><a xlink:href="classsignal__easel_1_1ax25_1_1Address.html#a0c31737081a9184b56dc32150b23cb0a" target="_top" xlink:title="Get the address as a byte array.">
<polygon fill="none" stroke="black" points="760,-147.5 760,-177.5 902,-177.5 902,-147.5 760,-147.5"/>
<text text-anchor="start" x="768" y="-165.5" font-family="Helvetica,sans-Serif" font-size="10.00">signal_easel::ax25</text>
<text text-anchor="middle" x="831" y="-154.5" font-family="Helvetica,sans-Serif" font-size="10.00">::Address::encodeAddress</text>
</a>
</g>
</g>
<!-- Node16&#45;&gt;Node18 -->
<g id="edge20" class="edge">
<title>Node16&#45;&gt;Node18</title>
<path fill="none" stroke="midnightblue" d="M694.05,-162.5C711.5,-162.5 731.1,-162.5 749.86,-162.5"/>
<polygon fill="midnightblue" stroke="midnightblue" points="749.88,-166 759.88,-162.5 749.88,-159 749.88,-166"/>
</g>
<!-- Node19 -->
<g id="node19" class="node">
<title>Node19</title>
<g id="a_node19"><a xlink:href="classsignal__easel_1_1ax25_1_1Frame.html#a640edeabbda34e78cc243e3561747bf9" target="_top" xlink:title=" ">
<polygon fill="none" stroke="black" points="770,-98.5 770,-128.5 892,-128.5 892,-98.5 770,-98.5"/>
<text text-anchor="start" x="778" y="-116.5" font-family="Helvetica,sans-Serif" font-size="10.00">signal_easel::ax25</text>
<text text-anchor="middle" x="831" y="-105.5" font-family="Helvetica,sans-Serif" font-size="10.00">::Frame::isFrameValid</text>
</a>
</g>
</g>
<!-- Node16&#45;&gt;Node19 -->
<g id="edge22" class="edge">
<title>Node16&#45;&gt;Node19</title>
<path fill="none" stroke="midnightblue" d="M694.05,-148.2C715.07,-142.83 739.2,-136.67 761.24,-131.05"/>
<polygon fill="midnightblue" stroke="midnightblue" points="762.38,-134.37 771.21,-128.5 760.65,-127.59 762.38,-134.37"/>
</g>
<!-- Node22 -->
<g id="node22" class="node">
<title>Node22</title>
<g id="a_node22"><a xlink:href="classsignal__easel_1_1ax25_1_1Address.html#a1a5bc573535cfc1f8723c121e3451e7c" target="_top" xlink:title="Set the as the last address in the AX.25 frame (Sets a bit in the ssid byte)">
<polygon fill="none" stroke="black" points="756,-49.5 756,-79.5 906,-79.5 906,-49.5 756,-49.5"/>
<text text-anchor="start" x="764" y="-67.5" font-family="Helvetica,sans-Serif" font-size="10.00">signal_easel::ax25</text>
<text text-anchor="middle" x="831" y="-56.5" font-family="Helvetica,sans-Serif" font-size="10.00">::Address::setIsLastAddress</text>
</a>
</g>
</g>
<!-- Node16&#45;&gt;Node22 -->
<g id="edge26" class="edge">
<title>Node16&#45;&gt;Node22</title>
<path fill="none" stroke="midnightblue" d="M692.86,-147.45C698.92,-144.64 704.78,-141.35 710,-137.5 731.74,-121.46 723.82,-103.93 746,-88.5 748.26,-86.93 750.62,-85.46 753.05,-84.09"/>
<polygon fill="midnightblue" stroke="midnightblue" points="754.78,-87.14 762.15,-79.53 751.64,-80.88 754.78,-87.14"/>
</g>
<!-- Node18&#45;&gt;Node7 -->
<g id="edge21" class="edge">
<title>Node18&#45;&gt;Node7</title>
<path fill="none" stroke="midnightblue" d="M899.2,-177.67C905.09,-180.18 910.79,-183.11 916,-186.5 954.22,-211.39 985.38,-255.36 1002.26,-282.61"/>
<polygon fill="midnightblue" stroke="midnightblue" points="999.46,-284.74 1007.62,-291.49 1005.45,-281.12 999.46,-284.74"/>
</g>
<!-- Node20 -->
<g id="node20" class="node">
<title>Node20</title>
<g id="a_node20"><a xlink:href="classsignal__easel_1_1ax25_1_1Address.html#aae81920cfd0dc7d89cb107f9d825488c" target="_top" xlink:title="If the address is valid (can be encoded correctly or was decoded)">
<polygon fill="none" stroke="black" points="963.5,-122.5 963.5,-152.5 1070.5,-152.5 1070.5,-122.5 963.5,-122.5"/>
<text text-anchor="start" x="971.5" y="-140.5" font-family="Helvetica,sans-Serif" font-size="10.00">signal_easel::ax25</text>
<text text-anchor="middle" x="1017" y="-129.5" font-family="Helvetica,sans-Serif" font-size="10.00">::Address::isValid</text>
</a>
</g>
</g>
<!-- Node19&#45;&gt;Node20 -->
<g id="edge23" class="edge">
<title>Node19&#45;&gt;Node20</title>
<path fill="none" stroke="midnightblue" d="M892.25,-121.36C911.79,-123.91 933.52,-126.74 953.24,-129.31"/>
<polygon fill="midnightblue" stroke="midnightblue" points="952.99,-132.81 963.35,-130.63 953.89,-125.87 952.99,-132.81"/>
</g>
<!-- Node20&#45;&gt;Node10 -->
<g id="edge25" class="edge">
<title>Node20&#45;&gt;Node10</title>
<path fill="none" stroke="midnightblue" d="M1065.34,-152.54C1081.92,-157.59 1100.71,-163.05 1118,-167.5 1182.28,-184.04 1256.34,-199.66 1308.93,-210.18"/>
<polygon fill="midnightblue" stroke="midnightblue" points="1308.34,-213.63 1318.83,-212.15 1309.7,-206.76 1308.34,-213.63"/>
</g>
<!-- Node21 -->
<g id="node21" class="node">
<title>Node21</title>
<g id="a_node21"><a xlink:href="classsignal__easel_1_1ax25_1_1Address.html#a56c55b48bfc809a33aa0e22a5aeb95ca" target="_top" xlink:title=" ">
<polygon fill="none" stroke="black" points="1129,-117 1129,-158 1272,-158 1272,-117 1129,-117"/>
<text text-anchor="start" x="1137" y="-146" font-family="Helvetica,sans-Serif" font-size="10.00">signal_easel::ax25</text>
<text text-anchor="start" x="1137" y="-135" font-family="Helvetica,sans-Serif" font-size="10.00">::Address::isAddressString</text>
<text text-anchor="middle" x="1200.5" y="-124" font-family="Helvetica,sans-Serif" font-size="10.00">Valid</text>
</a>
</g>
</g>
<!-- Node20&#45;&gt;Node21 -->
<g id="edge24" class="edge">
<title>Node20&#45;&gt;Node21</title>
<path fill="none" stroke="midnightblue" d="M1070.99,-137.5C1085.98,-137.5 1102.64,-137.5 1118.87,-137.5"/>
<polygon fill="midnightblue" stroke="midnightblue" points="1118.89,-141 1128.89,-137.5 1118.89,-134 1118.89,-141"/>
</g>
</g>
</svg>
