<?xml version="1.0" encoding="UTF-8" standalone="no"?>
<!DOCTYPE svg PUBLIC "-//W3C//DTD SVG 1.1//EN"
 "http://www.w3.org/Graphics/SVG/1.1/DTD/svg11.dtd">
<!-- Generated by graphviz version 2.43.0 (0)
 -->
<!-- Title: signal_easel::aprs::telemetry::Parameter::getType Pages: 1 -->
<svg width="407pt" height="230pt"
 viewBox="0.00 0.00 407.00 230.00" xmlns="http://www.w3.org/2000/svg" xmlns:xlink="http://www.w3.org/1999/xlink">
<g id="graph0" class="graph" transform="scale(1 1) rotate(0) translate(4 226)">
<title>signal_easel::aprs::telemetry::Parameter::getType</title>
<!-- Node1 -->
<g id="node1" class="node">
<title>Node1</title>
<g id="a_node1"><a xlink:title="Get the parameter type.">
<polygon fill="#bfbfbf" stroke="black" points="273,-90.5 273,-131.5 399,-131.5 399,-90.5 273,-90.5"/>
<text text-anchor="start" x="281" y="-119.5" font-family="Helvetica,sans-Serif" font-size="10.00">signal_easel::aprs</text>
<text text-anchor="start" x="281" y="-108.5" font-family="Helvetica,sans-Serif" font-size="10.00">::telemetry::Parameter</text>
<text text-anchor="middle" x="336" y="-97.5" font-family="Helvetica,sans-Serif" font-size="10.00">::getType</text>
</a>
</g>
</g>
<!-- Node2 -->
<g id="node2" class="node">
<title>Node2</title>
<g id="a_node2"><a xlink:href="classsignal__easel_1_1aprs_1_1telemetry_1_1AnalogParameter.html#a175b3e9aec5a216c07dddee5288f0a5e" target="_top" xlink:title="An analog parameter.">
<polygon fill="none" stroke="black" points="77,-180.5 77,-221.5 237,-221.5 237,-180.5 77,-180.5"/>
<text text-anchor="start" x="85" y="-209.5" font-family="Helvetica,sans-Serif" font-size="10.00">signal_easel::aprs</text>
<text text-anchor="start" x="85" y="-198.5" font-family="Helvetica,sans-Serif" font-size="10.00">::telemetry::AnalogParameter</text>
<text text-anchor="middle" x="157" y="-187.5" font-family="Helvetica,sans-Serif" font-size="10.00">::AnalogParameter</text>
</a>
</g>
</g>
<!-- Node1&#45;&gt;Node2 -->
<g id="edge1" class="edge">
<title>Node1&#45;&gt;Node2</title>
<path fill="none" stroke="midnightblue" d="M295.69,-137.39C278.15,-148.54 256.98,-161.2 237,-171 230.28,-174.3 223.11,-177.47 215.92,-180.44"/>
<polygon fill="midnightblue" stroke="midnightblue" points="297.99,-140.07 304.5,-131.71 294.2,-134.18 297.99,-140.07"/>
</g>
<!-- Node3 -->
<g id="node3" class="node">
<title>Node3</title>
<g id="a_node3"><a xlink:href="classsignal__easel_1_1aprs_1_1telemetry_1_1DigitalParameter.html#ae3cb236259ebe6c50b2cb6574a56e0e4" target="_top" xlink:title="Construct a new DigitalParameter with the given ID.">
<polygon fill="none" stroke="black" points="78,-120.5 78,-161.5 236,-161.5 236,-120.5 78,-120.5"/>
<text text-anchor="start" x="86" y="-149.5" font-family="Helvetica,sans-Serif" font-size="10.00">signal_easel::aprs</text>
<text text-anchor="start" x="86" y="-138.5" font-family="Helvetica,sans-Serif" font-size="10.00">::telemetry::DigitalParameter</text>
<text text-anchor="middle" x="157" y="-127.5" font-family="Helvetica,sans-Serif" font-size="10.00">::DigitalParameter</text>
</a>
</g>
</g>
<!-- Node1&#45;&gt;Node3 -->
<g id="edge2" class="edge">
<title>Node1&#45;&gt;Node3</title>
<path fill="none" stroke="midnightblue" d="M262.55,-123.28C253.89,-124.75 245.01,-126.25 236.28,-127.73"/>
<polygon fill="midnightblue" stroke="midnightblue" points="263.32,-126.7 272.6,-121.58 262.15,-119.8 263.32,-126.7"/>
</g>
<!-- Node4 -->
<g id="node4" class="node">
<title>Node4</title>
<g id="a_node4"><a xlink:href="classsignal__easel_1_1aprs_1_1telemetry_1_1TelemetryData.html#a3a075430a16065933b221b207a160338" target="_top" xlink:title="Access an analog parameter.">
<polygon fill="none" stroke="black" points="83,-60.5 83,-101.5 231,-101.5 231,-60.5 83,-60.5"/>
<text text-anchor="start" x="91" y="-89.5" font-family="Helvetica,sans-Serif" font-size="10.00">signal_easel::aprs</text>
<text text-anchor="start" x="91" y="-78.5" font-family="Helvetica,sans-Serif" font-size="10.00">::telemetry::TelemetryData</text>
<text text-anchor="middle" x="157" y="-67.5" font-family="Helvetica,sans-Serif" font-size="10.00">::getAnalog</text>
</a>
</g>
</g>
<!-- Node1&#45;&gt;Node4 -->
<g id="edge3" class="edge">
<title>Node1&#45;&gt;Node4</title>
<path fill="none" stroke="midnightblue" d="M262.7,-98.75C252.25,-96.98 241.5,-95.15 231.04,-93.38"/>
<polygon fill="midnightblue" stroke="midnightblue" points="262.15,-102.2 272.6,-100.42 263.32,-95.3 262.15,-102.2"/>
</g>
<!-- Node6 -->
<g id="node6" class="node">
<title>Node6</title>
<g id="a_node6"><a xlink:href="classsignal__easel_1_1aprs_1_1telemetry_1_1TelemetryData.html#a290989d4a66c2ce645b8c0b592646033" target="_top" xlink:title="Access a digital parameter.">
<polygon fill="none" stroke="black" points="83,-0.5 83,-41.5 231,-41.5 231,-0.5 83,-0.5"/>
<text text-anchor="start" x="91" y="-29.5" font-family="Helvetica,sans-Serif" font-size="10.00">signal_easel::aprs</text>
<text text-anchor="start" x="91" y="-18.5" font-family="Helvetica,sans-Serif" font-size="10.00">::telemetry::TelemetryData</text>
<text text-anchor="middle" x="157" y="-7.5" font-family="Helvetica,sans-Serif" font-size="10.00">::getDigital</text>
</a>
</g>
</g>
<!-- Node1&#45;&gt;Node6 -->
<g id="edge5" class="edge">
<title>Node1&#45;&gt;Node6</title>
<path fill="none" stroke="midnightblue" d="M295.69,-84.61C278.15,-73.46 256.98,-60.8 237,-51 230.28,-47.7 223.11,-44.53 215.92,-41.56"/>
<polygon fill="midnightblue" stroke="midnightblue" points="294.2,-87.82 304.5,-90.29 297.99,-81.93 294.2,-87.82"/>
</g>
<!-- Node5 -->
<g id="node5" class="node">
<title>Node5</title>
<g id="a_node5"><a xlink:href="aprs__telemetry__data__test_8cpp.html#ade71374445747f9f2425736f69c56d8b" target="_top" xlink:title=" ">
<polygon fill="none" stroke="black" points="0,-71.5 0,-90.5 41,-90.5 41,-71.5 0,-71.5"/>
<text text-anchor="middle" x="20.5" y="-78.5" font-family="Helvetica,sans-Serif" font-size="10.00">TEST</text>
</a>
</g>
</g>
<!-- Node4&#45;&gt;Node5 -->
<g id="edge4" class="edge">
<title>Node4&#45;&gt;Node5</title>
<path fill="none" stroke="midnightblue" d="M72.83,-81C61.06,-81 49.98,-81 41.15,-81"/>
<polygon fill="midnightblue" stroke="midnightblue" points="72.85,-84.5 82.85,-81 72.85,-77.5 72.85,-84.5"/>
</g>
<!-- Node7 -->
<g id="node7" class="node">
<title>Node7</title>
<g id="a_node7"><a xlink:href="aprs__telemetry__data__test_8cpp.html#a8866f186b990f91021dde827f5dfec9b" target="_top" xlink:title=" ">
<polygon fill="none" stroke="black" points="0,-11.5 0,-30.5 41,-30.5 41,-11.5 0,-11.5"/>
<text text-anchor="middle" x="20.5" y="-18.5" font-family="Helvetica,sans-Serif" font-size="10.00">TEST</text>
</a>
</g>
</g>
<!-- Node6&#45;&gt;Node7 -->
<g id="edge6" class="edge">
<title>Node6&#45;&gt;Node7</title>
<path fill="none" stroke="midnightblue" d="M72.83,-21C61.06,-21 49.98,-21 41.15,-21"/>
<polygon fill="midnightblue" stroke="midnightblue" points="72.85,-24.5 82.85,-21 72.85,-17.5 72.85,-24.5"/>
</g>
</g>
</svg>
