<?xml version="1.0" encoding="UTF-8" standalone="no"?>
<!DOCTYPE svg PUBLIC "-//W3C//DTD SVG 1.1//EN"
 "http://www.w3.org/Graphics/SVG/1.1/DTD/svg11.dtd">
<!-- Generated by graphviz version 2.43.0 (0)
 -->
<!-- Title: signal_easel::afsk::Modulator Pages: 1 -->
<svg width="989pt" height="739pt"
 viewBox="0.00 0.00 989.41 739.00" xmlns="http://www.w3.org/2000/svg" xmlns:xlink="http://www.w3.org/1999/xlink">
<g id="graph0" class="graph" transform="scale(1 1) rotate(0) translate(4 735)">
<title>signal_easel::afsk::Modulator</title>
<!-- Node1 -->
<g id="node1" class="node">
<title>Node1</title>
<g id="a_node1"><a xlink:title="Modulates data into an AFSK signal.">
<polygon fill="#bfbfbf" stroke="black" points="535.41,-0.5 535.41,-101.5 639.41,-101.5 639.41,-0.5 535.41,-0.5"/>
<text text-anchor="start" x="543.41" y="-89.5" font-family="Helvetica,sans-Serif" font-size="10.00">signal_easel::afsk</text>
<text text-anchor="middle" x="587.41" y="-78.5" font-family="Helvetica,sans-Serif" font-size="10.00">::Modulator</text>
<polyline fill="none" stroke="black" points="535.41,-71.5 639.41,-71.5 "/>
<text text-anchor="middle" x="587.41" y="-59.5" font-family="Helvetica,sans-Serif" font-size="10.00"> </text>
<polyline fill="none" stroke="black" points="535.41,-52.5 639.41,-52.5 "/>
<text text-anchor="start" x="543.41" y="-40.5" font-family="Helvetica,sans-Serif" font-size="10.00">+ Modulator()</text>
<text text-anchor="start" x="543.41" y="-29.5" font-family="Helvetica,sans-Serif" font-size="10.00">+ ~Modulator()</text>
<text text-anchor="start" x="543.41" y="-18.5" font-family="Helvetica,sans-Serif" font-size="10.00"># encodeBytes()</text>
<text text-anchor="start" x="543.41" y="-7.5" font-family="Helvetica,sans-Serif" font-size="10.00">&#45; convertToNRZI()</text>
</a>
</g>
</g>
<!-- Node2 -->
<g id="node2" class="node">
<title>Node2</title>
<g id="a_node2"><a xlink:href="classsignal__easel_1_1DataModulator.html" target="_top" xlink:title="Another abstract base class for modulators that turn text/binary data into audio.">
<polygon fill="none" stroke="black" points="403.41,-193.5 403.41,-294.5 559.41,-294.5 559.41,-193.5 403.41,-193.5"/>
<text text-anchor="middle" x="481.41" y="-282.5" font-family="Helvetica,sans-Serif" font-size="10.00">signal_easel::DataModulator</text>
<polyline fill="none" stroke="black" points="403.41,-275.5 559.41,-275.5 "/>
<text text-anchor="middle" x="481.41" y="-263.5" font-family="Helvetica,sans-Serif" font-size="10.00"> </text>
<polyline fill="none" stroke="black" points="403.41,-256.5 559.41,-256.5 "/>
<text text-anchor="start" x="411.41" y="-244.5" font-family="Helvetica,sans-Serif" font-size="10.00">+ DataModulator()</text>
<text text-anchor="start" x="411.41" y="-233.5" font-family="Helvetica,sans-Serif" font-size="10.00">+ ~DataModulator()</text>
<text text-anchor="start" x="411.41" y="-222.5" font-family="Helvetica,sans-Serif" font-size="10.00">+ addBytes()</text>
<text text-anchor="start" x="411.41" y="-211.5" font-family="Helvetica,sans-Serif" font-size="10.00">+ addString()</text>
<text text-anchor="start" x="411.41" y="-200.5" font-family="Helvetica,sans-Serif" font-size="10.00"># encodeBytes()</text>
</a>
</g>
</g>
<!-- Node2&#45;&gt;Node1 -->
<g id="edge1" class="edge">
<title>Node2&#45;&gt;Node1</title>
<path fill="none" stroke="midnightblue" d="M513.87,-184.53C528.55,-158.06 545.73,-127.1 559.8,-101.77"/>
<polygon fill="none" stroke="midnightblue" points="510.78,-182.87 508.99,-193.32 516.9,-186.27 510.78,-182.87"/>
</g>
<!-- Node3 -->
<g id="node3" class="node">
<title>Node3</title>
<g id="a_node3"><a xlink:href="classsignal__easel_1_1Modulator.html" target="_top" xlink:title="The abstract base class for all modulators that turn data into audio.">
<polygon fill="none" stroke="black" points="338.41,-342.5 338.41,-498.5 490.41,-498.5 490.41,-342.5 338.41,-342.5"/>
<text text-anchor="middle" x="414.41" y="-486.5" font-family="Helvetica,sans-Serif" font-size="10.00">signal_easel::Modulator</text>
<polyline fill="none" stroke="black" points="338.41,-479.5 490.41,-479.5 "/>
<text text-anchor="middle" x="414.41" y="-467.5" font-family="Helvetica,sans-Serif" font-size="10.00"> </text>
<polyline fill="none" stroke="black" points="338.41,-460.5 490.41,-460.5 "/>
<text text-anchor="start" x="346.41" y="-448.5" font-family="Helvetica,sans-Serif" font-size="10.00">+ Modulator()</text>
<text text-anchor="start" x="346.41" y="-437.5" font-family="Helvetica,sans-Serif" font-size="10.00">+ ~Modulator()</text>
<text text-anchor="start" x="346.41" y="-426.5" font-family="Helvetica,sans-Serif" font-size="10.00">+ clearBuffer()</text>
<text text-anchor="start" x="346.41" y="-415.5" font-family="Helvetica,sans-Serif" font-size="10.00">+ writeToFile()</text>
<text text-anchor="start" x="346.41" y="-404.5" font-family="Helvetica,sans-Serif" font-size="10.00">+ writeToPulseAudio()</text>
<text text-anchor="start" x="346.41" y="-393.5" font-family="Helvetica,sans-Serif" font-size="10.00"># addAudioSample()</text>
<text text-anchor="start" x="346.41" y="-382.5" font-family="Helvetica,sans-Serif" font-size="10.00"># addAudioSampleDouble()</text>
<text text-anchor="start" x="346.41" y="-371.5" font-family="Helvetica,sans-Serif" font-size="10.00"># addSilence()</text>
<text text-anchor="start" x="346.41" y="-360.5" font-family="Helvetica,sans-Serif" font-size="10.00"># addSineWave()</text>
<text text-anchor="start" x="346.41" y="-349.5" font-family="Helvetica,sans-Serif" font-size="10.00">&#45; addMorseCode()</text>
</a>
</g>
</g>
<!-- Node3&#45;&gt;Node2 -->
<g id="edge2" class="edge">
<title>Node3&#45;&gt;Node2</title>
<path fill="none" stroke="midnightblue" d="M447.67,-332.89C452.72,-319.74 457.78,-306.56 462.39,-294.56"/>
<polygon fill="none" stroke="midnightblue" points="444.31,-331.86 444,-342.45 450.85,-334.37 444.31,-331.86"/>
</g>
<!-- Node4 -->
<g id="node4" class="node">
<title>Node4</title>
<g id="a_node4"><a xlink:href="structsignal__easel_1_1Settings.html" target="_top" xlink:title="The universal settings for MWAV.">
<polygon fill="none" stroke="black" points="173.91,-546.5 173.91,-603.5 296.91,-603.5 296.91,-546.5 173.91,-546.5"/>
<text text-anchor="middle" x="235.41" y="-591.5" font-family="Helvetica,sans-Serif" font-size="10.00">signal_easel::Settings</text>
<polyline fill="none" stroke="black" points="173.91,-584.5 296.91,-584.5 "/>
<text text-anchor="middle" x="235.41" y="-572.5" font-family="Helvetica,sans-Serif" font-size="10.00"> </text>
<polyline fill="none" stroke="black" points="173.91,-565.5 296.91,-565.5 "/>
<text text-anchor="middle" x="235.41" y="-553.5" font-family="Helvetica,sans-Serif" font-size="10.00"> </text>
</a>
</g>
</g>
<!-- Node4&#45;&gt;Node3 -->
<g id="edge3" class="edge">
<title>Node4&#45;&gt;Node3</title>
<path fill="none" stroke="#404040" d="M267.83,-546.38C285.11,-531.66 307.26,-512.79 329.08,-494.2"/>
<polygon fill="none" stroke="#404040" points="329.26,-494.05 331.23,-487.11 338.39,-486.27 336.42,-493.2 329.26,-494.05"/>
<text text-anchor="middle" x="327.41" y="-520" font-family="Helvetica,sans-Serif" font-size="10.00"> #settings_</text>
</g>
<!-- Node9 -->
<g id="node9" class="node">
<title>Node9</title>
<g id="a_node9"><a xlink:href="structsignal__easel_1_1afsk_1_1Settings.html" target="_top" xlink:title="Settings for AFSK modulation/demodulation.">
<polygon fill="none" stroke="black" points="51.41,-210 51.41,-278 155.41,-278 155.41,-210 51.41,-210"/>
<text text-anchor="start" x="59.41" y="-266" font-family="Helvetica,sans-Serif" font-size="10.00">signal_easel::afsk</text>
<text text-anchor="middle" x="103.41" y="-255" font-family="Helvetica,sans-Serif" font-size="10.00">::Settings</text>
<polyline fill="none" stroke="black" points="51.41,-248 155.41,-248 "/>
<text text-anchor="middle" x="103.41" y="-236" font-family="Helvetica,sans-Serif" font-size="10.00"> </text>
<polyline fill="none" stroke="black" points="51.41,-229 155.41,-229 "/>
<text text-anchor="middle" x="103.41" y="-217" font-family="Helvetica,sans-Serif" font-size="10.00"> </text>
</a>
</g>
</g>
<!-- Node4&#45;&gt;Node9 -->
<g id="edge10" class="edge">
<title>Node4&#45;&gt;Node9</title>
<path fill="none" stroke="midnightblue" d="M163.6,-569.08C115.6,-561.62 55.71,-543.33 24.41,-499 -15.82,-441.99 1.03,-407.74 24.41,-342 33,-317.85 50.46,-295.36 66.78,-278.12"/>
<polygon fill="none" stroke="midnightblue" points="163.25,-572.57 173.65,-570.51 164.24,-565.64 163.25,-572.57"/>
</g>
<!-- Node5 -->
<g id="node5" class="node">
<title>Node5</title>
<g id="a_node5"><a xlink:title=" ">
<polygon fill="none" stroke="black" points="135.41,-673.5 135.41,-730.5 179.41,-730.5 179.41,-673.5 135.41,-673.5"/>
<text text-anchor="middle" x="157.41" y="-718.5" font-family="Helvetica,sans-Serif" font-size="10.00">string</text>
<polyline fill="none" stroke="black" points="135.41,-711.5 179.41,-711.5 "/>
<text text-anchor="middle" x="157.41" y="-699.5" font-family="Helvetica,sans-Serif" font-size="10.00"> </text>
<polyline fill="none" stroke="black" points="135.41,-692.5 179.41,-692.5 "/>
<text text-anchor="middle" x="157.41" y="-680.5" font-family="Helvetica,sans-Serif" font-size="10.00"> </text>
</a>
</g>
</g>
<!-- Node5&#45;&gt;Node4 -->
<g id="edge4" class="edge">
<title>Node5&#45;&gt;Node4</title>
<path fill="none" stroke="#404040" d="M160.43,-673.3C163.19,-657.3 168.45,-637.36 178.41,-622 180.6,-618.64 183.1,-615.41 185.82,-612.33"/>
<polygon fill="none" stroke="#404040" points="186.07,-612.08 187.45,-605.01 194.51,-603.56 193.13,-610.63 186.07,-612.08"/>
<text text-anchor="middle" x="205.91" y="-636" font-family="Helvetica,sans-Serif" font-size="10.00"> +call_sign</text>
</g>
<!-- Node6 -->
<g id="node6" class="node">
<title>Node6</title>
<g id="a_node6"><a xlink:title=" ">
<polygon fill="none" stroke="black" points="197.91,-673.5 197.91,-730.5 280.91,-730.5 280.91,-673.5 197.91,-673.5"/>
<text text-anchor="middle" x="239.41" y="-718.5" font-family="Helvetica,sans-Serif" font-size="10.00">CallSignMode</text>
<polyline fill="none" stroke="black" points="197.91,-711.5 280.91,-711.5 "/>
<text text-anchor="middle" x="239.41" y="-699.5" font-family="Helvetica,sans-Serif" font-size="10.00"> </text>
<polyline fill="none" stroke="black" points="197.91,-692.5 280.91,-692.5 "/>
<text text-anchor="middle" x="239.41" y="-680.5" font-family="Helvetica,sans-Serif" font-size="10.00"> </text>
</a>
</g>
</g>
<!-- Node6&#45;&gt;Node4 -->
<g id="edge5" class="edge">
<title>Node6&#45;&gt;Node4</title>
<path fill="none" stroke="#404040" d="M238.53,-673.26C237.99,-656.35 237.29,-634.46 236.69,-615.73"/>
<polygon fill="none" stroke="#404040" points="236.68,-615.66 232.49,-609.79 236.3,-603.66 240.49,-609.53 236.68,-615.66"/>
<text text-anchor="middle" x="282.41" y="-636" font-family="Helvetica,sans-Serif" font-size="10.00"> +call_sign_mode</text>
</g>
<!-- Node7 -->
<g id="node7" class="node">
<title>Node7</title>
<g id="a_node7"><a xlink:title=" ">
<polygon fill="none" stroke="black" points="435.41,-673.5 435.41,-730.5 485.41,-730.5 485.41,-673.5 435.41,-673.5"/>
<text text-anchor="middle" x="460.41" y="-718.5" font-family="Helvetica,sans-Serif" font-size="10.00">double</text>
<polyline fill="none" stroke="black" points="435.41,-711.5 485.41,-711.5 "/>
<text text-anchor="middle" x="460.41" y="-699.5" font-family="Helvetica,sans-Serif" font-size="10.00"> </text>
<polyline fill="none" stroke="black" points="435.41,-692.5 485.41,-692.5 "/>
<text text-anchor="middle" x="460.41" y="-680.5" font-family="Helvetica,sans-Serif" font-size="10.00"> </text>
</a>
</g>
</g>
<!-- Node7&#45;&gt;Node1 -->
<g id="edge17" class="edge">
<title>Node7&#45;&gt;Node1</title>
<path fill="none" stroke="#404040" d="M485.51,-690.11C522.52,-672.16 587.41,-632.61 587.41,-576 587.41,-576 587.41,-576 587.41,-243 587.41,-199.95 587.41,-151.44 587.41,-114.09"/>
<polygon fill="none" stroke="#404040" points="587.41,-113.87 583.41,-107.87 587.41,-101.87 591.41,-107.87 587.41,-113.87"/>
<text text-anchor="start" x="587.41" y="-434.5" font-family="Helvetica,sans-Serif" font-size="10.00"> &#45;CENTER_OVER_SAMPLE</text>
<text text-anchor="middle" x="649.41" y="-423.5" font-family="Helvetica,sans-Serif" font-size="10.00">_FREQ_</text>
<text text-anchor="start" x="587.41" y="-412.5" font-family="Helvetica,sans-Serif" font-size="10.00">&#45;DELTA_OVER_SAMPLE</text>
<text text-anchor="middle" x="649.41" y="-401.5" font-family="Helvetica,sans-Serif" font-size="10.00">_FREQ_</text>
</g>
<!-- Node7&#45;&gt;Node3 -->
<g id="edge8" class="edge">
<title>Node7&#45;&gt;Node3</title>
<path fill="none" stroke="#404040" d="M460.43,-673.28C459.96,-637.01 457.47,-571.64 446.41,-517 445.98,-514.84 445.51,-512.67 445.01,-510.48"/>
<polygon fill="none" stroke="#404040" points="444.98,-510.36 439.64,-505.51 442.07,-498.72 447.4,-503.57 444.98,-510.36"/>
<text text-anchor="middle" x="507.91" y="-572.5" font-family="Helvetica,sans-Serif" font-size="10.00"> &#45;sine_wave_phase_</text>
</g>
<!-- Node7&#45;&gt;Node4 -->
<g id="edge6" class="edge">
<title>Node7&#45;&gt;Node4</title>
<path fill="none" stroke="#404040" d="M435.07,-692.58C413.9,-684.82 383.54,-671.94 360.41,-655 344.42,-643.29 346.29,-633.87 330.41,-622 323.45,-616.8 315.81,-611.94 307.97,-607.48"/>
<polygon fill="none" stroke="#404040" points="307.77,-607.37 300.59,-608.03 297.22,-601.66 304.4,-601 307.77,-607.37"/>
<text text-anchor="middle" x="403.41" y="-647" font-family="Helvetica,sans-Serif" font-size="10.00"> +amplitude</text>
<text text-anchor="start" x="360.41" y="-636" font-family="Helvetica,sans-Serif" font-size="10.00">+call_sign_pause</text>
<text text-anchor="middle" x="403.41" y="-625" font-family="Helvetica,sans-Serif" font-size="10.00">_seconds</text>
</g>
<!-- Node8 -->
<g id="node8" class="node">
<title>Node8</title>
<g id="a_node8"><a xlink:title=" ">
<polygon fill="none" stroke="black" points="315.41,-546.5 315.41,-603.5 419.41,-603.5 419.41,-546.5 315.41,-546.5"/>
<text text-anchor="middle" x="367.41" y="-591.5" font-family="Helvetica,sans-Serif" font-size="10.00">vector&lt; int16_t &gt;</text>
<polyline fill="none" stroke="black" points="315.41,-584.5 419.41,-584.5 "/>
<text text-anchor="middle" x="367.41" y="-572.5" font-family="Helvetica,sans-Serif" font-size="10.00"> </text>
<polyline fill="none" stroke="black" points="315.41,-565.5 419.41,-565.5 "/>
<text text-anchor="middle" x="367.41" y="-553.5" font-family="Helvetica,sans-Serif" font-size="10.00"> </text>
</a>
</g>
</g>
<!-- Node8&#45;&gt;Node3 -->
<g id="edge7" class="edge">
<title>Node8&#45;&gt;Node3</title>
<path fill="none" stroke="#404040" d="M365.53,-546.45C365.5,-537 366.17,-526.44 368.41,-517 368.96,-514.72 369.56,-512.42 370.21,-510.13"/>
<polygon fill="none" stroke="#404040" points="370.23,-510.09 368.25,-503.15 373.9,-498.66 375.87,-505.6 370.23,-510.09"/>
<text text-anchor="middle" x="407.41" y="-520" font-family="Helvetica,sans-Serif" font-size="10.00"> #audio_buffer_</text>
</g>
<!-- Node9&#45;&gt;Node1 -->
<g id="edge9" class="edge">
<title>Node9&#45;&gt;Node1</title>
<path fill="none" stroke="#404040" d="M125.28,-210C146.02,-181.48 179.85,-141.55 219.41,-120 316.16,-67.31 446.19,-54.59 522.97,-52"/>
<polygon fill="none" stroke="#404040" points="523.29,-51.99 529.17,-47.83 535.28,-51.66 529.4,-55.82 523.29,-51.99"/>
<text text-anchor="middle" x="245.41" y="-145" font-family="Helvetica,sans-Serif" font-size="10.00"> &#45;settings_</text>
</g>
<!-- Node10 -->
<g id="node10" class="node">
<title>Node10</title>
<g id="a_node10"><a xlink:title=" ">
<polygon fill="none" stroke="black" points="33.41,-392 33.41,-449 107.41,-449 107.41,-392 33.41,-392"/>
<text text-anchor="middle" x="70.41" y="-437" font-family="Helvetica,sans-Serif" font-size="10.00">BitEncoding</text>
<polyline fill="none" stroke="black" points="33.41,-430 107.41,-430 "/>
<text text-anchor="middle" x="70.41" y="-418" font-family="Helvetica,sans-Serif" font-size="10.00"> </text>
<polyline fill="none" stroke="black" points="33.41,-411 107.41,-411 "/>
<text text-anchor="middle" x="70.41" y="-399" font-family="Helvetica,sans-Serif" font-size="10.00"> </text>
</a>
</g>
</g>
<!-- Node10&#45;&gt;Node9 -->
<g id="edge11" class="edge">
<title>Node10&#45;&gt;Node9</title>
<path fill="none" stroke="#404040" d="M59.92,-391.8C53.21,-369.97 47.17,-338.98 55.41,-313 58.15,-304.38 62.42,-295.91 67.3,-288.04"/>
<polygon fill="none" stroke="#404040" points="67.31,-288.02 67.34,-280.81 74,-278.06 73.98,-285.27 67.31,-288.02"/>
<text text-anchor="middle" x="92.41" y="-316" font-family="Helvetica,sans-Serif" font-size="10.00"> +bit_encoding</text>
</g>
<!-- Node11 -->
<g id="node11" class="node">
<title>Node11</title>
<g id="a_node11"><a xlink:title=" ">
<polygon fill="none" stroke="black" points="199.41,-392 199.41,-449 237.41,-449 237.41,-392 199.41,-392"/>
<text text-anchor="middle" x="218.41" y="-437" font-family="Helvetica,sans-Serif" font-size="10.00">bool</text>
<polyline fill="none" stroke="black" points="199.41,-430 237.41,-430 "/>
<text text-anchor="middle" x="218.41" y="-418" font-family="Helvetica,sans-Serif" font-size="10.00"> </text>
<polyline fill="none" stroke="black" points="199.41,-411 237.41,-411 "/>
<text text-anchor="middle" x="218.41" y="-399" font-family="Helvetica,sans-Serif" font-size="10.00"> </text>
</a>
</g>
</g>
<!-- Node11&#45;&gt;Node1 -->
<g id="edge13" class="edge">
<title>Node11&#45;&gt;Node1</title>
<path fill="none" stroke="#404040" d="M237.02,-391.84C248.6,-373.37 262.87,-348.13 271.41,-324 291.14,-268.28 258.73,-240.13 294.41,-193 350.51,-118.91 455.61,-81.8 523.51,-64.75"/>
<polygon fill="none" stroke="#404040" points="523.65,-64.72 528.54,-59.42 535.31,-61.89 530.42,-67.19 523.65,-64.72"/>
<text text-anchor="start" x="294.41" y="-247" font-family="Helvetica,sans-Serif" font-size="10.00"> &#45;nrzi_previous_tone</text>
<text text-anchor="middle" x="344.41" y="-236" font-family="Helvetica,sans-Serif" font-size="10.00">_mark_</text>
</g>
<!-- Node11&#45;&gt;Node9 -->
<g id="edge12" class="edge">
<title>Node11&#45;&gt;Node9</title>
<path fill="none" stroke="#404040" d="M199.28,-392.57C185.9,-373.57 167.77,-347.43 152.41,-324 144.97,-312.63 137.12,-300.19 129.93,-288.62"/>
<polygon fill="none" stroke="#404040" points="129.86,-288.5 123.3,-285.49 123.56,-278.29 130.11,-281.29 129.86,-288.5"/>
<text text-anchor="middle" x="211.91" y="-316" font-family="Helvetica,sans-Serif" font-size="10.00"> +include_ascii_padding</text>
</g>
<!-- Node12 -->
<g id="node12" class="node">
<title>Node12</title>
<g id="a_node12"><a xlink:title=" ">
<polygon fill="none" stroke="black" points="615.41,-215.5 615.41,-272.5 659.41,-272.5 659.41,-215.5 615.41,-215.5"/>
<text text-anchor="middle" x="637.41" y="-260.5" font-family="Helvetica,sans-Serif" font-size="10.00">int8_t</text>
<polyline fill="none" stroke="black" points="615.41,-253.5 659.41,-253.5 "/>
<text text-anchor="middle" x="637.41" y="-241.5" font-family="Helvetica,sans-Serif" font-size="10.00"> </text>
<polyline fill="none" stroke="black" points="615.41,-234.5 659.41,-234.5 "/>
<text text-anchor="middle" x="637.41" y="-222.5" font-family="Helvetica,sans-Serif" font-size="10.00"> </text>
</a>
</g>
</g>
<!-- Node12&#45;&gt;Node1 -->
<g id="edge14" class="edge">
<title>Node12&#45;&gt;Node1</title>
<path fill="none" stroke="#404040" d="M630.14,-215.23C623.19,-188.66 612.47,-147.7 603.5,-113.46"/>
<polygon fill="none" stroke="#404040" points="603.45,-113.27 598.06,-108.48 600.41,-101.66 605.8,-106.45 603.45,-113.27"/>
<text text-anchor="start" x="617.41" y="-156" font-family="Helvetica,sans-Serif" font-size="10.00"> &#45;current_bipolar_bit</text>
<text text-anchor="middle" x="671.91" y="-145" font-family="Helvetica,sans-Serif" font-size="10.00">_</text>
<text text-anchor="middle" x="671.91" y="-134" font-family="Helvetica,sans-Serif" font-size="10.00">&#45;previous_bipolar_bit_</text>
</g>
<!-- Node13 -->
<g id="node13" class="node">
<title>Node13</title>
<g id="a_node13"><a xlink:title=" ">
<polygon fill="none" stroke="black" points="727.41,-215.5 727.41,-272.5 777.41,-272.5 777.41,-215.5 727.41,-215.5"/>
<text text-anchor="middle" x="752.41" y="-260.5" font-family="Helvetica,sans-Serif" font-size="10.00">int32_t</text>
<polyline fill="none" stroke="black" points="727.41,-253.5 777.41,-253.5 "/>
<text text-anchor="middle" x="752.41" y="-241.5" font-family="Helvetica,sans-Serif" font-size="10.00"> </text>
<polyline fill="none" stroke="black" points="727.41,-234.5 777.41,-234.5 "/>
<text text-anchor="middle" x="752.41" y="-222.5" font-family="Helvetica,sans-Serif" font-size="10.00"> </text>
</a>
</g>
</g>
<!-- Node13&#45;&gt;Node1 -->
<g id="edge15" class="edge">
<title>Node13&#45;&gt;Node1</title>
<path fill="none" stroke="#404040" d="M754.34,-215.47C754.78,-188.48 751.41,-147.5 730.41,-120 710.99,-94.55 679.65,-78.19 651.25,-67.9"/>
<polygon fill="none" stroke="#404040" points="651.08,-67.85 644.11,-69.71 639.72,-63.99 646.68,-62.13 651.08,-67.85"/>
<text text-anchor="middle" x="791.41" y="-145" font-family="Helvetica,sans-Serif" font-size="10.00"> &#45;integral_value_</text>
</g>
<!-- Node14 -->
<g id="node14" class="node">
<title>Node14</title>
<g id="a_node14"><a xlink:title=" ">
<polygon fill="none" stroke="black" points="829.41,-215.5 829.41,-272.5 885.41,-272.5 885.41,-215.5 829.41,-215.5"/>
<text text-anchor="middle" x="857.41" y="-260.5" font-family="Helvetica,sans-Serif" font-size="10.00">uint32_t</text>
<polyline fill="none" stroke="black" points="829.41,-253.5 885.41,-253.5 "/>
<text text-anchor="middle" x="857.41" y="-241.5" font-family="Helvetica,sans-Serif" font-size="10.00"> </text>
<polyline fill="none" stroke="black" points="829.41,-234.5 885.41,-234.5 "/>
<text text-anchor="middle" x="857.41" y="-222.5" font-family="Helvetica,sans-Serif" font-size="10.00"> </text>
</a>
</g>
</g>
<!-- Node14&#45;&gt;Node1 -->
<g id="edge16" class="edge">
<title>Node14&#45;&gt;Node1</title>
<path fill="none" stroke="#404040" d="M860.3,-215.41C861.6,-187.79 858.97,-145.79 835.41,-120 810.84,-93.09 716.78,-72.85 651.83,-61.72"/>
<polygon fill="none" stroke="#404040" points="651.5,-61.66 644.92,-64.62 639.67,-59.68 646.24,-56.73 651.5,-61.66"/>
<text text-anchor="start" x="858.41" y="-167" font-family="Helvetica,sans-Serif" font-size="10.00"> &#45;OVER_SAMPLE_FACTOR</text>
<text text-anchor="middle" x="919.91" y="-156" font-family="Helvetica,sans-Serif" font-size="10.00">_</text>
<text text-anchor="start" x="858.41" y="-145" font-family="Helvetica,sans-Serif" font-size="10.00">&#45;SAMPLES_PER_SYMBOL</text>
<text text-anchor="middle" x="919.91" y="-134" font-family="Helvetica,sans-Serif" font-size="10.00">_</text>
<text text-anchor="middle" x="919.91" y="-123" font-family="Helvetica,sans-Serif" font-size="10.00">&#45;SAMPLE_FREQUENCY_</text>
</g>
</g>
</svg>
