<?xml version="1.0" encoding="UTF-8" standalone="no"?>
<!DOCTYPE svg PUBLIC "-//W3C//DTD SVG 1.1//EN"
 "http://www.w3.org/Graphics/SVG/1.1/DTD/svg11.dtd">
<!-- Generated by graphviz version 2.43.0 (0)
 -->
<!-- Title: signal_easel::BitStream::popNextBit Pages: 1 -->
<svg width="812pt" height="284pt"
 viewBox="0.00 0.00 812.00 284.00" xmlns="http://www.w3.org/2000/svg" xmlns:xlink="http://www.w3.org/1999/xlink">
<g id="graph0" class="graph" transform="scale(1 1) rotate(0) translate(4 280)">
<title>signal_easel::BitStream::popNextBit</title>
<!-- Node1 -->
<g id="node1" class="node">
<title>Node1</title>
<g id="a_node1"><a xlink:title="Returns the next bit of the bit stream that will be encoded.">
<polygon fill="#bfbfbf" stroke="black" points="672,-122.5 672,-152.5 804,-152.5 804,-122.5 672,-122.5"/>
<text text-anchor="start" x="680" y="-140.5" font-family="Helvetica,sans-Serif" font-size="10.00">signal_easel::BitStream</text>
<text text-anchor="middle" x="738" y="-129.5" font-family="Helvetica,sans-Serif" font-size="10.00">::popNextBit</text>
</a>
</g>
</g>
<!-- Node2 -->
<g id="node2" class="node">
<title>Node2</title>
<g id="a_node2"><a xlink:href="namespacesignal__easel_1_1ax25.html#a84e1d1bf82ef828a150bc94cf065e396" target="_top" xlink:title="Convert a bit stream from NRZI to standard encoding.">
<polygon fill="none" stroke="black" points="516.5,-245.5 516.5,-275.5 623.5,-275.5 623.5,-245.5 516.5,-245.5"/>
<text text-anchor="start" x="524.5" y="-263.5" font-family="Helvetica,sans-Serif" font-size="10.00">signal_easel::ax25</text>
<text text-anchor="middle" x="570" y="-252.5" font-family="Helvetica,sans-Serif" font-size="10.00">::decodeNrzi</text>
</a>
</g>
</g>
<!-- Node1&#45;&gt;Node2 -->
<g id="edge1" class="edge">
<title>Node1&#45;&gt;Node2</title>
<path fill="none" stroke="midnightblue" d="M718.59,-160.49C699.85,-182.6 668.92,-215.65 636,-236.5 630.72,-239.85 624.9,-242.82 618.98,-245.44"/>
<polygon fill="midnightblue" stroke="midnightblue" points="721.45,-162.52 725.16,-152.6 716.07,-158.05 721.45,-162.52"/>
</g>
<!-- Node7 -->
<g id="node7" class="node">
<title>Node7</title>
<g id="a_node7"><a xlink:href="namespacesignal__easel_1_1ax25.html#aa3ad759477950552b79497f19c77ba0b" target="_top" xlink:title=" ">
<polygon fill="none" stroke="black" points="516.5,-196.5 516.5,-226.5 623.5,-226.5 623.5,-196.5 516.5,-196.5"/>
<text text-anchor="start" x="524.5" y="-214.5" font-family="Helvetica,sans-Serif" font-size="10.00">signal_easel::ax25</text>
<text text-anchor="middle" x="570" y="-203.5" font-family="Helvetica,sans-Serif" font-size="10.00">::deStuffBytes</text>
</a>
</g>
</g>
<!-- Node1&#45;&gt;Node7 -->
<g id="edge6" class="edge">
<title>Node1&#45;&gt;Node7</title>
<path fill="none" stroke="midnightblue" d="M699.51,-157.24C680.68,-166.86 657.37,-178.3 636,-187.5 628.93,-190.55 621.33,-193.57 613.91,-196.39"/>
<polygon fill="midnightblue" stroke="midnightblue" points="701.35,-160.23 708.65,-152.54 698.15,-154 701.35,-160.23"/>
</g>
<!-- Node8 -->
<g id="node8" class="node">
<title>Node8</title>
<g id="a_node8"><a xlink:href="classsignal__easel_1_1psk_1_1Modulator.html#a0949f7b7120c7a1b3c350681537e3181" target="_top" xlink:title=" ">
<polygon fill="none" stroke="black" points="504.5,-98.5 504.5,-128.5 635.5,-128.5 635.5,-98.5 504.5,-98.5"/>
<text text-anchor="start" x="512.5" y="-116.5" font-family="Helvetica,sans-Serif" font-size="10.00">signal_easel::psk::</text>
<text text-anchor="middle" x="570" y="-105.5" font-family="Helvetica,sans-Serif" font-size="10.00">Modulator::encodeBpsk</text>
</a>
</g>
</g>
<!-- Node1&#45;&gt;Node8 -->
<g id="edge8" class="edge">
<title>Node1&#45;&gt;Node8</title>
<path fill="none" stroke="midnightblue" d="M661.73,-126.62C653.03,-125.36 644.21,-124.09 635.67,-122.85"/>
<polygon fill="midnightblue" stroke="midnightblue" points="661.47,-130.12 671.87,-128.08 662.47,-123.19 661.47,-130.12"/>
</g>
<!-- Node11 -->
<g id="node11" class="node">
<title>Node11</title>
<g id="a_node11"><a xlink:href="classsignal__easel_1_1ax25_1_1Frame.html#a2b4f6ebcb7592a7e5a21114c8fafa503" target="_top" xlink:title="A step beyond buildFrame. This function builds the frame, does the bit stuffing, adds the flags,...">
<polygon fill="none" stroke="black" points="507.5,-0.5 507.5,-30.5 632.5,-30.5 632.5,-0.5 507.5,-0.5"/>
<text text-anchor="start" x="515.5" y="-18.5" font-family="Helvetica,sans-Serif" font-size="10.00">signal_easel::ax25</text>
<text text-anchor="middle" x="570" y="-7.5" font-family="Helvetica,sans-Serif" font-size="10.00">::Frame::encodeFrame</text>
</a>
</g>
</g>
<!-- Node1&#45;&gt;Node11 -->
<g id="edge11" class="edge">
<title>Node1&#45;&gt;Node11</title>
<path fill="none" stroke="midnightblue" d="M718.23,-114.39C699.42,-92.51 668.63,-60.05 636,-39.5 630.71,-36.17 624.88,-33.2 618.96,-30.58"/>
<polygon fill="midnightblue" stroke="midnightblue" points="715.71,-116.82 724.83,-122.2 721.06,-112.31 715.71,-116.82"/>
</g>
<!-- Node14 -->
<g id="node14" class="node">
<title>Node14</title>
<g id="a_node14"><a xlink:href="classsignal__easel_1_1psk_1_1Modulator.html#a60d1a9253af253f4b62b678b6fc2b21e" target="_top" xlink:title=" ">
<polygon fill="none" stroke="black" points="504,-49.5 504,-79.5 636,-79.5 636,-49.5 504,-49.5"/>
<text text-anchor="start" x="512" y="-67.5" font-family="Helvetica,sans-Serif" font-size="10.00">signal_easel::psk::</text>
<text text-anchor="middle" x="570" y="-56.5" font-family="Helvetica,sans-Serif" font-size="10.00">Modulator::encodeQpsk</text>
</a>
</g>
</g>
<!-- Node1&#45;&gt;Node14 -->
<g id="edge15" class="edge">
<title>Node1&#45;&gt;Node14</title>
<path fill="none" stroke="midnightblue" d="M697.74,-117.98C679.17,-108.98 656.6,-98.34 636,-89.5 628.22,-86.16 619.84,-82.78 611.76,-79.63"/>
<polygon fill="midnightblue" stroke="midnightblue" points="696.26,-121.16 706.78,-122.39 699.33,-114.86 696.26,-121.16"/>
</g>
<!-- Node15 -->
<g id="node15" class="node">
<title>Node15</title>
<g id="a_node15"><a xlink:href="namespacesignal__easel_1_1ax25.html#aedc3a21287bb20d2f0b01c9a2d6797f3" target="_top" xlink:title="Finds the start flags in the bit stream and removes them.">
<polygon fill="none" stroke="black" points="516.5,-147.5 516.5,-177.5 623.5,-177.5 623.5,-147.5 516.5,-147.5"/>
<text text-anchor="start" x="524.5" y="-165.5" font-family="Helvetica,sans-Serif" font-size="10.00">signal_easel::ax25</text>
<text text-anchor="middle" x="570" y="-154.5" font-family="Helvetica,sans-Serif" font-size="10.00">::findStartFlags</text>
</a>
</g>
</g>
<!-- Node1&#45;&gt;Node15 -->
<g id="edge17" class="edge">
<title>Node1&#45;&gt;Node15</title>
<path fill="none" stroke="midnightblue" d="M661.65,-148.85C648.82,-150.78 635.74,-152.75 623.65,-154.57"/>
<polygon fill="midnightblue" stroke="midnightblue" points="662.5,-152.26 671.87,-147.31 661.46,-145.34 662.5,-152.26"/>
</g>
<!-- Node3 -->
<g id="node3" class="node">
<title>Node3</title>
<g id="a_node3"><a xlink:href="classsignal__easel_1_1ax25_1_1Frame.html#a63cf2362c2a90d20f09bbbc4f24a07ba" target="_top" xlink:title="Attempt to parse an incoming bit stream into an AX.25 frame.">
<polygon fill="none" stroke="black" points="332.5,-165.5 332.5,-195.5 467.5,-195.5 467.5,-165.5 332.5,-165.5"/>
<text text-anchor="start" x="340.5" y="-183.5" font-family="Helvetica,sans-Serif" font-size="10.00">signal_easel::ax25</text>
<text text-anchor="middle" x="400" y="-172.5" font-family="Helvetica,sans-Serif" font-size="10.00">::Frame::parseBitStream</text>
</a>
</g>
</g>
<!-- Node2&#45;&gt;Node3 -->
<g id="edge2" class="edge">
<title>Node2&#45;&gt;Node3</title>
<path fill="none" stroke="midnightblue" d="M516.04,-241.67C511.94,-239.99 507.88,-238.26 504,-236.5 476.75,-224.14 446.83,-207.51 426.3,-195.59"/>
<polygon fill="midnightblue" stroke="midnightblue" points="515.05,-245.05 525.64,-245.48 517.64,-238.54 515.05,-245.05"/>
</g>
<!-- Node4 -->
<g id="node4" class="node">
<title>Node4</title>
<g id="a_node4"><a xlink:href="classsignal__easel_1_1aprs_1_1Demodulator.html#ae5a8e7634c1bc8d215a0c454a9a737fa" target="_top" xlink:title=" ">
<polygon fill="none" stroke="black" points="143,-136 143,-177 296,-177 296,-136 143,-136"/>
<text text-anchor="start" x="151" y="-165" font-family="Helvetica,sans-Serif" font-size="10.00">signal_easel::aprs</text>
<text text-anchor="start" x="151" y="-154" font-family="Helvetica,sans-Serif" font-size="10.00">::Demodulator::lookForAx25</text>
<text text-anchor="middle" x="219.5" y="-143" font-family="Helvetica,sans-Serif" font-size="10.00">Packet</text>
</a>
</g>
</g>
<!-- Node3&#45;&gt;Node4 -->
<g id="edge3" class="edge">
<title>Node3&#45;&gt;Node4</title>
<path fill="none" stroke="midnightblue" d="M322.22,-170.18C313.58,-169.01 304.77,-167.83 296.14,-166.67"/>
<polygon fill="midnightblue" stroke="midnightblue" points="321.9,-173.67 332.28,-171.53 322.83,-166.73 321.9,-173.67"/>
</g>
<!-- Node5 -->
<g id="node5" class="node">
<title>Node5</title>
<g id="a_node5"><a xlink:href="classsignal__easel_1_1aprs_1_1Receiver.html#afbf7869aceaf2ea7ab0be8b9af16e818" target="_top" xlink:title=" ">
<polygon fill="none" stroke="black" points="0,-141.5 0,-171.5 107,-171.5 107,-141.5 0,-141.5"/>
<text text-anchor="start" x="8" y="-159.5" font-family="Helvetica,sans-Serif" font-size="10.00">signal_easel::aprs</text>
<text text-anchor="middle" x="53.5" y="-148.5" font-family="Helvetica,sans-Serif" font-size="10.00">::Receiver::decode</text>
</a>
</g>
</g>
<!-- Node4&#45;&gt;Node5 -->
<g id="edge4" class="edge">
<title>Node4&#45;&gt;Node5</title>
<path fill="none" stroke="midnightblue" d="M132.67,-156.5C124.09,-156.5 115.56,-156.5 107.47,-156.5"/>
<polygon fill="midnightblue" stroke="midnightblue" points="132.74,-160 142.74,-156.5 132.74,-153 132.74,-160"/>
</g>
<!-- Node6 -->
<g id="node6" class="node">
<title>Node6</title>
<g id="a_node6"><a xlink:href="aprs__test_8cpp.html#aea66d1824e3f1e27598adf99ac6a089a" target="_top" xlink:title=" ">
<polygon fill="none" stroke="black" points="33,-79 33,-98 74,-98 74,-79 33,-79"/>
<text text-anchor="middle" x="53.5" y="-86" font-family="Helvetica,sans-Serif" font-size="10.00">TEST</text>
</a>
</g>
</g>
<!-- Node4&#45;&gt;Node6 -->
<g id="edge5" class="edge">
<title>Node4&#45;&gt;Node6</title>
<path fill="none" stroke="midnightblue" d="M159.31,-131.96C129.4,-119.56 95.09,-105.33 74.1,-96.63"/>
<polygon fill="midnightblue" stroke="midnightblue" points="158.27,-135.32 168.85,-135.91 160.95,-128.85 158.27,-135.32"/>
</g>
<!-- Node7&#45;&gt;Node3 -->
<g id="edge7" class="edge">
<title>Node7&#45;&gt;Node3</title>
<path fill="none" stroke="midnightblue" d="M506.37,-199.94C493.76,-197.62 480.47,-195.16 467.73,-192.81"/>
<polygon fill="midnightblue" stroke="midnightblue" points="505.84,-203.4 516.3,-201.78 507.11,-196.52 505.84,-203.4"/>
</g>
<!-- Node9 -->
<g id="node9" class="node">
<title>Node9</title>
<g id="a_node9"><a xlink:href="classsignal__easel_1_1psk_1_1Modulator.html#acd4a6a5bac7af1c62ffaaa0ff1d9259f" target="_top" xlink:title=" ">
<polygon fill="none" stroke="black" points="332,-80.5 332,-110.5 468,-110.5 468,-80.5 332,-80.5"/>
<text text-anchor="start" x="340" y="-98.5" font-family="Helvetica,sans-Serif" font-size="10.00">signal_easel::psk::</text>
<text text-anchor="middle" x="400" y="-87.5" font-family="Helvetica,sans-Serif" font-size="10.00">Modulator::encodeString</text>
</a>
</g>
</g>
<!-- Node8&#45;&gt;Node9 -->
<g id="edge9" class="edge">
<title>Node8&#45;&gt;Node9</title>
<path fill="none" stroke="midnightblue" d="M493.97,-105.46C485.32,-104.53 476.54,-103.59 468,-102.68"/>
<polygon fill="midnightblue" stroke="midnightblue" points="493.73,-108.96 504.05,-106.54 494.48,-102 493.73,-108.96"/>
</g>
<!-- Node10 -->
<g id="node10" class="node">
<title>Node10</title>
<g id="a_node10"><a xlink:href="psk__test_8cpp.html#a82221e67ef1f82d389fa971718fa764a" target="_top" xlink:title=" ">
<polygon fill="none" stroke="black" points="199,-86 199,-105 240,-105 240,-86 199,-86"/>
<text text-anchor="middle" x="219.5" y="-93" font-family="Helvetica,sans-Serif" font-size="10.00">TEST</text>
</a>
</g>
</g>
<!-- Node9&#45;&gt;Node10 -->
<g id="edge10" class="edge">
<title>Node9&#45;&gt;Node10</title>
<path fill="none" stroke="midnightblue" d="M321.72,-95.5C291.84,-95.5 260.12,-95.5 240.32,-95.5"/>
<polygon fill="midnightblue" stroke="midnightblue" points="321.77,-99 331.77,-95.5 321.77,-92 321.77,-99"/>
</g>
<!-- Node12 -->
<g id="node12" class="node">
<title>Node12</title>
<g id="a_node12"><a xlink:href="namespacesignal__easel_1_1aprs.html#a77481001a5b78a839972bb4220b43e4d" target="_top" xlink:title="The base function to encode an APRS packet with the provided base data and info field.">
<polygon fill="none" stroke="black" points="348,-25.5 348,-55.5 452,-55.5 452,-25.5 348,-25.5"/>
<text text-anchor="start" x="356" y="-43.5" font-family="Helvetica,sans-Serif" font-size="10.00">signal_easel::aprs</text>
<text text-anchor="middle" x="400" y="-32.5" font-family="Helvetica,sans-Serif" font-size="10.00">::encodePacket</text>
</a>
</g>
</g>
<!-- Node11&#45;&gt;Node12 -->
<g id="edge12" class="edge">
<title>Node11&#45;&gt;Node12</title>
<path fill="none" stroke="midnightblue" d="M497.48,-26.14C482.23,-28.41 466.42,-30.76 452.12,-32.89"/>
<polygon fill="midnightblue" stroke="midnightblue" points="498.02,-29.6 507.4,-24.67 496.99,-22.68 498.02,-29.6"/>
</g>
<!-- Node13 -->
<g id="node13" class="node">
<title>Node13</title>
<g id="a_node13"><a xlink:href="classsignal__easel_1_1aprs_1_1Modulator.html#a8ae067701382dec1680b786583ace687" target="_top" xlink:title=" ">
<polygon fill="none" stroke="black" points="163,-34.5 163,-64.5 276,-64.5 276,-34.5 163,-34.5"/>
<text text-anchor="start" x="171" y="-52.5" font-family="Helvetica,sans-Serif" font-size="10.00">signal_easel::aprs</text>
<text text-anchor="middle" x="219.5" y="-41.5" font-family="Helvetica,sans-Serif" font-size="10.00">::Modulator::encode</text>
</a>
</g>
</g>
<!-- Node12&#45;&gt;Node13 -->
<g id="edge13" class="edge">
<title>Node12&#45;&gt;Node13</title>
<path fill="none" stroke="midnightblue" d="M337.61,-43.6C317.62,-44.6 295.57,-45.72 276.03,-46.7"/>
<polygon fill="midnightblue" stroke="midnightblue" points="338.04,-47.08 347.85,-43.08 337.69,-40.09 338.04,-47.08"/>
</g>
<!-- Node13&#45;&gt;Node6 -->
<g id="edge14" class="edge">
<title>Node13&#45;&gt;Node6</title>
<path fill="none" stroke="midnightblue" d="M153.11,-65.05C124.84,-71.77 93.81,-79.15 74.25,-83.8"/>
<polygon fill="midnightblue" stroke="midnightblue" points="154.06,-68.42 162.98,-62.7 152.44,-61.61 154.06,-68.42"/>
</g>
<!-- Node14&#45;&gt;Node9 -->
<g id="edge16" class="edge">
<title>Node14&#45;&gt;Node9</title>
<path fill="none" stroke="midnightblue" d="M493.67,-78.4C485.18,-79.97 476.57,-81.56 468.19,-83.1"/>
<polygon fill="midnightblue" stroke="midnightblue" points="494.37,-81.83 503.57,-76.57 493.1,-74.95 494.37,-81.83"/>
</g>
<!-- Node15&#45;&gt;Node3 -->
<g id="edge18" class="edge">
<title>Node15&#45;&gt;Node3</title>
<path fill="none" stroke="midnightblue" d="M505.99,-169.25C493.5,-170.59 480.34,-172 467.73,-173.35"/>
<polygon fill="midnightblue" stroke="midnightblue" points="506.73,-172.69 516.3,-168.15 505.99,-165.73 506.73,-172.69"/>
</g>
</g>
</svg>
