<?xml version="1.0" encoding="UTF-8" standalone="no"?>
<!DOCTYPE svg PUBLIC "-//W3C//DTD SVG 1.1//EN"
 "http://www.w3.org/Graphics/SVG/1.1/DTD/svg11.dtd">
<!-- Generated by graphviz version 2.43.0 (0)
 -->
<!-- Title: signal_easel::aprs::Modulator Pages: 1 -->
<svg width="1051pt" height="921pt"
 viewBox="0.00 0.00 1051.00 921.00" xmlns="http://www.w3.org/2000/svg" xmlns:xlink="http://www.w3.org/1999/xlink">
<g id="graph0" class="graph" transform="scale(1 1) rotate(0) translate(4 917)">
<title>signal_easel::aprs::Modulator</title>
<!-- Node1 -->
<g id="node1" class="node">
<title>Node1</title>
<g id="a_node1"><a xlink:title=" ">
<polygon fill="#bfbfbf" stroke="black" points="464,-0.5 464,-123.5 568,-123.5 568,-0.5 464,-0.5"/>
<text text-anchor="start" x="472" y="-111.5" font-family="Helvetica,sans-Serif" font-size="10.00">signal_easel::aprs</text>
<text text-anchor="middle" x="516" y="-100.5" font-family="Helvetica,sans-Serif" font-size="10.00">::Modulator</text>
<polyline fill="none" stroke="black" points="464,-93.5 568,-93.5 "/>
<text text-anchor="middle" x="516" y="-81.5" font-family="Helvetica,sans-Serif" font-size="10.00"> </text>
<polyline fill="none" stroke="black" points="464,-74.5 568,-74.5 "/>
<text text-anchor="start" x="472" y="-62.5" font-family="Helvetica,sans-Serif" font-size="10.00">+ Modulator()</text>
<text text-anchor="start" x="472" y="-51.5" font-family="Helvetica,sans-Serif" font-size="10.00">+ encode()</text>
<text text-anchor="start" x="472" y="-40.5" font-family="Helvetica,sans-Serif" font-size="10.00">+ encode()</text>
<text text-anchor="start" x="472" y="-29.5" font-family="Helvetica,sans-Serif" font-size="10.00">+ encode()</text>
<text text-anchor="start" x="472" y="-18.5" font-family="Helvetica,sans-Serif" font-size="10.00">+ encode()</text>
<text text-anchor="start" x="472" y="-7.5" font-family="Helvetica,sans-Serif" font-size="10.00">+ setCallSign()</text>
</a>
</g>
</g>
<!-- Node2 -->
<g id="node2" class="node">
<title>Node2</title>
<g id="a_node2"><a xlink:href="classsignal__easel_1_1afsk_1_1Modulator.html" target="_top" xlink:title="Modulates data into an AFSK signal.">
<polygon fill="none" stroke="black" points="342,-171.5 342,-272.5 446,-272.5 446,-171.5 342,-171.5"/>
<text text-anchor="start" x="350" y="-260.5" font-family="Helvetica,sans-Serif" font-size="10.00">signal_easel::afsk</text>
<text text-anchor="middle" x="394" y="-249.5" font-family="Helvetica,sans-Serif" font-size="10.00">::Modulator</text>
<polyline fill="none" stroke="black" points="342,-242.5 446,-242.5 "/>
<text text-anchor="middle" x="394" y="-230.5" font-family="Helvetica,sans-Serif" font-size="10.00"> </text>
<polyline fill="none" stroke="black" points="342,-223.5 446,-223.5 "/>
<text text-anchor="start" x="350" y="-211.5" font-family="Helvetica,sans-Serif" font-size="10.00">+ Modulator()</text>
<text text-anchor="start" x="350" y="-200.5" font-family="Helvetica,sans-Serif" font-size="10.00">+ ~Modulator()</text>
<text text-anchor="start" x="350" y="-189.5" font-family="Helvetica,sans-Serif" font-size="10.00"># encodeBytes()</text>
<text text-anchor="start" x="350" y="-178.5" font-family="Helvetica,sans-Serif" font-size="10.00">&#45; convertToNRZI()</text>
</a>
</g>
</g>
<!-- Node2&#45;&gt;Node1 -->
<g id="edge1" class="edge">
<title>Node2&#45;&gt;Node1</title>
<path fill="none" stroke="midnightblue" d="M438.39,-163.51C448.37,-150.59 458.99,-136.83 469.08,-123.77"/>
<polygon fill="none" stroke="midnightblue" points="435.61,-161.39 432.27,-171.44 441.15,-165.67 435.61,-161.39"/>
</g>
<!-- Node3 -->
<g id="node3" class="node">
<title>Node3</title>
<g id="a_node3"><a xlink:href="classsignal__easel_1_1DataModulator.html" target="_top" xlink:title="Another abstract base class for modulators that turn text/binary data into audio.">
<polygon fill="none" stroke="black" points="177,-364.5 177,-465.5 333,-465.5 333,-364.5 177,-364.5"/>
<text text-anchor="middle" x="255" y="-453.5" font-family="Helvetica,sans-Serif" font-size="10.00">signal_easel::DataModulator</text>
<polyline fill="none" stroke="black" points="177,-446.5 333,-446.5 "/>
<text text-anchor="middle" x="255" y="-434.5" font-family="Helvetica,sans-Serif" font-size="10.00"> </text>
<polyline fill="none" stroke="black" points="177,-427.5 333,-427.5 "/>
<text text-anchor="start" x="185" y="-415.5" font-family="Helvetica,sans-Serif" font-size="10.00">+ DataModulator()</text>
<text text-anchor="start" x="185" y="-404.5" font-family="Helvetica,sans-Serif" font-size="10.00">+ ~DataModulator()</text>
<text text-anchor="start" x="185" y="-393.5" font-family="Helvetica,sans-Serif" font-size="10.00">+ addBytes()</text>
<text text-anchor="start" x="185" y="-382.5" font-family="Helvetica,sans-Serif" font-size="10.00">+ addString()</text>
<text text-anchor="start" x="185" y="-371.5" font-family="Helvetica,sans-Serif" font-size="10.00"># encodeBytes()</text>
</a>
</g>
</g>
<!-- Node3&#45;&gt;Node2 -->
<g id="edge2" class="edge">
<title>Node3&#45;&gt;Node2</title>
<path fill="none" stroke="midnightblue" d="M291.84,-355.92C305.54,-335.1 321.52,-311.67 337,-291 341.52,-284.96 346.41,-278.74 351.34,-272.63"/>
<polygon fill="none" stroke="midnightblue" points="288.86,-354.08 286.32,-364.36 294.72,-357.91 288.86,-354.08"/>
</g>
<!-- Node4 -->
<g id="node4" class="node">
<title>Node4</title>
<g id="a_node4"><a xlink:href="classsignal__easel_1_1Modulator.html" target="_top" xlink:title="The abstract base class for all modulators that turn data into audio.">
<polygon fill="none" stroke="black" points="288,-513.5 288,-669.5 440,-669.5 440,-513.5 288,-513.5"/>
<text text-anchor="middle" x="364" y="-657.5" font-family="Helvetica,sans-Serif" font-size="10.00">signal_easel::Modulator</text>
<polyline fill="none" stroke="black" points="288,-650.5 440,-650.5 "/>
<text text-anchor="middle" x="364" y="-638.5" font-family="Helvetica,sans-Serif" font-size="10.00"> </text>
<polyline fill="none" stroke="black" points="288,-631.5 440,-631.5 "/>
<text text-anchor="start" x="296" y="-619.5" font-family="Helvetica,sans-Serif" font-size="10.00">+ Modulator()</text>
<text text-anchor="start" x="296" y="-608.5" font-family="Helvetica,sans-Serif" font-size="10.00">+ ~Modulator()</text>
<text text-anchor="start" x="296" y="-597.5" font-family="Helvetica,sans-Serif" font-size="10.00">+ clearBuffer()</text>
<text text-anchor="start" x="296" y="-586.5" font-family="Helvetica,sans-Serif" font-size="10.00">+ writeToFile()</text>
<text text-anchor="start" x="296" y="-575.5" font-family="Helvetica,sans-Serif" font-size="10.00">+ writeToPulseAudio()</text>
<text text-anchor="start" x="296" y="-564.5" font-family="Helvetica,sans-Serif" font-size="10.00"># addAudioSample()</text>
<text text-anchor="start" x="296" y="-553.5" font-family="Helvetica,sans-Serif" font-size="10.00"># addAudioSampleDouble()</text>
<text text-anchor="start" x="296" y="-542.5" font-family="Helvetica,sans-Serif" font-size="10.00"># addSilence()</text>
<text text-anchor="start" x="296" y="-531.5" font-family="Helvetica,sans-Serif" font-size="10.00"># addSineWave()</text>
<text text-anchor="start" x="296" y="-520.5" font-family="Helvetica,sans-Serif" font-size="10.00">&#45; addMorseCode()</text>
</a>
</g>
</g>
<!-- Node4&#45;&gt;Node3 -->
<g id="edge3" class="edge">
<title>Node4&#45;&gt;Node3</title>
<path fill="none" stroke="midnightblue" d="M310.38,-504.66C302,-491.25 293.6,-477.79 285.96,-465.56"/>
<polygon fill="none" stroke="midnightblue" points="307.61,-506.83 315.87,-513.45 313.54,-503.12 307.61,-506.83"/>
</g>
<!-- Node5 -->
<g id="node5" class="node">
<title>Node5</title>
<g id="a_node5"><a xlink:title=" ">
<polygon fill="none" stroke="#bfbfbf" points="300,-855.5 300,-912.5 350,-912.5 350,-855.5 300,-855.5"/>
<text text-anchor="middle" x="325" y="-900.5" font-family="Helvetica,sans-Serif" font-size="10.00">double</text>
<polyline fill="none" stroke="#bfbfbf" points="300,-893.5 350,-893.5 "/>
<text text-anchor="middle" x="325" y="-881.5" font-family="Helvetica,sans-Serif" font-size="10.00"> </text>
<polyline fill="none" stroke="#bfbfbf" points="300,-874.5 350,-874.5 "/>
<text text-anchor="middle" x="325" y="-862.5" font-family="Helvetica,sans-Serif" font-size="10.00"> </text>
</a>
</g>
</g>
<!-- Node5&#45;&gt;Node2 -->
<g id="edge15" class="edge">
<title>Node5&#45;&gt;Node2</title>
<path fill="none" stroke="#404040" d="M299.73,-877.18C250.39,-864.14 146,-827.69 146,-752.5 146,-752.5 146,-752.5 146,-414 146,-321.02 256.78,-267.01 330.26,-241.41"/>
<polygon fill="none" stroke="#404040" points="330.34,-241.38 334.74,-235.67 341.71,-237.54 337.3,-243.25 330.34,-241.38"/>
<text text-anchor="start" x="146" y="-605.5" font-family="Helvetica,sans-Serif" font-size="10.00"> &#45;CENTER_OVER_SAMPLE</text>
<text text-anchor="middle" x="208" y="-594.5" font-family="Helvetica,sans-Serif" font-size="10.00">_FREQ_</text>
<text text-anchor="start" x="146" y="-583.5" font-family="Helvetica,sans-Serif" font-size="10.00">&#45;DELTA_OVER_SAMPLE</text>
<text text-anchor="middle" x="208" y="-572.5" font-family="Helvetica,sans-Serif" font-size="10.00">_FREQ_</text>
</g>
<!-- Node5&#45;&gt;Node4 -->
<g id="edge4" class="edge">
<title>Node5&#45;&gt;Node4</title>
<path fill="none" stroke="#404040" d="M325.25,-855.24C325.87,-822.16 327.97,-765.28 335,-717 336.68,-705.47 338.89,-693.43 341.34,-681.58"/>
<polygon fill="none" stroke="#404040" points="341.35,-681.55 338.69,-674.85 343.86,-669.82 346.52,-676.52 341.35,-681.55"/>
<text text-anchor="middle" x="384.5" y="-749" font-family="Helvetica,sans-Serif" font-size="10.00"> &#45;sine_wave_phase_</text>
</g>
<!-- Node7 -->
<g id="node7" class="node">
<title>Node7</title>
<g id="a_node7"><a xlink:href="structsignal__easel_1_1Settings.html" target="_top" xlink:title="The universal settings for MWAV.">
<polygon fill="none" stroke="black" points="442.5,-723 442.5,-780 565.5,-780 565.5,-723 442.5,-723"/>
<text text-anchor="middle" x="504" y="-768" font-family="Helvetica,sans-Serif" font-size="10.00">signal_easel::Settings</text>
<polyline fill="none" stroke="black" points="442.5,-761 565.5,-761 "/>
<text text-anchor="middle" x="504" y="-749" font-family="Helvetica,sans-Serif" font-size="10.00"> </text>
<polyline fill="none" stroke="black" points="442.5,-742 565.5,-742 "/>
<text text-anchor="middle" x="504" y="-730" font-family="Helvetica,sans-Serif" font-size="10.00"> </text>
</a>
</g>
</g>
<!-- Node5&#45;&gt;Node7 -->
<g id="edge7" class="edge">
<title>Node5&#45;&gt;Node7</title>
<path fill="none" stroke="#404040" d="M335.83,-855.38C343.79,-838.38 356.15,-817.36 373,-804 393.15,-788.02 403.98,-795.2 428,-786 429.21,-785.54 430.43,-785.06 431.66,-784.58"/>
<polygon fill="none" stroke="#404040" points="431.7,-784.57 435.77,-778.62 442.83,-780.09 438.75,-786.04 431.7,-784.57"/>
<text text-anchor="middle" x="416" y="-829" font-family="Helvetica,sans-Serif" font-size="10.00"> +amplitude</text>
<text text-anchor="start" x="373" y="-818" font-family="Helvetica,sans-Serif" font-size="10.00">+call_sign_pause</text>
<text text-anchor="middle" x="416" y="-807" font-family="Helvetica,sans-Serif" font-size="10.00">_seconds</text>
</g>
<!-- Node6 -->
<g id="node6" class="node">
<title>Node6</title>
<g id="a_node6"><a xlink:title=" ">
<polygon fill="none" stroke="#bfbfbf" points="180,-723 180,-780 284,-780 284,-723 180,-723"/>
<text text-anchor="middle" x="232" y="-768" font-family="Helvetica,sans-Serif" font-size="10.00">vector&lt; int16_t &gt;</text>
<polyline fill="none" stroke="#bfbfbf" points="180,-761 284,-761 "/>
<text text-anchor="middle" x="232" y="-749" font-family="Helvetica,sans-Serif" font-size="10.00"> </text>
<polyline fill="none" stroke="#bfbfbf" points="180,-742 284,-742 "/>
<text text-anchor="middle" x="232" y="-730" font-family="Helvetica,sans-Serif" font-size="10.00"> </text>
</a>
</g>
</g>
<!-- Node6&#45;&gt;Node4 -->
<g id="edge5" class="edge">
<title>Node6&#45;&gt;Node4</title>
<path fill="none" stroke="#404040" d="M226.18,-722.72C225.26,-711.12 226.33,-698.03 233,-688 244.02,-671.43 257.16,-680.61 274,-670 275.3,-669.18 276.6,-668.34 277.9,-667.49"/>
<polygon fill="none" stroke="#404040" points="277.95,-667.46 280.63,-660.76 287.84,-660.66 285.16,-667.35 277.95,-667.46"/>
<text text-anchor="middle" x="272" y="-691" font-family="Helvetica,sans-Serif" font-size="10.00"> #audio_buffer_</text>
</g>
<!-- Node7&#45;&gt;Node4 -->
<g id="edge6" class="edge">
<title>Node7&#45;&gt;Node4</title>
<path fill="none" stroke="#404040" d="M479.61,-722.98C468.55,-710.49 454.78,-694.96 440.66,-679.01"/>
<polygon fill="none" stroke="#404040" points="440.27,-678.58 433.3,-676.74 432.31,-669.6 439.29,-671.44 440.27,-678.58"/>
<text text-anchor="middle" x="482" y="-691" font-family="Helvetica,sans-Serif" font-size="10.00"> #settings_</text>
</g>
<!-- Node11 -->
<g id="node11" class="node">
<title>Node11</title>
<g id="a_node11"><a xlink:href="structsignal__easel_1_1afsk_1_1Settings.html" target="_top" xlink:title="Settings for AFSK modulation/demodulation.">
<polygon fill="none" stroke="black" points="634,-381 634,-449 738,-449 738,-381 634,-381"/>
<text text-anchor="start" x="642" y="-437" font-family="Helvetica,sans-Serif" font-size="10.00">signal_easel::afsk</text>
<text text-anchor="middle" x="686" y="-426" font-family="Helvetica,sans-Serif" font-size="10.00">::Settings</text>
<polyline fill="none" stroke="black" points="634,-419 738,-419 "/>
<text text-anchor="middle" x="686" y="-407" font-family="Helvetica,sans-Serif" font-size="10.00"> </text>
<polyline fill="none" stroke="black" points="634,-400 738,-400 "/>
<text text-anchor="middle" x="686" y="-388" font-family="Helvetica,sans-Serif" font-size="10.00"> </text>
</a>
</g>
</g>
<!-- Node7&#45;&gt;Node11 -->
<g id="edge12" class="edge">
<title>Node7&#45;&gt;Node11</title>
<path fill="none" stroke="midnightblue" d="M575.31,-731.23C607.55,-718.9 643.22,-699.52 665,-670 713.47,-604.31 702.98,-501.37 693.34,-449"/>
<polygon fill="none" stroke="midnightblue" points="574.07,-727.95 565.88,-734.67 576.48,-734.53 574.07,-727.95"/>
</g>
<!-- Node8 -->
<g id="node8" class="node">
<title>Node8</title>
<g id="a_node8"><a xlink:title=" ">
<polygon fill="none" stroke="#bfbfbf" points="425.5,-855.5 425.5,-912.5 508.5,-912.5 508.5,-855.5 425.5,-855.5"/>
<text text-anchor="middle" x="467" y="-900.5" font-family="Helvetica,sans-Serif" font-size="10.00">CallSignMode</text>
<polyline fill="none" stroke="#bfbfbf" points="425.5,-893.5 508.5,-893.5 "/>
<text text-anchor="middle" x="467" y="-881.5" font-family="Helvetica,sans-Serif" font-size="10.00"> </text>
<polyline fill="none" stroke="#bfbfbf" points="425.5,-874.5 508.5,-874.5 "/>
<text text-anchor="middle" x="467" y="-862.5" font-family="Helvetica,sans-Serif" font-size="10.00"> </text>
</a>
</g>
</g>
<!-- Node8&#45;&gt;Node7 -->
<g id="edge8" class="edge">
<title>Node8&#45;&gt;Node7</title>
<path fill="none" stroke="#404040" d="M463.42,-855.3C462.38,-839.85 462.71,-820.45 468,-804 469.48,-799.4 471.53,-794.85 473.9,-790.47"/>
<polygon fill="none" stroke="#404040" points="474.05,-790.23 473.78,-783.02 480.33,-780 480.59,-787.21 474.05,-790.23"/>
<text text-anchor="middle" x="512" y="-818" font-family="Helvetica,sans-Serif" font-size="10.00"> +call_sign_mode</text>
</g>
<!-- Node9 -->
<g id="node9" class="node">
<title>Node9</title>
<g id="a_node9"><a xlink:title=" ">
<polygon fill="none" stroke="#bfbfbf" points="595,-855.5 595,-912.5 639,-912.5 639,-855.5 595,-855.5"/>
<text text-anchor="middle" x="617" y="-900.5" font-family="Helvetica,sans-Serif" font-size="10.00">string</text>
<polyline fill="none" stroke="#bfbfbf" points="595,-893.5 639,-893.5 "/>
<text text-anchor="middle" x="617" y="-881.5" font-family="Helvetica,sans-Serif" font-size="10.00"> </text>
<polyline fill="none" stroke="#bfbfbf" points="595,-874.5 639,-874.5 "/>
<text text-anchor="middle" x="617" y="-862.5" font-family="Helvetica,sans-Serif" font-size="10.00"> </text>
</a>
</g>
</g>
<!-- Node9&#45;&gt;Node7 -->
<g id="edge9" class="edge">
<title>Node9&#45;&gt;Node7</title>
<path fill="none" stroke="#404040" d="M594.92,-857.03C589.6,-850.57 584.01,-843.6 579,-837 568.19,-822.76 567.51,-817.68 556,-804 551.76,-798.96 547.1,-793.84 542.37,-788.89"/>
<polygon fill="none" stroke="#404040" points="542.25,-788.78 535.19,-787.3 533.84,-780.21 540.9,-781.69 542.25,-788.78"/>
<text text-anchor="middle" x="606.5" y="-818" font-family="Helvetica,sans-Serif" font-size="10.00"> +call_sign</text>
</g>
<!-- Node17 -->
<g id="node17" class="node">
<title>Node17</title>
<g id="a_node17"><a xlink:href="structsignal__easel_1_1aprs_1_1Packet.html" target="_top" xlink:title=" ">
<polygon fill="none" stroke="black" points="737,-717.5 737,-785.5 841,-785.5 841,-717.5 737,-717.5"/>
<text text-anchor="start" x="745" y="-773.5" font-family="Helvetica,sans-Serif" font-size="10.00">signal_easel::aprs</text>
<text text-anchor="middle" x="789" y="-762.5" font-family="Helvetica,sans-Serif" font-size="10.00">::Packet</text>
<polyline fill="none" stroke="black" points="737,-755.5 841,-755.5 "/>
<text text-anchor="middle" x="789" y="-743.5" font-family="Helvetica,sans-Serif" font-size="10.00"> </text>
<polyline fill="none" stroke="black" points="737,-736.5 841,-736.5 "/>
<text text-anchor="middle" x="789" y="-724.5" font-family="Helvetica,sans-Serif" font-size="10.00"> </text>
</a>
</g>
</g>
<!-- Node9&#45;&gt;Node17 -->
<g id="edge25" class="edge">
<title>Node9&#45;&gt;Node17</title>
<path fill="none" stroke="#404040" d="M632.36,-855.3C642.67,-838.7 657.55,-818.14 675,-804 689.88,-791.94 708.04,-782.08 725.45,-774.34"/>
<polygon fill="none" stroke="#404040" points="725.69,-774.23 729.65,-768.21 736.74,-769.55 732.77,-775.57 725.69,-774.23"/>
<text text-anchor="middle" x="730" y="-823.5" font-family="Helvetica,sans-Serif" font-size="10.00"> +destination_address</text>
<text text-anchor="middle" x="730" y="-812.5" font-family="Helvetica,sans-Serif" font-size="10.00">+source_address</text>
</g>
<!-- Node10 -->
<g id="node10" class="node">
<title>Node10</title>
<g id="a_node10"><a xlink:title=" ">
<polygon fill="none" stroke="#bfbfbf" points="0,-386.5 0,-443.5 44,-443.5 44,-386.5 0,-386.5"/>
<text text-anchor="middle" x="22" y="-431.5" font-family="Helvetica,sans-Serif" font-size="10.00">int8_t</text>
<polyline fill="none" stroke="#bfbfbf" points="0,-424.5 44,-424.5 "/>
<text text-anchor="middle" x="22" y="-412.5" font-family="Helvetica,sans-Serif" font-size="10.00"> </text>
<polyline fill="none" stroke="#bfbfbf" points="0,-405.5 44,-405.5 "/>
<text text-anchor="middle" x="22" y="-393.5" font-family="Helvetica,sans-Serif" font-size="10.00"> </text>
</a>
</g>
</g>
<!-- Node10&#45;&gt;Node2 -->
<g id="edge10" class="edge">
<title>Node10&#45;&gt;Node2</title>
<path fill="none" stroke="#404040" d="M13.11,-386.37C6.16,-358.93 0.95,-317.24 23,-291 61.49,-245.19 234.07,-230.13 329.7,-225.27"/>
<polygon fill="none" stroke="#404040" points="329.82,-225.26 335.63,-220.98 341.81,-224.68 336.01,-228.97 329.82,-225.26"/>
<text text-anchor="start" x="23" y="-327" font-family="Helvetica,sans-Serif" font-size="10.00"> &#45;current_bipolar_bit</text>
<text text-anchor="middle" x="77.5" y="-316" font-family="Helvetica,sans-Serif" font-size="10.00">_</text>
<text text-anchor="middle" x="77.5" y="-305" font-family="Helvetica,sans-Serif" font-size="10.00">&#45;previous_bipolar_bit_</text>
</g>
<!-- Node11&#45;&gt;Node2 -->
<g id="edge11" class="edge">
<title>Node11&#45;&gt;Node2</title>
<path fill="none" stroke="#404040" d="M667.19,-380.95C661.32,-370 655.06,-357.64 650,-346 639.7,-322.28 649.77,-308.79 631,-291 584.41,-246.83 511.07,-231.07 458.31,-225.6"/>
<polygon fill="none" stroke="#404040" points="457.99,-225.57 451.65,-229.01 446.04,-224.47 452.38,-221.04 457.99,-225.57"/>
<text text-anchor="middle" x="676" y="-316" font-family="Helvetica,sans-Serif" font-size="10.00"> &#45;settings_</text>
</g>
<!-- Node16 -->
<g id="node16" class="node">
<title>Node16</title>
<g id="a_node16"><a xlink:href="structsignal__easel_1_1aprs_1_1Settings.html" target="_top" xlink:title=" ">
<polygon fill="none" stroke="black" points="668,-188 668,-256 772,-256 772,-188 668,-188"/>
<text text-anchor="start" x="676" y="-244" font-family="Helvetica,sans-Serif" font-size="10.00">signal_easel::aprs</text>
<text text-anchor="middle" x="720" y="-233" font-family="Helvetica,sans-Serif" font-size="10.00">::Settings</text>
<polyline fill="none" stroke="black" points="668,-226 772,-226 "/>
<text text-anchor="middle" x="720" y="-214" font-family="Helvetica,sans-Serif" font-size="10.00"> </text>
<polyline fill="none" stroke="black" points="668,-207 772,-207 "/>
<text text-anchor="start" x="676" y="-195" font-family="Helvetica,sans-Serif" font-size="10.00">+ Settings()</text>
</a>
</g>
</g>
<!-- Node11&#45;&gt;Node16 -->
<g id="edge20" class="edge">
<title>Node11&#45;&gt;Node16</title>
<path fill="none" stroke="midnightblue" d="M699.88,-370.95C702.18,-362.73 704.35,-354.15 706,-346 712.1,-315.88 715.75,-281.03 717.79,-256.13"/>
<polygon fill="none" stroke="midnightblue" points="696.46,-370.16 697.03,-380.74 703.18,-372.11 696.46,-370.16"/>
</g>
<!-- Node12 -->
<g id="node12" class="node">
<title>Node12</title>
<g id="a_node12"><a xlink:title=" ">
<polygon fill="none" stroke="#bfbfbf" points="582,-563 582,-620 656,-620 656,-563 582,-563"/>
<text text-anchor="middle" x="619" y="-608" font-family="Helvetica,sans-Serif" font-size="10.00">BitEncoding</text>
<polyline fill="none" stroke="#bfbfbf" points="582,-601 656,-601 "/>
<text text-anchor="middle" x="619" y="-589" font-family="Helvetica,sans-Serif" font-size="10.00"> </text>
<polyline fill="none" stroke="#bfbfbf" points="582,-582 656,-582 "/>
<text text-anchor="middle" x="619" y="-570" font-family="Helvetica,sans-Serif" font-size="10.00"> </text>
</a>
</g>
</g>
<!-- Node12&#45;&gt;Node11 -->
<g id="edge13" class="edge">
<title>Node12&#45;&gt;Node11</title>
<path fill="none" stroke="#404040" d="M613.77,-562.69C610.87,-540.52 609.67,-509.14 620,-484 623.78,-474.8 629.45,-466.16 635.91,-458.32"/>
<polygon fill="none" stroke="#404040" points="636.1,-458.11 637.13,-450.97 644.11,-449.18 643.09,-456.31 636.1,-458.11"/>
<text text-anchor="middle" x="657" y="-487" font-family="Helvetica,sans-Serif" font-size="10.00"> +bit_encoding</text>
</g>
<!-- Node13 -->
<g id="node13" class="node">
<title>Node13</title>
<g id="a_node13"><a xlink:title=" ">
<polygon fill="none" stroke="#bfbfbf" points="458,-563 458,-620 496,-620 496,-563 458,-563"/>
<text text-anchor="middle" x="477" y="-608" font-family="Helvetica,sans-Serif" font-size="10.00">bool</text>
<polyline fill="none" stroke="#bfbfbf" points="458,-601 496,-601 "/>
<text text-anchor="middle" x="477" y="-589" font-family="Helvetica,sans-Serif" font-size="10.00"> </text>
<polyline fill="none" stroke="#bfbfbf" points="458,-582 496,-582 "/>
<text text-anchor="middle" x="477" y="-570" font-family="Helvetica,sans-Serif" font-size="10.00"> </text>
</a>
</g>
</g>
<!-- Node13&#45;&gt;Node2 -->
<g id="edge18" class="edge">
<title>Node13&#45;&gt;Node2</title>
<path fill="none" stroke="#404040" d="M470.62,-562.92C464.95,-537.77 456.7,-499.52 451,-466 437.86,-388.66 450.97,-366.01 428,-291 427.3,-288.73 426.54,-286.44 425.72,-284.15"/>
<polygon fill="none" stroke="#404040" points="425.61,-283.88 419.68,-279.78 421.19,-272.73 427.12,-276.83 425.61,-283.88"/>
<text text-anchor="start" x="451" y="-418" font-family="Helvetica,sans-Serif" font-size="10.00"> &#45;nrzi_previous_tone</text>
<text text-anchor="middle" x="501" y="-407" font-family="Helvetica,sans-Serif" font-size="10.00">_mark_</text>
</g>
<!-- Node13&#45;&gt;Node11 -->
<g id="edge14" class="edge">
<title>Node13&#45;&gt;Node11</title>
<path fill="none" stroke="#404040" d="M472.83,-562.88C470.88,-538.65 472.5,-504.22 493,-484 535.15,-442.42 570.72,-489.66 625,-466 630.96,-463.4 636.81,-460.04 642.39,-456.3"/>
<polygon fill="none" stroke="#404040" points="642.39,-456.3 644.88,-449.53 652.09,-449.23 649.59,-456 642.39,-456.3"/>
<text text-anchor="middle" x="552.5" y="-487" font-family="Helvetica,sans-Serif" font-size="10.00"> +include_ascii_padding</text>
</g>
<!-- Node14 -->
<g id="node14" class="node">
<title>Node14</title>
<g id="a_node14"><a xlink:title=" ">
<polygon fill="none" stroke="#bfbfbf" points="351,-386.5 351,-443.5 401,-443.5 401,-386.5 351,-386.5"/>
<text text-anchor="middle" x="376" y="-431.5" font-family="Helvetica,sans-Serif" font-size="10.00">int32_t</text>
<polyline fill="none" stroke="#bfbfbf" points="351,-424.5 401,-424.5 "/>
<text text-anchor="middle" x="376" y="-412.5" font-family="Helvetica,sans-Serif" font-size="10.00"> </text>
<polyline fill="none" stroke="#bfbfbf" points="351,-405.5 401,-405.5 "/>
<text text-anchor="middle" x="376" y="-393.5" font-family="Helvetica,sans-Serif" font-size="10.00"> </text>
</a>
</g>
</g>
<!-- Node14&#45;&gt;Node2 -->
<g id="edge16" class="edge">
<title>Node14&#45;&gt;Node2</title>
<path fill="none" stroke="#404040" d="M360.71,-386.43C354.88,-374.4 348.93,-359.89 346,-346 340.96,-322.08 338.61,-314.3 346,-291 346.77,-288.58 347.66,-286.17 348.65,-283.78"/>
<polygon fill="none" stroke="#404040" points="348.73,-283.61 347.73,-276.47 353.94,-272.8 354.94,-279.95 348.73,-283.61"/>
<text text-anchor="middle" x="387" y="-316" font-family="Helvetica,sans-Serif" font-size="10.00"> &#45;integral_value_</text>
</g>
<!-- Node15 -->
<g id="node15" class="node">
<title>Node15</title>
<g id="a_node15"><a xlink:title=" ">
<polygon fill="none" stroke="#bfbfbf" points="560,-386.5 560,-443.5 616,-443.5 616,-386.5 560,-386.5"/>
<text text-anchor="middle" x="588" y="-431.5" font-family="Helvetica,sans-Serif" font-size="10.00">uint32_t</text>
<polyline fill="none" stroke="#bfbfbf" points="560,-424.5 616,-424.5 "/>
<text text-anchor="middle" x="588" y="-412.5" font-family="Helvetica,sans-Serif" font-size="10.00"> </text>
<polyline fill="none" stroke="#bfbfbf" points="560,-405.5 616,-405.5 "/>
<text text-anchor="middle" x="588" y="-393.5" font-family="Helvetica,sans-Serif" font-size="10.00"> </text>
</a>
</g>
</g>
<!-- Node15&#45;&gt;Node2 -->
<g id="edge17" class="edge">
<title>Node15&#45;&gt;Node2</title>
<path fill="none" stroke="#404040" d="M568.33,-386.32C561.84,-378.44 554.17,-370.3 546,-364 531.21,-352.58 523.07,-357.05 508,-346 504.21,-343.22 475.19,-311.9 447.38,-281.56"/>
<polygon fill="none" stroke="#404040" points="447.31,-281.48 440.31,-279.76 439.21,-272.63 446.21,-274.36 447.31,-281.48"/>
<text text-anchor="start" x="508" y="-338" font-family="Helvetica,sans-Serif" font-size="10.00"> &#45;OVER_SAMPLE_FACTOR</text>
<text text-anchor="middle" x="569.5" y="-327" font-family="Helvetica,sans-Serif" font-size="10.00">_</text>
<text text-anchor="start" x="508" y="-316" font-family="Helvetica,sans-Serif" font-size="10.00">&#45;SAMPLES_PER_SYMBOL</text>
<text text-anchor="middle" x="569.5" y="-305" font-family="Helvetica,sans-Serif" font-size="10.00">_</text>
<text text-anchor="middle" x="569.5" y="-294" font-family="Helvetica,sans-Serif" font-size="10.00">&#45;SAMPLE_FREQUENCY_</text>
</g>
<!-- Node16&#45;&gt;Node1 -->
<g id="edge19" class="edge">
<title>Node16&#45;&gt;Node1</title>
<path fill="none" stroke="#404040" d="M677.23,-187.88C648.44,-165.57 609.99,-135.8 577.87,-110.92"/>
<polygon fill="none" stroke="#404040" points="577.61,-110.72 570.42,-110.2 568.12,-103.37 575.31,-103.88 577.61,-110.72"/>
<text text-anchor="middle" x="656" y="-145" font-family="Helvetica,sans-Serif" font-size="10.00"> &#45;settings_</text>
</g>
<!-- Node17&#45;&gt;Node16 -->
<g id="edge21" class="edge">
<title>Node17&#45;&gt;Node16</title>
<path fill="none" stroke="#404040" d="M786.3,-717.3C780.66,-650.28 766.5,-494.16 747,-364 742.18,-331.83 735.26,-295.81 729.63,-268.24"/>
<polygon fill="none" stroke="#404040" points="729.57,-267.95 724.44,-262.89 727.15,-256.2 732.28,-261.27 729.57,-267.95"/>
<text text-anchor="middle" x="800.5" y="-487" font-family="Helvetica,sans-Serif" font-size="10.00"> +base_packet</text>
</g>
<!-- Node18 -->
<g id="node18" class="node">
<title>Node18</title>
<g id="a_node18"><a xlink:title=" ">
<polygon fill="none" stroke="#bfbfbf" points="749.5,-855.5 749.5,-912.5 828.5,-912.5 828.5,-855.5 749.5,-855.5"/>
<text text-anchor="middle" x="789" y="-900.5" font-family="Helvetica,sans-Serif" font-size="10.00">SymbolTable</text>
<polyline fill="none" stroke="#bfbfbf" points="749.5,-893.5 828.5,-893.5 "/>
<text text-anchor="middle" x="789" y="-881.5" font-family="Helvetica,sans-Serif" font-size="10.00"> </text>
<polyline fill="none" stroke="#bfbfbf" points="749.5,-874.5 828.5,-874.5 "/>
<text text-anchor="middle" x="789" y="-862.5" font-family="Helvetica,sans-Serif" font-size="10.00"> </text>
</a>
</g>
</g>
<!-- Node18&#45;&gt;Node17 -->
<g id="edge22" class="edge">
<title>Node18&#45;&gt;Node17</title>
<path fill="none" stroke="#404040" d="M789,-855.32C789,-838.63 789,-816.96 789,-797.82"/>
<polygon fill="none" stroke="#404040" points="789,-797.68 785,-791.68 789,-785.68 793,-791.68 789,-797.68"/>
<text text-anchor="middle" x="828" y="-818" font-family="Helvetica,sans-Serif" font-size="10.00"> +symbol_table</text>
</g>
<!-- Node19 -->
<g id="node19" class="node">
<title>Node19</title>
<g id="a_node19"><a xlink:title=" ">
<polygon fill="none" stroke="#bfbfbf" points="871,-855.5 871,-912.5 909,-912.5 909,-855.5 871,-855.5"/>
<text text-anchor="middle" x="890" y="-900.5" font-family="Helvetica,sans-Serif" font-size="10.00">char</text>
<polyline fill="none" stroke="#bfbfbf" points="871,-893.5 909,-893.5 "/>
<text text-anchor="middle" x="890" y="-881.5" font-family="Helvetica,sans-Serif" font-size="10.00"> </text>
<polyline fill="none" stroke="#bfbfbf" points="871,-874.5 909,-874.5 "/>
<text text-anchor="middle" x="890" y="-862.5" font-family="Helvetica,sans-Serif" font-size="10.00"> </text>
</a>
</g>
</g>
<!-- Node19&#45;&gt;Node17 -->
<g id="edge23" class="edge">
<title>Node19&#45;&gt;Node17</title>
<path fill="none" stroke="#404040" d="M887.21,-855.28C884.44,-839.07 878.94,-818.93 868,-804 863.19,-797.43 857.27,-791.48 850.85,-786.14"/>
<polygon fill="none" stroke="#404040" points="850.7,-786.03 843.51,-785.58 841.16,-778.76 848.35,-779.21 850.7,-786.03"/>
<text text-anchor="middle" x="906" y="-818" font-family="Helvetica,sans-Serif" font-size="10.00"> +symbol</text>
</g>
<!-- Node20 -->
<g id="node20" class="node">
<title>Node20</title>
<g id="a_node20"><a xlink:title=" ">
<polygon fill="none" stroke="#bfbfbf" points="936,-855.5 936,-912.5 986,-912.5 986,-855.5 936,-855.5"/>
<text text-anchor="middle" x="961" y="-900.5" font-family="Helvetica,sans-Serif" font-size="10.00">uint8_t</text>
<polyline fill="none" stroke="#bfbfbf" points="936,-893.5 986,-893.5 "/>
<text text-anchor="middle" x="961" y="-881.5" font-family="Helvetica,sans-Serif" font-size="10.00"> </text>
<polyline fill="none" stroke="#bfbfbf" points="936,-874.5 986,-874.5 "/>
<text text-anchor="middle" x="961" y="-862.5" font-family="Helvetica,sans-Serif" font-size="10.00"> </text>
</a>
</g>
</g>
<!-- Node20&#45;&gt;Node17 -->
<g id="edge24" class="edge">
<title>Node20&#45;&gt;Node17</title>
<path fill="none" stroke="#404040" d="M957.67,-855.31C954.31,-838.5 947.55,-817.71 934,-804 912.4,-782.14 880.92,-769.52 852.81,-762.26"/>
<polygon fill="none" stroke="#404040" points="852.68,-762.23 845.92,-764.74 841.01,-759.46 847.77,-756.95 852.68,-762.23"/>
<text text-anchor="middle" x="997.5" y="-823.5" font-family="Helvetica,sans-Serif" font-size="10.00"> +destination_ssid</text>
<text text-anchor="middle" x="997.5" y="-812.5" font-family="Helvetica,sans-Serif" font-size="10.00">+source_ssid</text>
</g>
</g>
</svg>
