<?xml version="1.0" encoding="UTF-8" standalone="no"?>
<!DOCTYPE svg PUBLIC "-//W3C//DTD SVG 1.1//EN"
 "http://www.w3.org/Graphics/SVG/1.1/DTD/svg11.dtd">
<!-- Generated by graphviz version 2.43.0 (0)
 -->
<!-- Title: signal_easel::afsk::Receiver Pages: 1 -->
<svg width="1141pt" height="827pt"
 viewBox="0.00 0.00 1141.00 827.00" xmlns="http://www.w3.org/2000/svg" xmlns:xlink="http://www.w3.org/1999/xlink">
<g id="graph0" class="graph" transform="scale(1 1) rotate(0) translate(4 823)">
<title>signal_easel::afsk::Receiver</title>
<!-- Node1 -->
<g id="node1" class="node">
<title>Node1</title>
<g id="a_node1"><a xlink:title="For receiving AFSK signals via a pulse audio stream.">
<polygon fill="#bfbfbf" stroke="black" points="247,-0.5 247,-134.5 369,-134.5 369,-0.5 247,-0.5"/>
<text text-anchor="start" x="255" y="-122.5" font-family="Helvetica,sans-Serif" font-size="10.00">signal_easel::afsk</text>
<text text-anchor="middle" x="308" y="-111.5" font-family="Helvetica,sans-Serif" font-size="10.00">::Receiver</text>
<polyline fill="none" stroke="black" points="247,-104.5 369,-104.5 "/>
<text text-anchor="middle" x="308" y="-92.5" font-family="Helvetica,sans-Serif" font-size="10.00"> </text>
<polyline fill="none" stroke="black" points="247,-85.5 369,-85.5 "/>
<text text-anchor="start" x="255" y="-73.5" font-family="Helvetica,sans-Serif" font-size="10.00">+ Receiver()</text>
<text text-anchor="start" x="255" y="-62.5" font-family="Helvetica,sans-Serif" font-size="10.00">+ ~Receiver()</text>
<text text-anchor="start" x="255" y="-51.5" font-family="Helvetica,sans-Serif" font-size="10.00">+ getLiveSnr()</text>
<text text-anchor="start" x="255" y="-40.5" font-family="Helvetica,sans-Serif" font-size="10.00">+ process()</text>
<text text-anchor="start" x="255" y="-29.5" font-family="Helvetica,sans-Serif" font-size="10.00"># decode()</text>
<text text-anchor="start" x="255" y="-18.5" font-family="Helvetica,sans-Serif" font-size="10.00"># detectSignal()</text>
<text text-anchor="start" x="255" y="-7.5" font-family="Helvetica,sans-Serif" font-size="10.00"># retainTailSamples()</text>
</a>
</g>
</g>
<!-- Node2 -->
<g id="node2" class="node">
<title>Node2</title>
<g id="a_node2"><a xlink:href="classsignal__easel_1_1Receiver.html" target="_top" xlink:title=" ">
<polygon fill="none" stroke="black" points="234,-397.5 234,-498.5 360,-498.5 360,-397.5 234,-397.5"/>
<text text-anchor="middle" x="297" y="-486.5" font-family="Helvetica,sans-Serif" font-size="10.00">signal_easel::Receiver</text>
<polyline fill="none" stroke="black" points="234,-479.5 360,-479.5 "/>
<text text-anchor="middle" x="297" y="-467.5" font-family="Helvetica,sans-Serif" font-size="10.00"> </text>
<polyline fill="none" stroke="black" points="234,-460.5 360,-460.5 "/>
<text text-anchor="start" x="242" y="-448.5" font-family="Helvetica,sans-Serif" font-size="10.00">+ Receiver()</text>
<text text-anchor="start" x="242" y="-437.5" font-family="Helvetica,sans-Serif" font-size="10.00">+ ~Receiver()</text>
<text text-anchor="start" x="242" y="-426.5" font-family="Helvetica,sans-Serif" font-size="10.00">+ getLatency()</text>
<text text-anchor="start" x="242" y="-415.5" font-family="Helvetica,sans-Serif" font-size="10.00">+ getVolume()</text>
<text text-anchor="start" x="242" y="-404.5" font-family="Helvetica,sans-Serif" font-size="10.00">+ process()</text>
</a>
</g>
</g>
<!-- Node2&#45;&gt;Node1 -->
<g id="edge1" class="edge">
<title>Node2&#45;&gt;Node1</title>
<path fill="none" stroke="midnightblue" d="M298.75,-386.9C300.74,-318.15 304.01,-205.93 306.08,-134.72"/>
<polygon fill="none" stroke="midnightblue" points="295.24,-387.03 298.45,-397.13 302.24,-387.23 295.24,-387.03"/>
</g>
<!-- Node3 -->
<g id="node3" class="node">
<title>Node3</title>
<g id="a_node3"><a xlink:title=" ">
<polygon fill="none" stroke="black" points="28,-623.5 28,-691.5 182,-691.5 182,-623.5 28,-623.5"/>
<text text-anchor="start" x="36" y="-679.5" font-family="Helvetica,sans-Serif" font-size="10.00">unique_ptr&lt; signal</text>
<text text-anchor="middle" x="105" y="-668.5" font-family="Helvetica,sans-Serif" font-size="10.00">_easel::PulseAudioReader &gt;</text>
<polyline fill="none" stroke="black" points="28,-661.5 182,-661.5 "/>
<text text-anchor="middle" x="105" y="-649.5" font-family="Helvetica,sans-Serif" font-size="10.00"> </text>
<polyline fill="none" stroke="black" points="28,-642.5 182,-642.5 "/>
<text text-anchor="middle" x="105" y="-630.5" font-family="Helvetica,sans-Serif" font-size="10.00"> </text>
</a>
</g>
</g>
<!-- Node3&#45;&gt;Node2 -->
<g id="edge2" class="edge">
<title>Node3&#45;&gt;Node2</title>
<path fill="none" stroke="#404040" d="M115.27,-623.28C122.38,-603.8 133.24,-579.46 148,-561 168.97,-534.78 197.42,-511.42 223.83,-492.9"/>
<polygon fill="none" stroke="#404040" points="223.94,-492.83 226.63,-486.14 233.84,-486.05 231.15,-492.74 223.94,-492.83"/>
<text text-anchor="middle" x="204" y="-580.5" font-family="Helvetica,sans-Serif" font-size="10.00"> #pulse_audio_reader_</text>
</g>
<!-- Node4 -->
<g id="node4" class="node">
<title>Node4</title>
<g id="a_node4"><a xlink:href="structsignal__easel_1_1Settings.html" target="_top" xlink:title="The universal settings for MWAV.">
<polygon fill="none" stroke="black" points="367.5,-629 367.5,-686 490.5,-686 490.5,-629 367.5,-629"/>
<text text-anchor="middle" x="429" y="-674" font-family="Helvetica,sans-Serif" font-size="10.00">signal_easel::Settings</text>
<polyline fill="none" stroke="black" points="367.5,-667 490.5,-667 "/>
<text text-anchor="middle" x="429" y="-655" font-family="Helvetica,sans-Serif" font-size="10.00"> </text>
<polyline fill="none" stroke="black" points="367.5,-648 490.5,-648 "/>
<text text-anchor="middle" x="429" y="-636" font-family="Helvetica,sans-Serif" font-size="10.00"> </text>
</a>
</g>
</g>
<!-- Node4&#45;&gt;Node2 -->
<g id="edge3" class="edge">
<title>Node4&#45;&gt;Node2</title>
<path fill="none" stroke="#404040" d="M367.26,-631.62C359.14,-628.59 350.9,-625.64 343,-623 314.98,-613.63 296.84,-628.55 279,-605 258.86,-578.41 262.08,-541.59 270.94,-510.41"/>
<polygon fill="none" stroke="#404040" points="271,-510.22 268.97,-503.3 274.57,-498.76 276.6,-505.68 271,-510.22"/>
<text text-anchor="middle" x="307" y="-580.5" font-family="Helvetica,sans-Serif" font-size="10.00"> #settings_</text>
</g>
<!-- Node9 -->
<g id="node9" class="node">
<title>Node9</title>
<g id="a_node9"><a xlink:href="classsignal__easel_1_1Demodulator.html" target="_top" xlink:title="The base class for all demodulators that turn audio into data.">
<polygon fill="none" stroke="black" points="378.5,-397.5 378.5,-498.5 525.5,-498.5 525.5,-397.5 378.5,-397.5"/>
<text text-anchor="middle" x="452" y="-486.5" font-family="Helvetica,sans-Serif" font-size="10.00">signal_easel::Demodulator</text>
<polyline fill="none" stroke="black" points="378.5,-479.5 525.5,-479.5 "/>
<text text-anchor="middle" x="452" y="-467.5" font-family="Helvetica,sans-Serif" font-size="10.00"> </text>
<polyline fill="none" stroke="black" points="378.5,-460.5 525.5,-460.5 "/>
<text text-anchor="start" x="386.5" y="-448.5" font-family="Helvetica,sans-Serif" font-size="10.00">+ Demodulator()</text>
<text text-anchor="start" x="386.5" y="-437.5" font-family="Helvetica,sans-Serif" font-size="10.00">+ ~Demodulator()</text>
<text text-anchor="start" x="386.5" y="-426.5" font-family="Helvetica,sans-Serif" font-size="10.00">+ clearBuffer()</text>
<text text-anchor="start" x="386.5" y="-415.5" font-family="Helvetica,sans-Serif" font-size="10.00">+ loadAudioFromFile()</text>
<text text-anchor="start" x="386.5" y="-404.5" font-family="Helvetica,sans-Serif" font-size="10.00"># getAudioBuffer()</text>
</a>
</g>
</g>
<!-- Node4&#45;&gt;Node9 -->
<g id="edge9" class="edge">
<title>Node4&#45;&gt;Node9</title>
<path fill="none" stroke="#404040" d="M432.91,-628.99C433.96,-621.24 435.07,-612.79 436,-605 439.69,-574.03 443.28,-539.54 446.12,-510.89"/>
<polygon fill="none" stroke="#404040" points="446.16,-510.52 442.77,-504.16 447.34,-498.58 450.73,-504.94 446.16,-510.52"/>
<text text-anchor="middle" x="468" y="-580.5" font-family="Helvetica,sans-Serif" font-size="10.00"> #settings_</text>
</g>
<!-- Node16 -->
<g id="node16" class="node">
<title>Node16</title>
<g id="a_node16"><a xlink:href="structsignal__easel_1_1afsk_1_1Settings.html" target="_top" xlink:title="Settings for AFSK modulation/demodulation.">
<polygon fill="none" stroke="black" points="874,-414 874,-482 978,-482 978,-414 874,-414"/>
<text text-anchor="start" x="882" y="-470" font-family="Helvetica,sans-Serif" font-size="10.00">signal_easel::afsk</text>
<text text-anchor="middle" x="926" y="-459" font-family="Helvetica,sans-Serif" font-size="10.00">::Settings</text>
<polyline fill="none" stroke="black" points="874,-452 978,-452 "/>
<text text-anchor="middle" x="926" y="-440" font-family="Helvetica,sans-Serif" font-size="10.00"> </text>
<polyline fill="none" stroke="black" points="874,-433 978,-433 "/>
<text text-anchor="middle" x="926" y="-421" font-family="Helvetica,sans-Serif" font-size="10.00"> </text>
</a>
</g>
</g>
<!-- Node4&#45;&gt;Node16 -->
<g id="edge17" class="edge">
<title>Node4&#45;&gt;Node16</title>
<path fill="none" stroke="midnightblue" d="M498.54,-625.55C501.38,-624.64 504.2,-623.78 507,-623 563.19,-607.35 585.58,-632.53 637,-605 660.04,-592.67 652.87,-573.15 676,-561 734.27,-530.39 763.19,-570.49 823,-543 853.14,-529.15 880.52,-503.2 899.46,-482.07"/>
<polygon fill="none" stroke="midnightblue" points="497.2,-622.32 488.89,-628.89 499.48,-628.93 497.2,-622.32"/>
</g>
<!-- Node5 -->
<g id="node5" class="node">
<title>Node5</title>
<g id="a_node5"><a xlink:title=" ">
<polygon fill="none" stroke="black" points="462,-761.5 462,-818.5 506,-818.5 506,-761.5 462,-761.5"/>
<text text-anchor="middle" x="484" y="-806.5" font-family="Helvetica,sans-Serif" font-size="10.00">string</text>
<polyline fill="none" stroke="black" points="462,-799.5 506,-799.5 "/>
<text text-anchor="middle" x="484" y="-787.5" font-family="Helvetica,sans-Serif" font-size="10.00"> </text>
<polyline fill="none" stroke="black" points="462,-780.5 506,-780.5 "/>
<text text-anchor="middle" x="484" y="-768.5" font-family="Helvetica,sans-Serif" font-size="10.00"> </text>
</a>
</g>
</g>
<!-- Node5&#45;&gt;Node4 -->
<g id="edge4" class="edge">
<title>Node5&#45;&gt;Node4</title>
<path fill="none" stroke="#404040" d="M478.41,-761.24C474.77,-745.77 469.33,-726.37 462,-710 460.03,-705.6 457.72,-701.14 455.26,-696.78"/>
<polygon fill="none" stroke="#404040" points="455.1,-696.53 448.58,-693.45 448.91,-686.25 455.43,-689.32 455.1,-696.53"/>
<text text-anchor="middle" x="500.5" y="-724" font-family="Helvetica,sans-Serif" font-size="10.00"> +call_sign</text>
</g>
<!-- Node6 -->
<g id="node6" class="node">
<title>Node6</title>
<g id="a_node6"><a xlink:title=" ">
<polygon fill="none" stroke="black" points="331.5,-761.5 331.5,-818.5 414.5,-818.5 414.5,-761.5 331.5,-761.5"/>
<text text-anchor="middle" x="373" y="-806.5" font-family="Helvetica,sans-Serif" font-size="10.00">CallSignMode</text>
<polyline fill="none" stroke="black" points="331.5,-799.5 414.5,-799.5 "/>
<text text-anchor="middle" x="373" y="-787.5" font-family="Helvetica,sans-Serif" font-size="10.00"> </text>
<polyline fill="none" stroke="black" points="331.5,-780.5 414.5,-780.5 "/>
<text text-anchor="middle" x="373" y="-768.5" font-family="Helvetica,sans-Serif" font-size="10.00"> </text>
</a>
</g>
</g>
<!-- Node6&#45;&gt;Node4 -->
<g id="edge5" class="edge">
<title>Node6&#45;&gt;Node4</title>
<path fill="none" stroke="#404040" d="M366.05,-761.5C363.48,-745.74 362.73,-725.99 370,-710 372.4,-704.71 375.65,-699.75 379.39,-695.16"/>
<polygon fill="none" stroke="#404040" points="379.49,-695.05 380.64,-687.93 387.65,-686.26 386.5,-693.38 379.49,-695.05"/>
<text text-anchor="middle" x="414" y="-724" font-family="Helvetica,sans-Serif" font-size="10.00"> +call_sign_mode</text>
</g>
<!-- Node7 -->
<g id="node7" class="node">
<title>Node7</title>
<g id="a_node7"><a xlink:title=" ">
<polygon fill="none" stroke="black" points="116,-761.5 116,-818.5 166,-818.5 166,-761.5 116,-761.5"/>
<text text-anchor="middle" x="141" y="-806.5" font-family="Helvetica,sans-Serif" font-size="10.00">double</text>
<polyline fill="none" stroke="black" points="116,-799.5 166,-799.5 "/>
<text text-anchor="middle" x="141" y="-787.5" font-family="Helvetica,sans-Serif" font-size="10.00"> </text>
<polyline fill="none" stroke="black" points="116,-780.5 166,-780.5 "/>
<text text-anchor="middle" x="141" y="-768.5" font-family="Helvetica,sans-Serif" font-size="10.00"> </text>
</a>
</g>
</g>
<!-- Node7&#45;&gt;Node1 -->
<g id="edge22" class="edge">
<title>Node7&#45;&gt;Node1</title>
<path fill="none" stroke="#404040" d="M115.79,-779.26C75.24,-761.76 0,-720.87 0,-658.5 0,-658.5 0,-658.5 0,-243 0,-135.51 143.76,-93.45 234.85,-77.58"/>
<polygon fill="none" stroke="#404040" points="234.94,-77.56 240.21,-72.64 246.78,-75.6 241.52,-80.53 234.94,-77.56"/>
<text text-anchor="middle" x="27.5" y="-445.5" font-family="Helvetica,sans-Serif" font-size="10.00"> #live_snr_</text>
</g>
<!-- Node7&#45;&gt;Node4 -->
<g id="edge6" class="edge">
<title>Node7&#45;&gt;Node4</title>
<path fill="none" stroke="#404040" d="M166.35,-770.99C192.31,-753.28 234.35,-726.56 274,-710 303.25,-697.79 312.85,-701.77 343,-692 347.21,-690.64 351.51,-689.18 355.84,-687.66"/>
<polygon fill="none" stroke="#404040" points="356.02,-687.59 360.3,-681.8 367.3,-683.52 363.02,-689.32 356.02,-687.59"/>
<text text-anchor="middle" x="317" y="-735" font-family="Helvetica,sans-Serif" font-size="10.00"> +amplitude</text>
<text text-anchor="start" x="274" y="-724" font-family="Helvetica,sans-Serif" font-size="10.00">+call_sign_pause</text>
<text text-anchor="middle" x="317" y="-713" font-family="Helvetica,sans-Serif" font-size="10.00">_seconds</text>
</g>
<!-- Node8 -->
<g id="node8" class="node">
<title>Node8</title>
<g id="a_node8"><a xlink:href="classsignal__easel_1_1afsk_1_1Demodulator.html" target="_top" xlink:title="Demodulates an AFSK signal into data.">
<polygon fill="none" stroke="black" points="496,-182.5 496,-305.5 672,-305.5 672,-182.5 496,-182.5"/>
<text text-anchor="start" x="504" y="-293.5" font-family="Helvetica,sans-Serif" font-size="10.00">signal_easel::afsk</text>
<text text-anchor="middle" x="584" y="-282.5" font-family="Helvetica,sans-Serif" font-size="10.00">::Demodulator</text>
<polyline fill="none" stroke="black" points="496,-275.5 672,-275.5 "/>
<text text-anchor="middle" x="584" y="-263.5" font-family="Helvetica,sans-Serif" font-size="10.00"> </text>
<polyline fill="none" stroke="black" points="496,-256.5 672,-256.5 "/>
<text text-anchor="start" x="504" y="-244.5" font-family="Helvetica,sans-Serif" font-size="10.00">+ Demodulator()</text>
<text text-anchor="start" x="504" y="-233.5" font-family="Helvetica,sans-Serif" font-size="10.00">+ ~Demodulator()</text>
<text text-anchor="start" x="504" y="-222.5" font-family="Helvetica,sans-Serif" font-size="10.00">+ lookForString()</text>
<text text-anchor="start" x="504" y="-211.5" font-family="Helvetica,sans-Serif" font-size="10.00">+ processAudioBuffer()</text>
<text text-anchor="start" x="504" y="-200.5" font-family="Helvetica,sans-Serif" font-size="10.00">&#45; audioBufferToBaseBandSignal()</text>
<text text-anchor="start" x="504" y="-189.5" font-family="Helvetica,sans-Serif" font-size="10.00">&#45; baseBandToBitStream()</text>
</a>
</g>
</g>
<!-- Node8&#45;&gt;Node1 -->
<g id="edge7" class="edge">
<title>Node8&#45;&gt;Node1</title>
<path fill="none" stroke="#404040" d="M495.91,-187.31C458.29,-163.52 414.95,-136.12 379.38,-113.63"/>
<polygon fill="none" stroke="#404040" points="379.23,-113.54 372.02,-113.71 369.09,-107.12 376.3,-106.95 379.23,-113.54"/>
<text text-anchor="middle" x="493.5" y="-156" font-family="Helvetica,sans-Serif" font-size="10.00"> #demodulator_</text>
</g>
<!-- Node9&#45;&gt;Node8 -->
<g id="edge8" class="edge">
<title>Node9&#45;&gt;Node8</title>
<path fill="none" stroke="midnightblue" d="M490.11,-388.69C507.12,-362.65 527.17,-331.97 544.36,-305.67"/>
<polygon fill="none" stroke="midnightblue" points="487,-387.04 484.46,-397.33 492.86,-390.87 487,-387.04"/>
</g>
<!-- Node10 -->
<g id="node10" class="node">
<title>Node10</title>
<g id="a_node10"><a xlink:title=" ">
<polygon fill="none" stroke="black" points="230,-629 230,-686 334,-686 334,-629 230,-629"/>
<text text-anchor="middle" x="282" y="-674" font-family="Helvetica,sans-Serif" font-size="10.00">vector&lt; int16_t &gt;</text>
<polyline fill="none" stroke="black" points="230,-667 334,-667 "/>
<text text-anchor="middle" x="282" y="-655" font-family="Helvetica,sans-Serif" font-size="10.00"> </text>
<polyline fill="none" stroke="black" points="230,-648 334,-648 "/>
<text text-anchor="middle" x="282" y="-636" font-family="Helvetica,sans-Serif" font-size="10.00"> </text>
</a>
</g>
</g>
<!-- Node10&#45;&gt;Node1 -->
<g id="edge21" class="edge">
<title>Node10&#45;&gt;Node1</title>
<path fill="none" stroke="#404040" d="M264.25,-628.82C250.95,-606.57 233.62,-574.02 225,-543 198.87,-448.97 191.06,-419.93 209,-324 220.64,-261.72 246.97,-195.1 269.54,-145.5"/>
<polygon fill="none" stroke="#404040" points="269.57,-145.44 268.45,-138.32 274.59,-134.55 275.71,-141.67 269.57,-145.44"/>
<text text-anchor="middle" x="252.5" y="-327" font-family="Helvetica,sans-Serif" font-size="10.00"> #receive_buffer_</text>
</g>
<!-- Node10&#45;&gt;Node9 -->
<g id="edge10" class="edge">
<title>Node10&#45;&gt;Node9</title>
<path fill="none" stroke="#404040" d="M314.45,-628.93C321.81,-621.65 329.17,-613.45 335,-605 347.09,-587.46 342.63,-579.01 354,-561 356.06,-557.74 377.5,-533.18 399.8,-507.89"/>
<polygon fill="none" stroke="#404040" points="400.08,-507.57 401.05,-500.42 408.02,-498.57 407.05,-505.72 400.08,-507.57"/>
<text text-anchor="middle" x="393" y="-580.5" font-family="Helvetica,sans-Serif" font-size="10.00"> #audio_buffer_</text>
</g>
<!-- Node11 -->
<g id="node11" class="node">
<title>Node11</title>
<g id="a_node11"><a xlink:href="classsignal__easel_1_1BitStream.html" target="_top" xlink:title=" ">
<polygon fill="none" stroke="black" points="666.5,-353.5 666.5,-542.5 813.5,-542.5 813.5,-353.5 666.5,-353.5"/>
<text text-anchor="middle" x="740" y="-530.5" font-family="Helvetica,sans-Serif" font-size="10.00">signal_easel::BitStream</text>
<polyline fill="none" stroke="black" points="666.5,-523.5 813.5,-523.5 "/>
<text text-anchor="middle" x="740" y="-511.5" font-family="Helvetica,sans-Serif" font-size="10.00"> </text>
<polyline fill="none" stroke="black" points="666.5,-504.5 813.5,-504.5 "/>
<text text-anchor="start" x="674.5" y="-492.5" font-family="Helvetica,sans-Serif" font-size="10.00">+ addBits()</text>
<text text-anchor="start" x="674.5" y="-481.5" font-family="Helvetica,sans-Serif" font-size="10.00">+ addOneBit()</text>
<text text-anchor="start" x="674.5" y="-470.5" font-family="Helvetica,sans-Serif" font-size="10.00">+ addZeroBit()</text>
<text text-anchor="start" x="674.5" y="-459.5" font-family="Helvetica,sans-Serif" font-size="10.00">+ clear()</text>
<text text-anchor="start" x="674.5" y="-448.5" font-family="Helvetica,sans-Serif" font-size="10.00">+ dumpBitStream()</text>
<text text-anchor="start" x="674.5" y="-437.5" font-family="Helvetica,sans-Serif" font-size="10.00">+ dumpBitStreamAsAscii()</text>
<text text-anchor="start" x="674.5" y="-426.5" font-family="Helvetica,sans-Serif" font-size="10.00">+ dumpBitStreamAsHex()</text>
<text text-anchor="start" x="674.5" y="-415.5" font-family="Helvetica,sans-Serif" font-size="10.00">+ getBitStreamLength()</text>
<text text-anchor="start" x="674.5" y="-404.5" font-family="Helvetica,sans-Serif" font-size="10.00">+ getBitVector()</text>
<text text-anchor="start" x="674.5" y="-393.5" font-family="Helvetica,sans-Serif" font-size="10.00">+ peakNextBit()</text>
<text text-anchor="start" x="674.5" y="-382.5" font-family="Helvetica,sans-Serif" font-size="10.00">+ peakNextByte()</text>
<text text-anchor="start" x="674.5" y="-371.5" font-family="Helvetica,sans-Serif" font-size="10.00">+ popNextBit()</text>
<text text-anchor="start" x="674.5" y="-360.5" font-family="Helvetica,sans-Serif" font-size="10.00">+ pushBufferToBitStream()</text>
</a>
</g>
</g>
<!-- Node11&#45;&gt;Node8 -->
<g id="edge11" class="edge">
<title>Node11&#45;&gt;Node8</title>
<path fill="none" stroke="#404040" d="M703.95,-353.18C698.3,-342.9 691.99,-332.94 685,-324 682.53,-320.84 679.91,-317.74 677.17,-314.7"/>
<polygon fill="none" stroke="#404040" points="676.92,-314.44 669.89,-312.87 668.63,-305.77 675.67,-307.34 676.92,-314.44"/>
<text text-anchor="middle" x="744" y="-327" font-family="Helvetica,sans-Serif" font-size="10.00"> #output_bit_stream_</text>
</g>
<!-- Node12 -->
<g id="node12" class="node">
<title>Node12</title>
<g id="a_node12"><a xlink:title=" ">
<polygon fill="none" stroke="black" points="516,-629 516,-686 626,-686 626,-629 516,-629"/>
<text text-anchor="middle" x="571" y="-674" font-family="Helvetica,sans-Serif" font-size="10.00">vector&lt; uint32_t &gt;</text>
<polyline fill="none" stroke="black" points="516,-667 626,-667 "/>
<text text-anchor="middle" x="571" y="-655" font-family="Helvetica,sans-Serif" font-size="10.00"> </text>
<polyline fill="none" stroke="black" points="516,-648 626,-648 "/>
<text text-anchor="middle" x="571" y="-636" font-family="Helvetica,sans-Serif" font-size="10.00"> </text>
</a>
</g>
</g>
<!-- Node12&#45;&gt;Node11 -->
<g id="edge12" class="edge">
<title>Node12&#45;&gt;Node11</title>
<path fill="none" stroke="#404040" d="M576.41,-628.91C581.85,-607.82 592.22,-579.34 611,-561 624.56,-547.76 635.58,-553.34 655.86,-542.55"/>
<polygon fill="none" stroke="#404040" points="656.07,-542.42 659.03,-535.85 666.24,-536.06 663.28,-542.63 656.07,-542.42"/>
<text text-anchor="middle" x="643.5" y="-580.5" font-family="Helvetica,sans-Serif" font-size="10.00"> &#45;bit_stream_</text>
</g>
<!-- Node13 -->
<g id="node13" class="node">
<title>Node13</title>
<g id="a_node13"><a xlink:title=" ">
<polygon fill="none" stroke="black" points="669.5,-629 669.5,-686 698.5,-686 698.5,-629 669.5,-629"/>
<text text-anchor="middle" x="684" y="-674" font-family="Helvetica,sans-Serif" font-size="10.00">int</text>
<polyline fill="none" stroke="black" points="669.5,-667 698.5,-667 "/>
<text text-anchor="middle" x="684" y="-655" font-family="Helvetica,sans-Serif" font-size="10.00"> </text>
<polyline fill="none" stroke="black" points="669.5,-648 698.5,-648 "/>
<text text-anchor="middle" x="684" y="-636" font-family="Helvetica,sans-Serif" font-size="10.00"> </text>
</a>
</g>
</g>
<!-- Node13&#45;&gt;Node11 -->
<g id="edge13" class="edge">
<title>Node13&#45;&gt;Node11</title>
<path fill="none" stroke="#404040" d="M681.09,-628.94C679.83,-609.65 679.67,-583.42 685,-561 685.55,-558.71 686.14,-556.41 686.79,-554.11"/>
<polygon fill="none" stroke="#404040" points="686.81,-554.05 684.78,-547.13 690.39,-542.6 692.41,-549.52 686.81,-554.05"/>
<text text-anchor="middle" x="733.5" y="-597" font-family="Helvetica,sans-Serif" font-size="10.00"> &#45;bit_stream_index_</text>
<text text-anchor="start" x="685" y="-586" font-family="Helvetica,sans-Serif" font-size="10.00">&#45;bit_stream_length</text>
<text text-anchor="middle" x="733.5" y="-575" font-family="Helvetica,sans-Serif" font-size="10.00">_</text>
<text text-anchor="middle" x="733.5" y="-564" font-family="Helvetica,sans-Serif" font-size="10.00">&#45;bit_stream_offset_</text>
</g>
<!-- Node14 -->
<g id="node14" class="node">
<title>Node14</title>
<g id="a_node14"><a xlink:title=" ">
<polygon fill="none" stroke="black" points="776,-629 776,-686 832,-686 832,-629 776,-629"/>
<text text-anchor="middle" x="804" y="-674" font-family="Helvetica,sans-Serif" font-size="10.00">uint32_t</text>
<polyline fill="none" stroke="black" points="776,-667 832,-667 "/>
<text text-anchor="middle" x="804" y="-655" font-family="Helvetica,sans-Serif" font-size="10.00"> </text>
<polyline fill="none" stroke="black" points="776,-648 832,-648 "/>
<text text-anchor="middle" x="804" y="-636" font-family="Helvetica,sans-Serif" font-size="10.00"> </text>
</a>
</g>
</g>
<!-- Node14&#45;&gt;Node11 -->
<g id="edge14" class="edge">
<title>Node14&#45;&gt;Node11</title>
<path fill="none" stroke="#404040" d="M798.6,-628.66C794.64,-609.48 788.77,-583.48 782,-561 781.33,-558.76 780.63,-556.51 779.92,-554.24"/>
<polygon fill="none" stroke="#404040" points="779.91,-554.21 774.25,-549.74 776.2,-542.8 781.86,-547.27 779.91,-554.21"/>
<text text-anchor="middle" x="841.5" y="-580.5" font-family="Helvetica,sans-Serif" font-size="10.00"> &#45;bit_stream_buffer_</text>
</g>
<!-- Node15 -->
<g id="node15" class="node">
<title>Node15</title>
<g id="a_node15"><a xlink:title=" ">
<polygon fill="none" stroke="black" points="544,-419.5 544,-476.5 648,-476.5 648,-419.5 544,-419.5"/>
<text text-anchor="middle" x="596" y="-464.5" font-family="Helvetica,sans-Serif" font-size="10.00">vector&lt; uint8_t &gt;</text>
<polyline fill="none" stroke="black" points="544,-457.5 648,-457.5 "/>
<text text-anchor="middle" x="596" y="-445.5" font-family="Helvetica,sans-Serif" font-size="10.00"> </text>
<polyline fill="none" stroke="black" points="544,-438.5 648,-438.5 "/>
<text text-anchor="middle" x="596" y="-426.5" font-family="Helvetica,sans-Serif" font-size="10.00"> </text>
</a>
</g>
</g>
<!-- Node15&#45;&gt;Node8 -->
<g id="edge15" class="edge">
<title>Node15&#45;&gt;Node8</title>
<path fill="none" stroke="#404040" d="M592.62,-419.43C590.01,-396.8 586.58,-363.87 585,-335 584.69,-329.35 584.45,-323.5 584.26,-317.61"/>
<polygon fill="none" stroke="#404040" points="584.26,-317.53 580.11,-311.64 583.95,-305.54 588.11,-311.43 584.26,-317.53"/>
<text text-anchor="middle" x="635" y="-327" font-family="Helvetica,sans-Serif" font-size="10.00"> &#45;base_band_signal_</text>
</g>
<!-- Node16&#45;&gt;Node1 -->
<g id="edge20" class="edge">
<title>Node16&#45;&gt;Node1</title>
<path fill="none" stroke="#404040" d="M925.11,-413.74C922.93,-387.31 916.44,-350.52 898,-324 832.2,-229.37 785.41,-230.82 681,-182 581.33,-135.39 457.84,-102.21 380.97,-84.2"/>
<polygon fill="none" stroke="#404040" points="380.74,-84.14 373.99,-86.69 369.05,-81.44 375.8,-78.89 380.74,-84.14"/>
<text text-anchor="middle" x="923" y="-241.5" font-family="Helvetica,sans-Serif" font-size="10.00"> #afsk_settings_</text>
</g>
<!-- Node16&#45;&gt;Node8 -->
<g id="edge16" class="edge">
<title>Node16&#45;&gt;Node8</title>
<path fill="none" stroke="#404040" d="M899.32,-413.74C875.89,-386.42 839.61,-348.38 801,-324 765.29,-301.45 722.22,-284.08 683.89,-271.45"/>
<polygon fill="none" stroke="#404040" points="683.59,-271.35 676.65,-273.32 672.17,-267.68 679.1,-265.7 683.59,-271.35"/>
<text text-anchor="middle" x="855" y="-327" font-family="Helvetica,sans-Serif" font-size="10.00"> &#45;afsk_settings_</text>
</g>
<!-- Node17 -->
<g id="node17" class="node">
<title>Node17</title>
<g id="a_node17"><a xlink:title=" ">
<polygon fill="none" stroke="black" points="889,-629 889,-686 963,-686 963,-629 889,-629"/>
<text text-anchor="middle" x="926" y="-674" font-family="Helvetica,sans-Serif" font-size="10.00">BitEncoding</text>
<polyline fill="none" stroke="black" points="889,-667 963,-667 "/>
<text text-anchor="middle" x="926" y="-655" font-family="Helvetica,sans-Serif" font-size="10.00"> </text>
<polyline fill="none" stroke="black" points="889,-648 963,-648 "/>
<text text-anchor="middle" x="926" y="-636" font-family="Helvetica,sans-Serif" font-size="10.00"> </text>
</a>
</g>
</g>
<!-- Node17&#45;&gt;Node16 -->
<g id="edge18" class="edge">
<title>Node17&#45;&gt;Node16</title>
<path fill="none" stroke="#404040" d="M926,-628.95C926,-594.58 926,-535.35 926,-494.28"/>
<polygon fill="none" stroke="#404040" points="926,-494.16 922,-488.16 926,-482.16 930,-488.16 926,-494.16"/>
<text text-anchor="middle" x="963" y="-580.5" font-family="Helvetica,sans-Serif" font-size="10.00"> +bit_encoding</text>
</g>
<!-- Node18 -->
<g id="node18" class="node">
<title>Node18</title>
<g id="a_node18"><a xlink:title=" ">
<polygon fill="none" stroke="black" points="1004,-629 1004,-686 1042,-686 1042,-629 1004,-629"/>
<text text-anchor="middle" x="1023" y="-674" font-family="Helvetica,sans-Serif" font-size="10.00">bool</text>
<polyline fill="none" stroke="black" points="1004,-667 1042,-667 "/>
<text text-anchor="middle" x="1023" y="-655" font-family="Helvetica,sans-Serif" font-size="10.00"> </text>
<polyline fill="none" stroke="black" points="1004,-648 1042,-648 "/>
<text text-anchor="middle" x="1023" y="-636" font-family="Helvetica,sans-Serif" font-size="10.00"> </text>
</a>
</g>
</g>
<!-- Node18&#45;&gt;Node16 -->
<g id="edge19" class="edge">
<title>Node18&#45;&gt;Node16</title>
<path fill="none" stroke="#404040" d="M1019.37,-628.91C1016.15,-609.37 1010.46,-582.86 1001,-561 990.51,-536.75 974.68,-512.1 960.26,-492.12"/>
<polygon fill="none" stroke="#404040" points="960.23,-492.08 953.45,-489.62 953.11,-482.42 959.89,-484.88 960.23,-492.08"/>
<text text-anchor="middle" x="1073.5" y="-580.5" font-family="Helvetica,sans-Serif" font-size="10.00"> +include_ascii_padding</text>
</g>
</g>
</svg>
