<?xml version="1.0" encoding="UTF-8" standalone="no"?>
<!DOCTYPE svg PUBLIC "-//W3C//DTD SVG 1.1//EN"
 "http://www.w3.org/Graphics/SVG/1.1/DTD/svg11.dtd">
<!-- Generated by graphviz version 2.43.0 (0)
 -->
<!-- Title: signal_easel::ax25::Address::assertIsValid Pages: 1 -->
<svg width="1139pt" height="250pt"
 viewBox="0.00 0.00 1139.00 249.50" xmlns="http://www.w3.org/2000/svg" xmlns:xlink="http://www.w3.org/1999/xlink">
<g id="graph0" class="graph" transform="scale(1 1) rotate(0) translate(4 245.5)">
<title>signal_easel::ax25::Address::assertIsValid</title>
<!-- Node1 -->
<g id="node1" class="node">
<title>Node1</title>
<g id="a_node1"><a xlink:title="Checks if the address is valid, if not throws an exception with a specific error code.">
<polygon fill="#bfbfbf" stroke="black" points="1001,-107.5 1001,-137.5 1131,-137.5 1131,-107.5 1001,-107.5"/>
<text text-anchor="start" x="1009" y="-125.5" font-family="Helvetica,sans-Serif" font-size="10.00">signal_easel::ax25</text>
<text text-anchor="middle" x="1066" y="-114.5" font-family="Helvetica,sans-Serif" font-size="10.00">::Address::assertIsValid</text>
</a>
</g>
</g>
<!-- Node2 -->
<g id="node2" class="node">
<title>Node2</title>
<g id="a_node2"><a xlink:href="classsignal__easel_1_1ax25_1_1Frame.html#af86d4b534367a8faf6b628301c9ffceb" target="_top" xlink:title=" ">
<polygon fill="none" stroke="black" points="799.5,-205.5 799.5,-235.5 960.5,-235.5 960.5,-205.5 799.5,-205.5"/>
<text text-anchor="start" x="807.5" y="-223.5" font-family="Helvetica,sans-Serif" font-size="10.00">signal_easel::ax25</text>
<text text-anchor="middle" x="880" y="-212.5" font-family="Helvetica,sans-Serif" font-size="10.00">::Frame::addRepeaterAddress</text>
</a>
</g>
</g>
<!-- Node1&#45;&gt;Node2 -->
<g id="edge1" class="edge">
<title>Node1&#45;&gt;Node2</title>
<path fill="none" stroke="midnightblue" d="M1040.85,-144.28C1021.54,-160.68 993.14,-182.64 965,-196.5 958.2,-199.85 950.85,-202.81 943.42,-205.4"/>
<polygon fill="midnightblue" stroke="midnightblue" points="1043.26,-146.82 1048.54,-137.63 1038.68,-141.53 1043.26,-146.82"/>
</g>
<!-- Node9 -->
<g id="node9" class="node">
<title>Node9</title>
<g id="a_node9"><a xlink:href="classsignal__easel_1_1ax25_1_1Address.html#a0c31737081a9184b56dc32150b23cb0a" target="_top" xlink:title="Get the address as a byte array.">
<polygon fill="none" stroke="black" points="809,-19.5 809,-49.5 951,-49.5 951,-19.5 809,-19.5"/>
<text text-anchor="start" x="817" y="-37.5" font-family="Helvetica,sans-Serif" font-size="10.00">signal_easel::ax25</text>
<text text-anchor="middle" x="880" y="-26.5" font-family="Helvetica,sans-Serif" font-size="10.00">::Address::encodeAddress</text>
</a>
</g>
</g>
<!-- Node1&#45;&gt;Node9 -->
<g id="edge8" class="edge">
<title>Node1&#45;&gt;Node9</title>
<path fill="none" stroke="midnightblue" d="M1033.15,-102.02C1013.89,-90.15 988.58,-75.44 965,-64.5 953.2,-59.03 940.1,-53.92 927.82,-49.52"/>
<polygon fill="midnightblue" stroke="midnightblue" points="1031.47,-105.1 1041.81,-107.42 1035.18,-99.16 1031.47,-105.1"/>
</g>
<!-- Node15 -->
<g id="node15" class="node">
<title>Node15</title>
<g id="a_node15"><a xlink:href="classsignal__easel_1_1ax25_1_1Frame.html#a57b163ece54317da8d95f3b18b47c23d" target="_top" xlink:title="setters/getters for the frame.">
<polygon fill="none" stroke="black" points="795,-107.5 795,-137.5 965,-137.5 965,-107.5 795,-107.5"/>
<text text-anchor="start" x="803" y="-125.5" font-family="Helvetica,sans-Serif" font-size="10.00">signal_easel::ax25</text>
<text text-anchor="middle" x="880" y="-114.5" font-family="Helvetica,sans-Serif" font-size="10.00">::Frame::setDestinationAddress</text>
</a>
</g>
</g>
<!-- Node1&#45;&gt;Node15 -->
<g id="edge15" class="edge">
<title>Node1&#45;&gt;Node15</title>
<path fill="none" stroke="midnightblue" d="M990.78,-122.5C982.38,-122.5 973.77,-122.5 965.26,-122.5"/>
<polygon fill="midnightblue" stroke="midnightblue" points="990.9,-126 1000.9,-122.5 990.9,-119 990.9,-126"/>
</g>
<!-- Node17 -->
<g id="node17" class="node">
<title>Node17</title>
<g id="a_node17"><a xlink:href="ax25__frame__test_8cpp.html#a091d83d42783f2a0b3fd33a0521dc2ce" target="_top" xlink:title=" ">
<polygon fill="none" stroke="black" points="657.5,-88 657.5,-107 698.5,-107 698.5,-88 657.5,-88"/>
<text text-anchor="middle" x="678" y="-95" font-family="Helvetica,sans-Serif" font-size="10.00">TEST</text>
</a>
</g>
</g>
<!-- Node1&#45;&gt;Node17 -->
<g id="edge24" class="edge">
<title>Node1&#45;&gt;Node17</title>
<path fill="none" stroke="midnightblue" d="M1005.22,-105.03C992.09,-101.9 978.16,-99.12 965,-97.5 865.45,-85.25 744.93,-92.33 698.52,-95.86"/>
<polygon fill="midnightblue" stroke="midnightblue" points="1004.54,-108.46 1015.09,-107.47 1006.23,-101.67 1004.54,-108.46"/>
</g>
<!-- Node18 -->
<g id="node18" class="node">
<title>Node18</title>
<g id="a_node18"><a xlink:href="classsignal__easel_1_1ax25_1_1Frame.html#a402d26a81f82bb5c477e8930b75a771e" target="_top" xlink:title=" ">
<polygon fill="none" stroke="black" points="807,-156.5 807,-186.5 953,-186.5 953,-156.5 807,-156.5"/>
<text text-anchor="start" x="815" y="-174.5" font-family="Helvetica,sans-Serif" font-size="10.00">signal_easel::ax25</text>
<text text-anchor="middle" x="880" y="-163.5" font-family="Helvetica,sans-Serif" font-size="10.00">::Frame::setSourceAddress</text>
</a>
</g>
</g>
<!-- Node1&#45;&gt;Node18 -->
<g id="edge20" class="edge">
<title>Node1&#45;&gt;Node18</title>
<path fill="none" stroke="midnightblue" d="M998.82,-140.12C978.69,-145.48 956.77,-151.32 937.35,-156.49"/>
<polygon fill="midnightblue" stroke="midnightblue" points="999.78,-143.49 1008.54,-137.53 997.98,-136.73 999.78,-143.49"/>
</g>
<!-- Node3 -->
<g id="node3" class="node">
<title>Node3</title>
<g id="a_node3"><a xlink:href="classsignal__easel_1_1ax25_1_1Frame.html#a40b07872c291deee87c677459a27c21c" target="_top" xlink:title="Attempt to parse a single AX.25 frame from an already NRZI&#45;decoded bit stream. Unlike parseBitStream,...">
<polygon fill="none" stroke="black" points="597,-176 597,-217 759,-217 759,-176 597,-176"/>
<text text-anchor="start" x="605" y="-205" font-family="Helvetica,sans-Serif" font-size="10.00">signal_easel::ax25</text>
<text text-anchor="start" x="605" y="-194" font-family="Helvetica,sans-Serif" font-size="10.00">::Frame::parseNrziDecodedBit</text>
<text text-anchor="middle" x="678" y="-183" font-family="Helvetica,sans-Serif" font-size="10.00">Stream</text>
</a>
</g>
</g>
<!-- Node2&#45;&gt;Node3 -->
<g id="edge2" class="edge">
<title>Node2&#45;&gt;Node3</title>
<path fill="none" stroke="midnightblue" d="M789.42,-209.75C779.39,-208.55 769.23,-207.33 759.33,-206.14"/>
<polygon fill="midnightblue" stroke="midnightblue" points="789.03,-213.23 799.38,-210.95 789.87,-206.28 789.03,-213.23"/>
</g>
<!-- Node4 -->
<g id="node4" class="node">
<title>Node4</title>
<g id="a_node4"><a xlink:href="classsignal__easel_1_1aprs_1_1Demodulator.html#ab4819ac606d0ebf3e5ac235a3bf916df" target="_top" xlink:title="Like lookForAx25Packet, but parses a single AX.25 frame from an already NRZI&#45;decoded bit stream....">
<polygon fill="none" stroke="black" points="409,-200 409,-241 561,-241 561,-200 409,-200"/>
<text text-anchor="start" x="417" y="-229" font-family="Helvetica,sans-Serif" font-size="10.00">signal_easel::aprs</text>
<text text-anchor="start" x="417" y="-218" font-family="Helvetica,sans-Serif" font-size="10.00">::Demodulator::lookForNext</text>
<text text-anchor="middle" x="485" y="-207" font-family="Helvetica,sans-Serif" font-size="10.00">Ax25Packet</text>
</a>
</g>
</g>
<!-- Node3&#45;&gt;Node4 -->
<g id="edge3" class="edge">
<title>Node3&#45;&gt;Node4</title>
<path fill="none" stroke="midnightblue" d="M586.78,-207.84C578.18,-208.92 569.52,-210.01 561.09,-211.06"/>
<polygon fill="midnightblue" stroke="midnightblue" points="587.34,-211.29 596.83,-206.57 586.47,-204.35 587.34,-211.29"/>
</g>
<!-- Node6 -->
<g id="node6" class="node">
<title>Node6</title>
<g id="a_node6"><a xlink:href="classsignal__easel_1_1ax25_1_1Frame.html#a63cf2362c2a90d20f09bbbc4f24a07ba" target="_top" xlink:title="Attempt to parse an incoming bit stream into an AX.25 frame.">
<polygon fill="none" stroke="black" points="417.5,-150.5 417.5,-180.5 552.5,-180.5 552.5,-150.5 417.5,-150.5"/>
<text text-anchor="start" x="425.5" y="-168.5" font-family="Helvetica,sans-Serif" font-size="10.00">signal_easel::ax25</text>
<text text-anchor="middle" x="485" y="-157.5" font-family="Helvetica,sans-Serif" font-size="10.00">::Frame::parseBitStream</text>
</a>
</g>
</g>
<!-- Node3&#45;&gt;Node6 -->
<g id="edge5" class="edge">
<title>Node3&#45;&gt;Node6</title>
<path fill="none" stroke="midnightblue" d="M586.78,-181.86C575.29,-179.99 563.7,-178.11 552.68,-176.32"/>
<polygon fill="midnightblue" stroke="midnightblue" points="586.4,-185.34 596.83,-183.49 587.52,-178.43 586.4,-185.34"/>
</g>
<!-- Node5 -->
<g id="node5" class="node">
<title>Node5</title>
<g id="a_node5"><a xlink:href="classsignal__easel_1_1aprs_1_1Receiver.html#afbf7869aceaf2ea7ab0be8b9af16e818" target="_top" xlink:title=" ">
<polygon fill="none" stroke="black" points="266,-205.5 266,-235.5 373,-235.5 373,-205.5 266,-205.5"/>
<text text-anchor="start" x="274" y="-223.5" font-family="Helvetica,sans-Serif" font-size="10.00">signal_easel::aprs</text>
<text text-anchor="middle" x="319.5" y="-212.5" font-family="Helvetica,sans-Serif" font-size="10.00">::Receiver::decode</text>
</a>
</g>
</g>
<!-- Node4&#45;&gt;Node5 -->
<g id="edge4" class="edge">
<title>Node4&#45;&gt;Node5</title>
<path fill="none" stroke="midnightblue" d="M398.73,-220.5C390.02,-220.5 381.37,-220.5 373.16,-220.5"/>
<polygon fill="midnightblue" stroke="midnightblue" points="398.95,-224 408.95,-220.5 398.95,-217 398.95,-224"/>
</g>
<!-- Node7 -->
<g id="node7" class="node">
<title>Node7</title>
<g id="a_node7"><a xlink:href="classsignal__easel_1_1aprs_1_1Demodulator.html#ae5a8e7634c1bc8d215a0c454a9a737fa" target="_top" xlink:title=" ">
<polygon fill="none" stroke="black" points="77,-145 77,-186 230,-186 230,-145 77,-145"/>
<text text-anchor="start" x="85" y="-174" font-family="Helvetica,sans-Serif" font-size="10.00">signal_easel::aprs</text>
<text text-anchor="start" x="85" y="-163" font-family="Helvetica,sans-Serif" font-size="10.00">::Demodulator::lookForAx25</text>
<text text-anchor="middle" x="153.5" y="-152" font-family="Helvetica,sans-Serif" font-size="10.00">Packet</text>
</a>
</g>
</g>
<!-- Node6&#45;&gt;Node7 -->
<g id="edge6" class="edge">
<title>Node6&#45;&gt;Node7</title>
<path fill="none" stroke="midnightblue" d="M407.23,-165.5C353.87,-165.5 283.09,-165.5 230.01,-165.5"/>
<polygon fill="midnightblue" stroke="midnightblue" points="407.32,-169 417.32,-165.5 407.32,-162 407.32,-169"/>
</g>
<!-- Node8 -->
<g id="node8" class="node">
<title>Node8</title>
<g id="a_node8"><a xlink:href="aprs__test_8cpp.html#aea66d1824e3f1e27598adf99ac6a089a" target="_top" xlink:title=" ">
<polygon fill="none" stroke="black" points="0,-128 0,-147 41,-147 41,-128 0,-128"/>
<text text-anchor="middle" x="20.5" y="-135" font-family="Helvetica,sans-Serif" font-size="10.00">TEST</text>
</a>
</g>
</g>
<!-- Node7&#45;&gt;Node8 -->
<g id="edge7" class="edge">
<title>Node7&#45;&gt;Node8</title>
<path fill="none" stroke="midnightblue" d="M66.67,-147.16C57.26,-145.14 48.46,-143.26 41.18,-141.71"/>
<polygon fill="midnightblue" stroke="midnightblue" points="66.17,-150.63 76.68,-149.29 67.63,-143.78 66.17,-150.63"/>
</g>
<!-- Node10 -->
<g id="node10" class="node">
<title>Node10</title>
<g id="a_node10"><a xlink:href="classsignal__easel_1_1ax25_1_1Frame.html#a24e7d5ffc6504a3380e97142d1bc084e" target="_top" xlink:title="Builds all internal portions of the frame. Doesn&#39;t include the flags.">
<polygon fill="none" stroke="black" points="621,-0.5 621,-30.5 735,-30.5 735,-0.5 621,-0.5"/>
<text text-anchor="start" x="629" y="-18.5" font-family="Helvetica,sans-Serif" font-size="10.00">signal_easel::ax25</text>
<text text-anchor="middle" x="678" y="-7.5" font-family="Helvetica,sans-Serif" font-size="10.00">::Frame::buildFrame</text>
</a>
</g>
</g>
<!-- Node9&#45;&gt;Node10 -->
<g id="edge9" class="edge">
<title>Node9&#45;&gt;Node10</title>
<path fill="none" stroke="midnightblue" d="M798.76,-26.88C777.47,-24.85 754.94,-22.71 735.23,-20.84"/>
<polygon fill="midnightblue" stroke="midnightblue" points="798.48,-30.37 808.77,-27.83 799.14,-23.4 798.48,-30.37"/>
</g>
<!-- Node14 -->
<g id="node14" class="node">
<title>Node14</title>
<g id="a_node14"><a xlink:href="ax25__address__test_8cpp.html#a1d87028368532ba4ae914da9397571d3" target="_top" xlink:title=" ">
<polygon fill="none" stroke="black" points="657.5,-50 657.5,-69 698.5,-69 698.5,-50 657.5,-50"/>
<text text-anchor="middle" x="678" y="-57" font-family="Helvetica,sans-Serif" font-size="10.00">TEST</text>
</a>
</g>
</g>
<!-- Node9&#45;&gt;Node14 -->
<g id="edge14" class="edge">
<title>Node9&#45;&gt;Node14</title>
<path fill="none" stroke="midnightblue" d="M798.6,-44.55C762.14,-49.11 722.07,-54.12 698.8,-57.03"/>
<polygon fill="midnightblue" stroke="midnightblue" points="799.28,-47.99 808.77,-43.28 798.41,-41.05 799.28,-47.99"/>
</g>
<!-- Node11 -->
<g id="node11" class="node">
<title>Node11</title>
<g id="a_node11"><a xlink:href="classsignal__easel_1_1ax25_1_1Frame.html#a2b4f6ebcb7592a7e5a21114c8fafa503" target="_top" xlink:title="A step beyond buildFrame. This function builds the frame, does the bit stuffing, adds the flags,...">
<polygon fill="none" stroke="black" points="422.5,-38.5 422.5,-68.5 547.5,-68.5 547.5,-38.5 422.5,-38.5"/>
<text text-anchor="start" x="430.5" y="-56.5" font-family="Helvetica,sans-Serif" font-size="10.00">signal_easel::ax25</text>
<text text-anchor="middle" x="485" y="-45.5" font-family="Helvetica,sans-Serif" font-size="10.00">::Frame::encodeFrame</text>
</a>
</g>
</g>
<!-- Node10&#45;&gt;Node11 -->
<g id="edge10" class="edge">
<title>Node10&#45;&gt;Node11</title>
<path fill="none" stroke="midnightblue" d="M611.08,-28.62C590.53,-32.7 567.95,-37.2 547.7,-41.22"/>
<polygon fill="midnightblue" stroke="midnightblue" points="611.86,-32.03 620.98,-26.64 610.49,-25.16 611.86,-32.03"/>
</g>
<!-- Node12 -->
<g id="node12" class="node">
<title>Node12</title>
<g id="a_node12"><a xlink:href="namespacesignal__easel_1_1aprs.html#a77481001a5b78a839972bb4220b43e4d" target="_top" xlink:title="The base function to encode an APRS packet with the provided base data and info field.">
<polygon fill="none" stroke="black" points="267.5,-95.5 267.5,-125.5 371.5,-125.5 371.5,-95.5 267.5,-95.5"/>
<text text-anchor="start" x="275.5" y="-113.5" font-family="Helvetica,sans-Serif" font-size="10.00">signal_easel::aprs</text>
<text text-anchor="middle" x="319.5" y="-102.5" font-family="Helvetica,sans-Serif" font-size="10.00">::encodePacket</text>
</a>
</g>
</g>
<!-- Node11&#45;&gt;Node12 -->
<g id="edge11" class="edge">
<title>Node11&#45;&gt;Node12</title>
<path fill="none" stroke="midnightblue" d="M430.88,-72.02C409.18,-79.59 384.39,-88.23 363.8,-95.4"/>
<polygon fill="midnightblue" stroke="midnightblue" points="432.32,-75.22 440.61,-68.63 430.02,-68.61 432.32,-75.22"/>
</g>
<!-- Node13 -->
<g id="node13" class="node">
<title>Node13</title>
<g id="a_node13"><a xlink:href="classsignal__easel_1_1aprs_1_1Modulator.html#a8ae067701382dec1680b786583ace687" target="_top" xlink:title=" ">
<polygon fill="none" stroke="black" points="97,-95.5 97,-125.5 210,-125.5 210,-95.5 97,-95.5"/>
<text text-anchor="start" x="105" y="-113.5" font-family="Helvetica,sans-Serif" font-size="10.00">signal_easel::aprs</text>
<text text-anchor="middle" x="153.5" y="-102.5" font-family="Helvetica,sans-Serif" font-size="10.00">::Modulator::encode</text>
</a>
</g>
</g>
<!-- Node12&#45;&gt;Node13 -->
<g id="edge12" class="edge">
<title>Node12&#45;&gt;Node13</title>
<path fill="none" stroke="midnightblue" d="M256.64,-110.5C241.33,-110.5 225.01,-110.5 210.02,-110.5"/>
<polygon fill="midnightblue" stroke="midnightblue" points="257.06,-114 267.06,-110.5 257.06,-107 257.06,-114"/>
</g>
<!-- Node13&#45;&gt;Node8 -->
<g id="edge13" class="edge">
<title>Node13&#45;&gt;Node8</title>
<path fill="none" stroke="midnightblue" d="M87.13,-123.97C70.4,-127.42 53.66,-130.87 41.28,-133.42"/>
<polygon fill="midnightblue" stroke="midnightblue" points="87.86,-127.4 96.94,-121.95 86.44,-120.54 87.86,-127.4"/>
</g>
<!-- Node15&#45;&gt;Node3 -->
<g id="edge18" class="edge">
<title>Node15&#45;&gt;Node3</title>
<path fill="none" stroke="midnightblue" d="M813.15,-140.74C806.96,-142.86 800.82,-145.12 795,-147.5 778.25,-154.34 775.5,-159.09 759,-166.5 751.83,-169.72 744.2,-172.89 736.6,-175.9"/>
<polygon fill="midnightblue" stroke="midnightblue" points="814.49,-143.98 822.89,-137.53 812.3,-137.34 814.49,-143.98"/>
</g>
<!-- Node16 -->
<g id="node16" class="node">
<title>Node16</title>
<g id="a_node16"><a xlink:href="namespacesignal__easel_1_1aprs.html#a586b022fa0c917fa8557bbd5cdc6aeeb" target="_top" xlink:title=" ">
<polygon fill="none" stroke="black" points="621.5,-126.5 621.5,-156.5 734.5,-156.5 734.5,-126.5 621.5,-126.5"/>
<text text-anchor="start" x="629.5" y="-144.5" font-family="Helvetica,sans-Serif" font-size="10.00">signal_easel::aprs</text>
<text text-anchor="middle" x="678" y="-133.5" font-family="Helvetica,sans-Serif" font-size="10.00">::AddRequiredFields</text>
</a>
</g>
</g>
<!-- Node15&#45;&gt;Node16 -->
<g id="edge16" class="edge">
<title>Node15&#45;&gt;Node16</title>
<path fill="none" stroke="midnightblue" d="M784.72,-131.46C767.6,-133.08 750.25,-134.73 734.7,-136.21"/>
<polygon fill="midnightblue" stroke="midnightblue" points="785.14,-134.93 794.76,-130.5 784.48,-127.96 785.14,-134.93"/>
</g>
<!-- Node15&#45;&gt;Node17 -->
<g id="edge19" class="edge">
<title>Node15&#45;&gt;Node17</title>
<path fill="none" stroke="midnightblue" d="M784.74,-110.72C752.3,-106.66 719.06,-102.51 698.72,-99.97"/>
<polygon fill="midnightblue" stroke="midnightblue" points="784.4,-114.2 794.76,-111.97 785.27,-107.26 784.4,-114.2"/>
</g>
<!-- Node16&#45;&gt;Node12 -->
<g id="edge17" class="edge">
<title>Node16&#45;&gt;Node12</title>
<path fill="none" stroke="midnightblue" d="M610.96,-135.76C541.84,-129.75 434.78,-120.44 371.77,-114.96"/>
<polygon fill="midnightblue" stroke="midnightblue" points="611.03,-139.28 621.3,-136.66 611.64,-132.3 611.03,-139.28"/>
</g>
<!-- Node18&#45;&gt;Node3 -->
<g id="edge22" class="edge">
<title>Node18&#45;&gt;Node3</title>
<path fill="none" stroke="midnightblue" d="M796.54,-181.81C784.21,-183.35 771.51,-184.94 759.23,-186.47"/>
<polygon fill="midnightblue" stroke="midnightblue" points="797.31,-185.24 806.8,-180.53 796.44,-178.29 797.31,-185.24"/>
</g>
<!-- Node18&#45;&gt;Node16 -->
<g id="edge21" class="edge">
<title>Node18&#45;&gt;Node16</title>
<path fill="none" stroke="midnightblue" d="M796.67,-159.15C775.84,-156.03 753.95,-152.74 734.78,-149.87"/>
<polygon fill="midnightblue" stroke="midnightblue" points="796.39,-162.65 806.8,-160.67 797.43,-155.72 796.39,-162.65"/>
</g>
<!-- Node18&#45;&gt;Node17 -->
<g id="edge23" class="edge">
<title>Node18&#45;&gt;Node17</title>
<path fill="none" stroke="midnightblue" d="M808.24,-152.76C803.67,-150.85 799.22,-148.76 795,-146.5 776.64,-136.66 777.63,-125.82 759,-116.5 739.72,-106.85 715.35,-101.98 698.61,-99.6"/>
<polygon fill="midnightblue" stroke="midnightblue" points="807.13,-156.09 817.72,-156.46 809.67,-149.56 807.13,-156.09"/>
</g>
</g>
</svg>
