<?xml version="1.0" encoding="UTF-8" standalone="no"?>
<!DOCTYPE svg PUBLIC "-//W3C//DTD SVG 1.1//EN"
 "http://www.w3.org/Graphics/SVG/1.1/DTD/svg11.dtd">
<!-- Generated by graphviz version 2.43.0 (0)
 -->
<!-- Title: signal_easel::aprs::telemetry::TelemetryTranscoder::encodeParameterCoefficientMessage Pages: 1 -->
<svg width="622pt" height="110pt"
 viewBox="0.00 0.00 622.00 110.00" xmlns="http://www.w3.org/2000/svg" xmlns:xlink="http://www.w3.org/1999/xlink">
<g id="graph0" class="graph" transform="scale(1 1) rotate(0) translate(4 106)">
<title>signal_easel::aprs::telemetry::TelemetryTranscoder::encodeParameterCoefficientMessage</title>
<!-- Node1 -->
<g id="node1" class="node">
<title>Node1</title>
<g id="a_node1"><a xlink:title="Encodes the parameter coefficients into a message.">
<polygon fill="#bfbfbf" stroke="black" points="0,-30.5 0,-71.5 204,-71.5 204,-30.5 0,-30.5"/>
<text text-anchor="start" x="8" y="-59.5" font-family="Helvetica,sans-Serif" font-size="10.00">signal_easel::aprs</text>
<text text-anchor="start" x="8" y="-48.5" font-family="Helvetica,sans-Serif" font-size="10.00">::telemetry::TelemetryTranscoder</text>
<text text-anchor="middle" x="102" y="-37.5" font-family="Helvetica,sans-Serif" font-size="10.00">::encodeParameterCoefficientMessage</text>
</a>
</g>
</g>
<!-- Node2 -->
<g id="node2" class="node">
<title>Node2</title>
<g id="a_node2"><a xlink:href="classsignal__easel_1_1aprs_1_1telemetry_1_1TelemetryTranscoder.html#a195a39f0f0e23c8eacd3f552e4389932" target="_top" xlink:title="Used in the encode methods to add the telemetry station address to the message in the format &quot;:N0CALL...">
<polygon fill="none" stroke="black" points="240,-60.5 240,-101.5 417,-101.5 417,-60.5 240,-60.5"/>
<text text-anchor="start" x="248" y="-89.5" font-family="Helvetica,sans-Serif" font-size="10.00">signal_easel::aprs</text>
<text text-anchor="start" x="248" y="-78.5" font-family="Helvetica,sans-Serif" font-size="10.00">::telemetry::TelemetryTranscoder</text>
<text text-anchor="middle" x="328.5" y="-67.5" font-family="Helvetica,sans-Serif" font-size="10.00">::addTelemetryStationAddress</text>
</a>
</g>
</g>
<!-- Node1&#45;&gt;Node2 -->
<g id="edge1" class="edge">
<title>Node1&#45;&gt;Node2</title>
<path fill="none" stroke="midnightblue" d="M204.09,-64.51C212.62,-65.65 221.24,-66.8 229.74,-67.94"/>
<polygon fill="midnightblue" stroke="midnightblue" points="229.29,-71.41 239.66,-69.26 230.22,-64.47 229.29,-71.41"/>
</g>
<!-- Node4 -->
<g id="node4" class="node">
<title>Node4</title>
<g id="a_node4"><a xlink:href="classsignal__easel_1_1aprs_1_1telemetry_1_1TelemetryData.html#a5e9a7e28d18dbd0e50bb53ea7734aa1a" target="_top" xlink:title=" ">
<polygon fill="none" stroke="black" points="251,-0.5 251,-41.5 406,-41.5 406,-0.5 251,-0.5"/>
<text text-anchor="start" x="259" y="-29.5" font-family="Helvetica,sans-Serif" font-size="10.00">signal_easel::aprs</text>
<text text-anchor="start" x="259" y="-18.5" font-family="Helvetica,sans-Serif" font-size="10.00">::telemetry::TelemetryData</text>
<text text-anchor="middle" x="328.5" y="-7.5" font-family="Helvetica,sans-Serif" font-size="10.00">::getAnalogParametersConst</text>
</a>
</g>
</g>
<!-- Node1&#45;&gt;Node4 -->
<g id="edge3" class="edge">
<title>Node1&#45;&gt;Node4</title>
<path fill="none" stroke="midnightblue" d="M204.09,-37.49C216.36,-35.85 228.81,-34.19 240.85,-32.58"/>
<polygon fill="midnightblue" stroke="midnightblue" points="241.41,-36.04 250.86,-31.24 240.48,-29.1 241.41,-36.04"/>
</g>
<!-- Node3 -->
<g id="node3" class="node">
<title>Node3</title>
<g id="a_node3"><a xlink:href="classsignal__easel_1_1aprs_1_1telemetry_1_1TelemetryData.html#a447c24a8880aa1098b47ad923ec33b70" target="_top" xlink:title="Get the address of the station that is sending the telemetry data.">
<polygon fill="none" stroke="black" points="453,-60.5 453,-101.5 614,-101.5 614,-60.5 453,-60.5"/>
<text text-anchor="start" x="461" y="-89.5" font-family="Helvetica,sans-Serif" font-size="10.00">signal_easel::aprs</text>
<text text-anchor="start" x="461" y="-78.5" font-family="Helvetica,sans-Serif" font-size="10.00">::telemetry::TelemetryData</text>
<text text-anchor="middle" x="533.5" y="-67.5" font-family="Helvetica,sans-Serif" font-size="10.00">::getTelemetryStationAddress</text>
</a>
</g>
</g>
<!-- Node2&#45;&gt;Node3 -->
<g id="edge2" class="edge">
<title>Node2&#45;&gt;Node3</title>
<path fill="none" stroke="midnightblue" d="M417.06,-81C425.62,-81 434.32,-81 442.9,-81"/>
<polygon fill="midnightblue" stroke="midnightblue" points="442.91,-84.5 452.91,-81 442.91,-77.5 442.91,-84.5"/>
</g>
</g>
</svg>
