<?xml version="1.0" encoding="UTF-8" standalone="no"?>
<!DOCTYPE svg PUBLIC "-//W3C//DTD SVG 1.1//EN"
 "http://www.w3.org/Graphics/SVG/1.1/DTD/svg11.dtd">
<!-- Generated by graphviz version 2.43.0 (0)
 -->
<!-- Title: signal_easel::aprs::Demodulator::parseTelemetryPacket Pages: 1 -->
<svg width="842pt" height="439pt"
 viewBox="0.00 0.00 842.00 438.50" xmlns="http://www.w3.org/2000/svg" xmlns:xlink="http://www.w3.org/1999/xlink">
<g id="graph0" class="graph" transform="scale(1 1) rotate(0) translate(4 434.5)">
<title>signal_easel::aprs::Demodulator::parseTelemetryPacket</title>
<!-- Node1 -->
<g id="node1" class="node">
<title>Node1</title>
<g id="a_node1"><a xlink:title="If the packet was a telemetry packet, this function will try to parse the packet and populate the tel...">
<polygon fill="#bfbfbf" stroke="black" points="0,-101 0,-142 168,-142 168,-101 0,-101"/>
<text text-anchor="start" x="8" y="-130" font-family="Helvetica,sans-Serif" font-size="10.00">signal_easel::aprs</text>
<text text-anchor="start" x="8" y="-119" font-family="Helvetica,sans-Serif" font-size="10.00">::Demodulator::parseTelemetry</text>
<text text-anchor="middle" x="84" y="-108" font-family="Helvetica,sans-Serif" font-size="10.00">Packet</text>
</a>
</g>
</g>
<!-- Node2 -->
<g id="node2" class="node">
<title>Node2</title>
<g id="a_node2"><a xlink:href="classsignal__easel_1_1aprs_1_1telemetry_1_1TelemetryTranscoder.html#a8728ebd6e5dbd7ca50a219fda62b7375" target="_top" xlink:title="Takes in the information field of an APRS telemetry message and decodes it with the appropriate metho...">
<polygon fill="none" stroke="black" points="204,-189 204,-230 381,-230 381,-189 204,-189"/>
<text text-anchor="start" x="212" y="-218" font-family="Helvetica,sans-Serif" font-size="10.00">signal_easel::aprs</text>
<text text-anchor="start" x="212" y="-207" font-family="Helvetica,sans-Serif" font-size="10.00">::telemetry::TelemetryTranscoder</text>
<text text-anchor="middle" x="292.5" y="-196" font-family="Helvetica,sans-Serif" font-size="10.00">::decodeMessage</text>
</a>
</g>
</g>
<!-- Node1&#45;&gt;Node2 -->
<g id="edge1" class="edge">
<title>Node1&#45;&gt;Node2</title>
<path fill="none" stroke="midnightblue" d="M133.15,-142.02C163.18,-154.82 202,-171.36 233.68,-184.86"/>
<polygon fill="midnightblue" stroke="midnightblue" points="232.7,-188.25 243.27,-188.95 235.44,-181.81 232.7,-188.25"/>
</g>
<!-- Node15 -->
<g id="node15" class="node">
<title>Node15</title>
<g id="a_node15"><a xlink:href="classsignal__easel_1_1ax25_1_1Frame.html#ad48d93e63f0870a7bc7f7c10fde78ba8" target="_top" xlink:title="Get a reference to the information field.">
<polygon fill="none" stroke="black" points="218,-106.5 218,-136.5 367,-136.5 367,-106.5 218,-106.5"/>
<text text-anchor="start" x="226" y="-124.5" font-family="Helvetica,sans-Serif" font-size="10.00">signal_easel::ax25</text>
<text text-anchor="middle" x="292.5" y="-113.5" font-family="Helvetica,sans-Serif" font-size="10.00">::Frame::getInformationRef</text>
</a>
</g>
</g>
<!-- Node1&#45;&gt;Node15 -->
<g id="edge20" class="edge">
<title>Node1&#45;&gt;Node15</title>
<path fill="none" stroke="midnightblue" d="M168.1,-121.5C181.1,-121.5 194.54,-121.5 207.56,-121.5"/>
<polygon fill="midnightblue" stroke="midnightblue" points="207.89,-125 217.89,-121.5 207.89,-118 207.89,-125"/>
</g>
<!-- Node16 -->
<g id="node16" class="node">
<title>Node16</title>
<g id="a_node16"><a xlink:href="classsignal__easel_1_1aprs_1_1Demodulator.html#af7459f32656249c73e0b957dfe13bf2f" target="_top" xlink:title=" ">
<polygon fill="none" stroke="black" points="206,-44 206,-85 379,-85 379,-44 206,-44"/>
<text text-anchor="start" x="214" y="-73" font-family="Helvetica,sans-Serif" font-size="10.00">signal_easel::aprs</text>
<text text-anchor="start" x="214" y="-62" font-family="Helvetica,sans-Serif" font-size="10.00">::Demodulator::populateGeneric</text>
<text text-anchor="middle" x="292.5" y="-51" font-family="Helvetica,sans-Serif" font-size="10.00">Fields</text>
</a>
</g>
</g>
<!-- Node1&#45;&gt;Node16 -->
<g id="edge21" class="edge">
<title>Node1&#45;&gt;Node16</title>
<path fill="none" stroke="midnightblue" d="M159.55,-100.92C175.05,-96.64 191.49,-92.11 207.3,-87.74"/>
<polygon fill="midnightblue" stroke="midnightblue" points="208.35,-91.08 217.06,-85.05 206.49,-84.34 208.35,-91.08"/>
</g>
<!-- Node3 -->
<g id="node3" class="node">
<title>Node3</title>
<g id="a_node3"><a xlink:href="classsignal__easel_1_1aprs_1_1telemetry_1_1TelemetryTranscoder.html#a3633b357cad1d35d2f59846a8ad66672" target="_top" xlink:title="Decode the bit sense / project name message.">
<polygon fill="none" stroke="black" points="430.5,-99 430.5,-140 607.5,-140 607.5,-99 430.5,-99"/>
<text text-anchor="start" x="438.5" y="-128" font-family="Helvetica,sans-Serif" font-size="10.00">signal_easel::aprs</text>
<text text-anchor="start" x="438.5" y="-117" font-family="Helvetica,sans-Serif" font-size="10.00">::telemetry::TelemetryTranscoder</text>
<text text-anchor="middle" x="519" y="-106" font-family="Helvetica,sans-Serif" font-size="10.00">::decodeBitSenseMessage</text>
</a>
</g>
</g>
<!-- Node2&#45;&gt;Node3 -->
<g id="edge2" class="edge">
<title>Node2&#45;&gt;Node3</title>
<path fill="none" stroke="midnightblue" d="M331.71,-188.92C355.75,-176.49 387.67,-160.89 417,-149.5 422.46,-147.38 428.14,-145.32 433.89,-143.34"/>
<polygon fill="midnightblue" stroke="midnightblue" points="435.24,-146.57 443.61,-140.08 433.02,-139.94 435.24,-146.57"/>
</g>
<!-- Node7 -->
<g id="node7" class="node">
<title>Node7</title>
<g id="a_node7"><a xlink:href="classsignal__easel_1_1aprs_1_1telemetry_1_1TelemetryTranscoder.html#afe0271b7bbae16a79c2bd4e77d4f3945" target="_top" xlink:title="Decode a data report message.">
<polygon fill="none" stroke="black" points="430.5,-279 430.5,-320 607.5,-320 607.5,-279 430.5,-279"/>
<text text-anchor="start" x="438.5" y="-308" font-family="Helvetica,sans-Serif" font-size="10.00">signal_easel::aprs</text>
<text text-anchor="start" x="438.5" y="-297" font-family="Helvetica,sans-Serif" font-size="10.00">::telemetry::TelemetryTranscoder</text>
<text text-anchor="middle" x="519" y="-286" font-family="Helvetica,sans-Serif" font-size="10.00">::decodeDataReportMessage</text>
</a>
</g>
</g>
<!-- Node2&#45;&gt;Node7 -->
<g id="edge6" class="edge">
<title>Node2&#45;&gt;Node7</title>
<path fill="none" stroke="midnightblue" d="M331.71,-230.08C355.75,-242.51 387.67,-258.11 417,-269.5 422.46,-271.62 428.14,-273.68 433.89,-275.66"/>
<polygon fill="midnightblue" stroke="midnightblue" points="433.02,-279.06 443.61,-278.92 435.24,-272.43 433.02,-279.06"/>
</g>
<!-- Node11 -->
<g id="node11" class="node">
<title>Node11</title>
<g id="a_node11"><a xlink:href="classsignal__easel_1_1aprs_1_1telemetry_1_1TelemetryTranscoder.html#a581c58aa360dc40ddcbc475b96b25942" target="_top" xlink:title="Decode the parameter coefficients message.">
<polygon fill="none" stroke="black" points="417,-219 417,-260 621,-260 621,-219 417,-219"/>
<text text-anchor="start" x="425" y="-248" font-family="Helvetica,sans-Serif" font-size="10.00">signal_easel::aprs</text>
<text text-anchor="start" x="425" y="-237" font-family="Helvetica,sans-Serif" font-size="10.00">::telemetry::TelemetryTranscoder</text>
<text text-anchor="middle" x="519" y="-226" font-family="Helvetica,sans-Serif" font-size="10.00">::decodeParameterCoefficientMessage</text>
</a>
</g>
</g>
<!-- Node2&#45;&gt;Node11 -->
<g id="edge11" class="edge">
<title>Node2&#45;&gt;Node11</title>
<path fill="none" stroke="midnightblue" d="M381.26,-221.23C389.66,-222.35 398.25,-223.5 406.83,-224.64"/>
<polygon fill="midnightblue" stroke="midnightblue" points="406.51,-228.13 416.89,-225.99 407.44,-221.19 406.51,-228.13"/>
</g>
<!-- Node13 -->
<g id="node13" class="node">
<title>Node13</title>
<g id="a_node13"><a xlink:href="classsignal__easel_1_1aprs_1_1telemetry_1_1TelemetryTranscoder.html#a74a84913b8e86de5b415616ecbd853b8" target="_top" xlink:title="Decode a name or unit/label message. They&#39;re the same format.">
<polygon fill="none" stroke="black" points="430.5,-159 430.5,-200 607.5,-200 607.5,-159 430.5,-159"/>
<text text-anchor="start" x="438.5" y="-188" font-family="Helvetica,sans-Serif" font-size="10.00">signal_easel::aprs</text>
<text text-anchor="start" x="438.5" y="-177" font-family="Helvetica,sans-Serif" font-size="10.00">::telemetry::TelemetryTranscoder</text>
<text text-anchor="middle" x="519" y="-166" font-family="Helvetica,sans-Serif" font-size="10.00">::decodeParameterDescriptor</text>
</a>
</g>
</g>
<!-- Node2&#45;&gt;Node13 -->
<g id="edge15" class="edge">
<title>Node2&#45;&gt;Node13</title>
<path fill="none" stroke="midnightblue" d="M381.26,-197.77C393.97,-196.07 407.13,-194.32 420.02,-192.59"/>
<polygon fill="midnightblue" stroke="midnightblue" points="420.85,-196.01 430.3,-191.22 419.92,-189.07 420.85,-196.01"/>
</g>
<!-- Node14 -->
<g id="node14" class="node">
<title>Node14</title>
<g id="a_node14"><a xlink:href="classsignal__easel_1_1aprs_1_1telemetry_1_1TelemetryData.html#a8daed50d0a02a99c50e19e6985391823" target="_top" xlink:title="Set the address of the station that is sending the telemetry data for use in the parameter name,...">
<polygon fill="none" stroke="black" points="439,-339 439,-380 599,-380 599,-339 439,-339"/>
<text text-anchor="start" x="447" y="-368" font-family="Helvetica,sans-Serif" font-size="10.00">signal_easel::aprs</text>
<text text-anchor="start" x="447" y="-357" font-family="Helvetica,sans-Serif" font-size="10.00">::telemetry::TelemetryData</text>
<text text-anchor="middle" x="519" y="-346" font-family="Helvetica,sans-Serif" font-size="10.00">::setTelemetryStationAddress</text>
</a>
</g>
</g>
<!-- Node2&#45;&gt;Node14 -->
<g id="edge19" class="edge">
<title>Node2&#45;&gt;Node14</title>
<path fill="none" stroke="midnightblue" d="M309.58,-230.46C331.19,-257.22 372.12,-303.21 417,-329.5 421.08,-331.89 425.36,-334.1 429.76,-336.15"/>
<polygon fill="midnightblue" stroke="midnightblue" points="428.38,-339.36 438.95,-340.12 431.16,-332.94 428.38,-339.36"/>
</g>
<!-- Node4 -->
<g id="node4" class="node">
<title>Node4</title>
<g id="a_node4"><a xlink:href="classsignal__easel_1_1aprs_1_1telemetry_1_1TelemetryTranscoder.html#a23b19f60f731079282eb88c5ab433579" target="_top" xlink:title="Validate the first few bytes of a message.">
<polygon fill="none" stroke="black" points="657,-99 657,-140 834,-140 834,-99 657,-99"/>
<text text-anchor="start" x="665" y="-128" font-family="Helvetica,sans-Serif" font-size="10.00">signal_easel::aprs</text>
<text text-anchor="start" x="665" y="-117" font-family="Helvetica,sans-Serif" font-size="10.00">::telemetry::TelemetryTranscoder</text>
<text text-anchor="middle" x="745.5" y="-106" font-family="Helvetica,sans-Serif" font-size="10.00">::decodeValidateHeader</text>
</a>
</g>
</g>
<!-- Node3&#45;&gt;Node4 -->
<g id="edge3" class="edge">
<title>Node3&#45;&gt;Node4</title>
<path fill="none" stroke="midnightblue" d="M607.76,-119.5C620.47,-119.5 633.63,-119.5 646.52,-119.5"/>
<polygon fill="midnightblue" stroke="midnightblue" points="646.8,-123 656.8,-119.5 646.8,-116 646.8,-123"/>
</g>
<!-- Node5 -->
<g id="node5" class="node">
<title>Node5</title>
<g id="a_node5"><a xlink:href="classsignal__easel_1_1aprs_1_1telemetry_1_1TelemetryData.html#afeb4d3aa91fc5deb8123589daccd87ea" target="_top" xlink:title=" ">
<polygon fill="none" stroke="black" points="671.5,-159 671.5,-200 819.5,-200 819.5,-159 671.5,-159"/>
<text text-anchor="start" x="679.5" y="-188" font-family="Helvetica,sans-Serif" font-size="10.00">signal_easel::aprs</text>
<text text-anchor="start" x="679.5" y="-177" font-family="Helvetica,sans-Serif" font-size="10.00">::telemetry::TelemetryData</text>
<text text-anchor="middle" x="745.5" y="-166" font-family="Helvetica,sans-Serif" font-size="10.00">::getDigitalParameters</text>
</a>
</g>
</g>
<!-- Node3&#45;&gt;Node5 -->
<g id="edge4" class="edge">
<title>Node3&#45;&gt;Node5</title>
<path fill="none" stroke="midnightblue" d="M596.95,-140.06C617.77,-145.63 640.39,-151.68 661.52,-157.32"/>
<polygon fill="midnightblue" stroke="midnightblue" points="660.88,-160.77 671.44,-159.97 662.68,-154.01 660.88,-160.77"/>
</g>
<!-- Node6 -->
<g id="node6" class="node">
<title>Node6</title>
<g id="a_node6"><a xlink:href="classsignal__easel_1_1aprs_1_1telemetry_1_1TelemetryData.html#a275ba1315153f5513e61ef640562530b" target="_top" xlink:title="Set the project title. Must be less than 23 characters. If the project title is too long,...">
<polygon fill="none" stroke="black" points="671.5,-39 671.5,-80 819.5,-80 819.5,-39 671.5,-39"/>
<text text-anchor="start" x="679.5" y="-68" font-family="Helvetica,sans-Serif" font-size="10.00">signal_easel::aprs</text>
<text text-anchor="start" x="679.5" y="-57" font-family="Helvetica,sans-Serif" font-size="10.00">::telemetry::TelemetryData</text>
<text text-anchor="middle" x="745.5" y="-46" font-family="Helvetica,sans-Serif" font-size="10.00">::setProjectTitle</text>
</a>
</g>
</g>
<!-- Node3&#45;&gt;Node6 -->
<g id="edge5" class="edge">
<title>Node3&#45;&gt;Node6</title>
<path fill="none" stroke="midnightblue" d="M596.95,-98.94C617.77,-93.37 640.39,-87.32 661.52,-81.68"/>
<polygon fill="midnightblue" stroke="midnightblue" points="662.68,-84.99 671.44,-79.03 660.88,-78.23 662.68,-84.99"/>
</g>
<!-- Node7&#45;&gt;Node5 -->
<g id="edge8" class="edge">
<title>Node7&#45;&gt;Node5</title>
<path fill="none" stroke="midnightblue" d="M606.53,-278.77C611.64,-276.05 616.52,-272.97 621,-269.5 645.58,-250.44 632.83,-229.06 657,-209.5 658.78,-208.06 660.62,-206.69 662.53,-205.39"/>
<polygon fill="midnightblue" stroke="midnightblue" points="664.53,-208.27 671.23,-200.07 660.87,-202.3 664.53,-208.27"/>
</g>
<!-- Node8 -->
<g id="node8" class="node">
<title>Node8</title>
<g id="a_node8"><a xlink:href="classsignal__easel_1_1aprs_1_1telemetry_1_1TelemetryData.html#a953b60ecf9067ab71e13de6fdfdcfeec" target="_top" xlink:title=" ">
<polygon fill="none" stroke="black" points="671.5,-269 671.5,-310 819.5,-310 819.5,-269 671.5,-269"/>
<text text-anchor="start" x="679.5" y="-298" font-family="Helvetica,sans-Serif" font-size="10.00">signal_easel::aprs</text>
<text text-anchor="start" x="679.5" y="-287" font-family="Helvetica,sans-Serif" font-size="10.00">::telemetry::TelemetryData</text>
<text text-anchor="middle" x="745.5" y="-276" font-family="Helvetica,sans-Serif" font-size="10.00">::getAnalogParameters</text>
</a>
</g>
</g>
<!-- Node7&#45;&gt;Node8 -->
<g id="edge7" class="edge">
<title>Node7&#45;&gt;Node8</title>
<path fill="none" stroke="midnightblue" d="M607.76,-295.59C625.34,-294.81 643.76,-293.99 661.19,-293.21"/>
<polygon fill="midnightblue" stroke="midnightblue" points="661.48,-296.7 671.32,-292.76 661.17,-289.71 661.48,-296.7"/>
</g>
<!-- Node9 -->
<g id="node9" class="node">
<title>Node9</title>
<g id="a_node9"><a xlink:href="classsignal__easel_1_1aprs_1_1telemetry_1_1TelemetryData.html#a76c46a2b54c40e87c984d957f0439b43" target="_top" xlink:title="Set the comment. Must be less than 220 characters. If the comment is too long, it will be truncated.">
<polygon fill="none" stroke="black" points="671.5,-389 671.5,-430 819.5,-430 819.5,-389 671.5,-389"/>
<text text-anchor="start" x="679.5" y="-418" font-family="Helvetica,sans-Serif" font-size="10.00">signal_easel::aprs</text>
<text text-anchor="start" x="679.5" y="-407" font-family="Helvetica,sans-Serif" font-size="10.00">::telemetry::TelemetryData</text>
<text text-anchor="middle" x="745.5" y="-396" font-family="Helvetica,sans-Serif" font-size="10.00">::setComment</text>
</a>
</g>
</g>
<!-- Node7&#45;&gt;Node9 -->
<g id="edge9" class="edge">
<title>Node7&#45;&gt;Node9</title>
<path fill="none" stroke="midnightblue" d="M604.94,-320.05C610.59,-322.82 616,-325.95 621,-329.5 643.32,-345.36 635.01,-363.18 657,-379.5 659.09,-381.05 661.26,-382.52 663.5,-383.92"/>
<polygon fill="midnightblue" stroke="midnightblue" points="662,-387.1 672.43,-388.97 665.45,-381 662,-387.1"/>
</g>
<!-- Node10 -->
<g id="node10" class="node">
<title>Node10</title>
<g id="a_node10"><a xlink:href="classsignal__easel_1_1aprs_1_1telemetry_1_1TelemetryData.html#a06202af15469a4f816c38c1a980c589d" target="_top" xlink:title="Set the sequence number. Must be less than 1000. If the sequence number is greater than 999,...">
<polygon fill="none" stroke="black" points="671.5,-329 671.5,-370 819.5,-370 819.5,-329 671.5,-329"/>
<text text-anchor="start" x="679.5" y="-358" font-family="Helvetica,sans-Serif" font-size="10.00">signal_easel::aprs</text>
<text text-anchor="start" x="679.5" y="-347" font-family="Helvetica,sans-Serif" font-size="10.00">::telemetry::TelemetryData</text>
<text text-anchor="middle" x="745.5" y="-336" font-family="Helvetica,sans-Serif" font-size="10.00">::setSequenceNumber</text>
</a>
</g>
</g>
<!-- Node7&#45;&gt;Node10 -->
<g id="edge10" class="edge">
<title>Node7&#45;&gt;Node10</title>
<path fill="none" stroke="midnightblue" d="M607.76,-319.05C625.34,-322.96 643.76,-327.06 661.19,-330.94"/>
<polygon fill="midnightblue" stroke="midnightblue" points="660.79,-334.44 671.32,-333.2 662.32,-327.61 660.79,-334.44"/>
</g>
<!-- Node11&#45;&gt;Node4 -->
<g id="edge12" class="edge">
<title>Node11&#45;&gt;Node4</title>
<path fill="none" stroke="midnightblue" d="M606.53,-218.77C611.64,-216.05 616.52,-212.97 621,-209.5 645.58,-190.44 632.83,-169.06 657,-149.5 658.78,-148.06 660.62,-146.69 662.53,-145.39"/>
<polygon fill="midnightblue" stroke="midnightblue" points="664.53,-148.27 671.23,-140.07 660.87,-142.3 664.53,-148.27"/>
</g>
<!-- Node11&#45;&gt;Node8 -->
<g id="edge13" class="edge">
<title>Node11&#45;&gt;Node8</title>
<path fill="none" stroke="midnightblue" d="M612.28,-260.05C628.61,-263.69 645.52,-267.45 661.56,-271.03"/>
<polygon fill="midnightblue" stroke="midnightblue" points="660.91,-274.47 671.43,-273.23 662.43,-267.64 660.91,-274.47"/>
</g>
<!-- Node12 -->
<g id="node12" class="node">
<title>Node12</title>
<g id="a_node12"><a xlink:href="namespacesignal__easel_1_1aprs_1_1telemetry.html#a06228386caafe56440016944e280b484" target="_top" xlink:title="Validate the format of a coefficient.">
<polygon fill="none" stroke="black" points="661.5,-219.5 661.5,-249.5 829.5,-249.5 829.5,-219.5 661.5,-219.5"/>
<text text-anchor="start" x="669.5" y="-237.5" font-family="Helvetica,sans-Serif" font-size="10.00">signal_easel::aprs</text>
<text text-anchor="middle" x="745.5" y="-226.5" font-family="Helvetica,sans-Serif" font-size="10.00">::telemetry::validateCoefficient</text>
</a>
</g>
</g>
<!-- Node11&#45;&gt;Node12 -->
<g id="edge14" class="edge">
<title>Node11&#45;&gt;Node12</title>
<path fill="none" stroke="midnightblue" d="M621.09,-237.25C631.11,-237.03 641.24,-236.8 651.18,-236.58"/>
<polygon fill="midnightblue" stroke="midnightblue" points="651.53,-240.07 661.45,-236.35 651.37,-233.07 651.53,-240.07"/>
</g>
<!-- Node13&#45;&gt;Node4 -->
<g id="edge16" class="edge">
<title>Node13&#45;&gt;Node4</title>
<path fill="none" stroke="midnightblue" d="M596.95,-158.94C616.58,-153.69 637.82,-148.01 657.9,-142.64"/>
<polygon fill="midnightblue" stroke="midnightblue" points="658.9,-146 667.65,-140.04 657.09,-139.24 658.9,-146"/>
</g>
<!-- Node13&#45;&gt;Node5 -->
<g id="edge18" class="edge">
<title>Node13&#45;&gt;Node5</title>
<path fill="none" stroke="midnightblue" d="M607.76,-179.5C625.34,-179.5 643.76,-179.5 661.19,-179.5"/>
<polygon fill="midnightblue" stroke="midnightblue" points="661.32,-183 671.32,-179.5 661.32,-176 661.32,-183"/>
</g>
<!-- Node13&#45;&gt;Node8 -->
<g id="edge17" class="edge">
<title>Node13&#45;&gt;Node8</title>
<path fill="none" stroke="midnightblue" d="M604.94,-200.05C610.59,-202.82 616,-205.95 621,-209.5 643.32,-225.36 635.01,-243.18 657,-259.5 659.09,-261.05 661.26,-262.52 663.5,-263.92"/>
<polygon fill="midnightblue" stroke="midnightblue" points="662,-267.1 672.43,-268.97 665.45,-261 662,-267.1"/>
</g>
<!-- Node17 -->
<g id="node17" class="node">
<title>Node17</title>
<g id="a_node17"><a xlink:href="classsignal__easel_1_1ax25_1_1Frame.html#a84c80d41e67e5091d2a77553f3941d5f" target="_top" xlink:title=" ">
<polygon fill="none" stroke="black" points="434,-0.5 434,-30.5 604,-30.5 604,-0.5 434,-0.5"/>
<text text-anchor="start" x="442" y="-18.5" font-family="Helvetica,sans-Serif" font-size="10.00">signal_easel::ax25</text>
<text text-anchor="middle" x="519" y="-7.5" font-family="Helvetica,sans-Serif" font-size="10.00">::Frame::getDestinationAddress</text>
</a>
</g>
</g>
<!-- Node16&#45;&gt;Node17 -->
<g id="edge22" class="edge">
<title>Node16&#45;&gt;Node17</title>
<path fill="none" stroke="midnightblue" d="M379.01,-45.84C398.75,-41.53 419.65,-36.97 439.09,-32.72"/>
<polygon fill="midnightblue" stroke="midnightblue" points="440.08,-36.09 449.1,-30.54 438.59,-29.25 440.08,-36.09"/>
</g>
<!-- Node18 -->
<g id="node18" class="node">
<title>Node18</title>
<g id="a_node18"><a xlink:href="classsignal__easel_1_1ax25_1_1Frame.html#af84ab589067667886d9e54abe213109c" target="_top" xlink:title=" ">
<polygon fill="none" stroke="black" points="445.5,-49.5 445.5,-79.5 592.5,-79.5 592.5,-49.5 445.5,-49.5"/>
<text text-anchor="start" x="453.5" y="-67.5" font-family="Helvetica,sans-Serif" font-size="10.00">signal_easel::ax25</text>
<text text-anchor="middle" x="519" y="-56.5" font-family="Helvetica,sans-Serif" font-size="10.00">::Frame::getSourceAddress</text>
</a>
</g>
</g>
<!-- Node16&#45;&gt;Node18 -->
<g id="edge23" class="edge">
<title>Node16&#45;&gt;Node18</title>
<path fill="none" stroke="midnightblue" d="M379.01,-64.5C397.42,-64.5 416.83,-64.5 435.13,-64.5"/>
<polygon fill="midnightblue" stroke="midnightblue" points="435.17,-68 445.17,-64.5 435.17,-61 435.17,-68"/>
</g>
</g>
</svg>
