<?xml version="1.0" encoding="UTF-8" standalone="no"?>
<!DOCTYPE svg PUBLIC "-//W3C//DTD SVG 1.1//EN"
 "http://www.w3.org/Graphics/SVG/1.1/DTD/svg11.dtd">
<!-- Generated by graphviz version 2.43.0 (0)
 -->
<!-- Title: signal_easel::afsk::Receiver Pages: 1 -->
<svg width="1181pt" height="827pt"
 viewBox="0.00 0.00 1180.50 827.00" xmlns="http://www.w3.org/2000/svg" xmlns:xlink="http://www.w3.org/1999/xlink">
<g id="graph0" class="graph" transform="scale(1 1) rotate(0) translate(4 823)">
<title>signal_easel::afsk::Receiver</title>
<!-- Node1 -->
<g id="node1" class="node">
<title>Node1</title>
<g id="a_node1"><a xlink:title="For receiving AFSK signals via a pulse audio stream.">
<polygon fill="#bfbfbf" stroke="black" points="540.5,-0.5 540.5,-112.5 644.5,-112.5 644.5,-0.5 540.5,-0.5"/>
<text text-anchor="start" x="548.5" y="-100.5" font-family="Helvetica,sans-Serif" font-size="10.00">signal_easel::afsk</text>
<text text-anchor="middle" x="592.5" y="-89.5" font-family="Helvetica,sans-Serif" font-size="10.00">::Receiver</text>
<polyline fill="none" stroke="black" points="540.5,-82.5 644.5,-82.5 "/>
<text text-anchor="middle" x="592.5" y="-70.5" font-family="Helvetica,sans-Serif" font-size="10.00"> </text>
<polyline fill="none" stroke="black" points="540.5,-63.5 644.5,-63.5 "/>
<text text-anchor="start" x="548.5" y="-51.5" font-family="Helvetica,sans-Serif" font-size="10.00">+ Receiver()</text>
<text text-anchor="start" x="548.5" y="-40.5" font-family="Helvetica,sans-Serif" font-size="10.00">+ ~Receiver()</text>
<text text-anchor="start" x="548.5" y="-29.5" font-family="Helvetica,sans-Serif" font-size="10.00">+ process()</text>
<text text-anchor="start" x="548.5" y="-18.5" font-family="Helvetica,sans-Serif" font-size="10.00"># decode()</text>
<text text-anchor="start" x="548.5" y="-7.5" font-family="Helvetica,sans-Serif" font-size="10.00"># detectSignal()</text>
</a>
</g>
</g>
<!-- Node2 -->
<g id="node2" class="node">
<title>Node2</title>
<g id="a_node2"><a xlink:href="classsignal__easel_1_1Receiver.html" target="_top" xlink:title=" ">
<polygon fill="none" stroke="black" points="404.5,-331.5 404.5,-432.5 530.5,-432.5 530.5,-331.5 404.5,-331.5"/>
<text text-anchor="middle" x="467.5" y="-420.5" font-family="Helvetica,sans-Serif" font-size="10.00">signal_easel::Receiver</text>
<polyline fill="none" stroke="black" points="404.5,-413.5 530.5,-413.5 "/>
<text text-anchor="middle" x="467.5" y="-401.5" font-family="Helvetica,sans-Serif" font-size="10.00"> </text>
<polyline fill="none" stroke="black" points="404.5,-394.5 530.5,-394.5 "/>
<text text-anchor="start" x="412.5" y="-382.5" font-family="Helvetica,sans-Serif" font-size="10.00">+ Receiver()</text>
<text text-anchor="start" x="412.5" y="-371.5" font-family="Helvetica,sans-Serif" font-size="10.00">+ ~Receiver()</text>
<text text-anchor="start" x="412.5" y="-360.5" font-family="Helvetica,sans-Serif" font-size="10.00">+ getLatency()</text>
<text text-anchor="start" x="412.5" y="-349.5" font-family="Helvetica,sans-Serif" font-size="10.00">+ getVolume()</text>
<text text-anchor="start" x="412.5" y="-338.5" font-family="Helvetica,sans-Serif" font-size="10.00">+ process()</text>
</a>
</g>
</g>
<!-- Node2&#45;&gt;Node1 -->
<g id="edge1" class="edge">
<title>Node2&#45;&gt;Node1</title>
<path fill="none" stroke="midnightblue" d="M490.49,-321.5C513.56,-261.8 548.8,-170.61 571.23,-112.54"/>
<polygon fill="none" stroke="midnightblue" points="487.1,-320.57 486.76,-331.16 493.63,-323.1 487.1,-320.57"/>
</g>
<!-- Node3 -->
<g id="node3" class="node">
<title>Node3</title>
<g id="a_node3"><a xlink:href="classsignal__easel_1_1PulseAudioReader.html" target="_top" xlink:title=" ">
<polygon fill="none" stroke="black" points="208,-486 208,-664 345,-664 345,-486 208,-486"/>
<text text-anchor="start" x="216" y="-652" font-family="Helvetica,sans-Serif" font-size="10.00">signal_easel::PulseAudio</text>
<text text-anchor="middle" x="276.5" y="-641" font-family="Helvetica,sans-Serif" font-size="10.00">Reader</text>
<polyline fill="none" stroke="black" points="208,-634 345,-634 "/>
<text text-anchor="middle" x="276.5" y="-622" font-family="Helvetica,sans-Serif" font-size="10.00"> </text>
<polyline fill="none" stroke="black" points="208,-615 345,-615 "/>
<text text-anchor="start" x="216" y="-603" font-family="Helvetica,sans-Serif" font-size="10.00">+ PulseAudioReader()</text>
<text text-anchor="start" x="216" y="-592" font-family="Helvetica,sans-Serif" font-size="10.00">+ PulseAudioReader()</text>
<text text-anchor="start" x="216" y="-581" font-family="Helvetica,sans-Serif" font-size="10.00">+ PulseAudioReader()</text>
<text text-anchor="start" x="216" y="-570" font-family="Helvetica,sans-Serif" font-size="10.00">+ ~PulseAudioReader()</text>
<text text-anchor="start" x="216" y="-559" font-family="Helvetica,sans-Serif" font-size="10.00">+ getAudioBuffer()</text>
<text text-anchor="start" x="216" y="-548" font-family="Helvetica,sans-Serif" font-size="10.00">+ getLatency()</text>
<text text-anchor="start" x="216" y="-537" font-family="Helvetica,sans-Serif" font-size="10.00">+ getRms()</text>
<text text-anchor="start" x="216" y="-526" font-family="Helvetica,sans-Serif" font-size="10.00">+ getVolume()</text>
<text text-anchor="start" x="216" y="-515" font-family="Helvetica,sans-Serif" font-size="10.00">+ operator=()</text>
<text text-anchor="start" x="216" y="-504" font-family="Helvetica,sans-Serif" font-size="10.00">+ operator=()</text>
<text text-anchor="start" x="216" y="-493" font-family="Helvetica,sans-Serif" font-size="10.00">+ process()</text>
</a>
</g>
</g>
<!-- Node3&#45;&gt;Node2 -->
<g id="edge2" class="edge">
<title>Node3&#45;&gt;Node2</title>
<path fill="none" stroke="#404040" d="M270.76,-485.86C273.29,-473.29 277.86,-461.19 285.5,-451 310.6,-417.51 354.12,-400.51 392.31,-391.88"/>
<polygon fill="none" stroke="#404040" points="392.74,-391.79 397.81,-386.66 404.49,-389.36 399.42,-394.5 392.74,-391.79"/>
<text text-anchor="middle" x="341.5" y="-454" font-family="Helvetica,sans-Serif" font-size="10.00"> #pulse_audio_reader_</text>
</g>
<!-- Node4 -->
<g id="node4" class="node">
<title>Node4</title>
<g id="a_node4"><a xlink:title=" ">
<polygon fill="none" stroke="black" points="715.5,-756 715.5,-813 771.5,-813 771.5,-756 715.5,-756"/>
<text text-anchor="middle" x="743.5" y="-801" font-family="Helvetica,sans-Serif" font-size="10.00">uint32_t</text>
<polyline fill="none" stroke="black" points="715.5,-794 771.5,-794 "/>
<text text-anchor="middle" x="743.5" y="-782" font-family="Helvetica,sans-Serif" font-size="10.00"> </text>
<polyline fill="none" stroke="black" points="715.5,-775 771.5,-775 "/>
<text text-anchor="middle" x="743.5" y="-763" font-family="Helvetica,sans-Serif" font-size="10.00"> </text>
</a>
</g>
</g>
<!-- Node4&#45;&gt;Node3 -->
<g id="edge3" class="edge">
<title>Node4&#45;&gt;Node3</title>
<path fill="none" stroke="#404040" d="M721.49,-755.89C715.94,-748.36 710.23,-740.05 705.5,-732 694.62,-713.48 703.23,-700.12 685.5,-688 625.42,-646.93 423.9,-701.93 358.5,-670 357.5,-669.51 356.51,-669 355.52,-668.48"/>
<polygon fill="none" stroke="#404040" points="355.5,-668.47 348.29,-668.78 345.24,-662.24 352.44,-661.94 355.5,-668.47"/>
<text text-anchor="middle" x="730" y="-707.5" font-family="Helvetica,sans-Serif" font-size="10.00"> &#45;latency_</text>
</g>
<!-- Node16 -->
<g id="node16" class="node">
<title>Node16</title>
<g id="a_node16"><a xlink:href="classsignal__easel_1_1BitStream.html" target="_top" xlink:title=" ">
<polygon fill="none" stroke="black" points="923,-480.5 923,-669.5 1070,-669.5 1070,-480.5 923,-480.5"/>
<text text-anchor="middle" x="996.5" y="-657.5" font-family="Helvetica,sans-Serif" font-size="10.00">signal_easel::BitStream</text>
<polyline fill="none" stroke="black" points="923,-650.5 1070,-650.5 "/>
<text text-anchor="middle" x="996.5" y="-638.5" font-family="Helvetica,sans-Serif" font-size="10.00"> </text>
<polyline fill="none" stroke="black" points="923,-631.5 1070,-631.5 "/>
<text text-anchor="start" x="931" y="-619.5" font-family="Helvetica,sans-Serif" font-size="10.00">+ addBits()</text>
<text text-anchor="start" x="931" y="-608.5" font-family="Helvetica,sans-Serif" font-size="10.00">+ addOneBit()</text>
<text text-anchor="start" x="931" y="-597.5" font-family="Helvetica,sans-Serif" font-size="10.00">+ addZeroBit()</text>
<text text-anchor="start" x="931" y="-586.5" font-family="Helvetica,sans-Serif" font-size="10.00">+ clear()</text>
<text text-anchor="start" x="931" y="-575.5" font-family="Helvetica,sans-Serif" font-size="10.00">+ dumpBitStream()</text>
<text text-anchor="start" x="931" y="-564.5" font-family="Helvetica,sans-Serif" font-size="10.00">+ dumpBitStreamAsAscii()</text>
<text text-anchor="start" x="931" y="-553.5" font-family="Helvetica,sans-Serif" font-size="10.00">+ dumpBitStreamAsHex()</text>
<text text-anchor="start" x="931" y="-542.5" font-family="Helvetica,sans-Serif" font-size="10.00">+ getBitStreamLength()</text>
<text text-anchor="start" x="931" y="-531.5" font-family="Helvetica,sans-Serif" font-size="10.00">+ getBitVector()</text>
<text text-anchor="start" x="931" y="-520.5" font-family="Helvetica,sans-Serif" font-size="10.00">+ peakNextBit()</text>
<text text-anchor="start" x="931" y="-509.5" font-family="Helvetica,sans-Serif" font-size="10.00">+ peakNextByte()</text>
<text text-anchor="start" x="931" y="-498.5" font-family="Helvetica,sans-Serif" font-size="10.00">+ popNextBit()</text>
<text text-anchor="start" x="931" y="-487.5" font-family="Helvetica,sans-Serif" font-size="10.00">+ pushBufferToBitStream()</text>
</a>
</g>
</g>
<!-- Node4&#45;&gt;Node16 -->
<g id="edge20" class="edge">
<title>Node4&#45;&gt;Node16</title>
<path fill="none" stroke="#404040" d="M750.92,-755.59C758.13,-730.63 769.57,-696.68 780.5,-688 825.15,-652.55 856.85,-696.16 907.5,-670 909.15,-669.15 910.79,-668.25 912.42,-667.31"/>
<polygon fill="none" stroke="#404040" points="912.81,-667.06 915.71,-660.46 922.92,-660.6 920.02,-667.2 912.81,-667.06"/>
<text text-anchor="middle" x="830" y="-707.5" font-family="Helvetica,sans-Serif" font-size="10.00"> &#45;bit_stream_buffer_</text>
</g>
<!-- Node5 -->
<g id="node5" class="node">
<title>Node5</title>
<g id="a_node5"><a xlink:title=" ">
<polygon fill="none" stroke="black" points="248.5,-756 248.5,-813 304.5,-813 304.5,-756 248.5,-756"/>
<text text-anchor="middle" x="276.5" y="-801" font-family="Helvetica,sans-Serif" font-size="10.00">uint64_t</text>
<polyline fill="none" stroke="black" points="248.5,-794 304.5,-794 "/>
<text text-anchor="middle" x="276.5" y="-782" font-family="Helvetica,sans-Serif" font-size="10.00"> </text>
<polyline fill="none" stroke="black" points="248.5,-775 304.5,-775 "/>
<text text-anchor="middle" x="276.5" y="-763" font-family="Helvetica,sans-Serif" font-size="10.00"> </text>
</a>
</g>
</g>
<!-- Node5&#45;&gt;Node3 -->
<g id="edge4" class="edge">
<title>Node5&#45;&gt;Node3</title>
<path fill="none" stroke="#404040" d="M276.5,-755.95C276.5,-735.31 276.5,-705.7 276.5,-676.45"/>
<polygon fill="none" stroke="#404040" points="276.5,-676.4 272.5,-670.4 276.5,-664.4 280.5,-670.4 276.5,-676.4"/>
<text text-anchor="middle" x="292" y="-707.5" font-family="Helvetica,sans-Serif" font-size="10.00"> &#45;rms_</text>
</g>
<!-- Node6 -->
<g id="node6" class="node">
<title>Node6</title>
<g id="a_node6"><a xlink:title=" ">
<polygon fill="none" stroke="black" points="451.5,-756 451.5,-813 501.5,-813 501.5,-756 451.5,-756"/>
<text text-anchor="middle" x="476.5" y="-801" font-family="Helvetica,sans-Serif" font-size="10.00">double</text>
<polyline fill="none" stroke="black" points="451.5,-794 501.5,-794 "/>
<text text-anchor="middle" x="476.5" y="-782" font-family="Helvetica,sans-Serif" font-size="10.00"> </text>
<polyline fill="none" stroke="black" points="451.5,-775 501.5,-775 "/>
<text text-anchor="middle" x="476.5" y="-763" font-family="Helvetica,sans-Serif" font-size="10.00"> </text>
</a>
</g>
</g>
<!-- Node6&#45;&gt;Node3 -->
<g id="edge5" class="edge">
<title>Node6&#45;&gt;Node3</title>
<path fill="none" stroke="#404040" d="M451.48,-760.63C427.16,-738.13 389.48,-702.52 358.5,-670 356.88,-668.29 355.24,-666.56 353.6,-664.81"/>
<polygon fill="none" stroke="#404040" points="353.52,-664.73 346.51,-663.05 345.36,-655.93 352.38,-657.61 353.52,-664.73"/>
<text text-anchor="middle" x="443" y="-707.5" font-family="Helvetica,sans-Serif" font-size="10.00"> &#45;volume_</text>
</g>
<!-- Node10 -->
<g id="node10" class="node">
<title>Node10</title>
<g id="a_node10"><a xlink:href="structsignal__easel_1_1Settings.html" target="_top" xlink:title="The universal settings for MWAV.">
<polygon fill="none" stroke="black" points="537,-546.5 537,-603.5 660,-603.5 660,-546.5 537,-546.5"/>
<text text-anchor="middle" x="598.5" y="-591.5" font-family="Helvetica,sans-Serif" font-size="10.00">signal_easel::Settings</text>
<polyline fill="none" stroke="black" points="537,-584.5 660,-584.5 "/>
<text text-anchor="middle" x="598.5" y="-572.5" font-family="Helvetica,sans-Serif" font-size="10.00"> </text>
<polyline fill="none" stroke="black" points="537,-565.5 660,-565.5 "/>
<text text-anchor="middle" x="598.5" y="-553.5" font-family="Helvetica,sans-Serif" font-size="10.00"> </text>
</a>
</g>
</g>
<!-- Node6&#45;&gt;Node10 -->
<g id="edge12" class="edge">
<title>Node6&#45;&gt;Node10</title>
<path fill="none" stroke="#404040" d="M482.26,-755.63C487.03,-735.95 494.92,-709.4 506.5,-688 521.35,-660.56 543.4,-633.42 562.19,-612.73"/>
<polygon fill="none" stroke="#404040" points="562.4,-612.51 563.55,-605.39 570.56,-603.7 569.42,-610.82 562.4,-612.51"/>
<text text-anchor="middle" x="549.5" y="-718.5" font-family="Helvetica,sans-Serif" font-size="10.00"> +amplitude</text>
<text text-anchor="start" x="506.5" y="-707.5" font-family="Helvetica,sans-Serif" font-size="10.00">+call_sign_pause</text>
<text text-anchor="middle" x="549.5" y="-696.5" font-family="Helvetica,sans-Serif" font-size="10.00">_seconds</text>
</g>
<!-- Node7 -->
<g id="node7" class="node">
<title>Node7</title>
<g id="a_node7"><a xlink:title=" ">
<polygon fill="none" stroke="black" points="322.5,-756 322.5,-813 420.5,-813 420.5,-756 322.5,-756"/>
<text text-anchor="middle" x="371.5" y="-801" font-family="Helvetica,sans-Serif" font-size="10.00">pa_sample_spec</text>
<polyline fill="none" stroke="black" points="322.5,-794 420.5,-794 "/>
<text text-anchor="middle" x="371.5" y="-782" font-family="Helvetica,sans-Serif" font-size="10.00"> </text>
<polyline fill="none" stroke="black" points="322.5,-775 420.5,-775 "/>
<text text-anchor="middle" x="371.5" y="-763" font-family="Helvetica,sans-Serif" font-size="10.00"> </text>
</a>
</g>
</g>
<!-- Node7&#45;&gt;Node3 -->
<g id="edge6" class="edge">
<title>Node7&#45;&gt;Node3</title>
<path fill="none" stroke="#404040" d="M358.88,-755.95C349.35,-735.12 335.64,-705.18 322.13,-675.67"/>
<polygon fill="none" stroke="#404040" points="321.97,-675.32 315.83,-671.52 316.97,-664.4 323.11,-668.19 321.97,-675.32"/>
<text text-anchor="middle" x="357" y="-707.5" font-family="Helvetica,sans-Serif" font-size="10.00"> &#45;ss_</text>
</g>
<!-- Node8 -->
<g id="node8" class="node">
<title>Node8</title>
<g id="a_node8"><a xlink:title=" ">
<polygon fill="none" stroke="black" points="0,-756 0,-813 75,-813 75,-756 0,-756"/>
<text text-anchor="middle" x="37.5" y="-801" font-family="Helvetica,sans-Serif" font-size="10.00">pa_simple *</text>
<polyline fill="none" stroke="black" points="0,-794 75,-794 "/>
<text text-anchor="middle" x="37.5" y="-782" font-family="Helvetica,sans-Serif" font-size="10.00"> </text>
<polyline fill="none" stroke="black" points="0,-775 75,-775 "/>
<text text-anchor="middle" x="37.5" y="-763" font-family="Helvetica,sans-Serif" font-size="10.00"> </text>
</a>
</g>
</g>
<!-- Node8&#45;&gt;Node3 -->
<g id="edge7" class="edge">
<title>Node8&#45;&gt;Node3</title>
<path fill="none" stroke="#404040" d="M69.24,-755.95C102.07,-727.44 154.62,-681.82 198.58,-643.65"/>
<polygon fill="none" stroke="#404040" points="198.76,-643.49 200.67,-636.54 207.82,-635.63 205.91,-642.58 198.76,-643.49"/>
<text text-anchor="middle" x="151.5" y="-707.5" font-family="Helvetica,sans-Serif" font-size="10.00"> &#45;s_</text>
</g>
<!-- Node9 -->
<g id="node9" class="node">
<title>Node9</title>
<g id="a_node9"><a xlink:title=" ">
<polygon fill="none" stroke="black" points="93,-750.5 93,-818.5 230,-818.5 230,-750.5 93,-750.5"/>
<text text-anchor="start" x="101" y="-806.5" font-family="Helvetica,sans-Serif" font-size="10.00">array&lt; int16_t, PULSE</text>
<text text-anchor="middle" x="161.5" y="-795.5" font-family="Helvetica,sans-Serif" font-size="10.00">_AUDIO_BUFFER_SIZE &gt;</text>
<polyline fill="none" stroke="black" points="93,-788.5 230,-788.5 "/>
<text text-anchor="middle" x="161.5" y="-776.5" font-family="Helvetica,sans-Serif" font-size="10.00"> </text>
<polyline fill="none" stroke="black" points="93,-769.5 230,-769.5 "/>
<text text-anchor="middle" x="161.5" y="-757.5" font-family="Helvetica,sans-Serif" font-size="10.00"> </text>
</a>
</g>
</g>
<!-- Node9&#45;&gt;Node3 -->
<g id="edge8" class="edge">
<title>Node9&#45;&gt;Node3</title>
<path fill="none" stroke="#404040" d="M172.59,-750.42C179.39,-731.65 188.82,-707.99 199.5,-688 201.88,-683.55 204.39,-679.06 207.01,-674.58"/>
<polygon fill="none" stroke="#404040" points="207.1,-674.41 206.76,-667.21 213.27,-664.12 213.62,-671.33 207.1,-674.41"/>
<text text-anchor="middle" x="236" y="-707.5" font-family="Helvetica,sans-Serif" font-size="10.00"> &#45;audio_buffer_</text>
</g>
<!-- Node10&#45;&gt;Node2 -->
<g id="edge9" class="edge">
<title>Node10&#45;&gt;Node2</title>
<path fill="none" stroke="#404040" d="M579.45,-546.23C560.92,-519.2 532.15,-477.27 508.42,-442.67"/>
<polygon fill="none" stroke="#404040" points="508.35,-442.55 501.65,-439.87 501.56,-432.66 508.25,-435.34 508.35,-442.55"/>
<text text-anchor="middle" x="548.5" y="-454" font-family="Helvetica,sans-Serif" font-size="10.00"> #settings_</text>
</g>
<!-- Node14 -->
<g id="node14" class="node">
<title>Node14</title>
<g id="a_node14"><a xlink:href="classsignal__easel_1_1Demodulator.html" target="_top" xlink:title="The base class for all demodulators that turn audio into data.">
<polygon fill="none" stroke="black" points="549,-331.5 549,-432.5 696,-432.5 696,-331.5 549,-331.5"/>
<text text-anchor="middle" x="622.5" y="-420.5" font-family="Helvetica,sans-Serif" font-size="10.00">signal_easel::Demodulator</text>
<polyline fill="none" stroke="black" points="549,-413.5 696,-413.5 "/>
<text text-anchor="middle" x="622.5" y="-401.5" font-family="Helvetica,sans-Serif" font-size="10.00"> </text>
<polyline fill="none" stroke="black" points="549,-394.5 696,-394.5 "/>
<text text-anchor="start" x="557" y="-382.5" font-family="Helvetica,sans-Serif" font-size="10.00">+ Demodulator()</text>
<text text-anchor="start" x="557" y="-371.5" font-family="Helvetica,sans-Serif" font-size="10.00">+ ~Demodulator()</text>
<text text-anchor="start" x="557" y="-360.5" font-family="Helvetica,sans-Serif" font-size="10.00">+ clearBuffer()</text>
<text text-anchor="start" x="557" y="-349.5" font-family="Helvetica,sans-Serif" font-size="10.00">+ loadAudioFromFile()</text>
<text text-anchor="start" x="557" y="-338.5" font-family="Helvetica,sans-Serif" font-size="10.00"># getAudioBuffer()</text>
</a>
</g>
</g>
<!-- Node10&#45;&gt;Node14 -->
<g id="edge15" class="edge">
<title>Node10&#45;&gt;Node14</title>
<path fill="none" stroke="#404040" d="M598.2,-546.48C598.31,-521.44 599.46,-483.54 604.5,-451 604.84,-448.83 605.21,-446.63 605.63,-444.42"/>
<polygon fill="none" stroke="#404040" points="605.66,-444.26 602.97,-437.57 608.11,-432.51 610.8,-439.2 605.66,-444.26"/>
<text text-anchor="middle" x="632.5" y="-454" font-family="Helvetica,sans-Serif" font-size="10.00"> #settings_</text>
</g>
<!-- Node20 -->
<g id="node20" class="node">
<title>Node20</title>
<g id="a_node20"><a xlink:href="structsignal__easel_1_1afsk_1_1Settings.html" target="_top" xlink:title="Settings for AFSK modulation/demodulation.">
<polygon fill="none" stroke="black" points="714.5,-348 714.5,-416 818.5,-416 818.5,-348 714.5,-348"/>
<text text-anchor="start" x="722.5" y="-404" font-family="Helvetica,sans-Serif" font-size="10.00">signal_easel::afsk</text>
<text text-anchor="middle" x="766.5" y="-393" font-family="Helvetica,sans-Serif" font-size="10.00">::Settings</text>
<polyline fill="none" stroke="black" points="714.5,-386 818.5,-386 "/>
<text text-anchor="middle" x="766.5" y="-374" font-family="Helvetica,sans-Serif" font-size="10.00"> </text>
<polyline fill="none" stroke="black" points="714.5,-367 818.5,-367 "/>
<text text-anchor="middle" x="766.5" y="-355" font-family="Helvetica,sans-Serif" font-size="10.00"> </text>
</a>
</g>
</g>
<!-- Node10&#45;&gt;Node20 -->
<g id="edge23" class="edge">
<title>Node10&#45;&gt;Node20</title>
<path fill="none" stroke="midnightblue" d="M629.62,-538.62C660.4,-503.63 707.13,-450.5 737.24,-416.27"/>
<polygon fill="none" stroke="midnightblue" points="626.91,-536.41 622.93,-546.23 632.16,-541.03 626.91,-536.41"/>
</g>
<!-- Node11 -->
<g id="node11" class="node">
<title>Node11</title>
<g id="a_node11"><a xlink:title=" ">
<polygon fill="none" stroke="black" points="879.5,-756 879.5,-813 923.5,-813 923.5,-756 879.5,-756"/>
<text text-anchor="middle" x="901.5" y="-801" font-family="Helvetica,sans-Serif" font-size="10.00">string</text>
<polyline fill="none" stroke="black" points="879.5,-794 923.5,-794 "/>
<text text-anchor="middle" x="901.5" y="-782" font-family="Helvetica,sans-Serif" font-size="10.00"> </text>
<polyline fill="none" stroke="black" points="879.5,-775 923.5,-775 "/>
<text text-anchor="middle" x="901.5" y="-763" font-family="Helvetica,sans-Serif" font-size="10.00"> </text>
</a>
</g>
</g>
<!-- Node11&#45;&gt;Node10 -->
<g id="edge10" class="edge">
<title>Node11&#45;&gt;Node10</title>
<path fill="none" stroke="#404040" d="M903.17,-755.71C902.83,-733.93 898.43,-704.6 879.5,-688 847.95,-660.33 729.42,-687.99 691.5,-670 664.94,-657.4 641.69,-633.88 625.07,-613.53"/>
<polygon fill="none" stroke="#404040" points="624.88,-613.29 618.03,-611.04 617.46,-603.85 624.32,-606.1 624.88,-613.29"/>
<text text-anchor="middle" x="928" y="-707.5" font-family="Helvetica,sans-Serif" font-size="10.00"> +call_sign</text>
</g>
<!-- Node12 -->
<g id="node12" class="node">
<title>Node12</title>
<g id="a_node12"><a xlink:title=" ">
<polygon fill="none" stroke="black" points="555,-756 555,-813 638,-813 638,-756 555,-756"/>
<text text-anchor="middle" x="596.5" y="-801" font-family="Helvetica,sans-Serif" font-size="10.00">CallSignMode</text>
<polyline fill="none" stroke="black" points="555,-794 638,-794 "/>
<text text-anchor="middle" x="596.5" y="-782" font-family="Helvetica,sans-Serif" font-size="10.00"> </text>
<polyline fill="none" stroke="black" points="555,-775 638,-775 "/>
<text text-anchor="middle" x="596.5" y="-763" font-family="Helvetica,sans-Serif" font-size="10.00"> </text>
</a>
</g>
</g>
<!-- Node12&#45;&gt;Node10 -->
<g id="edge11" class="edge">
<title>Node12&#45;&gt;Node10</title>
<path fill="none" stroke="#404040" d="M596.77,-755.95C597.11,-720.06 597.72,-657.06 598.12,-615.93"/>
<polygon fill="none" stroke="#404040" points="598.12,-615.67 594.18,-609.63 598.23,-603.67 602.18,-609.71 598.12,-615.67"/>
<text text-anchor="middle" x="640.5" y="-707.5" font-family="Helvetica,sans-Serif" font-size="10.00"> +call_sign_mode</text>
</g>
<!-- Node13 -->
<g id="node13" class="node">
<title>Node13</title>
<g id="a_node13"><a xlink:href="classsignal__easel_1_1afsk_1_1Demodulator.html" target="_top" xlink:title="Demodulates an AFSK signal into data.">
<polygon fill="none" stroke="black" points="747.5,-160.5 747.5,-283.5 923.5,-283.5 923.5,-160.5 747.5,-160.5"/>
<text text-anchor="start" x="755.5" y="-271.5" font-family="Helvetica,sans-Serif" font-size="10.00">signal_easel::afsk</text>
<text text-anchor="middle" x="835.5" y="-260.5" font-family="Helvetica,sans-Serif" font-size="10.00">::Demodulator</text>
<polyline fill="none" stroke="black" points="747.5,-253.5 923.5,-253.5 "/>
<text text-anchor="middle" x="835.5" y="-241.5" font-family="Helvetica,sans-Serif" font-size="10.00"> </text>
<polyline fill="none" stroke="black" points="747.5,-234.5 923.5,-234.5 "/>
<text text-anchor="start" x="755.5" y="-222.5" font-family="Helvetica,sans-Serif" font-size="10.00">+ Demodulator()</text>
<text text-anchor="start" x="755.5" y="-211.5" font-family="Helvetica,sans-Serif" font-size="10.00">+ ~Demodulator()</text>
<text text-anchor="start" x="755.5" y="-200.5" font-family="Helvetica,sans-Serif" font-size="10.00">+ lookForString()</text>
<text text-anchor="start" x="755.5" y="-189.5" font-family="Helvetica,sans-Serif" font-size="10.00">+ processAudioBuffer()</text>
<text text-anchor="start" x="755.5" y="-178.5" font-family="Helvetica,sans-Serif" font-size="10.00">&#45; audioBufferToBaseBandSignal()</text>
<text text-anchor="start" x="755.5" y="-167.5" font-family="Helvetica,sans-Serif" font-size="10.00">&#45; baseBandToBitStream()</text>
</a>
</g>
</g>
<!-- Node13&#45;&gt;Node1 -->
<g id="edge13" class="edge">
<title>Node13&#45;&gt;Node1</title>
<path fill="none" stroke="#404040" d="M747.43,-161.74C716.7,-141.07 682.88,-118.31 654.7,-99.35"/>
<polygon fill="none" stroke="#404040" points="654.55,-99.25 647.34,-99.22 644.59,-92.55 651.8,-92.58 654.55,-99.25"/>
<text text-anchor="middle" x="753" y="-134" font-family="Helvetica,sans-Serif" font-size="10.00"> #demodulator_</text>
</g>
<!-- Node14&#45;&gt;Node13 -->
<g id="edge14" class="edge">
<title>Node14&#45;&gt;Node13</title>
<path fill="none" stroke="midnightblue" d="M697.54,-325.34C715.67,-311.89 735.14,-297.44 753.58,-283.77"/>
<polygon fill="none" stroke="midnightblue" points="695.26,-322.67 689.31,-331.44 699.43,-328.29 695.26,-322.67"/>
</g>
<!-- Node15 -->
<g id="node15" class="node">
<title>Node15</title>
<g id="a_node15"><a xlink:title=" ">
<polygon fill="none" stroke="black" points="367.5,-546.5 367.5,-603.5 471.5,-603.5 471.5,-546.5 367.5,-546.5"/>
<text text-anchor="middle" x="419.5" y="-591.5" font-family="Helvetica,sans-Serif" font-size="10.00">vector&lt; int16_t &gt;</text>
<polyline fill="none" stroke="black" points="367.5,-584.5 471.5,-584.5 "/>
<text text-anchor="middle" x="419.5" y="-572.5" font-family="Helvetica,sans-Serif" font-size="10.00"> </text>
<polyline fill="none" stroke="black" points="367.5,-565.5 471.5,-565.5 "/>
<text text-anchor="middle" x="419.5" y="-553.5" font-family="Helvetica,sans-Serif" font-size="10.00"> </text>
</a>
</g>
</g>
<!-- Node15&#45;&gt;Node1 -->
<g id="edge27" class="edge">
<title>Node15&#45;&gt;Node1</title>
<path fill="none" stroke="#404040" d="M409.54,-546.13C393,-494.99 365.29,-383.87 403.5,-302 435.62,-233.17 490.01,-165.7 532.22,-119.13"/>
<polygon fill="none" stroke="#404040" points="532.38,-118.95 533.48,-111.83 540.49,-110.1 539.38,-117.23 532.38,-118.95"/>
<text text-anchor="middle" x="447" y="-305" font-family="Helvetica,sans-Serif" font-size="10.00"> #receive_buffer_</text>
</g>
<!-- Node15&#45;&gt;Node14 -->
<g id="edge16" class="edge">
<title>Node15&#45;&gt;Node14</title>
<path fill="none" stroke="#404040" d="M414.33,-546.38C410.84,-518.52 410.54,-476.15 434.5,-451 464.74,-419.26 490.94,-445 537.4,-432.85"/>
<polygon fill="none" stroke="#404040" points="537.55,-432.8 542.05,-427.16 548.98,-429.14 544.49,-434.78 537.55,-432.8"/>
<text text-anchor="middle" x="473.5" y="-454" font-family="Helvetica,sans-Serif" font-size="10.00"> #audio_buffer_</text>
</g>
<!-- Node16&#45;&gt;Node13 -->
<g id="edge17" class="edge">
<title>Node16&#45;&gt;Node13</title>
<path fill="none" stroke="#404040" d="M1006.95,-480.26C1008.54,-424.4 1001.99,-354.4 968.5,-302 959.6,-288.07 947.28,-276.27 933.72,-266.38"/>
<polygon fill="none" stroke="#404040" points="933.56,-266.28 926.35,-266.2 923.65,-259.52 930.86,-259.59 933.56,-266.28"/>
<text text-anchor="middle" x="1058.5" y="-379.5" font-family="Helvetica,sans-Serif" font-size="10.00"> #output_bit_stream_</text>
</g>
<!-- Node17 -->
<g id="node17" class="node">
<title>Node17</title>
<g id="a_node17"><a xlink:title=" ">
<polygon fill="none" stroke="black" points="941.5,-756 941.5,-813 1051.5,-813 1051.5,-756 941.5,-756"/>
<text text-anchor="middle" x="996.5" y="-801" font-family="Helvetica,sans-Serif" font-size="10.00">vector&lt; uint32_t &gt;</text>
<polyline fill="none" stroke="black" points="941.5,-794 1051.5,-794 "/>
<text text-anchor="middle" x="996.5" y="-782" font-family="Helvetica,sans-Serif" font-size="10.00"> </text>
<polyline fill="none" stroke="black" points="941.5,-775 1051.5,-775 "/>
<text text-anchor="middle" x="996.5" y="-763" font-family="Helvetica,sans-Serif" font-size="10.00"> </text>
</a>
</g>
</g>
<!-- Node17&#45;&gt;Node16 -->
<g id="edge18" class="edge">
<title>Node17&#45;&gt;Node16</title>
<path fill="none" stroke="#404040" d="M996.5,-755.95C996.5,-736.55 996.5,-709.23 996.5,-681.72"/>
<polygon fill="none" stroke="#404040" points="996.5,-681.53 992.5,-675.53 996.5,-669.53 1000.5,-675.53 996.5,-681.53"/>
<text text-anchor="middle" x="1029" y="-707.5" font-family="Helvetica,sans-Serif" font-size="10.00"> &#45;bit_stream_</text>
</g>
<!-- Node18 -->
<g id="node18" class="node">
<title>Node18</title>
<g id="a_node18"><a xlink:title=" ">
<polygon fill="none" stroke="black" points="1070,-756 1070,-813 1099,-813 1099,-756 1070,-756"/>
<text text-anchor="middle" x="1084.5" y="-801" font-family="Helvetica,sans-Serif" font-size="10.00">int</text>
<polyline fill="none" stroke="black" points="1070,-794 1099,-794 "/>
<text text-anchor="middle" x="1084.5" y="-782" font-family="Helvetica,sans-Serif" font-size="10.00"> </text>
<polyline fill="none" stroke="black" points="1070,-775 1099,-775 "/>
<text text-anchor="middle" x="1084.5" y="-763" font-family="Helvetica,sans-Serif" font-size="10.00"> </text>
</a>
</g>
</g>
<!-- Node18&#45;&gt;Node16 -->
<g id="edge19" class="edge">
<title>Node18&#45;&gt;Node16</title>
<path fill="none" stroke="#404040" d="M1080.4,-755.66C1076.99,-736.23 1071.26,-709.97 1062.5,-688 1061.55,-685.63 1060.56,-683.24 1059.53,-680.85"/>
<polygon fill="none" stroke="#404040" points="1059.41,-680.59 1053.28,-676.79 1054.43,-669.67 1060.56,-673.47 1059.41,-680.59"/>
<text text-anchor="middle" x="1124" y="-724" font-family="Helvetica,sans-Serif" font-size="10.00"> &#45;bit_stream_index_</text>
<text text-anchor="start" x="1075.5" y="-713" font-family="Helvetica,sans-Serif" font-size="10.00">&#45;bit_stream_length</text>
<text text-anchor="middle" x="1124" y="-702" font-family="Helvetica,sans-Serif" font-size="10.00">_</text>
<text text-anchor="middle" x="1124" y="-691" font-family="Helvetica,sans-Serif" font-size="10.00">&#45;bit_stream_offset_</text>
</g>
<!-- Node19 -->
<g id="node19" class="node">
<title>Node19</title>
<g id="a_node19"><a xlink:title=" ">
<polygon fill="none" stroke="black" points="836.5,-353.5 836.5,-410.5 940.5,-410.5 940.5,-353.5 836.5,-353.5"/>
<text text-anchor="middle" x="888.5" y="-398.5" font-family="Helvetica,sans-Serif" font-size="10.00">vector&lt; uint8_t &gt;</text>
<polyline fill="none" stroke="black" points="836.5,-391.5 940.5,-391.5 "/>
<text text-anchor="middle" x="888.5" y="-379.5" font-family="Helvetica,sans-Serif" font-size="10.00"> </text>
<polyline fill="none" stroke="black" points="836.5,-372.5 940.5,-372.5 "/>
<text text-anchor="middle" x="888.5" y="-360.5" font-family="Helvetica,sans-Serif" font-size="10.00"> </text>
</a>
</g>
</g>
<!-- Node19&#45;&gt;Node13 -->
<g id="edge21" class="edge">
<title>Node19&#45;&gt;Node13</title>
<path fill="none" stroke="#404040" d="M879.27,-353.48C873.81,-337.22 866.63,-315.8 859.66,-295.03"/>
<polygon fill="none" stroke="#404040" points="859.64,-294.97 853.94,-290.55 855.83,-283.59 861.53,-288.01 859.64,-294.97"/>
<text text-anchor="middle" x="914.5" y="-305" font-family="Helvetica,sans-Serif" font-size="10.00"> &#45;base_band_signal_</text>
</g>
<!-- Node20&#45;&gt;Node1 -->
<g id="edge26" class="edge">
<title>Node20&#45;&gt;Node1</title>
<path fill="none" stroke="#404040" d="M726.67,-347.78C697.26,-322.94 661.5,-291.95 656.5,-284 625.96,-235.48 609.68,-172.12 601.19,-124.76"/>
<polygon fill="none" stroke="#404040" points="601.16,-124.6 596.21,-119.36 599.15,-112.77 604.1,-118.01 601.16,-124.6"/>
<text text-anchor="middle" x="697.5" y="-219.5" font-family="Helvetica,sans-Serif" font-size="10.00"> #afsk_settings_</text>
</g>
<!-- Node20&#45;&gt;Node13 -->
<g id="edge22" class="edge">
<title>Node20&#45;&gt;Node13</title>
<path fill="none" stroke="#404040" d="M768.6,-347.8C770.36,-333.32 773.58,-316.4 779.5,-302 780.58,-299.38 781.76,-296.75 783.02,-294.15"/>
<polygon fill="none" stroke="#404040" points="783.02,-294.14 782.29,-286.97 788.63,-283.53 789.36,-290.71 783.02,-294.14"/>
<text text-anchor="middle" x="818.5" y="-305" font-family="Helvetica,sans-Serif" font-size="10.00"> &#45;afsk_settings_</text>
</g>
<!-- Node21 -->
<g id="node21" class="node">
<title>Node21</title>
<g id="a_node21"><a xlink:title=" ">
<polygon fill="none" stroke="black" points="824.5,-546.5 824.5,-603.5 898.5,-603.5 898.5,-546.5 824.5,-546.5"/>
<text text-anchor="middle" x="861.5" y="-591.5" font-family="Helvetica,sans-Serif" font-size="10.00">BitEncoding</text>
<polyline fill="none" stroke="black" points="824.5,-584.5 898.5,-584.5 "/>
<text text-anchor="middle" x="861.5" y="-572.5" font-family="Helvetica,sans-Serif" font-size="10.00"> </text>
<polyline fill="none" stroke="black" points="824.5,-565.5 898.5,-565.5 "/>
<text text-anchor="middle" x="861.5" y="-553.5" font-family="Helvetica,sans-Serif" font-size="10.00"> </text>
</a>
</g>
</g>
<!-- Node21&#45;&gt;Node20 -->
<g id="edge24" class="edge">
<title>Node21&#45;&gt;Node20</title>
<path fill="none" stroke="#404040" d="M861.49,-546.46C860.38,-520.39 855.8,-480.91 839.5,-451 834.38,-441.61 827.48,-432.79 819.96,-424.81"/>
<polygon fill="none" stroke="#404040" points="819.79,-424.64 812.71,-423.25 811.27,-416.18 818.35,-417.57 819.79,-424.64"/>
<text text-anchor="middle" x="880.5" y="-454" font-family="Helvetica,sans-Serif" font-size="10.00"> +bit_encoding</text>
</g>
<!-- Node22 -->
<g id="node22" class="node">
<title>Node22</title>
<g id="a_node22"><a xlink:title=" ">
<polygon fill="none" stroke="black" points="700.5,-546.5 700.5,-603.5 738.5,-603.5 738.5,-546.5 700.5,-546.5"/>
<text text-anchor="middle" x="719.5" y="-591.5" font-family="Helvetica,sans-Serif" font-size="10.00">bool</text>
<polyline fill="none" stroke="black" points="700.5,-584.5 738.5,-584.5 "/>
<text text-anchor="middle" x="719.5" y="-572.5" font-family="Helvetica,sans-Serif" font-size="10.00"> </text>
<polyline fill="none" stroke="black" points="700.5,-565.5 738.5,-565.5 "/>
<text text-anchor="middle" x="719.5" y="-553.5" font-family="Helvetica,sans-Serif" font-size="10.00"> </text>
</a>
</g>
</g>
<!-- Node22&#45;&gt;Node20 -->
<g id="edge25" class="edge">
<title>Node22&#45;&gt;Node20</title>
<path fill="none" stroke="#404040" d="M715.26,-546.43C712.38,-521.03 710.67,-482.61 720.5,-451 723.12,-442.58 727.16,-434.26 731.78,-426.48"/>
<polygon fill="none" stroke="#404040" points="731.87,-426.34 731.75,-419.13 738.36,-416.24 738.48,-423.45 731.87,-426.34"/>
<text text-anchor="middle" x="780" y="-454" font-family="Helvetica,sans-Serif" font-size="10.00"> +include_ascii_padding</text>
</g>
</g>
</svg>
