<?xml version="1.0" encoding="UTF-8" standalone="no"?>
<!DOCTYPE svg PUBLIC "-//W3C//DTD SVG 1.1//EN"
 "http://www.w3.org/Graphics/SVG/1.1/DTD/svg11.dtd">
<!-- Generated by graphviz version 2.43.0 (0)
 -->
<!-- Title: signal_easel::ax25::Address Pages: 1 -->
<svg width="311pt" height="380pt"
 viewBox="0.00 0.00 311.00 380.00" xmlns="http://www.w3.org/2000/svg" xmlns:xlink="http://www.w3.org/1999/xlink">
<g id="graph0" class="graph" transform="scale(1 1) rotate(0) translate(4 376)">
<title>signal_easel::ax25::Address</title>
<!-- Node1 -->
<g id="node1" class="node">
<title>Node1</title>
<g id="a_node1"><a xlink:title="AX.25 Address class. For encoding and decoding AX.25 addresses.">
<polygon fill="#bfbfbf" stroke="black" points="48.5,-0.5 48.5,-200.5 209.5,-200.5 209.5,-0.5 48.5,-0.5"/>
<text text-anchor="start" x="56.5" y="-188.5" font-family="Helvetica,sans-Serif" font-size="10.00">signal_easel::ax25</text>
<text text-anchor="middle" x="129" y="-177.5" font-family="Helvetica,sans-Serif" font-size="10.00">::Address</text>
<polyline fill="none" stroke="black" points="48.5,-170.5 209.5,-170.5 "/>
<text text-anchor="middle" x="129" y="-158.5" font-family="Helvetica,sans-Serif" font-size="10.00"> </text>
<polyline fill="none" stroke="black" points="48.5,-151.5 209.5,-151.5 "/>
<text text-anchor="start" x="56.5" y="-139.5" font-family="Helvetica,sans-Serif" font-size="10.00">+ Address()</text>
<text text-anchor="start" x="56.5" y="-128.5" font-family="Helvetica,sans-Serif" font-size="10.00">+ Address()</text>
<text text-anchor="start" x="56.5" y="-117.5" font-family="Helvetica,sans-Serif" font-size="10.00">+ Address()</text>
<text text-anchor="start" x="56.5" y="-106.5" font-family="Helvetica,sans-Serif" font-size="10.00">+ assertIsValid()</text>
<text text-anchor="start" x="56.5" y="-95.5" font-family="Helvetica,sans-Serif" font-size="10.00">+ decodeAddress()</text>
<text text-anchor="start" x="56.5" y="-84.5" font-family="Helvetica,sans-Serif" font-size="10.00">+ encodeAddress()</text>
<text text-anchor="start" x="56.5" y="-73.5" font-family="Helvetica,sans-Serif" font-size="10.00">+ getAddressString()</text>
<text text-anchor="start" x="56.5" y="-62.5" font-family="Helvetica,sans-Serif" font-size="10.00">+ getSsid()</text>
<text text-anchor="start" x="56.5" y="-51.5" font-family="Helvetica,sans-Serif" font-size="10.00">+ isAddressStringValid()</text>
<text text-anchor="start" x="56.5" y="-40.5" font-family="Helvetica,sans-Serif" font-size="10.00">+ isCommandOrResponse()</text>
<text text-anchor="start" x="56.5" y="-29.5" font-family="Helvetica,sans-Serif" font-size="10.00">and 8 more...</text>
<text text-anchor="start" x="56.5" y="-18.5" font-family="Helvetica,sans-Serif" font-size="10.00">&#45; assertAddressStringIsValid()</text>
<text text-anchor="start" x="56.5" y="-7.5" font-family="Helvetica,sans-Serif" font-size="10.00">&#45; assertSsidIsValid()</text>
</a>
</g>
</g>
<!-- Node2 -->
<g id="node2" class="node">
<title>Node2</title>
<g id="a_node2"><a xlink:title=" ">
<polygon fill="none" stroke="black" points="0,-314.5 0,-371.5 44,-371.5 44,-314.5 0,-314.5"/>
<text text-anchor="middle" x="22" y="-359.5" font-family="Helvetica,sans-Serif" font-size="10.00">string</text>
<polyline fill="none" stroke="black" points="0,-352.5 44,-352.5 "/>
<text text-anchor="middle" x="22" y="-340.5" font-family="Helvetica,sans-Serif" font-size="10.00"> </text>
<polyline fill="none" stroke="black" points="0,-333.5 44,-333.5 "/>
<text text-anchor="middle" x="22" y="-321.5" font-family="Helvetica,sans-Serif" font-size="10.00"> </text>
</a>
</g>
</g>
<!-- Node2&#45;&gt;Node1 -->
<g id="edge1" class="edge">
<title>Node2&#45;&gt;Node1</title>
<path fill="none" stroke="#404040" d="M22.48,-314.09C23.79,-288.45 28.02,-249.87 41,-219 42.04,-216.52 43.15,-214.04 44.31,-211.57"/>
<polygon fill="none" stroke="#404040" points="44.34,-211.52 43.48,-204.37 49.76,-200.82 50.62,-207.98 44.34,-211.52"/>
<text text-anchor="middle" x="83" y="-255" font-family="Helvetica,sans-Serif" font-size="10.00"> &#45;address_string_</text>
</g>
<!-- Node3 -->
<g id="node3" class="node">
<title>Node3</title>
<g id="a_node3"><a xlink:title=" ">
<polygon fill="none" stroke="black" points="104,-314.5 104,-371.5 154,-371.5 154,-314.5 104,-314.5"/>
<text text-anchor="middle" x="129" y="-359.5" font-family="Helvetica,sans-Serif" font-size="10.00">uint8_t</text>
<polyline fill="none" stroke="black" points="104,-352.5 154,-352.5 "/>
<text text-anchor="middle" x="129" y="-340.5" font-family="Helvetica,sans-Serif" font-size="10.00"> </text>
<polyline fill="none" stroke="black" points="104,-333.5 154,-333.5 "/>
<text text-anchor="middle" x="129" y="-321.5" font-family="Helvetica,sans-Serif" font-size="10.00"> </text>
</a>
</g>
</g>
<!-- Node3&#45;&gt;Node1 -->
<g id="edge2" class="edge">
<title>Node3&#45;&gt;Node1</title>
<path fill="none" stroke="#404040" d="M129,-314.41C129,-289.31 129,-250.53 129,-212.91"/>
<polygon fill="none" stroke="#404040" points="129,-212.76 125,-206.76 129,-200.76 133,-206.76 129,-212.76"/>
<text text-anchor="middle" x="145" y="-255" font-family="Helvetica,sans-Serif" font-size="10.00"> &#45;ssid_</text>
</g>
<!-- Node4 -->
<g id="node4" class="node">
<title>Node4</title>
<g id="a_node4"><a xlink:title=" ">
<polygon fill="none" stroke="black" points="172,-314.5 172,-371.5 210,-371.5 210,-314.5 172,-314.5"/>
<text text-anchor="middle" x="191" y="-359.5" font-family="Helvetica,sans-Serif" font-size="10.00">bool</text>
<polyline fill="none" stroke="black" points="172,-352.5 210,-352.5 "/>
<text text-anchor="middle" x="191" y="-340.5" font-family="Helvetica,sans-Serif" font-size="10.00"> </text>
<polyline fill="none" stroke="black" points="172,-333.5 210,-333.5 "/>
<text text-anchor="middle" x="191" y="-321.5" font-family="Helvetica,sans-Serif" font-size="10.00"> </text>
</a>
</g>
</g>
<!-- Node4&#45;&gt;Node1 -->
<g id="edge3" class="edge">
<title>Node4&#45;&gt;Node1</title>
<path fill="none" stroke="#404040" d="M185.91,-314.48C181.11,-289.44 173.41,-251.54 165,-219 164.44,-216.85 163.87,-214.67 163.29,-212.49"/>
<polygon fill="none" stroke="#404040" points="163.23,-212.26 157.79,-207.53 160.07,-200.69 165.51,-205.42 163.23,-212.26"/>
<text text-anchor="start" x="182" y="-288" font-family="Helvetica,sans-Serif" font-size="10.00"> &#45;command_or_response</text>
<text text-anchor="middle" x="242.5" y="-277" font-family="Helvetica,sans-Serif" font-size="10.00">_</text>
<text text-anchor="start" x="182" y="-266" font-family="Helvetica,sans-Serif" font-size="10.00">&#45;is_last_address</text>
<text text-anchor="middle" x="242.5" y="-255" font-family="Helvetica,sans-Serif" font-size="10.00">_</text>
<text text-anchor="start" x="182" y="-244" font-family="Helvetica,sans-Serif" font-size="10.00">&#45;reserve_bit</text>
<text text-anchor="middle" x="242.5" y="-233" font-family="Helvetica,sans-Serif" font-size="10.00">_1_</text>
<text text-anchor="middle" x="242.5" y="-222" font-family="Helvetica,sans-Serif" font-size="10.00">&#45;reserve_bit_2_</text>
</g>
</g>
</svg>
