<?xml version="1.0" encoding="UTF-8" standalone="no"?>
<!DOCTYPE svg PUBLIC "-//W3C//DTD SVG 1.1//EN"
 "http://www.w3.org/Graphics/SVG/1.1/DTD/svg11.dtd">
<!-- Generated by graphviz version 2.43.0 (0)
 -->
<!-- Title: signal_easel::aprs::telemetry::TelemetryTranscoder::decodeBitSenseMessage Pages: 1 -->
<svg width="398pt" height="170pt"
 viewBox="0.00 0.00 398.00 170.00" xmlns="http://www.w3.org/2000/svg" xmlns:xlink="http://www.w3.org/1999/xlink">
<g id="graph0" class="graph" transform="scale(1 1) rotate(0) translate(4 166)">
<title>signal_easel::aprs::telemetry::TelemetryTranscoder::decodeBitSenseMessage</title>
<!-- Node1 -->
<g id="node1" class="node">
<title>Node1</title>
<g id="a_node1"><a xlink:title="Decode the bit sense / project name message.">
<polygon fill="#bfbfbf" stroke="black" points="0,-60.5 0,-101.5 177,-101.5 177,-60.5 0,-60.5"/>
<text text-anchor="start" x="8" y="-89.5" font-family="Helvetica,sans-Serif" font-size="10.00">signal_easel::aprs</text>
<text text-anchor="start" x="8" y="-78.5" font-family="Helvetica,sans-Serif" font-size="10.00">::telemetry::TelemetryTranscoder</text>
<text text-anchor="middle" x="88.5" y="-67.5" font-family="Helvetica,sans-Serif" font-size="10.00">::decodeBitSenseMessage</text>
</a>
</g>
</g>
<!-- Node2 -->
<g id="node2" class="node">
<title>Node2</title>
<g id="a_node2"><a xlink:href="classsignal__easel_1_1aprs_1_1telemetry_1_1TelemetryTranscoder.html#a23b19f60f731079282eb88c5ab433579" target="_top" xlink:title="Validate the first few bytes of a message.">
<polygon fill="none" stroke="black" points="213,-120.5 213,-161.5 390,-161.5 390,-120.5 213,-120.5"/>
<text text-anchor="start" x="221" y="-149.5" font-family="Helvetica,sans-Serif" font-size="10.00">signal_easel::aprs</text>
<text text-anchor="start" x="221" y="-138.5" font-family="Helvetica,sans-Serif" font-size="10.00">::telemetry::TelemetryTranscoder</text>
<text text-anchor="middle" x="301.5" y="-127.5" font-family="Helvetica,sans-Serif" font-size="10.00">::decodeValidateHeader</text>
</a>
</g>
</g>
<!-- Node1&#45;&gt;Node2 -->
<g id="edge1" class="edge">
<title>Node1&#45;&gt;Node2</title>
<path fill="none" stroke="midnightblue" d="M161.82,-101.56C180.11,-106.76 199.87,-112.39 218.59,-117.71"/>
<polygon fill="midnightblue" stroke="midnightblue" points="217.7,-121.09 228.28,-120.46 219.61,-114.36 217.7,-121.09"/>
</g>
<!-- Node3 -->
<g id="node3" class="node">
<title>Node3</title>
<g id="a_node3"><a xlink:href="classsignal__easel_1_1aprs_1_1telemetry_1_1TelemetryData.html#afeb4d3aa91fc5deb8123589daccd87ea" target="_top" xlink:title=" ">
<polygon fill="none" stroke="black" points="227.5,-60.5 227.5,-101.5 375.5,-101.5 375.5,-60.5 227.5,-60.5"/>
<text text-anchor="start" x="235.5" y="-89.5" font-family="Helvetica,sans-Serif" font-size="10.00">signal_easel::aprs</text>
<text text-anchor="start" x="235.5" y="-78.5" font-family="Helvetica,sans-Serif" font-size="10.00">::telemetry::TelemetryData</text>
<text text-anchor="middle" x="301.5" y="-67.5" font-family="Helvetica,sans-Serif" font-size="10.00">::getDigitalParameters</text>
</a>
</g>
</g>
<!-- Node1&#45;&gt;Node3 -->
<g id="edge2" class="edge">
<title>Node1&#45;&gt;Node3</title>
<path fill="none" stroke="midnightblue" d="M177.15,-81C190.28,-81 203.8,-81 216.84,-81"/>
<polygon fill="midnightblue" stroke="midnightblue" points="217.19,-84.5 227.19,-81 217.19,-77.5 217.19,-84.5"/>
</g>
<!-- Node4 -->
<g id="node4" class="node">
<title>Node4</title>
<g id="a_node4"><a xlink:href="classsignal__easel_1_1aprs_1_1telemetry_1_1TelemetryData.html#a275ba1315153f5513e61ef640562530b" target="_top" xlink:title="Set the project title. Must be less than 23 characters. If the project title is too long,...">
<polygon fill="none" stroke="black" points="227.5,-0.5 227.5,-41.5 375.5,-41.5 375.5,-0.5 227.5,-0.5"/>
<text text-anchor="start" x="235.5" y="-29.5" font-family="Helvetica,sans-Serif" font-size="10.00">signal_easel::aprs</text>
<text text-anchor="start" x="235.5" y="-18.5" font-family="Helvetica,sans-Serif" font-size="10.00">::telemetry::TelemetryData</text>
<text text-anchor="middle" x="301.5" y="-7.5" font-family="Helvetica,sans-Serif" font-size="10.00">::setProjectTitle</text>
</a>
</g>
</g>
<!-- Node1&#45;&gt;Node4 -->
<g id="edge3" class="edge">
<title>Node1&#45;&gt;Node4</title>
<path fill="none" stroke="midnightblue" d="M161.82,-60.44C180.11,-55.24 199.87,-49.61 218.59,-44.29"/>
<polygon fill="midnightblue" stroke="midnightblue" points="219.61,-47.64 228.28,-41.54 217.7,-40.91 219.61,-47.64"/>
</g>
</g>
</svg>
