<?xml version="1.0" encoding="UTF-8" standalone="no"?>
<!DOCTYPE svg PUBLIC "-//W3C//DTD SVG 1.1//EN"
 "http://www.w3.org/Graphics/SVG/1.1/DTD/svg11.dtd">
<!-- Generated by graphviz version 2.43.0 (0)
 -->
<!-- Title: signal_easel::Modulator::addAudioSample Pages: 1 -->
<svg width="1129pt" height="259pt"
 viewBox="0.00 0.00 1129.00 259.00" xmlns="http://www.w3.org/2000/svg" xmlns:xlink="http://www.w3.org/1999/xlink">
<g id="graph0" class="graph" transform="scale(1 1) rotate(0) translate(4 255)">
<title>signal_easel::Modulator::addAudioSample</title>
<!-- Node1 -->
<g id="node1" class="node">
<title>Node1</title>
<g id="a_node1"><a xlink:title="Add a PCM sample to the audio buffer.">
<polygon fill="#bfbfbf" stroke="black" points="988,-98.5 988,-128.5 1121,-128.5 1121,-98.5 988,-98.5"/>
<text text-anchor="start" x="996" y="-116.5" font-family="Helvetica,sans-Serif" font-size="10.00">signal_easel::Modulator</text>
<text text-anchor="middle" x="1054.5" y="-105.5" font-family="Helvetica,sans-Serif" font-size="10.00">::addAudioSample</text>
</a>
</g>
</g>
<!-- Node2 -->
<g id="node2" class="node">
<title>Node2</title>
<g id="a_node2"><a xlink:href="classsignal__easel_1_1Modulator.html#a83877b4de0ae12992f62c09cf876da04" target="_top" xlink:title="Add silence to the audio buffer.">
<polygon fill="none" stroke="black" points="815,-169.5 815,-199.5 948,-199.5 948,-169.5 815,-169.5"/>
<text text-anchor="start" x="823" y="-187.5" font-family="Helvetica,sans-Serif" font-size="10.00">signal_easel::Modulator</text>
<text text-anchor="middle" x="881.5" y="-176.5" font-family="Helvetica,sans-Serif" font-size="10.00">::addSilence</text>
</a>
</g>
</g>
<!-- Node1&#45;&gt;Node2 -->
<g id="edge1" class="edge">
<title>Node1&#45;&gt;Node2</title>
<path fill="none" stroke="midnightblue" d="M1007.7,-132.52C979.8,-144.1 944.66,-158.69 918.71,-169.46"/>
<polygon fill="midnightblue" stroke="midnightblue" points="1009.34,-135.62 1017.24,-128.56 1006.66,-129.16 1009.34,-135.62"/>
</g>
<!-- Node8 -->
<g id="node8" class="node">
<title>Node8</title>
<g id="a_node8"><a xlink:href="classsignal__easel_1_1Modulator.html#a0fcce44b034c83731048ca17dc985f04" target="_top" xlink:title="Add a sine wave to the audio buffer.">
<polygon fill="none" stroke="black" points="815,-98.5 815,-128.5 948,-128.5 948,-98.5 815,-98.5"/>
<text text-anchor="start" x="823" y="-116.5" font-family="Helvetica,sans-Serif" font-size="10.00">signal_easel::Modulator</text>
<text text-anchor="middle" x="881.5" y="-105.5" font-family="Helvetica,sans-Serif" font-size="10.00">::addSineWave</text>
</a>
</g>
</g>
<!-- Node1&#45;&gt;Node8 -->
<g id="edge9" class="edge">
<title>Node1&#45;&gt;Node8</title>
<path fill="none" stroke="midnightblue" d="M977.72,-113.5C967.88,-113.5 957.88,-113.5 948.23,-113.5"/>
<polygon fill="midnightblue" stroke="midnightblue" points="977.88,-117 987.88,-113.5 977.88,-110 977.88,-117"/>
</g>
<!-- Node16 -->
<g id="node16" class="node">
<title>Node16</title>
<g id="a_node16"><a xlink:href="classsignal__easel_1_1afsk_1_1Modulator.html#a8e377665e5432ebb66de359635aeeafb" target="_top" xlink:title="This is overridden by the child classes to encode the data that is passed in by addBytes and addStrin...">
<polygon fill="none" stroke="black" points="811,-25.5 811,-55.5 952,-55.5 952,-25.5 811,-25.5"/>
<text text-anchor="start" x="819" y="-43.5" font-family="Helvetica,sans-Serif" font-size="10.00">signal_easel::afsk</text>
<text text-anchor="middle" x="881.5" y="-32.5" font-family="Helvetica,sans-Serif" font-size="10.00">::Modulator::encodeBytes</text>
</a>
</g>
</g>
<!-- Node1&#45;&gt;Node16 -->
<g id="edge20" class="edge">
<title>Node1&#45;&gt;Node16</title>
<path fill="none" stroke="midnightblue" d="M1008.78,-94.41C980.42,-82.3 944.24,-66.86 917.89,-55.61"/>
<polygon fill="midnightblue" stroke="midnightblue" points="1007.5,-97.67 1018.07,-98.37 1010.25,-91.23 1007.5,-97.67"/>
</g>
<!-- Node3 -->
<g id="node3" class="node">
<title>Node3</title>
<g id="a_node3"><a xlink:href="classsignal__easel_1_1Modulator.html#a67263d2a46fdb510adb0b4211699bf26" target="_top" xlink:title="Add morse code to the output audio.">
<polygon fill="none" stroke="black" points="642,-147.5 642,-177.5 775,-177.5 775,-147.5 642,-147.5"/>
<text text-anchor="start" x="650" y="-165.5" font-family="Helvetica,sans-Serif" font-size="10.00">signal_easel::Modulator</text>
<text text-anchor="middle" x="708.5" y="-154.5" font-family="Helvetica,sans-Serif" font-size="10.00">::addMorseCode</text>
</a>
</g>
</g>
<!-- Node2&#45;&gt;Node3 -->
<g id="edge2" class="edge">
<title>Node2&#45;&gt;Node3</title>
<path fill="none" stroke="midnightblue" d="M804.72,-174.75C794.88,-173.49 784.88,-172.2 775.23,-170.96"/>
<polygon fill="midnightblue" stroke="midnightblue" points="804.51,-178.25 814.88,-176.06 805.4,-171.31 804.51,-178.25"/>
</g>
<!-- Node4 -->
<g id="node4" class="node">
<title>Node4</title>
<g id="a_node4"><a xlink:href="classsignal__easel_1_1Modulator.html#a39e52e97a95a761b73ba928f8a29e916" target="_top" xlink:title="Clears the audio buffer. Adds the call sign if it&#39;s in the before or before_and_after modes.">
<polygon fill="none" stroke="black" points="461,-220.5 461,-250.5 594,-250.5 594,-220.5 461,-220.5"/>
<text text-anchor="start" x="469" y="-238.5" font-family="Helvetica,sans-Serif" font-size="10.00">signal_easel::Modulator</text>
<text text-anchor="middle" x="527.5" y="-227.5" font-family="Helvetica,sans-Serif" font-size="10.00">::clearBuffer</text>
</a>
</g>
</g>
<!-- Node2&#45;&gt;Node4 -->
<g id="edge7" class="edge">
<title>Node2&#45;&gt;Node4</title>
<path fill="none" stroke="midnightblue" d="M804.99,-197.72C794.91,-199.39 784.71,-201.02 775,-202.5 713.85,-211.81 643.95,-221.03 594.24,-227.35"/>
<polygon fill="midnightblue" stroke="midnightblue" points="805.71,-201.15 815,-196.05 804.56,-194.25 805.71,-201.15"/>
</g>
<!-- Node6 -->
<g id="node6" class="node">
<title>Node6</title>
<g id="a_node6"><a xlink:href="classsignal__easel_1_1Modulator.html#a6ff0b49cd126afe576ac949476268f10" target="_top" xlink:title="Write the audio to a file.">
<polygon fill="none" stroke="black" points="461,-155.5 461,-185.5 594,-185.5 594,-155.5 461,-155.5"/>
<text text-anchor="start" x="469" y="-173.5" font-family="Helvetica,sans-Serif" font-size="10.00">signal_easel::Modulator</text>
<text text-anchor="middle" x="527.5" y="-162.5" font-family="Helvetica,sans-Serif" font-size="10.00">::writeToFile</text>
</a>
</g>
</g>
<!-- Node2&#45;&gt;Node6 -->
<g id="edge8" class="edge">
<title>Node2&#45;&gt;Node6</title>
<path fill="none" stroke="midnightblue" d="M804.94,-186.91C794.87,-187.15 784.69,-187.36 775,-187.5 715.89,-188.34 700.95,-191.89 642,-187.5 626.4,-186.34 609.7,-184.29 594.03,-182.01"/>
<polygon fill="midnightblue" stroke="midnightblue" points="805.04,-190.41 814.94,-186.65 804.86,-183.41 805.04,-190.41"/>
</g>
<!-- Node3&#45;&gt;Node4 -->
<g id="edge3" class="edge">
<title>Node3&#45;&gt;Node4</title>
<path fill="none" stroke="midnightblue" d="M661.07,-181.43C631.33,-193.56 593.25,-209.09 565.54,-220.39"/>
<polygon fill="midnightblue" stroke="midnightblue" points="662.47,-184.64 670.41,-177.63 659.83,-178.16 662.47,-184.64"/>
</g>
<!-- Node3&#45;&gt;Node6 -->
<g id="edge5" class="edge">
<title>Node3&#45;&gt;Node6</title>
<path fill="none" stroke="midnightblue" d="M631.52,-165.9C619.08,-166.45 606.29,-167.02 594.13,-167.57"/>
<polygon fill="midnightblue" stroke="midnightblue" points="632.03,-169.38 641.86,-165.43 631.72,-162.38 632.03,-169.38"/>
</g>
<!-- Node5 -->
<g id="node5" class="node">
<title>Node5</title>
<g id="a_node5"><a xlink:href="classsignal__easel_1_1Modulator.html#aacf988cd7965d448b2da697911c76faf" target="_top" xlink:title="Constructor for the base modulator class.">
<polygon fill="none" stroke="black" points="268.5,-220.5 268.5,-250.5 401.5,-250.5 401.5,-220.5 268.5,-220.5"/>
<text text-anchor="start" x="276.5" y="-238.5" font-family="Helvetica,sans-Serif" font-size="10.00">signal_easel::Modulator</text>
<text text-anchor="middle" x="335" y="-227.5" font-family="Helvetica,sans-Serif" font-size="10.00">::Modulator</text>
</a>
</g>
</g>
<!-- Node4&#45;&gt;Node5 -->
<g id="edge4" class="edge">
<title>Node4&#45;&gt;Node5</title>
<path fill="none" stroke="midnightblue" d="M450.92,-235.5C434.64,-235.5 417.55,-235.5 401.68,-235.5"/>
<polygon fill="midnightblue" stroke="midnightblue" points="450.94,-239 460.94,-235.5 450.94,-232 450.94,-239"/>
</g>
<!-- Node7 -->
<g id="node7" class="node">
<title>Node7</title>
<g id="a_node7"><a xlink:href="afsk__test_8cpp.html#a894b615862c352aa932a7ff5fb85c6dd" target="_top" xlink:title="Encodes a string into an AFSK1200 signal/WAV file and then decodes it.">
<polygon fill="none" stroke="black" points="314.5,-161 314.5,-180 355.5,-180 355.5,-161 314.5,-161"/>
<text text-anchor="middle" x="335" y="-168" font-family="Helvetica,sans-Serif" font-size="10.00">TEST</text>
</a>
</g>
</g>
<!-- Node6&#45;&gt;Node7 -->
<g id="edge6" class="edge">
<title>Node6&#45;&gt;Node7</title>
<path fill="none" stroke="midnightblue" d="M450.82,-170.5C416.22,-170.5 378.03,-170.5 355.57,-170.5"/>
<polygon fill="midnightblue" stroke="midnightblue" points="450.94,-174 460.94,-170.5 450.94,-167 450.94,-174"/>
</g>
<!-- Node8&#45;&gt;Node3 -->
<g id="edge10" class="edge">
<title>Node8&#45;&gt;Node3</title>
<path fill="none" stroke="midnightblue" d="M818.05,-131.39C799.66,-136.66 779.73,-142.38 762.03,-147.45"/>
<polygon fill="midnightblue" stroke="midnightblue" points="819.15,-134.72 827.8,-128.6 817.22,-127.99 819.15,-134.72"/>
</g>
<!-- Node9 -->
<g id="node9" class="node">
<title>Node9</title>
<g id="a_node9"><a xlink:href="classsignal__easel_1_1sstv_1_1Modulator.html#a4925712af983bce311224cd51c4b9409" target="_top" xlink:title=" ">
<polygon fill="none" stroke="black" points="656.5,-98.5 656.5,-128.5 760.5,-128.5 760.5,-98.5 656.5,-98.5"/>
<text text-anchor="start" x="664.5" y="-116.5" font-family="Helvetica,sans-Serif" font-size="10.00">signal_easel::sstv</text>
<text text-anchor="middle" x="708.5" y="-105.5" font-family="Helvetica,sans-Serif" font-size="10.00">::Modulator::pulse</text>
</a>
</g>
</g>
<!-- Node8&#45;&gt;Node9 -->
<g id="edge11" class="edge">
<title>Node8&#45;&gt;Node9</title>
<path fill="none" stroke="midnightblue" d="M804.65,-113.5C789.75,-113.5 774.46,-113.5 760.61,-113.5"/>
<polygon fill="midnightblue" stroke="midnightblue" points="804.88,-117 814.88,-113.5 804.88,-110 804.88,-117"/>
</g>
<!-- Node15 -->
<g id="node15" class="node">
<title>Node15</title>
<g id="a_node15"><a xlink:href="classsignal__easel_1_1sstv_1_1Modulator.html#ac6c7141bc8b18abd7e08d8c201aadfb2" target="_top" xlink:title=" ">
<polygon fill="none" stroke="black" points="642.5,-49.5 642.5,-79.5 774.5,-79.5 774.5,-49.5 642.5,-49.5"/>
<text text-anchor="start" x="650.5" y="-67.5" font-family="Helvetica,sans-Serif" font-size="10.00">signal_easel::sstv</text>
<text text-anchor="middle" x="708.5" y="-56.5" font-family="Helvetica,sans-Serif" font-size="10.00">::Modulator::writeBuffer</text>
</a>
</g>
</g>
<!-- Node8&#45;&gt;Node15 -->
<g id="edge18" class="edge">
<title>Node8&#45;&gt;Node15</title>
<path fill="none" stroke="midnightblue" d="M818.05,-95.61C799.66,-90.34 779.73,-84.62 762.03,-79.55"/>
<polygon fill="midnightblue" stroke="midnightblue" points="817.22,-99.01 827.8,-98.4 819.15,-92.28 817.22,-99.01"/>
</g>
<!-- Node10 -->
<g id="node10" class="node">
<title>Node10</title>
<g id="a_node10"><a xlink:href="classsignal__easel_1_1sstv_1_1Modulator.html#a9e6343e922e5d6dd312d16c0781b28c4" target="_top" xlink:title=" ">
<polygon fill="none" stroke="black" points="263.5,-103.5 263.5,-133.5 406.5,-133.5 406.5,-103.5 263.5,-103.5"/>
<text text-anchor="start" x="271.5" y="-121.5" font-family="Helvetica,sans-Serif" font-size="10.00">signal_easel::sstv</text>
<text text-anchor="middle" x="335" y="-110.5" font-family="Helvetica,sans-Serif" font-size="10.00">::Modulator::addPreamble</text>
</a>
</g>
</g>
<!-- Node9&#45;&gt;Node10 -->
<g id="edge12" class="edge">
<title>Node9&#45;&gt;Node10</title>
<path fill="none" stroke="midnightblue" d="M646.01,-114.33C580.19,-115.21 475.9,-116.62 406.73,-117.55"/>
<polygon fill="midnightblue" stroke="midnightblue" points="646.28,-117.82 656.23,-114.19 646.19,-110.82 646.28,-117.82"/>
</g>
<!-- Node13 -->
<g id="node13" class="node">
<title>Node13</title>
<g id="a_node13"><a xlink:href="classsignal__easel_1_1sstv_1_1Modulator.html#acf3f661e744b92527504daff37dc8505" target="_top" xlink:title=" ">
<polygon fill="none" stroke="black" points="449,-49.5 449,-79.5 606,-79.5 606,-49.5 449,-49.5"/>
<text text-anchor="start" x="457" y="-67.5" font-family="Helvetica,sans-Serif" font-size="10.00">signal_easel::sstv</text>
<text text-anchor="middle" x="527.5" y="-56.5" font-family="Helvetica,sans-Serif" font-size="10.00">::Modulator::encodeScanLine</text>
</a>
</g>
</g>
<!-- Node9&#45;&gt;Node13 -->
<g id="edge15" class="edge">
<title>Node9&#45;&gt;Node13</title>
<path fill="none" stroke="midnightblue" d="M646.4,-96.77C626.02,-91.2 603.45,-85.02 583.56,-79.57"/>
<polygon fill="midnightblue" stroke="midnightblue" points="645.64,-100.19 656.21,-99.46 647.48,-93.44 645.64,-100.19"/>
</g>
<!-- Node11 -->
<g id="node11" class="node">
<title>Node11</title>
<g id="a_node11"><a xlink:href="classsignal__easel_1_1sstv_1_1Modulator.html#a6598802f6a659efde056f846d7eb9d2c" target="_top" xlink:title="Encodes an image into SSTV audio.">
<polygon fill="none" stroke="black" points="77,-75.5 77,-105.5 221,-105.5 221,-75.5 77,-75.5"/>
<text text-anchor="start" x="85" y="-93.5" font-family="Helvetica,sans-Serif" font-size="10.00">signal_easel::sstv</text>
<text text-anchor="middle" x="149" y="-82.5" font-family="Helvetica,sans-Serif" font-size="10.00">::Modulator::encodeImage</text>
</a>
</g>
</g>
<!-- Node10&#45;&gt;Node11 -->
<g id="edge13" class="edge">
<title>Node10&#45;&gt;Node11</title>
<path fill="none" stroke="midnightblue" d="M253.2,-106.2C242.48,-104.57 231.56,-102.91 221.03,-101.31"/>
<polygon fill="midnightblue" stroke="midnightblue" points="252.97,-109.71 263.39,-107.75 254.03,-102.79 252.97,-109.71"/>
</g>
<!-- Node12 -->
<g id="node12" class="node">
<title>Node12</title>
<g id="a_node12"><a xlink:href="sstv__test_8cpp.html#a81c59728812e528beb650e55bb38fd4b" target="_top" xlink:title=" ">
<polygon fill="none" stroke="black" points="0,-81 0,-100 41,-100 41,-81 0,-81"/>
<text text-anchor="middle" x="20.5" y="-88" font-family="Helvetica,sans-Serif" font-size="10.00">TEST</text>
</a>
</g>
</g>
<!-- Node11&#45;&gt;Node12 -->
<g id="edge14" class="edge">
<title>Node11&#45;&gt;Node12</title>
<path fill="none" stroke="midnightblue" d="M66.92,-90.5C57.43,-90.5 48.52,-90.5 41.15,-90.5"/>
<polygon fill="midnightblue" stroke="midnightblue" points="66.98,-94 76.98,-90.5 66.98,-87 66.98,-94"/>
</g>
<!-- Node14 -->
<g id="node14" class="node">
<title>Node14</title>
<g id="a_node14"><a xlink:href="classsignal__easel_1_1sstv_1_1Modulator.html#a5db5191f0447cc4b34fff09fc35c7ffe" target="_top" xlink:title=" ">
<polygon fill="none" stroke="black" points="257,-43 257,-84 413,-84 413,-43 257,-43"/>
<text text-anchor="start" x="265" y="-72" font-family="Helvetica,sans-Serif" font-size="10.00">signal_easel::sstv</text>
<text text-anchor="start" x="265" y="-61" font-family="Helvetica,sans-Serif" font-size="10.00">::Modulator::encodeAdjusted</text>
<text text-anchor="middle" x="335" y="-50" font-family="Helvetica,sans-Serif" font-size="10.00">Image</text>
</a>
</g>
</g>
<!-- Node13&#45;&gt;Node14 -->
<g id="edge16" class="edge">
<title>Node13&#45;&gt;Node14</title>
<path fill="none" stroke="midnightblue" d="M438.5,-64.04C430.05,-63.99 421.53,-63.95 413.2,-63.91"/>
<polygon fill="midnightblue" stroke="midnightblue" points="438.72,-67.54 448.74,-64.09 438.76,-60.54 438.72,-67.54"/>
</g>
<!-- Node14&#45;&gt;Node11 -->
<g id="edge17" class="edge">
<title>Node14&#45;&gt;Node11</title>
<path fill="none" stroke="midnightblue" d="M246.75,-76.3C238.18,-77.56 229.55,-78.83 221.17,-80.06"/>
<polygon fill="midnightblue" stroke="midnightblue" points="247.38,-79.75 256.77,-74.83 246.36,-72.82 247.38,-79.75"/>
</g>
<!-- Node15&#45;&gt;Node13 -->
<g id="edge19" class="edge">
<title>Node15&#45;&gt;Node13</title>
<path fill="none" stroke="midnightblue" d="M632.29,-64.5C623.62,-64.5 614.76,-64.5 606.06,-64.5"/>
<polygon fill="midnightblue" stroke="midnightblue" points="632.37,-68 642.37,-64.5 632.37,-61 632.37,-68"/>
</g>
<!-- Node17 -->
<g id="node17" class="node">
<title>Node17</title>
<g id="a_node17"><a xlink:href="classsignal__easel_1_1aprs_1_1Modulator.html#a8ae067701382dec1680b786583ace687" target="_top" xlink:title=" ">
<polygon fill="none" stroke="black" points="652,-0.5 652,-30.5 765,-30.5 765,-0.5 652,-0.5"/>
<text text-anchor="start" x="660" y="-18.5" font-family="Helvetica,sans-Serif" font-size="10.00">signal_easel::aprs</text>
<text text-anchor="middle" x="708.5" y="-7.5" font-family="Helvetica,sans-Serif" font-size="10.00">::Modulator::encode</text>
</a>
</g>
</g>
<!-- Node16&#45;&gt;Node17 -->
<g id="edge21" class="edge">
<title>Node16&#45;&gt;Node17</title>
<path fill="none" stroke="midnightblue" d="M800.86,-28.86C788.77,-27.09 776.53,-25.3 765.11,-23.63"/>
<polygon fill="midnightblue" stroke="midnightblue" points="800.55,-32.35 810.95,-30.33 801.56,-25.42 800.55,-32.35"/>
</g>
<!-- Node18 -->
<g id="node18" class="node">
<title>Node18</title>
<g id="a_node18"><a xlink:href="aprs__test_8cpp.html#aea66d1824e3f1e27598adf99ac6a089a" target="_top" xlink:title=" ">
<polygon fill="none" stroke="black" points="507,-6 507,-25 548,-25 548,-6 507,-6"/>
<text text-anchor="middle" x="527.5" y="-13" font-family="Helvetica,sans-Serif" font-size="10.00">TEST</text>
</a>
</g>
</g>
<!-- Node17&#45;&gt;Node18 -->
<g id="edge22" class="edge">
<title>Node17&#45;&gt;Node18</title>
<path fill="none" stroke="midnightblue" d="M641.72,-15.5C608.54,-15.5 570.67,-15.5 548.22,-15.5"/>
<polygon fill="midnightblue" stroke="midnightblue" points="641.84,-19 651.84,-15.5 641.84,-12 641.84,-19"/>
</g>
</g>
</svg>
