<?xml version="1.0" encoding="UTF-8" standalone="no"?>
<!DOCTYPE svg PUBLIC "-//W3C//DTD SVG 1.1//EN"
 "http://www.w3.org/Graphics/SVG/1.1/DTD/svg11.dtd">
<!-- Generated by graphviz version 2.43.0 (0)
 -->
<!-- Title: signal_easel::aprs::telemetry::AnalogParameter Pages: 1 -->
<svg width="447pt" height="584pt"
 viewBox="0.00 0.00 446.50 584.00" xmlns="http://www.w3.org/2000/svg" xmlns:xlink="http://www.w3.org/1999/xlink">
<g id="graph0" class="graph" transform="scale(1 1) rotate(0) translate(4 580)">
<title>signal_easel::aprs::telemetry::AnalogParameter</title>
<!-- Node1 -->
<g id="node1" class="node">
<title>Node1</title>
<g id="a_node1"><a xlink:title=" ">
<polygon fill="#bfbfbf" stroke="black" points="192.5,-0.5 192.5,-222.5 352.5,-222.5 352.5,-0.5 192.5,-0.5"/>
<text text-anchor="start" x="200.5" y="-210.5" font-family="Helvetica,sans-Serif" font-size="10.00">signal_easel::aprs</text>
<text text-anchor="middle" x="272.5" y="-199.5" font-family="Helvetica,sans-Serif" font-size="10.00">::telemetry::AnalogParameter</text>
<polyline fill="none" stroke="black" points="192.5,-192.5 352.5,-192.5 "/>
<text text-anchor="middle" x="272.5" y="-180.5" font-family="Helvetica,sans-Serif" font-size="10.00"> </text>
<polyline fill="none" stroke="black" points="192.5,-173.5 352.5,-173.5 "/>
<text text-anchor="start" x="200.5" y="-161.5" font-family="Helvetica,sans-Serif" font-size="10.00">+ AnalogParameter()</text>
<text text-anchor="start" x="200.5" y="-150.5" font-family="Helvetica,sans-Serif" font-size="10.00">+ getCalculatedValue()</text>
<text text-anchor="start" x="200.5" y="-139.5" font-family="Helvetica,sans-Serif" font-size="10.00">+ getCoefficientA()</text>
<text text-anchor="start" x="200.5" y="-128.5" font-family="Helvetica,sans-Serif" font-size="10.00">+ getCoefficientAd()</text>
<text text-anchor="start" x="200.5" y="-117.5" font-family="Helvetica,sans-Serif" font-size="10.00">+ getCoefficientB()</text>
<text text-anchor="start" x="200.5" y="-106.5" font-family="Helvetica,sans-Serif" font-size="10.00">+ getCoefficientBd()</text>
<text text-anchor="start" x="200.5" y="-95.5" font-family="Helvetica,sans-Serif" font-size="10.00">+ getCoefficientC()</text>
<text text-anchor="start" x="200.5" y="-84.5" font-family="Helvetica,sans-Serif" font-size="10.00">+ getCoefficientCd()</text>
<text text-anchor="start" x="200.5" y="-73.5" font-family="Helvetica,sans-Serif" font-size="10.00">+ getCoefficients()</text>
<text text-anchor="start" x="200.5" y="-62.5" font-family="Helvetica,sans-Serif" font-size="10.00">+ getValue()</text>
<text text-anchor="start" x="200.5" y="-51.5" font-family="Helvetica,sans-Serif" font-size="10.00">+ setCoefficientA()</text>
<text text-anchor="start" x="200.5" y="-40.5" font-family="Helvetica,sans-Serif" font-size="10.00">+ setCoefficientB()</text>
<text text-anchor="start" x="200.5" y="-29.5" font-family="Helvetica,sans-Serif" font-size="10.00">+ setCoefficientC()</text>
<text text-anchor="start" x="200.5" y="-18.5" font-family="Helvetica,sans-Serif" font-size="10.00">+ setCoefficients()</text>
<text text-anchor="start" x="200.5" y="-7.5" font-family="Helvetica,sans-Serif" font-size="10.00">+ setRawValue()</text>
</a>
</g>
</g>
<!-- Node2 -->
<g id="node2" class="node">
<title>Node2</title>
<g id="a_node2"><a xlink:href="classsignal__easel_1_1aprs_1_1telemetry_1_1Parameter.html" target="_top" xlink:title="A representation of APRS telemetry parameters.">
<polygon fill="none" stroke="black" points="0,-292.5 0,-459.5 171,-459.5 171,-292.5 0,-292.5"/>
<text text-anchor="start" x="8" y="-447.5" font-family="Helvetica,sans-Serif" font-size="10.00">signal_easel::aprs</text>
<text text-anchor="middle" x="85.5" y="-436.5" font-family="Helvetica,sans-Serif" font-size="10.00">::telemetry::Parameter</text>
<polyline fill="none" stroke="black" points="0,-429.5 171,-429.5 "/>
<text text-anchor="middle" x="85.5" y="-417.5" font-family="Helvetica,sans-Serif" font-size="10.00"> </text>
<polyline fill="none" stroke="black" points="0,-410.5 171,-410.5 "/>
<text text-anchor="start" x="8" y="-398.5" font-family="Helvetica,sans-Serif" font-size="10.00">+ Parameter()</text>
<text text-anchor="start" x="8" y="-387.5" font-family="Helvetica,sans-Serif" font-size="10.00">+ ~Parameter()</text>
<text text-anchor="start" x="8" y="-376.5" font-family="Helvetica,sans-Serif" font-size="10.00">+ getId()</text>
<text text-anchor="start" x="8" y="-365.5" font-family="Helvetica,sans-Serif" font-size="10.00">+ getLabel()</text>
<text text-anchor="start" x="8" y="-354.5" font-family="Helvetica,sans-Serif" font-size="10.00">+ getName()</text>
<text text-anchor="start" x="8" y="-343.5" font-family="Helvetica,sans-Serif" font-size="10.00">+ getType()</text>
<text text-anchor="start" x="8" y="-332.5" font-family="Helvetica,sans-Serif" font-size="10.00">+ setName()</text>
<text text-anchor="start" x="8" y="-321.5" font-family="Helvetica,sans-Serif" font-size="10.00">+ setUnitOrLabel()</text>
<text text-anchor="start" x="8" y="-310.5" font-family="Helvetica,sans-Serif" font-size="10.00">+ getType()</text>
<text text-anchor="start" x="8" y="-299.5" font-family="Helvetica,sans-Serif" font-size="10.00">&#45; validateParameterDescriptor()</text>
</a>
</g>
</g>
<!-- Node2&#45;&gt;Node1 -->
<g id="edge1" class="edge">
<title>Node2&#45;&gt;Node1</title>
<path fill="none" stroke="midnightblue" d="M150.38,-283.93C164.45,-264.17 179.48,-243.07 194.02,-222.67"/>
<polygon fill="none" stroke="midnightblue" points="147.36,-282.13 144.41,-292.3 153.06,-286.19 147.36,-282.13"/>
</g>
<!-- Node3 -->
<g id="node3" class="node">
<title>Node3</title>
<g id="a_node3"><a xlink:title=" ">
<polygon fill="none" stroke="black" points="7,-518.5 7,-575.5 36,-575.5 36,-518.5 7,-518.5"/>
<text text-anchor="middle" x="21.5" y="-563.5" font-family="Helvetica,sans-Serif" font-size="10.00">Id</text>
<polyline fill="none" stroke="black" points="7,-556.5 36,-556.5 "/>
<text text-anchor="middle" x="21.5" y="-544.5" font-family="Helvetica,sans-Serif" font-size="10.00"> </text>
<polyline fill="none" stroke="black" points="7,-537.5 36,-537.5 "/>
<text text-anchor="middle" x="21.5" y="-525.5" font-family="Helvetica,sans-Serif" font-size="10.00"> </text>
</a>
</g>
</g>
<!-- Node3&#45;&gt;Node2 -->
<g id="edge2" class="edge">
<title>Node3&#45;&gt;Node2</title>
<path fill="none" stroke="#404040" d="M31.93,-518.47C36.95,-505.2 43.31,-488.41 49.87,-471.08"/>
<polygon fill="none" stroke="#404040" points="49.95,-470.87 48.33,-463.84 54.2,-459.65 55.82,-466.68 49.95,-470.87"/>
<text text-anchor="middle" x="57.5" y="-486.5" font-family="Helvetica,sans-Serif" font-size="10.00"> &#45;id_</text>
</g>
<!-- Node4 -->
<g id="node4" class="node">
<title>Node4</title>
<g id="a_node4"><a xlink:title=" ">
<polygon fill="none" stroke="black" points="54,-518.5 54,-575.5 93,-575.5 93,-518.5 54,-518.5"/>
<text text-anchor="middle" x="73.5" y="-563.5" font-family="Helvetica,sans-Serif" font-size="10.00">Type</text>
<polyline fill="none" stroke="black" points="54,-556.5 93,-556.5 "/>
<text text-anchor="middle" x="73.5" y="-544.5" font-family="Helvetica,sans-Serif" font-size="10.00"> </text>
<polyline fill="none" stroke="black" points="54,-537.5 93,-537.5 "/>
<text text-anchor="middle" x="73.5" y="-525.5" font-family="Helvetica,sans-Serif" font-size="10.00"> </text>
</a>
</g>
</g>
<!-- Node4&#45;&gt;Node2 -->
<g id="edge3" class="edge">
<title>Node4&#45;&gt;Node2</title>
<path fill="none" stroke="#404040" d="M73.32,-518.19C73.39,-505.86 73.69,-491.2 74.5,-478 74.63,-475.94 74.77,-473.86 74.91,-471.77"/>
<polygon fill="none" stroke="#404040" points="74.93,-471.59 71.41,-465.29 75.86,-459.62 79.38,-465.92 74.93,-471.59"/>
<text text-anchor="middle" x="91.5" y="-486.5" font-family="Helvetica,sans-Serif" font-size="10.00"> &#45;type_</text>
</g>
<!-- Node5 -->
<g id="node5" class="node">
<title>Node5</title>
<g id="a_node5"><a xlink:title=" ">
<polygon fill="none" stroke="black" points="153.5,-518.5 153.5,-575.5 197.5,-575.5 197.5,-518.5 153.5,-518.5"/>
<text text-anchor="middle" x="175.5" y="-563.5" font-family="Helvetica,sans-Serif" font-size="10.00">string</text>
<polyline fill="none" stroke="black" points="153.5,-556.5 197.5,-556.5 "/>
<text text-anchor="middle" x="175.5" y="-544.5" font-family="Helvetica,sans-Serif" font-size="10.00"> </text>
<polyline fill="none" stroke="black" points="153.5,-537.5 197.5,-537.5 "/>
<text text-anchor="middle" x="175.5" y="-525.5" font-family="Helvetica,sans-Serif" font-size="10.00"> </text>
</a>
</g>
</g>
<!-- Node5&#45;&gt;Node1 -->
<g id="edge6" class="edge">
<title>Node5&#45;&gt;Node1</title>
<path fill="none" stroke="#404040" d="M195.73,-518.32C199.16,-512.5 202.32,-506.24 204.5,-500 235.19,-412.2 211.04,-383.54 227.5,-292 230.87,-273.28 235.08,-253.61 239.58,-234.44"/>
<polygon fill="none" stroke="#404040" points="239.62,-234.26 237.12,-227.49 242.4,-222.59 244.9,-229.35 239.62,-234.26"/>
<text text-anchor="middle" x="265" y="-384.5" font-family="Helvetica,sans-Serif" font-size="10.00"> &#45;coefficient_a_</text>
<text text-anchor="middle" x="265" y="-373.5" font-family="Helvetica,sans-Serif" font-size="10.00">&#45;coefficient_b_</text>
<text text-anchor="middle" x="265" y="-362.5" font-family="Helvetica,sans-Serif" font-size="10.00">&#45;coefficient_c_</text>
</g>
<!-- Node5&#45;&gt;Node2 -->
<g id="edge4" class="edge">
<title>Node5&#45;&gt;Node2</title>
<path fill="none" stroke="#404040" d="M153.39,-526.45C145.7,-518.79 137.49,-509.55 131.5,-500 125.76,-490.85 120.57,-480.88 115.92,-470.7"/>
<polygon fill="none" stroke="#404040" points="115.88,-470.6 109.81,-466.7 111.09,-459.6 117.15,-463.51 115.88,-470.6"/>
<text text-anchor="middle" x="168" y="-492" font-family="Helvetica,sans-Serif" font-size="10.00"> &#45;name_</text>
<text text-anchor="middle" x="168" y="-481" font-family="Helvetica,sans-Serif" font-size="10.00">&#45;unit_or_label_</text>
</g>
<!-- Node6 -->
<g id="node6" class="node">
<title>Node6</title>
<g id="a_node6"><a xlink:title=" ">
<polygon fill="none" stroke="black" points="311.5,-347.5 311.5,-404.5 361.5,-404.5 361.5,-347.5 311.5,-347.5"/>
<text text-anchor="middle" x="336.5" y="-392.5" font-family="Helvetica,sans-Serif" font-size="10.00">uint8_t</text>
<polyline fill="none" stroke="black" points="311.5,-385.5 361.5,-385.5 "/>
<text text-anchor="middle" x="336.5" y="-373.5" font-family="Helvetica,sans-Serif" font-size="10.00"> </text>
<polyline fill="none" stroke="black" points="311.5,-366.5 361.5,-366.5 "/>
<text text-anchor="middle" x="336.5" y="-354.5" font-family="Helvetica,sans-Serif" font-size="10.00"> </text>
</a>
</g>
</g>
<!-- Node6&#45;&gt;Node1 -->
<g id="edge5" class="edge">
<title>Node6&#45;&gt;Node1</title>
<path fill="none" stroke="#404040" d="M329.77,-347.4C323.14,-320.21 312.54,-276.72 302.25,-234.51"/>
<polygon fill="none" stroke="#404040" points="302.2,-234.31 296.89,-229.43 299.36,-222.66 304.66,-227.54 302.2,-234.31"/>
<text text-anchor="middle" x="341" y="-255" font-family="Helvetica,sans-Serif" font-size="10.00"> &#45;raw_value_</text>
</g>
<!-- Node7 -->
<g id="node7" class="node">
<title>Node7</title>
<g id="a_node7"><a xlink:title=" ">
<polygon fill="none" stroke="black" points="388.5,-347.5 388.5,-404.5 438.5,-404.5 438.5,-347.5 388.5,-347.5"/>
<text text-anchor="middle" x="413.5" y="-392.5" font-family="Helvetica,sans-Serif" font-size="10.00">double</text>
<polyline fill="none" stroke="black" points="388.5,-385.5 438.5,-385.5 "/>
<text text-anchor="middle" x="413.5" y="-373.5" font-family="Helvetica,sans-Serif" font-size="10.00"> </text>
<polyline fill="none" stroke="black" points="388.5,-366.5 438.5,-366.5 "/>
<text text-anchor="middle" x="413.5" y="-354.5" font-family="Helvetica,sans-Serif" font-size="10.00"> </text>
</a>
</g>
</g>
<!-- Node7&#45;&gt;Node1 -->
<g id="edge7" class="edge">
<title>Node7&#45;&gt;Node1</title>
<path fill="none" stroke="#404040" d="M409.29,-347.35C404.26,-319.37 394.21,-275.45 376.5,-241 371.54,-231.35 365.77,-221.74 359.55,-212.38"/>
<polygon fill="none" stroke="#404040" points="359.43,-212.21 352.73,-209.54 352.63,-202.33 359.32,-205 359.43,-212.21"/>
<text text-anchor="middle" x="399" y="-266" font-family="Helvetica,sans-Serif" font-size="10.00"> &#45;a_</text>
<text text-anchor="middle" x="399" y="-255" font-family="Helvetica,sans-Serif" font-size="10.00">&#45;b_</text>
<text text-anchor="middle" x="399" y="-244" font-family="Helvetica,sans-Serif" font-size="10.00">&#45;c_</text>
</g>
</g>
</svg>
