<?xml version="1.0" encoding="UTF-8" standalone="no"?>
<!DOCTYPE svg PUBLIC "-//W3C//DTD SVG 1.1//EN"
 "http://www.w3.org/Graphics/SVG/1.1/DTD/svg11.dtd">
<!-- Generated by graphviz version 2.43.0 (0)
 -->
<!-- Title: signal_easel::afsk::Demodulator::audioBufferToBaseBandSignal Pages: 1 -->
<svg width="908pt" height="127pt"
 viewBox="0.00 0.00 908.00 126.50" xmlns="http://www.w3.org/2000/svg" xmlns:xlink="http://www.w3.org/1999/xlink">
<g id="graph0" class="graph" transform="scale(1 1) rotate(0) translate(4 122.5)">
<title>signal_easel::afsk::Demodulator::audioBufferToBaseBandSignal</title>
<!-- Node1 -->
<g id="node1" class="node">
<title>Node1</title>
<g id="a_node1"><a xlink:title="Takes the raw signal and converts it into the FSK baseband signal.">
<polygon fill="#bfbfbf" stroke="black" points="0,-33.5 0,-74.5 149,-74.5 149,-33.5 0,-33.5"/>
<text text-anchor="start" x="8" y="-62.5" font-family="Helvetica,sans-Serif" font-size="10.00">signal_easel::afsk</text>
<text text-anchor="start" x="8" y="-51.5" font-family="Helvetica,sans-Serif" font-size="10.00">::Demodulator::audioBuffer</text>
<text text-anchor="middle" x="74.5" y="-40.5" font-family="Helvetica,sans-Serif" font-size="10.00">ToBaseBandSignal</text>
</a>
</g>
</g>
<!-- Node2 -->
<g id="node2" class="node">
<title>Node2</title>
<g id="a_node2"><a xlink:href="namespacesignal__easel.html#a62db979f7f4a67d6a7d263788813e1b9" target="_top" xlink:title="A band&#45;pass filter implementation.">
<polygon fill="none" stroke="black" points="185,-44.5 185,-63.5 339,-63.5 339,-44.5 185,-44.5"/>
<text text-anchor="middle" x="262" y="-51.5" font-family="Helvetica,sans-Serif" font-size="10.00">signal_easel::bandPassFilter</text>
</a>
</g>
</g>
<!-- Node1&#45;&gt;Node2 -->
<g id="edge1" class="edge">
<title>Node1&#45;&gt;Node2</title>
<path fill="none" stroke="midnightblue" d="M149.08,-54C157.51,-54 166.17,-54 174.75,-54"/>
<polygon fill="midnightblue" stroke="midnightblue" points="174.77,-57.5 184.77,-54 174.77,-50.5 174.77,-57.5"/>
</g>
<!-- Node3 -->
<g id="node3" class="node">
<title>Node3</title>
<g id="a_node3"><a xlink:href="namespacesignal__easel.html#ab828fd4a325ae3f35f6c4c707ffb6886" target="_top" xlink:title=" ">
<polygon fill="none" stroke="black" points="376.5,-88 376.5,-118 522.5,-118 522.5,-88 376.5,-88"/>
<text text-anchor="start" x="384.5" y="-106" font-family="Helvetica,sans-Serif" font-size="10.00">signal_easel::computeDen</text>
<text text-anchor="middle" x="449.5" y="-95" font-family="Helvetica,sans-Serif" font-size="10.00">Coeffs</text>
</a>
</g>
</g>
<!-- Node2&#45;&gt;Node3 -->
<g id="edge2" class="edge">
<title>Node2&#45;&gt;Node3</title>
<path fill="none" stroke="midnightblue" d="M299.21,-63.56C322.69,-69.77 354,-78.04 381.88,-85.4"/>
<polygon fill="midnightblue" stroke="midnightblue" points="381.01,-88.79 391.57,-87.96 382.8,-82.03 381.01,-88.79"/>
</g>
<!-- Node5 -->
<g id="node5" class="node">
<title>Node5</title>
<g id="a_node5"><a xlink:href="namespacesignal__easel.html#a61e5160a96fbff531fdbecf3737f80b9" target="_top" xlink:title=" ">
<polygon fill="none" stroke="black" points="375,-39 375,-69 524,-69 524,-39 375,-39"/>
<text text-anchor="start" x="383" y="-57" font-family="Helvetica,sans-Serif" font-size="10.00">signal_easel::computeNum</text>
<text text-anchor="middle" x="449.5" y="-46" font-family="Helvetica,sans-Serif" font-size="10.00">Coeffs</text>
</a>
</g>
</g>
<!-- Node2&#45;&gt;Node5 -->
<g id="edge4" class="edge">
<title>Node2&#45;&gt;Node5</title>
<path fill="none" stroke="midnightblue" d="M339.25,-54C347.64,-54 356.2,-54 364.67,-54"/>
<polygon fill="midnightblue" stroke="midnightblue" points="364.93,-57.5 374.93,-54 364.93,-50.5 364.93,-57.5"/>
</g>
<!-- Node8 -->
<g id="node8" class="node">
<title>Node8</title>
<g id="a_node8"><a xlink:href="namespacesignal__easel.html#a24d8e6d8aa467d22058b77158b2f137a" target="_top" xlink:title=" ">
<polygon fill="none" stroke="black" points="396.5,-0.5 396.5,-19.5 502.5,-19.5 502.5,-0.5 396.5,-0.5"/>
<text text-anchor="middle" x="449.5" y="-7.5" font-family="Helvetica,sans-Serif" font-size="10.00">signal_easel::filter</text>
</a>
</g>
</g>
<!-- Node2&#45;&gt;Node8 -->
<g id="edge7" class="edge">
<title>Node2&#45;&gt;Node8</title>
<path fill="none" stroke="midnightblue" d="M303.25,-44.45C331.21,-37.82 368.65,-28.94 398.51,-21.86"/>
<polygon fill="midnightblue" stroke="midnightblue" points="399.41,-25.24 408.33,-19.53 397.79,-18.43 399.41,-25.24"/>
</g>
<!-- Node4 -->
<g id="node4" class="node">
<title>Node4</title>
<g id="a_node4"><a xlink:href="namespacesignal__easel.html#a52622d8b5a12dedeb59e5442e887a8e5" target="_top" xlink:title=" ">
<polygon fill="none" stroke="black" points="560,-93.5 560,-112.5 727,-112.5 727,-93.5 560,-93.5"/>
<text text-anchor="middle" x="643.5" y="-100.5" font-family="Helvetica,sans-Serif" font-size="10.00">signal_easel::trinomialMultiply</text>
</a>
</g>
</g>
<!-- Node3&#45;&gt;Node4 -->
<g id="edge3" class="edge">
<title>Node3&#45;&gt;Node4</title>
<path fill="none" stroke="midnightblue" d="M522.54,-103C531.35,-103 540.45,-103 549.52,-103"/>
<polygon fill="midnightblue" stroke="midnightblue" points="549.72,-106.5 559.72,-103 549.72,-99.5 549.72,-106.5"/>
</g>
<!-- Node6 -->
<g id="node6" class="node">
<title>Node6</title>
<g id="a_node6"><a xlink:href="namespacesignal__easel.html#aec86a114666943d1400f780edb69eab0" target="_top" xlink:title=" ">
<polygon fill="none" stroke="black" points="573.5,-44.5 573.5,-63.5 713.5,-63.5 713.5,-44.5 573.5,-44.5"/>
<text text-anchor="middle" x="643.5" y="-51.5" font-family="Helvetica,sans-Serif" font-size="10.00">signal_easel::computeHP</text>
</a>
</g>
</g>
<!-- Node5&#45;&gt;Node6 -->
<g id="edge5" class="edge">
<title>Node5&#45;&gt;Node6</title>
<path fill="none" stroke="midnightblue" d="M524.18,-54C536.95,-54 550.27,-54 563.18,-54"/>
<polygon fill="midnightblue" stroke="midnightblue" points="563.43,-57.5 573.43,-54 563.43,-50.5 563.43,-57.5"/>
</g>
<!-- Node7 -->
<g id="node7" class="node">
<title>Node7</title>
<g id="a_node7"><a xlink:href="namespacesignal__easel.html#a6049a00d790189b698bd2dfb04885a31" target="_top" xlink:title=" ">
<polygon fill="none" stroke="black" points="763,-44.5 763,-63.5 900,-63.5 900,-44.5 763,-44.5"/>
<text text-anchor="middle" x="831.5" y="-51.5" font-family="Helvetica,sans-Serif" font-size="10.00">signal_easel::computeLP</text>
</a>
</g>
</g>
<!-- Node6&#45;&gt;Node7 -->
<g id="edge6" class="edge">
<title>Node6&#45;&gt;Node7</title>
<path fill="none" stroke="midnightblue" d="M713.76,-54C726.39,-54 739.65,-54 752.52,-54"/>
<polygon fill="midnightblue" stroke="midnightblue" points="752.73,-57.5 762.73,-54 752.73,-50.5 752.73,-57.5"/>
</g>
</g>
</svg>
