<?xml version="1.0" encoding="UTF-8" standalone="no"?>
<!DOCTYPE svg PUBLIC "-//W3C//DTD SVG 1.1//EN"
 "http://www.w3.org/Graphics/SVG/1.1/DTD/svg11.dtd">
<!-- Generated by graphviz version 2.43.0 (0)
 -->
<!-- Title: signal_easel::ax25::Frame::addRepeaterAddress Pages: 1 -->
<svg width="821pt" height="105pt"
 viewBox="0.00 0.00 821.00 105.00" xmlns="http://www.w3.org/2000/svg" xmlns:xlink="http://www.w3.org/1999/xlink">
<g id="graph0" class="graph" transform="scale(1 1) rotate(0) translate(4 101)">
<title>signal_easel::ax25::Frame::addRepeaterAddress</title>
<!-- Node1 -->
<g id="node1" class="node">
<title>Node1</title>
<g id="a_node1"><a xlink:title=" ">
<polygon fill="#bfbfbf" stroke="black" points="652,-33 652,-63 813,-63 813,-33 652,-33"/>
<text text-anchor="start" x="660" y="-51" font-family="Helvetica,sans-Serif" font-size="10.00">signal_easel::ax25</text>
<text text-anchor="middle" x="732.5" y="-40" font-family="Helvetica,sans-Serif" font-size="10.00">::Frame::addRepeaterAddress</text>
</a>
</g>
</g>
<!-- Node2 -->
<g id="node2" class="node">
<title>Node2</title>
<g id="a_node2"><a xlink:href="classsignal__easel_1_1ax25_1_1Frame.html#a40b07872c291deee87c677459a27c21c" target="_top" xlink:title="Attempt to parse a single AX.25 frame from an already NRZI&#45;decoded bit stream. Unlike parseBitStream,...">
<polygon fill="none" stroke="black" points="454,-27.5 454,-68.5 616,-68.5 616,-27.5 454,-27.5"/>
<text text-anchor="start" x="462" y="-56.5" font-family="Helvetica,sans-Serif" font-size="10.00">signal_easel::ax25</text>
<text text-anchor="start" x="462" y="-45.5" font-family="Helvetica,sans-Serif" font-size="10.00">::Frame::parseNrziDecodedBit</text>
<text text-anchor="middle" x="535" y="-34.5" font-family="Helvetica,sans-Serif" font-size="10.00">Stream</text>
</a>
</g>
</g>
<!-- Node1&#45;&gt;Node2 -->
<g id="edge1" class="edge">
<title>Node1&#45;&gt;Node2</title>
<path fill="none" stroke="midnightblue" d="M641.92,-48C633.3,-48 624.6,-48 616.08,-48"/>
<polygon fill="midnightblue" stroke="midnightblue" points="641.98,-51.5 651.98,-48 641.98,-44.5 641.98,-51.5"/>
</g>
<!-- Node3 -->
<g id="node3" class="node">
<title>Node3</title>
<g id="a_node3"><a xlink:href="classsignal__easel_1_1aprs_1_1Demodulator.html#ab4819ac606d0ebf3e5ac235a3bf916df" target="_top" xlink:title="Like lookForAx25Packet, but parses a single AX.25 frame from an already NRZI&#45;decoded bit stream....">
<polygon fill="none" stroke="black" points="266,-55.5 266,-96.5 418,-96.5 418,-55.5 266,-55.5"/>
<text text-anchor="start" x="274" y="-84.5" font-family="Helvetica,sans-Serif" font-size="10.00">signal_easel::aprs</text>
<text text-anchor="start" x="274" y="-73.5" font-family="Helvetica,sans-Serif" font-size="10.00">::Demodulator::lookForNext</text>
<text text-anchor="middle" x="342" y="-62.5" font-family="Helvetica,sans-Serif" font-size="10.00">Ax25Packet</text>
</a>
</g>
</g>
<!-- Node2&#45;&gt;Node3 -->
<g id="edge2" class="edge">
<title>Node2&#45;&gt;Node3</title>
<path fill="none" stroke="midnightblue" d="M443.78,-61.23C435.18,-62.49 426.52,-63.76 418.09,-64.99"/>
<polygon fill="midnightblue" stroke="midnightblue" points="444.44,-64.67 453.83,-59.75 443.43,-57.74 444.44,-64.67"/>
</g>
<!-- Node5 -->
<g id="node5" class="node">
<title>Node5</title>
<g id="a_node5"><a xlink:href="classsignal__easel_1_1ax25_1_1Frame.html#a63cf2362c2a90d20f09bbbc4f24a07ba" target="_top" xlink:title="Attempt to parse an incoming bit stream into an AX.25 frame.">
<polygon fill="none" stroke="black" points="274.5,-6 274.5,-36 409.5,-36 409.5,-6 274.5,-6"/>
<text text-anchor="start" x="282.5" y="-24" font-family="Helvetica,sans-Serif" font-size="10.00">signal_easel::ax25</text>
<text text-anchor="middle" x="342" y="-13" font-family="Helvetica,sans-Serif" font-size="10.00">::Frame::parseBitStream</text>
</a>
</g>
</g>
<!-- Node2&#45;&gt;Node5 -->
<g id="edge4" class="edge">
<title>Node2&#45;&gt;Node5</title>
<path fill="none" stroke="midnightblue" d="M443.78,-35.25C432.29,-33.62 420.7,-31.98 409.68,-30.43"/>
<polygon fill="midnightblue" stroke="midnightblue" points="443.44,-38.73 453.83,-36.67 444.42,-31.8 443.44,-38.73"/>
</g>
<!-- Node4 -->
<g id="node4" class="node">
<title>Node4</title>
<g id="a_node4"><a xlink:href="classsignal__easel_1_1aprs_1_1Receiver.html#afbf7869aceaf2ea7ab0be8b9af16e818" target="_top" xlink:title=" ">
<polygon fill="none" stroke="black" points="100,-61 100,-91 207,-91 207,-61 100,-61"/>
<text text-anchor="start" x="108" y="-79" font-family="Helvetica,sans-Serif" font-size="10.00">signal_easel::aprs</text>
<text text-anchor="middle" x="153.5" y="-68" font-family="Helvetica,sans-Serif" font-size="10.00">::Receiver::decode</text>
</a>
</g>
</g>
<!-- Node3&#45;&gt;Node4 -->
<g id="edge3" class="edge">
<title>Node3&#45;&gt;Node4</title>
<path fill="none" stroke="midnightblue" d="M255.69,-76C239.11,-76 222.2,-76 207.07,-76"/>
<polygon fill="midnightblue" stroke="midnightblue" points="255.95,-79.5 265.95,-76 255.95,-72.5 255.95,-79.5"/>
</g>
<!-- Node6 -->
<g id="node6" class="node">
<title>Node6</title>
<g id="a_node6"><a xlink:href="classsignal__easel_1_1aprs_1_1Demodulator.html#ae5a8e7634c1bc8d215a0c454a9a737fa" target="_top" xlink:title=" ">
<polygon fill="none" stroke="black" points="77,-0.5 77,-41.5 230,-41.5 230,-0.5 77,-0.5"/>
<text text-anchor="start" x="85" y="-29.5" font-family="Helvetica,sans-Serif" font-size="10.00">signal_easel::aprs</text>
<text text-anchor="start" x="85" y="-18.5" font-family="Helvetica,sans-Serif" font-size="10.00">::Demodulator::lookForAx25</text>
<text text-anchor="middle" x="153.5" y="-7.5" font-family="Helvetica,sans-Serif" font-size="10.00">Packet</text>
</a>
</g>
</g>
<!-- Node5&#45;&gt;Node6 -->
<g id="edge5" class="edge">
<title>Node5&#45;&gt;Node6</title>
<path fill="none" stroke="midnightblue" d="M264.25,-21C253.01,-21 241.44,-21 230.22,-21"/>
<polygon fill="midnightblue" stroke="midnightblue" points="264.46,-24.5 274.46,-21 264.46,-17.5 264.46,-24.5"/>
</g>
<!-- Node7 -->
<g id="node7" class="node">
<title>Node7</title>
<g id="a_node7"><a xlink:href="aprs__test_8cpp.html#aea66d1824e3f1e27598adf99ac6a089a" target="_top" xlink:title=" ">
<polygon fill="none" stroke="black" points="0,-11.5 0,-30.5 41,-30.5 41,-11.5 0,-11.5"/>
<text text-anchor="middle" x="20.5" y="-18.5" font-family="Helvetica,sans-Serif" font-size="10.00">TEST</text>
</a>
</g>
</g>
<!-- Node6&#45;&gt;Node7 -->
<g id="edge6" class="edge">
<title>Node6&#45;&gt;Node7</title>
<path fill="none" stroke="midnightblue" d="M66.67,-21C57.26,-21 48.46,-21 41.18,-21"/>
<polygon fill="midnightblue" stroke="midnightblue" points="66.68,-24.5 76.68,-21 66.68,-17.5 66.68,-24.5"/>
</g>
</g>
</svg>
