<?xml version="1.0" encoding="UTF-8" standalone="no"?>
<!DOCTYPE svg PUBLIC "-//W3C//DTD SVG 1.1//EN"
 "http://www.w3.org/Graphics/SVG/1.1/DTD/svg11.dtd">
<!-- Generated by graphviz version 2.43.0 (0)
 -->
<!-- Title: signal_easel::psk::PskWaveShaper::envelopeFilter Pages: 1 -->
<svg width="786pt" height="88pt"
 viewBox="0.00 0.00 786.00 88.00" xmlns="http://www.w3.org/2000/svg" xmlns:xlink="http://www.w3.org/1999/xlink">
<g id="graph0" class="graph" transform="scale(1 1) rotate(0) translate(4 84)">
<title>signal_easel::psk::PskWaveShaper::envelopeFilter</title>
<!-- Node1 -->
<g id="node1" class="node">
<title>Node1</title>
<g id="a_node1"><a xlink:title="A filter to remove the sharp edges of the wave during a phase change.">
<polygon fill="#bfbfbf" stroke="black" points="608,-24.5 608,-54.5 778,-54.5 778,-24.5 608,-24.5"/>
<text text-anchor="start" x="616" y="-42.5" font-family="Helvetica,sans-Serif" font-size="10.00">signal_easel::psk::</text>
<text text-anchor="middle" x="693" y="-31.5" font-family="Helvetica,sans-Serif" font-size="10.00">PskWaveShaper::envelopeFilter</text>
</a>
</g>
</g>
<!-- Node2 -->
<g id="node2" class="node">
<title>Node2</title>
<g id="a_node2"><a xlink:href="classsignal__easel_1_1psk_1_1PskWaveShaper.html#a43adb5526e215f4183ad439ca92daf1f" target="_top" xlink:title=" ">
<polygon fill="none" stroke="black" points="417,-24.5 417,-54.5 572,-54.5 572,-24.5 417,-24.5"/>
<text text-anchor="start" x="425" y="-42.5" font-family="Helvetica,sans-Serif" font-size="10.00">signal_easel::psk::</text>
<text text-anchor="middle" x="494.5" y="-31.5" font-family="Helvetica,sans-Serif" font-size="10.00">PskWaveShaper::addSymbol</text>
</a>
</g>
</g>
<!-- Node1&#45;&gt;Node2 -->
<g id="edge1" class="edge">
<title>Node1&#45;&gt;Node2</title>
<path fill="none" stroke="midnightblue" d="M597.74,-39.5C589.13,-39.5 580.48,-39.5 572.06,-39.5"/>
<polygon fill="midnightblue" stroke="midnightblue" points="597.81,-43 607.81,-39.5 597.81,-36 597.81,-43"/>
</g>
<!-- Node3 -->
<g id="node3" class="node">
<title>Node3</title>
<g id="a_node3"><a xlink:href="classsignal__easel_1_1psk_1_1Modulator.html#a0949f7b7120c7a1b3c350681537e3181" target="_top" xlink:title=" ">
<polygon fill="none" stroke="black" points="249.5,-49.5 249.5,-79.5 380.5,-79.5 380.5,-49.5 249.5,-49.5"/>
<text text-anchor="start" x="257.5" y="-67.5" font-family="Helvetica,sans-Serif" font-size="10.00">signal_easel::psk::</text>
<text text-anchor="middle" x="315" y="-56.5" font-family="Helvetica,sans-Serif" font-size="10.00">Modulator::encodeBpsk</text>
</a>
</g>
</g>
<!-- Node2&#45;&gt;Node3 -->
<g id="edge2" class="edge">
<title>Node2&#45;&gt;Node3</title>
<path fill="none" stroke="midnightblue" d="M406.96,-51.69C398.09,-52.94 389.19,-54.19 380.62,-55.4"/>
<polygon fill="midnightblue" stroke="midnightblue" points="407.52,-55.14 416.94,-50.28 406.55,-48.21 407.52,-55.14"/>
</g>
<!-- Node6 -->
<g id="node6" class="node">
<title>Node6</title>
<g id="a_node6"><a xlink:href="classsignal__easel_1_1psk_1_1Modulator.html#a60d1a9253af253f4b62b678b6fc2b21e" target="_top" xlink:title=" ">
<polygon fill="none" stroke="black" points="249,-0.5 249,-30.5 381,-30.5 381,-0.5 249,-0.5"/>
<text text-anchor="start" x="257" y="-18.5" font-family="Helvetica,sans-Serif" font-size="10.00">signal_easel::psk::</text>
<text text-anchor="middle" x="315" y="-7.5" font-family="Helvetica,sans-Serif" font-size="10.00">Modulator::encodeQpsk</text>
</a>
</g>
</g>
<!-- Node2&#45;&gt;Node6 -->
<g id="edge5" class="edge">
<title>Node2&#45;&gt;Node6</title>
<path fill="none" stroke="midnightblue" d="M406.83,-27.78C398.2,-26.61 389.53,-25.44 381.17,-24.31"/>
<polygon fill="midnightblue" stroke="midnightblue" points="406.56,-31.28 416.94,-29.15 407.5,-24.34 406.56,-31.28"/>
</g>
<!-- Node4 -->
<g id="node4" class="node">
<title>Node4</title>
<g id="a_node4"><a xlink:href="classsignal__easel_1_1psk_1_1Modulator.html#acd4a6a5bac7af1c62ffaaa0ff1d9259f" target="_top" xlink:title=" ">
<polygon fill="none" stroke="black" points="77,-24.5 77,-54.5 213,-54.5 213,-24.5 77,-24.5"/>
<text text-anchor="start" x="85" y="-42.5" font-family="Helvetica,sans-Serif" font-size="10.00">signal_easel::psk::</text>
<text text-anchor="middle" x="145" y="-31.5" font-family="Helvetica,sans-Serif" font-size="10.00">Modulator::encodeString</text>
</a>
</g>
</g>
<!-- Node3&#45;&gt;Node4 -->
<g id="edge3" class="edge">
<title>Node3&#45;&gt;Node4</title>
<path fill="none" stroke="midnightblue" d="M238.97,-53.33C230.32,-52.05 221.54,-50.74 213,-49.47"/>
<polygon fill="midnightblue" stroke="midnightblue" points="238.64,-56.82 249.05,-54.83 239.67,-49.9 238.64,-56.82"/>
</g>
<!-- Node5 -->
<g id="node5" class="node">
<title>Node5</title>
<g id="a_node5"><a xlink:href="psk__test_8cpp.html#adc7973e853ae04677ba78e84bda93987" target="_top" xlink:title=" ">
<polygon fill="none" stroke="black" points="0,-30 0,-49 41,-49 41,-30 0,-30"/>
<text text-anchor="middle" x="20.5" y="-37" font-family="Helvetica,sans-Serif" font-size="10.00">TEST</text>
</a>
</g>
</g>
<!-- Node4&#45;&gt;Node5 -->
<g id="edge4" class="edge">
<title>Node4&#45;&gt;Node5</title>
<path fill="none" stroke="midnightblue" d="M66.41,-39.5C57.13,-39.5 48.38,-39.5 41.12,-39.5"/>
<polygon fill="midnightblue" stroke="midnightblue" points="66.66,-43 76.66,-39.5 66.66,-36 66.66,-43"/>
</g>
<!-- Node6&#45;&gt;Node4 -->
<g id="edge6" class="edge">
<title>Node6&#45;&gt;Node4</title>
<path fill="none" stroke="midnightblue" d="M238.4,-26.3C230,-27.5 221.48,-28.72 213.19,-29.9"/>
<polygon fill="midnightblue" stroke="midnightblue" points="239.16,-29.73 248.57,-24.85 238.17,-22.8 239.16,-29.73"/>
</g>
</g>
</svg>
