<?xml version="1.0" encoding="UTF-8" standalone="no"?>
<!DOCTYPE svg PUBLIC "-//W3C//DTD SVG 1.1//EN"
 "http://www.w3.org/Graphics/SVG/1.1/DTD/svg11.dtd">
<!-- Generated by graphviz version 2.43.0 (0)
 -->
<!-- Title: signal_easel::aprs::telemetry::TelemetryData::getAnalogParametersConst Pages: 1 -->
<svg width="732pt" height="230pt"
 viewBox="0.00 0.00 732.00 230.00" xmlns="http://www.w3.org/2000/svg" xmlns:xlink="http://www.w3.org/1999/xlink">
<g id="graph0" class="graph" transform="scale(1 1) rotate(0) translate(4 226)">
<title>signal_easel::aprs::telemetry::TelemetryData::getAnalogParametersConst</title>
<!-- Node1 -->
<g id="node1" class="node">
<title>Node1</title>
<g id="a_node1"><a xlink:title=" ">
<polygon fill="#bfbfbf" stroke="black" points="569,-90.5 569,-131.5 724,-131.5 724,-90.5 569,-90.5"/>
<text text-anchor="start" x="577" y="-119.5" font-family="Helvetica,sans-Serif" font-size="10.00">signal_easel::aprs</text>
<text text-anchor="start" x="577" y="-108.5" font-family="Helvetica,sans-Serif" font-size="10.00">::telemetry::TelemetryData</text>
<text text-anchor="middle" x="646.5" y="-97.5" font-family="Helvetica,sans-Serif" font-size="10.00">::getAnalogParametersConst</text>
</a>
</g>
</g>
<!-- Node2 -->
<g id="node2" class="node">
<title>Node2</title>
<g id="a_node2"><a xlink:href="classsignal__easel_1_1aprs_1_1telemetry_1_1TelemetryTranscoder.html#ae5d6a4f37c1a561ae6be756dfef2f838" target="_top" xlink:title="Encodes the parameter data into a data report message.">
<polygon fill="none" stroke="black" points="342.5,-180.5 342.5,-221.5 519.5,-221.5 519.5,-180.5 342.5,-180.5"/>
<text text-anchor="start" x="350.5" y="-209.5" font-family="Helvetica,sans-Serif" font-size="10.00">signal_easel::aprs</text>
<text text-anchor="start" x="350.5" y="-198.5" font-family="Helvetica,sans-Serif" font-size="10.00">::telemetry::TelemetryTranscoder</text>
<text text-anchor="middle" x="431" y="-187.5" font-family="Helvetica,sans-Serif" font-size="10.00">::encodeDataReportMessage</text>
</a>
</g>
</g>
<!-- Node1&#45;&gt;Node2 -->
<g id="edge1" class="edge">
<title>Node1&#45;&gt;Node2</title>
<path fill="none" stroke="midnightblue" d="M602.6,-136.5C582.02,-148.05 556.73,-161.27 533,-171 524.79,-174.37 516.07,-177.54 507.32,-180.46"/>
<polygon fill="midnightblue" stroke="midnightblue" points="604.44,-139.49 611.41,-131.5 600.98,-133.4 604.44,-139.49"/>
</g>
<!-- Node5 -->
<g id="node5" class="node">
<title>Node5</title>
<g id="a_node5"><a xlink:href="classsignal__easel_1_1aprs_1_1telemetry_1_1TelemetryTranscoder.html#a0c6388feaed412c879ac58b7e3110307" target="_top" xlink:title="Encodes the parameter coefficients into a message.">
<polygon fill="none" stroke="black" points="329,-120.5 329,-161.5 533,-161.5 533,-120.5 329,-120.5"/>
<text text-anchor="start" x="337" y="-149.5" font-family="Helvetica,sans-Serif" font-size="10.00">signal_easel::aprs</text>
<text text-anchor="start" x="337" y="-138.5" font-family="Helvetica,sans-Serif" font-size="10.00">::telemetry::TelemetryTranscoder</text>
<text text-anchor="middle" x="431" y="-127.5" font-family="Helvetica,sans-Serif" font-size="10.00">::encodeParameterCoefficientMessage</text>
</a>
</g>
</g>
<!-- Node1&#45;&gt;Node5 -->
<g id="edge4" class="edge">
<title>Node1&#45;&gt;Node5</title>
<path fill="none" stroke="midnightblue" d="M558.55,-123.22C550.13,-124.4 541.55,-125.61 533.01,-126.81"/>
<polygon fill="midnightblue" stroke="midnightblue" points="559.31,-126.65 568.72,-121.79 558.33,-119.71 559.31,-126.65"/>
</g>
<!-- Node6 -->
<g id="node6" class="node">
<title>Node6</title>
<g id="a_node6"><a xlink:href="classsignal__easel_1_1aprs_1_1telemetry_1_1TelemetryTranscoder.html#a31185ab0ef295b51409170c1b7d5f880" target="_top" xlink:title="Encodes the parameter names into a message.">
<polygon fill="none" stroke="black" points="340.5,-60.5 340.5,-101.5 521.5,-101.5 521.5,-60.5 340.5,-60.5"/>
<text text-anchor="start" x="348.5" y="-89.5" font-family="Helvetica,sans-Serif" font-size="10.00">signal_easel::aprs</text>
<text text-anchor="start" x="348.5" y="-78.5" font-family="Helvetica,sans-Serif" font-size="10.00">::telemetry::TelemetryTranscoder</text>
<text text-anchor="middle" x="431" y="-67.5" font-family="Helvetica,sans-Serif" font-size="10.00">::encodeParameterNameMessage</text>
</a>
</g>
</g>
<!-- Node1&#45;&gt;Node6 -->
<g id="edge6" class="edge">
<title>Node1&#45;&gt;Node6</title>
<path fill="none" stroke="midnightblue" d="M558.57,-98.78C546.36,-97.07 533.79,-95.3 521.54,-93.58"/>
<polygon fill="midnightblue" stroke="midnightblue" points="558.33,-102.29 568.72,-100.21 559.31,-95.35 558.33,-102.29"/>
</g>
<!-- Node7 -->
<g id="node7" class="node">
<title>Node7</title>
<g id="a_node7"><a xlink:href="classsignal__easel_1_1aprs_1_1telemetry_1_1TelemetryTranscoder.html#a1ef507c0f7b59c9fcf34a1749124cf4e" target="_top" xlink:title="Encodes the parameter units and labels into a message.">
<polygon fill="none" stroke="black" points="342.5,-0.5 342.5,-41.5 519.5,-41.5 519.5,-0.5 342.5,-0.5"/>
<text text-anchor="start" x="350.5" y="-29.5" font-family="Helvetica,sans-Serif" font-size="10.00">signal_easel::aprs</text>
<text text-anchor="start" x="350.5" y="-18.5" font-family="Helvetica,sans-Serif" font-size="10.00">::telemetry::TelemetryTranscoder</text>
<text text-anchor="middle" x="431" y="-7.5" font-family="Helvetica,sans-Serif" font-size="10.00">::encodeUnitAndLabelMessage</text>
</a>
</g>
</g>
<!-- Node1&#45;&gt;Node7 -->
<g id="edge8" class="edge">
<title>Node1&#45;&gt;Node7</title>
<path fill="none" stroke="midnightblue" d="M602.6,-85.5C582.02,-73.95 556.73,-60.73 533,-51 524.79,-47.63 516.07,-44.46 507.32,-41.54"/>
<polygon fill="midnightblue" stroke="midnightblue" points="600.98,-88.6 611.41,-90.5 604.44,-82.51 600.98,-88.6"/>
</g>
<!-- Node3 -->
<g id="node3" class="node">
<title>Node3</title>
<g id="a_node3"><a xlink:href="structsignal__easel_1_1aprs_1_1TelemetryPacket.html#a6098e85ae94eded273fcf84adbdcdf35" target="_top" xlink:title=" ">
<polygon fill="none" stroke="black" points="149,-96 149,-126 293,-126 293,-96 149,-96"/>
<text text-anchor="start" x="157" y="-114" font-family="Helvetica,sans-Serif" font-size="10.00">signal_easel::aprs</text>
<text text-anchor="middle" x="221" y="-103" font-family="Helvetica,sans-Serif" font-size="10.00">::TelemetryPacket::encode</text>
</a>
</g>
</g>
<!-- Node2&#45;&gt;Node3 -->
<g id="edge2" class="edge">
<title>Node2&#45;&gt;Node3</title>
<path fill="none" stroke="midnightblue" d="M344.49,-177.07C339.2,-175.14 334,-173.11 329,-171 298.99,-158.31 266.63,-139.36 245.45,-126.16"/>
<polygon fill="midnightblue" stroke="midnightblue" points="343.47,-180.43 354.07,-180.45 345.8,-173.82 343.47,-180.43"/>
</g>
<!-- Node4 -->
<g id="node4" class="node">
<title>Node4</title>
<g id="a_node4"><a xlink:href="classsignal__easel_1_1aprs_1_1Modulator.html#a5620d9527654c44810aeffe98e1aade4" target="_top" xlink:title=" ">
<polygon fill="none" stroke="black" points="0,-96 0,-126 113,-126 113,-96 0,-96"/>
<text text-anchor="start" x="8" y="-114" font-family="Helvetica,sans-Serif" font-size="10.00">signal_easel::aprs</text>
<text text-anchor="middle" x="56.5" y="-103" font-family="Helvetica,sans-Serif" font-size="10.00">::Modulator::encode</text>
</a>
</g>
</g>
<!-- Node3&#45;&gt;Node4 -->
<g id="edge3" class="edge">
<title>Node3&#45;&gt;Node4</title>
<path fill="none" stroke="midnightblue" d="M138.61,-111C129.97,-111 121.33,-111 113.09,-111"/>
<polygon fill="midnightblue" stroke="midnightblue" points="138.73,-114.5 148.73,-111 138.73,-107.5 138.73,-114.5"/>
</g>
<!-- Node5&#45;&gt;Node3 -->
<g id="edge5" class="edge">
<title>Node5&#45;&gt;Node3</title>
<path fill="none" stroke="midnightblue" d="M318.63,-124.94C310.04,-123.7 301.51,-122.47 293.28,-121.28"/>
<polygon fill="midnightblue" stroke="midnightblue" points="318.34,-128.43 328.74,-126.4 319.34,-121.5 318.34,-128.43"/>
</g>
<!-- Node6&#45;&gt;Node3 -->
<g id="edge7" class="edge">
<title>Node6&#45;&gt;Node3</title>
<path fill="none" stroke="midnightblue" d="M330.28,-95.38C317.78,-97.19 305.2,-99 293.25,-100.72"/>
<polygon fill="midnightblue" stroke="midnightblue" points="330.88,-98.83 340.28,-93.94 329.88,-91.9 330.88,-98.83"/>
</g>
<!-- Node7&#45;&gt;Node3 -->
<g id="edge9" class="edge">
<title>Node7&#45;&gt;Node3</title>
<path fill="none" stroke="midnightblue" d="M344.49,-44.93C339.2,-46.86 334,-48.89 329,-51 298.99,-63.69 266.63,-82.64 245.45,-95.84"/>
<polygon fill="midnightblue" stroke="midnightblue" points="345.8,-48.18 354.07,-41.55 343.47,-41.57 345.8,-48.18"/>
</g>
</g>
</svg>
