<?xml version="1.0" encoding="UTF-8" standalone="no"?>
<!DOCTYPE svg PUBLIC "-//W3C//DTD SVG 1.1//EN"
 "http://www.w3.org/Graphics/SVG/1.1/DTD/svg11.dtd">
<!-- Generated by graphviz version 2.43.0 (0)
 -->
<!-- Title: signal_easel::BitStream::addZeroBit Pages: 1 -->
<svg width="822pt" height="188pt"
 viewBox="0.00 0.00 822.00 188.00" xmlns="http://www.w3.org/2000/svg" xmlns:xlink="http://www.w3.org/1999/xlink">
<g id="graph0" class="graph" transform="scale(1 1) rotate(0) translate(4 184)">
<title>signal_easel::BitStream::addZeroBit</title>
<!-- Node1 -->
<g id="node1" class="node">
<title>Node1</title>
<g id="a_node1"><a xlink:title=" ">
<polygon fill="#bfbfbf" stroke="black" points="682,-75.5 682,-105.5 814,-105.5 814,-75.5 682,-75.5"/>
<text text-anchor="start" x="690" y="-93.5" font-family="Helvetica,sans-Serif" font-size="10.00">signal_easel::BitStream</text>
<text text-anchor="middle" x="748" y="-82.5" font-family="Helvetica,sans-Serif" font-size="10.00">::addZeroBit</text>
</a>
</g>
</g>
<!-- Node2 -->
<g id="node2" class="node">
<title>Node2</title>
<g id="a_node2"><a xlink:href="classsignal__easel_1_1psk_1_1Modulator.html#ad465eb5c136ada635cd01cdceb1dc402" target="_top" xlink:title=" ">
<polygon fill="none" stroke="black" points="504,-149.5 504,-179.5 646,-179.5 646,-149.5 504,-149.5"/>
<text text-anchor="start" x="512" y="-167.5" font-family="Helvetica,sans-Serif" font-size="10.00">signal_easel::psk::</text>
<text text-anchor="middle" x="575" y="-156.5" font-family="Helvetica,sans-Serif" font-size="10.00">Modulator::addPostamble</text>
</a>
</g>
</g>
<!-- Node1&#45;&gt;Node2 -->
<g id="edge1" class="edge">
<title>Node1&#45;&gt;Node2</title>
<path fill="none" stroke="midnightblue" d="M710.27,-110.12C691.34,-119.85 667.73,-131.44 646,-140.5 638.53,-143.61 630.5,-146.65 622.63,-149.46"/>
<polygon fill="midnightblue" stroke="midnightblue" points="711.89,-113.22 719.15,-105.5 708.67,-107 711.89,-113.22"/>
</g>
<!-- Node5 -->
<g id="node5" class="node">
<title>Node5</title>
<g id="a_node5"><a xlink:href="classsignal__easel_1_1psk_1_1Modulator.html#a9210187601fe988d188b66ba5ee66a73" target="_top" xlink:title=" ">
<polygon fill="none" stroke="black" points="506.5,-100.5 506.5,-130.5 643.5,-130.5 643.5,-100.5 506.5,-100.5"/>
<text text-anchor="start" x="514.5" y="-118.5" font-family="Helvetica,sans-Serif" font-size="10.00">signal_easel::psk::</text>
<text text-anchor="middle" x="575" y="-107.5" font-family="Helvetica,sans-Serif" font-size="10.00">Modulator::addPreamble</text>
</a>
</g>
</g>
<!-- Node1&#45;&gt;Node5 -->
<g id="edge4" class="edge">
<title>Node1&#45;&gt;Node5</title>
<path fill="none" stroke="midnightblue" d="M671.75,-101.5C662.35,-102.88 652.78,-104.27 643.51,-105.63"/>
<polygon fill="midnightblue" stroke="midnightblue" points="672.48,-104.93 681.86,-100.02 671.46,-98.01 672.48,-104.93"/>
</g>
<!-- Node6 -->
<g id="node6" class="node">
<title>Node6</title>
<g id="a_node6"><a xlink:href="namespacesignal__easel_1_1ax25.html#a84e1d1bf82ef828a150bc94cf065e396" target="_top" xlink:title="Convert a bit stream from NRZI to standard encoding.">
<polygon fill="none" stroke="black" points="521.5,-51.5 521.5,-81.5 628.5,-81.5 628.5,-51.5 521.5,-51.5"/>
<text text-anchor="start" x="529.5" y="-69.5" font-family="Helvetica,sans-Serif" font-size="10.00">signal_easel::ax25</text>
<text text-anchor="middle" x="575" y="-58.5" font-family="Helvetica,sans-Serif" font-size="10.00">::decodeNrzi</text>
</a>
</g>
</g>
<!-- Node1&#45;&gt;Node6 -->
<g id="edge6" class="edge">
<title>Node1&#45;&gt;Node6</title>
<path fill="none" stroke="midnightblue" d="M671.88,-79.96C657.34,-77.92 642.39,-75.82 628.75,-73.9"/>
<polygon fill="midnightblue" stroke="midnightblue" points="671.47,-83.43 681.86,-81.36 672.45,-76.5 671.47,-83.43"/>
</g>
<!-- Node11 -->
<g id="node11" class="node">
<title>Node11</title>
<g id="a_node11"><a xlink:href="classsignal__easel_1_1ax25_1_1Frame.html#a2b4f6ebcb7592a7e5a21114c8fafa503" target="_top" xlink:title="A step beyond buildFrame. This function builds the frame, does the bit stuffing, adds the flags,...">
<polygon fill="none" stroke="black" points="512.5,-2.5 512.5,-32.5 637.5,-32.5 637.5,-2.5 512.5,-2.5"/>
<text text-anchor="start" x="520.5" y="-20.5" font-family="Helvetica,sans-Serif" font-size="10.00">signal_easel::ax25</text>
<text text-anchor="middle" x="575" y="-9.5" font-family="Helvetica,sans-Serif" font-size="10.00">::Frame::encodeFrame</text>
</a>
</g>
</g>
<!-- Node1&#45;&gt;Node11 -->
<g id="edge11" class="edge">
<title>Node1&#45;&gt;Node11</title>
<path fill="none" stroke="midnightblue" d="M709.16,-70.79C690.4,-61.37 667.27,-50.27 646,-41.5 638.52,-38.42 630.48,-35.4 622.61,-32.6"/>
<polygon fill="midnightblue" stroke="midnightblue" points="707.75,-74 718.25,-75.4 710.92,-67.76 707.75,-74"/>
</g>
<!-- Node3 -->
<g id="node3" class="node">
<title>Node3</title>
<g id="a_node3"><a xlink:href="classsignal__easel_1_1psk_1_1Modulator.html#acd4a6a5bac7af1c62ffaaa0ff1d9259f" target="_top" xlink:title=" ">
<polygon fill="none" stroke="black" points="332,-127.5 332,-157.5 468,-157.5 468,-127.5 332,-127.5"/>
<text text-anchor="start" x="340" y="-145.5" font-family="Helvetica,sans-Serif" font-size="10.00">signal_easel::psk::</text>
<text text-anchor="middle" x="400" y="-134.5" font-family="Helvetica,sans-Serif" font-size="10.00">Modulator::encodeString</text>
</a>
</g>
</g>
<!-- Node2&#45;&gt;Node3 -->
<g id="edge2" class="edge">
<title>Node2&#45;&gt;Node3</title>
<path fill="none" stroke="midnightblue" d="M493.69,-154.29C485.17,-153.2 476.57,-152.11 468.23,-151.05"/>
<polygon fill="midnightblue" stroke="midnightblue" points="493.27,-157.76 503.63,-155.55 494.16,-150.82 493.27,-157.76"/>
</g>
<!-- Node4 -->
<g id="node4" class="node">
<title>Node4</title>
<g id="a_node4"><a xlink:href="psk__test_8cpp.html#a82221e67ef1f82d389fa971718fa764a" target="_top" xlink:title=" ">
<polygon fill="none" stroke="black" points="199,-133 199,-152 240,-152 240,-133 199,-133"/>
<text text-anchor="middle" x="219.5" y="-140" font-family="Helvetica,sans-Serif" font-size="10.00">TEST</text>
</a>
</g>
</g>
<!-- Node3&#45;&gt;Node4 -->
<g id="edge3" class="edge">
<title>Node3&#45;&gt;Node4</title>
<path fill="none" stroke="midnightblue" d="M321.72,-142.5C291.84,-142.5 260.12,-142.5 240.32,-142.5"/>
<polygon fill="midnightblue" stroke="midnightblue" points="321.77,-146 331.77,-142.5 321.77,-139 321.77,-146"/>
</g>
<!-- Node5&#45;&gt;Node3 -->
<g id="edge5" class="edge">
<title>Node5&#45;&gt;Node3</title>
<path fill="none" stroke="midnightblue" d="M496.07,-127.66C486.74,-129.12 477.27,-130.6 468.11,-132.03"/>
<polygon fill="midnightblue" stroke="midnightblue" points="496.78,-131.09 506.12,-126.09 495.7,-124.18 496.78,-131.09"/>
</g>
<!-- Node7 -->
<g id="node7" class="node">
<title>Node7</title>
<g id="a_node7"><a xlink:href="classsignal__easel_1_1ax25_1_1Frame.html#a63cf2362c2a90d20f09bbbc4f24a07ba" target="_top" xlink:title="Attempt to parse an incoming bit stream into an AX.25 frame.">
<polygon fill="none" stroke="black" points="332.5,-52.5 332.5,-82.5 467.5,-82.5 467.5,-52.5 332.5,-52.5"/>
<text text-anchor="start" x="340.5" y="-70.5" font-family="Helvetica,sans-Serif" font-size="10.00">signal_easel::ax25</text>
<text text-anchor="middle" x="400" y="-59.5" font-family="Helvetica,sans-Serif" font-size="10.00">::Frame::parseBitStream</text>
</a>
</g>
</g>
<!-- Node6&#45;&gt;Node7 -->
<g id="edge7" class="edge">
<title>Node6&#45;&gt;Node7</title>
<path fill="none" stroke="midnightblue" d="M511.05,-66.86C496.92,-66.95 481.88,-67.03 467.6,-67.12"/>
<polygon fill="midnightblue" stroke="midnightblue" points="511.17,-70.36 521.15,-66.81 511.13,-63.36 511.17,-70.36"/>
</g>
<!-- Node8 -->
<g id="node8" class="node">
<title>Node8</title>
<g id="a_node8"><a xlink:href="classsignal__easel_1_1aprs_1_1Demodulator.html#ae5a8e7634c1bc8d215a0c454a9a737fa" target="_top" xlink:title=" ">
<polygon fill="none" stroke="black" points="143,-50 143,-91 296,-91 296,-50 143,-50"/>
<text text-anchor="start" x="151" y="-79" font-family="Helvetica,sans-Serif" font-size="10.00">signal_easel::aprs</text>
<text text-anchor="start" x="151" y="-68" font-family="Helvetica,sans-Serif" font-size="10.00">::Demodulator::lookForAx25</text>
<text text-anchor="middle" x="219.5" y="-57" font-family="Helvetica,sans-Serif" font-size="10.00">Packet</text>
</a>
</g>
</g>
<!-- Node7&#45;&gt;Node8 -->
<g id="edge8" class="edge">
<title>Node7&#45;&gt;Node8</title>
<path fill="none" stroke="midnightblue" d="M322.22,-68.79C313.58,-68.94 304.77,-69.08 296.14,-69.23"/>
<polygon fill="midnightblue" stroke="midnightblue" points="322.34,-72.29 332.28,-68.62 322.22,-65.29 322.34,-72.29"/>
</g>
<!-- Node9 -->
<g id="node9" class="node">
<title>Node9</title>
<g id="a_node9"><a xlink:href="classsignal__easel_1_1aprs_1_1Receiver.html#afbf7869aceaf2ea7ab0be8b9af16e818" target="_top" xlink:title=" ">
<polygon fill="none" stroke="black" points="0,-55.5 0,-85.5 107,-85.5 107,-55.5 0,-55.5"/>
<text text-anchor="start" x="8" y="-73.5" font-family="Helvetica,sans-Serif" font-size="10.00">signal_easel::aprs</text>
<text text-anchor="middle" x="53.5" y="-62.5" font-family="Helvetica,sans-Serif" font-size="10.00">::Receiver::decode</text>
</a>
</g>
</g>
<!-- Node8&#45;&gt;Node9 -->
<g id="edge9" class="edge">
<title>Node8&#45;&gt;Node9</title>
<path fill="none" stroke="midnightblue" d="M132.67,-70.5C124.09,-70.5 115.56,-70.5 107.47,-70.5"/>
<polygon fill="midnightblue" stroke="midnightblue" points="132.74,-74 142.74,-70.5 132.74,-67 132.74,-74"/>
</g>
<!-- Node10 -->
<g id="node10" class="node">
<title>Node10</title>
<g id="a_node10"><a xlink:href="aprs__test_8cpp.html#aea66d1824e3f1e27598adf99ac6a089a" target="_top" xlink:title=" ">
<polygon fill="none" stroke="black" points="33,-12 33,-31 74,-31 74,-12 33,-12"/>
<text text-anchor="middle" x="53.5" y="-19" font-family="Helvetica,sans-Serif" font-size="10.00">TEST</text>
</a>
</g>
</g>
<!-- Node8&#45;&gt;Node10 -->
<g id="edge10" class="edge">
<title>Node8&#45;&gt;Node10</title>
<path fill="none" stroke="midnightblue" d="M139.76,-46.97C115.4,-39.69 90.65,-32.3 74.13,-27.37"/>
<polygon fill="midnightblue" stroke="midnightblue" points="138.84,-50.35 149.42,-49.86 140.85,-43.65 138.84,-50.35"/>
</g>
<!-- Node12 -->
<g id="node12" class="node">
<title>Node12</title>
<g id="a_node12"><a xlink:href="namespacesignal__easel_1_1aprs.html#a77481001a5b78a839972bb4220b43e4d" target="_top" xlink:title="The base function to encode an APRS packet with the provided base data and info field.">
<polygon fill="none" stroke="black" points="348,-2.5 348,-32.5 452,-32.5 452,-2.5 348,-2.5"/>
<text text-anchor="start" x="356" y="-20.5" font-family="Helvetica,sans-Serif" font-size="10.00">signal_easel::aprs</text>
<text text-anchor="middle" x="400" y="-9.5" font-family="Helvetica,sans-Serif" font-size="10.00">::encodePacket</text>
</a>
</g>
</g>
<!-- Node11&#45;&gt;Node12 -->
<g id="edge12" class="edge">
<title>Node11&#45;&gt;Node12</title>
<path fill="none" stroke="midnightblue" d="M501.74,-17.5C485.03,-17.5 467.59,-17.5 452,-17.5"/>
<polygon fill="midnightblue" stroke="midnightblue" points="502.03,-21 512.03,-17.5 502.03,-14 502.03,-21"/>
</g>
<!-- Node13 -->
<g id="node13" class="node">
<title>Node13</title>
<g id="a_node13"><a xlink:href="classsignal__easel_1_1aprs_1_1Modulator.html#a8ae067701382dec1680b786583ace687" target="_top" xlink:title=" ">
<polygon fill="none" stroke="black" points="163,-0.5 163,-30.5 276,-30.5 276,-0.5 163,-0.5"/>
<text text-anchor="start" x="171" y="-18.5" font-family="Helvetica,sans-Serif" font-size="10.00">signal_easel::aprs</text>
<text text-anchor="middle" x="219.5" y="-7.5" font-family="Helvetica,sans-Serif" font-size="10.00">::Modulator::encode</text>
</a>
</g>
</g>
<!-- Node12&#45;&gt;Node13 -->
<g id="edge13" class="edge">
<title>Node12&#45;&gt;Node13</title>
<path fill="none" stroke="midnightblue" d="M337.61,-16.81C317.62,-16.59 295.57,-16.34 276.03,-16.12"/>
<polygon fill="midnightblue" stroke="midnightblue" points="337.81,-20.31 347.85,-16.93 337.89,-13.31 337.81,-20.31"/>
</g>
<!-- Node13&#45;&gt;Node10 -->
<g id="edge14" class="edge">
<title>Node13&#45;&gt;Node10</title>
<path fill="none" stroke="midnightblue" d="M152.74,-17.91C124.56,-18.94 93.72,-20.07 74.25,-20.78"/>
<polygon fill="midnightblue" stroke="midnightblue" points="153.11,-21.39 162.98,-17.53 152.86,-14.4 153.11,-21.39"/>
</g>
</g>
</svg>
