<?xml version="1.0" encoding="UTF-8" standalone="no"?>
<!DOCTYPE svg PUBLIC "-//W3C//DTD SVG 1.1//EN"
 "http://www.w3.org/Graphics/SVG/1.1/DTD/svg11.dtd">
<!-- Generated by graphviz version 2.43.0 (0)
 -->
<!-- Title: signal_easel::aprs::telemetry::TelemetryData::setTelemetryStationAddress Pages: 1 -->
<svg width="916pt" height="125pt"
 viewBox="0.00 0.00 916.00 124.50" xmlns="http://www.w3.org/2000/svg" xmlns:xlink="http://www.w3.org/1999/xlink">
<g id="graph0" class="graph" transform="scale(1 1) rotate(0) translate(4 120.5)">
<title>signal_easel::aprs::telemetry::TelemetryData::setTelemetryStationAddress</title>
<!-- Node1 -->
<g id="node1" class="node">
<title>Node1</title>
<g id="a_node1"><a xlink:title="Set the address of the station that is sending the telemetry data for use in the parameter name,...">
<polygon fill="#bfbfbf" stroke="black" points="748,-22 748,-63 908,-63 908,-22 748,-22"/>
<text text-anchor="start" x="756" y="-51" font-family="Helvetica,sans-Serif" font-size="10.00">signal_easel::aprs</text>
<text text-anchor="start" x="756" y="-40" font-family="Helvetica,sans-Serif" font-size="10.00">::telemetry::TelemetryData</text>
<text text-anchor="middle" x="828" y="-29" font-family="Helvetica,sans-Serif" font-size="10.00">::setTelemetryStationAddress</text>
</a>
</g>
</g>
<!-- Node2 -->
<g id="node2" class="node">
<title>Node2</title>
<g id="a_node2"><a xlink:href="classsignal__easel_1_1aprs_1_1telemetry_1_1TelemetryTranscoder.html#a8728ebd6e5dbd7ca50a219fda62b7375" target="_top" xlink:title="Takes in the information field of an APRS telemetry message and decodes it with the appropriate metho...">
<polygon fill="none" stroke="black" points="535,-50 535,-91 712,-91 712,-50 535,-50"/>
<text text-anchor="start" x="543" y="-79" font-family="Helvetica,sans-Serif" font-size="10.00">signal_easel::aprs</text>
<text text-anchor="start" x="543" y="-68" font-family="Helvetica,sans-Serif" font-size="10.00">::telemetry::TelemetryTranscoder</text>
<text text-anchor="middle" x="623.5" y="-57" font-family="Helvetica,sans-Serif" font-size="10.00">::decodeMessage</text>
</a>
</g>
</g>
<!-- Node1&#45;&gt;Node2 -->
<g id="edge1" class="edge">
<title>Node1&#45;&gt;Node2</title>
<path fill="none" stroke="midnightblue" d="M737.93,-54.82C729.43,-55.99 720.81,-57.18 712.32,-58.36"/>
<polygon fill="midnightblue" stroke="midnightblue" points="738.41,-58.28 747.84,-53.45 737.45,-51.35 738.41,-58.28"/>
</g>
<!-- Node7 -->
<g id="node7" class="node">
<title>Node7</title>
<g id="a_node7"><a xlink:href="classTelemetryTranscoder__test.html#a920bd6e467cad92332441c794ecacb5a" target="_top" xlink:title=" ">
<polygon fill="none" stroke="black" points="564.5,-0.5 564.5,-30.5 682.5,-30.5 682.5,-0.5 564.5,-0.5"/>
<text text-anchor="start" x="572.5" y="-18.5" font-family="Helvetica,sans-Serif" font-size="10.00">TelemetryTranscoder</text>
<text text-anchor="middle" x="623.5" y="-7.5" font-family="Helvetica,sans-Serif" font-size="10.00">_test::SetUp</text>
</a>
</g>
</g>
<!-- Node1&#45;&gt;Node7 -->
<g id="edge6" class="edge">
<title>Node1&#45;&gt;Node7</title>
<path fill="none" stroke="midnightblue" d="M737.82,-30.61C719.1,-28.11 699.83,-25.54 682.61,-23.25"/>
<polygon fill="midnightblue" stroke="midnightblue" points="737.46,-34.09 747.84,-31.95 738.39,-27.15 737.46,-34.09"/>
</g>
<!-- Node3 -->
<g id="node3" class="node">
<title>Node3</title>
<g id="a_node3"><a xlink:href="classsignal__easel_1_1aprs_1_1Demodulator.html#a97af61f7afb63db275020ba523abcc3a" target="_top" xlink:title="If the packet was a telemetry packet, this function will try to parse the packet and populate the tel...">
<polygon fill="none" stroke="black" points="331,-50 331,-91 499,-91 499,-50 331,-50"/>
<text text-anchor="start" x="339" y="-79" font-family="Helvetica,sans-Serif" font-size="10.00">signal_easel::aprs</text>
<text text-anchor="start" x="339" y="-68" font-family="Helvetica,sans-Serif" font-size="10.00">::Demodulator::parseTelemetry</text>
<text text-anchor="middle" x="415" y="-57" font-family="Helvetica,sans-Serif" font-size="10.00">Packet</text>
</a>
</g>
</g>
<!-- Node2&#45;&gt;Node3 -->
<g id="edge2" class="edge">
<title>Node2&#45;&gt;Node3</title>
<path fill="none" stroke="midnightblue" d="M524.86,-70.5C516.25,-70.5 507.58,-70.5 499.11,-70.5"/>
<polygon fill="midnightblue" stroke="midnightblue" points="524.93,-74 534.93,-70.5 524.93,-67 524.93,-74"/>
</g>
<!-- Node4 -->
<g id="node4" class="node">
<title>Node4</title>
<g id="a_node4"><a xlink:href="classsignal__easel_1_1aprs_1_1Receiver.html#adc3c303795edba521a1e55e454ba610d" target="_top" xlink:title="Categorises and stores a frame that has already been parsed by aprs_demodulator_ (i....">
<polygon fill="none" stroke="black" points="143,-75 143,-116 295,-116 295,-75 143,-75"/>
<text text-anchor="start" x="151" y="-104" font-family="Helvetica,sans-Serif" font-size="10.00">signal_easel::aprs</text>
<text text-anchor="start" x="151" y="-93" font-family="Helvetica,sans-Serif" font-size="10.00">::Receiver::processDecoded</text>
<text text-anchor="middle" x="219" y="-82" font-family="Helvetica,sans-Serif" font-size="10.00">Frame</text>
</a>
</g>
</g>
<!-- Node3&#45;&gt;Node4 -->
<g id="edge3" class="edge">
<title>Node3&#45;&gt;Node4</title>
<path fill="none" stroke="midnightblue" d="M320.85,-82.5C312.28,-83.61 303.67,-84.72 295.28,-85.8"/>
<polygon fill="midnightblue" stroke="midnightblue" points="321.41,-85.96 330.88,-81.21 320.52,-79.02 321.41,-85.96"/>
</g>
<!-- Node6 -->
<g id="node6" class="node">
<title>Node6</title>
<g id="a_node6"><a xlink:href="aprs__test_8cpp.html#a8de4b7853d7e8c5ad2bb05a656082327" target="_top" xlink:title=" ">
<polygon fill="none" stroke="black" points="198.5,-37 198.5,-56 239.5,-56 239.5,-37 198.5,-37"/>
<text text-anchor="middle" x="219" y="-44" font-family="Helvetica,sans-Serif" font-size="10.00">TEST</text>
</a>
</g>
</g>
<!-- Node3&#45;&gt;Node6 -->
<g id="edge5" class="edge">
<title>Node3&#45;&gt;Node6</title>
<path fill="none" stroke="midnightblue" d="M320.95,-58.99C290.25,-55.19 259.03,-51.33 239.6,-48.92"/>
<polygon fill="midnightblue" stroke="midnightblue" points="320.53,-62.46 330.88,-60.22 321.39,-55.52 320.53,-62.46"/>
</g>
<!-- Node5 -->
<g id="node5" class="node">
<title>Node5</title>
<g id="a_node5"><a xlink:href="classsignal__easel_1_1aprs_1_1Receiver.html#afbf7869aceaf2ea7ab0be8b9af16e818" target="_top" xlink:title=" ">
<polygon fill="none" stroke="black" points="0,-80.5 0,-110.5 107,-110.5 107,-80.5 0,-80.5"/>
<text text-anchor="start" x="8" y="-98.5" font-family="Helvetica,sans-Serif" font-size="10.00">signal_easel::aprs</text>
<text text-anchor="middle" x="53.5" y="-87.5" font-family="Helvetica,sans-Serif" font-size="10.00">::Receiver::decode</text>
</a>
</g>
</g>
<!-- Node4&#45;&gt;Node5 -->
<g id="edge4" class="edge">
<title>Node4&#45;&gt;Node5</title>
<path fill="none" stroke="midnightblue" d="M132.73,-95.5C124.02,-95.5 115.37,-95.5 107.16,-95.5"/>
<polygon fill="midnightblue" stroke="midnightblue" points="132.95,-99 142.95,-95.5 132.95,-92 132.95,-99"/>
</g>
</g>
</svg>
