<?xml version="1.0" encoding="UTF-8" standalone="no"?>
<!DOCTYPE svg PUBLIC "-//W3C//DTD SVG 1.1//EN"
 "http://www.w3.org/Graphics/SVG/1.1/DTD/svg11.dtd">
<!-- Generated by graphviz version 2.43.0 (0)
 -->
<!-- Title: signal_easel::BitStream::addZeroBit Pages: 1 -->
<svg width="841pt" height="220pt"
 viewBox="0.00 0.00 841.00 220.00" xmlns="http://www.w3.org/2000/svg" xmlns:xlink="http://www.w3.org/1999/xlink">
<g id="graph0" class="graph" transform="scale(1 1) rotate(0) translate(4 216)">
<title>signal_easel::BitStream::addZeroBit</title>
<!-- Node1 -->
<g id="node1" class="node">
<title>Node1</title>
<g id="a_node1"><a xlink:title=" ">
<polygon fill="#bfbfbf" stroke="black" points="701,-128 701,-158 833,-158 833,-128 701,-128"/>
<text text-anchor="start" x="709" y="-146" font-family="Helvetica,sans-Serif" font-size="10.00">signal_easel::BitStream</text>
<text text-anchor="middle" x="767" y="-135" font-family="Helvetica,sans-Serif" font-size="10.00">::addZeroBit</text>
</a>
</g>
</g>
<!-- Node2 -->
<g id="node2" class="node">
<title>Node2</title>
<g id="a_node2"><a xlink:href="namespacesignal__easel_1_1ax25.html#a84e1d1bf82ef828a150bc94cf065e396" target="_top" xlink:title="Convert a bit stream from NRZI to standard encoding.">
<polygon fill="none" stroke="black" points="549,-168 549,-198 656,-198 656,-168 549,-168"/>
<text text-anchor="start" x="557" y="-186" font-family="Helvetica,sans-Serif" font-size="10.00">signal_easel::ax25</text>
<text text-anchor="middle" x="602.5" y="-175" font-family="Helvetica,sans-Serif" font-size="10.00">::decodeNrzi</text>
</a>
</g>
</g>
<!-- Node1&#45;&gt;Node2 -->
<g id="edge1" class="edge">
<title>Node1&#45;&gt;Node2</title>
<path fill="none" stroke="midnightblue" d="M695.09,-160.46C681.96,-163.69 668.48,-167.01 656.02,-170.07"/>
<polygon fill="midnightblue" stroke="midnightblue" points="696.16,-163.8 705.03,-158.01 694.48,-157 696.16,-163.8"/>
</g>
<!-- Node7 -->
<g id="node7" class="node">
<title>Node7</title>
<g id="a_node7"><a xlink:href="classsignal__easel_1_1ax25_1_1Frame.html#a2b4f6ebcb7592a7e5a21114c8fafa503" target="_top" xlink:title="A step beyond buildFrame. This function builds the frame, does the bit stuffing, adds the flags,...">
<polygon fill="none" stroke="black" points="540,-104 540,-134 665,-134 665,-104 540,-104"/>
<text text-anchor="start" x="548" y="-122" font-family="Helvetica,sans-Serif" font-size="10.00">signal_easel::ax25</text>
<text text-anchor="middle" x="602.5" y="-111" font-family="Helvetica,sans-Serif" font-size="10.00">::Frame::encodeFrame</text>
</a>
</g>
</g>
<!-- Node1&#45;&gt;Node7 -->
<g id="edge6" class="edge">
<title>Node1&#45;&gt;Node7</title>
<path fill="none" stroke="midnightblue" d="M690.84,-131.9C682.27,-130.63 673.61,-129.36 665.24,-128.12"/>
<polygon fill="midnightblue" stroke="midnightblue" points="690.44,-135.38 700.84,-133.38 691.46,-128.45 690.44,-135.38"/>
</g>
<!-- Node3 -->
<g id="node3" class="node">
<title>Node3</title>
<g id="a_node3"><a xlink:href="classsignal__easel_1_1ax25_1_1Frame.html#a63cf2362c2a90d20f09bbbc4f24a07ba" target="_top" xlink:title="Attempt to parse an incoming bit stream into an AX.25 frame.">
<polygon fill="none" stroke="black" points="361.5,-172 361.5,-202 496.5,-202 496.5,-172 361.5,-172"/>
<text text-anchor="start" x="369.5" y="-190" font-family="Helvetica,sans-Serif" font-size="10.00">signal_easel::ax25</text>
<text text-anchor="middle" x="429" y="-179" font-family="Helvetica,sans-Serif" font-size="10.00">::Frame::parseBitStream</text>
</a>
</g>
</g>
<!-- Node2&#45;&gt;Node3 -->
<g id="edge2" class="edge">
<title>Node2&#45;&gt;Node3</title>
<path fill="none" stroke="midnightblue" d="M538.42,-184.47C524.8,-184.79 510.37,-185.13 496.62,-185.45"/>
<polygon fill="midnightblue" stroke="midnightblue" points="538.73,-187.97 548.64,-184.23 538.57,-180.97 538.73,-187.97"/>
</g>
<!-- Node4 -->
<g id="node4" class="node">
<title>Node4</title>
<g id="a_node4"><a xlink:href="classsignal__easel_1_1aprs_1_1Demodulator.html#ae5a8e7634c1bc8d215a0c454a9a737fa" target="_top" xlink:title=" ">
<polygon fill="none" stroke="black" points="154,-170.5 154,-211.5 307,-211.5 307,-170.5 154,-170.5"/>
<text text-anchor="start" x="162" y="-199.5" font-family="Helvetica,sans-Serif" font-size="10.00">signal_easel::aprs</text>
<text text-anchor="start" x="162" y="-188.5" font-family="Helvetica,sans-Serif" font-size="10.00">::Demodulator::lookForAx25</text>
<text text-anchor="middle" x="230.5" y="-177.5" font-family="Helvetica,sans-Serif" font-size="10.00">Packet</text>
</a>
</g>
</g>
<!-- Node3&#45;&gt;Node4 -->
<g id="edge3" class="edge">
<title>Node3&#45;&gt;Node4</title>
<path fill="none" stroke="midnightblue" d="M351.08,-188.57C336.62,-188.86 321.51,-189.17 307.09,-189.46"/>
<polygon fill="midnightblue" stroke="midnightblue" points="351.55,-192.06 361.47,-188.35 351.4,-185.06 351.55,-192.06"/>
</g>
<!-- Node5 -->
<g id="node5" class="node">
<title>Node5</title>
<g id="a_node5"><a xlink:href="classsignal__easel_1_1aprs_1_1Receiver.html#afbf7869aceaf2ea7ab0be8b9af16e818" target="_top" xlink:title=" ">
<polygon fill="none" stroke="black" points="0,-176 0,-206 107,-206 107,-176 0,-176"/>
<text text-anchor="start" x="8" y="-194" font-family="Helvetica,sans-Serif" font-size="10.00">signal_easel::aprs</text>
<text text-anchor="middle" x="53.5" y="-183" font-family="Helvetica,sans-Serif" font-size="10.00">::Receiver::decode</text>
</a>
</g>
</g>
<!-- Node4&#45;&gt;Node5 -->
<g id="edge4" class="edge">
<title>Node4&#45;&gt;Node5</title>
<path fill="none" stroke="midnightblue" d="M143.4,-191C131.04,-191 118.63,-191 107.18,-191"/>
<polygon fill="midnightblue" stroke="midnightblue" points="143.76,-194.5 153.76,-191 143.76,-187.5 143.76,-194.5"/>
</g>
<!-- Node6 -->
<g id="node6" class="node">
<title>Node6</title>
<g id="a_node6"><a xlink:href="aprs__test_8cpp.html#aea66d1824e3f1e27598adf99ac6a089a" target="_top" xlink:title=" ">
<polygon fill="none" stroke="black" points="33,-104.5 33,-123.5 74,-123.5 74,-104.5 33,-104.5"/>
<text text-anchor="middle" x="53.5" y="-111.5" font-family="Helvetica,sans-Serif" font-size="10.00">TEST</text>
</a>
</g>
</g>
<!-- Node4&#45;&gt;Node6 -->
<g id="edge5" class="edge">
<title>Node4&#45;&gt;Node6</title>
<path fill="none" stroke="midnightblue" d="M159.25,-166.74C153.72,-164.55 148.24,-162.29 143,-160 117.29,-148.77 88.68,-133.33 71.14,-123.51"/>
<polygon fill="midnightblue" stroke="midnightblue" points="158.01,-170.01 168.6,-170.35 160.53,-163.48 158.01,-170.01"/>
</g>
<!-- Node8 -->
<g id="node8" class="node">
<title>Node8</title>
<g id="a_node8"><a xlink:href="namespacesignal__easel.html#aad3ffdd47a4a03ed438e8c1ca9eef231" target="_top" xlink:title=" ">
<polygon fill="none" stroke="black" points="354,-79.5 354,-98.5 504,-98.5 504,-79.5 354,-79.5"/>
<text text-anchor="middle" x="429" y="-86.5" font-family="Helvetica,sans-Serif" font-size="10.00">signal_easel::encodePacket</text>
</a>
</g>
</g>
<!-- Node7&#45;&gt;Node8 -->
<g id="edge7" class="edge">
<title>Node7&#45;&gt;Node8</title>
<path fill="none" stroke="midnightblue" d="M529.73,-106.45C514.58,-103.8 498.83,-101.04 484.44,-98.52"/>
<polygon fill="midnightblue" stroke="midnightblue" points="529.13,-109.89 539.58,-108.17 530.34,-103 529.13,-109.89"/>
</g>
<!-- Node9 -->
<g id="node9" class="node">
<title>Node9</title>
<g id="a_node9"><a xlink:href="classsignal__easel_1_1aprs_1_1Modulator.html#adfa8809d1c11321b9ff2c7efe7f58499" target="_top" xlink:title=" ">
<polygon fill="none" stroke="black" points="143,-121 143,-151 318,-151 318,-121 143,-121"/>
<text text-anchor="start" x="151" y="-139" font-family="Helvetica,sans-Serif" font-size="10.00">signal_easel::aprs</text>
<text text-anchor="middle" x="230.5" y="-128" font-family="Helvetica,sans-Serif" font-size="10.00">::Modulator::encodeMessageAck</text>
</a>
</g>
</g>
<!-- Node8&#45;&gt;Node9 -->
<g id="edge8" class="edge">
<title>Node8&#45;&gt;Node9</title>
<path fill="none" stroke="midnightblue" d="M378.42,-100.86C352.93,-106.96 321.59,-114.45 294.42,-120.95"/>
<polygon fill="midnightblue" stroke="midnightblue" points="379.32,-104.24 388.24,-98.51 377.7,-97.43 379.32,-104.24"/>
</g>
<!-- Node10 -->
<g id="node10" class="node">
<title>Node10</title>
<g id="a_node10"><a xlink:href="classsignal__easel_1_1aprs_1_1Modulator.html#a147321b48c2e282c62863f114702e54f" target="_top" xlink:title=" ">
<polygon fill="none" stroke="black" points="152,-60.5 152,-101.5 309,-101.5 309,-60.5 152,-60.5"/>
<text text-anchor="start" x="160" y="-89.5" font-family="Helvetica,sans-Serif" font-size="10.00">signal_easel::aprs</text>
<text text-anchor="start" x="160" y="-78.5" font-family="Helvetica,sans-Serif" font-size="10.00">::Modulator::encodeMessage</text>
<text text-anchor="middle" x="230.5" y="-67.5" font-family="Helvetica,sans-Serif" font-size="10.00">Packet</text>
</a>
</g>
</g>
<!-- Node8&#45;&gt;Node10 -->
<g id="edge9" class="edge">
<title>Node8&#45;&gt;Node10</title>
<path fill="none" stroke="midnightblue" d="M343.91,-85.58C332.33,-85.11 320.49,-84.62 309.05,-84.16"/>
<polygon fill="midnightblue" stroke="midnightblue" points="343.86,-89.08 353.99,-85.99 344.14,-82.08 343.86,-89.08"/>
</g>
<!-- Node11 -->
<g id="node11" class="node">
<title>Node11</title>
<g id="a_node11"><a xlink:href="classsignal__easel_1_1aprs_1_1Modulator.html#a943e392227656943d7db842e1889d805" target="_top" xlink:title=" ">
<polygon fill="none" stroke="black" points="154.5,-0.5 154.5,-41.5 306.5,-41.5 306.5,-0.5 154.5,-0.5"/>
<text text-anchor="start" x="162.5" y="-29.5" font-family="Helvetica,sans-Serif" font-size="10.00">signal_easel::aprs</text>
<text text-anchor="start" x="162.5" y="-18.5" font-family="Helvetica,sans-Serif" font-size="10.00">::Modulator::encodePosition</text>
<text text-anchor="middle" x="230.5" y="-7.5" font-family="Helvetica,sans-Serif" font-size="10.00">Packet</text>
</a>
</g>
</g>
<!-- Node8&#45;&gt;Node11 -->
<g id="edge11" class="edge">
<title>Node8&#45;&gt;Node11</title>
<path fill="none" stroke="midnightblue" d="M390.81,-76.13C362.69,-66.4 323.51,-52.84 291.04,-41.61"/>
<polygon fill="midnightblue" stroke="midnightblue" points="389.67,-79.44 400.26,-79.4 391.96,-72.82 389.67,-79.44"/>
</g>
<!-- Node10&#45;&gt;Node6 -->
<g id="edge10" class="edge">
<title>Node10&#45;&gt;Node6</title>
<path fill="none" stroke="midnightblue" d="M141.85,-97.53C116.36,-102.34 90.88,-107.14 74.08,-110.31"/>
<polygon fill="midnightblue" stroke="midnightblue" points="142.8,-100.91 151.98,-95.62 141.5,-94.03 142.8,-100.91"/>
</g>
</g>
</svg>
