<?xml version="1.0" encoding="UTF-8" standalone="no"?>
<!DOCTYPE svg PUBLIC "-//W3C//DTD SVG 1.1//EN"
 "http://www.w3.org/Graphics/SVG/1.1/DTD/svg11.dtd">
<!-- Generated by graphviz version 2.43.0 (0)
 -->
<!-- Title: signal_easel::aprs::telemetry::TelemetryTranscoder::decodeDataReportMessage Pages: 1 -->
<svg width="745pt" height="78pt"
 viewBox="0.00 0.00 745.00 77.50" xmlns="http://www.w3.org/2000/svg" xmlns:xlink="http://www.w3.org/1999/xlink">
<g id="graph0" class="graph" transform="scale(1 1) rotate(0) translate(4 73.5)">
<title>signal_easel::aprs::telemetry::TelemetryTranscoder::decodeDataReportMessage</title>
<!-- Node1 -->
<g id="node1" class="node">
<title>Node1</title>
<g id="a_node1"><a xlink:title="Decode a data report message.">
<polygon fill="#bfbfbf" stroke="black" points="560,-11.5 560,-52.5 737,-52.5 737,-11.5 560,-11.5"/>
<text text-anchor="start" x="568" y="-40.5" font-family="Helvetica,sans-Serif" font-size="10.00">signal_easel::aprs</text>
<text text-anchor="start" x="568" y="-29.5" font-family="Helvetica,sans-Serif" font-size="10.00">::telemetry::TelemetryTranscoder</text>
<text text-anchor="middle" x="648.5" y="-18.5" font-family="Helvetica,sans-Serif" font-size="10.00">::decodeDataReportMessage</text>
</a>
</g>
</g>
<!-- Node2 -->
<g id="node2" class="node">
<title>Node2</title>
<g id="a_node2"><a xlink:href="classsignal__easel_1_1aprs_1_1telemetry_1_1TelemetryTranscoder.html#a8728ebd6e5dbd7ca50a219fda62b7375" target="_top" xlink:title="Takes in the information field of an APRS telemetry message and decodes it with the appropriate metho...">
<polygon fill="none" stroke="black" points="347,-11.5 347,-52.5 524,-52.5 524,-11.5 347,-11.5"/>
<text text-anchor="start" x="355" y="-40.5" font-family="Helvetica,sans-Serif" font-size="10.00">signal_easel::aprs</text>
<text text-anchor="start" x="355" y="-29.5" font-family="Helvetica,sans-Serif" font-size="10.00">::telemetry::TelemetryTranscoder</text>
<text text-anchor="middle" x="435.5" y="-18.5" font-family="Helvetica,sans-Serif" font-size="10.00">::decodeMessage</text>
</a>
</g>
</g>
<!-- Node1&#45;&gt;Node2 -->
<g id="edge1" class="edge">
<title>Node1&#45;&gt;Node2</title>
<path fill="none" stroke="midnightblue" d="M549.58,-32C541.12,-32 532.59,-32 524.22,-32"/>
<polygon fill="midnightblue" stroke="midnightblue" points="549.85,-35.5 559.85,-32 549.85,-28.5 549.85,-35.5"/>
</g>
<!-- Node3 -->
<g id="node3" class="node">
<title>Node3</title>
<g id="a_node3"><a xlink:href="classsignal__easel_1_1aprs_1_1Demodulator.html#a97af61f7afb63db275020ba523abcc3a" target="_top" xlink:title="If the packet was a telemetry packet, this function will try to parse the packet and populate the tel...">
<polygon fill="none" stroke="black" points="143,-11.5 143,-52.5 311,-52.5 311,-11.5 143,-11.5"/>
<text text-anchor="start" x="151" y="-40.5" font-family="Helvetica,sans-Serif" font-size="10.00">signal_easel::aprs</text>
<text text-anchor="start" x="151" y="-29.5" font-family="Helvetica,sans-Serif" font-size="10.00">::Demodulator::parseTelemetry</text>
<text text-anchor="middle" x="227" y="-18.5" font-family="Helvetica,sans-Serif" font-size="10.00">Packet</text>
</a>
</g>
</g>
<!-- Node2&#45;&gt;Node3 -->
<g id="edge2" class="edge">
<title>Node2&#45;&gt;Node3</title>
<path fill="none" stroke="midnightblue" d="M336.86,-32C328.25,-32 319.58,-32 311.11,-32"/>
<polygon fill="midnightblue" stroke="midnightblue" points="336.93,-35.5 346.93,-32 336.93,-28.5 336.93,-35.5"/>
</g>
<!-- Node4 -->
<g id="node4" class="node">
<title>Node4</title>
<g id="a_node4"><a xlink:href="classsignal__easel_1_1aprs_1_1Receiver.html#afbf7869aceaf2ea7ab0be8b9af16e818" target="_top" xlink:title=" ">
<polygon fill="none" stroke="black" points="0,-39 0,-69 107,-69 107,-39 0,-39"/>
<text text-anchor="start" x="8" y="-57" font-family="Helvetica,sans-Serif" font-size="10.00">signal_easel::aprs</text>
<text text-anchor="middle" x="53.5" y="-46" font-family="Helvetica,sans-Serif" font-size="10.00">::Receiver::decode</text>
</a>
</g>
</g>
<!-- Node3&#45;&gt;Node4 -->
<g id="edge3" class="edge">
<title>Node3&#45;&gt;Node4</title>
<path fill="none" stroke="midnightblue" d="M132.83,-43.95C124.05,-45.08 115.37,-46.19 107.17,-47.24"/>
<polygon fill="midnightblue" stroke="midnightblue" points="133.29,-47.42 142.76,-42.68 132.4,-40.48 133.29,-47.42"/>
</g>
<!-- Node5 -->
<g id="node5" class="node">
<title>Node5</title>
<g id="a_node5"><a xlink:href="aprs__test_8cpp.html#a8de4b7853d7e8c5ad2bb05a656082327" target="_top" xlink:title=" ">
<polygon fill="none" stroke="black" points="33,-0.5 33,-19.5 74,-19.5 74,-0.5 33,-0.5"/>
<text text-anchor="middle" x="53.5" y="-7.5" font-family="Helvetica,sans-Serif" font-size="10.00">TEST</text>
</a>
</g>
</g>
<!-- Node3&#45;&gt;Node5 -->
<g id="edge4" class="edge">
<title>Node3&#45;&gt;Node5</title>
<path fill="none" stroke="midnightblue" d="M132.57,-20.01C110.43,-17.18 88.99,-14.42 74.2,-12.53"/>
<polygon fill="midnightblue" stroke="midnightblue" points="132.4,-23.52 142.76,-21.32 133.29,-16.58 132.4,-23.52"/>
</g>
</g>
</svg>
