<?xml version="1.0" encoding="UTF-8" standalone="no"?>
<!DOCTYPE svg PUBLIC "-//W3C//DTD SVG 1.1//EN"
 "http://www.w3.org/Graphics/SVG/1.1/DTD/svg11.dtd">
<!-- Generated by graphviz version 2.43.0 (0)
 -->
<!-- Title: signal_easel::ax25::Frame::getInformation Pages: 1 -->
<svg width="693pt" height="284pt"
 viewBox="0.00 0.00 693.00 284.00" xmlns="http://www.w3.org/2000/svg" xmlns:xlink="http://www.w3.org/1999/xlink">
<g id="graph0" class="graph" transform="scale(1 1) rotate(0) translate(4 280)">
<title>signal_easel::ax25::Frame::getInformation</title>
<!-- Node1 -->
<g id="node1" class="node">
<title>Node1</title>
<g id="a_node1"><a xlink:title=" ">
<polygon fill="#bfbfbf" stroke="black" points="553,-98 553,-128 685,-128 685,-98 553,-98"/>
<text text-anchor="start" x="561" y="-116" font-family="Helvetica,sans-Serif" font-size="10.00">signal_easel::ax25</text>
<text text-anchor="middle" x="619" y="-105" font-family="Helvetica,sans-Serif" font-size="10.00">::Frame::getInformation</text>
</a>
</g>
</g>
<!-- Node2 -->
<g id="node2" class="node">
<title>Node2</title>
<g id="a_node2"><a xlink:href="namespacesignal__easel_1_1aprs.html#aaee238dfb028415d1bb8604764e23c60" target="_top" xlink:title=" ">
<polygon fill="none" stroke="black" points="368,-183 368,-213 481,-213 481,-183 368,-183"/>
<text text-anchor="start" x="376" y="-201" font-family="Helvetica,sans-Serif" font-size="10.00">signal_easel::aprs</text>
<text text-anchor="middle" x="424.5" y="-190" font-family="Helvetica,sans-Serif" font-size="10.00">::classifyFrameType</text>
</a>
</g>
</g>
<!-- Node1&#45;&gt;Node2 -->
<g id="edge1" class="edge">
<title>Node1&#45;&gt;Node2</title>
<path fill="none" stroke="midnightblue" d="M587.99,-133.75C568.47,-146.49 542.07,-162.36 517,-173 505.78,-177.76 493.4,-181.86 481.47,-185.28"/>
<polygon fill="midnightblue" stroke="midnightblue" points="590.04,-136.58 596.44,-128.14 586.18,-130.75 590.04,-136.58"/>
</g>
<!-- Node7 -->
<g id="node7" class="node">
<title>Node7</title>
<g id="a_node7"><a xlink:href="classsignal__easel_1_1aprs_1_1Demodulator.html#a75e60a65289d36d717431705ed142be7" target="_top" xlink:title=" ">
<polygon fill="none" stroke="black" points="332,-62.5 332,-103.5 517,-103.5 517,-62.5 332,-62.5"/>
<text text-anchor="start" x="340" y="-91.5" font-family="Helvetica,sans-Serif" font-size="10.00">signal_easel::aprs</text>
<text text-anchor="start" x="340" y="-80.5" font-family="Helvetica,sans-Serif" font-size="10.00">::Demodulator::parseExperimental</text>
<text text-anchor="middle" x="424.5" y="-69.5" font-family="Helvetica,sans-Serif" font-size="10.00">Packet</text>
</a>
</g>
</g>
<!-- Node1&#45;&gt;Node7 -->
<g id="edge6" class="edge">
<title>Node1&#45;&gt;Node7</title>
<path fill="none" stroke="midnightblue" d="M542.75,-101.27C534.38,-99.97 525.79,-98.63 517.25,-97.3"/>
<polygon fill="midnightblue" stroke="midnightblue" points="542.41,-104.76 552.83,-102.84 543.49,-97.85 542.41,-104.76"/>
</g>
<!-- Node10 -->
<g id="node10" class="node">
<title>Node10</title>
<g id="a_node10"><a xlink:href="classsignal__easel_1_1aprs_1_1Demodulator.html#a8ea92084a8f961d7a11200652516177d" target="_top" xlink:title="If the packet was a message packet, this function will try to parse the packet into a message packet.">
<polygon fill="none" stroke="black" points="343,-122.5 343,-163.5 506,-163.5 506,-122.5 343,-122.5"/>
<text text-anchor="start" x="351" y="-151.5" font-family="Helvetica,sans-Serif" font-size="10.00">signal_easel::aprs</text>
<text text-anchor="start" x="351" y="-140.5" font-family="Helvetica,sans-Serif" font-size="10.00">::Demodulator::parseMessage</text>
<text text-anchor="middle" x="424.5" y="-129.5" font-family="Helvetica,sans-Serif" font-size="10.00">Packet</text>
</a>
</g>
</g>
<!-- Node1&#45;&gt;Node10 -->
<g id="edge10" class="edge">
<title>Node1&#45;&gt;Node10</title>
<path fill="none" stroke="midnightblue" d="M542.88,-124.71C530.88,-126.58 518.43,-128.52 506.31,-130.41"/>
<polygon fill="midnightblue" stroke="midnightblue" points="543.49,-128.15 552.83,-123.16 542.41,-121.24 543.49,-128.15"/>
</g>
<!-- Node11 -->
<g id="node11" class="node">
<title>Node11</title>
<g id="a_node11"><a xlink:href="classsignal__easel_1_1aprs_1_1Demodulator.html#a285cd33e16fa28925fe2acd3fe5029fb" target="_top" xlink:title="If the packet was a position packet, this function will try to parse the packet into it&#39;s positional ...">
<polygon fill="none" stroke="black" points="345.5,-2.5 345.5,-43.5 503.5,-43.5 503.5,-2.5 345.5,-2.5"/>
<text text-anchor="start" x="353.5" y="-31.5" font-family="Helvetica,sans-Serif" font-size="10.00">signal_easel::aprs</text>
<text text-anchor="start" x="353.5" y="-20.5" font-family="Helvetica,sans-Serif" font-size="10.00">::Demodulator::parsePosition</text>
<text text-anchor="middle" x="424.5" y="-9.5" font-family="Helvetica,sans-Serif" font-size="10.00">Packet</text>
</a>
</g>
</g>
<!-- Node1&#45;&gt;Node11 -->
<g id="edge13" class="edge">
<title>Node1&#45;&gt;Node11</title>
<path fill="none" stroke="midnightblue" d="M587.42,-92.44C567.87,-79.9 541.64,-64.19 517,-53 509.69,-49.68 501.91,-46.55 494.09,-43.66"/>
<polygon fill="midnightblue" stroke="midnightblue" points="585.61,-95.44 595.9,-97.95 589.42,-89.56 585.61,-95.44"/>
</g>
<!-- Node3 -->
<g id="node3" class="node">
<title>Node3</title>
<g id="a_node3"><a xlink:href="classsignal__easel_1_1aprs_1_1Demodulator.html#ae5a8e7634c1bc8d215a0c454a9a737fa" target="_top" xlink:title=" ">
<polygon fill="none" stroke="black" points="143,-234.5 143,-275.5 296,-275.5 296,-234.5 143,-234.5"/>
<text text-anchor="start" x="151" y="-263.5" font-family="Helvetica,sans-Serif" font-size="10.00">signal_easel::aprs</text>
<text text-anchor="start" x="151" y="-252.5" font-family="Helvetica,sans-Serif" font-size="10.00">::Demodulator::lookForAx25</text>
<text text-anchor="middle" x="219.5" y="-241.5" font-family="Helvetica,sans-Serif" font-size="10.00">Packet</text>
</a>
</g>
</g>
<!-- Node2&#45;&gt;Node3 -->
<g id="edge2" class="edge">
<title>Node2&#45;&gt;Node3</title>
<path fill="none" stroke="midnightblue" d="M360.08,-215.81C338.98,-221.73 315.3,-228.38 293.53,-234.49"/>
<polygon fill="midnightblue" stroke="midnightblue" points="361.22,-219.12 369.9,-213.05 359.32,-212.38 361.22,-219.12"/>
</g>
<!-- Node5 -->
<g id="node5" class="node">
<title>Node5</title>
<g id="a_node5"><a xlink:href="classsignal__easel_1_1aprs_1_1Demodulator.html#ab4819ac606d0ebf3e5ac235a3bf916df" target="_top" xlink:title="Like lookForAx25Packet, but parses a single AX.25 frame from an already NRZI&#45;decoded bit stream....">
<polygon fill="none" stroke="black" points="143.5,-174.5 143.5,-215.5 295.5,-215.5 295.5,-174.5 143.5,-174.5"/>
<text text-anchor="start" x="151.5" y="-203.5" font-family="Helvetica,sans-Serif" font-size="10.00">signal_easel::aprs</text>
<text text-anchor="start" x="151.5" y="-192.5" font-family="Helvetica,sans-Serif" font-size="10.00">::Demodulator::lookForNext</text>
<text text-anchor="middle" x="219.5" y="-181.5" font-family="Helvetica,sans-Serif" font-size="10.00">Ax25Packet</text>
</a>
</g>
</g>
<!-- Node2&#45;&gt;Node5 -->
<g id="edge4" class="edge">
<title>Node2&#45;&gt;Node5</title>
<path fill="none" stroke="midnightblue" d="M357.6,-197.03C337.78,-196.73 315.88,-196.41 295.51,-196.11"/>
<polygon fill="midnightblue" stroke="midnightblue" points="357.71,-200.53 367.76,-197.18 357.81,-193.53 357.71,-200.53"/>
</g>
<!-- Node4 -->
<g id="node4" class="node">
<title>Node4</title>
<g id="a_node4"><a xlink:href="aprs__test_8cpp.html#aea66d1824e3f1e27598adf99ac6a089a" target="_top" xlink:title=" ">
<polygon fill="none" stroke="black" points="33,-183.5 33,-202.5 74,-202.5 74,-183.5 33,-183.5"/>
<text text-anchor="middle" x="53.5" y="-190.5" font-family="Helvetica,sans-Serif" font-size="10.00">TEST</text>
</a>
</g>
</g>
<!-- Node3&#45;&gt;Node4 -->
<g id="edge3" class="edge">
<title>Node3&#45;&gt;Node4</title>
<path fill="none" stroke="midnightblue" d="M154.3,-230.73C125.63,-219.89 93.9,-207.9 74.08,-200.4"/>
<polygon fill="midnightblue" stroke="midnightblue" points="153.3,-234.09 163.89,-234.35 155.77,-227.54 153.3,-234.09"/>
</g>
<!-- Node6 -->
<g id="node6" class="node">
<title>Node6</title>
<g id="a_node6"><a xlink:href="classsignal__easel_1_1aprs_1_1Receiver.html#afbf7869aceaf2ea7ab0be8b9af16e818" target="_top" xlink:title=" ">
<polygon fill="none" stroke="black" points="0,-132 0,-162 107,-162 107,-132 0,-132"/>
<text text-anchor="start" x="8" y="-150" font-family="Helvetica,sans-Serif" font-size="10.00">signal_easel::aprs</text>
<text text-anchor="middle" x="53.5" y="-139" font-family="Helvetica,sans-Serif" font-size="10.00">::Receiver::decode</text>
</a>
</g>
</g>
<!-- Node5&#45;&gt;Node6 -->
<g id="edge5" class="edge">
<title>Node5&#45;&gt;Node6</title>
<path fill="none" stroke="midnightblue" d="M138.39,-171.55C127.42,-168.34 116.4,-165.12 106.12,-162.11"/>
<polygon fill="midnightblue" stroke="midnightblue" points="137.42,-174.92 148,-174.37 139.38,-168.2 137.42,-174.92"/>
</g>
<!-- Node8 -->
<g id="node8" class="node">
<title>Node8</title>
<g id="a_node8"><a xlink:href="classsignal__easel_1_1aprs_1_1Receiver.html#adc3c303795edba521a1e55e454ba610d" target="_top" xlink:title="Categorises and stores a frame that has already been parsed by aprs_demodulator_ (i....">
<polygon fill="none" stroke="black" points="143.5,-76.5 143.5,-117.5 295.5,-117.5 295.5,-76.5 143.5,-76.5"/>
<text text-anchor="start" x="151.5" y="-105.5" font-family="Helvetica,sans-Serif" font-size="10.00">signal_easel::aprs</text>
<text text-anchor="start" x="151.5" y="-94.5" font-family="Helvetica,sans-Serif" font-size="10.00">::Receiver::processDecoded</text>
<text text-anchor="middle" x="219.5" y="-83.5" font-family="Helvetica,sans-Serif" font-size="10.00">Frame</text>
</a>
</g>
</g>
<!-- Node7&#45;&gt;Node8 -->
<g id="edge7" class="edge">
<title>Node7&#45;&gt;Node8</title>
<path fill="none" stroke="midnightblue" d="M321.58,-90.03C312.85,-90.63 304.14,-91.23 295.68,-91.82"/>
<polygon fill="midnightblue" stroke="midnightblue" points="322.06,-93.5 331.8,-89.32 321.58,-86.52 322.06,-93.5"/>
</g>
<!-- Node9 -->
<g id="node9" class="node">
<title>Node9</title>
<g id="a_node9"><a xlink:href="aprs__test_8cpp.html#a94163b9a63db7738e0cf4c49259e1565" target="_top" xlink:title=" ">
<polygon fill="none" stroke="black" points="199,-38.5 199,-57.5 240,-57.5 240,-38.5 199,-38.5"/>
<text text-anchor="middle" x="219.5" y="-45.5" font-family="Helvetica,sans-Serif" font-size="10.00">TEST</text>
</a>
</g>
</g>
<!-- Node7&#45;&gt;Node9 -->
<g id="edge9" class="edge">
<title>Node7&#45;&gt;Node9</title>
<path fill="none" stroke="midnightblue" d="M321.74,-65.45C290.7,-60.1 259.69,-54.76 240.33,-51.42"/>
<polygon fill="midnightblue" stroke="midnightblue" points="321.35,-68.94 331.8,-67.19 322.54,-62.04 321.35,-68.94"/>
</g>
<!-- Node8&#45;&gt;Node6 -->
<g id="edge8" class="edge">
<title>Node8&#45;&gt;Node6</title>
<path fill="none" stroke="midnightblue" d="M141.21,-120.56C128.54,-124.43 115.72,-128.34 103.96,-131.92"/>
<polygon fill="midnightblue" stroke="midnightblue" points="142.3,-123.89 150.85,-117.63 140.26,-117.19 142.3,-123.89"/>
</g>
<!-- Node10&#45;&gt;Node4 -->
<g id="edge12" class="edge">
<title>Node10&#45;&gt;Node4</title>
<path fill="none" stroke="midnightblue" d="M332.62,-144.89C277.37,-147.33 205.63,-152.8 143,-165 118.8,-169.71 91.91,-178.79 74.2,-185.34"/>
<polygon fill="midnightblue" stroke="midnightblue" points="332.9,-148.38 342.74,-144.46 332.61,-141.38 332.9,-148.38"/>
</g>
<!-- Node10&#45;&gt;Node8 -->
<g id="edge11" class="edge">
<title>Node10&#45;&gt;Node8</title>
<path fill="none" stroke="midnightblue" d="M333.02,-122.5C320.53,-119.67 307.81,-116.79 295.64,-114.03"/>
<polygon fill="midnightblue" stroke="midnightblue" points="332.45,-125.96 342.98,-124.75 334,-119.13 332.45,-125.96"/>
</g>
<!-- Node11&#45;&gt;Node8 -->
<g id="edge14" class="edge">
<title>Node11&#45;&gt;Node8</title>
<path fill="none" stroke="midnightblue" d="M349.83,-46.73C343.78,-48.81 337.78,-50.91 332,-53 325.79,-55.24 298.3,-66.09 272.17,-76.45"/>
<polygon fill="midnightblue" stroke="midnightblue" points="351,-50.03 359.34,-43.5 348.75,-43.4 351,-50.03"/>
</g>
<!-- Node12 -->
<g id="node12" class="node">
<title>Node12</title>
<g id="a_node12"><a xlink:href="aprs__test_8cpp.html#a8f1884a85326fa2424719d09dd551947" target="_top" xlink:title=" ">
<polygon fill="none" stroke="black" points="199,-0.5 199,-19.5 240,-19.5 240,-0.5 199,-0.5"/>
<text text-anchor="middle" x="219.5" y="-7.5" font-family="Helvetica,sans-Serif" font-size="10.00">TEST</text>
</a>
</g>
</g>
<!-- Node11&#45;&gt;Node12 -->
<g id="edge15" class="edge">
<title>Node11&#45;&gt;Node12</title>
<path fill="none" stroke="midnightblue" d="M334.91,-17.33C299.56,-15.06 262.07,-12.66 240.01,-11.25"/>
<polygon fill="midnightblue" stroke="midnightblue" points="335.1,-20.85 345.31,-17.99 335.55,-13.86 335.1,-20.85"/>
</g>
</g>
</svg>
