<?xml version="1.0" encoding="UTF-8" standalone="no"?>
<!DOCTYPE svg PUBLIC "-//W3C//DTD SVG 1.1//EN"
 "http://www.w3.org/Graphics/SVG/1.1/DTD/svg11.dtd">
<!-- Generated by graphviz version 2.43.0 (0)
 -->
<!-- Title: signal_easel::aprs::telemetry::TelemetryTranscoder::decodeMessage Pages: 1 -->
<svg width="638pt" height="400pt"
 viewBox="0.00 0.00 638.00 400.00" xmlns="http://www.w3.org/2000/svg" xmlns:xlink="http://www.w3.org/1999/xlink">
<g id="graph0" class="graph" transform="scale(1 1) rotate(0) translate(4 396)">
<title>signal_easel::aprs::telemetry::TelemetryTranscoder::decodeMessage</title>
<!-- Node1 -->
<g id="node1" class="node">
<title>Node1</title>
<g id="a_node1"><a xlink:title="Takes in the information field of an APRS telemetry message and decodes it with the appropriate metho...">
<polygon fill="#bfbfbf" stroke="black" points="0,-170.5 0,-211.5 177,-211.5 177,-170.5 0,-170.5"/>
<text text-anchor="start" x="8" y="-199.5" font-family="Helvetica,sans-Serif" font-size="10.00">signal_easel::aprs</text>
<text text-anchor="start" x="8" y="-188.5" font-family="Helvetica,sans-Serif" font-size="10.00">::telemetry::TelemetryTranscoder</text>
<text text-anchor="middle" x="88.5" y="-177.5" font-family="Helvetica,sans-Serif" font-size="10.00">::decodeMessage</text>
</a>
</g>
</g>
<!-- Node2 -->
<g id="node2" class="node">
<title>Node2</title>
<g id="a_node2"><a xlink:href="classsignal__easel_1_1aprs_1_1telemetry_1_1TelemetryTranscoder.html#a3633b357cad1d35d2f59846a8ad66672" target="_top" xlink:title="Decode the bit sense / project name message.">
<polygon fill="none" stroke="black" points="226.5,-290.5 226.5,-331.5 403.5,-331.5 403.5,-290.5 226.5,-290.5"/>
<text text-anchor="start" x="234.5" y="-319.5" font-family="Helvetica,sans-Serif" font-size="10.00">signal_easel::aprs</text>
<text text-anchor="start" x="234.5" y="-308.5" font-family="Helvetica,sans-Serif" font-size="10.00">::telemetry::TelemetryTranscoder</text>
<text text-anchor="middle" x="315" y="-297.5" font-family="Helvetica,sans-Serif" font-size="10.00">::decodeBitSenseMessage</text>
</a>
</g>
</g>
<!-- Node1&#45;&gt;Node2 -->
<g id="edge1" class="edge">
<title>Node1&#45;&gt;Node2</title>
<path fill="none" stroke="midnightblue" d="M112.52,-211.54C136.22,-231.73 174.95,-262.18 213,-281 217.08,-283.02 221.31,-284.92 225.64,-286.72"/>
<polygon fill="midnightblue" stroke="midnightblue" points="224.65,-290.09 235.23,-290.5 227.21,-283.58 224.65,-290.09"/>
</g>
<!-- Node6 -->
<g id="node6" class="node">
<title>Node6</title>
<g id="a_node6"><a xlink:href="classsignal__easel_1_1aprs_1_1telemetry_1_1TelemetryTranscoder.html#afe0271b7bbae16a79c2bd4e77d4f3945" target="_top" xlink:title="Decode a data report message.">
<polygon fill="none" stroke="black" points="226.5,-110.5 226.5,-151.5 403.5,-151.5 403.5,-110.5 226.5,-110.5"/>
<text text-anchor="start" x="234.5" y="-139.5" font-family="Helvetica,sans-Serif" font-size="10.00">signal_easel::aprs</text>
<text text-anchor="start" x="234.5" y="-128.5" font-family="Helvetica,sans-Serif" font-size="10.00">::telemetry::TelemetryTranscoder</text>
<text text-anchor="middle" x="315" y="-117.5" font-family="Helvetica,sans-Serif" font-size="10.00">::decodeDataReportMessage</text>
</a>
</g>
</g>
<!-- Node1&#45;&gt;Node6 -->
<g id="edge5" class="edge">
<title>Node1&#45;&gt;Node6</title>
<path fill="none" stroke="midnightblue" d="M166.45,-170.44C186.08,-165.19 207.32,-159.51 227.4,-154.14"/>
<polygon fill="midnightblue" stroke="midnightblue" points="228.4,-157.5 237.15,-151.54 226.59,-150.74 228.4,-157.5"/>
</g>
<!-- Node10 -->
<g id="node10" class="node">
<title>Node10</title>
<g id="a_node10"><a xlink:href="classsignal__easel_1_1aprs_1_1telemetry_1_1TelemetryTranscoder.html#a581c58aa360dc40ddcbc475b96b25942" target="_top" xlink:title="Decode the parameter coefficients message.">
<polygon fill="none" stroke="black" points="213,-170.5 213,-211.5 417,-211.5 417,-170.5 213,-170.5"/>
<text text-anchor="start" x="221" y="-199.5" font-family="Helvetica,sans-Serif" font-size="10.00">signal_easel::aprs</text>
<text text-anchor="start" x="221" y="-188.5" font-family="Helvetica,sans-Serif" font-size="10.00">::telemetry::TelemetryTranscoder</text>
<text text-anchor="middle" x="315" y="-177.5" font-family="Helvetica,sans-Serif" font-size="10.00">::decodeParameterCoefficientMessage</text>
</a>
</g>
</g>
<!-- Node1&#45;&gt;Node10 -->
<g id="edge10" class="edge">
<title>Node1&#45;&gt;Node10</title>
<path fill="none" stroke="midnightblue" d="M177.26,-191C185.66,-191 194.25,-191 202.83,-191"/>
<polygon fill="midnightblue" stroke="midnightblue" points="202.89,-194.5 212.89,-191 202.89,-187.5 202.89,-194.5"/>
</g>
<!-- Node12 -->
<g id="node12" class="node">
<title>Node12</title>
<g id="a_node12"><a xlink:href="classsignal__easel_1_1aprs_1_1telemetry_1_1TelemetryTranscoder.html#a74a84913b8e86de5b415616ecbd853b8" target="_top" xlink:title="Decode a name or unit/label message. They&#39;re the same format.">
<polygon fill="none" stroke="black" points="226.5,-230.5 226.5,-271.5 403.5,-271.5 403.5,-230.5 226.5,-230.5"/>
<text text-anchor="start" x="234.5" y="-259.5" font-family="Helvetica,sans-Serif" font-size="10.00">signal_easel::aprs</text>
<text text-anchor="start" x="234.5" y="-248.5" font-family="Helvetica,sans-Serif" font-size="10.00">::telemetry::TelemetryTranscoder</text>
<text text-anchor="middle" x="315" y="-237.5" font-family="Helvetica,sans-Serif" font-size="10.00">::decodeParameterDescriptor</text>
</a>
</g>
</g>
<!-- Node1&#45;&gt;Node12 -->
<g id="edge14" class="edge">
<title>Node1&#45;&gt;Node12</title>
<path fill="none" stroke="midnightblue" d="M166.45,-211.56C186.08,-216.81 207.32,-222.49 227.4,-227.86"/>
<polygon fill="midnightblue" stroke="midnightblue" points="226.59,-231.26 237.15,-230.46 228.4,-224.5 226.59,-231.26"/>
</g>
<!-- Node13 -->
<g id="node13" class="node">
<title>Node13</title>
<g id="a_node13"><a xlink:href="classsignal__easel_1_1aprs_1_1telemetry_1_1TelemetryData.html#a8daed50d0a02a99c50e19e6985391823" target="_top" xlink:title="Set the address of the station that is sending the telemetry data for use in the parameter name,...">
<polygon fill="none" stroke="black" points="235,-50.5 235,-91.5 395,-91.5 395,-50.5 235,-50.5"/>
<text text-anchor="start" x="243" y="-79.5" font-family="Helvetica,sans-Serif" font-size="10.00">signal_easel::aprs</text>
<text text-anchor="start" x="243" y="-68.5" font-family="Helvetica,sans-Serif" font-size="10.00">::telemetry::TelemetryData</text>
<text text-anchor="middle" x="315" y="-57.5" font-family="Helvetica,sans-Serif" font-size="10.00">::setTelemetryStationAddress</text>
</a>
</g>
</g>
<!-- Node1&#45;&gt;Node13 -->
<g id="edge18" class="edge">
<title>Node1&#45;&gt;Node13</title>
<path fill="none" stroke="midnightblue" d="M112.52,-170.46C136.22,-150.27 174.95,-119.82 213,-101 217.08,-98.98 221.31,-97.08 225.64,-95.28"/>
<polygon fill="midnightblue" stroke="midnightblue" points="227.21,-98.42 235.23,-91.5 224.65,-91.91 227.21,-98.42"/>
</g>
<!-- Node3 -->
<g id="node3" class="node">
<title>Node3</title>
<g id="a_node3"><a xlink:href="classsignal__easel_1_1aprs_1_1telemetry_1_1TelemetryTranscoder.html#a23b19f60f731079282eb88c5ab433579" target="_top" xlink:title="Validate the first few bytes of a message.">
<polygon fill="none" stroke="black" points="453,-290.5 453,-331.5 630,-331.5 630,-290.5 453,-290.5"/>
<text text-anchor="start" x="461" y="-319.5" font-family="Helvetica,sans-Serif" font-size="10.00">signal_easel::aprs</text>
<text text-anchor="start" x="461" y="-308.5" font-family="Helvetica,sans-Serif" font-size="10.00">::telemetry::TelemetryTranscoder</text>
<text text-anchor="middle" x="541.5" y="-297.5" font-family="Helvetica,sans-Serif" font-size="10.00">::decodeValidateHeader</text>
</a>
</g>
</g>
<!-- Node2&#45;&gt;Node3 -->
<g id="edge2" class="edge">
<title>Node2&#45;&gt;Node3</title>
<path fill="none" stroke="midnightblue" d="M403.76,-311C416.47,-311 429.63,-311 442.52,-311"/>
<polygon fill="midnightblue" stroke="midnightblue" points="442.8,-314.5 452.8,-311 442.8,-307.5 442.8,-314.5"/>
</g>
<!-- Node4 -->
<g id="node4" class="node">
<title>Node4</title>
<g id="a_node4"><a xlink:href="classsignal__easel_1_1aprs_1_1telemetry_1_1TelemetryData.html#afeb4d3aa91fc5deb8123589daccd87ea" target="_top" xlink:title=" ">
<polygon fill="none" stroke="black" points="467.5,-230.5 467.5,-271.5 615.5,-271.5 615.5,-230.5 467.5,-230.5"/>
<text text-anchor="start" x="475.5" y="-259.5" font-family="Helvetica,sans-Serif" font-size="10.00">signal_easel::aprs</text>
<text text-anchor="start" x="475.5" y="-248.5" font-family="Helvetica,sans-Serif" font-size="10.00">::telemetry::TelemetryData</text>
<text text-anchor="middle" x="541.5" y="-237.5" font-family="Helvetica,sans-Serif" font-size="10.00">::getDigitalParameters</text>
</a>
</g>
</g>
<!-- Node2&#45;&gt;Node4 -->
<g id="edge3" class="edge">
<title>Node2&#45;&gt;Node4</title>
<path fill="none" stroke="midnightblue" d="M392.95,-290.44C413.77,-284.87 436.39,-278.82 457.52,-273.18"/>
<polygon fill="midnightblue" stroke="midnightblue" points="458.68,-276.49 467.44,-270.53 456.88,-269.73 458.68,-276.49"/>
</g>
<!-- Node5 -->
<g id="node5" class="node">
<title>Node5</title>
<g id="a_node5"><a xlink:href="classsignal__easel_1_1aprs_1_1telemetry_1_1TelemetryData.html#a275ba1315153f5513e61ef640562530b" target="_top" xlink:title="Set the project title. Must be less than 23 characters. If the project title is too long,...">
<polygon fill="none" stroke="black" points="467.5,-350.5 467.5,-391.5 615.5,-391.5 615.5,-350.5 467.5,-350.5"/>
<text text-anchor="start" x="475.5" y="-379.5" font-family="Helvetica,sans-Serif" font-size="10.00">signal_easel::aprs</text>
<text text-anchor="start" x="475.5" y="-368.5" font-family="Helvetica,sans-Serif" font-size="10.00">::telemetry::TelemetryData</text>
<text text-anchor="middle" x="541.5" y="-357.5" font-family="Helvetica,sans-Serif" font-size="10.00">::setProjectTitle</text>
</a>
</g>
</g>
<!-- Node2&#45;&gt;Node5 -->
<g id="edge4" class="edge">
<title>Node2&#45;&gt;Node5</title>
<path fill="none" stroke="midnightblue" d="M392.95,-331.56C413.77,-337.13 436.39,-343.18 457.52,-348.82"/>
<polygon fill="midnightblue" stroke="midnightblue" points="456.88,-352.27 467.44,-351.47 458.68,-345.51 456.88,-352.27"/>
</g>
<!-- Node6&#45;&gt;Node4 -->
<g id="edge7" class="edge">
<title>Node6&#45;&gt;Node4</title>
<path fill="none" stroke="midnightblue" d="M402.53,-151.73C407.64,-154.45 412.52,-157.53 417,-161 441.58,-180.06 428.83,-201.44 453,-221 454.78,-222.44 456.62,-223.81 458.53,-225.11"/>
<polygon fill="midnightblue" stroke="midnightblue" points="456.87,-228.2 467.23,-230.43 460.53,-222.23 456.87,-228.2"/>
</g>
<!-- Node7 -->
<g id="node7" class="node">
<title>Node7</title>
<g id="a_node7"><a xlink:href="classsignal__easel_1_1aprs_1_1telemetry_1_1TelemetryData.html#a953b60ecf9067ab71e13de6fdfdcfeec" target="_top" xlink:title=" ">
<polygon fill="none" stroke="black" points="467.5,-120.5 467.5,-161.5 615.5,-161.5 615.5,-120.5 467.5,-120.5"/>
<text text-anchor="start" x="475.5" y="-149.5" font-family="Helvetica,sans-Serif" font-size="10.00">signal_easel::aprs</text>
<text text-anchor="start" x="475.5" y="-138.5" font-family="Helvetica,sans-Serif" font-size="10.00">::telemetry::TelemetryData</text>
<text text-anchor="middle" x="541.5" y="-127.5" font-family="Helvetica,sans-Serif" font-size="10.00">::getAnalogParameters</text>
</a>
</g>
</g>
<!-- Node6&#45;&gt;Node7 -->
<g id="edge6" class="edge">
<title>Node6&#45;&gt;Node7</title>
<path fill="none" stroke="midnightblue" d="M403.76,-134.91C421.34,-135.69 439.76,-136.51 457.19,-137.29"/>
<polygon fill="midnightblue" stroke="midnightblue" points="457.17,-140.79 467.32,-137.74 457.48,-133.8 457.17,-140.79"/>
</g>
<!-- Node8 -->
<g id="node8" class="node">
<title>Node8</title>
<g id="a_node8"><a xlink:href="classsignal__easel_1_1aprs_1_1telemetry_1_1TelemetryData.html#a76c46a2b54c40e87c984d957f0439b43" target="_top" xlink:title="Set the comment. Must be less than 220 characters. If the comment is too long, it will be truncated.">
<polygon fill="none" stroke="black" points="467.5,-0.5 467.5,-41.5 615.5,-41.5 615.5,-0.5 467.5,-0.5"/>
<text text-anchor="start" x="475.5" y="-29.5" font-family="Helvetica,sans-Serif" font-size="10.00">signal_easel::aprs</text>
<text text-anchor="start" x="475.5" y="-18.5" font-family="Helvetica,sans-Serif" font-size="10.00">::telemetry::TelemetryData</text>
<text text-anchor="middle" x="541.5" y="-7.5" font-family="Helvetica,sans-Serif" font-size="10.00">::setComment</text>
</a>
</g>
</g>
<!-- Node6&#45;&gt;Node8 -->
<g id="edge8" class="edge">
<title>Node6&#45;&gt;Node8</title>
<path fill="none" stroke="midnightblue" d="M400.94,-110.45C406.59,-107.68 412,-104.55 417,-101 439.32,-85.14 431.01,-67.32 453,-51 455.09,-49.45 457.26,-47.98 459.5,-46.58"/>
<polygon fill="midnightblue" stroke="midnightblue" points="461.45,-49.5 468.43,-41.53 458,-43.4 461.45,-49.5"/>
</g>
<!-- Node9 -->
<g id="node9" class="node">
<title>Node9</title>
<g id="a_node9"><a xlink:href="classsignal__easel_1_1aprs_1_1telemetry_1_1TelemetryData.html#a06202af15469a4f816c38c1a980c589d" target="_top" xlink:title="Set the sequence number. Must be less than 1000. If the sequence number is greater than 999,...">
<polygon fill="none" stroke="black" points="467.5,-60.5 467.5,-101.5 615.5,-101.5 615.5,-60.5 467.5,-60.5"/>
<text text-anchor="start" x="475.5" y="-89.5" font-family="Helvetica,sans-Serif" font-size="10.00">signal_easel::aprs</text>
<text text-anchor="start" x="475.5" y="-78.5" font-family="Helvetica,sans-Serif" font-size="10.00">::telemetry::TelemetryData</text>
<text text-anchor="middle" x="541.5" y="-67.5" font-family="Helvetica,sans-Serif" font-size="10.00">::setSequenceNumber</text>
</a>
</g>
</g>
<!-- Node6&#45;&gt;Node9 -->
<g id="edge9" class="edge">
<title>Node6&#45;&gt;Node9</title>
<path fill="none" stroke="midnightblue" d="M403.76,-111.45C421.34,-107.54 439.76,-103.44 457.19,-99.56"/>
<polygon fill="midnightblue" stroke="midnightblue" points="458.32,-102.89 467.32,-97.3 456.79,-96.06 458.32,-102.89"/>
</g>
<!-- Node10&#45;&gt;Node3 -->
<g id="edge11" class="edge">
<title>Node10&#45;&gt;Node3</title>
<path fill="none" stroke="midnightblue" d="M402.53,-211.73C407.64,-214.45 412.52,-217.53 417,-221 441.58,-240.06 428.83,-261.44 453,-281 454.78,-282.44 456.62,-283.81 458.53,-285.11"/>
<polygon fill="midnightblue" stroke="midnightblue" points="456.87,-288.2 467.23,-290.43 460.53,-282.23 456.87,-288.2"/>
</g>
<!-- Node10&#45;&gt;Node7 -->
<g id="edge12" class="edge">
<title>Node10&#45;&gt;Node7</title>
<path fill="none" stroke="midnightblue" d="M408.28,-170.45C424.61,-166.81 441.52,-163.05 457.56,-159.47"/>
<polygon fill="midnightblue" stroke="midnightblue" points="458.43,-162.86 467.43,-157.27 456.91,-156.03 458.43,-162.86"/>
</g>
<!-- Node11 -->
<g id="node11" class="node">
<title>Node11</title>
<g id="a_node11"><a xlink:href="namespacesignal__easel_1_1aprs_1_1telemetry.html#a06228386caafe56440016944e280b484" target="_top" xlink:title="Validate the format of a coefficient.">
<polygon fill="none" stroke="black" points="457.5,-181 457.5,-211 625.5,-211 625.5,-181 457.5,-181"/>
<text text-anchor="start" x="465.5" y="-199" font-family="Helvetica,sans-Serif" font-size="10.00">signal_easel::aprs</text>
<text text-anchor="middle" x="541.5" y="-188" font-family="Helvetica,sans-Serif" font-size="10.00">::telemetry::validateCoefficient</text>
</a>
</g>
</g>
<!-- Node10&#45;&gt;Node11 -->
<g id="edge13" class="edge">
<title>Node10&#45;&gt;Node11</title>
<path fill="none" stroke="midnightblue" d="M417.09,-193.25C427.11,-193.47 437.24,-193.7 447.18,-193.92"/>
<polygon fill="midnightblue" stroke="midnightblue" points="447.37,-197.43 457.45,-194.15 447.53,-190.43 447.37,-197.43"/>
</g>
<!-- Node12&#45;&gt;Node3 -->
<g id="edge15" class="edge">
<title>Node12&#45;&gt;Node3</title>
<path fill="none" stroke="midnightblue" d="M392.95,-271.56C412.58,-276.81 433.82,-282.49 453.9,-287.86"/>
<polygon fill="midnightblue" stroke="midnightblue" points="453.09,-291.26 463.65,-290.46 454.9,-284.5 453.09,-291.26"/>
</g>
<!-- Node12&#45;&gt;Node4 -->
<g id="edge17" class="edge">
<title>Node12&#45;&gt;Node4</title>
<path fill="none" stroke="midnightblue" d="M403.76,-251C421.34,-251 439.76,-251 457.19,-251"/>
<polygon fill="midnightblue" stroke="midnightblue" points="457.32,-254.5 467.32,-251 457.32,-247.5 457.32,-254.5"/>
</g>
<!-- Node12&#45;&gt;Node7 -->
<g id="edge16" class="edge">
<title>Node12&#45;&gt;Node7</title>
<path fill="none" stroke="midnightblue" d="M400.91,-230.4C406.56,-227.64 411.99,-224.53 417,-221 439.1,-205.45 431.31,-188.11 453,-172 455.65,-170.03 458.44,-168.18 461.33,-166.43"/>
<polygon fill="midnightblue" stroke="midnightblue" points="463.16,-169.42 470.24,-161.53 459.79,-163.29 463.16,-169.42"/>
</g>
</g>
</svg>
