<?xml version="1.0" encoding="UTF-8" standalone="no"?>
<!DOCTYPE svg PUBLIC "-//W3C//DTD SVG 1.1//EN"
 "http://www.w3.org/Graphics/SVG/1.1/DTD/svg11.dtd">
<!-- Generated by graphviz version 2.43.0 (0)
 -->
<!-- Title: signal_easel::ax25::Address::isSsidValid Pages: 1 -->
<svg width="1489pt" height="411pt"
 viewBox="0.00 0.00 1489.00 410.50" xmlns="http://www.w3.org/2000/svg" xmlns:xlink="http://www.w3.org/1999/xlink">
<g id="graph0" class="graph" transform="scale(1 1) rotate(0) translate(4 406.5)">
<title>signal_easel::ax25::Address::isSsidValid</title>
<!-- Node1 -->
<g id="node1" class="node">
<title>Node1</title>
<g id="a_node1"><a xlink:title=" ">
<polygon fill="#bfbfbf" stroke="black" points="1361,-193 1361,-223 1481,-223 1481,-193 1361,-193"/>
<text text-anchor="start" x="1369" y="-211" font-family="Helvetica,sans-Serif" font-size="10.00">signal_easel::ax25</text>
<text text-anchor="middle" x="1421" y="-200" font-family="Helvetica,sans-Serif" font-size="10.00">::Address::isSsidValid</text>
</a>
</g>
</g>
<!-- Node2 -->
<g id="node2" class="node">
<title>Node2</title>
<g id="a_node2"><a xlink:href="classsignal__easel_1_1ax25_1_1Address.html#a8b44c6e311d3462bd86eda03c1d384f0" target="_top" xlink:title=" ">
<polygon fill="none" stroke="black" points="1175,-237 1175,-267 1325,-267 1325,-237 1175,-237"/>
<text text-anchor="start" x="1183" y="-255" font-family="Helvetica,sans-Serif" font-size="10.00">signal_easel::ax25</text>
<text text-anchor="middle" x="1250" y="-244" font-family="Helvetica,sans-Serif" font-size="10.00">::Address::assertSsidIsValid</text>
</a>
</g>
</g>
<!-- Node1&#45;&gt;Node2 -->
<g id="edge1" class="edge">
<title>Node1&#45;&gt;Node2</title>
<path fill="none" stroke="midnightblue" d="M1352.42,-225.59C1337.95,-229.36 1322.78,-233.31 1308.71,-236.97"/>
<polygon fill="midnightblue" stroke="midnightblue" points="1353.52,-228.93 1362.31,-223.02 1351.75,-222.15 1353.52,-228.93"/>
</g>
<!-- Node25 -->
<g id="node25" class="node">
<title>Node25</title>
<g id="a_node25"><a xlink:href="classsignal__easel_1_1ax25_1_1Address.html#aae81920cfd0dc7d89cb107f9d825488c" target="_top" xlink:title="If the address is valid (can be encoded correctly or was decoded)">
<polygon fill="none" stroke="black" points="1014.5,-88 1014.5,-118 1121.5,-118 1121.5,-88 1014.5,-88"/>
<text text-anchor="start" x="1022.5" y="-106" font-family="Helvetica,sans-Serif" font-size="10.00">signal_easel::ax25</text>
<text text-anchor="middle" x="1068" y="-95" font-family="Helvetica,sans-Serif" font-size="10.00">::Address::isValid</text>
</a>
</g>
</g>
<!-- Node1&#45;&gt;Node25 -->
<g id="edge31" class="edge">
<title>Node1&#45;&gt;Node25</title>
<path fill="none" stroke="midnightblue" d="M1360.01,-190.05C1292.12,-169.74 1182.75,-137.03 1119.2,-118.02"/>
<polygon fill="midnightblue" stroke="midnightblue" points="1359.13,-193.44 1369.71,-192.96 1361.13,-186.74 1359.13,-193.44"/>
</g>
<!-- Node3 -->
<g id="node3" class="node">
<title>Node3</title>
<g id="a_node3"><a xlink:href="classsignal__easel_1_1ax25_1_1Address.html#a7fa6b0ef4241413893f201660991e4ea" target="_top" xlink:title="Checks if the address is valid, if not throws an exception with a specific error code.">
<polygon fill="none" stroke="black" points="1003,-188 1003,-218 1133,-218 1133,-188 1003,-188"/>
<text text-anchor="start" x="1011" y="-206" font-family="Helvetica,sans-Serif" font-size="10.00">signal_easel::ax25</text>
<text text-anchor="middle" x="1068" y="-195" font-family="Helvetica,sans-Serif" font-size="10.00">::Address::assertIsValid</text>
</a>
</g>
</g>
<!-- Node2&#45;&gt;Node3 -->
<g id="edge2" class="edge">
<title>Node2&#45;&gt;Node3</title>
<path fill="none" stroke="midnightblue" d="M1183.8,-234.25C1164.29,-228.94 1143.1,-223.17 1124.29,-218.05"/>
<polygon fill="midnightblue" stroke="midnightblue" points="1182.96,-237.65 1193.53,-236.9 1184.8,-230.89 1182.96,-237.65"/>
</g>
<!-- Node21 -->
<g id="node21" class="node">
<title>Node21</title>
<g id="a_node21"><a xlink:href="classsignal__easel_1_1ax25_1_1Address.html#a6a2594f26aa1d2a46e33d7da1a1d5fdd" target="_top" xlink:title="Decode an AX.25 address from it&#39;s byte array representation.">
<polygon fill="none" stroke="black" points="997,-359 997,-389 1139,-389 1139,-359 997,-359"/>
<text text-anchor="start" x="1005" y="-377" font-family="Helvetica,sans-Serif" font-size="10.00">signal_easel::ax25</text>
<text text-anchor="middle" x="1068" y="-366" font-family="Helvetica,sans-Serif" font-size="10.00">::Address::decodeAddress</text>
</a>
</g>
</g>
<!-- Node2&#45;&gt;Node21 -->
<g id="edge27" class="edge">
<title>Node2&#45;&gt;Node21</title>
<path fill="none" stroke="midnightblue" d="M1217.89,-273.09C1181.73,-297.59 1122.96,-337.42 1091.15,-358.99"/>
<polygon fill="midnightblue" stroke="midnightblue" points="1220.25,-275.71 1226.57,-267.2 1216.33,-269.92 1220.25,-275.71"/>
</g>
<!-- Node23 -->
<g id="node23" class="node">
<title>Node23</title>
<g id="a_node23"><a xlink:href="classsignal__easel_1_1ax25_1_1Address.html#a069a8d96c0d74e4a3288876c429c7187" target="_top" xlink:title="Set the SSID (0&#45;15)">
<polygon fill="none" stroke="black" points="1014.5,-286 1014.5,-316 1121.5,-316 1121.5,-286 1014.5,-286"/>
<text text-anchor="start" x="1022.5" y="-304" font-family="Helvetica,sans-Serif" font-size="10.00">signal_easel::ax25</text>
<text text-anchor="middle" x="1068" y="-293" font-family="Helvetica,sans-Serif" font-size="10.00">::Address::setSsid</text>
</a>
</g>
</g>
<!-- Node2&#45;&gt;Node23 -->
<g id="edge29" class="edge">
<title>Node2&#45;&gt;Node23</title>
<path fill="none" stroke="midnightblue" d="M1183.66,-269.79C1163.23,-275.35 1140.96,-281.41 1121.52,-286.7"/>
<polygon fill="midnightblue" stroke="midnightblue" points="1184.8,-273.11 1193.53,-267.1 1182.96,-266.35 1184.8,-273.11"/>
</g>
<!-- Node4 -->
<g id="node4" class="node">
<title>Node4</title>
<g id="a_node4"><a xlink:href="classsignal__easel_1_1ax25_1_1Frame.html#af86d4b534367a8faf6b628301c9ffceb" target="_top" xlink:title=" ">
<polygon fill="none" stroke="black" points="795.5,-274 795.5,-304 956.5,-304 956.5,-274 795.5,-274"/>
<text text-anchor="start" x="803.5" y="-292" font-family="Helvetica,sans-Serif" font-size="10.00">signal_easel::ax25</text>
<text text-anchor="middle" x="876" y="-281" font-family="Helvetica,sans-Serif" font-size="10.00">::Frame::addRepeaterAddress</text>
</a>
</g>
</g>
<!-- Node3&#45;&gt;Node4 -->
<g id="edge3" class="edge">
<title>Node3&#45;&gt;Node4</title>
<path fill="none" stroke="midnightblue" d="M1035.6,-223.66C1015.02,-236.55 987.17,-252.76 961,-264 952.47,-267.66 943.24,-271 934.12,-273.96"/>
<polygon fill="midnightblue" stroke="midnightblue" points="1037.66,-226.5 1044.23,-218.19 1033.92,-220.59 1037.66,-226.5"/>
</g>
<!-- Node9 -->
<g id="node9" class="node">
<title>Node9</title>
<g id="a_node9"><a xlink:href="classsignal__easel_1_1ax25_1_1Address.html#a0c31737081a9184b56dc32150b23cb0a" target="_top" xlink:title="Get the address as a byte array.">
<polygon fill="none" stroke="black" points="805,-39 805,-69 947,-69 947,-39 805,-39"/>
<text text-anchor="start" x="813" y="-57" font-family="Helvetica,sans-Serif" font-size="10.00">signal_easel::ax25</text>
<text text-anchor="middle" x="876" y="-46" font-family="Helvetica,sans-Serif" font-size="10.00">::Address::encodeAddress</text>
</a>
</g>
</g>
<!-- Node3&#45;&gt;Node9 -->
<g id="edge8" class="edge">
<title>Node3&#45;&gt;Node9</title>
<path fill="none" stroke="midnightblue" d="M1045.04,-180.49C1030.9,-165.67 1012.34,-145.63 997,-127 979.82,-106.14 983.18,-93.43 961,-78 956.02,-74.54 950.54,-71.57 944.85,-69.03"/>
<polygon fill="midnightblue" stroke="midnightblue" points="1042.55,-182.95 1052,-187.73 1047.6,-178.1 1042.55,-182.95"/>
</g>
<!-- Node17 -->
<g id="node17" class="node">
<title>Node17</title>
<g id="a_node17"><a xlink:href="classsignal__easel_1_1ax25_1_1Frame.html#a57b163ece54317da8d95f3b18b47c23d" target="_top" xlink:title="setters/getters for the frame.">
<polygon fill="none" stroke="black" points="791,-176 791,-206 961,-206 961,-176 791,-176"/>
<text text-anchor="start" x="799" y="-194" font-family="Helvetica,sans-Serif" font-size="10.00">signal_easel::ax25</text>
<text text-anchor="middle" x="876" y="-183" font-family="Helvetica,sans-Serif" font-size="10.00">::Frame::setDestinationAddress</text>
</a>
</g>
</g>
<!-- Node3&#45;&gt;Node17 -->
<g id="edge17" class="edge">
<title>Node3&#45;&gt;Node17</title>
<path fill="none" stroke="midnightblue" d="M992.68,-198.31C982.29,-197.65 971.56,-196.97 961,-196.31"/>
<polygon fill="midnightblue" stroke="midnightblue" points="992.74,-201.82 1002.94,-198.95 993.18,-194.83 992.74,-201.82"/>
</g>
<!-- Node19 -->
<g id="node19" class="node">
<title>Node19</title>
<g id="a_node19"><a xlink:href="ax25__frame__test_8cpp.html#a091d83d42783f2a0b3fd33a0521dc2ce" target="_top" xlink:title=" ">
<polygon fill="none" stroke="black" points="667,-137.5 667,-156.5 708,-156.5 708,-137.5 667,-137.5"/>
<text text-anchor="middle" x="687.5" y="-144.5" font-family="Helvetica,sans-Serif" font-size="10.00">TEST</text>
</a>
</g>
</g>
<!-- Node3&#45;&gt;Node19 -->
<g id="edge26" class="edge">
<title>Node3&#45;&gt;Node19</title>
<path fill="none" stroke="midnightblue" d="M1021.99,-184.31C1003.42,-177.39 981.49,-170.21 961,-166 867.86,-146.86 753.46,-146.04 708.24,-146.59"/>
<polygon fill="midnightblue" stroke="midnightblue" points="1020.78,-187.6 1031.37,-187.89 1023.27,-181.06 1020.78,-187.6"/>
</g>
<!-- Node20 -->
<g id="node20" class="node">
<title>Node20</title>
<g id="a_node20"><a xlink:href="classsignal__easel_1_1ax25_1_1Frame.html#a402d26a81f82bb5c477e8930b75a771e" target="_top" xlink:title=" ">
<polygon fill="none" stroke="black" points="803,-225 803,-255 949,-255 949,-225 803,-225"/>
<text text-anchor="start" x="811" y="-243" font-family="Helvetica,sans-Serif" font-size="10.00">signal_easel::ax25</text>
<text text-anchor="middle" x="876" y="-232" font-family="Helvetica,sans-Serif" font-size="10.00">::Frame::setSourceAddress</text>
</a>
</g>
</g>
<!-- Node3&#45;&gt;Node20 -->
<g id="edge22" class="edge">
<title>Node3&#45;&gt;Node20</title>
<path fill="none" stroke="midnightblue" d="M993.1,-217.39C978.71,-220.19 963.63,-223.13 949.29,-225.92"/>
<polygon fill="midnightblue" stroke="midnightblue" points="993.79,-220.82 1002.94,-215.47 992.45,-213.95 993.79,-220.82"/>
</g>
<!-- Node5 -->
<g id="node5" class="node">
<title>Node5</title>
<g id="a_node5"><a xlink:href="classsignal__easel_1_1ax25_1_1Frame.html#a63cf2362c2a90d20f09bbbc4f24a07ba" target="_top" xlink:title="Attempt to parse an incoming bit stream into an AX.25 frame.">
<polygon fill="none" stroke="black" points="620,-225 620,-255 755,-255 755,-225 620,-225"/>
<text text-anchor="start" x="628" y="-243" font-family="Helvetica,sans-Serif" font-size="10.00">signal_easel::ax25</text>
<text text-anchor="middle" x="687.5" y="-232" font-family="Helvetica,sans-Serif" font-size="10.00">::Frame::parseBitStream</text>
</a>
</g>
</g>
<!-- Node4&#45;&gt;Node5 -->
<g id="edge4" class="edge">
<title>Node4&#45;&gt;Node5</title>
<path fill="none" stroke="midnightblue" d="M807.93,-271.38C787.52,-266.02 765.3,-260.18 745.62,-255.01"/>
<polygon fill="midnightblue" stroke="midnightblue" points="807.22,-274.81 817.78,-273.97 808.99,-268.04 807.22,-274.81"/>
</g>
<!-- Node6 -->
<g id="node6" class="node">
<title>Node6</title>
<g id="a_node6"><a xlink:href="classsignal__easel_1_1aprs_1_1Demodulator.html#ae5a8e7634c1bc8d215a0c454a9a737fa" target="_top" xlink:title=" ">
<polygon fill="none" stroke="black" points="431,-219.5 431,-260.5 584,-260.5 584,-219.5 431,-219.5"/>
<text text-anchor="start" x="439" y="-248.5" font-family="Helvetica,sans-Serif" font-size="10.00">signal_easel::aprs</text>
<text text-anchor="start" x="439" y="-237.5" font-family="Helvetica,sans-Serif" font-size="10.00">::Demodulator::lookForAx25</text>
<text text-anchor="middle" x="507.5" y="-226.5" font-family="Helvetica,sans-Serif" font-size="10.00">Packet</text>
</a>
</g>
</g>
<!-- Node5&#45;&gt;Node6 -->
<g id="edge5" class="edge">
<title>Node5&#45;&gt;Node6</title>
<path fill="none" stroke="midnightblue" d="M609.74,-240C601.29,-240 592.68,-240 584.23,-240"/>
<polygon fill="midnightblue" stroke="midnightblue" points="609.97,-243.5 619.97,-240 609.97,-236.5 609.97,-243.5"/>
</g>
<!-- Node7 -->
<g id="node7" class="node">
<title>Node7</title>
<g id="a_node7"><a xlink:href="classsignal__easel_1_1aprs_1_1Receiver.html#afbf7869aceaf2ea7ab0be8b9af16e818" target="_top" xlink:title=" ">
<polygon fill="none" stroke="black" points="288,-262 288,-292 395,-292 395,-262 288,-262"/>
<text text-anchor="start" x="296" y="-280" font-family="Helvetica,sans-Serif" font-size="10.00">signal_easel::aprs</text>
<text text-anchor="middle" x="341.5" y="-269" font-family="Helvetica,sans-Serif" font-size="10.00">::Receiver::decode</text>
</a>
</g>
</g>
<!-- Node6&#45;&gt;Node7 -->
<g id="edge6" class="edge">
<title>Node6&#45;&gt;Node7</title>
<path fill="none" stroke="midnightblue" d="M420.95,-259.3C412.27,-261.26 403.65,-263.2 395.47,-265.05"/>
<polygon fill="midnightblue" stroke="midnightblue" points="421.76,-262.71 430.74,-257.09 420.22,-255.88 421.76,-262.71"/>
</g>
<!-- Node8 -->
<g id="node8" class="node">
<title>Node8</title>
<g id="a_node8"><a xlink:href="aprs__test_8cpp.html#aea66d1824e3f1e27598adf99ac6a089a" target="_top" xlink:title=" ">
<polygon fill="none" stroke="black" points="0,-198.5 0,-217.5 41,-217.5 41,-198.5 0,-198.5"/>
<text text-anchor="middle" x="20.5" y="-205.5" font-family="Helvetica,sans-Serif" font-size="10.00">TEST</text>
</a>
</g>
</g>
<!-- Node6&#45;&gt;Node8 -->
<g id="edge7" class="edge">
<title>Node6&#45;&gt;Node8</title>
<path fill="none" stroke="midnightblue" d="M420.72,-236C333.96,-231.68 196.04,-224.03 77,-214 65.12,-213 51.85,-211.57 41.26,-210.37"/>
<polygon fill="midnightblue" stroke="midnightblue" points="420.62,-239.5 430.78,-236.5 420.96,-232.51 420.62,-239.5"/>
</g>
<!-- Node10 -->
<g id="node10" class="node">
<title>Node10</title>
<g id="a_node10"><a xlink:href="classsignal__easel_1_1ax25_1_1Frame.html#a24e7d5ffc6504a3380e97142d1bc084e" target="_top" xlink:title="Builds all internal portions of the frame. Doesn&#39;t include the flags.">
<polygon fill="none" stroke="black" points="630.5,-88 630.5,-118 744.5,-118 744.5,-88 630.5,-88"/>
<text text-anchor="start" x="638.5" y="-106" font-family="Helvetica,sans-Serif" font-size="10.00">signal_easel::ax25</text>
<text text-anchor="middle" x="687.5" y="-95" font-family="Helvetica,sans-Serif" font-size="10.00">::Frame::buildFrame</text>
</a>
</g>
</g>
<!-- Node9&#45;&gt;Node10 -->
<g id="edge9" class="edge">
<title>Node9&#45;&gt;Node10</title>
<path fill="none" stroke="midnightblue" d="M808.07,-71.59C787.29,-77.04 764.62,-83 744.65,-88.25"/>
<polygon fill="midnightblue" stroke="midnightblue" points="808.99,-74.96 817.78,-69.03 807.22,-68.19 808.99,-74.96"/>
</g>
<!-- Node16 -->
<g id="node16" class="node">
<title>Node16</title>
<g id="a_node16"><a xlink:href="ax25__address__test_8cpp.html#a1d87028368532ba4ae914da9397571d3" target="_top" xlink:title=" ">
<polygon fill="none" stroke="black" points="667,-44.5 667,-63.5 708,-63.5 708,-44.5 667,-44.5"/>
<text text-anchor="middle" x="687.5" y="-51.5" font-family="Helvetica,sans-Serif" font-size="10.00">TEST</text>
</a>
</g>
</g>
<!-- Node9&#45;&gt;Node16 -->
<g id="edge16" class="edge">
<title>Node9&#45;&gt;Node16</title>
<path fill="none" stroke="midnightblue" d="M794.55,-54C762.81,-54 729.07,-54 708.38,-54"/>
<polygon fill="midnightblue" stroke="midnightblue" points="794.76,-57.5 804.76,-54 794.76,-50.5 794.76,-57.5"/>
</g>
<!-- Node11 -->
<g id="node11" class="node">
<title>Node11</title>
<g id="a_node11"><a xlink:href="classsignal__easel_1_1ax25_1_1Frame.html#a2b4f6ebcb7592a7e5a21114c8fafa503" target="_top" xlink:title="A step beyond buildFrame. This function builds the frame, does the bit stuffing, adds the flags,...">
<polygon fill="none" stroke="black" points="445,-95 445,-125 570,-125 570,-95 445,-95"/>
<text text-anchor="start" x="453" y="-113" font-family="Helvetica,sans-Serif" font-size="10.00">signal_easel::ax25</text>
<text text-anchor="middle" x="507.5" y="-102" font-family="Helvetica,sans-Serif" font-size="10.00">::Frame::encodeFrame</text>
</a>
</g>
</g>
<!-- Node10&#45;&gt;Node11 -->
<g id="edge10" class="edge">
<title>Node10&#45;&gt;Node11</title>
<path fill="none" stroke="midnightblue" d="M620.12,-105.61C603.7,-106.26 586.18,-106.95 570.01,-107.58"/>
<polygon fill="midnightblue" stroke="midnightblue" points="620.32,-109.11 630.18,-105.21 620.05,-102.11 620.32,-109.11"/>
</g>
<!-- Node12 -->
<g id="node12" class="node">
<title>Node12</title>
<g id="a_node12"><a xlink:href="namespacesignal__easel_1_1aprs.html#a77481001a5b78a839972bb4220b43e4d" target="_top" xlink:title=" ">
<polygon fill="none" stroke="black" points="289.5,-109 289.5,-139 393.5,-139 393.5,-109 289.5,-109"/>
<text text-anchor="start" x="297.5" y="-127" font-family="Helvetica,sans-Serif" font-size="10.00">signal_easel::aprs</text>
<text text-anchor="middle" x="341.5" y="-116" font-family="Helvetica,sans-Serif" font-size="10.00">::encodePacket</text>
</a>
</g>
</g>
<!-- Node11&#45;&gt;Node12 -->
<g id="edge11" class="edge">
<title>Node11&#45;&gt;Node12</title>
<path fill="none" stroke="midnightblue" d="M434.94,-116.11C421.04,-117.29 406.74,-118.52 393.66,-119.63"/>
<polygon fill="midnightblue" stroke="midnightblue" points="435.3,-119.59 444.97,-115.25 434.7,-112.62 435.3,-119.59"/>
</g>
<!-- Node13 -->
<g id="node13" class="node">
<title>Node13</title>
<g id="a_node13"><a xlink:href="classsignal__easel_1_1aprs_1_1Modulator.html#adfa8809d1c11321b9ff2c7efe7f58499" target="_top" xlink:title=" ">
<polygon fill="none" stroke="black" points="77,-54 77,-84 252,-84 252,-54 77,-54"/>
<text text-anchor="start" x="85" y="-72" font-family="Helvetica,sans-Serif" font-size="10.00">signal_easel::aprs</text>
<text text-anchor="middle" x="164.5" y="-61" font-family="Helvetica,sans-Serif" font-size="10.00">::Modulator::encodeMessageAck</text>
</a>
</g>
</g>
<!-- Node12&#45;&gt;Node13 -->
<g id="edge12" class="edge">
<title>Node12&#45;&gt;Node13</title>
<path fill="none" stroke="midnightblue" d="M287.75,-105.68C276.01,-101.73 263.61,-97.64 252,-94 241.41,-90.68 230.04,-87.27 219.14,-84.09"/>
<polygon fill="midnightblue" stroke="midnightblue" points="286.82,-109.06 297.42,-108.96 289.07,-102.43 286.82,-109.06"/>
</g>
<!-- Node14 -->
<g id="node14" class="node">
<title>Node14</title>
<g id="a_node14"><a xlink:href="classsignal__easel_1_1aprs_1_1Modulator.html#a147321b48c2e282c62863f114702e54f" target="_top" xlink:title=" ">
<polygon fill="none" stroke="black" points="86,-163.5 86,-204.5 243,-204.5 243,-163.5 86,-163.5"/>
<text text-anchor="start" x="94" y="-192.5" font-family="Helvetica,sans-Serif" font-size="10.00">signal_easel::aprs</text>
<text text-anchor="start" x="94" y="-181.5" font-family="Helvetica,sans-Serif" font-size="10.00">::Modulator::encodeMessage</text>
<text text-anchor="middle" x="164.5" y="-170.5" font-family="Helvetica,sans-Serif" font-size="10.00">Packet</text>
</a>
</g>
</g>
<!-- Node12&#45;&gt;Node14 -->
<g id="edge13" class="edge">
<title>Node12&#45;&gt;Node14</title>
<path fill="none" stroke="midnightblue" d="M286.76,-142.42C267.38,-149.07 245.39,-156.61 225.51,-163.42"/>
<polygon fill="midnightblue" stroke="midnightblue" points="288.02,-145.69 296.34,-139.14 285.75,-139.07 288.02,-145.69"/>
</g>
<!-- Node15 -->
<g id="node15" class="node">
<title>Node15</title>
<g id="a_node15"><a xlink:href="classsignal__easel_1_1aprs_1_1Modulator.html#a943e392227656943d7db842e1889d805" target="_top" xlink:title=" ">
<polygon fill="none" stroke="black" points="88.5,-103.5 88.5,-144.5 240.5,-144.5 240.5,-103.5 88.5,-103.5"/>
<text text-anchor="start" x="96.5" y="-132.5" font-family="Helvetica,sans-Serif" font-size="10.00">signal_easel::aprs</text>
<text text-anchor="start" x="96.5" y="-121.5" font-family="Helvetica,sans-Serif" font-size="10.00">::Modulator::encodePosition</text>
<text text-anchor="middle" x="164.5" y="-110.5" font-family="Helvetica,sans-Serif" font-size="10.00">Packet</text>
</a>
</g>
</g>
<!-- Node12&#45;&gt;Node15 -->
<g id="edge15" class="edge">
<title>Node12&#45;&gt;Node15</title>
<path fill="none" stroke="midnightblue" d="M279.18,-124C266.76,-124 253.56,-124 240.72,-124"/>
<polygon fill="midnightblue" stroke="midnightblue" points="279.41,-127.5 289.41,-124 279.41,-120.5 279.41,-127.5"/>
</g>
<!-- Node14&#45;&gt;Node8 -->
<g id="edge14" class="edge">
<title>Node14&#45;&gt;Node8</title>
<path fill="none" stroke="midnightblue" d="M75.84,-198.82C62.91,-201 50.76,-203.05 41.24,-204.66"/>
<polygon fill="midnightblue" stroke="midnightblue" points="76.58,-202.24 85.85,-197.12 75.41,-195.34 76.58,-202.24"/>
</g>
<!-- Node17&#45;&gt;Node5 -->
<g id="edge20" class="edge">
<title>Node17&#45;&gt;Node5</title>
<path fill="none" stroke="midnightblue" d="M807.93,-208.62C787.52,-213.98 765.3,-219.82 745.62,-224.99"/>
<polygon fill="midnightblue" stroke="midnightblue" points="808.99,-211.96 817.78,-206.03 807.22,-205.19 808.99,-211.96"/>
</g>
<!-- Node18 -->
<g id="node18" class="node">
<title>Node18</title>
<g id="a_node18"><a xlink:href="namespacesignal__easel_1_1aprs.html#a586b022fa0c917fa8557bbd5cdc6aeeb" target="_top" xlink:title=" ">
<polygon fill="none" stroke="black" points="631,-176 631,-206 744,-206 744,-176 631,-176"/>
<text text-anchor="start" x="639" y="-194" font-family="Helvetica,sans-Serif" font-size="10.00">signal_easel::aprs</text>
<text text-anchor="middle" x="687.5" y="-183" font-family="Helvetica,sans-Serif" font-size="10.00">::AddRequiredFields</text>
</a>
</g>
</g>
<!-- Node17&#45;&gt;Node18 -->
<g id="edge18" class="edge">
<title>Node17&#45;&gt;Node18</title>
<path fill="none" stroke="midnightblue" d="M780.71,-191C768.16,-191 755.64,-191 744.06,-191"/>
<polygon fill="midnightblue" stroke="midnightblue" points="780.75,-194.5 790.75,-191 780.75,-187.5 780.75,-194.5"/>
</g>
<!-- Node17&#45;&gt;Node19 -->
<g id="edge21" class="edge">
<title>Node17&#45;&gt;Node19</title>
<path fill="none" stroke="midnightblue" d="M801.47,-173.65C767.73,-165.69 730.38,-156.88 708.2,-151.65"/>
<polygon fill="midnightblue" stroke="midnightblue" points="800.8,-177.09 811.34,-175.98 802.41,-170.28 800.8,-177.09"/>
</g>
<!-- Node18&#45;&gt;Node12 -->
<g id="edge19" class="edge">
<title>Node18&#45;&gt;Node12</title>
<path fill="none" stroke="midnightblue" d="M620.94,-178.23C554.79,-165.35 454.03,-145.72 393.58,-133.95"/>
<polygon fill="midnightblue" stroke="midnightblue" points="620.36,-181.68 630.85,-180.16 621.7,-174.81 620.36,-181.68"/>
</g>
<!-- Node20&#45;&gt;Node5 -->
<g id="edge24" class="edge">
<title>Node20&#45;&gt;Node5</title>
<path fill="none" stroke="midnightblue" d="M792.88,-240C780.29,-240 767.42,-240 755.22,-240"/>
<polygon fill="midnightblue" stroke="midnightblue" points="792.89,-243.5 802.89,-240 792.89,-236.5 792.89,-243.5"/>
</g>
<!-- Node20&#45;&gt;Node18 -->
<g id="edge23" class="edge">
<title>Node20&#45;&gt;Node18</title>
<path fill="none" stroke="midnightblue" d="M807.98,-222.39C787,-216.88 764.1,-210.86 744.02,-205.59"/>
<polygon fill="midnightblue" stroke="midnightblue" points="807.22,-225.81 817.78,-224.97 808.99,-219.04 807.22,-225.81"/>
</g>
<!-- Node20&#45;&gt;Node19 -->
<g id="edge25" class="edge">
<title>Node20&#45;&gt;Node19</title>
<path fill="none" stroke="midnightblue" d="M799.62,-220.35C796.62,-218.71 793.74,-216.93 791,-215 768.9,-199.45 777.18,-181.43 755,-166 741.1,-156.33 722.34,-151.55 708.29,-149.21"/>
<polygon fill="midnightblue" stroke="midnightblue" points="798.34,-223.62 808.86,-224.89 801.42,-217.34 798.34,-223.62"/>
</g>
<!-- Node22 -->
<g id="node22" class="node">
<title>Node22</title>
<g id="a_node22"><a xlink:href="classsignal__easel_1_1ax25_1_1Address.html#a2ffb5475017120d1071e4b8d3f35c394" target="_top" xlink:title=" ">
<polygon fill="none" stroke="black" points="822.5,-372 822.5,-402 929.5,-402 929.5,-372 822.5,-372"/>
<text text-anchor="start" x="830.5" y="-390" font-family="Helvetica,sans-Serif" font-size="10.00">signal_easel::ax25</text>
<text text-anchor="middle" x="876" y="-379" font-family="Helvetica,sans-Serif" font-size="10.00">::Address::Address</text>
</a>
</g>
</g>
<!-- Node21&#45;&gt;Node22 -->
<g id="edge28" class="edge">
<title>Node21&#45;&gt;Node22</title>
<path fill="none" stroke="midnightblue" d="M986.79,-379.49C967.5,-380.81 947.37,-382.19 929.69,-383.39"/>
<polygon fill="midnightblue" stroke="midnightblue" points="987.05,-382.98 996.79,-378.8 986.58,-375.99 987.05,-382.98"/>
</g>
<!-- Node24 -->
<g id="node24" class="node">
<title>Node24</title>
<g id="a_node24"><a xlink:href="classsignal__easel_1_1ax25_1_1Address.html#af2e2c1061b619a32d966d4b08eed7ede" target="_top" xlink:title=" ">
<polygon fill="none" stroke="black" points="822.5,-323 822.5,-353 929.5,-353 929.5,-323 822.5,-323"/>
<text text-anchor="start" x="830.5" y="-341" font-family="Helvetica,sans-Serif" font-size="10.00">signal_easel::ax25</text>
<text text-anchor="middle" x="876" y="-330" font-family="Helvetica,sans-Serif" font-size="10.00">::Address::Address</text>
</a>
</g>
</g>
<!-- Node23&#45;&gt;Node24 -->
<g id="edge30" class="edge">
<title>Node23&#45;&gt;Node24</title>
<path fill="none" stroke="midnightblue" d="M1004.21,-313.23C980.1,-317.92 952.85,-323.23 929.78,-327.72"/>
<polygon fill="midnightblue" stroke="midnightblue" points="1005.18,-316.6 1014.33,-311.26 1003.84,-309.73 1005.18,-316.6"/>
</g>
<!-- Node26 -->
<g id="node26" class="node">
<title>Node26</title>
<g id="a_node26"><a xlink:href="classsignal__easel_1_1ax25_1_1Frame.html#a640edeabbda34e78cc243e3561747bf9" target="_top" xlink:title=" ">
<polygon fill="none" stroke="black" points="815,-88 815,-118 937,-118 937,-88 815,-88"/>
<text text-anchor="start" x="823" y="-106" font-family="Helvetica,sans-Serif" font-size="10.00">signal_easel::ax25</text>
<text text-anchor="middle" x="876" y="-95" font-family="Helvetica,sans-Serif" font-size="10.00">::Frame::isFrameValid</text>
</a>
</g>
</g>
<!-- Node25&#45;&gt;Node26 -->
<g id="edge32" class="edge">
<title>Node25&#45;&gt;Node26</title>
<path fill="none" stroke="midnightblue" d="M1004.28,-103C982.67,-103 958.55,-103 937.16,-103"/>
<polygon fill="midnightblue" stroke="midnightblue" points="1004.33,-106.5 1014.33,-103 1004.33,-99.5 1004.33,-106.5"/>
</g>
<!-- Node27 -->
<g id="node27" class="node">
<title>Node27</title>
<g id="a_node27"><a xlink:href="ax25__address__test_8cpp.html#afa443d4d5f700a003ec7cac34596dcba" target="_top" xlink:title=" ">
<polygon fill="none" stroke="black" points="855.5,-0.5 855.5,-19.5 896.5,-19.5 896.5,-0.5 855.5,-0.5"/>
<text text-anchor="middle" x="876" y="-7.5" font-family="Helvetica,sans-Serif" font-size="10.00">TEST</text>
</a>
</g>
</g>
<!-- Node25&#45;&gt;Node27 -->
<g id="edge35" class="edge">
<title>Node25&#45;&gt;Node27</title>
<path fill="none" stroke="midnightblue" d="M1042.03,-81.35C1021.56,-64.68 991.13,-42.31 961,-29 940.07,-19.76 914.16,-14.78 896.69,-12.26"/>
<polygon fill="midnightblue" stroke="midnightblue" points="1039.97,-84.19 1049.9,-87.88 1044.44,-78.8 1039.97,-84.19"/>
</g>
<!-- Node26&#45;&gt;Node10 -->
<g id="edge33" class="edge">
<title>Node26&#45;&gt;Node10</title>
<path fill="none" stroke="midnightblue" d="M804.73,-103C784.87,-103 763.53,-103 744.62,-103"/>
<polygon fill="midnightblue" stroke="midnightblue" points="804.96,-106.5 814.96,-103 804.96,-99.5 804.96,-106.5"/>
</g>
<!-- Node26&#45;&gt;Node19 -->
<g id="edge34" class="edge">
<title>Node26&#45;&gt;Node19</title>
<path fill="none" stroke="midnightblue" d="M804.86,-119.55C770.23,-127.72 731.06,-136.96 708.14,-142.37"/>
<polygon fill="midnightblue" stroke="midnightblue" points="806.03,-122.87 814.96,-117.16 804.43,-116.05 806.03,-122.87"/>
</g>
</g>
</svg>
