<?xml version="1.0" encoding="UTF-8" standalone="no"?>
<!DOCTYPE svg PUBLIC "-//W3C//DTD SVG 1.1//EN"
 "http://www.w3.org/Graphics/SVG/1.1/DTD/svg11.dtd">
<!-- Generated by graphviz version 2.43.0 (0)
 -->
<!-- Title: signal_easel::ax25::Address::Address Pages: 1 -->
<svg width="650pt" height="100pt"
 viewBox="0.00 0.00 650.00 99.50" xmlns="http://www.w3.org/2000/svg" xmlns:xlink="http://www.w3.org/1999/xlink">
<g id="graph0" class="graph" transform="scale(1 1) rotate(0) translate(4 95.5)">
<title>signal_easel::ax25::Address::Address</title>
<!-- Node1 -->
<g id="node1" class="node">
<title>Node1</title>
<g id="a_node1"><a xlink:title=" ">
<polygon fill="#bfbfbf" stroke="black" points="0,-27.5 0,-57.5 107,-57.5 107,-27.5 0,-27.5"/>
<text text-anchor="start" x="8" y="-45.5" font-family="Helvetica,sans-Serif" font-size="10.00">signal_easel::ax25</text>
<text text-anchor="middle" x="53.5" y="-34.5" font-family="Helvetica,sans-Serif" font-size="10.00">::Address::Address</text>
</a>
</g>
</g>
<!-- Node2 -->
<g id="node2" class="node">
<title>Node2</title>
<g id="a_node2"><a xlink:href="classsignal__easel_1_1ax25_1_1Address.html#a6a2594f26aa1d2a46e33d7da1a1d5fdd" target="_top" xlink:title="Decode an AX.25 address from it&#39;s byte array representation.">
<polygon fill="none" stroke="black" points="143,-27.5 143,-57.5 285,-57.5 285,-27.5 143,-27.5"/>
<text text-anchor="start" x="151" y="-45.5" font-family="Helvetica,sans-Serif" font-size="10.00">signal_easel::ax25</text>
<text text-anchor="middle" x="214" y="-34.5" font-family="Helvetica,sans-Serif" font-size="10.00">::Address::decodeAddress</text>
</a>
</g>
</g>
<!-- Node1&#45;&gt;Node2 -->
<g id="edge1" class="edge">
<title>Node1&#45;&gt;Node2</title>
<path fill="none" stroke="midnightblue" d="M107.28,-42.5C115.5,-42.5 124.15,-42.5 132.81,-42.5"/>
<polygon fill="midnightblue" stroke="midnightblue" points="132.97,-46 142.97,-42.5 132.97,-39 132.97,-46"/>
</g>
<!-- Node3 -->
<g id="node3" class="node">
<title>Node3</title>
<g id="a_node3"><a xlink:href="classsignal__easel_1_1ax25_1_1Address.html#af34b361f739b7995e7816b7a04465828" target="_top" xlink:title=" ">
<polygon fill="none" stroke="black" points="321,-50 321,-91 486,-91 486,-50 321,-50"/>
<text text-anchor="start" x="329" y="-79" font-family="Helvetica,sans-Serif" font-size="10.00">signal_easel::ax25</text>
<text text-anchor="start" x="329" y="-68" font-family="Helvetica,sans-Serif" font-size="10.00">::Address::assertAddressString</text>
<text text-anchor="middle" x="403.5" y="-57" font-family="Helvetica,sans-Serif" font-size="10.00">IsValid</text>
</a>
</g>
</g>
<!-- Node2&#45;&gt;Node3 -->
<g id="edge2" class="edge">
<title>Node2&#45;&gt;Node3</title>
<path fill="none" stroke="midnightblue" d="M285.08,-52.97C293.46,-54.22 302.1,-55.51 310.72,-56.79"/>
<polygon fill="midnightblue" stroke="midnightblue" points="310.41,-60.29 320.81,-58.3 311.44,-53.36 310.41,-60.29"/>
</g>
<!-- Node4 -->
<g id="node4" class="node">
<title>Node4</title>
<g id="a_node4"><a xlink:href="classsignal__easel_1_1ax25_1_1Address.html#a8b44c6e311d3462bd86eda03c1d384f0" target="_top" xlink:title=" ">
<polygon fill="none" stroke="black" points="328.5,-0.5 328.5,-30.5 478.5,-30.5 478.5,-0.5 328.5,-0.5"/>
<text text-anchor="start" x="336.5" y="-18.5" font-family="Helvetica,sans-Serif" font-size="10.00">signal_easel::ax25</text>
<text text-anchor="middle" x="403.5" y="-7.5" font-family="Helvetica,sans-Serif" font-size="10.00">::Address::assertSsidIsValid</text>
</a>
</g>
</g>
<!-- Node2&#45;&gt;Node4 -->
<g id="edge3" class="edge">
<title>Node2&#45;&gt;Node4</title>
<path fill="none" stroke="midnightblue" d="M285.08,-32.41C295.92,-30.85 307.2,-29.22 318.3,-27.63"/>
<polygon fill="midnightblue" stroke="midnightblue" points="319.03,-31.06 328.42,-26.17 318.03,-24.13 319.03,-31.06"/>
</g>
<!-- Node5 -->
<g id="node5" class="node">
<title>Node5</title>
<g id="a_node5"><a xlink:href="classsignal__easel_1_1ax25_1_1Address.html#ad66c149737cc4aa52ae9e8860176acf3" target="_top" xlink:title=" ">
<polygon fill="none" stroke="black" points="522,-0.5 522,-30.5 642,-30.5 642,-0.5 522,-0.5"/>
<text text-anchor="start" x="530" y="-18.5" font-family="Helvetica,sans-Serif" font-size="10.00">signal_easel::ax25</text>
<text text-anchor="middle" x="582" y="-7.5" font-family="Helvetica,sans-Serif" font-size="10.00">::Address::isSsidValid</text>
</a>
</g>
</g>
<!-- Node4&#45;&gt;Node5 -->
<g id="edge4" class="edge">
<title>Node4&#45;&gt;Node5</title>
<path fill="none" stroke="midnightblue" d="M478.58,-15.5C489.52,-15.5 500.76,-15.5 511.6,-15.5"/>
<polygon fill="midnightblue" stroke="midnightblue" points="511.84,-19 521.84,-15.5 511.84,-12 511.84,-19"/>
</g>
</g>
</svg>
