<?xml version="1.0" encoding="UTF-8" standalone="no"?>
<!DOCTYPE svg PUBLIC "-//W3C//DTD SVG 1.1//EN"
 "http://www.w3.org/Graphics/SVG/1.1/DTD/svg11.dtd">
<!-- Generated by graphviz version 2.43.0 (0)
 -->
<!-- Title: signal_easel::aprs::Demodulator::lookForAx25Packet Pages: 1 -->
<svg width="1065pt" height="524pt"
 viewBox="0.00 0.00 1065.00 524.00" xmlns="http://www.w3.org/2000/svg" xmlns:xlink="http://www.w3.org/1999/xlink">
<g id="graph0" class="graph" transform="scale(1 1) rotate(0) translate(4 520)">
<title>signal_easel::aprs::Demodulator::lookForAx25Packet</title>
<!-- Node1 -->
<g id="node1" class="node">
<title>Node1</title>
<g id="a_node1"><a xlink:title=" ">
<polygon fill="#bfbfbf" stroke="black" points="0,-337 0,-378 153,-378 153,-337 0,-337"/>
<text text-anchor="start" x="8" y="-366" font-family="Helvetica,sans-Serif" font-size="10.00">signal_easel::aprs</text>
<text text-anchor="start" x="8" y="-355" font-family="Helvetica,sans-Serif" font-size="10.00">::Demodulator::lookForAx25</text>
<text text-anchor="middle" x="76.5" y="-344" font-family="Helvetica,sans-Serif" font-size="10.00">Packet</text>
</a>
</g>
</g>
<!-- Node2 -->
<g id="node2" class="node">
<title>Node2</title>
<g id="a_node2"><a xlink:href="classsignal__easel_1_1ax25_1_1Frame.html#a9e6110247fa4368c64e39cf17f08759d" target="_top" xlink:title=" ">
<polygon fill="none" stroke="black" points="190.5,-367.5 190.5,-397.5 322.5,-397.5 322.5,-367.5 190.5,-367.5"/>
<text text-anchor="start" x="198.5" y="-385.5" font-family="Helvetica,sans-Serif" font-size="10.00">signal_easel::ax25</text>
<text text-anchor="middle" x="256.5" y="-374.5" font-family="Helvetica,sans-Serif" font-size="10.00">::Frame::getInformation</text>
</a>
</g>
</g>
<!-- Node1&#45;&gt;Node2 -->
<g id="edge1" class="edge">
<title>Node1&#45;&gt;Node2</title>
<path fill="none" stroke="midnightblue" d="M153.25,-368.14C162.25,-369.4 171.44,-370.69 180.44,-371.96"/>
<polygon fill="midnightblue" stroke="midnightblue" points="180.11,-375.45 190.49,-373.37 181.08,-368.51 180.11,-375.45"/>
</g>
<!-- Node3 -->
<g id="node3" class="node">
<title>Node3</title>
<g id="a_node3"><a xlink:href="classsignal__easel_1_1ax25_1_1Frame.html#a63cf2362c2a90d20f09bbbc4f24a07ba" target="_top" xlink:title="Attempt to parse an incoming bit stream into an AX.25 frame.">
<polygon fill="none" stroke="black" points="189,-318.5 189,-348.5 324,-348.5 324,-318.5 189,-318.5"/>
<text text-anchor="start" x="197" y="-336.5" font-family="Helvetica,sans-Serif" font-size="10.00">signal_easel::ax25</text>
<text text-anchor="middle" x="256.5" y="-325.5" font-family="Helvetica,sans-Serif" font-size="10.00">::Frame::parseBitStream</text>
</a>
</g>
</g>
<!-- Node1&#45;&gt;Node3 -->
<g id="edge2" class="edge">
<title>Node1&#45;&gt;Node3</title>
<path fill="none" stroke="midnightblue" d="M153.25,-347.29C161.66,-346.15 170.23,-345 178.65,-343.86"/>
<polygon fill="midnightblue" stroke="midnightblue" points="179.38,-347.29 188.83,-342.49 178.45,-340.36 179.38,-347.29"/>
</g>
<!-- Node4 -->
<g id="node4" class="node">
<title>Node4</title>
<g id="a_node4"><a xlink:href="classsignal__easel_1_1ax25_1_1Frame.html#af86d4b534367a8faf6b628301c9ffceb" target="_top" xlink:title=" ">
<polygon fill="none" stroke="black" points="364.5,-441.5 364.5,-471.5 525.5,-471.5 525.5,-441.5 364.5,-441.5"/>
<text text-anchor="start" x="372.5" y="-459.5" font-family="Helvetica,sans-Serif" font-size="10.00">signal_easel::ax25</text>
<text text-anchor="middle" x="445" y="-448.5" font-family="Helvetica,sans-Serif" font-size="10.00">::Frame::addRepeaterAddress</text>
</a>
</g>
</g>
<!-- Node3&#45;&gt;Node4 -->
<g id="edge3" class="edge">
<title>Node3&#45;&gt;Node4</title>
<path fill="none" stroke="midnightblue" d="M309.86,-348.66C314.97,-351.42 319.81,-354.68 324,-358.5 351.04,-383.13 331.98,-408.99 360,-432.5 361.52,-433.78 363.11,-434.99 364.76,-436.14"/>
<polygon fill="midnightblue" stroke="midnightblue" points="363.01,-439.17 373.37,-441.35 366.63,-433.18 363.01,-439.17"/>
</g>
<!-- Node9 -->
<g id="node9" class="node">
<title>Node9</title>
<g id="a_node9"><a xlink:href="namespacesignal__easel_1_1ax25.html#a84e1d1bf82ef828a150bc94cf065e396" target="_top" xlink:title="Convert a bit stream from NRZI to standard encoding.">
<polygon fill="none" stroke="black" points="391.5,-294.5 391.5,-324.5 498.5,-324.5 498.5,-294.5 391.5,-294.5"/>
<text text-anchor="start" x="399.5" y="-312.5" font-family="Helvetica,sans-Serif" font-size="10.00">signal_easel::ax25</text>
<text text-anchor="middle" x="445" y="-301.5" font-family="Helvetica,sans-Serif" font-size="10.00">::decodeNrzi</text>
</a>
</g>
</g>
<!-- Node3&#45;&gt;Node9 -->
<g id="edge8" class="edge">
<title>Node3&#45;&gt;Node9</title>
<path fill="none" stroke="midnightblue" d="M324.04,-324.94C342.66,-322.54 362.84,-319.94 381.24,-317.58"/>
<polygon fill="midnightblue" stroke="midnightblue" points="381.78,-321.04 391.25,-316.29 380.89,-314.09 381.78,-321.04"/>
</g>
<!-- Node16 -->
<g id="node16" class="node">
<title>Node16</title>
<g id="a_node16"><a xlink:href="namespacesignal__easel_1_1ax25.html#a1bccc37a6ac48ed9be96218dd46bcb41" target="_top" xlink:title=" ">
<polygon fill="none" stroke="black" points="391.5,-171.5 391.5,-201.5 498.5,-201.5 498.5,-171.5 391.5,-171.5"/>
<text text-anchor="start" x="399.5" y="-189.5" font-family="Helvetica,sans-Serif" font-size="10.00">signal_easel::ax25</text>
<text text-anchor="middle" x="445" y="-178.5" font-family="Helvetica,sans-Serif" font-size="10.00">::deStuffBytes</text>
</a>
</g>
</g>
<!-- Node3&#45;&gt;Node16 -->
<g id="edge16" class="edge">
<title>Node3&#45;&gt;Node16</title>
<path fill="none" stroke="midnightblue" d="M266.15,-318.29C281.62,-292.45 316.52,-240.03 360,-211.5 366.69,-207.11 374.18,-203.47 381.86,-200.45"/>
<polygon fill="midnightblue" stroke="midnightblue" points="383.04,-203.75 391.27,-197.08 380.68,-197.16 383.04,-203.75"/>
</g>
<!-- Node19 -->
<g id="node19" class="node">
<title>Node19</title>
<g id="a_node19"><a xlink:href="namespacesignal__easel_1_1ax25.html#aedc3a21287bb20d2f0b01c9a2d6797f3" target="_top" xlink:title="Finds the start flags in the bit stream and removes them.">
<polygon fill="none" stroke="black" points="391.5,-220.5 391.5,-250.5 498.5,-250.5 498.5,-220.5 391.5,-220.5"/>
<text text-anchor="start" x="399.5" y="-238.5" font-family="Helvetica,sans-Serif" font-size="10.00">signal_easel::ax25</text>
<text text-anchor="middle" x="445" y="-227.5" font-family="Helvetica,sans-Serif" font-size="10.00">::findStartFlags</text>
</a>
</g>
</g>
<!-- Node3&#45;&gt;Node19 -->
<g id="edge21" class="edge">
<title>Node3&#45;&gt;Node19</title>
<path fill="none" stroke="midnightblue" d="M286.23,-318.4C318.4,-301.5 370.67,-274.03 406.15,-255.39"/>
<polygon fill="midnightblue" stroke="midnightblue" points="408.01,-258.36 415.24,-250.61 404.76,-252.17 408.01,-258.36"/>
</g>
<!-- Node22 -->
<g id="node22" class="node">
<title>Node22</title>
<g id="a_node22"><a xlink:href="classsignal__easel_1_1ax25_1_1Frame.html#a57b163ece54317da8d95f3b18b47c23d" target="_top" xlink:title="setters/getters for the frame.">
<polygon fill="none" stroke="black" points="360,-392.5 360,-422.5 530,-422.5 530,-392.5 360,-392.5"/>
<text text-anchor="start" x="368" y="-410.5" font-family="Helvetica,sans-Serif" font-size="10.00">signal_easel::ax25</text>
<text text-anchor="middle" x="445" y="-399.5" font-family="Helvetica,sans-Serif" font-size="10.00">::Frame::setDestinationAddress</text>
</a>
</g>
</g>
<!-- Node3&#45;&gt;Node22 -->
<g id="edge26" class="edge">
<title>Node3&#45;&gt;Node22</title>
<path fill="none" stroke="midnightblue" d="M302.17,-348.55C309.6,-351.54 317.12,-354.89 324,-358.5 341.25,-367.55 342.4,-375.16 360,-383.5 364.04,-385.42 368.27,-387.21 372.58,-388.88"/>
<polygon fill="midnightblue" stroke="midnightblue" points="371.53,-392.22 382.12,-392.35 373.92,-385.64 371.53,-392.22"/>
</g>
<!-- Node23 -->
<g id="node23" class="node">
<title>Node23</title>
<g id="a_node23"><a xlink:href="classsignal__easel_1_1ax25_1_1Frame.html#a402d26a81f82bb5c477e8930b75a771e" target="_top" xlink:title=" ">
<polygon fill="none" stroke="black" points="372,-343.5 372,-373.5 518,-373.5 518,-343.5 372,-343.5"/>
<text text-anchor="start" x="380" y="-361.5" font-family="Helvetica,sans-Serif" font-size="10.00">signal_easel::ax25</text>
<text text-anchor="middle" x="445" y="-350.5" font-family="Helvetica,sans-Serif" font-size="10.00">::Frame::setSourceAddress</text>
</a>
</g>
</g>
<!-- Node3&#45;&gt;Node23 -->
<g id="edge28" class="edge">
<title>Node3&#45;&gt;Node23</title>
<path fill="none" stroke="midnightblue" d="M324.04,-342.42C336.26,-344.06 349.14,-345.78 361.75,-347.48"/>
<polygon fill="midnightblue" stroke="midnightblue" points="361.42,-350.96 371.79,-348.82 362.35,-344.02 361.42,-350.96"/>
</g>
<!-- Node5 -->
<g id="node5" class="node">
<title>Node5</title>
<g id="a_node5"><a xlink:href="classsignal__easel_1_1ax25_1_1Address.html#a7fa6b0ef4241413893f201660991e4ea" target="_top" xlink:title="Checks if the address is valid, if not throws an exception with a specific error code.">
<polygon fill="none" stroke="black" points="568,-441.5 568,-471.5 698,-471.5 698,-441.5 568,-441.5"/>
<text text-anchor="start" x="576" y="-459.5" font-family="Helvetica,sans-Serif" font-size="10.00">signal_easel::ax25</text>
<text text-anchor="middle" x="633" y="-448.5" font-family="Helvetica,sans-Serif" font-size="10.00">::Address::assertIsValid</text>
</a>
</g>
</g>
<!-- Node4&#45;&gt;Node5 -->
<g id="edge4" class="edge">
<title>Node4&#45;&gt;Node5</title>
<path fill="none" stroke="midnightblue" d="M525.69,-456.5C536.38,-456.5 547.3,-456.5 557.88,-456.5"/>
<polygon fill="midnightblue" stroke="midnightblue" points="557.91,-460 567.91,-456.5 557.91,-453 557.91,-460"/>
</g>
<!-- Node6 -->
<g id="node6" class="node">
<title>Node6</title>
<g id="a_node6"><a xlink:href="classsignal__easel_1_1ax25_1_1Address.html#af34b361f739b7995e7816b7a04465828" target="_top" xlink:title=" ">
<polygon fill="none" stroke="black" points="736,-425 736,-466 901,-466 901,-425 736,-425"/>
<text text-anchor="start" x="744" y="-454" font-family="Helvetica,sans-Serif" font-size="10.00">signal_easel::ax25</text>
<text text-anchor="start" x="744" y="-443" font-family="Helvetica,sans-Serif" font-size="10.00">::Address::assertAddressString</text>
<text text-anchor="middle" x="818.5" y="-432" font-family="Helvetica,sans-Serif" font-size="10.00">IsValid</text>
</a>
</g>
</g>
<!-- Node5&#45;&gt;Node6 -->
<g id="edge5" class="edge">
<title>Node5&#45;&gt;Node6</title>
<path fill="none" stroke="midnightblue" d="M698.18,-452.65C707.14,-452.12 716.48,-451.56 725.82,-451"/>
<polygon fill="midnightblue" stroke="midnightblue" points="726.16,-454.48 735.94,-450.39 725.75,-447.49 726.16,-454.48"/>
</g>
<!-- Node7 -->
<g id="node7" class="node">
<title>Node7</title>
<g id="a_node7"><a xlink:href="classsignal__easel_1_1ax25_1_1Address.html#a8b44c6e311d3462bd86eda03c1d384f0" target="_top" xlink:title=" ">
<polygon fill="none" stroke="black" points="743.5,-485.5 743.5,-515.5 893.5,-515.5 893.5,-485.5 743.5,-485.5"/>
<text text-anchor="start" x="751.5" y="-503.5" font-family="Helvetica,sans-Serif" font-size="10.00">signal_easel::ax25</text>
<text text-anchor="middle" x="818.5" y="-492.5" font-family="Helvetica,sans-Serif" font-size="10.00">::Address::assertSsidIsValid</text>
</a>
</g>
</g>
<!-- Node5&#45;&gt;Node7 -->
<g id="edge6" class="edge">
<title>Node5&#45;&gt;Node7</title>
<path fill="none" stroke="midnightblue" d="M696.64,-471.52C712.2,-475.25 729.01,-479.28 745,-483.12"/>
<polygon fill="midnightblue" stroke="midnightblue" points="744.29,-486.55 754.83,-485.47 745.93,-479.74 744.29,-486.55"/>
</g>
<!-- Node8 -->
<g id="node8" class="node">
<title>Node8</title>
<g id="a_node8"><a xlink:href="classsignal__easel_1_1ax25_1_1Address.html#ad66c149737cc4aa52ae9e8860176acf3" target="_top" xlink:title=" ">
<polygon fill="none" stroke="black" points="937,-485.5 937,-515.5 1057,-515.5 1057,-485.5 937,-485.5"/>
<text text-anchor="start" x="945" y="-503.5" font-family="Helvetica,sans-Serif" font-size="10.00">signal_easel::ax25</text>
<text text-anchor="middle" x="997" y="-492.5" font-family="Helvetica,sans-Serif" font-size="10.00">::Address::isSsidValid</text>
</a>
</g>
</g>
<!-- Node7&#45;&gt;Node8 -->
<g id="edge7" class="edge">
<title>Node7&#45;&gt;Node8</title>
<path fill="none" stroke="midnightblue" d="M893.58,-500.5C904.52,-500.5 915.76,-500.5 926.6,-500.5"/>
<polygon fill="midnightblue" stroke="midnightblue" points="926.84,-504 936.84,-500.5 926.84,-497 926.84,-504"/>
</g>
<!-- Node10 -->
<g id="node10" class="node">
<title>Node10</title>
<g id="a_node10"><a xlink:href="classsignal__easel_1_1BitStream.html#a81d4aea4c11f65e0c2b7ad2f0f0cc312" target="_top" xlink:title=" ">
<polygon fill="none" stroke="black" points="567,-392.5 567,-422.5 699,-422.5 699,-392.5 567,-392.5"/>
<text text-anchor="start" x="575" y="-410.5" font-family="Helvetica,sans-Serif" font-size="10.00">signal_easel::BitStream</text>
<text text-anchor="middle" x="633" y="-399.5" font-family="Helvetica,sans-Serif" font-size="10.00">::addOneBit</text>
</a>
</g>
</g>
<!-- Node9&#45;&gt;Node10 -->
<g id="edge9" class="edge">
<title>Node9&#45;&gt;Node10</title>
<path fill="none" stroke="midnightblue" d="M498.6,-319.47C509.59,-323.07 520.67,-327.93 530,-334.5 552.1,-350.05 544.37,-367.3 566,-383.5 567.86,-384.9 569.82,-386.22 571.83,-387.47"/>
<polygon fill="midnightblue" stroke="midnightblue" points="570.58,-390.77 581.03,-392.5 573.94,-384.63 570.58,-390.77"/>
</g>
<!-- Node12 -->
<g id="node12" class="node">
<title>Node12</title>
<g id="a_node12"><a xlink:href="classsignal__easel_1_1BitStream.html#abb315beec8c4d88115d9d4ec5f082863" target="_top" xlink:title=" ">
<polygon fill="none" stroke="black" points="567,-343.5 567,-373.5 699,-373.5 699,-343.5 567,-343.5"/>
<text text-anchor="start" x="575" y="-361.5" font-family="Helvetica,sans-Serif" font-size="10.00">signal_easel::BitStream</text>
<text text-anchor="middle" x="633" y="-350.5" font-family="Helvetica,sans-Serif" font-size="10.00">::addZeroBit</text>
</a>
</g>
</g>
<!-- Node9&#45;&gt;Node12 -->
<g id="edge11" class="edge">
<title>Node9&#45;&gt;Node12</title>
<path fill="none" stroke="midnightblue" d="M498.8,-323.41C519.39,-328.83 543.22,-335.11 564.99,-340.85"/>
<polygon fill="midnightblue" stroke="midnightblue" points="564.27,-344.28 574.83,-343.44 566.05,-337.51 564.27,-344.28"/>
</g>
<!-- Node13 -->
<g id="node13" class="node">
<title>Node13</title>
<g id="a_node13"><a xlink:href="classsignal__easel_1_1BitStream.html#aa97152ef51f73088e103a7951134aa85" target="_top" xlink:title=" ">
<polygon fill="none" stroke="black" points="567,-245.5 567,-275.5 699,-275.5 699,-245.5 567,-245.5"/>
<text text-anchor="start" x="575" y="-263.5" font-family="Helvetica,sans-Serif" font-size="10.00">signal_easel::BitStream</text>
<text text-anchor="middle" x="633" y="-252.5" font-family="Helvetica,sans-Serif" font-size="10.00">::getBitStreamLength</text>
</a>
</g>
</g>
<!-- Node9&#45;&gt;Node13 -->
<g id="edge13" class="edge">
<title>Node9&#45;&gt;Node13</title>
<path fill="none" stroke="midnightblue" d="M498.8,-295.59C519.39,-290.17 543.22,-283.89 564.99,-278.15"/>
<polygon fill="midnightblue" stroke="midnightblue" points="566.05,-281.49 574.83,-275.56 564.27,-274.72 566.05,-281.49"/>
</g>
<!-- Node14 -->
<g id="node14" class="node">
<title>Node14</title>
<g id="a_node14"><a xlink:href="classsignal__easel_1_1BitStream.html#a5b5339586e09ca5c25a7e9ded0118ffb" target="_top" xlink:title="Returns the next bit of the bit stream that will be encoded.">
<polygon fill="none" stroke="black" points="567,-196.5 567,-226.5 699,-226.5 699,-196.5 567,-196.5"/>
<text text-anchor="start" x="575" y="-214.5" font-family="Helvetica,sans-Serif" font-size="10.00">signal_easel::BitStream</text>
<text text-anchor="middle" x="633" y="-203.5" font-family="Helvetica,sans-Serif" font-size="10.00">::popNextBit</text>
</a>
</g>
</g>
<!-- Node9&#45;&gt;Node14 -->
<g id="edge14" class="edge">
<title>Node9&#45;&gt;Node14</title>
<path fill="none" stroke="midnightblue" d="M472.73,-294.45C489.35,-284.96 511.1,-272.3 530,-260.5 546.31,-250.32 548.9,-245.3 566,-236.5 570.03,-234.43 574.28,-232.43 578.59,-230.53"/>
<polygon fill="midnightblue" stroke="midnightblue" points="580.22,-233.64 588.08,-226.54 577.51,-227.19 580.22,-233.64"/>
</g>
<!-- Node15 -->
<g id="node15" class="node">
<title>Node15</title>
<g id="a_node15"><a xlink:href="classsignal__easel_1_1BitStream.html#a278666dbf58a4792e4f77538ab72b4b6" target="_top" xlink:title="After adding all of the data to the bit stream, this method will write the data left in the buffer.">
<polygon fill="none" stroke="black" points="566,-294.5 566,-324.5 700,-324.5 700,-294.5 566,-294.5"/>
<text text-anchor="start" x="574" y="-312.5" font-family="Helvetica,sans-Serif" font-size="10.00">signal_easel::BitStream</text>
<text text-anchor="middle" x="633" y="-301.5" font-family="Helvetica,sans-Serif" font-size="10.00">::pushBufferToBitStream</text>
</a>
</g>
</g>
<!-- Node9&#45;&gt;Node15 -->
<g id="edge15" class="edge">
<title>Node9&#45;&gt;Node15</title>
<path fill="none" stroke="midnightblue" d="M498.8,-309.5C516.46,-309.5 536.52,-309.5 555.61,-309.5"/>
<polygon fill="midnightblue" stroke="midnightblue" points="555.79,-313 565.79,-309.5 555.79,-306 555.79,-313"/>
</g>
<!-- Node11 -->
<g id="node11" class="node">
<title>Node11</title>
<g id="a_node11"><a xlink:href="classsignal__easel_1_1BitStream.html#a9df75eb28c03717c9fad2d30a85de6e6" target="_top" xlink:title=" ">
<polygon fill="none" stroke="black" points="752.5,-364.5 752.5,-394.5 884.5,-394.5 884.5,-364.5 752.5,-364.5"/>
<text text-anchor="start" x="760.5" y="-382.5" font-family="Helvetica,sans-Serif" font-size="10.00">signal_easel::BitStream</text>
<text text-anchor="middle" x="818.5" y="-371.5" font-family="Helvetica,sans-Serif" font-size="10.00">::addBits</text>
</a>
</g>
</g>
<!-- Node10&#45;&gt;Node11 -->
<g id="edge10" class="edge">
<title>Node10&#45;&gt;Node11</title>
<path fill="none" stroke="midnightblue" d="M699.21,-397.55C713.14,-395.42 727.96,-393.16 742.23,-390.99"/>
<polygon fill="midnightblue" stroke="midnightblue" points="743.14,-394.39 752.5,-389.42 742.08,-387.47 743.14,-394.39"/>
</g>
<!-- Node12&#45;&gt;Node11 -->
<g id="edge12" class="edge">
<title>Node12&#45;&gt;Node11</title>
<path fill="none" stroke="midnightblue" d="M699.21,-365.96C713.14,-367.56 727.96,-369.25 742.23,-370.89"/>
<polygon fill="midnightblue" stroke="midnightblue" points="742.16,-374.4 752.5,-372.06 742.96,-367.45 742.16,-374.4"/>
</g>
<!-- Node16&#45;&gt;Node13 -->
<g id="edge17" class="edge">
<title>Node16&#45;&gt;Node13</title>
<path fill="none" stroke="midnightblue" d="M498.5,-199.32C509.16,-202.7 520.13,-206.75 530,-211.5 547.56,-219.94 548.7,-227.54 566,-236.5 569.34,-238.23 572.82,-239.89 576.38,-241.47"/>
<polygon fill="midnightblue" stroke="midnightblue" points="575.32,-244.82 585.9,-245.47 578.04,-238.37 575.32,-244.82"/>
</g>
<!-- Node16&#45;&gt;Node14 -->
<g id="edge19" class="edge">
<title>Node16&#45;&gt;Node14</title>
<path fill="none" stroke="midnightblue" d="M498.8,-193.6C516.82,-196.02 537.33,-198.78 556.77,-201.39"/>
<polygon fill="midnightblue" stroke="midnightblue" points="556.43,-204.87 566.81,-202.74 557.37,-197.94 556.43,-204.87"/>
</g>
<!-- Node17 -->
<g id="node17" class="node">
<title>Node17</title>
<g id="a_node17"><a xlink:href="classsignal__easel_1_1BitStream.html#ad7b803a89b3a53ec1e4108122861a90b" target="_top" xlink:title="Returns the next bit of the bit stream without removing it.">
<polygon fill="none" stroke="black" points="567,-49.5 567,-79.5 699,-79.5 699,-49.5 567,-49.5"/>
<text text-anchor="start" x="575" y="-67.5" font-family="Helvetica,sans-Serif" font-size="10.00">signal_easel::BitStream</text>
<text text-anchor="middle" x="633" y="-56.5" font-family="Helvetica,sans-Serif" font-size="10.00">::peakNextBit</text>
</a>
</g>
</g>
<!-- Node16&#45;&gt;Node17 -->
<g id="edge18" class="edge">
<title>Node16&#45;&gt;Node17</title>
<path fill="none" stroke="midnightblue" d="M461.04,-171.34C482.62,-150.29 524.37,-112.16 566,-88.5 569.01,-86.79 572.16,-85.17 575.38,-83.63"/>
<polygon fill="midnightblue" stroke="midnightblue" points="576.9,-86.79 584.61,-79.52 574.05,-80.39 576.9,-86.79"/>
</g>
<!-- Node18 -->
<g id="node18" class="node">
<title>Node18</title>
<g id="a_node18"><a xlink:href="namespacesignal__easel_1_1ax25.html#a464aaf0b31941db183dcd08d641a793c" target="_top" xlink:title=" ">
<polygon fill="none" stroke="black" points="579.5,-0.5 579.5,-30.5 686.5,-30.5 686.5,-0.5 579.5,-0.5"/>
<text text-anchor="start" x="587.5" y="-18.5" font-family="Helvetica,sans-Serif" font-size="10.00">signal_easel::ax25</text>
<text text-anchor="middle" x="633" y="-7.5" font-family="Helvetica,sans-Serif" font-size="10.00">::reverse_bits</text>
</a>
</g>
</g>
<!-- Node16&#45;&gt;Node18 -->
<g id="edge20" class="edge">
<title>Node16&#45;&gt;Node18</title>
<path fill="none" stroke="midnightblue" d="M454.54,-171.32C471.85,-141.84 513.89,-76.5 566,-39.5 568.09,-38.02 570.28,-36.62 572.54,-35.29"/>
<polygon fill="midnightblue" stroke="midnightblue" points="574.31,-38.32 581.54,-30.57 571.06,-32.12 574.31,-38.32"/>
</g>
<!-- Node19&#45;&gt;Node13 -->
<g id="edge22" class="edge">
<title>Node19&#45;&gt;Node13</title>
<path fill="none" stroke="midnightblue" d="M498.8,-242.6C516.82,-245.02 537.33,-247.78 556.77,-250.39"/>
<polygon fill="midnightblue" stroke="midnightblue" points="556.43,-253.87 566.81,-251.74 557.37,-246.94 556.43,-253.87"/>
</g>
<!-- Node19&#45;&gt;Node14 -->
<g id="edge25" class="edge">
<title>Node19&#45;&gt;Node14</title>
<path fill="none" stroke="midnightblue" d="M498.8,-228.69C516.82,-226.36 537.33,-223.72 556.77,-221.21"/>
<polygon fill="midnightblue" stroke="midnightblue" points="557.34,-224.66 566.81,-219.91 556.45,-217.72 557.34,-224.66"/>
</g>
<!-- Node20 -->
<g id="node20" class="node">
<title>Node20</title>
<g id="a_node20"><a xlink:href="classsignal__easel_1_1BitStream.html#a4cf488a318e02146a94d58cbb540fe69" target="_top" xlink:title=" ">
<polygon fill="none" stroke="black" points="567,-147.5 567,-177.5 699,-177.5 699,-147.5 567,-147.5"/>
<text text-anchor="start" x="575" y="-165.5" font-family="Helvetica,sans-Serif" font-size="10.00">signal_easel::BitStream</text>
<text text-anchor="middle" x="633" y="-154.5" font-family="Helvetica,sans-Serif" font-size="10.00">::getBitVector</text>
</a>
</g>
</g>
<!-- Node19&#45;&gt;Node20 -->
<g id="edge23" class="edge">
<title>Node19&#45;&gt;Node20</title>
<path fill="none" stroke="midnightblue" d="M498.89,-223.1C509.41,-219.88 520.23,-216.02 530,-211.5 547.45,-203.43 548.9,-196.3 566,-187.5 570.03,-185.43 574.28,-183.43 578.59,-181.53"/>
<polygon fill="midnightblue" stroke="midnightblue" points="580.22,-184.64 588.08,-177.54 577.51,-178.19 580.22,-184.64"/>
</g>
<!-- Node21 -->
<g id="node21" class="node">
<title>Node21</title>
<g id="a_node21"><a xlink:href="classsignal__easel_1_1BitStream.html#a3212a6021fa0e315170f8654c8e1c103" target="_top" xlink:title=" ">
<polygon fill="none" stroke="black" points="567,-98.5 567,-128.5 699,-128.5 699,-98.5 567,-98.5"/>
<text text-anchor="start" x="575" y="-116.5" font-family="Helvetica,sans-Serif" font-size="10.00">signal_easel::BitStream</text>
<text text-anchor="middle" x="633" y="-105.5" font-family="Helvetica,sans-Serif" font-size="10.00">::peakNextByte</text>
</a>
</g>
</g>
<!-- Node19&#45;&gt;Node21 -->
<g id="edge24" class="edge">
<title>Node19&#45;&gt;Node21</title>
<path fill="none" stroke="midnightblue" d="M498.62,-227.68C509.86,-224.14 521.03,-218.98 530,-211.5 557.77,-188.32 539.22,-162.82 566,-138.5 567.73,-136.93 569.57,-135.45 571.5,-134.06"/>
<polygon fill="midnightblue" stroke="midnightblue" points="573.74,-136.79 580.38,-128.54 570.04,-130.85 573.74,-136.79"/>
</g>
<!-- Node22&#45;&gt;Node5 -->
<g id="edge27" class="edge">
<title>Node22&#45;&gt;Node5</title>
<path fill="none" stroke="midnightblue" d="M503.07,-422.53C522.71,-427.71 544.87,-433.55 565.22,-438.91"/>
<polygon fill="midnightblue" stroke="midnightblue" points="564.48,-442.33 575.04,-441.49 566.26,-435.56 564.48,-442.33"/>
</g>
<!-- Node23&#45;&gt;Node5 -->
<g id="edge29" class="edge">
<title>Node23&#45;&gt;Node5</title>
<path fill="none" stroke="midnightblue" d="M512.14,-373.61C518.45,-376.38 524.52,-379.65 530,-383.5 552.1,-399.05 544.37,-416.3 566,-432.5 567.86,-433.9 569.82,-435.22 571.83,-436.47"/>
<polygon fill="midnightblue" stroke="midnightblue" points="570.58,-439.77 581.03,-441.5 573.94,-433.63 570.58,-439.77"/>
</g>
</g>
</svg>
