<?xml version="1.0" encoding="UTF-8" standalone="no"?>
<!DOCTYPE svg PUBLIC "-//W3C//DTD SVG 1.1//EN"
 "http://www.w3.org/Graphics/SVG/1.1/DTD/svg11.dtd">
<!-- Generated by graphviz version 2.43.0 (0)
 -->
<!-- Title: signal_easel::ax25::Address::assertSsidIsValid Pages: 1 -->
<svg width="1333pt" height="323pt"
 viewBox="0.00 0.00 1333.00 323.00" xmlns="http://www.w3.org/2000/svg" xmlns:xlink="http://www.w3.org/1999/xlink">
<g id="graph0" class="graph" transform="scale(1 1) rotate(0) translate(4 319)">
<title>signal_easel::ax25::Address::assertSsidIsValid</title>
<!-- Node1 -->
<g id="node1" class="node">
<title>Node1</title>
<g id="a_node1"><a xlink:title=" ">
<polygon fill="#bfbfbf" stroke="black" points="1175,-49.5 1175,-79.5 1325,-79.5 1325,-49.5 1175,-49.5"/>
<text text-anchor="start" x="1183" y="-67.5" font-family="Helvetica,sans-Serif" font-size="10.00">signal_easel::ax25</text>
<text text-anchor="middle" x="1250" y="-56.5" font-family="Helvetica,sans-Serif" font-size="10.00">::Address::assertSsidIsValid</text>
</a>
</g>
</g>
<!-- Node2 -->
<g id="node2" class="node">
<title>Node2</title>
<g id="a_node2"><a xlink:href="classsignal__easel_1_1ax25_1_1Address.html#a7fa6b0ef4241413893f201660991e4ea" target="_top" xlink:title="Checks if the address is valid, if not throws an exception with a specific error code.">
<polygon fill="none" stroke="black" points="1003,-164.5 1003,-194.5 1133,-194.5 1133,-164.5 1003,-164.5"/>
<text text-anchor="start" x="1011" y="-182.5" font-family="Helvetica,sans-Serif" font-size="10.00">signal_easel::ax25</text>
<text text-anchor="middle" x="1068" y="-171.5" font-family="Helvetica,sans-Serif" font-size="10.00">::Address::assertIsValid</text>
</a>
</g>
</g>
<!-- Node1&#45;&gt;Node2 -->
<g id="edge1" class="edge">
<title>Node1&#45;&gt;Node2</title>
<path fill="none" stroke="midnightblue" d="M1216.87,-85.03C1181.16,-107.84 1124.34,-144.14 1092.54,-164.46"/>
<polygon fill="midnightblue" stroke="midnightblue" points="1218.93,-87.87 1225.47,-79.53 1215.16,-81.97 1218.93,-87.87"/>
</g>
<!-- Node20 -->
<g id="node20" class="node">
<title>Node20</title>
<g id="a_node20"><a xlink:href="classsignal__easel_1_1ax25_1_1Address.html#a6a2594f26aa1d2a46e33d7da1a1d5fdd" target="_top" xlink:title="Decode an AX.25 address from it&#39;s byte array representation.">
<polygon fill="none" stroke="black" points="997,-49.5 997,-79.5 1139,-79.5 1139,-49.5 997,-49.5"/>
<text text-anchor="start" x="1005" y="-67.5" font-family="Helvetica,sans-Serif" font-size="10.00">signal_easel::ax25</text>
<text text-anchor="middle" x="1068" y="-56.5" font-family="Helvetica,sans-Serif" font-size="10.00">::Address::decodeAddress</text>
</a>
</g>
</g>
<!-- Node1&#45;&gt;Node20 -->
<g id="edge26" class="edge">
<title>Node1&#45;&gt;Node20</title>
<path fill="none" stroke="midnightblue" d="M1164.71,-64.5C1156.11,-64.5 1147.45,-64.5 1139.03,-64.5"/>
<polygon fill="midnightblue" stroke="midnightblue" points="1164.75,-68 1174.75,-64.5 1164.75,-61 1164.75,-68"/>
</g>
<!-- Node22 -->
<g id="node22" class="node">
<title>Node22</title>
<g id="a_node22"><a xlink:href="classsignal__easel_1_1ax25_1_1Address.html#a069a8d96c0d74e4a3288876c429c7187" target="_top" xlink:title="Set the SSID (0&#45;15)">
<polygon fill="none" stroke="black" points="1014.5,-0.5 1014.5,-30.5 1121.5,-30.5 1121.5,-0.5 1014.5,-0.5"/>
<text text-anchor="start" x="1022.5" y="-18.5" font-family="Helvetica,sans-Serif" font-size="10.00">signal_easel::ax25</text>
<text text-anchor="middle" x="1068" y="-7.5" font-family="Helvetica,sans-Serif" font-size="10.00">::Address::setSsid</text>
</a>
</g>
</g>
<!-- Node1&#45;&gt;Node22 -->
<g id="edge28" class="edge">
<title>Node1&#45;&gt;Node22</title>
<path fill="none" stroke="midnightblue" d="M1183.66,-46.71C1163.23,-41.15 1140.96,-35.09 1121.52,-29.8"/>
<polygon fill="midnightblue" stroke="midnightblue" points="1182.96,-50.15 1193.53,-49.4 1184.8,-43.39 1182.96,-50.15"/>
</g>
<!-- Node3 -->
<g id="node3" class="node">
<title>Node3</title>
<g id="a_node3"><a xlink:href="classsignal__easel_1_1ax25_1_1Frame.html#af86d4b534367a8faf6b628301c9ffceb" target="_top" xlink:title=" ">
<polygon fill="none" stroke="black" points="795.5,-284.5 795.5,-314.5 956.5,-314.5 956.5,-284.5 795.5,-284.5"/>
<text text-anchor="start" x="803.5" y="-302.5" font-family="Helvetica,sans-Serif" font-size="10.00">signal_easel::ax25</text>
<text text-anchor="middle" x="876" y="-291.5" font-family="Helvetica,sans-Serif" font-size="10.00">::Frame::addRepeaterAddress</text>
</a>
</g>
</g>
<!-- Node2&#45;&gt;Node3 -->
<g id="edge2" class="edge">
<title>Node2&#45;&gt;Node3</title>
<path fill="none" stroke="midnightblue" d="M1047.57,-202.34C1027.85,-224.13 995.41,-256.38 961,-275.5 954.9,-278.89 948.28,-281.83 941.53,-284.39"/>
<polygon fill="midnightblue" stroke="midnightblue" points="1050.21,-204.63 1054.23,-194.83 1044.98,-199.98 1050.21,-204.63"/>
</g>
<!-- Node8 -->
<g id="node8" class="node">
<title>Node8</title>
<g id="a_node8"><a xlink:href="classsignal__easel_1_1ax25_1_1Address.html#a0c31737081a9184b56dc32150b23cb0a" target="_top" xlink:title="Get the address as a byte array.">
<polygon fill="none" stroke="black" points="805,-98.5 805,-128.5 947,-128.5 947,-98.5 805,-98.5"/>
<text text-anchor="start" x="813" y="-116.5" font-family="Helvetica,sans-Serif" font-size="10.00">signal_easel::ax25</text>
<text text-anchor="middle" x="876" y="-105.5" font-family="Helvetica,sans-Serif" font-size="10.00">::Address::encodeAddress</text>
</a>
</g>
</g>
<!-- Node2&#45;&gt;Node8 -->
<g id="edge7" class="edge">
<title>Node2&#45;&gt;Node8</title>
<path fill="none" stroke="midnightblue" d="M1013.7,-160.98C984.24,-150.75 948.1,-138.2 920.39,-128.57"/>
<polygon fill="midnightblue" stroke="midnightblue" points="1012.82,-164.38 1023.41,-164.36 1015.11,-157.77 1012.82,-164.38"/>
</g>
<!-- Node16 -->
<g id="node16" class="node">
<title>Node16</title>
<g id="a_node16"><a xlink:href="classsignal__easel_1_1ax25_1_1Frame.html#a57b163ece54317da8d95f3b18b47c23d" target="_top" xlink:title="setters/getters for the frame.">
<polygon fill="none" stroke="black" points="791,-186.5 791,-216.5 961,-216.5 961,-186.5 791,-186.5"/>
<text text-anchor="start" x="799" y="-204.5" font-family="Helvetica,sans-Serif" font-size="10.00">signal_easel::ax25</text>
<text text-anchor="middle" x="876" y="-193.5" font-family="Helvetica,sans-Serif" font-size="10.00">::Frame::setDestinationAddress</text>
</a>
</g>
</g>
<!-- Node2&#45;&gt;Node16 -->
<g id="edge16" class="edge">
<title>Node2&#45;&gt;Node16</title>
<path fill="none" stroke="midnightblue" d="M992.68,-188.1C982.29,-189.31 971.56,-190.55 961,-191.77"/>
<polygon fill="midnightblue" stroke="midnightblue" points="993.41,-191.54 1002.94,-186.92 992.6,-184.59 993.41,-191.54"/>
</g>
<!-- Node18 -->
<g id="node18" class="node">
<title>Node18</title>
<g id="a_node18"><a xlink:href="ax25__frame__test_8cpp.html#a091d83d42783f2a0b3fd33a0521dc2ce" target="_top" xlink:title=" ">
<polygon fill="none" stroke="black" points="667,-167 667,-186 708,-186 708,-167 667,-167"/>
<text text-anchor="middle" x="687.5" y="-174" font-family="Helvetica,sans-Serif" font-size="10.00">TEST</text>
</a>
</g>
</g>
<!-- Node2&#45;&gt;Node18 -->
<g id="edge25" class="edge">
<title>Node2&#45;&gt;Node18</title>
<path fill="none" stroke="midnightblue" d="M992.7,-177.95C982.06,-177.78 971.25,-177.62 961,-177.5 866.39,-176.43 753.29,-176.42 708.33,-176.47"/>
<polygon fill="midnightblue" stroke="midnightblue" points="992.76,-181.46 1002.82,-178.13 992.88,-174.46 992.76,-181.46"/>
</g>
<!-- Node19 -->
<g id="node19" class="node">
<title>Node19</title>
<g id="a_node19"><a xlink:href="classsignal__easel_1_1ax25_1_1Frame.html#a402d26a81f82bb5c477e8930b75a771e" target="_top" xlink:title=" ">
<polygon fill="none" stroke="black" points="803,-235.5 803,-265.5 949,-265.5 949,-235.5 803,-235.5"/>
<text text-anchor="start" x="811" y="-253.5" font-family="Helvetica,sans-Serif" font-size="10.00">signal_easel::ax25</text>
<text text-anchor="middle" x="876" y="-242.5" font-family="Helvetica,sans-Serif" font-size="10.00">::Frame::setSourceAddress</text>
</a>
</g>
</g>
<!-- Node2&#45;&gt;Node19 -->
<g id="edge21" class="edge">
<title>Node2&#45;&gt;Node19</title>
<path fill="none" stroke="midnightblue" d="M1026.71,-198.95C1007.13,-207.99 983.12,-218.48 961,-226.5 952.3,-229.65 942.98,-232.67 933.83,-235.43"/>
<polygon fill="midnightblue" stroke="midnightblue" points="1028.35,-202.05 1035.93,-194.65 1025.39,-195.7 1028.35,-202.05"/>
</g>
<!-- Node4 -->
<g id="node4" class="node">
<title>Node4</title>
<g id="a_node4"><a xlink:href="classsignal__easel_1_1ax25_1_1Frame.html#a63cf2362c2a90d20f09bbbc4f24a07ba" target="_top" xlink:title="Attempt to parse an incoming bit stream into an AX.25 frame.">
<polygon fill="none" stroke="black" points="620,-254.5 620,-284.5 755,-284.5 755,-254.5 620,-254.5"/>
<text text-anchor="start" x="628" y="-272.5" font-family="Helvetica,sans-Serif" font-size="10.00">signal_easel::ax25</text>
<text text-anchor="middle" x="687.5" y="-261.5" font-family="Helvetica,sans-Serif" font-size="10.00">::Frame::parseBitStream</text>
</a>
</g>
</g>
<!-- Node3&#45;&gt;Node4 -->
<g id="edge3" class="edge">
<title>Node3&#45;&gt;Node4</title>
<path fill="none" stroke="midnightblue" d="M785.29,-285.07C775.17,-283.44 765,-281.81 755.26,-280.24"/>
<polygon fill="midnightblue" stroke="midnightblue" points="784.94,-288.56 795.37,-286.69 786.05,-281.65 784.94,-288.56"/>
</g>
<!-- Node5 -->
<g id="node5" class="node">
<title>Node5</title>
<g id="a_node5"><a xlink:href="classsignal__easel_1_1aprs_1_1Demodulator.html#ae5a8e7634c1bc8d215a0c454a9a737fa" target="_top" xlink:title=" ">
<polygon fill="none" stroke="black" points="431,-249 431,-290 584,-290 584,-249 431,-249"/>
<text text-anchor="start" x="439" y="-278" font-family="Helvetica,sans-Serif" font-size="10.00">signal_easel::aprs</text>
<text text-anchor="start" x="439" y="-267" font-family="Helvetica,sans-Serif" font-size="10.00">::Demodulator::lookForAx25</text>
<text text-anchor="middle" x="507.5" y="-256" font-family="Helvetica,sans-Serif" font-size="10.00">Packet</text>
</a>
</g>
</g>
<!-- Node4&#45;&gt;Node5 -->
<g id="edge4" class="edge">
<title>Node4&#45;&gt;Node5</title>
<path fill="none" stroke="midnightblue" d="M609.74,-269.5C601.29,-269.5 592.68,-269.5 584.23,-269.5"/>
<polygon fill="midnightblue" stroke="midnightblue" points="609.97,-273 619.97,-269.5 609.97,-266 609.97,-273"/>
</g>
<!-- Node6 -->
<g id="node6" class="node">
<title>Node6</title>
<g id="a_node6"><a xlink:href="classsignal__easel_1_1aprs_1_1Receiver.html#afbf7869aceaf2ea7ab0be8b9af16e818" target="_top" xlink:title=" ">
<polygon fill="none" stroke="black" points="288,-276.5 288,-306.5 395,-306.5 395,-276.5 288,-276.5"/>
<text text-anchor="start" x="296" y="-294.5" font-family="Helvetica,sans-Serif" font-size="10.00">signal_easel::aprs</text>
<text text-anchor="middle" x="341.5" y="-283.5" font-family="Helvetica,sans-Serif" font-size="10.00">::Receiver::decode</text>
</a>
</g>
</g>
<!-- Node5&#45;&gt;Node6 -->
<g id="edge5" class="edge">
<title>Node5&#45;&gt;Node6</title>
<path fill="none" stroke="midnightblue" d="M420.67,-281.01C412.09,-282.17 403.56,-283.31 395.47,-284.39"/>
<polygon fill="midnightblue" stroke="midnightblue" points="421.29,-284.46 430.74,-279.66 420.36,-277.52 421.29,-284.46"/>
</g>
<!-- Node7 -->
<g id="node7" class="node">
<title>Node7</title>
<g id="a_node7"><a xlink:href="aprs__test_8cpp.html#aea66d1824e3f1e27598adf99ac6a089a" target="_top" xlink:title=" ">
<polygon fill="none" stroke="black" points="0,-213 0,-232 41,-232 41,-213 0,-213"/>
<text text-anchor="middle" x="20.5" y="-220" font-family="Helvetica,sans-Serif" font-size="10.00">TEST</text>
</a>
</g>
</g>
<!-- Node5&#45;&gt;Node7 -->
<g id="edge6" class="edge">
<title>Node5&#45;&gt;Node7</title>
<path fill="none" stroke="midnightblue" d="M420.77,-261.63C334.06,-253.6 196.17,-240.63 77,-228.5 65.04,-227.28 51.65,-225.84 41.01,-224.67"/>
<polygon fill="midnightblue" stroke="midnightblue" points="420.55,-265.13 430.83,-262.56 421.19,-258.16 420.55,-265.13"/>
</g>
<!-- Node9 -->
<g id="node9" class="node">
<title>Node9</title>
<g id="a_node9"><a xlink:href="classsignal__easel_1_1ax25_1_1Frame.html#a24e7d5ffc6504a3380e97142d1bc084e" target="_top" xlink:title="Builds all internal portions of the frame. Doesn&#39;t include the flags.">
<polygon fill="none" stroke="black" points="630.5,-79.5 630.5,-109.5 744.5,-109.5 744.5,-79.5 630.5,-79.5"/>
<text text-anchor="start" x="638.5" y="-97.5" font-family="Helvetica,sans-Serif" font-size="10.00">signal_easel::ax25</text>
<text text-anchor="middle" x="687.5" y="-86.5" font-family="Helvetica,sans-Serif" font-size="10.00">::Frame::buildFrame</text>
</a>
</g>
</g>
<!-- Node8&#45;&gt;Node9 -->
<g id="edge8" class="edge">
<title>Node8&#45;&gt;Node9</title>
<path fill="none" stroke="midnightblue" d="M794.42,-105.29C777.68,-103.59 760.38,-101.82 744.74,-100.23"/>
<polygon fill="midnightblue" stroke="midnightblue" points="794.45,-108.81 804.76,-106.34 795.16,-101.85 794.45,-108.81"/>
</g>
<!-- Node15 -->
<g id="node15" class="node">
<title>Node15</title>
<g id="a_node15"><a xlink:href="ax25__address__test_8cpp.html#a1d87028368532ba4ae914da9397571d3" target="_top" xlink:title=" ">
<polygon fill="none" stroke="black" points="667,-129 667,-148 708,-148 708,-129 667,-129"/>
<text text-anchor="middle" x="687.5" y="-136" font-family="Helvetica,sans-Serif" font-size="10.00">TEST</text>
</a>
</g>
</g>
<!-- Node8&#45;&gt;Node15 -->
<g id="edge15" class="edge">
<title>Node8&#45;&gt;Node15</title>
<path fill="none" stroke="midnightblue" d="M794.55,-124.28C762.81,-128.54 729.07,-133.06 708.38,-135.84"/>
<polygon fill="midnightblue" stroke="midnightblue" points="795.31,-127.71 804.76,-122.92 794.38,-120.78 795.31,-127.71"/>
</g>
<!-- Node10 -->
<g id="node10" class="node">
<title>Node10</title>
<g id="a_node10"><a xlink:href="classsignal__easel_1_1ax25_1_1Frame.html#a2b4f6ebcb7592a7e5a21114c8fafa503" target="_top" xlink:title="A step beyond buildFrame. This function builds the frame, does the bit stuffing, adds the flags,...">
<polygon fill="none" stroke="black" points="445,-92.5 445,-122.5 570,-122.5 570,-92.5 445,-92.5"/>
<text text-anchor="start" x="453" y="-110.5" font-family="Helvetica,sans-Serif" font-size="10.00">signal_easel::ax25</text>
<text text-anchor="middle" x="507.5" y="-99.5" font-family="Helvetica,sans-Serif" font-size="10.00">::Frame::encodeFrame</text>
</a>
</g>
</g>
<!-- Node9&#45;&gt;Node10 -->
<g id="edge9" class="edge">
<title>Node9&#45;&gt;Node10</title>
<path fill="none" stroke="midnightblue" d="M620.12,-99.35C603.7,-100.55 586.18,-101.83 570.01,-103.01"/>
<polygon fill="midnightblue" stroke="midnightblue" points="620.46,-102.83 630.18,-98.61 619.95,-95.85 620.46,-102.83"/>
</g>
<!-- Node11 -->
<g id="node11" class="node">
<title>Node11</title>
<g id="a_node11"><a xlink:href="namespacesignal__easel_1_1aprs.html#a77481001a5b78a839972bb4220b43e4d" target="_top" xlink:title=" ">
<polygon fill="none" stroke="black" points="289.5,-128.5 289.5,-158.5 393.5,-158.5 393.5,-128.5 289.5,-128.5"/>
<text text-anchor="start" x="297.5" y="-146.5" font-family="Helvetica,sans-Serif" font-size="10.00">signal_easel::aprs</text>
<text text-anchor="middle" x="341.5" y="-135.5" font-family="Helvetica,sans-Serif" font-size="10.00">::encodePacket</text>
</a>
</g>
</g>
<!-- Node10&#45;&gt;Node11 -->
<g id="edge10" class="edge">
<title>Node10&#45;&gt;Node11</title>
<path fill="none" stroke="midnightblue" d="M434.94,-123.21C421.04,-126.26 406.74,-129.4 393.66,-132.27"/>
<polygon fill="midnightblue" stroke="midnightblue" points="435.95,-126.57 444.97,-121.01 434.45,-119.73 435.95,-126.57"/>
</g>
<!-- Node12 -->
<g id="node12" class="node">
<title>Node12</title>
<g id="a_node12"><a xlink:href="classsignal__easel_1_1aprs_1_1Modulator.html#adfa8809d1c11321b9ff2c7efe7f58499" target="_top" xlink:title=" ">
<polygon fill="none" stroke="black" points="77,-128.5 77,-158.5 252,-158.5 252,-128.5 77,-128.5"/>
<text text-anchor="start" x="85" y="-146.5" font-family="Helvetica,sans-Serif" font-size="10.00">signal_easel::aprs</text>
<text text-anchor="middle" x="164.5" y="-135.5" font-family="Helvetica,sans-Serif" font-size="10.00">::Modulator::encodeMessageAck</text>
</a>
</g>
</g>
<!-- Node11&#45;&gt;Node12 -->
<g id="edge11" class="edge">
<title>Node11&#45;&gt;Node12</title>
<path fill="none" stroke="midnightblue" d="M279.31,-143.5C270.53,-143.5 261.37,-143.5 252.21,-143.5"/>
<polygon fill="midnightblue" stroke="midnightblue" points="279.41,-147 289.41,-143.5 279.41,-140 279.41,-147"/>
</g>
<!-- Node13 -->
<g id="node13" class="node">
<title>Node13</title>
<g id="a_node13"><a xlink:href="classsignal__easel_1_1aprs_1_1Modulator.html#a147321b48c2e282c62863f114702e54f" target="_top" xlink:title=" ">
<polygon fill="none" stroke="black" points="86,-178 86,-219 243,-219 243,-178 86,-178"/>
<text text-anchor="start" x="94" y="-207" font-family="Helvetica,sans-Serif" font-size="10.00">signal_easel::aprs</text>
<text text-anchor="start" x="94" y="-196" font-family="Helvetica,sans-Serif" font-size="10.00">::Modulator::encodeMessage</text>
<text text-anchor="middle" x="164.5" y="-185" font-family="Helvetica,sans-Serif" font-size="10.00">Packet</text>
</a>
</g>
</g>
<!-- Node11&#45;&gt;Node13 -->
<g id="edge12" class="edge">
<title>Node11&#45;&gt;Node13</title>
<path fill="none" stroke="midnightblue" d="M283.08,-161.55C266.42,-166.78 248.09,-172.54 230.97,-177.92"/>
<polygon fill="midnightblue" stroke="midnightblue" points="284.19,-164.87 292.68,-158.53 282.09,-158.19 284.19,-164.87"/>
</g>
<!-- Node14 -->
<g id="node14" class="node">
<title>Node14</title>
<g id="a_node14"><a xlink:href="classsignal__easel_1_1aprs_1_1Modulator.html#a943e392227656943d7db842e1889d805" target="_top" xlink:title=" ">
<polygon fill="none" stroke="black" points="88.5,-68 88.5,-109 240.5,-109 240.5,-68 88.5,-68"/>
<text text-anchor="start" x="96.5" y="-97" font-family="Helvetica,sans-Serif" font-size="10.00">signal_easel::aprs</text>
<text text-anchor="start" x="96.5" y="-86" font-family="Helvetica,sans-Serif" font-size="10.00">::Modulator::encodePosition</text>
<text text-anchor="middle" x="164.5" y="-75" font-family="Helvetica,sans-Serif" font-size="10.00">Packet</text>
</a>
</g>
</g>
<!-- Node11&#45;&gt;Node14 -->
<g id="edge14" class="edge">
<title>Node11&#45;&gt;Node14</title>
<path fill="none" stroke="midnightblue" d="M283.08,-125.45C266.42,-120.22 248.09,-114.46 230.97,-109.08"/>
<polygon fill="midnightblue" stroke="midnightblue" points="282.09,-128.81 292.68,-128.47 284.19,-122.13 282.09,-128.81"/>
</g>
<!-- Node13&#45;&gt;Node7 -->
<g id="edge13" class="edge">
<title>Node13&#45;&gt;Node7</title>
<path fill="none" stroke="midnightblue" d="M75.84,-213.32C62.91,-215.5 50.76,-217.55 41.24,-219.16"/>
<polygon fill="midnightblue" stroke="midnightblue" points="76.58,-216.74 85.85,-211.62 75.41,-209.84 76.58,-216.74"/>
</g>
<!-- Node16&#45;&gt;Node4 -->
<g id="edge19" class="edge">
<title>Node16&#45;&gt;Node4</title>
<path fill="none" stroke="midnightblue" d="M809.15,-219.74C802.96,-221.86 796.82,-224.12 791,-226.5 774.25,-233.34 771.55,-238.19 755,-245.5 747.93,-248.62 740.31,-251.66 732.84,-254.47"/>
<polygon fill="midnightblue" stroke="midnightblue" points="810.49,-222.98 818.89,-216.53 808.3,-216.34 810.49,-222.98"/>
</g>
<!-- Node17 -->
<g id="node17" class="node">
<title>Node17</title>
<g id="a_node17"><a xlink:href="namespacesignal__easel_1_1aprs.html#a586b022fa0c917fa8557bbd5cdc6aeeb" target="_top" xlink:title=" ">
<polygon fill="none" stroke="black" points="631,-205.5 631,-235.5 744,-235.5 744,-205.5 631,-205.5"/>
<text text-anchor="start" x="639" y="-223.5" font-family="Helvetica,sans-Serif" font-size="10.00">signal_easel::aprs</text>
<text text-anchor="middle" x="687.5" y="-212.5" font-family="Helvetica,sans-Serif" font-size="10.00">::AddRequiredFields</text>
</a>
</g>
</g>
<!-- Node16&#45;&gt;Node17 -->
<g id="edge17" class="edge">
<title>Node16&#45;&gt;Node17</title>
<path fill="none" stroke="midnightblue" d="M780.71,-211.11C768.16,-212.38 755.64,-213.66 744.06,-214.84"/>
<polygon fill="midnightblue" stroke="midnightblue" points="781.16,-214.58 790.75,-210.08 780.45,-207.61 781.16,-214.58"/>
</g>
<!-- Node16&#45;&gt;Node18 -->
<g id="edge20" class="edge">
<title>Node16&#45;&gt;Node18</title>
<path fill="none" stroke="midnightblue" d="M780.65,-188.85C753.2,-185.17 725.87,-181.51 708.19,-179.14"/>
<polygon fill="midnightblue" stroke="midnightblue" points="780.38,-192.35 790.75,-190.21 781.31,-185.41 780.38,-192.35"/>
</g>
<!-- Node17&#45;&gt;Node11 -->
<g id="edge18" class="edge">
<title>Node17&#45;&gt;Node11</title>
<path fill="none" stroke="midnightblue" d="M620.94,-205.83C554.79,-191.02 454.03,-168.46 393.58,-154.93"/>
<polygon fill="midnightblue" stroke="midnightblue" points="620.33,-209.27 630.85,-208.04 621.85,-202.44 620.33,-209.27"/>
</g>
<!-- Node19&#45;&gt;Node4 -->
<g id="edge23" class="edge">
<title>Node19&#45;&gt;Node4</title>
<path fill="none" stroke="midnightblue" d="M792.88,-258.87C780.29,-260.15 767.42,-261.46 755.22,-262.7"/>
<polygon fill="midnightblue" stroke="midnightblue" points="793.3,-262.34 802.89,-257.85 792.59,-255.38 793.3,-262.34"/>
</g>
<!-- Node19&#45;&gt;Node17 -->
<g id="edge22" class="edge">
<title>Node19&#45;&gt;Node17</title>
<path fill="none" stroke="midnightblue" d="M792.76,-237.27C776.35,-234.63 759.48,-231.92 744.22,-229.46"/>
<polygon fill="midnightblue" stroke="midnightblue" points="792.47,-240.77 802.89,-238.9 793.58,-233.86 792.47,-240.77"/>
</g>
<!-- Node19&#45;&gt;Node18 -->
<g id="edge24" class="edge">
<title>Node19&#45;&gt;Node18</title>
<path fill="none" stroke="midnightblue" d="M801.97,-231.7C798.2,-230.09 794.52,-228.36 791,-226.5 772.59,-216.76 773.34,-206.37 755,-196.5 740.24,-188.56 721.9,-183.35 708.23,-180.24"/>
<polygon fill="midnightblue" stroke="midnightblue" points="800.91,-235.05 811.5,-235.46 803.48,-228.53 800.91,-235.05"/>
</g>
<!-- Node21 -->
<g id="node21" class="node">
<title>Node21</title>
<g id="a_node21"><a xlink:href="classsignal__easel_1_1ax25_1_1Address.html#a2ffb5475017120d1071e4b8d3f35c394" target="_top" xlink:title=" ">
<polygon fill="none" stroke="black" points="822.5,-49.5 822.5,-79.5 929.5,-79.5 929.5,-49.5 822.5,-49.5"/>
<text text-anchor="start" x="830.5" y="-67.5" font-family="Helvetica,sans-Serif" font-size="10.00">signal_easel::ax25</text>
<text text-anchor="middle" x="876" y="-56.5" font-family="Helvetica,sans-Serif" font-size="10.00">::Address::Address</text>
</a>
</g>
</g>
<!-- Node20&#45;&gt;Node21 -->
<g id="edge27" class="edge">
<title>Node20&#45;&gt;Node21</title>
<path fill="none" stroke="midnightblue" d="M986.53,-64.5C967.31,-64.5 947.29,-64.5 929.69,-64.5"/>
<polygon fill="midnightblue" stroke="midnightblue" points="986.79,-68 996.79,-64.5 986.79,-61 986.79,-68"/>
</g>
<!-- Node23 -->
<g id="node23" class="node">
<title>Node23</title>
<g id="a_node23"><a xlink:href="classsignal__easel_1_1ax25_1_1Address.html#af2e2c1061b619a32d966d4b08eed7ede" target="_top" xlink:title=" ">
<polygon fill="none" stroke="black" points="822.5,-0.5 822.5,-30.5 929.5,-30.5 929.5,-0.5 822.5,-0.5"/>
<text text-anchor="start" x="830.5" y="-18.5" font-family="Helvetica,sans-Serif" font-size="10.00">signal_easel::ax25</text>
<text text-anchor="middle" x="876" y="-7.5" font-family="Helvetica,sans-Serif" font-size="10.00">::Address::Address</text>
</a>
</g>
</g>
<!-- Node22&#45;&gt;Node23 -->
<g id="edge29" class="edge">
<title>Node22&#45;&gt;Node23</title>
<path fill="none" stroke="midnightblue" d="M1004.21,-15.5C980.1,-15.5 952.85,-15.5 929.78,-15.5"/>
<polygon fill="midnightblue" stroke="midnightblue" points="1004.33,-19 1014.33,-15.5 1004.33,-12 1004.33,-19"/>
</g>
</g>
</svg>
