<?xml version="1.0" encoding="UTF-8" standalone="no"?>
<!DOCTYPE svg PUBLIC "-//W3C//DTD SVG 1.1//EN"
 "http://www.w3.org/Graphics/SVG/1.1/DTD/svg11.dtd">
<!-- Generated by graphviz version 2.43.0 (0)
 -->
<!-- Title: signal_easel::Modulator::addSilence Pages: 1 -->
<svg width="648pt" height="98pt"
 viewBox="0.00 0.00 648.00 98.00" xmlns="http://www.w3.org/2000/svg" xmlns:xlink="http://www.w3.org/1999/xlink">
<g id="graph0" class="graph" transform="scale(1 1) rotate(0) translate(4 94)">
<title>signal_easel::Modulator::addSilence</title>
<!-- Node1 -->
<g id="node1" class="node">
<title>Node1</title>
<g id="a_node1"><a xlink:title="Add silence to the audio buffer.">
<polygon fill="#bfbfbf" stroke="black" points="507,-25.5 507,-55.5 640,-55.5 640,-25.5 507,-25.5"/>
<text text-anchor="start" x="515" y="-43.5" font-family="Helvetica,sans-Serif" font-size="10.00">signal_easel::Modulator</text>
<text text-anchor="middle" x="573.5" y="-32.5" font-family="Helvetica,sans-Serif" font-size="10.00">::addSilence</text>
</a>
</g>
</g>
<!-- Node2 -->
<g id="node2" class="node">
<title>Node2</title>
<g id="a_node2"><a xlink:href="classsignal__easel_1_1Modulator.html#a67263d2a46fdb510adb0b4211699bf26" target="_top" xlink:title="Add morse code to the output audio.">
<polygon fill="none" stroke="black" points="338,-25.5 338,-55.5 471,-55.5 471,-25.5 338,-25.5"/>
<text text-anchor="start" x="346" y="-43.5" font-family="Helvetica,sans-Serif" font-size="10.00">signal_easel::Modulator</text>
<text text-anchor="middle" x="404.5" y="-32.5" font-family="Helvetica,sans-Serif" font-size="10.00">::addMorseCode</text>
</a>
</g>
</g>
<!-- Node1&#45;&gt;Node2 -->
<g id="edge1" class="edge">
<title>Node1&#45;&gt;Node2</title>
<path fill="none" stroke="midnightblue" d="M496.93,-40.5C488.32,-40.5 479.58,-40.5 471.11,-40.5"/>
<polygon fill="midnightblue" stroke="midnightblue" points="496.98,-44 506.98,-40.5 496.98,-37 496.98,-44"/>
</g>
<!-- Node3 -->
<g id="node3" class="node">
<title>Node3</title>
<g id="a_node3"><a xlink:href="classsignal__easel_1_1Modulator.html#a39e52e97a95a761b73ba928f8a29e916" target="_top" xlink:title="Clears the audio buffer. Adds the call sign if it&#39;s in the before or before_and_after modes.">
<polygon fill="none" stroke="black" points="169,-59.5 169,-89.5 302,-89.5 302,-59.5 169,-59.5"/>
<text text-anchor="start" x="177" y="-77.5" font-family="Helvetica,sans-Serif" font-size="10.00">signal_easel::Modulator</text>
<text text-anchor="middle" x="235.5" y="-66.5" font-family="Helvetica,sans-Serif" font-size="10.00">::clearBuffer</text>
</a>
</g>
</g>
<!-- Node1&#45;&gt;Node3 -->
<g id="edge6" class="edge">
<title>Node1&#45;&gt;Node3</title>
<path fill="none" stroke="midnightblue" d="M510.47,-57.89C497.52,-60.92 483.89,-63.68 471,-65.5 414.32,-73.48 349.22,-75.42 302.01,-75.53"/>
<polygon fill="midnightblue" stroke="midnightblue" points="511.32,-61.29 520.22,-55.53 509.67,-54.48 511.32,-61.29"/>
</g>
<!-- Node5 -->
<g id="node5" class="node">
<title>Node5</title>
<g id="a_node5"><a xlink:href="classsignal__easel_1_1Modulator.html#a6ff0b49cd126afe576ac949476268f10" target="_top" xlink:title="Write the audio to a file.">
<polygon fill="none" stroke="black" points="169,-0.5 169,-30.5 302,-30.5 302,-0.5 169,-0.5"/>
<text text-anchor="start" x="177" y="-18.5" font-family="Helvetica,sans-Serif" font-size="10.00">signal_easel::Modulator</text>
<text text-anchor="middle" x="235.5" y="-7.5" font-family="Helvetica,sans-Serif" font-size="10.00">::writeToFile</text>
</a>
</g>
</g>
<!-- Node1&#45;&gt;Node5 -->
<g id="edge7" class="edge">
<title>Node1&#45;&gt;Node5</title>
<path fill="none" stroke="midnightblue" d="M511.81,-23.03C498.48,-19.9 484.35,-17.12 471,-15.5 414.32,-8.62 349.36,-9.28 302.21,-11.28"/>
<polygon fill="midnightblue" stroke="midnightblue" points="511.29,-26.5 521.83,-25.47 512.95,-19.7 511.29,-26.5"/>
</g>
<!-- Node2&#45;&gt;Node3 -->
<g id="edge2" class="edge">
<title>Node2&#45;&gt;Node3</title>
<path fill="none" stroke="midnightblue" d="M327.93,-55.88C319.32,-57.64 310.58,-59.42 302.11,-61.14"/>
<polygon fill="midnightblue" stroke="midnightblue" points="328.88,-59.26 337.98,-53.84 327.48,-52.41 328.88,-59.26"/>
</g>
<!-- Node2&#45;&gt;Node5 -->
<g id="edge4" class="edge">
<title>Node2&#45;&gt;Node5</title>
<path fill="none" stroke="midnightblue" d="M327.93,-29.19C319.32,-27.9 310.58,-26.59 302.11,-25.32"/>
<polygon fill="midnightblue" stroke="midnightblue" points="327.57,-32.67 337.98,-30.69 328.6,-25.75 327.57,-32.67"/>
</g>
<!-- Node4 -->
<g id="node4" class="node">
<title>Node4</title>
<g id="a_node4"><a xlink:href="classsignal__easel_1_1Modulator.html#aacf988cd7965d448b2da697911c76faf" target="_top" xlink:title="Constructor for the base modulator class.">
<polygon fill="none" stroke="black" points="0,-59.5 0,-89.5 133,-89.5 133,-59.5 0,-59.5"/>
<text text-anchor="start" x="8" y="-77.5" font-family="Helvetica,sans-Serif" font-size="10.00">signal_easel::Modulator</text>
<text text-anchor="middle" x="66.5" y="-66.5" font-family="Helvetica,sans-Serif" font-size="10.00">::Modulator</text>
</a>
</g>
</g>
<!-- Node3&#45;&gt;Node4 -->
<g id="edge3" class="edge">
<title>Node3&#45;&gt;Node4</title>
<path fill="none" stroke="midnightblue" d="M158.93,-74.5C150.32,-74.5 141.58,-74.5 133.11,-74.5"/>
<polygon fill="midnightblue" stroke="midnightblue" points="158.98,-78 168.98,-74.5 158.98,-71 158.98,-78"/>
</g>
<!-- Node6 -->
<g id="node6" class="node">
<title>Node6</title>
<g id="a_node6"><a xlink:href="afsk__test_8cpp.html#a894b615862c352aa932a7ff5fb85c6dd" target="_top" xlink:title="Encodes a string into an AFSK1200 signal/WAV file and then decodes it.">
<polygon fill="none" stroke="black" points="46,-6 46,-25 87,-25 87,-6 46,-6"/>
<text text-anchor="middle" x="66.5" y="-13" font-family="Helvetica,sans-Serif" font-size="10.00">TEST</text>
</a>
</g>
</g>
<!-- Node5&#45;&gt;Node6 -->
<g id="edge5" class="edge">
<title>Node5&#45;&gt;Node6</title>
<path fill="none" stroke="midnightblue" d="M158.94,-15.5C132.57,-15.5 105.13,-15.5 87.27,-15.5"/>
<polygon fill="midnightblue" stroke="midnightblue" points="158.98,-19 168.98,-15.5 158.98,-12 158.98,-19"/>
</g>
</g>
</svg>
