<?xml version="1.0" encoding="UTF-8" standalone="no"?>
<!DOCTYPE svg PUBLIC "-//W3C//DTD SVG 1.1//EN"
 "http://www.w3.org/Graphics/SVG/1.1/DTD/svg11.dtd">
<!-- Generated by graphviz version 2.43.0 (0)
 -->
<!-- Title: main Pages: 1 -->
<svg width="171pt" height="66pt"
 viewBox="0.00 0.00 171.00 66.00" xmlns="http://www.w3.org/2000/svg" xmlns:xlink="http://www.w3.org/1999/xlink">
<g id="graph0" class="graph" transform="scale(1 1) rotate(0) translate(4 62)">
<title>main</title>
<!-- Node1 -->
<g id="node1" class="node">
<title>Node1</title>
<g id="a_node1"><a xlink:title=" ">
<polygon fill="#bfbfbf" stroke="black" points="0,-19.5 0,-38.5 41,-38.5 41,-19.5 0,-19.5"/>
<text text-anchor="middle" x="20.5" y="-26.5" font-family="Helvetica,sans-Serif" font-size="10.00">main</text>
</a>
</g>
</g>
<!-- Node2 -->
<g id="node2" class="node">
<title>Node2</title>
<g id="a_node2"><a xlink:href="commandline-demo_8cpp.html#a7a2dedfead6b5ce87f66628cfe814fa5" target="_top" xlink:title=" ">
<polygon fill="none" stroke="black" points="85,-38.5 85,-57.5 155,-57.5 155,-38.5 85,-38.5"/>
<text text-anchor="middle" x="120" y="-45.5" font-family="Helvetica,sans-Serif" font-size="10.00">getIntInput</text>
</a>
</g>
</g>
<!-- Node1&#45;&gt;Node2 -->
<g id="edge1" class="edge">
<title>Node1&#45;&gt;Node2</title>
<path fill="none" stroke="midnightblue" d="M41.23,-32.84C50.87,-34.72 62.89,-37.07 74.58,-39.34"/>
<polygon fill="midnightblue" stroke="midnightblue" points="74.21,-42.84 84.69,-41.31 75.55,-35.97 74.21,-42.84"/>
</g>
<!-- Node3 -->
<g id="node3" class="node">
<title>Node3</title>
<g id="a_node3"><a xlink:href="commandline-demo_8cpp.html#a6aa24cf309431c495847584966bb86bd" target="_top" xlink:title=" ">
<polygon fill="none" stroke="black" points="77,-0.5 77,-19.5 163,-19.5 163,-0.5 77,-0.5"/>
<text text-anchor="middle" x="120" y="-7.5" font-family="Helvetica,sans-Serif" font-size="10.00">getStringInput</text>
</a>
</g>
</g>
<!-- Node1&#45;&gt;Node3 -->
<g id="edge2" class="edge">
<title>Node1&#45;&gt;Node3</title>
<path fill="none" stroke="midnightblue" d="M41.23,-25.16C48.75,-23.69 57.72,-21.94 66.84,-20.16"/>
<polygon fill="midnightblue" stroke="midnightblue" points="67.6,-23.58 76.75,-18.23 66.26,-16.71 67.6,-23.58"/>
</g>
</g>
</svg>
