<?xml version="1.0" encoding="UTF-8" standalone="no"?>
<!DOCTYPE svg PUBLIC "-//W3C//DTD SVG 1.1//EN"
 "http://www.w3.org/Graphics/SVG/1.1/DTD/svg11.dtd">
<!-- Generated by graphviz version 2.43.0 (0)
 -->
<!-- Title: constants.hpp Pages: 1 -->
<svg width="939pt" height="308pt"
 viewBox="0.00 0.00 939.00 308.00" xmlns="http://www.w3.org/2000/svg" xmlns:xlink="http://www.w3.org/1999/xlink">
<g id="graph0" class="graph" transform="scale(1 1) rotate(0) translate(4 304)">
<title>constants.hpp</title>
<!-- Node1 -->
<g id="node1" class="node">
<title>Node1</title>
<g id="a_node1"><a xlink:title="Common constants used throughout the library.">
<polygon fill="#bfbfbf" stroke="black" points="382.5,-280.5 382.5,-299.5 467.5,-299.5 467.5,-280.5 382.5,-280.5"/>
<text text-anchor="middle" x="425" y="-287.5" font-family="Helvetica,sans-Serif" font-size="10.00">constants.hpp</text>
</a>
</g>
</g>
<!-- Node2 -->
<g id="node2" class="node">
<title>Node2</title>
<g id="a_node2"><a xlink:href="modulator_8cpp.html" target="_top" xlink:title="The abstract modulator class implementation.">
<polygon fill="none" stroke="black" points="0,-224.5 0,-243.5 86,-243.5 86,-224.5 0,-224.5"/>
<text text-anchor="middle" x="43" y="-231.5" font-family="Helvetica,sans-Serif" font-size="10.00">modulator.cpp</text>
</a>
</g>
</g>
<!-- Node1&#45;&gt;Node2 -->
<g id="edge1" class="edge">
<title>Node1&#45;&gt;Node2</title>
<path fill="none" stroke="midnightblue" d="M372.44,-282.42C307.26,-274.13 192.77,-259.12 95,-244 92.1,-243.55 89.12,-243.08 86.11,-242.58"/>
<polygon fill="midnightblue" stroke="midnightblue" points="372.11,-285.91 382.47,-283.7 372.99,-278.97 372.11,-285.91"/>
</g>
<!-- Node3 -->
<g id="node3" class="node">
<title>Node3</title>
<g id="a_node3"><a xlink:href="morse__modulator_8cpp.html" target="_top" xlink:title="Simple morse code modulator.">
<polygon fill="none" stroke="black" points="104,-224.5 104,-243.5 226,-243.5 226,-224.5 104,-224.5"/>
<text text-anchor="middle" x="165" y="-231.5" font-family="Helvetica,sans-Serif" font-size="10.00">morse_modulator.cpp</text>
</a>
</g>
</g>
<!-- Node1&#45;&gt;Node3 -->
<g id="edge2" class="edge">
<title>Node1&#45;&gt;Node3</title>
<path fill="none" stroke="midnightblue" d="M374.01,-278.41C324.87,-268.2 251.47,-252.96 206.01,-243.52"/>
<polygon fill="midnightblue" stroke="midnightblue" points="373.3,-281.84 383.8,-280.44 374.72,-274.98 373.3,-281.84"/>
</g>
<!-- Node4 -->
<g id="node4" class="node">
<title>Node4</title>
<g id="a_node4"><a xlink:href="psk__modulator_8cpp.html" target="_top" xlink:title="Phase Shift Keying modulator.">
<polygon fill="none" stroke="black" points="202.5,-112.5 202.5,-131.5 311.5,-131.5 311.5,-112.5 202.5,-112.5"/>
<text text-anchor="middle" x="257" y="-119.5" font-family="Helvetica,sans-Serif" font-size="10.00">psk_modulator.cpp</text>
</a>
</g>
</g>
<!-- Node1&#45;&gt;Node4 -->
<g id="edge3" class="edge">
<title>Node1&#45;&gt;Node4</title>
<path fill="none" stroke="midnightblue" d="M372.63,-278.22C350.73,-271.49 326.39,-260.78 309,-244 275.27,-211.46 262.21,-153.44 258.35,-131.62"/>
<polygon fill="midnightblue" stroke="midnightblue" points="371.91,-281.66 382.49,-281.05 373.84,-274.93 371.91,-281.66"/>
</g>
<!-- Node5 -->
<g id="node5" class="node">
<title>Node5</title>
<g id="a_node5"><a xlink:href="psk__wave__shaper_8hpp.html" target="_top" xlink:title=" ">
<polygon fill="none" stroke="black" points="318,-224.5 318,-243.5 442,-243.5 442,-224.5 318,-224.5"/>
<text text-anchor="middle" x="380" y="-231.5" font-family="Helvetica,sans-Serif" font-size="10.00">psk_wave_shaper.hpp</text>
</a>
</g>
</g>
<!-- Node1&#45;&gt;Node5 -->
<g id="edge4" class="edge">
<title>Node1&#45;&gt;Node5</title>
<path fill="none" stroke="midnightblue" d="M410.95,-272.14C403.11,-262.74 393.67,-251.4 387.29,-243.75"/>
<polygon fill="midnightblue" stroke="midnightblue" points="408.48,-274.64 417.57,-280.08 413.86,-270.16 408.48,-274.64"/>
</g>
<!-- Node8 -->
<g id="node8" class="node">
<title>Node8</title>
<g id="a_node8"><a xlink:href="pulse__audio__reader_8cpp.html" target="_top" xlink:title="PulseAudio reader implementation.">
<polygon fill="none" stroke="black" points="520.5,-168.5 520.5,-187.5 651.5,-187.5 651.5,-168.5 520.5,-168.5"/>
<text text-anchor="middle" x="586" y="-175.5" font-family="Helvetica,sans-Serif" font-size="10.00">pulse_audio_reader.cpp</text>
</a>
</g>
</g>
<!-- Node1&#45;&gt;Node8 -->
<g id="edge9" class="edge">
<title>Node1&#45;&gt;Node8</title>
<path fill="none" stroke="midnightblue" d="M477.48,-284.09C528.77,-278.08 601.61,-265.89 619,-244 633.33,-225.97 610.6,-200.72 596.27,-187.63"/>
<polygon fill="midnightblue" stroke="midnightblue" points="477.08,-280.61 467.53,-285.21 477.86,-287.57 477.08,-280.61"/>
</g>
<!-- Node9 -->
<g id="node9" class="node">
<title>Node9</title>
<g id="a_node9"><a xlink:href="sstv__modulator_8cpp.html" target="_top" xlink:title="SSTV implementation.">
<polygon fill="none" stroke="black" points="498,-224.5 498,-243.5 610,-243.5 610,-224.5 498,-224.5"/>
<text text-anchor="middle" x="554" y="-231.5" font-family="Helvetica,sans-Serif" font-size="10.00">sstv_modulator.cpp</text>
</a>
</g>
</g>
<!-- Node1&#45;&gt;Node9 -->
<g id="edge10" class="edge">
<title>Node1&#45;&gt;Node9</title>
<path fill="none" stroke="midnightblue" d="M454.85,-276.5C479.04,-266.38 512.46,-252.39 533.66,-243.52"/>
<polygon fill="midnightblue" stroke="midnightblue" points="453.31,-273.35 445.44,-280.44 456.02,-279.81 453.31,-273.35"/>
</g>
<!-- Node10 -->
<g id="node10" class="node">
<title>Node10</title>
<g id="a_node10"><a xlink:href="afsk_8hpp.html" target="_top" xlink:title="AFSK related modulation/demodulation.">
<polygon fill="none" stroke="black" points="486.5,-112.5 486.5,-131.5 545.5,-131.5 545.5,-112.5 486.5,-112.5"/>
<text text-anchor="middle" x="516" y="-119.5" font-family="Helvetica,sans-Serif" font-size="10.00">afsk.hpp</text>
</a>
</g>
</g>
<!-- Node1&#45;&gt;Node10 -->
<g id="edge11" class="edge">
<title>Node1&#45;&gt;Node10</title>
<path fill="none" stroke="midnightblue" d="M435.2,-271.64C440.04,-263.32 445.89,-253.18 451,-244 474.33,-202.13 501.1,-151.42 511.52,-131.56"/>
<polygon fill="midnightblue" stroke="midnightblue" points="432.09,-270.02 430.06,-280.42 438.13,-273.55 432.09,-270.02"/>
</g>
<!-- Node23 -->
<g id="node23" class="node">
<title>Node23</title>
<g id="a_node23"><a xlink:href="pulse__audio_8hpp.html" target="_top" xlink:title="Simple pulse audio interface.">
<polygon fill="none" stroke="black" points="666,-224.5 666,-243.5 762,-243.5 762,-224.5 666,-224.5"/>
<text text-anchor="middle" x="714" y="-231.5" font-family="Helvetica,sans-Serif" font-size="10.00">pulse_audio.hpp</text>
</a>
</g>
</g>
<!-- Node1&#45;&gt;Node23 -->
<g id="edge25" class="edge">
<title>Node1&#45;&gt;Node23</title>
<path fill="none" stroke="midnightblue" d="M477.8,-279.13C532.33,-268.94 616.56,-253.21 668.32,-243.54"/>
<polygon fill="midnightblue" stroke="midnightblue" points="476.83,-275.75 467.64,-281.03 478.12,-282.64 476.83,-275.75"/>
</g>
<!-- Node5&#45;&gt;Node4 -->
<g id="edge8" class="edge">
<title>Node5&#45;&gt;Node4</title>
<path fill="none" stroke="midnightblue" d="M355.08,-219.23C341.36,-211.06 324.45,-199.98 311,-188 291.06,-170.24 272.18,-144.88 262.93,-131.7"/>
<polygon fill="midnightblue" stroke="midnightblue" points="353.58,-222.41 363.98,-224.4 357.09,-216.35 353.58,-222.41"/>
</g>
<!-- Node6 -->
<g id="node6" class="node">
<title>Node6</title>
<g id="a_node6"><a xlink:href="convolutional__code_8hpp.html" target="_top" xlink:title="Convolutional Code Implementation.">
<polygon fill="none" stroke="black" points="320,-168.5 320,-187.5 452,-187.5 452,-168.5 320,-168.5"/>
<text text-anchor="middle" x="386" y="-175.5" font-family="Helvetica,sans-Serif" font-size="10.00">convolutional_code.hpp</text>
</a>
</g>
</g>
<!-- Node5&#45;&gt;Node6 -->
<g id="edge5" class="edge">
<title>Node5&#45;&gt;Node6</title>
<path fill="none" stroke="midnightblue" d="M382.1,-214.1C383.1,-205.14 384.24,-194.86 385.03,-187.75"/>
<polygon fill="midnightblue" stroke="midnightblue" points="378.62,-213.76 380.99,-224.08 385.57,-214.53 378.62,-213.76"/>
</g>
<!-- Node6&#45;&gt;Node4 -->
<g id="edge7" class="edge">
<title>Node6&#45;&gt;Node4</title>
<path fill="none" stroke="midnightblue" d="M356.15,-164.5C331.96,-154.38 298.54,-140.39 277.34,-131.52"/>
<polygon fill="midnightblue" stroke="midnightblue" points="354.98,-167.81 365.56,-168.44 357.69,-161.35 354.98,-167.81"/>
</g>
<!-- Node7 -->
<g id="node7" class="node">
<title>Node7</title>
<g id="a_node7"><a xlink:href="convolutional__code_8cpp.html" target="_top" xlink:title="Convolutional Code Implementation.">
<polygon fill="none" stroke="black" points="329.5,-112.5 329.5,-131.5 460.5,-131.5 460.5,-112.5 329.5,-112.5"/>
<text text-anchor="middle" x="395" y="-119.5" font-family="Helvetica,sans-Serif" font-size="10.00">convolutional_code.cpp</text>
</a>
</g>
</g>
<!-- Node6&#45;&gt;Node7 -->
<g id="edge6" class="edge">
<title>Node6&#45;&gt;Node7</title>
<path fill="none" stroke="midnightblue" d="M389.15,-158.1C390.64,-149.14 392.36,-138.86 393.54,-131.75"/>
<polygon fill="midnightblue" stroke="midnightblue" points="385.68,-157.64 387.49,-168.08 392.58,-158.79 385.68,-157.64"/>
</g>
<!-- Node11 -->
<g id="node11" class="node">
<title>Node11</title>
<g id="a_node11"><a xlink:href="afsk__demodulator_8cpp.html" target="_top" xlink:title="The AFSK demodulator class implementation.">
<polygon fill="none" stroke="black" points="583.5,-56.5 583.5,-75.5 708.5,-75.5 708.5,-56.5 583.5,-56.5"/>
<text text-anchor="middle" x="646" y="-63.5" font-family="Helvetica,sans-Serif" font-size="10.00">afsk_demodulator.cpp</text>
</a>
</g>
</g>
<!-- Node10&#45;&gt;Node11 -->
<g id="edge12" class="edge">
<title>Node10&#45;&gt;Node11</title>
<path fill="none" stroke="midnightblue" d="M546.09,-108.5C570.46,-98.38 604.14,-84.39 625.5,-75.52"/>
<polygon fill="midnightblue" stroke="midnightblue" points="544.49,-105.38 536.6,-112.44 547.18,-111.84 544.49,-105.38"/>
</g>
<!-- Node12 -->
<g id="node12" class="node">
<title>Node12</title>
<g id="a_node12"><a xlink:href="afsk__modulator_8cpp.html" target="_top" xlink:title="The AFSK modulator class implementation.">
<polygon fill="none" stroke="black" points="153.5,-56.5 153.5,-75.5 266.5,-75.5 266.5,-56.5 153.5,-56.5"/>
<text text-anchor="middle" x="210" y="-63.5" font-family="Helvetica,sans-Serif" font-size="10.00">afsk_modulator.cpp</text>
</a>
</g>
</g>
<!-- Node10&#45;&gt;Node12 -->
<g id="edge13" class="edge">
<title>Node10&#45;&gt;Node12</title>
<path fill="none" stroke="midnightblue" d="M476.31,-113.18C474.18,-112.78 472.06,-112.38 470,-112 397.69,-98.67 313.85,-84.37 261.36,-75.55"/>
<polygon fill="midnightblue" stroke="midnightblue" points="475.84,-116.65 486.32,-115.1 477.16,-109.78 475.84,-116.65"/>
</g>
<!-- Node13 -->
<g id="node13" class="node">
<title>Node13</title>
<g id="a_node13"><a xlink:href="afsk__receiver_8cpp.html" target="_top" xlink:title="Implementation of the AFSK receiver class.">
<polygon fill="none" stroke="black" points="285,-56.5 285,-75.5 387,-75.5 387,-56.5 285,-56.5"/>
<text text-anchor="middle" x="336" y="-63.5" font-family="Helvetica,sans-Serif" font-size="10.00">afsk_receiver.cpp</text>
</a>
</g>
</g>
<!-- Node10&#45;&gt;Node13 -->
<g id="edge14" class="edge">
<title>Node10&#45;&gt;Node13</title>
<path fill="none" stroke="midnightblue" d="M477.89,-109.57C443.94,-99.38 395.01,-84.7 364.39,-75.52"/>
<polygon fill="midnightblue" stroke="midnightblue" points="476.89,-112.92 487.48,-112.44 478.91,-106.22 476.89,-112.92"/>
</g>
<!-- Node14 -->
<g id="node14" class="node">
<title>Node14</title>
<g id="a_node14"><a xlink:href="aprs_8hpp.html" target="_top" xlink:title="APRS implementation.">
<polygon fill="none" stroke="black" points="405.5,-56.5 405.5,-75.5 464.5,-75.5 464.5,-56.5 405.5,-56.5"/>
<text text-anchor="middle" x="435" y="-63.5" font-family="Helvetica,sans-Serif" font-size="10.00">aprs.hpp</text>
</a>
</g>
</g>
<!-- Node10&#45;&gt;Node14 -->
<g id="edge15" class="edge">
<title>Node10&#45;&gt;Node14</title>
<path fill="none" stroke="midnightblue" d="M494.43,-106.62C479.64,-96.76 460.49,-83.99 447.98,-75.65"/>
<polygon fill="midnightblue" stroke="midnightblue" points="492.72,-109.69 502.99,-112.32 496.61,-103.86 492.72,-109.69"/>
</g>
<!-- Node21 -->
<g id="node21" class="node">
<title>Node21</title>
<g id="a_node21"><a xlink:href="pulse__test_8cpp.html" target="_top" xlink:title="PulseAudio output test. Does not use gtest.">
<polygon fill="none" stroke="black" points="725.5,-0.5 725.5,-19.5 812.5,-19.5 812.5,-0.5 725.5,-0.5"/>
<text text-anchor="middle" x="769" y="-7.5" font-family="Helvetica,sans-Serif" font-size="10.00">pulse_test.cpp</text>
</a>
</g>
</g>
<!-- Node10&#45;&gt;Node21 -->
<g id="edge24" class="edge">
<title>Node10&#45;&gt;Node21</title>
<path fill="none" stroke="midnightblue" d="M555.85,-119.94C598.9,-117.1 668.02,-107.5 718,-76 740.57,-61.78 757.27,-33.91 764.71,-19.73"/>
<polygon fill="midnightblue" stroke="midnightblue" points="555.55,-116.45 545.76,-120.51 555.94,-123.44 555.55,-116.45"/>
</g>
<!-- Node22 -->
<g id="node22" class="node">
<title>Node22</title>
<g id="a_node22"><a xlink:href="afsk__test_8cpp.html" target="_top" xlink:title=" ">
<polygon fill="none" stroke="black" points="483,-56.5 483,-75.5 565,-75.5 565,-56.5 483,-56.5"/>
<text text-anchor="middle" x="524" y="-63.5" font-family="Helvetica,sans-Serif" font-size="10.00">afsk_test.cpp</text>
</a>
</g>
</g>
<!-- Node10&#45;&gt;Node22 -->
<g id="edge23" class="edge">
<title>Node10&#45;&gt;Node22</title>
<path fill="none" stroke="midnightblue" d="M518.8,-102.1C520.13,-93.14 521.65,-82.86 522.7,-75.75"/>
<polygon fill="midnightblue" stroke="midnightblue" points="515.32,-101.68 517.32,-112.08 522.25,-102.7 515.32,-101.68"/>
</g>
<!-- Node15 -->
<g id="node15" class="node">
<title>Node15</title>
<g id="a_node15"><a xlink:href="aprs__demodulator_8cpp.html" target="_top" xlink:title="Implementation of the APRS demodulator class.">
<polygon fill="none" stroke="black" points="582.5,-0.5 582.5,-19.5 707.5,-19.5 707.5,-0.5 582.5,-0.5"/>
<text text-anchor="middle" x="645" y="-7.5" font-family="Helvetica,sans-Serif" font-size="10.00">aprs_demodulator.cpp</text>
</a>
</g>
</g>
<!-- Node14&#45;&gt;Node15 -->
<g id="edge16" class="edge">
<title>Node14&#45;&gt;Node15</title>
<path fill="none" stroke="midnightblue" d="M474.49,-54.85C514.1,-44.66 574.43,-29.15 611.7,-19.56"/>
<polygon fill="midnightblue" stroke="midnightblue" points="473.46,-51.5 464.64,-57.38 475.2,-58.28 473.46,-51.5"/>
</g>
<!-- Node16 -->
<g id="node16" class="node">
<title>Node16</title>
<g id="a_node16"><a xlink:href="aprs__encoders_8cpp.html" target="_top" xlink:title="Encoding functions for APRS packets.">
<polygon fill="none" stroke="black" points="29.5,-0.5 29.5,-19.5 136.5,-19.5 136.5,-0.5 29.5,-0.5"/>
<text text-anchor="middle" x="83" y="-7.5" font-family="Helvetica,sans-Serif" font-size="10.00">aprs_encoders.cpp</text>
</a>
</g>
</g>
<!-- Node14&#45;&gt;Node16 -->
<g id="edge17" class="edge">
<title>Node14&#45;&gt;Node16</title>
<path fill="none" stroke="midnightblue" d="M395.26,-56C283.53,-35.34 253.38,-35.64 145,-20 142.31,-19.61 139.55,-19.21 136.77,-18.81"/>
<polygon fill="midnightblue" stroke="midnightblue" points="394.77,-59.47 405.24,-57.86 396.05,-52.59 394.77,-59.47"/>
</g>
<!-- Node17 -->
<g id="node17" class="node">
<title>Node17</title>
<g id="a_node17"><a xlink:href="aprs__modulator_8cpp.html" target="_top" xlink:title="Implementation of the APRS modulator class.">
<polygon fill="none" stroke="black" points="154.5,-0.5 154.5,-19.5 267.5,-19.5 267.5,-0.5 154.5,-0.5"/>
<text text-anchor="middle" x="211" y="-7.5" font-family="Helvetica,sans-Serif" font-size="10.00">aprs_modulator.cpp</text>
</a>
</g>
</g>
<!-- Node14&#45;&gt;Node17 -->
<g id="edge18" class="edge">
<title>Node14&#45;&gt;Node17</title>
<path fill="none" stroke="midnightblue" d="M395.33,-55.44C353.11,-45.26 286.93,-29.3 246.41,-19.54"/>
<polygon fill="midnightblue" stroke="midnightblue" points="394.71,-58.89 405.25,-57.83 396.35,-52.08 394.71,-58.89"/>
</g>
<!-- Node18 -->
<g id="node18" class="node">
<title>Node18</title>
<g id="a_node18"><a xlink:href="aprs__receiver_8cpp.html" target="_top" xlink:title="Implementation of the APRS receiver class.">
<polygon fill="none" stroke="black" points="286,-0.5 286,-19.5 388,-19.5 388,-0.5 286,-0.5"/>
<text text-anchor="middle" x="337" y="-7.5" font-family="Helvetica,sans-Serif" font-size="10.00">aprs_receiver.cpp</text>
</a>
</g>
</g>
<!-- Node14&#45;&gt;Node18 -->
<g id="edge19" class="edge">
<title>Node14&#45;&gt;Node18</title>
<path fill="none" stroke="midnightblue" d="M410.41,-51.45C392.32,-41.48 368.27,-28.23 352.71,-19.65"/>
<polygon fill="midnightblue" stroke="midnightblue" points="408.81,-54.56 419.25,-56.32 412.19,-48.43 408.81,-54.56"/>
</g>
<!-- Node19 -->
<g id="node19" class="node">
<title>Node19</title>
<g id="a_node19"><a xlink:href="aprs_8cpp.html" target="_top" xlink:title="APRS implementation.">
<polygon fill="none" stroke="black" points="406,-0.5 406,-19.5 464,-19.5 464,-0.5 406,-0.5"/>
<text text-anchor="middle" x="435" y="-7.5" font-family="Helvetica,sans-Serif" font-size="10.00">aprs.cpp</text>
</a>
</g>
</g>
<!-- Node14&#45;&gt;Node19 -->
<g id="edge20" class="edge">
<title>Node14&#45;&gt;Node19</title>
<path fill="none" stroke="midnightblue" d="M435,-45.8C435,-36.91 435,-26.78 435,-19.75"/>
<polygon fill="midnightblue" stroke="midnightblue" points="431.5,-46.08 435,-56.08 438.5,-46.08 431.5,-46.08"/>
</g>
<!-- Node20 -->
<g id="node20" class="node">
<title>Node20</title>
<g id="a_node20"><a xlink:href="aprs__test_8cpp.html" target="_top" xlink:title=" ">
<polygon fill="none" stroke="black" points="482,-0.5 482,-19.5 564,-19.5 564,-0.5 482,-0.5"/>
<text text-anchor="middle" x="523" y="-7.5" font-family="Helvetica,sans-Serif" font-size="10.00">aprs_test.cpp</text>
</a>
</g>
</g>
<!-- Node14&#45;&gt;Node20 -->
<g id="edge21" class="edge">
<title>Node14&#45;&gt;Node20</title>
<path fill="none" stroke="midnightblue" d="M457.98,-50.9C474.11,-41 495.18,-28.07 508.9,-19.65"/>
<polygon fill="midnightblue" stroke="midnightblue" points="455.83,-48.11 449.14,-56.32 459.49,-54.08 455.83,-48.11"/>
</g>
<!-- Node14&#45;&gt;Node21 -->
<g id="edge22" class="edge">
<title>Node14&#45;&gt;Node21</title>
<path fill="none" stroke="midnightblue" d="M474.78,-55.99C582.98,-35.79 612.36,-36.8 717,-20 719.71,-19.56 722.51,-19.11 725.32,-18.64"/>
<polygon fill="midnightblue" stroke="midnightblue" points="473.94,-52.58 464.76,-57.88 475.23,-59.46 473.94,-52.58"/>
</g>
<!-- Node23&#45;&gt;Node8 -->
<g id="edge26" class="edge">
<title>Node23&#45;&gt;Node8</title>
<path fill="none" stroke="midnightblue" d="M684.38,-220.5C660.38,-210.38 627.22,-196.39 606.19,-187.52"/>
<polygon fill="midnightblue" stroke="midnightblue" points="683.14,-223.78 693.72,-224.44 685.86,-217.33 683.14,-223.78"/>
</g>
<!-- Node23&#45;&gt;Node21 -->
<g id="edge30" class="edge">
<title>Node23&#45;&gt;Node21</title>
<path fill="none" stroke="midnightblue" d="M733.34,-217.68C741.84,-209.79 751,-199.43 756,-188 782.16,-128.15 773.91,-46.04 770.3,-19.58"/>
<polygon fill="midnightblue" stroke="midnightblue" points="730.8,-215.24 725.55,-224.44 735.39,-220.53 730.8,-215.24"/>
</g>
<!-- Node24 -->
<g id="node24" class="node">
<title>Node24</title>
<g id="a_node24"><a xlink:href="pulse__audio__writer_8cpp.html" target="_top" xlink:title=" ">
<polygon fill="none" stroke="black" points="803,-168.5 803,-187.5 931,-187.5 931,-168.5 803,-168.5"/>
<text text-anchor="middle" x="867" y="-175.5" font-family="Helvetica,sans-Serif" font-size="10.00">pulse_audio_writer.cpp</text>
</a>
</g>
</g>
<!-- Node23&#45;&gt;Node24 -->
<g id="edge27" class="edge">
<title>Node23&#45;&gt;Node24</title>
<path fill="none" stroke="midnightblue" d="M747.89,-221.04C776.68,-210.88 817.29,-196.55 842.87,-187.52"/>
<polygon fill="midnightblue" stroke="midnightblue" points="746.51,-217.81 738.24,-224.44 748.84,-224.42 746.51,-217.81"/>
</g>
<!-- Node25 -->
<g id="node25" class="node">
<title>Node25</title>
<g id="a_node25"><a xlink:href="receiver_8hpp.html" target="_top" xlink:title="Base class for receivers. Demodulators that use pulse audio.">
<polygon fill="none" stroke="black" points="669.5,-168.5 669.5,-187.5 746.5,-187.5 746.5,-168.5 669.5,-168.5"/>
<text text-anchor="middle" x="708" y="-175.5" font-family="Helvetica,sans-Serif" font-size="10.00">receiver.hpp</text>
</a>
</g>
</g>
<!-- Node23&#45;&gt;Node25 -->
<g id="edge28" class="edge">
<title>Node23&#45;&gt;Node25</title>
<path fill="none" stroke="midnightblue" d="M711.9,-214.1C710.9,-205.14 709.76,-194.86 708.97,-187.75"/>
<polygon fill="midnightblue" stroke="midnightblue" points="708.43,-214.53 713.01,-224.08 715.38,-213.76 708.43,-214.53"/>
</g>
<!-- Node25&#45;&gt;Node10 -->
<g id="edge29" class="edge">
<title>Node25&#45;&gt;Node10</title>
<path fill="none" stroke="midnightblue" d="M667.76,-165.68C631.29,-155.43 578.39,-140.55 545.65,-131.34"/>
<polygon fill="midnightblue" stroke="midnightblue" points="667,-169.11 677.58,-168.44 668.9,-162.37 667,-169.11"/>
</g>
</g>
</svg>
