<?xml version="1.0" encoding="UTF-8" standalone="no"?>
<!DOCTYPE svg PUBLIC "-//W3C//DTD SVG 1.1//EN"
 "http://www.w3.org/Graphics/SVG/1.1/DTD/svg11.dtd">
<!-- Generated by graphviz version 2.43.0 (0)
 -->
<!-- Title: constants.hpp Pages: 1 -->
<svg width="904pt" height="308pt"
 viewBox="0.00 0.00 903.50 308.00" xmlns="http://www.w3.org/2000/svg" xmlns:xlink="http://www.w3.org/1999/xlink">
<g id="graph0" class="graph" transform="scale(1 1) rotate(0) translate(4 304)">
<title>constants.hpp</title>
<!-- Node1 -->
<g id="node1" class="node">
<title>Node1</title>
<g id="a_node1"><a xlink:title="Common constants used throughout the library.">
<polygon fill="#bfbfbf" stroke="black" points="369,-280.5 369,-299.5 454,-299.5 454,-280.5 369,-280.5"/>
<text text-anchor="middle" x="411.5" y="-287.5" font-family="Helvetica,sans-Serif" font-size="10.00">constants.hpp</text>
</a>
</g>
</g>
<!-- Node2 -->
<g id="node2" class="node">
<title>Node2</title>
<g id="a_node2"><a xlink:href="afsk_8hpp.html" target="_top" xlink:title="AFSK related modulation/demodulation.">
<polygon fill="none" stroke="black" points="464,-112.5 464,-131.5 523,-131.5 523,-112.5 464,-112.5"/>
<text text-anchor="middle" x="493.5" y="-119.5" font-family="Helvetica,sans-Serif" font-size="10.00">afsk.hpp</text>
</a>
</g>
</g>
<!-- Node1&#45;&gt;Node2 -->
<g id="edge1" class="edge">
<title>Node1&#45;&gt;Node2</title>
<path fill="none" stroke="midnightblue" d="M422.12,-271.47C426.99,-263.23 432.72,-253.21 437.5,-244 458.93,-202.7 481.23,-151.66 489.82,-131.64"/>
<polygon fill="midnightblue" stroke="midnightblue" points="419.05,-269.79 416.92,-280.17 425.06,-273.38 419.05,-269.79"/>
</g>
<!-- Node15 -->
<g id="node15" class="node">
<title>Node15</title>
<g id="a_node15"><a xlink:href="modulator_8cpp.html" target="_top" xlink:title="The abstract modulator class implementation.">
<polygon fill="none" stroke="black" points="60.5,-224.5 60.5,-243.5 146.5,-243.5 146.5,-224.5 60.5,-224.5"/>
<text text-anchor="middle" x="103.5" y="-231.5" font-family="Helvetica,sans-Serif" font-size="10.00">modulator.cpp</text>
</a>
</g>
</g>
<!-- Node1&#45;&gt;Node15 -->
<g id="edge15" class="edge">
<title>Node1&#45;&gt;Node15</title>
<path fill="none" stroke="midnightblue" d="M358.98,-279.79C299.07,-269.29 202.21,-252.31 146.56,-242.55"/>
<polygon fill="midnightblue" stroke="midnightblue" points="358.54,-283.27 369,-281.55 359.75,-276.37 358.54,-283.27"/>
</g>
<!-- Node16 -->
<g id="node16" class="node">
<title>Node16</title>
<g id="a_node16"><a xlink:href="morse__modulator_8cpp.html" target="_top" xlink:title="Simple morse code modulator.">
<polygon fill="none" stroke="black" points="164.5,-224.5 164.5,-243.5 286.5,-243.5 286.5,-224.5 164.5,-224.5"/>
<text text-anchor="middle" x="225.5" y="-231.5" font-family="Helvetica,sans-Serif" font-size="10.00">morse_modulator.cpp</text>
</a>
</g>
</g>
<!-- Node1&#45;&gt;Node16 -->
<g id="edge16" class="edge">
<title>Node1&#45;&gt;Node16</title>
<path fill="none" stroke="midnightblue" d="M372.12,-277.57C337.03,-267.38 286.48,-252.7 254.83,-243.52"/>
<polygon fill="midnightblue" stroke="midnightblue" points="371.45,-281.02 382.03,-280.44 373.4,-274.29 371.45,-281.02"/>
</g>
<!-- Node17 -->
<g id="node17" class="node">
<title>Node17</title>
<g id="a_node17"><a xlink:href="psk__modulator_8cpp.html" target="_top" xlink:title="Phase Shift Keying modulator.">
<polygon fill="none" stroke="black" points="182,-112.5 182,-131.5 291,-131.5 291,-112.5 182,-112.5"/>
<text text-anchor="middle" x="236.5" y="-119.5" font-family="Helvetica,sans-Serif" font-size="10.00">psk_modulator.cpp</text>
</a>
</g>
</g>
<!-- Node1&#45;&gt;Node17 -->
<g id="edge17" class="edge">
<title>Node1&#45;&gt;Node17</title>
<path fill="none" stroke="midnightblue" d="M358.72,-286.2C263.62,-280.62 71.49,-266.64 51.5,-244 2.73,-188.76 131.18,-148.32 198.45,-131.55"/>
<polygon fill="midnightblue" stroke="midnightblue" points="358.81,-289.71 368.99,-286.79 359.21,-282.72 358.81,-289.71"/>
</g>
<!-- Node18 -->
<g id="node18" class="node">
<title>Node18</title>
<g id="a_node18"><a xlink:href="psk__wave__shaper_8hpp.html" target="_top" xlink:title=" ">
<polygon fill="none" stroke="black" points="304.5,-224.5 304.5,-243.5 428.5,-243.5 428.5,-224.5 304.5,-224.5"/>
<text text-anchor="middle" x="366.5" y="-231.5" font-family="Helvetica,sans-Serif" font-size="10.00">psk_wave_shaper.hpp</text>
</a>
</g>
</g>
<!-- Node1&#45;&gt;Node18 -->
<g id="edge18" class="edge">
<title>Node1&#45;&gt;Node18</title>
<path fill="none" stroke="midnightblue" d="M397.45,-272.14C389.61,-262.74 380.17,-251.4 373.79,-243.75"/>
<polygon fill="midnightblue" stroke="midnightblue" points="394.98,-274.64 404.07,-280.08 400.36,-270.16 394.98,-274.64"/>
</g>
<!-- Node21 -->
<g id="node21" class="node">
<title>Node21</title>
<g id="a_node21"><a xlink:href="pulse__audio_8hpp.html" target="_top" xlink:title="Reads audio from pulse audio.">
<polygon fill="none" stroke="black" points="601.5,-224.5 601.5,-243.5 697.5,-243.5 697.5,-224.5 601.5,-224.5"/>
<text text-anchor="middle" x="649.5" y="-231.5" font-family="Helvetica,sans-Serif" font-size="10.00">pulse_audio.hpp</text>
</a>
</g>
</g>
<!-- Node1&#45;&gt;Node21 -->
<g id="edge23" class="edge">
<title>Node1&#45;&gt;Node21</title>
<path fill="none" stroke="midnightblue" d="M459.02,-278.22C504,-268.01 570.6,-252.9 611.96,-243.52"/>
<polygon fill="midnightblue" stroke="midnightblue" points="458.19,-274.82 449.21,-280.44 459.74,-281.64 458.19,-274.82"/>
</g>
<!-- Node22 -->
<g id="node22" class="node">
<title>Node22</title>
<g id="a_node22"><a xlink:href="pulse__audio__reader_8cpp.html" target="_top" xlink:title="PulseAudio reader implementation.">
<polygon fill="none" stroke="black" points="485,-168.5 485,-187.5 616,-187.5 616,-168.5 485,-168.5"/>
<text text-anchor="middle" x="550.5" y="-175.5" font-family="Helvetica,sans-Serif" font-size="10.00">pulse_audio_reader.cpp</text>
</a>
</g>
</g>
<!-- Node1&#45;&gt;Node22 -->
<g id="edge29" class="edge">
<title>Node1&#45;&gt;Node22</title>
<path fill="none" stroke="midnightblue" d="M430.99,-274.37C442.54,-265.64 457.43,-254.29 470.5,-244 495.81,-224.07 525.08,-200.03 540.23,-187.52"/>
<polygon fill="midnightblue" stroke="midnightblue" points="428.77,-271.66 422.89,-280.48 432.98,-277.25 428.77,-271.66"/>
</g>
<!-- Node25 -->
<g id="node25" class="node">
<title>Node25</title>
<g id="a_node25"><a xlink:href="sstv__modulator_8cpp.html" target="_top" xlink:title="SSTV implementation.">
<polygon fill="none" stroke="black" points="715.5,-224.5 715.5,-243.5 827.5,-243.5 827.5,-224.5 715.5,-224.5"/>
<text text-anchor="middle" x="771.5" y="-231.5" font-family="Helvetica,sans-Serif" font-size="10.00">sstv_modulator.cpp</text>
</a>
</g>
</g>
<!-- Node1&#45;&gt;Node25 -->
<g id="edge30" class="edge">
<title>Node1&#45;&gt;Node25</title>
<path fill="none" stroke="midnightblue" d="M464.14,-281.1C531.18,-271.05 646.55,-253.74 715.27,-243.44"/>
<polygon fill="midnightblue" stroke="midnightblue" points="463.58,-277.65 454.21,-282.59 464.62,-284.57 463.58,-277.65"/>
</g>
<!-- Node3 -->
<g id="node3" class="node">
<title>Node3</title>
<g id="a_node3"><a xlink:href="afsk__demodulator_8cpp.html" target="_top" xlink:title="The AFSK demodulator class implementation.">
<polygon fill="none" stroke="black" points="543,-56.5 543,-75.5 668,-75.5 668,-56.5 543,-56.5"/>
<text text-anchor="middle" x="605.5" y="-63.5" font-family="Helvetica,sans-Serif" font-size="10.00">afsk_demodulator.cpp</text>
</a>
</g>
</g>
<!-- Node2&#45;&gt;Node3 -->
<g id="edge2" class="edge">
<title>Node2&#45;&gt;Node3</title>
<path fill="none" stroke="midnightblue" d="M520.75,-107.86C541.52,-97.85 569.52,-84.35 587.55,-75.65"/>
<polygon fill="midnightblue" stroke="midnightblue" points="518.98,-104.83 511.49,-112.32 522.02,-111.13 518.98,-104.83"/>
</g>
<!-- Node4 -->
<g id="node4" class="node">
<title>Node4</title>
<g id="a_node4"><a xlink:href="afsk__modulator_8cpp.html" target="_top" xlink:title="The AFSK modulator class implementation.">
<polygon fill="none" stroke="black" points="114,-56.5 114,-75.5 227,-75.5 227,-56.5 114,-56.5"/>
<text text-anchor="middle" x="170.5" y="-63.5" font-family="Helvetica,sans-Serif" font-size="10.00">afsk_modulator.cpp</text>
</a>
</g>
</g>
<!-- Node2&#45;&gt;Node4 -->
<g id="edge3" class="edge">
<title>Node2&#45;&gt;Node4</title>
<path fill="none" stroke="midnightblue" d="M453.88,-112.82C452.4,-112.54 450.94,-112.26 449.5,-112 372.76,-97.97 283.72,-84.01 227.26,-75.44"/>
<polygon fill="midnightblue" stroke="midnightblue" points="453.23,-116.25 463.71,-114.73 454.56,-109.38 453.23,-116.25"/>
</g>
<!-- Node5 -->
<g id="node5" class="node">
<title>Node5</title>
<g id="a_node5"><a xlink:href="afsk__receiver_8cpp.html" target="_top" xlink:title="Implementation of the AFSK receiver class.">
<polygon fill="none" stroke="black" points="245.5,-56.5 245.5,-75.5 347.5,-75.5 347.5,-56.5 245.5,-56.5"/>
<text text-anchor="middle" x="296.5" y="-63.5" font-family="Helvetica,sans-Serif" font-size="10.00">afsk_receiver.cpp</text>
</a>
</g>
</g>
<!-- Node2&#45;&gt;Node5 -->
<g id="edge4" class="edge">
<title>Node2&#45;&gt;Node5</title>
<path fill="none" stroke="midnightblue" d="M453.59,-110.06C416.41,-99.87 361.75,-84.88 327.68,-75.55"/>
<polygon fill="midnightblue" stroke="midnightblue" points="453.01,-113.53 463.58,-112.8 454.86,-106.78 453.01,-113.53"/>
</g>
<!-- Node6 -->
<g id="node6" class="node">
<title>Node6</title>
<g id="a_node6"><a xlink:href="afsk__test_8cpp.html" target="_top" xlink:title=" ">
<polygon fill="none" stroke="black" points="365.5,-56.5 365.5,-75.5 447.5,-75.5 447.5,-56.5 365.5,-56.5"/>
<text text-anchor="middle" x="406.5" y="-63.5" font-family="Helvetica,sans-Serif" font-size="10.00">afsk_test.cpp</text>
</a>
</g>
</g>
<!-- Node2&#45;&gt;Node6 -->
<g id="edge5" class="edge">
<title>Node2&#45;&gt;Node6</title>
<path fill="none" stroke="midnightblue" d="M470.78,-106.9C454.83,-97 434,-84.07 420.44,-75.65"/>
<polygon fill="midnightblue" stroke="midnightblue" points="469.18,-110.02 479.52,-112.32 472.87,-104.08 469.18,-110.02"/>
</g>
<!-- Node7 -->
<g id="node7" class="node">
<title>Node7</title>
<g id="a_node7"><a xlink:href="aprs_8hpp.html" target="_top" xlink:title=" ">
<polygon fill="none" stroke="black" points="466,-56.5 466,-75.5 525,-75.5 525,-56.5 466,-56.5"/>
<text text-anchor="middle" x="495.5" y="-63.5" font-family="Helvetica,sans-Serif" font-size="10.00">aprs.hpp</text>
</a>
</g>
</g>
<!-- Node2&#45;&gt;Node7 -->
<g id="edge6" class="edge">
<title>Node2&#45;&gt;Node7</title>
<path fill="none" stroke="midnightblue" d="M494.21,-101.8C494.54,-92.91 494.92,-82.78 495.18,-75.75"/>
<polygon fill="midnightblue" stroke="midnightblue" points="490.7,-101.96 493.83,-112.08 497.7,-102.22 490.7,-101.96"/>
</g>
<!-- Node14 -->
<g id="node14" class="node">
<title>Node14</title>
<g id="a_node14"><a xlink:href="pulse__test_8cpp.html" target="_top" xlink:title="PulseAudio output test. Does not use gtest.">
<polygon fill="none" stroke="black" points="696,-0.5 696,-19.5 783,-19.5 783,-0.5 696,-0.5"/>
<text text-anchor="middle" x="739.5" y="-7.5" font-family="Helvetica,sans-Serif" font-size="10.00">pulse_test.cpp</text>
</a>
</g>
</g>
<!-- Node2&#45;&gt;Node14 -->
<g id="edge14" class="edge">
<title>Node2&#45;&gt;Node14</title>
<path fill="none" stroke="midnightblue" d="M533.54,-117.76C572.53,-113.14 632.36,-102.11 677.5,-76 702.61,-61.48 723.96,-33.74 733.76,-19.66"/>
<polygon fill="midnightblue" stroke="midnightblue" points="532.68,-114.33 523.12,-118.89 533.44,-121.29 532.68,-114.33"/>
</g>
<!-- Node8 -->
<g id="node8" class="node">
<title>Node8</title>
<g id="a_node8"><a xlink:href="aprs_8cpp.html" target="_top" xlink:title="APRS implementation.">
<polygon fill="none" stroke="black" points="619.5,-0.5 619.5,-19.5 677.5,-19.5 677.5,-0.5 619.5,-0.5"/>
<text text-anchor="middle" x="648.5" y="-7.5" font-family="Helvetica,sans-Serif" font-size="10.00">aprs.cpp</text>
</a>
</g>
</g>
<!-- Node7&#45;&gt;Node8 -->
<g id="edge7" class="edge">
<title>Node7&#45;&gt;Node8</title>
<path fill="none" stroke="midnightblue" d="M529.39,-53.04C558.18,-42.88 598.79,-28.55 624.37,-19.52"/>
<polygon fill="midnightblue" stroke="midnightblue" points="528.01,-49.81 519.74,-56.44 530.34,-56.42 528.01,-49.81"/>
</g>
<!-- Node9 -->
<g id="node9" class="node">
<title>Node9</title>
<g id="a_node9"><a xlink:href="aprs__demodulator_8cpp.html" target="_top" xlink:title="Implementation of the APRS demodulator class.">
<polygon fill="none" stroke="black" points="0,-0.5 0,-19.5 125,-19.5 125,-0.5 0,-0.5"/>
<text text-anchor="middle" x="62.5" y="-7.5" font-family="Helvetica,sans-Serif" font-size="10.00">aprs_demodulator.cpp</text>
</a>
</g>
</g>
<!-- Node7&#45;&gt;Node9 -->
<g id="edge8" class="edge">
<title>Node7&#45;&gt;Node9</title>
<path fill="none" stroke="midnightblue" d="M455.71,-56.06C312.39,-31.95 273.71,-36.7 133.5,-20 130.79,-19.68 128.01,-19.34 125.21,-19"/>
<polygon fill="midnightblue" stroke="midnightblue" points="455.32,-59.54 465.76,-57.76 456.49,-52.64 455.32,-59.54"/>
</g>
<!-- Node10 -->
<g id="node10" class="node">
<title>Node10</title>
<g id="a_node10"><a xlink:href="aprs__encoders_8cpp.html" target="_top" xlink:title="Encoding functions for APRS packets.">
<polygon fill="none" stroke="black" points="143,-0.5 143,-19.5 250,-19.5 250,-0.5 143,-0.5"/>
<text text-anchor="middle" x="196.5" y="-7.5" font-family="Helvetica,sans-Serif" font-size="10.00">aprs_encoders.cpp</text>
</a>
</g>
</g>
<!-- Node7&#45;&gt;Node10 -->
<g id="edge9" class="edge">
<title>Node7&#45;&gt;Node10</title>
<path fill="none" stroke="midnightblue" d="M455.85,-55.96C378.84,-40.56 300.98,-27.55 250.44,-19.44"/>
<polygon fill="midnightblue" stroke="midnightblue" points="455.23,-59.41 465.73,-57.95 456.61,-52.54 455.23,-59.41"/>
</g>
<!-- Node11 -->
<g id="node11" class="node">
<title>Node11</title>
<g id="a_node11"><a xlink:href="aprs__modulator_8cpp.html" target="_top" xlink:title="Implementation of the APRS modulator class.">
<polygon fill="none" stroke="black" points="268,-0.5 268,-19.5 381,-19.5 381,-0.5 268,-0.5"/>
<text text-anchor="middle" x="324.5" y="-7.5" font-family="Helvetica,sans-Serif" font-size="10.00">aprs_modulator.cpp</text>
</a>
</g>
</g>
<!-- Node7&#45;&gt;Node11 -->
<g id="edge10" class="edge">
<title>Node7&#45;&gt;Node11</title>
<path fill="none" stroke="midnightblue" d="M458.46,-53.3C426.24,-43.13 380.31,-28.62 351.47,-19.52"/>
<polygon fill="midnightblue" stroke="midnightblue" points="457.81,-56.77 468.4,-56.44 459.92,-50.09 457.81,-56.77"/>
</g>
<!-- Node12 -->
<g id="node12" class="node">
<title>Node12</title>
<g id="a_node12"><a xlink:href="aprs__receiver_8cpp.html" target="_top" xlink:title="Implementation of the APRS receiver class.">
<polygon fill="none" stroke="black" points="399.5,-0.5 399.5,-19.5 501.5,-19.5 501.5,-0.5 399.5,-0.5"/>
<text text-anchor="middle" x="450.5" y="-7.5" font-family="Helvetica,sans-Serif" font-size="10.00">aprs_receiver.cpp</text>
</a>
</g>
</g>
<!-- Node7&#45;&gt;Node12 -->
<g id="edge11" class="edge">
<title>Node7&#45;&gt;Node12</title>
<path fill="none" stroke="midnightblue" d="M481.45,-48.14C473.61,-38.74 464.17,-27.4 457.79,-19.75"/>
<polygon fill="midnightblue" stroke="midnightblue" points="478.98,-50.64 488.07,-56.08 484.36,-46.16 478.98,-50.64"/>
</g>
<!-- Node13 -->
<g id="node13" class="node">
<title>Node13</title>
<g id="a_node13"><a xlink:href="aprs__test_8cpp.html" target="_top" xlink:title=" ">
<polygon fill="none" stroke="black" points="519.5,-0.5 519.5,-19.5 601.5,-19.5 601.5,-0.5 519.5,-0.5"/>
<text text-anchor="middle" x="560.5" y="-7.5" font-family="Helvetica,sans-Serif" font-size="10.00">aprs_test.cpp</text>
</a>
</g>
</g>
<!-- Node7&#45;&gt;Node13 -->
<g id="edge12" class="edge">
<title>Node7&#45;&gt;Node13</title>
<path fill="none" stroke="midnightblue" d="M513.77,-49.82C525.42,-40.15 540.1,-27.95 549.87,-19.83"/>
<polygon fill="midnightblue" stroke="midnightblue" points="511.4,-47.24 505.94,-56.32 515.87,-52.63 511.4,-47.24"/>
</g>
<!-- Node7&#45;&gt;Node14 -->
<g id="edge13" class="edge">
<title>Node7&#45;&gt;Node14</title>
<path fill="none" stroke="midnightblue" d="M535.08,-55.89C598.55,-41.62 660.9,-28.02 700.17,-19.5"/>
<polygon fill="midnightblue" stroke="midnightblue" points="534.29,-52.48 525.3,-58.09 535.83,-59.31 534.29,-52.48"/>
</g>
<!-- Node18&#45;&gt;Node17 -->
<g id="edge22" class="edge">
<title>Node18&#45;&gt;Node17</title>
<path fill="none" stroke="midnightblue" d="M337.37,-219.84C321.64,-211.92 302.45,-200.89 287.5,-188 267.73,-170.95 250.29,-145.29 241.86,-131.88"/>
<polygon fill="midnightblue" stroke="midnightblue" points="336.12,-223.13 346.64,-224.35 339.18,-216.83 336.12,-223.13"/>
</g>
<!-- Node19 -->
<g id="node19" class="node">
<title>Node19</title>
<g id="a_node19"><a xlink:href="convolutional__code_8hpp.html" target="_top" xlink:title="Convolutional Code Implementation.">
<polygon fill="none" stroke="black" points="296.5,-168.5 296.5,-187.5 428.5,-187.5 428.5,-168.5 296.5,-168.5"/>
<text text-anchor="middle" x="362.5" y="-175.5" font-family="Helvetica,sans-Serif" font-size="10.00">convolutional_code.hpp</text>
</a>
</g>
</g>
<!-- Node18&#45;&gt;Node19 -->
<g id="edge19" class="edge">
<title>Node18&#45;&gt;Node19</title>
<path fill="none" stroke="midnightblue" d="M365.1,-214.1C364.44,-205.14 363.67,-194.86 363.15,-187.75"/>
<polygon fill="midnightblue" stroke="midnightblue" points="361.61,-214.37 365.84,-224.08 368.59,-213.85 361.61,-214.37"/>
</g>
<!-- Node19&#45;&gt;Node17 -->
<g id="edge21" class="edge">
<title>Node19&#45;&gt;Node17</title>
<path fill="none" stroke="midnightblue" d="M333.34,-164.5C309.72,-154.38 277.07,-140.39 256.37,-131.52"/>
<polygon fill="midnightblue" stroke="midnightblue" points="331.96,-167.72 342.53,-168.44 334.72,-161.29 331.96,-167.72"/>
</g>
<!-- Node20 -->
<g id="node20" class="node">
<title>Node20</title>
<g id="a_node20"><a xlink:href="convolutional__code_8cpp.html" target="_top" xlink:title="Convolutional Code Implementation.">
<polygon fill="none" stroke="black" points="309,-112.5 309,-131.5 440,-131.5 440,-112.5 309,-112.5"/>
<text text-anchor="middle" x="374.5" y="-119.5" font-family="Helvetica,sans-Serif" font-size="10.00">convolutional_code.cpp</text>
</a>
</g>
</g>
<!-- Node19&#45;&gt;Node20 -->
<g id="edge20" class="edge">
<title>Node19&#45;&gt;Node20</title>
<path fill="none" stroke="midnightblue" d="M366.7,-158.1C368.69,-149.14 370.98,-138.86 372.56,-131.75"/>
<polygon fill="midnightblue" stroke="midnightblue" points="363.23,-157.56 364.48,-168.08 370.07,-159.08 363.23,-157.56"/>
</g>
<!-- Node21&#45;&gt;Node14 -->
<g id="edge26" class="edge">
<title>Node21&#45;&gt;Node14</title>
<path fill="none" stroke="midnightblue" d="M682.08,-220.18C696.23,-212.9 711.59,-202.33 720.5,-188 755.27,-132.1 745.33,-46.69 741.01,-19.57"/>
<polygon fill="midnightblue" stroke="midnightblue" points="680.55,-217.03 673.03,-224.49 683.56,-223.35 680.55,-217.03"/>
</g>
<!-- Node21&#45;&gt;Node22 -->
<g id="edge24" class="edge">
<title>Node21&#45;&gt;Node22</title>
<path fill="none" stroke="midnightblue" d="M624.66,-219.45C606.39,-209.48 582.08,-196.23 566.37,-187.65"/>
<polygon fill="midnightblue" stroke="midnightblue" points="623.14,-222.61 633.59,-224.32 626.49,-216.46 623.14,-222.61"/>
</g>
<!-- Node23 -->
<g id="node23" class="node">
<title>Node23</title>
<g id="a_node23"><a xlink:href="pulse__audio__writer_8cpp.html" target="_top" xlink:title="Simple pulse audio interface.">
<polygon fill="none" stroke="black" points="767.5,-168.5 767.5,-187.5 895.5,-187.5 895.5,-168.5 767.5,-168.5"/>
<text text-anchor="middle" x="831.5" y="-175.5" font-family="Helvetica,sans-Serif" font-size="10.00">pulse_audio_writer.cpp</text>
</a>
</g>
</g>
<!-- Node21&#45;&gt;Node23 -->
<g id="edge25" class="edge">
<title>Node21&#45;&gt;Node23</title>
<path fill="none" stroke="midnightblue" d="M688.03,-221.57C722.36,-211.38 771.83,-196.7 802.8,-187.52"/>
<polygon fill="midnightblue" stroke="midnightblue" points="686.93,-218.24 678.34,-224.44 688.92,-224.95 686.93,-218.24"/>
</g>
<!-- Node24 -->
<g id="node24" class="node">
<title>Node24</title>
<g id="a_node24"><a xlink:href="receiver_8hpp.html" target="_top" xlink:title="Base class for receivers. Demodulators that use pulse audio.">
<polygon fill="none" stroke="black" points="634,-168.5 634,-187.5 711,-187.5 711,-168.5 634,-168.5"/>
<text text-anchor="middle" x="672.5" y="-175.5" font-family="Helvetica,sans-Serif" font-size="10.00">receiver.hpp</text>
</a>
</g>
</g>
<!-- Node21&#45;&gt;Node24 -->
<g id="edge27" class="edge">
<title>Node21&#45;&gt;Node24</title>
<path fill="none" stroke="midnightblue" d="M657.3,-214.69C661.18,-205.59 665.68,-195.01 668.77,-187.75"/>
<polygon fill="midnightblue" stroke="midnightblue" points="654,-213.51 653.3,-224.08 660.44,-216.25 654,-213.51"/>
</g>
<!-- Node24&#45;&gt;Node2 -->
<g id="edge28" class="edge">
<title>Node24&#45;&gt;Node2</title>
<path fill="none" stroke="midnightblue" d="M634.17,-165.44C600.42,-155.26 552.05,-140.66 521.73,-131.52"/>
<polygon fill="midnightblue" stroke="midnightblue" points="633.55,-168.91 644.14,-168.44 635.57,-162.2 633.55,-168.91"/>
</g>
</g>
</svg>
