<?xml version="1.0" encoding="UTF-8" standalone="no"?>
<!DOCTYPE svg PUBLIC "-//W3C//DTD SVG 1.1//EN"
 "http://www.w3.org/Graphics/SVG/1.1/DTD/svg11.dtd">
<!-- Generated by graphviz version 2.43.0 (0)
 -->
<!-- Title: constants.hpp Pages: 1 -->
<svg width="910pt" height="308pt"
 viewBox="0.00 0.00 909.50 308.00" xmlns="http://www.w3.org/2000/svg" xmlns:xlink="http://www.w3.org/1999/xlink">
<g id="graph0" class="graph" transform="scale(1 1) rotate(0) translate(4 304)">
<title>constants.hpp</title>
<!-- Node1 -->
<g id="node1" class="node">
<title>Node1</title>
<g id="a_node1"><a xlink:title="Common constants used throughout the library.">
<polygon fill="#bfbfbf" stroke="black" points="420,-280.5 420,-299.5 505,-299.5 505,-280.5 420,-280.5"/>
<text text-anchor="middle" x="462.5" y="-287.5" font-family="Helvetica,sans-Serif" font-size="10.00">constants.hpp</text>
</a>
</g>
</g>
<!-- Node2 -->
<g id="node2" class="node">
<title>Node2</title>
<g id="a_node2"><a xlink:href="modulator_8cpp.html" target="_top" xlink:title="The abstract modulator class implementation.">
<polygon fill="none" stroke="black" points="208.5,-224.5 208.5,-243.5 294.5,-243.5 294.5,-224.5 208.5,-224.5"/>
<text text-anchor="middle" x="251.5" y="-231.5" font-family="Helvetica,sans-Serif" font-size="10.00">modulator.cpp</text>
</a>
</g>
</g>
<!-- Node1&#45;&gt;Node2 -->
<g id="edge1" class="edge">
<title>Node1&#45;&gt;Node2</title>
<path fill="none" stroke="midnightblue" d="M419.36,-277.96C379.51,-267.76 321.14,-252.82 284.78,-243.52"/>
<polygon fill="midnightblue" stroke="midnightblue" points="418.51,-281.35 429.07,-280.44 420.25,-274.57 418.51,-281.35"/>
</g>
<!-- Node3 -->
<g id="node3" class="node">
<title>Node3</title>
<g id="a_node3"><a xlink:href="morse__modulator_8cpp.html" target="_top" xlink:title="Simple morse code modulator.">
<polygon fill="none" stroke="black" points="312.5,-224.5 312.5,-243.5 434.5,-243.5 434.5,-224.5 312.5,-224.5"/>
<text text-anchor="middle" x="373.5" y="-231.5" font-family="Helvetica,sans-Serif" font-size="10.00">morse_modulator.cpp</text>
</a>
</g>
</g>
<!-- Node1&#45;&gt;Node3 -->
<g id="edge2" class="edge">
<title>Node1&#45;&gt;Node3</title>
<path fill="none" stroke="midnightblue" d="M439.26,-274.9C422.94,-265 401.63,-252.07 387.76,-243.65"/>
<polygon fill="midnightblue" stroke="midnightblue" points="437.84,-278.13 448.2,-280.32 441.47,-272.14 437.84,-278.13"/>
</g>
<!-- Node4 -->
<g id="node4" class="node">
<title>Node4</title>
<g id="a_node4"><a xlink:href="pulse__audio__reader_8cpp.html" target="_top" xlink:title="PulseAudio reader implementation.">
<polygon fill="none" stroke="black" points="491,-168.5 491,-187.5 622,-187.5 622,-168.5 491,-168.5"/>
<text text-anchor="middle" x="556.5" y="-175.5" font-family="Helvetica,sans-Serif" font-size="10.00">pulse_audio_reader.cpp</text>
</a>
</g>
</g>
<!-- Node1&#45;&gt;Node4 -->
<g id="edge3" class="edge">
<title>Node1&#45;&gt;Node4</title>
<path fill="none" stroke="midnightblue" d="M476.53,-272.59C496.79,-248.87 533.54,-205.87 549.16,-187.59"/>
<polygon fill="midnightblue" stroke="midnightblue" points="473.71,-270.49 469.88,-280.37 479.03,-275.04 473.71,-270.49"/>
</g>
<!-- Node5 -->
<g id="node5" class="node">
<title>Node5</title>
<g id="a_node5"><a xlink:href="afsk_8hpp.html" target="_top" xlink:title="AFSK related modulation/demodulation.">
<polygon fill="none" stroke="black" points="433,-112.5 433,-131.5 492,-131.5 492,-112.5 433,-112.5"/>
<text text-anchor="middle" x="462.5" y="-119.5" font-family="Helvetica,sans-Serif" font-size="10.00">afsk.hpp</text>
</a>
</g>
</g>
<!-- Node1&#45;&gt;Node5 -->
<g id="edge4" class="edge">
<title>Node1&#45;&gt;Node5</title>
<path fill="none" stroke="midnightblue" d="M462.5,-269.93C462.5,-233.92 462.5,-157.23 462.5,-131.57"/>
<polygon fill="midnightblue" stroke="midnightblue" points="459,-270.08 462.5,-280.08 466,-270.08 459,-270.08"/>
</g>
<!-- Node18 -->
<g id="node18" class="node">
<title>Node18</title>
<g id="a_node18"><a xlink:href="pulse__audio_8hpp.html" target="_top" xlink:title="Simple pulse audio interface.">
<polygon fill="none" stroke="black" points="630.5,-224.5 630.5,-243.5 726.5,-243.5 726.5,-224.5 630.5,-224.5"/>
<text text-anchor="middle" x="678.5" y="-231.5" font-family="Helvetica,sans-Serif" font-size="10.00">pulse_audio.hpp</text>
</a>
</g>
</g>
<!-- Node1&#45;&gt;Node18 -->
<g id="edge18" class="edge">
<title>Node1&#45;&gt;Node18</title>
<path fill="none" stroke="midnightblue" d="M506.66,-277.96C547.46,-267.76 607.21,-252.82 644.43,-243.52"/>
<polygon fill="midnightblue" stroke="midnightblue" points="505.58,-274.62 496.73,-280.44 507.28,-281.41 505.58,-274.62"/>
</g>
<!-- Node6 -->
<g id="node6" class="node">
<title>Node6</title>
<g id="a_node6"><a xlink:href="afsk__demodulator_8cpp.html" target="_top" xlink:title="The AFSK demodulator class implementation.">
<polygon fill="none" stroke="black" points="592,-56.5 592,-75.5 717,-75.5 717,-56.5 592,-56.5"/>
<text text-anchor="middle" x="654.5" y="-63.5" font-family="Helvetica,sans-Serif" font-size="10.00">afsk_demodulator.cpp</text>
</a>
</g>
</g>
<!-- Node5&#45;&gt;Node6 -->
<g id="edge5" class="edge">
<title>Node5&#45;&gt;Node6</title>
<path fill="none" stroke="midnightblue" d="M501.83,-109.94C538.11,-99.74 591.19,-84.8 624.25,-75.51"/>
<polygon fill="midnightblue" stroke="midnightblue" points="500.76,-106.6 492.08,-112.68 502.65,-113.34 500.76,-106.6"/>
</g>
<!-- Node7 -->
<g id="node7" class="node">
<title>Node7</title>
<g id="a_node7"><a xlink:href="afsk__modulator_8cpp.html" target="_top" xlink:title="The AFSK modulator class implementation.">
<polygon fill="none" stroke="black" points="124,-56.5 124,-75.5 237,-75.5 237,-56.5 124,-56.5"/>
<text text-anchor="middle" x="180.5" y="-63.5" font-family="Helvetica,sans-Serif" font-size="10.00">afsk_modulator.cpp</text>
</a>
</g>
</g>
<!-- Node5&#45;&gt;Node7 -->
<g id="edge6" class="edge">
<title>Node5&#45;&gt;Node7</title>
<path fill="none" stroke="midnightblue" d="M422.98,-113.43C370.86,-103.45 279.41,-85.94 224.94,-75.51"/>
<polygon fill="midnightblue" stroke="midnightblue" points="422.37,-116.88 432.85,-115.32 423.69,-110 422.37,-116.88"/>
</g>
<!-- Node8 -->
<g id="node8" class="node">
<title>Node8</title>
<g id="a_node8"><a xlink:href="afsk__receiver_8cpp.html" target="_top" xlink:title="Implementation of the AFSK receiver class.">
<polygon fill="none" stroke="black" points="255.5,-56.5 255.5,-75.5 357.5,-75.5 357.5,-56.5 255.5,-56.5"/>
<text text-anchor="middle" x="306.5" y="-63.5" font-family="Helvetica,sans-Serif" font-size="10.00">afsk_receiver.cpp</text>
</a>
</g>
</g>
<!-- Node5&#45;&gt;Node8 -->
<g id="edge7" class="edge">
<title>Node5&#45;&gt;Node8</title>
<path fill="none" stroke="midnightblue" d="M428.33,-109.17C398.96,-99 357.3,-84.59 331.1,-75.52"/>
<polygon fill="midnightblue" stroke="midnightblue" points="427.19,-112.48 437.78,-112.44 429.48,-105.86 427.19,-112.48"/>
</g>
<!-- Node9 -->
<g id="node9" class="node">
<title>Node9</title>
<g id="a_node9"><a xlink:href="aprs_8hpp.html" target="_top" xlink:title="APRS implementation.">
<polygon fill="none" stroke="black" points="376,-56.5 376,-75.5 435,-75.5 435,-56.5 376,-56.5"/>
<text text-anchor="middle" x="405.5" y="-63.5" font-family="Helvetica,sans-Serif" font-size="10.00">aprs.hpp</text>
</a>
</g>
</g>
<!-- Node5&#45;&gt;Node9 -->
<g id="edge8" class="edge">
<title>Node5&#45;&gt;Node9</title>
<path fill="none" stroke="midnightblue" d="M445.88,-105.25C435.77,-95.67 423.22,-83.79 414.82,-75.83"/>
<polygon fill="midnightblue" stroke="midnightblue" points="443.68,-107.99 453.34,-112.32 448.49,-102.91 443.68,-107.99"/>
</g>
<!-- Node16 -->
<g id="node16" class="node">
<title>Node16</title>
<g id="a_node16"><a xlink:href="pulse__test_8cpp.html" target="_top" xlink:title="PulseAudio output test. Does not use gtest.">
<polygon fill="none" stroke="black" points="696,-0.5 696,-19.5 783,-19.5 783,-0.5 696,-0.5"/>
<text text-anchor="middle" x="739.5" y="-7.5" font-family="Helvetica,sans-Serif" font-size="10.00">pulse_test.cpp</text>
</a>
</g>
</g>
<!-- Node5&#45;&gt;Node16 -->
<g id="edge17" class="edge">
<title>Node5&#45;&gt;Node16</title>
<path fill="none" stroke="midnightblue" d="M463.17,-102.29C464.74,-87.54 469.38,-67.58 482.5,-56 483.5,-55.12 622.74,-31.07 695.82,-18.5"/>
<polygon fill="midnightblue" stroke="midnightblue" points="459.68,-102.12 462.47,-112.34 466.66,-102.6 459.68,-102.12"/>
</g>
<!-- Node17 -->
<g id="node17" class="node">
<title>Node17</title>
<g id="a_node17"><a xlink:href="afsk__test_8cpp.html" target="_top" xlink:title=" ">
<polygon fill="none" stroke="black" points="491.5,-56.5 491.5,-75.5 573.5,-75.5 573.5,-56.5 491.5,-56.5"/>
<text text-anchor="middle" x="532.5" y="-63.5" font-family="Helvetica,sans-Serif" font-size="10.00">afsk_test.cpp</text>
</a>
</g>
</g>
<!-- Node5&#45;&gt;Node17 -->
<g id="edge16" class="edge">
<title>Node5&#45;&gt;Node17</title>
<path fill="none" stroke="midnightblue" d="M481.81,-106.1C494.41,-96.38 510.43,-84.03 521.05,-75.83"/>
<polygon fill="midnightblue" stroke="midnightblue" points="479.53,-103.44 473.75,-112.32 483.8,-108.99 479.53,-103.44"/>
</g>
<!-- Node10 -->
<g id="node10" class="node">
<title>Node10</title>
<g id="a_node10"><a xlink:href="aprs__demodulator_8cpp.html" target="_top" xlink:title="Implementation of the APRS demodulator class.">
<polygon fill="none" stroke="black" points="553,-0.5 553,-19.5 678,-19.5 678,-0.5 553,-0.5"/>
<text text-anchor="middle" x="615.5" y="-7.5" font-family="Helvetica,sans-Serif" font-size="10.00">aprs_demodulator.cpp</text>
</a>
</g>
</g>
<!-- Node9&#45;&gt;Node10 -->
<g id="edge9" class="edge">
<title>Node9&#45;&gt;Node10</title>
<path fill="none" stroke="midnightblue" d="M444.99,-54.85C484.6,-44.66 544.93,-29.15 582.2,-19.56"/>
<polygon fill="midnightblue" stroke="midnightblue" points="443.96,-51.5 435.14,-57.38 445.7,-58.28 443.96,-51.5"/>
</g>
<!-- Node11 -->
<g id="node11" class="node">
<title>Node11</title>
<g id="a_node11"><a xlink:href="aprs__encoders_8cpp.html" target="_top" xlink:title="Encoding functions for APRS packets.">
<polygon fill="none" stroke="black" points="0,-0.5 0,-19.5 107,-19.5 107,-0.5 0,-0.5"/>
<text text-anchor="middle" x="53.5" y="-7.5" font-family="Helvetica,sans-Serif" font-size="10.00">aprs_encoders.cpp</text>
</a>
</g>
</g>
<!-- Node9&#45;&gt;Node11 -->
<g id="edge10" class="edge">
<title>Node9&#45;&gt;Node11</title>
<path fill="none" stroke="midnightblue" d="M365.76,-56C254.03,-35.34 223.88,-35.64 115.5,-20 112.81,-19.61 110.05,-19.21 107.27,-18.81"/>
<polygon fill="midnightblue" stroke="midnightblue" points="365.27,-59.47 375.74,-57.86 366.55,-52.59 365.27,-59.47"/>
</g>
<!-- Node12 -->
<g id="node12" class="node">
<title>Node12</title>
<g id="a_node12"><a xlink:href="aprs__modulator_8cpp.html" target="_top" xlink:title="Implementation of the APRS modulator class.">
<polygon fill="none" stroke="black" points="125,-0.5 125,-19.5 238,-19.5 238,-0.5 125,-0.5"/>
<text text-anchor="middle" x="181.5" y="-7.5" font-family="Helvetica,sans-Serif" font-size="10.00">aprs_modulator.cpp</text>
</a>
</g>
</g>
<!-- Node9&#45;&gt;Node12 -->
<g id="edge11" class="edge">
<title>Node9&#45;&gt;Node12</title>
<path fill="none" stroke="midnightblue" d="M365.83,-55.44C323.61,-45.26 257.43,-29.3 216.91,-19.54"/>
<polygon fill="midnightblue" stroke="midnightblue" points="365.21,-58.89 375.75,-57.83 366.85,-52.08 365.21,-58.89"/>
</g>
<!-- Node13 -->
<g id="node13" class="node">
<title>Node13</title>
<g id="a_node13"><a xlink:href="aprs__receiver_8cpp.html" target="_top" xlink:title="Implementation of the APRS receiver class.">
<polygon fill="none" stroke="black" points="256.5,-0.5 256.5,-19.5 358.5,-19.5 358.5,-0.5 256.5,-0.5"/>
<text text-anchor="middle" x="307.5" y="-7.5" font-family="Helvetica,sans-Serif" font-size="10.00">aprs_receiver.cpp</text>
</a>
</g>
</g>
<!-- Node9&#45;&gt;Node13 -->
<g id="edge12" class="edge">
<title>Node9&#45;&gt;Node13</title>
<path fill="none" stroke="midnightblue" d="M380.91,-51.45C362.82,-41.48 338.77,-28.23 323.21,-19.65"/>
<polygon fill="midnightblue" stroke="midnightblue" points="379.31,-54.56 389.75,-56.32 382.69,-48.43 379.31,-54.56"/>
</g>
<!-- Node14 -->
<g id="node14" class="node">
<title>Node14</title>
<g id="a_node14"><a xlink:href="aprs_8cpp.html" target="_top" xlink:title="APRS implementation.">
<polygon fill="none" stroke="black" points="376.5,-0.5 376.5,-19.5 434.5,-19.5 434.5,-0.5 376.5,-0.5"/>
<text text-anchor="middle" x="405.5" y="-7.5" font-family="Helvetica,sans-Serif" font-size="10.00">aprs.cpp</text>
</a>
</g>
</g>
<!-- Node9&#45;&gt;Node14 -->
<g id="edge13" class="edge">
<title>Node9&#45;&gt;Node14</title>
<path fill="none" stroke="midnightblue" d="M405.5,-45.8C405.5,-36.91 405.5,-26.78 405.5,-19.75"/>
<polygon fill="midnightblue" stroke="midnightblue" points="402,-46.08 405.5,-56.08 409,-46.08 402,-46.08"/>
</g>
<!-- Node15 -->
<g id="node15" class="node">
<title>Node15</title>
<g id="a_node15"><a xlink:href="aprs__test_8cpp.html" target="_top" xlink:title=" ">
<polygon fill="none" stroke="black" points="452.5,-0.5 452.5,-19.5 534.5,-19.5 534.5,-0.5 452.5,-0.5"/>
<text text-anchor="middle" x="493.5" y="-7.5" font-family="Helvetica,sans-Serif" font-size="10.00">aprs_test.cpp</text>
</a>
</g>
</g>
<!-- Node9&#45;&gt;Node15 -->
<g id="edge14" class="edge">
<title>Node9&#45;&gt;Node15</title>
<path fill="none" stroke="midnightblue" d="M428.48,-50.9C444.61,-41 465.68,-28.07 479.4,-19.65"/>
<polygon fill="midnightblue" stroke="midnightblue" points="426.33,-48.11 419.64,-56.32 429.99,-54.08 426.33,-48.11"/>
</g>
<!-- Node9&#45;&gt;Node16 -->
<g id="edge15" class="edge">
<title>Node9&#45;&gt;Node16</title>
<path fill="none" stroke="midnightblue" d="M445.12,-56.8C446.6,-56.52 448.06,-56.26 449.5,-56 554.39,-37.32 581.31,-36.92 686.5,-20 689.54,-19.51 692.68,-19 695.84,-18.48"/>
<polygon fill="midnightblue" stroke="midnightblue" points="444.44,-53.36 435.28,-58.69 445.76,-60.24 444.44,-53.36"/>
</g>
<!-- Node18&#45;&gt;Node4 -->
<g id="edge19" class="edge">
<title>Node18&#45;&gt;Node4</title>
<path fill="none" stroke="midnightblue" d="M649.96,-220.37C627.11,-210.26 595.69,-196.35 575.74,-187.52"/>
<polygon fill="midnightblue" stroke="midnightblue" points="648.61,-223.6 659.17,-224.44 651.44,-217.2 648.61,-223.6"/>
</g>
<!-- Node18&#45;&gt;Node16 -->
<g id="edge23" class="edge">
<title>Node18&#45;&gt;Node16</title>
<path fill="none" stroke="midnightblue" d="M700.74,-218.08C710.4,-210.32 720.79,-199.96 726.5,-188 754.65,-129.05 745.09,-46.35 740.97,-19.66"/>
<polygon fill="midnightblue" stroke="midnightblue" points="698.48,-215.4 692.58,-224.2 702.68,-221 698.48,-215.4"/>
</g>
<!-- Node19 -->
<g id="node19" class="node">
<title>Node19</title>
<g id="a_node19"><a xlink:href="pulse__audio__writer_8cpp.html" target="_top" xlink:title=" ">
<polygon fill="none" stroke="black" points="773.5,-168.5 773.5,-187.5 901.5,-187.5 901.5,-168.5 773.5,-168.5"/>
<text text-anchor="middle" x="837.5" y="-175.5" font-family="Helvetica,sans-Serif" font-size="10.00">pulse_audio_writer.cpp</text>
</a>
</g>
</g>
<!-- Node18&#45;&gt;Node19 -->
<g id="edge20" class="edge">
<title>Node18&#45;&gt;Node19</title>
<path fill="none" stroke="midnightblue" d="M713.33,-221.17C743.27,-211 785.72,-196.59 812.42,-187.52"/>
<polygon fill="midnightblue" stroke="midnightblue" points="712.04,-217.91 703.69,-224.44 714.29,-224.54 712.04,-217.91"/>
</g>
<!-- Node20 -->
<g id="node20" class="node">
<title>Node20</title>
<g id="a_node20"><a xlink:href="receiver_8hpp.html" target="_top" xlink:title="Base class for receivers. Demodulators that use pulse audio.">
<polygon fill="none" stroke="black" points="640,-168.5 640,-187.5 717,-187.5 717,-168.5 640,-168.5"/>
<text text-anchor="middle" x="678.5" y="-175.5" font-family="Helvetica,sans-Serif" font-size="10.00">receiver.hpp</text>
</a>
</g>
</g>
<!-- Node18&#45;&gt;Node20 -->
<g id="edge21" class="edge">
<title>Node18&#45;&gt;Node20</title>
<path fill="none" stroke="midnightblue" d="M678.5,-213.8C678.5,-204.91 678.5,-194.78 678.5,-187.75"/>
<polygon fill="midnightblue" stroke="midnightblue" points="675,-214.08 678.5,-224.08 682,-214.08 675,-214.08"/>
</g>
<!-- Node20&#45;&gt;Node5 -->
<g id="edge22" class="edge">
<title>Node20&#45;&gt;Node5</title>
<path fill="none" stroke="midnightblue" d="M634.48,-165.99C591.99,-155.37 528.84,-139.58 492.05,-130.39"/>
<polygon fill="midnightblue" stroke="midnightblue" points="633.72,-169.41 644.27,-168.44 635.42,-162.62 633.72,-169.41"/>
</g>
</g>
</svg>
