<?xml version="1.0" encoding="UTF-8" standalone="no"?>
<!DOCTYPE svg PUBLIC "-//W3C//DTD SVG 1.1//EN"
 "http://www.w3.org/Graphics/SVG/1.1/DTD/svg11.dtd">
<!-- Generated by graphviz version 2.43.0 (0)
 -->
<!-- Title: constants.hpp Pages: 1 -->
<svg width="1036pt" height="308pt"
 viewBox="0.00 0.00 1035.50 308.00" xmlns="http://www.w3.org/2000/svg" xmlns:xlink="http://www.w3.org/1999/xlink">
<g id="graph0" class="graph" transform="scale(1 1) rotate(0) translate(4 304)">
<title>constants.hpp</title>
<!-- Node1 -->
<g id="node1" class="node">
<title>Node1</title>
<g id="a_node1"><a xlink:title="Common constants used throughout the library.">
<polygon fill="#bfbfbf" stroke="black" points="501,-280.5 501,-299.5 586,-299.5 586,-280.5 501,-280.5"/>
<text text-anchor="middle" x="543.5" y="-287.5" font-family="Helvetica,sans-Serif" font-size="10.00">constants.hpp</text>
</a>
</g>
</g>
<!-- Node2 -->
<g id="node2" class="node">
<title>Node2</title>
<g id="a_node2"><a xlink:href="afsk_8hpp.html" target="_top" xlink:title="AFSK related modulation/demodulation.">
<polygon fill="none" stroke="black" points="569,-112.5 569,-131.5 628,-131.5 628,-112.5 569,-112.5"/>
<text text-anchor="middle" x="598.5" y="-119.5" font-family="Helvetica,sans-Serif" font-size="10.00">afsk.hpp</text>
</a>
</g>
</g>
<!-- Node1&#45;&gt;Node2 -->
<g id="edge1" class="edge">
<title>Node1&#45;&gt;Node2</title>
<path fill="none" stroke="midnightblue" d="M554.97,-271.86C560.02,-263.7 565.66,-253.64 569.5,-244 585.59,-203.67 594.29,-152.08 597.29,-131.77"/>
<polygon fill="midnightblue" stroke="midnightblue" points="551.93,-270.11 549.47,-280.42 557.82,-273.9 551.93,-270.11"/>
</g>
<!-- Node16 -->
<g id="node16" class="node">
<title>Node16</title>
<g id="a_node16"><a xlink:href="modulator_8cpp.html" target="_top" xlink:title="The abstract modulator class implementation.">
<polygon fill="none" stroke="black" points="192.5,-224.5 192.5,-243.5 278.5,-243.5 278.5,-224.5 192.5,-224.5"/>
<text text-anchor="middle" x="235.5" y="-231.5" font-family="Helvetica,sans-Serif" font-size="10.00">modulator.cpp</text>
</a>
</g>
</g>
<!-- Node1&#45;&gt;Node16 -->
<g id="edge16" class="edge">
<title>Node1&#45;&gt;Node16</title>
<path fill="none" stroke="midnightblue" d="M490.98,-279.79C431.07,-269.29 334.21,-252.31 278.56,-242.55"/>
<polygon fill="midnightblue" stroke="midnightblue" points="490.54,-283.27 501,-281.55 491.75,-276.37 490.54,-283.27"/>
</g>
<!-- Node17 -->
<g id="node17" class="node">
<title>Node17</title>
<g id="a_node17"><a xlink:href="morse__modulator_8cpp.html" target="_top" xlink:title="Simple morse code modulator.">
<polygon fill="none" stroke="black" points="296.5,-224.5 296.5,-243.5 418.5,-243.5 418.5,-224.5 296.5,-224.5"/>
<text text-anchor="middle" x="357.5" y="-231.5" font-family="Helvetica,sans-Serif" font-size="10.00">morse_modulator.cpp</text>
</a>
</g>
</g>
<!-- Node1&#45;&gt;Node17 -->
<g id="edge17" class="edge">
<title>Node1&#45;&gt;Node17</title>
<path fill="none" stroke="midnightblue" d="M504.12,-277.57C469.03,-267.38 418.48,-252.7 386.83,-243.52"/>
<polygon fill="midnightblue" stroke="midnightblue" points="503.45,-281.02 514.03,-280.44 505.4,-274.29 503.45,-281.02"/>
</g>
<!-- Node18 -->
<g id="node18" class="node">
<title>Node18</title>
<g id="a_node18"><a xlink:href="psk__modulator_8cpp.html" target="_top" xlink:title="Phase Shift Keying modulator.">
<polygon fill="none" stroke="black" points="293,-112.5 293,-131.5 402,-131.5 402,-112.5 293,-112.5"/>
<text text-anchor="middle" x="347.5" y="-119.5" font-family="Helvetica,sans-Serif" font-size="10.00">psk_modulator.cpp</text>
</a>
</g>
</g>
<!-- Node1&#45;&gt;Node18 -->
<g id="edge18" class="edge">
<title>Node1&#45;&gt;Node18</title>
<path fill="none" stroke="midnightblue" d="M490.72,-286.2C395.62,-280.62 203.49,-266.64 183.5,-244 137.84,-192.27 256.89,-149.14 316.22,-131.53"/>
<polygon fill="midnightblue" stroke="midnightblue" points="490.81,-289.71 500.99,-286.79 491.21,-282.72 490.81,-289.71"/>
</g>
<!-- Node19 -->
<g id="node19" class="node">
<title>Node19</title>
<g id="a_node19"><a xlink:href="psk__wave__shaper_8hpp.html" target="_top" xlink:title=" ">
<polygon fill="none" stroke="black" points="436.5,-224.5 436.5,-243.5 560.5,-243.5 560.5,-224.5 436.5,-224.5"/>
<text text-anchor="middle" x="498.5" y="-231.5" font-family="Helvetica,sans-Serif" font-size="10.00">psk_wave_shaper.hpp</text>
</a>
</g>
</g>
<!-- Node1&#45;&gt;Node19 -->
<g id="edge19" class="edge">
<title>Node1&#45;&gt;Node19</title>
<path fill="none" stroke="midnightblue" d="M529.45,-272.14C521.61,-262.74 512.17,-251.4 505.79,-243.75"/>
<polygon fill="midnightblue" stroke="midnightblue" points="526.98,-274.64 536.07,-280.08 532.36,-270.16 526.98,-274.64"/>
</g>
<!-- Node22 -->
<g id="node22" class="node">
<title>Node22</title>
<g id="a_node22"><a xlink:href="pulse__audio_8hpp.html" target="_top" xlink:title="Reads audio from pulse audio.">
<polygon fill="none" stroke="black" points="733.5,-224.5 733.5,-243.5 829.5,-243.5 829.5,-224.5 733.5,-224.5"/>
<text text-anchor="middle" x="781.5" y="-231.5" font-family="Helvetica,sans-Serif" font-size="10.00">pulse_audio.hpp</text>
</a>
</g>
</g>
<!-- Node1&#45;&gt;Node22 -->
<g id="edge24" class="edge">
<title>Node1&#45;&gt;Node22</title>
<path fill="none" stroke="midnightblue" d="M591.02,-278.22C636,-268.01 702.6,-252.9 743.96,-243.52"/>
<polygon fill="midnightblue" stroke="midnightblue" points="590.19,-274.82 581.21,-280.44 591.74,-281.64 590.19,-274.82"/>
</g>
<!-- Node23 -->
<g id="node23" class="node">
<title>Node23</title>
<g id="a_node23"><a xlink:href="pulse__audio__reader_8cpp.html" target="_top" xlink:title="PulseAudio reader implementation.">
<polygon fill="none" stroke="black" points="617,-168.5 617,-187.5 748,-187.5 748,-168.5 617,-168.5"/>
<text text-anchor="middle" x="682.5" y="-175.5" font-family="Helvetica,sans-Serif" font-size="10.00">pulse_audio_reader.cpp</text>
</a>
</g>
</g>
<!-- Node1&#45;&gt;Node23 -->
<g id="edge30" class="edge">
<title>Node1&#45;&gt;Node23</title>
<path fill="none" stroke="midnightblue" d="M562.99,-274.37C574.54,-265.64 589.43,-254.29 602.5,-244 627.81,-224.07 657.08,-200.03 672.23,-187.52"/>
<polygon fill="midnightblue" stroke="midnightblue" points="560.77,-271.66 554.89,-280.48 564.98,-277.25 560.77,-271.66"/>
</g>
<!-- Node26 -->
<g id="node26" class="node">
<title>Node26</title>
<g id="a_node26"><a xlink:href="sstv__modulator_8cpp.html" target="_top" xlink:title="SSTV implementation.">
<polygon fill="none" stroke="black" points="847.5,-224.5 847.5,-243.5 959.5,-243.5 959.5,-224.5 847.5,-224.5"/>
<text text-anchor="middle" x="903.5" y="-231.5" font-family="Helvetica,sans-Serif" font-size="10.00">sstv_modulator.cpp</text>
</a>
</g>
</g>
<!-- Node1&#45;&gt;Node26 -->
<g id="edge31" class="edge">
<title>Node1&#45;&gt;Node26</title>
<path fill="none" stroke="midnightblue" d="M596.14,-281.1C663.18,-271.05 778.55,-253.74 847.27,-243.44"/>
<polygon fill="midnightblue" stroke="midnightblue" points="595.58,-277.65 586.21,-282.59 596.62,-284.57 595.58,-277.65"/>
</g>
<!-- Node3 -->
<g id="node3" class="node">
<title>Node3</title>
<g id="a_node3"><a xlink:href="afsk__demodulator_8cpp.html" target="_top" xlink:title="The AFSK demodulator class implementation.">
<polygon fill="none" stroke="black" points="646,-56.5 646,-75.5 771,-75.5 771,-56.5 646,-56.5"/>
<text text-anchor="middle" x="708.5" y="-63.5" font-family="Helvetica,sans-Serif" font-size="10.00">afsk_demodulator.cpp</text>
</a>
</g>
</g>
<!-- Node2&#45;&gt;Node3 -->
<g id="edge2" class="edge">
<title>Node2&#45;&gt;Node3</title>
<path fill="none" stroke="midnightblue" d="M625.26,-107.86C645.66,-97.85 673.17,-84.35 690.87,-75.65"/>
<polygon fill="midnightblue" stroke="midnightblue" points="623.61,-104.78 616.17,-112.32 626.69,-111.06 623.61,-104.78"/>
</g>
<!-- Node4 -->
<g id="node4" class="node">
<title>Node4</title>
<g id="a_node4"><a xlink:href="afsk__modulator_8cpp.html" target="_top" xlink:title="The AFSK modulator class implementation.">
<polygon fill="none" stroke="black" points="217,-56.5 217,-75.5 330,-75.5 330,-56.5 217,-56.5"/>
<text text-anchor="middle" x="273.5" y="-63.5" font-family="Helvetica,sans-Serif" font-size="10.00">afsk_modulator.cpp</text>
</a>
</g>
</g>
<!-- Node2&#45;&gt;Node4 -->
<g id="edge3" class="edge">
<title>Node2&#45;&gt;Node4</title>
<path fill="none" stroke="midnightblue" d="M558.68,-111.78C503.53,-101.43 396.39,-85.21 330.03,-75.33"/>
<polygon fill="midnightblue" stroke="midnightblue" points="558.19,-115.25 568.68,-113.71 559.52,-108.38 558.19,-115.25"/>
</g>
<!-- Node5 -->
<g id="node5" class="node">
<title>Node5</title>
<g id="a_node5"><a xlink:href="afsk__receiver_8cpp.html" target="_top" xlink:title="Implementation of the AFSK receiver class.">
<polygon fill="none" stroke="black" points="348.5,-56.5 348.5,-75.5 450.5,-75.5 450.5,-56.5 348.5,-56.5"/>
<text text-anchor="middle" x="399.5" y="-63.5" font-family="Helvetica,sans-Serif" font-size="10.00">afsk_receiver.cpp</text>
</a>
</g>
</g>
<!-- Node2&#45;&gt;Node5 -->
<g id="edge4" class="edge">
<title>Node2&#45;&gt;Node5</title>
<path fill="none" stroke="midnightblue" d="M558.64,-110.18C521.13,-100 465.7,-84.97 431.14,-75.59"/>
<polygon fill="midnightblue" stroke="midnightblue" points="558.14,-113.67 568.71,-112.92 559.97,-106.92 558.14,-113.67"/>
</g>
<!-- Node6 -->
<g id="node6" class="node">
<title>Node6</title>
<g id="a_node6"><a xlink:href="afsk__test_8cpp.html" target="_top" xlink:title=" ">
<polygon fill="none" stroke="black" points="468.5,-56.5 468.5,-75.5 550.5,-75.5 550.5,-56.5 468.5,-56.5"/>
<text text-anchor="middle" x="509.5" y="-63.5" font-family="Helvetica,sans-Serif" font-size="10.00">afsk_test.cpp</text>
</a>
</g>
</g>
<!-- Node2&#45;&gt;Node6 -->
<g id="edge5" class="edge">
<title>Node2&#45;&gt;Node6</title>
<path fill="none" stroke="midnightblue" d="M575.26,-106.9C558.94,-97 537.63,-84.07 523.76,-75.65"/>
<polygon fill="midnightblue" stroke="midnightblue" points="573.84,-110.13 584.2,-112.32 577.47,-104.14 573.84,-110.13"/>
</g>
<!-- Node7 -->
<g id="node7" class="node">
<title>Node7</title>
<g id="a_node7"><a xlink:href="aprs_8hpp.html" target="_top" xlink:title=" ">
<polygon fill="none" stroke="black" points="569,-56.5 569,-75.5 628,-75.5 628,-56.5 569,-56.5"/>
<text text-anchor="middle" x="598.5" y="-63.5" font-family="Helvetica,sans-Serif" font-size="10.00">aprs.hpp</text>
</a>
</g>
</g>
<!-- Node2&#45;&gt;Node7 -->
<g id="edge6" class="edge">
<title>Node2&#45;&gt;Node7</title>
<path fill="none" stroke="midnightblue" d="M598.5,-101.8C598.5,-92.91 598.5,-82.78 598.5,-75.75"/>
<polygon fill="midnightblue" stroke="midnightblue" points="595,-102.08 598.5,-112.08 602,-102.08 595,-102.08"/>
</g>
<!-- Node15 -->
<g id="node15" class="node">
<title>Node15</title>
<g id="a_node15"><a xlink:href="pulse__test_8cpp.html" target="_top" xlink:title="PulseAudio output test. Does not use gtest.">
<polygon fill="none" stroke="black" points="842,-0.5 842,-19.5 929,-19.5 929,-0.5 842,-0.5"/>
<text text-anchor="middle" x="885.5" y="-7.5" font-family="Helvetica,sans-Serif" font-size="10.00">pulse_test.cpp</text>
</a>
</g>
</g>
<!-- Node2&#45;&gt;Node15 -->
<g id="edge15" class="edge">
<title>Node2&#45;&gt;Node15</title>
<path fill="none" stroke="midnightblue" d="M638.14,-114.88C675.79,-108.22 733.47,-95.79 780.5,-76 817.06,-60.61 855.61,-33.52 874.19,-19.68"/>
<polygon fill="midnightblue" stroke="midnightblue" points="637.34,-111.46 628.08,-116.61 638.53,-118.36 637.34,-111.46"/>
</g>
<!-- Node8 -->
<g id="node8" class="node">
<title>Node8</title>
<g id="a_node8"><a xlink:href="aprs_8cpp.html" target="_top" xlink:title="APRS implementation.">
<polygon fill="none" stroke="black" points="765.5,-0.5 765.5,-19.5 823.5,-19.5 823.5,-0.5 765.5,-0.5"/>
<text text-anchor="middle" x="794.5" y="-7.5" font-family="Helvetica,sans-Serif" font-size="10.00">aprs.cpp</text>
</a>
</g>
</g>
<!-- Node7&#45;&gt;Node8 -->
<g id="edge7" class="edge">
<title>Node7&#45;&gt;Node8</title>
<path fill="none" stroke="midnightblue" d="M638.39,-54.01C676.09,-43.62 731.74,-28.29 765.41,-19.01"/>
<polygon fill="midnightblue" stroke="midnightblue" points="636.98,-50.77 628.27,-56.8 638.84,-57.52 636.98,-50.77"/>
</g>
<!-- Node9 -->
<g id="node9" class="node">
<title>Node9</title>
<g id="a_node9"><a xlink:href="aprs__demodulator_8cpp.html" target="_top" xlink:title="Implementation of the APRS demodulator class.">
<polygon fill="none" stroke="black" points="0,-0.5 0,-19.5 125,-19.5 125,-0.5 0,-0.5"/>
<text text-anchor="middle" x="62.5" y="-7.5" font-family="Helvetica,sans-Serif" font-size="10.00">aprs_demodulator.cpp</text>
</a>
</g>
</g>
<!-- Node7&#45;&gt;Node9 -->
<g id="edge8" class="edge">
<title>Node7&#45;&gt;Node9</title>
<path fill="none" stroke="midnightblue" d="M558.8,-56.12C370.06,-27.01 319.23,-39.61 133.5,-20 130.78,-19.71 128.01,-19.41 125.2,-19.09"/>
<polygon fill="midnightblue" stroke="midnightblue" points="558.35,-59.6 568.77,-57.68 559.43,-52.68 558.35,-59.6"/>
</g>
<!-- Node10 -->
<g id="node10" class="node">
<title>Node10</title>
<g id="a_node10"><a xlink:href="aprs__encoders_8cpp.html" target="_top" xlink:title="Encoding functions for APRS packets.">
<polygon fill="none" stroke="black" points="143,-0.5 143,-19.5 250,-19.5 250,-0.5 143,-0.5"/>
<text text-anchor="middle" x="196.5" y="-7.5" font-family="Helvetica,sans-Serif" font-size="10.00">aprs_encoders.cpp</text>
</a>
</g>
</g>
<!-- Node7&#45;&gt;Node10 -->
<g id="edge9" class="edge">
<title>Node7&#45;&gt;Node10</title>
<path fill="none" stroke="midnightblue" d="M558.55,-56.01C425.02,-33.04 388.81,-37.25 258.5,-20 255.8,-19.64 253.04,-19.27 250.26,-18.89"/>
<polygon fill="midnightblue" stroke="midnightblue" points="558.3,-59.52 568.76,-57.79 559.5,-52.63 558.3,-59.52"/>
</g>
<!-- Node11 -->
<g id="node11" class="node">
<title>Node11</title>
<g id="a_node11"><a xlink:href="aprs__modulator_8cpp.html" target="_top" xlink:title="Implementation of the APRS modulator class.">
<polygon fill="none" stroke="black" points="268,-0.5 268,-19.5 381,-19.5 381,-0.5 268,-0.5"/>
<text text-anchor="middle" x="324.5" y="-7.5" font-family="Helvetica,sans-Serif" font-size="10.00">aprs_modulator.cpp</text>
</a>
</g>
</g>
<!-- Node7&#45;&gt;Node11 -->
<g id="edge10" class="edge">
<title>Node7&#45;&gt;Node11</title>
<path fill="none" stroke="midnightblue" d="M558.73,-55.9C487.97,-41.06 417.27,-27.83 371.87,-19.53"/>
<polygon fill="midnightblue" stroke="midnightblue" points="558.21,-59.37 568.72,-58.01 559.65,-52.52 558.21,-59.37"/>
</g>
<!-- Node12 -->
<g id="node12" class="node">
<title>Node12</title>
<g id="a_node12"><a xlink:href="aprs__receiver_8cpp.html" target="_top" xlink:title="Implementation of the APRS receiver class.">
<polygon fill="none" stroke="black" points="399.5,-0.5 399.5,-19.5 501.5,-19.5 501.5,-0.5 399.5,-0.5"/>
<text text-anchor="middle" x="450.5" y="-7.5" font-family="Helvetica,sans-Serif" font-size="10.00">aprs_receiver.cpp</text>
</a>
</g>
</g>
<!-- Node7&#45;&gt;Node12 -->
<g id="edge11" class="edge">
<title>Node7&#45;&gt;Node12</title>
<path fill="none" stroke="midnightblue" d="M565.35,-52.91C537.53,-42.75 498.48,-28.51 473.84,-19.52"/>
<polygon fill="midnightblue" stroke="midnightblue" points="564.46,-56.3 575.05,-56.44 566.85,-49.73 564.46,-56.3"/>
</g>
<!-- Node13 -->
<g id="node13" class="node">
<title>Node13</title>
<g id="a_node13"><a xlink:href="aprs__receiver__test_8cpp.html" target="_top" xlink:title="Integration tests for signal_easel::aprs::Receiver.">
<polygon fill="none" stroke="black" points="520,-0.5 520,-19.5 647,-19.5 647,-0.5 520,-0.5"/>
<text text-anchor="middle" x="583.5" y="-7.5" font-family="Helvetica,sans-Serif" font-size="10.00">aprs_receiver_test.cpp</text>
</a>
</g>
</g>
<!-- Node7&#45;&gt;Node13 -->
<g id="edge12" class="edge">
<title>Node7&#45;&gt;Node13</title>
<path fill="none" stroke="midnightblue" d="M593.33,-46.4C590.82,-37.36 587.93,-26.94 585.93,-19.75"/>
<polygon fill="midnightblue" stroke="midnightblue" points="589.97,-47.38 596.02,-56.08 596.72,-45.51 589.97,-47.38"/>
</g>
<!-- Node14 -->
<g id="node14" class="node">
<title>Node14</title>
<g id="a_node14"><a xlink:href="aprs__test_8cpp.html" target="_top" xlink:title=" ">
<polygon fill="none" stroke="black" points="665.5,-0.5 665.5,-19.5 747.5,-19.5 747.5,-0.5 665.5,-0.5"/>
<text text-anchor="middle" x="706.5" y="-7.5" font-family="Helvetica,sans-Serif" font-size="10.00">aprs_test.cpp</text>
</a>
</g>
</g>
<!-- Node7&#45;&gt;Node14 -->
<g id="edge13" class="edge">
<title>Node7&#45;&gt;Node14</title>
<path fill="none" stroke="midnightblue" d="M625.05,-51.73C645.05,-41.73 671.89,-28.31 689.19,-19.65"/>
<polygon fill="midnightblue" stroke="midnightblue" points="623.23,-48.72 615.85,-56.32 626.36,-54.98 623.23,-48.72"/>
</g>
<!-- Node7&#45;&gt;Node15 -->
<g id="edge14" class="edge">
<title>Node7&#45;&gt;Node15</title>
<path fill="none" stroke="midnightblue" d="M638.17,-55.96C689.24,-45.72 785.42,-28.61 841.85,-18.66"/>
<polygon fill="midnightblue" stroke="midnightblue" points="637.38,-52.55 628.28,-57.98 638.78,-59.41 637.38,-52.55"/>
</g>
<!-- Node19&#45;&gt;Node18 -->
<g id="edge23" class="edge">
<title>Node19&#45;&gt;Node18</title>
<path fill="none" stroke="midnightblue" d="M467.85,-220.34C450.24,-212.36 428.19,-201.09 410.5,-188 387.5,-170.99 365.36,-145.31 354.48,-131.89"/>
<polygon fill="midnightblue" stroke="midnightblue" points="466.55,-223.6 477.11,-224.43 469.38,-217.19 466.55,-223.6"/>
</g>
<!-- Node20 -->
<g id="node20" class="node">
<title>Node20</title>
<g id="a_node20"><a xlink:href="convolutional__code_8hpp.html" target="_top" xlink:title="Convolutional Code Implementation.">
<polygon fill="none" stroke="black" points="419.5,-168.5 419.5,-187.5 551.5,-187.5 551.5,-168.5 419.5,-168.5"/>
<text text-anchor="middle" x="485.5" y="-175.5" font-family="Helvetica,sans-Serif" font-size="10.00">convolutional_code.hpp</text>
</a>
</g>
</g>
<!-- Node19&#45;&gt;Node20 -->
<g id="edge20" class="edge">
<title>Node19&#45;&gt;Node20</title>
<path fill="none" stroke="midnightblue" d="M493.95,-214.1C491.79,-205.14 489.32,-194.86 487.61,-187.75"/>
<polygon fill="midnightblue" stroke="midnightblue" points="490.61,-215.18 496.35,-224.08 497.42,-213.54 490.61,-215.18"/>
</g>
<!-- Node20&#45;&gt;Node18 -->
<g id="edge22" class="edge">
<title>Node20&#45;&gt;Node18</title>
<path fill="none" stroke="midnightblue" d="M454.25,-164.77C428.33,-154.63 392.14,-140.47 369.26,-131.52"/>
<polygon fill="midnightblue" stroke="midnightblue" points="453.05,-168.06 463.63,-168.44 455.6,-161.54 453.05,-168.06"/>
</g>
<!-- Node21 -->
<g id="node21" class="node">
<title>Node21</title>
<g id="a_node21"><a xlink:href="convolutional__code_8cpp.html" target="_top" xlink:title="Convolutional Code Implementation.">
<polygon fill="none" stroke="black" points="420,-112.5 420,-131.5 551,-131.5 551,-112.5 420,-112.5"/>
<text text-anchor="middle" x="485.5" y="-119.5" font-family="Helvetica,sans-Serif" font-size="10.00">convolutional_code.cpp</text>
</a>
</g>
</g>
<!-- Node20&#45;&gt;Node21 -->
<g id="edge21" class="edge">
<title>Node20&#45;&gt;Node21</title>
<path fill="none" stroke="midnightblue" d="M485.5,-157.8C485.5,-148.91 485.5,-138.78 485.5,-131.75"/>
<polygon fill="midnightblue" stroke="midnightblue" points="482,-158.08 485.5,-168.08 489,-158.08 482,-158.08"/>
</g>
<!-- Node22&#45;&gt;Node15 -->
<g id="edge27" class="edge">
<title>Node22&#45;&gt;Node15</title>
<path fill="none" stroke="midnightblue" d="M813.29,-220.01C827.41,-212.66 842.97,-202.08 852.5,-188 889.83,-132.87 887.88,-46.95 886.18,-19.64"/>
<polygon fill="midnightblue" stroke="midnightblue" points="811.75,-216.87 804.29,-224.39 814.81,-223.16 811.75,-216.87"/>
</g>
<!-- Node22&#45;&gt;Node23 -->
<g id="edge25" class="edge">
<title>Node22&#45;&gt;Node23</title>
<path fill="none" stroke="midnightblue" d="M756.66,-219.45C738.39,-209.48 714.08,-196.23 698.37,-187.65"/>
<polygon fill="midnightblue" stroke="midnightblue" points="755.14,-222.61 765.59,-224.32 758.49,-216.46 755.14,-222.61"/>
</g>
<!-- Node24 -->
<g id="node24" class="node">
<title>Node24</title>
<g id="a_node24"><a xlink:href="pulse__audio__writer_8cpp.html" target="_top" xlink:title="Simple pulse audio interface.">
<polygon fill="none" stroke="black" points="899.5,-168.5 899.5,-187.5 1027.5,-187.5 1027.5,-168.5 899.5,-168.5"/>
<text text-anchor="middle" x="963.5" y="-175.5" font-family="Helvetica,sans-Serif" font-size="10.00">pulse_audio_writer.cpp</text>
</a>
</g>
</g>
<!-- Node22&#45;&gt;Node24 -->
<g id="edge26" class="edge">
<title>Node22&#45;&gt;Node24</title>
<path fill="none" stroke="midnightblue" d="M820.03,-221.57C854.36,-211.38 903.83,-196.7 934.8,-187.52"/>
<polygon fill="midnightblue" stroke="midnightblue" points="818.93,-218.24 810.34,-224.44 820.92,-224.95 818.93,-218.24"/>
</g>
<!-- Node25 -->
<g id="node25" class="node">
<title>Node25</title>
<g id="a_node25"><a xlink:href="receiver_8hpp.html" target="_top" xlink:title="Base class for receivers. Demodulators that use pulse audio.">
<polygon fill="none" stroke="black" points="766,-168.5 766,-187.5 843,-187.5 843,-168.5 766,-168.5"/>
<text text-anchor="middle" x="804.5" y="-175.5" font-family="Helvetica,sans-Serif" font-size="10.00">receiver.hpp</text>
</a>
</g>
</g>
<!-- Node22&#45;&gt;Node25 -->
<g id="edge28" class="edge">
<title>Node22&#45;&gt;Node25</title>
<path fill="none" stroke="midnightblue" d="M789.3,-214.69C793.18,-205.59 797.68,-195.01 800.77,-187.75"/>
<polygon fill="midnightblue" stroke="midnightblue" points="786,-213.51 785.3,-224.08 792.44,-216.25 786,-213.51"/>
</g>
<!-- Node25&#45;&gt;Node2 -->
<g id="edge29" class="edge">
<title>Node25&#45;&gt;Node2</title>
<path fill="none" stroke="midnightblue" d="M762.15,-165.9C722.25,-155.44 663.5,-140.04 628.31,-130.82"/>
<polygon fill="midnightblue" stroke="midnightblue" points="761.3,-169.29 771.86,-168.44 763.07,-162.52 761.3,-169.29"/>
</g>
</g>
</svg>
