<?xml version="1.0" encoding="UTF-8" standalone="no"?>
<!DOCTYPE svg PUBLIC "-//W3C//DTD SVG 1.1//EN"
 "http://www.w3.org/Graphics/SVG/1.1/DTD/svg11.dtd">
<!-- Generated by graphviz version 2.43.0 (0)
 -->
<!-- Title: constants.hpp Pages: 1 -->
<svg width="700pt" height="308pt"
 viewBox="0.00 0.00 699.61 308.00" xmlns="http://www.w3.org/2000/svg" xmlns:xlink="http://www.w3.org/1999/xlink">
<g id="graph0" class="graph" transform="scale(1 1) rotate(0) translate(4 304)">
<title>constants.hpp</title>
<!-- Node1 -->
<g id="node1" class="node">
<title>Node1</title>
<g id="a_node1"><a xlink:title="Common constants used throughout the library.">
<polygon fill="#bfbfbf" stroke="black" points="166.5,-280.5 166.5,-299.5 251.5,-299.5 251.5,-280.5 166.5,-280.5"/>
<text text-anchor="middle" x="209" y="-287.5" font-family="Helvetica,sans-Serif" font-size="10.00">constants.hpp</text>
</a>
</g>
</g>
<!-- Node2 -->
<g id="node2" class="node">
<title>Node2</title>
<g id="a_node2"><a xlink:href="modulator_8cpp.html" target="_top" xlink:title="The abstract modulator class implementation.">
<polygon fill="none" stroke="black" points="0,-224.5 0,-243.5 86,-243.5 86,-224.5 0,-224.5"/>
<text text-anchor="middle" x="43" y="-231.5" font-family="Helvetica,sans-Serif" font-size="10.00">modulator.cpp</text>
</a>
</g>
</g>
<!-- Node1&#45;&gt;Node2 -->
<g id="edge1" class="edge">
<title>Node1&#45;&gt;Node2</title>
<path fill="none" stroke="midnightblue" d="M173.05,-277.3C141.77,-267.13 97.18,-252.62 69.18,-243.52"/>
<polygon fill="midnightblue" stroke="midnightblue" points="172.1,-280.68 182.7,-280.44 174.27,-274.02 172.1,-280.68"/>
</g>
<!-- Node3 -->
<g id="node3" class="node">
<title>Node3</title>
<g id="a_node3"><a xlink:href="morse__modulator_8cpp.html" target="_top" xlink:title="Simple morse code modulator.">
<polygon fill="none" stroke="black" points="104,-224.5 104,-243.5 226,-243.5 226,-224.5 104,-224.5"/>
<text text-anchor="middle" x="165" y="-231.5" font-family="Helvetica,sans-Serif" font-size="10.00">morse_modulator.cpp</text>
</a>
</g>
</g>
<!-- Node1&#45;&gt;Node3 -->
<g id="edge2" class="edge">
<title>Node1&#45;&gt;Node3</title>
<path fill="none" stroke="midnightblue" d="M195.27,-272.14C187.6,-262.74 178.37,-251.4 172.13,-243.75"/>
<polygon fill="midnightblue" stroke="midnightblue" points="192.7,-274.54 201.73,-280.08 198.13,-270.12 192.7,-274.54"/>
</g>
<!-- Node4 -->
<g id="node4" class="node">
<title>Node4</title>
<g id="a_node4"><a xlink:href="afsk_8hpp.html" target="_top" xlink:title="AFSK related modulation/demodulation.">
<polygon fill="none" stroke="black" points="343.5,-112.5 343.5,-131.5 402.5,-131.5 402.5,-112.5 343.5,-112.5"/>
<text text-anchor="middle" x="373" y="-119.5" font-family="Helvetica,sans-Serif" font-size="10.00">afsk.hpp</text>
</a>
</g>
</g>
<!-- Node1&#45;&gt;Node4 -->
<g id="edge3" class="edge">
<title>Node1&#45;&gt;Node4</title>
<path fill="none" stroke="midnightblue" d="M219.32,-271.71C224.19,-263.4 230.02,-253.25 235,-244 252.9,-210.75 245.76,-194.15 273,-168 292.64,-149.15 321.54,-137.31 343.23,-130.54"/>
<polygon fill="midnightblue" stroke="midnightblue" points="216.22,-270.07 214.14,-280.46 222.24,-273.63 216.22,-270.07"/>
</g>
<!-- Node14 -->
<g id="node14" class="node">
<title>Node14</title>
<g id="a_node14"><a xlink:href="pulse__audio_8hpp.html" target="_top" xlink:title="Simple pulse audio interface.">
<polygon fill="none" stroke="black" points="448,-224.5 448,-243.5 544,-243.5 544,-224.5 448,-224.5"/>
<text text-anchor="middle" x="496" y="-231.5" font-family="Helvetica,sans-Serif" font-size="10.00">pulse_audio.hpp</text>
</a>
</g>
</g>
<!-- Node1&#45;&gt;Node14 -->
<g id="edge14" class="edge">
<title>Node1&#45;&gt;Node14</title>
<path fill="none" stroke="midnightblue" d="M261.76,-279.07C315.96,-268.88 399.45,-253.17 450.74,-243.52"/>
<polygon fill="midnightblue" stroke="midnightblue" points="260.84,-275.69 251.66,-280.97 262.13,-282.56 260.84,-275.69"/>
</g>
<!-- Node5 -->
<g id="node5" class="node">
<title>Node5</title>
<g id="a_node5"><a xlink:href="afsk__demodulator_8cpp.html" target="_top" xlink:title="The AFSK demodulator class implementation.">
<polygon fill="none" stroke="black" points="530.5,-56.5 530.5,-75.5 655.5,-75.5 655.5,-56.5 530.5,-56.5"/>
<text text-anchor="middle" x="593" y="-63.5" font-family="Helvetica,sans-Serif" font-size="10.00">afsk_demodulator.cpp</text>
</a>
</g>
</g>
<!-- Node4&#45;&gt;Node5 -->
<g id="edge4" class="edge">
<title>Node4&#45;&gt;Node5</title>
<path fill="none" stroke="midnightblue" d="M412.41,-111.33C453.82,-101.16 518.34,-85.33 558,-75.59"/>
<polygon fill="midnightblue" stroke="midnightblue" points="411.55,-107.93 402.67,-113.72 413.22,-114.73 411.55,-107.93"/>
</g>
<!-- Node6 -->
<g id="node6" class="node">
<title>Node6</title>
<g id="a_node6"><a xlink:href="afsk__modulator_8cpp.html" target="_top" xlink:title="The AFSK modulator class implementation.">
<polygon fill="none" stroke="black" points="62.5,-56.5 62.5,-75.5 175.5,-75.5 175.5,-56.5 62.5,-56.5"/>
<text text-anchor="middle" x="119" y="-63.5" font-family="Helvetica,sans-Serif" font-size="10.00">afsk_modulator.cpp</text>
</a>
</g>
</g>
<!-- Node4&#45;&gt;Node6 -->
<g id="edge5" class="edge">
<title>Node4&#45;&gt;Node6</title>
<path fill="none" stroke="midnightblue" d="M333.47,-112.6C286.06,-102.52 207.04,-85.72 159.3,-75.57"/>
<polygon fill="midnightblue" stroke="midnightblue" points="332.86,-116.04 343.37,-114.7 334.31,-109.2 332.86,-116.04"/>
</g>
<!-- Node7 -->
<g id="node7" class="node">
<title>Node7</title>
<g id="a_node7"><a xlink:href="afsk__receiver_8cpp.html" target="_top" xlink:title="Implementation of the AFSK receiver class.">
<polygon fill="none" stroke="black" points="194,-56.5 194,-75.5 296,-75.5 296,-56.5 194,-56.5"/>
<text text-anchor="middle" x="245" y="-63.5" font-family="Helvetica,sans-Serif" font-size="10.00">afsk_receiver.cpp</text>
</a>
</g>
</g>
<!-- Node4&#45;&gt;Node7 -->
<g id="edge6" class="edge">
<title>Node4&#45;&gt;Node7</title>
<path fill="none" stroke="midnightblue" d="M343.38,-108.5C319.38,-98.38 286.22,-84.39 265.19,-75.52"/>
<polygon fill="midnightblue" stroke="midnightblue" points="342.14,-111.78 352.72,-112.44 344.86,-105.33 342.14,-111.78"/>
</g>
<!-- Node8 -->
<g id="node8" class="node">
<title>Node8</title>
<g id="a_node8"><a xlink:href="aprs_8hpp.html" target="_top" xlink:title="APRS implementation.">
<polygon fill="none" stroke="black" points="314.5,-56.5 314.5,-75.5 373.5,-75.5 373.5,-56.5 314.5,-56.5"/>
<text text-anchor="middle" x="344" y="-63.5" font-family="Helvetica,sans-Serif" font-size="10.00">aprs.hpp</text>
</a>
</g>
</g>
<!-- Node4&#45;&gt;Node8 -->
<g id="edge7" class="edge">
<title>Node4&#45;&gt;Node8</title>
<path fill="none" stroke="midnightblue" d="M363.32,-102.98C358.4,-93.82 352.64,-83.09 348.7,-75.75"/>
<polygon fill="midnightblue" stroke="midnightblue" points="360.4,-104.93 368.21,-112.08 366.56,-101.62 360.4,-104.93"/>
</g>
<!-- Node12 -->
<g id="node12" class="node">
<title>Node12</title>
<g id="a_node12"><a xlink:href="pulse__test_8cpp.html" target="_top" xlink:title="PulseAudio output test. Does not use gtest.">
<polygon fill="none" stroke="black" points="468.5,-0.5 468.5,-19.5 555.5,-19.5 555.5,-0.5 468.5,-0.5"/>
<text text-anchor="middle" x="512" y="-7.5" font-family="Helvetica,sans-Serif" font-size="10.00">pulse_test.cpp</text>
</a>
</g>
</g>
<!-- Node4&#45;&gt;Node12 -->
<g id="edge13" class="edge">
<title>Node4&#45;&gt;Node12</title>
<path fill="none" stroke="midnightblue" d="M382.66,-103.6C391.25,-89.37 404.92,-69.46 421,-56 440.73,-39.48 467.55,-27.17 486.96,-19.64"/>
<polygon fill="midnightblue" stroke="midnightblue" points="379.55,-101.99 377.56,-112.4 385.6,-105.5 379.55,-101.99"/>
</g>
<!-- Node13 -->
<g id="node13" class="node">
<title>Node13</title>
<g id="a_node13"><a xlink:href="afsk__test_8cpp.html" target="_top" xlink:title=" ">
<polygon fill="none" stroke="black" points="430,-56.5 430,-75.5 512,-75.5 512,-56.5 430,-56.5"/>
<text text-anchor="middle" x="471" y="-63.5" font-family="Helvetica,sans-Serif" font-size="10.00">afsk_test.cpp</text>
</a>
</g>
</g>
<!-- Node4&#45;&gt;Node13 -->
<g id="edge12" class="edge">
<title>Node4&#45;&gt;Node13</title>
<path fill="none" stroke="midnightblue" d="M397.59,-107.45C415.68,-97.48 439.73,-84.23 455.29,-75.65"/>
<polygon fill="midnightblue" stroke="midnightblue" points="395.81,-104.43 388.75,-112.32 399.19,-110.56 395.81,-104.43"/>
</g>
<!-- Node9 -->
<g id="node9" class="node">
<title>Node9</title>
<g id="a_node9"><a xlink:href="aprs__receiver_8cpp.html" target="_top" xlink:title="Implementation of the APRS receiver class.">
<polygon fill="none" stroke="black" points="348,-0.5 348,-19.5 450,-19.5 450,-0.5 348,-0.5"/>
<text text-anchor="middle" x="399" y="-7.5" font-family="Helvetica,sans-Serif" font-size="10.00">aprs_receiver.cpp</text>
</a>
</g>
</g>
<!-- Node8&#45;&gt;Node9 -->
<g id="edge8" class="edge">
<title>Node8&#45;&gt;Node9</title>
<path fill="none" stroke="midnightblue" d="M360.29,-49C370.04,-39.43 382.05,-27.64 390.09,-19.75"/>
<polygon fill="midnightblue" stroke="midnightblue" points="357.77,-46.58 353.08,-56.08 362.67,-51.57 357.77,-46.58"/>
</g>
<!-- Node10 -->
<g id="node10" class="node">
<title>Node10</title>
<g id="a_node10"><a xlink:href="aprs_8cpp.html" target="_top" xlink:title="APRS implementation.">
<polygon fill="none" stroke="black" points="172,-0.5 172,-19.5 230,-19.5 230,-0.5 172,-0.5"/>
<text text-anchor="middle" x="201" y="-7.5" font-family="Helvetica,sans-Serif" font-size="10.00">aprs.cpp</text>
</a>
</g>
</g>
<!-- Node8&#45;&gt;Node10 -->
<g id="edge9" class="edge">
<title>Node8&#45;&gt;Node10</title>
<path fill="none" stroke="midnightblue" d="M311.97,-52.91C285.09,-42.75 247.36,-28.51 223.55,-19.52"/>
<polygon fill="midnightblue" stroke="midnightblue" points="310.75,-56.19 321.34,-56.44 313.22,-49.64 310.75,-56.19"/>
</g>
<!-- Node11 -->
<g id="node11" class="node">
<title>Node11</title>
<g id="a_node11"><a xlink:href="aprs__test_8cpp.html" target="_top" xlink:title=" ">
<polygon fill="none" stroke="black" points="248,-0.5 248,-19.5 330,-19.5 330,-0.5 248,-0.5"/>
<text text-anchor="middle" x="289" y="-7.5" font-family="Helvetica,sans-Serif" font-size="10.00">aprs_test.cpp</text>
</a>
</g>
</g>
<!-- Node8&#45;&gt;Node11 -->
<g id="edge10" class="edge">
<title>Node8&#45;&gt;Node11</title>
<path fill="none" stroke="midnightblue" d="M327.71,-49C317.96,-39.43 305.95,-27.64 297.91,-19.75"/>
<polygon fill="midnightblue" stroke="midnightblue" points="325.33,-51.57 334.92,-56.08 330.23,-46.58 325.33,-51.57"/>
</g>
<!-- Node8&#45;&gt;Node12 -->
<g id="edge11" class="edge">
<title>Node8&#45;&gt;Node12</title>
<path fill="none" stroke="midnightblue" d="M380.39,-53.3C412.04,-43.13 457.17,-28.62 485.5,-19.52"/>
<polygon fill="midnightblue" stroke="midnightblue" points="379.07,-50.05 370.62,-56.44 381.21,-56.72 379.07,-50.05"/>
</g>
<!-- Node14&#45;&gt;Node12 -->
<g id="edge19" class="edge">
<title>Node14&#45;&gt;Node12</title>
<path fill="none" stroke="midnightblue" d="M553.98,-225.17C597.32,-217.99 651.35,-205.76 665,-188 700.75,-141.48 700.15,-102.97 665,-56 651.81,-38.38 595.99,-25.29 555.57,-17.9"/>
<polygon fill="midnightblue" stroke="midnightblue" points="553.39,-221.72 544.07,-226.76 554.49,-228.63 553.39,-221.72"/>
</g>
<!-- Node15 -->
<g id="node15" class="node">
<title>Node15</title>
<g id="a_node15"><a xlink:href="pulse__audio__reader_8cpp.html" target="_top" xlink:title="PulseAudio reader implementation.">
<polygon fill="none" stroke="black" points="282.5,-168.5 282.5,-187.5 413.5,-187.5 413.5,-168.5 282.5,-168.5"/>
<text text-anchor="middle" x="348" y="-175.5" font-family="Helvetica,sans-Serif" font-size="10.00">pulse_audio_reader.cpp</text>
</a>
</g>
</g>
<!-- Node14&#45;&gt;Node15 -->
<g id="edge15" class="edge">
<title>Node14&#45;&gt;Node15</title>
<path fill="none" stroke="midnightblue" d="M462.85,-220.91C435.03,-210.75 395.98,-196.51 371.34,-187.52"/>
<polygon fill="midnightblue" stroke="midnightblue" points="461.96,-224.3 472.55,-224.44 464.35,-217.73 461.96,-224.3"/>
</g>
<!-- Node16 -->
<g id="node16" class="node">
<title>Node16</title>
<g id="a_node16"><a xlink:href="pulse__audio__writer_8cpp.html" target="_top" xlink:title=" ">
<polygon fill="none" stroke="black" points="432,-168.5 432,-187.5 560,-187.5 560,-168.5 432,-168.5"/>
<text text-anchor="middle" x="496" y="-175.5" font-family="Helvetica,sans-Serif" font-size="10.00">pulse_audio_writer.cpp</text>
</a>
</g>
</g>
<!-- Node14&#45;&gt;Node16 -->
<g id="edge16" class="edge">
<title>Node14&#45;&gt;Node16</title>
<path fill="none" stroke="midnightblue" d="M496,-213.8C496,-204.91 496,-194.78 496,-187.75"/>
<polygon fill="midnightblue" stroke="midnightblue" points="492.5,-214.08 496,-224.08 499.5,-214.08 492.5,-214.08"/>
</g>
<!-- Node17 -->
<g id="node17" class="node">
<title>Node17</title>
<g id="a_node17"><a xlink:href="receiver_8hpp.html" target="_top" xlink:title="Base class for receivers. Demodulators that use pulse audio.">
<polygon fill="none" stroke="black" points="578.5,-168.5 578.5,-187.5 655.5,-187.5 655.5,-168.5 578.5,-168.5"/>
<text text-anchor="middle" x="617" y="-175.5" font-family="Helvetica,sans-Serif" font-size="10.00">receiver.hpp</text>
</a>
</g>
</g>
<!-- Node14&#45;&gt;Node17 -->
<g id="edge17" class="edge">
<title>Node14&#45;&gt;Node17</title>
<path fill="none" stroke="midnightblue" d="M524.31,-220.37C546.97,-210.26 578.13,-196.35 597.92,-187.52"/>
<polygon fill="midnightblue" stroke="midnightblue" points="522.88,-217.17 515.17,-224.44 525.73,-223.56 522.88,-217.17"/>
</g>
<!-- Node17&#45;&gt;Node4 -->
<g id="edge18" class="edge">
<title>Node17&#45;&gt;Node4</title>
<path fill="none" stroke="midnightblue" d="M568.5,-166.27C519.04,-155.32 443.89,-138.69 402.66,-129.56"/>
<polygon fill="midnightblue" stroke="midnightblue" points="567.82,-169.7 578.34,-168.44 569.33,-162.87 567.82,-169.7"/>
</g>
</g>
</svg>
