<?xml version="1.0" encoding="UTF-8" standalone="no"?>
<!DOCTYPE svg PUBLIC "-//W3C//DTD SVG 1.1//EN"
 "http://www.w3.org/Graphics/SVG/1.1/DTD/svg11.dtd">
<!-- Generated by graphviz version 2.43.0 (0)
 -->
<!-- Title: constants.hpp Pages: 1 -->
<svg width="791pt" height="308pt"
 viewBox="0.00 0.00 791.00 308.00" xmlns="http://www.w3.org/2000/svg" xmlns:xlink="http://www.w3.org/1999/xlink">
<g id="graph0" class="graph" transform="scale(1 1) rotate(0) translate(4 304)">
<title>constants.hpp</title>
<!-- Node1 -->
<g id="node1" class="node">
<title>Node1</title>
<g id="a_node1"><a xlink:title="Common constants used throughout the library.">
<polygon fill="#bfbfbf" stroke="black" points="228,-280.5 228,-299.5 313,-299.5 313,-280.5 228,-280.5"/>
<text text-anchor="middle" x="270.5" y="-287.5" font-family="Helvetica,sans-Serif" font-size="10.00">constants.hpp</text>
</a>
</g>
</g>
<!-- Node2 -->
<g id="node2" class="node">
<title>Node2</title>
<g id="a_node2"><a xlink:href="modulator_8cpp.html" target="_top" xlink:title="The abstract modulator class implementation.">
<polygon fill="none" stroke="black" points="61.5,-224.5 61.5,-243.5 147.5,-243.5 147.5,-224.5 61.5,-224.5"/>
<text text-anchor="middle" x="104.5" y="-231.5" font-family="Helvetica,sans-Serif" font-size="10.00">modulator.cpp</text>
</a>
</g>
</g>
<!-- Node1&#45;&gt;Node2 -->
<g id="edge1" class="edge">
<title>Node1&#45;&gt;Node2</title>
<path fill="none" stroke="midnightblue" d="M234.55,-277.3C203.27,-267.13 158.68,-252.62 130.68,-243.52"/>
<polygon fill="midnightblue" stroke="midnightblue" points="233.6,-280.68 244.2,-280.44 235.77,-274.02 233.6,-280.68"/>
</g>
<!-- Node3 -->
<g id="node3" class="node">
<title>Node3</title>
<g id="a_node3"><a xlink:href="morse__modulator_8cpp.html" target="_top" xlink:title="Simple morse code modulator.">
<polygon fill="none" stroke="black" points="165.5,-224.5 165.5,-243.5 287.5,-243.5 287.5,-224.5 165.5,-224.5"/>
<text text-anchor="middle" x="226.5" y="-231.5" font-family="Helvetica,sans-Serif" font-size="10.00">morse_modulator.cpp</text>
</a>
</g>
</g>
<!-- Node1&#45;&gt;Node3 -->
<g id="edge2" class="edge">
<title>Node1&#45;&gt;Node3</title>
<path fill="none" stroke="midnightblue" d="M256.77,-272.14C249.1,-262.74 239.87,-251.4 233.63,-243.75"/>
<polygon fill="midnightblue" stroke="midnightblue" points="254.2,-274.54 263.23,-280.08 259.63,-270.12 254.2,-274.54"/>
</g>
<!-- Node4 -->
<g id="node4" class="node">
<title>Node4</title>
<g id="a_node4"><a xlink:href="afsk_8hpp.html" target="_top" xlink:title="AFSK related modulation/demodulation.">
<polygon fill="none" stroke="black" points="405,-112.5 405,-131.5 464,-131.5 464,-112.5 405,-112.5"/>
<text text-anchor="middle" x="434.5" y="-119.5" font-family="Helvetica,sans-Serif" font-size="10.00">afsk.hpp</text>
</a>
</g>
</g>
<!-- Node1&#45;&gt;Node4 -->
<g id="edge3" class="edge">
<title>Node1&#45;&gt;Node4</title>
<path fill="none" stroke="midnightblue" d="M280.82,-271.71C285.69,-263.4 291.52,-253.25 296.5,-244 314.4,-210.75 307.26,-194.15 334.5,-168 354.14,-149.15 383.04,-137.31 404.73,-130.54"/>
<polygon fill="midnightblue" stroke="midnightblue" points="277.72,-270.07 275.64,-280.46 283.74,-273.63 277.72,-270.07"/>
</g>
<!-- Node17 -->
<g id="node17" class="node">
<title>Node17</title>
<g id="a_node17"><a xlink:href="pulse__audio_8hpp.html" target="_top" xlink:title="Simple pulse audio interface.">
<polygon fill="none" stroke="black" points="509.5,-224.5 509.5,-243.5 605.5,-243.5 605.5,-224.5 509.5,-224.5"/>
<text text-anchor="middle" x="557.5" y="-231.5" font-family="Helvetica,sans-Serif" font-size="10.00">pulse_audio.hpp</text>
</a>
</g>
</g>
<!-- Node1&#45;&gt;Node17 -->
<g id="edge17" class="edge">
<title>Node1&#45;&gt;Node17</title>
<path fill="none" stroke="midnightblue" d="M323.26,-279.07C377.46,-268.88 460.95,-253.17 512.24,-243.52"/>
<polygon fill="midnightblue" stroke="midnightblue" points="322.34,-275.69 313.16,-280.97 323.63,-282.56 322.34,-275.69"/>
</g>
<!-- Node5 -->
<g id="node5" class="node">
<title>Node5</title>
<g id="a_node5"><a xlink:href="afsk__demodulator_8cpp.html" target="_top" xlink:title="The AFSK demodulator class implementation.">
<polygon fill="none" stroke="black" points="592,-56.5 592,-75.5 717,-75.5 717,-56.5 592,-56.5"/>
<text text-anchor="middle" x="654.5" y="-63.5" font-family="Helvetica,sans-Serif" font-size="10.00">afsk_demodulator.cpp</text>
</a>
</g>
</g>
<!-- Node4&#45;&gt;Node5 -->
<g id="edge4" class="edge">
<title>Node4&#45;&gt;Node5</title>
<path fill="none" stroke="midnightblue" d="M473.91,-111.33C515.32,-101.16 579.84,-85.33 619.5,-75.59"/>
<polygon fill="midnightblue" stroke="midnightblue" points="473.05,-107.93 464.17,-113.72 474.72,-114.73 473.05,-107.93"/>
</g>
<!-- Node6 -->
<g id="node6" class="node">
<title>Node6</title>
<g id="a_node6"><a xlink:href="afsk__modulator_8cpp.html" target="_top" xlink:title="The AFSK modulator class implementation.">
<polygon fill="none" stroke="black" points="124,-56.5 124,-75.5 237,-75.5 237,-56.5 124,-56.5"/>
<text text-anchor="middle" x="180.5" y="-63.5" font-family="Helvetica,sans-Serif" font-size="10.00">afsk_modulator.cpp</text>
</a>
</g>
</g>
<!-- Node4&#45;&gt;Node6 -->
<g id="edge5" class="edge">
<title>Node4&#45;&gt;Node6</title>
<path fill="none" stroke="midnightblue" d="M394.97,-112.6C347.56,-102.52 268.54,-85.72 220.8,-75.57"/>
<polygon fill="midnightblue" stroke="midnightblue" points="394.36,-116.04 404.87,-114.7 395.81,-109.2 394.36,-116.04"/>
</g>
<!-- Node7 -->
<g id="node7" class="node">
<title>Node7</title>
<g id="a_node7"><a xlink:href="afsk__receiver_8cpp.html" target="_top" xlink:title="Implementation of the AFSK receiver class.">
<polygon fill="none" stroke="black" points="255.5,-56.5 255.5,-75.5 357.5,-75.5 357.5,-56.5 255.5,-56.5"/>
<text text-anchor="middle" x="306.5" y="-63.5" font-family="Helvetica,sans-Serif" font-size="10.00">afsk_receiver.cpp</text>
</a>
</g>
</g>
<!-- Node4&#45;&gt;Node7 -->
<g id="edge6" class="edge">
<title>Node4&#45;&gt;Node7</title>
<path fill="none" stroke="midnightblue" d="M404.88,-108.5C380.88,-98.38 347.72,-84.39 326.69,-75.52"/>
<polygon fill="midnightblue" stroke="midnightblue" points="403.64,-111.78 414.22,-112.44 406.36,-105.33 403.64,-111.78"/>
</g>
<!-- Node8 -->
<g id="node8" class="node">
<title>Node8</title>
<g id="a_node8"><a xlink:href="aprs_8hpp.html" target="_top" xlink:title="APRS implementation.">
<polygon fill="none" stroke="black" points="376,-56.5 376,-75.5 435,-75.5 435,-56.5 376,-56.5"/>
<text text-anchor="middle" x="405.5" y="-63.5" font-family="Helvetica,sans-Serif" font-size="10.00">aprs.hpp</text>
</a>
</g>
</g>
<!-- Node4&#45;&gt;Node8 -->
<g id="edge7" class="edge">
<title>Node4&#45;&gt;Node8</title>
<path fill="none" stroke="midnightblue" d="M424.82,-102.98C419.9,-93.82 414.14,-83.09 410.2,-75.75"/>
<polygon fill="midnightblue" stroke="midnightblue" points="421.9,-104.93 429.71,-112.08 428.06,-101.62 421.9,-104.93"/>
</g>
<!-- Node15 -->
<g id="node15" class="node">
<title>Node15</title>
<g id="a_node15"><a xlink:href="pulse__test_8cpp.html" target="_top" xlink:title="PulseAudio output test. Does not use gtest.">
<polygon fill="none" stroke="black" points="696,-0.5 696,-19.5 783,-19.5 783,-0.5 696,-0.5"/>
<text text-anchor="middle" x="739.5" y="-7.5" font-family="Helvetica,sans-Serif" font-size="10.00">pulse_test.cpp</text>
</a>
</g>
</g>
<!-- Node4&#45;&gt;Node15 -->
<g id="edge16" class="edge">
<title>Node4&#45;&gt;Node15</title>
<path fill="none" stroke="midnightblue" d="M442.99,-102.83C451,-87.79 464.47,-67.15 482.5,-56 483.07,-55.65 622.51,-31.35 695.73,-18.61"/>
<polygon fill="midnightblue" stroke="midnightblue" points="439.67,-101.65 438.33,-112.16 445.93,-104.78 439.67,-101.65"/>
</g>
<!-- Node16 -->
<g id="node16" class="node">
<title>Node16</title>
<g id="a_node16"><a xlink:href="afsk__test_8cpp.html" target="_top" xlink:title=" ">
<polygon fill="none" stroke="black" points="491.5,-56.5 491.5,-75.5 573.5,-75.5 573.5,-56.5 491.5,-56.5"/>
<text text-anchor="middle" x="532.5" y="-63.5" font-family="Helvetica,sans-Serif" font-size="10.00">afsk_test.cpp</text>
</a>
</g>
</g>
<!-- Node4&#45;&gt;Node16 -->
<g id="edge15" class="edge">
<title>Node4&#45;&gt;Node16</title>
<path fill="none" stroke="midnightblue" d="M459.09,-107.45C477.18,-97.48 501.23,-84.23 516.79,-75.65"/>
<polygon fill="midnightblue" stroke="midnightblue" points="457.31,-104.43 450.25,-112.32 460.69,-110.56 457.31,-104.43"/>
</g>
<!-- Node9 -->
<g id="node9" class="node">
<title>Node9</title>
<g id="a_node9"><a xlink:href="aprs__demodulator_8cpp.html" target="_top" xlink:title="Implementation of the APRS demodulator class.">
<polygon fill="none" stroke="black" points="553,-0.5 553,-19.5 678,-19.5 678,-0.5 553,-0.5"/>
<text text-anchor="middle" x="615.5" y="-7.5" font-family="Helvetica,sans-Serif" font-size="10.00">aprs_demodulator.cpp</text>
</a>
</g>
</g>
<!-- Node8&#45;&gt;Node9 -->
<g id="edge8" class="edge">
<title>Node8&#45;&gt;Node9</title>
<path fill="none" stroke="midnightblue" d="M444.99,-54.85C484.6,-44.66 544.93,-29.15 582.2,-19.56"/>
<polygon fill="midnightblue" stroke="midnightblue" points="443.96,-51.5 435.14,-57.38 445.7,-58.28 443.96,-51.5"/>
</g>
<!-- Node10 -->
<g id="node10" class="node">
<title>Node10</title>
<g id="a_node10"><a xlink:href="aprs__encoders_8cpp.html" target="_top" xlink:title="Encoding functions for APRS packets.">
<polygon fill="none" stroke="black" points="0,-0.5 0,-19.5 107,-19.5 107,-0.5 0,-0.5"/>
<text text-anchor="middle" x="53.5" y="-7.5" font-family="Helvetica,sans-Serif" font-size="10.00">aprs_encoders.cpp</text>
</a>
</g>
</g>
<!-- Node8&#45;&gt;Node10 -->
<g id="edge9" class="edge">
<title>Node8&#45;&gt;Node10</title>
<path fill="none" stroke="midnightblue" d="M365.76,-56C254.03,-35.34 223.88,-35.64 115.5,-20 112.81,-19.61 110.05,-19.21 107.27,-18.81"/>
<polygon fill="midnightblue" stroke="midnightblue" points="365.27,-59.47 375.74,-57.86 366.55,-52.59 365.27,-59.47"/>
</g>
<!-- Node11 -->
<g id="node11" class="node">
<title>Node11</title>
<g id="a_node11"><a xlink:href="aprs__modulator_8cpp.html" target="_top" xlink:title="Implementation of the APRS modulator class.">
<polygon fill="none" stroke="black" points="125,-0.5 125,-19.5 238,-19.5 238,-0.5 125,-0.5"/>
<text text-anchor="middle" x="181.5" y="-7.5" font-family="Helvetica,sans-Serif" font-size="10.00">aprs_modulator.cpp</text>
</a>
</g>
</g>
<!-- Node8&#45;&gt;Node11 -->
<g id="edge10" class="edge">
<title>Node8&#45;&gt;Node11</title>
<path fill="none" stroke="midnightblue" d="M365.83,-55.44C323.61,-45.26 257.43,-29.3 216.91,-19.54"/>
<polygon fill="midnightblue" stroke="midnightblue" points="365.21,-58.89 375.75,-57.83 366.85,-52.08 365.21,-58.89"/>
</g>
<!-- Node12 -->
<g id="node12" class="node">
<title>Node12</title>
<g id="a_node12"><a xlink:href="aprs__receiver_8cpp.html" target="_top" xlink:title="Implementation of the APRS receiver class.">
<polygon fill="none" stroke="black" points="256.5,-0.5 256.5,-19.5 358.5,-19.5 358.5,-0.5 256.5,-0.5"/>
<text text-anchor="middle" x="307.5" y="-7.5" font-family="Helvetica,sans-Serif" font-size="10.00">aprs_receiver.cpp</text>
</a>
</g>
</g>
<!-- Node8&#45;&gt;Node12 -->
<g id="edge11" class="edge">
<title>Node8&#45;&gt;Node12</title>
<path fill="none" stroke="midnightblue" d="M380.91,-51.45C362.82,-41.48 338.77,-28.23 323.21,-19.65"/>
<polygon fill="midnightblue" stroke="midnightblue" points="379.31,-54.56 389.75,-56.32 382.69,-48.43 379.31,-54.56"/>
</g>
<!-- Node13 -->
<g id="node13" class="node">
<title>Node13</title>
<g id="a_node13"><a xlink:href="aprs_8cpp.html" target="_top" xlink:title="APRS implementation.">
<polygon fill="none" stroke="black" points="376.5,-0.5 376.5,-19.5 434.5,-19.5 434.5,-0.5 376.5,-0.5"/>
<text text-anchor="middle" x="405.5" y="-7.5" font-family="Helvetica,sans-Serif" font-size="10.00">aprs.cpp</text>
</a>
</g>
</g>
<!-- Node8&#45;&gt;Node13 -->
<g id="edge12" class="edge">
<title>Node8&#45;&gt;Node13</title>
<path fill="none" stroke="midnightblue" d="M405.5,-45.8C405.5,-36.91 405.5,-26.78 405.5,-19.75"/>
<polygon fill="midnightblue" stroke="midnightblue" points="402,-46.08 405.5,-56.08 409,-46.08 402,-46.08"/>
</g>
<!-- Node14 -->
<g id="node14" class="node">
<title>Node14</title>
<g id="a_node14"><a xlink:href="aprs__test_8cpp.html" target="_top" xlink:title=" ">
<polygon fill="none" stroke="black" points="452.5,-0.5 452.5,-19.5 534.5,-19.5 534.5,-0.5 452.5,-0.5"/>
<text text-anchor="middle" x="493.5" y="-7.5" font-family="Helvetica,sans-Serif" font-size="10.00">aprs_test.cpp</text>
</a>
</g>
</g>
<!-- Node8&#45;&gt;Node14 -->
<g id="edge13" class="edge">
<title>Node8&#45;&gt;Node14</title>
<path fill="none" stroke="midnightblue" d="M428.48,-50.9C444.61,-41 465.68,-28.07 479.4,-19.65"/>
<polygon fill="midnightblue" stroke="midnightblue" points="426.33,-48.11 419.64,-56.32 429.99,-54.08 426.33,-48.11"/>
</g>
<!-- Node8&#45;&gt;Node15 -->
<g id="edge14" class="edge">
<title>Node8&#45;&gt;Node15</title>
<path fill="none" stroke="midnightblue" d="M445.12,-56.8C446.6,-56.52 448.06,-56.26 449.5,-56 554.83,-37.27 581.9,-37.12 687.5,-20 690.21,-19.56 693,-19.1 695.82,-18.63"/>
<polygon fill="midnightblue" stroke="midnightblue" points="444.44,-53.36 435.28,-58.69 445.76,-60.24 444.44,-53.36"/>
</g>
<!-- Node17&#45;&gt;Node15 -->
<g id="edge22" class="edge">
<title>Node17&#45;&gt;Node15</title>
<path fill="none" stroke="midnightblue" d="M615.81,-224.78C658.84,-217.43 712.29,-205.15 726.5,-188 768.57,-137.23 749.39,-47.65 741.96,-19.63"/>
<polygon fill="midnightblue" stroke="midnightblue" points="614.98,-221.37 605.69,-226.45 616.13,-228.27 614.98,-221.37"/>
</g>
<!-- Node18 -->
<g id="node18" class="node">
<title>Node18</title>
<g id="a_node18"><a xlink:href="pulse__audio__reader_8cpp.html" target="_top" xlink:title="PulseAudio reader implementation.">
<polygon fill="none" stroke="black" points="344,-168.5 344,-187.5 475,-187.5 475,-168.5 344,-168.5"/>
<text text-anchor="middle" x="409.5" y="-175.5" font-family="Helvetica,sans-Serif" font-size="10.00">pulse_audio_reader.cpp</text>
</a>
</g>
</g>
<!-- Node17&#45;&gt;Node18 -->
<g id="edge18" class="edge">
<title>Node17&#45;&gt;Node18</title>
<path fill="none" stroke="midnightblue" d="M524.35,-220.91C496.53,-210.75 457.48,-196.51 432.84,-187.52"/>
<polygon fill="midnightblue" stroke="midnightblue" points="523.46,-224.3 534.05,-224.44 525.85,-217.73 523.46,-224.3"/>
</g>
<!-- Node19 -->
<g id="node19" class="node">
<title>Node19</title>
<g id="a_node19"><a xlink:href="pulse__audio__writer_8cpp.html" target="_top" xlink:title=" ">
<polygon fill="none" stroke="black" points="493.5,-168.5 493.5,-187.5 621.5,-187.5 621.5,-168.5 493.5,-168.5"/>
<text text-anchor="middle" x="557.5" y="-175.5" font-family="Helvetica,sans-Serif" font-size="10.00">pulse_audio_writer.cpp</text>
</a>
</g>
</g>
<!-- Node17&#45;&gt;Node19 -->
<g id="edge19" class="edge">
<title>Node17&#45;&gt;Node19</title>
<path fill="none" stroke="midnightblue" d="M557.5,-213.8C557.5,-204.91 557.5,-194.78 557.5,-187.75"/>
<polygon fill="midnightblue" stroke="midnightblue" points="554,-214.08 557.5,-224.08 561,-214.08 554,-214.08"/>
</g>
<!-- Node20 -->
<g id="node20" class="node">
<title>Node20</title>
<g id="a_node20"><a xlink:href="receiver_8hpp.html" target="_top" xlink:title="Base class for receivers. Demodulators that use pulse audio.">
<polygon fill="none" stroke="black" points="640,-168.5 640,-187.5 717,-187.5 717,-168.5 640,-168.5"/>
<text text-anchor="middle" x="678.5" y="-175.5" font-family="Helvetica,sans-Serif" font-size="10.00">receiver.hpp</text>
</a>
</g>
</g>
<!-- Node17&#45;&gt;Node20 -->
<g id="edge20" class="edge">
<title>Node17&#45;&gt;Node20</title>
<path fill="none" stroke="midnightblue" d="M585.81,-220.37C608.47,-210.26 639.63,-196.35 659.42,-187.52"/>
<polygon fill="midnightblue" stroke="midnightblue" points="584.38,-217.17 576.67,-224.44 587.23,-223.56 584.38,-217.17"/>
</g>
<!-- Node20&#45;&gt;Node4 -->
<g id="edge21" class="edge">
<title>Node20&#45;&gt;Node4</title>
<path fill="none" stroke="midnightblue" d="M630,-166.27C580.54,-155.32 505.39,-138.69 464.16,-129.56"/>
<polygon fill="midnightblue" stroke="midnightblue" points="629.32,-169.7 639.84,-168.44 630.83,-162.87 629.32,-169.7"/>
</g>
</g>
</svg>
