<?xml version="1.0" encoding="UTF-8" standalone="no"?>
<!DOCTYPE svg PUBLIC "-//W3C//DTD SVG 1.1//EN"
 "http://www.w3.org/Graphics/SVG/1.1/DTD/svg11.dtd">
<!-- Generated by graphviz version 2.43.0 (0)
 -->
<!-- Title: convolutional_code.cpp Pages: 1 -->
<svg width="1290pt" height="308pt"
 viewBox="0.00 0.00 1289.86 308.00" xmlns="http://www.w3.org/2000/svg" xmlns:xlink="http://www.w3.org/1999/xlink">
<g id="graph0" class="graph" transform="scale(1 1) rotate(0) translate(4 304)">
<title>convolutional_code.cpp</title>
<!-- Node1 -->
<g id="node1" class="node">
<title>Node1</title>
<g id="a_node1"><a xlink:title="Convolutional Code Implementation.">
<polygon fill="#bfbfbf" stroke="black" points="377,-280.5 377,-299.5 508,-299.5 508,-280.5 377,-280.5"/>
<text text-anchor="middle" x="442.5" y="-287.5" font-family="Helvetica,sans-Serif" font-size="10.00">convolutional_code.cpp</text>
</a>
</g>
</g>
<!-- Node2 -->
<g id="node2" class="node">
<title>Node2</title>
<g id="a_node2"><a xlink:title=" ">
<polygon fill="none" stroke="#bfbfbf" points="761,-112.5 761,-131.5 808,-131.5 808,-112.5 761,-112.5"/>
<text text-anchor="middle" x="784.5" y="-119.5" font-family="Helvetica,sans-Serif" font-size="10.00">cmath</text>
</a>
</g>
</g>
<!-- Node1&#45;&gt;Node2 -->
<g id="edge1" class="edge">
<title>Node1&#45;&gt;Node2</title>
<path fill="none" stroke="midnightblue" d="M460.41,-280.31C516.73,-252.97 690.55,-168.6 757.67,-136.02"/>
<polygon fill="midnightblue" stroke="midnightblue" points="759.3,-139.12 766.77,-131.61 756.25,-132.82 759.3,-139.12"/>
</g>
<!-- Node3 -->
<g id="node3" class="node">
<title>Node3</title>
<g id="a_node3"><a xlink:href="exception_8hpp.html" target="_top" xlink:title="SignalEasel exceptions.">
<polygon fill="none" stroke="black" points="0,-112.5 0,-131.5 145,-131.5 145,-112.5 0,-112.5"/>
<text text-anchor="middle" x="72.5" y="-119.5" font-family="Helvetica,sans-Serif" font-size="10.00">SignalEasel/exception.hpp</text>
</a>
</g>
</g>
<!-- Node1&#45;&gt;Node3 -->
<g id="edge2" class="edge">
<title>Node1&#45;&gt;Node3</title>
<path fill="none" stroke="midnightblue" d="M376.81,-284.4C304.85,-278.35 194.91,-265.84 159.5,-244 119.25,-219.18 92.13,-168.14 79.91,-140.96"/>
<polygon fill="midnightblue" stroke="midnightblue" points="83.01,-139.31 75.83,-131.51 76.58,-142.08 83.01,-139.31"/>
</g>
<!-- Node6 -->
<g id="node6" class="node">
<title>Node6</title>
<g id="a_node6"><a xlink:href="psk_8hpp.html" target="_top" xlink:title="Phase Shift Keying Implementation.">
<polygon fill="none" stroke="black" points="385.5,-168.5 385.5,-187.5 499.5,-187.5 499.5,-168.5 385.5,-168.5"/>
<text text-anchor="middle" x="442.5" y="-175.5" font-family="Helvetica,sans-Serif" font-size="10.00">SignalEasel/psk.hpp</text>
</a>
</g>
</g>
<!-- Node1&#45;&gt;Node6 -->
<g id="edge5" class="edge">
<title>Node1&#45;&gt;Node6</title>
<path fill="none" stroke="midnightblue" d="M442.5,-280.37C442.5,-262.62 442.5,-221.67 442.5,-197.6"/>
<polygon fill="midnightblue" stroke="midnightblue" points="446,-197.59 442.5,-187.59 439,-197.59 446,-197.59"/>
</g>
<!-- Node14 -->
<g id="node14" class="node">
<title>Node14</title>
<g id="a_node14"><a xlink:href="settings_8hpp.html" target="_top" xlink:title="Settings structures for SignalEasel.">
<polygon fill="none" stroke="black" points="133.5,-56.5 133.5,-75.5 269.5,-75.5 269.5,-56.5 133.5,-56.5"/>
<text text-anchor="middle" x="201.5" y="-63.5" font-family="Helvetica,sans-Serif" font-size="10.00">SignalEasel/settings.hpp</text>
</a>
</g>
</g>
<!-- Node1&#45;&gt;Node14 -->
<g id="edge16" class="edge">
<title>Node1&#45;&gt;Node14</title>
<path fill="none" stroke="midnightblue" d="M411.93,-280.48C356.32,-263.14 239.99,-217.89 192.5,-132 184.51,-117.54 188.46,-98.6 193.39,-84.9"/>
<polygon fill="midnightblue" stroke="midnightblue" points="196.64,-86.19 197.16,-75.61 190.16,-83.55 196.64,-86.19"/>
</g>
<!-- Node15 -->
<g id="node15" class="node">
<title>Node15</title>
<g id="a_node15"><a xlink:href="convolutional__code_8hpp.html" target="_top" xlink:title="Convolutional Code Implementation.">
<polygon fill="none" stroke="black" points="677.5,-224.5 677.5,-243.5 809.5,-243.5 809.5,-224.5 677.5,-224.5"/>
<text text-anchor="middle" x="743.5" y="-231.5" font-family="Helvetica,sans-Serif" font-size="10.00">convolutional_code.hpp</text>
</a>
</g>
</g>
<!-- Node1&#45;&gt;Node15 -->
<g id="edge17" class="edge">
<title>Node1&#45;&gt;Node15</title>
<path fill="none" stroke="midnightblue" d="M490.19,-280.44C543.36,-270.9 629.32,-255.48 686.13,-245.29"/>
<polygon fill="midnightblue" stroke="midnightblue" points="686.8,-248.73 696.03,-243.52 685.57,-241.84 686.8,-248.73"/>
</g>
<!-- Node4 -->
<g id="node4" class="node">
<title>Node4</title>
<g id="a_node4"><a xlink:title=" ">
<polygon fill="none" stroke="#bfbfbf" points="12,-56.5 12,-75.5 77,-75.5 77,-56.5 12,-56.5"/>
<text text-anchor="middle" x="44.5" y="-63.5" font-family="Helvetica,sans-Serif" font-size="10.00">exception</text>
</a>
</g>
</g>
<!-- Node3&#45;&gt;Node4 -->
<g id="edge3" class="edge">
<title>Node3&#45;&gt;Node4</title>
<path fill="none" stroke="midnightblue" d="M67.88,-112.08C64.04,-104.69 58.48,-93.95 53.74,-84.81"/>
<polygon fill="midnightblue" stroke="midnightblue" points="56.75,-83.02 49.04,-75.75 50.53,-86.24 56.75,-83.02"/>
</g>
<!-- Node5 -->
<g id="node5" class="node">
<title>Node5</title>
<g id="a_node5"><a xlink:title=" ">
<polygon fill="none" stroke="#bfbfbf" points="131.5,-0.5 131.5,-19.5 175.5,-19.5 175.5,-0.5 131.5,-0.5"/>
<text text-anchor="middle" x="153.5" y="-7.5" font-family="Helvetica,sans-Serif" font-size="10.00">string</text>
</a>
</g>
</g>
<!-- Node3&#45;&gt;Node5 -->
<g id="edge4" class="edge">
<title>Node3&#45;&gt;Node5</title>
<path fill="none" stroke="midnightblue" d="M78.86,-112.37C92.28,-94.14 123.73,-51.43 141.22,-27.68"/>
<polygon fill="midnightblue" stroke="midnightblue" points="144.06,-29.72 147.17,-19.59 138.43,-25.57 144.06,-29.72"/>
</g>
<!-- Node7 -->
<g id="node7" class="node">
<title>Node7</title>
<g id="a_node7"><a xlink:title=" ">
<polygon fill="none" stroke="#bfbfbf" points="700.5,-112.5 700.5,-131.5 742.5,-131.5 742.5,-112.5 700.5,-112.5"/>
<text text-anchor="middle" x="721.5" y="-119.5" font-family="Helvetica,sans-Serif" font-size="10.00">array</text>
</a>
</g>
</g>
<!-- Node6&#45;&gt;Node7 -->
<g id="edge6" class="edge">
<title>Node6&#45;&gt;Node7</title>
<path fill="none" stroke="midnightblue" d="M499.51,-168.78C548.17,-161.31 620.13,-149.16 690.45,-132.3"/>
<polygon fill="midnightblue" stroke="midnightblue" points="691.47,-135.65 700.36,-129.89 689.82,-128.85 691.47,-135.65"/>
</g>
<!-- Node8 -->
<g id="node8" class="node">
<title>Node8</title>
<g id="a_node8"><a xlink:title=" ">
<polygon fill="none" stroke="#bfbfbf" points="201.5,-112.5 201.5,-131.5 239.5,-131.5 239.5,-112.5 201.5,-112.5"/>
<text text-anchor="middle" x="220.5" y="-119.5" font-family="Helvetica,sans-Serif" font-size="10.00">map</text>
</a>
</g>
</g>
<!-- Node6&#45;&gt;Node8 -->
<g id="edge7" class="edge">
<title>Node6&#45;&gt;Node8</title>
<path fill="none" stroke="midnightblue" d="M401.38,-168.5C364.01,-160.54 307.21,-147.88 249.38,-132.08"/>
<polygon fill="midnightblue" stroke="midnightblue" points="250.29,-128.7 239.72,-129.41 248.42,-135.44 250.29,-128.7"/>
</g>
<!-- Node9 -->
<g id="node9" class="node">
<title>Node9</title>
<g id="a_node9"><a xlink:title=" ">
<polygon fill="none" stroke="#bfbfbf" points="258,-112.5 258,-131.5 351,-131.5 351,-112.5 258,-112.5"/>
<text text-anchor="middle" x="304.5" y="-119.5" font-family="Helvetica,sans-Serif" font-size="10.00">unordered_map</text>
</a>
</g>
</g>
<!-- Node6&#45;&gt;Node9 -->
<g id="edge8" class="edge">
<title>Node6&#45;&gt;Node9</title>
<path fill="none" stroke="midnightblue" d="M420.63,-168.44C397.72,-159.48 361.52,-145.31 335.63,-135.18"/>
<polygon fill="midnightblue" stroke="midnightblue" points="336.85,-131.9 326.26,-131.52 334.3,-138.42 336.85,-131.9"/>
</g>
<!-- Node10 -->
<g id="node10" class="node">
<title>Node10</title>
<g id="a_node10"><a xlink:href="bit__stream_8hpp.html" target="_top" xlink:title="The bit stream class.">
<polygon fill="none" stroke="black" points="534,-112.5 534,-131.5 683,-131.5 683,-112.5 534,-112.5"/>
<text text-anchor="middle" x="608.5" y="-119.5" font-family="Helvetica,sans-Serif" font-size="10.00">SignalEasel/bit_stream.hpp</text>
</a>
</g>
</g>
<!-- Node6&#45;&gt;Node10 -->
<g id="edge9" class="edge">
<title>Node6&#45;&gt;Node10</title>
<path fill="none" stroke="midnightblue" d="M468.8,-168.44C496.85,-159.32 541.44,-144.81 572.68,-134.65"/>
<polygon fill="midnightblue" stroke="midnightblue" points="573.89,-137.94 582.32,-131.52 571.73,-131.28 573.89,-137.94"/>
</g>
<!-- Node13 -->
<g id="node13" class="node">
<title>Node13</title>
<g id="a_node13"><a xlink:href="modulator_8hpp.html" target="_top" xlink:title="Modulator base class.">
<polygon fill="none" stroke="black" points="369.5,-112.5 369.5,-131.5 515.5,-131.5 515.5,-112.5 369.5,-112.5"/>
<text text-anchor="middle" x="442.5" y="-119.5" font-family="Helvetica,sans-Serif" font-size="10.00">SignalEasel/modulator.hpp</text>
</a>
</g>
</g>
<!-- Node6&#45;&gt;Node13 -->
<g id="edge12" class="edge">
<title>Node6&#45;&gt;Node13</title>
<path fill="none" stroke="midnightblue" d="M442.5,-168.08C442.5,-161.01 442.5,-150.86 442.5,-141.99"/>
<polygon fill="midnightblue" stroke="midnightblue" points="446,-141.75 442.5,-131.75 439,-141.75 446,-141.75"/>
</g>
<!-- Node11 -->
<g id="node11" class="node">
<title>Node11</title>
<g id="a_node11"><a xlink:title=" ">
<polygon fill="none" stroke="#bfbfbf" points="899.5,-56.5 899.5,-75.5 949.5,-75.5 949.5,-56.5 899.5,-56.5"/>
<text text-anchor="middle" x="924.5" y="-63.5" font-family="Helvetica,sans-Serif" font-size="10.00">cstdint</text>
</a>
</g>
</g>
<!-- Node10&#45;&gt;Node11 -->
<g id="edge10" class="edge">
<title>Node10&#45;&gt;Node11</title>
<path fill="none" stroke="midnightblue" d="M658.57,-112.44C722.82,-101.46 832.69,-82.69 888.98,-73.07"/>
<polygon fill="midnightblue" stroke="midnightblue" points="889.9,-76.46 899.17,-71.33 888.72,-69.56 889.9,-76.46"/>
</g>
<!-- Node12 -->
<g id="node12" class="node">
<title>Node12</title>
<g id="a_node12"><a xlink:title=" ">
<polygon fill="none" stroke="#bfbfbf" points="585,-56.5 585,-75.5 632,-75.5 632,-56.5 585,-56.5"/>
<text text-anchor="middle" x="608.5" y="-63.5" font-family="Helvetica,sans-Serif" font-size="10.00">vector</text>
</a>
</g>
</g>
<!-- Node10&#45;&gt;Node12 -->
<g id="edge11" class="edge">
<title>Node10&#45;&gt;Node12</title>
<path fill="none" stroke="midnightblue" d="M608.5,-112.08C608.5,-105.01 608.5,-94.86 608.5,-85.99"/>
<polygon fill="midnightblue" stroke="midnightblue" points="612,-85.75 608.5,-75.75 605,-85.75 612,-85.75"/>
</g>
<!-- Node13&#45;&gt;Node12 -->
<g id="edge13" class="edge">
<title>Node13&#45;&gt;Node12</title>
<path fill="none" stroke="midnightblue" d="M468.8,-112.44C497.59,-103.08 543.82,-88.04 575.14,-77.85"/>
<polygon fill="midnightblue" stroke="midnightblue" points="576.31,-81.15 584.74,-74.73 574.15,-74.49 576.31,-81.15"/>
</g>
<!-- Node13&#45;&gt;Node14 -->
<g id="edge14" class="edge">
<title>Node13&#45;&gt;Node14</title>
<path fill="none" stroke="midnightblue" d="M404.31,-112.44C362.36,-103.04 294.91,-87.93 249.43,-77.74"/>
<polygon fill="midnightblue" stroke="midnightblue" points="250.03,-74.29 239.51,-75.52 248.5,-81.12 250.03,-74.29"/>
</g>
<!-- Node14&#45;&gt;Node5 -->
<g id="edge15" class="edge">
<title>Node14&#45;&gt;Node5</title>
<path fill="none" stroke="midnightblue" d="M193.57,-56.08C186.65,-48.3 176.43,-36.8 168.05,-27.37"/>
<polygon fill="midnightblue" stroke="midnightblue" points="170.54,-24.9 161.28,-19.75 165.31,-29.55 170.54,-24.9"/>
</g>
<!-- Node15&#45;&gt;Node8 -->
<g id="edge19" class="edge">
<title>Node15&#45;&gt;Node8</title>
<path fill="none" stroke="midnightblue" d="M677.18,-230.3C602.88,-226.03 479.37,-215.19 376.5,-188 328.64,-175.35 276.09,-151.14 245.84,-136.1"/>
<polygon fill="midnightblue" stroke="midnightblue" points="247.33,-132.93 236.83,-131.57 244.19,-139.19 247.33,-132.93"/>
</g>
<!-- Node15&#45;&gt;Node11 -->
<g id="edge18" class="edge">
<title>Node15&#45;&gt;Node11</title>
<path fill="none" stroke="midnightblue" d="M809.51,-230.62C938.98,-224.41 1218.73,-202.93 1277.5,-132 1283.17,-125.16 1283.37,-118.67 1277.5,-112 1256.7,-88.38 1045.33,-73.85 959.97,-68.9"/>
<polygon fill="midnightblue" stroke="midnightblue" points="959.92,-65.4 949.73,-68.32 959.52,-72.38 959.92,-65.4"/>
</g>
<!-- Node16 -->
<g id="node16" class="node">
<title>Node16</title>
<g id="a_node16"><a xlink:href="psk__wave__shaper_8hpp.html" target="_top" xlink:title=" ">
<polygon fill="none" stroke="black" points="748.5,-168.5 748.5,-187.5 872.5,-187.5 872.5,-168.5 748.5,-168.5"/>
<text text-anchor="middle" x="810.5" y="-175.5" font-family="Helvetica,sans-Serif" font-size="10.00">psk_wave_shaper.hpp</text>
</a>
</g>
</g>
<!-- Node15&#45;&gt;Node16 -->
<g id="edge20" class="edge">
<title>Node15&#45;&gt;Node16</title>
<path fill="none" stroke="midnightblue" d="M754.26,-224.32C764.27,-216.26 779.39,-204.08 791.43,-194.37"/>
<polygon fill="midnightblue" stroke="midnightblue" points="793.95,-196.83 799.54,-187.83 789.56,-191.38 793.95,-196.83"/>
</g>
<!-- Node16&#45;&gt;Node2 -->
<g id="edge22" class="edge">
<title>Node16&#45;&gt;Node2</title>
<path fill="none" stroke="midnightblue" d="M806.21,-168.08C802.65,-160.69 797.48,-149.95 793.08,-140.81"/>
<polygon fill="midnightblue" stroke="midnightblue" points="796.21,-139.24 788.71,-131.75 789.9,-142.28 796.21,-139.24"/>
</g>
<!-- Node16&#45;&gt;Node3 -->
<g id="edge29" class="edge">
<title>Node16&#45;&gt;Node3</title>
<path fill="none" stroke="midnightblue" d="M748.22,-172.51C636.75,-164.46 395.8,-147.03 192.5,-132 180.54,-131.12 167.9,-130.18 155.5,-129.25"/>
<polygon fill="midnightblue" stroke="midnightblue" points="155.39,-125.73 145.16,-128.47 154.87,-132.71 155.39,-125.73"/>
</g>
<!-- Node16&#45;&gt;Node7 -->
<g id="edge21" class="edge">
<title>Node16&#45;&gt;Node7</title>
<path fill="none" stroke="midnightblue" d="M796.2,-168.32C782.32,-159.9 761.01,-146.97 744.7,-137.07"/>
<polygon fill="midnightblue" stroke="midnightblue" points="746.13,-133.85 735.76,-131.65 742.5,-139.83 746.13,-133.85"/>
</g>
<!-- Node16&#45;&gt;Node11 -->
<g id="edge23" class="edge">
<title>Node16&#45;&gt;Node11</title>
<path fill="none" stroke="midnightblue" d="M819.45,-168.37C838.59,-149.89 883.78,-106.29 908.18,-82.74"/>
<polygon fill="midnightblue" stroke="midnightblue" points="910.83,-85.05 915.6,-75.59 905.97,-80.02 910.83,-85.05"/>
</g>
<!-- Node16&#45;&gt;Node12 -->
<g id="edge25" class="edge">
<title>Node16&#45;&gt;Node12</title>
<path fill="none" stroke="midnightblue" d="M814.96,-168.32C821.26,-154.72 830.62,-128.25 817.5,-112 795.86,-85.2 695.71,-73.61 642.29,-69.26"/>
<polygon fill="midnightblue" stroke="midnightblue" points="642.51,-65.76 632.27,-68.48 641.97,-72.74 642.51,-65.76"/>
</g>
<!-- Node16&#45;&gt;Node13 -->
<g id="edge30" class="edge">
<title>Node16&#45;&gt;Node13</title>
<path fill="none" stroke="midnightblue" d="M752.19,-168.44C686.51,-158.81 579.91,-143.16 510.5,-132.98"/>
<polygon fill="midnightblue" stroke="midnightblue" points="510.94,-129.51 500.54,-131.52 509.92,-136.43 510.94,-129.51"/>
</g>
<!-- Node17 -->
<g id="node17" class="node">
<title>Node17</title>
<g id="a_node17"><a xlink:title=" ">
<polygon fill="none" stroke="#bfbfbf" points="1064.5,-112.5 1064.5,-131.5 1124.5,-131.5 1124.5,-112.5 1064.5,-112.5"/>
<text text-anchor="middle" x="1094.5" y="-119.5" font-family="Helvetica,sans-Serif" font-size="10.00">iostream</text>
</a>
</g>
</g>
<!-- Node16&#45;&gt;Node17 -->
<g id="edge24" class="edge">
<title>Node16&#45;&gt;Node17</title>
<path fill="none" stroke="midnightblue" d="M860.84,-168.44C908.32,-160.21 981.73,-147.09 1054.5,-132.14"/>
<polygon fill="midnightblue" stroke="midnightblue" points="1055.21,-135.56 1064.3,-130.11 1053.79,-128.71 1055.21,-135.56"/>
</g>
<!-- Node18 -->
<g id="node18" class="node">
<title>Node18</title>
<g id="a_node18"><a xlink:title=" ">
<polygon fill="none" stroke="#bfbfbf" points="1143,-112.5 1143,-131.5 1268,-131.5 1268,-112.5 1143,-112.5"/>
<text text-anchor="middle" x="1205.5" y="-119.5" font-family="Helvetica,sans-Serif" font-size="10.00">BoosterSeat/math.hpp</text>
</a>
</g>
</g>
<!-- Node16&#45;&gt;Node18 -->
<g id="edge26" class="edge">
<title>Node16&#45;&gt;Node18</title>
<path fill="none" stroke="midnightblue" d="M872.65,-168.5C943.2,-158.86 1058.15,-143.14 1132.8,-132.94"/>
<polygon fill="midnightblue" stroke="midnightblue" points="1133.62,-136.36 1143.06,-131.54 1132.68,-129.42 1133.62,-136.36"/>
</g>
<!-- Node19 -->
<g id="node19" class="node">
<title>Node19</title>
<g id="a_node19"><a xlink:href="constants_8hpp.html" target="_top" xlink:title="Common constants used throughout the library.">
<polygon fill="none" stroke="black" points="902.5,-112.5 902.5,-131.5 1046.5,-131.5 1046.5,-112.5 902.5,-112.5"/>
<text text-anchor="middle" x="974.5" y="-119.5" font-family="Helvetica,sans-Serif" font-size="10.00">SignalEasel/constants.hpp</text>
</a>
</g>
</g>
<!-- Node16&#45;&gt;Node19 -->
<g id="edge27" class="edge">
<title>Node16&#45;&gt;Node19</title>
<path fill="none" stroke="midnightblue" d="M836.49,-168.44C864.2,-159.32 908.25,-144.81 939.12,-134.65"/>
<polygon fill="midnightblue" stroke="midnightblue" points="940.23,-137.97 948.64,-131.52 938.04,-131.32 940.23,-137.97"/>
</g>
<!-- Node19&#45;&gt;Node11 -->
<g id="edge28" class="edge">
<title>Node19&#45;&gt;Node11</title>
<path fill="none" stroke="midnightblue" d="M966.24,-112.08C959.04,-104.3 948.39,-92.8 939.65,-83.37"/>
<polygon fill="midnightblue" stroke="midnightblue" points="941.97,-80.71 932.6,-75.75 936.83,-85.47 941.97,-80.71"/>
</g>
</g>
</svg>
