<?xml version="1.0" encoding="UTF-8" standalone="no"?>
<!DOCTYPE svg PUBLIC "-//W3C//DTD SVG 1.1//EN"
 "http://www.w3.org/Graphics/SVG/1.1/DTD/svg11.dtd">
<!-- Generated by graphviz version 2.43.0 (0)
 -->
<!-- Title: convolutional_code.hpp Pages: 1 -->
<svg width="887pt" height="252pt"
 viewBox="0.00 0.00 886.92 252.00" xmlns="http://www.w3.org/2000/svg" xmlns:xlink="http://www.w3.org/1999/xlink">
<g id="graph0" class="graph" transform="scale(1 1) rotate(0) translate(4 248)">
<title>convolutional_code.hpp</title>
<!-- Node1 -->
<g id="node1" class="node">
<title>Node1</title>
<g id="a_node1"><a xlink:title="Convolutional Code Implementation.">
<polygon fill="#bfbfbf" stroke="black" points="334.42,-224.5 334.42,-243.5 466.42,-243.5 466.42,-224.5 334.42,-224.5"/>
<text text-anchor="middle" x="400.42" y="-231.5" font-family="Helvetica,sans-Serif" font-size="10.00">convolutional_code.hpp</text>
</a>
</g>
</g>
<!-- Node2 -->
<g id="node2" class="node">
<title>Node2</title>
<g id="a_node2"><a xlink:title=" ">
<polygon fill="none" stroke="#bfbfbf" points="19.42,-56.5 19.42,-75.5 69.42,-75.5 69.42,-56.5 19.42,-56.5"/>
<text text-anchor="middle" x="44.42" y="-63.5" font-family="Helvetica,sans-Serif" font-size="10.00">cstdint</text>
</a>
</g>
</g>
<!-- Node1&#45;&gt;Node2 -->
<g id="edge1" class="edge">
<title>Node1&#45;&gt;Node2</title>
<path fill="none" stroke="midnightblue" d="M334.4,-225.86C232.54,-213.33 44.57,-183.69 4.42,-132 -8.11,-115.87 8.94,-95.6 24.5,-82.02"/>
<polygon fill="midnightblue" stroke="midnightblue" points="26.83,-84.64 32.34,-75.59 22.39,-79.23 26.83,-84.64"/>
</g>
<!-- Node3 -->
<g id="node3" class="node">
<title>Node3</title>
<g id="a_node3"><a xlink:title=" ">
<polygon fill="none" stroke="#bfbfbf" points="480.42,-168.5 480.42,-187.5 518.42,-187.5 518.42,-168.5 480.42,-168.5"/>
<text text-anchor="middle" x="499.42" y="-175.5" font-family="Helvetica,sans-Serif" font-size="10.00">map</text>
</a>
</g>
</g>
<!-- Node1&#45;&gt;Node3 -->
<g id="edge2" class="edge">
<title>Node1&#45;&gt;Node3</title>
<path fill="none" stroke="midnightblue" d="M416.32,-224.32C432.05,-215.74 456.36,-202.49 474.62,-192.52"/>
<polygon fill="midnightblue" stroke="midnightblue" points="476.45,-195.52 483.55,-187.65 473.09,-189.37 476.45,-195.52"/>
</g>
<!-- Node4 -->
<g id="node4" class="node">
<title>Node4</title>
<g id="a_node4"><a xlink:href="psk__wave__shaper_8hpp.html" target="_top" xlink:title=" ">
<polygon fill="none" stroke="black" points="338.42,-168.5 338.42,-187.5 462.42,-187.5 462.42,-168.5 338.42,-168.5"/>
<text text-anchor="middle" x="400.42" y="-175.5" font-family="Helvetica,sans-Serif" font-size="10.00">psk_wave_shaper.hpp</text>
</a>
</g>
</g>
<!-- Node1&#45;&gt;Node4 -->
<g id="edge3" class="edge">
<title>Node1&#45;&gt;Node4</title>
<path fill="none" stroke="midnightblue" d="M400.42,-224.08C400.42,-217.01 400.42,-206.86 400.42,-197.99"/>
<polygon fill="midnightblue" stroke="midnightblue" points="403.92,-197.75 400.42,-187.75 396.92,-197.75 403.92,-197.75"/>
</g>
<!-- Node4&#45;&gt;Node2 -->
<g id="edge6" class="edge">
<title>Node4&#45;&gt;Node2</title>
<path fill="none" stroke="midnightblue" d="M338.31,-174.23C234.42,-168.95 34.61,-155.81 13.42,-132 0.77,-117.79 14.1,-97.52 27,-83.4"/>
<polygon fill="midnightblue" stroke="midnightblue" points="29.86,-85.49 34.35,-75.89 24.85,-80.59 29.86,-85.49"/>
</g>
<!-- Node5 -->
<g id="node5" class="node">
<title>Node5</title>
<g id="a_node5"><a xlink:title=" ">
<polygon fill="none" stroke="#bfbfbf" points="348.42,-112.5 348.42,-131.5 390.42,-131.5 390.42,-112.5 348.42,-112.5"/>
<text text-anchor="middle" x="369.42" y="-119.5" font-family="Helvetica,sans-Serif" font-size="10.00">array</text>
</a>
</g>
</g>
<!-- Node4&#45;&gt;Node5 -->
<g id="edge4" class="edge">
<title>Node4&#45;&gt;Node5</title>
<path fill="none" stroke="midnightblue" d="M395.3,-168.08C391.01,-160.61 384.76,-149.72 379.47,-140.52"/>
<polygon fill="midnightblue" stroke="midnightblue" points="382.45,-138.68 374.44,-131.75 376.38,-142.17 382.45,-138.68"/>
</g>
<!-- Node6 -->
<g id="node6" class="node">
<title>Node6</title>
<g id="a_node6"><a xlink:title=" ">
<polygon fill="none" stroke="#bfbfbf" points="408.92,-112.5 408.92,-131.5 455.92,-131.5 455.92,-112.5 408.92,-112.5"/>
<text text-anchor="middle" x="432.42" y="-119.5" font-family="Helvetica,sans-Serif" font-size="10.00">cmath</text>
</a>
</g>
</g>
<!-- Node4&#45;&gt;Node6 -->
<g id="edge5" class="edge">
<title>Node4&#45;&gt;Node6</title>
<path fill="none" stroke="midnightblue" d="M405.7,-168.08C410.13,-160.61 416.58,-149.72 422.03,-140.52"/>
<polygon fill="midnightblue" stroke="midnightblue" points="425.14,-142.14 427.23,-131.75 419.12,-138.57 425.14,-142.14"/>
</g>
<!-- Node7 -->
<g id="node7" class="node">
<title>Node7</title>
<g id="a_node7"><a xlink:title=" ">
<polygon fill="none" stroke="#bfbfbf" points="474.42,-112.5 474.42,-131.5 534.42,-131.5 534.42,-112.5 474.42,-112.5"/>
<text text-anchor="middle" x="504.42" y="-119.5" font-family="Helvetica,sans-Serif" font-size="10.00">iostream</text>
</a>
</g>
</g>
<!-- Node4&#45;&gt;Node7 -->
<g id="edge7" class="edge">
<title>Node4&#45;&gt;Node7</title>
<path fill="none" stroke="midnightblue" d="M417.13,-168.32C433.73,-159.7 459.42,-146.36 478.64,-136.39"/>
<polygon fill="midnightblue" stroke="midnightblue" points="480.49,-139.37 487.75,-131.65 477.26,-133.16 480.49,-139.37"/>
</g>
<!-- Node8 -->
<g id="node8" class="node">
<title>Node8</title>
<g id="a_node8"><a xlink:title=" ">
<polygon fill="none" stroke="#bfbfbf" points="389.92,-56.5 389.92,-75.5 436.92,-75.5 436.92,-56.5 389.92,-56.5"/>
<text text-anchor="middle" x="413.42" y="-63.5" font-family="Helvetica,sans-Serif" font-size="10.00">vector</text>
</a>
</g>
</g>
<!-- Node4&#45;&gt;Node8 -->
<g id="edge8" class="edge">
<title>Node4&#45;&gt;Node8</title>
<path fill="none" stroke="midnightblue" d="M446.99,-168.5C484.13,-160.65 531.79,-147.84 543.42,-132 570.48,-95.12 494.02,-77.87 447.08,-70.95"/>
<polygon fill="midnightblue" stroke="midnightblue" points="447.39,-67.46 437,-69.56 446.42,-74.39 447.39,-67.46"/>
</g>
<!-- Node9 -->
<g id="node9" class="node">
<title>Node9</title>
<g id="a_node9"><a xlink:title=" ">
<polygon fill="none" stroke="#bfbfbf" points="753.92,-112.5 753.92,-131.5 878.92,-131.5 878.92,-112.5 753.92,-112.5"/>
<text text-anchor="middle" x="816.42" y="-119.5" font-family="Helvetica,sans-Serif" font-size="10.00">BoosterSeat/math.hpp</text>
</a>
</g>
</g>
<!-- Node4&#45;&gt;Node9 -->
<g id="edge9" class="edge">
<title>Node4&#45;&gt;Node9</title>
<path fill="none" stroke="midnightblue" d="M462.7,-168.92C537.9,-159.15 664.19,-142.76 743.76,-132.43"/>
<polygon fill="midnightblue" stroke="midnightblue" points="744.24,-135.9 753.71,-131.14 743.34,-128.96 744.24,-135.9"/>
</g>
<!-- Node10 -->
<g id="node10" class="node">
<title>Node10</title>
<g id="a_node10"><a xlink:href="constants_8hpp.html" target="_top" xlink:title="Common constants used throughout the library.">
<polygon fill="none" stroke="black" points="22.42,-112.5 22.42,-131.5 166.42,-131.5 166.42,-112.5 22.42,-112.5"/>
<text text-anchor="middle" x="94.42" y="-119.5" font-family="Helvetica,sans-Serif" font-size="10.00">SignalEasel/constants.hpp</text>
</a>
</g>
</g>
<!-- Node4&#45;&gt;Node10 -->
<g id="edge10" class="edge">
<title>Node4&#45;&gt;Node10</title>
<path fill="none" stroke="midnightblue" d="M351.93,-168.44C297.88,-158.9 210.49,-143.48 152.74,-133.29"/>
<polygon fill="midnightblue" stroke="midnightblue" points="153.13,-129.81 142.68,-131.52 151.92,-136.7 153.13,-129.81"/>
</g>
<!-- Node11 -->
<g id="node11" class="node">
<title>Node11</title>
<g id="a_node11"><a xlink:href="exception_8hpp.html" target="_top" xlink:title="SignalEasel exceptions.">
<polygon fill="none" stroke="black" points="590.92,-112.5 590.92,-131.5 735.92,-131.5 735.92,-112.5 590.92,-112.5"/>
<text text-anchor="middle" x="663.42" y="-119.5" font-family="Helvetica,sans-Serif" font-size="10.00">SignalEasel/exception.hpp</text>
</a>
</g>
</g>
<!-- Node4&#45;&gt;Node11 -->
<g id="edge12" class="edge">
<title>Node4&#45;&gt;Node11</title>
<path fill="none" stroke="midnightblue" d="M442.09,-168.44C488.16,-158.98 562.41,-143.74 612.05,-133.55"/>
<polygon fill="midnightblue" stroke="midnightblue" points="612.85,-136.96 621.94,-131.52 611.44,-130.1 612.85,-136.96"/>
</g>
<!-- Node14 -->
<g id="node14" class="node">
<title>Node14</title>
<g id="a_node14"><a xlink:href="modulator_8hpp.html" target="_top" xlink:title="Modulator base class.">
<polygon fill="none" stroke="black" points="184.42,-112.5 184.42,-131.5 330.42,-131.5 330.42,-112.5 184.42,-112.5"/>
<text text-anchor="middle" x="257.42" y="-119.5" font-family="Helvetica,sans-Serif" font-size="10.00">SignalEasel/modulator.hpp</text>
</a>
</g>
</g>
<!-- Node4&#45;&gt;Node14 -->
<g id="edge15" class="edge">
<title>Node4&#45;&gt;Node14</title>
<path fill="none" stroke="midnightblue" d="M377.76,-168.44C354.01,-159.48 316.51,-145.31 289.68,-135.18"/>
<polygon fill="midnightblue" stroke="midnightblue" points="290.56,-131.77 279.97,-131.52 288.09,-138.32 290.56,-131.77"/>
</g>
<!-- Node10&#45;&gt;Node2 -->
<g id="edge11" class="edge">
<title>Node10&#45;&gt;Node2</title>
<path fill="none" stroke="midnightblue" d="M86.16,-112.08C78.95,-104.3 68.31,-92.8 59.57,-83.37"/>
<polygon fill="midnightblue" stroke="midnightblue" points="61.88,-80.71 52.52,-75.75 56.74,-85.47 61.88,-80.71"/>
</g>
<!-- Node12 -->
<g id="node12" class="node">
<title>Node12</title>
<g id="a_node12"><a xlink:title=" ">
<polygon fill="none" stroke="#bfbfbf" points="630.92,-56.5 630.92,-75.5 695.92,-75.5 695.92,-56.5 630.92,-56.5"/>
<text text-anchor="middle" x="663.42" y="-63.5" font-family="Helvetica,sans-Serif" font-size="10.00">exception</text>
</a>
</g>
</g>
<!-- Node11&#45;&gt;Node12 -->
<g id="edge13" class="edge">
<title>Node11&#45;&gt;Node12</title>
<path fill="none" stroke="midnightblue" d="M663.42,-112.08C663.42,-105.01 663.42,-94.86 663.42,-85.99"/>
<polygon fill="midnightblue" stroke="midnightblue" points="666.92,-85.75 663.42,-75.75 659.92,-85.75 666.92,-85.75"/>
</g>
<!-- Node13 -->
<g id="node13" class="node">
<title>Node13</title>
<g id="a_node13"><a xlink:title=" ">
<polygon fill="none" stroke="#bfbfbf" points="407.42,-0.5 407.42,-19.5 451.42,-19.5 451.42,-0.5 407.42,-0.5"/>
<text text-anchor="middle" x="429.42" y="-7.5" font-family="Helvetica,sans-Serif" font-size="10.00">string</text>
</a>
</g>
</g>
<!-- Node11&#45;&gt;Node13 -->
<g id="edge14" class="edge">
<title>Node11&#45;&gt;Node13</title>
<path fill="none" stroke="midnightblue" d="M645.05,-112.37C604.13,-93.13 505.25,-46.65 456.92,-23.93"/>
<polygon fill="midnightblue" stroke="midnightblue" points="458.23,-20.68 447.69,-19.59 455.25,-27.01 458.23,-20.68"/>
</g>
<!-- Node14&#45;&gt;Node2 -->
<g id="edge16" class="edge">
<title>Node14&#45;&gt;Node2</title>
<path fill="none" stroke="midnightblue" d="M223.67,-112.44C184.28,-102.46 119.46,-86.03 79.51,-75.9"/>
<polygon fill="midnightblue" stroke="midnightblue" points="80.22,-72.47 69.67,-73.4 78.5,-79.25 80.22,-72.47"/>
</g>
<!-- Node14&#45;&gt;Node8 -->
<g id="edge17" class="edge">
<title>Node14&#45;&gt;Node8</title>
<path fill="none" stroke="midnightblue" d="M282.13,-112.44C308.57,-103.29 350.65,-88.73 380.02,-78.56"/>
<polygon fill="midnightblue" stroke="midnightblue" points="381.53,-81.74 389.83,-75.16 379.24,-75.13 381.53,-81.74"/>
</g>
<!-- Node15 -->
<g id="node15" class="node">
<title>Node15</title>
<g id="a_node15"><a xlink:href="settings_8hpp.html" target="_top" xlink:title="Settings structures for SignalEasel.">
<polygon fill="none" stroke="black" points="212.42,-56.5 212.42,-75.5 348.42,-75.5 348.42,-56.5 212.42,-56.5"/>
<text text-anchor="middle" x="280.42" y="-63.5" font-family="Helvetica,sans-Serif" font-size="10.00">SignalEasel/settings.hpp</text>
</a>
</g>
</g>
<!-- Node14&#45;&gt;Node15 -->
<g id="edge18" class="edge">
<title>Node14&#45;&gt;Node15</title>
<path fill="none" stroke="midnightblue" d="M261.21,-112.08C264.33,-104.77 268.84,-94.18 272.71,-85.1"/>
<polygon fill="midnightblue" stroke="midnightblue" points="275.99,-86.32 276.69,-75.75 269.55,-83.58 275.99,-86.32"/>
</g>
<!-- Node15&#45;&gt;Node13 -->
<g id="edge19" class="edge">
<title>Node15&#45;&gt;Node13</title>
<path fill="none" stroke="midnightblue" d="M304.03,-56.44C329.31,-47.28 369.58,-32.68 397.64,-22.52"/>
<polygon fill="midnightblue" stroke="midnightblue" points="399.17,-25.69 407.37,-18.99 396.78,-19.11 399.17,-25.69"/>
</g>
</g>
</svg>
