<?xml version="1.0" encoding="UTF-8" standalone="no"?>
<!DOCTYPE svg PUBLIC "-//W3C//DTD SVG 1.1//EN"
 "http://www.w3.org/Graphics/SVG/1.1/DTD/svg11.dtd">
<!-- Generated by graphviz version 2.43.0 (0)
 -->
<!-- Title: convolutional_code.hpp Pages: 1 -->
<svg width="918pt" height="252pt"
 viewBox="0.00 0.00 917.50 252.00" xmlns="http://www.w3.org/2000/svg" xmlns:xlink="http://www.w3.org/1999/xlink">
<g id="graph0" class="graph" transform="scale(1 1) rotate(0) translate(4 248)">
<title>convolutional_code.hpp</title>
<!-- Node1 -->
<g id="node1" class="node">
<title>Node1</title>
<g id="a_node1"><a xlink:title="Convolutional Code Implementation.">
<polygon fill="#bfbfbf" stroke="black" points="269,-224.5 269,-243.5 401,-243.5 401,-224.5 269,-224.5"/>
<text text-anchor="middle" x="335" y="-231.5" font-family="Helvetica,sans-Serif" font-size="10.00">convolutional_code.hpp</text>
</a>
</g>
</g>
<!-- Node2 -->
<g id="node2" class="node">
<title>Node2</title>
<g id="a_node2"><a xlink:title=" ">
<polygon fill="none" stroke="#bfbfbf" points="0,-56.5 0,-75.5 50,-75.5 50,-56.5 0,-56.5"/>
<text text-anchor="middle" x="25" y="-63.5" font-family="Helvetica,sans-Serif" font-size="10.00">cstdint</text>
</a>
</g>
</g>
<!-- Node1&#45;&gt;Node2 -->
<g id="edge1" class="edge">
<title>Node1&#45;&gt;Node2</title>
<path fill="none" stroke="midnightblue" d="M268.74,-231.83C196.69,-226.62 84.33,-206.17 28,-132 18.08,-118.94 18.45,-99.79 20.62,-85.65"/>
<polygon fill="midnightblue" stroke="midnightblue" points="24.1,-86.09 22.6,-75.6 17.23,-84.74 24.1,-86.09"/>
</g>
<!-- Node3 -->
<g id="node3" class="node">
<title>Node3</title>
<g id="a_node3"><a xlink:title=" ">
<polygon fill="none" stroke="#bfbfbf" points="415,-168.5 415,-187.5 453,-187.5 453,-168.5 415,-168.5"/>
<text text-anchor="middle" x="434" y="-175.5" font-family="Helvetica,sans-Serif" font-size="10.00">map</text>
</a>
</g>
</g>
<!-- Node1&#45;&gt;Node3 -->
<g id="edge2" class="edge">
<title>Node1&#45;&gt;Node3</title>
<path fill="none" stroke="midnightblue" d="M350.91,-224.32C366.64,-215.74 390.94,-202.49 409.21,-192.52"/>
<polygon fill="midnightblue" stroke="midnightblue" points="411.03,-195.52 418.13,-187.65 407.68,-189.37 411.03,-195.52"/>
</g>
<!-- Node4 -->
<g id="node4" class="node">
<title>Node4</title>
<g id="a_node4"><a xlink:href="psk__wave__shaper_8hpp.html" target="_top" xlink:title=" ">
<polygon fill="none" stroke="black" points="273,-168.5 273,-187.5 397,-187.5 397,-168.5 273,-168.5"/>
<text text-anchor="middle" x="335" y="-175.5" font-family="Helvetica,sans-Serif" font-size="10.00">psk_wave_shaper.hpp</text>
</a>
</g>
</g>
<!-- Node1&#45;&gt;Node4 -->
<g id="edge3" class="edge">
<title>Node1&#45;&gt;Node4</title>
<path fill="none" stroke="midnightblue" d="M335,-224.08C335,-217.01 335,-206.86 335,-197.99"/>
<polygon fill="midnightblue" stroke="midnightblue" points="338.5,-197.75 335,-187.75 331.5,-197.75 338.5,-197.75"/>
</g>
<!-- Node4&#45;&gt;Node2 -->
<g id="edge6" class="edge">
<title>Node4&#45;&gt;Node2</title>
<path fill="none" stroke="midnightblue" d="M272.9,-175.04C197.75,-171.4 77.15,-161.07 44,-132 30.9,-120.51 26.6,-100.54 25.3,-85.75"/>
<polygon fill="midnightblue" stroke="midnightblue" points="28.79,-85.5 24.8,-75.69 21.8,-85.85 28.79,-85.5"/>
</g>
<!-- Node5 -->
<g id="node5" class="node">
<title>Node5</title>
<g id="a_node5"><a xlink:title=" ">
<polygon fill="none" stroke="#bfbfbf" points="215,-112.5 215,-131.5 257,-131.5 257,-112.5 215,-112.5"/>
<text text-anchor="middle" x="236" y="-119.5" font-family="Helvetica,sans-Serif" font-size="10.00">array</text>
</a>
</g>
</g>
<!-- Node4&#45;&gt;Node5 -->
<g id="edge4" class="edge">
<title>Node4&#45;&gt;Node5</title>
<path fill="none" stroke="midnightblue" d="M319.09,-168.32C303.36,-159.74 279.06,-146.49 260.79,-136.52"/>
<polygon fill="midnightblue" stroke="midnightblue" points="262.32,-133.37 251.87,-131.65 258.97,-139.52 262.32,-133.37"/>
</g>
<!-- Node6 -->
<g id="node6" class="node">
<title>Node6</title>
<g id="a_node6"><a xlink:title=" ">
<polygon fill="none" stroke="#bfbfbf" points="275.5,-112.5 275.5,-131.5 322.5,-131.5 322.5,-112.5 275.5,-112.5"/>
<text text-anchor="middle" x="299" y="-119.5" font-family="Helvetica,sans-Serif" font-size="10.00">cmath</text>
</a>
</g>
</g>
<!-- Node4&#45;&gt;Node6 -->
<g id="edge5" class="edge">
<title>Node4&#45;&gt;Node6</title>
<path fill="none" stroke="midnightblue" d="M329.06,-168.08C324.02,-160.53 316.66,-149.49 310.49,-140.23"/>
<polygon fill="midnightblue" stroke="midnightblue" points="313.29,-138.13 304.83,-131.75 307.47,-142.01 313.29,-138.13"/>
</g>
<!-- Node7 -->
<g id="node7" class="node">
<title>Node7</title>
<g id="a_node7"><a xlink:title=" ">
<polygon fill="none" stroke="#bfbfbf" points="341,-112.5 341,-131.5 401,-131.5 401,-112.5 341,-112.5"/>
<text text-anchor="middle" x="371" y="-119.5" font-family="Helvetica,sans-Serif" font-size="10.00">iostream</text>
</a>
</g>
</g>
<!-- Node4&#45;&gt;Node7 -->
<g id="edge7" class="edge">
<title>Node4&#45;&gt;Node7</title>
<path fill="none" stroke="midnightblue" d="M340.94,-168.08C345.98,-160.53 353.34,-149.49 359.51,-140.23"/>
<polygon fill="midnightblue" stroke="midnightblue" points="362.53,-142.01 365.17,-131.75 356.71,-138.13 362.53,-142.01"/>
</g>
<!-- Node8 -->
<g id="node8" class="node">
<title>Node8</title>
<g id="a_node8"><a xlink:title=" ">
<polygon fill="none" stroke="#bfbfbf" points="405.5,-56.5 405.5,-75.5 452.5,-75.5 452.5,-56.5 405.5,-56.5"/>
<text text-anchor="middle" x="429" y="-63.5" font-family="Helvetica,sans-Serif" font-size="10.00">vector</text>
</a>
</g>
</g>
<!-- Node4&#45;&gt;Node8 -->
<g id="edge8" class="edge">
<title>Node4&#45;&gt;Node8</title>
<path fill="none" stroke="midnightblue" d="M358.18,-168.48C374.88,-161.22 396.73,-149.19 410,-132 420.32,-118.63 425.04,-99.81 427.19,-85.86"/>
<polygon fill="midnightblue" stroke="midnightblue" points="430.67,-86.26 428.43,-75.91 423.72,-85.4 430.67,-86.26"/>
</g>
<!-- Node9 -->
<g id="node9" class="node">
<title>Node9</title>
<g id="a_node9"><a xlink:title=" ">
<polygon fill="none" stroke="#bfbfbf" points="784.5,-112.5 784.5,-131.5 909.5,-131.5 909.5,-112.5 784.5,-112.5"/>
<text text-anchor="middle" x="847" y="-119.5" font-family="Helvetica,sans-Serif" font-size="10.00">BoosterSeat/math.hpp</text>
</a>
</g>
</g>
<!-- Node4&#45;&gt;Node9 -->
<g id="edge9" class="edge">
<title>Node4&#45;&gt;Node9</title>
<path fill="none" stroke="midnightblue" d="M397.33,-169C400.26,-168.65 403.16,-168.32 406,-168 566.99,-149.97 610.13,-150.37 774.33,-132.16"/>
<polygon fill="midnightblue" stroke="midnightblue" points="774.74,-135.64 784.29,-131.05 773.97,-128.68 774.74,-135.64"/>
</g>
<!-- Node10 -->
<g id="node10" class="node">
<title>Node10</title>
<g id="a_node10"><a xlink:href="constants_8hpp.html" target="_top" xlink:title="Common constants used throughout the library.">
<polygon fill="none" stroke="black" points="53,-112.5 53,-131.5 197,-131.5 197,-112.5 53,-112.5"/>
<text text-anchor="middle" x="125" y="-119.5" font-family="Helvetica,sans-Serif" font-size="10.00">SignalEasel/constants.hpp</text>
</a>
</g>
</g>
<!-- Node4&#45;&gt;Node10 -->
<g id="edge10" class="edge">
<title>Node4&#45;&gt;Node10</title>
<path fill="none" stroke="midnightblue" d="M301.72,-168.44C265.55,-159.14 207.62,-144.25 168.02,-134.06"/>
<polygon fill="midnightblue" stroke="midnightblue" points="168.68,-130.62 158.12,-131.52 166.93,-137.4 168.68,-130.62"/>
</g>
<!-- Node11 -->
<g id="node11" class="node">
<title>Node11</title>
<g id="a_node11"><a xlink:href="exception_8hpp.html" target="_top" xlink:title="SignalEasel exceptions.">
<polygon fill="none" stroke="black" points="621.5,-112.5 621.5,-131.5 766.5,-131.5 766.5,-112.5 621.5,-112.5"/>
<text text-anchor="middle" x="694" y="-119.5" font-family="Helvetica,sans-Serif" font-size="10.00">SignalEasel/exception.hpp</text>
</a>
</g>
</g>
<!-- Node4&#45;&gt;Node11 -->
<g id="edge12" class="edge">
<title>Node4&#45;&gt;Node11</title>
<path fill="none" stroke="midnightblue" d="M391.88,-168.44C455.82,-158.83 559.52,-143.23 627.25,-133.04"/>
<polygon fill="midnightblue" stroke="midnightblue" points="628.01,-136.47 637.38,-131.52 626.97,-129.54 628.01,-136.47"/>
</g>
<!-- Node14 -->
<g id="node14" class="node">
<title>Node14</title>
<g id="a_node14"><a xlink:href="modulator_8hpp.html" target="_top" xlink:title="Modulator base class.">
<polygon fill="none" stroke="black" points="457,-112.5 457,-131.5 603,-131.5 603,-112.5 457,-112.5"/>
<text text-anchor="middle" x="530" y="-119.5" font-family="Helvetica,sans-Serif" font-size="10.00">SignalEasel/modulator.hpp</text>
</a>
</g>
</g>
<!-- Node4&#45;&gt;Node14 -->
<g id="edge15" class="edge">
<title>Node4&#45;&gt;Node14</title>
<path fill="none" stroke="midnightblue" d="M365.9,-168.44C399.27,-159.2 452.59,-144.44 489.35,-134.26"/>
<polygon fill="midnightblue" stroke="midnightblue" points="490.54,-137.56 499.25,-131.52 488.67,-130.81 490.54,-137.56"/>
</g>
<!-- Node10&#45;&gt;Node2 -->
<g id="edge11" class="edge">
<title>Node10&#45;&gt;Node2</title>
<path fill="none" stroke="midnightblue" d="M108.93,-112.32C93.04,-103.74 68.49,-90.49 50.04,-80.52"/>
<polygon fill="midnightblue" stroke="midnightblue" points="51.49,-77.33 41.03,-75.65 48.16,-83.49 51.49,-77.33"/>
</g>
<!-- Node12 -->
<g id="node12" class="node">
<title>Node12</title>
<g id="a_node12"><a xlink:title=" ">
<polygon fill="none" stroke="#bfbfbf" points="663.5,-56.5 663.5,-75.5 728.5,-75.5 728.5,-56.5 663.5,-56.5"/>
<text text-anchor="middle" x="696" y="-63.5" font-family="Helvetica,sans-Serif" font-size="10.00">exception</text>
</a>
</g>
</g>
<!-- Node11&#45;&gt;Node12 -->
<g id="edge13" class="edge">
<title>Node11&#45;&gt;Node12</title>
<path fill="none" stroke="midnightblue" d="M694.33,-112.08C694.59,-105.01 694.97,-94.86 695.3,-85.99"/>
<polygon fill="midnightblue" stroke="midnightblue" points="698.8,-85.87 695.68,-75.75 691.81,-85.61 698.8,-85.87"/>
</g>
<!-- Node13 -->
<g id="node13" class="node">
<title>Node13</title>
<g id="a_node13"><a xlink:title=" ">
<polygon fill="none" stroke="#bfbfbf" points="565,-0.5 565,-19.5 609,-19.5 609,-0.5 565,-0.5"/>
<text text-anchor="middle" x="587" y="-7.5" font-family="Helvetica,sans-Serif" font-size="10.00">string</text>
</a>
</g>
</g>
<!-- Node11&#45;&gt;Node13 -->
<g id="edge14" class="edge">
<title>Node11&#45;&gt;Node13</title>
<path fill="none" stroke="midnightblue" d="M685.6,-112.37C667.71,-93.97 625.59,-50.67 602.61,-27.05"/>
<polygon fill="midnightblue" stroke="midnightblue" points="604.84,-24.32 595.36,-19.59 599.82,-29.2 604.84,-24.32"/>
</g>
<!-- Node14&#45;&gt;Node8 -->
<g id="edge16" class="edge">
<title>Node14&#45;&gt;Node8</title>
<path fill="none" stroke="midnightblue" d="M513.77,-112.32C497.65,-103.7 472.7,-90.36 454.04,-80.39"/>
<polygon fill="midnightblue" stroke="midnightblue" points="455.66,-77.28 445.19,-75.65 452.36,-83.46 455.66,-77.28"/>
</g>
<!-- Node15 -->
<g id="node15" class="node">
<title>Node15</title>
<g id="a_node15"><a xlink:href="settings_8hpp.html" target="_top" xlink:title="Settings structures for SignalEasel.">
<polygon fill="none" stroke="black" points="471,-56.5 471,-75.5 607,-75.5 607,-56.5 471,-56.5"/>
<text text-anchor="middle" x="539" y="-63.5" font-family="Helvetica,sans-Serif" font-size="10.00">SignalEasel/settings.hpp</text>
</a>
</g>
</g>
<!-- Node14&#45;&gt;Node15 -->
<g id="edge17" class="edge">
<title>Node14&#45;&gt;Node15</title>
<path fill="none" stroke="midnightblue" d="M531.49,-112.08C532.68,-104.93 534.39,-94.64 535.88,-85.69"/>
<polygon fill="midnightblue" stroke="midnightblue" points="539.35,-86.19 537.54,-75.75 532.45,-85.04 539.35,-86.19"/>
</g>
<!-- Node15&#45;&gt;Node13 -->
<g id="edge18" class="edge">
<title>Node15&#45;&gt;Node13</title>
<path fill="none" stroke="midnightblue" d="M546.93,-56.08C553.85,-48.3 564.07,-36.8 572.45,-27.37"/>
<polygon fill="midnightblue" stroke="midnightblue" points="575.19,-29.55 579.22,-19.75 569.96,-24.9 575.19,-29.55"/>
</g>
</g>
</svg>
