<?xml version="1.0" encoding="UTF-8" standalone="no"?>
<!DOCTYPE svg PUBLIC "-//W3C//DTD SVG 1.1//EN"
 "http://www.w3.org/Graphics/SVG/1.1/DTD/svg11.dtd">
<!-- Generated by graphviz version 2.43.0 (0)
 -->
<!-- Title: convolutional_code.hpp Pages: 1 -->
<svg width="266pt" height="84pt"
 viewBox="0.00 0.00 266.00 84.00" xmlns="http://www.w3.org/2000/svg" xmlns:xlink="http://www.w3.org/1999/xlink">
<g id="graph0" class="graph" transform="scale(1 1) rotate(0) translate(4 80)">
<title>convolutional_code.hpp</title>
<!-- Node1 -->
<g id="node1" class="node">
<title>Node1</title>
<g id="a_node1"><a xlink:title="Convolutional Code Implementation.">
<polygon fill="#bfbfbf" stroke="black" points="68.5,-56.5 68.5,-75.5 200.5,-75.5 200.5,-56.5 68.5,-56.5"/>
<text text-anchor="middle" x="134.5" y="-63.5" font-family="Helvetica,sans-Serif" font-size="10.00">convolutional_code.hpp</text>
</a>
</g>
</g>
<!-- Node2 -->
<g id="node2" class="node">
<title>Node2</title>
<g id="a_node2"><a xlink:href="convolutional__code_8cpp.html" target="_top" xlink:title="Convolutional Code Implementation.">
<polygon fill="none" stroke="black" points="0,-0.5 0,-19.5 131,-19.5 131,-0.5 0,-0.5"/>
<text text-anchor="middle" x="65.5" y="-7.5" font-family="Helvetica,sans-Serif" font-size="10.00">convolutional_code.cpp</text>
</a>
</g>
</g>
<!-- Node1&#45;&gt;Node2 -->
<g id="edge1" class="edge">
<title>Node1&#45;&gt;Node2</title>
<path fill="none" stroke="midnightblue" d="M115.46,-50.1C103.04,-40.38 87.26,-28.03 76.79,-19.83"/>
<polygon fill="midnightblue" stroke="midnightblue" points="113.38,-52.92 123.41,-56.32 117.7,-47.4 113.38,-52.92"/>
</g>
<!-- Node3 -->
<g id="node3" class="node">
<title>Node3</title>
<g id="a_node3"><a xlink:href="psk__modulator_8cpp.html" target="_top" xlink:title="Phase Shift Keying modulator.">
<polygon fill="none" stroke="black" points="149,-0.5 149,-19.5 258,-19.5 258,-0.5 149,-0.5"/>
<text text-anchor="middle" x="203.5" y="-7.5" font-family="Helvetica,sans-Serif" font-size="10.00">psk_modulator.cpp</text>
</a>
</g>
</g>
<!-- Node1&#45;&gt;Node3 -->
<g id="edge2" class="edge">
<title>Node1&#45;&gt;Node3</title>
<path fill="none" stroke="midnightblue" d="M153.54,-50.1C165.96,-40.38 181.74,-28.03 192.21,-19.83"/>
<polygon fill="midnightblue" stroke="midnightblue" points="151.3,-47.4 145.59,-56.32 155.62,-52.92 151.3,-47.4"/>
</g>
</g>
</svg>
