<?xml version="1.0" encoding="UTF-8" standalone="no"?>
<!DOCTYPE svg PUBLIC "-//W3C//DTD SVG 1.1//EN"
 "http://www.w3.org/Graphics/SVG/1.1/DTD/svg11.dtd">
<!-- Generated by graphviz version 2.43.0 (0)
 -->
<!-- Title: convolutional_code.cpp Pages: 1 -->
<svg width="1314pt" height="308pt"
 viewBox="0.00 0.00 1313.50 308.00" xmlns="http://www.w3.org/2000/svg" xmlns:xlink="http://www.w3.org/1999/xlink">
<g id="graph0" class="graph" transform="scale(1 1) rotate(0) translate(4 304)">
<title>convolutional_code.cpp</title>
<!-- Node1 -->
<g id="node1" class="node">
<title>Node1</title>
<g id="a_node1"><a xlink:title="Convolutional Code Implementation.">
<polygon fill="#bfbfbf" stroke="black" points="173,-280.5 173,-299.5 304,-299.5 304,-280.5 173,-280.5"/>
<text text-anchor="middle" x="238.5" y="-287.5" font-family="Helvetica,sans-Serif" font-size="10.00">convolutional_code.cpp</text>
</a>
</g>
</g>
<!-- Node2 -->
<g id="node2" class="node">
<title>Node2</title>
<g id="a_node2"><a xlink:title=" ">
<polygon fill="none" stroke="#bfbfbf" points="0,-112.5 0,-131.5 47,-131.5 47,-112.5 0,-112.5"/>
<text text-anchor="middle" x="23.5" y="-119.5" font-family="Helvetica,sans-Serif" font-size="10.00">cmath</text>
</a>
</g>
</g>
<!-- Node1&#45;&gt;Node2 -->
<g id="edge1" class="edge">
<title>Node1&#45;&gt;Node2</title>
<path fill="none" stroke="midnightblue" d="M227.24,-280.31C192.49,-253.47 86.57,-171.69 42.77,-137.88"/>
<polygon fill="midnightblue" stroke="midnightblue" points="44.7,-134.95 34.65,-131.61 40.42,-140.49 44.7,-134.95"/>
</g>
<!-- Node3 -->
<g id="node3" class="node">
<title>Node3</title>
<g id="a_node3"><a xlink:href="exception_8hpp.html" target="_top" xlink:title="SignalEasel exceptions.">
<polygon fill="none" stroke="black" points="65,-112.5 65,-131.5 210,-131.5 210,-112.5 65,-112.5"/>
<text text-anchor="middle" x="137.5" y="-119.5" font-family="Helvetica,sans-Serif" font-size="10.00">SignalEasel/exception.hpp</text>
</a>
</g>
</g>
<!-- Node1&#45;&gt;Node3 -->
<g id="edge2" class="edge">
<title>Node1&#45;&gt;Node3</title>
<path fill="none" stroke="midnightblue" d="M233.07,-280.08C216.97,-253.61 169.27,-175.21 147.97,-140.21"/>
<polygon fill="midnightblue" stroke="midnightblue" points="150.9,-138.29 142.71,-131.57 144.92,-141.93 150.9,-138.29"/>
</g>
<!-- Node6 -->
<g id="node6" class="node">
<title>Node6</title>
<g id="a_node6"><a xlink:href="psk_8hpp.html" target="_top" xlink:title="Phase Shift Keying Implementation.">
<polygon fill="none" stroke="black" points="873.5,-168.5 873.5,-187.5 987.5,-187.5 987.5,-168.5 873.5,-168.5"/>
<text text-anchor="middle" x="930.5" y="-175.5" font-family="Helvetica,sans-Serif" font-size="10.00">SignalEasel/psk.hpp</text>
</a>
</g>
</g>
<!-- Node1&#45;&gt;Node6 -->
<g id="edge5" class="edge">
<title>Node1&#45;&gt;Node6</title>
<path fill="none" stroke="midnightblue" d="M292.22,-280.46C418.03,-260.46 731.31,-210.66 866.6,-189.16"/>
<polygon fill="midnightblue" stroke="midnightblue" points="867.48,-192.56 876.81,-187.53 866.38,-185.65 867.48,-192.56"/>
</g>
<!-- Node14 -->
<g id="node14" class="node">
<title>Node14</title>
<g id="a_node14"><a xlink:href="settings_8hpp.html" target="_top" xlink:title="Settings structures for SignalEasel.">
<polygon fill="none" stroke="black" points="184.5,-56.5 184.5,-75.5 320.5,-75.5 320.5,-56.5 184.5,-56.5"/>
<text text-anchor="middle" x="252.5" y="-63.5" font-family="Helvetica,sans-Serif" font-size="10.00">SignalEasel/settings.hpp</text>
</a>
</g>
</g>
<!-- Node1&#45;&gt;Node14 -->
<g id="edge17" class="edge">
<title>Node1&#45;&gt;Node14</title>
<path fill="none" stroke="midnightblue" d="M239.05,-280.3C241.11,-247.63 248.41,-131.87 251.3,-85.96"/>
<polygon fill="midnightblue" stroke="midnightblue" points="254.8,-86.08 251.94,-75.88 247.82,-85.64 254.8,-86.08"/>
</g>
<!-- Node15 -->
<g id="node15" class="node">
<title>Node15</title>
<g id="a_node15"><a xlink:href="convolutional__code_8hpp.html" target="_top" xlink:title="Convolutional Code Implementation.">
<polygon fill="none" stroke="black" points="926.5,-224.5 926.5,-243.5 1058.5,-243.5 1058.5,-224.5 926.5,-224.5"/>
<text text-anchor="middle" x="992.5" y="-231.5" font-family="Helvetica,sans-Serif" font-size="10.00">convolutional_code.hpp</text>
</a>
</g>
</g>
<!-- Node1&#45;&gt;Node15 -->
<g id="edge18" class="edge">
<title>Node1&#45;&gt;Node15</title>
<path fill="none" stroke="midnightblue" d="M304.09,-284.3C443.26,-274.34 767.48,-251.12 915.88,-240.49"/>
<polygon fill="midnightblue" stroke="midnightblue" points="916.53,-243.95 926.25,-239.74 916.03,-236.97 916.53,-243.95"/>
</g>
<!-- Node4 -->
<g id="node4" class="node">
<title>Node4</title>
<g id="a_node4"><a xlink:title=" ">
<polygon fill="none" stroke="#bfbfbf" points="63,-56.5 63,-75.5 128,-75.5 128,-56.5 63,-56.5"/>
<text text-anchor="middle" x="95.5" y="-63.5" font-family="Helvetica,sans-Serif" font-size="10.00">exception</text>
</a>
</g>
</g>
<!-- Node3&#45;&gt;Node4 -->
<g id="edge3" class="edge">
<title>Node3&#45;&gt;Node4</title>
<path fill="none" stroke="midnightblue" d="M130.56,-112.08C124.57,-104.38 115.75,-93.03 108.45,-83.65"/>
<polygon fill="midnightblue" stroke="midnightblue" points="111.21,-81.5 102.31,-75.75 105.68,-85.79 111.21,-81.5"/>
</g>
<!-- Node5 -->
<g id="node5" class="node">
<title>Node5</title>
<g id="a_node5"><a xlink:title=" ">
<polygon fill="none" stroke="#bfbfbf" points="182.5,-0.5 182.5,-19.5 226.5,-19.5 226.5,-0.5 182.5,-0.5"/>
<text text-anchor="middle" x="204.5" y="-7.5" font-family="Helvetica,sans-Serif" font-size="10.00">string</text>
</a>
</g>
</g>
<!-- Node3&#45;&gt;Node5 -->
<g id="edge4" class="edge">
<title>Node3&#45;&gt;Node5</title>
<path fill="none" stroke="midnightblue" d="M142.54,-112.1C149.71,-99.51 163.32,-75.83 175.5,-56 181.22,-46.68 187.82,-36.42 193.27,-28.05"/>
<polygon fill="midnightblue" stroke="midnightblue" points="196.28,-29.84 198.83,-19.56 190.42,-26 196.28,-29.84"/>
</g>
<!-- Node7 -->
<g id="node7" class="node">
<title>Node7</title>
<g id="a_node7"><a xlink:title=" ">
<polygon fill="none" stroke="#bfbfbf" points="1057.5,-112.5 1057.5,-131.5 1099.5,-131.5 1099.5,-112.5 1057.5,-112.5"/>
<text text-anchor="middle" x="1078.5" y="-119.5" font-family="Helvetica,sans-Serif" font-size="10.00">array</text>
</a>
</g>
</g>
<!-- Node6&#45;&gt;Node7 -->
<g id="edge6" class="edge">
<title>Node6&#45;&gt;Node7</title>
<path fill="none" stroke="midnightblue" d="M953.95,-168.44C979.21,-159.23 1019.53,-144.52 1047.42,-134.34"/>
<polygon fill="midnightblue" stroke="midnightblue" points="1048.89,-137.53 1057.08,-130.82 1046.49,-130.95 1048.89,-137.53"/>
</g>
<!-- Node8 -->
<g id="node8" class="node">
<title>Node8</title>
<g id="a_node8"><a xlink:title=" ">
<polygon fill="none" stroke="#bfbfbf" points="1267.5,-112.5 1267.5,-131.5 1305.5,-131.5 1305.5,-112.5 1267.5,-112.5"/>
<text text-anchor="middle" x="1286.5" y="-119.5" font-family="Helvetica,sans-Serif" font-size="10.00">map</text>
</a>
</g>
</g>
<!-- Node6&#45;&gt;Node8 -->
<g id="edge7" class="edge">
<title>Node6&#45;&gt;Node8</title>
<path fill="none" stroke="midnightblue" d="M986.91,-168.44C1063.69,-156.8 1198.29,-136.38 1257.34,-127.42"/>
<polygon fill="midnightblue" stroke="midnightblue" points="1258.09,-130.85 1267.45,-125.89 1257.04,-123.93 1258.09,-130.85"/>
</g>
<!-- Node9 -->
<g id="node9" class="node">
<title>Node9</title>
<g id="a_node9"><a xlink:title=" ">
<polygon fill="none" stroke="#bfbfbf" points="1118,-112.5 1118,-131.5 1211,-131.5 1211,-112.5 1118,-112.5"/>
<text text-anchor="middle" x="1164.5" y="-119.5" font-family="Helvetica,sans-Serif" font-size="10.00">unordered_map</text>
</a>
</g>
</g>
<!-- Node6&#45;&gt;Node9 -->
<g id="edge8" class="edge">
<title>Node6&#45;&gt;Node9</title>
<path fill="none" stroke="midnightblue" d="M967.58,-168.44C1008.23,-159.06 1073.53,-143.99 1117.68,-133.8"/>
<polygon fill="midnightblue" stroke="midnightblue" points="1118.64,-137.18 1127.6,-131.52 1117.06,-130.35 1118.64,-137.18"/>
</g>
<!-- Node10 -->
<g id="node10" class="node">
<title>Node10</title>
<g id="a_node10"><a xlink:href="bit__stream_8hpp.html" target="_top" xlink:title="The bit stream class.">
<polygon fill="none" stroke="black" points="469,-112.5 469,-131.5 618,-131.5 618,-112.5 469,-112.5"/>
<text text-anchor="middle" x="543.5" y="-119.5" font-family="Helvetica,sans-Serif" font-size="10.00">SignalEasel/bit_stream.hpp</text>
</a>
</g>
</g>
<!-- Node6&#45;&gt;Node10 -->
<g id="edge9" class="edge">
<title>Node6&#45;&gt;Node10</title>
<path fill="none" stroke="midnightblue" d="M873.4,-169.03C804.72,-159.45 689.4,-143.36 614.91,-132.96"/>
<polygon fill="midnightblue" stroke="midnightblue" points="615.06,-129.45 604.67,-131.54 614.09,-136.38 615.06,-129.45"/>
</g>
<!-- Node13 -->
<g id="node13" class="node">
<title>Node13</title>
<g id="a_node13"><a xlink:href="modulator_8hpp.html" target="_top" xlink:title="Modulator base class.">
<polygon fill="none" stroke="black" points="304.5,-112.5 304.5,-131.5 450.5,-131.5 450.5,-112.5 304.5,-112.5"/>
<text text-anchor="middle" x="377.5" y="-119.5" font-family="Helvetica,sans-Serif" font-size="10.00">SignalEasel/modulator.hpp</text>
</a>
</g>
</g>
<!-- Node6&#45;&gt;Node13 -->
<g id="edge12" class="edge">
<title>Node6&#45;&gt;Node13</title>
<path fill="none" stroke="midnightblue" d="M873.32,-171.76C786.72,-163.77 616.82,-147.89 461.05,-132.04"/>
<polygon fill="midnightblue" stroke="midnightblue" points="461.12,-128.53 450.82,-131 460.41,-135.5 461.12,-128.53"/>
</g>
<!-- Node11 -->
<g id="node11" class="node">
<title>Node11</title>
<g id="a_node11"><a xlink:title=" ">
<polygon fill="none" stroke="#bfbfbf" points="620.5,-56.5 620.5,-75.5 670.5,-75.5 670.5,-56.5 620.5,-56.5"/>
<text text-anchor="middle" x="645.5" y="-63.5" font-family="Helvetica,sans-Serif" font-size="10.00">cstdint</text>
</a>
</g>
</g>
<!-- Node10&#45;&gt;Node11 -->
<g id="edge10" class="edge">
<title>Node10&#45;&gt;Node11</title>
<path fill="none" stroke="midnightblue" d="M559.89,-112.32C576.17,-103.7 601.37,-90.36 620.22,-80.39"/>
<polygon fill="midnightblue" stroke="midnightblue" points="621.95,-83.43 629.15,-75.65 618.68,-77.24 621.95,-83.43"/>
</g>
<!-- Node12 -->
<g id="node12" class="node">
<title>Node12</title>
<g id="a_node12"><a xlink:title=" ">
<polygon fill="none" stroke="#bfbfbf" points="354,-56.5 354,-75.5 401,-75.5 401,-56.5 354,-56.5"/>
<text text-anchor="middle" x="377.5" y="-63.5" font-family="Helvetica,sans-Serif" font-size="10.00">vector</text>
</a>
</g>
</g>
<!-- Node10&#45;&gt;Node12 -->
<g id="edge11" class="edge">
<title>Node10&#45;&gt;Node12</title>
<path fill="none" stroke="midnightblue" d="M517.2,-112.44C488.41,-103.08 442.18,-88.04 410.86,-77.85"/>
<polygon fill="midnightblue" stroke="midnightblue" points="411.85,-74.49 401.26,-74.73 409.69,-81.15 411.85,-74.49"/>
</g>
<!-- Node13&#45;&gt;Node11 -->
<g id="edge13" class="edge">
<title>Node13&#45;&gt;Node11</title>
<path fill="none" stroke="midnightblue" d="M419.97,-112.44C472.6,-101.84 561.34,-83.96 610.34,-74.08"/>
<polygon fill="midnightblue" stroke="midnightblue" points="611.06,-77.51 620.17,-72.1 609.67,-70.65 611.06,-77.51"/>
</g>
<!-- Node13&#45;&gt;Node12 -->
<g id="edge14" class="edge">
<title>Node13&#45;&gt;Node12</title>
<path fill="none" stroke="midnightblue" d="M377.5,-112.08C377.5,-105.01 377.5,-94.86 377.5,-85.99"/>
<polygon fill="midnightblue" stroke="midnightblue" points="381,-85.75 377.5,-75.75 374,-85.75 381,-85.75"/>
</g>
<!-- Node13&#45;&gt;Node14 -->
<g id="edge15" class="edge">
<title>Node13&#45;&gt;Node14</title>
<path fill="none" stroke="midnightblue" d="M357.69,-112.44C337.21,-103.6 305.02,-89.69 281.64,-79.59"/>
<polygon fill="midnightblue" stroke="midnightblue" points="282.78,-76.27 272.21,-75.52 280.01,-82.7 282.78,-76.27"/>
</g>
<!-- Node14&#45;&gt;Node5 -->
<g id="edge16" class="edge">
<title>Node14&#45;&gt;Node5</title>
<path fill="none" stroke="midnightblue" d="M244.57,-56.08C237.65,-48.3 227.43,-36.8 219.05,-27.37"/>
<polygon fill="midnightblue" stroke="midnightblue" points="221.54,-24.9 212.28,-19.75 216.31,-29.55 221.54,-24.9"/>
</g>
<!-- Node15&#45;&gt;Node8 -->
<g id="edge20" class="edge">
<title>Node15&#45;&gt;Node8</title>
<path fill="none" stroke="midnightblue" d="M1058.56,-228.34C1125.48,-222.45 1223.3,-210.29 1253.5,-188 1268.74,-176.75 1277.44,-156.44 1282.04,-141.5"/>
<polygon fill="midnightblue" stroke="midnightblue" points="1285.43,-142.36 1284.7,-131.79 1278.68,-140.51 1285.43,-142.36"/>
</g>
<!-- Node15&#45;&gt;Node11 -->
<g id="edge19" class="edge">
<title>Node15&#45;&gt;Node11</title>
<path fill="none" stroke="midnightblue" d="M1047.35,-224.47C1131.48,-209.24 1277.02,-173.11 1220.5,-112 1183.79,-72.31 799.74,-67.56 680.57,-67.05"/>
<polygon fill="midnightblue" stroke="midnightblue" points="680.53,-63.55 670.52,-67.01 680.51,-70.55 680.53,-63.55"/>
</g>
<!-- Node16 -->
<g id="node16" class="node">
<title>Node16</title>
<g id="a_node16"><a xlink:href="psk__wave__shaper_8hpp.html" target="_top" xlink:title=" ">
<polygon fill="none" stroke="black" points="633.5,-168.5 633.5,-187.5 757.5,-187.5 757.5,-168.5 633.5,-168.5"/>
<text text-anchor="middle" x="695.5" y="-175.5" font-family="Helvetica,sans-Serif" font-size="10.00">psk_wave_shaper.hpp</text>
</a>
</g>
</g>
<!-- Node15&#45;&gt;Node16 -->
<g id="edge21" class="edge">
<title>Node15&#45;&gt;Node16</title>
<path fill="none" stroke="midnightblue" d="M945.44,-224.44C893.09,-214.92 808.51,-199.55 752.46,-189.36"/>
<polygon fill="midnightblue" stroke="midnightblue" points="752.81,-185.86 742.34,-187.52 751.55,-192.75 752.81,-185.86"/>
</g>
<!-- Node16&#45;&gt;Node2 -->
<g id="edge23" class="edge">
<title>Node16&#45;&gt;Node2</title>
<path fill="none" stroke="midnightblue" d="M633.21,-176.82C519.94,-175.58 272.73,-168.66 57.06,-131.94"/>
<polygon fill="midnightblue" stroke="midnightblue" points="57.59,-128.48 47.14,-130.23 56.4,-135.38 57.59,-128.48"/>
</g>
<!-- Node16&#45;&gt;Node3 -->
<g id="edge30" class="edge">
<title>Node16&#45;&gt;Node3</title>
<path fill="none" stroke="midnightblue" d="M633.38,-170.99C532.46,-161.22 332.83,-141.9 220.07,-130.99"/>
<polygon fill="midnightblue" stroke="midnightblue" points="220.4,-127.51 210.11,-130.03 219.72,-134.47 220.4,-127.51"/>
</g>
<!-- Node16&#45;&gt;Node7 -->
<g id="edge22" class="edge">
<title>Node16&#45;&gt;Node7</title>
<path fill="none" stroke="midnightblue" d="M757.55,-172.2C826.32,-166.19 940.55,-154.15 1047.33,-131.94"/>
<polygon fill="midnightblue" stroke="midnightblue" points="1048.25,-135.32 1057.31,-129.83 1046.8,-128.47 1048.25,-135.32"/>
</g>
<!-- Node16&#45;&gt;Node11 -->
<g id="edge24" class="edge">
<title>Node16&#45;&gt;Node11</title>
<path fill="none" stroke="midnightblue" d="M688.18,-168.22C681.24,-159.51 670.94,-145.54 664.5,-132 657.4,-117.07 652.37,-98.93 649.27,-85.61"/>
<polygon fill="midnightblue" stroke="midnightblue" points="652.67,-84.76 647.13,-75.73 645.83,-86.25 652.67,-84.76"/>
</g>
<!-- Node16&#45;&gt;Node12 -->
<g id="edge26" class="edge">
<title>Node16&#45;&gt;Node12</title>
<path fill="none" stroke="midnightblue" d="M633.44,-174.48C526.69,-169.52 317.59,-156.72 295.5,-132 275.95,-110.12 313.71,-89.98 344.25,-78.09"/>
<polygon fill="midnightblue" stroke="midnightblue" points="345.67,-81.29 353.83,-74.52 343.23,-74.73 345.67,-81.29"/>
</g>
<!-- Node16&#45;&gt;Node13 -->
<g id="edge31" class="edge">
<title>Node16&#45;&gt;Node13</title>
<path fill="none" stroke="midnightblue" d="M645.11,-168.44C588.82,-158.89 497.75,-143.42 437.74,-133.23"/>
<polygon fill="midnightblue" stroke="midnightblue" points="438.1,-129.74 427.65,-131.52 436.93,-136.64 438.1,-129.74"/>
</g>
<!-- Node17 -->
<g id="node17" class="node">
<title>Node17</title>
<g id="a_node17"><a xlink:title=" ">
<polygon fill="none" stroke="#bfbfbf" points="835.5,-112.5 835.5,-131.5 895.5,-131.5 895.5,-112.5 835.5,-112.5"/>
<text text-anchor="middle" x="865.5" y="-119.5" font-family="Helvetica,sans-Serif" font-size="10.00">iostream</text>
</a>
</g>
</g>
<!-- Node16&#45;&gt;Node17 -->
<g id="edge25" class="edge">
<title>Node16&#45;&gt;Node17</title>
<path fill="none" stroke="midnightblue" d="M722.44,-168.44C751.16,-159.32 796.83,-144.81 828.82,-134.65"/>
<polygon fill="midnightblue" stroke="midnightblue" points="830.22,-137.88 838.69,-131.52 828.1,-131.21 830.22,-137.88"/>
</g>
<!-- Node18 -->
<g id="node18" class="node">
<title>Node18</title>
<g id="a_node18"><a xlink:title=" ">
<polygon fill="none" stroke="#bfbfbf" points="914,-112.5 914,-131.5 1039,-131.5 1039,-112.5 914,-112.5"/>
<text text-anchor="middle" x="976.5" y="-119.5" font-family="Helvetica,sans-Serif" font-size="10.00">BoosterSeat/math.hpp</text>
</a>
</g>
</g>
<!-- Node16&#45;&gt;Node18 -->
<g id="edge27" class="edge">
<title>Node16&#45;&gt;Node18</title>
<path fill="none" stroke="midnightblue" d="M740.03,-168.44C789.46,-158.94 869.25,-143.61 922.28,-133.42"/>
<polygon fill="midnightblue" stroke="midnightblue" points="923.02,-136.84 932.18,-131.52 921.7,-129.97 923.02,-136.84"/>
</g>
<!-- Node19 -->
<g id="node19" class="node">
<title>Node19</title>
<g id="a_node19"><a xlink:href="constants_8hpp.html" target="_top" xlink:title="Common constants used throughout the library.">
<polygon fill="none" stroke="black" points="673.5,-112.5 673.5,-131.5 817.5,-131.5 817.5,-112.5 673.5,-112.5"/>
<text text-anchor="middle" x="745.5" y="-119.5" font-family="Helvetica,sans-Serif" font-size="10.00">SignalEasel/constants.hpp</text>
</a>
</g>
</g>
<!-- Node16&#45;&gt;Node19 -->
<g id="edge28" class="edge">
<title>Node16&#45;&gt;Node19</title>
<path fill="none" stroke="midnightblue" d="M703.76,-168.08C710.96,-160.3 721.61,-148.8 730.35,-139.37"/>
<polygon fill="midnightblue" stroke="midnightblue" points="733.17,-141.47 737.4,-131.75 728.03,-136.71 733.17,-141.47"/>
</g>
<!-- Node19&#45;&gt;Node11 -->
<g id="edge29" class="edge">
<title>Node19&#45;&gt;Node11</title>
<path fill="none" stroke="midnightblue" d="M729.43,-112.32C713.54,-103.74 688.99,-90.49 670.54,-80.52"/>
<polygon fill="midnightblue" stroke="midnightblue" points="671.99,-77.33 661.53,-75.65 668.66,-83.49 671.99,-77.33"/>
</g>
</g>
</svg>
