<?xml version="1.0" encoding="UTF-8" standalone="no"?>
<!DOCTYPE svg PUBLIC "-//W3C//DTD SVG 1.1//EN"
 "http://www.w3.org/Graphics/SVG/1.1/DTD/svg11.dtd">
<!-- Generated by graphviz version 2.43.0 (0)
 -->
<!-- Title: demodulator.cpp Pages: 1 -->
<svg width="547pt" height="196pt"
 viewBox="0.00 0.00 546.50 196.00" xmlns="http://www.w3.org/2000/svg" xmlns:xlink="http://www.w3.org/1999/xlink">
<g id="graph0" class="graph" transform="scale(1 1) rotate(0) translate(4 192)">
<title>demodulator.cpp</title>
<!-- Node1 -->
<g id="node1" class="node">
<title>Node1</title>
<g id="a_node1"><a xlink:title="The demodulator class implementation.">
<polygon fill="#bfbfbf" stroke="black" points="139,-168.5 139,-187.5 237,-187.5 237,-168.5 139,-168.5"/>
<text text-anchor="middle" x="188" y="-175.5" font-family="Helvetica,sans-Serif" font-size="10.00">demodulator.cpp</text>
</a>
</g>
</g>
<!-- Node2 -->
<g id="node2" class="node">
<title>Node2</title>
<g id="a_node2"><a xlink:title=" ">
<polygon fill="none" stroke="#bfbfbf" points="0,-112.5 0,-131.5 60,-131.5 60,-112.5 0,-112.5"/>
<text text-anchor="middle" x="30" y="-119.5" font-family="Helvetica,sans-Serif" font-size="10.00">iostream</text>
</a>
</g>
</g>
<!-- Node1&#45;&gt;Node2 -->
<g id="edge1" class="edge">
<title>Node1&#45;&gt;Node2</title>
<path fill="none" stroke="midnightblue" d="M162.96,-168.44C136.38,-159.36 94.19,-144.94 64.48,-134.78"/>
<polygon fill="midnightblue" stroke="midnightblue" points="65.51,-131.44 54.92,-131.52 63.25,-138.06 65.51,-131.44"/>
</g>
<!-- Node3 -->
<g id="node3" class="node">
<title>Node3</title>
<g id="a_node3"><a xlink:title=" ">
<polygon fill="none" stroke="#bfbfbf" points="78.5,-112.5 78.5,-131.5 159.5,-131.5 159.5,-112.5 78.5,-112.5"/>
<text text-anchor="middle" x="119" y="-119.5" font-family="Helvetica,sans-Serif" font-size="10.00">wav_gen.hpp</text>
</a>
</g>
</g>
<!-- Node1&#45;&gt;Node3 -->
<g id="edge2" class="edge">
<title>Node1&#45;&gt;Node3</title>
<path fill="none" stroke="midnightblue" d="M176.91,-168.32C166.51,-160.18 150.74,-147.84 138.28,-138.09"/>
<polygon fill="midnightblue" stroke="midnightblue" points="140.32,-135.24 130.29,-131.83 136.01,-140.75 140.32,-135.24"/>
</g>
<!-- Node4 -->
<g id="node4" class="node">
<title>Node4</title>
<g id="a_node4"><a xlink:href="demodulator_8hpp.html" target="_top" xlink:title="Base class for demodulators.">
<polygon fill="none" stroke="black" points="178,-112.5 178,-131.5 336,-131.5 336,-112.5 178,-112.5"/>
<text text-anchor="middle" x="257" y="-119.5" font-family="Helvetica,sans-Serif" font-size="10.00">SignalEasel/demodulator.hpp</text>
</a>
</g>
</g>
<!-- Node1&#45;&gt;Node4 -->
<g id="edge3" class="edge">
<title>Node1&#45;&gt;Node4</title>
<path fill="none" stroke="midnightblue" d="M199.09,-168.32C209.49,-160.18 225.26,-147.84 237.72,-138.09"/>
<polygon fill="midnightblue" stroke="midnightblue" points="239.99,-140.75 245.71,-131.83 235.68,-135.24 239.99,-140.75"/>
</g>
<!-- Node8 -->
<g id="node8" class="node">
<title>Node8</title>
<g id="a_node8"><a xlink:href="exception_8hpp.html" target="_top" xlink:title="SignalEasel exceptions.">
<polygon fill="none" stroke="black" points="372.5,-112.5 372.5,-131.5 517.5,-131.5 517.5,-112.5 372.5,-112.5"/>
<text text-anchor="middle" x="445" y="-119.5" font-family="Helvetica,sans-Serif" font-size="10.00">SignalEasel/exception.hpp</text>
</a>
</g>
</g>
<!-- Node1&#45;&gt;Node8 -->
<g id="edge8" class="edge">
<title>Node1&#45;&gt;Node8</title>
<path fill="none" stroke="midnightblue" d="M228.72,-168.44C273.65,-159 346,-143.8 394.5,-133.61"/>
<polygon fill="midnightblue" stroke="midnightblue" points="395.4,-137 404.47,-131.52 393.96,-130.15 395.4,-137"/>
</g>
<!-- Node5 -->
<g id="node5" class="node">
<title>Node5</title>
<g id="a_node5"><a xlink:title=" ">
<polygon fill="none" stroke="#bfbfbf" points="327,-0.5 327,-19.5 371,-19.5 371,-0.5 327,-0.5"/>
<text text-anchor="middle" x="349" y="-7.5" font-family="Helvetica,sans-Serif" font-size="10.00">string</text>
</a>
</g>
</g>
<!-- Node4&#45;&gt;Node5 -->
<g id="edge4" class="edge">
<title>Node4&#45;&gt;Node5</title>
<path fill="none" stroke="midnightblue" d="M241.48,-112.31C221.45,-99.97 190.9,-76.59 206,-56 231.21,-21.63 282.69,-12.82 316.51,-10.93"/>
<polygon fill="midnightblue" stroke="midnightblue" points="316.96,-14.42 326.82,-10.54 316.69,-7.42 316.96,-14.42"/>
</g>
<!-- Node6 -->
<g id="node6" class="node">
<title>Node6</title>
<g id="a_node6"><a xlink:title=" ">
<polygon fill="none" stroke="#bfbfbf" points="215.5,-56.5 215.5,-75.5 262.5,-75.5 262.5,-56.5 215.5,-56.5"/>
<text text-anchor="middle" x="239" y="-63.5" font-family="Helvetica,sans-Serif" font-size="10.00">vector</text>
</a>
</g>
</g>
<!-- Node4&#45;&gt;Node6 -->
<g id="edge5" class="edge">
<title>Node4&#45;&gt;Node6</title>
<path fill="none" stroke="midnightblue" d="M254.03,-112.08C251.62,-104.85 248.14,-94.41 245.13,-85.4"/>
<polygon fill="midnightblue" stroke="midnightblue" points="248.4,-84.13 241.92,-75.75 241.76,-86.34 248.4,-84.13"/>
</g>
<!-- Node7 -->
<g id="node7" class="node">
<title>Node7</title>
<g id="a_node7"><a xlink:href="settings_8hpp.html" target="_top" xlink:title="Settings structures for SignalEasel.">
<polygon fill="none" stroke="black" points="281,-56.5 281,-75.5 417,-75.5 417,-56.5 281,-56.5"/>
<text text-anchor="middle" x="349" y="-63.5" font-family="Helvetica,sans-Serif" font-size="10.00">SignalEasel/settings.hpp</text>
</a>
</g>
</g>
<!-- Node4&#45;&gt;Node7 -->
<g id="edge6" class="edge">
<title>Node4&#45;&gt;Node7</title>
<path fill="none" stroke="midnightblue" d="M271.78,-112.32C286.27,-103.82 308.57,-90.73 325.49,-80.8"/>
<polygon fill="midnightblue" stroke="midnightblue" points="327.4,-83.74 334.26,-75.65 323.86,-77.7 327.4,-83.74"/>
</g>
<!-- Node7&#45;&gt;Node5 -->
<g id="edge7" class="edge">
<title>Node7&#45;&gt;Node5</title>
<path fill="none" stroke="midnightblue" d="M349,-56.08C349,-49.01 349,-38.86 349,-29.99"/>
<polygon fill="midnightblue" stroke="midnightblue" points="352.5,-29.75 349,-19.75 345.5,-29.75 352.5,-29.75"/>
</g>
<!-- Node8&#45;&gt;Node5 -->
<g id="edge10" class="edge">
<title>Node8&#45;&gt;Node5</title>
<path fill="none" stroke="midnightblue" d="M444.46,-112.07C443.22,-98.6 439.17,-72.86 426,-56 414.32,-41.05 396.17,-30.1 380.43,-22.74"/>
<polygon fill="midnightblue" stroke="midnightblue" points="381.58,-19.43 371.02,-18.63 378.78,-25.84 381.58,-19.43"/>
</g>
<!-- Node9 -->
<g id="node9" class="node">
<title>Node9</title>
<g id="a_node9"><a xlink:title=" ">
<polygon fill="none" stroke="#bfbfbf" points="473.5,-56.5 473.5,-75.5 538.5,-75.5 538.5,-56.5 473.5,-56.5"/>
<text text-anchor="middle" x="506" y="-63.5" font-family="Helvetica,sans-Serif" font-size="10.00">exception</text>
</a>
</g>
</g>
<!-- Node8&#45;&gt;Node9 -->
<g id="edge9" class="edge">
<title>Node8&#45;&gt;Node9</title>
<path fill="none" stroke="midnightblue" d="M454.8,-112.32C463.82,-104.34 477.41,-92.31 488.32,-82.65"/>
<polygon fill="midnightblue" stroke="midnightblue" points="490.85,-85.08 496.02,-75.83 486.21,-79.84 490.85,-85.08"/>
</g>
</g>
</svg>
