<?xml version="1.0" encoding="UTF-8" standalone="no"?>
<!DOCTYPE svg PUBLIC "-//W3C//DTD SVG 1.1//EN"
 "http://www.w3.org/Graphics/SVG/1.1/DTD/svg11.dtd">
<!-- Generated by graphviz version 2.43.0 (0)
 -->
<!-- Title: demodulator.hpp Pages: 1 -->
<svg width="791pt" height="196pt"
 viewBox="0.00 0.00 791.00 196.00" xmlns="http://www.w3.org/2000/svg" xmlns:xlink="http://www.w3.org/1999/xlink">
<g id="graph0" class="graph" transform="scale(1 1) rotate(0) translate(4 192)">
<title>demodulator.hpp</title>
<!-- Node1 -->
<g id="node1" class="node">
<title>Node1</title>
<g id="a_node1"><a xlink:title="Base class for demodulators.">
<polygon fill="#bfbfbf" stroke="black" points="351,-168.5 351,-187.5 450,-187.5 450,-168.5 351,-168.5"/>
<text text-anchor="middle" x="400.5" y="-175.5" font-family="Helvetica,sans-Serif" font-size="10.00">demodulator.hpp</text>
</a>
</g>
</g>
<!-- Node2 -->
<g id="node2" class="node">
<title>Node2</title>
<g id="a_node2"><a xlink:href="demodulator_8cpp.html" target="_top" xlink:title="The demodulator class implementation.">
<polygon fill="none" stroke="black" points="303.5,-112.5 303.5,-131.5 401.5,-131.5 401.5,-112.5 303.5,-112.5"/>
<text text-anchor="middle" x="352.5" y="-119.5" font-family="Helvetica,sans-Serif" font-size="10.00">demodulator.cpp</text>
</a>
</g>
</g>
<!-- Node1&#45;&gt;Node2 -->
<g id="edge1" class="edge">
<title>Node1&#45;&gt;Node2</title>
<path fill="none" stroke="midnightblue" d="M385.77,-160.43C377.36,-150.97 367.15,-139.48 360.28,-131.75"/>
<polygon fill="midnightblue" stroke="midnightblue" points="383.31,-162.93 392.57,-168.08 388.55,-158.28 383.31,-162.93"/>
</g>
<!-- Node3 -->
<g id="node3" class="node">
<title>Node3</title>
<g id="a_node3"><a xlink:href="afsk_8hpp.html" target="_top" xlink:title="AFSK related modulation/demodulation.">
<polygon fill="none" stroke="black" points="420,-112.5 420,-131.5 479,-131.5 479,-112.5 420,-112.5"/>
<text text-anchor="middle" x="449.5" y="-119.5" font-family="Helvetica,sans-Serif" font-size="10.00">afsk.hpp</text>
</a>
</g>
</g>
<!-- Node1&#45;&gt;Node3 -->
<g id="edge2" class="edge">
<title>Node1&#45;&gt;Node3</title>
<path fill="none" stroke="midnightblue" d="M415.53,-160.43C424.12,-150.97 434.54,-139.48 441.56,-131.75"/>
<polygon fill="midnightblue" stroke="midnightblue" points="412.72,-158.33 408.59,-168.08 417.9,-163.03 412.72,-158.33"/>
</g>
<!-- Node4 -->
<g id="node4" class="node">
<title>Node4</title>
<g id="a_node4"><a xlink:href="afsk__demodulator_8cpp.html" target="_top" xlink:title="The AFSK demodulator class implementation.">
<polygon fill="none" stroke="black" points="75,-56.5 75,-75.5 200,-75.5 200,-56.5 75,-56.5"/>
<text text-anchor="middle" x="137.5" y="-63.5" font-family="Helvetica,sans-Serif" font-size="10.00">afsk_demodulator.cpp</text>
</a>
</g>
</g>
<!-- Node3&#45;&gt;Node4 -->
<g id="edge3" class="edge">
<title>Node3&#45;&gt;Node4</title>
<path fill="none" stroke="midnightblue" d="M409.51,-111.91C329.78,-96.32 248.87,-83.51 195.74,-75.51"/>
<polygon fill="midnightblue" stroke="midnightblue" points="409.24,-115.43 419.73,-113.93 410.6,-108.56 409.24,-115.43"/>
</g>
<!-- Node5 -->
<g id="node5" class="node">
<title>Node5</title>
<g id="a_node5"><a xlink:href="afsk__modulator_8cpp.html" target="_top" xlink:title="The AFSK modulator class implementation.">
<polygon fill="none" stroke="black" points="218,-56.5 218,-75.5 331,-75.5 331,-56.5 218,-56.5"/>
<text text-anchor="middle" x="274.5" y="-63.5" font-family="Helvetica,sans-Serif" font-size="10.00">afsk_modulator.cpp</text>
</a>
</g>
</g>
<!-- Node3&#45;&gt;Node5 -->
<g id="edge4" class="edge">
<title>Node3&#45;&gt;Node5</title>
<path fill="none" stroke="midnightblue" d="M412.03,-109.44C379.03,-99.26 331.74,-84.66 302.1,-75.52"/>
<polygon fill="midnightblue" stroke="midnightblue" points="411.18,-112.84 421.77,-112.44 413.25,-106.15 411.18,-112.84"/>
</g>
<!-- Node6 -->
<g id="node6" class="node">
<title>Node6</title>
<g id="a_node6"><a xlink:href="afsk__receiver_8cpp.html" target="_top" xlink:title="Implementation of the AFSK receiver class.">
<polygon fill="none" stroke="black" points="349.5,-56.5 349.5,-75.5 451.5,-75.5 451.5,-56.5 349.5,-56.5"/>
<text text-anchor="middle" x="400.5" y="-63.5" font-family="Helvetica,sans-Serif" font-size="10.00">afsk_receiver.cpp</text>
</a>
</g>
</g>
<!-- Node3&#45;&gt;Node6 -->
<g id="edge5" class="edge">
<title>Node3&#45;&gt;Node6</title>
<path fill="none" stroke="midnightblue" d="M434.47,-104.43C425.88,-94.97 415.46,-83.48 408.44,-75.75"/>
<polygon fill="midnightblue" stroke="midnightblue" points="432.1,-107.03 441.41,-112.08 437.28,-102.33 432.1,-107.03"/>
</g>
<!-- Node7 -->
<g id="node7" class="node">
<title>Node7</title>
<g id="a_node7"><a xlink:href="aprs_8hpp.html" target="_top" xlink:title="APRS implementation.">
<polygon fill="none" stroke="black" points="470,-56.5 470,-75.5 529,-75.5 529,-56.5 470,-56.5"/>
<text text-anchor="middle" x="499.5" y="-63.5" font-family="Helvetica,sans-Serif" font-size="10.00">aprs.hpp</text>
</a>
</g>
</g>
<!-- Node3&#45;&gt;Node7 -->
<g id="edge6" class="edge">
<title>Node3&#45;&gt;Node7</title>
<path fill="none" stroke="midnightblue" d="M464.58,-104.72C473.39,-95.2 484.17,-83.56 491.4,-75.75"/>
<polygon fill="midnightblue" stroke="midnightblue" points="461.98,-102.37 457.76,-112.08 467.12,-107.12 461.98,-102.37"/>
</g>
<!-- Node14 -->
<g id="node14" class="node">
<title>Node14</title>
<g id="a_node14"><a xlink:href="pulse__test_8cpp.html" target="_top" xlink:title="PulseAudio output test. Does not use gtest.">
<polygon fill="none" stroke="black" points="696,-0.5 696,-19.5 783,-19.5 783,-0.5 696,-0.5"/>
<text text-anchor="middle" x="739.5" y="-7.5" font-family="Helvetica,sans-Serif" font-size="10.00">pulse_test.cpp</text>
</a>
</g>
</g>
<!-- Node3&#45;&gt;Node14 -->
<g id="edge15" class="edge">
<title>Node3&#45;&gt;Node14</title>
<path fill="none" stroke="midnightblue" d="M475.77,-107.86C493.52,-98.94 517.47,-86.85 538.5,-76 555.46,-67.25 558.75,-63.02 576.5,-56 617.17,-39.9 665.72,-27.3 699.19,-19.57"/>
<polygon fill="midnightblue" stroke="midnightblue" points="473.97,-104.84 466.6,-112.46 477.11,-111.1 473.97,-104.84"/>
</g>
<!-- Node15 -->
<g id="node15" class="node">
<title>Node15</title>
<g id="a_node15"><a xlink:href="afsk__test_8cpp.html" target="_top" xlink:title=" ">
<polygon fill="none" stroke="black" points="585.5,-56.5 585.5,-75.5 667.5,-75.5 667.5,-56.5 585.5,-56.5"/>
<text text-anchor="middle" x="626.5" y="-63.5" font-family="Helvetica,sans-Serif" font-size="10.00">afsk_test.cpp</text>
</a>
</g>
</g>
<!-- Node3&#45;&gt;Node15 -->
<g id="edge14" class="edge">
<title>Node3&#45;&gt;Node15</title>
<path fill="none" stroke="midnightblue" d="M487.4,-109.44C520.78,-99.26 568.6,-84.66 598.59,-75.52"/>
<polygon fill="midnightblue" stroke="midnightblue" points="486.09,-106.18 477.55,-112.44 488.13,-112.87 486.09,-106.18"/>
</g>
<!-- Node8 -->
<g id="node8" class="node">
<title>Node8</title>
<g id="a_node8"><a xlink:href="aprs__demodulator_8cpp.html" target="_top" xlink:title="Implementation of the APRS demodulator class.">
<polygon fill="none" stroke="black" points="0,-0.5 0,-19.5 125,-19.5 125,-0.5 0,-0.5"/>
<text text-anchor="middle" x="62.5" y="-7.5" font-family="Helvetica,sans-Serif" font-size="10.00">aprs_demodulator.cpp</text>
</a>
</g>
</g>
<!-- Node7&#45;&gt;Node8 -->
<g id="edge7" class="edge">
<title>Node7&#45;&gt;Node8</title>
<path fill="none" stroke="midnightblue" d="M459.6,-56.04C314.61,-31.76 275.44,-36.81 133.5,-20 130.79,-19.68 128.01,-19.35 125.21,-19.01"/>
<polygon fill="midnightblue" stroke="midnightblue" points="459.32,-59.54 469.76,-57.76 460.49,-52.64 459.32,-59.54"/>
</g>
<!-- Node9 -->
<g id="node9" class="node">
<title>Node9</title>
<g id="a_node9"><a xlink:href="aprs__encoders_8cpp.html" target="_top" xlink:title="Encoding functions for APRS packets.">
<polygon fill="none" stroke="black" points="143,-0.5 143,-19.5 250,-19.5 250,-0.5 143,-0.5"/>
<text text-anchor="middle" x="196.5" y="-7.5" font-family="Helvetica,sans-Serif" font-size="10.00">aprs_encoders.cpp</text>
</a>
</g>
</g>
<!-- Node7&#45;&gt;Node9 -->
<g id="edge8" class="edge">
<title>Node7&#45;&gt;Node9</title>
<path fill="none" stroke="midnightblue" d="M459.65,-55.93C381.03,-40.32 301.27,-27.24 250.01,-19.19"/>
<polygon fill="midnightblue" stroke="midnightblue" points="459.24,-59.41 469.73,-57.94 460.61,-52.55 459.24,-59.41"/>
</g>
<!-- Node10 -->
<g id="node10" class="node">
<title>Node10</title>
<g id="a_node10"><a xlink:href="aprs__modulator_8cpp.html" target="_top" xlink:title="Implementation of the APRS modulator class.">
<polygon fill="none" stroke="black" points="268,-0.5 268,-19.5 381,-19.5 381,-0.5 268,-0.5"/>
<text text-anchor="middle" x="324.5" y="-7.5" font-family="Helvetica,sans-Serif" font-size="10.00">aprs_modulator.cpp</text>
</a>
</g>
</g>
<!-- Node7&#45;&gt;Node10 -->
<g id="edge9" class="edge">
<title>Node7&#45;&gt;Node10</title>
<path fill="none" stroke="midnightblue" d="M462.03,-53.44C429.03,-43.26 381.74,-28.66 352.1,-19.52"/>
<polygon fill="midnightblue" stroke="midnightblue" points="461.18,-56.84 471.77,-56.44 463.25,-50.15 461.18,-56.84"/>
</g>
<!-- Node11 -->
<g id="node11" class="node">
<title>Node11</title>
<g id="a_node11"><a xlink:href="aprs__receiver_8cpp.html" target="_top" xlink:title="Implementation of the APRS receiver class.">
<polygon fill="none" stroke="black" points="399.5,-0.5 399.5,-19.5 501.5,-19.5 501.5,-0.5 399.5,-0.5"/>
<text text-anchor="middle" x="450.5" y="-7.5" font-family="Helvetica,sans-Serif" font-size="10.00">aprs_receiver.cpp</text>
</a>
</g>
</g>
<!-- Node7&#45;&gt;Node11 -->
<g id="edge10" class="edge">
<title>Node7&#45;&gt;Node11</title>
<path fill="none" stroke="midnightblue" d="M484.47,-48.43C475.88,-38.97 465.46,-27.48 458.44,-19.75"/>
<polygon fill="midnightblue" stroke="midnightblue" points="482.1,-51.03 491.41,-56.08 487.28,-46.33 482.1,-51.03"/>
</g>
<!-- Node12 -->
<g id="node12" class="node">
<title>Node12</title>
<g id="a_node12"><a xlink:href="aprs_8cpp.html" target="_top" xlink:title="APRS implementation.">
<polygon fill="none" stroke="black" points="519.5,-0.5 519.5,-19.5 577.5,-19.5 577.5,-0.5 519.5,-0.5"/>
<text text-anchor="middle" x="548.5" y="-7.5" font-family="Helvetica,sans-Serif" font-size="10.00">aprs.cpp</text>
</a>
</g>
</g>
<!-- Node7&#45;&gt;Node12 -->
<g id="edge11" class="edge">
<title>Node7&#45;&gt;Node12</title>
<path fill="none" stroke="midnightblue" d="M514.53,-48.43C523.12,-38.97 533.54,-27.48 540.56,-19.75"/>
<polygon fill="midnightblue" stroke="midnightblue" points="511.72,-46.33 507.59,-56.08 516.9,-51.03 511.72,-46.33"/>
</g>
<!-- Node13 -->
<g id="node13" class="node">
<title>Node13</title>
<g id="a_node13"><a xlink:href="aprs__test_8cpp.html" target="_top" xlink:title=" ">
<polygon fill="none" stroke="black" points="595.5,-0.5 595.5,-19.5 677.5,-19.5 677.5,-0.5 595.5,-0.5"/>
<text text-anchor="middle" x="636.5" y="-7.5" font-family="Helvetica,sans-Serif" font-size="10.00">aprs_test.cpp</text>
</a>
</g>
</g>
<!-- Node7&#45;&gt;Node13 -->
<g id="edge12" class="edge">
<title>Node7&#45;&gt;Node13</title>
<path fill="none" stroke="midnightblue" d="M530.52,-52.77C556.26,-42.63 592.19,-28.47 614.89,-19.52"/>
<polygon fill="midnightblue" stroke="midnightblue" points="529.23,-49.52 521.21,-56.44 531.79,-56.03 529.23,-49.52"/>
</g>
<!-- Node7&#45;&gt;Node14 -->
<g id="edge13" class="edge">
<title>Node7&#45;&gt;Node14</title>
<path fill="none" stroke="midnightblue" d="M539.42,-56.02C584.55,-45.86 657.46,-29.46 701.69,-19.51"/>
<polygon fill="midnightblue" stroke="midnightblue" points="538.4,-52.66 529.41,-58.27 539.94,-59.49 538.4,-52.66"/>
</g>
</g>
</svg>
