<?xml version="1.0" encoding="UTF-8" standalone="no"?>
<!DOCTYPE svg PUBLIC "-//W3C//DTD SVG 1.1//EN"
 "http://www.w3.org/Graphics/SVG/1.1/DTD/svg11.dtd">
<!-- Generated by graphviz version 2.43.0 (0)
 -->
<!-- Title: demodulator.hpp Pages: 1 -->
<svg width="601pt" height="196pt"
 viewBox="0.00 0.00 600.50 196.00" xmlns="http://www.w3.org/2000/svg" xmlns:xlink="http://www.w3.org/1999/xlink">
<g id="graph0" class="graph" transform="scale(1 1) rotate(0) translate(4 192)">
<title>demodulator.hpp</title>
<!-- Node1 -->
<g id="node1" class="node">
<title>Node1</title>
<g id="a_node1"><a xlink:title="Base class for demodulators.">
<polygon fill="#bfbfbf" stroke="black" points="276,-168.5 276,-187.5 375,-187.5 375,-168.5 276,-168.5"/>
<text text-anchor="middle" x="325.5" y="-175.5" font-family="Helvetica,sans-Serif" font-size="10.00">demodulator.hpp</text>
</a>
</g>
</g>
<!-- Node2 -->
<g id="node2" class="node">
<title>Node2</title>
<g id="a_node2"><a xlink:href="demodulator_8cpp.html" target="_top" xlink:title="The demodulator class implementation.">
<polygon fill="none" stroke="black" points="228.5,-112.5 228.5,-131.5 326.5,-131.5 326.5,-112.5 228.5,-112.5"/>
<text text-anchor="middle" x="277.5" y="-119.5" font-family="Helvetica,sans-Serif" font-size="10.00">demodulator.cpp</text>
</a>
</g>
</g>
<!-- Node1&#45;&gt;Node2 -->
<g id="edge1" class="edge">
<title>Node1&#45;&gt;Node2</title>
<path fill="none" stroke="midnightblue" d="M310.77,-160.43C302.36,-150.97 292.15,-139.48 285.28,-131.75"/>
<polygon fill="midnightblue" stroke="midnightblue" points="308.31,-162.93 317.57,-168.08 313.55,-158.28 308.31,-162.93"/>
</g>
<!-- Node3 -->
<g id="node3" class="node">
<title>Node3</title>
<g id="a_node3"><a xlink:href="afsk_8hpp.html" target="_top" xlink:title="AFSK related modulation/demodulation.">
<polygon fill="none" stroke="black" points="345,-112.5 345,-131.5 404,-131.5 404,-112.5 345,-112.5"/>
<text text-anchor="middle" x="374.5" y="-119.5" font-family="Helvetica,sans-Serif" font-size="10.00">afsk.hpp</text>
</a>
</g>
</g>
<!-- Node1&#45;&gt;Node3 -->
<g id="edge2" class="edge">
<title>Node1&#45;&gt;Node3</title>
<path fill="none" stroke="midnightblue" d="M340.53,-160.43C349.12,-150.97 359.54,-139.48 366.56,-131.75"/>
<polygon fill="midnightblue" stroke="midnightblue" points="337.72,-158.33 333.59,-168.08 342.9,-163.03 337.72,-158.33"/>
</g>
<!-- Node4 -->
<g id="node4" class="node">
<title>Node4</title>
<g id="a_node4"><a xlink:href="afsk__demodulator_8cpp.html" target="_top" xlink:title="The AFSK demodulator class implementation.">
<polygon fill="none" stroke="black" points="0,-56.5 0,-75.5 125,-75.5 125,-56.5 0,-56.5"/>
<text text-anchor="middle" x="62.5" y="-63.5" font-family="Helvetica,sans-Serif" font-size="10.00">afsk_demodulator.cpp</text>
</a>
</g>
</g>
<!-- Node3&#45;&gt;Node4 -->
<g id="edge3" class="edge">
<title>Node3&#45;&gt;Node4</title>
<path fill="none" stroke="midnightblue" d="M334.51,-111.91C254.78,-96.32 173.87,-83.51 120.74,-75.51"/>
<polygon fill="midnightblue" stroke="midnightblue" points="334.24,-115.43 344.73,-113.93 335.6,-108.56 334.24,-115.43"/>
</g>
<!-- Node5 -->
<g id="node5" class="node">
<title>Node5</title>
<g id="a_node5"><a xlink:href="afsk__modulator_8cpp.html" target="_top" xlink:title="The AFSK modulator class implementation.">
<polygon fill="none" stroke="black" points="143,-56.5 143,-75.5 256,-75.5 256,-56.5 143,-56.5"/>
<text text-anchor="middle" x="199.5" y="-63.5" font-family="Helvetica,sans-Serif" font-size="10.00">afsk_modulator.cpp</text>
</a>
</g>
</g>
<!-- Node3&#45;&gt;Node5 -->
<g id="edge4" class="edge">
<title>Node3&#45;&gt;Node5</title>
<path fill="none" stroke="midnightblue" d="M337.03,-109.44C304.03,-99.26 256.74,-84.66 227.1,-75.52"/>
<polygon fill="midnightblue" stroke="midnightblue" points="336.18,-112.84 346.77,-112.44 338.25,-106.15 336.18,-112.84"/>
</g>
<!-- Node6 -->
<g id="node6" class="node">
<title>Node6</title>
<g id="a_node6"><a xlink:href="afsk__receiver_8cpp.html" target="_top" xlink:title="Implementation of the AFSK receiver class.">
<polygon fill="none" stroke="black" points="274.5,-56.5 274.5,-75.5 376.5,-75.5 376.5,-56.5 274.5,-56.5"/>
<text text-anchor="middle" x="325.5" y="-63.5" font-family="Helvetica,sans-Serif" font-size="10.00">afsk_receiver.cpp</text>
</a>
</g>
</g>
<!-- Node3&#45;&gt;Node6 -->
<g id="edge5" class="edge">
<title>Node3&#45;&gt;Node6</title>
<path fill="none" stroke="midnightblue" d="M359.47,-104.43C350.88,-94.97 340.46,-83.48 333.44,-75.75"/>
<polygon fill="midnightblue" stroke="midnightblue" points="357.1,-107.03 366.41,-112.08 362.28,-102.33 357.1,-107.03"/>
</g>
<!-- Node7 -->
<g id="node7" class="node">
<title>Node7</title>
<g id="a_node7"><a xlink:href="aprs_8hpp.html" target="_top" xlink:title="APRS implementation.">
<polygon fill="none" stroke="black" points="395,-56.5 395,-75.5 454,-75.5 454,-56.5 395,-56.5"/>
<text text-anchor="middle" x="424.5" y="-63.5" font-family="Helvetica,sans-Serif" font-size="10.00">aprs.hpp</text>
</a>
</g>
</g>
<!-- Node3&#45;&gt;Node7 -->
<g id="edge6" class="edge">
<title>Node3&#45;&gt;Node7</title>
<path fill="none" stroke="midnightblue" d="M389.58,-104.72C398.39,-95.2 409.17,-83.56 416.4,-75.75"/>
<polygon fill="midnightblue" stroke="midnightblue" points="386.98,-102.37 382.76,-112.08 392.12,-107.12 386.98,-102.37"/>
</g>
<!-- Node11 -->
<g id="node11" class="node">
<title>Node11</title>
<g id="a_node11"><a xlink:href="pulse__test_8cpp.html" target="_top" xlink:title="PulseAudio output test. Does not use gtest.">
<polygon fill="none" stroke="black" points="484,-0.5 484,-19.5 571,-19.5 571,-0.5 484,-0.5"/>
<text text-anchor="middle" x="527.5" y="-7.5" font-family="Helvetica,sans-Serif" font-size="10.00">pulse_test.cpp</text>
</a>
</g>
</g>
<!-- Node3&#45;&gt;Node11 -->
<g id="edge12" class="edge">
<title>Node3&#45;&gt;Node11</title>
<path fill="none" stroke="midnightblue" d="M405.47,-108.35C423.26,-100.36 445.57,-89.09 463.5,-76 486.78,-59 509.31,-33.32 520.38,-19.89"/>
<polygon fill="midnightblue" stroke="midnightblue" points="403.87,-105.23 396.11,-112.44 406.67,-111.64 403.87,-105.23"/>
</g>
<!-- Node12 -->
<g id="node12" class="node">
<title>Node12</title>
<g id="a_node12"><a xlink:href="afsk__test_8cpp.html" target="_top" xlink:title=" ">
<polygon fill="none" stroke="black" points="510.5,-56.5 510.5,-75.5 592.5,-75.5 592.5,-56.5 510.5,-56.5"/>
<text text-anchor="middle" x="551.5" y="-63.5" font-family="Helvetica,sans-Serif" font-size="10.00">afsk_test.cpp</text>
</a>
</g>
</g>
<!-- Node3&#45;&gt;Node12 -->
<g id="edge11" class="edge">
<title>Node3&#45;&gt;Node12</title>
<path fill="none" stroke="midnightblue" d="M412.4,-109.44C445.78,-99.26 493.6,-84.66 523.59,-75.52"/>
<polygon fill="midnightblue" stroke="midnightblue" points="411.09,-106.18 402.55,-112.44 413.13,-112.87 411.09,-106.18"/>
</g>
<!-- Node8 -->
<g id="node8" class="node">
<title>Node8</title>
<g id="a_node8"><a xlink:href="aprs__receiver_8cpp.html" target="_top" xlink:title="Implementation of the APRS receiver class.">
<polygon fill="none" stroke="black" points="187.5,-0.5 187.5,-19.5 289.5,-19.5 289.5,-0.5 187.5,-0.5"/>
<text text-anchor="middle" x="238.5" y="-7.5" font-family="Helvetica,sans-Serif" font-size="10.00">aprs_receiver.cpp</text>
</a>
</g>
</g>
<!-- Node7&#45;&gt;Node8 -->
<g id="edge7" class="edge">
<title>Node7&#45;&gt;Node8</title>
<path fill="none" stroke="midnightblue" d="M385.12,-53.57C350.03,-43.38 299.48,-28.7 267.83,-19.52"/>
<polygon fill="midnightblue" stroke="midnightblue" points="384.45,-57.02 395.03,-56.44 386.4,-50.29 384.45,-57.02"/>
</g>
<!-- Node9 -->
<g id="node9" class="node">
<title>Node9</title>
<g id="a_node9"><a xlink:href="aprs_8cpp.html" target="_top" xlink:title="APRS implementation.">
<polygon fill="none" stroke="black" points="307.5,-0.5 307.5,-19.5 365.5,-19.5 365.5,-0.5 307.5,-0.5"/>
<text text-anchor="middle" x="336.5" y="-7.5" font-family="Helvetica,sans-Serif" font-size="10.00">aprs.cpp</text>
</a>
</g>
</g>
<!-- Node7&#45;&gt;Node9 -->
<g id="edge8" class="edge">
<title>Node7&#45;&gt;Node9</title>
<path fill="none" stroke="midnightblue" d="M401.52,-50.9C385.39,-41 364.32,-28.07 350.6,-19.65"/>
<polygon fill="midnightblue" stroke="midnightblue" points="400.01,-54.08 410.36,-56.32 403.67,-48.11 400.01,-54.08"/>
</g>
<!-- Node10 -->
<g id="node10" class="node">
<title>Node10</title>
<g id="a_node10"><a xlink:href="aprs__test_8cpp.html" target="_top" xlink:title=" ">
<polygon fill="none" stroke="black" points="383.5,-0.5 383.5,-19.5 465.5,-19.5 465.5,-0.5 383.5,-0.5"/>
<text text-anchor="middle" x="424.5" y="-7.5" font-family="Helvetica,sans-Serif" font-size="10.00">aprs_test.cpp</text>
</a>
</g>
</g>
<!-- Node7&#45;&gt;Node10 -->
<g id="edge9" class="edge">
<title>Node7&#45;&gt;Node10</title>
<path fill="none" stroke="midnightblue" d="M424.5,-45.8C424.5,-36.91 424.5,-26.78 424.5,-19.75"/>
<polygon fill="midnightblue" stroke="midnightblue" points="421,-46.08 424.5,-56.08 428,-46.08 421,-46.08"/>
</g>
<!-- Node7&#45;&gt;Node11 -->
<g id="edge10" class="edge">
<title>Node7&#45;&gt;Node11</title>
<path fill="none" stroke="midnightblue" d="M450.08,-51.59C469.12,-41.61 494.56,-28.27 510.99,-19.65"/>
<polygon fill="midnightblue" stroke="midnightblue" points="448.28,-48.58 441.05,-56.32 451.53,-54.78 448.28,-48.58"/>
</g>
</g>
</svg>
