<?xml version="1.0" encoding="UTF-8" standalone="no"?>
<!DOCTYPE svg PUBLIC "-//W3C//DTD SVG 1.1//EN"
 "http://www.w3.org/Graphics/SVG/1.1/DTD/svg11.dtd">
<!-- Generated by graphviz version 2.43.0 (0)
 -->
<!-- Title: demodulator.hpp Pages: 1 -->
<svg width="938pt" height="196pt"
 viewBox="0.00 0.00 937.50 196.00" xmlns="http://www.w3.org/2000/svg" xmlns:xlink="http://www.w3.org/1999/xlink">
<g id="graph0" class="graph" transform="scale(1 1) rotate(0) translate(4 192)">
<title>demodulator.hpp</title>
<!-- Node1 -->
<g id="node1" class="node">
<title>Node1</title>
<g id="a_node1"><a xlink:title="Base class for demodulators.">
<polygon fill="#bfbfbf" stroke="black" points="381.5,-168.5 381.5,-187.5 480.5,-187.5 480.5,-168.5 381.5,-168.5"/>
<text text-anchor="middle" x="431" y="-175.5" font-family="Helvetica,sans-Serif" font-size="10.00">demodulator.hpp</text>
</a>
</g>
</g>
<!-- Node2 -->
<g id="node2" class="node">
<title>Node2</title>
<g id="a_node2"><a xlink:href="afsk_8hpp.html" target="_top" xlink:title="AFSK related modulation/demodulation.">
<polygon fill="none" stroke="black" points="353.5,-112.5 353.5,-131.5 412.5,-131.5 412.5,-112.5 353.5,-112.5"/>
<text text-anchor="middle" x="383" y="-119.5" font-family="Helvetica,sans-Serif" font-size="10.00">afsk.hpp</text>
</a>
</g>
</g>
<!-- Node1&#45;&gt;Node2 -->
<g id="edge1" class="edge">
<title>Node1&#45;&gt;Node2</title>
<path fill="none" stroke="midnightblue" d="M416.27,-160.43C407.86,-150.97 397.65,-139.48 390.78,-131.75"/>
<polygon fill="midnightblue" stroke="midnightblue" points="413.81,-162.93 423.07,-168.08 419.05,-158.28 413.81,-162.93"/>
</g>
<!-- Node16 -->
<g id="node16" class="node">
<title>Node16</title>
<g id="a_node16"><a xlink:href="demodulator_8cpp.html" target="_top" xlink:title="The demodulator class implementation.">
<polygon fill="none" stroke="black" points="431,-112.5 431,-131.5 529,-131.5 529,-112.5 431,-112.5"/>
<text text-anchor="middle" x="480" y="-119.5" font-family="Helvetica,sans-Serif" font-size="10.00">demodulator.cpp</text>
</a>
</g>
</g>
<!-- Node1&#45;&gt;Node16 -->
<g id="edge16" class="edge">
<title>Node1&#45;&gt;Node16</title>
<path fill="none" stroke="midnightblue" d="M446.03,-160.43C454.62,-150.97 465.04,-139.48 472.06,-131.75"/>
<polygon fill="midnightblue" stroke="midnightblue" points="443.22,-158.33 439.09,-168.08 448.4,-163.03 443.22,-158.33"/>
</g>
<!-- Node3 -->
<g id="node3" class="node">
<title>Node3</title>
<g id="a_node3"><a xlink:href="afsk__demodulator_8cpp.html" target="_top" xlink:title="The AFSK demodulator class implementation.">
<polygon fill="none" stroke="black" points="2.5,-56.5 2.5,-75.5 127.5,-75.5 127.5,-56.5 2.5,-56.5"/>
<text text-anchor="middle" x="65" y="-63.5" font-family="Helvetica,sans-Serif" font-size="10.00">afsk_demodulator.cpp</text>
</a>
</g>
</g>
<!-- Node2&#45;&gt;Node3 -->
<g id="edge2" class="edge">
<title>Node2&#45;&gt;Node3</title>
<path fill="none" stroke="midnightblue" d="M343.17,-114.24C285.36,-104.42 178.23,-86.23 115.13,-75.51"/>
<polygon fill="midnightblue" stroke="midnightblue" points="342.92,-117.74 353.37,-115.97 344.1,-110.84 342.92,-117.74"/>
</g>
<!-- Node4 -->
<g id="node4" class="node">
<title>Node4</title>
<g id="a_node4"><a xlink:href="afsk__modulator_8cpp.html" target="_top" xlink:title="The AFSK modulator class implementation.">
<polygon fill="none" stroke="black" points="145.5,-56.5 145.5,-75.5 258.5,-75.5 258.5,-56.5 145.5,-56.5"/>
<text text-anchor="middle" x="202" y="-63.5" font-family="Helvetica,sans-Serif" font-size="10.00">afsk_modulator.cpp</text>
</a>
</g>
</g>
<!-- Node2&#45;&gt;Node4 -->
<g id="edge3" class="edge">
<title>Node2&#45;&gt;Node4</title>
<path fill="none" stroke="midnightblue" d="M344.68,-109.57C310.54,-99.38 261.34,-84.7 230.55,-75.52"/>
<polygon fill="midnightblue" stroke="midnightblue" points="343.74,-112.94 354.32,-112.44 345.74,-106.23 343.74,-112.94"/>
</g>
<!-- Node5 -->
<g id="node5" class="node">
<title>Node5</title>
<g id="a_node5"><a xlink:href="afsk__receiver_8cpp.html" target="_top" xlink:title="Implementation of the AFSK receiver class.">
<polygon fill="none" stroke="black" points="277,-56.5 277,-75.5 379,-75.5 379,-56.5 277,-56.5"/>
<text text-anchor="middle" x="328" y="-63.5" font-family="Helvetica,sans-Serif" font-size="10.00">afsk_receiver.cpp</text>
</a>
</g>
</g>
<!-- Node2&#45;&gt;Node5 -->
<g id="edge4" class="edge">
<title>Node2&#45;&gt;Node5</title>
<path fill="none" stroke="midnightblue" d="M366.71,-105C356.96,-95.43 344.95,-83.64 336.91,-75.75"/>
<polygon fill="midnightblue" stroke="midnightblue" points="364.33,-107.57 373.92,-112.08 369.23,-102.58 364.33,-107.57"/>
</g>
<!-- Node6 -->
<g id="node6" class="node">
<title>Node6</title>
<g id="a_node6"><a xlink:href="afsk__test_8cpp.html" target="_top" xlink:title=" ">
<polygon fill="none" stroke="black" points="397,-56.5 397,-75.5 479,-75.5 479,-56.5 397,-56.5"/>
<text text-anchor="middle" x="438" y="-63.5" font-family="Helvetica,sans-Serif" font-size="10.00">afsk_test.cpp</text>
</a>
</g>
</g>
<!-- Node2&#45;&gt;Node6 -->
<g id="edge5" class="edge">
<title>Node2&#45;&gt;Node6</title>
<path fill="none" stroke="midnightblue" d="M399.29,-105C409.04,-95.43 421.05,-83.64 429.09,-75.75"/>
<polygon fill="midnightblue" stroke="midnightblue" points="396.77,-102.58 392.08,-112.08 401.67,-107.57 396.77,-102.58"/>
</g>
<!-- Node7 -->
<g id="node7" class="node">
<title>Node7</title>
<g id="a_node7"><a xlink:href="aprs_8hpp.html" target="_top" xlink:title=" ">
<polygon fill="none" stroke="black" points="497.5,-56.5 497.5,-75.5 556.5,-75.5 556.5,-56.5 497.5,-56.5"/>
<text text-anchor="middle" x="527" y="-63.5" font-family="Helvetica,sans-Serif" font-size="10.00">aprs.hpp</text>
</a>
</g>
</g>
<!-- Node2&#45;&gt;Node7 -->
<g id="edge6" class="edge">
<title>Node2&#45;&gt;Node7</title>
<path fill="none" stroke="midnightblue" d="M415.25,-108.91C442.32,-98.75 480.32,-84.51 504.29,-75.52"/>
<polygon fill="midnightblue" stroke="midnightblue" points="413.95,-105.66 405.82,-112.44 416.41,-112.21 413.95,-105.66"/>
</g>
<!-- Node15 -->
<g id="node15" class="node">
<title>Node15</title>
<g id="a_node15"><a xlink:href="pulse__test_8cpp.html" target="_top" xlink:title="PulseAudio output test. Does not use gtest.">
<polygon fill="none" stroke="black" points="842.5,-0.5 842.5,-19.5 929.5,-19.5 929.5,-0.5 842.5,-0.5"/>
<text text-anchor="middle" x="886" y="-7.5" font-family="Helvetica,sans-Serif" font-size="10.00">pulse_test.cpp</text>
</a>
</g>
</g>
<!-- Node2&#45;&gt;Node15 -->
<g id="edge15" class="edge">
<title>Node2&#45;&gt;Node15</title>
<path fill="none" stroke="midnightblue" d="M423.03,-111.79C586.28,-75.24 767.15,-36.39 845.93,-19.55"/>
<polygon fill="midnightblue" stroke="midnightblue" points="421.79,-108.48 412.8,-114.08 423.33,-115.31 421.79,-108.48"/>
</g>
<!-- Node8 -->
<g id="node8" class="node">
<title>Node8</title>
<g id="a_node8"><a xlink:href="aprs_8cpp.html" target="_top" xlink:title="APRS implementation.">
<polygon fill="none" stroke="black" points="0,-0.5 0,-19.5 58,-19.5 58,-0.5 0,-0.5"/>
<text text-anchor="middle" x="29" y="-7.5" font-family="Helvetica,sans-Serif" font-size="10.00">aprs.cpp</text>
</a>
</g>
</g>
<!-- Node7&#45;&gt;Node8 -->
<g id="edge7" class="edge">
<title>Node7&#45;&gt;Node8</title>
<path fill="none" stroke="midnightblue" d="M487.13,-56.11C300.69,-27.6 249.17,-49.2 67,-20 64.19,-19.55 61.28,-19 58.37,-18.41"/>
<polygon fill="midnightblue" stroke="midnightblue" points="486.85,-59.6 497.27,-57.68 487.93,-52.69 486.85,-59.6"/>
</g>
<!-- Node9 -->
<g id="node9" class="node">
<title>Node9</title>
<g id="a_node9"><a xlink:href="aprs__demodulator_8cpp.html" target="_top" xlink:title="Implementation of the APRS demodulator class.">
<polygon fill="none" stroke="black" points="76.5,-0.5 76.5,-19.5 201.5,-19.5 201.5,-0.5 76.5,-0.5"/>
<text text-anchor="middle" x="139" y="-7.5" font-family="Helvetica,sans-Serif" font-size="10.00">aprs_demodulator.cpp</text>
</a>
</g>
</g>
<!-- Node7&#45;&gt;Node9 -->
<g id="edge8" class="edge">
<title>Node7&#45;&gt;Node9</title>
<path fill="none" stroke="midnightblue" d="M487.2,-56.25C444.51,-50.07 290.22,-30.32 201.84,-19.02"/>
<polygon fill="midnightblue" stroke="midnightblue" points="486.83,-59.74 497.25,-57.82 487.91,-52.82 486.83,-59.74"/>
</g>
<!-- Node10 -->
<g id="node10" class="node">
<title>Node10</title>
<g id="a_node10"><a xlink:href="aprs__encoders_8cpp.html" target="_top" xlink:title="Encoding functions for APRS packets.">
<polygon fill="none" stroke="black" points="219.5,-0.5 219.5,-19.5 326.5,-19.5 326.5,-0.5 219.5,-0.5"/>
<text text-anchor="middle" x="273" y="-7.5" font-family="Helvetica,sans-Serif" font-size="10.00">aprs_encoders.cpp</text>
</a>
</g>
</g>
<!-- Node7&#45;&gt;Node10 -->
<g id="edge9" class="edge">
<title>Node7&#45;&gt;Node10</title>
<path fill="none" stroke="midnightblue" d="M487.07,-55.83C421.3,-41.41 356.34,-27.98 315.08,-19.54"/>
<polygon fill="midnightblue" stroke="midnightblue" points="486.69,-59.33 497.2,-58.06 488.19,-52.49 486.69,-59.33"/>
</g>
<!-- Node11 -->
<g id="node11" class="node">
<title>Node11</title>
<g id="a_node11"><a xlink:href="aprs__modulator_8cpp.html" target="_top" xlink:title="Implementation of the APRS modulator class.">
<polygon fill="none" stroke="black" points="344.5,-0.5 344.5,-19.5 457.5,-19.5 457.5,-0.5 344.5,-0.5"/>
<text text-anchor="middle" x="401" y="-7.5" font-family="Helvetica,sans-Serif" font-size="10.00">aprs_modulator.cpp</text>
</a>
</g>
</g>
<!-- Node7&#45;&gt;Node11 -->
<g id="edge10" class="edge">
<title>Node7&#45;&gt;Node11</title>
<path fill="none" stroke="midnightblue" d="M497.84,-52.5C474.22,-42.38 441.57,-28.39 420.87,-19.52"/>
<polygon fill="midnightblue" stroke="midnightblue" points="496.46,-55.72 507.03,-56.44 499.22,-49.29 496.46,-55.72"/>
</g>
<!-- Node12 -->
<g id="node12" class="node">
<title>Node12</title>
<g id="a_node12"><a xlink:href="aprs__receiver_8cpp.html" target="_top" xlink:title="Implementation of the APRS receiver class.">
<polygon fill="none" stroke="black" points="476,-0.5 476,-19.5 578,-19.5 578,-0.5 476,-0.5"/>
<text text-anchor="middle" x="527" y="-7.5" font-family="Helvetica,sans-Serif" font-size="10.00">aprs_receiver.cpp</text>
</a>
</g>
</g>
<!-- Node7&#45;&gt;Node12 -->
<g id="edge11" class="edge">
<title>Node7&#45;&gt;Node12</title>
<path fill="none" stroke="midnightblue" d="M527,-45.8C527,-36.91 527,-26.78 527,-19.75"/>
<polygon fill="midnightblue" stroke="midnightblue" points="523.5,-46.08 527,-56.08 530.5,-46.08 523.5,-46.08"/>
</g>
<!-- Node13 -->
<g id="node13" class="node">
<title>Node13</title>
<g id="a_node13"><a xlink:href="aprs__receiver__test_8cpp.html" target="_top" xlink:title="Integration tests for signal_easel::aprs::Receiver.">
<polygon fill="none" stroke="black" points="596.5,-0.5 596.5,-19.5 723.5,-19.5 723.5,-0.5 596.5,-0.5"/>
<text text-anchor="middle" x="660" y="-7.5" font-family="Helvetica,sans-Serif" font-size="10.00">aprs_receiver_test.cpp</text>
</a>
</g>
</g>
<!-- Node7&#45;&gt;Node13 -->
<g id="edge12" class="edge">
<title>Node7&#45;&gt;Node13</title>
<path fill="none" stroke="midnightblue" d="M557.45,-52.64C582.41,-42.5 617.08,-28.43 639.02,-19.52"/>
<polygon fill="midnightblue" stroke="midnightblue" points="556.02,-49.44 548.07,-56.44 558.66,-55.92 556.02,-49.44"/>
</g>
<!-- Node14 -->
<g id="node14" class="node">
<title>Node14</title>
<g id="a_node14"><a xlink:href="aprs__test_8cpp.html" target="_top" xlink:title=" ">
<polygon fill="none" stroke="black" points="742,-0.5 742,-19.5 824,-19.5 824,-0.5 742,-0.5"/>
<text text-anchor="middle" x="783" y="-7.5" font-family="Helvetica,sans-Serif" font-size="10.00">aprs_test.cpp</text>
</a>
</g>
</g>
<!-- Node7&#45;&gt;Node14 -->
<g id="edge13" class="edge">
<title>Node7&#45;&gt;Node14</title>
<path fill="none" stroke="midnightblue" d="M566.58,-56.65C614.3,-46.59 694.08,-29.76 742.3,-19.59"/>
<polygon fill="midnightblue" stroke="midnightblue" points="565.68,-53.26 556.62,-58.75 567.12,-60.11 565.68,-53.26"/>
</g>
<!-- Node7&#45;&gt;Node15 -->
<g id="edge14" class="edge">
<title>Node7&#45;&gt;Node15</title>
<path fill="none" stroke="midnightblue" d="M566.48,-59.48C624.81,-51.26 737.44,-35.14 833,-20 836.04,-19.52 839.18,-19.01 842.34,-18.49"/>
<polygon fill="midnightblue" stroke="midnightblue" points="565.99,-56.01 556.57,-60.87 566.96,-62.95 565.99,-56.01"/>
</g>
</g>
</svg>
