<?xml version="1.0" encoding="UTF-8" standalone="no"?>
<!DOCTYPE svg PUBLIC "-//W3C//DTD SVG 1.1//EN"
 "http://www.w3.org/Graphics/SVG/1.1/DTD/svg11.dtd">
<!-- Generated by graphviz version 2.43.0 (0)
 -->
<!-- Title: demodulator.hpp Pages: 1 -->
<svg width="236pt" height="140pt"
 viewBox="0.00 0.00 235.50 140.00" xmlns="http://www.w3.org/2000/svg" xmlns:xlink="http://www.w3.org/1999/xlink">
<g id="graph0" class="graph" transform="scale(1 1) rotate(0) translate(4 136)">
<title>demodulator.hpp</title>
<!-- Node1 -->
<g id="node1" class="node">
<title>Node1</title>
<g id="a_node1"><a xlink:title="Base class for demodulators.">
<polygon fill="#bfbfbf" stroke="black" points="0,-112.5 0,-131.5 99,-131.5 99,-112.5 0,-112.5"/>
<text text-anchor="middle" x="49.5" y="-119.5" font-family="Helvetica,sans-Serif" font-size="10.00">demodulator.hpp</text>
</a>
</g>
</g>
<!-- Node2 -->
<g id="node2" class="node">
<title>Node2</title>
<g id="a_node2"><a xlink:title=" ">
<polygon fill="none" stroke="#bfbfbf" points="56.5,-0.5 56.5,-19.5 100.5,-19.5 100.5,-0.5 56.5,-0.5"/>
<text text-anchor="middle" x="78.5" y="-7.5" font-family="Helvetica,sans-Serif" font-size="10.00">string</text>
</a>
</g>
</g>
<!-- Node1&#45;&gt;Node2 -->
<g id="edge1" class="edge">
<title>Node1&#45;&gt;Node2</title>
<path fill="none" stroke="midnightblue" d="M39.33,-112.16C26.22,-99.65 6.27,-76.07 16.5,-56 23.5,-42.27 36.87,-31.75 49.4,-24.35"/>
<polygon fill="midnightblue" stroke="midnightblue" points="51.17,-27.37 58.28,-19.51 47.82,-21.22 51.17,-27.37"/>
</g>
<!-- Node3 -->
<g id="node3" class="node">
<title>Node3</title>
<g id="a_node3"><a xlink:title=" ">
<polygon fill="none" stroke="#bfbfbf" points="26,-56.5 26,-75.5 73,-75.5 73,-56.5 26,-56.5"/>
<text text-anchor="middle" x="49.5" y="-63.5" font-family="Helvetica,sans-Serif" font-size="10.00">vector</text>
</a>
</g>
</g>
<!-- Node1&#45;&gt;Node3 -->
<g id="edge2" class="edge">
<title>Node1&#45;&gt;Node3</title>
<path fill="none" stroke="midnightblue" d="M49.5,-112.08C49.5,-105.01 49.5,-94.86 49.5,-85.99"/>
<polygon fill="midnightblue" stroke="midnightblue" points="53,-85.75 49.5,-75.75 46,-85.75 53,-85.75"/>
</g>
<!-- Node4 -->
<g id="node4" class="node">
<title>Node4</title>
<g id="a_node4"><a xlink:href="settings_8hpp.html" target="_top" xlink:title="Settings structures for SignalEasel.">
<polygon fill="none" stroke="black" points="91.5,-56.5 91.5,-75.5 227.5,-75.5 227.5,-56.5 91.5,-56.5"/>
<text text-anchor="middle" x="159.5" y="-63.5" font-family="Helvetica,sans-Serif" font-size="10.00">SignalEasel/settings.hpp</text>
</a>
</g>
</g>
<!-- Node1&#45;&gt;Node4 -->
<g id="edge3" class="edge">
<title>Node1&#45;&gt;Node4</title>
<path fill="none" stroke="midnightblue" d="M67.17,-112.32C84.89,-103.62 112.4,-90.12 132.79,-80.11"/>
<polygon fill="midnightblue" stroke="midnightblue" points="134.44,-83.2 141.87,-75.65 131.35,-76.92 134.44,-83.2"/>
</g>
<!-- Node4&#45;&gt;Node2 -->
<g id="edge4" class="edge">
<title>Node4&#45;&gt;Node2</title>
<path fill="none" stroke="midnightblue" d="M146.49,-56.32C133.97,-47.98 114.82,-35.21 100.03,-25.35"/>
<polygon fill="midnightblue" stroke="midnightblue" points="101.74,-22.29 91.48,-19.65 97.86,-28.11 101.74,-22.29"/>
</g>
</g>
</svg>
