<?xml version="1.0" encoding="UTF-8" standalone="no"?>
<!DOCTYPE svg PUBLIC "-//W3C//DTD SVG 1.1//EN"
 "http://www.w3.org/Graphics/SVG/1.1/DTD/svg11.dtd">
<!-- Generated by graphviz version 2.43.0 (0)
 -->
<!-- Title: src Pages: 1 -->
<svg width="454pt" height="132pt"
 viewBox="0.00 0.00 454.00 132.00" xmlns="http://www.w3.org/2000/svg" xmlns:xlink="http://www.w3.org/1999/xlink">
<g id="graph0" class="graph" transform="scale(1 1) rotate(0) translate(4 128)">
<title>src</title>
<g id="clust1" class="cluster">
<title>clusterdir_68267d1309a1af8e8297ef4c3efbcdba</title>
<g id="a_clust1"><a xlink:href="dir_68267d1309a1af8e8297ef4c3efbcdba.html" target="_top">
<polygon fill="#eeeeff" stroke="black" points="8,-64 8,-116 438,-116 438,-64 8,-64"/>
</a>
</g>
</g>
<!-- dir_68267d1309a1af8e8297ef4c3efbcdba -->
<g id="node1" class="node">
<title>dir_68267d1309a1af8e8297ef4c3efbcdba</title>
<text text-anchor="middle" x="403" y="-87.5" font-family="Helvetica,sans-Serif" font-size="10.00">src</text>
</g>
<!-- dir_03a66416d1b27c368b7fbdfccde2ab9b -->
<g id="node2" class="node">
<title>dir_03a66416d1b27c368b7fbdfccde2ab9b</title>
<g id="a_node2"><a xlink:href="dir_03a66416d1b27c368b7fbdfccde2ab9b.html" target="_top" xlink:title="afsk">
<polygon fill="white" stroke="black" points="358,-108 304,-108 304,-72 358,-72 358,-108"/>
<text text-anchor="middle" x="331" y="-87.5" font-family="Helvetica,sans-Serif" font-size="10.00">afsk</text>
</a>
</g>
</g>
<!-- dir_d44c64559bbebec7f509842c48db8b23 -->
<g id="node7" class="node">
<title>dir_d44c64559bbebec7f509842c48db8b23</title>
<g id="a_node7"><a xlink:href="dir_d44c64559bbebec7f509842c48db8b23.html" target="_top" xlink:title="include">
<polygon fill="none" stroke="red" points="214,-36 160,-36 160,0 214,0 214,-36"/>
<text text-anchor="middle" x="187" y="-15.5" font-family="Helvetica,sans-Serif" font-size="10.00">include</text>
</a>
</g>
</g>
<!-- dir_03a66416d1b27c368b7fbdfccde2ab9b&#45;&gt;dir_d44c64559bbebec7f509842c48db8b23 -->
<g id="edge4" class="edge">
<title>dir_03a66416d1b27c368b7fbdfccde2ab9b&#45;&gt;dir_d44c64559bbebec7f509842c48db8b23</title>
<path fill="none" stroke="black" d="M307.83,-71.85C303.66,-69.07 299.27,-66.34 295,-64 272.24,-51.54 245.29,-40.31 224.01,-32.18"/>
<polygon fill="black" stroke="black" points="224.96,-28.8 214.37,-28.56 222.5,-35.35 224.96,-28.8"/>
<g id="a_edge4&#45;headlabel"><a xlink:href="dir_000003_000000.html" target="_top" xlink:title="5">
<text text-anchor="middle" x="229.32" y="-24.9" font-family="Helvetica,sans-Serif" font-size="10.00">5</text>
</a>
</g>
</g>
<!-- dir_eb109cbc64d3053c2af6c5aadcde5926 -->
<g id="node3" class="node">
<title>dir_eb109cbc64d3053c2af6c5aadcde5926</title>
<g id="a_node3"><a xlink:href="dir_eb109cbc64d3053c2af6c5aadcde5926.html" target="_top" xlink:title="aprs">
<polygon fill="white" stroke="black" points="286,-108 232,-108 232,-72 286,-72 286,-108"/>
<text text-anchor="middle" x="259" y="-87.5" font-family="Helvetica,sans-Serif" font-size="10.00">aprs</text>
</a>
</g>
</g>
<!-- dir_eb109cbc64d3053c2af6c5aadcde5926&#45;&gt;dir_d44c64559bbebec7f509842c48db8b23 -->
<g id="edge1" class="edge">
<title>dir_eb109cbc64d3053c2af6c5aadcde5926&#45;&gt;dir_d44c64559bbebec7f509842c48db8b23</title>
<path fill="none" stroke="black" d="M241.2,-71.7C232.4,-63.14 221.62,-52.66 212,-43.3"/>
<polygon fill="black" stroke="black" points="214.2,-40.57 204.59,-36.1 209.32,-45.58 214.2,-40.57"/>
<g id="a_edge1&#45;headlabel"><a xlink:href="dir_000009_000000.html" target="_top" xlink:title="6">
<text text-anchor="middle" x="218.76" y="-38.54" font-family="Helvetica,sans-Serif" font-size="10.00">6</text>
</a>
</g>
</g>
<!-- dir_a25f2d8f32aab96ac086f799e15a4084 -->
<g id="node4" class="node">
<title>dir_a25f2d8f32aab96ac086f799e15a4084</title>
<g id="a_node4"><a xlink:href="dir_a25f2d8f32aab96ac086f799e15a4084.html" target="_top" xlink:title="ax25">
<polygon fill="white" stroke="black" points="214,-108 160,-108 160,-72 214,-72 214,-108"/>
<text text-anchor="middle" x="187" y="-87.5" font-family="Helvetica,sans-Serif" font-size="10.00">ax25</text>
</a>
</g>
</g>
<!-- dir_a25f2d8f32aab96ac086f799e15a4084&#45;&gt;dir_d44c64559bbebec7f509842c48db8b23 -->
<g id="edge2" class="edge">
<title>dir_a25f2d8f32aab96ac086f799e15a4084&#45;&gt;dir_d44c64559bbebec7f509842c48db8b23</title>
<path fill="none" stroke="black" d="M187,-71.7C187,-63.98 187,-54.71 187,-46.11"/>
<polygon fill="black" stroke="black" points="190.5,-46.1 187,-36.1 183.5,-46.1 190.5,-46.1"/>
<g id="a_edge2&#45;headlabel"><a xlink:href="dir_000010_000000.html" target="_top" xlink:title="5">
<text text-anchor="middle" x="193.34" y="-47.2" font-family="Helvetica,sans-Serif" font-size="10.00">5</text>
</a>
</g>
</g>
<!-- dir_df60fa4c6e8dfaa34f9f1f46ad6dd8e8 -->
<g id="node5" class="node">
<title>dir_df60fa4c6e8dfaa34f9f1f46ad6dd8e8</title>
<g id="a_node5"><a xlink:href="dir_df60fa4c6e8dfaa34f9f1f46ad6dd8e8.html" target="_top" xlink:title="psk">
<polygon fill="white" stroke="black" points="142,-108 88,-108 88,-72 142,-72 142,-108"/>
<text text-anchor="middle" x="115" y="-87.5" font-family="Helvetica,sans-Serif" font-size="10.00">psk</text>
</a>
</g>
</g>
<!-- dir_df60fa4c6e8dfaa34f9f1f46ad6dd8e8&#45;&gt;dir_d44c64559bbebec7f509842c48db8b23 -->
<g id="edge5" class="edge">
<title>dir_df60fa4c6e8dfaa34f9f1f46ad6dd8e8&#45;&gt;dir_d44c64559bbebec7f509842c48db8b23</title>
<path fill="none" stroke="black" d="M132.8,-71.7C141.6,-63.14 152.38,-52.66 162,-43.3"/>
<polygon fill="black" stroke="black" points="164.68,-45.58 169.41,-36.1 159.8,-40.57 164.68,-45.58"/>
<g id="a_edge5&#45;headlabel"><a xlink:href="dir_000011_000000.html" target="_top" xlink:title="9">
<text text-anchor="middle" x="164.08" y="-47.63" font-family="Helvetica,sans-Serif" font-size="10.00">9</text>
</a>
</g>
</g>
<!-- dir_831a8f5c141996a56c9dd4ad7a662880 -->
<g id="node6" class="node">
<title>dir_831a8f5c141996a56c9dd4ad7a662880</title>
<g id="a_node6"><a xlink:href="dir_831a8f5c141996a56c9dd4ad7a662880.html" target="_top" xlink:title="sstv">
<polygon fill="white" stroke="black" points="70,-108 16,-108 16,-72 70,-72 70,-108"/>
<text text-anchor="middle" x="43" y="-87.5" font-family="Helvetica,sans-Serif" font-size="10.00">sstv</text>
</a>
</g>
</g>
<!-- dir_831a8f5c141996a56c9dd4ad7a662880&#45;&gt;dir_d44c64559bbebec7f509842c48db8b23 -->
<g id="edge3" class="edge">
<title>dir_831a8f5c141996a56c9dd4ad7a662880&#45;&gt;dir_d44c64559bbebec7f509842c48db8b23</title>
<path fill="none" stroke="black" d="M66.17,-71.85C70.34,-69.07 74.73,-66.34 79,-64 101.76,-51.54 128.71,-40.31 149.99,-32.18"/>
<polygon fill="black" stroke="black" points="151.5,-35.35 159.63,-28.56 149.04,-28.8 151.5,-35.35"/>
<g id="a_edge3&#45;headlabel"><a xlink:href="dir_000013_000000.html" target="_top" xlink:title="3">
<text text-anchor="middle" x="149.13" y="-36.77" font-family="Helvetica,sans-Serif" font-size="10.00">3</text>
</a>
</g>
</g>
</g>
</svg>
