<?xml version="1.0" encoding="UTF-8" standalone="no"?>
<!DOCTYPE svg PUBLIC "-//W3C//DTD SVG 1.1//EN"
 "http://www.w3.org/Graphics/SVG/1.1/DTD/svg11.dtd">
<!-- Generated by graphviz version 2.43.0 (0)
 -->
<!-- Title: exception.hpp Pages: 1 -->
<svg width="1385pt" height="84pt"
 viewBox="0.00 0.00 1384.50 84.00" xmlns="http://www.w3.org/2000/svg" xmlns:xlink="http://www.w3.org/1999/xlink">
<g id="graph0" class="graph" transform="scale(1 1) rotate(0) translate(4 80)">
<title>exception.hpp</title>
<!-- Node1 -->
<g id="node1" class="node">
<title>Node1</title>
<g id="a_node1"><a xlink:title="SignalEasel exceptions.">
<polygon fill="#bfbfbf" stroke="black" points="598.5,-56.5 598.5,-75.5 684.5,-75.5 684.5,-56.5 598.5,-56.5"/>
<text text-anchor="middle" x="641.5" y="-63.5" font-family="Helvetica,sans-Serif" font-size="10.00">exception.hpp</text>
</a>
</g>
</g>
<!-- Node2 -->
<g id="node2" class="node">
<title>Node2</title>
<g id="a_node2"><a xlink:href="afsk__demodulator_8cpp.html" target="_top" xlink:title="The AFSK demodulator class implementation.">
<polygon fill="none" stroke="black" points="0,-0.5 0,-19.5 125,-19.5 125,-0.5 0,-0.5"/>
<text text-anchor="middle" x="62.5" y="-7.5" font-family="Helvetica,sans-Serif" font-size="10.00">afsk_demodulator.cpp</text>
</a>
</g>
</g>
<!-- Node1&#45;&gt;Node2 -->
<g id="edge1" class="edge">
<title>Node1&#45;&gt;Node2</title>
<path fill="none" stroke="midnightblue" d="M588.05,-60.93C495.4,-53.73 299,-37.81 133.5,-20 130.78,-19.71 128.01,-19.4 125.2,-19.08"/>
<polygon fill="midnightblue" stroke="midnightblue" points="588.05,-64.44 598.29,-61.73 588.59,-57.46 588.05,-64.44"/>
</g>
<!-- Node3 -->
<g id="node3" class="node">
<title>Node3</title>
<g id="a_node3"><a xlink:href="afsk__modulator_8cpp.html" target="_top" xlink:title="The AFSK modulator class implementation.">
<polygon fill="none" stroke="black" points="143,-0.5 143,-19.5 256,-19.5 256,-0.5 143,-0.5"/>
<text text-anchor="middle" x="199.5" y="-7.5" font-family="Helvetica,sans-Serif" font-size="10.00">afsk_modulator.cpp</text>
</a>
</g>
</g>
<!-- Node1&#45;&gt;Node3 -->
<g id="edge2" class="edge">
<title>Node1&#45;&gt;Node3</title>
<path fill="none" stroke="midnightblue" d="M588.03,-58.88C515.09,-50.47 380.33,-34.7 265.5,-20 262.4,-19.6 259.22,-19.19 256.02,-18.77"/>
<polygon fill="midnightblue" stroke="midnightblue" points="588,-62.4 598.33,-60.07 588.8,-55.45 588,-62.4"/>
</g>
<!-- Node4 -->
<g id="node4" class="node">
<title>Node4</title>
<g id="a_node4"><a xlink:href="aprs__receiver_8cpp.html" target="_top" xlink:title="Implementation of the APRS receiver class.">
<polygon fill="none" stroke="black" points="274.5,-0.5 274.5,-19.5 376.5,-19.5 376.5,-0.5 274.5,-0.5"/>
<text text-anchor="middle" x="325.5" y="-7.5" font-family="Helvetica,sans-Serif" font-size="10.00">aprs_receiver.cpp</text>
</a>
</g>
</g>
<!-- Node1&#45;&gt;Node4 -->
<g id="edge3" class="edge">
<title>Node1&#45;&gt;Node4</title>
<path fill="none" stroke="midnightblue" d="M588.28,-55.91C528.82,-45.74 433.3,-29.42 375.27,-19.51"/>
<polygon fill="midnightblue" stroke="midnightblue" points="587.78,-59.37 598.22,-57.6 588.96,-52.47 587.78,-59.37"/>
</g>
<!-- Node5 -->
<g id="node5" class="node">
<title>Node5</title>
<g id="a_node5"><a xlink:href="aprs_8cpp.html" target="_top" xlink:title="APRS implementation.">
<polygon fill="none" stroke="black" points="394.5,-0.5 394.5,-19.5 452.5,-19.5 452.5,-0.5 394.5,-0.5"/>
<text text-anchor="middle" x="423.5" y="-7.5" font-family="Helvetica,sans-Serif" font-size="10.00">aprs.cpp</text>
</a>
</g>
</g>
<!-- Node1&#45;&gt;Node5 -->
<g id="edge4" class="edge">
<title>Node1&#45;&gt;Node5</title>
<path fill="none" stroke="midnightblue" d="M597.01,-53.98C553.87,-43.29 489.66,-27.39 452.65,-18.22"/>
<polygon fill="midnightblue" stroke="midnightblue" points="596.41,-57.44 606.96,-56.44 598.09,-50.64 596.41,-57.44"/>
</g>
<!-- Node6 -->
<g id="node6" class="node">
<title>Node6</title>
<g id="a_node6"><a xlink:href="ax25__address_8cpp.html" target="_top" xlink:title="The AX.25 address class implementation.">
<polygon fill="none" stroke="black" points="470.5,-0.5 470.5,-19.5 574.5,-19.5 574.5,-0.5 470.5,-0.5"/>
<text text-anchor="middle" x="522.5" y="-7.5" font-family="Helvetica,sans-Serif" font-size="10.00">ax25_address.cpp</text>
</a>
</g>
</g>
<!-- Node1&#45;&gt;Node6 -->
<g id="edge5" class="edge">
<title>Node1&#45;&gt;Node6</title>
<path fill="none" stroke="midnightblue" d="M613.36,-52.23C591.1,-42.13 560.64,-28.31 541.27,-19.52"/>
<polygon fill="midnightblue" stroke="midnightblue" points="612.09,-55.5 622.64,-56.44 614.98,-49.12 612.09,-55.5"/>
</g>
<!-- Node7 -->
<g id="node7" class="node">
<title>Node7</title>
<g id="a_node7"><a xlink:href="demodulator_8cpp.html" target="_top" xlink:title="The demodulator class implementation.">
<polygon fill="none" stroke="black" points="592.5,-0.5 592.5,-19.5 690.5,-19.5 690.5,-0.5 592.5,-0.5"/>
<text text-anchor="middle" x="641.5" y="-7.5" font-family="Helvetica,sans-Serif" font-size="10.00">demodulator.cpp</text>
</a>
</g>
</g>
<!-- Node1&#45;&gt;Node7 -->
<g id="edge6" class="edge">
<title>Node1&#45;&gt;Node7</title>
<path fill="none" stroke="midnightblue" d="M641.5,-45.8C641.5,-36.91 641.5,-26.78 641.5,-19.75"/>
<polygon fill="midnightblue" stroke="midnightblue" points="638,-46.08 641.5,-56.08 645,-46.08 638,-46.08"/>
</g>
<!-- Node8 -->
<g id="node8" class="node">
<title>Node8</title>
<g id="a_node8"><a xlink:href="modulator_8cpp.html" target="_top" xlink:title="The abstract modulator class implementation.">
<polygon fill="none" stroke="black" points="708.5,-0.5 708.5,-19.5 794.5,-19.5 794.5,-0.5 708.5,-0.5"/>
<text text-anchor="middle" x="751.5" y="-7.5" font-family="Helvetica,sans-Serif" font-size="10.00">modulator.cpp</text>
</a>
</g>
</g>
<!-- Node1&#45;&gt;Node8 -->
<g id="edge7" class="edge">
<title>Node1&#45;&gt;Node8</title>
<path fill="none" stroke="midnightblue" d="M668.26,-51.86C688.66,-41.85 716.17,-28.35 733.87,-19.65"/>
<polygon fill="midnightblue" stroke="midnightblue" points="666.61,-48.78 659.17,-56.32 669.69,-55.06 666.61,-48.78"/>
</g>
<!-- Node9 -->
<g id="node9" class="node">
<title>Node9</title>
<g id="a_node9"><a xlink:href="morse__modulator_8cpp.html" target="_top" xlink:title="Simple morse code modulator.">
<polygon fill="none" stroke="black" points="812.5,-0.5 812.5,-19.5 934.5,-19.5 934.5,-0.5 812.5,-0.5"/>
<text text-anchor="middle" x="873.5" y="-7.5" font-family="Helvetica,sans-Serif" font-size="10.00">morse_modulator.cpp</text>
</a>
</g>
</g>
<!-- Node1&#45;&gt;Node9 -->
<g id="edge8" class="edge">
<title>Node1&#45;&gt;Node9</title>
<path fill="none" stroke="midnightblue" d="M688.1,-54.15C731.94,-43.95 796.68,-28.88 836.91,-19.52"/>
<polygon fill="midnightblue" stroke="midnightblue" points="687.21,-50.77 678.26,-56.44 688.79,-57.59 687.21,-50.77"/>
</g>
<!-- Node10 -->
<g id="node10" class="node">
<title>Node10</title>
<g id="a_node10"><a xlink:href="pulse__audio__reader_8cpp.html" target="_top" xlink:title="PulseAudio reader implementation.">
<polygon fill="none" stroke="black" points="953,-0.5 953,-19.5 1084,-19.5 1084,-0.5 953,-0.5"/>
<text text-anchor="middle" x="1018.5" y="-7.5" font-family="Helvetica,sans-Serif" font-size="10.00">pulse_audio_reader.cpp</text>
</a>
</g>
</g>
<!-- Node1&#45;&gt;Node10 -->
<g id="edge9" class="edge">
<title>Node1&#45;&gt;Node10</title>
<path fill="none" stroke="midnightblue" d="M695.07,-57.33C764.87,-47.33 886.52,-29.9 959.08,-19.51"/>
<polygon fill="midnightblue" stroke="midnightblue" points="694.15,-53.92 684.75,-58.81 695.14,-60.85 694.15,-53.92"/>
</g>
<!-- Node11 -->
<g id="node11" class="node">
<title>Node11</title>
<g id="a_node11"><a xlink:href="pulse__audio__writer_8cpp.html" target="_top" xlink:title=" ">
<polygon fill="none" stroke="black" points="1102.5,-0.5 1102.5,-19.5 1230.5,-19.5 1230.5,-0.5 1102.5,-0.5"/>
<text text-anchor="middle" x="1166.5" y="-7.5" font-family="Helvetica,sans-Serif" font-size="10.00">pulse_audio_writer.cpp</text>
</a>
</g>
</g>
<!-- Node1&#45;&gt;Node11 -->
<g id="edge10" class="edge">
<title>Node1&#45;&gt;Node11</title>
<path fill="none" stroke="midnightblue" d="M694.66,-60.11C779.19,-52.25 949.42,-36.05 1093.5,-20 1096.42,-19.67 1099.4,-19.34 1102.42,-18.99"/>
<polygon fill="midnightblue" stroke="midnightblue" points="694.17,-56.64 684.54,-61.05 694.82,-63.61 694.17,-56.64"/>
</g>
<!-- Node12 -->
<g id="node12" class="node">
<title>Node12</title>
<g id="a_node12"><a xlink:href="ax25__address__test_8cpp.html" target="_top" xlink:title=" ">
<polygon fill="none" stroke="black" points="1248.5,-0.5 1248.5,-19.5 1376.5,-19.5 1376.5,-0.5 1248.5,-0.5"/>
<text text-anchor="middle" x="1312.5" y="-7.5" font-family="Helvetica,sans-Serif" font-size="10.00">ax25_address_test.cpp</text>
</a>
</g>
</g>
<!-- Node1&#45;&gt;Node12 -->
<g id="edge11" class="edge">
<title>Node1&#45;&gt;Node12</title>
<path fill="none" stroke="midnightblue" d="M694.7,-61.85C799.23,-55.47 1038.72,-39.92 1239.5,-20 1242.42,-19.71 1245.41,-19.4 1248.43,-19.07"/>
<polygon fill="midnightblue" stroke="midnightblue" points="694.48,-58.36 684.71,-62.46 694.9,-65.34 694.48,-58.36"/>
</g>
</g>
</svg>
