<?xml version="1.0" encoding="UTF-8" standalone="no"?>
<!DOCTYPE svg PUBLIC "-//W3C//DTD SVG 1.1//EN"
 "http://www.w3.org/Graphics/SVG/1.1/DTD/svg11.dtd">
<!-- Generated by graphviz version 2.43.0 (0)
 -->
<!-- Title: exception.hpp Pages: 1 -->
<svg width="1510pt" height="84pt"
 viewBox="0.00 0.00 1509.50 84.00" xmlns="http://www.w3.org/2000/svg" xmlns:xlink="http://www.w3.org/1999/xlink">
<g id="graph0" class="graph" transform="scale(1 1) rotate(0) translate(4 80)">
<title>exception.hpp</title>
<!-- Node1 -->
<g id="node1" class="node">
<title>Node1</title>
<g id="a_node1"><a xlink:title="SignalEasel exceptions.">
<polygon fill="#bfbfbf" stroke="black" points="663.5,-56.5 663.5,-75.5 749.5,-75.5 749.5,-56.5 663.5,-56.5"/>
<text text-anchor="middle" x="706.5" y="-63.5" font-family="Helvetica,sans-Serif" font-size="10.00">exception.hpp</text>
</a>
</g>
</g>
<!-- Node2 -->
<g id="node2" class="node">
<title>Node2</title>
<g id="a_node2"><a xlink:href="afsk__demodulator_8cpp.html" target="_top" xlink:title="The AFSK demodulator class implementation.">
<polygon fill="none" stroke="black" points="0,-0.5 0,-19.5 125,-19.5 125,-0.5 0,-0.5"/>
<text text-anchor="middle" x="62.5" y="-7.5" font-family="Helvetica,sans-Serif" font-size="10.00">afsk_demodulator.cpp</text>
</a>
</g>
</g>
<!-- Node1&#45;&gt;Node2 -->
<g id="edge1" class="edge">
<title>Node1&#45;&gt;Node2</title>
<path fill="none" stroke="midnightblue" d="M653.33,-61.67C552.03,-55.15 324.48,-39.59 133.5,-20 130.78,-19.72 128,-19.42 125.2,-19.11"/>
<polygon fill="midnightblue" stroke="midnightblue" points="653.1,-65.17 663.31,-62.31 653.55,-58.18 653.1,-65.17"/>
</g>
<!-- Node3 -->
<g id="node3" class="node">
<title>Node3</title>
<g id="a_node3"><a xlink:href="afsk__modulator_8cpp.html" target="_top" xlink:title="The AFSK modulator class implementation.">
<polygon fill="none" stroke="black" points="143,-0.5 143,-19.5 256,-19.5 256,-0.5 143,-0.5"/>
<text text-anchor="middle" x="199.5" y="-7.5" font-family="Helvetica,sans-Serif" font-size="10.00">afsk_modulator.cpp</text>
</a>
</g>
</g>
<!-- Node1&#45;&gt;Node3 -->
<g id="edge2" class="edge">
<title>Node1&#45;&gt;Node3</title>
<path fill="none" stroke="midnightblue" d="M653.26,-60.21C570.16,-52.58 404.59,-36.82 264.5,-20 261.79,-19.67 259.01,-19.33 256.2,-18.97"/>
<polygon fill="midnightblue" stroke="midnightblue" points="653.19,-63.71 663.46,-61.14 653.82,-56.74 653.19,-63.71"/>
</g>
<!-- Node4 -->
<g id="node4" class="node">
<title>Node4</title>
<g id="a_node4"><a xlink:href="aprs__encoders_8cpp.html" target="_top" xlink:title="Encoding functions for APRS packets.">
<polygon fill="none" stroke="black" points="274,-0.5 274,-19.5 381,-19.5 381,-0.5 274,-0.5"/>
<text text-anchor="middle" x="327.5" y="-7.5" font-family="Helvetica,sans-Serif" font-size="10.00">aprs_encoders.cpp</text>
</a>
</g>
</g>
<!-- Node1&#45;&gt;Node4 -->
<g id="edge3" class="edge">
<title>Node1&#45;&gt;Node4</title>
<path fill="none" stroke="midnightblue" d="M653.24,-57.42C590.43,-48.49 482.87,-33.17 390.5,-20 387.44,-19.56 384.29,-19.11 381.12,-18.66"/>
<polygon fill="midnightblue" stroke="midnightblue" points="652.92,-60.91 663.31,-58.86 653.9,-53.98 652.92,-60.91"/>
</g>
<!-- Node5 -->
<g id="node5" class="node">
<title>Node5</title>
<g id="a_node5"><a xlink:href="aprs__receiver_8cpp.html" target="_top" xlink:title="Implementation of the APRS receiver class.">
<polygon fill="none" stroke="black" points="399.5,-0.5 399.5,-19.5 501.5,-19.5 501.5,-0.5 399.5,-0.5"/>
<text text-anchor="middle" x="450.5" y="-7.5" font-family="Helvetica,sans-Serif" font-size="10.00">aprs_receiver.cpp</text>
</a>
</g>
</g>
<!-- Node1&#45;&gt;Node5 -->
<g id="edge4" class="edge">
<title>Node1&#45;&gt;Node5</title>
<path fill="none" stroke="midnightblue" d="M655.99,-54.35C607.61,-44.14 535.55,-28.94 490.87,-19.52"/>
<polygon fill="midnightblue" stroke="midnightblue" points="655.43,-57.8 665.94,-56.44 656.87,-50.95 655.43,-57.8"/>
</g>
<!-- Node6 -->
<g id="node6" class="node">
<title>Node6</title>
<g id="a_node6"><a xlink:href="aprs_8cpp.html" target="_top" xlink:title="APRS implementation.">
<polygon fill="none" stroke="black" points="519.5,-0.5 519.5,-19.5 577.5,-19.5 577.5,-0.5 519.5,-0.5"/>
<text text-anchor="middle" x="548.5" y="-7.5" font-family="Helvetica,sans-Serif" font-size="10.00">aprs.cpp</text>
</a>
</g>
</g>
<!-- Node1&#45;&gt;Node6 -->
<g id="edge5" class="edge">
<title>Node1&#45;&gt;Node6</title>
<path fill="none" stroke="midnightblue" d="M671.89,-53.17C642.14,-43 599.95,-28.59 573.42,-19.52"/>
<polygon fill="midnightblue" stroke="midnightblue" points="670.87,-56.52 681.46,-56.44 673.13,-49.9 670.87,-56.52"/>
</g>
<!-- Node7 -->
<g id="node7" class="node">
<title>Node7</title>
<g id="a_node7"><a xlink:href="ax25__address_8cpp.html" target="_top" xlink:title="The AX.25 address class implementation.">
<polygon fill="none" stroke="black" points="595.5,-0.5 595.5,-19.5 699.5,-19.5 699.5,-0.5 595.5,-0.5"/>
<text text-anchor="middle" x="647.5" y="-7.5" font-family="Helvetica,sans-Serif" font-size="10.00">ax25_address.cpp</text>
</a>
</g>
</g>
<!-- Node1&#45;&gt;Node7 -->
<g id="edge6" class="edge">
<title>Node1&#45;&gt;Node7</title>
<path fill="none" stroke="midnightblue" d="M689.61,-49.54C679.09,-39.91 665.93,-27.87 657.15,-19.83"/>
<polygon fill="midnightblue" stroke="midnightblue" points="687.28,-52.15 697.02,-56.32 692.01,-46.99 687.28,-52.15"/>
</g>
<!-- Node8 -->
<g id="node8" class="node">
<title>Node8</title>
<g id="a_node8"><a xlink:href="demodulator_8cpp.html" target="_top" xlink:title="The demodulator class implementation.">
<polygon fill="none" stroke="black" points="717.5,-0.5 717.5,-19.5 815.5,-19.5 815.5,-0.5 717.5,-0.5"/>
<text text-anchor="middle" x="766.5" y="-7.5" font-family="Helvetica,sans-Serif" font-size="10.00">demodulator.cpp</text>
</a>
</g>
</g>
<!-- Node1&#45;&gt;Node8 -->
<g id="edge7" class="edge">
<title>Node1&#45;&gt;Node8</title>
<path fill="none" stroke="midnightblue" d="M723.68,-49.54C734.38,-39.91 747.76,-27.87 756.68,-19.83"/>
<polygon fill="midnightblue" stroke="midnightblue" points="721.23,-47.03 716.14,-56.32 725.91,-52.24 721.23,-47.03"/>
</g>
<!-- Node9 -->
<g id="node9" class="node">
<title>Node9</title>
<g id="a_node9"><a xlink:href="modulator_8cpp.html" target="_top" xlink:title="The abstract modulator class implementation.">
<polygon fill="none" stroke="black" points="833.5,-0.5 833.5,-19.5 919.5,-19.5 919.5,-0.5 833.5,-0.5"/>
<text text-anchor="middle" x="876.5" y="-7.5" font-family="Helvetica,sans-Serif" font-size="10.00">modulator.cpp</text>
</a>
</g>
</g>
<!-- Node1&#45;&gt;Node9 -->
<g id="edge8" class="edge">
<title>Node1&#45;&gt;Node9</title>
<path fill="none" stroke="midnightblue" d="M743.32,-53.3C775.35,-43.13 821.02,-28.62 849.69,-19.52"/>
<polygon fill="midnightblue" stroke="midnightblue" points="741.91,-50.08 733.44,-56.44 744.03,-56.75 741.91,-50.08"/>
</g>
<!-- Node10 -->
<g id="node10" class="node">
<title>Node10</title>
<g id="a_node10"><a xlink:href="morse__modulator_8cpp.html" target="_top" xlink:title="Simple morse code modulator.">
<polygon fill="none" stroke="black" points="937.5,-0.5 937.5,-19.5 1059.5,-19.5 1059.5,-0.5 937.5,-0.5"/>
<text text-anchor="middle" x="998.5" y="-7.5" font-family="Helvetica,sans-Serif" font-size="10.00">morse_modulator.cpp</text>
</a>
</g>
</g>
<!-- Node1&#45;&gt;Node10 -->
<g id="edge9" class="edge">
<title>Node1&#45;&gt;Node10</title>
<path fill="none" stroke="midnightblue" d="M759.5,-55.2C814.59,-45.01 899.94,-29.23 952.34,-19.54"/>
<polygon fill="midnightblue" stroke="midnightblue" points="758.78,-51.77 749.59,-57.03 760.06,-58.66 758.78,-51.77"/>
</g>
<!-- Node11 -->
<g id="node11" class="node">
<title>Node11</title>
<g id="a_node11"><a xlink:href="pulse__audio__reader_8cpp.html" target="_top" xlink:title="PulseAudio reader implementation.">
<polygon fill="none" stroke="black" points="1078,-0.5 1078,-19.5 1209,-19.5 1209,-0.5 1078,-0.5"/>
<text text-anchor="middle" x="1143.5" y="-7.5" font-family="Helvetica,sans-Serif" font-size="10.00">pulse_audio_reader.cpp</text>
</a>
</g>
</g>
<!-- Node1&#45;&gt;Node11 -->
<g id="edge10" class="edge">
<title>Node1&#45;&gt;Node11</title>
<path fill="none" stroke="midnightblue" d="M759.95,-58.4C840.05,-48.5 991.09,-29.83 1077.81,-19.12"/>
<polygon fill="midnightblue" stroke="midnightblue" points="759.09,-54.97 749.6,-59.67 759.95,-61.92 759.09,-54.97"/>
</g>
<!-- Node12 -->
<g id="node12" class="node">
<title>Node12</title>
<g id="a_node12"><a xlink:href="pulse__audio__writer_8cpp.html" target="_top" xlink:title=" ">
<polygon fill="none" stroke="black" points="1227.5,-0.5 1227.5,-19.5 1355.5,-19.5 1355.5,-0.5 1227.5,-0.5"/>
<text text-anchor="middle" x="1291.5" y="-7.5" font-family="Helvetica,sans-Serif" font-size="10.00">pulse_audio_writer.cpp</text>
</a>
</g>
</g>
<!-- Node1&#45;&gt;Node12 -->
<g id="edge11" class="edge">
<title>Node1&#45;&gt;Node12</title>
<path fill="none" stroke="midnightblue" d="M759.72,-60.94C852.83,-53.7 1051.28,-37.65 1218.5,-20 1221.42,-19.69 1224.41,-19.37 1227.42,-19.03"/>
<polygon fill="midnightblue" stroke="midnightblue" points="759.4,-57.45 749.7,-61.72 759.94,-64.43 759.4,-57.45"/>
</g>
<!-- Node13 -->
<g id="node13" class="node">
<title>Node13</title>
<g id="a_node13"><a xlink:href="ax25__address__test_8cpp.html" target="_top" xlink:title=" ">
<polygon fill="none" stroke="black" points="1373.5,-0.5 1373.5,-19.5 1501.5,-19.5 1501.5,-0.5 1373.5,-0.5"/>
<text text-anchor="middle" x="1437.5" y="-7.5" font-family="Helvetica,sans-Serif" font-size="10.00">ax25_address_test.cpp</text>
</a>
</g>
</g>
<!-- Node1&#45;&gt;Node13 -->
<g id="edge12" class="edge">
<title>Node1&#45;&gt;Node13</title>
<path fill="none" stroke="midnightblue" d="M759.71,-62.34C871.74,-56.54 1140.12,-41.49 1364.5,-20 1367.42,-19.72 1370.41,-19.42 1373.43,-19.1"/>
<polygon fill="midnightblue" stroke="midnightblue" points="759.49,-58.85 749.68,-62.86 759.85,-65.84 759.49,-58.85"/>
</g>
</g>
</svg>
