<?xml version="1.0" encoding="UTF-8" standalone="no"?>
<!DOCTYPE svg PUBLIC "-//W3C//DTD SVG 1.1//EN"
 "http://www.w3.org/Graphics/SVG/1.1/DTD/svg11.dtd">
<!-- Generated by graphviz version 2.43.0 (0)
 -->
<!-- Title: exception.hpp Pages: 1 -->
<svg width="1804pt" height="196pt"
 viewBox="0.00 0.00 1803.50 196.00" xmlns="http://www.w3.org/2000/svg" xmlns:xlink="http://www.w3.org/1999/xlink">
<g id="graph0" class="graph" transform="scale(1 1) rotate(0) translate(4 192)">
<title>exception.hpp</title>
<!-- Node1 -->
<g id="node1" class="node">
<title>Node1</title>
<g id="a_node1"><a xlink:title="SignalEasel exceptions.">
<polygon fill="#bfbfbf" stroke="black" points="894.5,-168.5 894.5,-187.5 980.5,-187.5 980.5,-168.5 894.5,-168.5"/>
<text text-anchor="middle" x="937.5" y="-175.5" font-family="Helvetica,sans-Serif" font-size="10.00">exception.hpp</text>
</a>
</g>
</g>
<!-- Node2 -->
<g id="node2" class="node">
<title>Node2</title>
<g id="a_node2"><a xlink:href="afsk__demodulator_8cpp.html" target="_top" xlink:title="The AFSK demodulator class implementation.">
<polygon fill="none" stroke="black" points="0,-112.5 0,-131.5 125,-131.5 125,-112.5 0,-112.5"/>
<text text-anchor="middle" x="62.5" y="-119.5" font-family="Helvetica,sans-Serif" font-size="10.00">afsk_demodulator.cpp</text>
</a>
</g>
</g>
<!-- Node1&#45;&gt;Node2 -->
<g id="edge1" class="edge">
<title>Node1&#45;&gt;Node2</title>
<path fill="none" stroke="midnightblue" d="M884.27,-175.31C755.27,-170.94 415.79,-157.76 133.5,-132 130.78,-131.75 128,-131.48 125.19,-131.19"/>
<polygon fill="midnightblue" stroke="midnightblue" points="884.17,-178.81 894.28,-175.65 884.4,-171.82 884.17,-178.81"/>
</g>
<!-- Node3 -->
<g id="node3" class="node">
<title>Node3</title>
<g id="a_node3"><a xlink:href="afsk__modulator_8cpp.html" target="_top" xlink:title="The AFSK modulator class implementation.">
<polygon fill="none" stroke="black" points="143,-112.5 143,-131.5 256,-131.5 256,-112.5 143,-112.5"/>
<text text-anchor="middle" x="199.5" y="-119.5" font-family="Helvetica,sans-Serif" font-size="10.00">afsk_modulator.cpp</text>
</a>
</g>
</g>
<!-- Node1&#45;&gt;Node3 -->
<g id="edge2" class="edge">
<title>Node1&#45;&gt;Node3</title>
<path fill="none" stroke="midnightblue" d="M884.31,-174.73C770.44,-169.58 494.66,-155.6 264.5,-132 261.78,-131.72 259,-131.42 256.19,-131.09"/>
<polygon fill="midnightblue" stroke="midnightblue" points="884.35,-178.23 894.5,-175.18 884.67,-171.24 884.35,-178.23"/>
</g>
<!-- Node4 -->
<g id="node4" class="node">
<title>Node4</title>
<g id="a_node4"><a xlink:href="aprs__encoders_8cpp.html" target="_top" xlink:title="Encoding functions for APRS packets.">
<polygon fill="none" stroke="black" points="274,-112.5 274,-131.5 381,-131.5 381,-112.5 274,-112.5"/>
<text text-anchor="middle" x="327.5" y="-119.5" font-family="Helvetica,sans-Serif" font-size="10.00">aprs_encoders.cpp</text>
</a>
</g>
</g>
<!-- Node1&#45;&gt;Node4 -->
<g id="edge3" class="edge">
<title>Node1&#45;&gt;Node4</title>
<path fill="none" stroke="midnightblue" d="M883.91,-173.66C785.83,-167.31 570.94,-152.29 390.5,-132 387.43,-131.65 384.27,-131.28 381.09,-130.88"/>
<polygon fill="midnightblue" stroke="midnightblue" points="883.96,-177.17 894.16,-174.32 884.4,-170.18 883.96,-177.17"/>
</g>
<!-- Node5 -->
<g id="node5" class="node">
<title>Node5</title>
<g id="a_node5"><a xlink:href="aprs__receiver_8cpp.html" target="_top" xlink:title="Implementation of the APRS receiver class.">
<polygon fill="none" stroke="black" points="399.5,-112.5 399.5,-131.5 501.5,-131.5 501.5,-112.5 399.5,-112.5"/>
<text text-anchor="middle" x="450.5" y="-119.5" font-family="Helvetica,sans-Serif" font-size="10.00">aprs_receiver.cpp</text>
</a>
</g>
</g>
<!-- Node1&#45;&gt;Node5 -->
<g id="edge4" class="edge">
<title>Node1&#45;&gt;Node5</title>
<path fill="none" stroke="midnightblue" d="M883.97,-172.12C803,-164.56 644.6,-149.12 510.5,-132 507.57,-131.63 504.57,-131.23 501.54,-130.81"/>
<polygon fill="midnightblue" stroke="midnightblue" points="884.11,-175.65 894.4,-173.09 884.76,-168.68 884.11,-175.65"/>
</g>
<!-- Node6 -->
<g id="node6" class="node">
<title>Node6</title>
<g id="a_node6"><a xlink:href="aprs_8cpp.html" target="_top" xlink:title="APRS implementation.">
<polygon fill="none" stroke="black" points="519.5,-112.5 519.5,-131.5 577.5,-131.5 577.5,-112.5 519.5,-112.5"/>
<text text-anchor="middle" x="548.5" y="-119.5" font-family="Helvetica,sans-Serif" font-size="10.00">aprs.cpp</text>
</a>
</g>
</g>
<!-- Node1&#45;&gt;Node6 -->
<g id="edge5" class="edge">
<title>Node1&#45;&gt;Node6</title>
<path fill="none" stroke="midnightblue" d="M884.13,-171.92C815.1,-164.95 691.28,-151.07 586.5,-132 583.7,-131.49 580.79,-130.91 577.89,-130.28"/>
<polygon fill="midnightblue" stroke="midnightblue" points="884.02,-175.43 894.32,-172.94 884.72,-168.46 884.02,-175.43"/>
</g>
<!-- Node7 -->
<g id="node7" class="node">
<title>Node7</title>
<g id="a_node7"><a xlink:href="ax25__address_8cpp.html" target="_top" xlink:title="The AX.25 address class implementation.">
<polygon fill="none" stroke="black" points="595.5,-112.5 595.5,-131.5 699.5,-131.5 699.5,-112.5 595.5,-112.5"/>
<text text-anchor="middle" x="647.5" y="-119.5" font-family="Helvetica,sans-Serif" font-size="10.00">ax25_address.cpp</text>
</a>
</g>
</g>
<!-- Node1&#45;&gt;Node7 -->
<g id="edge6" class="edge">
<title>Node1&#45;&gt;Node7</title>
<path fill="none" stroke="midnightblue" d="M884.53,-167.14C829.78,-156.94 745.17,-141.19 693.24,-131.52"/>
<polygon fill="midnightblue" stroke="midnightblue" points="883.93,-170.58 894.4,-168.97 885.21,-163.7 883.93,-170.58"/>
</g>
<!-- Node8 -->
<g id="node8" class="node">
<title>Node8</title>
<g id="a_node8"><a xlink:href="demodulator_8cpp.html" target="_top" xlink:title="The demodulator class implementation.">
<polygon fill="none" stroke="black" points="717.5,-112.5 717.5,-131.5 815.5,-131.5 815.5,-112.5 717.5,-112.5"/>
<text text-anchor="middle" x="766.5" y="-119.5" font-family="Helvetica,sans-Serif" font-size="10.00">demodulator.cpp</text>
</a>
</g>
</g>
<!-- Node1&#45;&gt;Node8 -->
<g id="edge7" class="edge">
<title>Node1&#45;&gt;Node8</title>
<path fill="none" stroke="midnightblue" d="M900.46,-165.3C868.24,-155.13 822.31,-140.62 793.47,-131.52"/>
<polygon fill="midnightblue" stroke="midnightblue" points="899.81,-168.77 910.4,-168.44 901.92,-162.09 899.81,-168.77"/>
</g>
<!-- Node9 -->
<g id="node9" class="node">
<title>Node9</title>
<g id="a_node9"><a xlink:href="modulator_8cpp.html" target="_top" xlink:title="The abstract modulator class implementation.">
<polygon fill="none" stroke="black" points="833.5,-112.5 833.5,-131.5 919.5,-131.5 919.5,-112.5 833.5,-112.5"/>
<text text-anchor="middle" x="876.5" y="-119.5" font-family="Helvetica,sans-Serif" font-size="10.00">modulator.cpp</text>
</a>
</g>
</g>
<!-- Node1&#45;&gt;Node9 -->
<g id="edge8" class="edge">
<title>Node1&#45;&gt;Node9</title>
<path fill="none" stroke="midnightblue" d="M920.03,-161.54C909.16,-151.91 895.56,-139.87 886.48,-131.83"/>
<polygon fill="midnightblue" stroke="midnightblue" points="917.89,-164.32 927.7,-168.32 922.53,-159.07 917.89,-164.32"/>
</g>
<!-- Node10 -->
<g id="node10" class="node">
<title>Node10</title>
<g id="a_node10"><a xlink:href="morse__modulator_8cpp.html" target="_top" xlink:title="Simple morse code modulator.">
<polygon fill="none" stroke="black" points="937.5,-112.5 937.5,-131.5 1059.5,-131.5 1059.5,-112.5 937.5,-112.5"/>
<text text-anchor="middle" x="998.5" y="-119.5" font-family="Helvetica,sans-Serif" font-size="10.00">morse_modulator.cpp</text>
</a>
</g>
</g>
<!-- Node1&#45;&gt;Node10 -->
<g id="edge9" class="edge">
<title>Node1&#45;&gt;Node10</title>
<path fill="none" stroke="midnightblue" d="M954.97,-161.54C965.84,-151.91 979.44,-139.87 988.52,-131.83"/>
<polygon fill="midnightblue" stroke="midnightblue" points="952.47,-159.07 947.3,-168.32 957.11,-164.32 952.47,-159.07"/>
</g>
<!-- Node11 -->
<g id="node11" class="node">
<title>Node11</title>
<g id="a_node11"><a xlink:href="convolutional__code_8cpp.html" target="_top" xlink:title="Convolutional Code Implementation.">
<polygon fill="none" stroke="black" points="1047,-0.5 1047,-19.5 1178,-19.5 1178,-0.5 1047,-0.5"/>
<text text-anchor="middle" x="1112.5" y="-7.5" font-family="Helvetica,sans-Serif" font-size="10.00">convolutional_code.cpp</text>
</a>
</g>
</g>
<!-- Node1&#45;&gt;Node11 -->
<g id="edge10" class="edge">
<title>Node1&#45;&gt;Node11</title>
<path fill="none" stroke="midnightblue" d="M990.45,-169.81C1016.88,-163.73 1047.58,-152.55 1068.5,-132 1101.19,-99.89 1109.74,-41.61 1111.85,-19.67"/>
<polygon fill="midnightblue" stroke="midnightblue" points="989.62,-166.4 980.56,-171.89 991.07,-173.25 989.62,-166.4"/>
</g>
<!-- Node12 -->
<g id="node12" class="node">
<title>Node12</title>
<g id="a_node12"><a xlink:href="psk__wave__shaper_8hpp.html" target="_top" xlink:title=" ">
<polygon fill="none" stroke="black" points="1115.5,-112.5 1115.5,-131.5 1239.5,-131.5 1239.5,-112.5 1115.5,-112.5"/>
<text text-anchor="middle" x="1177.5" y="-119.5" font-family="Helvetica,sans-Serif" font-size="10.00">psk_wave_shaper.hpp</text>
</a>
</g>
</g>
<!-- Node1&#45;&gt;Node12 -->
<g id="edge11" class="edge">
<title>Node1&#45;&gt;Node12</title>
<path fill="none" stroke="midnightblue" d="M985.42,-166.22C1030.77,-156.01 1097.94,-140.9 1139.65,-131.52"/>
<polygon fill="midnightblue" stroke="midnightblue" points="984.52,-162.83 975.53,-168.44 986.05,-169.66 984.52,-162.83"/>
</g>
<!-- Node15 -->
<g id="node15" class="node">
<title>Node15</title>
<g id="a_node15"><a xlink:href="pulse__audio__reader_8cpp.html" target="_top" xlink:title="PulseAudio reader implementation.">
<polygon fill="none" stroke="black" points="1258,-112.5 1258,-131.5 1389,-131.5 1389,-112.5 1258,-112.5"/>
<text text-anchor="middle" x="1323.5" y="-119.5" font-family="Helvetica,sans-Serif" font-size="10.00">pulse_audio_reader.cpp</text>
</a>
</g>
</g>
<!-- Node1&#45;&gt;Node15 -->
<g id="edge16" class="edge">
<title>Node1&#45;&gt;Node15</title>
<path fill="none" stroke="midnightblue" d="M990.75,-169.55C1061.91,-159.6 1187.74,-141.99 1262.59,-131.52"/>
<polygon fill="midnightblue" stroke="midnightblue" points="990.07,-166.11 980.66,-170.96 991.04,-173.04 990.07,-166.11"/>
</g>
<!-- Node16 -->
<g id="node16" class="node">
<title>Node16</title>
<g id="a_node16"><a xlink:href="pulse__audio__writer_8cpp.html" target="_top" xlink:title=" ">
<polygon fill="none" stroke="black" points="1407.5,-112.5 1407.5,-131.5 1535.5,-131.5 1535.5,-112.5 1407.5,-112.5"/>
<text text-anchor="middle" x="1471.5" y="-119.5" font-family="Helvetica,sans-Serif" font-size="10.00">pulse_audio_writer.cpp</text>
</a>
</g>
</g>
<!-- Node1&#45;&gt;Node16 -->
<g id="edge17" class="edge">
<title>Node1&#45;&gt;Node16</title>
<path fill="none" stroke="midnightblue" d="M990.67,-172.21C1076.37,-164.39 1250.34,-148.15 1397.5,-132 1400.72,-131.65 1404.01,-131.28 1407.34,-130.9"/>
<polygon fill="midnightblue" stroke="midnightblue" points="990.3,-168.73 980.66,-173.12 990.94,-175.7 990.3,-168.73"/>
</g>
<!-- Node17 -->
<g id="node17" class="node">
<title>Node17</title>
<g id="a_node17"><a xlink:href="sstv__modulator_8cpp.html" target="_top" xlink:title="SSTV implementation.">
<polygon fill="none" stroke="black" points="1507.5,-56.5 1507.5,-75.5 1619.5,-75.5 1619.5,-56.5 1507.5,-56.5"/>
<text text-anchor="middle" x="1563.5" y="-63.5" font-family="Helvetica,sans-Serif" font-size="10.00">sstv_modulator.cpp</text>
</a>
</g>
</g>
<!-- Node1&#45;&gt;Node17 -->
<g id="edge18" class="edge">
<title>Node1&#45;&gt;Node17</title>
<path fill="none" stroke="midnightblue" d="M990.89,-176.47C1131.11,-174.59 1501.97,-166.41 1544.5,-132 1561.5,-118.25 1563.83,-90.17 1563.83,-75.84"/>
<polygon fill="midnightblue" stroke="midnightblue" points="990.76,-172.97 980.81,-176.6 990.85,-179.97 990.76,-172.97"/>
</g>
<!-- Node18 -->
<g id="node18" class="node">
<title>Node18</title>
<g id="a_node18"><a xlink:href="sstv_8hpp.html" target="_top" xlink:title="SSTV implementation.">
<polygon fill="none" stroke="black" points="1592,-112.5 1592,-131.5 1649,-131.5 1649,-112.5 1592,-112.5"/>
<text text-anchor="middle" x="1620.5" y="-119.5" font-family="Helvetica,sans-Serif" font-size="10.00">sstv.hpp</text>
</a>
</g>
</g>
<!-- Node1&#45;&gt;Node18 -->
<g id="edge19" class="edge">
<title>Node1&#45;&gt;Node18</title>
<path fill="none" stroke="midnightblue" d="M990.97,-175.7C1101.17,-172.47 1361.35,-162.08 1577.5,-132 1582.18,-131.35 1587.12,-130.48 1591.91,-129.55"/>
<polygon fill="midnightblue" stroke="midnightblue" points="990.68,-172.2 980.78,-175.99 990.88,-179.2 990.68,-172.2"/>
</g>
<!-- Node20 -->
<g id="node20" class="node">
<title>Node20</title>
<g id="a_node20"><a xlink:href="ax25__address__test_8cpp.html" target="_top" xlink:title=" ">
<polygon fill="none" stroke="black" points="1667.5,-112.5 1667.5,-131.5 1795.5,-131.5 1795.5,-112.5 1667.5,-112.5"/>
<text text-anchor="middle" x="1731.5" y="-119.5" font-family="Helvetica,sans-Serif" font-size="10.00">ax25_address_test.cpp</text>
</a>
</g>
</g>
<!-- Node1&#45;&gt;Node20 -->
<g id="edge22" class="edge">
<title>Node1&#45;&gt;Node20</title>
<path fill="none" stroke="midnightblue" d="M990.99,-174.77C1110.72,-169.53 1409.39,-155.11 1658.5,-132 1661.42,-131.73 1664.41,-131.43 1667.43,-131.12"/>
<polygon fill="midnightblue" stroke="midnightblue" points="990.48,-171.29 980.64,-175.22 990.78,-178.28 990.48,-171.29"/>
</g>
<!-- Node13 -->
<g id="node13" class="node">
<title>Node13</title>
<g id="a_node13"><a xlink:href="convolutional__code_8hpp.html" target="_top" xlink:title="Convolutional Code Implementation.">
<polygon fill="none" stroke="black" points="1115.5,-56.5 1115.5,-75.5 1247.5,-75.5 1247.5,-56.5 1115.5,-56.5"/>
<text text-anchor="middle" x="1181.5" y="-63.5" font-family="Helvetica,sans-Serif" font-size="10.00">convolutional_code.hpp</text>
</a>
</g>
</g>
<!-- Node12&#45;&gt;Node13 -->
<g id="edge12" class="edge">
<title>Node12&#45;&gt;Node13</title>
<path fill="none" stroke="midnightblue" d="M1178.9,-102.1C1179.56,-93.14 1180.33,-82.86 1180.85,-75.75"/>
<polygon fill="midnightblue" stroke="midnightblue" points="1175.41,-101.85 1178.16,-112.08 1182.39,-102.37 1175.41,-101.85"/>
</g>
<!-- Node14 -->
<g id="node14" class="node">
<title>Node14</title>
<g id="a_node14"><a xlink:href="psk__modulator_8cpp.html" target="_top" xlink:title="Phase Shift Keying modulator.">
<polygon fill="none" stroke="black" points="1208,-0.5 1208,-19.5 1317,-19.5 1317,-0.5 1208,-0.5"/>
<text text-anchor="middle" x="1262.5" y="-7.5" font-family="Helvetica,sans-Serif" font-size="10.00">psk_modulator.cpp</text>
</a>
</g>
</g>
<!-- Node12&#45;&gt;Node14 -->
<g id="edge15" class="edge">
<title>Node12&#45;&gt;Node14</title>
<path fill="none" stroke="midnightblue" d="M1215.36,-108.37C1230.66,-101.29 1246.94,-90.83 1256.5,-76 1267.67,-58.66 1265.99,-33.12 1264.09,-19.81"/>
<polygon fill="midnightblue" stroke="midnightblue" points="1213.85,-105.21 1206.03,-112.35 1216.6,-111.65 1213.85,-105.21"/>
</g>
<!-- Node13&#45;&gt;Node11 -->
<g id="edge13" class="edge">
<title>Node13&#45;&gt;Node11</title>
<path fill="none" stroke="midnightblue" d="M1162.46,-50.1C1150.04,-40.38 1134.26,-28.03 1123.79,-19.83"/>
<polygon fill="midnightblue" stroke="midnightblue" points="1160.38,-52.92 1170.41,-56.32 1164.7,-47.4 1160.38,-52.92"/>
</g>
<!-- Node13&#45;&gt;Node14 -->
<g id="edge14" class="edge">
<title>Node13&#45;&gt;Node14</title>
<path fill="none" stroke="midnightblue" d="M1203.07,-50.62C1217.86,-40.76 1237.01,-27.99 1249.52,-19.65"/>
<polygon fill="midnightblue" stroke="midnightblue" points="1200.89,-47.86 1194.51,-56.32 1204.78,-53.69 1200.89,-47.86"/>
</g>
<!-- Node18&#45;&gt;Node17 -->
<g id="edge20" class="edge">
<title>Node18&#45;&gt;Node17</title>
<path fill="none" stroke="midnightblue" d="M1603.88,-105.25C1593.77,-95.67 1581.22,-83.79 1572.82,-75.83"/>
<polygon fill="midnightblue" stroke="midnightblue" points="1601.68,-107.99 1611.34,-112.32 1606.49,-102.91 1601.68,-107.99"/>
</g>
<!-- Node19 -->
<g id="node19" class="node">
<title>Node19</title>
<g id="a_node19"><a xlink:href="sstv__test_8cpp.html" target="_top" xlink:title=" ">
<polygon fill="none" stroke="black" points="1638,-56.5 1638,-75.5 1719,-75.5 1719,-56.5 1638,-56.5"/>
<text text-anchor="middle" x="1678.5" y="-63.5" font-family="Helvetica,sans-Serif" font-size="10.00">sstv_test.cpp</text>
</a>
</g>
</g>
<!-- Node18&#45;&gt;Node19 -->
<g id="edge21" class="edge">
<title>Node18&#45;&gt;Node19</title>
<path fill="none" stroke="midnightblue" d="M1637.41,-105.25C1647.7,-95.67 1660.47,-83.79 1669.01,-75.83"/>
<polygon fill="midnightblue" stroke="midnightblue" points="1634.75,-102.95 1629.82,-112.32 1639.52,-108.07 1634.75,-102.95"/>
</g>
</g>
</svg>
