<?xml version="1.0" encoding="UTF-8" standalone="no"?>
<!DOCTYPE svg PUBLIC "-//W3C//DTD SVG 1.1//EN"
 "http://www.w3.org/Graphics/SVG/1.1/DTD/svg11.dtd">
<!-- Generated by graphviz version 2.43.0 (0)
 -->
<!-- Title: exception.hpp Pages: 1 -->
<svg width="1951pt" height="341pt"
 viewBox="0.00 0.00 1951.00 341.00" xmlns="http://www.w3.org/2000/svg" xmlns:xlink="http://www.w3.org/1999/xlink">
<g id="graph0" class="graph" transform="scale(1 1) rotate(0) translate(4 337)">
<title>exception.hpp</title>
<!-- Node1 -->
<g id="node1" class="node">
<title>Node1</title>
<g id="a_node1"><a xlink:title="SignalEasel exceptions.">
<polygon fill="#bfbfbf" stroke="black" points="816.5,-313.5 816.5,-332.5 902.5,-332.5 902.5,-313.5 816.5,-313.5"/>
<text text-anchor="middle" x="859.5" y="-320.5" font-family="Helvetica,sans-Serif" font-size="10.00">exception.hpp</text>
</a>
</g>
</g>
<!-- Node2 -->
<g id="node2" class="node">
<title>Node2</title>
<g id="a_node2"><a xlink:href="afsk__demodulator_8cpp.html" target="_top" xlink:title="The AFSK demodulator class implementation.">
<polygon fill="none" stroke="black" points="0,-257.5 0,-276.5 125,-276.5 125,-257.5 0,-257.5"/>
<text text-anchor="middle" x="62.5" y="-264.5" font-family="Helvetica,sans-Serif" font-size="10.00">afsk_demodulator.cpp</text>
</a>
</g>
</g>
<!-- Node1&#45;&gt;Node2 -->
<g id="edge1" class="edge">
<title>Node1&#45;&gt;Node2</title>
<path fill="none" stroke="midnightblue" d="M806.44,-319.88C686.39,-314.83 384.86,-300.7 133.5,-277 130.78,-276.74 128,-276.46 125.2,-276.17"/>
<polygon fill="midnightblue" stroke="midnightblue" points="806.33,-323.38 816.46,-320.3 806.62,-316.38 806.33,-323.38"/>
</g>
<!-- Node3 -->
<g id="node3" class="node">
<title>Node3</title>
<g id="a_node3"><a xlink:href="afsk__modulator_8cpp.html" target="_top" xlink:title="The AFSK modulator class implementation.">
<polygon fill="none" stroke="black" points="143,-257.5 143,-276.5 256,-276.5 256,-257.5 143,-257.5"/>
<text text-anchor="middle" x="199.5" y="-264.5" font-family="Helvetica,sans-Serif" font-size="10.00">afsk_modulator.cpp</text>
</a>
</g>
</g>
<!-- Node1&#45;&gt;Node3 -->
<g id="edge2" class="edge">
<title>Node1&#45;&gt;Node3</title>
<path fill="none" stroke="midnightblue" d="M806.01,-318.81C702.48,-312.43 467.54,-297 270.5,-277 265.8,-276.52 260.94,-275.99 256.05,-275.43"/>
<polygon fill="midnightblue" stroke="midnightblue" points="806.01,-322.32 816.21,-319.43 806.44,-315.33 806.01,-322.32"/>
</g>
<!-- Node4 -->
<g id="node4" class="node">
<title>Node4</title>
<g id="a_node4"><a xlink:href="aprs_8cpp.html" target="_top" xlink:title="APRS implementation.">
<polygon fill="none" stroke="black" points="192.5,-0.5 192.5,-19.5 250.5,-19.5 250.5,-0.5 192.5,-0.5"/>
<text text-anchor="middle" x="221.5" y="-7.5" font-family="Helvetica,sans-Serif" font-size="10.00">aprs.cpp</text>
</a>
</g>
</g>
<!-- Node1&#45;&gt;Node4 -->
<g id="edge3" class="edge">
<title>Node1&#45;&gt;Node4</title>
<path fill="none" stroke="midnightblue" d="M806.07,-322.05C692.22,-321.38 429.68,-315.57 350.5,-277 311.91,-258.2 284.5,-249.42 284.5,-206.5 284.5,-206.5 284.5,-206.5 284.5,-137.5 284.5,-88.68 246.43,-39.32 229.48,-19.76"/>
<polygon fill="midnightblue" stroke="midnightblue" points="806.27,-325.55 816.29,-322.09 806.3,-318.55 806.27,-325.55"/>
</g>
<!-- Node5 -->
<g id="node5" class="node">
<title>Node5</title>
<g id="a_node5"><a xlink:href="aprs__encoders_8cpp.html" target="_top" xlink:title="Encoding functions for APRS packets.">
<polygon fill="none" stroke="black" points="269,-0.5 269,-19.5 376,-19.5 376,-0.5 269,-0.5"/>
<text text-anchor="middle" x="322.5" y="-7.5" font-family="Helvetica,sans-Serif" font-size="10.00">aprs_encoders.cpp</text>
</a>
</g>
</g>
<!-- Node1&#45;&gt;Node5 -->
<g id="edge4" class="edge">
<title>Node1&#45;&gt;Node5</title>
<path fill="none" stroke="midnightblue" d="M806.17,-320.99C701.04,-318.32 471.05,-308.9 399.5,-277 357.12,-258.1 322.5,-252.9 322.5,-206.5 322.5,-206.5 322.5,-206.5 322.5,-137.5 322.5,-93.14 322.5,-40.02 322.5,-19.59"/>
<polygon fill="midnightblue" stroke="midnightblue" points="806.16,-324.49 816.24,-321.24 806.33,-317.49 806.16,-324.49"/>
</g>
<!-- Node6 -->
<g id="node6" class="node">
<title>Node6</title>
<g id="a_node6"><a xlink:href="aprs__receiver_8cpp.html" target="_top" xlink:title="Implementation of the APRS receiver class.">
<polygon fill="none" stroke="black" points="394.5,-0.5 394.5,-19.5 496.5,-19.5 496.5,-0.5 394.5,-0.5"/>
<text text-anchor="middle" x="445.5" y="-7.5" font-family="Helvetica,sans-Serif" font-size="10.00">aprs_receiver.cpp</text>
</a>
</g>
</g>
<!-- Node1&#45;&gt;Node6 -->
<g id="edge5" class="edge">
<title>Node1&#45;&gt;Node6</title>
<path fill="none" stroke="midnightblue" d="M806.05,-320.86C677.3,-316.69 360.5,-297.19 360.5,-206.5 360.5,-206.5 360.5,-206.5 360.5,-137.5 360.5,-85.38 410.84,-38.56 434.04,-19.75"/>
<polygon fill="midnightblue" stroke="midnightblue" points="805.99,-324.36 816.09,-321.17 806.2,-317.37 805.99,-324.36"/>
</g>
<!-- Node7 -->
<g id="node7" class="node">
<title>Node7</title>
<g id="a_node7"><a xlink:href="ax25__address_8cpp.html" target="_top" xlink:title="The AX.25 address class implementation.">
<polygon fill="none" stroke="black" points="673.5,-257.5 673.5,-276.5 777.5,-276.5 777.5,-257.5 673.5,-257.5"/>
<text text-anchor="middle" x="725.5" y="-264.5" font-family="Helvetica,sans-Serif" font-size="10.00">ax25_address.cpp</text>
</a>
</g>
</g>
<!-- Node1&#45;&gt;Node7 -->
<g id="edge6" class="edge">
<title>Node1&#45;&gt;Node7</title>
<path fill="none" stroke="midnightblue" d="M828.82,-309.64C803.68,-299.5 768.75,-285.43 746.63,-276.52"/>
<polygon fill="midnightblue" stroke="midnightblue" points="827.68,-312.95 838.27,-313.44 830.3,-306.46 827.68,-312.95"/>
</g>
<!-- Node8 -->
<g id="node8" class="node">
<title>Node8</title>
<g id="a_node8"><a xlink:href="ax25__address__test_8cpp.html" target="_top" xlink:title=" ">
<polygon fill="none" stroke="black" points="795.5,-257.5 795.5,-276.5 923.5,-276.5 923.5,-257.5 795.5,-257.5"/>
<text text-anchor="middle" x="859.5" y="-264.5" font-family="Helvetica,sans-Serif" font-size="10.00">ax25_address_test.cpp</text>
</a>
</g>
</g>
<!-- Node1&#45;&gt;Node8 -->
<g id="edge7" class="edge">
<title>Node1&#45;&gt;Node8</title>
<path fill="none" stroke="midnightblue" d="M859.5,-302.8C859.5,-293.91 859.5,-283.78 859.5,-276.75"/>
<polygon fill="midnightblue" stroke="midnightblue" points="856,-303.08 859.5,-313.08 863,-303.08 856,-303.08"/>
</g>
<!-- Node9 -->
<g id="node9" class="node">
<title>Node9</title>
<g id="a_node9"><a xlink:href="convolutional__code_8cpp.html" target="_top" xlink:title="Convolutional Code Implementation.">
<polygon fill="none" stroke="black" points="985,-129 985,-148 1116,-148 1116,-129 985,-129"/>
<text text-anchor="middle" x="1050.5" y="-136" font-family="Helvetica,sans-Serif" font-size="10.00">convolutional_code.cpp</text>
</a>
</g>
</g>
<!-- Node1&#45;&gt;Node9 -->
<g id="edge8" class="edge">
<title>Node1&#45;&gt;Node9</title>
<path fill="none" stroke="midnightblue" d="M887.71,-308.75C902.27,-300.94 919.64,-290.04 932.5,-277 964.13,-244.93 954.52,-223.62 984.5,-190 999.96,-172.66 1022.08,-157.16 1036.37,-148.04"/>
<polygon fill="midnightblue" stroke="midnightblue" points="885.91,-305.74 878.62,-313.42 889.11,-311.96 885.91,-305.74"/>
</g>
<!-- Node10 -->
<g id="node10" class="node">
<title>Node10</title>
<g id="a_node10"><a xlink:href="demodulator_8cpp.html" target="_top" xlink:title="The demodulator class implementation.">
<polygon fill="none" stroke="black" points="1121.5,-257.5 1121.5,-276.5 1219.5,-276.5 1219.5,-257.5 1121.5,-257.5"/>
<text text-anchor="middle" x="1170.5" y="-264.5" font-family="Helvetica,sans-Serif" font-size="10.00">demodulator.cpp</text>
</a>
</g>
</g>
<!-- Node1&#45;&gt;Node10 -->
<g id="edge9" class="edge">
<title>Node1&#45;&gt;Node10</title>
<path fill="none" stroke="midnightblue" d="M912.9,-312.73C971.48,-302.56 1064.7,-286.37 1121.48,-276.51"/>
<polygon fill="midnightblue" stroke="midnightblue" points="912,-309.33 902.74,-314.49 913.19,-316.23 912,-309.33"/>
</g>
<!-- Node11 -->
<g id="node11" class="node">
<title>Node11</title>
<g id="a_node11"><a xlink:href="modulator_8cpp.html" target="_top" xlink:title="The abstract modulator class implementation.">
<polygon fill="none" stroke="black" points="1237.5,-257.5 1237.5,-276.5 1323.5,-276.5 1323.5,-257.5 1237.5,-257.5"/>
<text text-anchor="middle" x="1280.5" y="-264.5" font-family="Helvetica,sans-Serif" font-size="10.00">modulator.cpp</text>
</a>
</g>
</g>
<!-- Node1&#45;&gt;Node11 -->
<g id="edge10" class="edge">
<title>Node1&#45;&gt;Node11</title>
<path fill="none" stroke="midnightblue" d="M912.93,-316.33C984.8,-308.52 1116.53,-293.51 1228.5,-277 1231.4,-276.57 1234.39,-276.11 1237.4,-275.63"/>
<polygon fill="midnightblue" stroke="midnightblue" points="912.33,-312.88 902.77,-317.43 913.09,-319.84 912.33,-312.88"/>
</g>
<!-- Node12 -->
<g id="node12" class="node">
<title>Node12</title>
<g id="a_node12"><a xlink:href="morse__modulator_8cpp.html" target="_top" xlink:title="Simple morse code modulator.">
<polygon fill="none" stroke="black" points="1341.5,-257.5 1341.5,-276.5 1463.5,-276.5 1463.5,-257.5 1341.5,-257.5"/>
<text text-anchor="middle" x="1402.5" y="-264.5" font-family="Helvetica,sans-Serif" font-size="10.00">morse_modulator.cpp</text>
</a>
</g>
</g>
<!-- Node1&#45;&gt;Node12 -->
<g id="edge11" class="edge">
<title>Node1&#45;&gt;Node12</title>
<path fill="none" stroke="midnightblue" d="M912.82,-317.51C1000.47,-309.99 1180.46,-294 1332.5,-277 1335.42,-276.67 1338.41,-276.33 1341.43,-275.97"/>
<polygon fill="midnightblue" stroke="midnightblue" points="912.26,-314.04 902.59,-318.38 912.85,-321.01 912.26,-314.04"/>
</g>
<!-- Node13 -->
<g id="node13" class="node">
<title>Node13</title>
<g id="a_node13"><a xlink:href="psk__wave__shaper_8hpp.html" target="_top" xlink:title=" ">
<polygon fill="none" stroke="black" points="979.5,-257.5 979.5,-276.5 1103.5,-276.5 1103.5,-257.5 979.5,-257.5"/>
<text text-anchor="middle" x="1041.5" y="-264.5" font-family="Helvetica,sans-Serif" font-size="10.00">psk_wave_shaper.hpp</text>
</a>
</g>
</g>
<!-- Node1&#45;&gt;Node13 -->
<g id="edge12" class="edge">
<title>Node1&#45;&gt;Node13</title>
<path fill="none" stroke="midnightblue" d="M898.03,-310.57C932.36,-300.38 981.83,-285.7 1012.8,-276.52"/>
<polygon fill="midnightblue" stroke="midnightblue" points="896.93,-307.24 888.34,-313.44 898.92,-313.95 896.93,-307.24"/>
</g>
<!-- Node16 -->
<g id="node16" class="node">
<title>Node16</title>
<g id="a_node16"><a xlink:href="pulse__audio__reader_8cpp.html" target="_top" xlink:title="PulseAudio reader implementation.">
<polygon fill="none" stroke="black" points="1482,-257.5 1482,-276.5 1613,-276.5 1613,-257.5 1482,-257.5"/>
<text text-anchor="middle" x="1547.5" y="-264.5" font-family="Helvetica,sans-Serif" font-size="10.00">pulse_audio_reader.cpp</text>
</a>
</g>
</g>
<!-- Node1&#45;&gt;Node16 -->
<g id="edge17" class="edge">
<title>Node1&#45;&gt;Node16</title>
<path fill="none" stroke="midnightblue" d="M912.83,-318.92C1019.33,-312.57 1265.89,-296.97 1472.5,-277 1475.5,-276.71 1478.57,-276.4 1481.67,-276.07"/>
<polygon fill="midnightblue" stroke="midnightblue" points="912.44,-315.43 902.66,-319.52 912.85,-322.42 912.44,-315.43"/>
</g>
<!-- Node17 -->
<g id="node17" class="node">
<title>Node17</title>
<g id="a_node17"><a xlink:href="pulse__audio__writer_8cpp.html" target="_top" xlink:title="Simple pulse audio interface.">
<polygon fill="none" stroke="black" points="1631.5,-257.5 1631.5,-276.5 1759.5,-276.5 1759.5,-257.5 1631.5,-257.5"/>
<text text-anchor="middle" x="1695.5" y="-264.5" font-family="Helvetica,sans-Serif" font-size="10.00">pulse_audio_writer.cpp</text>
</a>
</g>
</g>
<!-- Node1&#45;&gt;Node17 -->
<g id="edge18" class="edge">
<title>Node1&#45;&gt;Node17</title>
<path fill="none" stroke="midnightblue" d="M912.54,-320C1036.68,-315.08 1355.76,-300.98 1621.5,-277 1624.72,-276.71 1628.02,-276.39 1631.35,-276.05"/>
<polygon fill="midnightblue" stroke="midnightblue" points="912.39,-316.5 902.54,-320.4 912.67,-323.5 912.39,-316.5"/>
</g>
<!-- Node18 -->
<g id="node18" class="node">
<title>Node18</title>
<g id="a_node18"><a xlink:href="sstv_8hpp.html" target="_top" xlink:title="SSTV implementation.">
<polygon fill="none" stroke="black" points="1816,-257.5 1816,-276.5 1873,-276.5 1873,-257.5 1816,-257.5"/>
<text text-anchor="middle" x="1844.5" y="-264.5" font-family="Helvetica,sans-Serif" font-size="10.00">sstv.hpp</text>
</a>
</g>
</g>
<!-- Node1&#45;&gt;Node18 -->
<g id="edge19" class="edge">
<title>Node1&#45;&gt;Node18</title>
<path fill="none" stroke="midnightblue" d="M913.24,-322.41C1057.6,-322.85 1465.6,-319.9 1801.5,-277 1806.19,-276.4 1811.13,-275.56 1815.93,-274.64"/>
<polygon fill="midnightblue" stroke="midnightblue" points="912.92,-318.9 902.9,-322.37 912.89,-325.9 912.92,-318.9"/>
</g>
<!-- Node19 -->
<g id="node19" class="node">
<title>Node19</title>
<g id="a_node19"><a xlink:href="sstv__modulator_8cpp.html" target="_top" xlink:title="SSTV implementation.">
<polygon fill="none" stroke="black" points="1731.5,-196 1731.5,-215 1843.5,-215 1843.5,-196 1731.5,-196"/>
<text text-anchor="middle" x="1787.5" y="-203" font-family="Helvetica,sans-Serif" font-size="10.00">sstv_modulator.cpp</text>
</a>
</g>
</g>
<!-- Node1&#45;&gt;Node19 -->
<g id="edge22" class="edge">
<title>Node1&#45;&gt;Node19</title>
<path fill="none" stroke="midnightblue" d="M912.73,-321.08C1102.3,-317.59 1735.06,-303.96 1768.5,-277 1787.25,-261.88 1788.63,-230.37 1788.1,-215.13"/>
<polygon fill="midnightblue" stroke="midnightblue" points="912.66,-317.58 902.72,-321.26 912.78,-324.58 912.66,-317.58"/>
</g>
<!-- Node21 -->
<g id="node21" class="node">
<title>Node21</title>
<g id="a_node21"><a xlink:href="telemetry__data_8cpp.html" target="_top" xlink:title=" ">
<polygon fill="none" stroke="black" points="426.5,-129 426.5,-148 538.5,-148 538.5,-129 426.5,-129"/>
<text text-anchor="middle" x="482.5" y="-136" font-family="Helvetica,sans-Serif" font-size="10.00">telemetry_data.cpp</text>
</a>
</g>
</g>
<!-- Node1&#45;&gt;Node21 -->
<g id="edge23" class="edge">
<title>Node1&#45;&gt;Node21</title>
<path fill="none" stroke="midnightblue" d="M806.24,-322.44C718.2,-322.03 547.75,-316.05 504.5,-277 467,-243.14 476.07,-172.92 480.66,-148.28"/>
<polygon fill="midnightblue" stroke="midnightblue" points="806.29,-325.94 816.3,-322.47 806.3,-318.94 806.29,-325.94"/>
</g>
<!-- Node22 -->
<g id="node22" class="node">
<title>Node22</title>
<g id="a_node22"><a xlink:href="telemetry__parameter_8hpp.html" target="_top" xlink:title=" ">
<polygon fill="none" stroke="black" points="514,-257.5 514,-276.5 655,-276.5 655,-257.5 514,-257.5"/>
<text text-anchor="middle" x="584.5" y="-264.5" font-family="Helvetica,sans-Serif" font-size="10.00">telemetry_parameter.hpp</text>
</a>
</g>
</g>
<!-- Node1&#45;&gt;Node22 -->
<g id="edge24" class="edge">
<title>Node1&#45;&gt;Node22</title>
<path fill="none" stroke="midnightblue" d="M806.21,-311.53C754.27,-301.34 676.27,-286.02 627.97,-276.54"/>
<polygon fill="midnightblue" stroke="midnightblue" points="805.74,-315.01 816.23,-313.5 807.09,-308.14 805.74,-315.01"/>
</g>
<!-- Node35 -->
<g id="node35" class="node">
<title>Node35</title>
<g id="a_node35"><a xlink:href="telemetry__transcoder_8cpp.html" target="_top" xlink:title=" ">
<polygon fill="none" stroke="black" points="441,-62 441,-81 582,-81 582,-62 441,-62"/>
<text text-anchor="middle" x="511.5" y="-69" font-family="Helvetica,sans-Serif" font-size="10.00">telemetry_transcoder.cpp</text>
</a>
</g>
</g>
<!-- Node1&#45;&gt;Node35 -->
<g id="edge45" class="edge">
<title>Node1&#45;&gt;Node35</title>
<path fill="none" stroke="midnightblue" d="M806.36,-321.4C716.1,-319.45 537.65,-311.23 486.5,-277 424.17,-235.28 379.01,-187.37 417.5,-123 430.43,-101.38 456.15,-88.48 477.42,-81.13"/>
<polygon fill="midnightblue" stroke="midnightblue" points="806.32,-324.9 816.39,-321.6 806.46,-317.9 806.32,-324.9"/>
</g>
<!-- Node14 -->
<g id="node14" class="node">
<title>Node14</title>
<g id="a_node14"><a xlink:href="convolutional__code_8hpp.html" target="_top" xlink:title="Convolutional Code Implementation.">
<polygon fill="none" stroke="black" points="993.5,-196 993.5,-215 1125.5,-215 1125.5,-196 993.5,-196"/>
<text text-anchor="middle" x="1059.5" y="-203" font-family="Helvetica,sans-Serif" font-size="10.00">convolutional_code.hpp</text>
</a>
</g>
</g>
<!-- Node13&#45;&gt;Node14 -->
<g id="edge13" class="edge">
<title>Node13&#45;&gt;Node14</title>
<path fill="none" stroke="midnightblue" d="M1047.05,-247.66C1050.34,-236.77 1054.36,-223.49 1056.93,-215.01"/>
<polygon fill="midnightblue" stroke="midnightblue" points="1043.62,-246.89 1044.08,-257.48 1050.32,-248.92 1043.62,-246.89"/>
</g>
<!-- Node15 -->
<g id="node15" class="node">
<title>Node15</title>
<g id="a_node15"><a xlink:href="psk__modulator_8cpp.html" target="_top" xlink:title="Phase Shift Keying modulator.">
<polygon fill="none" stroke="black" points="1134,-129 1134,-148 1243,-148 1243,-129 1134,-129"/>
<text text-anchor="middle" x="1188.5" y="-136" font-family="Helvetica,sans-Serif" font-size="10.00">psk_modulator.cpp</text>
</a>
</g>
</g>
<!-- Node13&#45;&gt;Node15 -->
<g id="edge16" class="edge">
<title>Node13&#45;&gt;Node15</title>
<path fill="none" stroke="midnightblue" d="M1077.69,-253.77C1096.11,-246.3 1118.01,-235.41 1134.5,-221 1159.04,-199.56 1177.15,-164.43 1184.66,-148.21"/>
<polygon fill="midnightblue" stroke="midnightblue" points="1076.22,-250.58 1068.16,-257.46 1078.75,-257.11 1076.22,-250.58"/>
</g>
<!-- Node14&#45;&gt;Node9 -->
<g id="edge14" class="edge">
<title>Node14&#45;&gt;Node9</title>
<path fill="none" stroke="midnightblue" d="M1056.87,-185.54C1055.16,-173.17 1053.01,-157.62 1051.69,-148.13"/>
<polygon fill="midnightblue" stroke="midnightblue" points="1053.45,-186.31 1058.29,-195.73 1060.38,-185.35 1053.45,-186.31"/>
</g>
<!-- Node14&#45;&gt;Node15 -->
<g id="edge15" class="edge">
<title>Node14&#45;&gt;Node15</title>
<path fill="none" stroke="midnightblue" d="M1085.75,-191.27C1111.3,-178.4 1149.39,-159.21 1171.3,-148.17"/>
<polygon fill="midnightblue" stroke="midnightblue" points="1083.99,-188.24 1076.63,-195.87 1087.14,-194.49 1083.99,-188.24"/>
</g>
<!-- Node18&#45;&gt;Node19 -->
<g id="edge20" class="edge">
<title>Node18&#45;&gt;Node19</title>
<path fill="none" stroke="midnightblue" d="M1829.17,-250C1818.38,-238.74 1804.36,-224.1 1795.65,-215.01"/>
<polygon fill="midnightblue" stroke="midnightblue" points="1826.89,-252.68 1836.33,-257.48 1831.94,-247.83 1826.89,-252.68"/>
</g>
<!-- Node20 -->
<g id="node20" class="node">
<title>Node20</title>
<g id="a_node20"><a xlink:href="sstv__test_8cpp.html" target="_top" xlink:title=" ">
<polygon fill="none" stroke="black" points="1862,-196 1862,-215 1943,-215 1943,-196 1862,-196"/>
<text text-anchor="middle" x="1902.5" y="-203" font-family="Helvetica,sans-Serif" font-size="10.00">sstv_test.cpp</text>
</a>
</g>
</g>
<!-- Node18&#45;&gt;Node20 -->
<g id="edge21" class="edge">
<title>Node18&#45;&gt;Node20</title>
<path fill="none" stroke="midnightblue" d="M1860.1,-250C1871.08,-238.74 1885.34,-224.1 1894.21,-215.01"/>
<polygon fill="midnightblue" stroke="midnightblue" points="1857.28,-247.87 1852.81,-257.48 1862.3,-252.76 1857.28,-247.87"/>
</g>
<!-- Node23 -->
<g id="node23" class="node">
<title>Node23</title>
<g id="a_node23"><a xlink:href="aprs__telemetry__parameter__test_8cpp.html" target="_top" xlink:title=" ">
<polygon fill="none" stroke="black" points="632,-190.5 632,-220.5 779,-220.5 779,-190.5 632,-190.5"/>
<text text-anchor="start" x="640" y="-208.5" font-family="Helvetica,sans-Serif" font-size="10.00">aprs_telemetry_parameter</text>
<text text-anchor="middle" x="705.5" y="-197.5" font-family="Helvetica,sans-Serif" font-size="10.00">_test.cpp</text>
</a>
</g>
</g>
<!-- Node22&#45;&gt;Node23 -->
<g id="edge25" class="edge">
<title>Node22&#45;&gt;Node23</title>
<path fill="none" stroke="midnightblue" d="M611.06,-252.94C630.57,-243.35 657.03,-230.33 676.98,-220.52"/>
<polygon fill="midnightblue" stroke="midnightblue" points="609.27,-249.92 601.84,-257.48 612.35,-256.2 609.27,-249.92"/>
</g>
<!-- Node24 -->
<g id="node24" class="node">
<title>Node24</title>
<g id="a_node24"><a xlink:href="telemetry__data_8hpp.html" target="_top" xlink:title=" ">
<polygon fill="none" stroke="black" points="501,-196 501,-215 614,-215 614,-196 501,-196"/>
<text text-anchor="middle" x="557.5" y="-203" font-family="Helvetica,sans-Serif" font-size="10.00">telemetry_data.hpp</text>
</a>
</g>
</g>
<!-- Node22&#45;&gt;Node24 -->
<g id="edge26" class="edge">
<title>Node22&#45;&gt;Node24</title>
<path fill="none" stroke="midnightblue" d="M576.48,-248.33C571.49,-237.33 565.29,-223.66 561.36,-215.01"/>
<polygon fill="midnightblue" stroke="midnightblue" points="573.31,-249.82 580.63,-257.48 579.69,-246.92 573.31,-249.82"/>
</g>
<!-- Node36 -->
<g id="node36" class="node">
<title>Node36</title>
<g id="a_node36"><a xlink:href="telemetry__parameter_8cpp.html" target="_top" xlink:title=" ">
<polygon fill="none" stroke="black" points="797.5,-196 797.5,-215 937.5,-215 937.5,-196 797.5,-196"/>
<text text-anchor="middle" x="867.5" y="-203" font-family="Helvetica,sans-Serif" font-size="10.00">telemetry_parameter.cpp</text>
</a>
</g>
</g>
<!-- Node22&#45;&gt;Node36 -->
<g id="edge44" class="edge">
<title>Node22&#45;&gt;Node36</title>
<path fill="none" stroke="midnightblue" d="M634.91,-255.4C689.77,-243.87 776.42,-225.65 827.03,-215.01"/>
<polygon fill="midnightblue" stroke="midnightblue" points="634.11,-251.99 625.05,-257.48 635.55,-258.84 634.11,-251.99"/>
</g>
<!-- Node24&#45;&gt;Node21 -->
<g id="edge39" class="edge">
<title>Node24&#45;&gt;Node21</title>
<path fill="none" stroke="midnightblue" d="M539.45,-188.86C524.71,-176.08 504.41,-158.49 492.45,-148.13"/>
<polygon fill="midnightblue" stroke="midnightblue" points="537.54,-191.83 547.39,-195.73 542.12,-186.54 537.54,-191.83"/>
</g>
<!-- Node25 -->
<g id="node25" class="node">
<title>Node25</title>
<g id="a_node25"><a xlink:href="aprs__telemetry__data__test_8cpp.html" target="_top" xlink:title=" ">
<polygon fill="none" stroke="black" points="716.5,-123.5 716.5,-153.5 834.5,-153.5 834.5,-123.5 716.5,-123.5"/>
<text text-anchor="start" x="724.5" y="-141.5" font-family="Helvetica,sans-Serif" font-size="10.00">aprs_telemetry_data</text>
<text text-anchor="middle" x="775.5" y="-130.5" font-family="Helvetica,sans-Serif" font-size="10.00">_test.cpp</text>
</a>
</g>
</g>
<!-- Node24&#45;&gt;Node25 -->
<g id="edge27" class="edge">
<title>Node24&#45;&gt;Node25</title>
<path fill="none" stroke="midnightblue" d="M596.35,-192.92C633.31,-181.9 688.99,-165.29 728.45,-153.53"/>
<polygon fill="midnightblue" stroke="midnightblue" points="595.03,-189.66 586.45,-195.87 597.03,-196.37 595.03,-189.66"/>
</g>
<!-- Node26 -->
<g id="node26" class="node">
<title>Node26</title>
<g id="a_node26"><a xlink:href="aprs__telemetry__transcoder__test_8cpp.html" target="_top" xlink:title=" ">
<polygon fill="none" stroke="black" points="805.5,-56.5 805.5,-86.5 953.5,-86.5 953.5,-56.5 805.5,-56.5"/>
<text text-anchor="start" x="813.5" y="-74.5" font-family="Helvetica,sans-Serif" font-size="10.00">aprs_telemetry_transcoder</text>
<text text-anchor="middle" x="879.5" y="-63.5" font-family="Helvetica,sans-Serif" font-size="10.00">_test.cpp</text>
</a>
</g>
</g>
<!-- Node24&#45;&gt;Node26 -->
<g id="edge28" class="edge">
<title>Node24&#45;&gt;Node26</title>
<path fill="none" stroke="midnightblue" d="M602.68,-193.78C609.31,-192.39 616.07,-191.08 622.5,-190 691.76,-178.34 889.75,-206.42 936.5,-154 955.92,-132.22 924.86,-103.68 901.5,-86.8"/>
<polygon fill="midnightblue" stroke="midnightblue" points="601.48,-190.46 592.45,-195.99 602.96,-197.3 601.48,-190.46"/>
</g>
<!-- Node27 -->
<g id="node27" class="node">
<title>Node27</title>
<g id="a_node27"><a xlink:href="packets_8hpp.html" target="_top" xlink:title=" ">
<polygon fill="none" stroke="black" points="853,-129 853,-148 928,-148 928,-129 853,-129"/>
<text text-anchor="middle" x="890.5" y="-136" font-family="Helvetica,sans-Serif" font-size="10.00">packets.hpp</text>
</a>
</g>
</g>
<!-- Node24&#45;&gt;Node27 -->
<g id="edge29" class="edge">
<title>Node24&#45;&gt;Node27</title>
<path fill="none" stroke="midnightblue" d="M603.66,-193.86C609.98,-192.5 616.39,-191.18 622.5,-190 720.22,-171.16 746.61,-176.72 843.5,-154 850.48,-152.36 857.94,-150.24 864.82,-148.12"/>
<polygon fill="midnightblue" stroke="midnightblue" points="602.89,-190.44 593.86,-196 604.38,-197.28 602.89,-190.44"/>
</g>
<!-- Node34 -->
<g id="node34" class="node">
<title>Node34</title>
<g id="a_node34"><a xlink:href="telemetry__transcoder_8hpp.html" target="_top" xlink:title=" ">
<polygon fill="none" stroke="black" points="556.5,-129 556.5,-148 698.5,-148 698.5,-129 556.5,-129"/>
<text text-anchor="middle" x="627.5" y="-136" font-family="Helvetica,sans-Serif" font-size="10.00">telemetry_transcoder.hpp</text>
</a>
</g>
</g>
<!-- Node24&#45;&gt;Node34 -->
<g id="edge40" class="edge">
<title>Node24&#45;&gt;Node34</title>
<path fill="none" stroke="midnightblue" d="M574.35,-188.86C588.11,-176.08 607.05,-158.49 618.21,-148.13"/>
<polygon fill="midnightblue" stroke="midnightblue" points="571.89,-186.36 566.94,-195.73 576.65,-191.49 571.89,-186.36"/>
</g>
<!-- Node28 -->
<g id="node28" class="node">
<title>Node28</title>
<g id="a_node28"><a xlink:href="aprs_8hpp.html" target="_top" xlink:title=" ">
<polygon fill="none" stroke="black" points="625,-62 625,-81 684,-81 684,-62 625,-62"/>
<text text-anchor="middle" x="654.5" y="-69" font-family="Helvetica,sans-Serif" font-size="10.00">aprs.hpp</text>
</a>
</g>
</g>
<!-- Node27&#45;&gt;Node28 -->
<g id="edge30" class="edge">
<title>Node27&#45;&gt;Node28</title>
<path fill="none" stroke="midnightblue" d="M853.34,-125.89C850.02,-124.9 846.7,-123.92 843.5,-123 787.36,-106.85 721.34,-89.6 684.06,-80.03"/>
<polygon fill="midnightblue" stroke="midnightblue" points="852.63,-129.33 863.21,-128.89 854.66,-122.64 852.63,-129.33"/>
</g>
<!-- Node28&#45;&gt;Node4 -->
<g id="edge31" class="edge">
<title>Node28&#45;&gt;Node4</title>
<path fill="none" stroke="midnightblue" d="M614.8,-60.76C606.79,-59.01 598.4,-57.32 590.5,-56 444.54,-31.61 405.33,-45.1 259.5,-20 256.69,-19.52 253.79,-18.95 250.88,-18.34"/>
<polygon fill="midnightblue" stroke="midnightblue" points="614.16,-64.21 624.69,-63 615.7,-57.38 614.16,-64.21"/>
</g>
<!-- Node28&#45;&gt;Node5 -->
<g id="edge33" class="edge">
<title>Node28&#45;&gt;Node5</title>
<path fill="none" stroke="midnightblue" d="M614.98,-61.18C606.9,-59.38 598.44,-57.56 590.5,-56 516.44,-41.4 430.27,-27.48 376.05,-19.08"/>
<polygon fill="midnightblue" stroke="midnightblue" points="614.41,-64.64 624.94,-63.44 615.96,-57.81 614.41,-64.64"/>
</g>
<!-- Node28&#45;&gt;Node6 -->
<g id="edge35" class="edge">
<title>Node28&#45;&gt;Node6</title>
<path fill="none" stroke="midnightblue" d="M615.19,-59.31C574.64,-47.76 512.29,-30.01 475.53,-19.55"/>
<polygon fill="midnightblue" stroke="midnightblue" points="614.42,-62.73 625,-62.1 616.34,-56 614.42,-62.73"/>
</g>
<!-- Node29 -->
<g id="node29" class="node">
<title>Node29</title>
<g id="a_node29"><a xlink:href="aprs__demodulator_8cpp.html" target="_top" xlink:title="Implementation of the APRS demodulator class.">
<polygon fill="none" stroke="black" points="620,-0.5 620,-19.5 745,-19.5 745,-0.5 620,-0.5"/>
<text text-anchor="middle" x="682.5" y="-7.5" font-family="Helvetica,sans-Serif" font-size="10.00">aprs_demodulator.cpp</text>
</a>
</g>
</g>
<!-- Node28&#45;&gt;Node29 -->
<g id="edge32" class="edge">
<title>Node28&#45;&gt;Node29</title>
<path fill="none" stroke="midnightblue" d="M662.81,-52.83C667.99,-41.83 674.42,-28.16 678.5,-19.51"/>
<polygon fill="midnightblue" stroke="midnightblue" points="659.6,-51.44 658.51,-61.98 665.94,-54.42 659.6,-51.44"/>
</g>
<!-- Node30 -->
<g id="node30" class="node">
<title>Node30</title>
<g id="a_node30"><a xlink:href="aprs__modulator_8cpp.html" target="_top" xlink:title="Implementation of the APRS modulator class.">
<polygon fill="none" stroke="black" points="763,-0.5 763,-19.5 876,-19.5 876,-0.5 763,-0.5"/>
<text text-anchor="middle" x="819.5" y="-7.5" font-family="Helvetica,sans-Serif" font-size="10.00">aprs_modulator.cpp</text>
</a>
</g>
</g>
<!-- Node28&#45;&gt;Node30 -->
<g id="edge34" class="edge">
<title>Node28&#45;&gt;Node30</title>
<path fill="none" stroke="midnightblue" d="M687.55,-58.58C719.62,-47.02 767.5,-29.75 795.9,-19.51"/>
<polygon fill="midnightblue" stroke="midnightblue" points="686.36,-55.29 678.14,-61.98 688.73,-61.88 686.36,-55.29"/>
</g>
<!-- Node31 -->
<g id="node31" class="node">
<title>Node31</title>
<g id="a_node31"><a xlink:href="aprs__receiver__test_8cpp.html" target="_top" xlink:title="Integration tests for signal_easel::aprs::Receiver.">
<polygon fill="none" stroke="black" points="894,-0.5 894,-19.5 1021,-19.5 1021,-0.5 894,-0.5"/>
<text text-anchor="middle" x="957.5" y="-7.5" font-family="Helvetica,sans-Serif" font-size="10.00">aprs_receiver_test.cpp</text>
</a>
</g>
</g>
<!-- Node28&#45;&gt;Node31 -->
<g id="edge36" class="edge">
<title>Node28&#45;&gt;Node31</title>
<path fill="none" stroke="midnightblue" d="M694.14,-62.72C750.93,-51.56 855.08,-31.11 913.95,-19.55"/>
<polygon fill="midnightblue" stroke="midnightblue" points="693.24,-59.33 684.1,-64.69 694.59,-66.19 693.24,-59.33"/>
</g>
<!-- Node32 -->
<g id="node32" class="node">
<title>Node32</title>
<g id="a_node32"><a xlink:href="aprs__test_8cpp.html" target="_top" xlink:title=" ">
<polygon fill="none" stroke="black" points="1039.5,-0.5 1039.5,-19.5 1121.5,-19.5 1121.5,-0.5 1039.5,-0.5"/>
<text text-anchor="middle" x="1080.5" y="-7.5" font-family="Helvetica,sans-Serif" font-size="10.00">aprs_test.cpp</text>
</a>
</g>
</g>
<!-- Node28&#45;&gt;Node32 -->
<g id="edge37" class="edge">
<title>Node28&#45;&gt;Node32</title>
<path fill="none" stroke="midnightblue" d="M694.15,-65.7C762.65,-57.29 907.56,-38.96 1029.5,-20 1032.7,-19.5 1036.01,-18.97 1039.33,-18.41"/>
<polygon fill="midnightblue" stroke="midnightblue" points="693.71,-62.23 684.21,-66.92 694.56,-69.18 693.71,-62.23"/>
</g>
<!-- Node33 -->
<g id="node33" class="node">
<title>Node33</title>
<g id="a_node33"><a xlink:href="pulse__test_8cpp.html" target="_top" xlink:title="PulseAudio output test. Does not use gtest.">
<polygon fill="none" stroke="black" points="515,-0.5 515,-19.5 602,-19.5 602,-0.5 515,-0.5"/>
<text text-anchor="middle" x="558.5" y="-7.5" font-family="Helvetica,sans-Serif" font-size="10.00">pulse_test.cpp</text>
</a>
</g>
</g>
<!-- Node28&#45;&gt;Node33 -->
<g id="edge38" class="edge">
<title>Node28&#45;&gt;Node33</title>
<path fill="none" stroke="midnightblue" d="M632.05,-56.59C613.53,-45.1 587.83,-29.18 572.23,-19.51"/>
<polygon fill="midnightblue" stroke="midnightblue" points="630.4,-59.68 640.75,-61.98 634.09,-53.73 630.4,-59.68"/>
</g>
<!-- Node34&#45;&gt;Node26 -->
<g id="edge42" class="edge">
<title>Node34&#45;&gt;Node26</title>
<path fill="none" stroke="midnightblue" d="M670.5,-126.41C713.17,-115.4 778.7,-98.5 824.99,-86.56"/>
<polygon fill="midnightblue" stroke="midnightblue" points="669.51,-123.05 660.7,-128.94 671.26,-129.83 669.51,-123.05"/>
</g>
<!-- Node34&#45;&gt;Node28 -->
<g id="edge41" class="edge">
<title>Node34&#45;&gt;Node28</title>
<path fill="none" stroke="midnightblue" d="M635.06,-119.29C640.25,-106.81 646.89,-90.81 650.92,-81.13"/>
<polygon fill="midnightblue" stroke="midnightblue" points="631.75,-118.16 631.14,-128.73 638.21,-120.84 631.75,-118.16"/>
</g>
<!-- Node34&#45;&gt;Node35 -->
<g id="edge43" class="edge">
<title>Node34&#45;&gt;Node35</title>
<path fill="none" stroke="midnightblue" d="M603.03,-123.79C580.04,-110.9 546.34,-92.02 526.9,-81.13"/>
<polygon fill="midnightblue" stroke="midnightblue" points="601.42,-126.9 611.86,-128.73 604.84,-120.79 601.42,-126.9"/>
</g>
</g>
</svg>
