<?xml version="1.0" encoding="UTF-8" standalone="no"?>
<!DOCTYPE svg PUBLIC "-//W3C//DTD SVG 1.1//EN"
 "http://www.w3.org/Graphics/SVG/1.1/DTD/svg11.dtd">
<!-- Generated by graphviz version 2.43.0 (0)
 -->
<!-- Title: Graphical Class Hierarchy Pages: 1 -->
<svg width="267pt" height="235pt"
 viewBox="0.00 0.00 267.00 235.00" xmlns="http://www.w3.org/2000/svg" xmlns:xlink="http://www.w3.org/1999/xlink">
<g id="graph0" class="graph" transform="scale(1 1) rotate(0) translate(4 231)">
<title>Graphical Class Hierarchy</title>
<!-- Node0 -->
<g id="node1" class="node">
<title>Node0</title>
<g id="a_node1"><a xlink:href="structsignal__easel_1_1aprs_1_1Packet.html" target="_top" xlink:title="The base APRS packet structure.">
<polygon fill="none" stroke="black" points="0,-98.5 0,-128.5 104,-128.5 104,-98.5 0,-98.5"/>
<text text-anchor="start" x="8" y="-116.5" font-family="Helvetica,sans-Serif" font-size="10.00">signal_easel::aprs</text>
<text text-anchor="middle" x="52" y="-105.5" font-family="Helvetica,sans-Serif" font-size="10.00">::Packet</text>
</a>
</g>
</g>
<!-- Node1 -->
<g id="node2" class="node">
<title>Node1</title>
<g id="a_node2"><a xlink:href="structsignal__easel_1_1aprs_1_1ExperimentalPacket.html" target="_top" xlink:title="Raw packet with two &#39;{&#39; characters at the start.">
<polygon fill="none" stroke="black" points="140,-196.5 140,-226.5 259,-226.5 259,-196.5 140,-196.5"/>
<text text-anchor="start" x="148" y="-214.5" font-family="Helvetica,sans-Serif" font-size="10.00">signal_easel::aprs</text>
<text text-anchor="middle" x="199.5" y="-203.5" font-family="Helvetica,sans-Serif" font-size="10.00">::ExperimentalPacket</text>
</a>
</g>
</g>
<!-- Node0&#45;&gt;Node1 -->
<g id="edge1" class="edge">
<title>Node0&#45;&gt;Node1</title>
<path fill="none" stroke="midnightblue" d="M75.46,-136.1C92.18,-152 116.13,-172.96 140,-187.5 145.34,-190.75 151.21,-193.75 157.1,-196.44"/>
<polygon fill="midnightblue" stroke="midnightblue" points="77.49,-133.19 67.87,-128.75 72.62,-138.22 77.49,-133.19"/>
</g>
<!-- Node2 -->
<g id="node3" class="node">
<title>Node2</title>
<g id="a_node3"><a xlink:href="structsignal__easel_1_1aprs_1_1MessageAckPacket.html" target="_top" xlink:title=" ">
<polygon fill="none" stroke="black" points="141.5,-147.5 141.5,-177.5 257.5,-177.5 257.5,-147.5 141.5,-147.5"/>
<text text-anchor="start" x="149.5" y="-165.5" font-family="Helvetica,sans-Serif" font-size="10.00">signal_easel::aprs</text>
<text text-anchor="middle" x="199.5" y="-154.5" font-family="Helvetica,sans-Serif" font-size="10.00">::MessageAckPacket</text>
</a>
</g>
</g>
<!-- Node0&#45;&gt;Node2 -->
<g id="edge2" class="edge">
<title>Node0&#45;&gt;Node2</title>
<path fill="none" stroke="midnightblue" d="M107.65,-131.91C122.88,-137.03 139.23,-142.54 153.81,-147.45"/>
<polygon fill="midnightblue" stroke="midnightblue" points="108.44,-128.48 97.84,-128.6 106.2,-135.11 108.44,-128.48"/>
</g>
<!-- Node3 -->
<g id="node4" class="node">
<title>Node3</title>
<g id="a_node4"><a xlink:href="structsignal__easel_1_1aprs_1_1MessagePacket.html" target="_top" xlink:title=" ">
<polygon fill="none" stroke="black" points="147.5,-98.5 147.5,-128.5 251.5,-128.5 251.5,-98.5 147.5,-98.5"/>
<text text-anchor="start" x="155.5" y="-116.5" font-family="Helvetica,sans-Serif" font-size="10.00">signal_easel::aprs</text>
<text text-anchor="middle" x="199.5" y="-105.5" font-family="Helvetica,sans-Serif" font-size="10.00">::MessagePacket</text>
</a>
</g>
</g>
<!-- Node0&#45;&gt;Node3 -->
<g id="edge3" class="edge">
<title>Node0&#45;&gt;Node3</title>
<path fill="none" stroke="midnightblue" d="M114.57,-113.5C125.43,-113.5 136.63,-113.5 147.17,-113.5"/>
<polygon fill="midnightblue" stroke="midnightblue" points="114.3,-110 104.3,-113.5 114.3,-117 114.3,-110"/>
</g>
<!-- Node4 -->
<g id="node5" class="node">
<title>Node4</title>
<g id="a_node5"><a xlink:href="structsignal__easel_1_1aprs_1_1PositionPacket.html" target="_top" xlink:title=" ">
<polygon fill="none" stroke="black" points="147.5,-49.5 147.5,-79.5 251.5,-79.5 251.5,-49.5 147.5,-49.5"/>
<text text-anchor="start" x="155.5" y="-67.5" font-family="Helvetica,sans-Serif" font-size="10.00">signal_easel::aprs</text>
<text text-anchor="middle" x="199.5" y="-56.5" font-family="Helvetica,sans-Serif" font-size="10.00">::PositionPacket</text>
</a>
</g>
</g>
<!-- Node0&#45;&gt;Node4 -->
<g id="edge4" class="edge">
<title>Node0&#45;&gt;Node4</title>
<path fill="none" stroke="midnightblue" d="M107.65,-95.09C122.88,-89.97 139.23,-84.46 153.81,-79.55"/>
<polygon fill="midnightblue" stroke="midnightblue" points="106.2,-91.89 97.84,-98.4 108.44,-98.52 106.2,-91.89"/>
</g>
<!-- Node5 -->
<g id="node6" class="node">
<title>Node5</title>
<g id="a_node6"><a xlink:href="structsignal__easel_1_1aprs_1_1TelemetryPacket.html" target="_top" xlink:title=" ">
<polygon fill="none" stroke="black" points="147.5,-0.5 147.5,-30.5 251.5,-30.5 251.5,-0.5 147.5,-0.5"/>
<text text-anchor="start" x="155.5" y="-18.5" font-family="Helvetica,sans-Serif" font-size="10.00">signal_easel::aprs</text>
<text text-anchor="middle" x="199.5" y="-7.5" font-family="Helvetica,sans-Serif" font-size="10.00">::TelemetryPacket</text>
</a>
</g>
</g>
<!-- Node0&#45;&gt;Node5 -->
<g id="edge5" class="edge">
<title>Node0&#45;&gt;Node5</title>
<path fill="none" stroke="midnightblue" d="M75.89,-91.05C92.64,-75.45 116.47,-54.96 140,-40.5 145.83,-36.91 152.27,-33.6 158.68,-30.63"/>
<polygon fill="midnightblue" stroke="midnightblue" points="73.12,-88.84 68.26,-98.26 77.93,-93.93 73.12,-88.84"/>
</g>
</g>
</svg>
