<?xml version="1.0" encoding="UTF-8" standalone="no"?>
<!DOCTYPE svg PUBLIC "-//W3C//DTD SVG 1.1//EN"
 "http://www.w3.org/Graphics/SVG/1.1/DTD/svg11.dtd">
<!-- Generated by graphviz version 2.43.0 (0)
 -->
<!-- Title: Graphical Class Hierarchy Pages: 1 -->
<svg width="252pt" height="186pt"
 viewBox="0.00 0.00 252.00 186.00" xmlns="http://www.w3.org/2000/svg" xmlns:xlink="http://www.w3.org/1999/xlink">
<g id="graph0" class="graph" transform="scale(1 1) rotate(0) translate(4 182)">
<title>Graphical Class Hierarchy</title>
<!-- Node0 -->
<g id="node1" class="node">
<title>Node0</title>
<g id="a_node1"><a xlink:href="structsignal__easel_1_1aprs_1_1Packet.html" target="_top" xlink:title=" ">
<polygon fill="none" stroke="black" points="0,-73.5 0,-103.5 104,-103.5 104,-73.5 0,-73.5"/>
<text text-anchor="start" x="8" y="-91.5" font-family="Helvetica,sans-Serif" font-size="10.00">signal_easel::aprs</text>
<text text-anchor="middle" x="52" y="-80.5" font-family="Helvetica,sans-Serif" font-size="10.00">::Packet</text>
</a>
</g>
</g>
<!-- Node1 -->
<g id="node2" class="node">
<title>Node1</title>
<g id="a_node2"><a xlink:href="structsignal__easel_1_1aprs_1_1Experimental.html" target="_top" xlink:title="This packet type will have two { characters at the start.">
<polygon fill="none" stroke="black" points="140,-147.5 140,-177.5 244,-177.5 244,-147.5 140,-147.5"/>
<text text-anchor="start" x="148" y="-165.5" font-family="Helvetica,sans-Serif" font-size="10.00">signal_easel::aprs</text>
<text text-anchor="middle" x="192" y="-154.5" font-family="Helvetica,sans-Serif" font-size="10.00">::Experimental</text>
</a>
</g>
</g>
<!-- Node0&#45;&gt;Node1 -->
<g id="edge1" class="edge">
<title>Node0&#45;&gt;Node1</title>
<path fill="none" stroke="midnightblue" d="M87.14,-108.98C103.04,-118.3 122.31,-129.27 140,-138.5 145.73,-141.49 151.89,-144.53 157.88,-147.4"/>
<polygon fill="midnightblue" stroke="midnightblue" points="88.59,-105.78 78.2,-103.71 85.04,-111.81 88.59,-105.78"/>
</g>
<!-- Node2 -->
<g id="node3" class="node">
<title>Node2</title>
<g id="a_node3"><a xlink:href="structsignal__easel_1_1aprs_1_1MessageAck.html" target="_top" xlink:title=" ">
<polygon fill="none" stroke="black" points="140,-98.5 140,-128.5 244,-128.5 244,-98.5 140,-98.5"/>
<text text-anchor="start" x="148" y="-116.5" font-family="Helvetica,sans-Serif" font-size="10.00">signal_easel::aprs</text>
<text text-anchor="middle" x="192" y="-105.5" font-family="Helvetica,sans-Serif" font-size="10.00">::MessageAck</text>
</a>
</g>
</g>
<!-- Node0&#45;&gt;Node2 -->
<g id="edge2" class="edge">
<title>Node0&#45;&gt;Node2</title>
<path fill="none" stroke="midnightblue" d="M114.5,-99.64C122.87,-101.16 131.4,-102.7 139.57,-104.18"/>
<polygon fill="midnightblue" stroke="midnightblue" points="114.85,-96.15 104.39,-97.81 113.6,-103.04 114.85,-96.15"/>
</g>
<!-- Node3 -->
<g id="node4" class="node">
<title>Node3</title>
<g id="a_node4"><a xlink:href="structsignal__easel_1_1aprs_1_1MessagePacket.html" target="_top" xlink:title=" ">
<polygon fill="none" stroke="black" points="140,-49.5 140,-79.5 244,-79.5 244,-49.5 140,-49.5"/>
<text text-anchor="start" x="148" y="-67.5" font-family="Helvetica,sans-Serif" font-size="10.00">signal_easel::aprs</text>
<text text-anchor="middle" x="192" y="-56.5" font-family="Helvetica,sans-Serif" font-size="10.00">::MessagePacket</text>
</a>
</g>
</g>
<!-- Node0&#45;&gt;Node3 -->
<g id="edge3" class="edge">
<title>Node0&#45;&gt;Node3</title>
<path fill="none" stroke="midnightblue" d="M114.5,-77.81C122.87,-76.35 131.4,-74.87 139.57,-73.44"/>
<polygon fill="midnightblue" stroke="midnightblue" points="113.64,-74.4 104.39,-79.56 114.84,-81.3 113.64,-74.4"/>
</g>
<!-- Node4 -->
<g id="node5" class="node">
<title>Node4</title>
<g id="a_node5"><a xlink:href="structsignal__easel_1_1aprs_1_1PositionPacket.html" target="_top" xlink:title=" ">
<polygon fill="none" stroke="black" points="140,-0.5 140,-30.5 244,-30.5 244,-0.5 140,-0.5"/>
<text text-anchor="start" x="148" y="-18.5" font-family="Helvetica,sans-Serif" font-size="10.00">signal_easel::aprs</text>
<text text-anchor="middle" x="192" y="-7.5" font-family="Helvetica,sans-Serif" font-size="10.00">::PositionPacket</text>
</a>
</g>
</g>
<!-- Node0&#45;&gt;Node4 -->
<g id="edge4" class="edge">
<title>Node0&#45;&gt;Node4</title>
<path fill="none" stroke="midnightblue" d="M88.34,-68.5C104.06,-59.73 122.86,-49.42 140,-40.5 146.3,-37.22 153.09,-33.81 159.59,-30.6"/>
<polygon fill="midnightblue" stroke="midnightblue" points="86.49,-65.52 79.47,-73.46 89.91,-71.63 86.49,-65.52"/>
</g>
</g>
</svg>
