<?xml version="1.0" encoding="UTF-8" standalone="no"?>
<!DOCTYPE svg PUBLIC "-//W3C//DTD SVG 1.1//EN"
 "http://www.w3.org/Graphics/SVG/1.1/DTD/svg11.dtd">
<!-- Generated by graphviz version 2.43.0 (0)
 -->
<!-- Title: Graphical Class Hierarchy Pages: 1 -->
<svg width="613pt" height="132pt"
 viewBox="0.00 0.00 613.00 132.00" xmlns="http://www.w3.org/2000/svg" xmlns:xlink="http://www.w3.org/1999/xlink">
<g id="graph0" class="graph" transform="scale(1 1) rotate(0) translate(4 128)">
<title>Graphical Class Hierarchy</title>
<!-- Node0 -->
<g id="node1" class="node">
<title>Node0</title>
<g id="a_node1"><a xlink:href="classsignal__easel_1_1Modulator.html" target="_top" xlink:title="The abstract base class for all modulators that turn data into audio.">
<polygon fill="none" stroke="black" points="0,-55 0,-74 133,-74 133,-55 0,-55"/>
<text text-anchor="middle" x="66.5" y="-62" font-family="Helvetica,sans-Serif" font-size="10.00">signal_easel::Modulator</text>
</a>
</g>
</g>
<!-- Node1 -->
<g id="node2" class="node">
<title>Node1</title>
<g id="a_node2"><a xlink:href="classsignal__easel_1_1DataModulator.html" target="_top" xlink:title="Another abstract base class for modulators that turn text/binary data into audio.">
<polygon fill="none" stroke="black" points="169,-99 169,-118 325,-118 325,-99 169,-99"/>
<text text-anchor="middle" x="247" y="-106" font-family="Helvetica,sans-Serif" font-size="10.00">signal_easel::DataModulator</text>
</a>
</g>
</g>
<!-- Node0&#45;&gt;Node1 -->
<g id="edge1" class="edge">
<title>Node0&#45;&gt;Node1</title>
<path fill="none" stroke="midnightblue" d="M116.06,-76.47C144.75,-83.54 180.58,-92.37 207.34,-98.97"/>
<polygon fill="midnightblue" stroke="midnightblue" points="116.78,-73.04 106.23,-74.05 115.1,-79.84 116.78,-73.04"/>
</g>
<!-- Node4 -->
<g id="node5" class="node">
<title>Node4</title>
<g id="a_node5"><a xlink:href="classsignal__easel_1_1psk_1_1Modulator.html" target="_top" xlink:title="PSK Modulator.">
<polygon fill="none" stroke="black" points="193.5,-49.5 193.5,-79.5 300.5,-79.5 300.5,-49.5 193.5,-49.5"/>
<text text-anchor="start" x="201.5" y="-67.5" font-family="Helvetica,sans-Serif" font-size="10.00">signal_easel::psk::</text>
<text text-anchor="middle" x="247" y="-56.5" font-family="Helvetica,sans-Serif" font-size="10.00">Modulator</text>
</a>
</g>
</g>
<!-- Node0&#45;&gt;Node4 -->
<g id="edge4" class="edge">
<title>Node0&#45;&gt;Node4</title>
<path fill="none" stroke="midnightblue" d="M143.53,-64.5C160.28,-64.5 177.67,-64.5 193.26,-64.5"/>
<polygon fill="midnightblue" stroke="midnightblue" points="143.21,-61 133.21,-64.5 143.21,-68 143.21,-61"/>
</g>
<!-- Node5 -->
<g id="node6" class="node">
<title>Node5</title>
<g id="a_node6"><a xlink:href="classsignal__easel_1_1sstv_1_1Modulator.html" target="_top" xlink:title="SSTV Modulator.">
<polygon fill="none" stroke="black" points="195,-0.5 195,-30.5 299,-30.5 299,-0.5 195,-0.5"/>
<text text-anchor="start" x="203" y="-18.5" font-family="Helvetica,sans-Serif" font-size="10.00">signal_easel::sstv</text>
<text text-anchor="middle" x="247" y="-7.5" font-family="Helvetica,sans-Serif" font-size="10.00">::Modulator</text>
</a>
</g>
</g>
<!-- Node0&#45;&gt;Node5 -->
<g id="edge5" class="edge">
<title>Node0&#45;&gt;Node5</title>
<path fill="none" stroke="midnightblue" d="M112.3,-52.2C137.35,-45.33 168.66,-36.73 194.68,-29.59"/>
<polygon fill="midnightblue" stroke="midnightblue" points="111.06,-48.91 102.34,-54.94 112.91,-55.66 111.06,-48.91"/>
</g>
<!-- Node2 -->
<g id="node3" class="node">
<title>Node2</title>
<g id="a_node3"><a xlink:href="classsignal__easel_1_1afsk_1_1Modulator.html" target="_top" xlink:title="Modulates data into an AFSK signal.">
<polygon fill="none" stroke="black" points="361,-93.5 361,-123.5 465,-123.5 465,-93.5 361,-93.5"/>
<text text-anchor="start" x="369" y="-111.5" font-family="Helvetica,sans-Serif" font-size="10.00">signal_easel::afsk</text>
<text text-anchor="middle" x="413" y="-100.5" font-family="Helvetica,sans-Serif" font-size="10.00">::Modulator</text>
</a>
</g>
</g>
<!-- Node1&#45;&gt;Node2 -->
<g id="edge2" class="edge">
<title>Node1&#45;&gt;Node2</title>
<path fill="none" stroke="midnightblue" d="M335.44,-108.5C344.16,-108.5 352.79,-108.5 360.94,-108.5"/>
<polygon fill="midnightblue" stroke="midnightblue" points="335.2,-105 325.2,-108.5 335.2,-112 335.2,-105"/>
</g>
<!-- Node3 -->
<g id="node4" class="node">
<title>Node3</title>
<g id="a_node4"><a xlink:href="classsignal__easel_1_1aprs_1_1Modulator.html" target="_top" xlink:title=" ">
<polygon fill="none" stroke="black" points="501,-93.5 501,-123.5 605,-123.5 605,-93.5 501,-93.5"/>
<text text-anchor="start" x="509" y="-111.5" font-family="Helvetica,sans-Serif" font-size="10.00">signal_easel::aprs</text>
<text text-anchor="middle" x="553" y="-100.5" font-family="Helvetica,sans-Serif" font-size="10.00">::Modulator</text>
</a>
</g>
</g>
<!-- Node2&#45;&gt;Node3 -->
<g id="edge3" class="edge">
<title>Node2&#45;&gt;Node3</title>
<path fill="none" stroke="midnightblue" d="M475.5,-108.5C483.87,-108.5 492.4,-108.5 500.57,-108.5"/>
<polygon fill="midnightblue" stroke="midnightblue" points="475.39,-105 465.39,-108.5 475.39,-112 475.39,-105"/>
</g>
</g>
</svg>
