<?xml version="1.0" encoding="UTF-8" standalone="no"?>
<!DOCTYPE svg PUBLIC "-//W3C//DTD SVG 1.1//EN"
 "http://www.w3.org/Graphics/SVG/1.1/DTD/svg11.dtd">
<!-- Generated by graphviz version 2.43.0 (0)
 -->
<!-- Title: Graphical Class Hierarchy Pages: 1 -->
<svg width="414pt" height="137pt"
 viewBox="0.00 0.00 414.00 137.00" xmlns="http://www.w3.org/2000/svg" xmlns:xlink="http://www.w3.org/1999/xlink">
<g id="graph0" class="graph" transform="scale(1 1) rotate(0) translate(4 133)">
<title>Graphical Class Hierarchy</title>
<!-- Node0 -->
<g id="node1" class="node">
<title>Node0</title>
<g id="a_node1"><a xlink:href="structsignal__easel_1_1Settings.html" target="_top" xlink:title="The universal settings for MWAV.">
<polygon fill="none" stroke="black" points="0,-55 0,-74 123,-74 123,-55 0,-55"/>
<text text-anchor="middle" x="61.5" y="-62" font-family="Helvetica,sans-Serif" font-size="10.00">signal_easel::Settings</text>
</a>
</g>
</g>
<!-- Node1 -->
<g id="node2" class="node">
<title>Node1</title>
<g id="a_node2"><a xlink:href="structsignal__easel_1_1afsk_1_1Settings.html" target="_top" xlink:title="Settings for AFSK modulation/demodulation.">
<polygon fill="none" stroke="black" points="160.5,-98.5 160.5,-128.5 264.5,-128.5 264.5,-98.5 160.5,-98.5"/>
<text text-anchor="start" x="168.5" y="-116.5" font-family="Helvetica,sans-Serif" font-size="10.00">signal_easel::afsk</text>
<text text-anchor="middle" x="212.5" y="-105.5" font-family="Helvetica,sans-Serif" font-size="10.00">::Settings</text>
</a>
</g>
</g>
<!-- Node0&#45;&gt;Node1 -->
<g id="edge1" class="edge">
<title>Node0&#45;&gt;Node1</title>
<path fill="none" stroke="midnightblue" d="M101.18,-77.22C120.94,-83.72 145.1,-91.66 165.78,-98.46"/>
<polygon fill="midnightblue" stroke="midnightblue" points="102.18,-73.86 91.58,-74.06 99.99,-80.51 102.18,-73.86"/>
</g>
<!-- Node3 -->
<g id="node4" class="node">
<title>Node3</title>
<g id="a_node4"><a xlink:href="structsignal__easel_1_1psk_1_1Settings.html" target="_top" xlink:title="Settings for PSK modulation.">
<polygon fill="none" stroke="black" points="159,-49.5 159,-79.5 266,-79.5 266,-49.5 159,-49.5"/>
<text text-anchor="start" x="167" y="-67.5" font-family="Helvetica,sans-Serif" font-size="10.00">signal_easel::psk::</text>
<text text-anchor="middle" x="212.5" y="-56.5" font-family="Helvetica,sans-Serif" font-size="10.00">Settings</text>
</a>
</g>
</g>
<!-- Node0&#45;&gt;Node3 -->
<g id="edge3" class="edge">
<title>Node0&#45;&gt;Node3</title>
<path fill="none" stroke="midnightblue" d="M133.12,-64.5C141.69,-64.5 150.34,-64.5 158.6,-64.5"/>
<polygon fill="midnightblue" stroke="midnightblue" points="133.1,-61 123.1,-64.5 133.1,-68 133.1,-61"/>
</g>
<!-- Node4 -->
<g id="node5" class="node">
<title>Node4</title>
<g id="a_node5"><a xlink:href="structsignal__easel_1_1sstv_1_1Settings.html" target="_top" xlink:title="Settings for SSTV modulation.">
<polygon fill="none" stroke="black" points="160.5,-0.5 160.5,-30.5 264.5,-30.5 264.5,-0.5 160.5,-0.5"/>
<text text-anchor="start" x="168.5" y="-18.5" font-family="Helvetica,sans-Serif" font-size="10.00">signal_easel::sstv</text>
<text text-anchor="middle" x="212.5" y="-7.5" font-family="Helvetica,sans-Serif" font-size="10.00">::Settings</text>
</a>
</g>
</g>
<!-- Node0&#45;&gt;Node4 -->
<g id="edge4" class="edge">
<title>Node0&#45;&gt;Node4</title>
<path fill="none" stroke="midnightblue" d="M101.18,-51.78C120.94,-45.28 145.1,-37.34 165.78,-30.54"/>
<polygon fill="midnightblue" stroke="midnightblue" points="99.99,-48.49 91.58,-54.94 102.18,-55.14 99.99,-48.49"/>
</g>
<!-- Node2 -->
<g id="node3" class="node">
<title>Node2</title>
<g id="a_node3"><a xlink:href="structsignal__easel_1_1aprs_1_1Settings.html" target="_top" xlink:title=" ">
<polygon fill="none" stroke="black" points="302,-98.5 302,-128.5 406,-128.5 406,-98.5 302,-98.5"/>
<text text-anchor="start" x="310" y="-116.5" font-family="Helvetica,sans-Serif" font-size="10.00">signal_easel::aprs</text>
<text text-anchor="middle" x="354" y="-105.5" font-family="Helvetica,sans-Serif" font-size="10.00">::Settings</text>
</a>
</g>
</g>
<!-- Node1&#45;&gt;Node2 -->
<g id="edge2" class="edge">
<title>Node1&#45;&gt;Node2</title>
<path fill="none" stroke="midnightblue" d="M274.75,-113.5C283.8,-113.5 293.04,-113.5 301.85,-113.5"/>
<polygon fill="midnightblue" stroke="midnightblue" points="274.65,-110 264.65,-113.5 274.65,-117 274.65,-110"/>
</g>
</g>
</svg>
