<?xml version="1.0" encoding="UTF-8" standalone="no"?>
<!DOCTYPE svg PUBLIC "-//W3C//DTD SVG 1.1//EN"
 "http://www.w3.org/Graphics/SVG/1.1/DTD/svg11.dtd">
<!-- Generated by graphviz version 2.43.0 (0)
 -->
<!-- Title: modulator.hpp Pages: 1 -->
<svg width="646pt" height="196pt"
 viewBox="0.00 0.00 646.00 196.00" xmlns="http://www.w3.org/2000/svg" xmlns:xlink="http://www.w3.org/1999/xlink">
<g id="graph0" class="graph" transform="scale(1 1) rotate(0) translate(4 192)">
<title>modulator.hpp</title>
<!-- Node1 -->
<g id="node1" class="node">
<title>Node1</title>
<g id="a_node1"><a xlink:title="Modulator base class.">
<polygon fill="#bfbfbf" stroke="black" points="192.5,-168.5 192.5,-187.5 279.5,-187.5 279.5,-168.5 192.5,-168.5"/>
<text text-anchor="middle" x="236" y="-175.5" font-family="Helvetica,sans-Serif" font-size="10.00">modulator.hpp</text>
</a>
</g>
</g>
<!-- Node2 -->
<g id="node2" class="node">
<title>Node2</title>
<g id="a_node2"><a xlink:href="modulator_8cpp.html" target="_top" xlink:title="The abstract modulator class implementation.">
<polygon fill="none" stroke="black" points="0,-112.5 0,-131.5 86,-131.5 86,-112.5 0,-112.5"/>
<text text-anchor="middle" x="43" y="-119.5" font-family="Helvetica,sans-Serif" font-size="10.00">modulator.cpp</text>
</a>
</g>
</g>
<!-- Node1&#45;&gt;Node2 -->
<g id="edge1" class="edge">
<title>Node1&#45;&gt;Node2</title>
<path fill="none" stroke="midnightblue" d="M195.61,-165.7C159.18,-155.51 106.41,-140.74 73.44,-131.52"/>
<polygon fill="midnightblue" stroke="midnightblue" points="194.85,-169.12 205.42,-168.44 196.73,-162.38 194.85,-169.12"/>
</g>
<!-- Node3 -->
<g id="node3" class="node">
<title>Node3</title>
<g id="a_node3"><a xlink:href="morse__modulator_8cpp.html" target="_top" xlink:title="Simple morse code modulator.">
<polygon fill="none" stroke="black" points="104,-112.5 104,-131.5 226,-131.5 226,-112.5 104,-112.5"/>
<text text-anchor="middle" x="165" y="-119.5" font-family="Helvetica,sans-Serif" font-size="10.00">morse_modulator.cpp</text>
</a>
</g>
</g>
<!-- Node1&#45;&gt;Node3 -->
<g id="edge2" class="edge">
<title>Node1&#45;&gt;Node3</title>
<path fill="none" stroke="midnightblue" d="M216.41,-162.1C203.63,-152.38 187.39,-140.03 176.61,-131.83"/>
<polygon fill="midnightblue" stroke="midnightblue" points="214.51,-165.06 224.59,-168.32 218.75,-159.48 214.51,-165.06"/>
</g>
<!-- Node4 -->
<g id="node4" class="node">
<title>Node4</title>
<g id="a_node4"><a xlink:href="pulse__audio__writer_8cpp.html" target="_top" xlink:title=" ">
<polygon fill="none" stroke="black" points="244,-112.5 244,-131.5 372,-131.5 372,-112.5 244,-112.5"/>
<text text-anchor="middle" x="308" y="-119.5" font-family="Helvetica,sans-Serif" font-size="10.00">pulse_audio_writer.cpp</text>
</a>
</g>
</g>
<!-- Node1&#45;&gt;Node4 -->
<g id="edge3" class="edge">
<title>Node1&#45;&gt;Node4</title>
<path fill="none" stroke="midnightblue" d="M255.87,-162.1C268.82,-152.38 285.3,-140.03 296.22,-131.83"/>
<polygon fill="midnightblue" stroke="midnightblue" points="253.47,-159.52 247.57,-168.32 257.67,-165.12 253.47,-159.52"/>
</g>
<!-- Node5 -->
<g id="node5" class="node">
<title>Node5</title>
<g id="a_node5"><a xlink:href="afsk_8hpp.html" target="_top" xlink:title="AFSK related modulation/demodulation.">
<polygon fill="none" stroke="black" points="390.5,-112.5 390.5,-131.5 449.5,-131.5 449.5,-112.5 390.5,-112.5"/>
<text text-anchor="middle" x="420" y="-119.5" font-family="Helvetica,sans-Serif" font-size="10.00">afsk.hpp</text>
</a>
</g>
</g>
<!-- Node1&#45;&gt;Node5 -->
<g id="edge4" class="edge">
<title>Node1&#45;&gt;Node5</title>
<path fill="none" stroke="midnightblue" d="M274.95,-165.57C309.66,-155.38 359.68,-140.7 390.98,-131.52"/>
<polygon fill="midnightblue" stroke="midnightblue" points="273.77,-162.27 265.16,-168.44 275.74,-168.99 273.77,-162.27"/>
</g>
<!-- Node6 -->
<g id="node6" class="node">
<title>Node6</title>
<g id="a_node6"><a xlink:href="afsk__demodulator_8cpp.html" target="_top" xlink:title="The AFSK demodulator class implementation.">
<polygon fill="none" stroke="black" points="45.5,-56.5 45.5,-75.5 170.5,-75.5 170.5,-56.5 45.5,-56.5"/>
<text text-anchor="middle" x="108" y="-63.5" font-family="Helvetica,sans-Serif" font-size="10.00">afsk_demodulator.cpp</text>
</a>
</g>
</g>
<!-- Node5&#45;&gt;Node6 -->
<g id="edge5" class="edge">
<title>Node5&#45;&gt;Node6</title>
<path fill="none" stroke="midnightblue" d="M380.01,-111.91C300.28,-96.32 219.37,-83.51 166.24,-75.51"/>
<polygon fill="midnightblue" stroke="midnightblue" points="379.74,-115.43 390.23,-113.93 381.1,-108.56 379.74,-115.43"/>
</g>
<!-- Node7 -->
<g id="node7" class="node">
<title>Node7</title>
<g id="a_node7"><a xlink:href="afsk__modulator_8cpp.html" target="_top" xlink:title="The AFSK modulator class implementation.">
<polygon fill="none" stroke="black" points="188.5,-56.5 188.5,-75.5 301.5,-75.5 301.5,-56.5 188.5,-56.5"/>
<text text-anchor="middle" x="245" y="-63.5" font-family="Helvetica,sans-Serif" font-size="10.00">afsk_modulator.cpp</text>
</a>
</g>
</g>
<!-- Node5&#45;&gt;Node7 -->
<g id="edge6" class="edge">
<title>Node5&#45;&gt;Node7</title>
<path fill="none" stroke="midnightblue" d="M382.53,-109.44C349.53,-99.26 302.24,-84.66 272.6,-75.52"/>
<polygon fill="midnightblue" stroke="midnightblue" points="381.68,-112.84 392.27,-112.44 383.75,-106.15 381.68,-112.84"/>
</g>
<!-- Node8 -->
<g id="node8" class="node">
<title>Node8</title>
<g id="a_node8"><a xlink:href="afsk__receiver_8cpp.html" target="_top" xlink:title="Implementation of the AFSK receiver class.">
<polygon fill="none" stroke="black" points="320,-56.5 320,-75.5 422,-75.5 422,-56.5 320,-56.5"/>
<text text-anchor="middle" x="371" y="-63.5" font-family="Helvetica,sans-Serif" font-size="10.00">afsk_receiver.cpp</text>
</a>
</g>
</g>
<!-- Node5&#45;&gt;Node8 -->
<g id="edge7" class="edge">
<title>Node5&#45;&gt;Node8</title>
<path fill="none" stroke="midnightblue" d="M404.97,-104.43C396.38,-94.97 385.96,-83.48 378.94,-75.75"/>
<polygon fill="midnightblue" stroke="midnightblue" points="402.6,-107.03 411.91,-112.08 407.78,-102.33 402.6,-107.03"/>
</g>
<!-- Node9 -->
<g id="node9" class="node">
<title>Node9</title>
<g id="a_node9"><a xlink:href="aprs_8hpp.html" target="_top" xlink:title="APRS implementation.">
<polygon fill="none" stroke="black" points="440.5,-56.5 440.5,-75.5 499.5,-75.5 499.5,-56.5 440.5,-56.5"/>
<text text-anchor="middle" x="470" y="-63.5" font-family="Helvetica,sans-Serif" font-size="10.00">aprs.hpp</text>
</a>
</g>
</g>
<!-- Node5&#45;&gt;Node9 -->
<g id="edge8" class="edge">
<title>Node5&#45;&gt;Node9</title>
<path fill="none" stroke="midnightblue" d="M435.08,-104.72C443.89,-95.2 454.67,-83.56 461.9,-75.75"/>
<polygon fill="midnightblue" stroke="midnightblue" points="432.48,-102.37 428.26,-112.08 437.62,-107.12 432.48,-102.37"/>
</g>
<!-- Node13 -->
<g id="node13" class="node">
<title>Node13</title>
<g id="a_node13"><a xlink:href="pulse__test_8cpp.html" target="_top" xlink:title="PulseAudio output test. Does not use gtest.">
<polygon fill="none" stroke="black" points="529.5,-0.5 529.5,-19.5 616.5,-19.5 616.5,-0.5 529.5,-0.5"/>
<text text-anchor="middle" x="573" y="-7.5" font-family="Helvetica,sans-Serif" font-size="10.00">pulse_test.cpp</text>
</a>
</g>
</g>
<!-- Node5&#45;&gt;Node13 -->
<g id="edge14" class="edge">
<title>Node5&#45;&gt;Node13</title>
<path fill="none" stroke="midnightblue" d="M450.97,-108.35C468.76,-100.36 491.07,-89.09 509,-76 532.28,-59 554.81,-33.32 565.88,-19.89"/>
<polygon fill="midnightblue" stroke="midnightblue" points="449.37,-105.23 441.61,-112.44 452.17,-111.64 449.37,-105.23"/>
</g>
<!-- Node14 -->
<g id="node14" class="node">
<title>Node14</title>
<g id="a_node14"><a xlink:href="afsk__test_8cpp.html" target="_top" xlink:title=" ">
<polygon fill="none" stroke="black" points="556,-56.5 556,-75.5 638,-75.5 638,-56.5 556,-56.5"/>
<text text-anchor="middle" x="597" y="-63.5" font-family="Helvetica,sans-Serif" font-size="10.00">afsk_test.cpp</text>
</a>
</g>
</g>
<!-- Node5&#45;&gt;Node14 -->
<g id="edge13" class="edge">
<title>Node5&#45;&gt;Node14</title>
<path fill="none" stroke="midnightblue" d="M457.9,-109.44C491.28,-99.26 539.1,-84.66 569.09,-75.52"/>
<polygon fill="midnightblue" stroke="midnightblue" points="456.59,-106.18 448.05,-112.44 458.63,-112.87 456.59,-106.18"/>
</g>
<!-- Node10 -->
<g id="node10" class="node">
<title>Node10</title>
<g id="a_node10"><a xlink:href="aprs__receiver_8cpp.html" target="_top" xlink:title="Implementation of the APRS receiver class.">
<polygon fill="none" stroke="black" points="233,-0.5 233,-19.5 335,-19.5 335,-0.5 233,-0.5"/>
<text text-anchor="middle" x="284" y="-7.5" font-family="Helvetica,sans-Serif" font-size="10.00">aprs_receiver.cpp</text>
</a>
</g>
</g>
<!-- Node9&#45;&gt;Node10 -->
<g id="edge9" class="edge">
<title>Node9&#45;&gt;Node10</title>
<path fill="none" stroke="midnightblue" d="M430.62,-53.57C395.53,-43.38 344.98,-28.7 313.33,-19.52"/>
<polygon fill="midnightblue" stroke="midnightblue" points="429.95,-57.02 440.53,-56.44 431.9,-50.29 429.95,-57.02"/>
</g>
<!-- Node11 -->
<g id="node11" class="node">
<title>Node11</title>
<g id="a_node11"><a xlink:href="aprs_8cpp.html" target="_top" xlink:title="APRS implementation.">
<polygon fill="none" stroke="black" points="353,-0.5 353,-19.5 411,-19.5 411,-0.5 353,-0.5"/>
<text text-anchor="middle" x="382" y="-7.5" font-family="Helvetica,sans-Serif" font-size="10.00">aprs.cpp</text>
</a>
</g>
</g>
<!-- Node9&#45;&gt;Node11 -->
<g id="edge10" class="edge">
<title>Node9&#45;&gt;Node11</title>
<path fill="none" stroke="midnightblue" d="M447.02,-50.9C430.89,-41 409.82,-28.07 396.1,-19.65"/>
<polygon fill="midnightblue" stroke="midnightblue" points="445.51,-54.08 455.86,-56.32 449.17,-48.11 445.51,-54.08"/>
</g>
<!-- Node12 -->
<g id="node12" class="node">
<title>Node12</title>
<g id="a_node12"><a xlink:href="aprs__test_8cpp.html" target="_top" xlink:title=" ">
<polygon fill="none" stroke="black" points="429,-0.5 429,-19.5 511,-19.5 511,-0.5 429,-0.5"/>
<text text-anchor="middle" x="470" y="-7.5" font-family="Helvetica,sans-Serif" font-size="10.00">aprs_test.cpp</text>
</a>
</g>
</g>
<!-- Node9&#45;&gt;Node12 -->
<g id="edge11" class="edge">
<title>Node9&#45;&gt;Node12</title>
<path fill="none" stroke="midnightblue" d="M470,-45.8C470,-36.91 470,-26.78 470,-19.75"/>
<polygon fill="midnightblue" stroke="midnightblue" points="466.5,-46.08 470,-56.08 473.5,-46.08 466.5,-46.08"/>
</g>
<!-- Node9&#45;&gt;Node13 -->
<g id="edge12" class="edge">
<title>Node9&#45;&gt;Node13</title>
<path fill="none" stroke="midnightblue" d="M495.58,-51.59C514.62,-41.61 540.06,-28.27 556.49,-19.65"/>
<polygon fill="midnightblue" stroke="midnightblue" points="493.78,-48.58 486.55,-56.32 497.03,-54.78 493.78,-48.58"/>
</g>
</g>
</svg>
