<?xml version="1.0" encoding="UTF-8" standalone="no"?>
<!DOCTYPE svg PUBLIC "-//W3C//DTD SVG 1.1//EN"
 "http://www.w3.org/Graphics/SVG/1.1/DTD/svg11.dtd">
<!-- Generated by graphviz version 2.43.0 (0)
 -->
<!-- Title: modulator.cpp Pages: 1 -->
<svg width="732pt" height="196pt"
 viewBox="0.00 0.00 731.50 196.00" xmlns="http://www.w3.org/2000/svg" xmlns:xlink="http://www.w3.org/1999/xlink">
<g id="graph0" class="graph" transform="scale(1 1) rotate(0) translate(4 192)">
<title>modulator.cpp</title>
<!-- Node1 -->
<g id="node1" class="node">
<title>Node1</title>
<g id="a_node1"><a xlink:title="The abstract modulator class implementation.">
<polygon fill="#bfbfbf" stroke="black" points="274.5,-168.5 274.5,-187.5 360.5,-187.5 360.5,-168.5 274.5,-168.5"/>
<text text-anchor="middle" x="317.5" y="-175.5" font-family="Helvetica,sans-Serif" font-size="10.00">modulator.cpp</text>
</a>
</g>
</g>
<!-- Node2 -->
<g id="node2" class="node">
<title>Node2</title>
<g id="a_node2"><a xlink:title=" ">
<polygon fill="none" stroke="#bfbfbf" points="0,-112.5 0,-131.5 47,-131.5 47,-112.5 0,-112.5"/>
<text text-anchor="middle" x="23.5" y="-119.5" font-family="Helvetica,sans-Serif" font-size="10.00">cmath</text>
</a>
</g>
</g>
<!-- Node1&#45;&gt;Node2 -->
<g id="edge1" class="edge">
<title>Node1&#45;&gt;Node2</title>
<path fill="none" stroke="midnightblue" d="M274.11,-170.96C223.96,-163.67 138.79,-150.33 57.13,-132.2"/>
<polygon fill="midnightblue" stroke="midnightblue" points="57.72,-128.74 47.2,-129.96 56.18,-135.57 57.72,-128.74"/>
</g>
<!-- Node3 -->
<g id="node3" class="node">
<title>Node3</title>
<g id="a_node3"><a xlink:title=" ">
<polygon fill="none" stroke="#bfbfbf" points="65,-112.5 65,-131.5 146,-131.5 146,-112.5 65,-112.5"/>
<text text-anchor="middle" x="105.5" y="-119.5" font-family="Helvetica,sans-Serif" font-size="10.00">wav_gen.hpp</text>
</a>
</g>
</g>
<!-- Node1&#45;&gt;Node3 -->
<g id="edge2" class="edge">
<title>Node1&#45;&gt;Node3</title>
<path fill="none" stroke="midnightblue" d="M283.91,-168.44C247.31,-159.12 188.66,-144.18 148.67,-134"/>
<polygon fill="midnightblue" stroke="midnightblue" points="149.49,-130.59 138.93,-131.52 147.76,-137.38 149.49,-130.59"/>
</g>
<!-- Node4 -->
<g id="node4" class="node">
<title>Node4</title>
<g id="a_node4"><a xlink:href="constants_8hpp.html" target="_top" xlink:title="Common constants used throughout the library.">
<polygon fill="none" stroke="black" points="164.5,-112.5 164.5,-131.5 308.5,-131.5 308.5,-112.5 164.5,-112.5"/>
<text text-anchor="middle" x="236.5" y="-119.5" font-family="Helvetica,sans-Serif" font-size="10.00">SignalEasel/constants.hpp</text>
</a>
</g>
</g>
<!-- Node1&#45;&gt;Node4 -->
<g id="edge3" class="edge">
<title>Node1&#45;&gt;Node4</title>
<path fill="none" stroke="midnightblue" d="M304.49,-168.32C291.97,-159.98 272.82,-147.21 258.03,-137.35"/>
<polygon fill="midnightblue" stroke="midnightblue" points="259.74,-134.29 249.48,-131.65 255.86,-140.11 259.74,-134.29"/>
</g>
<!-- Node6 -->
<g id="node6" class="node">
<title>Node6</title>
<g id="a_node6"><a xlink:href="exception_8hpp.html" target="_top" xlink:title="SignalEasel exceptions.">
<polygon fill="none" stroke="black" points="327,-112.5 327,-131.5 472,-131.5 472,-112.5 327,-112.5"/>
<text text-anchor="middle" x="399.5" y="-119.5" font-family="Helvetica,sans-Serif" font-size="10.00">SignalEasel/exception.hpp</text>
</a>
</g>
</g>
<!-- Node1&#45;&gt;Node6 -->
<g id="edge5" class="edge">
<title>Node1&#45;&gt;Node6</title>
<path fill="none" stroke="midnightblue" d="M330.67,-168.32C343.35,-159.98 362.73,-147.21 377.71,-137.35"/>
<polygon fill="midnightblue" stroke="midnightblue" points="379.93,-140.08 386.36,-131.65 376.08,-134.23 379.93,-140.08"/>
</g>
<!-- Node9 -->
<g id="node9" class="node">
<title>Node9</title>
<g id="a_node9"><a xlink:href="modulator_8hpp.html" target="_top" xlink:title="Modulator base class.">
<polygon fill="none" stroke="black" points="490.5,-112.5 490.5,-131.5 636.5,-131.5 636.5,-112.5 490.5,-112.5"/>
<text text-anchor="middle" x="563.5" y="-119.5" font-family="Helvetica,sans-Serif" font-size="10.00">SignalEasel/modulator.hpp</text>
</a>
</g>
</g>
<!-- Node1&#45;&gt;Node9 -->
<g id="edge8" class="edge">
<title>Node1&#45;&gt;Node9</title>
<path fill="none" stroke="midnightblue" d="M356.48,-168.44C399.39,-159.02 468.45,-143.87 514.87,-133.68"/>
<polygon fill="midnightblue" stroke="midnightblue" points="515.69,-137.08 524.7,-131.52 514.19,-130.24 515.69,-137.08"/>
</g>
<!-- Node12 -->
<g id="node12" class="node">
<title>Node12</title>
<g id="a_node12"><a xlink:href="utilities_8hpp.html" target="_top" xlink:title="Common utilities for SignalEasel.">
<polygon fill="none" stroke="black" points="649.5,-56.5 649.5,-75.5 723.5,-75.5 723.5,-56.5 649.5,-56.5"/>
<text text-anchor="middle" x="686.5" y="-63.5" font-family="Helvetica,sans-Serif" font-size="10.00">utilities.hpp</text>
</a>
</g>
</g>
<!-- Node1&#45;&gt;Node12 -->
<g id="edge12" class="edge">
<title>Node1&#45;&gt;Node12</title>
<path fill="none" stroke="midnightblue" d="M360.66,-175.54C438.64,-172.2 599.23,-161.8 645.5,-132 662.45,-121.08 673.68,-100.4 680.03,-85.29"/>
<polygon fill="midnightblue" stroke="midnightblue" points="683.32,-86.5 683.66,-75.91 676.79,-83.97 683.32,-86.5"/>
</g>
<!-- Node5 -->
<g id="node5" class="node">
<title>Node5</title>
<g id="a_node5"><a xlink:title=" ">
<polygon fill="none" stroke="#bfbfbf" points="211.5,-56.5 211.5,-75.5 261.5,-75.5 261.5,-56.5 211.5,-56.5"/>
<text text-anchor="middle" x="236.5" y="-63.5" font-family="Helvetica,sans-Serif" font-size="10.00">cstdint</text>
</a>
</g>
</g>
<!-- Node4&#45;&gt;Node5 -->
<g id="edge4" class="edge">
<title>Node4&#45;&gt;Node5</title>
<path fill="none" stroke="midnightblue" d="M236.5,-112.08C236.5,-105.01 236.5,-94.86 236.5,-85.99"/>
<polygon fill="midnightblue" stroke="midnightblue" points="240,-85.75 236.5,-75.75 233,-85.75 240,-85.75"/>
</g>
<!-- Node7 -->
<g id="node7" class="node">
<title>Node7</title>
<g id="a_node7"><a xlink:title=" ">
<polygon fill="none" stroke="#bfbfbf" points="308,-56.5 308,-75.5 373,-75.5 373,-56.5 308,-56.5"/>
<text text-anchor="middle" x="340.5" y="-63.5" font-family="Helvetica,sans-Serif" font-size="10.00">exception</text>
</a>
</g>
</g>
<!-- Node6&#45;&gt;Node7 -->
<g id="edge6" class="edge">
<title>Node6&#45;&gt;Node7</title>
<path fill="none" stroke="midnightblue" d="M390.02,-112.32C381.3,-104.34 368.16,-92.31 357.6,-82.65"/>
<polygon fill="midnightblue" stroke="midnightblue" points="359.89,-80 350.15,-75.83 355.17,-85.17 359.89,-80"/>
</g>
<!-- Node8 -->
<g id="node8" class="node">
<title>Node8</title>
<g id="a_node8"><a xlink:title=" ">
<polygon fill="none" stroke="#bfbfbf" points="541.5,-0.5 541.5,-19.5 585.5,-19.5 585.5,-0.5 541.5,-0.5"/>
<text text-anchor="middle" x="563.5" y="-7.5" font-family="Helvetica,sans-Serif" font-size="10.00">string</text>
</a>
</g>
</g>
<!-- Node6&#45;&gt;Node8 -->
<g id="edge7" class="edge">
<title>Node6&#45;&gt;Node8</title>
<path fill="none" stroke="midnightblue" d="M400.03,-112.11C401.33,-98.21 405.85,-71.35 421.5,-56 451.11,-26.96 499.35,-16.64 531.26,-12.99"/>
<polygon fill="midnightblue" stroke="midnightblue" points="531.79,-16.45 541.4,-11.99 531.1,-9.49 531.79,-16.45"/>
</g>
<!-- Node10 -->
<g id="node10" class="node">
<title>Node10</title>
<g id="a_node10"><a xlink:title=" ">
<polygon fill="none" stroke="#bfbfbf" points="430,-56.5 430,-75.5 477,-75.5 477,-56.5 430,-56.5"/>
<text text-anchor="middle" x="453.5" y="-63.5" font-family="Helvetica,sans-Serif" font-size="10.00">vector</text>
</a>
</g>
</g>
<!-- Node9&#45;&gt;Node10 -->
<g id="edge9" class="edge">
<title>Node9&#45;&gt;Node10</title>
<path fill="none" stroke="midnightblue" d="M545.83,-112.32C528.11,-103.62 500.6,-90.12 480.21,-80.11"/>
<polygon fill="midnightblue" stroke="midnightblue" points="481.65,-76.92 471.13,-75.65 478.56,-83.2 481.65,-76.92"/>
</g>
<!-- Node11 -->
<g id="node11" class="node">
<title>Node11</title>
<g id="a_node11"><a xlink:href="settings_8hpp.html" target="_top" xlink:title="Settings structures for SignalEasel.">
<polygon fill="none" stroke="black" points="495.5,-56.5 495.5,-75.5 631.5,-75.5 631.5,-56.5 495.5,-56.5"/>
<text text-anchor="middle" x="563.5" y="-63.5" font-family="Helvetica,sans-Serif" font-size="10.00">SignalEasel/settings.hpp</text>
</a>
</g>
</g>
<!-- Node9&#45;&gt;Node11 -->
<g id="edge10" class="edge">
<title>Node9&#45;&gt;Node11</title>
<path fill="none" stroke="midnightblue" d="M563.5,-112.08C563.5,-105.01 563.5,-94.86 563.5,-85.99"/>
<polygon fill="midnightblue" stroke="midnightblue" points="567,-85.75 563.5,-75.75 560,-85.75 567,-85.75"/>
</g>
<!-- Node11&#45;&gt;Node8 -->
<g id="edge11" class="edge">
<title>Node11&#45;&gt;Node8</title>
<path fill="none" stroke="midnightblue" d="M563.5,-56.08C563.5,-49.01 563.5,-38.86 563.5,-29.99"/>
<polygon fill="midnightblue" stroke="midnightblue" points="567,-29.75 563.5,-19.75 560,-29.75 567,-29.75"/>
</g>
<!-- Node12&#45;&gt;Node8 -->
<g id="edge13" class="edge">
<title>Node12&#45;&gt;Node8</title>
<path fill="none" stroke="midnightblue" d="M667.01,-56.44C646.86,-47.6 615.18,-33.69 592.17,-23.59"/>
<polygon fill="midnightblue" stroke="midnightblue" points="593.46,-20.33 582.9,-19.52 590.65,-26.74 593.46,-20.33"/>
</g>
</g>
</svg>
