<?xml version="1.0" encoding="UTF-8" standalone="no"?>
<!DOCTYPE svg PUBLIC "-//W3C//DTD SVG 1.1//EN"
 "http://www.w3.org/Graphics/SVG/1.1/DTD/svg11.dtd">
<!-- Generated by graphviz version 2.43.0 (0)
 -->
<!-- Title: modulator.hpp Pages: 1 -->
<svg width="1681pt" height="196pt"
 viewBox="0.00 0.00 1681.00 196.00" xmlns="http://www.w3.org/2000/svg" xmlns:xlink="http://www.w3.org/1999/xlink">
<g id="graph0" class="graph" transform="scale(1 1) rotate(0) translate(4 192)">
<title>modulator.hpp</title>
<!-- Node1 -->
<g id="node1" class="node">
<title>Node1</title>
<g id="a_node1"><a xlink:title="Modulator base class.">
<polygon fill="#bfbfbf" stroke="black" points="352.5,-168.5 352.5,-187.5 439.5,-187.5 439.5,-168.5 352.5,-168.5"/>
<text text-anchor="middle" x="396" y="-175.5" font-family="Helvetica,sans-Serif" font-size="10.00">modulator.hpp</text>
</a>
</g>
</g>
<!-- Node2 -->
<g id="node2" class="node">
<title>Node2</title>
<g id="a_node2"><a xlink:href="modulator_8cpp.html" target="_top" xlink:title="The abstract modulator class implementation.">
<polygon fill="none" stroke="black" points="0,-112.5 0,-131.5 86,-131.5 86,-112.5 0,-112.5"/>
<text text-anchor="middle" x="43" y="-119.5" font-family="Helvetica,sans-Serif" font-size="10.00">modulator.cpp</text>
</a>
</g>
</g>
<!-- Node1&#45;&gt;Node2 -->
<g id="edge1" class="edge">
<title>Node1&#45;&gt;Node2</title>
<path fill="none" stroke="midnightblue" d="M342.29,-169.35C282.04,-160.68 181.42,-145.94 95,-132 92.11,-131.53 89.12,-131.04 86.12,-130.54"/>
<polygon fill="midnightblue" stroke="midnightblue" points="341.94,-172.84 352.34,-170.79 342.93,-165.91 341.94,-172.84"/>
</g>
<!-- Node3 -->
<g id="node3" class="node">
<title>Node3</title>
<g id="a_node3"><a xlink:href="morse__modulator_8cpp.html" target="_top" xlink:title="Simple morse code modulator.">
<polygon fill="none" stroke="black" points="104,-112.5 104,-131.5 226,-131.5 226,-112.5 104,-112.5"/>
<text text-anchor="middle" x="165" y="-119.5" font-family="Helvetica,sans-Serif" font-size="10.00">morse_modulator.cpp</text>
</a>
</g>
</g>
<!-- Node1&#45;&gt;Node3 -->
<g id="edge2" class="edge">
<title>Node1&#45;&gt;Node3</title>
<path fill="none" stroke="midnightblue" d="M349.6,-166.15C305.95,-155.95 241.49,-140.88 201.43,-131.52"/>
<polygon fill="midnightblue" stroke="midnightblue" points="348.86,-169.58 359.4,-168.44 350.46,-162.76 348.86,-169.58"/>
</g>
<!-- Node4 -->
<g id="node4" class="node">
<title>Node4</title>
<g id="a_node4"><a xlink:href="psk__wave__shaper_8hpp.html" target="_top" xlink:title=" ">
<polygon fill="none" stroke="black" points="244,-112.5 244,-131.5 368,-131.5 368,-112.5 244,-112.5"/>
<text text-anchor="middle" x="306" y="-119.5" font-family="Helvetica,sans-Serif" font-size="10.00">psk_wave_shaper.hpp</text>
</a>
</g>
</g>
<!-- Node1&#45;&gt;Node4 -->
<g id="edge3" class="edge">
<title>Node1&#45;&gt;Node4</title>
<path fill="none" stroke="midnightblue" d="M372.96,-163.18C356.4,-153.24 334.58,-140.15 320.42,-131.65"/>
<polygon fill="midnightblue" stroke="midnightblue" points="371.16,-166.18 381.54,-168.32 374.77,-160.18 371.16,-166.18"/>
</g>
<!-- Node8 -->
<g id="node8" class="node">
<title>Node8</title>
<g id="a_node8"><a xlink:href="pulse__audio__writer_8cpp.html" target="_top" xlink:title=" ">
<polygon fill="none" stroke="black" points="424,-112.5 424,-131.5 552,-131.5 552,-112.5 424,-112.5"/>
<text text-anchor="middle" x="488" y="-119.5" font-family="Helvetica,sans-Serif" font-size="10.00">pulse_audio_writer.cpp</text>
</a>
</g>
</g>
<!-- Node1&#45;&gt;Node8 -->
<g id="edge8" class="edge">
<title>Node1&#45;&gt;Node8</title>
<path fill="none" stroke="midnightblue" d="M419.55,-163.18C436.48,-153.24 458.78,-140.15 473.26,-131.65"/>
<polygon fill="midnightblue" stroke="midnightblue" points="417.63,-160.24 410.78,-168.32 421.18,-166.28 417.63,-160.24"/>
</g>
<!-- Node9 -->
<g id="node9" class="node">
<title>Node9</title>
<g id="a_node9"><a xlink:href="afsk_8hpp.html" target="_top" xlink:title="AFSK related modulation/demodulation.">
<polygon fill="none" stroke="black" points="977.5,-112.5 977.5,-131.5 1036.5,-131.5 1036.5,-112.5 977.5,-112.5"/>
<text text-anchor="middle" x="1007" y="-119.5" font-family="Helvetica,sans-Serif" font-size="10.00">afsk.hpp</text>
</a>
</g>
</g>
<!-- Node1&#45;&gt;Node9 -->
<g id="edge9" class="edge">
<title>Node1&#45;&gt;Node9</title>
<path fill="none" stroke="midnightblue" d="M450.05,-172.22C575.11,-161.17 881.05,-134.13 977.42,-125.61"/>
<polygon fill="midnightblue" stroke="midnightblue" points="449.59,-168.75 439.94,-173.12 450.21,-175.72 449.59,-168.75"/>
</g>
<!-- Node22 -->
<g id="node22" class="node">
<title>Node22</title>
<g id="a_node22"><a xlink:href="psk_8hpp.html" target="_top" xlink:title="Phase Shift Keying Implementation.">
<polygon fill="none" stroke="black" points="368.5,-56.5 368.5,-75.5 423.5,-75.5 423.5,-56.5 368.5,-56.5"/>
<text text-anchor="middle" x="396" y="-63.5" font-family="Helvetica,sans-Serif" font-size="10.00">psk.hpp</text>
</a>
</g>
</g>
<!-- Node1&#45;&gt;Node22 -->
<g id="edge23" class="edge">
<title>Node1&#45;&gt;Node22</title>
<path fill="none" stroke="midnightblue" d="M396,-158.35C396,-134.25 396,-93.31 396,-75.59"/>
<polygon fill="midnightblue" stroke="midnightblue" points="392.5,-158.37 396,-168.37 399.5,-158.37 392.5,-158.37"/>
</g>
<!-- Node25 -->
<g id="node25" class="node">
<title>Node25</title>
<g id="a_node25"><a xlink:href="sstv_8hpp.html" target="_top" xlink:title="SSTV implementation.">
<polygon fill="none" stroke="black" points="1473.5,-112.5 1473.5,-131.5 1530.5,-131.5 1530.5,-112.5 1473.5,-112.5"/>
<text text-anchor="middle" x="1502" y="-119.5" font-family="Helvetica,sans-Serif" font-size="10.00">sstv.hpp</text>
</a>
</g>
</g>
<!-- Node1&#45;&gt;Node25 -->
<g id="edge28" class="edge">
<title>Node1&#45;&gt;Node25</title>
<path fill="none" stroke="midnightblue" d="M449.8,-174.37C646.8,-164.75 1324.94,-131.64 1473.21,-124.41"/>
<polygon fill="midnightblue" stroke="midnightblue" points="449.51,-170.88 439.7,-174.87 449.86,-177.87 449.51,-170.88"/>
</g>
<!-- Node5 -->
<g id="node5" class="node">
<title>Node5</title>
<g id="a_node5"><a xlink:href="convolutional__code_8hpp.html" target="_top" xlink:title="Convolutional Code Implementation.">
<polygon fill="none" stroke="black" points="212,-56.5 212,-75.5 344,-75.5 344,-56.5 212,-56.5"/>
<text text-anchor="middle" x="278" y="-63.5" font-family="Helvetica,sans-Serif" font-size="10.00">convolutional_code.hpp</text>
</a>
</g>
</g>
<!-- Node4&#45;&gt;Node5 -->
<g id="edge4" class="edge">
<title>Node4&#45;&gt;Node5</title>
<path fill="none" stroke="midnightblue" d="M296.66,-102.98C291.91,-93.82 286.34,-83.09 282.54,-75.75"/>
<polygon fill="midnightblue" stroke="midnightblue" points="293.67,-104.82 301.38,-112.08 299.88,-101.59 293.67,-104.82"/>
</g>
<!-- Node7 -->
<g id="node7" class="node">
<title>Node7</title>
<g id="a_node7"><a xlink:href="psk__modulator_8cpp.html" target="_top" xlink:title="Phase Shift Keying modulator.">
<polygon fill="none" stroke="black" points="85.5,-0.5 85.5,-19.5 194.5,-19.5 194.5,-0.5 85.5,-0.5"/>
<text text-anchor="middle" x="140" y="-7.5" font-family="Helvetica,sans-Serif" font-size="10.00">psk_modulator.cpp</text>
</a>
</g>
</g>
<!-- Node4&#45;&gt;Node7 -->
<g id="edge7" class="edge">
<title>Node4&#45;&gt;Node7</title>
<path fill="none" stroke="midnightblue" d="M269.08,-108.87C248.6,-101.19 223.26,-90.05 203,-76 179.24,-59.52 157.09,-33.15 146.51,-19.62"/>
<polygon fill="midnightblue" stroke="midnightblue" points="268.11,-112.24 278.7,-112.37 270.5,-105.66 268.11,-112.24"/>
</g>
<!-- Node6 -->
<g id="node6" class="node">
<title>Node6</title>
<g id="a_node6"><a xlink:href="convolutional__code_8cpp.html" target="_top" xlink:title="Convolutional Code Implementation.">
<polygon fill="none" stroke="black" points="212.5,-0.5 212.5,-19.5 343.5,-19.5 343.5,-0.5 212.5,-0.5"/>
<text text-anchor="middle" x="278" y="-7.5" font-family="Helvetica,sans-Serif" font-size="10.00">convolutional_code.cpp</text>
</a>
</g>
</g>
<!-- Node5&#45;&gt;Node6 -->
<g id="edge5" class="edge">
<title>Node5&#45;&gt;Node6</title>
<path fill="none" stroke="midnightblue" d="M278,-45.8C278,-36.91 278,-26.78 278,-19.75"/>
<polygon fill="midnightblue" stroke="midnightblue" points="274.5,-46.08 278,-56.08 281.5,-46.08 274.5,-46.08"/>
</g>
<!-- Node5&#45;&gt;Node7 -->
<g id="edge6" class="edge">
<title>Node5&#45;&gt;Node7</title>
<path fill="none" stroke="midnightblue" d="M246.75,-52.77C220.83,-42.63 184.64,-28.47 161.76,-19.52"/>
<polygon fill="midnightblue" stroke="midnightblue" points="245.55,-56.06 256.13,-56.44 248.1,-49.54 245.55,-56.06"/>
</g>
<!-- Node10 -->
<g id="node10" class="node">
<title>Node10</title>
<g id="a_node10"><a xlink:href="afsk__demodulator_8cpp.html" target="_top" xlink:title="The AFSK demodulator class implementation.">
<polygon fill="none" stroke="black" points="1066.5,-56.5 1066.5,-75.5 1191.5,-75.5 1191.5,-56.5 1066.5,-56.5"/>
<text text-anchor="middle" x="1129" y="-63.5" font-family="Helvetica,sans-Serif" font-size="10.00">afsk_demodulator.cpp</text>
</a>
</g>
</g>
<!-- Node9&#45;&gt;Node10 -->
<g id="edge10" class="edge">
<title>Node9&#45;&gt;Node10</title>
<path fill="none" stroke="midnightblue" d="M1035.54,-108.37C1058.39,-98.26 1089.81,-84.35 1109.76,-75.52"/>
<polygon fill="midnightblue" stroke="midnightblue" points="1034.06,-105.2 1026.33,-112.44 1036.89,-111.6 1034.06,-105.2"/>
</g>
<!-- Node11 -->
<g id="node11" class="node">
<title>Node11</title>
<g id="a_node11"><a xlink:href="afsk__modulator_8cpp.html" target="_top" xlink:title="The AFSK modulator class implementation.">
<polygon fill="none" stroke="black" points="1209.5,-56.5 1209.5,-75.5 1322.5,-75.5 1322.5,-56.5 1209.5,-56.5"/>
<text text-anchor="middle" x="1266" y="-63.5" font-family="Helvetica,sans-Serif" font-size="10.00">afsk_modulator.cpp</text>
</a>
</g>
</g>
<!-- Node9&#45;&gt;Node11 -->
<g id="edge11" class="edge">
<title>Node9&#45;&gt;Node11</title>
<path fill="none" stroke="midnightblue" d="M1046.8,-112.7C1095.17,-102.62 1176.36,-85.69 1225.18,-75.51"/>
<polygon fill="midnightblue" stroke="midnightblue" points="1045.79,-109.34 1036.71,-114.81 1047.21,-116.19 1045.79,-109.34"/>
</g>
<!-- Node12 -->
<g id="node12" class="node">
<title>Node12</title>
<g id="a_node12"><a xlink:href="afsk__receiver_8cpp.html" target="_top" xlink:title="Implementation of the AFSK receiver class.">
<polygon fill="none" stroke="black" points="1341,-56.5 1341,-75.5 1443,-75.5 1443,-56.5 1341,-56.5"/>
<text text-anchor="middle" x="1392" y="-63.5" font-family="Helvetica,sans-Serif" font-size="10.00">afsk_receiver.cpp</text>
</a>
</g>
</g>
<!-- Node9&#45;&gt;Node12 -->
<g id="edge12" class="edge">
<title>Node9&#45;&gt;Node12</title>
<path fill="none" stroke="midnightblue" d="M1046.95,-115.56C1108.13,-107.21 1228.7,-90.65 1331,-76 1334.18,-75.54 1337.45,-75.07 1340.75,-74.59"/>
<polygon fill="midnightblue" stroke="midnightblue" points="1046.38,-112.11 1036.94,-116.93 1047.32,-119.04 1046.38,-112.11"/>
</g>
<!-- Node13 -->
<g id="node13" class="node">
<title>Node13</title>
<g id="a_node13"><a xlink:href="aprs_8hpp.html" target="_top" xlink:title="APRS implementation.">
<polygon fill="none" stroke="black" points="850.5,-56.5 850.5,-75.5 909.5,-75.5 909.5,-56.5 850.5,-56.5"/>
<text text-anchor="middle" x="880" y="-63.5" font-family="Helvetica,sans-Serif" font-size="10.00">aprs.hpp</text>
</a>
</g>
</g>
<!-- Node9&#45;&gt;Node13 -->
<g id="edge13" class="edge">
<title>Node9&#45;&gt;Node13</title>
<path fill="none" stroke="midnightblue" d="M977.61,-108.5C953.8,-98.38 920.89,-84.39 900.03,-75.52"/>
<polygon fill="midnightblue" stroke="midnightblue" points="976.3,-111.75 986.88,-112.44 979.04,-105.31 976.3,-111.75"/>
</g>
<!-- Node20 -->
<g id="node20" class="node">
<title>Node20</title>
<g id="a_node20"><a xlink:href="pulse__test_8cpp.html" target="_top" xlink:title="PulseAudio output test. Does not use gtest.">
<polygon fill="none" stroke="black" points="1251.5,-0.5 1251.5,-19.5 1338.5,-19.5 1338.5,-0.5 1251.5,-0.5"/>
<text text-anchor="middle" x="1295" y="-7.5" font-family="Helvetica,sans-Serif" font-size="10.00">pulse_test.cpp</text>
</a>
</g>
</g>
<!-- Node9&#45;&gt;Node20 -->
<g id="edge22" class="edge">
<title>Node9&#45;&gt;Node20</title>
<path fill="none" stroke="midnightblue" d="M983.38,-106.64C964.12,-93.18 942.3,-72.67 957,-56 999.22,-8.12 1178.85,-29.35 1242,-20 1245.05,-19.55 1248.19,-19.06 1251.35,-18.56"/>
<polygon fill="midnightblue" stroke="midnightblue" points="981.65,-109.69 991.92,-112.3 985.51,-103.86 981.65,-109.69"/>
</g>
<!-- Node21 -->
<g id="node21" class="node">
<title>Node21</title>
<g id="a_node21"><a xlink:href="afsk__test_8cpp.html" target="_top" xlink:title=" ">
<polygon fill="none" stroke="black" points="966,-56.5 966,-75.5 1048,-75.5 1048,-56.5 966,-56.5"/>
<text text-anchor="middle" x="1007" y="-63.5" font-family="Helvetica,sans-Serif" font-size="10.00">afsk_test.cpp</text>
</a>
</g>
</g>
<!-- Node9&#45;&gt;Node21 -->
<g id="edge21" class="edge">
<title>Node9&#45;&gt;Node21</title>
<path fill="none" stroke="midnightblue" d="M1007,-101.8C1007,-92.91 1007,-82.78 1007,-75.75"/>
<polygon fill="midnightblue" stroke="midnightblue" points="1003.5,-102.08 1007,-112.08 1010.5,-102.08 1003.5,-102.08"/>
</g>
<!-- Node14 -->
<g id="node14" class="node">
<title>Node14</title>
<g id="a_node14"><a xlink:href="aprs__demodulator_8cpp.html" target="_top" xlink:title="Implementation of the APRS demodulator class.">
<polygon fill="none" stroke="black" points="983.5,-0.5 983.5,-19.5 1108.5,-19.5 1108.5,-0.5 983.5,-0.5"/>
<text text-anchor="middle" x="1046" y="-7.5" font-family="Helvetica,sans-Serif" font-size="10.00">aprs_demodulator.cpp</text>
</a>
</g>
</g>
<!-- Node13&#45;&gt;Node14 -->
<g id="edge14" class="edge">
<title>Node13&#45;&gt;Node14</title>
<path fill="none" stroke="midnightblue" d="M915.95,-53.3C947.23,-43.13 991.82,-28.62 1019.82,-19.52"/>
<polygon fill="midnightblue" stroke="midnightblue" points="914.73,-50.02 906.3,-56.44 916.9,-56.68 914.73,-50.02"/>
</g>
<!-- Node15 -->
<g id="node15" class="node">
<title>Node15</title>
<g id="a_node15"><a xlink:href="aprs__encoders_8cpp.html" target="_top" xlink:title="Encoding functions for APRS packets.">
<polygon fill="none" stroke="black" points="1126.5,-0.5 1126.5,-19.5 1233.5,-19.5 1233.5,-0.5 1126.5,-0.5"/>
<text text-anchor="middle" x="1180" y="-7.5" font-family="Helvetica,sans-Serif" font-size="10.00">aprs_encoders.cpp</text>
</a>
</g>
</g>
<!-- Node13&#45;&gt;Node15 -->
<g id="edge15" class="edge">
<title>Node13&#45;&gt;Node15</title>
<path fill="none" stroke="midnightblue" d="M919.63,-56.84C921.1,-56.55 922.56,-56.27 924,-56 994.93,-42.51 1077.2,-28.31 1128.92,-19.55"/>
<polygon fill="midnightblue" stroke="midnightblue" points="918.93,-53.41 909.8,-58.79 920.29,-60.28 918.93,-53.41"/>
</g>
<!-- Node16 -->
<g id="node16" class="node">
<title>Node16</title>
<g id="a_node16"><a xlink:href="aprs__modulator_8cpp.html" target="_top" xlink:title="Implementation of the APRS modulator class.">
<polygon fill="none" stroke="black" points="555.5,-0.5 555.5,-19.5 668.5,-19.5 668.5,-0.5 555.5,-0.5"/>
<text text-anchor="middle" x="612" y="-7.5" font-family="Helvetica,sans-Serif" font-size="10.00">aprs_modulator.cpp</text>
</a>
</g>
</g>
<!-- Node13&#45;&gt;Node16 -->
<g id="edge16" class="edge">
<title>Node13&#45;&gt;Node16</title>
<path fill="none" stroke="midnightblue" d="M840.24,-56.99C790.49,-46.97 705.66,-29.87 654.62,-19.59"/>
<polygon fill="midnightblue" stroke="midnightblue" points="839.8,-60.47 850.3,-59.01 841.18,-53.61 839.8,-60.47"/>
</g>
<!-- Node17 -->
<g id="node17" class="node">
<title>Node17</title>
<g id="a_node17"><a xlink:href="aprs__receiver_8cpp.html" target="_top" xlink:title="Implementation of the APRS receiver class.">
<polygon fill="none" stroke="black" points="687,-0.5 687,-19.5 789,-19.5 789,-0.5 687,-0.5"/>
<text text-anchor="middle" x="738" y="-7.5" font-family="Helvetica,sans-Serif" font-size="10.00">aprs_receiver.cpp</text>
</a>
</g>
</g>
<!-- Node13&#45;&gt;Node17 -->
<g id="edge17" class="edge">
<title>Node13&#45;&gt;Node17</title>
<path fill="none" stroke="midnightblue" d="M847.84,-52.77C821.17,-42.63 783.93,-28.47 760.4,-19.52"/>
<polygon fill="midnightblue" stroke="midnightblue" points="846.91,-56.16 857.5,-56.44 849.4,-49.62 846.91,-56.16"/>
</g>
<!-- Node18 -->
<g id="node18" class="node">
<title>Node18</title>
<g id="a_node18"><a xlink:href="aprs_8cpp.html" target="_top" xlink:title="APRS implementation.">
<polygon fill="none" stroke="black" points="807,-0.5 807,-19.5 865,-19.5 865,-0.5 807,-0.5"/>
<text text-anchor="middle" x="836" y="-7.5" font-family="Helvetica,sans-Serif" font-size="10.00">aprs.cpp</text>
</a>
</g>
</g>
<!-- Node13&#45;&gt;Node18 -->
<g id="edge18" class="edge">
<title>Node13&#45;&gt;Node18</title>
<path fill="none" stroke="midnightblue" d="M866.27,-48.14C858.6,-38.74 849.37,-27.4 843.13,-19.75"/>
<polygon fill="midnightblue" stroke="midnightblue" points="863.7,-50.54 872.73,-56.08 869.13,-46.12 863.7,-50.54"/>
</g>
<!-- Node19 -->
<g id="node19" class="node">
<title>Node19</title>
<g id="a_node19"><a xlink:href="aprs__test_8cpp.html" target="_top" xlink:title=" ">
<polygon fill="none" stroke="black" points="883,-0.5 883,-19.5 965,-19.5 965,-0.5 883,-0.5"/>
<text text-anchor="middle" x="924" y="-7.5" font-family="Helvetica,sans-Serif" font-size="10.00">aprs_test.cpp</text>
</a>
</g>
</g>
<!-- Node13&#45;&gt;Node19 -->
<g id="edge19" class="edge">
<title>Node13&#45;&gt;Node19</title>
<path fill="none" stroke="midnightblue" d="M893.73,-48.14C901.4,-38.74 910.63,-27.4 916.87,-19.75"/>
<polygon fill="midnightblue" stroke="midnightblue" points="890.87,-46.12 887.27,-56.08 896.3,-50.54 890.87,-46.12"/>
</g>
<!-- Node13&#45;&gt;Node20 -->
<g id="edge20" class="edge">
<title>Node13&#45;&gt;Node20</title>
<path fill="none" stroke="midnightblue" d="M919.61,-56.73C921.09,-56.47 922.56,-56.23 924,-56 1064.48,-33.73 1101.16,-39.91 1242,-20 1245.05,-19.57 1248.19,-19.1 1251.36,-18.61"/>
<polygon fill="midnightblue" stroke="midnightblue" points="918.96,-53.29 909.76,-58.54 920.22,-60.17 918.96,-53.29"/>
</g>
<!-- Node22&#45;&gt;Node6 -->
<g id="edge24" class="edge">
<title>Node22&#45;&gt;Node6</title>
<path fill="none" stroke="midnightblue" d="M368.1,-52.23C346.03,-42.13 315.82,-28.31 296.61,-19.52"/>
<polygon fill="midnightblue" stroke="midnightblue" points="366.75,-55.46 377.3,-56.44 369.67,-49.1 366.75,-55.46"/>
</g>
<!-- Node22&#45;&gt;Node7 -->
<g id="edge25" class="edge">
<title>Node22&#45;&gt;Node7</title>
<path fill="none" stroke="midnightblue" d="M358.22,-57.03C310.64,-46.99 229.23,-29.82 180.44,-19.53"/>
<polygon fill="midnightblue" stroke="midnightblue" points="357.61,-60.48 368.12,-59.12 359.05,-53.63 357.61,-60.48"/>
</g>
<!-- Node23 -->
<g id="node23" class="node">
<title>Node23</title>
<g id="a_node23"><a xlink:href="varicode_8cpp.html" target="_top" xlink:title="Varicode Implementation.">
<polygon fill="none" stroke="black" points="458.5,-0.5 458.5,-19.5 537.5,-19.5 537.5,-0.5 458.5,-0.5"/>
<text text-anchor="middle" x="498" y="-7.5" font-family="Helvetica,sans-Serif" font-size="10.00">varicode.cpp</text>
</a>
</g>
</g>
<!-- Node22&#45;&gt;Node23 -->
<g id="edge26" class="edge">
<title>Node22&#45;&gt;Node23</title>
<path fill="none" stroke="midnightblue" d="M421.33,-51.59C440.19,-41.61 465.38,-28.27 481.65,-19.65"/>
<polygon fill="midnightblue" stroke="midnightblue" points="419.59,-48.55 412.39,-56.32 422.86,-54.74 419.59,-48.55"/>
</g>
<!-- Node24 -->
<g id="node24" class="node">
<title>Node24</title>
<g id="a_node24"><a xlink:href="psk__test_8cpp.html" target="_top" xlink:title=" ">
<polygon fill="none" stroke="black" points="362,-0.5 362,-19.5 440,-19.5 440,-0.5 362,-0.5"/>
<text text-anchor="middle" x="401" y="-7.5" font-family="Helvetica,sans-Serif" font-size="10.00">psk_test.cpp</text>
</a>
</g>
</g>
<!-- Node22&#45;&gt;Node24 -->
<g id="edge27" class="edge">
<title>Node22&#45;&gt;Node24</title>
<path fill="none" stroke="midnightblue" d="M397.75,-46.1C398.58,-37.14 399.53,-26.86 400.19,-19.75"/>
<polygon fill="midnightblue" stroke="midnightblue" points="394.26,-45.8 396.83,-56.08 401.23,-46.45 394.26,-45.8"/>
</g>
<!-- Node26 -->
<g id="node26" class="node">
<title>Node26</title>
<g id="a_node26"><a xlink:href="sstv__modulator_8cpp.html" target="_top" xlink:title="SSTV implementation.">
<polygon fill="none" stroke="black" points="1561,-56.5 1561,-75.5 1673,-75.5 1673,-56.5 1561,-56.5"/>
<text text-anchor="middle" x="1617" y="-63.5" font-family="Helvetica,sans-Serif" font-size="10.00">sstv_modulator.cpp</text>
</a>
</g>
</g>
<!-- Node25&#45;&gt;Node26 -->
<g id="edge29" class="edge">
<title>Node25&#45;&gt;Node26</title>
<path fill="none" stroke="midnightblue" d="M1529.48,-108.1C1550.97,-98.01 1580.22,-84.27 1598.86,-75.52"/>
<polygon fill="midnightblue" stroke="midnightblue" points="1527.79,-105.02 1520.22,-112.44 1530.76,-111.36 1527.79,-105.02"/>
</g>
<!-- Node27 -->
<g id="node27" class="node">
<title>Node27</title>
<g id="a_node27"><a xlink:href="sstv__test_8cpp.html" target="_top" xlink:title=" ">
<polygon fill="none" stroke="black" points="1461.5,-56.5 1461.5,-75.5 1542.5,-75.5 1542.5,-56.5 1461.5,-56.5"/>
<text text-anchor="middle" x="1502" y="-63.5" font-family="Helvetica,sans-Serif" font-size="10.00">sstv_test.cpp</text>
</a>
</g>
</g>
<!-- Node25&#45;&gt;Node27 -->
<g id="edge30" class="edge">
<title>Node25&#45;&gt;Node27</title>
<path fill="none" stroke="midnightblue" d="M1502,-101.8C1502,-92.91 1502,-82.78 1502,-75.75"/>
<polygon fill="midnightblue" stroke="midnightblue" points="1498.5,-102.08 1502,-112.08 1505.5,-102.08 1498.5,-102.08"/>
</g>
</g>
</svg>
