<?xml version="1.0" encoding="UTF-8" standalone="no"?>
<!DOCTYPE svg PUBLIC "-//W3C//DTD SVG 1.1//EN"
 "http://www.w3.org/Graphics/SVG/1.1/DTD/svg11.dtd">
<!-- Generated by graphviz version 2.43.0 (0)
 -->
<!-- Title: modulator.hpp Pages: 1 -->
<svg width="1504pt" height="196pt"
 viewBox="0.00 0.00 1503.50 196.00" xmlns="http://www.w3.org/2000/svg" xmlns:xlink="http://www.w3.org/1999/xlink">
<g id="graph0" class="graph" transform="scale(1 1) rotate(0) translate(4 192)">
<title>modulator.hpp</title>
<!-- Node1 -->
<g id="node1" class="node">
<title>Node1</title>
<g id="a_node1"><a xlink:title="Modulator base class.">
<polygon fill="#bfbfbf" stroke="black" points="971,-168.5 971,-187.5 1058,-187.5 1058,-168.5 971,-168.5"/>
<text text-anchor="middle" x="1014.5" y="-175.5" font-family="Helvetica,sans-Serif" font-size="10.00">modulator.hpp</text>
</a>
</g>
</g>
<!-- Node2 -->
<g id="node2" class="node">
<title>Node2</title>
<g id="a_node2"><a xlink:href="afsk_8hpp.html" target="_top" xlink:title="AFSK related modulation/demodulation.">
<polygon fill="none" stroke="black" points="614,-112.5 614,-131.5 673,-131.5 673,-112.5 614,-112.5"/>
<text text-anchor="middle" x="643.5" y="-119.5" font-family="Helvetica,sans-Serif" font-size="10.00">afsk.hpp</text>
</a>
</g>
</g>
<!-- Node1&#45;&gt;Node2 -->
<g id="edge1" class="edge">
<title>Node1&#45;&gt;Node2</title>
<path fill="none" stroke="midnightblue" d="M960.57,-169.15C881.18,-157.59 735.51,-136.39 673.13,-127.31"/>
<polygon fill="midnightblue" stroke="midnightblue" points="960.45,-172.67 970.85,-170.65 961.46,-165.74 960.45,-172.67"/>
</g>
<!-- Node15 -->
<g id="node15" class="node">
<title>Node15</title>
<g id="a_node15"><a xlink:href="modulator_8cpp.html" target="_top" xlink:title="The abstract modulator class implementation.">
<polygon fill="none" stroke="black" points="760.5,-112.5 760.5,-131.5 846.5,-131.5 846.5,-112.5 760.5,-112.5"/>
<text text-anchor="middle" x="803.5" y="-119.5" font-family="Helvetica,sans-Serif" font-size="10.00">modulator.cpp</text>
</a>
</g>
</g>
<!-- Node1&#45;&gt;Node15 -->
<g id="edge15" class="edge">
<title>Node1&#45;&gt;Node15</title>
<path fill="none" stroke="midnightblue" d="M971.36,-165.96C931.51,-155.76 873.14,-140.82 836.78,-131.52"/>
<polygon fill="midnightblue" stroke="midnightblue" points="970.51,-169.35 981.07,-168.44 972.25,-162.57 970.51,-169.35"/>
</g>
<!-- Node16 -->
<g id="node16" class="node">
<title>Node16</title>
<g id="a_node16"><a xlink:href="morse__modulator_8cpp.html" target="_top" xlink:title="Simple morse code modulator.">
<polygon fill="none" stroke="black" points="864.5,-112.5 864.5,-131.5 986.5,-131.5 986.5,-112.5 864.5,-112.5"/>
<text text-anchor="middle" x="925.5" y="-119.5" font-family="Helvetica,sans-Serif" font-size="10.00">morse_modulator.cpp</text>
</a>
</g>
</g>
<!-- Node1&#45;&gt;Node16 -->
<g id="edge16" class="edge">
<title>Node1&#45;&gt;Node16</title>
<path fill="none" stroke="midnightblue" d="M991.26,-162.9C974.94,-153 953.63,-140.07 939.76,-131.65"/>
<polygon fill="midnightblue" stroke="midnightblue" points="989.84,-166.13 1000.2,-168.32 993.47,-160.14 989.84,-166.13"/>
</g>
<!-- Node17 -->
<g id="node17" class="node">
<title>Node17</title>
<g id="a_node17"><a xlink:href="psk_8hpp.html" target="_top" xlink:title="Phase Shift Keying Implementation.">
<polygon fill="none" stroke="black" points="976,-56.5 976,-75.5 1031,-75.5 1031,-56.5 976,-56.5"/>
<text text-anchor="middle" x="1003.5" y="-63.5" font-family="Helvetica,sans-Serif" font-size="10.00">psk.hpp</text>
</a>
</g>
</g>
<!-- Node1&#45;&gt;Node17 -->
<g id="edge17" class="edge">
<title>Node1&#45;&gt;Node17</title>
<path fill="none" stroke="midnightblue" d="M1012.63,-158.35C1010.23,-134.25 1006.13,-93.31 1004.36,-75.59"/>
<polygon fill="midnightblue" stroke="midnightblue" points="1009.16,-158.77 1013.64,-168.37 1016.12,-158.07 1009.16,-158.77"/>
</g>
<!-- Node22 -->
<g id="node22" class="node">
<title>Node22</title>
<g id="a_node22"><a xlink:href="psk__wave__shaper_8hpp.html" target="_top" xlink:title=" ">
<polygon fill="none" stroke="black" points="1042.5,-112.5 1042.5,-131.5 1166.5,-131.5 1166.5,-112.5 1042.5,-112.5"/>
<text text-anchor="middle" x="1104.5" y="-119.5" font-family="Helvetica,sans-Serif" font-size="10.00">psk_wave_shaper.hpp</text>
</a>
</g>
</g>
<!-- Node1&#45;&gt;Node22 -->
<g id="edge22" class="edge">
<title>Node1&#45;&gt;Node22</title>
<path fill="none" stroke="midnightblue" d="M1037.54,-163.18C1054.1,-153.24 1075.92,-140.15 1090.08,-131.65"/>
<polygon fill="midnightblue" stroke="midnightblue" points="1035.73,-160.18 1028.96,-168.32 1039.34,-166.18 1035.73,-160.18"/>
</g>
<!-- Node24 -->
<g id="node24" class="node">
<title>Node24</title>
<g id="a_node24"><a xlink:href="pulse__audio__writer_8cpp.html" target="_top" xlink:title="Simple pulse audio interface.">
<polygon fill="none" stroke="black" points="1184.5,-112.5 1184.5,-131.5 1312.5,-131.5 1312.5,-112.5 1184.5,-112.5"/>
<text text-anchor="middle" x="1248.5" y="-119.5" font-family="Helvetica,sans-Serif" font-size="10.00">pulse_audio_writer.cpp</text>
</a>
</g>
</g>
<!-- Node1&#45;&gt;Node24 -->
<g id="edge27" class="edge">
<title>Node1&#45;&gt;Node24</title>
<path fill="none" stroke="midnightblue" d="M1061.5,-166.15C1105.72,-155.95 1171.02,-140.88 1211.6,-131.52"/>
<polygon fill="midnightblue" stroke="midnightblue" points="1060.53,-162.78 1051.58,-168.44 1062.11,-169.61 1060.53,-162.78"/>
</g>
<!-- Node25 -->
<g id="node25" class="node">
<title>Node25</title>
<g id="a_node25"><a xlink:href="sstv_8hpp.html" target="_top" xlink:title="SSTV implementation.">
<polygon fill="none" stroke="black" points="1331,-112.5 1331,-131.5 1388,-131.5 1388,-112.5 1331,-112.5"/>
<text text-anchor="middle" x="1359.5" y="-119.5" font-family="Helvetica,sans-Serif" font-size="10.00">sstv.hpp</text>
</a>
</g>
</g>
<!-- Node1&#45;&gt;Node25 -->
<g id="edge28" class="edge">
<title>Node1&#45;&gt;Node25</title>
<path fill="none" stroke="midnightblue" d="M1068.41,-170.54C1129.9,-162.84 1233.35,-148.87 1321.5,-132 1324.56,-131.41 1327.75,-130.75 1330.92,-130.05"/>
<polygon fill="midnightblue" stroke="midnightblue" points="1067.66,-167.11 1058.17,-171.81 1068.52,-174.05 1067.66,-167.11"/>
</g>
<!-- Node3 -->
<g id="node3" class="node">
<title>Node3</title>
<g id="a_node3"><a xlink:href="afsk__demodulator_8cpp.html" target="_top" xlink:title="The AFSK demodulator class implementation.">
<polygon fill="none" stroke="black" points="581,-56.5 581,-75.5 706,-75.5 706,-56.5 581,-56.5"/>
<text text-anchor="middle" x="643.5" y="-63.5" font-family="Helvetica,sans-Serif" font-size="10.00">afsk_demodulator.cpp</text>
</a>
</g>
</g>
<!-- Node2&#45;&gt;Node3 -->
<g id="edge2" class="edge">
<title>Node2&#45;&gt;Node3</title>
<path fill="none" stroke="midnightblue" d="M643.5,-101.8C643.5,-92.91 643.5,-82.78 643.5,-75.75"/>
<polygon fill="midnightblue" stroke="midnightblue" points="640,-102.08 643.5,-112.08 647,-102.08 640,-102.08"/>
</g>
<!-- Node4 -->
<g id="node4" class="node">
<title>Node4</title>
<g id="a_node4"><a xlink:href="afsk__modulator_8cpp.html" target="_top" xlink:title="The AFSK modulator class implementation.">
<polygon fill="none" stroke="black" points="724,-56.5 724,-75.5 837,-75.5 837,-56.5 724,-56.5"/>
<text text-anchor="middle" x="780.5" y="-63.5" font-family="Helvetica,sans-Serif" font-size="10.00">afsk_modulator.cpp</text>
</a>
</g>
</g>
<!-- Node2&#45;&gt;Node4 -->
<g id="edge3" class="edge">
<title>Node2&#45;&gt;Node4</title>
<path fill="none" stroke="midnightblue" d="M674.52,-108.77C700.26,-98.63 736.19,-84.47 758.89,-75.52"/>
<polygon fill="midnightblue" stroke="midnightblue" points="673.23,-105.52 665.21,-112.44 675.79,-112.03 673.23,-105.52"/>
</g>
<!-- Node5 -->
<g id="node5" class="node">
<title>Node5</title>
<g id="a_node5"><a xlink:href="afsk__receiver_8cpp.html" target="_top" xlink:title="Implementation of the AFSK receiver class.">
<polygon fill="none" stroke="black" points="855.5,-56.5 855.5,-75.5 957.5,-75.5 957.5,-56.5 855.5,-56.5"/>
<text text-anchor="middle" x="906.5" y="-63.5" font-family="Helvetica,sans-Serif" font-size="10.00">afsk_receiver.cpp</text>
</a>
</g>
</g>
<!-- Node2&#45;&gt;Node5 -->
<g id="edge4" class="edge">
<title>Node2&#45;&gt;Node5</title>
<path fill="none" stroke="midnightblue" d="M683.06,-112.88C732.01,-102.83 814.98,-85.79 864.86,-75.55"/>
<polygon fill="midnightblue" stroke="midnightblue" points="682.25,-109.47 673.16,-114.91 683.66,-116.33 682.25,-109.47"/>
</g>
<!-- Node6 -->
<g id="node6" class="node">
<title>Node6</title>
<g id="a_node6"><a xlink:href="afsk__test_8cpp.html" target="_top" xlink:title=" ">
<polygon fill="none" stroke="black" points="364.5,-56.5 364.5,-75.5 446.5,-75.5 446.5,-56.5 364.5,-56.5"/>
<text text-anchor="middle" x="405.5" y="-63.5" font-family="Helvetica,sans-Serif" font-size="10.00">afsk_test.cpp</text>
</a>
</g>
</g>
<!-- Node2&#45;&gt;Node6 -->
<g id="edge5" class="edge">
<title>Node2&#45;&gt;Node6</title>
<path fill="none" stroke="midnightblue" d="M603.91,-112.02C559.16,-101.86 486.86,-85.46 442.99,-75.51"/>
<polygon fill="midnightblue" stroke="midnightblue" points="603.31,-115.47 613.84,-114.27 604.86,-108.64 603.31,-115.47"/>
</g>
<!-- Node7 -->
<g id="node7" class="node">
<title>Node7</title>
<g id="a_node7"><a xlink:href="aprs_8hpp.html" target="_top" xlink:title=" ">
<polygon fill="none" stroke="black" points="465,-56.5 465,-75.5 524,-75.5 524,-56.5 465,-56.5"/>
<text text-anchor="middle" x="494.5" y="-63.5" font-family="Helvetica,sans-Serif" font-size="10.00">aprs.hpp</text>
</a>
</g>
</g>
<!-- Node2&#45;&gt;Node7 -->
<g id="edge6" class="edge">
<title>Node2&#45;&gt;Node7</title>
<path fill="none" stroke="midnightblue" d="M610.13,-108.91C582.12,-98.75 542.8,-84.51 518,-75.52"/>
<polygon fill="midnightblue" stroke="midnightblue" points="609.3,-112.33 619.89,-112.44 611.68,-105.75 609.3,-112.33"/>
</g>
<!-- Node14 -->
<g id="node14" class="node">
<title>Node14</title>
<g id="a_node14"><a xlink:href="pulse__test_8cpp.html" target="_top" xlink:title="PulseAudio output test. Does not use gtest.">
<polygon fill="none" stroke="black" points="696,-0.5 696,-19.5 783,-19.5 783,-0.5 696,-0.5"/>
<text text-anchor="middle" x="739.5" y="-7.5" font-family="Helvetica,sans-Serif" font-size="10.00">pulse_test.cpp</text>
</a>
</g>
</g>
<!-- Node2&#45;&gt;Node14 -->
<g id="edge14" class="edge">
<title>Node2&#45;&gt;Node14</title>
<path fill="none" stroke="midnightblue" d="M611.29,-108.29C585.34,-96.16 555.61,-76.7 571.5,-56 579.27,-45.88 649.99,-29.51 697.17,-19.55"/>
<polygon fill="midnightblue" stroke="midnightblue" points="610.02,-111.56 620.58,-112.42 612.86,-105.16 610.02,-111.56"/>
</g>
<!-- Node8 -->
<g id="node8" class="node">
<title>Node8</title>
<g id="a_node8"><a xlink:href="aprs_8cpp.html" target="_top" xlink:title="APRS implementation.">
<polygon fill="none" stroke="black" points="476.5,-0.5 476.5,-19.5 534.5,-19.5 534.5,-0.5 476.5,-0.5"/>
<text text-anchor="middle" x="505.5" y="-7.5" font-family="Helvetica,sans-Serif" font-size="10.00">aprs.cpp</text>
</a>
</g>
</g>
<!-- Node7&#45;&gt;Node8 -->
<g id="edge7" class="edge">
<title>Node7&#45;&gt;Node8</title>
<path fill="none" stroke="midnightblue" d="M498.35,-46.1C500.18,-37.14 502.27,-26.86 503.72,-19.75"/>
<polygon fill="midnightblue" stroke="midnightblue" points="494.88,-45.59 496.32,-56.08 501.74,-46.98 494.88,-45.59"/>
</g>
<!-- Node9 -->
<g id="node9" class="node">
<title>Node9</title>
<g id="a_node9"><a xlink:href="aprs__demodulator_8cpp.html" target="_top" xlink:title="Implementation of the APRS demodulator class.">
<polygon fill="none" stroke="black" points="553,-0.5 553,-19.5 678,-19.5 678,-0.5 553,-0.5"/>
<text text-anchor="middle" x="615.5" y="-7.5" font-family="Helvetica,sans-Serif" font-size="10.00">aprs_demodulator.cpp</text>
</a>
</g>
</g>
<!-- Node7&#45;&gt;Node9 -->
<g id="edge8" class="edge">
<title>Node7&#45;&gt;Node9</title>
<path fill="none" stroke="midnightblue" d="M522.81,-52.37C545.47,-42.26 576.63,-28.35 596.42,-19.52"/>
<polygon fill="midnightblue" stroke="midnightblue" points="521.38,-49.17 513.67,-56.44 524.23,-55.56 521.38,-49.17"/>
</g>
<!-- Node10 -->
<g id="node10" class="node">
<title>Node10</title>
<g id="a_node10"><a xlink:href="aprs__encoders_8cpp.html" target="_top" xlink:title="Encoding functions for APRS packets.">
<polygon fill="none" stroke="black" points="0,-0.5 0,-19.5 107,-19.5 107,-0.5 0,-0.5"/>
<text text-anchor="middle" x="53.5" y="-7.5" font-family="Helvetica,sans-Serif" font-size="10.00">aprs_encoders.cpp</text>
</a>
</g>
</g>
<!-- Node7&#45;&gt;Node10 -->
<g id="edge9" class="edge">
<title>Node7&#45;&gt;Node10</title>
<path fill="none" stroke="midnightblue" d="M454.67,-56.06C303.89,-31.2 263.03,-38.51 115.5,-20 112.8,-19.66 110.04,-19.3 107.25,-18.93"/>
<polygon fill="midnightblue" stroke="midnightblue" points="454.32,-59.55 464.76,-57.75 455.48,-52.65 454.32,-59.55"/>
</g>
<!-- Node11 -->
<g id="node11" class="node">
<title>Node11</title>
<g id="a_node11"><a xlink:href="aprs__modulator_8cpp.html" target="_top" xlink:title="Implementation of the APRS modulator class.">
<polygon fill="none" stroke="black" points="125,-0.5 125,-19.5 238,-19.5 238,-0.5 125,-0.5"/>
<text text-anchor="middle" x="181.5" y="-7.5" font-family="Helvetica,sans-Serif" font-size="10.00">aprs_modulator.cpp</text>
</a>
</g>
</g>
<!-- Node7&#45;&gt;Node11 -->
<g id="edge10" class="edge">
<title>Node7&#45;&gt;Node11</title>
<path fill="none" stroke="midnightblue" d="M454.87,-55.98C373.91,-40.17 291.47,-27.2 238.1,-19.21"/>
<polygon fill="midnightblue" stroke="midnightblue" points="454.24,-59.43 464.73,-57.92 455.6,-52.56 454.24,-59.43"/>
</g>
<!-- Node12 -->
<g id="node12" class="node">
<title>Node12</title>
<g id="a_node12"><a xlink:href="aprs__receiver_8cpp.html" target="_top" xlink:title="Implementation of the APRS receiver class.">
<polygon fill="none" stroke="black" points="256.5,-0.5 256.5,-19.5 358.5,-19.5 358.5,-0.5 256.5,-0.5"/>
<text text-anchor="middle" x="307.5" y="-7.5" font-family="Helvetica,sans-Serif" font-size="10.00">aprs_receiver.cpp</text>
</a>
</g>
</g>
<!-- Node7&#45;&gt;Node12 -->
<g id="edge11" class="edge">
<title>Node7&#45;&gt;Node12</title>
<path fill="none" stroke="midnightblue" d="M454.91,-53.57C419.63,-43.38 368.81,-28.7 336.99,-19.52"/>
<polygon fill="midnightblue" stroke="midnightblue" points="454.29,-57.03 464.87,-56.44 456.23,-50.31 454.29,-57.03"/>
</g>
<!-- Node13 -->
<g id="node13" class="node">
<title>Node13</title>
<g id="a_node13"><a xlink:href="aprs__test_8cpp.html" target="_top" xlink:title=" ">
<polygon fill="none" stroke="black" points="376.5,-0.5 376.5,-19.5 458.5,-19.5 458.5,-0.5 376.5,-0.5"/>
<text text-anchor="middle" x="417.5" y="-7.5" font-family="Helvetica,sans-Serif" font-size="10.00">aprs_test.cpp</text>
</a>
</g>
</g>
<!-- Node7&#45;&gt;Node13 -->
<g id="edge12" class="edge">
<title>Node7&#45;&gt;Node13</title>
<path fill="none" stroke="midnightblue" d="M473.6,-50.34C459.59,-40.52 441.62,-27.91 429.84,-19.65"/>
<polygon fill="midnightblue" stroke="midnightblue" points="471.93,-53.45 482.13,-56.32 475.95,-47.72 471.93,-53.45"/>
</g>
<!-- Node7&#45;&gt;Node14 -->
<g id="edge13" class="edge">
<title>Node7&#45;&gt;Node14</title>
<path fill="none" stroke="midnightblue" d="M533.92,-56.31C579.76,-46.21 654.93,-29.64 700.56,-19.58"/>
<polygon fill="midnightblue" stroke="midnightblue" points="533.06,-52.92 524.05,-58.49 534.57,-59.75 533.06,-52.92"/>
</g>
<!-- Node18 -->
<g id="node18" class="node">
<title>Node18</title>
<g id="a_node18"><a xlink:href="convolutional__code_8cpp.html" target="_top" xlink:title="Convolutional Code Implementation.">
<polygon fill="none" stroke="black" points="1006,-0.5 1006,-19.5 1137,-19.5 1137,-0.5 1006,-0.5"/>
<text text-anchor="middle" x="1071.5" y="-7.5" font-family="Helvetica,sans-Serif" font-size="10.00">convolutional_code.cpp</text>
</a>
</g>
</g>
<!-- Node17&#45;&gt;Node18 -->
<g id="edge18" class="edge">
<title>Node17&#45;&gt;Node18</title>
<path fill="none" stroke="midnightblue" d="M1022.26,-50.1C1034.5,-40.38 1050.06,-28.03 1060.38,-19.83"/>
<polygon fill="midnightblue" stroke="midnightblue" points="1020.08,-47.36 1014.43,-56.32 1024.43,-52.85 1020.08,-47.36"/>
</g>
<!-- Node19 -->
<g id="node19" class="node">
<title>Node19</title>
<g id="a_node19"><a xlink:href="psk__modulator_8cpp.html" target="_top" xlink:title="Phase Shift Keying modulator.">
<polygon fill="none" stroke="black" points="1155,-0.5 1155,-19.5 1264,-19.5 1264,-0.5 1155,-0.5"/>
<text text-anchor="middle" x="1209.5" y="-7.5" font-family="Helvetica,sans-Serif" font-size="10.00">psk_modulator.cpp</text>
</a>
</g>
</g>
<!-- Node17&#45;&gt;Node19 -->
<g id="edge19" class="edge">
<title>Node17&#45;&gt;Node19</title>
<path fill="none" stroke="midnightblue" d="M1041.15,-55.13C1079.95,-44.96 1139.82,-29.26 1176.73,-19.59"/>
<polygon fill="midnightblue" stroke="midnightblue" points="1040.07,-51.8 1031.28,-57.72 1041.84,-58.57 1040.07,-51.8"/>
</g>
<!-- Node20 -->
<g id="node20" class="node">
<title>Node20</title>
<g id="a_node20"><a xlink:href="psk__test_8cpp.html" target="_top" xlink:title=" ">
<polygon fill="none" stroke="black" points="909.5,-0.5 909.5,-19.5 987.5,-19.5 987.5,-0.5 909.5,-0.5"/>
<text text-anchor="middle" x="948.5" y="-7.5" font-family="Helvetica,sans-Serif" font-size="10.00">psk_test.cpp</text>
</a>
</g>
</g>
<!-- Node17&#45;&gt;Node20 -->
<g id="edge20" class="edge">
<title>Node17&#45;&gt;Node20</title>
<path fill="none" stroke="midnightblue" d="M987.21,-49C977.46,-39.43 965.45,-27.64 957.41,-19.75"/>
<polygon fill="midnightblue" stroke="midnightblue" points="984.83,-51.57 994.42,-56.08 989.73,-46.58 984.83,-51.57"/>
</g>
<!-- Node21 -->
<g id="node21" class="node">
<title>Node21</title>
<g id="a_node21"><a xlink:href="varicode_8cpp.html" target="_top" xlink:title="Varicode Implementation.">
<polygon fill="none" stroke="black" points="812,-0.5 812,-19.5 891,-19.5 891,-0.5 812,-0.5"/>
<text text-anchor="middle" x="851.5" y="-7.5" font-family="Helvetica,sans-Serif" font-size="10.00">varicode.cpp</text>
</a>
</g>
</g>
<!-- Node17&#45;&gt;Node21 -->
<g id="edge21" class="edge">
<title>Node17&#45;&gt;Node21</title>
<path fill="none" stroke="midnightblue" d="M969.83,-53.04C941.23,-42.88 900.89,-28.55 875.47,-19.52"/>
<polygon fill="midnightblue" stroke="midnightblue" points="968.82,-56.39 979.42,-56.44 971.16,-49.8 968.82,-56.39"/>
</g>
<!-- Node22&#45;&gt;Node19 -->
<g id="edge26" class="edge">
<title>Node22&#45;&gt;Node19</title>
<path fill="none" stroke="midnightblue" d="M1143.06,-108.64C1159.77,-101.5 1178.27,-90.93 1190.5,-76 1204.21,-59.27 1208.03,-33.01 1209.09,-19.56"/>
<polygon fill="midnightblue" stroke="midnightblue" points="1141.48,-105.49 1133.49,-112.44 1144.07,-112 1141.48,-105.49"/>
</g>
<!-- Node23 -->
<g id="node23" class="node">
<title>Node23</title>
<g id="a_node23"><a xlink:href="convolutional__code_8hpp.html" target="_top" xlink:title="Convolutional Code Implementation.">
<polygon fill="none" stroke="black" points="1049.5,-56.5 1049.5,-75.5 1181.5,-75.5 1181.5,-56.5 1049.5,-56.5"/>
<text text-anchor="middle" x="1115.5" y="-63.5" font-family="Helvetica,sans-Serif" font-size="10.00">convolutional_code.hpp</text>
</a>
</g>
</g>
<!-- Node22&#45;&gt;Node23 -->
<g id="edge23" class="edge">
<title>Node22&#45;&gt;Node23</title>
<path fill="none" stroke="midnightblue" d="M1108.35,-102.1C1110.18,-93.14 1112.27,-82.86 1113.72,-75.75"/>
<polygon fill="midnightblue" stroke="midnightblue" points="1104.88,-101.59 1106.32,-112.08 1111.74,-102.98 1104.88,-101.59"/>
</g>
<!-- Node23&#45;&gt;Node18 -->
<g id="edge24" class="edge">
<title>Node23&#45;&gt;Node18</title>
<path fill="none" stroke="midnightblue" d="M1101.77,-48.14C1094.1,-38.74 1084.87,-27.4 1078.63,-19.75"/>
<polygon fill="midnightblue" stroke="midnightblue" points="1099.2,-50.54 1108.23,-56.08 1104.63,-46.12 1099.2,-50.54"/>
</g>
<!-- Node23&#45;&gt;Node19 -->
<g id="edge25" class="edge">
<title>Node23&#45;&gt;Node19</title>
<path fill="none" stroke="midnightblue" d="M1139.56,-51.18C1156.86,-41.24 1179.65,-28.15 1194.43,-19.65"/>
<polygon fill="midnightblue" stroke="midnightblue" points="1137.53,-48.31 1130.6,-56.32 1141.02,-54.38 1137.53,-48.31"/>
</g>
<!-- Node26 -->
<g id="node26" class="node">
<title>Node26</title>
<g id="a_node26"><a xlink:href="sstv__modulator_8cpp.html" target="_top" xlink:title="SSTV implementation.">
<polygon fill="none" stroke="black" points="1383.5,-56.5 1383.5,-75.5 1495.5,-75.5 1495.5,-56.5 1383.5,-56.5"/>
<text text-anchor="middle" x="1439.5" y="-63.5" font-family="Helvetica,sans-Serif" font-size="10.00">sstv_modulator.cpp</text>
</a>
</g>
</g>
<!-- Node25&#45;&gt;Node26 -->
<g id="edge29" class="edge">
<title>Node25&#45;&gt;Node26</title>
<path fill="none" stroke="midnightblue" d="M1380.8,-106.62C1395.42,-96.76 1414.33,-83.99 1426.68,-75.65"/>
<polygon fill="midnightblue" stroke="midnightblue" points="1378.68,-103.83 1372.35,-112.32 1382.6,-109.63 1378.68,-103.83"/>
</g>
<!-- Node27 -->
<g id="node27" class="node">
<title>Node27</title>
<g id="a_node27"><a xlink:href="sstv__test_8cpp.html" target="_top" xlink:title=" ">
<polygon fill="none" stroke="black" points="1284,-56.5 1284,-75.5 1365,-75.5 1365,-56.5 1284,-56.5"/>
<text text-anchor="middle" x="1324.5" y="-63.5" font-family="Helvetica,sans-Serif" font-size="10.00">sstv_test.cpp</text>
</a>
</g>
</g>
<!-- Node25&#45;&gt;Node27 -->
<g id="edge30" class="edge">
<title>Node25&#45;&gt;Node27</title>
<path fill="none" stroke="midnightblue" d="M1348.2,-103.57C1342.18,-94.27 1335.03,-83.25 1330.17,-75.75"/>
<polygon fill="midnightblue" stroke="midnightblue" points="1345.34,-105.6 1353.72,-112.08 1351.22,-101.79 1345.34,-105.6"/>
</g>
</g>
</svg>
