<?xml version="1.0" encoding="UTF-8" standalone="no"?>
<!DOCTYPE svg PUBLIC "-//W3C//DTD SVG 1.1//EN"
 "http://www.w3.org/Graphics/SVG/1.1/DTD/svg11.dtd">
<!-- Generated by graphviz version 2.43.0 (0)
 -->
<!-- Title: modulator.hpp Pages: 1 -->
<svg width="1617pt" height="196pt"
 viewBox="0.00 0.00 1617.00 196.00" xmlns="http://www.w3.org/2000/svg" xmlns:xlink="http://www.w3.org/1999/xlink">
<g id="graph0" class="graph" transform="scale(1 1) rotate(0) translate(4 192)">
<title>modulator.hpp</title>
<!-- Node1 -->
<g id="node1" class="node">
<title>Node1</title>
<g id="a_node1"><a xlink:title="Modulator base class.">
<polygon fill="#bfbfbf" stroke="black" points="1073.5,-168.5 1073.5,-187.5 1160.5,-187.5 1160.5,-168.5 1073.5,-168.5"/>
<text text-anchor="middle" x="1117" y="-175.5" font-family="Helvetica,sans-Serif" font-size="10.00">modulator.hpp</text>
</a>
</g>
</g>
<!-- Node2 -->
<g id="node2" class="node">
<title>Node2</title>
<g id="a_node2"><a xlink:href="afsk_8hpp.html" target="_top" xlink:title="AFSK related modulation/demodulation.">
<polygon fill="none" stroke="black" points="687.5,-112.5 687.5,-131.5 746.5,-131.5 746.5,-112.5 687.5,-112.5"/>
<text text-anchor="middle" x="717" y="-119.5" font-family="Helvetica,sans-Serif" font-size="10.00">afsk.hpp</text>
</a>
</g>
</g>
<!-- Node1&#45;&gt;Node2 -->
<g id="edge1" class="edge">
<title>Node1&#45;&gt;Node2</title>
<path fill="none" stroke="midnightblue" d="M1063.42,-169.77C978.02,-158.24 813.84,-136.07 746.71,-127.01"/>
<polygon fill="midnightblue" stroke="midnightblue" points="1063.05,-173.25 1073.43,-171.12 1063.99,-166.31 1063.05,-173.25"/>
</g>
<!-- Node16 -->
<g id="node16" class="node">
<title>Node16</title>
<g id="a_node16"><a xlink:href="modulator_8cpp.html" target="_top" xlink:title="The abstract modulator class implementation.">
<polygon fill="none" stroke="black" points="863,-112.5 863,-131.5 949,-131.5 949,-112.5 863,-112.5"/>
<text text-anchor="middle" x="906" y="-119.5" font-family="Helvetica,sans-Serif" font-size="10.00">modulator.cpp</text>
</a>
</g>
</g>
<!-- Node1&#45;&gt;Node16 -->
<g id="edge16" class="edge">
<title>Node1&#45;&gt;Node16</title>
<path fill="none" stroke="midnightblue" d="M1073.86,-165.96C1034.01,-155.76 975.64,-140.82 939.28,-131.52"/>
<polygon fill="midnightblue" stroke="midnightblue" points="1073.01,-169.35 1083.57,-168.44 1074.75,-162.57 1073.01,-169.35"/>
</g>
<!-- Node17 -->
<g id="node17" class="node">
<title>Node17</title>
<g id="a_node17"><a xlink:href="morse__modulator_8cpp.html" target="_top" xlink:title="Simple morse code modulator.">
<polygon fill="none" stroke="black" points="967,-112.5 967,-131.5 1089,-131.5 1089,-112.5 967,-112.5"/>
<text text-anchor="middle" x="1028" y="-119.5" font-family="Helvetica,sans-Serif" font-size="10.00">morse_modulator.cpp</text>
</a>
</g>
</g>
<!-- Node1&#45;&gt;Node17 -->
<g id="edge17" class="edge">
<title>Node1&#45;&gt;Node17</title>
<path fill="none" stroke="midnightblue" d="M1093.76,-162.9C1077.44,-153 1056.13,-140.07 1042.26,-131.65"/>
<polygon fill="midnightblue" stroke="midnightblue" points="1092.34,-166.13 1102.7,-168.32 1095.97,-160.14 1092.34,-166.13"/>
</g>
<!-- Node18 -->
<g id="node18" class="node">
<title>Node18</title>
<g id="a_node18"><a xlink:href="psk_8hpp.html" target="_top" xlink:title="Phase Shift Keying Implementation.">
<polygon fill="none" stroke="black" points="1078.5,-56.5 1078.5,-75.5 1133.5,-75.5 1133.5,-56.5 1078.5,-56.5"/>
<text text-anchor="middle" x="1106" y="-63.5" font-family="Helvetica,sans-Serif" font-size="10.00">psk.hpp</text>
</a>
</g>
</g>
<!-- Node1&#45;&gt;Node18 -->
<g id="edge18" class="edge">
<title>Node1&#45;&gt;Node18</title>
<path fill="none" stroke="midnightblue" d="M1115.13,-158.35C1112.73,-134.25 1108.63,-93.31 1106.86,-75.59"/>
<polygon fill="midnightblue" stroke="midnightblue" points="1111.66,-158.77 1116.14,-168.37 1118.62,-158.07 1111.66,-158.77"/>
</g>
<!-- Node23 -->
<g id="node23" class="node">
<title>Node23</title>
<g id="a_node23"><a xlink:href="psk__wave__shaper_8hpp.html" target="_top" xlink:title=" ">
<polygon fill="none" stroke="black" points="1145,-112.5 1145,-131.5 1269,-131.5 1269,-112.5 1145,-112.5"/>
<text text-anchor="middle" x="1207" y="-119.5" font-family="Helvetica,sans-Serif" font-size="10.00">psk_wave_shaper.hpp</text>
</a>
</g>
</g>
<!-- Node1&#45;&gt;Node23 -->
<g id="edge23" class="edge">
<title>Node1&#45;&gt;Node23</title>
<path fill="none" stroke="midnightblue" d="M1140.04,-163.18C1156.6,-153.24 1178.42,-140.15 1192.58,-131.65"/>
<polygon fill="midnightblue" stroke="midnightblue" points="1138.23,-160.18 1131.46,-168.32 1141.84,-166.18 1138.23,-160.18"/>
</g>
<!-- Node25 -->
<g id="node25" class="node">
<title>Node25</title>
<g id="a_node25"><a xlink:href="pulse__audio__writer_8cpp.html" target="_top" xlink:title="Simple pulse audio interface.">
<polygon fill="none" stroke="black" points="1287,-112.5 1287,-131.5 1415,-131.5 1415,-112.5 1287,-112.5"/>
<text text-anchor="middle" x="1351" y="-119.5" font-family="Helvetica,sans-Serif" font-size="10.00">pulse_audio_writer.cpp</text>
</a>
</g>
</g>
<!-- Node1&#45;&gt;Node25 -->
<g id="edge28" class="edge">
<title>Node1&#45;&gt;Node25</title>
<path fill="none" stroke="midnightblue" d="M1164,-166.15C1208.22,-155.95 1273.52,-140.88 1314.1,-131.52"/>
<polygon fill="midnightblue" stroke="midnightblue" points="1163.03,-162.78 1154.08,-168.44 1164.61,-169.61 1163.03,-162.78"/>
</g>
<!-- Node26 -->
<g id="node26" class="node">
<title>Node26</title>
<g id="a_node26"><a xlink:href="sstv_8hpp.html" target="_top" xlink:title="SSTV implementation.">
<polygon fill="none" stroke="black" points="1433.5,-112.5 1433.5,-131.5 1490.5,-131.5 1490.5,-112.5 1433.5,-112.5"/>
<text text-anchor="middle" x="1462" y="-119.5" font-family="Helvetica,sans-Serif" font-size="10.00">sstv.hpp</text>
</a>
</g>
</g>
<!-- Node1&#45;&gt;Node26 -->
<g id="edge29" class="edge">
<title>Node1&#45;&gt;Node26</title>
<path fill="none" stroke="midnightblue" d="M1170.91,-170.54C1232.4,-162.84 1335.85,-148.87 1424,-132 1427.06,-131.41 1430.25,-130.75 1433.42,-130.05"/>
<polygon fill="midnightblue" stroke="midnightblue" points="1170.16,-167.11 1160.67,-171.81 1171.02,-174.05 1170.16,-167.11"/>
</g>
<!-- Node3 -->
<g id="node3" class="node">
<title>Node3</title>
<g id="a_node3"><a xlink:href="afsk__demodulator_8cpp.html" target="_top" xlink:title="The AFSK demodulator class implementation.">
<polygon fill="none" stroke="black" points="654.5,-56.5 654.5,-75.5 779.5,-75.5 779.5,-56.5 654.5,-56.5"/>
<text text-anchor="middle" x="717" y="-63.5" font-family="Helvetica,sans-Serif" font-size="10.00">afsk_demodulator.cpp</text>
</a>
</g>
</g>
<!-- Node2&#45;&gt;Node3 -->
<g id="edge2" class="edge">
<title>Node2&#45;&gt;Node3</title>
<path fill="none" stroke="midnightblue" d="M717,-101.8C717,-92.91 717,-82.78 717,-75.75"/>
<polygon fill="midnightblue" stroke="midnightblue" points="713.5,-102.08 717,-112.08 720.5,-102.08 713.5,-102.08"/>
</g>
<!-- Node4 -->
<g id="node4" class="node">
<title>Node4</title>
<g id="a_node4"><a xlink:href="afsk__modulator_8cpp.html" target="_top" xlink:title="The AFSK modulator class implementation.">
<polygon fill="none" stroke="black" points="797.5,-56.5 797.5,-75.5 910.5,-75.5 910.5,-56.5 797.5,-56.5"/>
<text text-anchor="middle" x="854" y="-63.5" font-family="Helvetica,sans-Serif" font-size="10.00">afsk_modulator.cpp</text>
</a>
</g>
</g>
<!-- Node2&#45;&gt;Node4 -->
<g id="edge3" class="edge">
<title>Node2&#45;&gt;Node4</title>
<path fill="none" stroke="midnightblue" d="M748.02,-108.77C773.76,-98.63 809.69,-84.47 832.39,-75.52"/>
<polygon fill="midnightblue" stroke="midnightblue" points="746.73,-105.52 738.71,-112.44 749.29,-112.03 746.73,-105.52"/>
</g>
<!-- Node5 -->
<g id="node5" class="node">
<title>Node5</title>
<g id="a_node5"><a xlink:href="afsk__receiver_8cpp.html" target="_top" xlink:title="Implementation of the AFSK receiver class.">
<polygon fill="none" stroke="black" points="929,-56.5 929,-75.5 1031,-75.5 1031,-56.5 929,-56.5"/>
<text text-anchor="middle" x="980" y="-63.5" font-family="Helvetica,sans-Serif" font-size="10.00">afsk_receiver.cpp</text>
</a>
</g>
</g>
<!-- Node2&#45;&gt;Node5 -->
<g id="edge4" class="edge">
<title>Node2&#45;&gt;Node5</title>
<path fill="none" stroke="midnightblue" d="M756.56,-112.88C805.51,-102.83 888.48,-85.79 938.36,-75.55"/>
<polygon fill="midnightblue" stroke="midnightblue" points="755.75,-109.47 746.66,-114.91 757.16,-116.33 755.75,-109.47"/>
</g>
<!-- Node6 -->
<g id="node6" class="node">
<title>Node6</title>
<g id="a_node6"><a xlink:href="afsk__test_8cpp.html" target="_top" xlink:title=" ">
<polygon fill="none" stroke="black" points="412,-56.5 412,-75.5 494,-75.5 494,-56.5 412,-56.5"/>
<text text-anchor="middle" x="453" y="-63.5" font-family="Helvetica,sans-Serif" font-size="10.00">afsk_test.cpp</text>
</a>
</g>
</g>
<!-- Node2&#45;&gt;Node6 -->
<g id="edge5" class="edge">
<title>Node2&#45;&gt;Node6</title>
<path fill="none" stroke="midnightblue" d="M677.53,-112.93C628.31,-102.86 544.54,-85.72 494.43,-75.47"/>
<polygon fill="midnightblue" stroke="midnightblue" points="676.99,-116.39 687.48,-114.96 678.39,-109.53 676.99,-116.39"/>
</g>
<!-- Node7 -->
<g id="node7" class="node">
<title>Node7</title>
<g id="a_node7"><a xlink:href="aprs_8hpp.html" target="_top" xlink:title=" ">
<polygon fill="none" stroke="black" points="512.5,-56.5 512.5,-75.5 571.5,-75.5 571.5,-56.5 512.5,-56.5"/>
<text text-anchor="middle" x="542" y="-63.5" font-family="Helvetica,sans-Serif" font-size="10.00">aprs.hpp</text>
</a>
</g>
</g>
<!-- Node2&#45;&gt;Node7 -->
<g id="edge6" class="edge">
<title>Node2&#45;&gt;Node7</title>
<path fill="none" stroke="midnightblue" d="M679.53,-109.44C646.53,-99.26 599.24,-84.66 569.6,-75.52"/>
<polygon fill="midnightblue" stroke="midnightblue" points="678.68,-112.84 689.27,-112.44 680.75,-106.15 678.68,-112.84"/>
</g>
<!-- Node15 -->
<g id="node15" class="node">
<title>Node15</title>
<g id="a_node15"><a xlink:href="pulse__test_8cpp.html" target="_top" xlink:title="PulseAudio output test. Does not use gtest.">
<polygon fill="none" stroke="black" points="842.5,-0.5 842.5,-19.5 929.5,-19.5 929.5,-0.5 842.5,-0.5"/>
<text text-anchor="middle" x="886" y="-7.5" font-family="Helvetica,sans-Serif" font-size="10.00">pulse_test.cpp</text>
</a>
</g>
</g>
<!-- Node2&#45;&gt;Node15 -->
<g id="edge15" class="edge">
<title>Node2&#45;&gt;Node15</title>
<path fill="none" stroke="midnightblue" d="M684.87,-108.21C658.57,-95.89 628.23,-76.19 645,-56 648.16,-52.2 773.61,-30.22 842.23,-18.45"/>
<polygon fill="midnightblue" stroke="midnightblue" points="683.72,-111.53 694.28,-112.4 686.57,-105.14 683.72,-111.53"/>
</g>
<!-- Node8 -->
<g id="node8" class="node">
<title>Node8</title>
<g id="a_node8"><a xlink:href="aprs_8cpp.html" target="_top" xlink:title="APRS implementation.">
<polygon fill="none" stroke="black" points="0,-0.5 0,-19.5 58,-19.5 58,-0.5 0,-0.5"/>
<text text-anchor="middle" x="29" y="-7.5" font-family="Helvetica,sans-Serif" font-size="10.00">aprs.cpp</text>
</a>
</g>
</g>
<!-- Node7&#45;&gt;Node8 -->
<g id="edge7" class="edge">
<title>Node7&#45;&gt;Node8</title>
<path fill="none" stroke="midnightblue" d="M502.37,-56.15C309.12,-26.86 255.84,-49.99 67,-20 64.19,-19.55 61.28,-19.01 58.37,-18.42"/>
<polygon fill="midnightblue" stroke="midnightblue" points="501.86,-59.61 512.28,-57.67 502.93,-52.69 501.86,-59.61"/>
</g>
<!-- Node9 -->
<g id="node9" class="node">
<title>Node9</title>
<g id="a_node9"><a xlink:href="aprs__demodulator_8cpp.html" target="_top" xlink:title="Implementation of the APRS demodulator class.">
<polygon fill="none" stroke="black" points="76.5,-0.5 76.5,-19.5 201.5,-19.5 201.5,-0.5 76.5,-0.5"/>
<text text-anchor="middle" x="139" y="-7.5" font-family="Helvetica,sans-Serif" font-size="10.00">aprs_demodulator.cpp</text>
</a>
</g>
</g>
<!-- Node7&#45;&gt;Node9 -->
<g id="edge8" class="edge">
<title>Node7&#45;&gt;Node9</title>
<path fill="none" stroke="midnightblue" d="M502.3,-56.05C372.09,-33.35 337.01,-35.85 210,-20 207.29,-19.66 204.52,-19.31 201.72,-18.96"/>
<polygon fill="midnightblue" stroke="midnightblue" points="501.8,-59.51 512.26,-57.8 503.01,-52.62 501.8,-59.51"/>
</g>
<!-- Node10 -->
<g id="node10" class="node">
<title>Node10</title>
<g id="a_node10"><a xlink:href="aprs__encoders_8cpp.html" target="_top" xlink:title="Encoding functions for APRS packets.">
<polygon fill="none" stroke="black" points="219.5,-0.5 219.5,-19.5 326.5,-19.5 326.5,-0.5 219.5,-0.5"/>
<text text-anchor="middle" x="273" y="-7.5" font-family="Helvetica,sans-Serif" font-size="10.00">aprs_encoders.cpp</text>
</a>
</g>
</g>
<!-- Node7&#45;&gt;Node10 -->
<g id="edge9" class="edge">
<title>Node7&#45;&gt;Node10</title>
<path fill="none" stroke="midnightblue" d="M502.39,-55.93C432.74,-41.17 363.32,-27.85 318.91,-19.51"/>
<polygon fill="midnightblue" stroke="midnightblue" points="501.7,-59.36 512.21,-58.02 503.16,-52.51 501.7,-59.36"/>
</g>
<!-- Node11 -->
<g id="node11" class="node">
<title>Node11</title>
<g id="a_node11"><a xlink:href="aprs__modulator_8cpp.html" target="_top" xlink:title="Implementation of the APRS modulator class.">
<polygon fill="none" stroke="black" points="344.5,-0.5 344.5,-19.5 457.5,-19.5 457.5,-0.5 344.5,-0.5"/>
<text text-anchor="middle" x="401" y="-7.5" font-family="Helvetica,sans-Serif" font-size="10.00">aprs_modulator.cpp</text>
</a>
</g>
</g>
<!-- Node7&#45;&gt;Node11 -->
<g id="edge10" class="edge">
<title>Node7&#45;&gt;Node11</title>
<path fill="none" stroke="midnightblue" d="M510.07,-52.77C483.59,-42.63 446.61,-28.47 423.24,-19.52"/>
<polygon fill="midnightblue" stroke="midnightblue" points="509.07,-56.14 519.66,-56.44 511.57,-49.6 509.07,-56.14"/>
</g>
<!-- Node12 -->
<g id="node12" class="node">
<title>Node12</title>
<g id="a_node12"><a xlink:href="aprs__receiver_8cpp.html" target="_top" xlink:title="Implementation of the APRS receiver class.">
<polygon fill="none" stroke="black" points="476,-0.5 476,-19.5 578,-19.5 578,-0.5 476,-0.5"/>
<text text-anchor="middle" x="527" y="-7.5" font-family="Helvetica,sans-Serif" font-size="10.00">aprs_receiver.cpp</text>
</a>
</g>
</g>
<!-- Node7&#45;&gt;Node12 -->
<g id="edge11" class="edge">
<title>Node7&#45;&gt;Node12</title>
<path fill="none" stroke="midnightblue" d="M536.83,-46.4C534.32,-37.36 531.43,-26.94 529.43,-19.75"/>
<polygon fill="midnightblue" stroke="midnightblue" points="533.47,-47.38 539.52,-56.08 540.22,-45.51 533.47,-47.38"/>
</g>
<!-- Node13 -->
<g id="node13" class="node">
<title>Node13</title>
<g id="a_node13"><a xlink:href="aprs__receiver__test_8cpp.html" target="_top" xlink:title="Integration tests for signal_easel::aprs::Receiver.">
<polygon fill="none" stroke="black" points="596.5,-0.5 596.5,-19.5 723.5,-19.5 723.5,-0.5 596.5,-0.5"/>
<text text-anchor="middle" x="660" y="-7.5" font-family="Helvetica,sans-Serif" font-size="10.00">aprs_receiver_test.cpp</text>
</a>
</g>
</g>
<!-- Node7&#45;&gt;Node13 -->
<g id="edge12" class="edge">
<title>Node7&#45;&gt;Node13</title>
<path fill="none" stroke="midnightblue" d="M569.9,-52.23C591.97,-42.13 622.18,-28.31 641.39,-19.52"/>
<polygon fill="midnightblue" stroke="midnightblue" points="568.33,-49.1 560.7,-56.44 571.25,-55.46 568.33,-49.1"/>
</g>
<!-- Node14 -->
<g id="node14" class="node">
<title>Node14</title>
<g id="a_node14"><a xlink:href="aprs__test_8cpp.html" target="_top" xlink:title=" ">
<polygon fill="none" stroke="black" points="742,-0.5 742,-19.5 824,-19.5 824,-0.5 742,-0.5"/>
<text text-anchor="middle" x="783" y="-7.5" font-family="Helvetica,sans-Serif" font-size="10.00">aprs_test.cpp</text>
</a>
</g>
</g>
<!-- Node7&#45;&gt;Node14 -->
<g id="edge13" class="edge">
<title>Node7&#45;&gt;Node14</title>
<path fill="none" stroke="midnightblue" d="M581.58,-56.13C626.79,-46 700.26,-29.54 744.86,-19.55"/>
<polygon fill="midnightblue" stroke="midnightblue" points="580.54,-52.78 571.55,-58.38 582.07,-59.61 580.54,-52.78"/>
</g>
<!-- Node7&#45;&gt;Node15 -->
<g id="edge14" class="edge">
<title>Node7&#45;&gt;Node15</title>
<path fill="none" stroke="midnightblue" d="M581.99,-59.01C638.1,-50.55 743.4,-34.53 833,-20 836.04,-19.51 839.18,-18.99 842.34,-18.47"/>
<polygon fill="midnightblue" stroke="midnightblue" points="581.13,-55.6 571.77,-60.55 582.18,-62.52 581.13,-55.6"/>
</g>
<!-- Node19 -->
<g id="node19" class="node">
<title>Node19</title>
<g id="a_node19"><a xlink:href="convolutional__code_8cpp.html" target="_top" xlink:title="Convolutional Code Implementation.">
<polygon fill="none" stroke="black" points="1141.5,-0.5 1141.5,-19.5 1272.5,-19.5 1272.5,-0.5 1141.5,-0.5"/>
<text text-anchor="middle" x="1207" y="-7.5" font-family="Helvetica,sans-Serif" font-size="10.00">convolutional_code.cpp</text>
</a>
</g>
</g>
<!-- Node18&#45;&gt;Node19 -->
<g id="edge19" class="edge">
<title>Node18&#45;&gt;Node19</title>
<path fill="none" stroke="midnightblue" d="M1131.08,-51.59C1149.76,-41.61 1174.7,-28.27 1190.81,-19.65"/>
<polygon fill="midnightblue" stroke="midnightblue" points="1129.4,-48.52 1122.23,-56.32 1132.7,-54.7 1129.4,-48.52"/>
</g>
<!-- Node20 -->
<g id="node20" class="node">
<title>Node20</title>
<g id="a_node20"><a xlink:href="psk__modulator_8cpp.html" target="_top" xlink:title="Phase Shift Keying modulator.">
<polygon fill="none" stroke="black" points="1290.5,-0.5 1290.5,-19.5 1399.5,-19.5 1399.5,-0.5 1290.5,-0.5"/>
<text text-anchor="middle" x="1345" y="-7.5" font-family="Helvetica,sans-Serif" font-size="10.00">psk_modulator.cpp</text>
</a>
</g>
</g>
<!-- Node18&#45;&gt;Node20 -->
<g id="edge20" class="edge">
<title>Node18&#45;&gt;Node20</title>
<path fill="none" stroke="midnightblue" d="M1143.84,-55.84C1205.91,-41.42 1266.78,-28.01 1305.47,-19.57"/>
<polygon fill="midnightblue" stroke="midnightblue" points="1142.81,-52.48 1133.87,-58.16 1144.4,-59.3 1142.81,-52.48"/>
</g>
<!-- Node21 -->
<g id="node21" class="node">
<title>Node21</title>
<g id="a_node21"><a xlink:href="psk__test_8cpp.html" target="_top" xlink:title=" ">
<polygon fill="none" stroke="black" points="948,-0.5 948,-19.5 1026,-19.5 1026,-0.5 948,-0.5"/>
<text text-anchor="middle" x="987" y="-7.5" font-family="Helvetica,sans-Serif" font-size="10.00">psk_test.cpp</text>
</a>
</g>
</g>
<!-- Node18&#45;&gt;Node21 -->
<g id="edge21" class="edge">
<title>Node18&#45;&gt;Node21</title>
<path fill="none" stroke="midnightblue" d="M1077.86,-52.23C1055.6,-42.13 1025.14,-28.31 1005.77,-19.52"/>
<polygon fill="midnightblue" stroke="midnightblue" points="1076.59,-55.5 1087.14,-56.44 1079.48,-49.12 1076.59,-55.5"/>
</g>
<!-- Node22 -->
<g id="node22" class="node">
<title>Node22</title>
<g id="a_node22"><a xlink:href="varicode_8cpp.html" target="_top" xlink:title="Varicode Implementation.">
<polygon fill="none" stroke="black" points="1044.5,-0.5 1044.5,-19.5 1123.5,-19.5 1123.5,-0.5 1044.5,-0.5"/>
<text text-anchor="middle" x="1084" y="-7.5" font-family="Helvetica,sans-Serif" font-size="10.00">varicode.cpp</text>
</a>
</g>
</g>
<!-- Node18&#45;&gt;Node22 -->
<g id="edge22" class="edge">
<title>Node18&#45;&gt;Node22</title>
<path fill="none" stroke="midnightblue" d="M1098.54,-46.69C1094.83,-37.59 1090.52,-27.01 1087.57,-19.75"/>
<polygon fill="midnightblue" stroke="midnightblue" points="1095.35,-48.14 1102.37,-56.08 1101.84,-45.5 1095.35,-48.14"/>
</g>
<!-- Node23&#45;&gt;Node20 -->
<g id="edge27" class="edge">
<title>Node23&#45;&gt;Node20</title>
<path fill="none" stroke="midnightblue" d="M1238.92,-108.15C1256.01,-100.36 1276.8,-89.34 1293,-76 1313.52,-59.09 1331.41,-32.91 1339.84,-19.52"/>
<polygon fill="midnightblue" stroke="midnightblue" points="1237.1,-105.12 1229.36,-112.35 1239.92,-111.53 1237.1,-105.12"/>
</g>
<!-- Node24 -->
<g id="node24" class="node">
<title>Node24</title>
<g id="a_node24"><a xlink:href="convolutional__code_8hpp.html" target="_top" xlink:title="Convolutional Code Implementation.">
<polygon fill="none" stroke="black" points="1152,-56.5 1152,-75.5 1284,-75.5 1284,-56.5 1152,-56.5"/>
<text text-anchor="middle" x="1218" y="-63.5" font-family="Helvetica,sans-Serif" font-size="10.00">convolutional_code.hpp</text>
</a>
</g>
</g>
<!-- Node23&#45;&gt;Node24 -->
<g id="edge24" class="edge">
<title>Node23&#45;&gt;Node24</title>
<path fill="none" stroke="midnightblue" d="M1210.85,-102.1C1212.68,-93.14 1214.77,-82.86 1216.22,-75.75"/>
<polygon fill="midnightblue" stroke="midnightblue" points="1207.38,-101.59 1208.82,-112.08 1214.24,-102.98 1207.38,-101.59"/>
</g>
<!-- Node24&#45;&gt;Node19 -->
<g id="edge25" class="edge">
<title>Node24&#45;&gt;Node19</title>
<path fill="none" stroke="midnightblue" d="M1214.15,-46.1C1212.32,-37.14 1210.23,-26.86 1208.78,-19.75"/>
<polygon fill="midnightblue" stroke="midnightblue" points="1210.76,-46.98 1216.18,-56.08 1217.62,-45.59 1210.76,-46.98"/>
</g>
<!-- Node24&#45;&gt;Node20 -->
<g id="edge26" class="edge">
<title>Node24&#45;&gt;Node20</title>
<path fill="none" stroke="midnightblue" d="M1247.39,-52.5C1271.2,-42.38 1304.11,-28.39 1324.97,-19.52"/>
<polygon fill="midnightblue" stroke="midnightblue" points="1245.96,-49.31 1238.12,-56.44 1248.7,-55.75 1245.96,-49.31"/>
</g>
<!-- Node27 -->
<g id="node27" class="node">
<title>Node27</title>
<g id="a_node27"><a xlink:href="sstv__modulator_8cpp.html" target="_top" xlink:title="SSTV implementation.">
<polygon fill="none" stroke="black" points="1497,-56.5 1497,-75.5 1609,-75.5 1609,-56.5 1497,-56.5"/>
<text text-anchor="middle" x="1553" y="-63.5" font-family="Helvetica,sans-Serif" font-size="10.00">sstv_modulator.cpp</text>
</a>
</g>
</g>
<!-- Node26&#45;&gt;Node27 -->
<g id="edge30" class="edge">
<title>Node26&#45;&gt;Node27</title>
<path fill="none" stroke="midnightblue" d="M1485.29,-107.18C1502.04,-97.24 1524.1,-84.15 1538.42,-75.65"/>
<polygon fill="midnightblue" stroke="midnightblue" points="1483.43,-104.21 1476.62,-112.32 1487.01,-110.23 1483.43,-104.21"/>
</g>
<!-- Node28 -->
<g id="node28" class="node">
<title>Node28</title>
<g id="a_node28"><a xlink:href="sstv__test_8cpp.html" target="_top" xlink:title=" ">
<polygon fill="none" stroke="black" points="1397.5,-56.5 1397.5,-75.5 1478.5,-75.5 1478.5,-56.5 1397.5,-56.5"/>
<text text-anchor="middle" x="1438" y="-63.5" font-family="Helvetica,sans-Serif" font-size="10.00">sstv_test.cpp</text>
</a>
</g>
</g>
<!-- Node26&#45;&gt;Node28 -->
<g id="edge31" class="edge">
<title>Node26&#45;&gt;Node28</title>
<path fill="none" stroke="midnightblue" d="M1453.86,-102.69C1449.82,-93.59 1445.12,-83.01 1441.89,-75.75"/>
<polygon fill="midnightblue" stroke="midnightblue" points="1450.78,-104.37 1458.04,-112.08 1457.17,-101.52 1450.78,-104.37"/>
</g>
</g>
</svg>
