<?xml version="1.0" encoding="UTF-8" standalone="no"?>
<!DOCTYPE svg PUBLIC "-//W3C//DTD SVG 1.1//EN"
 "http://www.w3.org/Graphics/SVG/1.1/DTD/svg11.dtd">
<!-- Generated by graphviz version 2.43.0 (0)
 -->
<!-- Title: modulator.cpp Pages: 1 -->
<svg width="738pt" height="196pt"
 viewBox="0.00 0.00 737.50 196.00" xmlns="http://www.w3.org/2000/svg" xmlns:xlink="http://www.w3.org/1999/xlink">
<g id="graph0" class="graph" transform="scale(1 1) rotate(0) translate(4 192)">
<title>modulator.cpp</title>
<!-- Node1 -->
<g id="node1" class="node">
<title>Node1</title>
<g id="a_node1"><a xlink:title="The abstract modulator class implementation.">
<polygon fill="#bfbfbf" stroke="black" points="274.5,-168.5 274.5,-187.5 360.5,-187.5 360.5,-168.5 274.5,-168.5"/>
<text text-anchor="middle" x="317.5" y="-175.5" font-family="Helvetica,sans-Serif" font-size="10.00">modulator.cpp</text>
</a>
</g>
</g>
<!-- Node2 -->
<g id="node2" class="node">
<title>Node2</title>
<g id="a_node2"><a xlink:title=" ">
<polygon fill="none" stroke="#bfbfbf" points="0,-112.5 0,-131.5 47,-131.5 47,-112.5 0,-112.5"/>
<text text-anchor="middle" x="23.5" y="-119.5" font-family="Helvetica,sans-Serif" font-size="10.00">cmath</text>
</a>
</g>
</g>
<!-- Node1&#45;&gt;Node2 -->
<g id="edge1" class="edge">
<title>Node1&#45;&gt;Node2</title>
<path fill="none" stroke="midnightblue" d="M274.11,-170.96C223.96,-163.67 138.79,-150.33 57.13,-132.2"/>
<polygon fill="midnightblue" stroke="midnightblue" points="57.72,-128.74 47.2,-129.96 56.18,-135.57 57.72,-128.74"/>
</g>
<!-- Node3 -->
<g id="node3" class="node">
<title>Node3</title>
<g id="a_node3"><a xlink:title=" ">
<polygon fill="none" stroke="#bfbfbf" points="65,-112.5 65,-131.5 146,-131.5 146,-112.5 65,-112.5"/>
<text text-anchor="middle" x="105.5" y="-119.5" font-family="Helvetica,sans-Serif" font-size="10.00">wav_gen.hpp</text>
</a>
</g>
</g>
<!-- Node1&#45;&gt;Node3 -->
<g id="edge2" class="edge">
<title>Node1&#45;&gt;Node3</title>
<path fill="none" stroke="midnightblue" d="M283.91,-168.44C247.31,-159.12 188.66,-144.18 148.67,-134"/>
<polygon fill="midnightblue" stroke="midnightblue" points="149.49,-130.59 138.93,-131.52 147.76,-137.38 149.49,-130.59"/>
</g>
<!-- Node4 -->
<g id="node4" class="node">
<title>Node4</title>
<g id="a_node4"><a xlink:href="constants_8hpp.html" target="_top" xlink:title="Common constants used throughout the library.">
<polygon fill="none" stroke="black" points="327.5,-112.5 327.5,-131.5 471.5,-131.5 471.5,-112.5 327.5,-112.5"/>
<text text-anchor="middle" x="399.5" y="-119.5" font-family="Helvetica,sans-Serif" font-size="10.00">SignalEasel/constants.hpp</text>
</a>
</g>
</g>
<!-- Node1&#45;&gt;Node4 -->
<g id="edge3" class="edge">
<title>Node1&#45;&gt;Node4</title>
<path fill="none" stroke="midnightblue" d="M330.67,-168.32C343.35,-159.98 362.73,-147.21 377.71,-137.35"/>
<polygon fill="midnightblue" stroke="midnightblue" points="379.93,-140.08 386.36,-131.65 376.08,-134.23 379.93,-140.08"/>
</g>
<!-- Node6 -->
<g id="node6" class="node">
<title>Node6</title>
<g id="a_node6"><a xlink:href="exception_8hpp.html" target="_top" xlink:title="SignalEasel exceptions.">
<polygon fill="none" stroke="black" points="164,-112.5 164,-131.5 309,-131.5 309,-112.5 164,-112.5"/>
<text text-anchor="middle" x="236.5" y="-119.5" font-family="Helvetica,sans-Serif" font-size="10.00">SignalEasel/exception.hpp</text>
</a>
</g>
</g>
<!-- Node1&#45;&gt;Node6 -->
<g id="edge5" class="edge">
<title>Node1&#45;&gt;Node6</title>
<path fill="none" stroke="midnightblue" d="M304.49,-168.32C291.97,-159.98 272.82,-147.21 258.03,-137.35"/>
<polygon fill="midnightblue" stroke="midnightblue" points="259.74,-134.29 249.48,-131.65 255.86,-140.11 259.74,-134.29"/>
</g>
<!-- Node9 -->
<g id="node9" class="node">
<title>Node9</title>
<g id="a_node9"><a xlink:href="modulator_8hpp.html" target="_top" xlink:title="Modulator base class.">
<polygon fill="none" stroke="black" points="489.5,-112.5 489.5,-131.5 635.5,-131.5 635.5,-112.5 489.5,-112.5"/>
<text text-anchor="middle" x="562.5" y="-119.5" font-family="Helvetica,sans-Serif" font-size="10.00">SignalEasel/modulator.hpp</text>
</a>
</g>
</g>
<!-- Node1&#45;&gt;Node9 -->
<g id="edge8" class="edge">
<title>Node1&#45;&gt;Node9</title>
<path fill="none" stroke="midnightblue" d="M356.32,-168.44C399.06,-159.02 467.83,-143.87 514.07,-133.68"/>
<polygon fill="midnightblue" stroke="midnightblue" points="514.85,-137.09 523.86,-131.52 513.34,-130.25 514.85,-137.09"/>
</g>
<!-- Node12 -->
<g id="node12" class="node">
<title>Node12</title>
<g id="a_node12"><a xlink:href="utilities_8hpp.html" target="_top" xlink:title="Common utilities for SignalEasel.">
<polygon fill="none" stroke="black" points="655.5,-56.5 655.5,-75.5 729.5,-75.5 729.5,-56.5 655.5,-56.5"/>
<text text-anchor="middle" x="692.5" y="-63.5" font-family="Helvetica,sans-Serif" font-size="10.00">utilities.hpp</text>
</a>
</g>
</g>
<!-- Node1&#45;&gt;Node12 -->
<g id="edge13" class="edge">
<title>Node1&#45;&gt;Node12</title>
<path fill="none" stroke="midnightblue" d="M360.63,-175.19C438.16,-171.27 597.38,-159.97 644.5,-132 662.73,-121.18 676.16,-100.48 684.11,-85.34"/>
<polygon fill="midnightblue" stroke="midnightblue" points="687.46,-86.45 688.73,-75.93 681.18,-83.37 687.46,-86.45"/>
</g>
<!-- Node5 -->
<g id="node5" class="node">
<title>Node5</title>
<g id="a_node5"><a xlink:title=" ">
<polygon fill="none" stroke="#bfbfbf" points="367.5,-56.5 367.5,-75.5 417.5,-75.5 417.5,-56.5 367.5,-56.5"/>
<text text-anchor="middle" x="392.5" y="-63.5" font-family="Helvetica,sans-Serif" font-size="10.00">cstdint</text>
</a>
</g>
</g>
<!-- Node4&#45;&gt;Node5 -->
<g id="edge4" class="edge">
<title>Node4&#45;&gt;Node5</title>
<path fill="none" stroke="midnightblue" d="M398.34,-112.08C397.42,-104.93 396.08,-94.64 394.92,-85.69"/>
<polygon fill="midnightblue" stroke="midnightblue" points="398.39,-85.22 393.63,-75.75 391.45,-86.12 398.39,-85.22"/>
</g>
<!-- Node7 -->
<g id="node7" class="node">
<title>Node7</title>
<g id="a_node7"><a xlink:title=" ">
<polygon fill="none" stroke="#bfbfbf" points="204,-56.5 204,-75.5 269,-75.5 269,-56.5 204,-56.5"/>
<text text-anchor="middle" x="236.5" y="-63.5" font-family="Helvetica,sans-Serif" font-size="10.00">exception</text>
</a>
</g>
</g>
<!-- Node6&#45;&gt;Node7 -->
<g id="edge6" class="edge">
<title>Node6&#45;&gt;Node7</title>
<path fill="none" stroke="midnightblue" d="M236.5,-112.08C236.5,-105.01 236.5,-94.86 236.5,-85.99"/>
<polygon fill="midnightblue" stroke="midnightblue" points="240,-85.75 236.5,-75.75 233,-85.75 240,-85.75"/>
</g>
<!-- Node8 -->
<g id="node8" class="node">
<title>Node8</title>
<g id="a_node8"><a xlink:title=" ">
<polygon fill="none" stroke="#bfbfbf" points="547.5,-0.5 547.5,-19.5 591.5,-19.5 591.5,-0.5 547.5,-0.5"/>
<text text-anchor="middle" x="569.5" y="-7.5" font-family="Helvetica,sans-Serif" font-size="10.00">string</text>
</a>
</g>
</g>
<!-- Node6&#45;&gt;Node8 -->
<g id="edge7" class="edge">
<title>Node6&#45;&gt;Node8</title>
<path fill="none" stroke="midnightblue" d="M249.82,-112.29C271.65,-98.39 316.79,-71.22 358.5,-56 419.81,-33.63 495.4,-20.87 537.44,-14.99"/>
<polygon fill="midnightblue" stroke="midnightblue" points="537.93,-18.46 547.37,-13.65 536.99,-11.52 537.93,-18.46"/>
</g>
<!-- Node9&#45;&gt;Node5 -->
<g id="edge9" class="edge">
<title>Node9&#45;&gt;Node5</title>
<path fill="none" stroke="midnightblue" d="M535.56,-112.44C506.33,-103.16 459.55,-88.3 427.5,-78.12"/>
<polygon fill="midnightblue" stroke="midnightblue" points="428.24,-74.68 417.65,-74.99 426.12,-81.35 428.24,-74.68"/>
</g>
<!-- Node10 -->
<g id="node10" class="node">
<title>Node10</title>
<g id="a_node10"><a xlink:title=" ">
<polygon fill="none" stroke="#bfbfbf" points="436,-56.5 436,-75.5 483,-75.5 483,-56.5 436,-56.5"/>
<text text-anchor="middle" x="459.5" y="-63.5" font-family="Helvetica,sans-Serif" font-size="10.00">vector</text>
</a>
</g>
</g>
<!-- Node9&#45;&gt;Node10 -->
<g id="edge10" class="edge">
<title>Node9&#45;&gt;Node10</title>
<path fill="none" stroke="midnightblue" d="M545.95,-112.32C529.51,-103.7 504.07,-90.36 485.03,-80.39"/>
<polygon fill="midnightblue" stroke="midnightblue" points="486.49,-77.2 476.01,-75.65 483.24,-83.4 486.49,-77.2"/>
</g>
<!-- Node11 -->
<g id="node11" class="node">
<title>Node11</title>
<g id="a_node11"><a xlink:href="settings_8hpp.html" target="_top" xlink:title="Settings structures for SignalEasel.">
<polygon fill="none" stroke="black" points="501.5,-56.5 501.5,-75.5 637.5,-75.5 637.5,-56.5 501.5,-56.5"/>
<text text-anchor="middle" x="569.5" y="-63.5" font-family="Helvetica,sans-Serif" font-size="10.00">SignalEasel/settings.hpp</text>
</a>
</g>
</g>
<!-- Node9&#45;&gt;Node11 -->
<g id="edge11" class="edge">
<title>Node9&#45;&gt;Node11</title>
<path fill="none" stroke="midnightblue" d="M563.66,-112.08C564.58,-104.93 565.92,-94.64 567.08,-85.69"/>
<polygon fill="midnightblue" stroke="midnightblue" points="570.55,-86.12 568.37,-75.75 563.61,-85.22 570.55,-86.12"/>
</g>
<!-- Node11&#45;&gt;Node8 -->
<g id="edge12" class="edge">
<title>Node11&#45;&gt;Node8</title>
<path fill="none" stroke="midnightblue" d="M569.5,-56.08C569.5,-49.01 569.5,-38.86 569.5,-29.99"/>
<polygon fill="midnightblue" stroke="midnightblue" points="573,-29.75 569.5,-19.75 566,-29.75 573,-29.75"/>
</g>
<!-- Node12&#45;&gt;Node8 -->
<g id="edge14" class="edge">
<title>Node12&#45;&gt;Node8</title>
<path fill="none" stroke="midnightblue" d="M673.01,-56.44C652.86,-47.6 621.18,-33.69 598.17,-23.59"/>
<polygon fill="midnightblue" stroke="midnightblue" points="599.46,-20.33 588.9,-19.52 596.65,-26.74 599.46,-20.33"/>
</g>
</g>
</svg>
