<?xml version="1.0" encoding="UTF-8" standalone="no"?>
<!DOCTYPE svg PUBLIC "-//W3C//DTD SVG 1.1//EN"
 "http://www.w3.org/Graphics/SVG/1.1/DTD/svg11.dtd">
<!-- Generated by graphviz version 2.43.0 (0)
 -->
<!-- Title: morse_modulator.cpp Pages: 1 -->
<svg width="593pt" height="196pt"
 viewBox="0.00 0.00 593.00 196.00" xmlns="http://www.w3.org/2000/svg" xmlns:xlink="http://www.w3.org/1999/xlink">
<g id="graph0" class="graph" transform="scale(1 1) rotate(0) translate(4 192)">
<title>morse_modulator.cpp</title>
<!-- Node1 -->
<g id="node1" class="node">
<title>Node1</title>
<g id="a_node1"><a xlink:title="Simple morse code modulator.">
<polygon fill="#bfbfbf" stroke="black" points="109,-168.5 109,-187.5 231,-187.5 231,-168.5 109,-168.5"/>
<text text-anchor="middle" x="170" y="-175.5" font-family="Helvetica,sans-Serif" font-size="10.00">morse_modulator.cpp</text>
</a>
</g>
</g>
<!-- Node2 -->
<g id="node2" class="node">
<title>Node2</title>
<g id="a_node2"><a xlink:title=" ">
<polygon fill="none" stroke="#bfbfbf" points="0,-112.5 0,-131.5 42,-131.5 42,-112.5 0,-112.5"/>
<text text-anchor="middle" x="21" y="-119.5" font-family="Helvetica,sans-Serif" font-size="10.00">array</text>
</a>
</g>
</g>
<!-- Node1&#45;&gt;Node2 -->
<g id="edge1" class="edge">
<title>Node1&#45;&gt;Node2</title>
<path fill="none" stroke="midnightblue" d="M146.39,-168.44C120.81,-159.17 79.9,-144.35 51.81,-134.17"/>
<polygon fill="midnightblue" stroke="midnightblue" points="52.68,-130.76 42.09,-130.64 50.3,-137.34 52.68,-130.76"/>
</g>
<!-- Node3 -->
<g id="node3" class="node">
<title>Node3</title>
<g id="a_node3"><a xlink:title=" ">
<polygon fill="none" stroke="#bfbfbf" points="250,-0.5 250,-19.5 294,-19.5 294,-0.5 250,-0.5"/>
<text text-anchor="middle" x="272" y="-7.5" font-family="Helvetica,sans-Serif" font-size="10.00">string</text>
</a>
</g>
</g>
<!-- Node1&#45;&gt;Node3 -->
<g id="edge2" class="edge">
<title>Node1&#45;&gt;Node3</title>
<path fill="none" stroke="midnightblue" d="M138.98,-168.44C120.97,-161.69 99.77,-150.3 89,-132 84.49,-124.34 85.96,-120.35 89,-112 111.46,-50.31 193.56,-25.37 239.8,-16.05"/>
<polygon fill="midnightblue" stroke="midnightblue" points="240.72,-19.44 249.9,-14.14 239.43,-12.56 240.72,-19.44"/>
</g>
<!-- Node4 -->
<g id="node4" class="node">
<title>Node4</title>
<g id="a_node4"><a xlink:href="constants_8hpp.html" target="_top" xlink:title="Common constants used throughout the library.">
<polygon fill="none" stroke="black" points="98,-112.5 98,-131.5 242,-131.5 242,-112.5 98,-112.5"/>
<text text-anchor="middle" x="170" y="-119.5" font-family="Helvetica,sans-Serif" font-size="10.00">SignalEasel/constants.hpp</text>
</a>
</g>
</g>
<!-- Node1&#45;&gt;Node4 -->
<g id="edge3" class="edge">
<title>Node1&#45;&gt;Node4</title>
<path fill="none" stroke="midnightblue" d="M170,-168.08C170,-161.01 170,-150.86 170,-141.99"/>
<polygon fill="midnightblue" stroke="midnightblue" points="173.5,-141.75 170,-131.75 166.5,-141.75 173.5,-141.75"/>
</g>
<!-- Node6 -->
<g id="node6" class="node">
<title>Node6</title>
<g id="a_node6"><a xlink:href="exception_8hpp.html" target="_top" xlink:title="SignalEasel exceptions.">
<polygon fill="none" stroke="black" points="260.5,-112.5 260.5,-131.5 405.5,-131.5 405.5,-112.5 260.5,-112.5"/>
<text text-anchor="middle" x="333" y="-119.5" font-family="Helvetica,sans-Serif" font-size="10.00">SignalEasel/exception.hpp</text>
</a>
</g>
</g>
<!-- Node1&#45;&gt;Node6 -->
<g id="edge5" class="edge">
<title>Node1&#45;&gt;Node6</title>
<path fill="none" stroke="midnightblue" d="M195.83,-168.44C223.25,-159.36 266.78,-144.94 297.43,-134.78"/>
<polygon fill="midnightblue" stroke="midnightblue" points="298.9,-137.98 307.29,-131.52 296.7,-131.34 298.9,-137.98"/>
</g>
<!-- Node8 -->
<g id="node8" class="node">
<title>Node8</title>
<g id="a_node8"><a xlink:href="modulator_8hpp.html" target="_top" xlink:title="Modulator base class.">
<polygon fill="none" stroke="black" points="424,-112.5 424,-131.5 570,-131.5 570,-112.5 424,-112.5"/>
<text text-anchor="middle" x="497" y="-119.5" font-family="Helvetica,sans-Serif" font-size="10.00">SignalEasel/modulator.hpp</text>
</a>
</g>
</g>
<!-- Node1&#45;&gt;Node8 -->
<g id="edge8" class="edge">
<title>Node1&#45;&gt;Node8</title>
<path fill="none" stroke="midnightblue" d="M221.81,-168.44C279.82,-158.87 373.74,-143.36 435.44,-133.17"/>
<polygon fill="midnightblue" stroke="midnightblue" points="436.13,-136.6 445.43,-131.52 434.99,-129.69 436.13,-136.6"/>
</g>
<!-- Node5 -->
<g id="node5" class="node">
<title>Node5</title>
<g id="a_node5"><a xlink:title=" ">
<polygon fill="none" stroke="#bfbfbf" points="145,-56.5 145,-75.5 195,-75.5 195,-56.5 145,-56.5"/>
<text text-anchor="middle" x="170" y="-63.5" font-family="Helvetica,sans-Serif" font-size="10.00">cstdint</text>
</a>
</g>
</g>
<!-- Node4&#45;&gt;Node5 -->
<g id="edge4" class="edge">
<title>Node4&#45;&gt;Node5</title>
<path fill="none" stroke="midnightblue" d="M170,-112.08C170,-105.01 170,-94.86 170,-85.99"/>
<polygon fill="midnightblue" stroke="midnightblue" points="173.5,-85.75 170,-75.75 166.5,-85.75 173.5,-85.75"/>
</g>
<!-- Node6&#45;&gt;Node3 -->
<g id="edge7" class="edge">
<title>Node6&#45;&gt;Node3</title>
<path fill="none" stroke="midnightblue" d="M322.56,-112.4C313.04,-104.03 299.25,-90.49 291,-76 282.82,-61.63 277.89,-43.44 275.11,-29.95"/>
<polygon fill="midnightblue" stroke="midnightblue" points="278.52,-29.12 273.26,-19.92 271.64,-30.39 278.52,-29.12"/>
</g>
<!-- Node7 -->
<g id="node7" class="node">
<title>Node7</title>
<g id="a_node7"><a xlink:title=" ">
<polygon fill="none" stroke="#bfbfbf" points="300.5,-56.5 300.5,-75.5 365.5,-75.5 365.5,-56.5 300.5,-56.5"/>
<text text-anchor="middle" x="333" y="-63.5" font-family="Helvetica,sans-Serif" font-size="10.00">exception</text>
</a>
</g>
</g>
<!-- Node6&#45;&gt;Node7 -->
<g id="edge6" class="edge">
<title>Node6&#45;&gt;Node7</title>
<path fill="none" stroke="midnightblue" d="M333,-112.08C333,-105.01 333,-94.86 333,-85.99"/>
<polygon fill="midnightblue" stroke="midnightblue" points="336.5,-85.75 333,-75.75 329.5,-85.75 336.5,-85.75"/>
</g>
<!-- Node9 -->
<g id="node9" class="node">
<title>Node9</title>
<g id="a_node9"><a xlink:title=" ">
<polygon fill="none" stroke="#bfbfbf" points="383.5,-56.5 383.5,-75.5 430.5,-75.5 430.5,-56.5 383.5,-56.5"/>
<text text-anchor="middle" x="407" y="-63.5" font-family="Helvetica,sans-Serif" font-size="10.00">vector</text>
</a>
</g>
</g>
<!-- Node8&#45;&gt;Node9 -->
<g id="edge9" class="edge">
<title>Node8&#45;&gt;Node9</title>
<path fill="none" stroke="midnightblue" d="M482.54,-112.32C468.5,-103.9 446.95,-90.97 430.46,-81.07"/>
<polygon fill="midnightblue" stroke="midnightblue" points="431.8,-77.8 421.42,-75.65 428.2,-83.8 431.8,-77.8"/>
</g>
<!-- Node10 -->
<g id="node10" class="node">
<title>Node10</title>
<g id="a_node10"><a xlink:href="settings_8hpp.html" target="_top" xlink:title="Settings structures for SignalEasel.">
<polygon fill="none" stroke="black" points="449,-56.5 449,-75.5 585,-75.5 585,-56.5 449,-56.5"/>
<text text-anchor="middle" x="517" y="-63.5" font-family="Helvetica,sans-Serif" font-size="10.00">SignalEasel/settings.hpp</text>
</a>
</g>
</g>
<!-- Node8&#45;&gt;Node10 -->
<g id="edge10" class="edge">
<title>Node8&#45;&gt;Node10</title>
<path fill="none" stroke="midnightblue" d="M500.3,-112.08C502.98,-104.85 506.85,-94.41 510.19,-85.4"/>
<polygon fill="midnightblue" stroke="midnightblue" points="513.57,-86.34 513.76,-75.75 507,-83.91 513.57,-86.34"/>
</g>
<!-- Node10&#45;&gt;Node3 -->
<g id="edge11" class="edge">
<title>Node10&#45;&gt;Node3</title>
<path fill="none" stroke="midnightblue" d="M478.18,-56.44C430.09,-45.84 349.04,-27.98 304.22,-18.1"/>
<polygon fill="midnightblue" stroke="midnightblue" points="304.69,-14.62 294.18,-15.89 303.19,-21.46 304.69,-14.62"/>
</g>
</g>
</svg>
