<?xml version="1.0" encoding="UTF-8" standalone="no"?>
<!DOCTYPE svg PUBLIC "-//W3C//DTD SVG 1.1//EN"
 "http://www.w3.org/Graphics/SVG/1.1/DTD/svg11.dtd">
<!-- Generated by graphviz version 2.43.0 (0)
 -->
<!-- Title: morse_modulator.cpp Pages: 1 -->
<svg width="587pt" height="196pt"
 viewBox="0.00 0.00 587.00 196.00" xmlns="http://www.w3.org/2000/svg" xmlns:xlink="http://www.w3.org/1999/xlink">
<g id="graph0" class="graph" transform="scale(1 1) rotate(0) translate(4 192)">
<title>morse_modulator.cpp</title>
<!-- Node1 -->
<g id="node1" class="node">
<title>Node1</title>
<g id="a_node1"><a xlink:title="Simple morse code modulator.">
<polygon fill="#bfbfbf" stroke="black" points="110,-168.5 110,-187.5 232,-187.5 232,-168.5 110,-168.5"/>
<text text-anchor="middle" x="171" y="-175.5" font-family="Helvetica,sans-Serif" font-size="10.00">morse_modulator.cpp</text>
</a>
</g>
</g>
<!-- Node2 -->
<g id="node2" class="node">
<title>Node2</title>
<g id="a_node2"><a xlink:title=" ">
<polygon fill="none" stroke="#bfbfbf" points="0,-112.5 0,-131.5 42,-131.5 42,-112.5 0,-112.5"/>
<text text-anchor="middle" x="21" y="-119.5" font-family="Helvetica,sans-Serif" font-size="10.00">array</text>
</a>
</g>
</g>
<!-- Node1&#45;&gt;Node2 -->
<g id="edge1" class="edge">
<title>Node1&#45;&gt;Node2</title>
<path fill="none" stroke="midnightblue" d="M147.23,-168.44C121.37,-159.13 79.93,-144.22 51.64,-134.03"/>
<polygon fill="midnightblue" stroke="midnightblue" points="52.83,-130.74 42.23,-130.64 50.45,-137.32 52.83,-130.74"/>
</g>
<!-- Node3 -->
<g id="node3" class="node">
<title>Node3</title>
<g id="a_node3"><a xlink:title=" ">
<polygon fill="none" stroke="#bfbfbf" points="118,-0.5 118,-19.5 162,-19.5 162,-0.5 118,-0.5"/>
<text text-anchor="middle" x="140" y="-7.5" font-family="Helvetica,sans-Serif" font-size="10.00">string</text>
</a>
</g>
</g>
<!-- Node1&#45;&gt;Node3 -->
<g id="edge2" class="edge">
<title>Node1&#45;&gt;Node3</title>
<path fill="none" stroke="midnightblue" d="M139.19,-168.38C121.05,-161.66 99.84,-150.31 89,-132 68.02,-96.55 102.06,-50.86 123.91,-27.05"/>
<polygon fill="midnightblue" stroke="midnightblue" points="126.65,-29.24 131.02,-19.59 121.59,-24.41 126.65,-29.24"/>
</g>
<!-- Node4 -->
<g id="node4" class="node">
<title>Node4</title>
<g id="a_node4"><a xlink:href="constants_8hpp.html" target="_top" xlink:title="Common constants used throughout the library.">
<polygon fill="none" stroke="black" points="262,-112.5 262,-131.5 406,-131.5 406,-112.5 262,-112.5"/>
<text text-anchor="middle" x="334" y="-119.5" font-family="Helvetica,sans-Serif" font-size="10.00">SignalEasel/constants.hpp</text>
</a>
</g>
</g>
<!-- Node1&#45;&gt;Node4 -->
<g id="edge3" class="edge">
<title>Node1&#45;&gt;Node4</title>
<path fill="none" stroke="midnightblue" d="M196.83,-168.44C224.25,-159.36 267.78,-144.94 298.43,-134.78"/>
<polygon fill="midnightblue" stroke="midnightblue" points="299.9,-137.98 308.29,-131.52 297.7,-131.34 299.9,-137.98"/>
</g>
<!-- Node6 -->
<g id="node6" class="node">
<title>Node6</title>
<g id="a_node6"><a xlink:href="exception_8hpp.html" target="_top" xlink:title="SignalEasel exceptions.">
<polygon fill="none" stroke="black" points="98.5,-112.5 98.5,-131.5 243.5,-131.5 243.5,-112.5 98.5,-112.5"/>
<text text-anchor="middle" x="171" y="-119.5" font-family="Helvetica,sans-Serif" font-size="10.00">SignalEasel/exception.hpp</text>
</a>
</g>
</g>
<!-- Node1&#45;&gt;Node6 -->
<g id="edge5" class="edge">
<title>Node1&#45;&gt;Node6</title>
<path fill="none" stroke="midnightblue" d="M171,-168.08C171,-161.01 171,-150.86 171,-141.99"/>
<polygon fill="midnightblue" stroke="midnightblue" points="174.5,-141.75 171,-131.75 167.5,-141.75 174.5,-141.75"/>
</g>
<!-- Node8 -->
<g id="node8" class="node">
<title>Node8</title>
<g id="a_node8"><a xlink:href="modulator_8hpp.html" target="_top" xlink:title="Modulator base class.">
<polygon fill="none" stroke="black" points="424,-112.5 424,-131.5 570,-131.5 570,-112.5 424,-112.5"/>
<text text-anchor="middle" x="497" y="-119.5" font-family="Helvetica,sans-Serif" font-size="10.00">SignalEasel/modulator.hpp</text>
</a>
</g>
</g>
<!-- Node1&#45;&gt;Node8 -->
<g id="edge8" class="edge">
<title>Node1&#45;&gt;Node8</title>
<path fill="none" stroke="midnightblue" d="M222.66,-168.44C280.48,-158.87 374.11,-143.36 435.62,-133.17"/>
<polygon fill="midnightblue" stroke="midnightblue" points="436.29,-136.6 445.59,-131.52 435.15,-129.7 436.29,-136.6"/>
</g>
<!-- Node5 -->
<g id="node5" class="node">
<title>Node5</title>
<g id="a_node5"><a xlink:title=" ">
<polygon fill="none" stroke="#bfbfbf" points="309,-56.5 309,-75.5 359,-75.5 359,-56.5 309,-56.5"/>
<text text-anchor="middle" x="334" y="-63.5" font-family="Helvetica,sans-Serif" font-size="10.00">cstdint</text>
</a>
</g>
</g>
<!-- Node4&#45;&gt;Node5 -->
<g id="edge4" class="edge">
<title>Node4&#45;&gt;Node5</title>
<path fill="none" stroke="midnightblue" d="M334,-112.08C334,-105.01 334,-94.86 334,-85.99"/>
<polygon fill="midnightblue" stroke="midnightblue" points="337.5,-85.75 334,-75.75 330.5,-85.75 337.5,-85.75"/>
</g>
<!-- Node6&#45;&gt;Node3 -->
<g id="edge7" class="edge">
<title>Node6&#45;&gt;Node3</title>
<path fill="none" stroke="midnightblue" d="M168.57,-112.37C163.54,-94.54 151.92,-53.3 145.15,-29.27"/>
<polygon fill="midnightblue" stroke="midnightblue" points="148.5,-28.27 142.42,-19.59 141.77,-30.17 148.5,-28.27"/>
</g>
<!-- Node7 -->
<g id="node7" class="node">
<title>Node7</title>
<g id="a_node7"><a xlink:title=" ">
<polygon fill="none" stroke="#bfbfbf" points="168.5,-56.5 168.5,-75.5 233.5,-75.5 233.5,-56.5 168.5,-56.5"/>
<text text-anchor="middle" x="201" y="-63.5" font-family="Helvetica,sans-Serif" font-size="10.00">exception</text>
</a>
</g>
</g>
<!-- Node6&#45;&gt;Node7 -->
<g id="edge6" class="edge">
<title>Node6&#45;&gt;Node7</title>
<path fill="none" stroke="midnightblue" d="M175.95,-112.08C180.1,-104.61 186.15,-93.72 191.27,-84.52"/>
<polygon fill="midnightblue" stroke="midnightblue" points="194.34,-86.19 196.14,-75.75 188.22,-82.79 194.34,-86.19"/>
</g>
<!-- Node8&#45;&gt;Node5 -->
<g id="edge9" class="edge">
<title>Node8&#45;&gt;Node5</title>
<path fill="none" stroke="midnightblue" d="M471.17,-112.44C443.59,-103.31 399.71,-88.77 369.03,-78.6"/>
<polygon fill="midnightblue" stroke="midnightblue" points="369.76,-75.16 359.17,-75.34 367.56,-81.81 369.76,-75.16"/>
</g>
<!-- Node9 -->
<g id="node9" class="node">
<title>Node9</title>
<g id="a_node9"><a xlink:title=" ">
<polygon fill="none" stroke="#bfbfbf" points="377.5,-56.5 377.5,-75.5 424.5,-75.5 424.5,-56.5 377.5,-56.5"/>
<text text-anchor="middle" x="401" y="-63.5" font-family="Helvetica,sans-Serif" font-size="10.00">vector</text>
</a>
</g>
</g>
<!-- Node8&#45;&gt;Node9 -->
<g id="edge10" class="edge">
<title>Node8&#45;&gt;Node9</title>
<path fill="none" stroke="midnightblue" d="M481.58,-112.32C466.46,-103.82 443.18,-90.73 425.53,-80.8"/>
<polygon fill="midnightblue" stroke="midnightblue" points="426.82,-77.51 416.39,-75.65 423.39,-83.61 426.82,-77.51"/>
</g>
<!-- Node10 -->
<g id="node10" class="node">
<title>Node10</title>
<g id="a_node10"><a xlink:href="settings_8hpp.html" target="_top" xlink:title="Settings structures for SignalEasel.">
<polygon fill="none" stroke="black" points="443,-56.5 443,-75.5 579,-75.5 579,-56.5 443,-56.5"/>
<text text-anchor="middle" x="511" y="-63.5" font-family="Helvetica,sans-Serif" font-size="10.00">SignalEasel/settings.hpp</text>
</a>
</g>
</g>
<!-- Node8&#45;&gt;Node10 -->
<g id="edge11" class="edge">
<title>Node8&#45;&gt;Node10</title>
<path fill="none" stroke="midnightblue" d="M499.31,-112.08C501.17,-104.93 503.84,-94.64 506.15,-85.69"/>
<polygon fill="midnightblue" stroke="midnightblue" points="509.61,-86.31 508.73,-75.75 502.83,-84.55 509.61,-86.31"/>
</g>
<!-- Node10&#45;&gt;Node3 -->
<g id="edge12" class="edge">
<title>Node10&#45;&gt;Node3</title>
<path fill="none" stroke="midnightblue" d="M452.21,-56.44C373.02,-44.92 234.82,-24.8 172.32,-15.7"/>
<polygon fill="midnightblue" stroke="midnightblue" points="172.66,-12.22 162.26,-14.24 171.65,-19.14 172.66,-12.22"/>
</g>
</g>
</svg>
