<?xml version="1.0" encoding="UTF-8" standalone="no"?>
<!DOCTYPE svg PUBLIC "-//W3C//DTD SVG 1.1//EN"
 "http://www.w3.org/Graphics/SVG/1.1/DTD/svg11.dtd">
<!-- Generated by graphviz version 2.43.0 (0)
 -->
<!-- Title: signal_easel::convertToBipolar Pages: 1 -->
<svg width="748pt" height="39pt"
 viewBox="0.00 0.00 748.00 39.00" xmlns="http://www.w3.org/2000/svg" xmlns:xlink="http://www.w3.org/1999/xlink">
<g id="graph0" class="graph" transform="scale(1 1) rotate(0) translate(4 35)">
<title>signal_easel::convertToBipolar</title>
<!-- Node1 -->
<g id="node1" class="node">
<title>Node1</title>
<g id="a_node1"><a xlink:title="Converts a bit to it&#39;s bipolar value (0 = 1, 1 = &#45;1)">
<polygon fill="#bfbfbf" stroke="black" points="575,-6 575,-25 740,-25 740,-6 575,-6"/>
<text text-anchor="middle" x="657.5" y="-13" font-family="Helvetica,sans-Serif" font-size="10.00">signal_easel::convertToBipolar</text>
</a>
</g>
</g>
<!-- Node2 -->
<g id="node2" class="node">
<title>Node2</title>
<g id="a_node2"><a xlink:href="namespacesignal__easel.html#a815178bfbe2aee7cc2e3c74237233e6c" target="_top" xlink:title="Gets the bipolar value of a bit at a given index from a vector of bytes.">
<polygon fill="none" stroke="black" points="403,-0.5 403,-30.5 539,-30.5 539,-0.5 403,-0.5"/>
<text text-anchor="start" x="411" y="-18.5" font-family="Helvetica,sans-Serif" font-size="10.00">signal_easel::getBpBitAt</text>
<text text-anchor="middle" x="471" y="-7.5" font-family="Helvetica,sans-Serif" font-size="10.00">Index</text>
</a>
</g>
</g>
<!-- Node1&#45;&gt;Node2 -->
<g id="edge1" class="edge">
<title>Node1&#45;&gt;Node2</title>
<path fill="none" stroke="midnightblue" d="M564.65,-15.5C556.01,-15.5 547.36,-15.5 539.01,-15.5"/>
<polygon fill="midnightblue" stroke="midnightblue" points="564.77,-19 574.77,-15.5 564.77,-12 564.77,-19"/>
</g>
<!-- Node3 -->
<g id="node3" class="node">
<title>Node3</title>
<g id="a_node3"><a xlink:href="classsignal__easel_1_1afsk_1_1Modulator.html#a8e377665e5432ebb66de359635aeeafb" target="_top" xlink:title="This is overridden by the child classes to encode the data that is passed in by addBytes and addStrin...">
<polygon fill="none" stroke="black" points="226,-0.5 226,-30.5 367,-30.5 367,-0.5 226,-0.5"/>
<text text-anchor="start" x="234" y="-18.5" font-family="Helvetica,sans-Serif" font-size="10.00">signal_easel::afsk</text>
<text text-anchor="middle" x="296.5" y="-7.5" font-family="Helvetica,sans-Serif" font-size="10.00">::Modulator::encodeBytes</text>
</a>
</g>
</g>
<!-- Node2&#45;&gt;Node3 -->
<g id="edge2" class="edge">
<title>Node2&#45;&gt;Node3</title>
<path fill="none" stroke="midnightblue" d="M392.54,-15.5C384.05,-15.5 375.45,-15.5 367.06,-15.5"/>
<polygon fill="midnightblue" stroke="midnightblue" points="392.81,-19 402.81,-15.5 392.81,-12 392.81,-19"/>
</g>
<!-- Node4 -->
<g id="node4" class="node">
<title>Node4</title>
<g id="a_node4"><a xlink:href="classsignal__easel_1_1aprs_1_1Modulator.html#a8ae067701382dec1680b786583ace687" target="_top" xlink:title=" ">
<polygon fill="none" stroke="black" points="77,-0.5 77,-30.5 190,-30.5 190,-0.5 77,-0.5"/>
<text text-anchor="start" x="85" y="-18.5" font-family="Helvetica,sans-Serif" font-size="10.00">signal_easel::aprs</text>
<text text-anchor="middle" x="133.5" y="-7.5" font-family="Helvetica,sans-Serif" font-size="10.00">::Modulator::encode</text>
</a>
</g>
</g>
<!-- Node3&#45;&gt;Node4 -->
<g id="edge3" class="edge">
<title>Node3&#45;&gt;Node4</title>
<path fill="none" stroke="midnightblue" d="M215.73,-15.5C207.11,-15.5 198.48,-15.5 190.23,-15.5"/>
<polygon fill="midnightblue" stroke="midnightblue" points="215.82,-19 225.82,-15.5 215.82,-12 215.82,-19"/>
</g>
<!-- Node5 -->
<g id="node5" class="node">
<title>Node5</title>
<g id="a_node5"><a xlink:href="aprs__test_8cpp.html#aea66d1824e3f1e27598adf99ac6a089a" target="_top" xlink:title=" ">
<polygon fill="none" stroke="black" points="0,-6 0,-25 41,-25 41,-6 0,-6"/>
<text text-anchor="middle" x="20.5" y="-13" font-family="Helvetica,sans-Serif" font-size="10.00">TEST</text>
</a>
</g>
</g>
<!-- Node4&#45;&gt;Node5 -->
<g id="edge4" class="edge">
<title>Node4&#45;&gt;Node5</title>
<path fill="none" stroke="midnightblue" d="M66.58,-15.5C57.37,-15.5 48.56,-15.5 41.21,-15.5"/>
<polygon fill="midnightblue" stroke="midnightblue" points="66.67,-19 76.67,-15.5 66.67,-12 66.67,-19"/>
</g>
</g>
</svg>
