<?xml version="1.0" encoding="UTF-8" standalone="no"?>
<!DOCTYPE svg PUBLIC "-//W3C//DTD SVG 1.1//EN"
 "http://www.w3.org/Graphics/SVG/1.1/DTD/svg11.dtd">
<!-- Generated by graphviz version 2.43.0 (0)
 -->
<!-- Title: signal_easel::ax25::reverseByte Pages: 1 -->
<svg width="721pt" height="160pt"
 viewBox="0.00 0.00 721.00 159.50" xmlns="http://www.w3.org/2000/svg" xmlns:xlink="http://www.w3.org/1999/xlink">
<g id="graph0" class="graph" transform="scale(1 1) rotate(0) translate(4 155.5)">
<title>signal_easel::ax25::reverseByte</title>
<!-- Node1 -->
<g id="node1" class="node">
<title>Node1</title>
<g id="a_node1"><a xlink:title="Reverse a byte.">
<polygon fill="#bfbfbf" stroke="black" points="606,-90 606,-120 713,-120 713,-90 606,-90"/>
<text text-anchor="start" x="614" y="-108" font-family="Helvetica,sans-Serif" font-size="10.00">signal_easel::ax25</text>
<text text-anchor="middle" x="659.5" y="-97" font-family="Helvetica,sans-Serif" font-size="10.00">::reverseByte</text>
</a>
</g>
</g>
<!-- Node2 -->
<g id="node2" class="node">
<title>Node2</title>
<g id="a_node2"><a xlink:href="classsignal__easel_1_1ax25_1_1Frame.html#a1389edfa566006427db42adfd700f37d" target="_top" xlink:title=" ">
<polygon fill="none" stroke="black" points="428,-115 428,-145 570,-145 570,-115 428,-115"/>
<text text-anchor="start" x="436" y="-133" font-family="Helvetica,sans-Serif" font-size="10.00">signal_easel::ax25</text>
<text text-anchor="middle" x="499" y="-122" font-family="Helvetica,sans-Serif" font-size="10.00">::Frame::addToBuildBuffer</text>
</a>
</g>
</g>
<!-- Node1&#45;&gt;Node2 -->
<g id="edge1" class="edge">
<title>Node1&#45;&gt;Node2</title>
<path fill="none" stroke="midnightblue" d="M595.62,-114.92C587.22,-116.24 578.55,-117.61 570.03,-118.95"/>
<polygon fill="midnightblue" stroke="midnightblue" points="596.39,-118.34 605.72,-113.32 595.3,-111.43 596.39,-118.34"/>
</g>
<!-- Node3 -->
<g id="node3" class="node">
<title>Node3</title>
<g id="a_node3"><a xlink:href="classsignal__easel_1_1ax25_1_1Frame.html#a2b4f6ebcb7592a7e5a21114c8fafa503" target="_top" xlink:title="A step beyond buildFrame. This function builds the frame, does the bit stuffing, adds the flags,...">
<polygon fill="none" stroke="black" points="436.5,-66 436.5,-96 561.5,-96 561.5,-66 436.5,-66"/>
<text text-anchor="start" x="444.5" y="-84" font-family="Helvetica,sans-Serif" font-size="10.00">signal_easel::ax25</text>
<text text-anchor="middle" x="499" y="-73" font-family="Helvetica,sans-Serif" font-size="10.00">::Frame::encodeFrame</text>
</a>
</g>
</g>
<!-- Node1&#45;&gt;Node3 -->
<g id="edge2" class="edge">
<title>Node1&#45;&gt;Node3</title>
<path fill="none" stroke="midnightblue" d="M595.6,-95.48C584.41,-93.78 572.76,-92.02 561.6,-90.33"/>
<polygon fill="midnightblue" stroke="midnightblue" points="595.31,-98.97 605.72,-97.01 596.36,-92.05 595.31,-98.97"/>
</g>
<!-- Node4 -->
<g id="node4" class="node">
<title>Node4</title>
<g id="a_node4"><a xlink:href="namespacesignal__easel_1_1aprs.html#a77481001a5b78a839972bb4220b43e4d" target="_top" xlink:title=" ">
<polygon fill="none" stroke="black" points="288,-66 288,-96 392,-96 392,-66 288,-66"/>
<text text-anchor="start" x="296" y="-84" font-family="Helvetica,sans-Serif" font-size="10.00">signal_easel::aprs</text>
<text text-anchor="middle" x="340" y="-73" font-family="Helvetica,sans-Serif" font-size="10.00">::encodePacket</text>
</a>
</g>
</g>
<!-- Node3&#45;&gt;Node4 -->
<g id="edge3" class="edge">
<title>Node3&#45;&gt;Node4</title>
<path fill="none" stroke="midnightblue" d="M426.37,-81C414.88,-81 403.18,-81 392.28,-81"/>
<polygon fill="midnightblue" stroke="midnightblue" points="426.4,-84.5 436.4,-81 426.4,-77.5 426.4,-84.5"/>
</g>
<!-- Node5 -->
<g id="node5" class="node">
<title>Node5</title>
<g id="a_node5"><a xlink:href="classsignal__easel_1_1aprs_1_1Modulator.html#adfa8809d1c11321b9ff2c7efe7f58499" target="_top" xlink:title=" ">
<polygon fill="none" stroke="black" points="77,-121 77,-151 252,-151 252,-121 77,-121"/>
<text text-anchor="start" x="85" y="-139" font-family="Helvetica,sans-Serif" font-size="10.00">signal_easel::aprs</text>
<text text-anchor="middle" x="164.5" y="-128" font-family="Helvetica,sans-Serif" font-size="10.00">::Modulator::encodeMessageAck</text>
</a>
</g>
</g>
<!-- Node4&#45;&gt;Node5 -->
<g id="edge4" class="edge">
<title>Node4&#45;&gt;Node5</title>
<path fill="none" stroke="midnightblue" d="M287.16,-99.36C275.62,-103.31 263.42,-107.38 252,-111 241.42,-114.35 230.05,-117.77 219.15,-120.95"/>
<polygon fill="midnightblue" stroke="midnightblue" points="288.35,-102.65 296.66,-96.08 286.07,-96.03 288.35,-102.65"/>
</g>
<!-- Node6 -->
<g id="node6" class="node">
<title>Node6</title>
<g id="a_node6"><a xlink:href="classsignal__easel_1_1aprs_1_1Modulator.html#a147321b48c2e282c62863f114702e54f" target="_top" xlink:title=" ">
<polygon fill="none" stroke="black" points="86,-60.5 86,-101.5 243,-101.5 243,-60.5 86,-60.5"/>
<text text-anchor="start" x="94" y="-89.5" font-family="Helvetica,sans-Serif" font-size="10.00">signal_easel::aprs</text>
<text text-anchor="start" x="94" y="-78.5" font-family="Helvetica,sans-Serif" font-size="10.00">::Modulator::encodeMessage</text>
<text text-anchor="middle" x="164.5" y="-67.5" font-family="Helvetica,sans-Serif" font-size="10.00">Packet</text>
</a>
</g>
</g>
<!-- Node4&#45;&gt;Node6 -->
<g id="edge5" class="edge">
<title>Node4&#45;&gt;Node6</title>
<path fill="none" stroke="midnightblue" d="M277.82,-81C266.65,-81 254.85,-81 243.27,-81"/>
<polygon fill="midnightblue" stroke="midnightblue" points="277.88,-84.5 287.88,-81 277.88,-77.5 277.88,-84.5"/>
</g>
<!-- Node8 -->
<g id="node8" class="node">
<title>Node8</title>
<g id="a_node8"><a xlink:href="classsignal__easel_1_1aprs_1_1Modulator.html#a943e392227656943d7db842e1889d805" target="_top" xlink:title=" ">
<polygon fill="none" stroke="black" points="88.5,-0.5 88.5,-41.5 240.5,-41.5 240.5,-0.5 88.5,-0.5"/>
<text text-anchor="start" x="96.5" y="-29.5" font-family="Helvetica,sans-Serif" font-size="10.00">signal_easel::aprs</text>
<text text-anchor="start" x="96.5" y="-18.5" font-family="Helvetica,sans-Serif" font-size="10.00">::Modulator::encodePosition</text>
<text text-anchor="middle" x="164.5" y="-7.5" font-family="Helvetica,sans-Serif" font-size="10.00">Packet</text>
</a>
</g>
</g>
<!-- Node4&#45;&gt;Node8 -->
<g id="edge7" class="edge">
<title>Node4&#45;&gt;Node8</title>
<path fill="none" stroke="midnightblue" d="M285.72,-62.58C266.51,-55.93 244.71,-48.39 225,-41.58"/>
<polygon fill="midnightblue" stroke="midnightblue" points="284.62,-65.9 295.22,-65.86 286.91,-59.28 284.62,-65.9"/>
</g>
<!-- Node7 -->
<g id="node7" class="node">
<title>Node7</title>
<g id="a_node7"><a xlink:href="aprs__test_8cpp.html#aea66d1824e3f1e27598adf99ac6a089a" target="_top" xlink:title=" ">
<polygon fill="none" stroke="black" points="0,-71.5 0,-90.5 41,-90.5 41,-71.5 0,-71.5"/>
<text text-anchor="middle" x="20.5" y="-78.5" font-family="Helvetica,sans-Serif" font-size="10.00">TEST</text>
</a>
</g>
</g>
<!-- Node6&#45;&gt;Node7 -->
<g id="edge6" class="edge">
<title>Node6&#45;&gt;Node7</title>
<path fill="none" stroke="midnightblue" d="M75.84,-81C62.91,-81 50.76,-81 41.24,-81"/>
<polygon fill="midnightblue" stroke="midnightblue" points="75.85,-84.5 85.85,-81 75.85,-77.5 75.85,-84.5"/>
</g>
</g>
</svg>
