<?xml version="1.0" encoding="UTF-8" standalone="no"?>
<!DOCTYPE svg PUBLIC "-//W3C//DTD SVG 1.1//EN"
 "http://www.w3.org/Graphics/SVG/1.1/DTD/svg11.dtd">
<!-- Generated by graphviz version 2.43.0 (0)
 -->
<!-- Title: signal_easel::convertToBipolar Pages: 1 -->
<svg width="522pt" height="39pt"
 viewBox="0.00 0.00 522.00 39.00" xmlns="http://www.w3.org/2000/svg" xmlns:xlink="http://www.w3.org/1999/xlink">
<g id="graph0" class="graph" transform="scale(1 1) rotate(0) translate(4 35)">
<title>signal_easel::convertToBipolar</title>
<!-- Node1 -->
<g id="node1" class="node">
<title>Node1</title>
<g id="a_node1"><a xlink:title="Converts a bit to it&#39;s bipolar value (0 = 1, 1 = &#45;1)">
<polygon fill="#bfbfbf" stroke="black" points="349,-6 349,-25 514,-25 514,-6 349,-6"/>
<text text-anchor="middle" x="431.5" y="-13" font-family="Helvetica,sans-Serif" font-size="10.00">signal_easel::convertToBipolar</text>
</a>
</g>
</g>
<!-- Node2 -->
<g id="node2" class="node">
<title>Node2</title>
<g id="a_node2"><a xlink:href="namespacesignal__easel.html#a815178bfbe2aee7cc2e3c74237233e6c" target="_top" xlink:title="Gets the bipolar value of a bit at a given index from a vector of bytes.">
<polygon fill="none" stroke="black" points="177,-0.5 177,-30.5 313,-30.5 313,-0.5 177,-0.5"/>
<text text-anchor="start" x="185" y="-18.5" font-family="Helvetica,sans-Serif" font-size="10.00">signal_easel::getBpBitAt</text>
<text text-anchor="middle" x="245" y="-7.5" font-family="Helvetica,sans-Serif" font-size="10.00">Index</text>
</a>
</g>
</g>
<!-- Node1&#45;&gt;Node2 -->
<g id="edge1" class="edge">
<title>Node1&#45;&gt;Node2</title>
<path fill="none" stroke="midnightblue" d="M338.65,-15.5C330.01,-15.5 321.36,-15.5 313.01,-15.5"/>
<polygon fill="midnightblue" stroke="midnightblue" points="338.77,-19 348.77,-15.5 338.77,-12 338.77,-19"/>
</g>
<!-- Node3 -->
<g id="node3" class="node">
<title>Node3</title>
<g id="a_node3"><a xlink:href="classsignal__easel_1_1afsk_1_1Modulator.html#a8e377665e5432ebb66de359635aeeafb" target="_top" xlink:title="This is overridden by the child classes to encode the data that is passed in by addBytes and addStrin...">
<polygon fill="none" stroke="black" points="0,-0.5 0,-30.5 141,-30.5 141,-0.5 0,-0.5"/>
<text text-anchor="start" x="8" y="-18.5" font-family="Helvetica,sans-Serif" font-size="10.00">signal_easel::afsk</text>
<text text-anchor="middle" x="70.5" y="-7.5" font-family="Helvetica,sans-Serif" font-size="10.00">::Modulator::encodeBytes</text>
</a>
</g>
</g>
<!-- Node2&#45;&gt;Node3 -->
<g id="edge2" class="edge">
<title>Node2&#45;&gt;Node3</title>
<path fill="none" stroke="midnightblue" d="M166.54,-15.5C158.05,-15.5 149.45,-15.5 141.06,-15.5"/>
<polygon fill="midnightblue" stroke="midnightblue" points="166.81,-19 176.81,-15.5 166.81,-12 166.81,-19"/>
</g>
</g>
</svg>
