<?xml version="1.0" encoding="UTF-8" standalone="no"?>
<!DOCTYPE svg PUBLIC "-//W3C//DTD SVG 1.1//EN"
 "http://www.w3.org/Graphics/SVG/1.1/DTD/svg11.dtd">
<!-- Generated by graphviz version 2.43.0 (0)
 -->
<!-- Title: signal_easel::addLocationData Pages: 1 -->
<svg width="386pt" height="66pt"
 viewBox="0.00 0.00 386.00 66.00" xmlns="http://www.w3.org/2000/svg" xmlns:xlink="http://www.w3.org/1999/xlink">
<g id="graph0" class="graph" transform="scale(1 1) rotate(0) translate(4 62)">
<title>signal_easel::addLocationData</title>
<!-- Node1 -->
<g id="node1" class="node">
<title>Node1</title>
<g id="a_node1"><a xlink:title=" ">
<polygon fill="#bfbfbf" stroke="black" points="0,-19.5 0,-38.5 166,-38.5 166,-19.5 0,-19.5"/>
<text text-anchor="middle" x="83" y="-26.5" font-family="Helvetica,sans-Serif" font-size="10.00">signal_easel::addLocationData</text>
</a>
</g>
</g>
<!-- Node2 -->
<g id="node2" class="node">
<title>Node2</title>
<g id="a_node2"><a xlink:href="namespacesignal__easel.html#a303e9732cc231caca130db5cb8bcd53f" target="_top" xlink:title=" ">
<polygon fill="none" stroke="black" points="213,-38.5 213,-57.5 367,-57.5 367,-38.5 213,-38.5"/>
<text text-anchor="middle" x="290" y="-45.5" font-family="Helvetica,sans-Serif" font-size="10.00">signal_easel::base91Encode</text>
</a>
</g>
</g>
<!-- Node1&#45;&gt;Node2 -->
<g id="edge1" class="edge">
<title>Node1&#45;&gt;Node2</title>
<path fill="none" stroke="midnightblue" d="M166.2,-36.62C178.21,-37.73 190.61,-38.88 202.69,-40"/>
<polygon fill="midnightblue" stroke="midnightblue" points="202.48,-43.5 212.76,-40.93 203.13,-36.53 202.48,-43.5"/>
</g>
<!-- Node3 -->
<g id="node3" class="node">
<title>Node3</title>
<g id="a_node3"><a xlink:href="namespacesignal__easel.html#a5e95a4f0db83133b1b3cb81365100837" target="_top" xlink:title=" ">
<polygon fill="none" stroke="black" points="202,-0.5 202,-19.5 378,-19.5 378,-0.5 202,-0.5"/>
<text text-anchor="middle" x="290" y="-7.5" font-family="Helvetica,sans-Serif" font-size="10.00">signal_easel::checkLocationData</text>
</a>
</g>
</g>
<!-- Node1&#45;&gt;Node3 -->
<g id="edge2" class="edge">
<title>Node1&#45;&gt;Node3</title>
<path fill="none" stroke="midnightblue" d="M166.2,-21.38C174.61,-20.6 183.2,-19.81 191.75,-19.01"/>
<polygon fill="midnightblue" stroke="midnightblue" points="192.11,-22.49 201.75,-18.09 191.47,-15.52 192.11,-22.49"/>
</g>
</g>
</svg>
