<?xml version="1.0" encoding="UTF-8" standalone="no"?>
<!DOCTYPE svg PUBLIC "-//W3C//DTD SVG 1.1//EN"
 "http://www.w3.org/Graphics/SVG/1.1/DTD/svg11.dtd">
<!-- Generated by graphviz version 2.43.0 (0)
 -->
<!-- Title: signal_easel::getBpBitAtIndex Pages: 1 -->
<svg width="345pt" height="66pt"
 viewBox="0.00 0.00 345.00 66.00" xmlns="http://www.w3.org/2000/svg" xmlns:xlink="http://www.w3.org/1999/xlink">
<g id="graph0" class="graph" transform="scale(1 1) rotate(0) translate(4 62)">
<title>signal_easel::getBpBitAtIndex</title>
<!-- Node1 -->
<g id="node1" class="node">
<title>Node1</title>
<g id="a_node1"><a xlink:title="Gets the bipolar value of a bit at a given index from a vector of bytes.">
<polygon fill="#bfbfbf" stroke="black" points="0,-14 0,-44 136,-44 136,-14 0,-14"/>
<text text-anchor="start" x="8" y="-32" font-family="Helvetica,sans-Serif" font-size="10.00">signal_easel::getBpBitAt</text>
<text text-anchor="middle" x="68" y="-21" font-family="Helvetica,sans-Serif" font-size="10.00">Index</text>
</a>
</g>
</g>
<!-- Node2 -->
<g id="node2" class="node">
<title>Node2</title>
<g id="a_node2"><a xlink:href="namespacesignal__easel.html#aa81833e925b9f020659999a2a4a82559" target="_top" xlink:title="Converts a bit to it&#39;s bipolar value (0 = 1, 1 = &#45;1)">
<polygon fill="none" stroke="black" points="172,-38.5 172,-57.5 337,-57.5 337,-38.5 172,-38.5"/>
<text text-anchor="middle" x="254.5" y="-45.5" font-family="Helvetica,sans-Serif" font-size="10.00">signal_easel::convertToBipolar</text>
</a>
</g>
</g>
<!-- Node1&#45;&gt;Node2 -->
<g id="edge1" class="edge">
<title>Node1&#45;&gt;Node2</title>
<path fill="none" stroke="midnightblue" d="M136.13,-35.91C144.5,-36.77 153.17,-37.67 161.83,-38.56"/>
<polygon fill="midnightblue" stroke="midnightblue" points="161.66,-42.06 171.97,-39.6 162.38,-35.1 161.66,-42.06"/>
</g>
<!-- Node3 -->
<g id="node3" class="node">
<title>Node3</title>
<g id="a_node3"><a xlink:href="namespacesignal__easel.html#a248ddb36f02c1436acd66c0409189637" target="_top" xlink:title="For reading a byte MSB first.">
<polygon fill="none" stroke="black" points="194,-0.5 194,-19.5 315,-19.5 315,-0.5 194,-0.5"/>
<text text-anchor="middle" x="254.5" y="-7.5" font-family="Helvetica,sans-Serif" font-size="10.00">signal_easel::isBitSet</text>
</a>
</g>
</g>
<!-- Node1&#45;&gt;Node3 -->
<g id="edge2" class="edge">
<title>Node1&#45;&gt;Node3</title>
<path fill="none" stroke="midnightblue" d="M136.13,-22.09C151.6,-20.49 168.08,-18.8 183.66,-17.19"/>
<polygon fill="midnightblue" stroke="midnightblue" points="184.16,-20.66 193.75,-16.15 183.44,-13.7 184.16,-20.66"/>
</g>
</g>
</svg>
