<?xml version="1.0" encoding="UTF-8" standalone="no"?>
<!DOCTYPE svg PUBLIC "-//W3C//DTD SVG 1.1//EN"
 "http://www.w3.org/Graphics/SVG/1.1/DTD/svg11.dtd">
<!-- Generated by graphviz version 2.43.0 (0)
 -->
<!-- Title: signal_easel::computeNumCoeffs Pages: 1 -->
<svg width="506pt" height="39pt"
 viewBox="0.00 0.00 506.00 39.00" xmlns="http://www.w3.org/2000/svg" xmlns:xlink="http://www.w3.org/1999/xlink">
<g id="graph0" class="graph" transform="scale(1 1) rotate(0) translate(4 35)">
<title>signal_easel::computeNumCoeffs</title>
<!-- Node1 -->
<g id="node1" class="node">
<title>Node1</title>
<g id="a_node1"><a xlink:title=" ">
<polygon fill="#bfbfbf" stroke="black" points="0,-0.5 0,-30.5 149,-30.5 149,-0.5 0,-0.5"/>
<text text-anchor="start" x="8" y="-18.5" font-family="Helvetica,sans-Serif" font-size="10.00">signal_easel::computeNum</text>
<text text-anchor="middle" x="74.5" y="-7.5" font-family="Helvetica,sans-Serif" font-size="10.00">Coeffs</text>
</a>
</g>
</g>
<!-- Node2 -->
<g id="node2" class="node">
<title>Node2</title>
<g id="a_node2"><a xlink:href="namespacesignal__easel.html#a27a021f34e5a88ec2faa0b01087f9ec9" target="_top" xlink:title=" ">
<polygon fill="none" stroke="black" points="185,-6 185,-25 325,-25 325,-6 185,-6"/>
<text text-anchor="middle" x="255" y="-13" font-family="Helvetica,sans-Serif" font-size="10.00">signal_easel::computeHP</text>
</a>
</g>
</g>
<!-- Node1&#45;&gt;Node2 -->
<g id="edge1" class="edge">
<title>Node1&#45;&gt;Node2</title>
<path fill="none" stroke="midnightblue" d="M149.13,-15.5C157.53,-15.5 166.12,-15.5 174.59,-15.5"/>
<polygon fill="midnightblue" stroke="midnightblue" points="174.84,-19 184.84,-15.5 174.84,-12 174.84,-19"/>
</g>
<!-- Node3 -->
<g id="node3" class="node">
<title>Node3</title>
<g id="a_node3"><a xlink:href="namespacesignal__easel.html#a9772e972ada009af79d3f18221aca4e3" target="_top" xlink:title=" ">
<polygon fill="none" stroke="black" points="361,-6 361,-25 498,-25 498,-6 361,-6"/>
<text text-anchor="middle" x="429.5" y="-13" font-family="Helvetica,sans-Serif" font-size="10.00">signal_easel::computeLP</text>
</a>
</g>
</g>
<!-- Node2&#45;&gt;Node3 -->
<g id="edge2" class="edge">
<title>Node2&#45;&gt;Node3</title>
<path fill="none" stroke="midnightblue" d="M325.17,-15.5C333.5,-15.5 342.05,-15.5 350.49,-15.5"/>
<polygon fill="midnightblue" stroke="midnightblue" points="350.72,-19 360.72,-15.5 350.72,-12 350.72,-19"/>
</g>
</g>
</svg>
