<?xml version="1.0" encoding="UTF-8" standalone="no"?>
<!DOCTYPE svg PUBLIC "-//W3C//DTD SVG 1.1//EN"
 "http://www.w3.org/Graphics/SVG/1.1/DTD/svg11.dtd">
<!-- Generated by graphviz version 2.43.0 (0)
 -->
<!-- Title: signal_easel::aprs::addLocationData Pages: 1 -->
<svg width="265pt" height="88pt"
 viewBox="0.00 0.00 265.00 88.00" xmlns="http://www.w3.org/2000/svg" xmlns:xlink="http://www.w3.org/1999/xlink">
<g id="graph0" class="graph" transform="scale(1 1) rotate(0) translate(4 84)">
<title>signal_easel::aprs::addLocationData</title>
<!-- Node1 -->
<g id="node1" class="node">
<title>Node1</title>
<g id="a_node1"><a xlink:title=" ">
<polygon fill="#bfbfbf" stroke="black" points="0,-24.5 0,-54.5 105,-54.5 105,-24.5 0,-24.5"/>
<text text-anchor="start" x="8" y="-42.5" font-family="Helvetica,sans-Serif" font-size="10.00">signal_easel::aprs</text>
<text text-anchor="middle" x="52.5" y="-31.5" font-family="Helvetica,sans-Serif" font-size="10.00">::addLocationData</text>
</a>
</g>
</g>
<!-- Node2 -->
<g id="node2" class="node">
<title>Node2</title>
<g id="a_node2"><a xlink:href="namespacesignal__easel_1_1aprs.html#a3d23780e9687c92289aa5d426f394aef" target="_top" xlink:title=" ">
<polygon fill="none" stroke="black" points="147,-49.5 147,-79.5 251,-79.5 251,-49.5 147,-49.5"/>
<text text-anchor="start" x="155" y="-67.5" font-family="Helvetica,sans-Serif" font-size="10.00">signal_easel::aprs</text>
<text text-anchor="middle" x="199" y="-56.5" font-family="Helvetica,sans-Serif" font-size="10.00">::base91Encode</text>
</a>
</g>
</g>
<!-- Node1&#45;&gt;Node2 -->
<g id="edge1" class="edge">
<title>Node1&#45;&gt;Node2</title>
<path fill="none" stroke="midnightblue" d="M105.26,-48.45C115.45,-50.22 126.23,-52.08 136.69,-53.89"/>
<polygon fill="midnightblue" stroke="midnightblue" points="136.15,-57.35 146.6,-55.61 137.34,-50.45 136.15,-57.35"/>
</g>
<!-- Node3 -->
<g id="node3" class="node">
<title>Node3</title>
<g id="a_node3"><a xlink:href="namespacesignal__easel_1_1aprs.html#a7e5cf8507153513e6f422dc8ead78da4" target="_top" xlink:title=" ">
<polygon fill="none" stroke="black" points="141,-0.5 141,-30.5 257,-30.5 257,-0.5 141,-0.5"/>
<text text-anchor="start" x="149" y="-18.5" font-family="Helvetica,sans-Serif" font-size="10.00">signal_easel::aprs</text>
<text text-anchor="middle" x="199" y="-7.5" font-family="Helvetica,sans-Serif" font-size="10.00">::checkLocationData</text>
</a>
</g>
</g>
<!-- Node1&#45;&gt;Node3 -->
<g id="edge2" class="edge">
<title>Node1&#45;&gt;Node3</title>
<path fill="none" stroke="midnightblue" d="M105.26,-30.9C113.52,-29.53 122.18,-28.09 130.74,-26.67"/>
<polygon fill="midnightblue" stroke="midnightblue" points="131.43,-30.1 140.72,-25.01 130.28,-23.2 131.43,-30.1"/>
</g>
</g>
</svg>
