<?xml version="1.0" encoding="UTF-8" standalone="no"?>
<!DOCTYPE svg PUBLIC "-//W3C//DTD SVG 1.1//EN"
 "http://www.w3.org/Graphics/SVG/1.1/DTD/svg11.dtd">
<!-- Generated by graphviz version 2.43.0 (0)
 -->
<!-- Title: signal_easel::encodePacket Pages: 1 -->
<svg width="1236pt" height="421pt"
 viewBox="0.00 0.00 1236.00 420.50" xmlns="http://www.w3.org/2000/svg" xmlns:xlink="http://www.w3.org/1999/xlink">
<g id="graph0" class="graph" transform="scale(1 1) rotate(0) translate(4 416.5)">
<title>signal_easel::encodePacket</title>
<!-- Node1 -->
<g id="node1" class="node">
<title>Node1</title>
<g id="a_node1"><a xlink:title=" ">
<polygon fill="#bfbfbf" stroke="black" points="0,-177 0,-196 150,-196 150,-177 0,-177"/>
<text text-anchor="middle" x="75" y="-184" font-family="Helvetica,sans-Serif" font-size="10.00">signal_easel::encodePacket</text>
</a>
</g>
</g>
<!-- Node2 -->
<g id="node2" class="node">
<title>Node2</title>
<g id="a_node2"><a xlink:href="namespacesignal__easel.html#ada24f00bb5d1a1bb97976967185c7526" target="_top" xlink:title=" ">
<polygon fill="none" stroke="black" points="353,-338.5 353,-368.5 499,-368.5 499,-338.5 353,-338.5"/>
<text text-anchor="start" x="361" y="-356.5" font-family="Helvetica,sans-Serif" font-size="10.00">signal_easel::AddRequired</text>
<text text-anchor="middle" x="426" y="-345.5" font-family="Helvetica,sans-Serif" font-size="10.00">Fields</text>
</a>
</g>
</g>
<!-- Node1&#45;&gt;Node2 -->
<g id="edge1" class="edge">
<title>Node1&#45;&gt;Node2</title>
<path fill="none" stroke="midnightblue" d="M96.02,-196.08C151.72,-222.73 309.33,-298.15 384.35,-334.05"/>
<polygon fill="midnightblue" stroke="midnightblue" points="382.98,-337.27 393.51,-338.43 386,-330.96 382.98,-337.27"/>
</g>
<!-- Node10 -->
<g id="node10" class="node">
<title>Node10</title>
<g id="a_node10"><a xlink:href="classsignal__easel_1_1ax25_1_1Frame.html#a2b4f6ebcb7592a7e5a21114c8fafa503" target="_top" xlink:title="A step beyond buildFrame. This function builds the frame, does the bit stuffing, adds the flags,...">
<polygon fill="none" stroke="black" points="189,-171.5 189,-201.5 314,-201.5 314,-171.5 189,-171.5"/>
<text text-anchor="start" x="197" y="-189.5" font-family="Helvetica,sans-Serif" font-size="10.00">signal_easel::ax25</text>
<text text-anchor="middle" x="251.5" y="-178.5" font-family="Helvetica,sans-Serif" font-size="10.00">::Frame::encodeFrame</text>
</a>
</g>
</g>
<!-- Node1&#45;&gt;Node10 -->
<g id="edge10" class="edge">
<title>Node1&#45;&gt;Node10</title>
<path fill="none" stroke="midnightblue" d="M150,-186.5C159.49,-186.5 169.18,-186.5 178.63,-186.5"/>
<polygon fill="midnightblue" stroke="midnightblue" points="178.76,-190 188.76,-186.5 178.76,-183 178.76,-190"/>
</g>
<!-- Node24 -->
<g id="node24" class="node">
<title>Node24</title>
<g id="a_node24"><a xlink:href="classsignal__easel_1_1ax25_1_1Frame.html#afc5c722b419621f2a4dccbe2208faea1" target="_top" xlink:title=" ">
<polygon fill="none" stroke="black" points="186,-122.5 186,-152.5 317,-152.5 317,-122.5 186,-122.5"/>
<text text-anchor="start" x="194" y="-140.5" font-family="Helvetica,sans-Serif" font-size="10.00">signal_easel::ax25</text>
<text text-anchor="middle" x="251.5" y="-129.5" font-family="Helvetica,sans-Serif" font-size="10.00">::Frame::setInformation</text>
</a>
</g>
</g>
<!-- Node1&#45;&gt;Node24 -->
<g id="edge28" class="edge">
<title>Node1&#45;&gt;Node24</title>
<path fill="none" stroke="midnightblue" d="M110.06,-176.94C131.96,-170.79 161.09,-162.61 187.14,-155.29"/>
<polygon fill="midnightblue" stroke="midnightblue" points="188.27,-158.61 196.95,-152.54 186.38,-151.87 188.27,-158.61"/>
</g>
<!-- Node3 -->
<g id="node3" class="node">
<title>Node3</title>
<g id="a_node3"><a xlink:href="namespacesignal__easel.html#ac803523134c5f20bcc98143397f8ff5d" target="_top" xlink:title=" ">
<polygon fill="none" stroke="black" points="536,-393 536,-412 704,-412 704,-393 536,-393"/>
<text text-anchor="middle" x="620" y="-400" font-family="Helvetica,sans-Serif" font-size="10.00">signal_easel::CheckPacketData</text>
</a>
</g>
</g>
<!-- Node2&#45;&gt;Node3 -->
<g id="edge2" class="edge">
<title>Node2&#45;&gt;Node3</title>
<path fill="none" stroke="midnightblue" d="M481.86,-368.56C498.87,-373.14 517.69,-378.12 535,-382.5 545.68,-385.21 557.15,-388.01 568.08,-390.62"/>
<polygon fill="midnightblue" stroke="midnightblue" points="567.39,-394.06 577.93,-392.97 569.01,-387.25 567.39,-394.06"/>
</g>
<!-- Node4 -->
<g id="node4" class="node">
<title>Node4</title>
<g id="a_node4"><a xlink:href="classsignal__easel_1_1ax25_1_1Frame.html#a57b163ece54317da8d95f3b18b47c23d" target="_top" xlink:title="setters/getters for the frame.">
<polygon fill="none" stroke="black" points="535,-343.5 535,-373.5 705,-373.5 705,-343.5 535,-343.5"/>
<text text-anchor="start" x="543" y="-361.5" font-family="Helvetica,sans-Serif" font-size="10.00">signal_easel::ax25</text>
<text text-anchor="middle" x="620" y="-350.5" font-family="Helvetica,sans-Serif" font-size="10.00">::Frame::setDestinationAddress</text>
</a>
</g>
</g>
<!-- Node2&#45;&gt;Node4 -->
<g id="edge3" class="edge">
<title>Node2&#45;&gt;Node4</title>
<path fill="none" stroke="midnightblue" d="M499.04,-355.38C507.45,-355.6 516.13,-355.82 524.78,-356.05"/>
<polygon fill="midnightblue" stroke="midnightblue" points="524.83,-359.55 534.92,-356.31 525.01,-352.55 524.83,-359.55"/>
</g>
<!-- Node9 -->
<g id="node9" class="node">
<title>Node9</title>
<g id="a_node9"><a xlink:href="classsignal__easel_1_1ax25_1_1Frame.html#a402d26a81f82bb5c477e8930b75a771e" target="_top" xlink:title=" ">
<polygon fill="none" stroke="black" points="547,-294.5 547,-324.5 693,-324.5 693,-294.5 547,-294.5"/>
<text text-anchor="start" x="555" y="-312.5" font-family="Helvetica,sans-Serif" font-size="10.00">signal_easel::ax25</text>
<text text-anchor="middle" x="620" y="-301.5" font-family="Helvetica,sans-Serif" font-size="10.00">::Frame::setSourceAddress</text>
</a>
</g>
</g>
<!-- Node2&#45;&gt;Node9 -->
<g id="edge8" class="edge">
<title>Node2&#45;&gt;Node9</title>
<path fill="none" stroke="midnightblue" d="M492.54,-338.48C508.98,-334.71 526.74,-330.64 543.62,-326.78"/>
<polygon fill="midnightblue" stroke="midnightblue" points="544.47,-330.17 553.43,-324.53 542.9,-323.35 544.47,-330.17"/>
</g>
<!-- Node5 -->
<g id="node5" class="node">
<title>Node5</title>
<g id="a_node5"><a xlink:href="classsignal__easel_1_1ax25_1_1Address.html#a7fa6b0ef4241413893f201660991e4ea" target="_top" xlink:title="Checks if the address is valid, if not throws an exception with a specific error code.">
<polygon fill="none" stroke="black" points="741,-291.5 741,-321.5 871,-321.5 871,-291.5 741,-291.5"/>
<text text-anchor="start" x="749" y="-309.5" font-family="Helvetica,sans-Serif" font-size="10.00">signal_easel::ax25</text>
<text text-anchor="middle" x="806" y="-298.5" font-family="Helvetica,sans-Serif" font-size="10.00">::Address::assertIsValid</text>
</a>
</g>
</g>
<!-- Node4&#45;&gt;Node5 -->
<g id="edge4" class="edge">
<title>Node4&#45;&gt;Node5</title>
<path fill="none" stroke="midnightblue" d="M674.22,-343.46C695.49,-337.45 720.13,-330.48 742.26,-324.23"/>
<polygon fill="midnightblue" stroke="midnightblue" points="743.23,-327.59 751.9,-321.51 741.32,-320.86 743.23,-327.59"/>
</g>
<!-- Node6 -->
<g id="node6" class="node">
<title>Node6</title>
<g id="a_node6"><a xlink:href="classsignal__easel_1_1ax25_1_1Address.html#af34b361f739b7995e7816b7a04465828" target="_top" xlink:title=" ">
<polygon fill="none" stroke="black" points="907,-286 907,-327 1072,-327 1072,-286 907,-286"/>
<text text-anchor="start" x="915" y="-315" font-family="Helvetica,sans-Serif" font-size="10.00">signal_easel::ax25</text>
<text text-anchor="start" x="915" y="-304" font-family="Helvetica,sans-Serif" font-size="10.00">::Address::assertAddressString</text>
<text text-anchor="middle" x="989.5" y="-293" font-family="Helvetica,sans-Serif" font-size="10.00">IsValid</text>
</a>
</g>
</g>
<!-- Node5&#45;&gt;Node6 -->
<g id="edge5" class="edge">
<title>Node5&#45;&gt;Node6</title>
<path fill="none" stroke="midnightblue" d="M871.25,-306.5C879.53,-306.5 888.13,-306.5 896.75,-306.5"/>
<polygon fill="midnightblue" stroke="midnightblue" points="896.85,-310 906.85,-306.5 896.85,-303 896.85,-310"/>
</g>
<!-- Node7 -->
<g id="node7" class="node">
<title>Node7</title>
<g id="a_node7"><a xlink:href="classsignal__easel_1_1ax25_1_1Address.html#a8b44c6e311d3462bd86eda03c1d384f0" target="_top" xlink:title=" ">
<polygon fill="none" stroke="black" points="914.5,-233.5 914.5,-263.5 1064.5,-263.5 1064.5,-233.5 914.5,-233.5"/>
<text text-anchor="start" x="922.5" y="-251.5" font-family="Helvetica,sans-Serif" font-size="10.00">signal_easel::ax25</text>
<text text-anchor="middle" x="989.5" y="-240.5" font-family="Helvetica,sans-Serif" font-size="10.00">::Address::assertSsidIsValid</text>
</a>
</g>
</g>
<!-- Node5&#45;&gt;Node7 -->
<g id="edge6" class="edge">
<title>Node5&#45;&gt;Node7</title>
<path fill="none" stroke="midnightblue" d="M854.21,-291.41C877.95,-283.83 906.9,-274.58 931.83,-266.61"/>
<polygon fill="midnightblue" stroke="midnightblue" points="933.06,-269.89 941.52,-263.51 930.93,-263.22 933.06,-269.89"/>
</g>
<!-- Node8 -->
<g id="node8" class="node">
<title>Node8</title>
<g id="a_node8"><a xlink:href="classsignal__easel_1_1ax25_1_1Address.html#ad66c149737cc4aa52ae9e8860176acf3" target="_top" xlink:title=" ">
<polygon fill="none" stroke="black" points="1108,-208.5 1108,-238.5 1228,-238.5 1228,-208.5 1108,-208.5"/>
<text text-anchor="start" x="1116" y="-226.5" font-family="Helvetica,sans-Serif" font-size="10.00">signal_easel::ax25</text>
<text text-anchor="middle" x="1168" y="-215.5" font-family="Helvetica,sans-Serif" font-size="10.00">::Address::isSsidValid</text>
</a>
</g>
</g>
<!-- Node7&#45;&gt;Node8 -->
<g id="edge7" class="edge">
<title>Node7&#45;&gt;Node8</title>
<path fill="none" stroke="midnightblue" d="M1064.58,-238.01C1075.64,-236.44 1086.99,-234.83 1097.93,-233.28"/>
<polygon fill="midnightblue" stroke="midnightblue" points="1098.43,-236.75 1107.84,-231.88 1097.45,-229.82 1098.43,-236.75"/>
</g>
<!-- Node9&#45;&gt;Node5 -->
<g id="edge9" class="edge">
<title>Node9&#45;&gt;Node5</title>
<path fill="none" stroke="midnightblue" d="M693.19,-308.32C705.46,-308.12 718.23,-307.91 730.56,-307.71"/>
<polygon fill="midnightblue" stroke="midnightblue" points="730.85,-311.21 740.79,-307.55 730.73,-304.21 730.85,-311.21"/>
</g>
<!-- Node11 -->
<g id="node11" class="node">
<title>Node11</title>
<g id="a_node11"><a xlink:href="classsignal__easel_1_1BitStream.html#a9df75eb28c03717c9fad2d30a85de6e6" target="_top" xlink:title=" ">
<polygon fill="none" stroke="black" points="554,-245.5 554,-275.5 686,-275.5 686,-245.5 554,-245.5"/>
<text text-anchor="start" x="562" y="-263.5" font-family="Helvetica,sans-Serif" font-size="10.00">signal_easel::BitStream</text>
<text text-anchor="middle" x="620" y="-252.5" font-family="Helvetica,sans-Serif" font-size="10.00">::addBits</text>
</a>
</g>
</g>
<!-- Node10&#45;&gt;Node11 -->
<g id="edge11" class="edge">
<title>Node10&#45;&gt;Node11</title>
<path fill="none" stroke="midnightblue" d="M262.28,-201.76C278.09,-224.84 311.69,-267.69 353,-284.5 413.1,-308.95 434.43,-290.89 499,-284.5 514.26,-282.99 530.46,-280.42 545.85,-277.51"/>
<polygon fill="midnightblue" stroke="midnightblue" points="546.69,-280.92 555.83,-275.56 545.34,-274.05 546.69,-280.92"/>
</g>
<!-- Node12 -->
<g id="node12" class="node">
<title>Node12</title>
<g id="a_node12"><a xlink:href="classsignal__easel_1_1BitStream.html#a81d4aea4c11f65e0c2b7ad2f0f0cc312" target="_top" xlink:title=" ">
<polygon fill="none" stroke="black" points="360,-245.5 360,-275.5 492,-275.5 492,-245.5 360,-245.5"/>
<text text-anchor="start" x="368" y="-263.5" font-family="Helvetica,sans-Serif" font-size="10.00">signal_easel::BitStream</text>
<text text-anchor="middle" x="426" y="-252.5" font-family="Helvetica,sans-Serif" font-size="10.00">::addOneBit</text>
</a>
</g>
</g>
<!-- Node10&#45;&gt;Node12 -->
<g id="edge12" class="edge">
<title>Node10&#45;&gt;Node12</title>
<path fill="none" stroke="midnightblue" d="M281.11,-201.58C300.99,-211.78 328.26,-225.22 353,-235.5 358.32,-237.71 363.92,-239.9 369.54,-242"/>
<polygon fill="midnightblue" stroke="midnightblue" points="368.39,-245.3 378.98,-245.44 370.79,-238.73 368.39,-245.3"/>
</g>
<!-- Node13 -->
<g id="node13" class="node">
<title>Node13</title>
<g id="a_node13"><a xlink:href="classsignal__easel_1_1BitStream.html#abb315beec8c4d88115d9d4ec5f082863" target="_top" xlink:title=" ">
<polygon fill="none" stroke="black" points="360,-196.5 360,-226.5 492,-226.5 492,-196.5 360,-196.5"/>
<text text-anchor="start" x="368" y="-214.5" font-family="Helvetica,sans-Serif" font-size="10.00">signal_easel::BitStream</text>
<text text-anchor="middle" x="426" y="-203.5" font-family="Helvetica,sans-Serif" font-size="10.00">::addZeroBit</text>
</a>
</g>
</g>
<!-- Node10&#45;&gt;Node13 -->
<g id="edge14" class="edge">
<title>Node10&#45;&gt;Node13</title>
<path fill="none" stroke="midnightblue" d="M314.29,-195.45C325.84,-197.13 338.04,-198.9 349.94,-200.62"/>
<polygon fill="midnightblue" stroke="midnightblue" points="349.46,-204.09 359.86,-202.06 350.46,-197.16 349.46,-204.09"/>
</g>
<!-- Node14 -->
<g id="node14" class="node">
<title>Node14</title>
<g id="a_node14"><a xlink:href="classsignal__easel_1_1ax25_1_1Frame.html#a24e7d5ffc6504a3380e97142d1bc084e" target="_top" xlink:title="Builds all internal portions of the frame. Doesn&#39;t include the flags.">
<polygon fill="none" stroke="black" points="369,-147.5 369,-177.5 483,-177.5 483,-147.5 369,-147.5"/>
<text text-anchor="start" x="377" y="-165.5" font-family="Helvetica,sans-Serif" font-size="10.00">signal_easel::ax25</text>
<text text-anchor="middle" x="426" y="-154.5" font-family="Helvetica,sans-Serif" font-size="10.00">::Frame::buildFrame</text>
</a>
</g>
</g>
<!-- Node10&#45;&gt;Node14 -->
<g id="edge16" class="edge">
<title>Node10&#45;&gt;Node14</title>
<path fill="none" stroke="midnightblue" d="M314.29,-177.9C328.74,-175.89 344.19,-173.74 358.83,-171.71"/>
<polygon fill="midnightblue" stroke="midnightblue" points="359.39,-175.16 368.81,-170.32 358.42,-168.23 359.39,-175.16"/>
</g>
<!-- Node21 -->
<g id="node21" class="node">
<title>Node21</title>
<g id="a_node21"><a xlink:href="classsignal__easel_1_1BitStream.html#aa97152ef51f73088e103a7951134aa85" target="_top" xlink:title=" ">
<polygon fill="none" stroke="black" points="360,-98.5 360,-128.5 492,-128.5 492,-98.5 360,-98.5"/>
<text text-anchor="start" x="368" y="-116.5" font-family="Helvetica,sans-Serif" font-size="10.00">signal_easel::BitStream</text>
<text text-anchor="middle" x="426" y="-105.5" font-family="Helvetica,sans-Serif" font-size="10.00">::getBitStreamLength</text>
</a>
</g>
</g>
<!-- Node10&#45;&gt;Node21 -->
<g id="edge25" class="edge">
<title>Node10&#45;&gt;Node21</title>
<path fill="none" stroke="midnightblue" d="M295.41,-171.38C302.74,-168.38 310.18,-165.04 317,-161.5 334.07,-152.64 335.73,-145.95 353,-137.5 356.73,-135.68 360.63,-133.94 364.6,-132.29"/>
<polygon fill="midnightblue" stroke="midnightblue" points="365.93,-135.53 373.97,-128.62 363.38,-129.01 365.93,-135.53"/>
</g>
<!-- Node22 -->
<g id="node22" class="node">
<title>Node22</title>
<g id="a_node22"><a xlink:href="classsignal__easel_1_1BitStream.html#a5b5339586e09ca5c25a7e9ded0118ffb" target="_top" xlink:title="Returns the next bit of the bit stream that will be encoded.">
<polygon fill="none" stroke="black" points="360,-49.5 360,-79.5 492,-79.5 492,-49.5 360,-49.5"/>
<text text-anchor="start" x="368" y="-67.5" font-family="Helvetica,sans-Serif" font-size="10.00">signal_easel::BitStream</text>
<text text-anchor="middle" x="426" y="-56.5" font-family="Helvetica,sans-Serif" font-size="10.00">::popNextBit</text>
</a>
</g>
</g>
<!-- Node10&#45;&gt;Node22 -->
<g id="edge26" class="edge">
<title>Node10&#45;&gt;Node22</title>
<path fill="none" stroke="midnightblue" d="M302.95,-171.34C308.03,-168.57 312.84,-165.31 317,-161.5 343.68,-137.08 325.74,-112.28 353,-88.5 354.49,-87.2 356.05,-85.97 357.67,-84.81"/>
<polygon fill="midnightblue" stroke="midnightblue" points="359.55,-87.77 366.21,-79.53 355.86,-81.81 359.55,-87.77"/>
</g>
<!-- Node23 -->
<g id="node23" class="node">
<title>Node23</title>
<g id="a_node23"><a xlink:href="namespacesignal__easel_1_1ax25.html#a56c64a06f2dc7d2d270c32e1063400ae" target="_top" xlink:title="Reverse a byte.">
<polygon fill="none" stroke="black" points="372.5,-0.5 372.5,-30.5 479.5,-30.5 479.5,-0.5 372.5,-0.5"/>
<text text-anchor="start" x="380.5" y="-18.5" font-family="Helvetica,sans-Serif" font-size="10.00">signal_easel::ax25</text>
<text text-anchor="middle" x="426" y="-7.5" font-family="Helvetica,sans-Serif" font-size="10.00">::reverseByte</text>
</a>
</g>
</g>
<!-- Node10&#45;&gt;Node23 -->
<g id="edge27" class="edge">
<title>Node10&#45;&gt;Node23</title>
<path fill="none" stroke="midnightblue" d="M304.58,-171.46C309.17,-168.68 313.42,-165.39 317,-161.5 355.29,-119.9 313.73,-80.17 353,-39.5 356.04,-36.35 359.5,-33.62 363.22,-31.25"/>
<polygon fill="midnightblue" stroke="midnightblue" points="365.18,-34.17 372.3,-26.33 361.84,-28.01 365.18,-34.17"/>
</g>
<!-- Node12&#45;&gt;Node11 -->
<g id="edge13" class="edge">
<title>Node12&#45;&gt;Node11</title>
<path fill="none" stroke="midnightblue" d="M492,-260.5C508.49,-260.5 526.34,-260.5 543.31,-260.5"/>
<polygon fill="midnightblue" stroke="midnightblue" points="543.74,-264 553.74,-260.5 543.74,-257 543.74,-264"/>
</g>
<!-- Node13&#45;&gt;Node11 -->
<g id="edge15" class="edge">
<title>Node13&#45;&gt;Node11</title>
<path fill="none" stroke="midnightblue" d="M485.91,-226.53C506.28,-231.73 529.27,-237.6 550.35,-242.98"/>
<polygon fill="midnightblue" stroke="midnightblue" points="549.65,-246.41 560.2,-245.49 551.38,-239.63 549.65,-246.41"/>
</g>
<!-- Node15 -->
<g id="node15" class="node">
<title>Node15</title>
<g id="a_node15"><a xlink:href="namespacesignal__easel_1_1ax25.html#a6d799107f96d783e620cd508488ab8eb" target="_top" xlink:title="Calculate the Frame Check Sequence (FCS) on a vector of bytes.">
<polygon fill="none" stroke="black" points="566.5,-196.5 566.5,-226.5 673.5,-226.5 673.5,-196.5 566.5,-196.5"/>
<text text-anchor="start" x="574.5" y="-214.5" font-family="Helvetica,sans-Serif" font-size="10.00">signal_easel::ax25</text>
<text text-anchor="middle" x="620" y="-203.5" font-family="Helvetica,sans-Serif" font-size="10.00">::calculateFcs</text>
</a>
</g>
</g>
<!-- Node14&#45;&gt;Node15 -->
<g id="edge17" class="edge">
<title>Node14&#45;&gt;Node15</title>
<path fill="none" stroke="midnightblue" d="M483.05,-176.8C506,-182.66 532.67,-189.47 556.27,-195.49"/>
<polygon fill="midnightblue" stroke="midnightblue" points="555.62,-198.94 566.17,-198.02 557.35,-192.15 555.62,-198.94"/>
</g>
<!-- Node16 -->
<g id="node16" class="node">
<title>Node16</title>
<g id="a_node16"><a xlink:href="classsignal__easel_1_1ax25_1_1Address.html#a0c31737081a9184b56dc32150b23cb0a" target="_top" xlink:title="Get the address as a byte array.">
<polygon fill="none" stroke="black" points="549,-147.5 549,-177.5 691,-177.5 691,-147.5 549,-147.5"/>
<text text-anchor="start" x="557" y="-165.5" font-family="Helvetica,sans-Serif" font-size="10.00">signal_easel::ax25</text>
<text text-anchor="middle" x="620" y="-154.5" font-family="Helvetica,sans-Serif" font-size="10.00">::Address::encodeAddress</text>
</a>
</g>
</g>
<!-- Node14&#45;&gt;Node16 -->
<g id="edge18" class="edge">
<title>Node14&#45;&gt;Node16</title>
<path fill="none" stroke="midnightblue" d="M483.05,-162.5C500.5,-162.5 520.1,-162.5 538.86,-162.5"/>
<polygon fill="midnightblue" stroke="midnightblue" points="538.88,-166 548.88,-162.5 538.88,-159 538.88,-166"/>
</g>
<!-- Node17 -->
<g id="node17" class="node">
<title>Node17</title>
<g id="a_node17"><a xlink:href="classsignal__easel_1_1ax25_1_1Frame.html#a640edeabbda34e78cc243e3561747bf9" target="_top" xlink:title=" ">
<polygon fill="none" stroke="black" points="559,-98.5 559,-128.5 681,-128.5 681,-98.5 559,-98.5"/>
<text text-anchor="start" x="567" y="-116.5" font-family="Helvetica,sans-Serif" font-size="10.00">signal_easel::ax25</text>
<text text-anchor="middle" x="620" y="-105.5" font-family="Helvetica,sans-Serif" font-size="10.00">::Frame::isFrameValid</text>
</a>
</g>
</g>
<!-- Node14&#45;&gt;Node17 -->
<g id="edge20" class="edge">
<title>Node14&#45;&gt;Node17</title>
<path fill="none" stroke="midnightblue" d="M483.05,-148.2C504.07,-142.83 528.2,-136.67 550.24,-131.05"/>
<polygon fill="midnightblue" stroke="midnightblue" points="551.38,-134.37 560.21,-128.5 549.65,-127.59 551.38,-134.37"/>
</g>
<!-- Node20 -->
<g id="node20" class="node">
<title>Node20</title>
<g id="a_node20"><a xlink:href="classsignal__easel_1_1ax25_1_1Address.html#a1a5bc573535cfc1f8723c121e3451e7c" target="_top" xlink:title="Set the as the last address in the AX.25 frame (Sets a bit in the ssid byte)">
<polygon fill="none" stroke="black" points="545,-49.5 545,-79.5 695,-79.5 695,-49.5 545,-49.5"/>
<text text-anchor="start" x="553" y="-67.5" font-family="Helvetica,sans-Serif" font-size="10.00">signal_easel::ax25</text>
<text text-anchor="middle" x="620" y="-56.5" font-family="Helvetica,sans-Serif" font-size="10.00">::Address::setIsLastAddress</text>
</a>
</g>
</g>
<!-- Node14&#45;&gt;Node20 -->
<g id="edge24" class="edge">
<title>Node14&#45;&gt;Node20</title>
<path fill="none" stroke="midnightblue" d="M481.86,-147.45C487.92,-144.64 493.78,-141.35 499,-137.5 520.74,-121.46 512.82,-103.93 535,-88.5 537.26,-86.93 539.62,-85.46 542.05,-84.09"/>
<polygon fill="midnightblue" stroke="midnightblue" points="543.78,-87.14 551.15,-79.53 540.64,-80.88 543.78,-87.14"/>
</g>
<!-- Node16&#45;&gt;Node5 -->
<g id="edge19" class="edge">
<title>Node16&#45;&gt;Node5</title>
<path fill="none" stroke="midnightblue" d="M688.2,-177.67C694.09,-180.18 699.79,-183.11 705,-186.5 743.22,-211.39 774.38,-255.36 791.26,-282.61"/>
<polygon fill="midnightblue" stroke="midnightblue" points="788.46,-284.74 796.62,-291.49 794.45,-281.12 788.46,-284.74"/>
</g>
<!-- Node18 -->
<g id="node18" class="node">
<title>Node18</title>
<g id="a_node18"><a xlink:href="classsignal__easel_1_1ax25_1_1Address.html#aae81920cfd0dc7d89cb107f9d825488c" target="_top" xlink:title="If the address is valid (can be encoded correctly or was decoded)">
<polygon fill="none" stroke="black" points="752.5,-122.5 752.5,-152.5 859.5,-152.5 859.5,-122.5 752.5,-122.5"/>
<text text-anchor="start" x="760.5" y="-140.5" font-family="Helvetica,sans-Serif" font-size="10.00">signal_easel::ax25</text>
<text text-anchor="middle" x="806" y="-129.5" font-family="Helvetica,sans-Serif" font-size="10.00">::Address::isValid</text>
</a>
</g>
</g>
<!-- Node17&#45;&gt;Node18 -->
<g id="edge21" class="edge">
<title>Node17&#45;&gt;Node18</title>
<path fill="none" stroke="midnightblue" d="M681.25,-121.36C700.79,-123.91 722.52,-126.74 742.24,-129.31"/>
<polygon fill="midnightblue" stroke="midnightblue" points="741.99,-132.81 752.35,-130.63 742.89,-125.87 741.99,-132.81"/>
</g>
<!-- Node18&#45;&gt;Node8 -->
<g id="edge23" class="edge">
<title>Node18&#45;&gt;Node8</title>
<path fill="none" stroke="midnightblue" d="M854.34,-152.54C870.92,-157.59 889.71,-163.05 907,-167.5 971.28,-184.04 1045.34,-199.66 1097.93,-210.18"/>
<polygon fill="midnightblue" stroke="midnightblue" points="1097.34,-213.63 1107.83,-212.15 1098.7,-206.76 1097.34,-213.63"/>
</g>
<!-- Node19 -->
<g id="node19" class="node">
<title>Node19</title>
<g id="a_node19"><a xlink:href="classsignal__easel_1_1ax25_1_1Address.html#a56c55b48bfc809a33aa0e22a5aeb95ca" target="_top" xlink:title=" ">
<polygon fill="none" stroke="black" points="918,-117 918,-158 1061,-158 1061,-117 918,-117"/>
<text text-anchor="start" x="926" y="-146" font-family="Helvetica,sans-Serif" font-size="10.00">signal_easel::ax25</text>
<text text-anchor="start" x="926" y="-135" font-family="Helvetica,sans-Serif" font-size="10.00">::Address::isAddressString</text>
<text text-anchor="middle" x="989.5" y="-124" font-family="Helvetica,sans-Serif" font-size="10.00">Valid</text>
</a>
</g>
</g>
<!-- Node18&#45;&gt;Node19 -->
<g id="edge22" class="edge">
<title>Node18&#45;&gt;Node19</title>
<path fill="none" stroke="midnightblue" d="M859.99,-137.5C874.98,-137.5 891.64,-137.5 907.87,-137.5"/>
<polygon fill="midnightblue" stroke="midnightblue" points="907.89,-141 917.89,-137.5 907.89,-134 907.89,-141"/>
</g>
</g>
</svg>
