<?xml version="1.0" encoding="UTF-8" standalone="no"?>
<!DOCTYPE svg PUBLIC "-//W3C//DTD SVG 1.1//EN"
 "http://www.w3.org/Graphics/SVG/1.1/DTD/svg11.dtd">
<!-- Generated by graphviz version 2.43.0 (0)
 -->
<!-- Title: signal_easel::ax25::calculateFcs Pages: 1 -->
<svg width="882pt" height="113pt"
 viewBox="0.00 0.00 882.00 113.00" xmlns="http://www.w3.org/2000/svg" xmlns:xlink="http://www.w3.org/1999/xlink">
<g id="graph0" class="graph" transform="scale(1 1) rotate(0) translate(4 109)">
<title>signal_easel::ax25::calculateFcs</title>
<!-- Node1 -->
<g id="node1" class="node">
<title>Node1</title>
<g id="a_node1"><a xlink:title="Calculate the Frame Check Sequence (FCS) on a vector of bytes.">
<polygon fill="#bfbfbf" stroke="black" points="767,-17 767,-47 874,-47 874,-17 767,-17"/>
<text text-anchor="start" x="775" y="-35" font-family="Helvetica,sans-Serif" font-size="10.00">signal_easel::ax25</text>
<text text-anchor="middle" x="820.5" y="-24" font-family="Helvetica,sans-Serif" font-size="10.00">::calculateFcs</text>
</a>
</g>
</g>
<!-- Node2 -->
<g id="node2" class="node">
<title>Node2</title>
<g id="a_node2"><a xlink:href="classsignal__easel_1_1ax25_1_1Frame.html#a24e7d5ffc6504a3380e97142d1bc084e" target="_top" xlink:title="Builds all internal portions of the frame. Doesn&#39;t include the flags.">
<polygon fill="none" stroke="black" points="617,-39 617,-69 731,-69 731,-39 617,-39"/>
<text text-anchor="start" x="625" y="-57" font-family="Helvetica,sans-Serif" font-size="10.00">signal_easel::ax25</text>
<text text-anchor="middle" x="674" y="-46" font-family="Helvetica,sans-Serif" font-size="10.00">::Frame::buildFrame</text>
</a>
</g>
</g>
<!-- Node1&#45;&gt;Node2 -->
<g id="edge1" class="edge">
<title>Node1&#45;&gt;Node2</title>
<path fill="none" stroke="midnightblue" d="M756.97,-41.52C748.4,-42.82 739.64,-44.16 731.19,-45.45"/>
<polygon fill="midnightblue" stroke="midnightblue" points="757.56,-44.97 766.92,-40 756.51,-38.05 757.56,-44.97"/>
</g>
<!-- Node8 -->
<g id="node8" class="node">
<title>Node8</title>
<g id="a_node8"><a xlink:href="ax25__crc__test_8cpp.html#a5e8c68be13dd9b8e641ae63df436f819" target="_top" xlink:title=" ">
<polygon fill="none" stroke="black" points="653.5,-0.5 653.5,-19.5 694.5,-19.5 694.5,-0.5 653.5,-0.5"/>
<text text-anchor="middle" x="674" y="-7.5" font-family="Helvetica,sans-Serif" font-size="10.00">TEST</text>
</a>
</g>
</g>
<!-- Node1&#45;&gt;Node8 -->
<g id="edge7" class="edge">
<title>Node1&#45;&gt;Node8</title>
<path fill="none" stroke="midnightblue" d="M756.74,-22.45C734.32,-19.03 710.66,-15.43 694.6,-12.98"/>
<polygon fill="midnightblue" stroke="midnightblue" points="756.51,-25.95 766.92,-24 757.56,-19.03 756.51,-25.95"/>
</g>
<!-- Node3 -->
<g id="node3" class="node">
<title>Node3</title>
<g id="a_node3"><a xlink:href="classsignal__easel_1_1ax25_1_1Frame.html#a2b4f6ebcb7592a7e5a21114c8fafa503" target="_top" xlink:title="A step beyond buildFrame. This function builds the frame, does the bit stuffing, adds the flags,...">
<polygon fill="none" stroke="black" points="456,-39 456,-69 581,-69 581,-39 456,-39"/>
<text text-anchor="start" x="464" y="-57" font-family="Helvetica,sans-Serif" font-size="10.00">signal_easel::ax25</text>
<text text-anchor="middle" x="518.5" y="-46" font-family="Helvetica,sans-Serif" font-size="10.00">::Frame::encodeFrame</text>
</a>
</g>
</g>
<!-- Node2&#45;&gt;Node3 -->
<g id="edge2" class="edge">
<title>Node2&#45;&gt;Node3</title>
<path fill="none" stroke="midnightblue" d="M606.56,-54C598.14,-54 589.55,-54 581.21,-54"/>
<polygon fill="midnightblue" stroke="midnightblue" points="606.71,-57.5 616.71,-54 606.71,-50.5 606.71,-57.5"/>
</g>
<!-- Node4 -->
<g id="node4" class="node">
<title>Node4</title>
<g id="a_node4"><a xlink:href="namespacesignal__easel.html#aad3ffdd47a4a03ed438e8c1ca9eef231" target="_top" xlink:title=" ">
<polygon fill="none" stroke="black" points="270,-44.5 270,-63.5 420,-63.5 420,-44.5 270,-44.5"/>
<text text-anchor="middle" x="345" y="-51.5" font-family="Helvetica,sans-Serif" font-size="10.00">signal_easel::encodePacket</text>
</a>
</g>
</g>
<!-- Node3&#45;&gt;Node4 -->
<g id="edge3" class="edge">
<title>Node3&#45;&gt;Node4</title>
<path fill="none" stroke="midnightblue" d="M445.47,-54C437.08,-54 428.51,-54 420.1,-54"/>
<polygon fill="midnightblue" stroke="midnightblue" points="445.58,-57.5 455.58,-54 445.58,-50.5 445.58,-57.5"/>
</g>
<!-- Node5 -->
<g id="node5" class="node">
<title>Node5</title>
<g id="a_node5"><a xlink:href="classsignal__easel_1_1aprs_1_1Modulator.html#a147321b48c2e282c62863f114702e54f" target="_top" xlink:title=" ">
<polygon fill="none" stroke="black" points="77,-63.5 77,-104.5 234,-104.5 234,-63.5 77,-63.5"/>
<text text-anchor="start" x="85" y="-92.5" font-family="Helvetica,sans-Serif" font-size="10.00">signal_easel::aprs</text>
<text text-anchor="start" x="85" y="-81.5" font-family="Helvetica,sans-Serif" font-size="10.00">::Modulator::encodeMessage</text>
<text text-anchor="middle" x="155.5" y="-70.5" font-family="Helvetica,sans-Serif" font-size="10.00">Packet</text>
</a>
</g>
</g>
<!-- Node4&#45;&gt;Node5 -->
<g id="edge4" class="edge">
<title>Node4&#45;&gt;Node5</title>
<path fill="none" stroke="midnightblue" d="M274.51,-65.12C261.35,-67.22 247.51,-69.44 234.13,-71.58"/>
<polygon fill="midnightblue" stroke="midnightblue" points="275.09,-68.57 284.42,-63.53 273.99,-61.66 275.09,-68.57"/>
</g>
<!-- Node7 -->
<g id="node7" class="node">
<title>Node7</title>
<g id="a_node7"><a xlink:href="classsignal__easel_1_1aprs_1_1Modulator.html#a943e392227656943d7db842e1889d805" target="_top" xlink:title=" ">
<polygon fill="none" stroke="black" points="79.5,-3.5 79.5,-44.5 231.5,-44.5 231.5,-3.5 79.5,-3.5"/>
<text text-anchor="start" x="87.5" y="-32.5" font-family="Helvetica,sans-Serif" font-size="10.00">signal_easel::aprs</text>
<text text-anchor="start" x="87.5" y="-21.5" font-family="Helvetica,sans-Serif" font-size="10.00">::Modulator::encodePosition</text>
<text text-anchor="middle" x="155.5" y="-10.5" font-family="Helvetica,sans-Serif" font-size="10.00">Packet</text>
</a>
</g>
</g>
<!-- Node4&#45;&gt;Node7 -->
<g id="edge6" class="edge">
<title>Node4&#45;&gt;Node7</title>
<path fill="none" stroke="midnightblue" d="M274.44,-42.87C260.53,-40.64 245.86,-38.3 231.77,-36.04"/>
<polygon fill="midnightblue" stroke="midnightblue" points="273.99,-46.34 284.42,-44.47 275.09,-39.43 273.99,-46.34"/>
</g>
<!-- Node6 -->
<g id="node6" class="node">
<title>Node6</title>
<g id="a_node6"><a xlink:href="aprs__test_8cpp.html#aea66d1824e3f1e27598adf99ac6a089a" target="_top" xlink:title=" ">
<polygon fill="none" stroke="black" points="0,-74.5 0,-93.5 41,-93.5 41,-74.5 0,-74.5"/>
<text text-anchor="middle" x="20.5" y="-81.5" font-family="Helvetica,sans-Serif" font-size="10.00">TEST</text>
</a>
</g>
</g>
<!-- Node5&#45;&gt;Node6 -->
<g id="edge5" class="edge">
<title>Node5&#45;&gt;Node6</title>
<path fill="none" stroke="midnightblue" d="M66.71,-84C57.26,-84 48.45,-84 41.16,-84"/>
<polygon fill="midnightblue" stroke="midnightblue" points="66.75,-87.5 76.75,-84 66.75,-80.5 66.75,-87.5"/>
</g>
</g>
</svg>
