<?xml version="1.0" encoding="UTF-8" standalone="no"?>
<!DOCTYPE svg PUBLIC "-//W3C//DTD SVG 1.1//EN"
 "http://www.w3.org/Graphics/SVG/1.1/DTD/svg11.dtd">
<!-- Generated by graphviz version 2.43.0 (0)
 -->
<!-- Title: signal_easel::base91Decode Pages: 1 -->
<svg width="500pt" height="50pt"
 viewBox="0.00 0.00 500.00 50.00" xmlns="http://www.w3.org/2000/svg" xmlns:xlink="http://www.w3.org/1999/xlink">
<g id="graph0" class="graph" transform="scale(1 1) rotate(0) translate(4 46)">
<title>signal_easel::base91Decode</title>
<!-- Node1 -->
<g id="node1" class="node">
<title>Node1</title>
<g id="a_node1"><a xlink:title=" ">
<polygon fill="#bfbfbf" stroke="black" points="337,-11.5 337,-30.5 492,-30.5 492,-11.5 337,-11.5"/>
<text text-anchor="middle" x="414.5" y="-18.5" font-family="Helvetica,sans-Serif" font-size="10.00">signal_easel::base91Decode</text>
</a>
</g>
</g>
<!-- Node2 -->
<g id="node2" class="node">
<title>Node2</title>
<g id="a_node2"><a xlink:href="classsignal__easel_1_1aprs_1_1Demodulator.html#a285cd33e16fa28925fe2acd3fe5029fb" target="_top" xlink:title="If the packet was a position packet, this function will try to parse the packet into it&#39;s positional ...">
<polygon fill="none" stroke="black" points="143,-0.5 143,-41.5 301,-41.5 301,-0.5 143,-0.5"/>
<text text-anchor="start" x="151" y="-29.5" font-family="Helvetica,sans-Serif" font-size="10.00">signal_easel::aprs</text>
<text text-anchor="start" x="151" y="-18.5" font-family="Helvetica,sans-Serif" font-size="10.00">::Demodulator::parsePosition</text>
<text text-anchor="middle" x="222" y="-7.5" font-family="Helvetica,sans-Serif" font-size="10.00">Packet</text>
</a>
</g>
</g>
<!-- Node1&#45;&gt;Node2 -->
<g id="edge1" class="edge">
<title>Node1&#45;&gt;Node2</title>
<path fill="none" stroke="midnightblue" d="M326.82,-21C318.23,-21 309.55,-21 301.06,-21"/>
<polygon fill="midnightblue" stroke="midnightblue" points="326.84,-24.5 336.84,-21 326.84,-17.5 326.84,-24.5"/>
</g>
<!-- Node3 -->
<g id="node3" class="node">
<title>Node3</title>
<g id="a_node3"><a xlink:href="classsignal__easel_1_1aprs_1_1Receiver.html#afbf7869aceaf2ea7ab0be8b9af16e818" target="_top" xlink:title=" ">
<polygon fill="none" stroke="black" points="0,-6 0,-36 107,-36 107,-6 0,-6"/>
<text text-anchor="start" x="8" y="-24" font-family="Helvetica,sans-Serif" font-size="10.00">signal_easel::aprs</text>
<text text-anchor="middle" x="53.5" y="-13" font-family="Helvetica,sans-Serif" font-size="10.00">::Receiver::decode</text>
</a>
</g>
</g>
<!-- Node2&#45;&gt;Node3 -->
<g id="edge2" class="edge">
<title>Node2&#45;&gt;Node3</title>
<path fill="none" stroke="midnightblue" d="M132.51,-21C123.9,-21 115.37,-21 107.29,-21"/>
<polygon fill="midnightblue" stroke="midnightblue" points="132.63,-24.5 142.63,-21 132.63,-17.5 132.63,-24.5"/>
</g>
</g>
</svg>
