<?xml version="1.0" encoding="UTF-8" standalone="no"?>
<!DOCTYPE svg PUBLIC "-//W3C//DTD SVG 1.1//EN"
 "http://www.w3.org/Graphics/SVG/1.1/DTD/svg11.dtd">
<!-- Generated by graphviz version 2.43.0 (0)
 -->
<!-- Title: signal_easel::aprs::telemetry::validateCoefficient Pages: 1 -->
<svg width="1164pt" height="304pt"
 viewBox="0.00 0.00 1164.00 303.50" xmlns="http://www.w3.org/2000/svg" xmlns:xlink="http://www.w3.org/1999/xlink">
<g id="graph0" class="graph" transform="scale(1 1) rotate(0) translate(4 299.5)">
<title>signal_easel::aprs::telemetry::validateCoefficient</title>
<!-- Node1 -->
<g id="node1" class="node">
<title>Node1</title>
<g id="a_node1"><a xlink:title="Validate the format of a coefficient.">
<polygon fill="#bfbfbf" stroke="black" points="988,-115.5 988,-145.5 1156,-145.5 1156,-115.5 988,-115.5"/>
<text text-anchor="start" x="996" y="-133.5" font-family="Helvetica,sans-Serif" font-size="10.00">signal_easel::aprs</text>
<text text-anchor="middle" x="1072" y="-122.5" font-family="Helvetica,sans-Serif" font-size="10.00">::telemetry::validateCoefficient</text>
</a>
</g>
</g>
<!-- Node2 -->
<g id="node2" class="node">
<title>Node2</title>
<g id="a_node2"><a xlink:href="classsignal__easel_1_1aprs_1_1telemetry_1_1TelemetryTranscoder.html#a581c58aa360dc40ddcbc475b96b25942" target="_top" xlink:title="Decode the parameter coefficients message.">
<polygon fill="none" stroke="black" points="748,-230 748,-271 952,-271 952,-230 748,-230"/>
<text text-anchor="start" x="756" y="-259" font-family="Helvetica,sans-Serif" font-size="10.00">signal_easel::aprs</text>
<text text-anchor="start" x="756" y="-248" font-family="Helvetica,sans-Serif" font-size="10.00">::telemetry::TelemetryTranscoder</text>
<text text-anchor="middle" x="850" y="-237" font-family="Helvetica,sans-Serif" font-size="10.00">::decodeParameterCoefficientMessage</text>
</a>
</g>
</g>
<!-- Node1&#45;&gt;Node2 -->
<g id="edge1" class="edge">
<title>Node1&#45;&gt;Node2</title>
<path fill="none" stroke="midnightblue" d="M1047.46,-152.41C1024.61,-172.63 988.19,-202.2 952,-220.5 945.14,-223.97 937.82,-227.1 930.36,-229.92"/>
<polygon fill="midnightblue" stroke="midnightblue" points="1049.85,-154.97 1054.95,-145.69 1045.17,-149.76 1049.85,-154.97"/>
</g>
<!-- Node8 -->
<g id="node8" class="node">
<title>Node8</title>
<g id="a_node8"><a xlink:href="classsignal__easel_1_1aprs_1_1telemetry_1_1AnalogParameter.html#a7c5705a070a081de4a4888dc7c38557d" target="_top" xlink:title="Set the A coefficient in the formula y = ax^2 + bx + c.">
<polygon fill="none" stroke="black" points="770,-50 770,-91 930,-91 930,-50 770,-50"/>
<text text-anchor="start" x="778" y="-79" font-family="Helvetica,sans-Serif" font-size="10.00">signal_easel::aprs</text>
<text text-anchor="start" x="778" y="-68" font-family="Helvetica,sans-Serif" font-size="10.00">::telemetry::AnalogParameter</text>
<text text-anchor="middle" x="850" y="-57" font-family="Helvetica,sans-Serif" font-size="10.00">::setCoefficientA</text>
</a>
</g>
</g>
<!-- Node1&#45;&gt;Node8 -->
<g id="edge7" class="edge">
<title>Node1&#45;&gt;Node8</title>
<path fill="none" stroke="midnightblue" d="M1006.01,-112.77C980.96,-105.94 952.14,-98.08 926.21,-91.01"/>
<polygon fill="midnightblue" stroke="midnightblue" points="1005.2,-116.18 1015.77,-115.44 1007.04,-109.43 1005.2,-116.18"/>
</g>
<!-- Node12 -->
<g id="node12" class="node">
<title>Node12</title>
<g id="a_node12"><a xlink:href="classsignal__easel_1_1aprs_1_1telemetry_1_1AnalogParameter.html#a8e660d1c9ddcd71c21ac1ea4750e1a81" target="_top" xlink:title="Set the B coefficient in the formula y = ax^2 + bx + c.">
<polygon fill="none" stroke="black" points="770,-170 770,-211 930,-211 930,-170 770,-170"/>
<text text-anchor="start" x="778" y="-199" font-family="Helvetica,sans-Serif" font-size="10.00">signal_easel::aprs</text>
<text text-anchor="start" x="778" y="-188" font-family="Helvetica,sans-Serif" font-size="10.00">::telemetry::AnalogParameter</text>
<text text-anchor="middle" x="850" y="-177" font-family="Helvetica,sans-Serif" font-size="10.00">::setCoefficientB</text>
</a>
</g>
</g>
<!-- Node1&#45;&gt;Node12 -->
<g id="edge11" class="edge">
<title>Node1&#45;&gt;Node12</title>
<path fill="none" stroke="midnightblue" d="M1006.01,-148.23C980.96,-155.06 952.14,-162.92 926.21,-169.99"/>
<polygon fill="midnightblue" stroke="midnightblue" points="1007.04,-151.57 1015.77,-145.56 1005.2,-144.82 1007.04,-151.57"/>
</g>
<!-- Node13 -->
<g id="node13" class="node">
<title>Node13</title>
<g id="a_node13"><a xlink:href="classsignal__easel_1_1aprs_1_1telemetry_1_1AnalogParameter.html#ad289542e484756aae17ca7c77b6cb58e" target="_top" xlink:title="Set the C coefficient in the formula y = ax^2 + bx + c.">
<polygon fill="none" stroke="black" points="770,-110 770,-151 930,-151 930,-110 770,-110"/>
<text text-anchor="start" x="778" y="-139" font-family="Helvetica,sans-Serif" font-size="10.00">signal_easel::aprs</text>
<text text-anchor="start" x="778" y="-128" font-family="Helvetica,sans-Serif" font-size="10.00">::telemetry::AnalogParameter</text>
<text text-anchor="middle" x="850" y="-117" font-family="Helvetica,sans-Serif" font-size="10.00">::setCoefficientC</text>
</a>
</g>
</g>
<!-- Node1&#45;&gt;Node13 -->
<g id="edge13" class="edge">
<title>Node1&#45;&gt;Node13</title>
<path fill="none" stroke="midnightblue" d="M977.57,-130.5C961.83,-130.5 945.63,-130.5 930.29,-130.5"/>
<polygon fill="midnightblue" stroke="midnightblue" points="977.83,-134 987.83,-130.5 977.83,-127 977.83,-134"/>
</g>
<!-- Node14 -->
<g id="node14" class="node">
<title>Node14</title>
<g id="a_node14"><a xlink:href="namespacesignal__easel_1_1aprs_1_1telemetry.html#a0e65807c1f6ab9b52169a21387a00d71" target="_top" xlink:title="Wrapper for validateCoefficient that does not require the numerical value.">
<polygon fill="none" stroke="black" points="766,-0.5 766,-30.5 934,-30.5 934,-0.5 766,-0.5"/>
<text text-anchor="start" x="774" y="-18.5" font-family="Helvetica,sans-Serif" font-size="10.00">signal_easel::aprs</text>
<text text-anchor="middle" x="850" y="-7.5" font-family="Helvetica,sans-Serif" font-size="10.00">::telemetry::validateCoefficient</text>
</a>
</g>
</g>
<!-- Node1&#45;&gt;Node14 -->
<g id="edge15" class="edge">
<title>Node1&#45;&gt;Node14</title>
<path fill="none" stroke="midnightblue" d="M1048.03,-108.56C1025.35,-88.06 988.81,-58.06 952,-40.5 943.93,-36.65 935.2,-33.35 926.38,-30.54"/>
<polygon fill="midnightblue" stroke="midnightblue" points="1045.72,-111.19 1055.45,-115.38 1050.46,-106.03 1045.72,-111.19"/>
</g>
<!-- Node3 -->
<g id="node3" class="node">
<title>Node3</title>
<g id="a_node3"><a xlink:href="classsignal__easel_1_1aprs_1_1telemetry_1_1TelemetryTranscoder.html#a8728ebd6e5dbd7ca50a219fda62b7375" target="_top" xlink:title="Takes in the information field of an APRS telemetry message and decodes it with the appropriate metho...">
<polygon fill="none" stroke="black" points="535,-230 535,-271 712,-271 712,-230 535,-230"/>
<text text-anchor="start" x="543" y="-259" font-family="Helvetica,sans-Serif" font-size="10.00">signal_easel::aprs</text>
<text text-anchor="start" x="543" y="-248" font-family="Helvetica,sans-Serif" font-size="10.00">::telemetry::TelemetryTranscoder</text>
<text text-anchor="middle" x="623.5" y="-237" font-family="Helvetica,sans-Serif" font-size="10.00">::decodeMessage</text>
</a>
</g>
</g>
<!-- Node2&#45;&gt;Node3 -->
<g id="edge2" class="edge">
<title>Node2&#45;&gt;Node3</title>
<path fill="none" stroke="midnightblue" d="M737.87,-250.5C729.3,-250.5 720.72,-250.5 712.34,-250.5"/>
<polygon fill="midnightblue" stroke="midnightblue" points="737.91,-254 747.91,-250.5 737.91,-247 737.91,-254"/>
</g>
<!-- Node4 -->
<g id="node4" class="node">
<title>Node4</title>
<g id="a_node4"><a xlink:href="classsignal__easel_1_1aprs_1_1Demodulator.html#a97af61f7afb63db275020ba523abcc3a" target="_top" xlink:title="If the packet was a telemetry packet, this function will try to parse the packet and populate the tel...">
<polygon fill="none" stroke="black" points="331,-230 331,-271 499,-271 499,-230 331,-230"/>
<text text-anchor="start" x="339" y="-259" font-family="Helvetica,sans-Serif" font-size="10.00">signal_easel::aprs</text>
<text text-anchor="start" x="339" y="-248" font-family="Helvetica,sans-Serif" font-size="10.00">::Demodulator::parseTelemetry</text>
<text text-anchor="middle" x="415" y="-237" font-family="Helvetica,sans-Serif" font-size="10.00">Packet</text>
</a>
</g>
</g>
<!-- Node3&#45;&gt;Node4 -->
<g id="edge3" class="edge">
<title>Node3&#45;&gt;Node4</title>
<path fill="none" stroke="midnightblue" d="M524.86,-250.5C516.25,-250.5 507.58,-250.5 499.11,-250.5"/>
<polygon fill="midnightblue" stroke="midnightblue" points="524.93,-254 534.93,-250.5 524.93,-247 524.93,-254"/>
</g>
<!-- Node5 -->
<g id="node5" class="node">
<title>Node5</title>
<g id="a_node5"><a xlink:href="classsignal__easel_1_1aprs_1_1Receiver.html#adc3c303795edba521a1e55e454ba610d" target="_top" xlink:title="Categorises and stores a frame that has already been parsed by aprs_demodulator_ (i....">
<polygon fill="none" stroke="black" points="143,-254 143,-295 295,-295 295,-254 143,-254"/>
<text text-anchor="start" x="151" y="-283" font-family="Helvetica,sans-Serif" font-size="10.00">signal_easel::aprs</text>
<text text-anchor="start" x="151" y="-272" font-family="Helvetica,sans-Serif" font-size="10.00">::Receiver::processDecoded</text>
<text text-anchor="middle" x="219" y="-261" font-family="Helvetica,sans-Serif" font-size="10.00">Frame</text>
</a>
</g>
</g>
<!-- Node4&#45;&gt;Node5 -->
<g id="edge4" class="edge">
<title>Node4&#45;&gt;Node5</title>
<path fill="none" stroke="midnightblue" d="M320.85,-262.02C312.28,-263.08 303.67,-264.15 295.28,-265.19"/>
<polygon fill="midnightblue" stroke="midnightblue" points="321.39,-265.48 330.88,-260.78 320.53,-258.54 321.39,-265.48"/>
</g>
<!-- Node7 -->
<g id="node7" class="node">
<title>Node7</title>
<g id="a_node7"><a xlink:href="aprs__test_8cpp.html#a8de4b7853d7e8c5ad2bb05a656082327" target="_top" xlink:title=" ">
<polygon fill="none" stroke="black" points="198.5,-216 198.5,-235 239.5,-235 239.5,-216 198.5,-216"/>
<text text-anchor="middle" x="219" y="-223" font-family="Helvetica,sans-Serif" font-size="10.00">TEST</text>
</a>
</g>
</g>
<!-- Node4&#45;&gt;Node7 -->
<g id="edge6" class="edge">
<title>Node4&#45;&gt;Node7</title>
<path fill="none" stroke="midnightblue" d="M320.95,-238.51C290.25,-234.55 259.03,-230.53 239.6,-228.03"/>
<polygon fill="midnightblue" stroke="midnightblue" points="320.52,-241.98 330.88,-239.79 321.41,-235.04 320.52,-241.98"/>
</g>
<!-- Node6 -->
<g id="node6" class="node">
<title>Node6</title>
<g id="a_node6"><a xlink:href="classsignal__easel_1_1aprs_1_1Receiver.html#afbf7869aceaf2ea7ab0be8b9af16e818" target="_top" xlink:title=" ">
<polygon fill="none" stroke="black" points="0,-259.5 0,-289.5 107,-289.5 107,-259.5 0,-259.5"/>
<text text-anchor="start" x="8" y="-277.5" font-family="Helvetica,sans-Serif" font-size="10.00">signal_easel::aprs</text>
<text text-anchor="middle" x="53.5" y="-266.5" font-family="Helvetica,sans-Serif" font-size="10.00">::Receiver::decode</text>
</a>
</g>
</g>
<!-- Node5&#45;&gt;Node6 -->
<g id="edge5" class="edge">
<title>Node5&#45;&gt;Node6</title>
<path fill="none" stroke="midnightblue" d="M132.73,-274.5C124.02,-274.5 115.37,-274.5 107.16,-274.5"/>
<polygon fill="midnightblue" stroke="midnightblue" points="132.95,-278 142.95,-274.5 132.95,-271 132.95,-278"/>
</g>
<!-- Node9 -->
<g id="node9" class="node">
<title>Node9</title>
<g id="a_node9"><a xlink:href="classsignal__easel_1_1aprs_1_1telemetry_1_1AnalogParameter.html#a4fd035e5379315eaab869673edb0477a" target="_top" xlink:title="Set all coefficients in the formula y = ax^2 + bx + c.">
<polygon fill="none" stroke="black" points="543.5,-110 543.5,-151 703.5,-151 703.5,-110 543.5,-110"/>
<text text-anchor="start" x="551.5" y="-139" font-family="Helvetica,sans-Serif" font-size="10.00">signal_easel::aprs</text>
<text text-anchor="start" x="551.5" y="-128" font-family="Helvetica,sans-Serif" font-size="10.00">::telemetry::AnalogParameter</text>
<text text-anchor="middle" x="623.5" y="-117" font-family="Helvetica,sans-Serif" font-size="10.00">::setCoefficients</text>
</a>
</g>
</g>
<!-- Node8&#45;&gt;Node9 -->
<g id="edge8" class="edge">
<title>Node8&#45;&gt;Node9</title>
<path fill="none" stroke="midnightblue" d="M762.3,-93.67C742.21,-99.04 720.97,-104.72 701.35,-109.96"/>
<polygon fill="midnightblue" stroke="midnightblue" points="763.3,-97.03 772.05,-91.06 761.49,-90.27 763.3,-97.03"/>
</g>
<!-- Node11 -->
<g id="node11" class="node">
<title>Node11</title>
<g id="a_node11"><a xlink:href="aprs__telemetry__parameter__test_8cpp.html#a35cf05db9e0ef8d678cb9cce3c6e6b27" target="_top" xlink:title=" ">
<polygon fill="none" stroke="black" points="603,-61 603,-80 644,-80 644,-61 603,-61"/>
<text text-anchor="middle" x="623.5" y="-68" font-family="Helvetica,sans-Serif" font-size="10.00">TEST</text>
</a>
</g>
</g>
<!-- Node8&#45;&gt;Node11 -->
<g id="edge10" class="edge">
<title>Node8&#45;&gt;Node11</title>
<path fill="none" stroke="midnightblue" d="M759.73,-70.5C717.22,-70.5 670.12,-70.5 644.24,-70.5"/>
<polygon fill="midnightblue" stroke="midnightblue" points="759.85,-74 769.85,-70.5 759.85,-67 759.85,-74"/>
</g>
<!-- Node10 -->
<g id="node10" class="node">
<title>Node10</title>
<g id="a_node10"><a xlink:href="aprs__telemetry__parameter__test_8cpp.html#aa8357c93b7e821465e22baa9912ace89" target="_top" xlink:title=" ">
<polygon fill="none" stroke="black" points="394.5,-121 394.5,-140 435.5,-140 435.5,-121 394.5,-121"/>
<text text-anchor="middle" x="415" y="-128" font-family="Helvetica,sans-Serif" font-size="10.00">TEST</text>
</a>
</g>
</g>
<!-- Node9&#45;&gt;Node10 -->
<g id="edge9" class="edge">
<title>Node9&#45;&gt;Node10</title>
<path fill="none" stroke="midnightblue" d="M533.13,-130.5C496.98,-130.5 458.52,-130.5 435.91,-130.5"/>
<polygon fill="midnightblue" stroke="midnightblue" points="533.25,-134 543.25,-130.5 533.25,-127 533.25,-134"/>
</g>
<!-- Node12&#45;&gt;Node9 -->
<g id="edge12" class="edge">
<title>Node12&#45;&gt;Node9</title>
<path fill="none" stroke="midnightblue" d="M762.3,-167.33C742.21,-161.96 720.97,-156.28 701.35,-151.04"/>
<polygon fill="midnightblue" stroke="midnightblue" points="761.49,-170.73 772.05,-169.94 763.3,-163.97 761.49,-170.73"/>
</g>
<!-- Node13&#45;&gt;Node9 -->
<g id="edge14" class="edge">
<title>Node13&#45;&gt;Node9</title>
<path fill="none" stroke="midnightblue" d="M759.67,-130.5C741.17,-130.5 721.8,-130.5 703.69,-130.5"/>
<polygon fill="midnightblue" stroke="midnightblue" points="759.85,-134 769.85,-130.5 759.85,-127 759.85,-134"/>
</g>
</g>
</svg>
