<?xml version="1.0" encoding="UTF-8" standalone="no"?>
<!DOCTYPE svg PUBLIC "-//W3C//DTD SVG 1.1//EN"
 "http://www.w3.org/Graphics/SVG/1.1/DTD/svg11.dtd">
<!-- Generated by graphviz version 2.43.0 (0)
 -->
<!-- Title: signal_easel::ax25::reverseByte Pages: 1 -->
<svg width="749pt" height="124pt"
 viewBox="0.00 0.00 749.00 123.50" xmlns="http://www.w3.org/2000/svg" xmlns:xlink="http://www.w3.org/1999/xlink">
<g id="graph0" class="graph" transform="scale(1 1) rotate(0) translate(4 119.5)">
<title>signal_easel::ax25::reverseByte</title>
<!-- Node1 -->
<g id="node1" class="node">
<title>Node1</title>
<g id="a_node1"><a xlink:title="Reverse a byte.">
<polygon fill="#bfbfbf" stroke="black" points="634,-60 634,-90 741,-90 741,-60 634,-60"/>
<text text-anchor="start" x="642" y="-78" font-family="Helvetica,sans-Serif" font-size="10.00">signal_easel::ax25</text>
<text text-anchor="middle" x="687.5" y="-67" font-family="Helvetica,sans-Serif" font-size="10.00">::reverseByte</text>
</a>
</g>
</g>
<!-- Node2 -->
<g id="node2" class="node">
<title>Node2</title>
<g id="a_node2"><a xlink:href="classsignal__easel_1_1ax25_1_1Frame.html#a1389edfa566006427db42adfd700f37d" target="_top" xlink:title=" ">
<polygon fill="none" stroke="black" points="456,-85 456,-115 598,-115 598,-85 456,-85"/>
<text text-anchor="start" x="464" y="-103" font-family="Helvetica,sans-Serif" font-size="10.00">signal_easel::ax25</text>
<text text-anchor="middle" x="527" y="-92" font-family="Helvetica,sans-Serif" font-size="10.00">::Frame::addToBuildBuffer</text>
</a>
</g>
</g>
<!-- Node1&#45;&gt;Node2 -->
<g id="edge1" class="edge">
<title>Node1&#45;&gt;Node2</title>
<path fill="none" stroke="midnightblue" d="M623.62,-84.92C615.22,-86.24 606.55,-87.61 598.03,-88.95"/>
<polygon fill="midnightblue" stroke="midnightblue" points="624.39,-88.34 633.72,-83.32 623.3,-81.43 624.39,-88.34"/>
</g>
<!-- Node3 -->
<g id="node3" class="node">
<title>Node3</title>
<g id="a_node3"><a xlink:href="classsignal__easel_1_1ax25_1_1Frame.html#a2b4f6ebcb7592a7e5a21114c8fafa503" target="_top" xlink:title="A step beyond buildFrame. This function builds the frame, does the bit stuffing, adds the flags,...">
<polygon fill="none" stroke="black" points="464.5,-36 464.5,-66 589.5,-66 589.5,-36 464.5,-36"/>
<text text-anchor="start" x="472.5" y="-54" font-family="Helvetica,sans-Serif" font-size="10.00">signal_easel::ax25</text>
<text text-anchor="middle" x="527" y="-43" font-family="Helvetica,sans-Serif" font-size="10.00">::Frame::encodeFrame</text>
</a>
</g>
</g>
<!-- Node1&#45;&gt;Node3 -->
<g id="edge2" class="edge">
<title>Node1&#45;&gt;Node3</title>
<path fill="none" stroke="midnightblue" d="M623.6,-65.48C612.41,-63.78 600.76,-62.02 589.6,-60.33"/>
<polygon fill="midnightblue" stroke="midnightblue" points="623.31,-68.97 633.72,-67.01 624.36,-62.05 623.31,-68.97"/>
</g>
<!-- Node4 -->
<g id="node4" class="node">
<title>Node4</title>
<g id="a_node4"><a xlink:href="namespacesignal__easel.html#aad3ffdd47a4a03ed438e8c1ca9eef231" target="_top" xlink:title=" ">
<polygon fill="none" stroke="black" points="270,-41.5 270,-60.5 420,-60.5 420,-41.5 270,-41.5"/>
<text text-anchor="middle" x="345" y="-48.5" font-family="Helvetica,sans-Serif" font-size="10.00">signal_easel::encodePacket</text>
</a>
</g>
</g>
<!-- Node3&#45;&gt;Node4 -->
<g id="edge3" class="edge">
<title>Node3&#45;&gt;Node4</title>
<path fill="none" stroke="midnightblue" d="M454.14,-51C442.92,-51 431.31,-51 420.04,-51"/>
<polygon fill="midnightblue" stroke="midnightblue" points="454.31,-54.5 464.31,-51 454.31,-47.5 454.31,-54.5"/>
</g>
<!-- Node5 -->
<g id="node5" class="node">
<title>Node5</title>
<g id="a_node5"><a xlink:href="classsignal__easel_1_1aprs_1_1Modulator.html#a147321b48c2e282c62863f114702e54f" target="_top" xlink:title=" ">
<polygon fill="none" stroke="black" points="77,-60.5 77,-101.5 234,-101.5 234,-60.5 77,-60.5"/>
<text text-anchor="start" x="85" y="-89.5" font-family="Helvetica,sans-Serif" font-size="10.00">signal_easel::aprs</text>
<text text-anchor="start" x="85" y="-78.5" font-family="Helvetica,sans-Serif" font-size="10.00">::Modulator::encodeMessage</text>
<text text-anchor="middle" x="155.5" y="-67.5" font-family="Helvetica,sans-Serif" font-size="10.00">Packet</text>
</a>
</g>
</g>
<!-- Node4&#45;&gt;Node5 -->
<g id="edge4" class="edge">
<title>Node4&#45;&gt;Node5</title>
<path fill="none" stroke="midnightblue" d="M274.51,-62.12C261.35,-64.22 247.51,-66.44 234.13,-68.58"/>
<polygon fill="midnightblue" stroke="midnightblue" points="275.09,-65.57 284.42,-60.53 273.99,-58.66 275.09,-65.57"/>
</g>
<!-- Node7 -->
<g id="node7" class="node">
<title>Node7</title>
<g id="a_node7"><a xlink:href="classsignal__easel_1_1aprs_1_1Modulator.html#a943e392227656943d7db842e1889d805" target="_top" xlink:title=" ">
<polygon fill="none" stroke="black" points="79.5,-0.5 79.5,-41.5 231.5,-41.5 231.5,-0.5 79.5,-0.5"/>
<text text-anchor="start" x="87.5" y="-29.5" font-family="Helvetica,sans-Serif" font-size="10.00">signal_easel::aprs</text>
<text text-anchor="start" x="87.5" y="-18.5" font-family="Helvetica,sans-Serif" font-size="10.00">::Modulator::encodePosition</text>
<text text-anchor="middle" x="155.5" y="-7.5" font-family="Helvetica,sans-Serif" font-size="10.00">Packet</text>
</a>
</g>
</g>
<!-- Node4&#45;&gt;Node7 -->
<g id="edge6" class="edge">
<title>Node4&#45;&gt;Node7</title>
<path fill="none" stroke="midnightblue" d="M274.44,-39.87C260.53,-37.64 245.86,-35.3 231.77,-33.04"/>
<polygon fill="midnightblue" stroke="midnightblue" points="273.99,-43.34 284.42,-41.47 275.09,-36.43 273.99,-43.34"/>
</g>
<!-- Node6 -->
<g id="node6" class="node">
<title>Node6</title>
<g id="a_node6"><a xlink:href="aprs__test_8cpp.html#aea66d1824e3f1e27598adf99ac6a089a" target="_top" xlink:title=" ">
<polygon fill="none" stroke="black" points="0,-71.5 0,-90.5 41,-90.5 41,-71.5 0,-71.5"/>
<text text-anchor="middle" x="20.5" y="-78.5" font-family="Helvetica,sans-Serif" font-size="10.00">TEST</text>
</a>
</g>
</g>
<!-- Node5&#45;&gt;Node6 -->
<g id="edge5" class="edge">
<title>Node5&#45;&gt;Node6</title>
<path fill="none" stroke="midnightblue" d="M66.71,-81C57.26,-81 48.45,-81 41.16,-81"/>
<polygon fill="midnightblue" stroke="midnightblue" points="66.75,-84.5 76.75,-81 66.75,-77.5 66.75,-84.5"/>
</g>
</g>
</svg>
