<?xml version="1.0" encoding="UTF-8" standalone="no"?>
<!DOCTYPE svg PUBLIC "-//W3C//DTD SVG 1.1//EN"
 "http://www.w3.org/Graphics/SVG/1.1/DTD/svg11.dtd">
<!-- Generated by graphviz version 2.43.0 (0)
 -->
<!-- Title: signal_easel::aprs::encodePacket Pages: 1 -->
<svg width="1176pt" height="431pt"
 viewBox="0.00 0.00 1176.00 431.00" xmlns="http://www.w3.org/2000/svg" xmlns:xlink="http://www.w3.org/1999/xlink">
<g id="graph0" class="graph" transform="scale(1 1) rotate(0) translate(4 427)">
<title>signal_easel::aprs::encodePacket</title>
<!-- Node1 -->
<g id="node1" class="node">
<title>Node1</title>
<g id="a_node1"><a xlink:title=" ">
<polygon fill="#bfbfbf" stroke="black" points="0,-171.5 0,-201.5 104,-201.5 104,-171.5 0,-171.5"/>
<text text-anchor="start" x="8" y="-189.5" font-family="Helvetica,sans-Serif" font-size="10.00">signal_easel::aprs</text>
<text text-anchor="middle" x="52" y="-178.5" font-family="Helvetica,sans-Serif" font-size="10.00">::encodePacket</text>
</a>
</g>
</g>
<!-- Node2 -->
<g id="node2" class="node">
<title>Node2</title>
<g id="a_node2"><a xlink:href="namespacesignal__easel_1_1aprs.html#a586b022fa0c917fa8557bbd5cdc6aeeb" target="_top" xlink:title=" ">
<polygon fill="none" stroke="black" points="316.5,-338.5 316.5,-368.5 429.5,-368.5 429.5,-338.5 316.5,-338.5"/>
<text text-anchor="start" x="324.5" y="-356.5" font-family="Helvetica,sans-Serif" font-size="10.00">signal_easel::aprs</text>
<text text-anchor="middle" x="373" y="-345.5" font-family="Helvetica,sans-Serif" font-size="10.00">::AddRequiredFields</text>
</a>
</g>
</g>
<!-- Node1&#45;&gt;Node2 -->
<g id="edge1" class="edge">
<title>Node1&#45;&gt;Node2</title>
<path fill="none" stroke="midnightblue" d="M81.87,-201.61C139.61,-231.84 269.31,-299.74 333.92,-333.56"/>
<polygon fill="midnightblue" stroke="midnightblue" points="332.48,-336.76 342.96,-338.3 335.73,-330.56 332.48,-336.76"/>
</g>
<!-- Node10 -->
<g id="node10" class="node">
<title>Node10</title>
<g id="a_node10"><a xlink:href="classsignal__easel_1_1ax25_1_1Frame.html#a2b4f6ebcb7592a7e5a21114c8fafa503" target="_top" xlink:title="A step beyond buildFrame. This function builds the frame, does the bit stuffing, adds the flags,...">
<polygon fill="none" stroke="black" points="143,-171.5 143,-201.5 268,-201.5 268,-171.5 143,-171.5"/>
<text text-anchor="start" x="151" y="-189.5" font-family="Helvetica,sans-Serif" font-size="10.00">signal_easel::ax25</text>
<text text-anchor="middle" x="205.5" y="-178.5" font-family="Helvetica,sans-Serif" font-size="10.00">::Frame::encodeFrame</text>
</a>
</g>
</g>
<!-- Node1&#45;&gt;Node10 -->
<g id="edge10" class="edge">
<title>Node1&#45;&gt;Node10</title>
<path fill="none" stroke="midnightblue" d="M104.29,-186.5C113.37,-186.5 122.97,-186.5 132.5,-186.5"/>
<polygon fill="midnightblue" stroke="midnightblue" points="132.77,-190 142.77,-186.5 132.77,-183 132.77,-190"/>
</g>
<!-- Node24 -->
<g id="node24" class="node">
<title>Node24</title>
<g id="a_node24"><a xlink:href="classsignal__easel_1_1ax25_1_1Frame.html#afc5c722b419621f2a4dccbe2208faea1" target="_top" xlink:title=" ">
<polygon fill="none" stroke="black" points="140,-122.5 140,-152.5 271,-152.5 271,-122.5 140,-122.5"/>
<text text-anchor="start" x="148" y="-140.5" font-family="Helvetica,sans-Serif" font-size="10.00">signal_easel::ax25</text>
<text text-anchor="middle" x="205.5" y="-129.5" font-family="Helvetica,sans-Serif" font-size="10.00">::Frame::setInformation</text>
</a>
</g>
</g>
<!-- Node1&#45;&gt;Node24 -->
<g id="edge28" class="edge">
<title>Node1&#45;&gt;Node24</title>
<path fill="none" stroke="midnightblue" d="M99.69,-171.4C115.03,-166.44 132.24,-160.87 148.21,-155.71"/>
<polygon fill="midnightblue" stroke="midnightblue" points="149.53,-158.96 157.96,-152.55 147.37,-152.3 149.53,-158.96"/>
</g>
<!-- Node3 -->
<g id="node3" class="node">
<title>Node3</title>
<g id="a_node3"><a xlink:href="namespacesignal__easel_1_1aprs.html#ae16006b4c75ab6423ad8b90ea814a14f" target="_top" xlink:title=" ">
<polygon fill="none" stroke="black" points="506.5,-392.5 506.5,-422.5 613.5,-422.5 613.5,-392.5 506.5,-392.5"/>
<text text-anchor="start" x="514.5" y="-410.5" font-family="Helvetica,sans-Serif" font-size="10.00">signal_easel::aprs</text>
<text text-anchor="middle" x="560" y="-399.5" font-family="Helvetica,sans-Serif" font-size="10.00">::CheckPacketData</text>
</a>
</g>
</g>
<!-- Node2&#45;&gt;Node3 -->
<g id="edge2" class="edge">
<title>Node2&#45;&gt;Node3</title>
<path fill="none" stroke="midnightblue" d="M425.53,-368.54C447.89,-375.07 474.25,-382.76 497.61,-389.58"/>
<polygon fill="midnightblue" stroke="midnightblue" points="496.84,-393 507.42,-392.45 498.8,-386.28 496.84,-393"/>
</g>
<!-- Node4 -->
<g id="node4" class="node">
<title>Node4</title>
<g id="a_node4"><a xlink:href="classsignal__easel_1_1ax25_1_1Frame.html#a57b163ece54317da8d95f3b18b47c23d" target="_top" xlink:title="setters/getters for the frame.">
<polygon fill="none" stroke="black" points="475,-343.5 475,-373.5 645,-373.5 645,-343.5 475,-343.5"/>
<text text-anchor="start" x="483" y="-361.5" font-family="Helvetica,sans-Serif" font-size="10.00">signal_easel::ax25</text>
<text text-anchor="middle" x="560" y="-350.5" font-family="Helvetica,sans-Serif" font-size="10.00">::Frame::setDestinationAddress</text>
</a>
</g>
</g>
<!-- Node2&#45;&gt;Node4 -->
<g id="edge3" class="edge">
<title>Node2&#45;&gt;Node4</title>
<path fill="none" stroke="midnightblue" d="M429.51,-355C440.65,-355.3 452.65,-355.63 464.69,-355.95"/>
<polygon fill="midnightblue" stroke="midnightblue" points="464.7,-359.45 474.79,-356.22 464.89,-352.46 464.7,-359.45"/>
</g>
<!-- Node9 -->
<g id="node9" class="node">
<title>Node9</title>
<g id="a_node9"><a xlink:href="classsignal__easel_1_1ax25_1_1Frame.html#a402d26a81f82bb5c477e8930b75a771e" target="_top" xlink:title=" ">
<polygon fill="none" stroke="black" points="487,-294.5 487,-324.5 633,-324.5 633,-294.5 487,-294.5"/>
<text text-anchor="start" x="495" y="-312.5" font-family="Helvetica,sans-Serif" font-size="10.00">signal_easel::ax25</text>
<text text-anchor="middle" x="560" y="-301.5" font-family="Helvetica,sans-Serif" font-size="10.00">::Frame::setSourceAddress</text>
</a>
</g>
</g>
<!-- Node2&#45;&gt;Node9 -->
<g id="edge8" class="edge">
<title>Node2&#45;&gt;Node9</title>
<path fill="none" stroke="midnightblue" d="M429.51,-340.3C447.19,-336.09 467.03,-331.37 485.77,-326.92"/>
<polygon fill="midnightblue" stroke="midnightblue" points="486.83,-330.26 495.75,-324.54 485.21,-323.45 486.83,-330.26"/>
</g>
<!-- Node5 -->
<g id="node5" class="node">
<title>Node5</title>
<g id="a_node5"><a xlink:href="classsignal__easel_1_1ax25_1_1Address.html#a7fa6b0ef4241413893f201660991e4ea" target="_top" xlink:title="Checks if the address is valid, if not throws an exception with a specific error code.">
<polygon fill="none" stroke="black" points="681,-291.5 681,-321.5 811,-321.5 811,-291.5 681,-291.5"/>
<text text-anchor="start" x="689" y="-309.5" font-family="Helvetica,sans-Serif" font-size="10.00">signal_easel::ax25</text>
<text text-anchor="middle" x="746" y="-298.5" font-family="Helvetica,sans-Serif" font-size="10.00">::Address::assertIsValid</text>
</a>
</g>
</g>
<!-- Node4&#45;&gt;Node5 -->
<g id="edge4" class="edge">
<title>Node4&#45;&gt;Node5</title>
<path fill="none" stroke="midnightblue" d="M614.22,-343.46C635.49,-337.45 660.13,-330.48 682.26,-324.23"/>
<polygon fill="midnightblue" stroke="midnightblue" points="683.23,-327.59 691.9,-321.51 681.32,-320.86 683.23,-327.59"/>
</g>
<!-- Node6 -->
<g id="node6" class="node">
<title>Node6</title>
<g id="a_node6"><a xlink:href="classsignal__easel_1_1ax25_1_1Address.html#af34b361f739b7995e7816b7a04465828" target="_top" xlink:title=" ">
<polygon fill="none" stroke="black" points="847,-286 847,-327 1012,-327 1012,-286 847,-286"/>
<text text-anchor="start" x="855" y="-315" font-family="Helvetica,sans-Serif" font-size="10.00">signal_easel::ax25</text>
<text text-anchor="start" x="855" y="-304" font-family="Helvetica,sans-Serif" font-size="10.00">::Address::assertAddressString</text>
<text text-anchor="middle" x="929.5" y="-293" font-family="Helvetica,sans-Serif" font-size="10.00">IsValid</text>
</a>
</g>
</g>
<!-- Node5&#45;&gt;Node6 -->
<g id="edge5" class="edge">
<title>Node5&#45;&gt;Node6</title>
<path fill="none" stroke="midnightblue" d="M811.25,-306.5C819.53,-306.5 828.13,-306.5 836.75,-306.5"/>
<polygon fill="midnightblue" stroke="midnightblue" points="836.85,-310 846.85,-306.5 836.85,-303 836.85,-310"/>
</g>
<!-- Node7 -->
<g id="node7" class="node">
<title>Node7</title>
<g id="a_node7"><a xlink:href="classsignal__easel_1_1ax25_1_1Address.html#a8b44c6e311d3462bd86eda03c1d384f0" target="_top" xlink:title=" ">
<polygon fill="none" stroke="black" points="854.5,-233.5 854.5,-263.5 1004.5,-263.5 1004.5,-233.5 854.5,-233.5"/>
<text text-anchor="start" x="862.5" y="-251.5" font-family="Helvetica,sans-Serif" font-size="10.00">signal_easel::ax25</text>
<text text-anchor="middle" x="929.5" y="-240.5" font-family="Helvetica,sans-Serif" font-size="10.00">::Address::assertSsidIsValid</text>
</a>
</g>
</g>
<!-- Node5&#45;&gt;Node7 -->
<g id="edge6" class="edge">
<title>Node5&#45;&gt;Node7</title>
<path fill="none" stroke="midnightblue" d="M794.21,-291.41C817.95,-283.83 846.9,-274.58 871.83,-266.61"/>
<polygon fill="midnightblue" stroke="midnightblue" points="873.06,-269.89 881.52,-263.51 870.93,-263.22 873.06,-269.89"/>
</g>
<!-- Node8 -->
<g id="node8" class="node">
<title>Node8</title>
<g id="a_node8"><a xlink:href="classsignal__easel_1_1ax25_1_1Address.html#ad66c149737cc4aa52ae9e8860176acf3" target="_top" xlink:title=" ">
<polygon fill="none" stroke="black" points="1048,-208.5 1048,-238.5 1168,-238.5 1168,-208.5 1048,-208.5"/>
<text text-anchor="start" x="1056" y="-226.5" font-family="Helvetica,sans-Serif" font-size="10.00">signal_easel::ax25</text>
<text text-anchor="middle" x="1108" y="-215.5" font-family="Helvetica,sans-Serif" font-size="10.00">::Address::isSsidValid</text>
</a>
</g>
</g>
<!-- Node7&#45;&gt;Node8 -->
<g id="edge7" class="edge">
<title>Node7&#45;&gt;Node8</title>
<path fill="none" stroke="midnightblue" d="M1004.58,-238.01C1015.64,-236.44 1026.99,-234.83 1037.93,-233.28"/>
<polygon fill="midnightblue" stroke="midnightblue" points="1038.43,-236.75 1047.84,-231.88 1037.45,-229.82 1038.43,-236.75"/>
</g>
<!-- Node9&#45;&gt;Node5 -->
<g id="edge9" class="edge">
<title>Node9&#45;&gt;Node5</title>
<path fill="none" stroke="midnightblue" d="M633.19,-308.32C645.46,-308.12 658.23,-307.91 670.56,-307.71"/>
<polygon fill="midnightblue" stroke="midnightblue" points="670.85,-311.21 680.79,-307.55 670.73,-304.21 670.85,-311.21"/>
</g>
<!-- Node11 -->
<g id="node11" class="node">
<title>Node11</title>
<g id="a_node11"><a xlink:href="classsignal__easel_1_1BitStream.html#a9df75eb28c03717c9fad2d30a85de6e6" target="_top" xlink:title=" ">
<polygon fill="none" stroke="black" points="494,-245.5 494,-275.5 626,-275.5 626,-245.5 494,-245.5"/>
<text text-anchor="start" x="502" y="-263.5" font-family="Helvetica,sans-Serif" font-size="10.00">signal_easel::BitStream</text>
<text text-anchor="middle" x="560" y="-252.5" font-family="Helvetica,sans-Serif" font-size="10.00">::addBits</text>
</a>
</g>
</g>
<!-- Node10&#45;&gt;Node11 -->
<g id="edge11" class="edge">
<title>Node10&#45;&gt;Node11</title>
<path fill="none" stroke="midnightblue" d="M216.28,-201.76C232.09,-224.84 265.69,-267.69 307,-284.5 361.34,-306.61 380.62,-290.28 439,-284.5 454.26,-282.99 470.46,-280.42 485.85,-277.51"/>
<polygon fill="midnightblue" stroke="midnightblue" points="486.69,-280.92 495.83,-275.56 485.34,-274.05 486.69,-280.92"/>
</g>
<!-- Node12 -->
<g id="node12" class="node">
<title>Node12</title>
<g id="a_node12"><a xlink:href="classsignal__easel_1_1BitStream.html#a81d4aea4c11f65e0c2b7ad2f0f0cc312" target="_top" xlink:title=" ">
<polygon fill="none" stroke="black" points="307,-245.5 307,-275.5 439,-275.5 439,-245.5 307,-245.5"/>
<text text-anchor="start" x="315" y="-263.5" font-family="Helvetica,sans-Serif" font-size="10.00">signal_easel::BitStream</text>
<text text-anchor="middle" x="373" y="-252.5" font-family="Helvetica,sans-Serif" font-size="10.00">::addOneBit</text>
</a>
</g>
</g>
<!-- Node10&#45;&gt;Node12 -->
<g id="edge12" class="edge">
<title>Node10&#45;&gt;Node12</title>
<path fill="none" stroke="midnightblue" d="M235.65,-201.54C255.55,-211.6 282.61,-224.89 307,-235.5 311.73,-237.56 316.69,-239.62 321.67,-241.64"/>
<polygon fill="midnightblue" stroke="midnightblue" points="320.63,-244.99 331.21,-245.43 323.21,-238.49 320.63,-244.99"/>
</g>
<!-- Node13 -->
<g id="node13" class="node">
<title>Node13</title>
<g id="a_node13"><a xlink:href="classsignal__easel_1_1BitStream.html#abb315beec8c4d88115d9d4ec5f082863" target="_top" xlink:title=" ">
<polygon fill="none" stroke="black" points="307,-196.5 307,-226.5 439,-226.5 439,-196.5 307,-196.5"/>
<text text-anchor="start" x="315" y="-214.5" font-family="Helvetica,sans-Serif" font-size="10.00">signal_easel::BitStream</text>
<text text-anchor="middle" x="373" y="-203.5" font-family="Helvetica,sans-Serif" font-size="10.00">::addZeroBit</text>
</a>
</g>
</g>
<!-- Node10&#45;&gt;Node13 -->
<g id="edge14" class="edge">
<title>Node10&#45;&gt;Node13</title>
<path fill="none" stroke="midnightblue" d="M268.13,-195.81C277.54,-197.23 287.34,-198.71 297,-200.17"/>
<polygon fill="midnightblue" stroke="midnightblue" points="296.59,-203.65 307,-201.68 297.63,-196.73 296.59,-203.65"/>
</g>
<!-- Node14 -->
<g id="node14" class="node">
<title>Node14</title>
<g id="a_node14"><a xlink:href="classsignal__easel_1_1ax25_1_1Frame.html#a24e7d5ffc6504a3380e97142d1bc084e" target="_top" xlink:title="Builds all internal portions of the frame. Doesn&#39;t include the flags.">
<polygon fill="none" stroke="black" points="316,-147.5 316,-177.5 430,-177.5 430,-147.5 316,-147.5"/>
<text text-anchor="start" x="324" y="-165.5" font-family="Helvetica,sans-Serif" font-size="10.00">signal_easel::ax25</text>
<text text-anchor="middle" x="373" y="-154.5" font-family="Helvetica,sans-Serif" font-size="10.00">::Frame::buildFrame</text>
</a>
</g>
</g>
<!-- Node10&#45;&gt;Node14 -->
<g id="edge16" class="edge">
<title>Node10&#45;&gt;Node14</title>
<path fill="none" stroke="midnightblue" d="M268.13,-177.56C280.33,-175.79 293.19,-173.93 305.55,-172.14"/>
<polygon fill="midnightblue" stroke="midnightblue" points="306.39,-175.55 315.79,-170.65 305.39,-168.62 306.39,-175.55"/>
</g>
<!-- Node21 -->
<g id="node21" class="node">
<title>Node21</title>
<g id="a_node21"><a xlink:href="classsignal__easel_1_1BitStream.html#aa97152ef51f73088e103a7951134aa85" target="_top" xlink:title=" ">
<polygon fill="none" stroke="black" points="307,-98.5 307,-128.5 439,-128.5 439,-98.5 307,-98.5"/>
<text text-anchor="start" x="315" y="-116.5" font-family="Helvetica,sans-Serif" font-size="10.00">signal_easel::BitStream</text>
<text text-anchor="middle" x="373" y="-105.5" font-family="Helvetica,sans-Serif" font-size="10.00">::getBitStreamLength</text>
</a>
</g>
</g>
<!-- Node10&#45;&gt;Node21 -->
<g id="edge25" class="edge">
<title>Node10&#45;&gt;Node21</title>
<path fill="none" stroke="midnightblue" d="M249.41,-171.38C256.74,-168.38 264.18,-165.04 271,-161.5 288.07,-152.64 289.86,-146.22 307,-137.5 310.46,-135.74 314.08,-134.04 317.76,-132.42"/>
<polygon fill="midnightblue" stroke="midnightblue" points="319.13,-135.64 327,-128.54 316.43,-129.18 319.13,-135.64"/>
</g>
<!-- Node22 -->
<g id="node22" class="node">
<title>Node22</title>
<g id="a_node22"><a xlink:href="classsignal__easel_1_1BitStream.html#a5b5339586e09ca5c25a7e9ded0118ffb" target="_top" xlink:title="Returns the next bit of the bit stream that will be encoded.">
<polygon fill="none" stroke="black" points="307,-49.5 307,-79.5 439,-79.5 439,-49.5 307,-49.5"/>
<text text-anchor="start" x="315" y="-67.5" font-family="Helvetica,sans-Serif" font-size="10.00">signal_easel::BitStream</text>
<text text-anchor="middle" x="373" y="-56.5" font-family="Helvetica,sans-Serif" font-size="10.00">::popNextBit</text>
</a>
</g>
</g>
<!-- Node10&#45;&gt;Node22 -->
<g id="edge26" class="edge">
<title>Node10&#45;&gt;Node22</title>
<path fill="none" stroke="midnightblue" d="M256.95,-171.34C262.03,-168.57 266.84,-165.31 271,-161.5 297.68,-137.08 280.12,-112.71 307,-88.5 308.32,-87.31 309.71,-86.18 311.14,-85.1"/>
<polygon fill="midnightblue" stroke="midnightblue" points="313.34,-87.85 319.87,-79.51 309.56,-81.96 313.34,-87.85"/>
</g>
<!-- Node23 -->
<g id="node23" class="node">
<title>Node23</title>
<g id="a_node23"><a xlink:href="namespacesignal__easel_1_1ax25.html#a56c64a06f2dc7d2d270c32e1063400ae" target="_top" xlink:title="Reverse a byte.">
<polygon fill="none" stroke="black" points="319.5,-0.5 319.5,-30.5 426.5,-30.5 426.5,-0.5 319.5,-0.5"/>
<text text-anchor="start" x="327.5" y="-18.5" font-family="Helvetica,sans-Serif" font-size="10.00">signal_easel::ax25</text>
<text text-anchor="middle" x="373" y="-7.5" font-family="Helvetica,sans-Serif" font-size="10.00">::reverseByte</text>
</a>
</g>
</g>
<!-- Node10&#45;&gt;Node23 -->
<g id="edge27" class="edge">
<title>Node10&#45;&gt;Node23</title>
<path fill="none" stroke="midnightblue" d="M258.58,-171.46C263.17,-168.68 267.42,-165.39 271,-161.5 309.29,-119.9 268.38,-80.79 307,-39.5 308.21,-38.2 309.51,-36.97 310.86,-35.81"/>
<polygon fill="midnightblue" stroke="midnightblue" points="313.11,-38.5 319.22,-29.85 309.05,-32.8 313.11,-38.5"/>
</g>
<!-- Node12&#45;&gt;Node11 -->
<g id="edge13" class="edge">
<title>Node12&#45;&gt;Node11</title>
<path fill="none" stroke="midnightblue" d="M439.22,-260.5C453.59,-260.5 468.93,-260.5 483.66,-260.5"/>
<polygon fill="midnightblue" stroke="midnightblue" points="483.74,-264 493.74,-260.5 483.74,-257 483.74,-264"/>
</g>
<!-- Node13&#45;&gt;Node11 -->
<g id="edge15" class="edge">
<title>Node13&#45;&gt;Node11</title>
<path fill="none" stroke="midnightblue" d="M430.76,-226.53C450.3,-231.71 472.34,-237.55 492.58,-242.91"/>
<polygon fill="midnightblue" stroke="midnightblue" points="491.78,-246.32 502.34,-245.49 493.57,-239.55 491.78,-246.32"/>
</g>
<!-- Node15 -->
<g id="node15" class="node">
<title>Node15</title>
<g id="a_node15"><a xlink:href="namespacesignal__easel_1_1ax25.html#a6d799107f96d783e620cd508488ab8eb" target="_top" xlink:title="Calculate the Frame Check Sequence (FCS) on a vector of bytes.">
<polygon fill="none" stroke="black" points="506.5,-196.5 506.5,-226.5 613.5,-226.5 613.5,-196.5 506.5,-196.5"/>
<text text-anchor="start" x="514.5" y="-214.5" font-family="Helvetica,sans-Serif" font-size="10.00">signal_easel::ax25</text>
<text text-anchor="middle" x="560" y="-203.5" font-family="Helvetica,sans-Serif" font-size="10.00">::calculateFcs</text>
</a>
</g>
</g>
<!-- Node14&#45;&gt;Node15 -->
<g id="edge17" class="edge">
<title>Node14&#45;&gt;Node15</title>
<path fill="none" stroke="midnightblue" d="M430.01,-177.33C451.04,-182.9 475.06,-189.27 496.63,-194.98"/>
<polygon fill="midnightblue" stroke="midnightblue" points="495.78,-198.38 506.35,-197.55 497.58,-191.61 495.78,-198.38"/>
</g>
<!-- Node16 -->
<g id="node16" class="node">
<title>Node16</title>
<g id="a_node16"><a xlink:href="classsignal__easel_1_1ax25_1_1Address.html#a0c31737081a9184b56dc32150b23cb0a" target="_top" xlink:title="Get the address as a byte array.">
<polygon fill="none" stroke="black" points="489,-147.5 489,-177.5 631,-177.5 631,-147.5 489,-147.5"/>
<text text-anchor="start" x="497" y="-165.5" font-family="Helvetica,sans-Serif" font-size="10.00">signal_easel::ax25</text>
<text text-anchor="middle" x="560" y="-154.5" font-family="Helvetica,sans-Serif" font-size="10.00">::Address::encodeAddress</text>
</a>
</g>
</g>
<!-- Node14&#45;&gt;Node16 -->
<g id="edge18" class="edge">
<title>Node14&#45;&gt;Node16</title>
<path fill="none" stroke="midnightblue" d="M430.01,-162.5C445.33,-162.5 462.25,-162.5 478.65,-162.5"/>
<polygon fill="midnightblue" stroke="midnightblue" points="478.77,-166 488.77,-162.5 478.77,-159 478.77,-166"/>
</g>
<!-- Node17 -->
<g id="node17" class="node">
<title>Node17</title>
<g id="a_node17"><a xlink:href="classsignal__easel_1_1ax25_1_1Frame.html#a640edeabbda34e78cc243e3561747bf9" target="_top" xlink:title=" ">
<polygon fill="none" stroke="black" points="499,-98.5 499,-128.5 621,-128.5 621,-98.5 499,-98.5"/>
<text text-anchor="start" x="507" y="-116.5" font-family="Helvetica,sans-Serif" font-size="10.00">signal_easel::ax25</text>
<text text-anchor="middle" x="560" y="-105.5" font-family="Helvetica,sans-Serif" font-size="10.00">::Frame::isFrameValid</text>
</a>
</g>
</g>
<!-- Node14&#45;&gt;Node17 -->
<g id="edge20" class="edge">
<title>Node14&#45;&gt;Node17</title>
<path fill="none" stroke="midnightblue" d="M430.01,-147.67C449.66,-142.46 471.92,-136.56 492.36,-131.15"/>
<polygon fill="midnightblue" stroke="midnightblue" points="493.45,-134.48 502.22,-128.54 491.66,-127.72 493.45,-134.48"/>
</g>
<!-- Node20 -->
<g id="node20" class="node">
<title>Node20</title>
<g id="a_node20"><a xlink:href="classsignal__easel_1_1ax25_1_1Address.html#a1a5bc573535cfc1f8723c121e3451e7c" target="_top" xlink:title="Set the as the last address in the AX.25 frame (Sets a bit in the ssid byte)">
<polygon fill="none" stroke="black" points="485,-49.5 485,-79.5 635,-79.5 635,-49.5 485,-49.5"/>
<text text-anchor="start" x="493" y="-67.5" font-family="Helvetica,sans-Serif" font-size="10.00">signal_easel::ax25</text>
<text text-anchor="middle" x="560" y="-56.5" font-family="Helvetica,sans-Serif" font-size="10.00">::Address::setIsLastAddress</text>
</a>
</g>
</g>
<!-- Node14&#45;&gt;Node20 -->
<g id="edge24" class="edge">
<title>Node14&#45;&gt;Node20</title>
<path fill="none" stroke="midnightblue" d="M422.52,-147.44C428.35,-144.61 434,-141.32 439,-137.5 460.48,-121.1 452.82,-103.93 475,-88.5 477.26,-86.93 479.62,-85.46 482.05,-84.09"/>
<polygon fill="midnightblue" stroke="midnightblue" points="483.78,-87.14 491.15,-79.53 480.64,-80.88 483.78,-87.14"/>
</g>
<!-- Node16&#45;&gt;Node5 -->
<g id="edge19" class="edge">
<title>Node16&#45;&gt;Node5</title>
<path fill="none" stroke="midnightblue" d="M628.2,-177.67C634.09,-180.18 639.79,-183.11 645,-186.5 683.22,-211.39 714.38,-255.36 731.26,-282.61"/>
<polygon fill="midnightblue" stroke="midnightblue" points="728.46,-284.74 736.62,-291.49 734.45,-281.12 728.46,-284.74"/>
</g>
<!-- Node18 -->
<g id="node18" class="node">
<title>Node18</title>
<g id="a_node18"><a xlink:href="classsignal__easel_1_1ax25_1_1Address.html#aae81920cfd0dc7d89cb107f9d825488c" target="_top" xlink:title="If the address is valid (can be encoded correctly or was decoded)">
<polygon fill="none" stroke="black" points="692.5,-122.5 692.5,-152.5 799.5,-152.5 799.5,-122.5 692.5,-122.5"/>
<text text-anchor="start" x="700.5" y="-140.5" font-family="Helvetica,sans-Serif" font-size="10.00">signal_easel::ax25</text>
<text text-anchor="middle" x="746" y="-129.5" font-family="Helvetica,sans-Serif" font-size="10.00">::Address::isValid</text>
</a>
</g>
</g>
<!-- Node17&#45;&gt;Node18 -->
<g id="edge21" class="edge">
<title>Node17&#45;&gt;Node18</title>
<path fill="none" stroke="midnightblue" d="M621.25,-121.36C640.79,-123.91 662.52,-126.74 682.24,-129.31"/>
<polygon fill="midnightblue" stroke="midnightblue" points="681.99,-132.81 692.35,-130.63 682.89,-125.87 681.99,-132.81"/>
</g>
<!-- Node18&#45;&gt;Node8 -->
<g id="edge23" class="edge">
<title>Node18&#45;&gt;Node8</title>
<path fill="none" stroke="midnightblue" d="M794.34,-152.54C810.92,-157.59 829.71,-163.05 847,-167.5 911.28,-184.04 985.34,-199.66 1037.93,-210.18"/>
<polygon fill="midnightblue" stroke="midnightblue" points="1037.34,-213.63 1047.83,-212.15 1038.7,-206.76 1037.34,-213.63"/>
</g>
<!-- Node19 -->
<g id="node19" class="node">
<title>Node19</title>
<g id="a_node19"><a xlink:href="classsignal__easel_1_1ax25_1_1Address.html#a56c55b48bfc809a33aa0e22a5aeb95ca" target="_top" xlink:title=" ">
<polygon fill="none" stroke="black" points="858,-117 858,-158 1001,-158 1001,-117 858,-117"/>
<text text-anchor="start" x="866" y="-146" font-family="Helvetica,sans-Serif" font-size="10.00">signal_easel::ax25</text>
<text text-anchor="start" x="866" y="-135" font-family="Helvetica,sans-Serif" font-size="10.00">::Address::isAddressString</text>
<text text-anchor="middle" x="929.5" y="-124" font-family="Helvetica,sans-Serif" font-size="10.00">Valid</text>
</a>
</g>
</g>
<!-- Node18&#45;&gt;Node19 -->
<g id="edge22" class="edge">
<title>Node18&#45;&gt;Node19</title>
<path fill="none" stroke="midnightblue" d="M799.99,-137.5C814.98,-137.5 831.64,-137.5 847.87,-137.5"/>
<polygon fill="midnightblue" stroke="midnightblue" points="847.89,-141 857.89,-137.5 847.89,-134 847.89,-141"/>
</g>
</g>
</svg>
