<?xml version="1.0" encoding="UTF-8" standalone="no"?>
<!DOCTYPE svg PUBLIC "-//W3C//DTD SVG 1.1//EN"
 "http://www.w3.org/Graphics/SVG/1.1/DTD/svg11.dtd">
<!-- Generated by graphviz version 2.43.0 (0)
 -->
<!-- Title: signal_easel::ax25::findStartFlags Pages: 1 -->
<svg width="283pt" height="186pt"
 viewBox="0.00 0.00 283.00 186.00" xmlns="http://www.w3.org/2000/svg" xmlns:xlink="http://www.w3.org/1999/xlink">
<g id="graph0" class="graph" transform="scale(1 1) rotate(0) translate(4 182)">
<title>signal_easel::ax25::findStartFlags</title>
<!-- Node1 -->
<g id="node1" class="node">
<title>Node1</title>
<g id="a_node1"><a xlink:title="Finds the start flags in the bit stream and removes them.">
<polygon fill="#bfbfbf" stroke="black" points="0,-73.5 0,-103.5 107,-103.5 107,-73.5 0,-73.5"/>
<text text-anchor="start" x="8" y="-91.5" font-family="Helvetica,sans-Serif" font-size="10.00">signal_easel::ax25</text>
<text text-anchor="middle" x="53.5" y="-80.5" font-family="Helvetica,sans-Serif" font-size="10.00">::findStartFlags</text>
</a>
</g>
</g>
<!-- Node2 -->
<g id="node2" class="node">
<title>Node2</title>
<g id="a_node2"><a xlink:href="classsignal__easel_1_1BitStream.html#aa97152ef51f73088e103a7951134aa85" target="_top" xlink:title=" ">
<polygon fill="none" stroke="black" points="143,-147.5 143,-177.5 275,-177.5 275,-147.5 143,-147.5"/>
<text text-anchor="start" x="151" y="-165.5" font-family="Helvetica,sans-Serif" font-size="10.00">signal_easel::BitStream</text>
<text text-anchor="middle" x="209" y="-154.5" font-family="Helvetica,sans-Serif" font-size="10.00">::getBitStreamLength</text>
</a>
</g>
</g>
<!-- Node1&#45;&gt;Node2 -->
<g id="edge1" class="edge">
<title>Node1&#45;&gt;Node2</title>
<path fill="none" stroke="midnightblue" d="M78.74,-103.6C96.22,-114.13 120.58,-128.11 143,-138.5 146.81,-140.26 150.78,-141.99 154.81,-143.66"/>
<polygon fill="midnightblue" stroke="midnightblue" points="153.66,-146.97 164.25,-147.44 156.27,-140.48 153.66,-146.97"/>
</g>
<!-- Node3 -->
<g id="node3" class="node">
<title>Node3</title>
<g id="a_node3"><a xlink:href="classsignal__easel_1_1BitStream.html#a2c744d357c9a6fb449fed550770e56f3" target="_top" xlink:title=" ">
<polygon fill="none" stroke="black" points="143,-98.5 143,-128.5 275,-128.5 275,-98.5 143,-98.5"/>
<text text-anchor="start" x="151" y="-116.5" font-family="Helvetica,sans-Serif" font-size="10.00">signal_easel::BitStream</text>
<text text-anchor="middle" x="209" y="-105.5" font-family="Helvetica,sans-Serif" font-size="10.00">::getBitVector</text>
</a>
</g>
</g>
<!-- Node1&#45;&gt;Node3 -->
<g id="edge2" class="edge">
<title>Node1&#45;&gt;Node3</title>
<path fill="none" stroke="midnightblue" d="M107.33,-97.1C115.55,-98.44 124.19,-99.85 132.8,-101.25"/>
<polygon fill="midnightblue" stroke="midnightblue" points="132.43,-104.74 142.87,-102.89 133.56,-97.83 132.43,-104.74"/>
</g>
<!-- Node4 -->
<g id="node4" class="node">
<title>Node4</title>
<g id="a_node4"><a xlink:href="classsignal__easel_1_1BitStream.html#a3212a6021fa0e315170f8654c8e1c103" target="_top" xlink:title=" ">
<polygon fill="none" stroke="black" points="143,-49.5 143,-79.5 275,-79.5 275,-49.5 143,-49.5"/>
<text text-anchor="start" x="151" y="-67.5" font-family="Helvetica,sans-Serif" font-size="10.00">signal_easel::BitStream</text>
<text text-anchor="middle" x="209" y="-56.5" font-family="Helvetica,sans-Serif" font-size="10.00">::peakNextByte</text>
</a>
</g>
</g>
<!-- Node1&#45;&gt;Node4 -->
<g id="edge3" class="edge">
<title>Node1&#45;&gt;Node4</title>
<path fill="none" stroke="midnightblue" d="M107.33,-80.24C115.55,-78.95 124.19,-77.6 132.8,-76.26"/>
<polygon fill="midnightblue" stroke="midnightblue" points="133.53,-79.69 142.87,-74.68 132.45,-72.77 133.53,-79.69"/>
</g>
<!-- Node5 -->
<g id="node5" class="node">
<title>Node5</title>
<g id="a_node5"><a xlink:href="classsignal__easel_1_1BitStream.html#a5b5339586e09ca5c25a7e9ded0118ffb" target="_top" xlink:title="Returns the next bit of the bit stream that will be encoded.">
<polygon fill="none" stroke="black" points="143,-0.5 143,-30.5 275,-30.5 275,-0.5 143,-0.5"/>
<text text-anchor="start" x="151" y="-18.5" font-family="Helvetica,sans-Serif" font-size="10.00">signal_easel::BitStream</text>
<text text-anchor="middle" x="209" y="-7.5" font-family="Helvetica,sans-Serif" font-size="10.00">::popNextBit</text>
</a>
</g>
</g>
<!-- Node1&#45;&gt;Node5 -->
<g id="edge4" class="edge">
<title>Node1&#45;&gt;Node5</title>
<path fill="none" stroke="midnightblue" d="M80.38,-73.31C97.79,-63.38 121.41,-50.45 143,-40.5 147.43,-38.46 152.08,-36.43 156.78,-34.48"/>
<polygon fill="midnightblue" stroke="midnightblue" points="158.45,-37.58 166.4,-30.58 155.82,-31.09 158.45,-37.58"/>
</g>
</g>
</svg>
