<?xml version="1.0" encoding="UTF-8" standalone="no"?>
<!DOCTYPE svg PUBLIC "-//W3C//DTD SVG 1.1//EN"
 "http://www.w3.org/Graphics/SVG/1.1/DTD/svg11.dtd">
<!-- Generated by graphviz version 2.43.0 (0)
 -->
<!-- Title: signal_easel::ax25::calculateFcs Pages: 1 -->
<svg width="792pt" height="78pt"
 viewBox="0.00 0.00 792.00 77.50" xmlns="http://www.w3.org/2000/svg" xmlns:xlink="http://www.w3.org/1999/xlink">
<g id="graph0" class="graph" transform="scale(1 1) rotate(0) translate(4 73.5)">
<title>signal_easel::ax25::calculateFcs</title>
<!-- Node1 -->
<g id="node1" class="node">
<title>Node1</title>
<g id="a_node1"><a xlink:title="Calculate the Frame Check Sequence (FCS) on a vector of bytes.">
<polygon fill="#bfbfbf" stroke="black" points="677,-17 677,-47 784,-47 784,-17 677,-17"/>
<text text-anchor="start" x="685" y="-35" font-family="Helvetica,sans-Serif" font-size="10.00">signal_easel::ax25</text>
<text text-anchor="middle" x="730.5" y="-24" font-family="Helvetica,sans-Serif" font-size="10.00">::calculateFcs</text>
</a>
</g>
</g>
<!-- Node2 -->
<g id="node2" class="node">
<title>Node2</title>
<g id="a_node2"><a xlink:href="classsignal__easel_1_1ax25_1_1Frame.html#a24e7d5ffc6504a3380e97142d1bc084e" target="_top" xlink:title="Builds all internal portions of the frame. Doesn&#39;t include the flags.">
<polygon fill="none" stroke="black" points="527,-39 527,-69 641,-69 641,-39 527,-39"/>
<text text-anchor="start" x="535" y="-57" font-family="Helvetica,sans-Serif" font-size="10.00">signal_easel::ax25</text>
<text text-anchor="middle" x="584" y="-46" font-family="Helvetica,sans-Serif" font-size="10.00">::Frame::buildFrame</text>
</a>
</g>
</g>
<!-- Node1&#45;&gt;Node2 -->
<g id="edge1" class="edge">
<title>Node1&#45;&gt;Node2</title>
<path fill="none" stroke="midnightblue" d="M666.97,-41.52C658.4,-42.82 649.64,-44.16 641.19,-45.45"/>
<polygon fill="midnightblue" stroke="midnightblue" points="667.56,-44.97 676.92,-40 666.51,-38.05 667.56,-44.97"/>
</g>
<!-- Node7 -->
<g id="node7" class="node">
<title>Node7</title>
<g id="a_node7"><a xlink:href="ax25__crc__test_8cpp.html#a5e8c68be13dd9b8e641ae63df436f819" target="_top" xlink:title=" ">
<polygon fill="none" stroke="black" points="563.5,-0.5 563.5,-19.5 604.5,-19.5 604.5,-0.5 563.5,-0.5"/>
<text text-anchor="middle" x="584" y="-7.5" font-family="Helvetica,sans-Serif" font-size="10.00">TEST</text>
</a>
</g>
</g>
<!-- Node1&#45;&gt;Node7 -->
<g id="edge6" class="edge">
<title>Node1&#45;&gt;Node7</title>
<path fill="none" stroke="midnightblue" d="M666.74,-22.45C644.32,-19.03 620.66,-15.43 604.6,-12.98"/>
<polygon fill="midnightblue" stroke="midnightblue" points="666.51,-25.95 676.92,-24 667.56,-19.03 666.51,-25.95"/>
</g>
<!-- Node3 -->
<g id="node3" class="node">
<title>Node3</title>
<g id="a_node3"><a xlink:href="classsignal__easel_1_1ax25_1_1Frame.html#a2b4f6ebcb7592a7e5a21114c8fafa503" target="_top" xlink:title="A step beyond buildFrame. This function builds the frame, does the bit stuffing, adds the flags,...">
<polygon fill="none" stroke="black" points="366,-39 366,-69 491,-69 491,-39 366,-39"/>
<text text-anchor="start" x="374" y="-57" font-family="Helvetica,sans-Serif" font-size="10.00">signal_easel::ax25</text>
<text text-anchor="middle" x="428.5" y="-46" font-family="Helvetica,sans-Serif" font-size="10.00">::Frame::encodeFrame</text>
</a>
</g>
</g>
<!-- Node2&#45;&gt;Node3 -->
<g id="edge2" class="edge">
<title>Node2&#45;&gt;Node3</title>
<path fill="none" stroke="midnightblue" d="M516.56,-54C508.14,-54 499.55,-54 491.21,-54"/>
<polygon fill="midnightblue" stroke="midnightblue" points="516.71,-57.5 526.71,-54 516.71,-50.5 516.71,-57.5"/>
</g>
<!-- Node4 -->
<g id="node4" class="node">
<title>Node4</title>
<g id="a_node4"><a xlink:href="namespacesignal__easel_1_1aprs.html#a77481001a5b78a839972bb4220b43e4d" target="_top" xlink:title=" ">
<polygon fill="none" stroke="black" points="226,-39 226,-69 330,-69 330,-39 226,-39"/>
<text text-anchor="start" x="234" y="-57" font-family="Helvetica,sans-Serif" font-size="10.00">signal_easel::aprs</text>
<text text-anchor="middle" x="278" y="-46" font-family="Helvetica,sans-Serif" font-size="10.00">::encodePacket</text>
</a>
</g>
</g>
<!-- Node3&#45;&gt;Node4 -->
<g id="edge3" class="edge">
<title>Node3&#45;&gt;Node4</title>
<path fill="none" stroke="midnightblue" d="M355.79,-54C347.2,-54 338.58,-54 330.36,-54"/>
<polygon fill="midnightblue" stroke="midnightblue" points="355.81,-57.5 365.81,-54 355.81,-50.5 355.81,-57.5"/>
</g>
<!-- Node5 -->
<g id="node5" class="node">
<title>Node5</title>
<g id="a_node5"><a xlink:href="classsignal__easel_1_1aprs_1_1Modulator.html#a8ae067701382dec1680b786583ace687" target="_top" xlink:title=" ">
<polygon fill="none" stroke="black" points="77,-39 77,-69 190,-69 190,-39 77,-39"/>
<text text-anchor="start" x="85" y="-57" font-family="Helvetica,sans-Serif" font-size="10.00">signal_easel::aprs</text>
<text text-anchor="middle" x="133.5" y="-46" font-family="Helvetica,sans-Serif" font-size="10.00">::Modulator::encode</text>
</a>
</g>
</g>
<!-- Node4&#45;&gt;Node5 -->
<g id="edge4" class="edge">
<title>Node4&#45;&gt;Node5</title>
<path fill="none" stroke="midnightblue" d="M215.68,-54C207.15,-54 198.43,-54 190.01,-54"/>
<polygon fill="midnightblue" stroke="midnightblue" points="215.96,-57.5 225.96,-54 215.96,-50.5 215.96,-57.5"/>
</g>
<!-- Node6 -->
<g id="node6" class="node">
<title>Node6</title>
<g id="a_node6"><a xlink:href="aprs__test_8cpp.html#aea66d1824e3f1e27598adf99ac6a089a" target="_top" xlink:title=" ">
<polygon fill="none" stroke="black" points="0,-44.5 0,-63.5 41,-63.5 41,-44.5 0,-44.5"/>
<text text-anchor="middle" x="20.5" y="-51.5" font-family="Helvetica,sans-Serif" font-size="10.00">TEST</text>
</a>
</g>
</g>
<!-- Node5&#45;&gt;Node6 -->
<g id="edge5" class="edge">
<title>Node5&#45;&gt;Node6</title>
<path fill="none" stroke="midnightblue" d="M66.58,-54C57.37,-54 48.56,-54 41.21,-54"/>
<polygon fill="midnightblue" stroke="midnightblue" points="66.67,-57.5 76.67,-54 66.67,-50.5 66.67,-57.5"/>
</g>
</g>
</svg>
