<?xml version="1.0" encoding="UTF-8" standalone="no"?>
<!DOCTYPE svg PUBLIC "-//W3C//DTD SVG 1.1//EN"
 "http://www.w3.org/Graphics/SVG/1.1/DTD/svg11.dtd">
<!-- Generated by graphviz version 2.43.0 (0)
 -->
<!-- Title: signal_easel::psk::getShiftedConvolutionalCodePhase Pages: 1 -->
<svg width="583pt" height="50pt"
 viewBox="0.00 0.00 583.00 50.00" xmlns="http://www.w3.org/2000/svg" xmlns:xlink="http://www.w3.org/1999/xlink">
<g id="graph0" class="graph" transform="scale(1 1) rotate(0) translate(4 46)">
<title>signal_easel::psk::getShiftedConvolutionalCodePhase</title>
<!-- Node1 -->
<g id="node1" class="node">
<title>Node1</title>
<g id="a_node1"><a xlink:title="Shift the provided phase with the convolutional code.">
<polygon fill="#bfbfbf" stroke="black" points="417,-0.5 417,-41.5 575,-41.5 575,-0.5 417,-0.5"/>
<text text-anchor="start" x="425" y="-29.5" font-family="Helvetica,sans-Serif" font-size="10.00">signal_easel::psk::</text>
<text text-anchor="start" x="425" y="-18.5" font-family="Helvetica,sans-Serif" font-size="10.00">getShiftedConvolutionalCode</text>
<text text-anchor="middle" x="496" y="-7.5" font-family="Helvetica,sans-Serif" font-size="10.00">Phase</text>
</a>
</g>
</g>
<!-- Node2 -->
<g id="node2" class="node">
<title>Node2</title>
<g id="a_node2"><a xlink:href="classsignal__easel_1_1psk_1_1Modulator.html#a60d1a9253af253f4b62b678b6fc2b21e" target="_top" xlink:title=" ">
<polygon fill="none" stroke="black" points="249,-6 249,-36 381,-36 381,-6 249,-6"/>
<text text-anchor="start" x="257" y="-24" font-family="Helvetica,sans-Serif" font-size="10.00">signal_easel::psk::</text>
<text text-anchor="middle" x="315" y="-13" font-family="Helvetica,sans-Serif" font-size="10.00">Modulator::encodeQpsk</text>
</a>
</g>
</g>
<!-- Node1&#45;&gt;Node2 -->
<g id="edge1" class="edge">
<title>Node1&#45;&gt;Node2</title>
<path fill="none" stroke="midnightblue" d="M406.7,-21C398.12,-21 389.53,-21 381.24,-21"/>
<polygon fill="midnightblue" stroke="midnightblue" points="406.75,-24.5 416.75,-21 406.75,-17.5 406.75,-24.5"/>
</g>
<!-- Node3 -->
<g id="node3" class="node">
<title>Node3</title>
<g id="a_node3"><a xlink:href="classsignal__easel_1_1psk_1_1Modulator.html#acd4a6a5bac7af1c62ffaaa0ff1d9259f" target="_top" xlink:title=" ">
<polygon fill="none" stroke="black" points="77,-6 77,-36 213,-36 213,-6 77,-6"/>
<text text-anchor="start" x="85" y="-24" font-family="Helvetica,sans-Serif" font-size="10.00">signal_easel::psk::</text>
<text text-anchor="middle" x="145" y="-13" font-family="Helvetica,sans-Serif" font-size="10.00">Modulator::encodeString</text>
</a>
</g>
</g>
<!-- Node2&#45;&gt;Node3 -->
<g id="edge2" class="edge">
<title>Node2&#45;&gt;Node3</title>
<path fill="none" stroke="midnightblue" d="M238.4,-21C230,-21 221.48,-21 213.19,-21"/>
<polygon fill="midnightblue" stroke="midnightblue" points="238.57,-24.5 248.57,-21 238.57,-17.5 238.57,-24.5"/>
</g>
<!-- Node4 -->
<g id="node4" class="node">
<title>Node4</title>
<g id="a_node4"><a xlink:href="psk__test_8cpp.html#adc7973e853ae04677ba78e84bda93987" target="_top" xlink:title=" ">
<polygon fill="none" stroke="black" points="0,-11.5 0,-30.5 41,-30.5 41,-11.5 0,-11.5"/>
<text text-anchor="middle" x="20.5" y="-18.5" font-family="Helvetica,sans-Serif" font-size="10.00">TEST</text>
</a>
</g>
</g>
<!-- Node3&#45;&gt;Node4 -->
<g id="edge3" class="edge">
<title>Node3&#45;&gt;Node4</title>
<path fill="none" stroke="midnightblue" d="M66.41,-21C57.13,-21 48.38,-21 41.12,-21"/>
<polygon fill="midnightblue" stroke="midnightblue" points="66.66,-24.5 76.66,-21 66.66,-17.5 66.66,-24.5"/>
</g>
</g>
</svg>
