<?xml version="1.0" encoding="UTF-8" standalone="no"?>
<!DOCTYPE svg PUBLIC "-//W3C//DTD SVG 1.1//EN"
 "http://www.w3.org/Graphics/SVG/1.1/DTD/svg11.dtd">
<!-- Generated by graphviz version 2.43.0 (0)
 -->
<!-- Title: signal_easel::ax25::calculateFcs Pages: 1 -->
<svg width="900pt" height="160pt"
 viewBox="0.00 0.00 900.00 159.50" xmlns="http://www.w3.org/2000/svg" xmlns:xlink="http://www.w3.org/1999/xlink">
<g id="graph0" class="graph" transform="scale(1 1) rotate(0) translate(4 155.5)">
<title>signal_easel::ax25::calculateFcs</title>
<!-- Node1 -->
<g id="node1" class="node">
<title>Node1</title>
<g id="a_node1"><a xlink:title="Calculate the Frame Check Sequence (FCS) on a vector of bytes.">
<polygon fill="#bfbfbf" stroke="black" points="785,-44 785,-74 892,-74 892,-44 785,-44"/>
<text text-anchor="start" x="793" y="-62" font-family="Helvetica,sans-Serif" font-size="10.00">signal_easel::ax25</text>
<text text-anchor="middle" x="838.5" y="-51" font-family="Helvetica,sans-Serif" font-size="10.00">::calculateFcs</text>
</a>
</g>
</g>
<!-- Node2 -->
<g id="node2" class="node">
<title>Node2</title>
<g id="a_node2"><a xlink:href="classsignal__easel_1_1ax25_1_1Frame.html#a24e7d5ffc6504a3380e97142d1bc084e" target="_top" xlink:title="Builds all internal portions of the frame. Doesn&#39;t include the flags.">
<polygon fill="none" stroke="black" points="635,-66 635,-96 749,-96 749,-66 635,-66"/>
<text text-anchor="start" x="643" y="-84" font-family="Helvetica,sans-Serif" font-size="10.00">signal_easel::ax25</text>
<text text-anchor="middle" x="692" y="-73" font-family="Helvetica,sans-Serif" font-size="10.00">::Frame::buildFrame</text>
</a>
</g>
</g>
<!-- Node1&#45;&gt;Node2 -->
<g id="edge1" class="edge">
<title>Node1&#45;&gt;Node2</title>
<path fill="none" stroke="midnightblue" d="M774.97,-68.52C766.4,-69.82 757.64,-71.16 749.19,-72.45"/>
<polygon fill="midnightblue" stroke="midnightblue" points="775.56,-71.97 784.92,-67 774.51,-65.05 775.56,-71.97"/>
</g>
<!-- Node9 -->
<g id="node9" class="node">
<title>Node9</title>
<g id="a_node9"><a xlink:href="ax25__crc__test_8cpp.html#a5e8c68be13dd9b8e641ae63df436f819" target="_top" xlink:title=" ">
<polygon fill="none" stroke="black" points="671.5,-27.5 671.5,-46.5 712.5,-46.5 712.5,-27.5 671.5,-27.5"/>
<text text-anchor="middle" x="692" y="-34.5" font-family="Helvetica,sans-Serif" font-size="10.00">TEST</text>
</a>
</g>
</g>
<!-- Node1&#45;&gt;Node9 -->
<g id="edge8" class="edge">
<title>Node1&#45;&gt;Node9</title>
<path fill="none" stroke="midnightblue" d="M774.74,-49.45C752.32,-46.03 728.66,-42.43 712.6,-39.98"/>
<polygon fill="midnightblue" stroke="midnightblue" points="774.51,-52.95 784.92,-51 775.56,-46.03 774.51,-52.95"/>
</g>
<!-- Node3 -->
<g id="node3" class="node">
<title>Node3</title>
<g id="a_node3"><a xlink:href="classsignal__easel_1_1ax25_1_1Frame.html#a2b4f6ebcb7592a7e5a21114c8fafa503" target="_top" xlink:title="A step beyond buildFrame. This function builds the frame, does the bit stuffing, adds the flags,...">
<polygon fill="none" stroke="black" points="474,-66 474,-96 599,-96 599,-66 474,-66"/>
<text text-anchor="start" x="482" y="-84" font-family="Helvetica,sans-Serif" font-size="10.00">signal_easel::ax25</text>
<text text-anchor="middle" x="536.5" y="-73" font-family="Helvetica,sans-Serif" font-size="10.00">::Frame::encodeFrame</text>
</a>
</g>
</g>
<!-- Node2&#45;&gt;Node3 -->
<g id="edge2" class="edge">
<title>Node2&#45;&gt;Node3</title>
<path fill="none" stroke="midnightblue" d="M624.56,-81C616.14,-81 607.55,-81 599.21,-81"/>
<polygon fill="midnightblue" stroke="midnightblue" points="624.71,-84.5 634.71,-81 624.71,-77.5 624.71,-84.5"/>
</g>
<!-- Node4 -->
<g id="node4" class="node">
<title>Node4</title>
<g id="a_node4"><a xlink:href="namespacesignal__easel.html#aad3ffdd47a4a03ed438e8c1ca9eef231" target="_top" xlink:title=" ">
<polygon fill="none" stroke="black" points="288,-71.5 288,-90.5 438,-90.5 438,-71.5 288,-71.5"/>
<text text-anchor="middle" x="363" y="-78.5" font-family="Helvetica,sans-Serif" font-size="10.00">signal_easel::encodePacket</text>
</a>
</g>
</g>
<!-- Node3&#45;&gt;Node4 -->
<g id="edge3" class="edge">
<title>Node3&#45;&gt;Node4</title>
<path fill="none" stroke="midnightblue" d="M463.47,-81C455.08,-81 446.51,-81 438.1,-81"/>
<polygon fill="midnightblue" stroke="midnightblue" points="463.58,-84.5 473.58,-81 463.58,-77.5 463.58,-84.5"/>
</g>
<!-- Node5 -->
<g id="node5" class="node">
<title>Node5</title>
<g id="a_node5"><a xlink:href="classsignal__easel_1_1aprs_1_1Modulator.html#adfa8809d1c11321b9ff2c7efe7f58499" target="_top" xlink:title=" ">
<polygon fill="none" stroke="black" points="77,-121 77,-151 252,-151 252,-121 77,-121"/>
<text text-anchor="start" x="85" y="-139" font-family="Helvetica,sans-Serif" font-size="10.00">signal_easel::aprs</text>
<text text-anchor="middle" x="164.5" y="-128" font-family="Helvetica,sans-Serif" font-size="10.00">::Modulator::encodeMessageAck</text>
</a>
</g>
</g>
<!-- Node4&#45;&gt;Node5 -->
<g id="edge4" class="edge">
<title>Node4&#45;&gt;Node5</title>
<path fill="none" stroke="midnightblue" d="M317.87,-93.35C288.7,-101.52 250.29,-112.27 219.32,-120.93"/>
<polygon fill="midnightblue" stroke="midnightblue" points="319.09,-96.65 327.77,-90.58 317.2,-89.91 319.09,-96.65"/>
</g>
<!-- Node6 -->
<g id="node6" class="node">
<title>Node6</title>
<g id="a_node6"><a xlink:href="classsignal__easel_1_1aprs_1_1Modulator.html#a147321b48c2e282c62863f114702e54f" target="_top" xlink:title=" ">
<polygon fill="none" stroke="black" points="86,-60.5 86,-101.5 243,-101.5 243,-60.5 86,-60.5"/>
<text text-anchor="start" x="94" y="-89.5" font-family="Helvetica,sans-Serif" font-size="10.00">signal_easel::aprs</text>
<text text-anchor="start" x="94" y="-78.5" font-family="Helvetica,sans-Serif" font-size="10.00">::Modulator::encodeMessage</text>
<text text-anchor="middle" x="164.5" y="-67.5" font-family="Helvetica,sans-Serif" font-size="10.00">Packet</text>
</a>
</g>
</g>
<!-- Node4&#45;&gt;Node6 -->
<g id="edge5" class="edge">
<title>Node4&#45;&gt;Node6</title>
<path fill="none" stroke="midnightblue" d="M277.91,-81C266.33,-81 254.49,-81 243.05,-81"/>
<polygon fill="midnightblue" stroke="midnightblue" points="277.99,-84.5 287.99,-81 277.99,-77.5 277.99,-84.5"/>
</g>
<!-- Node8 -->
<g id="node8" class="node">
<title>Node8</title>
<g id="a_node8"><a xlink:href="classsignal__easel_1_1aprs_1_1Modulator.html#a943e392227656943d7db842e1889d805" target="_top" xlink:title=" ">
<polygon fill="none" stroke="black" points="88.5,-0.5 88.5,-41.5 240.5,-41.5 240.5,-0.5 88.5,-0.5"/>
<text text-anchor="start" x="96.5" y="-29.5" font-family="Helvetica,sans-Serif" font-size="10.00">signal_easel::aprs</text>
<text text-anchor="start" x="96.5" y="-18.5" font-family="Helvetica,sans-Serif" font-size="10.00">::Modulator::encodePosition</text>
<text text-anchor="middle" x="164.5" y="-7.5" font-family="Helvetica,sans-Serif" font-size="10.00">Packet</text>
</a>
</g>
</g>
<!-- Node4&#45;&gt;Node8 -->
<g id="edge7" class="edge">
<title>Node4&#45;&gt;Node8</title>
<path fill="none" stroke="midnightblue" d="M321.14,-68.52C295.6,-60.72 262.08,-50.49 232.7,-41.52"/>
<polygon fill="midnightblue" stroke="midnightblue" points="320.28,-71.92 330.86,-71.49 322.32,-65.22 320.28,-71.92"/>
</g>
<!-- Node7 -->
<g id="node7" class="node">
<title>Node7</title>
<g id="a_node7"><a xlink:href="aprs__test_8cpp.html#aea66d1824e3f1e27598adf99ac6a089a" target="_top" xlink:title=" ">
<polygon fill="none" stroke="black" points="0,-71.5 0,-90.5 41,-90.5 41,-71.5 0,-71.5"/>
<text text-anchor="middle" x="20.5" y="-78.5" font-family="Helvetica,sans-Serif" font-size="10.00">TEST</text>
</a>
</g>
</g>
<!-- Node6&#45;&gt;Node7 -->
<g id="edge6" class="edge">
<title>Node6&#45;&gt;Node7</title>
<path fill="none" stroke="midnightblue" d="M75.84,-81C62.91,-81 50.76,-81 41.24,-81"/>
<polygon fill="midnightblue" stroke="midnightblue" points="75.85,-84.5 85.85,-81 75.85,-77.5 75.85,-84.5"/>
</g>
</g>
</svg>
