<?xml version="1.0" encoding="UTF-8" standalone="no"?>
<!DOCTYPE svg PUBLIC "-//W3C//DTD SVG 1.1//EN"
 "http://www.w3.org/Graphics/SVG/1.1/DTD/svg11.dtd">
<!-- Generated by graphviz version 2.43.0 (0)
 -->
<!-- Title: signal_easel::aprs::encodePacket Pages: 1 -->
<svg width="1176pt" height="382pt"
 viewBox="0.00 0.00 1176.00 382.00" xmlns="http://www.w3.org/2000/svg" xmlns:xlink="http://www.w3.org/1999/xlink">
<g id="graph0" class="graph" transform="scale(1 1) rotate(0) translate(4 378)">
<title>signal_easel::aprs::encodePacket</title>
<!-- Node1 -->
<g id="node1" class="node">
<title>Node1</title>
<g id="a_node1"><a xlink:title=" ">
<polygon fill="#bfbfbf" stroke="black" points="0,-147.5 0,-177.5 104,-177.5 104,-147.5 0,-147.5"/>
<text text-anchor="start" x="8" y="-165.5" font-family="Helvetica,sans-Serif" font-size="10.00">signal_easel::aprs</text>
<text text-anchor="middle" x="52" y="-154.5" font-family="Helvetica,sans-Serif" font-size="10.00">::encodePacket</text>
</a>
</g>
</g>
<!-- Node2 -->
<g id="node2" class="node">
<title>Node2</title>
<g id="a_node2"><a xlink:href="namespacesignal__easel_1_1aprs.html#a586b022fa0c917fa8557bbd5cdc6aeeb" target="_top" xlink:title=" ">
<polygon fill="none" stroke="black" points="316.5,-289.5 316.5,-319.5 429.5,-319.5 429.5,-289.5 316.5,-289.5"/>
<text text-anchor="start" x="324.5" y="-307.5" font-family="Helvetica,sans-Serif" font-size="10.00">signal_easel::aprs</text>
<text text-anchor="middle" x="373" y="-296.5" font-family="Helvetica,sans-Serif" font-size="10.00">::AddRequiredFields</text>
</a>
</g>
</g>
<!-- Node1&#45;&gt;Node2 -->
<g id="edge1" class="edge">
<title>Node1&#45;&gt;Node2</title>
<path fill="none" stroke="midnightblue" d="M86.84,-177.56C145.1,-203.5 264.28,-256.55 328.58,-285.17"/>
<polygon fill="midnightblue" stroke="midnightblue" points="327.47,-288.51 338.03,-289.38 330.32,-282.11 327.47,-288.51"/>
</g>
<!-- Node10 -->
<g id="node10" class="node">
<title>Node10</title>
<g id="a_node10"><a xlink:href="classsignal__easel_1_1ax25_1_1Frame.html#a2b4f6ebcb7592a7e5a21114c8fafa503" target="_top" xlink:title="A step beyond buildFrame. This function builds the frame, does the bit stuffing, adds the flags,...">
<polygon fill="none" stroke="black" points="143,-147.5 143,-177.5 268,-177.5 268,-147.5 143,-147.5"/>
<text text-anchor="start" x="151" y="-165.5" font-family="Helvetica,sans-Serif" font-size="10.00">signal_easel::ax25</text>
<text text-anchor="middle" x="205.5" y="-154.5" font-family="Helvetica,sans-Serif" font-size="10.00">::Frame::encodeFrame</text>
</a>
</g>
</g>
<!-- Node1&#45;&gt;Node10 -->
<g id="edge10" class="edge">
<title>Node1&#45;&gt;Node10</title>
<path fill="none" stroke="midnightblue" d="M104.29,-162.5C113.37,-162.5 122.97,-162.5 132.5,-162.5"/>
<polygon fill="midnightblue" stroke="midnightblue" points="132.77,-166 142.77,-162.5 132.77,-159 132.77,-166"/>
</g>
<!-- Node23 -->
<g id="node23" class="node">
<title>Node23</title>
<g id="a_node23"><a xlink:href="classsignal__easel_1_1ax25_1_1Frame.html#afc5c722b419621f2a4dccbe2208faea1" target="_top" xlink:title=" ">
<polygon fill="none" stroke="black" points="140,-98.5 140,-128.5 271,-128.5 271,-98.5 140,-98.5"/>
<text text-anchor="start" x="148" y="-116.5" font-family="Helvetica,sans-Serif" font-size="10.00">signal_easel::ax25</text>
<text text-anchor="middle" x="205.5" y="-105.5" font-family="Helvetica,sans-Serif" font-size="10.00">::Frame::setInformation</text>
</a>
</g>
</g>
<!-- Node1&#45;&gt;Node23 -->
<g id="edge27" class="edge">
<title>Node1&#45;&gt;Node23</title>
<path fill="none" stroke="midnightblue" d="M99.69,-147.4C115.03,-142.44 132.24,-136.87 148.21,-131.71"/>
<polygon fill="midnightblue" stroke="midnightblue" points="149.53,-134.96 157.96,-128.55 147.37,-128.3 149.53,-134.96"/>
</g>
<!-- Node3 -->
<g id="node3" class="node">
<title>Node3</title>
<g id="a_node3"><a xlink:href="namespacesignal__easel_1_1aprs.html#ae16006b4c75ab6423ad8b90ea814a14f" target="_top" xlink:title=" ">
<polygon fill="none" stroke="black" points="506.5,-343.5 506.5,-373.5 613.5,-373.5 613.5,-343.5 506.5,-343.5"/>
<text text-anchor="start" x="514.5" y="-361.5" font-family="Helvetica,sans-Serif" font-size="10.00">signal_easel::aprs</text>
<text text-anchor="middle" x="560" y="-350.5" font-family="Helvetica,sans-Serif" font-size="10.00">::CheckPacketData</text>
</a>
</g>
</g>
<!-- Node2&#45;&gt;Node3 -->
<g id="edge2" class="edge">
<title>Node2&#45;&gt;Node3</title>
<path fill="none" stroke="midnightblue" d="M424.32,-319.56C440.49,-324.37 458.49,-329.69 475,-334.5 481.91,-336.51 489.14,-338.6 496.34,-340.67"/>
<polygon fill="midnightblue" stroke="midnightblue" points="495.52,-344.08 506.1,-343.48 497.45,-337.35 495.52,-344.08"/>
</g>
<!-- Node4 -->
<g id="node4" class="node">
<title>Node4</title>
<g id="a_node4"><a xlink:href="classsignal__easel_1_1ax25_1_1Frame.html#a57b163ece54317da8d95f3b18b47c23d" target="_top" xlink:title="setters/getters for the frame.">
<polygon fill="none" stroke="black" points="475,-294.5 475,-324.5 645,-324.5 645,-294.5 475,-294.5"/>
<text text-anchor="start" x="483" y="-312.5" font-family="Helvetica,sans-Serif" font-size="10.00">signal_easel::ax25</text>
<text text-anchor="middle" x="560" y="-301.5" font-family="Helvetica,sans-Serif" font-size="10.00">::Frame::setDestinationAddress</text>
</a>
</g>
</g>
<!-- Node2&#45;&gt;Node4 -->
<g id="edge3" class="edge">
<title>Node2&#45;&gt;Node4</title>
<path fill="none" stroke="midnightblue" d="M429.51,-306C440.65,-306.3 452.65,-306.63 464.69,-306.95"/>
<polygon fill="midnightblue" stroke="midnightblue" points="464.7,-310.45 474.79,-307.22 464.89,-303.46 464.7,-310.45"/>
</g>
<!-- Node9 -->
<g id="node9" class="node">
<title>Node9</title>
<g id="a_node9"><a xlink:href="classsignal__easel_1_1ax25_1_1Frame.html#a402d26a81f82bb5c477e8930b75a771e" target="_top" xlink:title=" ">
<polygon fill="none" stroke="black" points="487,-245.5 487,-275.5 633,-275.5 633,-245.5 487,-245.5"/>
<text text-anchor="start" x="495" y="-263.5" font-family="Helvetica,sans-Serif" font-size="10.00">signal_easel::ax25</text>
<text text-anchor="middle" x="560" y="-252.5" font-family="Helvetica,sans-Serif" font-size="10.00">::Frame::setSourceAddress</text>
</a>
</g>
</g>
<!-- Node2&#45;&gt;Node9 -->
<g id="edge8" class="edge">
<title>Node2&#45;&gt;Node9</title>
<path fill="none" stroke="midnightblue" d="M429.51,-291.3C447.19,-287.09 467.03,-282.37 485.77,-277.92"/>
<polygon fill="midnightblue" stroke="midnightblue" points="486.83,-281.26 495.75,-275.54 485.21,-274.45 486.83,-281.26"/>
</g>
<!-- Node5 -->
<g id="node5" class="node">
<title>Node5</title>
<g id="a_node5"><a xlink:href="classsignal__easel_1_1ax25_1_1Address.html#a7fa6b0ef4241413893f201660991e4ea" target="_top" xlink:title="Checks if the address is valid, if not throws an exception with a specific error code.">
<polygon fill="none" stroke="black" points="681,-242.5 681,-272.5 811,-272.5 811,-242.5 681,-242.5"/>
<text text-anchor="start" x="689" y="-260.5" font-family="Helvetica,sans-Serif" font-size="10.00">signal_easel::ax25</text>
<text text-anchor="middle" x="746" y="-249.5" font-family="Helvetica,sans-Serif" font-size="10.00">::Address::assertIsValid</text>
</a>
</g>
</g>
<!-- Node4&#45;&gt;Node5 -->
<g id="edge4" class="edge">
<title>Node4&#45;&gt;Node5</title>
<path fill="none" stroke="midnightblue" d="M614.22,-294.46C635.49,-288.45 660.13,-281.48 682.26,-275.23"/>
<polygon fill="midnightblue" stroke="midnightblue" points="683.23,-278.59 691.9,-272.51 681.32,-271.86 683.23,-278.59"/>
</g>
<!-- Node6 -->
<g id="node6" class="node">
<title>Node6</title>
<g id="a_node6"><a xlink:href="classsignal__easel_1_1ax25_1_1Address.html#af34b361f739b7995e7816b7a04465828" target="_top" xlink:title=" ">
<polygon fill="none" stroke="black" points="847,-237 847,-278 1012,-278 1012,-237 847,-237"/>
<text text-anchor="start" x="855" y="-266" font-family="Helvetica,sans-Serif" font-size="10.00">signal_easel::ax25</text>
<text text-anchor="start" x="855" y="-255" font-family="Helvetica,sans-Serif" font-size="10.00">::Address::assertAddressString</text>
<text text-anchor="middle" x="929.5" y="-244" font-family="Helvetica,sans-Serif" font-size="10.00">IsValid</text>
</a>
</g>
</g>
<!-- Node5&#45;&gt;Node6 -->
<g id="edge5" class="edge">
<title>Node5&#45;&gt;Node6</title>
<path fill="none" stroke="midnightblue" d="M811.25,-257.5C819.53,-257.5 828.13,-257.5 836.75,-257.5"/>
<polygon fill="midnightblue" stroke="midnightblue" points="836.85,-261 846.85,-257.5 836.85,-254 836.85,-261"/>
</g>
<!-- Node7 -->
<g id="node7" class="node">
<title>Node7</title>
<g id="a_node7"><a xlink:href="classsignal__easel_1_1ax25_1_1Address.html#a8b44c6e311d3462bd86eda03c1d384f0" target="_top" xlink:title=" ">
<polygon fill="none" stroke="black" points="854.5,-184.5 854.5,-214.5 1004.5,-214.5 1004.5,-184.5 854.5,-184.5"/>
<text text-anchor="start" x="862.5" y="-202.5" font-family="Helvetica,sans-Serif" font-size="10.00">signal_easel::ax25</text>
<text text-anchor="middle" x="929.5" y="-191.5" font-family="Helvetica,sans-Serif" font-size="10.00">::Address::assertSsidIsValid</text>
</a>
</g>
</g>
<!-- Node5&#45;&gt;Node7 -->
<g id="edge6" class="edge">
<title>Node5&#45;&gt;Node7</title>
<path fill="none" stroke="midnightblue" d="M794.21,-242.41C817.95,-234.83 846.9,-225.58 871.83,-217.61"/>
<polygon fill="midnightblue" stroke="midnightblue" points="873.06,-220.89 881.52,-214.51 870.93,-214.22 873.06,-220.89"/>
</g>
<!-- Node8 -->
<g id="node8" class="node">
<title>Node8</title>
<g id="a_node8"><a xlink:href="classsignal__easel_1_1ax25_1_1Address.html#ad66c149737cc4aa52ae9e8860176acf3" target="_top" xlink:title=" ">
<polygon fill="none" stroke="black" points="1048,-159.5 1048,-189.5 1168,-189.5 1168,-159.5 1048,-159.5"/>
<text text-anchor="start" x="1056" y="-177.5" font-family="Helvetica,sans-Serif" font-size="10.00">signal_easel::ax25</text>
<text text-anchor="middle" x="1108" y="-166.5" font-family="Helvetica,sans-Serif" font-size="10.00">::Address::isSsidValid</text>
</a>
</g>
</g>
<!-- Node7&#45;&gt;Node8 -->
<g id="edge7" class="edge">
<title>Node7&#45;&gt;Node8</title>
<path fill="none" stroke="midnightblue" d="M1004.58,-189.01C1015.64,-187.44 1026.99,-185.83 1037.93,-184.28"/>
<polygon fill="midnightblue" stroke="midnightblue" points="1038.43,-187.75 1047.84,-182.88 1037.45,-180.82 1038.43,-187.75"/>
</g>
<!-- Node9&#45;&gt;Node5 -->
<g id="edge9" class="edge">
<title>Node9&#45;&gt;Node5</title>
<path fill="none" stroke="midnightblue" d="M633.19,-259.32C645.46,-259.12 658.23,-258.91 670.56,-258.71"/>
<polygon fill="midnightblue" stroke="midnightblue" points="670.85,-262.21 680.79,-258.55 670.73,-255.21 670.85,-262.21"/>
</g>
<!-- Node11 -->
<g id="node11" class="node">
<title>Node11</title>
<g id="a_node11"><a xlink:href="classsignal__easel_1_1BitStream.html#a9df75eb28c03717c9fad2d30a85de6e6" target="_top" xlink:title=" ">
<polygon fill="none" stroke="black" points="494,-196.5 494,-226.5 626,-226.5 626,-196.5 494,-196.5"/>
<text text-anchor="start" x="502" y="-214.5" font-family="Helvetica,sans-Serif" font-size="10.00">signal_easel::BitStream</text>
<text text-anchor="middle" x="560" y="-203.5" font-family="Helvetica,sans-Serif" font-size="10.00">::addBits</text>
</a>
</g>
</g>
<!-- Node10&#45;&gt;Node11 -->
<g id="edge11" class="edge">
<title>Node10&#45;&gt;Node11</title>
<path fill="none" stroke="midnightblue" d="M220.78,-177.53C238.87,-195.36 271.93,-224.11 307,-235.5 362.8,-253.63 380.62,-241.28 439,-235.5 454.26,-233.99 470.46,-231.42 485.85,-228.51"/>
<polygon fill="midnightblue" stroke="midnightblue" points="486.69,-231.92 495.83,-226.56 485.34,-225.05 486.69,-231.92"/>
</g>
<!-- Node12 -->
<g id="node12" class="node">
<title>Node12</title>
<g id="a_node12"><a xlink:href="classsignal__easel_1_1BitStream.html#a81d4aea4c11f65e0c2b7ad2f0f0cc312" target="_top" xlink:title=" ">
<polygon fill="none" stroke="black" points="307,-196.5 307,-226.5 439,-226.5 439,-196.5 307,-196.5"/>
<text text-anchor="start" x="315" y="-214.5" font-family="Helvetica,sans-Serif" font-size="10.00">signal_easel::BitStream</text>
<text text-anchor="middle" x="373" y="-203.5" font-family="Helvetica,sans-Serif" font-size="10.00">::addOneBit</text>
</a>
</g>
</g>
<!-- Node10&#45;&gt;Node12 -->
<g id="edge12" class="edge">
<title>Node10&#45;&gt;Node12</title>
<path fill="none" stroke="midnightblue" d="M257.51,-177.6C274.57,-182.66 293.77,-188.34 311.49,-193.58"/>
<polygon fill="midnightblue" stroke="midnightblue" points="310.58,-196.97 321.16,-196.45 312.57,-190.25 310.58,-196.97"/>
</g>
<!-- Node13 -->
<g id="node13" class="node">
<title>Node13</title>
<g id="a_node13"><a xlink:href="classsignal__easel_1_1BitStream.html#abb315beec8c4d88115d9d4ec5f082863" target="_top" xlink:title=" ">
<polygon fill="none" stroke="black" points="307,-147.5 307,-177.5 439,-177.5 439,-147.5 307,-147.5"/>
<text text-anchor="start" x="315" y="-165.5" font-family="Helvetica,sans-Serif" font-size="10.00">signal_easel::BitStream</text>
<text text-anchor="middle" x="373" y="-154.5" font-family="Helvetica,sans-Serif" font-size="10.00">::addZeroBit</text>
</a>
</g>
</g>
<!-- Node10&#45;&gt;Node13 -->
<g id="edge14" class="edge">
<title>Node10&#45;&gt;Node13</title>
<path fill="none" stroke="midnightblue" d="M268.13,-162.5C277.44,-162.5 287.14,-162.5 296.7,-162.5"/>
<polygon fill="midnightblue" stroke="midnightblue" points="297,-166 307,-162.5 297,-159 297,-166"/>
</g>
<!-- Node14 -->
<g id="node14" class="node">
<title>Node14</title>
<g id="a_node14"><a xlink:href="classsignal__easel_1_1ax25_1_1Frame.html#a24e7d5ffc6504a3380e97142d1bc084e" target="_top" xlink:title="Builds all internal portions of the frame. Doesn&#39;t include the flags.">
<polygon fill="none" stroke="black" points="316,-98.5 316,-128.5 430,-128.5 430,-98.5 316,-98.5"/>
<text text-anchor="start" x="324" y="-116.5" font-family="Helvetica,sans-Serif" font-size="10.00">signal_easel::ax25</text>
<text text-anchor="middle" x="373" y="-105.5" font-family="Helvetica,sans-Serif" font-size="10.00">::Frame::buildFrame</text>
</a>
</g>
</g>
<!-- Node10&#45;&gt;Node14 -->
<g id="edge16" class="edge">
<title>Node10&#45;&gt;Node14</title>
<path fill="none" stroke="midnightblue" d="M257.51,-147.4C274.57,-142.34 293.77,-136.66 311.49,-131.42"/>
<polygon fill="midnightblue" stroke="midnightblue" points="312.57,-134.75 321.16,-128.55 310.58,-128.03 312.57,-134.75"/>
</g>
<!-- Node21 -->
<g id="node21" class="node">
<title>Node21</title>
<g id="a_node21"><a xlink:href="classsignal__easel_1_1BitStream.html#aa97152ef51f73088e103a7951134aa85" target="_top" xlink:title=" ">
<polygon fill="none" stroke="black" points="307,-49.5 307,-79.5 439,-79.5 439,-49.5 307,-49.5"/>
<text text-anchor="start" x="315" y="-67.5" font-family="Helvetica,sans-Serif" font-size="10.00">signal_easel::BitStream</text>
<text text-anchor="middle" x="373" y="-56.5" font-family="Helvetica,sans-Serif" font-size="10.00">::getBitStreamLength</text>
</a>
</g>
</g>
<!-- Node10&#45;&gt;Node21 -->
<g id="edge25" class="edge">
<title>Node10&#45;&gt;Node21</title>
<path fill="none" stroke="midnightblue" d="M254.65,-147.41C260.44,-144.58 266.04,-141.3 271,-137.5 292.46,-121.07 285.41,-104.76 307,-88.5 308.83,-87.12 310.76,-85.81 312.74,-84.57"/>
<polygon fill="midnightblue" stroke="midnightblue" points="314.74,-87.47 321.8,-79.57 311.35,-81.34 314.74,-87.47"/>
</g>
<!-- Node22 -->
<g id="node22" class="node">
<title>Node22</title>
<g id="a_node22"><a xlink:href="classsignal__easel_1_1BitStream.html#a5b5339586e09ca5c25a7e9ded0118ffb" target="_top" xlink:title="Returns the next bit of the bit stream that will be encoded.">
<polygon fill="none" stroke="black" points="307,-0.5 307,-30.5 439,-30.5 439,-0.5 307,-0.5"/>
<text text-anchor="start" x="315" y="-18.5" font-family="Helvetica,sans-Serif" font-size="10.00">signal_easel::BitStream</text>
<text text-anchor="middle" x="373" y="-7.5" font-family="Helvetica,sans-Serif" font-size="10.00">::popNextBit</text>
</a>
</g>
</g>
<!-- Node10&#45;&gt;Node22 -->
<g id="edge26" class="edge">
<title>Node10&#45;&gt;Node22</title>
<path fill="none" stroke="midnightblue" d="M258,-147.4C262.76,-144.63 267.21,-141.36 271,-137.5 303.52,-104.4 274.22,-72.34 307,-39.5 308.06,-38.44 309.18,-37.42 310.33,-36.45"/>
<polygon fill="midnightblue" stroke="midnightblue" points="312.38,-39.28 318.53,-30.65 308.34,-33.57 312.38,-39.28"/>
</g>
<!-- Node12&#45;&gt;Node11 -->
<g id="edge13" class="edge">
<title>Node12&#45;&gt;Node11</title>
<path fill="none" stroke="midnightblue" d="M439.22,-211.5C453.59,-211.5 468.93,-211.5 483.66,-211.5"/>
<polygon fill="midnightblue" stroke="midnightblue" points="483.74,-215 493.74,-211.5 483.74,-208 483.74,-215"/>
</g>
<!-- Node13&#45;&gt;Node11 -->
<g id="edge15" class="edge">
<title>Node13&#45;&gt;Node11</title>
<path fill="none" stroke="midnightblue" d="M430.76,-177.53C450.3,-182.71 472.34,-188.55 492.58,-193.91"/>
<polygon fill="midnightblue" stroke="midnightblue" points="491.78,-197.32 502.34,-196.49 493.57,-190.55 491.78,-197.32"/>
</g>
<!-- Node15 -->
<g id="node15" class="node">
<title>Node15</title>
<g id="a_node15"><a xlink:href="namespacesignal__easel_1_1ax25.html#a6d799107f96d783e620cd508488ab8eb" target="_top" xlink:title="Calculate the Frame Check Sequence (FCS) on a vector of bytes.">
<polygon fill="none" stroke="black" points="506.5,-147.5 506.5,-177.5 613.5,-177.5 613.5,-147.5 506.5,-147.5"/>
<text text-anchor="start" x="514.5" y="-165.5" font-family="Helvetica,sans-Serif" font-size="10.00">signal_easel::ax25</text>
<text text-anchor="middle" x="560" y="-154.5" font-family="Helvetica,sans-Serif" font-size="10.00">::calculateFcs</text>
</a>
</g>
</g>
<!-- Node14&#45;&gt;Node15 -->
<g id="edge17" class="edge">
<title>Node14&#45;&gt;Node15</title>
<path fill="none" stroke="midnightblue" d="M430.01,-128.33C451.04,-133.9 475.06,-140.27 496.63,-145.98"/>
<polygon fill="midnightblue" stroke="midnightblue" points="495.78,-149.38 506.35,-148.55 497.58,-142.61 495.78,-149.38"/>
</g>
<!-- Node16 -->
<g id="node16" class="node">
<title>Node16</title>
<g id="a_node16"><a xlink:href="classsignal__easel_1_1ax25_1_1Address.html#a0c31737081a9184b56dc32150b23cb0a" target="_top" xlink:title="Get the address as a byte array.">
<polygon fill="none" stroke="black" points="489,-98.5 489,-128.5 631,-128.5 631,-98.5 489,-98.5"/>
<text text-anchor="start" x="497" y="-116.5" font-family="Helvetica,sans-Serif" font-size="10.00">signal_easel::ax25</text>
<text text-anchor="middle" x="560" y="-105.5" font-family="Helvetica,sans-Serif" font-size="10.00">::Address::encodeAddress</text>
</a>
</g>
</g>
<!-- Node14&#45;&gt;Node16 -->
<g id="edge18" class="edge">
<title>Node14&#45;&gt;Node16</title>
<path fill="none" stroke="midnightblue" d="M430.01,-113.5C445.33,-113.5 462.25,-113.5 478.65,-113.5"/>
<polygon fill="midnightblue" stroke="midnightblue" points="478.77,-117 488.77,-113.5 478.77,-110 478.77,-117"/>
</g>
<!-- Node17 -->
<g id="node17" class="node">
<title>Node17</title>
<g id="a_node17"><a xlink:href="classsignal__easel_1_1ax25_1_1Frame.html#a640edeabbda34e78cc243e3561747bf9" target="_top" xlink:title=" ">
<polygon fill="none" stroke="black" points="499,-49.5 499,-79.5 621,-79.5 621,-49.5 499,-49.5"/>
<text text-anchor="start" x="507" y="-67.5" font-family="Helvetica,sans-Serif" font-size="10.00">signal_easel::ax25</text>
<text text-anchor="middle" x="560" y="-56.5" font-family="Helvetica,sans-Serif" font-size="10.00">::Frame::isFrameValid</text>
</a>
</g>
</g>
<!-- Node14&#45;&gt;Node17 -->
<g id="edge20" class="edge">
<title>Node14&#45;&gt;Node17</title>
<path fill="none" stroke="midnightblue" d="M430.01,-98.67C449.66,-93.46 471.92,-87.56 492.36,-82.15"/>
<polygon fill="midnightblue" stroke="midnightblue" points="493.45,-85.48 502.22,-79.54 491.66,-78.72 493.45,-85.48"/>
</g>
<!-- Node20 -->
<g id="node20" class="node">
<title>Node20</title>
<g id="a_node20"><a xlink:href="classsignal__easel_1_1ax25_1_1Address.html#a1a5bc573535cfc1f8723c121e3451e7c" target="_top" xlink:title="Set the as the last address in the AX.25 frame (Sets a bit in the ssid byte)">
<polygon fill="none" stroke="black" points="485,-0.5 485,-30.5 635,-30.5 635,-0.5 485,-0.5"/>
<text text-anchor="start" x="493" y="-18.5" font-family="Helvetica,sans-Serif" font-size="10.00">signal_easel::ax25</text>
<text text-anchor="middle" x="560" y="-7.5" font-family="Helvetica,sans-Serif" font-size="10.00">::Address::setIsLastAddress</text>
</a>
</g>
</g>
<!-- Node14&#45;&gt;Node20 -->
<g id="edge24" class="edge">
<title>Node14&#45;&gt;Node20</title>
<path fill="none" stroke="midnightblue" d="M422.52,-98.44C428.35,-95.61 434,-92.32 439,-88.5 460.48,-72.1 452.82,-54.93 475,-39.5 477.26,-37.93 479.62,-36.46 482.05,-35.09"/>
<polygon fill="midnightblue" stroke="midnightblue" points="483.78,-38.14 491.15,-30.53 480.64,-31.88 483.78,-38.14"/>
</g>
<!-- Node16&#45;&gt;Node5 -->
<g id="edge19" class="edge">
<title>Node16&#45;&gt;Node5</title>
<path fill="none" stroke="midnightblue" d="M628.2,-128.67C634.09,-131.18 639.79,-134.11 645,-137.5 683.22,-162.39 714.38,-206.36 731.26,-233.61"/>
<polygon fill="midnightblue" stroke="midnightblue" points="728.46,-235.74 736.62,-242.49 734.45,-232.12 728.46,-235.74"/>
</g>
<!-- Node18 -->
<g id="node18" class="node">
<title>Node18</title>
<g id="a_node18"><a xlink:href="classsignal__easel_1_1ax25_1_1Address.html#aae81920cfd0dc7d89cb107f9d825488c" target="_top" xlink:title="If the address is valid (can be encoded correctly or was decoded)">
<polygon fill="none" stroke="black" points="692.5,-73.5 692.5,-103.5 799.5,-103.5 799.5,-73.5 692.5,-73.5"/>
<text text-anchor="start" x="700.5" y="-91.5" font-family="Helvetica,sans-Serif" font-size="10.00">signal_easel::ax25</text>
<text text-anchor="middle" x="746" y="-80.5" font-family="Helvetica,sans-Serif" font-size="10.00">::Address::isValid</text>
</a>
</g>
</g>
<!-- Node17&#45;&gt;Node18 -->
<g id="edge21" class="edge">
<title>Node17&#45;&gt;Node18</title>
<path fill="none" stroke="midnightblue" d="M621.25,-72.36C640.79,-74.91 662.52,-77.74 682.24,-80.31"/>
<polygon fill="midnightblue" stroke="midnightblue" points="681.99,-83.81 692.35,-81.63 682.89,-76.87 681.99,-83.81"/>
</g>
<!-- Node18&#45;&gt;Node8 -->
<g id="edge23" class="edge">
<title>Node18&#45;&gt;Node8</title>
<path fill="none" stroke="midnightblue" d="M794.34,-103.54C810.92,-108.59 829.71,-114.05 847,-118.5 911.28,-135.04 985.34,-150.66 1037.93,-161.18"/>
<polygon fill="midnightblue" stroke="midnightblue" points="1037.34,-164.63 1047.83,-163.15 1038.7,-157.76 1037.34,-164.63"/>
</g>
<!-- Node19 -->
<g id="node19" class="node">
<title>Node19</title>
<g id="a_node19"><a xlink:href="classsignal__easel_1_1ax25_1_1Address.html#a56c55b48bfc809a33aa0e22a5aeb95ca" target="_top" xlink:title=" ">
<polygon fill="none" stroke="black" points="858,-68 858,-109 1001,-109 1001,-68 858,-68"/>
<text text-anchor="start" x="866" y="-97" font-family="Helvetica,sans-Serif" font-size="10.00">signal_easel::ax25</text>
<text text-anchor="start" x="866" y="-86" font-family="Helvetica,sans-Serif" font-size="10.00">::Address::isAddressString</text>
<text text-anchor="middle" x="929.5" y="-75" font-family="Helvetica,sans-Serif" font-size="10.00">Valid</text>
</a>
</g>
</g>
<!-- Node18&#45;&gt;Node19 -->
<g id="edge22" class="edge">
<title>Node18&#45;&gt;Node19</title>
<path fill="none" stroke="midnightblue" d="M799.99,-88.5C814.98,-88.5 831.64,-88.5 847.87,-88.5"/>
<polygon fill="midnightblue" stroke="midnightblue" points="847.89,-92 857.89,-88.5 847.89,-85 847.89,-92"/>
</g>
</g>
</svg>
