<?xml version="1.0" encoding="UTF-8" standalone="no"?>
<!DOCTYPE svg PUBLIC "-//W3C//DTD SVG 1.1//EN"
 "http://www.w3.org/Graphics/SVG/1.1/DTD/svg11.dtd">
<!-- Generated by graphviz version 2.43.0 (0)
 -->
<!-- Title: signal_easel::aprs::telemetry::validateCoefficient Pages: 1 -->
<svg width="976pt" height="296pt"
 viewBox="0.00 0.00 976.00 296.00" xmlns="http://www.w3.org/2000/svg" xmlns:xlink="http://www.w3.org/1999/xlink">
<g id="graph0" class="graph" transform="scale(1 1) rotate(0) translate(4 292)">
<title>signal_easel::aprs::telemetry::validateCoefficient</title>
<!-- Node1 -->
<g id="node1" class="node">
<title>Node1</title>
<g id="a_node1"><a xlink:title="Validate the format of a coefficient.">
<polygon fill="#bfbfbf" stroke="black" points="800,-115.5 800,-145.5 968,-145.5 968,-115.5 800,-115.5"/>
<text text-anchor="start" x="808" y="-133.5" font-family="Helvetica,sans-Serif" font-size="10.00">signal_easel::aprs</text>
<text text-anchor="middle" x="884" y="-122.5" font-family="Helvetica,sans-Serif" font-size="10.00">::telemetry::validateCoefficient</text>
</a>
</g>
</g>
<!-- Node2 -->
<g id="node2" class="node">
<title>Node2</title>
<g id="a_node2"><a xlink:href="classsignal__easel_1_1aprs_1_1telemetry_1_1TelemetryTranscoder.html#a581c58aa360dc40ddcbc475b96b25942" target="_top" xlink:title="Decode the parameter coefficients message.">
<polygon fill="none" stroke="black" points="560,-230 560,-271 764,-271 764,-230 560,-230"/>
<text text-anchor="start" x="568" y="-259" font-family="Helvetica,sans-Serif" font-size="10.00">signal_easel::aprs</text>
<text text-anchor="start" x="568" y="-248" font-family="Helvetica,sans-Serif" font-size="10.00">::telemetry::TelemetryTranscoder</text>
<text text-anchor="middle" x="662" y="-237" font-family="Helvetica,sans-Serif" font-size="10.00">::decodeParameterCoefficientMessage</text>
</a>
</g>
</g>
<!-- Node1&#45;&gt;Node2 -->
<g id="edge1" class="edge">
<title>Node1&#45;&gt;Node2</title>
<path fill="none" stroke="midnightblue" d="M859.46,-152.41C836.61,-172.63 800.19,-202.2 764,-220.5 757.14,-223.97 749.82,-227.1 742.36,-229.92"/>
<polygon fill="midnightblue" stroke="midnightblue" points="861.85,-154.97 866.95,-145.69 857.17,-149.76 861.85,-154.97"/>
</g>
<!-- Node7 -->
<g id="node7" class="node">
<title>Node7</title>
<g id="a_node7"><a xlink:href="classsignal__easel_1_1aprs_1_1telemetry_1_1AnalogParameter.html#a7c5705a070a081de4a4888dc7c38557d" target="_top" xlink:title="Set the A coefficient in the formula y = ax^2 + bx + c.">
<polygon fill="none" stroke="black" points="582,-50 582,-91 742,-91 742,-50 582,-50"/>
<text text-anchor="start" x="590" y="-79" font-family="Helvetica,sans-Serif" font-size="10.00">signal_easel::aprs</text>
<text text-anchor="start" x="590" y="-68" font-family="Helvetica,sans-Serif" font-size="10.00">::telemetry::AnalogParameter</text>
<text text-anchor="middle" x="662" y="-57" font-family="Helvetica,sans-Serif" font-size="10.00">::setCoefficientA</text>
</a>
</g>
</g>
<!-- Node1&#45;&gt;Node7 -->
<g id="edge6" class="edge">
<title>Node1&#45;&gt;Node7</title>
<path fill="none" stroke="midnightblue" d="M818.01,-112.77C792.96,-105.94 764.14,-98.08 738.21,-91.01"/>
<polygon fill="midnightblue" stroke="midnightblue" points="817.2,-116.18 827.77,-115.44 819.04,-109.43 817.2,-116.18"/>
</g>
<!-- Node11 -->
<g id="node11" class="node">
<title>Node11</title>
<g id="a_node11"><a xlink:href="classsignal__easel_1_1aprs_1_1telemetry_1_1AnalogParameter.html#a8e660d1c9ddcd71c21ac1ea4750e1a81" target="_top" xlink:title="Set the B coefficient in the formula y = ax^2 + bx + c.">
<polygon fill="none" stroke="black" points="582,-170 582,-211 742,-211 742,-170 582,-170"/>
<text text-anchor="start" x="590" y="-199" font-family="Helvetica,sans-Serif" font-size="10.00">signal_easel::aprs</text>
<text text-anchor="start" x="590" y="-188" font-family="Helvetica,sans-Serif" font-size="10.00">::telemetry::AnalogParameter</text>
<text text-anchor="middle" x="662" y="-177" font-family="Helvetica,sans-Serif" font-size="10.00">::setCoefficientB</text>
</a>
</g>
</g>
<!-- Node1&#45;&gt;Node11 -->
<g id="edge10" class="edge">
<title>Node1&#45;&gt;Node11</title>
<path fill="none" stroke="midnightblue" d="M818.01,-148.23C792.96,-155.06 764.14,-162.92 738.21,-169.99"/>
<polygon fill="midnightblue" stroke="midnightblue" points="819.04,-151.57 827.77,-145.56 817.2,-144.82 819.04,-151.57"/>
</g>
<!-- Node12 -->
<g id="node12" class="node">
<title>Node12</title>
<g id="a_node12"><a xlink:href="classsignal__easel_1_1aprs_1_1telemetry_1_1AnalogParameter.html#ad289542e484756aae17ca7c77b6cb58e" target="_top" xlink:title="Set the C coefficient in the formula y = ax^2 + bx + c.">
<polygon fill="none" stroke="black" points="582,-110 582,-151 742,-151 742,-110 582,-110"/>
<text text-anchor="start" x="590" y="-139" font-family="Helvetica,sans-Serif" font-size="10.00">signal_easel::aprs</text>
<text text-anchor="start" x="590" y="-128" font-family="Helvetica,sans-Serif" font-size="10.00">::telemetry::AnalogParameter</text>
<text text-anchor="middle" x="662" y="-117" font-family="Helvetica,sans-Serif" font-size="10.00">::setCoefficientC</text>
</a>
</g>
</g>
<!-- Node1&#45;&gt;Node12 -->
<g id="edge12" class="edge">
<title>Node1&#45;&gt;Node12</title>
<path fill="none" stroke="midnightblue" d="M789.57,-130.5C773.83,-130.5 757.63,-130.5 742.29,-130.5"/>
<polygon fill="midnightblue" stroke="midnightblue" points="789.83,-134 799.83,-130.5 789.83,-127 789.83,-134"/>
</g>
<!-- Node13 -->
<g id="node13" class="node">
<title>Node13</title>
<g id="a_node13"><a xlink:href="namespacesignal__easel_1_1aprs_1_1telemetry.html#a0e65807c1f6ab9b52169a21387a00d71" target="_top" xlink:title="Wrapper for validateCoefficient that does not require the numerical value.">
<polygon fill="none" stroke="black" points="578,-0.5 578,-30.5 746,-30.5 746,-0.5 578,-0.5"/>
<text text-anchor="start" x="586" y="-18.5" font-family="Helvetica,sans-Serif" font-size="10.00">signal_easel::aprs</text>
<text text-anchor="middle" x="662" y="-7.5" font-family="Helvetica,sans-Serif" font-size="10.00">::telemetry::validateCoefficient</text>
</a>
</g>
</g>
<!-- Node1&#45;&gt;Node13 -->
<g id="edge14" class="edge">
<title>Node1&#45;&gt;Node13</title>
<path fill="none" stroke="midnightblue" d="M860.03,-108.56C837.35,-88.06 800.81,-58.06 764,-40.5 755.93,-36.65 747.2,-33.35 738.38,-30.54"/>
<polygon fill="midnightblue" stroke="midnightblue" points="857.72,-111.19 867.45,-115.38 862.46,-106.03 857.72,-111.19"/>
</g>
<!-- Node3 -->
<g id="node3" class="node">
<title>Node3</title>
<g id="a_node3"><a xlink:href="classsignal__easel_1_1aprs_1_1telemetry_1_1TelemetryTranscoder.html#a8728ebd6e5dbd7ca50a219fda62b7375" target="_top" xlink:title="Takes in the information field of an APRS telemetry message and decodes it with the appropriate metho...">
<polygon fill="none" stroke="black" points="347,-230 347,-271 524,-271 524,-230 347,-230"/>
<text text-anchor="start" x="355" y="-259" font-family="Helvetica,sans-Serif" font-size="10.00">signal_easel::aprs</text>
<text text-anchor="start" x="355" y="-248" font-family="Helvetica,sans-Serif" font-size="10.00">::telemetry::TelemetryTranscoder</text>
<text text-anchor="middle" x="435.5" y="-237" font-family="Helvetica,sans-Serif" font-size="10.00">::decodeMessage</text>
</a>
</g>
</g>
<!-- Node2&#45;&gt;Node3 -->
<g id="edge2" class="edge">
<title>Node2&#45;&gt;Node3</title>
<path fill="none" stroke="midnightblue" d="M549.87,-250.5C541.3,-250.5 532.72,-250.5 524.34,-250.5"/>
<polygon fill="midnightblue" stroke="midnightblue" points="549.91,-254 559.91,-250.5 549.91,-247 549.91,-254"/>
</g>
<!-- Node4 -->
<g id="node4" class="node">
<title>Node4</title>
<g id="a_node4"><a xlink:href="classsignal__easel_1_1aprs_1_1Demodulator.html#a97af61f7afb63db275020ba523abcc3a" target="_top" xlink:title="If the packet was a telemetry packet, this function will try to parse the packet and populate the tel...">
<polygon fill="none" stroke="black" points="143,-230 143,-271 311,-271 311,-230 143,-230"/>
<text text-anchor="start" x="151" y="-259" font-family="Helvetica,sans-Serif" font-size="10.00">signal_easel::aprs</text>
<text text-anchor="start" x="151" y="-248" font-family="Helvetica,sans-Serif" font-size="10.00">::Demodulator::parseTelemetry</text>
<text text-anchor="middle" x="227" y="-237" font-family="Helvetica,sans-Serif" font-size="10.00">Packet</text>
</a>
</g>
</g>
<!-- Node3&#45;&gt;Node4 -->
<g id="edge3" class="edge">
<title>Node3&#45;&gt;Node4</title>
<path fill="none" stroke="midnightblue" d="M336.86,-250.5C328.25,-250.5 319.58,-250.5 311.11,-250.5"/>
<polygon fill="midnightblue" stroke="midnightblue" points="336.93,-254 346.93,-250.5 336.93,-247 336.93,-254"/>
</g>
<!-- Node5 -->
<g id="node5" class="node">
<title>Node5</title>
<g id="a_node5"><a xlink:href="classsignal__easel_1_1aprs_1_1Receiver.html#afbf7869aceaf2ea7ab0be8b9af16e818" target="_top" xlink:title=" ">
<polygon fill="none" stroke="black" points="0,-257.5 0,-287.5 107,-287.5 107,-257.5 0,-257.5"/>
<text text-anchor="start" x="8" y="-275.5" font-family="Helvetica,sans-Serif" font-size="10.00">signal_easel::aprs</text>
<text text-anchor="middle" x="53.5" y="-264.5" font-family="Helvetica,sans-Serif" font-size="10.00">::Receiver::decode</text>
</a>
</g>
</g>
<!-- Node4&#45;&gt;Node5 -->
<g id="edge4" class="edge">
<title>Node4&#45;&gt;Node5</title>
<path fill="none" stroke="midnightblue" d="M132.83,-262.45C124.05,-263.58 115.37,-264.69 107.17,-265.74"/>
<polygon fill="midnightblue" stroke="midnightblue" points="133.29,-265.92 142.76,-261.18 132.4,-258.98 133.29,-265.92"/>
</g>
<!-- Node6 -->
<g id="node6" class="node">
<title>Node6</title>
<g id="a_node6"><a xlink:href="aprs__test_8cpp.html#a8de4b7853d7e8c5ad2bb05a656082327" target="_top" xlink:title=" ">
<polygon fill="none" stroke="black" points="33,-219 33,-238 74,-238 74,-219 33,-219"/>
<text text-anchor="middle" x="53.5" y="-226" font-family="Helvetica,sans-Serif" font-size="10.00">TEST</text>
</a>
</g>
</g>
<!-- Node4&#45;&gt;Node6 -->
<g id="edge5" class="edge">
<title>Node4&#45;&gt;Node6</title>
<path fill="none" stroke="midnightblue" d="M132.57,-238.51C110.43,-235.68 88.99,-232.92 74.2,-231.03"/>
<polygon fill="midnightblue" stroke="midnightblue" points="132.4,-242.02 142.76,-239.82 133.29,-235.08 132.4,-242.02"/>
</g>
<!-- Node8 -->
<g id="node8" class="node">
<title>Node8</title>
<g id="a_node8"><a xlink:href="classsignal__easel_1_1aprs_1_1telemetry_1_1AnalogParameter.html#a4fd035e5379315eaab869673edb0477a" target="_top" xlink:title="Set all coefficients in the formula y = ax^2 + bx + c.">
<polygon fill="none" stroke="black" points="355.5,-110 355.5,-151 515.5,-151 515.5,-110 355.5,-110"/>
<text text-anchor="start" x="363.5" y="-139" font-family="Helvetica,sans-Serif" font-size="10.00">signal_easel::aprs</text>
<text text-anchor="start" x="363.5" y="-128" font-family="Helvetica,sans-Serif" font-size="10.00">::telemetry::AnalogParameter</text>
<text text-anchor="middle" x="435.5" y="-117" font-family="Helvetica,sans-Serif" font-size="10.00">::setCoefficients</text>
</a>
</g>
</g>
<!-- Node7&#45;&gt;Node8 -->
<g id="edge7" class="edge">
<title>Node7&#45;&gt;Node8</title>
<path fill="none" stroke="midnightblue" d="M574.3,-93.67C554.21,-99.04 532.97,-104.72 513.35,-109.96"/>
<polygon fill="midnightblue" stroke="midnightblue" points="575.3,-97.03 584.05,-91.06 573.49,-90.27 575.3,-97.03"/>
</g>
<!-- Node10 -->
<g id="node10" class="node">
<title>Node10</title>
<g id="a_node10"><a xlink:href="aprs__telemetry__parameter__test_8cpp.html#a35cf05db9e0ef8d678cb9cce3c6e6b27" target="_top" xlink:title=" ">
<polygon fill="none" stroke="black" points="415,-61 415,-80 456,-80 456,-61 415,-61"/>
<text text-anchor="middle" x="435.5" y="-68" font-family="Helvetica,sans-Serif" font-size="10.00">TEST</text>
</a>
</g>
</g>
<!-- Node7&#45;&gt;Node10 -->
<g id="edge9" class="edge">
<title>Node7&#45;&gt;Node10</title>
<path fill="none" stroke="midnightblue" d="M571.73,-70.5C529.22,-70.5 482.12,-70.5 456.24,-70.5"/>
<polygon fill="midnightblue" stroke="midnightblue" points="571.85,-74 581.85,-70.5 571.85,-67 571.85,-74"/>
</g>
<!-- Node9 -->
<g id="node9" class="node">
<title>Node9</title>
<g id="a_node9"><a xlink:href="aprs__telemetry__parameter__test_8cpp.html#aa8357c93b7e821465e22baa9912ace89" target="_top" xlink:title=" ">
<polygon fill="none" stroke="black" points="206.5,-121 206.5,-140 247.5,-140 247.5,-121 206.5,-121"/>
<text text-anchor="middle" x="227" y="-128" font-family="Helvetica,sans-Serif" font-size="10.00">TEST</text>
</a>
</g>
</g>
<!-- Node8&#45;&gt;Node9 -->
<g id="edge8" class="edge">
<title>Node8&#45;&gt;Node9</title>
<path fill="none" stroke="midnightblue" d="M345.13,-130.5C308.98,-130.5 270.52,-130.5 247.91,-130.5"/>
<polygon fill="midnightblue" stroke="midnightblue" points="345.25,-134 355.25,-130.5 345.25,-127 345.25,-134"/>
</g>
<!-- Node11&#45;&gt;Node8 -->
<g id="edge11" class="edge">
<title>Node11&#45;&gt;Node8</title>
<path fill="none" stroke="midnightblue" d="M574.3,-167.33C554.21,-161.96 532.97,-156.28 513.35,-151.04"/>
<polygon fill="midnightblue" stroke="midnightblue" points="573.49,-170.73 584.05,-169.94 575.3,-163.97 573.49,-170.73"/>
</g>
<!-- Node12&#45;&gt;Node8 -->
<g id="edge13" class="edge">
<title>Node12&#45;&gt;Node8</title>
<path fill="none" stroke="midnightblue" d="M571.67,-130.5C553.17,-130.5 533.8,-130.5 515.69,-130.5"/>
<polygon fill="midnightblue" stroke="midnightblue" points="571.85,-134 581.85,-130.5 571.85,-127 571.85,-134"/>
</g>
</g>
</svg>
