<?xml version="1.0" encoding="UTF-8" standalone="no"?>
<!DOCTYPE svg PUBLIC "-//W3C//DTD SVG 1.1//EN"
 "http://www.w3.org/Graphics/SVG/1.1/DTD/svg11.dtd">
<!-- Generated by graphviz version 2.43.0 (0)
 -->
<!-- Title: signal_easel::AddRequiredFields Pages: 1 -->
<svg width="883pt" height="130pt"
 viewBox="0.00 0.00 883.00 129.50" xmlns="http://www.w3.org/2000/svg" xmlns:xlink="http://www.w3.org/1999/xlink">
<g id="graph0" class="graph" transform="scale(1 1) rotate(0) translate(4 125.5)">
<title>signal_easel::AddRequiredFields</title>
<!-- Node1 -->
<g id="node1" class="node">
<title>Node1</title>
<g id="a_node1"><a xlink:title=" ">
<polygon fill="#bfbfbf" stroke="black" points="0,-52.5 0,-82.5 146,-82.5 146,-52.5 0,-52.5"/>
<text text-anchor="start" x="8" y="-70.5" font-family="Helvetica,sans-Serif" font-size="10.00">signal_easel::AddRequired</text>
<text text-anchor="middle" x="73" y="-59.5" font-family="Helvetica,sans-Serif" font-size="10.00">Fields</text>
</a>
</g>
</g>
<!-- Node2 -->
<g id="node2" class="node">
<title>Node2</title>
<g id="a_node2"><a xlink:href="namespacesignal__easel.html#ac803523134c5f20bcc98143397f8ff5d" target="_top" xlink:title=" ">
<polygon fill="none" stroke="black" points="183,-102 183,-121 351,-121 351,-102 183,-102"/>
<text text-anchor="middle" x="267" y="-109" font-family="Helvetica,sans-Serif" font-size="10.00">signal_easel::CheckPacketData</text>
</a>
</g>
</g>
<!-- Node1&#45;&gt;Node2 -->
<g id="edge1" class="edge">
<title>Node1&#45;&gt;Node2</title>
<path fill="none" stroke="midnightblue" d="M138.81,-82.56C153.03,-85.85 168.02,-89.3 182,-92.5 192.27,-94.85 203.25,-97.35 213.78,-99.73"/>
<polygon fill="midnightblue" stroke="midnightblue" points="213.16,-103.18 223.69,-101.97 214.71,-96.35 213.16,-103.18"/>
</g>
<!-- Node3 -->
<g id="node3" class="node">
<title>Node3</title>
<g id="a_node3"><a xlink:href="classsignal__easel_1_1ax25_1_1Frame.html#a57b163ece54317da8d95f3b18b47c23d" target="_top" xlink:title="setters/getters for the frame.">
<polygon fill="none" stroke="black" points="182,-52.5 182,-82.5 352,-82.5 352,-52.5 182,-52.5"/>
<text text-anchor="start" x="190" y="-70.5" font-family="Helvetica,sans-Serif" font-size="10.00">signal_easel::ax25</text>
<text text-anchor="middle" x="267" y="-59.5" font-family="Helvetica,sans-Serif" font-size="10.00">::Frame::setDestinationAddress</text>
</a>
</g>
</g>
<!-- Node1&#45;&gt;Node3 -->
<g id="edge2" class="edge">
<title>Node1&#45;&gt;Node3</title>
<path fill="none" stroke="midnightblue" d="M146.04,-67.5C154.45,-67.5 163.13,-67.5 171.78,-67.5"/>
<polygon fill="midnightblue" stroke="midnightblue" points="171.92,-71 181.92,-67.5 171.92,-64 171.92,-71"/>
</g>
<!-- Node8 -->
<g id="node8" class="node">
<title>Node8</title>
<g id="a_node8"><a xlink:href="classsignal__easel_1_1ax25_1_1Frame.html#a402d26a81f82bb5c477e8930b75a771e" target="_top" xlink:title=" ">
<polygon fill="none" stroke="black" points="194,-3.5 194,-33.5 340,-33.5 340,-3.5 194,-3.5"/>
<text text-anchor="start" x="202" y="-21.5" font-family="Helvetica,sans-Serif" font-size="10.00">signal_easel::ax25</text>
<text text-anchor="middle" x="267" y="-10.5" font-family="Helvetica,sans-Serif" font-size="10.00">::Frame::setSourceAddress</text>
</a>
</g>
</g>
<!-- Node1&#45;&gt;Node8 -->
<g id="edge7" class="edge">
<title>Node1&#45;&gt;Node8</title>
<path fill="none" stroke="midnightblue" d="M132.91,-52.47C153.28,-47.27 176.27,-41.4 197.35,-36.02"/>
<polygon fill="midnightblue" stroke="midnightblue" points="198.38,-39.37 207.2,-33.51 196.65,-32.59 198.38,-39.37"/>
</g>
<!-- Node4 -->
<g id="node4" class="node">
<title>Node4</title>
<g id="a_node4"><a xlink:href="classsignal__easel_1_1ax25_1_1Address.html#a7fa6b0ef4241413893f201660991e4ea" target="_top" xlink:title="Checks if the address is valid, if not throws an exception with a specific error code.">
<polygon fill="none" stroke="black" points="388,-27.5 388,-57.5 518,-57.5 518,-27.5 388,-27.5"/>
<text text-anchor="start" x="396" y="-45.5" font-family="Helvetica,sans-Serif" font-size="10.00">signal_easel::ax25</text>
<text text-anchor="middle" x="453" y="-34.5" font-family="Helvetica,sans-Serif" font-size="10.00">::Address::assertIsValid</text>
</a>
</g>
</g>
<!-- Node3&#45;&gt;Node4 -->
<g id="edge3" class="edge">
<title>Node3&#45;&gt;Node4</title>
<path fill="none" stroke="midnightblue" d="M352.19,-56.06C360.74,-54.9 369.37,-53.73 377.8,-52.58"/>
<polygon fill="midnightblue" stroke="midnightblue" points="378.52,-56.02 387.95,-51.2 377.57,-49.08 378.52,-56.02"/>
</g>
<!-- Node5 -->
<g id="node5" class="node">
<title>Node5</title>
<g id="a_node5"><a xlink:href="classsignal__easel_1_1ax25_1_1Address.html#af34b361f739b7995e7816b7a04465828" target="_top" xlink:title=" ">
<polygon fill="none" stroke="black" points="554,-50 554,-91 719,-91 719,-50 554,-50"/>
<text text-anchor="start" x="562" y="-79" font-family="Helvetica,sans-Serif" font-size="10.00">signal_easel::ax25</text>
<text text-anchor="start" x="562" y="-68" font-family="Helvetica,sans-Serif" font-size="10.00">::Address::assertAddressString</text>
<text text-anchor="middle" x="636.5" y="-57" font-family="Helvetica,sans-Serif" font-size="10.00">IsValid</text>
</a>
</g>
</g>
<!-- Node4&#45;&gt;Node5 -->
<g id="edge4" class="edge">
<title>Node4&#45;&gt;Node5</title>
<path fill="none" stroke="midnightblue" d="M518.25,-52.41C526.53,-53.69 535.13,-55.02 543.75,-56.35"/>
<polygon fill="midnightblue" stroke="midnightblue" points="543.44,-59.84 553.85,-57.9 544.5,-52.92 543.44,-59.84"/>
</g>
<!-- Node6 -->
<g id="node6" class="node">
<title>Node6</title>
<g id="a_node6"><a xlink:href="classsignal__easel_1_1ax25_1_1Address.html#a8b44c6e311d3462bd86eda03c1d384f0" target="_top" xlink:title=" ">
<polygon fill="none" stroke="black" points="561.5,-0.5 561.5,-30.5 711.5,-30.5 711.5,-0.5 561.5,-0.5"/>
<text text-anchor="start" x="569.5" y="-18.5" font-family="Helvetica,sans-Serif" font-size="10.00">signal_easel::ax25</text>
<text text-anchor="middle" x="636.5" y="-7.5" font-family="Helvetica,sans-Serif" font-size="10.00">::Address::assertSsidIsValid</text>
</a>
</g>
</g>
<!-- Node4&#45;&gt;Node6 -->
<g id="edge5" class="edge">
<title>Node4&#45;&gt;Node6</title>
<path fill="none" stroke="midnightblue" d="M518.25,-32.94C528.94,-31.35 540.18,-29.68 551.28,-28.03"/>
<polygon fill="midnightblue" stroke="midnightblue" points="552.05,-31.45 561.42,-26.52 551.02,-24.53 552.05,-31.45"/>
</g>
<!-- Node7 -->
<g id="node7" class="node">
<title>Node7</title>
<g id="a_node7"><a xlink:href="classsignal__easel_1_1ax25_1_1Address.html#ad66c149737cc4aa52ae9e8860176acf3" target="_top" xlink:title=" ">
<polygon fill="none" stroke="black" points="755,-0.5 755,-30.5 875,-30.5 875,-0.5 755,-0.5"/>
<text text-anchor="start" x="763" y="-18.5" font-family="Helvetica,sans-Serif" font-size="10.00">signal_easel::ax25</text>
<text text-anchor="middle" x="815" y="-7.5" font-family="Helvetica,sans-Serif" font-size="10.00">::Address::isSsidValid</text>
</a>
</g>
</g>
<!-- Node6&#45;&gt;Node7 -->
<g id="edge6" class="edge">
<title>Node6&#45;&gt;Node7</title>
<path fill="none" stroke="midnightblue" d="M711.58,-15.5C722.52,-15.5 733.76,-15.5 744.6,-15.5"/>
<polygon fill="midnightblue" stroke="midnightblue" points="744.84,-19 754.84,-15.5 744.84,-12 744.84,-19"/>
</g>
<!-- Node8&#45;&gt;Node4 -->
<g id="edge8" class="edge">
<title>Node8&#45;&gt;Node4</title>
<path fill="none" stroke="midnightblue" d="M340.19,-27.92C352.46,-29.52 365.23,-31.18 377.56,-32.79"/>
<polygon fill="midnightblue" stroke="midnightblue" points="377.42,-36.3 387.79,-34.12 378.32,-29.36 377.42,-36.3"/>
</g>
</g>
</svg>
