<?xml version="1.0" encoding="UTF-8" standalone="no"?>
<!DOCTYPE svg PUBLIC "-//W3C//DTD SVG 1.1//EN"
 "http://www.w3.org/Graphics/SVG/1.1/DTD/svg11.dtd">
<!-- Generated by graphviz version 2.43.0 (0)
 -->
<!-- Title: signal_easel::aprs::AddRequiredFields Pages: 1 -->
<svg width="850pt" height="140pt"
 viewBox="0.00 0.00 850.00 140.00" xmlns="http://www.w3.org/2000/svg" xmlns:xlink="http://www.w3.org/1999/xlink">
<g id="graph0" class="graph" transform="scale(1 1) rotate(0) translate(4 136)">
<title>signal_easel::aprs::AddRequiredFields</title>
<!-- Node1 -->
<g id="node1" class="node">
<title>Node1</title>
<g id="a_node1"><a xlink:title=" ">
<polygon fill="#bfbfbf" stroke="black" points="0,-52.5 0,-82.5 113,-82.5 113,-52.5 0,-52.5"/>
<text text-anchor="start" x="8" y="-70.5" font-family="Helvetica,sans-Serif" font-size="10.00">signal_easel::aprs</text>
<text text-anchor="middle" x="56.5" y="-59.5" font-family="Helvetica,sans-Serif" font-size="10.00">::AddRequiredFields</text>
</a>
</g>
</g>
<!-- Node2 -->
<g id="node2" class="node">
<title>Node2</title>
<g id="a_node2"><a xlink:href="namespacesignal__easel_1_1aprs.html#ae16006b4c75ab6423ad8b90ea814a14f" target="_top" xlink:title=" ">
<polygon fill="none" stroke="black" points="180.5,-101.5 180.5,-131.5 287.5,-131.5 287.5,-101.5 180.5,-101.5"/>
<text text-anchor="start" x="188.5" y="-119.5" font-family="Helvetica,sans-Serif" font-size="10.00">signal_easel::aprs</text>
<text text-anchor="middle" x="234" y="-108.5" font-family="Helvetica,sans-Serif" font-size="10.00">::CheckPacketData</text>
</a>
</g>
</g>
<!-- Node1&#45;&gt;Node2 -->
<g id="edge1" class="edge">
<title>Node1&#45;&gt;Node2</title>
<path fill="none" stroke="midnightblue" d="M111.59,-82.6C130.2,-87.8 151.19,-93.66 170.42,-99.03"/>
<polygon fill="midnightblue" stroke="midnightblue" points="169.72,-102.47 180.29,-101.78 171.6,-95.72 169.72,-102.47"/>
</g>
<!-- Node3 -->
<g id="node3" class="node">
<title>Node3</title>
<g id="a_node3"><a xlink:href="classsignal__easel_1_1ax25_1_1Frame.html#a57b163ece54317da8d95f3b18b47c23d" target="_top" xlink:title="setters/getters for the frame.">
<polygon fill="none" stroke="black" points="149,-52.5 149,-82.5 319,-82.5 319,-52.5 149,-52.5"/>
<text text-anchor="start" x="157" y="-70.5" font-family="Helvetica,sans-Serif" font-size="10.00">signal_easel::ax25</text>
<text text-anchor="middle" x="234" y="-59.5" font-family="Helvetica,sans-Serif" font-size="10.00">::Frame::setDestinationAddress</text>
</a>
</g>
</g>
<!-- Node1&#45;&gt;Node3 -->
<g id="edge2" class="edge">
<title>Node1&#45;&gt;Node3</title>
<path fill="none" stroke="midnightblue" d="M113.03,-67.5C121.35,-67.5 130.11,-67.5 138.97,-67.5"/>
<polygon fill="midnightblue" stroke="midnightblue" points="138.98,-71 148.98,-67.5 138.98,-64 138.98,-71"/>
</g>
<!-- Node8 -->
<g id="node8" class="node">
<title>Node8</title>
<g id="a_node8"><a xlink:href="classsignal__easel_1_1ax25_1_1Frame.html#a402d26a81f82bb5c477e8930b75a771e" target="_top" xlink:title=" ">
<polygon fill="none" stroke="black" points="161,-3.5 161,-33.5 307,-33.5 307,-3.5 161,-3.5"/>
<text text-anchor="start" x="169" y="-21.5" font-family="Helvetica,sans-Serif" font-size="10.00">signal_easel::ax25</text>
<text text-anchor="middle" x="234" y="-10.5" font-family="Helvetica,sans-Serif" font-size="10.00">::Frame::setSourceAddress</text>
</a>
</g>
</g>
<!-- Node1&#45;&gt;Node8 -->
<g id="edge7" class="edge">
<title>Node1&#45;&gt;Node8</title>
<path fill="none" stroke="midnightblue" d="M111.59,-52.4C129.86,-47.3 150.42,-41.56 169.36,-36.27"/>
<polygon fill="midnightblue" stroke="midnightblue" points="170.4,-39.61 179.09,-33.55 168.52,-32.87 170.4,-39.61"/>
</g>
<!-- Node4 -->
<g id="node4" class="node">
<title>Node4</title>
<g id="a_node4"><a xlink:href="classsignal__easel_1_1ax25_1_1Address.html#a7fa6b0ef4241413893f201660991e4ea" target="_top" xlink:title="Checks if the address is valid, if not throws an exception with a specific error code.">
<polygon fill="none" stroke="black" points="355,-27.5 355,-57.5 485,-57.5 485,-27.5 355,-27.5"/>
<text text-anchor="start" x="363" y="-45.5" font-family="Helvetica,sans-Serif" font-size="10.00">signal_easel::ax25</text>
<text text-anchor="middle" x="420" y="-34.5" font-family="Helvetica,sans-Serif" font-size="10.00">::Address::assertIsValid</text>
</a>
</g>
</g>
<!-- Node3&#45;&gt;Node4 -->
<g id="edge3" class="edge">
<title>Node3&#45;&gt;Node4</title>
<path fill="none" stroke="midnightblue" d="M319.19,-56.06C327.74,-54.9 336.37,-53.73 344.8,-52.58"/>
<polygon fill="midnightblue" stroke="midnightblue" points="345.52,-56.02 354.95,-51.2 344.57,-49.08 345.52,-56.02"/>
</g>
<!-- Node5 -->
<g id="node5" class="node">
<title>Node5</title>
<g id="a_node5"><a xlink:href="classsignal__easel_1_1ax25_1_1Address.html#af34b361f739b7995e7816b7a04465828" target="_top" xlink:title=" ">
<polygon fill="none" stroke="black" points="521,-50 521,-91 686,-91 686,-50 521,-50"/>
<text text-anchor="start" x="529" y="-79" font-family="Helvetica,sans-Serif" font-size="10.00">signal_easel::ax25</text>
<text text-anchor="start" x="529" y="-68" font-family="Helvetica,sans-Serif" font-size="10.00">::Address::assertAddressString</text>
<text text-anchor="middle" x="603.5" y="-57" font-family="Helvetica,sans-Serif" font-size="10.00">IsValid</text>
</a>
</g>
</g>
<!-- Node4&#45;&gt;Node5 -->
<g id="edge4" class="edge">
<title>Node4&#45;&gt;Node5</title>
<path fill="none" stroke="midnightblue" d="M485.25,-52.41C493.53,-53.69 502.13,-55.02 510.75,-56.35"/>
<polygon fill="midnightblue" stroke="midnightblue" points="510.44,-59.84 520.85,-57.9 511.5,-52.92 510.44,-59.84"/>
</g>
<!-- Node6 -->
<g id="node6" class="node">
<title>Node6</title>
<g id="a_node6"><a xlink:href="classsignal__easel_1_1ax25_1_1Address.html#a8b44c6e311d3462bd86eda03c1d384f0" target="_top" xlink:title=" ">
<polygon fill="none" stroke="black" points="528.5,-0.5 528.5,-30.5 678.5,-30.5 678.5,-0.5 528.5,-0.5"/>
<text text-anchor="start" x="536.5" y="-18.5" font-family="Helvetica,sans-Serif" font-size="10.00">signal_easel::ax25</text>
<text text-anchor="middle" x="603.5" y="-7.5" font-family="Helvetica,sans-Serif" font-size="10.00">::Address::assertSsidIsValid</text>
</a>
</g>
</g>
<!-- Node4&#45;&gt;Node6 -->
<g id="edge5" class="edge">
<title>Node4&#45;&gt;Node6</title>
<path fill="none" stroke="midnightblue" d="M485.25,-32.94C495.94,-31.35 507.18,-29.68 518.28,-28.03"/>
<polygon fill="midnightblue" stroke="midnightblue" points="519.05,-31.45 528.42,-26.52 518.02,-24.53 519.05,-31.45"/>
</g>
<!-- Node7 -->
<g id="node7" class="node">
<title>Node7</title>
<g id="a_node7"><a xlink:href="classsignal__easel_1_1ax25_1_1Address.html#ad66c149737cc4aa52ae9e8860176acf3" target="_top" xlink:title=" ">
<polygon fill="none" stroke="black" points="722,-0.5 722,-30.5 842,-30.5 842,-0.5 722,-0.5"/>
<text text-anchor="start" x="730" y="-18.5" font-family="Helvetica,sans-Serif" font-size="10.00">signal_easel::ax25</text>
<text text-anchor="middle" x="782" y="-7.5" font-family="Helvetica,sans-Serif" font-size="10.00">::Address::isSsidValid</text>
</a>
</g>
</g>
<!-- Node6&#45;&gt;Node7 -->
<g id="edge6" class="edge">
<title>Node6&#45;&gt;Node7</title>
<path fill="none" stroke="midnightblue" d="M678.58,-15.5C689.52,-15.5 700.76,-15.5 711.6,-15.5"/>
<polygon fill="midnightblue" stroke="midnightblue" points="711.84,-19 721.84,-15.5 711.84,-12 711.84,-19"/>
</g>
<!-- Node8&#45;&gt;Node4 -->
<g id="edge8" class="edge">
<title>Node8&#45;&gt;Node4</title>
<path fill="none" stroke="midnightblue" d="M307.19,-27.92C319.46,-29.52 332.23,-31.18 344.56,-32.79"/>
<polygon fill="midnightblue" stroke="midnightblue" points="344.42,-36.3 354.79,-34.12 345.32,-29.36 344.42,-36.3"/>
</g>
</g>
</svg>
