<?xml version="1.0" encoding="UTF-8" standalone="no"?>
<!DOCTYPE svg PUBLIC "-//W3C//DTD SVG 1.1//EN"
 "http://www.w3.org/Graphics/SVG/1.1/DTD/svg11.dtd">
<!-- Generated by graphviz version 2.43.0 (0)
 -->
<!-- Title: signal_easel::trinomialMultiply Pages: 1 -->
<svg width="1069pt" height="78pt"
 viewBox="0.00 0.00 1069.00 77.50" xmlns="http://www.w3.org/2000/svg" xmlns:xlink="http://www.w3.org/1999/xlink">
<g id="graph0" class="graph" transform="scale(1 1) rotate(0) translate(4 73.5)">
<title>signal_easel::trinomialMultiply</title>
<!-- Node1 -->
<g id="node1" class="node">
<title>Node1</title>
<g id="a_node1"><a xlink:title=" ">
<polygon fill="#bfbfbf" stroke="black" points="894,-22.5 894,-41.5 1061,-41.5 1061,-22.5 894,-22.5"/>
<text text-anchor="middle" x="977.5" y="-29.5" font-family="Helvetica,sans-Serif" font-size="10.00">signal_easel::trinomialMultiply</text>
</a>
</g>
</g>
<!-- Node2 -->
<g id="node2" class="node">
<title>Node2</title>
<g id="a_node2"><a xlink:href="namespacesignal__easel.html#afd47c8498c742658f934b9fccf52a74d" target="_top" xlink:title=" ">
<polygon fill="none" stroke="black" points="712,-17 712,-47 858,-47 858,-17 712,-17"/>
<text text-anchor="start" x="720" y="-35" font-family="Helvetica,sans-Serif" font-size="10.00">signal_easel::computeDen</text>
<text text-anchor="middle" x="785" y="-24" font-family="Helvetica,sans-Serif" font-size="10.00">Coeffs</text>
</a>
</g>
</g>
<!-- Node1&#45;&gt;Node2 -->
<g id="edge1" class="edge">
<title>Node1&#45;&gt;Node2</title>
<path fill="none" stroke="midnightblue" d="M883.73,-32C875.15,-32 866.55,-32 858.19,-32"/>
<polygon fill="midnightblue" stroke="midnightblue" points="883.78,-35.5 893.78,-32 883.78,-28.5 883.78,-35.5"/>
</g>
<!-- Node3 -->
<g id="node3" class="node">
<title>Node3</title>
<g id="a_node3"><a xlink:href="namespacesignal__easel.html#a62db979f7f4a67d6a7d263788813e1b9" target="_top" xlink:title="A simple band&#45;pass filter.">
<polygon fill="none" stroke="black" points="522,-22.5 522,-41.5 676,-41.5 676,-22.5 522,-22.5"/>
<text text-anchor="middle" x="599" y="-29.5" font-family="Helvetica,sans-Serif" font-size="10.00">signal_easel::bandPassFilter</text>
</a>
</g>
</g>
<!-- Node2&#45;&gt;Node3 -->
<g id="edge2" class="edge">
<title>Node2&#45;&gt;Node3</title>
<path fill="none" stroke="midnightblue" d="M701.59,-32C693.15,-32 684.6,-32 676.23,-32"/>
<polygon fill="midnightblue" stroke="midnightblue" points="701.81,-35.5 711.81,-32 701.81,-28.5 701.81,-35.5"/>
</g>
<!-- Node4 -->
<g id="node4" class="node">
<title>Node4</title>
<g id="a_node4"><a xlink:href="classsignal__easel_1_1afsk_1_1Demodulator.html#a66398f52101a153c5158930c0584f161" target="_top" xlink:title="Takes the raw signal and converts it into the FSK baseband signal.">
<polygon fill="none" stroke="black" points="337,-11.5 337,-52.5 486,-52.5 486,-11.5 337,-11.5"/>
<text text-anchor="start" x="345" y="-40.5" font-family="Helvetica,sans-Serif" font-size="10.00">signal_easel::afsk</text>
<text text-anchor="start" x="345" y="-29.5" font-family="Helvetica,sans-Serif" font-size="10.00">::Demodulator::audioBuffer</text>
<text text-anchor="middle" x="411.5" y="-18.5" font-family="Helvetica,sans-Serif" font-size="10.00">ToBaseBandSignal</text>
</a>
</g>
</g>
<!-- Node3&#45;&gt;Node4 -->
<g id="edge3" class="edge">
<title>Node3&#45;&gt;Node4</title>
<path fill="none" stroke="midnightblue" d="M511.73,-32C503.15,-32 494.5,-32 486.07,-32"/>
<polygon fill="midnightblue" stroke="midnightblue" points="511.75,-35.5 521.75,-32 511.75,-28.5 511.75,-35.5"/>
</g>
<!-- Node5 -->
<g id="node5" class="node">
<title>Node5</title>
<g id="a_node5"><a xlink:href="classsignal__easel_1_1afsk_1_1Demodulator.html#a1d00e5b759f208be2751c4f2302a9c57" target="_top" xlink:title=" ">
<polygon fill="none" stroke="black" points="143,-11.5 143,-52.5 301,-52.5 301,-11.5 143,-11.5"/>
<text text-anchor="start" x="151" y="-40.5" font-family="Helvetica,sans-Serif" font-size="10.00">signal_easel::afsk</text>
<text text-anchor="start" x="151" y="-29.5" font-family="Helvetica,sans-Serif" font-size="10.00">::Demodulator::processAudio</text>
<text text-anchor="middle" x="222" y="-18.5" font-family="Helvetica,sans-Serif" font-size="10.00">Buffer</text>
</a>
</g>
</g>
<!-- Node4&#45;&gt;Node5 -->
<g id="edge4" class="edge">
<title>Node4&#45;&gt;Node5</title>
<path fill="none" stroke="midnightblue" d="M326.7,-32C318.25,-32 309.69,-32 301.3,-32"/>
<polygon fill="midnightblue" stroke="midnightblue" points="326.93,-35.5 336.93,-32 326.93,-28.5 326.93,-35.5"/>
</g>
<!-- Node6 -->
<g id="node6" class="node">
<title>Node6</title>
<g id="a_node6"><a xlink:href="classsignal__easel_1_1aprs_1_1Receiver.html#afbf7869aceaf2ea7ab0be8b9af16e818" target="_top" xlink:title=" ">
<polygon fill="none" stroke="black" points="0,-39 0,-69 107,-69 107,-39 0,-39"/>
<text text-anchor="start" x="8" y="-57" font-family="Helvetica,sans-Serif" font-size="10.00">signal_easel::aprs</text>
<text text-anchor="middle" x="53.5" y="-46" font-family="Helvetica,sans-Serif" font-size="10.00">::Receiver::decode</text>
</a>
</g>
</g>
<!-- Node5&#45;&gt;Node6 -->
<g id="edge5" class="edge">
<title>Node5&#45;&gt;Node6</title>
<path fill="none" stroke="midnightblue" d="M132.51,-43.69C123.9,-44.83 115.37,-45.96 107.29,-47.03"/>
<polygon fill="midnightblue" stroke="midnightblue" points="133.17,-47.14 142.63,-42.36 132.25,-40.2 133.17,-47.14"/>
</g>
<!-- Node7 -->
<g id="node7" class="node">
<title>Node7</title>
<g id="a_node7"><a xlink:href="afsk__test_8cpp.html#a894b615862c352aa932a7ff5fb85c6dd" target="_top" xlink:title="Encodes a string into an AFSK1200 signal/WAV file and then decodes it.">
<polygon fill="none" stroke="black" points="33,-0.5 33,-19.5 74,-19.5 74,-0.5 33,-0.5"/>
<text text-anchor="middle" x="53.5" y="-7.5" font-family="Helvetica,sans-Serif" font-size="10.00">TEST</text>
</a>
</g>
</g>
<!-- Node5&#45;&gt;Node7 -->
<g id="edge6" class="edge">
<title>Node5&#45;&gt;Node7</title>
<path fill="none" stroke="midnightblue" d="M132.53,-20.31C110.6,-17.41 89.14,-14.58 74.3,-12.62"/>
<polygon fill="midnightblue" stroke="midnightblue" points="132.25,-23.8 142.63,-21.64 133.17,-16.86 132.25,-23.8"/>
</g>
</g>
</svg>
