<?xml version="1.0" encoding="UTF-8" standalone="no"?>
<!DOCTYPE svg PUBLIC "-//W3C//DTD SVG 1.1//EN"
 "http://www.w3.org/Graphics/SVG/1.1/DTD/svg11.dtd">
<!-- Generated by graphviz version 2.43.0 (0)
 -->
<!-- Title: signal_easel::ax25::reverseByte Pages: 1 -->
<svg width="659pt" height="88pt"
 viewBox="0.00 0.00 659.00 88.00" xmlns="http://www.w3.org/2000/svg" xmlns:xlink="http://www.w3.org/1999/xlink">
<g id="graph0" class="graph" transform="scale(1 1) rotate(0) translate(4 84)">
<title>signal_easel::ax25::reverseByte</title>
<!-- Node1 -->
<g id="node1" class="node">
<title>Node1</title>
<g id="a_node1"><a xlink:title="Reverse a byte.">
<polygon fill="#bfbfbf" stroke="black" points="544,-24.5 544,-54.5 651,-54.5 651,-24.5 544,-24.5"/>
<text text-anchor="start" x="552" y="-42.5" font-family="Helvetica,sans-Serif" font-size="10.00">signal_easel::ax25</text>
<text text-anchor="middle" x="597.5" y="-31.5" font-family="Helvetica,sans-Serif" font-size="10.00">::reverseByte</text>
</a>
</g>
</g>
<!-- Node2 -->
<g id="node2" class="node">
<title>Node2</title>
<g id="a_node2"><a xlink:href="classsignal__easel_1_1ax25_1_1Frame.html#a1389edfa566006427db42adfd700f37d" target="_top" xlink:title=" ">
<polygon fill="none" stroke="black" points="366,-49.5 366,-79.5 508,-79.5 508,-49.5 366,-49.5"/>
<text text-anchor="start" x="374" y="-67.5" font-family="Helvetica,sans-Serif" font-size="10.00">signal_easel::ax25</text>
<text text-anchor="middle" x="437" y="-56.5" font-family="Helvetica,sans-Serif" font-size="10.00">::Frame::addToBuildBuffer</text>
</a>
</g>
</g>
<!-- Node1&#45;&gt;Node2 -->
<g id="edge1" class="edge">
<title>Node1&#45;&gt;Node2</title>
<path fill="none" stroke="midnightblue" d="M533.62,-49.42C525.22,-50.74 516.55,-52.11 508.03,-53.45"/>
<polygon fill="midnightblue" stroke="midnightblue" points="534.39,-52.84 543.72,-47.82 533.3,-45.93 534.39,-52.84"/>
</g>
<!-- Node3 -->
<g id="node3" class="node">
<title>Node3</title>
<g id="a_node3"><a xlink:href="classsignal__easel_1_1ax25_1_1Frame.html#a2b4f6ebcb7592a7e5a21114c8fafa503" target="_top" xlink:title="A step beyond buildFrame. This function builds the frame, does the bit stuffing, adds the flags,...">
<polygon fill="none" stroke="black" points="374.5,-0.5 374.5,-30.5 499.5,-30.5 499.5,-0.5 374.5,-0.5"/>
<text text-anchor="start" x="382.5" y="-18.5" font-family="Helvetica,sans-Serif" font-size="10.00">signal_easel::ax25</text>
<text text-anchor="middle" x="437" y="-7.5" font-family="Helvetica,sans-Serif" font-size="10.00">::Frame::encodeFrame</text>
</a>
</g>
</g>
<!-- Node1&#45;&gt;Node3 -->
<g id="edge2" class="edge">
<title>Node1&#45;&gt;Node3</title>
<path fill="none" stroke="midnightblue" d="M533.6,-29.98C522.41,-28.28 510.76,-26.52 499.6,-24.83"/>
<polygon fill="midnightblue" stroke="midnightblue" points="533.31,-33.47 543.72,-31.51 534.36,-26.55 533.31,-33.47"/>
</g>
<!-- Node4 -->
<g id="node4" class="node">
<title>Node4</title>
<g id="a_node4"><a xlink:href="namespacesignal__easel_1_1aprs.html#a77481001a5b78a839972bb4220b43e4d" target="_top" xlink:title=" ">
<polygon fill="none" stroke="black" points="226,-0.5 226,-30.5 330,-30.5 330,-0.5 226,-0.5"/>
<text text-anchor="start" x="234" y="-18.5" font-family="Helvetica,sans-Serif" font-size="10.00">signal_easel::aprs</text>
<text text-anchor="middle" x="278" y="-7.5" font-family="Helvetica,sans-Serif" font-size="10.00">::encodePacket</text>
</a>
</g>
</g>
<!-- Node3&#45;&gt;Node4 -->
<g id="edge3" class="edge">
<title>Node3&#45;&gt;Node4</title>
<path fill="none" stroke="midnightblue" d="M364.37,-15.5C352.88,-15.5 341.18,-15.5 330.28,-15.5"/>
<polygon fill="midnightblue" stroke="midnightblue" points="364.4,-19 374.4,-15.5 364.4,-12 364.4,-19"/>
</g>
<!-- Node5 -->
<g id="node5" class="node">
<title>Node5</title>
<g id="a_node5"><a xlink:href="classsignal__easel_1_1aprs_1_1Modulator.html#a8ae067701382dec1680b786583ace687" target="_top" xlink:title=" ">
<polygon fill="none" stroke="black" points="77,-0.5 77,-30.5 190,-30.5 190,-0.5 77,-0.5"/>
<text text-anchor="start" x="85" y="-18.5" font-family="Helvetica,sans-Serif" font-size="10.00">signal_easel::aprs</text>
<text text-anchor="middle" x="133.5" y="-7.5" font-family="Helvetica,sans-Serif" font-size="10.00">::Modulator::encode</text>
</a>
</g>
</g>
<!-- Node4&#45;&gt;Node5 -->
<g id="edge4" class="edge">
<title>Node4&#45;&gt;Node5</title>
<path fill="none" stroke="midnightblue" d="M215.68,-15.5C207.15,-15.5 198.43,-15.5 190.01,-15.5"/>
<polygon fill="midnightblue" stroke="midnightblue" points="215.96,-19 225.96,-15.5 215.96,-12 215.96,-19"/>
</g>
<!-- Node6 -->
<g id="node6" class="node">
<title>Node6</title>
<g id="a_node6"><a xlink:href="aprs__test_8cpp.html#aea66d1824e3f1e27598adf99ac6a089a" target="_top" xlink:title=" ">
<polygon fill="none" stroke="black" points="0,-6 0,-25 41,-25 41,-6 0,-6"/>
<text text-anchor="middle" x="20.5" y="-13" font-family="Helvetica,sans-Serif" font-size="10.00">TEST</text>
</a>
</g>
</g>
<!-- Node5&#45;&gt;Node6 -->
<g id="edge5" class="edge">
<title>Node5&#45;&gt;Node6</title>
<path fill="none" stroke="midnightblue" d="M66.58,-15.5C57.37,-15.5 48.56,-15.5 41.21,-15.5"/>
<polygon fill="midnightblue" stroke="midnightblue" points="66.67,-19 76.67,-15.5 66.67,-12 66.67,-19"/>
</g>
</g>
</svg>
