<?xml version="1.0" encoding="UTF-8" standalone="no"?>
<!DOCTYPE svg PUBLIC "-//W3C//DTD SVG 1.1//EN"
 "http://www.w3.org/Graphics/SVG/1.1/DTD/svg11.dtd">
<!-- Generated by graphviz version 2.43.0 (0)
 -->
<!-- Title: signal_easel::bandPassFilter Pages: 1 -->
<svg width="723pt" height="127pt"
 viewBox="0.00 0.00 723.00 126.50" xmlns="http://www.w3.org/2000/svg" xmlns:xlink="http://www.w3.org/1999/xlink">
<g id="graph0" class="graph" transform="scale(1 1) rotate(0) translate(4 122.5)">
<title>signal_easel::bandPassFilter</title>
<!-- Node1 -->
<g id="node1" class="node">
<title>Node1</title>
<g id="a_node1"><a xlink:title="A band&#45;pass filter implementation.">
<polygon fill="#bfbfbf" stroke="black" points="0,-44.5 0,-63.5 154,-63.5 154,-44.5 0,-44.5"/>
<text text-anchor="middle" x="77" y="-51.5" font-family="Helvetica,sans-Serif" font-size="10.00">signal_easel::bandPassFilter</text>
</a>
</g>
</g>
<!-- Node2 -->
<g id="node2" class="node">
<title>Node2</title>
<g id="a_node2"><a xlink:href="namespacesignal__easel.html#ab828fd4a325ae3f35f6c4c707ffb6886" target="_top" xlink:title=" ">
<polygon fill="none" stroke="black" points="191.5,-88 191.5,-118 337.5,-118 337.5,-88 191.5,-88"/>
<text text-anchor="start" x="199.5" y="-106" font-family="Helvetica,sans-Serif" font-size="10.00">signal_easel::computeDen</text>
<text text-anchor="middle" x="264.5" y="-95" font-family="Helvetica,sans-Serif" font-size="10.00">Coeffs</text>
</a>
</g>
</g>
<!-- Node1&#45;&gt;Node2 -->
<g id="edge1" class="edge">
<title>Node1&#45;&gt;Node2</title>
<path fill="none" stroke="midnightblue" d="M114.21,-63.56C137.69,-69.77 169,-78.04 196.88,-85.4"/>
<polygon fill="midnightblue" stroke="midnightblue" points="196.01,-88.79 206.57,-87.96 197.8,-82.03 196.01,-88.79"/>
</g>
<!-- Node4 -->
<g id="node4" class="node">
<title>Node4</title>
<g id="a_node4"><a xlink:href="namespacesignal__easel.html#a61e5160a96fbff531fdbecf3737f80b9" target="_top" xlink:title=" ">
<polygon fill="none" stroke="black" points="190,-39 190,-69 339,-69 339,-39 190,-39"/>
<text text-anchor="start" x="198" y="-57" font-family="Helvetica,sans-Serif" font-size="10.00">signal_easel::computeNum</text>
<text text-anchor="middle" x="264.5" y="-46" font-family="Helvetica,sans-Serif" font-size="10.00">Coeffs</text>
</a>
</g>
</g>
<!-- Node1&#45;&gt;Node4 -->
<g id="edge3" class="edge">
<title>Node1&#45;&gt;Node4</title>
<path fill="none" stroke="midnightblue" d="M154.25,-54C162.64,-54 171.2,-54 179.67,-54"/>
<polygon fill="midnightblue" stroke="midnightblue" points="179.93,-57.5 189.93,-54 179.93,-50.5 179.93,-57.5"/>
</g>
<!-- Node7 -->
<g id="node7" class="node">
<title>Node7</title>
<g id="a_node7"><a xlink:href="namespacesignal__easel.html#a24d8e6d8aa467d22058b77158b2f137a" target="_top" xlink:title=" ">
<polygon fill="none" stroke="black" points="211.5,-0.5 211.5,-19.5 317.5,-19.5 317.5,-0.5 211.5,-0.5"/>
<text text-anchor="middle" x="264.5" y="-7.5" font-family="Helvetica,sans-Serif" font-size="10.00">signal_easel::filter</text>
</a>
</g>
</g>
<!-- Node1&#45;&gt;Node7 -->
<g id="edge6" class="edge">
<title>Node1&#45;&gt;Node7</title>
<path fill="none" stroke="midnightblue" d="M118.25,-44.45C146.21,-37.82 183.65,-28.94 213.51,-21.86"/>
<polygon fill="midnightblue" stroke="midnightblue" points="214.41,-25.24 223.33,-19.53 212.79,-18.43 214.41,-25.24"/>
</g>
<!-- Node3 -->
<g id="node3" class="node">
<title>Node3</title>
<g id="a_node3"><a xlink:href="namespacesignal__easel.html#a52622d8b5a12dedeb59e5442e887a8e5" target="_top" xlink:title=" ">
<polygon fill="none" stroke="black" points="375,-93.5 375,-112.5 542,-112.5 542,-93.5 375,-93.5"/>
<text text-anchor="middle" x="458.5" y="-100.5" font-family="Helvetica,sans-Serif" font-size="10.00">signal_easel::trinomialMultiply</text>
</a>
</g>
</g>
<!-- Node2&#45;&gt;Node3 -->
<g id="edge2" class="edge">
<title>Node2&#45;&gt;Node3</title>
<path fill="none" stroke="midnightblue" d="M337.54,-103C346.35,-103 355.45,-103 364.52,-103"/>
<polygon fill="midnightblue" stroke="midnightblue" points="364.72,-106.5 374.72,-103 364.72,-99.5 364.72,-106.5"/>
</g>
<!-- Node5 -->
<g id="node5" class="node">
<title>Node5</title>
<g id="a_node5"><a xlink:href="namespacesignal__easel.html#aec86a114666943d1400f780edb69eab0" target="_top" xlink:title=" ">
<polygon fill="none" stroke="black" points="388.5,-44.5 388.5,-63.5 528.5,-63.5 528.5,-44.5 388.5,-44.5"/>
<text text-anchor="middle" x="458.5" y="-51.5" font-family="Helvetica,sans-Serif" font-size="10.00">signal_easel::computeHP</text>
</a>
</g>
</g>
<!-- Node4&#45;&gt;Node5 -->
<g id="edge4" class="edge">
<title>Node4&#45;&gt;Node5</title>
<path fill="none" stroke="midnightblue" d="M339.18,-54C351.95,-54 365.27,-54 378.18,-54"/>
<polygon fill="midnightblue" stroke="midnightblue" points="378.43,-57.5 388.43,-54 378.43,-50.5 378.43,-57.5"/>
</g>
<!-- Node6 -->
<g id="node6" class="node">
<title>Node6</title>
<g id="a_node6"><a xlink:href="namespacesignal__easel.html#a6049a00d790189b698bd2dfb04885a31" target="_top" xlink:title=" ">
<polygon fill="none" stroke="black" points="578,-44.5 578,-63.5 715,-63.5 715,-44.5 578,-44.5"/>
<text text-anchor="middle" x="646.5" y="-51.5" font-family="Helvetica,sans-Serif" font-size="10.00">signal_easel::computeLP</text>
</a>
</g>
</g>
<!-- Node5&#45;&gt;Node6 -->
<g id="edge5" class="edge">
<title>Node5&#45;&gt;Node6</title>
<path fill="none" stroke="midnightblue" d="M528.76,-54C541.39,-54 554.65,-54 567.52,-54"/>
<polygon fill="midnightblue" stroke="midnightblue" points="567.73,-57.5 577.73,-54 567.73,-50.5 567.73,-57.5"/>
</g>
</g>
</svg>
