<?xml version="1.0" encoding="UTF-8" standalone="no"?>
<!DOCTYPE svg PUBLIC "-//W3C//DTD SVG 1.1//EN"
 "http://www.w3.org/Graphics/SVG/1.1/DTD/svg11.dtd">
<!-- Generated by graphviz version 2.43.0 (0)
 -->
<!-- Title: packets.hpp Pages: 1 -->
<svg width="390pt" height="274pt"
 viewBox="0.00 0.00 389.54 274.00" xmlns="http://www.w3.org/2000/svg" xmlns:xlink="http://www.w3.org/1999/xlink">
<g id="graph0" class="graph" transform="scale(1 1) rotate(0) translate(4 270)">
<title>packets.hpp</title>
<!-- Node1 -->
<g id="node1" class="node">
<title>Node1</title>
<g id="a_node1"><a xlink:title=" ">
<polygon fill="#bfbfbf" stroke="black" points="14.04,-246.5 14.04,-265.5 89.04,-265.5 89.04,-246.5 14.04,-246.5"/>
<text text-anchor="middle" x="51.54" y="-253.5" font-family="Helvetica,sans-Serif" font-size="10.00">packets.hpp</text>
</a>
</g>
</g>
<!-- Node2 -->
<g id="node2" class="node">
<title>Node2</title>
<g id="a_node2"><a xlink:title=" ">
<polygon fill="none" stroke="#bfbfbf" points="58.54,-56.5 58.54,-75.5 108.54,-75.5 108.54,-56.5 58.54,-56.5"/>
<text text-anchor="middle" x="83.54" y="-63.5" font-family="Helvetica,sans-Serif" font-size="10.00">cstdint</text>
</a>
</g>
</g>
<!-- Node1&#45;&gt;Node2 -->
<g id="edge1" class="edge">
<title>Node1&#45;&gt;Node2</title>
<path fill="none" stroke="midnightblue" d="M42.52,-246.34C34.47,-237.93 23.24,-224.36 18.54,-210 14.25,-196.91 14.96,-192.3 18.54,-179 28.51,-141.93 54.1,-104.49 70.03,-83.66"/>
<polygon fill="midnightblue" stroke="midnightblue" points="72.97,-85.59 76.39,-75.56 67.46,-81.27 72.97,-85.59"/>
</g>
<!-- Node3 -->
<g id="node3" class="node">
<title>Node3</title>
<g id="a_node3"><a xlink:title=" ">
<polygon fill="none" stroke="#bfbfbf" points="149.54,-0.5 149.54,-19.5 193.54,-19.5 193.54,-0.5 149.54,-0.5"/>
<text text-anchor="middle" x="171.54" y="-7.5" font-family="Helvetica,sans-Serif" font-size="10.00">string</text>
</a>
</g>
</g>
<!-- Node1&#45;&gt;Node3 -->
<g id="edge2" class="edge">
<title>Node1&#45;&gt;Node3</title>
<path fill="none" stroke="midnightblue" d="M40.55,-246.37C31.09,-238.17 18.1,-224.92 12.54,-210 -12.06,-144.05 0.02,-106.03 49.54,-56 73.62,-31.67 111.97,-20.37 139.24,-15.21"/>
<polygon fill="midnightblue" stroke="midnightblue" points="139.84,-18.66 149.1,-13.51 138.65,-11.76 139.84,-18.66"/>
</g>
<!-- Node4 -->
<g id="node4" class="node">
<title>Node4</title>
<g id="a_node4"><a xlink:title=" ">
<polygon fill="none" stroke="#bfbfbf" points="28.04,-185 28.04,-204 75.04,-204 75.04,-185 28.04,-185"/>
<text text-anchor="middle" x="51.54" y="-192" font-family="Helvetica,sans-Serif" font-size="10.00">vector</text>
</a>
</g>
</g>
<!-- Node1&#45;&gt;Node4 -->
<g id="edge3" class="edge">
<title>Node1&#45;&gt;Node4</title>
<path fill="none" stroke="midnightblue" d="M51.54,-246.48C51.54,-238.08 51.54,-224.98 51.54,-214.16"/>
<polygon fill="midnightblue" stroke="midnightblue" points="55.04,-214.01 51.54,-204.01 48.04,-214.01 55.04,-214.01"/>
</g>
<!-- Node5 -->
<g id="node5" class="node">
<title>Node5</title>
<g id="a_node5"><a xlink:title=" ">
<polygon fill="none" stroke="#bfbfbf" points="93.54,-185 93.54,-204 215.54,-204 215.54,-185 93.54,-185"/>
<text text-anchor="middle" x="154.54" y="-192" font-family="Helvetica,sans-Serif" font-size="10.00">BoosterSeat/time.hpp</text>
</a>
</g>
</g>
<!-- Node1&#45;&gt;Node5 -->
<g id="edge4" class="edge">
<title>Node1&#45;&gt;Node5</title>
<path fill="none" stroke="midnightblue" d="M66.3,-246.48C83.2,-236.71 111.12,-220.58 131.03,-209.08"/>
<polygon fill="midnightblue" stroke="midnightblue" points="132.9,-212.04 139.81,-204.01 129.4,-205.98 132.9,-212.04"/>
</g>
<!-- Node6 -->
<g id="node6" class="node">
<title>Node6</title>
<g id="a_node6"><a xlink:href="telemetry__data_8hpp.html" target="_top" xlink:title=" ">
<polygon fill="none" stroke="black" points="233.54,-179.5 233.54,-209.5 381.54,-209.5 381.54,-179.5 233.54,-179.5"/>
<text text-anchor="start" x="241.54" y="-197.5" font-family="Helvetica,sans-Serif" font-size="10.00">SignalEasel/aprs/telemetry</text>
<text text-anchor="middle" x="307.54" y="-186.5" font-family="Helvetica,sans-Serif" font-size="10.00">_data.hpp</text>
</a>
</g>
</g>
<!-- Node1&#45;&gt;Node6 -->
<g id="edge5" class="edge">
<title>Node1&#45;&gt;Node6</title>
<path fill="none" stroke="midnightblue" d="M88.22,-246.48C127.02,-237.46 189.19,-223.01 237.44,-211.79"/>
<polygon fill="midnightblue" stroke="midnightblue" points="238.26,-215.2 247.2,-209.52 236.67,-208.38 238.26,-215.2"/>
</g>
<!-- Node7 -->
<g id="node7" class="node">
<title>Node7</title>
<g id="a_node7"><a xlink:title=" ">
<polygon fill="none" stroke="#bfbfbf" points="138.54,-118 138.54,-137 180.54,-137 180.54,-118 138.54,-118"/>
<text text-anchor="middle" x="159.54" y="-125" font-family="Helvetica,sans-Serif" font-size="10.00">array</text>
</a>
</g>
</g>
<!-- Node6&#45;&gt;Node7 -->
<g id="edge6" class="edge">
<title>Node6&#45;&gt;Node7</title>
<path fill="none" stroke="midnightblue" d="M273.53,-179.43C249.86,-169.52 217.63,-155.79 189.54,-143 188.38,-142.47 187.21,-141.93 186.02,-141.38"/>
<polygon fill="midnightblue" stroke="midnightblue" points="187.46,-138.19 176.92,-137.07 184.46,-144.52 187.46,-138.19"/>
</g>
<!-- Node8 -->
<g id="node8" class="node">
<title>Node8</title>
<g id="a_node8"><a xlink:href="telemetry__parameter_8hpp.html" target="_top" xlink:title=" ">
<polygon fill="none" stroke="black" points="198.54,-112.5 198.54,-142.5 346.54,-142.5 346.54,-112.5 198.54,-112.5"/>
<text text-anchor="start" x="206.54" y="-130.5" font-family="Helvetica,sans-Serif" font-size="10.00">SignalEasel/aprs/telemetry</text>
<text text-anchor="middle" x="272.54" y="-119.5" font-family="Helvetica,sans-Serif" font-size="10.00">_parameter.hpp</text>
</a>
</g>
</g>
<!-- Node6&#45;&gt;Node8 -->
<g id="edge7" class="edge">
<title>Node6&#45;&gt;Node8</title>
<path fill="none" stroke="midnightblue" d="M299.94,-179.4C295.54,-171.22 289.89,-160.73 284.87,-151.39"/>
<polygon fill="midnightblue" stroke="midnightblue" points="287.94,-149.72 280.12,-142.58 281.78,-153.04 287.94,-149.72"/>
</g>
<!-- Node8&#45;&gt;Node2 -->
<g id="edge8" class="edge">
<title>Node8&#45;&gt;Node2</title>
<path fill="none" stroke="midnightblue" d="M227.75,-112.4C194.3,-101.87 149.25,-87.69 118.45,-77.99"/>
<polygon fill="midnightblue" stroke="midnightblue" points="119.18,-74.55 108.59,-74.89 117.08,-81.23 119.18,-74.55"/>
</g>
<!-- Node8&#45;&gt;Node3 -->
<g id="edge9" class="edge">
<title>Node8&#45;&gt;Node3</title>
<path fill="none" stroke="midnightblue" d="M238.92,-112.44C222.53,-104.04 203.77,-91.89 191.54,-76 181.2,-62.56 176.16,-43.75 173.74,-29.81"/>
<polygon fill="midnightblue" stroke="midnightblue" points="177.2,-29.28 172.3,-19.88 170.27,-30.28 177.2,-29.28"/>
</g>
<!-- Node9 -->
<g id="node9" class="node">
<title>Node9</title>
<g id="a_node9"><a xlink:href="exception_8hpp.html" target="_top" xlink:title="SignalEasel exceptions.">
<polygon fill="none" stroke="black" points="200.04,-56.5 200.04,-75.5 345.04,-75.5 345.04,-56.5 200.04,-56.5"/>
<text text-anchor="middle" x="272.54" y="-63.5" font-family="Helvetica,sans-Serif" font-size="10.00">SignalEasel/exception.hpp</text>
</a>
</g>
</g>
<!-- Node8&#45;&gt;Node9 -->
<g id="edge10" class="edge">
<title>Node8&#45;&gt;Node9</title>
<path fill="none" stroke="midnightblue" d="M272.54,-112.4C272.54,-104.47 272.54,-94.46 272.54,-85.86"/>
<polygon fill="midnightblue" stroke="midnightblue" points="276.04,-85.66 272.54,-75.66 269.04,-85.66 276.04,-85.66"/>
</g>
<!-- Node9&#45;&gt;Node3 -->
<g id="edge12" class="edge">
<title>Node9&#45;&gt;Node3</title>
<path fill="none" stroke="midnightblue" d="M256.31,-56.32C240.19,-47.7 215.24,-34.36 196.57,-24.39"/>
<polygon fill="midnightblue" stroke="midnightblue" points="198.19,-21.28 187.73,-19.65 194.89,-27.46 198.19,-21.28"/>
</g>
<!-- Node10 -->
<g id="node10" class="node">
<title>Node10</title>
<g id="a_node10"><a xlink:title=" ">
<polygon fill="none" stroke="#bfbfbf" points="240.04,-0.5 240.04,-19.5 305.04,-19.5 305.04,-0.5 240.04,-0.5"/>
<text text-anchor="middle" x="272.54" y="-7.5" font-family="Helvetica,sans-Serif" font-size="10.00">exception</text>
</a>
</g>
</g>
<!-- Node9&#45;&gt;Node10 -->
<g id="edge11" class="edge">
<title>Node9&#45;&gt;Node10</title>
<path fill="none" stroke="midnightblue" d="M272.54,-56.08C272.54,-49.01 272.54,-38.86 272.54,-29.99"/>
<polygon fill="midnightblue" stroke="midnightblue" points="276.04,-29.75 272.54,-19.75 269.04,-29.75 276.04,-29.75"/>
</g>
</g>
</svg>
