<?xml version="1.0" encoding="UTF-8" standalone="no"?>
<!DOCTYPE svg PUBLIC "-//W3C//DTD SVG 1.1//EN"
 "http://www.w3.org/Graphics/SVG/1.1/DTD/svg11.dtd">
<!-- Generated by graphviz version 2.43.0 (0)
 -->
<!-- Title: packets.hpp Pages: 1 -->
<svg width="938pt" height="140pt"
 viewBox="0.00 0.00 937.50 140.00" xmlns="http://www.w3.org/2000/svg" xmlns:xlink="http://www.w3.org/1999/xlink">
<g id="graph0" class="graph" transform="scale(1 1) rotate(0) translate(4 136)">
<title>packets.hpp</title>
<!-- Node1 -->
<g id="node1" class="node">
<title>Node1</title>
<g id="a_node1"><a xlink:title=" ">
<polygon fill="#bfbfbf" stroke="black" points="426.5,-112.5 426.5,-131.5 501.5,-131.5 501.5,-112.5 426.5,-112.5"/>
<text text-anchor="middle" x="464" y="-119.5" font-family="Helvetica,sans-Serif" font-size="10.00">packets.hpp</text>
</a>
</g>
</g>
<!-- Node2 -->
<g id="node2" class="node">
<title>Node2</title>
<g id="a_node2"><a xlink:href="aprs_8hpp.html" target="_top" xlink:title=" ">
<polygon fill="none" stroke="black" points="434.5,-56.5 434.5,-75.5 493.5,-75.5 493.5,-56.5 434.5,-56.5"/>
<text text-anchor="middle" x="464" y="-63.5" font-family="Helvetica,sans-Serif" font-size="10.00">aprs.hpp</text>
</a>
</g>
</g>
<!-- Node1&#45;&gt;Node2 -->
<g id="edge1" class="edge">
<title>Node1&#45;&gt;Node2</title>
<path fill="none" stroke="midnightblue" d="M464,-101.8C464,-92.91 464,-82.78 464,-75.75"/>
<polygon fill="midnightblue" stroke="midnightblue" points="460.5,-102.08 464,-112.08 467.5,-102.08 460.5,-102.08"/>
</g>
<!-- Node3 -->
<g id="node3" class="node">
<title>Node3</title>
<g id="a_node3"><a xlink:href="aprs_8cpp.html" target="_top" xlink:title="APRS implementation.">
<polygon fill="none" stroke="black" points="0,-0.5 0,-19.5 58,-19.5 58,-0.5 0,-0.5"/>
<text text-anchor="middle" x="29" y="-7.5" font-family="Helvetica,sans-Serif" font-size="10.00">aprs.cpp</text>
</a>
</g>
</g>
<!-- Node2&#45;&gt;Node3 -->
<g id="edge2" class="edge">
<title>Node2&#45;&gt;Node3</title>
<path fill="none" stroke="midnightblue" d="M424.06,-62.06C352.23,-56.43 196.67,-42.62 67,-20 64.19,-19.51 61.29,-18.94 58.39,-18.33"/>
<polygon fill="midnightblue" stroke="midnightblue" points="424.2,-65.59 434.44,-62.87 424.74,-58.61 424.2,-65.59"/>
</g>
<!-- Node4 -->
<g id="node4" class="node">
<title>Node4</title>
<g id="a_node4"><a xlink:href="aprs__demodulator_8cpp.html" target="_top" xlink:title="Implementation of the APRS demodulator class.">
<polygon fill="none" stroke="black" points="76.5,-0.5 76.5,-19.5 201.5,-19.5 201.5,-0.5 76.5,-0.5"/>
<text text-anchor="middle" x="139" y="-7.5" font-family="Helvetica,sans-Serif" font-size="10.00">aprs_demodulator.cpp</text>
</a>
</g>
</g>
<!-- Node2&#45;&gt;Node4 -->
<g id="edge3" class="edge">
<title>Node2&#45;&gt;Node4</title>
<path fill="none" stroke="midnightblue" d="M424.27,-58.4C365.4,-48.62 255,-30.27 190.16,-19.5"/>
<polygon fill="midnightblue" stroke="midnightblue" points="423.86,-61.88 434.3,-60.06 425.01,-54.97 423.86,-61.88"/>
</g>
<!-- Node5 -->
<g id="node5" class="node">
<title>Node5</title>
<g id="a_node5"><a xlink:href="aprs__encoders_8cpp.html" target="_top" xlink:title="Encoding functions for APRS packets.">
<polygon fill="none" stroke="black" points="219.5,-0.5 219.5,-19.5 326.5,-19.5 326.5,-0.5 219.5,-0.5"/>
<text text-anchor="middle" x="273" y="-7.5" font-family="Helvetica,sans-Serif" font-size="10.00">aprs_encoders.cpp</text>
</a>
</g>
</g>
<!-- Node2&#45;&gt;Node5 -->
<g id="edge4" class="edge">
<title>Node2&#45;&gt;Node5</title>
<path fill="none" stroke="midnightblue" d="M424.46,-53.82C388.45,-43.64 336.04,-28.82 303.26,-19.56"/>
<polygon fill="midnightblue" stroke="midnightblue" points="423.58,-57.21 434.16,-56.56 425.49,-50.47 423.58,-57.21"/>
</g>
<!-- Node6 -->
<g id="node6" class="node">
<title>Node6</title>
<g id="a_node6"><a xlink:href="aprs__modulator_8cpp.html" target="_top" xlink:title="Implementation of the APRS modulator class.">
<polygon fill="none" stroke="black" points="344.5,-0.5 344.5,-19.5 457.5,-19.5 457.5,-0.5 344.5,-0.5"/>
<text text-anchor="middle" x="401" y="-7.5" font-family="Helvetica,sans-Serif" font-size="10.00">aprs_modulator.cpp</text>
</a>
</g>
</g>
<!-- Node2&#45;&gt;Node6 -->
<g id="edge5" class="edge">
<title>Node2&#45;&gt;Node6</title>
<path fill="none" stroke="midnightblue" d="M445.96,-49.54C434.73,-39.91 420.68,-27.87 411.31,-19.83"/>
<polygon fill="midnightblue" stroke="midnightblue" points="444.01,-52.47 453.88,-56.32 448.56,-47.16 444.01,-52.47"/>
</g>
<!-- Node7 -->
<g id="node7" class="node">
<title>Node7</title>
<g id="a_node7"><a xlink:href="aprs__receiver_8cpp.html" target="_top" xlink:title="Implementation of the APRS receiver class.">
<polygon fill="none" stroke="black" points="476,-0.5 476,-19.5 578,-19.5 578,-0.5 476,-0.5"/>
<text text-anchor="middle" x="527" y="-7.5" font-family="Helvetica,sans-Serif" font-size="10.00">aprs_receiver.cpp</text>
</a>
</g>
</g>
<!-- Node2&#45;&gt;Node7 -->
<g id="edge6" class="edge">
<title>Node2&#45;&gt;Node7</title>
<path fill="none" stroke="midnightblue" d="M482.04,-49.54C493.27,-39.91 507.32,-27.87 516.69,-19.83"/>
<polygon fill="midnightblue" stroke="midnightblue" points="479.44,-47.16 474.12,-56.32 483.99,-52.47 479.44,-47.16"/>
</g>
<!-- Node8 -->
<g id="node8" class="node">
<title>Node8</title>
<g id="a_node8"><a xlink:href="aprs__receiver__test_8cpp.html" target="_top" xlink:title="Integration tests for signal_easel::aprs::Receiver.">
<polygon fill="none" stroke="black" points="596.5,-0.5 596.5,-19.5 723.5,-19.5 723.5,-0.5 596.5,-0.5"/>
<text text-anchor="middle" x="660" y="-7.5" font-family="Helvetica,sans-Serif" font-size="10.00">aprs_receiver_test.cpp</text>
</a>
</g>
</g>
<!-- Node2&#45;&gt;Node8 -->
<g id="edge7" class="edge">
<title>Node2&#45;&gt;Node8</title>
<path fill="none" stroke="midnightblue" d="M503.71,-54.06C540.69,-43.87 595.08,-28.88 628.98,-19.55"/>
<polygon fill="midnightblue" stroke="midnightblue" points="502.48,-50.77 493.77,-56.8 504.34,-57.52 502.48,-50.77"/>
</g>
<!-- Node9 -->
<g id="node9" class="node">
<title>Node9</title>
<g id="a_node9"><a xlink:href="aprs__test_8cpp.html" target="_top" xlink:title=" ">
<polygon fill="none" stroke="black" points="742,-0.5 742,-19.5 824,-19.5 824,-0.5 742,-0.5"/>
<text text-anchor="middle" x="783" y="-7.5" font-family="Helvetica,sans-Serif" font-size="10.00">aprs_test.cpp</text>
</a>
</g>
</g>
<!-- Node2&#45;&gt;Node9 -->
<g id="edge8" class="edge">
<title>Node2&#45;&gt;Node9</title>
<path fill="none" stroke="midnightblue" d="M503.79,-58.5C556.32,-49.89 651.65,-34.13 733,-20 735.87,-19.5 738.83,-18.98 741.81,-18.46"/>
<polygon fill="midnightblue" stroke="midnightblue" points="503.18,-55.05 493.88,-60.13 504.31,-61.96 503.18,-55.05"/>
</g>
<!-- Node10 -->
<g id="node10" class="node">
<title>Node10</title>
<g id="a_node10"><a xlink:href="pulse__test_8cpp.html" target="_top" xlink:title="PulseAudio output test. Does not use gtest.">
<polygon fill="none" stroke="black" points="842.5,-0.5 842.5,-19.5 929.5,-19.5 929.5,-0.5 842.5,-0.5"/>
<text text-anchor="middle" x="886" y="-7.5" font-family="Helvetica,sans-Serif" font-size="10.00">pulse_test.cpp</text>
</a>
</g>
</g>
<!-- Node2&#45;&gt;Node10 -->
<g id="edge9" class="edge">
<title>Node2&#45;&gt;Node10</title>
<path fill="none" stroke="midnightblue" d="M503.95,-60.75C571.74,-53.4 713.58,-37.41 833,-20 836.05,-19.56 839.19,-19.08 842.35,-18.58"/>
<polygon fill="midnightblue" stroke="midnightblue" points="503.28,-57.3 493.72,-61.85 504.04,-64.26 503.28,-57.3"/>
</g>
</g>
</svg>
