<?xml version="1.0" encoding="UTF-8" standalone="no"?>
<!DOCTYPE svg PUBLIC "-//W3C//DTD SVG 1.1//EN"
 "http://www.w3.org/Graphics/SVG/1.1/DTD/svg11.dtd">
<!-- Generated by graphviz version 2.43.0 (0)
 -->
<!-- Title: psk_wave_shaper.hpp Pages: 1 -->
<svg width="904pt" height="196pt"
 viewBox="0.00 0.00 903.50 196.00" xmlns="http://www.w3.org/2000/svg" xmlns:xlink="http://www.w3.org/1999/xlink">
<g id="graph0" class="graph" transform="scale(1 1) rotate(0) translate(4 192)">
<title>psk_wave_shaper.hpp</title>
<!-- Node1 -->
<g id="node1" class="node">
<title>Node1</title>
<g id="a_node1"><a xlink:title=" ">
<polygon fill="#bfbfbf" stroke="black" points="252,-168.5 252,-187.5 376,-187.5 376,-168.5 252,-168.5"/>
<text text-anchor="middle" x="314" y="-175.5" font-family="Helvetica,sans-Serif" font-size="10.00">psk_wave_shaper.hpp</text>
</a>
</g>
</g>
<!-- Node2 -->
<g id="node2" class="node">
<title>Node2</title>
<g id="a_node2"><a xlink:title=" ">
<polygon fill="none" stroke="#bfbfbf" points="0,-112.5 0,-131.5 42,-131.5 42,-112.5 0,-112.5"/>
<text text-anchor="middle" x="21" y="-119.5" font-family="Helvetica,sans-Serif" font-size="10.00">array</text>
</a>
</g>
</g>
<!-- Node1&#45;&gt;Node2 -->
<g id="edge1" class="edge">
<title>Node1&#45;&gt;Node2</title>
<path fill="none" stroke="midnightblue" d="M251.93,-168.56C200.67,-161.1 125.86,-149.07 52.14,-132.04"/>
<polygon fill="midnightblue" stroke="midnightblue" points="52.75,-128.59 42.22,-129.71 51.16,-135.4 52.75,-128.59"/>
</g>
<!-- Node3 -->
<g id="node3" class="node">
<title>Node3</title>
<g id="a_node3"><a xlink:title=" ">
<polygon fill="none" stroke="#bfbfbf" points="60.5,-112.5 60.5,-131.5 107.5,-131.5 107.5,-112.5 60.5,-112.5"/>
<text text-anchor="middle" x="84" y="-119.5" font-family="Helvetica,sans-Serif" font-size="10.00">cmath</text>
</a>
</g>
</g>
<!-- Node1&#45;&gt;Node3 -->
<g id="edge2" class="edge">
<title>Node1&#45;&gt;Node3</title>
<path fill="none" stroke="midnightblue" d="M277.54,-168.48C238.92,-159.45 176.15,-144.76 122,-132 120.56,-131.66 119.08,-131.31 117.59,-130.96"/>
<polygon fill="midnightblue" stroke="midnightblue" points="118.25,-127.52 107.71,-128.63 116.64,-134.33 118.25,-127.52"/>
</g>
<!-- Node4 -->
<g id="node4" class="node">
<title>Node4</title>
<g id="a_node4"><a xlink:title=" ">
<polygon fill="none" stroke="#bfbfbf" points="289,-56.5 289,-75.5 339,-75.5 339,-56.5 289,-56.5"/>
<text text-anchor="middle" x="314" y="-63.5" font-family="Helvetica,sans-Serif" font-size="10.00">cstdint</text>
</a>
</g>
</g>
<!-- Node1&#45;&gt;Node4 -->
<g id="edge3" class="edge">
<title>Node1&#45;&gt;Node4</title>
<path fill="none" stroke="midnightblue" d="M251.81,-172.52C195.74,-165.98 126.17,-150.12 155,-112 169.88,-92.33 236.49,-78.78 278.63,-72.01"/>
<polygon fill="midnightblue" stroke="midnightblue" points="279.43,-75.43 288.77,-70.43 278.36,-68.51 279.43,-75.43"/>
</g>
<!-- Node5 -->
<g id="node5" class="node">
<title>Node5</title>
<g id="a_node5"><a xlink:title=" ">
<polygon fill="none" stroke="#bfbfbf" points="164,-112.5 164,-131.5 224,-131.5 224,-112.5 164,-112.5"/>
<text text-anchor="middle" x="194" y="-119.5" font-family="Helvetica,sans-Serif" font-size="10.00">iostream</text>
</a>
</g>
</g>
<!-- Node1&#45;&gt;Node5 -->
<g id="edge4" class="edge">
<title>Node1&#45;&gt;Node5</title>
<path fill="none" stroke="midnightblue" d="M294.99,-168.44C275.41,-159.64 244.69,-145.81 222.27,-135.72"/>
<polygon fill="midnightblue" stroke="midnightblue" points="223.48,-132.43 212.93,-131.52 220.61,-138.81 223.48,-132.43"/>
</g>
<!-- Node6 -->
<g id="node6" class="node">
<title>Node6</title>
<g id="a_node6"><a xlink:title=" ">
<polygon fill="none" stroke="#bfbfbf" points="698.5,-56.5 698.5,-75.5 745.5,-75.5 745.5,-56.5 698.5,-56.5"/>
<text text-anchor="middle" x="722" y="-63.5" font-family="Helvetica,sans-Serif" font-size="10.00">vector</text>
</a>
</g>
</g>
<!-- Node1&#45;&gt;Node6 -->
<g id="edge5" class="edge">
<title>Node1&#45;&gt;Node6</title>
<path fill="none" stroke="midnightblue" d="M376.08,-177.89C473.19,-177.99 654.93,-172.55 703,-132 716.32,-120.76 720.58,-100.75 721.82,-85.89"/>
<polygon fill="midnightblue" stroke="midnightblue" points="725.32,-85.9 722.26,-75.76 718.32,-85.59 725.32,-85.9"/>
</g>
<!-- Node7 -->
<g id="node7" class="node">
<title>Node7</title>
<g id="a_node7"><a xlink:title=" ">
<polygon fill="none" stroke="#bfbfbf" points="404.5,-112.5 404.5,-131.5 529.5,-131.5 529.5,-112.5 404.5,-112.5"/>
<text text-anchor="middle" x="467" y="-119.5" font-family="Helvetica,sans-Serif" font-size="10.00">BoosterSeat/math.hpp</text>
</a>
</g>
</g>
<!-- Node1&#45;&gt;Node7 -->
<g id="edge6" class="edge">
<title>Node1&#45;&gt;Node7</title>
<path fill="none" stroke="midnightblue" d="M338.24,-168.44C363.87,-159.4 404.49,-145.06 433.24,-134.92"/>
<polygon fill="midnightblue" stroke="midnightblue" points="434.61,-138.15 442.87,-131.52 432.28,-131.54 434.61,-138.15"/>
</g>
<!-- Node8 -->
<g id="node8" class="node">
<title>Node8</title>
<g id="a_node8"><a xlink:href="constants_8hpp.html" target="_top" xlink:title="Common constants used throughout the library.">
<polygon fill="none" stroke="black" points="242,-112.5 242,-131.5 386,-131.5 386,-112.5 242,-112.5"/>
<text text-anchor="middle" x="314" y="-119.5" font-family="Helvetica,sans-Serif" font-size="10.00">SignalEasel/constants.hpp</text>
</a>
</g>
</g>
<!-- Node1&#45;&gt;Node8 -->
<g id="edge7" class="edge">
<title>Node1&#45;&gt;Node8</title>
<path fill="none" stroke="midnightblue" d="M314,-168.08C314,-161.01 314,-150.86 314,-141.99"/>
<polygon fill="midnightblue" stroke="midnightblue" points="317.5,-141.75 314,-131.75 310.5,-141.75 317.5,-141.75"/>
</g>
<!-- Node9 -->
<g id="node9" class="node">
<title>Node9</title>
<g id="a_node9"><a xlink:href="exception_8hpp.html" target="_top" xlink:title="SignalEasel exceptions.">
<polygon fill="none" stroke="black" points="750.5,-112.5 750.5,-131.5 895.5,-131.5 895.5,-112.5 750.5,-112.5"/>
<text text-anchor="middle" x="823" y="-119.5" font-family="Helvetica,sans-Serif" font-size="10.00">SignalEasel/exception.hpp</text>
</a>
</g>
</g>
<!-- Node1&#45;&gt;Node9 -->
<g id="edge9" class="edge">
<title>Node1&#45;&gt;Node9</title>
<path fill="none" stroke="midnightblue" d="M376.16,-170.41C467.53,-160.71 638.26,-142.6 740.18,-131.79"/>
<polygon fill="midnightblue" stroke="midnightblue" points="740.55,-135.27 750.13,-130.73 739.81,-128.31 740.55,-135.27"/>
</g>
<!-- Node12 -->
<g id="node12" class="node">
<title>Node12</title>
<g id="a_node12"><a xlink:href="modulator_8hpp.html" target="_top" xlink:title="Modulator base class.">
<polygon fill="none" stroke="black" points="548,-112.5 548,-131.5 694,-131.5 694,-112.5 548,-112.5"/>
<text text-anchor="middle" x="621" y="-119.5" font-family="Helvetica,sans-Serif" font-size="10.00">SignalEasel/modulator.hpp</text>
</a>
</g>
</g>
<!-- Node1&#45;&gt;Node12 -->
<g id="edge12" class="edge">
<title>Node1&#45;&gt;Node12</title>
<path fill="none" stroke="midnightblue" d="M362.65,-168.44C416.87,-158.9 504.55,-143.48 562.48,-133.29"/>
<polygon fill="midnightblue" stroke="midnightblue" points="563.34,-136.7 572.58,-131.52 562.13,-129.8 563.34,-136.7"/>
</g>
<!-- Node8&#45;&gt;Node4 -->
<g id="edge8" class="edge">
<title>Node8&#45;&gt;Node4</title>
<path fill="none" stroke="midnightblue" d="M314,-112.08C314,-105.01 314,-94.86 314,-85.99"/>
<polygon fill="midnightblue" stroke="midnightblue" points="317.5,-85.75 314,-75.75 310.5,-85.75 317.5,-85.75"/>
</g>
<!-- Node10 -->
<g id="node10" class="node">
<title>Node10</title>
<g id="a_node10"><a xlink:title=" ">
<polygon fill="none" stroke="#bfbfbf" points="802.5,-56.5 802.5,-75.5 867.5,-75.5 867.5,-56.5 802.5,-56.5"/>
<text text-anchor="middle" x="835" y="-63.5" font-family="Helvetica,sans-Serif" font-size="10.00">exception</text>
</a>
</g>
</g>
<!-- Node9&#45;&gt;Node10 -->
<g id="edge10" class="edge">
<title>Node9&#45;&gt;Node10</title>
<path fill="none" stroke="midnightblue" d="M824.98,-112.08C826.57,-104.93 828.86,-94.64 830.85,-85.69"/>
<polygon fill="midnightblue" stroke="midnightblue" points="834.3,-86.27 833.06,-75.75 827.47,-84.75 834.3,-86.27"/>
</g>
<!-- Node11 -->
<g id="node11" class="node">
<title>Node11</title>
<g id="a_node11"><a xlink:title=" ">
<polygon fill="none" stroke="#bfbfbf" points="671,-0.5 671,-19.5 715,-19.5 715,-0.5 671,-0.5"/>
<text text-anchor="middle" x="693" y="-7.5" font-family="Helvetica,sans-Serif" font-size="10.00">string</text>
</a>
</g>
</g>
<!-- Node9&#45;&gt;Node11 -->
<g id="edge11" class="edge">
<title>Node9&#45;&gt;Node11</title>
<path fill="none" stroke="midnightblue" d="M814.38,-112.23C801.62,-99.41 776.74,-74.98 754,-56 741.12,-45.25 725.94,-34.04 713.94,-25.5"/>
<polygon fill="midnightblue" stroke="midnightblue" points="715.67,-22.44 705.48,-19.55 711.64,-28.17 715.67,-22.44"/>
</g>
<!-- Node12&#45;&gt;Node4 -->
<g id="edge13" class="edge">
<title>Node12&#45;&gt;Node4</title>
<path fill="none" stroke="midnightblue" d="M572.35,-112.44C510.09,-101.49 403.74,-82.78 348.93,-73.14"/>
<polygon fill="midnightblue" stroke="midnightblue" points="349.46,-69.68 339,-71.4 348.24,-76.58 349.46,-69.68"/>
</g>
<!-- Node12&#45;&gt;Node6 -->
<g id="edge14" class="edge">
<title>Node12&#45;&gt;Node6</title>
<path fill="none" stroke="midnightblue" d="M637.23,-112.32C653.35,-103.7 678.3,-90.36 696.96,-80.39"/>
<polygon fill="midnightblue" stroke="midnightblue" points="698.64,-83.46 705.81,-75.65 695.34,-77.28 698.64,-83.46"/>
</g>
<!-- Node13 -->
<g id="node13" class="node">
<title>Node13</title>
<g id="a_node13"><a xlink:href="settings_8hpp.html" target="_top" xlink:title="Settings structures for SignalEasel.">
<polygon fill="none" stroke="black" points="544,-56.5 544,-75.5 680,-75.5 680,-56.5 544,-56.5"/>
<text text-anchor="middle" x="612" y="-63.5" font-family="Helvetica,sans-Serif" font-size="10.00">SignalEasel/settings.hpp</text>
</a>
</g>
</g>
<!-- Node12&#45;&gt;Node13 -->
<g id="edge15" class="edge">
<title>Node12&#45;&gt;Node13</title>
<path fill="none" stroke="midnightblue" d="M619.51,-112.08C618.32,-104.93 616.61,-94.64 615.12,-85.69"/>
<polygon fill="midnightblue" stroke="midnightblue" points="618.55,-85.04 613.46,-75.75 611.65,-86.19 618.55,-85.04"/>
</g>
<!-- Node13&#45;&gt;Node11 -->
<g id="edge16" class="edge">
<title>Node13&#45;&gt;Node11</title>
<path fill="none" stroke="midnightblue" d="M625.01,-56.32C637.53,-47.98 656.68,-35.21 671.47,-25.35"/>
<polygon fill="midnightblue" stroke="midnightblue" points="673.64,-28.11 680.02,-19.65 669.76,-22.29 673.64,-28.11"/>
</g>
</g>
</svg>
