<?xml version="1.0" encoding="UTF-8" standalone="no"?>
<!DOCTYPE svg PUBLIC "-//W3C//DTD SVG 1.1//EN"
 "http://www.w3.org/Graphics/SVG/1.1/DTD/svg11.dtd">
<!-- Generated by graphviz version 2.43.0 (0)
 -->
<!-- Title: psk_wave_shaper.hpp Pages: 1 -->
<svg width="904pt" height="196pt"
 viewBox="0.00 0.00 903.50 196.00" xmlns="http://www.w3.org/2000/svg" xmlns:xlink="http://www.w3.org/1999/xlink">
<g id="graph0" class="graph" transform="scale(1 1) rotate(0) translate(4 192)">
<title>psk_wave_shaper.hpp</title>
<!-- Node1 -->
<g id="node1" class="node">
<title>Node1</title>
<g id="a_node1"><a xlink:title=" ">
<polygon fill="#bfbfbf" stroke="black" points="252,-168.5 252,-187.5 376,-187.5 376,-168.5 252,-168.5"/>
<text text-anchor="middle" x="314" y="-175.5" font-family="Helvetica,sans-Serif" font-size="10.00">psk_wave_shaper.hpp</text>
</a>
</g>
</g>
<!-- Node2 -->
<g id="node2" class="node">
<title>Node2</title>
<g id="a_node2"><a xlink:title=" ">
<polygon fill="none" stroke="#bfbfbf" points="0,-112.5 0,-131.5 42,-131.5 42,-112.5 0,-112.5"/>
<text text-anchor="middle" x="21" y="-119.5" font-family="Helvetica,sans-Serif" font-size="10.00">array</text>
</a>
</g>
</g>
<!-- Node1&#45;&gt;Node2 -->
<g id="edge1" class="edge">
<title>Node1&#45;&gt;Node2</title>
<path fill="none" stroke="midnightblue" d="M251.93,-168.56C200.67,-161.1 125.86,-149.07 52.14,-132.04"/>
<polygon fill="midnightblue" stroke="midnightblue" points="52.75,-128.59 42.22,-129.71 51.16,-135.4 52.75,-128.59"/>
</g>
<!-- Node3 -->
<g id="node3" class="node">
<title>Node3</title>
<g id="a_node3"><a xlink:title=" ">
<polygon fill="none" stroke="#bfbfbf" points="60.5,-112.5 60.5,-131.5 107.5,-131.5 107.5,-112.5 60.5,-112.5"/>
<text text-anchor="middle" x="84" y="-119.5" font-family="Helvetica,sans-Serif" font-size="10.00">cmath</text>
</a>
</g>
</g>
<!-- Node1&#45;&gt;Node3 -->
<g id="edge2" class="edge">
<title>Node1&#45;&gt;Node3</title>
<path fill="none" stroke="midnightblue" d="M277.54,-168.48C238.92,-159.45 176.15,-144.76 122,-132 120.56,-131.66 119.08,-131.31 117.59,-130.96"/>
<polygon fill="midnightblue" stroke="midnightblue" points="118.25,-127.52 107.71,-128.63 116.64,-134.33 118.25,-127.52"/>
</g>
<!-- Node4 -->
<g id="node4" class="node">
<title>Node4</title>
<g id="a_node4"><a xlink:title=" ">
<polygon fill="none" stroke="#bfbfbf" points="200,-56.5 200,-75.5 250,-75.5 250,-56.5 200,-56.5"/>
<text text-anchor="middle" x="225" y="-63.5" font-family="Helvetica,sans-Serif" font-size="10.00">cstdint</text>
</a>
</g>
</g>
<!-- Node1&#45;&gt;Node4 -->
<g id="edge3" class="edge">
<title>Node1&#45;&gt;Node4</title>
<path fill="none" stroke="midnightblue" d="M258.16,-168.47C217.57,-160.99 167.63,-148.7 155,-132 139.57,-111.59 168.16,-92.17 193.32,-79.96"/>
<polygon fill="midnightblue" stroke="midnightblue" points="195.08,-83.01 202.7,-75.65 192.15,-76.65 195.08,-83.01"/>
</g>
<!-- Node5 -->
<g id="node5" class="node">
<title>Node5</title>
<g id="a_node5"><a xlink:title=" ">
<polygon fill="none" stroke="#bfbfbf" points="164,-112.5 164,-131.5 224,-131.5 224,-112.5 164,-112.5"/>
<text text-anchor="middle" x="194" y="-119.5" font-family="Helvetica,sans-Serif" font-size="10.00">iostream</text>
</a>
</g>
</g>
<!-- Node1&#45;&gt;Node5 -->
<g id="edge4" class="edge">
<title>Node1&#45;&gt;Node5</title>
<path fill="none" stroke="midnightblue" d="M294.99,-168.44C275.41,-159.64 244.69,-145.81 222.27,-135.72"/>
<polygon fill="midnightblue" stroke="midnightblue" points="223.48,-132.43 212.93,-131.52 220.61,-138.81 223.48,-132.43"/>
</g>
<!-- Node6 -->
<g id="node6" class="node">
<title>Node6</title>
<g id="a_node6"><a xlink:title=" ">
<polygon fill="none" stroke="#bfbfbf" points="534.5,-56.5 534.5,-75.5 581.5,-75.5 581.5,-56.5 534.5,-56.5"/>
<text text-anchor="middle" x="558" y="-63.5" font-family="Helvetica,sans-Serif" font-size="10.00">vector</text>
</a>
</g>
</g>
<!-- Node1&#45;&gt;Node6 -->
<g id="edge5" class="edge">
<title>Node1&#45;&gt;Node6</title>
<path fill="none" stroke="midnightblue" d="M376.03,-171.62C433.87,-165.39 514.61,-153.15 538,-132 550.98,-120.26 555.63,-100.33 557.25,-85.62"/>
<polygon fill="midnightblue" stroke="midnightblue" points="560.74,-85.85 557.98,-75.62 553.76,-85.34 560.74,-85.85"/>
</g>
<!-- Node7 -->
<g id="node7" class="node">
<title>Node7</title>
<g id="a_node7"><a xlink:title=" ">
<polygon fill="none" stroke="#bfbfbf" points="404.5,-112.5 404.5,-131.5 529.5,-131.5 529.5,-112.5 404.5,-112.5"/>
<text text-anchor="middle" x="467" y="-119.5" font-family="Helvetica,sans-Serif" font-size="10.00">BoosterSeat/math.hpp</text>
</a>
</g>
</g>
<!-- Node1&#45;&gt;Node7 -->
<g id="edge6" class="edge">
<title>Node1&#45;&gt;Node7</title>
<path fill="none" stroke="midnightblue" d="M338.24,-168.44C363.87,-159.4 404.49,-145.06 433.24,-134.92"/>
<polygon fill="midnightblue" stroke="midnightblue" points="434.61,-138.15 442.87,-131.52 432.28,-131.54 434.61,-138.15"/>
</g>
<!-- Node8 -->
<g id="node8" class="node">
<title>Node8</title>
<g id="a_node8"><a xlink:href="constants_8hpp.html" target="_top" xlink:title="Common constants used throughout the library.">
<polygon fill="none" stroke="black" points="242,-112.5 242,-131.5 386,-131.5 386,-112.5 242,-112.5"/>
<text text-anchor="middle" x="314" y="-119.5" font-family="Helvetica,sans-Serif" font-size="10.00">SignalEasel/constants.hpp</text>
</a>
</g>
</g>
<!-- Node1&#45;&gt;Node8 -->
<g id="edge7" class="edge">
<title>Node1&#45;&gt;Node8</title>
<path fill="none" stroke="midnightblue" d="M314,-168.08C314,-161.01 314,-150.86 314,-141.99"/>
<polygon fill="midnightblue" stroke="midnightblue" points="317.5,-141.75 314,-131.75 310.5,-141.75 317.5,-141.75"/>
</g>
<!-- Node9 -->
<g id="node9" class="node">
<title>Node9</title>
<g id="a_node9"><a xlink:href="exception_8hpp.html" target="_top" xlink:title="SignalEasel exceptions.">
<polygon fill="none" stroke="black" points="750.5,-112.5 750.5,-131.5 895.5,-131.5 895.5,-112.5 750.5,-112.5"/>
<text text-anchor="middle" x="823" y="-119.5" font-family="Helvetica,sans-Serif" font-size="10.00">SignalEasel/exception.hpp</text>
</a>
</g>
</g>
<!-- Node1&#45;&gt;Node9 -->
<g id="edge9" class="edge">
<title>Node1&#45;&gt;Node9</title>
<path fill="none" stroke="midnightblue" d="M376.24,-170.53C457.36,-162.07 603.92,-146.72 739.93,-132.11"/>
<polygon fill="midnightblue" stroke="midnightblue" points="740.56,-135.56 750.12,-131.02 739.81,-128.6 740.56,-135.56"/>
</g>
<!-- Node12 -->
<g id="node12" class="node">
<title>Node12</title>
<g id="a_node12"><a xlink:href="modulator_8hpp.html" target="_top" xlink:title="Modulator base class.">
<polygon fill="none" stroke="black" points="586,-112.5 586,-131.5 732,-131.5 732,-112.5 586,-112.5"/>
<text text-anchor="middle" x="659" y="-119.5" font-family="Helvetica,sans-Serif" font-size="10.00">SignalEasel/modulator.hpp</text>
</a>
</g>
</g>
<!-- Node1&#45;&gt;Node12 -->
<g id="edge12" class="edge">
<title>Node1&#45;&gt;Node12</title>
<path fill="none" stroke="midnightblue" d="M368.67,-168.44C429.99,-158.85 529.36,-143.29 594.45,-133.1"/>
<polygon fill="midnightblue" stroke="midnightblue" points="595.25,-136.52 604.59,-131.52 594.17,-129.61 595.25,-136.52"/>
</g>
<!-- Node8&#45;&gt;Node4 -->
<g id="edge8" class="edge">
<title>Node8&#45;&gt;Node4</title>
<path fill="none" stroke="midnightblue" d="M299.7,-112.32C285.82,-103.9 264.51,-90.97 248.2,-81.07"/>
<polygon fill="midnightblue" stroke="midnightblue" points="249.63,-77.85 239.26,-75.65 246,-83.83 249.63,-77.85"/>
</g>
<!-- Node10 -->
<g id="node10" class="node">
<title>Node10</title>
<g id="a_node10"><a xlink:title=" ">
<polygon fill="none" stroke="#bfbfbf" points="754.5,-56.5 754.5,-75.5 819.5,-75.5 819.5,-56.5 754.5,-56.5"/>
<text text-anchor="middle" x="787" y="-63.5" font-family="Helvetica,sans-Serif" font-size="10.00">exception</text>
</a>
</g>
</g>
<!-- Node9&#45;&gt;Node10 -->
<g id="edge10" class="edge">
<title>Node9&#45;&gt;Node10</title>
<path fill="none" stroke="midnightblue" d="M817.06,-112.08C812.02,-104.53 804.66,-93.49 798.49,-84.23"/>
<polygon fill="midnightblue" stroke="midnightblue" points="801.29,-82.13 792.83,-75.75 795.47,-86.01 801.29,-82.13"/>
</g>
<!-- Node11 -->
<g id="node11" class="node">
<title>Node11</title>
<g id="a_node11"><a xlink:title=" ">
<polygon fill="none" stroke="#bfbfbf" points="736,-0.5 736,-19.5 780,-19.5 780,-0.5 736,-0.5"/>
<text text-anchor="middle" x="758" y="-7.5" font-family="Helvetica,sans-Serif" font-size="10.00">string</text>
</a>
</g>
</g>
<!-- Node9&#45;&gt;Node11 -->
<g id="edge11" class="edge">
<title>Node9&#45;&gt;Node11</title>
<path fill="none" stroke="midnightblue" d="M826.71,-112.38C831.71,-99.3 838.94,-74.07 829,-56 820.52,-40.58 804.27,-29.7 789.46,-22.51"/>
<polygon fill="midnightblue" stroke="midnightblue" points="790.59,-19.18 780.03,-18.3 787.74,-25.57 790.59,-19.18"/>
</g>
<!-- Node12&#45;&gt;Node6 -->
<g id="edge13" class="edge">
<title>Node12&#45;&gt;Node6</title>
<path fill="none" stroke="midnightblue" d="M642.77,-112.32C626.65,-103.7 601.7,-90.36 583.04,-80.39"/>
<polygon fill="midnightblue" stroke="midnightblue" points="584.66,-77.28 574.19,-75.65 581.36,-83.46 584.66,-77.28"/>
</g>
<!-- Node13 -->
<g id="node13" class="node">
<title>Node13</title>
<g id="a_node13"><a xlink:href="settings_8hpp.html" target="_top" xlink:title="Settings structures for SignalEasel.">
<polygon fill="none" stroke="black" points="600,-56.5 600,-75.5 736,-75.5 736,-56.5 600,-56.5"/>
<text text-anchor="middle" x="668" y="-63.5" font-family="Helvetica,sans-Serif" font-size="10.00">SignalEasel/settings.hpp</text>
</a>
</g>
</g>
<!-- Node12&#45;&gt;Node13 -->
<g id="edge14" class="edge">
<title>Node12&#45;&gt;Node13</title>
<path fill="none" stroke="midnightblue" d="M660.49,-112.08C661.68,-104.93 663.39,-94.64 664.88,-85.69"/>
<polygon fill="midnightblue" stroke="midnightblue" points="668.35,-86.19 666.54,-75.75 661.45,-85.04 668.35,-86.19"/>
</g>
<!-- Node13&#45;&gt;Node11 -->
<g id="edge15" class="edge">
<title>Node13&#45;&gt;Node11</title>
<path fill="none" stroke="midnightblue" d="M682.46,-56.32C696.5,-47.9 718.05,-34.97 734.54,-25.07"/>
<polygon fill="midnightblue" stroke="midnightblue" points="736.8,-27.8 743.58,-19.65 733.2,-21.8 736.8,-27.8"/>
</g>
</g>
</svg>
