<?xml version="1.0" encoding="UTF-8" standalone="no"?>
<!DOCTYPE svg PUBLIC "-//W3C//DTD SVG 1.1//EN"
 "http://www.w3.org/Graphics/SVG/1.1/DTD/svg11.dtd">
<!-- Generated by graphviz version 2.43.0 (0)
 -->
<!-- Title: psk.hpp Pages: 1 -->
<svg width="460pt" height="84pt"
 viewBox="0.00 0.00 459.50 84.00" xmlns="http://www.w3.org/2000/svg" xmlns:xlink="http://www.w3.org/1999/xlink">
<g id="graph0" class="graph" transform="scale(1 1) rotate(0) translate(4 80)">
<title>psk.hpp</title>
<!-- Node1 -->
<g id="node1" class="node">
<title>Node1</title>
<g id="a_node1"><a xlink:title="Phase Shift Keying Implementation.">
<polygon fill="#bfbfbf" stroke="black" points="232,-56.5 232,-75.5 287,-75.5 287,-56.5 232,-56.5"/>
<text text-anchor="middle" x="259.5" y="-63.5" font-family="Helvetica,sans-Serif" font-size="10.00">psk.hpp</text>
</a>
</g>
</g>
<!-- Node2 -->
<g id="node2" class="node">
<title>Node2</title>
<g id="a_node2"><a xlink:href="convolutional__code_8cpp.html" target="_top" xlink:title="Convolutional Code Implementation.">
<polygon fill="none" stroke="black" points="0,-0.5 0,-19.5 131,-19.5 131,-0.5 0,-0.5"/>
<text text-anchor="middle" x="65.5" y="-7.5" font-family="Helvetica,sans-Serif" font-size="10.00">convolutional_code.cpp</text>
</a>
</g>
</g>
<!-- Node1&#45;&gt;Node2 -->
<g id="edge1" class="edge">
<title>Node1&#45;&gt;Node2</title>
<path fill="none" stroke="midnightblue" d="M221.89,-54.53C185.23,-44.33 130.19,-29.01 96.12,-19.52"/>
<polygon fill="midnightblue" stroke="midnightblue" points="221.13,-57.95 231.7,-57.26 223.01,-51.21 221.13,-57.95"/>
</g>
<!-- Node3 -->
<g id="node3" class="node">
<title>Node3</title>
<g id="a_node3"><a xlink:href="psk__modulator_8cpp.html" target="_top" xlink:title="Phase Shift Keying modulator.">
<polygon fill="none" stroke="black" points="149,-0.5 149,-19.5 258,-19.5 258,-0.5 149,-0.5"/>
<text text-anchor="middle" x="203.5" y="-7.5" font-family="Helvetica,sans-Serif" font-size="10.00">psk_modulator.cpp</text>
</a>
</g>
</g>
<!-- Node1&#45;&gt;Node3 -->
<g id="edge2" class="edge">
<title>Node1&#45;&gt;Node3</title>
<path fill="none" stroke="midnightblue" d="M243.17,-49.25C233.24,-39.67 220.91,-27.79 212.66,-19.83"/>
<polygon fill="midnightblue" stroke="midnightblue" points="240.87,-51.9 250.5,-56.32 245.73,-46.86 240.87,-51.9"/>
</g>
<!-- Node4 -->
<g id="node4" class="node">
<title>Node4</title>
<g id="a_node4"><a xlink:href="varicode_8cpp.html" target="_top" xlink:title="Varicode Implementation.">
<polygon fill="none" stroke="black" points="276,-0.5 276,-19.5 355,-19.5 355,-0.5 276,-0.5"/>
<text text-anchor="middle" x="315.5" y="-7.5" font-family="Helvetica,sans-Serif" font-size="10.00">varicode.cpp</text>
</a>
</g>
</g>
<!-- Node1&#45;&gt;Node4 -->
<g id="edge3" class="edge">
<title>Node1&#45;&gt;Node4</title>
<path fill="none" stroke="midnightblue" d="M275.83,-49.25C285.76,-39.67 298.09,-27.79 306.34,-19.83"/>
<polygon fill="midnightblue" stroke="midnightblue" points="273.27,-46.86 268.5,-56.32 278.13,-51.9 273.27,-46.86"/>
</g>
<!-- Node5 -->
<g id="node5" class="node">
<title>Node5</title>
<g id="a_node5"><a xlink:href="psk__test_8cpp.html" target="_top" xlink:title=" ">
<polygon fill="none" stroke="black" points="373.5,-0.5 373.5,-19.5 451.5,-19.5 451.5,-0.5 373.5,-0.5"/>
<text text-anchor="middle" x="412.5" y="-7.5" font-family="Helvetica,sans-Serif" font-size="10.00">psk_test.cpp</text>
</a>
</g>
</g>
<!-- Node1&#45;&gt;Node5 -->
<g id="edge4" class="edge">
<title>Node1&#45;&gt;Node5</title>
<path fill="none" stroke="midnightblue" d="M293.39,-53.04C322.18,-42.88 362.79,-28.55 388.37,-19.52"/>
<polygon fill="midnightblue" stroke="midnightblue" points="292.01,-49.81 283.74,-56.44 294.34,-56.42 292.01,-49.81"/>
</g>
</g>
</svg>
