<?xml version="1.0" encoding="UTF-8" standalone="no"?>
<!DOCTYPE svg PUBLIC "-//W3C//DTD SVG 1.1//EN"
 "http://www.w3.org/Graphics/SVG/1.1/DTD/svg11.dtd">
<!-- Generated by graphviz version 2.43.0 (0)
 -->
<!-- Title: psk_modulator.cpp Pages: 1 -->
<svg width="1250pt" height="319pt"
 viewBox="0.00 0.00 1249.77 319.00" xmlns="http://www.w3.org/2000/svg" xmlns:xlink="http://www.w3.org/1999/xlink">
<g id="graph0" class="graph" transform="scale(1 1) rotate(0) translate(4 315)">
<title>psk_modulator.cpp</title>
<!-- Node1 -->
<g id="node1" class="node">
<title>Node1</title>
<g id="a_node1"><a xlink:title="Phase Shift Keying modulator.">
<polygon fill="#bfbfbf" stroke="black" points="523,-291.5 523,-310.5 632,-310.5 632,-291.5 523,-291.5"/>
<text text-anchor="middle" x="577.5" y="-298.5" font-family="Helvetica,sans-Serif" font-size="10.00">psk_modulator.cpp</text>
</a>
</g>
</g>
<!-- Node2 -->
<g id="node2" class="node">
<title>Node2</title>
<g id="a_node2"><a xlink:title=" ">
<polygon fill="none" stroke="#bfbfbf" points="0,-112.5 0,-131.5 47,-131.5 47,-112.5 0,-112.5"/>
<text text-anchor="middle" x="23.5" y="-119.5" font-family="Helvetica,sans-Serif" font-size="10.00">cmath</text>
</a>
</g>
</g>
<!-- Node1&#45;&gt;Node2 -->
<g id="edge1" class="edge">
<title>Node1&#45;&gt;Node2</title>
<path fill="none" stroke="midnightblue" d="M522.9,-293.44C472.9,-286.61 397.23,-274.19 333.5,-255 224.31,-222.12 101.66,-162.78 49.36,-136.34"/>
<polygon fill="midnightblue" stroke="midnightblue" points="50.65,-133.06 40.15,-131.65 47.48,-139.3 50.65,-133.06"/>
</g>
<!-- Node3 -->
<g id="node3" class="node">
<title>Node3</title>
<g id="a_node3"><a xlink:title=" ">
<polygon fill="none" stroke="#bfbfbf" points="65.5,-112.5 65.5,-131.5 125.5,-131.5 125.5,-112.5 65.5,-112.5"/>
<text text-anchor="middle" x="95.5" y="-119.5" font-family="Helvetica,sans-Serif" font-size="10.00">iostream</text>
</a>
</g>
</g>
<!-- Node1&#45;&gt;Node3 -->
<g id="edge2" class="edge">
<title>Node1&#45;&gt;Node3</title>
<path fill="none" stroke="midnightblue" d="M543.79,-291.45C511.78,-283.08 462.44,-269.48 420.5,-255 308.9,-216.47 179.95,-160.6 123.92,-135.75"/>
<polygon fill="midnightblue" stroke="midnightblue" points="125.2,-132.48 114.64,-131.61 122.35,-138.88 125.2,-132.48"/>
</g>
<!-- Node4 -->
<g id="node4" class="node">
<title>Node4</title>
<g id="a_node4"><a xlink:title=" ">
<polygon fill="none" stroke="#bfbfbf" points="144,-112.5 144,-131.5 269,-131.5 269,-112.5 144,-112.5"/>
<text text-anchor="middle" x="206.5" y="-119.5" font-family="Helvetica,sans-Serif" font-size="10.00">BoosterSeat/math.hpp</text>
</a>
</g>
</g>
<!-- Node1&#45;&gt;Node4 -->
<g id="edge3" class="edge">
<title>Node1&#45;&gt;Node4</title>
<path fill="none" stroke="midnightblue" d="M559.61,-291.46C499.75,-262.91 306.22,-170.58 234.01,-136.12"/>
<polygon fill="midnightblue" stroke="midnightblue" points="235.18,-132.81 224.65,-131.66 232.17,-139.12 235.18,-132.81"/>
</g>
<!-- Node5 -->
<g id="node5" class="node">
<title>Node5</title>
<g id="a_node5"><a xlink:title=" ">
<polygon fill="none" stroke="#bfbfbf" points="817,-224.5 817,-254.5 940,-254.5 940,-224.5 817,-224.5"/>
<text text-anchor="start" x="825" y="-242.5" font-family="Helvetica,sans-Serif" font-size="10.00">BoosterSeat/template</text>
<text text-anchor="middle" x="878.5" y="-231.5" font-family="Helvetica,sans-Serif" font-size="10.00">_tools.hpp</text>
</a>
</g>
</g>
<!-- Node1&#45;&gt;Node5 -->
<g id="edge4" class="edge">
<title>Node1&#45;&gt;Node5</title>
<path fill="none" stroke="midnightblue" d="M621.61,-291.48C665.85,-282.91 736.19,-269.22 806.95,-255.1"/>
<polygon fill="midnightblue" stroke="midnightblue" points="807.81,-258.5 816.93,-253.11 806.44,-251.63 807.81,-258.5"/>
</g>
<!-- Node6 -->
<g id="node6" class="node">
<title>Node6</title>
<g id="a_node6"><a xlink:href="constants_8hpp.html" target="_top" xlink:title="Common constants used throughout the library.">
<polygon fill="none" stroke="black" points="690.5,-112.5 690.5,-131.5 834.5,-131.5 834.5,-112.5 690.5,-112.5"/>
<text text-anchor="middle" x="762.5" y="-119.5" font-family="Helvetica,sans-Serif" font-size="10.00">SignalEasel/constants.hpp</text>
</a>
</g>
</g>
<!-- Node1&#45;&gt;Node6 -->
<g id="edge5" class="edge">
<title>Node1&#45;&gt;Node6</title>
<path fill="none" stroke="midnightblue" d="M580.13,-291.18C584.96,-276.08 596.46,-244.88 614.5,-224 648.78,-184.32 702.08,-153.11 734.49,-136.41"/>
<polygon fill="midnightblue" stroke="midnightblue" points="736.48,-139.33 743.84,-131.7 733.33,-133.08 736.48,-139.33"/>
</g>
<!-- Node8 -->
<g id="node8" class="node">
<title>Node8</title>
<g id="a_node8"><a xlink:href="psk_8hpp.html" target="_top" xlink:title="Phase Shift Keying Implementation.">
<polygon fill="none" stroke="black" points="872.5,-168.5 872.5,-187.5 986.5,-187.5 986.5,-168.5 872.5,-168.5"/>
<text text-anchor="middle" x="929.5" y="-175.5" font-family="Helvetica,sans-Serif" font-size="10.00">SignalEasel/psk.hpp</text>
</a>
</g>
</g>
<!-- Node1&#45;&gt;Node8 -->
<g id="edge7" class="edge">
<title>Node1&#45;&gt;Node8</title>
<path fill="none" stroke="midnightblue" d="M583.83,-291.2C596.04,-274.95 624.57,-240.39 657.5,-224 722.18,-191.81 805.14,-181.93 862.34,-179.25"/>
<polygon fill="midnightblue" stroke="midnightblue" points="862.51,-182.75 872.36,-178.84 862.23,-175.75 862.51,-182.75"/>
</g>
<!-- Node17 -->
<g id="node17" class="node">
<title>Node17</title>
<g id="a_node17"><a xlink:href="convolutional__code_8hpp.html" target="_top" xlink:title="Convolutional Code Implementation.">
<polygon fill="none" stroke="black" points="666.5,-230 666.5,-249 798.5,-249 798.5,-230 666.5,-230"/>
<text text-anchor="middle" x="732.5" y="-237" font-family="Helvetica,sans-Serif" font-size="10.00">convolutional_code.hpp</text>
</a>
</g>
</g>
<!-- Node1&#45;&gt;Node17 -->
<g id="edge18" class="edge">
<title>Node1&#45;&gt;Node17</title>
<path fill="none" stroke="midnightblue" d="M599.71,-291.48C626.18,-281.31 670.61,-264.26 700.72,-252.7"/>
<polygon fill="midnightblue" stroke="midnightblue" points="702.25,-255.86 710.33,-249.01 699.74,-249.33 702.25,-255.86"/>
</g>
<!-- Node18 -->
<g id="node18" class="node">
<title>Node18</title>
<g id="a_node18"><a xlink:href="psk__wave__shaper_8hpp.html" target="_top" xlink:title=" ">
<polygon fill="none" stroke="black" points="448.5,-168.5 448.5,-187.5 572.5,-187.5 572.5,-168.5 448.5,-168.5"/>
<text text-anchor="middle" x="510.5" y="-175.5" font-family="Helvetica,sans-Serif" font-size="10.00">psk_wave_shaper.hpp</text>
</a>
</g>
</g>
<!-- Node1&#45;&gt;Node18 -->
<g id="edge33" class="edge">
<title>Node1&#45;&gt;Node18</title>
<path fill="none" stroke="midnightblue" d="M572.68,-291.3C561.72,-271.5 534.74,-222.78 520.19,-196.49"/>
<polygon fill="midnightblue" stroke="midnightblue" points="523.18,-194.68 515.27,-187.62 517.06,-198.07 523.18,-194.68"/>
</g>
<!-- Node7 -->
<g id="node7" class="node">
<title>Node7</title>
<g id="a_node7"><a xlink:title=" ">
<polygon fill="none" stroke="#bfbfbf" points="849.5,-56.5 849.5,-75.5 899.5,-75.5 899.5,-56.5 849.5,-56.5"/>
<text text-anchor="middle" x="874.5" y="-63.5" font-family="Helvetica,sans-Serif" font-size="10.00">cstdint</text>
</a>
</g>
</g>
<!-- Node6&#45;&gt;Node7 -->
<g id="edge6" class="edge">
<title>Node6&#45;&gt;Node7</title>
<path fill="none" stroke="midnightblue" d="M780.49,-112.32C798.54,-103.62 826.55,-90.12 847.3,-80.11"/>
<polygon fill="midnightblue" stroke="midnightblue" points="849.06,-83.15 856.55,-75.65 846.02,-76.84 849.06,-83.15"/>
</g>
<!-- Node9 -->
<g id="node9" class="node">
<title>Node9</title>
<g id="a_node9"><a xlink:title=" ">
<polygon fill="none" stroke="#bfbfbf" points="852.5,-112.5 852.5,-131.5 894.5,-131.5 894.5,-112.5 852.5,-112.5"/>
<text text-anchor="middle" x="873.5" y="-119.5" font-family="Helvetica,sans-Serif" font-size="10.00">array</text>
</a>
</g>
</g>
<!-- Node8&#45;&gt;Node9 -->
<g id="edge8" class="edge">
<title>Node8&#45;&gt;Node9</title>
<path fill="none" stroke="midnightblue" d="M920.5,-168.32C912.31,-160.42 899.99,-148.55 890.03,-138.94"/>
<polygon fill="midnightblue" stroke="midnightblue" points="892.29,-136.26 882.66,-131.83 887.43,-141.29 892.29,-136.26"/>
</g>
<!-- Node10 -->
<g id="node10" class="node">
<title>Node10</title>
<g id="a_node10"><a xlink:title=" ">
<polygon fill="none" stroke="#bfbfbf" points="1190.5,-112.5 1190.5,-131.5 1228.5,-131.5 1228.5,-112.5 1190.5,-112.5"/>
<text text-anchor="middle" x="1209.5" y="-119.5" font-family="Helvetica,sans-Serif" font-size="10.00">map</text>
</a>
</g>
</g>
<!-- Node8&#45;&gt;Node10 -->
<g id="edge9" class="edge">
<title>Node8&#45;&gt;Node10</title>
<path fill="none" stroke="midnightblue" d="M986.51,-169.06C1035.58,-161.71 1108.4,-149.62 1180.2,-132.05"/>
<polygon fill="midnightblue" stroke="midnightblue" points="1181.46,-135.35 1190.32,-129.54 1179.77,-128.55 1181.46,-135.35"/>
</g>
<!-- Node11 -->
<g id="node11" class="node">
<title>Node11</title>
<g id="a_node11"><a xlink:title=" ">
<polygon fill="none" stroke="#bfbfbf" points="1079,-112.5 1079,-131.5 1172,-131.5 1172,-112.5 1079,-112.5"/>
<text text-anchor="middle" x="1125.5" y="-119.5" font-family="Helvetica,sans-Serif" font-size="10.00">unordered_map</text>
</a>
</g>
</g>
<!-- Node8&#45;&gt;Node11 -->
<g id="edge10" class="edge">
<title>Node8&#45;&gt;Node11</title>
<path fill="none" stroke="midnightblue" d="M960.56,-168.44C994.1,-159.2 1047.7,-144.44 1084.64,-134.26"/>
<polygon fill="midnightblue" stroke="midnightblue" points="1085.88,-137.55 1094.59,-131.52 1084.02,-130.8 1085.88,-137.55"/>
</g>
<!-- Node12 -->
<g id="node12" class="node">
<title>Node12</title>
<g id="a_node12"><a xlink:href="bit__stream_8hpp.html" target="_top" xlink:title="The bit stream class.">
<polygon fill="none" stroke="black" points="912,-112.5 912,-131.5 1061,-131.5 1061,-112.5 912,-112.5"/>
<text text-anchor="middle" x="986.5" y="-119.5" font-family="Helvetica,sans-Serif" font-size="10.00">SignalEasel/bit_stream.hpp</text>
</a>
</g>
</g>
<!-- Node8&#45;&gt;Node12 -->
<g id="edge11" class="edge">
<title>Node8&#45;&gt;Node12</title>
<path fill="none" stroke="midnightblue" d="M938.66,-168.32C947,-160.42 959.53,-148.55 969.68,-138.94"/>
<polygon fill="midnightblue" stroke="midnightblue" points="972.32,-141.25 977.18,-131.83 967.51,-136.17 972.32,-141.25"/>
</g>
<!-- Node14 -->
<g id="node14" class="node">
<title>Node14</title>
<g id="a_node14"><a xlink:href="modulator_8hpp.html" target="_top" xlink:title="Modulator base class.">
<polygon fill="none" stroke="black" points="488.5,-112.5 488.5,-131.5 634.5,-131.5 634.5,-112.5 488.5,-112.5"/>
<text text-anchor="middle" x="561.5" y="-119.5" font-family="Helvetica,sans-Serif" font-size="10.00">SignalEasel/modulator.hpp</text>
</a>
</g>
</g>
<!-- Node8&#45;&gt;Node14 -->
<g id="edge14" class="edge">
<title>Node8&#45;&gt;Node14</title>
<path fill="none" stroke="midnightblue" d="M872.4,-168.62C806.88,-159.01 699.51,-143.25 629.67,-133"/>
<polygon fill="midnightblue" stroke="midnightblue" points="630.04,-129.52 619.64,-131.53 629.03,-136.45 630.04,-129.52"/>
</g>
<!-- Node12&#45;&gt;Node7 -->
<g id="edge12" class="edge">
<title>Node12&#45;&gt;Node7</title>
<path fill="none" stroke="midnightblue" d="M968.51,-112.32C950.46,-103.62 922.45,-90.12 901.7,-80.11"/>
<polygon fill="midnightblue" stroke="midnightblue" points="902.98,-76.84 892.45,-75.65 899.94,-83.15 902.98,-76.84"/>
</g>
<!-- Node13 -->
<g id="node13" class="node">
<title>Node13</title>
<g id="a_node13"><a xlink:title=" ">
<polygon fill="none" stroke="#bfbfbf" points="443,-56.5 443,-75.5 490,-75.5 490,-56.5 443,-56.5"/>
<text text-anchor="middle" x="466.5" y="-63.5" font-family="Helvetica,sans-Serif" font-size="10.00">vector</text>
</a>
</g>
</g>
<!-- Node12&#45;&gt;Node13 -->
<g id="edge13" class="edge">
<title>Node12&#45;&gt;Node13</title>
<path fill="none" stroke="midnightblue" d="M911.85,-112.84C909.03,-112.55 906.24,-112.27 903.5,-112 727.35,-94.6 678.68,-107.36 500.17,-75.79"/>
<polygon fill="midnightblue" stroke="midnightblue" points="500.64,-72.32 490.18,-74 499.4,-79.21 500.64,-72.32"/>
</g>
<!-- Node14&#45;&gt;Node13 -->
<g id="edge15" class="edge">
<title>Node14&#45;&gt;Node13</title>
<path fill="none" stroke="midnightblue" d="M546.24,-112.32C531.28,-103.82 508.25,-90.73 490.77,-80.8"/>
<polygon fill="midnightblue" stroke="midnightblue" points="492.15,-77.55 481.73,-75.65 488.69,-83.64 492.15,-77.55"/>
</g>
<!-- Node15 -->
<g id="node15" class="node">
<title>Node15</title>
<g id="a_node15"><a xlink:href="settings_8hpp.html" target="_top" xlink:title="Settings structures for SignalEasel.">
<polygon fill="none" stroke="black" points="508.5,-56.5 508.5,-75.5 644.5,-75.5 644.5,-56.5 508.5,-56.5"/>
<text text-anchor="middle" x="576.5" y="-63.5" font-family="Helvetica,sans-Serif" font-size="10.00">SignalEasel/settings.hpp</text>
</a>
</g>
</g>
<!-- Node14&#45;&gt;Node15 -->
<g id="edge16" class="edge">
<title>Node14&#45;&gt;Node15</title>
<path fill="none" stroke="midnightblue" d="M563.98,-112.08C565.99,-104.85 568.89,-94.41 571.39,-85.4"/>
<polygon fill="midnightblue" stroke="midnightblue" points="574.76,-86.32 574.07,-75.75 568.02,-84.45 574.76,-86.32"/>
</g>
<!-- Node16 -->
<g id="node16" class="node">
<title>Node16</title>
<g id="a_node16"><a xlink:title=" ">
<polygon fill="none" stroke="#bfbfbf" points="473.5,-0.5 473.5,-19.5 517.5,-19.5 517.5,-0.5 473.5,-0.5"/>
<text text-anchor="middle" x="495.5" y="-7.5" font-family="Helvetica,sans-Serif" font-size="10.00">string</text>
</a>
</g>
</g>
<!-- Node15&#45;&gt;Node16 -->
<g id="edge17" class="edge">
<title>Node15&#45;&gt;Node16</title>
<path fill="none" stroke="midnightblue" d="M563.49,-56.32C550.97,-47.98 531.82,-35.21 517.03,-25.35"/>
<polygon fill="midnightblue" stroke="midnightblue" points="518.74,-22.29 508.48,-19.65 514.86,-28.11 518.74,-22.29"/>
</g>
<!-- Node17&#45;&gt;Node7 -->
<g id="edge19" class="edge">
<title>Node17&#45;&gt;Node7</title>
<path fill="none" stroke="midnightblue" d="M775.86,-229.94C786.52,-227.92 797.91,-225.82 808.5,-224 904.6,-207.51 1178.95,-209.96 1237.5,-132 1277.8,-78.35 1008.74,-68.98 909.91,-67.34"/>
<polygon fill="midnightblue" stroke="midnightblue" points="909.85,-63.84 899.8,-67.19 909.75,-70.84 909.85,-63.84"/>
</g>
<!-- Node17&#45;&gt;Node10 -->
<g id="edge20" class="edge">
<title>Node17&#45;&gt;Node10</title>
<path fill="none" stroke="midnightblue" d="M777.19,-229.98C850.84,-215.93 990.19,-189.3 995.5,-188 1076.31,-168.13 1097.56,-158.37 1180.63,-132.25"/>
<polygon fill="midnightblue" stroke="midnightblue" points="1181.74,-135.57 1190.24,-129.24 1179.65,-128.89 1181.74,-135.57"/>
</g>
<!-- Node17&#45;&gt;Node18 -->
<g id="edge21" class="edge">
<title>Node17&#45;&gt;Node18</title>
<path fill="none" stroke="midnightblue" d="M700.69,-229.98C661.62,-219.5 595.24,-201.71 552.14,-190.16"/>
<polygon fill="midnightblue" stroke="midnightblue" points="552.81,-186.72 542.25,-187.51 551,-193.48 552.81,-186.72"/>
</g>
<!-- Node18&#45;&gt;Node2 -->
<g id="edge23" class="edge">
<title>Node18&#45;&gt;Node2</title>
<path fill="none" stroke="midnightblue" d="M448.36,-174.14C362.45,-169.46 202.53,-158.12 57.18,-131.81"/>
<polygon fill="midnightblue" stroke="midnightblue" points="57.65,-128.33 47.18,-129.97 56.39,-135.22 57.65,-128.33"/>
</g>
<!-- Node18&#45;&gt;Node3 -->
<g id="edge25" class="edge">
<title>Node18&#45;&gt;Node3</title>
<path fill="none" stroke="midnightblue" d="M448.32,-171.63C375.64,-164.88 251.55,-151.94 135.77,-132.06"/>
<polygon fill="midnightblue" stroke="midnightblue" points="136.12,-128.56 125.67,-130.3 134.92,-135.46 136.12,-128.56"/>
</g>
<!-- Node18&#45;&gt;Node4 -->
<g id="edge27" class="edge">
<title>Node18&#45;&gt;Node4</title>
<path fill="none" stroke="midnightblue" d="M462.33,-168.44C408.63,-158.9 321.81,-143.48 264.45,-133.29"/>
<polygon fill="midnightblue" stroke="midnightblue" points="264.9,-129.82 254.44,-131.52 263.68,-136.71 264.9,-129.82"/>
</g>
<!-- Node18&#45;&gt;Node6 -->
<g id="edge28" class="edge">
<title>Node18&#45;&gt;Node6</title>
<path fill="none" stroke="midnightblue" d="M550.43,-168.44C594.39,-159.02 665.13,-143.87 712.68,-133.68"/>
<polygon fill="midnightblue" stroke="midnightblue" points="713.71,-137.03 722.76,-131.52 712.25,-130.19 713.71,-137.03"/>
</g>
<!-- Node18&#45;&gt;Node7 -->
<g id="edge24" class="edge">
<title>Node18&#45;&gt;Node7</title>
<path fill="none" stroke="midnightblue" d="M540.06,-168.47C567.35,-160.25 608.78,-146.9 643.5,-132 661.04,-124.47 663.62,-118.67 681.5,-112 734.92,-92.09 800.04,-79.1 839.34,-72.42"/>
<polygon fill="midnightblue" stroke="midnightblue" points="839.93,-75.86 849.23,-70.77 838.79,-68.96 839.93,-75.86"/>
</g>
<!-- Node18&#45;&gt;Node9 -->
<g id="edge22" class="edge">
<title>Node18&#45;&gt;Node9</title>
<path fill="none" stroke="midnightblue" d="M572.69,-171.54C637.79,-165.17 743.07,-153 842.4,-131.94"/>
<polygon fill="midnightblue" stroke="midnightblue" points="843.26,-135.34 852.3,-129.81 841.79,-128.49 843.26,-135.34"/>
</g>
<!-- Node18&#45;&gt;Node13 -->
<g id="edge26" class="edge">
<title>Node18&#45;&gt;Node13</title>
<path fill="none" stroke="midnightblue" d="M502.92,-168.33C495.78,-159.71 485.34,-145.8 479.5,-132 473.26,-117.25 469.96,-99.31 468.25,-86.03"/>
<polygon fill="midnightblue" stroke="midnightblue" points="471.69,-85.3 467.12,-75.74 464.73,-86.06 471.69,-85.3"/>
</g>
<!-- Node18&#45;&gt;Node14 -->
<g id="edge32" class="edge">
<title>Node18&#45;&gt;Node14</title>
<path fill="none" stroke="midnightblue" d="M518.92,-168.08C526.35,-160.22 537.35,-148.57 546.31,-139.08"/>
<polygon fill="midnightblue" stroke="midnightblue" points="548.91,-141.42 553.24,-131.75 543.82,-136.62 548.91,-141.42"/>
</g>
<!-- Node19 -->
<g id="node19" class="node">
<title>Node19</title>
<g id="a_node19"><a xlink:href="exception_8hpp.html" target="_top" xlink:title="SignalEasel exceptions.">
<polygon fill="none" stroke="black" points="287,-112.5 287,-131.5 432,-131.5 432,-112.5 287,-112.5"/>
<text text-anchor="middle" x="359.5" y="-119.5" font-family="Helvetica,sans-Serif" font-size="10.00">SignalEasel/exception.hpp</text>
</a>
</g>
</g>
<!-- Node18&#45;&gt;Node19 -->
<g id="edge29" class="edge">
<title>Node18&#45;&gt;Node19</title>
<path fill="none" stroke="midnightblue" d="M486.57,-168.44C461.28,-159.4 421.2,-145.06 392.82,-134.92"/>
<polygon fill="midnightblue" stroke="midnightblue" points="393.91,-131.59 383.31,-131.52 391.55,-138.18 393.91,-131.59"/>
</g>
<!-- Node19&#45;&gt;Node16 -->
<g id="edge31" class="edge">
<title>Node19&#45;&gt;Node16</title>
<path fill="none" stroke="midnightblue" d="M368.84,-112.3C382.64,-99.54 409.46,-75.22 433.5,-56 446.88,-45.31 462.48,-33.99 474.69,-25.38"/>
<polygon fill="midnightblue" stroke="midnightblue" points="476.71,-28.23 482.9,-19.63 472.7,-22.5 476.71,-28.23"/>
</g>
<!-- Node20 -->
<g id="node20" class="node">
<title>Node20</title>
<g id="a_node20"><a xlink:title=" ">
<polygon fill="none" stroke="#bfbfbf" points="321,-56.5 321,-75.5 386,-75.5 386,-56.5 321,-56.5"/>
<text text-anchor="middle" x="353.5" y="-63.5" font-family="Helvetica,sans-Serif" font-size="10.00">exception</text>
</a>
</g>
</g>
<!-- Node19&#45;&gt;Node20 -->
<g id="edge30" class="edge">
<title>Node19&#45;&gt;Node20</title>
<path fill="none" stroke="midnightblue" d="M358.51,-112.08C357.71,-104.93 356.57,-94.64 355.58,-85.69"/>
<polygon fill="midnightblue" stroke="midnightblue" points="359.06,-85.3 354.47,-75.75 352.1,-86.08 359.06,-85.3"/>
</g>
</g>
</svg>
