<?xml version="1.0" encoding="UTF-8" standalone="no"?>
<!DOCTYPE svg PUBLIC "-//W3C//DTD SVG 1.1//EN"
 "http://www.w3.org/Graphics/SVG/1.1/DTD/svg11.dtd">
<!-- Generated by graphviz version 2.43.0 (0)
 -->
<!-- Title: psk_modulator.cpp Pages: 1 -->
<svg width="1275pt" height="319pt"
 viewBox="0.00 0.00 1274.50 319.00" xmlns="http://www.w3.org/2000/svg" xmlns:xlink="http://www.w3.org/1999/xlink">
<g id="graph0" class="graph" transform="scale(1 1) rotate(0) translate(4 315)">
<title>psk_modulator.cpp</title>
<!-- Node1 -->
<g id="node1" class="node">
<title>Node1</title>
<g id="a_node1"><a xlink:title="Phase Shift Keying modulator.">
<polygon fill="#bfbfbf" stroke="black" points="421,-291.5 421,-310.5 530,-310.5 530,-291.5 421,-291.5"/>
<text text-anchor="middle" x="475.5" y="-298.5" font-family="Helvetica,sans-Serif" font-size="10.00">psk_modulator.cpp</text>
</a>
</g>
</g>
<!-- Node2 -->
<g id="node2" class="node">
<title>Node2</title>
<g id="a_node2"><a xlink:title=" ">
<polygon fill="none" stroke="#bfbfbf" points="0,-112.5 0,-131.5 47,-131.5 47,-112.5 0,-112.5"/>
<text text-anchor="middle" x="23.5" y="-119.5" font-family="Helvetica,sans-Serif" font-size="10.00">cmath</text>
</a>
</g>
</g>
<!-- Node1&#45;&gt;Node2 -->
<g id="edge1" class="edge">
<title>Node1&#45;&gt;Node2</title>
<path fill="none" stroke="midnightblue" d="M432.47,-291.47C396.4,-283.73 343.82,-271.09 299.5,-255 202.81,-219.9 94.47,-162.37 47.43,-136.43"/>
<polygon fill="midnightblue" stroke="midnightblue" points="49.05,-133.32 38.61,-131.53 45.65,-139.44 49.05,-133.32"/>
</g>
<!-- Node3 -->
<g id="node3" class="node">
<title>Node3</title>
<g id="a_node3"><a xlink:title=" ">
<polygon fill="none" stroke="#bfbfbf" points="65.5,-112.5 65.5,-131.5 125.5,-131.5 125.5,-112.5 65.5,-112.5"/>
<text text-anchor="middle" x="95.5" y="-119.5" font-family="Helvetica,sans-Serif" font-size="10.00">iostream</text>
</a>
</g>
</g>
<!-- Node1&#45;&gt;Node3 -->
<g id="edge2" class="edge">
<title>Node1&#45;&gt;Node3</title>
<path fill="none" stroke="midnightblue" d="M453.83,-291.39C431.91,-282.59 397.13,-268.35 367.5,-255 275.94,-213.75 169.32,-160.43 121.28,-136.12"/>
<polygon fill="midnightblue" stroke="midnightblue" points="122.71,-132.92 112.21,-131.52 119.55,-139.17 122.71,-132.92"/>
</g>
<!-- Node4 -->
<g id="node4" class="node">
<title>Node4</title>
<g id="a_node4"><a xlink:title=" ">
<polygon fill="none" stroke="#bfbfbf" points="144,-112.5 144,-131.5 269,-131.5 269,-112.5 144,-112.5"/>
<text text-anchor="middle" x="206.5" y="-119.5" font-family="Helvetica,sans-Serif" font-size="10.00">BoosterSeat/math.hpp</text>
</a>
</g>
</g>
<!-- Node1&#45;&gt;Node4 -->
<g id="edge3" class="edge">
<title>Node1&#45;&gt;Node4</title>
<path fill="none" stroke="midnightblue" d="M463.58,-291.35C433.73,-269.79 353.17,-212.22 283.5,-168 266.18,-157.01 246.16,-145.34 230.88,-136.64"/>
<polygon fill="midnightblue" stroke="midnightblue" points="232.47,-133.52 222.04,-131.64 229.02,-139.61 232.47,-133.52"/>
</g>
<!-- Node5 -->
<g id="node5" class="node">
<title>Node5</title>
<g id="a_node5"><a xlink:title=" ">
<polygon fill="none" stroke="#bfbfbf" points="711,-224.5 711,-254.5 834,-254.5 834,-224.5 711,-224.5"/>
<text text-anchor="start" x="719" y="-242.5" font-family="Helvetica,sans-Serif" font-size="10.00">BoosterSeat/template</text>
<text text-anchor="middle" x="772.5" y="-231.5" font-family="Helvetica,sans-Serif" font-size="10.00">_tools.hpp</text>
</a>
</g>
</g>
<!-- Node1&#45;&gt;Node5 -->
<g id="edge4" class="edge">
<title>Node1&#45;&gt;Node5</title>
<path fill="none" stroke="midnightblue" d="M518.05,-291.48C565.72,-281.93 643.76,-266.29 700.87,-254.85"/>
<polygon fill="midnightblue" stroke="midnightblue" points="701.8,-258.23 710.92,-252.84 700.43,-251.37 701.8,-258.23"/>
</g>
<!-- Node6 -->
<g id="node6" class="node">
<title>Node6</title>
<g id="a_node6"><a xlink:href="constants_8hpp.html" target="_top" xlink:title="Common constants used throughout the library.">
<polygon fill="none" stroke="black" points="450.5,-112.5 450.5,-131.5 594.5,-131.5 594.5,-112.5 450.5,-112.5"/>
<text text-anchor="middle" x="522.5" y="-119.5" font-family="Helvetica,sans-Serif" font-size="10.00">SignalEasel/constants.hpp</text>
</a>
</g>
</g>
<!-- Node1&#45;&gt;Node6 -->
<g id="edge5" class="edge">
<title>Node1&#45;&gt;Node6</title>
<path fill="none" stroke="midnightblue" d="M473.23,-291.2C468.04,-269.29 457.14,-210.99 475.5,-168 480.65,-155.95 490.78,-145.58 500.33,-137.84"/>
<polygon fill="midnightblue" stroke="midnightblue" points="502.54,-140.55 508.42,-131.74 498.33,-134.96 502.54,-140.55"/>
</g>
<!-- Node8 -->
<g id="node8" class="node">
<title>Node8</title>
<g id="a_node8"><a xlink:href="psk_8hpp.html" target="_top" xlink:title="Phase Shift Keying Implementation.">
<polygon fill="none" stroke="black" points="910.5,-168.5 910.5,-187.5 1024.5,-187.5 1024.5,-168.5 910.5,-168.5"/>
<text text-anchor="middle" x="967.5" y="-175.5" font-family="Helvetica,sans-Serif" font-size="10.00">SignalEasel/psk.hpp</text>
</a>
</g>
</g>
<!-- Node1&#45;&gt;Node8 -->
<g id="edge7" class="edge">
<title>Node1&#45;&gt;Node8</title>
<path fill="none" stroke="midnightblue" d="M530.3,-293.33C568.99,-287.1 621.26,-275.58 663.5,-255 683.41,-245.3 682.28,-233.03 702.5,-224 765.88,-195.7 845.07,-185.1 900.3,-181.18"/>
<polygon fill="midnightblue" stroke="midnightblue" points="900.58,-184.67 910.33,-180.52 900.12,-177.68 900.58,-184.67"/>
</g>
<!-- Node17 -->
<g id="node17" class="node">
<title>Node17</title>
<g id="a_node17"><a xlink:href="convolutional__code_8hpp.html" target="_top" xlink:title="Convolutional Code Implementation.">
<polygon fill="none" stroke="black" points="522.5,-230 522.5,-249 654.5,-249 654.5,-230 522.5,-230"/>
<text text-anchor="middle" x="588.5" y="-237" font-family="Helvetica,sans-Serif" font-size="10.00">convolutional_code.hpp</text>
</a>
</g>
</g>
<!-- Node1&#45;&gt;Node17 -->
<g id="edge19" class="edge">
<title>Node1&#45;&gt;Node17</title>
<path fill="none" stroke="midnightblue" d="M491.69,-291.48C510.4,-281.62 541.42,-265.29 563.3,-253.77"/>
<polygon fill="midnightblue" stroke="midnightblue" points="565.12,-256.77 572.34,-249.01 561.86,-250.57 565.12,-256.77"/>
</g>
<!-- Node18 -->
<g id="node18" class="node">
<title>Node18</title>
<g id="a_node18"><a xlink:href="psk__wave__shaper_8hpp.html" target="_top" xlink:title=" ">
<polygon fill="none" stroke="black" points="484.5,-168.5 484.5,-187.5 608.5,-187.5 608.5,-168.5 484.5,-168.5"/>
<text text-anchor="middle" x="546.5" y="-175.5" font-family="Helvetica,sans-Serif" font-size="10.00">psk_wave_shaper.hpp</text>
</a>
</g>
</g>
<!-- Node1&#45;&gt;Node18 -->
<g id="edge34" class="edge">
<title>Node1&#45;&gt;Node18</title>
<path fill="none" stroke="midnightblue" d="M479.26,-291.31C485.62,-276.93 499.2,-247.42 513.5,-224 519.43,-214.28 526.87,-204.01 533.18,-195.73"/>
<polygon fill="midnightblue" stroke="midnightblue" points="536.09,-197.7 539.47,-187.66 530.56,-193.4 536.09,-197.7"/>
</g>
<!-- Node7 -->
<g id="node7" class="node">
<title>Node7</title>
<g id="a_node7"><a xlink:title=" ">
<polygon fill="none" stroke="#bfbfbf" points="620.5,-56.5 620.5,-75.5 670.5,-75.5 670.5,-56.5 620.5,-56.5"/>
<text text-anchor="middle" x="645.5" y="-63.5" font-family="Helvetica,sans-Serif" font-size="10.00">cstdint</text>
</a>
</g>
</g>
<!-- Node6&#45;&gt;Node7 -->
<g id="edge6" class="edge">
<title>Node6&#45;&gt;Node7</title>
<path fill="none" stroke="midnightblue" d="M541.99,-112.44C562.14,-103.6 593.82,-89.69 616.83,-79.59"/>
<polygon fill="midnightblue" stroke="midnightblue" points="618.35,-82.74 626.1,-75.52 615.54,-76.33 618.35,-82.74"/>
</g>
<!-- Node9 -->
<g id="node9" class="node">
<title>Node9</title>
<g id="a_node9"><a xlink:title=" ">
<polygon fill="none" stroke="#bfbfbf" points="890.5,-112.5 890.5,-131.5 932.5,-131.5 932.5,-112.5 890.5,-112.5"/>
<text text-anchor="middle" x="911.5" y="-119.5" font-family="Helvetica,sans-Serif" font-size="10.00">array</text>
</a>
</g>
</g>
<!-- Node8&#45;&gt;Node9 -->
<g id="edge8" class="edge">
<title>Node8&#45;&gt;Node9</title>
<path fill="none" stroke="midnightblue" d="M958.5,-168.32C950.31,-160.42 937.99,-148.55 928.03,-138.94"/>
<polygon fill="midnightblue" stroke="midnightblue" points="930.29,-136.26 920.66,-131.83 925.43,-141.29 930.29,-136.26"/>
</g>
<!-- Node10 -->
<g id="node10" class="node">
<title>Node10</title>
<g id="a_node10"><a xlink:title=" ">
<polygon fill="none" stroke="#bfbfbf" points="1228.5,-112.5 1228.5,-131.5 1266.5,-131.5 1266.5,-112.5 1228.5,-112.5"/>
<text text-anchor="middle" x="1247.5" y="-119.5" font-family="Helvetica,sans-Serif" font-size="10.00">map</text>
</a>
</g>
</g>
<!-- Node8&#45;&gt;Node10 -->
<g id="edge9" class="edge">
<title>Node8&#45;&gt;Node10</title>
<path fill="none" stroke="midnightblue" d="M1024.51,-169.06C1073.58,-161.71 1146.4,-149.62 1218.2,-132.05"/>
<polygon fill="midnightblue" stroke="midnightblue" points="1219.46,-135.35 1228.32,-129.54 1217.77,-128.55 1219.46,-135.35"/>
</g>
<!-- Node11 -->
<g id="node11" class="node">
<title>Node11</title>
<g id="a_node11"><a xlink:title=" ">
<polygon fill="none" stroke="#bfbfbf" points="1117,-112.5 1117,-131.5 1210,-131.5 1210,-112.5 1117,-112.5"/>
<text text-anchor="middle" x="1163.5" y="-119.5" font-family="Helvetica,sans-Serif" font-size="10.00">unordered_map</text>
</a>
</g>
</g>
<!-- Node8&#45;&gt;Node11 -->
<g id="edge10" class="edge">
<title>Node8&#45;&gt;Node11</title>
<path fill="none" stroke="midnightblue" d="M998.56,-168.44C1032.1,-159.2 1085.7,-144.44 1122.64,-134.26"/>
<polygon fill="midnightblue" stroke="midnightblue" points="1123.88,-137.55 1132.59,-131.52 1122.02,-130.8 1123.88,-137.55"/>
</g>
<!-- Node12 -->
<g id="node12" class="node">
<title>Node12</title>
<g id="a_node12"><a xlink:href="bit__stream_8hpp.html" target="_top" xlink:title="The bit stream class.">
<polygon fill="none" stroke="black" points="950,-112.5 950,-131.5 1099,-131.5 1099,-112.5 950,-112.5"/>
<text text-anchor="middle" x="1024.5" y="-119.5" font-family="Helvetica,sans-Serif" font-size="10.00">SignalEasel/bit_stream.hpp</text>
</a>
</g>
</g>
<!-- Node8&#45;&gt;Node12 -->
<g id="edge11" class="edge">
<title>Node8&#45;&gt;Node12</title>
<path fill="none" stroke="midnightblue" d="M976.66,-168.32C985,-160.42 997.53,-148.55 1007.68,-138.94"/>
<polygon fill="midnightblue" stroke="midnightblue" points="1010.32,-141.25 1015.18,-131.83 1005.51,-136.17 1010.32,-141.25"/>
</g>
<!-- Node14 -->
<g id="node14" class="node">
<title>Node14</title>
<g id="a_node14"><a xlink:href="modulator_8hpp.html" target="_top" xlink:title="Modulator base class.">
<polygon fill="none" stroke="black" points="688.5,-112.5 688.5,-131.5 834.5,-131.5 834.5,-112.5 688.5,-112.5"/>
<text text-anchor="middle" x="761.5" y="-119.5" font-family="Helvetica,sans-Serif" font-size="10.00">SignalEasel/modulator.hpp</text>
</a>
</g>
</g>
<!-- Node8&#45;&gt;Node14 -->
<g id="edge14" class="edge">
<title>Node8&#45;&gt;Node14</title>
<path fill="none" stroke="midnightblue" d="M934.86,-168.44C899.45,-159.16 842.79,-144.31 803.95,-134.13"/>
<polygon fill="midnightblue" stroke="midnightblue" points="804.55,-130.67 793.99,-131.52 802.77,-137.44 804.55,-130.67"/>
</g>
<!-- Node12&#45;&gt;Node7 -->
<g id="edge12" class="edge">
<title>Node12&#45;&gt;Node7</title>
<path fill="none" stroke="midnightblue" d="M950.53,-112.49C869.59,-102.98 743.93,-87.62 680.64,-75.96"/>
<polygon fill="midnightblue" stroke="midnightblue" points="681.15,-72.49 670.67,-74.05 679.83,-79.37 681.15,-72.49"/>
</g>
<!-- Node13 -->
<g id="node13" class="node">
<title>Node13</title>
<g id="a_node13"><a xlink:title=" ">
<polygon fill="none" stroke="#bfbfbf" points="843,-56.5 843,-75.5 890,-75.5 890,-56.5 843,-56.5"/>
<text text-anchor="middle" x="866.5" y="-63.5" font-family="Helvetica,sans-Serif" font-size="10.00">vector</text>
</a>
</g>
</g>
<!-- Node12&#45;&gt;Node13 -->
<g id="edge13" class="edge">
<title>Node12&#45;&gt;Node13</title>
<path fill="none" stroke="midnightblue" d="M999.46,-112.44C972.49,-103.23 929.45,-88.51 899.67,-78.34"/>
<polygon fill="midnightblue" stroke="midnightblue" points="900.72,-75 890.13,-75.08 898.46,-81.62 900.72,-75"/>
</g>
<!-- Node14&#45;&gt;Node7 -->
<g id="edge15" class="edge">
<title>Node14&#45;&gt;Node7</title>
<path fill="none" stroke="midnightblue" d="M743.12,-112.44C724.28,-103.68 694.77,-89.94 673.12,-79.86"/>
<polygon fill="midnightblue" stroke="midnightblue" points="674.34,-76.56 663.79,-75.52 671.38,-82.91 674.34,-76.56"/>
</g>
<!-- Node14&#45;&gt;Node13 -->
<g id="edge16" class="edge">
<title>Node14&#45;&gt;Node13</title>
<path fill="none" stroke="midnightblue" d="M778.37,-112.32C795.21,-103.66 821.31,-90.24 840.74,-80.25"/>
<polygon fill="midnightblue" stroke="midnightblue" points="842.38,-83.34 849.67,-75.65 839.18,-77.12 842.38,-83.34"/>
</g>
<!-- Node15 -->
<g id="node15" class="node">
<title>Node15</title>
<g id="a_node15"><a xlink:href="settings_8hpp.html" target="_top" xlink:title="Settings structures for SignalEasel.">
<polygon fill="none" stroke="black" points="688.5,-56.5 688.5,-75.5 824.5,-75.5 824.5,-56.5 688.5,-56.5"/>
<text text-anchor="middle" x="756.5" y="-63.5" font-family="Helvetica,sans-Serif" font-size="10.00">SignalEasel/settings.hpp</text>
</a>
</g>
</g>
<!-- Node14&#45;&gt;Node15 -->
<g id="edge17" class="edge">
<title>Node14&#45;&gt;Node15</title>
<path fill="none" stroke="midnightblue" d="M760.67,-112.08C760.02,-105.01 759.08,-94.86 758.26,-85.99"/>
<polygon fill="midnightblue" stroke="midnightblue" points="761.72,-85.39 757.31,-75.75 754.75,-86.03 761.72,-85.39"/>
</g>
<!-- Node16 -->
<g id="node16" class="node">
<title>Node16</title>
<g id="a_node16"><a xlink:title=" ">
<polygon fill="none" stroke="#bfbfbf" points="610.5,-0.5 610.5,-19.5 654.5,-19.5 654.5,-0.5 610.5,-0.5"/>
<text text-anchor="middle" x="632.5" y="-7.5" font-family="Helvetica,sans-Serif" font-size="10.00">string</text>
</a>
</g>
</g>
<!-- Node15&#45;&gt;Node16 -->
<g id="edge18" class="edge">
<title>Node15&#45;&gt;Node16</title>
<path fill="none" stroke="midnightblue" d="M736.85,-56.44C716.54,-47.6 684.6,-33.69 661.4,-23.59"/>
<polygon fill="midnightblue" stroke="midnightblue" points="662.62,-20.3 652.06,-19.52 659.83,-26.72 662.62,-20.3"/>
</g>
<!-- Node17&#45;&gt;Node7 -->
<g id="edge20" class="edge">
<title>Node17&#45;&gt;Node7</title>
<path fill="none" stroke="midnightblue" d="M594.46,-229.96C600.99,-220.22 611.36,-203.62 617.5,-188 631.18,-153.18 639.18,-109.97 642.91,-85.74"/>
<polygon fill="midnightblue" stroke="midnightblue" points="646.39,-86.17 644.37,-75.77 639.46,-85.16 646.39,-86.17"/>
</g>
<!-- Node17&#45;&gt;Node10 -->
<g id="edge21" class="edge">
<title>Node17&#45;&gt;Node10</title>
<path fill="none" stroke="midnightblue" d="M653.88,-229.98C669.79,-227.96 686.75,-225.86 702.5,-224 849.46,-206.66 888.48,-217.46 1033.5,-188 1101.2,-174.25 1178.17,-148.21 1218.82,-133.61"/>
<polygon fill="midnightblue" stroke="midnightblue" points="1220.13,-136.86 1228.34,-130.16 1217.75,-130.28 1220.13,-136.86"/>
</g>
<!-- Node17&#45;&gt;Node18 -->
<g id="edge22" class="edge">
<title>Node17&#45;&gt;Node18</title>
<path fill="none" stroke="midnightblue" d="M582.48,-229.98C576.24,-221.14 566.33,-207.09 558.48,-195.98"/>
<polygon fill="midnightblue" stroke="midnightblue" points="561.13,-193.66 552.51,-187.51 555.41,-197.7 561.13,-193.66"/>
</g>
<!-- Node18&#45;&gt;Node2 -->
<g id="edge24" class="edge">
<title>Node18&#45;&gt;Node2</title>
<path fill="none" stroke="midnightblue" d="M484.15,-174.76C392.52,-170.7 216.08,-159.97 57.14,-131.78"/>
<polygon fill="midnightblue" stroke="midnightblue" points="57.64,-128.32 47.18,-129.99 56.4,-135.21 57.64,-128.32"/>
</g>
<!-- Node18&#45;&gt;Node3 -->
<g id="edge26" class="edge">
<title>Node18&#45;&gt;Node3</title>
<path fill="none" stroke="midnightblue" d="M484.41,-172.52C405.55,-166.31 265.12,-153.55 135.75,-132.03"/>
<polygon fill="midnightblue" stroke="midnightblue" points="136.11,-128.54 125.66,-130.33 134.94,-135.44 136.11,-128.54"/>
</g>
<!-- Node18&#45;&gt;Node4 -->
<g id="edge28" class="edge">
<title>Node18&#45;&gt;Node4</title>
<path fill="none" stroke="midnightblue" d="M492.63,-168.44C432.19,-158.85 334.26,-143.29 270.12,-133.1"/>
<polygon fill="midnightblue" stroke="midnightblue" points="270.55,-129.63 260.12,-131.52 269.45,-136.54 270.55,-129.63"/>
</g>
<!-- Node18&#45;&gt;Node6 -->
<g id="edge29" class="edge">
<title>Node18&#45;&gt;Node6</title>
<path fill="none" stroke="midnightblue" d="M542.54,-168.08C539.29,-160.77 534.58,-150.18 530.55,-141.1"/>
<polygon fill="midnightblue" stroke="midnightblue" points="533.65,-139.47 526.39,-131.75 527.25,-142.31 533.65,-139.47"/>
</g>
<!-- Node18&#45;&gt;Node7 -->
<g id="edge25" class="edge">
<title>Node18&#45;&gt;Node7</title>
<path fill="none" stroke="midnightblue" d="M559.74,-168.43C571.99,-160.08 590.27,-146.55 603.5,-132 616.74,-117.44 628.58,-98.27 636.28,-84.52"/>
<polygon fill="midnightblue" stroke="midnightblue" points="639.42,-86.08 641.13,-75.62 633.27,-82.73 639.42,-86.08"/>
</g>
<!-- Node18&#45;&gt;Node9 -->
<g id="edge23" class="edge">
<title>Node18&#45;&gt;Node9</title>
<path fill="none" stroke="midnightblue" d="M608.59,-170.71C675.18,-163.46 783.87,-150.16 876.5,-132 877.78,-131.75 879.09,-131.48 880.4,-131.2"/>
<polygon fill="midnightblue" stroke="midnightblue" points="881.56,-134.52 890.49,-128.82 879.96,-127.7 881.56,-134.52"/>
</g>
<!-- Node18&#45;&gt;Node13 -->
<g id="edge27" class="edge">
<title>Node18&#45;&gt;Node13</title>
<path fill="none" stroke="midnightblue" d="M608.62,-174.95C684.96,-171.21 808.67,-160.77 843.5,-132 857.18,-120.7 862.73,-100.7 864.98,-85.85"/>
<polygon fill="midnightblue" stroke="midnightblue" points="868.47,-86.07 866.13,-75.74 861.52,-85.28 868.47,-86.07"/>
</g>
<!-- Node18&#45;&gt;Node14 -->
<g id="edge33" class="edge">
<title>Node18&#45;&gt;Node14</title>
<path fill="none" stroke="midnightblue" d="M580.57,-168.44C617.68,-159.12 677.16,-144.18 717.71,-134"/>
<polygon fill="midnightblue" stroke="midnightblue" points="718.75,-137.35 727.59,-131.52 717.04,-130.56 718.75,-137.35"/>
</g>
<!-- Node19 -->
<g id="node19" class="node">
<title>Node19</title>
<g id="a_node19"><a xlink:href="exception_8hpp.html" target="_top" xlink:title="SignalEasel exceptions.">
<polygon fill="none" stroke="black" points="287,-112.5 287,-131.5 432,-131.5 432,-112.5 287,-112.5"/>
<text text-anchor="middle" x="359.5" y="-119.5" font-family="Helvetica,sans-Serif" font-size="10.00">SignalEasel/exception.hpp</text>
</a>
</g>
</g>
<!-- Node18&#45;&gt;Node19 -->
<g id="edge30" class="edge">
<title>Node18&#45;&gt;Node19</title>
<path fill="none" stroke="midnightblue" d="M516.87,-168.44C485,-159.24 434.17,-144.56 398.94,-134.39"/>
<polygon fill="midnightblue" stroke="midnightblue" points="399.57,-130.93 388.99,-131.52 397.63,-137.65 399.57,-130.93"/>
</g>
<!-- Node19&#45;&gt;Node16 -->
<g id="edge32" class="edge">
<title>Node19&#45;&gt;Node16</title>
<path fill="none" stroke="midnightblue" d="M380.92,-112.37C429.06,-92.97 545.96,-45.87 601.81,-23.37"/>
<polygon fill="midnightblue" stroke="midnightblue" points="603.21,-26.58 611.18,-19.59 600.59,-20.08 603.21,-26.58"/>
</g>
<!-- Node20 -->
<g id="node20" class="node">
<title>Node20</title>
<g id="a_node20"><a xlink:title=" ">
<polygon fill="none" stroke="#bfbfbf" points="327,-56.5 327,-75.5 392,-75.5 392,-56.5 327,-56.5"/>
<text text-anchor="middle" x="359.5" y="-63.5" font-family="Helvetica,sans-Serif" font-size="10.00">exception</text>
</a>
</g>
</g>
<!-- Node19&#45;&gt;Node20 -->
<g id="edge31" class="edge">
<title>Node19&#45;&gt;Node20</title>
<path fill="none" stroke="midnightblue" d="M359.5,-112.08C359.5,-105.01 359.5,-94.86 359.5,-85.99"/>
<polygon fill="midnightblue" stroke="midnightblue" points="363,-85.75 359.5,-75.75 356,-85.75 363,-85.75"/>
</g>
</g>
</svg>
