<?xml version="1.0" encoding="UTF-8" standalone="no"?>
<!DOCTYPE svg PUBLIC "-//W3C//DTD SVG 1.1//EN"
 "http://www.w3.org/Graphics/SVG/1.1/DTD/svg11.dtd">
<!-- Generated by graphviz version 2.43.0 (0)
 -->
<!-- Title: pulse_audio_writer.cpp Pages: 1 -->
<svg width="832pt" height="196pt"
 viewBox="0.00 0.00 831.50 196.00" xmlns="http://www.w3.org/2000/svg" xmlns:xlink="http://www.w3.org/1999/xlink">
<g id="graph0" class="graph" transform="scale(1 1) rotate(0) translate(4 192)">
<title>pulse_audio_writer.cpp</title>
<!-- Node1 -->
<g id="node1" class="node">
<title>Node1</title>
<g id="a_node1"><a xlink:title="Simple pulse audio interface.">
<polygon fill="#bfbfbf" stroke="black" points="235.5,-168.5 235.5,-187.5 363.5,-187.5 363.5,-168.5 235.5,-168.5"/>
<text text-anchor="middle" x="299.5" y="-175.5" font-family="Helvetica,sans-Serif" font-size="10.00">pulse_audio_writer.cpp</text>
</a>
</g>
</g>
<!-- Node2 -->
<g id="node2" class="node">
<title>Node2</title>
<g id="a_node2"><a xlink:href="exception_8hpp.html" target="_top" xlink:title="SignalEasel exceptions.">
<polygon fill="none" stroke="black" points="21,-112.5 21,-131.5 166,-131.5 166,-112.5 21,-112.5"/>
<text text-anchor="middle" x="93.5" y="-119.5" font-family="Helvetica,sans-Serif" font-size="10.00">SignalEasel/exception.hpp</text>
</a>
</g>
</g>
<!-- Node1&#45;&gt;Node2 -->
<g id="edge1" class="edge">
<title>Node1&#45;&gt;Node2</title>
<path fill="none" stroke="midnightblue" d="M266.86,-168.44C231.45,-159.16 174.79,-144.31 135.95,-134.13"/>
<polygon fill="midnightblue" stroke="midnightblue" points="136.55,-130.67 125.99,-131.52 134.77,-137.44 136.55,-130.67"/>
</g>
<!-- Node5 -->
<g id="node5" class="node">
<title>Node5</title>
<g id="a_node5"><a xlink:href="modulator_8hpp.html" target="_top" xlink:title="Modulator base class.">
<polygon fill="none" stroke="black" points="226.5,-112.5 226.5,-131.5 372.5,-131.5 372.5,-112.5 226.5,-112.5"/>
<text text-anchor="middle" x="299.5" y="-119.5" font-family="Helvetica,sans-Serif" font-size="10.00">SignalEasel/modulator.hpp</text>
</a>
</g>
</g>
<!-- Node1&#45;&gt;Node5 -->
<g id="edge4" class="edge">
<title>Node1&#45;&gt;Node5</title>
<path fill="none" stroke="midnightblue" d="M299.5,-168.08C299.5,-161.01 299.5,-150.86 299.5,-141.99"/>
<polygon fill="midnightblue" stroke="midnightblue" points="303,-141.75 299.5,-131.75 296,-141.75 303,-141.75"/>
</g>
<!-- Node9 -->
<g id="node9" class="node">
<title>Node9</title>
<g id="a_node9"><a xlink:href="pulse__audio_8hpp.html" target="_top" xlink:title="Reads audio from pulse audio.">
<polygon fill="none" stroke="black" points="467,-112.5 467,-131.5 622,-131.5 622,-112.5 467,-112.5"/>
<text text-anchor="middle" x="544.5" y="-119.5" font-family="Helvetica,sans-Serif" font-size="10.00">SignalEasel/pulse_audio.hpp</text>
</a>
</g>
</g>
<!-- Node1&#45;&gt;Node9 -->
<g id="edge9" class="edge">
<title>Node1&#45;&gt;Node9</title>
<path fill="none" stroke="midnightblue" d="M338.32,-168.44C381.06,-159.02 449.83,-143.87 496.07,-133.68"/>
<polygon fill="midnightblue" stroke="midnightblue" points="496.85,-137.09 505.86,-131.52 495.34,-130.25 496.85,-137.09"/>
</g>
<!-- Node3 -->
<g id="node3" class="node">
<title>Node3</title>
<g id="a_node3"><a xlink:title=" ">
<polygon fill="none" stroke="#bfbfbf" points="0,-56.5 0,-75.5 65,-75.5 65,-56.5 0,-56.5"/>
<text text-anchor="middle" x="32.5" y="-63.5" font-family="Helvetica,sans-Serif" font-size="10.00">exception</text>
</a>
</g>
</g>
<!-- Node2&#45;&gt;Node3 -->
<g id="edge2" class="edge">
<title>Node2&#45;&gt;Node3</title>
<path fill="none" stroke="midnightblue" d="M83.7,-112.32C74.68,-104.34 61.09,-92.31 50.18,-82.65"/>
<polygon fill="midnightblue" stroke="midnightblue" points="52.29,-79.84 42.48,-75.83 47.65,-85.08 52.29,-79.84"/>
</g>
<!-- Node4 -->
<g id="node4" class="node">
<title>Node4</title>
<g id="a_node4"><a xlink:title=" ">
<polygon fill="none" stroke="#bfbfbf" points="167.5,-0.5 167.5,-19.5 211.5,-19.5 211.5,-0.5 167.5,-0.5"/>
<text text-anchor="middle" x="189.5" y="-7.5" font-family="Helvetica,sans-Serif" font-size="10.00">string</text>
</a>
</g>
</g>
<!-- Node2&#45;&gt;Node4 -->
<g id="edge3" class="edge">
<title>Node2&#45;&gt;Node4</title>
<path fill="none" stroke="midnightblue" d="M94.04,-112.07C95.28,-98.6 99.33,-72.86 112.5,-56 124.18,-41.05 142.33,-30.1 158.07,-22.74"/>
<polygon fill="midnightblue" stroke="midnightblue" points="159.72,-25.84 167.48,-18.63 156.92,-19.43 159.72,-25.84"/>
</g>
<!-- Node6 -->
<g id="node6" class="node">
<title>Node6</title>
<g id="a_node6"><a xlink:title=" ">
<polygon fill="none" stroke="#bfbfbf" points="395.5,-0.5 395.5,-19.5 445.5,-19.5 445.5,-0.5 395.5,-0.5"/>
<text text-anchor="middle" x="420.5" y="-7.5" font-family="Helvetica,sans-Serif" font-size="10.00">cstdint</text>
</a>
</g>
</g>
<!-- Node5&#45;&gt;Node6 -->
<g id="edge5" class="edge">
<title>Node5&#45;&gt;Node6</title>
<path fill="none" stroke="midnightblue" d="M308.99,-112.37C329.4,-93.81 377.7,-49.91 403.52,-26.44"/>
<polygon fill="midnightblue" stroke="midnightblue" points="406,-28.91 411.05,-19.59 401.3,-23.73 406,-28.91"/>
</g>
<!-- Node7 -->
<g id="node7" class="node">
<title>Node7</title>
<g id="a_node7"><a xlink:title=" ">
<polygon fill="none" stroke="#bfbfbf" points="276,-56.5 276,-75.5 323,-75.5 323,-56.5 276,-56.5"/>
<text text-anchor="middle" x="299.5" y="-63.5" font-family="Helvetica,sans-Serif" font-size="10.00">vector</text>
</a>
</g>
</g>
<!-- Node5&#45;&gt;Node7 -->
<g id="edge6" class="edge">
<title>Node5&#45;&gt;Node7</title>
<path fill="none" stroke="midnightblue" d="M299.5,-112.08C299.5,-105.01 299.5,-94.86 299.5,-85.99"/>
<polygon fill="midnightblue" stroke="midnightblue" points="303,-85.75 299.5,-75.75 296,-85.75 303,-85.75"/>
</g>
<!-- Node8 -->
<g id="node8" class="node">
<title>Node8</title>
<g id="a_node8"><a xlink:href="settings_8hpp.html" target="_top" xlink:title="Settings structures for SignalEasel.">
<polygon fill="none" stroke="black" points="121.5,-56.5 121.5,-75.5 257.5,-75.5 257.5,-56.5 121.5,-56.5"/>
<text text-anchor="middle" x="189.5" y="-63.5" font-family="Helvetica,sans-Serif" font-size="10.00">SignalEasel/settings.hpp</text>
</a>
</g>
</g>
<!-- Node5&#45;&gt;Node8 -->
<g id="edge7" class="edge">
<title>Node5&#45;&gt;Node8</title>
<path fill="none" stroke="midnightblue" d="M281.83,-112.32C264.11,-103.62 236.6,-90.12 216.21,-80.11"/>
<polygon fill="midnightblue" stroke="midnightblue" points="217.65,-76.92 207.13,-75.65 214.56,-83.2 217.65,-76.92"/>
</g>
<!-- Node8&#45;&gt;Node4 -->
<g id="edge8" class="edge">
<title>Node8&#45;&gt;Node4</title>
<path fill="none" stroke="midnightblue" d="M189.5,-56.08C189.5,-49.01 189.5,-38.86 189.5,-29.99"/>
<polygon fill="midnightblue" stroke="midnightblue" points="193,-29.75 189.5,-19.75 186,-29.75 193,-29.75"/>
</g>
<!-- Node9&#45;&gt;Node4 -->
<g id="edge11" class="edge">
<title>Node9&#45;&gt;Node4</title>
<path fill="none" stroke="midnightblue" d="M516.94,-112.46C452.17,-92.39 290.54,-42.31 221.54,-20.93"/>
<polygon fill="midnightblue" stroke="midnightblue" points="222.26,-17.49 211.67,-17.87 220.19,-24.17 222.26,-17.49"/>
</g>
<!-- Node10 -->
<g id="node10" class="node">
<title>Node10</title>
<g id="a_node10"><a xlink:title=" ">
<polygon fill="none" stroke="#bfbfbf" points="579.5,-56.5 579.5,-75.5 621.5,-75.5 621.5,-56.5 579.5,-56.5"/>
<text text-anchor="middle" x="600.5" y="-63.5" font-family="Helvetica,sans-Serif" font-size="10.00">array</text>
</a>
</g>
</g>
<!-- Node9&#45;&gt;Node10 -->
<g id="edge10" class="edge">
<title>Node9&#45;&gt;Node10</title>
<path fill="none" stroke="midnightblue" d="M553.5,-112.32C561.69,-104.42 574.01,-92.55 583.97,-82.94"/>
<polygon fill="midnightblue" stroke="midnightblue" points="586.57,-85.29 591.34,-75.83 581.71,-80.26 586.57,-85.29"/>
</g>
<!-- Node11 -->
<g id="node11" class="node">
<title>Node11</title>
<g id="a_node11"><a xlink:href="constants_8hpp.html" target="_top" xlink:title="Common constants used throughout the library.">
<polygon fill="none" stroke="black" points="417.5,-56.5 417.5,-75.5 561.5,-75.5 561.5,-56.5 417.5,-56.5"/>
<text text-anchor="middle" x="489.5" y="-63.5" font-family="Helvetica,sans-Serif" font-size="10.00">SignalEasel/constants.hpp</text>
</a>
</g>
</g>
<!-- Node9&#45;&gt;Node11 -->
<g id="edge12" class="edge">
<title>Node9&#45;&gt;Node11</title>
<path fill="none" stroke="midnightblue" d="M535.42,-112.08C527.33,-104.14 515.3,-92.34 505.59,-82.8"/>
<polygon fill="midnightblue" stroke="midnightblue" points="508,-80.26 498.41,-75.75 503.1,-85.25 508,-80.26"/>
</g>
<!-- Node12 -->
<g id="node12" class="node">
<title>Node12</title>
<g id="a_node12"><a xlink:title=" ">
<polygon fill="none" stroke="#bfbfbf" points="640,-56.5 640,-75.5 717,-75.5 717,-56.5 640,-56.5"/>
<text text-anchor="middle" x="678.5" y="-63.5" font-family="Helvetica,sans-Serif" font-size="10.00">pulse/error.h</text>
</a>
</g>
</g>
<!-- Node9&#45;&gt;Node12 -->
<g id="edge14" class="edge">
<title>Node9&#45;&gt;Node12</title>
<path fill="none" stroke="midnightblue" d="M565.73,-112.44C587.88,-103.52 622.82,-89.44 647.94,-79.32"/>
<polygon fill="midnightblue" stroke="midnightblue" points="649.4,-82.5 657.37,-75.52 646.78,-76.01 649.4,-82.5"/>
</g>
<!-- Node13 -->
<g id="node13" class="node">
<title>Node13</title>
<g id="a_node13"><a xlink:title=" ">
<polygon fill="none" stroke="#bfbfbf" points="735.5,-56.5 735.5,-75.5 823.5,-75.5 823.5,-56.5 735.5,-56.5"/>
<text text-anchor="middle" x="779.5" y="-63.5" font-family="Helvetica,sans-Serif" font-size="10.00">pulse/simple.h</text>
</a>
</g>
</g>
<!-- Node9&#45;&gt;Node13 -->
<g id="edge15" class="edge">
<title>Node9&#45;&gt;Node13</title>
<path fill="none" stroke="midnightblue" d="M581.74,-112.44C622.56,-103.06 688.14,-87.99 732.48,-77.8"/>
<polygon fill="midnightblue" stroke="midnightblue" points="733.48,-81.17 742.44,-75.52 731.91,-74.34 733.48,-81.17"/>
</g>
<!-- Node11&#45;&gt;Node6 -->
<g id="edge13" class="edge">
<title>Node11&#45;&gt;Node6</title>
<path fill="none" stroke="midnightblue" d="M478.41,-56.32C468.01,-48.18 452.24,-35.84 439.78,-26.09"/>
<polygon fill="midnightblue" stroke="midnightblue" points="441.82,-23.24 431.79,-19.83 437.51,-28.75 441.82,-23.24"/>
</g>
</g>
</svg>
