<?xml version="1.0" encoding="UTF-8" standalone="no"?>
<!DOCTYPE svg PUBLIC "-//W3C//DTD SVG 1.1//EN"
 "http://www.w3.org/Graphics/SVG/1.1/DTD/svg11.dtd">
<!-- Generated by graphviz version 2.43.0 (0)
 -->
<!-- Title: pulse_audio.hpp Pages: 1 -->
<svg width="791pt" height="252pt"
 viewBox="0.00 0.00 791.00 252.00" xmlns="http://www.w3.org/2000/svg" xmlns:xlink="http://www.w3.org/1999/xlink">
<g id="graph0" class="graph" transform="scale(1 1) rotate(0) translate(4 248)">
<title>pulse_audio.hpp</title>
<!-- Node1 -->
<g id="node1" class="node">
<title>Node1</title>
<g id="a_node1"><a xlink:title="Simple pulse audio interface.">
<polygon fill="#bfbfbf" stroke="black" points="498.5,-224.5 498.5,-243.5 594.5,-243.5 594.5,-224.5 498.5,-224.5"/>
<text text-anchor="middle" x="546.5" y="-231.5" font-family="Helvetica,sans-Serif" font-size="10.00">pulse_audio.hpp</text>
</a>
</g>
</g>
<!-- Node2 -->
<g id="node2" class="node">
<title>Node2</title>
<g id="a_node2"><a xlink:href="pulse__audio__reader_8cpp.html" target="_top" xlink:title="PulseAudio reader implementation.">
<polygon fill="none" stroke="black" points="273,-168.5 273,-187.5 404,-187.5 404,-168.5 273,-168.5"/>
<text text-anchor="middle" x="338.5" y="-175.5" font-family="Helvetica,sans-Serif" font-size="10.00">pulse_audio_reader.cpp</text>
</a>
</g>
</g>
<!-- Node1&#45;&gt;Node2 -->
<g id="edge1" class="edge">
<title>Node1&#45;&gt;Node2</title>
<path fill="none" stroke="midnightblue" d="M503.72,-221.89C464.44,-211.7 407.07,-196.8 371.3,-187.52"/>
<polygon fill="midnightblue" stroke="midnightblue" points="502.98,-225.32 513.54,-224.44 504.74,-218.54 502.98,-225.32"/>
</g>
<!-- Node3 -->
<g id="node3" class="node">
<title>Node3</title>
<g id="a_node3"><a xlink:href="pulse__audio__writer_8cpp.html" target="_top" xlink:title=" ">
<polygon fill="none" stroke="black" points="422.5,-168.5 422.5,-187.5 550.5,-187.5 550.5,-168.5 422.5,-168.5"/>
<text text-anchor="middle" x="486.5" y="-175.5" font-family="Helvetica,sans-Serif" font-size="10.00">pulse_audio_writer.cpp</text>
</a>
</g>
</g>
<!-- Node1&#45;&gt;Node3 -->
<g id="edge2" class="edge">
<title>Node1&#45;&gt;Node3</title>
<path fill="none" stroke="midnightblue" d="M529.32,-217.54C518.62,-207.91 505.24,-195.87 496.32,-187.83"/>
<polygon fill="midnightblue" stroke="midnightblue" points="527.09,-220.24 536.86,-224.32 531.77,-215.03 527.09,-220.24"/>
</g>
<!-- Node4 -->
<g id="node4" class="node">
<title>Node4</title>
<g id="a_node4"><a xlink:href="receiver_8hpp.html" target="_top" xlink:title="Base class for receivers. Demodulators that use pulse audio.">
<polygon fill="none" stroke="black" points="569,-168.5 569,-187.5 646,-187.5 646,-168.5 569,-168.5"/>
<text text-anchor="middle" x="607.5" y="-175.5" font-family="Helvetica,sans-Serif" font-size="10.00">receiver.hpp</text>
</a>
</g>
</g>
<!-- Node1&#45;&gt;Node4 -->
<g id="edge3" class="edge">
<title>Node1&#45;&gt;Node4</title>
<path fill="none" stroke="midnightblue" d="M563.97,-217.54C574.84,-207.91 588.44,-195.87 597.52,-187.83"/>
<polygon fill="midnightblue" stroke="midnightblue" points="561.47,-215.07 556.3,-224.32 566.11,-220.32 561.47,-215.07"/>
</g>
<!-- Node16 -->
<g id="node16" class="node">
<title>Node16</title>
<g id="a_node16"><a xlink:href="pulse__test_8cpp.html" target="_top" xlink:title="PulseAudio output test. Does not use gtest.">
<polygon fill="none" stroke="black" points="696,-0.5 696,-19.5 783,-19.5 783,-0.5 696,-0.5"/>
<text text-anchor="middle" x="739.5" y="-7.5" font-family="Helvetica,sans-Serif" font-size="10.00">pulse_test.cpp</text>
</a>
</g>
</g>
<!-- Node1&#45;&gt;Node16 -->
<g id="edge18" class="edge">
<title>Node1&#45;&gt;Node16</title>
<path fill="none" stroke="midnightblue" d="M592.54,-221.39C613.52,-214.35 637.6,-203.64 655.5,-188 710.31,-140.1 732.18,-48.6 737.88,-19.86"/>
<polygon fill="midnightblue" stroke="midnightblue" points="591.32,-218.1 582.84,-224.46 593.43,-224.78 591.32,-218.1"/>
</g>
<!-- Node5 -->
<g id="node5" class="node">
<title>Node5</title>
<g id="a_node5"><a xlink:href="afsk_8hpp.html" target="_top" xlink:title="AFSK related modulation/demodulation.">
<polygon fill="none" stroke="black" points="514,-112.5 514,-131.5 573,-131.5 573,-112.5 514,-112.5"/>
<text text-anchor="middle" x="543.5" y="-119.5" font-family="Helvetica,sans-Serif" font-size="10.00">afsk.hpp</text>
</a>
</g>
</g>
<!-- Node4&#45;&gt;Node5 -->
<g id="edge4" class="edge">
<title>Node4&#45;&gt;Node5</title>
<path fill="none" stroke="midnightblue" d="M589.51,-161.82C578.04,-152.15 563.59,-139.95 553.97,-131.83"/>
<polygon fill="midnightblue" stroke="midnightblue" points="587.32,-164.55 597.22,-168.32 591.83,-159.2 587.32,-164.55"/>
</g>
<!-- Node6 -->
<g id="node6" class="node">
<title>Node6</title>
<g id="a_node6"><a xlink:href="afsk__demodulator_8cpp.html" target="_top" xlink:title="The AFSK demodulator class implementation.">
<polygon fill="none" stroke="black" points="119,-56.5 119,-75.5 244,-75.5 244,-56.5 119,-56.5"/>
<text text-anchor="middle" x="181.5" y="-63.5" font-family="Helvetica,sans-Serif" font-size="10.00">afsk_demodulator.cpp</text>
</a>
</g>
</g>
<!-- Node5&#45;&gt;Node6 -->
<g id="edge5" class="edge">
<title>Node5&#45;&gt;Node6</title>
<path fill="none" stroke="midnightblue" d="M503.74,-115.07C439.46,-105.48 312.44,-86.53 238.52,-75.51"/>
<polygon fill="midnightblue" stroke="midnightblue" points="503.47,-118.57 513.88,-116.58 504.5,-111.64 503.47,-118.57"/>
</g>
<!-- Node7 -->
<g id="node7" class="node">
<title>Node7</title>
<g id="a_node7"><a xlink:href="afsk__modulator_8cpp.html" target="_top" xlink:title="The AFSK modulator class implementation.">
<polygon fill="none" stroke="black" points="262,-56.5 262,-75.5 375,-75.5 375,-56.5 262,-56.5"/>
<text text-anchor="middle" x="318.5" y="-63.5" font-family="Helvetica,sans-Serif" font-size="10.00">afsk_modulator.cpp</text>
</a>
</g>
</g>
<!-- Node5&#45;&gt;Node7 -->
<g id="edge6" class="edge">
<title>Node5&#45;&gt;Node7</title>
<path fill="none" stroke="midnightblue" d="M503.65,-111.44C461.24,-101.26 394.77,-85.3 354.07,-75.54"/>
<polygon fill="midnightblue" stroke="midnightblue" points="503.08,-114.9 513.62,-113.83 504.71,-108.09 503.08,-114.9"/>
</g>
<!-- Node8 -->
<g id="node8" class="node">
<title>Node8</title>
<g id="a_node8"><a xlink:href="afsk__receiver_8cpp.html" target="_top" xlink:title="Implementation of the AFSK receiver class.">
<polygon fill="none" stroke="black" points="393.5,-56.5 393.5,-75.5 495.5,-75.5 495.5,-56.5 393.5,-56.5"/>
<text text-anchor="middle" x="444.5" y="-63.5" font-family="Helvetica,sans-Serif" font-size="10.00">afsk_receiver.cpp</text>
</a>
</g>
</g>
<!-- Node5&#45;&gt;Node8 -->
<g id="edge7" class="edge">
<title>Node5&#45;&gt;Node8</title>
<path fill="none" stroke="midnightblue" d="M518.66,-107.45C500.39,-97.48 476.08,-84.23 460.37,-75.65"/>
<polygon fill="midnightblue" stroke="midnightblue" points="517.14,-110.61 527.59,-112.32 520.49,-104.46 517.14,-110.61"/>
</g>
<!-- Node9 -->
<g id="node9" class="node">
<title>Node9</title>
<g id="a_node9"><a xlink:href="aprs_8hpp.html" target="_top" xlink:title="APRS implementation.">
<polygon fill="none" stroke="black" points="514,-56.5 514,-75.5 573,-75.5 573,-56.5 514,-56.5"/>
<text text-anchor="middle" x="543.5" y="-63.5" font-family="Helvetica,sans-Serif" font-size="10.00">aprs.hpp</text>
</a>
</g>
</g>
<!-- Node5&#45;&gt;Node9 -->
<g id="edge8" class="edge">
<title>Node5&#45;&gt;Node9</title>
<path fill="none" stroke="midnightblue" d="M543.5,-101.8C543.5,-92.91 543.5,-82.78 543.5,-75.75"/>
<polygon fill="midnightblue" stroke="midnightblue" points="540,-102.08 543.5,-112.08 547,-102.08 540,-102.08"/>
</g>
<!-- Node5&#45;&gt;Node16 -->
<g id="edge17" class="edge">
<title>Node5&#45;&gt;Node16</title>
<path fill="none" stroke="midnightblue" d="M559.01,-105.12C573.75,-90.74 597.08,-69.76 620.5,-56 648.59,-39.49 683.81,-27.07 708.63,-19.5"/>
<polygon fill="midnightblue" stroke="midnightblue" points="556.38,-102.8 551.76,-112.34 561.32,-107.76 556.38,-102.8"/>
</g>
<!-- Node17 -->
<g id="node17" class="node">
<title>Node17</title>
<g id="a_node17"><a xlink:href="afsk__test_8cpp.html" target="_top" xlink:title=" ">
<polygon fill="none" stroke="black" points="629.5,-56.5 629.5,-75.5 711.5,-75.5 711.5,-56.5 629.5,-56.5"/>
<text text-anchor="middle" x="670.5" y="-63.5" font-family="Helvetica,sans-Serif" font-size="10.00">afsk_test.cpp</text>
</a>
</g>
</g>
<!-- Node5&#45;&gt;Node17 -->
<g id="edge16" class="edge">
<title>Node5&#45;&gt;Node17</title>
<path fill="none" stroke="midnightblue" d="M572.89,-108.5C596.7,-98.38 629.61,-84.39 650.47,-75.52"/>
<polygon fill="midnightblue" stroke="midnightblue" points="571.46,-105.31 563.62,-112.44 574.2,-111.75 571.46,-105.31"/>
</g>
<!-- Node10 -->
<g id="node10" class="node">
<title>Node10</title>
<g id="a_node10"><a xlink:href="aprs__demodulator_8cpp.html" target="_top" xlink:title="Implementation of the APRS demodulator class.">
<polygon fill="none" stroke="black" points="0,-0.5 0,-19.5 125,-19.5 125,-0.5 0,-0.5"/>
<text text-anchor="middle" x="62.5" y="-7.5" font-family="Helvetica,sans-Serif" font-size="10.00">aprs_demodulator.cpp</text>
</a>
</g>
</g>
<!-- Node9&#45;&gt;Node10 -->
<g id="edge9" class="edge">
<title>Node9&#45;&gt;Node10</title>
<path fill="none" stroke="midnightblue" d="M503.79,-56.1C339.28,-29.66 294.92,-38.06 133.5,-20 130.78,-19.7 128.01,-19.38 125.21,-19.05"/>
<polygon fill="midnightblue" stroke="midnightblue" points="503.34,-59.57 513.77,-57.72 504.46,-52.66 503.34,-59.57"/>
</g>
<!-- Node11 -->
<g id="node11" class="node">
<title>Node11</title>
<g id="a_node11"><a xlink:href="aprs__encoders_8cpp.html" target="_top" xlink:title="Encoding functions for APRS packets.">
<polygon fill="none" stroke="black" points="143,-0.5 143,-19.5 250,-19.5 250,-0.5 143,-0.5"/>
<text text-anchor="middle" x="196.5" y="-7.5" font-family="Helvetica,sans-Serif" font-size="10.00">aprs_encoders.cpp</text>
</a>
</g>
</g>
<!-- Node9&#45;&gt;Node11 -->
<g id="edge10" class="edge">
<title>Node9&#45;&gt;Node11</title>
<path fill="none" stroke="midnightblue" d="M503.74,-56.14C462.18,-49.34 326.86,-29.78 250.22,-18.73"/>
<polygon fill="midnightblue" stroke="midnightblue" points="503.29,-59.61 513.74,-57.87 504.49,-52.72 503.29,-59.61"/>
</g>
<!-- Node12 -->
<g id="node12" class="node">
<title>Node12</title>
<g id="a_node12"><a xlink:href="aprs__modulator_8cpp.html" target="_top" xlink:title="Implementation of the APRS modulator class.">
<polygon fill="none" stroke="black" points="268,-0.5 268,-19.5 381,-19.5 381,-0.5 268,-0.5"/>
<text text-anchor="middle" x="324.5" y="-7.5" font-family="Helvetica,sans-Serif" font-size="10.00">aprs_modulator.cpp</text>
</a>
</g>
</g>
<!-- Node9&#45;&gt;Node12 -->
<g id="edge11" class="edge">
<title>Node9&#45;&gt;Node12</title>
<path fill="none" stroke="midnightblue" d="M504,-55.26C462.77,-45.09 398.74,-29.31 359.34,-19.59"/>
<polygon fill="midnightblue" stroke="midnightblue" points="503.42,-58.72 513.96,-57.72 505.09,-51.92 503.42,-58.72"/>
</g>
<!-- Node13 -->
<g id="node13" class="node">
<title>Node13</title>
<g id="a_node13"><a xlink:href="aprs__receiver_8cpp.html" target="_top" xlink:title="Implementation of the APRS receiver class.">
<polygon fill="none" stroke="black" points="399.5,-0.5 399.5,-19.5 501.5,-19.5 501.5,-0.5 399.5,-0.5"/>
<text text-anchor="middle" x="450.5" y="-7.5" font-family="Helvetica,sans-Serif" font-size="10.00">aprs_receiver.cpp</text>
</a>
</g>
</g>
<!-- Node9&#45;&gt;Node13 -->
<g id="edge12" class="edge">
<title>Node9&#45;&gt;Node13</title>
<path fill="none" stroke="midnightblue" d="M519.69,-51.18C502.58,-41.24 480.03,-28.15 465.4,-19.65"/>
<polygon fill="midnightblue" stroke="midnightblue" points="518.15,-54.33 528.56,-56.32 521.67,-48.28 518.15,-54.33"/>
</g>
<!-- Node14 -->
<g id="node14" class="node">
<title>Node14</title>
<g id="a_node14"><a xlink:href="aprs_8cpp.html" target="_top" xlink:title="APRS implementation.">
<polygon fill="none" stroke="black" points="519.5,-0.5 519.5,-19.5 577.5,-19.5 577.5,-0.5 519.5,-0.5"/>
<text text-anchor="middle" x="548.5" y="-7.5" font-family="Helvetica,sans-Serif" font-size="10.00">aprs.cpp</text>
</a>
</g>
</g>
<!-- Node9&#45;&gt;Node14 -->
<g id="edge13" class="edge">
<title>Node9&#45;&gt;Node14</title>
<path fill="none" stroke="midnightblue" d="M545.25,-46.1C546.08,-37.14 547.03,-26.86 547.69,-19.75"/>
<polygon fill="midnightblue" stroke="midnightblue" points="541.76,-45.8 544.33,-56.08 548.73,-46.45 541.76,-45.8"/>
</g>
<!-- Node15 -->
<g id="node15" class="node">
<title>Node15</title>
<g id="a_node15"><a xlink:href="aprs__test_8cpp.html" target="_top" xlink:title=" ">
<polygon fill="none" stroke="black" points="595.5,-0.5 595.5,-19.5 677.5,-19.5 677.5,-0.5 595.5,-0.5"/>
<text text-anchor="middle" x="636.5" y="-7.5" font-family="Helvetica,sans-Serif" font-size="10.00">aprs_test.cpp</text>
</a>
</g>
</g>
<!-- Node9&#45;&gt;Node15 -->
<g id="edge14" class="edge">
<title>Node9&#45;&gt;Node15</title>
<path fill="none" stroke="midnightblue" d="M567.31,-51.18C584.42,-41.24 606.97,-28.15 621.6,-19.65"/>
<polygon fill="midnightblue" stroke="midnightblue" points="565.33,-48.28 558.44,-56.32 568.85,-54.33 565.33,-48.28"/>
</g>
<!-- Node9&#45;&gt;Node16 -->
<g id="edge15" class="edge">
<title>Node9&#45;&gt;Node16</title>
<path fill="none" stroke="midnightblue" d="M583.21,-54.06C620.19,-43.87 674.58,-28.88 708.48,-19.55"/>
<polygon fill="midnightblue" stroke="midnightblue" points="581.98,-50.77 573.27,-56.8 583.84,-57.52 581.98,-50.77"/>
</g>
</g>
</svg>
