<?xml version="1.0" encoding="UTF-8" standalone="no"?>
<!DOCTYPE svg PUBLIC "-//W3C//DTD SVG 1.1//EN"
 "http://www.w3.org/Graphics/SVG/1.1/DTD/svg11.dtd">
<!-- Generated by graphviz version 2.43.0 (0)
 -->
<!-- Title: pulse_audio_reader.cpp Pages: 1 -->
<svg width="636pt" height="196pt"
 viewBox="0.00 0.00 635.50 196.00" xmlns="http://www.w3.org/2000/svg" xmlns:xlink="http://www.w3.org/1999/xlink">
<g id="graph0" class="graph" transform="scale(1 1) rotate(0) translate(4 192)">
<title>pulse_audio_reader.cpp</title>
<!-- Node1 -->
<g id="node1" class="node">
<title>Node1</title>
<g id="a_node1"><a xlink:title="PulseAudio reader implementation.">
<polygon fill="#bfbfbf" stroke="black" points="322,-168.5 322,-187.5 453,-187.5 453,-168.5 322,-168.5"/>
<text text-anchor="middle" x="387.5" y="-175.5" font-family="Helvetica,sans-Serif" font-size="10.00">pulse_audio_reader.cpp</text>
</a>
</g>
</g>
<!-- Node2 -->
<g id="node2" class="node">
<title>Node2</title>
<g id="a_node2"><a xlink:href="constants_8hpp.html" target="_top" xlink:title="Common constants used throughout the library.">
<polygon fill="none" stroke="black" points="145.5,-56.5 145.5,-75.5 289.5,-75.5 289.5,-56.5 145.5,-56.5"/>
<text text-anchor="middle" x="217.5" y="-63.5" font-family="Helvetica,sans-Serif" font-size="10.00">SignalEasel/constants.hpp</text>
</a>
</g>
</g>
<!-- Node1&#45;&gt;Node2 -->
<g id="edge1" class="edge">
<title>Node1&#45;&gt;Node2</title>
<path fill="none" stroke="midnightblue" d="M321.87,-171.6C292.27,-165.94 258.97,-154.59 236.5,-132 224.46,-119.9 219.97,-100.62 218.33,-86.19"/>
<polygon fill="midnightblue" stroke="midnightblue" points="221.8,-85.6 217.54,-75.89 214.82,-86.13 221.8,-85.6"/>
</g>
<!-- Node4 -->
<g id="node4" class="node">
<title>Node4</title>
<g id="a_node4"><a xlink:href="exception_8hpp.html" target="_top" xlink:title="SignalEasel exceptions.">
<polygon fill="none" stroke="black" points="33,-112.5 33,-131.5 178,-131.5 178,-112.5 33,-112.5"/>
<text text-anchor="middle" x="105.5" y="-119.5" font-family="Helvetica,sans-Serif" font-size="10.00">SignalEasel/exception.hpp</text>
</a>
</g>
</g>
<!-- Node1&#45;&gt;Node4 -->
<g id="edge3" class="edge">
<title>Node1&#45;&gt;Node4</title>
<path fill="none" stroke="midnightblue" d="M342.82,-168.44C293.21,-158.94 213.14,-143.61 159.91,-133.42"/>
<polygon fill="midnightblue" stroke="midnightblue" points="160.45,-129.96 149.97,-131.52 159.14,-136.83 160.45,-129.96"/>
</g>
<!-- Node7 -->
<g id="node7" class="node">
<title>Node7</title>
<g id="a_node7"><a xlink:href="pulse__audio_8hpp.html" target="_top" xlink:title="Reads audio from pulse audio.">
<polygon fill="none" stroke="black" points="246,-112.5 246,-131.5 401,-131.5 401,-112.5 246,-112.5"/>
<text text-anchor="middle" x="323.5" y="-119.5" font-family="Helvetica,sans-Serif" font-size="10.00">SignalEasel/pulse_audio.hpp</text>
</a>
</g>
</g>
<!-- Node1&#45;&gt;Node7 -->
<g id="edge6" class="edge">
<title>Node1&#45;&gt;Node7</title>
<path fill="none" stroke="midnightblue" d="M377.22,-168.32C367.66,-160.26 353.22,-148.08 341.72,-138.37"/>
<polygon fill="midnightblue" stroke="midnightblue" points="343.87,-135.61 333.97,-131.83 339.36,-140.96 343.87,-135.61"/>
</g>
<!-- Node11 -->
<g id="node11" class="node">
<title>Node11</title>
<g id="a_node11"><a xlink:title=" ">
<polygon fill="none" stroke="#bfbfbf" points="419.5,-112.5 419.5,-131.5 483.5,-131.5 483.5,-112.5 419.5,-112.5"/>
<text text-anchor="middle" x="451.5" y="-119.5" font-family="Helvetica,sans-Serif" font-size="10.00">algorithm</text>
</a>
</g>
</g>
<!-- Node1&#45;&gt;Node11 -->
<g id="edge12" class="edge">
<title>Node1&#45;&gt;Node11</title>
<path fill="none" stroke="midnightblue" d="M397.78,-168.32C407.34,-160.26 421.78,-148.08 433.28,-138.37"/>
<polygon fill="midnightblue" stroke="midnightblue" points="435.64,-140.96 441.03,-131.83 431.13,-135.61 435.64,-140.96"/>
</g>
<!-- Node12 -->
<g id="node12" class="node">
<title>Node12</title>
<g id="a_node12"><a xlink:title=" ">
<polygon fill="none" stroke="#bfbfbf" points="502,-112.5 502,-131.5 549,-131.5 549,-112.5 502,-112.5"/>
<text text-anchor="middle" x="525.5" y="-119.5" font-family="Helvetica,sans-Serif" font-size="10.00">cmath</text>
</a>
</g>
</g>
<!-- Node1&#45;&gt;Node12 -->
<g id="edge13" class="edge">
<title>Node1&#45;&gt;Node12</title>
<path fill="none" stroke="midnightblue" d="M409.37,-168.44C432.28,-159.48 468.48,-145.31 494.37,-135.18"/>
<polygon fill="midnightblue" stroke="midnightblue" points="495.7,-138.42 503.74,-131.52 493.15,-131.9 495.7,-138.42"/>
</g>
<!-- Node13 -->
<g id="node13" class="node">
<title>Node13</title>
<g id="a_node13"><a xlink:title=" ">
<polygon fill="none" stroke="#bfbfbf" points="567.5,-112.5 567.5,-131.5 627.5,-131.5 627.5,-112.5 567.5,-112.5"/>
<text text-anchor="middle" x="597.5" y="-119.5" font-family="Helvetica,sans-Serif" font-size="10.00">iostream</text>
</a>
</g>
</g>
<!-- Node1&#45;&gt;Node13 -->
<g id="edge14" class="edge">
<title>Node1&#45;&gt;Node13</title>
<path fill="none" stroke="midnightblue" d="M420.78,-168.44C457.91,-158.9 517.96,-143.45 557.59,-133.26"/>
<polygon fill="midnightblue" stroke="midnightblue" points="558.63,-136.61 567.44,-130.73 556.89,-129.83 558.63,-136.61"/>
</g>
<!-- Node3 -->
<g id="node3" class="node">
<title>Node3</title>
<g id="a_node3"><a xlink:title=" ">
<polygon fill="none" stroke="#bfbfbf" points="192.5,-0.5 192.5,-19.5 242.5,-19.5 242.5,-0.5 192.5,-0.5"/>
<text text-anchor="middle" x="217.5" y="-7.5" font-family="Helvetica,sans-Serif" font-size="10.00">cstdint</text>
</a>
</g>
</g>
<!-- Node2&#45;&gt;Node3 -->
<g id="edge2" class="edge">
<title>Node2&#45;&gt;Node3</title>
<path fill="none" stroke="midnightblue" d="M217.5,-56.08C217.5,-49.01 217.5,-38.86 217.5,-29.99"/>
<polygon fill="midnightblue" stroke="midnightblue" points="221,-29.75 217.5,-19.75 214,-29.75 221,-29.75"/>
</g>
<!-- Node5 -->
<g id="node5" class="node">
<title>Node5</title>
<g id="a_node5"><a xlink:title=" ">
<polygon fill="none" stroke="#bfbfbf" points="0,-56.5 0,-75.5 65,-75.5 65,-56.5 0,-56.5"/>
<text text-anchor="middle" x="32.5" y="-63.5" font-family="Helvetica,sans-Serif" font-size="10.00">exception</text>
</a>
</g>
</g>
<!-- Node4&#45;&gt;Node5 -->
<g id="edge4" class="edge">
<title>Node4&#45;&gt;Node5</title>
<path fill="none" stroke="midnightblue" d="M93.77,-112.32C82.66,-104.11 65.76,-91.6 52.52,-81.81"/>
<polygon fill="midnightblue" stroke="midnightblue" points="54.56,-78.97 44.44,-75.83 50.4,-84.59 54.56,-78.97"/>
</g>
<!-- Node6 -->
<g id="node6" class="node">
<title>Node6</title>
<g id="a_node6"><a xlink:title=" ">
<polygon fill="none" stroke="#bfbfbf" points="83.5,-56.5 83.5,-75.5 127.5,-75.5 127.5,-56.5 83.5,-56.5"/>
<text text-anchor="middle" x="105.5" y="-63.5" font-family="Helvetica,sans-Serif" font-size="10.00">string</text>
</a>
</g>
</g>
<!-- Node4&#45;&gt;Node6 -->
<g id="edge5" class="edge">
<title>Node4&#45;&gt;Node6</title>
<path fill="none" stroke="midnightblue" d="M105.5,-112.08C105.5,-105.01 105.5,-94.86 105.5,-85.99"/>
<polygon fill="midnightblue" stroke="midnightblue" points="109,-85.75 105.5,-75.75 102,-85.75 109,-85.75"/>
</g>
<!-- Node7&#45;&gt;Node2 -->
<g id="edge9" class="edge">
<title>Node7&#45;&gt;Node2</title>
<path fill="none" stroke="midnightblue" d="M306.47,-112.32C289.47,-103.66 263.12,-90.24 243.51,-80.25"/>
<polygon fill="midnightblue" stroke="midnightblue" points="244.99,-77.08 234.49,-75.65 241.81,-83.31 244.99,-77.08"/>
</g>
<!-- Node7&#45;&gt;Node6 -->
<g id="edge8" class="edge">
<title>Node7&#45;&gt;Node6</title>
<path fill="none" stroke="midnightblue" d="M285.76,-112.46C249.97,-104.24 194.47,-91.19 137.68,-76.23"/>
<polygon fill="midnightblue" stroke="midnightblue" points="138.38,-72.79 127.82,-73.61 136.59,-79.56 138.38,-72.79"/>
</g>
<!-- Node8 -->
<g id="node8" class="node">
<title>Node8</title>
<g id="a_node8"><a xlink:title=" ">
<polygon fill="none" stroke="#bfbfbf" points="307.5,-56.5 307.5,-75.5 349.5,-75.5 349.5,-56.5 307.5,-56.5"/>
<text text-anchor="middle" x="328.5" y="-63.5" font-family="Helvetica,sans-Serif" font-size="10.00">array</text>
</a>
</g>
</g>
<!-- Node7&#45;&gt;Node8 -->
<g id="edge7" class="edge">
<title>Node7&#45;&gt;Node8</title>
<path fill="none" stroke="midnightblue" d="M324.33,-112.08C324.98,-105.01 325.92,-94.86 326.74,-85.99"/>
<polygon fill="midnightblue" stroke="midnightblue" points="330.25,-86.03 327.69,-75.75 323.28,-85.39 330.25,-86.03"/>
</g>
<!-- Node9 -->
<g id="node9" class="node">
<title>Node9</title>
<g id="a_node9"><a xlink:title=" ">
<polygon fill="none" stroke="#bfbfbf" points="368,-56.5 368,-75.5 445,-75.5 445,-56.5 368,-56.5"/>
<text text-anchor="middle" x="406.5" y="-63.5" font-family="Helvetica,sans-Serif" font-size="10.00">pulse/error.h</text>
</a>
</g>
</g>
<!-- Node7&#45;&gt;Node9 -->
<g id="edge10" class="edge">
<title>Node7&#45;&gt;Node9</title>
<path fill="none" stroke="midnightblue" d="M336.84,-112.32C349.66,-103.98 369.28,-91.21 384.44,-81.35"/>
<polygon fill="midnightblue" stroke="midnightblue" points="386.72,-84.04 393.2,-75.65 382.91,-78.17 386.72,-84.04"/>
</g>
<!-- Node10 -->
<g id="node10" class="node">
<title>Node10</title>
<g id="a_node10"><a xlink:title=" ">
<polygon fill="none" stroke="#bfbfbf" points="463.5,-56.5 463.5,-75.5 551.5,-75.5 551.5,-56.5 463.5,-56.5"/>
<text text-anchor="middle" x="507.5" y="-63.5" font-family="Helvetica,sans-Serif" font-size="10.00">pulse/simple.h</text>
</a>
</g>
</g>
<!-- Node7&#45;&gt;Node10 -->
<g id="edge11" class="edge">
<title>Node7&#45;&gt;Node10</title>
<path fill="none" stroke="midnightblue" d="M352.66,-112.44C384.01,-103.24 434.03,-88.56 468.7,-78.39"/>
<polygon fill="midnightblue" stroke="midnightblue" points="469.87,-81.69 478.48,-75.52 467.9,-74.97 469.87,-81.69"/>
</g>
</g>
</svg>
