<?xml version="1.0" encoding="UTF-8" standalone="no"?>
<!DOCTYPE svg PUBLIC "-//W3C//DTD SVG 1.1//EN"
 "http://www.w3.org/Graphics/SVG/1.1/DTD/svg11.dtd">
<!-- Generated by graphviz version 2.43.0 (0)
 -->
<!-- Title: pulse_audio_writer.cpp Pages: 1 -->
<svg width="794pt" height="196pt"
 viewBox="0.00 0.00 793.50 196.00" xmlns="http://www.w3.org/2000/svg" xmlns:xlink="http://www.w3.org/1999/xlink">
<g id="graph0" class="graph" transform="scale(1 1) rotate(0) translate(4 192)">
<title>pulse_audio_writer.cpp</title>
<!-- Node1 -->
<g id="node1" class="node">
<title>Node1</title>
<g id="a_node1"><a xlink:title="Simple pulse audio interface.">
<polygon fill="#bfbfbf" stroke="black" points="191.5,-168.5 191.5,-187.5 319.5,-187.5 319.5,-168.5 191.5,-168.5"/>
<text text-anchor="middle" x="255.5" y="-175.5" font-family="Helvetica,sans-Serif" font-size="10.00">pulse_audio_writer.cpp</text>
</a>
</g>
</g>
<!-- Node2 -->
<g id="node2" class="node">
<title>Node2</title>
<g id="a_node2"><a xlink:href="exception_8hpp.html" target="_top" xlink:title="SignalEasel exceptions.">
<polygon fill="none" stroke="black" points="19,-112.5 19,-131.5 164,-131.5 164,-112.5 19,-112.5"/>
<text text-anchor="middle" x="91.5" y="-119.5" font-family="Helvetica,sans-Serif" font-size="10.00">SignalEasel/exception.hpp</text>
</a>
</g>
</g>
<!-- Node1&#45;&gt;Node2 -->
<g id="edge1" class="edge">
<title>Node1&#45;&gt;Node2</title>
<path fill="none" stroke="midnightblue" d="M229.51,-168.44C201.8,-159.32 157.75,-144.81 126.88,-134.65"/>
<polygon fill="midnightblue" stroke="midnightblue" points="127.96,-131.32 117.36,-131.52 125.77,-137.97 127.96,-131.32"/>
</g>
<!-- Node5 -->
<g id="node5" class="node">
<title>Node5</title>
<g id="a_node5"><a xlink:href="modulator_8hpp.html" target="_top" xlink:title="Modulator base class.">
<polygon fill="none" stroke="black" points="182.5,-112.5 182.5,-131.5 328.5,-131.5 328.5,-112.5 182.5,-112.5"/>
<text text-anchor="middle" x="255.5" y="-119.5" font-family="Helvetica,sans-Serif" font-size="10.00">SignalEasel/modulator.hpp</text>
</a>
</g>
</g>
<!-- Node1&#45;&gt;Node5 -->
<g id="edge4" class="edge">
<title>Node1&#45;&gt;Node5</title>
<path fill="none" stroke="midnightblue" d="M255.5,-168.08C255.5,-161.01 255.5,-150.86 255.5,-141.99"/>
<polygon fill="midnightblue" stroke="midnightblue" points="259,-141.75 255.5,-131.75 252,-141.75 259,-141.75"/>
</g>
<!-- Node8 -->
<g id="node8" class="node">
<title>Node8</title>
<g id="a_node8"><a xlink:href="pulse__audio_8hpp.html" target="_top" xlink:title="Reads audio from pulse audio.">
<polygon fill="none" stroke="black" points="390,-112.5 390,-131.5 545,-131.5 545,-112.5 390,-112.5"/>
<text text-anchor="middle" x="467.5" y="-119.5" font-family="Helvetica,sans-Serif" font-size="10.00">SignalEasel/pulse_audio.hpp</text>
</a>
</g>
</g>
<!-- Node1&#45;&gt;Node8 -->
<g id="edge8" class="edge">
<title>Node1&#45;&gt;Node8</title>
<path fill="none" stroke="midnightblue" d="M289.09,-168.44C325.69,-159.12 384.34,-144.18 424.33,-134"/>
<polygon fill="midnightblue" stroke="midnightblue" points="425.24,-137.38 434.07,-131.52 423.51,-130.59 425.24,-137.38"/>
</g>
<!-- Node3 -->
<g id="node3" class="node">
<title>Node3</title>
<g id="a_node3"><a xlink:title=" ">
<polygon fill="none" stroke="#bfbfbf" points="0,-56.5 0,-75.5 65,-75.5 65,-56.5 0,-56.5"/>
<text text-anchor="middle" x="32.5" y="-63.5" font-family="Helvetica,sans-Serif" font-size="10.00">exception</text>
</a>
</g>
</g>
<!-- Node2&#45;&gt;Node3 -->
<g id="edge2" class="edge">
<title>Node2&#45;&gt;Node3</title>
<path fill="none" stroke="midnightblue" d="M82.02,-112.32C73.3,-104.34 60.16,-92.31 49.6,-82.65"/>
<polygon fill="midnightblue" stroke="midnightblue" points="51.89,-80 42.15,-75.83 47.17,-85.17 51.89,-80"/>
</g>
<!-- Node4 -->
<g id="node4" class="node">
<title>Node4</title>
<g id="a_node4"><a xlink:title=" ">
<polygon fill="none" stroke="#bfbfbf" points="233.5,-0.5 233.5,-19.5 277.5,-19.5 277.5,-0.5 233.5,-0.5"/>
<text text-anchor="middle" x="255.5" y="-7.5" font-family="Helvetica,sans-Serif" font-size="10.00">string</text>
</a>
</g>
</g>
<!-- Node2&#45;&gt;Node4 -->
<g id="edge3" class="edge">
<title>Node2&#45;&gt;Node4</title>
<path fill="none" stroke="midnightblue" d="M91.87,-112.11C92.94,-98.23 97.01,-71.37 112.5,-56 142.21,-26.52 191.03,-16.32 223.22,-12.81"/>
<polygon fill="midnightblue" stroke="midnightblue" points="223.81,-16.27 233.45,-11.86 223.16,-9.3 223.81,-16.27"/>
</g>
<!-- Node6 -->
<g id="node6" class="node">
<title>Node6</title>
<g id="a_node6"><a xlink:title=" ">
<polygon fill="none" stroke="#bfbfbf" points="122,-56.5 122,-75.5 169,-75.5 169,-56.5 122,-56.5"/>
<text text-anchor="middle" x="145.5" y="-63.5" font-family="Helvetica,sans-Serif" font-size="10.00">vector</text>
</a>
</g>
</g>
<!-- Node5&#45;&gt;Node6 -->
<g id="edge5" class="edge">
<title>Node5&#45;&gt;Node6</title>
<path fill="none" stroke="midnightblue" d="M237.83,-112.32C220.11,-103.62 192.6,-90.12 172.21,-80.11"/>
<polygon fill="midnightblue" stroke="midnightblue" points="173.65,-76.92 163.13,-75.65 170.56,-83.2 173.65,-76.92"/>
</g>
<!-- Node7 -->
<g id="node7" class="node">
<title>Node7</title>
<g id="a_node7"><a xlink:href="settings_8hpp.html" target="_top" xlink:title="Settings structures for SignalEasel.">
<polygon fill="none" stroke="black" points="187.5,-56.5 187.5,-75.5 323.5,-75.5 323.5,-56.5 187.5,-56.5"/>
<text text-anchor="middle" x="255.5" y="-63.5" font-family="Helvetica,sans-Serif" font-size="10.00">SignalEasel/settings.hpp</text>
</a>
</g>
</g>
<!-- Node5&#45;&gt;Node7 -->
<g id="edge6" class="edge">
<title>Node5&#45;&gt;Node7</title>
<path fill="none" stroke="midnightblue" d="M255.5,-112.08C255.5,-105.01 255.5,-94.86 255.5,-85.99"/>
<polygon fill="midnightblue" stroke="midnightblue" points="259,-85.75 255.5,-75.75 252,-85.75 259,-85.75"/>
</g>
<!-- Node7&#45;&gt;Node4 -->
<g id="edge7" class="edge">
<title>Node7&#45;&gt;Node4</title>
<path fill="none" stroke="midnightblue" d="M255.5,-56.08C255.5,-49.01 255.5,-38.86 255.5,-29.99"/>
<polygon fill="midnightblue" stroke="midnightblue" points="259,-29.75 255.5,-19.75 252,-29.75 259,-29.75"/>
</g>
<!-- Node8&#45;&gt;Node4 -->
<g id="edge10" class="edge">
<title>Node8&#45;&gt;Node4</title>
<path fill="none" stroke="midnightblue" d="M447.96,-112.49C428.21,-103.75 396.92,-89.57 370.5,-76 338.05,-59.33 301.52,-38.28 278.51,-24.73"/>
<polygon fill="midnightblue" stroke="midnightblue" points="280.21,-21.67 269.82,-19.59 276.64,-27.69 280.21,-21.67"/>
</g>
<!-- Node9 -->
<g id="node9" class="node">
<title>Node9</title>
<g id="a_node9"><a xlink:title=" ">
<polygon fill="none" stroke="#bfbfbf" points="379.5,-56.5 379.5,-75.5 421.5,-75.5 421.5,-56.5 379.5,-56.5"/>
<text text-anchor="middle" x="400.5" y="-63.5" font-family="Helvetica,sans-Serif" font-size="10.00">array</text>
</a>
</g>
</g>
<!-- Node8&#45;&gt;Node9 -->
<g id="edge9" class="edge">
<title>Node8&#45;&gt;Node9</title>
<path fill="none" stroke="midnightblue" d="M456.74,-112.32C446.73,-104.26 431.61,-92.08 419.57,-82.37"/>
<polygon fill="midnightblue" stroke="midnightblue" points="421.44,-79.38 411.46,-75.83 417.05,-84.83 421.44,-79.38"/>
</g>
<!-- Node10 -->
<g id="node10" class="node">
<title>Node10</title>
<g id="a_node10"><a xlink:href="constants_8hpp.html" target="_top" xlink:title="Common constants used throughout the library.">
<polygon fill="none" stroke="black" points="439.5,-56.5 439.5,-75.5 583.5,-75.5 583.5,-56.5 439.5,-56.5"/>
<text text-anchor="middle" x="511.5" y="-63.5" font-family="Helvetica,sans-Serif" font-size="10.00">SignalEasel/constants.hpp</text>
</a>
</g>
</g>
<!-- Node8&#45;&gt;Node10 -->
<g id="edge11" class="edge">
<title>Node8&#45;&gt;Node10</title>
<path fill="none" stroke="midnightblue" d="M474.77,-112.08C481.04,-104.38 490.29,-93.03 497.93,-83.65"/>
<polygon fill="midnightblue" stroke="midnightblue" points="500.77,-85.71 504.37,-75.75 495.34,-81.29 500.77,-85.71"/>
</g>
<!-- Node12 -->
<g id="node12" class="node">
<title>Node12</title>
<g id="a_node12"><a xlink:title=" ">
<polygon fill="none" stroke="#bfbfbf" points="602,-56.5 602,-75.5 679,-75.5 679,-56.5 602,-56.5"/>
<text text-anchor="middle" x="640.5" y="-63.5" font-family="Helvetica,sans-Serif" font-size="10.00">pulse/error.h</text>
</a>
</g>
</g>
<!-- Node8&#45;&gt;Node12 -->
<g id="edge13" class="edge">
<title>Node8&#45;&gt;Node12</title>
<path fill="none" stroke="midnightblue" d="M494.91,-112.44C524.27,-103.28 571.02,-88.69 603.6,-78.52"/>
<polygon fill="midnightblue" stroke="midnightblue" points="604.71,-81.84 613.22,-75.52 602.63,-75.16 604.71,-81.84"/>
</g>
<!-- Node13 -->
<g id="node13" class="node">
<title>Node13</title>
<g id="a_node13"><a xlink:title=" ">
<polygon fill="none" stroke="#bfbfbf" points="697.5,-56.5 697.5,-75.5 785.5,-75.5 785.5,-56.5 697.5,-56.5"/>
<text text-anchor="middle" x="741.5" y="-63.5" font-family="Helvetica,sans-Serif" font-size="10.00">pulse/simple.h</text>
</a>
</g>
</g>
<!-- Node8&#45;&gt;Node13 -->
<g id="edge14" class="edge">
<title>Node8&#45;&gt;Node13</title>
<path fill="none" stroke="midnightblue" d="M510.92,-112.44C559.02,-102.96 636.59,-87.67 688.31,-77.48"/>
<polygon fill="midnightblue" stroke="midnightblue" points="689.15,-80.88 698.29,-75.52 687.8,-74.02 689.15,-80.88"/>
</g>
<!-- Node11 -->
<g id="node11" class="node">
<title>Node11</title>
<g id="a_node11"><a xlink:title=" ">
<polygon fill="none" stroke="#bfbfbf" points="486.5,-0.5 486.5,-19.5 536.5,-19.5 536.5,-0.5 486.5,-0.5"/>
<text text-anchor="middle" x="511.5" y="-7.5" font-family="Helvetica,sans-Serif" font-size="10.00">cstdint</text>
</a>
</g>
</g>
<!-- Node10&#45;&gt;Node11 -->
<g id="edge12" class="edge">
<title>Node10&#45;&gt;Node11</title>
<path fill="none" stroke="midnightblue" d="M511.5,-56.08C511.5,-49.01 511.5,-38.86 511.5,-29.99"/>
<polygon fill="midnightblue" stroke="midnightblue" points="515,-29.75 511.5,-19.75 508,-29.75 515,-29.75"/>
</g>
</g>
</svg>
