<?xml version="1.0" encoding="UTF-8" standalone="no"?>
<!DOCTYPE svg PUBLIC "-//W3C//DTD SVG 1.1//EN"
 "http://www.w3.org/Graphics/SVG/1.1/DTD/svg11.dtd">
<!-- Generated by graphviz version 2.43.0 (0)
 -->
<!-- Title: pulse_audio.hpp Pages: 1 -->
<svg width="623pt" height="252pt"
 viewBox="0.00 0.00 623.00 252.00" xmlns="http://www.w3.org/2000/svg" xmlns:xlink="http://www.w3.org/1999/xlink">
<g id="graph0" class="graph" transform="scale(1 1) rotate(0) translate(4 248)">
<title>pulse_audio.hpp</title>
<!-- Node1 -->
<g id="node1" class="node">
<title>Node1</title>
<g id="a_node1"><a xlink:title="Simple pulse audio interface.">
<polygon fill="#bfbfbf" stroke="black" points="379.5,-224.5 379.5,-243.5 475.5,-243.5 475.5,-224.5 379.5,-224.5"/>
<text text-anchor="middle" x="427.5" y="-231.5" font-family="Helvetica,sans-Serif" font-size="10.00">pulse_audio.hpp</text>
</a>
</g>
</g>
<!-- Node2 -->
<g id="node2" class="node">
<title>Node2</title>
<g id="a_node2"><a xlink:href="pulse__audio__reader_8cpp.html" target="_top" xlink:title="PulseAudio reader implementation.">
<polygon fill="none" stroke="black" points="154,-168.5 154,-187.5 285,-187.5 285,-168.5 154,-168.5"/>
<text text-anchor="middle" x="219.5" y="-175.5" font-family="Helvetica,sans-Serif" font-size="10.00">pulse_audio_reader.cpp</text>
</a>
</g>
</g>
<!-- Node1&#45;&gt;Node2 -->
<g id="edge1" class="edge">
<title>Node1&#45;&gt;Node2</title>
<path fill="none" stroke="midnightblue" d="M384.72,-221.89C345.44,-211.7 288.07,-196.8 252.3,-187.52"/>
<polygon fill="midnightblue" stroke="midnightblue" points="383.98,-225.32 394.54,-224.44 385.74,-218.54 383.98,-225.32"/>
</g>
<!-- Node3 -->
<g id="node3" class="node">
<title>Node3</title>
<g id="a_node3"><a xlink:href="pulse__audio__writer_8cpp.html" target="_top" xlink:title=" ">
<polygon fill="none" stroke="black" points="303.5,-168.5 303.5,-187.5 431.5,-187.5 431.5,-168.5 303.5,-168.5"/>
<text text-anchor="middle" x="367.5" y="-175.5" font-family="Helvetica,sans-Serif" font-size="10.00">pulse_audio_writer.cpp</text>
</a>
</g>
</g>
<!-- Node1&#45;&gt;Node3 -->
<g id="edge2" class="edge">
<title>Node1&#45;&gt;Node3</title>
<path fill="none" stroke="midnightblue" d="M410.32,-217.54C399.62,-207.91 386.24,-195.87 377.32,-187.83"/>
<polygon fill="midnightblue" stroke="midnightblue" points="408.09,-220.24 417.86,-224.32 412.77,-215.03 408.09,-220.24"/>
</g>
<!-- Node4 -->
<g id="node4" class="node">
<title>Node4</title>
<g id="a_node4"><a xlink:href="receiver_8hpp.html" target="_top" xlink:title="Base class for receivers. Demodulators that use pulse audio.">
<polygon fill="none" stroke="black" points="450,-168.5 450,-187.5 527,-187.5 527,-168.5 450,-168.5"/>
<text text-anchor="middle" x="488.5" y="-175.5" font-family="Helvetica,sans-Serif" font-size="10.00">receiver.hpp</text>
</a>
</g>
</g>
<!-- Node1&#45;&gt;Node4 -->
<g id="edge3" class="edge">
<title>Node1&#45;&gt;Node4</title>
<path fill="none" stroke="midnightblue" d="M444.97,-217.54C455.84,-207.91 469.44,-195.87 478.52,-187.83"/>
<polygon fill="midnightblue" stroke="midnightblue" points="442.47,-215.07 437.3,-224.32 447.11,-220.32 442.47,-215.07"/>
</g>
<!-- Node13 -->
<g id="node13" class="node">
<title>Node13</title>
<g id="a_node13"><a xlink:href="pulse__test_8cpp.html" target="_top" xlink:title="PulseAudio output test. Does not use gtest.">
<polygon fill="none" stroke="black" points="528,-0.5 528,-19.5 615,-19.5 615,-0.5 528,-0.5"/>
<text text-anchor="middle" x="571.5" y="-7.5" font-family="Helvetica,sans-Serif" font-size="10.00">pulse_test.cpp</text>
</a>
</g>
</g>
<!-- Node1&#45;&gt;Node13 -->
<g id="edge15" class="edge">
<title>Node1&#45;&gt;Node13</title>
<path fill="none" stroke="midnightblue" d="M473.54,-221.39C494.52,-214.35 518.6,-203.64 536.5,-188 579.84,-150.13 586.54,-131.58 601.5,-76 603.81,-67.42 604.08,-64.51 601.5,-56 597.26,-41.98 587.04,-28.34 579.71,-19.82"/>
<polygon fill="midnightblue" stroke="midnightblue" points="472.32,-218.1 463.84,-224.46 474.43,-224.78 472.32,-218.1"/>
</g>
<!-- Node5 -->
<g id="node5" class="node">
<title>Node5</title>
<g id="a_node5"><a xlink:href="afsk_8hpp.html" target="_top" xlink:title="AFSK related modulation/demodulation.">
<polygon fill="none" stroke="black" points="395,-112.5 395,-131.5 454,-131.5 454,-112.5 395,-112.5"/>
<text text-anchor="middle" x="424.5" y="-119.5" font-family="Helvetica,sans-Serif" font-size="10.00">afsk.hpp</text>
</a>
</g>
</g>
<!-- Node4&#45;&gt;Node5 -->
<g id="edge4" class="edge">
<title>Node4&#45;&gt;Node5</title>
<path fill="none" stroke="midnightblue" d="M470.51,-161.82C459.04,-152.15 444.59,-139.95 434.97,-131.83"/>
<polygon fill="midnightblue" stroke="midnightblue" points="468.32,-164.55 478.22,-168.32 472.83,-159.2 468.32,-164.55"/>
</g>
<!-- Node6 -->
<g id="node6" class="node">
<title>Node6</title>
<g id="a_node6"><a xlink:href="afsk__demodulator_8cpp.html" target="_top" xlink:title="The AFSK demodulator class implementation.">
<polygon fill="none" stroke="black" points="0,-56.5 0,-75.5 125,-75.5 125,-56.5 0,-56.5"/>
<text text-anchor="middle" x="62.5" y="-63.5" font-family="Helvetica,sans-Serif" font-size="10.00">afsk_demodulator.cpp</text>
</a>
</g>
</g>
<!-- Node5&#45;&gt;Node6 -->
<g id="edge5" class="edge">
<title>Node5&#45;&gt;Node6</title>
<path fill="none" stroke="midnightblue" d="M384.74,-115.07C320.46,-105.48 193.44,-86.53 119.52,-75.51"/>
<polygon fill="midnightblue" stroke="midnightblue" points="384.47,-118.57 394.88,-116.58 385.5,-111.64 384.47,-118.57"/>
</g>
<!-- Node7 -->
<g id="node7" class="node">
<title>Node7</title>
<g id="a_node7"><a xlink:href="afsk__modulator_8cpp.html" target="_top" xlink:title="The AFSK modulator class implementation.">
<polygon fill="none" stroke="black" points="143,-56.5 143,-75.5 256,-75.5 256,-56.5 143,-56.5"/>
<text text-anchor="middle" x="199.5" y="-63.5" font-family="Helvetica,sans-Serif" font-size="10.00">afsk_modulator.cpp</text>
</a>
</g>
</g>
<!-- Node5&#45;&gt;Node7 -->
<g id="edge6" class="edge">
<title>Node5&#45;&gt;Node7</title>
<path fill="none" stroke="midnightblue" d="M384.65,-111.44C342.24,-101.26 275.77,-85.3 235.07,-75.54"/>
<polygon fill="midnightblue" stroke="midnightblue" points="384.08,-114.9 394.62,-113.83 385.71,-108.09 384.08,-114.9"/>
</g>
<!-- Node8 -->
<g id="node8" class="node">
<title>Node8</title>
<g id="a_node8"><a xlink:href="afsk__receiver_8cpp.html" target="_top" xlink:title="Implementation of the AFSK receiver class.">
<polygon fill="none" stroke="black" points="274.5,-56.5 274.5,-75.5 376.5,-75.5 376.5,-56.5 274.5,-56.5"/>
<text text-anchor="middle" x="325.5" y="-63.5" font-family="Helvetica,sans-Serif" font-size="10.00">afsk_receiver.cpp</text>
</a>
</g>
</g>
<!-- Node5&#45;&gt;Node8 -->
<g id="edge7" class="edge">
<title>Node5&#45;&gt;Node8</title>
<path fill="none" stroke="midnightblue" d="M399.66,-107.45C381.39,-97.48 357.08,-84.23 341.37,-75.65"/>
<polygon fill="midnightblue" stroke="midnightblue" points="398.14,-110.61 408.59,-112.32 401.49,-104.46 398.14,-110.61"/>
</g>
<!-- Node9 -->
<g id="node9" class="node">
<title>Node9</title>
<g id="a_node9"><a xlink:href="aprs_8hpp.html" target="_top" xlink:title="APRS implementation.">
<polygon fill="none" stroke="black" points="395,-56.5 395,-75.5 454,-75.5 454,-56.5 395,-56.5"/>
<text text-anchor="middle" x="424.5" y="-63.5" font-family="Helvetica,sans-Serif" font-size="10.00">aprs.hpp</text>
</a>
</g>
</g>
<!-- Node5&#45;&gt;Node9 -->
<g id="edge8" class="edge">
<title>Node5&#45;&gt;Node9</title>
<path fill="none" stroke="midnightblue" d="M424.5,-101.8C424.5,-92.91 424.5,-82.78 424.5,-75.75"/>
<polygon fill="midnightblue" stroke="midnightblue" points="421,-102.08 424.5,-112.08 428,-102.08 421,-102.08"/>
</g>
<!-- Node5&#45;&gt;Node13 -->
<g id="edge14" class="edge">
<title>Node5&#45;&gt;Node13</title>
<path fill="none" stroke="midnightblue" d="M441.75,-105.32C457.01,-91.72 480.13,-71.79 501.5,-56 519.98,-42.35 542.51,-28.3 556.92,-19.61"/>
<polygon fill="midnightblue" stroke="midnightblue" points="439.23,-102.88 434.13,-112.16 443.91,-108.08 439.23,-102.88"/>
</g>
<!-- Node14 -->
<g id="node14" class="node">
<title>Node14</title>
<g id="a_node14"><a xlink:href="afsk__test_8cpp.html" target="_top" xlink:title=" ">
<polygon fill="none" stroke="black" points="510.5,-56.5 510.5,-75.5 592.5,-75.5 592.5,-56.5 510.5,-56.5"/>
<text text-anchor="middle" x="551.5" y="-63.5" font-family="Helvetica,sans-Serif" font-size="10.00">afsk_test.cpp</text>
</a>
</g>
</g>
<!-- Node5&#45;&gt;Node14 -->
<g id="edge13" class="edge">
<title>Node5&#45;&gt;Node14</title>
<path fill="none" stroke="midnightblue" d="M453.89,-108.5C477.7,-98.38 510.61,-84.39 531.47,-75.52"/>
<polygon fill="midnightblue" stroke="midnightblue" points="452.46,-105.31 444.62,-112.44 455.2,-111.75 452.46,-105.31"/>
</g>
<!-- Node10 -->
<g id="node10" class="node">
<title>Node10</title>
<g id="a_node10"><a xlink:href="aprs__receiver_8cpp.html" target="_top" xlink:title="Implementation of the APRS receiver class.">
<polygon fill="none" stroke="black" points="231.5,-0.5 231.5,-19.5 333.5,-19.5 333.5,-0.5 231.5,-0.5"/>
<text text-anchor="middle" x="282.5" y="-7.5" font-family="Helvetica,sans-Serif" font-size="10.00">aprs_receiver.cpp</text>
</a>
</g>
</g>
<!-- Node9&#45;&gt;Node10 -->
<g id="edge9" class="edge">
<title>Node9&#45;&gt;Node10</title>
<path fill="none" stroke="midnightblue" d="M392.34,-52.77C365.67,-42.63 328.43,-28.47 304.9,-19.52"/>
<polygon fill="midnightblue" stroke="midnightblue" points="391.41,-56.16 402,-56.44 393.9,-49.62 391.41,-56.16"/>
</g>
<!-- Node11 -->
<g id="node11" class="node">
<title>Node11</title>
<g id="a_node11"><a xlink:href="aprs_8cpp.html" target="_top" xlink:title="APRS implementation.">
<polygon fill="none" stroke="black" points="351.5,-0.5 351.5,-19.5 409.5,-19.5 409.5,-0.5 351.5,-0.5"/>
<text text-anchor="middle" x="380.5" y="-7.5" font-family="Helvetica,sans-Serif" font-size="10.00">aprs.cpp</text>
</a>
</g>
</g>
<!-- Node9&#45;&gt;Node11 -->
<g id="edge10" class="edge">
<title>Node9&#45;&gt;Node11</title>
<path fill="none" stroke="midnightblue" d="M410.77,-48.14C403.1,-38.74 393.87,-27.4 387.63,-19.75"/>
<polygon fill="midnightblue" stroke="midnightblue" points="408.2,-50.54 417.23,-56.08 413.63,-46.12 408.2,-50.54"/>
</g>
<!-- Node12 -->
<g id="node12" class="node">
<title>Node12</title>
<g id="a_node12"><a xlink:href="aprs__test_8cpp.html" target="_top" xlink:title=" ">
<polygon fill="none" stroke="black" points="427.5,-0.5 427.5,-19.5 509.5,-19.5 509.5,-0.5 427.5,-0.5"/>
<text text-anchor="middle" x="468.5" y="-7.5" font-family="Helvetica,sans-Serif" font-size="10.00">aprs_test.cpp</text>
</a>
</g>
</g>
<!-- Node9&#45;&gt;Node12 -->
<g id="edge11" class="edge">
<title>Node9&#45;&gt;Node12</title>
<path fill="none" stroke="midnightblue" d="M438.23,-48.14C445.9,-38.74 455.13,-27.4 461.37,-19.75"/>
<polygon fill="midnightblue" stroke="midnightblue" points="435.37,-46.12 431.77,-56.08 440.8,-50.54 435.37,-46.12"/>
</g>
<!-- Node9&#45;&gt;Node13 -->
<g id="edge12" class="edge">
<title>Node9&#45;&gt;Node13</title>
<path fill="none" stroke="midnightblue" d="M457.42,-52.91C485.06,-42.75 523.84,-28.51 548.32,-19.52"/>
<polygon fill="midnightblue" stroke="midnightblue" points="455.97,-49.71 447.79,-56.44 458.39,-56.28 455.97,-49.71"/>
</g>
</g>
</svg>
