<?xml version="1.0" encoding="UTF-8" standalone="no"?>
<!DOCTYPE svg PUBLIC "-//W3C//DTD SVG 1.1//EN"
 "http://www.w3.org/Graphics/SVG/1.1/DTD/svg11.dtd">
<!-- Generated by graphviz version 2.43.0 (0)
 -->
<!-- Title: pulse_audio.hpp Pages: 1 -->
<svg width="1246pt" height="252pt"
 viewBox="0.00 0.00 1245.50 252.00" xmlns="http://www.w3.org/2000/svg" xmlns:xlink="http://www.w3.org/1999/xlink">
<g id="graph0" class="graph" transform="scale(1 1) rotate(0) translate(4 248)">
<title>pulse_audio.hpp</title>
<!-- Node1 -->
<g id="node1" class="node">
<title>Node1</title>
<g id="a_node1"><a xlink:title="Reads audio from pulse audio.">
<polygon fill="#bfbfbf" stroke="black" points="211.5,-224.5 211.5,-243.5 307.5,-243.5 307.5,-224.5 211.5,-224.5"/>
<text text-anchor="middle" x="259.5" y="-231.5" font-family="Helvetica,sans-Serif" font-size="10.00">pulse_audio.hpp</text>
</a>
</g>
</g>
<!-- Node2 -->
<g id="node2" class="node">
<title>Node2</title>
<g id="a_node2"><a xlink:href="pulse__audio__reader_8cpp.html" target="_top" xlink:title="PulseAudio reader implementation.">
<polygon fill="none" stroke="black" points="0,-168.5 0,-187.5 131,-187.5 131,-168.5 0,-168.5"/>
<text text-anchor="middle" x="65.5" y="-175.5" font-family="Helvetica,sans-Serif" font-size="10.00">pulse_audio_reader.cpp</text>
</a>
</g>
</g>
<!-- Node1&#45;&gt;Node2 -->
<g id="edge1" class="edge">
<title>Node1&#45;&gt;Node2</title>
<path fill="none" stroke="midnightblue" d="M218.9,-221.7C182.28,-211.51 129.24,-196.74 96.1,-187.52"/>
<polygon fill="midnightblue" stroke="midnightblue" points="218.19,-225.13 228.76,-224.44 220.06,-218.39 218.19,-225.13"/>
</g>
<!-- Node3 -->
<g id="node3" class="node">
<title>Node3</title>
<g id="a_node3"><a xlink:href="pulse__audio__writer_8cpp.html" target="_top" xlink:title="Simple pulse audio interface.">
<polygon fill="none" stroke="black" points="149.5,-168.5 149.5,-187.5 277.5,-187.5 277.5,-168.5 149.5,-168.5"/>
<text text-anchor="middle" x="213.5" y="-175.5" font-family="Helvetica,sans-Serif" font-size="10.00">pulse_audio_writer.cpp</text>
</a>
</g>
</g>
<!-- Node1&#45;&gt;Node3 -->
<g id="edge2" class="edge">
<title>Node1&#45;&gt;Node3</title>
<path fill="none" stroke="midnightblue" d="M245.39,-216.43C237.32,-206.97 227.54,-195.48 220.95,-187.75"/>
<polygon fill="midnightblue" stroke="midnightblue" points="242.75,-218.74 251.9,-224.08 248.08,-214.2 242.75,-218.74"/>
</g>
<!-- Node4 -->
<g id="node4" class="node">
<title>Node4</title>
<g id="a_node4"><a xlink:href="pulse__test_8cpp.html" target="_top" xlink:title="PulseAudio output test. Does not use gtest.">
<polygon fill="none" stroke="black" points="300,-0.5 300,-19.5 387,-19.5 387,-0.5 300,-0.5"/>
<text text-anchor="middle" x="343.5" y="-7.5" font-family="Helvetica,sans-Serif" font-size="10.00">pulse_test.cpp</text>
</a>
</g>
</g>
<!-- Node1&#45;&gt;Node4 -->
<g id="edge3" class="edge">
<title>Node1&#45;&gt;Node4</title>
<path fill="none" stroke="midnightblue" d="M271.11,-215.77C276.28,-207.59 282.17,-197.54 286.5,-188 314.65,-125.97 335.12,-45.95 341.44,-19.73"/>
<polygon fill="midnightblue" stroke="midnightblue" points="268.03,-214.07 265.5,-224.36 273.9,-217.9 268.03,-214.07"/>
</g>
<!-- Node5 -->
<g id="node5" class="node">
<title>Node5</title>
<g id="a_node5"><a xlink:href="receiver_8hpp.html" target="_top" xlink:title="Base class for receivers. Demodulators that use pulse audio.">
<polygon fill="none" stroke="black" points="434,-168.5 434,-187.5 511,-187.5 511,-168.5 434,-168.5"/>
<text text-anchor="middle" x="472.5" y="-175.5" font-family="Helvetica,sans-Serif" font-size="10.00">receiver.hpp</text>
</a>
</g>
</g>
<!-- Node1&#45;&gt;Node5 -->
<g id="edge4" class="edge">
<title>Node1&#45;&gt;Node5</title>
<path fill="none" stroke="midnightblue" d="M303.05,-221.96C343.28,-211.76 402.2,-196.82 438.91,-187.52"/>
<polygon fill="midnightblue" stroke="midnightblue" points="302.08,-218.59 293.25,-224.44 303.8,-225.38 302.08,-218.59"/>
</g>
<!-- Node6 -->
<g id="node6" class="node">
<title>Node6</title>
<g id="a_node6"><a xlink:href="afsk_8hpp.html" target="_top" xlink:title="AFSK related modulation/demodulation.">
<polygon fill="none" stroke="black" points="542,-112.5 542,-131.5 601,-131.5 601,-112.5 542,-112.5"/>
<text text-anchor="middle" x="571.5" y="-119.5" font-family="Helvetica,sans-Serif" font-size="10.00">afsk.hpp</text>
</a>
</g>
</g>
<!-- Node5&#45;&gt;Node6 -->
<g id="edge5" class="edge">
<title>Node5&#45;&gt;Node6</title>
<path fill="none" stroke="midnightblue" d="M497.34,-163.45C515.61,-153.48 539.92,-140.23 555.63,-131.65"/>
<polygon fill="midnightblue" stroke="midnightblue" points="495.51,-160.46 488.41,-168.32 498.86,-166.61 495.51,-160.46"/>
</g>
<!-- Node6&#45;&gt;Node4 -->
<g id="edge18" class="edge">
<title>Node6&#45;&gt;Node4</title>
<path fill="none" stroke="midnightblue" d="M531.54,-117.25C477.93,-111.42 386.64,-98.46 362.5,-76 346.49,-61.11 343.71,-33.54 343.39,-19.58"/>
<polygon fill="midnightblue" stroke="midnightblue" points="531.42,-120.75 541.73,-118.32 532.15,-113.79 531.42,-120.75"/>
</g>
<!-- Node7 -->
<g id="node7" class="node">
<title>Node7</title>
<g id="a_node7"><a xlink:href="afsk__demodulator_8cpp.html" target="_top" xlink:title="The AFSK demodulator class implementation.">
<polygon fill="none" stroke="black" points="372,-56.5 372,-75.5 497,-75.5 497,-56.5 372,-56.5"/>
<text text-anchor="middle" x="434.5" y="-63.5" font-family="Helvetica,sans-Serif" font-size="10.00">afsk_demodulator.cpp</text>
</a>
</g>
</g>
<!-- Node6&#45;&gt;Node7 -->
<g id="edge6" class="edge">
<title>Node6&#45;&gt;Node7</title>
<path fill="none" stroke="midnightblue" d="M540.48,-108.77C514.74,-98.63 478.81,-84.47 456.11,-75.52"/>
<polygon fill="midnightblue" stroke="midnightblue" points="539.21,-112.03 549.79,-112.44 541.77,-105.52 539.21,-112.03"/>
</g>
<!-- Node8 -->
<g id="node8" class="node">
<title>Node8</title>
<g id="a_node8"><a xlink:href="afsk__modulator_8cpp.html" target="_top" xlink:title="The AFSK modulator class implementation.">
<polygon fill="none" stroke="black" points="515,-56.5 515,-75.5 628,-75.5 628,-56.5 515,-56.5"/>
<text text-anchor="middle" x="571.5" y="-63.5" font-family="Helvetica,sans-Serif" font-size="10.00">afsk_modulator.cpp</text>
</a>
</g>
</g>
<!-- Node6&#45;&gt;Node8 -->
<g id="edge7" class="edge">
<title>Node6&#45;&gt;Node8</title>
<path fill="none" stroke="midnightblue" d="M571.5,-101.8C571.5,-92.91 571.5,-82.78 571.5,-75.75"/>
<polygon fill="midnightblue" stroke="midnightblue" points="568,-102.08 571.5,-112.08 575,-102.08 568,-102.08"/>
</g>
<!-- Node9 -->
<g id="node9" class="node">
<title>Node9</title>
<g id="a_node9"><a xlink:href="afsk__receiver_8cpp.html" target="_top" xlink:title="Implementation of the AFSK receiver class.">
<polygon fill="none" stroke="black" points="646.5,-56.5 646.5,-75.5 748.5,-75.5 748.5,-56.5 646.5,-56.5"/>
<text text-anchor="middle" x="697.5" y="-63.5" font-family="Helvetica,sans-Serif" font-size="10.00">afsk_receiver.cpp</text>
</a>
</g>
</g>
<!-- Node6&#45;&gt;Node9 -->
<g id="edge8" class="edge">
<title>Node6&#45;&gt;Node9</title>
<path fill="none" stroke="midnightblue" d="M600.66,-108.5C624.28,-98.38 656.93,-84.39 677.63,-75.52"/>
<polygon fill="midnightblue" stroke="midnightblue" points="599.28,-105.29 591.47,-112.44 602.04,-111.72 599.28,-105.29"/>
</g>
<!-- Node10 -->
<g id="node10" class="node">
<title>Node10</title>
<g id="a_node10"><a xlink:href="afsk__test_8cpp.html" target="_top" xlink:title=" ">
<polygon fill="none" stroke="black" points="766.5,-56.5 766.5,-75.5 848.5,-75.5 848.5,-56.5 766.5,-56.5"/>
<text text-anchor="middle" x="807.5" y="-63.5" font-family="Helvetica,sans-Serif" font-size="10.00">afsk_test.cpp</text>
</a>
</g>
</g>
<!-- Node6&#45;&gt;Node10 -->
<g id="edge9" class="edge">
<title>Node6&#45;&gt;Node10</title>
<path fill="none" stroke="midnightblue" d="M611.23,-111.91C655.56,-101.77 726.72,-85.48 770.08,-75.56"/>
<polygon fill="midnightblue" stroke="midnightblue" points="610.36,-108.52 601.39,-114.16 611.92,-115.34 610.36,-108.52"/>
</g>
<!-- Node11 -->
<g id="node11" class="node">
<title>Node11</title>
<g id="a_node11"><a xlink:href="aprs_8hpp.html" target="_top" xlink:title=" ">
<polygon fill="none" stroke="black" points="867,-56.5 867,-75.5 926,-75.5 926,-56.5 867,-56.5"/>
<text text-anchor="middle" x="896.5" y="-63.5" font-family="Helvetica,sans-Serif" font-size="10.00">aprs.hpp</text>
</a>
</g>
</g>
<!-- Node6&#45;&gt;Node11 -->
<g id="edge10" class="edge">
<title>Node6&#45;&gt;Node11</title>
<path fill="none" stroke="midnightblue" d="M611.36,-115.64C666.77,-107.97 770.12,-92.94 857.5,-76 860.5,-75.42 863.62,-74.77 866.74,-74.1"/>
<polygon fill="midnightblue" stroke="midnightblue" points="610.7,-112.19 601.26,-117.02 611.65,-119.13 610.7,-112.19"/>
</g>
<!-- Node11&#45;&gt;Node4 -->
<g id="edge17" class="edge">
<title>Node11&#45;&gt;Node4</title>
<path fill="none" stroke="midnightblue" d="M856.87,-56.13C677.04,-28.18 474.38,-16.74 387.07,-12.76"/>
<polygon fill="midnightblue" stroke="midnightblue" points="856.35,-59.59 866.77,-57.69 857.44,-52.68 856.35,-59.59"/>
</g>
<!-- Node12 -->
<g id="node12" class="node">
<title>Node12</title>
<g id="a_node12"><a xlink:href="aprs_8cpp.html" target="_top" xlink:title="APRS implementation.">
<polygon fill="none" stroke="black" points="559.5,-0.5 559.5,-19.5 617.5,-19.5 617.5,-0.5 559.5,-0.5"/>
<text text-anchor="middle" x="588.5" y="-7.5" font-family="Helvetica,sans-Serif" font-size="10.00">aprs.cpp</text>
</a>
</g>
</g>
<!-- Node11&#45;&gt;Node12 -->
<g id="edge11" class="edge">
<title>Node11&#45;&gt;Node12</title>
<path fill="none" stroke="midnightblue" d="M856.86,-56.01C753.77,-36.51 725.38,-39.38 626.5,-20 623.71,-19.45 620.81,-18.84 617.91,-18.2"/>
<polygon fill="midnightblue" stroke="midnightblue" points="856.26,-59.45 866.74,-57.9 857.57,-52.58 856.26,-59.45"/>
</g>
<!-- Node13 -->
<g id="node13" class="node">
<title>Node13</title>
<g id="a_node13"><a xlink:href="aprs__demodulator_8cpp.html" target="_top" xlink:title="Implementation of the APRS demodulator class.">
<polygon fill="none" stroke="black" points="636,-0.5 636,-19.5 761,-19.5 761,-0.5 636,-0.5"/>
<text text-anchor="middle" x="698.5" y="-7.5" font-family="Helvetica,sans-Serif" font-size="10.00">aprs_demodulator.cpp</text>
</a>
</g>
</g>
<!-- Node11&#45;&gt;Node13 -->
<g id="edge12" class="edge">
<title>Node11&#45;&gt;Node13</title>
<path fill="none" stroke="midnightblue" d="M856.84,-54.18C819.52,-44 764.37,-28.97 729.98,-19.59"/>
<polygon fill="midnightblue" stroke="midnightblue" points="856.29,-57.66 866.86,-56.92 858.13,-50.91 856.29,-57.66"/>
</g>
<!-- Node14 -->
<g id="node14" class="node">
<title>Node14</title>
<g id="a_node14"><a xlink:href="aprs__encoders_8cpp.html" target="_top" xlink:title="Encoding functions for APRS packets.">
<polygon fill="none" stroke="black" points="779,-0.5 779,-19.5 886,-19.5 886,-0.5 779,-0.5"/>
<text text-anchor="middle" x="832.5" y="-7.5" font-family="Helvetica,sans-Serif" font-size="10.00">aprs_encoders.cpp</text>
</a>
</g>
</g>
<!-- Node11&#45;&gt;Node14 -->
<g id="edge13" class="edge">
<title>Node11&#45;&gt;Node14</title>
<path fill="none" stroke="midnightblue" d="M878.51,-49.82C867.04,-40.15 852.59,-27.95 842.97,-19.83"/>
<polygon fill="midnightblue" stroke="midnightblue" points="876.32,-52.55 886.22,-56.32 880.83,-47.2 876.32,-52.55"/>
</g>
<!-- Node15 -->
<g id="node15" class="node">
<title>Node15</title>
<g id="a_node15"><a xlink:href="aprs__modulator_8cpp.html" target="_top" xlink:title="Implementation of the APRS modulator class.">
<polygon fill="none" stroke="black" points="904,-0.5 904,-19.5 1017,-19.5 1017,-0.5 904,-0.5"/>
<text text-anchor="middle" x="960.5" y="-7.5" font-family="Helvetica,sans-Serif" font-size="10.00">aprs_modulator.cpp</text>
</a>
</g>
</g>
<!-- Node11&#45;&gt;Node15 -->
<g id="edge14" class="edge">
<title>Node11&#45;&gt;Node15</title>
<path fill="none" stroke="midnightblue" d="M914.49,-49.82C925.96,-40.15 940.41,-27.95 950.03,-19.83"/>
<polygon fill="midnightblue" stroke="midnightblue" points="912.17,-47.2 906.78,-56.32 916.68,-52.55 912.17,-47.2"/>
</g>
<!-- Node16 -->
<g id="node16" class="node">
<title>Node16</title>
<g id="a_node16"><a xlink:href="aprs__receiver_8cpp.html" target="_top" xlink:title="Implementation of the APRS receiver class.">
<polygon fill="none" stroke="black" points="1035.5,-0.5 1035.5,-19.5 1137.5,-19.5 1137.5,-0.5 1035.5,-0.5"/>
<text text-anchor="middle" x="1086.5" y="-7.5" font-family="Helvetica,sans-Serif" font-size="10.00">aprs_receiver.cpp</text>
</a>
</g>
</g>
<!-- Node11&#45;&gt;Node16 -->
<g id="edge15" class="edge">
<title>Node11&#45;&gt;Node16</title>
<path fill="none" stroke="midnightblue" d="M935.83,-53.82C971.65,-43.64 1023.79,-28.82 1056.39,-19.56"/>
<polygon fill="midnightblue" stroke="midnightblue" points="934.85,-50.46 926.19,-56.56 936.76,-57.2 934.85,-50.46"/>
</g>
<!-- Node17 -->
<g id="node17" class="node">
<title>Node17</title>
<g id="a_node17"><a xlink:href="aprs__test_8cpp.html" target="_top" xlink:title=" ">
<polygon fill="none" stroke="black" points="1155.5,-0.5 1155.5,-19.5 1237.5,-19.5 1237.5,-0.5 1155.5,-0.5"/>
<text text-anchor="middle" x="1196.5" y="-7.5" font-family="Helvetica,sans-Serif" font-size="10.00">aprs_test.cpp</text>
</a>
</g>
</g>
<!-- Node11&#45;&gt;Node17 -->
<g id="edge16" class="edge">
<title>Node11&#45;&gt;Node17</title>
<path fill="none" stroke="midnightblue" d="M936.14,-57.86C993.07,-47.62 1097.47,-28.83 1155.27,-18.42"/>
<polygon fill="midnightblue" stroke="midnightblue" points="935.31,-54.46 926.09,-59.67 936.55,-61.35 935.31,-54.46"/>
</g>
</g>
</svg>
