<?xml version="1.0" encoding="UTF-8" standalone="no"?>
<!DOCTYPE svg PUBLIC "-//W3C//DTD SVG 1.1//EN"
 "http://www.w3.org/Graphics/SVG/1.1/DTD/svg11.dtd">
<!-- Generated by graphviz version 2.43.0 (0)
 -->
<!-- Title: pulse_audio_reader.cpp Pages: 1 -->
<svg width="588pt" height="196pt"
 viewBox="0.00 0.00 587.50 196.00" xmlns="http://www.w3.org/2000/svg" xmlns:xlink="http://www.w3.org/1999/xlink">
<g id="graph0" class="graph" transform="scale(1 1) rotate(0) translate(4 192)">
<title>pulse_audio_reader.cpp</title>
<!-- Node1 -->
<g id="node1" class="node">
<title>Node1</title>
<g id="a_node1"><a xlink:title="PulseAudio reader implementation.">
<polygon fill="#bfbfbf" stroke="black" points="338,-168.5 338,-187.5 469,-187.5 469,-168.5 338,-168.5"/>
<text text-anchor="middle" x="403.5" y="-175.5" font-family="Helvetica,sans-Serif" font-size="10.00">pulse_audio_reader.cpp</text>
</a>
</g>
</g>
<!-- Node2 -->
<g id="node2" class="node">
<title>Node2</title>
<g id="a_node2"><a xlink:href="exception_8hpp.html" target="_top" xlink:title="SignalEasel exceptions.">
<polygon fill="none" stroke="black" points="33,-112.5 33,-131.5 178,-131.5 178,-112.5 33,-112.5"/>
<text text-anchor="middle" x="105.5" y="-119.5" font-family="Helvetica,sans-Serif" font-size="10.00">SignalEasel/exception.hpp</text>
</a>
</g>
</g>
<!-- Node1&#45;&gt;Node2 -->
<g id="edge1" class="edge">
<title>Node1&#45;&gt;Node2</title>
<path fill="none" stroke="midnightblue" d="M356.28,-168.44C303.75,-158.92 218.89,-143.55 162.65,-133.36"/>
<polygon fill="midnightblue" stroke="midnightblue" points="162.96,-129.86 152.5,-131.52 161.71,-136.74 162.96,-129.86"/>
</g>
<!-- Node5 -->
<g id="node5" class="node">
<title>Node5</title>
<g id="a_node5"><a xlink:href="pulse__audio_8hpp.html" target="_top" xlink:title="Simple pulse audio interface.">
<polygon fill="none" stroke="black" points="198,-112.5 198,-131.5 353,-131.5 353,-112.5 198,-112.5"/>
<text text-anchor="middle" x="275.5" y="-119.5" font-family="Helvetica,sans-Serif" font-size="10.00">SignalEasel/pulse_audio.hpp</text>
</a>
</g>
</g>
<!-- Node1&#45;&gt;Node5 -->
<g id="edge4" class="edge">
<title>Node1&#45;&gt;Node5</title>
<path fill="none" stroke="midnightblue" d="M383.22,-168.44C362.15,-159.56 328.98,-145.56 305.01,-135.45"/>
<polygon fill="midnightblue" stroke="midnightblue" points="306.26,-132.18 295.69,-131.52 303.54,-138.63 306.26,-132.18"/>
</g>
<!-- Node11 -->
<g id="node11" class="node">
<title>Node11</title>
<g id="a_node11"><a xlink:title=" ">
<polygon fill="none" stroke="#bfbfbf" points="371.5,-112.5 371.5,-131.5 435.5,-131.5 435.5,-112.5 371.5,-112.5"/>
<text text-anchor="middle" x="403.5" y="-119.5" font-family="Helvetica,sans-Serif" font-size="10.00">algorithm</text>
</a>
</g>
</g>
<!-- Node1&#45;&gt;Node11 -->
<g id="edge11" class="edge">
<title>Node1&#45;&gt;Node11</title>
<path fill="none" stroke="midnightblue" d="M403.5,-168.08C403.5,-161.01 403.5,-150.86 403.5,-141.99"/>
<polygon fill="midnightblue" stroke="midnightblue" points="407,-141.75 403.5,-131.75 400,-141.75 407,-141.75"/>
</g>
<!-- Node12 -->
<g id="node12" class="node">
<title>Node12</title>
<g id="a_node12"><a xlink:title=" ">
<polygon fill="none" stroke="#bfbfbf" points="454,-112.5 454,-131.5 501,-131.5 501,-112.5 454,-112.5"/>
<text text-anchor="middle" x="477.5" y="-119.5" font-family="Helvetica,sans-Serif" font-size="10.00">cmath</text>
</a>
</g>
</g>
<!-- Node1&#45;&gt;Node12 -->
<g id="edge12" class="edge">
<title>Node1&#45;&gt;Node12</title>
<path fill="none" stroke="midnightblue" d="M415.39,-168.32C426.65,-160.11 443.79,-147.6 457.21,-137.81"/>
<polygon fill="midnightblue" stroke="midnightblue" points="459.38,-140.56 465.39,-131.83 455.25,-134.9 459.38,-140.56"/>
</g>
<!-- Node13 -->
<g id="node13" class="node">
<title>Node13</title>
<g id="a_node13"><a xlink:title=" ">
<polygon fill="none" stroke="#bfbfbf" points="519.5,-112.5 519.5,-131.5 579.5,-131.5 579.5,-112.5 519.5,-112.5"/>
<text text-anchor="middle" x="549.5" y="-119.5" font-family="Helvetica,sans-Serif" font-size="10.00">iostream</text>
</a>
</g>
</g>
<!-- Node1&#45;&gt;Node13 -->
<g id="edge13" class="edge">
<title>Node1&#45;&gt;Node13</title>
<path fill="none" stroke="midnightblue" d="M426.63,-168.44C450.98,-159.44 489.51,-145.19 516.92,-135.05"/>
<polygon fill="midnightblue" stroke="midnightblue" points="518.31,-138.27 526.47,-131.52 515.88,-131.7 518.31,-138.27"/>
</g>
<!-- Node3 -->
<g id="node3" class="node">
<title>Node3</title>
<g id="a_node3"><a xlink:title=" ">
<polygon fill="none" stroke="#bfbfbf" points="0,-56.5 0,-75.5 65,-75.5 65,-56.5 0,-56.5"/>
<text text-anchor="middle" x="32.5" y="-63.5" font-family="Helvetica,sans-Serif" font-size="10.00">exception</text>
</a>
</g>
</g>
<!-- Node2&#45;&gt;Node3 -->
<g id="edge2" class="edge">
<title>Node2&#45;&gt;Node3</title>
<path fill="none" stroke="midnightblue" d="M93.77,-112.32C82.66,-104.11 65.76,-91.6 52.52,-81.81"/>
<polygon fill="midnightblue" stroke="midnightblue" points="54.56,-78.97 44.44,-75.83 50.4,-84.59 54.56,-78.97"/>
</g>
<!-- Node4 -->
<g id="node4" class="node">
<title>Node4</title>
<g id="a_node4"><a xlink:title=" ">
<polygon fill="none" stroke="#bfbfbf" points="83.5,-56.5 83.5,-75.5 127.5,-75.5 127.5,-56.5 83.5,-56.5"/>
<text text-anchor="middle" x="105.5" y="-63.5" font-family="Helvetica,sans-Serif" font-size="10.00">string</text>
</a>
</g>
</g>
<!-- Node2&#45;&gt;Node4 -->
<g id="edge3" class="edge">
<title>Node2&#45;&gt;Node4</title>
<path fill="none" stroke="midnightblue" d="M105.5,-112.08C105.5,-105.01 105.5,-94.86 105.5,-85.99"/>
<polygon fill="midnightblue" stroke="midnightblue" points="109,-85.75 105.5,-75.75 102,-85.75 109,-85.75"/>
</g>
<!-- Node5&#45;&gt;Node4 -->
<g id="edge6" class="edge">
<title>Node5&#45;&gt;Node4</title>
<path fill="none" stroke="midnightblue" d="M248.56,-112.44C218.4,-102.86 169.56,-87.35 137.49,-77.16"/>
<polygon fill="midnightblue" stroke="midnightblue" points="138.3,-73.75 127.71,-74.05 136.18,-80.42 138.3,-73.75"/>
</g>
<!-- Node6 -->
<g id="node6" class="node">
<title>Node6</title>
<g id="a_node6"><a xlink:title=" ">
<polygon fill="none" stroke="#bfbfbf" points="145.5,-56.5 145.5,-75.5 187.5,-75.5 187.5,-56.5 145.5,-56.5"/>
<text text-anchor="middle" x="166.5" y="-63.5" font-family="Helvetica,sans-Serif" font-size="10.00">array</text>
</a>
</g>
</g>
<!-- Node5&#45;&gt;Node6 -->
<g id="edge5" class="edge">
<title>Node5&#45;&gt;Node6</title>
<path fill="none" stroke="midnightblue" d="M257.99,-112.32C240.43,-103.62 213.17,-90.12 192.97,-80.11"/>
<polygon fill="midnightblue" stroke="midnightblue" points="194.48,-76.96 183.97,-75.65 191.38,-83.23 194.48,-76.96"/>
</g>
<!-- Node7 -->
<g id="node7" class="node">
<title>Node7</title>
<g id="a_node7"><a xlink:href="constants_8hpp.html" target="_top" xlink:title="Common constants used throughout the library.">
<polygon fill="none" stroke="black" points="205.5,-56.5 205.5,-75.5 349.5,-75.5 349.5,-56.5 205.5,-56.5"/>
<text text-anchor="middle" x="277.5" y="-63.5" font-family="Helvetica,sans-Serif" font-size="10.00">SignalEasel/constants.hpp</text>
</a>
</g>
</g>
<!-- Node5&#45;&gt;Node7 -->
<g id="edge7" class="edge">
<title>Node5&#45;&gt;Node7</title>
<path fill="none" stroke="midnightblue" d="M275.83,-112.08C276.09,-105.01 276.47,-94.86 276.8,-85.99"/>
<polygon fill="midnightblue" stroke="midnightblue" points="280.3,-85.87 277.18,-75.75 273.31,-85.61 280.3,-85.87"/>
</g>
<!-- Node9 -->
<g id="node9" class="node">
<title>Node9</title>
<g id="a_node9"><a xlink:title=" ">
<polygon fill="none" stroke="#bfbfbf" points="368,-56.5 368,-75.5 445,-75.5 445,-56.5 368,-56.5"/>
<text text-anchor="middle" x="406.5" y="-63.5" font-family="Helvetica,sans-Serif" font-size="10.00">pulse/error.h</text>
</a>
</g>
</g>
<!-- Node5&#45;&gt;Node9 -->
<g id="edge9" class="edge">
<title>Node5&#45;&gt;Node9</title>
<path fill="none" stroke="midnightblue" d="M296.26,-112.44C317.82,-103.56 351.76,-89.56 376.29,-79.45"/>
<polygon fill="midnightblue" stroke="midnightblue" points="377.93,-82.56 385.84,-75.52 375.26,-76.09 377.93,-82.56"/>
</g>
<!-- Node10 -->
<g id="node10" class="node">
<title>Node10</title>
<g id="a_node10"><a xlink:title=" ">
<polygon fill="none" stroke="#bfbfbf" points="463.5,-56.5 463.5,-75.5 551.5,-75.5 551.5,-56.5 463.5,-56.5"/>
<text text-anchor="middle" x="507.5" y="-63.5" font-family="Helvetica,sans-Serif" font-size="10.00">pulse/simple.h</text>
</a>
</g>
</g>
<!-- Node5&#45;&gt;Node10 -->
<g id="edge10" class="edge">
<title>Node5&#45;&gt;Node10</title>
<path fill="none" stroke="midnightblue" d="M312.26,-112.44C352.56,-103.06 417.31,-87.99 461.08,-77.8"/>
<polygon fill="midnightblue" stroke="midnightblue" points="461.96,-81.19 470.91,-75.52 460.38,-74.37 461.96,-81.19"/>
</g>
<!-- Node8 -->
<g id="node8" class="node">
<title>Node8</title>
<g id="a_node8"><a xlink:title=" ">
<polygon fill="none" stroke="#bfbfbf" points="252.5,-0.5 252.5,-19.5 302.5,-19.5 302.5,-0.5 252.5,-0.5"/>
<text text-anchor="middle" x="277.5" y="-7.5" font-family="Helvetica,sans-Serif" font-size="10.00">cstdint</text>
</a>
</g>
</g>
<!-- Node7&#45;&gt;Node8 -->
<g id="edge8" class="edge">
<title>Node7&#45;&gt;Node8</title>
<path fill="none" stroke="midnightblue" d="M277.5,-56.08C277.5,-49.01 277.5,-38.86 277.5,-29.99"/>
<polygon fill="midnightblue" stroke="midnightblue" points="281,-29.75 277.5,-19.75 274,-29.75 281,-29.75"/>
</g>
</g>
</svg>
