<?xml version="1.0" encoding="UTF-8" standalone="no"?>
<!DOCTYPE svg PUBLIC "-//W3C//DTD SVG 1.1//EN"
 "http://www.w3.org/Graphics/SVG/1.1/DTD/svg11.dtd">
<!-- Generated by graphviz version 2.43.0 (0)
 -->
<!-- Title: pulse_audio.hpp Pages: 1 -->
<svg width="1328pt" height="252pt"
 viewBox="0.00 0.00 1327.50 252.00" xmlns="http://www.w3.org/2000/svg" xmlns:xlink="http://www.w3.org/1999/xlink">
<g id="graph0" class="graph" transform="scale(1 1) rotate(0) translate(4 248)">
<title>pulse_audio.hpp</title>
<!-- Node1 -->
<g id="node1" class="node">
<title>Node1</title>
<g id="a_node1"><a xlink:title="Reads audio from pulse audio.">
<polygon fill="#bfbfbf" stroke="black" points="211.5,-224.5 211.5,-243.5 307.5,-243.5 307.5,-224.5 211.5,-224.5"/>
<text text-anchor="middle" x="259.5" y="-231.5" font-family="Helvetica,sans-Serif" font-size="10.00">pulse_audio.hpp</text>
</a>
</g>
</g>
<!-- Node2 -->
<g id="node2" class="node">
<title>Node2</title>
<g id="a_node2"><a xlink:href="pulse__audio__reader_8cpp.html" target="_top" xlink:title="PulseAudio reader implementation.">
<polygon fill="none" stroke="black" points="0,-168.5 0,-187.5 131,-187.5 131,-168.5 0,-168.5"/>
<text text-anchor="middle" x="65.5" y="-175.5" font-family="Helvetica,sans-Serif" font-size="10.00">pulse_audio_reader.cpp</text>
</a>
</g>
</g>
<!-- Node1&#45;&gt;Node2 -->
<g id="edge1" class="edge">
<title>Node1&#45;&gt;Node2</title>
<path fill="none" stroke="midnightblue" d="M218.9,-221.7C182.28,-211.51 129.24,-196.74 96.1,-187.52"/>
<polygon fill="midnightblue" stroke="midnightblue" points="218.19,-225.13 228.76,-224.44 220.06,-218.39 218.19,-225.13"/>
</g>
<!-- Node3 -->
<g id="node3" class="node">
<title>Node3</title>
<g id="a_node3"><a xlink:href="pulse__audio__writer_8cpp.html" target="_top" xlink:title="Simple pulse audio interface.">
<polygon fill="none" stroke="black" points="149.5,-168.5 149.5,-187.5 277.5,-187.5 277.5,-168.5 149.5,-168.5"/>
<text text-anchor="middle" x="213.5" y="-175.5" font-family="Helvetica,sans-Serif" font-size="10.00">pulse_audio_writer.cpp</text>
</a>
</g>
</g>
<!-- Node1&#45;&gt;Node3 -->
<g id="edge2" class="edge">
<title>Node1&#45;&gt;Node3</title>
<path fill="none" stroke="midnightblue" d="M245.39,-216.43C237.32,-206.97 227.54,-195.48 220.95,-187.75"/>
<polygon fill="midnightblue" stroke="midnightblue" points="242.75,-218.74 251.9,-224.08 248.08,-214.2 242.75,-218.74"/>
</g>
<!-- Node4 -->
<g id="node4" class="node">
<title>Node4</title>
<g id="a_node4"><a xlink:href="pulse__test_8cpp.html" target="_top" xlink:title="PulseAudio output test. Does not use gtest.">
<polygon fill="none" stroke="black" points="300,-0.5 300,-19.5 387,-19.5 387,-0.5 300,-0.5"/>
<text text-anchor="middle" x="343.5" y="-7.5" font-family="Helvetica,sans-Serif" font-size="10.00">pulse_test.cpp</text>
</a>
</g>
</g>
<!-- Node1&#45;&gt;Node4 -->
<g id="edge3" class="edge">
<title>Node1&#45;&gt;Node4</title>
<path fill="none" stroke="midnightblue" d="M271.11,-215.77C276.28,-207.59 282.17,-197.54 286.5,-188 314.65,-125.97 335.12,-45.95 341.44,-19.73"/>
<polygon fill="midnightblue" stroke="midnightblue" points="268.03,-214.07 265.5,-224.36 273.9,-217.9 268.03,-214.07"/>
</g>
<!-- Node5 -->
<g id="node5" class="node">
<title>Node5</title>
<g id="a_node5"><a xlink:href="receiver_8hpp.html" target="_top" xlink:title="Base class for receivers. Demodulators that use pulse audio.">
<polygon fill="none" stroke="black" points="434,-168.5 434,-187.5 511,-187.5 511,-168.5 434,-168.5"/>
<text text-anchor="middle" x="472.5" y="-175.5" font-family="Helvetica,sans-Serif" font-size="10.00">receiver.hpp</text>
</a>
</g>
</g>
<!-- Node1&#45;&gt;Node5 -->
<g id="edge4" class="edge">
<title>Node1&#45;&gt;Node5</title>
<path fill="none" stroke="midnightblue" d="M303.05,-221.96C343.28,-211.76 402.2,-196.82 438.91,-187.52"/>
<polygon fill="midnightblue" stroke="midnightblue" points="302.08,-218.59 293.25,-224.44 303.8,-225.38 302.08,-218.59"/>
</g>
<!-- Node6 -->
<g id="node6" class="node">
<title>Node6</title>
<g id="a_node6"><a xlink:href="afsk_8hpp.html" target="_top" xlink:title="AFSK related modulation/demodulation.">
<polygon fill="none" stroke="black" points="542,-112.5 542,-131.5 601,-131.5 601,-112.5 542,-112.5"/>
<text text-anchor="middle" x="571.5" y="-119.5" font-family="Helvetica,sans-Serif" font-size="10.00">afsk.hpp</text>
</a>
</g>
</g>
<!-- Node5&#45;&gt;Node6 -->
<g id="edge5" class="edge">
<title>Node5&#45;&gt;Node6</title>
<path fill="none" stroke="midnightblue" d="M497.34,-163.45C515.61,-153.48 539.92,-140.23 555.63,-131.65"/>
<polygon fill="midnightblue" stroke="midnightblue" points="495.51,-160.46 488.41,-168.32 498.86,-166.61 495.51,-160.46"/>
</g>
<!-- Node6&#45;&gt;Node4 -->
<g id="edge19" class="edge">
<title>Node6&#45;&gt;Node4</title>
<path fill="none" stroke="midnightblue" d="M531.54,-117.25C477.93,-111.42 386.64,-98.46 362.5,-76 346.49,-61.11 343.71,-33.54 343.39,-19.58"/>
<polygon fill="midnightblue" stroke="midnightblue" points="531.42,-120.75 541.73,-118.32 532.15,-113.79 531.42,-120.75"/>
</g>
<!-- Node7 -->
<g id="node7" class="node">
<title>Node7</title>
<g id="a_node7"><a xlink:href="afsk__demodulator_8cpp.html" target="_top" xlink:title="The AFSK demodulator class implementation.">
<polygon fill="none" stroke="black" points="372,-56.5 372,-75.5 497,-75.5 497,-56.5 372,-56.5"/>
<text text-anchor="middle" x="434.5" y="-63.5" font-family="Helvetica,sans-Serif" font-size="10.00">afsk_demodulator.cpp</text>
</a>
</g>
</g>
<!-- Node6&#45;&gt;Node7 -->
<g id="edge6" class="edge">
<title>Node6&#45;&gt;Node7</title>
<path fill="none" stroke="midnightblue" d="M540.48,-108.77C514.74,-98.63 478.81,-84.47 456.11,-75.52"/>
<polygon fill="midnightblue" stroke="midnightblue" points="539.21,-112.03 549.79,-112.44 541.77,-105.52 539.21,-112.03"/>
</g>
<!-- Node8 -->
<g id="node8" class="node">
<title>Node8</title>
<g id="a_node8"><a xlink:href="afsk__modulator_8cpp.html" target="_top" xlink:title="The AFSK modulator class implementation.">
<polygon fill="none" stroke="black" points="515,-56.5 515,-75.5 628,-75.5 628,-56.5 515,-56.5"/>
<text text-anchor="middle" x="571.5" y="-63.5" font-family="Helvetica,sans-Serif" font-size="10.00">afsk_modulator.cpp</text>
</a>
</g>
</g>
<!-- Node6&#45;&gt;Node8 -->
<g id="edge7" class="edge">
<title>Node6&#45;&gt;Node8</title>
<path fill="none" stroke="midnightblue" d="M571.5,-101.8C571.5,-92.91 571.5,-82.78 571.5,-75.75"/>
<polygon fill="midnightblue" stroke="midnightblue" points="568,-102.08 571.5,-112.08 575,-102.08 568,-102.08"/>
</g>
<!-- Node9 -->
<g id="node9" class="node">
<title>Node9</title>
<g id="a_node9"><a xlink:href="afsk__receiver_8cpp.html" target="_top" xlink:title="Implementation of the AFSK receiver class.">
<polygon fill="none" stroke="black" points="646.5,-56.5 646.5,-75.5 748.5,-75.5 748.5,-56.5 646.5,-56.5"/>
<text text-anchor="middle" x="697.5" y="-63.5" font-family="Helvetica,sans-Serif" font-size="10.00">afsk_receiver.cpp</text>
</a>
</g>
</g>
<!-- Node6&#45;&gt;Node9 -->
<g id="edge8" class="edge">
<title>Node6&#45;&gt;Node9</title>
<path fill="none" stroke="midnightblue" d="M600.66,-108.5C624.28,-98.38 656.93,-84.39 677.63,-75.52"/>
<polygon fill="midnightblue" stroke="midnightblue" points="599.28,-105.29 591.47,-112.44 602.04,-111.72 599.28,-105.29"/>
</g>
<!-- Node10 -->
<g id="node10" class="node">
<title>Node10</title>
<g id="a_node10"><a xlink:href="afsk__test_8cpp.html" target="_top" xlink:title=" ">
<polygon fill="none" stroke="black" points="766.5,-56.5 766.5,-75.5 848.5,-75.5 848.5,-56.5 766.5,-56.5"/>
<text text-anchor="middle" x="807.5" y="-63.5" font-family="Helvetica,sans-Serif" font-size="10.00">afsk_test.cpp</text>
</a>
</g>
</g>
<!-- Node6&#45;&gt;Node10 -->
<g id="edge9" class="edge">
<title>Node6&#45;&gt;Node10</title>
<path fill="none" stroke="midnightblue" d="M611.23,-111.91C655.56,-101.77 726.72,-85.48 770.08,-75.56"/>
<polygon fill="midnightblue" stroke="midnightblue" points="610.36,-108.52 601.39,-114.16 611.92,-115.34 610.36,-108.52"/>
</g>
<!-- Node11 -->
<g id="node11" class="node">
<title>Node11</title>
<g id="a_node11"><a xlink:href="aprs_8hpp.html" target="_top" xlink:title=" ">
<polygon fill="none" stroke="black" points="867,-56.5 867,-75.5 926,-75.5 926,-56.5 867,-56.5"/>
<text text-anchor="middle" x="896.5" y="-63.5" font-family="Helvetica,sans-Serif" font-size="10.00">aprs.hpp</text>
</a>
</g>
</g>
<!-- Node6&#45;&gt;Node11 -->
<g id="edge10" class="edge">
<title>Node6&#45;&gt;Node11</title>
<path fill="none" stroke="midnightblue" d="M611.36,-115.64C666.77,-107.97 770.12,-92.94 857.5,-76 860.5,-75.42 863.62,-74.77 866.74,-74.1"/>
<polygon fill="midnightblue" stroke="midnightblue" points="610.7,-112.19 601.26,-117.02 611.65,-119.13 610.7,-112.19"/>
</g>
<!-- Node11&#45;&gt;Node4 -->
<g id="edge18" class="edge">
<title>Node11&#45;&gt;Node4</title>
<path fill="none" stroke="midnightblue" d="M856.62,-56.13C749.84,-40.43 490.99,-21.37 387.34,-14.05"/>
<polygon fill="midnightblue" stroke="midnightblue" points="856.36,-59.63 866.77,-57.69 857.42,-52.71 856.36,-59.63"/>
</g>
<!-- Node12 -->
<g id="node12" class="node">
<title>Node12</title>
<g id="a_node12"><a xlink:href="aprs_8cpp.html" target="_top" xlink:title="APRS implementation.">
<polygon fill="none" stroke="black" points="495.5,-0.5 495.5,-19.5 553.5,-19.5 553.5,-0.5 495.5,-0.5"/>
<text text-anchor="middle" x="524.5" y="-7.5" font-family="Helvetica,sans-Serif" font-size="10.00">aprs.cpp</text>
</a>
</g>
</g>
<!-- Node11&#45;&gt;Node12 -->
<g id="edge11" class="edge">
<title>Node11&#45;&gt;Node12</title>
<path fill="none" stroke="midnightblue" d="M856.73,-56.05C725.65,-33.59 689.35,-42.69 562.5,-20 559.7,-19.5 556.79,-18.92 553.89,-18.3"/>
<polygon fill="midnightblue" stroke="midnightblue" points="856.3,-59.53 866.76,-57.8 857.5,-52.63 856.3,-59.53"/>
</g>
<!-- Node13 -->
<g id="node13" class="node">
<title>Node13</title>
<g id="a_node13"><a xlink:href="aprs__demodulator_8cpp.html" target="_top" xlink:title="Implementation of the APRS demodulator class.">
<polygon fill="none" stroke="black" points="572,-0.5 572,-19.5 697,-19.5 697,-0.5 572,-0.5"/>
<text text-anchor="middle" x="634.5" y="-7.5" font-family="Helvetica,sans-Serif" font-size="10.00">aprs_demodulator.cpp</text>
</a>
</g>
</g>
<!-- Node11&#45;&gt;Node13 -->
<g id="edge12" class="edge">
<title>Node11&#45;&gt;Node13</title>
<path fill="none" stroke="midnightblue" d="M856.7,-55.87C788.86,-41.27 721.51,-27.9 678.58,-19.52"/>
<polygon fill="midnightblue" stroke="midnightblue" points="856.19,-59.35 866.71,-58.04 857.67,-52.5 856.19,-59.35"/>
</g>
<!-- Node14 -->
<g id="node14" class="node">
<title>Node14</title>
<g id="a_node14"><a xlink:href="aprs__encoders_8cpp.html" target="_top" xlink:title="Encoding functions for APRS packets.">
<polygon fill="none" stroke="black" points="715,-0.5 715,-19.5 822,-19.5 822,-0.5 715,-0.5"/>
<text text-anchor="middle" x="768.5" y="-7.5" font-family="Helvetica,sans-Serif" font-size="10.00">aprs_encoders.cpp</text>
</a>
</g>
</g>
<!-- Node11&#45;&gt;Node14 -->
<g id="edge13" class="edge">
<title>Node11&#45;&gt;Node14</title>
<path fill="none" stroke="midnightblue" d="M866.88,-52.5C842.88,-42.38 809.72,-28.39 788.69,-19.52"/>
<polygon fill="midnightblue" stroke="midnightblue" points="865.64,-55.78 876.22,-56.44 868.36,-49.33 865.64,-55.78"/>
</g>
<!-- Node15 -->
<g id="node15" class="node">
<title>Node15</title>
<g id="a_node15"><a xlink:href="aprs__modulator_8cpp.html" target="_top" xlink:title="Implementation of the APRS modulator class.">
<polygon fill="none" stroke="black" points="840,-0.5 840,-19.5 953,-19.5 953,-0.5 840,-0.5"/>
<text text-anchor="middle" x="896.5" y="-7.5" font-family="Helvetica,sans-Serif" font-size="10.00">aprs_modulator.cpp</text>
</a>
</g>
</g>
<!-- Node11&#45;&gt;Node15 -->
<g id="edge14" class="edge">
<title>Node11&#45;&gt;Node15</title>
<path fill="none" stroke="midnightblue" d="M896.5,-45.8C896.5,-36.91 896.5,-26.78 896.5,-19.75"/>
<polygon fill="midnightblue" stroke="midnightblue" points="893,-46.08 896.5,-56.08 900,-46.08 893,-46.08"/>
</g>
<!-- Node16 -->
<g id="node16" class="node">
<title>Node16</title>
<g id="a_node16"><a xlink:href="aprs__receiver_8cpp.html" target="_top" xlink:title="Implementation of the APRS receiver class.">
<polygon fill="none" stroke="black" points="971.5,-0.5 971.5,-19.5 1073.5,-19.5 1073.5,-0.5 971.5,-0.5"/>
<text text-anchor="middle" x="1022.5" y="-7.5" font-family="Helvetica,sans-Serif" font-size="10.00">aprs_receiver.cpp</text>
</a>
</g>
</g>
<!-- Node11&#45;&gt;Node16 -->
<g id="edge15" class="edge">
<title>Node11&#45;&gt;Node16</title>
<path fill="none" stroke="midnightblue" d="M925.66,-52.5C949.28,-42.38 981.93,-28.39 1002.63,-19.52"/>
<polygon fill="midnightblue" stroke="midnightblue" points="924.28,-49.29 916.47,-56.44 927.04,-55.72 924.28,-49.29"/>
</g>
<!-- Node17 -->
<g id="node17" class="node">
<title>Node17</title>
<g id="a_node17"><a xlink:href="aprs__receiver__test_8cpp.html" target="_top" xlink:title="Integration tests for signal_easel::aprs::Receiver.">
<polygon fill="none" stroke="black" points="1092,-0.5 1092,-19.5 1219,-19.5 1219,-0.5 1092,-0.5"/>
<text text-anchor="middle" x="1155.5" y="-7.5" font-family="Helvetica,sans-Serif" font-size="10.00">aprs_receiver_test.cpp</text>
</a>
</g>
</g>
<!-- Node11&#45;&gt;Node17 -->
<g id="edge16" class="edge">
<title>Node11&#45;&gt;Node17</title>
<path fill="none" stroke="midnightblue" d="M936.3,-56.7C984.67,-46.62 1065.86,-29.69 1114.68,-19.51"/>
<polygon fill="midnightblue" stroke="midnightblue" points="935.29,-53.34 926.21,-58.81 936.71,-60.19 935.29,-53.34"/>
</g>
<!-- Node18 -->
<g id="node18" class="node">
<title>Node18</title>
<g id="a_node18"><a xlink:href="aprs__test_8cpp.html" target="_top" xlink:title=" ">
<polygon fill="none" stroke="black" points="1237.5,-0.5 1237.5,-19.5 1319.5,-19.5 1319.5,-0.5 1237.5,-0.5"/>
<text text-anchor="middle" x="1278.5" y="-7.5" font-family="Helvetica,sans-Serif" font-size="10.00">aprs_test.cpp</text>
</a>
</g>
</g>
<!-- Node11&#45;&gt;Node18 -->
<g id="edge17" class="edge">
<title>Node11&#45;&gt;Node18</title>
<path fill="none" stroke="midnightblue" d="M936.53,-60.14C998.99,-52.44 1123.4,-36.57 1228.5,-20 1231.38,-19.55 1234.34,-19.06 1237.32,-18.56"/>
<polygon fill="midnightblue" stroke="midnightblue" points="935.82,-56.7 926.32,-61.4 936.68,-63.65 935.82,-56.7"/>
</g>
</g>
</svg>
