<?xml version="1.0" encoding="UTF-8" standalone="no"?>
<!DOCTYPE svg PUBLIC "-//W3C//DTD SVG 1.1//EN"
 "http://www.w3.org/Graphics/SVG/1.1/DTD/svg11.dtd">
<!-- Generated by graphviz version 2.43.0 (0)
 -->
<!-- Title: main Pages: 1 -->
<svg width="433pt" height="421pt"
 viewBox="0.00 0.00 433.00 421.00" xmlns="http://www.w3.org/2000/svg" xmlns:xlink="http://www.w3.org/1999/xlink">
<g id="graph0" class="graph" transform="scale(1 1) rotate(0) translate(4 417)">
<title>main</title>
<!-- Node1 -->
<g id="node1" class="node">
<title>Node1</title>
<g id="a_node1"><a xlink:title=" ">
<polygon fill="#bfbfbf" stroke="black" points="0,-192 0,-211 41,-211 41,-192 0,-192"/>
<text text-anchor="middle" x="20.5" y="-199" font-family="Helvetica,sans-Serif" font-size="10.00">main</text>
</a>
</g>
</g>
<!-- Node2 -->
<g id="node2" class="node">
<title>Node2</title>
<g id="a_node2"><a xlink:href="classsignal__easel_1_1DataModulator.html#aadce78b3cb3d4df7d8ab7c446ba29e89" target="_top" xlink:title="Add string data to the audio buffer.">
<polygon fill="none" stroke="black" points="77,-382.5 77,-412.5 233,-412.5 233,-382.5 77,-382.5"/>
<text text-anchor="start" x="85" y="-400.5" font-family="Helvetica,sans-Serif" font-size="10.00">signal_easel::DataModulator</text>
<text text-anchor="middle" x="155" y="-389.5" font-family="Helvetica,sans-Serif" font-size="10.00">::addString</text>
</a>
</g>
</g>
<!-- Node1&#45;&gt;Node2 -->
<g id="edge1" class="edge">
<title>Node1&#45;&gt;Node2</title>
<path fill="none" stroke="midnightblue" d="M21.68,-211.26C22.76,-240.28 29.95,-326.92 77,-373.5 78.09,-374.58 79.22,-375.61 80.4,-376.59"/>
<polygon fill="midnightblue" stroke="midnightblue" points="78.52,-379.54 88.71,-382.43 82.54,-373.82 78.52,-379.54"/>
</g>
<!-- Node4 -->
<g id="node4" class="node">
<title>Node4</title>
<g id="a_node4"><a xlink:href="classsignal__easel_1_1Receiver.html#ad544feeeb5431a5f978d1d7bb59628a1" target="_top" xlink:title=" ">
<polygon fill="none" stroke="black" points="92,-333.5 92,-363.5 218,-363.5 218,-333.5 92,-333.5"/>
<text text-anchor="start" x="100" y="-351.5" font-family="Helvetica,sans-Serif" font-size="10.00">signal_easel::Receiver</text>
<text text-anchor="middle" x="155" y="-340.5" font-family="Helvetica,sans-Serif" font-size="10.00">::getLatency</text>
</a>
</g>
</g>
<!-- Node1&#45;&gt;Node4 -->
<g id="edge3" class="edge">
<title>Node1&#45;&gt;Node4</title>
<path fill="none" stroke="midnightblue" d="M23.07,-211.08C27.36,-234.11 41.39,-292.98 77,-324.5 78.93,-326.21 80.97,-327.79 83.11,-329.26"/>
<polygon fill="midnightblue" stroke="midnightblue" points="81.38,-332.3 91.77,-334.4 84.96,-326.28 81.38,-332.3"/>
</g>
<!-- Node5 -->
<g id="node5" class="node">
<title>Node5</title>
<g id="a_node5"><a xlink:href="classsignal__easel_1_1afsk_1_1Receiver.html#a617516e492ce135884a5072873b9670a" target="_top" xlink:title="Get the SNR regardless of whether a valid signal was detected.">
<polygon fill="none" stroke="black" points="93.5,-284.5 93.5,-314.5 216.5,-314.5 216.5,-284.5 93.5,-284.5"/>
<text text-anchor="start" x="101.5" y="-302.5" font-family="Helvetica,sans-Serif" font-size="10.00">signal_easel::afsk</text>
<text text-anchor="middle" x="155" y="-291.5" font-family="Helvetica,sans-Serif" font-size="10.00">::Receiver::getLiveSnr</text>
</a>
</g>
</g>
<!-- Node1&#45;&gt;Node5 -->
<g id="edge4" class="edge">
<title>Node1&#45;&gt;Node5</title>
<path fill="none" stroke="midnightblue" d="M26.21,-211.21C34.36,-227.02 52.6,-258.27 77,-275.5 79.36,-277.17 81.84,-278.72 84.4,-280.17"/>
<polygon fill="midnightblue" stroke="midnightblue" points="82.89,-283.32 93.4,-284.69 86.04,-277.07 82.89,-283.32"/>
</g>
<!-- Node6 -->
<g id="node6" class="node">
<title>Node6</title>
<g id="a_node6"><a xlink:href="classsignal__easel_1_1aprs_1_1Receiver.html#a2dc9e357b3f334279cee26465f71433c" target="_top" xlink:title=" ">
<polygon fill="none" stroke="black" points="101.5,-235.5 101.5,-265.5 208.5,-265.5 208.5,-235.5 101.5,-235.5"/>
<text text-anchor="start" x="109.5" y="-253.5" font-family="Helvetica,sans-Serif" font-size="10.00">signal_easel::aprs</text>
<text text-anchor="middle" x="155" y="-242.5" font-family="Helvetica,sans-Serif" font-size="10.00">::Receiver::getSNR</text>
</a>
</g>
</g>
<!-- Node1&#45;&gt;Node6 -->
<g id="edge5" class="edge">
<title>Node1&#45;&gt;Node6</title>
<path fill="none" stroke="midnightblue" d="M41.03,-211C51.56,-215.94 64.85,-221.89 77,-226.5 82.15,-228.46 87.55,-230.38 92.98,-232.23"/>
<polygon fill="midnightblue" stroke="midnightblue" points="92.16,-235.65 102.76,-235.48 94.37,-229.01 92.16,-235.65"/>
</g>
<!-- Node7 -->
<g id="node7" class="node">
<title>Node7</title>
<g id="a_node7"><a xlink:href="classsignal__easel_1_1aprs_1_1Receiver.html#a8aa6795f2c030716f18264be70fc0f88" target="_top" xlink:title=" ">
<polygon fill="none" stroke="black" points="99,-186.5 99,-216.5 211,-216.5 211,-186.5 99,-186.5"/>
<text text-anchor="start" x="107" y="-204.5" font-family="Helvetica,sans-Serif" font-size="10.00">signal_easel::aprs</text>
<text text-anchor="middle" x="155" y="-193.5" font-family="Helvetica,sans-Serif" font-size="10.00">::Receiver::getStats</text>
</a>
</g>
</g>
<!-- Node1&#45;&gt;Node7 -->
<g id="edge6" class="edge">
<title>Node1&#45;&gt;Node7</title>
<path fill="none" stroke="midnightblue" d="M41.05,-201.5C53.81,-201.5 71.27,-201.5 88.64,-201.5"/>
<polygon fill="midnightblue" stroke="midnightblue" points="88.83,-205 98.83,-201.5 88.83,-198 88.83,-205"/>
</g>
<!-- Node8 -->
<g id="node8" class="node">
<title>Node8</title>
<g id="a_node8"><a xlink:href="classsignal__easel_1_1Receiver.html#a5bda553f48b26f8ad7f4f2eff525a9fa" target="_top" xlink:title=" ">
<polygon fill="none" stroke="black" points="92,-137.5 92,-167.5 218,-167.5 218,-137.5 92,-137.5"/>
<text text-anchor="start" x="100" y="-155.5" font-family="Helvetica,sans-Serif" font-size="10.00">signal_easel::Receiver</text>
<text text-anchor="middle" x="155" y="-144.5" font-family="Helvetica,sans-Serif" font-size="10.00">::getVolume</text>
</a>
</g>
</g>
<!-- Node1&#45;&gt;Node8 -->
<g id="edge7" class="edge">
<title>Node1&#45;&gt;Node8</title>
<path fill="none" stroke="midnightblue" d="M41.09,-192.49C51.64,-187.78 64.92,-182.06 77,-177.5 82.95,-175.25 89.21,-173.02 95.48,-170.86"/>
<polygon fill="midnightblue" stroke="midnightblue" points="96.93,-174.06 105.29,-167.55 94.7,-167.43 96.93,-174.06"/>
</g>
<!-- Node9 -->
<g id="node9" class="node">
<title>Node9</title>
<g id="a_node9"><a xlink:href="pulse__test_8cpp.html#add29668fcfe6c195c5a8a7be8fe37a36" target="_top" xlink:title=" ">
<polygon fill="none" stroke="black" points="109,-99 109,-118 201,-118 201,-99 109,-99"/>
<text text-anchor="middle" x="155" y="-106" font-family="Helvetica,sans-Serif" font-size="10.00">printVolumeBar</text>
</a>
</g>
</g>
<!-- Node1&#45;&gt;Node9 -->
<g id="edge8" class="edge">
<title>Node1&#45;&gt;Node9</title>
<path fill="none" stroke="midnightblue" d="M26.15,-191.79C34.22,-176.01 52.35,-144.91 77,-128.5 83.63,-124.09 91.18,-120.65 98.89,-117.97"/>
<polygon fill="midnightblue" stroke="midnightblue" points="100.17,-121.24 108.7,-114.96 98.12,-114.54 100.17,-121.24"/>
</g>
<!-- Node10 -->
<g id="node10" class="node">
<title>Node10</title>
<g id="a_node10"><a xlink:href="classsignal__easel_1_1afsk_1_1Receiver.html#aaf047fb76c3792173b5b2b46c5167481" target="_top" xlink:title="Returns true if there was enough data to process.">
<polygon fill="none" stroke="black" points="100.5,-49.5 100.5,-79.5 209.5,-79.5 209.5,-49.5 100.5,-49.5"/>
<text text-anchor="start" x="108.5" y="-67.5" font-family="Helvetica,sans-Serif" font-size="10.00">signal_easel::afsk</text>
<text text-anchor="middle" x="155" y="-56.5" font-family="Helvetica,sans-Serif" font-size="10.00">::Receiver::process</text>
</a>
</g>
</g>
<!-- Node1&#45;&gt;Node10 -->
<g id="edge9" class="edge">
<title>Node1&#45;&gt;Node10</title>
<path fill="none" stroke="midnightblue" d="M23.59,-191.84C28.75,-170.27 44.15,-117.87 77,-89.5 81.19,-85.88 85.91,-82.79 90.9,-80.14"/>
<polygon fill="midnightblue" stroke="midnightblue" points="92.54,-83.24 100.12,-75.83 89.58,-76.89 92.54,-83.24"/>
</g>
<!-- Node12 -->
<g id="node12" class="node">
<title>Node12</title>
<g id="a_node12"><a xlink:href="classsignal__easel_1_1Modulator.html#ae1cf54c8f962ca1920f79b75f96b20be" target="_top" xlink:title="Write the audio to the default PulseAudio output device.">
<polygon fill="none" stroke="black" points="88.5,-0.5 88.5,-30.5 221.5,-30.5 221.5,-0.5 88.5,-0.5"/>
<text text-anchor="start" x="96.5" y="-18.5" font-family="Helvetica,sans-Serif" font-size="10.00">signal_easel::Modulator</text>
<text text-anchor="middle" x="155" y="-7.5" font-family="Helvetica,sans-Serif" font-size="10.00">::writeToPulseAudio</text>
</a>
</g>
</g>
<!-- Node1&#45;&gt;Node12 -->
<g id="edge11" class="edge">
<title>Node1&#45;&gt;Node12</title>
<path fill="none" stroke="midnightblue" d="M21.9,-191.9C23.57,-164.15 32.24,-83.03 77,-39.5 78.1,-38.43 79.24,-37.41 80.43,-36.44"/>
<polygon fill="midnightblue" stroke="midnightblue" points="82.56,-39.22 88.78,-30.64 78.57,-33.47 82.56,-39.22"/>
</g>
<!-- Node3 -->
<g id="node3" class="node">
<title>Node3</title>
<g id="a_node3"><a xlink:href="classsignal__easel_1_1DataModulator.html#add44309f9d9a2bcc1afd4a8eefc8839f" target="_top" xlink:title="This is overridden by the child classes to encode the data that is passed in by addBytes and addStrin...">
<polygon fill="none" stroke="black" points="269,-382.5 269,-412.5 425,-412.5 425,-382.5 269,-382.5"/>
<text text-anchor="start" x="277" y="-400.5" font-family="Helvetica,sans-Serif" font-size="10.00">signal_easel::DataModulator</text>
<text text-anchor="middle" x="347" y="-389.5" font-family="Helvetica,sans-Serif" font-size="10.00">::encodeBytes</text>
</a>
</g>
</g>
<!-- Node2&#45;&gt;Node3 -->
<g id="edge2" class="edge">
<title>Node2&#45;&gt;Node3</title>
<path fill="none" stroke="midnightblue" d="M233.01,-397.5C241.51,-397.5 250.21,-397.5 258.83,-397.5"/>
<polygon fill="midnightblue" stroke="midnightblue" points="258.88,-401 268.88,-397.5 258.88,-394 258.88,-401"/>
</g>
<!-- Node11 -->
<g id="node11" class="node">
<title>Node11</title>
<g id="a_node11"><a xlink:href="classsignal__easel_1_1afsk_1_1Receiver.html#a516bafcdb924ea09c44233dcca6069c3" target="_top" xlink:title=" ">
<polygon fill="none" stroke="black" points="281,-49.5 281,-79.5 413,-79.5 413,-49.5 281,-49.5"/>
<text text-anchor="start" x="289" y="-67.5" font-family="Helvetica,sans-Serif" font-size="10.00">signal_easel::afsk</text>
<text text-anchor="middle" x="347" y="-56.5" font-family="Helvetica,sans-Serif" font-size="10.00">::Receiver::detectSignal</text>
</a>
</g>
</g>
<!-- Node10&#45;&gt;Node11 -->
<g id="edge10" class="edge">
<title>Node10&#45;&gt;Node11</title>
<path fill="none" stroke="midnightblue" d="M209.68,-64.5C228.65,-64.5 250.34,-64.5 270.76,-64.5"/>
<polygon fill="midnightblue" stroke="midnightblue" points="270.98,-68 280.98,-64.5 270.98,-61 270.98,-68"/>
</g>
</g>
</svg>
