<?xml version="1.0" encoding="UTF-8" standalone="no"?>
<!DOCTYPE svg PUBLIC "-//W3C//DTD SVG 1.1//EN"
 "http://www.w3.org/Graphics/SVG/1.1/DTD/svg11.dtd">
<!-- Generated by graphviz version 2.43.0 (0)
 -->
<!-- Title: pulse_test.cpp Pages: 1 -->
<svg width="1575pt" height="397pt"
 viewBox="0.00 0.00 1575.00 397.00" xmlns="http://www.w3.org/2000/svg" xmlns:xlink="http://www.w3.org/1999/xlink">
<g id="graph0" class="graph" transform="scale(1 1) rotate(0) translate(4 393)">
<title>pulse_test.cpp</title>
<!-- Node1 -->
<g id="node1" class="node">
<title>Node1</title>
<g id="a_node1"><a xlink:title="PulseAudio output test. Does not use gtest.">
<polygon fill="#bfbfbf" stroke="black" points="1055.5,-369.5 1055.5,-388.5 1142.5,-388.5 1142.5,-369.5 1055.5,-369.5"/>
<text text-anchor="middle" x="1099" y="-376.5" font-family="Helvetica,sans-Serif" font-size="10.00">pulse_test.cpp</text>
</a>
</g>
</g>
<!-- Node2 -->
<g id="node2" class="node">
<title>Node2</title>
<g id="a_node2"><a xlink:href="afsk_8hpp.html" target="_top" xlink:title="AFSK related modulation/demodulation.">
<polygon fill="none" stroke="black" points="556,-252 556,-271 674,-271 674,-252 556,-252"/>
<text text-anchor="middle" x="615" y="-259" font-family="Helvetica,sans-Serif" font-size="10.00">SignalEasel/afsk.hpp</text>
</a>
</g>
</g>
<!-- Node1&#45;&gt;Node2 -->
<g id="edge1" class="edge">
<title>Node1&#45;&gt;Node2</title>
<path fill="none" stroke="midnightblue" d="M1063.02,-369.41C976.46,-348.76 756.7,-296.31 660.86,-273.44"/>
<polygon fill="midnightblue" stroke="midnightblue" points="661.43,-269.98 650.89,-271.06 659.81,-276.79 661.43,-269.98"/>
</g>
<!-- Node13 -->
<g id="node13" class="node">
<title>Node13</title>
<g id="a_node13"><a xlink:href="pulse__audio_8hpp.html" target="_top" xlink:title="Reads audio from pulse audio.">
<polygon fill="none" stroke="black" points="123.5,-118 123.5,-137 278.5,-137 278.5,-118 123.5,-118"/>
<text text-anchor="middle" x="201" y="-125" font-family="Helvetica,sans-Serif" font-size="10.00">SignalEasel/pulse_audio.hpp</text>
</a>
</g>
</g>
<!-- Node1&#45;&gt;Node13 -->
<g id="edge54" class="edge">
<title>Node1&#45;&gt;Node13</title>
<path fill="none" stroke="midnightblue" d="M1055.16,-370.99C1000.86,-362.27 905.56,-346.84 824,-333 512.57,-280.16 327.11,-451.92 124,-210 102.99,-184.98 142.63,-157.74 172.42,-141.94"/>
<polygon fill="midnightblue" stroke="midnightblue" points="174.34,-144.89 181.65,-137.23 171.16,-138.65 174.34,-144.89"/>
</g>
<!-- Node17 -->
<g id="node17" class="node">
<title>Node17</title>
<g id="a_node17"><a xlink:href="aprs_8hpp.html" target="_top" xlink:title=" ">
<polygon fill="none" stroke="black" points="1040,-313.5 1040,-332.5 1158,-332.5 1158,-313.5 1040,-313.5"/>
<text text-anchor="middle" x="1099" y="-320.5" font-family="Helvetica,sans-Serif" font-size="10.00">SignalEasel/aprs.hpp</text>
</a>
</g>
</g>
<!-- Node1&#45;&gt;Node17 -->
<g id="edge26" class="edge">
<title>Node1&#45;&gt;Node17</title>
<path fill="none" stroke="midnightblue" d="M1099,-369.08C1099,-362.01 1099,-351.86 1099,-342.99"/>
<polygon fill="midnightblue" stroke="midnightblue" points="1102.5,-342.75 1099,-332.75 1095.5,-342.75 1102.5,-342.75"/>
</g>
<!-- Node26 -->
<g id="node26" class="node">
<title>Node26</title>
<g id="a_node26"><a xlink:title=" ">
<polygon fill="none" stroke="#bfbfbf" points="983,-185 983,-204 1043,-204 1043,-185 983,-185"/>
<text text-anchor="middle" x="1013" y="-192" font-family="Helvetica,sans-Serif" font-size="10.00">iostream</text>
</a>
</g>
</g>
<!-- Node1&#45;&gt;Node26 -->
<g id="edge57" class="edge">
<title>Node1&#45;&gt;Node26</title>
<path fill="none" stroke="midnightblue" d="M1077.22,-369.47C1061.68,-362.2 1041.72,-350.17 1031,-333 1007.8,-295.85 1008.48,-242.06 1010.82,-214.04"/>
<polygon fill="midnightblue" stroke="midnightblue" points="1014.31,-214.34 1011.82,-204.04 1007.35,-213.64 1014.31,-214.34"/>
</g>
<!-- Node27 -->
<g id="node27" class="node">
<title>Node27</title>
<g id="a_node27"><a xlink:title=" ">
<polygon fill="none" stroke="#bfbfbf" points="1176.5,-313.5 1176.5,-332.5 1223.5,-332.5 1223.5,-313.5 1176.5,-313.5"/>
<text text-anchor="middle" x="1200" y="-320.5" font-family="Helvetica,sans-Serif" font-size="10.00">cmath</text>
</a>
</g>
</g>
<!-- Node1&#45;&gt;Node27 -->
<g id="edge55" class="edge">
<title>Node1&#45;&gt;Node27</title>
<path fill="none" stroke="midnightblue" d="M1115.23,-369.32C1131.35,-360.7 1156.3,-347.36 1174.96,-337.39"/>
<polygon fill="midnightblue" stroke="midnightblue" points="1176.64,-340.46 1183.81,-332.65 1173.34,-334.28 1176.64,-340.46"/>
</g>
<!-- Node28 -->
<g id="node28" class="node">
<title>Node28</title>
<g id="a_node28"><a xlink:title=" ">
<polygon fill="none" stroke="#bfbfbf" points="1242,-313.5 1242,-332.5 1298,-332.5 1298,-313.5 1242,-313.5"/>
<text text-anchor="middle" x="1270" y="-320.5" font-family="Helvetica,sans-Serif" font-size="10.00">iomanip</text>
</a>
</g>
</g>
<!-- Node1&#45;&gt;Node28 -->
<g id="edge56" class="edge">
<title>Node1&#45;&gt;Node28</title>
<path fill="none" stroke="midnightblue" d="M1126.1,-369.44C1154.99,-360.32 1200.92,-345.81 1233.11,-335.65"/>
<polygon fill="midnightblue" stroke="midnightblue" points="1234.55,-338.87 1243.03,-332.52 1232.44,-332.19 1234.55,-338.87"/>
</g>
<!-- Node29 -->
<g id="node29" class="node">
<title>Node29</title>
<g id="a_node29"><a xlink:title=" ">
<polygon fill="none" stroke="#bfbfbf" points="1316,-313.5 1316,-332.5 1372,-332.5 1372,-313.5 1316,-313.5"/>
<text text-anchor="middle" x="1344" y="-320.5" font-family="Helvetica,sans-Serif" font-size="10.00">unistd.h</text>
</a>
</g>
</g>
<!-- Node1&#45;&gt;Node29 -->
<g id="edge58" class="edge">
<title>Node1&#45;&gt;Node29</title>
<path fill="none" stroke="midnightblue" d="M1140.11,-369.43C1179.99,-361.04 1242.46,-347.72 1305.6,-333.28"/>
<polygon fill="midnightblue" stroke="midnightblue" points="1306.77,-336.6 1315.74,-330.95 1305.21,-329.78 1306.77,-336.6"/>
</g>
<!-- Node3 -->
<g id="node3" class="node">
<title>Node3</title>
<g id="a_node3"><a xlink:title=" ">
<polygon fill="none" stroke="#bfbfbf" points="803.5,-118 803.5,-137 850.5,-137 850.5,-118 803.5,-118"/>
<text text-anchor="middle" x="827" y="-125" font-family="Helvetica,sans-Serif" font-size="10.00">vector</text>
</a>
</g>
</g>
<!-- Node2&#45;&gt;Node3 -->
<g id="edge2" class="edge">
<title>Node2&#45;&gt;Node3</title>
<path fill="none" stroke="midnightblue" d="M674.39,-254.61C709.82,-248.45 753.82,-235.83 785,-210 804.88,-193.53 816.43,-165.22 822.22,-146.68"/>
<polygon fill="midnightblue" stroke="midnightblue" points="825.59,-147.64 824.99,-137.06 818.86,-145.7 825.59,-147.64"/>
</g>
<!-- Node4 -->
<g id="node4" class="node">
<title>Node4</title>
<g id="a_node4"><a xlink:href="constants_8hpp.html" target="_top" xlink:title="Common constants used throughout the library.">
<polygon fill="none" stroke="black" points="0,-56.5 0,-75.5 144,-75.5 144,-56.5 0,-56.5"/>
<text text-anchor="middle" x="72" y="-63.5" font-family="Helvetica,sans-Serif" font-size="10.00">SignalEasel/constants.hpp</text>
</a>
</g>
</g>
<!-- Node2&#45;&gt;Node4 -->
<g id="edge3" class="edge">
<title>Node2&#45;&gt;Node4</title>
<path fill="none" stroke="midnightblue" d="M555.96,-257.91C432.88,-252.03 157.45,-236.08 124,-210 85.02,-179.61 75.24,-117.26 72.8,-85.9"/>
<polygon fill="midnightblue" stroke="midnightblue" points="76.27,-85.3 72.18,-75.53 69.29,-85.72 76.27,-85.3"/>
</g>
<!-- Node6 -->
<g id="node6" class="node">
<title>Node6</title>
<g id="a_node6"><a xlink:href="bit__stream_8hpp.html" target="_top" xlink:title="The bit stream class.">
<polygon fill="none" stroke="black" points="626.5,-185 626.5,-204 775.5,-204 775.5,-185 626.5,-185"/>
<text text-anchor="middle" x="701" y="-192" font-family="Helvetica,sans-Serif" font-size="10.00">SignalEasel/bit_stream.hpp</text>
</a>
</g>
</g>
<!-- Node2&#45;&gt;Node6 -->
<g id="edge5" class="edge">
<title>Node2&#45;&gt;Node6</title>
<path fill="none" stroke="midnightblue" d="M626.6,-251.73C640.65,-241.11 664.55,-223.05 681.47,-210.26"/>
<polygon fill="midnightblue" stroke="midnightblue" points="683.72,-212.95 689.59,-204.13 679.5,-207.36 683.72,-212.95"/>
</g>
<!-- Node7 -->
<g id="node7" class="node">
<title>Node7</title>
<g id="a_node7"><a xlink:href="demodulator_8hpp.html" target="_top" xlink:title="Base class for demodulators.">
<polygon fill="none" stroke="black" points="451,-185 451,-204 609,-204 609,-185 451,-185"/>
<text text-anchor="middle" x="530" y="-192" font-family="Helvetica,sans-Serif" font-size="10.00">SignalEasel/demodulator.hpp</text>
</a>
</g>
</g>
<!-- Node2&#45;&gt;Node7 -->
<g id="edge8" class="edge">
<title>Node2&#45;&gt;Node7</title>
<path fill="none" stroke="midnightblue" d="M603.54,-251.73C589.64,-241.11 566.02,-223.05 549.31,-210.26"/>
<polygon fill="midnightblue" stroke="midnightblue" points="551.35,-207.42 541.28,-204.13 547.1,-212.98 551.35,-207.42"/>
</g>
<!-- Node10 -->
<g id="node10" class="node">
<title>Node10</title>
<g id="a_node10"><a xlink:href="modulator_8hpp.html" target="_top" xlink:title="Modulator base class.">
<polygon fill="none" stroke="black" points="287,-185 287,-204 433,-204 433,-185 287,-185"/>
<text text-anchor="middle" x="360" y="-192" font-family="Helvetica,sans-Serif" font-size="10.00">SignalEasel/modulator.hpp</text>
</a>
</g>
</g>
<!-- Node2&#45;&gt;Node10 -->
<g id="edge13" class="edge">
<title>Node2&#45;&gt;Node10</title>
<path fill="none" stroke="midnightblue" d="M581.4,-251.94C535.73,-240.29 453.97,-219.45 403.61,-206.62"/>
<polygon fill="midnightblue" stroke="midnightblue" points="404.23,-203.16 393.67,-204.08 402.5,-209.95 404.23,-203.16"/>
</g>
<!-- Node11 -->
<g id="node11" class="node">
<title>Node11</title>
<g id="a_node11"><a xlink:href="receiver_8hpp.html" target="_top" xlink:title="Base class for receivers. Demodulators that use pulse audio.">
<polygon fill="none" stroke="black" points="133,-185 133,-204 269,-204 269,-185 133,-185"/>
<text text-anchor="middle" x="201" y="-192" font-family="Helvetica,sans-Serif" font-size="10.00">SignalEasel/receiver.hpp</text>
</a>
</g>
</g>
<!-- Node2&#45;&gt;Node11 -->
<g id="edge17" class="edge">
<title>Node2&#45;&gt;Node11</title>
<path fill="none" stroke="midnightblue" d="M555.84,-252.32C488.46,-242.84 375.12,-226.42 278,-210 270.54,-208.74 262.69,-207.34 254.96,-205.93"/>
<polygon fill="midnightblue" stroke="midnightblue" points="255.4,-202.45 244.93,-204.07 254.12,-209.33 255.4,-202.45"/>
</g>
<!-- Node5 -->
<g id="node5" class="node">
<title>Node5</title>
<g id="a_node5"><a xlink:title=" ">
<polygon fill="none" stroke="#bfbfbf" points="830,-0.5 830,-19.5 880,-19.5 880,-0.5 830,-0.5"/>
<text text-anchor="middle" x="855" y="-7.5" font-family="Helvetica,sans-Serif" font-size="10.00">cstdint</text>
</a>
</g>
</g>
<!-- Node4&#45;&gt;Node5 -->
<g id="edge4" class="edge">
<title>Node4&#45;&gt;Node5</title>
<path fill="none" stroke="midnightblue" d="M144.41,-56.79C147.31,-56.51 150.18,-56.25 153,-56 408.27,-33.65 716.68,-17.71 819.64,-12.68"/>
<polygon fill="midnightblue" stroke="midnightblue" points="819.97,-16.17 829.78,-12.19 819.63,-9.18 819.97,-16.17"/>
</g>
<!-- Node6&#45;&gt;Node3 -->
<g id="edge7" class="edge">
<title>Node6&#45;&gt;Node3</title>
<path fill="none" stroke="midnightblue" d="M717.73,-184.87C739.1,-173.84 776.3,-154.66 801.28,-141.77"/>
<polygon fill="midnightblue" stroke="midnightblue" points="802.92,-144.86 810.2,-137.17 799.71,-138.64 802.92,-144.86"/>
</g>
<!-- Node6&#45;&gt;Node5 -->
<g id="edge6" class="edge">
<title>Node6&#45;&gt;Node5</title>
<path fill="none" stroke="midnightblue" d="M708.43,-184.7C732.57,-156.09 809.08,-65.41 840.91,-27.7"/>
<polygon fill="midnightblue" stroke="midnightblue" points="843.87,-29.61 847.65,-19.71 838.52,-25.1 843.87,-29.61"/>
</g>
<!-- Node7&#45;&gt;Node3 -->
<g id="edge10" class="edge">
<title>Node7&#45;&gt;Node3</title>
<path fill="none" stroke="midnightblue" d="M578.99,-184.99C642.66,-173.74 750.29,-154.07 789,-143 791.58,-142.26 794.24,-141.42 796.89,-140.53"/>
<polygon fill="midnightblue" stroke="midnightblue" points="798.09,-143.81 806.31,-137.13 795.72,-137.23 798.09,-143.81"/>
</g>
<!-- Node8 -->
<g id="node8" class="node">
<title>Node8</title>
<g id="a_node8"><a xlink:title=" ">
<polygon fill="none" stroke="#bfbfbf" points="1125,-0.5 1125,-19.5 1169,-19.5 1169,-0.5 1125,-0.5"/>
<text text-anchor="middle" x="1147" y="-7.5" font-family="Helvetica,sans-Serif" font-size="10.00">string</text>
</a>
</g>
</g>
<!-- Node7&#45;&gt;Node8 -->
<g id="edge9" class="edge">
<title>Node7&#45;&gt;Node8</title>
<path fill="none" stroke="midnightblue" d="M550.34,-184.9C606.8,-161.3 770.6,-94.73 912,-56 983.36,-36.45 1069.19,-22.32 1114.8,-15.53"/>
<polygon fill="midnightblue" stroke="midnightblue" points="1115.32,-18.99 1124.7,-14.08 1114.3,-12.07 1115.32,-18.99"/>
</g>
<!-- Node9 -->
<g id="node9" class="node">
<title>Node9</title>
<g id="a_node9"><a xlink:href="settings_8hpp.html" target="_top" xlink:title="Settings structures for SignalEasel.">
<polygon fill="none" stroke="black" points="449,-118 449,-137 585,-137 585,-118 449,-118"/>
<text text-anchor="middle" x="517" y="-125" font-family="Helvetica,sans-Serif" font-size="10.00">SignalEasel/settings.hpp</text>
</a>
</g>
</g>
<!-- Node7&#45;&gt;Node9 -->
<g id="edge11" class="edge">
<title>Node7&#45;&gt;Node9</title>
<path fill="none" stroke="midnightblue" d="M528.25,-184.73C526.34,-175.18 523.22,-159.62 520.76,-147.28"/>
<polygon fill="midnightblue" stroke="midnightblue" points="524.12,-146.25 518.73,-137.13 517.25,-147.62 524.12,-146.25"/>
</g>
<!-- Node9&#45;&gt;Node8 -->
<g id="edge12" class="edge">
<title>Node9&#45;&gt;Node8</title>
<path fill="none" stroke="midnightblue" d="M559.01,-117.95C626.41,-104.32 762.92,-77.05 879,-56 963.95,-40.6 1064.38,-24.22 1114.76,-16.14"/>
<polygon fill="midnightblue" stroke="midnightblue" points="1115.41,-19.58 1124.73,-14.54 1114.3,-12.66 1115.41,-19.58"/>
</g>
<!-- Node10&#45;&gt;Node3 -->
<g id="edge15" class="edge">
<title>Node10&#45;&gt;Node3</title>
<path fill="none" stroke="midnightblue" d="M406.34,-184.93C417.97,-182.89 430.43,-180.78 442,-179 571.34,-159.09 725.89,-140.34 793.06,-132.44"/>
<polygon fill="midnightblue" stroke="midnightblue" points="793.54,-135.9 803.07,-131.26 792.73,-128.95 793.54,-135.9"/>
</g>
<!-- Node10&#45;&gt;Node5 -->
<g id="edge14" class="edge">
<title>Node10&#45;&gt;Node5</title>
<path fill="none" stroke="midnightblue" d="M365.92,-184.82C377.86,-168.01 406.56,-131 440,-112 567.2,-39.73 744.83,-18.86 819.61,-13.1"/>
<polygon fill="midnightblue" stroke="midnightblue" points="820.16,-16.57 829.88,-12.35 819.65,-9.58 820.16,-16.57"/>
</g>
<!-- Node10&#45;&gt;Node9 -->
<g id="edge16" class="edge">
<title>Node10&#45;&gt;Node9</title>
<path fill="none" stroke="midnightblue" d="M380.85,-184.87C407.94,-173.65 455.46,-153.98 486.58,-141.09"/>
<polygon fill="midnightblue" stroke="midnightblue" points="488.16,-144.23 496.07,-137.17 485.49,-137.76 488.16,-144.23"/>
</g>
<!-- Node11&#45;&gt;Node9 -->
<g id="edge25" class="edge">
<title>Node11&#45;&gt;Node9</title>
<path fill="none" stroke="midnightblue" d="M242.64,-184.94C300.03,-173.13 403.38,-151.87 465.54,-139.09"/>
<polygon fill="midnightblue" stroke="midnightblue" points="466.43,-142.47 475.52,-137.03 465.02,-135.62 466.43,-142.47"/>
</g>
<!-- Node12 -->
<g id="node12" class="node">
<title>Node12</title>
<g id="a_node12"><a xlink:title=" ">
<polygon fill="none" stroke="#bfbfbf" points="297,-118 297,-137 355,-137 355,-118 297,-118"/>
<text text-anchor="middle" x="326" y="-125" font-family="Helvetica,sans-Serif" font-size="10.00">memory</text>
</a>
</g>
</g>
<!-- Node11&#45;&gt;Node12 -->
<g id="edge18" class="edge">
<title>Node11&#45;&gt;Node12</title>
<path fill="none" stroke="midnightblue" d="M217.6,-184.87C238.71,-173.89 275.38,-154.82 300.16,-141.94"/>
<polygon fill="midnightblue" stroke="midnightblue" points="302.07,-144.89 309.33,-137.17 298.85,-138.68 302.07,-144.89"/>
</g>
<!-- Node11&#45;&gt;Node13 -->
<g id="edge19" class="edge">
<title>Node11&#45;&gt;Node13</title>
<path fill="none" stroke="midnightblue" d="M201,-184.73C201,-175.18 201,-159.62 201,-147.28"/>
<polygon fill="midnightblue" stroke="midnightblue" points="204.5,-147.13 201,-137.13 197.5,-147.13 204.5,-147.13"/>
</g>
<!-- Node13&#45;&gt;Node4 -->
<g id="edge22" class="edge">
<title>Node13&#45;&gt;Node4</title>
<path fill="none" stroke="midnightblue" d="M182.52,-117.98C160.87,-107.99 124.79,-91.35 99.77,-79.81"/>
<polygon fill="midnightblue" stroke="midnightblue" points="100.99,-76.52 90.45,-75.51 98.06,-82.88 100.99,-76.52"/>
</g>
<!-- Node13&#45;&gt;Node8 -->
<g id="edge21" class="edge">
<title>Node13&#45;&gt;Node8</title>
<path fill="none" stroke="midnightblue" d="M249.71,-117.96C262.17,-115.89 275.57,-113.77 288,-112 609.53,-66.33 1000.87,-25.74 1114.59,-14.24"/>
<polygon fill="midnightblue" stroke="midnightblue" points="1115.12,-17.71 1124.72,-13.22 1114.42,-10.74 1115.12,-17.71"/>
</g>
<!-- Node14 -->
<g id="node14" class="node">
<title>Node14</title>
<g id="a_node14"><a xlink:title=" ">
<polygon fill="none" stroke="#bfbfbf" points="921,-56.5 921,-75.5 963,-75.5 963,-56.5 921,-56.5"/>
<text text-anchor="middle" x="942" y="-63.5" font-family="Helvetica,sans-Serif" font-size="10.00">array</text>
</a>
</g>
</g>
<!-- Node13&#45;&gt;Node14 -->
<g id="edge20" class="edge">
<title>Node13&#45;&gt;Node14</title>
<path fill="none" stroke="midnightblue" d="M246.94,-117.99C260.15,-115.78 274.62,-113.57 288,-112 411.05,-97.55 797.86,-75.13 910.77,-68.75"/>
<polygon fill="midnightblue" stroke="midnightblue" points="911.03,-72.24 920.82,-68.18 910.64,-65.25 911.03,-72.24"/>
</g>
<!-- Node15 -->
<g id="node15" class="node">
<title>Node15</title>
<g id="a_node15"><a xlink:title=" ">
<polygon fill="none" stroke="#bfbfbf" points="162.5,-56.5 162.5,-75.5 239.5,-75.5 239.5,-56.5 162.5,-56.5"/>
<text text-anchor="middle" x="201" y="-63.5" font-family="Helvetica,sans-Serif" font-size="10.00">pulse/error.h</text>
</a>
</g>
</g>
<!-- Node13&#45;&gt;Node15 -->
<g id="edge23" class="edge">
<title>Node13&#45;&gt;Node15</title>
<path fill="none" stroke="midnightblue" d="M201,-117.98C201,-109.58 201,-96.48 201,-85.66"/>
<polygon fill="midnightblue" stroke="midnightblue" points="204.5,-85.51 201,-75.51 197.5,-85.51 204.5,-85.51"/>
</g>
<!-- Node16 -->
<g id="node16" class="node">
<title>Node16</title>
<g id="a_node16"><a xlink:title=" ">
<polygon fill="none" stroke="#bfbfbf" points="258,-56.5 258,-75.5 346,-75.5 346,-56.5 258,-56.5"/>
<text text-anchor="middle" x="302" y="-63.5" font-family="Helvetica,sans-Serif" font-size="10.00">pulse/simple.h</text>
</a>
</g>
</g>
<!-- Node13&#45;&gt;Node16 -->
<g id="edge24" class="edge">
<title>Node13&#45;&gt;Node16</title>
<path fill="none" stroke="midnightblue" d="M215.47,-117.98C231.97,-108.25 259.18,-92.23 278.68,-80.74"/>
<polygon fill="midnightblue" stroke="midnightblue" points="280.72,-83.6 287.56,-75.51 277.16,-77.57 280.72,-83.6"/>
</g>
<!-- Node17&#45;&gt;Node2 -->
<g id="edge30" class="edge">
<title>Node17&#45;&gt;Node2</title>
<path fill="none" stroke="midnightblue" d="M1039.65,-314.7C949.78,-303.66 779.56,-282.73 684.19,-271.01"/>
<polygon fill="midnightblue" stroke="midnightblue" points="684.43,-267.51 674.08,-269.76 683.57,-274.46 684.43,-267.51"/>
</g>
<!-- Node17&#45;&gt;Node5 -->
<g id="edge27" class="edge">
<title>Node17&#45;&gt;Node5</title>
<path fill="none" stroke="midnightblue" d="M1097.63,-313.46C1091.23,-276.36 1060.69,-127.81 972,-56 948.07,-36.62 914.84,-24.92 889.91,-18.32"/>
<polygon fill="midnightblue" stroke="midnightblue" points="890.68,-14.91 880.13,-15.88 888.98,-21.7 890.68,-14.91"/>
</g>
<!-- Node17&#45;&gt;Node8 -->
<g id="edge28" class="edge">
<title>Node17&#45;&gt;Node8</title>
<path fill="none" stroke="midnightblue" d="M1158.09,-314.23C1161.44,-313.81 1164.76,-313.4 1168,-313 1306.99,-295.94 1354.1,-336.2 1481,-277 1528.72,-254.74 1567,-248.16 1567,-195.5 1567,-195.5 1567,-195.5 1567,-126.5 1567,-40.58 1469.59,-79.69 1387,-56 1314.04,-35.07 1225.73,-21.41 1179.24,-15.08"/>
<polygon fill="midnightblue" stroke="midnightblue" points="1179.54,-11.59 1169.16,-13.74 1178.61,-18.53 1179.54,-11.59"/>
</g>
<!-- Node18 -->
<g id="node18" class="node">
<title>Node18</title>
<g id="a_node18"><a xlink:title=" ">
<polygon fill="none" stroke="#bfbfbf" points="1417,-185 1417,-204 1539,-204 1539,-185 1417,-185"/>
<text text-anchor="middle" x="1478" y="-192" font-family="Helvetica,sans-Serif" font-size="10.00">BoosterSeat/time.hpp</text>
</a>
</g>
</g>
<!-- Node17&#45;&gt;Node18 -->
<g id="edge29" class="edge">
<title>Node17&#45;&gt;Node18</title>
<path fill="none" stroke="midnightblue" d="M1158.09,-314.27C1161.44,-313.84 1164.76,-313.41 1168,-313 1232.64,-304.79 1410.55,-320.57 1459,-277 1476.44,-261.32 1479.44,-233.01 1479.28,-214.23"/>
<polygon fill="midnightblue" stroke="midnightblue" points="1482.77,-214.06 1478.88,-204.21 1475.78,-214.34 1482.77,-214.06"/>
</g>
<!-- Node19 -->
<g id="node19" class="node">
<title>Node19</title>
<g id="a_node19"><a xlink:href="packets_8hpp.html" target="_top" xlink:title=" ">
<polygon fill="none" stroke="black" points="1292,-252 1292,-271 1450,-271 1450,-252 1292,-252"/>
<text text-anchor="middle" x="1371" y="-259" font-family="Helvetica,sans-Serif" font-size="10.00">SignalEasel/aprs/packets.hpp</text>
</a>
</g>
</g>
<!-- Node17&#45;&gt;Node19 -->
<g id="edge31" class="edge">
<title>Node17&#45;&gt;Node19</title>
<path fill="none" stroke="midnightblue" d="M1137.97,-313.48C1186.55,-302.85 1269.58,-284.68 1322.3,-273.15"/>
<polygon fill="midnightblue" stroke="midnightblue" points="1323.08,-276.57 1332.1,-271.01 1321.58,-269.73 1323.08,-276.57"/>
</g>
<!-- Node24 -->
<g id="node24" class="node">
<title>Node24</title>
<g id="a_node24"><a xlink:href="telemetry__transcoder_8hpp.html" target="_top" xlink:title=" ">
<polygon fill="none" stroke="black" points="1126,-246.5 1126,-276.5 1274,-276.5 1274,-246.5 1126,-246.5"/>
<text text-anchor="start" x="1134" y="-264.5" font-family="Helvetica,sans-Serif" font-size="10.00">SignalEasel/aprs/telemetry</text>
<text text-anchor="middle" x="1200" y="-253.5" font-family="Helvetica,sans-Serif" font-size="10.00">_transcoder.hpp</text>
</a>
</g>
</g>
<!-- Node17&#45;&gt;Node24 -->
<g id="edge44" class="edge">
<title>Node17&#45;&gt;Node24</title>
<path fill="none" stroke="midnightblue" d="M1113.47,-313.48C1127.41,-305.27 1148.98,-292.56 1167.1,-281.88"/>
<polygon fill="midnightblue" stroke="midnightblue" points="1169.36,-284.61 1176.2,-276.52 1165.8,-278.58 1169.36,-284.61"/>
</g>
<!-- Node25 -->
<g id="node25" class="node">
<title>Node25</title>
<g id="a_node25"><a xlink:href="ax25_8hpp.html" target="_top" xlink:title="AX.25 tools.">
<polygon fill="none" stroke="black" points="856.5,-252 856.5,-271 977.5,-271 977.5,-252 856.5,-252"/>
<text text-anchor="middle" x="917" y="-259" font-family="Helvetica,sans-Serif" font-size="10.00">SignalEasel/ax25.hpp</text>
</a>
</g>
</g>
<!-- Node17&#45;&gt;Node25 -->
<g id="edge47" class="edge">
<title>Node17&#45;&gt;Node25</title>
<path fill="none" stroke="midnightblue" d="M1072.92,-313.48C1041.43,-303.18 988.3,-285.81 952.94,-274.25"/>
<polygon fill="midnightblue" stroke="midnightblue" points="953.62,-270.79 943.03,-271.01 951.45,-277.44 953.62,-270.79"/>
</g>
<!-- Node19&#45;&gt;Node3 -->
<g id="edge34" class="edge">
<title>Node19&#45;&gt;Node3</title>
<path fill="none" stroke="midnightblue" d="M1329.32,-251.93C1287.58,-242.95 1221.72,-227.71 1166,-210 1130.05,-198.58 1123.22,-189.53 1087,-179 1007.23,-155.81 910.57,-140.2 860.58,-133.02"/>
<polygon fill="midnightblue" stroke="midnightblue" points="861.04,-129.55 850.65,-131.62 860.06,-136.48 861.04,-129.55"/>
</g>
<!-- Node19&#45;&gt;Node5 -->
<g id="edge32" class="edge">
<title>Node19&#45;&gt;Node5</title>
<path fill="none" stroke="midnightblue" d="M1369.45,-251.8C1365.96,-234.95 1355.87,-197.87 1332,-179 1272.78,-132.18 1234.86,-173.95 1166,-143 1106.24,-116.14 1106.53,-83.36 1047,-56 995.31,-32.25 929.84,-20.37 890.25,-14.96"/>
<polygon fill="midnightblue" stroke="midnightblue" points="890.65,-11.48 880.28,-13.66 889.75,-18.43 890.65,-11.48"/>
</g>
<!-- Node19&#45;&gt;Node8 -->
<g id="edge33" class="edge">
<title>Node19&#45;&gt;Node8</title>
<path fill="none" stroke="midnightblue" d="M1374.24,-251.84C1385.14,-221.01 1417.18,-115.31 1368,-56 1356,-41.53 1237.63,-23.44 1179.24,-15.31"/>
<polygon fill="midnightblue" stroke="midnightblue" points="1179.46,-11.81 1169.07,-13.91 1178.5,-18.74 1179.46,-11.81"/>
</g>
<!-- Node19&#45;&gt;Node18 -->
<g id="edge35" class="edge">
<title>Node19&#45;&gt;Node18</title>
<path fill="none" stroke="midnightblue" d="M1385.43,-251.73C1403.32,-240.87 1434.02,-222.22 1455.13,-209.39"/>
<polygon fill="midnightblue" stroke="midnightblue" points="1457.07,-212.31 1463.8,-204.13 1453.43,-206.33 1457.07,-212.31"/>
</g>
<!-- Node20 -->
<g id="node20" class="node">
<title>Node20</title>
<g id="a_node20"><a xlink:href="telemetry__data_8hpp.html" target="_top" xlink:title=" ">
<polygon fill="none" stroke="black" points="1175,-179.5 1175,-209.5 1323,-209.5 1323,-179.5 1175,-179.5"/>
<text text-anchor="start" x="1183" y="-197.5" font-family="Helvetica,sans-Serif" font-size="10.00">SignalEasel/aprs/telemetry</text>
<text text-anchor="middle" x="1249" y="-186.5" font-family="Helvetica,sans-Serif" font-size="10.00">_data.hpp</text>
</a>
</g>
</g>
<!-- Node19&#45;&gt;Node20 -->
<g id="edge36" class="edge">
<title>Node19&#45;&gt;Node20</title>
<path fill="none" stroke="midnightblue" d="M1354.8,-251.87C1336.95,-242.36 1307.68,-226.77 1284.45,-214.39"/>
<polygon fill="midnightblue" stroke="midnightblue" points="1286.03,-211.26 1275.56,-209.65 1282.74,-217.44 1286.03,-211.26"/>
</g>
<!-- Node20&#45;&gt;Node14 -->
<g id="edge37" class="edge">
<title>Node20&#45;&gt;Node14</title>
<path fill="none" stroke="midnightblue" d="M1214.97,-179.48C1154.61,-154.61 1029.75,-103.16 972.23,-79.46"/>
<polygon fill="midnightblue" stroke="midnightblue" points="973.52,-76.2 962.94,-75.63 970.86,-82.68 973.52,-76.2"/>
</g>
<!-- Node21 -->
<g id="node21" class="node">
<title>Node21</title>
<g id="a_node21"><a xlink:href="telemetry__parameter_8hpp.html" target="_top" xlink:title=" ">
<polygon fill="none" stroke="black" points="1175,-112.5 1175,-142.5 1323,-142.5 1323,-112.5 1175,-112.5"/>
<text text-anchor="start" x="1183" y="-130.5" font-family="Helvetica,sans-Serif" font-size="10.00">SignalEasel/aprs/telemetry</text>
<text text-anchor="middle" x="1249" y="-119.5" font-family="Helvetica,sans-Serif" font-size="10.00">_parameter.hpp</text>
</a>
</g>
</g>
<!-- Node20&#45;&gt;Node21 -->
<g id="edge38" class="edge">
<title>Node20&#45;&gt;Node21</title>
<path fill="none" stroke="midnightblue" d="M1249,-179.4C1249,-171.64 1249,-161.81 1249,-152.86"/>
<polygon fill="midnightblue" stroke="midnightblue" points="1252.5,-152.58 1249,-142.58 1245.5,-152.58 1252.5,-152.58"/>
</g>
<!-- Node21&#45;&gt;Node5 -->
<g id="edge39" class="edge">
<title>Node21&#45;&gt;Node5</title>
<path fill="none" stroke="midnightblue" d="M1221.25,-112.4C1189.17,-96.62 1134.45,-71.28 1085,-56 1017.56,-35.17 935.9,-21.9 890.26,-15.52"/>
<polygon fill="midnightblue" stroke="midnightblue" points="890.66,-12.04 880.28,-14.15 889.71,-18.98 890.66,-12.04"/>
</g>
<!-- Node21&#45;&gt;Node8 -->
<g id="edge40" class="edge">
<title>Node21&#45;&gt;Node8</title>
<path fill="none" stroke="midnightblue" d="M1236.49,-112.34C1217.53,-90.86 1181.59,-50.17 1161.51,-27.43"/>
<polygon fill="midnightblue" stroke="midnightblue" points="1163.9,-24.85 1154.66,-19.67 1158.65,-29.48 1163.9,-24.85"/>
</g>
<!-- Node22 -->
<g id="node22" class="node">
<title>Node22</title>
<g id="a_node22"><a xlink:href="exception_8hpp.html" target="_top" xlink:title="SignalEasel exceptions.">
<polygon fill="none" stroke="black" points="1213.5,-56.5 1213.5,-75.5 1358.5,-75.5 1358.5,-56.5 1213.5,-56.5"/>
<text text-anchor="middle" x="1286" y="-63.5" font-family="Helvetica,sans-Serif" font-size="10.00">SignalEasel/exception.hpp</text>
</a>
</g>
</g>
<!-- Node21&#45;&gt;Node22 -->
<g id="edge41" class="edge">
<title>Node21&#45;&gt;Node22</title>
<path fill="none" stroke="midnightblue" d="M1257.77,-112.4C1262.98,-104.02 1269.63,-93.33 1275.17,-84.42"/>
<polygon fill="midnightblue" stroke="midnightblue" points="1278.31,-86 1280.62,-75.66 1272.36,-82.3 1278.31,-86"/>
</g>
<!-- Node22&#45;&gt;Node8 -->
<g id="edge43" class="edge">
<title>Node22&#45;&gt;Node8</title>
<path fill="none" stroke="midnightblue" d="M1263.98,-56.44C1240.9,-47.48 1204.44,-33.31 1178.36,-23.18"/>
<polygon fill="midnightblue" stroke="midnightblue" points="1179.51,-19.88 1168.92,-19.52 1176.98,-26.4 1179.51,-19.88"/>
</g>
<!-- Node23 -->
<g id="node23" class="node">
<title>Node23</title>
<g id="a_node23"><a xlink:title=" ">
<polygon fill="none" stroke="#bfbfbf" points="1253.5,-0.5 1253.5,-19.5 1318.5,-19.5 1318.5,-0.5 1253.5,-0.5"/>
<text text-anchor="middle" x="1286" y="-7.5" font-family="Helvetica,sans-Serif" font-size="10.00">exception</text>
</a>
</g>
</g>
<!-- Node22&#45;&gt;Node23 -->
<g id="edge42" class="edge">
<title>Node22&#45;&gt;Node23</title>
<path fill="none" stroke="midnightblue" d="M1286,-56.08C1286,-49.01 1286,-38.86 1286,-29.99"/>
<polygon fill="midnightblue" stroke="midnightblue" points="1289.5,-29.75 1286,-19.75 1282.5,-29.75 1289.5,-29.75"/>
</g>
<!-- Node24&#45;&gt;Node3 -->
<g id="edge45" class="edge">
<title>Node24&#45;&gt;Node3</title>
<path fill="none" stroke="midnightblue" d="M1167.06,-246.46C1145.97,-237.04 1118.3,-223.85 1095,-210 1074.75,-197.96 1073.49,-188.67 1052,-179 987.95,-150.19 906.02,-137.15 860.79,-131.8"/>
<polygon fill="midnightblue" stroke="midnightblue" points="860.98,-128.29 850.65,-130.65 860.2,-135.25 860.98,-128.29"/>
</g>
<!-- Node24&#45;&gt;Node20 -->
<g id="edge46" class="edge">
<title>Node24&#45;&gt;Node20</title>
<path fill="none" stroke="midnightblue" d="M1210.63,-246.4C1216.92,-238.05 1225.04,-227.29 1232.18,-217.81"/>
<polygon fill="midnightblue" stroke="midnightblue" points="1235.16,-219.67 1238.39,-209.58 1229.57,-215.45 1235.16,-219.67"/>
</g>
<!-- Node25&#45;&gt;Node3 -->
<g id="edge52" class="edge">
<title>Node25&#45;&gt;Node3</title>
<path fill="none" stroke="midnightblue" d="M905.89,-251.79C894.5,-242.42 876.81,-226.61 865,-210 850.76,-189.98 839.67,-163.78 833.24,-146.56"/>
<polygon fill="midnightblue" stroke="midnightblue" points="836.53,-145.36 829.85,-137.14 829.94,-147.73 836.53,-145.36"/>
</g>
<!-- Node25&#45;&gt;Node5 -->
<g id="edge48" class="edge">
<title>Node25&#45;&gt;Node5</title>
<path fill="none" stroke="midnightblue" d="M914.87,-251.91C906,-216.22 871.94,-79.18 859.55,-29.29"/>
<polygon fill="midnightblue" stroke="midnightblue" points="862.93,-28.41 857.13,-19.55 856.14,-30.1 862.93,-28.41"/>
</g>
<!-- Node25&#45;&gt;Node6 -->
<g id="edge53" class="edge">
<title>Node25&#45;&gt;Node6</title>
<path fill="none" stroke="midnightblue" d="M888.32,-251.87C849.96,-240.33 781.87,-219.84 739.2,-207"/>
<polygon fill="midnightblue" stroke="midnightblue" points="740.04,-203.59 729.46,-204.06 738.02,-210.3 740.04,-203.59"/>
</g>
<!-- Node25&#45;&gt;Node8 -->
<g id="edge51" class="edge">
<title>Node25&#45;&gt;Node8</title>
<path fill="none" stroke="midnightblue" d="M922.48,-251.54C932.08,-236.09 952.96,-203.72 974,-179 1025.81,-118.13 1096.58,-54.6 1129.2,-26.24"/>
<polygon fill="midnightblue" stroke="midnightblue" points="1131.71,-28.7 1136.99,-19.51 1127.13,-23.4 1131.71,-28.7"/>
</g>
<!-- Node25&#45;&gt;Node14 -->
<g id="edge49" class="edge">
<title>Node25&#45;&gt;Node14</title>
<path fill="none" stroke="midnightblue" d="M918.11,-251.94C921.87,-222.79 934.25,-126.97 939.55,-85.93"/>
<polygon fill="midnightblue" stroke="midnightblue" points="943.04,-86.27 940.85,-75.91 936.1,-85.38 943.04,-86.27"/>
</g>
<!-- Node25&#45;&gt;Node26 -->
<g id="edge50" class="edge">
<title>Node25&#45;&gt;Node26</title>
<path fill="none" stroke="midnightblue" d="M929.95,-251.73C945.85,-240.96 973.05,-222.55 991.97,-209.74"/>
<polygon fill="midnightblue" stroke="midnightblue" points="993.94,-212.63 1000.26,-204.13 990.02,-206.84 993.94,-212.63"/>
</g>
</g>
</svg>
