<?xml version="1.0" encoding="UTF-8" standalone="no"?>
<!DOCTYPE svg PUBLIC "-//W3C//DTD SVG 1.1//EN"
 "http://www.w3.org/Graphics/SVG/1.1/DTD/svg11.dtd">
<!-- Generated by graphviz version 2.43.0 (0)
 -->
<!-- Title: receiver.hpp Pages: 1 -->
<svg width="518pt" height="196pt"
 viewBox="0.00 0.00 518.00 196.00" xmlns="http://www.w3.org/2000/svg" xmlns:xlink="http://www.w3.org/1999/xlink">
<g id="graph0" class="graph" transform="scale(1 1) rotate(0) translate(4 192)">
<title>receiver.hpp</title>
<!-- Node1 -->
<g id="node1" class="node">
<title>Node1</title>
<g id="a_node1"><a xlink:title="Base class for receivers. Demodulators that use pulse audio.">
<polygon fill="#bfbfbf" stroke="black" points="111.5,-168.5 111.5,-187.5 188.5,-187.5 188.5,-168.5 111.5,-168.5"/>
<text text-anchor="middle" x="150" y="-175.5" font-family="Helvetica,sans-Serif" font-size="10.00">receiver.hpp</text>
</a>
</g>
</g>
<!-- Node2 -->
<g id="node2" class="node">
<title>Node2</title>
<g id="a_node2"><a xlink:href="pulse__audio_8hpp.html" target="_top" xlink:title="Simple pulse audio interface.">
<polygon fill="none" stroke="black" points="156.5,-112.5 156.5,-131.5 311.5,-131.5 311.5,-112.5 156.5,-112.5"/>
<text text-anchor="middle" x="234" y="-119.5" font-family="Helvetica,sans-Serif" font-size="10.00">SignalEasel/pulse_audio.hpp</text>
</a>
</g>
</g>
<!-- Node1&#45;&gt;Node2 -->
<g id="edge1" class="edge">
<title>Node1&#45;&gt;Node2</title>
<path fill="none" stroke="midnightblue" d="M163.5,-168.32C176.6,-159.9 196.71,-146.97 212.11,-137.07"/>
<polygon fill="midnightblue" stroke="midnightblue" points="214.02,-140.01 220.54,-131.65 210.23,-134.12 214.02,-140.01"/>
</g>
<!-- Node9 -->
<g id="node9" class="node">
<title>Node9</title>
<g id="a_node9"><a xlink:href="settings_8hpp.html" target="_top" xlink:title="Settings structures for SignalEasel.">
<polygon fill="none" stroke="black" points="0,-112.5 0,-131.5 136,-131.5 136,-112.5 0,-112.5"/>
<text text-anchor="middle" x="68" y="-119.5" font-family="Helvetica,sans-Serif" font-size="10.00">SignalEasel/settings.hpp</text>
</a>
</g>
</g>
<!-- Node1&#45;&gt;Node9 -->
<g id="edge8" class="edge">
<title>Node1&#45;&gt;Node9</title>
<path fill="none" stroke="midnightblue" d="M136.83,-168.32C124.15,-159.98 104.77,-147.21 89.79,-137.35"/>
<polygon fill="midnightblue" stroke="midnightblue" points="91.42,-134.23 81.14,-131.65 87.57,-140.08 91.42,-134.23"/>
</g>
<!-- Node3 -->
<g id="node3" class="node">
<title>Node3</title>
<g id="a_node3"><a xlink:title=" ">
<polygon fill="none" stroke="#bfbfbf" points="104,-56.5 104,-75.5 146,-75.5 146,-56.5 104,-56.5"/>
<text text-anchor="middle" x="125" y="-63.5" font-family="Helvetica,sans-Serif" font-size="10.00">array</text>
</a>
</g>
</g>
<!-- Node2&#45;&gt;Node3 -->
<g id="edge2" class="edge">
<title>Node2&#45;&gt;Node3</title>
<path fill="none" stroke="midnightblue" d="M216.49,-112.32C198.93,-103.62 171.67,-90.12 151.47,-80.11"/>
<polygon fill="midnightblue" stroke="midnightblue" points="152.98,-76.96 142.47,-75.65 149.88,-83.23 152.98,-76.96"/>
</g>
<!-- Node4 -->
<g id="node4" class="node">
<title>Node4</title>
<g id="a_node4"><a xlink:title=" ">
<polygon fill="none" stroke="#bfbfbf" points="42,-56.5 42,-75.5 86,-75.5 86,-56.5 42,-56.5"/>
<text text-anchor="middle" x="64" y="-63.5" font-family="Helvetica,sans-Serif" font-size="10.00">string</text>
</a>
</g>
</g>
<!-- Node2&#45;&gt;Node4 -->
<g id="edge3" class="edge">
<title>Node2&#45;&gt;Node4</title>
<path fill="none" stroke="midnightblue" d="M207.06,-112.44C176.9,-102.86 128.06,-87.35 95.99,-77.16"/>
<polygon fill="midnightblue" stroke="midnightblue" points="96.8,-73.75 86.21,-74.05 94.68,-80.42 96.8,-73.75"/>
</g>
<!-- Node5 -->
<g id="node5" class="node">
<title>Node5</title>
<g id="a_node5"><a xlink:href="constants_8hpp.html" target="_top" xlink:title="Common constants used throughout the library.">
<polygon fill="none" stroke="black" points="164,-56.5 164,-75.5 308,-75.5 308,-56.5 164,-56.5"/>
<text text-anchor="middle" x="236" y="-63.5" font-family="Helvetica,sans-Serif" font-size="10.00">SignalEasel/constants.hpp</text>
</a>
</g>
</g>
<!-- Node2&#45;&gt;Node5 -->
<g id="edge4" class="edge">
<title>Node2&#45;&gt;Node5</title>
<path fill="none" stroke="midnightblue" d="M234.33,-112.08C234.59,-105.01 234.97,-94.86 235.3,-85.99"/>
<polygon fill="midnightblue" stroke="midnightblue" points="238.8,-85.87 235.68,-75.75 231.81,-85.61 238.8,-85.87"/>
</g>
<!-- Node7 -->
<g id="node7" class="node">
<title>Node7</title>
<g id="a_node7"><a xlink:title=" ">
<polygon fill="none" stroke="#bfbfbf" points="326.5,-56.5 326.5,-75.5 403.5,-75.5 403.5,-56.5 326.5,-56.5"/>
<text text-anchor="middle" x="365" y="-63.5" font-family="Helvetica,sans-Serif" font-size="10.00">pulse/error.h</text>
</a>
</g>
</g>
<!-- Node2&#45;&gt;Node7 -->
<g id="edge6" class="edge">
<title>Node2&#45;&gt;Node7</title>
<path fill="none" stroke="midnightblue" d="M254.76,-112.44C276.32,-103.56 310.26,-89.56 334.79,-79.45"/>
<polygon fill="midnightblue" stroke="midnightblue" points="336.43,-82.56 344.34,-75.52 333.76,-76.09 336.43,-82.56"/>
</g>
<!-- Node8 -->
<g id="node8" class="node">
<title>Node8</title>
<g id="a_node8"><a xlink:title=" ">
<polygon fill="none" stroke="#bfbfbf" points="422,-56.5 422,-75.5 510,-75.5 510,-56.5 422,-56.5"/>
<text text-anchor="middle" x="466" y="-63.5" font-family="Helvetica,sans-Serif" font-size="10.00">pulse/simple.h</text>
</a>
</g>
</g>
<!-- Node2&#45;&gt;Node8 -->
<g id="edge7" class="edge">
<title>Node2&#45;&gt;Node8</title>
<path fill="none" stroke="midnightblue" d="M270.76,-112.44C311.06,-103.06 375.81,-87.99 419.58,-77.8"/>
<polygon fill="midnightblue" stroke="midnightblue" points="420.46,-81.19 429.41,-75.52 418.88,-74.37 420.46,-81.19"/>
</g>
<!-- Node6 -->
<g id="node6" class="node">
<title>Node6</title>
<g id="a_node6"><a xlink:title=" ">
<polygon fill="none" stroke="#bfbfbf" points="211,-0.5 211,-19.5 261,-19.5 261,-0.5 211,-0.5"/>
<text text-anchor="middle" x="236" y="-7.5" font-family="Helvetica,sans-Serif" font-size="10.00">cstdint</text>
</a>
</g>
</g>
<!-- Node5&#45;&gt;Node6 -->
<g id="edge5" class="edge">
<title>Node5&#45;&gt;Node6</title>
<path fill="none" stroke="midnightblue" d="M236,-56.08C236,-49.01 236,-38.86 236,-29.99"/>
<polygon fill="midnightblue" stroke="midnightblue" points="239.5,-29.75 236,-19.75 232.5,-29.75 239.5,-29.75"/>
</g>
<!-- Node9&#45;&gt;Node4 -->
<g id="edge9" class="edge">
<title>Node9&#45;&gt;Node4</title>
<path fill="none" stroke="midnightblue" d="M67.34,-112.08C66.82,-105.01 66.06,-94.86 65.41,-85.99"/>
<polygon fill="midnightblue" stroke="midnightblue" points="68.88,-85.47 64.65,-75.75 61.9,-85.98 68.88,-85.47"/>
</g>
</g>
</svg>
