<?xml version="1.0" encoding="UTF-8" standalone="no"?>
<!DOCTYPE svg PUBLIC "-//W3C//DTD SVG 1.1//EN"
 "http://www.w3.org/Graphics/SVG/1.1/DTD/svg11.dtd">
<!-- Generated by graphviz version 2.43.0 (0)
 -->
<!-- Title: receiver.hpp Pages: 1 -->
<svg width="596pt" height="196pt"
 viewBox="0.00 0.00 596.00 196.00" xmlns="http://www.w3.org/2000/svg" xmlns:xlink="http://www.w3.org/1999/xlink">
<g id="graph0" class="graph" transform="scale(1 1) rotate(0) translate(4 192)">
<title>receiver.hpp</title>
<!-- Node1 -->
<g id="node1" class="node">
<title>Node1</title>
<g id="a_node1"><a xlink:title="Base class for receivers. Demodulators that use pulse audio.">
<polygon fill="#bfbfbf" stroke="black" points="105.5,-168.5 105.5,-187.5 182.5,-187.5 182.5,-168.5 105.5,-168.5"/>
<text text-anchor="middle" x="144" y="-175.5" font-family="Helvetica,sans-Serif" font-size="10.00">receiver.hpp</text>
</a>
</g>
</g>
<!-- Node2 -->
<g id="node2" class="node">
<title>Node2</title>
<g id="a_node2"><a xlink:title=" ">
<polygon fill="none" stroke="#bfbfbf" points="0,-112.5 0,-131.5 58,-131.5 58,-112.5 0,-112.5"/>
<text text-anchor="middle" x="29" y="-119.5" font-family="Helvetica,sans-Serif" font-size="10.00">memory</text>
</a>
</g>
</g>
<!-- Node1&#45;&gt;Node2 -->
<g id="edge1" class="edge">
<title>Node1&#45;&gt;Node2</title>
<path fill="none" stroke="midnightblue" d="M125.78,-168.44C107.1,-159.68 77.84,-145.94 56.38,-135.86"/>
<polygon fill="midnightblue" stroke="midnightblue" points="57.68,-132.6 47.14,-131.52 54.7,-138.93 57.68,-132.6"/>
</g>
<!-- Node3 -->
<g id="node3" class="node">
<title>Node3</title>
<g id="a_node3"><a xlink:href="pulse__audio_8hpp.html" target="_top" xlink:title="Reads audio from pulse audio.">
<polygon fill="none" stroke="black" points="234.5,-112.5 234.5,-131.5 389.5,-131.5 389.5,-112.5 234.5,-112.5"/>
<text text-anchor="middle" x="312" y="-119.5" font-family="Helvetica,sans-Serif" font-size="10.00">SignalEasel/pulse_audio.hpp</text>
</a>
</g>
</g>
<!-- Node1&#45;&gt;Node3 -->
<g id="edge2" class="edge">
<title>Node1&#45;&gt;Node3</title>
<path fill="none" stroke="midnightblue" d="M170.62,-168.44C199.01,-159.32 244.14,-144.81 275.75,-134.65"/>
<polygon fill="midnightblue" stroke="midnightblue" points="277.06,-137.91 285.5,-131.52 274.91,-131.24 277.06,-137.91"/>
</g>
<!-- Node10 -->
<g id="node10" class="node">
<title>Node10</title>
<g id="a_node10"><a xlink:href="settings_8hpp.html" target="_top" xlink:title="Settings structures for SignalEasel.">
<polygon fill="none" stroke="black" points="76,-112.5 76,-131.5 212,-131.5 212,-112.5 76,-112.5"/>
<text text-anchor="middle" x="144" y="-119.5" font-family="Helvetica,sans-Serif" font-size="10.00">SignalEasel/settings.hpp</text>
</a>
</g>
</g>
<!-- Node1&#45;&gt;Node10 -->
<g id="edge9" class="edge">
<title>Node1&#45;&gt;Node10</title>
<path fill="none" stroke="midnightblue" d="M144,-168.08C144,-161.01 144,-150.86 144,-141.99"/>
<polygon fill="midnightblue" stroke="midnightblue" points="147.5,-141.75 144,-131.75 140.5,-141.75 147.5,-141.75"/>
</g>
<!-- Node4 -->
<g id="node4" class="node">
<title>Node4</title>
<g id="a_node4"><a xlink:title=" ">
<polygon fill="none" stroke="#bfbfbf" points="182,-56.5 182,-75.5 224,-75.5 224,-56.5 182,-56.5"/>
<text text-anchor="middle" x="203" y="-63.5" font-family="Helvetica,sans-Serif" font-size="10.00">array</text>
</a>
</g>
</g>
<!-- Node3&#45;&gt;Node4 -->
<g id="edge3" class="edge">
<title>Node3&#45;&gt;Node4</title>
<path fill="none" stroke="midnightblue" d="M294.49,-112.32C276.93,-103.62 249.67,-90.12 229.47,-80.11"/>
<polygon fill="midnightblue" stroke="midnightblue" points="230.98,-76.96 220.47,-75.65 227.88,-83.23 230.98,-76.96"/>
</g>
<!-- Node5 -->
<g id="node5" class="node">
<title>Node5</title>
<g id="a_node5"><a xlink:title=" ">
<polygon fill="none" stroke="#bfbfbf" points="120,-56.5 120,-75.5 164,-75.5 164,-56.5 120,-56.5"/>
<text text-anchor="middle" x="142" y="-63.5" font-family="Helvetica,sans-Serif" font-size="10.00">string</text>
</a>
</g>
</g>
<!-- Node3&#45;&gt;Node5 -->
<g id="edge4" class="edge">
<title>Node3&#45;&gt;Node5</title>
<path fill="none" stroke="midnightblue" d="M285.06,-112.44C254.9,-102.86 206.06,-87.35 173.99,-77.16"/>
<polygon fill="midnightblue" stroke="midnightblue" points="174.8,-73.75 164.21,-74.05 172.68,-80.42 174.8,-73.75"/>
</g>
<!-- Node6 -->
<g id="node6" class="node">
<title>Node6</title>
<g id="a_node6"><a xlink:href="constants_8hpp.html" target="_top" xlink:title="Common constants used throughout the library.">
<polygon fill="none" stroke="black" points="242,-56.5 242,-75.5 386,-75.5 386,-56.5 242,-56.5"/>
<text text-anchor="middle" x="314" y="-63.5" font-family="Helvetica,sans-Serif" font-size="10.00">SignalEasel/constants.hpp</text>
</a>
</g>
</g>
<!-- Node3&#45;&gt;Node6 -->
<g id="edge5" class="edge">
<title>Node3&#45;&gt;Node6</title>
<path fill="none" stroke="midnightblue" d="M312.33,-112.08C312.59,-105.01 312.97,-94.86 313.3,-85.99"/>
<polygon fill="midnightblue" stroke="midnightblue" points="316.8,-85.87 313.68,-75.75 309.81,-85.61 316.8,-85.87"/>
</g>
<!-- Node8 -->
<g id="node8" class="node">
<title>Node8</title>
<g id="a_node8"><a xlink:title=" ">
<polygon fill="none" stroke="#bfbfbf" points="404.5,-56.5 404.5,-75.5 481.5,-75.5 481.5,-56.5 404.5,-56.5"/>
<text text-anchor="middle" x="443" y="-63.5" font-family="Helvetica,sans-Serif" font-size="10.00">pulse/error.h</text>
</a>
</g>
</g>
<!-- Node3&#45;&gt;Node8 -->
<g id="edge7" class="edge">
<title>Node3&#45;&gt;Node8</title>
<path fill="none" stroke="midnightblue" d="M332.76,-112.44C354.32,-103.56 388.26,-89.56 412.79,-79.45"/>
<polygon fill="midnightblue" stroke="midnightblue" points="414.43,-82.56 422.34,-75.52 411.76,-76.09 414.43,-82.56"/>
</g>
<!-- Node9 -->
<g id="node9" class="node">
<title>Node9</title>
<g id="a_node9"><a xlink:title=" ">
<polygon fill="none" stroke="#bfbfbf" points="500,-56.5 500,-75.5 588,-75.5 588,-56.5 500,-56.5"/>
<text text-anchor="middle" x="544" y="-63.5" font-family="Helvetica,sans-Serif" font-size="10.00">pulse/simple.h</text>
</a>
</g>
</g>
<!-- Node3&#45;&gt;Node9 -->
<g id="edge8" class="edge">
<title>Node3&#45;&gt;Node9</title>
<path fill="none" stroke="midnightblue" d="M348.76,-112.44C389.06,-103.06 453.81,-87.99 497.58,-77.8"/>
<polygon fill="midnightblue" stroke="midnightblue" points="498.46,-81.19 507.41,-75.52 496.88,-74.37 498.46,-81.19"/>
</g>
<!-- Node7 -->
<g id="node7" class="node">
<title>Node7</title>
<g id="a_node7"><a xlink:title=" ">
<polygon fill="none" stroke="#bfbfbf" points="289,-0.5 289,-19.5 339,-19.5 339,-0.5 289,-0.5"/>
<text text-anchor="middle" x="314" y="-7.5" font-family="Helvetica,sans-Serif" font-size="10.00">cstdint</text>
</a>
</g>
</g>
<!-- Node6&#45;&gt;Node7 -->
<g id="edge6" class="edge">
<title>Node6&#45;&gt;Node7</title>
<path fill="none" stroke="midnightblue" d="M314,-56.08C314,-49.01 314,-38.86 314,-29.99"/>
<polygon fill="midnightblue" stroke="midnightblue" points="317.5,-29.75 314,-19.75 310.5,-29.75 317.5,-29.75"/>
</g>
<!-- Node10&#45;&gt;Node5 -->
<g id="edge10" class="edge">
<title>Node10&#45;&gt;Node5</title>
<path fill="none" stroke="midnightblue" d="M143.67,-112.08C143.41,-105.01 143.03,-94.86 142.7,-85.99"/>
<polygon fill="midnightblue" stroke="midnightblue" points="146.19,-85.61 142.32,-75.75 139.2,-85.87 146.19,-85.61"/>
</g>
</g>
</svg>
