<?xml version="1.0" encoding="UTF-8" standalone="no"?>
<!DOCTYPE svg PUBLIC "-//W3C//DTD SVG 1.1//EN"
 "http://www.w3.org/Graphics/SVG/1.1/DTD/svg11.dtd">
<!-- Generated by graphviz version 2.43.0 (0)
 -->
<!-- Title: settings.hpp Pages: 1 -->
<svg width="1766pt" height="252pt"
 viewBox="0.00 0.00 1766.31 252.00" xmlns="http://www.w3.org/2000/svg" xmlns:xlink="http://www.w3.org/1999/xlink">
<g id="graph0" class="graph" transform="scale(1 1) rotate(0) translate(4 248)">
<title>settings.hpp</title>
<!-- Node1 -->
<g id="node1" class="node">
<title>Node1</title>
<g id="a_node1"><a xlink:title="Settings structures for SignalEasel.">
<polygon fill="#bfbfbf" stroke="black" points="1185.5,-224.5 1185.5,-243.5 1262.5,-243.5 1262.5,-224.5 1185.5,-224.5"/>
<text text-anchor="middle" x="1224" y="-231.5" font-family="Helvetica,sans-Serif" font-size="10.00">settings.hpp</text>
</a>
</g>
</g>
<!-- Node2 -->
<g id="node2" class="node">
<title>Node2</title>
<g id="a_node2"><a xlink:href="convolutional__code_8cpp.html" target="_top" xlink:title="Convolutional Code Implementation.">
<polygon fill="none" stroke="black" points="1497.5,-0.5 1497.5,-19.5 1628.5,-19.5 1628.5,-0.5 1497.5,-0.5"/>
<text text-anchor="middle" x="1563" y="-7.5" font-family="Helvetica,sans-Serif" font-size="10.00">convolutional_code.cpp</text>
</a>
</g>
</g>
<!-- Node1&#45;&gt;Node2 -->
<g id="edge1" class="edge">
<title>Node1&#45;&gt;Node2</title>
<path fill="none" stroke="midnightblue" d="M1272.89,-231.2C1391.26,-225.71 1687.88,-204.82 1748,-132 1794.67,-75.48 1668.72,-35.94 1601.75,-19.51"/>
<polygon fill="midnightblue" stroke="midnightblue" points="1272.51,-227.71 1262.68,-231.65 1272.82,-234.71 1272.51,-227.71"/>
</g>
<!-- Node3 -->
<g id="node3" class="node">
<title>Node3</title>
<g id="a_node3"><a xlink:href="demodulator_8hpp.html" target="_top" xlink:title="Base class for demodulators.">
<polygon fill="none" stroke="black" points="839.5,-168.5 839.5,-187.5 938.5,-187.5 938.5,-168.5 839.5,-168.5"/>
<text text-anchor="middle" x="889" y="-175.5" font-family="Helvetica,sans-Serif" font-size="10.00">demodulator.hpp</text>
</a>
</g>
</g>
<!-- Node1&#45;&gt;Node3 -->
<g id="edge2" class="edge">
<title>Node1&#45;&gt;Node3</title>
<path fill="none" stroke="midnightblue" d="M1175.12,-225.12C1111.83,-214.92 1002.12,-197.23 938.52,-186.98"/>
<polygon fill="midnightblue" stroke="midnightblue" points="1174.81,-228.62 1185.24,-226.75 1175.93,-221.71 1174.81,-228.62"/>
</g>
<!-- Node18 -->
<g id="node18" class="node">
<title>Node18</title>
<g id="a_node18"><a xlink:href="modulator_8hpp.html" target="_top" xlink:title="Modulator base class.">
<polygon fill="none" stroke="black" points="1222.5,-168.5 1222.5,-187.5 1309.5,-187.5 1309.5,-168.5 1222.5,-168.5"/>
<text text-anchor="middle" x="1266" y="-175.5" font-family="Helvetica,sans-Serif" font-size="10.00">modulator.hpp</text>
</a>
</g>
</g>
<!-- Node1&#45;&gt;Node18 -->
<g id="edge18" class="edge">
<title>Node1&#45;&gt;Node18</title>
<path fill="none" stroke="midnightblue" d="M1237.11,-216.14C1244.43,-206.74 1253.24,-195.4 1259.19,-187.75"/>
<polygon fill="midnightblue" stroke="midnightblue" points="1234.31,-214.04 1230.94,-224.08 1239.84,-218.34 1234.31,-214.04"/>
</g>
<!-- Node31 -->
<g id="node31" class="node">
<title>Node31</title>
<g id="a_node31"><a xlink:href="receiver_8hpp.html" target="_top" xlink:title="Base class for receivers. Demodulators that use pulse audio.">
<polygon fill="none" stroke="black" points="1032.5,-168.5 1032.5,-187.5 1109.5,-187.5 1109.5,-168.5 1032.5,-168.5"/>
<text text-anchor="middle" x="1071" y="-175.5" font-family="Helvetica,sans-Serif" font-size="10.00">receiver.hpp</text>
</a>
</g>
</g>
<!-- Node1&#45;&gt;Node31 -->
<g id="edge36" class="edge">
<title>Node1&#45;&gt;Node31</title>
<path fill="none" stroke="midnightblue" d="M1190.11,-221.04C1161.32,-210.88 1120.71,-196.55 1095.13,-187.52"/>
<polygon fill="midnightblue" stroke="midnightblue" points="1189.16,-224.42 1199.76,-224.44 1191.49,-217.81 1189.16,-224.42"/>
</g>
<!-- Node4 -->
<g id="node4" class="node">
<title>Node4</title>
<g id="a_node4"><a xlink:href="afsk_8hpp.html" target="_top" xlink:title="AFSK related modulation/demodulation.">
<polygon fill="none" stroke="black" points="859.5,-112.5 859.5,-131.5 918.5,-131.5 918.5,-112.5 859.5,-112.5"/>
<text text-anchor="middle" x="889" y="-119.5" font-family="Helvetica,sans-Serif" font-size="10.00">afsk.hpp</text>
</a>
</g>
</g>
<!-- Node3&#45;&gt;Node4 -->
<g id="edge3" class="edge">
<title>Node3&#45;&gt;Node4</title>
<path fill="none" stroke="midnightblue" d="M889,-157.8C889,-148.91 889,-138.78 889,-131.75"/>
<polygon fill="midnightblue" stroke="midnightblue" points="885.5,-158.08 889,-168.08 892.5,-158.08 885.5,-158.08"/>
</g>
<!-- Node17 -->
<g id="node17" class="node">
<title>Node17</title>
<g id="a_node17"><a xlink:href="demodulator_8cpp.html" target="_top" xlink:title="The demodulator class implementation.">
<polygon fill="none" stroke="black" points="743,-112.5 743,-131.5 841,-131.5 841,-112.5 743,-112.5"/>
<text text-anchor="middle" x="792" y="-119.5" font-family="Helvetica,sans-Serif" font-size="10.00">demodulator.cpp</text>
</a>
</g>
</g>
<!-- Node3&#45;&gt;Node17 -->
<g id="edge17" class="edge">
<title>Node3&#45;&gt;Node17</title>
<path fill="none" stroke="midnightblue" d="M864.66,-163.45C846.76,-153.48 822.95,-140.23 807.55,-131.65"/>
<polygon fill="midnightblue" stroke="midnightblue" points="862.98,-166.52 873.42,-168.32 866.38,-160.4 862.98,-166.52"/>
</g>
<!-- Node5 -->
<g id="node5" class="node">
<title>Node5</title>
<g id="a_node5"><a xlink:href="afsk__demodulator_8cpp.html" target="_top" xlink:title="The AFSK demodulator class implementation.">
<polygon fill="none" stroke="black" points="689.5,-56.5 689.5,-75.5 814.5,-75.5 814.5,-56.5 689.5,-56.5"/>
<text text-anchor="middle" x="752" y="-63.5" font-family="Helvetica,sans-Serif" font-size="10.00">afsk_demodulator.cpp</text>
</a>
</g>
</g>
<!-- Node4&#45;&gt;Node5 -->
<g id="edge4" class="edge">
<title>Node4&#45;&gt;Node5</title>
<path fill="none" stroke="midnightblue" d="M857.98,-108.77C832.24,-98.63 796.31,-84.47 773.61,-75.52"/>
<polygon fill="midnightblue" stroke="midnightblue" points="856.71,-112.03 867.29,-112.44 859.27,-105.52 856.71,-112.03"/>
</g>
<!-- Node6 -->
<g id="node6" class="node">
<title>Node6</title>
<g id="a_node6"><a xlink:href="afsk__modulator_8cpp.html" target="_top" xlink:title="The AFSK modulator class implementation.">
<polygon fill="none" stroke="black" points="832.5,-56.5 832.5,-75.5 945.5,-75.5 945.5,-56.5 832.5,-56.5"/>
<text text-anchor="middle" x="889" y="-63.5" font-family="Helvetica,sans-Serif" font-size="10.00">afsk_modulator.cpp</text>
</a>
</g>
</g>
<!-- Node4&#45;&gt;Node6 -->
<g id="edge5" class="edge">
<title>Node4&#45;&gt;Node6</title>
<path fill="none" stroke="midnightblue" d="M889,-101.8C889,-92.91 889,-82.78 889,-75.75"/>
<polygon fill="midnightblue" stroke="midnightblue" points="885.5,-102.08 889,-112.08 892.5,-102.08 885.5,-102.08"/>
</g>
<!-- Node7 -->
<g id="node7" class="node">
<title>Node7</title>
<g id="a_node7"><a xlink:href="afsk__receiver_8cpp.html" target="_top" xlink:title="Implementation of the AFSK receiver class.">
<polygon fill="none" stroke="black" points="964,-56.5 964,-75.5 1066,-75.5 1066,-56.5 964,-56.5"/>
<text text-anchor="middle" x="1015" y="-63.5" font-family="Helvetica,sans-Serif" font-size="10.00">afsk_receiver.cpp</text>
</a>
</g>
</g>
<!-- Node4&#45;&gt;Node7 -->
<g id="edge6" class="edge">
<title>Node4&#45;&gt;Node7</title>
<path fill="none" stroke="midnightblue" d="M918.16,-108.5C941.78,-98.38 974.43,-84.39 995.13,-75.52"/>
<polygon fill="midnightblue" stroke="midnightblue" points="916.78,-105.29 908.97,-112.44 919.54,-111.72 916.78,-105.29"/>
</g>
<!-- Node8 -->
<g id="node8" class="node">
<title>Node8</title>
<g id="a_node8"><a xlink:href="afsk__test_8cpp.html" target="_top" xlink:title=" ">
<polygon fill="none" stroke="black" points="551,-56.5 551,-75.5 633,-75.5 633,-56.5 551,-56.5"/>
<text text-anchor="middle" x="592" y="-63.5" font-family="Helvetica,sans-Serif" font-size="10.00">afsk_test.cpp</text>
</a>
</g>
</g>
<!-- Node4&#45;&gt;Node8 -->
<g id="edge7" class="edge">
<title>Node4&#45;&gt;Node8</title>
<path fill="none" stroke="midnightblue" d="M849.13,-111.94C795.14,-101.35 691.04,-83.65 633.03,-73.88"/>
<polygon fill="midnightblue" stroke="midnightblue" points="848.73,-115.43 859.23,-113.95 850.11,-108.56 848.73,-115.43"/>
</g>
<!-- Node9 -->
<g id="node9" class="node">
<title>Node9</title>
<g id="a_node9"><a xlink:href="aprs_8hpp.html" target="_top" xlink:title=" ">
<polygon fill="none" stroke="black" points="396.5,-56.5 396.5,-75.5 455.5,-75.5 455.5,-56.5 396.5,-56.5"/>
<text text-anchor="middle" x="426" y="-63.5" font-family="Helvetica,sans-Serif" font-size="10.00">aprs.hpp</text>
</a>
</g>
</g>
<!-- Node4&#45;&gt;Node9 -->
<g id="edge8" class="edge">
<title>Node4&#45;&gt;Node9</title>
<path fill="none" stroke="midnightblue" d="M849.13,-112.1C756.4,-97.57 535.73,-76.97 455.61,-69.67"/>
<polygon fill="midnightblue" stroke="midnightblue" points="848.83,-115.59 859.26,-113.75 849.96,-108.69 848.83,-115.59"/>
</g>
<!-- Node16 -->
<g id="node16" class="node">
<title>Node16</title>
<g id="a_node16"><a xlink:href="pulse__test_8cpp.html" target="_top" xlink:title="PulseAudio output test. Does not use gtest.">
<polygon fill="none" stroke="black" points="695.5,-0.5 695.5,-19.5 782.5,-19.5 782.5,-0.5 695.5,-0.5"/>
<text text-anchor="middle" x="739" y="-7.5" font-family="Helvetica,sans-Serif" font-size="10.00">pulse_test.cpp</text>
</a>
</g>
</g>
<!-- Node4&#45;&gt;Node16 -->
<g id="edge16" class="edge">
<title>Node4&#45;&gt;Node16</title>
<path fill="none" stroke="midnightblue" d="M848.98,-112.05C770.82,-98.48 726.63,-133.54 680,-76 662.92,-54.92 698.12,-31.73 721.15,-19.56"/>
<polygon fill="midnightblue" stroke="midnightblue" points="848.71,-115.56 859.2,-114.07 850.07,-108.69 848.71,-115.56"/>
</g>
<!-- Node10 -->
<g id="node10" class="node">
<title>Node10</title>
<g id="a_node10"><a xlink:href="aprs_8cpp.html" target="_top" xlink:title="APRS implementation.">
<polygon fill="none" stroke="black" points="220,-0.5 220,-19.5 278,-19.5 278,-0.5 220,-0.5"/>
<text text-anchor="middle" x="249" y="-7.5" font-family="Helvetica,sans-Serif" font-size="10.00">aprs.cpp</text>
</a>
</g>
</g>
<!-- Node9&#45;&gt;Node10 -->
<g id="edge9" class="edge">
<title>Node9&#45;&gt;Node10</title>
<path fill="none" stroke="midnightblue" d="M388.1,-53.44C354.72,-43.26 306.9,-28.66 276.91,-19.52"/>
<polygon fill="midnightblue" stroke="midnightblue" points="387.37,-56.87 397.95,-56.44 389.41,-50.18 387.37,-56.87"/>
</g>
<!-- Node11 -->
<g id="node11" class="node">
<title>Node11</title>
<g id="a_node11"><a xlink:href="aprs__demodulator_8cpp.html" target="_top" xlink:title="Implementation of the APRS demodulator class.">
<polygon fill="none" stroke="black" points="296.5,-0.5 296.5,-19.5 421.5,-19.5 421.5,-0.5 296.5,-0.5"/>
<text text-anchor="middle" x="359" y="-7.5" font-family="Helvetica,sans-Serif" font-size="10.00">aprs_demodulator.cpp</text>
</a>
</g>
</g>
<!-- Node9&#45;&gt;Node11 -->
<g id="edge10" class="edge">
<title>Node9&#45;&gt;Node11</title>
<path fill="none" stroke="midnightblue" d="M407.17,-49.82C395.16,-40.15 380.03,-27.95 369.96,-19.83"/>
<polygon fill="midnightblue" stroke="midnightblue" points="405.25,-52.77 415.24,-56.32 409.65,-47.32 405.25,-52.77"/>
</g>
<!-- Node12 -->
<g id="node12" class="node">
<title>Node12</title>
<g id="a_node12"><a xlink:href="aprs__encoders_8cpp.html" target="_top" xlink:title="Encoding functions for APRS packets.">
<polygon fill="none" stroke="black" points="439.5,-0.5 439.5,-19.5 546.5,-19.5 546.5,-0.5 439.5,-0.5"/>
<text text-anchor="middle" x="493" y="-7.5" font-family="Helvetica,sans-Serif" font-size="10.00">aprs_encoders.cpp</text>
</a>
</g>
</g>
<!-- Node9&#45;&gt;Node12 -->
<g id="edge11" class="edge">
<title>Node9&#45;&gt;Node12</title>
<path fill="none" stroke="midnightblue" d="M444.83,-49.82C456.84,-40.15 471.97,-27.95 482.04,-19.83"/>
<polygon fill="midnightblue" stroke="midnightblue" points="442.35,-47.32 436.76,-56.32 446.75,-52.77 442.35,-47.32"/>
</g>
<!-- Node13 -->
<g id="node13" class="node">
<title>Node13</title>
<g id="a_node13"><a xlink:href="aprs__modulator_8cpp.html" target="_top" xlink:title="Implementation of the APRS modulator class.">
<polygon fill="none" stroke="black" points="564.5,-0.5 564.5,-19.5 677.5,-19.5 677.5,-0.5 564.5,-0.5"/>
<text text-anchor="middle" x="621" y="-7.5" font-family="Helvetica,sans-Serif" font-size="10.00">aprs_modulator.cpp</text>
</a>
</g>
</g>
<!-- Node9&#45;&gt;Node13 -->
<g id="edge12" class="edge">
<title>Node9&#45;&gt;Node13</title>
<path fill="none" stroke="midnightblue" d="M465.5,-54.06C502.3,-43.87 556.42,-28.88 590.14,-19.55"/>
<polygon fill="midnightblue" stroke="midnightblue" points="464.32,-50.76 455.62,-56.8 466.19,-57.5 464.32,-50.76"/>
</g>
<!-- Node14 -->
<g id="node14" class="node">
<title>Node14</title>
<g id="a_node14"><a xlink:href="aprs__receiver_8cpp.html" target="_top" xlink:title="Implementation of the APRS receiver class.">
<polygon fill="none" stroke="black" points="0,-0.5 0,-19.5 102,-19.5 102,-0.5 0,-0.5"/>
<text text-anchor="middle" x="51" y="-7.5" font-family="Helvetica,sans-Serif" font-size="10.00">aprs_receiver.cpp</text>
</a>
</g>
</g>
<!-- Node9&#45;&gt;Node14 -->
<g id="edge13" class="edge">
<title>Node9&#45;&gt;Node14</title>
<path fill="none" stroke="midnightblue" d="M386.33,-59.42C326.6,-51.01 210,-34.5 111,-20 108.08,-19.57 105.08,-19.13 102.06,-18.68"/>
<polygon fill="midnightblue" stroke="midnightblue" points="386.07,-62.92 396.46,-60.85 387.04,-55.99 386.07,-62.92"/>
</g>
<!-- Node15 -->
<g id="node15" class="node">
<title>Node15</title>
<g id="a_node15"><a xlink:href="aprs__test_8cpp.html" target="_top" xlink:title=" ">
<polygon fill="none" stroke="black" points="120,-0.5 120,-19.5 202,-19.5 202,-0.5 120,-0.5"/>
<text text-anchor="middle" x="161" y="-7.5" font-family="Helvetica,sans-Serif" font-size="10.00">aprs_test.cpp</text>
</a>
</g>
</g>
<!-- Node9&#45;&gt;Node15 -->
<g id="edge14" class="edge">
<title>Node9&#45;&gt;Node15</title>
<path fill="none" stroke="midnightblue" d="M386.35,-56.92C336.78,-46.82 252.37,-29.62 202.12,-19.38"/>
<polygon fill="midnightblue" stroke="midnightblue" points="385.87,-60.4 396.37,-58.96 387.27,-53.54 385.87,-60.4"/>
</g>
<!-- Node9&#45;&gt;Node16 -->
<g id="edge15" class="edge">
<title>Node9&#45;&gt;Node16</title>
<path fill="none" stroke="midnightblue" d="M465.75,-58.14C524.56,-48 634.35,-29.05 695.33,-18.53"/>
<polygon fill="midnightblue" stroke="midnightblue" points="464.99,-54.72 455.73,-59.87 466.18,-61.62 464.99,-54.72"/>
</g>
<!-- Node18&#45;&gt;Node4 -->
<g id="edge19" class="edge">
<title>Node18&#45;&gt;Node4</title>
<path fill="none" stroke="midnightblue" d="M1212.44,-169.33C1131.9,-157.79 982.27,-136.36 918.75,-127.26"/>
<polygon fill="midnightblue" stroke="midnightblue" points="1211.99,-172.8 1222.39,-170.75 1212.98,-165.87 1211.99,-172.8"/>
</g>
<!-- Node19 -->
<g id="node19" class="node">
<title>Node19</title>
<g id="a_node19"><a xlink:href="modulator_8cpp.html" target="_top" xlink:title="The abstract modulator class implementation.">
<polygon fill="none" stroke="black" points="1187,-112.5 1187,-131.5 1273,-131.5 1273,-112.5 1187,-112.5"/>
<text text-anchor="middle" x="1230" y="-119.5" font-family="Helvetica,sans-Serif" font-size="10.00">modulator.cpp</text>
</a>
</g>
</g>
<!-- Node18&#45;&gt;Node19 -->
<g id="edge20" class="edge">
<title>Node18&#45;&gt;Node19</title>
<path fill="none" stroke="midnightblue" d="M1254.38,-159.57C1248.18,-150.27 1240.83,-139.25 1235.83,-131.75"/>
<polygon fill="midnightblue" stroke="midnightblue" points="1251.6,-161.7 1260.06,-168.08 1257.42,-157.82 1251.6,-161.7"/>
</g>
<!-- Node20 -->
<g id="node20" class="node">
<title>Node20</title>
<g id="a_node20"><a xlink:href="morse__modulator_8cpp.html" target="_top" xlink:title="Simple morse code modulator.">
<polygon fill="none" stroke="black" points="1471,-112.5 1471,-131.5 1593,-131.5 1593,-112.5 1471,-112.5"/>
<text text-anchor="middle" x="1532" y="-119.5" font-family="Helvetica,sans-Serif" font-size="10.00">morse_modulator.cpp</text>
</a>
</g>
</g>
<!-- Node18&#45;&gt;Node20 -->
<g id="edge21" class="edge">
<title>Node18&#45;&gt;Node20</title>
<path fill="none" stroke="midnightblue" d="M1318.17,-166.41C1368.44,-156.2 1443.53,-140.96 1490.05,-131.52"/>
<polygon fill="midnightblue" stroke="midnightblue" points="1317.25,-163.02 1308.15,-168.44 1318.64,-169.88 1317.25,-163.02"/>
</g>
<!-- Node21 -->
<g id="node21" class="node">
<title>Node21</title>
<g id="a_node21"><a xlink:href="psk_8hpp.html" target="_top" xlink:title="Phase Shift Keying Implementation.">
<polygon fill="none" stroke="black" points="1313.5,-56.5 1313.5,-75.5 1368.5,-75.5 1368.5,-56.5 1313.5,-56.5"/>
<text text-anchor="middle" x="1341" y="-63.5" font-family="Helvetica,sans-Serif" font-size="10.00">psk.hpp</text>
</a>
</g>
</g>
<!-- Node18&#45;&gt;Node21 -->
<g id="edge22" class="edge">
<title>Node18&#45;&gt;Node21</title>
<path fill="none" stroke="midnightblue" d="M1277.62,-159.96C1293.87,-136.12 1322.79,-93.71 1335.14,-75.59"/>
<polygon fill="midnightblue" stroke="midnightblue" points="1274.63,-158.13 1271.89,-168.37 1280.41,-162.08 1274.63,-158.13"/>
</g>
<!-- Node25 -->
<g id="node25" class="node">
<title>Node25</title>
<g id="a_node25"><a xlink:href="psk__wave__shaper_8hpp.html" target="_top" xlink:title=" ">
<polygon fill="none" stroke="black" points="1329,-112.5 1329,-131.5 1453,-131.5 1453,-112.5 1329,-112.5"/>
<text text-anchor="middle" x="1391" y="-119.5" font-family="Helvetica,sans-Serif" font-size="10.00">psk_wave_shaper.hpp</text>
</a>
</g>
</g>
<!-- Node18&#45;&gt;Node25 -->
<g id="edge27" class="edge">
<title>Node18&#45;&gt;Node25</title>
<path fill="none" stroke="midnightblue" d="M1295.24,-164.37C1318.65,-154.26 1350.84,-140.35 1371.29,-131.52"/>
<polygon fill="midnightblue" stroke="midnightblue" points="1293.6,-161.26 1285.81,-168.44 1296.37,-167.69 1293.6,-161.26"/>
</g>
<!-- Node27 -->
<g id="node27" class="node">
<title>Node27</title>
<g id="a_node27"><a xlink:href="pulse__audio__writer_8cpp.html" target="_top" xlink:title="Simple pulse audio interface.">
<polygon fill="none" stroke="black" points="1611,-112.5 1611,-131.5 1739,-131.5 1739,-112.5 1611,-112.5"/>
<text text-anchor="middle" x="1675" y="-119.5" font-family="Helvetica,sans-Serif" font-size="10.00">pulse_audio_writer.cpp</text>
</a>
</g>
</g>
<!-- Node18&#45;&gt;Node27 -->
<g id="edge32" class="edge">
<title>Node18&#45;&gt;Node27</title>
<path fill="none" stroke="midnightblue" d="M1319.94,-169.88C1394.99,-159.97 1530.68,-142.05 1610.83,-131.47"/>
<polygon fill="midnightblue" stroke="midnightblue" points="1319.23,-166.44 1309.77,-171.22 1320.14,-173.38 1319.23,-166.44"/>
</g>
<!-- Node28 -->
<g id="node28" class="node">
<title>Node28</title>
<g id="a_node28"><a xlink:href="sstv_8hpp.html" target="_top" xlink:title="SSTV implementation.">
<polygon fill="none" stroke="black" points="1111.5,-112.5 1111.5,-131.5 1168.5,-131.5 1168.5,-112.5 1111.5,-112.5"/>
<text text-anchor="middle" x="1140" y="-119.5" font-family="Helvetica,sans-Serif" font-size="10.00">sstv.hpp</text>
</a>
</g>
</g>
<!-- Node18&#45;&gt;Node28 -->
<g id="edge33" class="edge">
<title>Node18&#45;&gt;Node28</title>
<path fill="none" stroke="midnightblue" d="M1236.84,-164.5C1213.22,-154.38 1180.57,-140.39 1159.87,-131.52"/>
<polygon fill="midnightblue" stroke="midnightblue" points="1235.46,-167.72 1246.03,-168.44 1238.22,-161.29 1235.46,-167.72"/>
</g>
<!-- Node21&#45;&gt;Node2 -->
<g id="edge23" class="edge">
<title>Node21&#45;&gt;Node2</title>
<path fill="none" stroke="midnightblue" d="M1378.46,-55.89C1420.24,-45.73 1487.28,-29.42 1528.03,-19.51"/>
<polygon fill="midnightblue" stroke="midnightblue" points="1377.56,-52.51 1368.67,-58.27 1379.21,-59.31 1377.56,-52.51"/>
</g>
<!-- Node22 -->
<g id="node22" class="node">
<title>Node22</title>
<g id="a_node22"><a xlink:href="psk__modulator_8cpp.html" target="_top" xlink:title="Phase Shift Keying modulator.">
<polygon fill="none" stroke="black" points="1370.5,-0.5 1370.5,-19.5 1479.5,-19.5 1479.5,-0.5 1370.5,-0.5"/>
<text text-anchor="middle" x="1425" y="-7.5" font-family="Helvetica,sans-Serif" font-size="10.00">psk_modulator.cpp</text>
</a>
</g>
</g>
<!-- Node21&#45;&gt;Node22 -->
<g id="edge24" class="edge">
<title>Node21&#45;&gt;Node22</title>
<path fill="none" stroke="midnightblue" d="M1362.93,-50.9C1378.34,-41 1398.45,-28.07 1411.54,-19.65"/>
<polygon fill="midnightblue" stroke="midnightblue" points="1361.02,-47.97 1354.5,-56.32 1364.8,-53.86 1361.02,-47.97"/>
</g>
<!-- Node23 -->
<g id="node23" class="node">
<title>Node23</title>
<g id="a_node23"><a xlink:href="psk__test_8cpp.html" target="_top" xlink:title=" ">
<polygon fill="none" stroke="black" points="1274,-0.5 1274,-19.5 1352,-19.5 1352,-0.5 1274,-0.5"/>
<text text-anchor="middle" x="1313" y="-7.5" font-family="Helvetica,sans-Serif" font-size="10.00">psk_test.cpp</text>
</a>
</g>
</g>
<!-- Node21&#45;&gt;Node23 -->
<g id="edge25" class="edge">
<title>Node21&#45;&gt;Node23</title>
<path fill="none" stroke="midnightblue" d="M1331.66,-46.98C1326.91,-37.82 1321.34,-27.09 1317.54,-19.75"/>
<polygon fill="midnightblue" stroke="midnightblue" points="1328.67,-48.82 1336.38,-56.08 1334.88,-45.59 1328.67,-48.82"/>
</g>
<!-- Node24 -->
<g id="node24" class="node">
<title>Node24</title>
<g id="a_node24"><a xlink:href="varicode_8cpp.html" target="_top" xlink:title="Varicode Implementation.">
<polygon fill="none" stroke="black" points="1176.5,-0.5 1176.5,-19.5 1255.5,-19.5 1255.5,-0.5 1176.5,-0.5"/>
<text text-anchor="middle" x="1216" y="-7.5" font-family="Helvetica,sans-Serif" font-size="10.00">varicode.cpp</text>
</a>
</g>
</g>
<!-- Node21&#45;&gt;Node24 -->
<g id="edge26" class="edge">
<title>Node21&#45;&gt;Node24</title>
<path fill="none" stroke="midnightblue" d="M1311.76,-52.37C1288.35,-42.26 1256.16,-28.35 1235.71,-19.52"/>
<polygon fill="midnightblue" stroke="midnightblue" points="1310.63,-55.69 1321.19,-56.44 1313.4,-49.26 1310.63,-55.69"/>
</g>
<!-- Node25&#45;&gt;Node22 -->
<g id="edge31" class="edge">
<title>Node25&#45;&gt;Node22</title>
<path fill="none" stroke="midnightblue" d="M1396.66,-102.67C1404.1,-78.62 1416.84,-37.39 1422.34,-19.59"/>
<polygon fill="midnightblue" stroke="midnightblue" points="1393.28,-101.78 1393.67,-112.37 1399.96,-103.85 1393.28,-101.78"/>
</g>
<!-- Node26 -->
<g id="node26" class="node">
<title>Node26</title>
<g id="a_node26"><a xlink:href="convolutional__code_8hpp.html" target="_top" xlink:title="Convolutional Code Implementation.">
<polygon fill="none" stroke="black" points="1425,-56.5 1425,-75.5 1557,-75.5 1557,-56.5 1425,-56.5"/>
<text text-anchor="middle" x="1491" y="-63.5" font-family="Helvetica,sans-Serif" font-size="10.00">convolutional_code.hpp</text>
</a>
</g>
</g>
<!-- Node25&#45;&gt;Node26 -->
<g id="edge28" class="edge">
<title>Node25&#45;&gt;Node26</title>
<path fill="none" stroke="midnightblue" d="M1416.09,-107.45C1434.55,-97.48 1459.1,-84.23 1474.97,-75.65"/>
<polygon fill="midnightblue" stroke="midnightblue" points="1414.2,-104.49 1407.07,-112.32 1417.53,-110.65 1414.2,-104.49"/>
</g>
<!-- Node26&#45;&gt;Node2 -->
<g id="edge29" class="edge">
<title>Node26&#45;&gt;Node2</title>
<path fill="none" stroke="midnightblue" d="M1510.87,-50.1C1523.82,-40.38 1540.3,-28.03 1551.22,-19.83"/>
<polygon fill="midnightblue" stroke="midnightblue" points="1508.47,-47.52 1502.57,-56.32 1512.67,-53.12 1508.47,-47.52"/>
</g>
<!-- Node26&#45;&gt;Node22 -->
<g id="edge30" class="edge">
<title>Node26&#45;&gt;Node22</title>
<path fill="none" stroke="midnightblue" d="M1472.45,-49.82C1460.62,-40.15 1445.71,-27.95 1435.8,-19.83"/>
<polygon fill="midnightblue" stroke="midnightblue" points="1470.44,-52.7 1480.4,-56.32 1474.87,-47.28 1470.44,-52.7"/>
</g>
<!-- Node29 -->
<g id="node29" class="node">
<title>Node29</title>
<g id="a_node29"><a xlink:href="sstv__modulator_8cpp.html" target="_top" xlink:title="SSTV implementation.">
<polygon fill="none" stroke="black" points="1084,-56.5 1084,-75.5 1196,-75.5 1196,-56.5 1084,-56.5"/>
<text text-anchor="middle" x="1140" y="-63.5" font-family="Helvetica,sans-Serif" font-size="10.00">sstv_modulator.cpp</text>
</a>
</g>
</g>
<!-- Node28&#45;&gt;Node29 -->
<g id="edge34" class="edge">
<title>Node28&#45;&gt;Node29</title>
<path fill="none" stroke="midnightblue" d="M1140,-101.8C1140,-92.91 1140,-82.78 1140,-75.75"/>
<polygon fill="midnightblue" stroke="midnightblue" points="1136.5,-102.08 1140,-112.08 1143.5,-102.08 1136.5,-102.08"/>
</g>
<!-- Node30 -->
<g id="node30" class="node">
<title>Node30</title>
<g id="a_node30"><a xlink:href="sstv__test_8cpp.html" target="_top" xlink:title=" ">
<polygon fill="none" stroke="black" points="1214.5,-56.5 1214.5,-75.5 1295.5,-75.5 1295.5,-56.5 1214.5,-56.5"/>
<text text-anchor="middle" x="1255" y="-63.5" font-family="Helvetica,sans-Serif" font-size="10.00">sstv_test.cpp</text>
</a>
</g>
</g>
<!-- Node28&#45;&gt;Node30 -->
<g id="edge35" class="edge">
<title>Node28&#45;&gt;Node30</title>
<path fill="none" stroke="midnightblue" d="M1167.48,-108.1C1188.97,-98.01 1218.22,-84.27 1236.86,-75.52"/>
<polygon fill="midnightblue" stroke="midnightblue" points="1165.79,-105.02 1158.22,-112.44 1168.76,-111.36 1165.79,-105.02"/>
</g>
<!-- Node31&#45;&gt;Node4 -->
<g id="edge37" class="edge">
<title>Node31&#45;&gt;Node4</title>
<path fill="none" stroke="midnightblue" d="M1032.47,-165.57C998.14,-155.38 948.67,-140.7 917.7,-131.52"/>
<polygon fill="midnightblue" stroke="midnightblue" points="1031.58,-168.95 1042.16,-168.44 1033.57,-162.24 1031.58,-168.95"/>
</g>
</g>
</svg>
