<?xml version="1.0" encoding="UTF-8" standalone="no"?>
<!DOCTYPE svg PUBLIC "-//W3C//DTD SVG 1.1//EN"
 "http://www.w3.org/Graphics/SVG/1.1/DTD/svg11.dtd">
<!-- Generated by graphviz version 2.43.0 (0)
 -->
<!-- Title: settings.hpp Pages: 1 -->
<svg width="1683pt" height="252pt"
 viewBox="0.00 0.00 1683.50 252.00" xmlns="http://www.w3.org/2000/svg" xmlns:xlink="http://www.w3.org/1999/xlink">
<g id="graph0" class="graph" transform="scale(1 1) rotate(0) translate(4 248)">
<title>settings.hpp</title>
<!-- Node1 -->
<g id="node1" class="node">
<title>Node1</title>
<g id="a_node1"><a xlink:title="Settings structures for SignalEasel.">
<polygon fill="#bfbfbf" stroke="black" points="968,-224.5 968,-243.5 1045,-243.5 1045,-224.5 968,-224.5"/>
<text text-anchor="middle" x="1006.5" y="-231.5" font-family="Helvetica,sans-Serif" font-size="10.00">settings.hpp</text>
</a>
</g>
</g>
<!-- Node2 -->
<g id="node2" class="node">
<title>Node2</title>
<g id="a_node2"><a xlink:href="convolutional__code_8cpp.html" target="_top" xlink:title="Convolutional Code Implementation.">
<polygon fill="none" stroke="black" points="1067,-0.5 1067,-19.5 1198,-19.5 1198,-0.5 1067,-0.5"/>
<text text-anchor="middle" x="1132.5" y="-7.5" font-family="Helvetica,sans-Serif" font-size="10.00">convolutional_code.cpp</text>
</a>
</g>
</g>
<!-- Node1&#45;&gt;Node2 -->
<g id="edge1" class="edge">
<title>Node1&#45;&gt;Node2</title>
<path fill="none" stroke="midnightblue" d="M1012.24,-214.77C1014.79,-206.59 1017.83,-196.82 1020.5,-188 1038.25,-129.46 1022.34,-104.59 1059.5,-56 1072.52,-38.97 1093.99,-26.86 1110.29,-19.52"/>
<polygon fill="midnightblue" stroke="midnightblue" points="1008.87,-213.8 1009.22,-224.38 1015.55,-215.89 1008.87,-213.8"/>
</g>
<!-- Node3 -->
<g id="node3" class="node">
<title>Node3</title>
<g id="a_node3"><a xlink:href="demodulator_8hpp.html" target="_top" xlink:title="Base class for demodulators.">
<polygon fill="none" stroke="black" points="818,-168.5 818,-187.5 917,-187.5 917,-168.5 818,-168.5"/>
<text text-anchor="middle" x="867.5" y="-175.5" font-family="Helvetica,sans-Serif" font-size="10.00">demodulator.hpp</text>
</a>
</g>
</g>
<!-- Node1&#45;&gt;Node3 -->
<g id="edge2" class="edge">
<title>Node1&#45;&gt;Node3</title>
<path fill="none" stroke="midnightblue" d="M975.02,-220.77C948.91,-210.63 912.46,-196.47 889.42,-187.52"/>
<polygon fill="midnightblue" stroke="midnightblue" points="973.89,-224.08 984.48,-224.44 976.42,-217.56 973.89,-224.08"/>
</g>
<!-- Node19 -->
<g id="node19" class="node">
<title>Node19</title>
<g id="a_node19"><a xlink:href="modulator_8hpp.html" target="_top" xlink:title="Modulator base class.">
<polygon fill="none" stroke="black" points="1286,-168.5 1286,-187.5 1373,-187.5 1373,-168.5 1286,-168.5"/>
<text text-anchor="middle" x="1329.5" y="-175.5" font-family="Helvetica,sans-Serif" font-size="10.00">modulator.hpp</text>
</a>
</g>
</g>
<!-- Node1&#45;&gt;Node19 -->
<g id="edge19" class="edge">
<title>Node1&#45;&gt;Node19</title>
<path fill="none" stroke="midnightblue" d="M1055.17,-224.86C1117.85,-214.39 1225.83,-196.33 1285.93,-186.28"/>
<polygon fill="midnightblue" stroke="midnightblue" points="1054.43,-221.44 1045.14,-226.54 1055.58,-228.34 1054.43,-221.44"/>
</g>
<!-- Node32 -->
<g id="node32" class="node">
<title>Node32</title>
<g id="a_node32"><a xlink:href="receiver_8hpp.html" target="_top" xlink:title="Base class for receivers. Demodulators that use pulse audio.">
<polygon fill="none" stroke="black" points="935,-168.5 935,-187.5 1012,-187.5 1012,-168.5 935,-168.5"/>
<text text-anchor="middle" x="973.5" y="-175.5" font-family="Helvetica,sans-Serif" font-size="10.00">receiver.hpp</text>
</a>
</g>
</g>
<!-- Node1&#45;&gt;Node32 -->
<g id="edge37" class="edge">
<title>Node1&#45;&gt;Node32</title>
<path fill="none" stroke="midnightblue" d="M995.67,-215.27C990.03,-206.05 983.38,-195.17 978.85,-187.75"/>
<polygon fill="midnightblue" stroke="midnightblue" points="992.85,-217.38 1001.05,-224.08 998.82,-213.73 992.85,-217.38"/>
</g>
<!-- Node4 -->
<g id="node4" class="node">
<title>Node4</title>
<g id="a_node4"><a xlink:href="afsk_8hpp.html" target="_top" xlink:title="AFSK related modulation/demodulation.">
<polygon fill="none" stroke="black" points="871,-112.5 871,-131.5 930,-131.5 930,-112.5 871,-112.5"/>
<text text-anchor="middle" x="900.5" y="-119.5" font-family="Helvetica,sans-Serif" font-size="10.00">afsk.hpp</text>
</a>
</g>
</g>
<!-- Node3&#45;&gt;Node4 -->
<g id="edge3" class="edge">
<title>Node3&#45;&gt;Node4</title>
<path fill="none" stroke="midnightblue" d="M878.33,-159.27C883.97,-150.05 890.62,-139.17 895.15,-131.75"/>
<polygon fill="midnightblue" stroke="midnightblue" points="875.18,-157.73 872.95,-168.08 881.15,-161.38 875.18,-157.73"/>
</g>
<!-- Node18 -->
<g id="node18" class="node">
<title>Node18</title>
<g id="a_node18"><a xlink:href="demodulator_8cpp.html" target="_top" xlink:title="The demodulator class implementation.">
<polygon fill="none" stroke="black" points="754.5,-112.5 754.5,-131.5 852.5,-131.5 852.5,-112.5 754.5,-112.5"/>
<text text-anchor="middle" x="803.5" y="-119.5" font-family="Helvetica,sans-Serif" font-size="10.00">demodulator.cpp</text>
</a>
</g>
</g>
<!-- Node3&#45;&gt;Node18 -->
<g id="edge18" class="edge">
<title>Node3&#45;&gt;Node18</title>
<path fill="none" stroke="midnightblue" d="M849.51,-161.82C838.04,-152.15 823.59,-139.95 813.97,-131.83"/>
<polygon fill="midnightblue" stroke="midnightblue" points="847.32,-164.55 857.22,-168.32 851.83,-159.2 847.32,-164.55"/>
</g>
<!-- Node5 -->
<g id="node5" class="node">
<title>Node5</title>
<g id="a_node5"><a xlink:href="afsk__demodulator_8cpp.html" target="_top" xlink:title="The AFSK demodulator class implementation.">
<polygon fill="none" stroke="black" points="498,-56.5 498,-75.5 623,-75.5 623,-56.5 498,-56.5"/>
<text text-anchor="middle" x="560.5" y="-63.5" font-family="Helvetica,sans-Serif" font-size="10.00">afsk_demodulator.cpp</text>
</a>
</g>
</g>
<!-- Node4&#45;&gt;Node5 -->
<g id="edge4" class="edge">
<title>Node4&#45;&gt;Node5</title>
<path fill="none" stroke="midnightblue" d="M860.83,-112C772.63,-95.46 681.84,-82.65 623,-74.89"/>
<polygon fill="midnightblue" stroke="midnightblue" points="860.26,-115.46 870.74,-113.88 861.57,-108.58 860.26,-115.46"/>
</g>
<!-- Node6 -->
<g id="node6" class="node">
<title>Node6</title>
<g id="a_node6"><a xlink:href="afsk__modulator_8cpp.html" target="_top" xlink:title="The AFSK modulator class implementation.">
<polygon fill="none" stroke="black" points="641,-56.5 641,-75.5 754,-75.5 754,-56.5 641,-56.5"/>
<text text-anchor="middle" x="697.5" y="-63.5" font-family="Helvetica,sans-Serif" font-size="10.00">afsk_modulator.cpp</text>
</a>
</g>
</g>
<!-- Node4&#45;&gt;Node6 -->
<g id="edge5" class="edge">
<title>Node4&#45;&gt;Node6</title>
<path fill="none" stroke="midnightblue" d="M861.21,-110.55C822.92,-100.36 765.42,-85.07 729.74,-75.58"/>
<polygon fill="midnightblue" stroke="midnightblue" points="860.42,-113.96 870.98,-113.15 862.22,-107.19 860.42,-113.96"/>
</g>
<!-- Node7 -->
<g id="node7" class="node">
<title>Node7</title>
<g id="a_node7"><a xlink:href="afsk__receiver_8cpp.html" target="_top" xlink:title="Implementation of the AFSK receiver class.">
<polygon fill="none" stroke="black" points="772.5,-56.5 772.5,-75.5 874.5,-75.5 874.5,-56.5 772.5,-56.5"/>
<text text-anchor="middle" x="823.5" y="-63.5" font-family="Helvetica,sans-Serif" font-size="10.00">afsk_receiver.cpp</text>
</a>
</g>
</g>
<!-- Node4&#45;&gt;Node7 -->
<g id="edge6" class="edge">
<title>Node4&#45;&gt;Node7</title>
<path fill="none" stroke="midnightblue" d="M879.6,-106.34C865.59,-96.52 847.62,-83.91 835.84,-75.65"/>
<polygon fill="midnightblue" stroke="midnightblue" points="877.93,-109.45 888.13,-112.32 881.95,-103.72 877.93,-109.45"/>
</g>
<!-- Node8 -->
<g id="node8" class="node">
<title>Node8</title>
<g id="a_node8"><a xlink:href="afsk__test_8cpp.html" target="_top" xlink:title=" ">
<polygon fill="none" stroke="black" points="892.5,-56.5 892.5,-75.5 974.5,-75.5 974.5,-56.5 892.5,-56.5"/>
<text text-anchor="middle" x="933.5" y="-63.5" font-family="Helvetica,sans-Serif" font-size="10.00">afsk_test.cpp</text>
</a>
</g>
</g>
<!-- Node4&#45;&gt;Node8 -->
<g id="edge7" class="edge">
<title>Node4&#45;&gt;Node8</title>
<path fill="none" stroke="midnightblue" d="M911.33,-103.27C916.97,-94.05 923.62,-83.17 928.15,-75.75"/>
<polygon fill="midnightblue" stroke="midnightblue" points="908.18,-101.73 905.95,-112.08 914.15,-105.38 908.18,-101.73"/>
</g>
<!-- Node9 -->
<g id="node9" class="node">
<title>Node9</title>
<g id="a_node9"><a xlink:href="aprs_8hpp.html" target="_top" xlink:title=" ">
<polygon fill="none" stroke="black" points="421,-56.5 421,-75.5 480,-75.5 480,-56.5 421,-56.5"/>
<text text-anchor="middle" x="450.5" y="-63.5" font-family="Helvetica,sans-Serif" font-size="10.00">aprs.hpp</text>
</a>
</g>
</g>
<!-- Node4&#45;&gt;Node9 -->
<g id="edge8" class="edge">
<title>Node4&#45;&gt;Node9</title>
<path fill="none" stroke="midnightblue" d="M860.74,-112.1C695.34,-85.91 649.59,-102.72 488.5,-76 485.82,-75.56 483.06,-75.03 480.29,-74.46"/>
<polygon fill="midnightblue" stroke="midnightblue" points="860.34,-115.58 870.77,-113.72 861.45,-108.67 860.34,-115.58"/>
</g>
<!-- Node17 -->
<g id="node17" class="node">
<title>Node17</title>
<g id="a_node17"><a xlink:href="pulse__test_8cpp.html" target="_top" xlink:title="PulseAudio output test. Does not use gtest.">
<polygon fill="none" stroke="black" points="901,-0.5 901,-19.5 988,-19.5 988,-0.5 901,-0.5"/>
<text text-anchor="middle" x="944.5" y="-7.5" font-family="Helvetica,sans-Serif" font-size="10.00">pulse_test.cpp</text>
</a>
</g>
</g>
<!-- Node4&#45;&gt;Node17 -->
<g id="edge17" class="edge">
<title>Node4&#45;&gt;Node17</title>
<path fill="none" stroke="midnightblue" d="M939.73,-109.74C956.28,-102.83 973.9,-92.13 983.5,-76 995.55,-55.76 971.68,-32.04 956.23,-19.61"/>
<polygon fill="midnightblue" stroke="midnightblue" points="938.28,-106.55 930.18,-113.38 940.77,-113.09 938.28,-106.55"/>
</g>
<!-- Node10 -->
<g id="node10" class="node">
<title>Node10</title>
<g id="a_node10"><a xlink:href="aprs_8cpp.html" target="_top" xlink:title="APRS implementation.">
<polygon fill="none" stroke="black" points="765.5,-0.5 765.5,-19.5 823.5,-19.5 823.5,-0.5 765.5,-0.5"/>
<text text-anchor="middle" x="794.5" y="-7.5" font-family="Helvetica,sans-Serif" font-size="10.00">aprs.cpp</text>
</a>
</g>
</g>
<!-- Node9&#45;&gt;Node10 -->
<g id="edge9" class="edge">
<title>Node9&#45;&gt;Node10</title>
<path fill="none" stroke="midnightblue" d="M490.47,-55.78C608.47,-34.53 641.56,-41.28 756.5,-20 759.3,-19.48 762.2,-18.89 765.1,-18.27"/>
<polygon fill="midnightblue" stroke="midnightblue" points="489.52,-52.4 480.31,-57.64 490.78,-59.29 489.52,-52.4"/>
</g>
<!-- Node11 -->
<g id="node11" class="node">
<title>Node11</title>
<g id="a_node11"><a xlink:href="aprs__demodulator_8cpp.html" target="_top" xlink:title="Implementation of the APRS demodulator class.">
<polygon fill="none" stroke="black" points="0,-0.5 0,-19.5 125,-19.5 125,-0.5 0,-0.5"/>
<text text-anchor="middle" x="62.5" y="-7.5" font-family="Helvetica,sans-Serif" font-size="10.00">aprs_demodulator.cpp</text>
</a>
</g>
</g>
<!-- Node9&#45;&gt;Node11 -->
<g id="edge10" class="edge">
<title>Node9&#45;&gt;Node11</title>
<path fill="none" stroke="midnightblue" d="M410.4,-59.42C342.37,-49.95 203.9,-30.68 123.69,-19.52"/>
<polygon fill="midnightblue" stroke="midnightblue" points="410.31,-62.94 420.7,-60.85 411.28,-56.01 410.31,-62.94"/>
</g>
<!-- Node12 -->
<g id="node12" class="node">
<title>Node12</title>
<g id="a_node12"><a xlink:href="aprs__encoders_8cpp.html" target="_top" xlink:title="Encoding functions for APRS packets.">
<polygon fill="none" stroke="black" points="143,-0.5 143,-19.5 250,-19.5 250,-0.5 143,-0.5"/>
<text text-anchor="middle" x="196.5" y="-7.5" font-family="Helvetica,sans-Serif" font-size="10.00">aprs_encoders.cpp</text>
</a>
</g>
</g>
<!-- Node9&#45;&gt;Node12 -->
<g id="edge11" class="edge">
<title>Node9&#45;&gt;Node12</title>
<path fill="none" stroke="midnightblue" d="M410.97,-56.6C363.56,-46.52 284.54,-29.72 236.8,-19.57"/>
<polygon fill="midnightblue" stroke="midnightblue" points="410.36,-60.04 420.87,-58.7 411.81,-53.2 410.36,-60.04"/>
</g>
<!-- Node13 -->
<g id="node13" class="node">
<title>Node13</title>
<g id="a_node13"><a xlink:href="aprs__modulator_8cpp.html" target="_top" xlink:title="Implementation of the APRS modulator class.">
<polygon fill="none" stroke="black" points="268,-0.5 268,-19.5 381,-19.5 381,-0.5 268,-0.5"/>
<text text-anchor="middle" x="324.5" y="-7.5" font-family="Helvetica,sans-Serif" font-size="10.00">aprs_modulator.cpp</text>
</a>
</g>
</g>
<!-- Node9&#45;&gt;Node13 -->
<g id="edge12" class="edge">
<title>Node9&#45;&gt;Node13</title>
<path fill="none" stroke="midnightblue" d="M421.34,-52.5C397.72,-42.38 365.07,-28.39 344.37,-19.52"/>
<polygon fill="midnightblue" stroke="midnightblue" points="419.96,-55.72 430.53,-56.44 422.72,-49.29 419.96,-55.72"/>
</g>
<!-- Node14 -->
<g id="node14" class="node">
<title>Node14</title>
<g id="a_node14"><a xlink:href="aprs__receiver_8cpp.html" target="_top" xlink:title="Implementation of the APRS receiver class.">
<polygon fill="none" stroke="black" points="399.5,-0.5 399.5,-19.5 501.5,-19.5 501.5,-0.5 399.5,-0.5"/>
<text text-anchor="middle" x="450.5" y="-7.5" font-family="Helvetica,sans-Serif" font-size="10.00">aprs_receiver.cpp</text>
</a>
</g>
</g>
<!-- Node9&#45;&gt;Node14 -->
<g id="edge13" class="edge">
<title>Node9&#45;&gt;Node14</title>
<path fill="none" stroke="midnightblue" d="M450.5,-45.8C450.5,-36.91 450.5,-26.78 450.5,-19.75"/>
<polygon fill="midnightblue" stroke="midnightblue" points="447,-46.08 450.5,-56.08 454,-46.08 447,-46.08"/>
</g>
<!-- Node15 -->
<g id="node15" class="node">
<title>Node15</title>
<g id="a_node15"><a xlink:href="aprs__receiver__test_8cpp.html" target="_top" xlink:title="Integration tests for signal_easel::aprs::Receiver.">
<polygon fill="none" stroke="black" points="520,-0.5 520,-19.5 647,-19.5 647,-0.5 520,-0.5"/>
<text text-anchor="middle" x="583.5" y="-7.5" font-family="Helvetica,sans-Serif" font-size="10.00">aprs_receiver_test.cpp</text>
</a>
</g>
</g>
<!-- Node9&#45;&gt;Node15 -->
<g id="edge14" class="edge">
<title>Node9&#45;&gt;Node15</title>
<path fill="none" stroke="midnightblue" d="M480.95,-52.64C505.91,-42.5 540.58,-28.43 562.52,-19.52"/>
<polygon fill="midnightblue" stroke="midnightblue" points="479.52,-49.44 471.57,-56.44 482.16,-55.92 479.52,-49.44"/>
</g>
<!-- Node16 -->
<g id="node16" class="node">
<title>Node16</title>
<g id="a_node16"><a xlink:href="aprs__test_8cpp.html" target="_top" xlink:title=" ">
<polygon fill="none" stroke="black" points="665.5,-0.5 665.5,-19.5 747.5,-19.5 747.5,-0.5 665.5,-0.5"/>
<text text-anchor="middle" x="706.5" y="-7.5" font-family="Helvetica,sans-Serif" font-size="10.00">aprs_test.cpp</text>
</a>
</g>
</g>
<!-- Node9&#45;&gt;Node16 -->
<g id="edge15" class="edge">
<title>Node9&#45;&gt;Node16</title>
<path fill="none" stroke="midnightblue" d="M490.16,-55.67C556.65,-41.02 623.62,-27.45 665.44,-19.11"/>
<polygon fill="midnightblue" stroke="midnightblue" points="489.36,-52.27 480.35,-57.84 490.87,-59.1 489.36,-52.27"/>
</g>
<!-- Node9&#45;&gt;Node17 -->
<g id="edge16" class="edge">
<title>Node9&#45;&gt;Node17</title>
<path fill="none" stroke="midnightblue" d="M490.29,-55.93C584.11,-41.4 806.45,-22.36 900.95,-14.55"/>
<polygon fill="midnightblue" stroke="midnightblue" points="489.61,-52.5 480.29,-57.54 490.72,-59.41 489.61,-52.5"/>
</g>
<!-- Node19&#45;&gt;Node4 -->
<g id="edge20" class="edge">
<title>Node19&#45;&gt;Node4</title>
<path fill="none" stroke="midnightblue" d="M1275.44,-170.2C1183.93,-158.68 1001.49,-135.71 930.11,-126.73"/>
<polygon fill="midnightblue" stroke="midnightblue" points="1275.25,-173.7 1285.61,-171.47 1276.12,-166.75 1275.25,-173.7"/>
</g>
<!-- Node20 -->
<g id="node20" class="node">
<title>Node20</title>
<g id="a_node20"><a xlink:href="modulator_8cpp.html" target="_top" xlink:title="The abstract modulator class implementation.">
<polygon fill="none" stroke="black" points="1432.5,-112.5 1432.5,-131.5 1518.5,-131.5 1518.5,-112.5 1432.5,-112.5"/>
<text text-anchor="middle" x="1475.5" y="-119.5" font-family="Helvetica,sans-Serif" font-size="10.00">modulator.cpp</text>
</a>
</g>
</g>
<!-- Node19&#45;&gt;Node20 -->
<g id="edge21" class="edge">
<title>Node19&#45;&gt;Node20</title>
<path fill="none" stroke="midnightblue" d="M1362.2,-164.91C1389.65,-154.75 1428.17,-140.51 1452.47,-131.52"/>
<polygon fill="midnightblue" stroke="midnightblue" points="1360.8,-161.69 1352.63,-168.44 1363.23,-168.26 1360.8,-161.69"/>
</g>
<!-- Node21 -->
<g id="node21" class="node">
<title>Node21</title>
<g id="a_node21"><a xlink:href="morse__modulator_8cpp.html" target="_top" xlink:title="Simple morse code modulator.">
<polygon fill="none" stroke="black" points="1536.5,-112.5 1536.5,-131.5 1658.5,-131.5 1658.5,-112.5 1536.5,-112.5"/>
<text text-anchor="middle" x="1597.5" y="-119.5" font-family="Helvetica,sans-Serif" font-size="10.00">morse_modulator.cpp</text>
</a>
</g>
</g>
<!-- Node19&#45;&gt;Node21 -->
<g id="edge22" class="edge">
<title>Node19&#45;&gt;Node21</title>
<path fill="none" stroke="midnightblue" d="M1382.06,-166.41C1432.71,-156.2 1508.37,-140.96 1555.23,-131.52"/>
<polygon fill="midnightblue" stroke="midnightblue" points="1381.08,-163.04 1371.97,-168.44 1382.46,-169.9 1381.08,-163.04"/>
</g>
<!-- Node22 -->
<g id="node22" class="node">
<title>Node22</title>
<g id="a_node22"><a xlink:href="psk_8hpp.html" target="_top" xlink:title="Phase Shift Keying Implementation.">
<polygon fill="none" stroke="black" points="1486,-56.5 1486,-75.5 1541,-75.5 1541,-56.5 1486,-56.5"/>
<text text-anchor="middle" x="1513.5" y="-63.5" font-family="Helvetica,sans-Serif" font-size="10.00">psk.hpp</text>
</a>
</g>
</g>
<!-- Node19&#45;&gt;Node22 -->
<g id="edge23" class="edge">
<title>Node19&#45;&gt;Node22</title>
<path fill="none" stroke="midnightblue" d="M1383.1,-173.69C1473.69,-167.54 1649.08,-153.04 1667.5,-132 1704.97,-89.21 1594.79,-73.84 1541.09,-68.99"/>
<polygon fill="midnightblue" stroke="midnightblue" points="1382.76,-170.2 1373.02,-174.36 1383.23,-177.19 1382.76,-170.2"/>
</g>
<!-- Node26 -->
<g id="node26" class="node">
<title>Node26</title>
<g id="a_node26"><a xlink:href="psk__wave__shaper_8hpp.html" target="_top" xlink:title=" ">
<polygon fill="none" stroke="black" points="1068.5,-112.5 1068.5,-131.5 1192.5,-131.5 1192.5,-112.5 1068.5,-112.5"/>
<text text-anchor="middle" x="1130.5" y="-119.5" font-family="Helvetica,sans-Serif" font-size="10.00">psk_wave_shaper.hpp</text>
</a>
</g>
</g>
<!-- Node19&#45;&gt;Node26 -->
<g id="edge28" class="edge">
<title>Node19&#45;&gt;Node26</title>
<path fill="none" stroke="midnightblue" d="M1287.85,-165.7C1250.29,-155.51 1195.89,-140.74 1161.88,-131.52"/>
<polygon fill="midnightblue" stroke="midnightblue" points="1287.4,-169.2 1297.97,-168.44 1289.23,-162.45 1287.4,-169.2"/>
</g>
<!-- Node28 -->
<g id="node28" class="node">
<title>Node28</title>
<g id="a_node28"><a xlink:href="pulse__audio__writer_8cpp.html" target="_top" xlink:title="Simple pulse audio interface.">
<polygon fill="none" stroke="black" points="1210.5,-112.5 1210.5,-131.5 1338.5,-131.5 1338.5,-112.5 1210.5,-112.5"/>
<text text-anchor="middle" x="1274.5" y="-119.5" font-family="Helvetica,sans-Serif" font-size="10.00">pulse_audio_writer.cpp</text>
</a>
</g>
</g>
<!-- Node19&#45;&gt;Node28 -->
<g id="edge33" class="edge">
<title>Node19&#45;&gt;Node28</title>
<path fill="none" stroke="midnightblue" d="M1313.21,-161C1303.46,-151.43 1291.45,-139.64 1283.41,-131.75"/>
<polygon fill="midnightblue" stroke="midnightblue" points="1310.83,-163.57 1320.42,-168.08 1315.73,-158.58 1310.83,-163.57"/>
</g>
<!-- Node29 -->
<g id="node29" class="node">
<title>Node29</title>
<g id="a_node29"><a xlink:href="sstv_8hpp.html" target="_top" xlink:title="SSTV implementation.">
<polygon fill="none" stroke="black" points="1357,-112.5 1357,-131.5 1414,-131.5 1414,-112.5 1357,-112.5"/>
<text text-anchor="middle" x="1385.5" y="-119.5" font-family="Helvetica,sans-Serif" font-size="10.00">sstv.hpp</text>
</a>
</g>
</g>
<!-- Node19&#45;&gt;Node29 -->
<g id="edge34" class="edge">
<title>Node19&#45;&gt;Node29</title>
<path fill="none" stroke="midnightblue" d="M1345.83,-161.25C1355.76,-151.67 1368.09,-139.79 1376.34,-131.83"/>
<polygon fill="midnightblue" stroke="midnightblue" points="1343.27,-158.86 1338.5,-168.32 1348.13,-163.9 1343.27,-158.86"/>
</g>
<!-- Node22&#45;&gt;Node2 -->
<g id="edge24" class="edge">
<title>Node22&#45;&gt;Node2</title>
<path fill="none" stroke="midnightblue" d="M1475.59,-55.93C1426.76,-47.9 1283.6,-29.81 1198.22,-19.16"/>
<polygon fill="midnightblue" stroke="midnightblue" points="1475.21,-59.42 1485.66,-57.7 1476.42,-52.52 1475.21,-59.42"/>
</g>
<!-- Node23 -->
<g id="node23" class="node">
<title>Node23</title>
<g id="a_node23"><a xlink:href="psk__modulator_8cpp.html" target="_top" xlink:title="Phase Shift Keying modulator.">
<polygon fill="none" stroke="black" points="1216,-0.5 1216,-19.5 1325,-19.5 1325,-0.5 1216,-0.5"/>
<text text-anchor="middle" x="1270.5" y="-7.5" font-family="Helvetica,sans-Serif" font-size="10.00">psk_modulator.cpp</text>
</a>
</g>
</g>
<!-- Node22&#45;&gt;Node23 -->
<g id="edge25" class="edge">
<title>Node22&#45;&gt;Node23</title>
<path fill="none" stroke="midnightblue" d="M1475.61,-55.61C1413.3,-41.13 1351.13,-27.85 1311.43,-19.51"/>
<polygon fill="midnightblue" stroke="midnightblue" points="1475.08,-59.07 1485.61,-57.94 1476.67,-52.26 1475.08,-59.07"/>
</g>
<!-- Node24 -->
<g id="node24" class="node">
<title>Node24</title>
<g id="a_node24"><a xlink:href="psk__test_8cpp.html" target="_top" xlink:title=" ">
<polygon fill="none" stroke="black" points="1523.5,-0.5 1523.5,-19.5 1601.5,-19.5 1601.5,-0.5 1523.5,-0.5"/>
<text text-anchor="middle" x="1562.5" y="-7.5" font-family="Helvetica,sans-Serif" font-size="10.00">psk_test.cpp</text>
</a>
</g>
</g>
<!-- Node22&#45;&gt;Node24 -->
<g id="edge26" class="edge">
<title>Node22&#45;&gt;Node24</title>
<path fill="none" stroke="midnightblue" d="M1528.53,-48.43C1537.12,-38.97 1547.54,-27.48 1554.56,-19.75"/>
<polygon fill="midnightblue" stroke="midnightblue" points="1525.72,-46.33 1521.59,-56.08 1530.9,-51.03 1525.72,-46.33"/>
</g>
<!-- Node25 -->
<g id="node25" class="node">
<title>Node25</title>
<g id="a_node25"><a xlink:href="varicode_8cpp.html" target="_top" xlink:title="Varicode Implementation.">
<polygon fill="none" stroke="black" points="1426,-0.5 1426,-19.5 1505,-19.5 1505,-0.5 1426,-0.5"/>
<text text-anchor="middle" x="1465.5" y="-7.5" font-family="Helvetica,sans-Serif" font-size="10.00">varicode.cpp</text>
</a>
</g>
</g>
<!-- Node22&#45;&gt;Node25 -->
<g id="edge27" class="edge">
<title>Node22&#45;&gt;Node25</title>
<path fill="none" stroke="midnightblue" d="M1498.77,-48.43C1490.36,-38.97 1480.15,-27.48 1473.28,-19.75"/>
<polygon fill="midnightblue" stroke="midnightblue" points="1496.31,-50.93 1505.57,-56.08 1501.55,-46.28 1496.31,-50.93"/>
</g>
<!-- Node26&#45;&gt;Node23 -->
<g id="edge32" class="edge">
<title>Node26&#45;&gt;Node23</title>
<path fill="none" stroke="midnightblue" d="M1158.27,-107.79C1174.03,-99.67 1193.69,-88.46 1209.5,-76 1231.62,-58.57 1253.12,-33.07 1263.7,-19.78"/>
<polygon fill="midnightblue" stroke="midnightblue" points="1156.4,-104.81 1149.04,-112.43 1159.55,-111.07 1156.4,-104.81"/>
</g>
<!-- Node27 -->
<g id="node27" class="node">
<title>Node27</title>
<g id="a_node27"><a xlink:href="convolutional__code_8hpp.html" target="_top" xlink:title="Convolutional Code Implementation.">
<polygon fill="none" stroke="black" points="1068.5,-56.5 1068.5,-75.5 1200.5,-75.5 1200.5,-56.5 1068.5,-56.5"/>
<text text-anchor="middle" x="1134.5" y="-63.5" font-family="Helvetica,sans-Serif" font-size="10.00">convolutional_code.hpp</text>
</a>
</g>
</g>
<!-- Node26&#45;&gt;Node27 -->
<g id="edge29" class="edge">
<title>Node26&#45;&gt;Node27</title>
<path fill="none" stroke="midnightblue" d="M1131.9,-102.1C1132.56,-93.14 1133.33,-82.86 1133.85,-75.75"/>
<polygon fill="midnightblue" stroke="midnightblue" points="1128.41,-101.85 1131.16,-112.08 1135.39,-102.37 1128.41,-101.85"/>
</g>
<!-- Node27&#45;&gt;Node2 -->
<g id="edge30" class="edge">
<title>Node27&#45;&gt;Node2</title>
<path fill="none" stroke="midnightblue" d="M1133.79,-45.8C1133.46,-36.91 1133.08,-26.78 1132.82,-19.75"/>
<polygon fill="midnightblue" stroke="midnightblue" points="1130.3,-46.22 1134.17,-56.08 1137.3,-45.96 1130.3,-46.22"/>
</g>
<!-- Node27&#45;&gt;Node23 -->
<g id="edge31" class="edge">
<title>Node27&#45;&gt;Node23</title>
<path fill="none" stroke="midnightblue" d="M1165.63,-52.64C1191.16,-42.5 1226.61,-28.43 1249.05,-19.52"/>
<polygon fill="midnightblue" stroke="midnightblue" points="1164.05,-49.5 1156.05,-56.44 1166.64,-56.01 1164.05,-49.5"/>
</g>
<!-- Node30 -->
<g id="node30" class="node">
<title>Node30</title>
<g id="a_node30"><a xlink:href="sstv__modulator_8cpp.html" target="_top" xlink:title="SSTV implementation.">
<polygon fill="none" stroke="black" points="1256.5,-56.5 1256.5,-75.5 1368.5,-75.5 1368.5,-56.5 1256.5,-56.5"/>
<text text-anchor="middle" x="1312.5" y="-63.5" font-family="Helvetica,sans-Serif" font-size="10.00">sstv_modulator.cpp</text>
</a>
</g>
</g>
<!-- Node29&#45;&gt;Node30 -->
<g id="edge35" class="edge">
<title>Node29&#45;&gt;Node30</title>
<path fill="none" stroke="midnightblue" d="M1365.36,-106.1C1352.22,-96.38 1335.52,-84.03 1324.44,-75.83"/>
<polygon fill="midnightblue" stroke="midnightblue" points="1363.65,-109.19 1373.77,-112.32 1367.81,-103.56 1363.65,-109.19"/>
</g>
<!-- Node31 -->
<g id="node31" class="node">
<title>Node31</title>
<g id="a_node31"><a xlink:href="sstv__test_8cpp.html" target="_top" xlink:title=" ">
<polygon fill="none" stroke="black" points="1387,-56.5 1387,-75.5 1468,-75.5 1468,-56.5 1387,-56.5"/>
<text text-anchor="middle" x="1427.5" y="-63.5" font-family="Helvetica,sans-Serif" font-size="10.00">sstv_test.cpp</text>
</a>
</g>
</g>
<!-- Node29&#45;&gt;Node31 -->
<g id="edge36" class="edge">
<title>Node29&#45;&gt;Node31</title>
<path fill="none" stroke="midnightblue" d="M1398.61,-104.14C1405.93,-94.74 1414.74,-83.4 1420.69,-75.75"/>
<polygon fill="midnightblue" stroke="midnightblue" points="1395.81,-102.04 1392.44,-112.08 1401.34,-106.34 1395.81,-102.04"/>
</g>
<!-- Node32&#45;&gt;Node4 -->
<g id="edge38" class="edge">
<title>Node32&#45;&gt;Node4</title>
<path fill="none" stroke="midnightblue" d="M953.36,-162.1C940.22,-152.38 923.52,-140.03 912.44,-131.83"/>
<polygon fill="midnightblue" stroke="midnightblue" points="951.65,-165.19 961.77,-168.32 955.81,-159.56 951.65,-165.19"/>
</g>
</g>
</svg>
