<?xml version="1.0" encoding="UTF-8" standalone="no"?>
<!DOCTYPE svg PUBLIC "-//W3C//DTD SVG 1.1//EN"
 "http://www.w3.org/Graphics/SVG/1.1/DTD/svg11.dtd">
<!-- Generated by graphviz version 2.43.0 (0)
 -->
<!-- Title: settings.hpp Pages: 1 -->
<svg width="803pt" height="252pt"
 viewBox="0.00 0.00 802.50 252.00" xmlns="http://www.w3.org/2000/svg" xmlns:xlink="http://www.w3.org/1999/xlink">
<g id="graph0" class="graph" transform="scale(1 1) rotate(0) translate(4 248)">
<title>settings.hpp</title>
<!-- Node1 -->
<g id="node1" class="node">
<title>Node1</title>
<g id="a_node1"><a xlink:title="Settings structures for SignalEasel.">
<polygon fill="#bfbfbf" stroke="black" points="341,-224.5 341,-243.5 418,-243.5 418,-224.5 341,-224.5"/>
<text text-anchor="middle" x="379.5" y="-231.5" font-family="Helvetica,sans-Serif" font-size="10.00">settings.hpp</text>
</a>
</g>
</g>
<!-- Node2 -->
<g id="node2" class="node">
<title>Node2</title>
<g id="a_node2"><a xlink:href="demodulator_8hpp.html" target="_top" xlink:title="Base class for demodulators.">
<polygon fill="none" stroke="black" points="224,-168.5 224,-187.5 323,-187.5 323,-168.5 224,-168.5"/>
<text text-anchor="middle" x="273.5" y="-175.5" font-family="Helvetica,sans-Serif" font-size="10.00">demodulator.hpp</text>
</a>
</g>
</g>
<!-- Node1&#45;&gt;Node2 -->
<g id="edge1" class="edge">
<title>Node1&#45;&gt;Node2</title>
<path fill="none" stroke="midnightblue" d="M353.44,-219.73C333.82,-209.73 307.47,-196.31 290.49,-187.65"/>
<polygon fill="midnightblue" stroke="midnightblue" points="351.97,-222.9 362.47,-224.32 355.15,-216.67 351.97,-222.9"/>
</g>
<!-- Node14 -->
<g id="node14" class="node">
<title>Node14</title>
<g id="a_node14"><a xlink:href="modulator_8hpp.html" target="_top" xlink:title="Modulator base class.">
<polygon fill="none" stroke="black" points="436,-168.5 436,-187.5 523,-187.5 523,-168.5 436,-168.5"/>
<text text-anchor="middle" x="479.5" y="-175.5" font-family="Helvetica,sans-Serif" font-size="10.00">modulator.hpp</text>
</a>
</g>
</g>
<!-- Node1&#45;&gt;Node14 -->
<g id="edge14" class="edge">
<title>Node1&#45;&gt;Node14</title>
<path fill="none" stroke="midnightblue" d="M404.59,-219.45C423.05,-209.48 447.6,-196.23 463.47,-187.65"/>
<polygon fill="midnightblue" stroke="midnightblue" points="402.7,-216.49 395.57,-224.32 406.03,-222.65 402.7,-216.49"/>
</g>
<!-- Node18 -->
<g id="node18" class="node">
<title>Node18</title>
<g id="a_node18"><a xlink:href="receiver_8hpp.html" target="_top" xlink:title="Base class for receivers. Demodulators that use pulse audio.">
<polygon fill="none" stroke="black" points="341,-168.5 341,-187.5 418,-187.5 418,-168.5 341,-168.5"/>
<text text-anchor="middle" x="379.5" y="-175.5" font-family="Helvetica,sans-Serif" font-size="10.00">receiver.hpp</text>
</a>
</g>
</g>
<!-- Node1&#45;&gt;Node18 -->
<g id="edge19" class="edge">
<title>Node1&#45;&gt;Node18</title>
<path fill="none" stroke="midnightblue" d="M379.5,-213.8C379.5,-204.91 379.5,-194.78 379.5,-187.75"/>
<polygon fill="midnightblue" stroke="midnightblue" points="376,-214.08 379.5,-224.08 383,-214.08 376,-214.08"/>
</g>
<!-- Node3 -->
<g id="node3" class="node">
<title>Node3</title>
<g id="a_node3"><a xlink:href="demodulator_8cpp.html" target="_top" xlink:title="The demodulator class implementation.">
<polygon fill="none" stroke="black" points="224.5,-112.5 224.5,-131.5 322.5,-131.5 322.5,-112.5 224.5,-112.5"/>
<text text-anchor="middle" x="273.5" y="-119.5" font-family="Helvetica,sans-Serif" font-size="10.00">demodulator.cpp</text>
</a>
</g>
</g>
<!-- Node2&#45;&gt;Node3 -->
<g id="edge2" class="edge">
<title>Node2&#45;&gt;Node3</title>
<path fill="none" stroke="midnightblue" d="M273.5,-157.8C273.5,-148.91 273.5,-138.78 273.5,-131.75"/>
<polygon fill="midnightblue" stroke="midnightblue" points="270,-158.08 273.5,-168.08 277,-158.08 270,-158.08"/>
</g>
<!-- Node4 -->
<g id="node4" class="node">
<title>Node4</title>
<g id="a_node4"><a xlink:href="afsk_8hpp.html" target="_top" xlink:title="AFSK related modulation/demodulation.">
<polygon fill="none" stroke="black" points="345,-112.5 345,-131.5 404,-131.5 404,-112.5 345,-112.5"/>
<text text-anchor="middle" x="374.5" y="-119.5" font-family="Helvetica,sans-Serif" font-size="10.00">afsk.hpp</text>
</a>
</g>
</g>
<!-- Node2&#45;&gt;Node4 -->
<g id="edge3" class="edge">
<title>Node2&#45;&gt;Node4</title>
<path fill="none" stroke="midnightblue" d="M298.58,-163.59C317.26,-153.61 342.2,-140.27 358.31,-131.65"/>
<polygon fill="midnightblue" stroke="midnightblue" points="296.9,-160.52 289.73,-168.32 300.2,-166.7 296.9,-160.52"/>
</g>
<!-- Node5 -->
<g id="node5" class="node">
<title>Node5</title>
<g id="a_node5"><a xlink:href="afsk__demodulator_8cpp.html" target="_top" xlink:title="The AFSK demodulator class implementation.">
<polygon fill="none" stroke="black" points="0,-56.5 0,-75.5 125,-75.5 125,-56.5 0,-56.5"/>
<text text-anchor="middle" x="62.5" y="-63.5" font-family="Helvetica,sans-Serif" font-size="10.00">afsk_demodulator.cpp</text>
</a>
</g>
</g>
<!-- Node4&#45;&gt;Node5 -->
<g id="edge4" class="edge">
<title>Node4&#45;&gt;Node5</title>
<path fill="none" stroke="midnightblue" d="M334.8,-112.63C333.69,-112.41 332.59,-112.2 331.5,-112 257.63,-98.1 171.93,-84.13 117.48,-75.53"/>
<polygon fill="midnightblue" stroke="midnightblue" points="334.43,-116.12 344.92,-114.65 335.8,-109.26 334.43,-116.12"/>
</g>
<!-- Node6 -->
<g id="node6" class="node">
<title>Node6</title>
<g id="a_node6"><a xlink:href="afsk__modulator_8cpp.html" target="_top" xlink:title="The AFSK modulator class implementation.">
<polygon fill="none" stroke="black" points="143,-56.5 143,-75.5 256,-75.5 256,-56.5 143,-56.5"/>
<text text-anchor="middle" x="199.5" y="-63.5" font-family="Helvetica,sans-Serif" font-size="10.00">afsk_modulator.cpp</text>
</a>
</g>
</g>
<!-- Node4&#45;&gt;Node6 -->
<g id="edge5" class="edge">
<title>Node4&#45;&gt;Node6</title>
<path fill="none" stroke="midnightblue" d="M337.03,-109.44C304.03,-99.26 256.74,-84.66 227.1,-75.52"/>
<polygon fill="midnightblue" stroke="midnightblue" points="336.18,-112.84 346.77,-112.44 338.25,-106.15 336.18,-112.84"/>
</g>
<!-- Node7 -->
<g id="node7" class="node">
<title>Node7</title>
<g id="a_node7"><a xlink:href="afsk__receiver_8cpp.html" target="_top" xlink:title="Implementation of the AFSK receiver class.">
<polygon fill="none" stroke="black" points="274.5,-56.5 274.5,-75.5 376.5,-75.5 376.5,-56.5 274.5,-56.5"/>
<text text-anchor="middle" x="325.5" y="-63.5" font-family="Helvetica,sans-Serif" font-size="10.00">afsk_receiver.cpp</text>
</a>
</g>
</g>
<!-- Node4&#45;&gt;Node7 -->
<g id="edge6" class="edge">
<title>Node4&#45;&gt;Node7</title>
<path fill="none" stroke="midnightblue" d="M359.47,-104.43C350.88,-94.97 340.46,-83.48 333.44,-75.75"/>
<polygon fill="midnightblue" stroke="midnightblue" points="357.1,-107.03 366.41,-112.08 362.28,-102.33 357.1,-107.03"/>
</g>
<!-- Node8 -->
<g id="node8" class="node">
<title>Node8</title>
<g id="a_node8"><a xlink:href="aprs_8hpp.html" target="_top" xlink:title="APRS implementation.">
<polygon fill="none" stroke="black" points="395,-56.5 395,-75.5 454,-75.5 454,-56.5 395,-56.5"/>
<text text-anchor="middle" x="424.5" y="-63.5" font-family="Helvetica,sans-Serif" font-size="10.00">aprs.hpp</text>
</a>
</g>
</g>
<!-- Node4&#45;&gt;Node8 -->
<g id="edge7" class="edge">
<title>Node4&#45;&gt;Node8</title>
<path fill="none" stroke="midnightblue" d="M389.58,-104.72C398.39,-95.2 409.17,-83.56 416.4,-75.75"/>
<polygon fill="midnightblue" stroke="midnightblue" points="386.98,-102.37 382.76,-112.08 392.12,-107.12 386.98,-102.37"/>
</g>
<!-- Node12 -->
<g id="node12" class="node">
<title>Node12</title>
<g id="a_node12"><a xlink:href="pulse__test_8cpp.html" target="_top" xlink:title="PulseAudio output test. Does not use gtest.">
<polygon fill="none" stroke="black" points="484,-0.5 484,-19.5 571,-19.5 571,-0.5 484,-0.5"/>
<text text-anchor="middle" x="527.5" y="-7.5" font-family="Helvetica,sans-Serif" font-size="10.00">pulse_test.cpp</text>
</a>
</g>
</g>
<!-- Node4&#45;&gt;Node12 -->
<g id="edge13" class="edge">
<title>Node4&#45;&gt;Node12</title>
<path fill="none" stroke="midnightblue" d="M405.08,-108.24C422.65,-100.22 444.71,-88.95 462.5,-76 485.99,-58.91 508.93,-33.27 520.23,-19.87"/>
<polygon fill="midnightblue" stroke="midnightblue" points="403.54,-105.09 395.83,-112.35 406.39,-111.49 403.54,-105.09"/>
</g>
<!-- Node13 -->
<g id="node13" class="node">
<title>Node13</title>
<g id="a_node13"><a xlink:href="afsk__test_8cpp.html" target="_top" xlink:title=" ">
<polygon fill="none" stroke="black" points="510.5,-56.5 510.5,-75.5 592.5,-75.5 592.5,-56.5 510.5,-56.5"/>
<text text-anchor="middle" x="551.5" y="-63.5" font-family="Helvetica,sans-Serif" font-size="10.00">afsk_test.cpp</text>
</a>
</g>
</g>
<!-- Node4&#45;&gt;Node13 -->
<g id="edge12" class="edge">
<title>Node4&#45;&gt;Node13</title>
<path fill="none" stroke="midnightblue" d="M412.4,-109.44C445.78,-99.26 493.6,-84.66 523.59,-75.52"/>
<polygon fill="midnightblue" stroke="midnightblue" points="411.09,-106.18 402.55,-112.44 413.13,-112.87 411.09,-106.18"/>
</g>
<!-- Node9 -->
<g id="node9" class="node">
<title>Node9</title>
<g id="a_node9"><a xlink:href="aprs__receiver_8cpp.html" target="_top" xlink:title="Implementation of the APRS receiver class.">
<polygon fill="none" stroke="black" points="187.5,-0.5 187.5,-19.5 289.5,-19.5 289.5,-0.5 187.5,-0.5"/>
<text text-anchor="middle" x="238.5" y="-7.5" font-family="Helvetica,sans-Serif" font-size="10.00">aprs_receiver.cpp</text>
</a>
</g>
</g>
<!-- Node8&#45;&gt;Node9 -->
<g id="edge8" class="edge">
<title>Node8&#45;&gt;Node9</title>
<path fill="none" stroke="midnightblue" d="M385.12,-53.57C350.03,-43.38 299.48,-28.7 267.83,-19.52"/>
<polygon fill="midnightblue" stroke="midnightblue" points="384.45,-57.02 395.03,-56.44 386.4,-50.29 384.45,-57.02"/>
</g>
<!-- Node10 -->
<g id="node10" class="node">
<title>Node10</title>
<g id="a_node10"><a xlink:href="aprs_8cpp.html" target="_top" xlink:title="APRS implementation.">
<polygon fill="none" stroke="black" points="307.5,-0.5 307.5,-19.5 365.5,-19.5 365.5,-0.5 307.5,-0.5"/>
<text text-anchor="middle" x="336.5" y="-7.5" font-family="Helvetica,sans-Serif" font-size="10.00">aprs.cpp</text>
</a>
</g>
</g>
<!-- Node8&#45;&gt;Node10 -->
<g id="edge9" class="edge">
<title>Node8&#45;&gt;Node10</title>
<path fill="none" stroke="midnightblue" d="M401.52,-50.9C385.39,-41 364.32,-28.07 350.6,-19.65"/>
<polygon fill="midnightblue" stroke="midnightblue" points="400.01,-54.08 410.36,-56.32 403.67,-48.11 400.01,-54.08"/>
</g>
<!-- Node11 -->
<g id="node11" class="node">
<title>Node11</title>
<g id="a_node11"><a xlink:href="aprs__test_8cpp.html" target="_top" xlink:title=" ">
<polygon fill="none" stroke="black" points="383.5,-0.5 383.5,-19.5 465.5,-19.5 465.5,-0.5 383.5,-0.5"/>
<text text-anchor="middle" x="424.5" y="-7.5" font-family="Helvetica,sans-Serif" font-size="10.00">aprs_test.cpp</text>
</a>
</g>
</g>
<!-- Node8&#45;&gt;Node11 -->
<g id="edge10" class="edge">
<title>Node8&#45;&gt;Node11</title>
<path fill="none" stroke="midnightblue" d="M424.5,-45.8C424.5,-36.91 424.5,-26.78 424.5,-19.75"/>
<polygon fill="midnightblue" stroke="midnightblue" points="421,-46.08 424.5,-56.08 428,-46.08 421,-46.08"/>
</g>
<!-- Node8&#45;&gt;Node12 -->
<g id="edge11" class="edge">
<title>Node8&#45;&gt;Node12</title>
<path fill="none" stroke="midnightblue" d="M450.08,-51.59C469.12,-41.61 494.56,-28.27 510.99,-19.65"/>
<polygon fill="midnightblue" stroke="midnightblue" points="448.28,-48.58 441.05,-56.32 451.53,-54.78 448.28,-48.58"/>
</g>
<!-- Node14&#45;&gt;Node4 -->
<g id="edge18" class="edge">
<title>Node14&#45;&gt;Node4</title>
<path fill="none" stroke="midnightblue" d="M453.69,-163.73C434.25,-153.73 408.15,-140.31 391.33,-131.65"/>
<polygon fill="midnightblue" stroke="midnightblue" points="452.14,-166.86 462.63,-168.32 455.34,-160.64 452.14,-166.86"/>
</g>
<!-- Node15 -->
<g id="node15" class="node">
<title>Node15</title>
<g id="a_node15"><a xlink:href="modulator_8cpp.html" target="_top" xlink:title="The abstract modulator class implementation.">
<polygon fill="none" stroke="black" points="422.5,-112.5 422.5,-131.5 508.5,-131.5 508.5,-112.5 422.5,-112.5"/>
<text text-anchor="middle" x="465.5" y="-119.5" font-family="Helvetica,sans-Serif" font-size="10.00">modulator.cpp</text>
</a>
</g>
</g>
<!-- Node14&#45;&gt;Node15 -->
<g id="edge15" class="edge">
<title>Node14&#45;&gt;Node15</title>
<path fill="none" stroke="midnightblue" d="M474.68,-158.4C472.33,-149.36 469.63,-138.94 467.77,-131.75"/>
<polygon fill="midnightblue" stroke="midnightblue" points="471.29,-159.28 477.19,-168.08 478.07,-157.52 471.29,-159.28"/>
</g>
<!-- Node16 -->
<g id="node16" class="node">
<title>Node16</title>
<g id="a_node16"><a xlink:href="morse__modulator_8cpp.html" target="_top" xlink:title="Simple morse code modulator.">
<polygon fill="none" stroke="black" points="526.5,-112.5 526.5,-131.5 648.5,-131.5 648.5,-112.5 526.5,-112.5"/>
<text text-anchor="middle" x="587.5" y="-119.5" font-family="Helvetica,sans-Serif" font-size="10.00">morse_modulator.cpp</text>
</a>
</g>
</g>
<!-- Node14&#45;&gt;Node16 -->
<g id="edge16" class="edge">
<title>Node14&#45;&gt;Node16</title>
<path fill="none" stroke="midnightblue" d="M506.05,-163.73C526.05,-153.73 552.89,-140.31 570.19,-131.65"/>
<polygon fill="midnightblue" stroke="midnightblue" points="504.23,-160.72 496.85,-168.32 507.36,-166.98 504.23,-160.72"/>
</g>
<!-- Node17 -->
<g id="node17" class="node">
<title>Node17</title>
<g id="a_node17"><a xlink:href="pulse__audio__writer_8cpp.html" target="_top" xlink:title=" ">
<polygon fill="none" stroke="black" points="666.5,-112.5 666.5,-131.5 794.5,-131.5 794.5,-112.5 666.5,-112.5"/>
<text text-anchor="middle" x="730.5" y="-119.5" font-family="Helvetica,sans-Serif" font-size="10.00">pulse_audio_writer.cpp</text>
</a>
</g>
</g>
<!-- Node14&#45;&gt;Node17 -->
<g id="edge17" class="edge">
<title>Node14&#45;&gt;Node17</title>
<path fill="none" stroke="midnightblue" d="M529.32,-166.28C576.75,-156.08 647.2,-140.92 690.91,-131.52"/>
<polygon fill="midnightblue" stroke="midnightblue" points="528.31,-162.92 519.27,-168.44 529.78,-169.76 528.31,-162.92"/>
</g>
<!-- Node18&#45;&gt;Node4 -->
<g id="edge20" class="edge">
<title>Node18&#45;&gt;Node4</title>
<path fill="none" stroke="midnightblue" d="M377.75,-158.1C376.92,-149.14 375.97,-138.86 375.31,-131.75"/>
<polygon fill="midnightblue" stroke="midnightblue" points="374.27,-158.45 378.67,-168.08 381.24,-157.8 374.27,-158.45"/>
</g>
</g>
</svg>
