<?xml version="1.0" encoding="UTF-8" standalone="no"?>
<!DOCTYPE svg PUBLIC "-//W3C//DTD SVG 1.1//EN"
 "http://www.w3.org/Graphics/SVG/1.1/DTD/svg11.dtd">
<!-- Generated by graphviz version 2.43.0 (0)
 -->
<!-- Title: settings.hpp Pages: 1 -->
<svg width="1804pt" height="252pt"
 viewBox="0.00 0.00 1803.50 252.00" xmlns="http://www.w3.org/2000/svg" xmlns:xlink="http://www.w3.org/1999/xlink">
<g id="graph0" class="graph" transform="scale(1 1) rotate(0) translate(4 248)">
<title>settings.hpp</title>
<!-- Node1 -->
<g id="node1" class="node">
<title>Node1</title>
<g id="a_node1"><a xlink:title="Settings structures for SignalEasel.">
<polygon fill="#bfbfbf" stroke="black" points="766.5,-224.5 766.5,-243.5 843.5,-243.5 843.5,-224.5 766.5,-224.5"/>
<text text-anchor="middle" x="805" y="-231.5" font-family="Helvetica,sans-Serif" font-size="10.00">settings.hpp</text>
</a>
</g>
</g>
<!-- Node2 -->
<g id="node2" class="node">
<title>Node2</title>
<g id="a_node2"><a xlink:href="convolutional__code_8cpp.html" target="_top" xlink:title="Convolutional Code Implementation.">
<polygon fill="none" stroke="black" points="1343.5,-0.5 1343.5,-19.5 1474.5,-19.5 1474.5,-0.5 1343.5,-0.5"/>
<text text-anchor="middle" x="1409" y="-7.5" font-family="Helvetica,sans-Serif" font-size="10.00">convolutional_code.cpp</text>
</a>
</g>
</g>
<!-- Node1&#45;&gt;Node2 -->
<g id="edge1" class="edge">
<title>Node1&#45;&gt;Node2</title>
<path fill="none" stroke="midnightblue" d="M756.48,-225.34C733.64,-219.15 708.14,-208.02 693,-188 657.46,-141.02 640.65,-98.92 681,-56 703.51,-32.06 1168.37,-17.35 1343.25,-12.65"/>
<polygon fill="midnightblue" stroke="midnightblue" points="755.85,-228.79 766.4,-227.77 757.52,-221.99 755.85,-228.79"/>
</g>
<!-- Node3 -->
<g id="node3" class="node">
<title>Node3</title>
<g id="a_node3"><a xlink:href="demodulator_8hpp.html" target="_top" xlink:title="Base class for demodulators.">
<polygon fill="none" stroke="black" points="702.5,-168.5 702.5,-187.5 801.5,-187.5 801.5,-168.5 702.5,-168.5"/>
<text text-anchor="middle" x="752" y="-175.5" font-family="Helvetica,sans-Serif" font-size="10.00">demodulator.hpp</text>
</a>
</g>
</g>
<!-- Node1&#45;&gt;Node3 -->
<g id="edge2" class="edge">
<title>Node1&#45;&gt;Node3</title>
<path fill="none" stroke="midnightblue" d="M789.02,-216.72C779.68,-207.2 768.25,-195.56 760.59,-187.75"/>
<polygon fill="midnightblue" stroke="midnightblue" points="786.75,-219.4 796.25,-224.08 791.74,-214.49 786.75,-219.4"/>
</g>
<!-- Node18 -->
<g id="node18" class="node">
<title>Node18</title>
<g id="a_node18"><a xlink:href="modulator_8hpp.html" target="_top" xlink:title="Modulator base class.">
<polygon fill="none" stroke="black" points="1256.5,-168.5 1256.5,-187.5 1343.5,-187.5 1343.5,-168.5 1256.5,-168.5"/>
<text text-anchor="middle" x="1300" y="-175.5" font-family="Helvetica,sans-Serif" font-size="10.00">modulator.hpp</text>
</a>
</g>
</g>
<!-- Node1&#45;&gt;Node18 -->
<g id="edge18" class="edge">
<title>Node1&#45;&gt;Node18</title>
<path fill="none" stroke="midnightblue" d="M853.92,-227.66C950.52,-217.12 1164.36,-193.8 1256.44,-183.75"/>
<polygon fill="midnightblue" stroke="midnightblue" points="853.4,-224.2 843.84,-228.76 854.16,-231.16 853.4,-224.2"/>
</g>
<!-- Node31 -->
<g id="node31" class="node">
<title>Node31</title>
<g id="a_node31"><a xlink:href="receiver_8hpp.html" target="_top" xlink:title="Base class for receivers. Demodulators that use pulse audio.">
<polygon fill="none" stroke="black" points="819.5,-168.5 819.5,-187.5 896.5,-187.5 896.5,-168.5 819.5,-168.5"/>
<text text-anchor="middle" x="858" y="-175.5" font-family="Helvetica,sans-Serif" font-size="10.00">receiver.hpp</text>
</a>
</g>
</g>
<!-- Node1&#45;&gt;Node31 -->
<g id="edge36" class="edge">
<title>Node1&#45;&gt;Node31</title>
<path fill="none" stroke="midnightblue" d="M820.98,-216.72C830.32,-207.2 841.75,-195.56 849.41,-187.75"/>
<polygon fill="midnightblue" stroke="midnightblue" points="818.26,-214.49 813.75,-224.08 823.25,-219.4 818.26,-214.49"/>
</g>
<!-- Node4 -->
<g id="node4" class="node">
<title>Node4</title>
<g id="a_node4"><a xlink:href="demodulator_8cpp.html" target="_top" xlink:title="The demodulator class implementation.">
<polygon fill="none" stroke="black" points="703,-112.5 703,-131.5 801,-131.5 801,-112.5 703,-112.5"/>
<text text-anchor="middle" x="752" y="-119.5" font-family="Helvetica,sans-Serif" font-size="10.00">demodulator.cpp</text>
</a>
</g>
</g>
<!-- Node3&#45;&gt;Node4 -->
<g id="edge3" class="edge">
<title>Node3&#45;&gt;Node4</title>
<path fill="none" stroke="midnightblue" d="M752,-157.8C752,-148.91 752,-138.78 752,-131.75"/>
<polygon fill="midnightblue" stroke="midnightblue" points="748.5,-158.08 752,-168.08 755.5,-158.08 748.5,-158.08"/>
</g>
<!-- Node5 -->
<g id="node5" class="node">
<title>Node5</title>
<g id="a_node5"><a xlink:href="afsk_8hpp.html" target="_top" xlink:title="AFSK related modulation/demodulation.">
<polygon fill="none" stroke="black" points="823.5,-112.5 823.5,-131.5 882.5,-131.5 882.5,-112.5 823.5,-112.5"/>
<text text-anchor="middle" x="853" y="-119.5" font-family="Helvetica,sans-Serif" font-size="10.00">afsk.hpp</text>
</a>
</g>
</g>
<!-- Node3&#45;&gt;Node5 -->
<g id="edge4" class="edge">
<title>Node3&#45;&gt;Node5</title>
<path fill="none" stroke="midnightblue" d="M777.08,-163.59C795.76,-153.61 820.7,-140.27 836.81,-131.65"/>
<polygon fill="midnightblue" stroke="midnightblue" points="775.4,-160.52 768.23,-168.32 778.7,-166.7 775.4,-160.52"/>
</g>
<!-- Node6 -->
<g id="node6" class="node">
<title>Node6</title>
<g id="a_node6"><a xlink:href="afsk__demodulator_8cpp.html" target="_top" xlink:title="The AFSK demodulator class implementation.">
<polygon fill="none" stroke="black" points="790.5,-56.5 790.5,-75.5 915.5,-75.5 915.5,-56.5 790.5,-56.5"/>
<text text-anchor="middle" x="853" y="-63.5" font-family="Helvetica,sans-Serif" font-size="10.00">afsk_demodulator.cpp</text>
</a>
</g>
</g>
<!-- Node5&#45;&gt;Node6 -->
<g id="edge5" class="edge">
<title>Node5&#45;&gt;Node6</title>
<path fill="none" stroke="midnightblue" d="M853,-101.8C853,-92.91 853,-82.78 853,-75.75"/>
<polygon fill="midnightblue" stroke="midnightblue" points="849.5,-102.08 853,-112.08 856.5,-102.08 849.5,-102.08"/>
</g>
<!-- Node7 -->
<g id="node7" class="node">
<title>Node7</title>
<g id="a_node7"><a xlink:href="afsk__modulator_8cpp.html" target="_top" xlink:title="The AFSK modulator class implementation.">
<polygon fill="none" stroke="black" points="933.5,-56.5 933.5,-75.5 1046.5,-75.5 1046.5,-56.5 933.5,-56.5"/>
<text text-anchor="middle" x="990" y="-63.5" font-family="Helvetica,sans-Serif" font-size="10.00">afsk_modulator.cpp</text>
</a>
</g>
</g>
<!-- Node5&#45;&gt;Node7 -->
<g id="edge6" class="edge">
<title>Node5&#45;&gt;Node7</title>
<path fill="none" stroke="midnightblue" d="M884.02,-108.77C909.76,-98.63 945.69,-84.47 968.39,-75.52"/>
<polygon fill="midnightblue" stroke="midnightblue" points="882.73,-105.52 874.71,-112.44 885.29,-112.03 882.73,-105.52"/>
</g>
<!-- Node8 -->
<g id="node8" class="node">
<title>Node8</title>
<g id="a_node8"><a xlink:href="afsk__receiver_8cpp.html" target="_top" xlink:title="Implementation of the AFSK receiver class.">
<polygon fill="none" stroke="black" points="1065,-56.5 1065,-75.5 1167,-75.5 1167,-56.5 1065,-56.5"/>
<text text-anchor="middle" x="1116" y="-63.5" font-family="Helvetica,sans-Serif" font-size="10.00">afsk_receiver.cpp</text>
</a>
</g>
</g>
<!-- Node5&#45;&gt;Node8 -->
<g id="edge7" class="edge">
<title>Node5&#45;&gt;Node8</title>
<path fill="none" stroke="midnightblue" d="M892.56,-112.88C941.51,-102.83 1024.48,-85.79 1074.36,-75.55"/>
<polygon fill="midnightblue" stroke="midnightblue" points="891.75,-109.47 882.66,-114.91 893.16,-116.33 891.75,-109.47"/>
</g>
<!-- Node9 -->
<g id="node9" class="node">
<title>Node9</title>
<g id="a_node9"><a xlink:href="aprs_8hpp.html" target="_top" xlink:title="APRS implementation.">
<polygon fill="none" stroke="black" points="458.5,-56.5 458.5,-75.5 517.5,-75.5 517.5,-56.5 458.5,-56.5"/>
<text text-anchor="middle" x="488" y="-63.5" font-family="Helvetica,sans-Serif" font-size="10.00">aprs.hpp</text>
</a>
</g>
</g>
<!-- Node5&#45;&gt;Node9 -->
<g id="edge8" class="edge">
<title>Node5&#45;&gt;Node9</title>
<path fill="none" stroke="midnightblue" d="M813.31,-112.59C812.19,-112.39 811.09,-112.19 810,-112 702.96,-93.34 574.83,-77.3 517.85,-70.49"/>
<polygon fill="midnightblue" stroke="midnightblue" points="812.96,-116.09 823.44,-114.54 814.28,-109.21 812.96,-116.09"/>
</g>
<!-- Node16 -->
<g id="node16" class="node">
<title>Node16</title>
<g id="a_node16"><a xlink:href="pulse__test_8cpp.html" target="_top" xlink:title="PulseAudio output test. Does not use gtest.">
<polygon fill="none" stroke="black" points="696.5,-0.5 696.5,-19.5 783.5,-19.5 783.5,-0.5 696.5,-0.5"/>
<text text-anchor="middle" x="740" y="-7.5" font-family="Helvetica,sans-Serif" font-size="10.00">pulse_test.cpp</text>
</a>
</g>
</g>
<!-- Node5&#45;&gt;Node16 -->
<g id="edge17" class="edge">
<title>Node5&#45;&gt;Node16</title>
<path fill="none" stroke="midnightblue" d="M813.43,-111.93C763.94,-100.4 685.12,-81.34 681,-76 664.52,-54.65 699.03,-31.75 721.9,-19.65"/>
<polygon fill="midnightblue" stroke="midnightblue" points="812.68,-115.35 823.21,-114.2 814.26,-108.53 812.68,-115.35"/>
</g>
<!-- Node17 -->
<g id="node17" class="node">
<title>Node17</title>
<g id="a_node17"><a xlink:href="afsk__test_8cpp.html" target="_top" xlink:title=" ">
<polygon fill="none" stroke="black" points="690,-56.5 690,-75.5 772,-75.5 772,-56.5 690,-56.5"/>
<text text-anchor="middle" x="731" y="-63.5" font-family="Helvetica,sans-Serif" font-size="10.00">afsk_test.cpp</text>
</a>
</g>
</g>
<!-- Node5&#45;&gt;Node17 -->
<g id="edge16" class="edge">
<title>Node5&#45;&gt;Node17</title>
<path fill="none" stroke="midnightblue" d="M824.46,-108.37C801.61,-98.26 770.19,-84.35 750.24,-75.52"/>
<polygon fill="midnightblue" stroke="midnightblue" points="823.11,-111.6 833.67,-112.44 825.94,-105.2 823.11,-111.6"/>
</g>
<!-- Node10 -->
<g id="node10" class="node">
<title>Node10</title>
<g id="a_node10"><a xlink:href="aprs__demodulator_8cpp.html" target="_top" xlink:title="Implementation of the APRS demodulator class.">
<polygon fill="none" stroke="black" points="100.5,-0.5 100.5,-19.5 225.5,-19.5 225.5,-0.5 100.5,-0.5"/>
<text text-anchor="middle" x="163" y="-7.5" font-family="Helvetica,sans-Serif" font-size="10.00">aprs_demodulator.cpp</text>
</a>
</g>
</g>
<!-- Node9&#45;&gt;Node10 -->
<g id="edge9" class="edge">
<title>Node9&#45;&gt;Node10</title>
<path fill="none" stroke="midnightblue" d="M448.27,-58.4C389.4,-48.62 279,-30.27 214.16,-19.5"/>
<polygon fill="midnightblue" stroke="midnightblue" points="447.86,-61.88 458.3,-60.06 449.01,-54.97 447.86,-61.88"/>
</g>
<!-- Node11 -->
<g id="node11" class="node">
<title>Node11</title>
<g id="a_node11"><a xlink:href="aprs__encoders_8cpp.html" target="_top" xlink:title="Encoding functions for APRS packets.">
<polygon fill="none" stroke="black" points="243.5,-0.5 243.5,-19.5 350.5,-19.5 350.5,-0.5 243.5,-0.5"/>
<text text-anchor="middle" x="297" y="-7.5" font-family="Helvetica,sans-Serif" font-size="10.00">aprs_encoders.cpp</text>
</a>
</g>
</g>
<!-- Node9&#45;&gt;Node11 -->
<g id="edge10" class="edge">
<title>Node9&#45;&gt;Node11</title>
<path fill="none" stroke="midnightblue" d="M448.46,-53.82C412.45,-43.64 360.04,-28.82 327.26,-19.56"/>
<polygon fill="midnightblue" stroke="midnightblue" points="447.58,-57.21 458.16,-56.56 449.49,-50.47 447.58,-57.21"/>
</g>
<!-- Node12 -->
<g id="node12" class="node">
<title>Node12</title>
<g id="a_node12"><a xlink:href="aprs__modulator_8cpp.html" target="_top" xlink:title="Implementation of the APRS modulator class.">
<polygon fill="none" stroke="black" points="368.5,-0.5 368.5,-19.5 481.5,-19.5 481.5,-0.5 368.5,-0.5"/>
<text text-anchor="middle" x="425" y="-7.5" font-family="Helvetica,sans-Serif" font-size="10.00">aprs_modulator.cpp</text>
</a>
</g>
</g>
<!-- Node9&#45;&gt;Node12 -->
<g id="edge11" class="edge">
<title>Node9&#45;&gt;Node12</title>
<path fill="none" stroke="midnightblue" d="M469.96,-49.54C458.73,-39.91 444.68,-27.87 435.31,-19.83"/>
<polygon fill="midnightblue" stroke="midnightblue" points="468.01,-52.47 477.88,-56.32 472.56,-47.16 468.01,-52.47"/>
</g>
<!-- Node13 -->
<g id="node13" class="node">
<title>Node13</title>
<g id="a_node13"><a xlink:href="aprs__receiver_8cpp.html" target="_top" xlink:title="Implementation of the APRS receiver class.">
<polygon fill="none" stroke="black" points="500,-0.5 500,-19.5 602,-19.5 602,-0.5 500,-0.5"/>
<text text-anchor="middle" x="551" y="-7.5" font-family="Helvetica,sans-Serif" font-size="10.00">aprs_receiver.cpp</text>
</a>
</g>
</g>
<!-- Node9&#45;&gt;Node13 -->
<g id="edge12" class="edge">
<title>Node9&#45;&gt;Node13</title>
<path fill="none" stroke="midnightblue" d="M506.04,-49.54C517.27,-39.91 531.32,-27.87 540.69,-19.83"/>
<polygon fill="midnightblue" stroke="midnightblue" points="503.44,-47.16 498.12,-56.32 507.99,-52.47 503.44,-47.16"/>
</g>
<!-- Node14 -->
<g id="node14" class="node">
<title>Node14</title>
<g id="a_node14"><a xlink:href="aprs_8cpp.html" target="_top" xlink:title="APRS implementation.">
<polygon fill="none" stroke="black" points="620,-0.5 620,-19.5 678,-19.5 678,-0.5 620,-0.5"/>
<text text-anchor="middle" x="649" y="-7.5" font-family="Helvetica,sans-Serif" font-size="10.00">aprs.cpp</text>
</a>
</g>
</g>
<!-- Node9&#45;&gt;Node14 -->
<g id="edge13" class="edge">
<title>Node9&#45;&gt;Node14</title>
<path fill="none" stroke="midnightblue" d="M523.26,-53.17C553.58,-43 596.57,-28.59 623.61,-19.52"/>
<polygon fill="midnightblue" stroke="midnightblue" points="521.88,-49.95 513.51,-56.44 524.1,-56.58 521.88,-49.95"/>
</g>
<!-- Node15 -->
<g id="node15" class="node">
<title>Node15</title>
<g id="a_node15"><a xlink:href="aprs__test_8cpp.html" target="_top" xlink:title=" ">
<polygon fill="none" stroke="black" points="0,-0.5 0,-19.5 82,-19.5 82,-0.5 0,-0.5"/>
<text text-anchor="middle" x="41" y="-7.5" font-family="Helvetica,sans-Serif" font-size="10.00">aprs_test.cpp</text>
</a>
</g>
</g>
<!-- Node9&#45;&gt;Node15 -->
<g id="edge14" class="edge">
<title>Node9&#45;&gt;Node15</title>
<path fill="none" stroke="midnightblue" d="M448.07,-61.34C376.39,-54.59 221.18,-39.07 91,-20 88.12,-19.58 85.15,-19.12 82.17,-18.63"/>
<polygon fill="midnightblue" stroke="midnightblue" points="447.75,-64.83 458.03,-62.28 448.4,-57.86 447.75,-64.83"/>
</g>
<!-- Node9&#45;&gt;Node16 -->
<g id="edge15" class="edge">
<title>Node9&#45;&gt;Node16</title>
<path fill="none" stroke="midnightblue" d="M527.75,-56.48C574.9,-46.38 653.03,-29.64 700.2,-19.53"/>
<polygon fill="midnightblue" stroke="midnightblue" points="526.94,-53.08 517.9,-58.59 528.41,-59.92 526.94,-53.08"/>
</g>
<!-- Node18&#45;&gt;Node5 -->
<g id="edge27" class="edge">
<title>Node18&#45;&gt;Node5</title>
<path fill="none" stroke="midnightblue" d="M1246.35,-170.52C1151.36,-159.04 956.61,-135.52 882.51,-126.56"/>
<polygon fill="midnightblue" stroke="midnightblue" points="1245.98,-174 1256.33,-171.72 1246.82,-167.05 1245.98,-174"/>
</g>
<!-- Node19 -->
<g id="node19" class="node">
<title>Node19</title>
<g id="a_node19"><a xlink:href="modulator_8cpp.html" target="_top" xlink:title="The abstract modulator class implementation.">
<polygon fill="none" stroke="black" points="1591,-112.5 1591,-131.5 1677,-131.5 1677,-112.5 1591,-112.5"/>
<text text-anchor="middle" x="1634" y="-119.5" font-family="Helvetica,sans-Serif" font-size="10.00">modulator.cpp</text>
</a>
</g>
</g>
<!-- Node18&#45;&gt;Node19 -->
<g id="edge19" class="edge">
<title>Node18&#45;&gt;Node19</title>
<path fill="none" stroke="midnightblue" d="M1353.85,-168.29C1419.81,-157.63 1530.21,-139.78 1590.85,-129.98"/>
<polygon fill="midnightblue" stroke="midnightblue" points="1352.98,-164.89 1343.66,-169.94 1354.1,-171.8 1352.98,-164.89"/>
</g>
<!-- Node20 -->
<g id="node20" class="node">
<title>Node20</title>
<g id="a_node20"><a xlink:href="morse__modulator_8cpp.html" target="_top" xlink:title="Simple morse code modulator.">
<polygon fill="none" stroke="black" points="1041,-112.5 1041,-131.5 1163,-131.5 1163,-112.5 1041,-112.5"/>
<text text-anchor="middle" x="1102" y="-119.5" font-family="Helvetica,sans-Serif" font-size="10.00">morse_modulator.cpp</text>
</a>
</g>
</g>
<!-- Node18&#45;&gt;Node20 -->
<g id="edge20" class="edge">
<title>Node18&#45;&gt;Node20</title>
<path fill="none" stroke="midnightblue" d="M1258.56,-165.7C1221.19,-155.51 1167.06,-140.74 1133.23,-131.52"/>
<polygon fill="midnightblue" stroke="midnightblue" points="1258.06,-169.19 1268.63,-168.44 1259.9,-162.44 1258.06,-169.19"/>
</g>
<!-- Node21 -->
<g id="node21" class="node">
<title>Node21</title>
<g id="a_node21"><a xlink:href="psk__wave__shaper_8hpp.html" target="_top" xlink:title=" ">
<polygon fill="none" stroke="black" points="1411,-112.5 1411,-131.5 1535,-131.5 1535,-112.5 1411,-112.5"/>
<text text-anchor="middle" x="1473" y="-119.5" font-family="Helvetica,sans-Serif" font-size="10.00">psk_wave_shaper.hpp</text>
</a>
</g>
</g>
<!-- Node18&#45;&gt;Node21 -->
<g id="edge21" class="edge">
<title>Node18&#45;&gt;Node21</title>
<path fill="none" stroke="midnightblue" d="M1337.05,-165.44C1369.66,-155.26 1416.41,-140.66 1445.72,-131.52"/>
<polygon fill="midnightblue" stroke="midnightblue" points="1335.92,-162.12 1327.41,-168.44 1338,-168.8 1335.92,-162.12"/>
</g>
<!-- Node24 -->
<g id="node24" class="node">
<title>Node24</title>
<g id="a_node24"><a xlink:href="pulse__audio__writer_8cpp.html" target="_top" xlink:title=" ">
<polygon fill="none" stroke="black" points="1181,-112.5 1181,-131.5 1309,-131.5 1309,-112.5 1181,-112.5"/>
<text text-anchor="middle" x="1245" y="-119.5" font-family="Helvetica,sans-Serif" font-size="10.00">pulse_audio_writer.cpp</text>
</a>
</g>
</g>
<!-- Node18&#45;&gt;Node24 -->
<g id="edge26" class="edge">
<title>Node18&#45;&gt;Node24</title>
<path fill="none" stroke="midnightblue" d="M1283.71,-161C1273.96,-151.43 1261.95,-139.64 1253.91,-131.75"/>
<polygon fill="midnightblue" stroke="midnightblue" points="1281.33,-163.57 1290.92,-168.08 1286.23,-158.58 1281.33,-163.57"/>
</g>
<!-- Node25 -->
<g id="node25" class="node">
<title>Node25</title>
<g id="a_node25"><a xlink:href="psk_8hpp.html" target="_top" xlink:title="Phase Shift Keying Implementation.">
<polygon fill="none" stroke="black" points="1603.5,-56.5 1603.5,-75.5 1658.5,-75.5 1658.5,-56.5 1603.5,-56.5"/>
<text text-anchor="middle" x="1631" y="-63.5" font-family="Helvetica,sans-Serif" font-size="10.00">psk.hpp</text>
</a>
</g>
</g>
<!-- Node18&#45;&gt;Node25 -->
<g id="edge28" class="edge">
<title>Node18&#45;&gt;Node25</title>
<path fill="none" stroke="midnightblue" d="M1353.73,-174.14C1404.59,-169.83 1482.15,-159.03 1544,-132 1576.13,-117.96 1607.5,-90.01 1622.25,-75.77"/>
<polygon fill="midnightblue" stroke="midnightblue" points="1353.31,-170.66 1343.62,-174.94 1353.86,-177.64 1353.31,-170.66"/>
</g>
<!-- Node28 -->
<g id="node28" class="node">
<title>Node28</title>
<g id="a_node28"><a xlink:href="sstv_8hpp.html" target="_top" xlink:title="SSTV implementation.">
<polygon fill="none" stroke="black" points="1327.5,-112.5 1327.5,-131.5 1384.5,-131.5 1384.5,-112.5 1327.5,-112.5"/>
<text text-anchor="middle" x="1356" y="-119.5" font-family="Helvetica,sans-Serif" font-size="10.00">sstv.hpp</text>
</a>
</g>
</g>
<!-- Node18&#45;&gt;Node28 -->
<g id="edge33" class="edge">
<title>Node18&#45;&gt;Node28</title>
<path fill="none" stroke="midnightblue" d="M1316.33,-161.25C1326.26,-151.67 1338.59,-139.79 1346.84,-131.83"/>
<polygon fill="midnightblue" stroke="midnightblue" points="1313.77,-158.86 1309,-168.32 1318.63,-163.9 1313.77,-158.86"/>
</g>
<!-- Node22 -->
<g id="node22" class="node">
<title>Node22</title>
<g id="a_node22"><a xlink:href="convolutional__code_8hpp.html" target="_top" xlink:title="Convolutional Code Implementation.">
<polygon fill="none" stroke="black" points="1415,-56.5 1415,-75.5 1547,-75.5 1547,-56.5 1415,-56.5"/>
<text text-anchor="middle" x="1481" y="-63.5" font-family="Helvetica,sans-Serif" font-size="10.00">convolutional_code.hpp</text>
</a>
</g>
</g>
<!-- Node21&#45;&gt;Node22 -->
<g id="edge22" class="edge">
<title>Node21&#45;&gt;Node22</title>
<path fill="none" stroke="midnightblue" d="M1475.8,-102.1C1477.13,-93.14 1478.65,-82.86 1479.7,-75.75"/>
<polygon fill="midnightblue" stroke="midnightblue" points="1472.32,-101.68 1474.32,-112.08 1479.25,-102.7 1472.32,-101.68"/>
</g>
<!-- Node23 -->
<g id="node23" class="node">
<title>Node23</title>
<g id="a_node23"><a xlink:href="psk__modulator_8cpp.html" target="_top" xlink:title="Phase Shift Keying modulator.">
<polygon fill="none" stroke="black" points="1492.5,-0.5 1492.5,-19.5 1601.5,-19.5 1601.5,-0.5 1492.5,-0.5"/>
<text text-anchor="middle" x="1547" y="-7.5" font-family="Helvetica,sans-Serif" font-size="10.00">psk_modulator.cpp</text>
</a>
</g>
</g>
<!-- Node21&#45;&gt;Node23 -->
<g id="edge25" class="edge">
<title>Node21&#45;&gt;Node23</title>
<path fill="none" stroke="midnightblue" d="M1514.86,-108.61C1530.61,-101.69 1546.9,-91.28 1556,-76 1566.61,-58.18 1557.58,-32.85 1551.48,-19.69"/>
<polygon fill="midnightblue" stroke="midnightblue" points="1513.17,-105.52 1505.18,-112.49 1515.77,-112.02 1513.17,-105.52"/>
</g>
<!-- Node22&#45;&gt;Node2 -->
<g id="edge23" class="edge">
<title>Node22&#45;&gt;Node2</title>
<path fill="none" stroke="midnightblue" d="M1461.13,-50.1C1448.18,-40.38 1431.7,-28.03 1420.78,-19.83"/>
<polygon fill="midnightblue" stroke="midnightblue" points="1459.33,-53.12 1469.43,-56.32 1463.53,-47.52 1459.33,-53.12"/>
</g>
<!-- Node22&#45;&gt;Node23 -->
<g id="edge24" class="edge">
<title>Node22&#45;&gt;Node23</title>
<path fill="none" stroke="midnightblue" d="M1499.55,-49.82C1511.38,-40.15 1526.29,-27.95 1536.2,-19.83"/>
<polygon fill="midnightblue" stroke="midnightblue" points="1497.13,-47.28 1491.6,-56.32 1501.56,-52.7 1497.13,-47.28"/>
</g>
<!-- Node25&#45;&gt;Node2 -->
<g id="edge29" class="edge">
<title>Node25&#45;&gt;Node2</title>
<path fill="none" stroke="midnightblue" d="M1593.54,-55.89C1551.76,-45.73 1484.72,-29.42 1443.97,-19.51"/>
<polygon fill="midnightblue" stroke="midnightblue" points="1592.79,-59.31 1603.33,-58.27 1594.44,-52.51 1592.79,-59.31"/>
</g>
<!-- Node25&#45;&gt;Node23 -->
<g id="edge30" class="edge">
<title>Node25&#45;&gt;Node23</title>
<path fill="none" stroke="midnightblue" d="M1609.07,-50.9C1593.66,-41 1573.55,-28.07 1560.46,-19.65"/>
<polygon fill="midnightblue" stroke="midnightblue" points="1607.2,-53.86 1617.5,-56.32 1610.98,-47.97 1607.2,-53.86"/>
</g>
<!-- Node26 -->
<g id="node26" class="node">
<title>Node26</title>
<g id="a_node26"><a xlink:href="varicode_8cpp.html" target="_top" xlink:title="Varicode Implementation.">
<polygon fill="none" stroke="black" points="1716.5,-0.5 1716.5,-19.5 1795.5,-19.5 1795.5,-0.5 1716.5,-0.5"/>
<text text-anchor="middle" x="1756" y="-7.5" font-family="Helvetica,sans-Serif" font-size="10.00">varicode.cpp</text>
</a>
</g>
</g>
<!-- Node25&#45;&gt;Node26 -->
<g id="edge31" class="edge">
<title>Node25&#45;&gt;Node26</title>
<path fill="none" stroke="midnightblue" d="M1660.24,-52.37C1683.65,-42.26 1715.84,-28.35 1736.29,-19.52"/>
<polygon fill="midnightblue" stroke="midnightblue" points="1658.6,-49.26 1650.81,-56.44 1661.37,-55.69 1658.6,-49.26"/>
</g>
<!-- Node27 -->
<g id="node27" class="node">
<title>Node27</title>
<g id="a_node27"><a xlink:href="psk__test_8cpp.html" target="_top" xlink:title=" ">
<polygon fill="none" stroke="black" points="1620,-0.5 1620,-19.5 1698,-19.5 1698,-0.5 1620,-0.5"/>
<text text-anchor="middle" x="1659" y="-7.5" font-family="Helvetica,sans-Serif" font-size="10.00">psk_test.cpp</text>
</a>
</g>
</g>
<!-- Node25&#45;&gt;Node27 -->
<g id="edge32" class="edge">
<title>Node25&#45;&gt;Node27</title>
<path fill="none" stroke="midnightblue" d="M1640.34,-46.98C1645.09,-37.82 1650.66,-27.09 1654.46,-19.75"/>
<polygon fill="midnightblue" stroke="midnightblue" points="1637.12,-45.59 1635.62,-56.08 1643.33,-48.82 1637.12,-45.59"/>
</g>
<!-- Node29 -->
<g id="node29" class="node">
<title>Node29</title>
<g id="a_node29"><a xlink:href="sstv__modulator_8cpp.html" target="_top" xlink:title="SSTV implementation.">
<polygon fill="none" stroke="black" points="1185,-56.5 1185,-75.5 1297,-75.5 1297,-56.5 1185,-56.5"/>
<text text-anchor="middle" x="1241" y="-63.5" font-family="Helvetica,sans-Serif" font-size="10.00">sstv_modulator.cpp</text>
</a>
</g>
</g>
<!-- Node28&#45;&gt;Node29 -->
<g id="edge34" class="edge">
<title>Node28&#45;&gt;Node29</title>
<path fill="none" stroke="midnightblue" d="M1328.52,-108.1C1307.03,-98.01 1277.78,-84.27 1259.14,-75.52"/>
<polygon fill="midnightblue" stroke="midnightblue" points="1327.24,-111.36 1337.78,-112.44 1330.21,-105.02 1327.24,-111.36"/>
</g>
<!-- Node30 -->
<g id="node30" class="node">
<title>Node30</title>
<g id="a_node30"><a xlink:href="sstv__test_8cpp.html" target="_top" xlink:title=" ">
<polygon fill="none" stroke="black" points="1315.5,-56.5 1315.5,-75.5 1396.5,-75.5 1396.5,-56.5 1315.5,-56.5"/>
<text text-anchor="middle" x="1356" y="-63.5" font-family="Helvetica,sans-Serif" font-size="10.00">sstv_test.cpp</text>
</a>
</g>
</g>
<!-- Node28&#45;&gt;Node30 -->
<g id="edge35" class="edge">
<title>Node28&#45;&gt;Node30</title>
<path fill="none" stroke="midnightblue" d="M1356,-101.8C1356,-92.91 1356,-82.78 1356,-75.75"/>
<polygon fill="midnightblue" stroke="midnightblue" points="1352.5,-102.08 1356,-112.08 1359.5,-102.08 1352.5,-102.08"/>
</g>
<!-- Node31&#45;&gt;Node5 -->
<g id="edge37" class="edge">
<title>Node31&#45;&gt;Node5</title>
<path fill="none" stroke="midnightblue" d="M856.25,-158.1C855.42,-149.14 854.47,-138.86 853.81,-131.75"/>
<polygon fill="midnightblue" stroke="midnightblue" points="852.77,-158.45 857.17,-168.08 859.74,-157.8 852.77,-158.45"/>
</g>
</g>
</svg>
