<?xml version="1.0" encoding="UTF-8" standalone="no"?>
<!DOCTYPE svg PUBLIC "-//W3C//DTD SVG 1.1//EN"
 "http://www.w3.org/Graphics/SVG/1.1/DTD/svg11.dtd">
<!-- Generated by graphviz version 2.43.0 (0)
 -->
<!-- Title: settings.hpp Pages: 1 -->
<svg width="878pt" height="252pt"
 viewBox="0.00 0.00 877.50 252.00" xmlns="http://www.w3.org/2000/svg" xmlns:xlink="http://www.w3.org/1999/xlink">
<g id="graph0" class="graph" transform="scale(1 1) rotate(0) translate(4 248)">
<title>settings.hpp</title>
<!-- Node1 -->
<g id="node1" class="node">
<title>Node1</title>
<g id="a_node1"><a xlink:title="Settings structures for SignalEasel.">
<polygon fill="#bfbfbf" stroke="black" points="416,-224.5 416,-243.5 493,-243.5 493,-224.5 416,-224.5"/>
<text text-anchor="middle" x="454.5" y="-231.5" font-family="Helvetica,sans-Serif" font-size="10.00">settings.hpp</text>
</a>
</g>
</g>
<!-- Node2 -->
<g id="node2" class="node">
<title>Node2</title>
<g id="a_node2"><a xlink:href="demodulator_8hpp.html" target="_top" xlink:title="Base class for demodulators.">
<polygon fill="none" stroke="black" points="299,-168.5 299,-187.5 398,-187.5 398,-168.5 299,-168.5"/>
<text text-anchor="middle" x="348.5" y="-175.5" font-family="Helvetica,sans-Serif" font-size="10.00">demodulator.hpp</text>
</a>
</g>
</g>
<!-- Node1&#45;&gt;Node2 -->
<g id="edge1" class="edge">
<title>Node1&#45;&gt;Node2</title>
<path fill="none" stroke="midnightblue" d="M428.44,-219.73C408.82,-209.73 382.47,-196.31 365.49,-187.65"/>
<polygon fill="midnightblue" stroke="midnightblue" points="426.97,-222.9 437.47,-224.32 430.15,-216.67 426.97,-222.9"/>
</g>
<!-- Node17 -->
<g id="node17" class="node">
<title>Node17</title>
<g id="a_node17"><a xlink:href="modulator_8hpp.html" target="_top" xlink:title="Modulator base class.">
<polygon fill="none" stroke="black" points="511,-168.5 511,-187.5 598,-187.5 598,-168.5 511,-168.5"/>
<text text-anchor="middle" x="554.5" y="-175.5" font-family="Helvetica,sans-Serif" font-size="10.00">modulator.hpp</text>
</a>
</g>
</g>
<!-- Node1&#45;&gt;Node17 -->
<g id="edge17" class="edge">
<title>Node1&#45;&gt;Node17</title>
<path fill="none" stroke="midnightblue" d="M479.59,-219.45C498.05,-209.48 522.6,-196.23 538.47,-187.65"/>
<polygon fill="midnightblue" stroke="midnightblue" points="477.7,-216.49 470.57,-224.32 481.03,-222.65 477.7,-216.49"/>
</g>
<!-- Node21 -->
<g id="node21" class="node">
<title>Node21</title>
<g id="a_node21"><a xlink:href="receiver_8hpp.html" target="_top" xlink:title="Base class for receivers. Demodulators that use pulse audio.">
<polygon fill="none" stroke="black" points="416,-168.5 416,-187.5 493,-187.5 493,-168.5 416,-168.5"/>
<text text-anchor="middle" x="454.5" y="-175.5" font-family="Helvetica,sans-Serif" font-size="10.00">receiver.hpp</text>
</a>
</g>
</g>
<!-- Node1&#45;&gt;Node21 -->
<g id="edge22" class="edge">
<title>Node1&#45;&gt;Node21</title>
<path fill="none" stroke="midnightblue" d="M454.5,-213.8C454.5,-204.91 454.5,-194.78 454.5,-187.75"/>
<polygon fill="midnightblue" stroke="midnightblue" points="451,-214.08 454.5,-224.08 458,-214.08 451,-214.08"/>
</g>
<!-- Node3 -->
<g id="node3" class="node">
<title>Node3</title>
<g id="a_node3"><a xlink:href="demodulator_8cpp.html" target="_top" xlink:title="The demodulator class implementation.">
<polygon fill="none" stroke="black" points="299.5,-112.5 299.5,-131.5 397.5,-131.5 397.5,-112.5 299.5,-112.5"/>
<text text-anchor="middle" x="348.5" y="-119.5" font-family="Helvetica,sans-Serif" font-size="10.00">demodulator.cpp</text>
</a>
</g>
</g>
<!-- Node2&#45;&gt;Node3 -->
<g id="edge2" class="edge">
<title>Node2&#45;&gt;Node3</title>
<path fill="none" stroke="midnightblue" d="M348.5,-157.8C348.5,-148.91 348.5,-138.78 348.5,-131.75"/>
<polygon fill="midnightblue" stroke="midnightblue" points="345,-158.08 348.5,-168.08 352,-158.08 345,-158.08"/>
</g>
<!-- Node4 -->
<g id="node4" class="node">
<title>Node4</title>
<g id="a_node4"><a xlink:href="afsk_8hpp.html" target="_top" xlink:title="AFSK related modulation/demodulation.">
<polygon fill="none" stroke="black" points="420,-112.5 420,-131.5 479,-131.5 479,-112.5 420,-112.5"/>
<text text-anchor="middle" x="449.5" y="-119.5" font-family="Helvetica,sans-Serif" font-size="10.00">afsk.hpp</text>
</a>
</g>
</g>
<!-- Node2&#45;&gt;Node4 -->
<g id="edge3" class="edge">
<title>Node2&#45;&gt;Node4</title>
<path fill="none" stroke="midnightblue" d="M373.58,-163.59C392.26,-153.61 417.2,-140.27 433.31,-131.65"/>
<polygon fill="midnightblue" stroke="midnightblue" points="371.9,-160.52 364.73,-168.32 375.2,-166.7 371.9,-160.52"/>
</g>
<!-- Node5 -->
<g id="node5" class="node">
<title>Node5</title>
<g id="a_node5"><a xlink:href="afsk__demodulator_8cpp.html" target="_top" xlink:title="The AFSK demodulator class implementation.">
<polygon fill="none" stroke="black" points="75,-56.5 75,-75.5 200,-75.5 200,-56.5 75,-56.5"/>
<text text-anchor="middle" x="137.5" y="-63.5" font-family="Helvetica,sans-Serif" font-size="10.00">afsk_demodulator.cpp</text>
</a>
</g>
</g>
<!-- Node4&#45;&gt;Node5 -->
<g id="edge4" class="edge">
<title>Node4&#45;&gt;Node5</title>
<path fill="none" stroke="midnightblue" d="M409.8,-112.63C408.69,-112.41 407.59,-112.2 406.5,-112 332.63,-98.1 246.93,-84.13 192.48,-75.53"/>
<polygon fill="midnightblue" stroke="midnightblue" points="409.43,-116.12 419.92,-114.65 410.8,-109.26 409.43,-116.12"/>
</g>
<!-- Node6 -->
<g id="node6" class="node">
<title>Node6</title>
<g id="a_node6"><a xlink:href="afsk__modulator_8cpp.html" target="_top" xlink:title="The AFSK modulator class implementation.">
<polygon fill="none" stroke="black" points="218,-56.5 218,-75.5 331,-75.5 331,-56.5 218,-56.5"/>
<text text-anchor="middle" x="274.5" y="-63.5" font-family="Helvetica,sans-Serif" font-size="10.00">afsk_modulator.cpp</text>
</a>
</g>
</g>
<!-- Node4&#45;&gt;Node6 -->
<g id="edge5" class="edge">
<title>Node4&#45;&gt;Node6</title>
<path fill="none" stroke="midnightblue" d="M412.03,-109.44C379.03,-99.26 331.74,-84.66 302.1,-75.52"/>
<polygon fill="midnightblue" stroke="midnightblue" points="411.18,-112.84 421.77,-112.44 413.25,-106.15 411.18,-112.84"/>
</g>
<!-- Node7 -->
<g id="node7" class="node">
<title>Node7</title>
<g id="a_node7"><a xlink:href="afsk__receiver_8cpp.html" target="_top" xlink:title="Implementation of the AFSK receiver class.">
<polygon fill="none" stroke="black" points="349.5,-56.5 349.5,-75.5 451.5,-75.5 451.5,-56.5 349.5,-56.5"/>
<text text-anchor="middle" x="400.5" y="-63.5" font-family="Helvetica,sans-Serif" font-size="10.00">afsk_receiver.cpp</text>
</a>
</g>
</g>
<!-- Node4&#45;&gt;Node7 -->
<g id="edge6" class="edge">
<title>Node4&#45;&gt;Node7</title>
<path fill="none" stroke="midnightblue" d="M434.47,-104.43C425.88,-94.97 415.46,-83.48 408.44,-75.75"/>
<polygon fill="midnightblue" stroke="midnightblue" points="432.1,-107.03 441.41,-112.08 437.28,-102.33 432.1,-107.03"/>
</g>
<!-- Node8 -->
<g id="node8" class="node">
<title>Node8</title>
<g id="a_node8"><a xlink:href="aprs_8hpp.html" target="_top" xlink:title="APRS implementation.">
<polygon fill="none" stroke="black" points="470,-56.5 470,-75.5 529,-75.5 529,-56.5 470,-56.5"/>
<text text-anchor="middle" x="499.5" y="-63.5" font-family="Helvetica,sans-Serif" font-size="10.00">aprs.hpp</text>
</a>
</g>
</g>
<!-- Node4&#45;&gt;Node8 -->
<g id="edge7" class="edge">
<title>Node4&#45;&gt;Node8</title>
<path fill="none" stroke="midnightblue" d="M464.58,-104.72C473.39,-95.2 484.17,-83.56 491.4,-75.75"/>
<polygon fill="midnightblue" stroke="midnightblue" points="461.98,-102.37 457.76,-112.08 467.12,-107.12 461.98,-102.37"/>
</g>
<!-- Node15 -->
<g id="node15" class="node">
<title>Node15</title>
<g id="a_node15"><a xlink:href="pulse__test_8cpp.html" target="_top" xlink:title="PulseAudio output test. Does not use gtest.">
<polygon fill="none" stroke="black" points="696,-0.5 696,-19.5 783,-19.5 783,-0.5 696,-0.5"/>
<text text-anchor="middle" x="739.5" y="-7.5" font-family="Helvetica,sans-Serif" font-size="10.00">pulse_test.cpp</text>
</a>
</g>
</g>
<!-- Node4&#45;&gt;Node15 -->
<g id="edge16" class="edge">
<title>Node4&#45;&gt;Node15</title>
<path fill="none" stroke="midnightblue" d="M475.42,-107.75C492.95,-98.79 516.62,-86.69 537.5,-76 554.84,-67.12 558.35,-63.07 576.5,-56 617.53,-40.01 666.44,-27.31 699.91,-19.53"/>
<polygon fill="midnightblue" stroke="midnightblue" points="473.68,-104.71 466.37,-112.38 476.87,-110.94 473.68,-104.71"/>
</g>
<!-- Node16 -->
<g id="node16" class="node">
<title>Node16</title>
<g id="a_node16"><a xlink:href="afsk__test_8cpp.html" target="_top" xlink:title=" ">
<polygon fill="none" stroke="black" points="585.5,-56.5 585.5,-75.5 667.5,-75.5 667.5,-56.5 585.5,-56.5"/>
<text text-anchor="middle" x="626.5" y="-63.5" font-family="Helvetica,sans-Serif" font-size="10.00">afsk_test.cpp</text>
</a>
</g>
</g>
<!-- Node4&#45;&gt;Node16 -->
<g id="edge15" class="edge">
<title>Node4&#45;&gt;Node16</title>
<path fill="none" stroke="midnightblue" d="M487.4,-109.44C520.78,-99.26 568.6,-84.66 598.59,-75.52"/>
<polygon fill="midnightblue" stroke="midnightblue" points="486.09,-106.18 477.55,-112.44 488.13,-112.87 486.09,-106.18"/>
</g>
<!-- Node9 -->
<g id="node9" class="node">
<title>Node9</title>
<g id="a_node9"><a xlink:href="aprs__demodulator_8cpp.html" target="_top" xlink:title="Implementation of the APRS demodulator class.">
<polygon fill="none" stroke="black" points="0,-0.5 0,-19.5 125,-19.5 125,-0.5 0,-0.5"/>
<text text-anchor="middle" x="62.5" y="-7.5" font-family="Helvetica,sans-Serif" font-size="10.00">aprs_demodulator.cpp</text>
</a>
</g>
</g>
<!-- Node8&#45;&gt;Node9 -->
<g id="edge8" class="edge">
<title>Node8&#45;&gt;Node9</title>
<path fill="none" stroke="midnightblue" d="M459.6,-56.04C314.61,-31.76 275.44,-36.81 133.5,-20 130.79,-19.68 128.01,-19.35 125.21,-19.01"/>
<polygon fill="midnightblue" stroke="midnightblue" points="459.32,-59.54 469.76,-57.76 460.49,-52.64 459.32,-59.54"/>
</g>
<!-- Node10 -->
<g id="node10" class="node">
<title>Node10</title>
<g id="a_node10"><a xlink:href="aprs__encoders_8cpp.html" target="_top" xlink:title="Encoding functions for APRS packets.">
<polygon fill="none" stroke="black" points="143,-0.5 143,-19.5 250,-19.5 250,-0.5 143,-0.5"/>
<text text-anchor="middle" x="196.5" y="-7.5" font-family="Helvetica,sans-Serif" font-size="10.00">aprs_encoders.cpp</text>
</a>
</g>
</g>
<!-- Node8&#45;&gt;Node10 -->
<g id="edge9" class="edge">
<title>Node8&#45;&gt;Node10</title>
<path fill="none" stroke="midnightblue" d="M459.65,-55.93C381.03,-40.32 301.27,-27.24 250.01,-19.19"/>
<polygon fill="midnightblue" stroke="midnightblue" points="459.24,-59.41 469.73,-57.94 460.61,-52.55 459.24,-59.41"/>
</g>
<!-- Node11 -->
<g id="node11" class="node">
<title>Node11</title>
<g id="a_node11"><a xlink:href="aprs__modulator_8cpp.html" target="_top" xlink:title="Implementation of the APRS modulator class.">
<polygon fill="none" stroke="black" points="268,-0.5 268,-19.5 381,-19.5 381,-0.5 268,-0.5"/>
<text text-anchor="middle" x="324.5" y="-7.5" font-family="Helvetica,sans-Serif" font-size="10.00">aprs_modulator.cpp</text>
</a>
</g>
</g>
<!-- Node8&#45;&gt;Node11 -->
<g id="edge10" class="edge">
<title>Node8&#45;&gt;Node11</title>
<path fill="none" stroke="midnightblue" d="M462.03,-53.44C429.03,-43.26 381.74,-28.66 352.1,-19.52"/>
<polygon fill="midnightblue" stroke="midnightblue" points="461.18,-56.84 471.77,-56.44 463.25,-50.15 461.18,-56.84"/>
</g>
<!-- Node12 -->
<g id="node12" class="node">
<title>Node12</title>
<g id="a_node12"><a xlink:href="aprs__receiver_8cpp.html" target="_top" xlink:title="Implementation of the APRS receiver class.">
<polygon fill="none" stroke="black" points="399.5,-0.5 399.5,-19.5 501.5,-19.5 501.5,-0.5 399.5,-0.5"/>
<text text-anchor="middle" x="450.5" y="-7.5" font-family="Helvetica,sans-Serif" font-size="10.00">aprs_receiver.cpp</text>
</a>
</g>
</g>
<!-- Node8&#45;&gt;Node12 -->
<g id="edge11" class="edge">
<title>Node8&#45;&gt;Node12</title>
<path fill="none" stroke="midnightblue" d="M484.47,-48.43C475.88,-38.97 465.46,-27.48 458.44,-19.75"/>
<polygon fill="midnightblue" stroke="midnightblue" points="482.1,-51.03 491.41,-56.08 487.28,-46.33 482.1,-51.03"/>
</g>
<!-- Node13 -->
<g id="node13" class="node">
<title>Node13</title>
<g id="a_node13"><a xlink:href="aprs_8cpp.html" target="_top" xlink:title="APRS implementation.">
<polygon fill="none" stroke="black" points="519.5,-0.5 519.5,-19.5 577.5,-19.5 577.5,-0.5 519.5,-0.5"/>
<text text-anchor="middle" x="548.5" y="-7.5" font-family="Helvetica,sans-Serif" font-size="10.00">aprs.cpp</text>
</a>
</g>
</g>
<!-- Node8&#45;&gt;Node13 -->
<g id="edge12" class="edge">
<title>Node8&#45;&gt;Node13</title>
<path fill="none" stroke="midnightblue" d="M514.53,-48.43C523.12,-38.97 533.54,-27.48 540.56,-19.75"/>
<polygon fill="midnightblue" stroke="midnightblue" points="511.72,-46.33 507.59,-56.08 516.9,-51.03 511.72,-46.33"/>
</g>
<!-- Node14 -->
<g id="node14" class="node">
<title>Node14</title>
<g id="a_node14"><a xlink:href="aprs__test_8cpp.html" target="_top" xlink:title=" ">
<polygon fill="none" stroke="black" points="595.5,-0.5 595.5,-19.5 677.5,-19.5 677.5,-0.5 595.5,-0.5"/>
<text text-anchor="middle" x="636.5" y="-7.5" font-family="Helvetica,sans-Serif" font-size="10.00">aprs_test.cpp</text>
</a>
</g>
</g>
<!-- Node8&#45;&gt;Node14 -->
<g id="edge13" class="edge">
<title>Node8&#45;&gt;Node14</title>
<path fill="none" stroke="midnightblue" d="M530.52,-52.77C556.26,-42.63 592.19,-28.47 614.89,-19.52"/>
<polygon fill="midnightblue" stroke="midnightblue" points="529.23,-49.52 521.21,-56.44 531.79,-56.03 529.23,-49.52"/>
</g>
<!-- Node8&#45;&gt;Node15 -->
<g id="edge14" class="edge">
<title>Node8&#45;&gt;Node15</title>
<path fill="none" stroke="midnightblue" d="M539.42,-56.02C584.55,-45.86 657.46,-29.46 701.69,-19.51"/>
<polygon fill="midnightblue" stroke="midnightblue" points="538.4,-52.66 529.41,-58.27 539.94,-59.49 538.4,-52.66"/>
</g>
<!-- Node17&#45;&gt;Node4 -->
<g id="edge21" class="edge">
<title>Node17&#45;&gt;Node4</title>
<path fill="none" stroke="midnightblue" d="M528.69,-163.73C509.25,-153.73 483.15,-140.31 466.33,-131.65"/>
<polygon fill="midnightblue" stroke="midnightblue" points="527.14,-166.86 537.63,-168.32 530.34,-160.64 527.14,-166.86"/>
</g>
<!-- Node18 -->
<g id="node18" class="node">
<title>Node18</title>
<g id="a_node18"><a xlink:href="modulator_8cpp.html" target="_top" xlink:title="The abstract modulator class implementation.">
<polygon fill="none" stroke="black" points="497.5,-112.5 497.5,-131.5 583.5,-131.5 583.5,-112.5 497.5,-112.5"/>
<text text-anchor="middle" x="540.5" y="-119.5" font-family="Helvetica,sans-Serif" font-size="10.00">modulator.cpp</text>
</a>
</g>
</g>
<!-- Node17&#45;&gt;Node18 -->
<g id="edge18" class="edge">
<title>Node17&#45;&gt;Node18</title>
<path fill="none" stroke="midnightblue" d="M549.68,-158.4C547.33,-149.36 544.63,-138.94 542.77,-131.75"/>
<polygon fill="midnightblue" stroke="midnightblue" points="546.29,-159.28 552.19,-168.08 553.07,-157.52 546.29,-159.28"/>
</g>
<!-- Node19 -->
<g id="node19" class="node">
<title>Node19</title>
<g id="a_node19"><a xlink:href="morse__modulator_8cpp.html" target="_top" xlink:title="Simple morse code modulator.">
<polygon fill="none" stroke="black" points="601.5,-112.5 601.5,-131.5 723.5,-131.5 723.5,-112.5 601.5,-112.5"/>
<text text-anchor="middle" x="662.5" y="-119.5" font-family="Helvetica,sans-Serif" font-size="10.00">morse_modulator.cpp</text>
</a>
</g>
</g>
<!-- Node17&#45;&gt;Node19 -->
<g id="edge19" class="edge">
<title>Node17&#45;&gt;Node19</title>
<path fill="none" stroke="midnightblue" d="M581.05,-163.73C601.05,-153.73 627.89,-140.31 645.19,-131.65"/>
<polygon fill="midnightblue" stroke="midnightblue" points="579.23,-160.72 571.85,-168.32 582.36,-166.98 579.23,-160.72"/>
</g>
<!-- Node20 -->
<g id="node20" class="node">
<title>Node20</title>
<g id="a_node20"><a xlink:href="pulse__audio__writer_8cpp.html" target="_top" xlink:title=" ">
<polygon fill="none" stroke="black" points="741.5,-112.5 741.5,-131.5 869.5,-131.5 869.5,-112.5 741.5,-112.5"/>
<text text-anchor="middle" x="805.5" y="-119.5" font-family="Helvetica,sans-Serif" font-size="10.00">pulse_audio_writer.cpp</text>
</a>
</g>
</g>
<!-- Node17&#45;&gt;Node20 -->
<g id="edge20" class="edge">
<title>Node17&#45;&gt;Node20</title>
<path fill="none" stroke="midnightblue" d="M604.32,-166.28C651.75,-156.08 722.2,-140.92 765.91,-131.52"/>
<polygon fill="midnightblue" stroke="midnightblue" points="603.31,-162.92 594.27,-168.44 604.78,-169.76 603.31,-162.92"/>
</g>
<!-- Node21&#45;&gt;Node4 -->
<g id="edge23" class="edge">
<title>Node21&#45;&gt;Node4</title>
<path fill="none" stroke="midnightblue" d="M452.75,-158.1C451.92,-149.14 450.97,-138.86 450.31,-131.75"/>
<polygon fill="midnightblue" stroke="midnightblue" points="449.27,-158.45 453.67,-168.08 456.24,-157.8 449.27,-158.45"/>
</g>
</g>
</svg>
