<?xml version="1.0" encoding="UTF-8" standalone="no"?>
<!DOCTYPE svg PUBLIC "-//W3C//DTD SVG 1.1//EN"
 "http://www.w3.org/Graphics/SVG/1.1/DTD/svg11.dtd">
<!-- Generated by graphviz version 2.43.0 (0)
 -->
<!-- Title: sstv_modulator.cpp Pages: 1 -->
<svg width="589pt" height="252pt"
 viewBox="0.00 0.00 589.00 252.00" xmlns="http://www.w3.org/2000/svg" xmlns:xlink="http://www.w3.org/1999/xlink">
<g id="graph0" class="graph" transform="scale(1 1) rotate(0) translate(4 248)">
<title>sstv_modulator.cpp</title>
<!-- Node1 -->
<g id="node1" class="node">
<title>Node1</title>
<g id="a_node1"><a xlink:title="SSTV implementation.">
<polygon fill="#bfbfbf" stroke="black" points="124,-224.5 124,-243.5 236,-243.5 236,-224.5 124,-224.5"/>
<text text-anchor="middle" x="180" y="-231.5" font-family="Helvetica,sans-Serif" font-size="10.00">sstv_modulator.cpp</text>
</a>
</g>
</g>
<!-- Node2 -->
<g id="node2" class="node">
<title>Node2</title>
<g id="a_node2"><a xlink:href="constants_8hpp.html" target="_top" xlink:title="Common constants used throughout the library.">
<polygon fill="none" stroke="black" points="0,-168.5 0,-187.5 144,-187.5 144,-168.5 0,-168.5"/>
<text text-anchor="middle" x="72" y="-175.5" font-family="Helvetica,sans-Serif" font-size="10.00">SignalEasel/constants.hpp</text>
</a>
</g>
</g>
<!-- Node1&#45;&gt;Node2 -->
<g id="edge1" class="edge">
<title>Node1&#45;&gt;Node2</title>
<path fill="none" stroke="midnightblue" d="M162.65,-224.32C145.33,-215.66 118.48,-202.24 98.5,-192.25"/>
<polygon fill="midnightblue" stroke="midnightblue" points="99.82,-189 89.31,-187.65 96.69,-195.26 99.82,-189"/>
</g>
<!-- Node4 -->
<g id="node4" class="node">
<title>Node4</title>
<g id="a_node4"><a xlink:href="exception_8hpp.html" target="_top" xlink:title="SignalEasel exceptions.">
<polygon fill="none" stroke="black" points="107.5,-112.5 107.5,-131.5 252.5,-131.5 252.5,-112.5 107.5,-112.5"/>
<text text-anchor="middle" x="180" y="-119.5" font-family="Helvetica,sans-Serif" font-size="10.00">SignalEasel/exception.hpp</text>
</a>
</g>
</g>
<!-- Node1&#45;&gt;Node4 -->
<g id="edge3" class="edge">
<title>Node1&#45;&gt;Node4</title>
<path fill="none" stroke="midnightblue" d="M180,-224.37C180,-206.62 180,-165.67 180,-141.6"/>
<polygon fill="midnightblue" stroke="midnightblue" points="183.5,-141.59 180,-131.59 176.5,-141.59 183.5,-141.59"/>
</g>
<!-- Node7 -->
<g id="node7" class="node">
<title>Node7</title>
<g id="a_node7"><a xlink:href="sstv_8hpp.html" target="_top" xlink:title="SSTV implementation.">
<polygon fill="none" stroke="black" points="223,-168.5 223,-187.5 339,-187.5 339,-168.5 223,-168.5"/>
<text text-anchor="middle" x="281" y="-175.5" font-family="Helvetica,sans-Serif" font-size="10.00">SignalEasel/sstv.hpp</text>
</a>
</g>
</g>
<!-- Node1&#45;&gt;Node7 -->
<g id="edge6" class="edge">
<title>Node1&#45;&gt;Node7</title>
<path fill="none" stroke="midnightblue" d="M196.23,-224.32C212.35,-215.7 237.3,-202.36 255.96,-192.39"/>
<polygon fill="midnightblue" stroke="midnightblue" points="257.64,-195.46 264.81,-187.65 254.34,-189.28 257.64,-195.46"/>
</g>
<!-- Node3 -->
<g id="node3" class="node">
<title>Node3</title>
<g id="a_node3"><a xlink:title=" ">
<polygon fill="none" stroke="#bfbfbf" points="39,-112.5 39,-131.5 89,-131.5 89,-112.5 39,-112.5"/>
<text text-anchor="middle" x="64" y="-119.5" font-family="Helvetica,sans-Serif" font-size="10.00">cstdint</text>
</a>
</g>
</g>
<!-- Node2&#45;&gt;Node3 -->
<g id="edge2" class="edge">
<title>Node2&#45;&gt;Node3</title>
<path fill="none" stroke="midnightblue" d="M70.68,-168.08C69.62,-160.93 68.09,-150.64 66.77,-141.69"/>
<polygon fill="midnightblue" stroke="midnightblue" points="70.22,-141.13 65.3,-131.75 63.3,-142.16 70.22,-141.13"/>
</g>
<!-- Node5 -->
<g id="node5" class="node">
<title>Node5</title>
<g id="a_node5"><a xlink:title=" ">
<polygon fill="none" stroke="#bfbfbf" points="147.5,-56.5 147.5,-75.5 212.5,-75.5 212.5,-56.5 147.5,-56.5"/>
<text text-anchor="middle" x="180" y="-63.5" font-family="Helvetica,sans-Serif" font-size="10.00">exception</text>
</a>
</g>
</g>
<!-- Node4&#45;&gt;Node5 -->
<g id="edge4" class="edge">
<title>Node4&#45;&gt;Node5</title>
<path fill="none" stroke="midnightblue" d="M180,-112.08C180,-105.01 180,-94.86 180,-85.99"/>
<polygon fill="midnightblue" stroke="midnightblue" points="183.5,-85.75 180,-75.75 176.5,-85.75 183.5,-85.75"/>
</g>
<!-- Node6 -->
<g id="node6" class="node">
<title>Node6</title>
<g id="a_node6"><a xlink:title=" ">
<polygon fill="none" stroke="#bfbfbf" points="259,-0.5 259,-19.5 303,-19.5 303,-0.5 259,-0.5"/>
<text text-anchor="middle" x="281" y="-7.5" font-family="Helvetica,sans-Serif" font-size="10.00">string</text>
</a>
</g>
</g>
<!-- Node4&#45;&gt;Node6 -->
<g id="edge5" class="edge">
<title>Node4&#45;&gt;Node6</title>
<path fill="none" stroke="midnightblue" d="M187.93,-112.37C204.81,-93.97 244.57,-50.67 266.26,-27.05"/>
<polygon fill="midnightblue" stroke="midnightblue" points="268.93,-29.32 273.11,-19.59 263.77,-24.59 268.93,-29.32"/>
</g>
<!-- Node7&#45;&gt;Node4 -->
<g id="edge8" class="edge">
<title>Node7&#45;&gt;Node4</title>
<path fill="none" stroke="midnightblue" d="M264.77,-168.32C248.65,-159.7 223.7,-146.36 205.04,-136.39"/>
<polygon fill="midnightblue" stroke="midnightblue" points="206.66,-133.28 196.19,-131.65 203.36,-139.46 206.66,-133.28"/>
</g>
<!-- Node7&#45;&gt;Node6 -->
<g id="edge7" class="edge">
<title>Node7&#45;&gt;Node6</title>
<path fill="none" stroke="midnightblue" d="M281,-168.08C281,-141.95 281,-65.21 281,-29.58"/>
<polygon fill="midnightblue" stroke="midnightblue" points="284.5,-29.57 281,-19.57 277.5,-29.57 284.5,-29.57"/>
</g>
<!-- Node8 -->
<g id="node8" class="node">
<title>Node8</title>
<g id="a_node8"><a xlink:href="modulator_8hpp.html" target="_top" xlink:title="Modulator base class.">
<polygon fill="none" stroke="black" points="309,-112.5 309,-131.5 455,-131.5 455,-112.5 309,-112.5"/>
<text text-anchor="middle" x="382" y="-119.5" font-family="Helvetica,sans-Serif" font-size="10.00">SignalEasel/modulator.hpp</text>
</a>
</g>
</g>
<!-- Node7&#45;&gt;Node8 -->
<g id="edge9" class="edge">
<title>Node7&#45;&gt;Node8</title>
<path fill="none" stroke="midnightblue" d="M297.23,-168.32C313.35,-159.7 338.3,-146.36 356.96,-136.39"/>
<polygon fill="midnightblue" stroke="midnightblue" points="358.64,-139.46 365.81,-131.65 355.34,-133.28 358.64,-139.46"/>
</g>
<!-- Node11 -->
<g id="node11" class="node">
<title>Node11</title>
<g id="a_node11"><a xlink:title=" ">
<polygon fill="none" stroke="#bfbfbf" points="473,-112.5 473,-131.5 581,-131.5 581,-112.5 473,-112.5"/>
<text text-anchor="middle" x="527" y="-119.5" font-family="Helvetica,sans-Serif" font-size="10.00">sstv&#45;image&#45;tools.h</text>
</a>
</g>
</g>
<!-- Node7&#45;&gt;Node11 -->
<g id="edge13" class="edge">
<title>Node7&#45;&gt;Node11</title>
<path fill="none" stroke="midnightblue" d="M319.98,-168.44C362.89,-159.02 431.95,-143.87 478.37,-133.68"/>
<polygon fill="midnightblue" stroke="midnightblue" points="479.19,-137.08 488.2,-131.52 477.69,-130.24 479.19,-137.08"/>
</g>
<!-- Node9 -->
<g id="node9" class="node">
<title>Node9</title>
<g id="a_node9"><a xlink:title=" ">
<polygon fill="none" stroke="#bfbfbf" points="309.5,-56.5 309.5,-75.5 356.5,-75.5 356.5,-56.5 309.5,-56.5"/>
<text text-anchor="middle" x="333" y="-63.5" font-family="Helvetica,sans-Serif" font-size="10.00">vector</text>
</a>
</g>
</g>
<!-- Node8&#45;&gt;Node9 -->
<g id="edge10" class="edge">
<title>Node8&#45;&gt;Node9</title>
<path fill="none" stroke="midnightblue" d="M373.91,-112.08C366.84,-104.3 356.41,-92.8 347.85,-83.37"/>
<polygon fill="midnightblue" stroke="midnightblue" points="350.25,-80.8 340.94,-75.75 345.07,-85.51 350.25,-80.8"/>
</g>
<!-- Node10 -->
<g id="node10" class="node">
<title>Node10</title>
<g id="a_node10"><a xlink:href="settings_8hpp.html" target="_top" xlink:title="Settings structures for SignalEasel.">
<polygon fill="none" stroke="black" points="375,-56.5 375,-75.5 511,-75.5 511,-56.5 375,-56.5"/>
<text text-anchor="middle" x="443" y="-63.5" font-family="Helvetica,sans-Serif" font-size="10.00">SignalEasel/settings.hpp</text>
</a>
</g>
</g>
<!-- Node8&#45;&gt;Node10 -->
<g id="edge11" class="edge">
<title>Node8&#45;&gt;Node10</title>
<path fill="none" stroke="midnightblue" d="M391.8,-112.32C400.82,-104.34 414.41,-92.31 425.32,-82.65"/>
<polygon fill="midnightblue" stroke="midnightblue" points="427.85,-85.08 433.02,-75.83 423.21,-79.84 427.85,-85.08"/>
</g>
<!-- Node10&#45;&gt;Node6 -->
<g id="edge12" class="edge">
<title>Node10&#45;&gt;Node6</title>
<path fill="none" stroke="midnightblue" d="M417.33,-56.44C389.04,-47.01 343.48,-31.83 312.91,-21.64"/>
<polygon fill="midnightblue" stroke="midnightblue" points="313.76,-18.23 303.17,-18.39 311.55,-24.87 313.76,-18.23"/>
</g>
</g>
</svg>
