<?xml version="1.0" encoding="UTF-8" standalone="no"?>
<!DOCTYPE svg PUBLIC "-//W3C//DTD SVG 1.1//EN"
 "http://www.w3.org/Graphics/SVG/1.1/DTD/svg11.dtd">
<!-- Generated by graphviz version 2.43.0 (0)
 -->
<!-- Title: sstv.hpp Pages: 1 -->
<svg width="464pt" height="196pt"
 viewBox="0.00 0.00 464.34 196.00" xmlns="http://www.w3.org/2000/svg" xmlns:xlink="http://www.w3.org/1999/xlink">
<g id="graph0" class="graph" transform="scale(1 1) rotate(0) translate(4 192)">
<title>sstv.hpp</title>
<!-- Node1 -->
<g id="node1" class="node">
<title>Node1</title>
<g id="a_node1"><a xlink:title="SSTV implementation.">
<polygon fill="#bfbfbf" stroke="black" points="146.84,-168.5 146.84,-187.5 203.84,-187.5 203.84,-168.5 146.84,-168.5"/>
<text text-anchor="middle" x="175.34" y="-175.5" font-family="Helvetica,sans-Serif" font-size="10.00">sstv.hpp</text>
</a>
</g>
</g>
<!-- Node2 -->
<g id="node2" class="node">
<title>Node2</title>
<g id="a_node2"><a xlink:title=" ">
<polygon fill="none" stroke="#bfbfbf" points="10.34,-0.5 10.34,-19.5 54.34,-19.5 54.34,-0.5 10.34,-0.5"/>
<text text-anchor="middle" x="32.34" y="-7.5" font-family="Helvetica,sans-Serif" font-size="10.00">string</text>
</a>
</g>
</g>
<!-- Node1&#45;&gt;Node2 -->
<g id="edge1" class="edge">
<title>Node1&#45;&gt;Node2</title>
<path fill="none" stroke="midnightblue" d="M146.58,-173.3C104.06,-167.17 27.67,-153.42 11.34,-132 -11.95,-101.47 7.92,-54.01 21.75,-28.55"/>
<polygon fill="midnightblue" stroke="midnightblue" points="24.9,-30.09 26.82,-19.67 18.83,-26.62 24.9,-30.09"/>
</g>
<!-- Node3 -->
<g id="node3" class="node">
<title>Node3</title>
<g id="a_node3"><a xlink:href="exception_8hpp.html" target="_top" xlink:title="SignalEasel exceptions.">
<polygon fill="none" stroke="black" points="20.84,-112.5 20.84,-131.5 165.84,-131.5 165.84,-112.5 20.84,-112.5"/>
<text text-anchor="middle" x="93.34" y="-119.5" font-family="Helvetica,sans-Serif" font-size="10.00">SignalEasel/exception.hpp</text>
</a>
</g>
</g>
<!-- Node1&#45;&gt;Node3 -->
<g id="edge2" class="edge">
<title>Node1&#45;&gt;Node3</title>
<path fill="none" stroke="midnightblue" d="M162.16,-168.32C149.49,-159.98 130.1,-147.21 115.13,-137.35"/>
<polygon fill="midnightblue" stroke="midnightblue" points="116.75,-134.23 106.48,-131.65 112.9,-140.08 116.75,-134.23"/>
</g>
<!-- Node5 -->
<g id="node5" class="node">
<title>Node5</title>
<g id="a_node5"><a xlink:href="modulator_8hpp.html" target="_top" xlink:title="Modulator base class.">
<polygon fill="none" stroke="black" points="184.34,-112.5 184.34,-131.5 330.34,-131.5 330.34,-112.5 184.34,-112.5"/>
<text text-anchor="middle" x="257.34" y="-119.5" font-family="Helvetica,sans-Serif" font-size="10.00">SignalEasel/modulator.hpp</text>
</a>
</g>
</g>
<!-- Node1&#45;&gt;Node5 -->
<g id="edge5" class="edge">
<title>Node1&#45;&gt;Node5</title>
<path fill="none" stroke="midnightblue" d="M188.51,-168.32C201.18,-159.98 220.57,-147.21 235.54,-137.35"/>
<polygon fill="midnightblue" stroke="midnightblue" points="237.77,-140.08 244.19,-131.65 233.92,-134.23 237.77,-140.08"/>
</g>
<!-- Node8 -->
<g id="node8" class="node">
<title>Node8</title>
<g id="a_node8"><a xlink:title=" ">
<polygon fill="none" stroke="#bfbfbf" points="348.34,-112.5 348.34,-131.5 456.34,-131.5 456.34,-112.5 348.34,-112.5"/>
<text text-anchor="middle" x="402.34" y="-119.5" font-family="Helvetica,sans-Serif" font-size="10.00">sstv&#45;image&#45;tools.h</text>
</a>
</g>
</g>
<!-- Node1&#45;&gt;Node8 -->
<g id="edge9" class="edge">
<title>Node1&#45;&gt;Node8</title>
<path fill="none" stroke="midnightblue" d="M204.09,-170.16C242.46,-161.03 310.87,-144.76 356.43,-133.92"/>
<polygon fill="midnightblue" stroke="midnightblue" points="357.43,-137.28 366.35,-131.56 355.81,-130.47 357.43,-137.28"/>
</g>
<!-- Node3&#45;&gt;Node2 -->
<g id="edge4" class="edge">
<title>Node3&#45;&gt;Node2</title>
<path fill="none" stroke="midnightblue" d="M82.89,-112.4C73.38,-104.03 59.59,-90.49 51.34,-76 43.15,-61.63 38.23,-43.44 35.45,-29.95"/>
<polygon fill="midnightblue" stroke="midnightblue" points="38.85,-29.12 33.6,-19.92 31.97,-30.39 38.85,-29.12"/>
</g>
<!-- Node4 -->
<g id="node4" class="node">
<title>Node4</title>
<g id="a_node4"><a xlink:title=" ">
<polygon fill="none" stroke="#bfbfbf" points="60.84,-56.5 60.84,-75.5 125.84,-75.5 125.84,-56.5 60.84,-56.5"/>
<text text-anchor="middle" x="93.34" y="-63.5" font-family="Helvetica,sans-Serif" font-size="10.00">exception</text>
</a>
</g>
</g>
<!-- Node3&#45;&gt;Node4 -->
<g id="edge3" class="edge">
<title>Node3&#45;&gt;Node4</title>
<path fill="none" stroke="midnightblue" d="M93.34,-112.08C93.34,-105.01 93.34,-94.86 93.34,-85.99"/>
<polygon fill="midnightblue" stroke="midnightblue" points="96.84,-85.75 93.34,-75.75 89.84,-85.75 96.84,-85.75"/>
</g>
<!-- Node6 -->
<g id="node6" class="node">
<title>Node6</title>
<g id="a_node6"><a xlink:title=" ">
<polygon fill="none" stroke="#bfbfbf" points="143.84,-56.5 143.84,-75.5 190.84,-75.5 190.84,-56.5 143.84,-56.5"/>
<text text-anchor="middle" x="167.34" y="-63.5" font-family="Helvetica,sans-Serif" font-size="10.00">vector</text>
</a>
</g>
</g>
<!-- Node5&#45;&gt;Node6 -->
<g id="edge6" class="edge">
<title>Node5&#45;&gt;Node6</title>
<path fill="none" stroke="midnightblue" d="M242.88,-112.32C228.84,-103.9 207.29,-90.97 190.79,-81.07"/>
<polygon fill="midnightblue" stroke="midnightblue" points="192.14,-77.8 181.76,-75.65 188.53,-83.8 192.14,-77.8"/>
</g>
<!-- Node7 -->
<g id="node7" class="node">
<title>Node7</title>
<g id="a_node7"><a xlink:href="settings_8hpp.html" target="_top" xlink:title="Settings structures for SignalEasel.">
<polygon fill="none" stroke="black" points="209.34,-56.5 209.34,-75.5 345.34,-75.5 345.34,-56.5 209.34,-56.5"/>
<text text-anchor="middle" x="277.34" y="-63.5" font-family="Helvetica,sans-Serif" font-size="10.00">SignalEasel/settings.hpp</text>
</a>
</g>
</g>
<!-- Node5&#45;&gt;Node7 -->
<g id="edge7" class="edge">
<title>Node5&#45;&gt;Node7</title>
<path fill="none" stroke="midnightblue" d="M260.64,-112.08C263.32,-104.85 267.18,-94.41 270.52,-85.4"/>
<polygon fill="midnightblue" stroke="midnightblue" points="273.9,-86.34 274.09,-75.75 267.34,-83.91 273.9,-86.34"/>
</g>
<!-- Node7&#45;&gt;Node2 -->
<g id="edge8" class="edge">
<title>Node7&#45;&gt;Node2</title>
<path fill="none" stroke="midnightblue" d="M238.51,-56.44C190.42,-45.84 109.37,-27.98 64.55,-18.1"/>
<polygon fill="midnightblue" stroke="midnightblue" points="65.03,-14.62 54.51,-15.89 63.52,-21.46 65.03,-14.62"/>
</g>
</g>
</svg>
