<?xml version="1.0" encoding="UTF-8" standalone="no"?>
<!DOCTYPE svg PUBLIC "-//W3C//DTD SVG 1.1//EN"
 "http://www.w3.org/Graphics/SVG/1.1/DTD/svg11.dtd">
<!-- Generated by graphviz version 2.43.0 (0)
 -->
<!-- Title: sstv.hpp Pages: 1 -->
<svg width="220pt" height="84pt"
 viewBox="0.00 0.00 219.50 84.00" xmlns="http://www.w3.org/2000/svg" xmlns:xlink="http://www.w3.org/1999/xlink">
<g id="graph0" class="graph" transform="scale(1 1) rotate(0) translate(4 80)">
<title>sstv.hpp</title>
<!-- Node1 -->
<g id="node1" class="node">
<title>Node1</title>
<g id="a_node1"><a xlink:title="SSTV implementation.">
<polygon fill="#bfbfbf" stroke="black" points="84.5,-56.5 84.5,-75.5 141.5,-75.5 141.5,-56.5 84.5,-56.5"/>
<text text-anchor="middle" x="113" y="-63.5" font-family="Helvetica,sans-Serif" font-size="10.00">sstv.hpp</text>
</a>
</g>
</g>
<!-- Node2 -->
<g id="node2" class="node">
<title>Node2</title>
<g id="a_node2"><a xlink:href="sstv__modulator_8cpp.html" target="_top" xlink:title="SSTV implementation.">
<polygon fill="none" stroke="black" points="0,-0.5 0,-19.5 112,-19.5 112,-0.5 0,-0.5"/>
<text text-anchor="middle" x="56" y="-7.5" font-family="Helvetica,sans-Serif" font-size="10.00">sstv_modulator.cpp</text>
</a>
</g>
</g>
<!-- Node1&#45;&gt;Node2 -->
<g id="edge1" class="edge">
<title>Node1&#45;&gt;Node2</title>
<path fill="none" stroke="midnightblue" d="M96.38,-49.25C86.27,-39.67 73.72,-27.79 65.32,-19.83"/>
<polygon fill="midnightblue" stroke="midnightblue" points="94.18,-51.99 103.84,-56.32 98.99,-46.91 94.18,-51.99"/>
</g>
<!-- Node3 -->
<g id="node3" class="node">
<title>Node3</title>
<g id="a_node3"><a xlink:href="sstv__test_8cpp.html" target="_top" xlink:title=" ">
<polygon fill="none" stroke="black" points="130.5,-0.5 130.5,-19.5 211.5,-19.5 211.5,-0.5 130.5,-0.5"/>
<text text-anchor="middle" x="171" y="-7.5" font-family="Helvetica,sans-Serif" font-size="10.00">sstv_test.cpp</text>
</a>
</g>
</g>
<!-- Node1&#45;&gt;Node3 -->
<g id="edge2" class="edge">
<title>Node1&#45;&gt;Node3</title>
<path fill="none" stroke="midnightblue" d="M129.91,-49.25C140.2,-39.67 152.97,-27.79 161.51,-19.83"/>
<polygon fill="midnightblue" stroke="midnightblue" points="127.25,-46.95 122.32,-56.32 132.02,-52.07 127.25,-46.95"/>
</g>
</g>
</svg>
