<?xml version="1.0" encoding="UTF-8" standalone="no"?>
<!DOCTYPE svg PUBLIC "-//W3C//DTD SVG 1.1//EN"
 "http://www.w3.org/Graphics/SVG/1.1/DTD/svg11.dtd">
<!-- Generated by graphviz version 2.43.0 (0)
 -->
<!-- Title: sstv_modulator.cpp Pages: 1 -->
<svg width="537pt" height="252pt"
 viewBox="0.00 0.00 536.50 252.00" xmlns="http://www.w3.org/2000/svg" xmlns:xlink="http://www.w3.org/1999/xlink">
<g id="graph0" class="graph" transform="scale(1 1) rotate(0) translate(4 248)">
<title>sstv_modulator.cpp</title>
<!-- Node1 -->
<g id="node1" class="node">
<title>Node1</title>
<g id="a_node1"><a xlink:title="SSTV implementation.">
<polygon fill="#bfbfbf" stroke="black" points="162.5,-224.5 162.5,-243.5 274.5,-243.5 274.5,-224.5 162.5,-224.5"/>
<text text-anchor="middle" x="218.5" y="-231.5" font-family="Helvetica,sans-Serif" font-size="10.00">sstv_modulator.cpp</text>
</a>
</g>
</g>
<!-- Node2 -->
<g id="node2" class="node">
<title>Node2</title>
<g id="a_node2"><a xlink:href="constants_8hpp.html" target="_top" xlink:title="Common constants used throughout the library.">
<polygon fill="none" stroke="black" points="384.5,-168.5 384.5,-187.5 528.5,-187.5 528.5,-168.5 384.5,-168.5"/>
<text text-anchor="middle" x="456.5" y="-175.5" font-family="Helvetica,sans-Serif" font-size="10.00">SignalEasel/constants.hpp</text>
</a>
</g>
</g>
<!-- Node1&#45;&gt;Node2 -->
<g id="edge1" class="edge">
<title>Node1&#45;&gt;Node2</title>
<path fill="none" stroke="midnightblue" d="M256.21,-224.44C297.64,-215.04 364.26,-199.93 409.17,-189.74"/>
<polygon fill="midnightblue" stroke="midnightblue" points="409.99,-193.14 418.96,-187.52 408.44,-186.32 409.99,-193.14"/>
</g>
<!-- Node4 -->
<g id="node4" class="node">
<title>Node4</title>
<g id="a_node4"><a xlink:href="exception_8hpp.html" target="_top" xlink:title="SignalEasel exceptions.">
<polygon fill="none" stroke="black" points="0,-112.5 0,-131.5 145,-131.5 145,-112.5 0,-112.5"/>
<text text-anchor="middle" x="72.5" y="-119.5" font-family="Helvetica,sans-Serif" font-size="10.00">SignalEasel/exception.hpp</text>
</a>
</g>
</g>
<!-- Node1&#45;&gt;Node4 -->
<g id="edge3" class="edge">
<title>Node1&#45;&gt;Node4</title>
<path fill="none" stroke="midnightblue" d="M204.89,-224.41C191.16,-215.62 169.48,-201.39 151.5,-188 129.86,-171.89 106.09,-152.02 90.34,-138.52"/>
<polygon fill="midnightblue" stroke="midnightblue" points="92.33,-135.62 82.47,-131.74 87.76,-140.92 92.33,-135.62"/>
</g>
<!-- Node7 -->
<g id="node7" class="node">
<title>Node7</title>
<g id="a_node7"><a xlink:href="sstv_8hpp.html" target="_top" xlink:title="SSTV implementation.">
<polygon fill="none" stroke="black" points="160.5,-168.5 160.5,-187.5 276.5,-187.5 276.5,-168.5 160.5,-168.5"/>
<text text-anchor="middle" x="218.5" y="-175.5" font-family="Helvetica,sans-Serif" font-size="10.00">SignalEasel/sstv.hpp</text>
</a>
</g>
</g>
<!-- Node1&#45;&gt;Node7 -->
<g id="edge6" class="edge">
<title>Node1&#45;&gt;Node7</title>
<path fill="none" stroke="midnightblue" d="M218.5,-224.08C218.5,-217.01 218.5,-206.86 218.5,-197.99"/>
<polygon fill="midnightblue" stroke="midnightblue" points="222,-197.75 218.5,-187.75 215,-197.75 222,-197.75"/>
</g>
<!-- Node3 -->
<g id="node3" class="node">
<title>Node3</title>
<g id="a_node3"><a xlink:title=" ">
<polygon fill="none" stroke="#bfbfbf" points="448.5,-56.5 448.5,-75.5 498.5,-75.5 498.5,-56.5 448.5,-56.5"/>
<text text-anchor="middle" x="473.5" y="-63.5" font-family="Helvetica,sans-Serif" font-size="10.00">cstdint</text>
</a>
</g>
</g>
<!-- Node2&#45;&gt;Node3 -->
<g id="edge2" class="edge">
<title>Node2&#45;&gt;Node3</title>
<path fill="none" stroke="midnightblue" d="M463.39,-168.32C469.77,-159.68 478.81,-145.77 482.5,-132 486.65,-116.53 483.52,-98.44 479.86,-85.28"/>
<polygon fill="midnightblue" stroke="midnightblue" points="483.15,-84.04 476.81,-75.55 476.47,-86.14 483.15,-84.04"/>
</g>
<!-- Node5 -->
<g id="node5" class="node">
<title>Node5</title>
<g id="a_node5"><a xlink:title=" ">
<polygon fill="none" stroke="#bfbfbf" points="40,-56.5 40,-75.5 105,-75.5 105,-56.5 40,-56.5"/>
<text text-anchor="middle" x="72.5" y="-63.5" font-family="Helvetica,sans-Serif" font-size="10.00">exception</text>
</a>
</g>
</g>
<!-- Node4&#45;&gt;Node5 -->
<g id="edge4" class="edge">
<title>Node4&#45;&gt;Node5</title>
<path fill="none" stroke="midnightblue" d="M72.5,-112.08C72.5,-105.01 72.5,-94.86 72.5,-85.99"/>
<polygon fill="midnightblue" stroke="midnightblue" points="76,-85.75 72.5,-75.75 69,-85.75 76,-85.75"/>
</g>
<!-- Node6 -->
<g id="node6" class="node">
<title>Node6</title>
<g id="a_node6"><a xlink:title=" ">
<polygon fill="none" stroke="#bfbfbf" points="151.5,-0.5 151.5,-19.5 195.5,-19.5 195.5,-0.5 151.5,-0.5"/>
<text text-anchor="middle" x="173.5" y="-7.5" font-family="Helvetica,sans-Serif" font-size="10.00">string</text>
</a>
</g>
</g>
<!-- Node4&#45;&gt;Node6 -->
<g id="edge5" class="edge">
<title>Node4&#45;&gt;Node6</title>
<path fill="none" stroke="midnightblue" d="M80.43,-112.37C97.31,-93.97 137.07,-50.67 158.76,-27.05"/>
<polygon fill="midnightblue" stroke="midnightblue" points="161.43,-29.32 165.61,-19.59 156.27,-24.59 161.43,-29.32"/>
</g>
<!-- Node7&#45;&gt;Node4 -->
<g id="edge8" class="edge">
<title>Node7&#45;&gt;Node4</title>
<path fill="none" stroke="midnightblue" d="M195.37,-168.44C171.02,-159.44 132.49,-145.19 105.08,-135.05"/>
<polygon fill="midnightblue" stroke="midnightblue" points="106.12,-131.7 95.53,-131.52 103.69,-138.27 106.12,-131.7"/>
</g>
<!-- Node7&#45;&gt;Node6 -->
<g id="edge7" class="edge">
<title>Node7&#45;&gt;Node6</title>
<path fill="none" stroke="midnightblue" d="M212.08,-168.17C206.04,-159.43 197.25,-145.44 192.5,-132 180.26,-97.37 175.89,-54.38 174.34,-30.08"/>
<polygon fill="midnightblue" stroke="midnightblue" points="177.81,-29.57 173.78,-19.78 170.82,-29.95 177.81,-29.57"/>
</g>
<!-- Node8 -->
<g id="node8" class="node">
<title>Node8</title>
<g id="a_node8"><a xlink:href="modulator_8hpp.html" target="_top" xlink:title="Modulator base class.">
<polygon fill="none" stroke="black" points="201.5,-112.5 201.5,-131.5 347.5,-131.5 347.5,-112.5 201.5,-112.5"/>
<text text-anchor="middle" x="274.5" y="-119.5" font-family="Helvetica,sans-Serif" font-size="10.00">SignalEasel/modulator.hpp</text>
</a>
</g>
</g>
<!-- Node7&#45;&gt;Node8 -->
<g id="edge9" class="edge">
<title>Node7&#45;&gt;Node8</title>
<path fill="none" stroke="midnightblue" d="M227.5,-168.32C235.69,-160.42 248.01,-148.55 257.97,-138.94"/>
<polygon fill="midnightblue" stroke="midnightblue" points="260.57,-141.29 265.34,-131.83 255.71,-136.26 260.57,-141.29"/>
</g>
<!-- Node11 -->
<g id="node11" class="node">
<title>Node11</title>
<g id="a_node11"><a xlink:title=" ">
<polygon fill="none" stroke="#bfbfbf" points="365.5,-112.5 365.5,-131.5 473.5,-131.5 473.5,-112.5 365.5,-112.5"/>
<text text-anchor="middle" x="419.5" y="-119.5" font-family="Helvetica,sans-Serif" font-size="10.00">sstv&#45;image&#45;tools.h</text>
</a>
</g>
</g>
<!-- Node7&#45;&gt;Node11 -->
<g id="edge14" class="edge">
<title>Node7&#45;&gt;Node11</title>
<path fill="none" stroke="midnightblue" d="M250.35,-168.44C284.9,-159.16 340.18,-144.31 378.08,-134.13"/>
<polygon fill="midnightblue" stroke="midnightblue" points="379.05,-137.49 387.8,-131.52 377.23,-130.73 379.05,-137.49"/>
</g>
<!-- Node8&#45;&gt;Node3 -->
<g id="edge10" class="edge">
<title>Node8&#45;&gt;Node3</title>
<path fill="none" stroke="midnightblue" d="M306.03,-112.44C342.1,-102.66 400.98,-86.68 438.45,-76.51"/>
<polygon fill="midnightblue" stroke="midnightblue" points="439.68,-79.8 448.42,-73.81 437.85,-73.05 439.68,-79.8"/>
</g>
<!-- Node9 -->
<g id="node9" class="node">
<title>Node9</title>
<g id="a_node9"><a xlink:title=" ">
<polygon fill="none" stroke="#bfbfbf" points="356,-56.5 356,-75.5 403,-75.5 403,-56.5 356,-56.5"/>
<text text-anchor="middle" x="379.5" y="-63.5" font-family="Helvetica,sans-Serif" font-size="10.00">vector</text>
</a>
</g>
</g>
<!-- Node8&#45;&gt;Node9 -->
<g id="edge11" class="edge">
<title>Node8&#45;&gt;Node9</title>
<path fill="none" stroke="midnightblue" d="M291.37,-112.32C308.21,-103.66 334.31,-90.24 353.74,-80.25"/>
<polygon fill="midnightblue" stroke="midnightblue" points="355.38,-83.34 362.67,-75.65 352.18,-77.12 355.38,-83.34"/>
</g>
<!-- Node10 -->
<g id="node10" class="node">
<title>Node10</title>
<g id="a_node10"><a xlink:href="settings_8hpp.html" target="_top" xlink:title="Settings structures for SignalEasel.">
<polygon fill="none" stroke="black" points="201.5,-56.5 201.5,-75.5 337.5,-75.5 337.5,-56.5 201.5,-56.5"/>
<text text-anchor="middle" x="269.5" y="-63.5" font-family="Helvetica,sans-Serif" font-size="10.00">SignalEasel/settings.hpp</text>
</a>
</g>
</g>
<!-- Node8&#45;&gt;Node10 -->
<g id="edge12" class="edge">
<title>Node8&#45;&gt;Node10</title>
<path fill="none" stroke="midnightblue" d="M273.67,-112.08C273.02,-105.01 272.08,-94.86 271.26,-85.99"/>
<polygon fill="midnightblue" stroke="midnightblue" points="274.72,-85.39 270.31,-75.75 267.75,-86.03 274.72,-85.39"/>
</g>
<!-- Node10&#45;&gt;Node6 -->
<g id="edge13" class="edge">
<title>Node10&#45;&gt;Node6</title>
<path fill="none" stroke="midnightblue" d="M254.08,-56.32C238.96,-47.82 215.68,-34.73 198.03,-24.8"/>
<polygon fill="midnightblue" stroke="midnightblue" points="199.32,-21.51 188.89,-19.65 195.89,-27.61 199.32,-21.51"/>
</g>
</g>
</svg>
