<?xml version="1.0" encoding="UTF-8" standalone="no"?>
<!DOCTYPE svg PUBLIC "-//W3C//DTD SVG 1.1//EN"
 "http://www.w3.org/Graphics/SVG/1.1/DTD/svg11.dtd">
<!-- Generated by graphviz version 2.43.0 (0)
 -->
<!-- Title: signal_easel::aprs::Telemetry::Digital Pages: 1 -->
<svg width="121pt" height="193pt"
 viewBox="0.00 0.00 120.50 193.00" xmlns="http://www.w3.org/2000/svg" xmlns:xlink="http://www.w3.org/1999/xlink">
<g id="graph0" class="graph" transform="scale(1 1) rotate(0) translate(4 189)">
<title>signal_easel::aprs::Telemetry::Digital</title>
<!-- Node1 -->
<g id="node1" class="node">
<title>Node1</title>
<g id="a_node1"><a xlink:title=" ">
<polygon fill="#bfbfbf" stroke="black" points="0,-0.5 0,-68.5 109,-68.5 109,-0.5 0,-0.5"/>
<text text-anchor="start" x="8" y="-56.5" font-family="Helvetica,sans-Serif" font-size="10.00">signal_easel::aprs</text>
<text text-anchor="middle" x="54.5" y="-45.5" font-family="Helvetica,sans-Serif" font-size="10.00">::Telemetry::Digital</text>
<polyline fill="none" stroke="black" points="0,-38.5 109,-38.5 "/>
<text text-anchor="middle" x="54.5" y="-26.5" font-family="Helvetica,sans-Serif" font-size="10.00"> </text>
<polyline fill="none" stroke="black" points="0,-19.5 109,-19.5 "/>
<text text-anchor="middle" x="54.5" y="-7.5" font-family="Helvetica,sans-Serif" font-size="10.00"> </text>
</a>
</g>
</g>
<!-- Node2 -->
<g id="node2" class="node">
<title>Node2</title>
<g id="a_node2"><a xlink:title=" ">
<polygon fill="none" stroke="#bfbfbf" points="1.5,-127.5 1.5,-184.5 45.5,-184.5 45.5,-127.5 1.5,-127.5"/>
<text text-anchor="middle" x="23.5" y="-172.5" font-family="Helvetica,sans-Serif" font-size="10.00">string</text>
<polyline fill="none" stroke="#bfbfbf" points="1.5,-165.5 45.5,-165.5 "/>
<text text-anchor="middle" x="23.5" y="-153.5" font-family="Helvetica,sans-Serif" font-size="10.00"> </text>
<polyline fill="none" stroke="#bfbfbf" points="1.5,-146.5 45.5,-146.5 "/>
<text text-anchor="middle" x="23.5" y="-134.5" font-family="Helvetica,sans-Serif" font-size="10.00"> </text>
</a>
</g>
</g>
<!-- Node2&#45;&gt;Node1 -->
<g id="edge1" class="edge">
<title>Node2&#45;&gt;Node1</title>
<path fill="none" stroke="#404040" d="M20.75,-127.41C20.3,-114.87 20.9,-99.97 24.5,-87 25.17,-84.59 25.98,-82.17 26.9,-79.77"/>
<polygon fill="none" stroke="#404040" points="26.94,-79.69 25.77,-72.57 31.89,-68.75 33.06,-75.87 26.94,-79.69"/>
<text text-anchor="middle" x="44.5" y="-101" font-family="Helvetica,sans-Serif" font-size="10.00"> +name</text>
<text text-anchor="middle" x="44.5" y="-90" font-family="Helvetica,sans-Serif" font-size="10.00">+unit</text>
</g>
<!-- Node3 -->
<g id="node3" class="node">
<title>Node3</title>
<g id="a_node3"><a xlink:title=" ">
<polygon fill="none" stroke="#bfbfbf" points="67.5,-127.5 67.5,-184.5 105.5,-184.5 105.5,-127.5 67.5,-127.5"/>
<text text-anchor="middle" x="86.5" y="-172.5" font-family="Helvetica,sans-Serif" font-size="10.00">bool</text>
<polyline fill="none" stroke="#bfbfbf" points="67.5,-165.5 105.5,-165.5 "/>
<text text-anchor="middle" x="86.5" y="-153.5" font-family="Helvetica,sans-Serif" font-size="10.00"> </text>
<polyline fill="none" stroke="#bfbfbf" points="67.5,-146.5 105.5,-146.5 "/>
<text text-anchor="middle" x="86.5" y="-134.5" font-family="Helvetica,sans-Serif" font-size="10.00"> </text>
</a>
</g>
</g>
<!-- Node3&#45;&gt;Node1 -->
<g id="edge2" class="edge">
<title>Node3&#45;&gt;Node1</title>
<path fill="none" stroke="#404040" d="M79.08,-127.28C75.34,-113.33 70.72,-96.06 66.49,-80.28"/>
<polygon fill="none" stroke="#404040" points="66.46,-80.18 61.05,-75.42 63.36,-68.59 68.78,-73.35 66.46,-80.18"/>
<text text-anchor="middle" x="92.5" y="-101" font-family="Helvetica,sans-Serif" font-size="10.00"> +sense</text>
<text text-anchor="middle" x="92.5" y="-90" font-family="Helvetica,sans-Serif" font-size="10.00">+value</text>
</g>
</g>
</svg>
