<?xml version="1.0" encoding="UTF-8" standalone="no"?>
<!DOCTYPE svg PUBLIC "-//W3C//DTD SVG 1.1//EN"
 "http://www.w3.org/Graphics/SVG/1.1/DTD/svg11.dtd">
<!-- Generated by graphviz version 2.43.0 (0)
 -->
<!-- Title: signal_easel::Settings Pages: 1 -->
<svg width="409pt" height="364pt"
 viewBox="0.00 0.00 409.00 364.00" xmlns="http://www.w3.org/2000/svg" xmlns:xlink="http://www.w3.org/1999/xlink">
<g id="graph0" class="graph" transform="scale(1 1) rotate(0) translate(4 360)">
<title>signal_easel::Settings</title>
<!-- Node1 -->
<g id="node1" class="node">
<title>Node1</title>
<g id="a_node1"><a xlink:title="The universal settings for MWAV.">
<polygon fill="#bfbfbf" stroke="black" points="136.5,-265.5 136.5,-355.5 286.5,-355.5 286.5,-265.5 136.5,-265.5"/>
<text text-anchor="middle" x="211.5" y="-343.5" font-family="Helvetica,sans-Serif" font-size="10.00">signal_easel::Settings</text>
<polyline fill="none" stroke="black" points="136.5,-336.5 286.5,-336.5 "/>
<text text-anchor="start" x="144.5" y="-324.5" font-family="Helvetica,sans-Serif" font-size="10.00">+ amplitude</text>
<text text-anchor="start" x="144.5" y="-313.5" font-family="Helvetica,sans-Serif" font-size="10.00">+ call_sign</text>
<text text-anchor="start" x="144.5" y="-302.5" font-family="Helvetica,sans-Serif" font-size="10.00">+ call_sign_mode</text>
<text text-anchor="start" x="144.5" y="-291.5" font-family="Helvetica,sans-Serif" font-size="10.00">+ call_sign_pause_seconds</text>
<polyline fill="none" stroke="black" points="136.5,-284.5 286.5,-284.5 "/>
<text text-anchor="middle" x="211.5" y="-272.5" font-family="Helvetica,sans-Serif" font-size="10.00"> </text>
</a>
</g>
</g>
<!-- Node2 -->
<g id="node2" class="node">
<title>Node2</title>
<g id="a_node2"><a xlink:href="structsignal__easel_1_1afsk_1_1Settings.html" target="_top" xlink:title="Settings for AFSK modulation/demodulation.">
<polygon fill="none" stroke="black" points="0,-127.5 0,-206.5 135,-206.5 135,-127.5 0,-127.5"/>
<text text-anchor="start" x="8" y="-194.5" font-family="Helvetica,sans-Serif" font-size="10.00">signal_easel::afsk</text>
<text text-anchor="middle" x="67.5" y="-183.5" font-family="Helvetica,sans-Serif" font-size="10.00">::Settings</text>
<polyline fill="none" stroke="black" points="0,-176.5 135,-176.5 "/>
<text text-anchor="start" x="8" y="-164.5" font-family="Helvetica,sans-Serif" font-size="10.00">+ bit_encoding</text>
<text text-anchor="start" x="8" y="-153.5" font-family="Helvetica,sans-Serif" font-size="10.00">+ include_ascii_padding</text>
<polyline fill="none" stroke="black" points="0,-146.5 135,-146.5 "/>
<text text-anchor="middle" x="67.5" y="-134.5" font-family="Helvetica,sans-Serif" font-size="10.00"> </text>
</a>
</g>
</g>
<!-- Node1&#45;&gt;Node2 -->
<g id="edge1" class="edge">
<title>Node1&#45;&gt;Node2</title>
<path fill="none" stroke="midnightblue" d="M159.1,-258C141.95,-241.16 123.2,-222.73 107.15,-206.97"/>
<polygon fill="none" stroke="midnightblue" points="156.75,-260.6 166.33,-265.12 161.65,-255.61 156.75,-260.6"/>
</g>
<!-- Node4 -->
<g id="node4" class="node">
<title>Node4</title>
<g id="a_node4"><a xlink:href="structsignal__easel_1_1psk_1_1Settings.html" target="_top" xlink:title="Settings for PSK modulation.">
<polygon fill="none" stroke="black" points="153.5,-105.5 153.5,-228.5 269.5,-228.5 269.5,-105.5 153.5,-105.5"/>
<text text-anchor="start" x="161.5" y="-216.5" font-family="Helvetica,sans-Serif" font-size="10.00">signal_easel::psk::</text>
<text text-anchor="middle" x="211.5" y="-205.5" font-family="Helvetica,sans-Serif" font-size="10.00">Settings</text>
<polyline fill="none" stroke="black" points="153.5,-198.5 269.5,-198.5 "/>
<text text-anchor="start" x="161.5" y="-186.5" font-family="Helvetica,sans-Serif" font-size="10.00">+ carrier_frequency</text>
<text text-anchor="start" x="161.5" y="-175.5" font-family="Helvetica,sans-Serif" font-size="10.00">+ fldigi_mode</text>
<text text-anchor="start" x="161.5" y="-164.5" font-family="Helvetica,sans-Serif" font-size="10.00">+ mode</text>
<text text-anchor="start" x="161.5" y="-153.5" font-family="Helvetica,sans-Serif" font-size="10.00">+ postamble_length</text>
<text text-anchor="start" x="161.5" y="-142.5" font-family="Helvetica,sans-Serif" font-size="10.00">+ preamble_length</text>
<text text-anchor="start" x="161.5" y="-131.5" font-family="Helvetica,sans-Serif" font-size="10.00">+ symbol_rate</text>
<polyline fill="none" stroke="black" points="153.5,-124.5 269.5,-124.5 "/>
<text text-anchor="middle" x="211.5" y="-112.5" font-family="Helvetica,sans-Serif" font-size="10.00"> </text>
</a>
</g>
</g>
<!-- Node1&#45;&gt;Node4 -->
<g id="edge3" class="edge">
<title>Node1&#45;&gt;Node4</title>
<path fill="none" stroke="midnightblue" d="M211.5,-255.11C211.5,-246.42 211.5,-237.38 211.5,-228.56"/>
<polygon fill="none" stroke="midnightblue" points="208,-255.12 211.5,-265.12 215,-255.12 208,-255.12"/>
</g>
<!-- Node5 -->
<g id="node5" class="node">
<title>Node5</title>
<g id="a_node5"><a xlink:href="structsignal__easel_1_1sstv_1_1Settings.html" target="_top" xlink:title="Settings for SSTV modulation.">
<polygon fill="none" stroke="black" points="288,-127.5 288,-206.5 401,-206.5 401,-127.5 288,-127.5"/>
<text text-anchor="start" x="296" y="-194.5" font-family="Helvetica,sans-Serif" font-size="10.00">signal_easel::sstv</text>
<text text-anchor="middle" x="344.5" y="-183.5" font-family="Helvetica,sans-Serif" font-size="10.00">::Settings</text>
<polyline fill="none" stroke="black" points="288,-176.5 401,-176.5 "/>
<text text-anchor="start" x="296" y="-164.5" font-family="Helvetica,sans-Serif" font-size="10.00">+ mode</text>
<text text-anchor="start" x="296" y="-153.5" font-family="Helvetica,sans-Serif" font-size="10.00">+ overlay_call_sign</text>
<polyline fill="none" stroke="black" points="288,-146.5 401,-146.5 "/>
<text text-anchor="middle" x="344.5" y="-134.5" font-family="Helvetica,sans-Serif" font-size="10.00"> </text>
</a>
</g>
</g>
<!-- Node1&#45;&gt;Node5 -->
<g id="edge4" class="edge">
<title>Node1&#45;&gt;Node5</title>
<path fill="none" stroke="midnightblue" d="M260.33,-257.55C276.05,-240.83 293.19,-222.59 307.88,-206.97"/>
<polygon fill="none" stroke="midnightblue" points="257.52,-255.43 253.22,-265.12 262.62,-260.23 257.52,-255.43"/>
</g>
<!-- Node3 -->
<g id="node3" class="node">
<title>Node3</title>
<g id="a_node3"><a xlink:href="structsignal__easel_1_1aprs_1_1Settings.html" target="_top" xlink:title=" ">
<polygon fill="none" stroke="black" points="15.5,-0.5 15.5,-68.5 119.5,-68.5 119.5,-0.5 15.5,-0.5"/>
<text text-anchor="start" x="23.5" y="-56.5" font-family="Helvetica,sans-Serif" font-size="10.00">signal_easel::aprs</text>
<text text-anchor="middle" x="67.5" y="-45.5" font-family="Helvetica,sans-Serif" font-size="10.00">::Settings</text>
<polyline fill="none" stroke="black" points="15.5,-38.5 119.5,-38.5 "/>
<text text-anchor="middle" x="67.5" y="-26.5" font-family="Helvetica,sans-Serif" font-size="10.00"> </text>
<polyline fill="none" stroke="black" points="15.5,-19.5 119.5,-19.5 "/>
<text text-anchor="start" x="23.5" y="-7.5" font-family="Helvetica,sans-Serif" font-size="10.00">+ Settings()</text>
</a>
</g>
</g>
<!-- Node2&#45;&gt;Node3 -->
<g id="edge2" class="edge">
<title>Node2&#45;&gt;Node3</title>
<path fill="none" stroke="midnightblue" d="M67.5,-116.86C67.5,-100.76 67.5,-83.27 67.5,-68.64"/>
<polygon fill="none" stroke="midnightblue" points="64,-117.2 67.5,-127.2 71,-117.2 64,-117.2"/>
</g>
</g>
</svg>
