<?xml version="1.0" encoding="UTF-8" standalone="no"?>
<!DOCTYPE svg PUBLIC "-//W3C//DTD SVG 1.1//EN"
 "http://www.w3.org/Graphics/SVG/1.1/DTD/svg11.dtd">
<!-- Generated by graphviz version 2.43.0 (0)
 -->
<!-- Title: signal_easel::afsk::Settings Pages: 1 -->
<svg width="459pt" height="309pt"
 viewBox="0.00 0.00 459.00 309.00" xmlns="http://www.w3.org/2000/svg" xmlns:xlink="http://www.w3.org/1999/xlink">
<g id="graph0" class="graph" transform="scale(1 1) rotate(0) translate(4 305)">
<title>signal_easel::afsk::Settings</title>
<!-- Node1 -->
<g id="node1" class="node">
<title>Node1</title>
<g id="a_node1"><a xlink:title="Settings for AFSK modulation/demodulation.">
<polygon fill="#bfbfbf" stroke="black" points="199,-0.5 199,-68.5 303,-68.5 303,-0.5 199,-0.5"/>
<text text-anchor="start" x="207" y="-56.5" font-family="Helvetica,sans-Serif" font-size="10.00">signal_easel::afsk</text>
<text text-anchor="middle" x="251" y="-45.5" font-family="Helvetica,sans-Serif" font-size="10.00">::Settings</text>
<polyline fill="none" stroke="black" points="199,-38.5 303,-38.5 "/>
<text text-anchor="middle" x="251" y="-26.5" font-family="Helvetica,sans-Serif" font-size="10.00"> </text>
<polyline fill="none" stroke="black" points="199,-19.5 303,-19.5 "/>
<text text-anchor="middle" x="251" y="-7.5" font-family="Helvetica,sans-Serif" font-size="10.00"> </text>
</a>
</g>
</g>
<!-- Node2 -->
<g id="node2" class="node">
<title>Node2</title>
<g id="a_node2"><a xlink:href="structsignal__easel_1_1Settings.html" target="_top" xlink:title="The universal settings for MWAV.">
<polygon fill="none" stroke="black" points="72.5,-116.5 72.5,-173.5 195.5,-173.5 195.5,-116.5 72.5,-116.5"/>
<text text-anchor="middle" x="134" y="-161.5" font-family="Helvetica,sans-Serif" font-size="10.00">signal_easel::Settings</text>
<polyline fill="none" stroke="black" points="72.5,-154.5 195.5,-154.5 "/>
<text text-anchor="middle" x="134" y="-142.5" font-family="Helvetica,sans-Serif" font-size="10.00"> </text>
<polyline fill="none" stroke="black" points="72.5,-135.5 195.5,-135.5 "/>
<text text-anchor="middle" x="134" y="-123.5" font-family="Helvetica,sans-Serif" font-size="10.00"> </text>
</a>
</g>
</g>
<!-- Node2&#45;&gt;Node1 -->
<g id="edge1" class="edge">
<title>Node2&#45;&gt;Node1</title>
<path fill="none" stroke="midnightblue" d="M171.43,-109.29C185.52,-96.23 201.48,-81.42 215.39,-68.52"/>
<polygon fill="none" stroke="midnightblue" points="168.78,-106.97 163.83,-116.34 173.54,-112.11 168.78,-106.97"/>
</g>
<!-- Node3 -->
<g id="node3" class="node">
<title>Node3</title>
<g id="a_node3"><a xlink:title=" ">
<polygon fill="none" stroke="#bfbfbf" points="0,-243.5 0,-300.5 50,-300.5 50,-243.5 0,-243.5"/>
<text text-anchor="middle" x="25" y="-288.5" font-family="Helvetica,sans-Serif" font-size="10.00">double</text>
<polyline fill="none" stroke="#bfbfbf" points="0,-281.5 50,-281.5 "/>
<text text-anchor="middle" x="25" y="-269.5" font-family="Helvetica,sans-Serif" font-size="10.00"> </text>
<polyline fill="none" stroke="#bfbfbf" points="0,-262.5 50,-262.5 "/>
<text text-anchor="middle" x="25" y="-250.5" font-family="Helvetica,sans-Serif" font-size="10.00"> </text>
</a>
</g>
</g>
<!-- Node3&#45;&gt;Node2 -->
<g id="edge2" class="edge">
<title>Node3&#45;&gt;Node2</title>
<path fill="none" stroke="#404040" d="M25.99,-243.27C27.86,-226.86 32.57,-206.52 44,-192 49.03,-185.61 55.2,-180.02 61.91,-175.16"/>
<polygon fill="none" stroke="#404040" points="62.02,-175.09 64.87,-168.47 72.08,-168.55 69.23,-175.17 62.02,-175.09"/>
<text text-anchor="middle" x="87" y="-217" font-family="Helvetica,sans-Serif" font-size="10.00"> +amplitude</text>
<text text-anchor="start" x="44" y="-206" font-family="Helvetica,sans-Serif" font-size="10.00">+call_sign_pause</text>
<text text-anchor="middle" x="87" y="-195" font-family="Helvetica,sans-Serif" font-size="10.00">_seconds</text>
</g>
<!-- Node4 -->
<g id="node4" class="node">
<title>Node4</title>
<g id="a_node4"><a xlink:title=" ">
<polygon fill="none" stroke="#bfbfbf" points="92.5,-243.5 92.5,-300.5 175.5,-300.5 175.5,-243.5 92.5,-243.5"/>
<text text-anchor="middle" x="134" y="-288.5" font-family="Helvetica,sans-Serif" font-size="10.00">CallSignMode</text>
<polyline fill="none" stroke="#bfbfbf" points="92.5,-281.5 175.5,-281.5 "/>
<text text-anchor="middle" x="134" y="-269.5" font-family="Helvetica,sans-Serif" font-size="10.00"> </text>
<polyline fill="none" stroke="#bfbfbf" points="92.5,-262.5 175.5,-262.5 "/>
<text text-anchor="middle" x="134" y="-250.5" font-family="Helvetica,sans-Serif" font-size="10.00"> </text>
</a>
</g>
</g>
<!-- Node4&#45;&gt;Node2 -->
<g id="edge3" class="edge">
<title>Node4&#45;&gt;Node2</title>
<path fill="none" stroke="#404040" d="M134,-243.26C134,-226.35 134,-204.46 134,-185.73"/>
<polygon fill="none" stroke="#404040" points="134,-185.66 130,-179.66 134,-173.66 138,-179.66 134,-185.66"/>
<text text-anchor="middle" x="178" y="-206" font-family="Helvetica,sans-Serif" font-size="10.00"> +call_sign_mode</text>
</g>
<!-- Node5 -->
<g id="node5" class="node">
<title>Node5</title>
<g id="a_node5"><a xlink:title=" ">
<polygon fill="none" stroke="#bfbfbf" points="223,-243.5 223,-300.5 267,-300.5 267,-243.5 223,-243.5"/>
<text text-anchor="middle" x="245" y="-288.5" font-family="Helvetica,sans-Serif" font-size="10.00">string</text>
<polyline fill="none" stroke="#bfbfbf" points="223,-281.5 267,-281.5 "/>
<text text-anchor="middle" x="245" y="-269.5" font-family="Helvetica,sans-Serif" font-size="10.00"> </text>
<polyline fill="none" stroke="#bfbfbf" points="223,-262.5 267,-262.5 "/>
<text text-anchor="middle" x="245" y="-250.5" font-family="Helvetica,sans-Serif" font-size="10.00"> </text>
</a>
</g>
</g>
<!-- Node5&#45;&gt;Node2 -->
<g id="edge4" class="edge">
<title>Node5&#45;&gt;Node2</title>
<path fill="none" stroke="#404040" d="M242.8,-243.24C240.25,-226.82 234.77,-206.47 223,-192 218.18,-186.07 212.38,-180.81 206.1,-176.18"/>
<polygon fill="none" stroke="#404040" points="205.88,-176.04 198.67,-176.06 195.88,-169.41 203.09,-169.39 205.88,-176.04"/>
<text text-anchor="middle" x="265.5" y="-206" font-family="Helvetica,sans-Serif" font-size="10.00"> +call_sign</text>
</g>
<!-- Node6 -->
<g id="node6" class="node">
<title>Node6</title>
<g id="a_node6"><a xlink:title=" ">
<polygon fill="none" stroke="#bfbfbf" points="214,-116.5 214,-173.5 288,-173.5 288,-116.5 214,-116.5"/>
<text text-anchor="middle" x="251" y="-161.5" font-family="Helvetica,sans-Serif" font-size="10.00">BitEncoding</text>
<polyline fill="none" stroke="#bfbfbf" points="214,-154.5 288,-154.5 "/>
<text text-anchor="middle" x="251" y="-142.5" font-family="Helvetica,sans-Serif" font-size="10.00"> </text>
<polyline fill="none" stroke="#bfbfbf" points="214,-135.5 288,-135.5 "/>
<text text-anchor="middle" x="251" y="-123.5" font-family="Helvetica,sans-Serif" font-size="10.00"> </text>
</a>
</g>
</g>
<!-- Node6&#45;&gt;Node1 -->
<g id="edge5" class="edge">
<title>Node6&#45;&gt;Node1</title>
<path fill="none" stroke="#404040" d="M251,-116.34C251,-105.53 251,-92.85 251,-80.77"/>
<polygon fill="none" stroke="#404040" points="251,-80.52 247,-74.52 251,-68.52 255,-74.52 251,-80.52"/>
<text text-anchor="middle" x="288" y="-90" font-family="Helvetica,sans-Serif" font-size="10.00"> +bit_encoding</text>
</g>
<!-- Node7 -->
<g id="node7" class="node">
<title>Node7</title>
<g id="a_node7"><a xlink:title=" ">
<polygon fill="none" stroke="#bfbfbf" points="329,-116.5 329,-173.5 367,-173.5 367,-116.5 329,-116.5"/>
<text text-anchor="middle" x="348" y="-161.5" font-family="Helvetica,sans-Serif" font-size="10.00">bool</text>
<polyline fill="none" stroke="#bfbfbf" points="329,-154.5 367,-154.5 "/>
<text text-anchor="middle" x="348" y="-142.5" font-family="Helvetica,sans-Serif" font-size="10.00"> </text>
<polyline fill="none" stroke="#bfbfbf" points="329,-135.5 367,-135.5 "/>
<text text-anchor="middle" x="348" y="-123.5" font-family="Helvetica,sans-Serif" font-size="10.00"> </text>
</a>
</g>
</g>
<!-- Node7&#45;&gt;Node1 -->
<g id="edge6" class="edge">
<title>Node7&#45;&gt;Node1</title>
<path fill="none" stroke="#404040" d="M341.08,-116.44C337.66,-106.47 332.77,-95.57 326,-87 322.12,-82.09 317.65,-77.47 312.86,-73.16"/>
<polygon fill="none" stroke="#404040" points="312.57,-72.92 305.39,-72.18 303.32,-65.27 310.49,-66.02 312.57,-72.92"/>
<text text-anchor="middle" x="391.5" y="-90" font-family="Helvetica,sans-Serif" font-size="10.00"> +include_ascii_padding</text>
</g>
</g>
</svg>
