<?xml version="1.0" encoding="UTF-8" standalone="no"?>
<!DOCTYPE svg PUBLIC "-//W3C//DTD SVG 1.1//EN"
 "http://www.w3.org/Graphics/SVG/1.1/DTD/svg11.dtd">
<!-- Generated by graphviz version 2.43.0 (0)
 -->
<!-- Title: signal_easel::aprs::Telemetry::Analog Pages: 1 -->
<svg width="126pt" height="226pt"
 viewBox="0.00 0.00 126.00 226.00" xmlns="http://www.w3.org/2000/svg" xmlns:xlink="http://www.w3.org/1999/xlink">
<g id="graph0" class="graph" transform="scale(1 1) rotate(0) translate(4 222)">
<title>signal_easel::aprs::Telemetry::Analog</title>
<!-- Node1 -->
<g id="node1" class="node">
<title>Node1</title>
<g id="a_node1"><a xlink:title=" ">
<polygon fill="#bfbfbf" stroke="black" points="0,-0.5 0,-68.5 110,-68.5 110,-0.5 0,-0.5"/>
<text text-anchor="start" x="8" y="-56.5" font-family="Helvetica,sans-Serif" font-size="10.00">signal_easel::aprs</text>
<text text-anchor="middle" x="55" y="-45.5" font-family="Helvetica,sans-Serif" font-size="10.00">::Telemetry::Analog</text>
<polyline fill="none" stroke="black" points="0,-38.5 110,-38.5 "/>
<text text-anchor="middle" x="55" y="-26.5" font-family="Helvetica,sans-Serif" font-size="10.00"> </text>
<polyline fill="none" stroke="black" points="0,-19.5 110,-19.5 "/>
<text text-anchor="middle" x="55" y="-7.5" font-family="Helvetica,sans-Serif" font-size="10.00"> </text>
</a>
</g>
</g>
<!-- Node2 -->
<g id="node2" class="node">
<title>Node2</title>
<g id="a_node2"><a xlink:title=" ">
<polygon fill="none" stroke="#bfbfbf" points="0,-160.5 0,-217.5 44,-217.5 44,-160.5 0,-160.5"/>
<text text-anchor="middle" x="22" y="-205.5" font-family="Helvetica,sans-Serif" font-size="10.00">string</text>
<polyline fill="none" stroke="#bfbfbf" points="0,-198.5 44,-198.5 "/>
<text text-anchor="middle" x="22" y="-186.5" font-family="Helvetica,sans-Serif" font-size="10.00"> </text>
<polyline fill="none" stroke="#bfbfbf" points="0,-179.5 44,-179.5 "/>
<text text-anchor="middle" x="22" y="-167.5" font-family="Helvetica,sans-Serif" font-size="10.00"> </text>
</a>
</g>
</g>
<!-- Node2&#45;&gt;Node1 -->
<g id="edge1" class="edge">
<title>Node2&#45;&gt;Node1</title>
<path fill="none" stroke="#404040" d="M18.32,-160.41C16.51,-139.77 16,-111.08 23,-87 23.71,-84.55 24.58,-82.11 25.56,-79.68"/>
<polygon fill="none" stroke="#404040" points="25.68,-79.43 24.66,-72.29 30.86,-68.6 31.88,-75.74 25.68,-79.43"/>
<text text-anchor="middle" x="45" y="-134" font-family="Helvetica,sans-Serif" font-size="10.00"> +coef_a</text>
<text text-anchor="middle" x="45" y="-123" font-family="Helvetica,sans-Serif" font-size="10.00">+coef_b</text>
<text text-anchor="middle" x="45" y="-112" font-family="Helvetica,sans-Serif" font-size="10.00">+coef_c</text>
<text text-anchor="middle" x="45" y="-101" font-family="Helvetica,sans-Serif" font-size="10.00">+name</text>
<text text-anchor="middle" x="45" y="-90" font-family="Helvetica,sans-Serif" font-size="10.00">+unit</text>
</g>
<!-- Node3 -->
<g id="node3" class="node">
<title>Node3</title>
<g id="a_node3"><a xlink:title=" ">
<polygon fill="none" stroke="#bfbfbf" points="64,-160.5 64,-217.5 114,-217.5 114,-160.5 64,-160.5"/>
<text text-anchor="middle" x="89" y="-205.5" font-family="Helvetica,sans-Serif" font-size="10.00">uint8_t</text>
<polyline fill="none" stroke="#bfbfbf" points="64,-198.5 114,-198.5 "/>
<text text-anchor="middle" x="89" y="-186.5" font-family="Helvetica,sans-Serif" font-size="10.00"> </text>
<polyline fill="none" stroke="#bfbfbf" points="64,-179.5 114,-179.5 "/>
<text text-anchor="middle" x="89" y="-167.5" font-family="Helvetica,sans-Serif" font-size="10.00"> </text>
</a>
</g>
</g>
<!-- Node3&#45;&gt;Node1 -->
<g id="edge2" class="edge">
<title>Node3&#45;&gt;Node1</title>
<path fill="none" stroke="#404040" d="M83.04,-160.11C78.67,-139.82 72.56,-111.68 67,-87 66.52,-84.88 66.03,-82.7 65.53,-80.51"/>
<polygon fill="none" stroke="#404040" points="65.51,-80.42 60.26,-75.47 62.82,-68.73 68.06,-73.68 65.51,-80.42"/>
<text text-anchor="middle" x="98.5" y="-112" font-family="Helvetica,sans-Serif" font-size="10.00"> +value</text>
</g>
</g>
</svg>
