<?xml version="1.0" encoding="UTF-8" standalone="no"?>
<!DOCTYPE svg PUBLIC "-//W3C//DTD SVG 1.1//EN"
 "http://www.w3.org/Graphics/SVG/1.1/DTD/svg11.dtd">
<!-- Generated by graphviz version 2.43.0 (0)
 -->
<!-- Title: signal_easel::MorseChar Pages: 1 -->
<svg width="149pt" height="171pt"
 viewBox="0.00 0.00 148.50 171.00" xmlns="http://www.w3.org/2000/svg" xmlns:xlink="http://www.w3.org/1999/xlink">
<g id="graph0" class="graph" transform="scale(1 1) rotate(0) translate(4 167)">
<title>signal_easel::MorseChar</title>
<!-- Node1 -->
<g id="node1" class="node">
<title>Node1</title>
<g id="a_node1"><a xlink:title=" ">
<polygon fill="#bfbfbf" stroke="black" points="0,-0.5 0,-57.5 136,-57.5 136,-0.5 0,-0.5"/>
<text text-anchor="middle" x="68" y="-45.5" font-family="Helvetica,sans-Serif" font-size="10.00">signal_easel::MorseChar</text>
<polyline fill="none" stroke="black" points="0,-38.5 136,-38.5 "/>
<text text-anchor="middle" x="68" y="-26.5" font-family="Helvetica,sans-Serif" font-size="10.00"> </text>
<polyline fill="none" stroke="black" points="0,-19.5 136,-19.5 "/>
<text text-anchor="middle" x="68" y="-7.5" font-family="Helvetica,sans-Serif" font-size="10.00"> </text>
</a>
</g>
</g>
<!-- Node2 -->
<g id="node2" class="node">
<title>Node2</title>
<g id="a_node2"><a xlink:title=" ">
<polygon fill="none" stroke="#bfbfbf" points="18.5,-105.5 18.5,-162.5 47.5,-162.5 47.5,-105.5 18.5,-105.5"/>
<text text-anchor="middle" x="33" y="-150.5" font-family="Helvetica,sans-Serif" font-size="10.00">int</text>
<polyline fill="none" stroke="#bfbfbf" points="18.5,-143.5 47.5,-143.5 "/>
<text text-anchor="middle" x="33" y="-131.5" font-family="Helvetica,sans-Serif" font-size="10.00"> </text>
<polyline fill="none" stroke="#bfbfbf" points="18.5,-124.5 47.5,-124.5 "/>
<text text-anchor="middle" x="33" y="-112.5" font-family="Helvetica,sans-Serif" font-size="10.00"> </text>
</a>
</g>
</g>
<!-- Node2&#45;&gt;Node1 -->
<g id="edge1" class="edge">
<title>Node2&#45;&gt;Node1</title>
<path fill="none" stroke="#404040" d="M42.38,-105.4C46.15,-94.31 50.56,-81.33 54.65,-69.3"/>
<polygon fill="none" stroke="#404040" points="54.73,-69.04 52.88,-62.07 58.59,-57.68 60.45,-64.65 54.73,-69.04"/>
<text text-anchor="middle" x="65.5" y="-79" font-family="Helvetica,sans-Serif" font-size="10.00"> +val</text>
</g>
<!-- Node3 -->
<g id="node3" class="node">
<title>Node3</title>
<g id="a_node3"><a xlink:title=" ">
<polygon fill="none" stroke="#bfbfbf" points="65.5,-105.5 65.5,-162.5 140.5,-162.5 140.5,-105.5 65.5,-105.5"/>
<text text-anchor="middle" x="103" y="-150.5" font-family="Helvetica,sans-Serif" font-size="10.00">const char *</text>
<polyline fill="none" stroke="#bfbfbf" points="65.5,-143.5 140.5,-143.5 "/>
<text text-anchor="middle" x="103" y="-131.5" font-family="Helvetica,sans-Serif" font-size="10.00"> </text>
<polyline fill="none" stroke="#bfbfbf" points="65.5,-124.5 140.5,-124.5 "/>
<text text-anchor="middle" x="103" y="-112.5" font-family="Helvetica,sans-Serif" font-size="10.00"> </text>
</a>
</g>
</g>
<!-- Node3&#45;&gt;Node1 -->
<g id="edge2" class="edge">
<title>Node3&#45;&gt;Node1</title>
<path fill="none" stroke="#404040" d="M93.62,-105.4C89.85,-94.31 85.44,-81.33 81.35,-69.3"/>
<polygon fill="none" stroke="#404040" points="81.27,-69.04 75.55,-64.65 77.41,-57.68 83.12,-62.07 81.27,-69.04"/>
<text text-anchor="middle" x="107.5" y="-79" font-family="Helvetica,sans-Serif" font-size="10.00"> +morse</text>
</g>
</g>
</svg>
