<?xml version="1.0" encoding="UTF-8" standalone="no"?>
<!DOCTYPE svg PUBLIC "-//W3C//DTD SVG 1.1//EN"
 "http://www.w3.org/Graphics/SVG/1.1/DTD/svg11.dtd">
<!-- Generated by graphviz version 2.43.0 (0)
 -->
<!-- Title: signal_easel::sstv::Settings Pages: 1 -->
<svg width="394pt" height="309pt"
 viewBox="0.00 0.00 393.50 309.00" xmlns="http://www.w3.org/2000/svg" xmlns:xlink="http://www.w3.org/1999/xlink">
<g id="graph0" class="graph" transform="scale(1 1) rotate(0) translate(4 305)">
<title>signal_easel::sstv::Settings</title>
<!-- Node1 -->
<g id="node1" class="node">
<title>Node1</title>
<g id="a_node1"><a xlink:title="Settings for SSTV modulation.">
<polygon fill="#bfbfbf" stroke="black" points="181,-0.5 181,-68.5 285,-68.5 285,-0.5 181,-0.5"/>
<text text-anchor="start" x="189" y="-56.5" font-family="Helvetica,sans-Serif" font-size="10.00">signal_easel::sstv</text>
<text text-anchor="middle" x="233" y="-45.5" font-family="Helvetica,sans-Serif" font-size="10.00">::Settings</text>
<polyline fill="none" stroke="black" points="181,-38.5 285,-38.5 "/>
<text text-anchor="middle" x="233" y="-26.5" font-family="Helvetica,sans-Serif" font-size="10.00"> </text>
<polyline fill="none" stroke="black" points="181,-19.5 285,-19.5 "/>
<text text-anchor="middle" x="233" y="-7.5" font-family="Helvetica,sans-Serif" font-size="10.00"> </text>
</a>
</g>
</g>
<!-- Node2 -->
<g id="node2" class="node">
<title>Node2</title>
<g id="a_node2"><a xlink:href="structsignal__easel_1_1Settings.html" target="_top" xlink:title="The universal settings for MWAV.">
<polygon fill="none" stroke="black" points="72.5,-116.5 72.5,-173.5 195.5,-173.5 195.5,-116.5 72.5,-116.5"/>
<text text-anchor="middle" x="134" y="-161.5" font-family="Helvetica,sans-Serif" font-size="10.00">signal_easel::Settings</text>
<polyline fill="none" stroke="black" points="72.5,-154.5 195.5,-154.5 "/>
<text text-anchor="middle" x="134" y="-142.5" font-family="Helvetica,sans-Serif" font-size="10.00"> </text>
<polyline fill="none" stroke="black" points="72.5,-135.5 195.5,-135.5 "/>
<text text-anchor="middle" x="134" y="-123.5" font-family="Helvetica,sans-Serif" font-size="10.00"> </text>
</a>
</g>
</g>
<!-- Node2&#45;&gt;Node1 -->
<g id="edge1" class="edge">
<title>Node2&#45;&gt;Node1</title>
<path fill="none" stroke="midnightblue" d="M166.01,-108.92C177.84,-95.95 191.21,-81.3 202.87,-68.52"/>
<polygon fill="none" stroke="midnightblue" points="163.39,-106.59 159.24,-116.34 168.56,-111.31 163.39,-106.59"/>
</g>
<!-- Node3 -->
<g id="node3" class="node">
<title>Node3</title>
<g id="a_node3"><a xlink:title=" ">
<polygon fill="none" stroke="#bfbfbf" points="0,-243.5 0,-300.5 50,-300.5 50,-243.5 0,-243.5"/>
<text text-anchor="middle" x="25" y="-288.5" font-family="Helvetica,sans-Serif" font-size="10.00">double</text>
<polyline fill="none" stroke="#bfbfbf" points="0,-281.5 50,-281.5 "/>
<text text-anchor="middle" x="25" y="-269.5" font-family="Helvetica,sans-Serif" font-size="10.00"> </text>
<polyline fill="none" stroke="#bfbfbf" points="0,-262.5 50,-262.5 "/>
<text text-anchor="middle" x="25" y="-250.5" font-family="Helvetica,sans-Serif" font-size="10.00"> </text>
</a>
</g>
</g>
<!-- Node3&#45;&gt;Node2 -->
<g id="edge2" class="edge">
<title>Node3&#45;&gt;Node2</title>
<path fill="none" stroke="#404040" d="M25.99,-243.27C27.86,-226.86 32.57,-206.52 44,-192 49.03,-185.61 55.2,-180.02 61.91,-175.16"/>
<polygon fill="none" stroke="#404040" points="62.02,-175.09 64.87,-168.47 72.08,-168.55 69.23,-175.17 62.02,-175.09"/>
<text text-anchor="middle" x="87" y="-217" font-family="Helvetica,sans-Serif" font-size="10.00"> +amplitude</text>
<text text-anchor="start" x="44" y="-206" font-family="Helvetica,sans-Serif" font-size="10.00">+call_sign_pause</text>
<text text-anchor="middle" x="87" y="-195" font-family="Helvetica,sans-Serif" font-size="10.00">_seconds</text>
</g>
<!-- Node4 -->
<g id="node4" class="node">
<title>Node4</title>
<g id="a_node4"><a xlink:title=" ">
<polygon fill="none" stroke="#bfbfbf" points="92.5,-243.5 92.5,-300.5 175.5,-300.5 175.5,-243.5 92.5,-243.5"/>
<text text-anchor="middle" x="134" y="-288.5" font-family="Helvetica,sans-Serif" font-size="10.00">CallSignMode</text>
<polyline fill="none" stroke="#bfbfbf" points="92.5,-281.5 175.5,-281.5 "/>
<text text-anchor="middle" x="134" y="-269.5" font-family="Helvetica,sans-Serif" font-size="10.00"> </text>
<polyline fill="none" stroke="#bfbfbf" points="92.5,-262.5 175.5,-262.5 "/>
<text text-anchor="middle" x="134" y="-250.5" font-family="Helvetica,sans-Serif" font-size="10.00"> </text>
</a>
</g>
</g>
<!-- Node4&#45;&gt;Node2 -->
<g id="edge3" class="edge">
<title>Node4&#45;&gt;Node2</title>
<path fill="none" stroke="#404040" d="M134,-243.26C134,-226.35 134,-204.46 134,-185.73"/>
<polygon fill="none" stroke="#404040" points="134,-185.66 130,-179.66 134,-173.66 138,-179.66 134,-185.66"/>
<text text-anchor="middle" x="178" y="-206" font-family="Helvetica,sans-Serif" font-size="10.00"> +call_sign_mode</text>
</g>
<!-- Node5 -->
<g id="node5" class="node">
<title>Node5</title>
<g id="a_node5"><a xlink:title=" ">
<polygon fill="none" stroke="#bfbfbf" points="223,-243.5 223,-300.5 267,-300.5 267,-243.5 223,-243.5"/>
<text text-anchor="middle" x="245" y="-288.5" font-family="Helvetica,sans-Serif" font-size="10.00">string</text>
<polyline fill="none" stroke="#bfbfbf" points="223,-281.5 267,-281.5 "/>
<text text-anchor="middle" x="245" y="-269.5" font-family="Helvetica,sans-Serif" font-size="10.00"> </text>
<polyline fill="none" stroke="#bfbfbf" points="223,-262.5 267,-262.5 "/>
<text text-anchor="middle" x="245" y="-250.5" font-family="Helvetica,sans-Serif" font-size="10.00"> </text>
</a>
</g>
</g>
<!-- Node5&#45;&gt;Node2 -->
<g id="edge4" class="edge">
<title>Node5&#45;&gt;Node2</title>
<path fill="none" stroke="#404040" d="M242.8,-243.24C240.25,-226.82 234.77,-206.47 223,-192 218.18,-186.07 212.38,-180.81 206.1,-176.18"/>
<polygon fill="none" stroke="#404040" points="205.88,-176.04 198.67,-176.06 195.88,-169.41 203.09,-169.39 205.88,-176.04"/>
<text text-anchor="middle" x="265.5" y="-206" font-family="Helvetica,sans-Serif" font-size="10.00"> +call_sign</text>
</g>
<!-- Node6 -->
<g id="node6" class="node">
<title>Node6</title>
<g id="a_node6"><a xlink:title=" ">
<polygon fill="none" stroke="#bfbfbf" points="214,-116.5 214,-173.5 252,-173.5 252,-116.5 214,-116.5"/>
<text text-anchor="middle" x="233" y="-161.5" font-family="Helvetica,sans-Serif" font-size="10.00">bool</text>
<polyline fill="none" stroke="#bfbfbf" points="214,-154.5 252,-154.5 "/>
<text text-anchor="middle" x="233" y="-142.5" font-family="Helvetica,sans-Serif" font-size="10.00"> </text>
<polyline fill="none" stroke="#bfbfbf" points="214,-135.5 252,-135.5 "/>
<text text-anchor="middle" x="233" y="-123.5" font-family="Helvetica,sans-Serif" font-size="10.00"> </text>
</a>
</g>
</g>
<!-- Node6&#45;&gt;Node1 -->
<g id="edge5" class="edge">
<title>Node6&#45;&gt;Node1</title>
<path fill="none" stroke="#404040" d="M233,-116.34C233,-105.53 233,-92.85 233,-80.77"/>
<polygon fill="none" stroke="#404040" points="233,-80.52 229,-74.52 233,-68.52 237,-74.52 233,-80.52"/>
<text text-anchor="middle" x="281.5" y="-90" font-family="Helvetica,sans-Serif" font-size="10.00"> +overlay_call_sign</text>
</g>
<!-- Node7 -->
<g id="node7" class="node">
<title>Node7</title>
<g id="a_node7"><a xlink:title=" ">
<polygon fill="none" stroke="#bfbfbf" points="320.5,-116.5 320.5,-173.5 385.5,-173.5 385.5,-116.5 320.5,-116.5"/>
<text text-anchor="middle" x="353" y="-161.5" font-family="Helvetica,sans-Serif" font-size="10.00">SstvMode</text>
<polyline fill="none" stroke="#bfbfbf" points="320.5,-154.5 385.5,-154.5 "/>
<text text-anchor="middle" x="353" y="-142.5" font-family="Helvetica,sans-Serif" font-size="10.00"> </text>
<polyline fill="none" stroke="#bfbfbf" points="320.5,-135.5 385.5,-135.5 "/>
<text text-anchor="middle" x="353" y="-123.5" font-family="Helvetica,sans-Serif" font-size="10.00"> </text>
</a>
</g>
</g>
<!-- Node7&#45;&gt;Node1 -->
<g id="edge6" class="edge">
<title>Node7&#45;&gt;Node1</title>
<path fill="none" stroke="#404040" d="M346.7,-116.29C343.34,-106.19 338.34,-95.24 331,-87 321.31,-76.12 308.77,-67.17 295.92,-59.96"/>
<polygon fill="none" stroke="#404040" points="295.74,-59.87 288.57,-60.63 285.1,-54.31 292.27,-53.54 295.74,-59.87"/>
<text text-anchor="middle" x="358" y="-90" font-family="Helvetica,sans-Serif" font-size="10.00"> +mode</text>
</g>
</g>
</svg>
