<?xml version="1.0" encoding="UTF-8" standalone="no"?>
<!DOCTYPE svg PUBLIC "-//W3C//DTD SVG 1.1//EN"
 "http://www.w3.org/Graphics/SVG/1.1/DTD/svg11.dtd">
<!-- Generated by graphviz version 2.43.0 (0)
 -->
<!-- Title: signal_easel::aprs::TelemetryPacket::encode Pages: 1 -->
<svg width="802pt" height="350pt"
 viewBox="0.00 0.00 802.00 350.00" xmlns="http://www.w3.org/2000/svg" xmlns:xlink="http://www.w3.org/1999/xlink">
<g id="graph0" class="graph" transform="scale(1 1) rotate(0) translate(4 346)">
<title>signal_easel::aprs::TelemetryPacket::encode</title>
<!-- Node1 -->
<g id="node1" class="node">
<title>Node1</title>
<g id="a_node1"><a xlink:title=" ">
<polygon fill="#bfbfbf" stroke="black" points="0,-186 0,-216 144,-216 144,-186 0,-186"/>
<text text-anchor="start" x="8" y="-204" font-family="Helvetica,sans-Serif" font-size="10.00">signal_easel::aprs</text>
<text text-anchor="middle" x="72" y="-193" font-family="Helvetica,sans-Serif" font-size="10.00">::TelemetryPacket::encode</text>
</a>
</g>
</g>
<!-- Node2 -->
<g id="node2" class="node">
<title>Node2</title>
<g id="a_node2"><a xlink:href="classsignal__easel_1_1aprs_1_1telemetry_1_1TelemetryTranscoder.html#a51e875c6aae69befbefc51fc8787454e" target="_top" xlink:title="Encodes the bit sense and project name into a message.">
<polygon fill="none" stroke="black" points="193.5,-300.5 193.5,-341.5 370.5,-341.5 370.5,-300.5 193.5,-300.5"/>
<text text-anchor="start" x="201.5" y="-329.5" font-family="Helvetica,sans-Serif" font-size="10.00">signal_easel::aprs</text>
<text text-anchor="start" x="201.5" y="-318.5" font-family="Helvetica,sans-Serif" font-size="10.00">::telemetry::TelemetryTranscoder</text>
<text text-anchor="middle" x="282" y="-307.5" font-family="Helvetica,sans-Serif" font-size="10.00">::encodeBitSenseMessage</text>
</a>
</g>
</g>
<!-- Node1&#45;&gt;Node2 -->
<g id="edge1" class="edge">
<title>Node1&#45;&gt;Node2</title>
<path fill="none" stroke="midnightblue" d="M87.12,-216.28C106.33,-236.2 142.6,-270.86 180,-291 183.67,-292.98 187.48,-294.84 191.39,-296.59"/>
<polygon fill="midnightblue" stroke="midnightblue" points="190.07,-299.83 200.65,-300.48 192.79,-293.38 190.07,-299.83"/>
</g>
<!-- Node7 -->
<g id="node7" class="node">
<title>Node7</title>
<g id="a_node7"><a xlink:href="classsignal__easel_1_1aprs_1_1telemetry_1_1TelemetryTranscoder.html#ae5d6a4f37c1a561ae6be756dfef2f838" target="_top" xlink:title="Encodes the parameter data into a data report message.">
<polygon fill="none" stroke="black" points="193.5,-60.5 193.5,-101.5 370.5,-101.5 370.5,-60.5 193.5,-60.5"/>
<text text-anchor="start" x="201.5" y="-89.5" font-family="Helvetica,sans-Serif" font-size="10.00">signal_easel::aprs</text>
<text text-anchor="start" x="201.5" y="-78.5" font-family="Helvetica,sans-Serif" font-size="10.00">::telemetry::TelemetryTranscoder</text>
<text text-anchor="middle" x="282" y="-67.5" font-family="Helvetica,sans-Serif" font-size="10.00">::encodeDataReportMessage</text>
</a>
</g>
</g>
<!-- Node1&#45;&gt;Node7 -->
<g id="edge6" class="edge">
<title>Node1&#45;&gt;Node7</title>
<path fill="none" stroke="midnightblue" d="M87.12,-185.72C106.33,-165.8 142.6,-131.14 180,-111 183.67,-109.02 187.48,-107.16 191.39,-105.41"/>
<polygon fill="midnightblue" stroke="midnightblue" points="192.79,-108.62 200.65,-101.52 190.07,-102.17 192.79,-108.62"/>
</g>
<!-- Node11 -->
<g id="node11" class="node">
<title>Node11</title>
<g id="a_node11"><a xlink:href="classsignal__easel_1_1aprs_1_1telemetry_1_1TelemetryTranscoder.html#a0c6388feaed412c879ac58b7e3110307" target="_top" xlink:title="Encodes the parameter coefficients into a message.">
<polygon fill="none" stroke="black" points="180,-240.5 180,-281.5 384,-281.5 384,-240.5 180,-240.5"/>
<text text-anchor="start" x="188" y="-269.5" font-family="Helvetica,sans-Serif" font-size="10.00">signal_easel::aprs</text>
<text text-anchor="start" x="188" y="-258.5" font-family="Helvetica,sans-Serif" font-size="10.00">::telemetry::TelemetryTranscoder</text>
<text text-anchor="middle" x="282" y="-247.5" font-family="Helvetica,sans-Serif" font-size="10.00">::encodeParameterCoefficientMessage</text>
</a>
</g>
</g>
<!-- Node1&#45;&gt;Node11 -->
<g id="edge11" class="edge">
<title>Node1&#45;&gt;Node11</title>
<path fill="none" stroke="midnightblue" d="M125.22,-216.06C147.85,-222.59 174.87,-230.38 200,-237.63"/>
<polygon fill="midnightblue" stroke="midnightblue" points="199.32,-241.08 209.89,-240.49 201.26,-234.35 199.32,-241.08"/>
</g>
<!-- Node12 -->
<g id="node12" class="node">
<title>Node12</title>
<g id="a_node12"><a xlink:href="classsignal__easel_1_1aprs_1_1telemetry_1_1TelemetryTranscoder.html#a31185ab0ef295b51409170c1b7d5f880" target="_top" xlink:title="Encodes the parameter names into a message.">
<polygon fill="none" stroke="black" points="191.5,-180.5 191.5,-221.5 372.5,-221.5 372.5,-180.5 191.5,-180.5"/>
<text text-anchor="start" x="199.5" y="-209.5" font-family="Helvetica,sans-Serif" font-size="10.00">signal_easel::aprs</text>
<text text-anchor="start" x="199.5" y="-198.5" font-family="Helvetica,sans-Serif" font-size="10.00">::telemetry::TelemetryTranscoder</text>
<text text-anchor="middle" x="282" y="-187.5" font-family="Helvetica,sans-Serif" font-size="10.00">::encodeParameterNameMessage</text>
</a>
</g>
</g>
<!-- Node1&#45;&gt;Node12 -->
<g id="edge14" class="edge">
<title>Node1&#45;&gt;Node12</title>
<path fill="none" stroke="midnightblue" d="M144,-201C155.98,-201 168.61,-201 181.16,-201"/>
<polygon fill="midnightblue" stroke="midnightblue" points="181.19,-204.5 191.19,-201 181.19,-197.5 181.19,-204.5"/>
</g>
<!-- Node13 -->
<g id="node13" class="node">
<title>Node13</title>
<g id="a_node13"><a xlink:href="classsignal__easel_1_1aprs_1_1telemetry_1_1TelemetryTranscoder.html#a1ef507c0f7b59c9fcf34a1749124cf4e" target="_top" xlink:title="Encodes the parameter units and labels into a message.">
<polygon fill="none" stroke="black" points="193.5,-120.5 193.5,-161.5 370.5,-161.5 370.5,-120.5 193.5,-120.5"/>
<text text-anchor="start" x="201.5" y="-149.5" font-family="Helvetica,sans-Serif" font-size="10.00">signal_easel::aprs</text>
<text text-anchor="start" x="201.5" y="-138.5" font-family="Helvetica,sans-Serif" font-size="10.00">::telemetry::TelemetryTranscoder</text>
<text text-anchor="middle" x="282" y="-127.5" font-family="Helvetica,sans-Serif" font-size="10.00">::encodeUnitAndLabelMessage</text>
</a>
</g>
</g>
<!-- Node1&#45;&gt;Node13 -->
<g id="edge18" class="edge">
<title>Node1&#45;&gt;Node13</title>
<path fill="none" stroke="midnightblue" d="M125.22,-185.94C147.85,-179.41 174.87,-171.62 200,-164.37"/>
<polygon fill="midnightblue" stroke="midnightblue" points="201.26,-167.65 209.89,-161.51 199.32,-160.92 201.26,-167.65"/>
</g>
<!-- Node3 -->
<g id="node3" class="node">
<title>Node3</title>
<g id="a_node3"><a xlink:href="classsignal__easel_1_1aprs_1_1telemetry_1_1TelemetryTranscoder.html#a195a39f0f0e23c8eacd3f552e4389932" target="_top" xlink:title="Used in the encode methods to add the telemetry station address to the message in the format &quot;:N0CALL...">
<polygon fill="none" stroke="black" points="420,-240.5 420,-281.5 597,-281.5 597,-240.5 420,-240.5"/>
<text text-anchor="start" x="428" y="-269.5" font-family="Helvetica,sans-Serif" font-size="10.00">signal_easel::aprs</text>
<text text-anchor="start" x="428" y="-258.5" font-family="Helvetica,sans-Serif" font-size="10.00">::telemetry::TelemetryTranscoder</text>
<text text-anchor="middle" x="508.5" y="-247.5" font-family="Helvetica,sans-Serif" font-size="10.00">::addTelemetryStationAddress</text>
</a>
</g>
</g>
<!-- Node2&#45;&gt;Node3 -->
<g id="edge2" class="edge">
<title>Node2&#45;&gt;Node3</title>
<path fill="none" stroke="midnightblue" d="M359.95,-300.44C379.58,-295.19 400.82,-289.51 420.9,-284.14"/>
<polygon fill="midnightblue" stroke="midnightblue" points="421.9,-287.5 430.65,-281.54 420.09,-280.74 421.9,-287.5"/>
</g>
<!-- Node5 -->
<g id="node5" class="node">
<title>Node5</title>
<g id="a_node5"><a xlink:href="classsignal__easel_1_1aprs_1_1telemetry_1_1TelemetryData.html#a8128a64f4d0f2a6af78ed636d5fbbb57" target="_top" xlink:title=" ">
<polygon fill="none" stroke="black" points="431.5,-180.5 431.5,-221.5 585.5,-221.5 585.5,-180.5 431.5,-180.5"/>
<text text-anchor="start" x="439.5" y="-209.5" font-family="Helvetica,sans-Serif" font-size="10.00">signal_easel::aprs</text>
<text text-anchor="start" x="439.5" y="-198.5" font-family="Helvetica,sans-Serif" font-size="10.00">::telemetry::TelemetryData</text>
<text text-anchor="middle" x="508.5" y="-187.5" font-family="Helvetica,sans-Serif" font-size="10.00">::getDigitalParametersConst</text>
</a>
</g>
</g>
<!-- Node2&#45;&gt;Node5 -->
<g id="edge4" class="edge">
<title>Node2&#45;&gt;Node5</title>
<path fill="none" stroke="midnightblue" d="M369.53,-300.27C374.64,-297.55 379.52,-294.47 384,-291 408.58,-271.94 395.83,-250.56 420,-231 421.78,-229.56 423.62,-228.19 425.53,-226.89"/>
<polygon fill="midnightblue" stroke="midnightblue" points="427.53,-229.77 434.23,-221.57 423.87,-223.8 427.53,-229.77"/>
</g>
<!-- Node6 -->
<g id="node6" class="node">
<title>Node6</title>
<g id="a_node6"><a xlink:href="classsignal__easel_1_1aprs_1_1telemetry_1_1TelemetryData.html#a895a66b4284ec38cf93dadbb8ffc826d" target="_top" xlink:title="Get the project title.">
<polygon fill="none" stroke="black" points="434.5,-300.5 434.5,-341.5 582.5,-341.5 582.5,-300.5 434.5,-300.5"/>
<text text-anchor="start" x="442.5" y="-329.5" font-family="Helvetica,sans-Serif" font-size="10.00">signal_easel::aprs</text>
<text text-anchor="start" x="442.5" y="-318.5" font-family="Helvetica,sans-Serif" font-size="10.00">::telemetry::TelemetryData</text>
<text text-anchor="middle" x="508.5" y="-307.5" font-family="Helvetica,sans-Serif" font-size="10.00">::getProjectTitle</text>
</a>
</g>
</g>
<!-- Node2&#45;&gt;Node6 -->
<g id="edge5" class="edge">
<title>Node2&#45;&gt;Node6</title>
<path fill="none" stroke="midnightblue" d="M370.76,-321C388.34,-321 406.76,-321 424.19,-321"/>
<polygon fill="midnightblue" stroke="midnightblue" points="424.32,-324.5 434.32,-321 424.32,-317.5 424.32,-324.5"/>
</g>
<!-- Node4 -->
<g id="node4" class="node">
<title>Node4</title>
<g id="a_node4"><a xlink:href="classsignal__easel_1_1aprs_1_1telemetry_1_1TelemetryData.html#a447c24a8880aa1098b47ad923ec33b70" target="_top" xlink:title="Get the address of the station that is sending the telemetry data.">
<polygon fill="none" stroke="black" points="633,-240.5 633,-281.5 794,-281.5 794,-240.5 633,-240.5"/>
<text text-anchor="start" x="641" y="-269.5" font-family="Helvetica,sans-Serif" font-size="10.00">signal_easel::aprs</text>
<text text-anchor="start" x="641" y="-258.5" font-family="Helvetica,sans-Serif" font-size="10.00">::telemetry::TelemetryData</text>
<text text-anchor="middle" x="713.5" y="-247.5" font-family="Helvetica,sans-Serif" font-size="10.00">::getTelemetryStationAddress</text>
</a>
</g>
</g>
<!-- Node3&#45;&gt;Node4 -->
<g id="edge3" class="edge">
<title>Node3&#45;&gt;Node4</title>
<path fill="none" stroke="midnightblue" d="M597.06,-261C605.62,-261 614.32,-261 622.9,-261"/>
<polygon fill="midnightblue" stroke="midnightblue" points="622.91,-264.5 632.91,-261 622.91,-257.5 622.91,-264.5"/>
</g>
<!-- Node7&#45;&gt;Node5 -->
<g id="edge9" class="edge">
<title>Node7&#45;&gt;Node5</title>
<path fill="none" stroke="midnightblue" d="M369.53,-101.73C374.64,-104.45 379.52,-107.53 384,-111 408.58,-130.06 395.83,-151.44 420,-171 421.78,-172.44 423.62,-173.81 425.53,-175.11"/>
<polygon fill="midnightblue" stroke="midnightblue" points="423.87,-178.2 434.23,-180.43 427.53,-172.23 423.87,-178.2"/>
</g>
<!-- Node8 -->
<g id="node8" class="node">
<title>Node8</title>
<g id="a_node8"><a xlink:href="classsignal__easel_1_1aprs_1_1telemetry_1_1TelemetryData.html#a5e9a7e28d18dbd0e50bb53ea7734aa1a" target="_top" xlink:title=" ">
<polygon fill="none" stroke="black" points="431,-120.5 431,-161.5 586,-161.5 586,-120.5 431,-120.5"/>
<text text-anchor="start" x="439" y="-149.5" font-family="Helvetica,sans-Serif" font-size="10.00">signal_easel::aprs</text>
<text text-anchor="start" x="439" y="-138.5" font-family="Helvetica,sans-Serif" font-size="10.00">::telemetry::TelemetryData</text>
<text text-anchor="middle" x="508.5" y="-127.5" font-family="Helvetica,sans-Serif" font-size="10.00">::getAnalogParametersConst</text>
</a>
</g>
</g>
<!-- Node7&#45;&gt;Node8 -->
<g id="edge7" class="edge">
<title>Node7&#45;&gt;Node8</title>
<path fill="none" stroke="midnightblue" d="M359.95,-101.56C379.58,-106.81 400.82,-112.49 420.9,-117.86"/>
<polygon fill="midnightblue" stroke="midnightblue" points="420.09,-121.26 430.65,-120.46 421.9,-114.5 420.09,-121.26"/>
</g>
<!-- Node9 -->
<g id="node9" class="node">
<title>Node9</title>
<g id="a_node9"><a xlink:href="classsignal__easel_1_1aprs_1_1telemetry_1_1TelemetryData.html#a6d64ddefdea8ac5471aa2e16f32cde9a" target="_top" xlink:title="Get the comment.">
<polygon fill="none" stroke="black" points="434.5,-60.5 434.5,-101.5 582.5,-101.5 582.5,-60.5 434.5,-60.5"/>
<text text-anchor="start" x="442.5" y="-89.5" font-family="Helvetica,sans-Serif" font-size="10.00">signal_easel::aprs</text>
<text text-anchor="start" x="442.5" y="-78.5" font-family="Helvetica,sans-Serif" font-size="10.00">::telemetry::TelemetryData</text>
<text text-anchor="middle" x="508.5" y="-67.5" font-family="Helvetica,sans-Serif" font-size="10.00">::getComment</text>
</a>
</g>
</g>
<!-- Node7&#45;&gt;Node9 -->
<g id="edge8" class="edge">
<title>Node7&#45;&gt;Node9</title>
<path fill="none" stroke="midnightblue" d="M370.76,-81C388.34,-81 406.76,-81 424.19,-81"/>
<polygon fill="midnightblue" stroke="midnightblue" points="424.32,-84.5 434.32,-81 424.32,-77.5 424.32,-84.5"/>
</g>
<!-- Node10 -->
<g id="node10" class="node">
<title>Node10</title>
<g id="a_node10"><a xlink:href="classsignal__easel_1_1aprs_1_1telemetry_1_1TelemetryData.html#a011a75e05eac5dc7dcd30f1d1b4c5174" target="_top" xlink:title="Get the sequence number as a string of 3 digits.">
<polygon fill="none" stroke="black" points="432,-0.5 432,-41.5 585,-41.5 585,-0.5 432,-0.5"/>
<text text-anchor="start" x="440" y="-29.5" font-family="Helvetica,sans-Serif" font-size="10.00">signal_easel::aprs</text>
<text text-anchor="start" x="440" y="-18.5" font-family="Helvetica,sans-Serif" font-size="10.00">::telemetry::TelemetryData</text>
<text text-anchor="middle" x="508.5" y="-7.5" font-family="Helvetica,sans-Serif" font-size="10.00">::getSequenceNumberString</text>
</a>
</g>
</g>
<!-- Node7&#45;&gt;Node10 -->
<g id="edge10" class="edge">
<title>Node7&#45;&gt;Node10</title>
<path fill="none" stroke="midnightblue" d="M359.95,-60.44C379.91,-55.1 401.53,-49.32 421.9,-43.88"/>
<polygon fill="midnightblue" stroke="midnightblue" points="423.04,-47.2 431.79,-41.23 421.23,-40.43 423.04,-47.2"/>
</g>
<!-- Node11&#45;&gt;Node3 -->
<g id="edge12" class="edge">
<title>Node11&#45;&gt;Node3</title>
<path fill="none" stroke="midnightblue" d="M384.09,-261C392.52,-261 401.05,-261 409.47,-261"/>
<polygon fill="midnightblue" stroke="midnightblue" points="409.67,-264.5 419.66,-261 409.66,-257.5 409.67,-264.5"/>
</g>
<!-- Node11&#45;&gt;Node8 -->
<g id="edge13" class="edge">
<title>Node11&#45;&gt;Node8</title>
<path fill="none" stroke="midnightblue" d="M369.53,-240.27C374.64,-237.55 379.52,-234.47 384,-231 408.58,-211.94 395.83,-190.56 420,-171 421.78,-169.56 423.62,-168.19 425.53,-166.89"/>
<polygon fill="midnightblue" stroke="midnightblue" points="427.53,-169.77 434.23,-161.57 423.87,-163.8 427.53,-169.77"/>
</g>
<!-- Node12&#45;&gt;Node3 -->
<g id="edge15" class="edge">
<title>Node12&#45;&gt;Node3</title>
<path fill="none" stroke="midnightblue" d="M359.95,-221.56C379.58,-226.81 400.82,-232.49 420.9,-237.86"/>
<polygon fill="midnightblue" stroke="midnightblue" points="420.09,-241.26 430.65,-240.46 421.9,-234.5 420.09,-241.26"/>
</g>
<!-- Node12&#45;&gt;Node5 -->
<g id="edge17" class="edge">
<title>Node12&#45;&gt;Node5</title>
<path fill="none" stroke="midnightblue" d="M372.7,-201C388.63,-201 405.19,-201 421.03,-201"/>
<polygon fill="midnightblue" stroke="midnightblue" points="421.32,-204.5 431.32,-201 421.32,-197.5 421.32,-204.5"/>
</g>
<!-- Node12&#45;&gt;Node8 -->
<g id="edge16" class="edge">
<title>Node12&#45;&gt;Node8</title>
<path fill="none" stroke="midnightblue" d="M359.95,-180.44C379.58,-175.19 400.82,-169.51 420.9,-164.14"/>
<polygon fill="midnightblue" stroke="midnightblue" points="421.9,-167.5 430.65,-161.54 420.09,-160.74 421.9,-167.5"/>
</g>
<!-- Node13&#45;&gt;Node3 -->
<g id="edge19" class="edge">
<title>Node13&#45;&gt;Node3</title>
<path fill="none" stroke="midnightblue" d="M369.53,-161.73C374.64,-164.45 379.52,-167.53 384,-171 408.58,-190.06 395.83,-211.44 420,-231 421.78,-232.44 423.62,-233.81 425.53,-235.11"/>
<polygon fill="midnightblue" stroke="midnightblue" points="423.87,-238.2 434.23,-240.43 427.53,-232.23 423.87,-238.2"/>
</g>
<!-- Node13&#45;&gt;Node5 -->
<g id="edge21" class="edge">
<title>Node13&#45;&gt;Node5</title>
<path fill="none" stroke="midnightblue" d="M359.95,-161.56C379.8,-166.87 401.29,-172.61 421.57,-178.03"/>
<polygon fill="midnightblue" stroke="midnightblue" points="420.85,-181.46 431.42,-180.67 422.66,-174.7 420.85,-181.46"/>
</g>
<!-- Node13&#45;&gt;Node8 -->
<g id="edge20" class="edge">
<title>Node13&#45;&gt;Node8</title>
<path fill="none" stroke="midnightblue" d="M370.76,-141C387.16,-141 404.29,-141 420.66,-141"/>
<polygon fill="midnightblue" stroke="midnightblue" points="420.74,-144.5 430.74,-141 420.74,-137.5 420.74,-144.5"/>
</g>
</g>
</svg>
