<?xml version="1.0" encoding="UTF-8" standalone="no"?>
<!DOCTYPE svg PUBLIC "-//W3C//DTD SVG 1.1//EN"
 "http://www.w3.org/Graphics/SVG/1.1/DTD/svg11.dtd">
<!-- Generated by graphviz version 2.43.0 (0)
 -->
<!-- Title: signal_easel::aprs::MessageAckPacket Pages: 1 -->
<svg width="435pt" height="299pt"
 viewBox="0.00 0.00 435.00 299.00" xmlns="http://www.w3.org/2000/svg" xmlns:xlink="http://www.w3.org/1999/xlink">
<g id="graph0" class="graph" transform="scale(1 1) rotate(0) translate(4 295)">
<title>signal_easel::aprs::MessageAckPacket</title>
<!-- Node1 -->
<g id="node1" class="node">
<title>Node1</title>
<g id="a_node1"><a xlink:title=" ">
<polygon fill="#bfbfbf" stroke="black" points="0,-0.5 0,-68.5 116,-68.5 116,-0.5 0,-0.5"/>
<text text-anchor="start" x="8" y="-56.5" font-family="Helvetica,sans-Serif" font-size="10.00">signal_easel::aprs</text>
<text text-anchor="middle" x="58" y="-45.5" font-family="Helvetica,sans-Serif" font-size="10.00">::MessageAckPacket</text>
<polyline fill="none" stroke="black" points="0,-38.5 116,-38.5 "/>
<text text-anchor="middle" x="58" y="-26.5" font-family="Helvetica,sans-Serif" font-size="10.00"> </text>
<polyline fill="none" stroke="black" points="0,-19.5 116,-19.5 "/>
<text text-anchor="start" x="8" y="-7.5" font-family="Helvetica,sans-Serif" font-size="10.00">+ encode()</text>
</a>
</g>
</g>
<!-- Node2 -->
<g id="node2" class="node">
<title>Node2</title>
<g id="a_node2"><a xlink:href="structsignal__easel_1_1aprs_1_1Packet.html" target="_top" xlink:title="The base APRS packet structure.">
<polygon fill="none" stroke="black" points="125,-106.5 125,-174.5 229,-174.5 229,-106.5 125,-106.5"/>
<text text-anchor="start" x="133" y="-162.5" font-family="Helvetica,sans-Serif" font-size="10.00">signal_easel::aprs</text>
<text text-anchor="middle" x="177" y="-151.5" font-family="Helvetica,sans-Serif" font-size="10.00">::Packet</text>
<polyline fill="none" stroke="black" points="125,-144.5 229,-144.5 "/>
<text text-anchor="middle" x="177" y="-132.5" font-family="Helvetica,sans-Serif" font-size="10.00"> </text>
<polyline fill="none" stroke="black" points="125,-125.5 229,-125.5 "/>
<text text-anchor="middle" x="177" y="-113.5" font-family="Helvetica,sans-Serif" font-size="10.00"> </text>
</a>
</g>
</g>
<!-- Node2&#45;&gt;Node1 -->
<g id="edge1" class="edge">
<title>Node2&#45;&gt;Node1</title>
<path fill="none" stroke="midnightblue" d="M131.46,-99.7C119.76,-89.48 107.3,-78.59 96.03,-68.73"/>
<polygon fill="none" stroke="midnightblue" points="129.19,-102.36 139.02,-106.31 133.79,-97.09 129.19,-102.36"/>
</g>
<!-- Node3 -->
<g id="node3" class="node">
<title>Node3</title>
<g id="a_node3"><a xlink:title=" ">
<polygon fill="none" stroke="black" points="6,-233.5 6,-290.5 50,-290.5 50,-233.5 6,-233.5"/>
<text text-anchor="middle" x="28" y="-278.5" font-family="Helvetica,sans-Serif" font-size="10.00">string</text>
<polyline fill="none" stroke="black" points="6,-271.5 50,-271.5 "/>
<text text-anchor="middle" x="28" y="-259.5" font-family="Helvetica,sans-Serif" font-size="10.00"> </text>
<polyline fill="none" stroke="black" points="6,-252.5 50,-252.5 "/>
<text text-anchor="middle" x="28" y="-240.5" font-family="Helvetica,sans-Serif" font-size="10.00"> </text>
</a>
</g>
</g>
<!-- Node3&#45;&gt;Node1 -->
<g id="edge6" class="edge">
<title>Node3&#45;&gt;Node1</title>
<path fill="none" stroke="#404040" d="M31.68,-233.35C36.75,-195.21 45.96,-126.02 52.03,-80.41"/>
<polygon fill="none" stroke="#404040" points="52.03,-80.4 48.85,-73.92 53.61,-68.5 56.78,-74.98 52.03,-80.4"/>
<text text-anchor="middle" x="82.5" y="-143.5" font-family="Helvetica,sans-Serif" font-size="10.00"> +addressee</text>
<text text-anchor="middle" x="82.5" y="-132.5" font-family="Helvetica,sans-Serif" font-size="10.00">+message_id</text>
</g>
<!-- Node3&#45;&gt;Node2 -->
<g id="edge2" class="edge">
<title>Node3&#45;&gt;Node2</title>
<path fill="none" stroke="#404040" d="M37.22,-233.45C42.9,-219.86 51.35,-204.07 63,-193 77.27,-179.44 95.74,-169.02 113.63,-161.22"/>
<polygon fill="none" stroke="#404040" points="113.85,-161.14 117.89,-155.16 124.95,-156.59 120.92,-162.56 113.85,-161.14"/>
<text text-anchor="middle" x="118" y="-207" font-family="Helvetica,sans-Serif" font-size="10.00"> +destination_address</text>
<text text-anchor="middle" x="118" y="-196" font-family="Helvetica,sans-Serif" font-size="10.00">+source_address</text>
</g>
<!-- Node4 -->
<g id="node4" class="node">
<title>Node4</title>
<g id="a_node4"><a xlink:title=" ">
<polygon fill="none" stroke="black" points="152,-233.5 152,-290.5 202,-290.5 202,-233.5 152,-233.5"/>
<text text-anchor="middle" x="177" y="-278.5" font-family="Helvetica,sans-Serif" font-size="10.00">uint8_t</text>
<polyline fill="none" stroke="black" points="152,-271.5 202,-271.5 "/>
<text text-anchor="middle" x="177" y="-259.5" font-family="Helvetica,sans-Serif" font-size="10.00"> </text>
<polyline fill="none" stroke="black" points="152,-252.5 202,-252.5 "/>
<text text-anchor="middle" x="177" y="-240.5" font-family="Helvetica,sans-Serif" font-size="10.00"> </text>
</a>
</g>
</g>
<!-- Node4&#45;&gt;Node2 -->
<g id="edge3" class="edge">
<title>Node4&#45;&gt;Node2</title>
<path fill="none" stroke="#404040" d="M177,-233.28C177,-219.47 177,-202.4 177,-186.75"/>
<polygon fill="none" stroke="#404040" points="177,-186.59 173,-180.59 177,-174.59 181,-180.59 177,-186.59"/>
<text text-anchor="middle" x="222.5" y="-207" font-family="Helvetica,sans-Serif" font-size="10.00"> +destination_ssid</text>
<text text-anchor="middle" x="222.5" y="-196" font-family="Helvetica,sans-Serif" font-size="10.00">+source_ssid</text>
</g>
<!-- Node5 -->
<g id="node5" class="node">
<title>Node5</title>
<g id="a_node5"><a xlink:title=" ">
<polygon fill="none" stroke="black" points="251.5,-233.5 251.5,-290.5 330.5,-290.5 330.5,-233.5 251.5,-233.5"/>
<text text-anchor="middle" x="291" y="-278.5" font-family="Helvetica,sans-Serif" font-size="10.00">SymbolTable</text>
<polyline fill="none" stroke="black" points="251.5,-271.5 330.5,-271.5 "/>
<text text-anchor="middle" x="291" y="-259.5" font-family="Helvetica,sans-Serif" font-size="10.00"> </text>
<polyline fill="none" stroke="black" points="251.5,-252.5 330.5,-252.5 "/>
<text text-anchor="middle" x="291" y="-240.5" font-family="Helvetica,sans-Serif" font-size="10.00"> </text>
</a>
</g>
</g>
<!-- Node5&#45;&gt;Node2 -->
<g id="edge4" class="edge">
<title>Node5&#45;&gt;Node2</title>
<path fill="none" stroke="#404040" d="M286.88,-233.23C283.77,-219.92 278.36,-204.42 269,-193 261,-183.24 250.63,-175 239.75,-168.17"/>
<polygon fill="none" stroke="#404040" points="239.6,-168.08 232.41,-168.52 229.23,-162.05 236.43,-161.61 239.6,-168.08"/>
<text text-anchor="middle" x="321" y="-201.5" font-family="Helvetica,sans-Serif" font-size="10.00"> +symbol_table</text>
</g>
<!-- Node6 -->
<g id="node6" class="node">
<title>Node6</title>
<g id="a_node6"><a xlink:title=" ">
<polygon fill="none" stroke="black" points="373,-233.5 373,-290.5 411,-290.5 411,-233.5 373,-233.5"/>
<text text-anchor="middle" x="392" y="-278.5" font-family="Helvetica,sans-Serif" font-size="10.00">char</text>
<polyline fill="none" stroke="black" points="373,-271.5 411,-271.5 "/>
<text text-anchor="middle" x="392" y="-259.5" font-family="Helvetica,sans-Serif" font-size="10.00"> </text>
<polyline fill="none" stroke="black" points="373,-252.5 411,-252.5 "/>
<text text-anchor="middle" x="392" y="-240.5" font-family="Helvetica,sans-Serif" font-size="10.00"> </text>
</a>
</g>
</g>
<!-- Node6&#45;&gt;Node2 -->
<g id="edge5" class="edge">
<title>Node6&#45;&gt;Node2</title>
<path fill="none" stroke="#404040" d="M386.7,-233.44C382.68,-219.51 375.76,-203.41 364,-193 330.29,-163.17 280.8,-150.45 241.2,-145.1"/>
<polygon fill="none" stroke="#404040" points="241.17,-145.1 234.74,-148.36 229.26,-143.67 235.69,-140.42 241.17,-145.1"/>
<text text-anchor="middle" x="403" y="-201.5" font-family="Helvetica,sans-Serif" font-size="10.00"> +symbol</text>
</g>
</g>
</svg>
