<?xml version="1.0" encoding="UTF-8" standalone="no"?>
<!DOCTYPE svg PUBLIC "-//W3C//DTD SVG 1.1//EN"
 "http://www.w3.org/Graphics/SVG/1.1/DTD/svg11.dtd">
<!-- Generated by graphviz version 2.43.0 (0)
 -->
<!-- Title: signal_easel::aprs::MessageAck Pages: 1 -->
<svg width="505pt" height="299pt"
 viewBox="0.00 0.00 504.50 299.00" xmlns="http://www.w3.org/2000/svg" xmlns:xlink="http://www.w3.org/1999/xlink">
<g id="graph0" class="graph" transform="scale(1 1) rotate(0) translate(4 295)">
<title>signal_easel::aprs::MessageAck</title>
<!-- Node1 -->
<g id="node1" class="node">
<title>Node1</title>
<g id="a_node1"><a xlink:title=" ">
<polygon fill="#bfbfbf" stroke="black" points="278.5,-0.5 278.5,-68.5 382.5,-68.5 382.5,-0.5 278.5,-0.5"/>
<text text-anchor="start" x="286.5" y="-56.5" font-family="Helvetica,sans-Serif" font-size="10.00">signal_easel::aprs</text>
<text text-anchor="middle" x="330.5" y="-45.5" font-family="Helvetica,sans-Serif" font-size="10.00">::MessageAck</text>
<polyline fill="none" stroke="black" points="278.5,-38.5 382.5,-38.5 "/>
<text text-anchor="middle" x="330.5" y="-26.5" font-family="Helvetica,sans-Serif" font-size="10.00"> </text>
<polyline fill="none" stroke="black" points="278.5,-19.5 382.5,-19.5 "/>
<text text-anchor="start" x="286.5" y="-7.5" font-family="Helvetica,sans-Serif" font-size="10.00">+ encode()</text>
</a>
</g>
</g>
<!-- Node2 -->
<g id="node2" class="node">
<title>Node2</title>
<g id="a_node2"><a xlink:href="structsignal__easel_1_1aprs_1_1Packet.html" target="_top" xlink:title=" ">
<polygon fill="none" stroke="black" points="159.5,-106.5 159.5,-174.5 263.5,-174.5 263.5,-106.5 159.5,-106.5"/>
<text text-anchor="start" x="167.5" y="-162.5" font-family="Helvetica,sans-Serif" font-size="10.00">signal_easel::aprs</text>
<text text-anchor="middle" x="211.5" y="-151.5" font-family="Helvetica,sans-Serif" font-size="10.00">::Packet</text>
<polyline fill="none" stroke="black" points="159.5,-144.5 263.5,-144.5 "/>
<text text-anchor="middle" x="211.5" y="-132.5" font-family="Helvetica,sans-Serif" font-size="10.00"> </text>
<polyline fill="none" stroke="black" points="159.5,-125.5 263.5,-125.5 "/>
<text text-anchor="middle" x="211.5" y="-113.5" font-family="Helvetica,sans-Serif" font-size="10.00"> </text>
</a>
</g>
</g>
<!-- Node2&#45;&gt;Node1 -->
<g id="edge1" class="edge">
<title>Node2&#45;&gt;Node1</title>
<path fill="none" stroke="midnightblue" d="M257.04,-99.7C268.74,-89.48 281.2,-78.59 292.47,-68.73"/>
<polygon fill="none" stroke="midnightblue" points="254.71,-97.09 249.48,-106.31 259.31,-102.36 254.71,-97.09"/>
</g>
<!-- Node3 -->
<g id="node3" class="node">
<title>Node3</title>
<g id="a_node3"><a xlink:title=" ">
<polygon fill="none" stroke="#bfbfbf" points="0,-233.5 0,-290.5 79,-290.5 79,-233.5 0,-233.5"/>
<text text-anchor="middle" x="39.5" y="-278.5" font-family="Helvetica,sans-Serif" font-size="10.00">SymbolTable</text>
<polyline fill="none" stroke="#bfbfbf" points="0,-271.5 79,-271.5 "/>
<text text-anchor="middle" x="39.5" y="-259.5" font-family="Helvetica,sans-Serif" font-size="10.00"> </text>
<polyline fill="none" stroke="#bfbfbf" points="0,-252.5 79,-252.5 "/>
<text text-anchor="middle" x="39.5" y="-240.5" font-family="Helvetica,sans-Serif" font-size="10.00"> </text>
</a>
</g>
</g>
<!-- Node3&#45;&gt;Node2 -->
<g id="edge2" class="edge">
<title>Node3&#45;&gt;Node2</title>
<path fill="none" stroke="#404040" d="M45.66,-233.45C49.99,-219.7 57.11,-203.75 68.5,-193 90.14,-172.56 120.48,-160.14 147.64,-152.63"/>
<polygon fill="none" stroke="#404040" points="147.83,-152.58 152.65,-147.22 159.46,-149.61 154.64,-154.97 147.83,-152.58"/>
<text text-anchor="middle" x="107.5" y="-201.5" font-family="Helvetica,sans-Serif" font-size="10.00"> +symbol_table</text>
</g>
<!-- Node4 -->
<g id="node4" class="node">
<title>Node4</title>
<g id="a_node4"><a xlink:title=" ">
<polygon fill="none" stroke="#bfbfbf" points="121.5,-233.5 121.5,-290.5 159.5,-290.5 159.5,-233.5 121.5,-233.5"/>
<text text-anchor="middle" x="140.5" y="-278.5" font-family="Helvetica,sans-Serif" font-size="10.00">char</text>
<polyline fill="none" stroke="#bfbfbf" points="121.5,-271.5 159.5,-271.5 "/>
<text text-anchor="middle" x="140.5" y="-259.5" font-family="Helvetica,sans-Serif" font-size="10.00"> </text>
<polyline fill="none" stroke="#bfbfbf" points="121.5,-252.5 159.5,-252.5 "/>
<text text-anchor="middle" x="140.5" y="-240.5" font-family="Helvetica,sans-Serif" font-size="10.00"> </text>
</a>
</g>
</g>
<!-- Node4&#45;&gt;Node2 -->
<g id="edge3" class="edge">
<title>Node4&#45;&gt;Node2</title>
<path fill="none" stroke="#404040" d="M144.87,-233.23C147.72,-220.37 152.3,-205.26 159.5,-193 161.28,-189.97 163.28,-186.99 165.44,-184.1"/>
<polygon fill="none" stroke="#404040" points="165.64,-183.85 166.36,-176.67 173.26,-174.57 172.54,-181.75 165.64,-183.85"/>
<text text-anchor="middle" x="183.5" y="-201.5" font-family="Helvetica,sans-Serif" font-size="10.00"> +symbol</text>
</g>
<!-- Node5 -->
<g id="node5" class="node">
<title>Node5</title>
<g id="a_node5"><a xlink:title=" ">
<polygon fill="none" stroke="#bfbfbf" points="186.5,-233.5 186.5,-290.5 236.5,-290.5 236.5,-233.5 186.5,-233.5"/>
<text text-anchor="middle" x="211.5" y="-278.5" font-family="Helvetica,sans-Serif" font-size="10.00">uint8_t</text>
<polyline fill="none" stroke="#bfbfbf" points="186.5,-271.5 236.5,-271.5 "/>
<text text-anchor="middle" x="211.5" y="-259.5" font-family="Helvetica,sans-Serif" font-size="10.00"> </text>
<polyline fill="none" stroke="#bfbfbf" points="186.5,-252.5 236.5,-252.5 "/>
<text text-anchor="middle" x="211.5" y="-240.5" font-family="Helvetica,sans-Serif" font-size="10.00"> </text>
</a>
</g>
</g>
<!-- Node5&#45;&gt;Node2 -->
<g id="edge4" class="edge">
<title>Node5&#45;&gt;Node2</title>
<path fill="none" stroke="#404040" d="M211.5,-233.28C211.5,-219.47 211.5,-202.4 211.5,-186.75"/>
<polygon fill="none" stroke="#404040" points="211.5,-186.59 207.5,-180.59 211.5,-174.59 215.5,-180.59 211.5,-186.59"/>
<text text-anchor="middle" x="257" y="-207" font-family="Helvetica,sans-Serif" font-size="10.00"> +destination_ssid</text>
<text text-anchor="middle" x="257" y="-196" font-family="Helvetica,sans-Serif" font-size="10.00">+source_ssid</text>
</g>
<!-- Node6 -->
<g id="node6" class="node">
<title>Node6</title>
<g id="a_node6"><a xlink:title=" ">
<polygon fill="none" stroke="#bfbfbf" points="365.5,-233.5 365.5,-290.5 409.5,-290.5 409.5,-233.5 365.5,-233.5"/>
<text text-anchor="middle" x="387.5" y="-278.5" font-family="Helvetica,sans-Serif" font-size="10.00">string</text>
<polyline fill="none" stroke="#bfbfbf" points="365.5,-271.5 409.5,-271.5 "/>
<text text-anchor="middle" x="387.5" y="-259.5" font-family="Helvetica,sans-Serif" font-size="10.00"> </text>
<polyline fill="none" stroke="#bfbfbf" points="365.5,-252.5 409.5,-252.5 "/>
<text text-anchor="middle" x="387.5" y="-240.5" font-family="Helvetica,sans-Serif" font-size="10.00"> </text>
</a>
</g>
</g>
<!-- Node6&#45;&gt;Node1 -->
<g id="edge6" class="edge">
<title>Node6&#45;&gt;Node1</title>
<path fill="none" stroke="#404040" d="M409.58,-246.73C419.82,-238.76 430.94,-227.85 436.5,-215 440.38,-206.03 439.35,-202.35 436.5,-193 423.31,-149.76 393.82,-107.65 369.29,-77.86"/>
<polygon fill="none" stroke="#404040" points="369.26,-77.82 362.33,-75.8 361.53,-68.64 368.45,-70.65 369.26,-77.82"/>
<text text-anchor="middle" x="463" y="-143.5" font-family="Helvetica,sans-Serif" font-size="10.00"> +addressee</text>
<text text-anchor="middle" x="463" y="-132.5" font-family="Helvetica,sans-Serif" font-size="10.00">+message_id</text>
</g>
<!-- Node6&#45;&gt;Node2 -->
<g id="edge5" class="edge">
<title>Node6&#45;&gt;Node2</title>
<path fill="none" stroke="#404040" d="M365.28,-245.21C353.5,-236.6 338.93,-225.57 326.5,-215 315.72,-205.84 314.87,-201.41 303.5,-193 294.32,-186.21 284.16,-179.68 274.04,-173.68"/>
<polygon fill="none" stroke="#404040" points="273.94,-173.62 266.74,-174.09 263.54,-167.62 270.74,-167.16 273.94,-173.62"/>
<text text-anchor="middle" x="381.5" y="-207" font-family="Helvetica,sans-Serif" font-size="10.00"> +destination_address</text>
<text text-anchor="middle" x="381.5" y="-196" font-family="Helvetica,sans-Serif" font-size="10.00">+source_address</text>
</g>
</g>
</svg>
