<?xml version="1.0" encoding="UTF-8" standalone="no"?>
<!DOCTYPE svg PUBLIC "-//W3C//DTD SVG 1.1//EN"
 "http://www.w3.org/Graphics/SVG/1.1/DTD/svg11.dtd">
<!-- Generated by graphviz version 2.43.0 (0)
 -->
<!-- Title: signal_easel::psk::Settings Pages: 1 -->
<svg width="158pt" height="259pt"
 viewBox="0.00 0.00 158.00 259.00" xmlns="http://www.w3.org/2000/svg" xmlns:xlink="http://www.w3.org/1999/xlink">
<g id="graph0" class="graph" transform="scale(1 1) rotate(0) translate(4 255)">
<title>signal_easel::psk::Settings</title>
<!-- Node1 -->
<g id="node1" class="node">
<title>Node1</title>
<g id="a_node1"><a xlink:title="Settings for PSK modulation.">
<polygon fill="#bfbfbf" stroke="black" points="17,-0.5 17,-123.5 133,-123.5 133,-0.5 17,-0.5"/>
<text text-anchor="start" x="25" y="-111.5" font-family="Helvetica,sans-Serif" font-size="10.00">signal_easel::psk::</text>
<text text-anchor="middle" x="75" y="-100.5" font-family="Helvetica,sans-Serif" font-size="10.00">Settings</text>
<polyline fill="none" stroke="black" points="17,-93.5 133,-93.5 "/>
<text text-anchor="start" x="25" y="-81.5" font-family="Helvetica,sans-Serif" font-size="10.00">+ carrier_frequency</text>
<text text-anchor="start" x="25" y="-70.5" font-family="Helvetica,sans-Serif" font-size="10.00">+ fldigi_mode</text>
<text text-anchor="start" x="25" y="-59.5" font-family="Helvetica,sans-Serif" font-size="10.00">+ mode</text>
<text text-anchor="start" x="25" y="-48.5" font-family="Helvetica,sans-Serif" font-size="10.00">+ postamble_length</text>
<text text-anchor="start" x="25" y="-37.5" font-family="Helvetica,sans-Serif" font-size="10.00">+ preamble_length</text>
<text text-anchor="start" x="25" y="-26.5" font-family="Helvetica,sans-Serif" font-size="10.00">+ symbol_rate</text>
<polyline fill="none" stroke="black" points="17,-19.5 133,-19.5 "/>
<text text-anchor="middle" x="75" y="-7.5" font-family="Helvetica,sans-Serif" font-size="10.00"> </text>
</a>
</g>
</g>
<!-- Node2 -->
<g id="node2" class="node">
<title>Node2</title>
<g id="a_node2"><a xlink:href="structsignal__easel_1_1Settings.html" target="_top" xlink:title="The universal settings for MWAV.">
<polygon fill="none" stroke="black" points="0,-160.5 0,-250.5 150,-250.5 150,-160.5 0,-160.5"/>
<text text-anchor="middle" x="75" y="-238.5" font-family="Helvetica,sans-Serif" font-size="10.00">signal_easel::Settings</text>
<polyline fill="none" stroke="black" points="0,-231.5 150,-231.5 "/>
<text text-anchor="start" x="8" y="-219.5" font-family="Helvetica,sans-Serif" font-size="10.00">+ amplitude</text>
<text text-anchor="start" x="8" y="-208.5" font-family="Helvetica,sans-Serif" font-size="10.00">+ call_sign</text>
<text text-anchor="start" x="8" y="-197.5" font-family="Helvetica,sans-Serif" font-size="10.00">+ call_sign_mode</text>
<text text-anchor="start" x="8" y="-186.5" font-family="Helvetica,sans-Serif" font-size="10.00">+ call_sign_pause_seconds</text>
<polyline fill="none" stroke="black" points="0,-179.5 150,-179.5 "/>
<text text-anchor="middle" x="75" y="-167.5" font-family="Helvetica,sans-Serif" font-size="10.00"> </text>
</a>
</g>
</g>
<!-- Node2&#45;&gt;Node1 -->
<g id="edge1" class="edge">
<title>Node2&#45;&gt;Node1</title>
<path fill="none" stroke="midnightblue" d="M75,-150.11C75,-141.42 75,-132.38 75,-123.56"/>
<polygon fill="none" stroke="midnightblue" points="71.5,-150.12 75,-160.12 78.5,-150.12 71.5,-150.12"/>
</g>
</g>
</svg>
