<?xml version="1.0" encoding="UTF-8" standalone="no"?>
<!DOCTYPE svg PUBLIC "-//W3C//DTD SVG 1.1//EN"
 "http://www.w3.org/Graphics/SVG/1.1/DTD/svg11.dtd">
<!-- Generated by graphviz version 2.43.0 (0)
 -->
<!-- Title: signal_easel::psk::Settings Pages: 1 -->
<svg width="586pt" height="331pt"
 viewBox="0.00 0.00 586.00 331.00" xmlns="http://www.w3.org/2000/svg" xmlns:xlink="http://www.w3.org/1999/xlink">
<g id="graph0" class="graph" transform="scale(1 1) rotate(0) translate(4 327)">
<title>signal_easel::psk::Settings</title>
<!-- Node1 -->
<g id="node1" class="node">
<title>Node1</title>
<g id="a_node1"><a xlink:title="Settings for PSK modulation.">
<polygon fill="#bfbfbf" stroke="black" points="247.5,-0.5 247.5,-68.5 354.5,-68.5 354.5,-0.5 247.5,-0.5"/>
<text text-anchor="start" x="255.5" y="-56.5" font-family="Helvetica,sans-Serif" font-size="10.00">signal_easel::psk::</text>
<text text-anchor="middle" x="301" y="-45.5" font-family="Helvetica,sans-Serif" font-size="10.00">Settings</text>
<polyline fill="none" stroke="black" points="247.5,-38.5 354.5,-38.5 "/>
<text text-anchor="middle" x="301" y="-26.5" font-family="Helvetica,sans-Serif" font-size="10.00"> </text>
<polyline fill="none" stroke="black" points="247.5,-19.5 354.5,-19.5 "/>
<text text-anchor="middle" x="301" y="-7.5" font-family="Helvetica,sans-Serif" font-size="10.00"> </text>
</a>
</g>
</g>
<!-- Node2 -->
<g id="node2" class="node">
<title>Node2</title>
<g id="a_node2"><a xlink:href="structsignal__easel_1_1Settings.html" target="_top" xlink:title="The universal settings for MWAV.">
<polygon fill="none" stroke="black" points="72.5,-138.5 72.5,-195.5 195.5,-195.5 195.5,-138.5 72.5,-138.5"/>
<text text-anchor="middle" x="134" y="-183.5" font-family="Helvetica,sans-Serif" font-size="10.00">signal_easel::Settings</text>
<polyline fill="none" stroke="black" points="72.5,-176.5 195.5,-176.5 "/>
<text text-anchor="middle" x="134" y="-164.5" font-family="Helvetica,sans-Serif" font-size="10.00"> </text>
<polyline fill="none" stroke="black" points="72.5,-157.5 195.5,-157.5 "/>
<text text-anchor="middle" x="134" y="-145.5" font-family="Helvetica,sans-Serif" font-size="10.00"> </text>
</a>
</g>
</g>
<!-- Node2&#45;&gt;Node1 -->
<g id="edge1" class="edge">
<title>Node2&#45;&gt;Node1</title>
<path fill="none" stroke="midnightblue" d="M177.3,-132.16C202.32,-112.61 233.66,-88.12 258.53,-68.68"/>
<polygon fill="none" stroke="midnightblue" points="175.14,-129.41 169.42,-138.32 179.45,-134.92 175.14,-129.41"/>
</g>
<!-- Node3 -->
<g id="node3" class="node">
<title>Node3</title>
<g id="a_node3"><a xlink:title=" ">
<polygon fill="none" stroke="#bfbfbf" points="0,-265.5 0,-322.5 50,-322.5 50,-265.5 0,-265.5"/>
<text text-anchor="middle" x="25" y="-310.5" font-family="Helvetica,sans-Serif" font-size="10.00">double</text>
<polyline fill="none" stroke="#bfbfbf" points="0,-303.5 50,-303.5 "/>
<text text-anchor="middle" x="25" y="-291.5" font-family="Helvetica,sans-Serif" font-size="10.00"> </text>
<polyline fill="none" stroke="#bfbfbf" points="0,-284.5 50,-284.5 "/>
<text text-anchor="middle" x="25" y="-272.5" font-family="Helvetica,sans-Serif" font-size="10.00"> </text>
</a>
</g>
</g>
<!-- Node3&#45;&gt;Node2 -->
<g id="edge2" class="edge">
<title>Node3&#45;&gt;Node2</title>
<path fill="none" stroke="#404040" d="M25.99,-265.27C27.86,-248.86 32.57,-228.52 44,-214 49.03,-207.61 55.2,-202.02 61.91,-197.16"/>
<polygon fill="none" stroke="#404040" points="62.02,-197.09 64.87,-190.47 72.08,-190.55 69.23,-197.17 62.02,-197.09"/>
<text text-anchor="middle" x="87" y="-239" font-family="Helvetica,sans-Serif" font-size="10.00"> +amplitude</text>
<text text-anchor="start" x="44" y="-228" font-family="Helvetica,sans-Serif" font-size="10.00">+call_sign_pause</text>
<text text-anchor="middle" x="87" y="-217" font-family="Helvetica,sans-Serif" font-size="10.00">_seconds</text>
</g>
<!-- Node4 -->
<g id="node4" class="node">
<title>Node4</title>
<g id="a_node4"><a xlink:title=" ">
<polygon fill="none" stroke="#bfbfbf" points="92.5,-265.5 92.5,-322.5 175.5,-322.5 175.5,-265.5 92.5,-265.5"/>
<text text-anchor="middle" x="134" y="-310.5" font-family="Helvetica,sans-Serif" font-size="10.00">CallSignMode</text>
<polyline fill="none" stroke="#bfbfbf" points="92.5,-303.5 175.5,-303.5 "/>
<text text-anchor="middle" x="134" y="-291.5" font-family="Helvetica,sans-Serif" font-size="10.00"> </text>
<polyline fill="none" stroke="#bfbfbf" points="92.5,-284.5 175.5,-284.5 "/>
<text text-anchor="middle" x="134" y="-272.5" font-family="Helvetica,sans-Serif" font-size="10.00"> </text>
</a>
</g>
</g>
<!-- Node4&#45;&gt;Node2 -->
<g id="edge3" class="edge">
<title>Node4&#45;&gt;Node2</title>
<path fill="none" stroke="#404040" d="M134,-265.26C134,-248.35 134,-226.46 134,-207.73"/>
<polygon fill="none" stroke="#404040" points="134,-207.66 130,-201.66 134,-195.66 138,-201.66 134,-207.66"/>
<text text-anchor="middle" x="178" y="-228" font-family="Helvetica,sans-Serif" font-size="10.00"> +call_sign_mode</text>
</g>
<!-- Node5 -->
<g id="node5" class="node">
<title>Node5</title>
<g id="a_node5"><a xlink:title=" ">
<polygon fill="none" stroke="#bfbfbf" points="223,-265.5 223,-322.5 267,-322.5 267,-265.5 223,-265.5"/>
<text text-anchor="middle" x="245" y="-310.5" font-family="Helvetica,sans-Serif" font-size="10.00">string</text>
<polyline fill="none" stroke="#bfbfbf" points="223,-303.5 267,-303.5 "/>
<text text-anchor="middle" x="245" y="-291.5" font-family="Helvetica,sans-Serif" font-size="10.00"> </text>
<polyline fill="none" stroke="#bfbfbf" points="223,-284.5 267,-284.5 "/>
<text text-anchor="middle" x="245" y="-272.5" font-family="Helvetica,sans-Serif" font-size="10.00"> </text>
</a>
</g>
</g>
<!-- Node5&#45;&gt;Node2 -->
<g id="edge4" class="edge">
<title>Node5&#45;&gt;Node2</title>
<path fill="none" stroke="#404040" d="M242.8,-265.24C240.25,-248.82 234.77,-228.47 223,-214 218.18,-208.07 212.38,-202.81 206.1,-198.18"/>
<polygon fill="none" stroke="#404040" points="205.88,-198.04 198.67,-198.06 195.88,-191.41 203.09,-191.39 205.88,-198.04"/>
<text text-anchor="middle" x="265.5" y="-228" font-family="Helvetica,sans-Serif" font-size="10.00"> +call_sign</text>
</g>
<!-- Node6 -->
<g id="node6" class="node">
<title>Node6</title>
<g id="a_node6"><a xlink:title=" ">
<polygon fill="none" stroke="#bfbfbf" points="214,-138.5 214,-195.5 258,-195.5 258,-138.5 214,-138.5"/>
<text text-anchor="middle" x="236" y="-183.5" font-family="Helvetica,sans-Serif" font-size="10.00">Mode</text>
<polyline fill="none" stroke="#bfbfbf" points="214,-176.5 258,-176.5 "/>
<text text-anchor="middle" x="236" y="-164.5" font-family="Helvetica,sans-Serif" font-size="10.00"> </text>
<polyline fill="none" stroke="#bfbfbf" points="214,-157.5 258,-157.5 "/>
<text text-anchor="middle" x="236" y="-145.5" font-family="Helvetica,sans-Serif" font-size="10.00"> </text>
</a>
</g>
</g>
<!-- Node6&#45;&gt;Node1 -->
<g id="edge5" class="edge">
<title>Node6&#45;&gt;Node1</title>
<path fill="none" stroke="#404040" d="M240.24,-138.19C243.39,-122.53 248.62,-102.96 257,-87 258.51,-84.12 260.21,-81.27 262.03,-78.46"/>
<polygon fill="none" stroke="#404040" points="262.13,-78.33 262.36,-71.12 269.11,-68.57 268.87,-75.77 262.13,-78.33"/>
<text text-anchor="middle" x="277" y="-101" font-family="Helvetica,sans-Serif" font-size="10.00"> +mode</text>
</g>
<!-- Node7 -->
<g id="node7" class="node">
<title>Node7</title>
<g id="a_node7"><a xlink:title=" ">
<polygon fill="none" stroke="#bfbfbf" points="276,-138.5 276,-195.5 332,-195.5 332,-138.5 276,-138.5"/>
<text text-anchor="middle" x="304" y="-183.5" font-family="Helvetica,sans-Serif" font-size="10.00">uint32_t</text>
<polyline fill="none" stroke="#bfbfbf" points="276,-176.5 332,-176.5 "/>
<text text-anchor="middle" x="304" y="-164.5" font-family="Helvetica,sans-Serif" font-size="10.00"> </text>
<polyline fill="none" stroke="#bfbfbf" points="276,-157.5 332,-157.5 "/>
<text text-anchor="middle" x="304" y="-145.5" font-family="Helvetica,sans-Serif" font-size="10.00"> </text>
</a>
</g>
</g>
<!-- Node7&#45;&gt;Node1 -->
<g id="edge6" class="edge">
<title>Node7&#45;&gt;Node1</title>
<path fill="none" stroke="#404040" d="M302.65,-138.27C302.4,-132.25 302.16,-125.91 302,-120 301.65,-107.35 301.42,-93.63 301.27,-81"/>
<polygon fill="none" stroke="#404040" points="301.27,-80.81 297.21,-74.86 301.15,-68.82 305.21,-74.77 301.27,-80.81"/>
<text text-anchor="middle" x="350.5" y="-112" font-family="Helvetica,sans-Serif" font-size="10.00"> +carrier_frequency</text>
<text text-anchor="middle" x="350.5" y="-101" font-family="Helvetica,sans-Serif" font-size="10.00">+postamble_length</text>
<text text-anchor="middle" x="350.5" y="-90" font-family="Helvetica,sans-Serif" font-size="10.00">+preamble_length</text>
</g>
<!-- Node8 -->
<g id="node8" class="node">
<title>Node8</title>
<g id="a_node8"><a xlink:title=" ">
<polygon fill="none" stroke="#bfbfbf" points="383,-138.5 383,-195.5 459,-195.5 459,-138.5 383,-138.5"/>
<text text-anchor="middle" x="421" y="-183.5" font-family="Helvetica,sans-Serif" font-size="10.00">SymbolRate</text>
<polyline fill="none" stroke="#bfbfbf" points="383,-176.5 459,-176.5 "/>
<text text-anchor="middle" x="421" y="-164.5" font-family="Helvetica,sans-Serif" font-size="10.00"> </text>
<polyline fill="none" stroke="#bfbfbf" points="383,-157.5 459,-157.5 "/>
<text text-anchor="middle" x="421" y="-145.5" font-family="Helvetica,sans-Serif" font-size="10.00"> </text>
</a>
</g>
</g>
<!-- Node8&#45;&gt;Node1 -->
<g id="edge7" class="edge">
<title>Node8&#45;&gt;Node1</title>
<path fill="none" stroke="#404040" d="M418.77,-138.27C416.2,-121.86 410.72,-101.51 399,-87 389.99,-75.84 377.91,-66.81 365.31,-59.62"/>
<polygon fill="none" stroke="#404040" points="365.28,-59.6 358.1,-60.34 354.66,-54.01 361.84,-53.27 365.28,-59.6"/>
<text text-anchor="middle" x="450.5" y="-101" font-family="Helvetica,sans-Serif" font-size="10.00"> +symbol_rate</text>
</g>
<!-- Node9 -->
<g id="node9" class="node">
<title>Node9</title>
<g id="a_node9"><a xlink:title=" ">
<polygon fill="none" stroke="#bfbfbf" points="498,-138.5 498,-195.5 536,-195.5 536,-138.5 498,-138.5"/>
<text text-anchor="middle" x="517" y="-183.5" font-family="Helvetica,sans-Serif" font-size="10.00">bool</text>
<polyline fill="none" stroke="#bfbfbf" points="498,-176.5 536,-176.5 "/>
<text text-anchor="middle" x="517" y="-164.5" font-family="Helvetica,sans-Serif" font-size="10.00"> </text>
<polyline fill="none" stroke="#bfbfbf" points="498,-157.5 536,-157.5 "/>
<text text-anchor="middle" x="517" y="-145.5" font-family="Helvetica,sans-Serif" font-size="10.00"> </text>
</a>
</g>
</g>
<!-- Node9&#45;&gt;Node1 -->
<g id="edge8" class="edge">
<title>Node9&#45;&gt;Node1</title>
<path fill="none" stroke="#404040" d="M514.48,-138.35C511.51,-121.33 505.04,-100.31 491,-87 457.78,-55.5 407.3,-42.86 366.72,-37.98"/>
<polygon fill="none" stroke="#404040" points="366.68,-37.97 360.3,-41.32 354.75,-36.72 361.13,-33.37 366.68,-37.97"/>
<text text-anchor="middle" x="543.5" y="-101" font-family="Helvetica,sans-Serif" font-size="10.00"> +fldigi_mode</text>
</g>
</g>
</svg>
