<?xml version="1.0" encoding="UTF-8" standalone="no"?>
<!DOCTYPE svg PUBLIC "-//W3C//DTD SVG 1.1//EN"
 "http://www.w3.org/Graphics/SVG/1.1/DTD/svg11.dtd">
<!-- Generated by graphviz version 2.43.0 (0)
 -->
<!-- Title: signal_easel::Settings Pages: 1 -->
<svg width="301pt" height="193pt"
 viewBox="0.00 0.00 301.00 193.00" xmlns="http://www.w3.org/2000/svg" xmlns:xlink="http://www.w3.org/1999/xlink">
<g id="graph0" class="graph" transform="scale(1 1) rotate(0) translate(4 189)">
<title>signal_easel::Settings</title>
<!-- Node1 -->
<g id="node1" class="node">
<title>Node1</title>
<g id="a_node1"><a xlink:title="The universal settings for MWAV.">
<polygon fill="#bfbfbf" stroke="black" points="72.5,-0.5 72.5,-57.5 195.5,-57.5 195.5,-0.5 72.5,-0.5"/>
<text text-anchor="middle" x="134" y="-45.5" font-family="Helvetica,sans-Serif" font-size="10.00">signal_easel::Settings</text>
<polyline fill="none" stroke="black" points="72.5,-38.5 195.5,-38.5 "/>
<text text-anchor="middle" x="134" y="-26.5" font-family="Helvetica,sans-Serif" font-size="10.00"> </text>
<polyline fill="none" stroke="black" points="72.5,-19.5 195.5,-19.5 "/>
<text text-anchor="middle" x="134" y="-7.5" font-family="Helvetica,sans-Serif" font-size="10.00"> </text>
</a>
</g>
</g>
<!-- Node2 -->
<g id="node2" class="node">
<title>Node2</title>
<g id="a_node2"><a xlink:title=" ">
<polygon fill="none" stroke="#bfbfbf" points="0,-127.5 0,-184.5 50,-184.5 50,-127.5 0,-127.5"/>
<text text-anchor="middle" x="25" y="-172.5" font-family="Helvetica,sans-Serif" font-size="10.00">double</text>
<polyline fill="none" stroke="#bfbfbf" points="0,-165.5 50,-165.5 "/>
<text text-anchor="middle" x="25" y="-153.5" font-family="Helvetica,sans-Serif" font-size="10.00"> </text>
<polyline fill="none" stroke="#bfbfbf" points="0,-146.5 50,-146.5 "/>
<text text-anchor="middle" x="25" y="-134.5" font-family="Helvetica,sans-Serif" font-size="10.00"> </text>
</a>
</g>
</g>
<!-- Node2&#45;&gt;Node1 -->
<g id="edge1" class="edge">
<title>Node2&#45;&gt;Node1</title>
<path fill="none" stroke="#404040" d="M25.99,-127.27C27.86,-110.86 32.57,-90.52 44,-76 49.03,-69.61 55.2,-64.02 61.91,-59.16"/>
<polygon fill="none" stroke="#404040" points="62.02,-59.09 64.87,-52.47 72.08,-52.55 69.23,-59.17 62.02,-59.09"/>
<text text-anchor="middle" x="87" y="-101" font-family="Helvetica,sans-Serif" font-size="10.00"> +amplitude</text>
<text text-anchor="start" x="44" y="-90" font-family="Helvetica,sans-Serif" font-size="10.00">+call_sign_pause</text>
<text text-anchor="middle" x="87" y="-79" font-family="Helvetica,sans-Serif" font-size="10.00">_seconds</text>
</g>
<!-- Node3 -->
<g id="node3" class="node">
<title>Node3</title>
<g id="a_node3"><a xlink:title=" ">
<polygon fill="none" stroke="#bfbfbf" points="92.5,-127.5 92.5,-184.5 175.5,-184.5 175.5,-127.5 92.5,-127.5"/>
<text text-anchor="middle" x="134" y="-172.5" font-family="Helvetica,sans-Serif" font-size="10.00">CallSignMode</text>
<polyline fill="none" stroke="#bfbfbf" points="92.5,-165.5 175.5,-165.5 "/>
<text text-anchor="middle" x="134" y="-153.5" font-family="Helvetica,sans-Serif" font-size="10.00"> </text>
<polyline fill="none" stroke="#bfbfbf" points="92.5,-146.5 175.5,-146.5 "/>
<text text-anchor="middle" x="134" y="-134.5" font-family="Helvetica,sans-Serif" font-size="10.00"> </text>
</a>
</g>
</g>
<!-- Node3&#45;&gt;Node1 -->
<g id="edge2" class="edge">
<title>Node3&#45;&gt;Node1</title>
<path fill="none" stroke="#404040" d="M134,-127.26C134,-110.35 134,-88.46 134,-69.73"/>
<polygon fill="none" stroke="#404040" points="134,-69.66 130,-63.66 134,-57.66 138,-63.66 134,-69.66"/>
<text text-anchor="middle" x="178" y="-90" font-family="Helvetica,sans-Serif" font-size="10.00"> +call_sign_mode</text>
</g>
<!-- Node4 -->
<g id="node4" class="node">
<title>Node4</title>
<g id="a_node4"><a xlink:title=" ">
<polygon fill="none" stroke="#bfbfbf" points="223,-127.5 223,-184.5 267,-184.5 267,-127.5 223,-127.5"/>
<text text-anchor="middle" x="245" y="-172.5" font-family="Helvetica,sans-Serif" font-size="10.00">string</text>
<polyline fill="none" stroke="#bfbfbf" points="223,-165.5 267,-165.5 "/>
<text text-anchor="middle" x="245" y="-153.5" font-family="Helvetica,sans-Serif" font-size="10.00"> </text>
<polyline fill="none" stroke="#bfbfbf" points="223,-146.5 267,-146.5 "/>
<text text-anchor="middle" x="245" y="-134.5" font-family="Helvetica,sans-Serif" font-size="10.00"> </text>
</a>
</g>
</g>
<!-- Node4&#45;&gt;Node1 -->
<g id="edge3" class="edge">
<title>Node4&#45;&gt;Node1</title>
<path fill="none" stroke="#404040" d="M242.8,-127.24C240.25,-110.82 234.77,-90.47 223,-76 218.18,-70.07 212.38,-64.81 206.1,-60.18"/>
<polygon fill="none" stroke="#404040" points="205.88,-60.04 198.67,-60.06 195.88,-53.41 203.09,-53.39 205.88,-60.04"/>
<text text-anchor="middle" x="265.5" y="-90" font-family="Helvetica,sans-Serif" font-size="10.00"> +call_sign</text>
</g>
</g>
</svg>
