<?xml version="1.0" encoding="UTF-8" standalone="no"?>
<!DOCTYPE svg PUBLIC "-//W3C//DTD SVG 1.1//EN"
 "http://www.w3.org/Graphics/SVG/1.1/DTD/svg11.dtd">
<!-- Generated by graphviz version 2.43.0 (0)
 -->
<!-- Title: signal_easel::Settings Pages: 1 -->
<svg width="302pt" height="193pt"
 viewBox="0.00 0.00 302.00 193.00" xmlns="http://www.w3.org/2000/svg" xmlns:xlink="http://www.w3.org/1999/xlink">
<g id="graph0" class="graph" transform="scale(1 1) rotate(0) translate(4 189)">
<title>signal_easel::Settings</title>
<!-- Node1 -->
<g id="node1" class="node">
<title>Node1</title>
<g id="a_node1"><a xlink:title="The universal settings for MWAV.">
<polygon fill="#bfbfbf" stroke="black" points="42.5,-0.5 42.5,-57.5 165.5,-57.5 165.5,-0.5 42.5,-0.5"/>
<text text-anchor="middle" x="104" y="-45.5" font-family="Helvetica,sans-Serif" font-size="10.00">signal_easel::Settings</text>
<polyline fill="none" stroke="black" points="42.5,-38.5 165.5,-38.5 "/>
<text text-anchor="middle" x="104" y="-26.5" font-family="Helvetica,sans-Serif" font-size="10.00"> </text>
<polyline fill="none" stroke="black" points="42.5,-19.5 165.5,-19.5 "/>
<text text-anchor="middle" x="104" y="-7.5" font-family="Helvetica,sans-Serif" font-size="10.00"> </text>
</a>
</g>
</g>
<!-- Node2 -->
<g id="node2" class="node">
<title>Node2</title>
<g id="a_node2"><a xlink:title=" ">
<polygon fill="none" stroke="black" points="0,-127.5 0,-184.5 44,-184.5 44,-127.5 0,-127.5"/>
<text text-anchor="middle" x="22" y="-172.5" font-family="Helvetica,sans-Serif" font-size="10.00">string</text>
<polyline fill="none" stroke="black" points="0,-165.5 44,-165.5 "/>
<text text-anchor="middle" x="22" y="-153.5" font-family="Helvetica,sans-Serif" font-size="10.00"> </text>
<polyline fill="none" stroke="black" points="0,-146.5 44,-146.5 "/>
<text text-anchor="middle" x="22" y="-134.5" font-family="Helvetica,sans-Serif" font-size="10.00"> </text>
</a>
</g>
</g>
<!-- Node2&#45;&gt;Node1 -->
<g id="edge1" class="edge">
<title>Node2&#45;&gt;Node1</title>
<path fill="none" stroke="#404040" d="M25.73,-127.22C28.9,-111.19 34.66,-91.25 45,-76 47.33,-72.56 50,-69.27 52.89,-66.13"/>
<polygon fill="none" stroke="#404040" points="52.91,-66.11 54.41,-59.06 61.49,-57.73 59.99,-64.78 52.91,-66.11"/>
<text text-anchor="middle" x="72.5" y="-90" font-family="Helvetica,sans-Serif" font-size="10.00"> +call_sign</text>
</g>
<!-- Node3 -->
<g id="node3" class="node">
<title>Node3</title>
<g id="a_node3"><a xlink:title=" ">
<polygon fill="none" stroke="black" points="62.5,-127.5 62.5,-184.5 145.5,-184.5 145.5,-127.5 62.5,-127.5"/>
<text text-anchor="middle" x="104" y="-172.5" font-family="Helvetica,sans-Serif" font-size="10.00">CallSignMode</text>
<polyline fill="none" stroke="black" points="62.5,-165.5 145.5,-165.5 "/>
<text text-anchor="middle" x="104" y="-153.5" font-family="Helvetica,sans-Serif" font-size="10.00"> </text>
<polyline fill="none" stroke="black" points="62.5,-146.5 145.5,-146.5 "/>
<text text-anchor="middle" x="104" y="-134.5" font-family="Helvetica,sans-Serif" font-size="10.00"> </text>
</a>
</g>
</g>
<!-- Node3&#45;&gt;Node1 -->
<g id="edge2" class="edge">
<title>Node3&#45;&gt;Node1</title>
<path fill="none" stroke="#404040" d="M104,-127.26C104,-110.35 104,-88.46 104,-69.73"/>
<polygon fill="none" stroke="#404040" points="104,-69.66 100,-63.66 104,-57.66 108,-63.66 104,-69.66"/>
<text text-anchor="middle" x="148" y="-90" font-family="Helvetica,sans-Serif" font-size="10.00"> +call_sign_mode</text>
</g>
<!-- Node4 -->
<g id="node4" class="node">
<title>Node4</title>
<g id="a_node4"><a xlink:title=" ">
<polygon fill="none" stroke="black" points="190,-127.5 190,-184.5 240,-184.5 240,-127.5 190,-127.5"/>
<text text-anchor="middle" x="215" y="-172.5" font-family="Helvetica,sans-Serif" font-size="10.00">double</text>
<polyline fill="none" stroke="black" points="190,-165.5 240,-165.5 "/>
<text text-anchor="middle" x="215" y="-153.5" font-family="Helvetica,sans-Serif" font-size="10.00"> </text>
<polyline fill="none" stroke="black" points="190,-146.5 240,-146.5 "/>
<text text-anchor="middle" x="215" y="-134.5" font-family="Helvetica,sans-Serif" font-size="10.00"> </text>
</a>
</g>
</g>
<!-- Node4&#45;&gt;Node1 -->
<g id="edge3" class="edge">
<title>Node4&#45;&gt;Node1</title>
<path fill="none" stroke="#404040" d="M212.8,-127.24C210.25,-110.82 204.77,-90.47 193,-76 188.18,-70.07 182.38,-64.81 176.1,-60.18"/>
<polygon fill="none" stroke="#404040" points="175.88,-60.04 168.67,-60.06 165.88,-53.41 173.09,-53.39 175.88,-60.04"/>
<text text-anchor="middle" x="251" y="-101" font-family="Helvetica,sans-Serif" font-size="10.00"> +amplitude</text>
<text text-anchor="start" x="208" y="-90" font-family="Helvetica,sans-Serif" font-size="10.00">+call_sign_pause</text>
<text text-anchor="middle" x="251" y="-79" font-family="Helvetica,sans-Serif" font-size="10.00">_seconds</text>
</g>
</g>
</svg>
