<?xml version="1.0" encoding="UTF-8" standalone="no"?>
<!DOCTYPE svg PUBLIC "-//W3C//DTD SVG 1.1//EN"
 "http://www.w3.org/Graphics/SVG/1.1/DTD/svg11.dtd">
<!-- Generated by graphviz version 2.43.0 (0)
 -->
<!-- Title: signal_easel::aprs::Settings Pages: 1 -->
<svg width="429pt" height="415pt"
 viewBox="0.00 0.00 429.00 415.00" xmlns="http://www.w3.org/2000/svg" xmlns:xlink="http://www.w3.org/1999/xlink">
<g id="graph0" class="graph" transform="scale(1 1) rotate(0) translate(4 411)">
<title>signal_easel::aprs::Settings</title>
<!-- Node1 -->
<g id="node1" class="node">
<title>Node1</title>
<g id="a_node1"><a xlink:title=" ">
<polygon fill="#bfbfbf" stroke="black" points="169,-0.5 169,-68.5 273,-68.5 273,-0.5 169,-0.5"/>
<text text-anchor="start" x="177" y="-56.5" font-family="Helvetica,sans-Serif" font-size="10.00">signal_easel::aprs</text>
<text text-anchor="middle" x="221" y="-45.5" font-family="Helvetica,sans-Serif" font-size="10.00">::Settings</text>
<polyline fill="none" stroke="black" points="169,-38.5 273,-38.5 "/>
<text text-anchor="middle" x="221" y="-26.5" font-family="Helvetica,sans-Serif" font-size="10.00"> </text>
<polyline fill="none" stroke="black" points="169,-19.5 273,-19.5 "/>
<text text-anchor="start" x="177" y="-7.5" font-family="Helvetica,sans-Serif" font-size="10.00">+ Settings()</text>
</a>
</g>
</g>
<!-- Node2 -->
<g id="node2" class="node">
<title>Node2</title>
<g id="a_node2"><a xlink:href="structsignal__easel_1_1afsk_1_1Settings.html" target="_top" xlink:title="Settings for AFSK modulation/demodulation.">
<polygon fill="none" stroke="black" points="169,-106.5 169,-174.5 273,-174.5 273,-106.5 169,-106.5"/>
<text text-anchor="start" x="177" y="-162.5" font-family="Helvetica,sans-Serif" font-size="10.00">signal_easel::afsk</text>
<text text-anchor="middle" x="221" y="-151.5" font-family="Helvetica,sans-Serif" font-size="10.00">::Settings</text>
<polyline fill="none" stroke="black" points="169,-144.5 273,-144.5 "/>
<text text-anchor="middle" x="221" y="-132.5" font-family="Helvetica,sans-Serif" font-size="10.00"> </text>
<polyline fill="none" stroke="black" points="169,-125.5 273,-125.5 "/>
<text text-anchor="middle" x="221" y="-113.5" font-family="Helvetica,sans-Serif" font-size="10.00"> </text>
</a>
</g>
</g>
<!-- Node2&#45;&gt;Node1 -->
<g id="edge1" class="edge">
<title>Node2&#45;&gt;Node1</title>
<path fill="none" stroke="midnightblue" d="M221,-96.17C221,-87 221,-77.46 221,-68.73"/>
<polygon fill="none" stroke="midnightblue" points="217.5,-96.31 221,-106.31 224.5,-96.31 217.5,-96.31"/>
</g>
<!-- Node3 -->
<g id="node3" class="node">
<title>Node3</title>
<g id="a_node3"><a xlink:href="structsignal__easel_1_1Settings.html" target="_top" xlink:title="The universal settings for MWAV.">
<polygon fill="none" stroke="black" points="42.5,-222.5 42.5,-279.5 165.5,-279.5 165.5,-222.5 42.5,-222.5"/>
<text text-anchor="middle" x="104" y="-267.5" font-family="Helvetica,sans-Serif" font-size="10.00">signal_easel::Settings</text>
<polyline fill="none" stroke="black" points="42.5,-260.5 165.5,-260.5 "/>
<text text-anchor="middle" x="104" y="-248.5" font-family="Helvetica,sans-Serif" font-size="10.00"> </text>
<polyline fill="none" stroke="black" points="42.5,-241.5 165.5,-241.5 "/>
<text text-anchor="middle" x="104" y="-229.5" font-family="Helvetica,sans-Serif" font-size="10.00"> </text>
</a>
</g>
</g>
<!-- Node3&#45;&gt;Node2 -->
<g id="edge2" class="edge">
<title>Node3&#45;&gt;Node2</title>
<path fill="none" stroke="midnightblue" d="M141.43,-215.29C155.52,-202.23 171.48,-187.42 185.39,-174.52"/>
<polygon fill="none" stroke="midnightblue" points="138.78,-212.97 133.83,-222.34 143.54,-218.11 138.78,-212.97"/>
</g>
<!-- Node4 -->
<g id="node4" class="node">
<title>Node4</title>
<g id="a_node4"><a xlink:title=" ">
<polygon fill="none" stroke="black" points="0,-349.5 0,-406.5 44,-406.5 44,-349.5 0,-349.5"/>
<text text-anchor="middle" x="22" y="-394.5" font-family="Helvetica,sans-Serif" font-size="10.00">string</text>
<polyline fill="none" stroke="black" points="0,-387.5 44,-387.5 "/>
<text text-anchor="middle" x="22" y="-375.5" font-family="Helvetica,sans-Serif" font-size="10.00"> </text>
<polyline fill="none" stroke="black" points="0,-368.5 44,-368.5 "/>
<text text-anchor="middle" x="22" y="-356.5" font-family="Helvetica,sans-Serif" font-size="10.00"> </text>
</a>
</g>
</g>
<!-- Node4&#45;&gt;Node3 -->
<g id="edge3" class="edge">
<title>Node4&#45;&gt;Node3</title>
<path fill="none" stroke="#404040" d="M25.73,-349.22C28.9,-333.19 34.66,-313.25 45,-298 47.33,-294.56 50,-291.27 52.89,-288.13"/>
<polygon fill="none" stroke="#404040" points="52.91,-288.11 54.41,-281.06 61.49,-279.73 59.99,-286.78 52.91,-288.11"/>
<text text-anchor="middle" x="72.5" y="-312" font-family="Helvetica,sans-Serif" font-size="10.00"> +call_sign</text>
</g>
<!-- Node5 -->
<g id="node5" class="node">
<title>Node5</title>
<g id="a_node5"><a xlink:title=" ">
<polygon fill="none" stroke="black" points="62.5,-349.5 62.5,-406.5 145.5,-406.5 145.5,-349.5 62.5,-349.5"/>
<text text-anchor="middle" x="104" y="-394.5" font-family="Helvetica,sans-Serif" font-size="10.00">CallSignMode</text>
<polyline fill="none" stroke="black" points="62.5,-387.5 145.5,-387.5 "/>
<text text-anchor="middle" x="104" y="-375.5" font-family="Helvetica,sans-Serif" font-size="10.00"> </text>
<polyline fill="none" stroke="black" points="62.5,-368.5 145.5,-368.5 "/>
<text text-anchor="middle" x="104" y="-356.5" font-family="Helvetica,sans-Serif" font-size="10.00"> </text>
</a>
</g>
</g>
<!-- Node5&#45;&gt;Node3 -->
<g id="edge4" class="edge">
<title>Node5&#45;&gt;Node3</title>
<path fill="none" stroke="#404040" d="M104,-349.26C104,-332.35 104,-310.46 104,-291.73"/>
<polygon fill="none" stroke="#404040" points="104,-291.66 100,-285.66 104,-279.66 108,-285.66 104,-291.66"/>
<text text-anchor="middle" x="148" y="-312" font-family="Helvetica,sans-Serif" font-size="10.00"> +call_sign_mode</text>
</g>
<!-- Node6 -->
<g id="node6" class="node">
<title>Node6</title>
<g id="a_node6"><a xlink:title=" ">
<polygon fill="none" stroke="black" points="190,-349.5 190,-406.5 240,-406.5 240,-349.5 190,-349.5"/>
<text text-anchor="middle" x="215" y="-394.5" font-family="Helvetica,sans-Serif" font-size="10.00">double</text>
<polyline fill="none" stroke="black" points="190,-387.5 240,-387.5 "/>
<text text-anchor="middle" x="215" y="-375.5" font-family="Helvetica,sans-Serif" font-size="10.00"> </text>
<polyline fill="none" stroke="black" points="190,-368.5 240,-368.5 "/>
<text text-anchor="middle" x="215" y="-356.5" font-family="Helvetica,sans-Serif" font-size="10.00"> </text>
</a>
</g>
</g>
<!-- Node6&#45;&gt;Node3 -->
<g id="edge5" class="edge">
<title>Node6&#45;&gt;Node3</title>
<path fill="none" stroke="#404040" d="M212.8,-349.24C210.25,-332.82 204.77,-312.47 193,-298 188.18,-292.07 182.38,-286.81 176.1,-282.18"/>
<polygon fill="none" stroke="#404040" points="175.88,-282.04 168.67,-282.06 165.88,-275.41 173.09,-275.39 175.88,-282.04"/>
<text text-anchor="middle" x="251" y="-323" font-family="Helvetica,sans-Serif" font-size="10.00"> +amplitude</text>
<text text-anchor="start" x="208" y="-312" font-family="Helvetica,sans-Serif" font-size="10.00">+call_sign_pause</text>
<text text-anchor="middle" x="251" y="-301" font-family="Helvetica,sans-Serif" font-size="10.00">_seconds</text>
</g>
<!-- Node7 -->
<g id="node7" class="node">
<title>Node7</title>
<g id="a_node7"><a xlink:title=" ">
<polygon fill="none" stroke="black" points="184,-222.5 184,-279.5 258,-279.5 258,-222.5 184,-222.5"/>
<text text-anchor="middle" x="221" y="-267.5" font-family="Helvetica,sans-Serif" font-size="10.00">BitEncoding</text>
<polyline fill="none" stroke="black" points="184,-260.5 258,-260.5 "/>
<text text-anchor="middle" x="221" y="-248.5" font-family="Helvetica,sans-Serif" font-size="10.00"> </text>
<polyline fill="none" stroke="black" points="184,-241.5 258,-241.5 "/>
<text text-anchor="middle" x="221" y="-229.5" font-family="Helvetica,sans-Serif" font-size="10.00"> </text>
</a>
</g>
</g>
<!-- Node7&#45;&gt;Node2 -->
<g id="edge6" class="edge">
<title>Node7&#45;&gt;Node2</title>
<path fill="none" stroke="#404040" d="M221,-222.34C221,-211.53 221,-198.85 221,-186.77"/>
<polygon fill="none" stroke="#404040" points="221,-186.52 217,-180.52 221,-174.52 225,-180.52 221,-186.52"/>
<text text-anchor="middle" x="258" y="-196" font-family="Helvetica,sans-Serif" font-size="10.00"> +bit_encoding</text>
</g>
<!-- Node8 -->
<g id="node8" class="node">
<title>Node8</title>
<g id="a_node8"><a xlink:title=" ">
<polygon fill="none" stroke="black" points="299,-222.5 299,-279.5 337,-279.5 337,-222.5 299,-222.5"/>
<text text-anchor="middle" x="318" y="-267.5" font-family="Helvetica,sans-Serif" font-size="10.00">bool</text>
<polyline fill="none" stroke="black" points="299,-260.5 337,-260.5 "/>
<text text-anchor="middle" x="318" y="-248.5" font-family="Helvetica,sans-Serif" font-size="10.00"> </text>
<polyline fill="none" stroke="black" points="299,-241.5 337,-241.5 "/>
<text text-anchor="middle" x="318" y="-229.5" font-family="Helvetica,sans-Serif" font-size="10.00"> </text>
</a>
</g>
</g>
<!-- Node8&#45;&gt;Node2 -->
<g id="edge7" class="edge">
<title>Node8&#45;&gt;Node2</title>
<path fill="none" stroke="#404040" d="M311.08,-222.44C307.66,-212.47 302.77,-201.57 296,-193 292.12,-188.09 287.65,-183.47 282.86,-179.16"/>
<polygon fill="none" stroke="#404040" points="282.57,-178.92 275.39,-178.18 273.32,-171.27 280.49,-172.02 282.57,-178.92"/>
<text text-anchor="middle" x="361.5" y="-196" font-family="Helvetica,sans-Serif" font-size="10.00"> +include_ascii_padding</text>
</g>
</g>
</svg>
