<?xml version="1.0" encoding="UTF-8" standalone="no"?>
<!DOCTYPE svg PUBLIC "-//W3C//DTD SVG 1.1//EN"
 "http://www.w3.org/Graphics/SVG/1.1/DTD/svg11.dtd">
<!-- Generated by graphviz version 2.43.0 (0)
 -->
<!-- Title: signal_easel::psk::Settings Pages: 1 -->
<svg width="563pt" height="331pt"
 viewBox="0.00 0.00 563.00 331.00" xmlns="http://www.w3.org/2000/svg" xmlns:xlink="http://www.w3.org/1999/xlink">
<g id="graph0" class="graph" transform="scale(1 1) rotate(0) translate(4 327)">
<title>signal_easel::psk::Settings</title>
<!-- Node1 -->
<g id="node1" class="node">
<title>Node1</title>
<g id="a_node1"><a xlink:title="Settings for PSK modulation.">
<polygon fill="#bfbfbf" stroke="black" points="224.5,-0.5 224.5,-68.5 331.5,-68.5 331.5,-0.5 224.5,-0.5"/>
<text text-anchor="start" x="232.5" y="-56.5" font-family="Helvetica,sans-Serif" font-size="10.00">signal_easel::psk::</text>
<text text-anchor="middle" x="278" y="-45.5" font-family="Helvetica,sans-Serif" font-size="10.00">Settings</text>
<polyline fill="none" stroke="black" points="224.5,-38.5 331.5,-38.5 "/>
<text text-anchor="middle" x="278" y="-26.5" font-family="Helvetica,sans-Serif" font-size="10.00"> </text>
<polyline fill="none" stroke="black" points="224.5,-19.5 331.5,-19.5 "/>
<text text-anchor="middle" x="278" y="-7.5" font-family="Helvetica,sans-Serif" font-size="10.00"> </text>
</a>
</g>
</g>
<!-- Node2 -->
<g id="node2" class="node">
<title>Node2</title>
<g id="a_node2"><a xlink:href="structsignal__easel_1_1Settings.html" target="_top" xlink:title="The universal settings for MWAV.">
<polygon fill="none" stroke="black" points="42.5,-138.5 42.5,-195.5 165.5,-195.5 165.5,-138.5 42.5,-138.5"/>
<text text-anchor="middle" x="104" y="-183.5" font-family="Helvetica,sans-Serif" font-size="10.00">signal_easel::Settings</text>
<polyline fill="none" stroke="black" points="42.5,-176.5 165.5,-176.5 "/>
<text text-anchor="middle" x="104" y="-164.5" font-family="Helvetica,sans-Serif" font-size="10.00"> </text>
<polyline fill="none" stroke="black" points="42.5,-157.5 165.5,-157.5 "/>
<text text-anchor="middle" x="104" y="-145.5" font-family="Helvetica,sans-Serif" font-size="10.00"> </text>
</a>
</g>
</g>
<!-- Node2&#45;&gt;Node1 -->
<g id="edge1" class="edge">
<title>Node2&#45;&gt;Node1</title>
<path fill="none" stroke="midnightblue" d="M149.12,-132.16C175.18,-112.61 207.84,-88.12 233.75,-68.68"/>
<polygon fill="none" stroke="midnightblue" points="146.8,-129.52 140.9,-138.32 151,-135.12 146.8,-129.52"/>
</g>
<!-- Node3 -->
<g id="node3" class="node">
<title>Node3</title>
<g id="a_node3"><a xlink:title=" ">
<polygon fill="none" stroke="black" points="0,-265.5 0,-322.5 44,-322.5 44,-265.5 0,-265.5"/>
<text text-anchor="middle" x="22" y="-310.5" font-family="Helvetica,sans-Serif" font-size="10.00">string</text>
<polyline fill="none" stroke="black" points="0,-303.5 44,-303.5 "/>
<text text-anchor="middle" x="22" y="-291.5" font-family="Helvetica,sans-Serif" font-size="10.00"> </text>
<polyline fill="none" stroke="black" points="0,-284.5 44,-284.5 "/>
<text text-anchor="middle" x="22" y="-272.5" font-family="Helvetica,sans-Serif" font-size="10.00"> </text>
</a>
</g>
</g>
<!-- Node3&#45;&gt;Node2 -->
<g id="edge2" class="edge">
<title>Node3&#45;&gt;Node2</title>
<path fill="none" stroke="#404040" d="M25.73,-265.22C28.9,-249.19 34.66,-229.25 45,-214 47.33,-210.56 50,-207.27 52.89,-204.13"/>
<polygon fill="none" stroke="#404040" points="52.91,-204.11 54.41,-197.06 61.49,-195.73 59.99,-202.78 52.91,-204.11"/>
<text text-anchor="middle" x="72.5" y="-228" font-family="Helvetica,sans-Serif" font-size="10.00"> +call_sign</text>
</g>
<!-- Node4 -->
<g id="node4" class="node">
<title>Node4</title>
<g id="a_node4"><a xlink:title=" ">
<polygon fill="none" stroke="black" points="62.5,-265.5 62.5,-322.5 145.5,-322.5 145.5,-265.5 62.5,-265.5"/>
<text text-anchor="middle" x="104" y="-310.5" font-family="Helvetica,sans-Serif" font-size="10.00">CallSignMode</text>
<polyline fill="none" stroke="black" points="62.5,-303.5 145.5,-303.5 "/>
<text text-anchor="middle" x="104" y="-291.5" font-family="Helvetica,sans-Serif" font-size="10.00"> </text>
<polyline fill="none" stroke="black" points="62.5,-284.5 145.5,-284.5 "/>
<text text-anchor="middle" x="104" y="-272.5" font-family="Helvetica,sans-Serif" font-size="10.00"> </text>
</a>
</g>
</g>
<!-- Node4&#45;&gt;Node2 -->
<g id="edge3" class="edge">
<title>Node4&#45;&gt;Node2</title>
<path fill="none" stroke="#404040" d="M104,-265.26C104,-248.35 104,-226.46 104,-207.73"/>
<polygon fill="none" stroke="#404040" points="104,-207.66 100,-201.66 104,-195.66 108,-201.66 104,-207.66"/>
<text text-anchor="middle" x="148" y="-228" font-family="Helvetica,sans-Serif" font-size="10.00"> +call_sign_mode</text>
</g>
<!-- Node5 -->
<g id="node5" class="node">
<title>Node5</title>
<g id="a_node5"><a xlink:title=" ">
<polygon fill="none" stroke="black" points="190,-265.5 190,-322.5 240,-322.5 240,-265.5 190,-265.5"/>
<text text-anchor="middle" x="215" y="-310.5" font-family="Helvetica,sans-Serif" font-size="10.00">double</text>
<polyline fill="none" stroke="black" points="190,-303.5 240,-303.5 "/>
<text text-anchor="middle" x="215" y="-291.5" font-family="Helvetica,sans-Serif" font-size="10.00"> </text>
<polyline fill="none" stroke="black" points="190,-284.5 240,-284.5 "/>
<text text-anchor="middle" x="215" y="-272.5" font-family="Helvetica,sans-Serif" font-size="10.00"> </text>
</a>
</g>
</g>
<!-- Node5&#45;&gt;Node2 -->
<g id="edge4" class="edge">
<title>Node5&#45;&gt;Node2</title>
<path fill="none" stroke="#404040" d="M212.8,-265.24C210.25,-248.82 204.77,-228.47 193,-214 188.18,-208.07 182.38,-202.81 176.1,-198.18"/>
<polygon fill="none" stroke="#404040" points="175.88,-198.04 168.67,-198.06 165.88,-191.41 173.09,-191.39 175.88,-198.04"/>
<text text-anchor="middle" x="251" y="-239" font-family="Helvetica,sans-Serif" font-size="10.00"> +amplitude</text>
<text text-anchor="start" x="208" y="-228" font-family="Helvetica,sans-Serif" font-size="10.00">+call_sign_pause</text>
<text text-anchor="middle" x="251" y="-217" font-family="Helvetica,sans-Serif" font-size="10.00">_seconds</text>
</g>
<!-- Node6 -->
<g id="node6" class="node">
<title>Node6</title>
<g id="a_node6"><a xlink:title=" ">
<polygon fill="none" stroke="black" points="184,-138.5 184,-195.5 228,-195.5 228,-138.5 184,-138.5"/>
<text text-anchor="middle" x="206" y="-183.5" font-family="Helvetica,sans-Serif" font-size="10.00">Mode</text>
<polyline fill="none" stroke="black" points="184,-176.5 228,-176.5 "/>
<text text-anchor="middle" x="206" y="-164.5" font-family="Helvetica,sans-Serif" font-size="10.00"> </text>
<polyline fill="none" stroke="black" points="184,-157.5 228,-157.5 "/>
<text text-anchor="middle" x="206" y="-145.5" font-family="Helvetica,sans-Serif" font-size="10.00"> </text>
</a>
</g>
</g>
<!-- Node6&#45;&gt;Node1 -->
<g id="edge5" class="edge">
<title>Node6&#45;&gt;Node1</title>
<path fill="none" stroke="#404040" d="M212.65,-138.18C217.08,-122.51 223.79,-102.94 233,-87 234.64,-84.16 236.45,-81.33 238.38,-78.54"/>
<polygon fill="none" stroke="#404040" points="238.56,-78.31 238.95,-71.11 245.75,-68.7 245.36,-75.9 238.56,-78.31"/>
<text text-anchor="middle" x="253" y="-101" font-family="Helvetica,sans-Serif" font-size="10.00"> +mode</text>
</g>
<!-- Node7 -->
<g id="node7" class="node">
<title>Node7</title>
<g id="a_node7"><a xlink:title=" ">
<polygon fill="none" stroke="black" points="246,-138.5 246,-195.5 322,-195.5 322,-138.5 246,-138.5"/>
<text text-anchor="middle" x="284" y="-183.5" font-family="Helvetica,sans-Serif" font-size="10.00">SymbolRate</text>
<polyline fill="none" stroke="black" points="246,-176.5 322,-176.5 "/>
<text text-anchor="middle" x="284" y="-164.5" font-family="Helvetica,sans-Serif" font-size="10.00"> </text>
<polyline fill="none" stroke="black" points="246,-157.5 322,-157.5 "/>
<text text-anchor="middle" x="284" y="-145.5" font-family="Helvetica,sans-Serif" font-size="10.00"> </text>
</a>
</g>
</g>
<!-- Node7&#45;&gt;Node1 -->
<g id="edge6" class="edge">
<title>Node7&#45;&gt;Node1</title>
<path fill="none" stroke="#404040" d="M280.55,-138.31C279.93,-132.28 279.36,-125.93 279,-120 278.24,-107.37 277.88,-93.66 277.73,-81.03"/>
<polygon fill="none" stroke="#404040" points="277.73,-80.84 273.69,-74.86 277.65,-68.84 281.69,-74.81 277.73,-80.84"/>
<text text-anchor="middle" x="315.5" y="-101" font-family="Helvetica,sans-Serif" font-size="10.00"> +symbol_rate</text>
</g>
<!-- Node8 -->
<g id="node8" class="node">
<title>Node8</title>
<g id="a_node8"><a xlink:title=" ">
<polygon fill="none" stroke="black" points="346,-138.5 346,-195.5 402,-195.5 402,-138.5 346,-138.5"/>
<text text-anchor="middle" x="374" y="-183.5" font-family="Helvetica,sans-Serif" font-size="10.00">uint32_t</text>
<polyline fill="none" stroke="black" points="346,-176.5 402,-176.5 "/>
<text text-anchor="middle" x="374" y="-164.5" font-family="Helvetica,sans-Serif" font-size="10.00"> </text>
<polyline fill="none" stroke="black" points="346,-157.5 402,-157.5 "/>
<text text-anchor="middle" x="374" y="-145.5" font-family="Helvetica,sans-Serif" font-size="10.00"> </text>
</a>
</g>
</g>
<!-- Node8&#45;&gt;Node1 -->
<g id="edge7" class="edge">
<title>Node8&#45;&gt;Node1</title>
<path fill="none" stroke="#404040" d="M371.04,-138.39C368.22,-122.23 362.71,-102.09 352,-87 348.81,-82.5 345.09,-78.26 341.05,-74.3"/>
<polygon fill="none" stroke="#404040" points="340.75,-74.03 333.61,-73.04 331.78,-66.07 338.92,-67.06 340.75,-74.03"/>
<text text-anchor="middle" x="414.5" y="-112" font-family="Helvetica,sans-Serif" font-size="10.00"> +carrier_frequency</text>
<text text-anchor="middle" x="414.5" y="-101" font-family="Helvetica,sans-Serif" font-size="10.00">+postamble_length</text>
<text text-anchor="middle" x="414.5" y="-90" font-family="Helvetica,sans-Serif" font-size="10.00">+preamble_length</text>
</g>
<!-- Node9 -->
<g id="node9" class="node">
<title>Node9</title>
<g id="a_node9"><a xlink:title=" ">
<polygon fill="none" stroke="black" points="475,-138.5 475,-195.5 513,-195.5 513,-138.5 475,-138.5"/>
<text text-anchor="middle" x="494" y="-183.5" font-family="Helvetica,sans-Serif" font-size="10.00">bool</text>
<polyline fill="none" stroke="black" points="475,-176.5 513,-176.5 "/>
<text text-anchor="middle" x="494" y="-164.5" font-family="Helvetica,sans-Serif" font-size="10.00"> </text>
<polyline fill="none" stroke="black" points="475,-157.5 513,-157.5 "/>
<text text-anchor="middle" x="494" y="-145.5" font-family="Helvetica,sans-Serif" font-size="10.00"> </text>
</a>
</g>
</g>
<!-- Node9&#45;&gt;Node1 -->
<g id="edge8" class="edge">
<title>Node9&#45;&gt;Node1</title>
<path fill="none" stroke="#404040" d="M491.1,-138.33C487.9,-121.31 481.16,-100.29 467,-87 433.97,-55.99 384.13,-43.31 343.93,-38.28"/>
<polygon fill="none" stroke="#404040" points="343.72,-38.26 337.32,-41.58 331.79,-36.95 338.19,-33.63 343.72,-38.26"/>
<text text-anchor="middle" x="520.5" y="-101" font-family="Helvetica,sans-Serif" font-size="10.00"> +fldigi_mode</text>
</g>
</g>
</svg>
