<?xml version="1.0" encoding="UTF-8" standalone="no"?>
<!DOCTYPE svg PUBLIC "-//W3C//DTD SVG 1.1//EN"
 "http://www.w3.org/Graphics/SVG/1.1/DTD/svg11.dtd">
<!-- Generated by graphviz version 2.43.0 (0)
 -->
<!-- Title: signal_easel::aprs::ExperimentalPacket Pages: 1 -->
<svg width="505pt" height="331pt"
 viewBox="0.00 0.00 505.00 331.00" xmlns="http://www.w3.org/2000/svg" xmlns:xlink="http://www.w3.org/1999/xlink">
<g id="graph0" class="graph" transform="scale(1 1) rotate(0) translate(4 327)">
<title>signal_easel::aprs::ExperimentalPacket</title>
<!-- Node1 -->
<g id="node1" class="node">
<title>Node1</title>
<g id="a_node1"><a xlink:title="Raw packet with two &#39;{&#39; characters at the start.">
<polygon fill="#bfbfbf" stroke="black" points="265.5,-0.5 265.5,-90.5 384.5,-90.5 384.5,-0.5 265.5,-0.5"/>
<text text-anchor="start" x="273.5" y="-78.5" font-family="Helvetica,sans-Serif" font-size="10.00">signal_easel::aprs</text>
<text text-anchor="middle" x="325" y="-67.5" font-family="Helvetica,sans-Serif" font-size="10.00">::ExperimentalPacket</text>
<polyline fill="none" stroke="black" points="265.5,-60.5 384.5,-60.5 "/>
<text text-anchor="middle" x="325" y="-48.5" font-family="Helvetica,sans-Serif" font-size="10.00"> </text>
<polyline fill="none" stroke="black" points="265.5,-41.5 384.5,-41.5 "/>
<text text-anchor="start" x="273.5" y="-29.5" font-family="Helvetica,sans-Serif" font-size="10.00">+ encode()</text>
<text text-anchor="start" x="273.5" y="-18.5" font-family="Helvetica,sans-Serif" font-size="10.00">+ getStringData()</text>
<text text-anchor="start" x="273.5" y="-7.5" font-family="Helvetica,sans-Serif" font-size="10.00">+ setStringData()</text>
</a>
</g>
</g>
<!-- Node2 -->
<g id="node2" class="node">
<title>Node2</title>
<g id="a_node2"><a xlink:href="structsignal__easel_1_1aprs_1_1Packet.html" target="_top" xlink:title="The base APRS packet structure.">
<polygon fill="none" stroke="black" points="160,-138.5 160,-206.5 264,-206.5 264,-138.5 160,-138.5"/>
<text text-anchor="start" x="168" y="-194.5" font-family="Helvetica,sans-Serif" font-size="10.00">signal_easel::aprs</text>
<text text-anchor="middle" x="212" y="-183.5" font-family="Helvetica,sans-Serif" font-size="10.00">::Packet</text>
<polyline fill="none" stroke="black" points="160,-176.5 264,-176.5 "/>
<text text-anchor="middle" x="212" y="-164.5" font-family="Helvetica,sans-Serif" font-size="10.00"> </text>
<polyline fill="none" stroke="black" points="160,-157.5 264,-157.5 "/>
<text text-anchor="middle" x="212" y="-145.5" font-family="Helvetica,sans-Serif" font-size="10.00"> </text>
</a>
</g>
</g>
<!-- Node2&#45;&gt;Node1 -->
<g id="edge1" class="edge">
<title>Node2&#45;&gt;Node1</title>
<path fill="none" stroke="midnightblue" d="M249,-130.57C260.55,-117.8 273.34,-103.65 285.08,-90.66"/>
<polygon fill="none" stroke="midnightblue" points="246.09,-128.57 241.99,-138.33 251.29,-133.26 246.09,-128.57"/>
</g>
<!-- Node3 -->
<g id="node3" class="node">
<title>Node3</title>
<g id="a_node3"><a xlink:title=" ">
<polygon fill="none" stroke="black" points="0,-265.5 0,-322.5 44,-322.5 44,-265.5 0,-265.5"/>
<text text-anchor="middle" x="22" y="-310.5" font-family="Helvetica,sans-Serif" font-size="10.00">string</text>
<polyline fill="none" stroke="black" points="0,-303.5 44,-303.5 "/>
<text text-anchor="middle" x="22" y="-291.5" font-family="Helvetica,sans-Serif" font-size="10.00"> </text>
<polyline fill="none" stroke="black" points="0,-284.5 44,-284.5 "/>
<text text-anchor="middle" x="22" y="-272.5" font-family="Helvetica,sans-Serif" font-size="10.00"> </text>
</a>
</g>
</g>
<!-- Node3&#45;&gt;Node2 -->
<g id="edge2" class="edge">
<title>Node3&#45;&gt;Node2</title>
<path fill="none" stroke="#404040" d="M21.76,-265.47C23.06,-251.73 26.94,-235.78 37,-225 65.25,-194.73 110.28,-181.95 147.58,-176.68"/>
<polygon fill="none" stroke="#404040" points="147.99,-176.63 153.46,-171.93 159.9,-175.17 154.44,-179.87 147.99,-176.63"/>
<text text-anchor="middle" x="92" y="-239" font-family="Helvetica,sans-Serif" font-size="10.00"> +destination_address</text>
<text text-anchor="middle" x="92" y="-228" font-family="Helvetica,sans-Serif" font-size="10.00">+source_address</text>
</g>
<!-- Node4 -->
<g id="node4" class="node">
<title>Node4</title>
<g id="a_node4"><a xlink:title=" ">
<polygon fill="none" stroke="black" points="130,-265.5 130,-322.5 180,-322.5 180,-265.5 130,-265.5"/>
<text text-anchor="middle" x="155" y="-310.5" font-family="Helvetica,sans-Serif" font-size="10.00">uint8_t</text>
<polyline fill="none" stroke="black" points="130,-303.5 180,-303.5 "/>
<text text-anchor="middle" x="155" y="-291.5" font-family="Helvetica,sans-Serif" font-size="10.00"> </text>
<polyline fill="none" stroke="black" points="130,-284.5 180,-284.5 "/>
<text text-anchor="middle" x="155" y="-272.5" font-family="Helvetica,sans-Serif" font-size="10.00"> </text>
</a>
</g>
</g>
<!-- Node4&#45;&gt;Node2 -->
<g id="edge3" class="edge">
<title>Node4&#45;&gt;Node2</title>
<path fill="none" stroke="#404040" d="M150.55,-265.45C149.67,-252.63 150.4,-237.5 156,-225 157.35,-222 158.96,-219.09 160.78,-216.29"/>
<polygon fill="none" stroke="#404040" points="160.86,-216.17 161.32,-208.98 168.13,-206.63 167.68,-213.82 160.86,-216.17"/>
<text text-anchor="middle" x="201.5" y="-239" font-family="Helvetica,sans-Serif" font-size="10.00"> +destination_ssid</text>
<text text-anchor="middle" x="201.5" y="-228" font-family="Helvetica,sans-Serif" font-size="10.00">+source_ssid</text>
</g>
<!-- Node5 -->
<g id="node5" class="node">
<title>Node5</title>
<g id="a_node5"><a xlink:title=" ">
<polygon fill="none" stroke="black" points="229.5,-265.5 229.5,-322.5 308.5,-322.5 308.5,-265.5 229.5,-265.5"/>
<text text-anchor="middle" x="269" y="-310.5" font-family="Helvetica,sans-Serif" font-size="10.00">SymbolTable</text>
<polyline fill="none" stroke="black" points="229.5,-303.5 308.5,-303.5 "/>
<text text-anchor="middle" x="269" y="-291.5" font-family="Helvetica,sans-Serif" font-size="10.00"> </text>
<polyline fill="none" stroke="black" points="229.5,-284.5 308.5,-284.5 "/>
<text text-anchor="middle" x="269" y="-272.5" font-family="Helvetica,sans-Serif" font-size="10.00"> </text>
</a>
</g>
</g>
<!-- Node5&#45;&gt;Node2 -->
<g id="edge4" class="edge">
<title>Node5&#45;&gt;Node2</title>
<path fill="none" stroke="#404040" d="M261.94,-265.17C258.26,-252.58 253.22,-237.71 247,-225 245.74,-222.42 244.36,-219.82 242.9,-217.23"/>
<polygon fill="none" stroke="#404040" points="242.78,-217.02 236.26,-213.95 236.58,-206.75 243.11,-209.82 242.78,-217.02"/>
<text text-anchor="middle" x="295" y="-233.5" font-family="Helvetica,sans-Serif" font-size="10.00"> +symbol_table</text>
</g>
<!-- Node6 -->
<g id="node6" class="node">
<title>Node6</title>
<g id="a_node6"><a xlink:title=" ">
<polygon fill="none" stroke="black" points="351,-265.5 351,-322.5 389,-322.5 389,-265.5 351,-265.5"/>
<text text-anchor="middle" x="370" y="-310.5" font-family="Helvetica,sans-Serif" font-size="10.00">char</text>
<polyline fill="none" stroke="black" points="351,-303.5 389,-303.5 "/>
<text text-anchor="middle" x="370" y="-291.5" font-family="Helvetica,sans-Serif" font-size="10.00"> </text>
<polyline fill="none" stroke="black" points="351,-284.5 389,-284.5 "/>
<text text-anchor="middle" x="370" y="-272.5" font-family="Helvetica,sans-Serif" font-size="10.00"> </text>
</a>
</g>
</g>
<!-- Node6&#45;&gt;Node2 -->
<g id="edge5" class="edge">
<title>Node6&#45;&gt;Node2</title>
<path fill="none" stroke="#404040" d="M363,-265.39C358.14,-251.45 350.27,-235.35 338,-225 317.68,-207.87 304.12,-215.84 275.81,-207.33"/>
<polygon fill="none" stroke="#404040" points="275.49,-207.21 268.49,-208.96 264.19,-203.17 271.19,-201.42 275.49,-207.21"/>
<text text-anchor="middle" x="378" y="-233.5" font-family="Helvetica,sans-Serif" font-size="10.00"> +symbol</text>
</g>
<!-- Node7 -->
<g id="node7" class="node">
<title>Node7</title>
<g id="a_node7"><a xlink:title=" ">
<polygon fill="none" stroke="black" points="282.5,-144 282.5,-201 367.5,-201 367.5,-144 282.5,-144"/>
<text text-anchor="middle" x="325" y="-189" font-family="Helvetica,sans-Serif" font-size="10.00">unsigned char</text>
<polyline fill="none" stroke="black" points="282.5,-182 367.5,-182 "/>
<text text-anchor="middle" x="325" y="-170" font-family="Helvetica,sans-Serif" font-size="10.00"> </text>
<polyline fill="none" stroke="black" points="282.5,-163 367.5,-163 "/>
<text text-anchor="middle" x="325" y="-151" font-family="Helvetica,sans-Serif" font-size="10.00"> </text>
</a>
</g>
</g>
<!-- Node7&#45;&gt;Node1 -->
<g id="edge6" class="edge">
<title>Node7&#45;&gt;Node1</title>
<path fill="none" stroke="#404040" d="M325,-143.76C325,-131.74 325,-117.21 325,-103.09"/>
<polygon fill="none" stroke="#404040" points="325,-102.86 321,-96.86 325,-90.86 329,-96.86 325,-102.86"/>
<text text-anchor="middle" x="373.5" y="-112" font-family="Helvetica,sans-Serif" font-size="10.00"> +packet_type_char</text>
</g>
<!-- Node8 -->
<g id="node8" class="node">
<title>Node8</title>
<g id="a_node8"><a xlink:title=" ">
<polygon fill="none" stroke="black" points="393,-144 393,-201 497,-201 497,-144 393,-144"/>
<text text-anchor="middle" x="445" y="-189" font-family="Helvetica,sans-Serif" font-size="10.00">vector&lt; uint8_t &gt;</text>
<polyline fill="none" stroke="black" points="393,-182 497,-182 "/>
<text text-anchor="middle" x="445" y="-170" font-family="Helvetica,sans-Serif" font-size="10.00"> </text>
<polyline fill="none" stroke="black" points="393,-163 497,-163 "/>
<text text-anchor="middle" x="445" y="-151" font-family="Helvetica,sans-Serif" font-size="10.00"> </text>
</a>
</g>
</g>
<!-- Node8&#45;&gt;Node1 -->
<g id="edge7" class="edge">
<title>Node8&#45;&gt;Node1</title>
<path fill="none" stroke="#404040" d="M439.46,-143.69C436.13,-132.08 430.94,-119 423,-109 415.11,-99.06 405.18,-90.23 394.69,-82.56"/>
<polygon fill="none" stroke="#404040" points="394.41,-82.37 387.19,-82.27 384.51,-75.58 391.72,-75.67 394.41,-82.37"/>
<text text-anchor="middle" x="446" y="-112" font-family="Helvetica,sans-Serif" font-size="10.00"> +data</text>
</g>
</g>
</svg>
