<?xml version="1.0" encoding="UTF-8" standalone="no"?>
<!DOCTYPE svg PUBLIC "-//W3C//DTD SVG 1.1//EN"
 "http://www.w3.org/Graphics/SVG/1.1/DTD/svg11.dtd">
<!-- Generated by graphviz version 2.43.0 (0)
 -->
<!-- Title: signal_easel::aprs::ExperimentalPacket Pages: 1 -->
<svg width="134pt" height="270pt"
 viewBox="0.00 0.00 134.00 270.00" xmlns="http://www.w3.org/2000/svg" xmlns:xlink="http://www.w3.org/1999/xlink">
<g id="graph0" class="graph" transform="scale(1 1) rotate(0) translate(4 266)">
<title>signal_easel::aprs::ExperimentalPacket</title>
<!-- Node1 -->
<g id="node1" class="node">
<title>Node1</title>
<g id="a_node1"><a xlink:title="Raw packet with two &#39;{&#39; characters at the start.">
<polygon fill="#bfbfbf" stroke="black" points="3.5,-0.5 3.5,-101.5 122.5,-101.5 122.5,-0.5 3.5,-0.5"/>
<text text-anchor="start" x="11.5" y="-89.5" font-family="Helvetica,sans-Serif" font-size="10.00">signal_easel::aprs</text>
<text text-anchor="middle" x="63" y="-78.5" font-family="Helvetica,sans-Serif" font-size="10.00">::ExperimentalPacket</text>
<polyline fill="none" stroke="black" points="3.5,-71.5 122.5,-71.5 "/>
<text text-anchor="start" x="11.5" y="-59.5" font-family="Helvetica,sans-Serif" font-size="10.00">+ data</text>
<text text-anchor="start" x="11.5" y="-48.5" font-family="Helvetica,sans-Serif" font-size="10.00">+ packet_type_char</text>
<polyline fill="none" stroke="black" points="3.5,-41.5 122.5,-41.5 "/>
<text text-anchor="start" x="11.5" y="-29.5" font-family="Helvetica,sans-Serif" font-size="10.00">+ encode()</text>
<text text-anchor="start" x="11.5" y="-18.5" font-family="Helvetica,sans-Serif" font-size="10.00">+ getStringData()</text>
<text text-anchor="start" x="11.5" y="-7.5" font-family="Helvetica,sans-Serif" font-size="10.00">+ setStringData()</text>
</a>
</g>
</g>
<!-- Node2 -->
<g id="node2" class="node">
<title>Node2</title>
<g id="a_node2"><a xlink:href="structsignal__easel_1_1aprs_1_1Packet.html" target="_top" xlink:title="The base APRS packet structure.">
<polygon fill="none" stroke="black" points="0,-138.5 0,-261.5 126,-261.5 126,-138.5 0,-138.5"/>
<text text-anchor="start" x="8" y="-249.5" font-family="Helvetica,sans-Serif" font-size="10.00">signal_easel::aprs</text>
<text text-anchor="middle" x="63" y="-238.5" font-family="Helvetica,sans-Serif" font-size="10.00">::Packet</text>
<polyline fill="none" stroke="black" points="0,-231.5 126,-231.5 "/>
<text text-anchor="start" x="8" y="-219.5" font-family="Helvetica,sans-Serif" font-size="10.00">+ destination_address</text>
<text text-anchor="start" x="8" y="-208.5" font-family="Helvetica,sans-Serif" font-size="10.00">+ destination_ssid</text>
<text text-anchor="start" x="8" y="-197.5" font-family="Helvetica,sans-Serif" font-size="10.00">+ source_address</text>
<text text-anchor="start" x="8" y="-186.5" font-family="Helvetica,sans-Serif" font-size="10.00">+ source_ssid</text>
<text text-anchor="start" x="8" y="-175.5" font-family="Helvetica,sans-Serif" font-size="10.00">+ symbol</text>
<text text-anchor="start" x="8" y="-164.5" font-family="Helvetica,sans-Serif" font-size="10.00">+ symbol_table</text>
<polyline fill="none" stroke="black" points="0,-157.5 126,-157.5 "/>
<text text-anchor="middle" x="63" y="-145.5" font-family="Helvetica,sans-Serif" font-size="10.00"> </text>
</a>
</g>
</g>
<!-- Node2&#45;&gt;Node1 -->
<g id="edge1" class="edge">
<title>Node2&#45;&gt;Node1</title>
<path fill="none" stroke="midnightblue" d="M63,-128.29C63,-119.32 63,-110.3 63,-101.76"/>
<polygon fill="none" stroke="midnightblue" points="59.5,-128.36 63,-138.36 66.5,-128.36 59.5,-128.36"/>
</g>
</g>
</svg>
