<?xml version="1.0" encoding="UTF-8" standalone="no"?>
<!DOCTYPE svg PUBLIC "-//W3C//DTD SVG 1.1//EN"
 "http://www.w3.org/Graphics/SVG/1.1/DTD/svg11.dtd">
<!-- Generated by graphviz version 2.43.0 (0)
 -->
<!-- Title: signal_easel::aprs::MessagePacket Pages: 1 -->
<svg width="429pt" height="299pt"
 viewBox="0.00 0.00 429.00 299.00" xmlns="http://www.w3.org/2000/svg" xmlns:xlink="http://www.w3.org/1999/xlink">
<g id="graph0" class="graph" transform="scale(1 1) rotate(0) translate(4 295)">
<title>signal_easel::aprs::MessagePacket</title>
<!-- Node1 -->
<g id="node1" class="node">
<title>Node1</title>
<g id="a_node1"><a xlink:title=" ">
<polygon fill="#bfbfbf" stroke="black" points="0,-0.5 0,-68.5 104,-68.5 104,-0.5 0,-0.5"/>
<text text-anchor="start" x="8" y="-56.5" font-family="Helvetica,sans-Serif" font-size="10.00">signal_easel::aprs</text>
<text text-anchor="middle" x="52" y="-45.5" font-family="Helvetica,sans-Serif" font-size="10.00">::MessagePacket</text>
<polyline fill="none" stroke="black" points="0,-38.5 104,-38.5 "/>
<text text-anchor="middle" x="52" y="-26.5" font-family="Helvetica,sans-Serif" font-size="10.00"> </text>
<polyline fill="none" stroke="black" points="0,-19.5 104,-19.5 "/>
<text text-anchor="start" x="8" y="-7.5" font-family="Helvetica,sans-Serif" font-size="10.00">+ encode()</text>
</a>
</g>
</g>
<!-- Node2 -->
<g id="node2" class="node">
<title>Node2</title>
<g id="a_node2"><a xlink:href="structsignal__easel_1_1aprs_1_1Packet.html" target="_top" xlink:title="The base APRS packet structure.">
<polygon fill="none" stroke="black" points="119,-106.5 119,-174.5 223,-174.5 223,-106.5 119,-106.5"/>
<text text-anchor="start" x="127" y="-162.5" font-family="Helvetica,sans-Serif" font-size="10.00">signal_easel::aprs</text>
<text text-anchor="middle" x="171" y="-151.5" font-family="Helvetica,sans-Serif" font-size="10.00">::Packet</text>
<polyline fill="none" stroke="black" points="119,-144.5 223,-144.5 "/>
<text text-anchor="middle" x="171" y="-132.5" font-family="Helvetica,sans-Serif" font-size="10.00"> </text>
<polyline fill="none" stroke="black" points="119,-125.5 223,-125.5 "/>
<text text-anchor="middle" x="171" y="-113.5" font-family="Helvetica,sans-Serif" font-size="10.00"> </text>
</a>
</g>
</g>
<!-- Node2&#45;&gt;Node1 -->
<g id="edge1" class="edge">
<title>Node2&#45;&gt;Node1</title>
<path fill="none" stroke="midnightblue" d="M125.46,-99.7C113.76,-89.48 101.3,-78.59 90.03,-68.73"/>
<polygon fill="none" stroke="midnightblue" points="123.19,-102.36 133.02,-106.31 127.79,-97.09 123.19,-102.36"/>
</g>
<!-- Node3 -->
<g id="node3" class="node">
<title>Node3</title>
<g id="a_node3"><a xlink:title=" ">
<polygon fill="none" stroke="black" points="0,-233.5 0,-290.5 44,-290.5 44,-233.5 0,-233.5"/>
<text text-anchor="middle" x="22" y="-278.5" font-family="Helvetica,sans-Serif" font-size="10.00">string</text>
<polyline fill="none" stroke="black" points="0,-271.5 44,-271.5 "/>
<text text-anchor="middle" x="22" y="-259.5" font-family="Helvetica,sans-Serif" font-size="10.00"> </text>
<polyline fill="none" stroke="black" points="0,-252.5 44,-252.5 "/>
<text text-anchor="middle" x="22" y="-240.5" font-family="Helvetica,sans-Serif" font-size="10.00"> </text>
</a>
</g>
</g>
<!-- Node3&#45;&gt;Node1 -->
<g id="edge6" class="edge">
<title>Node3&#45;&gt;Node1</title>
<path fill="none" stroke="#404040" d="M25.68,-233.35C30.75,-195.21 39.96,-126.02 46.03,-80.41"/>
<polygon fill="none" stroke="#404040" points="46.03,-80.4 42.85,-73.92 47.61,-68.5 50.78,-74.98 46.03,-80.4"/>
<text text-anchor="middle" x="76.5" y="-149" font-family="Helvetica,sans-Serif" font-size="10.00"> +addressee</text>
<text text-anchor="middle" x="76.5" y="-138" font-family="Helvetica,sans-Serif" font-size="10.00">+message</text>
<text text-anchor="middle" x="76.5" y="-127" font-family="Helvetica,sans-Serif" font-size="10.00">+message_id</text>
</g>
<!-- Node3&#45;&gt;Node2 -->
<g id="edge2" class="edge">
<title>Node3&#45;&gt;Node2</title>
<path fill="none" stroke="#404040" d="M31.22,-233.45C36.9,-219.86 45.35,-204.07 57,-193 71.27,-179.44 89.74,-169.02 107.63,-161.22"/>
<polygon fill="none" stroke="#404040" points="107.85,-161.14 111.89,-155.16 118.95,-156.59 114.92,-162.56 107.85,-161.14"/>
<text text-anchor="middle" x="112" y="-207" font-family="Helvetica,sans-Serif" font-size="10.00"> +destination_address</text>
<text text-anchor="middle" x="112" y="-196" font-family="Helvetica,sans-Serif" font-size="10.00">+source_address</text>
</g>
<!-- Node4 -->
<g id="node4" class="node">
<title>Node4</title>
<g id="a_node4"><a xlink:title=" ">
<polygon fill="none" stroke="black" points="146,-233.5 146,-290.5 196,-290.5 196,-233.5 146,-233.5"/>
<text text-anchor="middle" x="171" y="-278.5" font-family="Helvetica,sans-Serif" font-size="10.00">uint8_t</text>
<polyline fill="none" stroke="black" points="146,-271.5 196,-271.5 "/>
<text text-anchor="middle" x="171" y="-259.5" font-family="Helvetica,sans-Serif" font-size="10.00"> </text>
<polyline fill="none" stroke="black" points="146,-252.5 196,-252.5 "/>
<text text-anchor="middle" x="171" y="-240.5" font-family="Helvetica,sans-Serif" font-size="10.00"> </text>
</a>
</g>
</g>
<!-- Node4&#45;&gt;Node2 -->
<g id="edge3" class="edge">
<title>Node4&#45;&gt;Node2</title>
<path fill="none" stroke="#404040" d="M171,-233.28C171,-219.47 171,-202.4 171,-186.75"/>
<polygon fill="none" stroke="#404040" points="171,-186.59 167,-180.59 171,-174.59 175,-180.59 171,-186.59"/>
<text text-anchor="middle" x="216.5" y="-207" font-family="Helvetica,sans-Serif" font-size="10.00"> +destination_ssid</text>
<text text-anchor="middle" x="216.5" y="-196" font-family="Helvetica,sans-Serif" font-size="10.00">+source_ssid</text>
</g>
<!-- Node5 -->
<g id="node5" class="node">
<title>Node5</title>
<g id="a_node5"><a xlink:title=" ">
<polygon fill="none" stroke="black" points="245.5,-233.5 245.5,-290.5 324.5,-290.5 324.5,-233.5 245.5,-233.5"/>
<text text-anchor="middle" x="285" y="-278.5" font-family="Helvetica,sans-Serif" font-size="10.00">SymbolTable</text>
<polyline fill="none" stroke="black" points="245.5,-271.5 324.5,-271.5 "/>
<text text-anchor="middle" x="285" y="-259.5" font-family="Helvetica,sans-Serif" font-size="10.00"> </text>
<polyline fill="none" stroke="black" points="245.5,-252.5 324.5,-252.5 "/>
<text text-anchor="middle" x="285" y="-240.5" font-family="Helvetica,sans-Serif" font-size="10.00"> </text>
</a>
</g>
</g>
<!-- Node5&#45;&gt;Node2 -->
<g id="edge4" class="edge">
<title>Node5&#45;&gt;Node2</title>
<path fill="none" stroke="#404040" d="M280.88,-233.23C277.77,-219.92 272.36,-204.42 263,-193 255,-183.24 244.63,-175 233.75,-168.17"/>
<polygon fill="none" stroke="#404040" points="233.6,-168.08 226.41,-168.52 223.23,-162.05 230.43,-161.61 233.6,-168.08"/>
<text text-anchor="middle" x="315" y="-201.5" font-family="Helvetica,sans-Serif" font-size="10.00"> +symbol_table</text>
</g>
<!-- Node6 -->
<g id="node6" class="node">
<title>Node6</title>
<g id="a_node6"><a xlink:title=" ">
<polygon fill="none" stroke="black" points="367,-233.5 367,-290.5 405,-290.5 405,-233.5 367,-233.5"/>
<text text-anchor="middle" x="386" y="-278.5" font-family="Helvetica,sans-Serif" font-size="10.00">char</text>
<polyline fill="none" stroke="black" points="367,-271.5 405,-271.5 "/>
<text text-anchor="middle" x="386" y="-259.5" font-family="Helvetica,sans-Serif" font-size="10.00"> </text>
<polyline fill="none" stroke="black" points="367,-252.5 405,-252.5 "/>
<text text-anchor="middle" x="386" y="-240.5" font-family="Helvetica,sans-Serif" font-size="10.00"> </text>
</a>
</g>
</g>
<!-- Node6&#45;&gt;Node2 -->
<g id="edge5" class="edge">
<title>Node6&#45;&gt;Node2</title>
<path fill="none" stroke="#404040" d="M380.7,-233.44C376.68,-219.51 369.76,-203.41 358,-193 324.29,-163.17 274.8,-150.45 235.2,-145.1"/>
<polygon fill="none" stroke="#404040" points="235.17,-145.1 228.74,-148.36 223.26,-143.67 229.69,-140.42 235.17,-145.1"/>
<text text-anchor="middle" x="397" y="-201.5" font-family="Helvetica,sans-Serif" font-size="10.00"> +symbol</text>
</g>
</g>
</svg>
