<?xml version="1.0" encoding="UTF-8" standalone="no"?>
<!DOCTYPE svg PUBLIC "-//W3C//DTD SVG 1.1//EN"
 "http://www.w3.org/Graphics/SVG/1.1/DTD/svg11.dtd">
<!-- Generated by graphviz version 2.43.0 (0)
 -->
<!-- Title: signal_easel::aprs::Experimental Pages: 1 -->
<svg width="223pt" height="182pt"
 viewBox="0.00 0.00 222.50 182.00" xmlns="http://www.w3.org/2000/svg" xmlns:xlink="http://www.w3.org/1999/xlink">
<g id="graph0" class="graph" transform="scale(1 1) rotate(0) translate(4 178)">
<title>signal_easel::aprs::Experimental</title>
<!-- Node1 -->
<g id="node1" class="node">
<title>Node1</title>
<g id="a_node1"><a xlink:title="This packet type will have two { characters at the start.">
<polygon fill="#bfbfbf" stroke="black" points="50.5,-0.5 50.5,-68.5 154.5,-68.5 154.5,-0.5 50.5,-0.5"/>
<text text-anchor="start" x="58.5" y="-56.5" font-family="Helvetica,sans-Serif" font-size="10.00">signal_easel::aprs</text>
<text text-anchor="middle" x="102.5" y="-45.5" font-family="Helvetica,sans-Serif" font-size="10.00">::Experimental</text>
<polyline fill="none" stroke="black" points="50.5,-38.5 154.5,-38.5 "/>
<text text-anchor="middle" x="102.5" y="-26.5" font-family="Helvetica,sans-Serif" font-size="10.00"> </text>
<polyline fill="none" stroke="black" points="50.5,-19.5 154.5,-19.5 "/>
<text text-anchor="start" x="58.5" y="-7.5" font-family="Helvetica,sans-Serif" font-size="10.00">+ encode()</text>
</a>
</g>
</g>
<!-- Node2 -->
<g id="node2" class="node">
<title>Node2</title>
<g id="a_node2"><a xlink:title=" ">
<polygon fill="none" stroke="#bfbfbf" points="0,-116.5 0,-173.5 85,-173.5 85,-116.5 0,-116.5"/>
<text text-anchor="middle" x="42.5" y="-161.5" font-family="Helvetica,sans-Serif" font-size="10.00">unsigned char</text>
<polyline fill="none" stroke="#bfbfbf" points="0,-154.5 85,-154.5 "/>
<text text-anchor="middle" x="42.5" y="-142.5" font-family="Helvetica,sans-Serif" font-size="10.00"> </text>
<polyline fill="none" stroke="#bfbfbf" points="0,-135.5 85,-135.5 "/>
<text text-anchor="middle" x="42.5" y="-123.5" font-family="Helvetica,sans-Serif" font-size="10.00"> </text>
</a>
</g>
</g>
<!-- Node2&#45;&gt;Node1 -->
<g id="edge1" class="edge">
<title>Node2&#45;&gt;Node1</title>
<path fill="none" stroke="#404040" d="M38.51,-116.29C38.26,-106.63 39.33,-95.97 43.5,-87 44.9,-83.98 46.58,-81.07 48.46,-78.28"/>
<polygon fill="none" stroke="#404040" points="48.62,-78.08 49.19,-70.89 56.05,-68.66 55.47,-75.85 48.62,-78.08"/>
<text text-anchor="middle" x="92" y="-90" font-family="Helvetica,sans-Serif" font-size="10.00"> +packet_type_char</text>
</g>
<!-- Node3 -->
<g id="node3" class="node">
<title>Node3</title>
<g id="a_node3"><a xlink:title=" ">
<polygon fill="none" stroke="#bfbfbf" points="110.5,-116.5 110.5,-173.5 214.5,-173.5 214.5,-116.5 110.5,-116.5"/>
<text text-anchor="middle" x="162.5" y="-161.5" font-family="Helvetica,sans-Serif" font-size="10.00">vector&lt; uint8_t &gt;</text>
<polyline fill="none" stroke="#bfbfbf" points="110.5,-154.5 214.5,-154.5 "/>
<text text-anchor="middle" x="162.5" y="-142.5" font-family="Helvetica,sans-Serif" font-size="10.00"> </text>
<polyline fill="none" stroke="#bfbfbf" points="110.5,-135.5 214.5,-135.5 "/>
<text text-anchor="middle" x="162.5" y="-123.5" font-family="Helvetica,sans-Serif" font-size="10.00"> </text>
</a>
</g>
</g>
<!-- Node3&#45;&gt;Node1 -->
<g id="edge2" class="edge">
<title>Node3&#45;&gt;Node1</title>
<path fill="none" stroke="#404040" d="M153.53,-116.37C149.99,-106.82 145.55,-96.21 140.5,-87 139.03,-84.32 137.43,-81.61 135.75,-78.92"/>
<polygon fill="none" stroke="#404040" points="135.62,-78.72 128.97,-75.93 128.98,-68.71 135.63,-71.51 135.62,-78.72"/>
<text text-anchor="middle" x="162.5" y="-90" font-family="Helvetica,sans-Serif" font-size="10.00"> +data</text>
</g>
</g>
</svg>
