<?xml version="1.0" encoding="UTF-8" standalone="no"?>
<!DOCTYPE svg PUBLIC "-//W3C//DTD SVG 1.1//EN"
 "http://www.w3.org/Graphics/SVG/1.1/DTD/svg11.dtd">
<!-- Generated by graphviz version 2.43.0 (0)
 -->
<!-- Title: signal_easel::aprs::Telemetry Pages: 1 -->
<svg width="389pt" height="419pt"
 viewBox="0.00 0.00 388.50 419.00" xmlns="http://www.w3.org/2000/svg" xmlns:xlink="http://www.w3.org/1999/xlink">
<g id="graph0" class="graph" transform="scale(1 1) rotate(0) translate(4 415)">
<title>signal_easel::aprs::Telemetry</title>
<!-- Node1 -->
<g id="node1" class="node">
<title>Node1</title>
<g id="a_node1"><a xlink:title=" ">
<polygon fill="#bfbfbf" stroke="black" points="93.5,-0.5 93.5,-68.5 197.5,-68.5 197.5,-0.5 93.5,-0.5"/>
<text text-anchor="start" x="101.5" y="-56.5" font-family="Helvetica,sans-Serif" font-size="10.00">signal_easel::aprs</text>
<text text-anchor="middle" x="145.5" y="-45.5" font-family="Helvetica,sans-Serif" font-size="10.00">::Telemetry</text>
<polyline fill="none" stroke="black" points="93.5,-38.5 197.5,-38.5 "/>
<text text-anchor="middle" x="145.5" y="-26.5" font-family="Helvetica,sans-Serif" font-size="10.00"> </text>
<polyline fill="none" stroke="black" points="93.5,-19.5 197.5,-19.5 "/>
<text text-anchor="start" x="101.5" y="-7.5" font-family="Helvetica,sans-Serif" font-size="10.00">+ encode()</text>
</a>
</g>
</g>
<!-- Node2 -->
<g id="node2" class="node">
<title>Node2</title>
<g id="a_node2"><a xlink:href="structsignal__easel_1_1aprs_1_1Telemetry.html#structsignal__easel_1_1aprs_1_1Telemetry_1_1Digital" target="_top" xlink:title=" ">
<polygon fill="none" stroke="black" points="0,-193.5 0,-261.5 109,-261.5 109,-193.5 0,-193.5"/>
<text text-anchor="start" x="8" y="-249.5" font-family="Helvetica,sans-Serif" font-size="10.00">signal_easel::aprs</text>
<text text-anchor="middle" x="54.5" y="-238.5" font-family="Helvetica,sans-Serif" font-size="10.00">::Telemetry::Digital</text>
<polyline fill="none" stroke="black" points="0,-231.5 109,-231.5 "/>
<text text-anchor="middle" x="54.5" y="-219.5" font-family="Helvetica,sans-Serif" font-size="10.00"> </text>
<polyline fill="none" stroke="black" points="0,-212.5 109,-212.5 "/>
<text text-anchor="middle" x="54.5" y="-200.5" font-family="Helvetica,sans-Serif" font-size="10.00"> </text>
</a>
</g>
</g>
<!-- Node2&#45;&gt;Node1 -->
<g id="edge1" class="edge">
<title>Node2&#45;&gt;Node1</title>
<path fill="none" stroke="#404040" d="M64.3,-193.25C73.49,-164.27 88.64,-121.57 107.5,-87 108.97,-84.31 110.56,-81.6 112.23,-78.92"/>
<polygon fill="none" stroke="#404040" points="112.37,-78.71 112.34,-71.5 118.99,-68.7 119.01,-75.91 112.37,-78.71"/>
<text text-anchor="middle" x="119.5" y="-167" font-family="Helvetica,sans-Serif" font-size="10.00"> +d1</text>
<text text-anchor="middle" x="119.5" y="-156" font-family="Helvetica,sans-Serif" font-size="10.00">+d2</text>
<text text-anchor="middle" x="119.5" y="-145" font-family="Helvetica,sans-Serif" font-size="10.00">+d3</text>
<text text-anchor="middle" x="119.5" y="-134" font-family="Helvetica,sans-Serif" font-size="10.00">+d4</text>
<text text-anchor="middle" x="119.5" y="-123" font-family="Helvetica,sans-Serif" font-size="10.00">+d5</text>
<text text-anchor="middle" x="119.5" y="-112" font-family="Helvetica,sans-Serif" font-size="10.00">+d6</text>
<text text-anchor="middle" x="119.5" y="-101" font-family="Helvetica,sans-Serif" font-size="10.00">+d7</text>
<text text-anchor="middle" x="119.5" y="-90" font-family="Helvetica,sans-Serif" font-size="10.00">+d8</text>
</g>
<!-- Node3 -->
<g id="node3" class="node">
<title>Node3</title>
<g id="a_node3"><a xlink:title=" ">
<polygon fill="none" stroke="#bfbfbf" points="123.5,-353.5 123.5,-410.5 167.5,-410.5 167.5,-353.5 123.5,-353.5"/>
<text text-anchor="middle" x="145.5" y="-398.5" font-family="Helvetica,sans-Serif" font-size="10.00">string</text>
<polyline fill="none" stroke="#bfbfbf" points="123.5,-391.5 167.5,-391.5 "/>
<text text-anchor="middle" x="145.5" y="-379.5" font-family="Helvetica,sans-Serif" font-size="10.00"> </text>
<polyline fill="none" stroke="#bfbfbf" points="123.5,-372.5 167.5,-372.5 "/>
<text text-anchor="middle" x="145.5" y="-360.5" font-family="Helvetica,sans-Serif" font-size="10.00"> </text>
</a>
</g>
</g>
<!-- Node3&#45;&gt;Node1 -->
<g id="edge4" class="edge">
<title>Node3&#45;&gt;Node1</title>
<path fill="none" stroke="#404040" d="M145.5,-353.31C145.5,-293.87 145.5,-153.56 145.5,-80.89"/>
<polygon fill="none" stroke="#404040" points="145.5,-80.57 141.5,-74.57 145.5,-68.57 149.5,-74.57 145.5,-80.57"/>
<text text-anchor="middle" x="199" y="-241.5" font-family="Helvetica,sans-Serif" font-size="10.00"> +comment</text>
<text text-anchor="middle" x="199" y="-230.5" font-family="Helvetica,sans-Serif" font-size="10.00">+destination_address</text>
<text text-anchor="middle" x="199" y="-219.5" font-family="Helvetica,sans-Serif" font-size="10.00">+project_title</text>
<text text-anchor="middle" x="199" y="-208.5" font-family="Helvetica,sans-Serif" font-size="10.00">+sequence_number</text>
</g>
<!-- Node3&#45;&gt;Node2 -->
<g id="edge2" class="edge">
<title>Node3&#45;&gt;Node2</title>
<path fill="none" stroke="#404040" d="M123.3,-366.38C112.44,-358.25 99.91,-347.3 91.5,-335 84.35,-324.55 74.99,-297.48 67.46,-273.24"/>
<polygon fill="none" stroke="#404040" points="67.43,-273.14 61.86,-268.56 63.94,-261.66 69.51,-266.23 67.43,-273.14"/>
<text text-anchor="middle" x="111.5" y="-310.5" font-family="Helvetica,sans-Serif" font-size="10.00"> +name</text>
<text text-anchor="middle" x="111.5" y="-299.5" font-family="Helvetica,sans-Serif" font-size="10.00">+unit</text>
</g>
<!-- Node5 -->
<g id="node5" class="node">
<title>Node5</title>
<g id="a_node5"><a xlink:href="structsignal__easel_1_1aprs_1_1Telemetry.html#structsignal__easel_1_1aprs_1_1Telemetry_1_1Analog" target="_top" xlink:title=" ">
<polygon fill="none" stroke="black" points="270.5,-193.5 270.5,-261.5 380.5,-261.5 380.5,-193.5 270.5,-193.5"/>
<text text-anchor="start" x="278.5" y="-249.5" font-family="Helvetica,sans-Serif" font-size="10.00">signal_easel::aprs</text>
<text text-anchor="middle" x="325.5" y="-238.5" font-family="Helvetica,sans-Serif" font-size="10.00">::Telemetry::Analog</text>
<polyline fill="none" stroke="black" points="270.5,-231.5 380.5,-231.5 "/>
<text text-anchor="middle" x="325.5" y="-219.5" font-family="Helvetica,sans-Serif" font-size="10.00"> </text>
<polyline fill="none" stroke="black" points="270.5,-212.5 380.5,-212.5 "/>
<text text-anchor="middle" x="325.5" y="-200.5" font-family="Helvetica,sans-Serif" font-size="10.00"> </text>
</a>
</g>
</g>
<!-- Node3&#45;&gt;Node5 -->
<g id="edge6" class="edge">
<title>Node3&#45;&gt;Node5</title>
<path fill="none" stroke="#404040" d="M167.57,-362.3C194.72,-339.3 241.57,-299.6 277.22,-269.4"/>
<polygon fill="none" stroke="#404040" points="277.33,-269.31 279.32,-262.38 286.48,-261.55 284.49,-268.49 277.33,-269.31"/>
<text text-anchor="middle" x="283.5" y="-327" font-family="Helvetica,sans-Serif" font-size="10.00"> +coef_a</text>
<text text-anchor="middle" x="283.5" y="-316" font-family="Helvetica,sans-Serif" font-size="10.00">+coef_b</text>
<text text-anchor="middle" x="283.5" y="-305" font-family="Helvetica,sans-Serif" font-size="10.00">+coef_c</text>
<text text-anchor="middle" x="283.5" y="-294" font-family="Helvetica,sans-Serif" font-size="10.00">+name</text>
<text text-anchor="middle" x="283.5" y="-283" font-family="Helvetica,sans-Serif" font-size="10.00">+unit</text>
</g>
<!-- Node4 -->
<g id="node4" class="node">
<title>Node4</title>
<g id="a_node4"><a xlink:title=" ">
<polygon fill="none" stroke="#bfbfbf" points="8.5,-353.5 8.5,-410.5 46.5,-410.5 46.5,-353.5 8.5,-353.5"/>
<text text-anchor="middle" x="27.5" y="-398.5" font-family="Helvetica,sans-Serif" font-size="10.00">bool</text>
<polyline fill="none" stroke="#bfbfbf" points="8.5,-391.5 46.5,-391.5 "/>
<text text-anchor="middle" x="27.5" y="-379.5" font-family="Helvetica,sans-Serif" font-size="10.00"> </text>
<polyline fill="none" stroke="#bfbfbf" points="8.5,-372.5 46.5,-372.5 "/>
<text text-anchor="middle" x="27.5" y="-360.5" font-family="Helvetica,sans-Serif" font-size="10.00"> </text>
</a>
</g>
</g>
<!-- Node4&#45;&gt;Node2 -->
<g id="edge3" class="edge">
<title>Node4&#45;&gt;Node2</title>
<path fill="none" stroke="#404040" d="M24.42,-353.15C22.95,-332.62 22.61,-304.19 28.5,-280 29.06,-277.7 29.74,-275.39 30.51,-273.08"/>
<polygon fill="none" stroke="#404040" points="30.58,-272.88 29.07,-265.83 34.99,-261.72 36.51,-268.77 30.58,-272.88"/>
<text text-anchor="middle" x="48.5" y="-310.5" font-family="Helvetica,sans-Serif" font-size="10.00"> +sense</text>
<text text-anchor="middle" x="48.5" y="-299.5" font-family="Helvetica,sans-Serif" font-size="10.00">+value</text>
</g>
<!-- Node5&#45;&gt;Node1 -->
<g id="edge5" class="edge">
<title>Node5&#45;&gt;Node1</title>
<path fill="none" stroke="#404040" d="M294.15,-193.23C263.91,-161.15 218.04,-112.47 185.25,-77.68"/>
<polygon fill="none" stroke="#404040" points="185.03,-77.44 178,-75.82 176.8,-68.71 183.82,-70.33 185.03,-77.44"/>
<text text-anchor="middle" x="283.5" y="-150.5" font-family="Helvetica,sans-Serif" font-size="10.00"> +a1</text>
<text text-anchor="middle" x="283.5" y="-139.5" font-family="Helvetica,sans-Serif" font-size="10.00">+a2</text>
<text text-anchor="middle" x="283.5" y="-128.5" font-family="Helvetica,sans-Serif" font-size="10.00">+a3</text>
<text text-anchor="middle" x="283.5" y="-117.5" font-family="Helvetica,sans-Serif" font-size="10.00">+a4</text>
<text text-anchor="middle" x="283.5" y="-106.5" font-family="Helvetica,sans-Serif" font-size="10.00">+a5</text>
</g>
<!-- Node6 -->
<g id="node6" class="node">
<title>Node6</title>
<g id="a_node6"><a xlink:title=" ">
<polygon fill="none" stroke="#bfbfbf" points="300.5,-353.5 300.5,-410.5 350.5,-410.5 350.5,-353.5 300.5,-353.5"/>
<text text-anchor="middle" x="325.5" y="-398.5" font-family="Helvetica,sans-Serif" font-size="10.00">uint8_t</text>
<polyline fill="none" stroke="#bfbfbf" points="300.5,-391.5 350.5,-391.5 "/>
<text text-anchor="middle" x="325.5" y="-379.5" font-family="Helvetica,sans-Serif" font-size="10.00"> </text>
<polyline fill="none" stroke="#bfbfbf" points="300.5,-372.5 350.5,-372.5 "/>
<text text-anchor="middle" x="325.5" y="-360.5" font-family="Helvetica,sans-Serif" font-size="10.00"> </text>
</a>
</g>
</g>
<!-- Node6&#45;&gt;Node5 -->
<g id="edge7" class="edge">
<title>Node6&#45;&gt;Node5</title>
<path fill="none" stroke="#404040" d="M325.5,-353.38C325.5,-331.25 325.5,-299.75 325.5,-273.92"/>
<polygon fill="none" stroke="#404040" points="325.5,-273.76 321.5,-267.76 325.5,-261.76 329.5,-267.76 325.5,-273.76"/>
<text text-anchor="middle" x="345" y="-305" font-family="Helvetica,sans-Serif" font-size="10.00"> +value</text>
</g>
</g>
</svg>
