<?xml version="1.0" encoding="UTF-8" standalone="no"?>
<!DOCTYPE svg PUBLIC "-//W3C//DTD SVG 1.1//EN"
 "http://www.w3.org/Graphics/SVG/1.1/DTD/svg11.dtd">
<!-- Generated by graphviz version 2.43.0 (0)
 -->
<!-- Title: signal_easel::aprs::PositionPacket Pages: 1 -->
<svg width="1189pt" height="909pt"
 viewBox="0.00 0.00 1189.00 909.00" xmlns="http://www.w3.org/2000/svg" xmlns:xlink="http://www.w3.org/1999/xlink">
<g id="graph0" class="graph" transform="scale(1 1) rotate(0) translate(4 905)">
<title>signal_easel::aprs::PositionPacket</title>
<!-- Node1 -->
<g id="node1" class="node">
<title>Node1</title>
<g id="a_node1"><a xlink:title=" ">
<polygon fill="#bfbfbf" stroke="black" points="400.5,-0.5 400.5,-68.5 504.5,-68.5 504.5,-0.5 400.5,-0.5"/>
<text text-anchor="start" x="408.5" y="-56.5" font-family="Helvetica,sans-Serif" font-size="10.00">signal_easel::aprs</text>
<text text-anchor="middle" x="452.5" y="-45.5" font-family="Helvetica,sans-Serif" font-size="10.00">::PositionPacket</text>
<polyline fill="none" stroke="black" points="400.5,-38.5 504.5,-38.5 "/>
<text text-anchor="middle" x="452.5" y="-26.5" font-family="Helvetica,sans-Serif" font-size="10.00"> </text>
<polyline fill="none" stroke="black" points="400.5,-19.5 504.5,-19.5 "/>
<text text-anchor="middle" x="452.5" y="-7.5" font-family="Helvetica,sans-Serif" font-size="10.00"> </text>
</a>
</g>
</g>
<!-- Node2 -->
<g id="node2" class="node">
<title>Node2</title>
<g id="a_node2"><a xlink:href="structsignal__easel_1_1aprs_1_1Packet.html" target="_top" xlink:title=" ">
<polygon fill="none" stroke="black" points="159.5,-595.5 159.5,-663.5 263.5,-663.5 263.5,-595.5 159.5,-595.5"/>
<text text-anchor="start" x="167.5" y="-651.5" font-family="Helvetica,sans-Serif" font-size="10.00">signal_easel::aprs</text>
<text text-anchor="middle" x="211.5" y="-640.5" font-family="Helvetica,sans-Serif" font-size="10.00">::Packet</text>
<polyline fill="none" stroke="black" points="159.5,-633.5 263.5,-633.5 "/>
<text text-anchor="middle" x="211.5" y="-621.5" font-family="Helvetica,sans-Serif" font-size="10.00"> </text>
<polyline fill="none" stroke="black" points="159.5,-614.5 263.5,-614.5 "/>
<text text-anchor="middle" x="211.5" y="-602.5" font-family="Helvetica,sans-Serif" font-size="10.00"> </text>
</a>
</g>
</g>
<!-- Node2&#45;&gt;Node1 -->
<g id="edge1" class="edge">
<title>Node2&#45;&gt;Node1</title>
<path fill="none" stroke="midnightblue" d="M207.54,-585.28C200.82,-485.25 198.32,-235.07 322.5,-87 341.92,-63.84 373.2,-51.03 400.21,-43.98"/>
<polygon fill="none" stroke="midnightblue" points="204.06,-585.6 208.27,-595.32 211.04,-585.1 204.06,-585.6"/>
</g>
<!-- Node3 -->
<g id="node3" class="node">
<title>Node3</title>
<g id="a_node3"><a xlink:title=" ">
<polygon fill="none" stroke="#bfbfbf" points="0,-843.5 0,-900.5 79,-900.5 79,-843.5 0,-843.5"/>
<text text-anchor="middle" x="39.5" y="-888.5" font-family="Helvetica,sans-Serif" font-size="10.00">SymbolTable</text>
<polyline fill="none" stroke="#bfbfbf" points="0,-881.5 79,-881.5 "/>
<text text-anchor="middle" x="39.5" y="-869.5" font-family="Helvetica,sans-Serif" font-size="10.00"> </text>
<polyline fill="none" stroke="#bfbfbf" points="0,-862.5 79,-862.5 "/>
<text text-anchor="middle" x="39.5" y="-850.5" font-family="Helvetica,sans-Serif" font-size="10.00"> </text>
</a>
</g>
</g>
<!-- Node3&#45;&gt;Node2 -->
<g id="edge2" class="edge">
<title>Node3&#45;&gt;Node2</title>
<path fill="none" stroke="#404040" d="M36.62,-843.41C35.2,-817.13 36.61,-777.34 53.5,-748 75.28,-710.17 114.63,-680.85 148.62,-660.96"/>
<polygon fill="none" stroke="#404040" points="148.99,-660.75 152.24,-654.31 159.43,-654.83 156.19,-661.27 148.99,-660.75"/>
<text text-anchor="middle" x="92.5" y="-784" font-family="Helvetica,sans-Serif" font-size="10.00"> +symbol_table</text>
</g>
<!-- Node4 -->
<g id="node4" class="node">
<title>Node4</title>
<g id="a_node4"><a xlink:title=" ">
<polygon fill="none" stroke="#bfbfbf" points="121.5,-843.5 121.5,-900.5 159.5,-900.5 159.5,-843.5 121.5,-843.5"/>
<text text-anchor="middle" x="140.5" y="-888.5" font-family="Helvetica,sans-Serif" font-size="10.00">char</text>
<polyline fill="none" stroke="#bfbfbf" points="121.5,-881.5 159.5,-881.5 "/>
<text text-anchor="middle" x="140.5" y="-869.5" font-family="Helvetica,sans-Serif" font-size="10.00"> </text>
<polyline fill="none" stroke="#bfbfbf" points="121.5,-862.5 159.5,-862.5 "/>
<text text-anchor="middle" x="140.5" y="-850.5" font-family="Helvetica,sans-Serif" font-size="10.00"> </text>
</a>
</g>
</g>
<!-- Node4&#45;&gt;Node2 -->
<g id="edge3" class="edge">
<title>Node4&#45;&gt;Node2</title>
<path fill="none" stroke="#404040" d="M136.63,-843.06C134.08,-817.75 132.64,-779.67 141.5,-748 148.92,-721.47 163.99,-694.85 178.25,-673.68"/>
<polygon fill="none" stroke="#404040" points="178.31,-673.6 178.45,-666.39 185.15,-663.75 185.02,-670.96 178.31,-673.6"/>
<text text-anchor="middle" x="165.5" y="-784" font-family="Helvetica,sans-Serif" font-size="10.00"> +symbol</text>
</g>
<!-- Node5 -->
<g id="node5" class="node">
<title>Node5</title>
<g id="a_node5"><a xlink:title=" ">
<polygon fill="none" stroke="#bfbfbf" points="557.5,-843.5 557.5,-900.5 607.5,-900.5 607.5,-843.5 557.5,-843.5"/>
<text text-anchor="middle" x="582.5" y="-888.5" font-family="Helvetica,sans-Serif" font-size="10.00">uint8_t</text>
<polyline fill="none" stroke="#bfbfbf" points="557.5,-881.5 607.5,-881.5 "/>
<text text-anchor="middle" x="582.5" y="-869.5" font-family="Helvetica,sans-Serif" font-size="10.00"> </text>
<polyline fill="none" stroke="#bfbfbf" points="557.5,-862.5 607.5,-862.5 "/>
<text text-anchor="middle" x="582.5" y="-850.5" font-family="Helvetica,sans-Serif" font-size="10.00"> </text>
</a>
</g>
</g>
<!-- Node5&#45;&gt;Node2 -->
<g id="edge4" class="edge">
<title>Node5&#45;&gt;Node2</title>
<path fill="none" stroke="#404040" d="M557.32,-871.85C514.7,-872.02 427.45,-866.75 370.5,-825 338.71,-801.69 350.26,-779.45 326.5,-748 306.01,-720.87 279.7,-693.56 257.41,-672.1"/>
<polygon fill="none" stroke="#404040" points="257.15,-671.85 250.05,-670.61 248.46,-663.58 255.56,-664.82 257.15,-671.85"/>
<text text-anchor="middle" x="416" y="-789.5" font-family="Helvetica,sans-Serif" font-size="10.00"> +destination_ssid</text>
<text text-anchor="middle" x="416" y="-778.5" font-family="Helvetica,sans-Serif" font-size="10.00">+source_ssid</text>
</g>
<!-- Node10 -->
<g id="node10" class="node">
<title>Node10</title>
<g id="a_node10"><a xlink:href="classsignal__easel_1_1ax25_1_1Frame.html" target="_top" xlink:title=" ">
<polygon fill="none" stroke="black" points="693,-138.5 693,-459.5 852,-459.5 852,-138.5 693,-138.5"/>
<text text-anchor="start" x="701" y="-447.5" font-family="Helvetica,sans-Serif" font-size="10.00">signal_easel::ax25</text>
<text text-anchor="middle" x="772.5" y="-436.5" font-family="Helvetica,sans-Serif" font-size="10.00">::Frame</text>
<polyline fill="none" stroke="black" points="693,-429.5 852,-429.5 "/>
<text text-anchor="middle" x="772.5" y="-417.5" font-family="Helvetica,sans-Serif" font-size="10.00"> </text>
<polyline fill="none" stroke="black" points="693,-410.5 852,-410.5 "/>
<text text-anchor="start" x="701" y="-398.5" font-family="Helvetica,sans-Serif" font-size="10.00">+ Frame()</text>
<text text-anchor="start" x="701" y="-387.5" font-family="Helvetica,sans-Serif" font-size="10.00">+ buildFrame()</text>
<text text-anchor="start" x="701" y="-376.5" font-family="Helvetica,sans-Serif" font-size="10.00">+ encodeFrame()</text>
<text text-anchor="start" x="701" y="-365.5" font-family="Helvetica,sans-Serif" font-size="10.00">+ isFrameValid()</text>
<text text-anchor="start" x="701" y="-354.5" font-family="Helvetica,sans-Serif" font-size="10.00">+ parseBitStream()</text>
<text text-anchor="start" x="701" y="-343.5" font-family="Helvetica,sans-Serif" font-size="10.00">+ setDestinationAddress()</text>
<text text-anchor="start" x="701" y="-332.5" font-family="Helvetica,sans-Serif" font-size="10.00">+ getDestinationAddress()</text>
<text text-anchor="start" x="701" y="-321.5" font-family="Helvetica,sans-Serif" font-size="10.00">+ setSourceAddress()</text>
<text text-anchor="start" x="701" y="-310.5" font-family="Helvetica,sans-Serif" font-size="10.00">+ getSourceAddress()</text>
<text text-anchor="start" x="701" y="-299.5" font-family="Helvetica,sans-Serif" font-size="10.00">+ addRepeaterAddress()</text>
<text text-anchor="start" x="701" y="-288.5" font-family="Helvetica,sans-Serif" font-size="10.00">+ getRepeaterAddresses()</text>
<text text-anchor="start" x="701" y="-277.5" font-family="Helvetica,sans-Serif" font-size="10.00">+ setInformation()</text>
<text text-anchor="start" x="701" y="-266.5" font-family="Helvetica,sans-Serif" font-size="10.00">+ getInformation()</text>
<text text-anchor="start" x="701" y="-255.5" font-family="Helvetica,sans-Serif" font-size="10.00">&#45; AddByteForFcs()</text>
<text text-anchor="start" x="701" y="-244.5" font-family="Helvetica,sans-Serif" font-size="10.00">&#45; addToBuildBuffer()</text>
<text text-anchor="start" x="701" y="-233.5" font-family="Helvetica,sans-Serif" font-size="10.00">&#45; calculateFcsOnBuildBuffer()</text>
<text text-anchor="start" x="701" y="-222.5" font-family="Helvetica,sans-Serif" font-size="10.00">* setDestinationAddress()</text>
<text text-anchor="start" x="701" y="-211.5" font-family="Helvetica,sans-Serif" font-size="10.00">* getDestinationAddress()</text>
<text text-anchor="start" x="701" y="-200.5" font-family="Helvetica,sans-Serif" font-size="10.00">* setSourceAddress()</text>
<text text-anchor="start" x="701" y="-189.5" font-family="Helvetica,sans-Serif" font-size="10.00">* getSourceAddress()</text>
<text text-anchor="start" x="701" y="-178.5" font-family="Helvetica,sans-Serif" font-size="10.00">* addRepeaterAddress()</text>
<text text-anchor="start" x="701" y="-167.5" font-family="Helvetica,sans-Serif" font-size="10.00">* getRepeaterAddresses()</text>
<text text-anchor="start" x="701" y="-156.5" font-family="Helvetica,sans-Serif" font-size="10.00">* setInformation()</text>
<text text-anchor="start" x="701" y="-145.5" font-family="Helvetica,sans-Serif" font-size="10.00">* getInformation()</text>
</a>
</g>
</g>
<!-- Node5&#45;&gt;Node10 -->
<g id="edge17" class="edge">
<title>Node5&#45;&gt;Node10</title>
<path fill="none" stroke="#404040" d="M581,-843.28C577.52,-772.47 570.69,-586.45 591.5,-529 611.08,-474.96 648.84,-423.85 684.83,-383.69"/>
<polygon fill="none" stroke="#404040" points="684.87,-383.64 685.95,-376.51 692.95,-374.77 691.87,-381.9 684.87,-383.64"/>
<text text-anchor="middle" x="605.5" y="-627" font-family="Helvetica,sans-Serif" font-size="10.00"> &#45;pid_</text>
</g>
<!-- Node12 -->
<g id="node12" class="node">
<title>Node12</title>
<g id="a_node12"><a xlink:href="classsignal__easel_1_1ax25_1_1Address.html" target="_top" xlink:title="AX.25 Address class. For encoding and decoding AX.25 addresses.">
<polygon fill="none" stroke="black" points="703,-529.5 703,-729.5 864,-729.5 864,-529.5 703,-529.5"/>
<text text-anchor="start" x="711" y="-717.5" font-family="Helvetica,sans-Serif" font-size="10.00">signal_easel::ax25</text>
<text text-anchor="middle" x="783.5" y="-706.5" font-family="Helvetica,sans-Serif" font-size="10.00">::Address</text>
<polyline fill="none" stroke="black" points="703,-699.5 864,-699.5 "/>
<text text-anchor="middle" x="783.5" y="-687.5" font-family="Helvetica,sans-Serif" font-size="10.00"> </text>
<polyline fill="none" stroke="black" points="703,-680.5 864,-680.5 "/>
<text text-anchor="start" x="711" y="-668.5" font-family="Helvetica,sans-Serif" font-size="10.00">+ Address()</text>
<text text-anchor="start" x="711" y="-657.5" font-family="Helvetica,sans-Serif" font-size="10.00">+ Address()</text>
<text text-anchor="start" x="711" y="-646.5" font-family="Helvetica,sans-Serif" font-size="10.00">+ Address()</text>
<text text-anchor="start" x="711" y="-635.5" font-family="Helvetica,sans-Serif" font-size="10.00">+ assertIsValid()</text>
<text text-anchor="start" x="711" y="-624.5" font-family="Helvetica,sans-Serif" font-size="10.00">+ decodeAddress()</text>
<text text-anchor="start" x="711" y="-613.5" font-family="Helvetica,sans-Serif" font-size="10.00">+ encodeAddress()</text>
<text text-anchor="start" x="711" y="-602.5" font-family="Helvetica,sans-Serif" font-size="10.00">+ getAddressString()</text>
<text text-anchor="start" x="711" y="-591.5" font-family="Helvetica,sans-Serif" font-size="10.00">+ getSsid()</text>
<text text-anchor="start" x="711" y="-580.5" font-family="Helvetica,sans-Serif" font-size="10.00">+ isAddressStringValid()</text>
<text text-anchor="start" x="711" y="-569.5" font-family="Helvetica,sans-Serif" font-size="10.00">+ isCommandOrResponse()</text>
<text text-anchor="start" x="711" y="-558.5" font-family="Helvetica,sans-Serif" font-size="10.00">and 8 more...</text>
<text text-anchor="start" x="711" y="-547.5" font-family="Helvetica,sans-Serif" font-size="10.00">&#45; assertAddressStringIsValid()</text>
<text text-anchor="start" x="711" y="-536.5" font-family="Helvetica,sans-Serif" font-size="10.00">&#45; assertSsidIsValid()</text>
</a>
</g>
</g>
<!-- Node5&#45;&gt;Node12 -->
<g id="edge14" class="edge">
<title>Node5&#45;&gt;Node12</title>
<path fill="none" stroke="#404040" d="M605.56,-843.41C627.56,-817.08 662.13,-775.72 694.98,-736.42"/>
<polygon fill="none" stroke="#404040" points="695.14,-736.23 695.92,-729.06 702.83,-727.02 702.06,-734.19 695.14,-736.23"/>
<text text-anchor="middle" x="698.5" y="-784" font-family="Helvetica,sans-Serif" font-size="10.00"> &#45;ssid_</text>
</g>
<!-- Node6 -->
<g id="node6" class="node">
<title>Node6</title>
<g id="a_node6"><a xlink:title=" ">
<polygon fill="none" stroke="#bfbfbf" points="314.5,-843.5 314.5,-900.5 358.5,-900.5 358.5,-843.5 314.5,-843.5"/>
<text text-anchor="middle" x="336.5" y="-888.5" font-family="Helvetica,sans-Serif" font-size="10.00">string</text>
<polyline fill="none" stroke="#bfbfbf" points="314.5,-881.5 358.5,-881.5 "/>
<text text-anchor="middle" x="336.5" y="-869.5" font-family="Helvetica,sans-Serif" font-size="10.00"> </text>
<polyline fill="none" stroke="#bfbfbf" points="314.5,-862.5 358.5,-862.5 "/>
<text text-anchor="middle" x="336.5" y="-850.5" font-family="Helvetica,sans-Serif" font-size="10.00"> </text>
</a>
</g>
</g>
<!-- Node6&#45;&gt;Node1 -->
<g id="edge9" class="edge">
<title>Node6&#45;&gt;Node1</title>
<path fill="none" stroke="#404040" d="M334.49,-843.45C327.94,-746.15 310.24,-409.86 355.5,-138 359.4,-114.57 357.04,-105.85 371.5,-87 376.8,-80.09 383.31,-73.86 390.31,-68.31"/>
<polygon fill="none" stroke="#404040" points="390.41,-68.24 392.9,-61.47 400.11,-61.17 397.62,-67.94 390.41,-68.24"/>
<text text-anchor="middle" x="356.5" y="-497.5" font-family="Helvetica,sans-Serif" font-size="10.00"> +comment</text>
<text text-anchor="middle" x="356.5" y="-486.5" font-family="Helvetica,sans-Serif" font-size="10.00">+time_code</text>
</g>
<!-- Node6&#45;&gt;Node2 -->
<g id="edge5" class="edge">
<title>Node6&#45;&gt;Node2</title>
<path fill="none" stroke="#404040" d="M314.03,-869.99C285.02,-867.33 235.53,-857.93 212.5,-825 182.11,-781.56 188.62,-718.24 198.2,-675.77"/>
<polygon fill="none" stroke="#404040" points="198.27,-675.51 195.79,-668.73 201.09,-663.84 203.57,-670.62 198.27,-675.51"/>
<text text-anchor="middle" x="267.5" y="-789.5" font-family="Helvetica,sans-Serif" font-size="10.00"> +destination_address</text>
<text text-anchor="middle" x="267.5" y="-778.5" font-family="Helvetica,sans-Serif" font-size="10.00">+source_address</text>
</g>
<!-- Node6&#45;&gt;Node12 -->
<g id="edge15" class="edge">
<title>Node6&#45;&gt;Node12</title>
<path fill="none" stroke="#404040" d="M358.74,-866.2C384.94,-859.81 429.01,-846.72 461.5,-825 500.2,-799.13 490.97,-769.02 532.5,-748 593.48,-717.13 626.02,-758.22 692.06,-729.78"/>
<polygon fill="none" stroke="#404040" points="692.12,-729.75 695.82,-723.56 702.96,-724.59 699.26,-730.78 692.12,-729.75"/>
<text text-anchor="middle" x="574.5" y="-784" font-family="Helvetica,sans-Serif" font-size="10.00"> &#45;address_string_</text>
</g>
<!-- Node7 -->
<g id="node7" class="node">
<title>Node7</title>
<g id="a_node7"><a xlink:title=" ">
<polygon fill="none" stroke="#bfbfbf" points="365,-270.5 365,-327.5 406,-327.5 406,-270.5 365,-270.5"/>
<text text-anchor="middle" x="385.5" y="-315.5" font-family="Helvetica,sans-Serif" font-size="10.00">Time</text>
<polyline fill="none" stroke="#bfbfbf" points="365,-308.5 406,-308.5 "/>
<text text-anchor="middle" x="385.5" y="-296.5" font-family="Helvetica,sans-Serif" font-size="10.00"> </text>
<polyline fill="none" stroke="#bfbfbf" points="365,-289.5 406,-289.5 "/>
<text text-anchor="middle" x="385.5" y="-277.5" font-family="Helvetica,sans-Serif" font-size="10.00"> </text>
</a>
</g>
</g>
<!-- Node7&#45;&gt;Node1 -->
<g id="edge6" class="edge">
<title>Node7&#45;&gt;Node1</title>
<path fill="none" stroke="#404040" d="M378.34,-270.3C369.01,-228.24 357.11,-146.85 386.5,-87 388.14,-83.65 390.12,-80.46 392.35,-77.42"/>
<polygon fill="none" stroke="#404040" points="392.41,-77.35 393.28,-70.2 400.22,-68.25 399.35,-75.41 392.41,-77.35"/>
<text text-anchor="middle" x="442.5" y="-101" font-family="Helvetica,sans-Serif" font-size="10.00"> +decoded_timestamp</text>
</g>
<!-- Node8 -->
<g id="node8" class="node">
<title>Node8</title>
<g id="a_node8"><a xlink:title=" ">
<polygon fill="none" stroke="#bfbfbf" points="501.5,-270.5 501.5,-327.5 539.5,-327.5 539.5,-270.5 501.5,-270.5"/>
<text text-anchor="middle" x="520.5" y="-315.5" font-family="Helvetica,sans-Serif" font-size="10.00">float</text>
<polyline fill="none" stroke="#bfbfbf" points="501.5,-308.5 539.5,-308.5 "/>
<text text-anchor="middle" x="520.5" y="-296.5" font-family="Helvetica,sans-Serif" font-size="10.00"> </text>
<polyline fill="none" stroke="#bfbfbf" points="501.5,-289.5 539.5,-289.5 "/>
<text text-anchor="middle" x="520.5" y="-277.5" font-family="Helvetica,sans-Serif" font-size="10.00"> </text>
</a>
</g>
</g>
<!-- Node8&#45;&gt;Node1 -->
<g id="edge7" class="edge">
<title>Node8&#45;&gt;Node1</title>
<path fill="none" stroke="#404040" d="M522.87,-270.32C525.3,-228.64 525.54,-148.13 498.5,-87 497.25,-84.17 495.78,-81.39 494.15,-78.67"/>
<polygon fill="none" stroke="#404040" points="494.01,-78.45 487.31,-75.77 487.21,-68.56 493.91,-71.24 494.01,-78.45"/>
<text text-anchor="middle" x="537" y="-112" font-family="Helvetica,sans-Serif" font-size="10.00"> +latitude</text>
<text text-anchor="middle" x="537" y="-101" font-family="Helvetica,sans-Serif" font-size="10.00">+longitude</text>
<text text-anchor="middle" x="537" y="-90" font-family="Helvetica,sans-Serif" font-size="10.00">+speed</text>
</g>
<!-- Node9 -->
<g id="node9" class="node">
<title>Node9</title>
<g id="a_node9"><a xlink:title=" ">
<polygon fill="none" stroke="#bfbfbf" points="584,-270.5 584,-327.5 613,-327.5 613,-270.5 584,-270.5"/>
<text text-anchor="middle" x="598.5" y="-315.5" font-family="Helvetica,sans-Serif" font-size="10.00">int</text>
<polyline fill="none" stroke="#bfbfbf" points="584,-308.5 613,-308.5 "/>
<text text-anchor="middle" x="598.5" y="-296.5" font-family="Helvetica,sans-Serif" font-size="10.00"> </text>
<polyline fill="none" stroke="#bfbfbf" points="584,-289.5 613,-289.5 "/>
<text text-anchor="middle" x="598.5" y="-277.5" font-family="Helvetica,sans-Serif" font-size="10.00"> </text>
</a>
</g>
</g>
<!-- Node9&#45;&gt;Node1 -->
<g id="edge8" class="edge">
<title>Node9&#45;&gt;Node1</title>
<path fill="none" stroke="#404040" d="M602.46,-270.21C607.09,-226.56 609.54,-141.32 568.5,-87 555.56,-69.88 535.68,-58.33 516.01,-50.59"/>
<polygon fill="none" stroke="#404040" points="515.8,-50.52 508.81,-52.26 504.51,-46.47 511.51,-44.73 515.8,-50.52"/>
<text text-anchor="middle" x="610" y="-106.5" font-family="Helvetica,sans-Serif" font-size="10.00"> +altitude</text>
<text text-anchor="middle" x="610" y="-95.5" font-family="Helvetica,sans-Serif" font-size="10.00">+course</text>
</g>
<!-- Node10&#45;&gt;Node1 -->
<g id="edge10" class="edge">
<title>Node10&#45;&gt;Node1</title>
<path fill="none" stroke="#404040" d="M692.92,-142.26C677.13,-121.5 658.99,-102.18 638.5,-87 603.15,-60.82 555.14,-47.94 516.75,-41.62"/>
<polygon fill="none" stroke="#404040" points="516.51,-41.58 509.98,-44.64 504.65,-39.78 511.18,-36.73 516.51,-41.58"/>
<text text-anchor="middle" x="693" y="-101" font-family="Helvetica,sans-Serif" font-size="10.00"> +frame</text>
</g>
<!-- Node11 -->
<g id="node11" class="node">
<title>Node11</title>
<g id="a_node11"><a xlink:title=" ">
<polygon fill="none" stroke="#bfbfbf" points="628.5,-601 628.5,-658 684.5,-658 684.5,-601 628.5,-601"/>
<text text-anchor="middle" x="656.5" y="-646" font-family="Helvetica,sans-Serif" font-size="10.00">uint16_t</text>
<polyline fill="none" stroke="#bfbfbf" points="628.5,-639 684.5,-639 "/>
<text text-anchor="middle" x="656.5" y="-627" font-family="Helvetica,sans-Serif" font-size="10.00"> </text>
<polyline fill="none" stroke="#bfbfbf" points="628.5,-620 684.5,-620 "/>
<text text-anchor="middle" x="656.5" y="-608" font-family="Helvetica,sans-Serif" font-size="10.00"> </text>
</a>
</g>
</g>
<!-- Node11&#45;&gt;Node10 -->
<g id="edge11" class="edge">
<title>Node11&#45;&gt;Node10</title>
<path fill="none" stroke="#404040" d="M666.29,-600.78C676.75,-571.15 694.25,-521.61 712.05,-471.19"/>
<polygon fill="none" stroke="#404040" points="712.1,-471.06 710.32,-464.07 716.09,-459.74 717.87,-466.73 712.1,-471.06"/>
<text text-anchor="middle" x="721" y="-492" font-family="Helvetica,sans-Serif" font-size="10.00"> &#45;fcs_</text>
</g>
<!-- Node12&#45;&gt;Node10 -->
<g id="edge12" class="edge">
<title>Node12&#45;&gt;Node10</title>
<path fill="none" stroke="#404040" d="M774.5,-529.49C774.11,-523.24 773.77,-517.03 773.5,-511 772.93,-498.25 772.49,-485.07 772.17,-471.8"/>
<polygon fill="none" stroke="#404040" points="772.16,-471.6 768.03,-465.69 771.9,-459.6 776.03,-465.51 772.16,-471.6"/>
<text text-anchor="start" x="773.5" y="-503" font-family="Helvetica,sans-Serif" font-size="10.00"> &#45;destination_address</text>
<text text-anchor="middle" x="826.5" y="-492" font-family="Helvetica,sans-Serif" font-size="10.00">_</text>
<text text-anchor="middle" x="826.5" y="-481" font-family="Helvetica,sans-Serif" font-size="10.00">&#45;source_address_</text>
</g>
<!-- Node13 -->
<g id="node13" class="node">
<title>Node13</title>
<g id="a_node13"><a xlink:title=" ">
<polygon fill="none" stroke="#bfbfbf" points="764.5,-843.5 764.5,-900.5 802.5,-900.5 802.5,-843.5 764.5,-843.5"/>
<text text-anchor="middle" x="783.5" y="-888.5" font-family="Helvetica,sans-Serif" font-size="10.00">bool</text>
<polyline fill="none" stroke="#bfbfbf" points="764.5,-881.5 802.5,-881.5 "/>
<text text-anchor="middle" x="783.5" y="-869.5" font-family="Helvetica,sans-Serif" font-size="10.00"> </text>
<polyline fill="none" stroke="#bfbfbf" points="764.5,-862.5 802.5,-862.5 "/>
<text text-anchor="middle" x="783.5" y="-850.5" font-family="Helvetica,sans-Serif" font-size="10.00"> </text>
</a>
</g>
</g>
<!-- Node13&#45;&gt;Node12 -->
<g id="edge13" class="edge">
<title>Node13&#45;&gt;Node12</title>
<path fill="none" stroke="#404040" d="M783.5,-843.41C783.5,-818.31 783.5,-779.53 783.5,-741.91"/>
<polygon fill="none" stroke="#404040" points="783.5,-741.76 779.5,-735.76 783.5,-729.76 787.5,-735.76 783.5,-741.76"/>
<text text-anchor="start" x="783.5" y="-817" font-family="Helvetica,sans-Serif" font-size="10.00"> &#45;command_or_response</text>
<text text-anchor="middle" x="844" y="-806" font-family="Helvetica,sans-Serif" font-size="10.00">_</text>
<text text-anchor="start" x="783.5" y="-795" font-family="Helvetica,sans-Serif" font-size="10.00">&#45;is_last_address</text>
<text text-anchor="middle" x="844" y="-784" font-family="Helvetica,sans-Serif" font-size="10.00">_</text>
<text text-anchor="start" x="783.5" y="-773" font-family="Helvetica,sans-Serif" font-size="10.00">&#45;reserve_bit</text>
<text text-anchor="middle" x="844" y="-762" font-family="Helvetica,sans-Serif" font-size="10.00">_1_</text>
<text text-anchor="middle" x="844" y="-751" font-family="Helvetica,sans-Serif" font-size="10.00">&#45;reserve_bit_2_</text>
</g>
<!-- Node14 -->
<g id="node14" class="node">
<title>Node14</title>
<g id="a_node14"><a xlink:title=" ">
<polygon fill="none" stroke="#bfbfbf" points="882,-601 882,-658 921,-658 921,-601 882,-601"/>
<text text-anchor="middle" x="901.5" y="-646" font-family="Helvetica,sans-Serif" font-size="10.00">Type</text>
<polyline fill="none" stroke="#bfbfbf" points="882,-639 921,-639 "/>
<text text-anchor="middle" x="901.5" y="-627" font-family="Helvetica,sans-Serif" font-size="10.00"> </text>
<polyline fill="none" stroke="#bfbfbf" points="882,-620 921,-620 "/>
<text text-anchor="middle" x="901.5" y="-608" font-family="Helvetica,sans-Serif" font-size="10.00"> </text>
</a>
</g>
</g>
<!-- Node14&#45;&gt;Node10 -->
<g id="edge16" class="edge">
<title>Node14&#45;&gt;Node10</title>
<path fill="none" stroke="#404040" d="M900.71,-600.8C899.09,-570 894.21,-519.15 879.5,-478 873.63,-461.59 866.17,-445.02 857.92,-428.95"/>
<polygon fill="none" stroke="#404040" points="857.69,-428.53 851.35,-425.09 852.09,-417.91 858.43,-421.35 857.69,-428.53"/>
<text text-anchor="middle" x="905.5" y="-492" font-family="Helvetica,sans-Serif" font-size="10.00"> &#45;type_</text>
</g>
<!-- Node15 -->
<g id="node15" class="node">
<title>Node15</title>
<g id="a_node15"><a xlink:title=" ">
<polygon fill="none" stroke="#bfbfbf" points="939.5,-601 939.5,-658 1043.5,-658 1043.5,-601 939.5,-601"/>
<text text-anchor="middle" x="991.5" y="-646" font-family="Helvetica,sans-Serif" font-size="10.00">vector&lt; uint8_t &gt;</text>
<polyline fill="none" stroke="#bfbfbf" points="939.5,-639 1043.5,-639 "/>
<text text-anchor="middle" x="991.5" y="-627" font-family="Helvetica,sans-Serif" font-size="10.00"> </text>
<polyline fill="none" stroke="#bfbfbf" points="939.5,-620 1043.5,-620 "/>
<text text-anchor="middle" x="991.5" y="-608" font-family="Helvetica,sans-Serif" font-size="10.00"> </text>
</a>
</g>
</g>
<!-- Node15&#45;&gt;Node10 -->
<g id="edge18" class="edge">
<title>Node15&#45;&gt;Node10</title>
<path fill="none" stroke="#404040" d="M982.46,-600.89C971.61,-569.73 951.69,-518.14 926.5,-478 907.55,-447.81 883.64,-417.53 860.35,-390.73"/>
<polygon fill="none" stroke="#404040" points="860.07,-390.41 853.1,-388.55 852.14,-381.4 859.11,-383.26 860.07,-390.41"/>
<text text-anchor="middle" x="978.5" y="-497.5" font-family="Helvetica,sans-Serif" font-size="10.00"> &#45;build_buffer_</text>
<text text-anchor="middle" x="978.5" y="-486.5" font-family="Helvetica,sans-Serif" font-size="10.00">&#45;information_</text>
</g>
<!-- Node16 -->
<g id="node16" class="node">
<title>Node16</title>
<g id="a_node16"><a xlink:title=" ">
<polygon fill="none" stroke="#bfbfbf" points="1062,-595.5 1062,-663.5 1181,-663.5 1181,-595.5 1062,-595.5"/>
<text text-anchor="start" x="1070" y="-651.5" font-family="Helvetica,sans-Serif" font-size="10.00">vector&lt; signal_easel</text>
<text text-anchor="middle" x="1121.5" y="-640.5" font-family="Helvetica,sans-Serif" font-size="10.00">::ax25::Address &gt;</text>
<polyline fill="none" stroke="#bfbfbf" points="1062,-633.5 1181,-633.5 "/>
<text text-anchor="middle" x="1121.5" y="-621.5" font-family="Helvetica,sans-Serif" font-size="10.00"> </text>
<polyline fill="none" stroke="#bfbfbf" points="1062,-614.5 1181,-614.5 "/>
<text text-anchor="middle" x="1121.5" y="-602.5" font-family="Helvetica,sans-Serif" font-size="10.00"> </text>
</a>
</g>
</g>
<!-- Node16&#45;&gt;Node10 -->
<g id="edge19" class="edge">
<title>Node16&#45;&gt;Node10</title>
<path fill="none" stroke="#404040" d="M1103.04,-595.31C1084.16,-563.12 1052.67,-514.01 1017.5,-478 971.29,-430.68 911.33,-386.88 862.3,-354.57"/>
<polygon fill="none" stroke="#404040" points="862.05,-354.42 854.84,-354.49 852.01,-347.86 859.22,-347.79 862.05,-354.42"/>
<text text-anchor="middle" x="1098" y="-492" font-family="Helvetica,sans-Serif" font-size="10.00"> &#45;repeater_addresses_</text>
</g>
</g>
</svg>
