<?xml version="1.0" encoding="UTF-8" standalone="no"?>
<!DOCTYPE svg PUBLIC "-//W3C//DTD SVG 1.1//EN"
 "http://www.w3.org/Graphics/SVG/1.1/DTD/svg11.dtd">
<!-- Generated by graphviz version 2.43.0 (0)
 -->
<!-- Title: signal_easel::aprs::Receiver::Stats Pages: 1 -->
<svg width="199pt" height="314pt"
 viewBox="0.00 0.00 199.00 314.00" xmlns="http://www.w3.org/2000/svg" xmlns:xlink="http://www.w3.org/1999/xlink">
<g id="graph0" class="graph" transform="scale(1 1) rotate(0) translate(4 310)">
<title>signal_easel::aprs::Receiver::Stats</title>
<!-- Node1 -->
<g id="node1" class="node">
<title>Node1</title>
<g id="a_node1"><a xlink:title=" ">
<polygon fill="#bfbfbf" stroke="black" points="0,-0.5 0,-68.5 104,-68.5 104,-0.5 0,-0.5"/>
<text text-anchor="start" x="8" y="-56.5" font-family="Helvetica,sans-Serif" font-size="10.00">signal_easel::aprs</text>
<text text-anchor="middle" x="52" y="-45.5" font-family="Helvetica,sans-Serif" font-size="10.00">::Receiver::Stats</text>
<polyline fill="none" stroke="black" points="0,-38.5 104,-38.5 "/>
<text text-anchor="middle" x="52" y="-26.5" font-family="Helvetica,sans-Serif" font-size="10.00"> </text>
<polyline fill="none" stroke="black" points="0,-19.5 104,-19.5 "/>
<text text-anchor="middle" x="52" y="-7.5" font-family="Helvetica,sans-Serif" font-size="10.00"> </text>
</a>
</g>
</g>
<!-- Node2 -->
<g id="node2" class="node">
<title>Node2</title>
<g id="a_node2"><a xlink:title=" ">
<polygon fill="none" stroke="#bfbfbf" points="24,-248.5 24,-305.5 80,-305.5 80,-248.5 24,-248.5"/>
<text text-anchor="middle" x="52" y="-293.5" font-family="Helvetica,sans-Serif" font-size="10.00">uint32_t</text>
<polyline fill="none" stroke="#bfbfbf" points="24,-286.5 80,-286.5 "/>
<text text-anchor="middle" x="52" y="-274.5" font-family="Helvetica,sans-Serif" font-size="10.00"> </text>
<polyline fill="none" stroke="#bfbfbf" points="24,-267.5 80,-267.5 "/>
<text text-anchor="middle" x="52" y="-255.5" font-family="Helvetica,sans-Serif" font-size="10.00"> </text>
</a>
</g>
</g>
<!-- Node2&#45;&gt;Node1 -->
<g id="edge1" class="edge">
<title>Node2&#45;&gt;Node1</title>
<path fill="none" stroke="#404040" d="M52,-248.41C52,-207.44 52,-130.04 52,-80.71"/>
<polygon fill="none" stroke="#404040" points="52,-80.51 48,-74.51 52,-68.51 56,-74.51 52,-80.51"/>
<text text-anchor="start" x="52" y="-222" font-family="Helvetica,sans-Serif" font-size="10.00"> +current_message_packets</text>
<text text-anchor="middle" x="121.5" y="-211" font-family="Helvetica,sans-Serif" font-size="10.00">_in_queue</text>
<text text-anchor="start" x="52" y="-200" font-family="Helvetica,sans-Serif" font-size="10.00">+current_other_packets</text>
<text text-anchor="middle" x="121.5" y="-189" font-family="Helvetica,sans-Serif" font-size="10.00">_in_queue</text>
<text text-anchor="start" x="52" y="-178" font-family="Helvetica,sans-Serif" font-size="10.00">+current_position_packets</text>
<text text-anchor="middle" x="121.5" y="-167" font-family="Helvetica,sans-Serif" font-size="10.00">_in_queue</text>
<text text-anchor="start" x="52" y="-156" font-family="Helvetica,sans-Serif" font-size="10.00">+num_message_packets</text>
<text text-anchor="middle" x="121.5" y="-145" font-family="Helvetica,sans-Serif" font-size="10.00">_failed</text>
<text text-anchor="start" x="52" y="-134" font-family="Helvetica,sans-Serif" font-size="10.00">+num_position_packets</text>
<text text-anchor="middle" x="121.5" y="-123" font-family="Helvetica,sans-Serif" font-size="10.00">_failed</text>
<text text-anchor="middle" x="121.5" y="-112" font-family="Helvetica,sans-Serif" font-size="10.00">+total_message_packets</text>
<text text-anchor="middle" x="121.5" y="-101" font-family="Helvetica,sans-Serif" font-size="10.00">+total_other_packets</text>
<text text-anchor="middle" x="121.5" y="-90" font-family="Helvetica,sans-Serif" font-size="10.00">+total_position_packets</text>
</g>
</g>
</svg>
