<?xml version="1.0" encoding="UTF-8" standalone="no"?>
<!DOCTYPE svg PUBLIC "-//W3C//DTD SVG 1.1//EN"
 "http://www.w3.org/Graphics/SVG/1.1/DTD/svg11.dtd">
<!-- Generated by graphviz version 2.43.0 (0)
 -->
<!-- Title: signal_easel::afsk::Settings Pages: 1 -->
<svg width="429pt" height="309pt"
 viewBox="0.00 0.00 429.00 309.00" xmlns="http://www.w3.org/2000/svg" xmlns:xlink="http://www.w3.org/1999/xlink">
<g id="graph0" class="graph" transform="scale(1 1) rotate(0) translate(4 305)">
<title>signal_easel::afsk::Settings</title>
<!-- Node1 -->
<g id="node1" class="node">
<title>Node1</title>
<g id="a_node1"><a xlink:title="Settings for AFSK modulation/demodulation.">
<polygon fill="#bfbfbf" stroke="black" points="169,-0.5 169,-68.5 273,-68.5 273,-0.5 169,-0.5"/>
<text text-anchor="start" x="177" y="-56.5" font-family="Helvetica,sans-Serif" font-size="10.00">signal_easel::afsk</text>
<text text-anchor="middle" x="221" y="-45.5" font-family="Helvetica,sans-Serif" font-size="10.00">::Settings</text>
<polyline fill="none" stroke="black" points="169,-38.5 273,-38.5 "/>
<text text-anchor="middle" x="221" y="-26.5" font-family="Helvetica,sans-Serif" font-size="10.00"> </text>
<polyline fill="none" stroke="black" points="169,-19.5 273,-19.5 "/>
<text text-anchor="middle" x="221" y="-7.5" font-family="Helvetica,sans-Serif" font-size="10.00"> </text>
</a>
</g>
</g>
<!-- Node2 -->
<g id="node2" class="node">
<title>Node2</title>
<g id="a_node2"><a xlink:href="structsignal__easel_1_1Settings.html" target="_top" xlink:title="The universal settings for MWAV.">
<polygon fill="none" stroke="black" points="42.5,-116.5 42.5,-173.5 165.5,-173.5 165.5,-116.5 42.5,-116.5"/>
<text text-anchor="middle" x="104" y="-161.5" font-family="Helvetica,sans-Serif" font-size="10.00">signal_easel::Settings</text>
<polyline fill="none" stroke="black" points="42.5,-154.5 165.5,-154.5 "/>
<text text-anchor="middle" x="104" y="-142.5" font-family="Helvetica,sans-Serif" font-size="10.00"> </text>
<polyline fill="none" stroke="black" points="42.5,-135.5 165.5,-135.5 "/>
<text text-anchor="middle" x="104" y="-123.5" font-family="Helvetica,sans-Serif" font-size="10.00"> </text>
</a>
</g>
</g>
<!-- Node2&#45;&gt;Node1 -->
<g id="edge1" class="edge">
<title>Node2&#45;&gt;Node1</title>
<path fill="none" stroke="midnightblue" d="M141.43,-109.29C155.52,-96.23 171.48,-81.42 185.39,-68.52"/>
<polygon fill="none" stroke="midnightblue" points="138.78,-106.97 133.83,-116.34 143.54,-112.11 138.78,-106.97"/>
</g>
<!-- Node3 -->
<g id="node3" class="node">
<title>Node3</title>
<g id="a_node3"><a xlink:title=" ">
<polygon fill="none" stroke="black" points="0,-243.5 0,-300.5 44,-300.5 44,-243.5 0,-243.5"/>
<text text-anchor="middle" x="22" y="-288.5" font-family="Helvetica,sans-Serif" font-size="10.00">string</text>
<polyline fill="none" stroke="black" points="0,-281.5 44,-281.5 "/>
<text text-anchor="middle" x="22" y="-269.5" font-family="Helvetica,sans-Serif" font-size="10.00"> </text>
<polyline fill="none" stroke="black" points="0,-262.5 44,-262.5 "/>
<text text-anchor="middle" x="22" y="-250.5" font-family="Helvetica,sans-Serif" font-size="10.00"> </text>
</a>
</g>
</g>
<!-- Node3&#45;&gt;Node2 -->
<g id="edge2" class="edge">
<title>Node3&#45;&gt;Node2</title>
<path fill="none" stroke="#404040" d="M25.73,-243.22C28.9,-227.19 34.66,-207.25 45,-192 47.33,-188.56 50,-185.27 52.89,-182.13"/>
<polygon fill="none" stroke="#404040" points="52.91,-182.11 54.41,-175.06 61.49,-173.73 59.99,-180.78 52.91,-182.11"/>
<text text-anchor="middle" x="72.5" y="-206" font-family="Helvetica,sans-Serif" font-size="10.00"> +call_sign</text>
</g>
<!-- Node4 -->
<g id="node4" class="node">
<title>Node4</title>
<g id="a_node4"><a xlink:title=" ">
<polygon fill="none" stroke="black" points="62.5,-243.5 62.5,-300.5 145.5,-300.5 145.5,-243.5 62.5,-243.5"/>
<text text-anchor="middle" x="104" y="-288.5" font-family="Helvetica,sans-Serif" font-size="10.00">CallSignMode</text>
<polyline fill="none" stroke="black" points="62.5,-281.5 145.5,-281.5 "/>
<text text-anchor="middle" x="104" y="-269.5" font-family="Helvetica,sans-Serif" font-size="10.00"> </text>
<polyline fill="none" stroke="black" points="62.5,-262.5 145.5,-262.5 "/>
<text text-anchor="middle" x="104" y="-250.5" font-family="Helvetica,sans-Serif" font-size="10.00"> </text>
</a>
</g>
</g>
<!-- Node4&#45;&gt;Node2 -->
<g id="edge3" class="edge">
<title>Node4&#45;&gt;Node2</title>
<path fill="none" stroke="#404040" d="M104,-243.26C104,-226.35 104,-204.46 104,-185.73"/>
<polygon fill="none" stroke="#404040" points="104,-185.66 100,-179.66 104,-173.66 108,-179.66 104,-185.66"/>
<text text-anchor="middle" x="148" y="-206" font-family="Helvetica,sans-Serif" font-size="10.00"> +call_sign_mode</text>
</g>
<!-- Node5 -->
<g id="node5" class="node">
<title>Node5</title>
<g id="a_node5"><a xlink:title=" ">
<polygon fill="none" stroke="black" points="190,-243.5 190,-300.5 240,-300.5 240,-243.5 190,-243.5"/>
<text text-anchor="middle" x="215" y="-288.5" font-family="Helvetica,sans-Serif" font-size="10.00">double</text>
<polyline fill="none" stroke="black" points="190,-281.5 240,-281.5 "/>
<text text-anchor="middle" x="215" y="-269.5" font-family="Helvetica,sans-Serif" font-size="10.00"> </text>
<polyline fill="none" stroke="black" points="190,-262.5 240,-262.5 "/>
<text text-anchor="middle" x="215" y="-250.5" font-family="Helvetica,sans-Serif" font-size="10.00"> </text>
</a>
</g>
</g>
<!-- Node5&#45;&gt;Node2 -->
<g id="edge4" class="edge">
<title>Node5&#45;&gt;Node2</title>
<path fill="none" stroke="#404040" d="M212.8,-243.24C210.25,-226.82 204.77,-206.47 193,-192 188.18,-186.07 182.38,-180.81 176.1,-176.18"/>
<polygon fill="none" stroke="#404040" points="175.88,-176.04 168.67,-176.06 165.88,-169.41 173.09,-169.39 175.88,-176.04"/>
<text text-anchor="middle" x="251" y="-217" font-family="Helvetica,sans-Serif" font-size="10.00"> +amplitude</text>
<text text-anchor="start" x="208" y="-206" font-family="Helvetica,sans-Serif" font-size="10.00">+call_sign_pause</text>
<text text-anchor="middle" x="251" y="-195" font-family="Helvetica,sans-Serif" font-size="10.00">_seconds</text>
</g>
<!-- Node6 -->
<g id="node6" class="node">
<title>Node6</title>
<g id="a_node6"><a xlink:title=" ">
<polygon fill="none" stroke="black" points="184,-116.5 184,-173.5 258,-173.5 258,-116.5 184,-116.5"/>
<text text-anchor="middle" x="221" y="-161.5" font-family="Helvetica,sans-Serif" font-size="10.00">BitEncoding</text>
<polyline fill="none" stroke="black" points="184,-154.5 258,-154.5 "/>
<text text-anchor="middle" x="221" y="-142.5" font-family="Helvetica,sans-Serif" font-size="10.00"> </text>
<polyline fill="none" stroke="black" points="184,-135.5 258,-135.5 "/>
<text text-anchor="middle" x="221" y="-123.5" font-family="Helvetica,sans-Serif" font-size="10.00"> </text>
</a>
</g>
</g>
<!-- Node6&#45;&gt;Node1 -->
<g id="edge5" class="edge">
<title>Node6&#45;&gt;Node1</title>
<path fill="none" stroke="#404040" d="M221,-116.34C221,-105.53 221,-92.85 221,-80.77"/>
<polygon fill="none" stroke="#404040" points="221,-80.52 217,-74.52 221,-68.52 225,-74.52 221,-80.52"/>
<text text-anchor="middle" x="258" y="-90" font-family="Helvetica,sans-Serif" font-size="10.00"> +bit_encoding</text>
</g>
<!-- Node7 -->
<g id="node7" class="node">
<title>Node7</title>
<g id="a_node7"><a xlink:title=" ">
<polygon fill="none" stroke="black" points="299,-116.5 299,-173.5 337,-173.5 337,-116.5 299,-116.5"/>
<text text-anchor="middle" x="318" y="-161.5" font-family="Helvetica,sans-Serif" font-size="10.00">bool</text>
<polyline fill="none" stroke="black" points="299,-154.5 337,-154.5 "/>
<text text-anchor="middle" x="318" y="-142.5" font-family="Helvetica,sans-Serif" font-size="10.00"> </text>
<polyline fill="none" stroke="black" points="299,-135.5 337,-135.5 "/>
<text text-anchor="middle" x="318" y="-123.5" font-family="Helvetica,sans-Serif" font-size="10.00"> </text>
</a>
</g>
</g>
<!-- Node7&#45;&gt;Node1 -->
<g id="edge6" class="edge">
<title>Node7&#45;&gt;Node1</title>
<path fill="none" stroke="#404040" d="M311.08,-116.44C307.66,-106.47 302.77,-95.57 296,-87 292.12,-82.09 287.65,-77.47 282.86,-73.16"/>
<polygon fill="none" stroke="#404040" points="282.57,-72.92 275.39,-72.18 273.32,-65.27 280.49,-66.02 282.57,-72.92"/>
<text text-anchor="middle" x="361.5" y="-90" font-family="Helvetica,sans-Serif" font-size="10.00"> +include_ascii_padding</text>
</g>
</g>
</svg>
