<?xml version="1.0" encoding="UTF-8" standalone="no"?>
<!DOCTYPE svg PUBLIC "-//W3C//DTD SVG 1.1//EN"
 "http://www.w3.org/Graphics/SVG/1.1/DTD/svg11.dtd">
<!-- Generated by graphviz version 2.43.0 (0)
 -->
<!-- Title: signal_easel::aprs::Packet Pages: 1 -->
<svg width="408pt" height="193pt"
 viewBox="0.00 0.00 408.00 193.00" xmlns="http://www.w3.org/2000/svg" xmlns:xlink="http://www.w3.org/1999/xlink">
<g id="graph0" class="graph" transform="scale(1 1) rotate(0) translate(4 189)">
<title>signal_easel::aprs::Packet</title>
<!-- Node1 -->
<g id="node1" class="node">
<title>Node1</title>
<g id="a_node1"><a xlink:title="The base APRS packet structure.">
<polygon fill="#bfbfbf" stroke="black" points="160,-0.5 160,-68.5 264,-68.5 264,-0.5 160,-0.5"/>
<text text-anchor="start" x="168" y="-56.5" font-family="Helvetica,sans-Serif" font-size="10.00">signal_easel::aprs</text>
<text text-anchor="middle" x="212" y="-45.5" font-family="Helvetica,sans-Serif" font-size="10.00">::Packet</text>
<polyline fill="none" stroke="black" points="160,-38.5 264,-38.5 "/>
<text text-anchor="middle" x="212" y="-26.5" font-family="Helvetica,sans-Serif" font-size="10.00"> </text>
<polyline fill="none" stroke="black" points="160,-19.5 264,-19.5 "/>
<text text-anchor="middle" x="212" y="-7.5" font-family="Helvetica,sans-Serif" font-size="10.00"> </text>
</a>
</g>
</g>
<!-- Node2 -->
<g id="node2" class="node">
<title>Node2</title>
<g id="a_node2"><a xlink:title=" ">
<polygon fill="none" stroke="black" points="0,-127.5 0,-184.5 44,-184.5 44,-127.5 0,-127.5"/>
<text text-anchor="middle" x="22" y="-172.5" font-family="Helvetica,sans-Serif" font-size="10.00">string</text>
<polyline fill="none" stroke="black" points="0,-165.5 44,-165.5 "/>
<text text-anchor="middle" x="22" y="-153.5" font-family="Helvetica,sans-Serif" font-size="10.00"> </text>
<polyline fill="none" stroke="black" points="0,-146.5 44,-146.5 "/>
<text text-anchor="middle" x="22" y="-134.5" font-family="Helvetica,sans-Serif" font-size="10.00"> </text>
</a>
</g>
</g>
<!-- Node2&#45;&gt;Node1 -->
<g id="edge1" class="edge">
<title>Node2&#45;&gt;Node1</title>
<path fill="none" stroke="#404040" d="M21.3,-127.5C22.39,-113.76 26.03,-97.81 36,-87 64.42,-56.16 110.2,-43.42 147.95,-38.32"/>
<polygon fill="none" stroke="#404040" points="147.97,-38.32 153.46,-33.65 159.89,-36.92 154.39,-41.59 147.97,-38.32"/>
<text text-anchor="middle" x="91" y="-101" font-family="Helvetica,sans-Serif" font-size="10.00"> +destination_address</text>
<text text-anchor="middle" x="91" y="-90" font-family="Helvetica,sans-Serif" font-size="10.00">+source_address</text>
</g>
<!-- Node3 -->
<g id="node3" class="node">
<title>Node3</title>
<g id="a_node3"><a xlink:title=" ">
<polygon fill="none" stroke="black" points="130,-127.5 130,-184.5 180,-184.5 180,-127.5 130,-127.5"/>
<text text-anchor="middle" x="155" y="-172.5" font-family="Helvetica,sans-Serif" font-size="10.00">uint8_t</text>
<polyline fill="none" stroke="black" points="130,-165.5 180,-165.5 "/>
<text text-anchor="middle" x="155" y="-153.5" font-family="Helvetica,sans-Serif" font-size="10.00"> </text>
<polyline fill="none" stroke="black" points="130,-146.5 180,-146.5 "/>
<text text-anchor="middle" x="155" y="-134.5" font-family="Helvetica,sans-Serif" font-size="10.00"> </text>
</a>
</g>
</g>
<!-- Node3&#45;&gt;Node1 -->
<g id="edge2" class="edge">
<title>Node3&#45;&gt;Node1</title>
<path fill="none" stroke="#404040" d="M150.55,-127.45C149.67,-114.63 150.4,-99.5 156,-87 157.35,-84 158.96,-81.09 160.78,-78.29"/>
<polygon fill="none" stroke="#404040" points="160.86,-78.17 161.32,-70.98 168.13,-68.63 167.68,-75.82 160.86,-78.17"/>
<text text-anchor="middle" x="201.5" y="-101" font-family="Helvetica,sans-Serif" font-size="10.00"> +destination_ssid</text>
<text text-anchor="middle" x="201.5" y="-90" font-family="Helvetica,sans-Serif" font-size="10.00">+source_ssid</text>
</g>
<!-- Node4 -->
<g id="node4" class="node">
<title>Node4</title>
<g id="a_node4"><a xlink:title=" ">
<polygon fill="none" stroke="black" points="229.5,-127.5 229.5,-184.5 308.5,-184.5 308.5,-127.5 229.5,-127.5"/>
<text text-anchor="middle" x="269" y="-172.5" font-family="Helvetica,sans-Serif" font-size="10.00">SymbolTable</text>
<polyline fill="none" stroke="black" points="229.5,-165.5 308.5,-165.5 "/>
<text text-anchor="middle" x="269" y="-153.5" font-family="Helvetica,sans-Serif" font-size="10.00"> </text>
<polyline fill="none" stroke="black" points="229.5,-146.5 308.5,-146.5 "/>
<text text-anchor="middle" x="269" y="-134.5" font-family="Helvetica,sans-Serif" font-size="10.00"> </text>
</a>
</g>
</g>
<!-- Node4&#45;&gt;Node1 -->
<g id="edge3" class="edge">
<title>Node4&#45;&gt;Node1</title>
<path fill="none" stroke="#404040" d="M261.94,-127.17C258.26,-114.58 253.22,-99.71 247,-87 245.74,-84.42 244.36,-81.82 242.9,-79.23"/>
<polygon fill="none" stroke="#404040" points="242.78,-79.02 236.26,-75.95 236.58,-68.75 243.11,-71.82 242.78,-79.02"/>
<text text-anchor="middle" x="294" y="-95.5" font-family="Helvetica,sans-Serif" font-size="10.00"> +symbol_table</text>
</g>
<!-- Node5 -->
<g id="node5" class="node">
<title>Node5</title>
<g id="a_node5"><a xlink:title=" ">
<polygon fill="none" stroke="black" points="351,-127.5 351,-184.5 389,-184.5 389,-127.5 351,-127.5"/>
<text text-anchor="middle" x="370" y="-172.5" font-family="Helvetica,sans-Serif" font-size="10.00">char</text>
<polyline fill="none" stroke="black" points="351,-165.5 389,-165.5 "/>
<text text-anchor="middle" x="370" y="-153.5" font-family="Helvetica,sans-Serif" font-size="10.00"> </text>
<polyline fill="none" stroke="black" points="351,-146.5 389,-146.5 "/>
<text text-anchor="middle" x="370" y="-134.5" font-family="Helvetica,sans-Serif" font-size="10.00"> </text>
</a>
</g>
</g>
<!-- Node5&#45;&gt;Node1 -->
<g id="edge4" class="edge">
<title>Node5&#45;&gt;Node1</title>
<path fill="none" stroke="#404040" d="M361.8,-127.29C356.57,-113.67 348.56,-97.88 337,-87 319.9,-70.91 297.08,-59.54 275.62,-51.64"/>
<polygon fill="none" stroke="#404040" points="275.57,-51.62 268.59,-53.45 264.22,-47.72 271.2,-45.89 275.57,-51.62"/>
<text text-anchor="middle" x="376" y="-95.5" font-family="Helvetica,sans-Serif" font-size="10.00"> +symbol</text>
</g>
</g>
</svg>
