<?xml version="1.0" encoding="UTF-8" standalone="no"?>
<!DOCTYPE svg PUBLIC "-//W3C//DTD SVG 1.1//EN"
 "http://www.w3.org/Graphics/SVG/1.1/DTD/svg11.dtd">
<!-- Generated by graphviz version 2.43.0 (0)
 -->
<!-- Title: signal_easel::aprs::Packet Pages: 1 -->
<svg width="512pt" height="325pt"
 viewBox="0.00 0.00 511.50 325.00" xmlns="http://www.w3.org/2000/svg" xmlns:xlink="http://www.w3.org/1999/xlink">
<g id="graph0" class="graph" transform="scale(1 1) rotate(0) translate(4 321)">
<title>signal_easel::aprs::Packet</title>
<!-- Node1 -->
<g id="node1" class="node">
<title>Node1</title>
<g id="a_node1"><a xlink:title=" ">
<polygon fill="#bfbfbf" stroke="black" points="181.5,-193.5 181.5,-316.5 307.5,-316.5 307.5,-193.5 181.5,-193.5"/>
<text text-anchor="start" x="189.5" y="-304.5" font-family="Helvetica,sans-Serif" font-size="10.00">signal_easel::aprs</text>
<text text-anchor="middle" x="244.5" y="-293.5" font-family="Helvetica,sans-Serif" font-size="10.00">::Packet</text>
<polyline fill="none" stroke="black" points="181.5,-286.5 307.5,-286.5 "/>
<text text-anchor="start" x="189.5" y="-274.5" font-family="Helvetica,sans-Serif" font-size="10.00">+ destination_address</text>
<text text-anchor="start" x="189.5" y="-263.5" font-family="Helvetica,sans-Serif" font-size="10.00">+ destination_ssid</text>
<text text-anchor="start" x="189.5" y="-252.5" font-family="Helvetica,sans-Serif" font-size="10.00">+ source_address</text>
<text text-anchor="start" x="189.5" y="-241.5" font-family="Helvetica,sans-Serif" font-size="10.00">+ source_ssid</text>
<text text-anchor="start" x="189.5" y="-230.5" font-family="Helvetica,sans-Serif" font-size="10.00">+ symbol</text>
<text text-anchor="start" x="189.5" y="-219.5" font-family="Helvetica,sans-Serif" font-size="10.00">+ symbol_table</text>
<polyline fill="none" stroke="black" points="181.5,-212.5 307.5,-212.5 "/>
<text text-anchor="middle" x="244.5" y="-200.5" font-family="Helvetica,sans-Serif" font-size="10.00"> </text>
</a>
</g>
</g>
<!-- Node2 -->
<g id="node2" class="node">
<title>Node2</title>
<g id="a_node2"><a xlink:href="structsignal__easel_1_1aprs_1_1Experimental.html" target="_top" xlink:title="This packet type will have two { characters at the start.">
<polygon fill="none" stroke="black" points="0,-28 0,-129 113,-129 113,-28 0,-28"/>
<text text-anchor="start" x="8" y="-117" font-family="Helvetica,sans-Serif" font-size="10.00">signal_easel::aprs</text>
<text text-anchor="middle" x="56.5" y="-106" font-family="Helvetica,sans-Serif" font-size="10.00">::Experimental</text>
<polyline fill="none" stroke="black" points="0,-99 113,-99 "/>
<text text-anchor="start" x="8" y="-87" font-family="Helvetica,sans-Serif" font-size="10.00">+ data</text>
<text text-anchor="start" x="8" y="-76" font-family="Helvetica,sans-Serif" font-size="10.00">+ packet_type_char</text>
<polyline fill="none" stroke="black" points="0,-69 113,-69 "/>
<text text-anchor="start" x="8" y="-57" font-family="Helvetica,sans-Serif" font-size="10.00">+ encode()</text>
<text text-anchor="start" x="8" y="-46" font-family="Helvetica,sans-Serif" font-size="10.00">+ getStringData()</text>
<text text-anchor="start" x="8" y="-35" font-family="Helvetica,sans-Serif" font-size="10.00">+ setStringData()</text>
</a>
</g>
</g>
<!-- Node1&#45;&gt;Node2 -->
<g id="edge1" class="edge">
<title>Node1&#45;&gt;Node2</title>
<path fill="none" stroke="midnightblue" d="M173.55,-201.39C156.29,-187.57 138.27,-172.25 122.5,-157 113.61,-148.4 104.64,-138.71 96.31,-129.17"/>
<polygon fill="none" stroke="midnightblue" points="171.41,-204.15 181.42,-207.62 175.76,-198.67 171.41,-204.15"/>
</g>
<!-- Node3 -->
<g id="node3" class="node">
<title>Node3</title>
<g id="a_node3"><a xlink:href="structsignal__easel_1_1aprs_1_1MessageAck.html" target="_top" xlink:title=" ">
<polygon fill="none" stroke="black" points="131.5,-39 131.5,-118 235.5,-118 235.5,-39 131.5,-39"/>
<text text-anchor="start" x="139.5" y="-106" font-family="Helvetica,sans-Serif" font-size="10.00">signal_easel::aprs</text>
<text text-anchor="middle" x="183.5" y="-95" font-family="Helvetica,sans-Serif" font-size="10.00">::MessageAck</text>
<polyline fill="none" stroke="black" points="131.5,-88 235.5,-88 "/>
<text text-anchor="start" x="139.5" y="-76" font-family="Helvetica,sans-Serif" font-size="10.00">+ addressee</text>
<text text-anchor="start" x="139.5" y="-65" font-family="Helvetica,sans-Serif" font-size="10.00">+ message_id</text>
<polyline fill="none" stroke="black" points="131.5,-58 235.5,-58 "/>
<text text-anchor="start" x="139.5" y="-46" font-family="Helvetica,sans-Serif" font-size="10.00">+ encode()</text>
</a>
</g>
</g>
<!-- Node1&#45;&gt;Node3 -->
<g id="edge2" class="edge">
<title>Node1&#45;&gt;Node3</title>
<path fill="none" stroke="midnightblue" d="M220.01,-183.95C212.16,-161.49 203.76,-137.45 196.99,-118.1"/>
<polygon fill="none" stroke="midnightblue" points="216.73,-185.17 223.34,-193.46 223.34,-182.86 216.73,-185.17"/>
</g>
<!-- Node4 -->
<g id="node4" class="node">
<title>Node4</title>
<g id="a_node4"><a xlink:href="structsignal__easel_1_1aprs_1_1MessagePacket.html" target="_top" xlink:title=" ">
<polygon fill="none" stroke="black" points="253.5,-33.5 253.5,-123.5 357.5,-123.5 357.5,-33.5 253.5,-33.5"/>
<text text-anchor="start" x="261.5" y="-111.5" font-family="Helvetica,sans-Serif" font-size="10.00">signal_easel::aprs</text>
<text text-anchor="middle" x="305.5" y="-100.5" font-family="Helvetica,sans-Serif" font-size="10.00">::MessagePacket</text>
<polyline fill="none" stroke="black" points="253.5,-93.5 357.5,-93.5 "/>
<text text-anchor="start" x="261.5" y="-81.5" font-family="Helvetica,sans-Serif" font-size="10.00">+ addressee</text>
<text text-anchor="start" x="261.5" y="-70.5" font-family="Helvetica,sans-Serif" font-size="10.00">+ message</text>
<text text-anchor="start" x="261.5" y="-59.5" font-family="Helvetica,sans-Serif" font-size="10.00">+ message_id</text>
<polyline fill="none" stroke="black" points="253.5,-52.5 357.5,-52.5 "/>
<text text-anchor="start" x="261.5" y="-40.5" font-family="Helvetica,sans-Serif" font-size="10.00">+ encode()</text>
</a>
</g>
</g>
<!-- Node1&#45;&gt;Node4 -->
<g id="edge3" class="edge">
<title>Node1&#45;&gt;Node4</title>
<path fill="none" stroke="midnightblue" d="M269,-183.92C276.1,-163.59 283.66,-141.97 290.05,-123.71"/>
<polygon fill="none" stroke="midnightblue" points="265.66,-182.86 265.66,-193.46 272.27,-185.17 265.66,-182.86"/>
</g>
<!-- Node5 -->
<g id="node5" class="node">
<title>Node5</title>
<g id="a_node5"><a xlink:href="structsignal__easel_1_1aprs_1_1PositionPacket.html" target="_top" xlink:title=" ">
<polygon fill="none" stroke="black" points="375.5,-0.5 375.5,-156.5 503.5,-156.5 503.5,-0.5 375.5,-0.5"/>
<text text-anchor="start" x="383.5" y="-144.5" font-family="Helvetica,sans-Serif" font-size="10.00">signal_easel::aprs</text>
<text text-anchor="middle" x="439.5" y="-133.5" font-family="Helvetica,sans-Serif" font-size="10.00">::PositionPacket</text>
<polyline fill="none" stroke="black" points="375.5,-126.5 503.5,-126.5 "/>
<text text-anchor="start" x="383.5" y="-114.5" font-family="Helvetica,sans-Serif" font-size="10.00">+ altitude</text>
<text text-anchor="start" x="383.5" y="-103.5" font-family="Helvetica,sans-Serif" font-size="10.00">+ comment</text>
<text text-anchor="start" x="383.5" y="-92.5" font-family="Helvetica,sans-Serif" font-size="10.00">+ course</text>
<text text-anchor="start" x="383.5" y="-81.5" font-family="Helvetica,sans-Serif" font-size="10.00">+ decoded_timestamp</text>
<text text-anchor="start" x="383.5" y="-70.5" font-family="Helvetica,sans-Serif" font-size="10.00">+ frame</text>
<text text-anchor="start" x="383.5" y="-59.5" font-family="Helvetica,sans-Serif" font-size="10.00">+ latitude</text>
<text text-anchor="start" x="383.5" y="-48.5" font-family="Helvetica,sans-Serif" font-size="10.00">+ longitude</text>
<text text-anchor="start" x="383.5" y="-37.5" font-family="Helvetica,sans-Serif" font-size="10.00">+ speed</text>
<text text-anchor="start" x="383.5" y="-26.5" font-family="Helvetica,sans-Serif" font-size="10.00">+ time_code</text>
<polyline fill="none" stroke="black" points="375.5,-19.5 503.5,-19.5 "/>
<text text-anchor="start" x="383.5" y="-7.5" font-family="Helvetica,sans-Serif" font-size="10.00">+ encode()</text>
</a>
</g>
</g>
<!-- Node1&#45;&gt;Node5 -->
<g id="edge4" class="edge">
<title>Node1&#45;&gt;Node5</title>
<path fill="none" stroke="midnightblue" d="M315.93,-200.01C332.9,-186.43 350.67,-171.56 366.5,-157 369.36,-154.37 372.24,-151.65 375.12,-148.88"/>
<polygon fill="none" stroke="midnightblue" points="313.33,-197.61 307.68,-206.57 317.69,-203.09 313.33,-197.61"/>
</g>
</g>
</svg>
