<?xml version="1.0" encoding="UTF-8" standalone="no"?>
<!DOCTYPE svg PUBLIC "-//W3C//DTD SVG 1.1//EN"
 "http://www.w3.org/Graphics/SVG/1.1/DTD/svg11.dtd">
<!-- Generated by graphviz version 2.43.0 (0)
 -->
<!-- Title: signal_easel::aprs::TelemetryPacket Pages: 1 -->
<svg width="1231pt" height="540pt"
 viewBox="0.00 0.00 1231.00 540.00" xmlns="http://www.w3.org/2000/svg" xmlns:xlink="http://www.w3.org/1999/xlink">
<g id="graph0" class="graph" transform="scale(1 1) rotate(0) translate(4 536)">
<title>signal_easel::aprs::TelemetryPacket</title>
<!-- Node1 -->
<g id="node1" class="node">
<title>Node1</title>
<g id="a_node1"><a xlink:title=" ">
<polygon fill="#bfbfbf" stroke="black" points="897,-0.5 897,-101.5 1013,-101.5 1013,-0.5 897,-0.5"/>
<text text-anchor="start" x="905" y="-89.5" font-family="Helvetica,sans-Serif" font-size="10.00">signal_easel::aprs</text>
<text text-anchor="middle" x="955" y="-78.5" font-family="Helvetica,sans-Serif" font-size="10.00">::TelemetryPacket</text>
<polyline fill="none" stroke="black" points="897,-71.5 1013,-71.5 "/>
<text text-anchor="middle" x="955" y="-59.5" font-family="Helvetica,sans-Serif" font-size="10.00"> </text>
<polyline fill="none" stroke="black" points="897,-52.5 1013,-52.5 "/>
<text text-anchor="start" x="905" y="-40.5" font-family="Helvetica,sans-Serif" font-size="10.00">+ TelemetryPacket()</text>
<text text-anchor="start" x="905" y="-29.5" font-family="Helvetica,sans-Serif" font-size="10.00">+ TelemetryPacket()</text>
<text text-anchor="start" x="905" y="-18.5" font-family="Helvetica,sans-Serif" font-size="10.00">+ TelemetryPacket()</text>
<text text-anchor="start" x="905" y="-7.5" font-family="Helvetica,sans-Serif" font-size="10.00">+ encode()</text>
</a>
</g>
</g>
<!-- Node2 -->
<g id="node2" class="node">
<title>Node2</title>
<g id="a_node2"><a xlink:href="structsignal__easel_1_1aprs_1_1Packet.html" target="_top" xlink:title="The base APRS packet structure.">
<polygon fill="none" stroke="black" points="903,-204.5 903,-272.5 1007,-272.5 1007,-204.5 903,-204.5"/>
<text text-anchor="start" x="911" y="-260.5" font-family="Helvetica,sans-Serif" font-size="10.00">signal_easel::aprs</text>
<text text-anchor="middle" x="955" y="-249.5" font-family="Helvetica,sans-Serif" font-size="10.00">::Packet</text>
<polyline fill="none" stroke="black" points="903,-242.5 1007,-242.5 "/>
<text text-anchor="middle" x="955" y="-230.5" font-family="Helvetica,sans-Serif" font-size="10.00"> </text>
<polyline fill="none" stroke="black" points="903,-223.5 1007,-223.5 "/>
<text text-anchor="middle" x="955" y="-211.5" font-family="Helvetica,sans-Serif" font-size="10.00"> </text>
</a>
</g>
</g>
<!-- Node2&#45;&gt;Node1 -->
<g id="edge1" class="edge">
<title>Node2&#45;&gt;Node1</title>
<path fill="none" stroke="midnightblue" d="M955,-194.16C955,-166.47 955,-130.48 955,-101.64"/>
<polygon fill="none" stroke="midnightblue" points="951.5,-194.34 955,-204.34 958.5,-194.34 951.5,-194.34"/>
</g>
<!-- Node3 -->
<g id="node3" class="node">
<title>Node3</title>
<g id="a_node3"><a xlink:title=" ">
<polygon fill="none" stroke="black" points="743,-463.5 743,-520.5 787,-520.5 787,-463.5 743,-463.5"/>
<text text-anchor="middle" x="765" y="-508.5" font-family="Helvetica,sans-Serif" font-size="10.00">string</text>
<polyline fill="none" stroke="black" points="743,-501.5 787,-501.5 "/>
<text text-anchor="middle" x="765" y="-489.5" font-family="Helvetica,sans-Serif" font-size="10.00"> </text>
<polyline fill="none" stroke="black" points="743,-482.5 787,-482.5 "/>
<text text-anchor="middle" x="765" y="-470.5" font-family="Helvetica,sans-Serif" font-size="10.00"> </text>
</a>
</g>
</g>
<!-- Node3&#45;&gt;Node2 -->
<g id="edge2" class="edge">
<title>Node3&#45;&gt;Node2</title>
<path fill="none" stroke="#404040" d="M782.92,-463.25C788.61,-454.07 794.78,-443.72 800,-434 820.43,-396 815.66,-380.92 841,-346 858.46,-321.94 881.9,-298.93 902.99,-280.5"/>
<polygon fill="none" stroke="#404040" points="903.06,-280.44 905.01,-273.5 912.17,-272.63 910.22,-279.57 903.06,-280.44"/>
<text text-anchor="middle" x="896" y="-393" font-family="Helvetica,sans-Serif" font-size="10.00"> +destination_address</text>
<text text-anchor="middle" x="896" y="-382" font-family="Helvetica,sans-Serif" font-size="10.00">+source_address</text>
</g>
<!-- Node7 -->
<g id="node7" class="node">
<title>Node7</title>
<g id="a_node7"><a xlink:href="classsignal__easel_1_1aprs_1_1telemetry_1_1TelemetryData.html" target="_top" xlink:title="A container for telemetry data. Contains all of the components of APRS telemetry messages.">
<polygon fill="none" stroke="black" points="420,-149.5 420,-327.5 588,-327.5 588,-149.5 420,-149.5"/>
<text text-anchor="start" x="428" y="-315.5" font-family="Helvetica,sans-Serif" font-size="10.00">signal_easel::aprs</text>
<text text-anchor="middle" x="504" y="-304.5" font-family="Helvetica,sans-Serif" font-size="10.00">::telemetry::TelemetryData</text>
<polyline fill="none" stroke="black" points="420,-297.5 588,-297.5 "/>
<text text-anchor="middle" x="504" y="-285.5" font-family="Helvetica,sans-Serif" font-size="10.00"> </text>
<polyline fill="none" stroke="black" points="420,-278.5 588,-278.5 "/>
<text text-anchor="start" x="428" y="-266.5" font-family="Helvetica,sans-Serif" font-size="10.00">+ TelemetryData()</text>
<text text-anchor="start" x="428" y="-255.5" font-family="Helvetica,sans-Serif" font-size="10.00">+ ~TelemetryData()</text>
<text text-anchor="start" x="428" y="-244.5" font-family="Helvetica,sans-Serif" font-size="10.00">+ getAnalog()</text>
<text text-anchor="start" x="428" y="-233.5" font-family="Helvetica,sans-Serif" font-size="10.00">+ getAnalogParameters()</text>
<text text-anchor="start" x="428" y="-222.5" font-family="Helvetica,sans-Serif" font-size="10.00">+ getAnalogParametersConst()</text>
<text text-anchor="start" x="428" y="-211.5" font-family="Helvetica,sans-Serif" font-size="10.00">+ getComment()</text>
<text text-anchor="start" x="428" y="-200.5" font-family="Helvetica,sans-Serif" font-size="10.00">+ getDigital()</text>
<text text-anchor="start" x="428" y="-189.5" font-family="Helvetica,sans-Serif" font-size="10.00">+ getDigitalParameters()</text>
<text text-anchor="start" x="428" y="-178.5" font-family="Helvetica,sans-Serif" font-size="10.00">+ getDigitalParametersConst()</text>
<text text-anchor="start" x="428" y="-167.5" font-family="Helvetica,sans-Serif" font-size="10.00">+ getProjectTitle()</text>
<text text-anchor="start" x="428" y="-156.5" font-family="Helvetica,sans-Serif" font-size="10.00">and 8 more...</text>
</a>
</g>
</g>
<!-- Node3&#45;&gt;Node7 -->
<g id="edge8" class="edge">
<title>Node3&#45;&gt;Node7</title>
<path fill="none" stroke="#404040" d="M742.71,-475.2C729.8,-464.9 714.31,-450.36 705,-434 685.17,-399.14 708.67,-378.38 685,-346 663.25,-316.25 630.46,-293.39 598.74,-276.62"/>
<polygon fill="none" stroke="#404040" points="598.73,-276.61 591.57,-277.45 588.04,-271.16 595.2,-270.32 598.73,-276.61"/>
<text text-anchor="middle" x="750.5" y="-404" font-family="Helvetica,sans-Serif" font-size="10.00"> &#45;comment_</text>
<text text-anchor="middle" x="750.5" y="-393" font-family="Helvetica,sans-Serif" font-size="10.00">&#45;project_title_</text>
<text text-anchor="start" x="705" y="-382" font-family="Helvetica,sans-Serif" font-size="10.00">&#45;telemetry_station</text>
<text text-anchor="middle" x="750.5" y="-371" font-family="Helvetica,sans-Serif" font-size="10.00">_address_</text>
</g>
<!-- Node4 -->
<g id="node4" class="node">
<title>Node4</title>
<g id="a_node4"><a xlink:title=" ">
<polygon fill="none" stroke="black" points="930,-463.5 930,-520.5 980,-520.5 980,-463.5 930,-463.5"/>
<text text-anchor="middle" x="955" y="-508.5" font-family="Helvetica,sans-Serif" font-size="10.00">uint8_t</text>
<polyline fill="none" stroke="black" points="930,-501.5 980,-501.5 "/>
<text text-anchor="middle" x="955" y="-489.5" font-family="Helvetica,sans-Serif" font-size="10.00"> </text>
<polyline fill="none" stroke="black" points="930,-482.5 980,-482.5 "/>
<text text-anchor="middle" x="955" y="-470.5" font-family="Helvetica,sans-Serif" font-size="10.00"> </text>
</a>
</g>
</g>
<!-- Node4&#45;&gt;Node2 -->
<g id="edge3" class="edge">
<title>Node4&#45;&gt;Node2</title>
<path fill="none" stroke="#404040" d="M955,-463.12C955,-420 955,-336.68 955,-284.82"/>
<polygon fill="none" stroke="#404040" points="955,-284.67 951,-278.67 955,-272.67 959,-278.67 955,-284.67"/>
<text text-anchor="middle" x="1000.5" y="-393" font-family="Helvetica,sans-Serif" font-size="10.00"> +destination_ssid</text>
<text text-anchor="middle" x="1000.5" y="-382" font-family="Helvetica,sans-Serif" font-size="10.00">+source_ssid</text>
</g>
<!-- Node5 -->
<g id="node5" class="node">
<title>Node5</title>
<g id="a_node5"><a xlink:title=" ">
<polygon fill="none" stroke="black" points="1029.5,-463.5 1029.5,-520.5 1108.5,-520.5 1108.5,-463.5 1029.5,-463.5"/>
<text text-anchor="middle" x="1069" y="-508.5" font-family="Helvetica,sans-Serif" font-size="10.00">SymbolTable</text>
<polyline fill="none" stroke="black" points="1029.5,-501.5 1108.5,-501.5 "/>
<text text-anchor="middle" x="1069" y="-489.5" font-family="Helvetica,sans-Serif" font-size="10.00"> </text>
<polyline fill="none" stroke="black" points="1029.5,-482.5 1108.5,-482.5 "/>
<text text-anchor="middle" x="1069" y="-470.5" font-family="Helvetica,sans-Serif" font-size="10.00"> </text>
</a>
</g>
</g>
<!-- Node5&#45;&gt;Node2 -->
<g id="edge4" class="edge">
<title>Node5&#45;&gt;Node2</title>
<path fill="none" stroke="#404040" d="M1067.59,-463.44C1065.26,-426.87 1059.55,-364.72 1047,-346 1038.34,-333.08 1028.38,-338.6 1017,-328 1003.06,-315.01 990.42,-298.4 980.25,-283.08"/>
<polygon fill="none" stroke="#404040" points="980.09,-282.85 973.49,-279.96 973.61,-272.75 980.22,-275.64 980.09,-282.85"/>
<text text-anchor="middle" x="1104" y="-387.5" font-family="Helvetica,sans-Serif" font-size="10.00"> +symbol_table</text>
</g>
<!-- Node6 -->
<g id="node6" class="node">
<title>Node6</title>
<g id="a_node6"><a xlink:title=" ">
<polygon fill="none" stroke="black" points="1151,-463.5 1151,-520.5 1189,-520.5 1189,-463.5 1151,-463.5"/>
<text text-anchor="middle" x="1170" y="-508.5" font-family="Helvetica,sans-Serif" font-size="10.00">char</text>
<polyline fill="none" stroke="black" points="1151,-501.5 1189,-501.5 "/>
<text text-anchor="middle" x="1170" y="-489.5" font-family="Helvetica,sans-Serif" font-size="10.00"> </text>
<polyline fill="none" stroke="black" points="1151,-482.5 1189,-482.5 "/>
<text text-anchor="middle" x="1170" y="-470.5" font-family="Helvetica,sans-Serif" font-size="10.00"> </text>
</a>
</g>
</g>
<!-- Node6&#45;&gt;Node2 -->
<g id="edge5" class="edge">
<title>Node6&#45;&gt;Node2</title>
<path fill="none" stroke="#404040" d="M1174.4,-463.46C1177.93,-430.64 1178.03,-376.42 1147,-346 1105.35,-305.16 1066.77,-358.42 1017,-328 999.67,-317.41 985.91,-299.94 975.79,-283.31"/>
<polygon fill="none" stroke="#404040" points="975.62,-283.01 969.17,-279.78 969.68,-272.59 976.12,-275.82 975.62,-283.01"/>
<text text-anchor="middle" x="1199" y="-387.5" font-family="Helvetica,sans-Serif" font-size="10.00"> +symbol</text>
</g>
<!-- Node7&#45;&gt;Node1 -->
<g id="edge6" class="edge">
<title>Node7&#45;&gt;Node1</title>
<path fill="none" stroke="#404040" d="M588.04,-202.94C673.78,-167.67 805.3,-113.57 885.4,-80.63"/>
<polygon fill="none" stroke="#404040" points="885.74,-80.49 889.77,-74.51 896.84,-75.92 892.81,-81.9 885.74,-80.49"/>
<text text-anchor="middle" x="827.5" y="-123" font-family="Helvetica,sans-Serif" font-size="10.00"> +telemetry_data</text>
</g>
<!-- Node8 -->
<g id="node8" class="node">
<title>Node8</title>
<g id="a_node8"><a xlink:title=" ">
<polygon fill="none" stroke="black" points="401.5,-463.5 401.5,-520.5 446.5,-520.5 446.5,-463.5 401.5,-463.5"/>
<text text-anchor="middle" x="424" y="-508.5" font-family="Helvetica,sans-Serif" font-size="10.00">size_t</text>
<polyline fill="none" stroke="black" points="401.5,-501.5 446.5,-501.5 "/>
<text text-anchor="middle" x="424" y="-489.5" font-family="Helvetica,sans-Serif" font-size="10.00"> </text>
<polyline fill="none" stroke="black" points="401.5,-482.5 446.5,-482.5 "/>
<text text-anchor="middle" x="424" y="-470.5" font-family="Helvetica,sans-Serif" font-size="10.00"> </text>
</a>
</g>
</g>
<!-- Node8&#45;&gt;Node7 -->
<g id="edge7" class="edge">
<title>Node8&#45;&gt;Node7</title>
<path fill="none" stroke="#404040" d="M417.92,-463.41C412.59,-433.58 407.58,-385.05 421,-346 421.83,-343.58 422.75,-341.16 423.73,-338.77"/>
<polygon fill="none" stroke="#404040" points="423.82,-338.58 422.69,-331.46 428.84,-327.69 429.96,-334.81 423.82,-338.58"/>
<text text-anchor="start" x="421" y="-426" font-family="Helvetica,sans-Serif" font-size="10.00"> +COMMENT_MAX_LENGTH</text>
<text text-anchor="middle" x="489" y="-415" font-family="Helvetica,sans-Serif" font-size="10.00">_</text>
<text text-anchor="start" x="421" y="-404" font-family="Helvetica,sans-Serif" font-size="10.00">+PROJECT_TITLE</text>
<text text-anchor="middle" x="489" y="-393" font-family="Helvetica,sans-Serif" font-size="10.00">_MAX_LENGTH_</text>
<text text-anchor="start" x="421" y="-382" font-family="Helvetica,sans-Serif" font-size="10.00">+SEQUENCE_NUMBER</text>
<text text-anchor="middle" x="489" y="-371" font-family="Helvetica,sans-Serif" font-size="10.00">_MAX_</text>
<text text-anchor="start" x="421" y="-360" font-family="Helvetica,sans-Serif" font-size="10.00">+TELEMETRY_STATION</text>
<text text-anchor="middle" x="489" y="-349" font-family="Helvetica,sans-Serif" font-size="10.00">_ADDRESS_MAX_LENGTH_</text>
</g>
<!-- Node9 -->
<g id="node9" class="node">
<title>Node9</title>
<g id="a_node9"><a xlink:title=" ">
<polygon fill="none" stroke="black" points="555,-463.5 555,-520.5 611,-520.5 611,-463.5 555,-463.5"/>
<text text-anchor="middle" x="583" y="-508.5" font-family="Helvetica,sans-Serif" font-size="10.00">uint16_t</text>
<polyline fill="none" stroke="black" points="555,-501.5 611,-501.5 "/>
<text text-anchor="middle" x="583" y="-489.5" font-family="Helvetica,sans-Serif" font-size="10.00"> </text>
<polyline fill="none" stroke="black" points="555,-482.5 611,-482.5 "/>
<text text-anchor="middle" x="583" y="-470.5" font-family="Helvetica,sans-Serif" font-size="10.00"> </text>
</a>
</g>
</g>
<!-- Node9&#45;&gt;Node7 -->
<g id="edge9" class="edge">
<title>Node9&#45;&gt;Node7</title>
<path fill="none" stroke="#404040" d="M581.6,-463.36C579.47,-433.69 574.13,-385.5 561,-346 560.21,-343.63 559.37,-341.25 558.49,-338.86"/>
<polygon fill="none" stroke="#404040" points="558.49,-338.85 552.56,-334.75 554.07,-327.7 560,-331.8 558.49,-338.85"/>
<text text-anchor="middle" x="630" y="-387.5" font-family="Helvetica,sans-Serif" font-size="10.00"> &#45;sequence_number_</text>
</g>
<!-- Node10 -->
<g id="node10" class="node">
<title>Node10</title>
<g id="a_node10"><a xlink:title=" ">
<polygon fill="none" stroke="black" points="0,-458 0,-526 210,-526 210,-458 0,-458"/>
<text text-anchor="start" x="8" y="-514" font-family="Helvetica,sans-Serif" font-size="10.00">array&lt; signal_easel</text>
<text text-anchor="middle" x="105" y="-503" font-family="Helvetica,sans-Serif" font-size="10.00">::aprs::telemetry::AnalogParameter, 5 &gt;</text>
<polyline fill="none" stroke="black" points="0,-496 210,-496 "/>
<text text-anchor="middle" x="105" y="-484" font-family="Helvetica,sans-Serif" font-size="10.00"> </text>
<polyline fill="none" stroke="black" points="0,-477 210,-477 "/>
<text text-anchor="middle" x="105" y="-465" font-family="Helvetica,sans-Serif" font-size="10.00"> </text>
</a>
</g>
</g>
<!-- Node10&#45;&gt;Node7 -->
<g id="edge10" class="edge">
<title>Node10&#45;&gt;Node7</title>
<path fill="none" stroke="#404040" d="M113.08,-457.83C122.74,-424.99 142.02,-375.48 176,-346 241.08,-289.53 336.66,-262.89 407.87,-250.39"/>
<polygon fill="none" stroke="#404040" points="408.14,-250.35 413.39,-245.41 419.97,-248.36 414.72,-253.3 408.14,-250.35"/>
<text text-anchor="middle" x="229.5" y="-387.5" font-family="Helvetica,sans-Serif" font-size="10.00"> &#45;analog_parameters_</text>
</g>
<!-- Node11 -->
<g id="node11" class="node">
<title>Node11</title>
<g id="a_node11"><a xlink:title=" ">
<polygon fill="none" stroke="black" points="228.5,-452.5 228.5,-531.5 363.5,-531.5 363.5,-452.5 228.5,-452.5"/>
<text text-anchor="start" x="236.5" y="-519.5" font-family="Helvetica,sans-Serif" font-size="10.00">array&lt; signal_easel</text>
<text text-anchor="start" x="236.5" y="-508.5" font-family="Helvetica,sans-Serif" font-size="10.00">::aprs::telemetry::Digital</text>
<text text-anchor="middle" x="296" y="-497.5" font-family="Helvetica,sans-Serif" font-size="10.00">Parameter, 8 &gt;</text>
<polyline fill="none" stroke="black" points="228.5,-490.5 363.5,-490.5 "/>
<text text-anchor="middle" x="296" y="-478.5" font-family="Helvetica,sans-Serif" font-size="10.00"> </text>
<polyline fill="none" stroke="black" points="228.5,-471.5 363.5,-471.5 "/>
<text text-anchor="middle" x="296" y="-459.5" font-family="Helvetica,sans-Serif" font-size="10.00"> </text>
</a>
</g>
</g>
<!-- Node11&#45;&gt;Node7 -->
<g id="edge11" class="edge">
<title>Node11&#45;&gt;Node7</title>
<path fill="none" stroke="#404040" d="M288.39,-452.46C284.39,-421.29 283.85,-377.55 304,-346 327.9,-308.58 369.6,-283.45 408.77,-267.05"/>
<polygon fill="none" stroke="#404040" points="408.86,-267.02 412.94,-261.07 420,-262.55 415.92,-268.5 408.86,-267.02"/>
<text text-anchor="middle" x="356.5" y="-387.5" font-family="Helvetica,sans-Serif" font-size="10.00"> &#45;digital_parameters_</text>
</g>
<!-- Node12 -->
<g id="node12" class="node">
<title>Node12</title>
<g id="a_node12"><a xlink:title=" ">
<polygon fill="none" stroke="black" points="1025.5,-210 1025.5,-267 1064.5,-267 1064.5,-210 1025.5,-210"/>
<text text-anchor="middle" x="1045" y="-255" font-family="Helvetica,sans-Serif" font-size="10.00">Type</text>
<polyline fill="none" stroke="black" points="1025.5,-248 1064.5,-248 "/>
<text text-anchor="middle" x="1045" y="-236" font-family="Helvetica,sans-Serif" font-size="10.00"> </text>
<polyline fill="none" stroke="black" points="1025.5,-229 1064.5,-229 "/>
<text text-anchor="middle" x="1045" y="-217" font-family="Helvetica,sans-Serif" font-size="10.00"> </text>
</a>
</g>
</g>
<!-- Node12&#45;&gt;Node1 -->
<g id="edge12" class="edge">
<title>Node12&#45;&gt;Node1</title>
<path fill="none" stroke="#404040" d="M1037.79,-209.72C1032.72,-191.94 1025.21,-168.61 1016,-149 1010.18,-136.6 1003.08,-123.86 995.81,-111.86"/>
<polygon fill="none" stroke="#404040" points="995.72,-111.72 989.16,-108.73 989.4,-101.52 995.96,-104.51 995.72,-111.72"/>
<text text-anchor="middle" x="1049.5" y="-123" font-family="Helvetica,sans-Serif" font-size="10.00"> +telemetry_type</text>
</g>
</g>
</svg>
