<?xml version="1.0" encoding="UTF-8" standalone="no"?>
<!DOCTYPE svg PUBLIC "-//W3C//DTD SVG 1.1//EN"
 "http://www.w3.org/Graphics/SVG/1.1/DTD/svg11.dtd">
<!-- Generated by graphviz version 2.43.0 (0)
 -->
<!-- Title: signal_easel::aprs::PositionPacket Pages: 1 -->
<svg width="659pt" height="331pt"
 viewBox="0.00 0.00 658.50 331.00" xmlns="http://www.w3.org/2000/svg" xmlns:xlink="http://www.w3.org/1999/xlink">
<g id="graph0" class="graph" transform="scale(1 1) rotate(0) translate(4 327)">
<title>signal_easel::aprs::PositionPacket</title>
<!-- Node1 -->
<g id="node1" class="node">
<title>Node1</title>
<g id="a_node1"><a xlink:title=" ">
<polygon fill="#bfbfbf" stroke="black" points="440.5,-0.5 440.5,-68.5 544.5,-68.5 544.5,-0.5 440.5,-0.5"/>
<text text-anchor="start" x="448.5" y="-56.5" font-family="Helvetica,sans-Serif" font-size="10.00">signal_easel::aprs</text>
<text text-anchor="middle" x="492.5" y="-45.5" font-family="Helvetica,sans-Serif" font-size="10.00">::PositionPacket</text>
<polyline fill="none" stroke="black" points="440.5,-38.5 544.5,-38.5 "/>
<text text-anchor="middle" x="492.5" y="-26.5" font-family="Helvetica,sans-Serif" font-size="10.00"> </text>
<polyline fill="none" stroke="black" points="440.5,-19.5 544.5,-19.5 "/>
<text text-anchor="middle" x="492.5" y="-7.5" font-family="Helvetica,sans-Serif" font-size="10.00"> </text>
</a>
</g>
</g>
<!-- Node2 -->
<g id="node2" class="node">
<title>Node2</title>
<g id="a_node2"><a xlink:href="structsignal__easel_1_1aprs_1_1Packet.html" target="_top" xlink:title=" ">
<polygon fill="none" stroke="black" points="159.5,-138.5 159.5,-206.5 263.5,-206.5 263.5,-138.5 159.5,-138.5"/>
<text text-anchor="start" x="167.5" y="-194.5" font-family="Helvetica,sans-Serif" font-size="10.00">signal_easel::aprs</text>
<text text-anchor="middle" x="211.5" y="-183.5" font-family="Helvetica,sans-Serif" font-size="10.00">::Packet</text>
<polyline fill="none" stroke="black" points="159.5,-176.5 263.5,-176.5 "/>
<text text-anchor="middle" x="211.5" y="-164.5" font-family="Helvetica,sans-Serif" font-size="10.00"> </text>
<polyline fill="none" stroke="black" points="159.5,-157.5 263.5,-157.5 "/>
<text text-anchor="middle" x="211.5" y="-145.5" font-family="Helvetica,sans-Serif" font-size="10.00"> </text>
</a>
</g>
</g>
<!-- Node2&#45;&gt;Node1 -->
<g id="edge1" class="edge">
<title>Node2&#45;&gt;Node1</title>
<path fill="none" stroke="midnightblue" d="M272.79,-141.84C322.8,-117.63 392.68,-83.81 440.11,-60.86"/>
<polygon fill="none" stroke="midnightblue" points="271.17,-138.73 263.7,-146.24 274.22,-145.03 271.17,-138.73"/>
</g>
<!-- Node3 -->
<g id="node3" class="node">
<title>Node3</title>
<g id="a_node3"><a xlink:title=" ">
<polygon fill="none" stroke="#bfbfbf" points="0,-265.5 0,-322.5 79,-322.5 79,-265.5 0,-265.5"/>
<text text-anchor="middle" x="39.5" y="-310.5" font-family="Helvetica,sans-Serif" font-size="10.00">SymbolTable</text>
<polyline fill="none" stroke="#bfbfbf" points="0,-303.5 79,-303.5 "/>
<text text-anchor="middle" x="39.5" y="-291.5" font-family="Helvetica,sans-Serif" font-size="10.00"> </text>
<polyline fill="none" stroke="#bfbfbf" points="0,-284.5 79,-284.5 "/>
<text text-anchor="middle" x="39.5" y="-272.5" font-family="Helvetica,sans-Serif" font-size="10.00"> </text>
</a>
</g>
</g>
<!-- Node3&#45;&gt;Node2 -->
<g id="edge2" class="edge">
<title>Node3&#45;&gt;Node2</title>
<path fill="none" stroke="#404040" d="M45.66,-265.45C49.99,-251.7 57.11,-235.75 68.5,-225 90.14,-204.56 120.48,-192.14 147.64,-184.63"/>
<polygon fill="none" stroke="#404040" points="147.83,-184.58 152.65,-179.22 159.46,-181.61 154.64,-186.97 147.83,-184.58"/>
<text text-anchor="middle" x="107.5" y="-233.5" font-family="Helvetica,sans-Serif" font-size="10.00"> +symbol_table</text>
</g>
<!-- Node4 -->
<g id="node4" class="node">
<title>Node4</title>
<g id="a_node4"><a xlink:title=" ">
<polygon fill="none" stroke="#bfbfbf" points="121.5,-265.5 121.5,-322.5 159.5,-322.5 159.5,-265.5 121.5,-265.5"/>
<text text-anchor="middle" x="140.5" y="-310.5" font-family="Helvetica,sans-Serif" font-size="10.00">char</text>
<polyline fill="none" stroke="#bfbfbf" points="121.5,-303.5 159.5,-303.5 "/>
<text text-anchor="middle" x="140.5" y="-291.5" font-family="Helvetica,sans-Serif" font-size="10.00"> </text>
<polyline fill="none" stroke="#bfbfbf" points="121.5,-284.5 159.5,-284.5 "/>
<text text-anchor="middle" x="140.5" y="-272.5" font-family="Helvetica,sans-Serif" font-size="10.00"> </text>
</a>
</g>
</g>
<!-- Node4&#45;&gt;Node2 -->
<g id="edge3" class="edge">
<title>Node4&#45;&gt;Node2</title>
<path fill="none" stroke="#404040" d="M144.87,-265.23C147.72,-252.37 152.3,-237.26 159.5,-225 161.28,-221.97 163.28,-218.99 165.44,-216.1"/>
<polygon fill="none" stroke="#404040" points="165.64,-215.85 166.36,-208.67 173.26,-206.57 172.54,-213.75 165.64,-215.85"/>
<text text-anchor="middle" x="183.5" y="-233.5" font-family="Helvetica,sans-Serif" font-size="10.00"> +symbol</text>
</g>
<!-- Node5 -->
<g id="node5" class="node">
<title>Node5</title>
<g id="a_node5"><a xlink:title=" ">
<polygon fill="none" stroke="#bfbfbf" points="186.5,-265.5 186.5,-322.5 236.5,-322.5 236.5,-265.5 186.5,-265.5"/>
<text text-anchor="middle" x="211.5" y="-310.5" font-family="Helvetica,sans-Serif" font-size="10.00">uint8_t</text>
<polyline fill="none" stroke="#bfbfbf" points="186.5,-303.5 236.5,-303.5 "/>
<text text-anchor="middle" x="211.5" y="-291.5" font-family="Helvetica,sans-Serif" font-size="10.00"> </text>
<polyline fill="none" stroke="#bfbfbf" points="186.5,-284.5 236.5,-284.5 "/>
<text text-anchor="middle" x="211.5" y="-272.5" font-family="Helvetica,sans-Serif" font-size="10.00"> </text>
</a>
</g>
</g>
<!-- Node5&#45;&gt;Node2 -->
<g id="edge4" class="edge">
<title>Node5&#45;&gt;Node2</title>
<path fill="none" stroke="#404040" d="M211.5,-265.28C211.5,-251.47 211.5,-234.4 211.5,-218.75"/>
<polygon fill="none" stroke="#404040" points="211.5,-218.59 207.5,-212.59 211.5,-206.59 215.5,-212.59 211.5,-218.59"/>
<text text-anchor="middle" x="257" y="-239" font-family="Helvetica,sans-Serif" font-size="10.00"> +destination_ssid</text>
<text text-anchor="middle" x="257" y="-228" font-family="Helvetica,sans-Serif" font-size="10.00">+source_ssid</text>
</g>
<!-- Node6 -->
<g id="node6" class="node">
<title>Node6</title>
<g id="a_node6"><a xlink:title=" ">
<polygon fill="none" stroke="#bfbfbf" points="365.5,-265.5 365.5,-322.5 409.5,-322.5 409.5,-265.5 365.5,-265.5"/>
<text text-anchor="middle" x="387.5" y="-310.5" font-family="Helvetica,sans-Serif" font-size="10.00">string</text>
<polyline fill="none" stroke="#bfbfbf" points="365.5,-303.5 409.5,-303.5 "/>
<text text-anchor="middle" x="387.5" y="-291.5" font-family="Helvetica,sans-Serif" font-size="10.00"> </text>
<polyline fill="none" stroke="#bfbfbf" points="365.5,-284.5 409.5,-284.5 "/>
<text text-anchor="middle" x="387.5" y="-272.5" font-family="Helvetica,sans-Serif" font-size="10.00"> </text>
</a>
</g>
</g>
<!-- Node6&#45;&gt;Node1 -->
<g id="edge8" class="edge">
<title>Node6&#45;&gt;Node1</title>
<path fill="none" stroke="#404040" d="M409.73,-277.15C419.36,-269.17 429.92,-258.69 436.5,-247 460.78,-203.85 446.79,-185.85 459.5,-138 464.56,-118.97 471.04,-98.25 476.92,-80.45"/>
<polygon fill="none" stroke="#404040" points="476.96,-80.32 475.07,-73.36 480.77,-68.94 482.66,-75.9 476.96,-80.32"/>
<text text-anchor="middle" x="489.5" y="-175.5" font-family="Helvetica,sans-Serif" font-size="10.00"> +comment</text>
<text text-anchor="middle" x="489.5" y="-164.5" font-family="Helvetica,sans-Serif" font-size="10.00">+time_code</text>
</g>
<!-- Node6&#45;&gt;Node2 -->
<g id="edge5" class="edge">
<title>Node6&#45;&gt;Node2</title>
<path fill="none" stroke="#404040" d="M365.28,-277.21C353.5,-268.6 338.93,-257.57 326.5,-247 315.72,-237.84 314.87,-233.41 303.5,-225 294.32,-218.21 284.16,-211.68 274.04,-205.68"/>
<polygon fill="none" stroke="#404040" points="273.94,-205.62 266.74,-206.09 263.54,-199.62 270.74,-199.16 273.94,-205.62"/>
<text text-anchor="middle" x="381.5" y="-239" font-family="Helvetica,sans-Serif" font-size="10.00"> +destination_address</text>
<text text-anchor="middle" x="381.5" y="-228" font-family="Helvetica,sans-Serif" font-size="10.00">+source_address</text>
</g>
<!-- Node7 -->
<g id="node7" class="node">
<title>Node7</title>
<g id="a_node7"><a xlink:title=" ">
<polygon fill="none" stroke="#bfbfbf" points="528.5,-144 528.5,-201 566.5,-201 566.5,-144 528.5,-144"/>
<text text-anchor="middle" x="547.5" y="-189" font-family="Helvetica,sans-Serif" font-size="10.00">float</text>
<polyline fill="none" stroke="#bfbfbf" points="528.5,-182 566.5,-182 "/>
<text text-anchor="middle" x="547.5" y="-170" font-family="Helvetica,sans-Serif" font-size="10.00"> </text>
<polyline fill="none" stroke="#bfbfbf" points="528.5,-163 566.5,-163 "/>
<text text-anchor="middle" x="547.5" y="-151" font-family="Helvetica,sans-Serif" font-size="10.00"> </text>
</a>
</g>
</g>
<!-- Node7&#45;&gt;Node1 -->
<g id="edge6" class="edge">
<title>Node7&#45;&gt;Node1</title>
<path fill="none" stroke="#404040" d="M536.37,-143.98C528.95,-125.64 519.04,-101.13 510.52,-80.05"/>
<polygon fill="none" stroke="#404040" points="510.44,-79.87 504.49,-75.81 505.95,-68.75 511.9,-72.81 510.44,-79.87"/>
<text text-anchor="middle" x="554" y="-112" font-family="Helvetica,sans-Serif" font-size="10.00"> +latitude</text>
<text text-anchor="middle" x="554" y="-101" font-family="Helvetica,sans-Serif" font-size="10.00">+longitude</text>
<text text-anchor="middle" x="554" y="-90" font-family="Helvetica,sans-Serif" font-size="10.00">+speed</text>
</g>
<!-- Node8 -->
<g id="node8" class="node">
<title>Node8</title>
<g id="a_node8"><a xlink:title=" ">
<polygon fill="none" stroke="#bfbfbf" points="598,-144 598,-201 627,-201 627,-144 598,-144"/>
<text text-anchor="middle" x="612.5" y="-189" font-family="Helvetica,sans-Serif" font-size="10.00">int</text>
<polyline fill="none" stroke="#bfbfbf" points="598,-182 627,-182 "/>
<text text-anchor="middle" x="612.5" y="-170" font-family="Helvetica,sans-Serif" font-size="10.00"> </text>
<polyline fill="none" stroke="#bfbfbf" points="598,-163 627,-163 "/>
<text text-anchor="middle" x="612.5" y="-151" font-family="Helvetica,sans-Serif" font-size="10.00"> </text>
</a>
</g>
</g>
<!-- Node8&#45;&gt;Node1 -->
<g id="edge7" class="edge">
<title>Node8&#45;&gt;Node1</title>
<path fill="none" stroke="#404040" d="M609.02,-143.88C605.58,-126.03 598.79,-103.19 585.5,-87 577.34,-77.05 566.72,-68.7 555.6,-61.82"/>
<polygon fill="none" stroke="#404040" points="555.25,-61.62 548.06,-62.12 544.84,-55.67 552.03,-55.17 555.25,-61.62"/>
<text text-anchor="middle" x="626" y="-106.5" font-family="Helvetica,sans-Serif" font-size="10.00"> +altitude</text>
<text text-anchor="middle" x="626" y="-95.5" font-family="Helvetica,sans-Serif" font-size="10.00">+course</text>
</g>
</g>
</svg>
