<?xml version="1.0" encoding="UTF-8" standalone="no"?>
<!DOCTYPE svg PUBLIC "-//W3C//DTD SVG 1.1//EN"
 "http://www.w3.org/Graphics/SVG/1.1/DTD/svg11.dtd">
<!-- Generated by graphviz version 2.43.0 (0)
 -->
<!-- Title: signal_easel::aprs::TelemetryPacket Pages: 1 -->
<svg width="1241pt" height="540pt"
 viewBox="0.00 0.00 1241.00 540.00" xmlns="http://www.w3.org/2000/svg" xmlns:xlink="http://www.w3.org/1999/xlink">
<g id="graph0" class="graph" transform="scale(1 1) rotate(0) translate(4 536)">
<title>signal_easel::aprs::TelemetryPacket</title>
<!-- Node1 -->
<g id="node1" class="node">
<title>Node1</title>
<g id="a_node1"><a xlink:title=" ">
<polygon fill="#bfbfbf" stroke="black" points="907,-0.5 907,-101.5 1023,-101.5 1023,-0.5 907,-0.5"/>
<text text-anchor="start" x="915" y="-89.5" font-family="Helvetica,sans-Serif" font-size="10.00">signal_easel::aprs</text>
<text text-anchor="middle" x="965" y="-78.5" font-family="Helvetica,sans-Serif" font-size="10.00">::TelemetryPacket</text>
<polyline fill="none" stroke="black" points="907,-71.5 1023,-71.5 "/>
<text text-anchor="middle" x="965" y="-59.5" font-family="Helvetica,sans-Serif" font-size="10.00"> </text>
<polyline fill="none" stroke="black" points="907,-52.5 1023,-52.5 "/>
<text text-anchor="start" x="915" y="-40.5" font-family="Helvetica,sans-Serif" font-size="10.00">+ TelemetryPacket()</text>
<text text-anchor="start" x="915" y="-29.5" font-family="Helvetica,sans-Serif" font-size="10.00">+ TelemetryPacket()</text>
<text text-anchor="start" x="915" y="-18.5" font-family="Helvetica,sans-Serif" font-size="10.00">+ TelemetryPacket()</text>
<text text-anchor="start" x="915" y="-7.5" font-family="Helvetica,sans-Serif" font-size="10.00">+ encode()</text>
</a>
</g>
</g>
<!-- Node2 -->
<g id="node2" class="node">
<title>Node2</title>
<g id="a_node2"><a xlink:href="structsignal__easel_1_1aprs_1_1Packet.html" target="_top" xlink:title="The base APRS packet structure.">
<polygon fill="none" stroke="black" points="913,-204.5 913,-272.5 1017,-272.5 1017,-204.5 913,-204.5"/>
<text text-anchor="start" x="921" y="-260.5" font-family="Helvetica,sans-Serif" font-size="10.00">signal_easel::aprs</text>
<text text-anchor="middle" x="965" y="-249.5" font-family="Helvetica,sans-Serif" font-size="10.00">::Packet</text>
<polyline fill="none" stroke="black" points="913,-242.5 1017,-242.5 "/>
<text text-anchor="middle" x="965" y="-230.5" font-family="Helvetica,sans-Serif" font-size="10.00"> </text>
<polyline fill="none" stroke="black" points="913,-223.5 1017,-223.5 "/>
<text text-anchor="middle" x="965" y="-211.5" font-family="Helvetica,sans-Serif" font-size="10.00"> </text>
</a>
</g>
</g>
<!-- Node2&#45;&gt;Node1 -->
<g id="edge1" class="edge">
<title>Node2&#45;&gt;Node1</title>
<path fill="none" stroke="midnightblue" d="M965,-194.16C965,-166.47 965,-130.48 965,-101.64"/>
<polygon fill="none" stroke="midnightblue" points="961.5,-194.34 965,-204.34 968.5,-194.34 961.5,-194.34"/>
</g>
<!-- Node3 -->
<g id="node3" class="node">
<title>Node3</title>
<g id="a_node3"><a xlink:title=" ">
<polygon fill="none" stroke="black" points="753,-463.5 753,-520.5 797,-520.5 797,-463.5 753,-463.5"/>
<text text-anchor="middle" x="775" y="-508.5" font-family="Helvetica,sans-Serif" font-size="10.00">string</text>
<polyline fill="none" stroke="black" points="753,-501.5 797,-501.5 "/>
<text text-anchor="middle" x="775" y="-489.5" font-family="Helvetica,sans-Serif" font-size="10.00"> </text>
<polyline fill="none" stroke="black" points="753,-482.5 797,-482.5 "/>
<text text-anchor="middle" x="775" y="-470.5" font-family="Helvetica,sans-Serif" font-size="10.00"> </text>
</a>
</g>
</g>
<!-- Node3&#45;&gt;Node2 -->
<g id="edge2" class="edge">
<title>Node3&#45;&gt;Node2</title>
<path fill="none" stroke="#404040" d="M792.92,-463.25C798.61,-454.07 804.78,-443.72 810,-434 830.43,-396 825.66,-380.92 851,-346 868.46,-321.94 891.9,-298.93 912.99,-280.5"/>
<polygon fill="none" stroke="#404040" points="913.06,-280.44 915.01,-273.5 922.17,-272.63 920.22,-279.57 913.06,-280.44"/>
<text text-anchor="middle" x="906" y="-393" font-family="Helvetica,sans-Serif" font-size="10.00"> +destination_address</text>
<text text-anchor="middle" x="906" y="-382" font-family="Helvetica,sans-Serif" font-size="10.00">+source_address</text>
</g>
<!-- Node7 -->
<g id="node7" class="node">
<title>Node7</title>
<g id="a_node7"><a xlink:href="classsignal__easel_1_1aprs_1_1telemetry_1_1TelemetryData.html" target="_top" xlink:title="A container for telemetry data. Contains all of the components of APRS telemetry messages.">
<polygon fill="none" stroke="black" points="430,-149.5 430,-327.5 598,-327.5 598,-149.5 430,-149.5"/>
<text text-anchor="start" x="438" y="-315.5" font-family="Helvetica,sans-Serif" font-size="10.00">signal_easel::aprs</text>
<text text-anchor="middle" x="514" y="-304.5" font-family="Helvetica,sans-Serif" font-size="10.00">::telemetry::TelemetryData</text>
<polyline fill="none" stroke="black" points="430,-297.5 598,-297.5 "/>
<text text-anchor="middle" x="514" y="-285.5" font-family="Helvetica,sans-Serif" font-size="10.00"> </text>
<polyline fill="none" stroke="black" points="430,-278.5 598,-278.5 "/>
<text text-anchor="start" x="438" y="-266.5" font-family="Helvetica,sans-Serif" font-size="10.00">+ TelemetryData()</text>
<text text-anchor="start" x="438" y="-255.5" font-family="Helvetica,sans-Serif" font-size="10.00">+ ~TelemetryData()</text>
<text text-anchor="start" x="438" y="-244.5" font-family="Helvetica,sans-Serif" font-size="10.00">+ getAnalog()</text>
<text text-anchor="start" x="438" y="-233.5" font-family="Helvetica,sans-Serif" font-size="10.00">+ getAnalogParameters()</text>
<text text-anchor="start" x="438" y="-222.5" font-family="Helvetica,sans-Serif" font-size="10.00">+ getAnalogParametersConst()</text>
<text text-anchor="start" x="438" y="-211.5" font-family="Helvetica,sans-Serif" font-size="10.00">+ getComment()</text>
<text text-anchor="start" x="438" y="-200.5" font-family="Helvetica,sans-Serif" font-size="10.00">+ getDigital()</text>
<text text-anchor="start" x="438" y="-189.5" font-family="Helvetica,sans-Serif" font-size="10.00">+ getDigitalParameters()</text>
<text text-anchor="start" x="438" y="-178.5" font-family="Helvetica,sans-Serif" font-size="10.00">+ getDigitalParametersConst()</text>
<text text-anchor="start" x="438" y="-167.5" font-family="Helvetica,sans-Serif" font-size="10.00">+ getProjectTitle()</text>
<text text-anchor="start" x="438" y="-156.5" font-family="Helvetica,sans-Serif" font-size="10.00">and 8 more...</text>
</a>
</g>
</g>
<!-- Node3&#45;&gt;Node7 -->
<g id="edge8" class="edge">
<title>Node3&#45;&gt;Node7</title>
<path fill="none" stroke="#404040" d="M752.71,-475.2C739.8,-464.9 724.31,-450.36 715,-434 695.17,-399.14 718.67,-378.38 695,-346 673.25,-316.25 640.46,-293.39 608.74,-276.62"/>
<polygon fill="none" stroke="#404040" points="608.73,-276.61 601.57,-277.45 598.04,-271.16 605.2,-270.32 608.73,-276.61"/>
<text text-anchor="middle" x="760.5" y="-404" font-family="Helvetica,sans-Serif" font-size="10.00"> &#45;comment_</text>
<text text-anchor="middle" x="760.5" y="-393" font-family="Helvetica,sans-Serif" font-size="10.00">&#45;project_title_</text>
<text text-anchor="start" x="715" y="-382" font-family="Helvetica,sans-Serif" font-size="10.00">&#45;telemetry_station</text>
<text text-anchor="middle" x="760.5" y="-371" font-family="Helvetica,sans-Serif" font-size="10.00">_address_</text>
</g>
<!-- Node4 -->
<g id="node4" class="node">
<title>Node4</title>
<g id="a_node4"><a xlink:title=" ">
<polygon fill="none" stroke="black" points="940,-463.5 940,-520.5 990,-520.5 990,-463.5 940,-463.5"/>
<text text-anchor="middle" x="965" y="-508.5" font-family="Helvetica,sans-Serif" font-size="10.00">uint8_t</text>
<polyline fill="none" stroke="black" points="940,-501.5 990,-501.5 "/>
<text text-anchor="middle" x="965" y="-489.5" font-family="Helvetica,sans-Serif" font-size="10.00"> </text>
<polyline fill="none" stroke="black" points="940,-482.5 990,-482.5 "/>
<text text-anchor="middle" x="965" y="-470.5" font-family="Helvetica,sans-Serif" font-size="10.00"> </text>
</a>
</g>
</g>
<!-- Node4&#45;&gt;Node2 -->
<g id="edge3" class="edge">
<title>Node4&#45;&gt;Node2</title>
<path fill="none" stroke="#404040" d="M965,-463.12C965,-420 965,-336.68 965,-284.82"/>
<polygon fill="none" stroke="#404040" points="965,-284.67 961,-278.67 965,-272.67 969,-278.67 965,-284.67"/>
<text text-anchor="middle" x="1010.5" y="-393" font-family="Helvetica,sans-Serif" font-size="10.00"> +destination_ssid</text>
<text text-anchor="middle" x="1010.5" y="-382" font-family="Helvetica,sans-Serif" font-size="10.00">+source_ssid</text>
</g>
<!-- Node5 -->
<g id="node5" class="node">
<title>Node5</title>
<g id="a_node5"><a xlink:title=" ">
<polygon fill="none" stroke="black" points="1039.5,-463.5 1039.5,-520.5 1118.5,-520.5 1118.5,-463.5 1039.5,-463.5"/>
<text text-anchor="middle" x="1079" y="-508.5" font-family="Helvetica,sans-Serif" font-size="10.00">SymbolTable</text>
<polyline fill="none" stroke="black" points="1039.5,-501.5 1118.5,-501.5 "/>
<text text-anchor="middle" x="1079" y="-489.5" font-family="Helvetica,sans-Serif" font-size="10.00"> </text>
<polyline fill="none" stroke="black" points="1039.5,-482.5 1118.5,-482.5 "/>
<text text-anchor="middle" x="1079" y="-470.5" font-family="Helvetica,sans-Serif" font-size="10.00"> </text>
</a>
</g>
</g>
<!-- Node5&#45;&gt;Node2 -->
<g id="edge4" class="edge">
<title>Node5&#45;&gt;Node2</title>
<path fill="none" stroke="#404040" d="M1077.59,-463.44C1075.26,-426.87 1069.55,-364.72 1057,-346 1048.34,-333.08 1038.38,-338.6 1027,-328 1013.06,-315.01 1000.42,-298.4 990.25,-283.08"/>
<polygon fill="none" stroke="#404040" points="990.09,-282.85 983.49,-279.96 983.61,-272.75 990.22,-275.64 990.09,-282.85"/>
<text text-anchor="middle" x="1114" y="-387.5" font-family="Helvetica,sans-Serif" font-size="10.00"> +symbol_table</text>
</g>
<!-- Node6 -->
<g id="node6" class="node">
<title>Node6</title>
<g id="a_node6"><a xlink:title=" ">
<polygon fill="none" stroke="black" points="1161,-463.5 1161,-520.5 1199,-520.5 1199,-463.5 1161,-463.5"/>
<text text-anchor="middle" x="1180" y="-508.5" font-family="Helvetica,sans-Serif" font-size="10.00">char</text>
<polyline fill="none" stroke="black" points="1161,-501.5 1199,-501.5 "/>
<text text-anchor="middle" x="1180" y="-489.5" font-family="Helvetica,sans-Serif" font-size="10.00"> </text>
<polyline fill="none" stroke="black" points="1161,-482.5 1199,-482.5 "/>
<text text-anchor="middle" x="1180" y="-470.5" font-family="Helvetica,sans-Serif" font-size="10.00"> </text>
</a>
</g>
</g>
<!-- Node6&#45;&gt;Node2 -->
<g id="edge5" class="edge">
<title>Node6&#45;&gt;Node2</title>
<path fill="none" stroke="#404040" d="M1184.4,-463.46C1187.93,-430.64 1188.03,-376.42 1157,-346 1115.35,-305.16 1076.77,-358.42 1027,-328 1009.67,-317.41 995.91,-299.94 985.79,-283.31"/>
<polygon fill="none" stroke="#404040" points="985.62,-283.01 979.17,-279.78 979.68,-272.59 986.12,-275.82 985.62,-283.01"/>
<text text-anchor="middle" x="1209" y="-387.5" font-family="Helvetica,sans-Serif" font-size="10.00"> +symbol</text>
</g>
<!-- Node7&#45;&gt;Node1 -->
<g id="edge6" class="edge">
<title>Node7&#45;&gt;Node1</title>
<path fill="none" stroke="#404040" d="M598.04,-202.94C683.78,-167.67 815.3,-113.57 895.4,-80.63"/>
<polygon fill="none" stroke="#404040" points="895.74,-80.49 899.77,-74.51 906.84,-75.92 902.81,-81.9 895.74,-80.49"/>
<text text-anchor="middle" x="837.5" y="-123" font-family="Helvetica,sans-Serif" font-size="10.00"> +telemetry_data</text>
</g>
<!-- Node8 -->
<g id="node8" class="node">
<title>Node8</title>
<g id="a_node8"><a xlink:title=" ">
<polygon fill="none" stroke="black" points="382,-463.5 382,-520.5 508,-520.5 508,-463.5 382,-463.5"/>
<text text-anchor="middle" x="445" y="-508.5" font-family="Helvetica,sans-Serif" font-size="10.00">static constexpr size_t</text>
<polyline fill="none" stroke="black" points="382,-501.5 508,-501.5 "/>
<text text-anchor="middle" x="445" y="-489.5" font-family="Helvetica,sans-Serif" font-size="10.00"> </text>
<polyline fill="none" stroke="black" points="382,-482.5 508,-482.5 "/>
<text text-anchor="middle" x="445" y="-470.5" font-family="Helvetica,sans-Serif" font-size="10.00"> </text>
</a>
</g>
</g>
<!-- Node8&#45;&gt;Node7 -->
<g id="edge7" class="edge">
<title>Node8&#45;&gt;Node7</title>
<path fill="none" stroke="#404040" d="M436.96,-463.23C429.73,-433.45 422.06,-385.17 435,-346 435.8,-343.57 436.69,-341.14 437.64,-338.73"/>
<polygon fill="none" stroke="#404040" points="437.73,-338.54 436.51,-331.44 442.6,-327.57 443.82,-334.68 437.73,-338.54"/>
<text text-anchor="start" x="435" y="-426" font-family="Helvetica,sans-Serif" font-size="10.00"> +COMMENT_MAX_LENGTH</text>
<text text-anchor="middle" x="503" y="-415" font-family="Helvetica,sans-Serif" font-size="10.00">_</text>
<text text-anchor="start" x="435" y="-404" font-family="Helvetica,sans-Serif" font-size="10.00">+PROJECT_TITLE</text>
<text text-anchor="middle" x="503" y="-393" font-family="Helvetica,sans-Serif" font-size="10.00">_MAX_LENGTH_</text>
<text text-anchor="start" x="435" y="-382" font-family="Helvetica,sans-Serif" font-size="10.00">+SEQUENCE_NUMBER</text>
<text text-anchor="middle" x="503" y="-371" font-family="Helvetica,sans-Serif" font-size="10.00">_MAX_</text>
<text text-anchor="start" x="435" y="-360" font-family="Helvetica,sans-Serif" font-size="10.00">+TELEMETRY_STATION</text>
<text text-anchor="middle" x="503" y="-349" font-family="Helvetica,sans-Serif" font-size="10.00">_ADDRESS_MAX_LENGTH_</text>
</g>
<!-- Node9 -->
<g id="node9" class="node">
<title>Node9</title>
<g id="a_node9"><a xlink:title=" ">
<polygon fill="none" stroke="black" points="565,-463.5 565,-520.5 621,-520.5 621,-463.5 565,-463.5"/>
<text text-anchor="middle" x="593" y="-508.5" font-family="Helvetica,sans-Serif" font-size="10.00">uint16_t</text>
<polyline fill="none" stroke="black" points="565,-501.5 621,-501.5 "/>
<text text-anchor="middle" x="593" y="-489.5" font-family="Helvetica,sans-Serif" font-size="10.00"> </text>
<polyline fill="none" stroke="black" points="565,-482.5 621,-482.5 "/>
<text text-anchor="middle" x="593" y="-470.5" font-family="Helvetica,sans-Serif" font-size="10.00"> </text>
</a>
</g>
</g>
<!-- Node9&#45;&gt;Node7 -->
<g id="edge9" class="edge">
<title>Node9&#45;&gt;Node7</title>
<path fill="none" stroke="#404040" d="M591.6,-463.36C589.47,-433.69 584.13,-385.5 571,-346 570.21,-343.63 569.37,-341.25 568.49,-338.86"/>
<polygon fill="none" stroke="#404040" points="568.49,-338.85 562.56,-334.75 564.07,-327.7 570,-331.8 568.49,-338.85"/>
<text text-anchor="middle" x="640" y="-387.5" font-family="Helvetica,sans-Serif" font-size="10.00"> &#45;sequence_number_</text>
</g>
<!-- Node10 -->
<g id="node10" class="node">
<title>Node10</title>
<g id="a_node10"><a xlink:title=" ">
<polygon fill="none" stroke="black" points="0,-458 0,-526 210,-526 210,-458 0,-458"/>
<text text-anchor="start" x="8" y="-514" font-family="Helvetica,sans-Serif" font-size="10.00">array&lt; signal_easel</text>
<text text-anchor="middle" x="105" y="-503" font-family="Helvetica,sans-Serif" font-size="10.00">::aprs::telemetry::AnalogParameter, 5 &gt;</text>
<polyline fill="none" stroke="black" points="0,-496 210,-496 "/>
<text text-anchor="middle" x="105" y="-484" font-family="Helvetica,sans-Serif" font-size="10.00"> </text>
<polyline fill="none" stroke="black" points="0,-477 210,-477 "/>
<text text-anchor="middle" x="105" y="-465" font-family="Helvetica,sans-Serif" font-size="10.00"> </text>
</a>
</g>
</g>
<!-- Node10&#45;&gt;Node7 -->
<g id="edge10" class="edge">
<title>Node10&#45;&gt;Node7</title>
<path fill="none" stroke="#404040" d="M114.99,-457.78C126.52,-424.9 148.57,-375.36 184,-346 250.6,-290.8 346.4,-264.02 417.64,-251.14"/>
<polygon fill="none" stroke="#404040" points="417.92,-251.09 423.15,-246.12 429.75,-249.04 424.52,-254 417.92,-251.09"/>
<text text-anchor="middle" x="237.5" y="-387.5" font-family="Helvetica,sans-Serif" font-size="10.00"> &#45;analog_parameters_</text>
</g>
<!-- Node11 -->
<g id="node11" class="node">
<title>Node11</title>
<g id="a_node11"><a xlink:title=" ">
<polygon fill="none" stroke="black" points="228.5,-452.5 228.5,-531.5 363.5,-531.5 363.5,-452.5 228.5,-452.5"/>
<text text-anchor="start" x="236.5" y="-519.5" font-family="Helvetica,sans-Serif" font-size="10.00">array&lt; signal_easel</text>
<text text-anchor="start" x="236.5" y="-508.5" font-family="Helvetica,sans-Serif" font-size="10.00">::aprs::telemetry::Digital</text>
<text text-anchor="middle" x="296" y="-497.5" font-family="Helvetica,sans-Serif" font-size="10.00">Parameter, 8 &gt;</text>
<polyline fill="none" stroke="black" points="228.5,-490.5 363.5,-490.5 "/>
<text text-anchor="middle" x="296" y="-478.5" font-family="Helvetica,sans-Serif" font-size="10.00"> </text>
<polyline fill="none" stroke="black" points="228.5,-471.5 363.5,-471.5 "/>
<text text-anchor="middle" x="296" y="-459.5" font-family="Helvetica,sans-Serif" font-size="10.00"> </text>
</a>
</g>
</g>
<!-- Node11&#45;&gt;Node7 -->
<g id="edge11" class="edge">
<title>Node11&#45;&gt;Node7</title>
<path fill="none" stroke="#404040" d="M293.55,-452.44C293.5,-421.05 298.02,-377.02 320,-346 344.05,-312.05 382.47,-287.76 418.8,-271.04"/>
<polygon fill="none" stroke="#404040" points="419.02,-270.95 422.89,-264.86 429.99,-266.09 426.12,-272.18 419.02,-270.95"/>
<text text-anchor="middle" x="372.5" y="-387.5" font-family="Helvetica,sans-Serif" font-size="10.00"> &#45;digital_parameters_</text>
</g>
<!-- Node12 -->
<g id="node12" class="node">
<title>Node12</title>
<g id="a_node12"><a xlink:title=" ">
<polygon fill="none" stroke="black" points="1035.5,-210 1035.5,-267 1074.5,-267 1074.5,-210 1035.5,-210"/>
<text text-anchor="middle" x="1055" y="-255" font-family="Helvetica,sans-Serif" font-size="10.00">Type</text>
<polyline fill="none" stroke="black" points="1035.5,-248 1074.5,-248 "/>
<text text-anchor="middle" x="1055" y="-236" font-family="Helvetica,sans-Serif" font-size="10.00"> </text>
<polyline fill="none" stroke="black" points="1035.5,-229 1074.5,-229 "/>
<text text-anchor="middle" x="1055" y="-217" font-family="Helvetica,sans-Serif" font-size="10.00"> </text>
</a>
</g>
</g>
<!-- Node12&#45;&gt;Node1 -->
<g id="edge12" class="edge">
<title>Node12&#45;&gt;Node1</title>
<path fill="none" stroke="#404040" d="M1047.79,-209.72C1042.72,-191.94 1035.21,-168.61 1026,-149 1020.18,-136.6 1013.08,-123.86 1005.81,-111.86"/>
<polygon fill="none" stroke="#404040" points="1005.72,-111.72 999.16,-108.73 999.4,-101.52 1005.96,-104.51 1005.72,-111.72"/>
<text text-anchor="middle" x="1059.5" y="-123" font-family="Helvetica,sans-Serif" font-size="10.00"> +telemetry_type</text>
</g>
</g>
</svg>
