<?xml version="1.0" encoding="UTF-8" standalone="no"?>
<!DOCTYPE svg PUBLIC "-//W3C//DTD SVG 1.1//EN"
 "http://www.w3.org/Graphics/SVG/1.1/DTD/svg11.dtd">
<!-- Generated by graphviz version 2.43.0 (0)
 -->
<!-- Title: signal_easel::aprs::Telemetry::encode Pages: 1 -->
<svg width="260pt" height="88pt"
 viewBox="0.00 0.00 260.00 88.00" xmlns="http://www.w3.org/2000/svg" xmlns:xlink="http://www.w3.org/1999/xlink">
<g id="graph0" class="graph" transform="scale(1 1) rotate(0) translate(4 84)">
<title>signal_easel::aprs::Telemetry::encode</title>
<!-- Node1 -->
<g id="node1" class="node">
<title>Node1</title>
<g id="a_node1"><a xlink:title=" ">
<polygon fill="#bfbfbf" stroke="black" points="0,-24.5 0,-54.5 112,-54.5 112,-24.5 0,-24.5"/>
<text text-anchor="start" x="8" y="-42.5" font-family="Helvetica,sans-Serif" font-size="10.00">signal_easel::aprs</text>
<text text-anchor="middle" x="56" y="-31.5" font-family="Helvetica,sans-Serif" font-size="10.00">::Telemetry::encode</text>
</a>
</g>
</g>
<!-- Node2 -->
<g id="node2" class="node">
<title>Node2</title>
<g id="a_node2"><a xlink:href="namespacesignal__easel_1_1aprs.html#a660860dd7ee46cb33dc7b9546c7320ed" target="_top" xlink:title=" ">
<polygon fill="none" stroke="black" points="148,-49.5 148,-79.5 252,-79.5 252,-49.5 148,-49.5"/>
<text text-anchor="start" x="156" y="-67.5" font-family="Helvetica,sans-Serif" font-size="10.00">signal_easel::aprs</text>
<text text-anchor="middle" x="200" y="-56.5" font-family="Helvetica,sans-Serif" font-size="10.00">::addAnalogValue</text>
</a>
</g>
</g>
<!-- Node1&#45;&gt;Node2 -->
<g id="edge1" class="edge">
<title>Node1&#45;&gt;Node2</title>
<path fill="none" stroke="midnightblue" d="M112.31,-49.24C120.7,-50.72 129.41,-52.25 137.92,-53.75"/>
<polygon fill="midnightblue" stroke="midnightblue" points="137.33,-57.2 147.79,-55.48 138.55,-50.3 137.33,-57.2"/>
</g>
<!-- Node3 -->
<g id="node3" class="node">
<title>Node3</title>
<g id="a_node3"><a xlink:href="namespacesignal__easel_1_1aprs.html#a5e2edd6317f48aa03169b85a3c88f1bd" target="_top" xlink:title=" ">
<polygon fill="none" stroke="black" points="148,-0.5 148,-30.5 252,-30.5 252,-0.5 148,-0.5"/>
<text text-anchor="start" x="156" y="-18.5" font-family="Helvetica,sans-Serif" font-size="10.00">signal_easel::aprs</text>
<text text-anchor="middle" x="200" y="-7.5" font-family="Helvetica,sans-Serif" font-size="10.00">::addUnitOrParam</text>
</a>
</g>
</g>
<!-- Node1&#45;&gt;Node3 -->
<g id="edge2" class="edge">
<title>Node1&#45;&gt;Node3</title>
<path fill="none" stroke="midnightblue" d="M112.31,-30.15C120.7,-28.73 129.41,-27.26 137.92,-25.82"/>
<polygon fill="midnightblue" stroke="midnightblue" points="138.51,-29.27 147.79,-24.16 137.34,-22.37 138.51,-29.27"/>
</g>
</g>
</svg>
