<?xml version="1.0" encoding="UTF-8" standalone="no"?>
<!DOCTYPE svg PUBLIC "-//W3C//DTD SVG 1.1//EN"
 "http://www.w3.org/Graphics/SVG/1.1/DTD/svg11.dtd">
<!-- Generated by graphviz version 2.43.0 (0)
 -->
<!-- Title: signal_easel::sstv::Settings Pages: 1 -->
<svg width="371pt" height="309pt"
 viewBox="0.00 0.00 371.00 309.00" xmlns="http://www.w3.org/2000/svg" xmlns:xlink="http://www.w3.org/1999/xlink">
<g id="graph0" class="graph" transform="scale(1 1) rotate(0) translate(4 305)">
<title>signal_easel::sstv::Settings</title>
<!-- Node1 -->
<g id="node1" class="node">
<title>Node1</title>
<g id="a_node1"><a xlink:title="Settings for SSTV modulation.">
<polygon fill="#bfbfbf" stroke="black" points="164,-0.5 164,-68.5 268,-68.5 268,-0.5 164,-0.5"/>
<text text-anchor="start" x="172" y="-56.5" font-family="Helvetica,sans-Serif" font-size="10.00">signal_easel::sstv</text>
<text text-anchor="middle" x="216" y="-45.5" font-family="Helvetica,sans-Serif" font-size="10.00">::Settings</text>
<polyline fill="none" stroke="black" points="164,-38.5 268,-38.5 "/>
<text text-anchor="middle" x="216" y="-26.5" font-family="Helvetica,sans-Serif" font-size="10.00"> </text>
<polyline fill="none" stroke="black" points="164,-19.5 268,-19.5 "/>
<text text-anchor="middle" x="216" y="-7.5" font-family="Helvetica,sans-Serif" font-size="10.00"> </text>
</a>
</g>
</g>
<!-- Node2 -->
<g id="node2" class="node">
<title>Node2</title>
<g id="a_node2"><a xlink:href="structsignal__easel_1_1Settings.html" target="_top" xlink:title="The universal settings for MWAV.">
<polygon fill="none" stroke="black" points="42.5,-116.5 42.5,-173.5 165.5,-173.5 165.5,-116.5 42.5,-116.5"/>
<text text-anchor="middle" x="104" y="-161.5" font-family="Helvetica,sans-Serif" font-size="10.00">signal_easel::Settings</text>
<polyline fill="none" stroke="black" points="42.5,-154.5 165.5,-154.5 "/>
<text text-anchor="middle" x="104" y="-142.5" font-family="Helvetica,sans-Serif" font-size="10.00"> </text>
<polyline fill="none" stroke="black" points="42.5,-135.5 165.5,-135.5 "/>
<text text-anchor="middle" x="104" y="-123.5" font-family="Helvetica,sans-Serif" font-size="10.00"> </text>
</a>
</g>
</g>
<!-- Node2&#45;&gt;Node1 -->
<g id="edge1" class="edge">
<title>Node2&#45;&gt;Node1</title>
<path fill="none" stroke="midnightblue" d="M139.83,-109.29C153.32,-96.23 168.6,-81.42 181.92,-68.52"/>
<polygon fill="none" stroke="midnightblue" points="137.3,-106.87 132.55,-116.34 142.17,-111.9 137.3,-106.87"/>
</g>
<!-- Node3 -->
<g id="node3" class="node">
<title>Node3</title>
<g id="a_node3"><a xlink:title=" ">
<polygon fill="none" stroke="black" points="0,-243.5 0,-300.5 44,-300.5 44,-243.5 0,-243.5"/>
<text text-anchor="middle" x="22" y="-288.5" font-family="Helvetica,sans-Serif" font-size="10.00">string</text>
<polyline fill="none" stroke="black" points="0,-281.5 44,-281.5 "/>
<text text-anchor="middle" x="22" y="-269.5" font-family="Helvetica,sans-Serif" font-size="10.00"> </text>
<polyline fill="none" stroke="black" points="0,-262.5 44,-262.5 "/>
<text text-anchor="middle" x="22" y="-250.5" font-family="Helvetica,sans-Serif" font-size="10.00"> </text>
</a>
</g>
</g>
<!-- Node3&#45;&gt;Node2 -->
<g id="edge2" class="edge">
<title>Node3&#45;&gt;Node2</title>
<path fill="none" stroke="#404040" d="M25.73,-243.22C28.9,-227.19 34.66,-207.25 45,-192 47.33,-188.56 50,-185.27 52.89,-182.13"/>
<polygon fill="none" stroke="#404040" points="52.91,-182.11 54.41,-175.06 61.49,-173.73 59.99,-180.78 52.91,-182.11"/>
<text text-anchor="middle" x="72.5" y="-206" font-family="Helvetica,sans-Serif" font-size="10.00"> +call_sign</text>
</g>
<!-- Node4 -->
<g id="node4" class="node">
<title>Node4</title>
<g id="a_node4"><a xlink:title=" ">
<polygon fill="none" stroke="black" points="62.5,-243.5 62.5,-300.5 145.5,-300.5 145.5,-243.5 62.5,-243.5"/>
<text text-anchor="middle" x="104" y="-288.5" font-family="Helvetica,sans-Serif" font-size="10.00">CallSignMode</text>
<polyline fill="none" stroke="black" points="62.5,-281.5 145.5,-281.5 "/>
<text text-anchor="middle" x="104" y="-269.5" font-family="Helvetica,sans-Serif" font-size="10.00"> </text>
<polyline fill="none" stroke="black" points="62.5,-262.5 145.5,-262.5 "/>
<text text-anchor="middle" x="104" y="-250.5" font-family="Helvetica,sans-Serif" font-size="10.00"> </text>
</a>
</g>
</g>
<!-- Node4&#45;&gt;Node2 -->
<g id="edge3" class="edge">
<title>Node4&#45;&gt;Node2</title>
<path fill="none" stroke="#404040" d="M104,-243.26C104,-226.35 104,-204.46 104,-185.73"/>
<polygon fill="none" stroke="#404040" points="104,-185.66 100,-179.66 104,-173.66 108,-179.66 104,-185.66"/>
<text text-anchor="middle" x="148" y="-206" font-family="Helvetica,sans-Serif" font-size="10.00"> +call_sign_mode</text>
</g>
<!-- Node5 -->
<g id="node5" class="node">
<title>Node5</title>
<g id="a_node5"><a xlink:title=" ">
<polygon fill="none" stroke="black" points="190,-243.5 190,-300.5 240,-300.5 240,-243.5 190,-243.5"/>
<text text-anchor="middle" x="215" y="-288.5" font-family="Helvetica,sans-Serif" font-size="10.00">double</text>
<polyline fill="none" stroke="black" points="190,-281.5 240,-281.5 "/>
<text text-anchor="middle" x="215" y="-269.5" font-family="Helvetica,sans-Serif" font-size="10.00"> </text>
<polyline fill="none" stroke="black" points="190,-262.5 240,-262.5 "/>
<text text-anchor="middle" x="215" y="-250.5" font-family="Helvetica,sans-Serif" font-size="10.00"> </text>
</a>
</g>
</g>
<!-- Node5&#45;&gt;Node2 -->
<g id="edge4" class="edge">
<title>Node5&#45;&gt;Node2</title>
<path fill="none" stroke="#404040" d="M212.8,-243.24C210.25,-226.82 204.77,-206.47 193,-192 188.18,-186.07 182.38,-180.81 176.1,-176.18"/>
<polygon fill="none" stroke="#404040" points="175.88,-176.04 168.67,-176.06 165.88,-169.41 173.09,-169.39 175.88,-176.04"/>
<text text-anchor="middle" x="251" y="-217" font-family="Helvetica,sans-Serif" font-size="10.00"> +amplitude</text>
<text text-anchor="start" x="208" y="-206" font-family="Helvetica,sans-Serif" font-size="10.00">+call_sign_pause</text>
<text text-anchor="middle" x="251" y="-195" font-family="Helvetica,sans-Serif" font-size="10.00">_seconds</text>
</g>
<!-- Node6 -->
<g id="node6" class="node">
<title>Node6</title>
<g id="a_node6"><a xlink:title=" ">
<polygon fill="none" stroke="black" points="183.5,-116.5 183.5,-173.5 248.5,-173.5 248.5,-116.5 183.5,-116.5"/>
<text text-anchor="middle" x="216" y="-161.5" font-family="Helvetica,sans-Serif" font-size="10.00">SstvMode</text>
<polyline fill="none" stroke="black" points="183.5,-154.5 248.5,-154.5 "/>
<text text-anchor="middle" x="216" y="-142.5" font-family="Helvetica,sans-Serif" font-size="10.00"> </text>
<polyline fill="none" stroke="black" points="183.5,-135.5 248.5,-135.5 "/>
<text text-anchor="middle" x="216" y="-123.5" font-family="Helvetica,sans-Serif" font-size="10.00"> </text>
</a>
</g>
</g>
<!-- Node6&#45;&gt;Node1 -->
<g id="edge5" class="edge">
<title>Node6&#45;&gt;Node1</title>
<path fill="none" stroke="#404040" d="M216,-116.34C216,-105.53 216,-92.85 216,-80.77"/>
<polygon fill="none" stroke="#404040" points="216,-80.52 212,-74.52 216,-68.52 220,-74.52 216,-80.52"/>
<text text-anchor="middle" x="236" y="-90" font-family="Helvetica,sans-Serif" font-size="10.00"> +mode</text>
</g>
<!-- Node7 -->
<g id="node7" class="node">
<title>Node7</title>
<g id="a_node7"><a xlink:title=" ">
<polygon fill="none" stroke="black" points="267,-116.5 267,-173.5 305,-173.5 305,-116.5 267,-116.5"/>
<text text-anchor="middle" x="286" y="-161.5" font-family="Helvetica,sans-Serif" font-size="10.00">bool</text>
<polyline fill="none" stroke="black" points="267,-154.5 305,-154.5 "/>
<text text-anchor="middle" x="286" y="-142.5" font-family="Helvetica,sans-Serif" font-size="10.00"> </text>
<polyline fill="none" stroke="black" points="267,-135.5 305,-135.5 "/>
<text text-anchor="middle" x="286" y="-123.5" font-family="Helvetica,sans-Serif" font-size="10.00"> </text>
</a>
</g>
</g>
<!-- Node7&#45;&gt;Node1 -->
<g id="edge6" class="edge">
<title>Node7&#45;&gt;Node1</title>
<path fill="none" stroke="#404040" d="M275.19,-116.23C270.99,-106.66 265.79,-96.08 260,-87 258.13,-84.07 256.11,-81.13 254,-78.23"/>
<polygon fill="none" stroke="#404040" points="253.85,-78.03 247.02,-75.72 246.53,-68.53 253.36,-70.84 253.85,-78.03"/>
<text text-anchor="middle" x="314.5" y="-90" font-family="Helvetica,sans-Serif" font-size="10.00"> +overlay_call_sign</text>
</g>
</g>
</svg>
