<?xml version="1.0" encoding="UTF-8" standalone="no"?>
<!DOCTYPE svg PUBLIC "-//W3C//DTD SVG 1.1//EN"
 "http://www.w3.org/Graphics/SVG/1.1/DTD/svg11.dtd">
<!-- Generated by graphviz version 2.43.0 (0)
 -->
<!-- Title: signal_easel::aprs::Experimental Pages: 1 -->
<svg width="469pt" height="331pt"
 viewBox="0.00 0.00 468.50 331.00" xmlns="http://www.w3.org/2000/svg" xmlns:xlink="http://www.w3.org/1999/xlink">
<g id="graph0" class="graph" transform="scale(1 1) rotate(0) translate(4 327)">
<title>signal_easel::aprs::Experimental</title>
<!-- Node1 -->
<g id="node1" class="node">
<title>Node1</title>
<g id="a_node1"><a xlink:title="This packet type will have two { characters at the start.">
<polygon fill="#bfbfbf" stroke="black" points="236.5,-0.5 236.5,-90.5 340.5,-90.5 340.5,-0.5 236.5,-0.5"/>
<text text-anchor="start" x="244.5" y="-78.5" font-family="Helvetica,sans-Serif" font-size="10.00">signal_easel::aprs</text>
<text text-anchor="middle" x="288.5" y="-67.5" font-family="Helvetica,sans-Serif" font-size="10.00">::Experimental</text>
<polyline fill="none" stroke="black" points="236.5,-60.5 340.5,-60.5 "/>
<text text-anchor="middle" x="288.5" y="-48.5" font-family="Helvetica,sans-Serif" font-size="10.00"> </text>
<polyline fill="none" stroke="black" points="236.5,-41.5 340.5,-41.5 "/>
<text text-anchor="start" x="244.5" y="-29.5" font-family="Helvetica,sans-Serif" font-size="10.00">+ encode()</text>
<text text-anchor="start" x="244.5" y="-18.5" font-family="Helvetica,sans-Serif" font-size="10.00">+ getStringData()</text>
<text text-anchor="start" x="244.5" y="-7.5" font-family="Helvetica,sans-Serif" font-size="10.00">+ setStringData()</text>
</a>
</g>
</g>
<!-- Node2 -->
<g id="node2" class="node">
<title>Node2</title>
<g id="a_node2"><a xlink:href="structsignal__easel_1_1aprs_1_1Packet.html" target="_top" xlink:title=" ">
<polygon fill="none" stroke="black" points="123.5,-138.5 123.5,-206.5 227.5,-206.5 227.5,-138.5 123.5,-138.5"/>
<text text-anchor="start" x="131.5" y="-194.5" font-family="Helvetica,sans-Serif" font-size="10.00">signal_easel::aprs</text>
<text text-anchor="middle" x="175.5" y="-183.5" font-family="Helvetica,sans-Serif" font-size="10.00">::Packet</text>
<polyline fill="none" stroke="black" points="123.5,-176.5 227.5,-176.5 "/>
<text text-anchor="middle" x="175.5" y="-164.5" font-family="Helvetica,sans-Serif" font-size="10.00"> </text>
<polyline fill="none" stroke="black" points="123.5,-157.5 227.5,-157.5 "/>
<text text-anchor="middle" x="175.5" y="-145.5" font-family="Helvetica,sans-Serif" font-size="10.00"> </text>
</a>
</g>
</g>
<!-- Node2&#45;&gt;Node1 -->
<g id="edge1" class="edge">
<title>Node2&#45;&gt;Node1</title>
<path fill="none" stroke="midnightblue" d="M212.5,-130.57C224.05,-117.8 236.84,-103.65 248.58,-90.66"/>
<polygon fill="none" stroke="midnightblue" points="209.59,-128.57 205.49,-138.33 214.79,-133.26 209.59,-128.57"/>
</g>
<!-- Node3 -->
<g id="node3" class="node">
<title>Node3</title>
<g id="a_node3"><a xlink:title=" ">
<polygon fill="none" stroke="#bfbfbf" points="0,-265.5 0,-322.5 79,-322.5 79,-265.5 0,-265.5"/>
<text text-anchor="middle" x="39.5" y="-310.5" font-family="Helvetica,sans-Serif" font-size="10.00">SymbolTable</text>
<polyline fill="none" stroke="#bfbfbf" points="0,-303.5 79,-303.5 "/>
<text text-anchor="middle" x="39.5" y="-291.5" font-family="Helvetica,sans-Serif" font-size="10.00"> </text>
<polyline fill="none" stroke="#bfbfbf" points="0,-284.5 79,-284.5 "/>
<text text-anchor="middle" x="39.5" y="-272.5" font-family="Helvetica,sans-Serif" font-size="10.00"> </text>
</a>
</g>
</g>
<!-- Node3&#45;&gt;Node2 -->
<g id="edge2" class="edge">
<title>Node3&#45;&gt;Node2</title>
<path fill="none" stroke="#404040" d="M40.8,-265.24C42.73,-251.77 47.05,-236.13 56.5,-225 70.81,-208.13 91.67,-196.63 111.94,-188.85"/>
<polygon fill="none" stroke="#404040" points="112.11,-188.79 116.43,-183.02 123.42,-184.8 119.09,-190.57 112.11,-188.79"/>
<text text-anchor="middle" x="95.5" y="-233.5" font-family="Helvetica,sans-Serif" font-size="10.00"> +symbol_table</text>
</g>
<!-- Node4 -->
<g id="node4" class="node">
<title>Node4</title>
<g id="a_node4"><a xlink:title=" ">
<polygon fill="none" stroke="#bfbfbf" points="121.5,-265.5 121.5,-322.5 159.5,-322.5 159.5,-265.5 121.5,-265.5"/>
<text text-anchor="middle" x="140.5" y="-310.5" font-family="Helvetica,sans-Serif" font-size="10.00">char</text>
<polyline fill="none" stroke="#bfbfbf" points="121.5,-303.5 159.5,-303.5 "/>
<text text-anchor="middle" x="140.5" y="-291.5" font-family="Helvetica,sans-Serif" font-size="10.00"> </text>
<polyline fill="none" stroke="#bfbfbf" points="121.5,-284.5 159.5,-284.5 "/>
<text text-anchor="middle" x="140.5" y="-272.5" font-family="Helvetica,sans-Serif" font-size="10.00"> </text>
</a>
</g>
</g>
<!-- Node4&#45;&gt;Node2 -->
<g id="edge3" class="edge">
<title>Node4&#45;&gt;Node2</title>
<path fill="none" stroke="#404040" d="M137.42,-265.32C136.9,-252.75 137.53,-237.86 141.5,-225 142.25,-222.56 143.16,-220.13 144.19,-217.72"/>
<polygon fill="none" stroke="#404040" points="144.32,-217.46 143.45,-210.3 149.72,-206.75 150.59,-213.91 144.32,-217.46"/>
<text text-anchor="middle" x="165.5" y="-233.5" font-family="Helvetica,sans-Serif" font-size="10.00"> +symbol</text>
</g>
<!-- Node5 -->
<g id="node5" class="node">
<title>Node5</title>
<g id="a_node5"><a xlink:title=" ">
<polygon fill="none" stroke="#bfbfbf" points="186.5,-265.5 186.5,-322.5 236.5,-322.5 236.5,-265.5 186.5,-265.5"/>
<text text-anchor="middle" x="211.5" y="-310.5" font-family="Helvetica,sans-Serif" font-size="10.00">uint8_t</text>
<polyline fill="none" stroke="#bfbfbf" points="186.5,-303.5 236.5,-303.5 "/>
<text text-anchor="middle" x="211.5" y="-291.5" font-family="Helvetica,sans-Serif" font-size="10.00"> </text>
<polyline fill="none" stroke="#bfbfbf" points="186.5,-284.5 236.5,-284.5 "/>
<text text-anchor="middle" x="211.5" y="-272.5" font-family="Helvetica,sans-Serif" font-size="10.00"> </text>
</a>
</g>
</g>
<!-- Node5&#45;&gt;Node2 -->
<g id="edge4" class="edge">
<title>Node5&#45;&gt;Node2</title>
<path fill="none" stroke="#404040" d="M203.15,-265.28C198.95,-251.33 193.74,-234.06 188.99,-218.28"/>
<polygon fill="none" stroke="#404040" points="188.93,-218.08 183.37,-213.49 185.47,-206.59 191.03,-211.18 188.93,-218.08"/>
<text text-anchor="middle" x="243" y="-239" font-family="Helvetica,sans-Serif" font-size="10.00"> +destination_ssid</text>
<text text-anchor="middle" x="243" y="-228" font-family="Helvetica,sans-Serif" font-size="10.00">+source_ssid</text>
</g>
<!-- Node6 -->
<g id="node6" class="node">
<title>Node6</title>
<g id="a_node6"><a xlink:title=" ">
<polygon fill="none" stroke="#bfbfbf" points="303.5,-265.5 303.5,-322.5 347.5,-322.5 347.5,-265.5 303.5,-265.5"/>
<text text-anchor="middle" x="325.5" y="-310.5" font-family="Helvetica,sans-Serif" font-size="10.00">string</text>
<polyline fill="none" stroke="#bfbfbf" points="303.5,-303.5 347.5,-303.5 "/>
<text text-anchor="middle" x="325.5" y="-291.5" font-family="Helvetica,sans-Serif" font-size="10.00"> </text>
<polyline fill="none" stroke="#bfbfbf" points="303.5,-284.5 347.5,-284.5 "/>
<text text-anchor="middle" x="325.5" y="-272.5" font-family="Helvetica,sans-Serif" font-size="10.00"> </text>
</a>
</g>
</g>
<!-- Node6&#45;&gt;Node2 -->
<g id="edge5" class="edge">
<title>Node6&#45;&gt;Node2</title>
<path fill="none" stroke="#404040" d="M317.78,-265.24C312.65,-251.43 304.59,-235.5 292.5,-225 275.23,-210 263.69,-215.39 239.13,-207.38"/>
<polygon fill="none" stroke="#404040" points="238.96,-207.31 231.93,-208.9 227.75,-203.02 234.79,-201.43 238.96,-207.31"/>
<text text-anchor="middle" x="363.5" y="-239" font-family="Helvetica,sans-Serif" font-size="10.00"> +destination_address</text>
<text text-anchor="middle" x="363.5" y="-228" font-family="Helvetica,sans-Serif" font-size="10.00">+source_address</text>
</g>
<!-- Node7 -->
<g id="node7" class="node">
<title>Node7</title>
<g id="a_node7"><a xlink:title=" ">
<polygon fill="none" stroke="#bfbfbf" points="246,-144 246,-201 331,-201 331,-144 246,-144"/>
<text text-anchor="middle" x="288.5" y="-189" font-family="Helvetica,sans-Serif" font-size="10.00">unsigned char</text>
<polyline fill="none" stroke="#bfbfbf" points="246,-182 331,-182 "/>
<text text-anchor="middle" x="288.5" y="-170" font-family="Helvetica,sans-Serif" font-size="10.00"> </text>
<polyline fill="none" stroke="#bfbfbf" points="246,-163 331,-163 "/>
<text text-anchor="middle" x="288.5" y="-151" font-family="Helvetica,sans-Serif" font-size="10.00"> </text>
</a>
</g>
</g>
<!-- Node7&#45;&gt;Node1 -->
<g id="edge6" class="edge">
<title>Node7&#45;&gt;Node1</title>
<path fill="none" stroke="#404040" d="M288.5,-143.76C288.5,-131.74 288.5,-117.21 288.5,-103.09"/>
<polygon fill="none" stroke="#404040" points="288.5,-102.86 284.5,-96.86 288.5,-90.86 292.5,-96.86 288.5,-102.86"/>
<text text-anchor="middle" x="337" y="-112" font-family="Helvetica,sans-Serif" font-size="10.00"> +packet_type_char</text>
</g>
<!-- Node8 -->
<g id="node8" class="node">
<title>Node8</title>
<g id="a_node8"><a xlink:title=" ">
<polygon fill="none" stroke="#bfbfbf" points="356.5,-144 356.5,-201 460.5,-201 460.5,-144 356.5,-144"/>
<text text-anchor="middle" x="408.5" y="-189" font-family="Helvetica,sans-Serif" font-size="10.00">vector&lt; uint8_t &gt;</text>
<polyline fill="none" stroke="#bfbfbf" points="356.5,-182 460.5,-182 "/>
<text text-anchor="middle" x="408.5" y="-170" font-family="Helvetica,sans-Serif" font-size="10.00"> </text>
<polyline fill="none" stroke="#bfbfbf" points="356.5,-163 460.5,-163 "/>
<text text-anchor="middle" x="408.5" y="-151" font-family="Helvetica,sans-Serif" font-size="10.00"> </text>
</a>
</g>
</g>
<!-- Node8&#45;&gt;Node1 -->
<g id="edge7" class="edge">
<title>Node8&#45;&gt;Node1</title>
<path fill="none" stroke="#404040" d="M402.96,-143.69C399.63,-132.08 394.44,-119 386.5,-109 376.85,-96.84 364.15,-86.34 351.1,-77.61"/>
<polygon fill="none" stroke="#404040" points="350.76,-77.39 343.55,-77.57 340.62,-70.98 347.83,-70.81 350.76,-77.39"/>
<text text-anchor="middle" x="409.5" y="-112" font-family="Helvetica,sans-Serif" font-size="10.00"> +data</text>
</g>
</g>
</svg>
