<?xml version="1.0" encoding="UTF-8" standalone="no"?>
<!DOCTYPE svg PUBLIC "-//W3C//DTD SVG 1.1//EN"
 "http://www.w3.org/Graphics/SVG/1.1/DTD/svg11.dtd">
<!-- Generated by graphviz version 2.43.0 (0)
 -->
<!-- Title: signal_easel::aprs::Settings Pages: 1 -->
<svg width="735pt" height="426pt"
 viewBox="0.00 0.00 734.50 426.00" xmlns="http://www.w3.org/2000/svg" xmlns:xlink="http://www.w3.org/1999/xlink">
<g id="graph0" class="graph" transform="scale(1 1) rotate(0) translate(4 422)">
<title>signal_easel::aprs::Settings</title>
<!-- Node1 -->
<g id="node1" class="node">
<title>Node1</title>
<g id="a_node1"><a xlink:title=" ">
<polygon fill="#bfbfbf" stroke="black" points="174.5,-0.5 174.5,-68.5 278.5,-68.5 278.5,-0.5 174.5,-0.5"/>
<text text-anchor="start" x="182.5" y="-56.5" font-family="Helvetica,sans-Serif" font-size="10.00">signal_easel::aprs</text>
<text text-anchor="middle" x="226.5" y="-45.5" font-family="Helvetica,sans-Serif" font-size="10.00">::Settings</text>
<polyline fill="none" stroke="black" points="174.5,-38.5 278.5,-38.5 "/>
<text text-anchor="middle" x="226.5" y="-26.5" font-family="Helvetica,sans-Serif" font-size="10.00"> </text>
<polyline fill="none" stroke="black" points="174.5,-19.5 278.5,-19.5 "/>
<text text-anchor="start" x="182.5" y="-7.5" font-family="Helvetica,sans-Serif" font-size="10.00">+ Settings()</text>
</a>
</g>
</g>
<!-- Node2 -->
<g id="node2" class="node">
<title>Node2</title>
<g id="a_node2"><a xlink:href="structsignal__easel_1_1afsk_1_1Settings.html" target="_top" xlink:title="Settings for AFSK modulation/demodulation.">
<polygon fill="none" stroke="black" points="335.5,-106.5 335.5,-174.5 439.5,-174.5 439.5,-106.5 335.5,-106.5"/>
<text text-anchor="start" x="343.5" y="-162.5" font-family="Helvetica,sans-Serif" font-size="10.00">signal_easel::afsk</text>
<text text-anchor="middle" x="387.5" y="-151.5" font-family="Helvetica,sans-Serif" font-size="10.00">::Settings</text>
<polyline fill="none" stroke="black" points="335.5,-144.5 439.5,-144.5 "/>
<text text-anchor="middle" x="387.5" y="-132.5" font-family="Helvetica,sans-Serif" font-size="10.00"> </text>
<polyline fill="none" stroke="black" points="335.5,-125.5 439.5,-125.5 "/>
<text text-anchor="middle" x="387.5" y="-113.5" font-family="Helvetica,sans-Serif" font-size="10.00"> </text>
</a>
</g>
</g>
<!-- Node2&#45;&gt;Node1 -->
<g id="edge1" class="edge">
<title>Node2&#45;&gt;Node1</title>
<path fill="none" stroke="midnightblue" d="M327.65,-100.84C311.22,-90.23 293.56,-78.82 277.67,-68.56"/>
<polygon fill="none" stroke="midnightblue" points="325.82,-103.82 336.12,-106.31 329.62,-97.94 325.82,-103.82"/>
</g>
<!-- Node3 -->
<g id="node3" class="node">
<title>Node3</title>
<g id="a_node3"><a xlink:href="structsignal__easel_1_1Settings.html" target="_top" xlink:title="The universal settings for MWAV.">
<polygon fill="none" stroke="black" points="475,-228 475,-285 598,-285 598,-228 475,-228"/>
<text text-anchor="middle" x="536.5" y="-273" font-family="Helvetica,sans-Serif" font-size="10.00">signal_easel::Settings</text>
<polyline fill="none" stroke="black" points="475,-266 598,-266 "/>
<text text-anchor="middle" x="536.5" y="-254" font-family="Helvetica,sans-Serif" font-size="10.00"> </text>
<polyline fill="none" stroke="black" points="475,-247 598,-247 "/>
<text text-anchor="middle" x="536.5" y="-235" font-family="Helvetica,sans-Serif" font-size="10.00"> </text>
</a>
</g>
</g>
<!-- Node3&#45;&gt;Node2 -->
<g id="edge2" class="edge">
<title>Node3&#45;&gt;Node2</title>
<path fill="none" stroke="midnightblue" d="M531.66,-218.18C528.99,-209.09 524.86,-199.99 518.5,-193 498.11,-170.59 466.73,-157.81 439.8,-150.58"/>
<polygon fill="none" stroke="midnightblue" points="528.27,-219.04 534.03,-227.93 535.07,-217.39 528.27,-219.04"/>
</g>
<!-- Node4 -->
<g id="node4" class="node">
<title>Node4</title>
<g id="a_node4"><a xlink:title=" ">
<polygon fill="none" stroke="#bfbfbf" points="622.5,-360.5 622.5,-417.5 672.5,-417.5 672.5,-360.5 622.5,-360.5"/>
<text text-anchor="middle" x="647.5" y="-405.5" font-family="Helvetica,sans-Serif" font-size="10.00">double</text>
<polyline fill="none" stroke="#bfbfbf" points="622.5,-398.5 672.5,-398.5 "/>
<text text-anchor="middle" x="647.5" y="-386.5" font-family="Helvetica,sans-Serif" font-size="10.00"> </text>
<polyline fill="none" stroke="#bfbfbf" points="622.5,-379.5 672.5,-379.5 "/>
<text text-anchor="middle" x="647.5" y="-367.5" font-family="Helvetica,sans-Serif" font-size="10.00"> </text>
</a>
</g>
</g>
<!-- Node4&#45;&gt;Node3 -->
<g id="edge3" class="edge">
<title>Node4&#45;&gt;Node3</title>
<path fill="none" stroke="#404040" d="M645.05,-360.44C642.41,-344.09 636.92,-323.75 625.5,-309 620.58,-302.65 614.64,-296.93 608.19,-291.84"/>
<polygon fill="none" stroke="#404040" points="608.16,-291.82 600.96,-291.55 598.43,-284.8 605.63,-285.06 608.16,-291.82"/>
<text text-anchor="middle" x="683.5" y="-334" font-family="Helvetica,sans-Serif" font-size="10.00"> +amplitude</text>
<text text-anchor="start" x="640.5" y="-323" font-family="Helvetica,sans-Serif" font-size="10.00">+call_sign_pause</text>
<text text-anchor="middle" x="683.5" y="-312" font-family="Helvetica,sans-Serif" font-size="10.00">_seconds</text>
</g>
<!-- Node5 -->
<g id="node5" class="node">
<title>Node5</title>
<g id="a_node5"><a xlink:title=" ">
<polygon fill="none" stroke="#bfbfbf" points="495,-360.5 495,-417.5 578,-417.5 578,-360.5 495,-360.5"/>
<text text-anchor="middle" x="536.5" y="-405.5" font-family="Helvetica,sans-Serif" font-size="10.00">CallSignMode</text>
<polyline fill="none" stroke="#bfbfbf" points="495,-398.5 578,-398.5 "/>
<text text-anchor="middle" x="536.5" y="-386.5" font-family="Helvetica,sans-Serif" font-size="10.00"> </text>
<polyline fill="none" stroke="#bfbfbf" points="495,-379.5 578,-379.5 "/>
<text text-anchor="middle" x="536.5" y="-367.5" font-family="Helvetica,sans-Serif" font-size="10.00"> </text>
</a>
</g>
</g>
<!-- Node5&#45;&gt;Node3 -->
<g id="edge4" class="edge">
<title>Node5&#45;&gt;Node3</title>
<path fill="none" stroke="#404040" d="M536.5,-360.32C536.5,-341.98 536.5,-317.64 536.5,-297.24"/>
<polygon fill="none" stroke="#404040" points="536.5,-297.14 532.5,-291.14 536.5,-285.14 540.5,-291.14 536.5,-297.14"/>
<text text-anchor="middle" x="580.5" y="-323" font-family="Helvetica,sans-Serif" font-size="10.00"> +call_sign_mode</text>
</g>
<!-- Node6 -->
<g id="node6" class="node">
<title>Node6</title>
<g id="a_node6"><a xlink:title=" ">
<polygon fill="none" stroke="#bfbfbf" points="367.5,-360.5 367.5,-417.5 411.5,-417.5 411.5,-360.5 367.5,-360.5"/>
<text text-anchor="middle" x="389.5" y="-405.5" font-family="Helvetica,sans-Serif" font-size="10.00">string</text>
<polyline fill="none" stroke="#bfbfbf" points="367.5,-398.5 411.5,-398.5 "/>
<text text-anchor="middle" x="389.5" y="-386.5" font-family="Helvetica,sans-Serif" font-size="10.00"> </text>
<polyline fill="none" stroke="#bfbfbf" points="367.5,-379.5 411.5,-379.5 "/>
<text text-anchor="middle" x="389.5" y="-367.5" font-family="Helvetica,sans-Serif" font-size="10.00"> </text>
</a>
</g>
</g>
<!-- Node6&#45;&gt;Node3 -->
<g id="edge5" class="edge">
<title>Node6&#45;&gt;Node3</title>
<path fill="none" stroke="#404040" d="M411.85,-367.78C429.59,-351.77 455.06,-328.87 477.5,-309 483.25,-303.91 489.33,-298.57 495.31,-293.32"/>
<polygon fill="none" stroke="#404040" points="495.55,-293.11 497.43,-286.15 504.58,-285.22 502.7,-292.18 495.55,-293.11"/>
<text text-anchor="middle" x="505" y="-323" font-family="Helvetica,sans-Serif" font-size="10.00"> +call_sign</text>
</g>
<!-- Node9 -->
<g id="node9" class="node">
<title>Node9</title>
<g id="a_node9"><a xlink:href="structsignal__easel_1_1aprs_1_1Packet.html" target="_top" xlink:title=" ">
<polygon fill="none" stroke="black" points="146.5,-222.5 146.5,-290.5 250.5,-290.5 250.5,-222.5 146.5,-222.5"/>
<text text-anchor="start" x="154.5" y="-278.5" font-family="Helvetica,sans-Serif" font-size="10.00">signal_easel::aprs</text>
<text text-anchor="middle" x="198.5" y="-267.5" font-family="Helvetica,sans-Serif" font-size="10.00">::Packet</text>
<polyline fill="none" stroke="black" points="146.5,-260.5 250.5,-260.5 "/>
<text text-anchor="middle" x="198.5" y="-248.5" font-family="Helvetica,sans-Serif" font-size="10.00"> </text>
<polyline fill="none" stroke="black" points="146.5,-241.5 250.5,-241.5 "/>
<text text-anchor="middle" x="198.5" y="-229.5" font-family="Helvetica,sans-Serif" font-size="10.00"> </text>
</a>
</g>
</g>
<!-- Node6&#45;&gt;Node9 -->
<g id="edge12" class="edge">
<title>Node6&#45;&gt;Node9</title>
<path fill="none" stroke="#404040" d="M367.48,-374.4C354.74,-365.95 338.84,-354.36 326.5,-342 313.69,-329.16 316.72,-320.25 302.5,-309 288.66,-298.05 280.74,-299.22 261.65,-291.51"/>
<polygon fill="none" stroke="#404040" points="261.51,-291.45 254.4,-292.66 250.55,-286.56 257.66,-285.35 261.51,-291.45"/>
<text text-anchor="middle" x="381.5" y="-328.5" font-family="Helvetica,sans-Serif" font-size="10.00"> +destination_address</text>
<text text-anchor="middle" x="381.5" y="-317.5" font-family="Helvetica,sans-Serif" font-size="10.00">+source_address</text>
</g>
<!-- Node7 -->
<g id="node7" class="node">
<title>Node7</title>
<g id="a_node7"><a xlink:title=" ">
<polygon fill="none" stroke="#bfbfbf" points="268.5,-228 268.5,-285 342.5,-285 342.5,-228 268.5,-228"/>
<text text-anchor="middle" x="305.5" y="-273" font-family="Helvetica,sans-Serif" font-size="10.00">BitEncoding</text>
<polyline fill="none" stroke="#bfbfbf" points="268.5,-266 342.5,-266 "/>
<text text-anchor="middle" x="305.5" y="-254" font-family="Helvetica,sans-Serif" font-size="10.00"> </text>
<polyline fill="none" stroke="#bfbfbf" points="268.5,-247 342.5,-247 "/>
<text text-anchor="middle" x="305.5" y="-235" font-family="Helvetica,sans-Serif" font-size="10.00"> </text>
</a>
</g>
</g>
<!-- Node7&#45;&gt;Node2 -->
<g id="edge6" class="edge">
<title>Node7&#45;&gt;Node2</title>
<path fill="none" stroke="#404040" d="M306.43,-227.73C307.88,-216.26 311.01,-203.28 317.5,-193 320.1,-188.88 323.15,-184.99 326.51,-181.32"/>
<polygon fill="none" stroke="#404040" points="326.78,-181.05 328.29,-174 335.38,-172.68 333.87,-179.73 326.78,-181.05"/>
<text text-anchor="middle" x="354.5" y="-196" font-family="Helvetica,sans-Serif" font-size="10.00"> +bit_encoding</text>
</g>
<!-- Node8 -->
<g id="node8" class="node">
<title>Node8</title>
<g id="a_node8"><a xlink:title=" ">
<polygon fill="none" stroke="#bfbfbf" points="383.5,-228 383.5,-285 421.5,-285 421.5,-228 383.5,-228"/>
<text text-anchor="middle" x="402.5" y="-273" font-family="Helvetica,sans-Serif" font-size="10.00">bool</text>
<polyline fill="none" stroke="#bfbfbf" points="383.5,-266 421.5,-266 "/>
<text text-anchor="middle" x="402.5" y="-254" font-family="Helvetica,sans-Serif" font-size="10.00"> </text>
<polyline fill="none" stroke="#bfbfbf" points="383.5,-247 421.5,-247 "/>
<text text-anchor="middle" x="402.5" y="-235" font-family="Helvetica,sans-Serif" font-size="10.00"> </text>
</a>
</g>
</g>
<!-- Node8&#45;&gt;Node2 -->
<g id="edge7" class="edge">
<title>Node8&#45;&gt;Node2</title>
<path fill="none" stroke="#404040" d="M398.87,-227.9C397.23,-215.47 395.26,-200.46 393.42,-186.47"/>
<polygon fill="none" stroke="#404040" points="393.41,-186.42 388.66,-180.99 391.84,-174.52 396.59,-179.95 393.41,-186.42"/>
<text text-anchor="middle" x="455" y="-196" font-family="Helvetica,sans-Serif" font-size="10.00"> +include_ascii_padding</text>
</g>
<!-- Node9&#45;&gt;Node1 -->
<g id="edge8" class="edge">
<title>Node9&#45;&gt;Node1</title>
<path fill="none" stroke="#404040" d="M202.75,-222.09C207.56,-184.31 215.41,-122.62 220.76,-80.6"/>
<polygon fill="none" stroke="#404040" points="220.78,-80.41 217.57,-73.95 222.3,-68.51 225.51,-74.96 220.78,-80.41"/>
<text text-anchor="middle" x="254" y="-138" font-family="Helvetica,sans-Serif" font-size="10.00"> +base_packet</text>
</g>
<!-- Node10 -->
<g id="node10" class="node">
<title>Node10</title>
<g id="a_node10"><a xlink:title=" ">
<polygon fill="none" stroke="#bfbfbf" points="0,-360.5 0,-417.5 79,-417.5 79,-360.5 0,-360.5"/>
<text text-anchor="middle" x="39.5" y="-405.5" font-family="Helvetica,sans-Serif" font-size="10.00">SymbolTable</text>
<polyline fill="none" stroke="#bfbfbf" points="0,-398.5 79,-398.5 "/>
<text text-anchor="middle" x="39.5" y="-386.5" font-family="Helvetica,sans-Serif" font-size="10.00"> </text>
<polyline fill="none" stroke="#bfbfbf" points="0,-379.5 79,-379.5 "/>
<text text-anchor="middle" x="39.5" y="-367.5" font-family="Helvetica,sans-Serif" font-size="10.00"> </text>
</a>
</g>
</g>
<!-- Node10&#45;&gt;Node9 -->
<g id="edge9" class="edge">
<title>Node10&#45;&gt;Node9</title>
<path fill="none" stroke="#404040" d="M41,-360.48C43.27,-343.74 48.71,-322.97 61.5,-309 80.55,-288.2 108.83,-275.75 134.77,-268.33"/>
<polygon fill="none" stroke="#404040" points="134.87,-268.3 139.66,-262.91 146.47,-265.26 141.68,-270.65 134.87,-268.3"/>
<text text-anchor="middle" x="100.5" y="-323" font-family="Helvetica,sans-Serif" font-size="10.00"> +symbol_table</text>
</g>
<!-- Node11 -->
<g id="node11" class="node">
<title>Node11</title>
<g id="a_node11"><a xlink:title=" ">
<polygon fill="none" stroke="#bfbfbf" points="121.5,-360.5 121.5,-417.5 159.5,-417.5 159.5,-360.5 121.5,-360.5"/>
<text text-anchor="middle" x="140.5" y="-405.5" font-family="Helvetica,sans-Serif" font-size="10.00">char</text>
<polyline fill="none" stroke="#bfbfbf" points="121.5,-398.5 159.5,-398.5 "/>
<text text-anchor="middle" x="140.5" y="-386.5" font-family="Helvetica,sans-Serif" font-size="10.00"> </text>
<polyline fill="none" stroke="#bfbfbf" points="121.5,-379.5 159.5,-379.5 "/>
<text text-anchor="middle" x="140.5" y="-367.5" font-family="Helvetica,sans-Serif" font-size="10.00"> </text>
</a>
</g>
</g>
<!-- Node11&#45;&gt;Node9 -->
<g id="edge10" class="edge">
<title>Node11&#45;&gt;Node9</title>
<path fill="none" stroke="#404040" d="M140.86,-360.18C141.99,-344.51 145,-324.94 152.5,-309 153.82,-306.2 155.34,-303.44 157,-300.74"/>
<polygon fill="none" stroke="#404040" points="157.17,-300.51 157.34,-293.3 164.05,-290.69 163.89,-297.89 157.17,-300.51"/>
<text text-anchor="middle" x="176.5" y="-323" font-family="Helvetica,sans-Serif" font-size="10.00"> +symbol</text>
</g>
<!-- Node12 -->
<g id="node12" class="node">
<title>Node12</title>
<g id="a_node12"><a xlink:title=" ">
<polygon fill="none" stroke="#bfbfbf" points="186.5,-360.5 186.5,-417.5 236.5,-417.5 236.5,-360.5 186.5,-360.5"/>
<text text-anchor="middle" x="211.5" y="-405.5" font-family="Helvetica,sans-Serif" font-size="10.00">uint8_t</text>
<polyline fill="none" stroke="#bfbfbf" points="186.5,-398.5 236.5,-398.5 "/>
<text text-anchor="middle" x="211.5" y="-386.5" font-family="Helvetica,sans-Serif" font-size="10.00"> </text>
<polyline fill="none" stroke="#bfbfbf" points="186.5,-379.5 236.5,-379.5 "/>
<text text-anchor="middle" x="211.5" y="-367.5" font-family="Helvetica,sans-Serif" font-size="10.00"> </text>
</a>
</g>
</g>
<!-- Node12&#45;&gt;Node9 -->
<g id="edge11" class="edge">
<title>Node12&#45;&gt;Node9</title>
<path fill="none" stroke="#404040" d="M208.74,-360.32C207.08,-343.63 204.92,-321.96 203.01,-302.82"/>
<polygon fill="none" stroke="#404040" points="203,-302.62 198.42,-297.05 201.81,-290.68 206.38,-296.26 203,-302.62"/>
<text text-anchor="middle" x="253" y="-328.5" font-family="Helvetica,sans-Serif" font-size="10.00"> +destination_ssid</text>
<text text-anchor="middle" x="253" y="-317.5" font-family="Helvetica,sans-Serif" font-size="10.00">+source_ssid</text>
</g>
</g>
</svg>
