<?xml version="1.0" encoding="UTF-8" standalone="no"?>
<!DOCTYPE svg PUBLIC "-//W3C//DTD SVG 1.1//EN"
 "http://www.w3.org/Graphics/SVG/1.1/DTD/svg11.dtd">
<!-- Generated by graphviz version 2.43.0 (0)
 -->
<!-- Title: signal_easel::afsk::Demodulator::ProcessResults Pages: 1 -->
<svg width="174pt" height="193pt"
 viewBox="0.00 0.00 174.00 193.00" xmlns="http://www.w3.org/2000/svg" xmlns:xlink="http://www.w3.org/1999/xlink">
<g id="graph0" class="graph" transform="scale(1 1) rotate(0) translate(4 189)">
<title>signal_easel::afsk::Demodulator::ProcessResults</title>
<!-- Node1 -->
<g id="node1" class="node">
<title>Node1</title>
<g id="a_node1"><a xlink:title="Stats related to the processing of the audio buffer.">
<polygon fill="#bfbfbf" stroke="black" points="0,-0.5 0,-68.5 166,-68.5 166,-0.5 0,-0.5"/>
<text text-anchor="start" x="8" y="-56.5" font-family="Helvetica,sans-Serif" font-size="10.00">signal_easel::afsk</text>
<text text-anchor="middle" x="83" y="-45.5" font-family="Helvetica,sans-Serif" font-size="10.00">::Demodulator::ProcessResults</text>
<polyline fill="none" stroke="black" points="0,-38.5 166,-38.5 "/>
<text text-anchor="middle" x="83" y="-26.5" font-family="Helvetica,sans-Serif" font-size="10.00"> </text>
<polyline fill="none" stroke="black" points="0,-19.5 166,-19.5 "/>
<text text-anchor="middle" x="83" y="-7.5" font-family="Helvetica,sans-Serif" font-size="10.00"> </text>
</a>
</g>
</g>
<!-- Node2 -->
<g id="node2" class="node">
<title>Node2</title>
<g id="a_node2"><a xlink:title=" ">
<polygon fill="none" stroke="#bfbfbf" points="58,-127.5 58,-184.5 108,-184.5 108,-127.5 58,-127.5"/>
<text text-anchor="middle" x="83" y="-172.5" font-family="Helvetica,sans-Serif" font-size="10.00">double</text>
<polyline fill="none" stroke="#bfbfbf" points="58,-165.5 108,-165.5 "/>
<text text-anchor="middle" x="83" y="-153.5" font-family="Helvetica,sans-Serif" font-size="10.00"> </text>
<polyline fill="none" stroke="#bfbfbf" points="58,-146.5 108,-146.5 "/>
<text text-anchor="middle" x="83" y="-134.5" font-family="Helvetica,sans-Serif" font-size="10.00"> </text>
</a>
</g>
</g>
<!-- Node2&#45;&gt;Node1 -->
<g id="edge1" class="edge">
<title>Node2&#45;&gt;Node1</title>
<path fill="none" stroke="#404040" d="M83,-127.28C83,-113.47 83,-96.4 83,-80.75"/>
<polygon fill="none" stroke="#404040" points="83,-80.59 79,-74.59 83,-68.59 87,-74.59 83,-80.59"/>
<text text-anchor="middle" x="98.5" y="-101" font-family="Helvetica,sans-Serif" font-size="10.00"> +rms</text>
<text text-anchor="middle" x="98.5" y="-90" font-family="Helvetica,sans-Serif" font-size="10.00">+snr</text>
</g>
</g>
</svg>
