<?xml version="1.0" encoding="UTF-8" standalone="no"?>
<!DOCTYPE svg PUBLIC "-//W3C//DTD SVG 1.1//EN"
 "http://www.w3.org/Graphics/SVG/1.1/DTD/svg11.dtd">
<!-- Generated by graphviz version 2.43.0 (0)
 -->
<!-- Title: signal_easel::aprs::PositionPacket Pages: 1 -->
<svg width="506pt" height="331pt"
 viewBox="0.00 0.00 506.00 331.00" xmlns="http://www.w3.org/2000/svg" xmlns:xlink="http://www.w3.org/1999/xlink">
<g id="graph0" class="graph" transform="scale(1 1) rotate(0) translate(4 327)">
<title>signal_easel::aprs::PositionPacket</title>
<!-- Node1 -->
<g id="node1" class="node">
<title>Node1</title>
<g id="a_node1"><a xlink:title=" ">
<polygon fill="#bfbfbf" stroke="black" points="195,-0.5 195,-68.5 299,-68.5 299,-0.5 195,-0.5"/>
<text text-anchor="start" x="203" y="-56.5" font-family="Helvetica,sans-Serif" font-size="10.00">signal_easel::aprs</text>
<text text-anchor="middle" x="247" y="-45.5" font-family="Helvetica,sans-Serif" font-size="10.00">::PositionPacket</text>
<polyline fill="none" stroke="black" points="195,-38.5 299,-38.5 "/>
<text text-anchor="middle" x="247" y="-26.5" font-family="Helvetica,sans-Serif" font-size="10.00"> </text>
<polyline fill="none" stroke="black" points="195,-19.5 299,-19.5 "/>
<text text-anchor="start" x="203" y="-7.5" font-family="Helvetica,sans-Serif" font-size="10.00">+ encode()</text>
</a>
</g>
</g>
<!-- Node2 -->
<g id="node2" class="node">
<title>Node2</title>
<g id="a_node2"><a xlink:href="structsignal__easel_1_1aprs_1_1Packet.html" target="_top" xlink:title="The base APRS packet structure.">
<polygon fill="none" stroke="black" points="119,-138.5 119,-206.5 223,-206.5 223,-138.5 119,-138.5"/>
<text text-anchor="start" x="127" y="-194.5" font-family="Helvetica,sans-Serif" font-size="10.00">signal_easel::aprs</text>
<text text-anchor="middle" x="171" y="-183.5" font-family="Helvetica,sans-Serif" font-size="10.00">::Packet</text>
<polyline fill="none" stroke="black" points="119,-176.5 223,-176.5 "/>
<text text-anchor="middle" x="171" y="-164.5" font-family="Helvetica,sans-Serif" font-size="10.00"> </text>
<polyline fill="none" stroke="black" points="119,-157.5 223,-157.5 "/>
<text text-anchor="middle" x="171" y="-145.5" font-family="Helvetica,sans-Serif" font-size="10.00"> </text>
</a>
</g>
</g>
<!-- Node2&#45;&gt;Node1 -->
<g id="edge1" class="edge">
<title>Node2&#45;&gt;Node1</title>
<path fill="none" stroke="midnightblue" d="M194.6,-129.28C205.46,-109.84 218.16,-87.11 228.34,-68.9"/>
<polygon fill="none" stroke="midnightblue" points="191.41,-127.79 189.59,-138.23 197.53,-131.21 191.41,-127.79"/>
</g>
<!-- Node3 -->
<g id="node3" class="node">
<title>Node3</title>
<g id="a_node3"><a xlink:title=" ">
<polygon fill="none" stroke="black" points="0,-265.5 0,-322.5 44,-322.5 44,-265.5 0,-265.5"/>
<text text-anchor="middle" x="22" y="-310.5" font-family="Helvetica,sans-Serif" font-size="10.00">string</text>
<polyline fill="none" stroke="black" points="0,-303.5 44,-303.5 "/>
<text text-anchor="middle" x="22" y="-291.5" font-family="Helvetica,sans-Serif" font-size="10.00"> </text>
<polyline fill="none" stroke="black" points="0,-284.5 44,-284.5 "/>
<text text-anchor="middle" x="22" y="-272.5" font-family="Helvetica,sans-Serif" font-size="10.00"> </text>
</a>
</g>
</g>
<!-- Node3&#45;&gt;Node1 -->
<g id="edge6" class="edge">
<title>Node3&#45;&gt;Node1</title>
<path fill="none" stroke="#404040" d="M20.03,-265.24C19.11,-231.83 22.35,-175.54 50,-138 82.32,-94.12 139.02,-67.44 183.32,-52.35"/>
<polygon fill="none" stroke="#404040" points="183.46,-52.31 187.92,-46.64 194.87,-48.58 190.41,-54.25 183.46,-52.31"/>
<text text-anchor="middle" x="80" y="-175.5" font-family="Helvetica,sans-Serif" font-size="10.00"> +comment</text>
<text text-anchor="middle" x="80" y="-164.5" font-family="Helvetica,sans-Serif" font-size="10.00">+time_code</text>
</g>
<!-- Node3&#45;&gt;Node2 -->
<g id="edge2" class="edge">
<title>Node3&#45;&gt;Node2</title>
<path fill="none" stroke="#404040" d="M31.22,-265.45C36.9,-251.86 45.35,-236.07 57,-225 71.27,-211.44 89.74,-201.02 107.63,-193.22"/>
<polygon fill="none" stroke="#404040" points="107.85,-193.14 111.89,-187.16 118.95,-188.59 114.92,-194.56 107.85,-193.14"/>
<text text-anchor="middle" x="112" y="-239" font-family="Helvetica,sans-Serif" font-size="10.00"> +destination_address</text>
<text text-anchor="middle" x="112" y="-228" font-family="Helvetica,sans-Serif" font-size="10.00">+source_address</text>
</g>
<!-- Node4 -->
<g id="node4" class="node">
<title>Node4</title>
<g id="a_node4"><a xlink:title=" ">
<polygon fill="none" stroke="black" points="146,-265.5 146,-322.5 196,-322.5 196,-265.5 146,-265.5"/>
<text text-anchor="middle" x="171" y="-310.5" font-family="Helvetica,sans-Serif" font-size="10.00">uint8_t</text>
<polyline fill="none" stroke="black" points="146,-303.5 196,-303.5 "/>
<text text-anchor="middle" x="171" y="-291.5" font-family="Helvetica,sans-Serif" font-size="10.00"> </text>
<polyline fill="none" stroke="black" points="146,-284.5 196,-284.5 "/>
<text text-anchor="middle" x="171" y="-272.5" font-family="Helvetica,sans-Serif" font-size="10.00"> </text>
</a>
</g>
</g>
<!-- Node4&#45;&gt;Node2 -->
<g id="edge3" class="edge">
<title>Node4&#45;&gt;Node2</title>
<path fill="none" stroke="#404040" d="M171,-265.28C171,-251.47 171,-234.4 171,-218.75"/>
<polygon fill="none" stroke="#404040" points="171,-218.59 167,-212.59 171,-206.59 175,-212.59 171,-218.59"/>
<text text-anchor="middle" x="216.5" y="-239" font-family="Helvetica,sans-Serif" font-size="10.00"> +destination_ssid</text>
<text text-anchor="middle" x="216.5" y="-228" font-family="Helvetica,sans-Serif" font-size="10.00">+source_ssid</text>
</g>
<!-- Node5 -->
<g id="node5" class="node">
<title>Node5</title>
<g id="a_node5"><a xlink:title=" ">
<polygon fill="none" stroke="black" points="245.5,-265.5 245.5,-322.5 324.5,-322.5 324.5,-265.5 245.5,-265.5"/>
<text text-anchor="middle" x="285" y="-310.5" font-family="Helvetica,sans-Serif" font-size="10.00">SymbolTable</text>
<polyline fill="none" stroke="black" points="245.5,-303.5 324.5,-303.5 "/>
<text text-anchor="middle" x="285" y="-291.5" font-family="Helvetica,sans-Serif" font-size="10.00"> </text>
<polyline fill="none" stroke="black" points="245.5,-284.5 324.5,-284.5 "/>
<text text-anchor="middle" x="285" y="-272.5" font-family="Helvetica,sans-Serif" font-size="10.00"> </text>
</a>
</g>
</g>
<!-- Node5&#45;&gt;Node2 -->
<g id="edge4" class="edge">
<title>Node5&#45;&gt;Node2</title>
<path fill="none" stroke="#404040" d="M280.88,-265.23C277.77,-251.92 272.36,-236.42 263,-225 262.32,-224.17 249.64,-216.95 233.91,-208.18"/>
<polygon fill="none" stroke="#404040" points="233.71,-208.07 226.52,-208.65 223.22,-202.23 230.41,-201.65 233.71,-208.07"/>
<text text-anchor="middle" x="314" y="-233.5" font-family="Helvetica,sans-Serif" font-size="10.00"> +symbol_table</text>
</g>
<!-- Node6 -->
<g id="node6" class="node">
<title>Node6</title>
<g id="a_node6"><a xlink:title=" ">
<polygon fill="none" stroke="black" points="367,-265.5 367,-322.5 405,-322.5 405,-265.5 367,-265.5"/>
<text text-anchor="middle" x="386" y="-310.5" font-family="Helvetica,sans-Serif" font-size="10.00">char</text>
<polyline fill="none" stroke="black" points="367,-303.5 405,-303.5 "/>
<text text-anchor="middle" x="386" y="-291.5" font-family="Helvetica,sans-Serif" font-size="10.00"> </text>
<polyline fill="none" stroke="black" points="367,-284.5 405,-284.5 "/>
<text text-anchor="middle" x="386" y="-272.5" font-family="Helvetica,sans-Serif" font-size="10.00"> </text>
</a>
</g>
</g>
<!-- Node6&#45;&gt;Node2 -->
<g id="edge5" class="edge">
<title>Node6&#45;&gt;Node2</title>
<path fill="none" stroke="#404040" d="M380.98,-265.49C376.93,-251.22 369.72,-234.78 357,-225 315.37,-193 288.82,-220.7 234.63,-207.06"/>
<polygon fill="none" stroke="#404040" points="234.53,-207.03 227.64,-209.16 223.03,-203.62 229.91,-201.49 234.53,-207.03"/>
<text text-anchor="middle" x="397" y="-233.5" font-family="Helvetica,sans-Serif" font-size="10.00"> +symbol</text>
</g>
<!-- Node7 -->
<g id="node7" class="node">
<title>Node7</title>
<g id="a_node7"><a xlink:title=" ">
<polygon fill="none" stroke="black" points="241,-144 241,-201 279,-201 279,-144 241,-144"/>
<text text-anchor="middle" x="260" y="-189" font-family="Helvetica,sans-Serif" font-size="10.00">float</text>
<polyline fill="none" stroke="black" points="241,-182 279,-182 "/>
<text text-anchor="middle" x="260" y="-170" font-family="Helvetica,sans-Serif" font-size="10.00"> </text>
<polyline fill="none" stroke="black" points="241,-163 279,-163 "/>
<text text-anchor="middle" x="260" y="-151" font-family="Helvetica,sans-Serif" font-size="10.00"> </text>
</a>
</g>
</g>
<!-- Node7&#45;&gt;Node1 -->
<g id="edge7" class="edge">
<title>Node7&#45;&gt;Node1</title>
<path fill="none" stroke="#404040" d="M252.41,-143.9C250.61,-136.22 248.95,-127.84 248,-120 246.47,-107.33 245.86,-93.51 245.73,-80.79"/>
<polygon fill="none" stroke="#404040" points="245.73,-80.52 241.73,-74.51 245.74,-68.52 249.73,-74.52 245.73,-80.52"/>
<text text-anchor="middle" x="275.5" y="-112" font-family="Helvetica,sans-Serif" font-size="10.00"> +latitude</text>
<text text-anchor="middle" x="275.5" y="-101" font-family="Helvetica,sans-Serif" font-size="10.00">+longitude</text>
<text text-anchor="middle" x="275.5" y="-90" font-family="Helvetica,sans-Serif" font-size="10.00">+speed</text>
</g>
<!-- Node8 -->
<g id="node8" class="node">
<title>Node8</title>
<g id="a_node8"><a xlink:title=" ">
<polygon fill="none" stroke="black" points="310.5,-144 310.5,-201 339.5,-201 339.5,-144 310.5,-144"/>
<text text-anchor="middle" x="325" y="-189" font-family="Helvetica,sans-Serif" font-size="10.00">int</text>
<polyline fill="none" stroke="black" points="310.5,-182 339.5,-182 "/>
<text text-anchor="middle" x="325" y="-170" font-family="Helvetica,sans-Serif" font-size="10.00"> </text>
<polyline fill="none" stroke="black" points="310.5,-163 339.5,-163 "/>
<text text-anchor="middle" x="325" y="-151" font-family="Helvetica,sans-Serif" font-size="10.00"> </text>
</a>
</g>
</g>
<!-- Node8&#45;&gt;Node1 -->
<g id="edge8" class="edge">
<title>Node8&#45;&gt;Node1</title>
<path fill="none" stroke="#404040" d="M321.83,-143.69C318.92,-126.42 313.38,-104.28 303,-87 301.18,-83.97 299.13,-81.02 296.92,-78.15"/>
<polygon fill="none" stroke="#404040" points="296.69,-77.89 289.75,-75.94 288.88,-68.78 295.82,-70.73 296.69,-77.89"/>
<text text-anchor="middle" x="340.5" y="-106.5" font-family="Helvetica,sans-Serif" font-size="10.00"> +altitude</text>
<text text-anchor="middle" x="340.5" y="-95.5" font-family="Helvetica,sans-Serif" font-size="10.00">+course</text>
</g>
<!-- Node9 -->
<g id="node9" class="node">
<title>Node9</title>
<g id="a_node9"><a xlink:title=" ">
<polygon fill="none" stroke="black" points="376.5,-144 376.5,-201 417.5,-201 417.5,-144 376.5,-144"/>
<text text-anchor="middle" x="397" y="-189" font-family="Helvetica,sans-Serif" font-size="10.00">Time</text>
<polyline fill="none" stroke="black" points="376.5,-182 417.5,-182 "/>
<text text-anchor="middle" x="397" y="-170" font-family="Helvetica,sans-Serif" font-size="10.00"> </text>
<polyline fill="none" stroke="black" points="376.5,-163 417.5,-163 "/>
<text text-anchor="middle" x="397" y="-151" font-family="Helvetica,sans-Serif" font-size="10.00"> </text>
</a>
</g>
</g>
<!-- Node9&#45;&gt;Node1 -->
<g id="edge9" class="edge">
<title>Node9&#45;&gt;Node1</title>
<path fill="none" stroke="#404040" d="M393.79,-143.78C390.37,-125.66 383.36,-102.55 369,-87 353.47,-70.18 331.57,-58.66 310.6,-50.85"/>
<polygon fill="none" stroke="#404040" points="310.43,-50.8 303.46,-52.62 299.09,-46.89 306.06,-45.06 310.43,-50.8"/>
<text text-anchor="middle" x="442" y="-101" font-family="Helvetica,sans-Serif" font-size="10.00"> +decoded_timestamp</text>
</g>
</g>
</svg>
