<?xml version="1.0" encoding="UTF-8" standalone="no"?>
<!DOCTYPE svg PUBLIC "-//W3C//DTD SVG 1.1//EN"
 "http://www.w3.org/Graphics/SVG/1.1/DTD/svg11.dtd">
<!-- Generated by graphviz version 2.43.0 (0)
 -->
<!-- Title: signal_easel::aprs::Packet Pages: 1 -->
<svg width="426pt" height="193pt"
 viewBox="0.00 0.00 425.50 193.00" xmlns="http://www.w3.org/2000/svg" xmlns:xlink="http://www.w3.org/1999/xlink">
<g id="graph0" class="graph" transform="scale(1 1) rotate(0) translate(4 189)">
<title>signal_easel::aprs::Packet</title>
<!-- Node1 -->
<g id="node1" class="node">
<title>Node1</title>
<g id="a_node1"><a xlink:title=" ">
<polygon fill="#bfbfbf" stroke="black" points="123.5,-0.5 123.5,-68.5 227.5,-68.5 227.5,-0.5 123.5,-0.5"/>
<text text-anchor="start" x="131.5" y="-56.5" font-family="Helvetica,sans-Serif" font-size="10.00">signal_easel::aprs</text>
<text text-anchor="middle" x="175.5" y="-45.5" font-family="Helvetica,sans-Serif" font-size="10.00">::Packet</text>
<polyline fill="none" stroke="black" points="123.5,-38.5 227.5,-38.5 "/>
<text text-anchor="middle" x="175.5" y="-26.5" font-family="Helvetica,sans-Serif" font-size="10.00"> </text>
<polyline fill="none" stroke="black" points="123.5,-19.5 227.5,-19.5 "/>
<text text-anchor="middle" x="175.5" y="-7.5" font-family="Helvetica,sans-Serif" font-size="10.00"> </text>
</a>
</g>
</g>
<!-- Node2 -->
<g id="node2" class="node">
<title>Node2</title>
<g id="a_node2"><a xlink:title=" ">
<polygon fill="none" stroke="#bfbfbf" points="0,-127.5 0,-184.5 79,-184.5 79,-127.5 0,-127.5"/>
<text text-anchor="middle" x="39.5" y="-172.5" font-family="Helvetica,sans-Serif" font-size="10.00">SymbolTable</text>
<polyline fill="none" stroke="#bfbfbf" points="0,-165.5 79,-165.5 "/>
<text text-anchor="middle" x="39.5" y="-153.5" font-family="Helvetica,sans-Serif" font-size="10.00"> </text>
<polyline fill="none" stroke="#bfbfbf" points="0,-146.5 79,-146.5 "/>
<text text-anchor="middle" x="39.5" y="-134.5" font-family="Helvetica,sans-Serif" font-size="10.00"> </text>
</a>
</g>
</g>
<!-- Node2&#45;&gt;Node1 -->
<g id="edge1" class="edge">
<title>Node2&#45;&gt;Node1</title>
<path fill="none" stroke="#404040" d="M40.33,-127.26C42.04,-113.79 46.14,-98.15 55.5,-87 70.01,-69.71 91.39,-58.08 112.09,-50.32"/>
<polygon fill="none" stroke="#404040" points="112.13,-50.31 116.5,-44.57 123.48,-46.4 119.11,-52.13 112.13,-50.31"/>
<text text-anchor="middle" x="94.5" y="-95.5" font-family="Helvetica,sans-Serif" font-size="10.00"> +symbol_table</text>
</g>
<!-- Node3 -->
<g id="node3" class="node">
<title>Node3</title>
<g id="a_node3"><a xlink:title=" ">
<polygon fill="none" stroke="#bfbfbf" points="121.5,-127.5 121.5,-184.5 159.5,-184.5 159.5,-127.5 121.5,-127.5"/>
<text text-anchor="middle" x="140.5" y="-172.5" font-family="Helvetica,sans-Serif" font-size="10.00">char</text>
<polyline fill="none" stroke="#bfbfbf" points="121.5,-165.5 159.5,-165.5 "/>
<text text-anchor="middle" x="140.5" y="-153.5" font-family="Helvetica,sans-Serif" font-size="10.00"> </text>
<polyline fill="none" stroke="#bfbfbf" points="121.5,-146.5 159.5,-146.5 "/>
<text text-anchor="middle" x="140.5" y="-134.5" font-family="Helvetica,sans-Serif" font-size="10.00"> </text>
</a>
</g>
</g>
<!-- Node3&#45;&gt;Node1 -->
<g id="edge2" class="edge">
<title>Node3&#45;&gt;Node1</title>
<path fill="none" stroke="#404040" d="M137.42,-127.32C136.9,-114.75 137.53,-99.86 141.5,-87 142.25,-84.56 143.16,-82.13 144.19,-79.72"/>
<polygon fill="none" stroke="#404040" points="144.32,-79.46 143.45,-72.3 149.72,-68.75 150.59,-75.91 144.32,-79.46"/>
<text text-anchor="middle" x="165.5" y="-95.5" font-family="Helvetica,sans-Serif" font-size="10.00"> +symbol</text>
</g>
<!-- Node4 -->
<g id="node4" class="node">
<title>Node4</title>
<g id="a_node4"><a xlink:title=" ">
<polygon fill="none" stroke="#bfbfbf" points="186.5,-127.5 186.5,-184.5 236.5,-184.5 236.5,-127.5 186.5,-127.5"/>
<text text-anchor="middle" x="211.5" y="-172.5" font-family="Helvetica,sans-Serif" font-size="10.00">uint8_t</text>
<polyline fill="none" stroke="#bfbfbf" points="186.5,-165.5 236.5,-165.5 "/>
<text text-anchor="middle" x="211.5" y="-153.5" font-family="Helvetica,sans-Serif" font-size="10.00"> </text>
<polyline fill="none" stroke="#bfbfbf" points="186.5,-146.5 236.5,-146.5 "/>
<text text-anchor="middle" x="211.5" y="-134.5" font-family="Helvetica,sans-Serif" font-size="10.00"> </text>
</a>
</g>
</g>
<!-- Node4&#45;&gt;Node1 -->
<g id="edge3" class="edge">
<title>Node4&#45;&gt;Node1</title>
<path fill="none" stroke="#404040" d="M203.15,-127.28C198.95,-113.33 193.74,-96.06 188.99,-80.28"/>
<polygon fill="none" stroke="#404040" points="188.93,-80.08 183.37,-75.49 185.47,-68.59 191.03,-73.18 188.93,-80.08"/>
<text text-anchor="middle" x="242" y="-101" font-family="Helvetica,sans-Serif" font-size="10.00"> +destination_ssid</text>
<text text-anchor="middle" x="242" y="-90" font-family="Helvetica,sans-Serif" font-size="10.00">+source_ssid</text>
</g>
<!-- Node5 -->
<g id="node5" class="node">
<title>Node5</title>
<g id="a_node5"><a xlink:title=" ">
<polygon fill="none" stroke="#bfbfbf" points="303.5,-127.5 303.5,-184.5 347.5,-184.5 347.5,-127.5 303.5,-127.5"/>
<text text-anchor="middle" x="325.5" y="-172.5" font-family="Helvetica,sans-Serif" font-size="10.00">string</text>
<polyline fill="none" stroke="#bfbfbf" points="303.5,-165.5 347.5,-165.5 "/>
<text text-anchor="middle" x="325.5" y="-153.5" font-family="Helvetica,sans-Serif" font-size="10.00"> </text>
<polyline fill="none" stroke="#bfbfbf" points="303.5,-146.5 347.5,-146.5 "/>
<text text-anchor="middle" x="325.5" y="-134.5" font-family="Helvetica,sans-Serif" font-size="10.00"> </text>
</a>
</g>
</g>
<!-- Node5&#45;&gt;Node1 -->
<g id="edge4" class="edge">
<title>Node5&#45;&gt;Node1</title>
<path fill="none" stroke="#404040" d="M316.74,-127.42C311.28,-113.83 303.05,-98.03 291.5,-87 276.79,-72.95 257.6,-62.33 239.07,-54.5"/>
<polygon fill="none" stroke="#404040" points="238.83,-54.4 231.77,-55.91 227.67,-49.98 234.72,-48.47 238.83,-54.4"/>
<text text-anchor="middle" x="362.5" y="-101" font-family="Helvetica,sans-Serif" font-size="10.00"> +destination_address</text>
<text text-anchor="middle" x="362.5" y="-90" font-family="Helvetica,sans-Serif" font-size="10.00">+source_address</text>
</g>
</g>
</svg>
