<?xml version="1.0" encoding="UTF-8" standalone="no"?>
<!DOCTYPE svg PUBLIC "-//W3C//DTD SVG 1.1//EN"
 "http://www.w3.org/Graphics/SVG/1.1/DTD/svg11.dtd">
<!-- Generated by graphviz version 2.43.0 (0)
 -->
<!-- Title: signal_easel::aprs::Packet Pages: 1 -->
<svg width="664pt" height="314pt"
 viewBox="0.00 0.00 663.50 314.00" xmlns="http://www.w3.org/2000/svg" xmlns:xlink="http://www.w3.org/1999/xlink">
<g id="graph0" class="graph" transform="scale(1 1) rotate(0) translate(4 310)">
<title>signal_easel::aprs::Packet</title>
<!-- Node1 -->
<g id="node1" class="node">
<title>Node1</title>
<g id="a_node1"><a xlink:title="The base APRS packet structure.">
<polygon fill="#bfbfbf" stroke="black" points="260.5,-182.5 260.5,-305.5 386.5,-305.5 386.5,-182.5 260.5,-182.5"/>
<text text-anchor="start" x="268.5" y="-293.5" font-family="Helvetica,sans-Serif" font-size="10.00">signal_easel::aprs</text>
<text text-anchor="middle" x="323.5" y="-282.5" font-family="Helvetica,sans-Serif" font-size="10.00">::Packet</text>
<polyline fill="none" stroke="black" points="260.5,-275.5 386.5,-275.5 "/>
<text text-anchor="start" x="268.5" y="-263.5" font-family="Helvetica,sans-Serif" font-size="10.00">+ destination_address</text>
<text text-anchor="start" x="268.5" y="-252.5" font-family="Helvetica,sans-Serif" font-size="10.00">+ destination_ssid</text>
<text text-anchor="start" x="268.5" y="-241.5" font-family="Helvetica,sans-Serif" font-size="10.00">+ source_address</text>
<text text-anchor="start" x="268.5" y="-230.5" font-family="Helvetica,sans-Serif" font-size="10.00">+ source_ssid</text>
<text text-anchor="start" x="268.5" y="-219.5" font-family="Helvetica,sans-Serif" font-size="10.00">+ symbol</text>
<text text-anchor="start" x="268.5" y="-208.5" font-family="Helvetica,sans-Serif" font-size="10.00">+ symbol_table</text>
<polyline fill="none" stroke="black" points="260.5,-201.5 386.5,-201.5 "/>
<text text-anchor="middle" x="323.5" y="-189.5" font-family="Helvetica,sans-Serif" font-size="10.00"> </text>
</a>
</g>
</g>
<!-- Node2 -->
<g id="node2" class="node">
<title>Node2</title>
<g id="a_node2"><a xlink:href="structsignal__easel_1_1aprs_1_1ExperimentalPacket.html" target="_top" xlink:title="Raw packet with two &#39;{&#39; characters at the start.">
<polygon fill="none" stroke="black" points="0,-22.5 0,-123.5 119,-123.5 119,-22.5 0,-22.5"/>
<text text-anchor="start" x="8" y="-111.5" font-family="Helvetica,sans-Serif" font-size="10.00">signal_easel::aprs</text>
<text text-anchor="middle" x="59.5" y="-100.5" font-family="Helvetica,sans-Serif" font-size="10.00">::ExperimentalPacket</text>
<polyline fill="none" stroke="black" points="0,-93.5 119,-93.5 "/>
<text text-anchor="start" x="8" y="-81.5" font-family="Helvetica,sans-Serif" font-size="10.00">+ data</text>
<text text-anchor="start" x="8" y="-70.5" font-family="Helvetica,sans-Serif" font-size="10.00">+ packet_type_char</text>
<polyline fill="none" stroke="black" points="0,-63.5 119,-63.5 "/>
<text text-anchor="start" x="8" y="-51.5" font-family="Helvetica,sans-Serif" font-size="10.00">+ encode()</text>
<text text-anchor="start" x="8" y="-40.5" font-family="Helvetica,sans-Serif" font-size="10.00">+ getStringData()</text>
<text text-anchor="start" x="8" y="-29.5" font-family="Helvetica,sans-Serif" font-size="10.00">+ setStringData()</text>
</a>
</g>
</g>
<!-- Node1&#45;&gt;Node2 -->
<g id="edge1" class="edge">
<title>Node1&#45;&gt;Node2</title>
<path fill="none" stroke="midnightblue" d="M250.69,-214C212.5,-197.05 165.99,-173.57 128.5,-146 119.57,-139.44 110.8,-131.65 102.66,-123.67"/>
<polygon fill="none" stroke="midnightblue" points="249.65,-217.36 260.21,-218.17 252.46,-210.95 249.65,-217.36"/>
</g>
<!-- Node3 -->
<g id="node3" class="node">
<title>Node3</title>
<g id="a_node3"><a xlink:href="structsignal__easel_1_1aprs_1_1MessageAckPacket.html" target="_top" xlink:title=" ">
<polygon fill="none" stroke="black" points="137.5,-33.5 137.5,-112.5 253.5,-112.5 253.5,-33.5 137.5,-33.5"/>
<text text-anchor="start" x="145.5" y="-100.5" font-family="Helvetica,sans-Serif" font-size="10.00">signal_easel::aprs</text>
<text text-anchor="middle" x="195.5" y="-89.5" font-family="Helvetica,sans-Serif" font-size="10.00">::MessageAckPacket</text>
<polyline fill="none" stroke="black" points="137.5,-82.5 253.5,-82.5 "/>
<text text-anchor="start" x="145.5" y="-70.5" font-family="Helvetica,sans-Serif" font-size="10.00">+ addressee</text>
<text text-anchor="start" x="145.5" y="-59.5" font-family="Helvetica,sans-Serif" font-size="10.00">+ message_id</text>
<polyline fill="none" stroke="black" points="137.5,-52.5 253.5,-52.5 "/>
<text text-anchor="start" x="145.5" y="-40.5" font-family="Helvetica,sans-Serif" font-size="10.00">+ encode()</text>
</a>
</g>
</g>
<!-- Node1&#45;&gt;Node3 -->
<g id="edge2" class="edge">
<title>Node1&#45;&gt;Node3</title>
<path fill="none" stroke="midnightblue" d="M271.58,-174.46C255.6,-153.35 238.58,-130.87 224.69,-112.54"/>
<polygon fill="none" stroke="midnightblue" points="268.82,-176.61 277.65,-182.46 274.4,-172.38 268.82,-176.61"/>
</g>
<!-- Node4 -->
<g id="node4" class="node">
<title>Node4</title>
<g id="a_node4"><a xlink:href="structsignal__easel_1_1aprs_1_1MessagePacket.html" target="_top" xlink:title=" ">
<polygon fill="none" stroke="black" points="271.5,-28 271.5,-118 375.5,-118 375.5,-28 271.5,-28"/>
<text text-anchor="start" x="279.5" y="-106" font-family="Helvetica,sans-Serif" font-size="10.00">signal_easel::aprs</text>
<text text-anchor="middle" x="323.5" y="-95" font-family="Helvetica,sans-Serif" font-size="10.00">::MessagePacket</text>
<polyline fill="none" stroke="black" points="271.5,-88 375.5,-88 "/>
<text text-anchor="start" x="279.5" y="-76" font-family="Helvetica,sans-Serif" font-size="10.00">+ addressee</text>
<text text-anchor="start" x="279.5" y="-65" font-family="Helvetica,sans-Serif" font-size="10.00">+ message</text>
<text text-anchor="start" x="279.5" y="-54" font-family="Helvetica,sans-Serif" font-size="10.00">+ message_id</text>
<polyline fill="none" stroke="black" points="271.5,-47 375.5,-47 "/>
<text text-anchor="start" x="279.5" y="-35" font-family="Helvetica,sans-Serif" font-size="10.00">+ encode()</text>
</a>
</g>
</g>
<!-- Node1&#45;&gt;Node4 -->
<g id="edge3" class="edge">
<title>Node1&#45;&gt;Node4</title>
<path fill="none" stroke="midnightblue" d="M323.5,-172.38C323.5,-154.02 323.5,-134.77 323.5,-118.21"/>
<polygon fill="none" stroke="midnightblue" points="320,-172.46 323.5,-182.46 327,-172.46 320,-172.46"/>
</g>
<!-- Node5 -->
<g id="node5" class="node">
<title>Node5</title>
<g id="a_node5"><a xlink:href="structsignal__easel_1_1aprs_1_1PositionPacket.html" target="_top" xlink:title=" ">
<polygon fill="none" stroke="black" points="393.5,-0.5 393.5,-145.5 521.5,-145.5 521.5,-0.5 393.5,-0.5"/>
<text text-anchor="start" x="401.5" y="-133.5" font-family="Helvetica,sans-Serif" font-size="10.00">signal_easel::aprs</text>
<text text-anchor="middle" x="457.5" y="-122.5" font-family="Helvetica,sans-Serif" font-size="10.00">::PositionPacket</text>
<polyline fill="none" stroke="black" points="393.5,-115.5 521.5,-115.5 "/>
<text text-anchor="start" x="401.5" y="-103.5" font-family="Helvetica,sans-Serif" font-size="10.00">+ altitude</text>
<text text-anchor="start" x="401.5" y="-92.5" font-family="Helvetica,sans-Serif" font-size="10.00">+ comment</text>
<text text-anchor="start" x="401.5" y="-81.5" font-family="Helvetica,sans-Serif" font-size="10.00">+ course</text>
<text text-anchor="start" x="401.5" y="-70.5" font-family="Helvetica,sans-Serif" font-size="10.00">+ decoded_timestamp</text>
<text text-anchor="start" x="401.5" y="-59.5" font-family="Helvetica,sans-Serif" font-size="10.00">+ latitude</text>
<text text-anchor="start" x="401.5" y="-48.5" font-family="Helvetica,sans-Serif" font-size="10.00">+ longitude</text>
<text text-anchor="start" x="401.5" y="-37.5" font-family="Helvetica,sans-Serif" font-size="10.00">+ speed</text>
<text text-anchor="start" x="401.5" y="-26.5" font-family="Helvetica,sans-Serif" font-size="10.00">+ time_code</text>
<polyline fill="none" stroke="black" points="393.5,-19.5 521.5,-19.5 "/>
<text text-anchor="start" x="401.5" y="-7.5" font-family="Helvetica,sans-Serif" font-size="10.00">+ encode()</text>
</a>
</g>
</g>
<!-- Node1&#45;&gt;Node5 -->
<g id="edge4" class="edge">
<title>Node1&#45;&gt;Node5</title>
<path fill="none" stroke="midnightblue" d="M377.78,-174.54C385.33,-165.02 393.1,-155.22 400.69,-145.64"/>
<polygon fill="none" stroke="midnightblue" points="374.97,-172.45 371.5,-182.46 380.45,-176.8 374.97,-172.45"/>
</g>
<!-- Node6 -->
<g id="node6" class="node">
<title>Node6</title>
<g id="a_node6"><a xlink:href="structsignal__easel_1_1aprs_1_1TelemetryPacket.html" target="_top" xlink:title=" ">
<polygon fill="none" stroke="black" points="539.5,-17 539.5,-129 655.5,-129 655.5,-17 539.5,-17"/>
<text text-anchor="start" x="547.5" y="-117" font-family="Helvetica,sans-Serif" font-size="10.00">signal_easel::aprs</text>
<text text-anchor="middle" x="597.5" y="-106" font-family="Helvetica,sans-Serif" font-size="10.00">::TelemetryPacket</text>
<polyline fill="none" stroke="black" points="539.5,-99 655.5,-99 "/>
<text text-anchor="start" x="547.5" y="-87" font-family="Helvetica,sans-Serif" font-size="10.00">+ telemetry_data</text>
<text text-anchor="start" x="547.5" y="-76" font-family="Helvetica,sans-Serif" font-size="10.00">+ telemetry_type</text>
<polyline fill="none" stroke="black" points="539.5,-69 655.5,-69 "/>
<text text-anchor="start" x="547.5" y="-57" font-family="Helvetica,sans-Serif" font-size="10.00">+ TelemetryPacket()</text>
<text text-anchor="start" x="547.5" y="-46" font-family="Helvetica,sans-Serif" font-size="10.00">+ TelemetryPacket()</text>
<text text-anchor="start" x="547.5" y="-35" font-family="Helvetica,sans-Serif" font-size="10.00">+ TelemetryPacket()</text>
<text text-anchor="start" x="547.5" y="-24" font-family="Helvetica,sans-Serif" font-size="10.00">+ encode()</text>
</a>
</g>
</g>
<!-- Node1&#45;&gt;Node6 -->
<g id="edge5" class="edge">
<title>Node1&#45;&gt;Node6</title>
<path fill="none" stroke="midnightblue" d="M396.18,-216.95C437.67,-200.18 489.44,-175.93 530.5,-146 537.4,-140.97 544.16,-135.16 550.57,-129.07"/>
<polygon fill="none" stroke="midnightblue" points="394.68,-213.78 386.68,-220.73 397.27,-220.29 394.68,-213.78"/>
</g>
</g>
</svg>
