<?xml version="1.0" encoding="UTF-8" standalone="no"?>
<!DOCTYPE svg PUBLIC "-//W3C//DTD SVG 1.1//EN"
 "http://www.w3.org/Graphics/SVG/1.1/DTD/svg11.dtd">
<!-- Generated by graphviz version 2.43.0 (0)
 -->
<!-- Title: telemetry_data.hpp Pages: 1 -->
<svg width="316pt" height="207pt"
 viewBox="0.00 0.00 315.50 207.00" xmlns="http://www.w3.org/2000/svg" xmlns:xlink="http://www.w3.org/1999/xlink">
<g id="graph0" class="graph" transform="scale(1 1) rotate(0) translate(4 203)">
<title>telemetry_data.hpp</title>
<!-- Node1 -->
<g id="node1" class="node">
<title>Node1</title>
<g id="a_node1"><a xlink:title=" ">
<polygon fill="#bfbfbf" stroke="black" points="20.5,-179.5 20.5,-198.5 133.5,-198.5 133.5,-179.5 20.5,-179.5"/>
<text text-anchor="middle" x="77" y="-186.5" font-family="Helvetica,sans-Serif" font-size="10.00">telemetry_data.hpp</text>
</a>
</g>
</g>
<!-- Node2 -->
<g id="node2" class="node">
<title>Node2</title>
<g id="a_node2"><a xlink:title=" ">
<polygon fill="none" stroke="#bfbfbf" points="0,-118 0,-137 42,-137 42,-118 0,-118"/>
<text text-anchor="middle" x="21" y="-125" font-family="Helvetica,sans-Serif" font-size="10.00">array</text>
</a>
</g>
</g>
<!-- Node1&#45;&gt;Node2 -->
<g id="edge1" class="edge">
<title>Node1&#45;&gt;Node2</title>
<path fill="none" stroke="midnightblue" d="M68.98,-179.48C60.41,-170.37 46.64,-155.74 36.04,-144.48"/>
<polygon fill="midnightblue" stroke="midnightblue" points="38.41,-141.89 29.01,-137.01 33.31,-146.69 38.41,-141.89"/>
</g>
<!-- Node3 -->
<g id="node3" class="node">
<title>Node3</title>
<g id="a_node3"><a xlink:href="telemetry__parameter_8hpp.html" target="_top" xlink:title=" ">
<polygon fill="none" stroke="black" points="60,-112.5 60,-142.5 208,-142.5 208,-112.5 60,-112.5"/>
<text text-anchor="start" x="68" y="-130.5" font-family="Helvetica,sans-Serif" font-size="10.00">SignalEasel/aprs/telemetry</text>
<text text-anchor="middle" x="134" y="-119.5" font-family="Helvetica,sans-Serif" font-size="10.00">_parameter.hpp</text>
</a>
</g>
</g>
<!-- Node1&#45;&gt;Node3 -->
<g id="edge2" class="edge">
<title>Node1&#45;&gt;Node3</title>
<path fill="none" stroke="midnightblue" d="M85.17,-179.48C92.53,-171.79 103.66,-160.17 113.44,-149.96"/>
<polygon fill="midnightblue" stroke="midnightblue" points="116.18,-152.17 120.57,-142.52 111.12,-147.32 116.18,-152.17"/>
</g>
<!-- Node4 -->
<g id="node4" class="node">
<title>Node4</title>
<g id="a_node4"><a xlink:title=" ">
<polygon fill="none" stroke="#bfbfbf" points="56,-56.5 56,-75.5 106,-75.5 106,-56.5 56,-56.5"/>
<text text-anchor="middle" x="81" y="-63.5" font-family="Helvetica,sans-Serif" font-size="10.00">cstdint</text>
</a>
</g>
</g>
<!-- Node3&#45;&gt;Node4 -->
<g id="edge3" class="edge">
<title>Node3&#45;&gt;Node4</title>
<path fill="none" stroke="midnightblue" d="M121.44,-112.4C113.66,-103.66 103.64,-92.41 95.52,-83.3"/>
<polygon fill="midnightblue" stroke="midnightblue" points="97.98,-80.8 88.71,-75.66 92.75,-85.45 97.98,-80.8"/>
</g>
<!-- Node5 -->
<g id="node5" class="node">
<title>Node5</title>
<g id="a_node5"><a xlink:title=" ">
<polygon fill="none" stroke="#bfbfbf" points="126,-0.5 126,-19.5 170,-19.5 170,-0.5 126,-0.5"/>
<text text-anchor="middle" x="148" y="-7.5" font-family="Helvetica,sans-Serif" font-size="10.00">string</text>
</a>
</g>
</g>
<!-- Node3&#45;&gt;Node5 -->
<g id="edge4" class="edge">
<title>Node3&#45;&gt;Node5</title>
<path fill="none" stroke="midnightblue" d="M135.72,-112.34C138.23,-91.62 142.91,-53.02 145.71,-29.9"/>
<polygon fill="midnightblue" stroke="midnightblue" points="149.22,-30.02 146.95,-19.67 142.27,-29.18 149.22,-30.02"/>
</g>
<!-- Node6 -->
<g id="node6" class="node">
<title>Node6</title>
<g id="a_node6"><a xlink:href="exception_8hpp.html" target="_top" xlink:title="SignalEasel exceptions.">
<polygon fill="none" stroke="black" points="162.5,-56.5 162.5,-75.5 307.5,-75.5 307.5,-56.5 162.5,-56.5"/>
<text text-anchor="middle" x="235" y="-63.5" font-family="Helvetica,sans-Serif" font-size="10.00">SignalEasel/exception.hpp</text>
</a>
</g>
</g>
<!-- Node3&#45;&gt;Node6 -->
<g id="edge5" class="edge">
<title>Node3&#45;&gt;Node6</title>
<path fill="none" stroke="midnightblue" d="M157.94,-112.4C174.13,-102.86 195.41,-90.32 211.5,-80.84"/>
<polygon fill="midnightblue" stroke="midnightblue" points="213.46,-83.75 220.3,-75.66 209.91,-77.72 213.46,-83.75"/>
</g>
<!-- Node6&#45;&gt;Node5 -->
<g id="edge7" class="edge">
<title>Node6&#45;&gt;Node5</title>
<path fill="none" stroke="midnightblue" d="M221.02,-56.32C207.45,-47.9 186.62,-34.97 170.68,-25.07"/>
<polygon fill="midnightblue" stroke="midnightblue" points="172.29,-21.95 161.94,-19.65 168.59,-27.9 172.29,-21.95"/>
</g>
<!-- Node7 -->
<g id="node7" class="node">
<title>Node7</title>
<g id="a_node7"><a xlink:title=" ">
<polygon fill="none" stroke="#bfbfbf" points="202.5,-0.5 202.5,-19.5 267.5,-19.5 267.5,-0.5 202.5,-0.5"/>
<text text-anchor="middle" x="235" y="-7.5" font-family="Helvetica,sans-Serif" font-size="10.00">exception</text>
</a>
</g>
</g>
<!-- Node6&#45;&gt;Node7 -->
<g id="edge6" class="edge">
<title>Node6&#45;&gt;Node7</title>
<path fill="none" stroke="midnightblue" d="M235,-56.08C235,-49.01 235,-38.86 235,-29.99"/>
<polygon fill="midnightblue" stroke="midnightblue" points="238.5,-29.75 235,-19.75 231.5,-29.75 238.5,-29.75"/>
</g>
</g>
</svg>
