<?xml version="1.0" encoding="UTF-8" standalone="no"?>
<!DOCTYPE svg PUBLIC "-//W3C//DTD SVG 1.1//EN"
 "http://www.w3.org/Graphics/SVG/1.1/DTD/svg11.dtd">
<!-- Generated by graphviz version 2.43.0 (0)
 -->
<!-- Title: telemetry_data.cpp Pages: 1 -->
<svg width="317pt" height="274pt"
 viewBox="0.00 0.00 316.50 274.00" xmlns="http://www.w3.org/2000/svg" xmlns:xlink="http://www.w3.org/1999/xlink">
<g id="graph0" class="graph" transform="scale(1 1) rotate(0) translate(4 270)">
<title>telemetry_data.cpp</title>
<!-- Node1 -->
<g id="node1" class="node">
<title>Node1</title>
<g id="a_node1"><a xlink:title=" ">
<polygon fill="#bfbfbf" stroke="black" points="129,-246.5 129,-265.5 241,-265.5 241,-246.5 129,-246.5"/>
<text text-anchor="middle" x="185" y="-253.5" font-family="Helvetica,sans-Serif" font-size="10.00">telemetry_data.cpp</text>
</a>
</g>
</g>
<!-- Node2 -->
<g id="node2" class="node">
<title>Node2</title>
<g id="a_node2"><a xlink:href="telemetry__data_8hpp.html" target="_top" xlink:title=" ">
<polygon fill="none" stroke="black" points="60,-179.5 60,-209.5 208,-209.5 208,-179.5 60,-179.5"/>
<text text-anchor="start" x="68" y="-197.5" font-family="Helvetica,sans-Serif" font-size="10.00">SignalEasel/aprs/telemetry</text>
<text text-anchor="middle" x="134" y="-186.5" font-family="Helvetica,sans-Serif" font-size="10.00">_data.hpp</text>
</a>
</g>
</g>
<!-- Node1&#45;&gt;Node2 -->
<g id="edge1" class="edge">
<title>Node1&#45;&gt;Node2</title>
<path fill="none" stroke="midnightblue" d="M177.69,-246.48C171.17,-238.87 161.34,-227.4 152.66,-217.26"/>
<polygon fill="midnightblue" stroke="midnightblue" points="155.19,-214.84 146.02,-209.52 149.87,-219.39 155.19,-214.84"/>
</g>
<!-- Node7 -->
<g id="node7" class="node">
<title>Node7</title>
<g id="a_node7"><a xlink:href="exception_8hpp.html" target="_top" xlink:title="SignalEasel exceptions.">
<polygon fill="none" stroke="black" points="163.5,-56.5 163.5,-75.5 308.5,-75.5 308.5,-56.5 163.5,-56.5"/>
<text text-anchor="middle" x="236" y="-63.5" font-family="Helvetica,sans-Serif" font-size="10.00">SignalEasel/exception.hpp</text>
</a>
</g>
</g>
<!-- Node1&#45;&gt;Node7 -->
<g id="edge9" class="edge">
<title>Node1&#45;&gt;Node7</title>
<path fill="none" stroke="midnightblue" d="M193.04,-246.46C200.56,-237.93 211.45,-224.09 217,-210 233.61,-167.81 236.23,-113.77 236.34,-85.74"/>
<polygon fill="midnightblue" stroke="midnightblue" points="239.84,-85.72 236.27,-75.74 232.84,-85.76 239.84,-85.72"/>
</g>
<!-- Node3 -->
<g id="node3" class="node">
<title>Node3</title>
<g id="a_node3"><a xlink:title=" ">
<polygon fill="none" stroke="#bfbfbf" points="0,-118 0,-137 42,-137 42,-118 0,-118"/>
<text text-anchor="middle" x="21" y="-125" font-family="Helvetica,sans-Serif" font-size="10.00">array</text>
</a>
</g>
</g>
<!-- Node2&#45;&gt;Node3 -->
<g id="edge2" class="edge">
<title>Node2&#45;&gt;Node3</title>
<path fill="none" stroke="midnightblue" d="M109.48,-179.4C90.27,-168.34 63.7,-153.06 44.7,-142.13"/>
<polygon fill="midnightblue" stroke="midnightblue" points="46.2,-138.96 35.79,-137.01 42.71,-145.03 46.2,-138.96"/>
</g>
<!-- Node4 -->
<g id="node4" class="node">
<title>Node4</title>
<g id="a_node4"><a xlink:href="telemetry__parameter_8hpp.html" target="_top" xlink:title=" ">
<polygon fill="none" stroke="black" points="60,-112.5 60,-142.5 208,-142.5 208,-112.5 60,-112.5"/>
<text text-anchor="start" x="68" y="-130.5" font-family="Helvetica,sans-Serif" font-size="10.00">SignalEasel/aprs/telemetry</text>
<text text-anchor="middle" x="134" y="-119.5" font-family="Helvetica,sans-Serif" font-size="10.00">_parameter.hpp</text>
</a>
</g>
</g>
<!-- Node2&#45;&gt;Node4 -->
<g id="edge3" class="edge">
<title>Node2&#45;&gt;Node4</title>
<path fill="none" stroke="midnightblue" d="M134,-179.4C134,-171.64 134,-161.81 134,-152.86"/>
<polygon fill="midnightblue" stroke="midnightblue" points="137.5,-152.58 134,-142.58 130.5,-152.58 137.5,-152.58"/>
</g>
<!-- Node5 -->
<g id="node5" class="node">
<title>Node5</title>
<g id="a_node5"><a xlink:title=" ">
<polygon fill="none" stroke="#bfbfbf" points="57,-56.5 57,-75.5 107,-75.5 107,-56.5 57,-56.5"/>
<text text-anchor="middle" x="82" y="-63.5" font-family="Helvetica,sans-Serif" font-size="10.00">cstdint</text>
</a>
</g>
</g>
<!-- Node4&#45;&gt;Node5 -->
<g id="edge4" class="edge">
<title>Node4&#45;&gt;Node5</title>
<path fill="none" stroke="midnightblue" d="M121.68,-112.4C114.04,-103.66 104.21,-92.41 96.24,-83.3"/>
<polygon fill="midnightblue" stroke="midnightblue" points="98.78,-80.88 89.57,-75.66 93.51,-85.49 98.78,-80.88"/>
</g>
<!-- Node6 -->
<g id="node6" class="node">
<title>Node6</title>
<g id="a_node6"><a xlink:title=" ">
<polygon fill="none" stroke="#bfbfbf" points="127,-0.5 127,-19.5 171,-19.5 171,-0.5 127,-0.5"/>
<text text-anchor="middle" x="149" y="-7.5" font-family="Helvetica,sans-Serif" font-size="10.00">string</text>
</a>
</g>
</g>
<!-- Node4&#45;&gt;Node6 -->
<g id="edge5" class="edge">
<title>Node4&#45;&gt;Node6</title>
<path fill="none" stroke="midnightblue" d="M135.84,-112.34C138.53,-91.62 143.54,-53.02 146.55,-29.9"/>
<polygon fill="midnightblue" stroke="midnightblue" points="150.06,-30.04 147.87,-19.67 143.12,-29.14 150.06,-30.04"/>
</g>
<!-- Node4&#45;&gt;Node7 -->
<g id="edge6" class="edge">
<title>Node4&#45;&gt;Node7</title>
<path fill="none" stroke="midnightblue" d="M158.17,-112.4C174.52,-102.86 196.01,-90.32 212.27,-80.84"/>
<polygon fill="midnightblue" stroke="midnightblue" points="214.28,-83.72 221.16,-75.66 210.76,-77.67 214.28,-83.72"/>
</g>
<!-- Node7&#45;&gt;Node6 -->
<g id="edge8" class="edge">
<title>Node7&#45;&gt;Node6</title>
<path fill="none" stroke="midnightblue" d="M222.02,-56.32C208.45,-47.9 187.62,-34.97 171.68,-25.07"/>
<polygon fill="midnightblue" stroke="midnightblue" points="173.29,-21.95 162.94,-19.65 169.59,-27.9 173.29,-21.95"/>
</g>
<!-- Node8 -->
<g id="node8" class="node">
<title>Node8</title>
<g id="a_node8"><a xlink:title=" ">
<polygon fill="none" stroke="#bfbfbf" points="203.5,-0.5 203.5,-19.5 268.5,-19.5 268.5,-0.5 203.5,-0.5"/>
<text text-anchor="middle" x="236" y="-7.5" font-family="Helvetica,sans-Serif" font-size="10.00">exception</text>
</a>
</g>
</g>
<!-- Node7&#45;&gt;Node8 -->
<g id="edge7" class="edge">
<title>Node7&#45;&gt;Node8</title>
<path fill="none" stroke="midnightblue" d="M236,-56.08C236,-49.01 236,-38.86 236,-29.99"/>
<polygon fill="midnightblue" stroke="midnightblue" points="239.5,-29.75 236,-19.75 232.5,-29.75 239.5,-29.75"/>
</g>
</g>
</svg>
