<?xml version="1.0" encoding="UTF-8" standalone="no"?>
<!DOCTYPE svg PUBLIC "-//W3C//DTD SVG 1.1//EN"
 "http://www.w3.org/Graphics/SVG/1.1/DTD/svg11.dtd">
<!-- Generated by graphviz version 2.43.0 (0)
 -->
<!-- Title: telemetry_transcoder.cpp Pages: 1 -->
<svg width="322pt" height="341pt"
 viewBox="0.00 0.00 322.00 341.00" xmlns="http://www.w3.org/2000/svg" xmlns:xlink="http://www.w3.org/1999/xlink">
<g id="graph0" class="graph" transform="scale(1 1) rotate(0) translate(4 337)">
<title>telemetry_transcoder.cpp</title>
<!-- Node1 -->
<g id="node1" class="node">
<title>Node1</title>
<g id="a_node1"><a xlink:title=" ">
<polygon fill="#bfbfbf" stroke="black" points="120,-313.5 120,-332.5 261,-332.5 261,-313.5 120,-313.5"/>
<text text-anchor="middle" x="190.5" y="-320.5" font-family="Helvetica,sans-Serif" font-size="10.00">telemetry_transcoder.cpp</text>
</a>
</g>
</g>
<!-- Node2 -->
<g id="node2" class="node">
<title>Node2</title>
<g id="a_node2"><a xlink:href="telemetry__transcoder_8hpp.html" target="_top" xlink:title=" ">
<polygon fill="none" stroke="black" points="65.5,-246.5 65.5,-276.5 213.5,-276.5 213.5,-246.5 65.5,-246.5"/>
<text text-anchor="start" x="73.5" y="-264.5" font-family="Helvetica,sans-Serif" font-size="10.00">SignalEasel/aprs/telemetry</text>
<text text-anchor="middle" x="139.5" y="-253.5" font-family="Helvetica,sans-Serif" font-size="10.00">_transcoder.hpp</text>
</a>
</g>
</g>
<!-- Node1&#45;&gt;Node2 -->
<g id="edge1" class="edge">
<title>Node1&#45;&gt;Node2</title>
<path fill="none" stroke="midnightblue" d="M183.19,-313.48C176.67,-305.87 166.84,-294.4 158.16,-284.26"/>
<polygon fill="midnightblue" stroke="midnightblue" points="160.69,-281.84 151.52,-276.52 155.37,-286.39 160.69,-281.84"/>
</g>
<!-- Node9 -->
<g id="node9" class="node">
<title>Node9</title>
<g id="a_node9"><a xlink:href="exception_8hpp.html" target="_top" xlink:title="SignalEasel exceptions.">
<polygon fill="none" stroke="black" points="169,-56.5 169,-75.5 314,-75.5 314,-56.5 169,-56.5"/>
<text text-anchor="middle" x="241.5" y="-63.5" font-family="Helvetica,sans-Serif" font-size="10.00">SignalEasel/exception.hpp</text>
</a>
</g>
</g>
<!-- Node1&#45;&gt;Node9 -->
<g id="edge11" class="edge">
<title>Node1&#45;&gt;Node9</title>
<path fill="none" stroke="midnightblue" d="M198.96,-313.19C206.57,-304.67 217.31,-291.03 222.5,-277 247.24,-210.1 245.33,-123.39 243,-85.77"/>
<polygon fill="midnightblue" stroke="midnightblue" points="246.49,-85.48 242.29,-75.75 239.51,-85.97 246.49,-85.48"/>
</g>
<!-- Node3 -->
<g id="node3" class="node">
<title>Node3</title>
<g id="a_node3"><a xlink:title=" ">
<polygon fill="none" stroke="#bfbfbf" points="0,-185 0,-204 47,-204 47,-185 0,-185"/>
<text text-anchor="middle" x="23.5" y="-192" font-family="Helvetica,sans-Serif" font-size="10.00">vector</text>
</a>
</g>
</g>
<!-- Node2&#45;&gt;Node3 -->
<g id="edge2" class="edge">
<title>Node2&#45;&gt;Node3</title>
<path fill="none" stroke="midnightblue" d="M114.33,-246.4C94.52,-235.29 67.08,-219.92 47.56,-208.98"/>
<polygon fill="midnightblue" stroke="midnightblue" points="49.12,-205.84 38.68,-204.01 45.69,-211.95 49.12,-205.84"/>
</g>
<!-- Node4 -->
<g id="node4" class="node">
<title>Node4</title>
<g id="a_node4"><a xlink:href="telemetry__data_8hpp.html" target="_top" xlink:title=" ">
<polygon fill="none" stroke="black" points="65.5,-179.5 65.5,-209.5 213.5,-209.5 213.5,-179.5 65.5,-179.5"/>
<text text-anchor="start" x="73.5" y="-197.5" font-family="Helvetica,sans-Serif" font-size="10.00">SignalEasel/aprs/telemetry</text>
<text text-anchor="middle" x="139.5" y="-186.5" font-family="Helvetica,sans-Serif" font-size="10.00">_data.hpp</text>
</a>
</g>
</g>
<!-- Node2&#45;&gt;Node4 -->
<g id="edge3" class="edge">
<title>Node2&#45;&gt;Node4</title>
<path fill="none" stroke="midnightblue" d="M139.5,-246.4C139.5,-238.64 139.5,-228.81 139.5,-219.86"/>
<polygon fill="midnightblue" stroke="midnightblue" points="143,-219.58 139.5,-209.58 136,-219.58 143,-219.58"/>
</g>
<!-- Node5 -->
<g id="node5" class="node">
<title>Node5</title>
<g id="a_node5"><a xlink:title=" ">
<polygon fill="none" stroke="#bfbfbf" points="5.5,-118 5.5,-137 47.5,-137 47.5,-118 5.5,-118"/>
<text text-anchor="middle" x="26.5" y="-125" font-family="Helvetica,sans-Serif" font-size="10.00">array</text>
</a>
</g>
</g>
<!-- Node4&#45;&gt;Node5 -->
<g id="edge4" class="edge">
<title>Node4&#45;&gt;Node5</title>
<path fill="none" stroke="midnightblue" d="M114.98,-179.4C95.77,-168.34 69.2,-153.06 50.2,-142.13"/>
<polygon fill="midnightblue" stroke="midnightblue" points="51.7,-138.96 41.29,-137.01 48.21,-145.03 51.7,-138.96"/>
</g>
<!-- Node6 -->
<g id="node6" class="node">
<title>Node6</title>
<g id="a_node6"><a xlink:href="telemetry__parameter_8hpp.html" target="_top" xlink:title=" ">
<polygon fill="none" stroke="black" points="65.5,-112.5 65.5,-142.5 213.5,-142.5 213.5,-112.5 65.5,-112.5"/>
<text text-anchor="start" x="73.5" y="-130.5" font-family="Helvetica,sans-Serif" font-size="10.00">SignalEasel/aprs/telemetry</text>
<text text-anchor="middle" x="139.5" y="-119.5" font-family="Helvetica,sans-Serif" font-size="10.00">_parameter.hpp</text>
</a>
</g>
</g>
<!-- Node4&#45;&gt;Node6 -->
<g id="edge5" class="edge">
<title>Node4&#45;&gt;Node6</title>
<path fill="none" stroke="midnightblue" d="M139.5,-179.4C139.5,-171.64 139.5,-161.81 139.5,-152.86"/>
<polygon fill="midnightblue" stroke="midnightblue" points="143,-152.58 139.5,-142.58 136,-152.58 143,-152.58"/>
</g>
<!-- Node7 -->
<g id="node7" class="node">
<title>Node7</title>
<g id="a_node7"><a xlink:title=" ">
<polygon fill="none" stroke="#bfbfbf" points="62.5,-56.5 62.5,-75.5 112.5,-75.5 112.5,-56.5 62.5,-56.5"/>
<text text-anchor="middle" x="87.5" y="-63.5" font-family="Helvetica,sans-Serif" font-size="10.00">cstdint</text>
</a>
</g>
</g>
<!-- Node6&#45;&gt;Node7 -->
<g id="edge6" class="edge">
<title>Node6&#45;&gt;Node7</title>
<path fill="none" stroke="midnightblue" d="M127.18,-112.4C119.54,-103.66 109.71,-92.41 101.74,-83.3"/>
<polygon fill="midnightblue" stroke="midnightblue" points="104.28,-80.88 95.07,-75.66 99.01,-85.49 104.28,-80.88"/>
</g>
<!-- Node8 -->
<g id="node8" class="node">
<title>Node8</title>
<g id="a_node8"><a xlink:title=" ">
<polygon fill="none" stroke="#bfbfbf" points="132.5,-0.5 132.5,-19.5 176.5,-19.5 176.5,-0.5 132.5,-0.5"/>
<text text-anchor="middle" x="154.5" y="-7.5" font-family="Helvetica,sans-Serif" font-size="10.00">string</text>
</a>
</g>
</g>
<!-- Node6&#45;&gt;Node8 -->
<g id="edge7" class="edge">
<title>Node6&#45;&gt;Node8</title>
<path fill="none" stroke="midnightblue" d="M141.34,-112.34C144.03,-91.62 149.04,-53.02 152.05,-29.9"/>
<polygon fill="midnightblue" stroke="midnightblue" points="155.56,-30.04 153.37,-19.67 148.62,-29.14 155.56,-30.04"/>
</g>
<!-- Node6&#45;&gt;Node9 -->
<g id="edge8" class="edge">
<title>Node6&#45;&gt;Node9</title>
<path fill="none" stroke="midnightblue" d="M163.67,-112.4C180.02,-102.86 201.51,-90.32 217.77,-80.84"/>
<polygon fill="midnightblue" stroke="midnightblue" points="219.78,-83.72 226.66,-75.66 216.26,-77.67 219.78,-83.72"/>
</g>
<!-- Node9&#45;&gt;Node8 -->
<g id="edge10" class="edge">
<title>Node9&#45;&gt;Node8</title>
<path fill="none" stroke="midnightblue" d="M227.52,-56.32C213.95,-47.9 193.12,-34.97 177.18,-25.07"/>
<polygon fill="midnightblue" stroke="midnightblue" points="178.79,-21.95 168.44,-19.65 175.09,-27.9 178.79,-21.95"/>
</g>
<!-- Node10 -->
<g id="node10" class="node">
<title>Node10</title>
<g id="a_node10"><a xlink:title=" ">
<polygon fill="none" stroke="#bfbfbf" points="209,-0.5 209,-19.5 274,-19.5 274,-0.5 209,-0.5"/>
<text text-anchor="middle" x="241.5" y="-7.5" font-family="Helvetica,sans-Serif" font-size="10.00">exception</text>
</a>
</g>
</g>
<!-- Node9&#45;&gt;Node10 -->
<g id="edge9" class="edge">
<title>Node9&#45;&gt;Node10</title>
<path fill="none" stroke="midnightblue" d="M241.5,-56.08C241.5,-49.01 241.5,-38.86 241.5,-29.99"/>
<polygon fill="midnightblue" stroke="midnightblue" points="245,-29.75 241.5,-19.75 238,-29.75 245,-29.75"/>
</g>
</g>
</svg>
