<?xml version="1.0" encoding="UTF-8" standalone="no"?>
<!DOCTYPE svg PUBLIC "-//W3C//DTD SVG 1.1//EN"
 "http://www.w3.org/Graphics/SVG/1.1/DTD/svg11.dtd">
<!-- Generated by graphviz version 2.43.0 (0)
 -->
<!-- Title: telemetry_transcoder.hpp Pages: 1 -->
<svg width="377pt" height="274pt"
 viewBox="0.00 0.00 377.00 274.00" xmlns="http://www.w3.org/2000/svg" xmlns:xlink="http://www.w3.org/1999/xlink">
<g id="graph0" class="graph" transform="scale(1 1) rotate(0) translate(4 270)">
<title>telemetry_transcoder.hpp</title>
<!-- Node1 -->
<g id="node1" class="node">
<title>Node1</title>
<g id="a_node1"><a xlink:title=" ">
<polygon fill="#bfbfbf" stroke="black" points="10.5,-246.5 10.5,-265.5 152.5,-265.5 152.5,-246.5 10.5,-246.5"/>
<text text-anchor="middle" x="81.5" y="-253.5" font-family="Helvetica,sans-Serif" font-size="10.00">telemetry_transcoder.hpp</text>
</a>
</g>
</g>
<!-- Node2 -->
<g id="node2" class="node">
<title>Node2</title>
<g id="a_node2"><a xlink:title=" ">
<polygon fill="none" stroke="#bfbfbf" points="0,-185 0,-204 47,-204 47,-185 0,-185"/>
<text text-anchor="middle" x="23.5" y="-192" font-family="Helvetica,sans-Serif" font-size="10.00">vector</text>
</a>
</g>
</g>
<!-- Node1&#45;&gt;Node2 -->
<g id="edge1" class="edge">
<title>Node1&#45;&gt;Node2</title>
<path fill="none" stroke="midnightblue" d="M73.19,-246.48C64.32,-237.37 50.05,-222.74 39.08,-211.48"/>
<polygon fill="midnightblue" stroke="midnightblue" points="41.28,-208.73 31.79,-204.01 36.27,-213.61 41.28,-208.73"/>
</g>
<!-- Node3 -->
<g id="node3" class="node">
<title>Node3</title>
<g id="a_node3"><a xlink:href="telemetry__data_8hpp.html" target="_top" xlink:title=" ">
<polygon fill="none" stroke="black" points="65.5,-179.5 65.5,-209.5 213.5,-209.5 213.5,-179.5 65.5,-179.5"/>
<text text-anchor="start" x="73.5" y="-197.5" font-family="Helvetica,sans-Serif" font-size="10.00">SignalEasel/aprs/telemetry</text>
<text text-anchor="middle" x="139.5" y="-186.5" font-family="Helvetica,sans-Serif" font-size="10.00">_data.hpp</text>
</a>
</g>
</g>
<!-- Node1&#45;&gt;Node3 -->
<g id="edge2" class="edge">
<title>Node1&#45;&gt;Node3</title>
<path fill="none" stroke="midnightblue" d="M89.81,-246.48C97.3,-238.79 108.63,-227.17 118.58,-216.96"/>
<polygon fill="midnightblue" stroke="midnightblue" points="121.36,-219.13 125.83,-209.52 116.34,-214.24 121.36,-219.13"/>
</g>
<!-- Node4 -->
<g id="node4" class="node">
<title>Node4</title>
<g id="a_node4"><a xlink:title=" ">
<polygon fill="none" stroke="#bfbfbf" points="61.5,-118 61.5,-137 103.5,-137 103.5,-118 61.5,-118"/>
<text text-anchor="middle" x="82.5" y="-125" font-family="Helvetica,sans-Serif" font-size="10.00">array</text>
</a>
</g>
</g>
<!-- Node3&#45;&gt;Node4 -->
<g id="edge3" class="edge">
<title>Node3&#45;&gt;Node4</title>
<path fill="none" stroke="midnightblue" d="M127.13,-179.4C118.24,-169.26 106.24,-155.57 96.91,-144.94"/>
<polygon fill="midnightblue" stroke="midnightblue" points="99.35,-142.41 90.12,-137.19 94.09,-147.02 99.35,-142.41"/>
</g>
<!-- Node5 -->
<g id="node5" class="node">
<title>Node5</title>
<g id="a_node5"><a xlink:href="telemetry__parameter_8hpp.html" target="_top" xlink:title=" ">
<polygon fill="none" stroke="black" points="121.5,-112.5 121.5,-142.5 269.5,-142.5 269.5,-112.5 121.5,-112.5"/>
<text text-anchor="start" x="129.5" y="-130.5" font-family="Helvetica,sans-Serif" font-size="10.00">SignalEasel/aprs/telemetry</text>
<text text-anchor="middle" x="195.5" y="-119.5" font-family="Helvetica,sans-Serif" font-size="10.00">_parameter.hpp</text>
</a>
</g>
</g>
<!-- Node3&#45;&gt;Node5 -->
<g id="edge4" class="edge">
<title>Node3&#45;&gt;Node5</title>
<path fill="none" stroke="midnightblue" d="M151.65,-179.4C158.99,-170.88 168.49,-159.85 176.78,-150.23"/>
<polygon fill="midnightblue" stroke="midnightblue" points="179.5,-152.44 183.37,-142.58 174.19,-147.87 179.5,-152.44"/>
</g>
<!-- Node6 -->
<g id="node6" class="node">
<title>Node6</title>
<g id="a_node6"><a xlink:title=" ">
<polygon fill="none" stroke="#bfbfbf" points="117.5,-56.5 117.5,-75.5 167.5,-75.5 167.5,-56.5 117.5,-56.5"/>
<text text-anchor="middle" x="142.5" y="-63.5" font-family="Helvetica,sans-Serif" font-size="10.00">cstdint</text>
</a>
</g>
</g>
<!-- Node5&#45;&gt;Node6 -->
<g id="edge5" class="edge">
<title>Node5&#45;&gt;Node6</title>
<path fill="none" stroke="midnightblue" d="M182.94,-112.4C175.16,-103.66 165.14,-92.41 157.02,-83.3"/>
<polygon fill="midnightblue" stroke="midnightblue" points="159.48,-80.8 150.21,-75.66 154.25,-85.45 159.48,-80.8"/>
</g>
<!-- Node7 -->
<g id="node7" class="node">
<title>Node7</title>
<g id="a_node7"><a xlink:title=" ">
<polygon fill="none" stroke="#bfbfbf" points="187.5,-0.5 187.5,-19.5 231.5,-19.5 231.5,-0.5 187.5,-0.5"/>
<text text-anchor="middle" x="209.5" y="-7.5" font-family="Helvetica,sans-Serif" font-size="10.00">string</text>
</a>
</g>
</g>
<!-- Node5&#45;&gt;Node7 -->
<g id="edge6" class="edge">
<title>Node5&#45;&gt;Node7</title>
<path fill="none" stroke="midnightblue" d="M197.22,-112.34C199.73,-91.62 204.41,-53.02 207.21,-29.9"/>
<polygon fill="midnightblue" stroke="midnightblue" points="210.72,-30.02 208.45,-19.67 203.77,-29.18 210.72,-30.02"/>
</g>
<!-- Node8 -->
<g id="node8" class="node">
<title>Node8</title>
<g id="a_node8"><a xlink:href="exception_8hpp.html" target="_top" xlink:title="SignalEasel exceptions.">
<polygon fill="none" stroke="black" points="224,-56.5 224,-75.5 369,-75.5 369,-56.5 224,-56.5"/>
<text text-anchor="middle" x="296.5" y="-63.5" font-family="Helvetica,sans-Serif" font-size="10.00">SignalEasel/exception.hpp</text>
</a>
</g>
</g>
<!-- Node5&#45;&gt;Node8 -->
<g id="edge7" class="edge">
<title>Node5&#45;&gt;Node8</title>
<path fill="none" stroke="midnightblue" d="M219.44,-112.4C235.63,-102.86 256.91,-90.32 273,-80.84"/>
<polygon fill="midnightblue" stroke="midnightblue" points="274.96,-83.75 281.8,-75.66 271.41,-77.72 274.96,-83.75"/>
</g>
<!-- Node8&#45;&gt;Node7 -->
<g id="edge9" class="edge">
<title>Node8&#45;&gt;Node7</title>
<path fill="none" stroke="midnightblue" d="M282.52,-56.32C268.95,-47.9 248.12,-34.97 232.18,-25.07"/>
<polygon fill="midnightblue" stroke="midnightblue" points="233.79,-21.95 223.44,-19.65 230.09,-27.9 233.79,-21.95"/>
</g>
<!-- Node9 -->
<g id="node9" class="node">
<title>Node9</title>
<g id="a_node9"><a xlink:title=" ">
<polygon fill="none" stroke="#bfbfbf" points="264,-0.5 264,-19.5 329,-19.5 329,-0.5 264,-0.5"/>
<text text-anchor="middle" x="296.5" y="-7.5" font-family="Helvetica,sans-Serif" font-size="10.00">exception</text>
</a>
</g>
</g>
<!-- Node8&#45;&gt;Node9 -->
<g id="edge8" class="edge">
<title>Node8&#45;&gt;Node9</title>
<path fill="none" stroke="midnightblue" d="M296.5,-56.08C296.5,-49.01 296.5,-38.86 296.5,-29.99"/>
<polygon fill="midnightblue" stroke="midnightblue" points="300,-29.75 296.5,-19.75 293,-29.75 300,-29.75"/>
</g>
</g>
</svg>
