<?xml version="1.0" encoding="UTF-8" standalone="no"?>
<!DOCTYPE svg PUBLIC "-//W3C//DTD SVG 1.1//EN"
 "http://www.w3.org/Graphics/SVG/1.1/DTD/svg11.dtd">
<!-- Generated by graphviz version 2.43.0 (0)
 -->
<!-- Title: telemetry_data.hpp Pages: 1 -->
<svg width="938pt" height="218pt"
 viewBox="0.00 0.00 937.50 218.00" xmlns="http://www.w3.org/2000/svg" xmlns:xlink="http://www.w3.org/1999/xlink">
<g id="graph0" class="graph" transform="scale(1 1) rotate(0) translate(4 214)">
<title>telemetry_data.hpp</title>
<!-- Node1 -->
<g id="node1" class="node">
<title>Node1</title>
<g id="a_node1"><a xlink:title=" ">
<polygon fill="#bfbfbf" stroke="black" points="188.5,-190.5 188.5,-209.5 301.5,-209.5 301.5,-190.5 188.5,-190.5"/>
<text text-anchor="middle" x="245" y="-197.5" font-family="Helvetica,sans-Serif" font-size="10.00">telemetry_data.hpp</text>
</a>
</g>
</g>
<!-- Node2 -->
<g id="node2" class="node">
<title>Node2</title>
<g id="a_node2"><a xlink:href="aprs__telemetry__data__test_8cpp.html" target="_top" xlink:title=" ">
<polygon fill="none" stroke="black" points="0,-123.5 0,-153.5 118,-153.5 118,-123.5 0,-123.5"/>
<text text-anchor="start" x="8" y="-141.5" font-family="Helvetica,sans-Serif" font-size="10.00">aprs_telemetry_data</text>
<text text-anchor="middle" x="59" y="-130.5" font-family="Helvetica,sans-Serif" font-size="10.00">_test.cpp</text>
</a>
</g>
</g>
<!-- Node1&#45;&gt;Node2 -->
<g id="edge1" class="edge">
<title>Node1&#45;&gt;Node2</title>
<path fill="none" stroke="midnightblue" d="M208.6,-187.36C178.3,-177.66 135.05,-163.83 102.84,-153.52"/>
<polygon fill="midnightblue" stroke="midnightblue" points="207.76,-190.76 218.35,-190.48 209.89,-184.09 207.76,-190.76"/>
</g>
<!-- Node3 -->
<g id="node3" class="node">
<title>Node3</title>
<g id="a_node3"><a xlink:href="aprs__telemetry__transcoder__test_8cpp.html" target="_top" xlink:title=" ">
<polygon fill="none" stroke="black" points="72,-56.5 72,-86.5 220,-86.5 220,-56.5 72,-56.5"/>
<text text-anchor="start" x="80" y="-74.5" font-family="Helvetica,sans-Serif" font-size="10.00">aprs_telemetry_transcoder</text>
<text text-anchor="middle" x="146" y="-63.5" font-family="Helvetica,sans-Serif" font-size="10.00">_test.cpp</text>
</a>
</g>
</g>
<!-- Node1&#45;&gt;Node3 -->
<g id="edge2" class="edge">
<title>Node1&#45;&gt;Node3</title>
<path fill="none" stroke="midnightblue" d="M208.98,-186.44C193.29,-179.25 176.01,-168.67 165,-154 150,-134.01 146.58,-104.09 145.95,-86.61"/>
<polygon fill="midnightblue" stroke="midnightblue" points="207.9,-189.79 218.47,-190.5 210.65,-183.35 207.9,-189.79"/>
</g>
<!-- Node4 -->
<g id="node4" class="node">
<title>Node4</title>
<g id="a_node4"><a xlink:href="packets_8hpp.html" target="_top" xlink:title=" ">
<polygon fill="none" stroke="black" points="464.5,-129 464.5,-148 539.5,-148 539.5,-129 464.5,-129"/>
<text text-anchor="middle" x="502" y="-136" font-family="Helvetica,sans-Serif" font-size="10.00">packets.hpp</text>
</a>
</g>
</g>
<!-- Node1&#45;&gt;Node4 -->
<g id="edge3" class="edge">
<title>Node1&#45;&gt;Node4</title>
<path fill="none" stroke="midnightblue" d="M300.21,-188.55C342.74,-180.17 402.89,-167.59 455,-154 461.78,-152.23 469.03,-150.11 475.77,-148.04"/>
<polygon fill="midnightblue" stroke="midnightblue" points="299.47,-185.13 290.33,-190.49 300.82,-192 299.47,-185.13"/>
</g>
<!-- Node14 -->
<g id="node14" class="node">
<title>Node14</title>
<g id="a_node14"><a xlink:href="telemetry__data_8cpp.html" target="_top" xlink:title=" ">
<polygon fill="none" stroke="black" points="334,-129 334,-148 446,-148 446,-129 334,-129"/>
<text text-anchor="middle" x="390" y="-136" font-family="Helvetica,sans-Serif" font-size="10.00">telemetry_data.cpp</text>
</a>
</g>
</g>
<!-- Node1&#45;&gt;Node14 -->
<g id="edge13" class="edge">
<title>Node1&#45;&gt;Node14</title>
<path fill="none" stroke="midnightblue" d="M275.14,-186.63C303.31,-175.07 344.62,-158.12 369.26,-148.01"/>
<polygon fill="midnightblue" stroke="midnightblue" points="273.7,-183.44 265.77,-190.48 276.36,-189.92 273.7,-183.44"/>
</g>
<!-- Node15 -->
<g id="node15" class="node">
<title>Node15</title>
<g id="a_node15"><a xlink:href="telemetry__transcoder_8hpp.html" target="_top" xlink:title=" ">
<polygon fill="none" stroke="black" points="174,-129 174,-148 316,-148 316,-129 174,-129"/>
<text text-anchor="middle" x="245" y="-136" font-family="Helvetica,sans-Serif" font-size="10.00">telemetry_transcoder.hpp</text>
</a>
</g>
</g>
<!-- Node1&#45;&gt;Node15 -->
<g id="edge14" class="edge">
<title>Node1&#45;&gt;Node15</title>
<path fill="none" stroke="midnightblue" d="M245,-180.32C245,-169.5 245,-156.4 245,-148.01"/>
<polygon fill="midnightblue" stroke="midnightblue" points="241.5,-180.48 245,-190.48 248.5,-180.48 241.5,-180.48"/>
</g>
<!-- Node5 -->
<g id="node5" class="node">
<title>Node5</title>
<g id="a_node5"><a xlink:href="aprs_8hpp.html" target="_top" xlink:title=" ">
<polygon fill="none" stroke="black" points="434.5,-62 434.5,-81 493.5,-81 493.5,-62 434.5,-62"/>
<text text-anchor="middle" x="464" y="-69" font-family="Helvetica,sans-Serif" font-size="10.00">aprs.hpp</text>
</a>
</g>
</g>
<!-- Node4&#45;&gt;Node5 -->
<g id="edge4" class="edge">
<title>Node4&#45;&gt;Node5</title>
<path fill="none" stroke="midnightblue" d="M491.79,-120.03C484.43,-107.45 474.82,-91.01 469.04,-81.13"/>
<polygon fill="midnightblue" stroke="midnightblue" points="488.81,-121.87 496.88,-128.73 494.85,-118.33 488.81,-121.87"/>
</g>
<!-- Node6 -->
<g id="node6" class="node">
<title>Node6</title>
<g id="a_node6"><a xlink:href="aprs_8cpp.html" target="_top" xlink:title="APRS implementation.">
<polygon fill="none" stroke="black" points="0,-0.5 0,-19.5 58,-19.5 58,-0.5 0,-0.5"/>
<text text-anchor="middle" x="29" y="-7.5" font-family="Helvetica,sans-Serif" font-size="10.00">aprs.cpp</text>
</a>
</g>
</g>
<!-- Node5&#45;&gt;Node6 -->
<g id="edge5" class="edge">
<title>Node5&#45;&gt;Node6</title>
<path fill="none" stroke="midnightblue" d="M424.54,-62.38C412.81,-60.12 399.92,-57.8 388,-56 246.05,-34.53 208.44,-44.59 67,-20 64.19,-19.51 61.29,-18.94 58.39,-18.33"/>
<polygon fill="midnightblue" stroke="midnightblue" points="424.01,-65.84 434.49,-64.32 425.35,-58.97 424.01,-65.84"/>
</g>
<!-- Node7 -->
<g id="node7" class="node">
<title>Node7</title>
<g id="a_node7"><a xlink:href="aprs__demodulator_8cpp.html" target="_top" xlink:title="Implementation of the APRS demodulator class.">
<polygon fill="none" stroke="black" points="76.5,-0.5 76.5,-19.5 201.5,-19.5 201.5,-0.5 76.5,-0.5"/>
<text text-anchor="middle" x="139" y="-7.5" font-family="Helvetica,sans-Serif" font-size="10.00">aprs_demodulator.cpp</text>
</a>
</g>
</g>
<!-- Node5&#45;&gt;Node7 -->
<g id="edge6" class="edge">
<title>Node5&#45;&gt;Node7</title>
<path fill="none" stroke="midnightblue" d="M424.46,-62.88C412.73,-60.64 399.85,-58.2 388,-56 318.25,-43.04 237.4,-28.53 187.23,-19.57"/>
<polygon fill="midnightblue" stroke="midnightblue" points="423.94,-66.34 434.42,-64.79 425.25,-59.47 423.94,-66.34"/>
</g>
<!-- Node8 -->
<g id="node8" class="node">
<title>Node8</title>
<g id="a_node8"><a xlink:href="aprs__encoders_8cpp.html" target="_top" xlink:title="Encoding functions for APRS packets.">
<polygon fill="none" stroke="black" points="219.5,-0.5 219.5,-19.5 326.5,-19.5 326.5,-0.5 219.5,-0.5"/>
<text text-anchor="middle" x="273" y="-7.5" font-family="Helvetica,sans-Serif" font-size="10.00">aprs_encoders.cpp</text>
</a>
</g>
</g>
<!-- Node5&#45;&gt;Node8 -->
<g id="edge7" class="edge">
<title>Node5&#45;&gt;Node8</title>
<path fill="none" stroke="midnightblue" d="M426.7,-58.88C389.57,-47.32 333.48,-29.84 300.31,-19.51"/>
<polygon fill="midnightblue" stroke="midnightblue" points="426.05,-62.34 436.63,-61.98 428.13,-55.66 426.05,-62.34"/>
</g>
<!-- Node9 -->
<g id="node9" class="node">
<title>Node9</title>
<g id="a_node9"><a xlink:href="aprs__modulator_8cpp.html" target="_top" xlink:title="Implementation of the APRS modulator class.">
<polygon fill="none" stroke="black" points="344.5,-0.5 344.5,-19.5 457.5,-19.5 457.5,-0.5 344.5,-0.5"/>
<text text-anchor="middle" x="401" y="-7.5" font-family="Helvetica,sans-Serif" font-size="10.00">aprs_modulator.cpp</text>
</a>
</g>
</g>
<!-- Node5&#45;&gt;Node9 -->
<g id="edge8" class="edge">
<title>Node5&#45;&gt;Node9</title>
<path fill="none" stroke="midnightblue" d="M447.4,-54.82C435.43,-43.52 419.73,-28.69 410.01,-19.51"/>
<polygon fill="midnightblue" stroke="midnightblue" points="445.3,-57.65 454.97,-61.98 450.11,-52.56 445.3,-57.65"/>
</g>
<!-- Node10 -->
<g id="node10" class="node">
<title>Node10</title>
<g id="a_node10"><a xlink:href="aprs__receiver_8cpp.html" target="_top" xlink:title="Implementation of the APRS receiver class.">
<polygon fill="none" stroke="black" points="476,-0.5 476,-19.5 578,-19.5 578,-0.5 476,-0.5"/>
<text text-anchor="middle" x="527" y="-7.5" font-family="Helvetica,sans-Serif" font-size="10.00">aprs_receiver.cpp</text>
</a>
</g>
</g>
<!-- Node5&#45;&gt;Node10 -->
<g id="edge9" class="edge">
<title>Node5&#45;&gt;Node10</title>
<path fill="none" stroke="midnightblue" d="M480.6,-54.82C492.57,-43.52 508.27,-28.69 517.99,-19.51"/>
<polygon fill="midnightblue" stroke="midnightblue" points="477.89,-52.56 473.03,-61.98 482.7,-57.65 477.89,-52.56"/>
</g>
<!-- Node11 -->
<g id="node11" class="node">
<title>Node11</title>
<g id="a_node11"><a xlink:href="aprs__receiver__test_8cpp.html" target="_top" xlink:title="Integration tests for signal_easel::aprs::Receiver.">
<polygon fill="none" stroke="black" points="596.5,-0.5 596.5,-19.5 723.5,-19.5 723.5,-0.5 596.5,-0.5"/>
<text text-anchor="middle" x="660" y="-7.5" font-family="Helvetica,sans-Serif" font-size="10.00">aprs_receiver_test.cpp</text>
</a>
</g>
</g>
<!-- Node5&#45;&gt;Node11 -->
<g id="edge10" class="edge">
<title>Node5&#45;&gt;Node11</title>
<path fill="none" stroke="midnightblue" d="M501.79,-59.03C539.88,-47.46 597.79,-29.88 631.97,-19.51"/>
<polygon fill="midnightblue" stroke="midnightblue" points="500.63,-55.72 492.08,-61.98 502.67,-62.42 500.63,-55.72"/>
</g>
<!-- Node12 -->
<g id="node12" class="node">
<title>Node12</title>
<g id="a_node12"><a xlink:href="aprs__test_8cpp.html" target="_top" xlink:title=" ">
<polygon fill="none" stroke="black" points="742,-0.5 742,-19.5 824,-19.5 824,-0.5 742,-0.5"/>
<text text-anchor="middle" x="783" y="-7.5" font-family="Helvetica,sans-Serif" font-size="10.00">aprs_test.cpp</text>
</a>
</g>
</g>
<!-- Node5&#45;&gt;Node12 -->
<g id="edge11" class="edge">
<title>Node5&#45;&gt;Node12</title>
<path fill="none" stroke="midnightblue" d="M503.71,-63.09C564.51,-51.75 680.11,-30.19 741.8,-18.69"/>
<polygon fill="midnightblue" stroke="midnightblue" points="502.91,-59.68 493.72,-64.96 504.2,-66.56 502.91,-59.68"/>
</g>
<!-- Node13 -->
<g id="node13" class="node">
<title>Node13</title>
<g id="a_node13"><a xlink:href="pulse__test_8cpp.html" target="_top" xlink:title="PulseAudio output test. Does not use gtest.">
<polygon fill="none" stroke="black" points="842.5,-0.5 842.5,-19.5 929.5,-19.5 929.5,-0.5 842.5,-0.5"/>
<text text-anchor="middle" x="886" y="-7.5" font-family="Helvetica,sans-Serif" font-size="10.00">pulse_test.cpp</text>
</a>
</g>
</g>
<!-- Node5&#45;&gt;Node13 -->
<g id="edge12" class="edge">
<title>Node5&#45;&gt;Node13</title>
<path fill="none" stroke="midnightblue" d="M503.93,-65.46C571.69,-56.82 713.49,-38.32 833,-20 836.04,-19.53 839.18,-19.04 842.35,-18.53"/>
<polygon fill="midnightblue" stroke="midnightblue" points="503.18,-62.03 493.7,-66.76 504.06,-68.97 503.18,-62.03"/>
</g>
<!-- Node15&#45;&gt;Node3 -->
<g id="edge16" class="edge">
<title>Node15&#45;&gt;Node3</title>
<path fill="none" stroke="midnightblue" d="M223.15,-123.15C206.58,-112.27 183.93,-97.4 167.46,-86.59"/>
<polygon fill="midnightblue" stroke="midnightblue" points="221.37,-126.17 231.65,-128.73 225.21,-120.32 221.37,-126.17"/>
</g>
<!-- Node15&#45;&gt;Node5 -->
<g id="edge15" class="edge">
<title>Node15&#45;&gt;Node5</title>
<path fill="none" stroke="midnightblue" d="M283.71,-126.01C327.06,-113.15 396.3,-92.59 435.15,-81.06"/>
<polygon fill="midnightblue" stroke="midnightblue" points="282.67,-122.67 274.08,-128.87 284.66,-129.38 282.67,-122.67"/>
</g>
<!-- Node16 -->
<g id="node16" class="node">
<title>Node16</title>
<g id="a_node16"><a xlink:href="telemetry__transcoder_8cpp.html" target="_top" xlink:title=" ">
<polygon fill="none" stroke="black" points="238.5,-62 238.5,-81 379.5,-81 379.5,-62 238.5,-62"/>
<text text-anchor="middle" x="309" y="-69" font-family="Helvetica,sans-Serif" font-size="10.00">telemetry_transcoder.cpp</text>
</a>
</g>
</g>
<!-- Node15&#45;&gt;Node16 -->
<g id="edge17" class="edge">
<title>Node15&#45;&gt;Node16</title>
<path fill="none" stroke="midnightblue" d="M260.76,-121.5C273.31,-108.75 290.4,-91.39 300.51,-81.13"/>
<polygon fill="midnightblue" stroke="midnightblue" points="258.15,-119.15 253.63,-128.73 263.14,-124.06 258.15,-119.15"/>
</g>
</g>
</svg>
