<?xml version="1.0" encoding="UTF-8" standalone="no"?>
<!DOCTYPE svg PUBLIC "-//W3C//DTD SVG 1.1//EN"
 "http://www.w3.org/Graphics/SVG/1.1/DTD/svg11.dtd">
<!-- Generated by graphviz version 2.43.0 (0)
 -->
<!-- Title: telemetry_transcoder.hpp Pages: 1 -->
<svg width="938pt" height="151pt"
 viewBox="0.00 0.00 937.50 151.00" xmlns="http://www.w3.org/2000/svg" xmlns:xlink="http://www.w3.org/1999/xlink">
<g id="graph0" class="graph" transform="scale(1 1) rotate(0) translate(4 147)">
<title>telemetry_transcoder.hpp</title>
<!-- Node1 -->
<g id="node1" class="node">
<title>Node1</title>
<g id="a_node1"><a xlink:title=" ">
<polygon fill="#bfbfbf" stroke="black" points="515,-123.5 515,-142.5 657,-142.5 657,-123.5 515,-123.5"/>
<text text-anchor="middle" x="586" y="-130.5" font-family="Helvetica,sans-Serif" font-size="10.00">telemetry_transcoder.hpp</text>
</a>
</g>
</g>
<!-- Node2 -->
<g id="node2" class="node">
<title>Node2</title>
<g id="a_node2"><a xlink:href="aprs_8hpp.html" target="_top" xlink:title=" ">
<polygon fill="none" stroke="black" points="434.5,-62 434.5,-81 493.5,-81 493.5,-62 434.5,-62"/>
<text text-anchor="middle" x="464" y="-69" font-family="Helvetica,sans-Serif" font-size="10.00">aprs.hpp</text>
</a>
</g>
</g>
<!-- Node1&#45;&gt;Node2 -->
<g id="edge1" class="edge">
<title>Node1&#45;&gt;Node2</title>
<path fill="none" stroke="midnightblue" d="M559.39,-119.02C535.73,-107.48 501.82,-90.94 481.45,-81.01"/>
<polygon fill="midnightblue" stroke="midnightblue" points="558,-122.24 568.52,-123.48 561.07,-115.95 558,-122.24"/>
</g>
<!-- Node11 -->
<g id="node11" class="node">
<title>Node11</title>
<g id="a_node11"><a xlink:href="aprs__telemetry__transcoder__test_8cpp.html" target="_top" xlink:title=" ">
<polygon fill="none" stroke="black" points="512,-56.5 512,-86.5 660,-86.5 660,-56.5 512,-56.5"/>
<text text-anchor="start" x="520" y="-74.5" font-family="Helvetica,sans-Serif" font-size="10.00">aprs_telemetry_transcoder</text>
<text text-anchor="middle" x="586" y="-63.5" font-family="Helvetica,sans-Serif" font-size="10.00">_test.cpp</text>
</a>
</g>
</g>
<!-- Node1&#45;&gt;Node11 -->
<g id="edge10" class="edge">
<title>Node1&#45;&gt;Node11</title>
<path fill="none" stroke="midnightblue" d="M586,-113.23C586,-104.59 586,-94.5 586,-86.52"/>
<polygon fill="midnightblue" stroke="midnightblue" points="582.5,-113.48 586,-123.48 589.5,-113.48 582.5,-113.48"/>
</g>
<!-- Node12 -->
<g id="node12" class="node">
<title>Node12</title>
<g id="a_node12"><a xlink:href="telemetry__transcoder_8cpp.html" target="_top" xlink:title=" ">
<polygon fill="none" stroke="black" points="678.5,-62 678.5,-81 819.5,-81 819.5,-62 678.5,-62"/>
<text text-anchor="middle" x="749" y="-69" font-family="Helvetica,sans-Serif" font-size="10.00">telemetry_transcoder.cpp</text>
</a>
</g>
</g>
<!-- Node1&#45;&gt;Node12 -->
<g id="edge11" class="edge">
<title>Node1&#45;&gt;Node12</title>
<path fill="none" stroke="midnightblue" d="M619.06,-119.93C650.74,-108.37 697.75,-91.21 725.69,-81.01"/>
<polygon fill="midnightblue" stroke="midnightblue" points="617.55,-116.76 609.35,-123.48 619.95,-123.33 617.55,-116.76"/>
</g>
<!-- Node3 -->
<g id="node3" class="node">
<title>Node3</title>
<g id="a_node3"><a xlink:href="aprs_8cpp.html" target="_top" xlink:title="APRS implementation.">
<polygon fill="none" stroke="black" points="0,-0.5 0,-19.5 58,-19.5 58,-0.5 0,-0.5"/>
<text text-anchor="middle" x="29" y="-7.5" font-family="Helvetica,sans-Serif" font-size="10.00">aprs.cpp</text>
</a>
</g>
</g>
<!-- Node2&#45;&gt;Node3 -->
<g id="edge2" class="edge">
<title>Node2&#45;&gt;Node3</title>
<path fill="none" stroke="midnightblue" d="M424.07,-66.84C352.26,-59.93 196.72,-43.54 67,-20 64.2,-19.49 61.29,-18.91 58.39,-18.29"/>
<polygon fill="midnightblue" stroke="midnightblue" points="424.17,-70.36 434.45,-67.82 424.83,-63.39 424.17,-70.36"/>
</g>
<!-- Node4 -->
<g id="node4" class="node">
<title>Node4</title>
<g id="a_node4"><a xlink:href="aprs__demodulator_8cpp.html" target="_top" xlink:title="Implementation of the APRS demodulator class.">
<polygon fill="none" stroke="black" points="76.5,-0.5 76.5,-19.5 201.5,-19.5 201.5,-0.5 76.5,-0.5"/>
<text text-anchor="middle" x="139" y="-7.5" font-family="Helvetica,sans-Serif" font-size="10.00">aprs_demodulator.cpp</text>
</a>
</g>
</g>
<!-- Node2&#45;&gt;Node4 -->
<g id="edge3" class="edge">
<title>Node2&#45;&gt;Node4</title>
<path fill="none" stroke="midnightblue" d="M424.41,-63.25C364.16,-52.22 249.73,-31.27 185.58,-19.53"/>
<polygon fill="midnightblue" stroke="midnightblue" points="423.83,-66.7 434.3,-65.06 425.09,-59.82 423.83,-66.7"/>
</g>
<!-- Node5 -->
<g id="node5" class="node">
<title>Node5</title>
<g id="a_node5"><a xlink:href="aprs__encoders_8cpp.html" target="_top" xlink:title="Encoding functions for APRS packets.">
<polygon fill="none" stroke="black" points="219.5,-0.5 219.5,-19.5 326.5,-19.5 326.5,-0.5 219.5,-0.5"/>
<text text-anchor="middle" x="273" y="-7.5" font-family="Helvetica,sans-Serif" font-size="10.00">aprs_encoders.cpp</text>
</a>
</g>
</g>
<!-- Node2&#45;&gt;Node5 -->
<g id="edge4" class="edge">
<title>Node2&#45;&gt;Node5</title>
<path fill="none" stroke="midnightblue" d="M426.7,-58.88C389.57,-47.32 333.48,-29.84 300.31,-19.51"/>
<polygon fill="midnightblue" stroke="midnightblue" points="426.05,-62.34 436.63,-61.98 428.13,-55.66 426.05,-62.34"/>
</g>
<!-- Node6 -->
<g id="node6" class="node">
<title>Node6</title>
<g id="a_node6"><a xlink:href="aprs__modulator_8cpp.html" target="_top" xlink:title="Implementation of the APRS modulator class.">
<polygon fill="none" stroke="black" points="344.5,-0.5 344.5,-19.5 457.5,-19.5 457.5,-0.5 344.5,-0.5"/>
<text text-anchor="middle" x="401" y="-7.5" font-family="Helvetica,sans-Serif" font-size="10.00">aprs_modulator.cpp</text>
</a>
</g>
</g>
<!-- Node2&#45;&gt;Node6 -->
<g id="edge5" class="edge">
<title>Node2&#45;&gt;Node6</title>
<path fill="none" stroke="midnightblue" d="M447.4,-54.82C435.43,-43.52 419.73,-28.69 410.01,-19.51"/>
<polygon fill="midnightblue" stroke="midnightblue" points="445.3,-57.65 454.97,-61.98 450.11,-52.56 445.3,-57.65"/>
</g>
<!-- Node7 -->
<g id="node7" class="node">
<title>Node7</title>
<g id="a_node7"><a xlink:href="aprs__receiver_8cpp.html" target="_top" xlink:title="Implementation of the APRS receiver class.">
<polygon fill="none" stroke="black" points="476,-0.5 476,-19.5 578,-19.5 578,-0.5 476,-0.5"/>
<text text-anchor="middle" x="527" y="-7.5" font-family="Helvetica,sans-Serif" font-size="10.00">aprs_receiver.cpp</text>
</a>
</g>
</g>
<!-- Node2&#45;&gt;Node7 -->
<g id="edge6" class="edge">
<title>Node2&#45;&gt;Node7</title>
<path fill="none" stroke="midnightblue" d="M480.6,-54.82C492.57,-43.52 508.27,-28.69 517.99,-19.51"/>
<polygon fill="midnightblue" stroke="midnightblue" points="477.89,-52.56 473.03,-61.98 482.7,-57.65 477.89,-52.56"/>
</g>
<!-- Node8 -->
<g id="node8" class="node">
<title>Node8</title>
<g id="a_node8"><a xlink:href="aprs__receiver__test_8cpp.html" target="_top" xlink:title="Integration tests for signal_easel::aprs::Receiver.">
<polygon fill="none" stroke="black" points="596.5,-0.5 596.5,-19.5 723.5,-19.5 723.5,-0.5 596.5,-0.5"/>
<text text-anchor="middle" x="660" y="-7.5" font-family="Helvetica,sans-Serif" font-size="10.00">aprs_receiver_test.cpp</text>
</a>
</g>
</g>
<!-- Node2&#45;&gt;Node8 -->
<g id="edge7" class="edge">
<title>Node2&#45;&gt;Node8</title>
<path fill="none" stroke="midnightblue" d="M495.64,-58.5C498.12,-57.63 500.6,-56.79 503,-56 545.69,-41.97 595.71,-28.06 627.61,-19.5"/>
<polygon fill="midnightblue" stroke="midnightblue" points="494.39,-55.24 486.17,-61.92 496.76,-61.82 494.39,-55.24"/>
</g>
<!-- Node9 -->
<g id="node9" class="node">
<title>Node9</title>
<g id="a_node9"><a xlink:href="aprs__test_8cpp.html" target="_top" xlink:title=" ">
<polygon fill="none" stroke="black" points="742,-0.5 742,-19.5 824,-19.5 824,-0.5 742,-0.5"/>
<text text-anchor="middle" x="783" y="-7.5" font-family="Helvetica,sans-Serif" font-size="10.00">aprs_test.cpp</text>
</a>
</g>
</g>
<!-- Node2&#45;&gt;Node9 -->
<g id="edge8" class="edge">
<title>Node2&#45;&gt;Node9</title>
<path fill="none" stroke="midnightblue" d="M494.4,-58.53C497.29,-57.6 500.18,-56.74 503,-56 603.11,-29.84 630.97,-37.17 733,-20 735.87,-19.52 738.83,-19.01 741.81,-18.49"/>
<polygon fill="midnightblue" stroke="midnightblue" points="493.09,-55.29 484.8,-61.89 495.4,-61.89 493.09,-55.29"/>
</g>
<!-- Node10 -->
<g id="node10" class="node">
<title>Node10</title>
<g id="a_node10"><a xlink:href="pulse__test_8cpp.html" target="_top" xlink:title="PulseAudio output test. Does not use gtest.">
<polygon fill="none" stroke="black" points="842.5,-0.5 842.5,-19.5 929.5,-19.5 929.5,-0.5 842.5,-0.5"/>
<text text-anchor="middle" x="886" y="-7.5" font-family="Helvetica,sans-Serif" font-size="10.00">pulse_test.cpp</text>
</a>
</g>
</g>
<!-- Node2&#45;&gt;Node10 -->
<g id="edge9" class="edge">
<title>Node2&#45;&gt;Node10</title>
<path fill="none" stroke="midnightblue" d="M493.87,-58.55C496.92,-57.58 500,-56.71 503,-56 646.57,-22.03 686.87,-40.36 833,-20 836.05,-19.57 839.2,-19.11 842.36,-18.62"/>
<polygon fill="midnightblue" stroke="midnightblue" points="492.65,-55.27 484.35,-61.85 494.95,-61.88 492.65,-55.27"/>
</g>
</g>
</svg>
