<?xml version="1.0" encoding="UTF-8" standalone="no"?>
<!DOCTYPE svg PUBLIC "-//W3C//DTD SVG 1.1//EN"
 "http://www.w3.org/Graphics/SVG/1.1/DTD/svg11.dtd">
<!-- Generated by graphviz version 2.43.0 (0)
 -->
<!-- Title: telemetry_data.hpp Pages: 1 -->
<svg width="855pt" height="218pt"
 viewBox="0.00 0.00 854.50 218.00" xmlns="http://www.w3.org/2000/svg" xmlns:xlink="http://www.w3.org/1999/xlink">
<g id="graph0" class="graph" transform="scale(1 1) rotate(0) translate(4 214)">
<title>telemetry_data.hpp</title>
<!-- Node1 -->
<g id="node1" class="node">
<title>Node1</title>
<g id="a_node1"><a xlink:title=" ">
<polygon fill="#bfbfbf" stroke="black" points="188.5,-190.5 188.5,-209.5 301.5,-209.5 301.5,-190.5 188.5,-190.5"/>
<text text-anchor="middle" x="245" y="-197.5" font-family="Helvetica,sans-Serif" font-size="10.00">telemetry_data.hpp</text>
</a>
</g>
</g>
<!-- Node2 -->
<g id="node2" class="node">
<title>Node2</title>
<g id="a_node2"><a xlink:href="aprs__telemetry__data__test_8cpp.html" target="_top" xlink:title=" ">
<polygon fill="none" stroke="black" points="0,-123.5 0,-153.5 118,-153.5 118,-123.5 0,-123.5"/>
<text text-anchor="start" x="8" y="-141.5" font-family="Helvetica,sans-Serif" font-size="10.00">aprs_telemetry_data</text>
<text text-anchor="middle" x="59" y="-130.5" font-family="Helvetica,sans-Serif" font-size="10.00">_test.cpp</text>
</a>
</g>
</g>
<!-- Node1&#45;&gt;Node2 -->
<g id="edge1" class="edge">
<title>Node1&#45;&gt;Node2</title>
<path fill="none" stroke="midnightblue" d="M208.6,-187.36C178.3,-177.66 135.05,-163.83 102.84,-153.52"/>
<polygon fill="midnightblue" stroke="midnightblue" points="207.76,-190.76 218.35,-190.48 209.89,-184.09 207.76,-190.76"/>
</g>
<!-- Node3 -->
<g id="node3" class="node">
<title>Node3</title>
<g id="a_node3"><a xlink:href="aprs__telemetry__transcoder__test_8cpp.html" target="_top" xlink:title=" ">
<polygon fill="none" stroke="black" points="72,-56.5 72,-86.5 220,-86.5 220,-56.5 72,-56.5"/>
<text text-anchor="start" x="80" y="-74.5" font-family="Helvetica,sans-Serif" font-size="10.00">aprs_telemetry_transcoder</text>
<text text-anchor="middle" x="146" y="-63.5" font-family="Helvetica,sans-Serif" font-size="10.00">_test.cpp</text>
</a>
</g>
</g>
<!-- Node1&#45;&gt;Node3 -->
<g id="edge2" class="edge">
<title>Node1&#45;&gt;Node3</title>
<path fill="none" stroke="midnightblue" d="M208.98,-186.44C193.29,-179.25 176.01,-168.67 165,-154 150,-134.01 146.58,-104.09 145.95,-86.61"/>
<polygon fill="midnightblue" stroke="midnightblue" points="207.9,-189.79 218.47,-190.5 210.65,-183.35 207.9,-189.79"/>
</g>
<!-- Node4 -->
<g id="node4" class="node">
<title>Node4</title>
<g id="a_node4"><a xlink:href="packets_8hpp.html" target="_top" xlink:title=" ">
<polygon fill="none" stroke="black" points="464.5,-129 464.5,-148 539.5,-148 539.5,-129 464.5,-129"/>
<text text-anchor="middle" x="502" y="-136" font-family="Helvetica,sans-Serif" font-size="10.00">packets.hpp</text>
</a>
</g>
</g>
<!-- Node1&#45;&gt;Node4 -->
<g id="edge3" class="edge">
<title>Node1&#45;&gt;Node4</title>
<path fill="none" stroke="midnightblue" d="M300.21,-188.55C342.74,-180.17 402.89,-167.59 455,-154 461.78,-152.23 469.03,-150.11 475.77,-148.04"/>
<polygon fill="midnightblue" stroke="midnightblue" points="299.47,-185.13 290.33,-190.49 300.82,-192 299.47,-185.13"/>
</g>
<!-- Node13 -->
<g id="node13" class="node">
<title>Node13</title>
<g id="a_node13"><a xlink:href="telemetry__data_8cpp.html" target="_top" xlink:title=" ">
<polygon fill="none" stroke="black" points="334,-129 334,-148 446,-148 446,-129 334,-129"/>
<text text-anchor="middle" x="390" y="-136" font-family="Helvetica,sans-Serif" font-size="10.00">telemetry_data.cpp</text>
</a>
</g>
</g>
<!-- Node1&#45;&gt;Node13 -->
<g id="edge12" class="edge">
<title>Node1&#45;&gt;Node13</title>
<path fill="none" stroke="midnightblue" d="M275.14,-186.63C303.31,-175.07 344.62,-158.12 369.26,-148.01"/>
<polygon fill="midnightblue" stroke="midnightblue" points="273.7,-183.44 265.77,-190.48 276.36,-189.92 273.7,-183.44"/>
</g>
<!-- Node14 -->
<g id="node14" class="node">
<title>Node14</title>
<g id="a_node14"><a xlink:href="telemetry__transcoder_8hpp.html" target="_top" xlink:title=" ">
<polygon fill="none" stroke="black" points="174,-129 174,-148 316,-148 316,-129 174,-129"/>
<text text-anchor="middle" x="245" y="-136" font-family="Helvetica,sans-Serif" font-size="10.00">telemetry_transcoder.hpp</text>
</a>
</g>
</g>
<!-- Node1&#45;&gt;Node14 -->
<g id="edge13" class="edge">
<title>Node1&#45;&gt;Node14</title>
<path fill="none" stroke="midnightblue" d="M245,-180.32C245,-169.5 245,-156.4 245,-148.01"/>
<polygon fill="midnightblue" stroke="midnightblue" points="241.5,-180.48 245,-190.48 248.5,-180.48 241.5,-180.48"/>
</g>
<!-- Node5 -->
<g id="node5" class="node">
<title>Node5</title>
<g id="a_node5"><a xlink:href="aprs_8hpp.html" target="_top" xlink:title=" ">
<polygon fill="none" stroke="black" points="434.5,-62 434.5,-81 493.5,-81 493.5,-62 434.5,-62"/>
<text text-anchor="middle" x="464" y="-69" font-family="Helvetica,sans-Serif" font-size="10.00">aprs.hpp</text>
</a>
</g>
</g>
<!-- Node4&#45;&gt;Node5 -->
<g id="edge4" class="edge">
<title>Node4&#45;&gt;Node5</title>
<path fill="none" stroke="midnightblue" d="M491.79,-120.03C484.43,-107.45 474.82,-91.01 469.04,-81.13"/>
<polygon fill="midnightblue" stroke="midnightblue" points="488.81,-121.87 496.88,-128.73 494.85,-118.33 488.81,-121.87"/>
</g>
<!-- Node6 -->
<g id="node6" class="node">
<title>Node6</title>
<g id="a_node6"><a xlink:href="aprs_8cpp.html" target="_top" xlink:title="APRS implementation.">
<polygon fill="none" stroke="black" points="63,-0.5 63,-19.5 121,-19.5 121,-0.5 63,-0.5"/>
<text text-anchor="middle" x="92" y="-7.5" font-family="Helvetica,sans-Serif" font-size="10.00">aprs.cpp</text>
</a>
</g>
</g>
<!-- Node5&#45;&gt;Node6 -->
<g id="edge5" class="edge">
<title>Node5&#45;&gt;Node6</title>
<path fill="none" stroke="midnightblue" d="M424.51,-62.58C412.78,-60.33 399.89,-57.96 388,-56 273.77,-37.15 243.79,-41.36 130,-20 127.2,-19.47 124.3,-18.88 121.4,-18.25"/>
<polygon fill="midnightblue" stroke="midnightblue" points="423.98,-66.04 434.47,-64.51 425.32,-59.17 423.98,-66.04"/>
</g>
<!-- Node7 -->
<g id="node7" class="node">
<title>Node7</title>
<g id="a_node7"><a xlink:href="aprs__demodulator_8cpp.html" target="_top" xlink:title="Implementation of the APRS demodulator class.">
<polygon fill="none" stroke="black" points="139.5,-0.5 139.5,-19.5 264.5,-19.5 264.5,-0.5 139.5,-0.5"/>
<text text-anchor="middle" x="202" y="-7.5" font-family="Helvetica,sans-Serif" font-size="10.00">aprs_demodulator.cpp</text>
</a>
</g>
</g>
<!-- Node5&#45;&gt;Node7 -->
<g id="edge6" class="edge">
<title>Node5&#45;&gt;Node7</title>
<path fill="none" stroke="midnightblue" d="M424.63,-61.56C374.53,-50.18 288.6,-30.67 239.44,-19.5"/>
<polygon fill="midnightblue" stroke="midnightblue" points="423.93,-64.99 434.45,-63.79 425.48,-58.16 423.93,-64.99"/>
</g>
<!-- Node8 -->
<g id="node8" class="node">
<title>Node8</title>
<g id="a_node8"><a xlink:href="aprs__encoders_8cpp.html" target="_top" xlink:title="Encoding functions for APRS packets.">
<polygon fill="none" stroke="black" points="282.5,-0.5 282.5,-19.5 389.5,-19.5 389.5,-0.5 282.5,-0.5"/>
<text text-anchor="middle" x="336" y="-7.5" font-family="Helvetica,sans-Serif" font-size="10.00">aprs_encoders.cpp</text>
</a>
</g>
</g>
<!-- Node5&#45;&gt;Node8 -->
<g id="edge7" class="edge">
<title>Node5&#45;&gt;Node8</title>
<path fill="none" stroke="midnightblue" d="M436.41,-57.67C411.57,-46.13 375.77,-29.49 354.31,-19.51"/>
<polygon fill="midnightblue" stroke="midnightblue" points="435.12,-60.93 445.66,-61.98 438.07,-54.59 435.12,-60.93"/>
</g>
<!-- Node9 -->
<g id="node9" class="node">
<title>Node9</title>
<g id="a_node9"><a xlink:href="aprs__modulator_8cpp.html" target="_top" xlink:title="Implementation of the APRS modulator class.">
<polygon fill="none" stroke="black" points="407.5,-0.5 407.5,-19.5 520.5,-19.5 520.5,-0.5 407.5,-0.5"/>
<text text-anchor="middle" x="464" y="-7.5" font-family="Helvetica,sans-Serif" font-size="10.00">aprs_modulator.cpp</text>
</a>
</g>
</g>
<!-- Node5&#45;&gt;Node9 -->
<g id="edge8" class="edge">
<title>Node5&#45;&gt;Node9</title>
<path fill="none" stroke="midnightblue" d="M464,-51.82C464,-41 464,-27.9 464,-19.51"/>
<polygon fill="midnightblue" stroke="midnightblue" points="460.5,-51.98 464,-61.98 467.5,-51.98 460.5,-51.98"/>
</g>
<!-- Node10 -->
<g id="node10" class="node">
<title>Node10</title>
<g id="a_node10"><a xlink:href="aprs__receiver_8cpp.html" target="_top" xlink:title="Implementation of the APRS receiver class.">
<polygon fill="none" stroke="black" points="539,-0.5 539,-19.5 641,-19.5 641,-0.5 539,-0.5"/>
<text text-anchor="middle" x="590" y="-7.5" font-family="Helvetica,sans-Serif" font-size="10.00">aprs_receiver.cpp</text>
</a>
</g>
</g>
<!-- Node5&#45;&gt;Node10 -->
<g id="edge9" class="edge">
<title>Node5&#45;&gt;Node10</title>
<path fill="none" stroke="midnightblue" d="M491.16,-57.67C515.61,-46.13 550.85,-29.49 571.98,-19.51"/>
<polygon fill="midnightblue" stroke="midnightblue" points="489.6,-54.54 482.05,-61.98 492.59,-60.87 489.6,-54.54"/>
</g>
<!-- Node11 -->
<g id="node11" class="node">
<title>Node11</title>
<g id="a_node11"><a xlink:href="aprs__test_8cpp.html" target="_top" xlink:title=" ">
<polygon fill="none" stroke="black" points="659,-0.5 659,-19.5 741,-19.5 741,-0.5 659,-0.5"/>
<text text-anchor="middle" x="700" y="-7.5" font-family="Helvetica,sans-Serif" font-size="10.00">aprs_test.cpp</text>
</a>
</g>
</g>
<!-- Node5&#45;&gt;Node11 -->
<g id="edge10" class="edge">
<title>Node5&#45;&gt;Node11</title>
<path fill="none" stroke="midnightblue" d="M503.72,-60.49C549.28,-49 623.23,-30.36 666.17,-19.53"/>
<polygon fill="midnightblue" stroke="midnightblue" points="502.73,-57.13 493.89,-62.96 504.44,-63.91 502.73,-57.13"/>
</g>
<!-- Node12 -->
<g id="node12" class="node">
<title>Node12</title>
<g id="a_node12"><a xlink:href="pulse__test_8cpp.html" target="_top" xlink:title="PulseAudio output test. Does not use gtest.">
<polygon fill="none" stroke="black" points="759.5,-0.5 759.5,-19.5 846.5,-19.5 846.5,-0.5 759.5,-0.5"/>
<text text-anchor="middle" x="803" y="-7.5" font-family="Helvetica,sans-Serif" font-size="10.00">pulse_test.cpp</text>
</a>
</g>
</g>
<!-- Node5&#45;&gt;Node12 -->
<g id="edge11" class="edge">
<title>Node5&#45;&gt;Node12</title>
<path fill="none" stroke="midnightblue" d="M503.89,-63.5C567.94,-52.26 693.21,-30.27 759.48,-18.64"/>
<polygon fill="midnightblue" stroke="midnightblue" points="503.03,-60.1 493.79,-65.27 504.24,-66.99 503.03,-60.1"/>
</g>
<!-- Node14&#45;&gt;Node3 -->
<g id="edge15" class="edge">
<title>Node14&#45;&gt;Node3</title>
<path fill="none" stroke="midnightblue" d="M223.15,-123.15C206.58,-112.27 183.93,-97.4 167.46,-86.59"/>
<polygon fill="midnightblue" stroke="midnightblue" points="221.37,-126.17 231.65,-128.73 225.21,-120.32 221.37,-126.17"/>
</g>
<!-- Node14&#45;&gt;Node5 -->
<g id="edge14" class="edge">
<title>Node14&#45;&gt;Node5</title>
<path fill="none" stroke="midnightblue" d="M283.71,-126.01C327.06,-113.15 396.3,-92.59 435.15,-81.06"/>
<polygon fill="midnightblue" stroke="midnightblue" points="282.67,-122.67 274.08,-128.87 284.66,-129.38 282.67,-122.67"/>
</g>
<!-- Node15 -->
<g id="node15" class="node">
<title>Node15</title>
<g id="a_node15"><a xlink:href="telemetry__transcoder_8cpp.html" target="_top" xlink:title=" ">
<polygon fill="none" stroke="black" points="238.5,-62 238.5,-81 379.5,-81 379.5,-62 238.5,-62"/>
<text text-anchor="middle" x="309" y="-69" font-family="Helvetica,sans-Serif" font-size="10.00">telemetry_transcoder.cpp</text>
</a>
</g>
</g>
<!-- Node14&#45;&gt;Node15 -->
<g id="edge16" class="edge">
<title>Node14&#45;&gt;Node15</title>
<path fill="none" stroke="midnightblue" d="M260.76,-121.5C273.31,-108.75 290.4,-91.39 300.51,-81.13"/>
<polygon fill="midnightblue" stroke="midnightblue" points="258.15,-119.15 253.63,-128.73 263.14,-124.06 258.15,-119.15"/>
</g>
</g>
</svg>
