<?xml version="1.0" encoding="UTF-8" standalone="no"?>
<!DOCTYPE svg PUBLIC "-//W3C//DTD SVG 1.1//EN"
 "http://www.w3.org/Graphics/SVG/1.1/DTD/svg11.dtd">
<!-- Generated by graphviz version 2.43.0 (0)
 -->
<!-- Title: tmp.cpp Pages: 1 -->
<svg width="544pt" height="196pt"
 viewBox="0.00 0.00 544.00 196.00" xmlns="http://www.w3.org/2000/svg" xmlns:xlink="http://www.w3.org/1999/xlink">
<g id="graph0" class="graph" transform="scale(1 1) rotate(0) translate(4 192)">
<title>tmp.cpp</title>
<!-- Node1 -->
<g id="node1" class="node">
<title>Node1</title>
<g id="a_node1"><a xlink:title=" ">
<polygon fill="#bfbfbf" stroke="black" points="374,-168.5 374,-187.5 430,-187.5 430,-168.5 374,-168.5"/>
<text text-anchor="middle" x="402" y="-175.5" font-family="Helvetica,sans-Serif" font-size="10.00">tmp.cpp</text>
</a>
</g>
</g>
<!-- Node2 -->
<g id="node2" class="node">
<title>Node2</title>
<g id="a_node2"><a xlink:href="ax25_8hpp.html" target="_top" xlink:title="AX.25 tools.">
<polygon fill="none" stroke="black" points="189.5,-112.5 189.5,-131.5 310.5,-131.5 310.5,-112.5 189.5,-112.5"/>
<text text-anchor="middle" x="250" y="-119.5" font-family="Helvetica,sans-Serif" font-size="10.00">SignalEasel/ax25.hpp</text>
</a>
</g>
</g>
<!-- Node1&#45;&gt;Node2 -->
<g id="edge1" class="edge">
<title>Node1&#45;&gt;Node2</title>
<path fill="none" stroke="midnightblue" d="M377.92,-168.44C352.46,-159.4 312.11,-145.06 283.54,-134.92"/>
<polygon fill="midnightblue" stroke="midnightblue" points="284.57,-131.57 273.97,-131.52 282.22,-138.16 284.57,-131.57"/>
</g>
<!-- Node5 -->
<g id="node5" class="node">
<title>Node5</title>
<g id="a_node5"><a xlink:title=" ">
<polygon fill="none" stroke="#bfbfbf" points="0,-56.5 0,-75.5 60,-75.5 60,-56.5 0,-56.5"/>
<text text-anchor="middle" x="30" y="-63.5" font-family="Helvetica,sans-Serif" font-size="10.00">iostream</text>
</a>
</g>
</g>
<!-- Node1&#45;&gt;Node5 -->
<g id="edge11" class="edge">
<title>Node1&#45;&gt;Node5</title>
<path fill="none" stroke="midnightblue" d="M373.97,-173.18C331.56,-166.99 248.82,-153.25 181,-132 135.73,-117.81 85.59,-94.65 55.99,-80.14"/>
<polygon fill="midnightblue" stroke="midnightblue" points="57.29,-76.88 46.78,-75.58 54.18,-83.16 57.29,-76.88"/>
</g>
<!-- Node6 -->
<g id="node6" class="node">
<title>Node6</title>
<g id="a_node6"><a xlink:title=" ">
<polygon fill="none" stroke="#bfbfbf" points="380,-56.5 380,-75.5 424,-75.5 424,-56.5 380,-56.5"/>
<text text-anchor="middle" x="402" y="-63.5" font-family="Helvetica,sans-Serif" font-size="10.00">string</text>
</a>
</g>
</g>
<!-- Node1&#45;&gt;Node6 -->
<g id="edge12" class="edge">
<title>Node1&#45;&gt;Node6</title>
<path fill="none" stroke="midnightblue" d="M402,-168.37C402,-150.62 402,-109.67 402,-85.6"/>
<polygon fill="midnightblue" stroke="midnightblue" points="405.5,-85.59 402,-75.59 398.5,-85.59 405.5,-85.59"/>
</g>
<!-- Node7 -->
<g id="node7" class="node">
<title>Node7</title>
<g id="a_node7"><a xlink:title=" ">
<polygon fill="none" stroke="#bfbfbf" points="328.5,-0.5 328.5,-19.5 375.5,-19.5 375.5,-0.5 328.5,-0.5"/>
<text text-anchor="middle" x="352" y="-7.5" font-family="Helvetica,sans-Serif" font-size="10.00">vector</text>
</a>
</g>
</g>
<!-- Node1&#45;&gt;Node7 -->
<g id="edge13" class="edge">
<title>Node1&#45;&gt;Node7</title>
<path fill="none" stroke="midnightblue" d="M408.31,-168.47C422.75,-147.79 455.32,-93.94 433,-56 422.77,-38.61 403.13,-27.46 385.75,-20.61"/>
<polygon fill="midnightblue" stroke="midnightblue" points="386.46,-17.15 375.87,-17.06 384.09,-23.74 386.46,-17.15"/>
</g>
<!-- Node9 -->
<g id="node9" class="node">
<title>Node9</title>
<g id="a_node9"><a xlink:title=" ">
<polygon fill="none" stroke="#bfbfbf" points="480,-112.5 480,-131.5 536,-131.5 536,-112.5 480,-112.5"/>
<text text-anchor="middle" x="508" y="-119.5" font-family="Helvetica,sans-Serif" font-size="10.00">iomanip</text>
</a>
</g>
</g>
<!-- Node1&#45;&gt;Node9 -->
<g id="edge10" class="edge">
<title>Node1&#45;&gt;Node9</title>
<path fill="none" stroke="midnightblue" d="M419.03,-168.32C436.03,-159.66 462.38,-146.24 481.99,-136.25"/>
<polygon fill="midnightblue" stroke="midnightblue" points="483.69,-139.31 491.01,-131.65 480.51,-133.08 483.69,-139.31"/>
</g>
<!-- Node3 -->
<g id="node3" class="node">
<title>Node3</title>
<g id="a_node3"><a xlink:title=" ">
<polygon fill="none" stroke="#bfbfbf" points="144,-0.5 144,-19.5 194,-19.5 194,-0.5 144,-0.5"/>
<text text-anchor="middle" x="169" y="-7.5" font-family="Helvetica,sans-Serif" font-size="10.00">cstdint</text>
</a>
</g>
</g>
<!-- Node2&#45;&gt;Node3 -->
<g id="edge2" class="edge">
<title>Node2&#45;&gt;Node3</title>
<path fill="none" stroke="midnightblue" d="M189.28,-118.02C159.41,-113.11 125.86,-101.71 107,-76 92.73,-56.55 118.34,-36.87 140.85,-24.34"/>
<polygon fill="midnightblue" stroke="midnightblue" points="142.65,-27.35 149.86,-19.59 139.39,-21.16 142.65,-27.35"/>
</g>
<!-- Node4 -->
<g id="node4" class="node">
<title>Node4</title>
<g id="a_node4"><a xlink:title=" ">
<polygon fill="none" stroke="#bfbfbf" points="116,-56.5 116,-75.5 158,-75.5 158,-56.5 116,-56.5"/>
<text text-anchor="middle" x="137" y="-63.5" font-family="Helvetica,sans-Serif" font-size="10.00">array</text>
</a>
</g>
</g>
<!-- Node2&#45;&gt;Node4 -->
<g id="edge3" class="edge">
<title>Node2&#45;&gt;Node4</title>
<path fill="none" stroke="midnightblue" d="M232.09,-112.44C213.75,-103.68 184.99,-89.94 163.91,-79.86"/>
<polygon fill="midnightblue" stroke="midnightblue" points="165.35,-76.67 154.82,-75.52 162.33,-82.99 165.35,-76.67"/>
</g>
<!-- Node2&#45;&gt;Node5 -->
<g id="edge4" class="edge">
<title>Node2&#45;&gt;Node5</title>
<path fill="none" stroke="midnightblue" d="M215.14,-112.44C175.63,-102.75 111.34,-86.97 69.87,-76.79"/>
<polygon fill="midnightblue" stroke="midnightblue" points="70.65,-73.37 60.1,-74.39 68.98,-80.17 70.65,-73.37"/>
</g>
<!-- Node2&#45;&gt;Node6 -->
<g id="edge5" class="edge">
<title>Node2&#45;&gt;Node6</title>
<path fill="none" stroke="midnightblue" d="M274.08,-112.44C299.99,-103.24 341.32,-88.56 369.96,-78.38"/>
<polygon fill="midnightblue" stroke="midnightblue" points="371.26,-81.63 379.51,-74.99 368.92,-75.04 371.26,-81.63"/>
</g>
<!-- Node2&#45;&gt;Node7 -->
<g id="edge6" class="edge">
<title>Node2&#45;&gt;Node7</title>
<path fill="none" stroke="midnightblue" d="M277.59,-112.35C295.78,-105.3 318.79,-93.6 333,-76 343.72,-62.72 348.39,-43.59 350.43,-29.53"/>
<polygon fill="midnightblue" stroke="midnightblue" points="353.91,-29.87 351.56,-19.54 346.96,-29.08 353.91,-29.87"/>
</g>
<!-- Node8 -->
<g id="node8" class="node">
<title>Node8</title>
<g id="a_node8"><a xlink:href="bit__stream_8hpp.html" target="_top" xlink:title="The bit stream class.">
<polygon fill="none" stroke="black" points="175.5,-56.5 175.5,-75.5 324.5,-75.5 324.5,-56.5 175.5,-56.5"/>
<text text-anchor="middle" x="250" y="-63.5" font-family="Helvetica,sans-Serif" font-size="10.00">SignalEasel/bit_stream.hpp</text>
</a>
</g>
</g>
<!-- Node2&#45;&gt;Node8 -->
<g id="edge7" class="edge">
<title>Node2&#45;&gt;Node8</title>
<path fill="none" stroke="midnightblue" d="M250,-112.08C250,-105.01 250,-94.86 250,-85.99"/>
<polygon fill="midnightblue" stroke="midnightblue" points="253.5,-85.75 250,-75.75 246.5,-85.75 253.5,-85.75"/>
</g>
<!-- Node8&#45;&gt;Node3 -->
<g id="edge8" class="edge">
<title>Node8&#45;&gt;Node3</title>
<path fill="none" stroke="midnightblue" d="M236.99,-56.32C224.47,-47.98 205.32,-35.21 190.53,-25.35"/>
<polygon fill="midnightblue" stroke="midnightblue" points="192.24,-22.29 181.98,-19.65 188.36,-28.11 192.24,-22.29"/>
</g>
<!-- Node8&#45;&gt;Node7 -->
<g id="edge9" class="edge">
<title>Node8&#45;&gt;Node7</title>
<path fill="none" stroke="midnightblue" d="M266.39,-56.32C282.67,-47.7 307.87,-34.36 326.72,-24.39"/>
<polygon fill="midnightblue" stroke="midnightblue" points="328.45,-27.43 335.65,-19.65 325.18,-21.24 328.45,-27.43"/>
</g>
</g>
</svg>
