<?xml version="1.0" encoding="UTF-8" standalone="no"?>
<!DOCTYPE svg PUBLIC "-//W3C//DTD SVG 1.1//EN"
 "http://www.w3.org/Graphics/SVG/1.1/DTD/svg11.dtd">
<!-- Generated by graphviz version 2.43.0 (0)
 -->
<!-- Title: main Pages: 1 -->
<svg width="1132pt" height="453pt"
 viewBox="0.00 0.00 1132.00 453.00" xmlns="http://www.w3.org/2000/svg" xmlns:xlink="http://www.w3.org/1999/xlink">
<g id="graph0" class="graph" transform="scale(1 1) rotate(0) translate(4 449)">
<title>main</title>
<!-- Node1 -->
<g id="node1" class="node">
<title>Node1</title>
<g id="a_node1"><a xlink:title=" ">
<polygon fill="#bfbfbf" stroke="black" points="0,-322 0,-341 41,-341 41,-322 0,-322"/>
<text text-anchor="middle" x="20.5" y="-329" font-family="Helvetica,sans-Serif" font-size="10.00">main</text>
</a>
</g>
</g>
<!-- Node2 -->
<g id="node2" class="node">
<title>Node2</title>
<g id="a_node2"><a xlink:href="classsignal__easel_1_1ax25_1_1Frame.html#af86d4b534367a8faf6b628301c9ffceb" target="_top" xlink:title=" ">
<polygon fill="none" stroke="black" points="81.5,-414.5 81.5,-444.5 242.5,-444.5 242.5,-414.5 81.5,-414.5"/>
<text text-anchor="start" x="89.5" y="-432.5" font-family="Helvetica,sans-Serif" font-size="10.00">signal_easel::ax25</text>
<text text-anchor="middle" x="162" y="-421.5" font-family="Helvetica,sans-Serif" font-size="10.00">::Frame::addRepeaterAddress</text>
</a>
</g>
</g>
<!-- Node1&#45;&gt;Node2 -->
<g id="edge1" class="edge">
<title>Node1&#45;&gt;Node2</title>
<path fill="none" stroke="midnightblue" d="M26.22,-341.11C34.38,-356.75 52.64,-387.66 77,-404.5 79.9,-406.51 82.97,-408.36 86.15,-410.06"/>
<polygon fill="midnightblue" stroke="midnightblue" points="84.82,-413.31 95.35,-414.48 87.85,-407 84.82,-413.31"/>
</g>
<!-- Node7 -->
<g id="node7" class="node">
<title>Node7</title>
<g id="a_node7"><a xlink:href="classsignal__easel_1_1ax25_1_1Frame.html#a2b4f6ebcb7592a7e5a21114c8fafa503" target="_top" xlink:title="A step beyond buildFrame. This function builds the frame, does the bit stuffing, adds the flags,...">
<polygon fill="none" stroke="black" points="99.5,-169.5 99.5,-199.5 224.5,-199.5 224.5,-169.5 99.5,-169.5"/>
<text text-anchor="start" x="107.5" y="-187.5" font-family="Helvetica,sans-Serif" font-size="10.00">signal_easel::ax25</text>
<text text-anchor="middle" x="162" y="-176.5" font-family="Helvetica,sans-Serif" font-size="10.00">::Frame::encodeFrame</text>
</a>
</g>
</g>
<!-- Node1&#45;&gt;Node7 -->
<g id="edge6" class="edge">
<title>Node1&#45;&gt;Node7</title>
<path fill="none" stroke="midnightblue" d="M30.65,-321.85C52.54,-298.79 108.38,-239.95 139.4,-207.26"/>
<polygon fill="midnightblue" stroke="midnightblue" points="142.01,-209.6 146.35,-199.94 136.93,-204.78 142.01,-209.6"/>
</g>
<!-- Node20 -->
<g id="node20" class="node">
<title>Node20</title>
<g id="a_node20"><a xlink:href="classsignal__easel_1_1ax25_1_1Frame.html#a57b163ece54317da8d95f3b18b47c23d" target="_top" xlink:title="setters/getters for the frame.">
<polygon fill="none" stroke="black" points="77,-365.5 77,-395.5 247,-395.5 247,-365.5 77,-365.5"/>
<text text-anchor="start" x="85" y="-383.5" font-family="Helvetica,sans-Serif" font-size="10.00">signal_easel::ax25</text>
<text text-anchor="middle" x="162" y="-372.5" font-family="Helvetica,sans-Serif" font-size="10.00">::Frame::setDestinationAddress</text>
</a>
</g>
</g>
<!-- Node1&#45;&gt;Node20 -->
<g id="edge23" class="edge">
<title>Node1&#45;&gt;Node20</title>
<path fill="none" stroke="midnightblue" d="M41.05,-340.63C51.58,-345.38 64.86,-351.09 77,-355.5 83.44,-357.84 90.21,-360.13 97,-362.32"/>
<polygon fill="midnightblue" stroke="midnightblue" points="96.33,-365.77 106.92,-365.44 98.43,-359.1 96.33,-365.77"/>
</g>
<!-- Node21 -->
<g id="node21" class="node">
<title>Node21</title>
<g id="a_node21"><a xlink:href="classsignal__easel_1_1ax25_1_1Frame.html#afc5c722b419621f2a4dccbe2208faea1" target="_top" xlink:title=" ">
<polygon fill="none" stroke="black" points="96.5,-120.5 96.5,-150.5 227.5,-150.5 227.5,-120.5 96.5,-120.5"/>
<text text-anchor="start" x="104.5" y="-138.5" font-family="Helvetica,sans-Serif" font-size="10.00">signal_easel::ax25</text>
<text text-anchor="middle" x="162" y="-127.5" font-family="Helvetica,sans-Serif" font-size="10.00">::Frame::setInformation</text>
</a>
</g>
</g>
<!-- Node1&#45;&gt;Node21 -->
<g id="edge25" class="edge">
<title>Node1&#45;&gt;Node21</title>
<path fill="none" stroke="midnightblue" d="M21.63,-321.69C22.56,-292.52 29.4,-205.52 77,-159.5 80.13,-156.48 83.61,-153.83 87.33,-151.51"/>
<polygon fill="midnightblue" stroke="midnightblue" points="89.2,-154.48 96.37,-146.68 85.9,-148.3 89.2,-154.48"/>
</g>
<!-- Node22 -->
<g id="node22" class="node">
<title>Node22</title>
<g id="a_node22"><a xlink:href="classsignal__easel_1_1ax25_1_1Frame.html#a402d26a81f82bb5c477e8930b75a771e" target="_top" xlink:title=" ">
<polygon fill="none" stroke="black" points="89,-316.5 89,-346.5 235,-346.5 235,-316.5 89,-316.5"/>
<text text-anchor="start" x="97" y="-334.5" font-family="Helvetica,sans-Serif" font-size="10.00">signal_easel::ax25</text>
<text text-anchor="middle" x="162" y="-323.5" font-family="Helvetica,sans-Serif" font-size="10.00">::Frame::setSourceAddress</text>
</a>
</g>
</g>
<!-- Node1&#45;&gt;Node22 -->
<g id="edge26" class="edge">
<title>Node1&#45;&gt;Node22</title>
<path fill="none" stroke="midnightblue" d="M41.19,-331.5C51.4,-331.5 64.64,-331.5 78.58,-331.5"/>
<polygon fill="midnightblue" stroke="midnightblue" points="78.82,-335 88.82,-331.5 78.82,-328 78.82,-335"/>
</g>
<!-- Node3 -->
<g id="node3" class="node">
<title>Node3</title>
<g id="a_node3"><a xlink:href="classsignal__easel_1_1ax25_1_1Address.html#a7fa6b0ef4241413893f201660991e4ea" target="_top" xlink:title="Checks if the address is valid, if not throws an exception with a specific error code.">
<polygon fill="none" stroke="black" points="637,-350.5 637,-380.5 767,-380.5 767,-350.5 637,-350.5"/>
<text text-anchor="start" x="645" y="-368.5" font-family="Helvetica,sans-Serif" font-size="10.00">signal_easel::ax25</text>
<text text-anchor="middle" x="702" y="-357.5" font-family="Helvetica,sans-Serif" font-size="10.00">::Address::assertIsValid</text>
</a>
</g>
</g>
<!-- Node2&#45;&gt;Node3 -->
<g id="edge2" class="edge">
<title>Node2&#45;&gt;Node3</title>
<path fill="none" stroke="midnightblue" d="M242.78,-423.36C330.76,-416.12 476.38,-402.71 601,-384.5 609.36,-383.28 618.08,-381.85 626.74,-380.34"/>
<polygon fill="midnightblue" stroke="midnightblue" points="627.63,-383.73 636.85,-378.53 626.39,-376.84 627.63,-383.73"/>
</g>
<!-- Node4 -->
<g id="node4" class="node">
<title>Node4</title>
<g id="a_node4"><a xlink:href="classsignal__easel_1_1ax25_1_1Address.html#af34b361f739b7995e7816b7a04465828" target="_top" xlink:title=" ">
<polygon fill="none" stroke="black" points="803,-376 803,-417 968,-417 968,-376 803,-376"/>
<text text-anchor="start" x="811" y="-405" font-family="Helvetica,sans-Serif" font-size="10.00">signal_easel::ax25</text>
<text text-anchor="start" x="811" y="-394" font-family="Helvetica,sans-Serif" font-size="10.00">::Address::assertAddressString</text>
<text text-anchor="middle" x="885.5" y="-383" font-family="Helvetica,sans-Serif" font-size="10.00">IsValid</text>
</a>
</g>
</g>
<!-- Node3&#45;&gt;Node4 -->
<g id="edge3" class="edge">
<title>Node3&#45;&gt;Node4</title>
<path fill="none" stroke="midnightblue" d="M767.25,-376.47C775.53,-377.89 784.13,-379.36 792.75,-380.83"/>
<polygon fill="midnightblue" stroke="midnightblue" points="792.41,-384.32 802.85,-382.55 793.59,-377.42 792.41,-384.32"/>
</g>
<!-- Node5 -->
<g id="node5" class="node">
<title>Node5</title>
<g id="a_node5"><a xlink:href="classsignal__easel_1_1ax25_1_1Address.html#a8b44c6e311d3462bd86eda03c1d384f0" target="_top" xlink:title=" ">
<polygon fill="none" stroke="black" points="810.5,-326.5 810.5,-356.5 960.5,-356.5 960.5,-326.5 810.5,-326.5"/>
<text text-anchor="start" x="818.5" y="-344.5" font-family="Helvetica,sans-Serif" font-size="10.00">signal_easel::ax25</text>
<text text-anchor="middle" x="885.5" y="-333.5" font-family="Helvetica,sans-Serif" font-size="10.00">::Address::assertSsidIsValid</text>
</a>
</g>
</g>
<!-- Node3&#45;&gt;Node5 -->
<g id="edge4" class="edge">
<title>Node3&#45;&gt;Node5</title>
<path fill="none" stroke="midnightblue" d="M767.25,-357C777.94,-355.59 789.18,-354.1 800.28,-352.64"/>
<polygon fill="midnightblue" stroke="midnightblue" points="800.97,-356.08 810.42,-351.3 800.05,-349.14 800.97,-356.08"/>
</g>
<!-- Node6 -->
<g id="node6" class="node">
<title>Node6</title>
<g id="a_node6"><a xlink:href="classsignal__easel_1_1ax25_1_1Address.html#ad66c149737cc4aa52ae9e8860176acf3" target="_top" xlink:title=" ">
<polygon fill="none" stroke="black" points="1004,-304.5 1004,-334.5 1124,-334.5 1124,-304.5 1004,-304.5"/>
<text text-anchor="start" x="1012" y="-322.5" font-family="Helvetica,sans-Serif" font-size="10.00">signal_easel::ax25</text>
<text text-anchor="middle" x="1064" y="-311.5" font-family="Helvetica,sans-Serif" font-size="10.00">::Address::isSsidValid</text>
</a>
</g>
</g>
<!-- Node5&#45;&gt;Node6 -->
<g id="edge5" class="edge">
<title>Node5&#45;&gt;Node6</title>
<path fill="none" stroke="midnightblue" d="M960.58,-332.27C971.52,-330.9 982.76,-329.5 993.6,-328.15"/>
<polygon fill="midnightblue" stroke="midnightblue" points="994.35,-331.58 1003.84,-326.87 993.49,-324.64 994.35,-331.58"/>
</g>
<!-- Node8 -->
<g id="node8" class="node">
<title>Node8</title>
<g id="a_node8"><a xlink:href="classsignal__easel_1_1BitStream.html#a9df75eb28c03717c9fad2d30a85de6e6" target="_top" xlink:title=" ">
<polygon fill="none" stroke="black" points="460,-98.5 460,-128.5 592,-128.5 592,-98.5 460,-98.5"/>
<text text-anchor="start" x="468" y="-116.5" font-family="Helvetica,sans-Serif" font-size="10.00">signal_easel::BitStream</text>
<text text-anchor="middle" x="526" y="-105.5" font-family="Helvetica,sans-Serif" font-size="10.00">::addBits</text>
</a>
</g>
</g>
<!-- Node7&#45;&gt;Node8 -->
<g id="edge7" class="edge">
<title>Node7&#45;&gt;Node8</title>
<path fill="none" stroke="midnightblue" d="M221.73,-199.54C275.13,-209.96 354.59,-217.08 415,-186.5 439.11,-174.3 429.09,-153.32 451,-137.5 453.06,-136.01 455.22,-134.61 457.45,-133.3"/>
<polygon fill="midnightblue" stroke="midnightblue" points="459.11,-136.38 466.34,-128.64 455.86,-130.18 459.11,-136.38"/>
</g>
<!-- Node9 -->
<g id="node9" class="node">
<title>Node9</title>
<g id="a_node9"><a xlink:href="classsignal__easel_1_1BitStream.html#a81d4aea4c11f65e0c2b7ad2f0f0cc312" target="_top" xlink:title=" ">
<polygon fill="none" stroke="black" points="283,-147.5 283,-177.5 415,-177.5 415,-147.5 283,-147.5"/>
<text text-anchor="start" x="291" y="-165.5" font-family="Helvetica,sans-Serif" font-size="10.00">signal_easel::BitStream</text>
<text text-anchor="middle" x="349" y="-154.5" font-family="Helvetica,sans-Serif" font-size="10.00">::addOneBit</text>
</a>
</g>
</g>
<!-- Node7&#45;&gt;Node9 -->
<g id="edge8" class="edge">
<title>Node7&#45;&gt;Node9</title>
<path fill="none" stroke="midnightblue" d="M224.6,-177.17C239.95,-175.35 256.58,-173.37 272.51,-171.48"/>
<polygon fill="midnightblue" stroke="midnightblue" points="273.34,-174.9 282.86,-170.25 272.52,-167.95 273.34,-174.9"/>
</g>
<!-- Node10 -->
<g id="node10" class="node">
<title>Node10</title>
<g id="a_node10"><a xlink:href="classsignal__easel_1_1BitStream.html#abb315beec8c4d88115d9d4ec5f082863" target="_top" xlink:title=" ">
<polygon fill="none" stroke="black" points="283,-98.5 283,-128.5 415,-128.5 415,-98.5 283,-98.5"/>
<text text-anchor="start" x="291" y="-116.5" font-family="Helvetica,sans-Serif" font-size="10.00">signal_easel::BitStream</text>
<text text-anchor="middle" x="349" y="-105.5" font-family="Helvetica,sans-Serif" font-size="10.00">::addZeroBit</text>
</a>
</g>
</g>
<!-- Node7&#45;&gt;Node10 -->
<g id="edge10" class="edge">
<title>Node7&#45;&gt;Node10</title>
<path fill="none" stroke="midnightblue" d="M221.1,-169.36C229.92,-166.45 238.8,-163.15 247,-159.5 264.13,-151.87 266.12,-145.68 283,-137.5 286.55,-135.78 290.26,-134.11 294.03,-132.49"/>
<polygon fill="midnightblue" stroke="midnightblue" points="295.53,-135.66 303.46,-128.63 292.88,-129.18 295.53,-135.66"/>
</g>
<!-- Node11 -->
<g id="node11" class="node">
<title>Node11</title>
<g id="a_node11"><a xlink:href="classsignal__easel_1_1ax25_1_1Frame.html#a24e7d5ffc6504a3380e97142d1bc084e" target="_top" xlink:title="Builds all internal portions of the frame. Doesn&#39;t include the flags.">
<polygon fill="none" stroke="black" points="292,-235.5 292,-265.5 406,-265.5 406,-235.5 292,-235.5"/>
<text text-anchor="start" x="300" y="-253.5" font-family="Helvetica,sans-Serif" font-size="10.00">signal_easel::ax25</text>
<text text-anchor="middle" x="349" y="-242.5" font-family="Helvetica,sans-Serif" font-size="10.00">::Frame::buildFrame</text>
</a>
</g>
</g>
<!-- Node7&#45;&gt;Node11 -->
<g id="edge12" class="edge">
<title>Node7&#45;&gt;Node11</title>
<path fill="none" stroke="midnightblue" d="M205.44,-199.64C232.47,-209.28 267.66,-221.84 296.31,-232.06"/>
<polygon fill="midnightblue" stroke="midnightblue" points="295.16,-235.37 305.75,-235.43 297.51,-228.77 295.16,-235.37"/>
</g>
<!-- Node18 -->
<g id="node18" class="node">
<title>Node18</title>
<g id="a_node18"><a xlink:href="classsignal__easel_1_1BitStream.html#aa97152ef51f73088e103a7951134aa85" target="_top" xlink:title=" ">
<polygon fill="none" stroke="black" points="283,-49.5 283,-79.5 415,-79.5 415,-49.5 283,-49.5"/>
<text text-anchor="start" x="291" y="-67.5" font-family="Helvetica,sans-Serif" font-size="10.00">signal_easel::BitStream</text>
<text text-anchor="middle" x="349" y="-56.5" font-family="Helvetica,sans-Serif" font-size="10.00">::getBitStreamLength</text>
</a>
</g>
</g>
<!-- Node7&#45;&gt;Node18 -->
<g id="edge21" class="edge">
<title>Node7&#45;&gt;Node18</title>
<path fill="none" stroke="midnightblue" d="M224.72,-172.56C232.76,-169.23 240.46,-164.96 247,-159.5 274.16,-136.83 256.58,-112.03 283,-88.5 284.33,-87.32 285.72,-86.19 287.16,-85.12"/>
<polygon fill="midnightblue" stroke="midnightblue" points="289.35,-87.87 295.91,-79.55 285.59,-81.97 289.35,-87.87"/>
</g>
<!-- Node19 -->
<g id="node19" class="node">
<title>Node19</title>
<g id="a_node19"><a xlink:href="classsignal__easel_1_1BitStream.html#a5b5339586e09ca5c25a7e9ded0118ffb" target="_top" xlink:title="Returns the next bit of the bit stream that will be encoded.">
<polygon fill="none" stroke="black" points="283,-0.5 283,-30.5 415,-30.5 415,-0.5 283,-0.5"/>
<text text-anchor="start" x="291" y="-18.5" font-family="Helvetica,sans-Serif" font-size="10.00">signal_easel::BitStream</text>
<text text-anchor="middle" x="349" y="-7.5" font-family="Helvetica,sans-Serif" font-size="10.00">::popNextBit</text>
</a>
</g>
</g>
<!-- Node7&#45;&gt;Node19 -->
<g id="edge22" class="edge">
<title>Node7&#45;&gt;Node19</title>
<path fill="none" stroke="midnightblue" d="M224.81,-173.95C233.02,-170.43 240.75,-165.73 247,-159.5 286.42,-120.17 244.87,-80.08 283,-39.5 283.9,-38.54 284.85,-37.62 285.83,-36.73"/>
<polygon fill="midnightblue" stroke="midnightblue" points="288.08,-39.42 293.99,-30.63 283.89,-33.81 288.08,-39.42"/>
</g>
<!-- Node9&#45;&gt;Node8 -->
<g id="edge9" class="edge">
<title>Node9&#45;&gt;Node8</title>
<path fill="none" stroke="midnightblue" d="M403.93,-147.4C422.15,-142.3 442.65,-136.56 461.54,-131.27"/>
<polygon fill="midnightblue" stroke="midnightblue" points="462.56,-134.62 471.24,-128.55 460.67,-127.88 462.56,-134.62"/>
</g>
<!-- Node10&#45;&gt;Node8 -->
<g id="edge11" class="edge">
<title>Node10&#45;&gt;Node8</title>
<path fill="none" stroke="midnightblue" d="M415.16,-113.5C426.44,-113.5 438.24,-113.5 449.76,-113.5"/>
<polygon fill="midnightblue" stroke="midnightblue" points="449.78,-117 459.78,-113.5 449.78,-110 449.78,-117"/>
</g>
<!-- Node12 -->
<g id="node12" class="node">
<title>Node12</title>
<g id="a_node12"><a xlink:href="namespacesignal__easel_1_1ax25.html#a6d799107f96d783e620cd508488ab8eb" target="_top" xlink:title="Calculate the Frame Check Sequence (FCS) on a vector of bytes.">
<polygon fill="none" stroke="black" points="472.5,-196.5 472.5,-226.5 579.5,-226.5 579.5,-196.5 472.5,-196.5"/>
<text text-anchor="start" x="480.5" y="-214.5" font-family="Helvetica,sans-Serif" font-size="10.00">signal_easel::ax25</text>
<text text-anchor="middle" x="526" y="-203.5" font-family="Helvetica,sans-Serif" font-size="10.00">::calculateFcs</text>
</a>
</g>
</g>
<!-- Node11&#45;&gt;Node12 -->
<g id="edge13" class="edge">
<title>Node11&#45;&gt;Node12</title>
<path fill="none" stroke="midnightblue" d="M406.33,-237.95C424.21,-233.96 444.08,-229.53 462.36,-225.46"/>
<polygon fill="midnightblue" stroke="midnightblue" points="463.34,-228.83 472.34,-223.24 461.82,-222 463.34,-228.83"/>
</g>
<!-- Node13 -->
<g id="node13" class="node">
<title>Node13</title>
<g id="a_node13"><a xlink:href="classsignal__easel_1_1ax25_1_1Address.html#a0c31737081a9184b56dc32150b23cb0a" target="_top" xlink:title="Get the address as a byte array.">
<polygon fill="none" stroke="black" points="455,-294.5 455,-324.5 597,-324.5 597,-294.5 455,-294.5"/>
<text text-anchor="start" x="463" y="-312.5" font-family="Helvetica,sans-Serif" font-size="10.00">signal_easel::ax25</text>
<text text-anchor="middle" x="526" y="-301.5" font-family="Helvetica,sans-Serif" font-size="10.00">::Address::encodeAddress</text>
</a>
</g>
</g>
<!-- Node11&#45;&gt;Node13 -->
<g id="edge14" class="edge">
<title>Node11&#45;&gt;Node13</title>
<path fill="none" stroke="midnightblue" d="M394.61,-265.54C417.86,-273.38 446.46,-283.02 470.96,-291.28"/>
<polygon fill="midnightblue" stroke="midnightblue" points="469.87,-294.61 480.47,-294.49 472.11,-287.98 469.87,-294.61"/>
</g>
<!-- Node14 -->
<g id="node14" class="node">
<title>Node14</title>
<g id="a_node14"><a xlink:href="classsignal__easel_1_1ax25_1_1Frame.html#a640edeabbda34e78cc243e3561747bf9" target="_top" xlink:title=" ">
<polygon fill="none" stroke="black" points="465,-245.5 465,-275.5 587,-275.5 587,-245.5 465,-245.5"/>
<text text-anchor="start" x="473" y="-263.5" font-family="Helvetica,sans-Serif" font-size="10.00">signal_easel::ax25</text>
<text text-anchor="middle" x="526" y="-252.5" font-family="Helvetica,sans-Serif" font-size="10.00">::Frame::isFrameValid</text>
</a>
</g>
</g>
<!-- Node11&#45;&gt;Node14 -->
<g id="edge16" class="edge">
<title>Node11&#45;&gt;Node14</title>
<path fill="none" stroke="midnightblue" d="M406.33,-253.72C421.66,-254.59 438.46,-255.55 454.46,-256.47"/>
<polygon fill="midnightblue" stroke="midnightblue" points="454.66,-259.99 464.85,-257.06 455.06,-253 454.66,-259.99"/>
</g>
<!-- Node17 -->
<g id="node17" class="node">
<title>Node17</title>
<g id="a_node17"><a xlink:href="classsignal__easel_1_1ax25_1_1Address.html#a1a5bc573535cfc1f8723c121e3451e7c" target="_top" xlink:title="Set the as the last address in the AX.25 frame (Sets a bit in the ssid byte)">
<polygon fill="none" stroke="black" points="451,-147.5 451,-177.5 601,-177.5 601,-147.5 451,-147.5"/>
<text text-anchor="start" x="459" y="-165.5" font-family="Helvetica,sans-Serif" font-size="10.00">signal_easel::ax25</text>
<text text-anchor="middle" x="526" y="-154.5" font-family="Helvetica,sans-Serif" font-size="10.00">::Address::setIsLastAddress</text>
</a>
</g>
</g>
<!-- Node11&#45;&gt;Node17 -->
<g id="edge20" class="edge">
<title>Node11&#45;&gt;Node17</title>
<path fill="none" stroke="midnightblue" d="M388.25,-235.36C397.33,-231.09 406.76,-226.07 415,-220.5 433.23,-208.17 432.07,-197.72 451,-186.5 453.85,-184.81 456.83,-183.23 459.89,-181.74"/>
<polygon fill="midnightblue" stroke="midnightblue" points="461.54,-184.84 469.26,-177.58 458.7,-178.44 461.54,-184.84"/>
</g>
<!-- Node13&#45;&gt;Node3 -->
<g id="edge15" class="edge">
<title>Node13&#45;&gt;Node3</title>
<path fill="none" stroke="midnightblue" d="M573.63,-324.51C595.47,-331.54 621.68,-339.97 644.63,-347.36"/>
<polygon fill="midnightblue" stroke="midnightblue" points="643.65,-350.72 654.24,-350.45 645.8,-344.06 643.65,-350.72"/>
</g>
<!-- Node15 -->
<g id="node15" class="node">
<title>Node15</title>
<g id="a_node15"><a xlink:href="classsignal__easel_1_1ax25_1_1Address.html#aae81920cfd0dc7d89cb107f9d825488c" target="_top" xlink:title="If the address is valid (can be encoded correctly or was decoded)">
<polygon fill="none" stroke="black" points="648.5,-245.5 648.5,-275.5 755.5,-275.5 755.5,-245.5 648.5,-245.5"/>
<text text-anchor="start" x="656.5" y="-263.5" font-family="Helvetica,sans-Serif" font-size="10.00">signal_easel::ax25</text>
<text text-anchor="middle" x="702" y="-252.5" font-family="Helvetica,sans-Serif" font-size="10.00">::Address::isValid</text>
</a>
</g>
</g>
<!-- Node14&#45;&gt;Node15 -->
<g id="edge17" class="edge">
<title>Node14&#45;&gt;Node15</title>
<path fill="none" stroke="midnightblue" d="M587.37,-260.5C603.79,-260.5 621.61,-260.5 638.16,-260.5"/>
<polygon fill="midnightblue" stroke="midnightblue" points="638.28,-264 648.28,-260.5 638.28,-257 638.28,-264"/>
</g>
<!-- Node15&#45;&gt;Node6 -->
<g id="edge19" class="edge">
<title>Node15&#45;&gt;Node6</title>
<path fill="none" stroke="midnightblue" d="M755.64,-270.2C770.9,-272.95 787.61,-275.9 803,-278.5 867.53,-289.39 941.22,-300.93 993.63,-308.98"/>
<polygon fill="midnightblue" stroke="midnightblue" points="993.41,-312.49 1003.82,-310.54 994.47,-305.57 993.41,-312.49"/>
</g>
<!-- Node16 -->
<g id="node16" class="node">
<title>Node16</title>
<g id="a_node16"><a xlink:href="classsignal__easel_1_1ax25_1_1Address.html#a56c55b48bfc809a33aa0e22a5aeb95ca" target="_top" xlink:title=" ">
<polygon fill="none" stroke="black" points="814,-228 814,-269 957,-269 957,-228 814,-228"/>
<text text-anchor="start" x="822" y="-257" font-family="Helvetica,sans-Serif" font-size="10.00">signal_easel::ax25</text>
<text text-anchor="start" x="822" y="-246" font-family="Helvetica,sans-Serif" font-size="10.00">::Address::isAddressString</text>
<text text-anchor="middle" x="885.5" y="-235" font-family="Helvetica,sans-Serif" font-size="10.00">Valid</text>
</a>
</g>
</g>
<!-- Node15&#45;&gt;Node16 -->
<g id="edge18" class="edge">
<title>Node15&#45;&gt;Node16</title>
<path fill="none" stroke="midnightblue" d="M755.99,-257C770.98,-256.01 787.64,-254.9 803.87,-253.83"/>
<polygon fill="midnightblue" stroke="midnightblue" points="804.15,-257.32 813.89,-253.17 803.68,-250.34 804.15,-257.32"/>
</g>
<!-- Node20&#45;&gt;Node3 -->
<g id="edge24" class="edge">
<title>Node20&#45;&gt;Node3</title>
<path fill="none" stroke="midnightblue" d="M247.06,-378.16C351.24,-375.25 527.16,-370.35 626.64,-367.57"/>
<polygon fill="midnightblue" stroke="midnightblue" points="627.01,-371.06 636.91,-367.29 626.81,-364.07 627.01,-371.06"/>
</g>
<!-- Node22&#45;&gt;Node3 -->
<g id="edge27" class="edge">
<title>Node22&#45;&gt;Node3</title>
<path fill="none" stroke="midnightblue" d="M235.28,-336.07C337.48,-342.53 523.25,-354.27 626.6,-360.8"/>
<polygon fill="midnightblue" stroke="midnightblue" points="626.44,-364.29 636.64,-361.43 626.88,-357.31 626.44,-364.29"/>
</g>
</g>
</svg>
