<?xml version="1.0" encoding="UTF-8" standalone="no"?>
<!DOCTYPE svg PUBLIC "-//W3C//DTD SVG 1.1//EN"
 "http://www.w3.org/Graphics/SVG/1.1/DTD/svg11.dtd">
<!-- Generated by graphviz version 2.43.0 (0)
 -->
<!-- Title: utilities.cpp Pages: 1 -->
<svg width="164pt" height="140pt"
 viewBox="0.00 0.00 164.00 140.00" xmlns="http://www.w3.org/2000/svg" xmlns:xlink="http://www.w3.org/1999/xlink">
<g id="graph0" class="graph" transform="scale(1 1) rotate(0) translate(4 136)">
<title>utilities.cpp</title>
<!-- Node1 -->
<g id="node1" class="node">
<title>Node1</title>
<g id="a_node1"><a xlink:title="Some utility functions for the library.">
<polygon fill="#bfbfbf" stroke="black" points="38,-112.5 38,-131.5 112,-131.5 112,-112.5 38,-112.5"/>
<text text-anchor="middle" x="75" y="-119.5" font-family="Helvetica,sans-Serif" font-size="10.00">utilities.cpp</text>
</a>
</g>
</g>
<!-- Node2 -->
<g id="node2" class="node">
<title>Node2</title>
<g id="a_node2"><a xlink:title=" ">
<polygon fill="none" stroke="#bfbfbf" points="0,-56.5 0,-75.5 64,-75.5 64,-56.5 0,-56.5"/>
<text text-anchor="middle" x="32" y="-63.5" font-family="Helvetica,sans-Serif" font-size="10.00">algorithm</text>
</a>
</g>
</g>
<!-- Node1&#45;&gt;Node2 -->
<g id="edge1" class="edge">
<title>Node1&#45;&gt;Node2</title>
<path fill="none" stroke="midnightblue" d="M67.9,-112.08C61.76,-104.38 52.73,-93.03 45.26,-83.65"/>
<polygon fill="midnightblue" stroke="midnightblue" points="47.94,-81.39 38.97,-75.75 42.46,-85.75 47.94,-81.39"/>
</g>
<!-- Node3 -->
<g id="node3" class="node">
<title>Node3</title>
<g id="a_node3"><a xlink:href="utilities_8hpp.html" target="_top" xlink:title="Common utilities for SignalEasel.">
<polygon fill="none" stroke="black" points="82,-56.5 82,-75.5 156,-75.5 156,-56.5 82,-56.5"/>
<text text-anchor="middle" x="119" y="-63.5" font-family="Helvetica,sans-Serif" font-size="10.00">utilities.hpp</text>
</a>
</g>
</g>
<!-- Node1&#45;&gt;Node3 -->
<g id="edge2" class="edge">
<title>Node1&#45;&gt;Node3</title>
<path fill="none" stroke="midnightblue" d="M82.27,-112.08C88.54,-104.38 97.79,-93.03 105.43,-83.65"/>
<polygon fill="midnightblue" stroke="midnightblue" points="108.27,-85.71 111.87,-75.75 102.84,-81.29 108.27,-85.71"/>
</g>
<!-- Node4 -->
<g id="node4" class="node">
<title>Node4</title>
<g id="a_node4"><a xlink:title=" ">
<polygon fill="none" stroke="#bfbfbf" points="97,-0.5 97,-19.5 141,-19.5 141,-0.5 97,-0.5"/>
<text text-anchor="middle" x="119" y="-7.5" font-family="Helvetica,sans-Serif" font-size="10.00">string</text>
</a>
</g>
</g>
<!-- Node3&#45;&gt;Node4 -->
<g id="edge3" class="edge">
<title>Node3&#45;&gt;Node4</title>
<path fill="none" stroke="midnightblue" d="M119,-56.08C119,-49.01 119,-38.86 119,-29.99"/>
<polygon fill="midnightblue" stroke="midnightblue" points="122.5,-29.75 119,-19.75 115.5,-29.75 122.5,-29.75"/>
</g>
</g>
</svg>
