<?xml version="1.0" encoding="UTF-8" standalone="no"?>
<!DOCTYPE svg PUBLIC "-//W3C//DTD SVG 1.1//EN"
 "http://www.w3.org/Graphics/SVG/1.1/DTD/svg11.dtd">
<!-- Generated by graphviz version 2.43.0 (0)
 -->
<!-- Title: varicode.cpp Pages: 1 -->
<svg width="550pt" height="252pt"
 viewBox="0.00 0.00 550.00 252.00" xmlns="http://www.w3.org/2000/svg" xmlns:xlink="http://www.w3.org/1999/xlink">
<g id="graph0" class="graph" transform="scale(1 1) rotate(0) translate(4 248)">
<title>varicode.cpp</title>
<!-- Node1 -->
<g id="node1" class="node">
<title>Node1</title>
<g id="a_node1"><a xlink:title="Varicode Implementation.">
<polygon fill="#bfbfbf" stroke="black" points="123.5,-224.5 123.5,-243.5 202.5,-243.5 202.5,-224.5 123.5,-224.5"/>
<text text-anchor="middle" x="163" y="-231.5" font-family="Helvetica,sans-Serif" font-size="10.00">varicode.cpp</text>
</a>
</g>
</g>
<!-- Node2 -->
<g id="node2" class="node">
<title>Node2</title>
<g id="a_node2"><a xlink:href="psk_8hpp.html" target="_top" xlink:title="Phase Shift Keying Implementation.">
<polygon fill="none" stroke="black" points="106,-168.5 106,-187.5 220,-187.5 220,-168.5 106,-168.5"/>
<text text-anchor="middle" x="163" y="-175.5" font-family="Helvetica,sans-Serif" font-size="10.00">SignalEasel/psk.hpp</text>
</a>
</g>
</g>
<!-- Node1&#45;&gt;Node2 -->
<g id="edge1" class="edge">
<title>Node1&#45;&gt;Node2</title>
<path fill="none" stroke="midnightblue" d="M163,-224.08C163,-217.01 163,-206.86 163,-197.99"/>
<polygon fill="midnightblue" stroke="midnightblue" points="166.5,-197.75 163,-187.75 159.5,-197.75 166.5,-197.75"/>
</g>
<!-- Node3 -->
<g id="node3" class="node">
<title>Node3</title>
<g id="a_node3"><a xlink:title=" ">
<polygon fill="none" stroke="#bfbfbf" points="0,-112.5 0,-131.5 42,-131.5 42,-112.5 0,-112.5"/>
<text text-anchor="middle" x="21" y="-119.5" font-family="Helvetica,sans-Serif" font-size="10.00">array</text>
</a>
</g>
</g>
<!-- Node2&#45;&gt;Node3 -->
<g id="edge2" class="edge">
<title>Node2&#45;&gt;Node3</title>
<path fill="none" stroke="midnightblue" d="M140.5,-168.44C116.51,-159.32 78.36,-144.81 51.64,-134.65"/>
<polygon fill="midnightblue" stroke="midnightblue" points="52.6,-131.27 42.01,-130.99 50.11,-137.81 52.6,-131.27"/>
</g>
<!-- Node4 -->
<g id="node4" class="node">
<title>Node4</title>
<g id="a_node4"><a xlink:title=" ">
<polygon fill="none" stroke="#bfbfbf" points="60,-112.5 60,-131.5 98,-131.5 98,-112.5 60,-112.5"/>
<text text-anchor="middle" x="79" y="-119.5" font-family="Helvetica,sans-Serif" font-size="10.00">map</text>
</a>
</g>
</g>
<!-- Node2&#45;&gt;Node4 -->
<g id="edge3" class="edge">
<title>Node2&#45;&gt;Node4</title>
<path fill="none" stroke="midnightblue" d="M149.5,-168.32C136.4,-159.9 116.29,-146.97 100.89,-137.07"/>
<polygon fill="midnightblue" stroke="midnightblue" points="102.77,-134.12 92.46,-131.65 98.98,-140.01 102.77,-134.12"/>
</g>
<!-- Node5 -->
<g id="node5" class="node">
<title>Node5</title>
<g id="a_node5"><a xlink:title=" ">
<polygon fill="none" stroke="#bfbfbf" points="116.5,-112.5 116.5,-131.5 209.5,-131.5 209.5,-112.5 116.5,-112.5"/>
<text text-anchor="middle" x="163" y="-119.5" font-family="Helvetica,sans-Serif" font-size="10.00">unordered_map</text>
</a>
</g>
</g>
<!-- Node2&#45;&gt;Node5 -->
<g id="edge4" class="edge">
<title>Node2&#45;&gt;Node5</title>
<path fill="none" stroke="midnightblue" d="M163,-168.08C163,-161.01 163,-150.86 163,-141.99"/>
<polygon fill="midnightblue" stroke="midnightblue" points="166.5,-141.75 163,-131.75 159.5,-141.75 166.5,-141.75"/>
</g>
<!-- Node6 -->
<g id="node6" class="node">
<title>Node6</title>
<g id="a_node6"><a xlink:href="bit__stream_8hpp.html" target="_top" xlink:title="The bit stream class.">
<polygon fill="none" stroke="black" points="227.5,-112.5 227.5,-131.5 376.5,-131.5 376.5,-112.5 227.5,-112.5"/>
<text text-anchor="middle" x="302" y="-119.5" font-family="Helvetica,sans-Serif" font-size="10.00">SignalEasel/bit_stream.hpp</text>
</a>
</g>
</g>
<!-- Node2&#45;&gt;Node6 -->
<g id="edge5" class="edge">
<title>Node2&#45;&gt;Node6</title>
<path fill="none" stroke="midnightblue" d="M185.02,-168.44C208.1,-159.48 244.56,-145.31 270.64,-135.18"/>
<polygon fill="midnightblue" stroke="midnightblue" points="272.02,-138.4 280.08,-131.52 269.49,-131.88 272.02,-138.4"/>
</g>
<!-- Node9 -->
<g id="node9" class="node">
<title>Node9</title>
<g id="a_node9"><a xlink:href="modulator_8hpp.html" target="_top" xlink:title="Modulator base class.">
<polygon fill="none" stroke="black" points="395,-112.5 395,-131.5 541,-131.5 541,-112.5 395,-112.5"/>
<text text-anchor="middle" x="468" y="-119.5" font-family="Helvetica,sans-Serif" font-size="10.00">SignalEasel/modulator.hpp</text>
</a>
</g>
</g>
<!-- Node2&#45;&gt;Node9 -->
<g id="edge8" class="edge">
<title>Node2&#45;&gt;Node9</title>
<path fill="none" stroke="midnightblue" d="M211.33,-168.44C265.2,-158.9 352.31,-143.48 409.86,-133.29"/>
<polygon fill="midnightblue" stroke="midnightblue" points="410.66,-136.71 419.9,-131.52 409.44,-129.81 410.66,-136.71"/>
</g>
<!-- Node7 -->
<g id="node7" class="node">
<title>Node7</title>
<g id="a_node7"><a xlink:title=" ">
<polygon fill="none" stroke="#bfbfbf" points="272,-56.5 272,-75.5 322,-75.5 322,-56.5 272,-56.5"/>
<text text-anchor="middle" x="297" y="-63.5" font-family="Helvetica,sans-Serif" font-size="10.00">cstdint</text>
</a>
</g>
</g>
<!-- Node6&#45;&gt;Node7 -->
<g id="edge6" class="edge">
<title>Node6&#45;&gt;Node7</title>
<path fill="none" stroke="midnightblue" d="M301.17,-112.08C300.52,-105.01 299.58,-94.86 298.76,-85.99"/>
<polygon fill="midnightblue" stroke="midnightblue" points="302.22,-85.39 297.81,-75.75 295.25,-86.03 302.22,-85.39"/>
</g>
<!-- Node8 -->
<g id="node8" class="node">
<title>Node8</title>
<g id="a_node8"><a xlink:title=" ">
<polygon fill="none" stroke="#bfbfbf" points="340.5,-56.5 340.5,-75.5 387.5,-75.5 387.5,-56.5 340.5,-56.5"/>
<text text-anchor="middle" x="364" y="-63.5" font-family="Helvetica,sans-Serif" font-size="10.00">vector</text>
</a>
</g>
</g>
<!-- Node6&#45;&gt;Node8 -->
<g id="edge7" class="edge">
<title>Node6&#45;&gt;Node8</title>
<path fill="none" stroke="midnightblue" d="M311.96,-112.32C321.13,-104.34 334.94,-92.31 346.03,-82.65"/>
<polygon fill="midnightblue" stroke="midnightblue" points="348.62,-85.04 353.86,-75.83 344.02,-79.76 348.62,-85.04"/>
</g>
<!-- Node9&#45;&gt;Node8 -->
<g id="edge9" class="edge">
<title>Node9&#45;&gt;Node8</title>
<path fill="none" stroke="midnightblue" d="M451.29,-112.32C434.69,-103.7 409,-90.36 389.78,-80.39"/>
<polygon fill="midnightblue" stroke="midnightblue" points="391.16,-77.16 380.67,-75.65 387.93,-83.37 391.16,-77.16"/>
</g>
<!-- Node10 -->
<g id="node10" class="node">
<title>Node10</title>
<g id="a_node10"><a xlink:href="settings_8hpp.html" target="_top" xlink:title="Settings structures for SignalEasel.">
<polygon fill="none" stroke="black" points="406,-56.5 406,-75.5 542,-75.5 542,-56.5 406,-56.5"/>
<text text-anchor="middle" x="474" y="-63.5" font-family="Helvetica,sans-Serif" font-size="10.00">SignalEasel/settings.hpp</text>
</a>
</g>
</g>
<!-- Node9&#45;&gt;Node10 -->
<g id="edge10" class="edge">
<title>Node9&#45;&gt;Node10</title>
<path fill="none" stroke="midnightblue" d="M468.99,-112.08C469.79,-104.93 470.93,-94.64 471.92,-85.69"/>
<polygon fill="midnightblue" stroke="midnightblue" points="475.4,-86.08 473.03,-75.75 468.44,-85.3 475.4,-86.08"/>
</g>
<!-- Node11 -->
<g id="node11" class="node">
<title>Node11</title>
<g id="a_node11"><a xlink:title=" ">
<polygon fill="none" stroke="#bfbfbf" points="452,-0.5 452,-19.5 496,-19.5 496,-0.5 452,-0.5"/>
<text text-anchor="middle" x="474" y="-7.5" font-family="Helvetica,sans-Serif" font-size="10.00">string</text>
</a>
</g>
</g>
<!-- Node10&#45;&gt;Node11 -->
<g id="edge11" class="edge">
<title>Node10&#45;&gt;Node11</title>
<path fill="none" stroke="midnightblue" d="M474,-56.08C474,-49.01 474,-38.86 474,-29.99"/>
<polygon fill="midnightblue" stroke="midnightblue" points="477.5,-29.75 474,-19.75 470.5,-29.75 477.5,-29.75"/>
</g>
</g>
</svg>
