<?xml version="1.0" encoding="UTF-8"?>
<!DOCTYPE svg PUBLIC "-//W3C//DTD SVG 1.1//EN" "http://www.w3.org/Graphics/SVG/1.1/DTD/svg11.dtd">
<svg xmlns="http://www.w3.org/2000/svg" xmlns:xlink="http://www.w3.org/1999/xlink" version="1.1" width="149px" height="209px" viewBox="-0.5 -0.5 149 209" style="background-color: rgb(255, 255, 255);"><defs/><g><rect x="37.34" y="31.28" width="72.67" height="12.11" fill="rgb(255, 255, 255)" stroke="rgb(0, 0, 0)" stroke-width="3" transform="rotate(-90,73.68,37.34)" pointer-events="all"/><rect x="37.34" y="176.63" width="72.67" height="12.11" fill="rgb(255, 255, 255)" stroke="rgb(0, 0, 0)" stroke-width="2" pointer-events="all"/><rect x="25.22" y="128.18" width="145.35" height="12.11" fill="rgb(255, 255, 255)" stroke="rgb(0, 0, 0)" stroke-width="3" transform="translate(0,134.24)scale(1,-1)translate(0,-134.24)rotate(-255,97.9,134.24)" pointer-events="all"/><rect x="-25.47" y="128.18" width="145.35" height="12.11" fill="rgb(255, 255, 255)" stroke="rgb(0, 0, 0)" stroke-width="3" transform="rotate(-75,47.21,134.24)" pointer-events="all"/><rect x="13.11" y="19.17" width="121.12" height="109.01" fill="rgb(255, 255, 255)" stroke="rgb(0, 0, 0)" stroke-width="3" pointer-events="all"/><rect x="1" y="128.18" width="145.35" height="12.11" fill="rgb(255, 255, 255)" stroke="rgb(0, 0, 0)" stroke-width="3" pointer-events="all"/><rect x="64.59" y="7.06" width="18.17" height="24.22" fill="rgb(255, 255, 255)" stroke="rgb(0, 0, 0)" stroke-width="3" transform="rotate(-180,73.67,19.17)" pointer-events="all"/><ellipse cx="73.68" cy="73.67" rx="9.999999999999998" ry="9.999999999999998" fill="rgb(255, 255, 255)" stroke="rgb(0, 0, 0)" stroke-width="2" pointer-events="all"/><path d="M 63.68 93.67 Q 53.68 83.67 53.68 73.67 Q 53.68 63.67 63.68 53.67" fill="none" stroke="rgb(0, 0, 0)" stroke-width="2" stroke-miterlimit="10" pointer-events="stroke"/><path d="M 83.68 53.67 Q 93.68 63.67 93.68 73.67 Q 93.68 83.67 83.68 93.67" fill="none" stroke="rgb(0, 0, 0)" stroke-width="2" stroke-miterlimit="10" pointer-events="stroke"/><path d="M 53.68 93.67 Q 43.68 83.67 43.68 73.67 Q 43.68 63.67 53.68 53.67" fill="none" stroke="rgb(0, 0, 0)" stroke-width="2" stroke-miterlimit="10" pointer-events="stroke"/><path d="M 93.68 53.67 Q 103.68 63.67 103.68 73.67 Q 103.68 83.67 93.68 93.67" fill="none" stroke="rgb(0, 0, 0)" stroke-width="2" stroke-miterlimit="10" pointer-events="stroke"/><path d="M 103.68 53.67 Q 113.68 63.67 113.68 73.67 Q 113.68 83.67 103.68 93.67" fill="none" stroke="rgb(0, 0, 0)" stroke-width="2" stroke-miterlimit="10" pointer-events="stroke"/><path d="M 43.68 93.67 Q 33.68 83.67 33.68 73.67 Q 33.68 63.67 43.68 53.67" fill="none" stroke="rgb(0, 0, 0)" stroke-width="2" stroke-miterlimit="10" pointer-events="stroke"/></g></svg>